{
  "header": {
    "keySignatures": [],
    "meta": [],
    "name": "",
    "ppq": 96,
    "tempos": [
      {
        "bpm": 224.99971875035158,
        "ticks": 0
      },
      {
        "bpm": 265.0001104167127,
        "ticks": 0
      },
      {
        "bpm": 224.99971875035158,
        "ticks": 0
      },
      {
        "bpm": 224.99971875035158,
        "ticks": 0
      },
      {
        "bpm": 244.99995916667348,
        "ticks": 77184
      },
      {
        "bpm": 265.0001104167127,
        "ticks": 77952
      },
      {
        "bpm": 255.00012750006374,
        "ticks": 78816
      },
      {
        "bpm": 244.99995916667348,
        "ticks": 78913
      },
      {
        "bpm": 235.0001370834133,
        "ticks": 79008
      },
      {
        "bpm": 227.00015511677267,
        "ticks": 79200
      },
      {
        "bpm": 224.99971875035158,
        "ticks": 79297
      },
      {
        "bpm": 265.0001104167127,
        "ticks": 82490
      },
      {
        "bpm": 224.99971875035158,
        "ticks": 82490
      }
    ],
    "timeSignatures": [
      {
        "ticks": 0,
        "timeSignature": [
          4,
          4
        ],
        "measures": 0
      }
    ]
  },
  "tracks": [
    {
      "channel": 0,
      "controlChanges": {},
      "pitchBends": [],
      "instrument": {
        "family": "piano",
        "number": 0,
        "name": "acoustic grand piano"
      },
      "name": "",
      "notes": [],
      "endOfTrackTicks": 82490
    },
    {
      "channel": 0,
      "controlChanges": {
        "6": [
          {
            "number": 6,
            "ticks": 0,
            "time": 0,
            "value": 0.09448818897637795
          },
          {
            "number": 6,
            "ticks": 0,
            "time": 0,
            "value": 0.09448818897637795
          },
          {
            "number": 6,
            "ticks": 0,
            "time": 0,
            "value": 0.09448818897637795
          },
          {
            "number": 6,
            "ticks": 82466,
            "time": 228.45777604166662,
            "value": 0.09448818897637795
          },
          {
            "number": 6,
            "ticks": 82491,
            "time": 228.52722057291663,
            "value": 0.09448818897637795
          }
        ],
        "7": [
          {
            "number": 7,
            "ticks": 0,
            "time": 0,
            "value": 0.7874015748031497
          },
          {
            "number": 7,
            "ticks": 0,
            "time": 0,
            "value": 0.7874015748031497
          },
          {
            "number": 7,
            "ticks": 0,
            "time": 0,
            "value": 0.7874015748031497
          },
          {
            "number": 7,
            "ticks": 0,
            "time": 0,
            "value": 0.7874015748031497
          },
          {
            "number": 7,
            "ticks": 82466,
            "time": 228.45777604166662,
            "value": 0.7874015748031497
          },
          {
            "number": 7,
            "ticks": 82491,
            "time": 228.52722057291663,
            "value": 0.7874015748031497
          }
        ],
        "10": [
          {
            "number": 10,
            "ticks": 0,
            "time": 0,
            "value": 0.5039370078740157
          },
          {
            "number": 10,
            "ticks": 0,
            "time": 0,
            "value": 0.5039370078740157
          },
          {
            "number": 10,
            "ticks": 0,
            "time": 0,
            "value": 0.5039370078740157
          },
          {
            "number": 10,
            "ticks": 0,
            "time": 0,
            "value": 0.5039370078740157
          },
          {
            "number": 10,
            "ticks": 82466,
            "time": 228.45777604166662,
            "value": 0.5039370078740157
          },
          {
            "number": 10,
            "ticks": 82491,
            "time": 228.52722057291663,
            "value": 0.5039370078740157
          }
        ],
        "100": [
          {
            "number": 100,
            "ticks": 0,
            "time": 0,
            "value": 0
          },
          {
            "number": 100,
            "ticks": 0,
            "time": 0,
            "value": 0
          },
          {
            "number": 100,
            "ticks": 0,
            "time": 0,
            "value": 0
          },
          {
            "number": 100,
            "ticks": 82466,
            "time": 228.45777604166662,
            "value": 0
          },
          {
            "number": 100,
            "ticks": 82491,
            "time": 228.52722057291663,
            "value": 0
          }
        ],
        "101": [
          {
            "number": 101,
            "ticks": 0,
            "time": 0,
            "value": 0
          },
          {
            "number": 101,
            "ticks": 0,
            "time": 0,
            "value": 0
          },
          {
            "number": 101,
            "ticks": 0,
            "time": 0,
            "value": 0
          },
          {
            "number": 101,
            "ticks": 82466,
            "time": 228.45777604166662,
            "value": 0
          },
          {
            "number": 101,
            "ticks": 82491,
            "time": 228.52722057291663,
            "value": 0
          }
        ]
      },
      "pitchBends": [
        {
          "ticks": 0,
          "time": 0,
          "value": 0
        },
        {
          "ticks": 0,
          "time": 0,
          "value": 0
        },
        {
          "ticks": 0,
          "time": 0,
          "value": 0
        },
        {
          "ticks": 0,
          "time": 0,
          "value": 0
        },
        {
          "ticks": 82466,
          "time": 228.45777604166662,
          "value": 0
        },
        {
          "ticks": 82491,
          "time": 228.52722057291663,
          "value": 0
        }
      ],
      "instrument": {
        "family": "piano",
        "number": 0,
        "name": "acoustic grand piano"
      },
      "name": "Piano",
      "notes": [
        {
          "duration": 0.1333334999999991,
          "durationTicks": 48,
          "midi": 54,
          "name": "F#3",
          "ticks": 3264,
          "time": 9.066678,
          "velocity": 0.8110236220472441
        },
        {
          "duration": 0.13333350000000088,
          "durationTicks": 48,
          "midi": 46,
          "name": "A#2",
          "ticks": 3312,
          "time": 9.200011499999999,
          "velocity": 0.7165354330708661
        },
        {
          "duration": 0.13333350000000088,
          "durationTicks": 48,
          "midi": 58,
          "name": "A#3",
          "ticks": 3360,
          "time": 9.333345,
          "velocity": 0.8110236220472441
        },
        {
          "duration": 0.1333334999999991,
          "durationTicks": 48,
          "midi": 51,
          "name": "D#3",
          "ticks": 3408,
          "time": 9.4666785,
          "velocity": 0.8110236220472441
        },
        {
          "duration": 0.1333334999999991,
          "durationTicks": 48,
          "midi": 57,
          "name": "A3",
          "ticks": 3456,
          "time": 9.600012,
          "velocity": 0.8110236220472441
        },
        {
          "duration": 0.13333350000000088,
          "durationTicks": 48,
          "midi": 51,
          "name": "D#3",
          "ticks": 3504,
          "time": 9.733345499999999,
          "velocity": 0.8110236220472441
        },
        {
          "duration": 0.13333350000000088,
          "durationTicks": 48,
          "midi": 58,
          "name": "A#3",
          "ticks": 3552,
          "time": 9.866679,
          "velocity": 0.8110236220472441
        },
        {
          "duration": 0.1333334999999991,
          "durationTicks": 48,
          "midi": 51,
          "name": "D#3",
          "ticks": 3600,
          "time": 10.0000125,
          "velocity": 0.8110236220472441
        },
        {
          "duration": 0.1333334999999991,
          "durationTicks": 48,
          "midi": 59,
          "name": "B3",
          "ticks": 3648,
          "time": 10.133346,
          "velocity": 0.8110236220472441
        },
        {
          "duration": 0.13333350000000088,
          "durationTicks": 48,
          "midi": 51,
          "name": "D#3",
          "ticks": 3696,
          "time": 10.266679499999999,
          "velocity": 0.8110236220472441
        },
        {
          "duration": 0.13333350000000088,
          "durationTicks": 48,
          "midi": 57,
          "name": "A3",
          "ticks": 3744,
          "time": 10.400013,
          "velocity": 0.8110236220472441
        },
        {
          "duration": 0.1333334999999991,
          "durationTicks": 48,
          "midi": 51,
          "name": "D#3",
          "ticks": 3792,
          "time": 10.5333465,
          "velocity": 0.8110236220472441
        },
        {
          "duration": 0.1333334999999991,
          "durationTicks": 48,
          "midi": 58,
          "name": "A#3",
          "ticks": 3840,
          "time": 10.66668,
          "velocity": 0.8110236220472441
        },
        {
          "duration": 0.13333350000000088,
          "durationTicks": 48,
          "midi": 51,
          "name": "D#3",
          "ticks": 3888,
          "time": 10.800013499999999,
          "velocity": 0.8110236220472441
        },
        {
          "duration": 0.06666674999999955,
          "durationTicks": 24,
          "midi": 46,
          "name": "A#2",
          "ticks": 3936,
          "time": 10.933347,
          "velocity": 0.7637795275590551
        },
        {
          "duration": 0.06666674999999955,
          "durationTicks": 24,
          "midi": 46,
          "name": "A#2",
          "ticks": 3984,
          "time": 11.0666805,
          "velocity": 0.7637795275590551
        },
        {
          "duration": 0.1333334999999991,
          "durationTicks": 48,
          "midi": 54,
          "name": "F#3",
          "ticks": 4032,
          "time": 11.200014,
          "velocity": 0.8110236220472441
        },
        {
          "duration": 0.13333350000000088,
          "durationTicks": 48,
          "midi": 46,
          "name": "A#2",
          "ticks": 4080,
          "time": 11.333347499999999,
          "velocity": 0.7165354330708661
        },
        {
          "duration": 0.13333350000000088,
          "durationTicks": 48,
          "midi": 58,
          "name": "A#3",
          "ticks": 4128,
          "time": 11.466681,
          "velocity": 0.8110236220472441
        },
        {
          "duration": 0.1333334999999991,
          "durationTicks": 48,
          "midi": 51,
          "name": "D#3",
          "ticks": 4176,
          "time": 11.6000145,
          "velocity": 0.8110236220472441
        },
        {
          "duration": 0.1333334999999991,
          "durationTicks": 48,
          "midi": 57,
          "name": "A3",
          "ticks": 4224,
          "time": 11.733348,
          "velocity": 0.8110236220472441
        },
        {
          "duration": 0.13333350000000088,
          "durationTicks": 48,
          "midi": 51,
          "name": "D#3",
          "ticks": 4272,
          "time": 11.866681499999999,
          "velocity": 0.8110236220472441
        },
        {
          "duration": 0.13333350000000088,
          "durationTicks": 48,
          "midi": 58,
          "name": "A#3",
          "ticks": 4320,
          "time": 12.000015,
          "velocity": 0.8110236220472441
        },
        {
          "duration": 0.1333334999999991,
          "durationTicks": 48,
          "midi": 51,
          "name": "D#3",
          "ticks": 4368,
          "time": 12.1333485,
          "velocity": 0.8110236220472441
        },
        {
          "duration": 0.1333334999999991,
          "durationTicks": 48,
          "midi": 59,
          "name": "B3",
          "ticks": 4416,
          "time": 12.266682,
          "velocity": 0.8110236220472441
        },
        {
          "duration": 0.13333350000000088,
          "durationTicks": 48,
          "midi": 51,
          "name": "D#3",
          "ticks": 4464,
          "time": 12.400015499999999,
          "velocity": 0.8110236220472441
        },
        {
          "duration": 0.06666675000000133,
          "durationTicks": 24,
          "midi": 63,
          "name": "D#4",
          "ticks": 4464,
          "time": 12.400015499999999,
          "velocity": 0.8110236220472441
        },
        {
          "duration": 0.06666674999999955,
          "durationTicks": 24,
          "midi": 62,
          "name": "D4",
          "ticks": 4488,
          "time": 12.46668225,
          "velocity": 0.8110236220472441
        },
        {
          "duration": 0.06666674999999955,
          "durationTicks": 24,
          "midi": 61,
          "name": "C#4",
          "ticks": 4512,
          "time": 12.533349,
          "velocity": 0.8110236220472441
        },
        {
          "duration": 0.06666675000000133,
          "durationTicks": 24,
          "midi": 60,
          "name": "C4",
          "ticks": 4536,
          "time": 12.600015749999999,
          "velocity": 0.8110236220472441
        },
        {
          "duration": 0.06666674999999955,
          "durationTicks": 24,
          "midi": 59,
          "name": "B3",
          "ticks": 4560,
          "time": 12.6666825,
          "velocity": 0.8110236220472441
        },
        {
          "duration": 0.06666674999999955,
          "durationTicks": 24,
          "midi": 58,
          "name": "A#3",
          "ticks": 4584,
          "time": 12.73334925,
          "velocity": 0.8110236220472441
        },
        {
          "duration": 0.1333334999999991,
          "durationTicks": 48,
          "midi": 57,
          "name": "A3",
          "ticks": 4608,
          "time": 12.800016,
          "velocity": 0.8110236220472441
        },
        {
          "duration": 0.13333350000000088,
          "durationTicks": 48,
          "midi": 51,
          "name": "D#3",
          "ticks": 4656,
          "time": 12.933349499999998,
          "velocity": 0.8110236220472441
        },
        {
          "duration": 0.13333350000000088,
          "durationTicks": 48,
          "midi": 58,
          "name": "A#3",
          "ticks": 4704,
          "time": 13.066683,
          "velocity": 0.8110236220472441
        },
        {
          "duration": 0.1333334999999991,
          "durationTicks": 48,
          "midi": 51,
          "name": "D#3",
          "ticks": 4752,
          "time": 13.2000165,
          "velocity": 0.8110236220472441
        },
        {
          "duration": 0.13333350000000088,
          "durationTicks": 48,
          "midi": 58,
          "name": "A#3",
          "ticks": 4896,
          "time": 13.600017,
          "velocity": 0.7637795275590551
        },
        {
          "duration": 0.1333334999999991,
          "durationTicks": 48,
          "midi": 51,
          "name": "D#3",
          "ticks": 4944,
          "time": 13.7333505,
          "velocity": 0.7559055118110236
        },
        {
          "duration": 0.1333334999999991,
          "durationTicks": 48,
          "midi": 57,
          "name": "A3",
          "ticks": 4992,
          "time": 13.866684,
          "velocity": 0.7480314960629921
        },
        {
          "duration": 0.13333350000000088,
          "durationTicks": 48,
          "midi": 51,
          "name": "D#3",
          "ticks": 5040,
          "time": 14.000017499999998,
          "velocity": 0.7401574803149606
        },
        {
          "duration": 0.13333350000000088,
          "durationTicks": 48,
          "midi": 58,
          "name": "A#3",
          "ticks": 5088,
          "time": 14.133351,
          "velocity": 0.7244094488188977
        },
        {
          "duration": 0.1333334999999991,
          "durationTicks": 48,
          "midi": 51,
          "name": "D#3",
          "ticks": 5136,
          "time": 14.2666845,
          "velocity": 0.7086614173228346
        },
        {
          "duration": 0.1333334999999991,
          "durationTicks": 48,
          "midi": 58,
          "name": "A#3",
          "ticks": 5184,
          "time": 14.400018,
          "velocity": 0.6771653543307087
        },
        {
          "duration": 0.13333350000000088,
          "durationTicks": 48,
          "midi": 50,
          "name": "D3",
          "ticks": 5232,
          "time": 14.533351499999998,
          "velocity": 0.6535433070866141
        },
        {
          "duration": 0.13333350000000088,
          "durationTicks": 48,
          "midi": 56,
          "name": "G#3",
          "ticks": 5280,
          "time": 14.666685,
          "velocity": 0.6220472440944882
        },
        {
          "duration": 0.1333334999999991,
          "durationTicks": 48,
          "midi": 50,
          "name": "D3",
          "ticks": 5328,
          "time": 14.8000185,
          "velocity": 0.5984251968503937
        },
        {
          "duration": 0.1333334999999991,
          "durationTicks": 48,
          "midi": 57,
          "name": "A3",
          "ticks": 5376,
          "time": 14.933352,
          "velocity": 0.5669291338582677
        },
        {
          "duration": 0.13333350000000088,
          "durationTicks": 48,
          "midi": 50,
          "name": "D3",
          "ticks": 5424,
          "time": 15.066685499999998,
          "velocity": 0.5433070866141733
        },
        {
          "duration": 0.1333334999999991,
          "durationTicks": 48,
          "midi": 49,
          "name": "C#3",
          "ticks": 5568,
          "time": 15.466686,
          "velocity": 0.4566929133858268
        },
        {
          "duration": 0.13333350000000088,
          "durationTicks": 48,
          "midi": 49,
          "name": "C#3",
          "ticks": 5616,
          "time": 15.600019499999998,
          "velocity": 0.4251968503937008
        },
        {
          "duration": 0.13333350000000088,
          "durationTicks": 48,
          "midi": 56,
          "name": "G#3",
          "ticks": 5664,
          "time": 15.733353,
          "velocity": 0.4015748031496063
        },
        {
          "duration": 0.13333350000000088,
          "durationTicks": 48,
          "midi": 49,
          "name": "C#3",
          "ticks": 5720,
          "time": 15.88890875,
          "velocity": 0.3700787401574803
        },
        {
          "duration": 0.1333334999999991,
          "durationTicks": 48,
          "midi": 55,
          "name": "G3",
          "ticks": 5760,
          "time": 16.00002,
          "velocity": 0.3464566929133858
        },
        {
          "duration": 0.1333334999999991,
          "durationTicks": 48,
          "midi": 49,
          "name": "C#3",
          "ticks": 5808,
          "time": 16.1333535,
          "velocity": 0.31496062992125984
        },
        {
          "duration": 0.13333350000000266,
          "durationTicks": 48,
          "midi": 56,
          "name": "G#3",
          "ticks": 5856,
          "time": 16.266686999999997,
          "velocity": 0.29133858267716534
        },
        {
          "duration": 0.1333334999999991,
          "durationTicks": 48,
          "midi": 49,
          "name": "C#3",
          "ticks": 5904,
          "time": 16.4000205,
          "velocity": 0.25984251968503935
        },
        {
          "duration": 0.1333334999999991,
          "durationTicks": 48,
          "midi": 56,
          "name": "G#3",
          "ticks": 5952,
          "time": 16.533354,
          "velocity": 0.23622047244094488
        },
        {
          "duration": 0.13333350000000266,
          "durationTicks": 48,
          "midi": 48,
          "name": "C3",
          "ticks": 6000,
          "time": 16.6666875,
          "velocity": 0.2047244094488189
        },
        {
          "duration": 0.06666674999999955,
          "durationTicks": 24,
          "midi": 60,
          "name": "C4",
          "ticks": 6000,
          "time": 16.6666875,
          "velocity": 0.2047244094488189
        },
        {
          "duration": 0.0666667500000031,
          "durationTicks": 24,
          "midi": 59,
          "name": "B3",
          "ticks": 6024,
          "time": 16.733354249999998,
          "velocity": 0.1889763779527559
        },
        {
          "duration": 0.06666674999999955,
          "durationTicks": 24,
          "midi": 58,
          "name": "A#3",
          "ticks": 6048,
          "time": 16.800021,
          "velocity": 0.18110236220472442
        },
        {
          "duration": 0.06666674999999955,
          "durationTicks": 24,
          "midi": 57,
          "name": "A3",
          "ticks": 6072,
          "time": 16.86668775,
          "velocity": 0.16535433070866143
        },
        {
          "duration": 0.06666674999999955,
          "durationTicks": 24,
          "midi": 56,
          "name": "G#3",
          "ticks": 6096,
          "time": 16.9333545,
          "velocity": 0.14960629921259844
        },
        {
          "duration": 0.06666674999999955,
          "durationTicks": 24,
          "midi": 55,
          "name": "G3",
          "ticks": 6120,
          "time": 17.00002125,
          "velocity": 0.13385826771653545
        },
        {
          "duration": 0.1333334999999991,
          "durationTicks": 48,
          "midi": 54,
          "name": "F#3",
          "ticks": 6144,
          "time": 17.066688,
          "velocity": 0.11811023622047244
        },
        {
          "duration": 0.1333334999999991,
          "durationTicks": 48,
          "midi": 48,
          "name": "C3",
          "ticks": 6192,
          "time": 17.2000215,
          "velocity": 0.09448818897637795
        },
        {
          "duration": 0.13333350000000266,
          "durationTicks": 48,
          "midi": 55,
          "name": "G3",
          "ticks": 6240,
          "time": 17.333354999999997,
          "velocity": 0.06299212598425197
        },
        {
          "duration": 0.1333334999999991,
          "durationTicks": 48,
          "midi": 48,
          "name": "C3",
          "ticks": 6288,
          "time": 17.4666885,
          "velocity": 0.03937007874015748
        },
        {
          "duration": 0.133333499999992,
          "durationTicks": 48,
          "midi": 58,
          "name": "A#3",
          "ticks": 72960,
          "time": 202.66692,
          "velocity": 0.8110236220472441
        },
        {
          "duration": 0.133333499999992,
          "durationTicks": 48,
          "midi": 50,
          "name": "D3",
          "ticks": 73008,
          "time": 202.8002535,
          "velocity": 0.8110236220472441
        },
        {
          "duration": 0.133333499999992,
          "durationTicks": 48,
          "midi": 62,
          "name": "D4",
          "ticks": 73056,
          "time": 202.933587,
          "velocity": 0.8110236220472441
        },
        {
          "duration": 0.13333350000002042,
          "durationTicks": 48,
          "midi": 55,
          "name": "G3",
          "ticks": 73104,
          "time": 203.06692049999998,
          "velocity": 0.8110236220472441
        },
        {
          "duration": 0.133333499999992,
          "durationTicks": 48,
          "midi": 61,
          "name": "C#4",
          "ticks": 73152,
          "time": 203.200254,
          "velocity": 0.8110236220472441
        },
        {
          "duration": 0.133333499999992,
          "durationTicks": 48,
          "midi": 55,
          "name": "G3",
          "ticks": 73200,
          "time": 203.3335875,
          "velocity": 0.8110236220472441
        },
        {
          "duration": 0.133333499999992,
          "durationTicks": 48,
          "midi": 62,
          "name": "D4",
          "ticks": 73248,
          "time": 203.46692099999999,
          "velocity": 0.8110236220472441
        },
        {
          "duration": 0.13333350000002042,
          "durationTicks": 48,
          "midi": 55,
          "name": "G3",
          "ticks": 73296,
          "time": 203.60025449999998,
          "velocity": 0.8110236220472441
        },
        {
          "duration": 0.133333499999992,
          "durationTicks": 48,
          "midi": 63,
          "name": "D#4",
          "ticks": 73344,
          "time": 203.733588,
          "velocity": 0.8110236220472441
        },
        {
          "duration": 0.133333499999992,
          "durationTicks": 48,
          "midi": 55,
          "name": "G3",
          "ticks": 73392,
          "time": 203.8669215,
          "velocity": 0.8110236220472441
        },
        {
          "duration": 0.13333350000002042,
          "durationTicks": 48,
          "midi": 61,
          "name": "C#4",
          "ticks": 73440,
          "time": 204.00025499999998,
          "velocity": 0.8110236220472441
        },
        {
          "duration": 0.133333499999992,
          "durationTicks": 48,
          "midi": 55,
          "name": "G3",
          "ticks": 73488,
          "time": 204.1335885,
          "velocity": 0.8110236220472441
        },
        {
          "duration": 0.133333499999992,
          "durationTicks": 48,
          "midi": 62,
          "name": "D4",
          "ticks": 73536,
          "time": 204.266922,
          "velocity": 0.8110236220472441
        },
        {
          "duration": 0.133333499999992,
          "durationTicks": 48,
          "midi": 55,
          "name": "G3",
          "ticks": 73584,
          "time": 204.4002555,
          "velocity": 0.8110236220472441
        },
        {
          "duration": 0.04444449999999733,
          "durationTicks": 16,
          "midi": 50,
          "name": "D3",
          "ticks": 73632,
          "time": 204.53358899999998,
          "velocity": 0.7165354330708661
        },
        {
          "duration": 0.04444449999996891,
          "durationTicks": 16,
          "midi": 50,
          "name": "D3",
          "ticks": 73680,
          "time": 204.6669225,
          "velocity": 0.7165354330708661
        },
        {
          "duration": 0.133333499999992,
          "durationTicks": 48,
          "midi": 58,
          "name": "A#3",
          "ticks": 73728,
          "time": 204.800256,
          "velocity": 0.8110236220472441
        },
        {
          "duration": 0.13333350000002042,
          "durationTicks": 48,
          "midi": 50,
          "name": "D3",
          "ticks": 73776,
          "time": 204.93358949999998,
          "velocity": 0.7165354330708661
        },
        {
          "duration": 0.133333499999992,
          "durationTicks": 48,
          "midi": 62,
          "name": "D4",
          "ticks": 73824,
          "time": 205.066923,
          "velocity": 0.8110236220472441
        },
        {
          "duration": 0.133333499999992,
          "durationTicks": 48,
          "midi": 55,
          "name": "G3",
          "ticks": 73872,
          "time": 205.2002565,
          "velocity": 0.8110236220472441
        },
        {
          "duration": 0.133333499999992,
          "durationTicks": 48,
          "midi": 61,
          "name": "C#4",
          "ticks": 73920,
          "time": 205.33359,
          "velocity": 0.8110236220472441
        },
        {
          "duration": 0.13333350000002042,
          "durationTicks": 48,
          "midi": 55,
          "name": "G3",
          "ticks": 73968,
          "time": 205.46692349999998,
          "velocity": 0.8110236220472441
        },
        {
          "duration": 0.133333499999992,
          "durationTicks": 48,
          "midi": 62,
          "name": "D4",
          "ticks": 74016,
          "time": 205.600257,
          "velocity": 0.8110236220472441
        },
        {
          "duration": 0.133333499999992,
          "durationTicks": 48,
          "midi": 55,
          "name": "G3",
          "ticks": 74064,
          "time": 205.7335905,
          "velocity": 0.8110236220472441
        },
        {
          "duration": 0.13333350000002042,
          "durationTicks": 48,
          "midi": 63,
          "name": "D#4",
          "ticks": 74112,
          "time": 205.86692399999998,
          "velocity": 0.8110236220472441
        },
        {
          "duration": 0.133333499999992,
          "durationTicks": 48,
          "midi": 55,
          "name": "G3",
          "ticks": 74160,
          "time": 206.0002575,
          "velocity": 0.8110236220472441
        },
        {
          "duration": 0.066666749999996,
          "durationTicks": 24,
          "midi": 67,
          "name": "G4",
          "ticks": 74160,
          "time": 206.0002575,
          "velocity": 0.8110236220472441
        },
        {
          "duration": 0.066666749999996,
          "durationTicks": 24,
          "midi": 66,
          "name": "F#4",
          "ticks": 74184,
          "time": 206.06692425,
          "velocity": 0.8110236220472441
        },
        {
          "duration": 0.066666749999996,
          "durationTicks": 24,
          "midi": 65,
          "name": "F4",
          "ticks": 74208,
          "time": 206.133591,
          "velocity": 0.8110236220472441
        },
        {
          "duration": 0.066666749999996,
          "durationTicks": 24,
          "midi": 64,
          "name": "E4",
          "ticks": 74232,
          "time": 206.20025775,
          "velocity": 0.8110236220472441
        },
        {
          "duration": 0.066666749999996,
          "durationTicks": 24,
          "midi": 63,
          "name": "D#4",
          "ticks": 74256,
          "time": 206.2669245,
          "velocity": 0.8110236220472441
        },
        {
          "duration": 0.066666749999996,
          "durationTicks": 24,
          "midi": 62,
          "name": "D4",
          "ticks": 74280,
          "time": 206.33359124999998,
          "velocity": 0.8110236220472441
        },
        {
          "duration": 0.13333350000002042,
          "durationTicks": 48,
          "midi": 61,
          "name": "C#4",
          "ticks": 74304,
          "time": 206.40025799999998,
          "velocity": 0.8110236220472441
        },
        {
          "duration": 0.133333499999992,
          "durationTicks": 48,
          "midi": 55,
          "name": "G3",
          "ticks": 74352,
          "time": 206.5335915,
          "velocity": 0.8110236220472441
        },
        {
          "duration": 0.133333499999992,
          "durationTicks": 48,
          "midi": 62,
          "name": "D4",
          "ticks": 74400,
          "time": 206.666925,
          "velocity": 0.8110236220472441
        },
        {
          "duration": 0.133333499999992,
          "durationTicks": 48,
          "midi": 55,
          "name": "G3",
          "ticks": 74448,
          "time": 206.80025849999998,
          "velocity": 0.8110236220472441
        },
        {
          "duration": 0.13333350000002042,
          "durationTicks": 48,
          "midi": 58,
          "name": "A#3",
          "ticks": 74496,
          "time": 206.93359199999998,
          "velocity": 0.8110236220472441
        },
        {
          "duration": 0.133333499999992,
          "durationTicks": 48,
          "midi": 50,
          "name": "D3",
          "ticks": 74544,
          "time": 207.0669255,
          "velocity": 0.8110236220472441
        },
        {
          "duration": 0.133333499999992,
          "durationTicks": 48,
          "midi": 62,
          "name": "D4",
          "ticks": 74592,
          "time": 207.200259,
          "velocity": 0.8110236220472441
        },
        {
          "duration": 0.13333350000002042,
          "durationTicks": 48,
          "midi": 55,
          "name": "G3",
          "ticks": 74640,
          "time": 207.33359249999998,
          "velocity": 0.8110236220472441
        },
        {
          "duration": 0.133333499999992,
          "durationTicks": 48,
          "midi": 61,
          "name": "C#4",
          "ticks": 74688,
          "time": 207.466926,
          "velocity": 0.8110236220472441
        },
        {
          "duration": 0.133333499999992,
          "durationTicks": 48,
          "midi": 55,
          "name": "G3",
          "ticks": 74736,
          "time": 207.6002595,
          "velocity": 0.8110236220472441
        },
        {
          "duration": 0.133333499999992,
          "durationTicks": 48,
          "midi": 62,
          "name": "D4",
          "ticks": 74784,
          "time": 207.73359299999998,
          "velocity": 0.8110236220472441
        },
        {
          "duration": 0.13333350000002042,
          "durationTicks": 48,
          "midi": 55,
          "name": "G3",
          "ticks": 74832,
          "time": 207.86692649999998,
          "velocity": 0.8110236220472441
        },
        {
          "duration": 0.133333499999992,
          "durationTicks": 48,
          "midi": 63,
          "name": "D#4",
          "ticks": 74880,
          "time": 208.00026,
          "velocity": 0.8110236220472441
        },
        {
          "duration": 0.133333499999992,
          "durationTicks": 48,
          "midi": 55,
          "name": "G3",
          "ticks": 74928,
          "time": 208.1335935,
          "velocity": 0.8110236220472441
        },
        {
          "duration": 0.13333350000002042,
          "durationTicks": 48,
          "midi": 61,
          "name": "C#4",
          "ticks": 74976,
          "time": 208.26692699999998,
          "velocity": 0.8110236220472441
        },
        {
          "duration": 0.133333499999992,
          "durationTicks": 48,
          "midi": 55,
          "name": "G3",
          "ticks": 75024,
          "time": 208.4002605,
          "velocity": 0.8110236220472441
        },
        {
          "duration": 0.133333499999992,
          "durationTicks": 48,
          "midi": 62,
          "name": "D4",
          "ticks": 75072,
          "time": 208.533594,
          "velocity": 0.8110236220472441
        },
        {
          "duration": 0.133333499999992,
          "durationTicks": 48,
          "midi": 55,
          "name": "G3",
          "ticks": 75120,
          "time": 208.66692749999999,
          "velocity": 0.8110236220472441
        },
        {
          "duration": 0.04444449999999733,
          "durationTicks": 16,
          "midi": 50,
          "name": "D3",
          "ticks": 75168,
          "time": 208.80026099999998,
          "velocity": 0.7165354330708661
        },
        {
          "duration": 0.04444449999996891,
          "durationTicks": 16,
          "midi": 50,
          "name": "D3",
          "ticks": 75216,
          "time": 208.9335945,
          "velocity": 0.7165354330708661
        },
        {
          "duration": 0.133333499999992,
          "durationTicks": 48,
          "midi": 58,
          "name": "A#3",
          "ticks": 75264,
          "time": 209.066928,
          "velocity": 0.8110236220472441
        },
        {
          "duration": 0.13333350000002042,
          "durationTicks": 48,
          "midi": 50,
          "name": "D3",
          "ticks": 75312,
          "time": 209.20026149999998,
          "velocity": 0.7165354330708661
        },
        {
          "duration": 0.133333499999992,
          "durationTicks": 48,
          "midi": 62,
          "name": "D4",
          "ticks": 75360,
          "time": 209.333595,
          "velocity": 0.8110236220472441
        },
        {
          "duration": 0.133333499999992,
          "durationTicks": 48,
          "midi": 55,
          "name": "G3",
          "ticks": 75408,
          "time": 209.4669285,
          "velocity": 0.8110236220472441
        },
        {
          "duration": 0.133333499999992,
          "durationTicks": 48,
          "midi": 61,
          "name": "C#4",
          "ticks": 75456,
          "time": 209.600262,
          "velocity": 0.8110236220472441
        },
        {
          "duration": 0.13333350000002042,
          "durationTicks": 48,
          "midi": 55,
          "name": "G3",
          "ticks": 75504,
          "time": 209.73359549999998,
          "velocity": 0.8110236220472441
        },
        {
          "duration": 0.133333499999992,
          "durationTicks": 48,
          "midi": 62,
          "name": "D4",
          "ticks": 75552,
          "time": 209.866929,
          "velocity": 0.8110236220472441
        },
        {
          "duration": 0.133333499999992,
          "durationTicks": 48,
          "midi": 55,
          "name": "G3",
          "ticks": 75600,
          "time": 210.0002625,
          "velocity": 0.8110236220472441
        },
        {
          "duration": 0.13333350000002042,
          "durationTicks": 48,
          "midi": 63,
          "name": "D#4",
          "ticks": 75648,
          "time": 210.13359599999998,
          "velocity": 0.8110236220472441
        },
        {
          "duration": 0.133333499999992,
          "durationTicks": 48,
          "midi": 64,
          "name": "E4",
          "ticks": 75696,
          "time": 210.2669295,
          "velocity": 0.8110236220472441
        },
        {
          "duration": 0.133333499999992,
          "durationTicks": 48,
          "midi": 65,
          "name": "F4",
          "ticks": 75744,
          "time": 210.400263,
          "velocity": 0.8110236220472441
        },
        {
          "duration": 0.133333499999992,
          "durationTicks": 48,
          "midi": 66,
          "name": "F#4",
          "ticks": 75792,
          "time": 210.5335965,
          "velocity": 0.8110236220472441
        },
        {
          "duration": 0.13333350000002042,
          "durationTicks": 48,
          "midi": 67,
          "name": "G4",
          "ticks": 75840,
          "time": 210.66692999999998,
          "velocity": 0.8110236220472441
        },
        {
          "duration": 0.133333499999992,
          "durationTicks": 48,
          "midi": 68,
          "name": "G#4",
          "ticks": 75888,
          "time": 210.8002635,
          "velocity": 0.8110236220472441
        },
        {
          "duration": 0.133333499999992,
          "durationTicks": 48,
          "midi": 69,
          "name": "A4",
          "ticks": 75936,
          "time": 210.933597,
          "velocity": 0.8110236220472441
        },
        {
          "duration": 0.13333350000002042,
          "durationTicks": 48,
          "midi": 70,
          "name": "A#4",
          "ticks": 75984,
          "time": 211.06693049999998,
          "velocity": 0.8110236220472441
        },
        {
          "duration": 0.133333499999992,
          "durationTicks": 48,
          "midi": 71,
          "name": "B4",
          "ticks": 76032,
          "time": 211.200264,
          "velocity": 0.8110236220472441
        },
        {
          "duration": 0.133333499999992,
          "durationTicks": 48,
          "midi": 72,
          "name": "C5",
          "ticks": 76080,
          "time": 211.3335975,
          "velocity": 0.8110236220472441
        },
        {
          "duration": 0.133333499999992,
          "durationTicks": 48,
          "midi": 73,
          "name": "C#5",
          "ticks": 76128,
          "time": 211.466931,
          "velocity": 0.8110236220472441
        },
        {
          "duration": 0.13333350000002042,
          "durationTicks": 48,
          "midi": 74,
          "name": "D5",
          "ticks": 76176,
          "time": 211.60026449999998,
          "velocity": 0.8110236220472441
        },
        {
          "duration": 0.133333499999992,
          "durationTicks": 48,
          "midi": 59,
          "name": "B3",
          "ticks": 76416,
          "time": 212.266932,
          "velocity": 0.8110236220472441
        },
        {
          "duration": 0.133333499999992,
          "durationTicks": 48,
          "midi": 60,
          "name": "C4",
          "ticks": 76416,
          "time": 212.266932,
          "velocity": 0.8110236220472441
        },
        {
          "duration": 0.133333499999992,
          "durationTicks": 48,
          "midi": 52,
          "name": "E3",
          "ticks": 76464,
          "time": 212.4002655,
          "velocity": 0.8110236220472441
        },
        {
          "duration": 0.133333499999992,
          "durationTicks": 48,
          "midi": 51,
          "name": "D#3",
          "ticks": 76464,
          "time": 212.4002655,
          "velocity": 0.8110236220472441
        },
        {
          "duration": 0.13333350000002042,
          "durationTicks": 48,
          "midi": 64,
          "name": "E4",
          "ticks": 76512,
          "time": 212.53359899999998,
          "velocity": 0.8110236220472441
        },
        {
          "duration": 0.13333350000002042,
          "durationTicks": 48,
          "midi": 63,
          "name": "D#4",
          "ticks": 76512,
          "time": 212.53359899999998,
          "velocity": 0.8110236220472441
        },
        {
          "duration": 0.133333499999992,
          "durationTicks": 48,
          "midi": 57,
          "name": "A3",
          "ticks": 76560,
          "time": 212.6669325,
          "velocity": 0.8110236220472441
        },
        {
          "duration": 0.133333499999992,
          "durationTicks": 48,
          "midi": 56,
          "name": "G#3",
          "ticks": 76560,
          "time": 212.6669325,
          "velocity": 0.8110236220472441
        },
        {
          "duration": 0.133333499999992,
          "durationTicks": 48,
          "midi": 63,
          "name": "D#4",
          "ticks": 76608,
          "time": 212.800266,
          "velocity": 0.8110236220472441
        },
        {
          "duration": 0.133333499999992,
          "durationTicks": 48,
          "midi": 62,
          "name": "D4",
          "ticks": 76608,
          "time": 212.800266,
          "velocity": 0.8110236220472441
        },
        {
          "duration": 0.133333499999992,
          "durationTicks": 48,
          "midi": 56,
          "name": "G#3",
          "ticks": 76656,
          "time": 212.93359949999999,
          "velocity": 0.8110236220472441
        },
        {
          "duration": 0.133333499999992,
          "durationTicks": 48,
          "midi": 57,
          "name": "A3",
          "ticks": 76656,
          "time": 212.93359949999999,
          "velocity": 0.8110236220472441
        },
        {
          "duration": 0.13333350000002042,
          "durationTicks": 48,
          "midi": 64,
          "name": "E4",
          "ticks": 76704,
          "time": 213.06693299999998,
          "velocity": 0.8110236220472441
        },
        {
          "duration": 0.13333350000002042,
          "durationTicks": 48,
          "midi": 63,
          "name": "D#4",
          "ticks": 76704,
          "time": 213.06693299999998,
          "velocity": 0.8110236220472441
        },
        {
          "duration": 0.133333499999992,
          "durationTicks": 48,
          "midi": 57,
          "name": "A3",
          "ticks": 76752,
          "time": 213.2002665,
          "velocity": 0.8110236220472441
        },
        {
          "duration": 0.133333499999992,
          "durationTicks": 48,
          "midi": 56,
          "name": "G#3",
          "ticks": 76752,
          "time": 213.2002665,
          "velocity": 0.8110236220472441
        },
        {
          "duration": 0.133333499999992,
          "durationTicks": 48,
          "midi": 65,
          "name": "F4",
          "ticks": 76800,
          "time": 213.3336,
          "velocity": 0.8110236220472441
        },
        {
          "duration": 0.133333499999992,
          "durationTicks": 48,
          "midi": 64,
          "name": "E4",
          "ticks": 76800,
          "time": 213.3336,
          "velocity": 0.8110236220472441
        },
        {
          "duration": 0.13333350000002042,
          "durationTicks": 48,
          "midi": 57,
          "name": "A3",
          "ticks": 76848,
          "time": 213.46693349999998,
          "velocity": 0.8110236220472441
        },
        {
          "duration": 0.13333350000002042,
          "durationTicks": 48,
          "midi": 56,
          "name": "G#3",
          "ticks": 76848,
          "time": 213.46693349999998,
          "velocity": 0.8110236220472441
        },
        {
          "duration": 0.133333499999992,
          "durationTicks": 48,
          "midi": 62,
          "name": "D4",
          "ticks": 76896,
          "time": 213.600267,
          "velocity": 0.8110236220472441
        },
        {
          "duration": 0.133333499999992,
          "durationTicks": 48,
          "midi": 63,
          "name": "D#4",
          "ticks": 76896,
          "time": 213.600267,
          "velocity": 0.8110236220472441
        },
        {
          "duration": 0.133333499999992,
          "durationTicks": 48,
          "midi": 56,
          "name": "G#3",
          "ticks": 76944,
          "time": 213.7336005,
          "velocity": 0.8110236220472441
        },
        {
          "duration": 0.133333499999992,
          "durationTicks": 48,
          "midi": 57,
          "name": "A3",
          "ticks": 76944,
          "time": 213.7336005,
          "velocity": 0.8110236220472441
        },
        {
          "duration": 0.12244899999998893,
          "durationTicks": 48,
          "midi": 60,
          "name": "C4",
          "ticks": 77184,
          "time": 214.40026799999998,
          "velocity": 0.8110236220472441
        },
        {
          "duration": 0.12244899999998893,
          "durationTicks": 48,
          "midi": 59,
          "name": "B3",
          "ticks": 77184,
          "time": 214.40026799999998,
          "velocity": 0.8110236220472441
        },
        {
          "duration": 0.12244900000001735,
          "durationTicks": 48,
          "midi": 51,
          "name": "D#3",
          "ticks": 77232,
          "time": 214.52271699999997,
          "velocity": 0.8110236220472441
        },
        {
          "duration": 0.12244900000001735,
          "durationTicks": 48,
          "midi": 52,
          "name": "E3",
          "ticks": 77232,
          "time": 214.52271699999997,
          "velocity": 0.8110236220472441
        },
        {
          "duration": 0.12244899999998893,
          "durationTicks": 48,
          "midi": 64,
          "name": "E4",
          "ticks": 77280,
          "time": 214.645166,
          "velocity": 0.8110236220472441
        },
        {
          "duration": 0.12244899999998893,
          "durationTicks": 48,
          "midi": 63,
          "name": "D#4",
          "ticks": 77280,
          "time": 214.645166,
          "velocity": 0.8110236220472441
        },
        {
          "duration": 0.12244900000001735,
          "durationTicks": 48,
          "midi": 56,
          "name": "G#3",
          "ticks": 77328,
          "time": 214.76761499999998,
          "velocity": 0.8110236220472441
        },
        {
          "duration": 0.12244900000001735,
          "durationTicks": 48,
          "midi": 57,
          "name": "A3",
          "ticks": 77328,
          "time": 214.76761499999998,
          "velocity": 0.8110236220472441
        },
        {
          "duration": 0.12244899999998893,
          "durationTicks": 48,
          "midi": 62,
          "name": "D4",
          "ticks": 77376,
          "time": 214.890064,
          "velocity": 0.8110236220472441
        },
        {
          "duration": 0.12244899999998893,
          "durationTicks": 48,
          "midi": 63,
          "name": "D#4",
          "ticks": 77376,
          "time": 214.890064,
          "velocity": 0.8110236220472441
        },
        {
          "duration": 0.12244899999998893,
          "durationTicks": 48,
          "midi": 56,
          "name": "G#3",
          "ticks": 77424,
          "time": 215.01251299999998,
          "velocity": 0.8110236220472441
        },
        {
          "duration": 0.12244899999998893,
          "durationTicks": 48,
          "midi": 57,
          "name": "A3",
          "ticks": 77424,
          "time": 215.01251299999998,
          "velocity": 0.8110236220472441
        },
        {
          "duration": 0.12244900000001735,
          "durationTicks": 48,
          "midi": 64,
          "name": "E4",
          "ticks": 77472,
          "time": 215.13496199999997,
          "velocity": 0.8110236220472441
        },
        {
          "duration": 0.12244900000001735,
          "durationTicks": 48,
          "midi": 63,
          "name": "D#4",
          "ticks": 77472,
          "time": 215.13496199999997,
          "velocity": 0.8110236220472441
        },
        {
          "duration": 0.12244899999998893,
          "durationTicks": 48,
          "midi": 56,
          "name": "G#3",
          "ticks": 77520,
          "time": 215.257411,
          "velocity": 0.8110236220472441
        },
        {
          "duration": 0.12244899999998893,
          "durationTicks": 48,
          "midi": 57,
          "name": "A3",
          "ticks": 77520,
          "time": 215.257411,
          "velocity": 0.8110236220472441
        },
        {
          "duration": 0.12244900000001735,
          "durationTicks": 48,
          "midi": 65,
          "name": "F4",
          "ticks": 77568,
          "time": 215.37985999999998,
          "velocity": 0.8110236220472441
        },
        {
          "duration": 0.12244900000001735,
          "durationTicks": 48,
          "midi": 64,
          "name": "E4",
          "ticks": 77568,
          "time": 215.37985999999998,
          "velocity": 0.8110236220472441
        },
        {
          "duration": 0.12244899999998893,
          "durationTicks": 48,
          "midi": 56,
          "name": "G#3",
          "ticks": 77616,
          "time": 215.502309,
          "velocity": 0.8110236220472441
        },
        {
          "duration": 0.12244899999998893,
          "durationTicks": 48,
          "midi": 57,
          "name": "A3",
          "ticks": 77616,
          "time": 215.502309,
          "velocity": 0.8110236220472441
        },
        {
          "duration": 0.12244899999998893,
          "durationTicks": 48,
          "midi": 63,
          "name": "D#4",
          "ticks": 77664,
          "time": 215.62475799999999,
          "velocity": 0.8110236220472441
        },
        {
          "duration": 0.12244899999998893,
          "durationTicks": 48,
          "midi": 62,
          "name": "D4",
          "ticks": 77664,
          "time": 215.62475799999999,
          "velocity": 0.8110236220472441
        },
        {
          "duration": 0.12244900000001735,
          "durationTicks": 48,
          "midi": 56,
          "name": "G#3",
          "ticks": 77712,
          "time": 215.74720699999997,
          "velocity": 0.8110236220472441
        },
        {
          "duration": 0.12244900000001735,
          "durationTicks": 48,
          "midi": 57,
          "name": "A3",
          "ticks": 77712,
          "time": 215.74720699999997,
          "velocity": 0.8110236220472441
        },
        {
          "duration": 0.11320749999998725,
          "durationTicks": 48,
          "midi": 60,
          "name": "C4",
          "ticks": 77952,
          "time": 216.35945199999998,
          "velocity": 0.8110236220472441
        },
        {
          "duration": 0.11320749999998725,
          "durationTicks": 48,
          "midi": 59,
          "name": "B3",
          "ticks": 77952,
          "time": 216.35945199999998,
          "velocity": 0.8110236220472441
        },
        {
          "duration": 0.11320750000001567,
          "durationTicks": 48,
          "midi": 51,
          "name": "D#3",
          "ticks": 78000,
          "time": 216.47265949999996,
          "velocity": 0.8110236220472441
        },
        {
          "duration": 0.11320750000001567,
          "durationTicks": 48,
          "midi": 52,
          "name": "E3",
          "ticks": 78000,
          "time": 216.47265949999996,
          "velocity": 0.8110236220472441
        },
        {
          "duration": 0.11320749999998725,
          "durationTicks": 48,
          "midi": 64,
          "name": "E4",
          "ticks": 78048,
          "time": 216.58586699999998,
          "velocity": 0.8110236220472441
        },
        {
          "duration": 0.11320749999998725,
          "durationTicks": 48,
          "midi": 63,
          "name": "D#4",
          "ticks": 78048,
          "time": 216.58586699999998,
          "velocity": 0.8110236220472441
        },
        {
          "duration": 0.11320750000001567,
          "durationTicks": 48,
          "midi": 56,
          "name": "G#3",
          "ticks": 78096,
          "time": 216.69907449999997,
          "velocity": 0.8110236220472441
        },
        {
          "duration": 0.11320750000001567,
          "durationTicks": 48,
          "midi": 57,
          "name": "A3",
          "ticks": 78096,
          "time": 216.69907449999997,
          "velocity": 0.8110236220472441
        },
        {
          "duration": 0.11320749999998725,
          "durationTicks": 48,
          "midi": 63,
          "name": "D#4",
          "ticks": 78144,
          "time": 216.81228199999998,
          "velocity": 0.8110236220472441
        },
        {
          "duration": 0.11320749999998725,
          "durationTicks": 48,
          "midi": 62,
          "name": "D4",
          "ticks": 78144,
          "time": 216.81228199999998,
          "velocity": 0.8110236220472441
        },
        {
          "duration": 0.11320750000001567,
          "durationTicks": 48,
          "midi": 56,
          "name": "G#3",
          "ticks": 78192,
          "time": 216.92548949999997,
          "velocity": 0.8110236220472441
        },
        {
          "duration": 0.11320750000001567,
          "durationTicks": 48,
          "midi": 57,
          "name": "A3",
          "ticks": 78192,
          "time": 216.92548949999997,
          "velocity": 0.8110236220472441
        },
        {
          "duration": 0.11320749999998725,
          "durationTicks": 48,
          "midi": 64,
          "name": "E4",
          "ticks": 78240,
          "time": 217.03869699999998,
          "velocity": 0.8110236220472441
        },
        {
          "duration": 0.11320749999998725,
          "durationTicks": 48,
          "midi": 63,
          "name": "D#4",
          "ticks": 78240,
          "time": 217.03869699999998,
          "velocity": 0.8110236220472441
        },
        {
          "duration": 0.11320750000001567,
          "durationTicks": 48,
          "midi": 57,
          "name": "A3",
          "ticks": 78288,
          "time": 217.15190449999997,
          "velocity": 0.8110236220472441
        },
        {
          "duration": 0.11320750000001567,
          "durationTicks": 48,
          "midi": 56,
          "name": "G#3",
          "ticks": 78288,
          "time": 217.15190449999997,
          "velocity": 0.8110236220472441
        },
        {
          "duration": 0.11320749999998725,
          "durationTicks": 48,
          "midi": 65,
          "name": "F4",
          "ticks": 78336,
          "time": 217.265112,
          "velocity": 0.8110236220472441
        },
        {
          "duration": 0.11320749999998725,
          "durationTicks": 48,
          "midi": 64,
          "name": "E4",
          "ticks": 78336,
          "time": 217.265112,
          "velocity": 0.8110236220472441
        },
        {
          "duration": 0.11320749999998725,
          "durationTicks": 48,
          "midi": 57,
          "name": "A3",
          "ticks": 78384,
          "time": 217.37831949999998,
          "velocity": 0.8110236220472441
        },
        {
          "duration": 0.11320749999998725,
          "durationTicks": 48,
          "midi": 56,
          "name": "G#3",
          "ticks": 78384,
          "time": 217.37831949999998,
          "velocity": 0.8110236220472441
        },
        {
          "duration": 0.11320750000001567,
          "durationTicks": 48,
          "midi": 63,
          "name": "D#4",
          "ticks": 78432,
          "time": 217.49152699999996,
          "velocity": 0.8110236220472441
        },
        {
          "duration": 0.11320750000001567,
          "durationTicks": 48,
          "midi": 62,
          "name": "D4",
          "ticks": 78432,
          "time": 217.49152699999996,
          "velocity": 0.8110236220472441
        },
        {
          "duration": 0.11320749999998725,
          "durationTicks": 48,
          "midi": 57,
          "name": "A3",
          "ticks": 78480,
          "time": 217.60473449999998,
          "velocity": 0.8110236220472441
        },
        {
          "duration": 0.11320749999998725,
          "durationTicks": 48,
          "midi": 56,
          "name": "G#3",
          "ticks": 78480,
          "time": 217.60473449999998,
          "velocity": 0.8110236220472441
        },
        {
          "duration": 0.4000005000000044,
          "durationTicks": 144,
          "midi": 39,
          "name": "D#2",
          "ticks": 81312,
          "time": 225.2522164791666,
          "velocity": 0.6771653543307087
        },
        {
          "duration": 0.4000005000000044,
          "durationTicks": 144,
          "midi": 34,
          "name": "A#1",
          "ticks": 81312,
          "time": 225.2522164791666,
          "velocity": 0.6771653543307087
        },
        {
          "duration": 0.4000005000000044,
          "durationTicks": 144,
          "midi": 26,
          "name": "D1",
          "ticks": 81312,
          "time": 225.2522164791666,
          "velocity": 0.6771653543307087
        },
        {
          "duration": 0.4000005000000044,
          "durationTicks": 144,
          "midi": 30,
          "name": "F#1",
          "ticks": 81312,
          "time": 225.2522164791666,
          "velocity": 0.6771653543307087
        },
        {
          "duration": 0.4000005000000044,
          "durationTicks": 144,
          "midi": 22,
          "name": "A#0",
          "ticks": 81312,
          "time": 225.2522164791666,
          "velocity": 0.6771653543307087
        },
        {
          "duration": 0.4000005000000044,
          "durationTicks": 144,
          "midi": 40,
          "name": "E2",
          "ticks": 81456,
          "time": 225.6522169791666,
          "velocity": 0.7716535433070866
        },
        {
          "duration": 0.4000005000000044,
          "durationTicks": 144,
          "midi": 23,
          "name": "B0",
          "ticks": 81456,
          "time": 225.6522169791666,
          "velocity": 0.7716535433070866
        },
        {
          "duration": 0.4000005000000044,
          "durationTicks": 144,
          "midi": 35,
          "name": "B1",
          "ticks": 81456,
          "time": 225.6522169791666,
          "velocity": 0.7716535433070866
        },
        {
          "duration": 0.4000005000000044,
          "durationTicks": 144,
          "midi": 31,
          "name": "G1",
          "ticks": 81456,
          "time": 225.6522169791666,
          "velocity": 0.7716535433070866
        },
        {
          "duration": 0.4000005000000044,
          "durationTicks": 144,
          "midi": 27,
          "name": "D#1",
          "ticks": 81456,
          "time": 225.6522169791666,
          "velocity": 0.7716535433070866
        },
        {
          "duration": 0.5333339999999964,
          "durationTicks": 192,
          "midi": 41,
          "name": "F2",
          "ticks": 81600,
          "time": 226.05221747916661,
          "velocity": 0.8661417322834646
        },
        {
          "duration": 0.5333339999999964,
          "durationTicks": 192,
          "midi": 36,
          "name": "C2",
          "ticks": 81600,
          "time": 226.05221747916661,
          "velocity": 0.8661417322834646
        },
        {
          "duration": 0.5333339999999964,
          "durationTicks": 192,
          "midi": 32,
          "name": "G#1",
          "ticks": 81600,
          "time": 226.05221747916661,
          "velocity": 0.8661417322834646
        },
        {
          "duration": 0.5333339999999964,
          "durationTicks": 192,
          "midi": 28,
          "name": "E1",
          "ticks": 81600,
          "time": 226.05221747916661,
          "velocity": 0.8661417322834646
        },
        {
          "duration": 0.5333339999999964,
          "durationTicks": 192,
          "midi": 24,
          "name": "C1",
          "ticks": 81600,
          "time": 226.05221747916661,
          "velocity": 0.8661417322834646
        }
      ],
      "endOfTrackTicks": 82491
    },
    {
      "channel": 1,
      "controlChanges": {
        "6": [
          {
            "number": 6,
            "ticks": 0,
            "time": 0,
            "value": 0.09448818897637795
          },
          {
            "number": 6,
            "ticks": 0,
            "time": 0,
            "value": 0.09448818897637795
          },
          {
            "number": 6,
            "ticks": 0,
            "time": 0,
            "value": 0.09448818897637795
          },
          {
            "number": 6,
            "ticks": 82466,
            "time": 228.45777604166662,
            "value": 0.09448818897637795
          },
          {
            "number": 6,
            "ticks": 82491,
            "time": 228.52722057291663,
            "value": 0.09448818897637795
          }
        ],
        "7": [
          {
            "number": 7,
            "ticks": 0,
            "time": 0,
            "value": 0.7874015748031497
          },
          {
            "number": 7,
            "ticks": 0,
            "time": 0,
            "value": 0.7874015748031497
          },
          {
            "number": 7,
            "ticks": 0,
            "time": 0,
            "value": 0.7874015748031497
          },
          {
            "number": 7,
            "ticks": 0,
            "time": 0,
            "value": 0.7874015748031497
          },
          {
            "number": 7,
            "ticks": 82466,
            "time": 228.45777604166662,
            "value": 0.7874015748031497
          },
          {
            "number": 7,
            "ticks": 82491,
            "time": 228.52722057291663,
            "value": 0.7874015748031497
          }
        ],
        "10": [
          {
            "number": 10,
            "ticks": 0,
            "time": 0,
            "value": 0.5039370078740157
          },
          {
            "number": 10,
            "ticks": 0,
            "time": 0,
            "value": 0.5039370078740157
          },
          {
            "number": 10,
            "ticks": 0,
            "time": 0,
            "value": 0.5039370078740157
          },
          {
            "number": 10,
            "ticks": 0,
            "time": 0,
            "value": 0.5039370078740157
          },
          {
            "number": 10,
            "ticks": 82466,
            "time": 228.45777604166662,
            "value": 0.5039370078740157
          },
          {
            "number": 10,
            "ticks": 82491,
            "time": 228.52722057291663,
            "value": 0.5039370078740157
          }
        ],
        "100": [
          {
            "number": 100,
            "ticks": 0,
            "time": 0,
            "value": 0
          },
          {
            "number": 100,
            "ticks": 0,
            "time": 0,
            "value": 0
          },
          {
            "number": 100,
            "ticks": 0,
            "time": 0,
            "value": 0
          },
          {
            "number": 100,
            "ticks": 82466,
            "time": 228.45777604166662,
            "value": 0
          },
          {
            "number": 100,
            "ticks": 82491,
            "time": 228.52722057291663,
            "value": 0
          }
        ],
        "101": [
          {
            "number": 101,
            "ticks": 0,
            "time": 0,
            "value": 0
          },
          {
            "number": 101,
            "ticks": 0,
            "time": 0,
            "value": 0
          },
          {
            "number": 101,
            "ticks": 0,
            "time": 0,
            "value": 0
          },
          {
            "number": 101,
            "ticks": 82466,
            "time": 228.45777604166662,
            "value": 0
          },
          {
            "number": 101,
            "ticks": 82491,
            "time": 228.52722057291663,
            "value": 0
          }
        ]
      },
      "pitchBends": [
        {
          "ticks": 0,
          "time": 0,
          "value": 0
        },
        {
          "ticks": 0,
          "time": 0,
          "value": 0
        },
        {
          "ticks": 0,
          "time": 0,
          "value": 0
        },
        {
          "ticks": 0,
          "time": 0,
          "value": 0
        },
        {
          "ticks": 82466,
          "time": 228.45777604166662,
          "value": 0
        },
        {
          "ticks": 82491,
          "time": 228.52722057291663,
          "value": 0
        }
      ],
      "instrument": {
        "family": "piano",
        "number": 0,
        "name": "acoustic grand piano"
      },
      "name": "Piano(Outro)",
      "notes": [
        {
          "duration": 6.666674999999998,
          "durationTicks": 2400,
          "midi": 87,
          "name": "D#6",
          "ticks": 79392,
          "time": 219.9188764791666,
          "velocity": 0.47244094488188976
        },
        {
          "duration": 5.733340499999997,
          "durationTicks": 2064,
          "midi": 81,
          "name": "A5",
          "ticks": 79728,
          "time": 220.8522109791666,
          "velocity": 0.44881889763779526
        },
        {
          "duration": 4.933339499999988,
          "durationTicks": 1776,
          "midi": 78,
          "name": "F#5",
          "ticks": 80016,
          "time": 221.65221197916662,
          "velocity": 0.41732283464566927
        },
        {
          "duration": 4.666672500000004,
          "durationTicks": 1680,
          "midi": 82,
          "name": "A#5",
          "ticks": 80112,
          "time": 221.9188789791666,
          "velocity": 0.4881889763779528
        },
        {
          "duration": 4.577783499999981,
          "durationTicks": 1648,
          "midi": 75,
          "name": "D#5",
          "ticks": 80144,
          "time": 222.00776797916663,
          "velocity": 0.41732283464566927
        },
        {
          "duration": 4.4888944999999865,
          "durationTicks": 1616,
          "midi": 65,
          "name": "F4",
          "ticks": 80176,
          "time": 222.09665697916662,
          "velocity": 0.49606299212598426
        },
        {
          "duration": 4.311116499999997,
          "durationTicks": 1552,
          "midi": 71,
          "name": "B4",
          "ticks": 80240,
          "time": 222.2744349791666,
          "velocity": 0.4881889763779528
        },
        {
          "duration": 4.088893999999982,
          "durationTicks": 1472,
          "midi": 67,
          "name": "G4",
          "ticks": 80320,
          "time": 222.49665747916663,
          "velocity": 0.4645669291338583
        },
        {
          "duration": 3.6222267499999816,
          "durationTicks": 1304,
          "midi": 77,
          "name": "F5",
          "ticks": 80488,
          "time": 222.96332472916663,
          "velocity": 0.5039370078740157
        },
        {
          "duration": 3.400004249999995,
          "durationTicks": 1224,
          "midi": 79,
          "name": "G5",
          "ticks": 80568,
          "time": 223.18554722916662,
          "velocity": 0.4015748031496063
        },
        {
          "duration": 3.155559499999981,
          "durationTicks": 1136,
          "midi": 83,
          "name": "B5",
          "ticks": 80656,
          "time": 223.42999197916663,
          "velocity": 0.4881889763779528
        },
        {
          "duration": 0.22222249999998667,
          "durationTicks": 80,
          "midi": 89,
          "name": "F6",
          "ticks": 80656,
          "time": 223.42999197916663,
          "velocity": 0.4881889763779528
        },
        {
          "duration": 0.22222249999998667,
          "durationTicks": 80,
          "midi": 86,
          "name": "D6",
          "ticks": 80656,
          "time": 223.42999197916663,
          "velocity": 0.4881889763779528
        },
        {
          "duration": 2.9333369999999945,
          "durationTicks": 1056,
          "midi": 89,
          "name": "F6",
          "ticks": 80736,
          "time": 223.65221447916662,
          "velocity": 0.41732283464566927
        },
        {
          "duration": 2.9333369999999945,
          "durationTicks": 1056,
          "midi": 86,
          "name": "D6",
          "ticks": 80736,
          "time": 223.65221447916662,
          "velocity": 0.41732283464566927
        },
        {
          "duration": 2.9333369999999945,
          "durationTicks": 1056,
          "midi": 92,
          "name": "G#6",
          "ticks": 80736,
          "time": 223.65221447916662,
          "velocity": 0.4015748031496063
        }
      ],
      "endOfTrackTicks": 82491
    },
    {
      "channel": 2,
      "controlChanges": {
        "6": [
          {
            "number": 6,
            "ticks": 0,
            "time": 0,
            "value": 0.09448818897637795
          },
          {
            "number": 6,
            "ticks": 0,
            "time": 0,
            "value": 0.09448818897637795
          },
          {
            "number": 6,
            "ticks": 0,
            "time": 0,
            "value": 0.09448818897637795
          },
          {
            "number": 6,
            "ticks": 82466,
            "time": 228.45777604166662,
            "value": 0.09448818897637795
          },
          {
            "number": 6,
            "ticks": 82491,
            "time": 228.52722057291663,
            "value": 0.09448818897637795
          }
        ],
        "7": [
          {
            "number": 7,
            "ticks": 0,
            "time": 0,
            "value": 0.7874015748031497
          },
          {
            "number": 7,
            "ticks": 0,
            "time": 0,
            "value": 0.7874015748031497
          },
          {
            "number": 7,
            "ticks": 0,
            "time": 0,
            "value": 0.7874015748031497
          },
          {
            "number": 7,
            "ticks": 0,
            "time": 0,
            "value": 0.7874015748031497
          },
          {
            "number": 7,
            "ticks": 82466,
            "time": 228.45777604166662,
            "value": 0.7874015748031497
          },
          {
            "number": 7,
            "ticks": 82491,
            "time": 228.52722057291663,
            "value": 0.7874015748031497
          }
        ],
        "10": [
          {
            "number": 10,
            "ticks": 0,
            "time": 0,
            "value": 0.5039370078740157
          },
          {
            "number": 10,
            "ticks": 0,
            "time": 0,
            "value": 0.5039370078740157
          },
          {
            "number": 10,
            "ticks": 0,
            "time": 0,
            "value": 0.5039370078740157
          },
          {
            "number": 10,
            "ticks": 0,
            "time": 0,
            "value": 0.5039370078740157
          },
          {
            "number": 10,
            "ticks": 82466,
            "time": 228.45777604166662,
            "value": 0.5039370078740157
          },
          {
            "number": 10,
            "ticks": 82491,
            "time": 228.52722057291663,
            "value": 0.5039370078740157
          }
        ],
        "100": [
          {
            "number": 100,
            "ticks": 0,
            "time": 0,
            "value": 0
          },
          {
            "number": 100,
            "ticks": 0,
            "time": 0,
            "value": 0
          },
          {
            "number": 100,
            "ticks": 0,
            "time": 0,
            "value": 0
          },
          {
            "number": 100,
            "ticks": 82466,
            "time": 228.45777604166662,
            "value": 0
          },
          {
            "number": 100,
            "ticks": 82491,
            "time": 228.52722057291663,
            "value": 0
          }
        ],
        "101": [
          {
            "number": 101,
            "ticks": 0,
            "time": 0,
            "value": 0
          },
          {
            "number": 101,
            "ticks": 0,
            "time": 0,
            "value": 0
          },
          {
            "number": 101,
            "ticks": 0,
            "time": 0,
            "value": 0
          },
          {
            "number": 101,
            "ticks": 82466,
            "time": 228.45777604166662,
            "value": 0
          },
          {
            "number": 101,
            "ticks": 82491,
            "time": 228.52722057291663,
            "value": 0
          }
        ]
      },
      "pitchBends": [
        {
          "ticks": 0,
          "time": 0,
          "value": 0
        },
        {
          "ticks": 0,
          "time": 0,
          "value": 0
        },
        {
          "ticks": 0,
          "time": 0,
          "value": 0
        },
        {
          "ticks": 0,
          "time": 0,
          "value": 0
        },
        {
          "ticks": 82466,
          "time": 228.45777604166662,
          "value": 0
        },
        {
          "ticks": 82491,
          "time": 228.52722057291663,
          "value": 0
        }
      ],
      "instrument": {
        "family": "piano",
        "number": 0,
        "name": "acoustic grand piano"
      },
      "name": "Rev",
      "notes": [
        {
          "duration": 0.4000005000000044,
          "durationTicks": 144,
          "midi": 71,
          "name": "B4",
          "ticks": 26784,
          "time": 74.400093,
          "velocity": 0.47244094488188976
        },
        {
          "duration": 0.4000005000000044,
          "durationTicks": 144,
          "midi": 67,
          "name": "G4",
          "ticks": 26784,
          "time": 74.400093,
          "velocity": 0.47244094488188976
        },
        {
          "duration": 0.4000005000000044,
          "durationTicks": 144,
          "midi": 64,
          "name": "E4",
          "ticks": 26784,
          "time": 74.400093,
          "velocity": 0.47244094488188976
        },
        {
          "duration": 0.4000005000000044,
          "durationTicks": 144,
          "midi": 58,
          "name": "A#3",
          "ticks": 26784,
          "time": 74.400093,
          "velocity": 0.47244094488188976
        },
        {
          "duration": 1.3333349999999768,
          "durationTicks": 480,
          "midi": 26,
          "name": "D1",
          "ticks": 65472,
          "time": 181.866894,
          "velocity": 1
        },
        {
          "duration": 1.3333349999999768,
          "durationTicks": 480,
          "midi": 38,
          "name": "D2",
          "ticks": 65472,
          "time": 181.866894,
          "velocity": 1
        },
        {
          "duration": 6.666674999999998,
          "durationTicks": 2400,
          "midi": 55,
          "name": "G3",
          "ticks": 79392,
          "time": 219.9188764791666,
          "velocity": 0.6535433070866141
        },
        {
          "duration": 6.666674999999998,
          "durationTicks": 2400,
          "midi": 43,
          "name": "G2",
          "ticks": 79392,
          "time": 219.9188764791666,
          "velocity": 0.6535433070866141
        },
        {
          "duration": 6.666674999999998,
          "durationTicks": 2400,
          "midi": 50,
          "name": "D3",
          "ticks": 79392,
          "time": 219.9188764791666,
          "velocity": 0.6535433070866141
        },
        {
          "duration": 6.666674999999998,
          "durationTicks": 2400,
          "midi": 38,
          "name": "D2",
          "ticks": 79392,
          "time": 219.9188764791666,
          "velocity": 0.6535433070866141
        }
      ],
      "endOfTrackTicks": 82491
    },
    {
      "channel": 3,
      "controlChanges": {
        "6": [
          {
            "number": 6,
            "ticks": 0,
            "time": 0,
            "value": 0.09448818897637795
          },
          {
            "number": 6,
            "ticks": 0,
            "time": 0,
            "value": 0.09448818897637795
          },
          {
            "number": 6,
            "ticks": 0,
            "time": 0,
            "value": 0.09448818897637795
          },
          {
            "number": 6,
            "ticks": 82466,
            "time": 228.45777604166662,
            "value": 0.09448818897637795
          },
          {
            "number": 6,
            "ticks": 82491,
            "time": 228.52722057291663,
            "value": 0.09448818897637795
          }
        ],
        "7": [
          {
            "number": 7,
            "ticks": 0,
            "time": 0,
            "value": 0.7874015748031497
          },
          {
            "number": 7,
            "ticks": 0,
            "time": 0,
            "value": 0.7874015748031497
          },
          {
            "number": 7,
            "ticks": 0,
            "time": 0,
            "value": 0.7874015748031497
          },
          {
            "number": 7,
            "ticks": 0,
            "time": 0,
            "value": 0.7874015748031497
          },
          {
            "number": 7,
            "ticks": 82466,
            "time": 228.45777604166662,
            "value": 0.7874015748031497
          },
          {
            "number": 7,
            "ticks": 82491,
            "time": 228.52722057291663,
            "value": 0.7874015748031497
          }
        ],
        "10": [
          {
            "number": 10,
            "ticks": 0,
            "time": 0,
            "value": 0.5039370078740157
          },
          {
            "number": 10,
            "ticks": 0,
            "time": 0,
            "value": 0.5039370078740157
          },
          {
            "number": 10,
            "ticks": 0,
            "time": 0,
            "value": 0.5039370078740157
          },
          {
            "number": 10,
            "ticks": 0,
            "time": 0,
            "value": 0.5039370078740157
          },
          {
            "number": 10,
            "ticks": 82466,
            "time": 228.45777604166662,
            "value": 0.5039370078740157
          },
          {
            "number": 10,
            "ticks": 82491,
            "time": 228.52722057291663,
            "value": 0.5039370078740157
          }
        ],
        "100": [
          {
            "number": 100,
            "ticks": 0,
            "time": 0,
            "value": 0
          },
          {
            "number": 100,
            "ticks": 0,
            "time": 0,
            "value": 0
          },
          {
            "number": 100,
            "ticks": 0,
            "time": 0,
            "value": 0
          },
          {
            "number": 100,
            "ticks": 82466,
            "time": 228.45777604166662,
            "value": 0
          },
          {
            "number": 100,
            "ticks": 82491,
            "time": 228.52722057291663,
            "value": 0
          }
        ],
        "101": [
          {
            "number": 101,
            "ticks": 0,
            "time": 0,
            "value": 0
          },
          {
            "number": 101,
            "ticks": 0,
            "time": 0,
            "value": 0
          },
          {
            "number": 101,
            "ticks": 0,
            "time": 0,
            "value": 0
          },
          {
            "number": 101,
            "ticks": 82466,
            "time": 228.45777604166662,
            "value": 0
          },
          {
            "number": 101,
            "ticks": 82491,
            "time": 228.52722057291663,
            "value": 0
          }
        ]
      },
      "pitchBends": [
        {
          "ticks": 0,
          "time": 0,
          "value": 0
        },
        {
          "ticks": 0,
          "time": 0,
          "value": 0
        },
        {
          "ticks": 0,
          "time": 0,
          "value": 0
        },
        {
          "ticks": 0,
          "time": 0,
          "value": 0
        },
        {
          "ticks": 82466,
          "time": 228.45777604166662,
          "value": 0
        },
        {
          "ticks": 82491,
          "time": 228.52722057291663,
          "value": 0
        }
      ],
      "instrument": {
        "family": "piano",
        "number": 0,
        "name": "acoustic grand piano"
      },
      "name": "Piano (Chorus Effect)",
      "notes": [
        {
          "duration": 0.066666749999996,
          "durationTicks": 24,
          "midi": 49,
          "name": "C#3",
          "ticks": 57648,
          "time": 160.1335335,
          "velocity": 0.6377952755905512
        },
        {
          "duration": 0.066666749999996,
          "durationTicks": 24,
          "midi": 53,
          "name": "F3",
          "ticks": 57648,
          "time": 160.1335335,
          "velocity": 0.6377952755905512
        },
        {
          "duration": 0.066666749999996,
          "durationTicks": 24,
          "midi": 61,
          "name": "C#4",
          "ticks": 57648,
          "time": 160.1335335,
          "velocity": 0.6377952755905512
        },
        {
          "duration": 0.066666749999996,
          "durationTicks": 24,
          "midi": 57,
          "name": "A3",
          "ticks": 57648,
          "time": 160.1335335,
          "velocity": 0.6377952755905512
        },
        {
          "duration": 0.066666749999996,
          "durationTicks": 24,
          "midi": 49,
          "name": "C#3",
          "ticks": 57696,
          "time": 160.266867,
          "velocity": 0.6377952755905512
        },
        {
          "duration": 0.066666749999996,
          "durationTicks": 24,
          "midi": 53,
          "name": "F3",
          "ticks": 57696,
          "time": 160.266867,
          "velocity": 0.6377952755905512
        },
        {
          "duration": 0.066666749999996,
          "durationTicks": 24,
          "midi": 61,
          "name": "C#4",
          "ticks": 57696,
          "time": 160.266867,
          "velocity": 0.6377952755905512
        },
        {
          "duration": 0.066666749999996,
          "durationTicks": 24,
          "midi": 57,
          "name": "A3",
          "ticks": 57696,
          "time": 160.266867,
          "velocity": 0.6377952755905512
        },
        {
          "duration": 0.066666749999996,
          "durationTicks": 24,
          "midi": 49,
          "name": "C#3",
          "ticks": 57792,
          "time": 160.533534,
          "velocity": 0.6377952755905512
        },
        {
          "duration": 0.066666749999996,
          "durationTicks": 24,
          "midi": 53,
          "name": "F3",
          "ticks": 57792,
          "time": 160.533534,
          "velocity": 0.6377952755905512
        },
        {
          "duration": 0.066666749999996,
          "durationTicks": 24,
          "midi": 61,
          "name": "C#4",
          "ticks": 57792,
          "time": 160.533534,
          "velocity": 0.6377952755905512
        },
        {
          "duration": 0.066666749999996,
          "durationTicks": 24,
          "midi": 57,
          "name": "A3",
          "ticks": 57792,
          "time": 160.533534,
          "velocity": 0.6377952755905512
        },
        {
          "duration": 0.066666749999996,
          "durationTicks": 24,
          "midi": 57,
          "name": "A3",
          "ticks": 57840,
          "time": 160.6668675,
          "velocity": 0.6377952755905512
        },
        {
          "duration": 0.066666749999996,
          "durationTicks": 24,
          "midi": 61,
          "name": "C#4",
          "ticks": 57840,
          "time": 160.6668675,
          "velocity": 0.6377952755905512
        },
        {
          "duration": 0.066666749999996,
          "durationTicks": 24,
          "midi": 53,
          "name": "F3",
          "ticks": 57840,
          "time": 160.6668675,
          "velocity": 0.6377952755905512
        },
        {
          "duration": 0.066666749999996,
          "durationTicks": 24,
          "midi": 49,
          "name": "C#3",
          "ticks": 57840,
          "time": 160.6668675,
          "velocity": 0.6377952755905512
        },
        {
          "duration": 0.13333350000002042,
          "durationTicks": 48,
          "midi": 49,
          "name": "C#3",
          "ticks": 57936,
          "time": 160.93353449999998,
          "velocity": 0.6377952755905512
        },
        {
          "duration": 0.13333350000002042,
          "durationTicks": 48,
          "midi": 53,
          "name": "F3",
          "ticks": 57936,
          "time": 160.93353449999998,
          "velocity": 0.6377952755905512
        },
        {
          "duration": 0.13333350000002042,
          "durationTicks": 48,
          "midi": 61,
          "name": "C#4",
          "ticks": 57936,
          "time": 160.93353449999998,
          "velocity": 0.6377952755905512
        },
        {
          "duration": 0.13333350000002042,
          "durationTicks": 48,
          "midi": 57,
          "name": "A3",
          "ticks": 57936,
          "time": 160.93353449999998,
          "velocity": 0.6377952755905512
        },
        {
          "duration": 0.066666749999996,
          "durationTicks": 24,
          "midi": 60,
          "name": "C4",
          "ticks": 58032,
          "time": 161.2002015,
          "velocity": 0.6377952755905512
        },
        {
          "duration": 0.066666749999996,
          "durationTicks": 24,
          "midi": 49,
          "name": "C#3",
          "ticks": 58032,
          "time": 161.2002015,
          "velocity": 0.6377952755905512
        },
        {
          "duration": 0.066666749999996,
          "durationTicks": 24,
          "midi": 53,
          "name": "F3",
          "ticks": 58032,
          "time": 161.2002015,
          "velocity": 0.6377952755905512
        },
        {
          "duration": 0.066666749999996,
          "durationTicks": 24,
          "midi": 57,
          "name": "A3",
          "ticks": 58032,
          "time": 161.2002015,
          "velocity": 0.6377952755905512
        },
        {
          "duration": 0.066666749999996,
          "durationTicks": 24,
          "midi": 61,
          "name": "C#4",
          "ticks": 58080,
          "time": 161.33353499999998,
          "velocity": 0.6377952755905512
        },
        {
          "duration": 0.066666749999996,
          "durationTicks": 24,
          "midi": 49,
          "name": "C#3",
          "ticks": 58080,
          "time": 161.33353499999998,
          "velocity": 0.6377952755905512
        },
        {
          "duration": 0.066666749999996,
          "durationTicks": 24,
          "midi": 53,
          "name": "F3",
          "ticks": 58080,
          "time": 161.33353499999998,
          "velocity": 0.6377952755905512
        },
        {
          "duration": 0.066666749999996,
          "durationTicks": 24,
          "midi": 57,
          "name": "A3",
          "ticks": 58080,
          "time": 161.33353499999998,
          "velocity": 0.6377952755905512
        },
        {
          "duration": 0.066666749999996,
          "durationTicks": 24,
          "midi": 60,
          "name": "C4",
          "ticks": 58128,
          "time": 161.4668685,
          "velocity": 0.6377952755905512
        },
        {
          "duration": 0.066666749999996,
          "durationTicks": 24,
          "midi": 49,
          "name": "C#3",
          "ticks": 58128,
          "time": 161.4668685,
          "velocity": 0.6377952755905512
        },
        {
          "duration": 0.066666749999996,
          "durationTicks": 24,
          "midi": 53,
          "name": "F3",
          "ticks": 58128,
          "time": 161.4668685,
          "velocity": 0.6377952755905512
        },
        {
          "duration": 0.066666749999996,
          "durationTicks": 24,
          "midi": 57,
          "name": "A3",
          "ticks": 58128,
          "time": 161.4668685,
          "velocity": 0.6377952755905512
        },
        {
          "duration": 0.066666749999996,
          "durationTicks": 24,
          "midi": 61,
          "name": "C#4",
          "ticks": 58176,
          "time": 161.600202,
          "velocity": 0.6377952755905512
        },
        {
          "duration": 0.066666749999996,
          "durationTicks": 24,
          "midi": 49,
          "name": "C#3",
          "ticks": 58176,
          "time": 161.600202,
          "velocity": 0.6377952755905512
        },
        {
          "duration": 0.066666749999996,
          "durationTicks": 24,
          "midi": 53,
          "name": "F3",
          "ticks": 58176,
          "time": 161.600202,
          "velocity": 0.6377952755905512
        },
        {
          "duration": 0.066666749999996,
          "durationTicks": 24,
          "midi": 57,
          "name": "A3",
          "ticks": 58176,
          "time": 161.600202,
          "velocity": 0.6377952755905512
        }
      ],
      "endOfTrackTicks": 82491
    },
    {
      "channel": 4,
      "controlChanges": {
        "6": [
          {
            "number": 6,
            "ticks": 0,
            "time": 0,
            "value": 0.09448818897637795
          },
          {
            "number": 6,
            "ticks": 0,
            "time": 0,
            "value": 0.09448818897637795
          },
          {
            "number": 6,
            "ticks": 0,
            "time": 0,
            "value": 0.09448818897637795
          },
          {
            "number": 6,
            "ticks": 82466,
            "time": 228.45777604166662,
            "value": 0.09448818897637795
          },
          {
            "number": 6,
            "ticks": 82491,
            "time": 228.52722057291663,
            "value": 0.09448818897637795
          }
        ],
        "7": [
          {
            "number": 7,
            "ticks": 0,
            "time": 0,
            "value": 0.7874015748031497
          },
          {
            "number": 7,
            "ticks": 0,
            "time": 0,
            "value": 0.7874015748031497
          },
          {
            "number": 7,
            "ticks": 0,
            "time": 0,
            "value": 0.7874015748031497
          },
          {
            "number": 7,
            "ticks": 0,
            "time": 0,
            "value": 0.7874015748031497
          },
          {
            "number": 7,
            "ticks": 82466,
            "time": 228.45777604166662,
            "value": 0.7874015748031497
          },
          {
            "number": 7,
            "ticks": 82491,
            "time": 228.52722057291663,
            "value": 0.7874015748031497
          }
        ],
        "10": [
          {
            "number": 10,
            "ticks": 0,
            "time": 0,
            "value": 0.5039370078740157
          },
          {
            "number": 10,
            "ticks": 0,
            "time": 0,
            "value": 0.5039370078740157
          },
          {
            "number": 10,
            "ticks": 0,
            "time": 0,
            "value": 0.5039370078740157
          },
          {
            "number": 10,
            "ticks": 0,
            "time": 0,
            "value": 0.5039370078740157
          },
          {
            "number": 10,
            "ticks": 82466,
            "time": 228.45777604166662,
            "value": 0.5039370078740157
          },
          {
            "number": 10,
            "ticks": 82491,
            "time": 228.52722057291663,
            "value": 0.5039370078740157
          }
        ],
        "100": [
          {
            "number": 100,
            "ticks": 0,
            "time": 0,
            "value": 0
          },
          {
            "number": 100,
            "ticks": 0,
            "time": 0,
            "value": 0
          },
          {
            "number": 100,
            "ticks": 0,
            "time": 0,
            "value": 0
          },
          {
            "number": 100,
            "ticks": 82466,
            "time": 228.45777604166662,
            "value": 0
          },
          {
            "number": 100,
            "ticks": 82491,
            "time": 228.52722057291663,
            "value": 0
          }
        ],
        "101": [
          {
            "number": 101,
            "ticks": 0,
            "time": 0,
            "value": 0
          },
          {
            "number": 101,
            "ticks": 0,
            "time": 0,
            "value": 0
          },
          {
            "number": 101,
            "ticks": 0,
            "time": 0,
            "value": 0
          },
          {
            "number": 101,
            "ticks": 82466,
            "time": 228.45777604166662,
            "value": 0
          },
          {
            "number": 101,
            "ticks": 82491,
            "time": 228.52722057291663,
            "value": 0
          }
        ]
      },
      "pitchBends": [
        {
          "ticks": 0,
          "time": 0,
          "value": 0
        },
        {
          "ticks": 0,
          "time": 0,
          "value": 0
        },
        {
          "ticks": 0,
          "time": 0,
          "value": 0
        },
        {
          "ticks": 0,
          "time": 0,
          "value": 0
        },
        {
          "ticks": 82466,
          "time": 228.45777604166662,
          "value": 0
        },
        {
          "ticks": 82491,
          "time": 228.52722057291663,
          "value": 0
        }
      ],
      "instrument": {
        "family": "piano",
        "number": 0,
        "name": "acoustic grand piano"
      },
      "name": "Emo Piano",
      "notes": [
        {
          "duration": 0.5000006250000126,
          "durationTicks": 180,
          "midi": 47,
          "name": "B2",
          "ticks": 58368,
          "time": 162.133536,
          "velocity": 0.7795275590551181
        },
        {
          "duration": 0.133333499999992,
          "durationTicks": 48,
          "midi": 82,
          "name": "A#5",
          "ticks": 58368,
          "time": 162.133536,
          "velocity": 0.7086614173228346
        },
        {
          "duration": 0.133333499999992,
          "durationTicks": 48,
          "midi": 70,
          "name": "A#4",
          "ticks": 58368,
          "time": 162.133536,
          "velocity": 0.7086614173228346
        },
        {
          "duration": 0.2666670000000124,
          "durationTicks": 96,
          "midi": 75,
          "name": "D#5",
          "ticks": 58368,
          "time": 162.133536,
          "velocity": 0.5826771653543307
        },
        {
          "duration": 0.13333350000002042,
          "durationTicks": 48,
          "midi": 58,
          "name": "A#3",
          "ticks": 58416,
          "time": 162.26686949999998,
          "velocity": 0.6062992125984252
        },
        {
          "duration": 0.13333350000002042,
          "durationTicks": 48,
          "midi": 82,
          "name": "A#5",
          "ticks": 58440,
          "time": 162.33353624999998,
          "velocity": 0.7086614173228346
        },
        {
          "duration": 0.13333350000002042,
          "durationTicks": 48,
          "midi": 70,
          "name": "A#4",
          "ticks": 58440,
          "time": 162.33353624999998,
          "velocity": 0.7086614173228346
        },
        {
          "duration": 0.133333499999992,
          "durationTicks": 48,
          "midi": 54,
          "name": "F#3",
          "ticks": 58464,
          "time": 162.400203,
          "velocity": 0.6535433070866141
        },
        {
          "duration": 0.133333499999992,
          "durationTicks": 48,
          "midi": 58,
          "name": "A#3",
          "ticks": 58512,
          "time": 162.5335365,
          "velocity": 0.6062992125984252
        },
        {
          "duration": 0.133333499999992,
          "durationTicks": 48,
          "midi": 73,
          "name": "C#5",
          "ticks": 58512,
          "time": 162.5335365,
          "velocity": 0.7086614173228346
        },
        {
          "duration": 0.133333499999992,
          "durationTicks": 48,
          "midi": 85,
          "name": "C#6",
          "ticks": 58512,
          "time": 162.5335365,
          "velocity": 0.7086614173228346
        },
        {
          "duration": 0.133333499999992,
          "durationTicks": 48,
          "midi": 74,
          "name": "D5",
          "ticks": 58560,
          "time": 162.66687,
          "velocity": 0.7086614173228346
        },
        {
          "duration": 0.133333499999992,
          "durationTicks": 48,
          "midi": 80,
          "name": "G#5",
          "ticks": 58560,
          "time": 162.66687,
          "velocity": 0.5826771653543307
        },
        {
          "duration": 0.5000006250000126,
          "durationTicks": 180,
          "midi": 46,
          "name": "A#2",
          "ticks": 58560,
          "time": 162.66687,
          "velocity": 0.7795275590551181
        },
        {
          "duration": 0.133333499999992,
          "durationTicks": 48,
          "midi": 86,
          "name": "D6",
          "ticks": 58560,
          "time": 162.66687,
          "velocity": 0.7086614173228346
        },
        {
          "duration": 0.13333350000002042,
          "durationTicks": 48,
          "midi": 58,
          "name": "A#3",
          "ticks": 58608,
          "time": 162.80020349999998,
          "velocity": 0.7086614173228346
        },
        {
          "duration": 0.06666675000002442,
          "durationTicks": 24,
          "midi": 71,
          "name": "B4",
          "ticks": 58608,
          "time": 162.80020349999998,
          "velocity": 0.7086614173228346
        },
        {
          "duration": 0.06666675000002442,
          "durationTicks": 24,
          "midi": 83,
          "name": "B5",
          "ticks": 58608,
          "time": 162.80020349999998,
          "velocity": 0.7086614173228346
        },
        {
          "duration": 0.066666749999996,
          "durationTicks": 24,
          "midi": 70,
          "name": "A#4",
          "ticks": 58632,
          "time": 162.86687025,
          "velocity": 0.7086614173228346
        },
        {
          "duration": 0.066666749999996,
          "durationTicks": 24,
          "midi": 82,
          "name": "A#5",
          "ticks": 58632,
          "time": 162.86687025,
          "velocity": 0.7086614173228346
        },
        {
          "duration": 0.133333499999992,
          "durationTicks": 48,
          "midi": 53,
          "name": "F3",
          "ticks": 58656,
          "time": 162.933537,
          "velocity": 0.6535433070866141
        },
        {
          "duration": 0.133333499999992,
          "durationTicks": 48,
          "midi": 80,
          "name": "G#5",
          "ticks": 58704,
          "time": 163.0668705,
          "velocity": 0.7086614173228346
        },
        {
          "duration": 0.133333499999992,
          "durationTicks": 48,
          "midi": 68,
          "name": "G#4",
          "ticks": 58704,
          "time": 163.0668705,
          "velocity": 0.7086614173228346
        },
        {
          "duration": 0.133333499999992,
          "durationTicks": 48,
          "midi": 58,
          "name": "A#3",
          "ticks": 58704,
          "time": 163.0668705,
          "velocity": 0.6062992125984252
        },
        {
          "duration": 0.2666670000000124,
          "durationTicks": 96,
          "midi": 73,
          "name": "C#5",
          "ticks": 58752,
          "time": 163.20020399999999,
          "velocity": 0.5826771653543307
        },
        {
          "duration": 0.5000006250000126,
          "durationTicks": 180,
          "midi": 39,
          "name": "D#2",
          "ticks": 58752,
          "time": 163.20020399999999,
          "velocity": 0.7795275590551181
        },
        {
          "duration": 0.13333350000002042,
          "durationTicks": 48,
          "midi": 66,
          "name": "F#4",
          "ticks": 58752,
          "time": 163.20020399999999,
          "velocity": 0.7086614173228346
        },
        {
          "duration": 0.13333350000002042,
          "durationTicks": 48,
          "midi": 78,
          "name": "F#5",
          "ticks": 58752,
          "time": 163.20020399999999,
          "velocity": 0.7086614173228346
        },
        {
          "duration": 0.133333499999992,
          "durationTicks": 48,
          "midi": 58,
          "name": "A#3",
          "ticks": 58800,
          "time": 163.3335375,
          "velocity": 0.6062992125984252
        },
        {
          "duration": 0.133333499999992,
          "durationTicks": 48,
          "midi": 68,
          "name": "G#4",
          "ticks": 58800,
          "time": 163.3335375,
          "velocity": 0.7086614173228346
        },
        {
          "duration": 0.133333499999992,
          "durationTicks": 48,
          "midi": 80,
          "name": "G#5",
          "ticks": 58800,
          "time": 163.3335375,
          "velocity": 0.7086614173228346
        },
        {
          "duration": 0.133333499999992,
          "durationTicks": 48,
          "midi": 82,
          "name": "A#5",
          "ticks": 58848,
          "time": 163.466871,
          "velocity": 0.7086614173228346
        },
        {
          "duration": 0.133333499999992,
          "durationTicks": 48,
          "midi": 51,
          "name": "D#3",
          "ticks": 58848,
          "time": 163.466871,
          "velocity": 0.7086614173228346
        },
        {
          "duration": 0.133333499999992,
          "durationTicks": 48,
          "midi": 70,
          "name": "A#4",
          "ticks": 58848,
          "time": 163.466871,
          "velocity": 0.7086614173228346
        },
        {
          "duration": 0.133333499999992,
          "durationTicks": 48,
          "midi": 58,
          "name": "A#3",
          "ticks": 58896,
          "time": 163.6002045,
          "velocity": 0.6062992125984252
        },
        {
          "duration": 0.133333499999992,
          "durationTicks": 48,
          "midi": 71,
          "name": "B4",
          "ticks": 58896,
          "time": 163.6002045,
          "velocity": 0.7086614173228346
        },
        {
          "duration": 0.133333499999992,
          "durationTicks": 48,
          "midi": 83,
          "name": "B5",
          "ticks": 58896,
          "time": 163.6002045,
          "velocity": 0.7086614173228346
        },
        {
          "duration": 0.5000006250000126,
          "durationTicks": 180,
          "midi": 42,
          "name": "F#2",
          "ticks": 58944,
          "time": 163.73353799999998,
          "velocity": 0.7795275590551181
        },
        {
          "duration": 0.4666672500000004,
          "durationTicks": 168,
          "midi": 78,
          "name": "F#5",
          "ticks": 58944,
          "time": 163.73353799999998,
          "velocity": 0.5826771653543307
        },
        {
          "duration": 0.4666672500000004,
          "durationTicks": 168,
          "midi": 82,
          "name": "A#5",
          "ticks": 58956,
          "time": 163.766871375,
          "velocity": 0.7086614173228346
        },
        {
          "duration": 0.4666672500000004,
          "durationTicks": 168,
          "midi": 70,
          "name": "A#4",
          "ticks": 58956,
          "time": 163.766871375,
          "velocity": 0.7086614173228346
        },
        {
          "duration": 0.133333499999992,
          "durationTicks": 48,
          "midi": 58,
          "name": "A#3",
          "ticks": 58992,
          "time": 163.8668715,
          "velocity": 0.6062992125984252
        },
        {
          "duration": 0.133333499999992,
          "durationTicks": 48,
          "midi": 54,
          "name": "F#3",
          "ticks": 59040,
          "time": 164.000205,
          "velocity": 0.6535433070866141
        },
        {
          "duration": 0.133333499999992,
          "durationTicks": 48,
          "midi": 58,
          "name": "A#3",
          "ticks": 59088,
          "time": 164.1335385,
          "velocity": 0.6062992125984252
        },
        {
          "duration": 0.13333350000002042,
          "durationTicks": 48,
          "midi": 82,
          "name": "A#5",
          "ticks": 59136,
          "time": 164.26687199999998,
          "velocity": 0.7086614173228346
        },
        {
          "duration": 0.5000006250000126,
          "durationTicks": 180,
          "midi": 47,
          "name": "B2",
          "ticks": 59136,
          "time": 164.26687199999998,
          "velocity": 0.7795275590551181
        },
        {
          "duration": 0.2666670000000124,
          "durationTicks": 96,
          "midi": 75,
          "name": "D#5",
          "ticks": 59136,
          "time": 164.26687199999998,
          "velocity": 0.5826771653543307
        },
        {
          "duration": 0.13333350000002042,
          "durationTicks": 48,
          "midi": 70,
          "name": "A#4",
          "ticks": 59136,
          "time": 164.26687199999998,
          "velocity": 0.7086614173228346
        },
        {
          "duration": 0.133333499999992,
          "durationTicks": 48,
          "midi": 58,
          "name": "A#3",
          "ticks": 59184,
          "time": 164.4002055,
          "velocity": 0.6062992125984252
        },
        {
          "duration": 0.133333499999992,
          "durationTicks": 48,
          "midi": 82,
          "name": "A#5",
          "ticks": 59208,
          "time": 164.46687225,
          "velocity": 0.7086614173228346
        },
        {
          "duration": 0.133333499999992,
          "durationTicks": 48,
          "midi": 70,
          "name": "A#4",
          "ticks": 59208,
          "time": 164.46687225,
          "velocity": 0.7086614173228346
        },
        {
          "duration": 0.133333499999992,
          "durationTicks": 48,
          "midi": 54,
          "name": "F#3",
          "ticks": 59232,
          "time": 164.533539,
          "velocity": 0.6535433070866141
        },
        {
          "duration": 0.066666749999996,
          "durationTicks": 24,
          "midi": 85,
          "name": "C#6",
          "ticks": 59280,
          "time": 164.66687249999998,
          "velocity": 0.7086614173228346
        },
        {
          "duration": 0.13333350000002042,
          "durationTicks": 48,
          "midi": 58,
          "name": "A#3",
          "ticks": 59280,
          "time": 164.66687249999998,
          "velocity": 0.6062992125984252
        },
        {
          "duration": 0.066666749999996,
          "durationTicks": 24,
          "midi": 73,
          "name": "C#5",
          "ticks": 59280,
          "time": 164.66687249999998,
          "velocity": 0.7086614173228346
        },
        {
          "duration": 0.133333499999992,
          "durationTicks": 48,
          "midi": 80,
          "name": "G#5",
          "ticks": 59328,
          "time": 164.800206,
          "velocity": 0.5826771653543307
        },
        {
          "duration": 0.5000006249999842,
          "durationTicks": 180,
          "midi": 46,
          "name": "A#2",
          "ticks": 59328,
          "time": 164.800206,
          "velocity": 0.7795275590551181
        },
        {
          "duration": 0.133333499999992,
          "durationTicks": 48,
          "midi": 74,
          "name": "D5",
          "ticks": 59328,
          "time": 164.800206,
          "velocity": 0.7086614173228346
        },
        {
          "duration": 0.133333499999992,
          "durationTicks": 48,
          "midi": 86,
          "name": "D6",
          "ticks": 59328,
          "time": 164.800206,
          "velocity": 0.7086614173228346
        },
        {
          "duration": 0.133333499999992,
          "durationTicks": 48,
          "midi": 58,
          "name": "A#3",
          "ticks": 59376,
          "time": 164.9335395,
          "velocity": 0.6062992125984252
        },
        {
          "duration": 0.133333499999992,
          "durationTicks": 48,
          "midi": 77,
          "name": "F5",
          "ticks": 59376,
          "time": 164.9335395,
          "velocity": 0.7086614173228346
        },
        {
          "duration": 0.133333499999992,
          "durationTicks": 48,
          "midi": 89,
          "name": "F6",
          "ticks": 59376,
          "time": 164.9335395,
          "velocity": 0.7086614173228346
        },
        {
          "duration": 0.133333499999992,
          "durationTicks": 48,
          "midi": 94,
          "name": "A#6",
          "ticks": 59424,
          "time": 165.066873,
          "velocity": 0.7086614173228346
        },
        {
          "duration": 0.133333499999992,
          "durationTicks": 48,
          "midi": 82,
          "name": "A#5",
          "ticks": 59424,
          "time": 165.066873,
          "velocity": 0.7086614173228346
        },
        {
          "duration": 0.133333499999992,
          "durationTicks": 48,
          "midi": 53,
          "name": "F3",
          "ticks": 59424,
          "time": 165.066873,
          "velocity": 0.6535433070866141
        },
        {
          "duration": 0.13333350000002042,
          "durationTicks": 48,
          "midi": 92,
          "name": "G#6",
          "ticks": 59472,
          "time": 165.20020649999998,
          "velocity": 0.7086614173228346
        },
        {
          "duration": 0.13333350000002042,
          "durationTicks": 48,
          "midi": 80,
          "name": "G#5",
          "ticks": 59472,
          "time": 165.20020649999998,
          "velocity": 0.7086614173228346
        },
        {
          "duration": 0.13333350000002042,
          "durationTicks": 48,
          "midi": 58,
          "name": "A#3",
          "ticks": 59472,
          "time": 165.20020649999998,
          "velocity": 0.6062992125984252
        },
        {
          "duration": 0.266666999999984,
          "durationTicks": 96,
          "midi": 78,
          "name": "F#5",
          "ticks": 59520,
          "time": 165.33354,
          "velocity": 0.7086614173228346
        },
        {
          "duration": 0.266666999999984,
          "durationTicks": 96,
          "midi": 90,
          "name": "F#6",
          "ticks": 59520,
          "time": 165.33354,
          "velocity": 0.7086614173228346
        },
        {
          "duration": 0.200000249999988,
          "durationTicks": 72,
          "midi": 51,
          "name": "D#3",
          "ticks": 59520,
          "time": 165.33354,
          "velocity": 0.7795275590551181
        },
        {
          "duration": 0.133333499999992,
          "durationTicks": 48,
          "midi": 63,
          "name": "D#4",
          "ticks": 59568,
          "time": 165.4668735,
          "velocity": 0.7086614173228346
        },
        {
          "duration": 0.20000025000001642,
          "durationTicks": 72,
          "midi": 50,
          "name": "D3",
          "ticks": 59616,
          "time": 165.60020699999998,
          "velocity": 0.7795275590551181
        },
        {
          "duration": 0.133333499999992,
          "durationTicks": 48,
          "midi": 77,
          "name": "F5",
          "ticks": 59664,
          "time": 165.7335405,
          "velocity": 0.7086614173228346
        },
        {
          "duration": 0.133333499999992,
          "durationTicks": 48,
          "midi": 89,
          "name": "F6",
          "ticks": 59664,
          "time": 165.7335405,
          "velocity": 0.7086614173228346
        },
        {
          "duration": 0.133333499999992,
          "durationTicks": 48,
          "midi": 62,
          "name": "D4",
          "ticks": 59664,
          "time": 165.7335405,
          "velocity": 0.7086614173228346
        },
        {
          "duration": 0.200000249999988,
          "durationTicks": 72,
          "midi": 49,
          "name": "C#3",
          "ticks": 59712,
          "time": 165.866874,
          "velocity": 0.7795275590551181
        },
        {
          "duration": 0.266666999999984,
          "durationTicks": 96,
          "midi": 90,
          "name": "F#6",
          "ticks": 59712,
          "time": 165.866874,
          "velocity": 0.7086614173228346
        },
        {
          "duration": 0.266666999999984,
          "durationTicks": 96,
          "midi": 78,
          "name": "F#5",
          "ticks": 59712,
          "time": 165.866874,
          "velocity": 0.7086614173228346
        },
        {
          "duration": 0.133333499999992,
          "durationTicks": 48,
          "midi": 61,
          "name": "C#4",
          "ticks": 59760,
          "time": 166.0002075,
          "velocity": 0.7086614173228346
        },
        {
          "duration": 0.20000025000001642,
          "durationTicks": 72,
          "midi": 48,
          "name": "C3",
          "ticks": 59808,
          "time": 166.13354099999998,
          "velocity": 0.7795275590551181
        },
        {
          "duration": 0.2666670000000124,
          "durationTicks": 96,
          "midi": 94,
          "name": "A#6",
          "ticks": 59808,
          "time": 166.13354099999998,
          "velocity": 0.7086614173228346
        },
        {
          "duration": 0.266666999999984,
          "durationTicks": 96,
          "midi": 96,
          "name": "C7",
          "ticks": 59815,
          "time": 166.15298546875,
          "velocity": 0.7086614173228346
        },
        {
          "duration": 0.2666670000000124,
          "durationTicks": 96,
          "midi": 99,
          "name": "D#7",
          "ticks": 59820,
          "time": 166.166874375,
          "velocity": 0.7086614173228346
        },
        {
          "duration": 0.133333499999992,
          "durationTicks": 48,
          "midi": 60,
          "name": "C4",
          "ticks": 59856,
          "time": 166.2668745,
          "velocity": 0.7086614173228346
        },
        {
          "duration": 0.133333499999992,
          "durationTicks": 48,
          "midi": 82,
          "name": "A#5",
          "ticks": 59904,
          "time": 166.400208,
          "velocity": 0.7086614173228346
        },
        {
          "duration": 0.133333499999992,
          "durationTicks": 48,
          "midi": 70,
          "name": "A#4",
          "ticks": 59904,
          "time": 166.400208,
          "velocity": 0.7086614173228346
        },
        {
          "duration": 0.2666670000000124,
          "durationTicks": 96,
          "midi": 75,
          "name": "D#5",
          "ticks": 59904,
          "time": 166.400208,
          "velocity": 0.5826771653543307
        },
        {
          "duration": 0.5000006250000126,
          "durationTicks": 180,
          "midi": 47,
          "name": "B2",
          "ticks": 59904,
          "time": 166.400208,
          "velocity": 0.7795275590551181
        },
        {
          "duration": 0.13333350000002042,
          "durationTicks": 48,
          "midi": 58,
          "name": "A#3",
          "ticks": 59952,
          "time": 166.53354149999998,
          "velocity": 0.6062992125984252
        },
        {
          "duration": 0.13333350000002042,
          "durationTicks": 48,
          "midi": 70,
          "name": "A#4",
          "ticks": 59976,
          "time": 166.60020824999998,
          "velocity": 0.7086614173228346
        },
        {
          "duration": 0.13333350000002042,
          "durationTicks": 48,
          "midi": 82,
          "name": "A#5",
          "ticks": 59976,
          "time": 166.60020824999998,
          "velocity": 0.7086614173228346
        },
        {
          "duration": 0.133333499999992,
          "durationTicks": 48,
          "midi": 54,
          "name": "F#3",
          "ticks": 60000,
          "time": 166.666875,
          "velocity": 0.6535433070866141
        },
        {
          "duration": 0.133333499999992,
          "durationTicks": 48,
          "midi": 73,
          "name": "C#5",
          "ticks": 60048,
          "time": 166.8002085,
          "velocity": 0.7086614173228346
        },
        {
          "duration": 0.133333499999992,
          "durationTicks": 48,
          "midi": 85,
          "name": "C#6",
          "ticks": 60048,
          "time": 166.8002085,
          "velocity": 0.7086614173228346
        },
        {
          "duration": 0.133333499999992,
          "durationTicks": 48,
          "midi": 58,
          "name": "A#3",
          "ticks": 60048,
          "time": 166.8002085,
          "velocity": 0.6062992125984252
        }
      ],
      "endOfTrackTicks": 82491
    },
    {
      "channel": 5,
      "controlChanges": {
        "6": [
          {
            "number": 6,
            "ticks": 0,
            "time": 0,
            "value": 0.09448818897637795
          },
          {
            "number": 6,
            "ticks": 0,
            "time": 0,
            "value": 0.09448818897637795
          },
          {
            "number": 6,
            "ticks": 0,
            "time": 0,
            "value": 0.09448818897637795
          },
          {
            "number": 6,
            "ticks": 82466,
            "time": 228.45777604166662,
            "value": 0.09448818897637795
          },
          {
            "number": 6,
            "ticks": 82491,
            "time": 228.52722057291663,
            "value": 0.09448818897637795
          }
        ],
        "7": [
          {
            "number": 7,
            "ticks": 0,
            "time": 0,
            "value": 0.7874015748031497
          },
          {
            "number": 7,
            "ticks": 0,
            "time": 0,
            "value": 0.7874015748031497
          },
          {
            "number": 7,
            "ticks": 0,
            "time": 0,
            "value": 0.7874015748031497
          },
          {
            "number": 7,
            "ticks": 0,
            "time": 0,
            "value": 0.7874015748031497
          },
          {
            "number": 7,
            "ticks": 82466,
            "time": 228.45777604166662,
            "value": 0.7874015748031497
          },
          {
            "number": 7,
            "ticks": 82491,
            "time": 228.52722057291663,
            "value": 0.7874015748031497
          }
        ],
        "10": [
          {
            "number": 10,
            "ticks": 0,
            "time": 0,
            "value": 0.5039370078740157
          },
          {
            "number": 10,
            "ticks": 0,
            "time": 0,
            "value": 0.5039370078740157
          },
          {
            "number": 10,
            "ticks": 0,
            "time": 0,
            "value": 0.5039370078740157
          },
          {
            "number": 10,
            "ticks": 0,
            "time": 0,
            "value": 0.5039370078740157
          },
          {
            "number": 10,
            "ticks": 82466,
            "time": 228.45777604166662,
            "value": 0.5039370078740157
          },
          {
            "number": 10,
            "ticks": 82491,
            "time": 228.52722057291663,
            "value": 0.5039370078740157
          }
        ],
        "100": [
          {
            "number": 100,
            "ticks": 0,
            "time": 0,
            "value": 0
          },
          {
            "number": 100,
            "ticks": 0,
            "time": 0,
            "value": 0
          },
          {
            "number": 100,
            "ticks": 0,
            "time": 0,
            "value": 0
          },
          {
            "number": 100,
            "ticks": 82466,
            "time": 228.45777604166662,
            "value": 0
          },
          {
            "number": 100,
            "ticks": 82491,
            "time": 228.52722057291663,
            "value": 0
          }
        ],
        "101": [
          {
            "number": 101,
            "ticks": 0,
            "time": 0,
            "value": 0
          },
          {
            "number": 101,
            "ticks": 0,
            "time": 0,
            "value": 0
          },
          {
            "number": 101,
            "ticks": 0,
            "time": 0,
            "value": 0
          },
          {
            "number": 101,
            "ticks": 82466,
            "time": 228.45777604166662,
            "value": 0
          },
          {
            "number": 101,
            "ticks": 82491,
            "time": 228.52722057291663,
            "value": 0
          }
        ]
      },
      "pitchBends": [
        {
          "ticks": 0,
          "time": 0,
          "value": 0
        },
        {
          "ticks": 0,
          "time": 0,
          "value": 0
        },
        {
          "ticks": 0,
          "time": 0,
          "value": 0
        },
        {
          "ticks": 0,
          "time": 0,
          "value": 0
        },
        {
          "ticks": 82466,
          "time": 228.45777604166662,
          "value": 0
        },
        {
          "ticks": 82491,
          "time": 228.52722057291663,
          "value": 0
        }
      ],
      "instrument": {
        "family": "piano",
        "number": 0,
        "name": "acoustic grand piano"
      },
      "name": "Bass",
      "notes": [
        {
          "duration": 0.13333350000000088,
          "durationTicks": 48,
          "midi": 39,
          "name": "D#2",
          "ticks": 3312,
          "time": 9.200011499999999,
          "velocity": 0.7716535433070866
        },
        {
          "duration": 0.1333334999999991,
          "durationTicks": 48,
          "midi": 39,
          "name": "D#2",
          "ticks": 3408,
          "time": 9.4666785,
          "velocity": 0.7716535433070866
        },
        {
          "duration": 0.13333350000000088,
          "durationTicks": 48,
          "midi": 39,
          "name": "D#2",
          "ticks": 3504,
          "time": 9.733345499999999,
          "velocity": 0.7716535433070866
        },
        {
          "duration": 0.1333334999999991,
          "durationTicks": 48,
          "midi": 39,
          "name": "D#2",
          "ticks": 3600,
          "time": 10.0000125,
          "velocity": 0.7716535433070866
        },
        {
          "duration": 0.13333350000000088,
          "durationTicks": 48,
          "midi": 39,
          "name": "D#2",
          "ticks": 3696,
          "time": 10.266679499999999,
          "velocity": 0.7716535433070866
        },
        {
          "duration": 0.1333334999999991,
          "durationTicks": 48,
          "midi": 39,
          "name": "D#2",
          "ticks": 3792,
          "time": 10.5333465,
          "velocity": 0.7716535433070866
        },
        {
          "duration": 0.13333350000000088,
          "durationTicks": 48,
          "midi": 39,
          "name": "D#2",
          "ticks": 3888,
          "time": 10.800013499999999,
          "velocity": 0.7716535433070866
        },
        {
          "duration": 0.1333334999999991,
          "durationTicks": 48,
          "midi": 39,
          "name": "D#2",
          "ticks": 3984,
          "time": 11.0666805,
          "velocity": 0.7716535433070866
        },
        {
          "duration": 0.13333350000000088,
          "durationTicks": 48,
          "midi": 39,
          "name": "D#2",
          "ticks": 4080,
          "time": 11.333347499999999,
          "velocity": 0.7716535433070866
        },
        {
          "duration": 0.1333334999999991,
          "durationTicks": 48,
          "midi": 39,
          "name": "D#2",
          "ticks": 4176,
          "time": 11.6000145,
          "velocity": 0.7716535433070866
        },
        {
          "duration": 0.13333350000000088,
          "durationTicks": 48,
          "midi": 39,
          "name": "D#2",
          "ticks": 4272,
          "time": 11.866681499999999,
          "velocity": 0.7716535433070866
        },
        {
          "duration": 0.1333334999999991,
          "durationTicks": 48,
          "midi": 39,
          "name": "D#2",
          "ticks": 4368,
          "time": 12.1333485,
          "velocity": 0.7716535433070866
        },
        {
          "duration": 0.13333350000000088,
          "durationTicks": 48,
          "midi": 39,
          "name": "D#2",
          "ticks": 4464,
          "time": 12.400015499999999,
          "velocity": 0.7716535433070866
        },
        {
          "duration": 0.1333334999999991,
          "durationTicks": 48,
          "midi": 39,
          "name": "D#2",
          "ticks": 4560,
          "time": 12.6666825,
          "velocity": 0.7716535433070866
        },
        {
          "duration": 0.13333350000000088,
          "durationTicks": 48,
          "midi": 39,
          "name": "D#2",
          "ticks": 4656,
          "time": 12.933349499999998,
          "velocity": 0.7716535433070866
        },
        {
          "duration": 0.1333334999999991,
          "durationTicks": 48,
          "midi": 39,
          "name": "D#2",
          "ticks": 4752,
          "time": 13.2000165,
          "velocity": 0.7716535433070866
        },
        {
          "duration": 0.1333334999999991,
          "durationTicks": 48,
          "midi": 39,
          "name": "D#2",
          "ticks": 4944,
          "time": 13.7333505,
          "velocity": 0.7716535433070866
        },
        {
          "duration": 0.13333350000000088,
          "durationTicks": 48,
          "midi": 39,
          "name": "D#2",
          "ticks": 5040,
          "time": 14.000017499999998,
          "velocity": 0.7716535433070866
        },
        {
          "duration": 0.1333334999999991,
          "durationTicks": 48,
          "midi": 39,
          "name": "D#2",
          "ticks": 5136,
          "time": 14.2666845,
          "velocity": 0.7716535433070866
        },
        {
          "duration": 0.13333350000000088,
          "durationTicks": 48,
          "midi": 39,
          "name": "D#2",
          "ticks": 5232,
          "time": 14.533351499999998,
          "velocity": 0.7716535433070866
        },
        {
          "duration": 0.1333334999999991,
          "durationTicks": 48,
          "midi": 39,
          "name": "D#2",
          "ticks": 5328,
          "time": 14.8000185,
          "velocity": 0.7716535433070866
        },
        {
          "duration": 0.13333350000000088,
          "durationTicks": 48,
          "midi": 39,
          "name": "D#2",
          "ticks": 5424,
          "time": 15.066685499999998,
          "velocity": 0.7716535433070866
        },
        {
          "duration": 0.1333334999999991,
          "durationTicks": 48,
          "midi": 39,
          "name": "D#2",
          "ticks": 5520,
          "time": 15.3333525,
          "velocity": 0.7716535433070866
        },
        {
          "duration": 0.13333350000000088,
          "durationTicks": 48,
          "midi": 39,
          "name": "D#2",
          "ticks": 5616,
          "time": 15.600019499999998,
          "velocity": 0.7716535433070866
        },
        {
          "duration": 0.1333334999999991,
          "durationTicks": 48,
          "midi": 39,
          "name": "D#2",
          "ticks": 5712,
          "time": 15.8666865,
          "velocity": 0.7716535433070866
        },
        {
          "duration": 0.1333334999999991,
          "durationTicks": 48,
          "midi": 39,
          "name": "D#2",
          "ticks": 5808,
          "time": 16.1333535,
          "velocity": 0.7716535433070866
        },
        {
          "duration": 0.1333334999999991,
          "durationTicks": 48,
          "midi": 39,
          "name": "D#2",
          "ticks": 5904,
          "time": 16.4000205,
          "velocity": 0.7716535433070866
        },
        {
          "duration": 0.13333350000000266,
          "durationTicks": 48,
          "midi": 39,
          "name": "D#2",
          "ticks": 6000,
          "time": 16.6666875,
          "velocity": 0.7716535433070866
        },
        {
          "duration": 0.1333334999999991,
          "durationTicks": 48,
          "midi": 39,
          "name": "D#2",
          "ticks": 6096,
          "time": 16.9333545,
          "velocity": 0.7716535433070866
        },
        {
          "duration": 0.1333334999999991,
          "durationTicks": 48,
          "midi": 39,
          "name": "D#2",
          "ticks": 6192,
          "time": 17.2000215,
          "velocity": 0.7716535433070866
        },
        {
          "duration": 0.1333334999999991,
          "durationTicks": 48,
          "midi": 39,
          "name": "D#2",
          "ticks": 6288,
          "time": 17.4666885,
          "velocity": 0.7716535433070866
        },
        {
          "duration": 0.533334,
          "durationTicks": 192,
          "midi": 42,
          "name": "F#2",
          "ticks": 8832,
          "time": 24.533364,
          "velocity": 0.8110236220472441
        },
        {
          "duration": 0.533334,
          "durationTicks": 192,
          "midi": 41,
          "name": "F2",
          "ticks": 9024,
          "time": 25.066698,
          "velocity": 0.8110236220472441
        },
        {
          "duration": 0.533334,
          "durationTicks": 192,
          "midi": 44,
          "name": "G#2",
          "ticks": 9216,
          "time": 25.600032,
          "velocity": 0.8110236220472441
        },
        {
          "duration": 0.1333334999999991,
          "durationTicks": 48,
          "midi": 53,
          "name": "F3",
          "ticks": 9408,
          "time": 26.133366,
          "velocity": 0.8110236220472441
        },
        {
          "duration": 0.03888893749999767,
          "durationTicks": 14,
          "midi": 52,
          "name": "E3",
          "ticks": 9432,
          "time": 26.20003275,
          "velocity": 0.7244094488188977
        },
        {
          "duration": 0.036111156250001386,
          "durationTicks": 13,
          "midi": 51,
          "name": "D#3",
          "ticks": 9446,
          "time": 26.238921687499996,
          "velocity": 0.7007874015748031
        },
        {
          "duration": 0.03888893750000122,
          "durationTicks": 14,
          "midi": 50,
          "name": "D3",
          "ticks": 9459,
          "time": 26.275032843749997,
          "velocity": 0.6850393700787402
        },
        {
          "duration": 0.03888893750000122,
          "durationTicks": 14,
          "midi": 49,
          "name": "C#3",
          "ticks": 9473,
          "time": 26.31392178125,
          "velocity": 0.6614173228346457
        },
        {
          "duration": 0.03888893749999767,
          "durationTicks": 14,
          "midi": 48,
          "name": "C3",
          "ticks": 9487,
          "time": 26.35281071875,
          "velocity": 0.6456692913385826
        },
        {
          "duration": 0.036111156250001386,
          "durationTicks": 13,
          "midi": 47,
          "name": "B2",
          "ticks": 9501,
          "time": 26.391699656249997,
          "velocity": 0.6220472440944882
        },
        {
          "duration": 0.03888893750000122,
          "durationTicks": 14,
          "midi": 46,
          "name": "A#2",
          "ticks": 9514,
          "time": 26.4278108125,
          "velocity": 0.6062992125984252
        },
        {
          "duration": 0.03888893749999767,
          "durationTicks": 14,
          "midi": 45,
          "name": "A2",
          "ticks": 9528,
          "time": 26.46669975,
          "velocity": 0.5826771653543307
        },
        {
          "duration": 0.03888893750000122,
          "durationTicks": 14,
          "midi": 44,
          "name": "G#2",
          "ticks": 9542,
          "time": 26.505588687499998,
          "velocity": 0.5669291338582677
        },
        {
          "duration": 0.03611115624999783,
          "durationTicks": 13,
          "midi": 43,
          "name": "G2",
          "ticks": 9556,
          "time": 26.544477625,
          "velocity": 0.5433070866141733
        },
        {
          "duration": 0.03888893750000477,
          "durationTicks": 14,
          "midi": 42,
          "name": "F#2",
          "ticks": 9569,
          "time": 26.580588781249997,
          "velocity": 0.5275590551181102
        },
        {
          "duration": 0.2666669999999982,
          "durationTicks": 96,
          "midi": 35,
          "name": "B1",
          "ticks": 12288,
          "time": 34.133376,
          "velocity": 0.8110236220472441
        },
        {
          "duration": 0.2666669999999982,
          "durationTicks": 96,
          "midi": 47,
          "name": "B2",
          "ticks": 12384,
          "time": 34.400043,
          "velocity": 0.8110236220472441
        },
        {
          "duration": 0.2666670000000053,
          "durationTicks": 96,
          "midi": 46,
          "name": "A#2",
          "ticks": 12480,
          "time": 34.666709999999995,
          "velocity": 0.8110236220472441
        },
        {
          "duration": 0.2666669999999982,
          "durationTicks": 96,
          "midi": 45,
          "name": "A2",
          "ticks": 12576,
          "time": 34.933377,
          "velocity": 0.8110236220472441
        },
        {
          "duration": 0.2666669999999982,
          "durationTicks": 96,
          "midi": 44,
          "name": "G#2",
          "ticks": 12672,
          "time": 35.200044,
          "velocity": 0.8110236220472441
        },
        {
          "duration": 0.2666670000000053,
          "durationTicks": 96,
          "midi": 48,
          "name": "C3",
          "ticks": 12768,
          "time": 35.466711,
          "velocity": 0.8110236220472441
        },
        {
          "duration": 0.2666669999999982,
          "durationTicks": 96,
          "midi": 41,
          "name": "F2",
          "ticks": 12864,
          "time": 35.733378,
          "velocity": 0.8110236220472441
        },
        {
          "duration": 0.5333339999999964,
          "durationTicks": 192,
          "midi": 45,
          "name": "A2",
          "ticks": 12960,
          "time": 36.000045,
          "velocity": 0.8110236220472441
        },
        {
          "duration": 0.11111124999999333,
          "durationTicks": 40,
          "midi": 44,
          "name": "G#2",
          "ticks": 13008,
          "time": 36.1333785,
          "velocity": 0.6771653543307087
        },
        {
          "duration": 0.11111125000000044,
          "durationTicks": 40,
          "midi": 43,
          "name": "G2",
          "ticks": 13020,
          "time": 36.166711875,
          "velocity": 0.6299212598425197
        },
        {
          "duration": 0.11111125000000044,
          "durationTicks": 40,
          "midi": 42,
          "name": "F#2",
          "ticks": 13032,
          "time": 36.200045249999995,
          "velocity": 0.5905511811023622
        },
        {
          "duration": 0.11111124999999333,
          "durationTicks": 40,
          "midi": 41,
          "name": "F2",
          "ticks": 13044,
          "time": 36.233378625,
          "velocity": 0.5433070866141733
        },
        {
          "duration": 0.11111125000000044,
          "durationTicks": 40,
          "midi": 40,
          "name": "E2",
          "ticks": 13056,
          "time": 36.266712,
          "velocity": 0.49606299212598426
        },
        {
          "duration": 0.11111125000000044,
          "durationTicks": 40,
          "midi": 39,
          "name": "D#2",
          "ticks": 13068,
          "time": 36.300045374999996,
          "velocity": 0.44881889763779526
        },
        {
          "duration": 0.11111124999999333,
          "durationTicks": 40,
          "midi": 38,
          "name": "D2",
          "ticks": 13080,
          "time": 36.33337875,
          "velocity": 0.4094488188976378
        },
        {
          "duration": 0.11111124999999333,
          "durationTicks": 40,
          "midi": 37,
          "name": "C#2",
          "ticks": 13092,
          "time": 36.366712125,
          "velocity": 0.36220472440944884
        },
        {
          "duration": 0.11111125000000044,
          "durationTicks": 40,
          "midi": 36,
          "name": "C2",
          "ticks": 13104,
          "time": 36.4000455,
          "velocity": 0.31496062992125984
        },
        {
          "duration": 0.1000001250000011,
          "durationTicks": 36,
          "midi": 35,
          "name": "B1",
          "ticks": 13116,
          "time": 36.433378874999995,
          "velocity": 0.2677165354330709
        },
        {
          "duration": 0.066666749999996,
          "durationTicks": 24,
          "midi": 34,
          "name": "A#1",
          "ticks": 13128,
          "time": 36.46671225,
          "velocity": 0.2283464566929134
        },
        {
          "duration": 0.033333374999998,
          "durationTicks": 12,
          "midi": 33,
          "name": "A1",
          "ticks": 13140,
          "time": 36.500045625,
          "velocity": 0.18110236220472442
        },
        {
          "duration": 0.1333334999999991,
          "durationTicks": 48,
          "midi": 42,
          "name": "F#2",
          "ticks": 15264,
          "time": 42.400053,
          "velocity": 0.7874015748031497
        },
        {
          "duration": 0.1333334999999991,
          "durationTicks": 48,
          "midi": 54,
          "name": "F#3",
          "ticks": 15312,
          "time": 42.5333865,
          "velocity": 0.7874015748031497
        },
        {
          "duration": 0.1333334999999991,
          "durationTicks": 48,
          "midi": 66,
          "name": "F#4",
          "ticks": 15360,
          "time": 42.66672,
          "velocity": 0.7874015748031497
        },
        {
          "duration": 0.1333334999999991,
          "durationTicks": 48,
          "midi": 42,
          "name": "F#2",
          "ticks": 15408,
          "time": 42.8000535,
          "velocity": 0.7874015748031497
        },
        {
          "duration": 0.1333334999999991,
          "durationTicks": 48,
          "midi": 42,
          "name": "F#2",
          "ticks": 15504,
          "time": 43.066720499999995,
          "velocity": 0.7874015748031497
        },
        {
          "duration": 0.1333335000000062,
          "durationTicks": 48,
          "midi": 41,
          "name": "F2",
          "ticks": 15552,
          "time": 43.200053999999994,
          "velocity": 0.7874015748031497
        },
        {
          "duration": 0.2666669999999982,
          "durationTicks": 96,
          "midi": 53,
          "name": "F3",
          "ticks": 15648,
          "time": 43.466721,
          "velocity": 0.7874015748031497
        },
        {
          "duration": 0.1333334999999991,
          "durationTicks": 48,
          "midi": 45,
          "name": "A2",
          "ticks": 15744,
          "time": 43.733388,
          "velocity": 0.7874015748031497
        },
        {
          "duration": 0.1333334999999991,
          "durationTicks": 48,
          "midi": 57,
          "name": "A3",
          "ticks": 15792,
          "time": 43.8667215,
          "velocity": 0.7874015748031497
        },
        {
          "duration": 0.1333334999999991,
          "durationTicks": 48,
          "midi": 69,
          "name": "A4",
          "ticks": 15840,
          "time": 44.000054999999996,
          "velocity": 0.7874015748031497
        },
        {
          "duration": 0.1333335000000062,
          "durationTicks": 48,
          "midi": 45,
          "name": "A2",
          "ticks": 15888,
          "time": 44.133388499999995,
          "velocity": 0.7874015748031497
        },
        {
          "duration": 0.1333334999999991,
          "durationTicks": 48,
          "midi": 45,
          "name": "A2",
          "ticks": 15984,
          "time": 44.4000555,
          "velocity": 0.7874015748031497
        },
        {
          "duration": 0.2666669999999982,
          "durationTicks": 96,
          "midi": 44,
          "name": "G#2",
          "ticks": 16032,
          "time": 44.533389,
          "velocity": 0.7874015748031497
        },
        {
          "duration": 0.2666669999999982,
          "durationTicks": 96,
          "midi": 56,
          "name": "G#3",
          "ticks": 16128,
          "time": 44.800056,
          "velocity": 0.7874015748031497
        },
        {
          "duration": 0.2666669999999982,
          "durationTicks": 96,
          "midi": 40,
          "name": "E2",
          "ticks": 16224,
          "time": 45.066722999999996,
          "velocity": 0.7874015748031497
        },
        {
          "duration": 0.1000001250000011,
          "durationTicks": 36,
          "midi": 37,
          "name": "C#2",
          "ticks": 17808,
          "time": 49.466728499999995,
          "velocity": 0.7874015748031497
        },
        {
          "duration": 0.1000001250000011,
          "durationTicks": 36,
          "midi": 37,
          "name": "C#2",
          "ticks": 17856,
          "time": 49.600061999999994,
          "velocity": 0.7874015748031497
        },
        {
          "duration": 0.1000001250000011,
          "durationTicks": 36,
          "midi": 37,
          "name": "C#2",
          "ticks": 17952,
          "time": 49.866729,
          "velocity": 0.7874015748031497
        },
        {
          "duration": 0.1000001250000011,
          "durationTicks": 36,
          "midi": 37,
          "name": "C#2",
          "ticks": 18000,
          "time": 50.0000625,
          "velocity": 0.7874015748031497
        },
        {
          "duration": 0.2333336250000002,
          "durationTicks": 84,
          "midi": 37,
          "name": "C#2",
          "ticks": 18096,
          "time": 50.2667295,
          "velocity": 0.7874015748031497
        },
        {
          "duration": 0.1000001250000011,
          "durationTicks": 36,
          "midi": 37,
          "name": "C#2",
          "ticks": 18192,
          "time": 50.533396499999995,
          "velocity": 0.7874015748031497
        },
        {
          "duration": 0.100000124999994,
          "durationTicks": 36,
          "midi": 37,
          "name": "C#2",
          "ticks": 18240,
          "time": 50.66673,
          "velocity": 0.7874015748031497
        },
        {
          "duration": 0.100000124999994,
          "durationTicks": 36,
          "midi": 37,
          "name": "C#2",
          "ticks": 18288,
          "time": 50.8000635,
          "velocity": 0.7874015748031497
        },
        {
          "duration": 0.1333334999999991,
          "durationTicks": 48,
          "midi": 37,
          "name": "C#2",
          "ticks": 18336,
          "time": 50.933397,
          "velocity": 0.7874015748031497
        },
        {
          "duration": 0.11111125000000044,
          "durationTicks": 40,
          "midi": 50,
          "name": "D3",
          "ticks": 18576,
          "time": 51.600064499999995,
          "velocity": 0.7874015748031497
        },
        {
          "duration": 0.11111124999999333,
          "durationTicks": 40,
          "midi": 50,
          "name": "D3",
          "ticks": 18672,
          "time": 51.8667315,
          "velocity": 0.7874015748031497
        },
        {
          "duration": 0.11111124999999333,
          "durationTicks": 40,
          "midi": 49,
          "name": "C#3",
          "ticks": 18768,
          "time": 52.1333985,
          "velocity": 0.7874015748031497
        },
        {
          "duration": 0.11111125000000044,
          "durationTicks": 40,
          "midi": 49,
          "name": "C#3",
          "ticks": 18864,
          "time": 52.4000655,
          "velocity": 0.7874015748031497
        },
        {
          "duration": 0.11111125000000044,
          "durationTicks": 40,
          "midi": 42,
          "name": "F#2",
          "ticks": 18960,
          "time": 52.666732499999995,
          "velocity": 0.7874015748031497
        },
        {
          "duration": 0.11111124999999333,
          "durationTicks": 40,
          "midi": 42,
          "name": "F#2",
          "ticks": 19056,
          "time": 52.9333995,
          "velocity": 0.7874015748031497
        },
        {
          "duration": 0.11111124999999333,
          "durationTicks": 40,
          "midi": 45,
          "name": "A2",
          "ticks": 19152,
          "time": 53.2000665,
          "velocity": 0.7874015748031497
        },
        {
          "duration": 0.11111125000000044,
          "durationTicks": 40,
          "midi": 45,
          "name": "A2",
          "ticks": 19248,
          "time": 53.4667335,
          "velocity": 0.7874015748031497
        },
        {
          "duration": 0.11111125000000044,
          "durationTicks": 40,
          "midi": 50,
          "name": "D3",
          "ticks": 19344,
          "time": 53.733400499999995,
          "velocity": 0.7874015748031497
        },
        {
          "duration": 0.11111124999999333,
          "durationTicks": 40,
          "midi": 50,
          "name": "D3",
          "ticks": 19440,
          "time": 54.0000675,
          "velocity": 0.7874015748031497
        },
        {
          "duration": 0.11111124999999333,
          "durationTicks": 40,
          "midi": 49,
          "name": "C#3",
          "ticks": 19536,
          "time": 54.2667345,
          "velocity": 0.7874015748031497
        },
        {
          "duration": 0.11111125000000044,
          "durationTicks": 40,
          "midi": 49,
          "name": "C#3",
          "ticks": 19632,
          "time": 54.5334015,
          "velocity": 0.7874015748031497
        },
        {
          "duration": 0.11111125000000044,
          "durationTicks": 40,
          "midi": 42,
          "name": "F#2",
          "ticks": 19728,
          "time": 54.800068499999995,
          "velocity": 0.7874015748031497
        },
        {
          "duration": 0.11111124999999333,
          "durationTicks": 40,
          "midi": 41,
          "name": "F2",
          "ticks": 19824,
          "time": 55.0667355,
          "velocity": 0.7874015748031497
        },
        {
          "duration": 0.11111124999999333,
          "durationTicks": 40,
          "midi": 40,
          "name": "E2",
          "ticks": 19920,
          "time": 55.3334025,
          "velocity": 0.7874015748031497
        },
        {
          "duration": 0.11111125000000044,
          "durationTicks": 40,
          "midi": 51,
          "name": "D#3",
          "ticks": 20016,
          "time": 55.6000695,
          "velocity": 0.7874015748031497
        },
        {
          "duration": 0.1333334999999991,
          "durationTicks": 48,
          "midi": 50,
          "name": "D3",
          "ticks": 20112,
          "time": 55.866736499999995,
          "velocity": 0.7874015748031497
        },
        {
          "duration": 0.1333334999999991,
          "durationTicks": 48,
          "midi": 50,
          "name": "D3",
          "ticks": 20208,
          "time": 56.1334035,
          "velocity": 0.7874015748031497
        },
        {
          "duration": 0.1333334999999991,
          "durationTicks": 48,
          "midi": 49,
          "name": "C#3",
          "ticks": 20304,
          "time": 56.4000705,
          "velocity": 0.7874015748031497
        },
        {
          "duration": 0.1333334999999991,
          "durationTicks": 48,
          "midi": 49,
          "name": "C#3",
          "ticks": 20400,
          "time": 56.666737499999996,
          "velocity": 0.7874015748031497
        },
        {
          "duration": 0.1333335000000062,
          "durationTicks": 48,
          "midi": 42,
          "name": "F#2",
          "ticks": 20496,
          "time": 56.933404499999995,
          "velocity": 0.7874015748031497
        },
        {
          "duration": 0.1333334999999991,
          "durationTicks": 48,
          "midi": 42,
          "name": "F#2",
          "ticks": 20592,
          "time": 57.2000715,
          "velocity": 0.7874015748031497
        },
        {
          "duration": 0.1333334999999991,
          "durationTicks": 48,
          "midi": 45,
          "name": "A2",
          "ticks": 20688,
          "time": 57.4667385,
          "velocity": 0.7874015748031497
        },
        {
          "duration": 0.1333334999999991,
          "durationTicks": 48,
          "midi": 46,
          "name": "A#2",
          "ticks": 20784,
          "time": 57.733405499999996,
          "velocity": 0.7874015748031497
        },
        {
          "duration": 0.1333334999999991,
          "durationTicks": 48,
          "midi": 47,
          "name": "B2",
          "ticks": 20880,
          "time": 58.000072499999995,
          "velocity": 0.7874015748031497
        },
        {
          "duration": 0.1333334999999991,
          "durationTicks": 48,
          "midi": 47,
          "name": "B2",
          "ticks": 20976,
          "time": 58.2667395,
          "velocity": 0.7874015748031497
        },
        {
          "duration": 0.1333334999999991,
          "durationTicks": 48,
          "midi": 44,
          "name": "G#2",
          "ticks": 21072,
          "time": 58.5334065,
          "velocity": 0.7874015748031497
        },
        {
          "duration": 0.1333334999999991,
          "durationTicks": 48,
          "midi": 44,
          "name": "G#2",
          "ticks": 21168,
          "time": 58.800073499999996,
          "velocity": 0.7874015748031497
        },
        {
          "duration": 0.1333334999999991,
          "durationTicks": 48,
          "midi": 49,
          "name": "C#3",
          "ticks": 21216,
          "time": 58.933406999999995,
          "velocity": 0.7874015748031497
        },
        {
          "duration": 0.1333334999999991,
          "durationTicks": 48,
          "midi": 49,
          "name": "C#3",
          "ticks": 21312,
          "time": 59.200074,
          "velocity": 0.7874015748031497
        },
        {
          "duration": 0.1000001250000011,
          "durationTicks": 36,
          "midi": 53,
          "name": "F3",
          "ticks": 21408,
          "time": 59.466741,
          "velocity": 0.7874015748031497
        },
        {
          "duration": 0.1333334999999991,
          "durationTicks": 48,
          "midi": 50,
          "name": "D3",
          "ticks": 21648,
          "time": 60.133408499999994,
          "velocity": 0.7874015748031497
        },
        {
          "duration": 0.1333334999999991,
          "durationTicks": 48,
          "midi": 50,
          "name": "D3",
          "ticks": 21744,
          "time": 60.4000755,
          "velocity": 0.7874015748031497
        },
        {
          "duration": 0.1333334999999991,
          "durationTicks": 48,
          "midi": 49,
          "name": "C#3",
          "ticks": 21840,
          "time": 60.6667425,
          "velocity": 0.7874015748031497
        },
        {
          "duration": 0.1333334999999991,
          "durationTicks": 48,
          "midi": 49,
          "name": "C#3",
          "ticks": 21936,
          "time": 60.933409499999996,
          "velocity": 0.7874015748031497
        },
        {
          "duration": 0.1333335000000062,
          "durationTicks": 48,
          "midi": 42,
          "name": "F#2",
          "ticks": 22032,
          "time": 61.200076499999994,
          "velocity": 0.7874015748031497
        },
        {
          "duration": 0.1333334999999991,
          "durationTicks": 48,
          "midi": 42,
          "name": "F#2",
          "ticks": 22128,
          "time": 61.4667435,
          "velocity": 0.7874015748031497
        },
        {
          "duration": 0.1333334999999991,
          "durationTicks": 48,
          "midi": 45,
          "name": "A2",
          "ticks": 22224,
          "time": 61.7334105,
          "velocity": 0.7874015748031497
        },
        {
          "duration": 0.1333334999999991,
          "durationTicks": 48,
          "midi": 45,
          "name": "A2",
          "ticks": 22320,
          "time": 62.000077499999996,
          "velocity": 0.7874015748031497
        },
        {
          "duration": 0.1333334999999991,
          "durationTicks": 48,
          "midi": 50,
          "name": "D3",
          "ticks": 22416,
          "time": 62.266744499999994,
          "velocity": 0.7874015748031497
        },
        {
          "duration": 0.1333334999999991,
          "durationTicks": 48,
          "midi": 50,
          "name": "D3",
          "ticks": 22512,
          "time": 62.5334115,
          "velocity": 0.7874015748031497
        },
        {
          "duration": 0.1333334999999991,
          "durationTicks": 48,
          "midi": 49,
          "name": "C#3",
          "ticks": 22608,
          "time": 62.8000785,
          "velocity": 0.7874015748031497
        },
        {
          "duration": 0.1333334999999991,
          "durationTicks": 48,
          "midi": 49,
          "name": "C#3",
          "ticks": 22704,
          "time": 63.066745499999996,
          "velocity": 0.7874015748031497
        },
        {
          "duration": 0.1333335000000062,
          "durationTicks": 48,
          "midi": 42,
          "name": "F#2",
          "ticks": 22800,
          "time": 63.333412499999994,
          "velocity": 0.7874015748031497
        },
        {
          "duration": 0.1333334999999991,
          "durationTicks": 48,
          "midi": 41,
          "name": "F2",
          "ticks": 22896,
          "time": 63.6000795,
          "velocity": 0.7874015748031497
        },
        {
          "duration": 0.1333334999999991,
          "durationTicks": 48,
          "midi": 40,
          "name": "E2",
          "ticks": 22992,
          "time": 63.8667465,
          "velocity": 0.7874015748031497
        },
        {
          "duration": 0.133333499999992,
          "durationTicks": 48,
          "midi": 50,
          "name": "D3",
          "ticks": 23184,
          "time": 64.4000805,
          "velocity": 0.7874015748031497
        },
        {
          "duration": 0.133333499999992,
          "durationTicks": 48,
          "midi": 50,
          "name": "D3",
          "ticks": 23280,
          "time": 64.6667475,
          "velocity": 0.7874015748031497
        },
        {
          "duration": 0.133333499999992,
          "durationTicks": 48,
          "midi": 49,
          "name": "C#3",
          "ticks": 23376,
          "time": 64.9334145,
          "velocity": 0.7874015748031497
        },
        {
          "duration": 0.1333335000000062,
          "durationTicks": 48,
          "midi": 49,
          "name": "C#3",
          "ticks": 23472,
          "time": 65.2000815,
          "velocity": 0.7874015748031497
        },
        {
          "duration": 0.1333335000000062,
          "durationTicks": 48,
          "midi": 42,
          "name": "F#2",
          "ticks": 23568,
          "time": 65.4667485,
          "velocity": 0.7874015748031497
        },
        {
          "duration": 0.1333335000000062,
          "durationTicks": 48,
          "midi": 42,
          "name": "F#2",
          "ticks": 23664,
          "time": 65.73341549999999,
          "velocity": 0.7874015748031497
        },
        {
          "duration": 0.1333335000000062,
          "durationTicks": 48,
          "midi": 45,
          "name": "A2",
          "ticks": 23760,
          "time": 66.00008249999999,
          "velocity": 0.7874015748031497
        },
        {
          "duration": 0.133333499999992,
          "durationTicks": 48,
          "midi": 46,
          "name": "A#2",
          "ticks": 23856,
          "time": 66.2667495,
          "velocity": 0.7874015748031497
        },
        {
          "duration": 0.066666749999996,
          "durationTicks": 24,
          "midi": 47,
          "name": "B2",
          "ticks": 23904,
          "time": 66.400083,
          "velocity": 0.7874015748031497
        },
        {
          "duration": 0.066666749999996,
          "durationTicks": 24,
          "midi": 47,
          "name": "B2",
          "ticks": 23952,
          "time": 66.5334165,
          "velocity": 0.7874015748031497
        },
        {
          "duration": 0.06666675000001021,
          "durationTicks": 24,
          "midi": 49,
          "name": "C#3",
          "ticks": 24096,
          "time": 66.93341699999999,
          "velocity": 0.7874015748031497
        },
        {
          "duration": 0.066666749999996,
          "durationTicks": 24,
          "midi": 49,
          "name": "C#3",
          "ticks": 24144,
          "time": 67.0667505,
          "velocity": 0.7874015748031497
        },
        {
          "duration": 0.133333499999992,
          "durationTicks": 48,
          "midi": 42,
          "name": "F#2",
          "ticks": 24288,
          "time": 67.466751,
          "velocity": 0.7874015748031497
        },
        {
          "duration": 0.133333499999992,
          "durationTicks": 48,
          "midi": 49,
          "name": "C#3",
          "ticks": 24384,
          "time": 67.733418,
          "velocity": 0.7874015748031497
        },
        {
          "duration": 0.133333499999992,
          "durationTicks": 48,
          "midi": 42,
          "name": "F#2",
          "ticks": 24480,
          "time": 68.000085,
          "velocity": 0.7874015748031497
        },
        {
          "duration": 0.2666669999999982,
          "durationTicks": 96,
          "midi": 41,
          "name": "F2",
          "ticks": 24576,
          "time": 68.266752,
          "velocity": 0.7874015748031497
        },
        {
          "duration": 0.066666749999996,
          "durationTicks": 24,
          "midi": 47,
          "name": "B2",
          "ticks": 24672,
          "time": 68.533419,
          "velocity": 0.7874015748031497
        },
        {
          "duration": 0.066666749999996,
          "durationTicks": 24,
          "midi": 47,
          "name": "B2",
          "ticks": 24720,
          "time": 68.6667525,
          "velocity": 0.7874015748031497
        },
        {
          "duration": 0.06666675000001021,
          "durationTicks": 24,
          "midi": 49,
          "name": "C#3",
          "ticks": 24864,
          "time": 69.06675299999999,
          "velocity": 0.7874015748031497
        },
        {
          "duration": 0.066666749999996,
          "durationTicks": 24,
          "midi": 49,
          "name": "C#3",
          "ticks": 24912,
          "time": 69.2000865,
          "velocity": 0.7874015748031497
        },
        {
          "duration": 0.2666669999999982,
          "durationTicks": 96,
          "midi": 42,
          "name": "F#2",
          "ticks": 25056,
          "time": 69.600087,
          "velocity": 0.7874015748031497
        },
        {
          "duration": 0.2666669999999982,
          "durationTicks": 96,
          "midi": 49,
          "name": "C#3",
          "ticks": 25152,
          "time": 69.866754,
          "velocity": 0.7874015748031497
        },
        {
          "duration": 0.2666669999999982,
          "durationTicks": 96,
          "midi": 42,
          "name": "F#2",
          "ticks": 25248,
          "time": 70.133421,
          "velocity": 0.7874015748031497
        },
        {
          "duration": 0.5333340000000106,
          "durationTicks": 192,
          "midi": 42,
          "name": "F#2",
          "ticks": 35616,
          "time": 98.93345699999999,
          "velocity": 0.8110236220472441
        },
        {
          "duration": 0.5333339999999964,
          "durationTicks": 192,
          "midi": 41,
          "name": "F2",
          "ticks": 35808,
          "time": 99.466791,
          "velocity": 0.8110236220472441
        },
        {
          "duration": 0.5333339999999964,
          "durationTicks": 192,
          "midi": 44,
          "name": "G#2",
          "ticks": 36000,
          "time": 100.000125,
          "velocity": 0.8110236220472441
        },
        {
          "duration": 0.1333335000000062,
          "durationTicks": 48,
          "midi": 53,
          "name": "F3",
          "ticks": 36192,
          "time": 100.533459,
          "velocity": 0.8110236220472441
        },
        {
          "duration": 0.03888893750000477,
          "durationTicks": 14,
          "midi": 52,
          "name": "E3",
          "ticks": 36216,
          "time": 100.60012574999999,
          "velocity": 0.7244094488188977
        },
        {
          "duration": 0.036111156250001386,
          "durationTicks": 13,
          "midi": 51,
          "name": "D#3",
          "ticks": 36230,
          "time": 100.6390146875,
          "velocity": 0.7007874015748031
        },
        {
          "duration": 0.03888893749999056,
          "durationTicks": 14,
          "midi": 50,
          "name": "D3",
          "ticks": 36243,
          "time": 100.67512584375,
          "velocity": 0.6850393700787402
        },
        {
          "duration": 0.03888893750001898,
          "durationTicks": 14,
          "midi": 49,
          "name": "C#3",
          "ticks": 36257,
          "time": 100.71401478124999,
          "velocity": 0.6614173228346457
        },
        {
          "duration": 0.03888893749999056,
          "durationTicks": 14,
          "midi": 48,
          "name": "C3",
          "ticks": 36271,
          "time": 100.75290371875,
          "velocity": 0.6456692913385826
        },
        {
          "duration": 0.036111156250001386,
          "durationTicks": 13,
          "midi": 47,
          "name": "B2",
          "ticks": 36285,
          "time": 100.79179265625,
          "velocity": 0.6220472440944882
        },
        {
          "duration": 0.03888893750000477,
          "durationTicks": 14,
          "midi": 46,
          "name": "A#2",
          "ticks": 36298,
          "time": 100.8279038125,
          "velocity": 0.6062992125984252
        },
        {
          "duration": 0.03888893749999056,
          "durationTicks": 14,
          "midi": 45,
          "name": "A2",
          "ticks": 36312,
          "time": 100.86679275,
          "velocity": 0.5826771653543307
        },
        {
          "duration": 0.03888893750000477,
          "durationTicks": 14,
          "midi": 44,
          "name": "G#2",
          "ticks": 36326,
          "time": 100.90568168749999,
          "velocity": 0.5669291338582677
        },
        {
          "duration": 0.036111156249987175,
          "durationTicks": 13,
          "midi": 43,
          "name": "G2",
          "ticks": 36340,
          "time": 100.944570625,
          "velocity": 0.5433070866141733
        },
        {
          "duration": 0.03888893750001898,
          "durationTicks": 14,
          "midi": 42,
          "name": "F#2",
          "ticks": 36353,
          "time": 100.98068178124998,
          "velocity": 0.5275590551181102
        },
        {
          "duration": 0.2666669999999982,
          "durationTicks": 96,
          "midi": 35,
          "name": "B1",
          "ticks": 39072,
          "time": 108.533469,
          "velocity": 0.8110236220472441
        },
        {
          "duration": 0.2666669999999982,
          "durationTicks": 96,
          "midi": 47,
          "name": "B2",
          "ticks": 39168,
          "time": 108.800136,
          "velocity": 0.8110236220472441
        },
        {
          "duration": 0.2666669999999982,
          "durationTicks": 96,
          "midi": 46,
          "name": "A#2",
          "ticks": 39264,
          "time": 109.066803,
          "velocity": 0.8110236220472441
        },
        {
          "duration": 0.2666669999999982,
          "durationTicks": 96,
          "midi": 45,
          "name": "A2",
          "ticks": 39360,
          "time": 109.33346999999999,
          "velocity": 0.8110236220472441
        },
        {
          "duration": 0.2666670000000124,
          "durationTicks": 96,
          "midi": 44,
          "name": "G#2",
          "ticks": 39456,
          "time": 109.60013699999999,
          "velocity": 0.8110236220472441
        },
        {
          "duration": 0.2666669999999982,
          "durationTicks": 96,
          "midi": 48,
          "name": "C3",
          "ticks": 39552,
          "time": 109.866804,
          "velocity": 0.8110236220472441
        },
        {
          "duration": 0.2666669999999982,
          "durationTicks": 96,
          "midi": 41,
          "name": "F2",
          "ticks": 39648,
          "time": 110.133471,
          "velocity": 0.8110236220472441
        },
        {
          "duration": 0.5333339999999964,
          "durationTicks": 192,
          "midi": 45,
          "name": "A2",
          "ticks": 39744,
          "time": 110.400138,
          "velocity": 0.8110236220472441
        },
        {
          "duration": 0.11111125000000754,
          "durationTicks": 40,
          "midi": 44,
          "name": "G#2",
          "ticks": 39792,
          "time": 110.53347149999999,
          "velocity": 0.6771653543307087
        },
        {
          "duration": 0.11111125000000754,
          "durationTicks": 40,
          "midi": 43,
          "name": "G2",
          "ticks": 39804,
          "time": 110.56680487499999,
          "velocity": 0.6299212598425197
        },
        {
          "duration": 0.11111124999999333,
          "durationTicks": 40,
          "midi": 42,
          "name": "F#2",
          "ticks": 39816,
          "time": 110.60013825,
          "velocity": 0.5905511811023622
        },
        {
          "duration": 0.11111125000000754,
          "durationTicks": 40,
          "midi": 41,
          "name": "F2",
          "ticks": 39828,
          "time": 110.633471625,
          "velocity": 0.5433070866141733
        },
        {
          "duration": 0.11111125000000754,
          "durationTicks": 40,
          "midi": 40,
          "name": "E2",
          "ticks": 39840,
          "time": 110.666805,
          "velocity": 0.49606299212598426
        },
        {
          "duration": 0.11111125000000754,
          "durationTicks": 40,
          "midi": 39,
          "name": "D#2",
          "ticks": 39852,
          "time": 110.700138375,
          "velocity": 0.44881889763779526
        },
        {
          "duration": 0.11111125000000754,
          "durationTicks": 40,
          "midi": 38,
          "name": "D2",
          "ticks": 39864,
          "time": 110.73347174999999,
          "velocity": 0.4094488188976378
        },
        {
          "duration": 0.11111125000000754,
          "durationTicks": 40,
          "midi": 37,
          "name": "C#2",
          "ticks": 39876,
          "time": 110.76680512499999,
          "velocity": 0.36220472440944884
        },
        {
          "duration": 0.11111125000000754,
          "durationTicks": 40,
          "midi": 36,
          "name": "C2",
          "ticks": 39888,
          "time": 110.80013849999999,
          "velocity": 0.31496062992125984
        },
        {
          "duration": 0.100000124999994,
          "durationTicks": 36,
          "midi": 35,
          "name": "B1",
          "ticks": 39900,
          "time": 110.833471875,
          "velocity": 0.2677165354330709
        },
        {
          "duration": 0.066666749999996,
          "durationTicks": 24,
          "midi": 34,
          "name": "A#1",
          "ticks": 39912,
          "time": 110.86680525,
          "velocity": 0.2283464566929134
        },
        {
          "duration": 0.033333374999998,
          "durationTicks": 12,
          "midi": 33,
          "name": "A1",
          "ticks": 39924,
          "time": 110.900138625,
          "velocity": 0.18110236220472442
        },
        {
          "duration": 0.133333499999992,
          "durationTicks": 48,
          "midi": 42,
          "name": "F#2",
          "ticks": 42048,
          "time": 116.800146,
          "velocity": 0.7874015748031497
        },
        {
          "duration": 0.1333335000000062,
          "durationTicks": 48,
          "midi": 54,
          "name": "F#3",
          "ticks": 42096,
          "time": 116.93347949999999,
          "velocity": 0.7874015748031497
        },
        {
          "duration": 0.133333499999992,
          "durationTicks": 48,
          "midi": 66,
          "name": "F#4",
          "ticks": 42144,
          "time": 117.066813,
          "velocity": 0.7874015748031497
        },
        {
          "duration": 0.1333335000000062,
          "durationTicks": 48,
          "midi": 42,
          "name": "F#2",
          "ticks": 42192,
          "time": 117.20014649999999,
          "velocity": 0.7874015748031497
        },
        {
          "duration": 0.133333499999992,
          "durationTicks": 48,
          "midi": 42,
          "name": "F#2",
          "ticks": 42288,
          "time": 117.4668135,
          "velocity": 0.7874015748031497
        },
        {
          "duration": 0.1333335000000062,
          "durationTicks": 48,
          "midi": 41,
          "name": "F2",
          "ticks": 42336,
          "time": 117.60014699999999,
          "velocity": 0.7874015748031497
        },
        {
          "duration": 0.2666669999999982,
          "durationTicks": 96,
          "midi": 53,
          "name": "F3",
          "ticks": 42432,
          "time": 117.86681399999999,
          "velocity": 0.7874015748031497
        },
        {
          "duration": 0.1333335000000062,
          "durationTicks": 48,
          "midi": 45,
          "name": "A2",
          "ticks": 42528,
          "time": 118.13348099999999,
          "velocity": 0.7874015748031497
        },
        {
          "duration": 0.1333335000000062,
          "durationTicks": 48,
          "midi": 57,
          "name": "A3",
          "ticks": 42576,
          "time": 118.2668145,
          "velocity": 0.7874015748031497
        },
        {
          "duration": 0.133333499999992,
          "durationTicks": 48,
          "midi": 69,
          "name": "A4",
          "ticks": 42624,
          "time": 118.400148,
          "velocity": 0.7874015748031497
        },
        {
          "duration": 0.1333335000000062,
          "durationTicks": 48,
          "midi": 45,
          "name": "A2",
          "ticks": 42672,
          "time": 118.5334815,
          "velocity": 0.7874015748031497
        },
        {
          "duration": 0.1333335000000062,
          "durationTicks": 48,
          "midi": 45,
          "name": "A2",
          "ticks": 42768,
          "time": 118.80014849999999,
          "velocity": 0.7874015748031497
        },
        {
          "duration": 0.2666669999999982,
          "durationTicks": 96,
          "midi": 44,
          "name": "G#2",
          "ticks": 42816,
          "time": 118.933482,
          "velocity": 0.7874015748031497
        },
        {
          "duration": 0.2666669999999982,
          "durationTicks": 96,
          "midi": 56,
          "name": "G#3",
          "ticks": 42912,
          "time": 119.200149,
          "velocity": 0.7874015748031497
        },
        {
          "duration": 0.2666669999999982,
          "durationTicks": 96,
          "midi": 40,
          "name": "E2",
          "ticks": 43008,
          "time": 119.466816,
          "velocity": 0.7874015748031497
        },
        {
          "duration": 0.100000124999994,
          "durationTicks": 36,
          "midi": 37,
          "name": "C#2",
          "ticks": 44592,
          "time": 123.8668215,
          "velocity": 0.7874015748031497
        },
        {
          "duration": 0.10000012500000821,
          "durationTicks": 36,
          "midi": 37,
          "name": "C#2",
          "ticks": 44640,
          "time": 124.00015499999999,
          "velocity": 0.7874015748031497
        },
        {
          "duration": 0.10000012500000821,
          "durationTicks": 36,
          "midi": 37,
          "name": "C#2",
          "ticks": 44736,
          "time": 124.26682199999999,
          "velocity": 0.7874015748031497
        },
        {
          "duration": 0.100000124999994,
          "durationTicks": 36,
          "midi": 37,
          "name": "C#2",
          "ticks": 44784,
          "time": 124.4001555,
          "velocity": 0.7874015748031497
        },
        {
          "duration": 0.2333336250000002,
          "durationTicks": 84,
          "midi": 37,
          "name": "C#2",
          "ticks": 44880,
          "time": 124.6668225,
          "velocity": 0.7874015748031497
        },
        {
          "duration": 0.100000124999994,
          "durationTicks": 36,
          "midi": 37,
          "name": "C#2",
          "ticks": 44976,
          "time": 124.9334895,
          "velocity": 0.7874015748031497
        },
        {
          "duration": 0.100000124999994,
          "durationTicks": 36,
          "midi": 37,
          "name": "C#2",
          "ticks": 45024,
          "time": 125.066823,
          "velocity": 0.7874015748031497
        },
        {
          "duration": 0.10000012500000821,
          "durationTicks": 36,
          "midi": 37,
          "name": "C#2",
          "ticks": 45072,
          "time": 125.20015649999999,
          "velocity": 0.7874015748031497
        },
        {
          "duration": 0.133333499999992,
          "durationTicks": 48,
          "midi": 37,
          "name": "C#2",
          "ticks": 45120,
          "time": 125.33349,
          "velocity": 0.7874015748031497
        },
        {
          "duration": 0.11111124999999333,
          "durationTicks": 40,
          "midi": 50,
          "name": "D3",
          "ticks": 45360,
          "time": 126.0001575,
          "velocity": 0.7874015748031497
        },
        {
          "duration": 0.11111125000000754,
          "durationTicks": 40,
          "midi": 50,
          "name": "D3",
          "ticks": 45456,
          "time": 126.2668245,
          "velocity": 0.7874015748031497
        },
        {
          "duration": 0.11111125000000754,
          "durationTicks": 40,
          "midi": 49,
          "name": "C#3",
          "ticks": 45552,
          "time": 126.5334915,
          "velocity": 0.7874015748031497
        },
        {
          "duration": 0.11111125000000754,
          "durationTicks": 40,
          "midi": 49,
          "name": "C#3",
          "ticks": 45648,
          "time": 126.8001585,
          "velocity": 0.7874015748031497
        },
        {
          "duration": 0.11111125000000754,
          "durationTicks": 40,
          "midi": 42,
          "name": "F#2",
          "ticks": 45744,
          "time": 127.0668255,
          "velocity": 0.7874015748031497
        },
        {
          "duration": 0.11111125000000754,
          "durationTicks": 40,
          "midi": 42,
          "name": "F#2",
          "ticks": 45840,
          "time": 127.33349249999999,
          "velocity": 0.7874015748031497
        },
        {
          "duration": 0.11111125000000754,
          "durationTicks": 40,
          "midi": 45,
          "name": "A2",
          "ticks": 45936,
          "time": 127.60015949999999,
          "velocity": 0.7874015748031497
        },
        {
          "duration": 0.11111125000000754,
          "durationTicks": 40,
          "midi": 45,
          "name": "A2",
          "ticks": 46032,
          "time": 127.86682649999999,
          "velocity": 0.7874015748031497
        },
        {
          "duration": 0.11111125000002176,
          "durationTicks": 40,
          "midi": 50,
          "name": "D3",
          "ticks": 46128,
          "time": 128.1334935,
          "velocity": 0.7874015748031497
        },
        {
          "duration": 0.11111124999999333,
          "durationTicks": 40,
          "midi": 50,
          "name": "D3",
          "ticks": 46224,
          "time": 128.4001605,
          "velocity": 0.7874015748031497
        },
        {
          "duration": 0.11111125000002176,
          "durationTicks": 40,
          "midi": 49,
          "name": "C#3",
          "ticks": 46320,
          "time": 128.66682749999998,
          "velocity": 0.7874015748031497
        },
        {
          "duration": 0.11111124999999333,
          "durationTicks": 40,
          "midi": 49,
          "name": "C#3",
          "ticks": 46416,
          "time": 128.9334945,
          "velocity": 0.7874015748031497
        },
        {
          "duration": 0.11111124999999333,
          "durationTicks": 40,
          "midi": 42,
          "name": "F#2",
          "ticks": 46512,
          "time": 129.2001615,
          "velocity": 0.7874015748031497
        },
        {
          "duration": 0.11111125000002176,
          "durationTicks": 40,
          "midi": 41,
          "name": "F2",
          "ticks": 46608,
          "time": 129.4668285,
          "velocity": 0.7874015748031497
        },
        {
          "duration": 0.11111124999999333,
          "durationTicks": 40,
          "midi": 40,
          "name": "E2",
          "ticks": 46704,
          "time": 129.7334955,
          "velocity": 0.7874015748031497
        },
        {
          "duration": 0.11111125000002176,
          "durationTicks": 40,
          "midi": 51,
          "name": "D#3",
          "ticks": 46800,
          "time": 130.0001625,
          "velocity": 0.7874015748031497
        },
        {
          "duration": 0.133333499999992,
          "durationTicks": 48,
          "midi": 50,
          "name": "D3",
          "ticks": 46896,
          "time": 130.2668295,
          "velocity": 0.7874015748031497
        },
        {
          "duration": 0.13333350000002042,
          "durationTicks": 48,
          "midi": 50,
          "name": "D3",
          "ticks": 46992,
          "time": 130.53349649999998,
          "velocity": 0.7874015748031497
        },
        {
          "duration": 0.133333499999992,
          "durationTicks": 48,
          "midi": 49,
          "name": "C#3",
          "ticks": 47088,
          "time": 130.8001635,
          "velocity": 0.7874015748031497
        },
        {
          "duration": 0.13333350000002042,
          "durationTicks": 48,
          "midi": 49,
          "name": "C#3",
          "ticks": 47184,
          "time": 131.06683049999998,
          "velocity": 0.7874015748031497
        },
        {
          "duration": 0.133333499999992,
          "durationTicks": 48,
          "midi": 42,
          "name": "F#2",
          "ticks": 47280,
          "time": 131.3334975,
          "velocity": 0.7874015748031497
        },
        {
          "duration": 0.133333499999992,
          "durationTicks": 48,
          "midi": 42,
          "name": "F#2",
          "ticks": 47376,
          "time": 131.6001645,
          "velocity": 0.7874015748031497
        },
        {
          "duration": 0.133333499999992,
          "durationTicks": 48,
          "midi": 45,
          "name": "A2",
          "ticks": 47472,
          "time": 131.8668315,
          "velocity": 0.7874015748031497
        },
        {
          "duration": 0.133333499999992,
          "durationTicks": 48,
          "midi": 46,
          "name": "A#2",
          "ticks": 47568,
          "time": 132.1334985,
          "velocity": 0.7874015748031497
        },
        {
          "duration": 0.13333350000002042,
          "durationTicks": 48,
          "midi": 47,
          "name": "B2",
          "ticks": 47664,
          "time": 132.40016549999999,
          "velocity": 0.7874015748031497
        },
        {
          "duration": 0.133333499999992,
          "durationTicks": 48,
          "midi": 47,
          "name": "B2",
          "ticks": 47760,
          "time": 132.6668325,
          "velocity": 0.7874015748031497
        },
        {
          "duration": 0.13333350000002042,
          "durationTicks": 48,
          "midi": 44,
          "name": "G#2",
          "ticks": 47856,
          "time": 132.93349949999998,
          "velocity": 0.7874015748031497
        },
        {
          "duration": 0.133333499999992,
          "durationTicks": 48,
          "midi": 44,
          "name": "G#2",
          "ticks": 47952,
          "time": 133.2001665,
          "velocity": 0.7874015748031497
        },
        {
          "duration": 0.13333350000002042,
          "durationTicks": 48,
          "midi": 49,
          "name": "C#3",
          "ticks": 48000,
          "time": 133.3335,
          "velocity": 0.7874015748031497
        },
        {
          "duration": 0.133333499999992,
          "durationTicks": 48,
          "midi": 49,
          "name": "C#3",
          "ticks": 48096,
          "time": 133.600167,
          "velocity": 0.7874015748031497
        },
        {
          "duration": 0.10000012500000821,
          "durationTicks": 36,
          "midi": 53,
          "name": "F3",
          "ticks": 48192,
          "time": 133.86683399999998,
          "velocity": 0.7874015748031497
        },
        {
          "duration": 0.133333499999992,
          "durationTicks": 48,
          "midi": 50,
          "name": "D3",
          "ticks": 48432,
          "time": 134.5335015,
          "velocity": 0.7874015748031497
        },
        {
          "duration": 0.13333350000002042,
          "durationTicks": 48,
          "midi": 50,
          "name": "D3",
          "ticks": 48528,
          "time": 134.80016849999998,
          "velocity": 0.7874015748031497
        },
        {
          "duration": 0.133333499999992,
          "durationTicks": 48,
          "midi": 49,
          "name": "C#3",
          "ticks": 48624,
          "time": 135.0668355,
          "velocity": 0.7874015748031497
        },
        {
          "duration": 0.13333350000002042,
          "durationTicks": 48,
          "midi": 49,
          "name": "C#3",
          "ticks": 48720,
          "time": 135.33350249999998,
          "velocity": 0.7874015748031497
        },
        {
          "duration": 0.133333499999992,
          "durationTicks": 48,
          "midi": 42,
          "name": "F#2",
          "ticks": 48816,
          "time": 135.6001695,
          "velocity": 0.7874015748031497
        },
        {
          "duration": 0.133333499999992,
          "durationTicks": 48,
          "midi": 42,
          "name": "F#2",
          "ticks": 48912,
          "time": 135.8668365,
          "velocity": 0.7874015748031497
        },
        {
          "duration": 0.133333499999992,
          "durationTicks": 48,
          "midi": 45,
          "name": "A2",
          "ticks": 49008,
          "time": 136.1335035,
          "velocity": 0.7874015748031497
        },
        {
          "duration": 0.133333499999992,
          "durationTicks": 48,
          "midi": 45,
          "name": "A2",
          "ticks": 49104,
          "time": 136.4001705,
          "velocity": 0.7874015748031497
        },
        {
          "duration": 0.13333350000002042,
          "durationTicks": 48,
          "midi": 50,
          "name": "D3",
          "ticks": 49200,
          "time": 136.66683749999999,
          "velocity": 0.7874015748031497
        },
        {
          "duration": 0.133333499999992,
          "durationTicks": 48,
          "midi": 50,
          "name": "D3",
          "ticks": 49296,
          "time": 136.9335045,
          "velocity": 0.7874015748031497
        },
        {
          "duration": 0.13333350000002042,
          "durationTicks": 48,
          "midi": 49,
          "name": "C#3",
          "ticks": 49392,
          "time": 137.20017149999998,
          "velocity": 0.7874015748031497
        },
        {
          "duration": 0.133333499999992,
          "durationTicks": 48,
          "midi": 49,
          "name": "C#3",
          "ticks": 49488,
          "time": 137.4668385,
          "velocity": 0.7874015748031497
        },
        {
          "duration": 0.133333499999992,
          "durationTicks": 48,
          "midi": 42,
          "name": "F#2",
          "ticks": 49584,
          "time": 137.7335055,
          "velocity": 0.7874015748031497
        },
        {
          "duration": 0.133333499999992,
          "durationTicks": 48,
          "midi": 41,
          "name": "F2",
          "ticks": 49680,
          "time": 138.0001725,
          "velocity": 0.7874015748031497
        },
        {
          "duration": 0.133333499999992,
          "durationTicks": 48,
          "midi": 40,
          "name": "E2",
          "ticks": 49776,
          "time": 138.2668395,
          "velocity": 0.7874015748031497
        },
        {
          "duration": 0.133333499999992,
          "durationTicks": 48,
          "midi": 50,
          "name": "D3",
          "ticks": 49968,
          "time": 138.8001735,
          "velocity": 0.7874015748031497
        },
        {
          "duration": 0.13333350000002042,
          "durationTicks": 48,
          "midi": 50,
          "name": "D3",
          "ticks": 50064,
          "time": 139.06684049999998,
          "velocity": 0.7874015748031497
        },
        {
          "duration": 0.133333499999992,
          "durationTicks": 48,
          "midi": 49,
          "name": "C#3",
          "ticks": 50160,
          "time": 139.3335075,
          "velocity": 0.7874015748031497
        },
        {
          "duration": 0.13333350000002042,
          "durationTicks": 48,
          "midi": 49,
          "name": "C#3",
          "ticks": 50256,
          "time": 139.60017449999998,
          "velocity": 0.7874015748031497
        },
        {
          "duration": 0.133333499999992,
          "durationTicks": 48,
          "midi": 42,
          "name": "F#2",
          "ticks": 50352,
          "time": 139.8668415,
          "velocity": 0.7874015748031497
        },
        {
          "duration": 0.133333499999992,
          "durationTicks": 48,
          "midi": 42,
          "name": "F#2",
          "ticks": 50448,
          "time": 140.1335085,
          "velocity": 0.7874015748031497
        },
        {
          "duration": 0.133333499999992,
          "durationTicks": 48,
          "midi": 45,
          "name": "A2",
          "ticks": 50544,
          "time": 140.4001755,
          "velocity": 0.7874015748031497
        },
        {
          "duration": 0.133333499999992,
          "durationTicks": 48,
          "midi": 46,
          "name": "A#2",
          "ticks": 50640,
          "time": 140.6668425,
          "velocity": 0.7874015748031497
        },
        {
          "duration": 0.066666749999996,
          "durationTicks": 24,
          "midi": 47,
          "name": "B2",
          "ticks": 50688,
          "time": 140.800176,
          "velocity": 0.7874015748031497
        },
        {
          "duration": 0.066666749999996,
          "durationTicks": 24,
          "midi": 47,
          "name": "B2",
          "ticks": 50736,
          "time": 140.93350949999999,
          "velocity": 0.7874015748031497
        },
        {
          "duration": 0.066666749999996,
          "durationTicks": 24,
          "midi": 49,
          "name": "C#3",
          "ticks": 50880,
          "time": 141.33351,
          "velocity": 0.7874015748031497
        },
        {
          "duration": 0.06666675000002442,
          "durationTicks": 24,
          "midi": 49,
          "name": "C#3",
          "ticks": 50928,
          "time": 141.46684349999998,
          "velocity": 0.7874015748031497
        },
        {
          "duration": 0.13333350000002042,
          "durationTicks": 48,
          "midi": 42,
          "name": "F#2",
          "ticks": 51072,
          "time": 141.866844,
          "velocity": 0.7874015748031497
        },
        {
          "duration": 0.133333499999992,
          "durationTicks": 48,
          "midi": 49,
          "name": "C#3",
          "ticks": 51168,
          "time": 142.133511,
          "velocity": 0.7874015748031497
        },
        {
          "duration": 0.13333350000002042,
          "durationTicks": 48,
          "midi": 42,
          "name": "F#2",
          "ticks": 51264,
          "time": 142.40017799999998,
          "velocity": 0.7874015748031497
        },
        {
          "duration": 0.2666670000000124,
          "durationTicks": 96,
          "midi": 41,
          "name": "F2",
          "ticks": 51360,
          "time": 142.666845,
          "velocity": 0.7874015748031497
        },
        {
          "duration": 0.066666749999996,
          "durationTicks": 24,
          "midi": 47,
          "name": "B2",
          "ticks": 51456,
          "time": 142.933512,
          "velocity": 0.7874015748031497
        },
        {
          "duration": 0.066666749999996,
          "durationTicks": 24,
          "midi": 47,
          "name": "B2",
          "ticks": 51504,
          "time": 143.0668455,
          "velocity": 0.7874015748031497
        },
        {
          "duration": 0.066666749999996,
          "durationTicks": 24,
          "midi": 49,
          "name": "C#3",
          "ticks": 51648,
          "time": 143.466846,
          "velocity": 0.7874015748031497
        },
        {
          "duration": 0.066666749999996,
          "durationTicks": 24,
          "midi": 49,
          "name": "C#3",
          "ticks": 51696,
          "time": 143.6001795,
          "velocity": 0.7874015748031497
        },
        {
          "duration": 0.266666999999984,
          "durationTicks": 96,
          "midi": 42,
          "name": "F#2",
          "ticks": 51840,
          "time": 144.00018,
          "velocity": 0.7874015748031497
        },
        {
          "duration": 0.2666670000000124,
          "durationTicks": 96,
          "midi": 49,
          "name": "C#3",
          "ticks": 51936,
          "time": 144.26684699999998,
          "velocity": 0.7874015748031497
        },
        {
          "duration": 0.266666999999984,
          "durationTicks": 96,
          "midi": 42,
          "name": "F#2",
          "ticks": 52032,
          "time": 144.533514,
          "velocity": 0.7874015748031497
        },
        {
          "duration": 0.02222225000002709,
          "durationTicks": 8,
          "midi": 30,
          "name": "F#1",
          "ticks": 52128,
          "time": 144.80018099999998,
          "velocity": 0.7874015748031497
        },
        {
          "duration": 0.022222249999970245,
          "durationTicks": 8,
          "midi": 29,
          "name": "F1",
          "ticks": 52136,
          "time": 144.82240325,
          "velocity": 0.7874015748031497
        },
        {
          "duration": 0.02222225000002709,
          "durationTicks": 8,
          "midi": 28,
          "name": "E1",
          "ticks": 52144,
          "time": 144.84462549999998,
          "velocity": 0.7244094488188977
        },
        {
          "duration": 0.02222225000002709,
          "durationTicks": 8,
          "midi": 30,
          "name": "F#1",
          "ticks": 52144,
          "time": 144.84462549999998,
          "velocity": 0.7874015748031497
        },
        {
          "duration": 0.022222249999998667,
          "durationTicks": 8,
          "midi": 27,
          "name": "D#1",
          "ticks": 52152,
          "time": 144.86684775,
          "velocity": 0.7007874015748031
        },
        {
          "duration": 0.022222249999970245,
          "durationTicks": 8,
          "midi": 26,
          "name": "D1",
          "ticks": 52160,
          "time": 144.88907,
          "velocity": 0.6850393700787402
        },
        {
          "duration": 0.022222249999970245,
          "durationTicks": 8,
          "midi": 30,
          "name": "F#1",
          "ticks": 52160,
          "time": 144.88907,
          "velocity": 0.7874015748031497
        },
        {
          "duration": 0.02222225000002709,
          "durationTicks": 8,
          "midi": 25,
          "name": "C#1",
          "ticks": 52168,
          "time": 144.91129224999997,
          "velocity": 0.6692913385826772
        },
        {
          "duration": 0.022222249999998667,
          "durationTicks": 8,
          "midi": 24,
          "name": "C1",
          "ticks": 52176,
          "time": 144.9335145,
          "velocity": 0.6535433070866141
        },
        {
          "duration": 0.022222249999998667,
          "durationTicks": 8,
          "midi": 30,
          "name": "F#1",
          "ticks": 52176,
          "time": 144.9335145,
          "velocity": 0.7874015748031497
        },
        {
          "duration": 0.022222249999970245,
          "durationTicks": 8,
          "midi": 23,
          "name": "B0",
          "ticks": 52184,
          "time": 144.95573675,
          "velocity": 0.6377952755905512
        },
        {
          "duration": 0.02222225000002709,
          "durationTicks": 8,
          "midi": 22,
          "name": "A#0",
          "ticks": 52192,
          "time": 144.97795899999997,
          "velocity": 0.6220472440944882
        },
        {
          "duration": 0.02222225000002709,
          "durationTicks": 8,
          "midi": 30,
          "name": "F#1",
          "ticks": 52192,
          "time": 144.97795899999997,
          "velocity": 0.7874015748031497
        },
        {
          "duration": 0.022222249999998667,
          "durationTicks": 8,
          "midi": 21,
          "name": "A0",
          "ticks": 52200,
          "time": 145.00018125,
          "velocity": 0.6062992125984252
        },
        {
          "duration": 0.022222249999998667,
          "durationTicks": 8,
          "midi": 20,
          "name": "G#0",
          "ticks": 52208,
          "time": 145.0224035,
          "velocity": 0.5826771653543307
        },
        {
          "duration": 0.022222249999998667,
          "durationTicks": 8,
          "midi": 30,
          "name": "F#1",
          "ticks": 52208,
          "time": 145.0224035,
          "velocity": 0.7874015748031497
        },
        {
          "duration": 0.022222249999998667,
          "durationTicks": 8,
          "midi": 19,
          "name": "G0",
          "ticks": 52216,
          "time": 145.04462575,
          "velocity": 0.5669291338582677
        },
        {
          "duration": 0.133333499999992,
          "durationTicks": 48,
          "midi": 50,
          "name": "D3",
          "ticks": 52224,
          "time": 145.066848,
          "velocity": 0.7874015748031497
        },
        {
          "duration": 0.13333350000002042,
          "durationTicks": 48,
          "midi": 50,
          "name": "D3",
          "ticks": 52272,
          "time": 145.20018149999999,
          "velocity": 0.7874015748031497
        },
        {
          "duration": 0.133333499999992,
          "durationTicks": 48,
          "midi": 50,
          "name": "D3",
          "ticks": 52320,
          "time": 145.333515,
          "velocity": 0.7874015748031497
        },
        {
          "duration": 0.133333499999992,
          "durationTicks": 48,
          "midi": 50,
          "name": "D3",
          "ticks": 52368,
          "time": 145.4668485,
          "velocity": 0.7874015748031497
        },
        {
          "duration": 0.133333499999992,
          "durationTicks": 48,
          "midi": 50,
          "name": "D3",
          "ticks": 52416,
          "time": 145.600182,
          "velocity": 0.7874015748031497
        },
        {
          "duration": 0.13333350000002042,
          "durationTicks": 48,
          "midi": 52,
          "name": "E3",
          "ticks": 52464,
          "time": 145.73351549999998,
          "velocity": 0.7874015748031497
        },
        {
          "duration": 0.133333499999992,
          "durationTicks": 48,
          "midi": 50,
          "name": "D3",
          "ticks": 52512,
          "time": 145.866849,
          "velocity": 0.7874015748031497
        },
        {
          "duration": 0.2666670000000124,
          "durationTicks": 96,
          "midi": 49,
          "name": "C#3",
          "ticks": 52560,
          "time": 146.0001825,
          "velocity": 0.7874015748031497
        },
        {
          "duration": 0.133333499999992,
          "durationTicks": 48,
          "midi": 44,
          "name": "G#2",
          "ticks": 52656,
          "time": 146.2668495,
          "velocity": 0.7874015748031497
        },
        {
          "duration": 0.133333499999992,
          "durationTicks": 48,
          "midi": 53,
          "name": "F3",
          "ticks": 52704,
          "time": 146.400183,
          "velocity": 0.7874015748031497
        },
        {
          "duration": 0.133333499999992,
          "durationTicks": 48,
          "midi": 49,
          "name": "C#3",
          "ticks": 52752,
          "time": 146.5335165,
          "velocity": 0.7874015748031497
        },
        {
          "duration": 0.13333350000002042,
          "durationTicks": 48,
          "midi": 56,
          "name": "G#3",
          "ticks": 52800,
          "time": 146.66684999999998,
          "velocity": 0.7874015748031497
        },
        {
          "duration": 0.133333499999992,
          "durationTicks": 48,
          "midi": 49,
          "name": "C#3",
          "ticks": 52848,
          "time": 146.8001835,
          "velocity": 0.7874015748031497
        },
        {
          "duration": 0.133333499999992,
          "durationTicks": 48,
          "midi": 59,
          "name": "B3",
          "ticks": 52896,
          "time": 146.933517,
          "velocity": 0.7874015748031497
        },
        {
          "duration": 0.133333499999992,
          "durationTicks": 48,
          "midi": 56,
          "name": "G#3",
          "ticks": 52944,
          "time": 147.0668505,
          "velocity": 0.7874015748031497
        },
        {
          "duration": 0.13333350000002042,
          "durationTicks": 48,
          "midi": 45,
          "name": "A2",
          "ticks": 52992,
          "time": 147.20018399999998,
          "velocity": 0.7874015748031497
        },
        {
          "duration": 0.133333499999992,
          "durationTicks": 48,
          "midi": 54,
          "name": "F#3",
          "ticks": 53040,
          "time": 147.3335175,
          "velocity": 0.7874015748031497
        },
        {
          "duration": 0.133333499999992,
          "durationTicks": 48,
          "midi": 54,
          "name": "F#3",
          "ticks": 53088,
          "time": 147.466851,
          "velocity": 0.7874015748031497
        },
        {
          "duration": 0.2666670000000124,
          "durationTicks": 96,
          "midi": 52,
          "name": "E3",
          "ticks": 53136,
          "time": 147.60018449999998,
          "velocity": 0.7874015748031497
        },
        {
          "duration": 0.133333499999992,
          "durationTicks": 48,
          "midi": 51,
          "name": "D#3",
          "ticks": 53232,
          "time": 147.8668515,
          "velocity": 0.7874015748031497
        },
        {
          "duration": 0.133333499999992,
          "durationTicks": 48,
          "midi": 50,
          "name": "D3",
          "ticks": 53280,
          "time": 148.000185,
          "velocity": 0.7874015748031497
        },
        {
          "duration": 0.2666670000000124,
          "durationTicks": 96,
          "midi": 49,
          "name": "C#3",
          "ticks": 53328,
          "time": 148.13351849999998,
          "velocity": 0.7874015748031497
        },
        {
          "duration": 0.133333499999992,
          "durationTicks": 48,
          "midi": 44,
          "name": "G#2",
          "ticks": 53424,
          "time": 148.4001855,
          "velocity": 0.7874015748031497
        },
        {
          "duration": 0.13333350000002042,
          "durationTicks": 48,
          "midi": 41,
          "name": "F2",
          "ticks": 53472,
          "time": 148.53351899999998,
          "velocity": 0.7874015748031497
        },
        {
          "duration": 0.133333499999992,
          "durationTicks": 48,
          "midi": 44,
          "name": "G#2",
          "ticks": 53520,
          "time": 148.6668525,
          "velocity": 0.7874015748031497
        },
        {
          "duration": 0.133333499999992,
          "durationTicks": 48,
          "midi": 49,
          "name": "C#3",
          "ticks": 53568,
          "time": 148.800186,
          "velocity": 0.7874015748031497
        },
        {
          "duration": 0.133333499999992,
          "durationTicks": 48,
          "midi": 50,
          "name": "D3",
          "ticks": 53616,
          "time": 148.9335195,
          "velocity": 0.7874015748031497
        },
        {
          "duration": 0.13333350000002042,
          "durationTicks": 48,
          "midi": 52,
          "name": "E3",
          "ticks": 53664,
          "time": 149.06685299999998,
          "velocity": 0.7874015748031497
        },
        {
          "duration": 0.133333499999992,
          "durationTicks": 48,
          "midi": 53,
          "name": "F3",
          "ticks": 53712,
          "time": 149.2001865,
          "velocity": 0.7874015748031497
        },
        {
          "duration": 0.133333499999992,
          "durationTicks": 48,
          "midi": 54,
          "name": "F#3",
          "ticks": 53760,
          "time": 149.33352,
          "velocity": 0.7874015748031497
        },
        {
          "duration": 0.13333350000002042,
          "durationTicks": 48,
          "midi": 50,
          "name": "D3",
          "ticks": 53808,
          "time": 149.46685349999998,
          "velocity": 0.7874015748031497
        },
        {
          "duration": 0.133333499999992,
          "durationTicks": 48,
          "midi": 54,
          "name": "F#3",
          "ticks": 53856,
          "time": 149.600187,
          "velocity": 0.7874015748031497
        },
        {
          "duration": 0.133333499999992,
          "durationTicks": 48,
          "midi": 56,
          "name": "G#3",
          "ticks": 53904,
          "time": 149.7335205,
          "velocity": 0.7874015748031497
        },
        {
          "duration": 0.133333499999992,
          "durationTicks": 48,
          "midi": 57,
          "name": "A3",
          "ticks": 53952,
          "time": 149.866854,
          "velocity": 0.7874015748031497
        },
        {
          "duration": 0.13333350000002042,
          "durationTicks": 48,
          "midi": 62,
          "name": "D4",
          "ticks": 54000,
          "time": 150.00018749999998,
          "velocity": 0.7874015748031497
        },
        {
          "duration": 0.03333337500001221,
          "durationTicks": 12,
          "midi": 59,
          "name": "B3",
          "ticks": 54096,
          "time": 150.2668545,
          "velocity": 0.7874015748031497
        },
        {
          "duration": 0.2333336250000002,
          "durationTicks": 84,
          "midi": 60,
          "name": "C4",
          "ticks": 54108,
          "time": 150.300187875,
          "velocity": 0.7874015748031497
        },
        {
          "duration": 0.133333499999992,
          "durationTicks": 48,
          "midi": 61,
          "name": "C#4",
          "ticks": 54192,
          "time": 150.5335215,
          "velocity": 0.7874015748031497
        },
        {
          "duration": 0.133333499999992,
          "durationTicks": 48,
          "midi": 59,
          "name": "B3",
          "ticks": 54240,
          "time": 150.666855,
          "velocity": 0.7874015748031497
        },
        {
          "duration": 0.2666670000000124,
          "durationTicks": 96,
          "midi": 49,
          "name": "C#3",
          "ticks": 54288,
          "time": 150.8001885,
          "velocity": 0.7874015748031497
        },
        {
          "duration": 0.133333499999992,
          "durationTicks": 48,
          "midi": 44,
          "name": "G#2",
          "ticks": 54384,
          "time": 151.0668555,
          "velocity": 0.7874015748031497
        },
        {
          "duration": 0.133333499999992,
          "durationTicks": 48,
          "midi": 57,
          "name": "A3",
          "ticks": 54432,
          "time": 151.200189,
          "velocity": 0.7874015748031497
        },
        {
          "duration": 0.13333350000002042,
          "durationTicks": 48,
          "midi": 46,
          "name": "A#2",
          "ticks": 54480,
          "time": 151.3335225,
          "velocity": 0.7874015748031497
        },
        {
          "duration": 0.133333499999992,
          "durationTicks": 48,
          "midi": 47,
          "name": "B2",
          "ticks": 54576,
          "time": 151.6001895,
          "velocity": 0.7874015748031497
        },
        {
          "duration": 0.13333350000002042,
          "durationTicks": 48,
          "midi": 47,
          "name": "B2",
          "ticks": 54672,
          "time": 151.86685649999998,
          "velocity": 0.7874015748031497
        },
        {
          "duration": 0.133333499999992,
          "durationTicks": 48,
          "midi": 49,
          "name": "C#3",
          "ticks": 54768,
          "time": 152.1335235,
          "velocity": 0.7874015748031497
        },
        {
          "duration": 0.13333350000002042,
          "durationTicks": 48,
          "midi": 49,
          "name": "C#3",
          "ticks": 54864,
          "time": 152.40019049999998,
          "velocity": 0.7874015748031497
        },
        {
          "duration": 0.133333499999992,
          "durationTicks": 48,
          "midi": 50,
          "name": "D3",
          "ticks": 54960,
          "time": 152.6668575,
          "velocity": 0.7874015748031497
        },
        {
          "duration": 0.133333499999992,
          "durationTicks": 48,
          "midi": 50,
          "name": "D3",
          "ticks": 55056,
          "time": 152.9335245,
          "velocity": 0.7874015748031497
        },
        {
          "duration": 0.133333499999992,
          "durationTicks": 48,
          "midi": 50,
          "name": "D3",
          "ticks": 55152,
          "time": 153.2001915,
          "velocity": 0.7874015748031497
        },
        {
          "duration": 0.133333499999992,
          "durationTicks": 48,
          "midi": 50,
          "name": "D3",
          "ticks": 55248,
          "time": 153.4668585,
          "velocity": 0.7874015748031497
        },
        {
          "duration": 0.13333350000002042,
          "durationTicks": 48,
          "midi": 47,
          "name": "B2",
          "ticks": 55344,
          "time": 153.73352549999998,
          "velocity": 0.7874015748031497
        },
        {
          "duration": 0.133333499999992,
          "durationTicks": 48,
          "midi": 47,
          "name": "B2",
          "ticks": 55440,
          "time": 154.0001925,
          "velocity": 0.7874015748031497
        },
        {
          "duration": 0.13333350000002042,
          "durationTicks": 48,
          "midi": 49,
          "name": "C#3",
          "ticks": 55536,
          "time": 154.26685949999998,
          "velocity": 0.7874015748031497
        },
        {
          "duration": 0.133333499999992,
          "durationTicks": 48,
          "midi": 49,
          "name": "C#3",
          "ticks": 55632,
          "time": 154.5335265,
          "velocity": 0.7874015748031497
        },
        {
          "duration": 0.133333499999992,
          "durationTicks": 48,
          "midi": 50,
          "name": "D3",
          "ticks": 55728,
          "time": 154.8001935,
          "velocity": 0.7874015748031497
        },
        {
          "duration": 0.133333499999992,
          "durationTicks": 48,
          "midi": 50,
          "name": "D3",
          "ticks": 55824,
          "time": 155.0668605,
          "velocity": 0.7874015748031497
        },
        {
          "duration": 0.133333499999992,
          "durationTicks": 48,
          "midi": 50,
          "name": "D3",
          "ticks": 55920,
          "time": 155.3335275,
          "velocity": 0.7874015748031497
        },
        {
          "duration": 0.133333499999992,
          "durationTicks": 48,
          "midi": 50,
          "name": "D3",
          "ticks": 56016,
          "time": 155.6001945,
          "velocity": 0.7874015748031497
        },
        {
          "duration": 0.133333499999992,
          "durationTicks": 48,
          "midi": 49,
          "name": "C#3",
          "ticks": 56112,
          "time": 155.8668615,
          "velocity": 0.7874015748031497
        },
        {
          "duration": 0.13333350000002042,
          "durationTicks": 48,
          "midi": 49,
          "name": "C#3",
          "ticks": 56208,
          "time": 156.13352849999998,
          "velocity": 0.7874015748031497
        },
        {
          "duration": 0.133333499999992,
          "durationTicks": 48,
          "midi": 49,
          "name": "C#3",
          "ticks": 56304,
          "time": 156.4001955,
          "velocity": 0.7874015748031497
        },
        {
          "duration": 0.13333350000002042,
          "durationTicks": 48,
          "midi": 49,
          "name": "C#3",
          "ticks": 56400,
          "time": 156.66686249999998,
          "velocity": 0.7874015748031497
        },
        {
          "duration": 0.133333499999992,
          "durationTicks": 48,
          "midi": 49,
          "name": "C#3",
          "ticks": 56496,
          "time": 156.9335295,
          "velocity": 0.7874015748031497
        },
        {
          "duration": 0.133333499999992,
          "durationTicks": 48,
          "midi": 49,
          "name": "C#3",
          "ticks": 56592,
          "time": 157.2001965,
          "velocity": 0.7874015748031497
        },
        {
          "duration": 0.133333499999992,
          "durationTicks": 48,
          "midi": 49,
          "name": "C#3",
          "ticks": 56688,
          "time": 157.4668635,
          "velocity": 0.7874015748031497
        },
        {
          "duration": 0.133333499999992,
          "durationTicks": 48,
          "midi": 49,
          "name": "C#3",
          "ticks": 56784,
          "time": 157.7335305,
          "velocity": 0.7874015748031497
        },
        {
          "duration": 0.13333350000002042,
          "durationTicks": 48,
          "midi": 46,
          "name": "A#2",
          "ticks": 56880,
          "time": 158.00019749999998,
          "velocity": 0.7874015748031497
        },
        {
          "duration": 0.133333499999992,
          "durationTicks": 48,
          "midi": 46,
          "name": "A#2",
          "ticks": 56976,
          "time": 158.2668645,
          "velocity": 0.7874015748031497
        },
        {
          "duration": 0.13333350000002042,
          "durationTicks": 48,
          "midi": 46,
          "name": "A#2",
          "ticks": 57072,
          "time": 158.53353149999998,
          "velocity": 0.7874015748031497
        },
        {
          "duration": 0.133333499999992,
          "durationTicks": 48,
          "midi": 46,
          "name": "A#2",
          "ticks": 57168,
          "time": 158.8001985,
          "velocity": 0.7874015748031497
        },
        {
          "duration": 0.133333499999992,
          "durationTicks": 48,
          "midi": 46,
          "name": "A#2",
          "ticks": 57264,
          "time": 159.0668655,
          "velocity": 0.7874015748031497
        },
        {
          "duration": 0.133333499999992,
          "durationTicks": 48,
          "midi": 46,
          "name": "A#2",
          "ticks": 57360,
          "time": 159.3335325,
          "velocity": 0.7874015748031497
        },
        {
          "duration": 0.133333499999992,
          "durationTicks": 48,
          "midi": 46,
          "name": "A#2",
          "ticks": 57456,
          "time": 159.6001995,
          "velocity": 0.7874015748031497
        },
        {
          "duration": 0.13333350000002042,
          "durationTicks": 48,
          "midi": 46,
          "name": "A#2",
          "ticks": 57552,
          "time": 159.8668665,
          "velocity": 0.7874015748031497
        },
        {
          "duration": 0.10000012500000821,
          "durationTicks": 36,
          "midi": 46,
          "name": "A#2",
          "ticks": 61104,
          "time": 169.7335455,
          "velocity": 0.7874015748031497
        },
        {
          "duration": 0.10000012500000821,
          "durationTicks": 36,
          "midi": 46,
          "name": "A#2",
          "ticks": 61152,
          "time": 169.86687899999998,
          "velocity": 0.7874015748031497
        },
        {
          "duration": 0.10000012500000821,
          "durationTicks": 36,
          "midi": 46,
          "name": "A#2",
          "ticks": 61248,
          "time": 170.133546,
          "velocity": 0.7874015748031497
        },
        {
          "duration": 0.10000012500000821,
          "durationTicks": 36,
          "midi": 46,
          "name": "A#2",
          "ticks": 61296,
          "time": 170.2668795,
          "velocity": 0.7874015748031497
        },
        {
          "duration": 0.2333336250000002,
          "durationTicks": 84,
          "midi": 46,
          "name": "A#2",
          "ticks": 61392,
          "time": 170.5335465,
          "velocity": 0.7874015748031497
        },
        {
          "duration": 0.10000012500000821,
          "durationTicks": 36,
          "midi": 46,
          "name": "A#2",
          "ticks": 61488,
          "time": 170.80021349999998,
          "velocity": 0.7874015748031497
        },
        {
          "duration": 0.10000012499997979,
          "durationTicks": 36,
          "midi": 46,
          "name": "A#2",
          "ticks": 61536,
          "time": 170.933547,
          "velocity": 0.7874015748031497
        },
        {
          "duration": 0.10000012500000821,
          "durationTicks": 36,
          "midi": 46,
          "name": "A#2",
          "ticks": 61584,
          "time": 171.0668805,
          "velocity": 0.7874015748031497
        },
        {
          "duration": 0.133333499999992,
          "durationTicks": 48,
          "midi": 49,
          "name": "C#3",
          "ticks": 63168,
          "time": 175.466886,
          "velocity": 0.7874015748031497
        },
        {
          "duration": 0.133333499999992,
          "durationTicks": 48,
          "midi": 48,
          "name": "C3",
          "ticks": 63240,
          "time": 175.66688625,
          "velocity": 0.7874015748031497
        },
        {
          "duration": 0.133333499999992,
          "durationTicks": 48,
          "midi": 48,
          "name": "C3",
          "ticks": 63312,
          "time": 175.8668865,
          "velocity": 0.7874015748031497
        },
        {
          "duration": 0.266666999999984,
          "durationTicks": 96,
          "midi": 47,
          "name": "B2",
          "ticks": 63456,
          "time": 176.266887,
          "velocity": 0.7874015748031497
        },
        {
          "duration": 0.2666670000000124,
          "durationTicks": 96,
          "midi": 46,
          "name": "A#2",
          "ticks": 63648,
          "time": 176.800221,
          "velocity": 0.7874015748031497
        },
        {
          "duration": 0.2666670000000124,
          "durationTicks": 96,
          "midi": 39,
          "name": "D#2",
          "ticks": 63840,
          "time": 177.333555,
          "velocity": 0.7874015748031497
        },
        {
          "duration": 0.2666670000000124,
          "durationTicks": 96,
          "midi": 43,
          "name": "G2",
          "ticks": 64032,
          "time": 177.866889,
          "velocity": 0.7874015748031497
        },
        {
          "duration": 0.2666670000000124,
          "durationTicks": 96,
          "midi": 44,
          "name": "G#2",
          "ticks": 64224,
          "time": 178.40022299999998,
          "velocity": 0.7874015748031497
        },
        {
          "duration": 0.13333350000002042,
          "durationTicks": 48,
          "midi": 41,
          "name": "F2",
          "ticks": 64416,
          "time": 178.93355699999998,
          "velocity": 0.7874015748031497
        },
        {
          "duration": 0.133333499999992,
          "durationTicks": 48,
          "midi": 45,
          "name": "A2",
          "ticks": 64464,
          "time": 179.0668905,
          "velocity": 0.7874015748031497
        },
        {
          "duration": 0.133333499999992,
          "durationTicks": 48,
          "midi": 46,
          "name": "A#2",
          "ticks": 64512,
          "time": 179.200224,
          "velocity": 0.7874015748031497
        },
        {
          "duration": 0.133333499999992,
          "durationTicks": 48,
          "midi": 46,
          "name": "A#2",
          "ticks": 64608,
          "time": 179.466891,
          "velocity": 0.7874015748031497
        },
        {
          "duration": 0.133333499999992,
          "durationTicks": 48,
          "midi": 47,
          "name": "B2",
          "ticks": 64704,
          "time": 179.733558,
          "velocity": 0.7874015748031497
        },
        {
          "duration": 0.133333499999992,
          "durationTicks": 48,
          "midi": 47,
          "name": "B2",
          "ticks": 64800,
          "time": 180.000225,
          "velocity": 0.7874015748031497
        },
        {
          "duration": 0.13333350000002042,
          "durationTicks": 48,
          "midi": 48,
          "name": "C3",
          "ticks": 64896,
          "time": 180.26689199999998,
          "velocity": 0.7874015748031497
        },
        {
          "duration": 0.133333499999992,
          "durationTicks": 48,
          "midi": 48,
          "name": "C3",
          "ticks": 64992,
          "time": 180.533559,
          "velocity": 0.7874015748031497
        },
        {
          "duration": 0.13333350000002042,
          "durationTicks": 48,
          "midi": 49,
          "name": "C#3",
          "ticks": 65088,
          "time": 180.80022599999998,
          "velocity": 0.7874015748031497
        },
        {
          "duration": 0.133333499999992,
          "durationTicks": 48,
          "midi": 49,
          "name": "C#3",
          "ticks": 65184,
          "time": 181.066893,
          "velocity": 0.7874015748031497
        },
        {
          "duration": 0.05555562500001088,
          "durationTicks": 20,
          "midi": 50,
          "name": "D3",
          "ticks": 65280,
          "time": 181.33355999999998,
          "velocity": 0.7716535433070866
        },
        {
          "duration": 0.055555624999982456,
          "durationTicks": 20,
          "midi": 49,
          "name": "C#3",
          "ticks": 65300,
          "time": 181.389115625,
          "velocity": 0.7480314960629921
        },
        {
          "duration": 0.05555562500001088,
          "durationTicks": 20,
          "midi": 48,
          "name": "C3",
          "ticks": 65320,
          "time": 181.44467124999997,
          "velocity": 0.7244094488188977
        },
        {
          "duration": 0.05555562500001088,
          "durationTicks": 20,
          "midi": 47,
          "name": "B2",
          "ticks": 65340,
          "time": 181.50022687499998,
          "velocity": 0.6929133858267716
        },
        {
          "duration": 0.055555624999982456,
          "durationTicks": 20,
          "midi": 46,
          "name": "A#2",
          "ticks": 65360,
          "time": 181.5557825,
          "velocity": 0.6692913385826772
        },
        {
          "duration": 0.05555562500001088,
          "durationTicks": 20,
          "midi": 45,
          "name": "A2",
          "ticks": 65380,
          "time": 181.61133812499997,
          "velocity": 0.6377952755905512
        },
        {
          "duration": 0.05555562500001088,
          "durationTicks": 20,
          "midi": 44,
          "name": "G#2",
          "ticks": 65400,
          "time": 181.66689374999999,
          "velocity": 0.6141732283464567
        },
        {
          "duration": 0.055555624999982456,
          "durationTicks": 20,
          "midi": 43,
          "name": "G2",
          "ticks": 65420,
          "time": 181.722449375,
          "velocity": 0.5826771653543307
        },
        {
          "duration": 0.05555562500001088,
          "durationTicks": 20,
          "midi": 42,
          "name": "F#2",
          "ticks": 65440,
          "time": 181.77800499999998,
          "velocity": 0.5590551181102362
        },
        {
          "duration": 0.05277784374999328,
          "durationTicks": 19,
          "midi": 41,
          "name": "F2",
          "ticks": 65460,
          "time": 181.833560625,
          "velocity": 0.5275590551181102
        },
        {
          "duration": 0.05555562500001088,
          "durationTicks": 20,
          "midi": 40,
          "name": "E2",
          "ticks": 65479,
          "time": 181.88633846874998,
          "velocity": 0.5039370078740157
        },
        {
          "duration": 0.05555562500001088,
          "durationTicks": 20,
          "midi": 39,
          "name": "D#2",
          "ticks": 65499,
          "time": 181.94189409375,
          "velocity": 0.48031496062992124
        },
        {
          "duration": 0.055555624999982456,
          "durationTicks": 20,
          "midi": 38,
          "name": "D2",
          "ticks": 65519,
          "time": 181.99744971875,
          "velocity": 0.44881889763779526
        },
        {
          "duration": 0.05555562500001088,
          "durationTicks": 20,
          "midi": 37,
          "name": "C#2",
          "ticks": 65539,
          "time": 182.05300534375,
          "velocity": 0.4251968503937008
        },
        {
          "duration": 0.05555562500001088,
          "durationTicks": 20,
          "midi": 36,
          "name": "C2",
          "ticks": 65559,
          "time": 182.10856096875,
          "velocity": 0.3937007874015748
        },
        {
          "duration": 0.055555624999982456,
          "durationTicks": 20,
          "midi": 35,
          "name": "B1",
          "ticks": 65579,
          "time": 182.16411659375,
          "velocity": 0.3700787401574803
        },
        {
          "duration": 0.05555562500001088,
          "durationTicks": 20,
          "midi": 34,
          "name": "A#1",
          "ticks": 65599,
          "time": 182.21967221875,
          "velocity": 0.3464566929133858
        },
        {
          "duration": 0.05555562500001088,
          "durationTicks": 20,
          "midi": 33,
          "name": "A1",
          "ticks": 65619,
          "time": 182.27522784375,
          "velocity": 0.31496062992125984
        },
        {
          "duration": 0.11111124999999333,
          "durationTicks": 40,
          "midi": 51,
          "name": "D#3",
          "ticks": 66096,
          "time": 183.60022949999998,
          "velocity": 0.7874015748031497
        },
        {
          "duration": 0.11111124999999333,
          "durationTicks": 40,
          "midi": 51,
          "name": "D#3",
          "ticks": 66192,
          "time": 183.8668965,
          "velocity": 0.7874015748031497
        },
        {
          "duration": 0.11111124999999333,
          "durationTicks": 40,
          "midi": 50,
          "name": "D3",
          "ticks": 66288,
          "time": 184.13356349999998,
          "velocity": 0.7874015748031497
        },
        {
          "duration": 0.11111124999999333,
          "durationTicks": 40,
          "midi": 50,
          "name": "D3",
          "ticks": 66384,
          "time": 184.4002305,
          "velocity": 0.7874015748031497
        },
        {
          "duration": 0.11111124999996491,
          "durationTicks": 40,
          "midi": 43,
          "name": "G2",
          "ticks": 66480,
          "time": 184.6668975,
          "velocity": 0.7874015748031497
        },
        {
          "duration": 0.11111124999999333,
          "durationTicks": 40,
          "midi": 43,
          "name": "G2",
          "ticks": 66576,
          "time": 184.9335645,
          "velocity": 0.7874015748031497
        },
        {
          "duration": 0.11111124999999333,
          "durationTicks": 40,
          "midi": 46,
          "name": "A#2",
          "ticks": 66672,
          "time": 185.2002315,
          "velocity": 0.7874015748031497
        },
        {
          "duration": 0.11111124999999333,
          "durationTicks": 40,
          "midi": 46,
          "name": "A#2",
          "ticks": 66768,
          "time": 185.46689849999999,
          "velocity": 0.7874015748031497
        },
        {
          "duration": 0.11111124999999333,
          "durationTicks": 40,
          "midi": 51,
          "name": "D#3",
          "ticks": 66864,
          "time": 185.7335655,
          "velocity": 0.7874015748031497
        },
        {
          "duration": 0.11111124999999333,
          "durationTicks": 40,
          "midi": 51,
          "name": "D#3",
          "ticks": 66960,
          "time": 186.00023249999998,
          "velocity": 0.7874015748031497
        },
        {
          "duration": 0.11111124999999333,
          "durationTicks": 40,
          "midi": 50,
          "name": "D3",
          "ticks": 67056,
          "time": 186.2668995,
          "velocity": 0.7874015748031497
        },
        {
          "duration": 0.11111124999999333,
          "durationTicks": 40,
          "midi": 50,
          "name": "D3",
          "ticks": 67152,
          "time": 186.53356649999998,
          "velocity": 0.7874015748031497
        },
        {
          "duration": 0.11111124999999333,
          "durationTicks": 40,
          "midi": 43,
          "name": "G2",
          "ticks": 67248,
          "time": 186.8002335,
          "velocity": 0.7874015748031497
        },
        {
          "duration": 0.11111124999996491,
          "durationTicks": 40,
          "midi": 42,
          "name": "F#2",
          "ticks": 67344,
          "time": 187.0669005,
          "velocity": 0.7874015748031497
        },
        {
          "duration": 0.11111124999999333,
          "durationTicks": 40,
          "midi": 41,
          "name": "F2",
          "ticks": 67440,
          "time": 187.3335675,
          "velocity": 0.7874015748031497
        },
        {
          "duration": 0.11111124999999333,
          "durationTicks": 40,
          "midi": 52,
          "name": "E3",
          "ticks": 67536,
          "time": 187.6002345,
          "velocity": 0.7874015748031497
        },
        {
          "duration": 0.13333350000002042,
          "durationTicks": 48,
          "midi": 51,
          "name": "D#3",
          "ticks": 67632,
          "time": 187.86690149999998,
          "velocity": 0.7874015748031497
        },
        {
          "duration": 0.133333499999992,
          "durationTicks": 48,
          "midi": 51,
          "name": "D#3",
          "ticks": 67728,
          "time": 188.1335685,
          "velocity": 0.7874015748031497
        },
        {
          "duration": 0.13333350000002042,
          "durationTicks": 48,
          "midi": 50,
          "name": "D3",
          "ticks": 67824,
          "time": 188.40023549999998,
          "velocity": 0.7874015748031497
        },
        {
          "duration": 0.133333499999992,
          "durationTicks": 48,
          "midi": 50,
          "name": "D3",
          "ticks": 67920,
          "time": 188.6669025,
          "velocity": 0.7874015748031497
        },
        {
          "duration": 0.133333499999992,
          "durationTicks": 48,
          "midi": 43,
          "name": "G2",
          "ticks": 68016,
          "time": 188.9335695,
          "velocity": 0.7874015748031497
        },
        {
          "duration": 0.133333499999992,
          "durationTicks": 48,
          "midi": 43,
          "name": "G2",
          "ticks": 68112,
          "time": 189.2002365,
          "velocity": 0.7874015748031497
        },
        {
          "duration": 0.133333499999992,
          "durationTicks": 48,
          "midi": 46,
          "name": "A#2",
          "ticks": 68208,
          "time": 189.4669035,
          "velocity": 0.7874015748031497
        },
        {
          "duration": 0.133333499999992,
          "durationTicks": 48,
          "midi": 47,
          "name": "B2",
          "ticks": 68304,
          "time": 189.73357049999998,
          "velocity": 0.7874015748031497
        },
        {
          "duration": 0.133333499999992,
          "durationTicks": 48,
          "midi": 48,
          "name": "C3",
          "ticks": 68400,
          "time": 190.0002375,
          "velocity": 0.7874015748031497
        },
        {
          "duration": 0.13333350000002042,
          "durationTicks": 48,
          "midi": 48,
          "name": "C3",
          "ticks": 68496,
          "time": 190.26690449999998,
          "velocity": 0.7874015748031497
        },
        {
          "duration": 0.133333499999992,
          "durationTicks": 48,
          "midi": 45,
          "name": "A2",
          "ticks": 68592,
          "time": 190.5335715,
          "velocity": 0.7874015748031497
        },
        {
          "duration": 0.13333350000002042,
          "durationTicks": 48,
          "midi": 45,
          "name": "A2",
          "ticks": 68688,
          "time": 190.80023849999998,
          "velocity": 0.7874015748031497
        },
        {
          "duration": 0.133333499999992,
          "durationTicks": 48,
          "midi": 50,
          "name": "D3",
          "ticks": 68736,
          "time": 190.933572,
          "velocity": 0.7874015748031497
        },
        {
          "duration": 0.13333350000002042,
          "durationTicks": 48,
          "midi": 50,
          "name": "D3",
          "ticks": 68832,
          "time": 191.20023899999998,
          "velocity": 0.7874015748031497
        },
        {
          "duration": 0.10000012500000821,
          "durationTicks": 36,
          "midi": 54,
          "name": "F#3",
          "ticks": 68928,
          "time": 191.466906,
          "velocity": 0.7874015748031497
        },
        {
          "duration": 0.13333350000002042,
          "durationTicks": 48,
          "midi": 51,
          "name": "D#3",
          "ticks": 69168,
          "time": 192.13357349999998,
          "velocity": 0.7874015748031497
        },
        {
          "duration": 0.133333499999992,
          "durationTicks": 48,
          "midi": 51,
          "name": "D#3",
          "ticks": 69264,
          "time": 192.4002405,
          "velocity": 0.7874015748031497
        },
        {
          "duration": 0.13333350000002042,
          "durationTicks": 48,
          "midi": 50,
          "name": "D3",
          "ticks": 69360,
          "time": 192.66690749999998,
          "velocity": 0.7874015748031497
        },
        {
          "duration": 0.133333499999992,
          "durationTicks": 48,
          "midi": 50,
          "name": "D3",
          "ticks": 69456,
          "time": 192.9335745,
          "velocity": 0.7874015748031497
        },
        {
          "duration": 0.133333499999992,
          "durationTicks": 48,
          "midi": 43,
          "name": "G2",
          "ticks": 69552,
          "time": 193.2002415,
          "velocity": 0.7874015748031497
        },
        {
          "duration": 0.133333499999992,
          "durationTicks": 48,
          "midi": 43,
          "name": "G2",
          "ticks": 69648,
          "time": 193.4669085,
          "velocity": 0.7874015748031497
        },
        {
          "duration": 0.133333499999992,
          "durationTicks": 48,
          "midi": 46,
          "name": "A#2",
          "ticks": 69744,
          "time": 193.7335755,
          "velocity": 0.7874015748031497
        },
        {
          "duration": 0.13333350000002042,
          "durationTicks": 48,
          "midi": 46,
          "name": "A#2",
          "ticks": 69840,
          "time": 194.00024249999998,
          "velocity": 0.7874015748031497
        },
        {
          "duration": 0.133333499999992,
          "durationTicks": 48,
          "midi": 51,
          "name": "D#3",
          "ticks": 69936,
          "time": 194.2669095,
          "velocity": 0.7874015748031497
        },
        {
          "duration": 0.13333350000002042,
          "durationTicks": 48,
          "midi": 51,
          "name": "D#3",
          "ticks": 70032,
          "time": 194.53357649999998,
          "velocity": 0.7874015748031497
        },
        {
          "duration": 0.133333499999992,
          "durationTicks": 48,
          "midi": 50,
          "name": "D3",
          "ticks": 70128,
          "time": 194.8002435,
          "velocity": 0.7874015748031497
        },
        {
          "duration": 0.13333350000002042,
          "durationTicks": 48,
          "midi": 50,
          "name": "D3",
          "ticks": 70224,
          "time": 195.06691049999998,
          "velocity": 0.7874015748031497
        },
        {
          "duration": 0.133333499999992,
          "durationTicks": 48,
          "midi": 43,
          "name": "G2",
          "ticks": 70320,
          "time": 195.3335775,
          "velocity": 0.7874015748031497
        },
        {
          "duration": 0.133333499999992,
          "durationTicks": 48,
          "midi": 42,
          "name": "F#2",
          "ticks": 70416,
          "time": 195.6002445,
          "velocity": 0.7874015748031497
        },
        {
          "duration": 0.133333499999992,
          "durationTicks": 48,
          "midi": 41,
          "name": "F2",
          "ticks": 70512,
          "time": 195.8669115,
          "velocity": 0.7874015748031497
        },
        {
          "duration": 0.13333350000002042,
          "durationTicks": 48,
          "midi": 51,
          "name": "D#3",
          "ticks": 70704,
          "time": 196.40024549999998,
          "velocity": 0.7874015748031497
        },
        {
          "duration": 0.133333499999992,
          "durationTicks": 48,
          "midi": 51,
          "name": "D#3",
          "ticks": 70800,
          "time": 196.6669125,
          "velocity": 0.7874015748031497
        },
        {
          "duration": 0.13333350000002042,
          "durationTicks": 48,
          "midi": 50,
          "name": "D3",
          "ticks": 70896,
          "time": 196.93357949999998,
          "velocity": 0.7874015748031497
        },
        {
          "duration": 0.133333499999992,
          "durationTicks": 48,
          "midi": 50,
          "name": "D3",
          "ticks": 70992,
          "time": 197.2002465,
          "velocity": 0.7874015748031497
        },
        {
          "duration": 0.133333499999992,
          "durationTicks": 48,
          "midi": 43,
          "name": "G2",
          "ticks": 71088,
          "time": 197.4669135,
          "velocity": 0.7874015748031497
        },
        {
          "duration": 0.133333499999992,
          "durationTicks": 48,
          "midi": 43,
          "name": "G2",
          "ticks": 71184,
          "time": 197.7335805,
          "velocity": 0.7874015748031497
        },
        {
          "duration": 0.133333499999992,
          "durationTicks": 48,
          "midi": 46,
          "name": "A#2",
          "ticks": 71280,
          "time": 198.0002475,
          "velocity": 0.7874015748031497
        },
        {
          "duration": 0.133333499999992,
          "durationTicks": 48,
          "midi": 47,
          "name": "B2",
          "ticks": 71376,
          "time": 198.26691449999998,
          "velocity": 0.7874015748031497
        },
        {
          "duration": 0.06666675000002442,
          "durationTicks": 24,
          "midi": 48,
          "name": "C3",
          "ticks": 71424,
          "time": 198.40024799999998,
          "velocity": 0.7874015748031497
        },
        {
          "duration": 0.066666749999996,
          "durationTicks": 24,
          "midi": 48,
          "name": "C3",
          "ticks": 71472,
          "time": 198.5335815,
          "velocity": 0.7874015748031497
        },
        {
          "duration": 0.066666749999996,
          "durationTicks": 24,
          "midi": 50,
          "name": "D3",
          "ticks": 71616,
          "time": 198.933582,
          "velocity": 0.7874015748031497
        },
        {
          "duration": 0.066666749999996,
          "durationTicks": 24,
          "midi": 50,
          "name": "D3",
          "ticks": 71664,
          "time": 199.0669155,
          "velocity": 0.7874015748031497
        },
        {
          "duration": 0.133333499999992,
          "durationTicks": 48,
          "midi": 43,
          "name": "G2",
          "ticks": 71808,
          "time": 199.466916,
          "velocity": 0.7874015748031497
        },
        {
          "duration": 0.13333350000002042,
          "durationTicks": 48,
          "midi": 50,
          "name": "D3",
          "ticks": 71904,
          "time": 199.73358299999998,
          "velocity": 0.7874015748031497
        },
        {
          "duration": 0.133333499999992,
          "durationTicks": 48,
          "midi": 43,
          "name": "G2",
          "ticks": 72000,
          "time": 200.00025,
          "velocity": 0.7874015748031497
        },
        {
          "duration": 0.2666670000000124,
          "durationTicks": 96,
          "midi": 42,
          "name": "F#2",
          "ticks": 72096,
          "time": 200.26691699999998,
          "velocity": 0.7874015748031497
        },
        {
          "duration": 0.066666749999996,
          "durationTicks": 24,
          "midi": 48,
          "name": "C3",
          "ticks": 72192,
          "time": 200.533584,
          "velocity": 0.7874015748031497
        },
        {
          "duration": 0.066666749999996,
          "durationTicks": 24,
          "midi": 48,
          "name": "C3",
          "ticks": 72240,
          "time": 200.66691749999998,
          "velocity": 0.7874015748031497
        },
        {
          "duration": 0.066666749999996,
          "durationTicks": 24,
          "midi": 50,
          "name": "D3",
          "ticks": 72384,
          "time": 201.066918,
          "velocity": 0.7874015748031497
        },
        {
          "duration": 0.06666675000002442,
          "durationTicks": 24,
          "midi": 50,
          "name": "D3",
          "ticks": 72432,
          "time": 201.20025149999998,
          "velocity": 0.7874015748031497
        },
        {
          "duration": 0.2666670000000124,
          "durationTicks": 96,
          "midi": 43,
          "name": "G2",
          "ticks": 72576,
          "time": 201.60025199999998,
          "velocity": 0.7874015748031497
        },
        {
          "duration": 0.266666999999984,
          "durationTicks": 96,
          "midi": 50,
          "name": "D3",
          "ticks": 72672,
          "time": 201.866919,
          "velocity": 0.7874015748031497
        },
        {
          "duration": 0.2666670000000124,
          "durationTicks": 96,
          "midi": 43,
          "name": "G2",
          "ticks": 72768,
          "time": 202.13358599999998,
          "velocity": 0.7874015748031497
        },
        {
          "duration": 0.133333499999992,
          "durationTicks": 48,
          "midi": 38,
          "name": "D2",
          "ticks": 73008,
          "time": 202.8002535,
          "velocity": 0.7716535433070866
        },
        {
          "duration": 0.13333350000002042,
          "durationTicks": 48,
          "midi": 38,
          "name": "D2",
          "ticks": 73104,
          "time": 203.06692049999998,
          "velocity": 0.7716535433070866
        },
        {
          "duration": 0.133333499999992,
          "durationTicks": 48,
          "midi": 38,
          "name": "D2",
          "ticks": 73200,
          "time": 203.3335875,
          "velocity": 0.7716535433070866
        },
        {
          "duration": 0.13333350000002042,
          "durationTicks": 48,
          "midi": 38,
          "name": "D2",
          "ticks": 73296,
          "time": 203.60025449999998,
          "velocity": 0.7716535433070866
        },
        {
          "duration": 0.133333499999992,
          "durationTicks": 48,
          "midi": 38,
          "name": "D2",
          "ticks": 73392,
          "time": 203.8669215,
          "velocity": 0.7716535433070866
        },
        {
          "duration": 0.133333499999992,
          "durationTicks": 48,
          "midi": 38,
          "name": "D2",
          "ticks": 73488,
          "time": 204.1335885,
          "velocity": 0.7716535433070866
        },
        {
          "duration": 0.133333499999992,
          "durationTicks": 48,
          "midi": 38,
          "name": "D2",
          "ticks": 73584,
          "time": 204.4002555,
          "velocity": 0.7716535433070866
        },
        {
          "duration": 0.133333499999992,
          "durationTicks": 48,
          "midi": 38,
          "name": "D2",
          "ticks": 73680,
          "time": 204.6669225,
          "velocity": 0.7716535433070866
        },
        {
          "duration": 0.13333350000002042,
          "durationTicks": 48,
          "midi": 38,
          "name": "D2",
          "ticks": 73776,
          "time": 204.93358949999998,
          "velocity": 0.7716535433070866
        },
        {
          "duration": 0.133333499999992,
          "durationTicks": 48,
          "midi": 38,
          "name": "D2",
          "ticks": 73872,
          "time": 205.2002565,
          "velocity": 0.7716535433070866
        },
        {
          "duration": 0.13333350000002042,
          "durationTicks": 48,
          "midi": 38,
          "name": "D2",
          "ticks": 73968,
          "time": 205.46692349999998,
          "velocity": 0.7716535433070866
        },
        {
          "duration": 0.133333499999992,
          "durationTicks": 48,
          "midi": 38,
          "name": "D2",
          "ticks": 74064,
          "time": 205.7335905,
          "velocity": 0.7716535433070866
        },
        {
          "duration": 0.133333499999992,
          "durationTicks": 48,
          "midi": 38,
          "name": "D2",
          "ticks": 74160,
          "time": 206.0002575,
          "velocity": 0.7716535433070866
        },
        {
          "duration": 0.133333499999992,
          "durationTicks": 48,
          "midi": 38,
          "name": "D2",
          "ticks": 74256,
          "time": 206.2669245,
          "velocity": 0.7716535433070866
        },
        {
          "duration": 0.133333499999992,
          "durationTicks": 48,
          "midi": 38,
          "name": "D2",
          "ticks": 74352,
          "time": 206.5335915,
          "velocity": 0.7716535433070866
        },
        {
          "duration": 0.133333499999992,
          "durationTicks": 48,
          "midi": 38,
          "name": "D2",
          "ticks": 74448,
          "time": 206.80025849999998,
          "velocity": 0.7716535433070866
        },
        {
          "duration": 0.13333350000002042,
          "durationTicks": 48,
          "midi": 38,
          "name": "D2",
          "ticks": 74640,
          "time": 207.33359249999998,
          "velocity": 0.7716535433070866
        },
        {
          "duration": 0.133333499999992,
          "durationTicks": 48,
          "midi": 38,
          "name": "D2",
          "ticks": 74736,
          "time": 207.6002595,
          "velocity": 0.7716535433070866
        },
        {
          "duration": 0.13333350000002042,
          "durationTicks": 48,
          "midi": 38,
          "name": "D2",
          "ticks": 74832,
          "time": 207.86692649999998,
          "velocity": 0.7716535433070866
        },
        {
          "duration": 0.133333499999992,
          "durationTicks": 48,
          "midi": 38,
          "name": "D2",
          "ticks": 74928,
          "time": 208.1335935,
          "velocity": 0.7716535433070866
        },
        {
          "duration": 0.133333499999992,
          "durationTicks": 48,
          "midi": 38,
          "name": "D2",
          "ticks": 75024,
          "time": 208.4002605,
          "velocity": 0.7716535433070866
        },
        {
          "duration": 0.133333499999992,
          "durationTicks": 48,
          "midi": 38,
          "name": "D2",
          "ticks": 75120,
          "time": 208.66692749999999,
          "velocity": 0.7716535433070866
        },
        {
          "duration": 0.133333499999992,
          "durationTicks": 48,
          "midi": 38,
          "name": "D2",
          "ticks": 75216,
          "time": 208.9335945,
          "velocity": 0.7716535433070866
        },
        {
          "duration": 0.13333350000002042,
          "durationTicks": 48,
          "midi": 38,
          "name": "D2",
          "ticks": 75312,
          "time": 209.20026149999998,
          "velocity": 0.7716535433070866
        },
        {
          "duration": 0.133333499999992,
          "durationTicks": 48,
          "midi": 38,
          "name": "D2",
          "ticks": 75408,
          "time": 209.4669285,
          "velocity": 0.7716535433070866
        },
        {
          "duration": 0.13333350000002042,
          "durationTicks": 48,
          "midi": 38,
          "name": "D2",
          "ticks": 75504,
          "time": 209.73359549999998,
          "velocity": 0.7716535433070866
        },
        {
          "duration": 0.133333499999992,
          "durationTicks": 48,
          "midi": 38,
          "name": "D2",
          "ticks": 75600,
          "time": 210.0002625,
          "velocity": 0.7716535433070866
        },
        {
          "duration": 0.12765950000002135,
          "durationTicks": 48,
          "midi": 43,
          "name": "G2",
          "ticks": 79104,
          "time": 219.1325979583333,
          "velocity": 0.7874015748031497
        },
        {
          "duration": 0.13215850000000273,
          "durationTicks": 48,
          "midi": 50,
          "name": "D3",
          "ticks": 79200,
          "time": 219.3879169583333,
          "velocity": 0.7874015748031497
        },
        {
          "duration": 0.13330902083330898,
          "durationTicks": 48,
          "midi": 43,
          "name": "G2",
          "ticks": 79296,
          "time": 219.6522339583333,
          "velocity": 0.7874015748031497
        }
      ],
      "endOfTrackTicks": 82491
    },
    {
      "channel": 6,
      "controlChanges": {
        "6": [
          {
            "number": 6,
            "ticks": 0,
            "time": 0,
            "value": 0.09448818897637795
          },
          {
            "number": 6,
            "ticks": 0,
            "time": 0,
            "value": 0.09448818897637795
          },
          {
            "number": 6,
            "ticks": 0,
            "time": 0,
            "value": 0.09448818897637795
          },
          {
            "number": 6,
            "ticks": 82466,
            "time": 228.45777604166662,
            "value": 0.09448818897637795
          },
          {
            "number": 6,
            "ticks": 82491,
            "time": 228.52722057291663,
            "value": 0.09448818897637795
          }
        ],
        "7": [
          {
            "number": 7,
            "ticks": 0,
            "time": 0,
            "value": 0.7874015748031497
          },
          {
            "number": 7,
            "ticks": 0,
            "time": 0,
            "value": 0.7874015748031497
          },
          {
            "number": 7,
            "ticks": 0,
            "time": 0,
            "value": 0.7874015748031497
          },
          {
            "number": 7,
            "ticks": 0,
            "time": 0,
            "value": 0.7874015748031497
          },
          {
            "number": 7,
            "ticks": 82466,
            "time": 228.45777604166662,
            "value": 0.7874015748031497
          },
          {
            "number": 7,
            "ticks": 82491,
            "time": 228.52722057291663,
            "value": 0.7874015748031497
          }
        ],
        "10": [
          {
            "number": 10,
            "ticks": 0,
            "time": 0,
            "value": 0.5039370078740157
          },
          {
            "number": 10,
            "ticks": 0,
            "time": 0,
            "value": 0.5039370078740157
          },
          {
            "number": 10,
            "ticks": 0,
            "time": 0,
            "value": 0.5039370078740157
          },
          {
            "number": 10,
            "ticks": 0,
            "time": 0,
            "value": 0.5039370078740157
          },
          {
            "number": 10,
            "ticks": 82466,
            "time": 228.45777604166662,
            "value": 0.5039370078740157
          },
          {
            "number": 10,
            "ticks": 82491,
            "time": 228.52722057291663,
            "value": 0.5039370078740157
          }
        ],
        "100": [
          {
            "number": 100,
            "ticks": 0,
            "time": 0,
            "value": 0
          },
          {
            "number": 100,
            "ticks": 0,
            "time": 0,
            "value": 0
          },
          {
            "number": 100,
            "ticks": 0,
            "time": 0,
            "value": 0
          },
          {
            "number": 100,
            "ticks": 82466,
            "time": 228.45777604166662,
            "value": 0
          },
          {
            "number": 100,
            "ticks": 82491,
            "time": 228.52722057291663,
            "value": 0
          }
        ],
        "101": [
          {
            "number": 101,
            "ticks": 0,
            "time": 0,
            "value": 0
          },
          {
            "number": 101,
            "ticks": 0,
            "time": 0,
            "value": 0
          },
          {
            "number": 101,
            "ticks": 0,
            "time": 0,
            "value": 0
          },
          {
            "number": 101,
            "ticks": 82466,
            "time": 228.45777604166662,
            "value": 0
          },
          {
            "number": 101,
            "ticks": 82491,
            "time": 228.52722057291663,
            "value": 0
          }
        ]
      },
      "pitchBends": [
        {
          "ticks": 0,
          "time": 0,
          "value": 0
        },
        {
          "ticks": 0,
          "time": 0,
          "value": 0
        },
        {
          "ticks": 0,
          "time": 0,
          "value": 0
        },
        {
          "ticks": 0,
          "time": 0,
          "value": 0
        },
        {
          "ticks": 82466,
          "time": 228.45777604166662,
          "value": 0
        },
        {
          "ticks": 82491,
          "time": 228.52722057291663,
          "value": 0
        }
      ],
      "instrument": {
        "family": "piano",
        "number": 0,
        "name": "acoustic grand piano"
      },
      "name": "Drum",
      "notes": [
        {
          "duration": 0.1333335,
          "durationTicks": 48,
          "midi": 27,
          "name": "D#1",
          "ticks": 192,
          "time": 0.533334,
          "velocity": 0.47244094488188976
        },
        {
          "duration": 0.1333335000000001,
          "durationTicks": 48,
          "midi": 27,
          "name": "D#1",
          "ticks": 337,
          "time": 0.9361122812499999,
          "velocity": 0.47244094488188976
        },
        {
          "duration": 0.1333335,
          "durationTicks": 48,
          "midi": 27,
          "name": "D#1",
          "ticks": 576,
          "time": 1.600002,
          "velocity": 0.47244094488188976
        },
        {
          "duration": 0.13333349999999955,
          "durationTicks": 48,
          "midi": 27,
          "name": "D#1",
          "ticks": 721,
          "time": 2.00278028125,
          "velocity": 0.47244094488188976
        },
        {
          "duration": 0.1333335,
          "durationTicks": 48,
          "midi": 27,
          "name": "D#1",
          "ticks": 960,
          "time": 2.66667,
          "velocity": 0.47244094488188976
        },
        {
          "duration": 0.1333335,
          "durationTicks": 48,
          "midi": 27,
          "name": "D#1",
          "ticks": 1105,
          "time": 3.0694482812499997,
          "velocity": 0.47244094488188976
        },
        {
          "duration": 0.1333335,
          "durationTicks": 48,
          "midi": 27,
          "name": "D#1",
          "ticks": 1344,
          "time": 3.733338,
          "velocity": 0.47244094488188976
        },
        {
          "duration": 0.13333350000000088,
          "durationTicks": 48,
          "midi": 27,
          "name": "D#1",
          "ticks": 1489,
          "time": 4.13611628125,
          "velocity": 0.47244094488188976
        },
        {
          "duration": 0.06666674999999955,
          "durationTicks": 24,
          "midi": 22,
          "name": "A#0",
          "ticks": 2880,
          "time": 8.00001,
          "velocity": 0.8188976377952756
        },
        {
          "duration": 0.06666674999999955,
          "durationTicks": 24,
          "midi": 34,
          "name": "A#1",
          "ticks": 2880,
          "time": 8.00001,
          "velocity": 0.8188976377952756
        },
        {
          "duration": 0.06666675000000133,
          "durationTicks": 24,
          "midi": 34,
          "name": "A#1",
          "ticks": 2928,
          "time": 8.133343499999999,
          "velocity": 0.8188976377952756
        },
        {
          "duration": 0.06666675000000133,
          "durationTicks": 24,
          "midi": 22,
          "name": "A#0",
          "ticks": 2928,
          "time": 8.133343499999999,
          "velocity": 0.8188976377952756
        },
        {
          "duration": 0.06666674999999955,
          "durationTicks": 24,
          "midi": 34,
          "name": "A#1",
          "ticks": 2976,
          "time": 8.266677,
          "velocity": 0.8188976377952756
        },
        {
          "duration": 0.06666674999999955,
          "durationTicks": 24,
          "midi": 22,
          "name": "A#0",
          "ticks": 2976,
          "time": 8.266677,
          "velocity": 0.8188976377952756
        },
        {
          "duration": 0.06666674999999955,
          "durationTicks": 24,
          "midi": 34,
          "name": "A#1",
          "ticks": 3024,
          "time": 8.4000105,
          "velocity": 0.8188976377952756
        },
        {
          "duration": 0.06666674999999955,
          "durationTicks": 24,
          "midi": 22,
          "name": "A#0",
          "ticks": 3024,
          "time": 8.4000105,
          "velocity": 0.8188976377952756
        },
        {
          "duration": 0.22222250000000088,
          "durationTicks": 80,
          "midi": 27,
          "name": "D#1",
          "ticks": 3264,
          "time": 9.066678,
          "velocity": 0.8188976377952756
        },
        {
          "duration": 0.22222250000000088,
          "durationTicks": 80,
          "midi": 39,
          "name": "D#2",
          "ticks": 3360,
          "time": 9.333345,
          "velocity": 0.8188976377952756
        },
        {
          "duration": 0.22222250000000088,
          "durationTicks": 80,
          "midi": 27,
          "name": "D#1",
          "ticks": 3360,
          "time": 9.333345,
          "velocity": 0.8188976377952756
        },
        {
          "duration": 0.22222250000000088,
          "durationTicks": 80,
          "midi": 27,
          "name": "D#1",
          "ticks": 3456,
          "time": 9.600012,
          "velocity": 0.8188976377952756
        },
        {
          "duration": 0.22222250000000088,
          "durationTicks": 80,
          "midi": 39,
          "name": "D#2",
          "ticks": 3552,
          "time": 9.866679,
          "velocity": 0.8188976377952756
        },
        {
          "duration": 0.22222250000000088,
          "durationTicks": 80,
          "midi": 27,
          "name": "D#1",
          "ticks": 3552,
          "time": 9.866679,
          "velocity": 0.8188976377952756
        },
        {
          "duration": 0.22222250000000088,
          "durationTicks": 80,
          "midi": 27,
          "name": "D#1",
          "ticks": 3648,
          "time": 10.133346,
          "velocity": 0.8188976377952756
        },
        {
          "duration": 0.22222250000000088,
          "durationTicks": 80,
          "midi": 27,
          "name": "D#1",
          "ticks": 3744,
          "time": 10.400013,
          "velocity": 0.8188976377952756
        },
        {
          "duration": 0.22222250000000088,
          "durationTicks": 80,
          "midi": 39,
          "name": "D#2",
          "ticks": 3744,
          "time": 10.400013,
          "velocity": 0.8188976377952756
        },
        {
          "duration": 0.22222250000000088,
          "durationTicks": 80,
          "midi": 27,
          "name": "D#1",
          "ticks": 3840,
          "time": 10.66668,
          "velocity": 0.8188976377952756
        },
        {
          "duration": 0.22222250000000088,
          "durationTicks": 80,
          "midi": 27,
          "name": "D#1",
          "ticks": 3936,
          "time": 10.933347,
          "velocity": 0.8188976377952756
        },
        {
          "duration": 0.22222250000000088,
          "durationTicks": 80,
          "midi": 39,
          "name": "D#2",
          "ticks": 3936,
          "time": 10.933347,
          "velocity": 0.8188976377952756
        },
        {
          "duration": 0.22222250000000088,
          "durationTicks": 80,
          "midi": 27,
          "name": "D#1",
          "ticks": 4032,
          "time": 11.200014,
          "velocity": 0.8188976377952756
        },
        {
          "duration": 0.22222250000000088,
          "durationTicks": 80,
          "midi": 27,
          "name": "D#1",
          "ticks": 4128,
          "time": 11.466681,
          "velocity": 0.8188976377952756
        },
        {
          "duration": 0.22222250000000088,
          "durationTicks": 80,
          "midi": 39,
          "name": "D#2",
          "ticks": 4128,
          "time": 11.466681,
          "velocity": 0.8188976377952756
        },
        {
          "duration": 0.22222250000000088,
          "durationTicks": 80,
          "midi": 27,
          "name": "D#1",
          "ticks": 4224,
          "time": 11.733348,
          "velocity": 0.8188976377952756
        },
        {
          "duration": 0.22222250000000088,
          "durationTicks": 80,
          "midi": 39,
          "name": "D#2",
          "ticks": 4320,
          "time": 12.000015,
          "velocity": 0.8188976377952756
        },
        {
          "duration": 0.22222250000000088,
          "durationTicks": 80,
          "midi": 27,
          "name": "D#1",
          "ticks": 4320,
          "time": 12.000015,
          "velocity": 0.8188976377952756
        },
        {
          "duration": 0.22222250000000088,
          "durationTicks": 80,
          "midi": 27,
          "name": "D#1",
          "ticks": 4416,
          "time": 12.266682,
          "velocity": 0.8188976377952756
        },
        {
          "duration": 0.22222250000000088,
          "durationTicks": 80,
          "midi": 39,
          "name": "D#2",
          "ticks": 4512,
          "time": 12.533349,
          "velocity": 0.8188976377952756
        },
        {
          "duration": 0.22222250000000088,
          "durationTicks": 80,
          "midi": 27,
          "name": "D#1",
          "ticks": 4512,
          "time": 12.533349,
          "velocity": 0.8188976377952756
        },
        {
          "duration": 0.22222250000000088,
          "durationTicks": 80,
          "midi": 27,
          "name": "D#1",
          "ticks": 4608,
          "time": 12.800016,
          "velocity": 0.8188976377952756
        },
        {
          "duration": 0.22222250000000088,
          "durationTicks": 80,
          "midi": 39,
          "name": "D#2",
          "ticks": 4704,
          "time": 13.066683,
          "velocity": 0.8188976377952756
        },
        {
          "duration": 0.22222250000000088,
          "durationTicks": 80,
          "midi": 27,
          "name": "D#1",
          "ticks": 4704,
          "time": 13.066683,
          "velocity": 0.8188976377952756
        },
        {
          "duration": 0.088889,
          "durationTicks": 32,
          "midi": 27,
          "name": "D#1",
          "ticks": 4800,
          "time": 13.33335,
          "velocity": 0.8188976377952756
        },
        {
          "duration": 0.22222250000000088,
          "durationTicks": 80,
          "midi": 27,
          "name": "D#1",
          "ticks": 4896,
          "time": 13.600017,
          "velocity": 0.8188976377952756
        },
        {
          "duration": 0.22222250000000088,
          "durationTicks": 80,
          "midi": 39,
          "name": "D#2",
          "ticks": 4896,
          "time": 13.600017,
          "velocity": 0.8188976377952756
        },
        {
          "duration": 0.22222250000000088,
          "durationTicks": 80,
          "midi": 27,
          "name": "D#1",
          "ticks": 4992,
          "time": 13.866684,
          "velocity": 0.8188976377952756
        },
        {
          "duration": 0.22222250000000088,
          "durationTicks": 80,
          "midi": 39,
          "name": "D#2",
          "ticks": 5088,
          "time": 14.133351,
          "velocity": 0.8188976377952756
        },
        {
          "duration": 0.22222250000000088,
          "durationTicks": 80,
          "midi": 27,
          "name": "D#1",
          "ticks": 5088,
          "time": 14.133351,
          "velocity": 0.8188976377952756
        },
        {
          "duration": 0.22222250000000088,
          "durationTicks": 80,
          "midi": 27,
          "name": "D#1",
          "ticks": 5184,
          "time": 14.400018,
          "velocity": 0.8188976377952756
        },
        {
          "duration": 0.22222250000000088,
          "durationTicks": 80,
          "midi": 27,
          "name": "D#1",
          "ticks": 5280,
          "time": 14.666685,
          "velocity": 0.8188976377952756
        },
        {
          "duration": 0.22222250000000088,
          "durationTicks": 80,
          "midi": 39,
          "name": "D#2",
          "ticks": 5280,
          "time": 14.666685,
          "velocity": 0.8188976377952756
        },
        {
          "duration": 0.22222250000000088,
          "durationTicks": 80,
          "midi": 27,
          "name": "D#1",
          "ticks": 5376,
          "time": 14.933352,
          "velocity": 0.8188976377952756
        },
        {
          "duration": 0.22222250000000088,
          "durationTicks": 80,
          "midi": 27,
          "name": "D#1",
          "ticks": 5472,
          "time": 15.200019,
          "velocity": 0.8188976377952756
        },
        {
          "duration": 0.22222250000000088,
          "durationTicks": 80,
          "midi": 39,
          "name": "D#2",
          "ticks": 5472,
          "time": 15.200019,
          "velocity": 0.8188976377952756
        },
        {
          "duration": 0.22222250000000088,
          "durationTicks": 80,
          "midi": 27,
          "name": "D#1",
          "ticks": 5568,
          "time": 15.466686,
          "velocity": 0.8188976377952756
        },
        {
          "duration": 0.22222250000000088,
          "durationTicks": 80,
          "midi": 27,
          "name": "D#1",
          "ticks": 5664,
          "time": 15.733353,
          "velocity": 0.8188976377952756
        },
        {
          "duration": 0.22222250000000088,
          "durationTicks": 80,
          "midi": 39,
          "name": "D#2",
          "ticks": 5664,
          "time": 15.733353,
          "velocity": 0.8188976377952756
        },
        {
          "duration": 0.22222250000000088,
          "durationTicks": 80,
          "midi": 27,
          "name": "D#1",
          "ticks": 5760,
          "time": 16.00002,
          "velocity": 0.8188976377952756
        },
        {
          "duration": 0.22222250000000088,
          "durationTicks": 80,
          "midi": 27,
          "name": "D#1",
          "ticks": 5856,
          "time": 16.266686999999997,
          "velocity": 0.8188976377952756
        },
        {
          "duration": 0.22222250000000088,
          "durationTicks": 80,
          "midi": 39,
          "name": "D#2",
          "ticks": 5856,
          "time": 16.266686999999997,
          "velocity": 0.8188976377952756
        },
        {
          "duration": 0.08888900000000177,
          "durationTicks": 32,
          "midi": 27,
          "name": "D#1",
          "ticks": 5952,
          "time": 16.533354,
          "velocity": 0.8188976377952756
        },
        {
          "duration": 0.08888900000000177,
          "durationTicks": 32,
          "midi": 39,
          "name": "D#2",
          "ticks": 5952,
          "time": 16.533354,
          "velocity": 0.8188976377952756
        },
        {
          "duration": 0.08888900000000177,
          "durationTicks": 32,
          "midi": 27,
          "name": "D#1",
          "ticks": 6000,
          "time": 16.6666875,
          "velocity": 0.8188976377952756
        },
        {
          "duration": 0.08888900000000177,
          "durationTicks": 32,
          "midi": 39,
          "name": "D#2",
          "ticks": 6000,
          "time": 16.6666875,
          "velocity": 0.8188976377952756
        },
        {
          "duration": 0.08888899999999822,
          "durationTicks": 32,
          "midi": 27,
          "name": "D#1",
          "ticks": 6048,
          "time": 16.800021,
          "velocity": 0.8188976377952756
        },
        {
          "duration": 0.08888899999999822,
          "durationTicks": 32,
          "midi": 39,
          "name": "D#2",
          "ticks": 6048,
          "time": 16.800021,
          "velocity": 0.8188976377952756
        },
        {
          "duration": 0.08888899999999822,
          "durationTicks": 32,
          "midi": 39,
          "name": "D#2",
          "ticks": 6096,
          "time": 16.9333545,
          "velocity": 0.8188976377952756
        },
        {
          "duration": 0.08888899999999822,
          "durationTicks": 32,
          "midi": 27,
          "name": "D#1",
          "ticks": 6096,
          "time": 16.9333545,
          "velocity": 0.8188976377952756
        },
        {
          "duration": 0.08888899999999822,
          "durationTicks": 32,
          "midi": 39,
          "name": "D#2",
          "ticks": 6144,
          "time": 17.066688,
          "velocity": 0.8188976377952756
        },
        {
          "duration": 0.08888899999999822,
          "durationTicks": 32,
          "midi": 27,
          "name": "D#1",
          "ticks": 6144,
          "time": 17.066688,
          "velocity": 0.8188976377952756
        },
        {
          "duration": 0.08888899999999822,
          "durationTicks": 32,
          "midi": 27,
          "name": "D#1",
          "ticks": 6192,
          "time": 17.2000215,
          "velocity": 0.8188976377952756
        },
        {
          "duration": 0.08888899999999822,
          "durationTicks": 32,
          "midi": 39,
          "name": "D#2",
          "ticks": 6192,
          "time": 17.2000215,
          "velocity": 0.8188976377952756
        },
        {
          "duration": 0.1333334999999991,
          "durationTicks": 48,
          "midi": 27,
          "name": "D#1",
          "ticks": 6528,
          "time": 18.133356,
          "velocity": 0.8110236220472441
        },
        {
          "duration": 0.06666674999999955,
          "durationTicks": 24,
          "midi": 39,
          "name": "D#2",
          "ticks": 6720,
          "time": 18.66669,
          "velocity": 0.8110236220472441
        },
        {
          "duration": 0.06666674999999955,
          "durationTicks": 24,
          "midi": 51,
          "name": "D#3",
          "ticks": 6722,
          "time": 18.6722455625,
          "velocity": 0.8110236220472441
        },
        {
          "duration": 0.06666674999999955,
          "durationTicks": 24,
          "midi": 27,
          "name": "D#1",
          "ticks": 6768,
          "time": 18.800023499999998,
          "velocity": 0.8110236220472441
        },
        {
          "duration": 0.06666674999999955,
          "durationTicks": 24,
          "midi": 27,
          "name": "D#1",
          "ticks": 6816,
          "time": 18.933357,
          "velocity": 0.8110236220472441
        },
        {
          "duration": 0.0666667500000031,
          "durationTicks": 24,
          "midi": 27,
          "name": "D#1",
          "ticks": 7008,
          "time": 19.466690999999997,
          "velocity": 0.8110236220472441
        },
        {
          "duration": 0.06666674999999955,
          "durationTicks": 24,
          "midi": 39,
          "name": "D#2",
          "ticks": 7104,
          "time": 19.733358,
          "velocity": 0.8110236220472441
        },
        {
          "duration": 0.06666674999999955,
          "durationTicks": 24,
          "midi": 51,
          "name": "D#3",
          "ticks": 7106,
          "time": 19.7389135625,
          "velocity": 0.8110236220472441
        },
        {
          "duration": 0.022222249999998667,
          "durationTicks": 8,
          "midi": 27,
          "name": "D#1",
          "ticks": 7296,
          "time": 20.266692,
          "velocity": 0.8110236220472441
        },
        {
          "duration": 0.022222249999998667,
          "durationTicks": 8,
          "midi": 27,
          "name": "D#1",
          "ticks": 7320,
          "time": 20.33335875,
          "velocity": 0.8110236220472441
        },
        {
          "duration": 0.022222249999998667,
          "durationTicks": 8,
          "midi": 27,
          "name": "D#1",
          "ticks": 7344,
          "time": 20.400025499999998,
          "velocity": 0.8110236220472441
        },
        {
          "duration": 0.022222249999998667,
          "durationTicks": 8,
          "midi": 27,
          "name": "D#1",
          "ticks": 7368,
          "time": 20.466692249999998,
          "velocity": 0.8110236220472441
        },
        {
          "duration": 0.0666667500000031,
          "durationTicks": 24,
          "midi": 27,
          "name": "D#1",
          "ticks": 7392,
          "time": 20.533358999999997,
          "velocity": 0.8110236220472441
        },
        {
          "duration": 0.06666674999999955,
          "durationTicks": 24,
          "midi": 39,
          "name": "D#2",
          "ticks": 7488,
          "time": 20.800026,
          "velocity": 0.8110236220472441
        },
        {
          "duration": 0.06666674999999955,
          "durationTicks": 24,
          "midi": 51,
          "name": "D#3",
          "ticks": 7490,
          "time": 20.8055815625,
          "velocity": 0.8110236220472441
        },
        {
          "duration": 0.06666674999999955,
          "durationTicks": 24,
          "midi": 27,
          "name": "D#1",
          "ticks": 7536,
          "time": 20.933359499999998,
          "velocity": 0.8110236220472441
        },
        {
          "duration": 0.06666674999999955,
          "durationTicks": 24,
          "midi": 27,
          "name": "D#1",
          "ticks": 7584,
          "time": 21.066693,
          "velocity": 0.8110236220472441
        },
        {
          "duration": 0.0666667500000031,
          "durationTicks": 24,
          "midi": 27,
          "name": "D#1",
          "ticks": 7776,
          "time": 21.600026999999997,
          "velocity": 0.8110236220472441
        },
        {
          "duration": 0.06666674999999955,
          "durationTicks": 24,
          "midi": 39,
          "name": "D#2",
          "ticks": 7872,
          "time": 21.866694,
          "velocity": 0.8110236220472441
        },
        {
          "duration": 0.06666674999999955,
          "durationTicks": 24,
          "midi": 51,
          "name": "D#3",
          "ticks": 7874,
          "time": 21.8722495625,
          "velocity": 0.8110236220472441
        },
        {
          "duration": 0.1333334999999991,
          "durationTicks": 48,
          "midi": 27,
          "name": "D#1",
          "ticks": 8064,
          "time": 22.400028,
          "velocity": 0.8110236220472441
        },
        {
          "duration": 0.06666674999999955,
          "durationTicks": 24,
          "midi": 39,
          "name": "D#2",
          "ticks": 8256,
          "time": 22.933362,
          "velocity": 0.8110236220472441
        },
        {
          "duration": 0.06666674999999955,
          "durationTicks": 24,
          "midi": 51,
          "name": "D#3",
          "ticks": 8258,
          "time": 22.9389175625,
          "velocity": 0.8110236220472441
        },
        {
          "duration": 0.06666674999999955,
          "durationTicks": 24,
          "midi": 27,
          "name": "D#1",
          "ticks": 8304,
          "time": 23.066695499999998,
          "velocity": 0.8110236220472441
        },
        {
          "duration": 0.06666674999999955,
          "durationTicks": 24,
          "midi": 27,
          "name": "D#1",
          "ticks": 8352,
          "time": 23.200029,
          "velocity": 0.8110236220472441
        },
        {
          "duration": 0.0666667500000031,
          "durationTicks": 24,
          "midi": 27,
          "name": "D#1",
          "ticks": 8544,
          "time": 23.733362999999997,
          "velocity": 0.8110236220472441
        },
        {
          "duration": 0.06666674999999955,
          "durationTicks": 24,
          "midi": 39,
          "name": "D#2",
          "ticks": 8640,
          "time": 24.00003,
          "velocity": 0.8110236220472441
        },
        {
          "duration": 0.06666674999999955,
          "durationTicks": 24,
          "midi": 51,
          "name": "D#3",
          "ticks": 8642,
          "time": 24.0055855625,
          "velocity": 0.8110236220472441
        },
        {
          "duration": 0.022222249999998667,
          "durationTicks": 8,
          "midi": 30,
          "name": "F#1",
          "ticks": 8832,
          "time": 24.533364,
          "velocity": 0.8110236220472441
        },
        {
          "duration": 0.022222249999998667,
          "durationTicks": 8,
          "midi": 30,
          "name": "F#1",
          "ticks": 8856,
          "time": 24.60003075,
          "velocity": 0.8110236220472441
        },
        {
          "duration": 0.022222249999998667,
          "durationTicks": 8,
          "midi": 30,
          "name": "F#1",
          "ticks": 8880,
          "time": 24.666697499999998,
          "velocity": 0.8110236220472441
        },
        {
          "duration": 0.022222249999998667,
          "durationTicks": 8,
          "midi": 30,
          "name": "F#1",
          "ticks": 8904,
          "time": 24.733364249999997,
          "velocity": 0.8110236220472441
        },
        {
          "duration": 0.0666667500000031,
          "durationTicks": 24,
          "midi": 30,
          "name": "F#1",
          "ticks": 8928,
          "time": 24.800030999999997,
          "velocity": 0.8110236220472441
        },
        {
          "duration": 0.06666674999999955,
          "durationTicks": 24,
          "midi": 41,
          "name": "F2",
          "ticks": 9024,
          "time": 25.066698,
          "velocity": 0.8110236220472441
        },
        {
          "duration": 0.06666674999999955,
          "durationTicks": 24,
          "midi": 53,
          "name": "F3",
          "ticks": 9026,
          "time": 25.0722535625,
          "velocity": 0.8110236220472441
        },
        {
          "duration": 0.06666674999999955,
          "durationTicks": 24,
          "midi": 29,
          "name": "F1",
          "ticks": 9072,
          "time": 25.200031499999998,
          "velocity": 0.8110236220472441
        },
        {
          "duration": 0.06666674999999955,
          "durationTicks": 24,
          "midi": 29,
          "name": "F1",
          "ticks": 9120,
          "time": 25.333365,
          "velocity": 0.8110236220472441
        },
        {
          "duration": 0.0666667500000031,
          "durationTicks": 24,
          "midi": 32,
          "name": "G#1",
          "ticks": 9312,
          "time": 25.866698999999997,
          "velocity": 0.8110236220472441
        },
        {
          "duration": 0.06666674999999955,
          "durationTicks": 24,
          "midi": 34,
          "name": "A#1",
          "ticks": 9408,
          "time": 26.133366,
          "velocity": 0.8110236220472441
        },
        {
          "duration": 0.06666674999999955,
          "durationTicks": 24,
          "midi": 46,
          "name": "A#2",
          "ticks": 9410,
          "time": 26.1389215625,
          "velocity": 0.8110236220472441
        },
        {
          "duration": 0.06666674999999955,
          "durationTicks": 24,
          "midi": 39,
          "name": "D#2",
          "ticks": 9792,
          "time": 27.200034,
          "velocity": 0.8110236220472441
        },
        {
          "duration": 0.06666674999999955,
          "durationTicks": 24,
          "midi": 51,
          "name": "D#3",
          "ticks": 9794,
          "time": 27.2055895625,
          "velocity": 0.8110236220472441
        },
        {
          "duration": 0.06666674999999955,
          "durationTicks": 24,
          "midi": 27,
          "name": "D#1",
          "ticks": 9840,
          "time": 27.333367499999998,
          "velocity": 0.8110236220472441
        },
        {
          "duration": 0.06666674999999955,
          "durationTicks": 24,
          "midi": 27,
          "name": "D#1",
          "ticks": 9888,
          "time": 27.466701,
          "velocity": 0.8110236220472441
        },
        {
          "duration": 0.0666667500000031,
          "durationTicks": 24,
          "midi": 27,
          "name": "D#1",
          "ticks": 10080,
          "time": 28.000034999999997,
          "velocity": 0.8110236220472441
        },
        {
          "duration": 0.06666674999999955,
          "durationTicks": 24,
          "midi": 39,
          "name": "D#2",
          "ticks": 10176,
          "time": 28.266702,
          "velocity": 0.8110236220472441
        },
        {
          "duration": 0.06666674999999955,
          "durationTicks": 24,
          "midi": 51,
          "name": "D#3",
          "ticks": 10178,
          "time": 28.2722575625,
          "velocity": 0.8110236220472441
        },
        {
          "duration": 0.022222249999998667,
          "durationTicks": 8,
          "midi": 27,
          "name": "D#1",
          "ticks": 10368,
          "time": 28.800036,
          "velocity": 0.8110236220472441
        },
        {
          "duration": 0.02222225000000222,
          "durationTicks": 8,
          "midi": 27,
          "name": "D#1",
          "ticks": 10400,
          "time": 28.888924999999997,
          "velocity": 0.8110236220472441
        },
        {
          "duration": 0.022222249999998667,
          "durationTicks": 8,
          "midi": 27,
          "name": "D#1",
          "ticks": 10432,
          "time": 28.977814,
          "velocity": 0.8110236220472441
        },
        {
          "duration": 0.0666667500000031,
          "durationTicks": 24,
          "midi": 39,
          "name": "D#2",
          "ticks": 10464,
          "time": 29.066702999999997,
          "velocity": 0.8110236220472441
        },
        {
          "duration": 0.06666674999999955,
          "durationTicks": 24,
          "midi": 51,
          "name": "D#3",
          "ticks": 10466,
          "time": 29.072258562499997,
          "velocity": 0.8110236220472441
        },
        {
          "duration": 0.02222225000000222,
          "durationTicks": 8,
          "midi": 27,
          "name": "D#1",
          "ticks": 10496,
          "time": 29.155592,
          "velocity": 0.8110236220472441
        },
        {
          "duration": 0.022222249999998667,
          "durationTicks": 8,
          "midi": 27,
          "name": "D#1",
          "ticks": 10528,
          "time": 29.244481,
          "velocity": 0.8110236220472441
        },
        {
          "duration": 0.06666674999999955,
          "durationTicks": 24,
          "midi": 39,
          "name": "D#2",
          "ticks": 10560,
          "time": 29.33337,
          "velocity": 0.8110236220472441
        },
        {
          "duration": 0.06666674999999955,
          "durationTicks": 24,
          "midi": 51,
          "name": "D#3",
          "ticks": 10562,
          "time": 29.3389255625,
          "velocity": 0.8110236220472441
        },
        {
          "duration": 0.02222225000000222,
          "durationTicks": 8,
          "midi": 27,
          "name": "D#1",
          "ticks": 10592,
          "time": 29.422258999999997,
          "velocity": 0.8110236220472441
        },
        {
          "duration": 0.022222249999998667,
          "durationTicks": 8,
          "midi": 27,
          "name": "D#1",
          "ticks": 10624,
          "time": 29.511148,
          "velocity": 0.8110236220472441
        },
        {
          "duration": 0.022222249999998667,
          "durationTicks": 8,
          "midi": 27,
          "name": "D#1",
          "ticks": 10656,
          "time": 29.600037,
          "velocity": 0.8110236220472441
        },
        {
          "duration": 0.0666667500000031,
          "durationTicks": 24,
          "midi": 27,
          "name": "D#1",
          "ticks": 10848,
          "time": 30.133370999999997,
          "velocity": 0.8110236220472441
        },
        {
          "duration": 0.06666674999999955,
          "durationTicks": 24,
          "midi": 39,
          "name": "D#2",
          "ticks": 10944,
          "time": 30.400038,
          "velocity": 0.8110236220472441
        },
        {
          "duration": 0.06666674999999955,
          "durationTicks": 24,
          "midi": 51,
          "name": "D#3",
          "ticks": 10946,
          "time": 30.4055935625,
          "velocity": 0.8110236220472441
        },
        {
          "duration": 0.1333334999999991,
          "durationTicks": 48,
          "midi": 25,
          "name": "C#1",
          "ticks": 11040,
          "time": 30.666705,
          "velocity": 0.8110236220472441
        },
        {
          "duration": 0.1333334999999991,
          "durationTicks": 48,
          "midi": 23,
          "name": "B0",
          "ticks": 11136,
          "time": 30.933372,
          "velocity": 0.8110236220472441
        },
        {
          "duration": 0.06666674999999955,
          "durationTicks": 24,
          "midi": 35,
          "name": "B1",
          "ticks": 11328,
          "time": 31.466706,
          "velocity": 0.8110236220472441
        },
        {
          "duration": 0.06666674999999955,
          "durationTicks": 24,
          "midi": 47,
          "name": "B2",
          "ticks": 11330,
          "time": 31.472261562499998,
          "velocity": 0.8110236220472441
        },
        {
          "duration": 0.06666674999999955,
          "durationTicks": 24,
          "midi": 23,
          "name": "B0",
          "ticks": 11376,
          "time": 31.600039499999998,
          "velocity": 0.8110236220472441
        },
        {
          "duration": 0.06666674999999955,
          "durationTicks": 24,
          "midi": 23,
          "name": "B0",
          "ticks": 11424,
          "time": 31.733373,
          "velocity": 0.8110236220472441
        },
        {
          "duration": 0.0666667500000031,
          "durationTicks": 24,
          "midi": 23,
          "name": "B0",
          "ticks": 11616,
          "time": 32.266707,
          "velocity": 0.8110236220472441
        },
        {
          "duration": 0.0666667500000031,
          "durationTicks": 24,
          "midi": 35,
          "name": "B1",
          "ticks": 11712,
          "time": 32.533373999999995,
          "velocity": 0.8110236220472441
        },
        {
          "duration": 0.0666667500000031,
          "durationTicks": 24,
          "midi": 47,
          "name": "B2",
          "ticks": 11714,
          "time": 32.538929562499995,
          "velocity": 0.8110236220472441
        },
        {
          "duration": 0.022222249999998667,
          "durationTicks": 8,
          "midi": 23,
          "name": "B0",
          "ticks": 11904,
          "time": 33.066708,
          "velocity": 0.8110236220472441
        },
        {
          "duration": 0.022222249999998667,
          "durationTicks": 8,
          "midi": 23,
          "name": "B0",
          "ticks": 11928,
          "time": 33.13337475,
          "velocity": 0.8110236220472441
        },
        {
          "duration": 0.022222249999998667,
          "durationTicks": 8,
          "midi": 23,
          "name": "B0",
          "ticks": 11952,
          "time": 33.2000415,
          "velocity": 0.8110236220472441
        },
        {
          "duration": 0.022222249999998667,
          "durationTicks": 8,
          "midi": 23,
          "name": "B0",
          "ticks": 11976,
          "time": 33.26670825,
          "velocity": 0.8110236220472441
        },
        {
          "duration": 0.0666667500000031,
          "durationTicks": 24,
          "midi": 23,
          "name": "B0",
          "ticks": 12000,
          "time": 33.333375,
          "velocity": 0.8110236220472441
        },
        {
          "duration": 0.066666749999996,
          "durationTicks": 24,
          "midi": 35,
          "name": "B1",
          "ticks": 12096,
          "time": 33.600042,
          "velocity": 0.8110236220472441
        },
        {
          "duration": 0.0666667500000031,
          "durationTicks": 24,
          "midi": 47,
          "name": "B2",
          "ticks": 12098,
          "time": 33.605597562499995,
          "velocity": 0.8110236220472441
        },
        {
          "duration": 0.066666749999996,
          "durationTicks": 24,
          "midi": 23,
          "name": "B0",
          "ticks": 12144,
          "time": 33.7333755,
          "velocity": 0.8110236220472441
        },
        {
          "duration": 0.066666749999996,
          "durationTicks": 24,
          "midi": 23,
          "name": "B0",
          "ticks": 12192,
          "time": 33.866709,
          "velocity": 0.8110236220472441
        },
        {
          "duration": 0.2666669999999982,
          "durationTicks": 96,
          "midi": 23,
          "name": "B0",
          "ticks": 12288,
          "time": 34.133376,
          "velocity": 0.8110236220472441
        },
        {
          "duration": 0.2666669999999982,
          "durationTicks": 96,
          "midi": 35,
          "name": "B1",
          "ticks": 12384,
          "time": 34.400043,
          "velocity": 0.8110236220472441
        },
        {
          "duration": 0.2666670000000053,
          "durationTicks": 96,
          "midi": 34,
          "name": "A#1",
          "ticks": 12480,
          "time": 34.666709999999995,
          "velocity": 0.8110236220472441
        },
        {
          "duration": 0.2666669999999982,
          "durationTicks": 96,
          "midi": 33,
          "name": "A1",
          "ticks": 12576,
          "time": 34.933377,
          "velocity": 0.8110236220472441
        },
        {
          "duration": 0.2666669999999982,
          "durationTicks": 96,
          "midi": 32,
          "name": "G#1",
          "ticks": 12672,
          "time": 35.200044,
          "velocity": 0.8110236220472441
        },
        {
          "duration": 0.2666670000000053,
          "durationTicks": 96,
          "midi": 36,
          "name": "C2",
          "ticks": 12768,
          "time": 35.466711,
          "velocity": 0.8110236220472441
        },
        {
          "duration": 0.2666669999999982,
          "durationTicks": 96,
          "midi": 29,
          "name": "F1",
          "ticks": 12864,
          "time": 35.733378,
          "velocity": 0.8110236220472441
        },
        {
          "duration": 0.5333339999999964,
          "durationTicks": 192,
          "midi": 33,
          "name": "A1",
          "ticks": 12960,
          "time": 36.000045,
          "velocity": 0.8110236220472441
        },
        {
          "duration": 0.1333334999999991,
          "durationTicks": 48,
          "midi": 30,
          "name": "F#1",
          "ticks": 15264,
          "time": 42.400053,
          "velocity": 0.8188976377952756
        },
        {
          "duration": 0.1333334999999991,
          "durationTicks": 48,
          "midi": 30,
          "name": "F#1",
          "ticks": 15408,
          "time": 42.8000535,
          "velocity": 0.8188976377952756
        },
        {
          "duration": 0.1333334999999991,
          "durationTicks": 48,
          "midi": 30,
          "name": "F#1",
          "ticks": 15504,
          "time": 43.066720499999995,
          "velocity": 0.8188976377952756
        },
        {
          "duration": 0.1333335000000062,
          "durationTicks": 48,
          "midi": 29,
          "name": "F1",
          "ticks": 15552,
          "time": 43.200053999999994,
          "velocity": 0.8188976377952756
        },
        {
          "duration": 0.1333334999999991,
          "durationTicks": 48,
          "midi": 29,
          "name": "F1",
          "ticks": 15648,
          "time": 43.466721,
          "velocity": 0.8188976377952756
        },
        {
          "duration": 0.1333334999999991,
          "durationTicks": 48,
          "midi": 33,
          "name": "A1",
          "ticks": 15744,
          "time": 43.733388,
          "velocity": 0.8188976377952756
        },
        {
          "duration": 0.1333335000000062,
          "durationTicks": 48,
          "midi": 33,
          "name": "A1",
          "ticks": 15888,
          "time": 44.133388499999995,
          "velocity": 0.8188976377952756
        },
        {
          "duration": 0.1333334999999991,
          "durationTicks": 48,
          "midi": 33,
          "name": "A1",
          "ticks": 15984,
          "time": 44.4000555,
          "velocity": 0.8188976377952756
        },
        {
          "duration": 0.1333334999999991,
          "durationTicks": 48,
          "midi": 32,
          "name": "G#1",
          "ticks": 16032,
          "time": 44.533389,
          "velocity": 0.8188976377952756
        },
        {
          "duration": 0.1333334999999991,
          "durationTicks": 48,
          "midi": 32,
          "name": "G#1",
          "ticks": 16128,
          "time": 44.800056,
          "velocity": 0.8188976377952756
        },
        {
          "duration": 0.1333334999999991,
          "durationTicks": 48,
          "midi": 28,
          "name": "E1",
          "ticks": 16224,
          "time": 45.066722999999996,
          "velocity": 0.8188976377952756
        },
        {
          "duration": 0.01388890625000272,
          "durationTicks": 5,
          "midi": 44,
          "name": "G#2",
          "ticks": 17568,
          "time": 48.800061,
          "velocity": 0.8031496062992126
        },
        {
          "duration": 0.01388890625000272,
          "durationTicks": 5,
          "midi": 32,
          "name": "G#1",
          "ticks": 17611,
          "time": 48.919505593749996,
          "velocity": 0.8031496062992126
        },
        {
          "duration": 0.1000001250000011,
          "durationTicks": 36,
          "midi": 25,
          "name": "C#1",
          "ticks": 17808,
          "time": 49.466728499999995,
          "velocity": 0.8188976377952756
        },
        {
          "duration": 0.1000001250000011,
          "durationTicks": 36,
          "midi": 25,
          "name": "C#1",
          "ticks": 17856,
          "time": 49.600061999999994,
          "velocity": 0.8188976377952756
        },
        {
          "duration": 0.1000001250000011,
          "durationTicks": 36,
          "midi": 25,
          "name": "C#1",
          "ticks": 17952,
          "time": 49.866729,
          "velocity": 0.8188976377952756
        },
        {
          "duration": 0.1000001250000011,
          "durationTicks": 36,
          "midi": 25,
          "name": "C#1",
          "ticks": 18000,
          "time": 50.0000625,
          "velocity": 0.8188976377952756
        },
        {
          "duration": 0.2333336250000002,
          "durationTicks": 84,
          "midi": 25,
          "name": "C#1",
          "ticks": 18096,
          "time": 50.2667295,
          "velocity": 0.8188976377952756
        },
        {
          "duration": 0.1000001250000011,
          "durationTicks": 36,
          "midi": 25,
          "name": "C#1",
          "ticks": 18192,
          "time": 50.533396499999995,
          "velocity": 0.8188976377952756
        },
        {
          "duration": 0.100000124999994,
          "durationTicks": 36,
          "midi": 25,
          "name": "C#1",
          "ticks": 18240,
          "time": 50.66673,
          "velocity": 0.8188976377952756
        },
        {
          "duration": 0.100000124999994,
          "durationTicks": 36,
          "midi": 25,
          "name": "C#1",
          "ticks": 18288,
          "time": 50.8000635,
          "velocity": 0.8188976377952756
        },
        {
          "duration": 0.1333334999999991,
          "durationTicks": 48,
          "midi": 25,
          "name": "C#1",
          "ticks": 18336,
          "time": 50.933397,
          "velocity": 0.8188976377952756
        },
        {
          "duration": 0.2000002500000022,
          "durationTicks": 72,
          "midi": 38,
          "name": "D2",
          "ticks": 18528,
          "time": 51.466730999999996,
          "velocity": 0.8188976377952756
        },
        {
          "duration": 0.2000002500000022,
          "durationTicks": 72,
          "midi": 50,
          "name": "D3",
          "ticks": 18624,
          "time": 51.733397999999994,
          "velocity": 0.7874015748031497
        },
        {
          "duration": 0.2000002500000022,
          "durationTicks": 72,
          "midi": 38,
          "name": "D2",
          "ticks": 18624,
          "time": 51.733397999999994,
          "velocity": 0.8188976377952756
        },
        {
          "duration": 0.2000002499999951,
          "durationTicks": 72,
          "midi": 37,
          "name": "C#2",
          "ticks": 18720,
          "time": 52.000065,
          "velocity": 0.8188976377952756
        },
        {
          "duration": 0.2000002500000022,
          "durationTicks": 72,
          "midi": 37,
          "name": "C#2",
          "ticks": 18816,
          "time": 52.266732,
          "velocity": 0.8188976377952756
        },
        {
          "duration": 0.2000002500000022,
          "durationTicks": 72,
          "midi": 49,
          "name": "C#3",
          "ticks": 18816,
          "time": 52.266732,
          "velocity": 0.7874015748031497
        },
        {
          "duration": 0.2000002500000022,
          "durationTicks": 72,
          "midi": 30,
          "name": "F#1",
          "ticks": 18912,
          "time": 52.533398999999996,
          "velocity": 0.8188976377952756
        },
        {
          "duration": 0.2000002499999951,
          "durationTicks": 72,
          "midi": 30,
          "name": "F#1",
          "ticks": 19008,
          "time": 52.800066,
          "velocity": 0.8188976377952756
        },
        {
          "duration": 0.2000002499999951,
          "durationTicks": 72,
          "midi": 42,
          "name": "F#2",
          "ticks": 19008,
          "time": 52.800066,
          "velocity": 0.7874015748031497
        },
        {
          "duration": 0.2000002499999951,
          "durationTicks": 72,
          "midi": 33,
          "name": "A1",
          "ticks": 19104,
          "time": 53.066733,
          "velocity": 0.8188976377952756
        },
        {
          "duration": 0.2000002500000022,
          "durationTicks": 72,
          "midi": 45,
          "name": "A2",
          "ticks": 19200,
          "time": 53.3334,
          "velocity": 0.7874015748031497
        },
        {
          "duration": 0.2000002500000022,
          "durationTicks": 72,
          "midi": 33,
          "name": "A1",
          "ticks": 19200,
          "time": 53.3334,
          "velocity": 0.8188976377952756
        },
        {
          "duration": 0.2000002500000022,
          "durationTicks": 72,
          "midi": 38,
          "name": "D2",
          "ticks": 19296,
          "time": 53.600066999999996,
          "velocity": 0.8188976377952756
        },
        {
          "duration": 0.2000002500000022,
          "durationTicks": 72,
          "midi": 38,
          "name": "D2",
          "ticks": 19392,
          "time": 53.866733999999994,
          "velocity": 0.8188976377952756
        },
        {
          "duration": 0.2000002500000022,
          "durationTicks": 72,
          "midi": 50,
          "name": "D3",
          "ticks": 19392,
          "time": 53.866733999999994,
          "velocity": 0.7874015748031497
        },
        {
          "duration": 0.2000002499999951,
          "durationTicks": 72,
          "midi": 37,
          "name": "C#2",
          "ticks": 19488,
          "time": 54.133401,
          "velocity": 0.8188976377952756
        },
        {
          "duration": 0.2000002500000022,
          "durationTicks": 72,
          "midi": 49,
          "name": "C#3",
          "ticks": 19584,
          "time": 54.400068,
          "velocity": 0.7874015748031497
        },
        {
          "duration": 0.2000002500000022,
          "durationTicks": 72,
          "midi": 37,
          "name": "C#2",
          "ticks": 19584,
          "time": 54.400068,
          "velocity": 0.8188976377952756
        },
        {
          "duration": 0.2000002500000022,
          "durationTicks": 72,
          "midi": 30,
          "name": "F#1",
          "ticks": 19680,
          "time": 54.666734999999996,
          "velocity": 0.8188976377952756
        },
        {
          "duration": 0.2000002499999951,
          "durationTicks": 72,
          "midi": 29,
          "name": "F1",
          "ticks": 19776,
          "time": 54.933402,
          "velocity": 0.8188976377952756
        },
        {
          "duration": 0.2000002499999951,
          "durationTicks": 72,
          "midi": 41,
          "name": "F2",
          "ticks": 19776,
          "time": 54.933402,
          "velocity": 0.7874015748031497
        },
        {
          "duration": 0.2000002499999951,
          "durationTicks": 72,
          "midi": 28,
          "name": "E1",
          "ticks": 19872,
          "time": 55.200069,
          "velocity": 0.8188976377952756
        },
        {
          "duration": 0.2000002500000022,
          "durationTicks": 72,
          "midi": 39,
          "name": "D#2",
          "ticks": 19968,
          "time": 55.466736,
          "velocity": 0.8188976377952756
        },
        {
          "duration": 0.2000002500000022,
          "durationTicks": 72,
          "midi": 51,
          "name": "D#3",
          "ticks": 19968,
          "time": 55.466736,
          "velocity": 0.7874015748031497
        },
        {
          "duration": 0.2000002500000022,
          "durationTicks": 72,
          "midi": 38,
          "name": "D2",
          "ticks": 20064,
          "time": 55.733402999999996,
          "velocity": 0.8188976377952756
        },
        {
          "duration": 0.2000002500000022,
          "durationTicks": 72,
          "midi": 38,
          "name": "D2",
          "ticks": 20160,
          "time": 56.000069999999994,
          "velocity": 0.8188976377952756
        },
        {
          "duration": 0.2000002500000022,
          "durationTicks": 72,
          "midi": 50,
          "name": "D3",
          "ticks": 20160,
          "time": 56.000069999999994,
          "velocity": 0.7874015748031497
        },
        {
          "duration": 0.2000002499999951,
          "durationTicks": 72,
          "midi": 37,
          "name": "C#2",
          "ticks": 20256,
          "time": 56.266737,
          "velocity": 0.8188976377952756
        },
        {
          "duration": 0.2000002500000022,
          "durationTicks": 72,
          "midi": 49,
          "name": "C#3",
          "ticks": 20352,
          "time": 56.533404,
          "velocity": 0.7874015748031497
        },
        {
          "duration": 0.2000002500000022,
          "durationTicks": 72,
          "midi": 37,
          "name": "C#2",
          "ticks": 20352,
          "time": 56.533404,
          "velocity": 0.8188976377952756
        },
        {
          "duration": 0.2000002500000022,
          "durationTicks": 72,
          "midi": 30,
          "name": "F#1",
          "ticks": 20448,
          "time": 56.800070999999996,
          "velocity": 0.8188976377952756
        },
        {
          "duration": 0.2000002499999951,
          "durationTicks": 72,
          "midi": 30,
          "name": "F#1",
          "ticks": 20544,
          "time": 57.066738,
          "velocity": 0.8188976377952756
        },
        {
          "duration": 0.2000002499999951,
          "durationTicks": 72,
          "midi": 42,
          "name": "F#2",
          "ticks": 20544,
          "time": 57.066738,
          "velocity": 0.7874015748031497
        },
        {
          "duration": 0.2000002499999951,
          "durationTicks": 72,
          "midi": 33,
          "name": "A1",
          "ticks": 20640,
          "time": 57.333405,
          "velocity": 0.8188976377952756
        },
        {
          "duration": 0.2000002500000022,
          "durationTicks": 72,
          "midi": 46,
          "name": "A#2",
          "ticks": 20736,
          "time": 57.600072,
          "velocity": 0.7874015748031497
        },
        {
          "duration": 0.2000002500000022,
          "durationTicks": 72,
          "midi": 34,
          "name": "A#1",
          "ticks": 20736,
          "time": 57.600072,
          "velocity": 0.8188976377952756
        },
        {
          "duration": 0.2000002500000022,
          "durationTicks": 72,
          "midi": 35,
          "name": "B1",
          "ticks": 20832,
          "time": 57.866738999999995,
          "velocity": 0.8188976377952756
        },
        {
          "duration": 0.2000002500000022,
          "durationTicks": 72,
          "midi": 47,
          "name": "B2",
          "ticks": 20928,
          "time": 58.133405999999994,
          "velocity": 0.7874015748031497
        },
        {
          "duration": 0.2000002500000022,
          "durationTicks": 72,
          "midi": 35,
          "name": "B1",
          "ticks": 20928,
          "time": 58.133405999999994,
          "velocity": 0.8188976377952756
        },
        {
          "duration": 0.2000002499999951,
          "durationTicks": 72,
          "midi": 32,
          "name": "G#1",
          "ticks": 21024,
          "time": 58.400073,
          "velocity": 0.8188976377952756
        },
        {
          "duration": 0.2000002500000022,
          "durationTicks": 72,
          "midi": 32,
          "name": "G#1",
          "ticks": 21120,
          "time": 58.66674,
          "velocity": 0.8188976377952756
        },
        {
          "duration": 0.2000002500000022,
          "durationTicks": 72,
          "midi": 44,
          "name": "G#2",
          "ticks": 21120,
          "time": 58.66674,
          "velocity": 0.7874015748031497
        },
        {
          "duration": 0.1333334999999991,
          "durationTicks": 48,
          "midi": 37,
          "name": "C#2",
          "ticks": 21216,
          "time": 58.933406999999995,
          "velocity": 0.8188976377952756
        },
        {
          "duration": 0.1333334999999991,
          "durationTicks": 48,
          "midi": 37,
          "name": "C#2",
          "ticks": 21312,
          "time": 59.200074,
          "velocity": 0.8188976377952756
        },
        {
          "duration": 0.1000001250000011,
          "durationTicks": 36,
          "midi": 41,
          "name": "F2",
          "ticks": 21408,
          "time": 59.466741,
          "velocity": 0.8188976377952756
        },
        {
          "duration": 0.0666667500000031,
          "durationTicks": 24,
          "midi": 38,
          "name": "D2",
          "ticks": 21600,
          "time": 60.000074999999995,
          "velocity": 0.8188976377952756
        },
        {
          "duration": 0.0666667500000031,
          "durationTicks": 24,
          "midi": 38,
          "name": "D2",
          "ticks": 21648,
          "time": 60.133408499999994,
          "velocity": 0.8188976377952756
        },
        {
          "duration": 0.2000002500000022,
          "durationTicks": 72,
          "midi": 50,
          "name": "D3",
          "ticks": 21696,
          "time": 60.266741999999994,
          "velocity": 0.7874015748031497
        },
        {
          "duration": 0.0666667500000031,
          "durationTicks": 24,
          "midi": 38,
          "name": "D2",
          "ticks": 21696,
          "time": 60.266741999999994,
          "velocity": 0.8188976377952756
        },
        {
          "duration": 0.066666749999996,
          "durationTicks": 24,
          "midi": 38,
          "name": "D2",
          "ticks": 21744,
          "time": 60.4000755,
          "velocity": 0.8188976377952756
        },
        {
          "duration": 0.066666749999996,
          "durationTicks": 24,
          "midi": 37,
          "name": "C#2",
          "ticks": 21792,
          "time": 60.533409,
          "velocity": 0.8188976377952756
        },
        {
          "duration": 0.066666749999996,
          "durationTicks": 24,
          "midi": 37,
          "name": "C#2",
          "ticks": 21840,
          "time": 60.6667425,
          "velocity": 0.8188976377952756
        },
        {
          "duration": 0.2000002500000022,
          "durationTicks": 72,
          "midi": 49,
          "name": "C#3",
          "ticks": 21888,
          "time": 60.800076,
          "velocity": 0.7874015748031497
        },
        {
          "duration": 0.0666667500000031,
          "durationTicks": 24,
          "midi": 37,
          "name": "C#2",
          "ticks": 21888,
          "time": 60.800076,
          "velocity": 0.8188976377952756
        },
        {
          "duration": 0.0666667500000031,
          "durationTicks": 24,
          "midi": 37,
          "name": "C#2",
          "ticks": 21936,
          "time": 60.933409499999996,
          "velocity": 0.8188976377952756
        },
        {
          "duration": 0.0666667500000031,
          "durationTicks": 24,
          "midi": 30,
          "name": "F#1",
          "ticks": 21984,
          "time": 61.066742999999995,
          "velocity": 0.8188976377952756
        },
        {
          "duration": 0.0666667500000031,
          "durationTicks": 24,
          "midi": 30,
          "name": "F#1",
          "ticks": 22032,
          "time": 61.200076499999994,
          "velocity": 0.8188976377952756
        },
        {
          "duration": 0.2000002499999951,
          "durationTicks": 72,
          "midi": 42,
          "name": "F#2",
          "ticks": 22080,
          "time": 61.33341,
          "velocity": 0.7874015748031497
        },
        {
          "duration": 0.066666749999996,
          "durationTicks": 24,
          "midi": 30,
          "name": "F#1",
          "ticks": 22080,
          "time": 61.33341,
          "velocity": 0.8188976377952756
        },
        {
          "duration": 0.066666749999996,
          "durationTicks": 24,
          "midi": 30,
          "name": "F#1",
          "ticks": 22128,
          "time": 61.4667435,
          "velocity": 0.8188976377952756
        },
        {
          "duration": 0.066666749999996,
          "durationTicks": 24,
          "midi": 33,
          "name": "A1",
          "ticks": 22176,
          "time": 61.600077,
          "velocity": 0.8188976377952756
        },
        {
          "duration": 0.066666749999996,
          "durationTicks": 24,
          "midi": 33,
          "name": "A1",
          "ticks": 22224,
          "time": 61.7334105,
          "velocity": 0.8188976377952756
        },
        {
          "duration": 0.2000002500000022,
          "durationTicks": 72,
          "midi": 45,
          "name": "A2",
          "ticks": 22272,
          "time": 61.866744,
          "velocity": 0.7874015748031497
        },
        {
          "duration": 0.04444449999999733,
          "durationTicks": 16,
          "midi": 33,
          "name": "A1",
          "ticks": 22272,
          "time": 61.866744,
          "velocity": 0.8188976377952756
        },
        {
          "duration": 0.04444449999999733,
          "durationTicks": 16,
          "midi": 33,
          "name": "A1",
          "ticks": 22296,
          "time": 61.93341075,
          "velocity": 0.8188976377952756
        },
        {
          "duration": 0.04444449999999733,
          "durationTicks": 16,
          "midi": 33,
          "name": "A1",
          "ticks": 22320,
          "time": 62.000077499999996,
          "velocity": 0.8188976377952756
        },
        {
          "duration": 0.04444449999999733,
          "durationTicks": 16,
          "midi": 33,
          "name": "A1",
          "ticks": 22344,
          "time": 62.06674425,
          "velocity": 0.8188976377952756
        },
        {
          "duration": 0.0666667500000031,
          "durationTicks": 24,
          "midi": 38,
          "name": "D2",
          "ticks": 22368,
          "time": 62.133410999999995,
          "velocity": 0.8188976377952756
        },
        {
          "duration": 0.0666667500000031,
          "durationTicks": 24,
          "midi": 38,
          "name": "D2",
          "ticks": 22416,
          "time": 62.266744499999994,
          "velocity": 0.8188976377952756
        },
        {
          "duration": 0.2000002500000022,
          "durationTicks": 72,
          "midi": 50,
          "name": "D3",
          "ticks": 22464,
          "time": 62.40007799999999,
          "velocity": 0.7874015748031497
        },
        {
          "duration": 0.0666667500000031,
          "durationTicks": 24,
          "midi": 38,
          "name": "D2",
          "ticks": 22464,
          "time": 62.40007799999999,
          "velocity": 0.8188976377952756
        },
        {
          "duration": 0.066666749999996,
          "durationTicks": 24,
          "midi": 38,
          "name": "D2",
          "ticks": 22512,
          "time": 62.5334115,
          "velocity": 0.8188976377952756
        },
        {
          "duration": 0.066666749999996,
          "durationTicks": 24,
          "midi": 37,
          "name": "C#2",
          "ticks": 22560,
          "time": 62.666745,
          "velocity": 0.8188976377952756
        },
        {
          "duration": 0.066666749999996,
          "durationTicks": 24,
          "midi": 37,
          "name": "C#2",
          "ticks": 22608,
          "time": 62.8000785,
          "velocity": 0.8188976377952756
        },
        {
          "duration": 0.0666667500000031,
          "durationTicks": 24,
          "midi": 37,
          "name": "C#2",
          "ticks": 22656,
          "time": 62.933412,
          "velocity": 0.8188976377952756
        },
        {
          "duration": 0.2000002500000022,
          "durationTicks": 72,
          "midi": 49,
          "name": "C#3",
          "ticks": 22656,
          "time": 62.933412,
          "velocity": 0.7874015748031497
        },
        {
          "duration": 0.0666667500000031,
          "durationTicks": 24,
          "midi": 37,
          "name": "C#2",
          "ticks": 22704,
          "time": 63.066745499999996,
          "velocity": 0.8188976377952756
        },
        {
          "duration": 0.0666667500000031,
          "durationTicks": 24,
          "midi": 30,
          "name": "F#1",
          "ticks": 22752,
          "time": 63.200078999999995,
          "velocity": 0.8188976377952756
        },
        {
          "duration": 0.0666667500000031,
          "durationTicks": 24,
          "midi": 30,
          "name": "F#1",
          "ticks": 22800,
          "time": 63.333412499999994,
          "velocity": 0.8188976377952756
        },
        {
          "duration": 0.2000002499999951,
          "durationTicks": 72,
          "midi": 41,
          "name": "F2",
          "ticks": 22848,
          "time": 63.466746,
          "velocity": 0.7874015748031497
        },
        {
          "duration": 0.066666749999996,
          "durationTicks": 24,
          "midi": 29,
          "name": "F1",
          "ticks": 22848,
          "time": 63.466746,
          "velocity": 0.8188976377952756
        },
        {
          "duration": 0.066666749999996,
          "durationTicks": 24,
          "midi": 29,
          "name": "F1",
          "ticks": 22896,
          "time": 63.6000795,
          "velocity": 0.8188976377952756
        },
        {
          "duration": 0.04444449999999733,
          "durationTicks": 16,
          "midi": 28,
          "name": "E1",
          "ticks": 22944,
          "time": 63.733413,
          "velocity": 0.8188976377952756
        },
        {
          "duration": 0.04444449999999733,
          "durationTicks": 16,
          "midi": 28,
          "name": "E1",
          "ticks": 22968,
          "time": 63.800079749999995,
          "velocity": 0.8188976377952756
        },
        {
          "duration": 0.04444449999999733,
          "durationTicks": 16,
          "midi": 28,
          "name": "E1",
          "ticks": 22992,
          "time": 63.8667465,
          "velocity": 0.8188976377952756
        },
        {
          "duration": 0.04444449999999733,
          "durationTicks": 16,
          "midi": 28,
          "name": "E1",
          "ticks": 23016,
          "time": 63.933413249999994,
          "velocity": 0.8188976377952756
        },
        {
          "duration": 0.033333374999998,
          "durationTicks": 12,
          "midi": 38,
          "name": "D2",
          "ticks": 23136,
          "time": 64.266747,
          "velocity": 0.8188976377952756
        },
        {
          "duration": 0.03333337500001221,
          "durationTicks": 12,
          "midi": 38,
          "name": "D2",
          "ticks": 23160,
          "time": 64.33341374999999,
          "velocity": 0.8188976377952756
        },
        {
          "duration": 0.033333374999998,
          "durationTicks": 12,
          "midi": 38,
          "name": "D2",
          "ticks": 23184,
          "time": 64.4000805,
          "velocity": 0.8188976377952756
        },
        {
          "duration": 0.033333374999998,
          "durationTicks": 12,
          "midi": 38,
          "name": "D2",
          "ticks": 23208,
          "time": 64.46674725,
          "velocity": 0.8188976377952756
        },
        {
          "duration": 0.2000002500000022,
          "durationTicks": 72,
          "midi": 50,
          "name": "D3",
          "ticks": 23232,
          "time": 64.533414,
          "velocity": 0.7874015748031497
        },
        {
          "duration": 0.033333374999998,
          "durationTicks": 12,
          "midi": 38,
          "name": "D2",
          "ticks": 23232,
          "time": 64.533414,
          "velocity": 0.8188976377952756
        },
        {
          "duration": 0.033333374999998,
          "durationTicks": 12,
          "midi": 38,
          "name": "D2",
          "ticks": 23256,
          "time": 64.60008075,
          "velocity": 0.8188976377952756
        },
        {
          "duration": 0.033333374999998,
          "durationTicks": 12,
          "midi": 38,
          "name": "D2",
          "ticks": 23280,
          "time": 64.6667475,
          "velocity": 0.8188976377952756
        },
        {
          "duration": 0.033333374999998,
          "durationTicks": 12,
          "midi": 38,
          "name": "D2",
          "ticks": 23304,
          "time": 64.73341425,
          "velocity": 0.8188976377952756
        },
        {
          "duration": 0.03333337500001221,
          "durationTicks": 12,
          "midi": 37,
          "name": "C#2",
          "ticks": 23328,
          "time": 64.80008099999999,
          "velocity": 0.8188976377952756
        },
        {
          "duration": 0.033333374999998,
          "durationTicks": 12,
          "midi": 37,
          "name": "C#2",
          "ticks": 23352,
          "time": 64.86674775,
          "velocity": 0.8188976377952756
        },
        {
          "duration": 0.033333374999998,
          "durationTicks": 12,
          "midi": 37,
          "name": "C#2",
          "ticks": 23376,
          "time": 64.9334145,
          "velocity": 0.8188976377952756
        },
        {
          "duration": 0.033333374999998,
          "durationTicks": 12,
          "midi": 37,
          "name": "C#2",
          "ticks": 23400,
          "time": 65.00008125,
          "velocity": 0.8188976377952756
        },
        {
          "duration": 0.2000002500000022,
          "durationTicks": 72,
          "midi": 49,
          "name": "C#3",
          "ticks": 23424,
          "time": 65.06674799999999,
          "velocity": 0.7874015748031497
        },
        {
          "duration": 0.03333337500001221,
          "durationTicks": 12,
          "midi": 37,
          "name": "C#2",
          "ticks": 23424,
          "time": 65.06674799999999,
          "velocity": 0.8188976377952756
        },
        {
          "duration": 0.033333374999998,
          "durationTicks": 12,
          "midi": 37,
          "name": "C#2",
          "ticks": 23448,
          "time": 65.13341475,
          "velocity": 0.8188976377952756
        },
        {
          "duration": 0.033333374999998,
          "durationTicks": 12,
          "midi": 37,
          "name": "C#2",
          "ticks": 23472,
          "time": 65.2000815,
          "velocity": 0.8188976377952756
        },
        {
          "duration": 0.033333374999998,
          "durationTicks": 12,
          "midi": 37,
          "name": "C#2",
          "ticks": 23496,
          "time": 65.26674824999999,
          "velocity": 0.8188976377952756
        },
        {
          "duration": 0.033333374999998,
          "durationTicks": 12,
          "midi": 30,
          "name": "F#1",
          "ticks": 23520,
          "time": 65.333415,
          "velocity": 0.8188976377952756
        },
        {
          "duration": 0.033333374999998,
          "durationTicks": 12,
          "midi": 30,
          "name": "F#1",
          "ticks": 23544,
          "time": 65.40008175,
          "velocity": 0.8188976377952756
        },
        {
          "duration": 0.033333374999998,
          "durationTicks": 12,
          "midi": 30,
          "name": "F#1",
          "ticks": 23568,
          "time": 65.4667485,
          "velocity": 0.8188976377952756
        },
        {
          "duration": 0.03333337500001221,
          "durationTicks": 12,
          "midi": 30,
          "name": "F#1",
          "ticks": 23592,
          "time": 65.53341524999999,
          "velocity": 0.8188976377952756
        },
        {
          "duration": 0.2000002500000022,
          "durationTicks": 72,
          "midi": 42,
          "name": "F#2",
          "ticks": 23616,
          "time": 65.600082,
          "velocity": 0.7874015748031497
        },
        {
          "duration": 0.033333374999998,
          "durationTicks": 12,
          "midi": 30,
          "name": "F#1",
          "ticks": 23616,
          "time": 65.600082,
          "velocity": 0.8188976377952756
        },
        {
          "duration": 0.033333374999998,
          "durationTicks": 12,
          "midi": 30,
          "name": "F#1",
          "ticks": 23640,
          "time": 65.66674875,
          "velocity": 0.8188976377952756
        },
        {
          "duration": 0.033333374999998,
          "durationTicks": 12,
          "midi": 30,
          "name": "F#1",
          "ticks": 23664,
          "time": 65.73341549999999,
          "velocity": 0.8188976377952756
        },
        {
          "duration": 0.033333374999998,
          "durationTicks": 12,
          "midi": 30,
          "name": "F#1",
          "ticks": 23688,
          "time": 65.80008225,
          "velocity": 0.8188976377952756
        },
        {
          "duration": 0.033333374999998,
          "durationTicks": 12,
          "midi": 33,
          "name": "A1",
          "ticks": 23712,
          "time": 65.866749,
          "velocity": 0.8188976377952756
        },
        {
          "duration": 0.033333374999998,
          "durationTicks": 12,
          "midi": 33,
          "name": "A1",
          "ticks": 23736,
          "time": 65.93341575,
          "velocity": 0.8188976377952756
        },
        {
          "duration": 0.03333337500001221,
          "durationTicks": 12,
          "midi": 33,
          "name": "A1",
          "ticks": 23760,
          "time": 66.00008249999999,
          "velocity": 0.8188976377952756
        },
        {
          "duration": 0.033333374999998,
          "durationTicks": 12,
          "midi": 33,
          "name": "A1",
          "ticks": 23784,
          "time": 66.06674925,
          "velocity": 0.8188976377952756
        },
        {
          "duration": 0.033333374999998,
          "durationTicks": 12,
          "midi": 34,
          "name": "A#1",
          "ticks": 23808,
          "time": 66.133416,
          "velocity": 0.8188976377952756
        },
        {
          "duration": 0.2000002500000022,
          "durationTicks": 72,
          "midi": 46,
          "name": "A#2",
          "ticks": 23808,
          "time": 66.133416,
          "velocity": 0.7874015748031497
        },
        {
          "duration": 0.033333374999998,
          "durationTicks": 12,
          "midi": 34,
          "name": "A#1",
          "ticks": 23832,
          "time": 66.20008274999999,
          "velocity": 0.8188976377952756
        },
        {
          "duration": 0.033333374999998,
          "durationTicks": 12,
          "midi": 34,
          "name": "A#1",
          "ticks": 23856,
          "time": 66.2667495,
          "velocity": 0.8188976377952756
        },
        {
          "duration": 0.033333374999998,
          "durationTicks": 12,
          "midi": 34,
          "name": "A#1",
          "ticks": 23880,
          "time": 66.33341625,
          "velocity": 0.8188976377952756
        },
        {
          "duration": 0.066666749999996,
          "durationTicks": 24,
          "midi": 35,
          "name": "B1",
          "ticks": 23904,
          "time": 66.400083,
          "velocity": 0.8188976377952756
        },
        {
          "duration": 0.066666749999996,
          "durationTicks": 24,
          "midi": 35,
          "name": "B1",
          "ticks": 23952,
          "time": 66.5334165,
          "velocity": 0.8188976377952756
        },
        {
          "duration": 0.06666675000001021,
          "durationTicks": 24,
          "midi": 37,
          "name": "C#2",
          "ticks": 24096,
          "time": 66.93341699999999,
          "velocity": 0.8188976377952756
        },
        {
          "duration": 0.066666749999996,
          "durationTicks": 24,
          "midi": 37,
          "name": "C#2",
          "ticks": 24144,
          "time": 67.0667505,
          "velocity": 0.8188976377952756
        },
        {
          "duration": 0.066666749999996,
          "durationTicks": 24,
          "midi": 30,
          "name": "F#1",
          "ticks": 24288,
          "time": 67.466751,
          "velocity": 0.8188976377952756
        },
        {
          "duration": 0.066666749999996,
          "durationTicks": 24,
          "midi": 37,
          "name": "C#2",
          "ticks": 24384,
          "time": 67.733418,
          "velocity": 0.8188976377952756
        },
        {
          "duration": 0.066666749999996,
          "durationTicks": 24,
          "midi": 30,
          "name": "F#1",
          "ticks": 24480,
          "time": 68.000085,
          "velocity": 0.8188976377952756
        },
        {
          "duration": 0.066666749999996,
          "durationTicks": 24,
          "midi": 29,
          "name": "F1",
          "ticks": 24576,
          "time": 68.266752,
          "velocity": 0.8188976377952756
        },
        {
          "duration": 0.066666749999996,
          "durationTicks": 24,
          "midi": 35,
          "name": "B1",
          "ticks": 24672,
          "time": 68.533419,
          "velocity": 0.8188976377952756
        },
        {
          "duration": 0.066666749999996,
          "durationTicks": 24,
          "midi": 35,
          "name": "B1",
          "ticks": 24720,
          "time": 68.6667525,
          "velocity": 0.8188976377952756
        },
        {
          "duration": 0.06666675000001021,
          "durationTicks": 24,
          "midi": 37,
          "name": "C#2",
          "ticks": 24864,
          "time": 69.06675299999999,
          "velocity": 0.8188976377952756
        },
        {
          "duration": 0.066666749999996,
          "durationTicks": 24,
          "midi": 37,
          "name": "C#2",
          "ticks": 24912,
          "time": 69.2000865,
          "velocity": 0.8188976377952756
        },
        {
          "duration": 0.036111156250001386,
          "durationTicks": 13,
          "midi": 30,
          "name": "F#1",
          "ticks": 25056,
          "time": 69.600087,
          "velocity": 0.8188976377952756
        },
        {
          "duration": 0.036111156250001386,
          "durationTicks": 13,
          "midi": 37,
          "name": "C#2",
          "ticks": 25080,
          "time": 69.66675375,
          "velocity": 0.8188976377952756
        },
        {
          "duration": 0.036111156250001386,
          "durationTicks": 13,
          "midi": 35,
          "name": "B1",
          "ticks": 25104,
          "time": 69.7334205,
          "velocity": 0.8188976377952756
        },
        {
          "duration": 0.0361111562500156,
          "durationTicks": 13,
          "midi": 30,
          "name": "F#1",
          "ticks": 25128,
          "time": 69.80008724999999,
          "velocity": 0.8188976377952756
        },
        {
          "duration": 0.036111156250001386,
          "durationTicks": 13,
          "midi": 37,
          "name": "C#2",
          "ticks": 25152,
          "time": 69.866754,
          "velocity": 0.8188976377952756
        },
        {
          "duration": 0.036111156250001386,
          "durationTicks": 13,
          "midi": 44,
          "name": "G#2",
          "ticks": 25176,
          "time": 69.93342075,
          "velocity": 0.8188976377952756
        },
        {
          "duration": 0.0361111562500156,
          "durationTicks": 13,
          "midi": 42,
          "name": "F#2",
          "ticks": 25200,
          "time": 70.00008749999999,
          "velocity": 0.8188976377952756
        },
        {
          "duration": 0.036111156250001386,
          "durationTicks": 13,
          "midi": 37,
          "name": "C#2",
          "ticks": 25224,
          "time": 70.06675425,
          "velocity": 0.8188976377952756
        },
        {
          "duration": 0.2666669999999982,
          "durationTicks": 96,
          "midi": 30,
          "name": "F#1",
          "ticks": 25248,
          "time": 70.133421,
          "velocity": 0.8188976377952756
        },
        {
          "duration": 0.066666749999996,
          "durationTicks": 24,
          "midi": 22,
          "name": "A#0",
          "ticks": 26592,
          "time": 73.866759,
          "velocity": 0.8188976377952756
        },
        {
          "duration": 0.066666749999996,
          "durationTicks": 24,
          "midi": 34,
          "name": "A#1",
          "ticks": 26592,
          "time": 73.866759,
          "velocity": 0.8188976377952756
        },
        {
          "duration": 0.066666749999996,
          "durationTicks": 24,
          "midi": 22,
          "name": "A#0",
          "ticks": 26640,
          "time": 74.0000925,
          "velocity": 0.8188976377952756
        },
        {
          "duration": 0.066666749999996,
          "durationTicks": 24,
          "midi": 34,
          "name": "A#1",
          "ticks": 26640,
          "time": 74.0000925,
          "velocity": 0.8188976377952756
        },
        {
          "duration": 0.066666749999996,
          "durationTicks": 24,
          "midi": 22,
          "name": "A#0",
          "ticks": 26688,
          "time": 74.133426,
          "velocity": 0.8188976377952756
        },
        {
          "duration": 0.066666749999996,
          "durationTicks": 24,
          "midi": 34,
          "name": "A#1",
          "ticks": 26688,
          "time": 74.133426,
          "velocity": 0.8188976377952756
        },
        {
          "duration": 0.06666675000001021,
          "durationTicks": 24,
          "midi": 22,
          "name": "A#0",
          "ticks": 26736,
          "time": 74.26675949999999,
          "velocity": 0.8188976377952756
        },
        {
          "duration": 0.06666675000001021,
          "durationTicks": 24,
          "midi": 34,
          "name": "A#1",
          "ticks": 26736,
          "time": 74.26675949999999,
          "velocity": 0.8188976377952756
        },
        {
          "duration": 0.06666675000001021,
          "durationTicks": 24,
          "midi": 27,
          "name": "D#1",
          "ticks": 27168,
          "time": 75.46676099999999,
          "velocity": 0.8188976377952756
        },
        {
          "duration": 0.025000031250002053,
          "durationTicks": 9,
          "midi": 39,
          "name": "D#2",
          "ticks": 27216,
          "time": 75.6000945,
          "velocity": 0.8188976377952756
        },
        {
          "duration": 0.025000031250002053,
          "durationTicks": 9,
          "midi": 39,
          "name": "D#2",
          "ticks": 27228,
          "time": 75.633427875,
          "velocity": 0.8188976377952756
        },
        {
          "duration": 0.025000031250002053,
          "durationTicks": 9,
          "midi": 39,
          "name": "D#2",
          "ticks": 27240,
          "time": 75.66676125,
          "velocity": 0.8188976377952756
        },
        {
          "duration": 0.025000031250002053,
          "durationTicks": 9,
          "midi": 39,
          "name": "D#2",
          "ticks": 27252,
          "time": 75.70009462499999,
          "velocity": 0.8188976377952756
        },
        {
          "duration": 0.200000249999988,
          "durationTicks": 72,
          "midi": 27,
          "name": "D#1",
          "ticks": 27264,
          "time": 75.733428,
          "velocity": 0.8188976377952756
        },
        {
          "duration": 0.200000249999988,
          "durationTicks": 72,
          "midi": 27,
          "name": "D#1",
          "ticks": 27360,
          "time": 76.000095,
          "velocity": 0.8188976377952756
        },
        {
          "duration": 0.2000002500000022,
          "durationTicks": 72,
          "midi": 27,
          "name": "D#1",
          "ticks": 27456,
          "time": 76.266762,
          "velocity": 0.8188976377952756
        },
        {
          "duration": 0.033333374999998,
          "durationTicks": 12,
          "midi": 27,
          "name": "D#1",
          "ticks": 27552,
          "time": 76.533429,
          "velocity": 0.8188976377952756
        },
        {
          "duration": 0.033333374999998,
          "durationTicks": 12,
          "midi": 27,
          "name": "D#1",
          "ticks": 27576,
          "time": 76.60009575,
          "velocity": 0.8188976377952756
        },
        {
          "duration": 0.03333337500001221,
          "durationTicks": 12,
          "midi": 27,
          "name": "D#1",
          "ticks": 27600,
          "time": 76.66676249999999,
          "velocity": 0.8188976377952756
        },
        {
          "duration": 0.033333374999998,
          "durationTicks": 12,
          "midi": 27,
          "name": "D#1",
          "ticks": 27624,
          "time": 76.73342925,
          "velocity": 0.8188976377952756
        },
        {
          "duration": 0.066666749999996,
          "durationTicks": 24,
          "midi": 27,
          "name": "D#1",
          "ticks": 27648,
          "time": 76.800096,
          "velocity": 0.8188976377952756
        },
        {
          "duration": 0.066666749999996,
          "durationTicks": 24,
          "midi": 27,
          "name": "D#1",
          "ticks": 27696,
          "time": 76.9334295,
          "velocity": 0.8188976377952756
        },
        {
          "duration": 0.2000002500000022,
          "durationTicks": 72,
          "midi": 27,
          "name": "D#1",
          "ticks": 27744,
          "time": 77.066763,
          "velocity": 0.8188976377952756
        },
        {
          "duration": 0.06666675000001021,
          "durationTicks": 24,
          "midi": 27,
          "name": "D#1",
          "ticks": 27840,
          "time": 77.33342999999999,
          "velocity": 0.8188976377952756
        },
        {
          "duration": 0.066666749999996,
          "durationTicks": 24,
          "midi": 27,
          "name": "D#1",
          "ticks": 27888,
          "time": 77.4667635,
          "velocity": 0.8188976377952756
        },
        {
          "duration": 0.06666675000001021,
          "durationTicks": 24,
          "midi": 27,
          "name": "D#1",
          "ticks": 27936,
          "time": 77.60009699999999,
          "velocity": 0.8188976377952756
        },
        {
          "duration": 0.066666749999996,
          "durationTicks": 24,
          "midi": 27,
          "name": "D#1",
          "ticks": 28008,
          "time": 77.80009725,
          "velocity": 0.8188976377952756
        },
        {
          "duration": 0.066666749999996,
          "durationTicks": 24,
          "midi": 27,
          "name": "D#1",
          "ticks": 28080,
          "time": 78.0000975,
          "velocity": 0.8188976377952756
        },
        {
          "duration": 0.066666749999996,
          "durationTicks": 24,
          "midi": 27,
          "name": "D#1",
          "ticks": 28128,
          "time": 78.133431,
          "velocity": 0.8188976377952756
        },
        {
          "duration": 0.066666749999996,
          "durationTicks": 24,
          "midi": 27,
          "name": "D#1",
          "ticks": 28176,
          "time": 78.2667645,
          "velocity": 0.8188976377952756
        },
        {
          "duration": 0.2000002500000022,
          "durationTicks": 72,
          "midi": 39,
          "name": "D#2",
          "ticks": 28224,
          "time": 78.400098,
          "velocity": 0.8188976377952756
        },
        {
          "duration": 0.2000002500000022,
          "durationTicks": 72,
          "midi": 27,
          "name": "D#1",
          "ticks": 28224,
          "time": 78.400098,
          "velocity": 0.8188976377952756
        },
        {
          "duration": 0.033333374999998,
          "durationTicks": 12,
          "midi": 27,
          "name": "D#1",
          "ticks": 28320,
          "time": 78.666765,
          "velocity": 0.8188976377952756
        },
        {
          "duration": 0.033333374999998,
          "durationTicks": 12,
          "midi": 27,
          "name": "D#1",
          "ticks": 28344,
          "time": 78.73343175,
          "velocity": 0.8188976377952756
        },
        {
          "duration": 0.033333374999998,
          "durationTicks": 12,
          "midi": 27,
          "name": "D#1",
          "ticks": 28392,
          "time": 78.86676525,
          "velocity": 0.8188976377952756
        },
        {
          "duration": 0.033333374999998,
          "durationTicks": 12,
          "midi": 27,
          "name": "D#1",
          "ticks": 28416,
          "time": 78.933432,
          "velocity": 0.8188976377952756
        },
        {
          "duration": 0.066666749999996,
          "durationTicks": 24,
          "midi": 27,
          "name": "D#1",
          "ticks": 28464,
          "time": 79.0667655,
          "velocity": 0.8188976377952756
        },
        {
          "duration": 0.066666749999996,
          "durationTicks": 24,
          "midi": 27,
          "name": "D#1",
          "ticks": 28512,
          "time": 79.200099,
          "velocity": 0.8188976377952756
        },
        {
          "duration": 0.066666749999996,
          "durationTicks": 24,
          "midi": 39,
          "name": "D#2",
          "ticks": 28560,
          "time": 79.3334325,
          "velocity": 0.8188976377952756
        },
        {
          "duration": 0.06666675000001021,
          "durationTicks": 24,
          "midi": 27,
          "name": "D#1",
          "ticks": 28608,
          "time": 79.46676599999999,
          "velocity": 0.8188976377952756
        },
        {
          "duration": 0.033333374999998,
          "durationTicks": 12,
          "midi": 27,
          "name": "D#1",
          "ticks": 28656,
          "time": 79.6000995,
          "velocity": 0.8188976377952756
        },
        {
          "duration": 0.033333374999998,
          "durationTicks": 12,
          "midi": 27,
          "name": "D#1",
          "ticks": 28680,
          "time": 79.66676625,
          "velocity": 0.8188976377952756
        },
        {
          "duration": 0.033333374999998,
          "durationTicks": 12,
          "midi": 27,
          "name": "D#1",
          "ticks": 28752,
          "time": 79.8667665,
          "velocity": 0.8188976377952756
        },
        {
          "duration": 0.200000249999988,
          "durationTicks": 72,
          "midi": 27,
          "name": "D#1",
          "ticks": 28800,
          "time": 80.0001,
          "velocity": 0.8188976377952756
        },
        {
          "duration": 0.100000124999994,
          "durationTicks": 36,
          "midi": 27,
          "name": "D#1",
          "ticks": 28896,
          "time": 80.266767,
          "velocity": 0.8188976377952756
        },
        {
          "duration": 0.10000012500000821,
          "durationTicks": 36,
          "midi": 27,
          "name": "D#1",
          "ticks": 28944,
          "time": 80.4001005,
          "velocity": 0.8188976377952756
        },
        {
          "duration": 0.100000124999994,
          "durationTicks": 36,
          "midi": 27,
          "name": "D#1",
          "ticks": 28992,
          "time": 80.533434,
          "velocity": 0.8188976377952756
        },
        {
          "duration": 0.033333374999998,
          "durationTicks": 12,
          "midi": 27,
          "name": "D#1",
          "ticks": 29040,
          "time": 80.66676749999999,
          "velocity": 0.8188976377952756
        },
        {
          "duration": 0.033333374999998,
          "durationTicks": 12,
          "midi": 27,
          "name": "D#1",
          "ticks": 29064,
          "time": 80.73343425,
          "velocity": 0.8188976377952756
        },
        {
          "duration": 0.033333374999998,
          "durationTicks": 12,
          "midi": 27,
          "name": "D#1",
          "ticks": 29088,
          "time": 80.800101,
          "velocity": 0.8188976377952756
        },
        {
          "duration": 0.033333374999998,
          "durationTicks": 12,
          "midi": 27,
          "name": "D#1",
          "ticks": 29112,
          "time": 80.86676775,
          "velocity": 0.8188976377952756
        },
        {
          "duration": 0.03333337500001221,
          "durationTicks": 12,
          "midi": 27,
          "name": "D#1",
          "ticks": 29136,
          "time": 80.93343449999999,
          "velocity": 0.8188976377952756
        },
        {
          "duration": 0.033333374999998,
          "durationTicks": 12,
          "midi": 27,
          "name": "D#1",
          "ticks": 29160,
          "time": 81.00010125,
          "velocity": 0.8188976377952756
        },
        {
          "duration": 0.033333374999998,
          "durationTicks": 12,
          "midi": 27,
          "name": "D#1",
          "ticks": 29184,
          "time": 81.066768,
          "velocity": 0.8188976377952756
        },
        {
          "duration": 0.033333374999998,
          "durationTicks": 12,
          "midi": 27,
          "name": "D#1",
          "ticks": 29208,
          "time": 81.13343474999999,
          "velocity": 0.8188976377952756
        },
        {
          "duration": 0.033333374999998,
          "durationTicks": 12,
          "midi": 27,
          "name": "D#1",
          "ticks": 29232,
          "time": 81.2001015,
          "velocity": 0.8188976377952756
        },
        {
          "duration": 0.033333374999998,
          "durationTicks": 12,
          "midi": 27,
          "name": "D#1",
          "ticks": 29256,
          "time": 81.26676825,
          "velocity": 0.8188976377952756
        },
        {
          "duration": 0.033333374999998,
          "durationTicks": 12,
          "midi": 27,
          "name": "D#1",
          "ticks": 29280,
          "time": 81.333435,
          "velocity": 0.8188976377952756
        },
        {
          "duration": 0.03333337500001221,
          "durationTicks": 12,
          "midi": 27,
          "name": "D#1",
          "ticks": 29304,
          "time": 81.40010174999999,
          "velocity": 0.8188976377952756
        },
        {
          "duration": 0.033333374999998,
          "durationTicks": 12,
          "midi": 27,
          "name": "D#1",
          "ticks": 29328,
          "time": 81.4667685,
          "velocity": 0.8188976377952756
        },
        {
          "duration": 0.033333374999998,
          "durationTicks": 12,
          "midi": 27,
          "name": "D#1",
          "ticks": 29352,
          "time": 81.53343525,
          "velocity": 0.8188976377952756
        },
        {
          "duration": 0.033333374999998,
          "durationTicks": 12,
          "midi": 27,
          "name": "D#1",
          "ticks": 29376,
          "time": 81.60010199999999,
          "velocity": 0.8188976377952756
        },
        {
          "duration": 0.03333337500001221,
          "durationTicks": 12,
          "midi": 27,
          "name": "D#1",
          "ticks": 29472,
          "time": 81.86676899999999,
          "velocity": 0.8188976377952756
        },
        {
          "duration": 0.033333374999998,
          "durationTicks": 12,
          "midi": 27,
          "name": "D#1",
          "ticks": 29496,
          "time": 81.93343575,
          "velocity": 0.8188976377952756
        },
        {
          "duration": 0.033333374999998,
          "durationTicks": 12,
          "midi": 27,
          "name": "D#1",
          "ticks": 29520,
          "time": 82.0001025,
          "velocity": 0.8188976377952756
        },
        {
          "duration": 0.033333374999998,
          "durationTicks": 12,
          "midi": 27,
          "name": "D#1",
          "ticks": 29544,
          "time": 82.06676925,
          "velocity": 0.8188976377952756
        },
        {
          "duration": 0.033333374999998,
          "durationTicks": 12,
          "midi": 27,
          "name": "D#1",
          "ticks": 29664,
          "time": 82.400103,
          "velocity": 0.8188976377952756
        },
        {
          "duration": 0.033333374999998,
          "durationTicks": 12,
          "midi": 27,
          "name": "D#1",
          "ticks": 29688,
          "time": 82.46676975,
          "velocity": 0.8188976377952756
        },
        {
          "duration": 0.033333374999998,
          "durationTicks": 12,
          "midi": 27,
          "name": "D#1",
          "ticks": 29712,
          "time": 82.5334365,
          "velocity": 0.8188976377952756
        },
        {
          "duration": 0.03333337500001221,
          "durationTicks": 12,
          "midi": 27,
          "name": "D#1",
          "ticks": 29736,
          "time": 82.60010324999999,
          "velocity": 0.8188976377952756
        },
        {
          "duration": 0.033333374999998,
          "durationTicks": 12,
          "midi": 27,
          "name": "D#1",
          "ticks": 29856,
          "time": 82.933437,
          "velocity": 0.8188976377952756
        },
        {
          "duration": 0.033333374999998,
          "durationTicks": 12,
          "midi": 27,
          "name": "D#1",
          "ticks": 29880,
          "time": 83.00010375,
          "velocity": 0.8188976377952756
        },
        {
          "duration": 0.03333337500001221,
          "durationTicks": 12,
          "midi": 27,
          "name": "D#1",
          "ticks": 29904,
          "time": 83.06677049999999,
          "velocity": 0.8188976377952756
        },
        {
          "duration": 0.033333374999998,
          "durationTicks": 12,
          "midi": 27,
          "name": "D#1",
          "ticks": 29928,
          "time": 83.13343725,
          "velocity": 0.8188976377952756
        },
        {
          "duration": 0.13055571875000282,
          "durationTicks": 47,
          "midi": 27,
          "name": "D#1",
          "ticks": 30240,
          "time": 84.00010499999999,
          "velocity": 0.84251968503937
        },
        {
          "duration": 0.030555593749994614,
          "durationTicks": 11,
          "midi": 39,
          "name": "D#2",
          "ticks": 30336,
          "time": 84.266772,
          "velocity": 0.84251968503937
        },
        {
          "duration": 0.030555593749994614,
          "durationTicks": 11,
          "midi": 39,
          "name": "D#2",
          "ticks": 30360,
          "time": 84.33343875,
          "velocity": 0.84251968503937
        },
        {
          "duration": 0.13055571875000282,
          "durationTicks": 47,
          "midi": 27,
          "name": "D#1",
          "ticks": 30384,
          "time": 84.4001055,
          "velocity": 0.84251968503937
        },
        {
          "duration": 0.030555593749994614,
          "durationTicks": 11,
          "midi": 39,
          "name": "D#2",
          "ticks": 30456,
          "time": 84.60010575,
          "velocity": 0.84251968503937
        },
        {
          "duration": 0.030555593749994614,
          "durationTicks": 11,
          "midi": 39,
          "name": "D#2",
          "ticks": 30480,
          "time": 84.6667725,
          "velocity": 0.84251968503937
        },
        {
          "duration": 0.13055571874998861,
          "durationTicks": 47,
          "midi": 27,
          "name": "D#1",
          "ticks": 30528,
          "time": 84.800106,
          "velocity": 0.84251968503937
        },
        {
          "duration": 0.13055571874998861,
          "durationTicks": 47,
          "midi": 27,
          "name": "D#1",
          "ticks": 30624,
          "time": 85.066773,
          "velocity": 0.84251968503937
        },
        {
          "duration": 0.030555593749994614,
          "durationTicks": 11,
          "midi": 39,
          "name": "D#2",
          "ticks": 30720,
          "time": 85.33344,
          "velocity": 0.84251968503937
        },
        {
          "duration": 0.030555593749994614,
          "durationTicks": 11,
          "midi": 27,
          "name": "D#1",
          "ticks": 30768,
          "time": 85.4667735,
          "velocity": 0.84251968503937
        },
        {
          "duration": 0.030555593749994614,
          "durationTicks": 11,
          "midi": 27,
          "name": "D#1",
          "ticks": 30792,
          "time": 85.53344025,
          "velocity": 0.84251968503937
        },
        {
          "duration": 0.06388896875000682,
          "durationTicks": 23,
          "midi": 27,
          "name": "D#1",
          "ticks": 31008,
          "time": 86.13344099999999,
          "velocity": 0.84251968503937
        },
        {
          "duration": 0.06388896875000682,
          "durationTicks": 23,
          "midi": 39,
          "name": "D#2",
          "ticks": 31008,
          "time": 86.13344099999999,
          "velocity": 0.7244094488188977
        },
        {
          "duration": 0.06388896874999261,
          "durationTicks": 23,
          "midi": 27,
          "name": "D#1",
          "ticks": 31056,
          "time": 86.2667745,
          "velocity": 0.84251968503937
        },
        {
          "duration": 0.06388896874999261,
          "durationTicks": 23,
          "midi": 39,
          "name": "D#2",
          "ticks": 31056,
          "time": 86.2667745,
          "velocity": 0.7244094488188977
        },
        {
          "duration": 0.06388896875000682,
          "durationTicks": 23,
          "midi": 39,
          "name": "D#2",
          "ticks": 31104,
          "time": 86.40010799999999,
          "velocity": 0.7244094488188977
        },
        {
          "duration": 0.06388896875000682,
          "durationTicks": 23,
          "midi": 27,
          "name": "D#1",
          "ticks": 31104,
          "time": 86.40010799999999,
          "velocity": 0.84251968503937
        },
        {
          "duration": 0.06388896874999261,
          "durationTicks": 23,
          "midi": 27,
          "name": "D#1",
          "ticks": 31152,
          "time": 86.5334415,
          "velocity": 0.84251968503937
        },
        {
          "duration": 0.06388896874999261,
          "durationTicks": 23,
          "midi": 39,
          "name": "D#2",
          "ticks": 31152,
          "time": 86.5334415,
          "velocity": 0.7244094488188977
        },
        {
          "duration": 0.06388896874999261,
          "durationTicks": 23,
          "midi": 27,
          "name": "D#1",
          "ticks": 31200,
          "time": 86.666775,
          "velocity": 0.84251968503937
        },
        {
          "duration": 0.06388896874999261,
          "durationTicks": 23,
          "midi": 39,
          "name": "D#2",
          "ticks": 31200,
          "time": 86.666775,
          "velocity": 0.7244094488188977
        },
        {
          "duration": 0.06388896874999261,
          "durationTicks": 23,
          "midi": 39,
          "name": "D#2",
          "ticks": 31248,
          "time": 86.8001085,
          "velocity": 0.7244094488188977
        },
        {
          "duration": 0.06388896874999261,
          "durationTicks": 23,
          "midi": 27,
          "name": "D#1",
          "ticks": 31248,
          "time": 86.8001085,
          "velocity": 0.84251968503937
        },
        {
          "duration": 0.06388896874999261,
          "durationTicks": 23,
          "midi": 39,
          "name": "D#2",
          "ticks": 31296,
          "time": 86.933442,
          "velocity": 0.7244094488188977
        },
        {
          "duration": 0.06388896874999261,
          "durationTicks": 23,
          "midi": 27,
          "name": "D#1",
          "ticks": 31296,
          "time": 86.933442,
          "velocity": 0.84251968503937
        },
        {
          "duration": 0.06388896874999261,
          "durationTicks": 23,
          "midi": 39,
          "name": "D#2",
          "ticks": 31344,
          "time": 87.06677549999999,
          "velocity": 0.7244094488188977
        },
        {
          "duration": 0.06388896874999261,
          "durationTicks": 23,
          "midi": 27,
          "name": "D#1",
          "ticks": 31344,
          "time": 87.06677549999999,
          "velocity": 0.84251968503937
        },
        {
          "duration": 0.06388896874999261,
          "durationTicks": 23,
          "midi": 39,
          "name": "D#2",
          "ticks": 31392,
          "time": 87.200109,
          "velocity": 0.7244094488188977
        },
        {
          "duration": 0.06388896874999261,
          "durationTicks": 23,
          "midi": 27,
          "name": "D#1",
          "ticks": 31392,
          "time": 87.200109,
          "velocity": 0.84251968503937
        },
        {
          "duration": 0.06388896875000682,
          "durationTicks": 23,
          "midi": 39,
          "name": "D#2",
          "ticks": 31440,
          "time": 87.33344249999999,
          "velocity": 0.7244094488188977
        },
        {
          "duration": 0.06388896875000682,
          "durationTicks": 23,
          "midi": 27,
          "name": "D#1",
          "ticks": 31440,
          "time": 87.33344249999999,
          "velocity": 0.84251968503937
        },
        {
          "duration": 0.06388896874999261,
          "durationTicks": 23,
          "midi": 27,
          "name": "D#1",
          "ticks": 31488,
          "time": 87.466776,
          "velocity": 0.84251968503937
        },
        {
          "duration": 0.06388896874999261,
          "durationTicks": 23,
          "midi": 39,
          "name": "D#2",
          "ticks": 31488,
          "time": 87.466776,
          "velocity": 0.7244094488188977
        },
        {
          "duration": 0.06388896874999261,
          "durationTicks": 23,
          "midi": 27,
          "name": "D#1",
          "ticks": 31536,
          "time": 87.6001095,
          "velocity": 0.84251968503937
        },
        {
          "duration": 0.06388896874999261,
          "durationTicks": 23,
          "midi": 39,
          "name": "D#2",
          "ticks": 31536,
          "time": 87.6001095,
          "velocity": 0.7244094488188977
        },
        {
          "duration": 0.06388896874999261,
          "durationTicks": 23,
          "midi": 39,
          "name": "D#2",
          "ticks": 31584,
          "time": 87.733443,
          "velocity": 0.7244094488188977
        },
        {
          "duration": 0.06388896874999261,
          "durationTicks": 23,
          "midi": 27,
          "name": "D#1",
          "ticks": 31584,
          "time": 87.733443,
          "velocity": 0.84251968503937
        },
        {
          "duration": 0.06388896874999261,
          "durationTicks": 23,
          "midi": 39,
          "name": "D#2",
          "ticks": 31632,
          "time": 87.8667765,
          "velocity": 0.7244094488188977
        },
        {
          "duration": 0.06388896874999261,
          "durationTicks": 23,
          "midi": 27,
          "name": "D#1",
          "ticks": 31632,
          "time": 87.8667765,
          "velocity": 0.84251968503937
        },
        {
          "duration": 0.13055571875000282,
          "durationTicks": 47,
          "midi": 27,
          "name": "D#1",
          "ticks": 31776,
          "time": 88.26677699999999,
          "velocity": 0.84251968503937
        },
        {
          "duration": 0.030555593749994614,
          "durationTicks": 11,
          "midi": 39,
          "name": "D#2",
          "ticks": 31872,
          "time": 88.533444,
          "velocity": 0.84251968503937
        },
        {
          "duration": 0.030555593749994614,
          "durationTicks": 11,
          "midi": 39,
          "name": "D#2",
          "ticks": 31896,
          "time": 88.60011075,
          "velocity": 0.84251968503937
        },
        {
          "duration": 0.13055571875000282,
          "durationTicks": 47,
          "midi": 27,
          "name": "D#1",
          "ticks": 31920,
          "time": 88.6667775,
          "velocity": 0.84251968503937
        },
        {
          "duration": 0.030555593749994614,
          "durationTicks": 11,
          "midi": 39,
          "name": "D#2",
          "ticks": 31992,
          "time": 88.86677775,
          "velocity": 0.84251968503937
        },
        {
          "duration": 0.030555593749994614,
          "durationTicks": 11,
          "midi": 39,
          "name": "D#2",
          "ticks": 32016,
          "time": 88.9334445,
          "velocity": 0.84251968503937
        },
        {
          "duration": 0.13055571874998861,
          "durationTicks": 47,
          "midi": 27,
          "name": "D#1",
          "ticks": 32064,
          "time": 89.066778,
          "velocity": 0.84251968503937
        },
        {
          "duration": 0.13055571874998861,
          "durationTicks": 47,
          "midi": 27,
          "name": "D#1",
          "ticks": 32160,
          "time": 89.333445,
          "velocity": 0.84251968503937
        },
        {
          "duration": 0.030555593749994614,
          "durationTicks": 11,
          "midi": 39,
          "name": "D#2",
          "ticks": 32256,
          "time": 89.600112,
          "velocity": 0.84251968503937
        },
        {
          "duration": 0.030555593749994614,
          "durationTicks": 11,
          "midi": 27,
          "name": "D#1",
          "ticks": 32304,
          "time": 89.7334455,
          "velocity": 0.84251968503937
        },
        {
          "duration": 0.030555593749994614,
          "durationTicks": 11,
          "midi": 27,
          "name": "D#1",
          "ticks": 32328,
          "time": 89.80011225,
          "velocity": 0.84251968503937
        },
        {
          "duration": 0.06388896875000682,
          "durationTicks": 23,
          "midi": 39,
          "name": "D#2",
          "ticks": 32544,
          "time": 90.40011299999999,
          "velocity": 0.7244094488188977
        },
        {
          "duration": 0.06388896875000682,
          "durationTicks": 23,
          "midi": 27,
          "name": "D#1",
          "ticks": 32544,
          "time": 90.40011299999999,
          "velocity": 0.84251968503937
        },
        {
          "duration": 0.06388896874999261,
          "durationTicks": 23,
          "midi": 39,
          "name": "D#2",
          "ticks": 32592,
          "time": 90.5334465,
          "velocity": 0.7244094488188977
        },
        {
          "duration": 0.06388896874999261,
          "durationTicks": 23,
          "midi": 27,
          "name": "D#1",
          "ticks": 32592,
          "time": 90.5334465,
          "velocity": 0.84251968503937
        },
        {
          "duration": 0.06388896875000682,
          "durationTicks": 23,
          "midi": 27,
          "name": "D#1",
          "ticks": 32640,
          "time": 90.66677999999999,
          "velocity": 0.84251968503937
        },
        {
          "duration": 0.06388896875000682,
          "durationTicks": 23,
          "midi": 39,
          "name": "D#2",
          "ticks": 32640,
          "time": 90.66677999999999,
          "velocity": 0.7244094488188977
        },
        {
          "duration": 0.06388896874999261,
          "durationTicks": 23,
          "midi": 39,
          "name": "D#2",
          "ticks": 32688,
          "time": 90.8001135,
          "velocity": 0.7244094488188977
        },
        {
          "duration": 0.06388896874999261,
          "durationTicks": 23,
          "midi": 27,
          "name": "D#1",
          "ticks": 32688,
          "time": 90.8001135,
          "velocity": 0.84251968503937
        },
        {
          "duration": 0.06388896874999261,
          "durationTicks": 23,
          "midi": 27,
          "name": "D#1",
          "ticks": 32736,
          "time": 90.933447,
          "velocity": 0.84251968503937
        },
        {
          "duration": 0.06388896874999261,
          "durationTicks": 23,
          "midi": 39,
          "name": "D#2",
          "ticks": 32736,
          "time": 90.933447,
          "velocity": 0.7244094488188977
        },
        {
          "duration": 0.06388896874999261,
          "durationTicks": 23,
          "midi": 39,
          "name": "D#2",
          "ticks": 32784,
          "time": 91.0667805,
          "velocity": 0.7244094488188977
        },
        {
          "duration": 0.06388896874999261,
          "durationTicks": 23,
          "midi": 27,
          "name": "D#1",
          "ticks": 32784,
          "time": 91.0667805,
          "velocity": 0.84251968503937
        },
        {
          "duration": 0.06388896874999261,
          "durationTicks": 23,
          "midi": 27,
          "name": "D#1",
          "ticks": 32832,
          "time": 91.200114,
          "velocity": 0.84251968503937
        },
        {
          "duration": 0.06388896874999261,
          "durationTicks": 23,
          "midi": 39,
          "name": "D#2",
          "ticks": 32832,
          "time": 91.200114,
          "velocity": 0.7244094488188977
        },
        {
          "duration": 0.06388896874999261,
          "durationTicks": 23,
          "midi": 39,
          "name": "D#2",
          "ticks": 32880,
          "time": 91.33344749999999,
          "velocity": 0.7244094488188977
        },
        {
          "duration": 0.06388896874999261,
          "durationTicks": 23,
          "midi": 27,
          "name": "D#1",
          "ticks": 32880,
          "time": 91.33344749999999,
          "velocity": 0.84251968503937
        },
        {
          "duration": 0.06388896874999261,
          "durationTicks": 23,
          "midi": 39,
          "name": "D#2",
          "ticks": 32928,
          "time": 91.466781,
          "velocity": 0.7244094488188977
        },
        {
          "duration": 0.06388896874999261,
          "durationTicks": 23,
          "midi": 27,
          "name": "D#1",
          "ticks": 32928,
          "time": 91.466781,
          "velocity": 0.84251968503937
        },
        {
          "duration": 0.06388896874999261,
          "durationTicks": 23,
          "midi": 27,
          "name": "D#1",
          "ticks": 32952,
          "time": 91.53344775,
          "velocity": 0.84251968503937
        },
        {
          "duration": 0.06388896874999261,
          "durationTicks": 23,
          "midi": 39,
          "name": "D#2",
          "ticks": 32952,
          "time": 91.53344775,
          "velocity": 0.7244094488188977
        },
        {
          "duration": 0.06388896875000682,
          "durationTicks": 23,
          "midi": 28,
          "name": "E1",
          "ticks": 32976,
          "time": 91.60011449999999,
          "velocity": 0.84251968503937
        },
        {
          "duration": 0.06388896875000682,
          "durationTicks": 23,
          "midi": 40,
          "name": "E2",
          "ticks": 32976,
          "time": 91.60011449999999,
          "velocity": 0.7244094488188977
        },
        {
          "duration": 0.06388896874999261,
          "durationTicks": 23,
          "midi": 40,
          "name": "E2",
          "ticks": 33000,
          "time": 91.66678125,
          "velocity": 0.7244094488188977
        },
        {
          "duration": 0.06388896874999261,
          "durationTicks": 23,
          "midi": 28,
          "name": "E1",
          "ticks": 33000,
          "time": 91.66678125,
          "velocity": 0.84251968503937
        },
        {
          "duration": 0.06388896874999261,
          "durationTicks": 23,
          "midi": 29,
          "name": "F1",
          "ticks": 33024,
          "time": 91.733448,
          "velocity": 0.84251968503937
        },
        {
          "duration": 0.06388896874999261,
          "durationTicks": 23,
          "midi": 41,
          "name": "F2",
          "ticks": 33024,
          "time": 91.733448,
          "velocity": 0.7244094488188977
        },
        {
          "duration": 0.06388896874999261,
          "durationTicks": 23,
          "midi": 29,
          "name": "F1",
          "ticks": 33048,
          "time": 91.80011474999999,
          "velocity": 0.84251968503937
        },
        {
          "duration": 0.06388896874999261,
          "durationTicks": 23,
          "midi": 41,
          "name": "F2",
          "ticks": 33048,
          "time": 91.80011474999999,
          "velocity": 0.7244094488188977
        },
        {
          "duration": 0.06388896874999261,
          "durationTicks": 23,
          "midi": 42,
          "name": "F#2",
          "ticks": 33072,
          "time": 91.8667815,
          "velocity": 0.7244094488188977
        },
        {
          "duration": 0.06388896874999261,
          "durationTicks": 23,
          "midi": 30,
          "name": "F#1",
          "ticks": 33072,
          "time": 91.8667815,
          "velocity": 0.84251968503937
        },
        {
          "duration": 0.06388896874999261,
          "durationTicks": 23,
          "midi": 42,
          "name": "F#2",
          "ticks": 33096,
          "time": 91.93344825,
          "velocity": 0.7244094488188977
        },
        {
          "duration": 0.06388896874999261,
          "durationTicks": 23,
          "midi": 30,
          "name": "F#1",
          "ticks": 33096,
          "time": 91.93344825,
          "velocity": 0.84251968503937
        },
        {
          "duration": 0.06388896874999261,
          "durationTicks": 23,
          "midi": 31,
          "name": "G1",
          "ticks": 33120,
          "time": 92.000115,
          "velocity": 0.84251968503937
        },
        {
          "duration": 0.06388896874999261,
          "durationTicks": 23,
          "midi": 43,
          "name": "G2",
          "ticks": 33120,
          "time": 92.000115,
          "velocity": 0.7244094488188977
        },
        {
          "duration": 0.06388896875000682,
          "durationTicks": 23,
          "midi": 43,
          "name": "G2",
          "ticks": 33144,
          "time": 92.06678174999999,
          "velocity": 0.7244094488188977
        },
        {
          "duration": 0.06388896875000682,
          "durationTicks": 23,
          "midi": 31,
          "name": "G1",
          "ticks": 33144,
          "time": 92.06678174999999,
          "velocity": 0.84251968503937
        },
        {
          "duration": 0.06388896874999261,
          "durationTicks": 23,
          "midi": 32,
          "name": "G#1",
          "ticks": 33168,
          "time": 92.1334485,
          "velocity": 0.84251968503937
        },
        {
          "duration": 0.06388896874999261,
          "durationTicks": 23,
          "midi": 44,
          "name": "G#2",
          "ticks": 33168,
          "time": 92.1334485,
          "velocity": 0.7244094488188977
        },
        {
          "duration": 0.06388896874999261,
          "durationTicks": 23,
          "midi": 32,
          "name": "G#1",
          "ticks": 33192,
          "time": 92.20011525,
          "velocity": 0.84251968503937
        },
        {
          "duration": 0.06388896874999261,
          "durationTicks": 23,
          "midi": 44,
          "name": "G#2",
          "ticks": 33192,
          "time": 92.20011525,
          "velocity": 0.7244094488188977
        },
        {
          "duration": 0.06388896874999261,
          "durationTicks": 23,
          "midi": 45,
          "name": "A2",
          "ticks": 33216,
          "time": 92.26678199999999,
          "velocity": 0.7244094488188977
        },
        {
          "duration": 0.06388896874999261,
          "durationTicks": 23,
          "midi": 33,
          "name": "A1",
          "ticks": 33216,
          "time": 92.26678199999999,
          "velocity": 0.84251968503937
        },
        {
          "duration": 0.06388896874999261,
          "durationTicks": 23,
          "midi": 45,
          "name": "A2",
          "ticks": 33240,
          "time": 92.33344875,
          "velocity": 0.7244094488188977
        },
        {
          "duration": 0.06388896874999261,
          "durationTicks": 23,
          "midi": 33,
          "name": "A1",
          "ticks": 33240,
          "time": 92.33344875,
          "velocity": 0.84251968503937
        },
        {
          "duration": 0.06388896874999261,
          "durationTicks": 23,
          "midi": 46,
          "name": "A#2",
          "ticks": 33264,
          "time": 92.4001155,
          "velocity": 0.7244094488188977
        },
        {
          "duration": 0.06388896874999261,
          "durationTicks": 23,
          "midi": 34,
          "name": "A#1",
          "ticks": 33264,
          "time": 92.4001155,
          "velocity": 0.84251968503937
        },
        {
          "duration": 0.06388896874999261,
          "durationTicks": 23,
          "midi": 34,
          "name": "A#1",
          "ticks": 33288,
          "time": 92.46678225,
          "velocity": 0.84251968503937
        },
        {
          "duration": 0.06388896874999261,
          "durationTicks": 23,
          "midi": 46,
          "name": "A#2",
          "ticks": 33288,
          "time": 92.46678225,
          "velocity": 0.7244094488188977
        },
        {
          "duration": 0.1333335000000062,
          "durationTicks": 48,
          "midi": 27,
          "name": "D#1",
          "ticks": 33312,
          "time": 92.53344899999999,
          "velocity": 0.8110236220472441
        },
        {
          "duration": 0.066666749999996,
          "durationTicks": 24,
          "midi": 39,
          "name": "D#2",
          "ticks": 33888,
          "time": 94.133451,
          "velocity": 0.8110236220472441
        },
        {
          "duration": 0.06666675000001021,
          "durationTicks": 24,
          "midi": 51,
          "name": "D#3",
          "ticks": 33890,
          "time": 94.13900656249999,
          "velocity": 0.8110236220472441
        },
        {
          "duration": 0.06666675000001021,
          "durationTicks": 24,
          "midi": 39,
          "name": "D#2",
          "ticks": 33984,
          "time": 94.40011799999999,
          "velocity": 0.8110236220472441
        },
        {
          "duration": 0.06666675000001021,
          "durationTicks": 24,
          "midi": 51,
          "name": "D#3",
          "ticks": 33986,
          "time": 94.40567356249998,
          "velocity": 0.8110236220472441
        },
        {
          "duration": 0.033333374999998,
          "durationTicks": 12,
          "midi": 39,
          "name": "D#2",
          "ticks": 34032,
          "time": 94.5334515,
          "velocity": 0.8110236220472441
        },
        {
          "duration": 0.033333374999998,
          "durationTicks": 12,
          "midi": 51,
          "name": "D#3",
          "ticks": 34034,
          "time": 94.53900706249999,
          "velocity": 0.8110236220472441
        },
        {
          "duration": 0.033333374999998,
          "durationTicks": 12,
          "midi": 39,
          "name": "D#2",
          "ticks": 34056,
          "time": 94.60011825,
          "velocity": 0.8110236220472441
        },
        {
          "duration": 0.033333374999998,
          "durationTicks": 12,
          "midi": 51,
          "name": "D#3",
          "ticks": 34058,
          "time": 94.60567381249999,
          "velocity": 0.8110236220472441
        },
        {
          "duration": 0.022222249999998667,
          "durationTicks": 8,
          "midi": 27,
          "name": "D#1",
          "ticks": 34080,
          "time": 94.66678499999999,
          "velocity": 0.8110236220472441
        },
        {
          "duration": 0.022222249999984456,
          "durationTicks": 8,
          "midi": 27,
          "name": "D#1",
          "ticks": 34104,
          "time": 94.73345175,
          "velocity": 0.8110236220472441
        },
        {
          "duration": 0.022222249999998667,
          "durationTicks": 8,
          "midi": 27,
          "name": "D#1",
          "ticks": 34128,
          "time": 94.8001185,
          "velocity": 0.8110236220472441
        },
        {
          "duration": 0.022222249999998667,
          "durationTicks": 8,
          "midi": 27,
          "name": "D#1",
          "ticks": 34152,
          "time": 94.86678524999999,
          "velocity": 0.8110236220472441
        },
        {
          "duration": 0.1333335000000062,
          "durationTicks": 48,
          "midi": 27,
          "name": "D#1",
          "ticks": 34176,
          "time": 94.93345199999999,
          "velocity": 0.8110236220472441
        },
        {
          "duration": 0.066666749999996,
          "durationTicks": 24,
          "midi": 39,
          "name": "D#2",
          "ticks": 34224,
          "time": 95.0667855,
          "velocity": 0.8110236220472441
        },
        {
          "duration": 0.06666675000001021,
          "durationTicks": 24,
          "midi": 51,
          "name": "D#3",
          "ticks": 34226,
          "time": 95.07234106249999,
          "velocity": 0.8110236220472441
        },
        {
          "duration": 0.133333499999992,
          "durationTicks": 48,
          "midi": 27,
          "name": "D#1",
          "ticks": 34272,
          "time": 95.200119,
          "velocity": 0.8110236220472441
        },
        {
          "duration": 0.066666749999996,
          "durationTicks": 24,
          "midi": 39,
          "name": "D#2",
          "ticks": 34368,
          "time": 95.466786,
          "velocity": 0.8110236220472441
        },
        {
          "duration": 0.066666749999996,
          "durationTicks": 24,
          "midi": 51,
          "name": "D#3",
          "ticks": 34370,
          "time": 95.47234156249999,
          "velocity": 0.8110236220472441
        },
        {
          "duration": 0.133333499999992,
          "durationTicks": 48,
          "midi": 27,
          "name": "D#1",
          "ticks": 34464,
          "time": 95.733453,
          "velocity": 0.8110236220472441
        },
        {
          "duration": 0.066666749999996,
          "durationTicks": 24,
          "midi": 39,
          "name": "D#2",
          "ticks": 34608,
          "time": 96.1334535,
          "velocity": 0.8110236220472441
        },
        {
          "duration": 0.066666749999996,
          "durationTicks": 24,
          "midi": 51,
          "name": "D#3",
          "ticks": 34610,
          "time": 96.1390090625,
          "velocity": 0.8110236220472441
        },
        {
          "duration": 0.1333335000000062,
          "durationTicks": 48,
          "midi": 27,
          "name": "D#1",
          "ticks": 34656,
          "time": 96.266787,
          "velocity": 0.8110236220472441
        },
        {
          "duration": 0.06666675000001021,
          "durationTicks": 24,
          "midi": 39,
          "name": "D#2",
          "ticks": 34752,
          "time": 96.53345399999999,
          "velocity": 0.8110236220472441
        },
        {
          "duration": 0.06666675000001021,
          "durationTicks": 24,
          "midi": 51,
          "name": "D#3",
          "ticks": 34754,
          "time": 96.53900956249998,
          "velocity": 0.8110236220472441
        },
        {
          "duration": 0.1333335000000062,
          "durationTicks": 48,
          "midi": 27,
          "name": "D#1",
          "ticks": 34848,
          "time": 96.80012099999999,
          "velocity": 0.8110236220472441
        },
        {
          "duration": 0.066666749999996,
          "durationTicks": 24,
          "midi": 39,
          "name": "D#2",
          "ticks": 34992,
          "time": 97.2001215,
          "velocity": 0.8110236220472441
        },
        {
          "duration": 0.06666675000001021,
          "durationTicks": 24,
          "midi": 51,
          "name": "D#3",
          "ticks": 34994,
          "time": 97.20567706249999,
          "velocity": 0.8110236220472441
        },
        {
          "duration": 0.133333499999992,
          "durationTicks": 48,
          "midi": 27,
          "name": "D#1",
          "ticks": 35040,
          "time": 97.333455,
          "velocity": 0.8110236220472441
        },
        {
          "duration": 0.066666749999996,
          "durationTicks": 24,
          "midi": 39,
          "name": "D#2",
          "ticks": 35136,
          "time": 97.600122,
          "velocity": 0.8110236220472441
        },
        {
          "duration": 0.066666749999996,
          "durationTicks": 24,
          "midi": 51,
          "name": "D#3",
          "ticks": 35138,
          "time": 97.60567756249999,
          "velocity": 0.8110236220472441
        },
        {
          "duration": 0.133333499999992,
          "durationTicks": 48,
          "midi": 27,
          "name": "D#1",
          "ticks": 35232,
          "time": 97.866789,
          "velocity": 0.8110236220472441
        },
        {
          "duration": 0.066666749999996,
          "durationTicks": 24,
          "midi": 39,
          "name": "D#2",
          "ticks": 35376,
          "time": 98.2667895,
          "velocity": 0.8110236220472441
        },
        {
          "duration": 0.066666749999996,
          "durationTicks": 24,
          "midi": 51,
          "name": "D#3",
          "ticks": 35378,
          "time": 98.2723450625,
          "velocity": 0.8110236220472441
        },
        {
          "duration": 0.1333335000000062,
          "durationTicks": 48,
          "midi": 27,
          "name": "D#1",
          "ticks": 35424,
          "time": 98.400123,
          "velocity": 0.8110236220472441
        },
        {
          "duration": 0.06666675000001021,
          "durationTicks": 24,
          "midi": 39,
          "name": "D#2",
          "ticks": 35520,
          "time": 98.66678999999999,
          "velocity": 0.8110236220472441
        },
        {
          "duration": 0.06666675000001021,
          "durationTicks": 24,
          "midi": 51,
          "name": "D#3",
          "ticks": 35522,
          "time": 98.67234556249998,
          "velocity": 0.8110236220472441
        },
        {
          "duration": 0.1333335000000062,
          "durationTicks": 48,
          "midi": 30,
          "name": "F#1",
          "ticks": 35616,
          "time": 98.93345699999999,
          "velocity": 0.8110236220472441
        },
        {
          "duration": 0.066666749999996,
          "durationTicks": 24,
          "midi": 42,
          "name": "F#2",
          "ticks": 35760,
          "time": 99.3334575,
          "velocity": 0.8110236220472441
        },
        {
          "duration": 0.06666675000001021,
          "durationTicks": 24,
          "midi": 54,
          "name": "F#3",
          "ticks": 35762,
          "time": 99.33901306249999,
          "velocity": 0.8110236220472441
        },
        {
          "duration": 0.133333499999992,
          "durationTicks": 48,
          "midi": 29,
          "name": "F1",
          "ticks": 35808,
          "time": 99.466791,
          "velocity": 0.8110236220472441
        },
        {
          "duration": 0.066666749999996,
          "durationTicks": 24,
          "midi": 41,
          "name": "F2",
          "ticks": 35904,
          "time": 99.733458,
          "velocity": 0.8110236220472441
        },
        {
          "duration": 0.066666749999996,
          "durationTicks": 24,
          "midi": 53,
          "name": "F3",
          "ticks": 35906,
          "time": 99.73901356249999,
          "velocity": 0.8110236220472441
        },
        {
          "duration": 0.133333499999992,
          "durationTicks": 48,
          "midi": 32,
          "name": "G#1",
          "ticks": 36000,
          "time": 100.000125,
          "velocity": 0.8110236220472441
        },
        {
          "duration": 0.066666749999996,
          "durationTicks": 24,
          "midi": 44,
          "name": "G#2",
          "ticks": 36144,
          "time": 100.4001255,
          "velocity": 0.8110236220472441
        },
        {
          "duration": 0.066666749999996,
          "durationTicks": 24,
          "midi": 56,
          "name": "G#3",
          "ticks": 36146,
          "time": 100.4056810625,
          "velocity": 0.8110236220472441
        },
        {
          "duration": 0.1333335000000062,
          "durationTicks": 48,
          "midi": 29,
          "name": "F1",
          "ticks": 36192,
          "time": 100.533459,
          "velocity": 0.8110236220472441
        },
        {
          "duration": 0.1333335000000062,
          "durationTicks": 48,
          "midi": 27,
          "name": "D#1",
          "ticks": 36384,
          "time": 101.06679299999999,
          "velocity": 0.8110236220472441
        },
        {
          "duration": 0.066666749999996,
          "durationTicks": 24,
          "midi": 39,
          "name": "D#2",
          "ticks": 36528,
          "time": 101.4667935,
          "velocity": 0.8110236220472441
        },
        {
          "duration": 0.06666675000001021,
          "durationTicks": 24,
          "midi": 51,
          "name": "D#3",
          "ticks": 36530,
          "time": 101.47234906249999,
          "velocity": 0.8110236220472441
        },
        {
          "duration": 0.133333499999992,
          "durationTicks": 48,
          "midi": 27,
          "name": "D#1",
          "ticks": 36576,
          "time": 101.600127,
          "velocity": 0.8110236220472441
        },
        {
          "duration": 0.066666749999996,
          "durationTicks": 24,
          "midi": 39,
          "name": "D#2",
          "ticks": 36672,
          "time": 101.866794,
          "velocity": 0.8110236220472441
        },
        {
          "duration": 0.066666749999996,
          "durationTicks": 24,
          "midi": 51,
          "name": "D#3",
          "ticks": 36674,
          "time": 101.87234956249999,
          "velocity": 0.8110236220472441
        },
        {
          "duration": 0.133333499999992,
          "durationTicks": 48,
          "midi": 27,
          "name": "D#1",
          "ticks": 36768,
          "time": 102.133461,
          "velocity": 0.8110236220472441
        },
        {
          "duration": 0.066666749999996,
          "durationTicks": 24,
          "midi": 39,
          "name": "D#2",
          "ticks": 36912,
          "time": 102.5334615,
          "velocity": 0.8110236220472441
        },
        {
          "duration": 0.066666749999996,
          "durationTicks": 24,
          "midi": 51,
          "name": "D#3",
          "ticks": 36914,
          "time": 102.5390170625,
          "velocity": 0.8110236220472441
        },
        {
          "duration": 0.1333335000000062,
          "durationTicks": 48,
          "midi": 27,
          "name": "D#1",
          "ticks": 36960,
          "time": 102.666795,
          "velocity": 0.8110236220472441
        },
        {
          "duration": 0.06666675000001021,
          "durationTicks": 24,
          "midi": 39,
          "name": "D#2",
          "ticks": 37056,
          "time": 102.93346199999999,
          "velocity": 0.8110236220472441
        },
        {
          "duration": 0.06666675000001021,
          "durationTicks": 24,
          "midi": 51,
          "name": "D#3",
          "ticks": 37058,
          "time": 102.93901756249998,
          "velocity": 0.8110236220472441
        },
        {
          "duration": 0.1333335000000062,
          "durationTicks": 48,
          "midi": 27,
          "name": "D#1",
          "ticks": 37152,
          "time": 103.20012899999999,
          "velocity": 0.8110236220472441
        },
        {
          "duration": 0.066666749999996,
          "durationTicks": 24,
          "midi": 39,
          "name": "D#2",
          "ticks": 37296,
          "time": 103.6001295,
          "velocity": 0.8110236220472441
        },
        {
          "duration": 0.06666675000001021,
          "durationTicks": 24,
          "midi": 51,
          "name": "D#3",
          "ticks": 37298,
          "time": 103.60568506249999,
          "velocity": 0.8110236220472441
        },
        {
          "duration": 0.133333499999992,
          "durationTicks": 48,
          "midi": 27,
          "name": "D#1",
          "ticks": 37344,
          "time": 103.733463,
          "velocity": 0.8110236220472441
        },
        {
          "duration": 0.066666749999996,
          "durationTicks": 24,
          "midi": 39,
          "name": "D#2",
          "ticks": 37440,
          "time": 104.00013,
          "velocity": 0.8110236220472441
        },
        {
          "duration": 0.066666749999996,
          "durationTicks": 24,
          "midi": 51,
          "name": "D#3",
          "ticks": 37442,
          "time": 104.00568556249999,
          "velocity": 0.8110236220472441
        },
        {
          "duration": 0.133333499999992,
          "durationTicks": 48,
          "midi": 27,
          "name": "D#1",
          "ticks": 37536,
          "time": 104.266797,
          "velocity": 0.8110236220472441
        },
        {
          "duration": 0.066666749999996,
          "durationTicks": 24,
          "midi": 39,
          "name": "D#2",
          "ticks": 37680,
          "time": 104.6667975,
          "velocity": 0.8110236220472441
        },
        {
          "duration": 0.066666749999996,
          "durationTicks": 24,
          "midi": 51,
          "name": "D#3",
          "ticks": 37682,
          "time": 104.6723530625,
          "velocity": 0.8110236220472441
        },
        {
          "duration": 0.1333335000000062,
          "durationTicks": 48,
          "midi": 25,
          "name": "C#1",
          "ticks": 37728,
          "time": 104.800131,
          "velocity": 0.8110236220472441
        },
        {
          "duration": 0.06666675000001021,
          "durationTicks": 24,
          "midi": 37,
          "name": "C#2",
          "ticks": 37824,
          "time": 105.06679799999999,
          "velocity": 0.8110236220472441
        },
        {
          "duration": 0.06666675000001021,
          "durationTicks": 24,
          "midi": 49,
          "name": "C#3",
          "ticks": 37826,
          "time": 105.07235356249998,
          "velocity": 0.8110236220472441
        },
        {
          "duration": 0.1333335000000062,
          "durationTicks": 48,
          "midi": 23,
          "name": "B0",
          "ticks": 37920,
          "time": 105.33346499999999,
          "velocity": 0.8110236220472441
        },
        {
          "duration": 0.066666749999996,
          "durationTicks": 24,
          "midi": 35,
          "name": "B1",
          "ticks": 38064,
          "time": 105.7334655,
          "velocity": 0.8110236220472441
        },
        {
          "duration": 0.06666675000001021,
          "durationTicks": 24,
          "midi": 47,
          "name": "B2",
          "ticks": 38066,
          "time": 105.73902106249999,
          "velocity": 0.8110236220472441
        },
        {
          "duration": 0.133333499999992,
          "durationTicks": 48,
          "midi": 23,
          "name": "B0",
          "ticks": 38112,
          "time": 105.866799,
          "velocity": 0.8110236220472441
        },
        {
          "duration": 0.066666749999996,
          "durationTicks": 24,
          "midi": 35,
          "name": "B1",
          "ticks": 38208,
          "time": 106.133466,
          "velocity": 0.8110236220472441
        },
        {
          "duration": 0.066666749999996,
          "durationTicks": 24,
          "midi": 47,
          "name": "B2",
          "ticks": 38210,
          "time": 106.13902156249999,
          "velocity": 0.8110236220472441
        },
        {
          "duration": 0.133333499999992,
          "durationTicks": 48,
          "midi": 23,
          "name": "B0",
          "ticks": 38304,
          "time": 106.400133,
          "velocity": 0.8110236220472441
        },
        {
          "duration": 0.066666749999996,
          "durationTicks": 24,
          "midi": 35,
          "name": "B1",
          "ticks": 38448,
          "time": 106.8001335,
          "velocity": 0.8110236220472441
        },
        {
          "duration": 0.066666749999996,
          "durationTicks": 24,
          "midi": 47,
          "name": "B2",
          "ticks": 38450,
          "time": 106.8056890625,
          "velocity": 0.8110236220472441
        },
        {
          "duration": 0.1333335000000062,
          "durationTicks": 48,
          "midi": 23,
          "name": "B0",
          "ticks": 38496,
          "time": 106.933467,
          "velocity": 0.8110236220472441
        },
        {
          "duration": 0.06666675000001021,
          "durationTicks": 24,
          "midi": 35,
          "name": "B1",
          "ticks": 38592,
          "time": 107.20013399999999,
          "velocity": 0.8110236220472441
        },
        {
          "duration": 0.06666675000001021,
          "durationTicks": 24,
          "midi": 47,
          "name": "B2",
          "ticks": 38594,
          "time": 107.20568956249998,
          "velocity": 0.8110236220472441
        },
        {
          "duration": 0.1333335000000062,
          "durationTicks": 48,
          "midi": 23,
          "name": "B0",
          "ticks": 38688,
          "time": 107.46680099999999,
          "velocity": 0.8110236220472441
        },
        {
          "duration": 0.066666749999996,
          "durationTicks": 24,
          "midi": 35,
          "name": "B1",
          "ticks": 38832,
          "time": 107.8668015,
          "velocity": 0.8110236220472441
        },
        {
          "duration": 0.06666675000001021,
          "durationTicks": 24,
          "midi": 47,
          "name": "B2",
          "ticks": 38834,
          "time": 107.87235706249999,
          "velocity": 0.8110236220472441
        },
        {
          "duration": 0.133333499999992,
          "durationTicks": 48,
          "midi": 23,
          "name": "B0",
          "ticks": 38880,
          "time": 108.000135,
          "velocity": 0.8110236220472441
        },
        {
          "duration": 0.066666749999996,
          "durationTicks": 24,
          "midi": 35,
          "name": "B1",
          "ticks": 38976,
          "time": 108.266802,
          "velocity": 0.8110236220472441
        },
        {
          "duration": 0.066666749999996,
          "durationTicks": 24,
          "midi": 47,
          "name": "B2",
          "ticks": 38978,
          "time": 108.27235756249999,
          "velocity": 0.8110236220472441
        },
        {
          "duration": 0.2666669999999982,
          "durationTicks": 96,
          "midi": 23,
          "name": "B0",
          "ticks": 39072,
          "time": 108.533469,
          "velocity": 0.8110236220472441
        },
        {
          "duration": 0.2666669999999982,
          "durationTicks": 96,
          "midi": 35,
          "name": "B1",
          "ticks": 39168,
          "time": 108.800136,
          "velocity": 0.8110236220472441
        },
        {
          "duration": 0.2666669999999982,
          "durationTicks": 96,
          "midi": 34,
          "name": "A#1",
          "ticks": 39264,
          "time": 109.066803,
          "velocity": 0.8110236220472441
        },
        {
          "duration": 0.2666669999999982,
          "durationTicks": 96,
          "midi": 33,
          "name": "A1",
          "ticks": 39360,
          "time": 109.33346999999999,
          "velocity": 0.8110236220472441
        },
        {
          "duration": 0.2666670000000124,
          "durationTicks": 96,
          "midi": 32,
          "name": "G#1",
          "ticks": 39456,
          "time": 109.60013699999999,
          "velocity": 0.8110236220472441
        },
        {
          "duration": 0.2666669999999982,
          "durationTicks": 96,
          "midi": 36,
          "name": "C2",
          "ticks": 39552,
          "time": 109.866804,
          "velocity": 0.8110236220472441
        },
        {
          "duration": 0.2666669999999982,
          "durationTicks": 96,
          "midi": 29,
          "name": "F1",
          "ticks": 39648,
          "time": 110.133471,
          "velocity": 0.8110236220472441
        },
        {
          "duration": 0.5333339999999964,
          "durationTicks": 192,
          "midi": 33,
          "name": "A1",
          "ticks": 39744,
          "time": 110.400138,
          "velocity": 0.8110236220472441
        },
        {
          "duration": 0.133333499999992,
          "durationTicks": 48,
          "midi": 30,
          "name": "F#1",
          "ticks": 42048,
          "time": 116.800146,
          "velocity": 0.8188976377952756
        },
        {
          "duration": 0.1333335000000062,
          "durationTicks": 48,
          "midi": 30,
          "name": "F#1",
          "ticks": 42192,
          "time": 117.20014649999999,
          "velocity": 0.8188976377952756
        },
        {
          "duration": 0.133333499999992,
          "durationTicks": 48,
          "midi": 30,
          "name": "F#1",
          "ticks": 42288,
          "time": 117.4668135,
          "velocity": 0.8188976377952756
        },
        {
          "duration": 0.1333335000000062,
          "durationTicks": 48,
          "midi": 29,
          "name": "F1",
          "ticks": 42336,
          "time": 117.60014699999999,
          "velocity": 0.8188976377952756
        },
        {
          "duration": 0.1333335000000062,
          "durationTicks": 48,
          "midi": 29,
          "name": "F1",
          "ticks": 42432,
          "time": 117.86681399999999,
          "velocity": 0.8188976377952756
        },
        {
          "duration": 0.1333335000000062,
          "durationTicks": 48,
          "midi": 33,
          "name": "A1",
          "ticks": 42528,
          "time": 118.13348099999999,
          "velocity": 0.8188976377952756
        },
        {
          "duration": 0.1333335000000062,
          "durationTicks": 48,
          "midi": 33,
          "name": "A1",
          "ticks": 42672,
          "time": 118.5334815,
          "velocity": 0.8188976377952756
        },
        {
          "duration": 0.1333335000000062,
          "durationTicks": 48,
          "midi": 33,
          "name": "A1",
          "ticks": 42768,
          "time": 118.80014849999999,
          "velocity": 0.8188976377952756
        },
        {
          "duration": 0.133333499999992,
          "durationTicks": 48,
          "midi": 32,
          "name": "G#1",
          "ticks": 42816,
          "time": 118.933482,
          "velocity": 0.8188976377952756
        },
        {
          "duration": 0.133333499999992,
          "durationTicks": 48,
          "midi": 32,
          "name": "G#1",
          "ticks": 42912,
          "time": 119.200149,
          "velocity": 0.8188976377952756
        },
        {
          "duration": 0.1333335000000062,
          "durationTicks": 48,
          "midi": 28,
          "name": "E1",
          "ticks": 43008,
          "time": 119.466816,
          "velocity": 0.8188976377952756
        },
        {
          "duration": 0.013888906249988509,
          "durationTicks": 5,
          "midi": 44,
          "name": "G#2",
          "ticks": 44352,
          "time": 123.200154,
          "velocity": 0.8031496062992126
        },
        {
          "duration": 0.013888906249988509,
          "durationTicks": 5,
          "midi": 32,
          "name": "G#1",
          "ticks": 44395,
          "time": 123.31959859375,
          "velocity": 0.8031496062992126
        },
        {
          "duration": 0.100000124999994,
          "durationTicks": 36,
          "midi": 25,
          "name": "C#1",
          "ticks": 44592,
          "time": 123.8668215,
          "velocity": 0.8188976377952756
        },
        {
          "duration": 0.10000012500000821,
          "durationTicks": 36,
          "midi": 25,
          "name": "C#1",
          "ticks": 44640,
          "time": 124.00015499999999,
          "velocity": 0.8188976377952756
        },
        {
          "duration": 0.10000012500000821,
          "durationTicks": 36,
          "midi": 25,
          "name": "C#1",
          "ticks": 44736,
          "time": 124.26682199999999,
          "velocity": 0.8188976377952756
        },
        {
          "duration": 0.100000124999994,
          "durationTicks": 36,
          "midi": 25,
          "name": "C#1",
          "ticks": 44784,
          "time": 124.4001555,
          "velocity": 0.8188976377952756
        },
        {
          "duration": 0.2333336250000002,
          "durationTicks": 84,
          "midi": 25,
          "name": "C#1",
          "ticks": 44880,
          "time": 124.6668225,
          "velocity": 0.8188976377952756
        },
        {
          "duration": 0.100000124999994,
          "durationTicks": 36,
          "midi": 25,
          "name": "C#1",
          "ticks": 44976,
          "time": 124.9334895,
          "velocity": 0.8188976377952756
        },
        {
          "duration": 0.100000124999994,
          "durationTicks": 36,
          "midi": 25,
          "name": "C#1",
          "ticks": 45024,
          "time": 125.066823,
          "velocity": 0.8188976377952756
        },
        {
          "duration": 0.10000012500000821,
          "durationTicks": 36,
          "midi": 25,
          "name": "C#1",
          "ticks": 45072,
          "time": 125.20015649999999,
          "velocity": 0.8188976377952756
        },
        {
          "duration": 0.133333499999992,
          "durationTicks": 48,
          "midi": 25,
          "name": "C#1",
          "ticks": 45120,
          "time": 125.33349,
          "velocity": 0.8188976377952756
        },
        {
          "duration": 0.2000002500000022,
          "durationTicks": 72,
          "midi": 38,
          "name": "D2",
          "ticks": 45312,
          "time": 125.866824,
          "velocity": 0.8188976377952756
        },
        {
          "duration": 0.2000002500000022,
          "durationTicks": 72,
          "midi": 50,
          "name": "D3",
          "ticks": 45408,
          "time": 126.13349099999999,
          "velocity": 0.7874015748031497
        },
        {
          "duration": 0.2000002500000022,
          "durationTicks": 72,
          "midi": 38,
          "name": "D2",
          "ticks": 45408,
          "time": 126.13349099999999,
          "velocity": 0.8188976377952756
        },
        {
          "duration": 0.2000002500000022,
          "durationTicks": 72,
          "midi": 37,
          "name": "C#2",
          "ticks": 45504,
          "time": 126.40015799999999,
          "velocity": 0.8188976377952756
        },
        {
          "duration": 0.2000002500000022,
          "durationTicks": 72,
          "midi": 49,
          "name": "C#3",
          "ticks": 45600,
          "time": 126.66682499999999,
          "velocity": 0.7874015748031497
        },
        {
          "duration": 0.2000002500000022,
          "durationTicks": 72,
          "midi": 37,
          "name": "C#2",
          "ticks": 45600,
          "time": 126.66682499999999,
          "velocity": 0.8188976377952756
        },
        {
          "duration": 0.200000249999988,
          "durationTicks": 72,
          "midi": 30,
          "name": "F#1",
          "ticks": 45696,
          "time": 126.933492,
          "velocity": 0.8188976377952756
        },
        {
          "duration": 0.200000249999988,
          "durationTicks": 72,
          "midi": 42,
          "name": "F#2",
          "ticks": 45792,
          "time": 127.200159,
          "velocity": 0.7874015748031497
        },
        {
          "duration": 0.200000249999988,
          "durationTicks": 72,
          "midi": 30,
          "name": "F#1",
          "ticks": 45792,
          "time": 127.200159,
          "velocity": 0.8188976377952756
        },
        {
          "duration": 0.2000002500000022,
          "durationTicks": 72,
          "midi": 33,
          "name": "A1",
          "ticks": 45888,
          "time": 127.466826,
          "velocity": 0.8188976377952756
        },
        {
          "duration": 0.2000002500000022,
          "durationTicks": 72,
          "midi": 33,
          "name": "A1",
          "ticks": 45984,
          "time": 127.733493,
          "velocity": 0.8188976377952756
        },
        {
          "duration": 0.2000002500000022,
          "durationTicks": 72,
          "midi": 45,
          "name": "A2",
          "ticks": 45984,
          "time": 127.733493,
          "velocity": 0.7874015748031497
        },
        {
          "duration": 0.200000249999988,
          "durationTicks": 72,
          "midi": 38,
          "name": "D2",
          "ticks": 46080,
          "time": 128.00016,
          "velocity": 0.8188976377952756
        },
        {
          "duration": 0.200000249999988,
          "durationTicks": 72,
          "midi": 50,
          "name": "D3",
          "ticks": 46176,
          "time": 128.266827,
          "velocity": 0.7874015748031497
        },
        {
          "duration": 0.200000249999988,
          "durationTicks": 72,
          "midi": 38,
          "name": "D2",
          "ticks": 46176,
          "time": 128.266827,
          "velocity": 0.8188976377952756
        },
        {
          "duration": 0.20000025000001642,
          "durationTicks": 72,
          "midi": 37,
          "name": "C#2",
          "ticks": 46272,
          "time": 128.533494,
          "velocity": 0.8188976377952756
        },
        {
          "duration": 0.200000249999988,
          "durationTicks": 72,
          "midi": 49,
          "name": "C#3",
          "ticks": 46368,
          "time": 128.800161,
          "velocity": 0.7874015748031497
        },
        {
          "duration": 0.200000249999988,
          "durationTicks": 72,
          "midi": 37,
          "name": "C#2",
          "ticks": 46368,
          "time": 128.800161,
          "velocity": 0.8188976377952756
        },
        {
          "duration": 0.20000025000001642,
          "durationTicks": 72,
          "midi": 30,
          "name": "F#1",
          "ticks": 46464,
          "time": 129.066828,
          "velocity": 0.8188976377952756
        },
        {
          "duration": 0.200000249999988,
          "durationTicks": 72,
          "midi": 41,
          "name": "F2",
          "ticks": 46560,
          "time": 129.333495,
          "velocity": 0.7874015748031497
        },
        {
          "duration": 0.200000249999988,
          "durationTicks": 72,
          "midi": 29,
          "name": "F1",
          "ticks": 46560,
          "time": 129.333495,
          "velocity": 0.8188976377952756
        },
        {
          "duration": 0.20000025000001642,
          "durationTicks": 72,
          "midi": 28,
          "name": "E1",
          "ticks": 46656,
          "time": 129.60016199999998,
          "velocity": 0.8188976377952756
        },
        {
          "duration": 0.200000249999988,
          "durationTicks": 72,
          "midi": 51,
          "name": "D#3",
          "ticks": 46752,
          "time": 129.866829,
          "velocity": 0.7874015748031497
        },
        {
          "duration": 0.200000249999988,
          "durationTicks": 72,
          "midi": 39,
          "name": "D#2",
          "ticks": 46752,
          "time": 129.866829,
          "velocity": 0.8188976377952756
        },
        {
          "duration": 0.20000025000001642,
          "durationTicks": 72,
          "midi": 38,
          "name": "D2",
          "ticks": 46848,
          "time": 130.13349599999998,
          "velocity": 0.8188976377952756
        },
        {
          "duration": 0.200000249999988,
          "durationTicks": 72,
          "midi": 38,
          "name": "D2",
          "ticks": 46944,
          "time": 130.400163,
          "velocity": 0.8188976377952756
        },
        {
          "duration": 0.200000249999988,
          "durationTicks": 72,
          "midi": 50,
          "name": "D3",
          "ticks": 46944,
          "time": 130.400163,
          "velocity": 0.7874015748031497
        },
        {
          "duration": 0.200000249999988,
          "durationTicks": 72,
          "midi": 37,
          "name": "C#2",
          "ticks": 47040,
          "time": 130.66683,
          "velocity": 0.8188976377952756
        },
        {
          "duration": 0.20000025000001642,
          "durationTicks": 72,
          "midi": 37,
          "name": "C#2",
          "ticks": 47136,
          "time": 130.933497,
          "velocity": 0.8188976377952756
        },
        {
          "duration": 0.20000025000001642,
          "durationTicks": 72,
          "midi": 49,
          "name": "C#3",
          "ticks": 47136,
          "time": 130.933497,
          "velocity": 0.7874015748031497
        },
        {
          "duration": 0.200000249999988,
          "durationTicks": 72,
          "midi": 30,
          "name": "F#1",
          "ticks": 47232,
          "time": 131.200164,
          "velocity": 0.8188976377952756
        },
        {
          "duration": 0.20000025000001642,
          "durationTicks": 72,
          "midi": 42,
          "name": "F#2",
          "ticks": 47328,
          "time": 131.46683099999998,
          "velocity": 0.7874015748031497
        },
        {
          "duration": 0.20000025000001642,
          "durationTicks": 72,
          "midi": 30,
          "name": "F#1",
          "ticks": 47328,
          "time": 131.46683099999998,
          "velocity": 0.8188976377952756
        },
        {
          "duration": 0.200000249999988,
          "durationTicks": 72,
          "midi": 33,
          "name": "A1",
          "ticks": 47424,
          "time": 131.733498,
          "velocity": 0.8188976377952756
        },
        {
          "duration": 0.20000025000001642,
          "durationTicks": 72,
          "midi": 46,
          "name": "A#2",
          "ticks": 47520,
          "time": 132.00016499999998,
          "velocity": 0.7874015748031497
        },
        {
          "duration": 0.20000025000001642,
          "durationTicks": 72,
          "midi": 34,
          "name": "A#1",
          "ticks": 47520,
          "time": 132.00016499999998,
          "velocity": 0.8188976377952756
        },
        {
          "duration": 0.200000249999988,
          "durationTicks": 72,
          "midi": 35,
          "name": "B1",
          "ticks": 47616,
          "time": 132.266832,
          "velocity": 0.8188976377952756
        },
        {
          "duration": 0.200000249999988,
          "durationTicks": 72,
          "midi": 47,
          "name": "B2",
          "ticks": 47712,
          "time": 132.533499,
          "velocity": 0.7874015748031497
        },
        {
          "duration": 0.200000249999988,
          "durationTicks": 72,
          "midi": 35,
          "name": "B1",
          "ticks": 47712,
          "time": 132.533499,
          "velocity": 0.8188976377952756
        },
        {
          "duration": 0.20000025000001642,
          "durationTicks": 72,
          "midi": 32,
          "name": "G#1",
          "ticks": 47808,
          "time": 132.800166,
          "velocity": 0.8188976377952756
        },
        {
          "duration": 0.200000249999988,
          "durationTicks": 72,
          "midi": 32,
          "name": "G#1",
          "ticks": 47904,
          "time": 133.066833,
          "velocity": 0.8188976377952756
        },
        {
          "duration": 0.200000249999988,
          "durationTicks": 72,
          "midi": 44,
          "name": "G#2",
          "ticks": 47904,
          "time": 133.066833,
          "velocity": 0.7874015748031497
        },
        {
          "duration": 0.13333350000002042,
          "durationTicks": 48,
          "midi": 37,
          "name": "C#2",
          "ticks": 48000,
          "time": 133.3335,
          "velocity": 0.8188976377952756
        },
        {
          "duration": 0.133333499999992,
          "durationTicks": 48,
          "midi": 37,
          "name": "C#2",
          "ticks": 48096,
          "time": 133.600167,
          "velocity": 0.8188976377952756
        },
        {
          "duration": 0.10000012500000821,
          "durationTicks": 36,
          "midi": 41,
          "name": "F2",
          "ticks": 48192,
          "time": 133.86683399999998,
          "velocity": 0.8188976377952756
        },
        {
          "duration": 0.066666749999996,
          "durationTicks": 24,
          "midi": 38,
          "name": "D2",
          "ticks": 48384,
          "time": 134.400168,
          "velocity": 0.8188976377952756
        },
        {
          "duration": 0.066666749999996,
          "durationTicks": 24,
          "midi": 38,
          "name": "D2",
          "ticks": 48432,
          "time": 134.5335015,
          "velocity": 0.8188976377952756
        },
        {
          "duration": 0.200000249999988,
          "durationTicks": 72,
          "midi": 50,
          "name": "D3",
          "ticks": 48480,
          "time": 134.666835,
          "velocity": 0.7874015748031497
        },
        {
          "duration": 0.066666749999996,
          "durationTicks": 24,
          "midi": 38,
          "name": "D2",
          "ticks": 48480,
          "time": 134.666835,
          "velocity": 0.8188976377952756
        },
        {
          "duration": 0.066666749999996,
          "durationTicks": 24,
          "midi": 38,
          "name": "D2",
          "ticks": 48528,
          "time": 134.80016849999998,
          "velocity": 0.8188976377952756
        },
        {
          "duration": 0.066666749999996,
          "durationTicks": 24,
          "midi": 37,
          "name": "C#2",
          "ticks": 48576,
          "time": 134.933502,
          "velocity": 0.8188976377952756
        },
        {
          "duration": 0.066666749999996,
          "durationTicks": 24,
          "midi": 37,
          "name": "C#2",
          "ticks": 48624,
          "time": 135.0668355,
          "velocity": 0.8188976377952756
        },
        {
          "duration": 0.20000025000001642,
          "durationTicks": 72,
          "midi": 49,
          "name": "C#3",
          "ticks": 48672,
          "time": 135.200169,
          "velocity": 0.7874015748031497
        },
        {
          "duration": 0.066666749999996,
          "durationTicks": 24,
          "midi": 37,
          "name": "C#2",
          "ticks": 48672,
          "time": 135.200169,
          "velocity": 0.8188976377952756
        },
        {
          "duration": 0.06666675000002442,
          "durationTicks": 24,
          "midi": 37,
          "name": "C#2",
          "ticks": 48720,
          "time": 135.33350249999998,
          "velocity": 0.8188976377952756
        },
        {
          "duration": 0.066666749999996,
          "durationTicks": 24,
          "midi": 30,
          "name": "F#1",
          "ticks": 48768,
          "time": 135.466836,
          "velocity": 0.8188976377952756
        },
        {
          "duration": 0.066666749999996,
          "durationTicks": 24,
          "midi": 30,
          "name": "F#1",
          "ticks": 48816,
          "time": 135.6001695,
          "velocity": 0.8188976377952756
        },
        {
          "duration": 0.20000025000001642,
          "durationTicks": 72,
          "midi": 42,
          "name": "F#2",
          "ticks": 48864,
          "time": 135.73350299999998,
          "velocity": 0.7874015748031497
        },
        {
          "duration": 0.066666749999996,
          "durationTicks": 24,
          "midi": 30,
          "name": "F#1",
          "ticks": 48864,
          "time": 135.73350299999998,
          "velocity": 0.8188976377952756
        },
        {
          "duration": 0.066666749999996,
          "durationTicks": 24,
          "midi": 30,
          "name": "F#1",
          "ticks": 48912,
          "time": 135.8668365,
          "velocity": 0.8188976377952756
        },
        {
          "duration": 0.066666749999996,
          "durationTicks": 24,
          "midi": 33,
          "name": "A1",
          "ticks": 48960,
          "time": 136.00017,
          "velocity": 0.8188976377952756
        },
        {
          "duration": 0.066666749999996,
          "durationTicks": 24,
          "midi": 33,
          "name": "A1",
          "ticks": 49008,
          "time": 136.1335035,
          "velocity": 0.8188976377952756
        },
        {
          "duration": 0.044444500000025755,
          "durationTicks": 16,
          "midi": 33,
          "name": "A1",
          "ticks": 49056,
          "time": 136.26683699999998,
          "velocity": 0.8188976377952756
        },
        {
          "duration": 0.20000025000001642,
          "durationTicks": 72,
          "midi": 45,
          "name": "A2",
          "ticks": 49056,
          "time": 136.26683699999998,
          "velocity": 0.7874015748031497
        },
        {
          "duration": 0.04444449999999733,
          "durationTicks": 16,
          "midi": 33,
          "name": "A1",
          "ticks": 49080,
          "time": 136.33350375,
          "velocity": 0.8188976377952756
        },
        {
          "duration": 0.04444449999999733,
          "durationTicks": 16,
          "midi": 33,
          "name": "A1",
          "ticks": 49104,
          "time": 136.4001705,
          "velocity": 0.8188976377952756
        },
        {
          "duration": 0.04444449999999733,
          "durationTicks": 16,
          "midi": 33,
          "name": "A1",
          "ticks": 49128,
          "time": 136.46683725,
          "velocity": 0.8188976377952756
        },
        {
          "duration": 0.066666749999996,
          "durationTicks": 24,
          "midi": 38,
          "name": "D2",
          "ticks": 49152,
          "time": 136.533504,
          "velocity": 0.8188976377952756
        },
        {
          "duration": 0.066666749999996,
          "durationTicks": 24,
          "midi": 38,
          "name": "D2",
          "ticks": 49200,
          "time": 136.66683749999999,
          "velocity": 0.8188976377952756
        },
        {
          "duration": 0.200000249999988,
          "durationTicks": 72,
          "midi": 50,
          "name": "D3",
          "ticks": 49248,
          "time": 136.800171,
          "velocity": 0.7874015748031497
        },
        {
          "duration": 0.066666749999996,
          "durationTicks": 24,
          "midi": 38,
          "name": "D2",
          "ticks": 49248,
          "time": 136.800171,
          "velocity": 0.8188976377952756
        },
        {
          "duration": 0.066666749999996,
          "durationTicks": 24,
          "midi": 38,
          "name": "D2",
          "ticks": 49296,
          "time": 136.9335045,
          "velocity": 0.8188976377952756
        },
        {
          "duration": 0.066666749999996,
          "durationTicks": 24,
          "midi": 37,
          "name": "C#2",
          "ticks": 49344,
          "time": 137.066838,
          "velocity": 0.8188976377952756
        },
        {
          "duration": 0.06666675000002442,
          "durationTicks": 24,
          "midi": 37,
          "name": "C#2",
          "ticks": 49392,
          "time": 137.20017149999998,
          "velocity": 0.8188976377952756
        },
        {
          "duration": 0.200000249999988,
          "durationTicks": 72,
          "midi": 49,
          "name": "C#3",
          "ticks": 49440,
          "time": 137.333505,
          "velocity": 0.7874015748031497
        },
        {
          "duration": 0.066666749999996,
          "durationTicks": 24,
          "midi": 37,
          "name": "C#2",
          "ticks": 49440,
          "time": 137.333505,
          "velocity": 0.8188976377952756
        },
        {
          "duration": 0.066666749999996,
          "durationTicks": 24,
          "midi": 37,
          "name": "C#2",
          "ticks": 49488,
          "time": 137.4668385,
          "velocity": 0.8188976377952756
        },
        {
          "duration": 0.066666749999996,
          "durationTicks": 24,
          "midi": 30,
          "name": "F#1",
          "ticks": 49536,
          "time": 137.600172,
          "velocity": 0.8188976377952756
        },
        {
          "duration": 0.066666749999996,
          "durationTicks": 24,
          "midi": 30,
          "name": "F#1",
          "ticks": 49584,
          "time": 137.7335055,
          "velocity": 0.8188976377952756
        },
        {
          "duration": 0.200000249999988,
          "durationTicks": 72,
          "midi": 41,
          "name": "F2",
          "ticks": 49632,
          "time": 137.866839,
          "velocity": 0.7874015748031497
        },
        {
          "duration": 0.066666749999996,
          "durationTicks": 24,
          "midi": 29,
          "name": "F1",
          "ticks": 49632,
          "time": 137.866839,
          "velocity": 0.8188976377952756
        },
        {
          "duration": 0.066666749999996,
          "durationTicks": 24,
          "midi": 29,
          "name": "F1",
          "ticks": 49680,
          "time": 138.0001725,
          "velocity": 0.8188976377952756
        },
        {
          "duration": 0.04444449999999733,
          "durationTicks": 16,
          "midi": 28,
          "name": "E1",
          "ticks": 49728,
          "time": 138.13350599999998,
          "velocity": 0.8188976377952756
        },
        {
          "duration": 0.04444449999996891,
          "durationTicks": 16,
          "midi": 28,
          "name": "E1",
          "ticks": 49752,
          "time": 138.20017275,
          "velocity": 0.8188976377952756
        },
        {
          "duration": 0.04444449999996891,
          "durationTicks": 16,
          "midi": 28,
          "name": "E1",
          "ticks": 49776,
          "time": 138.2668395,
          "velocity": 0.8188976377952756
        },
        {
          "duration": 0.04444449999999733,
          "durationTicks": 16,
          "midi": 28,
          "name": "E1",
          "ticks": 49800,
          "time": 138.33350625,
          "velocity": 0.8188976377952756
        },
        {
          "duration": 0.03333337500001221,
          "durationTicks": 12,
          "midi": 38,
          "name": "D2",
          "ticks": 49920,
          "time": 138.66683999999998,
          "velocity": 0.8188976377952756
        },
        {
          "duration": 0.03333337499998379,
          "durationTicks": 12,
          "midi": 38,
          "name": "D2",
          "ticks": 49944,
          "time": 138.73350675,
          "velocity": 0.8188976377952756
        },
        {
          "duration": 0.03333337499998379,
          "durationTicks": 12,
          "midi": 38,
          "name": "D2",
          "ticks": 49968,
          "time": 138.8001735,
          "velocity": 0.8188976377952756
        },
        {
          "duration": 0.03333337499998379,
          "durationTicks": 12,
          "midi": 38,
          "name": "D2",
          "ticks": 49992,
          "time": 138.86684025,
          "velocity": 0.8188976377952756
        },
        {
          "duration": 0.200000249999988,
          "durationTicks": 72,
          "midi": 50,
          "name": "D3",
          "ticks": 50016,
          "time": 138.933507,
          "velocity": 0.7874015748031497
        },
        {
          "duration": 0.03333337500001221,
          "durationTicks": 12,
          "midi": 38,
          "name": "D2",
          "ticks": 50016,
          "time": 138.933507,
          "velocity": 0.8188976377952756
        },
        {
          "duration": 0.03333337500001221,
          "durationTicks": 12,
          "midi": 38,
          "name": "D2",
          "ticks": 50040,
          "time": 139.00017375,
          "velocity": 0.8188976377952756
        },
        {
          "duration": 0.03333337500001221,
          "durationTicks": 12,
          "midi": 38,
          "name": "D2",
          "ticks": 50064,
          "time": 139.06684049999998,
          "velocity": 0.8188976377952756
        },
        {
          "duration": 0.03333337500001221,
          "durationTicks": 12,
          "midi": 38,
          "name": "D2",
          "ticks": 50088,
          "time": 139.13350724999998,
          "velocity": 0.8188976377952756
        },
        {
          "duration": 0.03333337499998379,
          "durationTicks": 12,
          "midi": 37,
          "name": "C#2",
          "ticks": 50112,
          "time": 139.200174,
          "velocity": 0.8188976377952756
        },
        {
          "duration": 0.03333337499998379,
          "durationTicks": 12,
          "midi": 37,
          "name": "C#2",
          "ticks": 50136,
          "time": 139.26684075,
          "velocity": 0.8188976377952756
        },
        {
          "duration": 0.03333337499998379,
          "durationTicks": 12,
          "midi": 37,
          "name": "C#2",
          "ticks": 50160,
          "time": 139.3335075,
          "velocity": 0.8188976377952756
        },
        {
          "duration": 0.03333337500001221,
          "durationTicks": 12,
          "midi": 37,
          "name": "C#2",
          "ticks": 50184,
          "time": 139.40017425,
          "velocity": 0.8188976377952756
        },
        {
          "duration": 0.20000025000001642,
          "durationTicks": 72,
          "midi": 49,
          "name": "C#3",
          "ticks": 50208,
          "time": 139.466841,
          "velocity": 0.7874015748031497
        },
        {
          "duration": 0.03333337500001221,
          "durationTicks": 12,
          "midi": 37,
          "name": "C#2",
          "ticks": 50208,
          "time": 139.466841,
          "velocity": 0.8188976377952756
        },
        {
          "duration": 0.03333337500001221,
          "durationTicks": 12,
          "midi": 37,
          "name": "C#2",
          "ticks": 50232,
          "time": 139.53350774999998,
          "velocity": 0.8188976377952756
        },
        {
          "duration": 0.03333337500001221,
          "durationTicks": 12,
          "midi": 37,
          "name": "C#2",
          "ticks": 50256,
          "time": 139.60017449999998,
          "velocity": 0.8188976377952756
        },
        {
          "duration": 0.03333337499998379,
          "durationTicks": 12,
          "midi": 37,
          "name": "C#2",
          "ticks": 50280,
          "time": 139.66684125,
          "velocity": 0.8188976377952756
        },
        {
          "duration": 0.03333337499998379,
          "durationTicks": 12,
          "midi": 30,
          "name": "F#1",
          "ticks": 50304,
          "time": 139.733508,
          "velocity": 0.8188976377952756
        },
        {
          "duration": 0.03333337499998379,
          "durationTicks": 12,
          "midi": 30,
          "name": "F#1",
          "ticks": 50328,
          "time": 139.80017475,
          "velocity": 0.8188976377952756
        },
        {
          "duration": 0.03333337500001221,
          "durationTicks": 12,
          "midi": 30,
          "name": "F#1",
          "ticks": 50352,
          "time": 139.8668415,
          "velocity": 0.8188976377952756
        },
        {
          "duration": 0.03333337500001221,
          "durationTicks": 12,
          "midi": 30,
          "name": "F#1",
          "ticks": 50376,
          "time": 139.93350825,
          "velocity": 0.8188976377952756
        },
        {
          "duration": 0.03333337500001221,
          "durationTicks": 12,
          "midi": 30,
          "name": "F#1",
          "ticks": 50400,
          "time": 140.00017499999998,
          "velocity": 0.8188976377952756
        },
        {
          "duration": 0.20000025000001642,
          "durationTicks": 72,
          "midi": 42,
          "name": "F#2",
          "ticks": 50400,
          "time": 140.00017499999998,
          "velocity": 0.7874015748031497
        },
        {
          "duration": 0.03333337500001221,
          "durationTicks": 12,
          "midi": 30,
          "name": "F#1",
          "ticks": 50424,
          "time": 140.06684174999998,
          "velocity": 0.8188976377952756
        },
        {
          "duration": 0.03333337499998379,
          "durationTicks": 12,
          "midi": 30,
          "name": "F#1",
          "ticks": 50448,
          "time": 140.1335085,
          "velocity": 0.8188976377952756
        },
        {
          "duration": 0.03333337499998379,
          "durationTicks": 12,
          "midi": 30,
          "name": "F#1",
          "ticks": 50472,
          "time": 140.20017525,
          "velocity": 0.8188976377952756
        },
        {
          "duration": 0.03333337499998379,
          "durationTicks": 12,
          "midi": 33,
          "name": "A1",
          "ticks": 50496,
          "time": 140.266842,
          "velocity": 0.8188976377952756
        },
        {
          "duration": 0.03333337500001221,
          "durationTicks": 12,
          "midi": 33,
          "name": "A1",
          "ticks": 50520,
          "time": 140.33350875,
          "velocity": 0.8188976377952756
        },
        {
          "duration": 0.03333337500001221,
          "durationTicks": 12,
          "midi": 33,
          "name": "A1",
          "ticks": 50544,
          "time": 140.4001755,
          "velocity": 0.8188976377952756
        },
        {
          "duration": 0.03333337500001221,
          "durationTicks": 12,
          "midi": 33,
          "name": "A1",
          "ticks": 50568,
          "time": 140.46684224999998,
          "velocity": 0.8188976377952756
        },
        {
          "duration": 0.20000025000001642,
          "durationTicks": 72,
          "midi": 46,
          "name": "A#2",
          "ticks": 50592,
          "time": 140.53350899999998,
          "velocity": 0.7874015748031497
        },
        {
          "duration": 0.03333337500001221,
          "durationTicks": 12,
          "midi": 34,
          "name": "A#1",
          "ticks": 50592,
          "time": 140.53350899999998,
          "velocity": 0.8188976377952756
        },
        {
          "duration": 0.03333337499998379,
          "durationTicks": 12,
          "midi": 34,
          "name": "A#1",
          "ticks": 50616,
          "time": 140.60017575,
          "velocity": 0.8188976377952756
        },
        {
          "duration": 0.03333337499998379,
          "durationTicks": 12,
          "midi": 34,
          "name": "A#1",
          "ticks": 50640,
          "time": 140.6668425,
          "velocity": 0.8188976377952756
        },
        {
          "duration": 0.03333337499998379,
          "durationTicks": 12,
          "midi": 34,
          "name": "A#1",
          "ticks": 50664,
          "time": 140.73350925,
          "velocity": 0.8188976377952756
        },
        {
          "duration": 0.066666749999996,
          "durationTicks": 24,
          "midi": 35,
          "name": "B1",
          "ticks": 50688,
          "time": 140.800176,
          "velocity": 0.8188976377952756
        },
        {
          "duration": 0.066666749999996,
          "durationTicks": 24,
          "midi": 35,
          "name": "B1",
          "ticks": 50736,
          "time": 140.93350949999999,
          "velocity": 0.8188976377952756
        },
        {
          "duration": 0.066666749999996,
          "durationTicks": 24,
          "midi": 37,
          "name": "C#2",
          "ticks": 50880,
          "time": 141.33351,
          "velocity": 0.8188976377952756
        },
        {
          "duration": 0.06666675000002442,
          "durationTicks": 24,
          "midi": 37,
          "name": "C#2",
          "ticks": 50928,
          "time": 141.46684349999998,
          "velocity": 0.8188976377952756
        },
        {
          "duration": 0.066666749999996,
          "durationTicks": 24,
          "midi": 30,
          "name": "F#1",
          "ticks": 51072,
          "time": 141.866844,
          "velocity": 0.8188976377952756
        },
        {
          "duration": 0.066666749999996,
          "durationTicks": 24,
          "midi": 37,
          "name": "C#2",
          "ticks": 51168,
          "time": 142.133511,
          "velocity": 0.8188976377952756
        },
        {
          "duration": 0.06666675000002442,
          "durationTicks": 24,
          "midi": 30,
          "name": "F#1",
          "ticks": 51264,
          "time": 142.40017799999998,
          "velocity": 0.8188976377952756
        },
        {
          "duration": 0.066666749999996,
          "durationTicks": 24,
          "midi": 29,
          "name": "F1",
          "ticks": 51360,
          "time": 142.666845,
          "velocity": 0.8188976377952756
        },
        {
          "duration": 0.066666749999996,
          "durationTicks": 24,
          "midi": 35,
          "name": "B1",
          "ticks": 51456,
          "time": 142.933512,
          "velocity": 0.8188976377952756
        },
        {
          "duration": 0.066666749999996,
          "durationTicks": 24,
          "midi": 35,
          "name": "B1",
          "ticks": 51504,
          "time": 143.0668455,
          "velocity": 0.8188976377952756
        },
        {
          "duration": 0.066666749999996,
          "durationTicks": 24,
          "midi": 37,
          "name": "C#2",
          "ticks": 51648,
          "time": 143.466846,
          "velocity": 0.8188976377952756
        },
        {
          "duration": 0.066666749999996,
          "durationTicks": 24,
          "midi": 37,
          "name": "C#2",
          "ticks": 51696,
          "time": 143.6001795,
          "velocity": 0.8188976377952756
        },
        {
          "duration": 0.036111156249972964,
          "durationTicks": 13,
          "midi": 30,
          "name": "F#1",
          "ticks": 51840,
          "time": 144.00018,
          "velocity": 0.8188976377952756
        },
        {
          "duration": 0.036111156249972964,
          "durationTicks": 13,
          "midi": 37,
          "name": "C#2",
          "ticks": 51864,
          "time": 144.06684675,
          "velocity": 0.8188976377952756
        },
        {
          "duration": 0.036111156250001386,
          "durationTicks": 13,
          "midi": 35,
          "name": "B1",
          "ticks": 51888,
          "time": 144.1335135,
          "velocity": 0.8188976377952756
        },
        {
          "duration": 0.036111156250001386,
          "durationTicks": 13,
          "midi": 30,
          "name": "F#1",
          "ticks": 51912,
          "time": 144.20018025,
          "velocity": 0.8188976377952756
        },
        {
          "duration": 0.036111156250001386,
          "durationTicks": 13,
          "midi": 37,
          "name": "C#2",
          "ticks": 51936,
          "time": 144.26684699999998,
          "velocity": 0.8188976377952756
        },
        {
          "duration": 0.036111156250001386,
          "durationTicks": 13,
          "midi": 44,
          "name": "G#2",
          "ticks": 51960,
          "time": 144.33351374999998,
          "velocity": 0.8188976377952756
        },
        {
          "duration": 0.036111156249972964,
          "durationTicks": 13,
          "midi": 42,
          "name": "F#2",
          "ticks": 51984,
          "time": 144.4001805,
          "velocity": 0.8188976377952756
        },
        {
          "duration": 0.036111156249972964,
          "durationTicks": 13,
          "midi": 37,
          "name": "C#2",
          "ticks": 52008,
          "time": 144.46684725,
          "velocity": 0.8188976377952756
        },
        {
          "duration": 0.266666999999984,
          "durationTicks": 96,
          "midi": 30,
          "name": "F#1",
          "ticks": 52032,
          "time": 144.533514,
          "velocity": 0.8188976377952756
        },
        {
          "duration": 0.22222249999998667,
          "durationTicks": 80,
          "midi": 35,
          "name": "B1",
          "ticks": 54528,
          "time": 151.466856,
          "velocity": 0.8188976377952756
        },
        {
          "duration": 0.2222225000000151,
          "durationTicks": 80,
          "midi": 35,
          "name": "B1",
          "ticks": 54624,
          "time": 151.733523,
          "velocity": 0.8188976377952756
        },
        {
          "duration": 0.22222249999998667,
          "durationTicks": 80,
          "midi": 37,
          "name": "C#2",
          "ticks": 54720,
          "time": 152.00019,
          "velocity": 0.8188976377952756
        },
        {
          "duration": 0.2222225000000151,
          "durationTicks": 80,
          "midi": 37,
          "name": "C#2",
          "ticks": 54816,
          "time": 152.266857,
          "velocity": 0.8188976377952756
        },
        {
          "duration": 0.2222225000000151,
          "durationTicks": 80,
          "midi": 38,
          "name": "D2",
          "ticks": 54912,
          "time": 152.533524,
          "velocity": 0.8188976377952756
        },
        {
          "duration": 0.2222225000000151,
          "durationTicks": 80,
          "midi": 38,
          "name": "D2",
          "ticks": 55008,
          "time": 152.80019099999998,
          "velocity": 0.8188976377952756
        },
        {
          "duration": 0.2222225000000151,
          "durationTicks": 80,
          "midi": 38,
          "name": "D2",
          "ticks": 55104,
          "time": 153.066858,
          "velocity": 0.8188976377952756
        },
        {
          "duration": 0.2222225000000151,
          "durationTicks": 80,
          "midi": 38,
          "name": "D2",
          "ticks": 55200,
          "time": 153.33352499999998,
          "velocity": 0.8188976377952756
        },
        {
          "duration": 0.2222225000000151,
          "durationTicks": 80,
          "midi": 35,
          "name": "B1",
          "ticks": 55296,
          "time": 153.600192,
          "velocity": 0.8188976377952756
        },
        {
          "duration": 0.22222249999998667,
          "durationTicks": 80,
          "midi": 35,
          "name": "B1",
          "ticks": 55392,
          "time": 153.866859,
          "velocity": 0.8188976377952756
        },
        {
          "duration": 0.2222225000000151,
          "durationTicks": 80,
          "midi": 37,
          "name": "C#2",
          "ticks": 55488,
          "time": 154.133526,
          "velocity": 0.8188976377952756
        },
        {
          "duration": 0.2222225000000151,
          "durationTicks": 80,
          "midi": 37,
          "name": "C#2",
          "ticks": 55584,
          "time": 154.400193,
          "velocity": 0.8188976377952756
        },
        {
          "duration": 0.2222225000000151,
          "durationTicks": 80,
          "midi": 38,
          "name": "D2",
          "ticks": 55680,
          "time": 154.66685999999999,
          "velocity": 0.8188976377952756
        },
        {
          "duration": 0.2222225000000151,
          "durationTicks": 80,
          "midi": 38,
          "name": "D2",
          "ticks": 55776,
          "time": 154.933527,
          "velocity": 0.8188976377952756
        },
        {
          "duration": 0.2222225000000151,
          "durationTicks": 80,
          "midi": 38,
          "name": "D2",
          "ticks": 55872,
          "time": 155.20019399999998,
          "velocity": 0.8188976377952756
        },
        {
          "duration": 0.2222225000000151,
          "durationTicks": 80,
          "midi": 38,
          "name": "D2",
          "ticks": 55968,
          "time": 155.466861,
          "velocity": 0.8188976377952756
        },
        {
          "duration": 0.11111124999999333,
          "durationTicks": 40,
          "midi": 37,
          "name": "C#2",
          "ticks": 56064,
          "time": 155.73352799999998,
          "velocity": 0.8188976377952756
        },
        {
          "duration": 0.11111124999999333,
          "durationTicks": 40,
          "midi": 37,
          "name": "C#2",
          "ticks": 56112,
          "time": 155.8668615,
          "velocity": 0.8188976377952756
        },
        {
          "duration": 0.11111124999999333,
          "durationTicks": 40,
          "midi": 37,
          "name": "C#2",
          "ticks": 56160,
          "time": 156.000195,
          "velocity": 0.8188976377952756
        },
        {
          "duration": 0.11111124999999333,
          "durationTicks": 40,
          "midi": 37,
          "name": "C#2",
          "ticks": 56208,
          "time": 156.13352849999998,
          "velocity": 0.8188976377952756
        },
        {
          "duration": 0.11111124999999333,
          "durationTicks": 40,
          "midi": 37,
          "name": "C#2",
          "ticks": 56256,
          "time": 156.266862,
          "velocity": 0.8188976377952756
        },
        {
          "duration": 0.11111124999999333,
          "durationTicks": 40,
          "midi": 37,
          "name": "C#2",
          "ticks": 56304,
          "time": 156.4001955,
          "velocity": 0.8188976377952756
        },
        {
          "duration": 0.11111124999999333,
          "durationTicks": 40,
          "midi": 37,
          "name": "C#2",
          "ticks": 56352,
          "time": 156.533529,
          "velocity": 0.8188976377952756
        },
        {
          "duration": 0.11111124999999333,
          "durationTicks": 40,
          "midi": 37,
          "name": "C#2",
          "ticks": 56400,
          "time": 156.66686249999998,
          "velocity": 0.8188976377952756
        },
        {
          "duration": 0.11111124999999333,
          "durationTicks": 40,
          "midi": 37,
          "name": "C#2",
          "ticks": 56448,
          "time": 156.800196,
          "velocity": 0.8188976377952756
        },
        {
          "duration": 0.11111124999999333,
          "durationTicks": 40,
          "midi": 37,
          "name": "C#2",
          "ticks": 56496,
          "time": 156.9335295,
          "velocity": 0.8188976377952756
        },
        {
          "duration": 0.11111124999999333,
          "durationTicks": 40,
          "midi": 37,
          "name": "C#2",
          "ticks": 56544,
          "time": 157.06686299999998,
          "velocity": 0.8188976377952756
        },
        {
          "duration": 0.11111124999996491,
          "durationTicks": 40,
          "midi": 37,
          "name": "C#2",
          "ticks": 56592,
          "time": 157.2001965,
          "velocity": 0.8188976377952756
        },
        {
          "duration": 0.11111124999999333,
          "durationTicks": 40,
          "midi": 37,
          "name": "C#2",
          "ticks": 56640,
          "time": 157.33353,
          "velocity": 0.8188976377952756
        },
        {
          "duration": 0.11111124999999333,
          "durationTicks": 40,
          "midi": 37,
          "name": "C#2",
          "ticks": 56688,
          "time": 157.4668635,
          "velocity": 0.8188976377952756
        },
        {
          "duration": 0.11111124999999333,
          "durationTicks": 40,
          "midi": 37,
          "name": "C#2",
          "ticks": 56736,
          "time": 157.60019699999998,
          "velocity": 0.8188976377952756
        },
        {
          "duration": 0.11111124999999333,
          "durationTicks": 40,
          "midi": 37,
          "name": "C#2",
          "ticks": 56784,
          "time": 157.7335305,
          "velocity": 0.8188976377952756
        },
        {
          "duration": 0.04444449999999733,
          "durationTicks": 16,
          "midi": 34,
          "name": "A#1",
          "ticks": 56832,
          "time": 157.866864,
          "velocity": 0.8188976377952756
        },
        {
          "duration": 0.04444449999999733,
          "durationTicks": 16,
          "midi": 34,
          "name": "A#1",
          "ticks": 56856,
          "time": 157.93353075,
          "velocity": 0.8188976377952756
        },
        {
          "duration": 0.04444449999999733,
          "durationTicks": 16,
          "midi": 34,
          "name": "A#1",
          "ticks": 56880,
          "time": 158.00019749999998,
          "velocity": 0.8188976377952756
        },
        {
          "duration": 0.04444449999999733,
          "durationTicks": 16,
          "midi": 34,
          "name": "A#1",
          "ticks": 56904,
          "time": 158.06686424999998,
          "velocity": 0.8188976377952756
        },
        {
          "duration": 0.04444449999996891,
          "durationTicks": 16,
          "midi": 34,
          "name": "A#1",
          "ticks": 56928,
          "time": 158.133531,
          "velocity": 0.8188976377952756
        },
        {
          "duration": 0.04444449999996891,
          "durationTicks": 16,
          "midi": 34,
          "name": "A#1",
          "ticks": 56952,
          "time": 158.20019775,
          "velocity": 0.8188976377952756
        },
        {
          "duration": 0.04444449999999733,
          "durationTicks": 16,
          "midi": 34,
          "name": "A#1",
          "ticks": 56976,
          "time": 158.2668645,
          "velocity": 0.8188976377952756
        },
        {
          "duration": 0.04444449999999733,
          "durationTicks": 16,
          "midi": 34,
          "name": "A#1",
          "ticks": 57000,
          "time": 158.33353125,
          "velocity": 0.8188976377952756
        },
        {
          "duration": 0.04444449999999733,
          "durationTicks": 16,
          "midi": 34,
          "name": "A#1",
          "ticks": 57024,
          "time": 158.400198,
          "velocity": 0.8188976377952756
        },
        {
          "duration": 0.04444449999999733,
          "durationTicks": 16,
          "midi": 34,
          "name": "A#1",
          "ticks": 57048,
          "time": 158.46686474999998,
          "velocity": 0.8188976377952756
        },
        {
          "duration": 0.04444449999999733,
          "durationTicks": 16,
          "midi": 34,
          "name": "A#1",
          "ticks": 57072,
          "time": 158.53353149999998,
          "velocity": 0.8188976377952756
        },
        {
          "duration": 0.04444449999996891,
          "durationTicks": 16,
          "midi": 34,
          "name": "A#1",
          "ticks": 57096,
          "time": 158.60019825,
          "velocity": 0.8188976377952756
        },
        {
          "duration": 0.04444449999996891,
          "durationTicks": 16,
          "midi": 34,
          "name": "A#1",
          "ticks": 57120,
          "time": 158.666865,
          "velocity": 0.8188976377952756
        },
        {
          "duration": 0.04444449999999733,
          "durationTicks": 16,
          "midi": 34,
          "name": "A#1",
          "ticks": 57144,
          "time": 158.73353175,
          "velocity": 0.8188976377952756
        },
        {
          "duration": 0.04444449999999733,
          "durationTicks": 16,
          "midi": 34,
          "name": "A#1",
          "ticks": 57168,
          "time": 158.8001985,
          "velocity": 0.8188976377952756
        },
        {
          "duration": 0.04444449999999733,
          "durationTicks": 16,
          "midi": 34,
          "name": "A#1",
          "ticks": 57192,
          "time": 158.86686525,
          "velocity": 0.8188976377952756
        },
        {
          "duration": 0.04444449999999733,
          "durationTicks": 16,
          "midi": 34,
          "name": "A#1",
          "ticks": 57216,
          "time": 158.93353199999999,
          "velocity": 0.8188976377952756
        },
        {
          "duration": 0.04444449999999733,
          "durationTicks": 16,
          "midi": 34,
          "name": "A#1",
          "ticks": 57240,
          "time": 159.00019874999998,
          "velocity": 0.8188976377952756
        },
        {
          "duration": 0.04444449999996891,
          "durationTicks": 16,
          "midi": 34,
          "name": "A#1",
          "ticks": 57264,
          "time": 159.0668655,
          "velocity": 0.8188976377952756
        },
        {
          "duration": 0.04444449999996891,
          "durationTicks": 16,
          "midi": 34,
          "name": "A#1",
          "ticks": 57288,
          "time": 159.13353225,
          "velocity": 0.8188976377952756
        },
        {
          "duration": 0.04444449999999733,
          "durationTicks": 16,
          "midi": 34,
          "name": "A#1",
          "ticks": 57312,
          "time": 159.200199,
          "velocity": 0.8188976377952756
        },
        {
          "duration": 0.04444449999999733,
          "durationTicks": 16,
          "midi": 34,
          "name": "A#1",
          "ticks": 57336,
          "time": 159.26686575,
          "velocity": 0.8188976377952756
        },
        {
          "duration": 0.04444449999999733,
          "durationTicks": 16,
          "midi": 34,
          "name": "A#1",
          "ticks": 57360,
          "time": 159.3335325,
          "velocity": 0.8188976377952756
        },
        {
          "duration": 0.04444449999999733,
          "durationTicks": 16,
          "midi": 34,
          "name": "A#1",
          "ticks": 57384,
          "time": 159.40019925,
          "velocity": 0.8188976377952756
        },
        {
          "duration": 0.04444449999999733,
          "durationTicks": 16,
          "midi": 34,
          "name": "A#1",
          "ticks": 57408,
          "time": 159.46686599999998,
          "velocity": 0.8188976377952756
        },
        {
          "duration": 0.04444449999996891,
          "durationTicks": 16,
          "midi": 34,
          "name": "A#1",
          "ticks": 57432,
          "time": 159.53353275,
          "velocity": 0.8188976377952756
        },
        {
          "duration": 0.04444449999996891,
          "durationTicks": 16,
          "midi": 34,
          "name": "A#1",
          "ticks": 57456,
          "time": 159.6001995,
          "velocity": 0.8188976377952756
        },
        {
          "duration": 0.04444449999999733,
          "durationTicks": 16,
          "midi": 34,
          "name": "A#1",
          "ticks": 57480,
          "time": 159.66686625,
          "velocity": 0.8188976377952756
        },
        {
          "duration": 0.04444449999999733,
          "durationTicks": 16,
          "midi": 34,
          "name": "A#1",
          "ticks": 57504,
          "time": 159.733533,
          "velocity": 0.8188976377952756
        },
        {
          "duration": 0.04444449999999733,
          "durationTicks": 16,
          "midi": 34,
          "name": "A#1",
          "ticks": 57528,
          "time": 159.80019975,
          "velocity": 0.8188976377952756
        },
        {
          "duration": 0.04444449999999733,
          "durationTicks": 16,
          "midi": 34,
          "name": "A#1",
          "ticks": 57552,
          "time": 159.8668665,
          "velocity": 0.8188976377952756
        },
        {
          "duration": 0.04444449999999733,
          "durationTicks": 16,
          "midi": 34,
          "name": "A#1",
          "ticks": 57576,
          "time": 159.93353324999998,
          "velocity": 0.8188976377952756
        },
        {
          "duration": 0.03333337500001221,
          "durationTicks": 12,
          "midi": 27,
          "name": "D#1",
          "ticks": 60288,
          "time": 167.46687599999998,
          "velocity": 0.8188976377952756
        },
        {
          "duration": 0.03333337500001221,
          "durationTicks": 12,
          "midi": 39,
          "name": "D#2",
          "ticks": 60288,
          "time": 167.46687599999998,
          "velocity": 0.8188976377952756
        },
        {
          "duration": 0.03333337500001221,
          "durationTicks": 12,
          "midi": 27,
          "name": "D#1",
          "ticks": 60312,
          "time": 167.53354274999998,
          "velocity": 0.8188976377952756
        },
        {
          "duration": 0.03333337500001221,
          "durationTicks": 12,
          "midi": 39,
          "name": "D#2",
          "ticks": 60312,
          "time": 167.53354274999998,
          "velocity": 0.8188976377952756
        },
        {
          "duration": 0.03333337499998379,
          "durationTicks": 12,
          "midi": 28,
          "name": "E1",
          "ticks": 60336,
          "time": 167.6002095,
          "velocity": 0.8188976377952756
        },
        {
          "duration": 0.03333337499998379,
          "durationTicks": 12,
          "midi": 40,
          "name": "E2",
          "ticks": 60336,
          "time": 167.6002095,
          "velocity": 0.8188976377952756
        },
        {
          "duration": 0.03333337499998379,
          "durationTicks": 12,
          "midi": 40,
          "name": "E2",
          "ticks": 60360,
          "time": 167.66687625,
          "velocity": 0.8188976377952756
        },
        {
          "duration": 0.03333337499998379,
          "durationTicks": 12,
          "midi": 28,
          "name": "E1",
          "ticks": 60360,
          "time": 167.66687625,
          "velocity": 0.8188976377952756
        },
        {
          "duration": 0.03333337499998379,
          "durationTicks": 12,
          "midi": 41,
          "name": "F2",
          "ticks": 60384,
          "time": 167.733543,
          "velocity": 0.8188976377952756
        },
        {
          "duration": 0.03333337499998379,
          "durationTicks": 12,
          "midi": 29,
          "name": "F1",
          "ticks": 60384,
          "time": 167.733543,
          "velocity": 0.8188976377952756
        },
        {
          "duration": 0.03333337500001221,
          "durationTicks": 12,
          "midi": 29,
          "name": "F1",
          "ticks": 60408,
          "time": 167.80020975,
          "velocity": 0.8188976377952756
        },
        {
          "duration": 0.03333337500001221,
          "durationTicks": 12,
          "midi": 41,
          "name": "F2",
          "ticks": 60408,
          "time": 167.80020975,
          "velocity": 0.8188976377952756
        },
        {
          "duration": 0.03333337500001221,
          "durationTicks": 12,
          "midi": 42,
          "name": "F#2",
          "ticks": 60432,
          "time": 167.8668765,
          "velocity": 0.8188976377952756
        },
        {
          "duration": 0.03333337500001221,
          "durationTicks": 12,
          "midi": 30,
          "name": "F#1",
          "ticks": 60432,
          "time": 167.8668765,
          "velocity": 0.8188976377952756
        },
        {
          "duration": 0.03333337500001221,
          "durationTicks": 12,
          "midi": 30,
          "name": "F#1",
          "ticks": 60456,
          "time": 167.93354324999999,
          "velocity": 0.8188976377952756
        },
        {
          "duration": 0.03333337500001221,
          "durationTicks": 12,
          "midi": 42,
          "name": "F#2",
          "ticks": 60456,
          "time": 167.93354324999999,
          "velocity": 0.8188976377952756
        },
        {
          "duration": 0.03333337500001221,
          "durationTicks": 12,
          "midi": 31,
          "name": "G1",
          "ticks": 60480,
          "time": 168.00020999999998,
          "velocity": 0.8188976377952756
        },
        {
          "duration": 0.03333337500001221,
          "durationTicks": 12,
          "midi": 43,
          "name": "G2",
          "ticks": 60480,
          "time": 168.00020999999998,
          "velocity": 0.8188976377952756
        },
        {
          "duration": 0.03333337499998379,
          "durationTicks": 12,
          "midi": 43,
          "name": "G2",
          "ticks": 60504,
          "time": 168.06687675,
          "velocity": 0.8188976377952756
        },
        {
          "duration": 0.03333337499998379,
          "durationTicks": 12,
          "midi": 31,
          "name": "G1",
          "ticks": 60504,
          "time": 168.06687675,
          "velocity": 0.8188976377952756
        },
        {
          "duration": 0.03333337499998379,
          "durationTicks": 12,
          "midi": 44,
          "name": "G#2",
          "ticks": 60528,
          "time": 168.1335435,
          "velocity": 0.8188976377952756
        },
        {
          "duration": 0.03333337499998379,
          "durationTicks": 12,
          "midi": 32,
          "name": "G#1",
          "ticks": 60528,
          "time": 168.1335435,
          "velocity": 0.8188976377952756
        },
        {
          "duration": 0.03333337499998379,
          "durationTicks": 12,
          "midi": 32,
          "name": "G#1",
          "ticks": 60552,
          "time": 168.20021025,
          "velocity": 0.8188976377952756
        },
        {
          "duration": 0.03333337499998379,
          "durationTicks": 12,
          "midi": 44,
          "name": "G#2",
          "ticks": 60552,
          "time": 168.20021025,
          "velocity": 0.8188976377952756
        },
        {
          "duration": 0.03333337500001221,
          "durationTicks": 12,
          "midi": 45,
          "name": "A2",
          "ticks": 60576,
          "time": 168.266877,
          "velocity": 0.8188976377952756
        },
        {
          "duration": 0.03333337500001221,
          "durationTicks": 12,
          "midi": 33,
          "name": "A1",
          "ticks": 60576,
          "time": 168.266877,
          "velocity": 0.8188976377952756
        },
        {
          "duration": 0.03333337500001221,
          "durationTicks": 12,
          "midi": 45,
          "name": "A2",
          "ticks": 60600,
          "time": 168.33354375,
          "velocity": 0.8188976377952756
        },
        {
          "duration": 0.03333337500001221,
          "durationTicks": 12,
          "midi": 33,
          "name": "A1",
          "ticks": 60600,
          "time": 168.33354375,
          "velocity": 0.8188976377952756
        },
        {
          "duration": 0.03333337500001221,
          "durationTicks": 12,
          "midi": 34,
          "name": "A#1",
          "ticks": 60624,
          "time": 168.4002105,
          "velocity": 0.8188976377952756
        },
        {
          "duration": 0.03333337500001221,
          "durationTicks": 12,
          "midi": 46,
          "name": "A#2",
          "ticks": 60624,
          "time": 168.4002105,
          "velocity": 0.8188976377952756
        },
        {
          "duration": 0.03333337500001221,
          "durationTicks": 12,
          "midi": 46,
          "name": "A#2",
          "ticks": 60648,
          "time": 168.46687724999998,
          "velocity": 0.8188976377952756
        },
        {
          "duration": 0.03333337500001221,
          "durationTicks": 12,
          "midi": 34,
          "name": "A#1",
          "ticks": 60648,
          "time": 168.46687724999998,
          "velocity": 0.8188976377952756
        },
        {
          "duration": 0.03333337499998379,
          "durationTicks": 12,
          "midi": 47,
          "name": "B2",
          "ticks": 60672,
          "time": 168.533544,
          "velocity": 0.8188976377952756
        },
        {
          "duration": 0.03333337499998379,
          "durationTicks": 12,
          "midi": 35,
          "name": "B1",
          "ticks": 60672,
          "time": 168.533544,
          "velocity": 0.8188976377952756
        },
        {
          "duration": 0.03333337499998379,
          "durationTicks": 12,
          "midi": 35,
          "name": "B1",
          "ticks": 60696,
          "time": 168.60021075,
          "velocity": 0.8188976377952756
        },
        {
          "duration": 0.03333337499998379,
          "durationTicks": 12,
          "midi": 47,
          "name": "B2",
          "ticks": 60696,
          "time": 168.60021075,
          "velocity": 0.8188976377952756
        },
        {
          "duration": 0.03333337499998379,
          "durationTicks": 12,
          "midi": 48,
          "name": "C3",
          "ticks": 60720,
          "time": 168.6668775,
          "velocity": 0.8188976377952756
        },
        {
          "duration": 0.03333337499998379,
          "durationTicks": 12,
          "midi": 36,
          "name": "C2",
          "ticks": 60720,
          "time": 168.6668775,
          "velocity": 0.8188976377952756
        },
        {
          "duration": 0.03333337499998379,
          "durationTicks": 12,
          "midi": 48,
          "name": "C3",
          "ticks": 60744,
          "time": 168.73354425,
          "velocity": 0.8188976377952756
        },
        {
          "duration": 0.03333337499998379,
          "durationTicks": 12,
          "midi": 36,
          "name": "C2",
          "ticks": 60744,
          "time": 168.73354425,
          "velocity": 0.8188976377952756
        },
        {
          "duration": 0.03333337500001221,
          "durationTicks": 12,
          "midi": 49,
          "name": "C#3",
          "ticks": 60768,
          "time": 168.800211,
          "velocity": 0.8188976377952756
        },
        {
          "duration": 0.03333337500001221,
          "durationTicks": 12,
          "midi": 37,
          "name": "C#2",
          "ticks": 60768,
          "time": 168.800211,
          "velocity": 0.8188976377952756
        },
        {
          "duration": 0.03333337500001221,
          "durationTicks": 12,
          "midi": 49,
          "name": "C#3",
          "ticks": 60792,
          "time": 168.86687775,
          "velocity": 0.8188976377952756
        },
        {
          "duration": 0.03333337500001221,
          "durationTicks": 12,
          "midi": 37,
          "name": "C#2",
          "ticks": 60792,
          "time": 168.86687775,
          "velocity": 0.8188976377952756
        },
        {
          "duration": 0.03333337500001221,
          "durationTicks": 12,
          "midi": 38,
          "name": "D2",
          "ticks": 60816,
          "time": 168.93354449999998,
          "velocity": 0.8188976377952756
        },
        {
          "duration": 0.03333337500001221,
          "durationTicks": 12,
          "midi": 50,
          "name": "D3",
          "ticks": 60816,
          "time": 168.93354449999998,
          "velocity": 0.8188976377952756
        },
        {
          "duration": 0.03333337500001221,
          "durationTicks": 12,
          "midi": 38,
          "name": "D2",
          "ticks": 60840,
          "time": 169.00021124999998,
          "velocity": 0.8188976377952756
        },
        {
          "duration": 0.03333337500001221,
          "durationTicks": 12,
          "midi": 50,
          "name": "D3",
          "ticks": 60840,
          "time": 169.00021124999998,
          "velocity": 0.8188976377952756
        },
        {
          "duration": 0.10000012500000821,
          "durationTicks": 36,
          "midi": 34,
          "name": "A#1",
          "ticks": 61104,
          "time": 169.7335455,
          "velocity": 0.8188976377952756
        },
        {
          "duration": 0.10000012500000821,
          "durationTicks": 36,
          "midi": 34,
          "name": "A#1",
          "ticks": 61152,
          "time": 169.86687899999998,
          "velocity": 0.8188976377952756
        },
        {
          "duration": 0.10000012500000821,
          "durationTicks": 36,
          "midi": 34,
          "name": "A#1",
          "ticks": 61248,
          "time": 170.133546,
          "velocity": 0.8188976377952756
        },
        {
          "duration": 0.10000012500000821,
          "durationTicks": 36,
          "midi": 34,
          "name": "A#1",
          "ticks": 61296,
          "time": 170.2668795,
          "velocity": 0.8188976377952756
        },
        {
          "duration": 0.2333336250000002,
          "durationTicks": 84,
          "midi": 34,
          "name": "A#1",
          "ticks": 61392,
          "time": 170.5335465,
          "velocity": 0.8188976377952756
        },
        {
          "duration": 0.10000012500000821,
          "durationTicks": 36,
          "midi": 34,
          "name": "A#1",
          "ticks": 61488,
          "time": 170.80021349999998,
          "velocity": 0.8188976377952756
        },
        {
          "duration": 0.10000012499997979,
          "durationTicks": 36,
          "midi": 34,
          "name": "A#1",
          "ticks": 61536,
          "time": 170.933547,
          "velocity": 0.8188976377952756
        },
        {
          "duration": 0.10000012500000821,
          "durationTicks": 36,
          "midi": 34,
          "name": "A#1",
          "ticks": 61584,
          "time": 171.0668805,
          "velocity": 0.8188976377952756
        },
        {
          "duration": 0.03333337499998379,
          "durationTicks": 12,
          "midi": 38,
          "name": "D2",
          "ticks": 63120,
          "time": 175.3335525,
          "velocity": 0.8110236220472441
        },
        {
          "duration": 0.03333337500001221,
          "durationTicks": 12,
          "midi": 38,
          "name": "D2",
          "ticks": 63144,
          "time": 175.40021925,
          "velocity": 0.8110236220472441
        },
        {
          "duration": 0.133333499999992,
          "durationTicks": 48,
          "midi": 37,
          "name": "C#2",
          "ticks": 63168,
          "time": 175.466886,
          "velocity": 0.8110236220472441
        },
        {
          "duration": 0.133333499999992,
          "durationTicks": 48,
          "midi": 36,
          "name": "C2",
          "ticks": 63240,
          "time": 175.66688625,
          "velocity": 0.8110236220472441
        },
        {
          "duration": 0.133333499999992,
          "durationTicks": 48,
          "midi": 36,
          "name": "C2",
          "ticks": 63312,
          "time": 175.8668865,
          "velocity": 0.8110236220472441
        },
        {
          "duration": 0.266666999999984,
          "durationTicks": 96,
          "midi": 35,
          "name": "B1",
          "ticks": 63456,
          "time": 176.266887,
          "velocity": 0.8110236220472441
        },
        {
          "duration": 0.2666670000000124,
          "durationTicks": 96,
          "midi": 34,
          "name": "A#1",
          "ticks": 63648,
          "time": 176.800221,
          "velocity": 0.8110236220472441
        },
        {
          "duration": 0.2666670000000124,
          "durationTicks": 96,
          "midi": 27,
          "name": "D#1",
          "ticks": 63840,
          "time": 177.333555,
          "velocity": 0.8110236220472441
        },
        {
          "duration": 0.2666670000000124,
          "durationTicks": 96,
          "midi": 31,
          "name": "G1",
          "ticks": 64032,
          "time": 177.866889,
          "velocity": 0.8110236220472441
        },
        {
          "duration": 0.2666670000000124,
          "durationTicks": 96,
          "midi": 32,
          "name": "G#1",
          "ticks": 64224,
          "time": 178.40022299999998,
          "velocity": 0.8110236220472441
        },
        {
          "duration": 0.2666670000000124,
          "durationTicks": 96,
          "midi": 33,
          "name": "A1",
          "ticks": 64416,
          "time": 178.93355699999998,
          "velocity": 0.8110236220472441
        },
        {
          "duration": 0.133333499999992,
          "durationTicks": 48,
          "midi": 34,
          "name": "A#1",
          "ticks": 64512,
          "time": 179.200224,
          "velocity": 0.8110236220472441
        },
        {
          "duration": 0.133333499999992,
          "durationTicks": 48,
          "midi": 34,
          "name": "A#1",
          "ticks": 64608,
          "time": 179.466891,
          "velocity": 0.8110236220472441
        },
        {
          "duration": 0.133333499999992,
          "durationTicks": 48,
          "midi": 35,
          "name": "B1",
          "ticks": 64704,
          "time": 179.733558,
          "velocity": 0.8110236220472441
        },
        {
          "duration": 0.133333499999992,
          "durationTicks": 48,
          "midi": 35,
          "name": "B1",
          "ticks": 64800,
          "time": 180.000225,
          "velocity": 0.8110236220472441
        },
        {
          "duration": 0.13333350000002042,
          "durationTicks": 48,
          "midi": 36,
          "name": "C2",
          "ticks": 64896,
          "time": 180.26689199999998,
          "velocity": 0.8110236220472441
        },
        {
          "duration": 0.133333499999992,
          "durationTicks": 48,
          "midi": 36,
          "name": "C2",
          "ticks": 64992,
          "time": 180.533559,
          "velocity": 0.8110236220472441
        },
        {
          "duration": 0.13333350000002042,
          "durationTicks": 48,
          "midi": 37,
          "name": "C#2",
          "ticks": 65088,
          "time": 180.80022599999998,
          "velocity": 0.8110236220472441
        },
        {
          "duration": 0.133333499999992,
          "durationTicks": 48,
          "midi": 37,
          "name": "C#2",
          "ticks": 65184,
          "time": 181.066893,
          "velocity": 0.8110236220472441
        },
        {
          "duration": 0.13333350000002042,
          "durationTicks": 48,
          "midi": 38,
          "name": "D2",
          "ticks": 65280,
          "time": 181.33355999999998,
          "velocity": 0.8110236220472441
        },
        {
          "duration": 0.200000249999988,
          "durationTicks": 72,
          "midi": 39,
          "name": "D#2",
          "ticks": 66048,
          "time": 183.466896,
          "velocity": 0.8188976377952756
        },
        {
          "duration": 0.200000249999988,
          "durationTicks": 72,
          "midi": 39,
          "name": "D#2",
          "ticks": 66144,
          "time": 183.733563,
          "velocity": 0.8188976377952756
        },
        {
          "duration": 0.200000249999988,
          "durationTicks": 72,
          "midi": 51,
          "name": "D#3",
          "ticks": 66144,
          "time": 183.733563,
          "velocity": 0.7874015748031497
        },
        {
          "duration": 0.20000025000001642,
          "durationTicks": 72,
          "midi": 38,
          "name": "D2",
          "ticks": 66240,
          "time": 184.00023,
          "velocity": 0.8188976377952756
        },
        {
          "duration": 0.200000249999988,
          "durationTicks": 72,
          "midi": 38,
          "name": "D2",
          "ticks": 66336,
          "time": 184.266897,
          "velocity": 0.8188976377952756
        },
        {
          "duration": 0.200000249999988,
          "durationTicks": 72,
          "midi": 50,
          "name": "D3",
          "ticks": 66336,
          "time": 184.266897,
          "velocity": 0.7874015748031497
        },
        {
          "duration": 0.20000025000001642,
          "durationTicks": 72,
          "midi": 31,
          "name": "G1",
          "ticks": 66432,
          "time": 184.53356399999998,
          "velocity": 0.8188976377952756
        },
        {
          "duration": 0.200000249999988,
          "durationTicks": 72,
          "midi": 43,
          "name": "G2",
          "ticks": 66528,
          "time": 184.800231,
          "velocity": 0.7874015748031497
        },
        {
          "duration": 0.200000249999988,
          "durationTicks": 72,
          "midi": 31,
          "name": "G1",
          "ticks": 66528,
          "time": 184.800231,
          "velocity": 0.8188976377952756
        },
        {
          "duration": 0.20000025000001642,
          "durationTicks": 72,
          "midi": 34,
          "name": "A#1",
          "ticks": 66624,
          "time": 185.06689799999998,
          "velocity": 0.8188976377952756
        },
        {
          "duration": 0.200000249999988,
          "durationTicks": 72,
          "midi": 34,
          "name": "A#1",
          "ticks": 66720,
          "time": 185.333565,
          "velocity": 0.8188976377952756
        },
        {
          "duration": 0.200000249999988,
          "durationTicks": 72,
          "midi": 46,
          "name": "A#2",
          "ticks": 66720,
          "time": 185.333565,
          "velocity": 0.7874015748031497
        },
        {
          "duration": 0.200000249999988,
          "durationTicks": 72,
          "midi": 39,
          "name": "D#2",
          "ticks": 66816,
          "time": 185.600232,
          "velocity": 0.8188976377952756
        },
        {
          "duration": 0.200000249999988,
          "durationTicks": 72,
          "midi": 51,
          "name": "D#3",
          "ticks": 66912,
          "time": 185.866899,
          "velocity": 0.7874015748031497
        },
        {
          "duration": 0.200000249999988,
          "durationTicks": 72,
          "midi": 39,
          "name": "D#2",
          "ticks": 66912,
          "time": 185.866899,
          "velocity": 0.8188976377952756
        },
        {
          "duration": 0.200000249999988,
          "durationTicks": 72,
          "midi": 38,
          "name": "D2",
          "ticks": 67008,
          "time": 186.133566,
          "velocity": 0.8188976377952756
        },
        {
          "duration": 0.20000025000001642,
          "durationTicks": 72,
          "midi": 50,
          "name": "D3",
          "ticks": 67104,
          "time": 186.400233,
          "velocity": 0.7874015748031497
        },
        {
          "duration": 0.20000025000001642,
          "durationTicks": 72,
          "midi": 38,
          "name": "D2",
          "ticks": 67104,
          "time": 186.400233,
          "velocity": 0.8188976377952756
        },
        {
          "duration": 0.200000249999988,
          "durationTicks": 72,
          "midi": 31,
          "name": "G1",
          "ticks": 67200,
          "time": 186.6669,
          "velocity": 0.8188976377952756
        },
        {
          "duration": 0.20000025000001642,
          "durationTicks": 72,
          "midi": 30,
          "name": "F#1",
          "ticks": 67296,
          "time": 186.93356699999998,
          "velocity": 0.8188976377952756
        },
        {
          "duration": 0.20000025000001642,
          "durationTicks": 72,
          "midi": 42,
          "name": "F#2",
          "ticks": 67296,
          "time": 186.93356699999998,
          "velocity": 0.7874015748031497
        },
        {
          "duration": 0.200000249999988,
          "durationTicks": 72,
          "midi": 29,
          "name": "F1",
          "ticks": 67392,
          "time": 187.200234,
          "velocity": 0.8188976377952756
        },
        {
          "duration": 0.20000025000001642,
          "durationTicks": 72,
          "midi": 40,
          "name": "E2",
          "ticks": 67488,
          "time": 187.46690099999998,
          "velocity": 0.8188976377952756
        },
        {
          "duration": 0.20000025000001642,
          "durationTicks": 72,
          "midi": 52,
          "name": "E3",
          "ticks": 67488,
          "time": 187.46690099999998,
          "velocity": 0.7874015748031497
        },
        {
          "duration": 0.200000249999988,
          "durationTicks": 72,
          "midi": 39,
          "name": "D#2",
          "ticks": 67584,
          "time": 187.733568,
          "velocity": 0.8188976377952756
        },
        {
          "duration": 0.200000249999988,
          "durationTicks": 72,
          "midi": 39,
          "name": "D#2",
          "ticks": 67680,
          "time": 188.000235,
          "velocity": 0.8188976377952756
        },
        {
          "duration": 0.200000249999988,
          "durationTicks": 72,
          "midi": 51,
          "name": "D#3",
          "ticks": 67680,
          "time": 188.000235,
          "velocity": 0.7874015748031497
        },
        {
          "duration": 0.20000025000001642,
          "durationTicks": 72,
          "midi": 38,
          "name": "D2",
          "ticks": 67776,
          "time": 188.266902,
          "velocity": 0.8188976377952756
        },
        {
          "duration": 0.200000249999988,
          "durationTicks": 72,
          "midi": 38,
          "name": "D2",
          "ticks": 67872,
          "time": 188.533569,
          "velocity": 0.8188976377952756
        },
        {
          "duration": 0.200000249999988,
          "durationTicks": 72,
          "midi": 50,
          "name": "D3",
          "ticks": 67872,
          "time": 188.533569,
          "velocity": 0.7874015748031497
        },
        {
          "duration": 0.20000025000001642,
          "durationTicks": 72,
          "midi": 31,
          "name": "G1",
          "ticks": 67968,
          "time": 188.80023599999998,
          "velocity": 0.8188976377952756
        },
        {
          "duration": 0.200000249999988,
          "durationTicks": 72,
          "midi": 43,
          "name": "G2",
          "ticks": 68064,
          "time": 189.066903,
          "velocity": 0.7874015748031497
        },
        {
          "duration": 0.200000249999988,
          "durationTicks": 72,
          "midi": 31,
          "name": "G1",
          "ticks": 68064,
          "time": 189.066903,
          "velocity": 0.8188976377952756
        },
        {
          "duration": 0.20000025000001642,
          "durationTicks": 72,
          "midi": 34,
          "name": "A#1",
          "ticks": 68160,
          "time": 189.33356999999998,
          "velocity": 0.8188976377952756
        },
        {
          "duration": 0.200000249999988,
          "durationTicks": 72,
          "midi": 47,
          "name": "B2",
          "ticks": 68256,
          "time": 189.600237,
          "velocity": 0.7874015748031497
        },
        {
          "duration": 0.200000249999988,
          "durationTicks": 72,
          "midi": 35,
          "name": "B1",
          "ticks": 68256,
          "time": 189.600237,
          "velocity": 0.8188976377952756
        },
        {
          "duration": 0.20000025000001642,
          "durationTicks": 72,
          "midi": 36,
          "name": "C2",
          "ticks": 68352,
          "time": 189.86690399999998,
          "velocity": 0.8188976377952756
        },
        {
          "duration": 0.200000249999988,
          "durationTicks": 72,
          "midi": 48,
          "name": "C3",
          "ticks": 68448,
          "time": 190.133571,
          "velocity": 0.7874015748031497
        },
        {
          "duration": 0.200000249999988,
          "durationTicks": 72,
          "midi": 36,
          "name": "C2",
          "ticks": 68448,
          "time": 190.133571,
          "velocity": 0.8188976377952756
        },
        {
          "duration": 0.200000249999988,
          "durationTicks": 72,
          "midi": 33,
          "name": "A1",
          "ticks": 68544,
          "time": 190.400238,
          "velocity": 0.8188976377952756
        },
        {
          "duration": 0.20000025000001642,
          "durationTicks": 72,
          "midi": 33,
          "name": "A1",
          "ticks": 68640,
          "time": 190.66690499999999,
          "velocity": 0.8188976377952756
        },
        {
          "duration": 0.20000025000001642,
          "durationTicks": 72,
          "midi": 45,
          "name": "A2",
          "ticks": 68640,
          "time": 190.66690499999999,
          "velocity": 0.7874015748031497
        },
        {
          "duration": 0.133333499999992,
          "durationTicks": 48,
          "midi": 38,
          "name": "D2",
          "ticks": 68736,
          "time": 190.933572,
          "velocity": 0.8188976377952756
        },
        {
          "duration": 0.13333350000002042,
          "durationTicks": 48,
          "midi": 38,
          "name": "D2",
          "ticks": 68832,
          "time": 191.20023899999998,
          "velocity": 0.8188976377952756
        },
        {
          "duration": 0.10000012500000821,
          "durationTicks": 36,
          "midi": 42,
          "name": "F#2",
          "ticks": 68928,
          "time": 191.466906,
          "velocity": 0.8188976377952756
        },
        {
          "duration": 0.066666749999996,
          "durationTicks": 24,
          "midi": 39,
          "name": "D#2",
          "ticks": 69120,
          "time": 192.00024,
          "velocity": 0.8188976377952756
        },
        {
          "duration": 0.066666749999996,
          "durationTicks": 24,
          "midi": 39,
          "name": "D#2",
          "ticks": 69168,
          "time": 192.13357349999998,
          "velocity": 0.8188976377952756
        },
        {
          "duration": 0.066666749999996,
          "durationTicks": 24,
          "midi": 39,
          "name": "D#2",
          "ticks": 69216,
          "time": 192.266907,
          "velocity": 0.8188976377952756
        },
        {
          "duration": 0.200000249999988,
          "durationTicks": 72,
          "midi": 51,
          "name": "D#3",
          "ticks": 69216,
          "time": 192.266907,
          "velocity": 0.7874015748031497
        },
        {
          "duration": 0.066666749999996,
          "durationTicks": 24,
          "midi": 39,
          "name": "D#2",
          "ticks": 69264,
          "time": 192.4002405,
          "velocity": 0.8188976377952756
        },
        {
          "duration": 0.066666749999996,
          "durationTicks": 24,
          "midi": 38,
          "name": "D2",
          "ticks": 69312,
          "time": 192.533574,
          "velocity": 0.8188976377952756
        },
        {
          "duration": 0.06666675000002442,
          "durationTicks": 24,
          "midi": 38,
          "name": "D2",
          "ticks": 69360,
          "time": 192.66690749999998,
          "velocity": 0.8188976377952756
        },
        {
          "duration": 0.066666749999996,
          "durationTicks": 24,
          "midi": 38,
          "name": "D2",
          "ticks": 69408,
          "time": 192.800241,
          "velocity": 0.8188976377952756
        },
        {
          "duration": 0.200000249999988,
          "durationTicks": 72,
          "midi": 50,
          "name": "D3",
          "ticks": 69408,
          "time": 192.800241,
          "velocity": 0.7874015748031497
        },
        {
          "duration": 0.066666749999996,
          "durationTicks": 24,
          "midi": 38,
          "name": "D2",
          "ticks": 69456,
          "time": 192.9335745,
          "velocity": 0.8188976377952756
        },
        {
          "duration": 0.066666749999996,
          "durationTicks": 24,
          "midi": 31,
          "name": "G1",
          "ticks": 69504,
          "time": 193.06690799999998,
          "velocity": 0.8188976377952756
        },
        {
          "duration": 0.066666749999996,
          "durationTicks": 24,
          "midi": 31,
          "name": "G1",
          "ticks": 69552,
          "time": 193.2002415,
          "velocity": 0.8188976377952756
        },
        {
          "duration": 0.200000249999988,
          "durationTicks": 72,
          "midi": 43,
          "name": "G2",
          "ticks": 69600,
          "time": 193.333575,
          "velocity": 0.7874015748031497
        },
        {
          "duration": 0.066666749999996,
          "durationTicks": 24,
          "midi": 31,
          "name": "G1",
          "ticks": 69600,
          "time": 193.333575,
          "velocity": 0.8188976377952756
        },
        {
          "duration": 0.066666749999996,
          "durationTicks": 24,
          "midi": 31,
          "name": "G1",
          "ticks": 69648,
          "time": 193.4669085,
          "velocity": 0.8188976377952756
        },
        {
          "duration": 0.06666675000002442,
          "durationTicks": 24,
          "midi": 34,
          "name": "A#1",
          "ticks": 69696,
          "time": 193.60024199999998,
          "velocity": 0.8188976377952756
        },
        {
          "duration": 0.066666749999996,
          "durationTicks": 24,
          "midi": 34,
          "name": "A#1",
          "ticks": 69744,
          "time": 193.7335755,
          "velocity": 0.8188976377952756
        },
        {
          "duration": 0.200000249999988,
          "durationTicks": 72,
          "midi": 46,
          "name": "A#2",
          "ticks": 69792,
          "time": 193.866909,
          "velocity": 0.7874015748031497
        },
        {
          "duration": 0.04444449999999733,
          "durationTicks": 16,
          "midi": 34,
          "name": "A#1",
          "ticks": 69792,
          "time": 193.866909,
          "velocity": 0.8188976377952756
        },
        {
          "duration": 0.04444449999999733,
          "durationTicks": 16,
          "midi": 34,
          "name": "A#1",
          "ticks": 69816,
          "time": 193.93357575,
          "velocity": 0.8188976377952756
        },
        {
          "duration": 0.04444449999999733,
          "durationTicks": 16,
          "midi": 34,
          "name": "A#1",
          "ticks": 69840,
          "time": 194.00024249999998,
          "velocity": 0.8188976377952756
        },
        {
          "duration": 0.04444449999999733,
          "durationTicks": 16,
          "midi": 34,
          "name": "A#1",
          "ticks": 69864,
          "time": 194.06690924999998,
          "velocity": 0.8188976377952756
        },
        {
          "duration": 0.066666749999996,
          "durationTicks": 24,
          "midi": 39,
          "name": "D#2",
          "ticks": 69888,
          "time": 194.133576,
          "velocity": 0.8188976377952756
        },
        {
          "duration": 0.066666749999996,
          "durationTicks": 24,
          "midi": 39,
          "name": "D#2",
          "ticks": 69936,
          "time": 194.2669095,
          "velocity": 0.8188976377952756
        },
        {
          "duration": 0.200000249999988,
          "durationTicks": 72,
          "midi": 51,
          "name": "D#3",
          "ticks": 69984,
          "time": 194.400243,
          "velocity": 0.7874015748031497
        },
        {
          "duration": 0.066666749999996,
          "durationTicks": 24,
          "midi": 39,
          "name": "D#2",
          "ticks": 69984,
          "time": 194.400243,
          "velocity": 0.8188976377952756
        },
        {
          "duration": 0.066666749999996,
          "durationTicks": 24,
          "midi": 39,
          "name": "D#2",
          "ticks": 70032,
          "time": 194.53357649999998,
          "velocity": 0.8188976377952756
        },
        {
          "duration": 0.066666749999996,
          "durationTicks": 24,
          "midi": 38,
          "name": "D2",
          "ticks": 70080,
          "time": 194.66691,
          "velocity": 0.8188976377952756
        },
        {
          "duration": 0.066666749999996,
          "durationTicks": 24,
          "midi": 38,
          "name": "D2",
          "ticks": 70128,
          "time": 194.8002435,
          "velocity": 0.8188976377952756
        },
        {
          "duration": 0.066666749999996,
          "durationTicks": 24,
          "midi": 38,
          "name": "D2",
          "ticks": 70176,
          "time": 194.93357699999999,
          "velocity": 0.8188976377952756
        },
        {
          "duration": 0.20000025000001642,
          "durationTicks": 72,
          "midi": 50,
          "name": "D3",
          "ticks": 70176,
          "time": 194.93357699999999,
          "velocity": 0.7874015748031497
        },
        {
          "duration": 0.06666675000002442,
          "durationTicks": 24,
          "midi": 38,
          "name": "D2",
          "ticks": 70224,
          "time": 195.06691049999998,
          "velocity": 0.8188976377952756
        },
        {
          "duration": 0.066666749999996,
          "durationTicks": 24,
          "midi": 31,
          "name": "G1",
          "ticks": 70272,
          "time": 195.200244,
          "velocity": 0.8188976377952756
        },
        {
          "duration": 0.066666749999996,
          "durationTicks": 24,
          "midi": 31,
          "name": "G1",
          "ticks": 70320,
          "time": 195.3335775,
          "velocity": 0.8188976377952756
        },
        {
          "duration": 0.20000025000001642,
          "durationTicks": 72,
          "midi": 42,
          "name": "F#2",
          "ticks": 70368,
          "time": 195.46691099999998,
          "velocity": 0.7874015748031497
        },
        {
          "duration": 0.066666749999996,
          "durationTicks": 24,
          "midi": 30,
          "name": "F#1",
          "ticks": 70368,
          "time": 195.46691099999998,
          "velocity": 0.8188976377952756
        },
        {
          "duration": 0.066666749999996,
          "durationTicks": 24,
          "midi": 30,
          "name": "F#1",
          "ticks": 70416,
          "time": 195.6002445,
          "velocity": 0.8188976377952756
        },
        {
          "duration": 0.04444449999999733,
          "durationTicks": 16,
          "midi": 29,
          "name": "F1",
          "ticks": 70464,
          "time": 195.733578,
          "velocity": 0.8188976377952756
        },
        {
          "duration": 0.04444449999999733,
          "durationTicks": 16,
          "midi": 29,
          "name": "F1",
          "ticks": 70488,
          "time": 195.80024475,
          "velocity": 0.8188976377952756
        },
        {
          "duration": 0.04444449999999733,
          "durationTicks": 16,
          "midi": 29,
          "name": "F1",
          "ticks": 70512,
          "time": 195.8669115,
          "velocity": 0.8188976377952756
        },
        {
          "duration": 0.04444449999999733,
          "durationTicks": 16,
          "midi": 29,
          "name": "F1",
          "ticks": 70536,
          "time": 195.93357824999998,
          "velocity": 0.8188976377952756
        },
        {
          "duration": 0.03333337500001221,
          "durationTicks": 12,
          "midi": 39,
          "name": "D#2",
          "ticks": 70656,
          "time": 196.266912,
          "velocity": 0.8188976377952756
        },
        {
          "duration": 0.03333337500001221,
          "durationTicks": 12,
          "midi": 39,
          "name": "D#2",
          "ticks": 70680,
          "time": 196.33357875,
          "velocity": 0.8188976377952756
        },
        {
          "duration": 0.03333337500001221,
          "durationTicks": 12,
          "midi": 39,
          "name": "D#2",
          "ticks": 70704,
          "time": 196.40024549999998,
          "velocity": 0.8188976377952756
        },
        {
          "duration": 0.03333337500001221,
          "durationTicks": 12,
          "midi": 39,
          "name": "D#2",
          "ticks": 70728,
          "time": 196.46691224999998,
          "velocity": 0.8188976377952756
        },
        {
          "duration": 0.03333337499998379,
          "durationTicks": 12,
          "midi": 39,
          "name": "D#2",
          "ticks": 70752,
          "time": 196.533579,
          "velocity": 0.8188976377952756
        },
        {
          "duration": 0.200000249999988,
          "durationTicks": 72,
          "midi": 51,
          "name": "D#3",
          "ticks": 70752,
          "time": 196.533579,
          "velocity": 0.7874015748031497
        },
        {
          "duration": 0.03333337499998379,
          "durationTicks": 12,
          "midi": 39,
          "name": "D#2",
          "ticks": 70776,
          "time": 196.60024575,
          "velocity": 0.8188976377952756
        },
        {
          "duration": 0.03333337499998379,
          "durationTicks": 12,
          "midi": 39,
          "name": "D#2",
          "ticks": 70800,
          "time": 196.6669125,
          "velocity": 0.8188976377952756
        },
        {
          "duration": 0.03333337500001221,
          "durationTicks": 12,
          "midi": 39,
          "name": "D#2",
          "ticks": 70824,
          "time": 196.73357925,
          "velocity": 0.8188976377952756
        },
        {
          "duration": 0.03333337500001221,
          "durationTicks": 12,
          "midi": 38,
          "name": "D2",
          "ticks": 70848,
          "time": 196.800246,
          "velocity": 0.8188976377952756
        },
        {
          "duration": 0.03333337500001221,
          "durationTicks": 12,
          "midi": 38,
          "name": "D2",
          "ticks": 70872,
          "time": 196.86691274999998,
          "velocity": 0.8188976377952756
        },
        {
          "duration": 0.03333337500001221,
          "durationTicks": 12,
          "midi": 38,
          "name": "D2",
          "ticks": 70896,
          "time": 196.93357949999998,
          "velocity": 0.8188976377952756
        },
        {
          "duration": 0.03333337499998379,
          "durationTicks": 12,
          "midi": 38,
          "name": "D2",
          "ticks": 70920,
          "time": 197.00024625,
          "velocity": 0.8188976377952756
        },
        {
          "duration": 0.200000249999988,
          "durationTicks": 72,
          "midi": 50,
          "name": "D3",
          "ticks": 70944,
          "time": 197.066913,
          "velocity": 0.7874015748031497
        },
        {
          "duration": 0.03333337499998379,
          "durationTicks": 12,
          "midi": 38,
          "name": "D2",
          "ticks": 70944,
          "time": 197.066913,
          "velocity": 0.8188976377952756
        },
        {
          "duration": 0.03333337499998379,
          "durationTicks": 12,
          "midi": 38,
          "name": "D2",
          "ticks": 70968,
          "time": 197.13357975,
          "velocity": 0.8188976377952756
        },
        {
          "duration": 0.03333337500001221,
          "durationTicks": 12,
          "midi": 38,
          "name": "D2",
          "ticks": 70992,
          "time": 197.2002465,
          "velocity": 0.8188976377952756
        },
        {
          "duration": 0.03333337500001221,
          "durationTicks": 12,
          "midi": 38,
          "name": "D2",
          "ticks": 71016,
          "time": 197.26691325,
          "velocity": 0.8188976377952756
        },
        {
          "duration": 0.03333337500001221,
          "durationTicks": 12,
          "midi": 31,
          "name": "G1",
          "ticks": 71040,
          "time": 197.33357999999998,
          "velocity": 0.8188976377952756
        },
        {
          "duration": 0.03333337500001221,
          "durationTicks": 12,
          "midi": 31,
          "name": "G1",
          "ticks": 71064,
          "time": 197.40024674999998,
          "velocity": 0.8188976377952756
        },
        {
          "duration": 0.03333337499998379,
          "durationTicks": 12,
          "midi": 31,
          "name": "G1",
          "ticks": 71088,
          "time": 197.4669135,
          "velocity": 0.8188976377952756
        },
        {
          "duration": 0.03333337499998379,
          "durationTicks": 12,
          "midi": 31,
          "name": "G1",
          "ticks": 71112,
          "time": 197.53358025,
          "velocity": 0.8188976377952756
        },
        {
          "duration": 0.03333337499998379,
          "durationTicks": 12,
          "midi": 31,
          "name": "G1",
          "ticks": 71136,
          "time": 197.600247,
          "velocity": 0.8188976377952756
        },
        {
          "duration": 0.200000249999988,
          "durationTicks": 72,
          "midi": 43,
          "name": "G2",
          "ticks": 71136,
          "time": 197.600247,
          "velocity": 0.7874015748031497
        },
        {
          "duration": 0.03333337500001221,
          "durationTicks": 12,
          "midi": 31,
          "name": "G1",
          "ticks": 71160,
          "time": 197.66691375,
          "velocity": 0.8188976377952756
        },
        {
          "duration": 0.03333337500001221,
          "durationTicks": 12,
          "midi": 31,
          "name": "G1",
          "ticks": 71184,
          "time": 197.7335805,
          "velocity": 0.8188976377952756
        },
        {
          "duration": 0.03333337500001221,
          "durationTicks": 12,
          "midi": 31,
          "name": "G1",
          "ticks": 71208,
          "time": 197.80024724999998,
          "velocity": 0.8188976377952756
        },
        {
          "duration": 0.03333337500001221,
          "durationTicks": 12,
          "midi": 34,
          "name": "A#1",
          "ticks": 71232,
          "time": 197.86691399999998,
          "velocity": 0.8188976377952756
        },
        {
          "duration": 0.03333337499998379,
          "durationTicks": 12,
          "midi": 34,
          "name": "A#1",
          "ticks": 71256,
          "time": 197.93358075,
          "velocity": 0.8188976377952756
        },
        {
          "duration": 0.03333337499998379,
          "durationTicks": 12,
          "midi": 34,
          "name": "A#1",
          "ticks": 71280,
          "time": 198.0002475,
          "velocity": 0.8188976377952756
        },
        {
          "duration": 0.03333337499998379,
          "durationTicks": 12,
          "midi": 34,
          "name": "A#1",
          "ticks": 71304,
          "time": 198.06691425,
          "velocity": 0.8188976377952756
        },
        {
          "duration": 0.200000249999988,
          "durationTicks": 72,
          "midi": 47,
          "name": "B2",
          "ticks": 71328,
          "time": 198.133581,
          "velocity": 0.7874015748031497
        },
        {
          "duration": 0.03333337500001221,
          "durationTicks": 12,
          "midi": 35,
          "name": "B1",
          "ticks": 71328,
          "time": 198.133581,
          "velocity": 0.8188976377952756
        },
        {
          "duration": 0.03333337500001221,
          "durationTicks": 12,
          "midi": 35,
          "name": "B1",
          "ticks": 71352,
          "time": 198.20024775,
          "velocity": 0.8188976377952756
        },
        {
          "duration": 0.03333337500001221,
          "durationTicks": 12,
          "midi": 35,
          "name": "B1",
          "ticks": 71376,
          "time": 198.26691449999998,
          "velocity": 0.8188976377952756
        },
        {
          "duration": 0.03333337500001221,
          "durationTicks": 12,
          "midi": 35,
          "name": "B1",
          "ticks": 71400,
          "time": 198.33358124999998,
          "velocity": 0.8188976377952756
        },
        {
          "duration": 0.06666675000002442,
          "durationTicks": 24,
          "midi": 36,
          "name": "C2",
          "ticks": 71424,
          "time": 198.40024799999998,
          "velocity": 0.8188976377952756
        },
        {
          "duration": 0.066666749999996,
          "durationTicks": 24,
          "midi": 36,
          "name": "C2",
          "ticks": 71472,
          "time": 198.5335815,
          "velocity": 0.8188976377952756
        },
        {
          "duration": 0.066666749999996,
          "durationTicks": 24,
          "midi": 38,
          "name": "D2",
          "ticks": 71616,
          "time": 198.933582,
          "velocity": 0.8188976377952756
        },
        {
          "duration": 0.066666749999996,
          "durationTicks": 24,
          "midi": 38,
          "name": "D2",
          "ticks": 71664,
          "time": 199.0669155,
          "velocity": 0.8188976377952756
        },
        {
          "duration": 0.066666749999996,
          "durationTicks": 24,
          "midi": 31,
          "name": "G1",
          "ticks": 71808,
          "time": 199.466916,
          "velocity": 0.8188976377952756
        },
        {
          "duration": 0.066666749999996,
          "durationTicks": 24,
          "midi": 38,
          "name": "D2",
          "ticks": 71904,
          "time": 199.73358299999998,
          "velocity": 0.8188976377952756
        },
        {
          "duration": 0.066666749999996,
          "durationTicks": 24,
          "midi": 31,
          "name": "G1",
          "ticks": 72000,
          "time": 200.00025,
          "velocity": 0.8188976377952756
        },
        {
          "duration": 0.06666675000002442,
          "durationTicks": 24,
          "midi": 30,
          "name": "F#1",
          "ticks": 72096,
          "time": 200.26691699999998,
          "velocity": 0.8188976377952756
        },
        {
          "duration": 0.066666749999996,
          "durationTicks": 24,
          "midi": 36,
          "name": "C2",
          "ticks": 72192,
          "time": 200.533584,
          "velocity": 0.8188976377952756
        },
        {
          "duration": 0.066666749999996,
          "durationTicks": 24,
          "midi": 36,
          "name": "C2",
          "ticks": 72240,
          "time": 200.66691749999998,
          "velocity": 0.8188976377952756
        },
        {
          "duration": 0.066666749999996,
          "durationTicks": 24,
          "midi": 38,
          "name": "D2",
          "ticks": 72384,
          "time": 201.066918,
          "velocity": 0.8188976377952756
        },
        {
          "duration": 0.06666675000002442,
          "durationTicks": 24,
          "midi": 38,
          "name": "D2",
          "ticks": 72432,
          "time": 201.20025149999998,
          "velocity": 0.8188976377952756
        },
        {
          "duration": 0.036111156250001386,
          "durationTicks": 13,
          "midi": 31,
          "name": "G1",
          "ticks": 72576,
          "time": 201.60025199999998,
          "velocity": 0.8188976377952756
        },
        {
          "duration": 0.036111156250001386,
          "durationTicks": 13,
          "midi": 38,
          "name": "D2",
          "ticks": 72600,
          "time": 201.66691874999998,
          "velocity": 0.8188976377952756
        },
        {
          "duration": 0.036111156249972964,
          "durationTicks": 13,
          "midi": 36,
          "name": "C2",
          "ticks": 72624,
          "time": 201.7335855,
          "velocity": 0.8188976377952756
        },
        {
          "duration": 0.036111156249972964,
          "durationTicks": 13,
          "midi": 31,
          "name": "G1",
          "ticks": 72648,
          "time": 201.80025225,
          "velocity": 0.8188976377952756
        },
        {
          "duration": 0.036111156249972964,
          "durationTicks": 13,
          "midi": 38,
          "name": "D2",
          "ticks": 72672,
          "time": 201.866919,
          "velocity": 0.8188976377952756
        },
        {
          "duration": 0.036111156250001386,
          "durationTicks": 13,
          "midi": 45,
          "name": "A2",
          "ticks": 72696,
          "time": 201.93358575,
          "velocity": 0.8188976377952756
        },
        {
          "duration": 0.036111156250001386,
          "durationTicks": 13,
          "midi": 43,
          "name": "G2",
          "ticks": 72720,
          "time": 202.0002525,
          "velocity": 0.8188976377952756
        },
        {
          "duration": 0.036111156250001386,
          "durationTicks": 13,
          "midi": 38,
          "name": "D2",
          "ticks": 72744,
          "time": 202.06691924999998,
          "velocity": 0.8188976377952756
        },
        {
          "duration": 0.2666670000000124,
          "durationTicks": 96,
          "midi": 31,
          "name": "G1",
          "ticks": 72768,
          "time": 202.13358599999998,
          "velocity": 0.8188976377952756
        },
        {
          "duration": 0.22222249999998667,
          "durationTicks": 80,
          "midi": 26,
          "name": "D1",
          "ticks": 72960,
          "time": 202.66692,
          "velocity": 0.8188976377952756
        },
        {
          "duration": 0.2222225000000151,
          "durationTicks": 80,
          "midi": 26,
          "name": "D1",
          "ticks": 73056,
          "time": 202.933587,
          "velocity": 0.8188976377952756
        },
        {
          "duration": 0.2222225000000151,
          "durationTicks": 80,
          "midi": 38,
          "name": "D2",
          "ticks": 73056,
          "time": 202.933587,
          "velocity": 0.8188976377952756
        },
        {
          "duration": 0.22222249999998667,
          "durationTicks": 80,
          "midi": 26,
          "name": "D1",
          "ticks": 73152,
          "time": 203.200254,
          "velocity": 0.8188976377952756
        },
        {
          "duration": 0.2222225000000151,
          "durationTicks": 80,
          "midi": 38,
          "name": "D2",
          "ticks": 73248,
          "time": 203.46692099999999,
          "velocity": 0.8188976377952756
        },
        {
          "duration": 0.2222225000000151,
          "durationTicks": 80,
          "midi": 26,
          "name": "D1",
          "ticks": 73248,
          "time": 203.46692099999999,
          "velocity": 0.8188976377952756
        },
        {
          "duration": 0.2222225000000151,
          "durationTicks": 80,
          "midi": 26,
          "name": "D1",
          "ticks": 73344,
          "time": 203.733588,
          "velocity": 0.8188976377952756
        },
        {
          "duration": 0.2222225000000151,
          "durationTicks": 80,
          "midi": 38,
          "name": "D2",
          "ticks": 73440,
          "time": 204.00025499999998,
          "velocity": 0.8188976377952756
        },
        {
          "duration": 0.2222225000000151,
          "durationTicks": 80,
          "midi": 26,
          "name": "D1",
          "ticks": 73440,
          "time": 204.00025499999998,
          "velocity": 0.8188976377952756
        },
        {
          "duration": 0.2222225000000151,
          "durationTicks": 80,
          "midi": 26,
          "name": "D1",
          "ticks": 73536,
          "time": 204.266922,
          "velocity": 0.8188976377952756
        },
        {
          "duration": 0.2222225000000151,
          "durationTicks": 80,
          "midi": 38,
          "name": "D2",
          "ticks": 73632,
          "time": 204.53358899999998,
          "velocity": 0.8188976377952756
        },
        {
          "duration": 0.2222225000000151,
          "durationTicks": 80,
          "midi": 26,
          "name": "D1",
          "ticks": 73632,
          "time": 204.53358899999998,
          "velocity": 0.8188976377952756
        },
        {
          "duration": 0.2222225000000151,
          "durationTicks": 80,
          "midi": 26,
          "name": "D1",
          "ticks": 73728,
          "time": 204.800256,
          "velocity": 0.8188976377952756
        },
        {
          "duration": 0.22222249999998667,
          "durationTicks": 80,
          "midi": 26,
          "name": "D1",
          "ticks": 73824,
          "time": 205.066923,
          "velocity": 0.8188976377952756
        },
        {
          "duration": 0.22222249999998667,
          "durationTicks": 80,
          "midi": 38,
          "name": "D2",
          "ticks": 73824,
          "time": 205.066923,
          "velocity": 0.8188976377952756
        },
        {
          "duration": 0.2222225000000151,
          "durationTicks": 80,
          "midi": 26,
          "name": "D1",
          "ticks": 73920,
          "time": 205.33359,
          "velocity": 0.8188976377952756
        },
        {
          "duration": 0.2222225000000151,
          "durationTicks": 80,
          "midi": 26,
          "name": "D1",
          "ticks": 74016,
          "time": 205.600257,
          "velocity": 0.8188976377952756
        },
        {
          "duration": 0.2222225000000151,
          "durationTicks": 80,
          "midi": 38,
          "name": "D2",
          "ticks": 74016,
          "time": 205.600257,
          "velocity": 0.8188976377952756
        },
        {
          "duration": 0.2222225000000151,
          "durationTicks": 80,
          "midi": 26,
          "name": "D1",
          "ticks": 74112,
          "time": 205.86692399999998,
          "velocity": 0.8188976377952756
        },
        {
          "duration": 0.2222225000000151,
          "durationTicks": 80,
          "midi": 26,
          "name": "D1",
          "ticks": 74208,
          "time": 206.133591,
          "velocity": 0.8188976377952756
        },
        {
          "duration": 0.2222225000000151,
          "durationTicks": 80,
          "midi": 38,
          "name": "D2",
          "ticks": 74208,
          "time": 206.133591,
          "velocity": 0.8188976377952756
        },
        {
          "duration": 0.2222225000000151,
          "durationTicks": 80,
          "midi": 26,
          "name": "D1",
          "ticks": 74304,
          "time": 206.40025799999998,
          "velocity": 0.8188976377952756
        },
        {
          "duration": 0.2222225000000151,
          "durationTicks": 80,
          "midi": 26,
          "name": "D1",
          "ticks": 74400,
          "time": 206.666925,
          "velocity": 0.8188976377952756
        },
        {
          "duration": 0.2222225000000151,
          "durationTicks": 80,
          "midi": 38,
          "name": "D2",
          "ticks": 74400,
          "time": 206.666925,
          "velocity": 0.8188976377952756
        },
        {
          "duration": 0.08888900000002309,
          "durationTicks": 32,
          "midi": 26,
          "name": "D1",
          "ticks": 74496,
          "time": 206.93359199999998,
          "velocity": 0.8188976377952756
        },
        {
          "duration": 0.2222225000000151,
          "durationTicks": 80,
          "midi": 26,
          "name": "D1",
          "ticks": 74592,
          "time": 207.200259,
          "velocity": 0.8188976377952756
        },
        {
          "duration": 0.2222225000000151,
          "durationTicks": 80,
          "midi": 38,
          "name": "D2",
          "ticks": 74592,
          "time": 207.200259,
          "velocity": 0.8188976377952756
        },
        {
          "duration": 0.22222249999998667,
          "durationTicks": 80,
          "midi": 26,
          "name": "D1",
          "ticks": 74688,
          "time": 207.466926,
          "velocity": 0.8188976377952756
        },
        {
          "duration": 0.2222225000000151,
          "durationTicks": 80,
          "midi": 26,
          "name": "D1",
          "ticks": 74784,
          "time": 207.73359299999998,
          "velocity": 0.8188976377952756
        },
        {
          "duration": 0.2222225000000151,
          "durationTicks": 80,
          "midi": 38,
          "name": "D2",
          "ticks": 74784,
          "time": 207.73359299999998,
          "velocity": 0.8188976377952756
        },
        {
          "duration": 0.2222225000000151,
          "durationTicks": 80,
          "midi": 26,
          "name": "D1",
          "ticks": 74880,
          "time": 208.00026,
          "velocity": 0.8188976377952756
        },
        {
          "duration": 0.2222225000000151,
          "durationTicks": 80,
          "midi": 38,
          "name": "D2",
          "ticks": 74976,
          "time": 208.26692699999998,
          "velocity": 0.8188976377952756
        },
        {
          "duration": 0.2222225000000151,
          "durationTicks": 80,
          "midi": 26,
          "name": "D1",
          "ticks": 74976,
          "time": 208.26692699999998,
          "velocity": 0.8188976377952756
        },
        {
          "duration": 0.2222225000000151,
          "durationTicks": 80,
          "midi": 26,
          "name": "D1",
          "ticks": 75072,
          "time": 208.533594,
          "velocity": 0.8188976377952756
        },
        {
          "duration": 0.2222225000000151,
          "durationTicks": 80,
          "midi": 26,
          "name": "D1",
          "ticks": 75168,
          "time": 208.80026099999998,
          "velocity": 0.8188976377952756
        },
        {
          "duration": 0.2222225000000151,
          "durationTicks": 80,
          "midi": 38,
          "name": "D2",
          "ticks": 75168,
          "time": 208.80026099999998,
          "velocity": 0.8188976377952756
        },
        {
          "duration": 0.2222225000000151,
          "durationTicks": 80,
          "midi": 26,
          "name": "D1",
          "ticks": 75264,
          "time": 209.066928,
          "velocity": 0.8188976377952756
        },
        {
          "duration": 0.22222249999998667,
          "durationTicks": 80,
          "midi": 26,
          "name": "D1",
          "ticks": 75360,
          "time": 209.333595,
          "velocity": 0.8188976377952756
        },
        {
          "duration": 0.22222249999998667,
          "durationTicks": 80,
          "midi": 38,
          "name": "D2",
          "ticks": 75360,
          "time": 209.333595,
          "velocity": 0.8188976377952756
        },
        {
          "duration": 0.2222225000000151,
          "durationTicks": 80,
          "midi": 26,
          "name": "D1",
          "ticks": 75456,
          "time": 209.600262,
          "velocity": 0.8188976377952756
        },
        {
          "duration": 0.2222225000000151,
          "durationTicks": 80,
          "midi": 38,
          "name": "D2",
          "ticks": 75552,
          "time": 209.866929,
          "velocity": 0.8188976377952756
        },
        {
          "duration": 0.2222225000000151,
          "durationTicks": 80,
          "midi": 26,
          "name": "D1",
          "ticks": 75552,
          "time": 209.866929,
          "velocity": 0.8188976377952756
        },
        {
          "duration": 0.08888900000002309,
          "durationTicks": 32,
          "midi": 26,
          "name": "D1",
          "ticks": 75648,
          "time": 210.13359599999998,
          "velocity": 0.8188976377952756
        },
        {
          "duration": 0.08888900000002309,
          "durationTicks": 32,
          "midi": 38,
          "name": "D2",
          "ticks": 75648,
          "time": 210.13359599999998,
          "velocity": 0.8188976377952756
        },
        {
          "duration": 0.08888899999999467,
          "durationTicks": 32,
          "midi": 27,
          "name": "D#1",
          "ticks": 75696,
          "time": 210.2669295,
          "velocity": 0.8188976377952756
        },
        {
          "duration": 0.08888899999999467,
          "durationTicks": 32,
          "midi": 39,
          "name": "D#2",
          "ticks": 75696,
          "time": 210.2669295,
          "velocity": 0.8188976377952756
        },
        {
          "duration": 0.08888899999999467,
          "durationTicks": 32,
          "midi": 40,
          "name": "E2",
          "ticks": 75744,
          "time": 210.400263,
          "velocity": 0.8188976377952756
        },
        {
          "duration": 0.08888899999999467,
          "durationTicks": 32,
          "midi": 28,
          "name": "E1",
          "ticks": 75744,
          "time": 210.400263,
          "velocity": 0.8188976377952756
        },
        {
          "duration": 0.08888900000002309,
          "durationTicks": 32,
          "midi": 41,
          "name": "F2",
          "ticks": 75792,
          "time": 210.5335965,
          "velocity": 0.8188976377952756
        },
        {
          "duration": 0.08888900000002309,
          "durationTicks": 32,
          "midi": 29,
          "name": "F1",
          "ticks": 75792,
          "time": 210.5335965,
          "velocity": 0.8188976377952756
        },
        {
          "duration": 0.08888900000002309,
          "durationTicks": 32,
          "midi": 30,
          "name": "F#1",
          "ticks": 75840,
          "time": 210.66692999999998,
          "velocity": 0.8188976377952756
        },
        {
          "duration": 0.08888900000002309,
          "durationTicks": 32,
          "midi": 42,
          "name": "F#2",
          "ticks": 75840,
          "time": 210.66692999999998,
          "velocity": 0.8188976377952756
        },
        {
          "duration": 0.08888899999999467,
          "durationTicks": 32,
          "midi": 31,
          "name": "G1",
          "ticks": 75888,
          "time": 210.8002635,
          "velocity": 0.8188976377952756
        },
        {
          "duration": 0.08888899999999467,
          "durationTicks": 32,
          "midi": 43,
          "name": "G2",
          "ticks": 75888,
          "time": 210.8002635,
          "velocity": 0.8188976377952756
        },
        {
          "duration": 0.08888899999999467,
          "durationTicks": 32,
          "midi": 32,
          "name": "G#1",
          "ticks": 75936,
          "time": 210.933597,
          "velocity": 0.8188976377952756
        },
        {
          "duration": 0.08888899999999467,
          "durationTicks": 32,
          "midi": 44,
          "name": "G#2",
          "ticks": 75936,
          "time": 210.933597,
          "velocity": 0.8188976377952756
        },
        {
          "duration": 0.08888900000002309,
          "durationTicks": 32,
          "midi": 33,
          "name": "A1",
          "ticks": 75984,
          "time": 211.06693049999998,
          "velocity": 0.8188976377952756
        },
        {
          "duration": 0.08888900000002309,
          "durationTicks": 32,
          "midi": 45,
          "name": "A2",
          "ticks": 75984,
          "time": 211.06693049999998,
          "velocity": 0.8188976377952756
        },
        {
          "duration": 0.08888899999999467,
          "durationTicks": 32,
          "midi": 46,
          "name": "A#2",
          "ticks": 76032,
          "time": 211.200264,
          "velocity": 0.8188976377952756
        },
        {
          "duration": 0.08888899999999467,
          "durationTicks": 32,
          "midi": 34,
          "name": "A#1",
          "ticks": 76032,
          "time": 211.200264,
          "velocity": 0.8188976377952756
        },
        {
          "duration": 0.08888899999999467,
          "durationTicks": 32,
          "midi": 35,
          "name": "B1",
          "ticks": 76080,
          "time": 211.3335975,
          "velocity": 0.8188976377952756
        },
        {
          "duration": 0.08888899999999467,
          "durationTicks": 32,
          "midi": 47,
          "name": "B2",
          "ticks": 76080,
          "time": 211.3335975,
          "velocity": 0.8188976377952756
        },
        {
          "duration": 0.08888900000002309,
          "durationTicks": 32,
          "midi": 36,
          "name": "C2",
          "ticks": 76128,
          "time": 211.466931,
          "velocity": 0.8188976377952756
        },
        {
          "duration": 0.08888900000002309,
          "durationTicks": 32,
          "midi": 48,
          "name": "C3",
          "ticks": 76128,
          "time": 211.466931,
          "velocity": 0.8188976377952756
        },
        {
          "duration": 0.08888900000002309,
          "durationTicks": 32,
          "midi": 37,
          "name": "C#2",
          "ticks": 76176,
          "time": 211.60026449999998,
          "velocity": 0.8188976377952756
        },
        {
          "duration": 0.08888900000002309,
          "durationTicks": 32,
          "midi": 49,
          "name": "C#3",
          "ticks": 76176,
          "time": 211.60026449999998,
          "velocity": 0.8188976377952756
        },
        {
          "duration": 0.04444449999996891,
          "durationTicks": 16,
          "midi": 39,
          "name": "D#2",
          "ticks": 76416,
          "time": 212.266932,
          "velocity": 0.8188976377952756
        },
        {
          "duration": 0.04444449999996891,
          "durationTicks": 16,
          "midi": 27,
          "name": "D#1",
          "ticks": 76416,
          "time": 212.266932,
          "velocity": 0.8188976377952756
        },
        {
          "duration": 0.04444449999999733,
          "durationTicks": 16,
          "midi": 27,
          "name": "D#1",
          "ticks": 76440,
          "time": 212.33359875,
          "velocity": 0.8188976377952756
        },
        {
          "duration": 0.04444449999999733,
          "durationTicks": 16,
          "midi": 39,
          "name": "D#2",
          "ticks": 76440,
          "time": 212.33359875,
          "velocity": 0.8188976377952756
        },
        {
          "duration": 0.04444449999999733,
          "durationTicks": 16,
          "midi": 27,
          "name": "D#1",
          "ticks": 76464,
          "time": 212.4002655,
          "velocity": 0.8188976377952756
        },
        {
          "duration": 0.04444449999999733,
          "durationTicks": 16,
          "midi": 39,
          "name": "D#2",
          "ticks": 76464,
          "time": 212.4002655,
          "velocity": 0.8188976377952756
        },
        {
          "duration": 0.04444449999999733,
          "durationTicks": 16,
          "midi": 27,
          "name": "D#1",
          "ticks": 76488,
          "time": 212.46693224999999,
          "velocity": 0.8188976377952756
        },
        {
          "duration": 0.04444449999999733,
          "durationTicks": 16,
          "midi": 39,
          "name": "D#2",
          "ticks": 76488,
          "time": 212.46693224999999,
          "velocity": 0.8188976377952756
        },
        {
          "duration": 0.04444449999999733,
          "durationTicks": 16,
          "midi": 27,
          "name": "D#1",
          "ticks": 76512,
          "time": 212.53359899999998,
          "velocity": 0.8188976377952756
        },
        {
          "duration": 0.04444449999999733,
          "durationTicks": 16,
          "midi": 39,
          "name": "D#2",
          "ticks": 76512,
          "time": 212.53359899999998,
          "velocity": 0.8188976377952756
        },
        {
          "duration": 0.04444449999999733,
          "durationTicks": 16,
          "midi": 27,
          "name": "D#1",
          "ticks": 76536,
          "time": 212.60026574999998,
          "velocity": 0.8188976377952756
        },
        {
          "duration": 0.04444449999999733,
          "durationTicks": 16,
          "midi": 39,
          "name": "D#2",
          "ticks": 76536,
          "time": 212.60026574999998,
          "velocity": 0.8188976377952756
        },
        {
          "duration": 0.04444449999996891,
          "durationTicks": 16,
          "midi": 27,
          "name": "D#1",
          "ticks": 76560,
          "time": 212.6669325,
          "velocity": 0.8188976377952756
        },
        {
          "duration": 0.04444449999996891,
          "durationTicks": 16,
          "midi": 39,
          "name": "D#2",
          "ticks": 76560,
          "time": 212.6669325,
          "velocity": 0.8188976377952756
        },
        {
          "duration": 0.04444449999996891,
          "durationTicks": 16,
          "midi": 27,
          "name": "D#1",
          "ticks": 76584,
          "time": 212.73359925,
          "velocity": 0.8188976377952756
        },
        {
          "duration": 0.04444449999996891,
          "durationTicks": 16,
          "midi": 39,
          "name": "D#2",
          "ticks": 76584,
          "time": 212.73359925,
          "velocity": 0.8188976377952756
        },
        {
          "duration": 0.04444449999999733,
          "durationTicks": 16,
          "midi": 27,
          "name": "D#1",
          "ticks": 76608,
          "time": 212.800266,
          "velocity": 0.8188976377952756
        },
        {
          "duration": 0.04444449999999733,
          "durationTicks": 16,
          "midi": 39,
          "name": "D#2",
          "ticks": 76608,
          "time": 212.800266,
          "velocity": 0.8188976377952756
        },
        {
          "duration": 0.04444449999999733,
          "durationTicks": 16,
          "midi": 27,
          "name": "D#1",
          "ticks": 76632,
          "time": 212.86693275,
          "velocity": 0.8188976377952756
        },
        {
          "duration": 0.04444449999999733,
          "durationTicks": 16,
          "midi": 39,
          "name": "D#2",
          "ticks": 76632,
          "time": 212.86693275,
          "velocity": 0.8188976377952756
        },
        {
          "duration": 0.04444449999999733,
          "durationTicks": 16,
          "midi": 27,
          "name": "D#1",
          "ticks": 76656,
          "time": 212.93359949999999,
          "velocity": 0.8188976377952756
        },
        {
          "duration": 0.04444449999999733,
          "durationTicks": 16,
          "midi": 39,
          "name": "D#2",
          "ticks": 76656,
          "time": 212.93359949999999,
          "velocity": 0.8188976377952756
        },
        {
          "duration": 0.04444449999999733,
          "durationTicks": 16,
          "midi": 39,
          "name": "D#2",
          "ticks": 76680,
          "time": 213.00026624999998,
          "velocity": 0.8188976377952756
        },
        {
          "duration": 0.04444449999999733,
          "durationTicks": 16,
          "midi": 27,
          "name": "D#1",
          "ticks": 76680,
          "time": 213.00026624999998,
          "velocity": 0.8188976377952756
        },
        {
          "duration": 0.04444449999999733,
          "durationTicks": 16,
          "midi": 27,
          "name": "D#1",
          "ticks": 76704,
          "time": 213.06693299999998,
          "velocity": 0.8188976377952756
        },
        {
          "duration": 0.04444449999999733,
          "durationTicks": 16,
          "midi": 39,
          "name": "D#2",
          "ticks": 76704,
          "time": 213.06693299999998,
          "velocity": 0.8188976377952756
        },
        {
          "duration": 0.04444449999996891,
          "durationTicks": 16,
          "midi": 39,
          "name": "D#2",
          "ticks": 76728,
          "time": 213.13359975,
          "velocity": 0.8188976377952756
        },
        {
          "duration": 0.04444449999996891,
          "durationTicks": 16,
          "midi": 27,
          "name": "D#1",
          "ticks": 76728,
          "time": 213.13359975,
          "velocity": 0.8188976377952756
        },
        {
          "duration": 0.04444449999996891,
          "durationTicks": 16,
          "midi": 27,
          "name": "D#1",
          "ticks": 76752,
          "time": 213.2002665,
          "velocity": 0.8188976377952756
        },
        {
          "duration": 0.04444449999996891,
          "durationTicks": 16,
          "midi": 39,
          "name": "D#2",
          "ticks": 76752,
          "time": 213.2002665,
          "velocity": 0.8188976377952756
        },
        {
          "duration": 0.04444449999999733,
          "durationTicks": 16,
          "midi": 39,
          "name": "D#2",
          "ticks": 76776,
          "time": 213.26693325,
          "velocity": 0.8188976377952756
        },
        {
          "duration": 0.04444449999999733,
          "durationTicks": 16,
          "midi": 27,
          "name": "D#1",
          "ticks": 76776,
          "time": 213.26693325,
          "velocity": 0.8188976377952756
        },
        {
          "duration": 0.04444449999999733,
          "durationTicks": 16,
          "midi": 27,
          "name": "D#1",
          "ticks": 76800,
          "time": 213.3336,
          "velocity": 0.8188976377952756
        },
        {
          "duration": 0.04444449999999733,
          "durationTicks": 16,
          "midi": 39,
          "name": "D#2",
          "ticks": 76800,
          "time": 213.3336,
          "velocity": 0.8188976377952756
        },
        {
          "duration": 0.04444449999999733,
          "durationTicks": 16,
          "midi": 27,
          "name": "D#1",
          "ticks": 76824,
          "time": 213.40026675,
          "velocity": 0.8188976377952756
        },
        {
          "duration": 0.04444449999999733,
          "durationTicks": 16,
          "midi": 39,
          "name": "D#2",
          "ticks": 76824,
          "time": 213.40026675,
          "velocity": 0.8188976377952756
        },
        {
          "duration": 0.04444449999999733,
          "durationTicks": 16,
          "midi": 39,
          "name": "D#2",
          "ticks": 76848,
          "time": 213.46693349999998,
          "velocity": 0.8188976377952756
        },
        {
          "duration": 0.04444449999999733,
          "durationTicks": 16,
          "midi": 27,
          "name": "D#1",
          "ticks": 76848,
          "time": 213.46693349999998,
          "velocity": 0.8188976377952756
        },
        {
          "duration": 0.04444449999999733,
          "durationTicks": 16,
          "midi": 39,
          "name": "D#2",
          "ticks": 76872,
          "time": 213.53360024999998,
          "velocity": 0.8188976377952756
        },
        {
          "duration": 0.04444449999999733,
          "durationTicks": 16,
          "midi": 27,
          "name": "D#1",
          "ticks": 76872,
          "time": 213.53360024999998,
          "velocity": 0.8188976377952756
        },
        {
          "duration": 0.04444449999996891,
          "durationTicks": 16,
          "midi": 39,
          "name": "D#2",
          "ticks": 76896,
          "time": 213.600267,
          "velocity": 0.8188976377952756
        },
        {
          "duration": 0.04444449999996891,
          "durationTicks": 16,
          "midi": 27,
          "name": "D#1",
          "ticks": 76896,
          "time": 213.600267,
          "velocity": 0.8188976377952756
        },
        {
          "duration": 0.04444449999996891,
          "durationTicks": 16,
          "midi": 27,
          "name": "D#1",
          "ticks": 76920,
          "time": 213.66693375,
          "velocity": 0.8188976377952756
        },
        {
          "duration": 0.04444449999996891,
          "durationTicks": 16,
          "midi": 39,
          "name": "D#2",
          "ticks": 76920,
          "time": 213.66693375,
          "velocity": 0.8188976377952756
        },
        {
          "duration": 0.04444449999999733,
          "durationTicks": 16,
          "midi": 39,
          "name": "D#2",
          "ticks": 76944,
          "time": 213.7336005,
          "velocity": 0.8188976377952756
        },
        {
          "duration": 0.04444449999999733,
          "durationTicks": 16,
          "midi": 27,
          "name": "D#1",
          "ticks": 76944,
          "time": 213.7336005,
          "velocity": 0.8188976377952756
        },
        {
          "duration": 0.04444449999999733,
          "durationTicks": 16,
          "midi": 39,
          "name": "D#2",
          "ticks": 76968,
          "time": 213.80026725,
          "velocity": 0.8188976377952756
        },
        {
          "duration": 0.04444449999999733,
          "durationTicks": 16,
          "midi": 27,
          "name": "D#1",
          "ticks": 76968,
          "time": 213.80026725,
          "velocity": 0.8188976377952756
        },
        {
          "duration": 0.040816333333339117,
          "durationTicks": 16,
          "midi": 39,
          "name": "D#2",
          "ticks": 77184,
          "time": 214.40026799999998,
          "velocity": 0.8188976377952756
        },
        {
          "duration": 0.040816333333339117,
          "durationTicks": 16,
          "midi": 27,
          "name": "D#1",
          "ticks": 77184,
          "time": 214.40026799999998,
          "velocity": 0.8188976377952756
        },
        {
          "duration": 0.040816333333310695,
          "durationTicks": 16,
          "midi": 39,
          "name": "D#2",
          "ticks": 77208,
          "time": 214.4614925,
          "velocity": 0.8188976377952756
        },
        {
          "duration": 0.040816333333310695,
          "durationTicks": 16,
          "midi": 27,
          "name": "D#1",
          "ticks": 77208,
          "time": 214.4614925,
          "velocity": 0.8188976377952756
        },
        {
          "duration": 0.040816333333339117,
          "durationTicks": 16,
          "midi": 27,
          "name": "D#1",
          "ticks": 77232,
          "time": 214.52271699999997,
          "velocity": 0.8188976377952756
        },
        {
          "duration": 0.040816333333339117,
          "durationTicks": 16,
          "midi": 39,
          "name": "D#2",
          "ticks": 77232,
          "time": 214.52271699999997,
          "velocity": 0.8188976377952756
        },
        {
          "duration": 0.040816333333339117,
          "durationTicks": 16,
          "midi": 39,
          "name": "D#2",
          "ticks": 77256,
          "time": 214.58394149999998,
          "velocity": 0.8188976377952756
        },
        {
          "duration": 0.040816333333339117,
          "durationTicks": 16,
          "midi": 27,
          "name": "D#1",
          "ticks": 77256,
          "time": 214.58394149999998,
          "velocity": 0.8188976377952756
        },
        {
          "duration": 0.040816333333339117,
          "durationTicks": 16,
          "midi": 39,
          "name": "D#2",
          "ticks": 77280,
          "time": 214.645166,
          "velocity": 0.8188976377952756
        },
        {
          "duration": 0.040816333333339117,
          "durationTicks": 16,
          "midi": 27,
          "name": "D#1",
          "ticks": 77280,
          "time": 214.645166,
          "velocity": 0.8188976377952756
        },
        {
          "duration": 0.040816333333339117,
          "durationTicks": 16,
          "midi": 39,
          "name": "D#2",
          "ticks": 77304,
          "time": 214.70639049999997,
          "velocity": 0.8188976377952756
        },
        {
          "duration": 0.040816333333339117,
          "durationTicks": 16,
          "midi": 27,
          "name": "D#1",
          "ticks": 77304,
          "time": 214.70639049999997,
          "velocity": 0.8188976377952756
        },
        {
          "duration": 0.040816333333339117,
          "durationTicks": 16,
          "midi": 39,
          "name": "D#2",
          "ticks": 77328,
          "time": 214.76761499999998,
          "velocity": 0.8188976377952756
        },
        {
          "duration": 0.040816333333339117,
          "durationTicks": 16,
          "midi": 27,
          "name": "D#1",
          "ticks": 77328,
          "time": 214.76761499999998,
          "velocity": 0.8188976377952756
        },
        {
          "duration": 0.040816333333339117,
          "durationTicks": 16,
          "midi": 39,
          "name": "D#2",
          "ticks": 77352,
          "time": 214.8288395,
          "velocity": 0.8188976377952756
        },
        {
          "duration": 0.040816333333339117,
          "durationTicks": 16,
          "midi": 27,
          "name": "D#1",
          "ticks": 77352,
          "time": 214.8288395,
          "velocity": 0.8188976377952756
        },
        {
          "duration": 0.040816333333310695,
          "durationTicks": 16,
          "midi": 27,
          "name": "D#1",
          "ticks": 77376,
          "time": 214.890064,
          "velocity": 0.8188976377952756
        },
        {
          "duration": 0.040816333333310695,
          "durationTicks": 16,
          "midi": 39,
          "name": "D#2",
          "ticks": 77376,
          "time": 214.890064,
          "velocity": 0.8188976377952756
        },
        {
          "duration": 0.040816333333339117,
          "durationTicks": 16,
          "midi": 27,
          "name": "D#1",
          "ticks": 77400,
          "time": 214.95128849999998,
          "velocity": 0.8188976377952756
        },
        {
          "duration": 0.040816333333339117,
          "durationTicks": 16,
          "midi": 39,
          "name": "D#2",
          "ticks": 77400,
          "time": 214.95128849999998,
          "velocity": 0.8188976377952756
        },
        {
          "duration": 0.040816333333339117,
          "durationTicks": 16,
          "midi": 39,
          "name": "D#2",
          "ticks": 77424,
          "time": 215.01251299999998,
          "velocity": 0.8188976377952756
        },
        {
          "duration": 0.040816333333339117,
          "durationTicks": 16,
          "midi": 27,
          "name": "D#1",
          "ticks": 77424,
          "time": 215.01251299999998,
          "velocity": 0.8188976377952756
        },
        {
          "duration": 0.040816333333310695,
          "durationTicks": 16,
          "midi": 39,
          "name": "D#2",
          "ticks": 77448,
          "time": 215.0737375,
          "velocity": 0.8188976377952756
        },
        {
          "duration": 0.040816333333310695,
          "durationTicks": 16,
          "midi": 27,
          "name": "D#1",
          "ticks": 77448,
          "time": 215.0737375,
          "velocity": 0.8188976377952756
        },
        {
          "duration": 0.040816333333339117,
          "durationTicks": 16,
          "midi": 39,
          "name": "D#2",
          "ticks": 77472,
          "time": 215.13496199999997,
          "velocity": 0.8188976377952756
        },
        {
          "duration": 0.040816333333339117,
          "durationTicks": 16,
          "midi": 27,
          "name": "D#1",
          "ticks": 77472,
          "time": 215.13496199999997,
          "velocity": 0.8188976377952756
        },
        {
          "duration": 0.040816333333339117,
          "durationTicks": 16,
          "midi": 39,
          "name": "D#2",
          "ticks": 77496,
          "time": 215.19618649999998,
          "velocity": 0.8188976377952756
        },
        {
          "duration": 0.040816333333339117,
          "durationTicks": 16,
          "midi": 27,
          "name": "D#1",
          "ticks": 77496,
          "time": 215.19618649999998,
          "velocity": 0.8188976377952756
        },
        {
          "duration": 0.040816333333339117,
          "durationTicks": 16,
          "midi": 39,
          "name": "D#2",
          "ticks": 77520,
          "time": 215.257411,
          "velocity": 0.8188976377952756
        },
        {
          "duration": 0.040816333333339117,
          "durationTicks": 16,
          "midi": 27,
          "name": "D#1",
          "ticks": 77520,
          "time": 215.257411,
          "velocity": 0.8188976377952756
        },
        {
          "duration": 0.040816333333339117,
          "durationTicks": 16,
          "midi": 27,
          "name": "D#1",
          "ticks": 77544,
          "time": 215.31863549999997,
          "velocity": 0.8188976377952756
        },
        {
          "duration": 0.040816333333339117,
          "durationTicks": 16,
          "midi": 39,
          "name": "D#2",
          "ticks": 77544,
          "time": 215.31863549999997,
          "velocity": 0.8188976377952756
        },
        {
          "duration": 0.040816333333339117,
          "durationTicks": 16,
          "midi": 27,
          "name": "D#1",
          "ticks": 77568,
          "time": 215.37985999999998,
          "velocity": 0.8188976377952756
        },
        {
          "duration": 0.040816333333339117,
          "durationTicks": 16,
          "midi": 39,
          "name": "D#2",
          "ticks": 77568,
          "time": 215.37985999999998,
          "velocity": 0.8188976377952756
        },
        {
          "duration": 0.040816333333339117,
          "durationTicks": 16,
          "midi": 39,
          "name": "D#2",
          "ticks": 77592,
          "time": 215.4410845,
          "velocity": 0.8188976377952756
        },
        {
          "duration": 0.040816333333339117,
          "durationTicks": 16,
          "midi": 27,
          "name": "D#1",
          "ticks": 77592,
          "time": 215.4410845,
          "velocity": 0.8188976377952756
        },
        {
          "duration": 0.040816333333310695,
          "durationTicks": 16,
          "midi": 27,
          "name": "D#1",
          "ticks": 77616,
          "time": 215.502309,
          "velocity": 0.8188976377952756
        },
        {
          "duration": 0.040816333333310695,
          "durationTicks": 16,
          "midi": 39,
          "name": "D#2",
          "ticks": 77616,
          "time": 215.502309,
          "velocity": 0.8188976377952756
        },
        {
          "duration": 0.040816333333339117,
          "durationTicks": 16,
          "midi": 27,
          "name": "D#1",
          "ticks": 77640,
          "time": 215.56353349999998,
          "velocity": 0.8188976377952756
        },
        {
          "duration": 0.040816333333339117,
          "durationTicks": 16,
          "midi": 39,
          "name": "D#2",
          "ticks": 77640,
          "time": 215.56353349999998,
          "velocity": 0.8188976377952756
        },
        {
          "duration": 0.040816333333339117,
          "durationTicks": 16,
          "midi": 39,
          "name": "D#2",
          "ticks": 77664,
          "time": 215.62475799999999,
          "velocity": 0.8188976377952756
        },
        {
          "duration": 0.040816333333339117,
          "durationTicks": 16,
          "midi": 27,
          "name": "D#1",
          "ticks": 77664,
          "time": 215.62475799999999,
          "velocity": 0.8188976377952756
        },
        {
          "duration": 0.040816333333310695,
          "durationTicks": 16,
          "midi": 39,
          "name": "D#2",
          "ticks": 77688,
          "time": 215.6859825,
          "velocity": 0.8188976377952756
        },
        {
          "duration": 0.040816333333310695,
          "durationTicks": 16,
          "midi": 27,
          "name": "D#1",
          "ticks": 77688,
          "time": 215.6859825,
          "velocity": 0.8188976377952756
        },
        {
          "duration": 0.040816333333339117,
          "durationTicks": 16,
          "midi": 27,
          "name": "D#1",
          "ticks": 77712,
          "time": 215.74720699999997,
          "velocity": 0.8188976377952756
        },
        {
          "duration": 0.040816333333339117,
          "durationTicks": 16,
          "midi": 39,
          "name": "D#2",
          "ticks": 77712,
          "time": 215.74720699999997,
          "velocity": 0.8188976377952756
        },
        {
          "duration": 0.040816333333339117,
          "durationTicks": 16,
          "midi": 27,
          "name": "D#1",
          "ticks": 77736,
          "time": 215.80843149999998,
          "velocity": 0.8188976377952756
        },
        {
          "duration": 0.040816333333339117,
          "durationTicks": 16,
          "midi": 39,
          "name": "D#2",
          "ticks": 77736,
          "time": 215.80843149999998,
          "velocity": 0.8188976377952756
        },
        {
          "duration": 0.03773583333332908,
          "durationTicks": 16,
          "midi": 39,
          "name": "D#2",
          "ticks": 77952,
          "time": 216.35945199999998,
          "velocity": 0.8188976377952756
        },
        {
          "duration": 0.03773583333332908,
          "durationTicks": 16,
          "midi": 27,
          "name": "D#1",
          "ticks": 77952,
          "time": 216.35945199999998,
          "velocity": 0.8188976377952756
        },
        {
          "duration": 0.03773583333332908,
          "durationTicks": 16,
          "midi": 27,
          "name": "D#1",
          "ticks": 77976,
          "time": 216.41605574999997,
          "velocity": 0.8188976377952756
        },
        {
          "duration": 0.03773583333332908,
          "durationTicks": 16,
          "midi": 39,
          "name": "D#2",
          "ticks": 77976,
          "time": 216.41605574999997,
          "velocity": 0.8188976377952756
        },
        {
          "duration": 0.037735833333357505,
          "durationTicks": 16,
          "midi": 39,
          "name": "D#2",
          "ticks": 78000,
          "time": 216.47265949999996,
          "velocity": 0.8188976377952756
        },
        {
          "duration": 0.037735833333357505,
          "durationTicks": 16,
          "midi": 27,
          "name": "D#1",
          "ticks": 78000,
          "time": 216.47265949999996,
          "velocity": 0.8188976377952756
        },
        {
          "duration": 0.03773583333332908,
          "durationTicks": 16,
          "midi": 27,
          "name": "D#1",
          "ticks": 78024,
          "time": 216.52926324999999,
          "velocity": 0.8188976377952756
        },
        {
          "duration": 0.03773583333332908,
          "durationTicks": 16,
          "midi": 39,
          "name": "D#2",
          "ticks": 78024,
          "time": 216.52926324999999,
          "velocity": 0.8188976377952756
        },
        {
          "duration": 0.03773583333332908,
          "durationTicks": 16,
          "midi": 39,
          "name": "D#2",
          "ticks": 78048,
          "time": 216.58586699999998,
          "velocity": 0.8188976377952756
        },
        {
          "duration": 0.03773583333332908,
          "durationTicks": 16,
          "midi": 27,
          "name": "D#1",
          "ticks": 78048,
          "time": 216.58586699999998,
          "velocity": 0.8188976377952756
        },
        {
          "duration": 0.03773583333332908,
          "durationTicks": 16,
          "midi": 39,
          "name": "D#2",
          "ticks": 78072,
          "time": 216.64247074999997,
          "velocity": 0.8188976377952756
        },
        {
          "duration": 0.03773583333332908,
          "durationTicks": 16,
          "midi": 27,
          "name": "D#1",
          "ticks": 78072,
          "time": 216.64247074999997,
          "velocity": 0.8188976377952756
        },
        {
          "duration": 0.03773583333332908,
          "durationTicks": 16,
          "midi": 27,
          "name": "D#1",
          "ticks": 78096,
          "time": 216.69907449999997,
          "velocity": 0.8188976377952756
        },
        {
          "duration": 0.03773583333332908,
          "durationTicks": 16,
          "midi": 39,
          "name": "D#2",
          "ticks": 78096,
          "time": 216.69907449999997,
          "velocity": 0.8188976377952756
        },
        {
          "duration": 0.03773583333332908,
          "durationTicks": 16,
          "midi": 39,
          "name": "D#2",
          "ticks": 78120,
          "time": 216.75567825,
          "velocity": 0.8188976377952756
        },
        {
          "duration": 0.03773583333332908,
          "durationTicks": 16,
          "midi": 27,
          "name": "D#1",
          "ticks": 78120,
          "time": 216.75567825,
          "velocity": 0.8188976377952756
        },
        {
          "duration": 0.03773583333332908,
          "durationTicks": 16,
          "midi": 39,
          "name": "D#2",
          "ticks": 78144,
          "time": 216.81228199999998,
          "velocity": 0.8188976377952756
        },
        {
          "duration": 0.03773583333332908,
          "durationTicks": 16,
          "midi": 27,
          "name": "D#1",
          "ticks": 78144,
          "time": 216.81228199999998,
          "velocity": 0.8188976377952756
        },
        {
          "duration": 0.03773583333332908,
          "durationTicks": 16,
          "midi": 27,
          "name": "D#1",
          "ticks": 78168,
          "time": 216.86888574999998,
          "velocity": 0.8188976377952756
        },
        {
          "duration": 0.03773583333332908,
          "durationTicks": 16,
          "midi": 39,
          "name": "D#2",
          "ticks": 78168,
          "time": 216.86888574999998,
          "velocity": 0.8188976377952756
        },
        {
          "duration": 0.03773583333332908,
          "durationTicks": 16,
          "midi": 27,
          "name": "D#1",
          "ticks": 78192,
          "time": 216.92548949999997,
          "velocity": 0.8188976377952756
        },
        {
          "duration": 0.03773583333332908,
          "durationTicks": 16,
          "midi": 39,
          "name": "D#2",
          "ticks": 78192,
          "time": 216.92548949999997,
          "velocity": 0.8188976377952756
        },
        {
          "duration": 0.037735833333357505,
          "durationTicks": 16,
          "midi": 39,
          "name": "D#2",
          "ticks": 78216,
          "time": 216.98209324999996,
          "velocity": 0.8188976377952756
        },
        {
          "duration": 0.037735833333357505,
          "durationTicks": 16,
          "midi": 27,
          "name": "D#1",
          "ticks": 78216,
          "time": 216.98209324999996,
          "velocity": 0.8188976377952756
        },
        {
          "duration": 0.03773583333332908,
          "durationTicks": 16,
          "midi": 27,
          "name": "D#1",
          "ticks": 78240,
          "time": 217.03869699999998,
          "velocity": 0.8188976377952756
        },
        {
          "duration": 0.03773583333332908,
          "durationTicks": 16,
          "midi": 39,
          "name": "D#2",
          "ticks": 78240,
          "time": 217.03869699999998,
          "velocity": 0.8188976377952756
        },
        {
          "duration": 0.03773583333332908,
          "durationTicks": 16,
          "midi": 27,
          "name": "D#1",
          "ticks": 78264,
          "time": 217.09530074999998,
          "velocity": 0.8188976377952756
        },
        {
          "duration": 0.03773583333332908,
          "durationTicks": 16,
          "midi": 39,
          "name": "D#2",
          "ticks": 78264,
          "time": 217.09530074999998,
          "velocity": 0.8188976377952756
        },
        {
          "duration": 0.03773583333332908,
          "durationTicks": 16,
          "midi": 39,
          "name": "D#2",
          "ticks": 78288,
          "time": 217.15190449999997,
          "velocity": 0.8188976377952756
        },
        {
          "duration": 0.03773583333332908,
          "durationTicks": 16,
          "midi": 27,
          "name": "D#1",
          "ticks": 78288,
          "time": 217.15190449999997,
          "velocity": 0.8188976377952756
        },
        {
          "duration": 0.037735833333357505,
          "durationTicks": 16,
          "midi": 39,
          "name": "D#2",
          "ticks": 78312,
          "time": 217.20850824999997,
          "velocity": 0.8188976377952756
        },
        {
          "duration": 0.037735833333357505,
          "durationTicks": 16,
          "midi": 27,
          "name": "D#1",
          "ticks": 78312,
          "time": 217.20850824999997,
          "velocity": 0.8188976377952756
        },
        {
          "duration": 0.03773583333332908,
          "durationTicks": 16,
          "midi": 39,
          "name": "D#2",
          "ticks": 78336,
          "time": 217.265112,
          "velocity": 0.8188976377952756
        },
        {
          "duration": 0.03773583333332908,
          "durationTicks": 16,
          "midi": 27,
          "name": "D#1",
          "ticks": 78336,
          "time": 217.265112,
          "velocity": 0.8188976377952756
        },
        {
          "duration": 0.03773583333332908,
          "durationTicks": 16,
          "midi": 27,
          "name": "D#1",
          "ticks": 78360,
          "time": 217.32171574999998,
          "velocity": 0.8188976377952756
        },
        {
          "duration": 0.03773583333332908,
          "durationTicks": 16,
          "midi": 39,
          "name": "D#2",
          "ticks": 78360,
          "time": 217.32171574999998,
          "velocity": 0.8188976377952756
        },
        {
          "duration": 0.03773583333332908,
          "durationTicks": 16,
          "midi": 39,
          "name": "D#2",
          "ticks": 78384,
          "time": 217.37831949999998,
          "velocity": 0.8188976377952756
        },
        {
          "duration": 0.03773583333332908,
          "durationTicks": 16,
          "midi": 27,
          "name": "D#1",
          "ticks": 78384,
          "time": 217.37831949999998,
          "velocity": 0.8188976377952756
        },
        {
          "duration": 0.03773583333332908,
          "durationTicks": 16,
          "midi": 39,
          "name": "D#2",
          "ticks": 78408,
          "time": 217.43492324999997,
          "velocity": 0.8188976377952756
        },
        {
          "duration": 0.03773583333332908,
          "durationTicks": 16,
          "midi": 27,
          "name": "D#1",
          "ticks": 78408,
          "time": 217.43492324999997,
          "velocity": 0.8188976377952756
        },
        {
          "duration": 0.037735833333357505,
          "durationTicks": 16,
          "midi": 39,
          "name": "D#2",
          "ticks": 78432,
          "time": 217.49152699999996,
          "velocity": 0.8188976377952756
        },
        {
          "duration": 0.037735833333357505,
          "durationTicks": 16,
          "midi": 27,
          "name": "D#1",
          "ticks": 78432,
          "time": 217.49152699999996,
          "velocity": 0.8188976377952756
        },
        {
          "duration": 0.03773583333332908,
          "durationTicks": 16,
          "midi": 27,
          "name": "D#1",
          "ticks": 78456,
          "time": 217.54813074999998,
          "velocity": 0.8188976377952756
        },
        {
          "duration": 0.03773583333332908,
          "durationTicks": 16,
          "midi": 39,
          "name": "D#2",
          "ticks": 78456,
          "time": 217.54813074999998,
          "velocity": 0.8188976377952756
        },
        {
          "duration": 0.03773583333332908,
          "durationTicks": 16,
          "midi": 27,
          "name": "D#1",
          "ticks": 78480,
          "time": 217.60473449999998,
          "velocity": 0.8188976377952756
        },
        {
          "duration": 0.03773583333332908,
          "durationTicks": 16,
          "midi": 39,
          "name": "D#2",
          "ticks": 78480,
          "time": 217.60473449999998,
          "velocity": 0.8188976377952756
        },
        {
          "duration": 0.03773583333332908,
          "durationTicks": 16,
          "midi": 39,
          "name": "D#2",
          "ticks": 78504,
          "time": 217.66133824999997,
          "velocity": 0.8188976377952756
        },
        {
          "duration": 0.03773583333332908,
          "durationTicks": 16,
          "midi": 27,
          "name": "D#1",
          "ticks": 78504,
          "time": 217.66133824999997,
          "velocity": 0.8188976377952756
        },
        {
          "duration": 0.037735833333357505,
          "durationTicks": 16,
          "midi": 39,
          "name": "D#2",
          "ticks": 78528,
          "time": 217.71794199999997,
          "velocity": 0.8188976377952756
        },
        {
          "duration": 0.037735833333357505,
          "durationTicks": 16,
          "midi": 27,
          "name": "D#1",
          "ticks": 78528,
          "time": 217.71794199999997,
          "velocity": 0.8188976377952756
        },
        {
          "duration": 0.03773583333332908,
          "durationTicks": 16,
          "midi": 40,
          "name": "E2",
          "ticks": 78552,
          "time": 217.77454575,
          "velocity": 0.8188976377952756
        },
        {
          "duration": 0.03773583333332908,
          "durationTicks": 16,
          "midi": 28,
          "name": "E1",
          "ticks": 78552,
          "time": 217.77454575,
          "velocity": 0.8188976377952756
        },
        {
          "duration": 0.03773583333332908,
          "durationTicks": 16,
          "midi": 41,
          "name": "F2",
          "ticks": 78576,
          "time": 217.83114949999998,
          "velocity": 0.8188976377952756
        },
        {
          "duration": 0.03773583333332908,
          "durationTicks": 16,
          "midi": 29,
          "name": "F1",
          "ticks": 78576,
          "time": 217.83114949999998,
          "velocity": 0.8188976377952756
        },
        {
          "duration": 0.03773583333332908,
          "durationTicks": 16,
          "midi": 42,
          "name": "F#2",
          "ticks": 78600,
          "time": 217.88775324999997,
          "velocity": 0.8188976377952756
        },
        {
          "duration": 0.03773583333332908,
          "durationTicks": 16,
          "midi": 30,
          "name": "F#1",
          "ticks": 78600,
          "time": 217.88775324999997,
          "velocity": 0.8188976377952756
        },
        {
          "duration": 0.03773583333332908,
          "durationTicks": 16,
          "midi": 43,
          "name": "G2",
          "ticks": 78624,
          "time": 217.94435699999997,
          "velocity": 0.8188976377952756
        },
        {
          "duration": 0.03773583333332908,
          "durationTicks": 16,
          "midi": 31,
          "name": "G1",
          "ticks": 78624,
          "time": 217.94435699999997,
          "velocity": 0.8188976377952756
        },
        {
          "duration": 0.03773583333332908,
          "durationTicks": 16,
          "midi": 44,
          "name": "G#2",
          "ticks": 78648,
          "time": 218.00096075,
          "velocity": 0.8188976377952756
        },
        {
          "duration": 0.03773583333332908,
          "durationTicks": 16,
          "midi": 32,
          "name": "G#1",
          "ticks": 78648,
          "time": 218.00096075,
          "velocity": 0.8188976377952756
        },
        {
          "duration": 0.03773583333332908,
          "durationTicks": 16,
          "midi": 33,
          "name": "A1",
          "ticks": 78672,
          "time": 218.05756449999998,
          "velocity": 0.8188976377952756
        },
        {
          "duration": 0.03773583333332908,
          "durationTicks": 16,
          "midi": 45,
          "name": "A2",
          "ticks": 78672,
          "time": 218.05756449999998,
          "velocity": 0.8188976377952756
        },
        {
          "duration": 0.03773583333332908,
          "durationTicks": 16,
          "midi": 34,
          "name": "A#1",
          "ticks": 78696,
          "time": 218.11416824999998,
          "velocity": 0.8188976377952756
        },
        {
          "duration": 0.03773583333332908,
          "durationTicks": 16,
          "midi": 46,
          "name": "A#2",
          "ticks": 78696,
          "time": 218.11416824999998,
          "velocity": 0.8188976377952756
        },
        {
          "duration": 0.03773583333332908,
          "durationTicks": 16,
          "midi": 38,
          "name": "D2",
          "ticks": 78720,
          "time": 218.17077199999997,
          "velocity": 0.8188976377952756
        },
        {
          "duration": 0.03773583333332908,
          "durationTicks": 16,
          "midi": 50,
          "name": "D3",
          "ticks": 78720,
          "time": 218.17077199999997,
          "velocity": 0.8188976377952756
        },
        {
          "duration": 0.037735833333357505,
          "durationTicks": 16,
          "midi": 49,
          "name": "C#3",
          "ticks": 78744,
          "time": 218.22737574999996,
          "velocity": 0.8188976377952756
        },
        {
          "duration": 0.037735833333357505,
          "durationTicks": 16,
          "midi": 37,
          "name": "C#2",
          "ticks": 78744,
          "time": 218.22737574999996,
          "velocity": 0.8188976377952756
        },
        {
          "duration": 0.03773583333332908,
          "durationTicks": 16,
          "midi": 48,
          "name": "C3",
          "ticks": 78768,
          "time": 218.2839795,
          "velocity": 0.8188976377952756
        },
        {
          "duration": 0.03773583333332908,
          "durationTicks": 16,
          "midi": 36,
          "name": "C2",
          "ticks": 78768,
          "time": 218.2839795,
          "velocity": 0.8188976377952756
        },
        {
          "duration": 0.03773583333332908,
          "durationTicks": 16,
          "midi": 35,
          "name": "B1",
          "ticks": 78792,
          "time": 218.34058324999998,
          "velocity": 0.8188976377952756
        },
        {
          "duration": 0.03773583333332908,
          "durationTicks": 16,
          "midi": 47,
          "name": "B2",
          "ticks": 78792,
          "time": 218.34058324999998,
          "velocity": 0.8188976377952756
        },
        {
          "duration": 0.03921566666667786,
          "durationTicks": 16,
          "midi": 46,
          "name": "A#2",
          "ticks": 78816,
          "time": 218.39718699999997,
          "velocity": 0.8188976377952756
        },
        {
          "duration": 0.03921566666667786,
          "durationTicks": 16,
          "midi": 34,
          "name": "A#1",
          "ticks": 78816,
          "time": 218.39718699999997,
          "velocity": 0.8188976377952756
        },
        {
          "duration": 0.03921566666667786,
          "durationTicks": 16,
          "midi": 45,
          "name": "A2",
          "ticks": 78840,
          "time": 218.45601049999996,
          "velocity": 0.8188976377952756
        },
        {
          "duration": 0.03921566666667786,
          "durationTicks": 16,
          "midi": 33,
          "name": "A1",
          "ticks": 78840,
          "time": 218.45601049999996,
          "velocity": 0.8188976377952756
        },
        {
          "duration": 0.03921566666664944,
          "durationTicks": 16,
          "midi": 44,
          "name": "G#2",
          "ticks": 78864,
          "time": 218.51483399999998,
          "velocity": 0.8188976377952756
        },
        {
          "duration": 0.03921566666664944,
          "durationTicks": 16,
          "midi": 32,
          "name": "G#1",
          "ticks": 78864,
          "time": 218.51483399999998,
          "velocity": 0.8188976377952756
        },
        {
          "duration": 0.03921566666667786,
          "durationTicks": 16,
          "midi": 31,
          "name": "G1",
          "ticks": 78888,
          "time": 218.57365749999997,
          "velocity": 0.8188976377952756
        },
        {
          "duration": 0.03921566666667786,
          "durationTicks": 16,
          "midi": 43,
          "name": "G2",
          "ticks": 78888,
          "time": 218.57365749999997,
          "velocity": 0.8188976377952756
        },
        {
          "duration": 0.0407162916666266,
          "durationTicks": 16,
          "midi": 42,
          "name": "F#2",
          "ticks": 78912,
          "time": 218.63248099999998,
          "velocity": 0.8188976377952756
        },
        {
          "duration": 0.0407162916666266,
          "durationTicks": 16,
          "midi": 30,
          "name": "F#1",
          "ticks": 78912,
          "time": 218.63248099999998,
          "velocity": 0.8188976377952756
        },
        {
          "duration": 0.040816333333339117,
          "durationTicks": 16,
          "midi": 29,
          "name": "F1",
          "ticks": 78936,
          "time": 218.69360545833328,
          "velocity": 0.8188976377952756
        },
        {
          "duration": 0.040816333333339117,
          "durationTicks": 16,
          "midi": 41,
          "name": "F2",
          "ticks": 78936,
          "time": 218.69360545833328,
          "velocity": 0.8188976377952756
        },
        {
          "duration": 0.040816333333339117,
          "durationTicks": 16,
          "midi": 28,
          "name": "E1",
          "ticks": 78960,
          "time": 218.7548299583333,
          "velocity": 0.8188976377952756
        },
        {
          "duration": 0.040816333333339117,
          "durationTicks": 16,
          "midi": 40,
          "name": "E2",
          "ticks": 78960,
          "time": 218.7548299583333,
          "velocity": 0.8188976377952756
        },
        {
          "duration": 0.040816333333339117,
          "durationTicks": 16,
          "midi": 39,
          "name": "D#2",
          "ticks": 78984,
          "time": 218.8160544583333,
          "velocity": 0.8188976377952756
        },
        {
          "duration": 0.040816333333339117,
          "durationTicks": 16,
          "midi": 27,
          "name": "D#1",
          "ticks": 78984,
          "time": 218.8160544583333,
          "velocity": 0.8188976377952756
        },
        {
          "duration": 0.04255316666666431,
          "durationTicks": 16,
          "midi": 26,
          "name": "D1",
          "ticks": 79008,
          "time": 218.8772789583333,
          "velocity": 0.8188976377952756
        },
        {
          "duration": 0.04255316666666431,
          "durationTicks": 16,
          "midi": 38,
          "name": "D2",
          "ticks": 79008,
          "time": 218.8772789583333,
          "velocity": 0.8188976377952756
        },
        {
          "duration": 0.04255316666666431,
          "durationTicks": 16,
          "midi": 25,
          "name": "C#1",
          "ticks": 79032,
          "time": 218.9411087083333,
          "velocity": 0.8188976377952756
        },
        {
          "duration": 0.04255316666666431,
          "durationTicks": 16,
          "midi": 37,
          "name": "C#2",
          "ticks": 79032,
          "time": 218.9411087083333,
          "velocity": 0.8188976377952756
        },
        {
          "duration": 0.04255316666666431,
          "durationTicks": 16,
          "midi": 36,
          "name": "C2",
          "ticks": 79056,
          "time": 219.0049384583333,
          "velocity": 0.8188976377952756
        },
        {
          "duration": 0.04255316666666431,
          "durationTicks": 16,
          "midi": 35,
          "name": "B1",
          "ticks": 79080,
          "time": 219.0687682083333,
          "velocity": 0.8188976377952756
        },
        {
          "duration": 0.04255316666666431,
          "durationTicks": 16,
          "midi": 23,
          "name": "B0",
          "ticks": 79080,
          "time": 219.0687682083333,
          "velocity": 0.8188976377952756
        },
        {
          "duration": 0.2553190000000143,
          "durationTicks": 96,
          "midi": 31,
          "name": "G1",
          "ticks": 79104,
          "time": 219.1325979583333,
          "velocity": 0.8188976377952756
        },
        {
          "duration": 0.022222249999998667,
          "durationTicks": 8,
          "midi": 31,
          "name": "G1",
          "ticks": 79344,
          "time": 219.78554297916662,
          "velocity": 0.8188976377952756
        },
        {
          "duration": 0.022222249999998667,
          "durationTicks": 8,
          "midi": 31,
          "name": "G1",
          "ticks": 79368,
          "time": 219.85220972916662,
          "velocity": 0.8188976377952756
        },
        {
          "duration": 6.666674999999998,
          "durationTicks": 2400,
          "midi": 31,
          "name": "G1",
          "ticks": 79392,
          "time": 219.9188764791666,
          "velocity": 0.8188976377952756
        },
        {
          "duration": 0.022222249999998667,
          "durationTicks": 8,
          "midi": 31,
          "name": "G1",
          "ticks": 81792,
          "time": 226.5855514791666,
          "velocity": 0.3464566929133858
        },
        {
          "duration": 0.022222249999998667,
          "durationTicks": 8,
          "midi": 31,
          "name": "G1",
          "ticks": 81936,
          "time": 226.98555197916662,
          "velocity": 0.3464566929133858
        },
        {
          "duration": 0.02222225000002709,
          "durationTicks": 8,
          "midi": 31,
          "name": "G1",
          "ticks": 82176,
          "time": 227.6522194791666,
          "velocity": 0.3464566929133858
        },
        {
          "duration": 0.022222249999998667,
          "durationTicks": 8,
          "midi": 31,
          "name": "G1",
          "ticks": 82320,
          "time": 228.0522199791666,
          "velocity": 0.3464566929133858
        }
      ],
      "endOfTrackTicks": 82491
    },
    {
      "channel": 7,
      "controlChanges": {
        "6": [
          {
            "number": 6,
            "ticks": 0,
            "time": 0,
            "value": 0.09448818897637795
          },
          {
            "number": 6,
            "ticks": 0,
            "time": 0,
            "value": 0.09448818897637795
          },
          {
            "number": 6,
            "ticks": 0,
            "time": 0,
            "value": 0.09448818897637795
          },
          {
            "number": 6,
            "ticks": 82466,
            "time": 228.45777604166662,
            "value": 0.09448818897637795
          },
          {
            "number": 6,
            "ticks": 82491,
            "time": 228.52722057291663,
            "value": 0.09448818897637795
          }
        ],
        "7": [
          {
            "number": 7,
            "ticks": 0,
            "time": 0,
            "value": 0.7874015748031497
          },
          {
            "number": 7,
            "ticks": 0,
            "time": 0,
            "value": 0.7874015748031497
          },
          {
            "number": 7,
            "ticks": 0,
            "time": 0,
            "value": 0.7874015748031497
          },
          {
            "number": 7,
            "ticks": 0,
            "time": 0,
            "value": 0.7874015748031497
          },
          {
            "number": 7,
            "ticks": 82466,
            "time": 228.45777604166662,
            "value": 0.7874015748031497
          },
          {
            "number": 7,
            "ticks": 82491,
            "time": 228.52722057291663,
            "value": 0.7874015748031497
          }
        ],
        "10": [
          {
            "number": 10,
            "ticks": 0,
            "time": 0,
            "value": 0.5039370078740157
          },
          {
            "number": 10,
            "ticks": 0,
            "time": 0,
            "value": 0.5039370078740157
          },
          {
            "number": 10,
            "ticks": 0,
            "time": 0,
            "value": 0.5039370078740157
          },
          {
            "number": 10,
            "ticks": 0,
            "time": 0,
            "value": 0.5039370078740157
          },
          {
            "number": 10,
            "ticks": 82466,
            "time": 228.45777604166662,
            "value": 0.5039370078740157
          },
          {
            "number": 10,
            "ticks": 82491,
            "time": 228.52722057291663,
            "value": 0.5039370078740157
          }
        ],
        "100": [
          {
            "number": 100,
            "ticks": 0,
            "time": 0,
            "value": 0
          },
          {
            "number": 100,
            "ticks": 0,
            "time": 0,
            "value": 0
          },
          {
            "number": 100,
            "ticks": 0,
            "time": 0,
            "value": 0
          },
          {
            "number": 100,
            "ticks": 82466,
            "time": 228.45777604166662,
            "value": 0
          },
          {
            "number": 100,
            "ticks": 82491,
            "time": 228.52722057291663,
            "value": 0
          }
        ],
        "101": [
          {
            "number": 101,
            "ticks": 0,
            "time": 0,
            "value": 0
          },
          {
            "number": 101,
            "ticks": 0,
            "time": 0,
            "value": 0
          },
          {
            "number": 101,
            "ticks": 0,
            "time": 0,
            "value": 0
          },
          {
            "number": 101,
            "ticks": 82466,
            "time": 228.45777604166662,
            "value": 0
          },
          {
            "number": 101,
            "ticks": 82491,
            "time": 228.52722057291663,
            "value": 0
          }
        ]
      },
      "pitchBends": [
        {
          "ticks": 0,
          "time": 0,
          "value": 0
        },
        {
          "ticks": 0,
          "time": 0,
          "value": 0
        },
        {
          "ticks": 0,
          "time": 0,
          "value": 0
        },
        {
          "ticks": 0,
          "time": 0,
          "value": 0
        },
        {
          "ticks": 82466,
          "time": 228.45777604166662,
          "value": 0
        },
        {
          "ticks": 82491,
          "time": 228.52722057291663,
          "value": 0
        }
      ],
      "instrument": {
        "family": "piano",
        "number": 0,
        "name": "acoustic grand piano"
      },
      "name": "Drum #2",
      "notes": [
        {
          "duration": 0.1333335,
          "durationTicks": 48,
          "midi": 27,
          "name": "D#1",
          "ticks": 1728,
          "time": 4.800006,
          "velocity": 0.49606299212598426
        },
        {
          "duration": 0.1333335,
          "durationTicks": 48,
          "midi": 39,
          "name": "D#2",
          "ticks": 1728,
          "time": 4.800006,
          "velocity": 0.49606299212598426
        },
        {
          "duration": 0.1333335,
          "durationTicks": 48,
          "midi": 40,
          "name": "E2",
          "ticks": 1776,
          "time": 4.9333395,
          "velocity": 0.5118110236220472
        },
        {
          "duration": 0.1333335,
          "durationTicks": 48,
          "midi": 28,
          "name": "E1",
          "ticks": 1776,
          "time": 4.9333395,
          "velocity": 0.5118110236220472
        },
        {
          "duration": 0.1333335,
          "durationTicks": 48,
          "midi": 41,
          "name": "F2",
          "ticks": 1824,
          "time": 5.066673,
          "velocity": 0.5275590551181102
        },
        {
          "duration": 0.1333335,
          "durationTicks": 48,
          "midi": 29,
          "name": "F1",
          "ticks": 1824,
          "time": 5.066673,
          "velocity": 0.5275590551181102
        },
        {
          "duration": 0.1333335,
          "durationTicks": 48,
          "midi": 42,
          "name": "F#2",
          "ticks": 1872,
          "time": 5.2000065,
          "velocity": 0.5354330708661418
        },
        {
          "duration": 0.1333335,
          "durationTicks": 48,
          "midi": 30,
          "name": "F#1",
          "ticks": 1872,
          "time": 5.2000065,
          "velocity": 0.5354330708661418
        },
        {
          "duration": 0.1333335,
          "durationTicks": 48,
          "midi": 31,
          "name": "G1",
          "ticks": 1920,
          "time": 5.33334,
          "velocity": 0.5511811023622047
        },
        {
          "duration": 0.1333335,
          "durationTicks": 48,
          "midi": 43,
          "name": "G2",
          "ticks": 1920,
          "time": 5.33334,
          "velocity": 0.5511811023622047
        },
        {
          "duration": 0.1333335,
          "durationTicks": 48,
          "midi": 44,
          "name": "G#2",
          "ticks": 1968,
          "time": 5.4666735,
          "velocity": 0.5669291338582677
        },
        {
          "duration": 0.1333335,
          "durationTicks": 48,
          "midi": 32,
          "name": "G#1",
          "ticks": 1968,
          "time": 5.4666735,
          "velocity": 0.5669291338582677
        },
        {
          "duration": 0.1333335,
          "durationTicks": 48,
          "midi": 33,
          "name": "A1",
          "ticks": 2016,
          "time": 5.600007,
          "velocity": 0.5748031496062992
        },
        {
          "duration": 0.1333335,
          "durationTicks": 48,
          "midi": 45,
          "name": "A2",
          "ticks": 2016,
          "time": 5.600007,
          "velocity": 0.5748031496062992
        },
        {
          "duration": 0.1333335,
          "durationTicks": 48,
          "midi": 34,
          "name": "A#1",
          "ticks": 2064,
          "time": 5.7333405,
          "velocity": 0.5905511811023622
        },
        {
          "duration": 0.1333335,
          "durationTicks": 48,
          "midi": 46,
          "name": "A#2",
          "ticks": 2064,
          "time": 5.7333405,
          "velocity": 0.5905511811023622
        },
        {
          "duration": 0.1333335,
          "durationTicks": 48,
          "midi": 35,
          "name": "B1",
          "ticks": 2112,
          "time": 5.866674,
          "velocity": 0.6062992125984252
        },
        {
          "duration": 0.1333335,
          "durationTicks": 48,
          "midi": 47,
          "name": "B2",
          "ticks": 2112,
          "time": 5.866674,
          "velocity": 0.6062992125984252
        },
        {
          "duration": 0.1333335,
          "durationTicks": 48,
          "midi": 48,
          "name": "C3",
          "ticks": 2160,
          "time": 6.0000075,
          "velocity": 0.6141732283464567
        },
        {
          "duration": 0.1333335,
          "durationTicks": 48,
          "midi": 36,
          "name": "C2",
          "ticks": 2160,
          "time": 6.0000075,
          "velocity": 0.6141732283464567
        },
        {
          "duration": 0.1333335,
          "durationTicks": 48,
          "midi": 49,
          "name": "C#3",
          "ticks": 2208,
          "time": 6.133341,
          "velocity": 0.6299212598425197
        },
        {
          "duration": 0.1333335,
          "durationTicks": 48,
          "midi": 37,
          "name": "C#2",
          "ticks": 2208,
          "time": 6.133341,
          "velocity": 0.6299212598425197
        },
        {
          "duration": 0.1333335,
          "durationTicks": 48,
          "midi": 50,
          "name": "D3",
          "ticks": 2256,
          "time": 6.2666745,
          "velocity": 0.6456692913385826
        },
        {
          "duration": 0.1333335,
          "durationTicks": 48,
          "midi": 38,
          "name": "D2",
          "ticks": 2256,
          "time": 6.2666745,
          "velocity": 0.6456692913385826
        },
        {
          "duration": 0.1333335,
          "durationTicks": 48,
          "midi": 39,
          "name": "D#2",
          "ticks": 2304,
          "time": 6.400008,
          "velocity": 0.6535433070866141
        },
        {
          "duration": 0.1333335,
          "durationTicks": 48,
          "midi": 51,
          "name": "D#3",
          "ticks": 2304,
          "time": 6.400008,
          "velocity": 0.6535433070866141
        },
        {
          "duration": 0.1333335,
          "durationTicks": 48,
          "midi": 52,
          "name": "E3",
          "ticks": 2352,
          "time": 6.5333415,
          "velocity": 0.6692913385826772
        },
        {
          "duration": 0.1333335,
          "durationTicks": 48,
          "midi": 40,
          "name": "E2",
          "ticks": 2352,
          "time": 6.5333415,
          "velocity": 0.6692913385826772
        },
        {
          "duration": 0.1333335,
          "durationTicks": 48,
          "midi": 41,
          "name": "F2",
          "ticks": 2400,
          "time": 6.666675,
          "velocity": 0.6850393700787402
        },
        {
          "duration": 0.1333335,
          "durationTicks": 48,
          "midi": 53,
          "name": "F3",
          "ticks": 2400,
          "time": 6.666675,
          "velocity": 0.6850393700787402
        },
        {
          "duration": 0.1333335,
          "durationTicks": 48,
          "midi": 42,
          "name": "F#2",
          "ticks": 2448,
          "time": 6.8000085,
          "velocity": 0.6929133858267716
        },
        {
          "duration": 0.1333335,
          "durationTicks": 48,
          "midi": 54,
          "name": "F#3",
          "ticks": 2448,
          "time": 6.8000085,
          "velocity": 0.6929133858267716
        },
        {
          "duration": 0.1333335,
          "durationTicks": 48,
          "midi": 55,
          "name": "G3",
          "ticks": 2496,
          "time": 6.933342,
          "velocity": 0.7086614173228346
        },
        {
          "duration": 0.1333335,
          "durationTicks": 48,
          "midi": 43,
          "name": "G2",
          "ticks": 2496,
          "time": 6.933342,
          "velocity": 0.7086614173228346
        },
        {
          "duration": 0.1333335,
          "durationTicks": 48,
          "midi": 44,
          "name": "G#2",
          "ticks": 2544,
          "time": 7.0666755,
          "velocity": 0.7244094488188977
        },
        {
          "duration": 0.1333335,
          "durationTicks": 48,
          "midi": 56,
          "name": "G#3",
          "ticks": 2544,
          "time": 7.0666755,
          "velocity": 0.7244094488188977
        },
        {
          "duration": 0.1333335,
          "durationTicks": 48,
          "midi": 45,
          "name": "A2",
          "ticks": 2592,
          "time": 7.200009,
          "velocity": 0.7322834645669292
        },
        {
          "duration": 0.1333335,
          "durationTicks": 48,
          "midi": 57,
          "name": "A3",
          "ticks": 2592,
          "time": 7.200009,
          "velocity": 0.7322834645669292
        },
        {
          "duration": 0.1333335,
          "durationTicks": 48,
          "midi": 58,
          "name": "A#3",
          "ticks": 2640,
          "time": 7.3333425,
          "velocity": 0.7480314960629921
        },
        {
          "duration": 0.1333335,
          "durationTicks": 48,
          "midi": 46,
          "name": "A#2",
          "ticks": 2640,
          "time": 7.3333425,
          "velocity": 0.7480314960629921
        },
        {
          "duration": 0.1333335,
          "durationTicks": 48,
          "midi": 47,
          "name": "B2",
          "ticks": 2688,
          "time": 7.466676,
          "velocity": 0.7637795275590551
        },
        {
          "duration": 0.1333335,
          "durationTicks": 48,
          "midi": 59,
          "name": "B3",
          "ticks": 2688,
          "time": 7.466676,
          "velocity": 0.7637795275590551
        },
        {
          "duration": 0.1333335,
          "durationTicks": 48,
          "midi": 60,
          "name": "C4",
          "ticks": 2736,
          "time": 7.6000095,
          "velocity": 0.7716535433070866
        },
        {
          "duration": 0.1333335,
          "durationTicks": 48,
          "midi": 48,
          "name": "C3",
          "ticks": 2736,
          "time": 7.6000095,
          "velocity": 0.7716535433070866
        },
        {
          "duration": 0.1333335,
          "durationTicks": 48,
          "midi": 49,
          "name": "C#3",
          "ticks": 2784,
          "time": 7.733343,
          "velocity": 0.7874015748031497
        },
        {
          "duration": 0.1333335,
          "durationTicks": 48,
          "midi": 61,
          "name": "C#4",
          "ticks": 2784,
          "time": 7.733343,
          "velocity": 0.7874015748031497
        },
        {
          "duration": 0.1333335,
          "durationTicks": 48,
          "midi": 62,
          "name": "D4",
          "ticks": 2832,
          "time": 7.8666765,
          "velocity": 0.8031496062992126
        },
        {
          "duration": 0.1333335,
          "durationTicks": 48,
          "midi": 50,
          "name": "D3",
          "ticks": 2832,
          "time": 7.8666765,
          "velocity": 0.8031496062992126
        },
        {
          "duration": 0.06666674999999955,
          "durationTicks": 24,
          "midi": 51,
          "name": "D#3",
          "ticks": 2880,
          "time": 8.00001,
          "velocity": 0.4409448818897638
        },
        {
          "duration": 0.06666674999999955,
          "durationTicks": 24,
          "midi": 63,
          "name": "D#4",
          "ticks": 2880,
          "time": 8.00001,
          "velocity": 0.4409448818897638
        },
        {
          "duration": 0.06666674999999955,
          "durationTicks": 24,
          "midi": 46,
          "name": "A#2",
          "ticks": 2880,
          "time": 8.00001,
          "velocity": 0.4409448818897638
        },
        {
          "duration": 0.06666674999999955,
          "durationTicks": 24,
          "midi": 34,
          "name": "A#1",
          "ticks": 2880,
          "time": 8.00001,
          "velocity": 0.4409448818897638
        },
        {
          "duration": 0.06666674999999955,
          "durationTicks": 24,
          "midi": 22,
          "name": "A#0",
          "ticks": 2880,
          "time": 8.00001,
          "velocity": 0.4409448818897638
        },
        {
          "duration": 0.06666674999999955,
          "durationTicks": 24,
          "midi": 51,
          "name": "D#3",
          "ticks": 2904,
          "time": 8.06667675,
          "velocity": 0.4881889763779528
        },
        {
          "duration": 0.06666674999999955,
          "durationTicks": 24,
          "midi": 63,
          "name": "D#4",
          "ticks": 2904,
          "time": 8.06667675,
          "velocity": 0.4881889763779528
        },
        {
          "duration": 0.06666674999999955,
          "durationTicks": 24,
          "midi": 47,
          "name": "B2",
          "ticks": 2904,
          "time": 8.06667675,
          "velocity": 0.4881889763779528
        },
        {
          "duration": 0.06666674999999955,
          "durationTicks": 24,
          "midi": 35,
          "name": "B1",
          "ticks": 2904,
          "time": 8.06667675,
          "velocity": 0.4881889763779528
        },
        {
          "duration": 0.06666674999999955,
          "durationTicks": 24,
          "midi": 23,
          "name": "B0",
          "ticks": 2904,
          "time": 8.06667675,
          "velocity": 0.4881889763779528
        },
        {
          "duration": 0.06666675000000133,
          "durationTicks": 24,
          "midi": 52,
          "name": "E3",
          "ticks": 2928,
          "time": 8.133343499999999,
          "velocity": 0.5433070866141733
        },
        {
          "duration": 0.06666675000000133,
          "durationTicks": 24,
          "midi": 64,
          "name": "E4",
          "ticks": 2928,
          "time": 8.133343499999999,
          "velocity": 0.5433070866141733
        },
        {
          "duration": 0.06666675000000133,
          "durationTicks": 24,
          "midi": 48,
          "name": "C3",
          "ticks": 2928,
          "time": 8.133343499999999,
          "velocity": 0.5433070866141733
        },
        {
          "duration": 0.06666675000000133,
          "durationTicks": 24,
          "midi": 36,
          "name": "C2",
          "ticks": 2928,
          "time": 8.133343499999999,
          "velocity": 0.5433070866141733
        },
        {
          "duration": 0.06666675000000133,
          "durationTicks": 24,
          "midi": 24,
          "name": "C1",
          "ticks": 2928,
          "time": 8.133343499999999,
          "velocity": 0.5433070866141733
        },
        {
          "duration": 0.06666674999999955,
          "durationTicks": 24,
          "midi": 52,
          "name": "E3",
          "ticks": 2952,
          "time": 8.20001025,
          "velocity": 0.5984251968503937
        },
        {
          "duration": 0.06666674999999955,
          "durationTicks": 24,
          "midi": 64,
          "name": "E4",
          "ticks": 2952,
          "time": 8.20001025,
          "velocity": 0.5984251968503937
        },
        {
          "duration": 0.06666674999999955,
          "durationTicks": 24,
          "midi": 49,
          "name": "C#3",
          "ticks": 2952,
          "time": 8.20001025,
          "velocity": 0.5984251968503937
        },
        {
          "duration": 0.06666674999999955,
          "durationTicks": 24,
          "midi": 37,
          "name": "C#2",
          "ticks": 2952,
          "time": 8.20001025,
          "velocity": 0.5984251968503937
        },
        {
          "duration": 0.06666674999999955,
          "durationTicks": 24,
          "midi": 25,
          "name": "C#1",
          "ticks": 2952,
          "time": 8.20001025,
          "velocity": 0.5984251968503937
        },
        {
          "duration": 0.06666674999999955,
          "durationTicks": 24,
          "midi": 53,
          "name": "F3",
          "ticks": 2976,
          "time": 8.266677,
          "velocity": 0.6456692913385826
        },
        {
          "duration": 0.06666674999999955,
          "durationTicks": 24,
          "midi": 65,
          "name": "F4",
          "ticks": 2976,
          "time": 8.266677,
          "velocity": 0.6456692913385826
        },
        {
          "duration": 0.06666674999999955,
          "durationTicks": 24,
          "midi": 50,
          "name": "D3",
          "ticks": 2976,
          "time": 8.266677,
          "velocity": 0.6456692913385826
        },
        {
          "duration": 0.06666674999999955,
          "durationTicks": 24,
          "midi": 38,
          "name": "D2",
          "ticks": 2976,
          "time": 8.266677,
          "velocity": 0.6456692913385826
        },
        {
          "duration": 0.06666674999999955,
          "durationTicks": 24,
          "midi": 26,
          "name": "D1",
          "ticks": 2976,
          "time": 8.266677,
          "velocity": 0.6456692913385826
        },
        {
          "duration": 0.06666675000000133,
          "durationTicks": 24,
          "midi": 53,
          "name": "F3",
          "ticks": 3000,
          "time": 8.33334375,
          "velocity": 0.7007874015748031
        },
        {
          "duration": 0.06666675000000133,
          "durationTicks": 24,
          "midi": 65,
          "name": "F4",
          "ticks": 3000,
          "time": 8.33334375,
          "velocity": 0.7007874015748031
        },
        {
          "duration": 0.06666675000000133,
          "durationTicks": 24,
          "midi": 51,
          "name": "D#3",
          "ticks": 3000,
          "time": 8.33334375,
          "velocity": 0.7007874015748031
        },
        {
          "duration": 0.06666675000000133,
          "durationTicks": 24,
          "midi": 39,
          "name": "D#2",
          "ticks": 3000,
          "time": 8.33334375,
          "velocity": 0.7007874015748031
        },
        {
          "duration": 0.06666675000000133,
          "durationTicks": 24,
          "midi": 27,
          "name": "D#1",
          "ticks": 3000,
          "time": 8.33334375,
          "velocity": 0.7007874015748031
        },
        {
          "duration": 0.06666674999999955,
          "durationTicks": 24,
          "midi": 54,
          "name": "F#3",
          "ticks": 3024,
          "time": 8.4000105,
          "velocity": 0.7480314960629921
        },
        {
          "duration": 0.06666674999999955,
          "durationTicks": 24,
          "midi": 66,
          "name": "F#4",
          "ticks": 3024,
          "time": 8.4000105,
          "velocity": 0.7480314960629921
        },
        {
          "duration": 0.06666674999999955,
          "durationTicks": 24,
          "midi": 52,
          "name": "E3",
          "ticks": 3024,
          "time": 8.4000105,
          "velocity": 0.7480314960629921
        },
        {
          "duration": 0.06666674999999955,
          "durationTicks": 24,
          "midi": 40,
          "name": "E2",
          "ticks": 3024,
          "time": 8.4000105,
          "velocity": 0.7480314960629921
        },
        {
          "duration": 0.06666674999999955,
          "durationTicks": 24,
          "midi": 28,
          "name": "E1",
          "ticks": 3024,
          "time": 8.4000105,
          "velocity": 0.7480314960629921
        },
        {
          "duration": 0.06666674999999955,
          "durationTicks": 24,
          "midi": 54,
          "name": "F#3",
          "ticks": 3048,
          "time": 8.46667725,
          "velocity": 0.8031496062992126
        },
        {
          "duration": 0.06666674999999955,
          "durationTicks": 24,
          "midi": 66,
          "name": "F#4",
          "ticks": 3048,
          "time": 8.46667725,
          "velocity": 0.8031496062992126
        },
        {
          "duration": 0.06666674999999955,
          "durationTicks": 24,
          "midi": 53,
          "name": "F3",
          "ticks": 3048,
          "time": 8.46667725,
          "velocity": 0.8031496062992126
        },
        {
          "duration": 0.06666674999999955,
          "durationTicks": 24,
          "midi": 41,
          "name": "F2",
          "ticks": 3048,
          "time": 8.46667725,
          "velocity": 0.8031496062992126
        },
        {
          "duration": 0.06666674999999955,
          "durationTicks": 24,
          "midi": 29,
          "name": "F1",
          "ticks": 3048,
          "time": 8.46667725,
          "velocity": 0.8031496062992126
        },
        {
          "duration": 0.1333334999999991,
          "durationTicks": 48,
          "midi": 27,
          "name": "D#1",
          "ticks": 4800,
          "time": 13.33335,
          "velocity": 0.5039370078740157
        },
        {
          "duration": 0.1333334999999991,
          "durationTicks": 48,
          "midi": 39,
          "name": "D#2",
          "ticks": 4800,
          "time": 13.33335,
          "velocity": 0.5039370078740157
        },
        {
          "duration": 0.13333350000000088,
          "durationTicks": 48,
          "midi": 28,
          "name": "E1",
          "ticks": 4848,
          "time": 13.466683499999998,
          "velocity": 0.5118110236220472
        },
        {
          "duration": 0.13333350000000088,
          "durationTicks": 48,
          "midi": 40,
          "name": "E2",
          "ticks": 4848,
          "time": 13.466683499999998,
          "velocity": 0.5118110236220472
        },
        {
          "duration": 0.13333350000000088,
          "durationTicks": 48,
          "midi": 29,
          "name": "F1",
          "ticks": 4896,
          "time": 13.600017,
          "velocity": 0.5196850393700787
        },
        {
          "duration": 0.13333350000000088,
          "durationTicks": 48,
          "midi": 41,
          "name": "F2",
          "ticks": 4896,
          "time": 13.600017,
          "velocity": 0.5196850393700787
        },
        {
          "duration": 0.1333334999999991,
          "durationTicks": 48,
          "midi": 42,
          "name": "F#2",
          "ticks": 4944,
          "time": 13.7333505,
          "velocity": 0.5354330708661418
        },
        {
          "duration": 0.1333334999999991,
          "durationTicks": 48,
          "midi": 30,
          "name": "F#1",
          "ticks": 4944,
          "time": 13.7333505,
          "velocity": 0.5354330708661418
        },
        {
          "duration": 0.1333334999999991,
          "durationTicks": 48,
          "midi": 31,
          "name": "G1",
          "ticks": 4992,
          "time": 13.866684,
          "velocity": 0.5433070866141733
        },
        {
          "duration": 0.1333334999999991,
          "durationTicks": 48,
          "midi": 43,
          "name": "G2",
          "ticks": 4992,
          "time": 13.866684,
          "velocity": 0.5433070866141733
        },
        {
          "duration": 0.13333350000000088,
          "durationTicks": 48,
          "midi": 44,
          "name": "G#2",
          "ticks": 5040,
          "time": 14.000017499999998,
          "velocity": 0.5511811023622047
        },
        {
          "duration": 0.13333350000000088,
          "durationTicks": 48,
          "midi": 32,
          "name": "G#1",
          "ticks": 5040,
          "time": 14.000017499999998,
          "velocity": 0.5511811023622047
        },
        {
          "duration": 0.13333350000000088,
          "durationTicks": 48,
          "midi": 45,
          "name": "A2",
          "ticks": 5088,
          "time": 14.133351,
          "velocity": 0.5590551181102362
        },
        {
          "duration": 0.13333350000000088,
          "durationTicks": 48,
          "midi": 33,
          "name": "A1",
          "ticks": 5088,
          "time": 14.133351,
          "velocity": 0.5590551181102362
        },
        {
          "duration": 0.1333334999999991,
          "durationTicks": 48,
          "midi": 46,
          "name": "A#2",
          "ticks": 5136,
          "time": 14.2666845,
          "velocity": 0.5748031496062992
        },
        {
          "duration": 0.1333334999999991,
          "durationTicks": 48,
          "midi": 34,
          "name": "A#1",
          "ticks": 5136,
          "time": 14.2666845,
          "velocity": 0.5748031496062992
        },
        {
          "duration": 0.1333334999999991,
          "durationTicks": 48,
          "midi": 35,
          "name": "B1",
          "ticks": 5184,
          "time": 14.400018,
          "velocity": 0.5826771653543307
        },
        {
          "duration": 0.1333334999999991,
          "durationTicks": 48,
          "midi": 47,
          "name": "B2",
          "ticks": 5184,
          "time": 14.400018,
          "velocity": 0.5826771653543307
        },
        {
          "duration": 0.13333350000000088,
          "durationTicks": 48,
          "midi": 48,
          "name": "C3",
          "ticks": 5232,
          "time": 14.533351499999998,
          "velocity": 0.5905511811023622
        },
        {
          "duration": 0.13333350000000088,
          "durationTicks": 48,
          "midi": 36,
          "name": "C2",
          "ticks": 5232,
          "time": 14.533351499999998,
          "velocity": 0.5905511811023622
        },
        {
          "duration": 0.13333350000000088,
          "durationTicks": 48,
          "midi": 49,
          "name": "C#3",
          "ticks": 5280,
          "time": 14.666685,
          "velocity": 0.5984251968503937
        },
        {
          "duration": 0.13333350000000088,
          "durationTicks": 48,
          "midi": 37,
          "name": "C#2",
          "ticks": 5280,
          "time": 14.666685,
          "velocity": 0.5984251968503937
        },
        {
          "duration": 0.1333334999999991,
          "durationTicks": 48,
          "midi": 38,
          "name": "D2",
          "ticks": 5328,
          "time": 14.8000185,
          "velocity": 0.6141732283464567
        },
        {
          "duration": 0.1333334999999991,
          "durationTicks": 48,
          "midi": 50,
          "name": "D3",
          "ticks": 5328,
          "time": 14.8000185,
          "velocity": 0.6141732283464567
        },
        {
          "duration": 0.1333334999999991,
          "durationTicks": 48,
          "midi": 39,
          "name": "D#2",
          "ticks": 5376,
          "time": 14.933352,
          "velocity": 0.6220472440944882
        },
        {
          "duration": 0.1333334999999991,
          "durationTicks": 48,
          "midi": 51,
          "name": "D#3",
          "ticks": 5376,
          "time": 14.933352,
          "velocity": 0.6220472440944882
        },
        {
          "duration": 0.13333350000000088,
          "durationTicks": 48,
          "midi": 40,
          "name": "E2",
          "ticks": 5424,
          "time": 15.066685499999998,
          "velocity": 0.6299212598425197
        },
        {
          "duration": 0.13333350000000088,
          "durationTicks": 48,
          "midi": 52,
          "name": "E3",
          "ticks": 5424,
          "time": 15.066685499999998,
          "velocity": 0.6299212598425197
        },
        {
          "duration": 0.13333350000000088,
          "durationTicks": 48,
          "midi": 41,
          "name": "F2",
          "ticks": 5472,
          "time": 15.200019,
          "velocity": 0.6456692913385826
        },
        {
          "duration": 0.13333350000000088,
          "durationTicks": 48,
          "midi": 53,
          "name": "F3",
          "ticks": 5472,
          "time": 15.200019,
          "velocity": 0.6456692913385826
        },
        {
          "duration": 0.1333334999999991,
          "durationTicks": 48,
          "midi": 54,
          "name": "F#3",
          "ticks": 5520,
          "time": 15.3333525,
          "velocity": 0.6535433070866141
        },
        {
          "duration": 0.1333334999999991,
          "durationTicks": 48,
          "midi": 42,
          "name": "F#2",
          "ticks": 5520,
          "time": 15.3333525,
          "velocity": 0.6535433070866141
        },
        {
          "duration": 0.06666674999999955,
          "durationTicks": 24,
          "midi": 27,
          "name": "D#1",
          "ticks": 5568,
          "time": 15.466686,
          "velocity": 0.48031496062992124
        },
        {
          "duration": 0.1333334999999991,
          "durationTicks": 48,
          "midi": 55,
          "name": "G3",
          "ticks": 5568,
          "time": 15.466686,
          "velocity": 0.6614173228346457
        },
        {
          "duration": 0.1333334999999991,
          "durationTicks": 48,
          "midi": 43,
          "name": "G2",
          "ticks": 5568,
          "time": 15.466686,
          "velocity": 0.6614173228346457
        },
        {
          "duration": 0.06666674999999955,
          "durationTicks": 24,
          "midi": 28,
          "name": "E1",
          "ticks": 5592,
          "time": 15.533352749999999,
          "velocity": 0.4881889763779528
        },
        {
          "duration": 0.06666675000000133,
          "durationTicks": 24,
          "midi": 29,
          "name": "F1",
          "ticks": 5616,
          "time": 15.600019499999998,
          "velocity": 0.5039370078740157
        },
        {
          "duration": 0.13333350000000088,
          "durationTicks": 48,
          "midi": 56,
          "name": "G#3",
          "ticks": 5616,
          "time": 15.600019499999998,
          "velocity": 0.6692913385826772
        },
        {
          "duration": 0.13333350000000088,
          "durationTicks": 48,
          "midi": 44,
          "name": "G#2",
          "ticks": 5616,
          "time": 15.600019499999998,
          "velocity": 0.6692913385826772
        },
        {
          "duration": 0.06666674999999955,
          "durationTicks": 24,
          "midi": 30,
          "name": "F#1",
          "ticks": 5640,
          "time": 15.66668625,
          "velocity": 0.5118110236220472
        },
        {
          "duration": 0.13333350000000088,
          "durationTicks": 48,
          "midi": 45,
          "name": "A2",
          "ticks": 5664,
          "time": 15.733353,
          "velocity": 0.6850393700787402
        },
        {
          "duration": 0.06666674999999955,
          "durationTicks": 24,
          "midi": 31,
          "name": "G1",
          "ticks": 5664,
          "time": 15.733353,
          "velocity": 0.5196850393700787
        },
        {
          "duration": 0.13333350000000088,
          "durationTicks": 48,
          "midi": 57,
          "name": "A3",
          "ticks": 5664,
          "time": 15.733353,
          "velocity": 0.6850393700787402
        },
        {
          "duration": 0.06666675000000133,
          "durationTicks": 24,
          "midi": 32,
          "name": "G#1",
          "ticks": 5688,
          "time": 15.800019749999999,
          "velocity": 0.5354330708661418
        },
        {
          "duration": 0.06666674999999955,
          "durationTicks": 24,
          "midi": 33,
          "name": "A1",
          "ticks": 5712,
          "time": 15.8666865,
          "velocity": 0.5433070866141733
        },
        {
          "duration": 0.1333334999999991,
          "durationTicks": 48,
          "midi": 58,
          "name": "A#3",
          "ticks": 5712,
          "time": 15.8666865,
          "velocity": 0.6929133858267716
        },
        {
          "duration": 0.1333334999999991,
          "durationTicks": 48,
          "midi": 46,
          "name": "A#2",
          "ticks": 5712,
          "time": 15.8666865,
          "velocity": 0.6929133858267716
        },
        {
          "duration": 0.06666674999999955,
          "durationTicks": 24,
          "midi": 34,
          "name": "A#1",
          "ticks": 5736,
          "time": 15.93335325,
          "velocity": 0.5511811023622047
        },
        {
          "duration": 0.06666674999999955,
          "durationTicks": 24,
          "midi": 35,
          "name": "B1",
          "ticks": 5760,
          "time": 16.00002,
          "velocity": 0.5669291338582677
        },
        {
          "duration": 0.1333334999999991,
          "durationTicks": 48,
          "midi": 47,
          "name": "B2",
          "ticks": 5760,
          "time": 16.00002,
          "velocity": 0.7007874015748031
        },
        {
          "duration": 0.1333334999999991,
          "durationTicks": 48,
          "midi": 59,
          "name": "B3",
          "ticks": 5760,
          "time": 16.00002,
          "velocity": 0.7007874015748031
        },
        {
          "duration": 0.06666674999999955,
          "durationTicks": 24,
          "midi": 36,
          "name": "C2",
          "ticks": 5784,
          "time": 16.06668675,
          "velocity": 0.5748031496062992
        },
        {
          "duration": 0.06666674999999955,
          "durationTicks": 24,
          "midi": 37,
          "name": "C#2",
          "ticks": 5808,
          "time": 16.1333535,
          "velocity": 0.5905511811023622
        },
        {
          "duration": 0.1333334999999991,
          "durationTicks": 48,
          "midi": 48,
          "name": "C3",
          "ticks": 5808,
          "time": 16.1333535,
          "velocity": 0.7165354330708661
        },
        {
          "duration": 0.1333334999999991,
          "durationTicks": 48,
          "midi": 60,
          "name": "C4",
          "ticks": 5808,
          "time": 16.1333535,
          "velocity": 0.7165354330708661
        },
        {
          "duration": 0.06666674999999955,
          "durationTicks": 24,
          "midi": 38,
          "name": "D2",
          "ticks": 5832,
          "time": 16.200020249999998,
          "velocity": 0.5984251968503937
        },
        {
          "duration": 0.0666667500000031,
          "durationTicks": 24,
          "midi": 39,
          "name": "D#2",
          "ticks": 5856,
          "time": 16.266686999999997,
          "velocity": 0.6062992125984252
        },
        {
          "duration": 0.13333350000000266,
          "durationTicks": 48,
          "midi": 61,
          "name": "C#4",
          "ticks": 5856,
          "time": 16.266686999999997,
          "velocity": 0.7244094488188977
        },
        {
          "duration": 0.13333350000000266,
          "durationTicks": 48,
          "midi": 49,
          "name": "C#3",
          "ticks": 5856,
          "time": 16.266686999999997,
          "velocity": 0.7244094488188977
        },
        {
          "duration": 0.06666674999999955,
          "durationTicks": 24,
          "midi": 40,
          "name": "E2",
          "ticks": 5880,
          "time": 16.33335375,
          "velocity": 0.6220472440944882
        },
        {
          "duration": 0.06666674999999955,
          "durationTicks": 24,
          "midi": 41,
          "name": "F2",
          "ticks": 5904,
          "time": 16.4000205,
          "velocity": 0.6299212598425197
        },
        {
          "duration": 0.1333334999999991,
          "durationTicks": 48,
          "midi": 62,
          "name": "D4",
          "ticks": 5904,
          "time": 16.4000205,
          "velocity": 0.7322834645669292
        },
        {
          "duration": 0.1333334999999991,
          "durationTicks": 48,
          "midi": 50,
          "name": "D3",
          "ticks": 5904,
          "time": 16.4000205,
          "velocity": 0.7322834645669292
        },
        {
          "duration": 0.06666674999999955,
          "durationTicks": 24,
          "midi": 42,
          "name": "F#2",
          "ticks": 5928,
          "time": 16.46668725,
          "velocity": 0.6377952755905512
        },
        {
          "duration": 0.1333334999999991,
          "durationTicks": 48,
          "midi": 51,
          "name": "D#3",
          "ticks": 5952,
          "time": 16.533354,
          "velocity": 0.7401574803149606
        },
        {
          "duration": 0.06666674999999955,
          "durationTicks": 24,
          "midi": 43,
          "name": "G2",
          "ticks": 5952,
          "time": 16.533354,
          "velocity": 0.6535433070866141
        },
        {
          "duration": 0.1333334999999991,
          "durationTicks": 48,
          "midi": 63,
          "name": "D#4",
          "ticks": 5952,
          "time": 16.533354,
          "velocity": 0.7401574803149606
        },
        {
          "duration": 0.06666674999999955,
          "durationTicks": 24,
          "midi": 44,
          "name": "G#2",
          "ticks": 5976,
          "time": 16.60002075,
          "velocity": 0.6614173228346457
        },
        {
          "duration": 0.13333350000000266,
          "durationTicks": 48,
          "midi": 64,
          "name": "E4",
          "ticks": 6000,
          "time": 16.6666875,
          "velocity": 0.7559055118110236
        },
        {
          "duration": 0.13333350000000266,
          "durationTicks": 48,
          "midi": 52,
          "name": "E3",
          "ticks": 6000,
          "time": 16.6666875,
          "velocity": 0.7559055118110236
        },
        {
          "duration": 0.06666674999999955,
          "durationTicks": 24,
          "midi": 45,
          "name": "A2",
          "ticks": 6000,
          "time": 16.6666875,
          "velocity": 0.6692913385826772
        },
        {
          "duration": 0.0666667500000031,
          "durationTicks": 24,
          "midi": 46,
          "name": "A#2",
          "ticks": 6024,
          "time": 16.733354249999998,
          "velocity": 0.6850393700787402
        },
        {
          "duration": 0.06666674999999955,
          "durationTicks": 24,
          "midi": 47,
          "name": "B2",
          "ticks": 6048,
          "time": 16.800021,
          "velocity": 0.6929133858267716
        },
        {
          "duration": 0.1333334999999991,
          "durationTicks": 48,
          "midi": 65,
          "name": "F4",
          "ticks": 6048,
          "time": 16.800021,
          "velocity": 0.7637795275590551
        },
        {
          "duration": 0.1333334999999991,
          "durationTicks": 48,
          "midi": 53,
          "name": "F3",
          "ticks": 6048,
          "time": 16.800021,
          "velocity": 0.7637795275590551
        },
        {
          "duration": 0.06666674999999955,
          "durationTicks": 24,
          "midi": 48,
          "name": "C3",
          "ticks": 6072,
          "time": 16.86668775,
          "velocity": 0.7007874015748031
        },
        {
          "duration": 0.1333334999999991,
          "durationTicks": 48,
          "midi": 54,
          "name": "F#3",
          "ticks": 6096,
          "time": 16.9333545,
          "velocity": 0.7716535433070866
        },
        {
          "duration": 0.06666674999999955,
          "durationTicks": 24,
          "midi": 49,
          "name": "C#3",
          "ticks": 6096,
          "time": 16.9333545,
          "velocity": 0.7165354330708661
        },
        {
          "duration": 0.1333334999999991,
          "durationTicks": 48,
          "midi": 66,
          "name": "F#4",
          "ticks": 6096,
          "time": 16.9333545,
          "velocity": 0.7716535433070866
        },
        {
          "duration": 0.06666674999999955,
          "durationTicks": 24,
          "midi": 50,
          "name": "D3",
          "ticks": 6120,
          "time": 17.00002125,
          "velocity": 0.7244094488188977
        },
        {
          "duration": 0.1333334999999991,
          "durationTicks": 48,
          "midi": 55,
          "name": "G3",
          "ticks": 6144,
          "time": 17.066688,
          "velocity": 0.7795275590551181
        },
        {
          "duration": 0.06666674999999955,
          "durationTicks": 24,
          "midi": 51,
          "name": "D#3",
          "ticks": 6144,
          "time": 17.066688,
          "velocity": 0.7322834645669292
        },
        {
          "duration": 0.1333334999999991,
          "durationTicks": 48,
          "midi": 67,
          "name": "G4",
          "ticks": 6144,
          "time": 17.066688,
          "velocity": 0.7795275590551181
        },
        {
          "duration": 0.06666674999999955,
          "durationTicks": 24,
          "midi": 52,
          "name": "E3",
          "ticks": 6168,
          "time": 17.13335475,
          "velocity": 0.7480314960629921
        },
        {
          "duration": 0.1333334999999991,
          "durationTicks": 48,
          "midi": 68,
          "name": "G#4",
          "ticks": 6192,
          "time": 17.2000215,
          "velocity": 0.7952755905511811
        },
        {
          "duration": 0.1333334999999991,
          "durationTicks": 48,
          "midi": 56,
          "name": "G#3",
          "ticks": 6192,
          "time": 17.2000215,
          "velocity": 0.7952755905511811
        },
        {
          "duration": 0.06666674999999955,
          "durationTicks": 24,
          "midi": 53,
          "name": "F3",
          "ticks": 6192,
          "time": 17.2000215,
          "velocity": 0.7559055118110236
        },
        {
          "duration": 0.06666674999999955,
          "durationTicks": 24,
          "midi": 54,
          "name": "F#3",
          "ticks": 6216,
          "time": 17.266688249999998,
          "velocity": 0.7716535433070866
        },
        {
          "duration": 0.0666667500000031,
          "durationTicks": 24,
          "midi": 55,
          "name": "G3",
          "ticks": 6240,
          "time": 17.333354999999997,
          "velocity": 0.7795275590551181
        },
        {
          "duration": 0.13333350000000266,
          "durationTicks": 48,
          "midi": 69,
          "name": "A4",
          "ticks": 6240,
          "time": 17.333354999999997,
          "velocity": 0.8031496062992126
        },
        {
          "duration": 0.13333350000000266,
          "durationTicks": 48,
          "midi": 57,
          "name": "A3",
          "ticks": 6240,
          "time": 17.333354999999997,
          "velocity": 0.8031496062992126
        },
        {
          "duration": 0.06666674999999955,
          "durationTicks": 24,
          "midi": 56,
          "name": "G#3",
          "ticks": 6264,
          "time": 17.40002175,
          "velocity": 0.7874015748031497
        },
        {
          "duration": 0.1333334999999991,
          "durationTicks": 48,
          "midi": 70,
          "name": "A#4",
          "ticks": 6288,
          "time": 17.4666885,
          "velocity": 0.8110236220472441
        },
        {
          "duration": 0.06666674999999955,
          "durationTicks": 24,
          "midi": 57,
          "name": "A3",
          "ticks": 6288,
          "time": 17.4666885,
          "velocity": 0.8031496062992126
        },
        {
          "duration": 0.1333334999999991,
          "durationTicks": 48,
          "midi": 58,
          "name": "A#3",
          "ticks": 6288,
          "time": 17.4666885,
          "velocity": 0.8110236220472441
        },
        {
          "duration": 0.06666674999999955,
          "durationTicks": 24,
          "midi": 58,
          "name": "A#3",
          "ticks": 6312,
          "time": 17.53335525,
          "velocity": 0.8110236220472441
        },
        {
          "duration": 0.06666674999999955,
          "durationTicks": 24,
          "midi": 39,
          "name": "D#2",
          "ticks": 8640,
          "time": 24.00003,
          "velocity": 0.4015748031496063
        },
        {
          "duration": 0.06666674999999955,
          "durationTicks": 24,
          "midi": 27,
          "name": "D#1",
          "ticks": 8640,
          "time": 24.00003,
          "velocity": 0.4015748031496063
        },
        {
          "duration": 0.06666674999999955,
          "durationTicks": 24,
          "midi": 40,
          "name": "E2",
          "ticks": 8664,
          "time": 24.06669675,
          "velocity": 0.4566929133858268
        },
        {
          "duration": 0.06666674999999955,
          "durationTicks": 24,
          "midi": 28,
          "name": "E1",
          "ticks": 8664,
          "time": 24.06669675,
          "velocity": 0.4566929133858268
        },
        {
          "duration": 0.06666674999999955,
          "durationTicks": 24,
          "midi": 41,
          "name": "F2",
          "ticks": 8688,
          "time": 24.133363499999998,
          "velocity": 0.5118110236220472
        },
        {
          "duration": 0.06666674999999955,
          "durationTicks": 24,
          "midi": 29,
          "name": "F1",
          "ticks": 8688,
          "time": 24.133363499999998,
          "velocity": 0.5118110236220472
        },
        {
          "duration": 0.0666667500000031,
          "durationTicks": 24,
          "midi": 30,
          "name": "F#1",
          "ticks": 8712,
          "time": 24.200030249999998,
          "velocity": 0.5669291338582677
        },
        {
          "duration": 0.0666667500000031,
          "durationTicks": 24,
          "midi": 42,
          "name": "F#2",
          "ticks": 8712,
          "time": 24.200030249999998,
          "velocity": 0.5669291338582677
        },
        {
          "duration": 0.06666674999999955,
          "durationTicks": 24,
          "midi": 31,
          "name": "G1",
          "ticks": 8736,
          "time": 24.266697,
          "velocity": 0.6220472440944882
        },
        {
          "duration": 0.06666674999999955,
          "durationTicks": 24,
          "midi": 43,
          "name": "G2",
          "ticks": 8736,
          "time": 24.266697,
          "velocity": 0.6220472440944882
        },
        {
          "duration": 0.06666674999999955,
          "durationTicks": 24,
          "midi": 32,
          "name": "G#1",
          "ticks": 8760,
          "time": 24.33336375,
          "velocity": 0.6771653543307087
        },
        {
          "duration": 0.06666674999999955,
          "durationTicks": 24,
          "midi": 44,
          "name": "G#2",
          "ticks": 8760,
          "time": 24.33336375,
          "velocity": 0.6771653543307087
        },
        {
          "duration": 0.06666674999999955,
          "durationTicks": 24,
          "midi": 33,
          "name": "A1",
          "ticks": 8784,
          "time": 24.4000305,
          "velocity": 0.7322834645669292
        },
        {
          "duration": 0.06666674999999955,
          "durationTicks": 24,
          "midi": 45,
          "name": "A2",
          "ticks": 8784,
          "time": 24.4000305,
          "velocity": 0.7322834645669292
        },
        {
          "duration": 0.06666674999999955,
          "durationTicks": 24,
          "midi": 46,
          "name": "A#2",
          "ticks": 8808,
          "time": 24.46669725,
          "velocity": 0.7874015748031497
        },
        {
          "duration": 0.06666674999999955,
          "durationTicks": 24,
          "midi": 34,
          "name": "A#1",
          "ticks": 8808,
          "time": 24.46669725,
          "velocity": 0.7874015748031497
        },
        {
          "duration": 0.1333334999999991,
          "durationTicks": 48,
          "midi": 31,
          "name": "G1",
          "ticks": 8880,
          "time": 24.666697499999998,
          "velocity": 0.3543307086614173
        },
        {
          "duration": 0.13333350000000266,
          "durationTicks": 48,
          "midi": 32,
          "name": "G#1",
          "ticks": 8928,
          "time": 24.800030999999997,
          "velocity": 0.3858267716535433
        },
        {
          "duration": 0.1333334999999991,
          "durationTicks": 48,
          "midi": 33,
          "name": "A1",
          "ticks": 8976,
          "time": 24.9333645,
          "velocity": 0.4251968503937008
        },
        {
          "duration": 0.1333334999999991,
          "durationTicks": 48,
          "midi": 34,
          "name": "A#1",
          "ticks": 9024,
          "time": 25.066698,
          "velocity": 0.4566929133858268
        },
        {
          "duration": 0.13333350000000266,
          "durationTicks": 48,
          "midi": 35,
          "name": "B1",
          "ticks": 9072,
          "time": 25.200031499999998,
          "velocity": 0.49606299212598426
        },
        {
          "duration": 0.1333334999999991,
          "durationTicks": 48,
          "midi": 36,
          "name": "C2",
          "ticks": 9120,
          "time": 25.333365,
          "velocity": 0.5275590551181102
        },
        {
          "duration": 0.1333334999999991,
          "durationTicks": 48,
          "midi": 37,
          "name": "C#2",
          "ticks": 9168,
          "time": 25.4666985,
          "velocity": 0.5669291338582677
        },
        {
          "duration": 0.1333334999999991,
          "durationTicks": 48,
          "midi": 38,
          "name": "D2",
          "ticks": 9216,
          "time": 25.600032,
          "velocity": 0.5984251968503937
        },
        {
          "duration": 0.1333334999999991,
          "durationTicks": 48,
          "midi": 39,
          "name": "D#2",
          "ticks": 9264,
          "time": 25.733365499999998,
          "velocity": 0.6377952755905512
        },
        {
          "duration": 0.13333350000000266,
          "durationTicks": 48,
          "midi": 40,
          "name": "E2",
          "ticks": 9312,
          "time": 25.866698999999997,
          "velocity": 0.6692913385826772
        },
        {
          "duration": 0.1333334999999991,
          "durationTicks": 48,
          "midi": 41,
          "name": "F2",
          "ticks": 9360,
          "time": 26.0000325,
          "velocity": 0.7086614173228346
        },
        {
          "duration": 0.1333334999999991,
          "durationTicks": 48,
          "midi": 28,
          "name": "E1",
          "ticks": 11184,
          "time": 31.066705499999998,
          "velocity": 0.5118110236220472
        },
        {
          "duration": 0.13333350000000266,
          "durationTicks": 48,
          "midi": 29,
          "name": "F1",
          "ticks": 11232,
          "time": 31.200038999999997,
          "velocity": 0.5275590551181102
        },
        {
          "duration": 0.1333334999999991,
          "durationTicks": 48,
          "midi": 30,
          "name": "F#1",
          "ticks": 11280,
          "time": 31.3333725,
          "velocity": 0.5354330708661418
        },
        {
          "duration": 0.1333334999999991,
          "durationTicks": 48,
          "midi": 31,
          "name": "G1",
          "ticks": 11328,
          "time": 31.466706,
          "velocity": 0.5511811023622047
        },
        {
          "duration": 0.13333350000000266,
          "durationTicks": 48,
          "midi": 32,
          "name": "G#1",
          "ticks": 11376,
          "time": 31.600039499999998,
          "velocity": 0.5669291338582677
        },
        {
          "duration": 0.1333334999999991,
          "durationTicks": 48,
          "midi": 33,
          "name": "A1",
          "ticks": 11424,
          "time": 31.733373,
          "velocity": 0.5748031496062992
        },
        {
          "duration": 0.1333334999999991,
          "durationTicks": 48,
          "midi": 34,
          "name": "A#1",
          "ticks": 11472,
          "time": 31.8667065,
          "velocity": 0.5905511811023622
        },
        {
          "duration": 0.1333334999999991,
          "durationTicks": 48,
          "midi": 35,
          "name": "B1",
          "ticks": 11520,
          "time": 32.00004,
          "velocity": 0.6062992125984252
        },
        {
          "duration": 0.1333334999999991,
          "durationTicks": 48,
          "midi": 36,
          "name": "C2",
          "ticks": 11568,
          "time": 32.1333735,
          "velocity": 0.6141732283464567
        },
        {
          "duration": 0.1333334999999991,
          "durationTicks": 48,
          "midi": 37,
          "name": "C#2",
          "ticks": 11616,
          "time": 32.266707,
          "velocity": 0.6299212598425197
        },
        {
          "duration": 0.1333334999999991,
          "durationTicks": 48,
          "midi": 38,
          "name": "D2",
          "ticks": 11664,
          "time": 32.400040499999996,
          "velocity": 0.6456692913385826
        },
        {
          "duration": 0.1333335000000062,
          "durationTicks": 48,
          "midi": 39,
          "name": "D#2",
          "ticks": 11712,
          "time": 32.533373999999995,
          "velocity": 0.6535433070866141
        },
        {
          "duration": 0.1333334999999991,
          "durationTicks": 48,
          "midi": 40,
          "name": "E2",
          "ticks": 11760,
          "time": 32.6667075,
          "velocity": 0.6692913385826772
        },
        {
          "duration": 0.1333334999999991,
          "durationTicks": 48,
          "midi": 41,
          "name": "F2",
          "ticks": 11808,
          "time": 32.800041,
          "velocity": 0.6850393700787402
        },
        {
          "duration": 0.1333334999999991,
          "durationTicks": 48,
          "midi": 42,
          "name": "F#2",
          "ticks": 11856,
          "time": 32.9333745,
          "velocity": 0.6929133858267716
        },
        {
          "duration": 0.1333334999999991,
          "durationTicks": 48,
          "midi": 43,
          "name": "G2",
          "ticks": 11904,
          "time": 33.066708,
          "velocity": 0.7086614173228346
        },
        {
          "duration": 0.1333334999999991,
          "durationTicks": 48,
          "midi": 44,
          "name": "G#2",
          "ticks": 11952,
          "time": 33.2000415,
          "velocity": 0.7244094488188977
        },
        {
          "duration": 0.1333334999999991,
          "durationTicks": 48,
          "midi": 45,
          "name": "A2",
          "ticks": 12000,
          "time": 33.333375,
          "velocity": 0.7322834645669292
        },
        {
          "duration": 0.1333335000000062,
          "durationTicks": 48,
          "midi": 46,
          "name": "A#2",
          "ticks": 12048,
          "time": 33.466708499999996,
          "velocity": 0.7480314960629921
        },
        {
          "duration": 0.1333334999999991,
          "durationTicks": 48,
          "midi": 47,
          "name": "B2",
          "ticks": 12096,
          "time": 33.600042,
          "velocity": 0.7637795275590551
        },
        {
          "duration": 0.1333334999999991,
          "durationTicks": 48,
          "midi": 48,
          "name": "C3",
          "ticks": 12144,
          "time": 33.7333755,
          "velocity": 0.7716535433070866
        },
        {
          "duration": 0.1333334999999991,
          "durationTicks": 48,
          "midi": 49,
          "name": "C#3",
          "ticks": 12192,
          "time": 33.866709,
          "velocity": 0.7874015748031497
        },
        {
          "duration": 0.1333334999999991,
          "durationTicks": 48,
          "midi": 50,
          "name": "D3",
          "ticks": 12240,
          "time": 34.0000425,
          "velocity": 0.8031496062992126
        },
        {
          "duration": 0.033333374999998,
          "durationTicks": 12,
          "midi": 30,
          "name": "F#1",
          "ticks": 15312,
          "time": 42.5333865,
          "velocity": 0.7795275590551181
        },
        {
          "duration": 0.033333374999998,
          "durationTicks": 12,
          "midi": 42,
          "name": "F#2",
          "ticks": 15360,
          "time": 42.66672,
          "velocity": 0.7559055118110236
        },
        {
          "duration": 0.033333374999998,
          "durationTicks": 12,
          "midi": 41,
          "name": "F2",
          "ticks": 15600,
          "time": 43.3333875,
          "velocity": 0.6771653543307087
        },
        {
          "duration": 0.033333374999998,
          "durationTicks": 12,
          "midi": 41,
          "name": "F2",
          "ticks": 15696,
          "time": 43.6000545,
          "velocity": 0.6771653543307087
        },
        {
          "duration": 0.033333374999998,
          "durationTicks": 12,
          "midi": 33,
          "name": "A1",
          "ticks": 15792,
          "time": 43.8667215,
          "velocity": 0.7244094488188977
        },
        {
          "duration": 0.033333375000005105,
          "durationTicks": 12,
          "midi": 45,
          "name": "A2",
          "ticks": 15840,
          "time": 44.000054999999996,
          "velocity": 0.8031496062992126
        },
        {
          "duration": 0.033333374999998,
          "durationTicks": 12,
          "midi": 44,
          "name": "G#2",
          "ticks": 16080,
          "time": 44.6667225,
          "velocity": 0.7165354330708661
        },
        {
          "duration": 0.033333374999998,
          "durationTicks": 12,
          "midi": 44,
          "name": "G#2",
          "ticks": 16176,
          "time": 44.9333895,
          "velocity": 0.7165354330708661
        },
        {
          "duration": 0.0666667500000031,
          "durationTicks": 24,
          "midi": 25,
          "name": "C#1",
          "ticks": 17808,
          "time": 49.466728499999995,
          "velocity": 0.5039370078740157
        },
        {
          "duration": 0.0666667500000031,
          "durationTicks": 24,
          "midi": 37,
          "name": "C#2",
          "ticks": 17808,
          "time": 49.466728499999995,
          "velocity": 0.5039370078740157
        },
        {
          "duration": 0.066666749999996,
          "durationTicks": 24,
          "midi": 26,
          "name": "D1",
          "ticks": 17832,
          "time": 49.53339525,
          "velocity": 0.5118110236220472
        },
        {
          "duration": 0.066666749999996,
          "durationTicks": 24,
          "midi": 38,
          "name": "D2",
          "ticks": 17832,
          "time": 49.53339525,
          "velocity": 0.5118110236220472
        },
        {
          "duration": 0.0666667500000031,
          "durationTicks": 24,
          "midi": 39,
          "name": "D#2",
          "ticks": 17856,
          "time": 49.600061999999994,
          "velocity": 0.5275590551181102
        },
        {
          "duration": 0.0666667500000031,
          "durationTicks": 24,
          "midi": 27,
          "name": "D#1",
          "ticks": 17856,
          "time": 49.600061999999994,
          "velocity": 0.5275590551181102
        },
        {
          "duration": 0.0666667500000031,
          "durationTicks": 24,
          "midi": 28,
          "name": "E1",
          "ticks": 17880,
          "time": 49.66672875,
          "velocity": 0.5354330708661418
        },
        {
          "duration": 0.0666667500000031,
          "durationTicks": 24,
          "midi": 40,
          "name": "E2",
          "ticks": 17880,
          "time": 49.66672875,
          "velocity": 0.5354330708661418
        },
        {
          "duration": 0.066666749999996,
          "durationTicks": 24,
          "midi": 29,
          "name": "F1",
          "ticks": 17904,
          "time": 49.7333955,
          "velocity": 0.5433070866141733
        },
        {
          "duration": 0.066666749999996,
          "durationTicks": 24,
          "midi": 41,
          "name": "F2",
          "ticks": 17904,
          "time": 49.7333955,
          "velocity": 0.5433070866141733
        },
        {
          "duration": 0.0666667500000031,
          "durationTicks": 24,
          "midi": 42,
          "name": "F#2",
          "ticks": 17928,
          "time": 49.800062249999996,
          "velocity": 0.5511811023622047
        },
        {
          "duration": 0.0666667500000031,
          "durationTicks": 24,
          "midi": 30,
          "name": "F#1",
          "ticks": 17928,
          "time": 49.800062249999996,
          "velocity": 0.5511811023622047
        },
        {
          "duration": 0.066666749999996,
          "durationTicks": 24,
          "midi": 43,
          "name": "G2",
          "ticks": 17952,
          "time": 49.866729,
          "velocity": 0.5669291338582677
        },
        {
          "duration": 0.066666749999996,
          "durationTicks": 24,
          "midi": 31,
          "name": "G1",
          "ticks": 17952,
          "time": 49.866729,
          "velocity": 0.5669291338582677
        },
        {
          "duration": 0.0666667500000031,
          "durationTicks": 24,
          "midi": 32,
          "name": "G#1",
          "ticks": 17976,
          "time": 49.933395749999995,
          "velocity": 0.5748031496062992
        },
        {
          "duration": 0.0666667500000031,
          "durationTicks": 24,
          "midi": 44,
          "name": "G#2",
          "ticks": 17976,
          "time": 49.933395749999995,
          "velocity": 0.5748031496062992
        },
        {
          "duration": 0.066666749999996,
          "durationTicks": 24,
          "midi": 33,
          "name": "A1",
          "ticks": 18000,
          "time": 50.0000625,
          "velocity": 0.5826771653543307
        },
        {
          "duration": 0.066666749999996,
          "durationTicks": 24,
          "midi": 45,
          "name": "A2",
          "ticks": 18000,
          "time": 50.0000625,
          "velocity": 0.5826771653543307
        },
        {
          "duration": 0.0666667500000031,
          "durationTicks": 24,
          "midi": 34,
          "name": "A#1",
          "ticks": 18024,
          "time": 50.066729249999995,
          "velocity": 0.5905511811023622
        },
        {
          "duration": 0.0666667500000031,
          "durationTicks": 24,
          "midi": 46,
          "name": "A#2",
          "ticks": 18024,
          "time": 50.066729249999995,
          "velocity": 0.5905511811023622
        },
        {
          "duration": 0.0666667500000031,
          "durationTicks": 24,
          "midi": 47,
          "name": "B2",
          "ticks": 18048,
          "time": 50.133396,
          "velocity": 0.6062992125984252
        },
        {
          "duration": 0.0666667500000031,
          "durationTicks": 24,
          "midi": 35,
          "name": "B1",
          "ticks": 18048,
          "time": 50.133396,
          "velocity": 0.6062992125984252
        },
        {
          "duration": 0.066666749999996,
          "durationTicks": 24,
          "midi": 48,
          "name": "C3",
          "ticks": 18072,
          "time": 50.20006275,
          "velocity": 0.6141732283464567
        },
        {
          "duration": 0.066666749999996,
          "durationTicks": 24,
          "midi": 36,
          "name": "C2",
          "ticks": 18072,
          "time": 50.20006275,
          "velocity": 0.6141732283464567
        },
        {
          "duration": 0.0666667500000031,
          "durationTicks": 24,
          "midi": 49,
          "name": "C#3",
          "ticks": 18096,
          "time": 50.2667295,
          "velocity": 0.6220472440944882
        },
        {
          "duration": 0.0666667500000031,
          "durationTicks": 24,
          "midi": 37,
          "name": "C#2",
          "ticks": 18096,
          "time": 50.2667295,
          "velocity": 0.6220472440944882
        },
        {
          "duration": 0.066666749999996,
          "durationTicks": 24,
          "midi": 38,
          "name": "D2",
          "ticks": 18120,
          "time": 50.33339625,
          "velocity": 0.6299212598425197
        },
        {
          "duration": 0.066666749999996,
          "durationTicks": 24,
          "midi": 50,
          "name": "D3",
          "ticks": 18120,
          "time": 50.33339625,
          "velocity": 0.6299212598425197
        },
        {
          "duration": 0.0666667500000031,
          "durationTicks": 24,
          "midi": 39,
          "name": "D#2",
          "ticks": 18144,
          "time": 50.400062999999996,
          "velocity": 0.6377952755905512
        },
        {
          "duration": 0.0666667500000031,
          "durationTicks": 24,
          "midi": 51,
          "name": "D#3",
          "ticks": 18144,
          "time": 50.400062999999996,
          "velocity": 0.6377952755905512
        },
        {
          "duration": 0.066666749999996,
          "durationTicks": 24,
          "midi": 52,
          "name": "E3",
          "ticks": 18168,
          "time": 50.46672975,
          "velocity": 0.6535433070866141
        },
        {
          "duration": 0.066666749999996,
          "durationTicks": 24,
          "midi": 40,
          "name": "E2",
          "ticks": 18168,
          "time": 50.46672975,
          "velocity": 0.6535433070866141
        },
        {
          "duration": 0.0666667500000031,
          "durationTicks": 24,
          "midi": 53,
          "name": "F3",
          "ticks": 18192,
          "time": 50.533396499999995,
          "velocity": 0.6614173228346457
        },
        {
          "duration": 0.0666667500000031,
          "durationTicks": 24,
          "midi": 41,
          "name": "F2",
          "ticks": 18192,
          "time": 50.533396499999995,
          "velocity": 0.6614173228346457
        },
        {
          "duration": 0.0666667500000031,
          "durationTicks": 24,
          "midi": 42,
          "name": "F#2",
          "ticks": 18216,
          "time": 50.60006325,
          "velocity": 0.6692913385826772
        },
        {
          "duration": 0.0666667500000031,
          "durationTicks": 24,
          "midi": 54,
          "name": "F#3",
          "ticks": 18216,
          "time": 50.60006325,
          "velocity": 0.6692913385826772
        },
        {
          "duration": 0.066666749999996,
          "durationTicks": 24,
          "midi": 55,
          "name": "G3",
          "ticks": 18240,
          "time": 50.66673,
          "velocity": 0.6771653543307087
        },
        {
          "duration": 0.066666749999996,
          "durationTicks": 24,
          "midi": 43,
          "name": "G2",
          "ticks": 18240,
          "time": 50.66673,
          "velocity": 0.6771653543307087
        },
        {
          "duration": 0.0666667500000031,
          "durationTicks": 24,
          "midi": 56,
          "name": "G#3",
          "ticks": 18264,
          "time": 50.73339675,
          "velocity": 0.6929133858267716
        },
        {
          "duration": 0.0666667500000031,
          "durationTicks": 24,
          "midi": 44,
          "name": "G#2",
          "ticks": 18264,
          "time": 50.73339675,
          "velocity": 0.6929133858267716
        },
        {
          "duration": 0.066666749999996,
          "durationTicks": 24,
          "midi": 57,
          "name": "A3",
          "ticks": 18288,
          "time": 50.8000635,
          "velocity": 0.7007874015748031
        },
        {
          "duration": 0.066666749999996,
          "durationTicks": 24,
          "midi": 45,
          "name": "A2",
          "ticks": 18288,
          "time": 50.8000635,
          "velocity": 0.7007874015748031
        },
        {
          "duration": 0.0666667500000031,
          "durationTicks": 24,
          "midi": 46,
          "name": "A#2",
          "ticks": 18312,
          "time": 50.866730249999996,
          "velocity": 0.7086614173228346
        },
        {
          "duration": 0.0666667500000031,
          "durationTicks": 24,
          "midi": 58,
          "name": "A#3",
          "ticks": 18312,
          "time": 50.866730249999996,
          "velocity": 0.7086614173228346
        },
        {
          "duration": 0.066666749999996,
          "durationTicks": 24,
          "midi": 47,
          "name": "B2",
          "ticks": 18336,
          "time": 50.933397,
          "velocity": 0.7165354330708661
        },
        {
          "duration": 0.066666749999996,
          "durationTicks": 24,
          "midi": 59,
          "name": "B3",
          "ticks": 18336,
          "time": 50.933397,
          "velocity": 0.7165354330708661
        },
        {
          "duration": 0.0666667500000031,
          "durationTicks": 24,
          "midi": 48,
          "name": "C3",
          "ticks": 18360,
          "time": 51.000063749999995,
          "velocity": 0.7322834645669292
        },
        {
          "duration": 0.0666667500000031,
          "durationTicks": 24,
          "midi": 60,
          "name": "C4",
          "ticks": 18360,
          "time": 51.000063749999995,
          "velocity": 0.7322834645669292
        },
        {
          "duration": 0.06666675000001021,
          "durationTicks": 24,
          "midi": 24,
          "name": "C1",
          "ticks": 24696,
          "time": 68.60008574999999,
          "velocity": 0.6141732283464567
        },
        {
          "duration": 0.06666675000001021,
          "durationTicks": 24,
          "midi": 36,
          "name": "C2",
          "ticks": 24696,
          "time": 68.60008574999999,
          "velocity": 0.6141732283464567
        },
        {
          "duration": 0.066666749999996,
          "durationTicks": 24,
          "midi": 37,
          "name": "C#2",
          "ticks": 24720,
          "time": 68.6667525,
          "velocity": 0.6220472440944882
        },
        {
          "duration": 0.066666749999996,
          "durationTicks": 24,
          "midi": 25,
          "name": "C#1",
          "ticks": 24720,
          "time": 68.6667525,
          "velocity": 0.6220472440944882
        },
        {
          "duration": 0.066666749999996,
          "durationTicks": 24,
          "midi": 26,
          "name": "D1",
          "ticks": 24744,
          "time": 68.73341925,
          "velocity": 0.6299212598425197
        },
        {
          "duration": 0.066666749999996,
          "durationTicks": 24,
          "midi": 38,
          "name": "D2",
          "ticks": 24744,
          "time": 68.73341925,
          "velocity": 0.6299212598425197
        },
        {
          "duration": 0.06666675000001021,
          "durationTicks": 24,
          "midi": 39,
          "name": "D#2",
          "ticks": 24768,
          "time": 68.800086,
          "velocity": 0.6377952755905512
        },
        {
          "duration": 0.06666675000001021,
          "durationTicks": 24,
          "midi": 27,
          "name": "D#1",
          "ticks": 24768,
          "time": 68.800086,
          "velocity": 0.6377952755905512
        },
        {
          "duration": 0.066666749999996,
          "durationTicks": 24,
          "midi": 40,
          "name": "E2",
          "ticks": 24792,
          "time": 68.86675275,
          "velocity": 0.6535433070866141
        },
        {
          "duration": 0.066666749999996,
          "durationTicks": 24,
          "midi": 28,
          "name": "E1",
          "ticks": 24792,
          "time": 68.86675275,
          "velocity": 0.6535433070866141
        },
        {
          "duration": 0.066666749999996,
          "durationTicks": 24,
          "midi": 41,
          "name": "F2",
          "ticks": 24816,
          "time": 68.9334195,
          "velocity": 0.6614173228346457
        },
        {
          "duration": 0.066666749999996,
          "durationTicks": 24,
          "midi": 29,
          "name": "F1",
          "ticks": 24816,
          "time": 68.9334195,
          "velocity": 0.6614173228346457
        },
        {
          "duration": 0.066666749999996,
          "durationTicks": 24,
          "midi": 42,
          "name": "F#2",
          "ticks": 24840,
          "time": 69.00008625,
          "velocity": 0.6692913385826772
        },
        {
          "duration": 0.066666749999996,
          "durationTicks": 24,
          "midi": 30,
          "name": "F#1",
          "ticks": 24840,
          "time": 69.00008625,
          "velocity": 0.6692913385826772
        },
        {
          "duration": 0.06666675000001021,
          "durationTicks": 24,
          "midi": 31,
          "name": "G1",
          "ticks": 24864,
          "time": 69.06675299999999,
          "velocity": 0.6850393700787402
        },
        {
          "duration": 0.06666675000001021,
          "durationTicks": 24,
          "midi": 43,
          "name": "G2",
          "ticks": 24864,
          "time": 69.06675299999999,
          "velocity": 0.6850393700787402
        },
        {
          "duration": 0.066666749999996,
          "durationTicks": 24,
          "midi": 32,
          "name": "G#1",
          "ticks": 24888,
          "time": 69.13341975,
          "velocity": 0.6929133858267716
        },
        {
          "duration": 0.066666749999996,
          "durationTicks": 24,
          "midi": 44,
          "name": "G#2",
          "ticks": 24888,
          "time": 69.13341975,
          "velocity": 0.6929133858267716
        },
        {
          "duration": 0.066666749999996,
          "durationTicks": 24,
          "midi": 45,
          "name": "A2",
          "ticks": 24912,
          "time": 69.2000865,
          "velocity": 0.7007874015748031
        },
        {
          "duration": 0.066666749999996,
          "durationTicks": 24,
          "midi": 33,
          "name": "A1",
          "ticks": 24912,
          "time": 69.2000865,
          "velocity": 0.7007874015748031
        },
        {
          "duration": 0.066666749999996,
          "durationTicks": 24,
          "midi": 34,
          "name": "A#1",
          "ticks": 24936,
          "time": 69.26675325,
          "velocity": 0.7086614173228346
        },
        {
          "duration": 0.066666749999996,
          "durationTicks": 24,
          "midi": 46,
          "name": "A#2",
          "ticks": 24936,
          "time": 69.26675325,
          "velocity": 0.7086614173228346
        },
        {
          "duration": 0.06666675000001021,
          "durationTicks": 24,
          "midi": 47,
          "name": "B2",
          "ticks": 24960,
          "time": 69.33341999999999,
          "velocity": 0.7244094488188977
        },
        {
          "duration": 0.06666675000001021,
          "durationTicks": 24,
          "midi": 35,
          "name": "B1",
          "ticks": 24960,
          "time": 69.33341999999999,
          "velocity": 0.7244094488188977
        },
        {
          "duration": 0.066666749999996,
          "durationTicks": 24,
          "midi": 36,
          "name": "C2",
          "ticks": 24984,
          "time": 69.40008675,
          "velocity": 0.7322834645669292
        },
        {
          "duration": 0.066666749999996,
          "durationTicks": 24,
          "midi": 48,
          "name": "C3",
          "ticks": 24984,
          "time": 69.40008675,
          "velocity": 0.7322834645669292
        },
        {
          "duration": 0.066666749999996,
          "durationTicks": 24,
          "midi": 49,
          "name": "C#3",
          "ticks": 25008,
          "time": 69.4667535,
          "velocity": 0.7401574803149606
        },
        {
          "duration": 0.066666749999996,
          "durationTicks": 24,
          "midi": 37,
          "name": "C#2",
          "ticks": 25008,
          "time": 69.4667535,
          "velocity": 0.7401574803149606
        },
        {
          "duration": 0.06666675000001021,
          "durationTicks": 24,
          "midi": 50,
          "name": "D3",
          "ticks": 25032,
          "time": 69.53342024999999,
          "velocity": 0.7480314960629921
        },
        {
          "duration": 0.06666675000001021,
          "durationTicks": 24,
          "midi": 38,
          "name": "D2",
          "ticks": 25032,
          "time": 69.53342024999999,
          "velocity": 0.7480314960629921
        },
        {
          "duration": 0.1333335000000062,
          "durationTicks": 48,
          "midi": 27,
          "name": "D#1",
          "ticks": 25440,
          "time": 70.666755,
          "velocity": 0.49606299212598426
        },
        {
          "duration": 0.1333335000000062,
          "durationTicks": 48,
          "midi": 39,
          "name": "D#2",
          "ticks": 25440,
          "time": 70.666755,
          "velocity": 0.49606299212598426
        },
        {
          "duration": 0.133333499999992,
          "durationTicks": 48,
          "midi": 28,
          "name": "E1",
          "ticks": 25488,
          "time": 70.8000885,
          "velocity": 0.5118110236220472
        },
        {
          "duration": 0.133333499999992,
          "durationTicks": 48,
          "midi": 40,
          "name": "E2",
          "ticks": 25488,
          "time": 70.8000885,
          "velocity": 0.5118110236220472
        },
        {
          "duration": 0.1333335000000062,
          "durationTicks": 48,
          "midi": 41,
          "name": "F2",
          "ticks": 25536,
          "time": 70.933422,
          "velocity": 0.5275590551181102
        },
        {
          "duration": 0.1333335000000062,
          "durationTicks": 48,
          "midi": 29,
          "name": "F1",
          "ticks": 25536,
          "time": 70.933422,
          "velocity": 0.5275590551181102
        },
        {
          "duration": 0.133333499999992,
          "durationTicks": 48,
          "midi": 42,
          "name": "F#2",
          "ticks": 25584,
          "time": 71.0667555,
          "velocity": 0.5354330708661418
        },
        {
          "duration": 0.133333499999992,
          "durationTicks": 48,
          "midi": 30,
          "name": "F#1",
          "ticks": 25584,
          "time": 71.0667555,
          "velocity": 0.5354330708661418
        },
        {
          "duration": 0.1333335000000062,
          "durationTicks": 48,
          "midi": 31,
          "name": "G1",
          "ticks": 25632,
          "time": 71.20008899999999,
          "velocity": 0.5511811023622047
        },
        {
          "duration": 0.1333335000000062,
          "durationTicks": 48,
          "midi": 43,
          "name": "G2",
          "ticks": 25632,
          "time": 71.20008899999999,
          "velocity": 0.5511811023622047
        },
        {
          "duration": 0.1333335000000062,
          "durationTicks": 48,
          "midi": 44,
          "name": "G#2",
          "ticks": 25680,
          "time": 71.3334225,
          "velocity": 0.5669291338582677
        },
        {
          "duration": 0.1333335000000062,
          "durationTicks": 48,
          "midi": 32,
          "name": "G#1",
          "ticks": 25680,
          "time": 71.3334225,
          "velocity": 0.5669291338582677
        },
        {
          "duration": 0.133333499999992,
          "durationTicks": 48,
          "midi": 33,
          "name": "A1",
          "ticks": 25728,
          "time": 71.466756,
          "velocity": 0.5748031496062992
        },
        {
          "duration": 0.133333499999992,
          "durationTicks": 48,
          "midi": 45,
          "name": "A2",
          "ticks": 25728,
          "time": 71.466756,
          "velocity": 0.5748031496062992
        },
        {
          "duration": 0.1333335000000062,
          "durationTicks": 48,
          "midi": 34,
          "name": "A#1",
          "ticks": 25776,
          "time": 71.6000895,
          "velocity": 0.5905511811023622
        },
        {
          "duration": 0.1333335000000062,
          "durationTicks": 48,
          "midi": 46,
          "name": "A#2",
          "ticks": 25776,
          "time": 71.6000895,
          "velocity": 0.5905511811023622
        },
        {
          "duration": 0.133333499999992,
          "durationTicks": 48,
          "midi": 35,
          "name": "B1",
          "ticks": 25824,
          "time": 71.733423,
          "velocity": 0.6062992125984252
        },
        {
          "duration": 0.133333499999992,
          "durationTicks": 48,
          "midi": 47,
          "name": "B2",
          "ticks": 25824,
          "time": 71.733423,
          "velocity": 0.6062992125984252
        },
        {
          "duration": 0.1333335000000062,
          "durationTicks": 48,
          "midi": 48,
          "name": "C3",
          "ticks": 25872,
          "time": 71.8667565,
          "velocity": 0.6141732283464567
        },
        {
          "duration": 0.1333335000000062,
          "durationTicks": 48,
          "midi": 36,
          "name": "C2",
          "ticks": 25872,
          "time": 71.8667565,
          "velocity": 0.6141732283464567
        },
        {
          "duration": 0.133333499999992,
          "durationTicks": 48,
          "midi": 49,
          "name": "C#3",
          "ticks": 25920,
          "time": 72.00009,
          "velocity": 0.6299212598425197
        },
        {
          "duration": 0.133333499999992,
          "durationTicks": 48,
          "midi": 37,
          "name": "C#2",
          "ticks": 25920,
          "time": 72.00009,
          "velocity": 0.6299212598425197
        },
        {
          "duration": 0.1333335000000062,
          "durationTicks": 48,
          "midi": 50,
          "name": "D3",
          "ticks": 25968,
          "time": 72.13342349999999,
          "velocity": 0.6456692913385826
        },
        {
          "duration": 0.1333335000000062,
          "durationTicks": 48,
          "midi": 38,
          "name": "D2",
          "ticks": 25968,
          "time": 72.13342349999999,
          "velocity": 0.6456692913385826
        },
        {
          "duration": 0.133333499999992,
          "durationTicks": 48,
          "midi": 39,
          "name": "D#2",
          "ticks": 26016,
          "time": 72.266757,
          "velocity": 0.6535433070866141
        },
        {
          "duration": 0.133333499999992,
          "durationTicks": 48,
          "midi": 51,
          "name": "D#3",
          "ticks": 26016,
          "time": 72.266757,
          "velocity": 0.6535433070866141
        },
        {
          "duration": 0.1333335000000062,
          "durationTicks": 48,
          "midi": 40,
          "name": "E2",
          "ticks": 26064,
          "time": 72.40009049999999,
          "velocity": 0.6692913385826772
        },
        {
          "duration": 0.1333335000000062,
          "durationTicks": 48,
          "midi": 52,
          "name": "E3",
          "ticks": 26064,
          "time": 72.40009049999999,
          "velocity": 0.6692913385826772
        },
        {
          "duration": 0.1333335000000062,
          "durationTicks": 48,
          "midi": 53,
          "name": "F3",
          "ticks": 26112,
          "time": 72.533424,
          "velocity": 0.6850393700787402
        },
        {
          "duration": 0.1333335000000062,
          "durationTicks": 48,
          "midi": 41,
          "name": "F2",
          "ticks": 26112,
          "time": 72.533424,
          "velocity": 0.6850393700787402
        },
        {
          "duration": 0.133333499999992,
          "durationTicks": 48,
          "midi": 54,
          "name": "F#3",
          "ticks": 26160,
          "time": 72.6667575,
          "velocity": 0.6929133858267716
        },
        {
          "duration": 0.133333499999992,
          "durationTicks": 48,
          "midi": 42,
          "name": "F#2",
          "ticks": 26160,
          "time": 72.6667575,
          "velocity": 0.6929133858267716
        },
        {
          "duration": 0.1333335000000062,
          "durationTicks": 48,
          "midi": 43,
          "name": "G2",
          "ticks": 26208,
          "time": 72.800091,
          "velocity": 0.7086614173228346
        },
        {
          "duration": 0.1333335000000062,
          "durationTicks": 48,
          "midi": 55,
          "name": "G3",
          "ticks": 26208,
          "time": 72.800091,
          "velocity": 0.7086614173228346
        },
        {
          "duration": 0.133333499999992,
          "durationTicks": 48,
          "midi": 56,
          "name": "G#3",
          "ticks": 26256,
          "time": 72.9334245,
          "velocity": 0.7244094488188977
        },
        {
          "duration": 0.133333499999992,
          "durationTicks": 48,
          "midi": 44,
          "name": "G#2",
          "ticks": 26256,
          "time": 72.9334245,
          "velocity": 0.7244094488188977
        },
        {
          "duration": 0.1333335000000062,
          "durationTicks": 48,
          "midi": 57,
          "name": "A3",
          "ticks": 26304,
          "time": 73.066758,
          "velocity": 0.7322834645669292
        },
        {
          "duration": 0.1333335000000062,
          "durationTicks": 48,
          "midi": 45,
          "name": "A2",
          "ticks": 26304,
          "time": 73.066758,
          "velocity": 0.7322834645669292
        },
        {
          "duration": 0.133333499999992,
          "durationTicks": 48,
          "midi": 58,
          "name": "A#3",
          "ticks": 26352,
          "time": 73.2000915,
          "velocity": 0.7480314960629921
        },
        {
          "duration": 0.133333499999992,
          "durationTicks": 48,
          "midi": 46,
          "name": "A#2",
          "ticks": 26352,
          "time": 73.2000915,
          "velocity": 0.7480314960629921
        },
        {
          "duration": 0.1333335000000062,
          "durationTicks": 48,
          "midi": 47,
          "name": "B2",
          "ticks": 26400,
          "time": 73.33342499999999,
          "velocity": 0.7637795275590551
        },
        {
          "duration": 0.1333335000000062,
          "durationTicks": 48,
          "midi": 59,
          "name": "B3",
          "ticks": 26400,
          "time": 73.33342499999999,
          "velocity": 0.7637795275590551
        },
        {
          "duration": 0.133333499999992,
          "durationTicks": 48,
          "midi": 60,
          "name": "C4",
          "ticks": 26448,
          "time": 73.4667585,
          "velocity": 0.7716535433070866
        },
        {
          "duration": 0.133333499999992,
          "durationTicks": 48,
          "midi": 48,
          "name": "C3",
          "ticks": 26448,
          "time": 73.4667585,
          "velocity": 0.7716535433070866
        },
        {
          "duration": 0.1333335000000062,
          "durationTicks": 48,
          "midi": 49,
          "name": "C#3",
          "ticks": 26496,
          "time": 73.60009199999999,
          "velocity": 0.7874015748031497
        },
        {
          "duration": 0.1333335000000062,
          "durationTicks": 48,
          "midi": 61,
          "name": "C#4",
          "ticks": 26496,
          "time": 73.60009199999999,
          "velocity": 0.7874015748031497
        },
        {
          "duration": 0.1333335000000062,
          "durationTicks": 48,
          "midi": 62,
          "name": "D4",
          "ticks": 26544,
          "time": 73.7334255,
          "velocity": 0.8031496062992126
        },
        {
          "duration": 0.1333335000000062,
          "durationTicks": 48,
          "midi": 50,
          "name": "D3",
          "ticks": 26544,
          "time": 73.7334255,
          "velocity": 0.8031496062992126
        },
        {
          "duration": 0.066666749999996,
          "durationTicks": 24,
          "midi": 22,
          "name": "A#0",
          "ticks": 26592,
          "time": 73.866759,
          "velocity": 0.4409448818897638
        },
        {
          "duration": 0.066666749999996,
          "durationTicks": 24,
          "midi": 34,
          "name": "A#1",
          "ticks": 26592,
          "time": 73.866759,
          "velocity": 0.4409448818897638
        },
        {
          "duration": 0.066666749999996,
          "durationTicks": 24,
          "midi": 46,
          "name": "A#2",
          "ticks": 26592,
          "time": 73.866759,
          "velocity": 0.4409448818897638
        },
        {
          "duration": 0.066666749999996,
          "durationTicks": 24,
          "midi": 63,
          "name": "D#4",
          "ticks": 26592,
          "time": 73.866759,
          "velocity": 0.4409448818897638
        },
        {
          "duration": 0.066666749999996,
          "durationTicks": 24,
          "midi": 51,
          "name": "D#3",
          "ticks": 26592,
          "time": 73.866759,
          "velocity": 0.4409448818897638
        },
        {
          "duration": 0.066666749999996,
          "durationTicks": 24,
          "midi": 23,
          "name": "B0",
          "ticks": 26616,
          "time": 73.93342575,
          "velocity": 0.4881889763779528
        },
        {
          "duration": 0.066666749999996,
          "durationTicks": 24,
          "midi": 35,
          "name": "B1",
          "ticks": 26616,
          "time": 73.93342575,
          "velocity": 0.4881889763779528
        },
        {
          "duration": 0.066666749999996,
          "durationTicks": 24,
          "midi": 47,
          "name": "B2",
          "ticks": 26616,
          "time": 73.93342575,
          "velocity": 0.4881889763779528
        },
        {
          "duration": 0.066666749999996,
          "durationTicks": 24,
          "midi": 63,
          "name": "D#4",
          "ticks": 26616,
          "time": 73.93342575,
          "velocity": 0.4881889763779528
        },
        {
          "duration": 0.066666749999996,
          "durationTicks": 24,
          "midi": 51,
          "name": "D#3",
          "ticks": 26616,
          "time": 73.93342575,
          "velocity": 0.4881889763779528
        },
        {
          "duration": 0.066666749999996,
          "durationTicks": 24,
          "midi": 24,
          "name": "C1",
          "ticks": 26640,
          "time": 74.0000925,
          "velocity": 0.5433070866141733
        },
        {
          "duration": 0.066666749999996,
          "durationTicks": 24,
          "midi": 36,
          "name": "C2",
          "ticks": 26640,
          "time": 74.0000925,
          "velocity": 0.5433070866141733
        },
        {
          "duration": 0.066666749999996,
          "durationTicks": 24,
          "midi": 48,
          "name": "C3",
          "ticks": 26640,
          "time": 74.0000925,
          "velocity": 0.5433070866141733
        },
        {
          "duration": 0.066666749999996,
          "durationTicks": 24,
          "midi": 64,
          "name": "E4",
          "ticks": 26640,
          "time": 74.0000925,
          "velocity": 0.5433070866141733
        },
        {
          "duration": 0.066666749999996,
          "durationTicks": 24,
          "midi": 52,
          "name": "E3",
          "ticks": 26640,
          "time": 74.0000925,
          "velocity": 0.5433070866141733
        },
        {
          "duration": 0.06666675000001021,
          "durationTicks": 24,
          "midi": 25,
          "name": "C#1",
          "ticks": 26664,
          "time": 74.06675924999999,
          "velocity": 0.5984251968503937
        },
        {
          "duration": 0.06666675000001021,
          "durationTicks": 24,
          "midi": 37,
          "name": "C#2",
          "ticks": 26664,
          "time": 74.06675924999999,
          "velocity": 0.5984251968503937
        },
        {
          "duration": 0.06666675000001021,
          "durationTicks": 24,
          "midi": 49,
          "name": "C#3",
          "ticks": 26664,
          "time": 74.06675924999999,
          "velocity": 0.5984251968503937
        },
        {
          "duration": 0.06666675000001021,
          "durationTicks": 24,
          "midi": 64,
          "name": "E4",
          "ticks": 26664,
          "time": 74.06675924999999,
          "velocity": 0.5984251968503937
        },
        {
          "duration": 0.06666675000001021,
          "durationTicks": 24,
          "midi": 52,
          "name": "E3",
          "ticks": 26664,
          "time": 74.06675924999999,
          "velocity": 0.5984251968503937
        },
        {
          "duration": 0.066666749999996,
          "durationTicks": 24,
          "midi": 53,
          "name": "F3",
          "ticks": 26688,
          "time": 74.133426,
          "velocity": 0.6456692913385826
        },
        {
          "duration": 0.066666749999996,
          "durationTicks": 24,
          "midi": 65,
          "name": "F4",
          "ticks": 26688,
          "time": 74.133426,
          "velocity": 0.6456692913385826
        },
        {
          "duration": 0.066666749999996,
          "durationTicks": 24,
          "midi": 50,
          "name": "D3",
          "ticks": 26688,
          "time": 74.133426,
          "velocity": 0.6456692913385826
        },
        {
          "duration": 0.066666749999996,
          "durationTicks": 24,
          "midi": 38,
          "name": "D2",
          "ticks": 26688,
          "time": 74.133426,
          "velocity": 0.6456692913385826
        },
        {
          "duration": 0.066666749999996,
          "durationTicks": 24,
          "midi": 26,
          "name": "D1",
          "ticks": 26688,
          "time": 74.133426,
          "velocity": 0.6456692913385826
        },
        {
          "duration": 0.066666749999996,
          "durationTicks": 24,
          "midi": 53,
          "name": "F3",
          "ticks": 26712,
          "time": 74.20009275,
          "velocity": 0.7007874015748031
        },
        {
          "duration": 0.066666749999996,
          "durationTicks": 24,
          "midi": 65,
          "name": "F4",
          "ticks": 26712,
          "time": 74.20009275,
          "velocity": 0.7007874015748031
        },
        {
          "duration": 0.066666749999996,
          "durationTicks": 24,
          "midi": 51,
          "name": "D#3",
          "ticks": 26712,
          "time": 74.20009275,
          "velocity": 0.7007874015748031
        },
        {
          "duration": 0.066666749999996,
          "durationTicks": 24,
          "midi": 39,
          "name": "D#2",
          "ticks": 26712,
          "time": 74.20009275,
          "velocity": 0.7007874015748031
        },
        {
          "duration": 0.066666749999996,
          "durationTicks": 24,
          "midi": 27,
          "name": "D#1",
          "ticks": 26712,
          "time": 74.20009275,
          "velocity": 0.7007874015748031
        },
        {
          "duration": 0.06666675000001021,
          "durationTicks": 24,
          "midi": 54,
          "name": "F#3",
          "ticks": 26736,
          "time": 74.26675949999999,
          "velocity": 0.7480314960629921
        },
        {
          "duration": 0.06666675000001021,
          "durationTicks": 24,
          "midi": 66,
          "name": "F#4",
          "ticks": 26736,
          "time": 74.26675949999999,
          "velocity": 0.7480314960629921
        },
        {
          "duration": 0.06666675000001021,
          "durationTicks": 24,
          "midi": 52,
          "name": "E3",
          "ticks": 26736,
          "time": 74.26675949999999,
          "velocity": 0.7480314960629921
        },
        {
          "duration": 0.06666675000001021,
          "durationTicks": 24,
          "midi": 40,
          "name": "E2",
          "ticks": 26736,
          "time": 74.26675949999999,
          "velocity": 0.7480314960629921
        },
        {
          "duration": 0.06666675000001021,
          "durationTicks": 24,
          "midi": 28,
          "name": "E1",
          "ticks": 26736,
          "time": 74.26675949999999,
          "velocity": 0.7480314960629921
        },
        {
          "duration": 0.066666749999996,
          "durationTicks": 24,
          "midi": 54,
          "name": "F#3",
          "ticks": 26760,
          "time": 74.33342625,
          "velocity": 0.8031496062992126
        },
        {
          "duration": 0.066666749999996,
          "durationTicks": 24,
          "midi": 66,
          "name": "F#4",
          "ticks": 26760,
          "time": 74.33342625,
          "velocity": 0.8031496062992126
        },
        {
          "duration": 0.066666749999996,
          "durationTicks": 24,
          "midi": 53,
          "name": "F3",
          "ticks": 26760,
          "time": 74.33342625,
          "velocity": 0.8031496062992126
        },
        {
          "duration": 0.066666749999996,
          "durationTicks": 24,
          "midi": 41,
          "name": "F2",
          "ticks": 26760,
          "time": 74.33342625,
          "velocity": 0.8031496062992126
        },
        {
          "duration": 0.066666749999996,
          "durationTicks": 24,
          "midi": 29,
          "name": "F1",
          "ticks": 26760,
          "time": 74.33342625,
          "velocity": 0.8031496062992126
        },
        {
          "duration": 0.06666675000001021,
          "durationTicks": 24,
          "midi": 28,
          "name": "E1",
          "ticks": 29568,
          "time": 82.13343599999999,
          "velocity": 0.7322834645669292
        },
        {
          "duration": 0.06666675000001021,
          "durationTicks": 24,
          "midi": 40,
          "name": "E2",
          "ticks": 29568,
          "time": 82.13343599999999,
          "velocity": 0.7322834645669292
        },
        {
          "duration": 0.066666749999996,
          "durationTicks": 24,
          "midi": 29,
          "name": "F1",
          "ticks": 29592,
          "time": 82.20010275,
          "velocity": 0.7322834645669292
        },
        {
          "duration": 0.066666749999996,
          "durationTicks": 24,
          "midi": 41,
          "name": "F2",
          "ticks": 29592,
          "time": 82.20010275,
          "velocity": 0.7322834645669292
        },
        {
          "duration": 0.066666749999996,
          "durationTicks": 24,
          "midi": 42,
          "name": "F#2",
          "ticks": 29616,
          "time": 82.2667695,
          "velocity": 0.7322834645669292
        },
        {
          "duration": 0.066666749999996,
          "durationTicks": 24,
          "midi": 30,
          "name": "F#1",
          "ticks": 29616,
          "time": 82.2667695,
          "velocity": 0.7322834645669292
        },
        {
          "duration": 0.06666675000001021,
          "durationTicks": 24,
          "midi": 31,
          "name": "G1",
          "ticks": 29640,
          "time": 82.33343624999999,
          "velocity": 0.7322834645669292
        },
        {
          "duration": 0.06666675000001021,
          "durationTicks": 24,
          "midi": 43,
          "name": "G2",
          "ticks": 29640,
          "time": 82.33343624999999,
          "velocity": 0.7322834645669292
        },
        {
          "duration": 0.066666749999996,
          "durationTicks": 24,
          "midi": 44,
          "name": "G#2",
          "ticks": 29760,
          "time": 82.66677,
          "velocity": 0.7322834645669292
        },
        {
          "duration": 0.066666749999996,
          "durationTicks": 24,
          "midi": 32,
          "name": "G#1",
          "ticks": 29760,
          "time": 82.66677,
          "velocity": 0.7322834645669292
        },
        {
          "duration": 0.066666749999996,
          "durationTicks": 24,
          "midi": 45,
          "name": "A2",
          "ticks": 29784,
          "time": 82.73343675,
          "velocity": 0.7322834645669292
        },
        {
          "duration": 0.066666749999996,
          "durationTicks": 24,
          "midi": 33,
          "name": "A1",
          "ticks": 29784,
          "time": 82.73343675,
          "velocity": 0.7322834645669292
        },
        {
          "duration": 0.06666675000001021,
          "durationTicks": 24,
          "midi": 34,
          "name": "A#1",
          "ticks": 29808,
          "time": 82.80010349999999,
          "velocity": 0.7322834645669292
        },
        {
          "duration": 0.06666675000001021,
          "durationTicks": 24,
          "midi": 46,
          "name": "A#2",
          "ticks": 29808,
          "time": 82.80010349999999,
          "velocity": 0.7322834645669292
        },
        {
          "duration": 0.066666749999996,
          "durationTicks": 24,
          "midi": 47,
          "name": "B2",
          "ticks": 29832,
          "time": 82.86677025,
          "velocity": 0.7322834645669292
        },
        {
          "duration": 0.066666749999996,
          "durationTicks": 24,
          "midi": 35,
          "name": "B1",
          "ticks": 29832,
          "time": 82.86677025,
          "velocity": 0.7322834645669292
        },
        {
          "duration": 0.066666749999996,
          "durationTicks": 24,
          "midi": 48,
          "name": "C3",
          "ticks": 29952,
          "time": 83.200104,
          "velocity": 0.7322834645669292
        },
        {
          "duration": 0.066666749999996,
          "durationTicks": 24,
          "midi": 36,
          "name": "C2",
          "ticks": 29952,
          "time": 83.200104,
          "velocity": 0.7322834645669292
        },
        {
          "duration": 0.06666675000001021,
          "durationTicks": 24,
          "midi": 49,
          "name": "C#3",
          "ticks": 29976,
          "time": 83.26677074999999,
          "velocity": 0.7322834645669292
        },
        {
          "duration": 0.06666675000001021,
          "durationTicks": 24,
          "midi": 37,
          "name": "C#2",
          "ticks": 29976,
          "time": 83.26677074999999,
          "velocity": 0.7322834645669292
        },
        {
          "duration": 0.066666749999996,
          "durationTicks": 24,
          "midi": 38,
          "name": "D2",
          "ticks": 30000,
          "time": 83.3334375,
          "velocity": 0.7322834645669292
        },
        {
          "duration": 0.066666749999996,
          "durationTicks": 24,
          "midi": 50,
          "name": "D3",
          "ticks": 30000,
          "time": 83.3334375,
          "velocity": 0.7322834645669292
        },
        {
          "duration": 0.066666749999996,
          "durationTicks": 24,
          "midi": 51,
          "name": "D#3",
          "ticks": 30024,
          "time": 83.40010425,
          "velocity": 0.7322834645669292
        },
        {
          "duration": 0.066666749999996,
          "durationTicks": 24,
          "midi": 39,
          "name": "D#2",
          "ticks": 30024,
          "time": 83.40010425,
          "velocity": 0.7322834645669292
        },
        {
          "duration": 0.066666749999996,
          "durationTicks": 24,
          "midi": 52,
          "name": "E3",
          "ticks": 30048,
          "time": 83.466771,
          "velocity": 0.7322834645669292
        },
        {
          "duration": 0.066666749999996,
          "durationTicks": 24,
          "midi": 40,
          "name": "E2",
          "ticks": 30048,
          "time": 83.466771,
          "velocity": 0.7322834645669292
        },
        {
          "duration": 0.06666675000001021,
          "durationTicks": 24,
          "midi": 53,
          "name": "F3",
          "ticks": 30072,
          "time": 83.53343774999999,
          "velocity": 0.7322834645669292
        },
        {
          "duration": 0.06666675000001021,
          "durationTicks": 24,
          "midi": 41,
          "name": "F2",
          "ticks": 30072,
          "time": 83.53343774999999,
          "velocity": 0.7322834645669292
        },
        {
          "duration": 0.066666749999996,
          "durationTicks": 24,
          "midi": 54,
          "name": "F#3",
          "ticks": 30096,
          "time": 83.6001045,
          "velocity": 0.7322834645669292
        },
        {
          "duration": 0.066666749999996,
          "durationTicks": 24,
          "midi": 42,
          "name": "F#2",
          "ticks": 30096,
          "time": 83.6001045,
          "velocity": 0.7322834645669292
        },
        {
          "duration": 0.066666749999996,
          "durationTicks": 24,
          "midi": 43,
          "name": "G2",
          "ticks": 30120,
          "time": 83.66677125,
          "velocity": 0.7322834645669292
        },
        {
          "duration": 0.066666749999996,
          "durationTicks": 24,
          "midi": 55,
          "name": "G3",
          "ticks": 30120,
          "time": 83.66677125,
          "velocity": 0.7322834645669292
        },
        {
          "duration": 0.06666675000001021,
          "durationTicks": 24,
          "midi": 56,
          "name": "G#3",
          "ticks": 30144,
          "time": 83.73343799999999,
          "velocity": 0.7322834645669292
        },
        {
          "duration": 0.06666675000001021,
          "durationTicks": 24,
          "midi": 44,
          "name": "G#2",
          "ticks": 30144,
          "time": 83.73343799999999,
          "velocity": 0.7322834645669292
        },
        {
          "duration": 0.066666749999996,
          "durationTicks": 24,
          "midi": 45,
          "name": "A2",
          "ticks": 30168,
          "time": 83.80010475,
          "velocity": 0.7322834645669292
        },
        {
          "duration": 0.066666749999996,
          "durationTicks": 24,
          "midi": 57,
          "name": "A3",
          "ticks": 30168,
          "time": 83.80010475,
          "velocity": 0.7322834645669292
        },
        {
          "duration": 0.066666749999996,
          "durationTicks": 24,
          "midi": 58,
          "name": "A#3",
          "ticks": 30192,
          "time": 83.8667715,
          "velocity": 0.7322834645669292
        },
        {
          "duration": 0.066666749999996,
          "durationTicks": 24,
          "midi": 46,
          "name": "A#2",
          "ticks": 30192,
          "time": 83.8667715,
          "velocity": 0.7322834645669292
        },
        {
          "duration": 0.066666749999996,
          "durationTicks": 24,
          "midi": 47,
          "name": "B2",
          "ticks": 30216,
          "time": 83.93343825,
          "velocity": 0.7322834645669292
        },
        {
          "duration": 0.066666749999996,
          "durationTicks": 24,
          "midi": 59,
          "name": "B3",
          "ticks": 30216,
          "time": 83.93343825,
          "velocity": 0.7322834645669292
        },
        {
          "duration": 0.066666749999996,
          "durationTicks": 24,
          "midi": 27,
          "name": "D#1",
          "ticks": 32928,
          "time": 91.466781,
          "velocity": 0.3858267716535433
        },
        {
          "duration": 0.066666749999996,
          "durationTicks": 24,
          "midi": 39,
          "name": "D#2",
          "ticks": 32928,
          "time": 91.466781,
          "velocity": 0.3858267716535433
        },
        {
          "duration": 0.066666749999996,
          "durationTicks": 24,
          "midi": 40,
          "name": "E2",
          "ticks": 32952,
          "time": 91.53344775,
          "velocity": 0.4094488188976378
        },
        {
          "duration": 0.066666749999996,
          "durationTicks": 24,
          "midi": 28,
          "name": "E1",
          "ticks": 32952,
          "time": 91.53344775,
          "velocity": 0.4094488188976378
        },
        {
          "duration": 0.06666675000001021,
          "durationTicks": 24,
          "midi": 29,
          "name": "F1",
          "ticks": 32976,
          "time": 91.60011449999999,
          "velocity": 0.4330708661417323
        },
        {
          "duration": 0.06666675000001021,
          "durationTicks": 24,
          "midi": 41,
          "name": "F2",
          "ticks": 32976,
          "time": 91.60011449999999,
          "velocity": 0.4330708661417323
        },
        {
          "duration": 0.066666749999996,
          "durationTicks": 24,
          "midi": 30,
          "name": "F#1",
          "ticks": 33000,
          "time": 91.66678125,
          "velocity": 0.4645669291338583
        },
        {
          "duration": 0.066666749999996,
          "durationTicks": 24,
          "midi": 42,
          "name": "F#2",
          "ticks": 33000,
          "time": 91.66678125,
          "velocity": 0.4645669291338583
        },
        {
          "duration": 0.066666749999996,
          "durationTicks": 24,
          "midi": 31,
          "name": "G1",
          "ticks": 33024,
          "time": 91.733448,
          "velocity": 0.4881889763779528
        },
        {
          "duration": 0.066666749999996,
          "durationTicks": 24,
          "midi": 43,
          "name": "G2",
          "ticks": 33024,
          "time": 91.733448,
          "velocity": 0.4881889763779528
        },
        {
          "duration": 0.06666675000001021,
          "durationTicks": 24,
          "midi": 32,
          "name": "G#1",
          "ticks": 33048,
          "time": 91.80011474999999,
          "velocity": 0.5118110236220472
        },
        {
          "duration": 0.06666675000001021,
          "durationTicks": 24,
          "midi": 44,
          "name": "G#2",
          "ticks": 33048,
          "time": 91.80011474999999,
          "velocity": 0.5118110236220472
        },
        {
          "duration": 0.066666749999996,
          "durationTicks": 24,
          "midi": 45,
          "name": "A2",
          "ticks": 33072,
          "time": 91.8667815,
          "velocity": 0.5354330708661418
        },
        {
          "duration": 0.066666749999996,
          "durationTicks": 24,
          "midi": 33,
          "name": "A1",
          "ticks": 33072,
          "time": 91.8667815,
          "velocity": 0.5354330708661418
        },
        {
          "duration": 0.06388896874999261,
          "durationTicks": 23,
          "midi": 34,
          "name": "A#1",
          "ticks": 33096,
          "time": 91.93344825,
          "velocity": 0.5669291338582677
        },
        {
          "duration": 0.06388896874999261,
          "durationTicks": 23,
          "midi": 46,
          "name": "A#2",
          "ticks": 33096,
          "time": 91.93344825,
          "velocity": 0.5669291338582677
        },
        {
          "duration": 0.066666749999996,
          "durationTicks": 24,
          "midi": 35,
          "name": "B1",
          "ticks": 33120,
          "time": 92.000115,
          "velocity": 0.5905511811023622
        },
        {
          "duration": 0.066666749999996,
          "durationTicks": 24,
          "midi": 47,
          "name": "B2",
          "ticks": 33120,
          "time": 92.000115,
          "velocity": 0.5905511811023622
        },
        {
          "duration": 0.06666675000001021,
          "durationTicks": 24,
          "midi": 36,
          "name": "C2",
          "ticks": 33144,
          "time": 92.06678174999999,
          "velocity": 0.6141732283464567
        },
        {
          "duration": 0.06666675000001021,
          "durationTicks": 24,
          "midi": 48,
          "name": "C3",
          "ticks": 33144,
          "time": 92.06678174999999,
          "velocity": 0.6141732283464567
        },
        {
          "duration": 0.066666749999996,
          "durationTicks": 24,
          "midi": 49,
          "name": "C#3",
          "ticks": 33168,
          "time": 92.1334485,
          "velocity": 0.6377952755905512
        },
        {
          "duration": 0.066666749999996,
          "durationTicks": 24,
          "midi": 37,
          "name": "C#2",
          "ticks": 33168,
          "time": 92.1334485,
          "velocity": 0.6377952755905512
        },
        {
          "duration": 0.066666749999996,
          "durationTicks": 24,
          "midi": 50,
          "name": "D3",
          "ticks": 33192,
          "time": 92.20011525,
          "velocity": 0.6692913385826772
        },
        {
          "duration": 0.066666749999996,
          "durationTicks": 24,
          "midi": 38,
          "name": "D2",
          "ticks": 33192,
          "time": 92.20011525,
          "velocity": 0.6692913385826772
        },
        {
          "duration": 0.06666675000001021,
          "durationTicks": 24,
          "midi": 51,
          "name": "D#3",
          "ticks": 33216,
          "time": 92.26678199999999,
          "velocity": 0.6929133858267716
        },
        {
          "duration": 0.06666675000001021,
          "durationTicks": 24,
          "midi": 39,
          "name": "D#2",
          "ticks": 33216,
          "time": 92.26678199999999,
          "velocity": 0.6929133858267716
        },
        {
          "duration": 0.066666749999996,
          "durationTicks": 24,
          "midi": 40,
          "name": "E2",
          "ticks": 33240,
          "time": 92.33344875,
          "velocity": 0.7165354330708661
        },
        {
          "duration": 0.066666749999996,
          "durationTicks": 24,
          "midi": 52,
          "name": "E3",
          "ticks": 33240,
          "time": 92.33344875,
          "velocity": 0.7165354330708661
        },
        {
          "duration": 0.066666749999996,
          "durationTicks": 24,
          "midi": 53,
          "name": "F3",
          "ticks": 33264,
          "time": 92.4001155,
          "velocity": 0.7401574803149606
        },
        {
          "duration": 0.066666749999996,
          "durationTicks": 24,
          "midi": 41,
          "name": "F2",
          "ticks": 33264,
          "time": 92.4001155,
          "velocity": 0.7401574803149606
        },
        {
          "duration": 0.06388896874999261,
          "durationTicks": 23,
          "midi": 54,
          "name": "F#3",
          "ticks": 33288,
          "time": 92.46678225,
          "velocity": 0.7716535433070866
        },
        {
          "duration": 0.06388896874999261,
          "durationTicks": 23,
          "midi": 42,
          "name": "F#2",
          "ticks": 33288,
          "time": 92.46678225,
          "velocity": 0.7716535433070866
        },
        {
          "duration": 0.066666749999996,
          "durationTicks": 24,
          "midi": 24,
          "name": "C1",
          "ticks": 33696,
          "time": 93.600117,
          "velocity": 0.3858267716535433
        },
        {
          "duration": 0.066666749999996,
          "durationTicks": 24,
          "midi": 25,
          "name": "C#1",
          "ticks": 33720,
          "time": 93.66678375,
          "velocity": 0.4094488188976378
        },
        {
          "duration": 0.06666675000001021,
          "durationTicks": 24,
          "midi": 26,
          "name": "D1",
          "ticks": 33744,
          "time": 93.73345049999999,
          "velocity": 0.4330708661417323
        },
        {
          "duration": 0.066666749999996,
          "durationTicks": 24,
          "midi": 27,
          "name": "D#1",
          "ticks": 33768,
          "time": 93.80011725,
          "velocity": 0.4645669291338583
        },
        {
          "duration": 0.066666749999996,
          "durationTicks": 24,
          "midi": 28,
          "name": "E1",
          "ticks": 33792,
          "time": 93.866784,
          "velocity": 0.4881889763779528
        },
        {
          "duration": 0.06666675000001021,
          "durationTicks": 24,
          "midi": 29,
          "name": "F1",
          "ticks": 33816,
          "time": 93.93345074999999,
          "velocity": 0.5118110236220472
        },
        {
          "duration": 0.066666749999996,
          "durationTicks": 24,
          "midi": 30,
          "name": "F#1",
          "ticks": 33840,
          "time": 94.0001175,
          "velocity": 0.5354330708661418
        },
        {
          "duration": 0.06388896874999261,
          "durationTicks": 23,
          "midi": 31,
          "name": "G1",
          "ticks": 33864,
          "time": 94.06678425,
          "velocity": 0.5669291338582677
        },
        {
          "duration": 0.066666749999996,
          "durationTicks": 24,
          "midi": 32,
          "name": "G#1",
          "ticks": 33888,
          "time": 94.133451,
          "velocity": 0.5905511811023622
        },
        {
          "duration": 0.06666675000001021,
          "durationTicks": 24,
          "midi": 33,
          "name": "A1",
          "ticks": 33912,
          "time": 94.20011774999999,
          "velocity": 0.6141732283464567
        },
        {
          "duration": 0.066666749999996,
          "durationTicks": 24,
          "midi": 34,
          "name": "A#1",
          "ticks": 33936,
          "time": 94.2667845,
          "velocity": 0.6377952755905512
        },
        {
          "duration": 0.066666749999996,
          "durationTicks": 24,
          "midi": 35,
          "name": "B1",
          "ticks": 33960,
          "time": 94.33345125,
          "velocity": 0.6692913385826772
        },
        {
          "duration": 0.06666675000001021,
          "durationTicks": 24,
          "midi": 36,
          "name": "C2",
          "ticks": 33984,
          "time": 94.40011799999999,
          "velocity": 0.6929133858267716
        },
        {
          "duration": 0.066666749999996,
          "durationTicks": 24,
          "midi": 37,
          "name": "C#2",
          "ticks": 34008,
          "time": 94.46678475,
          "velocity": 0.7165354330708661
        },
        {
          "duration": 0.066666749999996,
          "durationTicks": 24,
          "midi": 38,
          "name": "D2",
          "ticks": 34032,
          "time": 94.5334515,
          "velocity": 0.7401574803149606
        },
        {
          "duration": 0.06388896874999261,
          "durationTicks": 23,
          "midi": 39,
          "name": "D#2",
          "ticks": 34056,
          "time": 94.60011825,
          "velocity": 0.7716535433070866
        },
        {
          "duration": 0.066666749999996,
          "durationTicks": 24,
          "midi": 27,
          "name": "D#1",
          "ticks": 35424,
          "time": 98.400123,
          "velocity": 0.4015748031496063
        },
        {
          "duration": 0.066666749999996,
          "durationTicks": 24,
          "midi": 39,
          "name": "D#2",
          "ticks": 35424,
          "time": 98.400123,
          "velocity": 0.4015748031496063
        },
        {
          "duration": 0.06666675000001021,
          "durationTicks": 24,
          "midi": 40,
          "name": "E2",
          "ticks": 35448,
          "time": 98.46678974999999,
          "velocity": 0.4566929133858268
        },
        {
          "duration": 0.06666675000001021,
          "durationTicks": 24,
          "midi": 28,
          "name": "E1",
          "ticks": 35448,
          "time": 98.46678974999999,
          "velocity": 0.4566929133858268
        },
        {
          "duration": 0.066666749999996,
          "durationTicks": 24,
          "midi": 29,
          "name": "F1",
          "ticks": 35472,
          "time": 98.5334565,
          "velocity": 0.5118110236220472
        },
        {
          "duration": 0.066666749999996,
          "durationTicks": 24,
          "midi": 41,
          "name": "F2",
          "ticks": 35472,
          "time": 98.5334565,
          "velocity": 0.5118110236220472
        },
        {
          "duration": 0.066666749999996,
          "durationTicks": 24,
          "midi": 30,
          "name": "F#1",
          "ticks": 35496,
          "time": 98.60012325,
          "velocity": 0.5669291338582677
        },
        {
          "duration": 0.066666749999996,
          "durationTicks": 24,
          "midi": 42,
          "name": "F#2",
          "ticks": 35496,
          "time": 98.60012325,
          "velocity": 0.5669291338582677
        },
        {
          "duration": 0.06666675000001021,
          "durationTicks": 24,
          "midi": 31,
          "name": "G1",
          "ticks": 35520,
          "time": 98.66678999999999,
          "velocity": 0.6220472440944882
        },
        {
          "duration": 0.06666675000001021,
          "durationTicks": 24,
          "midi": 43,
          "name": "G2",
          "ticks": 35520,
          "time": 98.66678999999999,
          "velocity": 0.6220472440944882
        },
        {
          "duration": 0.066666749999996,
          "durationTicks": 24,
          "midi": 44,
          "name": "G#2",
          "ticks": 35544,
          "time": 98.73345675,
          "velocity": 0.6771653543307087
        },
        {
          "duration": 0.066666749999996,
          "durationTicks": 24,
          "midi": 32,
          "name": "G#1",
          "ticks": 35544,
          "time": 98.73345675,
          "velocity": 0.6771653543307087
        },
        {
          "duration": 0.066666749999996,
          "durationTicks": 24,
          "midi": 33,
          "name": "A1",
          "ticks": 35568,
          "time": 98.8001235,
          "velocity": 0.7322834645669292
        },
        {
          "duration": 0.066666749999996,
          "durationTicks": 24,
          "midi": 45,
          "name": "A2",
          "ticks": 35568,
          "time": 98.8001235,
          "velocity": 0.7322834645669292
        },
        {
          "duration": 0.066666749999996,
          "durationTicks": 24,
          "midi": 34,
          "name": "A#1",
          "ticks": 35592,
          "time": 98.86679025,
          "velocity": 0.7874015748031497
        },
        {
          "duration": 0.066666749999996,
          "durationTicks": 24,
          "midi": 46,
          "name": "A#2",
          "ticks": 35592,
          "time": 98.86679025,
          "velocity": 0.7874015748031497
        },
        {
          "duration": 0.133333499999992,
          "durationTicks": 48,
          "midi": 31,
          "name": "G1",
          "ticks": 35664,
          "time": 99.0667905,
          "velocity": 0.3543307086614173
        },
        {
          "duration": 0.1333335000000062,
          "durationTicks": 48,
          "midi": 32,
          "name": "G#1",
          "ticks": 35712,
          "time": 99.20012399999999,
          "velocity": 0.3858267716535433
        },
        {
          "duration": 0.1333335000000062,
          "durationTicks": 48,
          "midi": 33,
          "name": "A1",
          "ticks": 35760,
          "time": 99.3334575,
          "velocity": 0.4251968503937008
        },
        {
          "duration": 0.133333499999992,
          "durationTicks": 48,
          "midi": 34,
          "name": "A#1",
          "ticks": 35808,
          "time": 99.466791,
          "velocity": 0.4566929133858268
        },
        {
          "duration": 0.1333335000000062,
          "durationTicks": 48,
          "midi": 35,
          "name": "B1",
          "ticks": 35856,
          "time": 99.60012449999999,
          "velocity": 0.49606299212598426
        },
        {
          "duration": 0.133333499999992,
          "durationTicks": 48,
          "midi": 36,
          "name": "C2",
          "ticks": 35904,
          "time": 99.733458,
          "velocity": 0.5275590551181102
        },
        {
          "duration": 0.1333335000000062,
          "durationTicks": 48,
          "midi": 37,
          "name": "C#2",
          "ticks": 35952,
          "time": 99.86679149999999,
          "velocity": 0.5669291338582677
        },
        {
          "duration": 0.133333499999992,
          "durationTicks": 48,
          "midi": 38,
          "name": "D2",
          "ticks": 36000,
          "time": 100.000125,
          "velocity": 0.5984251968503937
        },
        {
          "duration": 0.1333335000000062,
          "durationTicks": 48,
          "midi": 39,
          "name": "D#2",
          "ticks": 36048,
          "time": 100.13345849999999,
          "velocity": 0.6377952755905512
        },
        {
          "duration": 0.1333335000000062,
          "durationTicks": 48,
          "midi": 40,
          "name": "E2",
          "ticks": 36096,
          "time": 100.266792,
          "velocity": 0.6692913385826772
        },
        {
          "duration": 0.133333499999992,
          "durationTicks": 48,
          "midi": 41,
          "name": "F2",
          "ticks": 36144,
          "time": 100.4001255,
          "velocity": 0.7086614173228346
        },
        {
          "duration": 0.1333335000000062,
          "durationTicks": 48,
          "midi": 28,
          "name": "E1",
          "ticks": 37968,
          "time": 105.4667985,
          "velocity": 0.5118110236220472
        },
        {
          "duration": 0.133333499999992,
          "durationTicks": 48,
          "midi": 29,
          "name": "F1",
          "ticks": 38016,
          "time": 105.600132,
          "velocity": 0.5275590551181102
        },
        {
          "duration": 0.1333335000000062,
          "durationTicks": 48,
          "midi": 30,
          "name": "F#1",
          "ticks": 38064,
          "time": 105.7334655,
          "velocity": 0.5354330708661418
        },
        {
          "duration": 0.133333499999992,
          "durationTicks": 48,
          "midi": 31,
          "name": "G1",
          "ticks": 38112,
          "time": 105.866799,
          "velocity": 0.5511811023622047
        },
        {
          "duration": 0.1333335000000062,
          "durationTicks": 48,
          "midi": 32,
          "name": "G#1",
          "ticks": 38160,
          "time": 106.00013249999999,
          "velocity": 0.5669291338582677
        },
        {
          "duration": 0.133333499999992,
          "durationTicks": 48,
          "midi": 33,
          "name": "A1",
          "ticks": 38208,
          "time": 106.133466,
          "velocity": 0.5748031496062992
        },
        {
          "duration": 0.1333335000000062,
          "durationTicks": 48,
          "midi": 34,
          "name": "A#1",
          "ticks": 38256,
          "time": 106.26679949999999,
          "velocity": 0.5905511811023622
        },
        {
          "duration": 0.133333499999992,
          "durationTicks": 48,
          "midi": 35,
          "name": "B1",
          "ticks": 38304,
          "time": 106.400133,
          "velocity": 0.6062992125984252
        },
        {
          "duration": 0.1333335000000062,
          "durationTicks": 48,
          "midi": 36,
          "name": "C2",
          "ticks": 38352,
          "time": 106.53346649999999,
          "velocity": 0.6141732283464567
        },
        {
          "duration": 0.1333335000000062,
          "durationTicks": 48,
          "midi": 37,
          "name": "C#2",
          "ticks": 38400,
          "time": 106.6668,
          "velocity": 0.6299212598425197
        },
        {
          "duration": 0.133333499999992,
          "durationTicks": 48,
          "midi": 38,
          "name": "D2",
          "ticks": 38448,
          "time": 106.8001335,
          "velocity": 0.6456692913385826
        },
        {
          "duration": 0.1333335000000062,
          "durationTicks": 48,
          "midi": 39,
          "name": "D#2",
          "ticks": 38496,
          "time": 106.933467,
          "velocity": 0.6535433070866141
        },
        {
          "duration": 0.133333499999992,
          "durationTicks": 48,
          "midi": 40,
          "name": "E2",
          "ticks": 38544,
          "time": 107.0668005,
          "velocity": 0.6692913385826772
        },
        {
          "duration": 0.1333335000000062,
          "durationTicks": 48,
          "midi": 41,
          "name": "F2",
          "ticks": 38592,
          "time": 107.20013399999999,
          "velocity": 0.6850393700787402
        },
        {
          "duration": 0.133333499999992,
          "durationTicks": 48,
          "midi": 42,
          "name": "F#2",
          "ticks": 38640,
          "time": 107.3334675,
          "velocity": 0.6929133858267716
        },
        {
          "duration": 0.1333335000000062,
          "durationTicks": 48,
          "midi": 43,
          "name": "G2",
          "ticks": 38688,
          "time": 107.46680099999999,
          "velocity": 0.7086614173228346
        },
        {
          "duration": 0.133333499999992,
          "durationTicks": 48,
          "midi": 44,
          "name": "G#2",
          "ticks": 38736,
          "time": 107.6001345,
          "velocity": 0.7244094488188977
        },
        {
          "duration": 0.1333335000000062,
          "durationTicks": 48,
          "midi": 45,
          "name": "A2",
          "ticks": 38784,
          "time": 107.73346799999999,
          "velocity": 0.7322834645669292
        },
        {
          "duration": 0.1333335000000062,
          "durationTicks": 48,
          "midi": 46,
          "name": "A#2",
          "ticks": 38832,
          "time": 107.8668015,
          "velocity": 0.7480314960629921
        },
        {
          "duration": 0.133333499999992,
          "durationTicks": 48,
          "midi": 47,
          "name": "B2",
          "ticks": 38880,
          "time": 108.000135,
          "velocity": 0.7637795275590551
        },
        {
          "duration": 0.1333335000000062,
          "durationTicks": 48,
          "midi": 48,
          "name": "C3",
          "ticks": 38928,
          "time": 108.13346849999999,
          "velocity": 0.7716535433070866
        },
        {
          "duration": 0.133333499999992,
          "durationTicks": 48,
          "midi": 49,
          "name": "C#3",
          "ticks": 38976,
          "time": 108.266802,
          "velocity": 0.7874015748031497
        },
        {
          "duration": 0.1333335000000062,
          "durationTicks": 48,
          "midi": 50,
          "name": "D3",
          "ticks": 39024,
          "time": 108.40013549999999,
          "velocity": 0.8031496062992126
        },
        {
          "duration": 0.022222249999998667,
          "durationTicks": 8,
          "midi": 47,
          "name": "B2",
          "ticks": 39936,
          "time": 110.933472,
          "velocity": 0.5275590551181102
        },
        {
          "duration": 0.022222250000012878,
          "durationTicks": 8,
          "midi": 47,
          "name": "B2",
          "ticks": 39968,
          "time": 111.02236099999999,
          "velocity": 0.5275590551181102
        },
        {
          "duration": 0.022222249999998667,
          "durationTicks": 8,
          "midi": 47,
          "name": "B2",
          "ticks": 40000,
          "time": 111.11125,
          "velocity": 0.5275590551181102
        },
        {
          "duration": 0.022222249999998667,
          "durationTicks": 8,
          "midi": 47,
          "name": "B2",
          "ticks": 40032,
          "time": 111.200139,
          "velocity": 0.5275590551181102
        },
        {
          "duration": 0.022222249999998667,
          "durationTicks": 8,
          "midi": 47,
          "name": "B2",
          "ticks": 40096,
          "time": 111.377917,
          "velocity": 0.5275590551181102
        },
        {
          "duration": 0.022222249999998667,
          "durationTicks": 8,
          "midi": 47,
          "name": "B2",
          "ticks": 40128,
          "time": 111.46680599999999,
          "velocity": 0.5275590551181102
        },
        {
          "duration": 0.022222249999998667,
          "durationTicks": 8,
          "midi": 47,
          "name": "B2",
          "ticks": 40192,
          "time": 111.644584,
          "velocity": 0.5275590551181102
        },
        {
          "duration": 0.022222249999998667,
          "durationTicks": 8,
          "midi": 47,
          "name": "B2",
          "ticks": 40224,
          "time": 111.73347299999999,
          "velocity": 0.5275590551181102
        },
        {
          "duration": 0.022222250000012878,
          "durationTicks": 8,
          "midi": 47,
          "name": "B2",
          "ticks": 40256,
          "time": 111.82236199999998,
          "velocity": 0.5275590551181102
        },
        {
          "duration": 0.022222249999998667,
          "durationTicks": 8,
          "midi": 47,
          "name": "B2",
          "ticks": 40288,
          "time": 111.911251,
          "velocity": 0.5275590551181102
        },
        {
          "duration": 0.022222249999998667,
          "durationTicks": 8,
          "midi": 47,
          "name": "B2",
          "ticks": 40320,
          "time": 112.00013999999999,
          "velocity": 0.5275590551181102
        },
        {
          "duration": 0.022222249999998667,
          "durationTicks": 8,
          "midi": 47,
          "name": "B2",
          "ticks": 40352,
          "time": 112.089029,
          "velocity": 0.5275590551181102
        },
        {
          "duration": 0.022222249999984456,
          "durationTicks": 8,
          "midi": 47,
          "name": "B2",
          "ticks": 40384,
          "time": 112.177918,
          "velocity": 0.5275590551181102
        },
        {
          "duration": 0.022222249999984456,
          "durationTicks": 8,
          "midi": 47,
          "name": "B2",
          "ticks": 40416,
          "time": 112.266807,
          "velocity": 0.5275590551181102
        },
        {
          "duration": 0.022222249999984456,
          "durationTicks": 8,
          "midi": 47,
          "name": "B2",
          "ticks": 40480,
          "time": 112.444585,
          "velocity": 0.5275590551181102
        },
        {
          "duration": 0.022222249999984456,
          "durationTicks": 8,
          "midi": 46,
          "name": "A#2",
          "ticks": 40512,
          "time": 112.533474,
          "velocity": 0.5275590551181102
        },
        {
          "duration": 0.022222250000012878,
          "durationTicks": 8,
          "midi": 46,
          "name": "A#2",
          "ticks": 40544,
          "time": 112.62236299999999,
          "velocity": 0.5275590551181102
        },
        {
          "duration": 0.022222249999998667,
          "durationTicks": 8,
          "midi": 46,
          "name": "A#2",
          "ticks": 40576,
          "time": 112.711252,
          "velocity": 0.5275590551181102
        },
        {
          "duration": 0.022222249999998667,
          "durationTicks": 8,
          "midi": 46,
          "name": "A#2",
          "ticks": 40608,
          "time": 112.800141,
          "velocity": 0.5275590551181102
        },
        {
          "duration": 0.022222250000012878,
          "durationTicks": 8,
          "midi": 46,
          "name": "A#2",
          "ticks": 40640,
          "time": 112.88902999999999,
          "velocity": 0.5275590551181102
        },
        {
          "duration": 0.022222249999998667,
          "durationTicks": 8,
          "midi": 46,
          "name": "A#2",
          "ticks": 40672,
          "time": 112.977919,
          "velocity": 0.5275590551181102
        },
        {
          "duration": 0.022222249999998667,
          "durationTicks": 8,
          "midi": 46,
          "name": "A#2",
          "ticks": 40704,
          "time": 113.066808,
          "velocity": 0.5275590551181102
        },
        {
          "duration": 0.022222249999998667,
          "durationTicks": 8,
          "midi": 46,
          "name": "A#2",
          "ticks": 40768,
          "time": 113.244586,
          "velocity": 0.5275590551181102
        },
        {
          "duration": 0.022222249999998667,
          "durationTicks": 8,
          "midi": 46,
          "name": "A#2",
          "ticks": 40800,
          "time": 113.33347499999999,
          "velocity": 0.5275590551181102
        },
        {
          "duration": 0.022222250000012878,
          "durationTicks": 8,
          "midi": 46,
          "name": "A#2",
          "ticks": 40832,
          "time": 113.42236399999999,
          "velocity": 0.5275590551181102
        },
        {
          "duration": 0.022222249999998667,
          "durationTicks": 8,
          "midi": 46,
          "name": "A#2",
          "ticks": 40864,
          "time": 113.511253,
          "velocity": 0.5275590551181102
        },
        {
          "duration": 0.022222249999998667,
          "durationTicks": 8,
          "midi": 46,
          "name": "A#2",
          "ticks": 40896,
          "time": 113.60014199999999,
          "velocity": 0.5275590551181102
        },
        {
          "duration": 0.022222250000012878,
          "durationTicks": 8,
          "midi": 46,
          "name": "A#2",
          "ticks": 40928,
          "time": 113.68903099999999,
          "velocity": 0.5275590551181102
        },
        {
          "duration": 0.022222249999998667,
          "durationTicks": 8,
          "midi": 46,
          "name": "A#2",
          "ticks": 40960,
          "time": 113.77792,
          "velocity": 0.5275590551181102
        },
        {
          "duration": 0.022222249999998667,
          "durationTicks": 8,
          "midi": 45,
          "name": "A2",
          "ticks": 40992,
          "time": 113.86680899999999,
          "velocity": 0.5275590551181102
        },
        {
          "duration": 0.022222250000012878,
          "durationTicks": 8,
          "midi": 45,
          "name": "A2",
          "ticks": 41024,
          "time": 113.95569799999998,
          "velocity": 0.5275590551181102
        },
        {
          "duration": 0.022222249999998667,
          "durationTicks": 8,
          "midi": 45,
          "name": "A2",
          "ticks": 41056,
          "time": 114.04458699999999,
          "velocity": 0.5275590551181102
        },
        {
          "duration": 0.022222249999984456,
          "durationTicks": 8,
          "midi": 45,
          "name": "A2",
          "ticks": 41088,
          "time": 114.133476,
          "velocity": 0.5275590551181102
        },
        {
          "duration": 0.022222249999998667,
          "durationTicks": 8,
          "midi": 45,
          "name": "A2",
          "ticks": 41120,
          "time": 114.222365,
          "velocity": 0.5275590551181102
        },
        {
          "duration": 0.022222249999984456,
          "durationTicks": 8,
          "midi": 45,
          "name": "A2",
          "ticks": 41152,
          "time": 114.311254,
          "velocity": 0.5275590551181102
        },
        {
          "duration": 0.022222249999984456,
          "durationTicks": 8,
          "midi": 45,
          "name": "A2",
          "ticks": 41184,
          "time": 114.400143,
          "velocity": 0.5275590551181102
        },
        {
          "duration": 0.022222249999984456,
          "durationTicks": 8,
          "midi": 45,
          "name": "A2",
          "ticks": 41248,
          "time": 114.577921,
          "velocity": 0.5275590551181102
        },
        {
          "duration": 0.022222249999984456,
          "durationTicks": 8,
          "midi": 45,
          "name": "A2",
          "ticks": 41280,
          "time": 114.66681,
          "velocity": 0.5275590551181102
        },
        {
          "duration": 0.022222250000012878,
          "durationTicks": 8,
          "midi": 45,
          "name": "A2",
          "ticks": 41312,
          "time": 114.75569899999999,
          "velocity": 0.5275590551181102
        },
        {
          "duration": 0.022222249999998667,
          "durationTicks": 8,
          "midi": 45,
          "name": "A2",
          "ticks": 41344,
          "time": 114.844588,
          "velocity": 0.5275590551181102
        },
        {
          "duration": 0.022222249999998667,
          "durationTicks": 8,
          "midi": 45,
          "name": "A2",
          "ticks": 41376,
          "time": 114.933477,
          "velocity": 0.5275590551181102
        },
        {
          "duration": 0.022222250000012878,
          "durationTicks": 8,
          "midi": 45,
          "name": "A2",
          "ticks": 41408,
          "time": 115.02236599999999,
          "velocity": 0.5275590551181102
        },
        {
          "duration": 0.022222249999998667,
          "durationTicks": 8,
          "midi": 45,
          "name": "A2",
          "ticks": 41440,
          "time": 115.111255,
          "velocity": 0.5275590551181102
        },
        {
          "duration": 0.022222249999998667,
          "durationTicks": 8,
          "midi": 45,
          "name": "A2",
          "ticks": 41472,
          "time": 115.200144,
          "velocity": 0.5275590551181102
        },
        {
          "duration": 0.022222249999998667,
          "durationTicks": 8,
          "midi": 45,
          "name": "A2",
          "ticks": 41536,
          "time": 115.377922,
          "velocity": 0.5275590551181102
        },
        {
          "duration": 0.022222249999998667,
          "durationTicks": 8,
          "midi": 44,
          "name": "G#2",
          "ticks": 41568,
          "time": 115.46681099999999,
          "velocity": 0.5275590551181102
        },
        {
          "duration": 0.022222250000012878,
          "durationTicks": 8,
          "midi": 44,
          "name": "G#2",
          "ticks": 41600,
          "time": 115.55569999999999,
          "velocity": 0.5275590551181102
        },
        {
          "duration": 0.022222249999998667,
          "durationTicks": 8,
          "midi": 44,
          "name": "G#2",
          "ticks": 41632,
          "time": 115.644589,
          "velocity": 0.5275590551181102
        },
        {
          "duration": 0.022222249999998667,
          "durationTicks": 8,
          "midi": 44,
          "name": "G#2",
          "ticks": 41664,
          "time": 115.73347799999999,
          "velocity": 0.5275590551181102
        },
        {
          "duration": 0.022222249999998667,
          "durationTicks": 8,
          "midi": 44,
          "name": "G#2",
          "ticks": 41728,
          "time": 115.911256,
          "velocity": 0.5275590551181102
        },
        {
          "duration": 0.022222249999998667,
          "durationTicks": 8,
          "midi": 44,
          "name": "G#2",
          "ticks": 41760,
          "time": 116.00014499999999,
          "velocity": 0.5275590551181102
        },
        {
          "duration": 0.022222250000012878,
          "durationTicks": 8,
          "midi": 44,
          "name": "G#2",
          "ticks": 41792,
          "time": 116.08903399999998,
          "velocity": 0.5275590551181102
        },
        {
          "duration": 0.022222249999998667,
          "durationTicks": 8,
          "midi": 44,
          "name": "G#2",
          "ticks": 41824,
          "time": 116.17792299999999,
          "velocity": 0.5275590551181102
        },
        {
          "duration": 0.022222249999998667,
          "durationTicks": 8,
          "midi": 44,
          "name": "G#2",
          "ticks": 41856,
          "time": 116.26681199999999,
          "velocity": 0.5275590551181102
        },
        {
          "duration": 0.022222249999998667,
          "durationTicks": 8,
          "midi": 44,
          "name": "G#2",
          "ticks": 41888,
          "time": 116.355701,
          "velocity": 0.5275590551181102
        },
        {
          "duration": 0.022222250000012878,
          "durationTicks": 8,
          "midi": 32,
          "name": "G#1",
          "ticks": 44408,
          "time": 123.35570974999999,
          "velocity": 0.5039370078740157
        },
        {
          "duration": 0.022222249999984456,
          "durationTicks": 8,
          "midi": 32,
          "name": "G#1",
          "ticks": 44424,
          "time": 123.40015425,
          "velocity": 0.5039370078740157
        },
        {
          "duration": 0.022222249999998667,
          "durationTicks": 8,
          "midi": 32,
          "name": "G#1",
          "ticks": 44440,
          "time": 123.44459875,
          "velocity": 0.5039370078740157
        },
        {
          "duration": 0.022222249999998667,
          "durationTicks": 8,
          "midi": 32,
          "name": "G#1",
          "ticks": 44456,
          "time": 123.48904325,
          "velocity": 0.5039370078740157
        },
        {
          "duration": 0.022222249999998667,
          "durationTicks": 8,
          "midi": 32,
          "name": "G#1",
          "ticks": 44472,
          "time": 123.53348774999999,
          "velocity": 0.5039370078740157
        },
        {
          "duration": 0.022222249999984456,
          "durationTicks": 8,
          "midi": 32,
          "name": "G#1",
          "ticks": 44488,
          "time": 123.57793225,
          "velocity": 0.5039370078740157
        },
        {
          "duration": 0.022222250000012878,
          "durationTicks": 8,
          "midi": 32,
          "name": "G#1",
          "ticks": 44504,
          "time": 123.62237674999999,
          "velocity": 0.5039370078740157
        },
        {
          "duration": 0.066666749999996,
          "durationTicks": 24,
          "midi": 37,
          "name": "C#2",
          "ticks": 44592,
          "time": 123.8668215,
          "velocity": 0.5039370078740157
        },
        {
          "duration": 0.066666749999996,
          "durationTicks": 24,
          "midi": 25,
          "name": "C#1",
          "ticks": 44592,
          "time": 123.8668215,
          "velocity": 0.5039370078740157
        },
        {
          "duration": 0.066666749999996,
          "durationTicks": 24,
          "midi": 38,
          "name": "D2",
          "ticks": 44616,
          "time": 123.93348825,
          "velocity": 0.5118110236220472
        },
        {
          "duration": 0.066666749999996,
          "durationTicks": 24,
          "midi": 26,
          "name": "D1",
          "ticks": 44616,
          "time": 123.93348825,
          "velocity": 0.5118110236220472
        },
        {
          "duration": 0.066666749999996,
          "durationTicks": 24,
          "midi": 39,
          "name": "D#2",
          "ticks": 44640,
          "time": 124.00015499999999,
          "velocity": 0.5275590551181102
        },
        {
          "duration": 0.066666749999996,
          "durationTicks": 24,
          "midi": 27,
          "name": "D#1",
          "ticks": 44640,
          "time": 124.00015499999999,
          "velocity": 0.5275590551181102
        },
        {
          "duration": 0.06666675000001021,
          "durationTicks": 24,
          "midi": 40,
          "name": "E2",
          "ticks": 44664,
          "time": 124.06682174999999,
          "velocity": 0.5354330708661418
        },
        {
          "duration": 0.06666675000001021,
          "durationTicks": 24,
          "midi": 28,
          "name": "E1",
          "ticks": 44664,
          "time": 124.06682174999999,
          "velocity": 0.5354330708661418
        },
        {
          "duration": 0.066666749999996,
          "durationTicks": 24,
          "midi": 41,
          "name": "F2",
          "ticks": 44688,
          "time": 124.1334885,
          "velocity": 0.5433070866141733
        },
        {
          "duration": 0.066666749999996,
          "durationTicks": 24,
          "midi": 29,
          "name": "F1",
          "ticks": 44688,
          "time": 124.1334885,
          "velocity": 0.5433070866141733
        },
        {
          "duration": 0.066666749999996,
          "durationTicks": 24,
          "midi": 42,
          "name": "F#2",
          "ticks": 44712,
          "time": 124.20015525,
          "velocity": 0.5511811023622047
        },
        {
          "duration": 0.066666749999996,
          "durationTicks": 24,
          "midi": 30,
          "name": "F#1",
          "ticks": 44712,
          "time": 124.20015525,
          "velocity": 0.5511811023622047
        },
        {
          "duration": 0.06666675000001021,
          "durationTicks": 24,
          "midi": 31,
          "name": "G1",
          "ticks": 44736,
          "time": 124.26682199999999,
          "velocity": 0.5669291338582677
        },
        {
          "duration": 0.06666675000001021,
          "durationTicks": 24,
          "midi": 43,
          "name": "G2",
          "ticks": 44736,
          "time": 124.26682199999999,
          "velocity": 0.5669291338582677
        },
        {
          "duration": 0.066666749999996,
          "durationTicks": 24,
          "midi": 44,
          "name": "G#2",
          "ticks": 44760,
          "time": 124.33348875,
          "velocity": 0.5748031496062992
        },
        {
          "duration": 0.066666749999996,
          "durationTicks": 24,
          "midi": 32,
          "name": "G#1",
          "ticks": 44760,
          "time": 124.33348875,
          "velocity": 0.5748031496062992
        },
        {
          "duration": 0.066666749999996,
          "durationTicks": 24,
          "midi": 33,
          "name": "A1",
          "ticks": 44784,
          "time": 124.4001555,
          "velocity": 0.5826771653543307
        },
        {
          "duration": 0.066666749999996,
          "durationTicks": 24,
          "midi": 45,
          "name": "A2",
          "ticks": 44784,
          "time": 124.4001555,
          "velocity": 0.5826771653543307
        },
        {
          "duration": 0.066666749999996,
          "durationTicks": 24,
          "midi": 46,
          "name": "A#2",
          "ticks": 44808,
          "time": 124.46682224999999,
          "velocity": 0.5905511811023622
        },
        {
          "duration": 0.066666749999996,
          "durationTicks": 24,
          "midi": 34,
          "name": "A#1",
          "ticks": 44808,
          "time": 124.46682224999999,
          "velocity": 0.5905511811023622
        },
        {
          "duration": 0.06666675000001021,
          "durationTicks": 24,
          "midi": 35,
          "name": "B1",
          "ticks": 44832,
          "time": 124.53348899999999,
          "velocity": 0.6062992125984252
        },
        {
          "duration": 0.06666675000001021,
          "durationTicks": 24,
          "midi": 47,
          "name": "B2",
          "ticks": 44832,
          "time": 124.53348899999999,
          "velocity": 0.6062992125984252
        },
        {
          "duration": 0.066666749999996,
          "durationTicks": 24,
          "midi": 36,
          "name": "C2",
          "ticks": 44856,
          "time": 124.60015575,
          "velocity": 0.6141732283464567
        },
        {
          "duration": 0.066666749999996,
          "durationTicks": 24,
          "midi": 48,
          "name": "C3",
          "ticks": 44856,
          "time": 124.60015575,
          "velocity": 0.6141732283464567
        },
        {
          "duration": 0.066666749999996,
          "durationTicks": 24,
          "midi": 49,
          "name": "C#3",
          "ticks": 44880,
          "time": 124.6668225,
          "velocity": 0.6220472440944882
        },
        {
          "duration": 0.066666749999996,
          "durationTicks": 24,
          "midi": 37,
          "name": "C#2",
          "ticks": 44880,
          "time": 124.6668225,
          "velocity": 0.6220472440944882
        },
        {
          "duration": 0.066666749999996,
          "durationTicks": 24,
          "midi": 50,
          "name": "D3",
          "ticks": 44904,
          "time": 124.73348924999999,
          "velocity": 0.6299212598425197
        },
        {
          "duration": 0.066666749999996,
          "durationTicks": 24,
          "midi": 38,
          "name": "D2",
          "ticks": 44904,
          "time": 124.73348924999999,
          "velocity": 0.6299212598425197
        },
        {
          "duration": 0.06666675000001021,
          "durationTicks": 24,
          "midi": 51,
          "name": "D#3",
          "ticks": 44928,
          "time": 124.80015599999999,
          "velocity": 0.6377952755905512
        },
        {
          "duration": 0.06666675000001021,
          "durationTicks": 24,
          "midi": 39,
          "name": "D#2",
          "ticks": 44928,
          "time": 124.80015599999999,
          "velocity": 0.6377952755905512
        },
        {
          "duration": 0.066666749999996,
          "durationTicks": 24,
          "midi": 52,
          "name": "E3",
          "ticks": 44952,
          "time": 124.86682275,
          "velocity": 0.6535433070866141
        },
        {
          "duration": 0.066666749999996,
          "durationTicks": 24,
          "midi": 40,
          "name": "E2",
          "ticks": 44952,
          "time": 124.86682275,
          "velocity": 0.6535433070866141
        },
        {
          "duration": 0.066666749999996,
          "durationTicks": 24,
          "midi": 41,
          "name": "F2",
          "ticks": 44976,
          "time": 124.9334895,
          "velocity": 0.6614173228346457
        },
        {
          "duration": 0.066666749999996,
          "durationTicks": 24,
          "midi": 53,
          "name": "F3",
          "ticks": 44976,
          "time": 124.9334895,
          "velocity": 0.6614173228346457
        },
        {
          "duration": 0.06666675000001021,
          "durationTicks": 24,
          "midi": 42,
          "name": "F#2",
          "ticks": 45000,
          "time": 125.00015624999999,
          "velocity": 0.6692913385826772
        },
        {
          "duration": 0.06666675000001021,
          "durationTicks": 24,
          "midi": 54,
          "name": "F#3",
          "ticks": 45000,
          "time": 125.00015624999999,
          "velocity": 0.6692913385826772
        },
        {
          "duration": 0.066666749999996,
          "durationTicks": 24,
          "midi": 43,
          "name": "G2",
          "ticks": 45024,
          "time": 125.066823,
          "velocity": 0.6771653543307087
        },
        {
          "duration": 0.066666749999996,
          "durationTicks": 24,
          "midi": 55,
          "name": "G3",
          "ticks": 45024,
          "time": 125.066823,
          "velocity": 0.6771653543307087
        },
        {
          "duration": 0.066666749999996,
          "durationTicks": 24,
          "midi": 56,
          "name": "G#3",
          "ticks": 45048,
          "time": 125.13348975,
          "velocity": 0.6929133858267716
        },
        {
          "duration": 0.066666749999996,
          "durationTicks": 24,
          "midi": 44,
          "name": "G#2",
          "ticks": 45048,
          "time": 125.13348975,
          "velocity": 0.6929133858267716
        },
        {
          "duration": 0.066666749999996,
          "durationTicks": 24,
          "midi": 45,
          "name": "A2",
          "ticks": 45072,
          "time": 125.20015649999999,
          "velocity": 0.7007874015748031
        },
        {
          "duration": 0.066666749999996,
          "durationTicks": 24,
          "midi": 57,
          "name": "A3",
          "ticks": 45072,
          "time": 125.20015649999999,
          "velocity": 0.7007874015748031
        },
        {
          "duration": 0.06666675000001021,
          "durationTicks": 24,
          "midi": 58,
          "name": "A#3",
          "ticks": 45096,
          "time": 125.26682324999999,
          "velocity": 0.7086614173228346
        },
        {
          "duration": 0.06666675000001021,
          "durationTicks": 24,
          "midi": 46,
          "name": "A#2",
          "ticks": 45096,
          "time": 125.26682324999999,
          "velocity": 0.7086614173228346
        },
        {
          "duration": 0.066666749999996,
          "durationTicks": 24,
          "midi": 47,
          "name": "B2",
          "ticks": 45120,
          "time": 125.33349,
          "velocity": 0.7165354330708661
        },
        {
          "duration": 0.066666749999996,
          "durationTicks": 24,
          "midi": 59,
          "name": "B3",
          "ticks": 45120,
          "time": 125.33349,
          "velocity": 0.7165354330708661
        },
        {
          "duration": 0.066666749999996,
          "durationTicks": 24,
          "midi": 48,
          "name": "C3",
          "ticks": 45144,
          "time": 125.40015675,
          "velocity": 0.7322834645669292
        },
        {
          "duration": 0.066666749999996,
          "durationTicks": 24,
          "midi": 60,
          "name": "C4",
          "ticks": 45144,
          "time": 125.40015675,
          "velocity": 0.7322834645669292
        },
        {
          "duration": 0.066666749999996,
          "durationTicks": 24,
          "midi": 36,
          "name": "C2",
          "ticks": 51480,
          "time": 143.00017875,
          "velocity": 0.6141732283464567
        },
        {
          "duration": 0.066666749999996,
          "durationTicks": 24,
          "midi": 24,
          "name": "C1",
          "ticks": 51480,
          "time": 143.00017875,
          "velocity": 0.6141732283464567
        },
        {
          "duration": 0.066666749999996,
          "durationTicks": 24,
          "midi": 37,
          "name": "C#2",
          "ticks": 51504,
          "time": 143.0668455,
          "velocity": 0.6220472440944882
        },
        {
          "duration": 0.066666749999996,
          "durationTicks": 24,
          "midi": 25,
          "name": "C#1",
          "ticks": 51504,
          "time": 143.0668455,
          "velocity": 0.6220472440944882
        },
        {
          "duration": 0.066666749999996,
          "durationTicks": 24,
          "midi": 26,
          "name": "D1",
          "ticks": 51528,
          "time": 143.13351225,
          "velocity": 0.6299212598425197
        },
        {
          "duration": 0.066666749999996,
          "durationTicks": 24,
          "midi": 38,
          "name": "D2",
          "ticks": 51528,
          "time": 143.13351225,
          "velocity": 0.6299212598425197
        },
        {
          "duration": 0.066666749999996,
          "durationTicks": 24,
          "midi": 27,
          "name": "D#1",
          "ticks": 51552,
          "time": 143.200179,
          "velocity": 0.6377952755905512
        },
        {
          "duration": 0.066666749999996,
          "durationTicks": 24,
          "midi": 39,
          "name": "D#2",
          "ticks": 51552,
          "time": 143.200179,
          "velocity": 0.6377952755905512
        },
        {
          "duration": 0.066666749999996,
          "durationTicks": 24,
          "midi": 28,
          "name": "E1",
          "ticks": 51576,
          "time": 143.26684575,
          "velocity": 0.6535433070866141
        },
        {
          "duration": 0.066666749999996,
          "durationTicks": 24,
          "midi": 40,
          "name": "E2",
          "ticks": 51576,
          "time": 143.26684575,
          "velocity": 0.6535433070866141
        },
        {
          "duration": 0.066666749999996,
          "durationTicks": 24,
          "midi": 41,
          "name": "F2",
          "ticks": 51600,
          "time": 143.33351249999998,
          "velocity": 0.6614173228346457
        },
        {
          "duration": 0.066666749999996,
          "durationTicks": 24,
          "midi": 29,
          "name": "F1",
          "ticks": 51600,
          "time": 143.33351249999998,
          "velocity": 0.6614173228346457
        },
        {
          "duration": 0.06666675000002442,
          "durationTicks": 24,
          "midi": 42,
          "name": "F#2",
          "ticks": 51624,
          "time": 143.40017924999998,
          "velocity": 0.6692913385826772
        },
        {
          "duration": 0.06666675000002442,
          "durationTicks": 24,
          "midi": 30,
          "name": "F#1",
          "ticks": 51624,
          "time": 143.40017924999998,
          "velocity": 0.6692913385826772
        },
        {
          "duration": 0.066666749999996,
          "durationTicks": 24,
          "midi": 31,
          "name": "G1",
          "ticks": 51648,
          "time": 143.466846,
          "velocity": 0.6850393700787402
        },
        {
          "duration": 0.066666749999996,
          "durationTicks": 24,
          "midi": 43,
          "name": "G2",
          "ticks": 51648,
          "time": 143.466846,
          "velocity": 0.6850393700787402
        },
        {
          "duration": 0.066666749999996,
          "durationTicks": 24,
          "midi": 32,
          "name": "G#1",
          "ticks": 51672,
          "time": 143.53351275,
          "velocity": 0.6929133858267716
        },
        {
          "duration": 0.066666749999996,
          "durationTicks": 24,
          "midi": 44,
          "name": "G#2",
          "ticks": 51672,
          "time": 143.53351275,
          "velocity": 0.6929133858267716
        },
        {
          "duration": 0.066666749999996,
          "durationTicks": 24,
          "midi": 45,
          "name": "A2",
          "ticks": 51696,
          "time": 143.6001795,
          "velocity": 0.7007874015748031
        },
        {
          "duration": 0.066666749999996,
          "durationTicks": 24,
          "midi": 33,
          "name": "A1",
          "ticks": 51696,
          "time": 143.6001795,
          "velocity": 0.7007874015748031
        },
        {
          "duration": 0.066666749999996,
          "durationTicks": 24,
          "midi": 34,
          "name": "A#1",
          "ticks": 51720,
          "time": 143.66684625,
          "velocity": 0.7086614173228346
        },
        {
          "duration": 0.066666749999996,
          "durationTicks": 24,
          "midi": 46,
          "name": "A#2",
          "ticks": 51720,
          "time": 143.66684625,
          "velocity": 0.7086614173228346
        },
        {
          "duration": 0.066666749999996,
          "durationTicks": 24,
          "midi": 47,
          "name": "B2",
          "ticks": 51744,
          "time": 143.733513,
          "velocity": 0.7244094488188977
        },
        {
          "duration": 0.066666749999996,
          "durationTicks": 24,
          "midi": 35,
          "name": "B1",
          "ticks": 51744,
          "time": 143.733513,
          "velocity": 0.7244094488188977
        },
        {
          "duration": 0.066666749999996,
          "durationTicks": 24,
          "midi": 48,
          "name": "C3",
          "ticks": 51768,
          "time": 143.80017974999998,
          "velocity": 0.7322834645669292
        },
        {
          "duration": 0.066666749999996,
          "durationTicks": 24,
          "midi": 36,
          "name": "C2",
          "ticks": 51768,
          "time": 143.80017974999998,
          "velocity": 0.7322834645669292
        },
        {
          "duration": 0.06666675000002442,
          "durationTicks": 24,
          "midi": 49,
          "name": "C#3",
          "ticks": 51792,
          "time": 143.86684649999998,
          "velocity": 0.7401574803149606
        },
        {
          "duration": 0.06666675000002442,
          "durationTicks": 24,
          "midi": 37,
          "name": "C#2",
          "ticks": 51792,
          "time": 143.86684649999998,
          "velocity": 0.7401574803149606
        },
        {
          "duration": 0.066666749999996,
          "durationTicks": 24,
          "midi": 38,
          "name": "D2",
          "ticks": 51816,
          "time": 143.93351325,
          "velocity": 0.7480314960629921
        },
        {
          "duration": 0.066666749999996,
          "durationTicks": 24,
          "midi": 50,
          "name": "D3",
          "ticks": 51816,
          "time": 143.93351325,
          "velocity": 0.7480314960629921
        },
        {
          "duration": 0.10000012500000821,
          "durationTicks": 36,
          "midi": 26,
          "name": "D1",
          "ticks": 52224,
          "time": 145.066848,
          "velocity": 0.6929133858267716
        },
        {
          "duration": 0.03333337500001221,
          "durationTicks": 12,
          "midi": 26,
          "name": "D1",
          "ticks": 52272,
          "time": 145.20018149999999,
          "velocity": 0.6456692913385826
        },
        {
          "duration": 0.10000012499997979,
          "durationTicks": 36,
          "midi": 38,
          "name": "D2",
          "ticks": 52320,
          "time": 145.333515,
          "velocity": 0.6062992125984252
        },
        {
          "duration": 0.03333337499998379,
          "durationTicks": 12,
          "midi": 26,
          "name": "D1",
          "ticks": 52368,
          "time": 145.4668485,
          "velocity": 0.7165354330708661
        },
        {
          "duration": 0.03333337500001221,
          "durationTicks": 12,
          "midi": 26,
          "name": "D1",
          "ticks": 52392,
          "time": 145.53351525,
          "velocity": 0.6062992125984252
        },
        {
          "duration": 0.016666687499991895,
          "durationTicks": 6,
          "midi": 26,
          "name": "D1",
          "ticks": 52416,
          "time": 145.600182,
          "velocity": 0.5511811023622047
        },
        {
          "duration": 0.016666687499991895,
          "durationTicks": 6,
          "midi": 26,
          "name": "D1",
          "ticks": 52428,
          "time": 145.633515375,
          "velocity": 0.5354330708661418
        },
        {
          "duration": 0.016666687500020316,
          "durationTicks": 6,
          "midi": 26,
          "name": "D1",
          "ticks": 52440,
          "time": 145.66684874999999,
          "velocity": 0.5039370078740157
        },
        {
          "duration": 0.016666687499991895,
          "durationTicks": 6,
          "midi": 26,
          "name": "D1",
          "ticks": 52452,
          "time": 145.700182125,
          "velocity": 0.5669291338582677
        },
        {
          "duration": 0.06666675000002442,
          "durationTicks": 24,
          "midi": 38,
          "name": "D2",
          "ticks": 52464,
          "time": 145.73351549999998,
          "velocity": 0.5748031496062992
        },
        {
          "duration": 0.03333337499998379,
          "durationTicks": 12,
          "midi": 38,
          "name": "D2",
          "ticks": 52488,
          "time": 145.80018225,
          "velocity": 0.7086614173228346
        },
        {
          "duration": 0.066666749999996,
          "durationTicks": 24,
          "midi": 26,
          "name": "D1",
          "ticks": 52512,
          "time": 145.866849,
          "velocity": 0.7007874015748031
        },
        {
          "duration": 0.066666749999996,
          "durationTicks": 24,
          "midi": 25,
          "name": "C#1",
          "ticks": 52560,
          "time": 146.0001825,
          "velocity": 0.5984251968503937
        },
        {
          "duration": 0.03333337500001221,
          "durationTicks": 12,
          "midi": 37,
          "name": "C#2",
          "ticks": 52608,
          "time": 146.133516,
          "velocity": 0.5826771653543307
        },
        {
          "duration": 0.03333337499998379,
          "durationTicks": 12,
          "midi": 25,
          "name": "C#1",
          "ticks": 52656,
          "time": 146.2668495,
          "velocity": 0.7086614173228346
        },
        {
          "duration": 0.03333337499998379,
          "durationTicks": 12,
          "midi": 25,
          "name": "C#1",
          "ticks": 52680,
          "time": 146.33351625,
          "velocity": 0.6692913385826772
        },
        {
          "duration": 0.03333337499998379,
          "durationTicks": 12,
          "midi": 25,
          "name": "C#1",
          "ticks": 52704,
          "time": 146.400183,
          "velocity": 0.6535433070866141
        },
        {
          "duration": 0.133333499999992,
          "durationTicks": 48,
          "midi": 37,
          "name": "C#2",
          "ticks": 52752,
          "time": 146.5335165,
          "velocity": 0.7244094488188977
        },
        {
          "duration": 0.03333337500001221,
          "durationTicks": 12,
          "midi": 25,
          "name": "C#1",
          "ticks": 52800,
          "time": 146.66684999999998,
          "velocity": 0.33858267716535434
        },
        {
          "duration": 0.03333337499998379,
          "durationTicks": 12,
          "midi": 25,
          "name": "C#1",
          "ticks": 52824,
          "time": 146.73351675,
          "velocity": 0.4409448818897638
        },
        {
          "duration": 0.133333499999992,
          "durationTicks": 48,
          "midi": 37,
          "name": "C#2",
          "ticks": 52848,
          "time": 146.8001835,
          "velocity": 0.6220472440944882
        },
        {
          "duration": 0.03333337500001221,
          "durationTicks": 12,
          "midi": 25,
          "name": "C#1",
          "ticks": 52896,
          "time": 146.933517,
          "velocity": 0.3700787401574803
        },
        {
          "duration": 0.03333337500001221,
          "durationTicks": 12,
          "midi": 25,
          "name": "C#1",
          "ticks": 52920,
          "time": 147.00018375,
          "velocity": 0.4645669291338583
        },
        {
          "duration": 0.03333337500001221,
          "durationTicks": 12,
          "midi": 25,
          "name": "C#1",
          "ticks": 52944,
          "time": 147.0668505,
          "velocity": 0.4251968503937008
        },
        {
          "duration": 0.03333337500001221,
          "durationTicks": 12,
          "midi": 25,
          "name": "C#1",
          "ticks": 52968,
          "time": 147.13351724999998,
          "velocity": 0.33070866141732286
        },
        {
          "duration": 0.13333350000002042,
          "durationTicks": 48,
          "midi": 30,
          "name": "F#1",
          "ticks": 52992,
          "time": 147.20018399999998,
          "velocity": 0.6692913385826772
        },
        {
          "duration": 0.03333337499998379,
          "durationTicks": 12,
          "midi": 30,
          "name": "F#1",
          "ticks": 53040,
          "time": 147.3335175,
          "velocity": 0.4330708661417323
        },
        {
          "duration": 0.133333499999992,
          "durationTicks": 48,
          "midi": 42,
          "name": "F#2",
          "ticks": 53088,
          "time": 147.466851,
          "velocity": 0.6929133858267716
        },
        {
          "duration": 0.03333337500001221,
          "durationTicks": 12,
          "midi": 30,
          "name": "F#1",
          "ticks": 53136,
          "time": 147.60018449999998,
          "velocity": 0.7401574803149606
        },
        {
          "duration": 0.03333337500001221,
          "durationTicks": 12,
          "midi": 30,
          "name": "F#1",
          "ticks": 53160,
          "time": 147.66685124999998,
          "velocity": 0.6299212598425197
        },
        {
          "duration": 0.03333337499998379,
          "durationTicks": 12,
          "midi": 30,
          "name": "F#1",
          "ticks": 53184,
          "time": 147.733518,
          "velocity": 0.7165354330708661
        },
        {
          "duration": 0.03333337499998379,
          "durationTicks": 12,
          "midi": 30,
          "name": "F#1",
          "ticks": 53208,
          "time": 147.80018475,
          "velocity": 0.7322834645669292
        },
        {
          "duration": 0.133333499999992,
          "durationTicks": 48,
          "midi": 42,
          "name": "F#2",
          "ticks": 53232,
          "time": 147.8668515,
          "velocity": 0.7401574803149606
        },
        {
          "duration": 0.03333337500001221,
          "durationTicks": 12,
          "midi": 30,
          "name": "F#1",
          "ticks": 53280,
          "time": 148.000185,
          "velocity": 0.30708661417322836
        },
        {
          "duration": 0.03333337500001221,
          "durationTicks": 12,
          "midi": 42,
          "name": "F#2",
          "ticks": 53304,
          "time": 148.06685174999998,
          "velocity": 0.4566929133858268
        },
        {
          "duration": 0.03333337500001221,
          "durationTicks": 12,
          "midi": 32,
          "name": "G#1",
          "ticks": 53328,
          "time": 148.13351849999998,
          "velocity": 0.7086614173228346
        },
        {
          "duration": 0.03333337499998379,
          "durationTicks": 12,
          "midi": 44,
          "name": "G#2",
          "ticks": 53352,
          "time": 148.20018525,
          "velocity": 0.7165354330708661
        },
        {
          "duration": 0.12222237500000688,
          "durationTicks": 44,
          "midi": 44,
          "name": "G#2",
          "ticks": 53424,
          "time": 148.4001855,
          "velocity": 0.6929133858267716
        },
        {
          "duration": 0.03333337500001221,
          "durationTicks": 12,
          "midi": 32,
          "name": "G#1",
          "ticks": 53472,
          "time": 148.53351899999998,
          "velocity": 0.5905511811023622
        },
        {
          "duration": 0.03333337500001221,
          "durationTicks": 12,
          "midi": 32,
          "name": "G#1",
          "ticks": 53488,
          "time": 148.57796349999998,
          "velocity": 0.6771653543307087
        },
        {
          "duration": 0.03333337499998379,
          "durationTicks": 12,
          "midi": 32,
          "name": "G#1",
          "ticks": 53504,
          "time": 148.622408,
          "velocity": 0.7559055118110236
        },
        {
          "duration": 0.03333337499998379,
          "durationTicks": 12,
          "midi": 44,
          "name": "G#2",
          "ticks": 53520,
          "time": 148.6668525,
          "velocity": 0.6299212598425197
        },
        {
          "duration": 0.03333337499998379,
          "durationTicks": 12,
          "midi": 44,
          "name": "G#2",
          "ticks": 53544,
          "time": 148.73351925,
          "velocity": 0.5984251968503937
        },
        {
          "duration": 0.03333337499998379,
          "durationTicks": 12,
          "midi": 32,
          "name": "G#1",
          "ticks": 53568,
          "time": 148.800186,
          "velocity": 0.7322834645669292
        },
        {
          "duration": 0.05555562500001088,
          "durationTicks": 20,
          "midi": 32,
          "name": "G#1",
          "ticks": 53616,
          "time": 148.9335195,
          "velocity": 0.4645669291338583
        },
        {
          "duration": 0.05555562500001088,
          "durationTicks": 20,
          "midi": 44,
          "name": "G#2",
          "ticks": 53664,
          "time": 149.06685299999998,
          "velocity": 0.6692913385826772
        },
        {
          "duration": 0.05555562500001088,
          "durationTicks": 20,
          "midi": 44,
          "name": "G#2",
          "ticks": 53736,
          "time": 149.26685325,
          "velocity": 0.6141732283464567
        },
        {
          "duration": 0.10000012500000821,
          "durationTicks": 36,
          "midi": 26,
          "name": "D1",
          "ticks": 53760,
          "time": 149.33352,
          "velocity": 0.6929133858267716
        },
        {
          "duration": 0.03333337500001221,
          "durationTicks": 12,
          "midi": 26,
          "name": "D1",
          "ticks": 53808,
          "time": 149.46685349999998,
          "velocity": 0.6456692913385826
        },
        {
          "duration": 0.10000012499997979,
          "durationTicks": 36,
          "midi": 38,
          "name": "D2",
          "ticks": 53856,
          "time": 149.600187,
          "velocity": 0.6062992125984252
        },
        {
          "duration": 0.03333337499998379,
          "durationTicks": 12,
          "midi": 26,
          "name": "D1",
          "ticks": 53904,
          "time": 149.7335205,
          "velocity": 0.7165354330708661
        },
        {
          "duration": 0.03333337500001221,
          "durationTicks": 12,
          "midi": 26,
          "name": "D1",
          "ticks": 53928,
          "time": 149.80018725,
          "velocity": 0.6062992125984252
        },
        {
          "duration": 0.016666687499991895,
          "durationTicks": 6,
          "midi": 26,
          "name": "D1",
          "ticks": 53952,
          "time": 149.866854,
          "velocity": 0.5511811023622047
        },
        {
          "duration": 0.016666687499991895,
          "durationTicks": 6,
          "midi": 26,
          "name": "D1",
          "ticks": 53964,
          "time": 149.900187375,
          "velocity": 0.5354330708661418
        },
        {
          "duration": 0.016666687500020316,
          "durationTicks": 6,
          "midi": 26,
          "name": "D1",
          "ticks": 53976,
          "time": 149.93352074999999,
          "velocity": 0.5039370078740157
        },
        {
          "duration": 0.016666687499991895,
          "durationTicks": 6,
          "midi": 26,
          "name": "D1",
          "ticks": 53988,
          "time": 149.966854125,
          "velocity": 0.5669291338582677
        },
        {
          "duration": 0.06666675000002442,
          "durationTicks": 24,
          "midi": 38,
          "name": "D2",
          "ticks": 54000,
          "time": 150.00018749999998,
          "velocity": 0.5748031496062992
        },
        {
          "duration": 0.03333337499998379,
          "durationTicks": 12,
          "midi": 38,
          "name": "D2",
          "ticks": 54024,
          "time": 150.06685425,
          "velocity": 0.7086614173228346
        },
        {
          "duration": 0.066666749999996,
          "durationTicks": 24,
          "midi": 26,
          "name": "D1",
          "ticks": 54048,
          "time": 150.133521,
          "velocity": 0.7007874015748031
        },
        {
          "duration": 0.066666749999996,
          "durationTicks": 24,
          "midi": 25,
          "name": "C#1",
          "ticks": 54096,
          "time": 150.2668545,
          "velocity": 0.5984251968503937
        },
        {
          "duration": 0.03333337500001221,
          "durationTicks": 12,
          "midi": 37,
          "name": "C#2",
          "ticks": 54144,
          "time": 150.40018799999999,
          "velocity": 0.5826771653543307
        },
        {
          "duration": 0.05555562500001088,
          "durationTicks": 20,
          "midi": 26,
          "name": "D1",
          "ticks": 54144,
          "time": 150.40018799999999,
          "velocity": 0.6220472440944882
        },
        {
          "duration": 0.05555562500001088,
          "durationTicks": 20,
          "midi": 27,
          "name": "D#1",
          "ticks": 54168,
          "time": 150.46685474999998,
          "velocity": 0.6377952755905512
        },
        {
          "duration": 0.05555562500001088,
          "durationTicks": 20,
          "midi": 28,
          "name": "E1",
          "ticks": 54192,
          "time": 150.5335215,
          "velocity": 0.6456692913385826
        },
        {
          "duration": 0.03333337499998379,
          "durationTicks": 12,
          "midi": 25,
          "name": "C#1",
          "ticks": 54192,
          "time": 150.5335215,
          "velocity": 0.7086614173228346
        },
        {
          "duration": 0.03333337499998379,
          "durationTicks": 12,
          "midi": 25,
          "name": "C#1",
          "ticks": 54216,
          "time": 150.60018825,
          "velocity": 0.6692913385826772
        },
        {
          "duration": 0.05555562500001088,
          "durationTicks": 20,
          "midi": 29,
          "name": "F1",
          "ticks": 54216,
          "time": 150.60018825,
          "velocity": 0.6614173228346457
        },
        {
          "duration": 0.05555562500001088,
          "durationTicks": 20,
          "midi": 30,
          "name": "F#1",
          "ticks": 54240,
          "time": 150.666855,
          "velocity": 0.6771653543307087
        },
        {
          "duration": 0.03333337499998379,
          "durationTicks": 12,
          "midi": 25,
          "name": "C#1",
          "ticks": 54240,
          "time": 150.666855,
          "velocity": 0.6535433070866141
        },
        {
          "duration": 0.05555562500001088,
          "durationTicks": 20,
          "midi": 31,
          "name": "G1",
          "ticks": 54264,
          "time": 150.73352175,
          "velocity": 0.6850393700787402
        },
        {
          "duration": 0.05555562500001088,
          "durationTicks": 20,
          "midi": 32,
          "name": "G#1",
          "ticks": 54288,
          "time": 150.8001885,
          "velocity": 0.7007874015748031
        },
        {
          "duration": 0.133333499999992,
          "durationTicks": 48,
          "midi": 37,
          "name": "C#2",
          "ticks": 54288,
          "time": 150.8001885,
          "velocity": 0.7244094488188977
        },
        {
          "duration": 0.05555562500001088,
          "durationTicks": 20,
          "midi": 33,
          "name": "A1",
          "ticks": 54312,
          "time": 150.86685525,
          "velocity": 0.7086614173228346
        },
        {
          "duration": 0.05555562500001088,
          "durationTicks": 20,
          "midi": 34,
          "name": "A#1",
          "ticks": 54336,
          "time": 150.93352199999998,
          "velocity": 0.7244094488188977
        },
        {
          "duration": 0.03333337500001221,
          "durationTicks": 12,
          "midi": 25,
          "name": "C#1",
          "ticks": 54336,
          "time": 150.93352199999998,
          "velocity": 0.33858267716535434
        },
        {
          "duration": 0.055555624999982456,
          "durationTicks": 20,
          "midi": 35,
          "name": "B1",
          "ticks": 54360,
          "time": 151.00018875,
          "velocity": 0.7322834645669292
        },
        {
          "duration": 0.03333337499998379,
          "durationTicks": 12,
          "midi": 25,
          "name": "C#1",
          "ticks": 54360,
          "time": 151.00018875,
          "velocity": 0.4409448818897638
        },
        {
          "duration": 0.05555562500001088,
          "durationTicks": 20,
          "midi": 36,
          "name": "C2",
          "ticks": 54384,
          "time": 151.0668555,
          "velocity": 0.7480314960629921
        },
        {
          "duration": 0.05555562500001088,
          "durationTicks": 20,
          "midi": 37,
          "name": "C#2",
          "ticks": 54408,
          "time": 151.13352225,
          "velocity": 0.7637795275590551
        },
        {
          "duration": 0.05555562500001088,
          "durationTicks": 20,
          "midi": 38,
          "name": "D2",
          "ticks": 54432,
          "time": 151.200189,
          "velocity": 0.7716535433070866
        },
        {
          "duration": 0.03333337500001221,
          "durationTicks": 12,
          "midi": 25,
          "name": "C#1",
          "ticks": 54432,
          "time": 151.200189,
          "velocity": 0.3700787401574803
        },
        {
          "duration": 0.05555562500001088,
          "durationTicks": 20,
          "midi": 39,
          "name": "D#2",
          "ticks": 54456,
          "time": 151.26685575,
          "velocity": 0.7874015748031497
        },
        {
          "duration": 0.03333337500001221,
          "durationTicks": 12,
          "midi": 25,
          "name": "C#1",
          "ticks": 54456,
          "time": 151.26685575,
          "velocity": 0.4645669291338583
        },
        {
          "duration": 0.05555562500001088,
          "durationTicks": 20,
          "midi": 40,
          "name": "E2",
          "ticks": 54480,
          "time": 151.3335225,
          "velocity": 0.7952755905511811
        },
        {
          "duration": 0.03333337500001221,
          "durationTicks": 12,
          "midi": 25,
          "name": "C#1",
          "ticks": 54480,
          "time": 151.3335225,
          "velocity": 0.4251968503937008
        },
        {
          "duration": 0.05555562500001088,
          "durationTicks": 20,
          "midi": 41,
          "name": "F2",
          "ticks": 54504,
          "time": 151.40018924999998,
          "velocity": 0.8110236220472441
        },
        {
          "duration": 0.03333337500001221,
          "durationTicks": 12,
          "midi": 25,
          "name": "C#1",
          "ticks": 54504,
          "time": 151.40018924999998,
          "velocity": 0.33070866141732286
        },
        {
          "duration": 0.13333350000002042,
          "durationTicks": 48,
          "midi": 37,
          "name": "C#2",
          "ticks": 56064,
          "time": 155.73352799999998,
          "velocity": 0.4881889763779528
        },
        {
          "duration": 0.133333499999992,
          "durationTicks": 48,
          "midi": 38,
          "name": "D2",
          "ticks": 56112,
          "time": 155.8668615,
          "velocity": 0.49606299212598426
        },
        {
          "duration": 0.133333499999992,
          "durationTicks": 48,
          "midi": 39,
          "name": "D#2",
          "ticks": 56160,
          "time": 156.000195,
          "velocity": 0.5118110236220472
        },
        {
          "duration": 0.13333350000002042,
          "durationTicks": 48,
          "midi": 40,
          "name": "E2",
          "ticks": 56208,
          "time": 156.13352849999998,
          "velocity": 0.5196850393700787
        },
        {
          "duration": 0.133333499999992,
          "durationTicks": 48,
          "midi": 41,
          "name": "F2",
          "ticks": 56256,
          "time": 156.266862,
          "velocity": 0.5275590551181102
        },
        {
          "duration": 0.133333499999992,
          "durationTicks": 48,
          "midi": 42,
          "name": "F#2",
          "ticks": 56304,
          "time": 156.4001955,
          "velocity": 0.5354330708661418
        },
        {
          "duration": 0.133333499999992,
          "durationTicks": 48,
          "midi": 43,
          "name": "G2",
          "ticks": 56352,
          "time": 156.533529,
          "velocity": 0.5511811023622047
        },
        {
          "duration": 0.13333350000002042,
          "durationTicks": 48,
          "midi": 44,
          "name": "G#2",
          "ticks": 56400,
          "time": 156.66686249999998,
          "velocity": 0.5590551181102362
        },
        {
          "duration": 0.133333499999992,
          "durationTicks": 48,
          "midi": 45,
          "name": "A2",
          "ticks": 56448,
          "time": 156.800196,
          "velocity": 0.5669291338582677
        },
        {
          "duration": 0.133333499999992,
          "durationTicks": 48,
          "midi": 46,
          "name": "A#2",
          "ticks": 56496,
          "time": 156.9335295,
          "velocity": 0.5826771653543307
        },
        {
          "duration": 0.13333350000002042,
          "durationTicks": 48,
          "midi": 47,
          "name": "B2",
          "ticks": 56544,
          "time": 157.06686299999998,
          "velocity": 0.5905511811023622
        },
        {
          "duration": 0.133333499999992,
          "durationTicks": 48,
          "midi": 48,
          "name": "C3",
          "ticks": 56592,
          "time": 157.2001965,
          "velocity": 0.5984251968503937
        },
        {
          "duration": 0.133333499999992,
          "durationTicks": 48,
          "midi": 49,
          "name": "C#3",
          "ticks": 56640,
          "time": 157.33353,
          "velocity": 0.6062992125984252
        },
        {
          "duration": 0.133333499999992,
          "durationTicks": 48,
          "midi": 50,
          "name": "D3",
          "ticks": 56688,
          "time": 157.4668635,
          "velocity": 0.6220472440944882
        },
        {
          "duration": 0.13333350000002042,
          "durationTicks": 48,
          "midi": 51,
          "name": "D#3",
          "ticks": 56736,
          "time": 157.60019699999998,
          "velocity": 0.6299212598425197
        },
        {
          "duration": 0.133333499999992,
          "durationTicks": 48,
          "midi": 52,
          "name": "E3",
          "ticks": 56784,
          "time": 157.7335305,
          "velocity": 0.6377952755905512
        },
        {
          "duration": 0.066666749999996,
          "durationTicks": 24,
          "midi": 53,
          "name": "F3",
          "ticks": 56832,
          "time": 157.866864,
          "velocity": 0.6535433070866141
        },
        {
          "duration": 0.066666749999996,
          "durationTicks": 24,
          "midi": 34,
          "name": "A#1",
          "ticks": 56832,
          "time": 157.866864,
          "velocity": 0.5196850393700787
        },
        {
          "duration": 0.066666749999996,
          "durationTicks": 24,
          "midi": 53,
          "name": "F3",
          "ticks": 56856,
          "time": 157.93353075,
          "velocity": 0.6535433070866141
        },
        {
          "duration": 0.066666749999996,
          "durationTicks": 24,
          "midi": 34,
          "name": "A#1",
          "ticks": 56856,
          "time": 157.93353075,
          "velocity": 0.5354330708661418
        },
        {
          "duration": 0.066666749999996,
          "durationTicks": 24,
          "midi": 54,
          "name": "F#3",
          "ticks": 56880,
          "time": 158.00019749999998,
          "velocity": 0.6614173228346457
        },
        {
          "duration": 0.066666749999996,
          "durationTicks": 24,
          "midi": 35,
          "name": "B1",
          "ticks": 56880,
          "time": 158.00019749999998,
          "velocity": 0.5433070866141733
        },
        {
          "duration": 0.06666675000002442,
          "durationTicks": 24,
          "midi": 54,
          "name": "F#3",
          "ticks": 56904,
          "time": 158.06686424999998,
          "velocity": 0.6614173228346457
        },
        {
          "duration": 0.06666675000002442,
          "durationTicks": 24,
          "midi": 35,
          "name": "B1",
          "ticks": 56904,
          "time": 158.06686424999998,
          "velocity": 0.5511811023622047
        },
        {
          "duration": 0.066666749999996,
          "durationTicks": 24,
          "midi": 55,
          "name": "G3",
          "ticks": 56928,
          "time": 158.133531,
          "velocity": 0.6692913385826772
        },
        {
          "duration": 0.066666749999996,
          "durationTicks": 24,
          "midi": 36,
          "name": "C2",
          "ticks": 56928,
          "time": 158.133531,
          "velocity": 0.5590551181102362
        },
        {
          "duration": 0.066666749999996,
          "durationTicks": 24,
          "midi": 55,
          "name": "G3",
          "ticks": 56952,
          "time": 158.20019775,
          "velocity": 0.6771653543307087
        },
        {
          "duration": 0.066666749999996,
          "durationTicks": 24,
          "midi": 36,
          "name": "C2",
          "ticks": 56952,
          "time": 158.20019775,
          "velocity": 0.5669291338582677
        },
        {
          "duration": 0.066666749999996,
          "durationTicks": 24,
          "midi": 56,
          "name": "G#3",
          "ticks": 56976,
          "time": 158.2668645,
          "velocity": 0.6771653543307087
        },
        {
          "duration": 0.066666749999996,
          "durationTicks": 24,
          "midi": 37,
          "name": "C#2",
          "ticks": 56976,
          "time": 158.2668645,
          "velocity": 0.5826771653543307
        },
        {
          "duration": 0.066666749999996,
          "durationTicks": 24,
          "midi": 56,
          "name": "G#3",
          "ticks": 57000,
          "time": 158.33353125,
          "velocity": 0.6850393700787402
        },
        {
          "duration": 0.066666749999996,
          "durationTicks": 24,
          "midi": 37,
          "name": "C#2",
          "ticks": 57000,
          "time": 158.33353125,
          "velocity": 0.5905511811023622
        },
        {
          "duration": 0.066666749999996,
          "durationTicks": 24,
          "midi": 57,
          "name": "A3",
          "ticks": 57024,
          "time": 158.400198,
          "velocity": 0.6929133858267716
        },
        {
          "duration": 0.066666749999996,
          "durationTicks": 24,
          "midi": 38,
          "name": "D2",
          "ticks": 57024,
          "time": 158.400198,
          "velocity": 0.5984251968503937
        },
        {
          "duration": 0.066666749999996,
          "durationTicks": 24,
          "midi": 57,
          "name": "A3",
          "ticks": 57048,
          "time": 158.46686474999998,
          "velocity": 0.6929133858267716
        },
        {
          "duration": 0.066666749999996,
          "durationTicks": 24,
          "midi": 38,
          "name": "D2",
          "ticks": 57048,
          "time": 158.46686474999998,
          "velocity": 0.6062992125984252
        },
        {
          "duration": 0.06666675000002442,
          "durationTicks": 24,
          "midi": 58,
          "name": "A#3",
          "ticks": 57072,
          "time": 158.53353149999998,
          "velocity": 0.7007874015748031
        },
        {
          "duration": 0.06666675000002442,
          "durationTicks": 24,
          "midi": 39,
          "name": "D#2",
          "ticks": 57072,
          "time": 158.53353149999998,
          "velocity": 0.6141732283464567
        },
        {
          "duration": 0.066666749999996,
          "durationTicks": 24,
          "midi": 58,
          "name": "A#3",
          "ticks": 57096,
          "time": 158.60019825,
          "velocity": 0.7086614173228346
        },
        {
          "duration": 0.066666749999996,
          "durationTicks": 24,
          "midi": 39,
          "name": "D#2",
          "ticks": 57096,
          "time": 158.60019825,
          "velocity": 0.6299212598425197
        },
        {
          "duration": 0.066666749999996,
          "durationTicks": 24,
          "midi": 59,
          "name": "B3",
          "ticks": 57120,
          "time": 158.666865,
          "velocity": 0.7086614173228346
        },
        {
          "duration": 0.066666749999996,
          "durationTicks": 24,
          "midi": 40,
          "name": "E2",
          "ticks": 57120,
          "time": 158.666865,
          "velocity": 0.6377952755905512
        },
        {
          "duration": 0.066666749999996,
          "durationTicks": 24,
          "midi": 59,
          "name": "B3",
          "ticks": 57144,
          "time": 158.73353175,
          "velocity": 0.7165354330708661
        },
        {
          "duration": 0.066666749999996,
          "durationTicks": 24,
          "midi": 40,
          "name": "E2",
          "ticks": 57144,
          "time": 158.73353175,
          "velocity": 0.6456692913385826
        },
        {
          "duration": 0.066666749999996,
          "durationTicks": 24,
          "midi": 60,
          "name": "C4",
          "ticks": 57168,
          "time": 158.8001985,
          "velocity": 0.7244094488188977
        },
        {
          "duration": 0.066666749999996,
          "durationTicks": 24,
          "midi": 41,
          "name": "F2",
          "ticks": 57168,
          "time": 158.8001985,
          "velocity": 0.6535433070866141
        },
        {
          "duration": 0.066666749999996,
          "durationTicks": 24,
          "midi": 60,
          "name": "C4",
          "ticks": 57192,
          "time": 158.86686525,
          "velocity": 0.7244094488188977
        },
        {
          "duration": 0.066666749999996,
          "durationTicks": 24,
          "midi": 41,
          "name": "F2",
          "ticks": 57192,
          "time": 158.86686525,
          "velocity": 0.6614173228346457
        },
        {
          "duration": 0.03333337500001221,
          "durationTicks": 12,
          "midi": 61,
          "name": "C#4",
          "ticks": 57216,
          "time": 158.93353199999999,
          "velocity": 0.7322834645669292
        },
        {
          "duration": 0.03333337500001221,
          "durationTicks": 12,
          "midi": 42,
          "name": "F#2",
          "ticks": 57216,
          "time": 158.93353199999999,
          "velocity": 0.6771653543307087
        },
        {
          "duration": 0.03333337500001221,
          "durationTicks": 12,
          "midi": 62,
          "name": "D4",
          "ticks": 57240,
          "time": 159.00019874999998,
          "velocity": 0.7322834645669292
        },
        {
          "duration": 0.03333337500001221,
          "durationTicks": 12,
          "midi": 43,
          "name": "G2",
          "ticks": 57240,
          "time": 159.00019874999998,
          "velocity": 0.6850393700787402
        },
        {
          "duration": 0.03333337499998379,
          "durationTicks": 12,
          "midi": 63,
          "name": "D#4",
          "ticks": 57264,
          "time": 159.0668655,
          "velocity": 0.7401574803149606
        },
        {
          "duration": 0.03333337499998379,
          "durationTicks": 12,
          "midi": 44,
          "name": "G#2",
          "ticks": 57264,
          "time": 159.0668655,
          "velocity": 0.6929133858267716
        },
        {
          "duration": 0.03333337499998379,
          "durationTicks": 12,
          "midi": 64,
          "name": "E4",
          "ticks": 57288,
          "time": 159.13353225,
          "velocity": 0.7480314960629921
        },
        {
          "duration": 0.03333337499998379,
          "durationTicks": 12,
          "midi": 45,
          "name": "A2",
          "ticks": 57288,
          "time": 159.13353225,
          "velocity": 0.7007874015748031
        },
        {
          "duration": 0.03333337499998379,
          "durationTicks": 12,
          "midi": 65,
          "name": "F4",
          "ticks": 57312,
          "time": 159.200199,
          "velocity": 0.7480314960629921
        },
        {
          "duration": 0.03333337499998379,
          "durationTicks": 12,
          "midi": 46,
          "name": "A#2",
          "ticks": 57312,
          "time": 159.200199,
          "velocity": 0.7086614173228346
        },
        {
          "duration": 0.03333337500001221,
          "durationTicks": 12,
          "midi": 66,
          "name": "F#4",
          "ticks": 57336,
          "time": 159.26686575,
          "velocity": 0.7559055118110236
        },
        {
          "duration": 0.03333337500001221,
          "durationTicks": 12,
          "midi": 47,
          "name": "B2",
          "ticks": 57336,
          "time": 159.26686575,
          "velocity": 0.7244094488188977
        },
        {
          "duration": 0.03333337500001221,
          "durationTicks": 12,
          "midi": 67,
          "name": "G4",
          "ticks": 57360,
          "time": 159.3335325,
          "velocity": 0.7637795275590551
        },
        {
          "duration": 0.03333337500001221,
          "durationTicks": 12,
          "midi": 48,
          "name": "C3",
          "ticks": 57360,
          "time": 159.3335325,
          "velocity": 0.7322834645669292
        },
        {
          "duration": 0.03333337500001221,
          "durationTicks": 12,
          "midi": 68,
          "name": "G#4",
          "ticks": 57384,
          "time": 159.40019925,
          "velocity": 0.7637795275590551
        },
        {
          "duration": 0.03333337500001221,
          "durationTicks": 12,
          "midi": 49,
          "name": "C#3",
          "ticks": 57384,
          "time": 159.40019925,
          "velocity": 0.7401574803149606
        },
        {
          "duration": 0.03333337500001221,
          "durationTicks": 12,
          "midi": 69,
          "name": "A4",
          "ticks": 57408,
          "time": 159.46686599999998,
          "velocity": 0.7716535433070866
        },
        {
          "duration": 0.03333337500001221,
          "durationTicks": 12,
          "midi": 50,
          "name": "D3",
          "ticks": 57408,
          "time": 159.46686599999998,
          "velocity": 0.7480314960629921
        },
        {
          "duration": 0.03333337499998379,
          "durationTicks": 12,
          "midi": 70,
          "name": "A#4",
          "ticks": 57432,
          "time": 159.53353275,
          "velocity": 0.7795275590551181
        },
        {
          "duration": 0.03333337499998379,
          "durationTicks": 12,
          "midi": 51,
          "name": "D#3",
          "ticks": 57432,
          "time": 159.53353275,
          "velocity": 0.7559055118110236
        },
        {
          "duration": 0.03333337499998379,
          "durationTicks": 12,
          "midi": 71,
          "name": "B4",
          "ticks": 57456,
          "time": 159.6001995,
          "velocity": 0.7795275590551181
        },
        {
          "duration": 0.03333337499998379,
          "durationTicks": 12,
          "midi": 52,
          "name": "E3",
          "ticks": 57456,
          "time": 159.6001995,
          "velocity": 0.7716535433070866
        },
        {
          "duration": 0.03333337499998379,
          "durationTicks": 12,
          "midi": 72,
          "name": "C5",
          "ticks": 57480,
          "time": 159.66686625,
          "velocity": 0.7874015748031497
        },
        {
          "duration": 0.03333337499998379,
          "durationTicks": 12,
          "midi": 53,
          "name": "F3",
          "ticks": 57480,
          "time": 159.66686625,
          "velocity": 0.7795275590551181
        },
        {
          "duration": 0.03333337500001221,
          "durationTicks": 12,
          "midi": 73,
          "name": "C#5",
          "ticks": 57504,
          "time": 159.733533,
          "velocity": 0.7874015748031497
        },
        {
          "duration": 0.03333337500001221,
          "durationTicks": 12,
          "midi": 54,
          "name": "F#3",
          "ticks": 57504,
          "time": 159.733533,
          "velocity": 0.7874015748031497
        },
        {
          "duration": 0.03333337500001221,
          "durationTicks": 12,
          "midi": 74,
          "name": "D5",
          "ticks": 57528,
          "time": 159.80019975,
          "velocity": 0.7952755905511811
        },
        {
          "duration": 0.03333337500001221,
          "durationTicks": 12,
          "midi": 55,
          "name": "G3",
          "ticks": 57528,
          "time": 159.80019975,
          "velocity": 0.7952755905511811
        },
        {
          "duration": 0.03333337500001221,
          "durationTicks": 12,
          "midi": 75,
          "name": "D#5",
          "ticks": 57552,
          "time": 159.8668665,
          "velocity": 0.8031496062992126
        },
        {
          "duration": 0.03333337500001221,
          "durationTicks": 12,
          "midi": 56,
          "name": "G#3",
          "ticks": 57552,
          "time": 159.8668665,
          "velocity": 0.8031496062992126
        },
        {
          "duration": 0.03333337500001221,
          "durationTicks": 12,
          "midi": 76,
          "name": "E5",
          "ticks": 57576,
          "time": 159.93353324999998,
          "velocity": 0.8031496062992126
        },
        {
          "duration": 0.03333337500001221,
          "durationTicks": 12,
          "midi": 57,
          "name": "A3",
          "ticks": 57576,
          "time": 159.93353324999998,
          "velocity": 0.8188976377952756
        },
        {
          "duration": 0.066666749999996,
          "durationTicks": 24,
          "midi": 46,
          "name": "A#2",
          "ticks": 61104,
          "time": 169.7335455,
          "velocity": 0.5039370078740157
        },
        {
          "duration": 0.066666749999996,
          "durationTicks": 24,
          "midi": 34,
          "name": "A#1",
          "ticks": 61104,
          "time": 169.7335455,
          "velocity": 0.5039370078740157
        },
        {
          "duration": 0.066666749999996,
          "durationTicks": 24,
          "midi": 47,
          "name": "B2",
          "ticks": 61128,
          "time": 169.80021225,
          "velocity": 0.5118110236220472
        },
        {
          "duration": 0.066666749999996,
          "durationTicks": 24,
          "midi": 35,
          "name": "B1",
          "ticks": 61128,
          "time": 169.80021225,
          "velocity": 0.5118110236220472
        },
        {
          "duration": 0.066666749999996,
          "durationTicks": 24,
          "midi": 48,
          "name": "C3",
          "ticks": 61152,
          "time": 169.86687899999998,
          "velocity": 0.5275590551181102
        },
        {
          "duration": 0.066666749999996,
          "durationTicks": 24,
          "midi": 36,
          "name": "C2",
          "ticks": 61152,
          "time": 169.86687899999998,
          "velocity": 0.5275590551181102
        },
        {
          "duration": 0.06666675000002442,
          "durationTicks": 24,
          "midi": 49,
          "name": "C#3",
          "ticks": 61176,
          "time": 169.93354574999998,
          "velocity": 0.5354330708661418
        },
        {
          "duration": 0.06666675000002442,
          "durationTicks": 24,
          "midi": 37,
          "name": "C#2",
          "ticks": 61176,
          "time": 169.93354574999998,
          "velocity": 0.5354330708661418
        },
        {
          "duration": 0.066666749999996,
          "durationTicks": 24,
          "midi": 50,
          "name": "D3",
          "ticks": 61200,
          "time": 170.0002125,
          "velocity": 0.5433070866141733
        },
        {
          "duration": 0.066666749999996,
          "durationTicks": 24,
          "midi": 38,
          "name": "D2",
          "ticks": 61200,
          "time": 170.0002125,
          "velocity": 0.5433070866141733
        },
        {
          "duration": 0.066666749999996,
          "durationTicks": 24,
          "midi": 51,
          "name": "D#3",
          "ticks": 61224,
          "time": 170.06687925,
          "velocity": 0.5511811023622047
        },
        {
          "duration": 0.066666749999996,
          "durationTicks": 24,
          "midi": 39,
          "name": "D#2",
          "ticks": 61224,
          "time": 170.06687925,
          "velocity": 0.5511811023622047
        },
        {
          "duration": 0.066666749999996,
          "durationTicks": 24,
          "midi": 40,
          "name": "E2",
          "ticks": 61248,
          "time": 170.133546,
          "velocity": 0.5669291338582677
        },
        {
          "duration": 0.066666749999996,
          "durationTicks": 24,
          "midi": 52,
          "name": "E3",
          "ticks": 61248,
          "time": 170.133546,
          "velocity": 0.5669291338582677
        },
        {
          "duration": 0.066666749999996,
          "durationTicks": 24,
          "midi": 53,
          "name": "F3",
          "ticks": 61272,
          "time": 170.20021275,
          "velocity": 0.5748031496062992
        },
        {
          "duration": 0.066666749999996,
          "durationTicks": 24,
          "midi": 41,
          "name": "F2",
          "ticks": 61272,
          "time": 170.20021275,
          "velocity": 0.5748031496062992
        },
        {
          "duration": 0.066666749999996,
          "durationTicks": 24,
          "midi": 54,
          "name": "F#3",
          "ticks": 61296,
          "time": 170.2668795,
          "velocity": 0.5826771653543307
        },
        {
          "duration": 0.066666749999996,
          "durationTicks": 24,
          "midi": 42,
          "name": "F#2",
          "ticks": 61296,
          "time": 170.2668795,
          "velocity": 0.5826771653543307
        },
        {
          "duration": 0.066666749999996,
          "durationTicks": 24,
          "midi": 43,
          "name": "G2",
          "ticks": 61320,
          "time": 170.33354624999998,
          "velocity": 0.5905511811023622
        },
        {
          "duration": 0.066666749999996,
          "durationTicks": 24,
          "midi": 55,
          "name": "G3",
          "ticks": 61320,
          "time": 170.33354624999998,
          "velocity": 0.5905511811023622
        },
        {
          "duration": 0.06666675000002442,
          "durationTicks": 24,
          "midi": 56,
          "name": "G#3",
          "ticks": 61344,
          "time": 170.40021299999998,
          "velocity": 0.6062992125984252
        },
        {
          "duration": 0.06666675000002442,
          "durationTicks": 24,
          "midi": 44,
          "name": "G#2",
          "ticks": 61344,
          "time": 170.40021299999998,
          "velocity": 0.6062992125984252
        },
        {
          "duration": 0.066666749999996,
          "durationTicks": 24,
          "midi": 57,
          "name": "A3",
          "ticks": 61368,
          "time": 170.46687975,
          "velocity": 0.6141732283464567
        },
        {
          "duration": 0.066666749999996,
          "durationTicks": 24,
          "midi": 45,
          "name": "A2",
          "ticks": 61368,
          "time": 170.46687975,
          "velocity": 0.6141732283464567
        },
        {
          "duration": 0.066666749999996,
          "durationTicks": 24,
          "midi": 46,
          "name": "A#2",
          "ticks": 61392,
          "time": 170.5335465,
          "velocity": 0.6220472440944882
        },
        {
          "duration": 0.066666749999996,
          "durationTicks": 24,
          "midi": 58,
          "name": "A#3",
          "ticks": 61392,
          "time": 170.5335465,
          "velocity": 0.6220472440944882
        },
        {
          "duration": 0.066666749999996,
          "durationTicks": 24,
          "midi": 47,
          "name": "B2",
          "ticks": 61416,
          "time": 170.60021325,
          "velocity": 0.6299212598425197
        },
        {
          "duration": 0.066666749999996,
          "durationTicks": 24,
          "midi": 59,
          "name": "B3",
          "ticks": 61416,
          "time": 170.60021325,
          "velocity": 0.6299212598425197
        },
        {
          "duration": 0.066666749999996,
          "durationTicks": 24,
          "midi": 48,
          "name": "C3",
          "ticks": 61440,
          "time": 170.66688,
          "velocity": 0.6377952755905512
        },
        {
          "duration": 0.066666749999996,
          "durationTicks": 24,
          "midi": 60,
          "name": "C4",
          "ticks": 61440,
          "time": 170.66688,
          "velocity": 0.6377952755905512
        },
        {
          "duration": 0.066666749999996,
          "durationTicks": 24,
          "midi": 49,
          "name": "C#3",
          "ticks": 61464,
          "time": 170.73354675,
          "velocity": 0.6535433070866141
        },
        {
          "duration": 0.066666749999996,
          "durationTicks": 24,
          "midi": 61,
          "name": "C#4",
          "ticks": 61464,
          "time": 170.73354675,
          "velocity": 0.6535433070866141
        },
        {
          "duration": 0.066666749999996,
          "durationTicks": 24,
          "midi": 62,
          "name": "D4",
          "ticks": 61488,
          "time": 170.80021349999998,
          "velocity": 0.6614173228346457
        },
        {
          "duration": 0.066666749999996,
          "durationTicks": 24,
          "midi": 50,
          "name": "D3",
          "ticks": 61488,
          "time": 170.80021349999998,
          "velocity": 0.6614173228346457
        },
        {
          "duration": 0.06666675000002442,
          "durationTicks": 24,
          "midi": 63,
          "name": "D#4",
          "ticks": 61512,
          "time": 170.86688024999998,
          "velocity": 0.6692913385826772
        },
        {
          "duration": 0.06666675000002442,
          "durationTicks": 24,
          "midi": 51,
          "name": "D#3",
          "ticks": 61512,
          "time": 170.86688024999998,
          "velocity": 0.6692913385826772
        },
        {
          "duration": 0.066666749999996,
          "durationTicks": 24,
          "midi": 64,
          "name": "E4",
          "ticks": 61536,
          "time": 170.933547,
          "velocity": 0.6771653543307087
        },
        {
          "duration": 0.066666749999996,
          "durationTicks": 24,
          "midi": 52,
          "name": "E3",
          "ticks": 61536,
          "time": 170.933547,
          "velocity": 0.6771653543307087
        },
        {
          "duration": 0.066666749999996,
          "durationTicks": 24,
          "midi": 53,
          "name": "F3",
          "ticks": 61560,
          "time": 171.00021375,
          "velocity": 0.6929133858267716
        },
        {
          "duration": 0.066666749999996,
          "durationTicks": 24,
          "midi": 65,
          "name": "F4",
          "ticks": 61560,
          "time": 171.00021375,
          "velocity": 0.6929133858267716
        },
        {
          "duration": 0.066666749999996,
          "durationTicks": 24,
          "midi": 54,
          "name": "F#3",
          "ticks": 61584,
          "time": 171.0668805,
          "velocity": 0.7007874015748031
        },
        {
          "duration": 0.066666749999996,
          "durationTicks": 24,
          "midi": 66,
          "name": "F#4",
          "ticks": 61584,
          "time": 171.0668805,
          "velocity": 0.7007874015748031
        },
        {
          "duration": 0.066666749999996,
          "durationTicks": 24,
          "midi": 55,
          "name": "G3",
          "ticks": 61608,
          "time": 171.13354725,
          "velocity": 0.7086614173228346
        },
        {
          "duration": 0.066666749999996,
          "durationTicks": 24,
          "midi": 67,
          "name": "G4",
          "ticks": 61608,
          "time": 171.13354725,
          "velocity": 0.7086614173228346
        },
        {
          "duration": 0.066666749999996,
          "durationTicks": 24,
          "midi": 47,
          "name": "B2",
          "ticks": 64560,
          "time": 179.33355749999998,
          "velocity": 0.3700787401574803
        },
        {
          "duration": 0.066666749999996,
          "durationTicks": 24,
          "midi": 34,
          "name": "A#1",
          "ticks": 64560,
          "time": 179.33355749999998,
          "velocity": 0.7322834645669292
        },
        {
          "duration": 0.066666749999996,
          "durationTicks": 24,
          "midi": 35,
          "name": "B1",
          "ticks": 64560,
          "time": 179.33355749999998,
          "velocity": 0.4881889763779528
        },
        {
          "duration": 0.066666749999996,
          "durationTicks": 24,
          "midi": 48,
          "name": "C3",
          "ticks": 64608,
          "time": 179.466891,
          "velocity": 0.3937007874015748
        },
        {
          "duration": 0.066666749999996,
          "durationTicks": 24,
          "midi": 36,
          "name": "C2",
          "ticks": 64608,
          "time": 179.466891,
          "velocity": 0.5118110236220472
        },
        {
          "duration": 0.066666749999996,
          "durationTicks": 24,
          "midi": 49,
          "name": "C#3",
          "ticks": 64656,
          "time": 179.6002245,
          "velocity": 0.4094488188976378
        },
        {
          "duration": 0.066666749999996,
          "durationTicks": 24,
          "midi": 37,
          "name": "C#2",
          "ticks": 64656,
          "time": 179.6002245,
          "velocity": 0.5275590551181102
        },
        {
          "duration": 0.066666749999996,
          "durationTicks": 24,
          "midi": 34,
          "name": "A#1",
          "ticks": 64656,
          "time": 179.6002245,
          "velocity": 0.7480314960629921
        },
        {
          "duration": 0.066666749999996,
          "durationTicks": 24,
          "midi": 50,
          "name": "D3",
          "ticks": 64704,
          "time": 179.733558,
          "velocity": 0.4330708661417323
        },
        {
          "duration": 0.066666749999996,
          "durationTicks": 24,
          "midi": 38,
          "name": "D2",
          "ticks": 64704,
          "time": 179.733558,
          "velocity": 0.5433070866141733
        },
        {
          "duration": 0.06666675000002442,
          "durationTicks": 24,
          "midi": 51,
          "name": "D#3",
          "ticks": 64752,
          "time": 179.86689149999998,
          "velocity": 0.4566929133858268
        },
        {
          "duration": 0.06666675000002442,
          "durationTicks": 24,
          "midi": 35,
          "name": "B1",
          "ticks": 64752,
          "time": 179.86689149999998,
          "velocity": 0.7559055118110236
        },
        {
          "duration": 0.06666675000002442,
          "durationTicks": 24,
          "midi": 39,
          "name": "D#2",
          "ticks": 64752,
          "time": 179.86689149999998,
          "velocity": 0.5590551181102362
        },
        {
          "duration": 0.066666749999996,
          "durationTicks": 24,
          "midi": 52,
          "name": "E3",
          "ticks": 64800,
          "time": 180.000225,
          "velocity": 0.48031496062992124
        },
        {
          "duration": 0.066666749999996,
          "durationTicks": 24,
          "midi": 40,
          "name": "E2",
          "ticks": 64800,
          "time": 180.000225,
          "velocity": 0.5826771653543307
        },
        {
          "duration": 0.066666749999996,
          "durationTicks": 24,
          "midi": 53,
          "name": "F3",
          "ticks": 64848,
          "time": 180.1335585,
          "velocity": 0.5039370078740157
        },
        {
          "duration": 0.066666749999996,
          "durationTicks": 24,
          "midi": 41,
          "name": "F2",
          "ticks": 64848,
          "time": 180.1335585,
          "velocity": 0.5984251968503937
        },
        {
          "duration": 0.066666749999996,
          "durationTicks": 24,
          "midi": 35,
          "name": "B1",
          "ticks": 64848,
          "time": 180.1335585,
          "velocity": 0.7637795275590551
        },
        {
          "duration": 0.066666749999996,
          "durationTicks": 24,
          "midi": 42,
          "name": "F#2",
          "ticks": 64896,
          "time": 180.26689199999998,
          "velocity": 0.6141732283464567
        },
        {
          "duration": 0.066666749999996,
          "durationTicks": 24,
          "midi": 54,
          "name": "F#3",
          "ticks": 64896,
          "time": 180.26689199999998,
          "velocity": 0.5275590551181102
        },
        {
          "duration": 0.06666675000002442,
          "durationTicks": 24,
          "midi": 54,
          "name": "F#3",
          "ticks": 64920,
          "time": 180.33355874999998,
          "velocity": 0.5354330708661418
        },
        {
          "duration": 0.06666675000002442,
          "durationTicks": 24,
          "midi": 42,
          "name": "F#2",
          "ticks": 64920,
          "time": 180.33355874999998,
          "velocity": 0.6220472440944882
        },
        {
          "duration": 0.03333337499998379,
          "durationTicks": 12,
          "midi": 36,
          "name": "C2",
          "ticks": 64928,
          "time": 180.355781,
          "velocity": 0.7716535433070866
        },
        {
          "duration": 0.066666749999996,
          "durationTicks": 24,
          "midi": 55,
          "name": "G3",
          "ticks": 64944,
          "time": 180.4002255,
          "velocity": 0.5433070866141733
        },
        {
          "duration": 0.066666749999996,
          "durationTicks": 24,
          "midi": 43,
          "name": "G2",
          "ticks": 64944,
          "time": 180.4002255,
          "velocity": 0.6299212598425197
        },
        {
          "duration": 0.03333337500001221,
          "durationTicks": 12,
          "midi": 36,
          "name": "C2",
          "ticks": 64960,
          "time": 180.44466999999997,
          "velocity": 0.7795275590551181
        },
        {
          "duration": 0.066666749999996,
          "durationTicks": 24,
          "midi": 55,
          "name": "G3",
          "ticks": 64968,
          "time": 180.46689225,
          "velocity": 0.5590551181102362
        },
        {
          "duration": 0.066666749999996,
          "durationTicks": 24,
          "midi": 43,
          "name": "G2",
          "ticks": 64968,
          "time": 180.46689225,
          "velocity": 0.6377952755905512
        },
        {
          "duration": 0.066666749999996,
          "durationTicks": 24,
          "midi": 44,
          "name": "G#2",
          "ticks": 64992,
          "time": 180.533559,
          "velocity": 0.6456692913385826
        },
        {
          "duration": 0.066666749999996,
          "durationTicks": 24,
          "midi": 56,
          "name": "G#3",
          "ticks": 64992,
          "time": 180.533559,
          "velocity": 0.5669291338582677
        },
        {
          "duration": 0.066666749999996,
          "durationTicks": 24,
          "midi": 56,
          "name": "G#3",
          "ticks": 65016,
          "time": 180.60022575,
          "velocity": 0.5826771653543307
        },
        {
          "duration": 0.066666749999996,
          "durationTicks": 24,
          "midi": 44,
          "name": "G#2",
          "ticks": 65016,
          "time": 180.60022575,
          "velocity": 0.6614173228346457
        },
        {
          "duration": 0.03333337500001221,
          "durationTicks": 12,
          "midi": 36,
          "name": "C2",
          "ticks": 65024,
          "time": 180.622448,
          "velocity": 0.7874015748031497
        },
        {
          "duration": 0.066666749999996,
          "durationTicks": 24,
          "midi": 45,
          "name": "A2",
          "ticks": 65040,
          "time": 180.6668925,
          "velocity": 0.6692913385826772
        },
        {
          "duration": 0.066666749999996,
          "durationTicks": 24,
          "midi": 57,
          "name": "A3",
          "ticks": 65040,
          "time": 180.6668925,
          "velocity": 0.5905511811023622
        },
        {
          "duration": 0.03333337499998379,
          "durationTicks": 12,
          "midi": 36,
          "name": "C2",
          "ticks": 65056,
          "time": 180.711337,
          "velocity": 0.7874015748031497
        },
        {
          "duration": 0.066666749999996,
          "durationTicks": 24,
          "midi": 57,
          "name": "A3",
          "ticks": 65064,
          "time": 180.73355924999998,
          "velocity": 0.6062992125984252
        },
        {
          "duration": 0.066666749999996,
          "durationTicks": 24,
          "midi": 45,
          "name": "A2",
          "ticks": 65064,
          "time": 180.73355924999998,
          "velocity": 0.6771653543307087
        },
        {
          "duration": 0.06666675000002442,
          "durationTicks": 24,
          "midi": 58,
          "name": "A#3",
          "ticks": 65088,
          "time": 180.80022599999998,
          "velocity": 0.6141732283464567
        },
        {
          "duration": 0.06666675000002442,
          "durationTicks": 24,
          "midi": 46,
          "name": "A#2",
          "ticks": 65088,
          "time": 180.80022599999998,
          "velocity": 0.6850393700787402
        },
        {
          "duration": 0.066666749999996,
          "durationTicks": 24,
          "midi": 47,
          "name": "B2",
          "ticks": 65112,
          "time": 180.86689275,
          "velocity": 0.6929133858267716
        },
        {
          "duration": 0.03333337499998379,
          "durationTicks": 12,
          "midi": 37,
          "name": "C#2",
          "ticks": 65112,
          "time": 180.86689275,
          "velocity": 0.7952755905511811
        },
        {
          "duration": 0.066666749999996,
          "durationTicks": 24,
          "midi": 59,
          "name": "B3",
          "ticks": 65112,
          "time": 180.86689275,
          "velocity": 0.6220472440944882
        },
        {
          "duration": 0.03333337499998379,
          "durationTicks": 12,
          "midi": 37,
          "name": "C#2",
          "ticks": 65136,
          "time": 180.9335595,
          "velocity": 0.7952755905511811
        },
        {
          "duration": 0.066666749999996,
          "durationTicks": 24,
          "midi": 48,
          "name": "C3",
          "ticks": 65136,
          "time": 180.9335595,
          "velocity": 0.7007874015748031
        },
        {
          "duration": 0.066666749999996,
          "durationTicks": 24,
          "midi": 60,
          "name": "C4",
          "ticks": 65136,
          "time": 180.9335595,
          "velocity": 0.6377952755905512
        },
        {
          "duration": 0.066666749999996,
          "durationTicks": 24,
          "midi": 61,
          "name": "C#4",
          "ticks": 65160,
          "time": 181.00022625,
          "velocity": 0.6456692913385826
        },
        {
          "duration": 0.03333337499998379,
          "durationTicks": 12,
          "midi": 37,
          "name": "C#2",
          "ticks": 65160,
          "time": 181.00022625,
          "velocity": 0.8031496062992126
        },
        {
          "duration": 0.066666749999996,
          "durationTicks": 24,
          "midi": 49,
          "name": "C#3",
          "ticks": 65160,
          "time": 181.00022625,
          "velocity": 0.7086614173228346
        },
        {
          "duration": 0.066666749999996,
          "durationTicks": 24,
          "midi": 62,
          "name": "D4",
          "ticks": 65184,
          "time": 181.066893,
          "velocity": 0.6614173228346457
        },
        {
          "duration": 0.066666749999996,
          "durationTicks": 24,
          "midi": 50,
          "name": "D3",
          "ticks": 65184,
          "time": 181.066893,
          "velocity": 0.7165354330708661
        },
        {
          "duration": 0.03333337500001221,
          "durationTicks": 12,
          "midi": 37,
          "name": "C#2",
          "ticks": 65208,
          "time": 181.13355975,
          "velocity": 0.8031496062992126
        },
        {
          "duration": 0.066666749999996,
          "durationTicks": 24,
          "midi": 51,
          "name": "D#3",
          "ticks": 65208,
          "time": 181.13355975,
          "velocity": 0.7244094488188977
        },
        {
          "duration": 0.066666749999996,
          "durationTicks": 24,
          "midi": 63,
          "name": "D#4",
          "ticks": 65208,
          "time": 181.13355975,
          "velocity": 0.6692913385826772
        },
        {
          "duration": 0.066666749999996,
          "durationTicks": 24,
          "midi": 52,
          "name": "E3",
          "ticks": 65232,
          "time": 181.20022649999999,
          "velocity": 0.7322834645669292
        },
        {
          "duration": 0.066666749999996,
          "durationTicks": 24,
          "midi": 64,
          "name": "E4",
          "ticks": 65232,
          "time": 181.20022649999999,
          "velocity": 0.6771653543307087
        },
        {
          "duration": 0.03333337500001221,
          "durationTicks": 12,
          "midi": 37,
          "name": "C#2",
          "ticks": 65232,
          "time": 181.20022649999999,
          "velocity": 0.8110236220472441
        },
        {
          "duration": 0.066666749999996,
          "durationTicks": 24,
          "midi": 65,
          "name": "F4",
          "ticks": 65256,
          "time": 181.26689324999998,
          "velocity": 0.6929133858267716
        },
        {
          "duration": 0.066666749999996,
          "durationTicks": 24,
          "midi": 53,
          "name": "F3",
          "ticks": 65256,
          "time": 181.26689324999998,
          "velocity": 0.7480314960629921
        },
        {
          "duration": 0.03333337500001221,
          "durationTicks": 12,
          "midi": 37,
          "name": "C#2",
          "ticks": 65256,
          "time": 181.26689324999998,
          "velocity": 0.8110236220472441
        },
        {
          "duration": 0.13055571875000282,
          "durationTicks": 47,
          "midi": 50,
          "name": "D3",
          "ticks": 65472,
          "time": 181.866894,
          "velocity": 0.3779527559055118
        },
        {
          "duration": 0.13055571875000282,
          "durationTicks": 47,
          "midi": 62,
          "name": "D4",
          "ticks": 65472,
          "time": 181.866894,
          "velocity": 0.3779527559055118
        },
        {
          "duration": 0.13055571875000282,
          "durationTicks": 47,
          "midi": 38,
          "name": "D2",
          "ticks": 65472,
          "time": 181.866894,
          "velocity": 0.3779527559055118
        },
        {
          "duration": 0.13055571875000282,
          "durationTicks": 47,
          "midi": 26,
          "name": "D1",
          "ticks": 65472,
          "time": 181.866894,
          "velocity": 0.3779527559055118
        },
        {
          "duration": 0.13055571875000282,
          "durationTicks": 47,
          "midi": 27,
          "name": "D#1",
          "ticks": 65520,
          "time": 182.0002275,
          "velocity": 0.41732283464566927
        },
        {
          "duration": 0.13055571875000282,
          "durationTicks": 47,
          "midi": 39,
          "name": "D#2",
          "ticks": 65520,
          "time": 182.0002275,
          "velocity": 0.41732283464566927
        },
        {
          "duration": 0.13055571875000282,
          "durationTicks": 47,
          "midi": 63,
          "name": "D#4",
          "ticks": 65520,
          "time": 182.0002275,
          "velocity": 0.41732283464566927
        },
        {
          "duration": 0.13055571875000282,
          "durationTicks": 47,
          "midi": 51,
          "name": "D#3",
          "ticks": 65520,
          "time": 182.0002275,
          "velocity": 0.41732283464566927
        },
        {
          "duration": 0.13055571875000282,
          "durationTicks": 47,
          "midi": 64,
          "name": "E4",
          "ticks": 65568,
          "time": 182.133561,
          "velocity": 0.4645669291338583
        },
        {
          "duration": 0.13055571875000282,
          "durationTicks": 47,
          "midi": 52,
          "name": "E3",
          "ticks": 65568,
          "time": 182.133561,
          "velocity": 0.4645669291338583
        },
        {
          "duration": 0.13055571875000282,
          "durationTicks": 47,
          "midi": 28,
          "name": "E1",
          "ticks": 65568,
          "time": 182.133561,
          "velocity": 0.4645669291338583
        },
        {
          "duration": 0.13055571875000282,
          "durationTicks": 47,
          "midi": 40,
          "name": "E2",
          "ticks": 65568,
          "time": 182.133561,
          "velocity": 0.4645669291338583
        },
        {
          "duration": 0.13055571875003125,
          "durationTicks": 47,
          "midi": 53,
          "name": "F3",
          "ticks": 65616,
          "time": 182.26689449999998,
          "velocity": 0.5039370078740157
        },
        {
          "duration": 0.13055571875003125,
          "durationTicks": 47,
          "midi": 65,
          "name": "F4",
          "ticks": 65616,
          "time": 182.26689449999998,
          "velocity": 0.5039370078740157
        },
        {
          "duration": 0.13055571875003125,
          "durationTicks": 47,
          "midi": 41,
          "name": "F2",
          "ticks": 65616,
          "time": 182.26689449999998,
          "velocity": 0.5039370078740157
        },
        {
          "duration": 0.13055571875003125,
          "durationTicks": 47,
          "midi": 29,
          "name": "F1",
          "ticks": 65616,
          "time": 182.26689449999998,
          "velocity": 0.5039370078740157
        },
        {
          "duration": 0.06388896875000682,
          "durationTicks": 23,
          "midi": 30,
          "name": "F#1",
          "ticks": 65664,
          "time": 182.400228,
          "velocity": 0.5511811023622047
        },
        {
          "duration": 0.06388896875000682,
          "durationTicks": 23,
          "midi": 42,
          "name": "F#2",
          "ticks": 65664,
          "time": 182.400228,
          "velocity": 0.5511811023622047
        },
        {
          "duration": 0.06388896875000682,
          "durationTicks": 23,
          "midi": 54,
          "name": "F#3",
          "ticks": 65664,
          "time": 182.400228,
          "velocity": 0.5511811023622047
        },
        {
          "duration": 0.06388896875000682,
          "durationTicks": 23,
          "midi": 66,
          "name": "F#4",
          "ticks": 65664,
          "time": 182.400228,
          "velocity": 0.5511811023622047
        },
        {
          "duration": 0.06388896875000682,
          "durationTicks": 23,
          "midi": 30,
          "name": "F#1",
          "ticks": 65688,
          "time": 182.46689475,
          "velocity": 0.5748031496062992
        },
        {
          "duration": 0.06388896875000682,
          "durationTicks": 23,
          "midi": 42,
          "name": "F#2",
          "ticks": 65688,
          "time": 182.46689475,
          "velocity": 0.5748031496062992
        },
        {
          "duration": 0.06388896875000682,
          "durationTicks": 23,
          "midi": 54,
          "name": "F#3",
          "ticks": 65688,
          "time": 182.46689475,
          "velocity": 0.5748031496062992
        },
        {
          "duration": 0.06388896875000682,
          "durationTicks": 23,
          "midi": 66,
          "name": "F#4",
          "ticks": 65688,
          "time": 182.46689475,
          "velocity": 0.5748031496062992
        },
        {
          "duration": 0.06388896875000682,
          "durationTicks": 23,
          "midi": 31,
          "name": "G1",
          "ticks": 65712,
          "time": 182.5335615,
          "velocity": 0.5905511811023622
        },
        {
          "duration": 0.06388896875000682,
          "durationTicks": 23,
          "midi": 43,
          "name": "G2",
          "ticks": 65712,
          "time": 182.5335615,
          "velocity": 0.5905511811023622
        },
        {
          "duration": 0.06388896875000682,
          "durationTicks": 23,
          "midi": 55,
          "name": "G3",
          "ticks": 65712,
          "time": 182.5335615,
          "velocity": 0.5905511811023622
        },
        {
          "duration": 0.06388896875000682,
          "durationTicks": 23,
          "midi": 67,
          "name": "G4",
          "ticks": 65712,
          "time": 182.5335615,
          "velocity": 0.5905511811023622
        },
        {
          "duration": 0.06388896875000682,
          "durationTicks": 23,
          "midi": 31,
          "name": "G1",
          "ticks": 65736,
          "time": 182.60022825,
          "velocity": 0.6141732283464567
        },
        {
          "duration": 0.06388896875000682,
          "durationTicks": 23,
          "midi": 43,
          "name": "G2",
          "ticks": 65736,
          "time": 182.60022825,
          "velocity": 0.6141732283464567
        },
        {
          "duration": 0.06388896875000682,
          "durationTicks": 23,
          "midi": 55,
          "name": "G3",
          "ticks": 65736,
          "time": 182.60022825,
          "velocity": 0.6141732283464567
        },
        {
          "duration": 0.06388896875000682,
          "durationTicks": 23,
          "midi": 67,
          "name": "G4",
          "ticks": 65736,
          "time": 182.60022825,
          "velocity": 0.6141732283464567
        },
        {
          "duration": 0.06388896875000682,
          "durationTicks": 23,
          "midi": 32,
          "name": "G#1",
          "ticks": 65760,
          "time": 182.66689499999998,
          "velocity": 0.6377952755905512
        },
        {
          "duration": 0.06388896875000682,
          "durationTicks": 23,
          "midi": 44,
          "name": "G#2",
          "ticks": 65760,
          "time": 182.66689499999998,
          "velocity": 0.6377952755905512
        },
        {
          "duration": 0.06388896875000682,
          "durationTicks": 23,
          "midi": 56,
          "name": "G#3",
          "ticks": 65760,
          "time": 182.66689499999998,
          "velocity": 0.6377952755905512
        },
        {
          "duration": 0.06388896875000682,
          "durationTicks": 23,
          "midi": 68,
          "name": "G#4",
          "ticks": 65760,
          "time": 182.66689499999998,
          "velocity": 0.6377952755905512
        },
        {
          "duration": 0.06388896875003525,
          "durationTicks": 23,
          "midi": 32,
          "name": "G#1",
          "ticks": 65784,
          "time": 182.73356174999998,
          "velocity": 0.6535433070866141
        },
        {
          "duration": 0.06388896875003525,
          "durationTicks": 23,
          "midi": 44,
          "name": "G#2",
          "ticks": 65784,
          "time": 182.73356174999998,
          "velocity": 0.6535433070866141
        },
        {
          "duration": 0.06388896875003525,
          "durationTicks": 23,
          "midi": 56,
          "name": "G#3",
          "ticks": 65784,
          "time": 182.73356174999998,
          "velocity": 0.6535433070866141
        },
        {
          "duration": 0.06388896875003525,
          "durationTicks": 23,
          "midi": 68,
          "name": "G#4",
          "ticks": 65784,
          "time": 182.73356174999998,
          "velocity": 0.6535433070866141
        },
        {
          "duration": 0.06388896875000682,
          "durationTicks": 23,
          "midi": 33,
          "name": "A1",
          "ticks": 65808,
          "time": 182.8002285,
          "velocity": 0.6771653543307087
        },
        {
          "duration": 0.06388896875000682,
          "durationTicks": 23,
          "midi": 45,
          "name": "A2",
          "ticks": 65808,
          "time": 182.8002285,
          "velocity": 0.6771653543307087
        },
        {
          "duration": 0.06388896875000682,
          "durationTicks": 23,
          "midi": 57,
          "name": "A3",
          "ticks": 65808,
          "time": 182.8002285,
          "velocity": 0.6771653543307087
        },
        {
          "duration": 0.06388896875000682,
          "durationTicks": 23,
          "midi": 69,
          "name": "A4",
          "ticks": 65808,
          "time": 182.8002285,
          "velocity": 0.6771653543307087
        },
        {
          "duration": 0.06388896875000682,
          "durationTicks": 23,
          "midi": 33,
          "name": "A1",
          "ticks": 65832,
          "time": 182.86689525,
          "velocity": 0.7007874015748031
        },
        {
          "duration": 0.06388896875000682,
          "durationTicks": 23,
          "midi": 45,
          "name": "A2",
          "ticks": 65832,
          "time": 182.86689525,
          "velocity": 0.7007874015748031
        },
        {
          "duration": 0.06388896875000682,
          "durationTicks": 23,
          "midi": 57,
          "name": "A3",
          "ticks": 65832,
          "time": 182.86689525,
          "velocity": 0.7007874015748031
        },
        {
          "duration": 0.06388896875000682,
          "durationTicks": 23,
          "midi": 69,
          "name": "A4",
          "ticks": 65832,
          "time": 182.86689525,
          "velocity": 0.7007874015748031
        },
        {
          "duration": 0.06388896875000682,
          "durationTicks": 23,
          "midi": 34,
          "name": "A#1",
          "ticks": 65856,
          "time": 182.933562,
          "velocity": 0.7244094488188977
        },
        {
          "duration": 0.06388896875000682,
          "durationTicks": 23,
          "midi": 46,
          "name": "A#2",
          "ticks": 65856,
          "time": 182.933562,
          "velocity": 0.7244094488188977
        },
        {
          "duration": 0.06388896875000682,
          "durationTicks": 23,
          "midi": 58,
          "name": "A#3",
          "ticks": 65856,
          "time": 182.933562,
          "velocity": 0.7244094488188977
        },
        {
          "duration": 0.06388896875000682,
          "durationTicks": 23,
          "midi": 70,
          "name": "A#4",
          "ticks": 65856,
          "time": 182.933562,
          "velocity": 0.7244094488188977
        },
        {
          "duration": 0.06388896875000682,
          "durationTicks": 23,
          "midi": 34,
          "name": "A#1",
          "ticks": 65880,
          "time": 183.00022875,
          "velocity": 0.7401574803149606
        },
        {
          "duration": 0.06388896875000682,
          "durationTicks": 23,
          "midi": 46,
          "name": "A#2",
          "ticks": 65880,
          "time": 183.00022875,
          "velocity": 0.7401574803149606
        },
        {
          "duration": 0.06388896875000682,
          "durationTicks": 23,
          "midi": 58,
          "name": "A#3",
          "ticks": 65880,
          "time": 183.00022875,
          "velocity": 0.7401574803149606
        },
        {
          "duration": 0.06388896875000682,
          "durationTicks": 23,
          "midi": 70,
          "name": "A#4",
          "ticks": 65880,
          "time": 183.00022875,
          "velocity": 0.7401574803149606
        },
        {
          "duration": 0.06388896875000682,
          "durationTicks": 23,
          "midi": 35,
          "name": "B1",
          "ticks": 65904,
          "time": 183.0668955,
          "velocity": 0.7637795275590551
        },
        {
          "duration": 0.06388896875000682,
          "durationTicks": 23,
          "midi": 47,
          "name": "B2",
          "ticks": 65904,
          "time": 183.0668955,
          "velocity": 0.7637795275590551
        },
        {
          "duration": 0.06388896875000682,
          "durationTicks": 23,
          "midi": 59,
          "name": "B3",
          "ticks": 65904,
          "time": 183.0668955,
          "velocity": 0.7637795275590551
        },
        {
          "duration": 0.06388896875000682,
          "durationTicks": 23,
          "midi": 71,
          "name": "B4",
          "ticks": 65904,
          "time": 183.0668955,
          "velocity": 0.7637795275590551
        },
        {
          "duration": 0.06388896875000682,
          "durationTicks": 23,
          "midi": 35,
          "name": "B1",
          "ticks": 65928,
          "time": 183.13356224999998,
          "velocity": 0.7874015748031497
        },
        {
          "duration": 0.06388896875000682,
          "durationTicks": 23,
          "midi": 47,
          "name": "B2",
          "ticks": 65928,
          "time": 183.13356224999998,
          "velocity": 0.7874015748031497
        },
        {
          "duration": 0.06388896875000682,
          "durationTicks": 23,
          "midi": 59,
          "name": "B3",
          "ticks": 65928,
          "time": 183.13356224999998,
          "velocity": 0.7874015748031497
        },
        {
          "duration": 0.06388896875000682,
          "durationTicks": 23,
          "midi": 71,
          "name": "B4",
          "ticks": 65928,
          "time": 183.13356224999998,
          "velocity": 0.7874015748031497
        },
        {
          "duration": 0.066666749999996,
          "durationTicks": 24,
          "midi": 37,
          "name": "C#2",
          "ticks": 72216,
          "time": 200.60025075,
          "velocity": 0.6141732283464567
        },
        {
          "duration": 0.066666749999996,
          "durationTicks": 24,
          "midi": 25,
          "name": "C#1",
          "ticks": 72216,
          "time": 200.60025075,
          "velocity": 0.6141732283464567
        },
        {
          "duration": 0.066666749999996,
          "durationTicks": 24,
          "midi": 38,
          "name": "D2",
          "ticks": 72240,
          "time": 200.66691749999998,
          "velocity": 0.6220472440944882
        },
        {
          "duration": 0.066666749999996,
          "durationTicks": 24,
          "midi": 26,
          "name": "D1",
          "ticks": 72240,
          "time": 200.66691749999998,
          "velocity": 0.6220472440944882
        },
        {
          "duration": 0.06666675000002442,
          "durationTicks": 24,
          "midi": 27,
          "name": "D#1",
          "ticks": 72264,
          "time": 200.73358424999998,
          "velocity": 0.6299212598425197
        },
        {
          "duration": 0.06666675000002442,
          "durationTicks": 24,
          "midi": 39,
          "name": "D#2",
          "ticks": 72264,
          "time": 200.73358424999998,
          "velocity": 0.6299212598425197
        },
        {
          "duration": 0.066666749999996,
          "durationTicks": 24,
          "midi": 28,
          "name": "E1",
          "ticks": 72288,
          "time": 200.800251,
          "velocity": 0.6377952755905512
        },
        {
          "duration": 0.066666749999996,
          "durationTicks": 24,
          "midi": 40,
          "name": "E2",
          "ticks": 72288,
          "time": 200.800251,
          "velocity": 0.6377952755905512
        },
        {
          "duration": 0.066666749999996,
          "durationTicks": 24,
          "midi": 29,
          "name": "F1",
          "ticks": 72312,
          "time": 200.86691775,
          "velocity": 0.6535433070866141
        },
        {
          "duration": 0.066666749999996,
          "durationTicks": 24,
          "midi": 41,
          "name": "F2",
          "ticks": 72312,
          "time": 200.86691775,
          "velocity": 0.6535433070866141
        },
        {
          "duration": 0.066666749999996,
          "durationTicks": 24,
          "midi": 42,
          "name": "F#2",
          "ticks": 72336,
          "time": 200.9335845,
          "velocity": 0.6614173228346457
        },
        {
          "duration": 0.066666749999996,
          "durationTicks": 24,
          "midi": 30,
          "name": "F#1",
          "ticks": 72336,
          "time": 200.9335845,
          "velocity": 0.6614173228346457
        },
        {
          "duration": 0.066666749999996,
          "durationTicks": 24,
          "midi": 43,
          "name": "G2",
          "ticks": 72360,
          "time": 201.00025125,
          "velocity": 0.6692913385826772
        },
        {
          "duration": 0.066666749999996,
          "durationTicks": 24,
          "midi": 31,
          "name": "G1",
          "ticks": 72360,
          "time": 201.00025125,
          "velocity": 0.6692913385826772
        },
        {
          "duration": 0.066666749999996,
          "durationTicks": 24,
          "midi": 32,
          "name": "G#1",
          "ticks": 72384,
          "time": 201.066918,
          "velocity": 0.6850393700787402
        },
        {
          "duration": 0.066666749999996,
          "durationTicks": 24,
          "midi": 44,
          "name": "G#2",
          "ticks": 72384,
          "time": 201.066918,
          "velocity": 0.6850393700787402
        },
        {
          "duration": 0.066666749999996,
          "durationTicks": 24,
          "midi": 33,
          "name": "A1",
          "ticks": 72408,
          "time": 201.13358474999998,
          "velocity": 0.6929133858267716
        },
        {
          "duration": 0.066666749999996,
          "durationTicks": 24,
          "midi": 45,
          "name": "A2",
          "ticks": 72408,
          "time": 201.13358474999998,
          "velocity": 0.6929133858267716
        },
        {
          "duration": 0.06666675000002442,
          "durationTicks": 24,
          "midi": 46,
          "name": "A#2",
          "ticks": 72432,
          "time": 201.20025149999998,
          "velocity": 0.7007874015748031
        },
        {
          "duration": 0.06666675000002442,
          "durationTicks": 24,
          "midi": 34,
          "name": "A#1",
          "ticks": 72432,
          "time": 201.20025149999998,
          "velocity": 0.7007874015748031
        },
        {
          "duration": 0.066666749999996,
          "durationTicks": 24,
          "midi": 35,
          "name": "B1",
          "ticks": 72456,
          "time": 201.26691825,
          "velocity": 0.7086614173228346
        },
        {
          "duration": 0.066666749999996,
          "durationTicks": 24,
          "midi": 47,
          "name": "B2",
          "ticks": 72456,
          "time": 201.26691825,
          "velocity": 0.7086614173228346
        },
        {
          "duration": 0.066666749999996,
          "durationTicks": 24,
          "midi": 48,
          "name": "C3",
          "ticks": 72480,
          "time": 201.333585,
          "velocity": 0.7244094488188977
        },
        {
          "duration": 0.066666749999996,
          "durationTicks": 24,
          "midi": 36,
          "name": "C2",
          "ticks": 72480,
          "time": 201.333585,
          "velocity": 0.7244094488188977
        },
        {
          "duration": 0.066666749999996,
          "durationTicks": 24,
          "midi": 49,
          "name": "C#3",
          "ticks": 72504,
          "time": 201.40025175,
          "velocity": 0.7322834645669292
        },
        {
          "duration": 0.066666749999996,
          "durationTicks": 24,
          "midi": 37,
          "name": "C#2",
          "ticks": 72504,
          "time": 201.40025175,
          "velocity": 0.7322834645669292
        },
        {
          "duration": 0.066666749999996,
          "durationTicks": 24,
          "midi": 50,
          "name": "D3",
          "ticks": 72528,
          "time": 201.4669185,
          "velocity": 0.7401574803149606
        },
        {
          "duration": 0.066666749999996,
          "durationTicks": 24,
          "midi": 38,
          "name": "D2",
          "ticks": 72528,
          "time": 201.4669185,
          "velocity": 0.7401574803149606
        },
        {
          "duration": 0.066666749999996,
          "durationTicks": 24,
          "midi": 39,
          "name": "D#2",
          "ticks": 72552,
          "time": 201.53358525,
          "velocity": 0.7480314960629921
        },
        {
          "duration": 0.066666749999996,
          "durationTicks": 24,
          "midi": 51,
          "name": "D#3",
          "ticks": 72552,
          "time": 201.53358525,
          "velocity": 0.7480314960629921
        },
        {
          "duration": 0.066666749999996,
          "durationTicks": 24,
          "midi": 28,
          "name": "E1",
          "ticks": 76440,
          "time": 212.33359875,
          "velocity": 0.6141732283464567
        },
        {
          "duration": 0.066666749999996,
          "durationTicks": 24,
          "midi": 40,
          "name": "E2",
          "ticks": 76440,
          "time": 212.33359875,
          "velocity": 0.6141732283464567
        },
        {
          "duration": 0.066666749999996,
          "durationTicks": 24,
          "midi": 41,
          "name": "F2",
          "ticks": 76464,
          "time": 212.4002655,
          "velocity": 0.6220472440944882
        },
        {
          "duration": 0.066666749999996,
          "durationTicks": 24,
          "midi": 29,
          "name": "F1",
          "ticks": 76464,
          "time": 212.4002655,
          "velocity": 0.6220472440944882
        },
        {
          "duration": 0.066666749999996,
          "durationTicks": 24,
          "midi": 42,
          "name": "F#2",
          "ticks": 76488,
          "time": 212.46693224999999,
          "velocity": 0.6299212598425197
        },
        {
          "duration": 0.066666749999996,
          "durationTicks": 24,
          "midi": 30,
          "name": "F#1",
          "ticks": 76488,
          "time": 212.46693224999999,
          "velocity": 0.6299212598425197
        },
        {
          "duration": 0.066666749999996,
          "durationTicks": 24,
          "midi": 43,
          "name": "G2",
          "ticks": 76512,
          "time": 212.53359899999998,
          "velocity": 0.6377952755905512
        },
        {
          "duration": 0.066666749999996,
          "durationTicks": 24,
          "midi": 31,
          "name": "G1",
          "ticks": 76512,
          "time": 212.53359899999998,
          "velocity": 0.6377952755905512
        },
        {
          "duration": 0.06666675000002442,
          "durationTicks": 24,
          "midi": 32,
          "name": "G#1",
          "ticks": 76536,
          "time": 212.60026574999998,
          "velocity": 0.6535433070866141
        },
        {
          "duration": 0.06666675000002442,
          "durationTicks": 24,
          "midi": 44,
          "name": "G#2",
          "ticks": 76536,
          "time": 212.60026574999998,
          "velocity": 0.6535433070866141
        },
        {
          "duration": 0.066666749999996,
          "durationTicks": 24,
          "midi": 45,
          "name": "A2",
          "ticks": 76560,
          "time": 212.6669325,
          "velocity": 0.6614173228346457
        },
        {
          "duration": 0.066666749999996,
          "durationTicks": 24,
          "midi": 33,
          "name": "A1",
          "ticks": 76560,
          "time": 212.6669325,
          "velocity": 0.6614173228346457
        },
        {
          "duration": 0.066666749999996,
          "durationTicks": 24,
          "midi": 34,
          "name": "A#1",
          "ticks": 76584,
          "time": 212.73359925,
          "velocity": 0.6692913385826772
        },
        {
          "duration": 0.066666749999996,
          "durationTicks": 24,
          "midi": 46,
          "name": "A#2",
          "ticks": 76584,
          "time": 212.73359925,
          "velocity": 0.6692913385826772
        },
        {
          "duration": 0.066666749999996,
          "durationTicks": 24,
          "midi": 47,
          "name": "B2",
          "ticks": 76608,
          "time": 212.800266,
          "velocity": 0.6850393700787402
        },
        {
          "duration": 0.066666749999996,
          "durationTicks": 24,
          "midi": 35,
          "name": "B1",
          "ticks": 76608,
          "time": 212.800266,
          "velocity": 0.6850393700787402
        },
        {
          "duration": 0.066666749999996,
          "durationTicks": 24,
          "midi": 48,
          "name": "C3",
          "ticks": 76632,
          "time": 212.86693275,
          "velocity": 0.6929133858267716
        },
        {
          "duration": 0.066666749999996,
          "durationTicks": 24,
          "midi": 36,
          "name": "C2",
          "ticks": 76632,
          "time": 212.86693275,
          "velocity": 0.6929133858267716
        },
        {
          "duration": 0.066666749999996,
          "durationTicks": 24,
          "midi": 49,
          "name": "C#3",
          "ticks": 76656,
          "time": 212.93359949999999,
          "velocity": 0.7007874015748031
        },
        {
          "duration": 0.066666749999996,
          "durationTicks": 24,
          "midi": 37,
          "name": "C#2",
          "ticks": 76656,
          "time": 212.93359949999999,
          "velocity": 0.7007874015748031
        },
        {
          "duration": 0.066666749999996,
          "durationTicks": 24,
          "midi": 38,
          "name": "D2",
          "ticks": 76680,
          "time": 213.00026624999998,
          "velocity": 0.7086614173228346
        },
        {
          "duration": 0.066666749999996,
          "durationTicks": 24,
          "midi": 50,
          "name": "D3",
          "ticks": 76680,
          "time": 213.00026624999998,
          "velocity": 0.7086614173228346
        },
        {
          "duration": 0.06666675000002442,
          "durationTicks": 24,
          "midi": 51,
          "name": "D#3",
          "ticks": 76704,
          "time": 213.06693299999998,
          "velocity": 0.7244094488188977
        },
        {
          "duration": 0.06666675000002442,
          "durationTicks": 24,
          "midi": 39,
          "name": "D#2",
          "ticks": 76704,
          "time": 213.06693299999998,
          "velocity": 0.7244094488188977
        },
        {
          "duration": 0.066666749999996,
          "durationTicks": 24,
          "midi": 40,
          "name": "E2",
          "ticks": 76728,
          "time": 213.13359975,
          "velocity": 0.7322834645669292
        },
        {
          "duration": 0.066666749999996,
          "durationTicks": 24,
          "midi": 52,
          "name": "E3",
          "ticks": 76728,
          "time": 213.13359975,
          "velocity": 0.7322834645669292
        },
        {
          "duration": 0.066666749999996,
          "durationTicks": 24,
          "midi": 53,
          "name": "F3",
          "ticks": 76752,
          "time": 213.2002665,
          "velocity": 0.7401574803149606
        },
        {
          "duration": 0.066666749999996,
          "durationTicks": 24,
          "midi": 41,
          "name": "F2",
          "ticks": 76752,
          "time": 213.2002665,
          "velocity": 0.7401574803149606
        },
        {
          "duration": 0.066666749999996,
          "durationTicks": 24,
          "midi": 54,
          "name": "F#3",
          "ticks": 76776,
          "time": 213.26693325,
          "velocity": 0.7480314960629921
        },
        {
          "duration": 0.066666749999996,
          "durationTicks": 24,
          "midi": 42,
          "name": "F#2",
          "ticks": 76776,
          "time": 213.26693325,
          "velocity": 0.7480314960629921
        },
        {
          "duration": 0.066666749999996,
          "durationTicks": 24,
          "midi": 55,
          "name": "G3",
          "ticks": 76800,
          "time": 213.3336,
          "velocity": 0.7244094488188977
        },
        {
          "duration": 0.066666749999996,
          "durationTicks": 24,
          "midi": 43,
          "name": "G2",
          "ticks": 76800,
          "time": 213.3336,
          "velocity": 0.7244094488188977
        },
        {
          "duration": 0.066666749999996,
          "durationTicks": 24,
          "midi": 44,
          "name": "G#2",
          "ticks": 76824,
          "time": 213.40026675,
          "velocity": 0.7322834645669292
        },
        {
          "duration": 0.066666749999996,
          "durationTicks": 24,
          "midi": 56,
          "name": "G#3",
          "ticks": 76824,
          "time": 213.40026675,
          "velocity": 0.7322834645669292
        },
        {
          "duration": 0.066666749999996,
          "durationTicks": 24,
          "midi": 57,
          "name": "A3",
          "ticks": 76848,
          "time": 213.46693349999998,
          "velocity": 0.7401574803149606
        },
        {
          "duration": 0.066666749999996,
          "durationTicks": 24,
          "midi": 45,
          "name": "A2",
          "ticks": 76848,
          "time": 213.46693349999998,
          "velocity": 0.7401574803149606
        },
        {
          "duration": 0.06666675000002442,
          "durationTicks": 24,
          "midi": 46,
          "name": "A#2",
          "ticks": 76872,
          "time": 213.53360024999998,
          "velocity": 0.7480314960629921
        },
        {
          "duration": 0.06666675000002442,
          "durationTicks": 24,
          "midi": 58,
          "name": "A#3",
          "ticks": 76872,
          "time": 213.53360024999998,
          "velocity": 0.7480314960629921
        },
        {
          "duration": 0.066666749999996,
          "durationTicks": 24,
          "midi": 47,
          "name": "B2",
          "ticks": 76896,
          "time": 213.600267,
          "velocity": 0.7244094488188977
        },
        {
          "duration": 0.066666749999996,
          "durationTicks": 24,
          "midi": 59,
          "name": "B3",
          "ticks": 76896,
          "time": 213.600267,
          "velocity": 0.7244094488188977
        },
        {
          "duration": 0.066666749999996,
          "durationTicks": 24,
          "midi": 60,
          "name": "C4",
          "ticks": 76920,
          "time": 213.66693375,
          "velocity": 0.7322834645669292
        },
        {
          "duration": 0.066666749999996,
          "durationTicks": 24,
          "midi": 48,
          "name": "C3",
          "ticks": 76920,
          "time": 213.66693375,
          "velocity": 0.7322834645669292
        },
        {
          "duration": 0.066666749999996,
          "durationTicks": 24,
          "midi": 61,
          "name": "C#4",
          "ticks": 76944,
          "time": 213.7336005,
          "velocity": 0.7401574803149606
        },
        {
          "duration": 0.066666749999996,
          "durationTicks": 24,
          "midi": 49,
          "name": "C#3",
          "ticks": 76944,
          "time": 213.7336005,
          "velocity": 0.7401574803149606
        },
        {
          "duration": 0.066666749999996,
          "durationTicks": 24,
          "midi": 62,
          "name": "D4",
          "ticks": 76968,
          "time": 213.80026725,
          "velocity": 0.7480314960629921
        },
        {
          "duration": 0.066666749999996,
          "durationTicks": 24,
          "midi": 50,
          "name": "D3",
          "ticks": 76968,
          "time": 213.80026725,
          "velocity": 0.7480314960629921
        },
        {
          "duration": 0.06122449999998025,
          "durationTicks": 24,
          "midi": 40,
          "name": "E2",
          "ticks": 77208,
          "time": 214.4614925,
          "velocity": 0.6141732283464567
        },
        {
          "duration": 0.06122449999998025,
          "durationTicks": 24,
          "midi": 28,
          "name": "E1",
          "ticks": 77208,
          "time": 214.4614925,
          "velocity": 0.6141732283464567
        },
        {
          "duration": 0.061224500000008675,
          "durationTicks": 24,
          "midi": 41,
          "name": "F2",
          "ticks": 77232,
          "time": 214.52271699999997,
          "velocity": 0.6220472440944882
        },
        {
          "duration": 0.061224500000008675,
          "durationTicks": 24,
          "midi": 29,
          "name": "F1",
          "ticks": 77232,
          "time": 214.52271699999997,
          "velocity": 0.6220472440944882
        },
        {
          "duration": 0.061224500000008675,
          "durationTicks": 24,
          "midi": 42,
          "name": "F#2",
          "ticks": 77256,
          "time": 214.58394149999998,
          "velocity": 0.6299212598425197
        },
        {
          "duration": 0.061224500000008675,
          "durationTicks": 24,
          "midi": 30,
          "name": "F#1",
          "ticks": 77256,
          "time": 214.58394149999998,
          "velocity": 0.6299212598425197
        },
        {
          "duration": 0.06122449999998025,
          "durationTicks": 24,
          "midi": 43,
          "name": "G2",
          "ticks": 77280,
          "time": 214.645166,
          "velocity": 0.6377952755905512
        },
        {
          "duration": 0.06122449999998025,
          "durationTicks": 24,
          "midi": 31,
          "name": "G1",
          "ticks": 77280,
          "time": 214.645166,
          "velocity": 0.6377952755905512
        },
        {
          "duration": 0.061224500000008675,
          "durationTicks": 24,
          "midi": 44,
          "name": "G#2",
          "ticks": 77304,
          "time": 214.70639049999997,
          "velocity": 0.6535433070866141
        },
        {
          "duration": 0.061224500000008675,
          "durationTicks": 24,
          "midi": 32,
          "name": "G#1",
          "ticks": 77304,
          "time": 214.70639049999997,
          "velocity": 0.6535433070866141
        },
        {
          "duration": 0.061224500000008675,
          "durationTicks": 24,
          "midi": 33,
          "name": "A1",
          "ticks": 77328,
          "time": 214.76761499999998,
          "velocity": 0.6614173228346457
        },
        {
          "duration": 0.061224500000008675,
          "durationTicks": 24,
          "midi": 45,
          "name": "A2",
          "ticks": 77328,
          "time": 214.76761499999998,
          "velocity": 0.6614173228346457
        },
        {
          "duration": 0.061224500000008675,
          "durationTicks": 24,
          "midi": 34,
          "name": "A#1",
          "ticks": 77352,
          "time": 214.8288395,
          "velocity": 0.6692913385826772
        },
        {
          "duration": 0.061224500000008675,
          "durationTicks": 24,
          "midi": 46,
          "name": "A#2",
          "ticks": 77352,
          "time": 214.8288395,
          "velocity": 0.6692913385826772
        },
        {
          "duration": 0.06122449999998025,
          "durationTicks": 24,
          "midi": 47,
          "name": "B2",
          "ticks": 77376,
          "time": 214.890064,
          "velocity": 0.6850393700787402
        },
        {
          "duration": 0.06122449999998025,
          "durationTicks": 24,
          "midi": 35,
          "name": "B1",
          "ticks": 77376,
          "time": 214.890064,
          "velocity": 0.6850393700787402
        },
        {
          "duration": 0.061224500000008675,
          "durationTicks": 24,
          "midi": 48,
          "name": "C3",
          "ticks": 77400,
          "time": 214.95128849999998,
          "velocity": 0.6929133858267716
        },
        {
          "duration": 0.061224500000008675,
          "durationTicks": 24,
          "midi": 36,
          "name": "C2",
          "ticks": 77400,
          "time": 214.95128849999998,
          "velocity": 0.6929133858267716
        },
        {
          "duration": 0.061224500000008675,
          "durationTicks": 24,
          "midi": 49,
          "name": "C#3",
          "ticks": 77424,
          "time": 215.01251299999998,
          "velocity": 0.7007874015748031
        },
        {
          "duration": 0.061224500000008675,
          "durationTicks": 24,
          "midi": 37,
          "name": "C#2",
          "ticks": 77424,
          "time": 215.01251299999998,
          "velocity": 0.7007874015748031
        },
        {
          "duration": 0.06122449999998025,
          "durationTicks": 24,
          "midi": 50,
          "name": "D3",
          "ticks": 77448,
          "time": 215.0737375,
          "velocity": 0.7086614173228346
        },
        {
          "duration": 0.06122449999998025,
          "durationTicks": 24,
          "midi": 38,
          "name": "D2",
          "ticks": 77448,
          "time": 215.0737375,
          "velocity": 0.7086614173228346
        },
        {
          "duration": 0.061224500000008675,
          "durationTicks": 24,
          "midi": 51,
          "name": "D#3",
          "ticks": 77472,
          "time": 215.13496199999997,
          "velocity": 0.7244094488188977
        },
        {
          "duration": 0.061224500000008675,
          "durationTicks": 24,
          "midi": 39,
          "name": "D#2",
          "ticks": 77472,
          "time": 215.13496199999997,
          "velocity": 0.7244094488188977
        },
        {
          "duration": 0.061224500000008675,
          "durationTicks": 24,
          "midi": 40,
          "name": "E2",
          "ticks": 77496,
          "time": 215.19618649999998,
          "velocity": 0.7322834645669292
        },
        {
          "duration": 0.061224500000008675,
          "durationTicks": 24,
          "midi": 52,
          "name": "E3",
          "ticks": 77496,
          "time": 215.19618649999998,
          "velocity": 0.7322834645669292
        },
        {
          "duration": 0.06122449999998025,
          "durationTicks": 24,
          "midi": 41,
          "name": "F2",
          "ticks": 77520,
          "time": 215.257411,
          "velocity": 0.7401574803149606
        },
        {
          "duration": 0.06122449999998025,
          "durationTicks": 24,
          "midi": 53,
          "name": "F3",
          "ticks": 77520,
          "time": 215.257411,
          "velocity": 0.7401574803149606
        },
        {
          "duration": 0.061224500000008675,
          "durationTicks": 24,
          "midi": 42,
          "name": "F#2",
          "ticks": 77544,
          "time": 215.31863549999997,
          "velocity": 0.7480314960629921
        },
        {
          "duration": 0.061224500000008675,
          "durationTicks": 24,
          "midi": 54,
          "name": "F#3",
          "ticks": 77544,
          "time": 215.31863549999997,
          "velocity": 0.7480314960629921
        },
        {
          "duration": 0.061224500000008675,
          "durationTicks": 24,
          "midi": 43,
          "name": "G2",
          "ticks": 77568,
          "time": 215.37985999999998,
          "velocity": 0.7244094488188977
        },
        {
          "duration": 0.061224500000008675,
          "durationTicks": 24,
          "midi": 55,
          "name": "G3",
          "ticks": 77568,
          "time": 215.37985999999998,
          "velocity": 0.7244094488188977
        },
        {
          "duration": 0.061224500000008675,
          "durationTicks": 24,
          "midi": 56,
          "name": "G#3",
          "ticks": 77592,
          "time": 215.4410845,
          "velocity": 0.7322834645669292
        },
        {
          "duration": 0.061224500000008675,
          "durationTicks": 24,
          "midi": 44,
          "name": "G#2",
          "ticks": 77592,
          "time": 215.4410845,
          "velocity": 0.7322834645669292
        },
        {
          "duration": 0.06122449999998025,
          "durationTicks": 24,
          "midi": 45,
          "name": "A2",
          "ticks": 77616,
          "time": 215.502309,
          "velocity": 0.7401574803149606
        },
        {
          "duration": 0.06122449999998025,
          "durationTicks": 24,
          "midi": 57,
          "name": "A3",
          "ticks": 77616,
          "time": 215.502309,
          "velocity": 0.7401574803149606
        },
        {
          "duration": 0.061224500000008675,
          "durationTicks": 24,
          "midi": 46,
          "name": "A#2",
          "ticks": 77640,
          "time": 215.56353349999998,
          "velocity": 0.7480314960629921
        },
        {
          "duration": 0.061224500000008675,
          "durationTicks": 24,
          "midi": 58,
          "name": "A#3",
          "ticks": 77640,
          "time": 215.56353349999998,
          "velocity": 0.7480314960629921
        },
        {
          "duration": 0.061224500000008675,
          "durationTicks": 24,
          "midi": 47,
          "name": "B2",
          "ticks": 77664,
          "time": 215.62475799999999,
          "velocity": 0.7244094488188977
        },
        {
          "duration": 0.061224500000008675,
          "durationTicks": 24,
          "midi": 59,
          "name": "B3",
          "ticks": 77664,
          "time": 215.62475799999999,
          "velocity": 0.7244094488188977
        },
        {
          "duration": 0.06122449999998025,
          "durationTicks": 24,
          "midi": 60,
          "name": "C4",
          "ticks": 77688,
          "time": 215.6859825,
          "velocity": 0.7322834645669292
        },
        {
          "duration": 0.06122449999998025,
          "durationTicks": 24,
          "midi": 48,
          "name": "C3",
          "ticks": 77688,
          "time": 215.6859825,
          "velocity": 0.7322834645669292
        },
        {
          "duration": 0.061224500000008675,
          "durationTicks": 24,
          "midi": 61,
          "name": "C#4",
          "ticks": 77712,
          "time": 215.74720699999997,
          "velocity": 0.7401574803149606
        },
        {
          "duration": 0.061224500000008675,
          "durationTicks": 24,
          "midi": 49,
          "name": "C#3",
          "ticks": 77712,
          "time": 215.74720699999997,
          "velocity": 0.7401574803149606
        },
        {
          "duration": 0.061224500000008675,
          "durationTicks": 24,
          "midi": 62,
          "name": "D4",
          "ticks": 77736,
          "time": 215.80843149999998,
          "velocity": 0.7480314960629921
        },
        {
          "duration": 0.061224500000008675,
          "durationTicks": 24,
          "midi": 50,
          "name": "D3",
          "ticks": 77736,
          "time": 215.80843149999998,
          "velocity": 0.7480314960629921
        },
        {
          "duration": 0.056603749999993624,
          "durationTicks": 24,
          "midi": 28,
          "name": "E1",
          "ticks": 77976,
          "time": 216.41605574999997,
          "velocity": 0.6141732283464567
        },
        {
          "duration": 0.056603749999993624,
          "durationTicks": 24,
          "midi": 40,
          "name": "E2",
          "ticks": 77976,
          "time": 216.41605574999997,
          "velocity": 0.6141732283464567
        },
        {
          "duration": 0.056603750000022046,
          "durationTicks": 24,
          "midi": 29,
          "name": "F1",
          "ticks": 78000,
          "time": 216.47265949999996,
          "velocity": 0.6220472440944882
        },
        {
          "duration": 0.056603750000022046,
          "durationTicks": 24,
          "midi": 41,
          "name": "F2",
          "ticks": 78000,
          "time": 216.47265949999996,
          "velocity": 0.6220472440944882
        },
        {
          "duration": 0.056603749999993624,
          "durationTicks": 24,
          "midi": 42,
          "name": "F#2",
          "ticks": 78024,
          "time": 216.52926324999999,
          "velocity": 0.6299212598425197
        },
        {
          "duration": 0.056603749999993624,
          "durationTicks": 24,
          "midi": 30,
          "name": "F#1",
          "ticks": 78024,
          "time": 216.52926324999999,
          "velocity": 0.6299212598425197
        },
        {
          "duration": 0.056603749999993624,
          "durationTicks": 24,
          "midi": 31,
          "name": "G1",
          "ticks": 78048,
          "time": 216.58586699999998,
          "velocity": 0.6377952755905512
        },
        {
          "duration": 0.056603749999993624,
          "durationTicks": 24,
          "midi": 43,
          "name": "G2",
          "ticks": 78048,
          "time": 216.58586699999998,
          "velocity": 0.6377952755905512
        },
        {
          "duration": 0.056603749999993624,
          "durationTicks": 24,
          "midi": 32,
          "name": "G#1",
          "ticks": 78072,
          "time": 216.64247074999997,
          "velocity": 0.6535433070866141
        },
        {
          "duration": 0.056603749999993624,
          "durationTicks": 24,
          "midi": 44,
          "name": "G#2",
          "ticks": 78072,
          "time": 216.64247074999997,
          "velocity": 0.6535433070866141
        },
        {
          "duration": 0.056603750000022046,
          "durationTicks": 24,
          "midi": 33,
          "name": "A1",
          "ticks": 78096,
          "time": 216.69907449999997,
          "velocity": 0.6614173228346457
        },
        {
          "duration": 0.056603750000022046,
          "durationTicks": 24,
          "midi": 45,
          "name": "A2",
          "ticks": 78096,
          "time": 216.69907449999997,
          "velocity": 0.6614173228346457
        },
        {
          "duration": 0.056603749999993624,
          "durationTicks": 24,
          "midi": 46,
          "name": "A#2",
          "ticks": 78120,
          "time": 216.75567825,
          "velocity": 0.6692913385826772
        },
        {
          "duration": 0.056603749999993624,
          "durationTicks": 24,
          "midi": 34,
          "name": "A#1",
          "ticks": 78120,
          "time": 216.75567825,
          "velocity": 0.6692913385826772
        },
        {
          "duration": 0.056603749999993624,
          "durationTicks": 24,
          "midi": 35,
          "name": "B1",
          "ticks": 78144,
          "time": 216.81228199999998,
          "velocity": 0.6850393700787402
        },
        {
          "duration": 0.056603749999993624,
          "durationTicks": 24,
          "midi": 47,
          "name": "B2",
          "ticks": 78144,
          "time": 216.81228199999998,
          "velocity": 0.6850393700787402
        },
        {
          "duration": 0.056603749999993624,
          "durationTicks": 24,
          "midi": 48,
          "name": "C3",
          "ticks": 78168,
          "time": 216.86888574999998,
          "velocity": 0.6929133858267716
        },
        {
          "duration": 0.056603749999993624,
          "durationTicks": 24,
          "midi": 36,
          "name": "C2",
          "ticks": 78168,
          "time": 216.86888574999998,
          "velocity": 0.6929133858267716
        },
        {
          "duration": 0.056603749999993624,
          "durationTicks": 24,
          "midi": 37,
          "name": "C#2",
          "ticks": 78192,
          "time": 216.92548949999997,
          "velocity": 0.7007874015748031
        },
        {
          "duration": 0.056603749999993624,
          "durationTicks": 24,
          "midi": 49,
          "name": "C#3",
          "ticks": 78192,
          "time": 216.92548949999997,
          "velocity": 0.7007874015748031
        },
        {
          "duration": 0.056603750000022046,
          "durationTicks": 24,
          "midi": 50,
          "name": "D3",
          "ticks": 78216,
          "time": 216.98209324999996,
          "velocity": 0.7086614173228346
        },
        {
          "duration": 0.056603750000022046,
          "durationTicks": 24,
          "midi": 38,
          "name": "D2",
          "ticks": 78216,
          "time": 216.98209324999996,
          "velocity": 0.7086614173228346
        },
        {
          "duration": 0.056603749999993624,
          "durationTicks": 24,
          "midi": 39,
          "name": "D#2",
          "ticks": 78240,
          "time": 217.03869699999998,
          "velocity": 0.7244094488188977
        },
        {
          "duration": 0.056603749999993624,
          "durationTicks": 24,
          "midi": 51,
          "name": "D#3",
          "ticks": 78240,
          "time": 217.03869699999998,
          "velocity": 0.7244094488188977
        },
        {
          "duration": 0.056603749999993624,
          "durationTicks": 24,
          "midi": 40,
          "name": "E2",
          "ticks": 78264,
          "time": 217.09530074999998,
          "velocity": 0.7322834645669292
        },
        {
          "duration": 0.056603749999993624,
          "durationTicks": 24,
          "midi": 52,
          "name": "E3",
          "ticks": 78264,
          "time": 217.09530074999998,
          "velocity": 0.7322834645669292
        },
        {
          "duration": 0.056603749999993624,
          "durationTicks": 24,
          "midi": 53,
          "name": "F3",
          "ticks": 78288,
          "time": 217.15190449999997,
          "velocity": 0.7401574803149606
        },
        {
          "duration": 0.056603749999993624,
          "durationTicks": 24,
          "midi": 41,
          "name": "F2",
          "ticks": 78288,
          "time": 217.15190449999997,
          "velocity": 0.7401574803149606
        },
        {
          "duration": 0.056603750000022046,
          "durationTicks": 24,
          "midi": 42,
          "name": "F#2",
          "ticks": 78312,
          "time": 217.20850824999997,
          "velocity": 0.7480314960629921
        },
        {
          "duration": 0.056603750000022046,
          "durationTicks": 24,
          "midi": 54,
          "name": "F#3",
          "ticks": 78312,
          "time": 217.20850824999997,
          "velocity": 0.7480314960629921
        },
        {
          "duration": 0.056603749999993624,
          "durationTicks": 24,
          "midi": 43,
          "name": "G2",
          "ticks": 78336,
          "time": 217.265112,
          "velocity": 0.7244094488188977
        },
        {
          "duration": 0.056603749999993624,
          "durationTicks": 24,
          "midi": 55,
          "name": "G3",
          "ticks": 78336,
          "time": 217.265112,
          "velocity": 0.7244094488188977
        },
        {
          "duration": 0.056603749999993624,
          "durationTicks": 24,
          "midi": 44,
          "name": "G#2",
          "ticks": 78360,
          "time": 217.32171574999998,
          "velocity": 0.7322834645669292
        },
        {
          "duration": 0.056603749999993624,
          "durationTicks": 24,
          "midi": 56,
          "name": "G#3",
          "ticks": 78360,
          "time": 217.32171574999998,
          "velocity": 0.7322834645669292
        },
        {
          "duration": 0.056603749999993624,
          "durationTicks": 24,
          "midi": 45,
          "name": "A2",
          "ticks": 78384,
          "time": 217.37831949999998,
          "velocity": 0.7401574803149606
        },
        {
          "duration": 0.056603749999993624,
          "durationTicks": 24,
          "midi": 57,
          "name": "A3",
          "ticks": 78384,
          "time": 217.37831949999998,
          "velocity": 0.7401574803149606
        },
        {
          "duration": 0.056603749999993624,
          "durationTicks": 24,
          "midi": 58,
          "name": "A#3",
          "ticks": 78408,
          "time": 217.43492324999997,
          "velocity": 0.7480314960629921
        },
        {
          "duration": 0.056603749999993624,
          "durationTicks": 24,
          "midi": 46,
          "name": "A#2",
          "ticks": 78408,
          "time": 217.43492324999997,
          "velocity": 0.7480314960629921
        },
        {
          "duration": 0.056603750000022046,
          "durationTicks": 24,
          "midi": 59,
          "name": "B3",
          "ticks": 78432,
          "time": 217.49152699999996,
          "velocity": 0.7244094488188977
        },
        {
          "duration": 0.056603750000022046,
          "durationTicks": 24,
          "midi": 47,
          "name": "B2",
          "ticks": 78432,
          "time": 217.49152699999996,
          "velocity": 0.7244094488188977
        },
        {
          "duration": 0.056603749999993624,
          "durationTicks": 24,
          "midi": 60,
          "name": "C4",
          "ticks": 78456,
          "time": 217.54813074999998,
          "velocity": 0.7322834645669292
        },
        {
          "duration": 0.056603749999993624,
          "durationTicks": 24,
          "midi": 48,
          "name": "C3",
          "ticks": 78456,
          "time": 217.54813074999998,
          "velocity": 0.7322834645669292
        },
        {
          "duration": 0.056603749999993624,
          "durationTicks": 24,
          "midi": 49,
          "name": "C#3",
          "ticks": 78480,
          "time": 217.60473449999998,
          "velocity": 0.7401574803149606
        },
        {
          "duration": 0.056603749999993624,
          "durationTicks": 24,
          "midi": 61,
          "name": "C#4",
          "ticks": 78480,
          "time": 217.60473449999998,
          "velocity": 0.7401574803149606
        },
        {
          "duration": 0.056603749999993624,
          "durationTicks": 24,
          "midi": 50,
          "name": "D3",
          "ticks": 78504,
          "time": 217.66133824999997,
          "velocity": 0.7480314960629921
        },
        {
          "duration": 0.056603749999993624,
          "durationTicks": 24,
          "midi": 62,
          "name": "D4",
          "ticks": 78504,
          "time": 217.66133824999997,
          "velocity": 0.7480314960629921
        },
        {
          "duration": 0.056603750000022046,
          "durationTicks": 24,
          "midi": 51,
          "name": "D#3",
          "ticks": 78528,
          "time": 217.71794199999997,
          "velocity": 0.7244094488188977
        },
        {
          "duration": 0.056603750000022046,
          "durationTicks": 24,
          "midi": 63,
          "name": "D#4",
          "ticks": 78528,
          "time": 217.71794199999997,
          "velocity": 0.7244094488188977
        },
        {
          "duration": 0.056603749999993624,
          "durationTicks": 24,
          "midi": 52,
          "name": "E3",
          "ticks": 78552,
          "time": 217.77454575,
          "velocity": 0.7322834645669292
        },
        {
          "duration": 0.056603749999993624,
          "durationTicks": 24,
          "midi": 64,
          "name": "E4",
          "ticks": 78552,
          "time": 217.77454575,
          "velocity": 0.7322834645669292
        },
        {
          "duration": 0.056603749999993624,
          "durationTicks": 24,
          "midi": 53,
          "name": "F3",
          "ticks": 78576,
          "time": 217.83114949999998,
          "velocity": 0.7401574803149606
        },
        {
          "duration": 0.056603749999993624,
          "durationTicks": 24,
          "midi": 65,
          "name": "F4",
          "ticks": 78576,
          "time": 217.83114949999998,
          "velocity": 0.7401574803149606
        },
        {
          "duration": 0.056603749999993624,
          "durationTicks": 24,
          "midi": 66,
          "name": "F#4",
          "ticks": 78600,
          "time": 217.88775324999997,
          "velocity": 0.7480314960629921
        },
        {
          "duration": 0.056603749999993624,
          "durationTicks": 24,
          "midi": 54,
          "name": "F#3",
          "ticks": 78600,
          "time": 217.88775324999997,
          "velocity": 0.7480314960629921
        },
        {
          "duration": 0.056603750000022046,
          "durationTicks": 24,
          "midi": 67,
          "name": "G4",
          "ticks": 78624,
          "time": 217.94435699999997,
          "velocity": 0.7244094488188977
        },
        {
          "duration": 0.056603750000022046,
          "durationTicks": 24,
          "midi": 55,
          "name": "G3",
          "ticks": 78624,
          "time": 217.94435699999997,
          "velocity": 0.7244094488188977
        },
        {
          "duration": 0.056603749999993624,
          "durationTicks": 24,
          "midi": 68,
          "name": "G#4",
          "ticks": 78648,
          "time": 218.00096075,
          "velocity": 0.7322834645669292
        },
        {
          "duration": 0.056603749999993624,
          "durationTicks": 24,
          "midi": 56,
          "name": "G#3",
          "ticks": 78648,
          "time": 218.00096075,
          "velocity": 0.7322834645669292
        },
        {
          "duration": 0.056603749999993624,
          "durationTicks": 24,
          "midi": 69,
          "name": "A4",
          "ticks": 78672,
          "time": 218.05756449999998,
          "velocity": 0.7401574803149606
        },
        {
          "duration": 0.056603749999993624,
          "durationTicks": 24,
          "midi": 57,
          "name": "A3",
          "ticks": 78672,
          "time": 218.05756449999998,
          "velocity": 0.7401574803149606
        },
        {
          "duration": 0.056603749999993624,
          "durationTicks": 24,
          "midi": 58,
          "name": "A#3",
          "ticks": 78696,
          "time": 218.11416824999998,
          "velocity": 0.7480314960629921
        },
        {
          "duration": 0.056603749999993624,
          "durationTicks": 24,
          "midi": 70,
          "name": "A#4",
          "ticks": 78696,
          "time": 218.11416824999998,
          "velocity": 0.7480314960629921
        }
      ],
      "endOfTrackTicks": 82491
    },
    {
      "channel": 8,
      "controlChanges": {
        "6": [
          {
            "number": 6,
            "ticks": 0,
            "time": 0,
            "value": 0.09448818897637795
          },
          {
            "number": 6,
            "ticks": 0,
            "time": 0,
            "value": 0.09448818897637795
          },
          {
            "number": 6,
            "ticks": 0,
            "time": 0,
            "value": 0.09448818897637795
          },
          {
            "number": 6,
            "ticks": 82466,
            "time": 228.45777604166662,
            "value": 0.09448818897637795
          },
          {
            "number": 6,
            "ticks": 82491,
            "time": 228.52722057291663,
            "value": 0.09448818897637795
          }
        ],
        "7": [
          {
            "number": 7,
            "ticks": 0,
            "time": 0,
            "value": 0.7874015748031497
          },
          {
            "number": 7,
            "ticks": 0,
            "time": 0,
            "value": 0.7874015748031497
          },
          {
            "number": 7,
            "ticks": 0,
            "time": 0,
            "value": 0.7874015748031497
          },
          {
            "number": 7,
            "ticks": 0,
            "time": 0,
            "value": 0.7874015748031497
          },
          {
            "number": 7,
            "ticks": 82466,
            "time": 228.45777604166662,
            "value": 0.7874015748031497
          },
          {
            "number": 7,
            "ticks": 82491,
            "time": 228.52722057291663,
            "value": 0.7874015748031497
          }
        ],
        "10": [
          {
            "number": 10,
            "ticks": 0,
            "time": 0,
            "value": 0.5039370078740157
          },
          {
            "number": 10,
            "ticks": 0,
            "time": 0,
            "value": 0.5039370078740157
          },
          {
            "number": 10,
            "ticks": 0,
            "time": 0,
            "value": 0.5039370078740157
          },
          {
            "number": 10,
            "ticks": 0,
            "time": 0,
            "value": 0.5039370078740157
          },
          {
            "number": 10,
            "ticks": 82466,
            "time": 228.45777604166662,
            "value": 0.5039370078740157
          },
          {
            "number": 10,
            "ticks": 82491,
            "time": 228.52722057291663,
            "value": 0.5039370078740157
          }
        ],
        "100": [
          {
            "number": 100,
            "ticks": 0,
            "time": 0,
            "value": 0
          },
          {
            "number": 100,
            "ticks": 0,
            "time": 0,
            "value": 0
          },
          {
            "number": 100,
            "ticks": 0,
            "time": 0,
            "value": 0
          },
          {
            "number": 100,
            "ticks": 82466,
            "time": 228.45777604166662,
            "value": 0
          },
          {
            "number": 100,
            "ticks": 82491,
            "time": 228.52722057291663,
            "value": 0
          }
        ],
        "101": [
          {
            "number": 101,
            "ticks": 0,
            "time": 0,
            "value": 0
          },
          {
            "number": 101,
            "ticks": 0,
            "time": 0,
            "value": 0
          },
          {
            "number": 101,
            "ticks": 0,
            "time": 0,
            "value": 0
          },
          {
            "number": 101,
            "ticks": 82466,
            "time": 228.45777604166662,
            "value": 0
          },
          {
            "number": 101,
            "ticks": 82491,
            "time": 228.52722057291663,
            "value": 0
          }
        ]
      },
      "pitchBends": [
        {
          "ticks": 0,
          "time": 0,
          "value": 0
        },
        {
          "ticks": 0,
          "time": 0,
          "value": 0
        },
        {
          "ticks": 0,
          "time": 0,
          "value": 0
        },
        {
          "ticks": 0,
          "time": 0,
          "value": 0
        },
        {
          "ticks": 82466,
          "time": 228.45777604166662,
          "value": 0
        },
        {
          "ticks": 82491,
          "time": 228.52722057291663,
          "value": 0
        }
      ],
      "instrument": {
        "family": "piano",
        "number": 0,
        "name": "acoustic grand piano"
      },
      "name": "Crazy Piano",
      "notes": [
        {
          "duration": 0.07500009375000083,
          "durationTicks": 27,
          "midi": 85,
          "name": "C#6",
          "ticks": 3072,
          "time": 8.533344,
          "velocity": 0.8031496062992126
        },
        {
          "duration": 0.1333334999999991,
          "durationTicks": 48,
          "midi": 42,
          "name": "F#2",
          "ticks": 3264,
          "time": 9.066678,
          "velocity": 0.8110236220472441
        },
        {
          "duration": 0.13333350000000088,
          "durationTicks": 48,
          "midi": 34,
          "name": "A#1",
          "ticks": 3312,
          "time": 9.200011499999999,
          "velocity": 0.7165354330708661
        },
        {
          "duration": 0.13333350000000088,
          "durationTicks": 48,
          "midi": 46,
          "name": "A#2",
          "ticks": 3360,
          "time": 9.333345,
          "velocity": 0.8110236220472441
        },
        {
          "duration": 0.1333334999999991,
          "durationTicks": 48,
          "midi": 39,
          "name": "D#2",
          "ticks": 3408,
          "time": 9.4666785,
          "velocity": 0.8110236220472441
        },
        {
          "duration": 0.1333334999999991,
          "durationTicks": 48,
          "midi": 45,
          "name": "A2",
          "ticks": 3456,
          "time": 9.600012,
          "velocity": 0.8110236220472441
        },
        {
          "duration": 0.13333350000000088,
          "durationTicks": 48,
          "midi": 39,
          "name": "D#2",
          "ticks": 3504,
          "time": 9.733345499999999,
          "velocity": 0.8110236220472441
        },
        {
          "duration": 0.13333350000000088,
          "durationTicks": 48,
          "midi": 46,
          "name": "A#2",
          "ticks": 3552,
          "time": 9.866679,
          "velocity": 0.8110236220472441
        },
        {
          "duration": 0.1333334999999991,
          "durationTicks": 48,
          "midi": 39,
          "name": "D#2",
          "ticks": 3600,
          "time": 10.0000125,
          "velocity": 0.8110236220472441
        },
        {
          "duration": 0.1333334999999991,
          "durationTicks": 48,
          "midi": 47,
          "name": "B2",
          "ticks": 3648,
          "time": 10.133346,
          "velocity": 0.8110236220472441
        },
        {
          "duration": 0.13333350000000088,
          "durationTicks": 48,
          "midi": 39,
          "name": "D#2",
          "ticks": 3696,
          "time": 10.266679499999999,
          "velocity": 0.8110236220472441
        },
        {
          "duration": 0.13333350000000088,
          "durationTicks": 48,
          "midi": 45,
          "name": "A2",
          "ticks": 3744,
          "time": 10.400013,
          "velocity": 0.8110236220472441
        },
        {
          "duration": 0.1333334999999991,
          "durationTicks": 48,
          "midi": 39,
          "name": "D#2",
          "ticks": 3792,
          "time": 10.5333465,
          "velocity": 0.8110236220472441
        },
        {
          "duration": 0.1333334999999991,
          "durationTicks": 48,
          "midi": 46,
          "name": "A#2",
          "ticks": 3840,
          "time": 10.66668,
          "velocity": 0.8110236220472441
        },
        {
          "duration": 0.13333350000000088,
          "durationTicks": 48,
          "midi": 39,
          "name": "D#2",
          "ticks": 3888,
          "time": 10.800013499999999,
          "velocity": 0.8110236220472441
        },
        {
          "duration": 0.04444449999999911,
          "durationTicks": 16,
          "midi": 34,
          "name": "A#1",
          "ticks": 3936,
          "time": 10.933347,
          "velocity": 0.7165354330708661
        },
        {
          "duration": 0.04444449999999911,
          "durationTicks": 16,
          "midi": 34,
          "name": "A#1",
          "ticks": 3984,
          "time": 11.0666805,
          "velocity": 0.7165354330708661
        },
        {
          "duration": 0.1333334999999991,
          "durationTicks": 48,
          "midi": 42,
          "name": "F#2",
          "ticks": 4032,
          "time": 11.200014,
          "velocity": 0.8110236220472441
        },
        {
          "duration": 0.13333350000000088,
          "durationTicks": 48,
          "midi": 34,
          "name": "A#1",
          "ticks": 4080,
          "time": 11.333347499999999,
          "velocity": 0.7165354330708661
        },
        {
          "duration": 0.13333350000000088,
          "durationTicks": 48,
          "midi": 46,
          "name": "A#2",
          "ticks": 4128,
          "time": 11.466681,
          "velocity": 0.8110236220472441
        },
        {
          "duration": 0.1333334999999991,
          "durationTicks": 48,
          "midi": 39,
          "name": "D#2",
          "ticks": 4176,
          "time": 11.6000145,
          "velocity": 0.8110236220472441
        },
        {
          "duration": 0.1333334999999991,
          "durationTicks": 48,
          "midi": 45,
          "name": "A2",
          "ticks": 4224,
          "time": 11.733348,
          "velocity": 0.8110236220472441
        },
        {
          "duration": 0.13333350000000088,
          "durationTicks": 48,
          "midi": 39,
          "name": "D#2",
          "ticks": 4272,
          "time": 11.866681499999999,
          "velocity": 0.8110236220472441
        },
        {
          "duration": 0.13333350000000088,
          "durationTicks": 48,
          "midi": 46,
          "name": "A#2",
          "ticks": 4320,
          "time": 12.000015,
          "velocity": 0.8110236220472441
        },
        {
          "duration": 0.1333334999999991,
          "durationTicks": 48,
          "midi": 39,
          "name": "D#2",
          "ticks": 4368,
          "time": 12.1333485,
          "velocity": 0.8110236220472441
        },
        {
          "duration": 0.1333334999999991,
          "durationTicks": 48,
          "midi": 47,
          "name": "B2",
          "ticks": 4416,
          "time": 12.266682,
          "velocity": 0.8110236220472441
        },
        {
          "duration": 0.13333350000000088,
          "durationTicks": 48,
          "midi": 39,
          "name": "D#2",
          "ticks": 4464,
          "time": 12.400015499999999,
          "velocity": 0.8110236220472441
        },
        {
          "duration": 0.06666675000000133,
          "durationTicks": 24,
          "midi": 51,
          "name": "D#3",
          "ticks": 4464,
          "time": 12.400015499999999,
          "velocity": 0.8110236220472441
        },
        {
          "duration": 0.06666674999999955,
          "durationTicks": 24,
          "midi": 50,
          "name": "D3",
          "ticks": 4488,
          "time": 12.46668225,
          "velocity": 0.8110236220472441
        },
        {
          "duration": 0.06666674999999955,
          "durationTicks": 24,
          "midi": 49,
          "name": "C#3",
          "ticks": 4512,
          "time": 12.533349,
          "velocity": 0.8110236220472441
        },
        {
          "duration": 0.06666675000000133,
          "durationTicks": 24,
          "midi": 48,
          "name": "C3",
          "ticks": 4536,
          "time": 12.600015749999999,
          "velocity": 0.8110236220472441
        },
        {
          "duration": 0.06666674999999955,
          "durationTicks": 24,
          "midi": 47,
          "name": "B2",
          "ticks": 4560,
          "time": 12.6666825,
          "velocity": 0.8110236220472441
        },
        {
          "duration": 0.06666674999999955,
          "durationTicks": 24,
          "midi": 46,
          "name": "A#2",
          "ticks": 4584,
          "time": 12.73334925,
          "velocity": 0.8110236220472441
        },
        {
          "duration": 0.1333334999999991,
          "durationTicks": 48,
          "midi": 45,
          "name": "A2",
          "ticks": 4608,
          "time": 12.800016,
          "velocity": 0.8110236220472441
        },
        {
          "duration": 0.13333350000000088,
          "durationTicks": 48,
          "midi": 39,
          "name": "D#2",
          "ticks": 4656,
          "time": 12.933349499999998,
          "velocity": 0.8110236220472441
        },
        {
          "duration": 0.13333350000000088,
          "durationTicks": 48,
          "midi": 46,
          "name": "A#2",
          "ticks": 4704,
          "time": 13.066683,
          "velocity": 0.8110236220472441
        },
        {
          "duration": 0.1333334999999991,
          "durationTicks": 48,
          "midi": 39,
          "name": "D#2",
          "ticks": 4752,
          "time": 13.2000165,
          "velocity": 0.8110236220472441
        },
        {
          "duration": 0.13333350000000088,
          "durationTicks": 48,
          "midi": 46,
          "name": "A#2",
          "ticks": 4896,
          "time": 13.600017,
          "velocity": 0.7637795275590551
        },
        {
          "duration": 0.1333334999999991,
          "durationTicks": 48,
          "midi": 39,
          "name": "D#2",
          "ticks": 4944,
          "time": 13.7333505,
          "velocity": 0.7559055118110236
        },
        {
          "duration": 0.1333334999999991,
          "durationTicks": 48,
          "midi": 45,
          "name": "A2",
          "ticks": 4992,
          "time": 13.866684,
          "velocity": 0.7480314960629921
        },
        {
          "duration": 0.13333350000000088,
          "durationTicks": 48,
          "midi": 39,
          "name": "D#2",
          "ticks": 5040,
          "time": 14.000017499999998,
          "velocity": 0.7401574803149606
        },
        {
          "duration": 0.13333350000000088,
          "durationTicks": 48,
          "midi": 46,
          "name": "A#2",
          "ticks": 5088,
          "time": 14.133351,
          "velocity": 0.7244094488188977
        },
        {
          "duration": 0.1333334999999991,
          "durationTicks": 48,
          "midi": 39,
          "name": "D#2",
          "ticks": 5136,
          "time": 14.2666845,
          "velocity": 0.7086614173228346
        },
        {
          "duration": 0.1333334999999991,
          "durationTicks": 48,
          "midi": 46,
          "name": "A#2",
          "ticks": 5184,
          "time": 14.400018,
          "velocity": 0.6771653543307087
        },
        {
          "duration": 0.13333350000000088,
          "durationTicks": 48,
          "midi": 38,
          "name": "D2",
          "ticks": 5232,
          "time": 14.533351499999998,
          "velocity": 0.6535433070866141
        },
        {
          "duration": 0.13333350000000088,
          "durationTicks": 48,
          "midi": 44,
          "name": "G#2",
          "ticks": 5280,
          "time": 14.666685,
          "velocity": 0.6220472440944882
        },
        {
          "duration": 0.1333334999999991,
          "durationTicks": 48,
          "midi": 38,
          "name": "D2",
          "ticks": 5328,
          "time": 14.8000185,
          "velocity": 0.5984251968503937
        },
        {
          "duration": 0.1333334999999991,
          "durationTicks": 48,
          "midi": 45,
          "name": "A2",
          "ticks": 5376,
          "time": 14.933352,
          "velocity": 0.5669291338582677
        },
        {
          "duration": 0.13333350000000088,
          "durationTicks": 48,
          "midi": 38,
          "name": "D2",
          "ticks": 5424,
          "time": 15.066685499999998,
          "velocity": 0.5433070866141733
        },
        {
          "duration": 0.1333334999999991,
          "durationTicks": 48,
          "midi": 37,
          "name": "C#2",
          "ticks": 5568,
          "time": 15.466686,
          "velocity": 0.4566929133858268
        },
        {
          "duration": 0.13333350000000088,
          "durationTicks": 48,
          "midi": 37,
          "name": "C#2",
          "ticks": 5616,
          "time": 15.600019499999998,
          "velocity": 0.4251968503937008
        },
        {
          "duration": 0.13333350000000088,
          "durationTicks": 48,
          "midi": 44,
          "name": "G#2",
          "ticks": 5664,
          "time": 15.733353,
          "velocity": 0.4015748031496063
        },
        {
          "duration": 0.13333350000000088,
          "durationTicks": 48,
          "midi": 37,
          "name": "C#2",
          "ticks": 5720,
          "time": 15.88890875,
          "velocity": 0.3700787401574803
        },
        {
          "duration": 0.1333334999999991,
          "durationTicks": 48,
          "midi": 43,
          "name": "G2",
          "ticks": 5760,
          "time": 16.00002,
          "velocity": 0.3464566929133858
        },
        {
          "duration": 0.1333334999999991,
          "durationTicks": 48,
          "midi": 37,
          "name": "C#2",
          "ticks": 5808,
          "time": 16.1333535,
          "velocity": 0.31496062992125984
        },
        {
          "duration": 0.13333350000000266,
          "durationTicks": 48,
          "midi": 44,
          "name": "G#2",
          "ticks": 5856,
          "time": 16.266686999999997,
          "velocity": 0.29133858267716534
        },
        {
          "duration": 0.1333334999999991,
          "durationTicks": 48,
          "midi": 37,
          "name": "C#2",
          "ticks": 5904,
          "time": 16.4000205,
          "velocity": 0.25984251968503935
        },
        {
          "duration": 0.1333334999999991,
          "durationTicks": 48,
          "midi": 44,
          "name": "G#2",
          "ticks": 5952,
          "time": 16.533354,
          "velocity": 0.23622047244094488
        },
        {
          "duration": 0.13333350000000266,
          "durationTicks": 48,
          "midi": 36,
          "name": "C2",
          "ticks": 6000,
          "time": 16.6666875,
          "velocity": 0.2047244094488189
        },
        {
          "duration": 0.06666674999999955,
          "durationTicks": 24,
          "midi": 48,
          "name": "C3",
          "ticks": 6000,
          "time": 16.6666875,
          "velocity": 0.2047244094488189
        },
        {
          "duration": 0.0666667500000031,
          "durationTicks": 24,
          "midi": 47,
          "name": "B2",
          "ticks": 6024,
          "time": 16.733354249999998,
          "velocity": 0.1889763779527559
        },
        {
          "duration": 0.06666674999999955,
          "durationTicks": 24,
          "midi": 46,
          "name": "A#2",
          "ticks": 6048,
          "time": 16.800021,
          "velocity": 0.18110236220472442
        },
        {
          "duration": 0.06666674999999955,
          "durationTicks": 24,
          "midi": 45,
          "name": "A2",
          "ticks": 6072,
          "time": 16.86668775,
          "velocity": 0.16535433070866143
        },
        {
          "duration": 0.06666674999999955,
          "durationTicks": 24,
          "midi": 44,
          "name": "G#2",
          "ticks": 6096,
          "time": 16.9333545,
          "velocity": 0.14960629921259844
        },
        {
          "duration": 0.06666674999999955,
          "durationTicks": 24,
          "midi": 43,
          "name": "G2",
          "ticks": 6120,
          "time": 17.00002125,
          "velocity": 0.13385826771653545
        },
        {
          "duration": 0.1333334999999991,
          "durationTicks": 48,
          "midi": 42,
          "name": "F#2",
          "ticks": 6144,
          "time": 17.066688,
          "velocity": 0.11811023622047244
        },
        {
          "duration": 0.1333334999999991,
          "durationTicks": 48,
          "midi": 36,
          "name": "C2",
          "ticks": 6192,
          "time": 17.2000215,
          "velocity": 0.09448818897637795
        },
        {
          "duration": 0.13333350000000266,
          "durationTicks": 48,
          "midi": 43,
          "name": "G2",
          "ticks": 6240,
          "time": 17.333354999999997,
          "velocity": 0.06299212598425197
        },
        {
          "duration": 0.1333334999999991,
          "durationTicks": 48,
          "midi": 36,
          "name": "C2",
          "ticks": 6288,
          "time": 17.4666885,
          "velocity": 0.03937007874015748
        },
        {
          "duration": 0.06666674999999955,
          "durationTicks": 24,
          "midi": 69,
          "name": "A4",
          "ticks": 8832,
          "time": 24.533364,
          "velocity": 0.5590551181102362
        },
        {
          "duration": 0.06666674999999955,
          "durationTicks": 24,
          "midi": 70,
          "name": "A#4",
          "ticks": 8856,
          "time": 24.60003075,
          "velocity": 0.5669291338582677
        },
        {
          "duration": 0.06666674999999955,
          "durationTicks": 24,
          "midi": 74,
          "name": "D5",
          "ticks": 8880,
          "time": 24.666697499999998,
          "velocity": 0.5748031496062992
        },
        {
          "duration": 0.06666674999999955,
          "durationTicks": 24,
          "midi": 75,
          "name": "D#5",
          "ticks": 8904,
          "time": 24.733364249999997,
          "velocity": 0.5826771653543307
        },
        {
          "duration": 0.0666667500000031,
          "durationTicks": 24,
          "midi": 78,
          "name": "F#5",
          "ticks": 8928,
          "time": 24.800030999999997,
          "velocity": 0.5905511811023622
        },
        {
          "duration": 0.06666674999999955,
          "durationTicks": 24,
          "midi": 69,
          "name": "A4",
          "ticks": 8952,
          "time": 24.86669775,
          "velocity": 0.5984251968503937
        },
        {
          "duration": 0.06666674999999955,
          "durationTicks": 24,
          "midi": 70,
          "name": "A#4",
          "ticks": 8976,
          "time": 24.9333645,
          "velocity": 0.6062992125984252
        },
        {
          "duration": 0.06666674999999955,
          "durationTicks": 24,
          "midi": 75,
          "name": "D#5",
          "ticks": 9000,
          "time": 25.00003125,
          "velocity": 0.6141732283464567
        },
        {
          "duration": 0.06666674999999955,
          "durationTicks": 24,
          "midi": 78,
          "name": "F#5",
          "ticks": 9024,
          "time": 25.066698,
          "velocity": 0.6220472440944882
        },
        {
          "duration": 0.06666674999999955,
          "durationTicks": 24,
          "midi": 65,
          "name": "F4",
          "ticks": 9048,
          "time": 25.13336475,
          "velocity": 0.6299212598425197
        },
        {
          "duration": 0.06666674999999955,
          "durationTicks": 24,
          "midi": 66,
          "name": "F#4",
          "ticks": 9072,
          "time": 25.200031499999998,
          "velocity": 0.6377952755905512
        },
        {
          "duration": 0.0666667500000031,
          "durationTicks": 24,
          "midi": 69,
          "name": "A4",
          "ticks": 9096,
          "time": 25.266698249999997,
          "velocity": 0.6535433070866141
        },
        {
          "duration": 0.06666674999999955,
          "durationTicks": 24,
          "midi": 70,
          "name": "A#4",
          "ticks": 9120,
          "time": 25.333365,
          "velocity": 0.6614173228346457
        },
        {
          "duration": 0.06666674999999955,
          "durationTicks": 24,
          "midi": 74,
          "name": "D5",
          "ticks": 9144,
          "time": 25.40003175,
          "velocity": 0.6692913385826772
        },
        {
          "duration": 0.06666674999999955,
          "durationTicks": 24,
          "midi": 75,
          "name": "D#5",
          "ticks": 9168,
          "time": 25.4666985,
          "velocity": 0.6771653543307087
        },
        {
          "duration": 0.06666674999999955,
          "durationTicks": 24,
          "midi": 78,
          "name": "F#5",
          "ticks": 9192,
          "time": 25.53336525,
          "velocity": 0.6850393700787402
        },
        {
          "duration": 0.1333334999999991,
          "durationTicks": 48,
          "midi": 71,
          "name": "B4",
          "ticks": 9216,
          "time": 25.600032,
          "velocity": 0.6929133858267716
        },
        {
          "duration": 0.06666674999999955,
          "durationTicks": 24,
          "midi": 68,
          "name": "G#4",
          "ticks": 9264,
          "time": 25.733365499999998,
          "velocity": 0.7086614173228346
        },
        {
          "duration": 0.06666674999999955,
          "durationTicks": 24,
          "midi": 71,
          "name": "B4",
          "ticks": 9288,
          "time": 25.800032249999997,
          "velocity": 0.7165354330708661
        },
        {
          "duration": 0.0666667500000031,
          "durationTicks": 24,
          "midi": 74,
          "name": "D5",
          "ticks": 9312,
          "time": 25.866698999999997,
          "velocity": 0.7244094488188977
        },
        {
          "duration": 0.06666674999999955,
          "durationTicks": 24,
          "midi": 75,
          "name": "D#5",
          "ticks": 9336,
          "time": 25.93336575,
          "velocity": 0.7322834645669292
        },
        {
          "duration": 0.06666674999999955,
          "durationTicks": 24,
          "midi": 78,
          "name": "F#5",
          "ticks": 9360,
          "time": 26.0000325,
          "velocity": 0.7401574803149606
        },
        {
          "duration": 0.06666674999999955,
          "durationTicks": 24,
          "midi": 81,
          "name": "A5",
          "ticks": 9384,
          "time": 26.06669925,
          "velocity": 0.7480314960629921
        },
        {
          "duration": 0.1333334999999991,
          "durationTicks": 48,
          "midi": 80,
          "name": "G#5",
          "ticks": 9408,
          "time": 26.133366,
          "velocity": 0.7559055118110236
        },
        {
          "duration": 0.24444474999999954,
          "durationTicks": 88,
          "midi": 88,
          "name": "E6",
          "ticks": 12384,
          "time": 34.400043,
          "velocity": 0.7559055118110236
        },
        {
          "duration": 0.24444474999999244,
          "durationTicks": 88,
          "midi": 100,
          "name": "E7",
          "ticks": 12392,
          "time": 34.42226525,
          "velocity": 0.7559055118110236
        },
        {
          "duration": 0.24444474999999954,
          "durationTicks": 88,
          "midi": 87,
          "name": "D#6",
          "ticks": 12480,
          "time": 34.666709999999995,
          "velocity": 0.7559055118110236
        },
        {
          "duration": 0.24444474999999954,
          "durationTicks": 88,
          "midi": 99,
          "name": "D#7",
          "ticks": 12488,
          "time": 34.68893225,
          "velocity": 0.7559055118110236
        },
        {
          "duration": 0.24444474999999244,
          "durationTicks": 88,
          "midi": 86,
          "name": "D6",
          "ticks": 12576,
          "time": 34.933377,
          "velocity": 0.7559055118110236
        },
        {
          "duration": 0.24444474999999954,
          "durationTicks": 88,
          "midi": 98,
          "name": "D7",
          "ticks": 12584,
          "time": 34.95559925,
          "velocity": 0.7559055118110236
        },
        {
          "duration": 0.24444474999999954,
          "durationTicks": 88,
          "midi": 85,
          "name": "C#6",
          "ticks": 12672,
          "time": 35.200044,
          "velocity": 0.7559055118110236
        },
        {
          "duration": 0.24444474999999244,
          "durationTicks": 88,
          "midi": 97,
          "name": "C#7",
          "ticks": 12680,
          "time": 35.222266250000004,
          "velocity": 0.7559055118110236
        },
        {
          "duration": 0.24444474999999954,
          "durationTicks": 88,
          "midi": 84,
          "name": "C6",
          "ticks": 12768,
          "time": 35.466711,
          "velocity": 0.7559055118110236
        },
        {
          "duration": 0.24444474999999954,
          "durationTicks": 88,
          "midi": 96,
          "name": "C7",
          "ticks": 12776,
          "time": 35.48893325,
          "velocity": 0.7559055118110236
        },
        {
          "duration": 0.24444474999999244,
          "durationTicks": 88,
          "midi": 83,
          "name": "B5",
          "ticks": 12864,
          "time": 35.733378,
          "velocity": 0.7559055118110236
        },
        {
          "duration": 0.24444474999999954,
          "durationTicks": 88,
          "midi": 95,
          "name": "B6",
          "ticks": 12872,
          "time": 35.75560025,
          "velocity": 0.7559055118110236
        },
        {
          "duration": 0.5333339999999964,
          "durationTicks": 192,
          "midi": 81,
          "name": "A5",
          "ticks": 12960,
          "time": 36.000045,
          "velocity": 0.7559055118110236
        },
        {
          "duration": 0.5333340000000035,
          "durationTicks": 192,
          "midi": 93,
          "name": "A6",
          "ticks": 12968,
          "time": 36.02226725,
          "velocity": 0.7559055118110236
        },
        {
          "duration": 0.08888900000000177,
          "durationTicks": 32,
          "midi": 80,
          "name": "G#5",
          "ticks": 13000,
          "time": 36.11115624999999,
          "velocity": 0.6220472440944882
        },
        {
          "duration": 0.08888899999999467,
          "durationTicks": 32,
          "midi": 79,
          "name": "G5",
          "ticks": 13016,
          "time": 36.15560075,
          "velocity": 0.5748031496062992
        },
        {
          "duration": 0.08888900000000888,
          "durationTicks": 32,
          "midi": 78,
          "name": "F#5",
          "ticks": 13032,
          "time": 36.200045249999995,
          "velocity": 0.5196850393700787
        },
        {
          "duration": 0.08888900000000888,
          "durationTicks": 32,
          "midi": 77,
          "name": "F5",
          "ticks": 13048,
          "time": 36.24448974999999,
          "velocity": 0.47244094488188976
        },
        {
          "duration": 0.08888899999999467,
          "durationTicks": 32,
          "midi": 76,
          "name": "E5",
          "ticks": 13064,
          "time": 36.288934250000004,
          "velocity": 0.41732283464566927
        },
        {
          "duration": 0.08888900000000177,
          "durationTicks": 32,
          "midi": 75,
          "name": "D#5",
          "ticks": 13080,
          "time": 36.33337875,
          "velocity": 0.3700787401574803
        },
        {
          "duration": 0.08888900000000177,
          "durationTicks": 32,
          "midi": 74,
          "name": "D5",
          "ticks": 13096,
          "time": 36.37782325,
          "velocity": 0.31496062992125984
        },
        {
          "duration": 0.08888899999999467,
          "durationTicks": 32,
          "midi": 73,
          "name": "C#5",
          "ticks": 13112,
          "time": 36.42226775,
          "velocity": 0.25984251968503935
        },
        {
          "duration": 0.08888900000000177,
          "durationTicks": 32,
          "midi": 72,
          "name": "C5",
          "ticks": 13128,
          "time": 36.46671225,
          "velocity": 0.2125984251968504
        },
        {
          "duration": 0.066666749999996,
          "durationTicks": 24,
          "midi": 63,
          "name": "D#4",
          "ticks": 15264,
          "time": 42.400053,
          "velocity": 0.6141732283464567
        },
        {
          "duration": 0.0666667500000031,
          "durationTicks": 24,
          "midi": 64,
          "name": "E4",
          "ticks": 15288,
          "time": 42.466719749999996,
          "velocity": 0.6299212598425197
        },
        {
          "duration": 0.066666749999996,
          "durationTicks": 24,
          "midi": 68,
          "name": "G#4",
          "ticks": 15312,
          "time": 42.5333865,
          "velocity": 0.6456692913385826
        },
        {
          "duration": 0.0666667500000031,
          "durationTicks": 24,
          "midi": 70,
          "name": "A#4",
          "ticks": 15336,
          "time": 42.600053249999995,
          "velocity": 0.6614173228346457
        },
        {
          "duration": 0.0666667500000031,
          "durationTicks": 24,
          "midi": 75,
          "name": "D#5",
          "ticks": 15360,
          "time": 42.66672,
          "velocity": 0.6771653543307087
        },
        {
          "duration": 0.066666749999996,
          "durationTicks": 24,
          "midi": 76,
          "name": "E5",
          "ticks": 15384,
          "time": 42.73338675,
          "velocity": 0.6929133858267716
        },
        {
          "duration": 0.0666667500000031,
          "durationTicks": 24,
          "midi": 80,
          "name": "G#5",
          "ticks": 15408,
          "time": 42.8000535,
          "velocity": 0.7165354330708661
        },
        {
          "duration": 0.066666749999996,
          "durationTicks": 24,
          "midi": 82,
          "name": "A#5",
          "ticks": 15432,
          "time": 42.86672025,
          "velocity": 0.7322834645669292
        },
        {
          "duration": 0.0666667500000031,
          "durationTicks": 24,
          "midi": 87,
          "name": "D#6",
          "ticks": 15456,
          "time": 42.933386999999996,
          "velocity": 0.7480314960629921
        },
        {
          "duration": 0.066666749999996,
          "durationTicks": 24,
          "midi": 88,
          "name": "E6",
          "ticks": 15480,
          "time": 43.00005375,
          "velocity": 0.7637795275590551
        },
        {
          "duration": 0.0666667500000031,
          "durationTicks": 24,
          "midi": 92,
          "name": "G#6",
          "ticks": 15504,
          "time": 43.066720499999995,
          "velocity": 0.7795275590551181
        },
        {
          "duration": 0.066666749999996,
          "durationTicks": 24,
          "midi": 94,
          "name": "A#6",
          "ticks": 15528,
          "time": 43.13338725,
          "velocity": 0.7952755905511811
        },
        {
          "duration": 0.0666667500000031,
          "durationTicks": 24,
          "midi": 100,
          "name": "E7",
          "ticks": 15552,
          "time": 43.200053999999994,
          "velocity": 0.8110236220472441
        },
        {
          "duration": 0.0666667500000031,
          "durationTicks": 24,
          "midi": 96,
          "name": "C7",
          "ticks": 15576,
          "time": 43.26672075,
          "velocity": 0.7952755905511811
        },
        {
          "duration": 0.066666749999996,
          "durationTicks": 24,
          "midi": 92,
          "name": "G#6",
          "ticks": 15600,
          "time": 43.3333875,
          "velocity": 0.7795275590551181
        },
        {
          "duration": 0.0666667500000031,
          "durationTicks": 24,
          "midi": 91,
          "name": "G6",
          "ticks": 15624,
          "time": 43.40005425,
          "velocity": 0.7637795275590551
        },
        {
          "duration": 0.066666749999996,
          "durationTicks": 24,
          "midi": 88,
          "name": "E6",
          "ticks": 15648,
          "time": 43.466721,
          "velocity": 0.7480314960629921
        },
        {
          "duration": 0.0666667500000031,
          "durationTicks": 24,
          "midi": 84,
          "name": "C6",
          "ticks": 15672,
          "time": 43.533387749999996,
          "velocity": 0.7244094488188977
        },
        {
          "duration": 0.066666749999996,
          "durationTicks": 24,
          "midi": 80,
          "name": "G#5",
          "ticks": 15696,
          "time": 43.6000545,
          "velocity": 0.7086614173228346
        },
        {
          "duration": 0.0666667500000031,
          "durationTicks": 24,
          "midi": 79,
          "name": "G5",
          "ticks": 15720,
          "time": 43.666721249999995,
          "velocity": 0.6929133858267716
        },
        {
          "duration": 0.0666667500000031,
          "durationTicks": 24,
          "midi": 66,
          "name": "F#4",
          "ticks": 15744,
          "time": 43.733388,
          "velocity": 0.6771653543307087
        },
        {
          "duration": 0.066666749999996,
          "durationTicks": 24,
          "midi": 67,
          "name": "G4",
          "ticks": 15768,
          "time": 43.80005475,
          "velocity": 0.6850393700787402
        },
        {
          "duration": 0.0666667500000031,
          "durationTicks": 24,
          "midi": 71,
          "name": "B4",
          "ticks": 15792,
          "time": 43.8667215,
          "velocity": 0.7007874015748031
        },
        {
          "duration": 0.066666749999996,
          "durationTicks": 24,
          "midi": 73,
          "name": "C#5",
          "ticks": 15816,
          "time": 43.93338825,
          "velocity": 0.7086614173228346
        },
        {
          "duration": 0.0666667500000031,
          "durationTicks": 24,
          "midi": 78,
          "name": "F#5",
          "ticks": 15840,
          "time": 44.000054999999996,
          "velocity": 0.7244094488188977
        },
        {
          "duration": 0.066666749999996,
          "durationTicks": 24,
          "midi": 79,
          "name": "G5",
          "ticks": 15864,
          "time": 44.06672175,
          "velocity": 0.7322834645669292
        },
        {
          "duration": 0.0666667500000031,
          "durationTicks": 24,
          "midi": 83,
          "name": "B5",
          "ticks": 15888,
          "time": 44.133388499999995,
          "velocity": 0.7401574803149606
        },
        {
          "duration": 0.0666667500000031,
          "durationTicks": 24,
          "midi": 85,
          "name": "C#6",
          "ticks": 15912,
          "time": 44.20005525,
          "velocity": 0.7559055118110236
        },
        {
          "duration": 0.066666749999996,
          "durationTicks": 24,
          "midi": 90,
          "name": "F#6",
          "ticks": 15936,
          "time": 44.266722,
          "velocity": 0.7637795275590551
        },
        {
          "duration": 0.0666667500000031,
          "durationTicks": 24,
          "midi": 91,
          "name": "G6",
          "ticks": 15960,
          "time": 44.33338875,
          "velocity": 0.7795275590551181
        },
        {
          "duration": 0.066666749999996,
          "durationTicks": 24,
          "midi": 95,
          "name": "B6",
          "ticks": 15984,
          "time": 44.4000555,
          "velocity": 0.7874015748031497
        },
        {
          "duration": 0.0666667500000031,
          "durationTicks": 24,
          "midi": 97,
          "name": "C#7",
          "ticks": 16008,
          "time": 44.46672225,
          "velocity": 0.8031496062992126
        },
        {
          "duration": 0.066666749999996,
          "durationTicks": 24,
          "midi": 103,
          "name": "G7",
          "ticks": 16032,
          "time": 44.533389,
          "velocity": 0.8031496062992126
        },
        {
          "duration": 0.0666667500000031,
          "durationTicks": 24,
          "midi": 99,
          "name": "D#7",
          "ticks": 16056,
          "time": 44.600055749999996,
          "velocity": 0.7952755905511811
        },
        {
          "duration": 0.066666749999996,
          "durationTicks": 24,
          "midi": 95,
          "name": "B6",
          "ticks": 16080,
          "time": 44.6667225,
          "velocity": 0.7874015748031497
        },
        {
          "duration": 0.0666667500000031,
          "durationTicks": 24,
          "midi": 94,
          "name": "A#6",
          "ticks": 16104,
          "time": 44.733389249999995,
          "velocity": 0.7795275590551181
        },
        {
          "duration": 0.0666667500000031,
          "durationTicks": 24,
          "midi": 91,
          "name": "G6",
          "ticks": 16128,
          "time": 44.800056,
          "velocity": 0.7637795275590551
        },
        {
          "duration": 0.066666749999996,
          "durationTicks": 24,
          "midi": 87,
          "name": "D#6",
          "ticks": 16152,
          "time": 44.86672275,
          "velocity": 0.7559055118110236
        },
        {
          "duration": 0.0666667500000031,
          "durationTicks": 24,
          "midi": 83,
          "name": "B5",
          "ticks": 16176,
          "time": 44.9333895,
          "velocity": 0.7480314960629921
        },
        {
          "duration": 0.066666749999996,
          "durationTicks": 24,
          "midi": 82,
          "name": "A#5",
          "ticks": 16200,
          "time": 45.00005625,
          "velocity": 0.7401574803149606
        },
        {
          "duration": 0.0666667500000031,
          "durationTicks": 24,
          "midi": 44,
          "name": "G#2",
          "ticks": 16224,
          "time": 45.066722999999996,
          "velocity": 0.7874015748031497
        },
        {
          "duration": 0.0666667500000031,
          "durationTicks": 24,
          "midi": 50,
          "name": "D3",
          "ticks": 16224,
          "time": 45.066722999999996,
          "velocity": 0.7874015748031497
        },
        {
          "duration": 0.066666749999996,
          "durationTicks": 24,
          "midi": 62,
          "name": "D4",
          "ticks": 16248,
          "time": 45.13338975,
          "velocity": 0.7874015748031497
        },
        {
          "duration": 0.066666749999996,
          "durationTicks": 24,
          "midi": 56,
          "name": "G#3",
          "ticks": 16248,
          "time": 45.13338975,
          "velocity": 0.7874015748031497
        },
        {
          "duration": 0.0666667500000031,
          "durationTicks": 24,
          "midi": 50,
          "name": "D3",
          "ticks": 16272,
          "time": 45.200056499999995,
          "velocity": 0.7874015748031497
        },
        {
          "duration": 0.0666667500000031,
          "durationTicks": 24,
          "midi": 44,
          "name": "G#2",
          "ticks": 16272,
          "time": 45.200056499999995,
          "velocity": 0.7874015748031497
        },
        {
          "duration": 0.066666749999996,
          "durationTicks": 24,
          "midi": 62,
          "name": "D4",
          "ticks": 16296,
          "time": 45.26672325,
          "velocity": 0.7874015748031497
        },
        {
          "duration": 0.066666749999996,
          "durationTicks": 24,
          "midi": 56,
          "name": "G#3",
          "ticks": 16296,
          "time": 45.26672325,
          "velocity": 0.7874015748031497
        },
        {
          "duration": 0.0666667500000031,
          "durationTicks": 24,
          "midi": 52,
          "name": "E3",
          "ticks": 16320,
          "time": 45.333389999999994,
          "velocity": 0.7874015748031497
        },
        {
          "duration": 0.0666667500000031,
          "durationTicks": 24,
          "midi": 46,
          "name": "A#2",
          "ticks": 16320,
          "time": 45.333389999999994,
          "velocity": 0.7874015748031497
        },
        {
          "duration": 0.0666667500000031,
          "durationTicks": 24,
          "midi": 58,
          "name": "A#3",
          "ticks": 16344,
          "time": 45.40005675,
          "velocity": 0.7874015748031497
        },
        {
          "duration": 0.0666667500000031,
          "durationTicks": 24,
          "midi": 64,
          "name": "E4",
          "ticks": 16344,
          "time": 45.40005675,
          "velocity": 0.7874015748031497
        },
        {
          "duration": 0.066666749999996,
          "durationTicks": 24,
          "midi": 54,
          "name": "F#3",
          "ticks": 16368,
          "time": 45.4667235,
          "velocity": 0.7874015748031497
        },
        {
          "duration": 0.066666749999996,
          "durationTicks": 24,
          "midi": 48,
          "name": "C3",
          "ticks": 16368,
          "time": 45.4667235,
          "velocity": 0.7874015748031497
        },
        {
          "duration": 0.0666667500000031,
          "durationTicks": 24,
          "midi": 66,
          "name": "F#4",
          "ticks": 16392,
          "time": 45.53339025,
          "velocity": 0.7874015748031497
        },
        {
          "duration": 0.0666667500000031,
          "durationTicks": 24,
          "midi": 60,
          "name": "C4",
          "ticks": 16392,
          "time": 45.53339025,
          "velocity": 0.7874015748031497
        },
        {
          "duration": 0.066666749999996,
          "durationTicks": 24,
          "midi": 47,
          "name": "B2",
          "ticks": 16416,
          "time": 45.600057,
          "velocity": 0.7874015748031497
        },
        {
          "duration": 0.066666749999996,
          "durationTicks": 24,
          "midi": 53,
          "name": "F3",
          "ticks": 16416,
          "time": 45.600057,
          "velocity": 0.7874015748031497
        },
        {
          "duration": 0.0666667500000031,
          "durationTicks": 24,
          "midi": 59,
          "name": "B3",
          "ticks": 16440,
          "time": 45.666723749999996,
          "velocity": 0.7874015748031497
        },
        {
          "duration": 0.0666667500000031,
          "durationTicks": 24,
          "midi": 65,
          "name": "F4",
          "ticks": 16440,
          "time": 45.666723749999996,
          "velocity": 0.7874015748031497
        },
        {
          "duration": 0.066666749999996,
          "durationTicks": 24,
          "midi": 53,
          "name": "F3",
          "ticks": 16464,
          "time": 45.7333905,
          "velocity": 0.7874015748031497
        },
        {
          "duration": 0.066666749999996,
          "durationTicks": 24,
          "midi": 47,
          "name": "B2",
          "ticks": 16464,
          "time": 45.7333905,
          "velocity": 0.7874015748031497
        },
        {
          "duration": 0.0666667500000031,
          "durationTicks": 24,
          "midi": 59,
          "name": "B3",
          "ticks": 16488,
          "time": 45.800057249999995,
          "velocity": 0.7874015748031497
        },
        {
          "duration": 0.0666667500000031,
          "durationTicks": 24,
          "midi": 65,
          "name": "F4",
          "ticks": 16488,
          "time": 45.800057249999995,
          "velocity": 0.7874015748031497
        },
        {
          "duration": 0.0666667500000031,
          "durationTicks": 24,
          "midi": 62,
          "name": "D4",
          "ticks": 16512,
          "time": 45.866724,
          "velocity": 0.7874015748031497
        },
        {
          "duration": 0.0666667500000031,
          "durationTicks": 24,
          "midi": 68,
          "name": "G#4",
          "ticks": 16512,
          "time": 45.866724,
          "velocity": 0.7874015748031497
        },
        {
          "duration": 0.066666749999996,
          "durationTicks": 24,
          "midi": 74,
          "name": "D5",
          "ticks": 16536,
          "time": 45.93339075,
          "velocity": 0.7874015748031497
        },
        {
          "duration": 0.066666749999996,
          "durationTicks": 24,
          "midi": 80,
          "name": "G#5",
          "ticks": 16536,
          "time": 45.93339075,
          "velocity": 0.7874015748031497
        },
        {
          "duration": 0.0666667500000031,
          "durationTicks": 24,
          "midi": 62,
          "name": "D4",
          "ticks": 16560,
          "time": 46.0000575,
          "velocity": 0.7874015748031497
        },
        {
          "duration": 0.0666667500000031,
          "durationTicks": 24,
          "midi": 68,
          "name": "G#4",
          "ticks": 16560,
          "time": 46.0000575,
          "velocity": 0.7874015748031497
        },
        {
          "duration": 0.066666749999996,
          "durationTicks": 24,
          "midi": 80,
          "name": "G#5",
          "ticks": 16584,
          "time": 46.06672425,
          "velocity": 0.7874015748031497
        },
        {
          "duration": 0.066666749999996,
          "durationTicks": 24,
          "midi": 74,
          "name": "D5",
          "ticks": 16584,
          "time": 46.06672425,
          "velocity": 0.7874015748031497
        },
        {
          "duration": 0.0666667500000031,
          "durationTicks": 24,
          "midi": 64,
          "name": "E4",
          "ticks": 16608,
          "time": 46.133390999999996,
          "velocity": 0.7874015748031497
        },
        {
          "duration": 0.0666667500000031,
          "durationTicks": 24,
          "midi": 70,
          "name": "A#4",
          "ticks": 16608,
          "time": 46.133390999999996,
          "velocity": 0.7874015748031497
        },
        {
          "duration": 0.066666749999996,
          "durationTicks": 24,
          "midi": 76,
          "name": "E5",
          "ticks": 16632,
          "time": 46.20005775,
          "velocity": 0.7874015748031497
        },
        {
          "duration": 0.066666749999996,
          "durationTicks": 24,
          "midi": 82,
          "name": "A#5",
          "ticks": 16632,
          "time": 46.20005775,
          "velocity": 0.7874015748031497
        },
        {
          "duration": 0.0666667500000031,
          "durationTicks": 24,
          "midi": 67,
          "name": "G4",
          "ticks": 16656,
          "time": 46.266724499999995,
          "velocity": 0.7874015748031497
        },
        {
          "duration": 0.0666667500000031,
          "durationTicks": 24,
          "midi": 61,
          "name": "C#4",
          "ticks": 16656,
          "time": 46.266724499999995,
          "velocity": 0.7874015748031497
        },
        {
          "duration": 0.0666667500000031,
          "durationTicks": 24,
          "midi": 73,
          "name": "C#5",
          "ticks": 16680,
          "time": 46.33339125,
          "velocity": 0.7874015748031497
        },
        {
          "duration": 0.0666667500000031,
          "durationTicks": 24,
          "midi": 79,
          "name": "G5",
          "ticks": 16680,
          "time": 46.33339125,
          "velocity": 0.7874015748031497
        },
        {
          "duration": 0.066666749999996,
          "durationTicks": 24,
          "midi": 62,
          "name": "D4",
          "ticks": 16704,
          "time": 46.400058,
          "velocity": 0.7874015748031497
        },
        {
          "duration": 0.066666749999996,
          "durationTicks": 24,
          "midi": 68,
          "name": "G#4",
          "ticks": 16704,
          "time": 46.400058,
          "velocity": 0.7874015748031497
        },
        {
          "duration": 0.0666667500000031,
          "durationTicks": 24,
          "midi": 80,
          "name": "G#5",
          "ticks": 16728,
          "time": 46.46672475,
          "velocity": 0.7874015748031497
        },
        {
          "duration": 0.0666667500000031,
          "durationTicks": 24,
          "midi": 74,
          "name": "D5",
          "ticks": 16728,
          "time": 46.46672475,
          "velocity": 0.7874015748031497
        },
        {
          "duration": 0.066666749999996,
          "durationTicks": 24,
          "midi": 62,
          "name": "D4",
          "ticks": 16752,
          "time": 46.5333915,
          "velocity": 0.7874015748031497
        },
        {
          "duration": 0.066666749999996,
          "durationTicks": 24,
          "midi": 68,
          "name": "G#4",
          "ticks": 16752,
          "time": 46.5333915,
          "velocity": 0.7874015748031497
        },
        {
          "duration": 0.0666667500000031,
          "durationTicks": 24,
          "midi": 74,
          "name": "D5",
          "ticks": 16776,
          "time": 46.60005825,
          "velocity": 0.7874015748031497
        },
        {
          "duration": 0.0666667500000031,
          "durationTicks": 24,
          "midi": 80,
          "name": "G#5",
          "ticks": 16776,
          "time": 46.60005825,
          "velocity": 0.7874015748031497
        },
        {
          "duration": 0.066666749999996,
          "durationTicks": 24,
          "midi": 72,
          "name": "C5",
          "ticks": 16800,
          "time": 46.666725,
          "velocity": 0.7874015748031497
        },
        {
          "duration": 0.066666749999996,
          "durationTicks": 24,
          "midi": 66,
          "name": "F#4",
          "ticks": 16800,
          "time": 46.666725,
          "velocity": 0.7874015748031497
        },
        {
          "duration": 0.0666667500000031,
          "durationTicks": 24,
          "midi": 84,
          "name": "C6",
          "ticks": 16824,
          "time": 46.733391749999996,
          "velocity": 0.7874015748031497
        },
        {
          "duration": 0.0666667500000031,
          "durationTicks": 24,
          "midi": 78,
          "name": "F#5",
          "ticks": 16824,
          "time": 46.733391749999996,
          "velocity": 0.7874015748031497
        },
        {
          "duration": 0.066666749999996,
          "durationTicks": 24,
          "midi": 63,
          "name": "D#4",
          "ticks": 16848,
          "time": 46.8000585,
          "velocity": 0.7874015748031497
        },
        {
          "duration": 0.066666749999996,
          "durationTicks": 24,
          "midi": 69,
          "name": "A4",
          "ticks": 16848,
          "time": 46.8000585,
          "velocity": 0.7874015748031497
        },
        {
          "duration": 0.0666667500000031,
          "durationTicks": 24,
          "midi": 75,
          "name": "D#5",
          "ticks": 16872,
          "time": 46.866725249999995,
          "velocity": 0.7874015748031497
        },
        {
          "duration": 0.0666667500000031,
          "durationTicks": 24,
          "midi": 81,
          "name": "A5",
          "ticks": 16872,
          "time": 46.866725249999995,
          "velocity": 0.7874015748031497
        },
        {
          "duration": 0.0666667500000031,
          "durationTicks": 24,
          "midi": 70,
          "name": "A#4",
          "ticks": 16896,
          "time": 46.933392,
          "velocity": 0.7874015748031497
        },
        {
          "duration": 0.0666667500000031,
          "durationTicks": 24,
          "midi": 64,
          "name": "E4",
          "ticks": 16896,
          "time": 46.933392,
          "velocity": 0.7874015748031497
        },
        {
          "duration": 0.066666749999996,
          "durationTicks": 24,
          "midi": 76,
          "name": "E5",
          "ticks": 16920,
          "time": 47.00005875,
          "velocity": 0.7874015748031497
        },
        {
          "duration": 0.066666749999996,
          "durationTicks": 24,
          "midi": 82,
          "name": "A#5",
          "ticks": 16920,
          "time": 47.00005875,
          "velocity": 0.7874015748031497
        },
        {
          "duration": 0.0666667500000031,
          "durationTicks": 24,
          "midi": 68,
          "name": "G#4",
          "ticks": 16944,
          "time": 47.0667255,
          "velocity": 0.7874015748031497
        },
        {
          "duration": 0.0666667500000031,
          "durationTicks": 24,
          "midi": 74,
          "name": "D5",
          "ticks": 16944,
          "time": 47.0667255,
          "velocity": 0.7874015748031497
        },
        {
          "duration": 1.6666687499999995,
          "durationTicks": 600,
          "midi": 86,
          "name": "D6",
          "ticks": 16968,
          "time": 47.13339225,
          "velocity": 0.7874015748031497
        },
        {
          "duration": 1.6666687499999995,
          "durationTicks": 600,
          "midi": 80,
          "name": "G#5",
          "ticks": 16968,
          "time": 47.13339225,
          "velocity": 0.7874015748031497
        },
        {
          "duration": 1.6666687499999995,
          "durationTicks": 600,
          "midi": 92,
          "name": "G#6",
          "ticks": 16968,
          "time": 47.13339225,
          "velocity": 0.7874015748031497
        },
        {
          "duration": 0.1333334999999991,
          "durationTicks": 48,
          "midi": 85,
          "name": "C#6",
          "ticks": 18528,
          "time": 51.466730999999996,
          "velocity": 0.7401574803149606
        },
        {
          "duration": 0.1333334999999991,
          "durationTicks": 48,
          "midi": 90,
          "name": "F#6",
          "ticks": 18528,
          "time": 51.466730999999996,
          "velocity": 0.7401574803149606
        },
        {
          "duration": 0.0666667500000031,
          "durationTicks": 24,
          "midi": 78,
          "name": "F#5",
          "ticks": 18576,
          "time": 51.600064499999995,
          "velocity": 0.7401574803149606
        },
        {
          "duration": 0.1333334999999991,
          "durationTicks": 48,
          "midi": 88,
          "name": "E6",
          "ticks": 18600,
          "time": 51.66673125,
          "velocity": 0.7401574803149606
        },
        {
          "duration": 0.1333334999999991,
          "durationTicks": 48,
          "midi": 81,
          "name": "A5",
          "ticks": 18600,
          "time": 51.66673125,
          "velocity": 0.7401574803149606
        },
        {
          "duration": 0.0666667500000031,
          "durationTicks": 24,
          "midi": 84,
          "name": "C6",
          "ticks": 18648,
          "time": 51.80006475,
          "velocity": 0.7401574803149606
        },
        {
          "duration": 0.066666749999996,
          "durationTicks": 24,
          "midi": 83,
          "name": "B5",
          "ticks": 18672,
          "time": 51.8667315,
          "velocity": 0.7401574803149606
        },
        {
          "duration": 0.0666667500000031,
          "durationTicks": 24,
          "midi": 81,
          "name": "A5",
          "ticks": 18696,
          "time": 51.933398249999996,
          "velocity": 0.7401574803149606
        },
        {
          "duration": 0.1333334999999991,
          "durationTicks": 48,
          "midi": 83,
          "name": "B5",
          "ticks": 18720,
          "time": 52.000065,
          "velocity": 0.7401574803149606
        },
        {
          "duration": 0.1333334999999991,
          "durationTicks": 48,
          "midi": 77,
          "name": "F5",
          "ticks": 18720,
          "time": 52.000065,
          "velocity": 0.7401574803149606
        },
        {
          "duration": 0.066666749999996,
          "durationTicks": 24,
          "midi": 84,
          "name": "C6",
          "ticks": 18768,
          "time": 52.1333985,
          "velocity": 0.7401574803149606
        },
        {
          "duration": 0.066666749999996,
          "durationTicks": 24,
          "midi": 78,
          "name": "F#5",
          "ticks": 18768,
          "time": 52.1333985,
          "velocity": 0.7401574803149606
        },
        {
          "duration": 0.1333335000000062,
          "durationTicks": 48,
          "midi": 85,
          "name": "C#6",
          "ticks": 18792,
          "time": 52.200065249999994,
          "velocity": 0.7401574803149606
        },
        {
          "duration": 0.1333335000000062,
          "durationTicks": 48,
          "midi": 80,
          "name": "G#5",
          "ticks": 18792,
          "time": 52.200065249999994,
          "velocity": 0.7401574803149606
        },
        {
          "duration": 0.066666749999996,
          "durationTicks": 24,
          "midi": 73,
          "name": "C#5",
          "ticks": 18840,
          "time": 52.33339875,
          "velocity": 0.7401574803149606
        },
        {
          "duration": 0.1333334999999991,
          "durationTicks": 48,
          "midi": 92,
          "name": "G#6",
          "ticks": 18864,
          "time": 52.4000655,
          "velocity": 0.7401574803149606
        },
        {
          "duration": 0.1333334999999991,
          "durationTicks": 48,
          "midi": 89,
          "name": "F6",
          "ticks": 18864,
          "time": 52.4000655,
          "velocity": 0.7401574803149606
        },
        {
          "duration": 0.1333334999999991,
          "durationTicks": 48,
          "midi": 90,
          "name": "F#6",
          "ticks": 18912,
          "time": 52.533398999999996,
          "velocity": 0.7401574803149606
        },
        {
          "duration": 0.1333334999999991,
          "durationTicks": 48,
          "midi": 93,
          "name": "A6",
          "ticks": 18912,
          "time": 52.533398999999996,
          "velocity": 0.7401574803149606
        },
        {
          "duration": 0.0666667500000031,
          "durationTicks": 24,
          "midi": 78,
          "name": "F#5",
          "ticks": 18960,
          "time": 52.666732499999995,
          "velocity": 0.7401574803149606
        },
        {
          "duration": 0.0666667500000031,
          "durationTicks": 24,
          "midi": 83,
          "name": "B5",
          "ticks": 18984,
          "time": 52.73339925,
          "velocity": 0.7401574803149606
        },
        {
          "duration": 0.066666749999996,
          "durationTicks": 24,
          "midi": 85,
          "name": "C#6",
          "ticks": 19008,
          "time": 52.800066,
          "velocity": 0.7401574803149606
        },
        {
          "duration": 0.0666667500000031,
          "durationTicks": 24,
          "midi": 88,
          "name": "E6",
          "ticks": 19032,
          "time": 52.86673275,
          "velocity": 0.7401574803149606
        },
        {
          "duration": 0.066666749999996,
          "durationTicks": 24,
          "midi": 83,
          "name": "B5",
          "ticks": 19056,
          "time": 52.9333995,
          "velocity": 0.7401574803149606
        },
        {
          "duration": 0.0666667500000031,
          "durationTicks": 24,
          "midi": 84,
          "name": "C6",
          "ticks": 19080,
          "time": 53.000066249999996,
          "velocity": 0.7401574803149606
        },
        {
          "duration": 0.066666749999996,
          "durationTicks": 24,
          "midi": 83,
          "name": "B5",
          "ticks": 19104,
          "time": 53.066733,
          "velocity": 0.7401574803149606
        },
        {
          "duration": 0.0666667500000031,
          "durationTicks": 24,
          "midi": 81,
          "name": "A5",
          "ticks": 19128,
          "time": 53.133399749999995,
          "velocity": 0.7401574803149606
        },
        {
          "duration": 0.1333334999999991,
          "durationTicks": 48,
          "midi": 78,
          "name": "F#5",
          "ticks": 19152,
          "time": 53.2000665,
          "velocity": 0.7401574803149606
        },
        {
          "duration": 0.0666667500000031,
          "durationTicks": 24,
          "midi": 76,
          "name": "E5",
          "ticks": 19200,
          "time": 53.3334,
          "velocity": 0.7401574803149606
        },
        {
          "duration": 0.0666667500000031,
          "durationTicks": 24,
          "midi": 71,
          "name": "B4",
          "ticks": 19200,
          "time": 53.3334,
          "velocity": 0.7401574803149606
        },
        {
          "duration": 0.066666749999996,
          "durationTicks": 24,
          "midi": 78,
          "name": "F#5",
          "ticks": 19224,
          "time": 53.40006675,
          "velocity": 0.7401574803149606
        },
        {
          "duration": 0.066666749999996,
          "durationTicks": 24,
          "midi": 73,
          "name": "C#5",
          "ticks": 19224,
          "time": 53.40006675,
          "velocity": 0.7401574803149606
        },
        {
          "duration": 0.0666667500000031,
          "durationTicks": 24,
          "midi": 76,
          "name": "E5",
          "ticks": 19248,
          "time": 53.4667335,
          "velocity": 0.7401574803149606
        },
        {
          "duration": 0.0666667500000031,
          "durationTicks": 24,
          "midi": 81,
          "name": "A5",
          "ticks": 19248,
          "time": 53.4667335,
          "velocity": 0.7401574803149606
        },
        {
          "duration": 0.066666749999996,
          "durationTicks": 24,
          "midi": 83,
          "name": "B5",
          "ticks": 19272,
          "time": 53.53340025,
          "velocity": 0.7401574803149606
        },
        {
          "duration": 0.066666749999996,
          "durationTicks": 24,
          "midi": 78,
          "name": "F#5",
          "ticks": 19272,
          "time": 53.53340025,
          "velocity": 0.7401574803149606
        },
        {
          "duration": 0.1333334999999991,
          "durationTicks": 48,
          "midi": 84,
          "name": "C6",
          "ticks": 19296,
          "time": 53.600066999999996,
          "velocity": 0.7401574803149606
        },
        {
          "duration": 0.1333334999999991,
          "durationTicks": 48,
          "midi": 78,
          "name": "F#5",
          "ticks": 19296,
          "time": 53.600066999999996,
          "velocity": 0.7401574803149606
        },
        {
          "duration": 0.0666667500000031,
          "durationTicks": 24,
          "midi": 73,
          "name": "C#5",
          "ticks": 19344,
          "time": 53.733400499999995,
          "velocity": 0.7401574803149606
        },
        {
          "duration": 0.1333334999999991,
          "durationTicks": 48,
          "midi": 85,
          "name": "C#6",
          "ticks": 19368,
          "time": 53.80006725,
          "velocity": 0.7401574803149606
        },
        {
          "duration": 0.1333334999999991,
          "durationTicks": 48,
          "midi": 78,
          "name": "F#5",
          "ticks": 19368,
          "time": 53.80006725,
          "velocity": 0.7401574803149606
        },
        {
          "duration": 0.0666667500000031,
          "durationTicks": 24,
          "midi": 83,
          "name": "B5",
          "ticks": 19416,
          "time": 53.93340075,
          "velocity": 0.7401574803149606
        },
        {
          "duration": 0.066666749999996,
          "durationTicks": 24,
          "midi": 85,
          "name": "C#6",
          "ticks": 19440,
          "time": 54.0000675,
          "velocity": 0.7401574803149606
        },
        {
          "duration": 0.0666667500000031,
          "durationTicks": 24,
          "midi": 88,
          "name": "E6",
          "ticks": 19464,
          "time": 54.066734249999996,
          "velocity": 0.7401574803149606
        },
        {
          "duration": 0.066666749999996,
          "durationTicks": 24,
          "midi": 85,
          "name": "C#6",
          "ticks": 19488,
          "time": 54.133401,
          "velocity": 0.7401574803149606
        },
        {
          "duration": 0.066666749999996,
          "durationTicks": 24,
          "midi": 89,
          "name": "F6",
          "ticks": 19488,
          "time": 54.133401,
          "velocity": 0.7401574803149606
        },
        {
          "duration": 0.0666667500000031,
          "durationTicks": 24,
          "midi": 85,
          "name": "C#6",
          "ticks": 19512,
          "time": 54.200067749999995,
          "velocity": 0.7401574803149606
        },
        {
          "duration": 0.0666667500000031,
          "durationTicks": 24,
          "midi": 80,
          "name": "G#5",
          "ticks": 19512,
          "time": 54.200067749999995,
          "velocity": 0.7401574803149606
        },
        {
          "duration": 0.066666749999996,
          "durationTicks": 24,
          "midi": 73,
          "name": "C#5",
          "ticks": 19536,
          "time": 54.2667345,
          "velocity": 0.7401574803149606
        },
        {
          "duration": 0.066666749999996,
          "durationTicks": 24,
          "midi": 77,
          "name": "F5",
          "ticks": 19536,
          "time": 54.2667345,
          "velocity": 0.7401574803149606
        },
        {
          "duration": 0.1333335000000062,
          "durationTicks": 48,
          "midi": 80,
          "name": "G#5",
          "ticks": 19560,
          "time": 54.333401249999994,
          "velocity": 0.7401574803149606
        },
        {
          "duration": 0.1333335000000062,
          "durationTicks": 48,
          "midi": 83,
          "name": "B5",
          "ticks": 19560,
          "time": 54.333401249999994,
          "velocity": 0.7401574803149606
        },
        {
          "duration": 0.066666749999996,
          "durationTicks": 24,
          "midi": 84,
          "name": "C6",
          "ticks": 19608,
          "time": 54.46673475,
          "velocity": 0.7401574803149606
        },
        {
          "duration": 0.0666667500000031,
          "durationTicks": 24,
          "midi": 83,
          "name": "B5",
          "ticks": 19632,
          "time": 54.5334015,
          "velocity": 0.7401574803149606
        },
        {
          "duration": 0.066666749999996,
          "durationTicks": 24,
          "midi": 81,
          "name": "A5",
          "ticks": 19656,
          "time": 54.60006825,
          "velocity": 0.7401574803149606
        },
        {
          "duration": 0.0666667500000031,
          "durationTicks": 24,
          "midi": 78,
          "name": "F#5",
          "ticks": 19680,
          "time": 54.666734999999996,
          "velocity": 0.7401574803149606
        },
        {
          "duration": 0.0666667500000031,
          "durationTicks": 24,
          "midi": 73,
          "name": "C#5",
          "ticks": 19680,
          "time": 54.666734999999996,
          "velocity": 0.7401574803149606
        },
        {
          "duration": 0.066666749999996,
          "durationTicks": 24,
          "midi": 76,
          "name": "E5",
          "ticks": 19704,
          "time": 54.73340175,
          "velocity": 0.7401574803149606
        },
        {
          "duration": 0.066666749999996,
          "durationTicks": 24,
          "midi": 81,
          "name": "A5",
          "ticks": 19704,
          "time": 54.73340175,
          "velocity": 0.7401574803149606
        },
        {
          "duration": 0.1333335000000062,
          "durationTicks": 48,
          "midi": 78,
          "name": "F#5",
          "ticks": 19728,
          "time": 54.800068499999995,
          "velocity": 0.7401574803149606
        },
        {
          "duration": 0.1333335000000062,
          "durationTicks": 48,
          "midi": 73,
          "name": "C#5",
          "ticks": 19728,
          "time": 54.800068499999995,
          "velocity": 0.7401574803149606
        },
        {
          "duration": 0.1333334999999991,
          "durationTicks": 48,
          "midi": 92,
          "name": "G#6",
          "ticks": 19776,
          "time": 54.933402,
          "velocity": 0.7401574803149606
        },
        {
          "duration": 0.1333334999999991,
          "durationTicks": 48,
          "midi": 89,
          "name": "F6",
          "ticks": 19776,
          "time": 54.933402,
          "velocity": 0.7401574803149606
        },
        {
          "duration": 0.1333334999999991,
          "durationTicks": 48,
          "midi": 89,
          "name": "F6",
          "ticks": 19824,
          "time": 55.0667355,
          "velocity": 0.7401574803149606
        },
        {
          "duration": 0.1333334999999991,
          "durationTicks": 48,
          "midi": 85,
          "name": "C#6",
          "ticks": 19824,
          "time": 55.0667355,
          "velocity": 0.7401574803149606
        },
        {
          "duration": 0.1333334999999991,
          "durationTicks": 48,
          "midi": 85,
          "name": "C#6",
          "ticks": 19872,
          "time": 55.200069,
          "velocity": 0.7401574803149606
        },
        {
          "duration": 0.1333334999999991,
          "durationTicks": 48,
          "midi": 90,
          "name": "F#6",
          "ticks": 19872,
          "time": 55.200069,
          "velocity": 0.7401574803149606
        },
        {
          "duration": 0.066666749999996,
          "durationTicks": 24,
          "midi": 80,
          "name": "G#5",
          "ticks": 19920,
          "time": 55.3334025,
          "velocity": 0.7401574803149606
        },
        {
          "duration": 0.066666749999996,
          "durationTicks": 24,
          "midi": 83,
          "name": "B5",
          "ticks": 19920,
          "time": 55.3334025,
          "velocity": 0.7401574803149606
        },
        {
          "duration": 0.0666667500000031,
          "durationTicks": 24,
          "midi": 84,
          "name": "C6",
          "ticks": 19944,
          "time": 55.400069249999994,
          "velocity": 0.7401574803149606
        },
        {
          "duration": 0.0666667500000031,
          "durationTicks": 24,
          "midi": 81,
          "name": "A5",
          "ticks": 19944,
          "time": 55.400069249999994,
          "velocity": 0.7401574803149606
        },
        {
          "duration": 0.1333334999999991,
          "durationTicks": 48,
          "midi": 78,
          "name": "F#5",
          "ticks": 19968,
          "time": 55.466736,
          "velocity": 0.7401574803149606
        },
        {
          "duration": 0.1333334999999991,
          "durationTicks": 48,
          "midi": 83,
          "name": "B5",
          "ticks": 19968,
          "time": 55.466736,
          "velocity": 0.7401574803149606
        },
        {
          "duration": 0.1333334999999991,
          "durationTicks": 48,
          "midi": 75,
          "name": "D#5",
          "ticks": 20016,
          "time": 55.6000695,
          "velocity": 0.7401574803149606
        },
        {
          "duration": 0.1333334999999991,
          "durationTicks": 48,
          "midi": 90,
          "name": "F#6",
          "ticks": 20064,
          "time": 55.733402999999996,
          "velocity": 0.7401574803149606
        },
        {
          "duration": 0.1333334999999991,
          "durationTicks": 48,
          "midi": 85,
          "name": "C#6",
          "ticks": 20064,
          "time": 55.733402999999996,
          "velocity": 0.7401574803149606
        },
        {
          "duration": 0.0666667500000031,
          "durationTicks": 24,
          "midi": 78,
          "name": "F#5",
          "ticks": 20112,
          "time": 55.866736499999995,
          "velocity": 0.7401574803149606
        },
        {
          "duration": 0.1333334999999991,
          "durationTicks": 48,
          "midi": 88,
          "name": "E6",
          "ticks": 20136,
          "time": 55.93340325,
          "velocity": 0.7401574803149606
        },
        {
          "duration": 0.1333334999999991,
          "durationTicks": 48,
          "midi": 81,
          "name": "A5",
          "ticks": 20136,
          "time": 55.93340325,
          "velocity": 0.7401574803149606
        },
        {
          "duration": 0.0666667500000031,
          "durationTicks": 24,
          "midi": 84,
          "name": "C6",
          "ticks": 20184,
          "time": 56.06673675,
          "velocity": 0.7401574803149606
        },
        {
          "duration": 0.066666749999996,
          "durationTicks": 24,
          "midi": 83,
          "name": "B5",
          "ticks": 20208,
          "time": 56.1334035,
          "velocity": 0.7401574803149606
        },
        {
          "duration": 0.0666667500000031,
          "durationTicks": 24,
          "midi": 81,
          "name": "A5",
          "ticks": 20232,
          "time": 56.200070249999996,
          "velocity": 0.7401574803149606
        },
        {
          "duration": 0.1333334999999991,
          "durationTicks": 48,
          "midi": 77,
          "name": "F5",
          "ticks": 20256,
          "time": 56.266737,
          "velocity": 0.7401574803149606
        },
        {
          "duration": 0.1333334999999991,
          "durationTicks": 48,
          "midi": 83,
          "name": "B5",
          "ticks": 20256,
          "time": 56.266737,
          "velocity": 0.7401574803149606
        },
        {
          "duration": 0.066666749999996,
          "durationTicks": 24,
          "midi": 78,
          "name": "F#5",
          "ticks": 20304,
          "time": 56.4000705,
          "velocity": 0.7401574803149606
        },
        {
          "duration": 0.066666749999996,
          "durationTicks": 24,
          "midi": 84,
          "name": "C6",
          "ticks": 20304,
          "time": 56.4000705,
          "velocity": 0.7401574803149606
        },
        {
          "duration": 0.1333335000000062,
          "durationTicks": 48,
          "midi": 85,
          "name": "C#6",
          "ticks": 20328,
          "time": 56.466737249999994,
          "velocity": 0.7401574803149606
        },
        {
          "duration": 0.1333335000000062,
          "durationTicks": 48,
          "midi": 80,
          "name": "G#5",
          "ticks": 20328,
          "time": 56.466737249999994,
          "velocity": 0.7401574803149606
        },
        {
          "duration": 0.066666749999996,
          "durationTicks": 24,
          "midi": 73,
          "name": "C#5",
          "ticks": 20376,
          "time": 56.60007075,
          "velocity": 0.7401574803149606
        },
        {
          "duration": 0.1333334999999991,
          "durationTicks": 48,
          "midi": 92,
          "name": "G#6",
          "ticks": 20400,
          "time": 56.666737499999996,
          "velocity": 0.7401574803149606
        },
        {
          "duration": 0.1333334999999991,
          "durationTicks": 48,
          "midi": 89,
          "name": "F6",
          "ticks": 20400,
          "time": 56.666737499999996,
          "velocity": 0.7401574803149606
        },
        {
          "duration": 0.1333334999999991,
          "durationTicks": 48,
          "midi": 90,
          "name": "F#6",
          "ticks": 20448,
          "time": 56.800070999999996,
          "velocity": 0.7401574803149606
        },
        {
          "duration": 0.1333334999999991,
          "durationTicks": 48,
          "midi": 93,
          "name": "A6",
          "ticks": 20448,
          "time": 56.800070999999996,
          "velocity": 0.7401574803149606
        },
        {
          "duration": 0.0666667500000031,
          "durationTicks": 24,
          "midi": 95,
          "name": "B6",
          "ticks": 20496,
          "time": 56.933404499999995,
          "velocity": 0.7401574803149606
        },
        {
          "duration": 0.0666667500000031,
          "durationTicks": 24,
          "midi": 93,
          "name": "A6",
          "ticks": 20520,
          "time": 57.00007125,
          "velocity": 0.7401574803149606
        },
        {
          "duration": 0.066666749999996,
          "durationTicks": 24,
          "midi": 92,
          "name": "G#6",
          "ticks": 20544,
          "time": 57.066738,
          "velocity": 0.7401574803149606
        },
        {
          "duration": 0.0666667500000031,
          "durationTicks": 24,
          "midi": 93,
          "name": "A6",
          "ticks": 20568,
          "time": 57.13340475,
          "velocity": 0.7401574803149606
        },
        {
          "duration": 0.066666749999996,
          "durationTicks": 24,
          "midi": 90,
          "name": "F#6",
          "ticks": 20592,
          "time": 57.2000715,
          "velocity": 0.7401574803149606
        },
        {
          "duration": 0.0666667500000031,
          "durationTicks": 24,
          "midi": 85,
          "name": "C#6",
          "ticks": 20616,
          "time": 57.266738249999996,
          "velocity": 0.7401574803149606
        },
        {
          "duration": 0.066666749999996,
          "durationTicks": 24,
          "midi": 83,
          "name": "B5",
          "ticks": 20640,
          "time": 57.333405,
          "velocity": 0.7401574803149606
        },
        {
          "duration": 0.0666667500000031,
          "durationTicks": 24,
          "midi": 78,
          "name": "F#5",
          "ticks": 20664,
          "time": 57.400071749999995,
          "velocity": 0.7401574803149606
        },
        {
          "duration": 0.066666749999996,
          "durationTicks": 24,
          "midi": 83,
          "name": "B5",
          "ticks": 20688,
          "time": 57.4667385,
          "velocity": 0.7401574803149606
        },
        {
          "duration": 0.1333335000000062,
          "durationTicks": 48,
          "midi": 82,
          "name": "A#5",
          "ticks": 20712,
          "time": 57.533405249999994,
          "velocity": 0.7401574803149606
        },
        {
          "duration": 0.1333335000000062,
          "durationTicks": 48,
          "midi": 76,
          "name": "E5",
          "ticks": 20712,
          "time": 57.533405249999994,
          "velocity": 0.7401574803149606
        },
        {
          "duration": 0.066666749999996,
          "durationTicks": 24,
          "midi": 85,
          "name": "C#6",
          "ticks": 20760,
          "time": 57.66673875,
          "velocity": 0.7401574803149606
        },
        {
          "duration": 0.066666749999996,
          "durationTicks": 24,
          "midi": 78,
          "name": "F#5",
          "ticks": 20760,
          "time": 57.66673875,
          "velocity": 0.7401574803149606
        },
        {
          "duration": 0.1333334999999991,
          "durationTicks": 48,
          "midi": 90,
          "name": "F#6",
          "ticks": 20784,
          "time": 57.733405499999996,
          "velocity": 0.7401574803149606
        },
        {
          "duration": 0.1333334999999991,
          "durationTicks": 48,
          "midi": 85,
          "name": "C#6",
          "ticks": 20784,
          "time": 57.733405499999996,
          "velocity": 0.7401574803149606
        },
        {
          "duration": 0.1333334999999991,
          "durationTicks": 48,
          "midi": 86,
          "name": "D6",
          "ticks": 20832,
          "time": 57.866738999999995,
          "velocity": 0.7401574803149606
        },
        {
          "duration": 0.1333334999999991,
          "durationTicks": 48,
          "midi": 81,
          "name": "A5",
          "ticks": 20832,
          "time": 57.866738999999995,
          "velocity": 0.7401574803149606
        },
        {
          "duration": 0.0666667500000031,
          "durationTicks": 24,
          "midi": 78,
          "name": "F#5",
          "ticks": 20880,
          "time": 58.000072499999995,
          "velocity": 0.7401574803149606
        },
        {
          "duration": 0.066666749999996,
          "durationTicks": 24,
          "midi": 81,
          "name": "A5",
          "ticks": 20904,
          "time": 58.06673925,
          "velocity": 0.7401574803149606
        },
        {
          "duration": 0.0666667500000031,
          "durationTicks": 24,
          "midi": 83,
          "name": "B5",
          "ticks": 20928,
          "time": 58.133405999999994,
          "velocity": 0.7401574803149606
        },
        {
          "duration": 0.0666667500000031,
          "durationTicks": 24,
          "midi": 81,
          "name": "A5",
          "ticks": 20952,
          "time": 58.20007275,
          "velocity": 0.7401574803149606
        },
        {
          "duration": 0.066666749999996,
          "durationTicks": 24,
          "midi": 83,
          "name": "B5",
          "ticks": 20976,
          "time": 58.2667395,
          "velocity": 0.7401574803149606
        },
        {
          "duration": 0.0666667500000031,
          "durationTicks": 24,
          "midi": 88,
          "name": "E6",
          "ticks": 21000,
          "time": 58.333406249999996,
          "velocity": 0.7401574803149606
        },
        {
          "duration": 0.1333334999999991,
          "durationTicks": 48,
          "midi": 84,
          "name": "C6",
          "ticks": 21024,
          "time": 58.400073,
          "velocity": 0.7401574803149606
        },
        {
          "duration": 0.1333334999999991,
          "durationTicks": 48,
          "midi": 87,
          "name": "D#6",
          "ticks": 21024,
          "time": 58.400073,
          "velocity": 0.7401574803149606
        },
        {
          "duration": 0.066666749999996,
          "durationTicks": 24,
          "midi": 78,
          "name": "F#5",
          "ticks": 21072,
          "time": 58.5334065,
          "velocity": 0.7401574803149606
        },
        {
          "duration": 0.0666667500000031,
          "durationTicks": 24,
          "midi": 80,
          "name": "G#5",
          "ticks": 21096,
          "time": 58.600073249999994,
          "velocity": 0.7401574803149606
        },
        {
          "duration": 0.0666667500000031,
          "durationTicks": 24,
          "midi": 84,
          "name": "C6",
          "ticks": 21120,
          "time": 58.66674,
          "velocity": 0.7401574803149606
        },
        {
          "duration": 0.066666749999996,
          "durationTicks": 24,
          "midi": 80,
          "name": "G#5",
          "ticks": 21144,
          "time": 58.73340675,
          "velocity": 0.7401574803149606
        },
        {
          "duration": 0.0666667500000031,
          "durationTicks": 24,
          "midi": 84,
          "name": "C6",
          "ticks": 21168,
          "time": 58.800073499999996,
          "velocity": 0.7401574803149606
        },
        {
          "duration": 0.066666749999996,
          "durationTicks": 24,
          "midi": 87,
          "name": "D#6",
          "ticks": 21192,
          "time": 58.86674025,
          "velocity": 0.7401574803149606
        },
        {
          "duration": 0.1333334999999991,
          "durationTicks": 48,
          "midi": 90,
          "name": "F#6",
          "ticks": 21216,
          "time": 58.933406999999995,
          "velocity": 0.7401574803149606
        },
        {
          "duration": 0.1333334999999991,
          "durationTicks": 48,
          "midi": 85,
          "name": "C#6",
          "ticks": 21216,
          "time": 58.933406999999995,
          "velocity": 0.7401574803149606
        },
        {
          "duration": 0.1333334999999991,
          "durationTicks": 48,
          "midi": 90,
          "name": "F#6",
          "ticks": 21312,
          "time": 59.200074,
          "velocity": 0.7401574803149606
        },
        {
          "duration": 0.1333334999999991,
          "durationTicks": 48,
          "midi": 85,
          "name": "C#6",
          "ticks": 21312,
          "time": 59.200074,
          "velocity": 0.7401574803149606
        },
        {
          "duration": 0.1333334999999991,
          "durationTicks": 48,
          "midi": 89,
          "name": "F6",
          "ticks": 21408,
          "time": 59.466741,
          "velocity": 0.7401574803149606
        },
        {
          "duration": 0.1333334999999991,
          "durationTicks": 48,
          "midi": 85,
          "name": "C#6",
          "ticks": 21408,
          "time": 59.466741,
          "velocity": 0.7401574803149606
        },
        {
          "duration": 0.066666749999996,
          "durationTicks": 24,
          "midi": 90,
          "name": "F#6",
          "ticks": 21456,
          "time": 59.6000745,
          "velocity": 0.7401574803149606
        },
        {
          "duration": 0.0666667500000031,
          "durationTicks": 24,
          "midi": 92,
          "name": "G#6",
          "ticks": 21480,
          "time": 59.666741249999994,
          "velocity": 0.7401574803149606
        },
        {
          "duration": 0.1333334999999991,
          "durationTicks": 48,
          "midi": 90,
          "name": "F#6",
          "ticks": 21600,
          "time": 60.000074999999995,
          "velocity": 0.7401574803149606
        },
        {
          "duration": 0.1333334999999991,
          "durationTicks": 48,
          "midi": 85,
          "name": "C#6",
          "ticks": 21600,
          "time": 60.000074999999995,
          "velocity": 0.7401574803149606
        },
        {
          "duration": 0.0666667500000031,
          "durationTicks": 24,
          "midi": 78,
          "name": "F#5",
          "ticks": 21648,
          "time": 60.133408499999994,
          "velocity": 0.7401574803149606
        },
        {
          "duration": 0.1333334999999991,
          "durationTicks": 48,
          "midi": 88,
          "name": "E6",
          "ticks": 21672,
          "time": 60.20007525,
          "velocity": 0.7401574803149606
        },
        {
          "duration": 0.1333334999999991,
          "durationTicks": 48,
          "midi": 81,
          "name": "A5",
          "ticks": 21672,
          "time": 60.20007525,
          "velocity": 0.7401574803149606
        },
        {
          "duration": 0.0666667500000031,
          "durationTicks": 24,
          "midi": 84,
          "name": "C6",
          "ticks": 21720,
          "time": 60.33340875,
          "velocity": 0.7401574803149606
        },
        {
          "duration": 0.066666749999996,
          "durationTicks": 24,
          "midi": 83,
          "name": "B5",
          "ticks": 21744,
          "time": 60.4000755,
          "velocity": 0.7401574803149606
        },
        {
          "duration": 0.0666667500000031,
          "durationTicks": 24,
          "midi": 81,
          "name": "A5",
          "ticks": 21768,
          "time": 60.466742249999996,
          "velocity": 0.7401574803149606
        },
        {
          "duration": 0.1333334999999991,
          "durationTicks": 48,
          "midi": 83,
          "name": "B5",
          "ticks": 21792,
          "time": 60.533409,
          "velocity": 0.7401574803149606
        },
        {
          "duration": 0.1333334999999991,
          "durationTicks": 48,
          "midi": 77,
          "name": "F5",
          "ticks": 21792,
          "time": 60.533409,
          "velocity": 0.7401574803149606
        },
        {
          "duration": 0.066666749999996,
          "durationTicks": 24,
          "midi": 84,
          "name": "C6",
          "ticks": 21840,
          "time": 60.6667425,
          "velocity": 0.7401574803149606
        },
        {
          "duration": 0.066666749999996,
          "durationTicks": 24,
          "midi": 78,
          "name": "F#5",
          "ticks": 21840,
          "time": 60.6667425,
          "velocity": 0.7401574803149606
        },
        {
          "duration": 0.1333335000000062,
          "durationTicks": 48,
          "midi": 85,
          "name": "C#6",
          "ticks": 21864,
          "time": 60.733409249999994,
          "velocity": 0.7401574803149606
        },
        {
          "duration": 0.1333335000000062,
          "durationTicks": 48,
          "midi": 80,
          "name": "G#5",
          "ticks": 21864,
          "time": 60.733409249999994,
          "velocity": 0.7401574803149606
        },
        {
          "duration": 0.066666749999996,
          "durationTicks": 24,
          "midi": 73,
          "name": "C#5",
          "ticks": 21912,
          "time": 60.86674275,
          "velocity": 0.7401574803149606
        },
        {
          "duration": 0.1333334999999991,
          "durationTicks": 48,
          "midi": 89,
          "name": "F6",
          "ticks": 21936,
          "time": 60.933409499999996,
          "velocity": 0.7401574803149606
        },
        {
          "duration": 0.1333334999999991,
          "durationTicks": 48,
          "midi": 92,
          "name": "G#6",
          "ticks": 21936,
          "time": 60.933409499999996,
          "velocity": 0.7401574803149606
        },
        {
          "duration": 0.1333334999999991,
          "durationTicks": 48,
          "midi": 90,
          "name": "F#6",
          "ticks": 21984,
          "time": 61.066742999999995,
          "velocity": 0.7401574803149606
        },
        {
          "duration": 0.1333334999999991,
          "durationTicks": 48,
          "midi": 93,
          "name": "A6",
          "ticks": 21984,
          "time": 61.066742999999995,
          "velocity": 0.7401574803149606
        },
        {
          "duration": 0.0666667500000031,
          "durationTicks": 24,
          "midi": 78,
          "name": "F#5",
          "ticks": 22032,
          "time": 61.200076499999994,
          "velocity": 0.7401574803149606
        },
        {
          "duration": 0.0666667500000031,
          "durationTicks": 24,
          "midi": 83,
          "name": "B5",
          "ticks": 22056,
          "time": 61.26674325,
          "velocity": 0.7401574803149606
        },
        {
          "duration": 0.066666749999996,
          "durationTicks": 24,
          "midi": 85,
          "name": "C#6",
          "ticks": 22080,
          "time": 61.33341,
          "velocity": 0.7401574803149606
        },
        {
          "duration": 0.0666667500000031,
          "durationTicks": 24,
          "midi": 88,
          "name": "E6",
          "ticks": 22104,
          "time": 61.40007675,
          "velocity": 0.7401574803149606
        },
        {
          "duration": 0.066666749999996,
          "durationTicks": 24,
          "midi": 83,
          "name": "B5",
          "ticks": 22128,
          "time": 61.4667435,
          "velocity": 0.7401574803149606
        },
        {
          "duration": 0.0666667500000031,
          "durationTicks": 24,
          "midi": 84,
          "name": "C6",
          "ticks": 22152,
          "time": 61.533410249999996,
          "velocity": 0.7401574803149606
        },
        {
          "duration": 0.066666749999996,
          "durationTicks": 24,
          "midi": 83,
          "name": "B5",
          "ticks": 22176,
          "time": 61.600077,
          "velocity": 0.7401574803149606
        },
        {
          "duration": 0.0666667500000031,
          "durationTicks": 24,
          "midi": 81,
          "name": "A5",
          "ticks": 22200,
          "time": 61.666743749999995,
          "velocity": 0.7401574803149606
        },
        {
          "duration": 0.1333334999999991,
          "durationTicks": 48,
          "midi": 78,
          "name": "F#5",
          "ticks": 22224,
          "time": 61.7334105,
          "velocity": 0.7401574803149606
        },
        {
          "duration": 0.0666667500000031,
          "durationTicks": 24,
          "midi": 71,
          "name": "B4",
          "ticks": 22272,
          "time": 61.866744,
          "velocity": 0.7401574803149606
        },
        {
          "duration": 0.0666667500000031,
          "durationTicks": 24,
          "midi": 76,
          "name": "E5",
          "ticks": 22272,
          "time": 61.866744,
          "velocity": 0.7401574803149606
        },
        {
          "duration": 0.066666749999996,
          "durationTicks": 24,
          "midi": 73,
          "name": "C#5",
          "ticks": 22296,
          "time": 61.93341075,
          "velocity": 0.7401574803149606
        },
        {
          "duration": 0.066666749999996,
          "durationTicks": 24,
          "midi": 78,
          "name": "F#5",
          "ticks": 22296,
          "time": 61.93341075,
          "velocity": 0.7401574803149606
        },
        {
          "duration": 0.0666667500000031,
          "durationTicks": 24,
          "midi": 76,
          "name": "E5",
          "ticks": 22320,
          "time": 62.000077499999996,
          "velocity": 0.7401574803149606
        },
        {
          "duration": 0.0666667500000031,
          "durationTicks": 24,
          "midi": 81,
          "name": "A5",
          "ticks": 22320,
          "time": 62.000077499999996,
          "velocity": 0.7401574803149606
        },
        {
          "duration": 0.066666749999996,
          "durationTicks": 24,
          "midi": 78,
          "name": "F#5",
          "ticks": 22344,
          "time": 62.06674425,
          "velocity": 0.7401574803149606
        },
        {
          "duration": 0.066666749999996,
          "durationTicks": 24,
          "midi": 83,
          "name": "B5",
          "ticks": 22344,
          "time": 62.06674425,
          "velocity": 0.7401574803149606
        },
        {
          "duration": 0.1333334999999991,
          "durationTicks": 48,
          "midi": 84,
          "name": "C6",
          "ticks": 22368,
          "time": 62.133410999999995,
          "velocity": 0.7401574803149606
        },
        {
          "duration": 0.1333334999999991,
          "durationTicks": 48,
          "midi": 78,
          "name": "F#5",
          "ticks": 22368,
          "time": 62.133410999999995,
          "velocity": 0.7401574803149606
        },
        {
          "duration": 0.0666667500000031,
          "durationTicks": 24,
          "midi": 73,
          "name": "C#5",
          "ticks": 22416,
          "time": 62.266744499999994,
          "velocity": 0.7401574803149606
        },
        {
          "duration": 0.1333334999999991,
          "durationTicks": 48,
          "midi": 85,
          "name": "C#6",
          "ticks": 22440,
          "time": 62.33341125,
          "velocity": 0.7401574803149606
        },
        {
          "duration": 0.1333334999999991,
          "durationTicks": 48,
          "midi": 78,
          "name": "F#5",
          "ticks": 22440,
          "time": 62.33341125,
          "velocity": 0.7401574803149606
        },
        {
          "duration": 0.0666667500000031,
          "durationTicks": 24,
          "midi": 83,
          "name": "B5",
          "ticks": 22488,
          "time": 62.46674475,
          "velocity": 0.7401574803149606
        },
        {
          "duration": 0.066666749999996,
          "durationTicks": 24,
          "midi": 85,
          "name": "C#6",
          "ticks": 22512,
          "time": 62.5334115,
          "velocity": 0.7401574803149606
        },
        {
          "duration": 0.0666667500000031,
          "durationTicks": 24,
          "midi": 88,
          "name": "E6",
          "ticks": 22536,
          "time": 62.600078249999996,
          "velocity": 0.7401574803149606
        },
        {
          "duration": 0.066666749999996,
          "durationTicks": 24,
          "midi": 85,
          "name": "C#6",
          "ticks": 22560,
          "time": 62.666745,
          "velocity": 0.7401574803149606
        },
        {
          "duration": 0.066666749999996,
          "durationTicks": 24,
          "midi": 89,
          "name": "F6",
          "ticks": 22560,
          "time": 62.666745,
          "velocity": 0.7401574803149606
        },
        {
          "duration": 0.0666667500000031,
          "durationTicks": 24,
          "midi": 80,
          "name": "G#5",
          "ticks": 22584,
          "time": 62.733411749999995,
          "velocity": 0.7401574803149606
        },
        {
          "duration": 0.0666667500000031,
          "durationTicks": 24,
          "midi": 85,
          "name": "C#6",
          "ticks": 22584,
          "time": 62.733411749999995,
          "velocity": 0.7401574803149606
        },
        {
          "duration": 0.066666749999996,
          "durationTicks": 24,
          "midi": 73,
          "name": "C#5",
          "ticks": 22608,
          "time": 62.8000785,
          "velocity": 0.7401574803149606
        },
        {
          "duration": 0.066666749999996,
          "durationTicks": 24,
          "midi": 77,
          "name": "F5",
          "ticks": 22608,
          "time": 62.8000785,
          "velocity": 0.7401574803149606
        },
        {
          "duration": 0.1333335000000062,
          "durationTicks": 48,
          "midi": 80,
          "name": "G#5",
          "ticks": 22632,
          "time": 62.866745249999994,
          "velocity": 0.7401574803149606
        },
        {
          "duration": 0.1333335000000062,
          "durationTicks": 48,
          "midi": 83,
          "name": "B5",
          "ticks": 22632,
          "time": 62.866745249999994,
          "velocity": 0.7401574803149606
        },
        {
          "duration": 0.066666749999996,
          "durationTicks": 24,
          "midi": 84,
          "name": "C6",
          "ticks": 22680,
          "time": 63.00007875,
          "velocity": 0.7401574803149606
        },
        {
          "duration": 0.0666667500000031,
          "durationTicks": 24,
          "midi": 83,
          "name": "B5",
          "ticks": 22704,
          "time": 63.066745499999996,
          "velocity": 0.7401574803149606
        },
        {
          "duration": 0.066666749999996,
          "durationTicks": 24,
          "midi": 81,
          "name": "A5",
          "ticks": 22728,
          "time": 63.13341225,
          "velocity": 0.7401574803149606
        },
        {
          "duration": 0.0666667500000031,
          "durationTicks": 24,
          "midi": 73,
          "name": "C#5",
          "ticks": 22752,
          "time": 63.200078999999995,
          "velocity": 0.7401574803149606
        },
        {
          "duration": 0.0666667500000031,
          "durationTicks": 24,
          "midi": 78,
          "name": "F#5",
          "ticks": 22752,
          "time": 63.200078999999995,
          "velocity": 0.7401574803149606
        },
        {
          "duration": 0.066666749999996,
          "durationTicks": 24,
          "midi": 76,
          "name": "E5",
          "ticks": 22776,
          "time": 63.26674575,
          "velocity": 0.7401574803149606
        },
        {
          "duration": 0.066666749999996,
          "durationTicks": 24,
          "midi": 81,
          "name": "A5",
          "ticks": 22776,
          "time": 63.26674575,
          "velocity": 0.7401574803149606
        },
        {
          "duration": 0.1333335000000062,
          "durationTicks": 48,
          "midi": 78,
          "name": "F#5",
          "ticks": 22800,
          "time": 63.333412499999994,
          "velocity": 0.7401574803149606
        },
        {
          "duration": 0.1333335000000062,
          "durationTicks": 48,
          "midi": 73,
          "name": "C#5",
          "ticks": 22800,
          "time": 63.333412499999994,
          "velocity": 0.7401574803149606
        },
        {
          "duration": 0.1333334999999991,
          "durationTicks": 48,
          "midi": 92,
          "name": "G#6",
          "ticks": 22848,
          "time": 63.466746,
          "velocity": 0.7401574803149606
        },
        {
          "duration": 0.1333334999999991,
          "durationTicks": 48,
          "midi": 89,
          "name": "F6",
          "ticks": 22848,
          "time": 63.466746,
          "velocity": 0.7401574803149606
        },
        {
          "duration": 0.1333334999999991,
          "durationTicks": 48,
          "midi": 89,
          "name": "F6",
          "ticks": 22896,
          "time": 63.6000795,
          "velocity": 0.7401574803149606
        },
        {
          "duration": 0.1333334999999991,
          "durationTicks": 48,
          "midi": 85,
          "name": "C#6",
          "ticks": 22896,
          "time": 63.6000795,
          "velocity": 0.7401574803149606
        },
        {
          "duration": 0.1333334999999991,
          "durationTicks": 48,
          "midi": 90,
          "name": "F#6",
          "ticks": 22944,
          "time": 63.733413,
          "velocity": 0.7401574803149606
        },
        {
          "duration": 0.1333334999999991,
          "durationTicks": 48,
          "midi": 85,
          "name": "C#6",
          "ticks": 22944,
          "time": 63.733413,
          "velocity": 0.7401574803149606
        },
        {
          "duration": 0.066666749999996,
          "durationTicks": 24,
          "midi": 80,
          "name": "G#5",
          "ticks": 22992,
          "time": 63.8667465,
          "velocity": 0.7401574803149606
        },
        {
          "duration": 0.066666749999996,
          "durationTicks": 24,
          "midi": 83,
          "name": "B5",
          "ticks": 22992,
          "time": 63.8667465,
          "velocity": 0.7401574803149606
        },
        {
          "duration": 0.0666667500000031,
          "durationTicks": 24,
          "midi": 84,
          "name": "C6",
          "ticks": 23016,
          "time": 63.933413249999994,
          "velocity": 0.7401574803149606
        },
        {
          "duration": 0.0666667500000031,
          "durationTicks": 24,
          "midi": 81,
          "name": "A5",
          "ticks": 23016,
          "time": 63.933413249999994,
          "velocity": 0.7401574803149606
        },
        {
          "duration": 0.1333335000000062,
          "durationTicks": 48,
          "midi": 90,
          "name": "F#6",
          "ticks": 23136,
          "time": 64.266747,
          "velocity": 0.7401574803149606
        },
        {
          "duration": 0.1333335000000062,
          "durationTicks": 48,
          "midi": 85,
          "name": "C#6",
          "ticks": 23136,
          "time": 64.266747,
          "velocity": 0.7401574803149606
        },
        {
          "duration": 0.066666749999996,
          "durationTicks": 24,
          "midi": 78,
          "name": "F#5",
          "ticks": 23184,
          "time": 64.4000805,
          "velocity": 0.7401574803149606
        },
        {
          "duration": 0.1333335000000062,
          "durationTicks": 48,
          "midi": 81,
          "name": "A5",
          "ticks": 23208,
          "time": 64.46674725,
          "velocity": 0.7401574803149606
        },
        {
          "duration": 0.1333335000000062,
          "durationTicks": 48,
          "midi": 88,
          "name": "E6",
          "ticks": 23208,
          "time": 64.46674725,
          "velocity": 0.7401574803149606
        },
        {
          "duration": 0.066666749999996,
          "durationTicks": 24,
          "midi": 84,
          "name": "C6",
          "ticks": 23256,
          "time": 64.60008075,
          "velocity": 0.7401574803149606
        },
        {
          "duration": 0.066666749999996,
          "durationTicks": 24,
          "midi": 83,
          "name": "B5",
          "ticks": 23280,
          "time": 64.6667475,
          "velocity": 0.7401574803149606
        },
        {
          "duration": 0.066666749999996,
          "durationTicks": 24,
          "midi": 81,
          "name": "A5",
          "ticks": 23304,
          "time": 64.73341425,
          "velocity": 0.7401574803149606
        },
        {
          "duration": 0.1333335000000062,
          "durationTicks": 48,
          "midi": 83,
          "name": "B5",
          "ticks": 23328,
          "time": 64.80008099999999,
          "velocity": 0.7401574803149606
        },
        {
          "duration": 0.1333335000000062,
          "durationTicks": 48,
          "midi": 77,
          "name": "F5",
          "ticks": 23328,
          "time": 64.80008099999999,
          "velocity": 0.7401574803149606
        },
        {
          "duration": 0.066666749999996,
          "durationTicks": 24,
          "midi": 84,
          "name": "C6",
          "ticks": 23376,
          "time": 64.9334145,
          "velocity": 0.7401574803149606
        },
        {
          "duration": 0.066666749999996,
          "durationTicks": 24,
          "midi": 78,
          "name": "F#5",
          "ticks": 23376,
          "time": 64.9334145,
          "velocity": 0.7401574803149606
        },
        {
          "duration": 0.1333335000000062,
          "durationTicks": 48,
          "midi": 85,
          "name": "C#6",
          "ticks": 23400,
          "time": 65.00008125,
          "velocity": 0.7401574803149606
        },
        {
          "duration": 0.1333335000000062,
          "durationTicks": 48,
          "midi": 80,
          "name": "G#5",
          "ticks": 23400,
          "time": 65.00008125,
          "velocity": 0.7401574803149606
        },
        {
          "duration": 0.066666749999996,
          "durationTicks": 24,
          "midi": 73,
          "name": "C#5",
          "ticks": 23448,
          "time": 65.13341475,
          "velocity": 0.7401574803149606
        },
        {
          "duration": 0.1333335000000062,
          "durationTicks": 48,
          "midi": 89,
          "name": "F6",
          "ticks": 23472,
          "time": 65.2000815,
          "velocity": 0.7401574803149606
        },
        {
          "duration": 0.1333335000000062,
          "durationTicks": 48,
          "midi": 92,
          "name": "G#6",
          "ticks": 23472,
          "time": 65.2000815,
          "velocity": 0.7401574803149606
        },
        {
          "duration": 0.133333499999992,
          "durationTicks": 48,
          "midi": 90,
          "name": "F#6",
          "ticks": 23520,
          "time": 65.333415,
          "velocity": 0.7401574803149606
        },
        {
          "duration": 0.133333499999992,
          "durationTicks": 48,
          "midi": 93,
          "name": "A6",
          "ticks": 23520,
          "time": 65.333415,
          "velocity": 0.7401574803149606
        },
        {
          "duration": 0.066666749999996,
          "durationTicks": 24,
          "midi": 95,
          "name": "B6",
          "ticks": 23568,
          "time": 65.4667485,
          "velocity": 0.7401574803149606
        },
        {
          "duration": 0.06666675000001021,
          "durationTicks": 24,
          "midi": 93,
          "name": "A6",
          "ticks": 23592,
          "time": 65.53341524999999,
          "velocity": 0.7401574803149606
        },
        {
          "duration": 0.066666749999996,
          "durationTicks": 24,
          "midi": 92,
          "name": "G#6",
          "ticks": 23616,
          "time": 65.600082,
          "velocity": 0.7401574803149606
        },
        {
          "duration": 0.066666749999996,
          "durationTicks": 24,
          "midi": 93,
          "name": "A6",
          "ticks": 23640,
          "time": 65.66674875,
          "velocity": 0.7401574803149606
        },
        {
          "duration": 0.06666675000001021,
          "durationTicks": 24,
          "midi": 90,
          "name": "F#6",
          "ticks": 23664,
          "time": 65.73341549999999,
          "velocity": 0.7401574803149606
        },
        {
          "duration": 0.066666749999996,
          "durationTicks": 24,
          "midi": 85,
          "name": "C#6",
          "ticks": 23688,
          "time": 65.80008225,
          "velocity": 0.7401574803149606
        },
        {
          "duration": 0.066666749999996,
          "durationTicks": 24,
          "midi": 83,
          "name": "B5",
          "ticks": 23712,
          "time": 65.866749,
          "velocity": 0.7401574803149606
        },
        {
          "duration": 0.066666749999996,
          "durationTicks": 24,
          "midi": 78,
          "name": "F#5",
          "ticks": 23736,
          "time": 65.93341575,
          "velocity": 0.7401574803149606
        },
        {
          "duration": 0.06666675000001021,
          "durationTicks": 24,
          "midi": 83,
          "name": "B5",
          "ticks": 23760,
          "time": 66.00008249999999,
          "velocity": 0.7401574803149606
        },
        {
          "duration": 0.133333499999992,
          "durationTicks": 48,
          "midi": 76,
          "name": "E5",
          "ticks": 23784,
          "time": 66.06674925,
          "velocity": 0.7401574803149606
        },
        {
          "duration": 0.133333499999992,
          "durationTicks": 48,
          "midi": 82,
          "name": "A#5",
          "ticks": 23784,
          "time": 66.06674925,
          "velocity": 0.7401574803149606
        },
        {
          "duration": 0.06666675000001021,
          "durationTicks": 24,
          "midi": 85,
          "name": "C#6",
          "ticks": 23832,
          "time": 66.20008274999999,
          "velocity": 0.7401574803149606
        },
        {
          "duration": 0.06666675000001021,
          "durationTicks": 24,
          "midi": 78,
          "name": "F#5",
          "ticks": 23832,
          "time": 66.20008274999999,
          "velocity": 0.7401574803149606
        },
        {
          "duration": 0.133333499999992,
          "durationTicks": 48,
          "midi": 85,
          "name": "C#6",
          "ticks": 23856,
          "time": 66.2667495,
          "velocity": 0.7401574803149606
        },
        {
          "duration": 0.133333499999992,
          "durationTicks": 48,
          "midi": 90,
          "name": "F#6",
          "ticks": 23856,
          "time": 66.2667495,
          "velocity": 0.7401574803149606
        },
        {
          "duration": 0.10000012500000821,
          "durationTicks": 36,
          "midi": 86,
          "name": "D6",
          "ticks": 23904,
          "time": 66.400083,
          "velocity": 0.7401574803149606
        },
        {
          "duration": 0.10000012500000821,
          "durationTicks": 36,
          "midi": 90,
          "name": "F#6",
          "ticks": 23904,
          "time": 66.400083,
          "velocity": 0.7401574803149606
        },
        {
          "duration": 0.100000124999994,
          "durationTicks": 36,
          "midi": 90,
          "name": "F#6",
          "ticks": 23952,
          "time": 66.5334165,
          "velocity": 0.7401574803149606
        },
        {
          "duration": 0.100000124999994,
          "durationTicks": 36,
          "midi": 86,
          "name": "D6",
          "ticks": 23952,
          "time": 66.5334165,
          "velocity": 0.7401574803149606
        },
        {
          "duration": 0.10000012500000821,
          "durationTicks": 36,
          "midi": 85,
          "name": "C#6",
          "ticks": 24096,
          "time": 66.93341699999999,
          "velocity": 0.7401574803149606
        },
        {
          "duration": 0.10000012500000821,
          "durationTicks": 36,
          "midi": 89,
          "name": "F6",
          "ticks": 24096,
          "time": 66.93341699999999,
          "velocity": 0.7401574803149606
        },
        {
          "duration": 0.100000124999994,
          "durationTicks": 36,
          "midi": 89,
          "name": "F6",
          "ticks": 24144,
          "time": 67.0667505,
          "velocity": 0.7401574803149606
        },
        {
          "duration": 0.100000124999994,
          "durationTicks": 36,
          "midi": 85,
          "name": "C#6",
          "ticks": 24144,
          "time": 67.0667505,
          "velocity": 0.7401574803149606
        },
        {
          "duration": 0.1333335000000062,
          "durationTicks": 48,
          "midi": 80,
          "name": "G#5",
          "ticks": 24240,
          "time": 67.3334175,
          "velocity": 0.7401574803149606
        },
        {
          "duration": 0.133333499999992,
          "durationTicks": 48,
          "midi": 78,
          "name": "F#5",
          "ticks": 24288,
          "time": 67.466751,
          "velocity": 0.7401574803149606
        },
        {
          "duration": 0.133333499999992,
          "durationTicks": 48,
          "midi": 85,
          "name": "C#6",
          "ticks": 24288,
          "time": 67.466751,
          "velocity": 0.7401574803149606
        },
        {
          "duration": 0.133333499999992,
          "durationTicks": 48,
          "midi": 77,
          "name": "F5",
          "ticks": 24384,
          "time": 67.733418,
          "velocity": 0.7401574803149606
        },
        {
          "duration": 0.133333499999992,
          "durationTicks": 48,
          "midi": 83,
          "name": "B5",
          "ticks": 24384,
          "time": 67.733418,
          "velocity": 0.7401574803149606
        },
        {
          "duration": 0.2666669999999982,
          "durationTicks": 96,
          "midi": 78,
          "name": "F#5",
          "ticks": 24480,
          "time": 68.000085,
          "velocity": 0.7401574803149606
        },
        {
          "duration": 0.2666669999999982,
          "durationTicks": 96,
          "midi": 81,
          "name": "A5",
          "ticks": 24480,
          "time": 68.000085,
          "velocity": 0.7401574803149606
        },
        {
          "duration": 0.2666669999999982,
          "durationTicks": 96,
          "midi": 85,
          "name": "C#6",
          "ticks": 24576,
          "time": 68.266752,
          "velocity": 0.7401574803149606
        },
        {
          "duration": 0.2666669999999982,
          "durationTicks": 96,
          "midi": 78,
          "name": "F#5",
          "ticks": 24576,
          "time": 68.266752,
          "velocity": 0.7401574803149606
        },
        {
          "duration": 0.066666749999996,
          "durationTicks": 24,
          "midi": 90,
          "name": "F#6",
          "ticks": 24672,
          "time": 68.533419,
          "velocity": 0.7401574803149606
        },
        {
          "duration": 0.066666749999996,
          "durationTicks": 24,
          "midi": 86,
          "name": "D6",
          "ticks": 24672,
          "time": 68.533419,
          "velocity": 0.7401574803149606
        },
        {
          "duration": 0.066666749999996,
          "durationTicks": 24,
          "midi": 90,
          "name": "F#6",
          "ticks": 24720,
          "time": 68.6667525,
          "velocity": 0.7401574803149606
        },
        {
          "duration": 0.066666749999996,
          "durationTicks": 24,
          "midi": 86,
          "name": "D6",
          "ticks": 24720,
          "time": 68.6667525,
          "velocity": 0.7401574803149606
        },
        {
          "duration": 0.066666749999996,
          "durationTicks": 24,
          "midi": 85,
          "name": "C#6",
          "ticks": 24816,
          "time": 68.9334195,
          "velocity": 0.7401574803149606
        },
        {
          "duration": 0.06666675000001021,
          "durationTicks": 24,
          "midi": 85,
          "name": "C#6",
          "ticks": 24864,
          "time": 69.06675299999999,
          "velocity": 0.7401574803149606
        },
        {
          "duration": 0.06666675000001021,
          "durationTicks": 24,
          "midi": 89,
          "name": "F6",
          "ticks": 24864,
          "time": 69.06675299999999,
          "velocity": 0.7401574803149606
        },
        {
          "duration": 0.066666749999996,
          "durationTicks": 24,
          "midi": 89,
          "name": "F6",
          "ticks": 24912,
          "time": 69.2000865,
          "velocity": 0.7401574803149606
        },
        {
          "duration": 0.066666749999996,
          "durationTicks": 24,
          "midi": 85,
          "name": "C#6",
          "ticks": 24912,
          "time": 69.2000865,
          "velocity": 0.7401574803149606
        },
        {
          "duration": 0.1333335000000062,
          "durationTicks": 48,
          "midi": 80,
          "name": "G#5",
          "ticks": 25008,
          "time": 69.4667535,
          "velocity": 0.7401574803149606
        },
        {
          "duration": 0.133333499999992,
          "durationTicks": 48,
          "midi": 78,
          "name": "F#5",
          "ticks": 25056,
          "time": 69.600087,
          "velocity": 0.7401574803149606
        },
        {
          "duration": 0.133333499999992,
          "durationTicks": 48,
          "midi": 85,
          "name": "C#6",
          "ticks": 25056,
          "time": 69.600087,
          "velocity": 0.7401574803149606
        },
        {
          "duration": 0.133333499999992,
          "durationTicks": 48,
          "midi": 77,
          "name": "F5",
          "ticks": 25152,
          "time": 69.866754,
          "velocity": 0.7401574803149606
        },
        {
          "duration": 0.133333499999992,
          "durationTicks": 48,
          "midi": 83,
          "name": "B5",
          "ticks": 25152,
          "time": 69.866754,
          "velocity": 0.7401574803149606
        },
        {
          "duration": 0.2666669999999982,
          "durationTicks": 96,
          "midi": 78,
          "name": "F#5",
          "ticks": 25248,
          "time": 70.133421,
          "velocity": 0.7401574803149606
        },
        {
          "duration": 0.2666669999999982,
          "durationTicks": 96,
          "midi": 81,
          "name": "A5",
          "ticks": 25248,
          "time": 70.133421,
          "velocity": 0.7401574803149606
        },
        {
          "duration": 0.2666669999999982,
          "durationTicks": 96,
          "midi": 85,
          "name": "C#6",
          "ticks": 25344,
          "time": 70.400088,
          "velocity": 0.7401574803149606
        },
        {
          "duration": 0.2666669999999982,
          "durationTicks": 96,
          "midi": 78,
          "name": "F#5",
          "ticks": 25344,
          "time": 70.400088,
          "velocity": 0.7401574803149606
        },
        {
          "duration": 0.066666749999996,
          "durationTicks": 24,
          "midi": 79,
          "name": "G5",
          "ticks": 27192,
          "time": 75.53342775,
          "velocity": 0.8188976377952756
        },
        {
          "duration": 0.066666749999996,
          "durationTicks": 24,
          "midi": 84,
          "name": "C6",
          "ticks": 27216,
          "time": 75.6000945,
          "velocity": 0.8188976377952756
        },
        {
          "duration": 0.06666675000001021,
          "durationTicks": 24,
          "midi": 89,
          "name": "F6",
          "ticks": 27240,
          "time": 75.66676125,
          "velocity": 0.8188976377952756
        },
        {
          "duration": 0.066666749999996,
          "durationTicks": 24,
          "midi": 88,
          "name": "E6",
          "ticks": 27264,
          "time": 75.733428,
          "velocity": 0.8188976377952756
        },
        {
          "duration": 0.066666749999996,
          "durationTicks": 24,
          "midi": 83,
          "name": "B5",
          "ticks": 27288,
          "time": 75.80009475,
          "velocity": 0.8188976377952756
        },
        {
          "duration": 0.066666749999996,
          "durationTicks": 24,
          "midi": 78,
          "name": "F#5",
          "ticks": 27312,
          "time": 75.8667615,
          "velocity": 0.8188976377952756
        },
        {
          "duration": 0.06666675000001021,
          "durationTicks": 24,
          "midi": 87,
          "name": "D#6",
          "ticks": 27336,
          "time": 75.93342824999999,
          "velocity": 0.8188976377952756
        },
        {
          "duration": 0.066666749999996,
          "durationTicks": 24,
          "midi": 82,
          "name": "A#5",
          "ticks": 27360,
          "time": 76.000095,
          "velocity": 0.8188976377952756
        },
        {
          "duration": 0.066666749999996,
          "durationTicks": 24,
          "midi": 77,
          "name": "F5",
          "ticks": 27384,
          "time": 76.06676175,
          "velocity": 0.8188976377952756
        },
        {
          "duration": 0.066666749999996,
          "durationTicks": 24,
          "midi": 72,
          "name": "C5",
          "ticks": 27408,
          "time": 76.1334285,
          "velocity": 0.8188976377952756
        },
        {
          "duration": 0.06666675000001021,
          "durationTicks": 24,
          "midi": 73,
          "name": "C#5",
          "ticks": 27432,
          "time": 76.20009524999999,
          "velocity": 0.8188976377952756
        },
        {
          "duration": 0.066666749999996,
          "durationTicks": 24,
          "midi": 78,
          "name": "F#5",
          "ticks": 27456,
          "time": 76.266762,
          "velocity": 0.8188976377952756
        },
        {
          "duration": 0.066666749999996,
          "durationTicks": 24,
          "midi": 83,
          "name": "B5",
          "ticks": 27480,
          "time": 76.33342875,
          "velocity": 0.8188976377952756
        },
        {
          "duration": 0.06666675000001021,
          "durationTicks": 24,
          "midi": 88,
          "name": "E6",
          "ticks": 27504,
          "time": 76.40009549999999,
          "velocity": 0.8188976377952756
        },
        {
          "duration": 0.066666749999996,
          "durationTicks": 24,
          "midi": 93,
          "name": "A6",
          "ticks": 27528,
          "time": 76.46676225,
          "velocity": 0.8188976377952756
        },
        {
          "duration": 0.066666749999996,
          "durationTicks": 24,
          "midi": 88,
          "name": "E6",
          "ticks": 27552,
          "time": 76.533429,
          "velocity": 0.8188976377952756
        },
        {
          "duration": 0.066666749999996,
          "durationTicks": 24,
          "midi": 92,
          "name": "G#6",
          "ticks": 27576,
          "time": 76.60009575,
          "velocity": 0.8188976377952756
        },
        {
          "duration": 0.06666675000001021,
          "durationTicks": 24,
          "midi": 87,
          "name": "D#6",
          "ticks": 27600,
          "time": 76.66676249999999,
          "velocity": 0.8188976377952756
        },
        {
          "duration": 0.066666749999996,
          "durationTicks": 24,
          "midi": 82,
          "name": "A#5",
          "ticks": 27624,
          "time": 76.73342925,
          "velocity": 0.8188976377952756
        },
        {
          "duration": 0.066666749999996,
          "durationTicks": 24,
          "midi": 83,
          "name": "B5",
          "ticks": 27648,
          "time": 76.800096,
          "velocity": 0.8188976377952756
        },
        {
          "duration": 0.06666675000001021,
          "durationTicks": 24,
          "midi": 88,
          "name": "E6",
          "ticks": 27672,
          "time": 76.86676274999999,
          "velocity": 0.8188976377952756
        },
        {
          "duration": 0.066666749999996,
          "durationTicks": 24,
          "midi": 93,
          "name": "A6",
          "ticks": 27696,
          "time": 76.9334295,
          "velocity": 0.8188976377952756
        },
        {
          "duration": 0.066666749999996,
          "durationTicks": 24,
          "midi": 91,
          "name": "G6",
          "ticks": 27720,
          "time": 77.00009625,
          "velocity": 0.8188976377952756
        },
        {
          "duration": 0.066666749999996,
          "durationTicks": 24,
          "midi": 86,
          "name": "D6",
          "ticks": 27744,
          "time": 77.066763,
          "velocity": 0.8188976377952756
        },
        {
          "duration": 0.06666675000001021,
          "durationTicks": 24,
          "midi": 81,
          "name": "A5",
          "ticks": 27768,
          "time": 77.13342974999999,
          "velocity": 0.8188976377952756
        },
        {
          "duration": 0.066666749999996,
          "durationTicks": 24,
          "midi": 76,
          "name": "E5",
          "ticks": 27792,
          "time": 77.2000965,
          "velocity": 0.8188976377952756
        },
        {
          "duration": 0.066666749999996,
          "durationTicks": 24,
          "midi": 81,
          "name": "A5",
          "ticks": 27816,
          "time": 77.26676325,
          "velocity": 0.8188976377952756
        },
        {
          "duration": 0.06666675000001021,
          "durationTicks": 24,
          "midi": 80,
          "name": "G#5",
          "ticks": 27840,
          "time": 77.33342999999999,
          "velocity": 0.8188976377952756
        },
        {
          "duration": 0.066666749999996,
          "durationTicks": 24,
          "midi": 75,
          "name": "D#5",
          "ticks": 27864,
          "time": 77.40009675,
          "velocity": 0.8188976377952756
        },
        {
          "duration": 0.066666749999996,
          "durationTicks": 24,
          "midi": 70,
          "name": "A#4",
          "ticks": 27888,
          "time": 77.4667635,
          "velocity": 0.8188976377952756
        },
        {
          "duration": 0.066666749999996,
          "durationTicks": 24,
          "midi": 77,
          "name": "F5",
          "ticks": 27912,
          "time": 77.53343025,
          "velocity": 0.8188976377952756
        },
        {
          "duration": 0.06666675000001021,
          "durationTicks": 24,
          "midi": 72,
          "name": "C5",
          "ticks": 27936,
          "time": 77.60009699999999,
          "velocity": 0.8188976377952756
        },
        {
          "duration": 0.066666749999996,
          "durationTicks": 24,
          "midi": 64,
          "name": "E4",
          "ticks": 27960,
          "time": 77.66676375,
          "velocity": 0.8188976377952756
        },
        {
          "duration": 0.066666749999996,
          "durationTicks": 24,
          "midi": 68,
          "name": "G#4",
          "ticks": 27984,
          "time": 77.7334305,
          "velocity": 0.8188976377952756
        },
        {
          "duration": 0.066666749999996,
          "durationTicks": 24,
          "midi": 73,
          "name": "C#5",
          "ticks": 28008,
          "time": 77.80009725,
          "velocity": 0.8188976377952756
        },
        {
          "duration": 0.06666675000001021,
          "durationTicks": 24,
          "midi": 78,
          "name": "F#5",
          "ticks": 28032,
          "time": 77.86676399999999,
          "velocity": 0.8188976377952756
        },
        {
          "duration": 0.066666749999996,
          "durationTicks": 24,
          "midi": 83,
          "name": "B5",
          "ticks": 28056,
          "time": 77.93343075,
          "velocity": 0.8188976377952756
        },
        {
          "duration": 0.066666749999996,
          "durationTicks": 24,
          "midi": 69,
          "name": "A4",
          "ticks": 28080,
          "time": 78.0000975,
          "velocity": 0.8188976377952756
        },
        {
          "duration": 0.06666675000001021,
          "durationTicks": 24,
          "midi": 74,
          "name": "D5",
          "ticks": 28104,
          "time": 78.06676424999999,
          "velocity": 0.8188976377952756
        },
        {
          "duration": 0.066666749999996,
          "durationTicks": 24,
          "midi": 79,
          "name": "G5",
          "ticks": 28128,
          "time": 78.133431,
          "velocity": 0.8188976377952756
        },
        {
          "duration": 0.066666749999996,
          "durationTicks": 24,
          "midi": 84,
          "name": "C6",
          "ticks": 28152,
          "time": 78.20009775,
          "velocity": 0.8188976377952756
        },
        {
          "duration": 0.066666749999996,
          "durationTicks": 24,
          "midi": 89,
          "name": "F6",
          "ticks": 28176,
          "time": 78.2667645,
          "velocity": 0.8188976377952756
        },
        {
          "duration": 0.06666675000001021,
          "durationTicks": 24,
          "midi": 84,
          "name": "C6",
          "ticks": 28200,
          "time": 78.33343124999999,
          "velocity": 0.8188976377952756
        },
        {
          "duration": 0.066666749999996,
          "durationTicks": 24,
          "midi": 88,
          "name": "E6",
          "ticks": 28224,
          "time": 78.400098,
          "velocity": 0.8188976377952756
        },
        {
          "duration": 0.066666749999996,
          "durationTicks": 24,
          "midi": 83,
          "name": "B5",
          "ticks": 28248,
          "time": 78.46676475,
          "velocity": 0.8188976377952756
        },
        {
          "duration": 0.06666675000001021,
          "durationTicks": 24,
          "midi": 78,
          "name": "F#5",
          "ticks": 28272,
          "time": 78.53343149999999,
          "velocity": 0.8188976377952756
        },
        {
          "duration": 0.066666749999996,
          "durationTicks": 24,
          "midi": 83,
          "name": "B5",
          "ticks": 28296,
          "time": 78.60009825,
          "velocity": 0.8188976377952756
        },
        {
          "duration": 0.066666749999996,
          "durationTicks": 24,
          "midi": 75,
          "name": "D#5",
          "ticks": 28320,
          "time": 78.666765,
          "velocity": 0.8188976377952756
        },
        {
          "duration": 0.066666749999996,
          "durationTicks": 24,
          "midi": 80,
          "name": "G#5",
          "ticks": 28320,
          "time": 78.666765,
          "velocity": 0.8188976377952756
        },
        {
          "duration": 0.066666749999996,
          "durationTicks": 24,
          "midi": 85,
          "name": "C#6",
          "ticks": 28320,
          "time": 78.666765,
          "velocity": 0.8188976377952756
        },
        {
          "duration": 0.066666749999996,
          "durationTicks": 24,
          "midi": 85,
          "name": "C#6",
          "ticks": 28344,
          "time": 78.73343175,
          "velocity": 0.8188976377952756
        },
        {
          "duration": 0.066666749999996,
          "durationTicks": 24,
          "midi": 80,
          "name": "G#5",
          "ticks": 28344,
          "time": 78.73343175,
          "velocity": 0.8188976377952756
        },
        {
          "duration": 0.066666749999996,
          "durationTicks": 24,
          "midi": 75,
          "name": "D#5",
          "ticks": 28344,
          "time": 78.73343175,
          "velocity": 0.8188976377952756
        },
        {
          "duration": 0.066666749999996,
          "durationTicks": 24,
          "midi": 74,
          "name": "D5",
          "ticks": 28392,
          "time": 78.86676525,
          "velocity": 0.8188976377952756
        },
        {
          "duration": 0.066666749999996,
          "durationTicks": 24,
          "midi": 79,
          "name": "G5",
          "ticks": 28392,
          "time": 78.86676525,
          "velocity": 0.8188976377952756
        },
        {
          "duration": 0.066666749999996,
          "durationTicks": 24,
          "midi": 84,
          "name": "C6",
          "ticks": 28392,
          "time": 78.86676525,
          "velocity": 0.8188976377952756
        },
        {
          "duration": 0.066666749999996,
          "durationTicks": 24,
          "midi": 74,
          "name": "D5",
          "ticks": 28416,
          "time": 78.933432,
          "velocity": 0.8188976377952756
        },
        {
          "duration": 0.066666749999996,
          "durationTicks": 24,
          "midi": 79,
          "name": "G5",
          "ticks": 28416,
          "time": 78.933432,
          "velocity": 0.8188976377952756
        },
        {
          "duration": 0.066666749999996,
          "durationTicks": 24,
          "midi": 84,
          "name": "C6",
          "ticks": 28416,
          "time": 78.933432,
          "velocity": 0.8188976377952756
        },
        {
          "duration": 0.066666749999996,
          "durationTicks": 24,
          "midi": 83,
          "name": "B5",
          "ticks": 28464,
          "time": 79.0667655,
          "velocity": 0.8188976377952756
        },
        {
          "duration": 0.066666749999996,
          "durationTicks": 24,
          "midi": 78,
          "name": "F#5",
          "ticks": 28464,
          "time": 79.0667655,
          "velocity": 0.8188976377952756
        },
        {
          "duration": 0.066666749999996,
          "durationTicks": 24,
          "midi": 73,
          "name": "C#5",
          "ticks": 28464,
          "time": 79.0667655,
          "velocity": 0.8188976377952756
        },
        {
          "duration": 0.066666749999996,
          "durationTicks": 24,
          "midi": 73,
          "name": "C#5",
          "ticks": 28512,
          "time": 79.200099,
          "velocity": 0.8188976377952756
        },
        {
          "duration": 0.066666749999996,
          "durationTicks": 24,
          "midi": 78,
          "name": "F#5",
          "ticks": 28512,
          "time": 79.200099,
          "velocity": 0.8188976377952756
        },
        {
          "duration": 0.066666749999996,
          "durationTicks": 24,
          "midi": 83,
          "name": "B5",
          "ticks": 28512,
          "time": 79.200099,
          "velocity": 0.8188976377952756
        },
        {
          "duration": 0.066666749999996,
          "durationTicks": 24,
          "midi": 83,
          "name": "B5",
          "ticks": 28560,
          "time": 79.3334325,
          "velocity": 0.8188976377952756
        },
        {
          "duration": 0.066666749999996,
          "durationTicks": 24,
          "midi": 78,
          "name": "F#5",
          "ticks": 28560,
          "time": 79.3334325,
          "velocity": 0.8188976377952756
        },
        {
          "duration": 0.066666749999996,
          "durationTicks": 24,
          "midi": 73,
          "name": "C#5",
          "ticks": 28560,
          "time": 79.3334325,
          "velocity": 0.8188976377952756
        },
        {
          "duration": 0.06666675000001021,
          "durationTicks": 24,
          "midi": 81,
          "name": "A5",
          "ticks": 28608,
          "time": 79.46676599999999,
          "velocity": 0.8188976377952756
        },
        {
          "duration": 0.06666675000001021,
          "durationTicks": 24,
          "midi": 86,
          "name": "D6",
          "ticks": 28608,
          "time": 79.46676599999999,
          "velocity": 0.8188976377952756
        },
        {
          "duration": 0.06666675000001021,
          "durationTicks": 24,
          "midi": 76,
          "name": "E5",
          "ticks": 28608,
          "time": 79.46676599999999,
          "velocity": 0.8188976377952756
        },
        {
          "duration": 0.133333499999992,
          "durationTicks": 48,
          "midi": 86,
          "name": "D6",
          "ticks": 28656,
          "time": 79.6000995,
          "velocity": 0.8188976377952756
        },
        {
          "duration": 0.133333499999992,
          "durationTicks": 48,
          "midi": 91,
          "name": "G6",
          "ticks": 28656,
          "time": 79.6000995,
          "velocity": 0.8188976377952756
        },
        {
          "duration": 0.133333499999992,
          "durationTicks": 48,
          "midi": 81,
          "name": "A5",
          "ticks": 28656,
          "time": 79.6000995,
          "velocity": 0.8188976377952756
        },
        {
          "duration": 0.066666749999996,
          "durationTicks": 24,
          "midi": 84,
          "name": "C6",
          "ticks": 28752,
          "time": 79.8667665,
          "velocity": 0.8188976377952756
        },
        {
          "duration": 0.06666675000001021,
          "durationTicks": 24,
          "midi": 89,
          "name": "F6",
          "ticks": 28776,
          "time": 79.93343325,
          "velocity": 0.8188976377952756
        },
        {
          "duration": 0.066666749999996,
          "durationTicks": 24,
          "midi": 88,
          "name": "E6",
          "ticks": 28800,
          "time": 80.0001,
          "velocity": 0.8188976377952756
        },
        {
          "duration": 0.066666749999996,
          "durationTicks": 24,
          "midi": 83,
          "name": "B5",
          "ticks": 28824,
          "time": 80.06676675,
          "velocity": 0.8188976377952756
        },
        {
          "duration": 0.066666749999996,
          "durationTicks": 24,
          "midi": 78,
          "name": "F#5",
          "ticks": 28848,
          "time": 80.1334335,
          "velocity": 0.8188976377952756
        },
        {
          "duration": 0.06666675000001021,
          "durationTicks": 24,
          "midi": 87,
          "name": "D#6",
          "ticks": 28872,
          "time": 80.20010024999999,
          "velocity": 0.8188976377952756
        },
        {
          "duration": 0.066666749999996,
          "durationTicks": 24,
          "midi": 82,
          "name": "A#5",
          "ticks": 28896,
          "time": 80.266767,
          "velocity": 0.8188976377952756
        },
        {
          "duration": 0.066666749999996,
          "durationTicks": 24,
          "midi": 77,
          "name": "F5",
          "ticks": 28920,
          "time": 80.33343375,
          "velocity": 0.8188976377952756
        },
        {
          "duration": 0.066666749999996,
          "durationTicks": 24,
          "midi": 72,
          "name": "C5",
          "ticks": 28944,
          "time": 80.4001005,
          "velocity": 0.8188976377952756
        },
        {
          "duration": 0.06666675000001021,
          "durationTicks": 24,
          "midi": 73,
          "name": "C#5",
          "ticks": 28968,
          "time": 80.46676724999999,
          "velocity": 0.8188976377952756
        },
        {
          "duration": 0.066666749999996,
          "durationTicks": 24,
          "midi": 78,
          "name": "F#5",
          "ticks": 28992,
          "time": 80.533434,
          "velocity": 0.8188976377952756
        },
        {
          "duration": 0.066666749999996,
          "durationTicks": 24,
          "midi": 83,
          "name": "B5",
          "ticks": 29016,
          "time": 80.60010075,
          "velocity": 0.8188976377952756
        },
        {
          "duration": 0.06666675000001021,
          "durationTicks": 24,
          "midi": 88,
          "name": "E6",
          "ticks": 29040,
          "time": 80.66676749999999,
          "velocity": 0.8188976377952756
        },
        {
          "duration": 0.066666749999996,
          "durationTicks": 24,
          "midi": 93,
          "name": "A6",
          "ticks": 29064,
          "time": 80.73343425,
          "velocity": 0.8188976377952756
        },
        {
          "duration": 0.066666749999996,
          "durationTicks": 24,
          "midi": 83,
          "name": "B5",
          "ticks": 29088,
          "time": 80.800101,
          "velocity": 0.8188976377952756
        },
        {
          "duration": 0.066666749999996,
          "durationTicks": 24,
          "midi": 88,
          "name": "E6",
          "ticks": 29088,
          "time": 80.800101,
          "velocity": 0.8188976377952756
        },
        {
          "duration": 0.066666749999996,
          "durationTicks": 24,
          "midi": 83,
          "name": "B5",
          "ticks": 29112,
          "time": 80.86676775,
          "velocity": 0.8188976377952756
        },
        {
          "duration": 0.066666749999996,
          "durationTicks": 24,
          "midi": 78,
          "name": "F#5",
          "ticks": 29112,
          "time": 80.86676775,
          "velocity": 0.8188976377952756
        },
        {
          "duration": 0.06666675000001021,
          "durationTicks": 24,
          "midi": 83,
          "name": "B5",
          "ticks": 29136,
          "time": 80.93343449999999,
          "velocity": 0.8188976377952756
        },
        {
          "duration": 0.06666675000001021,
          "durationTicks": 24,
          "midi": 88,
          "name": "E6",
          "ticks": 29136,
          "time": 80.93343449999999,
          "velocity": 0.8188976377952756
        },
        {
          "duration": 0.066666749999996,
          "durationTicks": 24,
          "midi": 84,
          "name": "C6",
          "ticks": 29160,
          "time": 81.00010125,
          "velocity": 0.8188976377952756
        },
        {
          "duration": 0.066666749999996,
          "durationTicks": 24,
          "midi": 89,
          "name": "F6",
          "ticks": 29160,
          "time": 81.00010125,
          "velocity": 0.8188976377952756
        },
        {
          "duration": 0.066666749999996,
          "durationTicks": 24,
          "midi": 85,
          "name": "C#6",
          "ticks": 29184,
          "time": 81.066768,
          "velocity": 0.8188976377952756
        },
        {
          "duration": 0.066666749999996,
          "durationTicks": 24,
          "midi": 90,
          "name": "F#6",
          "ticks": 29184,
          "time": 81.066768,
          "velocity": 0.8188976377952756
        },
        {
          "duration": 0.06666675000001021,
          "durationTicks": 24,
          "midi": 89,
          "name": "F6",
          "ticks": 29208,
          "time": 81.13343474999999,
          "velocity": 0.8188976377952756
        },
        {
          "duration": 0.06666675000001021,
          "durationTicks": 24,
          "midi": 84,
          "name": "C6",
          "ticks": 29208,
          "time": 81.13343474999999,
          "velocity": 0.8188976377952756
        },
        {
          "duration": 0.066666749999996,
          "durationTicks": 24,
          "midi": 78,
          "name": "F#5",
          "ticks": 29232,
          "time": 81.2001015,
          "velocity": 0.8188976377952756
        },
        {
          "duration": 0.066666749999996,
          "durationTicks": 24,
          "midi": 73,
          "name": "C#5",
          "ticks": 29232,
          "time": 81.2001015,
          "velocity": 0.8188976377952756
        },
        {
          "duration": 0.066666749999996,
          "durationTicks": 24,
          "midi": 72,
          "name": "C5",
          "ticks": 29256,
          "time": 81.26676825,
          "velocity": 0.8188976377952756
        },
        {
          "duration": 0.066666749999996,
          "durationTicks": 24,
          "midi": 77,
          "name": "F5",
          "ticks": 29256,
          "time": 81.26676825,
          "velocity": 0.8188976377952756
        },
        {
          "duration": 0.066666749999996,
          "durationTicks": 24,
          "midi": 86,
          "name": "D6",
          "ticks": 29280,
          "time": 81.333435,
          "velocity": 0.8188976377952756
        },
        {
          "duration": 0.066666749999996,
          "durationTicks": 24,
          "midi": 91,
          "name": "G6",
          "ticks": 29280,
          "time": 81.333435,
          "velocity": 0.8188976377952756
        },
        {
          "duration": 0.06666675000001021,
          "durationTicks": 24,
          "midi": 85,
          "name": "C#6",
          "ticks": 29304,
          "time": 81.40010174999999,
          "velocity": 0.8188976377952756
        },
        {
          "duration": 0.06666675000001021,
          "durationTicks": 24,
          "midi": 90,
          "name": "F#6",
          "ticks": 29304,
          "time": 81.40010174999999,
          "velocity": 0.8188976377952756
        },
        {
          "duration": 0.066666749999996,
          "durationTicks": 24,
          "midi": 79,
          "name": "G5",
          "ticks": 29328,
          "time": 81.4667685,
          "velocity": 0.8188976377952756
        },
        {
          "duration": 0.066666749999996,
          "durationTicks": 24,
          "midi": 74,
          "name": "D5",
          "ticks": 29328,
          "time": 81.4667685,
          "velocity": 0.8188976377952756
        },
        {
          "duration": 0.066666749999996,
          "durationTicks": 24,
          "midi": 73,
          "name": "C#5",
          "ticks": 29352,
          "time": 81.53343525,
          "velocity": 0.8188976377952756
        },
        {
          "duration": 0.066666749999996,
          "durationTicks": 24,
          "midi": 78,
          "name": "F#5",
          "ticks": 29352,
          "time": 81.53343525,
          "velocity": 0.8188976377952756
        },
        {
          "duration": 0.2666669999999982,
          "durationTicks": 96,
          "midi": 69,
          "name": "A4",
          "ticks": 29376,
          "time": 81.60010199999999,
          "velocity": 0.8188976377952756
        },
        {
          "duration": 0.2666669999999982,
          "durationTicks": 96,
          "midi": 74,
          "name": "D5",
          "ticks": 29376,
          "time": 81.60010199999999,
          "velocity": 0.8188976377952756
        },
        {
          "duration": 0.06666675000001021,
          "durationTicks": 24,
          "midi": 72,
          "name": "C5",
          "ticks": 29472,
          "time": 81.86676899999999,
          "velocity": 0.8188976377952756
        },
        {
          "duration": 0.06666675000001021,
          "durationTicks": 24,
          "midi": 77,
          "name": "F5",
          "ticks": 29472,
          "time": 81.86676899999999,
          "velocity": 0.8188976377952756
        },
        {
          "duration": 0.066666749999996,
          "durationTicks": 24,
          "midi": 77,
          "name": "F5",
          "ticks": 29496,
          "time": 81.93343575,
          "velocity": 0.8188976377952756
        },
        {
          "duration": 0.066666749999996,
          "durationTicks": 24,
          "midi": 72,
          "name": "C5",
          "ticks": 29496,
          "time": 81.93343575,
          "velocity": 0.8188976377952756
        },
        {
          "duration": 0.066666749999996,
          "durationTicks": 24,
          "midi": 77,
          "name": "F5",
          "ticks": 29520,
          "time": 82.0001025,
          "velocity": 0.8188976377952756
        },
        {
          "duration": 0.066666749999996,
          "durationTicks": 24,
          "midi": 72,
          "name": "C5",
          "ticks": 29520,
          "time": 82.0001025,
          "velocity": 0.8188976377952756
        },
        {
          "duration": 0.066666749999996,
          "durationTicks": 24,
          "midi": 77,
          "name": "F5",
          "ticks": 29544,
          "time": 82.06676925,
          "velocity": 0.8188976377952756
        },
        {
          "duration": 0.066666749999996,
          "durationTicks": 24,
          "midi": 72,
          "name": "C5",
          "ticks": 29544,
          "time": 82.06676925,
          "velocity": 0.8188976377952756
        },
        {
          "duration": 0.066666749999996,
          "durationTicks": 24,
          "midi": 73,
          "name": "C#5",
          "ticks": 29664,
          "time": 82.400103,
          "velocity": 0.8188976377952756
        },
        {
          "duration": 0.066666749999996,
          "durationTicks": 24,
          "midi": 78,
          "name": "F#5",
          "ticks": 29664,
          "time": 82.400103,
          "velocity": 0.8188976377952756
        },
        {
          "duration": 0.066666749999996,
          "durationTicks": 24,
          "midi": 73,
          "name": "C#5",
          "ticks": 29688,
          "time": 82.46676975,
          "velocity": 0.8188976377952756
        },
        {
          "duration": 0.066666749999996,
          "durationTicks": 24,
          "midi": 78,
          "name": "F#5",
          "ticks": 29688,
          "time": 82.46676975,
          "velocity": 0.8188976377952756
        },
        {
          "duration": 0.066666749999996,
          "durationTicks": 24,
          "midi": 73,
          "name": "C#5",
          "ticks": 29712,
          "time": 82.5334365,
          "velocity": 0.8188976377952756
        },
        {
          "duration": 0.066666749999996,
          "durationTicks": 24,
          "midi": 78,
          "name": "F#5",
          "ticks": 29712,
          "time": 82.5334365,
          "velocity": 0.8188976377952756
        },
        {
          "duration": 0.06666675000001021,
          "durationTicks": 24,
          "midi": 78,
          "name": "F#5",
          "ticks": 29736,
          "time": 82.60010324999999,
          "velocity": 0.8188976377952756
        },
        {
          "duration": 0.06666675000001021,
          "durationTicks": 24,
          "midi": 73,
          "name": "C#5",
          "ticks": 29736,
          "time": 82.60010324999999,
          "velocity": 0.8188976377952756
        },
        {
          "duration": 0.066666749999996,
          "durationTicks": 24,
          "midi": 79,
          "name": "G5",
          "ticks": 29856,
          "time": 82.933437,
          "velocity": 0.8188976377952756
        },
        {
          "duration": 0.066666749999996,
          "durationTicks": 24,
          "midi": 74,
          "name": "D5",
          "ticks": 29856,
          "time": 82.933437,
          "velocity": 0.8188976377952756
        },
        {
          "duration": 0.066666749999996,
          "durationTicks": 24,
          "midi": 79,
          "name": "G5",
          "ticks": 29880,
          "time": 83.00010375,
          "velocity": 0.8188976377952756
        },
        {
          "duration": 0.066666749999996,
          "durationTicks": 24,
          "midi": 74,
          "name": "D5",
          "ticks": 29880,
          "time": 83.00010375,
          "velocity": 0.8188976377952756
        },
        {
          "duration": 0.06666675000001021,
          "durationTicks": 24,
          "midi": 79,
          "name": "G5",
          "ticks": 29904,
          "time": 83.06677049999999,
          "velocity": 0.8188976377952756
        },
        {
          "duration": 0.06666675000001021,
          "durationTicks": 24,
          "midi": 74,
          "name": "D5",
          "ticks": 29904,
          "time": 83.06677049999999,
          "velocity": 0.8188976377952756
        },
        {
          "duration": 0.066666749999996,
          "durationTicks": 24,
          "midi": 79,
          "name": "G5",
          "ticks": 29928,
          "time": 83.13343725,
          "velocity": 0.8188976377952756
        },
        {
          "duration": 0.066666749999996,
          "durationTicks": 24,
          "midi": 74,
          "name": "D5",
          "ticks": 29928,
          "time": 83.13343725,
          "velocity": 0.8188976377952756
        },
        {
          "duration": 0.066666749999996,
          "durationTicks": 24,
          "midi": 80,
          "name": "G#5",
          "ticks": 29952,
          "time": 83.200104,
          "velocity": 0.8188976377952756
        },
        {
          "duration": 0.066666749999996,
          "durationTicks": 24,
          "midi": 75,
          "name": "D#5",
          "ticks": 29952,
          "time": 83.200104,
          "velocity": 0.8188976377952756
        },
        {
          "duration": 0.066666749999996,
          "durationTicks": 24,
          "midi": 80,
          "name": "G#5",
          "ticks": 30000,
          "time": 83.3334375,
          "velocity": 0.8188976377952756
        },
        {
          "duration": 0.066666749999996,
          "durationTicks": 24,
          "midi": 75,
          "name": "D#5",
          "ticks": 30000,
          "time": 83.3334375,
          "velocity": 0.8188976377952756
        },
        {
          "duration": 0.066666749999996,
          "durationTicks": 24,
          "midi": 80,
          "name": "G#5",
          "ticks": 30048,
          "time": 83.466771,
          "velocity": 0.8188976377952756
        },
        {
          "duration": 0.066666749999996,
          "durationTicks": 24,
          "midi": 75,
          "name": "D#5",
          "ticks": 30048,
          "time": 83.466771,
          "velocity": 0.8188976377952756
        },
        {
          "duration": 0.066666749999996,
          "durationTicks": 24,
          "midi": 75,
          "name": "D#5",
          "ticks": 30096,
          "time": 83.6001045,
          "velocity": 0.8188976377952756
        },
        {
          "duration": 0.066666749999996,
          "durationTicks": 24,
          "midi": 80,
          "name": "G#5",
          "ticks": 30096,
          "time": 83.6001045,
          "velocity": 0.8188976377952756
        },
        {
          "duration": 0.06666675000001021,
          "durationTicks": 24,
          "midi": 76,
          "name": "E5",
          "ticks": 30144,
          "time": 83.73343799999999,
          "velocity": 0.8188976377952756
        },
        {
          "duration": 0.06666675000001021,
          "durationTicks": 24,
          "midi": 81,
          "name": "A5",
          "ticks": 30144,
          "time": 83.73343799999999,
          "velocity": 0.8188976377952756
        },
        {
          "duration": 0.066666749999996,
          "durationTicks": 24,
          "midi": 76,
          "name": "E5",
          "ticks": 30192,
          "time": 83.8667715,
          "velocity": 0.8188976377952756
        },
        {
          "duration": 0.066666749999996,
          "durationTicks": 24,
          "midi": 81,
          "name": "A5",
          "ticks": 30192,
          "time": 83.8667715,
          "velocity": 0.8188976377952756
        },
        {
          "duration": 0.06666675000001021,
          "durationTicks": 24,
          "midi": 69,
          "name": "A4",
          "ticks": 35616,
          "time": 98.93345699999999,
          "velocity": 0.5590551181102362
        },
        {
          "duration": 0.066666749999996,
          "durationTicks": 24,
          "midi": 70,
          "name": "A#4",
          "ticks": 35640,
          "time": 99.00012375,
          "velocity": 0.5669291338582677
        },
        {
          "duration": 0.066666749999996,
          "durationTicks": 24,
          "midi": 74,
          "name": "D5",
          "ticks": 35664,
          "time": 99.0667905,
          "velocity": 0.5748031496062992
        },
        {
          "duration": 0.066666749999996,
          "durationTicks": 24,
          "midi": 75,
          "name": "D#5",
          "ticks": 35688,
          "time": 99.13345724999999,
          "velocity": 0.5826771653543307
        },
        {
          "duration": 0.06666675000001021,
          "durationTicks": 24,
          "midi": 78,
          "name": "F#5",
          "ticks": 35712,
          "time": 99.20012399999999,
          "velocity": 0.5905511811023622
        },
        {
          "duration": 0.066666749999996,
          "durationTicks": 24,
          "midi": 69,
          "name": "A4",
          "ticks": 35736,
          "time": 99.26679075,
          "velocity": 0.5984251968503937
        },
        {
          "duration": 0.066666749999996,
          "durationTicks": 24,
          "midi": 70,
          "name": "A#4",
          "ticks": 35760,
          "time": 99.3334575,
          "velocity": 0.6062992125984252
        },
        {
          "duration": 0.06666675000001021,
          "durationTicks": 24,
          "midi": 75,
          "name": "D#5",
          "ticks": 35784,
          "time": 99.40012424999999,
          "velocity": 0.6141732283464567
        },
        {
          "duration": 0.066666749999996,
          "durationTicks": 24,
          "midi": 78,
          "name": "F#5",
          "ticks": 35808,
          "time": 99.466791,
          "velocity": 0.6220472440944882
        },
        {
          "duration": 0.066666749999996,
          "durationTicks": 24,
          "midi": 65,
          "name": "F4",
          "ticks": 35832,
          "time": 99.53345775,
          "velocity": 0.6299212598425197
        },
        {
          "duration": 0.066666749999996,
          "durationTicks": 24,
          "midi": 66,
          "name": "F#4",
          "ticks": 35856,
          "time": 99.60012449999999,
          "velocity": 0.6377952755905512
        },
        {
          "duration": 0.06666675000001021,
          "durationTicks": 24,
          "midi": 69,
          "name": "A4",
          "ticks": 35880,
          "time": 99.66679124999999,
          "velocity": 0.6535433070866141
        },
        {
          "duration": 0.066666749999996,
          "durationTicks": 24,
          "midi": 70,
          "name": "A#4",
          "ticks": 35904,
          "time": 99.733458,
          "velocity": 0.6614173228346457
        },
        {
          "duration": 0.066666749999996,
          "durationTicks": 24,
          "midi": 74,
          "name": "D5",
          "ticks": 35928,
          "time": 99.80012475,
          "velocity": 0.6692913385826772
        },
        {
          "duration": 0.06666675000001021,
          "durationTicks": 24,
          "midi": 75,
          "name": "D#5",
          "ticks": 35952,
          "time": 99.86679149999999,
          "velocity": 0.6771653543307087
        },
        {
          "duration": 0.066666749999996,
          "durationTicks": 24,
          "midi": 78,
          "name": "F#5",
          "ticks": 35976,
          "time": 99.93345825,
          "velocity": 0.6850393700787402
        },
        {
          "duration": 0.133333499999992,
          "durationTicks": 48,
          "midi": 71,
          "name": "B4",
          "ticks": 36000,
          "time": 100.000125,
          "velocity": 0.6929133858267716
        },
        {
          "duration": 0.06666675000001021,
          "durationTicks": 24,
          "midi": 68,
          "name": "G#4",
          "ticks": 36048,
          "time": 100.13345849999999,
          "velocity": 0.7086614173228346
        },
        {
          "duration": 0.066666749999996,
          "durationTicks": 24,
          "midi": 71,
          "name": "B4",
          "ticks": 36072,
          "time": 100.20012525,
          "velocity": 0.7165354330708661
        },
        {
          "duration": 0.066666749999996,
          "durationTicks": 24,
          "midi": 74,
          "name": "D5",
          "ticks": 36096,
          "time": 100.266792,
          "velocity": 0.7244094488188977
        },
        {
          "duration": 0.06666675000001021,
          "durationTicks": 24,
          "midi": 75,
          "name": "D#5",
          "ticks": 36120,
          "time": 100.33345874999999,
          "velocity": 0.7322834645669292
        },
        {
          "duration": 0.066666749999996,
          "durationTicks": 24,
          "midi": 78,
          "name": "F#5",
          "ticks": 36144,
          "time": 100.4001255,
          "velocity": 0.7401574803149606
        },
        {
          "duration": 0.066666749999996,
          "durationTicks": 24,
          "midi": 81,
          "name": "A5",
          "ticks": 36168,
          "time": 100.46679225,
          "velocity": 0.7480314960629921
        },
        {
          "duration": 0.1333335000000062,
          "durationTicks": 48,
          "midi": 80,
          "name": "G#5",
          "ticks": 36192,
          "time": 100.533459,
          "velocity": 0.7559055118110236
        },
        {
          "duration": 0.24444474999999954,
          "durationTicks": 88,
          "midi": 88,
          "name": "E6",
          "ticks": 39168,
          "time": 108.800136,
          "velocity": 0.7559055118110236
        },
        {
          "duration": 0.24444474999999954,
          "durationTicks": 88,
          "midi": 100,
          "name": "E7",
          "ticks": 39176,
          "time": 108.82235825,
          "velocity": 0.7559055118110236
        },
        {
          "duration": 0.24444475000001376,
          "durationTicks": 88,
          "midi": 87,
          "name": "D#6",
          "ticks": 39264,
          "time": 109.066803,
          "velocity": 0.7559055118110236
        },
        {
          "duration": 0.24444474999999954,
          "durationTicks": 88,
          "midi": 99,
          "name": "D#7",
          "ticks": 39272,
          "time": 109.08902524999999,
          "velocity": 0.7559055118110236
        },
        {
          "duration": 0.24444475000001376,
          "durationTicks": 88,
          "midi": 86,
          "name": "D6",
          "ticks": 39360,
          "time": 109.33346999999999,
          "velocity": 0.7559055118110236
        },
        {
          "duration": 0.24444474999999954,
          "durationTicks": 88,
          "midi": 98,
          "name": "D7",
          "ticks": 39368,
          "time": 109.35569224999999,
          "velocity": 0.7559055118110236
        },
        {
          "duration": 0.24444475000001376,
          "durationTicks": 88,
          "midi": 85,
          "name": "C#6",
          "ticks": 39456,
          "time": 109.60013699999999,
          "velocity": 0.7559055118110236
        },
        {
          "duration": 0.24444475000001376,
          "durationTicks": 88,
          "midi": 97,
          "name": "C#7",
          "ticks": 39464,
          "time": 109.62235924999999,
          "velocity": 0.7559055118110236
        },
        {
          "duration": 0.24444474999999954,
          "durationTicks": 88,
          "midi": 84,
          "name": "C6",
          "ticks": 39552,
          "time": 109.866804,
          "velocity": 0.7559055118110236
        },
        {
          "duration": 0.24444475000001376,
          "durationTicks": 88,
          "midi": 96,
          "name": "C7",
          "ticks": 39560,
          "time": 109.88902624999999,
          "velocity": 0.7559055118110236
        },
        {
          "duration": 0.24444474999999954,
          "durationTicks": 88,
          "midi": 83,
          "name": "B5",
          "ticks": 39648,
          "time": 110.133471,
          "velocity": 0.7559055118110236
        },
        {
          "duration": 0.24444475000001376,
          "durationTicks": 88,
          "midi": 95,
          "name": "B6",
          "ticks": 39656,
          "time": 110.15569324999998,
          "velocity": 0.7559055118110236
        },
        {
          "duration": 0.5333339999999964,
          "durationTicks": 192,
          "midi": 81,
          "name": "A5",
          "ticks": 39744,
          "time": 110.400138,
          "velocity": 0.7559055118110236
        },
        {
          "duration": 0.5333340000000106,
          "durationTicks": 192,
          "midi": 93,
          "name": "A6",
          "ticks": 39752,
          "time": 110.42236024999998,
          "velocity": 0.7559055118110236
        },
        {
          "duration": 0.08888899999999467,
          "durationTicks": 32,
          "midi": 80,
          "name": "G#5",
          "ticks": 39784,
          "time": 110.51124925,
          "velocity": 0.6220472440944882
        },
        {
          "duration": 0.08888900000000888,
          "durationTicks": 32,
          "midi": 79,
          "name": "G5",
          "ticks": 39800,
          "time": 110.55569374999999,
          "velocity": 0.5748031496062992
        },
        {
          "duration": 0.08888899999999467,
          "durationTicks": 32,
          "midi": 78,
          "name": "F#5",
          "ticks": 39816,
          "time": 110.60013825,
          "velocity": 0.5196850393700787
        },
        {
          "duration": 0.08888899999999467,
          "durationTicks": 32,
          "midi": 77,
          "name": "F5",
          "ticks": 39832,
          "time": 110.64458275,
          "velocity": 0.47244094488188976
        },
        {
          "duration": 0.08888900000000888,
          "durationTicks": 32,
          "midi": 76,
          "name": "E5",
          "ticks": 39848,
          "time": 110.68902725,
          "velocity": 0.41732283464566927
        },
        {
          "duration": 0.08888899999999467,
          "durationTicks": 32,
          "midi": 75,
          "name": "D#5",
          "ticks": 39864,
          "time": 110.73347174999999,
          "velocity": 0.3700787401574803
        },
        {
          "duration": 0.08888899999999467,
          "durationTicks": 32,
          "midi": 74,
          "name": "D5",
          "ticks": 39880,
          "time": 110.77791625,
          "velocity": 0.31496062992125984
        },
        {
          "duration": 0.08888900000000888,
          "durationTicks": 32,
          "midi": 73,
          "name": "C#5",
          "ticks": 39896,
          "time": 110.82236074999999,
          "velocity": 0.25984251968503935
        },
        {
          "duration": 0.08888899999999467,
          "durationTicks": 32,
          "midi": 72,
          "name": "C5",
          "ticks": 39912,
          "time": 110.86680525,
          "velocity": 0.2125984251968504
        },
        {
          "duration": 0.066666749999996,
          "durationTicks": 24,
          "midi": 63,
          "name": "D#4",
          "ticks": 42048,
          "time": 116.800146,
          "velocity": 0.6141732283464567
        },
        {
          "duration": 0.066666749999996,
          "durationTicks": 24,
          "midi": 64,
          "name": "E4",
          "ticks": 42072,
          "time": 116.86681275,
          "velocity": 0.6299212598425197
        },
        {
          "duration": 0.06666675000001021,
          "durationTicks": 24,
          "midi": 68,
          "name": "G#4",
          "ticks": 42096,
          "time": 116.93347949999999,
          "velocity": 0.6456692913385826
        },
        {
          "duration": 0.066666749999996,
          "durationTicks": 24,
          "midi": 70,
          "name": "A#4",
          "ticks": 42120,
          "time": 117.00014625,
          "velocity": 0.6614173228346457
        },
        {
          "duration": 0.066666749999996,
          "durationTicks": 24,
          "midi": 75,
          "name": "D#5",
          "ticks": 42144,
          "time": 117.066813,
          "velocity": 0.6771653543307087
        },
        {
          "duration": 0.066666749999996,
          "durationTicks": 24,
          "midi": 76,
          "name": "E5",
          "ticks": 42168,
          "time": 117.13347974999999,
          "velocity": 0.6929133858267716
        },
        {
          "duration": 0.06666675000001021,
          "durationTicks": 24,
          "midi": 80,
          "name": "G#5",
          "ticks": 42192,
          "time": 117.20014649999999,
          "velocity": 0.7165354330708661
        },
        {
          "duration": 0.066666749999996,
          "durationTicks": 24,
          "midi": 82,
          "name": "A#5",
          "ticks": 42216,
          "time": 117.26681325,
          "velocity": 0.7322834645669292
        },
        {
          "duration": 0.066666749999996,
          "durationTicks": 24,
          "midi": 87,
          "name": "D#6",
          "ticks": 42240,
          "time": 117.33348,
          "velocity": 0.7480314960629921
        },
        {
          "duration": 0.06666675000001021,
          "durationTicks": 24,
          "midi": 88,
          "name": "E6",
          "ticks": 42264,
          "time": 117.40014674999999,
          "velocity": 0.7637795275590551
        },
        {
          "duration": 0.066666749999996,
          "durationTicks": 24,
          "midi": 92,
          "name": "G#6",
          "ticks": 42288,
          "time": 117.4668135,
          "velocity": 0.7795275590551181
        },
        {
          "duration": 0.066666749999996,
          "durationTicks": 24,
          "midi": 94,
          "name": "A#6",
          "ticks": 42312,
          "time": 117.53348025,
          "velocity": 0.7952755905511811
        },
        {
          "duration": 0.066666749999996,
          "durationTicks": 24,
          "midi": 100,
          "name": "E7",
          "ticks": 42336,
          "time": 117.60014699999999,
          "velocity": 0.8110236220472441
        },
        {
          "duration": 0.06666675000001021,
          "durationTicks": 24,
          "midi": 96,
          "name": "C7",
          "ticks": 42360,
          "time": 117.66681374999999,
          "velocity": 0.7952755905511811
        },
        {
          "duration": 0.066666749999996,
          "durationTicks": 24,
          "midi": 92,
          "name": "G#6",
          "ticks": 42384,
          "time": 117.7334805,
          "velocity": 0.7795275590551181
        },
        {
          "duration": 0.066666749999996,
          "durationTicks": 24,
          "midi": 91,
          "name": "G6",
          "ticks": 42408,
          "time": 117.80014725,
          "velocity": 0.7637795275590551
        },
        {
          "duration": 0.06666675000001021,
          "durationTicks": 24,
          "midi": 88,
          "name": "E6",
          "ticks": 42432,
          "time": 117.86681399999999,
          "velocity": 0.7480314960629921
        },
        {
          "duration": 0.066666749999996,
          "durationTicks": 24,
          "midi": 84,
          "name": "C6",
          "ticks": 42456,
          "time": 117.93348075,
          "velocity": 0.7244094488188977
        },
        {
          "duration": 0.066666749999996,
          "durationTicks": 24,
          "midi": 80,
          "name": "G#5",
          "ticks": 42480,
          "time": 118.0001475,
          "velocity": 0.7086614173228346
        },
        {
          "duration": 0.066666749999996,
          "durationTicks": 24,
          "midi": 79,
          "name": "G5",
          "ticks": 42504,
          "time": 118.06681425,
          "velocity": 0.6929133858267716
        },
        {
          "duration": 0.06666675000001021,
          "durationTicks": 24,
          "midi": 66,
          "name": "F#4",
          "ticks": 42528,
          "time": 118.13348099999999,
          "velocity": 0.6771653543307087
        },
        {
          "duration": 0.066666749999996,
          "durationTicks": 24,
          "midi": 67,
          "name": "G4",
          "ticks": 42552,
          "time": 118.20014775,
          "velocity": 0.6850393700787402
        },
        {
          "duration": 0.066666749999996,
          "durationTicks": 24,
          "midi": 71,
          "name": "B4",
          "ticks": 42576,
          "time": 118.2668145,
          "velocity": 0.7007874015748031
        },
        {
          "duration": 0.06666675000001021,
          "durationTicks": 24,
          "midi": 73,
          "name": "C#5",
          "ticks": 42600,
          "time": 118.33348124999999,
          "velocity": 0.7086614173228346
        },
        {
          "duration": 0.066666749999996,
          "durationTicks": 24,
          "midi": 78,
          "name": "F#5",
          "ticks": 42624,
          "time": 118.400148,
          "velocity": 0.7244094488188977
        },
        {
          "duration": 0.066666749999996,
          "durationTicks": 24,
          "midi": 79,
          "name": "G5",
          "ticks": 42648,
          "time": 118.46681475,
          "velocity": 0.7322834645669292
        },
        {
          "duration": 0.066666749999996,
          "durationTicks": 24,
          "midi": 83,
          "name": "B5",
          "ticks": 42672,
          "time": 118.5334815,
          "velocity": 0.7401574803149606
        },
        {
          "duration": 0.06666675000001021,
          "durationTicks": 24,
          "midi": 85,
          "name": "C#6",
          "ticks": 42696,
          "time": 118.60014824999999,
          "velocity": 0.7559055118110236
        },
        {
          "duration": 0.066666749999996,
          "durationTicks": 24,
          "midi": 90,
          "name": "F#6",
          "ticks": 42720,
          "time": 118.666815,
          "velocity": 0.7637795275590551
        },
        {
          "duration": 0.066666749999996,
          "durationTicks": 24,
          "midi": 91,
          "name": "G6",
          "ticks": 42744,
          "time": 118.73348175,
          "velocity": 0.7795275590551181
        },
        {
          "duration": 0.066666749999996,
          "durationTicks": 24,
          "midi": 95,
          "name": "B6",
          "ticks": 42768,
          "time": 118.80014849999999,
          "velocity": 0.7874015748031497
        },
        {
          "duration": 0.06666675000001021,
          "durationTicks": 24,
          "midi": 97,
          "name": "C#7",
          "ticks": 42792,
          "time": 118.86681524999999,
          "velocity": 0.8031496062992126
        },
        {
          "duration": 0.066666749999996,
          "durationTicks": 24,
          "midi": 103,
          "name": "G7",
          "ticks": 42816,
          "time": 118.933482,
          "velocity": 0.8031496062992126
        },
        {
          "duration": 0.066666749999996,
          "durationTicks": 24,
          "midi": 99,
          "name": "D#7",
          "ticks": 42840,
          "time": 119.00014875,
          "velocity": 0.7952755905511811
        },
        {
          "duration": 0.06666675000001021,
          "durationTicks": 24,
          "midi": 95,
          "name": "B6",
          "ticks": 42864,
          "time": 119.06681549999999,
          "velocity": 0.7874015748031497
        },
        {
          "duration": 0.066666749999996,
          "durationTicks": 24,
          "midi": 94,
          "name": "A#6",
          "ticks": 42888,
          "time": 119.13348225,
          "velocity": 0.7795275590551181
        },
        {
          "duration": 0.066666749999996,
          "durationTicks": 24,
          "midi": 91,
          "name": "G6",
          "ticks": 42912,
          "time": 119.200149,
          "velocity": 0.7637795275590551
        },
        {
          "duration": 0.066666749999996,
          "durationTicks": 24,
          "midi": 87,
          "name": "D#6",
          "ticks": 42936,
          "time": 119.26681574999999,
          "velocity": 0.7559055118110236
        },
        {
          "duration": 0.06666675000001021,
          "durationTicks": 24,
          "midi": 83,
          "name": "B5",
          "ticks": 42960,
          "time": 119.33348249999999,
          "velocity": 0.7480314960629921
        },
        {
          "duration": 0.066666749999996,
          "durationTicks": 24,
          "midi": 82,
          "name": "A#5",
          "ticks": 42984,
          "time": 119.40014925,
          "velocity": 0.7401574803149606
        },
        {
          "duration": 0.1333335000000062,
          "durationTicks": 48,
          "midi": 90,
          "name": "F#6",
          "ticks": 45312,
          "time": 125.866824,
          "velocity": 0.7401574803149606
        },
        {
          "duration": 0.1333335000000062,
          "durationTicks": 48,
          "midi": 85,
          "name": "C#6",
          "ticks": 45312,
          "time": 125.866824,
          "velocity": 0.7401574803149606
        },
        {
          "duration": 0.066666749999996,
          "durationTicks": 24,
          "midi": 78,
          "name": "F#5",
          "ticks": 45360,
          "time": 126.0001575,
          "velocity": 0.7401574803149606
        },
        {
          "duration": 0.133333499999992,
          "durationTicks": 48,
          "midi": 81,
          "name": "A5",
          "ticks": 45384,
          "time": 126.06682425,
          "velocity": 0.7401574803149606
        },
        {
          "duration": 0.133333499999992,
          "durationTicks": 48,
          "midi": 88,
          "name": "E6",
          "ticks": 45384,
          "time": 126.06682425,
          "velocity": 0.7401574803149606
        },
        {
          "duration": 0.06666675000001021,
          "durationTicks": 24,
          "midi": 84,
          "name": "C6",
          "ticks": 45432,
          "time": 126.20015774999999,
          "velocity": 0.7401574803149606
        },
        {
          "duration": 0.066666749999996,
          "durationTicks": 24,
          "midi": 83,
          "name": "B5",
          "ticks": 45456,
          "time": 126.2668245,
          "velocity": 0.7401574803149606
        },
        {
          "duration": 0.066666749999996,
          "durationTicks": 24,
          "midi": 81,
          "name": "A5",
          "ticks": 45480,
          "time": 126.33349125,
          "velocity": 0.7401574803149606
        },
        {
          "duration": 0.1333335000000062,
          "durationTicks": 48,
          "midi": 77,
          "name": "F5",
          "ticks": 45504,
          "time": 126.40015799999999,
          "velocity": 0.7401574803149606
        },
        {
          "duration": 0.1333335000000062,
          "durationTicks": 48,
          "midi": 83,
          "name": "B5",
          "ticks": 45504,
          "time": 126.40015799999999,
          "velocity": 0.7401574803149606
        },
        {
          "duration": 0.066666749999996,
          "durationTicks": 24,
          "midi": 84,
          "name": "C6",
          "ticks": 45552,
          "time": 126.5334915,
          "velocity": 0.7401574803149606
        },
        {
          "duration": 0.066666749999996,
          "durationTicks": 24,
          "midi": 78,
          "name": "F#5",
          "ticks": 45552,
          "time": 126.5334915,
          "velocity": 0.7401574803149606
        },
        {
          "duration": 0.1333335000000062,
          "durationTicks": 48,
          "midi": 80,
          "name": "G#5",
          "ticks": 45576,
          "time": 126.60015824999999,
          "velocity": 0.7401574803149606
        },
        {
          "duration": 0.1333335000000062,
          "durationTicks": 48,
          "midi": 85,
          "name": "C#6",
          "ticks": 45576,
          "time": 126.60015824999999,
          "velocity": 0.7401574803149606
        },
        {
          "duration": 0.066666749999996,
          "durationTicks": 24,
          "midi": 73,
          "name": "C#5",
          "ticks": 45624,
          "time": 126.73349175,
          "velocity": 0.7401574803149606
        },
        {
          "duration": 0.1333335000000062,
          "durationTicks": 48,
          "midi": 92,
          "name": "G#6",
          "ticks": 45648,
          "time": 126.8001585,
          "velocity": 0.7401574803149606
        },
        {
          "duration": 0.1333335000000062,
          "durationTicks": 48,
          "midi": 89,
          "name": "F6",
          "ticks": 45648,
          "time": 126.8001585,
          "velocity": 0.7401574803149606
        },
        {
          "duration": 0.133333499999992,
          "durationTicks": 48,
          "midi": 93,
          "name": "A6",
          "ticks": 45696,
          "time": 126.933492,
          "velocity": 0.7401574803149606
        },
        {
          "duration": 0.133333499999992,
          "durationTicks": 48,
          "midi": 90,
          "name": "F#6",
          "ticks": 45696,
          "time": 126.933492,
          "velocity": 0.7401574803149606
        },
        {
          "duration": 0.066666749999996,
          "durationTicks": 24,
          "midi": 78,
          "name": "F#5",
          "ticks": 45744,
          "time": 127.0668255,
          "velocity": 0.7401574803149606
        },
        {
          "duration": 0.06666675000001021,
          "durationTicks": 24,
          "midi": 83,
          "name": "B5",
          "ticks": 45768,
          "time": 127.13349224999999,
          "velocity": 0.7401574803149606
        },
        {
          "duration": 0.066666749999996,
          "durationTicks": 24,
          "midi": 85,
          "name": "C#6",
          "ticks": 45792,
          "time": 127.200159,
          "velocity": 0.7401574803149606
        },
        {
          "duration": 0.066666749999996,
          "durationTicks": 24,
          "midi": 88,
          "name": "E6",
          "ticks": 45816,
          "time": 127.26682575,
          "velocity": 0.7401574803149606
        },
        {
          "duration": 0.066666749999996,
          "durationTicks": 24,
          "midi": 83,
          "name": "B5",
          "ticks": 45840,
          "time": 127.33349249999999,
          "velocity": 0.7401574803149606
        },
        {
          "duration": 0.06666675000001021,
          "durationTicks": 24,
          "midi": 84,
          "name": "C6",
          "ticks": 45864,
          "time": 127.40015924999999,
          "velocity": 0.7401574803149606
        },
        {
          "duration": 0.066666749999996,
          "durationTicks": 24,
          "midi": 83,
          "name": "B5",
          "ticks": 45888,
          "time": 127.466826,
          "velocity": 0.7401574803149606
        },
        {
          "duration": 0.066666749999996,
          "durationTicks": 24,
          "midi": 81,
          "name": "A5",
          "ticks": 45912,
          "time": 127.53349275,
          "velocity": 0.7401574803149606
        },
        {
          "duration": 0.1333335000000062,
          "durationTicks": 48,
          "midi": 78,
          "name": "F#5",
          "ticks": 45936,
          "time": 127.60015949999999,
          "velocity": 0.7401574803149606
        },
        {
          "duration": 0.066666749999996,
          "durationTicks": 24,
          "midi": 71,
          "name": "B4",
          "ticks": 45984,
          "time": 127.733493,
          "velocity": 0.7401574803149606
        },
        {
          "duration": 0.066666749999996,
          "durationTicks": 24,
          "midi": 76,
          "name": "E5",
          "ticks": 45984,
          "time": 127.733493,
          "velocity": 0.7401574803149606
        },
        {
          "duration": 0.066666749999996,
          "durationTicks": 24,
          "midi": 73,
          "name": "C#5",
          "ticks": 46008,
          "time": 127.80015974999999,
          "velocity": 0.7401574803149606
        },
        {
          "duration": 0.066666749999996,
          "durationTicks": 24,
          "midi": 78,
          "name": "F#5",
          "ticks": 46008,
          "time": 127.80015974999999,
          "velocity": 0.7401574803149606
        },
        {
          "duration": 0.06666675000001021,
          "durationTicks": 24,
          "midi": 76,
          "name": "E5",
          "ticks": 46032,
          "time": 127.86682649999999,
          "velocity": 0.7401574803149606
        },
        {
          "duration": 0.06666675000001021,
          "durationTicks": 24,
          "midi": 81,
          "name": "A5",
          "ticks": 46032,
          "time": 127.86682649999999,
          "velocity": 0.7401574803149606
        },
        {
          "duration": 0.066666749999996,
          "durationTicks": 24,
          "midi": 78,
          "name": "F#5",
          "ticks": 46056,
          "time": 127.93349325,
          "velocity": 0.7401574803149606
        },
        {
          "duration": 0.066666749999996,
          "durationTicks": 24,
          "midi": 83,
          "name": "B5",
          "ticks": 46056,
          "time": 127.93349325,
          "velocity": 0.7401574803149606
        },
        {
          "duration": 0.133333499999992,
          "durationTicks": 48,
          "midi": 78,
          "name": "F#5",
          "ticks": 46080,
          "time": 128.00016,
          "velocity": 0.7401574803149606
        },
        {
          "duration": 0.133333499999992,
          "durationTicks": 48,
          "midi": 84,
          "name": "C6",
          "ticks": 46080,
          "time": 128.00016,
          "velocity": 0.7401574803149606
        },
        {
          "duration": 0.066666749999996,
          "durationTicks": 24,
          "midi": 73,
          "name": "C#5",
          "ticks": 46128,
          "time": 128.1334935,
          "velocity": 0.7401574803149606
        },
        {
          "duration": 0.13333350000002042,
          "durationTicks": 48,
          "midi": 78,
          "name": "F#5",
          "ticks": 46152,
          "time": 128.20016024999998,
          "velocity": 0.7401574803149606
        },
        {
          "duration": 0.13333350000002042,
          "durationTicks": 48,
          "midi": 85,
          "name": "C#6",
          "ticks": 46152,
          "time": 128.20016024999998,
          "velocity": 0.7401574803149606
        },
        {
          "duration": 0.066666749999996,
          "durationTicks": 24,
          "midi": 83,
          "name": "B5",
          "ticks": 46200,
          "time": 128.33349375,
          "velocity": 0.7401574803149606
        },
        {
          "duration": 0.066666749999996,
          "durationTicks": 24,
          "midi": 85,
          "name": "C#6",
          "ticks": 46224,
          "time": 128.4001605,
          "velocity": 0.7401574803149606
        },
        {
          "duration": 0.066666749999996,
          "durationTicks": 24,
          "midi": 88,
          "name": "E6",
          "ticks": 46248,
          "time": 128.46682725,
          "velocity": 0.7401574803149606
        },
        {
          "duration": 0.066666749999996,
          "durationTicks": 24,
          "midi": 89,
          "name": "F6",
          "ticks": 46272,
          "time": 128.533494,
          "velocity": 0.7401574803149606
        },
        {
          "duration": 0.066666749999996,
          "durationTicks": 24,
          "midi": 85,
          "name": "C#6",
          "ticks": 46272,
          "time": 128.533494,
          "velocity": 0.7401574803149606
        },
        {
          "duration": 0.066666749999996,
          "durationTicks": 24,
          "midi": 80,
          "name": "G#5",
          "ticks": 46296,
          "time": 128.60016075,
          "velocity": 0.7401574803149606
        },
        {
          "duration": 0.066666749999996,
          "durationTicks": 24,
          "midi": 85,
          "name": "C#6",
          "ticks": 46296,
          "time": 128.60016075,
          "velocity": 0.7401574803149606
        },
        {
          "duration": 0.06666675000002442,
          "durationTicks": 24,
          "midi": 73,
          "name": "C#5",
          "ticks": 46320,
          "time": 128.66682749999998,
          "velocity": 0.7401574803149606
        },
        {
          "duration": 0.06666675000002442,
          "durationTicks": 24,
          "midi": 77,
          "name": "F5",
          "ticks": 46320,
          "time": 128.66682749999998,
          "velocity": 0.7401574803149606
        },
        {
          "duration": 0.133333499999992,
          "durationTicks": 48,
          "midi": 83,
          "name": "B5",
          "ticks": 46344,
          "time": 128.73349425,
          "velocity": 0.7401574803149606
        },
        {
          "duration": 0.133333499999992,
          "durationTicks": 48,
          "midi": 80,
          "name": "G#5",
          "ticks": 46344,
          "time": 128.73349425,
          "velocity": 0.7401574803149606
        },
        {
          "duration": 0.066666749999996,
          "durationTicks": 24,
          "midi": 84,
          "name": "C6",
          "ticks": 46392,
          "time": 128.86682775,
          "velocity": 0.7401574803149606
        },
        {
          "duration": 0.066666749999996,
          "durationTicks": 24,
          "midi": 83,
          "name": "B5",
          "ticks": 46416,
          "time": 128.9334945,
          "velocity": 0.7401574803149606
        },
        {
          "duration": 0.066666749999996,
          "durationTicks": 24,
          "midi": 81,
          "name": "A5",
          "ticks": 46440,
          "time": 129.00016125,
          "velocity": 0.7401574803149606
        },
        {
          "duration": 0.066666749999996,
          "durationTicks": 24,
          "midi": 73,
          "name": "C#5",
          "ticks": 46464,
          "time": 129.066828,
          "velocity": 0.7401574803149606
        },
        {
          "duration": 0.066666749999996,
          "durationTicks": 24,
          "midi": 78,
          "name": "F#5",
          "ticks": 46464,
          "time": 129.066828,
          "velocity": 0.7401574803149606
        },
        {
          "duration": 0.06666675000002442,
          "durationTicks": 24,
          "midi": 81,
          "name": "A5",
          "ticks": 46488,
          "time": 129.13349474999998,
          "velocity": 0.7401574803149606
        },
        {
          "duration": 0.06666675000002442,
          "durationTicks": 24,
          "midi": 76,
          "name": "E5",
          "ticks": 46488,
          "time": 129.13349474999998,
          "velocity": 0.7401574803149606
        },
        {
          "duration": 0.133333499999992,
          "durationTicks": 48,
          "midi": 78,
          "name": "F#5",
          "ticks": 46512,
          "time": 129.2001615,
          "velocity": 0.7401574803149606
        },
        {
          "duration": 0.133333499999992,
          "durationTicks": 48,
          "midi": 73,
          "name": "C#5",
          "ticks": 46512,
          "time": 129.2001615,
          "velocity": 0.7401574803149606
        },
        {
          "duration": 0.133333499999992,
          "durationTicks": 48,
          "midi": 89,
          "name": "F6",
          "ticks": 46560,
          "time": 129.333495,
          "velocity": 0.7401574803149606
        },
        {
          "duration": 0.133333499999992,
          "durationTicks": 48,
          "midi": 92,
          "name": "G#6",
          "ticks": 46560,
          "time": 129.333495,
          "velocity": 0.7401574803149606
        },
        {
          "duration": 0.133333499999992,
          "durationTicks": 48,
          "midi": 89,
          "name": "F6",
          "ticks": 46608,
          "time": 129.4668285,
          "velocity": 0.7401574803149606
        },
        {
          "duration": 0.133333499999992,
          "durationTicks": 48,
          "midi": 85,
          "name": "C#6",
          "ticks": 46608,
          "time": 129.4668285,
          "velocity": 0.7401574803149606
        },
        {
          "duration": 0.13333350000002042,
          "durationTicks": 48,
          "midi": 85,
          "name": "C#6",
          "ticks": 46656,
          "time": 129.60016199999998,
          "velocity": 0.7401574803149606
        },
        {
          "duration": 0.13333350000002042,
          "durationTicks": 48,
          "midi": 90,
          "name": "F#6",
          "ticks": 46656,
          "time": 129.60016199999998,
          "velocity": 0.7401574803149606
        },
        {
          "duration": 0.066666749999996,
          "durationTicks": 24,
          "midi": 80,
          "name": "G#5",
          "ticks": 46704,
          "time": 129.7334955,
          "velocity": 0.7401574803149606
        },
        {
          "duration": 0.066666749999996,
          "durationTicks": 24,
          "midi": 83,
          "name": "B5",
          "ticks": 46704,
          "time": 129.7334955,
          "velocity": 0.7401574803149606
        },
        {
          "duration": 0.066666749999996,
          "durationTicks": 24,
          "midi": 81,
          "name": "A5",
          "ticks": 46728,
          "time": 129.80016225,
          "velocity": 0.7401574803149606
        },
        {
          "duration": 0.066666749999996,
          "durationTicks": 24,
          "midi": 84,
          "name": "C6",
          "ticks": 46728,
          "time": 129.80016225,
          "velocity": 0.7401574803149606
        },
        {
          "duration": 0.133333499999992,
          "durationTicks": 48,
          "midi": 83,
          "name": "B5",
          "ticks": 46752,
          "time": 129.866829,
          "velocity": 0.7401574803149606
        },
        {
          "duration": 0.133333499999992,
          "durationTicks": 48,
          "midi": 78,
          "name": "F#5",
          "ticks": 46752,
          "time": 129.866829,
          "velocity": 0.7401574803149606
        },
        {
          "duration": 0.133333499999992,
          "durationTicks": 48,
          "midi": 75,
          "name": "D#5",
          "ticks": 46800,
          "time": 130.0001625,
          "velocity": 0.7401574803149606
        },
        {
          "duration": 0.13333350000002042,
          "durationTicks": 48,
          "midi": 85,
          "name": "C#6",
          "ticks": 46848,
          "time": 130.13349599999998,
          "velocity": 0.7401574803149606
        },
        {
          "duration": 0.13333350000002042,
          "durationTicks": 48,
          "midi": 90,
          "name": "F#6",
          "ticks": 46848,
          "time": 130.13349599999998,
          "velocity": 0.7401574803149606
        },
        {
          "duration": 0.066666749999996,
          "durationTicks": 24,
          "midi": 78,
          "name": "F#5",
          "ticks": 46896,
          "time": 130.2668295,
          "velocity": 0.7401574803149606
        },
        {
          "duration": 0.133333499999992,
          "durationTicks": 48,
          "midi": 81,
          "name": "A5",
          "ticks": 46920,
          "time": 130.33349625,
          "velocity": 0.7401574803149606
        },
        {
          "duration": 0.133333499999992,
          "durationTicks": 48,
          "midi": 88,
          "name": "E6",
          "ticks": 46920,
          "time": 130.33349625,
          "velocity": 0.7401574803149606
        },
        {
          "duration": 0.066666749999996,
          "durationTicks": 24,
          "midi": 84,
          "name": "C6",
          "ticks": 46968,
          "time": 130.46682975,
          "velocity": 0.7401574803149606
        },
        {
          "duration": 0.066666749999996,
          "durationTicks": 24,
          "midi": 83,
          "name": "B5",
          "ticks": 46992,
          "time": 130.53349649999998,
          "velocity": 0.7401574803149606
        },
        {
          "duration": 0.06666675000002442,
          "durationTicks": 24,
          "midi": 81,
          "name": "A5",
          "ticks": 47016,
          "time": 130.60016324999998,
          "velocity": 0.7401574803149606
        },
        {
          "duration": 0.133333499999992,
          "durationTicks": 48,
          "midi": 83,
          "name": "B5",
          "ticks": 47040,
          "time": 130.66683,
          "velocity": 0.7401574803149606
        },
        {
          "duration": 0.133333499999992,
          "durationTicks": 48,
          "midi": 77,
          "name": "F5",
          "ticks": 47040,
          "time": 130.66683,
          "velocity": 0.7401574803149606
        },
        {
          "duration": 0.066666749999996,
          "durationTicks": 24,
          "midi": 78,
          "name": "F#5",
          "ticks": 47088,
          "time": 130.8001635,
          "velocity": 0.7401574803149606
        },
        {
          "duration": 0.066666749999996,
          "durationTicks": 24,
          "midi": 84,
          "name": "C6",
          "ticks": 47088,
          "time": 130.8001635,
          "velocity": 0.7401574803149606
        },
        {
          "duration": 0.133333499999992,
          "durationTicks": 48,
          "midi": 80,
          "name": "G#5",
          "ticks": 47112,
          "time": 130.86683025,
          "velocity": 0.7401574803149606
        },
        {
          "duration": 0.133333499999992,
          "durationTicks": 48,
          "midi": 85,
          "name": "C#6",
          "ticks": 47112,
          "time": 130.86683025,
          "velocity": 0.7401574803149606
        },
        {
          "duration": 0.066666749999996,
          "durationTicks": 24,
          "midi": 73,
          "name": "C#5",
          "ticks": 47160,
          "time": 131.00016374999998,
          "velocity": 0.7401574803149606
        },
        {
          "duration": 0.13333350000002042,
          "durationTicks": 48,
          "midi": 92,
          "name": "G#6",
          "ticks": 47184,
          "time": 131.06683049999998,
          "velocity": 0.7401574803149606
        },
        {
          "duration": 0.13333350000002042,
          "durationTicks": 48,
          "midi": 89,
          "name": "F6",
          "ticks": 47184,
          "time": 131.06683049999998,
          "velocity": 0.7401574803149606
        },
        {
          "duration": 0.133333499999992,
          "durationTicks": 48,
          "midi": 93,
          "name": "A6",
          "ticks": 47232,
          "time": 131.200164,
          "velocity": 0.7401574803149606
        },
        {
          "duration": 0.133333499999992,
          "durationTicks": 48,
          "midi": 90,
          "name": "F#6",
          "ticks": 47232,
          "time": 131.200164,
          "velocity": 0.7401574803149606
        },
        {
          "duration": 0.066666749999996,
          "durationTicks": 24,
          "midi": 95,
          "name": "B6",
          "ticks": 47280,
          "time": 131.3334975,
          "velocity": 0.7401574803149606
        },
        {
          "duration": 0.066666749999996,
          "durationTicks": 24,
          "midi": 93,
          "name": "A6",
          "ticks": 47304,
          "time": 131.40016425,
          "velocity": 0.7401574803149606
        },
        {
          "duration": 0.066666749999996,
          "durationTicks": 24,
          "midi": 92,
          "name": "G#6",
          "ticks": 47328,
          "time": 131.46683099999998,
          "velocity": 0.7401574803149606
        },
        {
          "duration": 0.06666675000002442,
          "durationTicks": 24,
          "midi": 93,
          "name": "A6",
          "ticks": 47352,
          "time": 131.53349774999998,
          "velocity": 0.7401574803149606
        },
        {
          "duration": 0.066666749999996,
          "durationTicks": 24,
          "midi": 90,
          "name": "F#6",
          "ticks": 47376,
          "time": 131.6001645,
          "velocity": 0.7401574803149606
        },
        {
          "duration": 0.066666749999996,
          "durationTicks": 24,
          "midi": 85,
          "name": "C#6",
          "ticks": 47400,
          "time": 131.66683125,
          "velocity": 0.7401574803149606
        },
        {
          "duration": 0.066666749999996,
          "durationTicks": 24,
          "midi": 83,
          "name": "B5",
          "ticks": 47424,
          "time": 131.733498,
          "velocity": 0.7401574803149606
        },
        {
          "duration": 0.066666749999996,
          "durationTicks": 24,
          "midi": 78,
          "name": "F#5",
          "ticks": 47448,
          "time": 131.80016475,
          "velocity": 0.7401574803149606
        },
        {
          "duration": 0.066666749999996,
          "durationTicks": 24,
          "midi": 83,
          "name": "B5",
          "ticks": 47472,
          "time": 131.8668315,
          "velocity": 0.7401574803149606
        },
        {
          "duration": 0.13333350000002042,
          "durationTicks": 48,
          "midi": 76,
          "name": "E5",
          "ticks": 47496,
          "time": 131.93349824999999,
          "velocity": 0.7401574803149606
        },
        {
          "duration": 0.13333350000002042,
          "durationTicks": 48,
          "midi": 82,
          "name": "A#5",
          "ticks": 47496,
          "time": 131.93349824999999,
          "velocity": 0.7401574803149606
        },
        {
          "duration": 0.066666749999996,
          "durationTicks": 24,
          "midi": 78,
          "name": "F#5",
          "ticks": 47544,
          "time": 132.06683175,
          "velocity": 0.7401574803149606
        },
        {
          "duration": 0.066666749999996,
          "durationTicks": 24,
          "midi": 85,
          "name": "C#6",
          "ticks": 47544,
          "time": 132.06683175,
          "velocity": 0.7401574803149606
        },
        {
          "duration": 0.133333499999992,
          "durationTicks": 48,
          "midi": 90,
          "name": "F#6",
          "ticks": 47568,
          "time": 132.1334985,
          "velocity": 0.7401574803149606
        },
        {
          "duration": 0.133333499999992,
          "durationTicks": 48,
          "midi": 85,
          "name": "C#6",
          "ticks": 47568,
          "time": 132.1334985,
          "velocity": 0.7401574803149606
        },
        {
          "duration": 0.133333499999992,
          "durationTicks": 48,
          "midi": 81,
          "name": "A5",
          "ticks": 47616,
          "time": 132.266832,
          "velocity": 0.7401574803149606
        },
        {
          "duration": 0.133333499999992,
          "durationTicks": 48,
          "midi": 86,
          "name": "D6",
          "ticks": 47616,
          "time": 132.266832,
          "velocity": 0.7401574803149606
        },
        {
          "duration": 0.066666749999996,
          "durationTicks": 24,
          "midi": 78,
          "name": "F#5",
          "ticks": 47664,
          "time": 132.40016549999999,
          "velocity": 0.7401574803149606
        },
        {
          "duration": 0.06666675000002442,
          "durationTicks": 24,
          "midi": 81,
          "name": "A5",
          "ticks": 47688,
          "time": 132.46683224999998,
          "velocity": 0.7401574803149606
        },
        {
          "duration": 0.066666749999996,
          "durationTicks": 24,
          "midi": 83,
          "name": "B5",
          "ticks": 47712,
          "time": 132.533499,
          "velocity": 0.7401574803149606
        },
        {
          "duration": 0.066666749999996,
          "durationTicks": 24,
          "midi": 81,
          "name": "A5",
          "ticks": 47736,
          "time": 132.60016575,
          "velocity": 0.7401574803149606
        },
        {
          "duration": 0.066666749999996,
          "durationTicks": 24,
          "midi": 83,
          "name": "B5",
          "ticks": 47760,
          "time": 132.6668325,
          "velocity": 0.7401574803149606
        },
        {
          "duration": 0.066666749999996,
          "durationTicks": 24,
          "midi": 88,
          "name": "E6",
          "ticks": 47784,
          "time": 132.73349925,
          "velocity": 0.7401574803149606
        },
        {
          "duration": 0.133333499999992,
          "durationTicks": 48,
          "midi": 84,
          "name": "C6",
          "ticks": 47808,
          "time": 132.800166,
          "velocity": 0.7401574803149606
        },
        {
          "duration": 0.133333499999992,
          "durationTicks": 48,
          "midi": 87,
          "name": "D#6",
          "ticks": 47808,
          "time": 132.800166,
          "velocity": 0.7401574803149606
        },
        {
          "duration": 0.06666675000002442,
          "durationTicks": 24,
          "midi": 78,
          "name": "F#5",
          "ticks": 47856,
          "time": 132.93349949999998,
          "velocity": 0.7401574803149606
        },
        {
          "duration": 0.066666749999996,
          "durationTicks": 24,
          "midi": 80,
          "name": "G#5",
          "ticks": 47880,
          "time": 133.00016625,
          "velocity": 0.7401574803149606
        },
        {
          "duration": 0.066666749999996,
          "durationTicks": 24,
          "midi": 84,
          "name": "C6",
          "ticks": 47904,
          "time": 133.066833,
          "velocity": 0.7401574803149606
        },
        {
          "duration": 0.066666749999996,
          "durationTicks": 24,
          "midi": 80,
          "name": "G#5",
          "ticks": 47928,
          "time": 133.13349975,
          "velocity": 0.7401574803149606
        },
        {
          "duration": 0.066666749999996,
          "durationTicks": 24,
          "midi": 84,
          "name": "C6",
          "ticks": 47952,
          "time": 133.2001665,
          "velocity": 0.7401574803149606
        },
        {
          "duration": 0.066666749999996,
          "durationTicks": 24,
          "midi": 87,
          "name": "D#6",
          "ticks": 47976,
          "time": 133.26683325,
          "velocity": 0.7401574803149606
        },
        {
          "duration": 0.13333350000002042,
          "durationTicks": 48,
          "midi": 90,
          "name": "F#6",
          "ticks": 48000,
          "time": 133.3335,
          "velocity": 0.7401574803149606
        },
        {
          "duration": 0.13333350000002042,
          "durationTicks": 48,
          "midi": 85,
          "name": "C#6",
          "ticks": 48000,
          "time": 133.3335,
          "velocity": 0.7401574803149606
        },
        {
          "duration": 0.133333499999992,
          "durationTicks": 48,
          "midi": 90,
          "name": "F#6",
          "ticks": 48096,
          "time": 133.600167,
          "velocity": 0.7401574803149606
        },
        {
          "duration": 0.133333499999992,
          "durationTicks": 48,
          "midi": 85,
          "name": "C#6",
          "ticks": 48096,
          "time": 133.600167,
          "velocity": 0.7401574803149606
        },
        {
          "duration": 0.13333350000002042,
          "durationTicks": 48,
          "midi": 85,
          "name": "C#6",
          "ticks": 48192,
          "time": 133.86683399999998,
          "velocity": 0.7401574803149606
        },
        {
          "duration": 0.13333350000002042,
          "durationTicks": 48,
          "midi": 89,
          "name": "F6",
          "ticks": 48192,
          "time": 133.86683399999998,
          "velocity": 0.7401574803149606
        },
        {
          "duration": 0.066666749999996,
          "durationTicks": 24,
          "midi": 90,
          "name": "F#6",
          "ticks": 48240,
          "time": 134.0001675,
          "velocity": 0.7401574803149606
        },
        {
          "duration": 0.066666749999996,
          "durationTicks": 24,
          "midi": 92,
          "name": "G#6",
          "ticks": 48264,
          "time": 134.06683425,
          "velocity": 0.7401574803149606
        },
        {
          "duration": 0.133333499999992,
          "durationTicks": 48,
          "midi": 90,
          "name": "F#6",
          "ticks": 48384,
          "time": 134.400168,
          "velocity": 0.7401574803149606
        },
        {
          "duration": 0.133333499999992,
          "durationTicks": 48,
          "midi": 85,
          "name": "C#6",
          "ticks": 48384,
          "time": 134.400168,
          "velocity": 0.7401574803149606
        },
        {
          "duration": 0.066666749999996,
          "durationTicks": 24,
          "midi": 78,
          "name": "F#5",
          "ticks": 48432,
          "time": 134.5335015,
          "velocity": 0.7401574803149606
        },
        {
          "duration": 0.133333499999992,
          "durationTicks": 48,
          "midi": 88,
          "name": "E6",
          "ticks": 48456,
          "time": 134.60016825,
          "velocity": 0.7401574803149606
        },
        {
          "duration": 0.133333499999992,
          "durationTicks": 48,
          "midi": 81,
          "name": "A5",
          "ticks": 48456,
          "time": 134.60016825,
          "velocity": 0.7401574803149606
        },
        {
          "duration": 0.066666749999996,
          "durationTicks": 24,
          "midi": 84,
          "name": "C6",
          "ticks": 48504,
          "time": 134.73350175,
          "velocity": 0.7401574803149606
        },
        {
          "duration": 0.066666749999996,
          "durationTicks": 24,
          "midi": 83,
          "name": "B5",
          "ticks": 48528,
          "time": 134.80016849999998,
          "velocity": 0.7401574803149606
        },
        {
          "duration": 0.06666675000002442,
          "durationTicks": 24,
          "midi": 81,
          "name": "A5",
          "ticks": 48552,
          "time": 134.86683524999998,
          "velocity": 0.7401574803149606
        },
        {
          "duration": 0.133333499999992,
          "durationTicks": 48,
          "midi": 83,
          "name": "B5",
          "ticks": 48576,
          "time": 134.933502,
          "velocity": 0.7401574803149606
        },
        {
          "duration": 0.133333499999992,
          "durationTicks": 48,
          "midi": 77,
          "name": "F5",
          "ticks": 48576,
          "time": 134.933502,
          "velocity": 0.7401574803149606
        },
        {
          "duration": 0.066666749999996,
          "durationTicks": 24,
          "midi": 78,
          "name": "F#5",
          "ticks": 48624,
          "time": 135.0668355,
          "velocity": 0.7401574803149606
        },
        {
          "duration": 0.066666749999996,
          "durationTicks": 24,
          "midi": 84,
          "name": "C6",
          "ticks": 48624,
          "time": 135.0668355,
          "velocity": 0.7401574803149606
        },
        {
          "duration": 0.133333499999992,
          "durationTicks": 48,
          "midi": 85,
          "name": "C#6",
          "ticks": 48648,
          "time": 135.13350225,
          "velocity": 0.7401574803149606
        },
        {
          "duration": 0.133333499999992,
          "durationTicks": 48,
          "midi": 80,
          "name": "G#5",
          "ticks": 48648,
          "time": 135.13350225,
          "velocity": 0.7401574803149606
        },
        {
          "duration": 0.066666749999996,
          "durationTicks": 24,
          "midi": 73,
          "name": "C#5",
          "ticks": 48696,
          "time": 135.26683574999998,
          "velocity": 0.7401574803149606
        },
        {
          "duration": 0.13333350000002042,
          "durationTicks": 48,
          "midi": 92,
          "name": "G#6",
          "ticks": 48720,
          "time": 135.33350249999998,
          "velocity": 0.7401574803149606
        },
        {
          "duration": 0.13333350000002042,
          "durationTicks": 48,
          "midi": 89,
          "name": "F6",
          "ticks": 48720,
          "time": 135.33350249999998,
          "velocity": 0.7401574803149606
        },
        {
          "duration": 0.133333499999992,
          "durationTicks": 48,
          "midi": 90,
          "name": "F#6",
          "ticks": 48768,
          "time": 135.466836,
          "velocity": 0.7401574803149606
        },
        {
          "duration": 0.133333499999992,
          "durationTicks": 48,
          "midi": 93,
          "name": "A6",
          "ticks": 48768,
          "time": 135.466836,
          "velocity": 0.7401574803149606
        },
        {
          "duration": 0.066666749999996,
          "durationTicks": 24,
          "midi": 78,
          "name": "F#5",
          "ticks": 48816,
          "time": 135.6001695,
          "velocity": 0.7401574803149606
        },
        {
          "duration": 0.066666749999996,
          "durationTicks": 24,
          "midi": 83,
          "name": "B5",
          "ticks": 48840,
          "time": 135.66683625,
          "velocity": 0.7401574803149606
        },
        {
          "duration": 0.066666749999996,
          "durationTicks": 24,
          "midi": 85,
          "name": "C#6",
          "ticks": 48864,
          "time": 135.73350299999998,
          "velocity": 0.7401574803149606
        },
        {
          "duration": 0.06666675000002442,
          "durationTicks": 24,
          "midi": 88,
          "name": "E6",
          "ticks": 48888,
          "time": 135.80016974999998,
          "velocity": 0.7401574803149606
        },
        {
          "duration": 0.066666749999996,
          "durationTicks": 24,
          "midi": 83,
          "name": "B5",
          "ticks": 48912,
          "time": 135.8668365,
          "velocity": 0.7401574803149606
        },
        {
          "duration": 0.066666749999996,
          "durationTicks": 24,
          "midi": 84,
          "name": "C6",
          "ticks": 48936,
          "time": 135.93350325,
          "velocity": 0.7401574803149606
        },
        {
          "duration": 0.066666749999996,
          "durationTicks": 24,
          "midi": 83,
          "name": "B5",
          "ticks": 48960,
          "time": 136.00017,
          "velocity": 0.7401574803149606
        },
        {
          "duration": 0.066666749999996,
          "durationTicks": 24,
          "midi": 81,
          "name": "A5",
          "ticks": 48984,
          "time": 136.06683675,
          "velocity": 0.7401574803149606
        },
        {
          "duration": 0.133333499999992,
          "durationTicks": 48,
          "midi": 78,
          "name": "F#5",
          "ticks": 49008,
          "time": 136.1335035,
          "velocity": 0.7401574803149606
        },
        {
          "duration": 0.06666675000002442,
          "durationTicks": 24,
          "midi": 76,
          "name": "E5",
          "ticks": 49056,
          "time": 136.26683699999998,
          "velocity": 0.7401574803149606
        },
        {
          "duration": 0.06666675000002442,
          "durationTicks": 24,
          "midi": 71,
          "name": "B4",
          "ticks": 49056,
          "time": 136.26683699999998,
          "velocity": 0.7401574803149606
        },
        {
          "duration": 0.066666749999996,
          "durationTicks": 24,
          "midi": 78,
          "name": "F#5",
          "ticks": 49080,
          "time": 136.33350375,
          "velocity": 0.7401574803149606
        },
        {
          "duration": 0.066666749999996,
          "durationTicks": 24,
          "midi": 73,
          "name": "C#5",
          "ticks": 49080,
          "time": 136.33350375,
          "velocity": 0.7401574803149606
        },
        {
          "duration": 0.066666749999996,
          "durationTicks": 24,
          "midi": 81,
          "name": "A5",
          "ticks": 49104,
          "time": 136.4001705,
          "velocity": 0.7401574803149606
        },
        {
          "duration": 0.066666749999996,
          "durationTicks": 24,
          "midi": 76,
          "name": "E5",
          "ticks": 49104,
          "time": 136.4001705,
          "velocity": 0.7401574803149606
        },
        {
          "duration": 0.066666749999996,
          "durationTicks": 24,
          "midi": 83,
          "name": "B5",
          "ticks": 49128,
          "time": 136.46683725,
          "velocity": 0.7401574803149606
        },
        {
          "duration": 0.066666749999996,
          "durationTicks": 24,
          "midi": 78,
          "name": "F#5",
          "ticks": 49128,
          "time": 136.46683725,
          "velocity": 0.7401574803149606
        },
        {
          "duration": 0.133333499999992,
          "durationTicks": 48,
          "midi": 84,
          "name": "C6",
          "ticks": 49152,
          "time": 136.533504,
          "velocity": 0.7401574803149606
        },
        {
          "duration": 0.133333499999992,
          "durationTicks": 48,
          "midi": 78,
          "name": "F#5",
          "ticks": 49152,
          "time": 136.533504,
          "velocity": 0.7401574803149606
        },
        {
          "duration": 0.066666749999996,
          "durationTicks": 24,
          "midi": 73,
          "name": "C#5",
          "ticks": 49200,
          "time": 136.66683749999999,
          "velocity": 0.7401574803149606
        },
        {
          "duration": 0.13333350000002042,
          "durationTicks": 48,
          "midi": 85,
          "name": "C#6",
          "ticks": 49224,
          "time": 136.73350424999998,
          "velocity": 0.7401574803149606
        },
        {
          "duration": 0.13333350000002042,
          "durationTicks": 48,
          "midi": 78,
          "name": "F#5",
          "ticks": 49224,
          "time": 136.73350424999998,
          "velocity": 0.7401574803149606
        },
        {
          "duration": 0.066666749999996,
          "durationTicks": 24,
          "midi": 83,
          "name": "B5",
          "ticks": 49272,
          "time": 136.86683775,
          "velocity": 0.7401574803149606
        },
        {
          "duration": 0.066666749999996,
          "durationTicks": 24,
          "midi": 85,
          "name": "C#6",
          "ticks": 49296,
          "time": 136.9335045,
          "velocity": 0.7401574803149606
        },
        {
          "duration": 0.066666749999996,
          "durationTicks": 24,
          "midi": 88,
          "name": "E6",
          "ticks": 49320,
          "time": 137.00017125,
          "velocity": 0.7401574803149606
        },
        {
          "duration": 0.066666749999996,
          "durationTicks": 24,
          "midi": 85,
          "name": "C#6",
          "ticks": 49344,
          "time": 137.066838,
          "velocity": 0.7401574803149606
        },
        {
          "duration": 0.066666749999996,
          "durationTicks": 24,
          "midi": 89,
          "name": "F6",
          "ticks": 49344,
          "time": 137.066838,
          "velocity": 0.7401574803149606
        },
        {
          "duration": 0.066666749999996,
          "durationTicks": 24,
          "midi": 85,
          "name": "C#6",
          "ticks": 49368,
          "time": 137.13350475,
          "velocity": 0.7401574803149606
        },
        {
          "duration": 0.066666749999996,
          "durationTicks": 24,
          "midi": 80,
          "name": "G#5",
          "ticks": 49368,
          "time": 137.13350475,
          "velocity": 0.7401574803149606
        },
        {
          "duration": 0.06666675000002442,
          "durationTicks": 24,
          "midi": 73,
          "name": "C#5",
          "ticks": 49392,
          "time": 137.20017149999998,
          "velocity": 0.7401574803149606
        },
        {
          "duration": 0.06666675000002442,
          "durationTicks": 24,
          "midi": 77,
          "name": "F5",
          "ticks": 49392,
          "time": 137.20017149999998,
          "velocity": 0.7401574803149606
        },
        {
          "duration": 0.133333499999992,
          "durationTicks": 48,
          "midi": 83,
          "name": "B5",
          "ticks": 49416,
          "time": 137.26683825,
          "velocity": 0.7401574803149606
        },
        {
          "duration": 0.133333499999992,
          "durationTicks": 48,
          "midi": 80,
          "name": "G#5",
          "ticks": 49416,
          "time": 137.26683825,
          "velocity": 0.7401574803149606
        },
        {
          "duration": 0.066666749999996,
          "durationTicks": 24,
          "midi": 84,
          "name": "C6",
          "ticks": 49464,
          "time": 137.40017175,
          "velocity": 0.7401574803149606
        },
        {
          "duration": 0.066666749999996,
          "durationTicks": 24,
          "midi": 83,
          "name": "B5",
          "ticks": 49488,
          "time": 137.4668385,
          "velocity": 0.7401574803149606
        },
        {
          "duration": 0.066666749999996,
          "durationTicks": 24,
          "midi": 81,
          "name": "A5",
          "ticks": 49512,
          "time": 137.53350525,
          "velocity": 0.7401574803149606
        },
        {
          "duration": 0.066666749999996,
          "durationTicks": 24,
          "midi": 78,
          "name": "F#5",
          "ticks": 49536,
          "time": 137.600172,
          "velocity": 0.7401574803149606
        },
        {
          "duration": 0.066666749999996,
          "durationTicks": 24,
          "midi": 73,
          "name": "C#5",
          "ticks": 49536,
          "time": 137.600172,
          "velocity": 0.7401574803149606
        },
        {
          "duration": 0.06666675000002442,
          "durationTicks": 24,
          "midi": 81,
          "name": "A5",
          "ticks": 49560,
          "time": 137.66683874999998,
          "velocity": 0.7401574803149606
        },
        {
          "duration": 0.06666675000002442,
          "durationTicks": 24,
          "midi": 76,
          "name": "E5",
          "ticks": 49560,
          "time": 137.66683874999998,
          "velocity": 0.7401574803149606
        },
        {
          "duration": 0.133333499999992,
          "durationTicks": 48,
          "midi": 78,
          "name": "F#5",
          "ticks": 49584,
          "time": 137.7335055,
          "velocity": 0.7401574803149606
        },
        {
          "duration": 0.133333499999992,
          "durationTicks": 48,
          "midi": 73,
          "name": "C#5",
          "ticks": 49584,
          "time": 137.7335055,
          "velocity": 0.7401574803149606
        },
        {
          "duration": 0.133333499999992,
          "durationTicks": 48,
          "midi": 92,
          "name": "G#6",
          "ticks": 49632,
          "time": 137.866839,
          "velocity": 0.7401574803149606
        },
        {
          "duration": 0.133333499999992,
          "durationTicks": 48,
          "midi": 89,
          "name": "F6",
          "ticks": 49632,
          "time": 137.866839,
          "velocity": 0.7401574803149606
        },
        {
          "duration": 0.133333499999992,
          "durationTicks": 48,
          "midi": 85,
          "name": "C#6",
          "ticks": 49680,
          "time": 138.0001725,
          "velocity": 0.7401574803149606
        },
        {
          "duration": 0.133333499999992,
          "durationTicks": 48,
          "midi": 89,
          "name": "F6",
          "ticks": 49680,
          "time": 138.0001725,
          "velocity": 0.7401574803149606
        },
        {
          "duration": 0.13333350000002042,
          "durationTicks": 48,
          "midi": 85,
          "name": "C#6",
          "ticks": 49728,
          "time": 138.13350599999998,
          "velocity": 0.7401574803149606
        },
        {
          "duration": 0.13333350000002042,
          "durationTicks": 48,
          "midi": 90,
          "name": "F#6",
          "ticks": 49728,
          "time": 138.13350599999998,
          "velocity": 0.7401574803149606
        },
        {
          "duration": 0.066666749999996,
          "durationTicks": 24,
          "midi": 80,
          "name": "G#5",
          "ticks": 49776,
          "time": 138.2668395,
          "velocity": 0.7401574803149606
        },
        {
          "duration": 0.066666749999996,
          "durationTicks": 24,
          "midi": 83,
          "name": "B5",
          "ticks": 49776,
          "time": 138.2668395,
          "velocity": 0.7401574803149606
        },
        {
          "duration": 0.066666749999996,
          "durationTicks": 24,
          "midi": 81,
          "name": "A5",
          "ticks": 49800,
          "time": 138.33350625,
          "velocity": 0.7401574803149606
        },
        {
          "duration": 0.066666749999996,
          "durationTicks": 24,
          "midi": 84,
          "name": "C6",
          "ticks": 49800,
          "time": 138.33350625,
          "velocity": 0.7401574803149606
        },
        {
          "duration": 0.13333350000002042,
          "durationTicks": 48,
          "midi": 90,
          "name": "F#6",
          "ticks": 49920,
          "time": 138.66683999999998,
          "velocity": 0.7401574803149606
        },
        {
          "duration": 0.13333350000002042,
          "durationTicks": 48,
          "midi": 85,
          "name": "C#6",
          "ticks": 49920,
          "time": 138.66683999999998,
          "velocity": 0.7401574803149606
        },
        {
          "duration": 0.066666749999996,
          "durationTicks": 24,
          "midi": 78,
          "name": "F#5",
          "ticks": 49968,
          "time": 138.8001735,
          "velocity": 0.7401574803149606
        },
        {
          "duration": 0.133333499999992,
          "durationTicks": 48,
          "midi": 81,
          "name": "A5",
          "ticks": 49992,
          "time": 138.86684025,
          "velocity": 0.7401574803149606
        },
        {
          "duration": 0.133333499999992,
          "durationTicks": 48,
          "midi": 88,
          "name": "E6",
          "ticks": 49992,
          "time": 138.86684025,
          "velocity": 0.7401574803149606
        },
        {
          "duration": 0.066666749999996,
          "durationTicks": 24,
          "midi": 84,
          "name": "C6",
          "ticks": 50040,
          "time": 139.00017375,
          "velocity": 0.7401574803149606
        },
        {
          "duration": 0.066666749999996,
          "durationTicks": 24,
          "midi": 83,
          "name": "B5",
          "ticks": 50064,
          "time": 139.06684049999998,
          "velocity": 0.7401574803149606
        },
        {
          "duration": 0.06666675000002442,
          "durationTicks": 24,
          "midi": 81,
          "name": "A5",
          "ticks": 50088,
          "time": 139.13350724999998,
          "velocity": 0.7401574803149606
        },
        {
          "duration": 0.133333499999992,
          "durationTicks": 48,
          "midi": 83,
          "name": "B5",
          "ticks": 50112,
          "time": 139.200174,
          "velocity": 0.7401574803149606
        },
        {
          "duration": 0.133333499999992,
          "durationTicks": 48,
          "midi": 77,
          "name": "F5",
          "ticks": 50112,
          "time": 139.200174,
          "velocity": 0.7401574803149606
        },
        {
          "duration": 0.066666749999996,
          "durationTicks": 24,
          "midi": 78,
          "name": "F#5",
          "ticks": 50160,
          "time": 139.3335075,
          "velocity": 0.7401574803149606
        },
        {
          "duration": 0.066666749999996,
          "durationTicks": 24,
          "midi": 84,
          "name": "C6",
          "ticks": 50160,
          "time": 139.3335075,
          "velocity": 0.7401574803149606
        },
        {
          "duration": 0.133333499999992,
          "durationTicks": 48,
          "midi": 85,
          "name": "C#6",
          "ticks": 50184,
          "time": 139.40017425,
          "velocity": 0.7401574803149606
        },
        {
          "duration": 0.133333499999992,
          "durationTicks": 48,
          "midi": 80,
          "name": "G#5",
          "ticks": 50184,
          "time": 139.40017425,
          "velocity": 0.7401574803149606
        },
        {
          "duration": 0.066666749999996,
          "durationTicks": 24,
          "midi": 73,
          "name": "C#5",
          "ticks": 50232,
          "time": 139.53350774999998,
          "velocity": 0.7401574803149606
        },
        {
          "duration": 0.13333350000002042,
          "durationTicks": 48,
          "midi": 92,
          "name": "G#6",
          "ticks": 50256,
          "time": 139.60017449999998,
          "velocity": 0.7401574803149606
        },
        {
          "duration": 0.13333350000002042,
          "durationTicks": 48,
          "midi": 89,
          "name": "F6",
          "ticks": 50256,
          "time": 139.60017449999998,
          "velocity": 0.7401574803149606
        },
        {
          "duration": 0.133333499999992,
          "durationTicks": 48,
          "midi": 90,
          "name": "F#6",
          "ticks": 50304,
          "time": 139.733508,
          "velocity": 0.7401574803149606
        },
        {
          "duration": 0.133333499999992,
          "durationTicks": 48,
          "midi": 93,
          "name": "A6",
          "ticks": 50304,
          "time": 139.733508,
          "velocity": 0.7401574803149606
        },
        {
          "duration": 0.066666749999996,
          "durationTicks": 24,
          "midi": 95,
          "name": "B6",
          "ticks": 50352,
          "time": 139.8668415,
          "velocity": 0.7401574803149606
        },
        {
          "duration": 0.066666749999996,
          "durationTicks": 24,
          "midi": 93,
          "name": "A6",
          "ticks": 50376,
          "time": 139.93350825,
          "velocity": 0.7401574803149606
        },
        {
          "duration": 0.066666749999996,
          "durationTicks": 24,
          "midi": 92,
          "name": "G#6",
          "ticks": 50400,
          "time": 140.00017499999998,
          "velocity": 0.7401574803149606
        },
        {
          "duration": 0.06666675000002442,
          "durationTicks": 24,
          "midi": 93,
          "name": "A6",
          "ticks": 50424,
          "time": 140.06684174999998,
          "velocity": 0.7401574803149606
        },
        {
          "duration": 0.066666749999996,
          "durationTicks": 24,
          "midi": 90,
          "name": "F#6",
          "ticks": 50448,
          "time": 140.1335085,
          "velocity": 0.7401574803149606
        },
        {
          "duration": 0.066666749999996,
          "durationTicks": 24,
          "midi": 85,
          "name": "C#6",
          "ticks": 50472,
          "time": 140.20017525,
          "velocity": 0.7401574803149606
        },
        {
          "duration": 0.066666749999996,
          "durationTicks": 24,
          "midi": 83,
          "name": "B5",
          "ticks": 50496,
          "time": 140.266842,
          "velocity": 0.7401574803149606
        },
        {
          "duration": 0.066666749999996,
          "durationTicks": 24,
          "midi": 78,
          "name": "F#5",
          "ticks": 50520,
          "time": 140.33350875,
          "velocity": 0.7401574803149606
        },
        {
          "duration": 0.066666749999996,
          "durationTicks": 24,
          "midi": 83,
          "name": "B5",
          "ticks": 50544,
          "time": 140.4001755,
          "velocity": 0.7401574803149606
        },
        {
          "duration": 0.13333350000002042,
          "durationTicks": 48,
          "midi": 82,
          "name": "A#5",
          "ticks": 50568,
          "time": 140.46684224999998,
          "velocity": 0.7401574803149606
        },
        {
          "duration": 0.13333350000002042,
          "durationTicks": 48,
          "midi": 76,
          "name": "E5",
          "ticks": 50568,
          "time": 140.46684224999998,
          "velocity": 0.7401574803149606
        },
        {
          "duration": 0.066666749999996,
          "durationTicks": 24,
          "midi": 85,
          "name": "C#6",
          "ticks": 50616,
          "time": 140.60017575,
          "velocity": 0.7401574803149606
        },
        {
          "duration": 0.066666749999996,
          "durationTicks": 24,
          "midi": 78,
          "name": "F#5",
          "ticks": 50616,
          "time": 140.60017575,
          "velocity": 0.7401574803149606
        },
        {
          "duration": 0.133333499999992,
          "durationTicks": 48,
          "midi": 85,
          "name": "C#6",
          "ticks": 50640,
          "time": 140.6668425,
          "velocity": 0.7401574803149606
        },
        {
          "duration": 0.133333499999992,
          "durationTicks": 48,
          "midi": 90,
          "name": "F#6",
          "ticks": 50640,
          "time": 140.6668425,
          "velocity": 0.7401574803149606
        },
        {
          "duration": 0.10000012500000821,
          "durationTicks": 36,
          "midi": 86,
          "name": "D6",
          "ticks": 50688,
          "time": 140.800176,
          "velocity": 0.7401574803149606
        },
        {
          "duration": 0.10000012500000821,
          "durationTicks": 36,
          "midi": 90,
          "name": "F#6",
          "ticks": 50688,
          "time": 140.800176,
          "velocity": 0.7401574803149606
        },
        {
          "duration": 0.10000012500000821,
          "durationTicks": 36,
          "midi": 90,
          "name": "F#6",
          "ticks": 50736,
          "time": 140.93350949999999,
          "velocity": 0.7401574803149606
        },
        {
          "duration": 0.10000012500000821,
          "durationTicks": 36,
          "midi": 86,
          "name": "D6",
          "ticks": 50736,
          "time": 140.93350949999999,
          "velocity": 0.7401574803149606
        },
        {
          "duration": 0.10000012500000821,
          "durationTicks": 36,
          "midi": 85,
          "name": "C#6",
          "ticks": 50880,
          "time": 141.33351,
          "velocity": 0.7401574803149606
        },
        {
          "duration": 0.10000012500000821,
          "durationTicks": 36,
          "midi": 89,
          "name": "F6",
          "ticks": 50880,
          "time": 141.33351,
          "velocity": 0.7401574803149606
        },
        {
          "duration": 0.10000012500000821,
          "durationTicks": 36,
          "midi": 89,
          "name": "F6",
          "ticks": 50928,
          "time": 141.46684349999998,
          "velocity": 0.7401574803149606
        },
        {
          "duration": 0.10000012500000821,
          "durationTicks": 36,
          "midi": 85,
          "name": "C#6",
          "ticks": 50928,
          "time": 141.46684349999998,
          "velocity": 0.7401574803149606
        },
        {
          "duration": 0.133333499999992,
          "durationTicks": 48,
          "midi": 80,
          "name": "G#5",
          "ticks": 51024,
          "time": 141.7335105,
          "velocity": 0.7401574803149606
        },
        {
          "duration": 0.13333350000002042,
          "durationTicks": 48,
          "midi": 78,
          "name": "F#5",
          "ticks": 51072,
          "time": 141.866844,
          "velocity": 0.7401574803149606
        },
        {
          "duration": 0.13333350000002042,
          "durationTicks": 48,
          "midi": 85,
          "name": "C#6",
          "ticks": 51072,
          "time": 141.866844,
          "velocity": 0.7401574803149606
        },
        {
          "duration": 0.133333499999992,
          "durationTicks": 48,
          "midi": 77,
          "name": "F5",
          "ticks": 51168,
          "time": 142.133511,
          "velocity": 0.7401574803149606
        },
        {
          "duration": 0.133333499999992,
          "durationTicks": 48,
          "midi": 83,
          "name": "B5",
          "ticks": 51168,
          "time": 142.133511,
          "velocity": 0.7401574803149606
        },
        {
          "duration": 0.2666670000000124,
          "durationTicks": 96,
          "midi": 78,
          "name": "F#5",
          "ticks": 51264,
          "time": 142.40017799999998,
          "velocity": 0.7401574803149606
        },
        {
          "duration": 0.2666670000000124,
          "durationTicks": 96,
          "midi": 81,
          "name": "A5",
          "ticks": 51264,
          "time": 142.40017799999998,
          "velocity": 0.7401574803149606
        },
        {
          "duration": 0.2666670000000124,
          "durationTicks": 96,
          "midi": 85,
          "name": "C#6",
          "ticks": 51360,
          "time": 142.666845,
          "velocity": 0.7401574803149606
        },
        {
          "duration": 0.2666670000000124,
          "durationTicks": 96,
          "midi": 78,
          "name": "F#5",
          "ticks": 51360,
          "time": 142.666845,
          "velocity": 0.7401574803149606
        },
        {
          "duration": 0.066666749999996,
          "durationTicks": 24,
          "midi": 86,
          "name": "D6",
          "ticks": 51456,
          "time": 142.933512,
          "velocity": 0.7401574803149606
        },
        {
          "duration": 0.066666749999996,
          "durationTicks": 24,
          "midi": 90,
          "name": "F#6",
          "ticks": 51456,
          "time": 142.933512,
          "velocity": 0.7401574803149606
        },
        {
          "duration": 0.066666749999996,
          "durationTicks": 24,
          "midi": 86,
          "name": "D6",
          "ticks": 51504,
          "time": 143.0668455,
          "velocity": 0.7401574803149606
        },
        {
          "duration": 0.066666749999996,
          "durationTicks": 24,
          "midi": 90,
          "name": "F#6",
          "ticks": 51504,
          "time": 143.0668455,
          "velocity": 0.7401574803149606
        },
        {
          "duration": 0.066666749999996,
          "durationTicks": 24,
          "midi": 85,
          "name": "C#6",
          "ticks": 51600,
          "time": 143.33351249999998,
          "velocity": 0.7401574803149606
        },
        {
          "duration": 0.066666749999996,
          "durationTicks": 24,
          "midi": 89,
          "name": "F6",
          "ticks": 51648,
          "time": 143.466846,
          "velocity": 0.7401574803149606
        },
        {
          "duration": 0.066666749999996,
          "durationTicks": 24,
          "midi": 85,
          "name": "C#6",
          "ticks": 51648,
          "time": 143.466846,
          "velocity": 0.7401574803149606
        },
        {
          "duration": 0.066666749999996,
          "durationTicks": 24,
          "midi": 85,
          "name": "C#6",
          "ticks": 51696,
          "time": 143.6001795,
          "velocity": 0.7401574803149606
        },
        {
          "duration": 0.066666749999996,
          "durationTicks": 24,
          "midi": 89,
          "name": "F6",
          "ticks": 51696,
          "time": 143.6001795,
          "velocity": 0.7401574803149606
        },
        {
          "duration": 0.13333350000002042,
          "durationTicks": 48,
          "midi": 80,
          "name": "G#5",
          "ticks": 51792,
          "time": 143.86684649999998,
          "velocity": 0.7401574803149606
        },
        {
          "duration": 0.133333499999992,
          "durationTicks": 48,
          "midi": 85,
          "name": "C#6",
          "ticks": 51840,
          "time": 144.00018,
          "velocity": 0.7401574803149606
        },
        {
          "duration": 0.133333499999992,
          "durationTicks": 48,
          "midi": 78,
          "name": "F#5",
          "ticks": 51840,
          "time": 144.00018,
          "velocity": 0.7401574803149606
        },
        {
          "duration": 0.13333350000002042,
          "durationTicks": 48,
          "midi": 83,
          "name": "B5",
          "ticks": 51936,
          "time": 144.26684699999998,
          "velocity": 0.7401574803149606
        },
        {
          "duration": 0.13333350000002042,
          "durationTicks": 48,
          "midi": 77,
          "name": "F5",
          "ticks": 51936,
          "time": 144.26684699999998,
          "velocity": 0.7401574803149606
        },
        {
          "duration": 0.266666999999984,
          "durationTicks": 96,
          "midi": 81,
          "name": "A5",
          "ticks": 52032,
          "time": 144.533514,
          "velocity": 0.7401574803149606
        },
        {
          "duration": 0.266666999999984,
          "durationTicks": 96,
          "midi": 78,
          "name": "F#5",
          "ticks": 52032,
          "time": 144.533514,
          "velocity": 0.7401574803149606
        },
        {
          "duration": 0.13055571875000282,
          "durationTicks": 47,
          "midi": 65,
          "name": "F4",
          "ticks": 52224,
          "time": 145.066848,
          "velocity": 0.7322834645669292
        },
        {
          "duration": 0.13055571875003125,
          "durationTicks": 47,
          "midi": 61,
          "name": "C#4",
          "ticks": 52272,
          "time": 145.20018149999999,
          "velocity": 0.7322834645669292
        },
        {
          "duration": 0.06388896875000682,
          "durationTicks": 23,
          "midi": 64,
          "name": "E4",
          "ticks": 52320,
          "time": 145.333515,
          "velocity": 0.7322834645669292
        },
        {
          "duration": 0.06388896875000682,
          "durationTicks": 23,
          "midi": 65,
          "name": "F4",
          "ticks": 52344,
          "time": 145.40018175,
          "velocity": 0.7322834645669292
        },
        {
          "duration": 0.06388896875000682,
          "durationTicks": 23,
          "midi": 66,
          "name": "F#4",
          "ticks": 52368,
          "time": 145.4668485,
          "velocity": 0.7322834645669292
        },
        {
          "duration": 0.06388896875000682,
          "durationTicks": 23,
          "midi": 68,
          "name": "G#4",
          "ticks": 52392,
          "time": 145.53351525,
          "velocity": 0.7322834645669292
        },
        {
          "duration": 0.13055571875000282,
          "durationTicks": 47,
          "midi": 64,
          "name": "E4",
          "ticks": 52416,
          "time": 145.600182,
          "velocity": 0.7322834645669292
        },
        {
          "duration": 0.13055571875000282,
          "durationTicks": 47,
          "midi": 69,
          "name": "A4",
          "ticks": 52416,
          "time": 145.600182,
          "velocity": 0.7322834645669292
        },
        {
          "duration": 0.13055571875003125,
          "durationTicks": 47,
          "midi": 71,
          "name": "B4",
          "ticks": 52464,
          "time": 145.73351549999998,
          "velocity": 0.7322834645669292
        },
        {
          "duration": 0.13055571875000282,
          "durationTicks": 47,
          "midi": 62,
          "name": "D4",
          "ticks": 52488,
          "time": 145.80018225,
          "velocity": 0.7322834645669292
        },
        {
          "duration": 0.13055571875000282,
          "durationTicks": 47,
          "midi": 72,
          "name": "C5",
          "ticks": 52512,
          "time": 145.866849,
          "velocity": 0.7322834645669292
        },
        {
          "duration": 0.26388921875002325,
          "durationTicks": 95,
          "midi": 76,
          "name": "E5",
          "ticks": 52560,
          "time": 146.0001825,
          "velocity": 0.7322834645669292
        },
        {
          "duration": 0.26388921875002325,
          "durationTicks": 95,
          "midi": 65,
          "name": "F4",
          "ticks": 52560,
          "time": 146.0001825,
          "velocity": 0.7322834645669292
        },
        {
          "duration": 0.26388921875002325,
          "durationTicks": 95,
          "midi": 71,
          "name": "B4",
          "ticks": 52560,
          "time": 146.0001825,
          "velocity": 0.7322834645669292
        },
        {
          "duration": 0.13055571875000282,
          "durationTicks": 47,
          "midi": 61,
          "name": "C#4",
          "ticks": 52656,
          "time": 146.2668495,
          "velocity": 0.7322834645669292
        },
        {
          "duration": 0.13055571875000282,
          "durationTicks": 47,
          "midi": 69,
          "name": "A4",
          "ticks": 52704,
          "time": 146.400183,
          "velocity": 0.7322834645669292
        },
        {
          "duration": 0.13055571875000282,
          "durationTicks": 47,
          "midi": 65,
          "name": "F4",
          "ticks": 52752,
          "time": 146.5335165,
          "velocity": 0.7322834645669292
        },
        {
          "duration": 0.06388896875000682,
          "durationTicks": 23,
          "midi": 59,
          "name": "B3",
          "ticks": 52800,
          "time": 146.66684999999998,
          "velocity": 0.7322834645669292
        },
        {
          "duration": 0.06388896875000682,
          "durationTicks": 23,
          "midi": 60,
          "name": "C4",
          "ticks": 52824,
          "time": 146.73351675,
          "velocity": 0.7322834645669292
        },
        {
          "duration": 0.13055571875000282,
          "durationTicks": 47,
          "midi": 61,
          "name": "C#4",
          "ticks": 52848,
          "time": 146.8001835,
          "velocity": 0.7322834645669292
        },
        {
          "duration": 0.13055571875000282,
          "durationTicks": 47,
          "midi": 62,
          "name": "D4",
          "ticks": 52896,
          "time": 146.933517,
          "velocity": 0.7322834645669292
        },
        {
          "duration": 0.13055571875000282,
          "durationTicks": 47,
          "midi": 61,
          "name": "C#4",
          "ticks": 52944,
          "time": 147.0668505,
          "velocity": 0.7322834645669292
        },
        {
          "duration": 0.13055571875000282,
          "durationTicks": 47,
          "midi": 68,
          "name": "G#4",
          "ticks": 53040,
          "time": 147.3335175,
          "velocity": 0.7322834645669292
        },
        {
          "duration": 0.13055571875000282,
          "durationTicks": 47,
          "midi": 64,
          "name": "E4",
          "ticks": 53040,
          "time": 147.3335175,
          "velocity": 0.7322834645669292
        },
        {
          "duration": 0.13055571875003125,
          "durationTicks": 47,
          "midi": 69,
          "name": "A4",
          "ticks": 53136,
          "time": 147.60018449999998,
          "velocity": 0.7322834645669292
        },
        {
          "duration": 0.13055571875003125,
          "durationTicks": 47,
          "midi": 64,
          "name": "E4",
          "ticks": 53136,
          "time": 147.60018449999998,
          "velocity": 0.7322834645669292
        },
        {
          "duration": 0.06388896875000682,
          "durationTicks": 23,
          "midi": 71,
          "name": "B4",
          "ticks": 53184,
          "time": 147.733518,
          "velocity": 0.7322834645669292
        },
        {
          "duration": 0.06388896875000682,
          "durationTicks": 23,
          "midi": 73,
          "name": "C#5",
          "ticks": 53208,
          "time": 147.80018475,
          "velocity": 0.7322834645669292
        },
        {
          "duration": 0.13055571875000282,
          "durationTicks": 47,
          "midi": 76,
          "name": "E5",
          "ticks": 53232,
          "time": 147.8668515,
          "velocity": 0.7322834645669292
        },
        {
          "duration": 0.06388896875000682,
          "durationTicks": 23,
          "midi": 80,
          "name": "G#5",
          "ticks": 53280,
          "time": 148.000185,
          "velocity": 0.7322834645669292
        },
        {
          "duration": 0.06388896875000682,
          "durationTicks": 23,
          "midi": 81,
          "name": "A5",
          "ticks": 53304,
          "time": 148.06685174999998,
          "velocity": 0.7322834645669292
        },
        {
          "duration": 0.26388921875002325,
          "durationTicks": 95,
          "midi": 71,
          "name": "B4",
          "ticks": 53328,
          "time": 148.13351849999998,
          "velocity": 0.7322834645669292
        },
        {
          "duration": 0.26388921875002325,
          "durationTicks": 95,
          "midi": 76,
          "name": "E5",
          "ticks": 53328,
          "time": 148.13351849999998,
          "velocity": 0.7322834645669292
        },
        {
          "duration": 0.26388921875002325,
          "durationTicks": 95,
          "midi": 80,
          "name": "G#5",
          "ticks": 53328,
          "time": 148.13351849999998,
          "velocity": 0.7322834645669292
        },
        {
          "duration": 0.06388896875000682,
          "durationTicks": 23,
          "midi": 77,
          "name": "F5",
          "ticks": 53424,
          "time": 148.4001855,
          "velocity": 0.7322834645669292
        },
        {
          "duration": 0.06388896875000682,
          "durationTicks": 23,
          "midi": 76,
          "name": "E5",
          "ticks": 53448,
          "time": 148.46685225,
          "velocity": 0.7322834645669292
        },
        {
          "duration": 0.06388896875000682,
          "durationTicks": 23,
          "midi": 73,
          "name": "C#5",
          "ticks": 53472,
          "time": 148.53351899999998,
          "velocity": 0.7322834645669292
        },
        {
          "duration": 0.06388896875003525,
          "durationTicks": 23,
          "midi": 72,
          "name": "C5",
          "ticks": 53496,
          "time": 148.60018574999998,
          "velocity": 0.7322834645669292
        },
        {
          "duration": 0.13055571875000282,
          "durationTicks": 47,
          "midi": 65,
          "name": "F4",
          "ticks": 53520,
          "time": 148.6668525,
          "velocity": 0.7322834645669292
        },
        {
          "duration": 0.13055571875000282,
          "durationTicks": 47,
          "midi": 69,
          "name": "A4",
          "ticks": 53520,
          "time": 148.6668525,
          "velocity": 0.7322834645669292
        },
        {
          "duration": 0.13055571875000282,
          "durationTicks": 47,
          "midi": 61,
          "name": "C#4",
          "ticks": 53568,
          "time": 148.800186,
          "velocity": 0.7322834645669292
        },
        {
          "duration": 0.13055571875000282,
          "durationTicks": 47,
          "midi": 60,
          "name": "C4",
          "ticks": 53616,
          "time": 148.9335195,
          "velocity": 0.7322834645669292
        },
        {
          "duration": 0.13055571875003125,
          "durationTicks": 47,
          "midi": 59,
          "name": "B3",
          "ticks": 53664,
          "time": 149.06685299999998,
          "velocity": 0.7322834645669292
        },
        {
          "duration": 0.06388896875000682,
          "durationTicks": 23,
          "midi": 52,
          "name": "E3",
          "ticks": 53712,
          "time": 149.2001865,
          "velocity": 0.7322834645669292
        },
        {
          "duration": 0.06388896875000682,
          "durationTicks": 23,
          "midi": 53,
          "name": "F3",
          "ticks": 53736,
          "time": 149.26685325,
          "velocity": 0.7322834645669292
        },
        {
          "duration": 0.13055571875000282,
          "durationTicks": 47,
          "midi": 54,
          "name": "F#3",
          "ticks": 53760,
          "time": 149.33352,
          "velocity": 0.7322834645669292
        },
        {
          "duration": 0.13055571875003125,
          "durationTicks": 47,
          "midi": 61,
          "name": "C#4",
          "ticks": 53808,
          "time": 149.46685349999998,
          "velocity": 0.7322834645669292
        },
        {
          "duration": 0.06388896875000682,
          "durationTicks": 23,
          "midi": 64,
          "name": "E4",
          "ticks": 53856,
          "time": 149.600187,
          "velocity": 0.7322834645669292
        },
        {
          "duration": 0.06388896875000682,
          "durationTicks": 23,
          "midi": 65,
          "name": "F4",
          "ticks": 53880,
          "time": 149.66685375,
          "velocity": 0.7322834645669292
        },
        {
          "duration": 0.06388896875000682,
          "durationTicks": 23,
          "midi": 66,
          "name": "F#4",
          "ticks": 53904,
          "time": 149.7335205,
          "velocity": 0.7322834645669292
        },
        {
          "duration": 0.06388896875000682,
          "durationTicks": 23,
          "midi": 68,
          "name": "G#4",
          "ticks": 53928,
          "time": 149.80018725,
          "velocity": 0.7322834645669292
        },
        {
          "duration": 0.13055571875000282,
          "durationTicks": 47,
          "midi": 69,
          "name": "A4",
          "ticks": 53952,
          "time": 149.866854,
          "velocity": 0.7322834645669292
        },
        {
          "duration": 0.13055571875000282,
          "durationTicks": 47,
          "midi": 64,
          "name": "E4",
          "ticks": 53952,
          "time": 149.866854,
          "velocity": 0.7322834645669292
        },
        {
          "duration": 0.13055571875003125,
          "durationTicks": 47,
          "midi": 71,
          "name": "B4",
          "ticks": 54000,
          "time": 150.00018749999998,
          "velocity": 0.7322834645669292
        },
        {
          "duration": 0.13055571875000282,
          "durationTicks": 47,
          "midi": 62,
          "name": "D4",
          "ticks": 54024,
          "time": 150.06685425,
          "velocity": 0.7322834645669292
        },
        {
          "duration": 0.13055571875000282,
          "durationTicks": 47,
          "midi": 72,
          "name": "C5",
          "ticks": 54048,
          "time": 150.133521,
          "velocity": 0.7322834645669292
        },
        {
          "duration": 0.26388921875002325,
          "durationTicks": 95,
          "midi": 64,
          "name": "E4",
          "ticks": 54096,
          "time": 150.2668545,
          "velocity": 0.7322834645669292
        },
        {
          "duration": 0.26388921875002325,
          "durationTicks": 95,
          "midi": 71,
          "name": "B4",
          "ticks": 54096,
          "time": 150.2668545,
          "velocity": 0.7322834645669292
        },
        {
          "duration": 0.06388896875000682,
          "durationTicks": 23,
          "midi": 70,
          "name": "A#4",
          "ticks": 54192,
          "time": 150.5335215,
          "velocity": 0.7322834645669292
        },
        {
          "duration": 0.06388896875000682,
          "durationTicks": 23,
          "midi": 71,
          "name": "B4",
          "ticks": 54216,
          "time": 150.60018825,
          "velocity": 0.7322834645669292
        },
        {
          "duration": 0.06388896875000682,
          "durationTicks": 23,
          "midi": 70,
          "name": "A#4",
          "ticks": 54240,
          "time": 150.666855,
          "velocity": 0.7322834645669292
        },
        {
          "duration": 0.06388896875000682,
          "durationTicks": 23,
          "midi": 69,
          "name": "A4",
          "ticks": 54264,
          "time": 150.73352175,
          "velocity": 0.7322834645669292
        },
        {
          "duration": 0.06388896875000682,
          "durationTicks": 23,
          "midi": 68,
          "name": "G#4",
          "ticks": 54288,
          "time": 150.8001885,
          "velocity": 0.7322834645669292
        },
        {
          "duration": 0.06388896875000682,
          "durationTicks": 23,
          "midi": 66,
          "name": "F#4",
          "ticks": 54312,
          "time": 150.86685525,
          "velocity": 0.7322834645669292
        },
        {
          "duration": 0.13055571875003125,
          "durationTicks": 47,
          "midi": 65,
          "name": "F4",
          "ticks": 54336,
          "time": 150.93352199999998,
          "velocity": 0.7322834645669292
        },
        {
          "duration": 0.13055571875000282,
          "durationTicks": 47,
          "midi": 60,
          "name": "C4",
          "ticks": 54384,
          "time": 151.0668555,
          "velocity": 0.7322834645669292
        },
        {
          "duration": 0.13055571875000282,
          "durationTicks": 47,
          "midi": 59,
          "name": "B3",
          "ticks": 54432,
          "time": 151.200189,
          "velocity": 0.7322834645669292
        },
        {
          "duration": 0.13055571875000282,
          "durationTicks": 47,
          "midi": 47,
          "name": "B2",
          "ticks": 54480,
          "time": 151.3335225,
          "velocity": 0.7322834645669292
        },
        {
          "duration": 0.26388921875002325,
          "durationTicks": 95,
          "midi": 69,
          "name": "A4",
          "ticks": 54624,
          "time": 151.733523,
          "velocity": 0.7401574803149606
        },
        {
          "duration": 0.26388921875002325,
          "durationTicks": 95,
          "midi": 64,
          "name": "E4",
          "ticks": 54624,
          "time": 151.733523,
          "velocity": 0.7401574803149606
        },
        {
          "duration": 0.26388921875002325,
          "durationTicks": 95,
          "midi": 59,
          "name": "B3",
          "ticks": 54624,
          "time": 151.733523,
          "velocity": 0.7401574803149606
        },
        {
          "duration": 0.26388921875002325,
          "durationTicks": 95,
          "midi": 56,
          "name": "G#3",
          "ticks": 54816,
          "time": 152.266857,
          "velocity": 0.7401574803149606
        },
        {
          "duration": 0.26388921875002325,
          "durationTicks": 95,
          "midi": 61,
          "name": "C#4",
          "ticks": 54816,
          "time": 152.266857,
          "velocity": 0.7401574803149606
        },
        {
          "duration": 0.26388921875002325,
          "durationTicks": 95,
          "midi": 64,
          "name": "E4",
          "ticks": 54816,
          "time": 152.266857,
          "velocity": 0.7401574803149606
        },
        {
          "duration": 0.26388921875002325,
          "durationTicks": 95,
          "midi": 69,
          "name": "A4",
          "ticks": 55008,
          "time": 152.80019099999998,
          "velocity": 0.8188976377952756
        },
        {
          "duration": 0.26388921875002325,
          "durationTicks": 95,
          "midi": 61,
          "name": "C#4",
          "ticks": 55008,
          "time": 152.80019099999998,
          "velocity": 0.8188976377952756
        },
        {
          "duration": 0.26388921875002325,
          "durationTicks": 95,
          "midi": 66,
          "name": "F#4",
          "ticks": 55008,
          "time": 152.80019099999998,
          "velocity": 0.8188976377952756
        },
        {
          "duration": 0.2638892187499948,
          "durationTicks": 95,
          "midi": 69,
          "name": "A4",
          "ticks": 55392,
          "time": 153.866859,
          "velocity": 0.7401574803149606
        },
        {
          "duration": 0.2638892187499948,
          "durationTicks": 95,
          "midi": 64,
          "name": "E4",
          "ticks": 55392,
          "time": 153.866859,
          "velocity": 0.7401574803149606
        },
        {
          "duration": 0.2638892187499948,
          "durationTicks": 95,
          "midi": 59,
          "name": "B3",
          "ticks": 55392,
          "time": 153.866859,
          "velocity": 0.7401574803149606
        },
        {
          "duration": 0.2638892187499948,
          "durationTicks": 95,
          "midi": 56,
          "name": "G#3",
          "ticks": 55584,
          "time": 154.400193,
          "velocity": 0.7401574803149606
        },
        {
          "duration": 0.2638892187499948,
          "durationTicks": 95,
          "midi": 61,
          "name": "C#4",
          "ticks": 55584,
          "time": 154.400193,
          "velocity": 0.7401574803149606
        },
        {
          "duration": 0.2638892187499948,
          "durationTicks": 95,
          "midi": 64,
          "name": "E4",
          "ticks": 55584,
          "time": 154.400193,
          "velocity": 0.7401574803149606
        },
        {
          "duration": 0.2638892187499948,
          "durationTicks": 95,
          "midi": 69,
          "name": "A4",
          "ticks": 55776,
          "time": 154.933527,
          "velocity": 0.8188976377952756
        },
        {
          "duration": 0.2638892187499948,
          "durationTicks": 95,
          "midi": 61,
          "name": "C#4",
          "ticks": 55776,
          "time": 154.933527,
          "velocity": 0.8188976377952756
        },
        {
          "duration": 0.2638892187499948,
          "durationTicks": 95,
          "midi": 66,
          "name": "F#4",
          "ticks": 55776,
          "time": 154.933527,
          "velocity": 0.8188976377952756
        },
        {
          "duration": 0.066666749999996,
          "durationTicks": 24,
          "midi": 88,
          "name": "E6",
          "ticks": 60288,
          "time": 167.46687599999998,
          "velocity": 0.8188976377952756
        },
        {
          "duration": 0.066666749999996,
          "durationTicks": 24,
          "midi": 83,
          "name": "B5",
          "ticks": 60288,
          "time": 167.46687599999998,
          "velocity": 0.8188976377952756
        },
        {
          "duration": 0.06666675000002442,
          "durationTicks": 24,
          "midi": 78,
          "name": "F#5",
          "ticks": 60312,
          "time": 167.53354274999998,
          "velocity": 0.8188976377952756
        },
        {
          "duration": 0.06666675000002442,
          "durationTicks": 24,
          "midi": 83,
          "name": "B5",
          "ticks": 60312,
          "time": 167.53354274999998,
          "velocity": 0.8188976377952756
        },
        {
          "duration": 0.066666749999996,
          "durationTicks": 24,
          "midi": 83,
          "name": "B5",
          "ticks": 60336,
          "time": 167.6002095,
          "velocity": 0.8188976377952756
        },
        {
          "duration": 0.066666749999996,
          "durationTicks": 24,
          "midi": 88,
          "name": "E6",
          "ticks": 60336,
          "time": 167.6002095,
          "velocity": 0.8188976377952756
        },
        {
          "duration": 0.066666749999996,
          "durationTicks": 24,
          "midi": 84,
          "name": "C6",
          "ticks": 60360,
          "time": 167.66687625,
          "velocity": 0.8188976377952756
        },
        {
          "duration": 0.066666749999996,
          "durationTicks": 24,
          "midi": 89,
          "name": "F6",
          "ticks": 60360,
          "time": 167.66687625,
          "velocity": 0.8188976377952756
        },
        {
          "duration": 0.066666749999996,
          "durationTicks": 24,
          "midi": 85,
          "name": "C#6",
          "ticks": 60384,
          "time": 167.733543,
          "velocity": 0.8188976377952756
        },
        {
          "duration": 0.066666749999996,
          "durationTicks": 24,
          "midi": 90,
          "name": "F#6",
          "ticks": 60384,
          "time": 167.733543,
          "velocity": 0.8188976377952756
        },
        {
          "duration": 0.066666749999996,
          "durationTicks": 24,
          "midi": 84,
          "name": "C6",
          "ticks": 60408,
          "time": 167.80020975,
          "velocity": 0.8188976377952756
        },
        {
          "duration": 0.066666749999996,
          "durationTicks": 24,
          "midi": 89,
          "name": "F6",
          "ticks": 60408,
          "time": 167.80020975,
          "velocity": 0.8188976377952756
        },
        {
          "duration": 0.066666749999996,
          "durationTicks": 24,
          "midi": 78,
          "name": "F#5",
          "ticks": 60432,
          "time": 167.8668765,
          "velocity": 0.8188976377952756
        },
        {
          "duration": 0.066666749999996,
          "durationTicks": 24,
          "midi": 73,
          "name": "C#5",
          "ticks": 60432,
          "time": 167.8668765,
          "velocity": 0.8188976377952756
        },
        {
          "duration": 0.066666749999996,
          "durationTicks": 24,
          "midi": 77,
          "name": "F5",
          "ticks": 60456,
          "time": 167.93354324999999,
          "velocity": 0.8188976377952756
        },
        {
          "duration": 0.066666749999996,
          "durationTicks": 24,
          "midi": 72,
          "name": "C5",
          "ticks": 60456,
          "time": 167.93354324999999,
          "velocity": 0.8188976377952756
        },
        {
          "duration": 0.06666675000002442,
          "durationTicks": 24,
          "midi": 86,
          "name": "D6",
          "ticks": 60480,
          "time": 168.00020999999998,
          "velocity": 0.8188976377952756
        },
        {
          "duration": 0.06666675000002442,
          "durationTicks": 24,
          "midi": 91,
          "name": "G6",
          "ticks": 60480,
          "time": 168.00020999999998,
          "velocity": 0.8188976377952756
        },
        {
          "duration": 0.066666749999996,
          "durationTicks": 24,
          "midi": 90,
          "name": "F#6",
          "ticks": 60504,
          "time": 168.06687675,
          "velocity": 0.8188976377952756
        },
        {
          "duration": 0.066666749999996,
          "durationTicks": 24,
          "midi": 85,
          "name": "C#6",
          "ticks": 60504,
          "time": 168.06687675,
          "velocity": 0.8188976377952756
        },
        {
          "duration": 0.066666749999996,
          "durationTicks": 24,
          "midi": 79,
          "name": "G5",
          "ticks": 60528,
          "time": 168.1335435,
          "velocity": 0.8188976377952756
        },
        {
          "duration": 0.066666749999996,
          "durationTicks": 24,
          "midi": 74,
          "name": "D5",
          "ticks": 60528,
          "time": 168.1335435,
          "velocity": 0.8188976377952756
        },
        {
          "duration": 0.066666749999996,
          "durationTicks": 24,
          "midi": 73,
          "name": "C#5",
          "ticks": 60552,
          "time": 168.20021025,
          "velocity": 0.8188976377952756
        },
        {
          "duration": 0.066666749999996,
          "durationTicks": 24,
          "midi": 78,
          "name": "F#5",
          "ticks": 60552,
          "time": 168.20021025,
          "velocity": 0.8188976377952756
        },
        {
          "duration": 0.066666749999996,
          "durationTicks": 24,
          "midi": 86,
          "name": "D6",
          "ticks": 60576,
          "time": 168.266877,
          "velocity": 0.8188976377952756
        },
        {
          "duration": 0.066666749999996,
          "durationTicks": 24,
          "midi": 91,
          "name": "G6",
          "ticks": 60576,
          "time": 168.266877,
          "velocity": 0.8188976377952756
        },
        {
          "duration": 0.066666749999996,
          "durationTicks": 24,
          "midi": 81,
          "name": "A5",
          "ticks": 60600,
          "time": 168.33354375,
          "velocity": 0.8188976377952756
        },
        {
          "duration": 0.066666749999996,
          "durationTicks": 24,
          "midi": 86,
          "name": "D6",
          "ticks": 60600,
          "time": 168.33354375,
          "velocity": 0.8188976377952756
        },
        {
          "duration": 0.066666749999996,
          "durationTicks": 24,
          "midi": 86,
          "name": "D6",
          "ticks": 60624,
          "time": 168.4002105,
          "velocity": 0.8188976377952756
        },
        {
          "duration": 0.066666749999996,
          "durationTicks": 24,
          "midi": 91,
          "name": "G6",
          "ticks": 60624,
          "time": 168.4002105,
          "velocity": 0.8188976377952756
        },
        {
          "duration": 0.06666675000002442,
          "durationTicks": 24,
          "midi": 87,
          "name": "D#6",
          "ticks": 60648,
          "time": 168.46687724999998,
          "velocity": 0.8188976377952756
        },
        {
          "duration": 0.06666675000002442,
          "durationTicks": 24,
          "midi": 92,
          "name": "G#6",
          "ticks": 60648,
          "time": 168.46687724999998,
          "velocity": 0.8188976377952756
        },
        {
          "duration": 0.066666749999996,
          "durationTicks": 24,
          "midi": 88,
          "name": "E6",
          "ticks": 60672,
          "time": 168.533544,
          "velocity": 0.8188976377952756
        },
        {
          "duration": 0.066666749999996,
          "durationTicks": 24,
          "midi": 93,
          "name": "A6",
          "ticks": 60672,
          "time": 168.533544,
          "velocity": 0.8188976377952756
        },
        {
          "duration": 0.066666749999996,
          "durationTicks": 24,
          "midi": 92,
          "name": "G#6",
          "ticks": 60696,
          "time": 168.60021075,
          "velocity": 0.8188976377952756
        },
        {
          "duration": 0.066666749999996,
          "durationTicks": 24,
          "midi": 87,
          "name": "D#6",
          "ticks": 60696,
          "time": 168.60021075,
          "velocity": 0.8188976377952756
        },
        {
          "duration": 0.066666749999996,
          "durationTicks": 24,
          "midi": 76,
          "name": "E5",
          "ticks": 60720,
          "time": 168.6668775,
          "velocity": 0.8188976377952756
        },
        {
          "duration": 0.066666749999996,
          "durationTicks": 24,
          "midi": 81,
          "name": "A5",
          "ticks": 60720,
          "time": 168.6668775,
          "velocity": 0.8188976377952756
        },
        {
          "duration": 0.066666749999996,
          "durationTicks": 24,
          "midi": 75,
          "name": "D#5",
          "ticks": 60744,
          "time": 168.73354425,
          "velocity": 0.8188976377952756
        },
        {
          "duration": 0.066666749999996,
          "durationTicks": 24,
          "midi": 80,
          "name": "G#5",
          "ticks": 60744,
          "time": 168.73354425,
          "velocity": 0.8188976377952756
        },
        {
          "duration": 0.066666749999996,
          "durationTicks": 24,
          "midi": 94,
          "name": "A#6",
          "ticks": 60768,
          "time": 168.800211,
          "velocity": 0.8188976377952756
        },
        {
          "duration": 0.066666749999996,
          "durationTicks": 24,
          "midi": 89,
          "name": "F6",
          "ticks": 60768,
          "time": 168.800211,
          "velocity": 0.8188976377952756
        },
        {
          "duration": 0.066666749999996,
          "durationTicks": 24,
          "midi": 93,
          "name": "A6",
          "ticks": 60792,
          "time": 168.86687775,
          "velocity": 0.8188976377952756
        },
        {
          "duration": 0.066666749999996,
          "durationTicks": 24,
          "midi": 88,
          "name": "E6",
          "ticks": 60792,
          "time": 168.86687775,
          "velocity": 0.8188976377952756
        },
        {
          "duration": 0.066666749999996,
          "durationTicks": 24,
          "midi": 82,
          "name": "A#5",
          "ticks": 60816,
          "time": 168.93354449999998,
          "velocity": 0.8188976377952756
        },
        {
          "duration": 0.066666749999996,
          "durationTicks": 24,
          "midi": 77,
          "name": "F5",
          "ticks": 60816,
          "time": 168.93354449999998,
          "velocity": 0.8188976377952756
        },
        {
          "duration": 0.06666675000002442,
          "durationTicks": 24,
          "midi": 76,
          "name": "E5",
          "ticks": 60840,
          "time": 169.00021124999998,
          "velocity": 0.8188976377952756
        },
        {
          "duration": 0.06666675000002442,
          "durationTicks": 24,
          "midi": 81,
          "name": "A5",
          "ticks": 60840,
          "time": 169.00021124999998,
          "velocity": 0.8188976377952756
        },
        {
          "duration": 0.08888900000002309,
          "durationTicks": 32,
          "midi": 74,
          "name": "D5",
          "ticks": 61632,
          "time": 171.200214,
          "velocity": 0.7401574803149606
        },
        {
          "duration": 0.08888900000002309,
          "durationTicks": 32,
          "midi": 72,
          "name": "C5",
          "ticks": 61632,
          "time": 171.200214,
          "velocity": 0.7401574803149606
        },
        {
          "duration": 0.08888900000002309,
          "durationTicks": 32,
          "midi": 73,
          "name": "C#5",
          "ticks": 61632,
          "time": 171.200214,
          "velocity": 0.7401574803149606
        },
        {
          "duration": 0.08888899999996625,
          "durationTicks": 32,
          "midi": 62,
          "name": "D4",
          "ticks": 61664,
          "time": 171.289103,
          "velocity": 0.7401574803149606
        },
        {
          "duration": 0.08888899999996625,
          "durationTicks": 32,
          "midi": 60,
          "name": "C4",
          "ticks": 61664,
          "time": 171.289103,
          "velocity": 0.7401574803149606
        },
        {
          "duration": 0.08888899999996625,
          "durationTicks": 32,
          "midi": 61,
          "name": "C#4",
          "ticks": 61664,
          "time": 171.289103,
          "velocity": 0.7401574803149606
        },
        {
          "duration": 0.08888900000002309,
          "durationTicks": 32,
          "midi": 72,
          "name": "C5",
          "ticks": 61696,
          "time": 171.37799199999998,
          "velocity": 0.7401574803149606
        },
        {
          "duration": 0.08888900000002309,
          "durationTicks": 32,
          "midi": 70,
          "name": "A#4",
          "ticks": 61696,
          "time": 171.37799199999998,
          "velocity": 0.7401574803149606
        },
        {
          "duration": 0.08888900000002309,
          "durationTicks": 32,
          "midi": 71,
          "name": "B4",
          "ticks": 61696,
          "time": 171.37799199999998,
          "velocity": 0.7401574803149606
        },
        {
          "duration": 0.08888899999999467,
          "durationTicks": 32,
          "midi": 60,
          "name": "C4",
          "ticks": 61728,
          "time": 171.466881,
          "velocity": 0.7401574803149606
        },
        {
          "duration": 0.08888899999999467,
          "durationTicks": 32,
          "midi": 58,
          "name": "A#3",
          "ticks": 61728,
          "time": 171.466881,
          "velocity": 0.7401574803149606
        },
        {
          "duration": 0.08888899999999467,
          "durationTicks": 32,
          "midi": 59,
          "name": "B3",
          "ticks": 61728,
          "time": 171.466881,
          "velocity": 0.7401574803149606
        },
        {
          "duration": 0.08888899999999467,
          "durationTicks": 32,
          "midi": 66,
          "name": "F#4",
          "ticks": 61760,
          "time": 171.55577,
          "velocity": 0.7401574803149606
        },
        {
          "duration": 0.08888899999999467,
          "durationTicks": 32,
          "midi": 65,
          "name": "F4",
          "ticks": 61760,
          "time": 171.55577,
          "velocity": 0.7401574803149606
        },
        {
          "duration": 0.08888899999999467,
          "durationTicks": 32,
          "midi": 67,
          "name": "G4",
          "ticks": 61760,
          "time": 171.55577,
          "velocity": 0.7401574803149606
        },
        {
          "duration": 0.08888899999999467,
          "durationTicks": 32,
          "midi": 55,
          "name": "G3",
          "ticks": 61792,
          "time": 171.644659,
          "velocity": 0.7401574803149606
        },
        {
          "duration": 0.08888899999999467,
          "durationTicks": 32,
          "midi": 53,
          "name": "F3",
          "ticks": 61792,
          "time": 171.644659,
          "velocity": 0.7401574803149606
        },
        {
          "duration": 0.08888899999999467,
          "durationTicks": 32,
          "midi": 54,
          "name": "F#3",
          "ticks": 61792,
          "time": 171.644659,
          "velocity": 0.7401574803149606
        },
        {
          "duration": 0.133333499999992,
          "durationTicks": 48,
          "midi": 82,
          "name": "A#5",
          "ticks": 63168,
          "time": 175.466886,
          "velocity": 0.7401574803149606
        },
        {
          "duration": 0.133333499999992,
          "durationTicks": 48,
          "midi": 87,
          "name": "D#6",
          "ticks": 63168,
          "time": 175.466886,
          "velocity": 0.7401574803149606
        },
        {
          "duration": 0.06666675000002442,
          "durationTicks": 24,
          "midi": 80,
          "name": "G#5",
          "ticks": 63216,
          "time": 175.60021949999998,
          "velocity": 0.7401574803149606
        },
        {
          "duration": 0.06666675000002442,
          "durationTicks": 24,
          "midi": 77,
          "name": "F5",
          "ticks": 63216,
          "time": 175.60021949999998,
          "velocity": 0.7401574803149606
        },
        {
          "duration": 0.066666749999996,
          "durationTicks": 24,
          "midi": 78,
          "name": "F#5",
          "ticks": 63240,
          "time": 175.66688625,
          "velocity": 0.7401574803149606
        },
        {
          "duration": 0.066666749999996,
          "durationTicks": 24,
          "midi": 81,
          "name": "A5",
          "ticks": 63240,
          "time": 175.66688625,
          "velocity": 0.7401574803149606
        },
        {
          "duration": 0.133333499999992,
          "durationTicks": 48,
          "midi": 80,
          "name": "G#5",
          "ticks": 63264,
          "time": 175.733553,
          "velocity": 0.7401574803149606
        },
        {
          "duration": 0.133333499999992,
          "durationTicks": 48,
          "midi": 75,
          "name": "D#5",
          "ticks": 63264,
          "time": 175.733553,
          "velocity": 0.7401574803149606
        },
        {
          "duration": 0.133333499999992,
          "durationTicks": 48,
          "midi": 72,
          "name": "C5",
          "ticks": 63312,
          "time": 175.8668865,
          "velocity": 0.7401574803149606
        },
        {
          "duration": 0.13333350000002042,
          "durationTicks": 48,
          "midi": 87,
          "name": "D#6",
          "ticks": 63360,
          "time": 176.00021999999998,
          "velocity": 0.7401574803149606
        },
        {
          "duration": 0.13333350000002042,
          "durationTicks": 48,
          "midi": 82,
          "name": "A#5",
          "ticks": 63360,
          "time": 176.00021999999998,
          "velocity": 0.7401574803149606
        },
        {
          "duration": 0.066666749999996,
          "durationTicks": 24,
          "midi": 75,
          "name": "D#5",
          "ticks": 63408,
          "time": 176.1335535,
          "velocity": 0.7401574803149606
        },
        {
          "duration": 0.133333499999992,
          "durationTicks": 48,
          "midi": 85,
          "name": "C#6",
          "ticks": 63432,
          "time": 176.20022025,
          "velocity": 0.7401574803149606
        },
        {
          "duration": 0.133333499999992,
          "durationTicks": 48,
          "midi": 78,
          "name": "F#5",
          "ticks": 63432,
          "time": 176.20022025,
          "velocity": 0.7401574803149606
        },
        {
          "duration": 0.066666749999996,
          "durationTicks": 24,
          "midi": 81,
          "name": "A5",
          "ticks": 63480,
          "time": 176.33355375,
          "velocity": 0.7401574803149606
        },
        {
          "duration": 0.066666749999996,
          "durationTicks": 24,
          "midi": 80,
          "name": "G#5",
          "ticks": 63504,
          "time": 176.4002205,
          "velocity": 0.7401574803149606
        },
        {
          "duration": 0.066666749999996,
          "durationTicks": 24,
          "midi": 78,
          "name": "F#5",
          "ticks": 63528,
          "time": 176.46688724999998,
          "velocity": 0.7401574803149606
        },
        {
          "duration": 0.13333350000002042,
          "durationTicks": 48,
          "midi": 80,
          "name": "G#5",
          "ticks": 63552,
          "time": 176.53355399999998,
          "velocity": 0.7401574803149606
        },
        {
          "duration": 0.13333350000002042,
          "durationTicks": 48,
          "midi": 74,
          "name": "D5",
          "ticks": 63552,
          "time": 176.53355399999998,
          "velocity": 0.7401574803149606
        },
        {
          "duration": 0.066666749999996,
          "durationTicks": 24,
          "midi": 75,
          "name": "D#5",
          "ticks": 63600,
          "time": 176.6668875,
          "velocity": 0.7401574803149606
        },
        {
          "duration": 0.066666749999996,
          "durationTicks": 24,
          "midi": 81,
          "name": "A5",
          "ticks": 63600,
          "time": 176.6668875,
          "velocity": 0.7401574803149606
        },
        {
          "duration": 0.133333499999992,
          "durationTicks": 48,
          "midi": 82,
          "name": "A#5",
          "ticks": 63624,
          "time": 176.73355425,
          "velocity": 0.7401574803149606
        },
        {
          "duration": 0.133333499999992,
          "durationTicks": 48,
          "midi": 77,
          "name": "F5",
          "ticks": 63624,
          "time": 176.73355425,
          "velocity": 0.7401574803149606
        },
        {
          "duration": 0.066666749999996,
          "durationTicks": 24,
          "midi": 70,
          "name": "A#4",
          "ticks": 63672,
          "time": 176.86688775,
          "velocity": 0.7401574803149606
        },
        {
          "duration": 0.13333350000002042,
          "durationTicks": 48,
          "midi": 86,
          "name": "D6",
          "ticks": 63696,
          "time": 176.93355449999999,
          "velocity": 0.7401574803149606
        },
        {
          "duration": 0.13333350000002042,
          "durationTicks": 48,
          "midi": 89,
          "name": "F6",
          "ticks": 63696,
          "time": 176.93355449999999,
          "velocity": 0.7401574803149606
        },
        {
          "duration": 0.133333499999992,
          "durationTicks": 48,
          "midi": 90,
          "name": "F#6",
          "ticks": 63744,
          "time": 177.066888,
          "velocity": 0.7401574803149606
        },
        {
          "duration": 0.133333499999992,
          "durationTicks": 48,
          "midi": 87,
          "name": "D#6",
          "ticks": 63744,
          "time": 177.066888,
          "velocity": 0.7401574803149606
        },
        {
          "duration": 0.066666749999996,
          "durationTicks": 24,
          "midi": 92,
          "name": "G#6",
          "ticks": 63792,
          "time": 177.2002215,
          "velocity": 0.7401574803149606
        },
        {
          "duration": 0.066666749999996,
          "durationTicks": 24,
          "midi": 90,
          "name": "F#6",
          "ticks": 63816,
          "time": 177.26688825,
          "velocity": 0.7401574803149606
        },
        {
          "duration": 0.066666749999996,
          "durationTicks": 24,
          "midi": 89,
          "name": "F6",
          "ticks": 63840,
          "time": 177.333555,
          "velocity": 0.7401574803149606
        },
        {
          "duration": 0.066666749999996,
          "durationTicks": 24,
          "midi": 90,
          "name": "F#6",
          "ticks": 63864,
          "time": 177.40022175,
          "velocity": 0.7401574803149606
        },
        {
          "duration": 0.066666749999996,
          "durationTicks": 24,
          "midi": 87,
          "name": "D#6",
          "ticks": 63888,
          "time": 177.46688849999998,
          "velocity": 0.7401574803149606
        },
        {
          "duration": 0.06666675000002442,
          "durationTicks": 24,
          "midi": 82,
          "name": "A#5",
          "ticks": 63912,
          "time": 177.53355524999998,
          "velocity": 0.7401574803149606
        },
        {
          "duration": 0.066666749999996,
          "durationTicks": 24,
          "midi": 80,
          "name": "G#5",
          "ticks": 63936,
          "time": 177.600222,
          "velocity": 0.7401574803149606
        },
        {
          "duration": 0.066666749999996,
          "durationTicks": 24,
          "midi": 75,
          "name": "D#5",
          "ticks": 63960,
          "time": 177.66688875,
          "velocity": 0.7401574803149606
        },
        {
          "duration": 0.066666749999996,
          "durationTicks": 24,
          "midi": 80,
          "name": "G#5",
          "ticks": 63984,
          "time": 177.7335555,
          "velocity": 0.7401574803149606
        },
        {
          "duration": 0.133333499999992,
          "durationTicks": 48,
          "midi": 73,
          "name": "C#5",
          "ticks": 64008,
          "time": 177.80022225,
          "velocity": 0.7401574803149606
        },
        {
          "duration": 0.133333499999992,
          "durationTicks": 48,
          "midi": 79,
          "name": "G5",
          "ticks": 64008,
          "time": 177.80022225,
          "velocity": 0.7401574803149606
        },
        {
          "duration": 0.066666749999996,
          "durationTicks": 24,
          "midi": 82,
          "name": "A#5",
          "ticks": 64056,
          "time": 177.93355574999998,
          "velocity": 0.7401574803149606
        },
        {
          "duration": 0.066666749999996,
          "durationTicks": 24,
          "midi": 75,
          "name": "D#5",
          "ticks": 64056,
          "time": 177.93355574999998,
          "velocity": 0.7401574803149606
        },
        {
          "duration": 0.13333350000002042,
          "durationTicks": 48,
          "midi": 87,
          "name": "D#6",
          "ticks": 64080,
          "time": 178.00022249999998,
          "velocity": 0.7401574803149606
        },
        {
          "duration": 0.13333350000002042,
          "durationTicks": 48,
          "midi": 82,
          "name": "A#5",
          "ticks": 64080,
          "time": 178.00022249999998,
          "velocity": 0.7401574803149606
        },
        {
          "duration": 0.133333499999992,
          "durationTicks": 48,
          "midi": 83,
          "name": "B5",
          "ticks": 64128,
          "time": 178.133556,
          "velocity": 0.7401574803149606
        },
        {
          "duration": 0.133333499999992,
          "durationTicks": 48,
          "midi": 78,
          "name": "F#5",
          "ticks": 64128,
          "time": 178.133556,
          "velocity": 0.7401574803149606
        },
        {
          "duration": 0.066666749999996,
          "durationTicks": 24,
          "midi": 75,
          "name": "D#5",
          "ticks": 64176,
          "time": 178.2668895,
          "velocity": 0.7401574803149606
        },
        {
          "duration": 0.066666749999996,
          "durationTicks": 24,
          "midi": 78,
          "name": "F#5",
          "ticks": 64200,
          "time": 178.33355625,
          "velocity": 0.7401574803149606
        },
        {
          "duration": 0.066666749999996,
          "durationTicks": 24,
          "midi": 80,
          "name": "G#5",
          "ticks": 64224,
          "time": 178.40022299999998,
          "velocity": 0.7401574803149606
        },
        {
          "duration": 0.06666675000002442,
          "durationTicks": 24,
          "midi": 78,
          "name": "F#5",
          "ticks": 64248,
          "time": 178.46688974999998,
          "velocity": 0.7401574803149606
        },
        {
          "duration": 0.066666749999996,
          "durationTicks": 24,
          "midi": 80,
          "name": "G#5",
          "ticks": 64272,
          "time": 178.5335565,
          "velocity": 0.7401574803149606
        },
        {
          "duration": 0.066666749999996,
          "durationTicks": 24,
          "midi": 85,
          "name": "C#6",
          "ticks": 64296,
          "time": 178.60022325,
          "velocity": 0.7401574803149606
        },
        {
          "duration": 0.133333499999992,
          "durationTicks": 48,
          "midi": 81,
          "name": "A5",
          "ticks": 64320,
          "time": 178.66689,
          "velocity": 0.7401574803149606
        },
        {
          "duration": 0.133333499999992,
          "durationTicks": 48,
          "midi": 84,
          "name": "C6",
          "ticks": 64320,
          "time": 178.66689,
          "velocity": 0.7401574803149606
        },
        {
          "duration": 0.066666749999996,
          "durationTicks": 24,
          "midi": 75,
          "name": "D#5",
          "ticks": 64368,
          "time": 178.8002235,
          "velocity": 0.7401574803149606
        },
        {
          "duration": 0.066666749999996,
          "durationTicks": 24,
          "midi": 77,
          "name": "F5",
          "ticks": 64392,
          "time": 178.86689024999998,
          "velocity": 0.7401574803149606
        },
        {
          "duration": 0.06666675000002442,
          "durationTicks": 24,
          "midi": 81,
          "name": "A5",
          "ticks": 64416,
          "time": 178.93355699999998,
          "velocity": 0.7401574803149606
        },
        {
          "duration": 0.066666749999996,
          "durationTicks": 24,
          "midi": 77,
          "name": "F5",
          "ticks": 64440,
          "time": 179.00022375,
          "velocity": 0.7401574803149606
        },
        {
          "duration": 0.066666749999996,
          "durationTicks": 24,
          "midi": 81,
          "name": "A5",
          "ticks": 64464,
          "time": 179.0668905,
          "velocity": 0.7401574803149606
        },
        {
          "duration": 0.066666749999996,
          "durationTicks": 24,
          "midi": 84,
          "name": "C6",
          "ticks": 64488,
          "time": 179.13355725,
          "velocity": 0.7401574803149606
        },
        {
          "duration": 0.10000012500000821,
          "durationTicks": 36,
          "midi": 82,
          "name": "A#5",
          "ticks": 64512,
          "time": 179.200224,
          "velocity": 0.7480314960629921
        },
        {
          "duration": 0.10000012500000821,
          "durationTicks": 36,
          "midi": 87,
          "name": "D#6",
          "ticks": 64512,
          "time": 179.200224,
          "velocity": 0.7480314960629921
        },
        {
          "duration": 0.10000012499997979,
          "durationTicks": 36,
          "midi": 87,
          "name": "D#6",
          "ticks": 64608,
          "time": 179.466891,
          "velocity": 0.7480314960629921
        },
        {
          "duration": 0.10000012499997979,
          "durationTicks": 36,
          "midi": 82,
          "name": "A#5",
          "ticks": 64608,
          "time": 179.466891,
          "velocity": 0.7480314960629921
        },
        {
          "duration": 0.10000012500000821,
          "durationTicks": 36,
          "midi": 83,
          "name": "B5",
          "ticks": 64704,
          "time": 179.733558,
          "velocity": 0.7480314960629921
        },
        {
          "duration": 0.10000012500000821,
          "durationTicks": 36,
          "midi": 88,
          "name": "E6",
          "ticks": 64704,
          "time": 179.733558,
          "velocity": 0.7480314960629921
        },
        {
          "duration": 0.10000012499997979,
          "durationTicks": 36,
          "midi": 88,
          "name": "E6",
          "ticks": 64800,
          "time": 180.000225,
          "velocity": 0.7480314960629921
        },
        {
          "duration": 0.10000012499997979,
          "durationTicks": 36,
          "midi": 83,
          "name": "B5",
          "ticks": 64800,
          "time": 180.000225,
          "velocity": 0.7480314960629921
        },
        {
          "duration": 0.10000012500000821,
          "durationTicks": 36,
          "midi": 89,
          "name": "F6",
          "ticks": 64896,
          "time": 180.26689199999998,
          "velocity": 0.7480314960629921
        },
        {
          "duration": 0.10000012500000821,
          "durationTicks": 36,
          "midi": 84,
          "name": "C6",
          "ticks": 64896,
          "time": 180.26689199999998,
          "velocity": 0.7480314960629921
        },
        {
          "duration": 0.10000012500000821,
          "durationTicks": 36,
          "midi": 89,
          "name": "F6",
          "ticks": 64992,
          "time": 180.533559,
          "velocity": 0.7480314960629921
        },
        {
          "duration": 0.10000012500000821,
          "durationTicks": 36,
          "midi": 84,
          "name": "C6",
          "ticks": 64992,
          "time": 180.533559,
          "velocity": 0.7480314960629921
        },
        {
          "duration": 0.10000012500000821,
          "durationTicks": 36,
          "midi": 85,
          "name": "C#6",
          "ticks": 65088,
          "time": 180.80022599999998,
          "velocity": 0.7480314960629921
        },
        {
          "duration": 0.10000012500000821,
          "durationTicks": 36,
          "midi": 90,
          "name": "F#6",
          "ticks": 65088,
          "time": 180.80022599999998,
          "velocity": 0.7480314960629921
        },
        {
          "duration": 0.10000012500000821,
          "durationTicks": 36,
          "midi": 90,
          "name": "F#6",
          "ticks": 65184,
          "time": 181.066893,
          "velocity": 0.7480314960629921
        },
        {
          "duration": 0.10000012500000821,
          "durationTicks": 36,
          "midi": 85,
          "name": "C#6",
          "ticks": 65184,
          "time": 181.066893,
          "velocity": 0.7480314960629921
        },
        {
          "duration": 0.10000012499997979,
          "durationTicks": 36,
          "midi": 90,
          "name": "F#6",
          "ticks": 65664,
          "time": 182.400228,
          "velocity": 0.8188976377952756
        },
        {
          "duration": 0.10000012499997979,
          "durationTicks": 36,
          "midi": 85,
          "name": "C#6",
          "ticks": 65664,
          "time": 182.400228,
          "velocity": 0.8188976377952756
        },
        {
          "duration": 0.10000012500000821,
          "durationTicks": 36,
          "midi": 85,
          "name": "C#6",
          "ticks": 65760,
          "time": 182.66689499999998,
          "velocity": 0.8188976377952756
        },
        {
          "duration": 0.10000012500000821,
          "durationTicks": 36,
          "midi": 90,
          "name": "F#6",
          "ticks": 65760,
          "time": 182.66689499999998,
          "velocity": 0.8188976377952756
        },
        {
          "duration": 0.266666999999984,
          "durationTicks": 96,
          "midi": 89,
          "name": "F6",
          "ticks": 65856,
          "time": 182.933562,
          "velocity": 0.8188976377952756
        },
        {
          "duration": 0.266666999999984,
          "durationTicks": 96,
          "midi": 85,
          "name": "C#6",
          "ticks": 65856,
          "time": 182.933562,
          "velocity": 0.8188976377952756
        },
        {
          "duration": 0.133333499999992,
          "durationTicks": 48,
          "midi": 86,
          "name": "D6",
          "ticks": 66048,
          "time": 183.466896,
          "velocity": 0.7401574803149606
        },
        {
          "duration": 0.133333499999992,
          "durationTicks": 48,
          "midi": 91,
          "name": "G6",
          "ticks": 66048,
          "time": 183.466896,
          "velocity": 0.7401574803149606
        },
        {
          "duration": 0.066666749999996,
          "durationTicks": 24,
          "midi": 79,
          "name": "G5",
          "ticks": 66096,
          "time": 183.60022949999998,
          "velocity": 0.7401574803149606
        },
        {
          "duration": 0.13333350000002042,
          "durationTicks": 48,
          "midi": 82,
          "name": "A#5",
          "ticks": 66120,
          "time": 183.66689624999998,
          "velocity": 0.7401574803149606
        },
        {
          "duration": 0.13333350000002042,
          "durationTicks": 48,
          "midi": 89,
          "name": "F6",
          "ticks": 66120,
          "time": 183.66689624999998,
          "velocity": 0.7401574803149606
        },
        {
          "duration": 0.066666749999996,
          "durationTicks": 24,
          "midi": 85,
          "name": "C#6",
          "ticks": 66168,
          "time": 183.80022975,
          "velocity": 0.7401574803149606
        },
        {
          "duration": 0.066666749999996,
          "durationTicks": 24,
          "midi": 84,
          "name": "C6",
          "ticks": 66192,
          "time": 183.8668965,
          "velocity": 0.7401574803149606
        },
        {
          "duration": 0.066666749999996,
          "durationTicks": 24,
          "midi": 82,
          "name": "A#5",
          "ticks": 66216,
          "time": 183.93356325,
          "velocity": 0.7401574803149606
        },
        {
          "duration": 0.133333499999992,
          "durationTicks": 48,
          "midi": 78,
          "name": "F#5",
          "ticks": 66240,
          "time": 184.00023,
          "velocity": 0.7401574803149606
        },
        {
          "duration": 0.133333499999992,
          "durationTicks": 48,
          "midi": 84,
          "name": "C6",
          "ticks": 66240,
          "time": 184.00023,
          "velocity": 0.7401574803149606
        },
        {
          "duration": 0.06666675000002442,
          "durationTicks": 24,
          "midi": 79,
          "name": "G5",
          "ticks": 66288,
          "time": 184.13356349999998,
          "velocity": 0.7401574803149606
        },
        {
          "duration": 0.06666675000002442,
          "durationTicks": 24,
          "midi": 85,
          "name": "C#6",
          "ticks": 66288,
          "time": 184.13356349999998,
          "velocity": 0.7401574803149606
        },
        {
          "duration": 0.133333499999992,
          "durationTicks": 48,
          "midi": 86,
          "name": "D6",
          "ticks": 66312,
          "time": 184.20023025,
          "velocity": 0.7401574803149606
        },
        {
          "duration": 0.133333499999992,
          "durationTicks": 48,
          "midi": 81,
          "name": "A5",
          "ticks": 66312,
          "time": 184.20023025,
          "velocity": 0.7401574803149606
        },
        {
          "duration": 0.066666749999996,
          "durationTicks": 24,
          "midi": 74,
          "name": "D5",
          "ticks": 66360,
          "time": 184.33356375,
          "velocity": 0.7401574803149606
        },
        {
          "duration": 0.133333499999992,
          "durationTicks": 48,
          "midi": 90,
          "name": "F#6",
          "ticks": 66384,
          "time": 184.4002305,
          "velocity": 0.7401574803149606
        },
        {
          "duration": 0.133333499999992,
          "durationTicks": 48,
          "midi": 93,
          "name": "A6",
          "ticks": 66384,
          "time": 184.4002305,
          "velocity": 0.7401574803149606
        },
        {
          "duration": 0.13333350000002042,
          "durationTicks": 48,
          "midi": 91,
          "name": "G6",
          "ticks": 66432,
          "time": 184.53356399999998,
          "velocity": 0.7401574803149606
        },
        {
          "duration": 0.13333350000002042,
          "durationTicks": 48,
          "midi": 94,
          "name": "A#6",
          "ticks": 66432,
          "time": 184.53356399999998,
          "velocity": 0.7401574803149606
        },
        {
          "duration": 0.066666749999996,
          "durationTicks": 24,
          "midi": 79,
          "name": "G5",
          "ticks": 66480,
          "time": 184.6668975,
          "velocity": 0.7401574803149606
        },
        {
          "duration": 0.066666749999996,
          "durationTicks": 24,
          "midi": 84,
          "name": "C6",
          "ticks": 66504,
          "time": 184.73356425,
          "velocity": 0.7401574803149606
        },
        {
          "duration": 0.066666749999996,
          "durationTicks": 24,
          "midi": 86,
          "name": "D6",
          "ticks": 66528,
          "time": 184.800231,
          "velocity": 0.7401574803149606
        },
        {
          "duration": 0.066666749999996,
          "durationTicks": 24,
          "midi": 89,
          "name": "F6",
          "ticks": 66552,
          "time": 184.86689775,
          "velocity": 0.7401574803149606
        },
        {
          "duration": 0.066666749999996,
          "durationTicks": 24,
          "midi": 84,
          "name": "C6",
          "ticks": 66576,
          "time": 184.9335645,
          "velocity": 0.7401574803149606
        },
        {
          "duration": 0.066666749999996,
          "durationTicks": 24,
          "midi": 85,
          "name": "C#6",
          "ticks": 66600,
          "time": 185.00023124999998,
          "velocity": 0.7401574803149606
        },
        {
          "duration": 0.06666675000002442,
          "durationTicks": 24,
          "midi": 84,
          "name": "C6",
          "ticks": 66624,
          "time": 185.06689799999998,
          "velocity": 0.7401574803149606
        },
        {
          "duration": 0.066666749999996,
          "durationTicks": 24,
          "midi": 82,
          "name": "A#5",
          "ticks": 66648,
          "time": 185.13356475,
          "velocity": 0.7401574803149606
        },
        {
          "duration": 0.133333499999992,
          "durationTicks": 48,
          "midi": 79,
          "name": "G5",
          "ticks": 66672,
          "time": 185.2002315,
          "velocity": 0.7401574803149606
        },
        {
          "duration": 0.066666749999996,
          "durationTicks": 24,
          "midi": 72,
          "name": "C5",
          "ticks": 66720,
          "time": 185.333565,
          "velocity": 0.7401574803149606
        },
        {
          "duration": 0.066666749999996,
          "durationTicks": 24,
          "midi": 77,
          "name": "F5",
          "ticks": 66720,
          "time": 185.333565,
          "velocity": 0.7401574803149606
        },
        {
          "duration": 0.066666749999996,
          "durationTicks": 24,
          "midi": 74,
          "name": "D5",
          "ticks": 66744,
          "time": 185.40023175,
          "velocity": 0.7401574803149606
        },
        {
          "duration": 0.066666749999996,
          "durationTicks": 24,
          "midi": 79,
          "name": "G5",
          "ticks": 66744,
          "time": 185.40023175,
          "velocity": 0.7401574803149606
        },
        {
          "duration": 0.066666749999996,
          "durationTicks": 24,
          "midi": 82,
          "name": "A#5",
          "ticks": 66768,
          "time": 185.46689849999999,
          "velocity": 0.7401574803149606
        },
        {
          "duration": 0.066666749999996,
          "durationTicks": 24,
          "midi": 77,
          "name": "F5",
          "ticks": 66768,
          "time": 185.46689849999999,
          "velocity": 0.7401574803149606
        },
        {
          "duration": 0.06666675000002442,
          "durationTicks": 24,
          "midi": 84,
          "name": "C6",
          "ticks": 66792,
          "time": 185.53356524999998,
          "velocity": 0.7401574803149606
        },
        {
          "duration": 0.06666675000002442,
          "durationTicks": 24,
          "midi": 79,
          "name": "G5",
          "ticks": 66792,
          "time": 185.53356524999998,
          "velocity": 0.7401574803149606
        },
        {
          "duration": 0.133333499999992,
          "durationTicks": 48,
          "midi": 79,
          "name": "G5",
          "ticks": 66816,
          "time": 185.600232,
          "velocity": 0.7401574803149606
        },
        {
          "duration": 0.133333499999992,
          "durationTicks": 48,
          "midi": 85,
          "name": "C#6",
          "ticks": 66816,
          "time": 185.600232,
          "velocity": 0.7401574803149606
        },
        {
          "duration": 0.066666749999996,
          "durationTicks": 24,
          "midi": 74,
          "name": "D5",
          "ticks": 66864,
          "time": 185.7335655,
          "velocity": 0.7401574803149606
        },
        {
          "duration": 0.133333499999992,
          "durationTicks": 48,
          "midi": 79,
          "name": "G5",
          "ticks": 66888,
          "time": 185.80023225,
          "velocity": 0.7401574803149606
        },
        {
          "duration": 0.133333499999992,
          "durationTicks": 48,
          "midi": 86,
          "name": "D6",
          "ticks": 66888,
          "time": 185.80023225,
          "velocity": 0.7401574803149606
        },
        {
          "duration": 0.066666749999996,
          "durationTicks": 24,
          "midi": 84,
          "name": "C6",
          "ticks": 66936,
          "time": 185.93356574999999,
          "velocity": 0.7401574803149606
        },
        {
          "duration": 0.066666749999996,
          "durationTicks": 24,
          "midi": 86,
          "name": "D6",
          "ticks": 66960,
          "time": 186.00023249999998,
          "velocity": 0.7401574803149606
        },
        {
          "duration": 0.06666675000002442,
          "durationTicks": 24,
          "midi": 89,
          "name": "F6",
          "ticks": 66984,
          "time": 186.06689924999998,
          "velocity": 0.7401574803149606
        },
        {
          "duration": 0.066666749999996,
          "durationTicks": 24,
          "midi": 90,
          "name": "F#6",
          "ticks": 67008,
          "time": 186.133566,
          "velocity": 0.7401574803149606
        },
        {
          "duration": 0.066666749999996,
          "durationTicks": 24,
          "midi": 86,
          "name": "D6",
          "ticks": 67008,
          "time": 186.133566,
          "velocity": 0.7401574803149606
        },
        {
          "duration": 0.066666749999996,
          "durationTicks": 24,
          "midi": 86,
          "name": "D6",
          "ticks": 67032,
          "time": 186.20023275,
          "velocity": 0.7401574803149606
        },
        {
          "duration": 0.066666749999996,
          "durationTicks": 24,
          "midi": 81,
          "name": "A5",
          "ticks": 67032,
          "time": 186.20023275,
          "velocity": 0.7401574803149606
        },
        {
          "duration": 0.066666749999996,
          "durationTicks": 24,
          "midi": 74,
          "name": "D5",
          "ticks": 67056,
          "time": 186.2668995,
          "velocity": 0.7401574803149606
        },
        {
          "duration": 0.066666749999996,
          "durationTicks": 24,
          "midi": 78,
          "name": "F#5",
          "ticks": 67056,
          "time": 186.2668995,
          "velocity": 0.7401574803149606
        },
        {
          "duration": 0.133333499999992,
          "durationTicks": 48,
          "midi": 84,
          "name": "C6",
          "ticks": 67080,
          "time": 186.33356625,
          "velocity": 0.7401574803149606
        },
        {
          "duration": 0.133333499999992,
          "durationTicks": 48,
          "midi": 81,
          "name": "A5",
          "ticks": 67080,
          "time": 186.33356625,
          "velocity": 0.7401574803149606
        },
        {
          "duration": 0.066666749999996,
          "durationTicks": 24,
          "midi": 85,
          "name": "C#6",
          "ticks": 67128,
          "time": 186.46689974999998,
          "velocity": 0.7401574803149606
        },
        {
          "duration": 0.06666675000002442,
          "durationTicks": 24,
          "midi": 84,
          "name": "C6",
          "ticks": 67152,
          "time": 186.53356649999998,
          "velocity": 0.7401574803149606
        },
        {
          "duration": 0.066666749999996,
          "durationTicks": 24,
          "midi": 82,
          "name": "A#5",
          "ticks": 67176,
          "time": 186.60023325,
          "velocity": 0.7401574803149606
        },
        {
          "duration": 0.066666749999996,
          "durationTicks": 24,
          "midi": 74,
          "name": "D5",
          "ticks": 67200,
          "time": 186.6669,
          "velocity": 0.7401574803149606
        },
        {
          "duration": 0.066666749999996,
          "durationTicks": 24,
          "midi": 79,
          "name": "G5",
          "ticks": 67200,
          "time": 186.6669,
          "velocity": 0.7401574803149606
        },
        {
          "duration": 0.066666749999996,
          "durationTicks": 24,
          "midi": 77,
          "name": "F5",
          "ticks": 67224,
          "time": 186.73356675,
          "velocity": 0.7401574803149606
        },
        {
          "duration": 0.066666749999996,
          "durationTicks": 24,
          "midi": 82,
          "name": "A#5",
          "ticks": 67224,
          "time": 186.73356675,
          "velocity": 0.7401574803149606
        },
        {
          "duration": 0.133333499999992,
          "durationTicks": 48,
          "midi": 74,
          "name": "D5",
          "ticks": 67248,
          "time": 186.8002335,
          "velocity": 0.7401574803149606
        },
        {
          "duration": 0.133333499999992,
          "durationTicks": 48,
          "midi": 79,
          "name": "G5",
          "ticks": 67248,
          "time": 186.8002335,
          "velocity": 0.7401574803149606
        },
        {
          "duration": 0.13333350000002042,
          "durationTicks": 48,
          "midi": 93,
          "name": "A6",
          "ticks": 67296,
          "time": 186.93356699999998,
          "velocity": 0.7401574803149606
        },
        {
          "duration": 0.13333350000002042,
          "durationTicks": 48,
          "midi": 90,
          "name": "F#6",
          "ticks": 67296,
          "time": 186.93356699999998,
          "velocity": 0.7401574803149606
        },
        {
          "duration": 0.133333499999992,
          "durationTicks": 48,
          "midi": 86,
          "name": "D6",
          "ticks": 67344,
          "time": 187.0669005,
          "velocity": 0.7401574803149606
        },
        {
          "duration": 0.133333499999992,
          "durationTicks": 48,
          "midi": 90,
          "name": "F#6",
          "ticks": 67344,
          "time": 187.0669005,
          "velocity": 0.7401574803149606
        },
        {
          "duration": 0.133333499999992,
          "durationTicks": 48,
          "midi": 91,
          "name": "G6",
          "ticks": 67392,
          "time": 187.200234,
          "velocity": 0.7401574803149606
        },
        {
          "duration": 0.133333499999992,
          "durationTicks": 48,
          "midi": 86,
          "name": "D6",
          "ticks": 67392,
          "time": 187.200234,
          "velocity": 0.7401574803149606
        },
        {
          "duration": 0.066666749999996,
          "durationTicks": 24,
          "midi": 84,
          "name": "C6",
          "ticks": 67440,
          "time": 187.3335675,
          "velocity": 0.7401574803149606
        },
        {
          "duration": 0.066666749999996,
          "durationTicks": 24,
          "midi": 81,
          "name": "A5",
          "ticks": 67440,
          "time": 187.3335675,
          "velocity": 0.7401574803149606
        },
        {
          "duration": 0.066666749999996,
          "durationTicks": 24,
          "midi": 82,
          "name": "A#5",
          "ticks": 67464,
          "time": 187.40023424999998,
          "velocity": 0.7401574803149606
        },
        {
          "duration": 0.066666749999996,
          "durationTicks": 24,
          "midi": 85,
          "name": "C#6",
          "ticks": 67464,
          "time": 187.40023424999998,
          "velocity": 0.7401574803149606
        },
        {
          "duration": 0.13333350000002042,
          "durationTicks": 48,
          "midi": 79,
          "name": "G5",
          "ticks": 67488,
          "time": 187.46690099999998,
          "velocity": 0.7401574803149606
        },
        {
          "duration": 0.13333350000002042,
          "durationTicks": 48,
          "midi": 84,
          "name": "C6",
          "ticks": 67488,
          "time": 187.46690099999998,
          "velocity": 0.7401574803149606
        },
        {
          "duration": 0.133333499999992,
          "durationTicks": 48,
          "midi": 76,
          "name": "E5",
          "ticks": 67536,
          "time": 187.6002345,
          "velocity": 0.7401574803149606
        },
        {
          "duration": 0.133333499999992,
          "durationTicks": 48,
          "midi": 91,
          "name": "G6",
          "ticks": 67584,
          "time": 187.733568,
          "velocity": 0.7401574803149606
        },
        {
          "duration": 0.133333499999992,
          "durationTicks": 48,
          "midi": 86,
          "name": "D6",
          "ticks": 67584,
          "time": 187.733568,
          "velocity": 0.7401574803149606
        },
        {
          "duration": 0.066666749999996,
          "durationTicks": 24,
          "midi": 79,
          "name": "G5",
          "ticks": 67632,
          "time": 187.86690149999998,
          "velocity": 0.7401574803149606
        },
        {
          "duration": 0.13333350000002042,
          "durationTicks": 48,
          "midi": 82,
          "name": "A#5",
          "ticks": 67656,
          "time": 187.93356824999998,
          "velocity": 0.7401574803149606
        },
        {
          "duration": 0.13333350000002042,
          "durationTicks": 48,
          "midi": 89,
          "name": "F6",
          "ticks": 67656,
          "time": 187.93356824999998,
          "velocity": 0.7401574803149606
        },
        {
          "duration": 0.066666749999996,
          "durationTicks": 24,
          "midi": 85,
          "name": "C#6",
          "ticks": 67704,
          "time": 188.06690175,
          "velocity": 0.7401574803149606
        },
        {
          "duration": 0.066666749999996,
          "durationTicks": 24,
          "midi": 84,
          "name": "C6",
          "ticks": 67728,
          "time": 188.1335685,
          "velocity": 0.7401574803149606
        },
        {
          "duration": 0.066666749999996,
          "durationTicks": 24,
          "midi": 82,
          "name": "A#5",
          "ticks": 67752,
          "time": 188.20023525,
          "velocity": 0.7401574803149606
        },
        {
          "duration": 0.133333499999992,
          "durationTicks": 48,
          "midi": 84,
          "name": "C6",
          "ticks": 67776,
          "time": 188.266902,
          "velocity": 0.7401574803149606
        },
        {
          "duration": 0.133333499999992,
          "durationTicks": 48,
          "midi": 78,
          "name": "F#5",
          "ticks": 67776,
          "time": 188.266902,
          "velocity": 0.7401574803149606
        },
        {
          "duration": 0.06666675000002442,
          "durationTicks": 24,
          "midi": 85,
          "name": "C#6",
          "ticks": 67824,
          "time": 188.40023549999998,
          "velocity": 0.7401574803149606
        },
        {
          "duration": 0.06666675000002442,
          "durationTicks": 24,
          "midi": 79,
          "name": "G5",
          "ticks": 67824,
          "time": 188.40023549999998,
          "velocity": 0.7401574803149606
        },
        {
          "duration": 0.133333499999992,
          "durationTicks": 48,
          "midi": 86,
          "name": "D6",
          "ticks": 67848,
          "time": 188.46690225,
          "velocity": 0.7401574803149606
        },
        {
          "duration": 0.133333499999992,
          "durationTicks": 48,
          "midi": 81,
          "name": "A5",
          "ticks": 67848,
          "time": 188.46690225,
          "velocity": 0.7401574803149606
        },
        {
          "duration": 0.066666749999996,
          "durationTicks": 24,
          "midi": 74,
          "name": "D5",
          "ticks": 67896,
          "time": 188.60023575,
          "velocity": 0.7401574803149606
        },
        {
          "duration": 0.133333499999992,
          "durationTicks": 48,
          "midi": 90,
          "name": "F#6",
          "ticks": 67920,
          "time": 188.6669025,
          "velocity": 0.7401574803149606
        },
        {
          "duration": 0.133333499999992,
          "durationTicks": 48,
          "midi": 93,
          "name": "A6",
          "ticks": 67920,
          "time": 188.6669025,
          "velocity": 0.7401574803149606
        },
        {
          "duration": 0.13333350000002042,
          "durationTicks": 48,
          "midi": 91,
          "name": "G6",
          "ticks": 67968,
          "time": 188.80023599999998,
          "velocity": 0.7401574803149606
        },
        {
          "duration": 0.13333350000002042,
          "durationTicks": 48,
          "midi": 94,
          "name": "A#6",
          "ticks": 67968,
          "time": 188.80023599999998,
          "velocity": 0.7401574803149606
        },
        {
          "duration": 0.066666749999996,
          "durationTicks": 24,
          "midi": 96,
          "name": "C7",
          "ticks": 68016,
          "time": 188.9335695,
          "velocity": 0.7401574803149606
        },
        {
          "duration": 0.066666749999996,
          "durationTicks": 24,
          "midi": 94,
          "name": "A#6",
          "ticks": 68040,
          "time": 189.00023625,
          "velocity": 0.7401574803149606
        },
        {
          "duration": 0.066666749999996,
          "durationTicks": 24,
          "midi": 93,
          "name": "A6",
          "ticks": 68064,
          "time": 189.066903,
          "velocity": 0.7401574803149606
        },
        {
          "duration": 0.066666749999996,
          "durationTicks": 24,
          "midi": 94,
          "name": "A#6",
          "ticks": 68088,
          "time": 189.13356975,
          "velocity": 0.7401574803149606
        },
        {
          "duration": 0.066666749999996,
          "durationTicks": 24,
          "midi": 91,
          "name": "G6",
          "ticks": 68112,
          "time": 189.2002365,
          "velocity": 0.7401574803149606
        },
        {
          "duration": 0.066666749999996,
          "durationTicks": 24,
          "midi": 86,
          "name": "D6",
          "ticks": 68136,
          "time": 189.26690324999998,
          "velocity": 0.7401574803149606
        },
        {
          "duration": 0.06666675000002442,
          "durationTicks": 24,
          "midi": 84,
          "name": "C6",
          "ticks": 68160,
          "time": 189.33356999999998,
          "velocity": 0.7401574803149606
        },
        {
          "duration": 0.066666749999996,
          "durationTicks": 24,
          "midi": 79,
          "name": "G5",
          "ticks": 68184,
          "time": 189.40023675,
          "velocity": 0.7401574803149606
        },
        {
          "duration": 0.066666749999996,
          "durationTicks": 24,
          "midi": 84,
          "name": "C6",
          "ticks": 68208,
          "time": 189.4669035,
          "velocity": 0.7401574803149606
        },
        {
          "duration": 0.133333499999992,
          "durationTicks": 48,
          "midi": 83,
          "name": "B5",
          "ticks": 68232,
          "time": 189.53357025,
          "velocity": 0.7401574803149606
        },
        {
          "duration": 0.133333499999992,
          "durationTicks": 48,
          "midi": 77,
          "name": "F5",
          "ticks": 68232,
          "time": 189.53357025,
          "velocity": 0.7401574803149606
        },
        {
          "duration": 0.066666749999996,
          "durationTicks": 24,
          "midi": 79,
          "name": "G5",
          "ticks": 68280,
          "time": 189.66690375,
          "velocity": 0.7401574803149606
        },
        {
          "duration": 0.066666749999996,
          "durationTicks": 24,
          "midi": 86,
          "name": "D6",
          "ticks": 68280,
          "time": 189.66690375,
          "velocity": 0.7401574803149606
        },
        {
          "duration": 0.133333499999992,
          "durationTicks": 48,
          "midi": 91,
          "name": "G6",
          "ticks": 68304,
          "time": 189.73357049999998,
          "velocity": 0.7401574803149606
        },
        {
          "duration": 0.133333499999992,
          "durationTicks": 48,
          "midi": 86,
          "name": "D6",
          "ticks": 68304,
          "time": 189.73357049999998,
          "velocity": 0.7401574803149606
        },
        {
          "duration": 0.13333350000002042,
          "durationTicks": 48,
          "midi": 87,
          "name": "D#6",
          "ticks": 68352,
          "time": 189.86690399999998,
          "velocity": 0.7401574803149606
        },
        {
          "duration": 0.13333350000002042,
          "durationTicks": 48,
          "midi": 82,
          "name": "A#5",
          "ticks": 68352,
          "time": 189.86690399999998,
          "velocity": 0.7401574803149606
        },
        {
          "duration": 0.066666749999996,
          "durationTicks": 24,
          "midi": 79,
          "name": "G5",
          "ticks": 68400,
          "time": 190.0002375,
          "velocity": 0.7401574803149606
        },
        {
          "duration": 0.066666749999996,
          "durationTicks": 24,
          "midi": 82,
          "name": "A#5",
          "ticks": 68424,
          "time": 190.06690425,
          "velocity": 0.7401574803149606
        },
        {
          "duration": 0.066666749999996,
          "durationTicks": 24,
          "midi": 84,
          "name": "C6",
          "ticks": 68448,
          "time": 190.133571,
          "velocity": 0.7401574803149606
        },
        {
          "duration": 0.066666749999996,
          "durationTicks": 24,
          "midi": 82,
          "name": "A#5",
          "ticks": 68472,
          "time": 190.20023774999999,
          "velocity": 0.7401574803149606
        },
        {
          "duration": 0.066666749999996,
          "durationTicks": 24,
          "midi": 84,
          "name": "C6",
          "ticks": 68496,
          "time": 190.26690449999998,
          "velocity": 0.7401574803149606
        },
        {
          "duration": 0.06666675000002442,
          "durationTicks": 24,
          "midi": 89,
          "name": "F6",
          "ticks": 68520,
          "time": 190.33357124999998,
          "velocity": 0.7401574803149606
        },
        {
          "duration": 0.133333499999992,
          "durationTicks": 48,
          "midi": 85,
          "name": "C#6",
          "ticks": 68544,
          "time": 190.400238,
          "velocity": 0.7401574803149606
        },
        {
          "duration": 0.133333499999992,
          "durationTicks": 48,
          "midi": 88,
          "name": "E6",
          "ticks": 68544,
          "time": 190.400238,
          "velocity": 0.7401574803149606
        },
        {
          "duration": 0.066666749999996,
          "durationTicks": 24,
          "midi": 79,
          "name": "G5",
          "ticks": 68592,
          "time": 190.5335715,
          "velocity": 0.7401574803149606
        },
        {
          "duration": 0.066666749999996,
          "durationTicks": 24,
          "midi": 81,
          "name": "A5",
          "ticks": 68616,
          "time": 190.60023825,
          "velocity": 0.7401574803149606
        },
        {
          "duration": 0.066666749999996,
          "durationTicks": 24,
          "midi": 85,
          "name": "C#6",
          "ticks": 68640,
          "time": 190.66690499999999,
          "velocity": 0.7401574803149606
        },
        {
          "duration": 0.066666749999996,
          "durationTicks": 24,
          "midi": 81,
          "name": "A5",
          "ticks": 68664,
          "time": 190.73357174999998,
          "velocity": 0.7401574803149606
        },
        {
          "duration": 0.06666675000002442,
          "durationTicks": 24,
          "midi": 85,
          "name": "C#6",
          "ticks": 68688,
          "time": 190.80023849999998,
          "velocity": 0.7401574803149606
        },
        {
          "duration": 0.066666749999996,
          "durationTicks": 24,
          "midi": 88,
          "name": "E6",
          "ticks": 68712,
          "time": 190.86690525,
          "velocity": 0.7401574803149606
        },
        {
          "duration": 0.133333499999992,
          "durationTicks": 48,
          "midi": 91,
          "name": "G6",
          "ticks": 68736,
          "time": 190.933572,
          "velocity": 0.7401574803149606
        },
        {
          "duration": 0.133333499999992,
          "durationTicks": 48,
          "midi": 86,
          "name": "D6",
          "ticks": 68736,
          "time": 190.933572,
          "velocity": 0.7401574803149606
        },
        {
          "duration": 0.13333350000002042,
          "durationTicks": 48,
          "midi": 91,
          "name": "G6",
          "ticks": 68832,
          "time": 191.20023899999998,
          "velocity": 0.7401574803149606
        },
        {
          "duration": 0.13333350000002042,
          "durationTicks": 48,
          "midi": 86,
          "name": "D6",
          "ticks": 68832,
          "time": 191.20023899999998,
          "velocity": 0.7401574803149606
        },
        {
          "duration": 0.133333499999992,
          "durationTicks": 48,
          "midi": 86,
          "name": "D6",
          "ticks": 68928,
          "time": 191.466906,
          "velocity": 0.7401574803149606
        },
        {
          "duration": 0.133333499999992,
          "durationTicks": 48,
          "midi": 90,
          "name": "F#6",
          "ticks": 68928,
          "time": 191.466906,
          "velocity": 0.7401574803149606
        },
        {
          "duration": 0.066666749999996,
          "durationTicks": 24,
          "midi": 91,
          "name": "G6",
          "ticks": 68976,
          "time": 191.6002395,
          "velocity": 0.7401574803149606
        },
        {
          "duration": 0.066666749999996,
          "durationTicks": 24,
          "midi": 93,
          "name": "A6",
          "ticks": 69000,
          "time": 191.66690624999998,
          "velocity": 0.7401574803149606
        },
        {
          "duration": 0.133333499999992,
          "durationTicks": 48,
          "midi": 86,
          "name": "D6",
          "ticks": 69120,
          "time": 192.00024,
          "velocity": 0.7401574803149606
        },
        {
          "duration": 0.133333499999992,
          "durationTicks": 48,
          "midi": 91,
          "name": "G6",
          "ticks": 69120,
          "time": 192.00024,
          "velocity": 0.7401574803149606
        },
        {
          "duration": 0.066666749999996,
          "durationTicks": 24,
          "midi": 79,
          "name": "G5",
          "ticks": 69168,
          "time": 192.13357349999998,
          "velocity": 0.7401574803149606
        },
        {
          "duration": 0.13333350000002042,
          "durationTicks": 48,
          "midi": 82,
          "name": "A#5",
          "ticks": 69192,
          "time": 192.20024024999998,
          "velocity": 0.7401574803149606
        },
        {
          "duration": 0.13333350000002042,
          "durationTicks": 48,
          "midi": 89,
          "name": "F6",
          "ticks": 69192,
          "time": 192.20024024999998,
          "velocity": 0.7401574803149606
        },
        {
          "duration": 0.066666749999996,
          "durationTicks": 24,
          "midi": 85,
          "name": "C#6",
          "ticks": 69240,
          "time": 192.33357375,
          "velocity": 0.7401574803149606
        },
        {
          "duration": 0.066666749999996,
          "durationTicks": 24,
          "midi": 84,
          "name": "C6",
          "ticks": 69264,
          "time": 192.4002405,
          "velocity": 0.7401574803149606
        },
        {
          "duration": 0.066666749999996,
          "durationTicks": 24,
          "midi": 82,
          "name": "A#5",
          "ticks": 69288,
          "time": 192.46690725,
          "velocity": 0.7401574803149606
        },
        {
          "duration": 0.133333499999992,
          "durationTicks": 48,
          "midi": 84,
          "name": "C6",
          "ticks": 69312,
          "time": 192.533574,
          "velocity": 0.7401574803149606
        },
        {
          "duration": 0.133333499999992,
          "durationTicks": 48,
          "midi": 78,
          "name": "F#5",
          "ticks": 69312,
          "time": 192.533574,
          "velocity": 0.7401574803149606
        },
        {
          "duration": 0.06666675000002442,
          "durationTicks": 24,
          "midi": 85,
          "name": "C#6",
          "ticks": 69360,
          "time": 192.66690749999998,
          "velocity": 0.7401574803149606
        },
        {
          "duration": 0.06666675000002442,
          "durationTicks": 24,
          "midi": 79,
          "name": "G5",
          "ticks": 69360,
          "time": 192.66690749999998,
          "velocity": 0.7401574803149606
        },
        {
          "duration": 0.133333499999992,
          "durationTicks": 48,
          "midi": 81,
          "name": "A5",
          "ticks": 69384,
          "time": 192.73357425,
          "velocity": 0.7401574803149606
        },
        {
          "duration": 0.133333499999992,
          "durationTicks": 48,
          "midi": 86,
          "name": "D6",
          "ticks": 69384,
          "time": 192.73357425,
          "velocity": 0.7401574803149606
        },
        {
          "duration": 0.066666749999996,
          "durationTicks": 24,
          "midi": 74,
          "name": "D5",
          "ticks": 69432,
          "time": 192.86690775,
          "velocity": 0.7401574803149606
        },
        {
          "duration": 0.133333499999992,
          "durationTicks": 48,
          "midi": 90,
          "name": "F#6",
          "ticks": 69456,
          "time": 192.9335745,
          "velocity": 0.7401574803149606
        },
        {
          "duration": 0.133333499999992,
          "durationTicks": 48,
          "midi": 93,
          "name": "A6",
          "ticks": 69456,
          "time": 192.9335745,
          "velocity": 0.7401574803149606
        },
        {
          "duration": 0.13333350000002042,
          "durationTicks": 48,
          "midi": 91,
          "name": "G6",
          "ticks": 69504,
          "time": 193.06690799999998,
          "velocity": 0.7401574803149606
        },
        {
          "duration": 0.13333350000002042,
          "durationTicks": 48,
          "midi": 94,
          "name": "A#6",
          "ticks": 69504,
          "time": 193.06690799999998,
          "velocity": 0.7401574803149606
        },
        {
          "duration": 0.066666749999996,
          "durationTicks": 24,
          "midi": 79,
          "name": "G5",
          "ticks": 69552,
          "time": 193.2002415,
          "velocity": 0.7401574803149606
        },
        {
          "duration": 0.066666749999996,
          "durationTicks": 24,
          "midi": 84,
          "name": "C6",
          "ticks": 69576,
          "time": 193.26690825,
          "velocity": 0.7401574803149606
        },
        {
          "duration": 0.066666749999996,
          "durationTicks": 24,
          "midi": 86,
          "name": "D6",
          "ticks": 69600,
          "time": 193.333575,
          "velocity": 0.7401574803149606
        },
        {
          "duration": 0.066666749999996,
          "durationTicks": 24,
          "midi": 89,
          "name": "F6",
          "ticks": 69624,
          "time": 193.40024175,
          "velocity": 0.7401574803149606
        },
        {
          "duration": 0.066666749999996,
          "durationTicks": 24,
          "midi": 84,
          "name": "C6",
          "ticks": 69648,
          "time": 193.4669085,
          "velocity": 0.7401574803149606
        },
        {
          "duration": 0.066666749999996,
          "durationTicks": 24,
          "midi": 85,
          "name": "C#6",
          "ticks": 69672,
          "time": 193.53357524999998,
          "velocity": 0.7401574803149606
        },
        {
          "duration": 0.06666675000002442,
          "durationTicks": 24,
          "midi": 84,
          "name": "C6",
          "ticks": 69696,
          "time": 193.60024199999998,
          "velocity": 0.7401574803149606
        },
        {
          "duration": 0.066666749999996,
          "durationTicks": 24,
          "midi": 82,
          "name": "A#5",
          "ticks": 69720,
          "time": 193.66690875,
          "velocity": 0.7401574803149606
        },
        {
          "duration": 0.133333499999992,
          "durationTicks": 48,
          "midi": 79,
          "name": "G5",
          "ticks": 69744,
          "time": 193.7335755,
          "velocity": 0.7401574803149606
        },
        {
          "duration": 0.066666749999996,
          "durationTicks": 24,
          "midi": 72,
          "name": "C5",
          "ticks": 69792,
          "time": 193.866909,
          "velocity": 0.7401574803149606
        },
        {
          "duration": 0.066666749999996,
          "durationTicks": 24,
          "midi": 77,
          "name": "F5",
          "ticks": 69792,
          "time": 193.866909,
          "velocity": 0.7401574803149606
        },
        {
          "duration": 0.066666749999996,
          "durationTicks": 24,
          "midi": 74,
          "name": "D5",
          "ticks": 69816,
          "time": 193.93357575,
          "velocity": 0.7401574803149606
        },
        {
          "duration": 0.066666749999996,
          "durationTicks": 24,
          "midi": 79,
          "name": "G5",
          "ticks": 69816,
          "time": 193.93357575,
          "velocity": 0.7401574803149606
        },
        {
          "duration": 0.066666749999996,
          "durationTicks": 24,
          "midi": 77,
          "name": "F5",
          "ticks": 69840,
          "time": 194.00024249999998,
          "velocity": 0.7401574803149606
        },
        {
          "duration": 0.066666749999996,
          "durationTicks": 24,
          "midi": 82,
          "name": "A#5",
          "ticks": 69840,
          "time": 194.00024249999998,
          "velocity": 0.7401574803149606
        },
        {
          "duration": 0.06666675000002442,
          "durationTicks": 24,
          "midi": 79,
          "name": "G5",
          "ticks": 69864,
          "time": 194.06690924999998,
          "velocity": 0.7401574803149606
        },
        {
          "duration": 0.06666675000002442,
          "durationTicks": 24,
          "midi": 84,
          "name": "C6",
          "ticks": 69864,
          "time": 194.06690924999998,
          "velocity": 0.7401574803149606
        },
        {
          "duration": 0.133333499999992,
          "durationTicks": 48,
          "midi": 79,
          "name": "G5",
          "ticks": 69888,
          "time": 194.133576,
          "velocity": 0.7401574803149606
        },
        {
          "duration": 0.133333499999992,
          "durationTicks": 48,
          "midi": 85,
          "name": "C#6",
          "ticks": 69888,
          "time": 194.133576,
          "velocity": 0.7401574803149606
        },
        {
          "duration": 0.066666749999996,
          "durationTicks": 24,
          "midi": 74,
          "name": "D5",
          "ticks": 69936,
          "time": 194.2669095,
          "velocity": 0.7401574803149606
        },
        {
          "duration": 0.133333499999992,
          "durationTicks": 48,
          "midi": 86,
          "name": "D6",
          "ticks": 69960,
          "time": 194.33357625,
          "velocity": 0.7401574803149606
        },
        {
          "duration": 0.133333499999992,
          "durationTicks": 48,
          "midi": 79,
          "name": "G5",
          "ticks": 69960,
          "time": 194.33357625,
          "velocity": 0.7401574803149606
        },
        {
          "duration": 0.066666749999996,
          "durationTicks": 24,
          "midi": 84,
          "name": "C6",
          "ticks": 70008,
          "time": 194.46690974999999,
          "velocity": 0.7401574803149606
        },
        {
          "duration": 0.066666749999996,
          "durationTicks": 24,
          "midi": 86,
          "name": "D6",
          "ticks": 70032,
          "time": 194.53357649999998,
          "velocity": 0.7401574803149606
        },
        {
          "duration": 0.06666675000002442,
          "durationTicks": 24,
          "midi": 89,
          "name": "F6",
          "ticks": 70056,
          "time": 194.60024324999998,
          "velocity": 0.7401574803149606
        },
        {
          "duration": 0.066666749999996,
          "durationTicks": 24,
          "midi": 86,
          "name": "D6",
          "ticks": 70080,
          "time": 194.66691,
          "velocity": 0.7401574803149606
        },
        {
          "duration": 0.066666749999996,
          "durationTicks": 24,
          "midi": 90,
          "name": "F#6",
          "ticks": 70080,
          "time": 194.66691,
          "velocity": 0.7401574803149606
        },
        {
          "duration": 0.066666749999996,
          "durationTicks": 24,
          "midi": 86,
          "name": "D6",
          "ticks": 70104,
          "time": 194.73357675,
          "velocity": 0.7401574803149606
        },
        {
          "duration": 0.066666749999996,
          "durationTicks": 24,
          "midi": 81,
          "name": "A5",
          "ticks": 70104,
          "time": 194.73357675,
          "velocity": 0.7401574803149606
        },
        {
          "duration": 0.066666749999996,
          "durationTicks": 24,
          "midi": 74,
          "name": "D5",
          "ticks": 70128,
          "time": 194.8002435,
          "velocity": 0.7401574803149606
        },
        {
          "duration": 0.066666749999996,
          "durationTicks": 24,
          "midi": 78,
          "name": "F#5",
          "ticks": 70128,
          "time": 194.8002435,
          "velocity": 0.7401574803149606
        },
        {
          "duration": 0.133333499999992,
          "durationTicks": 48,
          "midi": 84,
          "name": "C6",
          "ticks": 70152,
          "time": 194.86691025,
          "velocity": 0.7401574803149606
        },
        {
          "duration": 0.133333499999992,
          "durationTicks": 48,
          "midi": 81,
          "name": "A5",
          "ticks": 70152,
          "time": 194.86691025,
          "velocity": 0.7401574803149606
        },
        {
          "duration": 0.066666749999996,
          "durationTicks": 24,
          "midi": 85,
          "name": "C#6",
          "ticks": 70200,
          "time": 195.00024374999998,
          "velocity": 0.7401574803149606
        },
        {
          "duration": 0.06666675000002442,
          "durationTicks": 24,
          "midi": 84,
          "name": "C6",
          "ticks": 70224,
          "time": 195.06691049999998,
          "velocity": 0.7401574803149606
        },
        {
          "duration": 0.066666749999996,
          "durationTicks": 24,
          "midi": 82,
          "name": "A#5",
          "ticks": 70248,
          "time": 195.13357725,
          "velocity": 0.7401574803149606
        },
        {
          "duration": 0.066666749999996,
          "durationTicks": 24,
          "midi": 79,
          "name": "G5",
          "ticks": 70272,
          "time": 195.200244,
          "velocity": 0.7401574803149606
        },
        {
          "duration": 0.066666749999996,
          "durationTicks": 24,
          "midi": 74,
          "name": "D5",
          "ticks": 70272,
          "time": 195.200244,
          "velocity": 0.7401574803149606
        },
        {
          "duration": 0.066666749999996,
          "durationTicks": 24,
          "midi": 82,
          "name": "A#5",
          "ticks": 70296,
          "time": 195.26691075,
          "velocity": 0.7401574803149606
        },
        {
          "duration": 0.066666749999996,
          "durationTicks": 24,
          "midi": 77,
          "name": "F5",
          "ticks": 70296,
          "time": 195.26691075,
          "velocity": 0.7401574803149606
        },
        {
          "duration": 0.133333499999992,
          "durationTicks": 48,
          "midi": 79,
          "name": "G5",
          "ticks": 70320,
          "time": 195.3335775,
          "velocity": 0.7401574803149606
        },
        {
          "duration": 0.133333499999992,
          "durationTicks": 48,
          "midi": 74,
          "name": "D5",
          "ticks": 70320,
          "time": 195.3335775,
          "velocity": 0.7401574803149606
        },
        {
          "duration": 0.13333350000002042,
          "durationTicks": 48,
          "midi": 90,
          "name": "F#6",
          "ticks": 70368,
          "time": 195.46691099999998,
          "velocity": 0.7401574803149606
        },
        {
          "duration": 0.13333350000002042,
          "durationTicks": 48,
          "midi": 93,
          "name": "A6",
          "ticks": 70368,
          "time": 195.46691099999998,
          "velocity": 0.7401574803149606
        },
        {
          "duration": 0.133333499999992,
          "durationTicks": 48,
          "midi": 90,
          "name": "F#6",
          "ticks": 70416,
          "time": 195.6002445,
          "velocity": 0.7401574803149606
        },
        {
          "duration": 0.133333499999992,
          "durationTicks": 48,
          "midi": 86,
          "name": "D6",
          "ticks": 70416,
          "time": 195.6002445,
          "velocity": 0.7401574803149606
        },
        {
          "duration": 0.133333499999992,
          "durationTicks": 48,
          "midi": 86,
          "name": "D6",
          "ticks": 70464,
          "time": 195.733578,
          "velocity": 0.7401574803149606
        },
        {
          "duration": 0.133333499999992,
          "durationTicks": 48,
          "midi": 91,
          "name": "G6",
          "ticks": 70464,
          "time": 195.733578,
          "velocity": 0.7401574803149606
        },
        {
          "duration": 0.066666749999996,
          "durationTicks": 24,
          "midi": 84,
          "name": "C6",
          "ticks": 70512,
          "time": 195.8669115,
          "velocity": 0.7401574803149606
        },
        {
          "duration": 0.066666749999996,
          "durationTicks": 24,
          "midi": 81,
          "name": "A5",
          "ticks": 70512,
          "time": 195.8669115,
          "velocity": 0.7401574803149606
        },
        {
          "duration": 0.066666749999996,
          "durationTicks": 24,
          "midi": 82,
          "name": "A#5",
          "ticks": 70536,
          "time": 195.93357824999998,
          "velocity": 0.7401574803149606
        },
        {
          "duration": 0.066666749999996,
          "durationTicks": 24,
          "midi": 85,
          "name": "C#6",
          "ticks": 70536,
          "time": 195.93357824999998,
          "velocity": 0.7401574803149606
        },
        {
          "duration": 0.133333499999992,
          "durationTicks": 48,
          "midi": 86,
          "name": "D6",
          "ticks": 70656,
          "time": 196.266912,
          "velocity": 0.7401574803149606
        },
        {
          "duration": 0.133333499999992,
          "durationTicks": 48,
          "midi": 91,
          "name": "G6",
          "ticks": 70656,
          "time": 196.266912,
          "velocity": 0.7401574803149606
        },
        {
          "duration": 0.066666749999996,
          "durationTicks": 24,
          "midi": 79,
          "name": "G5",
          "ticks": 70704,
          "time": 196.40024549999998,
          "velocity": 0.7401574803149606
        },
        {
          "duration": 0.13333350000002042,
          "durationTicks": 48,
          "midi": 89,
          "name": "F6",
          "ticks": 70728,
          "time": 196.46691224999998,
          "velocity": 0.7401574803149606
        },
        {
          "duration": 0.13333350000002042,
          "durationTicks": 48,
          "midi": 82,
          "name": "A#5",
          "ticks": 70728,
          "time": 196.46691224999998,
          "velocity": 0.7401574803149606
        },
        {
          "duration": 0.066666749999996,
          "durationTicks": 24,
          "midi": 85,
          "name": "C#6",
          "ticks": 70776,
          "time": 196.60024575,
          "velocity": 0.7401574803149606
        },
        {
          "duration": 0.066666749999996,
          "durationTicks": 24,
          "midi": 84,
          "name": "C6",
          "ticks": 70800,
          "time": 196.6669125,
          "velocity": 0.7401574803149606
        },
        {
          "duration": 0.066666749999996,
          "durationTicks": 24,
          "midi": 82,
          "name": "A#5",
          "ticks": 70824,
          "time": 196.73357925,
          "velocity": 0.7401574803149606
        },
        {
          "duration": 0.133333499999992,
          "durationTicks": 48,
          "midi": 84,
          "name": "C6",
          "ticks": 70848,
          "time": 196.800246,
          "velocity": 0.7401574803149606
        },
        {
          "duration": 0.133333499999992,
          "durationTicks": 48,
          "midi": 78,
          "name": "F#5",
          "ticks": 70848,
          "time": 196.800246,
          "velocity": 0.7401574803149606
        },
        {
          "duration": 0.06666675000002442,
          "durationTicks": 24,
          "midi": 85,
          "name": "C#6",
          "ticks": 70896,
          "time": 196.93357949999998,
          "velocity": 0.7401574803149606
        },
        {
          "duration": 0.06666675000002442,
          "durationTicks": 24,
          "midi": 79,
          "name": "G5",
          "ticks": 70896,
          "time": 196.93357949999998,
          "velocity": 0.7401574803149606
        },
        {
          "duration": 0.133333499999992,
          "durationTicks": 48,
          "midi": 81,
          "name": "A5",
          "ticks": 70920,
          "time": 197.00024625,
          "velocity": 0.7401574803149606
        },
        {
          "duration": 0.133333499999992,
          "durationTicks": 48,
          "midi": 86,
          "name": "D6",
          "ticks": 70920,
          "time": 197.00024625,
          "velocity": 0.7401574803149606
        },
        {
          "duration": 0.066666749999996,
          "durationTicks": 24,
          "midi": 74,
          "name": "D5",
          "ticks": 70968,
          "time": 197.13357975,
          "velocity": 0.7401574803149606
        },
        {
          "duration": 0.133333499999992,
          "durationTicks": 48,
          "midi": 90,
          "name": "F#6",
          "ticks": 70992,
          "time": 197.2002465,
          "velocity": 0.7401574803149606
        },
        {
          "duration": 0.133333499999992,
          "durationTicks": 48,
          "midi": 93,
          "name": "A6",
          "ticks": 70992,
          "time": 197.2002465,
          "velocity": 0.7401574803149606
        },
        {
          "duration": 0.13333350000002042,
          "durationTicks": 48,
          "midi": 91,
          "name": "G6",
          "ticks": 71040,
          "time": 197.33357999999998,
          "velocity": 0.7401574803149606
        },
        {
          "duration": 0.13333350000002042,
          "durationTicks": 48,
          "midi": 94,
          "name": "A#6",
          "ticks": 71040,
          "time": 197.33357999999998,
          "velocity": 0.7401574803149606
        },
        {
          "duration": 0.066666749999996,
          "durationTicks": 24,
          "midi": 96,
          "name": "C7",
          "ticks": 71088,
          "time": 197.4669135,
          "velocity": 0.7401574803149606
        },
        {
          "duration": 0.066666749999996,
          "durationTicks": 24,
          "midi": 94,
          "name": "A#6",
          "ticks": 71112,
          "time": 197.53358025,
          "velocity": 0.7401574803149606
        },
        {
          "duration": 0.066666749999996,
          "durationTicks": 24,
          "midi": 93,
          "name": "A6",
          "ticks": 71136,
          "time": 197.600247,
          "velocity": 0.7401574803149606
        },
        {
          "duration": 0.066666749999996,
          "durationTicks": 24,
          "midi": 94,
          "name": "A#6",
          "ticks": 71160,
          "time": 197.66691375,
          "velocity": 0.7401574803149606
        },
        {
          "duration": 0.066666749999996,
          "durationTicks": 24,
          "midi": 91,
          "name": "G6",
          "ticks": 71184,
          "time": 197.7335805,
          "velocity": 0.7401574803149606
        },
        {
          "duration": 0.066666749999996,
          "durationTicks": 24,
          "midi": 86,
          "name": "D6",
          "ticks": 71208,
          "time": 197.80024724999998,
          "velocity": 0.7401574803149606
        },
        {
          "duration": 0.06666675000002442,
          "durationTicks": 24,
          "midi": 84,
          "name": "C6",
          "ticks": 71232,
          "time": 197.86691399999998,
          "velocity": 0.7401574803149606
        },
        {
          "duration": 0.066666749999996,
          "durationTicks": 24,
          "midi": 79,
          "name": "G5",
          "ticks": 71256,
          "time": 197.93358075,
          "velocity": 0.7401574803149606
        },
        {
          "duration": 0.066666749999996,
          "durationTicks": 24,
          "midi": 84,
          "name": "C6",
          "ticks": 71280,
          "time": 198.0002475,
          "velocity": 0.7401574803149606
        },
        {
          "duration": 0.133333499999992,
          "durationTicks": 48,
          "midi": 83,
          "name": "B5",
          "ticks": 71304,
          "time": 198.06691425,
          "velocity": 0.7401574803149606
        },
        {
          "duration": 0.133333499999992,
          "durationTicks": 48,
          "midi": 77,
          "name": "F5",
          "ticks": 71304,
          "time": 198.06691425,
          "velocity": 0.7401574803149606
        },
        {
          "duration": 0.066666749999996,
          "durationTicks": 24,
          "midi": 86,
          "name": "D6",
          "ticks": 71352,
          "time": 198.20024775,
          "velocity": 0.7401574803149606
        },
        {
          "duration": 0.066666749999996,
          "durationTicks": 24,
          "midi": 79,
          "name": "G5",
          "ticks": 71352,
          "time": 198.20024775,
          "velocity": 0.7401574803149606
        },
        {
          "duration": 0.133333499999992,
          "durationTicks": 48,
          "midi": 91,
          "name": "G6",
          "ticks": 71376,
          "time": 198.26691449999998,
          "velocity": 0.7401574803149606
        },
        {
          "duration": 0.133333499999992,
          "durationTicks": 48,
          "midi": 86,
          "name": "D6",
          "ticks": 71376,
          "time": 198.26691449999998,
          "velocity": 0.7401574803149606
        },
        {
          "duration": 0.10000012500000821,
          "durationTicks": 36,
          "midi": 91,
          "name": "G6",
          "ticks": 71424,
          "time": 198.40024799999998,
          "velocity": 0.7401574803149606
        },
        {
          "duration": 0.10000012500000821,
          "durationTicks": 36,
          "midi": 99,
          "name": "D#7",
          "ticks": 71424,
          "time": 198.40024799999998,
          "velocity": 0.7401574803149606
        },
        {
          "duration": 0.10000012499997979,
          "durationTicks": 36,
          "midi": 99,
          "name": "D#7",
          "ticks": 71472,
          "time": 198.5335815,
          "velocity": 0.7401574803149606
        },
        {
          "duration": 0.10000012499997979,
          "durationTicks": 36,
          "midi": 91,
          "name": "G6",
          "ticks": 71472,
          "time": 198.5335815,
          "velocity": 0.7401574803149606
        },
        {
          "duration": 0.10000012499997979,
          "durationTicks": 36,
          "midi": 98,
          "name": "D7",
          "ticks": 71616,
          "time": 198.933582,
          "velocity": 0.7401574803149606
        },
        {
          "duration": 0.10000012499997979,
          "durationTicks": 36,
          "midi": 90,
          "name": "F#6",
          "ticks": 71616,
          "time": 198.933582,
          "velocity": 0.7401574803149606
        },
        {
          "duration": 0.10000012500000821,
          "durationTicks": 36,
          "midi": 98,
          "name": "D7",
          "ticks": 71664,
          "time": 199.0669155,
          "velocity": 0.7401574803149606
        },
        {
          "duration": 0.10000012500000821,
          "durationTicks": 36,
          "midi": 90,
          "name": "F#6",
          "ticks": 71664,
          "time": 199.0669155,
          "velocity": 0.7401574803149606
        },
        {
          "duration": 0.13333350000002042,
          "durationTicks": 48,
          "midi": 93,
          "name": "A6",
          "ticks": 71760,
          "time": 199.33358249999998,
          "velocity": 0.7401574803149606
        },
        {
          "duration": 0.133333499999992,
          "durationTicks": 48,
          "midi": 98,
          "name": "D7",
          "ticks": 71808,
          "time": 199.466916,
          "velocity": 0.7401574803149606
        },
        {
          "duration": 0.133333499999992,
          "durationTicks": 48,
          "midi": 86,
          "name": "D6",
          "ticks": 71808,
          "time": 199.466916,
          "velocity": 0.7401574803149606
        },
        {
          "duration": 0.13333350000002042,
          "durationTicks": 48,
          "midi": 96,
          "name": "C7",
          "ticks": 71904,
          "time": 199.73358299999998,
          "velocity": 0.7401574803149606
        },
        {
          "duration": 0.13333350000002042,
          "durationTicks": 48,
          "midi": 84,
          "name": "C6",
          "ticks": 71904,
          "time": 199.73358299999998,
          "velocity": 0.7401574803149606
        },
        {
          "duration": 0.266666999999984,
          "durationTicks": 96,
          "midi": 82,
          "name": "A#5",
          "ticks": 72000,
          "time": 200.00025,
          "velocity": 0.7401574803149606
        },
        {
          "duration": 0.266666999999984,
          "durationTicks": 96,
          "midi": 94,
          "name": "A#6",
          "ticks": 72000,
          "time": 200.00025,
          "velocity": 0.7401574803149606
        },
        {
          "duration": 0.2666670000000124,
          "durationTicks": 96,
          "midi": 91,
          "name": "G6",
          "ticks": 72096,
          "time": 200.26691699999998,
          "velocity": 0.7401574803149606
        },
        {
          "duration": 0.2666670000000124,
          "durationTicks": 96,
          "midi": 86,
          "name": "D6",
          "ticks": 72096,
          "time": 200.26691699999998,
          "velocity": 0.7401574803149606
        },
        {
          "duration": 0.066666749999996,
          "durationTicks": 24,
          "midi": 91,
          "name": "G6",
          "ticks": 72192,
          "time": 200.533584,
          "velocity": 0.7401574803149606
        },
        {
          "duration": 0.066666749999996,
          "durationTicks": 24,
          "midi": 99,
          "name": "D#7",
          "ticks": 72192,
          "time": 200.533584,
          "velocity": 0.7401574803149606
        },
        {
          "duration": 0.066666749999996,
          "durationTicks": 24,
          "midi": 99,
          "name": "D#7",
          "ticks": 72240,
          "time": 200.66691749999998,
          "velocity": 0.7401574803149606
        },
        {
          "duration": 0.066666749999996,
          "durationTicks": 24,
          "midi": 91,
          "name": "G6",
          "ticks": 72240,
          "time": 200.66691749999998,
          "velocity": 0.7401574803149606
        },
        {
          "duration": 0.066666749999996,
          "durationTicks": 24,
          "midi": 90,
          "name": "F#6",
          "ticks": 72384,
          "time": 201.066918,
          "velocity": 0.7401574803149606
        },
        {
          "duration": 0.066666749999996,
          "durationTicks": 24,
          "midi": 98,
          "name": "D7",
          "ticks": 72384,
          "time": 201.066918,
          "velocity": 0.7401574803149606
        },
        {
          "duration": 0.06666675000002442,
          "durationTicks": 24,
          "midi": 90,
          "name": "F#6",
          "ticks": 72432,
          "time": 201.20025149999998,
          "velocity": 0.7401574803149606
        },
        {
          "duration": 0.06666675000002442,
          "durationTicks": 24,
          "midi": 98,
          "name": "D7",
          "ticks": 72432,
          "time": 201.20025149999998,
          "velocity": 0.7401574803149606
        },
        {
          "duration": 0.133333499999992,
          "durationTicks": 48,
          "midi": 93,
          "name": "A6",
          "ticks": 72528,
          "time": 201.4669185,
          "velocity": 0.7401574803149606
        },
        {
          "duration": 0.13333350000002042,
          "durationTicks": 48,
          "midi": 86,
          "name": "D6",
          "ticks": 72576,
          "time": 201.60025199999998,
          "velocity": 0.7401574803149606
        },
        {
          "duration": 0.13333350000002042,
          "durationTicks": 48,
          "midi": 98,
          "name": "D7",
          "ticks": 72576,
          "time": 201.60025199999998,
          "velocity": 0.7401574803149606
        },
        {
          "duration": 0.133333499999992,
          "durationTicks": 48,
          "midi": 84,
          "name": "C6",
          "ticks": 72672,
          "time": 201.866919,
          "velocity": 0.7401574803149606
        },
        {
          "duration": 0.133333499999992,
          "durationTicks": 48,
          "midi": 96,
          "name": "C7",
          "ticks": 72672,
          "time": 201.866919,
          "velocity": 0.7401574803149606
        },
        {
          "duration": 0.2666670000000124,
          "durationTicks": 96,
          "midi": 94,
          "name": "A#6",
          "ticks": 72768,
          "time": 202.13358599999998,
          "velocity": 0.7401574803149606
        },
        {
          "duration": 0.2666670000000124,
          "durationTicks": 96,
          "midi": 82,
          "name": "A#5",
          "ticks": 72768,
          "time": 202.13358599999998,
          "velocity": 0.7401574803149606
        },
        {
          "duration": 0.2666670000000124,
          "durationTicks": 96,
          "midi": 91,
          "name": "G6",
          "ticks": 72864,
          "time": 202.400253,
          "velocity": 0.7401574803149606
        },
        {
          "duration": 0.2666670000000124,
          "durationTicks": 96,
          "midi": 86,
          "name": "D6",
          "ticks": 72864,
          "time": 202.400253,
          "velocity": 0.7401574803149606
        },
        {
          "duration": 0.133333499999992,
          "durationTicks": 48,
          "midi": 46,
          "name": "A#2",
          "ticks": 72960,
          "time": 202.66692,
          "velocity": 0.8110236220472441
        },
        {
          "duration": 0.133333499999992,
          "durationTicks": 48,
          "midi": 38,
          "name": "D2",
          "ticks": 73008,
          "time": 202.8002535,
          "velocity": 0.8110236220472441
        },
        {
          "duration": 0.133333499999992,
          "durationTicks": 48,
          "midi": 50,
          "name": "D3",
          "ticks": 73056,
          "time": 202.933587,
          "velocity": 0.8110236220472441
        },
        {
          "duration": 0.13333350000002042,
          "durationTicks": 48,
          "midi": 43,
          "name": "G2",
          "ticks": 73104,
          "time": 203.06692049999998,
          "velocity": 0.8110236220472441
        },
        {
          "duration": 0.133333499999992,
          "durationTicks": 48,
          "midi": 49,
          "name": "C#3",
          "ticks": 73152,
          "time": 203.200254,
          "velocity": 0.8110236220472441
        },
        {
          "duration": 0.133333499999992,
          "durationTicks": 48,
          "midi": 43,
          "name": "G2",
          "ticks": 73200,
          "time": 203.3335875,
          "velocity": 0.8110236220472441
        },
        {
          "duration": 0.133333499999992,
          "durationTicks": 48,
          "midi": 50,
          "name": "D3",
          "ticks": 73248,
          "time": 203.46692099999999,
          "velocity": 0.8110236220472441
        },
        {
          "duration": 0.13333350000002042,
          "durationTicks": 48,
          "midi": 43,
          "name": "G2",
          "ticks": 73296,
          "time": 203.60025449999998,
          "velocity": 0.8110236220472441
        },
        {
          "duration": 0.133333499999992,
          "durationTicks": 48,
          "midi": 51,
          "name": "D#3",
          "ticks": 73344,
          "time": 203.733588,
          "velocity": 0.8110236220472441
        },
        {
          "duration": 0.133333499999992,
          "durationTicks": 48,
          "midi": 43,
          "name": "G2",
          "ticks": 73392,
          "time": 203.8669215,
          "velocity": 0.8110236220472441
        },
        {
          "duration": 0.13333350000002042,
          "durationTicks": 48,
          "midi": 49,
          "name": "C#3",
          "ticks": 73440,
          "time": 204.00025499999998,
          "velocity": 0.8110236220472441
        },
        {
          "duration": 0.133333499999992,
          "durationTicks": 48,
          "midi": 43,
          "name": "G2",
          "ticks": 73488,
          "time": 204.1335885,
          "velocity": 0.8110236220472441
        },
        {
          "duration": 0.133333499999992,
          "durationTicks": 48,
          "midi": 50,
          "name": "D3",
          "ticks": 73536,
          "time": 204.266922,
          "velocity": 0.8110236220472441
        },
        {
          "duration": 0.133333499999992,
          "durationTicks": 48,
          "midi": 43,
          "name": "G2",
          "ticks": 73584,
          "time": 204.4002555,
          "velocity": 0.8110236220472441
        },
        {
          "duration": 0.04444449999999733,
          "durationTicks": 16,
          "midi": 38,
          "name": "D2",
          "ticks": 73632,
          "time": 204.53358899999998,
          "velocity": 0.7165354330708661
        },
        {
          "duration": 0.04444449999996891,
          "durationTicks": 16,
          "midi": 38,
          "name": "D2",
          "ticks": 73680,
          "time": 204.6669225,
          "velocity": 0.7165354330708661
        },
        {
          "duration": 0.133333499999992,
          "durationTicks": 48,
          "midi": 46,
          "name": "A#2",
          "ticks": 73728,
          "time": 204.800256,
          "velocity": 0.8110236220472441
        },
        {
          "duration": 0.13333350000002042,
          "durationTicks": 48,
          "midi": 38,
          "name": "D2",
          "ticks": 73776,
          "time": 204.93358949999998,
          "velocity": 0.7165354330708661
        },
        {
          "duration": 0.133333499999992,
          "durationTicks": 48,
          "midi": 50,
          "name": "D3",
          "ticks": 73824,
          "time": 205.066923,
          "velocity": 0.8110236220472441
        },
        {
          "duration": 0.133333499999992,
          "durationTicks": 48,
          "midi": 43,
          "name": "G2",
          "ticks": 73872,
          "time": 205.2002565,
          "velocity": 0.8110236220472441
        },
        {
          "duration": 0.133333499999992,
          "durationTicks": 48,
          "midi": 49,
          "name": "C#3",
          "ticks": 73920,
          "time": 205.33359,
          "velocity": 0.8110236220472441
        },
        {
          "duration": 0.13333350000002042,
          "durationTicks": 48,
          "midi": 43,
          "name": "G2",
          "ticks": 73968,
          "time": 205.46692349999998,
          "velocity": 0.8110236220472441
        },
        {
          "duration": 0.133333499999992,
          "durationTicks": 48,
          "midi": 50,
          "name": "D3",
          "ticks": 74016,
          "time": 205.600257,
          "velocity": 0.8110236220472441
        },
        {
          "duration": 0.133333499999992,
          "durationTicks": 48,
          "midi": 43,
          "name": "G2",
          "ticks": 74064,
          "time": 205.7335905,
          "velocity": 0.8110236220472441
        },
        {
          "duration": 0.13333350000002042,
          "durationTicks": 48,
          "midi": 51,
          "name": "D#3",
          "ticks": 74112,
          "time": 205.86692399999998,
          "velocity": 0.8110236220472441
        },
        {
          "duration": 0.133333499999992,
          "durationTicks": 48,
          "midi": 43,
          "name": "G2",
          "ticks": 74160,
          "time": 206.0002575,
          "velocity": 0.8110236220472441
        },
        {
          "duration": 0.066666749999996,
          "durationTicks": 24,
          "midi": 55,
          "name": "G3",
          "ticks": 74160,
          "time": 206.0002575,
          "velocity": 0.8110236220472441
        },
        {
          "duration": 0.066666749999996,
          "durationTicks": 24,
          "midi": 54,
          "name": "F#3",
          "ticks": 74184,
          "time": 206.06692425,
          "velocity": 0.8110236220472441
        },
        {
          "duration": 0.066666749999996,
          "durationTicks": 24,
          "midi": 53,
          "name": "F3",
          "ticks": 74208,
          "time": 206.133591,
          "velocity": 0.8110236220472441
        },
        {
          "duration": 0.066666749999996,
          "durationTicks": 24,
          "midi": 52,
          "name": "E3",
          "ticks": 74232,
          "time": 206.20025775,
          "velocity": 0.8110236220472441
        },
        {
          "duration": 0.066666749999996,
          "durationTicks": 24,
          "midi": 51,
          "name": "D#3",
          "ticks": 74256,
          "time": 206.2669245,
          "velocity": 0.8110236220472441
        },
        {
          "duration": 0.066666749999996,
          "durationTicks": 24,
          "midi": 50,
          "name": "D3",
          "ticks": 74280,
          "time": 206.33359124999998,
          "velocity": 0.8110236220472441
        },
        {
          "duration": 0.13333350000002042,
          "durationTicks": 48,
          "midi": 49,
          "name": "C#3",
          "ticks": 74304,
          "time": 206.40025799999998,
          "velocity": 0.8110236220472441
        },
        {
          "duration": 0.133333499999992,
          "durationTicks": 48,
          "midi": 43,
          "name": "G2",
          "ticks": 74352,
          "time": 206.5335915,
          "velocity": 0.8110236220472441
        },
        {
          "duration": 0.133333499999992,
          "durationTicks": 48,
          "midi": 50,
          "name": "D3",
          "ticks": 74400,
          "time": 206.666925,
          "velocity": 0.8110236220472441
        },
        {
          "duration": 0.133333499999992,
          "durationTicks": 48,
          "midi": 43,
          "name": "G2",
          "ticks": 74448,
          "time": 206.80025849999998,
          "velocity": 0.8110236220472441
        },
        {
          "duration": 0.13333350000002042,
          "durationTicks": 48,
          "midi": 46,
          "name": "A#2",
          "ticks": 74496,
          "time": 206.93359199999998,
          "velocity": 0.8110236220472441
        },
        {
          "duration": 0.133333499999992,
          "durationTicks": 48,
          "midi": 38,
          "name": "D2",
          "ticks": 74544,
          "time": 207.0669255,
          "velocity": 0.8110236220472441
        },
        {
          "duration": 0.133333499999992,
          "durationTicks": 48,
          "midi": 50,
          "name": "D3",
          "ticks": 74592,
          "time": 207.200259,
          "velocity": 0.8110236220472441
        },
        {
          "duration": 0.13333350000002042,
          "durationTicks": 48,
          "midi": 43,
          "name": "G2",
          "ticks": 74640,
          "time": 207.33359249999998,
          "velocity": 0.8110236220472441
        },
        {
          "duration": 0.133333499999992,
          "durationTicks": 48,
          "midi": 49,
          "name": "C#3",
          "ticks": 74688,
          "time": 207.466926,
          "velocity": 0.8110236220472441
        },
        {
          "duration": 0.133333499999992,
          "durationTicks": 48,
          "midi": 43,
          "name": "G2",
          "ticks": 74736,
          "time": 207.6002595,
          "velocity": 0.8110236220472441
        },
        {
          "duration": 0.133333499999992,
          "durationTicks": 48,
          "midi": 50,
          "name": "D3",
          "ticks": 74784,
          "time": 207.73359299999998,
          "velocity": 0.8110236220472441
        },
        {
          "duration": 0.13333350000002042,
          "durationTicks": 48,
          "midi": 43,
          "name": "G2",
          "ticks": 74832,
          "time": 207.86692649999998,
          "velocity": 0.8110236220472441
        },
        {
          "duration": 0.133333499999992,
          "durationTicks": 48,
          "midi": 51,
          "name": "D#3",
          "ticks": 74880,
          "time": 208.00026,
          "velocity": 0.8110236220472441
        },
        {
          "duration": 0.133333499999992,
          "durationTicks": 48,
          "midi": 43,
          "name": "G2",
          "ticks": 74928,
          "time": 208.1335935,
          "velocity": 0.8110236220472441
        },
        {
          "duration": 0.13333350000002042,
          "durationTicks": 48,
          "midi": 49,
          "name": "C#3",
          "ticks": 74976,
          "time": 208.26692699999998,
          "velocity": 0.8110236220472441
        },
        {
          "duration": 0.133333499999992,
          "durationTicks": 48,
          "midi": 43,
          "name": "G2",
          "ticks": 75024,
          "time": 208.4002605,
          "velocity": 0.8110236220472441
        },
        {
          "duration": 0.133333499999992,
          "durationTicks": 48,
          "midi": 50,
          "name": "D3",
          "ticks": 75072,
          "time": 208.533594,
          "velocity": 0.8110236220472441
        },
        {
          "duration": 0.133333499999992,
          "durationTicks": 48,
          "midi": 43,
          "name": "G2",
          "ticks": 75120,
          "time": 208.66692749999999,
          "velocity": 0.8110236220472441
        },
        {
          "duration": 0.04444449999999733,
          "durationTicks": 16,
          "midi": 38,
          "name": "D2",
          "ticks": 75168,
          "time": 208.80026099999998,
          "velocity": 0.7165354330708661
        },
        {
          "duration": 0.04444449999996891,
          "durationTicks": 16,
          "midi": 38,
          "name": "D2",
          "ticks": 75216,
          "time": 208.9335945,
          "velocity": 0.7165354330708661
        },
        {
          "duration": 0.133333499999992,
          "durationTicks": 48,
          "midi": 46,
          "name": "A#2",
          "ticks": 75264,
          "time": 209.066928,
          "velocity": 0.8110236220472441
        },
        {
          "duration": 0.13333350000002042,
          "durationTicks": 48,
          "midi": 38,
          "name": "D2",
          "ticks": 75312,
          "time": 209.20026149999998,
          "velocity": 0.7165354330708661
        },
        {
          "duration": 0.133333499999992,
          "durationTicks": 48,
          "midi": 50,
          "name": "D3",
          "ticks": 75360,
          "time": 209.333595,
          "velocity": 0.8110236220472441
        },
        {
          "duration": 0.133333499999992,
          "durationTicks": 48,
          "midi": 43,
          "name": "G2",
          "ticks": 75408,
          "time": 209.4669285,
          "velocity": 0.8110236220472441
        },
        {
          "duration": 0.133333499999992,
          "durationTicks": 48,
          "midi": 49,
          "name": "C#3",
          "ticks": 75456,
          "time": 209.600262,
          "velocity": 0.8110236220472441
        },
        {
          "duration": 0.13333350000002042,
          "durationTicks": 48,
          "midi": 43,
          "name": "G2",
          "ticks": 75504,
          "time": 209.73359549999998,
          "velocity": 0.8110236220472441
        },
        {
          "duration": 0.133333499999992,
          "durationTicks": 48,
          "midi": 50,
          "name": "D3",
          "ticks": 75552,
          "time": 209.866929,
          "velocity": 0.8110236220472441
        },
        {
          "duration": 0.133333499999992,
          "durationTicks": 48,
          "midi": 43,
          "name": "G2",
          "ticks": 75600,
          "time": 210.0002625,
          "velocity": 0.8110236220472441
        },
        {
          "duration": 0.13333350000002042,
          "durationTicks": 48,
          "midi": 51,
          "name": "D#3",
          "ticks": 75648,
          "time": 210.13359599999998,
          "velocity": 0.8110236220472441
        },
        {
          "duration": 0.133333499999992,
          "durationTicks": 48,
          "midi": 52,
          "name": "E3",
          "ticks": 75696,
          "time": 210.2669295,
          "velocity": 0.8110236220472441
        },
        {
          "duration": 0.133333499999992,
          "durationTicks": 48,
          "midi": 53,
          "name": "F3",
          "ticks": 75744,
          "time": 210.400263,
          "velocity": 0.8110236220472441
        },
        {
          "duration": 0.133333499999992,
          "durationTicks": 48,
          "midi": 54,
          "name": "F#3",
          "ticks": 75792,
          "time": 210.5335965,
          "velocity": 0.8110236220472441
        },
        {
          "duration": 0.13333350000002042,
          "durationTicks": 48,
          "midi": 55,
          "name": "G3",
          "ticks": 75840,
          "time": 210.66692999999998,
          "velocity": 0.8110236220472441
        },
        {
          "duration": 0.133333499999992,
          "durationTicks": 48,
          "midi": 56,
          "name": "G#3",
          "ticks": 75888,
          "time": 210.8002635,
          "velocity": 0.8110236220472441
        },
        {
          "duration": 0.133333499999992,
          "durationTicks": 48,
          "midi": 57,
          "name": "A3",
          "ticks": 75936,
          "time": 210.933597,
          "velocity": 0.8110236220472441
        },
        {
          "duration": 0.13333350000002042,
          "durationTicks": 48,
          "midi": 58,
          "name": "A#3",
          "ticks": 75984,
          "time": 211.06693049999998,
          "velocity": 0.8110236220472441
        },
        {
          "duration": 0.133333499999992,
          "durationTicks": 48,
          "midi": 59,
          "name": "B3",
          "ticks": 76032,
          "time": 211.200264,
          "velocity": 0.8110236220472441
        },
        {
          "duration": 0.133333499999992,
          "durationTicks": 48,
          "midi": 60,
          "name": "C4",
          "ticks": 76080,
          "time": 211.3335975,
          "velocity": 0.8110236220472441
        },
        {
          "duration": 0.133333499999992,
          "durationTicks": 48,
          "midi": 61,
          "name": "C#4",
          "ticks": 76128,
          "time": 211.466931,
          "velocity": 0.8110236220472441
        },
        {
          "duration": 0.13333350000002042,
          "durationTicks": 48,
          "midi": 62,
          "name": "D4",
          "ticks": 76176,
          "time": 211.60026449999998,
          "velocity": 0.8110236220472441
        },
        {
          "duration": 0.133333499999992,
          "durationTicks": 48,
          "midi": 47,
          "name": "B2",
          "ticks": 76416,
          "time": 212.266932,
          "velocity": 0.8110236220472441
        },
        {
          "duration": 0.133333499999992,
          "durationTicks": 48,
          "midi": 48,
          "name": "C3",
          "ticks": 76416,
          "time": 212.266932,
          "velocity": 0.8110236220472441
        },
        {
          "duration": 0.133333499999992,
          "durationTicks": 48,
          "midi": 40,
          "name": "E2",
          "ticks": 76464,
          "time": 212.4002655,
          "velocity": 0.8110236220472441
        },
        {
          "duration": 0.133333499999992,
          "durationTicks": 48,
          "midi": 39,
          "name": "D#2",
          "ticks": 76464,
          "time": 212.4002655,
          "velocity": 0.8110236220472441
        },
        {
          "duration": 0.13333350000002042,
          "durationTicks": 48,
          "midi": 52,
          "name": "E3",
          "ticks": 76512,
          "time": 212.53359899999998,
          "velocity": 0.8110236220472441
        },
        {
          "duration": 0.13333350000002042,
          "durationTicks": 48,
          "midi": 51,
          "name": "D#3",
          "ticks": 76512,
          "time": 212.53359899999998,
          "velocity": 0.8110236220472441
        },
        {
          "duration": 0.133333499999992,
          "durationTicks": 48,
          "midi": 45,
          "name": "A2",
          "ticks": 76560,
          "time": 212.6669325,
          "velocity": 0.8110236220472441
        },
        {
          "duration": 0.133333499999992,
          "durationTicks": 48,
          "midi": 44,
          "name": "G#2",
          "ticks": 76560,
          "time": 212.6669325,
          "velocity": 0.8110236220472441
        },
        {
          "duration": 0.133333499999992,
          "durationTicks": 48,
          "midi": 51,
          "name": "D#3",
          "ticks": 76608,
          "time": 212.800266,
          "velocity": 0.8110236220472441
        },
        {
          "duration": 0.133333499999992,
          "durationTicks": 48,
          "midi": 50,
          "name": "D3",
          "ticks": 76608,
          "time": 212.800266,
          "velocity": 0.8110236220472441
        },
        {
          "duration": 0.133333499999992,
          "durationTicks": 48,
          "midi": 44,
          "name": "G#2",
          "ticks": 76656,
          "time": 212.93359949999999,
          "velocity": 0.8110236220472441
        },
        {
          "duration": 0.133333499999992,
          "durationTicks": 48,
          "midi": 45,
          "name": "A2",
          "ticks": 76656,
          "time": 212.93359949999999,
          "velocity": 0.8110236220472441
        },
        {
          "duration": 0.13333350000002042,
          "durationTicks": 48,
          "midi": 52,
          "name": "E3",
          "ticks": 76704,
          "time": 213.06693299999998,
          "velocity": 0.8110236220472441
        },
        {
          "duration": 0.13333350000002042,
          "durationTicks": 48,
          "midi": 51,
          "name": "D#3",
          "ticks": 76704,
          "time": 213.06693299999998,
          "velocity": 0.8110236220472441
        },
        {
          "duration": 0.133333499999992,
          "durationTicks": 48,
          "midi": 45,
          "name": "A2",
          "ticks": 76752,
          "time": 213.2002665,
          "velocity": 0.8110236220472441
        },
        {
          "duration": 0.133333499999992,
          "durationTicks": 48,
          "midi": 44,
          "name": "G#2",
          "ticks": 76752,
          "time": 213.2002665,
          "velocity": 0.8110236220472441
        },
        {
          "duration": 0.133333499999992,
          "durationTicks": 48,
          "midi": 53,
          "name": "F3",
          "ticks": 76800,
          "time": 213.3336,
          "velocity": 0.8110236220472441
        },
        {
          "duration": 0.133333499999992,
          "durationTicks": 48,
          "midi": 52,
          "name": "E3",
          "ticks": 76800,
          "time": 213.3336,
          "velocity": 0.8110236220472441
        },
        {
          "duration": 0.13333350000002042,
          "durationTicks": 48,
          "midi": 45,
          "name": "A2",
          "ticks": 76848,
          "time": 213.46693349999998,
          "velocity": 0.8110236220472441
        },
        {
          "duration": 0.13333350000002042,
          "durationTicks": 48,
          "midi": 44,
          "name": "G#2",
          "ticks": 76848,
          "time": 213.46693349999998,
          "velocity": 0.8110236220472441
        },
        {
          "duration": 0.133333499999992,
          "durationTicks": 48,
          "midi": 50,
          "name": "D3",
          "ticks": 76896,
          "time": 213.600267,
          "velocity": 0.8110236220472441
        },
        {
          "duration": 0.133333499999992,
          "durationTicks": 48,
          "midi": 51,
          "name": "D#3",
          "ticks": 76896,
          "time": 213.600267,
          "velocity": 0.8110236220472441
        },
        {
          "duration": 0.133333499999992,
          "durationTicks": 48,
          "midi": 44,
          "name": "G#2",
          "ticks": 76944,
          "time": 213.7336005,
          "velocity": 0.8110236220472441
        },
        {
          "duration": 0.133333499999992,
          "durationTicks": 48,
          "midi": 45,
          "name": "A2",
          "ticks": 76944,
          "time": 213.7336005,
          "velocity": 0.8110236220472441
        },
        {
          "duration": 0.12244899999998893,
          "durationTicks": 48,
          "midi": 48,
          "name": "C3",
          "ticks": 77184,
          "time": 214.40026799999998,
          "velocity": 0.8110236220472441
        },
        {
          "duration": 0.12244899999998893,
          "durationTicks": 48,
          "midi": 47,
          "name": "B2",
          "ticks": 77184,
          "time": 214.40026799999998,
          "velocity": 0.8110236220472441
        },
        {
          "duration": 0.12244900000001735,
          "durationTicks": 48,
          "midi": 39,
          "name": "D#2",
          "ticks": 77232,
          "time": 214.52271699999997,
          "velocity": 0.8110236220472441
        },
        {
          "duration": 0.12244900000001735,
          "durationTicks": 48,
          "midi": 40,
          "name": "E2",
          "ticks": 77232,
          "time": 214.52271699999997,
          "velocity": 0.8110236220472441
        },
        {
          "duration": 0.12244899999998893,
          "durationTicks": 48,
          "midi": 52,
          "name": "E3",
          "ticks": 77280,
          "time": 214.645166,
          "velocity": 0.8110236220472441
        },
        {
          "duration": 0.12244899999998893,
          "durationTicks": 48,
          "midi": 51,
          "name": "D#3",
          "ticks": 77280,
          "time": 214.645166,
          "velocity": 0.8110236220472441
        },
        {
          "duration": 0.12244900000001735,
          "durationTicks": 48,
          "midi": 44,
          "name": "G#2",
          "ticks": 77328,
          "time": 214.76761499999998,
          "velocity": 0.8110236220472441
        },
        {
          "duration": 0.12244900000001735,
          "durationTicks": 48,
          "midi": 45,
          "name": "A2",
          "ticks": 77328,
          "time": 214.76761499999998,
          "velocity": 0.8110236220472441
        },
        {
          "duration": 0.12244899999998893,
          "durationTicks": 48,
          "midi": 50,
          "name": "D3",
          "ticks": 77376,
          "time": 214.890064,
          "velocity": 0.8110236220472441
        },
        {
          "duration": 0.12244899999998893,
          "durationTicks": 48,
          "midi": 51,
          "name": "D#3",
          "ticks": 77376,
          "time": 214.890064,
          "velocity": 0.8110236220472441
        },
        {
          "duration": 0.12244899999998893,
          "durationTicks": 48,
          "midi": 44,
          "name": "G#2",
          "ticks": 77424,
          "time": 215.01251299999998,
          "velocity": 0.8110236220472441
        },
        {
          "duration": 0.12244899999998893,
          "durationTicks": 48,
          "midi": 45,
          "name": "A2",
          "ticks": 77424,
          "time": 215.01251299999998,
          "velocity": 0.8110236220472441
        },
        {
          "duration": 0.12244900000001735,
          "durationTicks": 48,
          "midi": 52,
          "name": "E3",
          "ticks": 77472,
          "time": 215.13496199999997,
          "velocity": 0.8110236220472441
        },
        {
          "duration": 0.12244900000001735,
          "durationTicks": 48,
          "midi": 51,
          "name": "D#3",
          "ticks": 77472,
          "time": 215.13496199999997,
          "velocity": 0.8110236220472441
        },
        {
          "duration": 0.12244899999998893,
          "durationTicks": 48,
          "midi": 44,
          "name": "G#2",
          "ticks": 77520,
          "time": 215.257411,
          "velocity": 0.8110236220472441
        },
        {
          "duration": 0.12244899999998893,
          "durationTicks": 48,
          "midi": 45,
          "name": "A2",
          "ticks": 77520,
          "time": 215.257411,
          "velocity": 0.8110236220472441
        },
        {
          "duration": 0.12244900000001735,
          "durationTicks": 48,
          "midi": 53,
          "name": "F3",
          "ticks": 77568,
          "time": 215.37985999999998,
          "velocity": 0.8110236220472441
        },
        {
          "duration": 0.12244900000001735,
          "durationTicks": 48,
          "midi": 52,
          "name": "E3",
          "ticks": 77568,
          "time": 215.37985999999998,
          "velocity": 0.8110236220472441
        },
        {
          "duration": 0.12244899999998893,
          "durationTicks": 48,
          "midi": 44,
          "name": "G#2",
          "ticks": 77616,
          "time": 215.502309,
          "velocity": 0.8110236220472441
        },
        {
          "duration": 0.12244899999998893,
          "durationTicks": 48,
          "midi": 45,
          "name": "A2",
          "ticks": 77616,
          "time": 215.502309,
          "velocity": 0.8110236220472441
        },
        {
          "duration": 0.12244899999998893,
          "durationTicks": 48,
          "midi": 51,
          "name": "D#3",
          "ticks": 77664,
          "time": 215.62475799999999,
          "velocity": 0.8110236220472441
        },
        {
          "duration": 0.12244899999998893,
          "durationTicks": 48,
          "midi": 50,
          "name": "D3",
          "ticks": 77664,
          "time": 215.62475799999999,
          "velocity": 0.8110236220472441
        },
        {
          "duration": 0.12244900000001735,
          "durationTicks": 48,
          "midi": 44,
          "name": "G#2",
          "ticks": 77712,
          "time": 215.74720699999997,
          "velocity": 0.8110236220472441
        },
        {
          "duration": 0.12244900000001735,
          "durationTicks": 48,
          "midi": 45,
          "name": "A2",
          "ticks": 77712,
          "time": 215.74720699999997,
          "velocity": 0.8110236220472441
        },
        {
          "duration": 0.11320749999998725,
          "durationTicks": 48,
          "midi": 47,
          "name": "B2",
          "ticks": 77952,
          "time": 216.35945199999998,
          "velocity": 0.8110236220472441
        },
        {
          "duration": 0.11320749999998725,
          "durationTicks": 48,
          "midi": 48,
          "name": "C3",
          "ticks": 77952,
          "time": 216.35945199999998,
          "velocity": 0.8110236220472441
        },
        {
          "duration": 0.11320750000001567,
          "durationTicks": 48,
          "midi": 39,
          "name": "D#2",
          "ticks": 78000,
          "time": 216.47265949999996,
          "velocity": 0.8110236220472441
        },
        {
          "duration": 0.11320750000001567,
          "durationTicks": 48,
          "midi": 40,
          "name": "E2",
          "ticks": 78000,
          "time": 216.47265949999996,
          "velocity": 0.8110236220472441
        },
        {
          "duration": 0.11320749999998725,
          "durationTicks": 48,
          "midi": 52,
          "name": "E3",
          "ticks": 78048,
          "time": 216.58586699999998,
          "velocity": 0.8110236220472441
        },
        {
          "duration": 0.11320749999998725,
          "durationTicks": 48,
          "midi": 51,
          "name": "D#3",
          "ticks": 78048,
          "time": 216.58586699999998,
          "velocity": 0.8110236220472441
        },
        {
          "duration": 0.11320750000001567,
          "durationTicks": 48,
          "midi": 44,
          "name": "G#2",
          "ticks": 78096,
          "time": 216.69907449999997,
          "velocity": 0.8110236220472441
        },
        {
          "duration": 0.11320750000001567,
          "durationTicks": 48,
          "midi": 45,
          "name": "A2",
          "ticks": 78096,
          "time": 216.69907449999997,
          "velocity": 0.8110236220472441
        },
        {
          "duration": 0.11320749999998725,
          "durationTicks": 48,
          "midi": 51,
          "name": "D#3",
          "ticks": 78144,
          "time": 216.81228199999998,
          "velocity": 0.8110236220472441
        },
        {
          "duration": 0.11320749999998725,
          "durationTicks": 48,
          "midi": 50,
          "name": "D3",
          "ticks": 78144,
          "time": 216.81228199999998,
          "velocity": 0.8110236220472441
        },
        {
          "duration": 0.11320750000001567,
          "durationTicks": 48,
          "midi": 44,
          "name": "G#2",
          "ticks": 78192,
          "time": 216.92548949999997,
          "velocity": 0.8110236220472441
        },
        {
          "duration": 0.11320750000001567,
          "durationTicks": 48,
          "midi": 45,
          "name": "A2",
          "ticks": 78192,
          "time": 216.92548949999997,
          "velocity": 0.8110236220472441
        },
        {
          "duration": 0.11320749999998725,
          "durationTicks": 48,
          "midi": 52,
          "name": "E3",
          "ticks": 78240,
          "time": 217.03869699999998,
          "velocity": 0.8110236220472441
        },
        {
          "duration": 0.11320749999998725,
          "durationTicks": 48,
          "midi": 51,
          "name": "D#3",
          "ticks": 78240,
          "time": 217.03869699999998,
          "velocity": 0.8110236220472441
        },
        {
          "duration": 0.11320750000001567,
          "durationTicks": 48,
          "midi": 45,
          "name": "A2",
          "ticks": 78288,
          "time": 217.15190449999997,
          "velocity": 0.8110236220472441
        },
        {
          "duration": 0.11320750000001567,
          "durationTicks": 48,
          "midi": 44,
          "name": "G#2",
          "ticks": 78288,
          "time": 217.15190449999997,
          "velocity": 0.8110236220472441
        },
        {
          "duration": 0.11320749999998725,
          "durationTicks": 48,
          "midi": 52,
          "name": "E3",
          "ticks": 78336,
          "time": 217.265112,
          "velocity": 0.8110236220472441
        },
        {
          "duration": 0.11320749999998725,
          "durationTicks": 48,
          "midi": 53,
          "name": "F3",
          "ticks": 78336,
          "time": 217.265112,
          "velocity": 0.8110236220472441
        },
        {
          "duration": 0.11320749999998725,
          "durationTicks": 48,
          "midi": 44,
          "name": "G#2",
          "ticks": 78384,
          "time": 217.37831949999998,
          "velocity": 0.8110236220472441
        },
        {
          "duration": 0.11320749999998725,
          "durationTicks": 48,
          "midi": 45,
          "name": "A2",
          "ticks": 78384,
          "time": 217.37831949999998,
          "velocity": 0.8110236220472441
        },
        {
          "duration": 0.11320750000001567,
          "durationTicks": 48,
          "midi": 50,
          "name": "D3",
          "ticks": 78432,
          "time": 217.49152699999996,
          "velocity": 0.8110236220472441
        },
        {
          "duration": 0.11320750000001567,
          "durationTicks": 48,
          "midi": 51,
          "name": "D#3",
          "ticks": 78432,
          "time": 217.49152699999996,
          "velocity": 0.8110236220472441
        },
        {
          "duration": 0.11320749999998725,
          "durationTicks": 48,
          "midi": 44,
          "name": "G#2",
          "ticks": 78480,
          "time": 217.60473449999998,
          "velocity": 0.8110236220472441
        },
        {
          "duration": 0.11320749999998725,
          "durationTicks": 48,
          "midi": 45,
          "name": "A2",
          "ticks": 78480,
          "time": 217.60473449999998,
          "velocity": 0.8110236220472441
        }
      ],
      "endOfTrackTicks": 82491
    },
    {
      "channel": 10,
      "controlChanges": {
        "6": [
          {
            "number": 6,
            "ticks": 0,
            "time": 0,
            "value": 0.09448818897637795
          },
          {
            "number": 6,
            "ticks": 0,
            "time": 0,
            "value": 0.09448818897637795
          },
          {
            "number": 6,
            "ticks": 0,
            "time": 0,
            "value": 0.09448818897637795
          },
          {
            "number": 6,
            "ticks": 82466,
            "time": 228.45777604166662,
            "value": 0.09448818897637795
          },
          {
            "number": 6,
            "ticks": 82491,
            "time": 228.52722057291663,
            "value": 0.09448818897637795
          }
        ],
        "7": [
          {
            "number": 7,
            "ticks": 0,
            "time": 0,
            "value": 0.7874015748031497
          },
          {
            "number": 7,
            "ticks": 0,
            "time": 0,
            "value": 0.7874015748031497
          },
          {
            "number": 7,
            "ticks": 0,
            "time": 0,
            "value": 0.7874015748031497
          },
          {
            "number": 7,
            "ticks": 0,
            "time": 0,
            "value": 0.7874015748031497
          },
          {
            "number": 7,
            "ticks": 82466,
            "time": 228.45777604166662,
            "value": 0.7874015748031497
          },
          {
            "number": 7,
            "ticks": 82491,
            "time": 228.52722057291663,
            "value": 0.7874015748031497
          }
        ],
        "10": [
          {
            "number": 10,
            "ticks": 0,
            "time": 0,
            "value": 0.5039370078740157
          },
          {
            "number": 10,
            "ticks": 0,
            "time": 0,
            "value": 0.5039370078740157
          },
          {
            "number": 10,
            "ticks": 0,
            "time": 0,
            "value": 0.5039370078740157
          },
          {
            "number": 10,
            "ticks": 0,
            "time": 0,
            "value": 0.5039370078740157
          },
          {
            "number": 10,
            "ticks": 82466,
            "time": 228.45777604166662,
            "value": 0.5039370078740157
          },
          {
            "number": 10,
            "ticks": 82491,
            "time": 228.52722057291663,
            "value": 0.5039370078740157
          }
        ],
        "100": [
          {
            "number": 100,
            "ticks": 0,
            "time": 0,
            "value": 0
          },
          {
            "number": 100,
            "ticks": 0,
            "time": 0,
            "value": 0
          },
          {
            "number": 100,
            "ticks": 0,
            "time": 0,
            "value": 0
          },
          {
            "number": 100,
            "ticks": 82466,
            "time": 228.45777604166662,
            "value": 0
          },
          {
            "number": 100,
            "ticks": 82491,
            "time": 228.52722057291663,
            "value": 0
          }
        ],
        "101": [
          {
            "number": 101,
            "ticks": 0,
            "time": 0,
            "value": 0
          },
          {
            "number": 101,
            "ticks": 0,
            "time": 0,
            "value": 0
          },
          {
            "number": 101,
            "ticks": 0,
            "time": 0,
            "value": 0
          },
          {
            "number": 101,
            "ticks": 82466,
            "time": 228.45777604166662,
            "value": 0
          },
          {
            "number": 101,
            "ticks": 82491,
            "time": 228.52722057291663,
            "value": 0
          }
        ]
      },
      "pitchBends": [
        {
          "ticks": 0,
          "time": 0,
          "value": 0
        },
        {
          "ticks": 0,
          "time": 0,
          "value": 0
        },
        {
          "ticks": 0,
          "time": 0,
          "value": 0
        },
        {
          "ticks": 0,
          "time": 0,
          "value": 0
        },
        {
          "ticks": 82466,
          "time": 228.45777604166662,
          "value": 0
        },
        {
          "ticks": 82491,
          "time": 228.52722057291663,
          "value": 0
        }
      ],
      "instrument": {
        "family": "piano",
        "number": 0,
        "name": "acoustic grand piano"
      },
      "name": "Crazy Piano #2",
      "notes": [
        {
          "duration": 0.13333350000002042,
          "durationTicks": 48,
          "midi": 82,
          "name": "A#5",
          "ticks": 61824,
          "time": 171.73354799999998,
          "velocity": 0.6929133858267716
        },
        {
          "duration": 0.13333350000002042,
          "durationTicks": 48,
          "midi": 87,
          "name": "D#6",
          "ticks": 61824,
          "time": 171.73354799999998,
          "velocity": 0.6929133858267716
        },
        {
          "duration": 0.066666749999996,
          "durationTicks": 24,
          "midi": 75,
          "name": "D#5",
          "ticks": 61872,
          "time": 171.8668815,
          "velocity": 0.6929133858267716
        },
        {
          "duration": 0.133333499999992,
          "durationTicks": 48,
          "midi": 85,
          "name": "C#6",
          "ticks": 61896,
          "time": 171.93354825,
          "velocity": 0.6929133858267716
        },
        {
          "duration": 0.133333499999992,
          "durationTicks": 48,
          "midi": 78,
          "name": "F#5",
          "ticks": 61896,
          "time": 171.93354825,
          "velocity": 0.6929133858267716
        },
        {
          "duration": 0.066666749999996,
          "durationTicks": 24,
          "midi": 81,
          "name": "A5",
          "ticks": 61944,
          "time": 172.06688175,
          "velocity": 0.6929133858267716
        },
        {
          "duration": 0.066666749999996,
          "durationTicks": 24,
          "midi": 80,
          "name": "G#5",
          "ticks": 61968,
          "time": 172.1335485,
          "velocity": 0.6929133858267716
        },
        {
          "duration": 0.066666749999996,
          "durationTicks": 24,
          "midi": 78,
          "name": "F#5",
          "ticks": 61992,
          "time": 172.20021524999999,
          "velocity": 0.6929133858267716
        },
        {
          "duration": 0.13333350000002042,
          "durationTicks": 48,
          "midi": 74,
          "name": "D5",
          "ticks": 62016,
          "time": 172.26688199999998,
          "velocity": 0.6929133858267716
        },
        {
          "duration": 0.13333350000002042,
          "durationTicks": 48,
          "midi": 80,
          "name": "G#5",
          "ticks": 62016,
          "time": 172.26688199999998,
          "velocity": 0.6929133858267716
        },
        {
          "duration": 0.066666749999996,
          "durationTicks": 24,
          "midi": 81,
          "name": "A5",
          "ticks": 62064,
          "time": 172.4002155,
          "velocity": 0.6929133858267716
        },
        {
          "duration": 0.066666749999996,
          "durationTicks": 24,
          "midi": 75,
          "name": "D#5",
          "ticks": 62064,
          "time": 172.4002155,
          "velocity": 0.6929133858267716
        },
        {
          "duration": 0.133333499999992,
          "durationTicks": 48,
          "midi": 82,
          "name": "A#5",
          "ticks": 62088,
          "time": 172.46688225,
          "velocity": 0.6929133858267716
        },
        {
          "duration": 0.133333499999992,
          "durationTicks": 48,
          "midi": 77,
          "name": "F5",
          "ticks": 62088,
          "time": 172.46688225,
          "velocity": 0.6929133858267716
        },
        {
          "duration": 0.066666749999996,
          "durationTicks": 24,
          "midi": 70,
          "name": "A#4",
          "ticks": 62136,
          "time": 172.60021575,
          "velocity": 0.6929133858267716
        },
        {
          "duration": 0.133333499999992,
          "durationTicks": 48,
          "midi": 89,
          "name": "F6",
          "ticks": 62160,
          "time": 172.66688249999999,
          "velocity": 0.6929133858267716
        },
        {
          "duration": 0.133333499999992,
          "durationTicks": 48,
          "midi": 86,
          "name": "D6",
          "ticks": 62160,
          "time": 172.66688249999999,
          "velocity": 0.6929133858267716
        },
        {
          "duration": 0.13333350000002042,
          "durationTicks": 48,
          "midi": 87,
          "name": "D#6",
          "ticks": 62208,
          "time": 172.80021599999998,
          "velocity": 0.6929133858267716
        },
        {
          "duration": 0.13333350000002042,
          "durationTicks": 48,
          "midi": 90,
          "name": "F#6",
          "ticks": 62208,
          "time": 172.80021599999998,
          "velocity": 0.6929133858267716
        },
        {
          "duration": 0.066666749999996,
          "durationTicks": 24,
          "midi": 75,
          "name": "D#5",
          "ticks": 62256,
          "time": 172.9335495,
          "velocity": 0.6929133858267716
        },
        {
          "duration": 0.066666749999996,
          "durationTicks": 24,
          "midi": 80,
          "name": "G#5",
          "ticks": 62280,
          "time": 173.00021625,
          "velocity": 0.6929133858267716
        },
        {
          "duration": 0.066666749999996,
          "durationTicks": 24,
          "midi": 82,
          "name": "A#5",
          "ticks": 62304,
          "time": 173.066883,
          "velocity": 0.6929133858267716
        },
        {
          "duration": 0.066666749999996,
          "durationTicks": 24,
          "midi": 85,
          "name": "C#6",
          "ticks": 62328,
          "time": 173.13354975,
          "velocity": 0.6929133858267716
        },
        {
          "duration": 0.066666749999996,
          "durationTicks": 24,
          "midi": 80,
          "name": "G#5",
          "ticks": 62352,
          "time": 173.20021649999998,
          "velocity": 0.6929133858267716
        },
        {
          "duration": 0.06666675000002442,
          "durationTicks": 24,
          "midi": 81,
          "name": "A5",
          "ticks": 62376,
          "time": 173.26688324999998,
          "velocity": 0.6929133858267716
        },
        {
          "duration": 0.066666749999996,
          "durationTicks": 24,
          "midi": 80,
          "name": "G#5",
          "ticks": 62400,
          "time": 173.33355,
          "velocity": 0.6929133858267716
        },
        {
          "duration": 0.066666749999996,
          "durationTicks": 24,
          "midi": 78,
          "name": "F#5",
          "ticks": 62424,
          "time": 173.40021675,
          "velocity": 0.6929133858267716
        },
        {
          "duration": 0.133333499999992,
          "durationTicks": 48,
          "midi": 75,
          "name": "D#5",
          "ticks": 62448,
          "time": 173.4668835,
          "velocity": 0.6929133858267716
        },
        {
          "duration": 0.066666749999996,
          "durationTicks": 24,
          "midi": 68,
          "name": "G#4",
          "ticks": 62496,
          "time": 173.600217,
          "velocity": 0.6929133858267716
        },
        {
          "duration": 0.066666749999996,
          "durationTicks": 24,
          "midi": 73,
          "name": "C#5",
          "ticks": 62496,
          "time": 173.600217,
          "velocity": 0.6929133858267716
        },
        {
          "duration": 0.066666749999996,
          "durationTicks": 24,
          "midi": 70,
          "name": "A#4",
          "ticks": 62520,
          "time": 173.66688374999998,
          "velocity": 0.6929133858267716
        },
        {
          "duration": 0.066666749999996,
          "durationTicks": 24,
          "midi": 75,
          "name": "D#5",
          "ticks": 62520,
          "time": 173.66688374999998,
          "velocity": 0.6929133858267716
        },
        {
          "duration": 0.06666675000002442,
          "durationTicks": 24,
          "midi": 78,
          "name": "F#5",
          "ticks": 62544,
          "time": 173.73355049999998,
          "velocity": 0.6929133858267716
        },
        {
          "duration": 0.06666675000002442,
          "durationTicks": 24,
          "midi": 73,
          "name": "C#5",
          "ticks": 62544,
          "time": 173.73355049999998,
          "velocity": 0.6929133858267716
        },
        {
          "duration": 0.066666749999996,
          "durationTicks": 24,
          "midi": 75,
          "name": "D#5",
          "ticks": 62568,
          "time": 173.80021725,
          "velocity": 0.6929133858267716
        },
        {
          "duration": 0.066666749999996,
          "durationTicks": 24,
          "midi": 80,
          "name": "G#5",
          "ticks": 62568,
          "time": 173.80021725,
          "velocity": 0.6929133858267716
        },
        {
          "duration": 0.133333499999992,
          "durationTicks": 48,
          "midi": 81,
          "name": "A5",
          "ticks": 62592,
          "time": 173.866884,
          "velocity": 0.6929133858267716
        },
        {
          "duration": 0.133333499999992,
          "durationTicks": 48,
          "midi": 75,
          "name": "D#5",
          "ticks": 62592,
          "time": 173.866884,
          "velocity": 0.6929133858267716
        },
        {
          "duration": 0.066666749999996,
          "durationTicks": 24,
          "midi": 70,
          "name": "A#4",
          "ticks": 62640,
          "time": 174.0002175,
          "velocity": 0.6929133858267716
        },
        {
          "duration": 0.133333499999992,
          "durationTicks": 48,
          "midi": 82,
          "name": "A#5",
          "ticks": 62664,
          "time": 174.06688425,
          "velocity": 0.6929133858267716
        },
        {
          "duration": 0.133333499999992,
          "durationTicks": 48,
          "midi": 75,
          "name": "D#5",
          "ticks": 62664,
          "time": 174.06688425,
          "velocity": 0.6929133858267716
        },
        {
          "duration": 0.06666675000002442,
          "durationTicks": 24,
          "midi": 80,
          "name": "G#5",
          "ticks": 62712,
          "time": 174.20021774999998,
          "velocity": 0.6929133858267716
        },
        {
          "duration": 0.066666749999996,
          "durationTicks": 24,
          "midi": 82,
          "name": "A#5",
          "ticks": 62736,
          "time": 174.2668845,
          "velocity": 0.6929133858267716
        },
        {
          "duration": 0.066666749999996,
          "durationTicks": 24,
          "midi": 85,
          "name": "C#6",
          "ticks": 62760,
          "time": 174.33355125,
          "velocity": 0.6929133858267716
        },
        {
          "duration": 0.066666749999996,
          "durationTicks": 24,
          "midi": 82,
          "name": "A#5",
          "ticks": 62784,
          "time": 174.400218,
          "velocity": 0.6929133858267716
        },
        {
          "duration": 0.066666749999996,
          "durationTicks": 24,
          "midi": 86,
          "name": "D6",
          "ticks": 62784,
          "time": 174.400218,
          "velocity": 0.6929133858267716
        },
        {
          "duration": 0.066666749999996,
          "durationTicks": 24,
          "midi": 82,
          "name": "A#5",
          "ticks": 62808,
          "time": 174.46688475,
          "velocity": 0.6929133858267716
        },
        {
          "duration": 0.066666749999996,
          "durationTicks": 24,
          "midi": 77,
          "name": "F5",
          "ticks": 62808,
          "time": 174.46688475,
          "velocity": 0.6929133858267716
        },
        {
          "duration": 0.066666749999996,
          "durationTicks": 24,
          "midi": 70,
          "name": "A#4",
          "ticks": 62832,
          "time": 174.5335515,
          "velocity": 0.6929133858267716
        },
        {
          "duration": 0.066666749999996,
          "durationTicks": 24,
          "midi": 74,
          "name": "D5",
          "ticks": 62832,
          "time": 174.5335515,
          "velocity": 0.6929133858267716
        },
        {
          "duration": 0.13333350000002042,
          "durationTicks": 48,
          "midi": 80,
          "name": "G#5",
          "ticks": 62856,
          "time": 174.60021824999998,
          "velocity": 0.6929133858267716
        },
        {
          "duration": 0.13333350000002042,
          "durationTicks": 48,
          "midi": 77,
          "name": "F5",
          "ticks": 62856,
          "time": 174.60021824999998,
          "velocity": 0.6929133858267716
        },
        {
          "duration": 0.066666749999996,
          "durationTicks": 24,
          "midi": 81,
          "name": "A5",
          "ticks": 62904,
          "time": 174.73355175,
          "velocity": 0.6929133858267716
        },
        {
          "duration": 0.066666749999996,
          "durationTicks": 24,
          "midi": 80,
          "name": "G#5",
          "ticks": 62928,
          "time": 174.8002185,
          "velocity": 0.6929133858267716
        },
        {
          "duration": 0.066666749999996,
          "durationTicks": 24,
          "midi": 78,
          "name": "F#5",
          "ticks": 62952,
          "time": 174.86688525,
          "velocity": 0.7401574803149606
        },
        {
          "duration": 0.066666749999996,
          "durationTicks": 24,
          "midi": 75,
          "name": "D#5",
          "ticks": 62976,
          "time": 174.933552,
          "velocity": 0.7401574803149606
        },
        {
          "duration": 0.066666749999996,
          "durationTicks": 24,
          "midi": 70,
          "name": "A#4",
          "ticks": 62976,
          "time": 174.933552,
          "velocity": 0.7401574803149606
        },
        {
          "duration": 0.066666749999996,
          "durationTicks": 24,
          "midi": 78,
          "name": "F#5",
          "ticks": 63000,
          "time": 175.00021875,
          "velocity": 0.7401574803149606
        },
        {
          "duration": 0.066666749999996,
          "durationTicks": 24,
          "midi": 73,
          "name": "C#5",
          "ticks": 63000,
          "time": 175.00021875,
          "velocity": 0.7401574803149606
        },
        {
          "duration": 0.13333350000002042,
          "durationTicks": 48,
          "midi": 75,
          "name": "D#5",
          "ticks": 63024,
          "time": 175.06688549999998,
          "velocity": 0.7401574803149606
        },
        {
          "duration": 0.13333350000002042,
          "durationTicks": 48,
          "midi": 70,
          "name": "A#4",
          "ticks": 63024,
          "time": 175.06688549999998,
          "velocity": 0.7401574803149606
        },
        {
          "duration": 0.133333499999992,
          "durationTicks": 48,
          "midi": 89,
          "name": "F6",
          "ticks": 63072,
          "time": 175.200219,
          "velocity": 0.7401574803149606
        },
        {
          "duration": 0.133333499999992,
          "durationTicks": 48,
          "midi": 86,
          "name": "D6",
          "ticks": 63072,
          "time": 175.200219,
          "velocity": 0.7401574803149606
        },
        {
          "duration": 0.133333499999992,
          "durationTicks": 48,
          "midi": 82,
          "name": "A#5",
          "ticks": 63120,
          "time": 175.3335525,
          "velocity": 0.7401574803149606
        },
        {
          "duration": 0.133333499999992,
          "durationTicks": 48,
          "midi": 86,
          "name": "D6",
          "ticks": 63120,
          "time": 175.3335525,
          "velocity": 0.7401574803149606
        }
      ],
      "endOfTrackTicks": 82491
    },
    {
      "channel": 11,
      "controlChanges": {
        "6": [
          {
            "number": 6,
            "ticks": 0,
            "time": 0,
            "value": 0.09448818897637795
          },
          {
            "number": 6,
            "ticks": 0,
            "time": 0,
            "value": 0.09448818897637795
          },
          {
            "number": 6,
            "ticks": 0,
            "time": 0,
            "value": 0.09448818897637795
          },
          {
            "number": 6,
            "ticks": 82466,
            "time": 228.45777604166662,
            "value": 0.09448818897637795
          },
          {
            "number": 6,
            "ticks": 82491,
            "time": 228.52722057291663,
            "value": 0.09448818897637795
          }
        ],
        "7": [
          {
            "number": 7,
            "ticks": 0,
            "time": 0,
            "value": 0.7874015748031497
          },
          {
            "number": 7,
            "ticks": 0,
            "time": 0,
            "value": 0.7874015748031497
          },
          {
            "number": 7,
            "ticks": 0,
            "time": 0,
            "value": 0.7874015748031497
          },
          {
            "number": 7,
            "ticks": 0,
            "time": 0,
            "value": 0.7874015748031497
          },
          {
            "number": 7,
            "ticks": 82466,
            "time": 228.45777604166662,
            "value": 0.7874015748031497
          },
          {
            "number": 7,
            "ticks": 82491,
            "time": 228.52722057291663,
            "value": 0.7874015748031497
          }
        ],
        "10": [
          {
            "number": 10,
            "ticks": 0,
            "time": 0,
            "value": 0.5039370078740157
          },
          {
            "number": 10,
            "ticks": 0,
            "time": 0,
            "value": 0.5039370078740157
          },
          {
            "number": 10,
            "ticks": 0,
            "time": 0,
            "value": 0.5039370078740157
          },
          {
            "number": 10,
            "ticks": 0,
            "time": 0,
            "value": 0.5039370078740157
          },
          {
            "number": 10,
            "ticks": 82466,
            "time": 228.45777604166662,
            "value": 0.5039370078740157
          },
          {
            "number": 10,
            "ticks": 82491,
            "time": 228.52722057291663,
            "value": 0.5039370078740157
          }
        ],
        "100": [
          {
            "number": 100,
            "ticks": 0,
            "time": 0,
            "value": 0
          },
          {
            "number": 100,
            "ticks": 0,
            "time": 0,
            "value": 0
          },
          {
            "number": 100,
            "ticks": 0,
            "time": 0,
            "value": 0
          },
          {
            "number": 100,
            "ticks": 82466,
            "time": 228.45777604166662,
            "value": 0
          },
          {
            "number": 100,
            "ticks": 82491,
            "time": 228.52722057291663,
            "value": 0
          }
        ],
        "101": [
          {
            "number": 101,
            "ticks": 0,
            "time": 0,
            "value": 0
          },
          {
            "number": 101,
            "ticks": 0,
            "time": 0,
            "value": 0
          },
          {
            "number": 101,
            "ticks": 0,
            "time": 0,
            "value": 0
          },
          {
            "number": 101,
            "ticks": 82466,
            "time": 228.45777604166662,
            "value": 0
          },
          {
            "number": 101,
            "ticks": 82491,
            "time": 228.52722057291663,
            "value": 0
          }
        ]
      },
      "pitchBends": [
        {
          "ticks": 0,
          "time": 0,
          "value": 0
        },
        {
          "ticks": 0,
          "time": 0,
          "value": 0
        },
        {
          "ticks": 0,
          "time": 0,
          "value": 0
        },
        {
          "ticks": 0,
          "time": 0,
          "value": 0
        },
        {
          "ticks": 82466,
          "time": 228.45777604166662,
          "value": 0
        },
        {
          "ticks": 82491,
          "time": 228.52722057291663,
          "value": 0
        }
      ],
      "instrument": {
        "family": "piano",
        "number": 0,
        "name": "acoustic grand piano"
      },
      "name": "Intro",
      "notes": [
        {
          "duration": 0.06666675,
          "durationTicks": 24,
          "midi": 66,
          "name": "F#4",
          "ticks": 200,
          "time": 0.55555625,
          "velocity": 0.7559055118110236
        },
        {
          "duration": 0.06666675,
          "durationTicks": 24,
          "midi": 78,
          "name": "F#5",
          "ticks": 214,
          "time": 0.5944451875,
          "velocity": 0.7559055118110236
        },
        {
          "duration": 0.06666675,
          "durationTicks": 24,
          "midi": 63,
          "name": "D#4",
          "ticks": 248,
          "time": 0.68888975,
          "velocity": 0.7559055118110236
        },
        {
          "duration": 0.06666675,
          "durationTicks": 24,
          "midi": 75,
          "name": "D#5",
          "ticks": 262,
          "time": 0.7277786875,
          "velocity": 0.7559055118110236
        },
        {
          "duration": 0.06666675,
          "durationTicks": 24,
          "midi": 70,
          "name": "A#4",
          "ticks": 296,
          "time": 0.82222325,
          "velocity": 0.7559055118110236
        },
        {
          "duration": 0.06666675,
          "durationTicks": 24,
          "midi": 82,
          "name": "A#5",
          "ticks": 310,
          "time": 0.8611121875,
          "velocity": 0.7559055118110236
        },
        {
          "duration": 0.06666675,
          "durationTicks": 24,
          "midi": 66,
          "name": "F#4",
          "ticks": 344,
          "time": 0.95555675,
          "velocity": 0.7559055118110236
        },
        {
          "duration": 0.06666674999999989,
          "durationTicks": 24,
          "midi": 78,
          "name": "F#5",
          "ticks": 358,
          "time": 0.9944456875,
          "velocity": 0.7559055118110236
        },
        {
          "duration": 0.06666675,
          "durationTicks": 24,
          "midi": 69,
          "name": "A4",
          "ticks": 392,
          "time": 1.08889025,
          "velocity": 0.7559055118110236
        },
        {
          "duration": 0.06666675,
          "durationTicks": 24,
          "midi": 81,
          "name": "A5",
          "ticks": 406,
          "time": 1.1277791875,
          "velocity": 0.7559055118110236
        },
        {
          "duration": 0.06666675,
          "durationTicks": 24,
          "midi": 63,
          "name": "D#4",
          "ticks": 440,
          "time": 1.22222375,
          "velocity": 0.7559055118110236
        },
        {
          "duration": 0.06666675,
          "durationTicks": 24,
          "midi": 75,
          "name": "D#5",
          "ticks": 454,
          "time": 1.2611126875,
          "velocity": 0.7559055118110236
        },
        {
          "duration": 0.06666675,
          "durationTicks": 24,
          "midi": 70,
          "name": "A#4",
          "ticks": 488,
          "time": 1.35555725,
          "velocity": 0.7559055118110236
        },
        {
          "duration": 0.06666675,
          "durationTicks": 24,
          "midi": 82,
          "name": "A#5",
          "ticks": 502,
          "time": 1.3944461875,
          "velocity": 0.7559055118110236
        },
        {
          "duration": 0.06666675,
          "durationTicks": 24,
          "midi": 66,
          "name": "F#4",
          "ticks": 536,
          "time": 1.48889075,
          "velocity": 0.7559055118110236
        },
        {
          "duration": 0.06666675,
          "durationTicks": 24,
          "midi": 78,
          "name": "F#5",
          "ticks": 550,
          "time": 1.5277796875,
          "velocity": 0.7559055118110236
        },
        {
          "duration": 0.06666675,
          "durationTicks": 24,
          "midi": 71,
          "name": "B4",
          "ticks": 584,
          "time": 1.62222425,
          "velocity": 0.7559055118110236
        },
        {
          "duration": 0.06666675,
          "durationTicks": 24,
          "midi": 83,
          "name": "B5",
          "ticks": 598,
          "time": 1.6611131875,
          "velocity": 0.7559055118110236
        },
        {
          "duration": 0.06666675,
          "durationTicks": 24,
          "midi": 65,
          "name": "F4",
          "ticks": 632,
          "time": 1.75555775,
          "velocity": 0.7559055118110236
        },
        {
          "duration": 0.06666675,
          "durationTicks": 24,
          "midi": 77,
          "name": "F5",
          "ticks": 646,
          "time": 1.7944466875,
          "velocity": 0.7559055118110236
        },
        {
          "duration": 0.06666675,
          "durationTicks": 24,
          "midi": 69,
          "name": "A4",
          "ticks": 680,
          "time": 1.88889125,
          "velocity": 0.7559055118110236
        },
        {
          "duration": 0.06666675,
          "durationTicks": 24,
          "midi": 81,
          "name": "A5",
          "ticks": 694,
          "time": 1.9277801875,
          "velocity": 0.7559055118110236
        },
        {
          "duration": 0.06666675,
          "durationTicks": 24,
          "midi": 74,
          "name": "D5",
          "ticks": 728,
          "time": 2.02222475,
          "velocity": 0.7559055118110236
        },
        {
          "duration": 0.06666675,
          "durationTicks": 24,
          "midi": 86,
          "name": "D6",
          "ticks": 742,
          "time": 2.0611136875,
          "velocity": 0.7559055118110236
        },
        {
          "duration": 0.06666675,
          "durationTicks": 24,
          "midi": 71,
          "name": "B4",
          "ticks": 776,
          "time": 2.15555825,
          "velocity": 0.7559055118110236
        },
        {
          "duration": 0.06666675,
          "durationTicks": 24,
          "midi": 83,
          "name": "B5",
          "ticks": 790,
          "time": 2.1944471875,
          "velocity": 0.7559055118110236
        },
        {
          "duration": 0.06666675,
          "durationTicks": 24,
          "midi": 66,
          "name": "F#4",
          "ticks": 824,
          "time": 2.28889175,
          "velocity": 0.7559055118110236
        },
        {
          "duration": 0.06666675,
          "durationTicks": 24,
          "midi": 78,
          "name": "F#5",
          "ticks": 838,
          "time": 2.3277806875,
          "velocity": 0.7559055118110236
        },
        {
          "duration": 0.06666675,
          "durationTicks": 24,
          "midi": 58,
          "name": "A#3",
          "ticks": 872,
          "time": 2.42222525,
          "velocity": 0.7559055118110236
        },
        {
          "duration": 0.06666675,
          "durationTicks": 24,
          "midi": 70,
          "name": "A#4",
          "ticks": 886,
          "time": 2.4611141874999998,
          "velocity": 0.7559055118110236
        },
        {
          "duration": 0.06666675,
          "durationTicks": 24,
          "midi": 63,
          "name": "D#4",
          "ticks": 920,
          "time": 2.55555875,
          "velocity": 0.7559055118110236
        },
        {
          "duration": 0.06666675,
          "durationTicks": 24,
          "midi": 75,
          "name": "D#5",
          "ticks": 934,
          "time": 2.5944476874999998,
          "velocity": 0.7559055118110236
        },
        {
          "duration": 0.06666675,
          "durationTicks": 24,
          "midi": 66,
          "name": "F#4",
          "ticks": 968,
          "time": 2.68889225,
          "velocity": 0.7559055118110236
        },
        {
          "duration": 0.06666675,
          "durationTicks": 24,
          "midi": 78,
          "name": "F#5",
          "ticks": 982,
          "time": 2.7277811874999998,
          "velocity": 0.7559055118110236
        },
        {
          "duration": 0.06666675,
          "durationTicks": 24,
          "midi": 63,
          "name": "D#4",
          "ticks": 1016,
          "time": 2.82222575,
          "velocity": 0.7559055118110236
        },
        {
          "duration": 0.06666675,
          "durationTicks": 24,
          "midi": 75,
          "name": "D#5",
          "ticks": 1030,
          "time": 2.8611146874999998,
          "velocity": 0.7559055118110236
        },
        {
          "duration": 0.06666675,
          "durationTicks": 24,
          "midi": 70,
          "name": "A#4",
          "ticks": 1064,
          "time": 2.95555925,
          "velocity": 0.7559055118110236
        },
        {
          "duration": 0.06666675,
          "durationTicks": 24,
          "midi": 82,
          "name": "A#5",
          "ticks": 1078,
          "time": 2.9944481874999997,
          "velocity": 0.7559055118110236
        },
        {
          "duration": 0.06666675,
          "durationTicks": 24,
          "midi": 66,
          "name": "F#4",
          "ticks": 1112,
          "time": 3.08889275,
          "velocity": 0.7559055118110236
        },
        {
          "duration": 0.06666675,
          "durationTicks": 24,
          "midi": 78,
          "name": "F#5",
          "ticks": 1126,
          "time": 3.1277816874999997,
          "velocity": 0.7559055118110236
        },
        {
          "duration": 0.06666675,
          "durationTicks": 24,
          "midi": 69,
          "name": "A4",
          "ticks": 1160,
          "time": 3.22222625,
          "velocity": 0.7559055118110236
        },
        {
          "duration": 0.06666675,
          "durationTicks": 24,
          "midi": 81,
          "name": "A5",
          "ticks": 1174,
          "time": 3.2611151874999997,
          "velocity": 0.7559055118110236
        },
        {
          "duration": 0.06666675,
          "durationTicks": 24,
          "midi": 63,
          "name": "D#4",
          "ticks": 1208,
          "time": 3.35555975,
          "velocity": 0.7559055118110236
        },
        {
          "duration": 0.06666675,
          "durationTicks": 24,
          "midi": 75,
          "name": "D#5",
          "ticks": 1222,
          "time": 3.3944486874999997,
          "velocity": 0.7559055118110236
        },
        {
          "duration": 0.06666675,
          "durationTicks": 24,
          "midi": 70,
          "name": "A#4",
          "ticks": 1256,
          "time": 3.48889325,
          "velocity": 0.7559055118110236
        },
        {
          "duration": 0.06666675,
          "durationTicks": 24,
          "midi": 82,
          "name": "A#5",
          "ticks": 1270,
          "time": 3.5277821874999997,
          "velocity": 0.7559055118110236
        },
        {
          "duration": 0.06666675,
          "durationTicks": 24,
          "midi": 66,
          "name": "F#4",
          "ticks": 1304,
          "time": 3.62222675,
          "velocity": 0.7559055118110236
        },
        {
          "duration": 0.06666675,
          "durationTicks": 24,
          "midi": 78,
          "name": "F#5",
          "ticks": 1318,
          "time": 3.6611156874999997,
          "velocity": 0.7559055118110236
        },
        {
          "duration": 0.06666675,
          "durationTicks": 24,
          "midi": 71,
          "name": "B4",
          "ticks": 1352,
          "time": 3.75556025,
          "velocity": 0.7559055118110236
        },
        {
          "duration": 0.06666675,
          "durationTicks": 24,
          "midi": 83,
          "name": "B5",
          "ticks": 1366,
          "time": 3.7944491874999997,
          "velocity": 0.7559055118110236
        },
        {
          "duration": 0.06666675,
          "durationTicks": 24,
          "midi": 75,
          "name": "D#5",
          "ticks": 1400,
          "time": 3.88889375,
          "velocity": 0.7559055118110236
        },
        {
          "duration": 0.06666675,
          "durationTicks": 24,
          "midi": 87,
          "name": "D#6",
          "ticks": 1414,
          "time": 3.9277826874999997,
          "velocity": 0.7559055118110236
        },
        {
          "duration": 0.06666674999999955,
          "durationTicks": 24,
          "midi": 74,
          "name": "D5",
          "ticks": 1448,
          "time": 4.02222725,
          "velocity": 0.7559055118110236
        },
        {
          "duration": 0.06666674999999955,
          "durationTicks": 24,
          "midi": 86,
          "name": "D6",
          "ticks": 1462,
          "time": 4.0611161875,
          "velocity": 0.7559055118110236
        },
        {
          "duration": 0.06666674999999955,
          "durationTicks": 24,
          "midi": 73,
          "name": "C#5",
          "ticks": 1496,
          "time": 4.15556075,
          "velocity": 0.7559055118110236
        },
        {
          "duration": 0.06666674999999955,
          "durationTicks": 24,
          "midi": 85,
          "name": "C#6",
          "ticks": 1510,
          "time": 4.1944496875,
          "velocity": 0.7559055118110236
        },
        {
          "duration": 0.06666675000000044,
          "durationTicks": 24,
          "midi": 72,
          "name": "C5",
          "ticks": 1544,
          "time": 4.288894249999999,
          "velocity": 0.7559055118110236
        },
        {
          "duration": 0.06666675000000044,
          "durationTicks": 24,
          "midi": 84,
          "name": "C6",
          "ticks": 1558,
          "time": 4.3277831875,
          "velocity": 0.7559055118110236
        },
        {
          "duration": 0.06666675000000044,
          "durationTicks": 24,
          "midi": 69,
          "name": "A4",
          "ticks": 1592,
          "time": 4.422227749999999,
          "velocity": 0.7559055118110236
        },
        {
          "duration": 0.06666675000000044,
          "durationTicks": 24,
          "midi": 81,
          "name": "A5",
          "ticks": 1606,
          "time": 4.4611166875,
          "velocity": 0.7559055118110236
        },
        {
          "duration": 0.06666675000000044,
          "durationTicks": 24,
          "midi": 70,
          "name": "A#4",
          "ticks": 1640,
          "time": 4.555561249999999,
          "velocity": 0.7559055118110236
        },
        {
          "duration": 0.0444445,
          "durationTicks": 16,
          "midi": 82,
          "name": "A#5",
          "ticks": 1654,
          "time": 4.5944501875,
          "velocity": 0.7559055118110236
        },
        {
          "duration": 0.0444445,
          "durationTicks": 16,
          "midi": 76,
          "name": "E5",
          "ticks": 1664,
          "time": 4.622228,
          "velocity": 0.7559055118110236
        },
        {
          "duration": 0.0444445,
          "durationTicks": 16,
          "midi": 70,
          "name": "A#4",
          "ticks": 1680,
          "time": 4.6666725,
          "velocity": 0.7559055118110236
        },
        {
          "duration": 0.0444445,
          "durationTicks": 16,
          "midi": 64,
          "name": "E4",
          "ticks": 1696,
          "time": 4.711117,
          "velocity": 0.7559055118110236
        },
        {
          "duration": 0.0444445,
          "durationTicks": 16,
          "midi": 58,
          "name": "A#3",
          "ticks": 1712,
          "time": 4.7555615,
          "velocity": 0.7559055118110236
        },
        {
          "duration": 0.06666674999999955,
          "durationTicks": 24,
          "midi": 66,
          "name": "F#4",
          "ticks": 1728,
          "time": 4.800006,
          "velocity": 0.7322834645669292
        },
        {
          "duration": 0.06666675000000044,
          "durationTicks": 24,
          "midi": 78,
          "name": "F#5",
          "ticks": 1742,
          "time": 4.838894937499999,
          "velocity": 0.7322834645669292
        },
        {
          "duration": 0.06666675000000044,
          "durationTicks": 24,
          "midi": 63,
          "name": "D#4",
          "ticks": 1776,
          "time": 4.9333395,
          "velocity": 0.7165354330708661
        },
        {
          "duration": 0.06666675000000044,
          "durationTicks": 24,
          "midi": 75,
          "name": "D#5",
          "ticks": 1790,
          "time": 4.972228437499999,
          "velocity": 0.7086614173228346
        },
        {
          "duration": 0.06666674999999955,
          "durationTicks": 24,
          "midi": 71,
          "name": "B4",
          "ticks": 1824,
          "time": 5.066673,
          "velocity": 0.6929133858267716
        },
        {
          "duration": 0.06666675000000044,
          "durationTicks": 24,
          "midi": 83,
          "name": "B5",
          "ticks": 1838,
          "time": 5.105561937499999,
          "velocity": 0.6929133858267716
        },
        {
          "duration": 0.06666675000000044,
          "durationTicks": 24,
          "midi": 67,
          "name": "G4",
          "ticks": 1872,
          "time": 5.2000065,
          "velocity": 0.6771653543307087
        },
        {
          "duration": 0.06666675000000044,
          "durationTicks": 24,
          "midi": 79,
          "name": "G5",
          "ticks": 1886,
          "time": 5.238895437499999,
          "velocity": 0.6692913385826772
        },
        {
          "duration": 0.06666674999999955,
          "durationTicks": 24,
          "midi": 71,
          "name": "B4",
          "ticks": 1920,
          "time": 5.33334,
          "velocity": 0.6535433070866141
        },
        {
          "duration": 0.06666675000000044,
          "durationTicks": 24,
          "midi": 83,
          "name": "B5",
          "ticks": 1934,
          "time": 5.372228937499999,
          "velocity": 0.6535433070866141
        },
        {
          "duration": 0.06666675000000044,
          "durationTicks": 24,
          "midi": 65,
          "name": "F4",
          "ticks": 1968,
          "time": 5.4666735,
          "velocity": 0.6377952755905512
        },
        {
          "duration": 0.06666675000000044,
          "durationTicks": 24,
          "midi": 77,
          "name": "F5",
          "ticks": 1982,
          "time": 5.505562437499999,
          "velocity": 0.6299212598425197
        },
        {
          "duration": 0.06666674999999955,
          "durationTicks": 24,
          "midi": 73,
          "name": "C#5",
          "ticks": 2016,
          "time": 5.600007,
          "velocity": 0.6141732283464567
        },
        {
          "duration": 0.06666675000000044,
          "durationTicks": 24,
          "midi": 85,
          "name": "C#6",
          "ticks": 2030,
          "time": 5.638895937499999,
          "velocity": 0.6141732283464567
        },
        {
          "duration": 0.06666675000000044,
          "durationTicks": 24,
          "midi": 69,
          "name": "A4",
          "ticks": 2064,
          "time": 5.7333405,
          "velocity": 0.5984251968503937
        },
        {
          "duration": 0.06666675000000044,
          "durationTicks": 24,
          "midi": 81,
          "name": "A5",
          "ticks": 2078,
          "time": 5.772229437499999,
          "velocity": 0.5905511811023622
        },
        {
          "duration": 0.06666674999999955,
          "durationTicks": 24,
          "midi": 75,
          "name": "D#5",
          "ticks": 2112,
          "time": 5.866674,
          "velocity": 0.5748031496062992
        },
        {
          "duration": 0.06666675000000044,
          "durationTicks": 24,
          "midi": 87,
          "name": "D#6",
          "ticks": 2126,
          "time": 5.905562937499999,
          "velocity": 0.5669291338582677
        },
        {
          "duration": 0.06666675000000044,
          "durationTicks": 24,
          "midi": 69,
          "name": "A4",
          "ticks": 2160,
          "time": 6.0000075,
          "velocity": 0.5590551181102362
        },
        {
          "duration": 0.06666675000000044,
          "durationTicks": 24,
          "midi": 81,
          "name": "A5",
          "ticks": 2174,
          "time": 6.038896437499999,
          "velocity": 0.5511811023622047
        },
        {
          "duration": 0.06666674999999955,
          "durationTicks": 24,
          "midi": 74,
          "name": "D5",
          "ticks": 2208,
          "time": 6.133341,
          "velocity": 0.5354330708661418
        },
        {
          "duration": 0.06666675000000044,
          "durationTicks": 24,
          "midi": 86,
          "name": "D6",
          "ticks": 2222,
          "time": 6.172229937499999,
          "velocity": 0.5275590551181102
        },
        {
          "duration": 0.06666675000000044,
          "durationTicks": 24,
          "midi": 79,
          "name": "G5",
          "ticks": 2256,
          "time": 6.2666745,
          "velocity": 0.5196850393700787
        },
        {
          "duration": 0.06666675000000044,
          "durationTicks": 24,
          "midi": 91,
          "name": "G6",
          "ticks": 2270,
          "time": 6.305563437499999,
          "velocity": 0.5118110236220472
        },
        {
          "duration": 0.06666674999999955,
          "durationTicks": 24,
          "midi": 76,
          "name": "E5",
          "ticks": 2304,
          "time": 6.400008,
          "velocity": 0.49606299212598426
        },
        {
          "duration": 0.06666675000000044,
          "durationTicks": 24,
          "midi": 89,
          "name": "F6",
          "ticks": 2318,
          "time": 6.438896937499999,
          "velocity": 0.4881889763779528
        },
        {
          "duration": 0.06666675000000044,
          "durationTicks": 24,
          "midi": 72,
          "name": "C5",
          "ticks": 2352,
          "time": 6.5333415,
          "velocity": 0.47244094488188976
        },
        {
          "duration": 0.06666675000000044,
          "durationTicks": 24,
          "midi": 84,
          "name": "C6",
          "ticks": 2366,
          "time": 6.572230437499999,
          "velocity": 0.47244094488188976
        },
        {
          "duration": 0.06666674999999955,
          "durationTicks": 24,
          "midi": 65,
          "name": "F4",
          "ticks": 2400,
          "time": 6.666675,
          "velocity": 0.4566929133858268
        },
        {
          "duration": 0.06666675000000044,
          "durationTicks": 24,
          "midi": 77,
          "name": "F5",
          "ticks": 2414,
          "time": 6.705563937499999,
          "velocity": 0.44881889763779526
        },
        {
          "duration": 0.06666675000000044,
          "durationTicks": 24,
          "midi": 70,
          "name": "A#4",
          "ticks": 2448,
          "time": 6.8000085,
          "velocity": 0.4330708661417323
        },
        {
          "duration": 0.06666675000000044,
          "durationTicks": 24,
          "midi": 82,
          "name": "A#5",
          "ticks": 2462,
          "time": 6.838897437499999,
          "velocity": 0.4330708661417323
        },
        {
          "duration": 0.06666674999999955,
          "durationTicks": 24,
          "midi": 74,
          "name": "D5",
          "ticks": 2496,
          "time": 6.933342,
          "velocity": 0.41732283464566927
        },
        {
          "duration": 0.06666675000000044,
          "durationTicks": 24,
          "midi": 86,
          "name": "D6",
          "ticks": 2510,
          "time": 6.972230937499999,
          "velocity": 0.4094488188976378
        },
        {
          "duration": 0.06666675000000044,
          "durationTicks": 24,
          "midi": 71,
          "name": "B4",
          "ticks": 2544,
          "time": 7.0666755,
          "velocity": 0.3937007874015748
        },
        {
          "duration": 0.06666675000000044,
          "durationTicks": 24,
          "midi": 83,
          "name": "B5",
          "ticks": 2558,
          "time": 7.105564437499999,
          "velocity": 0.3937007874015748
        },
        {
          "duration": 0.06666674999999955,
          "durationTicks": 24,
          "midi": 79,
          "name": "G5",
          "ticks": 2592,
          "time": 7.200009,
          "velocity": 0.3779527559055118
        },
        {
          "duration": 0.06666675000000044,
          "durationTicks": 24,
          "midi": 91,
          "name": "G6",
          "ticks": 2606,
          "time": 7.238897937499999,
          "velocity": 0.3700787401574803
        },
        {
          "duration": 0.06666675000000044,
          "durationTicks": 24,
          "midi": 75,
          "name": "D#5",
          "ticks": 2640,
          "time": 7.3333425,
          "velocity": 0.3543307086614173
        },
        {
          "duration": 0.06666675000000044,
          "durationTicks": 24,
          "midi": 87,
          "name": "D#6",
          "ticks": 2654,
          "time": 7.372231437499999,
          "velocity": 0.3464566929133858
        },
        {
          "duration": 0.06666674999999955,
          "durationTicks": 24,
          "midi": 79,
          "name": "G5",
          "ticks": 2688,
          "time": 7.466676,
          "velocity": 0.33858267716535434
        },
        {
          "duration": 0.06666675000000044,
          "durationTicks": 24,
          "midi": 91,
          "name": "G6",
          "ticks": 2702,
          "time": 7.505564937499999,
          "velocity": 0.33070866141732286
        },
        {
          "duration": 0.06666675000000044,
          "durationTicks": 24,
          "midi": 73,
          "name": "C#5",
          "ticks": 2736,
          "time": 7.6000095,
          "velocity": 0.31496062992125984
        },
        {
          "duration": 0.06666675000000044,
          "durationTicks": 24,
          "midi": 85,
          "name": "C#6",
          "ticks": 2750,
          "time": 7.638898437499999,
          "velocity": 0.30708661417322836
        },
        {
          "duration": 0.06666674999999955,
          "durationTicks": 24,
          "midi": 81,
          "name": "A5",
          "ticks": 2784,
          "time": 7.733343,
          "velocity": 0.2992125984251969
        },
        {
          "duration": 0.06666675000000044,
          "durationTicks": 24,
          "midi": 93,
          "name": "A6",
          "ticks": 2798,
          "time": 7.772231937499999,
          "velocity": 0.29133858267716534
        },
        {
          "duration": 0.06666675000000044,
          "durationTicks": 24,
          "midi": 77,
          "name": "F5",
          "ticks": 2832,
          "time": 7.8666765,
          "velocity": 0.2755905511811024
        },
        {
          "duration": 0.06666675000000044,
          "durationTicks": 24,
          "midi": 89,
          "name": "F6",
          "ticks": 2846,
          "time": 7.905565437499999,
          "velocity": 0.2677165354330709
        },
        {
          "duration": 0.06666674999999955,
          "durationTicks": 24,
          "midi": 83,
          "name": "B5",
          "ticks": 2880,
          "time": 8.00001,
          "velocity": 0.25984251968503935
        },
        {
          "duration": 0.06666674999999955,
          "durationTicks": 24,
          "midi": 95,
          "name": "B6",
          "ticks": 2894,
          "time": 8.038898937499999,
          "velocity": 0.25196850393700787
        },
        {
          "duration": 0.06666675000000133,
          "durationTicks": 24,
          "midi": 87,
          "name": "D#6",
          "ticks": 2928,
          "time": 8.133343499999999,
          "velocity": 0.23622047244094488
        },
        {
          "duration": 0.06666674999999955,
          "durationTicks": 24,
          "midi": 99,
          "name": "D#7",
          "ticks": 2942,
          "time": 8.1722324375,
          "velocity": 0.2283464566929134
        },
        {
          "duration": 0.06666674999999955,
          "durationTicks": 24,
          "midi": 87,
          "name": "D#6",
          "ticks": 2976,
          "time": 8.266677,
          "velocity": 0.2125984251968504
        },
        {
          "duration": 0.06666674999999955,
          "durationTicks": 24,
          "midi": 99,
          "name": "D#7",
          "ticks": 2990,
          "time": 8.305565937499999,
          "velocity": 0.2125984251968504
        },
        {
          "duration": 0.06666674999999955,
          "durationTicks": 24,
          "midi": 86,
          "name": "D6",
          "ticks": 3024,
          "time": 8.4000105,
          "velocity": 0.1968503937007874
        },
        {
          "duration": 0.06666674999999955,
          "durationTicks": 24,
          "midi": 98,
          "name": "D7",
          "ticks": 3038,
          "time": 8.4388994375,
          "velocity": 0.1889763779527559
        },
        {
          "duration": 0.06666674999999955,
          "durationTicks": 24,
          "midi": 86,
          "name": "D6",
          "ticks": 3072,
          "time": 8.533344,
          "velocity": 0.1732283464566929
        },
        {
          "duration": 0.06666674999999955,
          "durationTicks": 24,
          "midi": 98,
          "name": "D7",
          "ticks": 3086,
          "time": 8.5722329375,
          "velocity": 0.1732283464566929
        },
        {
          "duration": 0.06666675000000133,
          "durationTicks": 24,
          "midi": 83,
          "name": "B5",
          "ticks": 3120,
          "time": 8.666677499999999,
          "velocity": 0.15748031496062992
        },
        {
          "duration": 0.06666674999999955,
          "durationTicks": 24,
          "midi": 95,
          "name": "B6",
          "ticks": 3134,
          "time": 8.7055664375,
          "velocity": 0.14960629921259844
        },
        {
          "duration": 0.06666674999999955,
          "durationTicks": 24,
          "midi": 85,
          "name": "C#6",
          "ticks": 3168,
          "time": 8.800011,
          "velocity": 0.13385826771653545
        },
        {
          "duration": 0.04444449999999911,
          "durationTicks": 16,
          "midi": 97,
          "name": "C#7",
          "ticks": 3182,
          "time": 8.8388999375,
          "velocity": 0.13385826771653545
        },
        {
          "duration": 0.04444449999999911,
          "durationTicks": 16,
          "midi": 91,
          "name": "G6",
          "ticks": 3192,
          "time": 8.86667775,
          "velocity": 0.12598425196850394
        },
        {
          "duration": 0.04444450000000266,
          "durationTicks": 16,
          "midi": 85,
          "name": "C#6",
          "ticks": 3208,
          "time": 8.911122249999998,
          "velocity": 0.11811023622047244
        },
        {
          "duration": 0.04444449999999911,
          "durationTicks": 16,
          "midi": 79,
          "name": "G5",
          "ticks": 3224,
          "time": 8.955566750000001,
          "velocity": 0.11023622047244094
        },
        {
          "duration": 0.04444449999999911,
          "durationTicks": 16,
          "midi": 73,
          "name": "C#5",
          "ticks": 3240,
          "time": 9.00001125,
          "velocity": 0.10236220472440945
        },
        {
          "duration": 0.066666749999996,
          "durationTicks": 24,
          "midi": 66,
          "name": "F#4",
          "ticks": 25440,
          "time": 70.666755,
          "velocity": 0.7322834645669292
        },
        {
          "duration": 0.06666675000001021,
          "durationTicks": 24,
          "midi": 78,
          "name": "F#5",
          "ticks": 25454,
          "time": 70.70564393749999,
          "velocity": 0.7322834645669292
        },
        {
          "duration": 0.066666749999996,
          "durationTicks": 24,
          "midi": 63,
          "name": "D#4",
          "ticks": 25488,
          "time": 70.8000885,
          "velocity": 0.7165354330708661
        },
        {
          "duration": 0.066666749999996,
          "durationTicks": 24,
          "midi": 75,
          "name": "D#5",
          "ticks": 25502,
          "time": 70.83897743749999,
          "velocity": 0.7086614173228346
        },
        {
          "duration": 0.06666675000001021,
          "durationTicks": 24,
          "midi": 71,
          "name": "B4",
          "ticks": 25536,
          "time": 70.933422,
          "velocity": 0.6929133858267716
        },
        {
          "duration": 0.066666749999996,
          "durationTicks": 24,
          "midi": 83,
          "name": "B5",
          "ticks": 25550,
          "time": 70.9723109375,
          "velocity": 0.6929133858267716
        },
        {
          "duration": 0.066666749999996,
          "durationTicks": 24,
          "midi": 67,
          "name": "G4",
          "ticks": 25584,
          "time": 71.0667555,
          "velocity": 0.6771653543307087
        },
        {
          "duration": 0.066666749999996,
          "durationTicks": 24,
          "midi": 79,
          "name": "G5",
          "ticks": 25598,
          "time": 71.10564443749999,
          "velocity": 0.6692913385826772
        },
        {
          "duration": 0.06666675000001021,
          "durationTicks": 24,
          "midi": 71,
          "name": "B4",
          "ticks": 25632,
          "time": 71.20008899999999,
          "velocity": 0.6535433070866141
        },
        {
          "duration": 0.066666749999996,
          "durationTicks": 24,
          "midi": 83,
          "name": "B5",
          "ticks": 25646,
          "time": 71.2389779375,
          "velocity": 0.6535433070866141
        },
        {
          "duration": 0.066666749999996,
          "durationTicks": 24,
          "midi": 65,
          "name": "F4",
          "ticks": 25680,
          "time": 71.3334225,
          "velocity": 0.6377952755905512
        },
        {
          "duration": 0.06666675000001021,
          "durationTicks": 24,
          "midi": 77,
          "name": "F5",
          "ticks": 25694,
          "time": 71.37231143749999,
          "velocity": 0.6299212598425197
        },
        {
          "duration": 0.066666749999996,
          "durationTicks": 24,
          "midi": 73,
          "name": "C#5",
          "ticks": 25728,
          "time": 71.466756,
          "velocity": 0.6141732283464567
        },
        {
          "duration": 0.066666749999996,
          "durationTicks": 24,
          "midi": 85,
          "name": "C#6",
          "ticks": 25742,
          "time": 71.5056449375,
          "velocity": 0.6141732283464567
        },
        {
          "duration": 0.066666749999996,
          "durationTicks": 24,
          "midi": 69,
          "name": "A4",
          "ticks": 25776,
          "time": 71.6000895,
          "velocity": 0.5984251968503937
        },
        {
          "duration": 0.06666675000001021,
          "durationTicks": 24,
          "midi": 81,
          "name": "A5",
          "ticks": 25790,
          "time": 71.63897843749999,
          "velocity": 0.5905511811023622
        },
        {
          "duration": 0.066666749999996,
          "durationTicks": 24,
          "midi": 75,
          "name": "D#5",
          "ticks": 25824,
          "time": 71.733423,
          "velocity": 0.5748031496062992
        },
        {
          "duration": 0.066666749999996,
          "durationTicks": 24,
          "midi": 87,
          "name": "D#6",
          "ticks": 25838,
          "time": 71.77231193749999,
          "velocity": 0.5669291338582677
        },
        {
          "duration": 0.066666749999996,
          "durationTicks": 24,
          "midi": 69,
          "name": "A4",
          "ticks": 25872,
          "time": 71.8667565,
          "velocity": 0.5590551181102362
        },
        {
          "duration": 0.06666675000001021,
          "durationTicks": 24,
          "midi": 81,
          "name": "A5",
          "ticks": 25886,
          "time": 71.90564543749998,
          "velocity": 0.5511811023622047
        },
        {
          "duration": 0.066666749999996,
          "durationTicks": 24,
          "midi": 74,
          "name": "D5",
          "ticks": 25920,
          "time": 72.00009,
          "velocity": 0.5354330708661418
        },
        {
          "duration": 0.066666749999996,
          "durationTicks": 24,
          "midi": 86,
          "name": "D6",
          "ticks": 25934,
          "time": 72.03897893749999,
          "velocity": 0.5275590551181102
        },
        {
          "duration": 0.06666675000001021,
          "durationTicks": 24,
          "midi": 79,
          "name": "G5",
          "ticks": 25968,
          "time": 72.13342349999999,
          "velocity": 0.5196850393700787
        },
        {
          "duration": 0.066666749999996,
          "durationTicks": 24,
          "midi": 91,
          "name": "G6",
          "ticks": 25982,
          "time": 72.1723124375,
          "velocity": 0.5118110236220472
        },
        {
          "duration": 0.066666749999996,
          "durationTicks": 24,
          "midi": 76,
          "name": "E5",
          "ticks": 26016,
          "time": 72.266757,
          "velocity": 0.49606299212598426
        },
        {
          "duration": 0.066666749999996,
          "durationTicks": 24,
          "midi": 89,
          "name": "F6",
          "ticks": 26030,
          "time": 72.30564593749999,
          "velocity": 0.4881889763779528
        },
        {
          "duration": 0.06666675000001021,
          "durationTicks": 24,
          "midi": 72,
          "name": "C5",
          "ticks": 26064,
          "time": 72.40009049999999,
          "velocity": 0.47244094488188976
        },
        {
          "duration": 0.066666749999996,
          "durationTicks": 24,
          "midi": 84,
          "name": "C6",
          "ticks": 26078,
          "time": 72.4389794375,
          "velocity": 0.47244094488188976
        },
        {
          "duration": 0.066666749999996,
          "durationTicks": 24,
          "midi": 65,
          "name": "F4",
          "ticks": 26112,
          "time": 72.533424,
          "velocity": 0.4566929133858268
        },
        {
          "duration": 0.06666675000001021,
          "durationTicks": 24,
          "midi": 77,
          "name": "F5",
          "ticks": 26126,
          "time": 72.57231293749999,
          "velocity": 0.44881889763779526
        },
        {
          "duration": 0.066666749999996,
          "durationTicks": 24,
          "midi": 70,
          "name": "A#4",
          "ticks": 26160,
          "time": 72.6667575,
          "velocity": 0.4330708661417323
        },
        {
          "duration": 0.066666749999996,
          "durationTicks": 24,
          "midi": 82,
          "name": "A#5",
          "ticks": 26174,
          "time": 72.7056464375,
          "velocity": 0.4330708661417323
        },
        {
          "duration": 0.066666749999996,
          "durationTicks": 24,
          "midi": 74,
          "name": "D5",
          "ticks": 26208,
          "time": 72.800091,
          "velocity": 0.41732283464566927
        },
        {
          "duration": 0.06666675000001021,
          "durationTicks": 24,
          "midi": 86,
          "name": "D6",
          "ticks": 26222,
          "time": 72.83897993749999,
          "velocity": 0.4094488188976378
        },
        {
          "duration": 0.066666749999996,
          "durationTicks": 24,
          "midi": 71,
          "name": "B4",
          "ticks": 26256,
          "time": 72.9334245,
          "velocity": 0.3937007874015748
        },
        {
          "duration": 0.066666749999996,
          "durationTicks": 24,
          "midi": 83,
          "name": "B5",
          "ticks": 26270,
          "time": 72.97231343749999,
          "velocity": 0.3937007874015748
        },
        {
          "duration": 0.06666675000001021,
          "durationTicks": 24,
          "midi": 79,
          "name": "G5",
          "ticks": 26304,
          "time": 73.066758,
          "velocity": 0.3779527559055118
        },
        {
          "duration": 0.066666749999996,
          "durationTicks": 24,
          "midi": 91,
          "name": "G6",
          "ticks": 26318,
          "time": 73.1056469375,
          "velocity": 0.3700787401574803
        },
        {
          "duration": 0.066666749999996,
          "durationTicks": 24,
          "midi": 75,
          "name": "D#5",
          "ticks": 26352,
          "time": 73.2000915,
          "velocity": 0.3543307086614173
        },
        {
          "duration": 0.066666749999996,
          "durationTicks": 24,
          "midi": 87,
          "name": "D#6",
          "ticks": 26366,
          "time": 73.23898043749999,
          "velocity": 0.3464566929133858
        },
        {
          "duration": 0.06666675000001021,
          "durationTicks": 24,
          "midi": 79,
          "name": "G5",
          "ticks": 26400,
          "time": 73.33342499999999,
          "velocity": 0.33858267716535434
        },
        {
          "duration": 0.066666749999996,
          "durationTicks": 24,
          "midi": 91,
          "name": "G6",
          "ticks": 26414,
          "time": 73.3723139375,
          "velocity": 0.33070866141732286
        },
        {
          "duration": 0.066666749999996,
          "durationTicks": 24,
          "midi": 73,
          "name": "C#5",
          "ticks": 26448,
          "time": 73.4667585,
          "velocity": 0.31496062992125984
        },
        {
          "duration": 0.06666675000001021,
          "durationTicks": 24,
          "midi": 85,
          "name": "C#6",
          "ticks": 26462,
          "time": 73.50564743749999,
          "velocity": 0.30708661417322836
        },
        {
          "duration": 0.06666675000001021,
          "durationTicks": 24,
          "midi": 81,
          "name": "A5",
          "ticks": 26496,
          "time": 73.60009199999999,
          "velocity": 0.2992125984251969
        },
        {
          "duration": 0.066666749999996,
          "durationTicks": 24,
          "midi": 93,
          "name": "A6",
          "ticks": 26510,
          "time": 73.6389809375,
          "velocity": 0.29133858267716534
        },
        {
          "duration": 0.066666749999996,
          "durationTicks": 24,
          "midi": 77,
          "name": "F5",
          "ticks": 26544,
          "time": 73.7334255,
          "velocity": 0.2755905511811024
        },
        {
          "duration": 0.06666675000001021,
          "durationTicks": 24,
          "midi": 89,
          "name": "F6",
          "ticks": 26558,
          "time": 73.77231443749999,
          "velocity": 0.2677165354330709
        },
        {
          "duration": 0.066666749999996,
          "durationTicks": 24,
          "midi": 70,
          "name": "A#4",
          "ticks": 43008,
          "time": 119.466816,
          "velocity": 0.7874015748031497
        },
        {
          "duration": 0.06666675000001021,
          "durationTicks": 24,
          "midi": 76,
          "name": "E5",
          "ticks": 43021,
          "time": 119.50292715625,
          "velocity": 0.7874015748031497
        },
        {
          "duration": 0.06666675000001021,
          "durationTicks": 24,
          "midi": 58,
          "name": "A#3",
          "ticks": 43032,
          "time": 119.53348274999999,
          "velocity": 0.7874015748031497
        },
        {
          "duration": 0.066666749999996,
          "durationTicks": 24,
          "midi": 64,
          "name": "E4",
          "ticks": 43045,
          "time": 119.56959390625,
          "velocity": 0.7874015748031497
        },
        {
          "duration": 0.066666749999996,
          "durationTicks": 24,
          "midi": 70,
          "name": "A#4",
          "ticks": 43056,
          "time": 119.6001495,
          "velocity": 0.7874015748031497
        },
        {
          "duration": 0.066666749999996,
          "durationTicks": 24,
          "midi": 76,
          "name": "E5",
          "ticks": 43069,
          "time": 119.63626065625,
          "velocity": 0.7874015748031497
        },
        {
          "duration": 0.066666749999996,
          "durationTicks": 24,
          "midi": 60,
          "name": "C4",
          "ticks": 43080,
          "time": 119.66681625,
          "velocity": 0.7874015748031497
        },
        {
          "duration": 0.066666749999996,
          "durationTicks": 24,
          "midi": 66,
          "name": "F#4",
          "ticks": 43093,
          "time": 119.70292740625,
          "velocity": 0.7874015748031497
        },
        {
          "duration": 0.066666749999996,
          "durationTicks": 24,
          "midi": 72,
          "name": "C5",
          "ticks": 43104,
          "time": 119.73348299999999,
          "velocity": 0.7874015748031497
        },
        {
          "duration": 0.06666675000001021,
          "durationTicks": 24,
          "midi": 78,
          "name": "F#5",
          "ticks": 43117,
          "time": 119.76959415625,
          "velocity": 0.7874015748031497
        },
        {
          "duration": 0.06666675000001021,
          "durationTicks": 24,
          "midi": 62,
          "name": "D4",
          "ticks": 43128,
          "time": 119.80014974999999,
          "velocity": 0.7874015748031497
        },
        {
          "duration": 0.066666749999996,
          "durationTicks": 24,
          "midi": 68,
          "name": "G#4",
          "ticks": 43141,
          "time": 119.83626090625,
          "velocity": 0.7874015748031497
        },
        {
          "duration": 0.066666749999996,
          "durationTicks": 24,
          "midi": 74,
          "name": "D5",
          "ticks": 43152,
          "time": 119.8668165,
          "velocity": 0.7874015748031497
        },
        {
          "duration": 0.066666749999996,
          "durationTicks": 24,
          "midi": 80,
          "name": "G#5",
          "ticks": 43165,
          "time": 119.90292765625,
          "velocity": 0.7874015748031497
        },
        {
          "duration": 0.066666749999996,
          "durationTicks": 24,
          "midi": 61,
          "name": "C#4",
          "ticks": 43176,
          "time": 119.93348325,
          "velocity": 0.7874015748031497
        },
        {
          "duration": 0.06666675000001021,
          "durationTicks": 24,
          "midi": 67,
          "name": "G4",
          "ticks": 43189,
          "time": 119.96959440625,
          "velocity": 0.7874015748031497
        },
        {
          "duration": 0.06666675000001021,
          "durationTicks": 24,
          "midi": 73,
          "name": "C#5",
          "ticks": 43200,
          "time": 120.00014999999999,
          "velocity": 0.7874015748031497
        },
        {
          "duration": 0.066666749999996,
          "durationTicks": 24,
          "midi": 79,
          "name": "G5",
          "ticks": 43213,
          "time": 120.03626115625,
          "velocity": 0.7874015748031497
        },
        {
          "duration": 0.066666749999996,
          "durationTicks": 24,
          "midi": 61,
          "name": "C#4",
          "ticks": 43224,
          "time": 120.06681675,
          "velocity": 0.7874015748031497
        },
        {
          "duration": 0.066666749999996,
          "durationTicks": 24,
          "midi": 67,
          "name": "G4",
          "ticks": 43237,
          "time": 120.10292790625,
          "velocity": 0.7874015748031497
        },
        {
          "duration": 0.066666749999996,
          "durationTicks": 24,
          "midi": 73,
          "name": "C#5",
          "ticks": 43248,
          "time": 120.1334835,
          "velocity": 0.7874015748031497
        },
        {
          "duration": 0.066666749999996,
          "durationTicks": 24,
          "midi": 79,
          "name": "G5",
          "ticks": 43261,
          "time": 120.16959465625,
          "velocity": 0.7874015748031497
        },
        {
          "duration": 0.066666749999996,
          "durationTicks": 24,
          "midi": 76,
          "name": "E5",
          "ticks": 43272,
          "time": 120.20015025,
          "velocity": 0.7874015748031497
        },
        {
          "duration": 0.06666675000001021,
          "durationTicks": 24,
          "midi": 82,
          "name": "A#5",
          "ticks": 43285,
          "time": 120.23626140625,
          "velocity": 0.7874015748031497
        },
        {
          "duration": 0.06666675000001021,
          "durationTicks": 24,
          "midi": 88,
          "name": "E6",
          "ticks": 43296,
          "time": 120.26681699999999,
          "velocity": 0.7874015748031497
        },
        {
          "duration": 0.066666749999996,
          "durationTicks": 24,
          "midi": 94,
          "name": "A#6",
          "ticks": 43309,
          "time": 120.30292815625,
          "velocity": 0.7874015748031497
        },
        {
          "duration": 0.066666749999996,
          "durationTicks": 24,
          "midi": 76,
          "name": "E5",
          "ticks": 43320,
          "time": 120.33348375,
          "velocity": 0.7874015748031497
        },
        {
          "duration": 0.066666749999996,
          "durationTicks": 24,
          "midi": 82,
          "name": "A#5",
          "ticks": 43333,
          "time": 120.36959490625,
          "velocity": 0.7874015748031497
        },
        {
          "duration": 0.066666749999996,
          "durationTicks": 24,
          "midi": 88,
          "name": "E6",
          "ticks": 43344,
          "time": 120.4001505,
          "velocity": 0.7874015748031497
        },
        {
          "duration": 0.066666749999996,
          "durationTicks": 24,
          "midi": 94,
          "name": "A#6",
          "ticks": 43357,
          "time": 120.43626165625,
          "velocity": 0.7874015748031497
        },
        {
          "duration": 0.066666749999996,
          "durationTicks": 24,
          "midi": 78,
          "name": "F#5",
          "ticks": 43368,
          "time": 120.46681724999999,
          "velocity": 0.7874015748031497
        },
        {
          "duration": 0.06666675000001021,
          "durationTicks": 24,
          "midi": 84,
          "name": "C6",
          "ticks": 43381,
          "time": 120.50292840624999,
          "velocity": 0.7874015748031497
        },
        {
          "duration": 0.06666675000001021,
          "durationTicks": 24,
          "midi": 90,
          "name": "F#6",
          "ticks": 43392,
          "time": 120.53348399999999,
          "velocity": 0.7874015748031497
        },
        {
          "duration": 0.066666749999996,
          "durationTicks": 24,
          "midi": 96,
          "name": "C7",
          "ticks": 43405,
          "time": 120.56959515625,
          "velocity": 0.7874015748031497
        },
        {
          "duration": 0.066666749999996,
          "durationTicks": 24,
          "midi": 75,
          "name": "D#5",
          "ticks": 43416,
          "time": 120.60015075,
          "velocity": 0.7874015748031497
        },
        {
          "duration": 0.066666749999996,
          "durationTicks": 24,
          "midi": 81,
          "name": "A5",
          "ticks": 43429,
          "time": 120.63626190625,
          "velocity": 0.7874015748031497
        },
        {
          "duration": 0.066666749999996,
          "durationTicks": 24,
          "midi": 87,
          "name": "D#6",
          "ticks": 43440,
          "time": 120.6668175,
          "velocity": 0.7874015748031497
        },
        {
          "duration": 0.066666749999996,
          "durationTicks": 24,
          "midi": 93,
          "name": "A6",
          "ticks": 43440,
          "time": 120.6668175,
          "velocity": 0.7874015748031497
        },
        {
          "duration": 0.06666675000001021,
          "durationTicks": 24,
          "midi": 76,
          "name": "E5",
          "ticks": 43464,
          "time": 120.73348424999999,
          "velocity": 0.7874015748031497
        },
        {
          "duration": 0.066666749999996,
          "durationTicks": 24,
          "midi": 82,
          "name": "A#5",
          "ticks": 43477,
          "time": 120.76959540625,
          "velocity": 0.7874015748031497
        },
        {
          "duration": 0.066666749999996,
          "durationTicks": 24,
          "midi": 88,
          "name": "E6",
          "ticks": 43488,
          "time": 120.800151,
          "velocity": 0.7874015748031497
        },
        {
          "duration": 0.066666749999996,
          "durationTicks": 24,
          "midi": 94,
          "name": "A#6",
          "ticks": 43501,
          "time": 120.83626215625,
          "velocity": 0.7874015748031497
        },
        {
          "duration": 0.066666749999996,
          "durationTicks": 24,
          "midi": 76,
          "name": "E5",
          "ticks": 43512,
          "time": 120.86681775,
          "velocity": 0.7874015748031497
        },
        {
          "duration": 0.066666749999996,
          "durationTicks": 24,
          "midi": 82,
          "name": "A#5",
          "ticks": 43525,
          "time": 120.90292890625,
          "velocity": 0.7874015748031497
        },
        {
          "duration": 0.066666749999996,
          "durationTicks": 24,
          "midi": 88,
          "name": "E6",
          "ticks": 43536,
          "time": 120.93348449999999,
          "velocity": 0.7874015748031497
        },
        {
          "duration": 0.06666675000001021,
          "durationTicks": 24,
          "midi": 94,
          "name": "A#6",
          "ticks": 43549,
          "time": 120.96959565625,
          "velocity": 0.7874015748031497
        },
        {
          "duration": 0.06666675000001021,
          "durationTicks": 24,
          "midi": 80,
          "name": "G#5",
          "ticks": 43560,
          "time": 121.00015124999999,
          "velocity": 0.7874015748031497
        },
        {
          "duration": 0.066666749999996,
          "durationTicks": 24,
          "midi": 86,
          "name": "D6",
          "ticks": 43573,
          "time": 121.03626240625,
          "velocity": 0.7874015748031497
        },
        {
          "duration": 0.066666749999996,
          "durationTicks": 24,
          "midi": 92,
          "name": "G#6",
          "ticks": 43584,
          "time": 121.066818,
          "velocity": 0.7874015748031497
        },
        {
          "duration": 0.066666749999996,
          "durationTicks": 24,
          "midi": 98,
          "name": "D7",
          "ticks": 43597,
          "time": 121.10292915625,
          "velocity": 0.7874015748031497
        },
        {
          "duration": 0.066666749999996,
          "durationTicks": 24,
          "midi": 77,
          "name": "F5",
          "ticks": 43608,
          "time": 121.13348475,
          "velocity": 0.7874015748031497
        },
        {
          "duration": 0.06666675000001021,
          "durationTicks": 24,
          "midi": 83,
          "name": "B5",
          "ticks": 43621,
          "time": 121.16959590625,
          "velocity": 0.7874015748031497
        },
        {
          "duration": 0.06666675000001021,
          "durationTicks": 24,
          "midi": 89,
          "name": "F6",
          "ticks": 43632,
          "time": 121.20015149999999,
          "velocity": 0.7874015748031497
        },
        {
          "duration": 0.066666749999996,
          "durationTicks": 24,
          "midi": 95,
          "name": "B6",
          "ticks": 43645,
          "time": 121.23626265625,
          "velocity": 0.7874015748031497
        },
        {
          "duration": 0.066666749999996,
          "durationTicks": 24,
          "midi": 78,
          "name": "F#5",
          "ticks": 43656,
          "time": 121.26681825,
          "velocity": 0.7874015748031497
        },
        {
          "duration": 0.066666749999996,
          "durationTicks": 24,
          "midi": 84,
          "name": "C6",
          "ticks": 43669,
          "time": 121.30292940625,
          "velocity": 0.7874015748031497
        },
        {
          "duration": 0.066666749999996,
          "durationTicks": 24,
          "midi": 90,
          "name": "F#6",
          "ticks": 43680,
          "time": 121.333485,
          "velocity": 0.7874015748031497
        },
        {
          "duration": 0.066666749999996,
          "durationTicks": 24,
          "midi": 96,
          "name": "C7",
          "ticks": 43693,
          "time": 121.36959615625,
          "velocity": 0.7874015748031497
        },
        {
          "duration": 1.7333354999999955,
          "durationTicks": 624,
          "midi": 88,
          "name": "E6",
          "ticks": 43719,
          "time": 121.44181846875,
          "velocity": 0.7952755905511811
        },
        {
          "duration": 1.7333354999999955,
          "durationTicks": 624,
          "midi": 95,
          "name": "B6",
          "ticks": 43719,
          "time": 121.44181846875,
          "velocity": 0.7952755905511811
        },
        {
          "duration": 1.7333354999999955,
          "durationTicks": 624,
          "midi": 100,
          "name": "E7",
          "ticks": 43723,
          "time": 121.45292959375,
          "velocity": 0.7952755905511811
        }
      ],
      "endOfTrackTicks": 82491
    },
    {
      "channel": 12,
      "controlChanges": {
        "6": [
          {
            "number": 6,
            "ticks": 0,
            "time": 0,
            "value": 0.09448818897637795
          },
          {
            "number": 6,
            "ticks": 0,
            "time": 0,
            "value": 0.09448818897637795
          },
          {
            "number": 6,
            "ticks": 0,
            "time": 0,
            "value": 0.09448818897637795
          },
          {
            "number": 6,
            "ticks": 82466,
            "time": 228.45777604166662,
            "value": 0.09448818897637795
          },
          {
            "number": 6,
            "ticks": 82491,
            "time": 228.52722057291663,
            "value": 0.09448818897637795
          }
        ],
        "7": [
          {
            "number": 7,
            "ticks": 0,
            "time": 0,
            "value": 0.7874015748031497
          },
          {
            "number": 7,
            "ticks": 0,
            "time": 0,
            "value": 0.7874015748031497
          },
          {
            "number": 7,
            "ticks": 0,
            "time": 0,
            "value": 0.7874015748031497
          },
          {
            "number": 7,
            "ticks": 0,
            "time": 0,
            "value": 0.7874015748031497
          },
          {
            "number": 7,
            "ticks": 82466,
            "time": 228.45777604166662,
            "value": 0.7874015748031497
          },
          {
            "number": 7,
            "ticks": 82491,
            "time": 228.52722057291663,
            "value": 0.7874015748031497
          }
        ],
        "10": [
          {
            "number": 10,
            "ticks": 0,
            "time": 0,
            "value": 0.5039370078740157
          },
          {
            "number": 10,
            "ticks": 0,
            "time": 0,
            "value": 0.5039370078740157
          },
          {
            "number": 10,
            "ticks": 0,
            "time": 0,
            "value": 0.5039370078740157
          },
          {
            "number": 10,
            "ticks": 0,
            "time": 0,
            "value": 0.5039370078740157
          },
          {
            "number": 10,
            "ticks": 82466,
            "time": 228.45777604166662,
            "value": 0.5039370078740157
          },
          {
            "number": 10,
            "ticks": 82491,
            "time": 228.52722057291663,
            "value": 0.5039370078740157
          }
        ],
        "100": [
          {
            "number": 100,
            "ticks": 0,
            "time": 0,
            "value": 0
          },
          {
            "number": 100,
            "ticks": 0,
            "time": 0,
            "value": 0
          },
          {
            "number": 100,
            "ticks": 0,
            "time": 0,
            "value": 0
          },
          {
            "number": 100,
            "ticks": 82466,
            "time": 228.45777604166662,
            "value": 0
          },
          {
            "number": 100,
            "ticks": 82491,
            "time": 228.52722057291663,
            "value": 0
          }
        ],
        "101": [
          {
            "number": 101,
            "ticks": 0,
            "time": 0,
            "value": 0
          },
          {
            "number": 101,
            "ticks": 0,
            "time": 0,
            "value": 0
          },
          {
            "number": 101,
            "ticks": 0,
            "time": 0,
            "value": 0
          },
          {
            "number": 101,
            "ticks": 82466,
            "time": 228.45777604166662,
            "value": 0
          },
          {
            "number": 101,
            "ticks": 82491,
            "time": 228.52722057291663,
            "value": 0
          }
        ]
      },
      "pitchBends": [
        {
          "ticks": 0,
          "time": 0,
          "value": 0
        },
        {
          "ticks": 0,
          "time": 0,
          "value": 0
        },
        {
          "ticks": 0,
          "time": 0,
          "value": 0
        },
        {
          "ticks": 0,
          "time": 0,
          "value": 0
        },
        {
          "ticks": 82466,
          "time": 228.45777604166662,
          "value": 0
        },
        {
          "ticks": 82491,
          "time": 228.52722057291663,
          "value": 0
        }
      ],
      "instrument": {
        "family": "piano",
        "number": 0,
        "name": "acoustic grand piano"
      },
      "name": "Backing",
      "notes": [
        {
          "duration": 0.11111125000000044,
          "durationTicks": 40,
          "midi": 66,
          "name": "F#4",
          "ticks": 8064,
          "time": 22.400028,
          "velocity": 0.5669291338582677
        },
        {
          "duration": 0.0666667500000031,
          "durationTicks": 24,
          "midi": 78,
          "name": "F#5",
          "ticks": 8086,
          "time": 22.4611391875,
          "velocity": 0.5669291338582677
        },
        {
          "duration": 0.11111125000000044,
          "durationTicks": 40,
          "midi": 63,
          "name": "D#4",
          "ticks": 8112,
          "time": 22.533361499999998,
          "velocity": 0.5669291338582677
        },
        {
          "duration": 0.06666674999999955,
          "durationTicks": 24,
          "midi": 75,
          "name": "D#5",
          "ticks": 8134,
          "time": 22.5944726875,
          "velocity": 0.5669291338582677
        },
        {
          "duration": 0.11111125000000399,
          "durationTicks": 40,
          "midi": 70,
          "name": "A#4",
          "ticks": 8160,
          "time": 22.666694999999997,
          "velocity": 0.5669291338582677
        },
        {
          "duration": 0.06666674999999955,
          "durationTicks": 24,
          "midi": 82,
          "name": "A#5",
          "ticks": 8182,
          "time": 22.7278061875,
          "velocity": 0.5669291338582677
        },
        {
          "duration": 0.11111125000000044,
          "durationTicks": 40,
          "midi": 66,
          "name": "F#4",
          "ticks": 8208,
          "time": 22.8000285,
          "velocity": 0.5669291338582677
        },
        {
          "duration": 0.06666674999999955,
          "durationTicks": 24,
          "midi": 78,
          "name": "F#5",
          "ticks": 8230,
          "time": 22.8611396875,
          "velocity": 0.5669291338582677
        },
        {
          "duration": 0.11111125000000044,
          "durationTicks": 40,
          "midi": 69,
          "name": "A4",
          "ticks": 8256,
          "time": 22.933362,
          "velocity": 0.5669291338582677
        },
        {
          "duration": 0.0666667500000031,
          "durationTicks": 24,
          "midi": 81,
          "name": "A5",
          "ticks": 8278,
          "time": 22.9944731875,
          "velocity": 0.5669291338582677
        },
        {
          "duration": 0.11111125000000044,
          "durationTicks": 40,
          "midi": 63,
          "name": "D#4",
          "ticks": 8304,
          "time": 23.066695499999998,
          "velocity": 0.5669291338582677
        },
        {
          "duration": 0.06666674999999955,
          "durationTicks": 24,
          "midi": 75,
          "name": "D#5",
          "ticks": 8326,
          "time": 23.1278066875,
          "velocity": 0.5669291338582677
        },
        {
          "duration": 0.11111125000000044,
          "durationTicks": 40,
          "midi": 70,
          "name": "A#4",
          "ticks": 8352,
          "time": 23.200029,
          "velocity": 0.5669291338582677
        },
        {
          "duration": 0.06666674999999955,
          "durationTicks": 24,
          "midi": 82,
          "name": "A#5",
          "ticks": 8374,
          "time": 23.2611401875,
          "velocity": 0.5669291338582677
        },
        {
          "duration": 0.11111125000000044,
          "durationTicks": 40,
          "midi": 66,
          "name": "F#4",
          "ticks": 8400,
          "time": 23.3333625,
          "velocity": 0.5669291338582677
        },
        {
          "duration": 0.06666674999999955,
          "durationTicks": 24,
          "midi": 78,
          "name": "F#5",
          "ticks": 8422,
          "time": 23.3944736875,
          "velocity": 0.5669291338582677
        },
        {
          "duration": 0.11111125000000044,
          "durationTicks": 40,
          "midi": 71,
          "name": "B4",
          "ticks": 8448,
          "time": 23.466696,
          "velocity": 0.5669291338582677
        },
        {
          "duration": 0.0666667500000031,
          "durationTicks": 24,
          "midi": 83,
          "name": "B5",
          "ticks": 8470,
          "time": 23.5278071875,
          "velocity": 0.5669291338582677
        },
        {
          "duration": 0.11111125000000044,
          "durationTicks": 40,
          "midi": 65,
          "name": "F4",
          "ticks": 8496,
          "time": 23.600029499999998,
          "velocity": 0.5669291338582677
        },
        {
          "duration": 0.06666674999999955,
          "durationTicks": 24,
          "midi": 77,
          "name": "F5",
          "ticks": 8518,
          "time": 23.6611406875,
          "velocity": 0.5669291338582677
        },
        {
          "duration": 0.11111125000000399,
          "durationTicks": 40,
          "midi": 69,
          "name": "A4",
          "ticks": 8544,
          "time": 23.733362999999997,
          "velocity": 0.5669291338582677
        },
        {
          "duration": 0.06666674999999955,
          "durationTicks": 24,
          "midi": 81,
          "name": "A5",
          "ticks": 8566,
          "time": 23.7944741875,
          "velocity": 0.5669291338582677
        },
        {
          "duration": 0.11111125000000044,
          "durationTicks": 40,
          "midi": 74,
          "name": "D5",
          "ticks": 8592,
          "time": 23.8666965,
          "velocity": 0.5669291338582677
        },
        {
          "duration": 0.06666674999999955,
          "durationTicks": 24,
          "midi": 86,
          "name": "D6",
          "ticks": 8614,
          "time": 23.9278076875,
          "velocity": 0.5669291338582677
        },
        {
          "duration": 0.11111125000000044,
          "durationTicks": 40,
          "midi": 71,
          "name": "B4",
          "ticks": 8640,
          "time": 24.00003,
          "velocity": 0.5669291338582677
        },
        {
          "duration": 0.0666667500000031,
          "durationTicks": 24,
          "midi": 83,
          "name": "B5",
          "ticks": 8662,
          "time": 24.0611411875,
          "velocity": 0.5669291338582677
        },
        {
          "duration": 0.11111125000000044,
          "durationTicks": 40,
          "midi": 66,
          "name": "F#4",
          "ticks": 8688,
          "time": 24.133363499999998,
          "velocity": 0.5669291338582677
        },
        {
          "duration": 0.06666674999999955,
          "durationTicks": 24,
          "midi": 78,
          "name": "F#5",
          "ticks": 8710,
          "time": 24.1944746875,
          "velocity": 0.5669291338582677
        },
        {
          "duration": 0.11111125000000044,
          "durationTicks": 40,
          "midi": 58,
          "name": "A#3",
          "ticks": 8736,
          "time": 24.266697,
          "velocity": 0.5669291338582677
        },
        {
          "duration": 0.06666674999999955,
          "durationTicks": 24,
          "midi": 70,
          "name": "A#4",
          "ticks": 8758,
          "time": 24.3278081875,
          "velocity": 0.5669291338582677
        },
        {
          "duration": 0.11111125000000044,
          "durationTicks": 40,
          "midi": 63,
          "name": "D#4",
          "ticks": 8784,
          "time": 24.4000305,
          "velocity": 0.5669291338582677
        },
        {
          "duration": 0.06666674999999955,
          "durationTicks": 24,
          "midi": 75,
          "name": "D#5",
          "ticks": 8806,
          "time": 24.4611416875,
          "velocity": 0.5669291338582677
        },
        {
          "duration": 0.11111125000000044,
          "durationTicks": 40,
          "midi": 66,
          "name": "F#4",
          "ticks": 9600,
          "time": 26.6667,
          "velocity": 0.5669291338582677
        },
        {
          "duration": 0.0666667500000031,
          "durationTicks": 24,
          "midi": 78,
          "name": "F#5",
          "ticks": 9622,
          "time": 26.7278111875,
          "velocity": 0.5669291338582677
        },
        {
          "duration": 0.11111125000000044,
          "durationTicks": 40,
          "midi": 63,
          "name": "D#4",
          "ticks": 9648,
          "time": 26.800033499999998,
          "velocity": 0.5669291338582677
        },
        {
          "duration": 0.06666674999999955,
          "durationTicks": 24,
          "midi": 75,
          "name": "D#5",
          "ticks": 9670,
          "time": 26.8611446875,
          "velocity": 0.5669291338582677
        },
        {
          "duration": 0.11111125000000399,
          "durationTicks": 40,
          "midi": 70,
          "name": "A#4",
          "ticks": 9696,
          "time": 26.933366999999997,
          "velocity": 0.5669291338582677
        },
        {
          "duration": 0.06666674999999955,
          "durationTicks": 24,
          "midi": 82,
          "name": "A#5",
          "ticks": 9718,
          "time": 26.9944781875,
          "velocity": 0.5669291338582677
        },
        {
          "duration": 0.11111125000000044,
          "durationTicks": 40,
          "midi": 66,
          "name": "F#4",
          "ticks": 9744,
          "time": 27.0667005,
          "velocity": 0.5669291338582677
        },
        {
          "duration": 0.06666674999999955,
          "durationTicks": 24,
          "midi": 78,
          "name": "F#5",
          "ticks": 9766,
          "time": 27.1278116875,
          "velocity": 0.5669291338582677
        },
        {
          "duration": 0.11111125000000044,
          "durationTicks": 40,
          "midi": 69,
          "name": "A4",
          "ticks": 9792,
          "time": 27.200034,
          "velocity": 0.5669291338582677
        },
        {
          "duration": 0.0666667500000031,
          "durationTicks": 24,
          "midi": 81,
          "name": "A5",
          "ticks": 9814,
          "time": 27.2611451875,
          "velocity": 0.5669291338582677
        },
        {
          "duration": 0.11111125000000044,
          "durationTicks": 40,
          "midi": 63,
          "name": "D#4",
          "ticks": 9840,
          "time": 27.333367499999998,
          "velocity": 0.5669291338582677
        },
        {
          "duration": 0.06666674999999955,
          "durationTicks": 24,
          "midi": 75,
          "name": "D#5",
          "ticks": 9862,
          "time": 27.3944786875,
          "velocity": 0.5669291338582677
        },
        {
          "duration": 0.11111125000000044,
          "durationTicks": 40,
          "midi": 70,
          "name": "A#4",
          "ticks": 9888,
          "time": 27.466701,
          "velocity": 0.5669291338582677
        },
        {
          "duration": 0.06666674999999955,
          "durationTicks": 24,
          "midi": 82,
          "name": "A#5",
          "ticks": 9910,
          "time": 27.5278121875,
          "velocity": 0.5669291338582677
        },
        {
          "duration": 0.11111125000000044,
          "durationTicks": 40,
          "midi": 66,
          "name": "F#4",
          "ticks": 9936,
          "time": 27.6000345,
          "velocity": 0.5669291338582677
        },
        {
          "duration": 0.06666674999999955,
          "durationTicks": 24,
          "midi": 78,
          "name": "F#5",
          "ticks": 9958,
          "time": 27.6611456875,
          "velocity": 0.5669291338582677
        },
        {
          "duration": 0.11111125000000044,
          "durationTicks": 40,
          "midi": 71,
          "name": "B4",
          "ticks": 9984,
          "time": 27.733368,
          "velocity": 0.5669291338582677
        },
        {
          "duration": 0.0666667500000031,
          "durationTicks": 24,
          "midi": 83,
          "name": "B5",
          "ticks": 10006,
          "time": 27.7944791875,
          "velocity": 0.5669291338582677
        },
        {
          "duration": 0.11111125000000044,
          "durationTicks": 40,
          "midi": 65,
          "name": "F4",
          "ticks": 10032,
          "time": 27.866701499999998,
          "velocity": 0.5669291338582677
        },
        {
          "duration": 0.06666674999999955,
          "durationTicks": 24,
          "midi": 77,
          "name": "F5",
          "ticks": 10054,
          "time": 27.9278126875,
          "velocity": 0.5669291338582677
        },
        {
          "duration": 0.11111125000000399,
          "durationTicks": 40,
          "midi": 69,
          "name": "A4",
          "ticks": 10080,
          "time": 28.000034999999997,
          "velocity": 0.5669291338582677
        },
        {
          "duration": 0.06666674999999955,
          "durationTicks": 24,
          "midi": 81,
          "name": "A5",
          "ticks": 10102,
          "time": 28.0611461875,
          "velocity": 0.5669291338582677
        },
        {
          "duration": 0.11111125000000044,
          "durationTicks": 40,
          "midi": 74,
          "name": "D5",
          "ticks": 10128,
          "time": 28.1333685,
          "velocity": 0.5669291338582677
        },
        {
          "duration": 0.06666674999999955,
          "durationTicks": 24,
          "midi": 86,
          "name": "D6",
          "ticks": 10150,
          "time": 28.1944796875,
          "velocity": 0.5669291338582677
        },
        {
          "duration": 0.11111125000000044,
          "durationTicks": 40,
          "midi": 71,
          "name": "B4",
          "ticks": 10176,
          "time": 28.266702,
          "velocity": 0.5669291338582677
        },
        {
          "duration": 0.0666667500000031,
          "durationTicks": 24,
          "midi": 83,
          "name": "B5",
          "ticks": 10198,
          "time": 28.3278131875,
          "velocity": 0.5669291338582677
        },
        {
          "duration": 0.11111125000000044,
          "durationTicks": 40,
          "midi": 66,
          "name": "F#4",
          "ticks": 10224,
          "time": 28.400035499999998,
          "velocity": 0.5669291338582677
        },
        {
          "duration": 0.06666674999999955,
          "durationTicks": 24,
          "midi": 78,
          "name": "F#5",
          "ticks": 10246,
          "time": 28.4611466875,
          "velocity": 0.5669291338582677
        },
        {
          "duration": 0.11111125000000044,
          "durationTicks": 40,
          "midi": 58,
          "name": "A#3",
          "ticks": 10272,
          "time": 28.533369,
          "velocity": 0.5669291338582677
        },
        {
          "duration": 0.06666674999999955,
          "durationTicks": 24,
          "midi": 70,
          "name": "A#4",
          "ticks": 10294,
          "time": 28.5944801875,
          "velocity": 0.5669291338582677
        },
        {
          "duration": 0.11111125000000044,
          "durationTicks": 40,
          "midi": 63,
          "name": "D#4",
          "ticks": 10320,
          "time": 28.6667025,
          "velocity": 0.5669291338582677
        },
        {
          "duration": 0.06666674999999955,
          "durationTicks": 24,
          "midi": 75,
          "name": "D#5",
          "ticks": 10342,
          "time": 28.7278136875,
          "velocity": 0.5669291338582677
        },
        {
          "duration": 0.11111125000000044,
          "durationTicks": 40,
          "midi": 66,
          "name": "F#4",
          "ticks": 10368,
          "time": 28.800036,
          "velocity": 0.5669291338582677
        },
        {
          "duration": 0.0666667500000031,
          "durationTicks": 24,
          "midi": 78,
          "name": "F#5",
          "ticks": 10390,
          "time": 28.8611471875,
          "velocity": 0.5669291338582677
        },
        {
          "duration": 0.11111125000000044,
          "durationTicks": 40,
          "midi": 63,
          "name": "D#4",
          "ticks": 10416,
          "time": 28.933369499999998,
          "velocity": 0.5669291338582677
        },
        {
          "duration": 0.06666674999999955,
          "durationTicks": 24,
          "midi": 75,
          "name": "D#5",
          "ticks": 10438,
          "time": 28.9944806875,
          "velocity": 0.5669291338582677
        },
        {
          "duration": 0.11111125000000399,
          "durationTicks": 40,
          "midi": 70,
          "name": "A#4",
          "ticks": 10464,
          "time": 29.066702999999997,
          "velocity": 0.5669291338582677
        },
        {
          "duration": 0.06666674999999955,
          "durationTicks": 24,
          "midi": 82,
          "name": "A#5",
          "ticks": 10486,
          "time": 29.1278141875,
          "velocity": 0.5669291338582677
        },
        {
          "duration": 0.11111125000000044,
          "durationTicks": 40,
          "midi": 66,
          "name": "F#4",
          "ticks": 10512,
          "time": 29.2000365,
          "velocity": 0.5669291338582677
        },
        {
          "duration": 0.06666674999999955,
          "durationTicks": 24,
          "midi": 78,
          "name": "F#5",
          "ticks": 10534,
          "time": 29.2611476875,
          "velocity": 0.5669291338582677
        },
        {
          "duration": 0.11111125000000044,
          "durationTicks": 40,
          "midi": 69,
          "name": "A4",
          "ticks": 10560,
          "time": 29.33337,
          "velocity": 0.5669291338582677
        },
        {
          "duration": 0.0666667500000031,
          "durationTicks": 24,
          "midi": 81,
          "name": "A5",
          "ticks": 10582,
          "time": 29.3944811875,
          "velocity": 0.5669291338582677
        },
        {
          "duration": 0.11111125000000044,
          "durationTicks": 40,
          "midi": 63,
          "name": "D#4",
          "ticks": 10608,
          "time": 29.466703499999998,
          "velocity": 0.5669291338582677
        },
        {
          "duration": 0.06666674999999955,
          "durationTicks": 24,
          "midi": 75,
          "name": "D#5",
          "ticks": 10630,
          "time": 29.5278146875,
          "velocity": 0.5669291338582677
        },
        {
          "duration": 0.11111125000000044,
          "durationTicks": 40,
          "midi": 70,
          "name": "A#4",
          "ticks": 10656,
          "time": 29.600037,
          "velocity": 0.5669291338582677
        },
        {
          "duration": 0.06666674999999955,
          "durationTicks": 24,
          "midi": 82,
          "name": "A#5",
          "ticks": 10678,
          "time": 29.6611481875,
          "velocity": 0.5669291338582677
        },
        {
          "duration": 0.11111125000000044,
          "durationTicks": 40,
          "midi": 66,
          "name": "F#4",
          "ticks": 10704,
          "time": 29.7333705,
          "velocity": 0.5669291338582677
        },
        {
          "duration": 0.06666674999999955,
          "durationTicks": 24,
          "midi": 78,
          "name": "F#5",
          "ticks": 10726,
          "time": 29.7944816875,
          "velocity": 0.5669291338582677
        },
        {
          "duration": 0.11111125000000044,
          "durationTicks": 40,
          "midi": 71,
          "name": "B4",
          "ticks": 10752,
          "time": 29.866704,
          "velocity": 0.5669291338582677
        },
        {
          "duration": 0.0666667500000031,
          "durationTicks": 24,
          "midi": 83,
          "name": "B5",
          "ticks": 10774,
          "time": 29.9278151875,
          "velocity": 0.5669291338582677
        },
        {
          "duration": 0.11111125000000044,
          "durationTicks": 40,
          "midi": 65,
          "name": "F4",
          "ticks": 10800,
          "time": 30.000037499999998,
          "velocity": 0.5669291338582677
        },
        {
          "duration": 0.06666674999999955,
          "durationTicks": 24,
          "midi": 77,
          "name": "F5",
          "ticks": 10822,
          "time": 30.0611486875,
          "velocity": 0.5669291338582677
        },
        {
          "duration": 0.11111125000000399,
          "durationTicks": 40,
          "midi": 69,
          "name": "A4",
          "ticks": 10848,
          "time": 30.133370999999997,
          "velocity": 0.5669291338582677
        },
        {
          "duration": 0.06666674999999955,
          "durationTicks": 24,
          "midi": 81,
          "name": "A5",
          "ticks": 10870,
          "time": 30.1944821875,
          "velocity": 0.5669291338582677
        },
        {
          "duration": 0.11111125000000044,
          "durationTicks": 40,
          "midi": 74,
          "name": "D5",
          "ticks": 10896,
          "time": 30.2667045,
          "velocity": 0.5669291338582677
        },
        {
          "duration": 0.06666674999999955,
          "durationTicks": 24,
          "midi": 86,
          "name": "D6",
          "ticks": 10918,
          "time": 30.3278156875,
          "velocity": 0.5669291338582677
        },
        {
          "duration": 0.11111125000000044,
          "durationTicks": 40,
          "midi": 71,
          "name": "B4",
          "ticks": 10944,
          "time": 30.400038,
          "velocity": 0.5669291338582677
        },
        {
          "duration": 0.0666667500000031,
          "durationTicks": 24,
          "midi": 83,
          "name": "B5",
          "ticks": 10966,
          "time": 30.4611491875,
          "velocity": 0.5669291338582677
        },
        {
          "duration": 0.11111125000000044,
          "durationTicks": 40,
          "midi": 66,
          "name": "F#4",
          "ticks": 10992,
          "time": 30.533371499999998,
          "velocity": 0.5669291338582677
        },
        {
          "duration": 0.06666674999999955,
          "durationTicks": 24,
          "midi": 78,
          "name": "F#5",
          "ticks": 11014,
          "time": 30.5944826875,
          "velocity": 0.5669291338582677
        },
        {
          "duration": 0.11111125000000044,
          "durationTicks": 40,
          "midi": 58,
          "name": "A#3",
          "ticks": 11040,
          "time": 30.666705,
          "velocity": 0.5669291338582677
        },
        {
          "duration": 0.06666674999999955,
          "durationTicks": 24,
          "midi": 70,
          "name": "A#4",
          "ticks": 11062,
          "time": 30.7278161875,
          "velocity": 0.5669291338582677
        },
        {
          "duration": 0.11111125000000044,
          "durationTicks": 40,
          "midi": 63,
          "name": "D#4",
          "ticks": 11088,
          "time": 30.8000385,
          "velocity": 0.5669291338582677
        },
        {
          "duration": 0.06666674999999955,
          "durationTicks": 24,
          "midi": 75,
          "name": "D#5",
          "ticks": 11110,
          "time": 30.8611496875,
          "velocity": 0.5669291338582677
        },
        {
          "duration": 0.11111125000000044,
          "durationTicks": 40,
          "midi": 66,
          "name": "F#4",
          "ticks": 11136,
          "time": 30.933372,
          "velocity": 0.5511811023622047
        },
        {
          "duration": 0.0666667500000031,
          "durationTicks": 24,
          "midi": 78,
          "name": "F#5",
          "ticks": 11158,
          "time": 30.9944831875,
          "velocity": 0.5433070866141733
        },
        {
          "duration": 0.11111125000000044,
          "durationTicks": 40,
          "midi": 63,
          "name": "D#4",
          "ticks": 11184,
          "time": 31.066705499999998,
          "velocity": 0.5354330708661418
        },
        {
          "duration": 0.06666674999999955,
          "durationTicks": 24,
          "midi": 75,
          "name": "D#5",
          "ticks": 11206,
          "time": 31.1278166875,
          "velocity": 0.5275590551181102
        },
        {
          "duration": 0.11111125000000399,
          "durationTicks": 40,
          "midi": 70,
          "name": "A#4",
          "ticks": 11232,
          "time": 31.200038999999997,
          "velocity": 0.5196850393700787
        },
        {
          "duration": 0.06666674999999955,
          "durationTicks": 24,
          "midi": 82,
          "name": "A#5",
          "ticks": 11254,
          "time": 31.2611501875,
          "velocity": 0.5196850393700787
        },
        {
          "duration": 0.11111125000000044,
          "durationTicks": 40,
          "midi": 66,
          "name": "F#4",
          "ticks": 11280,
          "time": 31.3333725,
          "velocity": 0.5118110236220472
        },
        {
          "duration": 0.06666674999999955,
          "durationTicks": 24,
          "midi": 78,
          "name": "F#5",
          "ticks": 11302,
          "time": 31.3944836875,
          "velocity": 0.5039370078740157
        },
        {
          "duration": 0.11111125000000044,
          "durationTicks": 40,
          "midi": 70,
          "name": "A#4",
          "ticks": 11328,
          "time": 31.466706,
          "velocity": 0.49606299212598426
        },
        {
          "duration": 0.0666667500000031,
          "durationTicks": 24,
          "midi": 82,
          "name": "A#5",
          "ticks": 11350,
          "time": 31.5278171875,
          "velocity": 0.4881889763779528
        },
        {
          "duration": 0.11111125000000044,
          "durationTicks": 40,
          "midi": 64,
          "name": "E4",
          "ticks": 11376,
          "time": 31.600039499999998,
          "velocity": 0.48031496062992124
        },
        {
          "duration": 0.06666674999999955,
          "durationTicks": 24,
          "midi": 76,
          "name": "E5",
          "ticks": 11398,
          "time": 31.6611506875,
          "velocity": 0.47244094488188976
        },
        {
          "duration": 0.11111125000000044,
          "durationTicks": 40,
          "midi": 71,
          "name": "B4",
          "ticks": 11424,
          "time": 31.733373,
          "velocity": 0.4645669291338583
        },
        {
          "duration": 0.06666674999999955,
          "durationTicks": 24,
          "midi": 83,
          "name": "B5",
          "ticks": 11446,
          "time": 31.7944841875,
          "velocity": 0.4566929133858268
        },
        {
          "duration": 0.11111125000000044,
          "durationTicks": 40,
          "midi": 67,
          "name": "G4",
          "ticks": 11472,
          "time": 31.8667065,
          "velocity": 0.4566929133858268
        },
        {
          "duration": 0.06666674999999955,
          "durationTicks": 24,
          "midi": 79,
          "name": "G5",
          "ticks": 11494,
          "time": 31.9278176875,
          "velocity": 0.44881889763779526
        },
        {
          "duration": 0.11111125000000044,
          "durationTicks": 40,
          "midi": 73,
          "name": "C#5",
          "ticks": 11520,
          "time": 32.00004,
          "velocity": 0.4409448818897638
        },
        {
          "duration": 0.066666749999996,
          "durationTicks": 24,
          "midi": 85,
          "name": "C#6",
          "ticks": 11542,
          "time": 32.0611511875,
          "velocity": 0.4330708661417323
        },
        {
          "duration": 0.11111125000000044,
          "durationTicks": 40,
          "midi": 67,
          "name": "G4",
          "ticks": 11568,
          "time": 32.1333735,
          "velocity": 0.4251968503937008
        },
        {
          "duration": 0.066666749999996,
          "durationTicks": 24,
          "midi": 79,
          "name": "G5",
          "ticks": 11590,
          "time": 32.1944846875,
          "velocity": 0.41732283464566927
        },
        {
          "duration": 0.11111125000000044,
          "durationTicks": 40,
          "midi": 71,
          "name": "B4",
          "ticks": 11616,
          "time": 32.266707,
          "velocity": 0.4094488188976378
        },
        {
          "duration": 0.0666667500000031,
          "durationTicks": 24,
          "midi": 83,
          "name": "B5",
          "ticks": 11638,
          "time": 32.3278181875,
          "velocity": 0.4015748031496063
        },
        {
          "duration": 0.11111125000000044,
          "durationTicks": 40,
          "midi": 76,
          "name": "E5",
          "ticks": 11664,
          "time": 32.400040499999996,
          "velocity": 0.3937007874015748
        },
        {
          "duration": 0.0666667500000031,
          "durationTicks": 24,
          "midi": 88,
          "name": "E6",
          "ticks": 11686,
          "time": 32.4611516875,
          "velocity": 0.3937007874015748
        },
        {
          "duration": 0.11111125000000754,
          "durationTicks": 40,
          "midi": 74,
          "name": "D5",
          "ticks": 11712,
          "time": 32.533373999999995,
          "velocity": 0.3858267716535433
        },
        {
          "duration": 0.0666667500000031,
          "durationTicks": 24,
          "midi": 86,
          "name": "D6",
          "ticks": 11734,
          "time": 32.5944851875,
          "velocity": 0.3779527559055118
        },
        {
          "duration": 0.11111125000000044,
          "durationTicks": 40,
          "midi": 69,
          "name": "A4",
          "ticks": 11760,
          "time": 32.6667075,
          "velocity": 0.3700787401574803
        },
        {
          "duration": 0.0666667500000031,
          "durationTicks": 24,
          "midi": 81,
          "name": "A5",
          "ticks": 11782,
          "time": 32.7278186875,
          "velocity": 0.36220472440944884
        },
        {
          "duration": 0.11111125000000044,
          "durationTicks": 40,
          "midi": 61,
          "name": "C#4",
          "ticks": 11808,
          "time": 32.800041,
          "velocity": 0.3543307086614173
        },
        {
          "duration": 0.0666667500000031,
          "durationTicks": 24,
          "midi": 73,
          "name": "C#5",
          "ticks": 11830,
          "time": 32.8611521875,
          "velocity": 0.3464566929133858
        },
        {
          "duration": 0.11111125000000044,
          "durationTicks": 40,
          "midi": 66,
          "name": "F#4",
          "ticks": 11856,
          "time": 32.9333745,
          "velocity": 0.33858267716535434
        },
        {
          "duration": 0.066666749999996,
          "durationTicks": 24,
          "midi": 78,
          "name": "F#5",
          "ticks": 11878,
          "time": 32.9944856875,
          "velocity": 0.33858267716535434
        },
        {
          "duration": 0.11111125000000044,
          "durationTicks": 40,
          "midi": 70,
          "name": "A#4",
          "ticks": 11904,
          "time": 33.066708,
          "velocity": 0.33070866141732286
        },
        {
          "duration": 0.066666749999996,
          "durationTicks": 24,
          "midi": 82,
          "name": "A#5",
          "ticks": 11926,
          "time": 33.1278191875,
          "velocity": 0.3228346456692913
        },
        {
          "duration": 0.11111125000000044,
          "durationTicks": 40,
          "midi": 67,
          "name": "G4",
          "ticks": 11952,
          "time": 33.2000415,
          "velocity": 0.31496062992125984
        },
        {
          "duration": 0.066666749999996,
          "durationTicks": 24,
          "midi": 79,
          "name": "G5",
          "ticks": 11974,
          "time": 33.2611526875,
          "velocity": 0.30708661417322836
        },
        {
          "duration": 0.11111125000000044,
          "durationTicks": 40,
          "midi": 74,
          "name": "D5",
          "ticks": 12000,
          "time": 33.333375,
          "velocity": 0.2992125984251969
        },
        {
          "duration": 0.0666667500000031,
          "durationTicks": 24,
          "midi": 86,
          "name": "D6",
          "ticks": 12022,
          "time": 33.3944861875,
          "velocity": 0.29133858267716534
        },
        {
          "duration": 0.11111125000000044,
          "durationTicks": 40,
          "midi": 70,
          "name": "A#4",
          "ticks": 12048,
          "time": 33.466708499999996,
          "velocity": 0.28346456692913385
        },
        {
          "duration": 0.0666667500000031,
          "durationTicks": 24,
          "midi": 82,
          "name": "A#5",
          "ticks": 12070,
          "time": 33.5278196875,
          "velocity": 0.28346456692913385
        },
        {
          "duration": 0.11111125000000044,
          "durationTicks": 40,
          "midi": 74,
          "name": "D5",
          "ticks": 12096,
          "time": 33.600042,
          "velocity": 0.2755905511811024
        },
        {
          "duration": 0.0666667500000031,
          "durationTicks": 24,
          "midi": 86,
          "name": "D6",
          "ticks": 12118,
          "time": 33.6611531875,
          "velocity": 0.2677165354330709
        },
        {
          "duration": 0.11111125000000044,
          "durationTicks": 40,
          "midi": 68,
          "name": "G#4",
          "ticks": 12144,
          "time": 33.7333755,
          "velocity": 0.25984251968503935
        },
        {
          "duration": 0.0666667500000031,
          "durationTicks": 24,
          "midi": 80,
          "name": "G#5",
          "ticks": 12166,
          "time": 33.7944866875,
          "velocity": 0.25196850393700787
        },
        {
          "duration": 0.11111125000000044,
          "durationTicks": 40,
          "midi": 75,
          "name": "D#5",
          "ticks": 12192,
          "time": 33.866709,
          "velocity": 0.2440944881889764
        },
        {
          "duration": 0.0666667500000031,
          "durationTicks": 24,
          "midi": 87,
          "name": "D#6",
          "ticks": 12214,
          "time": 33.9278201875,
          "velocity": 0.23622047244094488
        },
        {
          "duration": 0.11111125000000044,
          "durationTicks": 40,
          "midi": 71,
          "name": "B4",
          "ticks": 12240,
          "time": 34.0000425,
          "velocity": 0.2283464566929134
        },
        {
          "duration": 0.066666749999996,
          "durationTicks": 24,
          "midi": 83,
          "name": "B5",
          "ticks": 12262,
          "time": 34.0611536875,
          "velocity": 0.2283464566929134
        },
        {
          "duration": 0.11111125000000754,
          "durationTicks": 40,
          "midi": 66,
          "name": "F#4",
          "ticks": 34848,
          "time": 96.80012099999999,
          "velocity": 0.5669291338582677
        },
        {
          "duration": 0.06666675000001021,
          "durationTicks": 24,
          "midi": 78,
          "name": "F#5",
          "ticks": 34870,
          "time": 96.8612321875,
          "velocity": 0.5669291338582677
        },
        {
          "duration": 0.11111125000000754,
          "durationTicks": 40,
          "midi": 63,
          "name": "D#4",
          "ticks": 34896,
          "time": 96.9334545,
          "velocity": 0.5669291338582677
        },
        {
          "duration": 0.066666749999996,
          "durationTicks": 24,
          "midi": 75,
          "name": "D#5",
          "ticks": 34918,
          "time": 96.9945656875,
          "velocity": 0.5669291338582677
        },
        {
          "duration": 0.11111124999999333,
          "durationTicks": 40,
          "midi": 70,
          "name": "A#4",
          "ticks": 34944,
          "time": 97.066788,
          "velocity": 0.5669291338582677
        },
        {
          "duration": 0.066666749999996,
          "durationTicks": 24,
          "midi": 82,
          "name": "A#5",
          "ticks": 34966,
          "time": 97.1278991875,
          "velocity": 0.5669291338582677
        },
        {
          "duration": 0.11111125000000754,
          "durationTicks": 40,
          "midi": 66,
          "name": "F#4",
          "ticks": 34992,
          "time": 97.2001215,
          "velocity": 0.5669291338582677
        },
        {
          "duration": 0.066666749999996,
          "durationTicks": 24,
          "midi": 78,
          "name": "F#5",
          "ticks": 35014,
          "time": 97.2612326875,
          "velocity": 0.5669291338582677
        },
        {
          "duration": 0.11111124999999333,
          "durationTicks": 40,
          "midi": 69,
          "name": "A4",
          "ticks": 35040,
          "time": 97.333455,
          "velocity": 0.5669291338582677
        },
        {
          "duration": 0.066666749999996,
          "durationTicks": 24,
          "midi": 81,
          "name": "A5",
          "ticks": 35062,
          "time": 97.3945661875,
          "velocity": 0.5669291338582677
        },
        {
          "duration": 0.11111125000000754,
          "durationTicks": 40,
          "midi": 63,
          "name": "D#4",
          "ticks": 35088,
          "time": 97.46678849999999,
          "velocity": 0.5669291338582677
        },
        {
          "duration": 0.06666675000001021,
          "durationTicks": 24,
          "midi": 75,
          "name": "D#5",
          "ticks": 35110,
          "time": 97.5278996875,
          "velocity": 0.5669291338582677
        },
        {
          "duration": 0.11111125000000754,
          "durationTicks": 40,
          "midi": 70,
          "name": "A#4",
          "ticks": 35136,
          "time": 97.600122,
          "velocity": 0.5669291338582677
        },
        {
          "duration": 0.066666749999996,
          "durationTicks": 24,
          "midi": 82,
          "name": "A#5",
          "ticks": 35158,
          "time": 97.6612331875,
          "velocity": 0.5669291338582677
        },
        {
          "duration": 0.11111125000000754,
          "durationTicks": 40,
          "midi": 66,
          "name": "F#4",
          "ticks": 35184,
          "time": 97.73345549999999,
          "velocity": 0.5669291338582677
        },
        {
          "duration": 0.06666675000001021,
          "durationTicks": 24,
          "midi": 78,
          "name": "F#5",
          "ticks": 35206,
          "time": 97.7945666875,
          "velocity": 0.5669291338582677
        },
        {
          "duration": 0.11111125000000754,
          "durationTicks": 40,
          "midi": 71,
          "name": "B4",
          "ticks": 35232,
          "time": 97.866789,
          "velocity": 0.5669291338582677
        },
        {
          "duration": 0.066666749999996,
          "durationTicks": 24,
          "midi": 83,
          "name": "B5",
          "ticks": 35254,
          "time": 97.9279001875,
          "velocity": 0.5669291338582677
        },
        {
          "duration": 0.11111125000000754,
          "durationTicks": 40,
          "midi": 65,
          "name": "F4",
          "ticks": 35280,
          "time": 98.00012249999999,
          "velocity": 0.5669291338582677
        },
        {
          "duration": 0.066666749999996,
          "durationTicks": 24,
          "midi": 77,
          "name": "F5",
          "ticks": 35302,
          "time": 98.0612336875,
          "velocity": 0.5669291338582677
        },
        {
          "duration": 0.11111125000000754,
          "durationTicks": 40,
          "midi": 69,
          "name": "A4",
          "ticks": 35328,
          "time": 98.133456,
          "velocity": 0.5669291338582677
        },
        {
          "duration": 0.066666749999996,
          "durationTicks": 24,
          "midi": 81,
          "name": "A5",
          "ticks": 35350,
          "time": 98.1945671875,
          "velocity": 0.5669291338582677
        },
        {
          "duration": 0.11111124999999333,
          "durationTicks": 40,
          "midi": 74,
          "name": "D5",
          "ticks": 35376,
          "time": 98.2667895,
          "velocity": 0.5669291338582677
        },
        {
          "duration": 0.066666749999996,
          "durationTicks": 24,
          "midi": 86,
          "name": "D6",
          "ticks": 35398,
          "time": 98.3279006875,
          "velocity": 0.5669291338582677
        },
        {
          "duration": 0.11111125000000754,
          "durationTicks": 40,
          "midi": 71,
          "name": "B4",
          "ticks": 35424,
          "time": 98.400123,
          "velocity": 0.5669291338582677
        },
        {
          "duration": 0.06666675000001021,
          "durationTicks": 24,
          "midi": 83,
          "name": "B5",
          "ticks": 35446,
          "time": 98.4612341875,
          "velocity": 0.5669291338582677
        },
        {
          "duration": 0.11111125000000754,
          "durationTicks": 40,
          "midi": 66,
          "name": "F#4",
          "ticks": 35472,
          "time": 98.5334565,
          "velocity": 0.5669291338582677
        },
        {
          "duration": 0.066666749999996,
          "durationTicks": 24,
          "midi": 78,
          "name": "F#5",
          "ticks": 35494,
          "time": 98.5945676875,
          "velocity": 0.5669291338582677
        },
        {
          "duration": 0.11111125000000754,
          "durationTicks": 40,
          "midi": 58,
          "name": "A#3",
          "ticks": 35520,
          "time": 98.66678999999999,
          "velocity": 0.5669291338582677
        },
        {
          "duration": 0.06666675000001021,
          "durationTicks": 24,
          "midi": 70,
          "name": "A#4",
          "ticks": 35542,
          "time": 98.7279011875,
          "velocity": 0.5669291338582677
        },
        {
          "duration": 0.11111125000000754,
          "durationTicks": 40,
          "midi": 63,
          "name": "D#4",
          "ticks": 35568,
          "time": 98.8001235,
          "velocity": 0.5669291338582677
        },
        {
          "duration": 0.066666749999996,
          "durationTicks": 24,
          "midi": 75,
          "name": "D#5",
          "ticks": 35590,
          "time": 98.8612346875,
          "velocity": 0.5669291338582677
        },
        {
          "duration": 0.11111125000000754,
          "durationTicks": 40,
          "midi": 66,
          "name": "F#4",
          "ticks": 36384,
          "time": 101.06679299999999,
          "velocity": 0.5669291338582677
        },
        {
          "duration": 0.06666675000001021,
          "durationTicks": 24,
          "midi": 78,
          "name": "F#5",
          "ticks": 36406,
          "time": 101.1279041875,
          "velocity": 0.5669291338582677
        },
        {
          "duration": 0.11111125000000754,
          "durationTicks": 40,
          "midi": 63,
          "name": "D#4",
          "ticks": 36432,
          "time": 101.2001265,
          "velocity": 0.5669291338582677
        },
        {
          "duration": 0.066666749999996,
          "durationTicks": 24,
          "midi": 75,
          "name": "D#5",
          "ticks": 36454,
          "time": 101.2612376875,
          "velocity": 0.5669291338582677
        },
        {
          "duration": 0.11111124999999333,
          "durationTicks": 40,
          "midi": 70,
          "name": "A#4",
          "ticks": 36480,
          "time": 101.33346,
          "velocity": 0.5669291338582677
        },
        {
          "duration": 0.066666749999996,
          "durationTicks": 24,
          "midi": 82,
          "name": "A#5",
          "ticks": 36502,
          "time": 101.3945711875,
          "velocity": 0.5669291338582677
        },
        {
          "duration": 0.11111125000000754,
          "durationTicks": 40,
          "midi": 66,
          "name": "F#4",
          "ticks": 36528,
          "time": 101.4667935,
          "velocity": 0.5669291338582677
        },
        {
          "duration": 0.066666749999996,
          "durationTicks": 24,
          "midi": 78,
          "name": "F#5",
          "ticks": 36550,
          "time": 101.5279046875,
          "velocity": 0.5669291338582677
        },
        {
          "duration": 0.11111124999999333,
          "durationTicks": 40,
          "midi": 69,
          "name": "A4",
          "ticks": 36576,
          "time": 101.600127,
          "velocity": 0.5669291338582677
        },
        {
          "duration": 0.066666749999996,
          "durationTicks": 24,
          "midi": 81,
          "name": "A5",
          "ticks": 36598,
          "time": 101.6612381875,
          "velocity": 0.5669291338582677
        },
        {
          "duration": 0.11111125000000754,
          "durationTicks": 40,
          "midi": 63,
          "name": "D#4",
          "ticks": 36624,
          "time": 101.73346049999999,
          "velocity": 0.5669291338582677
        },
        {
          "duration": 0.06666675000001021,
          "durationTicks": 24,
          "midi": 75,
          "name": "D#5",
          "ticks": 36646,
          "time": 101.7945716875,
          "velocity": 0.5669291338582677
        },
        {
          "duration": 0.11111125000000754,
          "durationTicks": 40,
          "midi": 70,
          "name": "A#4",
          "ticks": 36672,
          "time": 101.866794,
          "velocity": 0.5669291338582677
        },
        {
          "duration": 0.066666749999996,
          "durationTicks": 24,
          "midi": 82,
          "name": "A#5",
          "ticks": 36694,
          "time": 101.9279051875,
          "velocity": 0.5669291338582677
        },
        {
          "duration": 0.11111125000000754,
          "durationTicks": 40,
          "midi": 66,
          "name": "F#4",
          "ticks": 36720,
          "time": 102.00012749999999,
          "velocity": 0.5669291338582677
        },
        {
          "duration": 0.06666675000001021,
          "durationTicks": 24,
          "midi": 78,
          "name": "F#5",
          "ticks": 36742,
          "time": 102.0612386875,
          "velocity": 0.5669291338582677
        },
        {
          "duration": 0.11111125000000754,
          "durationTicks": 40,
          "midi": 71,
          "name": "B4",
          "ticks": 36768,
          "time": 102.133461,
          "velocity": 0.5669291338582677
        },
        {
          "duration": 0.066666749999996,
          "durationTicks": 24,
          "midi": 83,
          "name": "B5",
          "ticks": 36790,
          "time": 102.1945721875,
          "velocity": 0.5669291338582677
        },
        {
          "duration": 0.11111125000000754,
          "durationTicks": 40,
          "midi": 65,
          "name": "F4",
          "ticks": 36816,
          "time": 102.26679449999999,
          "velocity": 0.5669291338582677
        },
        {
          "duration": 0.066666749999996,
          "durationTicks": 24,
          "midi": 77,
          "name": "F5",
          "ticks": 36838,
          "time": 102.3279056875,
          "velocity": 0.5669291338582677
        },
        {
          "duration": 0.11111125000000754,
          "durationTicks": 40,
          "midi": 69,
          "name": "A4",
          "ticks": 36864,
          "time": 102.400128,
          "velocity": 0.5669291338582677
        },
        {
          "duration": 0.066666749999996,
          "durationTicks": 24,
          "midi": 81,
          "name": "A5",
          "ticks": 36886,
          "time": 102.4612391875,
          "velocity": 0.5669291338582677
        },
        {
          "duration": 0.11111124999999333,
          "durationTicks": 40,
          "midi": 74,
          "name": "D5",
          "ticks": 36912,
          "time": 102.5334615,
          "velocity": 0.5669291338582677
        },
        {
          "duration": 0.066666749999996,
          "durationTicks": 24,
          "midi": 86,
          "name": "D6",
          "ticks": 36934,
          "time": 102.5945726875,
          "velocity": 0.5669291338582677
        },
        {
          "duration": 0.11111125000000754,
          "durationTicks": 40,
          "midi": 71,
          "name": "B4",
          "ticks": 36960,
          "time": 102.666795,
          "velocity": 0.5669291338582677
        },
        {
          "duration": 0.06666675000001021,
          "durationTicks": 24,
          "midi": 83,
          "name": "B5",
          "ticks": 36982,
          "time": 102.7279061875,
          "velocity": 0.5669291338582677
        },
        {
          "duration": 0.11111125000000754,
          "durationTicks": 40,
          "midi": 66,
          "name": "F#4",
          "ticks": 37008,
          "time": 102.8001285,
          "velocity": 0.5669291338582677
        },
        {
          "duration": 0.066666749999996,
          "durationTicks": 24,
          "midi": 78,
          "name": "F#5",
          "ticks": 37030,
          "time": 102.8612396875,
          "velocity": 0.5669291338582677
        },
        {
          "duration": 0.11111125000000754,
          "durationTicks": 40,
          "midi": 58,
          "name": "A#3",
          "ticks": 37056,
          "time": 102.93346199999999,
          "velocity": 0.5669291338582677
        },
        {
          "duration": 0.06666675000001021,
          "durationTicks": 24,
          "midi": 70,
          "name": "A#4",
          "ticks": 37078,
          "time": 102.9945731875,
          "velocity": 0.5669291338582677
        },
        {
          "duration": 0.11111125000000754,
          "durationTicks": 40,
          "midi": 63,
          "name": "D#4",
          "ticks": 37104,
          "time": 103.0667955,
          "velocity": 0.5669291338582677
        },
        {
          "duration": 0.066666749999996,
          "durationTicks": 24,
          "midi": 75,
          "name": "D#5",
          "ticks": 37126,
          "time": 103.1279066875,
          "velocity": 0.5669291338582677
        },
        {
          "duration": 0.11111125000000754,
          "durationTicks": 40,
          "midi": 66,
          "name": "F#4",
          "ticks": 37152,
          "time": 103.20012899999999,
          "velocity": 0.5669291338582677
        },
        {
          "duration": 0.06666675000001021,
          "durationTicks": 24,
          "midi": 78,
          "name": "F#5",
          "ticks": 37174,
          "time": 103.2612401875,
          "velocity": 0.5669291338582677
        },
        {
          "duration": 0.11111125000000754,
          "durationTicks": 40,
          "midi": 63,
          "name": "D#4",
          "ticks": 37200,
          "time": 103.3334625,
          "velocity": 0.5669291338582677
        },
        {
          "duration": 0.066666749999996,
          "durationTicks": 24,
          "midi": 75,
          "name": "D#5",
          "ticks": 37222,
          "time": 103.3945736875,
          "velocity": 0.5669291338582677
        },
        {
          "duration": 0.11111125000000754,
          "durationTicks": 40,
          "midi": 70,
          "name": "A#4",
          "ticks": 37248,
          "time": 103.46679599999999,
          "velocity": 0.5669291338582677
        },
        {
          "duration": 0.066666749999996,
          "durationTicks": 24,
          "midi": 82,
          "name": "A#5",
          "ticks": 37270,
          "time": 103.5279071875,
          "velocity": 0.5669291338582677
        },
        {
          "duration": 0.11111125000000754,
          "durationTicks": 40,
          "midi": 66,
          "name": "F#4",
          "ticks": 37296,
          "time": 103.6001295,
          "velocity": 0.5669291338582677
        },
        {
          "duration": 0.066666749999996,
          "durationTicks": 24,
          "midi": 78,
          "name": "F#5",
          "ticks": 37318,
          "time": 103.6612406875,
          "velocity": 0.5669291338582677
        },
        {
          "duration": 0.11111124999999333,
          "durationTicks": 40,
          "midi": 69,
          "name": "A4",
          "ticks": 37344,
          "time": 103.733463,
          "velocity": 0.5669291338582677
        },
        {
          "duration": 0.066666749999996,
          "durationTicks": 24,
          "midi": 81,
          "name": "A5",
          "ticks": 37366,
          "time": 103.7945741875,
          "velocity": 0.5669291338582677
        },
        {
          "duration": 0.11111125000000754,
          "durationTicks": 40,
          "midi": 63,
          "name": "D#4",
          "ticks": 37392,
          "time": 103.86679649999999,
          "velocity": 0.5669291338582677
        },
        {
          "duration": 0.06666675000001021,
          "durationTicks": 24,
          "midi": 75,
          "name": "D#5",
          "ticks": 37414,
          "time": 103.9279076875,
          "velocity": 0.5669291338582677
        },
        {
          "duration": 0.11111125000000754,
          "durationTicks": 40,
          "midi": 70,
          "name": "A#4",
          "ticks": 37440,
          "time": 104.00013,
          "velocity": 0.5669291338582677
        },
        {
          "duration": 0.066666749999996,
          "durationTicks": 24,
          "midi": 82,
          "name": "A#5",
          "ticks": 37462,
          "time": 104.0612411875,
          "velocity": 0.5669291338582677
        },
        {
          "duration": 0.11111125000000754,
          "durationTicks": 40,
          "midi": 66,
          "name": "F#4",
          "ticks": 37488,
          "time": 104.13346349999999,
          "velocity": 0.5669291338582677
        },
        {
          "duration": 0.06666675000001021,
          "durationTicks": 24,
          "midi": 78,
          "name": "F#5",
          "ticks": 37510,
          "time": 104.1945746875,
          "velocity": 0.5669291338582677
        },
        {
          "duration": 0.11111125000000754,
          "durationTicks": 40,
          "midi": 71,
          "name": "B4",
          "ticks": 37536,
          "time": 104.266797,
          "velocity": 0.5669291338582677
        },
        {
          "duration": 0.066666749999996,
          "durationTicks": 24,
          "midi": 83,
          "name": "B5",
          "ticks": 37558,
          "time": 104.3279081875,
          "velocity": 0.5669291338582677
        },
        {
          "duration": 0.11111125000000754,
          "durationTicks": 40,
          "midi": 65,
          "name": "F4",
          "ticks": 37584,
          "time": 104.40013049999999,
          "velocity": 0.5669291338582677
        },
        {
          "duration": 0.066666749999996,
          "durationTicks": 24,
          "midi": 77,
          "name": "F5",
          "ticks": 37606,
          "time": 104.4612416875,
          "velocity": 0.5669291338582677
        },
        {
          "duration": 0.11111125000000754,
          "durationTicks": 40,
          "midi": 69,
          "name": "A4",
          "ticks": 37632,
          "time": 104.533464,
          "velocity": 0.5669291338582677
        },
        {
          "duration": 0.066666749999996,
          "durationTicks": 24,
          "midi": 81,
          "name": "A5",
          "ticks": 37654,
          "time": 104.5945751875,
          "velocity": 0.5669291338582677
        },
        {
          "duration": 0.11111124999999333,
          "durationTicks": 40,
          "midi": 74,
          "name": "D5",
          "ticks": 37680,
          "time": 104.6667975,
          "velocity": 0.5669291338582677
        },
        {
          "duration": 0.066666749999996,
          "durationTicks": 24,
          "midi": 86,
          "name": "D6",
          "ticks": 37702,
          "time": 104.7279086875,
          "velocity": 0.5669291338582677
        },
        {
          "duration": 0.11111125000000754,
          "durationTicks": 40,
          "midi": 71,
          "name": "B4",
          "ticks": 37728,
          "time": 104.800131,
          "velocity": 0.5669291338582677
        },
        {
          "duration": 0.06666675000001021,
          "durationTicks": 24,
          "midi": 83,
          "name": "B5",
          "ticks": 37750,
          "time": 104.8612421875,
          "velocity": 0.5669291338582677
        },
        {
          "duration": 0.11111125000000754,
          "durationTicks": 40,
          "midi": 66,
          "name": "F#4",
          "ticks": 37776,
          "time": 104.9334645,
          "velocity": 0.5669291338582677
        },
        {
          "duration": 0.066666749999996,
          "durationTicks": 24,
          "midi": 78,
          "name": "F#5",
          "ticks": 37798,
          "time": 104.9945756875,
          "velocity": 0.5669291338582677
        },
        {
          "duration": 0.11111125000000754,
          "durationTicks": 40,
          "midi": 58,
          "name": "A#3",
          "ticks": 37824,
          "time": 105.06679799999999,
          "velocity": 0.5669291338582677
        },
        {
          "duration": 0.06666675000001021,
          "durationTicks": 24,
          "midi": 70,
          "name": "A#4",
          "ticks": 37846,
          "time": 105.1279091875,
          "velocity": 0.5669291338582677
        },
        {
          "duration": 0.11111125000000754,
          "durationTicks": 40,
          "midi": 63,
          "name": "D#4",
          "ticks": 37872,
          "time": 105.2001315,
          "velocity": 0.5669291338582677
        },
        {
          "duration": 0.066666749999996,
          "durationTicks": 24,
          "midi": 75,
          "name": "D#5",
          "ticks": 37894,
          "time": 105.2612426875,
          "velocity": 0.5669291338582677
        },
        {
          "duration": 0.11111125000000754,
          "durationTicks": 40,
          "midi": 66,
          "name": "F#4",
          "ticks": 37920,
          "time": 105.33346499999999,
          "velocity": 0.5511811023622047
        },
        {
          "duration": 0.06666675000001021,
          "durationTicks": 24,
          "midi": 78,
          "name": "F#5",
          "ticks": 37942,
          "time": 105.3945761875,
          "velocity": 0.5433070866141733
        },
        {
          "duration": 0.11111125000000754,
          "durationTicks": 40,
          "midi": 63,
          "name": "D#4",
          "ticks": 37968,
          "time": 105.4667985,
          "velocity": 0.5354330708661418
        },
        {
          "duration": 0.066666749999996,
          "durationTicks": 24,
          "midi": 75,
          "name": "D#5",
          "ticks": 37990,
          "time": 105.5279096875,
          "velocity": 0.5275590551181102
        },
        {
          "duration": 0.11111124999999333,
          "durationTicks": 40,
          "midi": 70,
          "name": "A#4",
          "ticks": 38016,
          "time": 105.600132,
          "velocity": 0.5196850393700787
        },
        {
          "duration": 0.066666749999996,
          "durationTicks": 24,
          "midi": 82,
          "name": "A#5",
          "ticks": 38038,
          "time": 105.6612431875,
          "velocity": 0.5196850393700787
        },
        {
          "duration": 0.11111125000000754,
          "durationTicks": 40,
          "midi": 66,
          "name": "F#4",
          "ticks": 38064,
          "time": 105.7334655,
          "velocity": 0.5118110236220472
        },
        {
          "duration": 0.066666749999996,
          "durationTicks": 24,
          "midi": 78,
          "name": "F#5",
          "ticks": 38086,
          "time": 105.7945766875,
          "velocity": 0.5039370078740157
        },
        {
          "duration": 0.11111124999999333,
          "durationTicks": 40,
          "midi": 70,
          "name": "A#4",
          "ticks": 38112,
          "time": 105.866799,
          "velocity": 0.49606299212598426
        },
        {
          "duration": 0.066666749999996,
          "durationTicks": 24,
          "midi": 82,
          "name": "A#5",
          "ticks": 38134,
          "time": 105.9279101875,
          "velocity": 0.4881889763779528
        },
        {
          "duration": 0.11111125000000754,
          "durationTicks": 40,
          "midi": 64,
          "name": "E4",
          "ticks": 38160,
          "time": 106.00013249999999,
          "velocity": 0.48031496062992124
        },
        {
          "duration": 0.06666675000001021,
          "durationTicks": 24,
          "midi": 76,
          "name": "E5",
          "ticks": 38182,
          "time": 106.0612436875,
          "velocity": 0.47244094488188976
        },
        {
          "duration": 0.11111125000000754,
          "durationTicks": 40,
          "midi": 71,
          "name": "B4",
          "ticks": 38208,
          "time": 106.133466,
          "velocity": 0.4645669291338583
        },
        {
          "duration": 0.066666749999996,
          "durationTicks": 24,
          "midi": 83,
          "name": "B5",
          "ticks": 38230,
          "time": 106.1945771875,
          "velocity": 0.4566929133858268
        },
        {
          "duration": 0.11111125000000754,
          "durationTicks": 40,
          "midi": 67,
          "name": "G4",
          "ticks": 38256,
          "time": 106.26679949999999,
          "velocity": 0.4566929133858268
        },
        {
          "duration": 0.06666675000001021,
          "durationTicks": 24,
          "midi": 79,
          "name": "G5",
          "ticks": 38278,
          "time": 106.3279106875,
          "velocity": 0.44881889763779526
        },
        {
          "duration": 0.11111125000000754,
          "durationTicks": 40,
          "midi": 73,
          "name": "C#5",
          "ticks": 38304,
          "time": 106.400133,
          "velocity": 0.4409448818897638
        },
        {
          "duration": 0.066666749999996,
          "durationTicks": 24,
          "midi": 85,
          "name": "C#6",
          "ticks": 38326,
          "time": 106.4612441875,
          "velocity": 0.4330708661417323
        },
        {
          "duration": 0.11111125000000754,
          "durationTicks": 40,
          "midi": 67,
          "name": "G4",
          "ticks": 38352,
          "time": 106.53346649999999,
          "velocity": 0.4251968503937008
        },
        {
          "duration": 0.066666749999996,
          "durationTicks": 24,
          "midi": 79,
          "name": "G5",
          "ticks": 38374,
          "time": 106.5945776875,
          "velocity": 0.41732283464566927
        },
        {
          "duration": 0.11111125000000754,
          "durationTicks": 40,
          "midi": 71,
          "name": "B4",
          "ticks": 38400,
          "time": 106.6668,
          "velocity": 0.4094488188976378
        },
        {
          "duration": 0.066666749999996,
          "durationTicks": 24,
          "midi": 83,
          "name": "B5",
          "ticks": 38422,
          "time": 106.7279111875,
          "velocity": 0.4015748031496063
        },
        {
          "duration": 0.11111124999999333,
          "durationTicks": 40,
          "midi": 76,
          "name": "E5",
          "ticks": 38448,
          "time": 106.8001335,
          "velocity": 0.3937007874015748
        },
        {
          "duration": 0.066666749999996,
          "durationTicks": 24,
          "midi": 88,
          "name": "E6",
          "ticks": 38470,
          "time": 106.8612446875,
          "velocity": 0.3937007874015748
        },
        {
          "duration": 0.11111125000000754,
          "durationTicks": 40,
          "midi": 74,
          "name": "D5",
          "ticks": 38496,
          "time": 106.933467,
          "velocity": 0.3858267716535433
        },
        {
          "duration": 0.06666675000001021,
          "durationTicks": 24,
          "midi": 86,
          "name": "D6",
          "ticks": 38518,
          "time": 106.9945781875,
          "velocity": 0.3779527559055118
        },
        {
          "duration": 0.11111125000000754,
          "durationTicks": 40,
          "midi": 69,
          "name": "A4",
          "ticks": 38544,
          "time": 107.0668005,
          "velocity": 0.3700787401574803
        },
        {
          "duration": 0.066666749999996,
          "durationTicks": 24,
          "midi": 81,
          "name": "A5",
          "ticks": 38566,
          "time": 107.1279116875,
          "velocity": 0.36220472440944884
        },
        {
          "duration": 0.11111125000000754,
          "durationTicks": 40,
          "midi": 61,
          "name": "C#4",
          "ticks": 38592,
          "time": 107.20013399999999,
          "velocity": 0.3543307086614173
        },
        {
          "duration": 0.06666675000001021,
          "durationTicks": 24,
          "midi": 73,
          "name": "C#5",
          "ticks": 38614,
          "time": 107.2612451875,
          "velocity": 0.3464566929133858
        },
        {
          "duration": 0.11111125000000754,
          "durationTicks": 40,
          "midi": 66,
          "name": "F#4",
          "ticks": 38640,
          "time": 107.3334675,
          "velocity": 0.33858267716535434
        },
        {
          "duration": 0.066666749999996,
          "durationTicks": 24,
          "midi": 78,
          "name": "F#5",
          "ticks": 38662,
          "time": 107.3945786875,
          "velocity": 0.33858267716535434
        },
        {
          "duration": 0.11111125000000754,
          "durationTicks": 40,
          "midi": 70,
          "name": "A#4",
          "ticks": 38688,
          "time": 107.46680099999999,
          "velocity": 0.33070866141732286
        },
        {
          "duration": 0.06666675000001021,
          "durationTicks": 24,
          "midi": 82,
          "name": "A#5",
          "ticks": 38710,
          "time": 107.5279121875,
          "velocity": 0.3228346456692913
        },
        {
          "duration": 0.11111125000000754,
          "durationTicks": 40,
          "midi": 67,
          "name": "G4",
          "ticks": 38736,
          "time": 107.6001345,
          "velocity": 0.31496062992125984
        },
        {
          "duration": 0.066666749999996,
          "durationTicks": 24,
          "midi": 79,
          "name": "G5",
          "ticks": 38758,
          "time": 107.6612456875,
          "velocity": 0.30708661417322836
        },
        {
          "duration": 0.11111125000000754,
          "durationTicks": 40,
          "midi": 74,
          "name": "D5",
          "ticks": 38784,
          "time": 107.73346799999999,
          "velocity": 0.2992125984251969
        },
        {
          "duration": 0.066666749999996,
          "durationTicks": 24,
          "midi": 86,
          "name": "D6",
          "ticks": 38806,
          "time": 107.7945791875,
          "velocity": 0.29133858267716534
        },
        {
          "duration": 0.11111125000000754,
          "durationTicks": 40,
          "midi": 70,
          "name": "A#4",
          "ticks": 38832,
          "time": 107.8668015,
          "velocity": 0.28346456692913385
        },
        {
          "duration": 0.066666749999996,
          "durationTicks": 24,
          "midi": 82,
          "name": "A#5",
          "ticks": 38854,
          "time": 107.9279126875,
          "velocity": 0.28346456692913385
        },
        {
          "duration": 0.11111124999999333,
          "durationTicks": 40,
          "midi": 74,
          "name": "D5",
          "ticks": 38880,
          "time": 108.000135,
          "velocity": 0.2755905511811024
        },
        {
          "duration": 0.066666749999996,
          "durationTicks": 24,
          "midi": 86,
          "name": "D6",
          "ticks": 38902,
          "time": 108.0612461875,
          "velocity": 0.2677165354330709
        },
        {
          "duration": 0.11111125000000754,
          "durationTicks": 40,
          "midi": 68,
          "name": "G#4",
          "ticks": 38928,
          "time": 108.13346849999999,
          "velocity": 0.25984251968503935
        },
        {
          "duration": 0.06666675000001021,
          "durationTicks": 24,
          "midi": 80,
          "name": "G#5",
          "ticks": 38950,
          "time": 108.1945796875,
          "velocity": 0.25196850393700787
        },
        {
          "duration": 0.11111125000000754,
          "durationTicks": 40,
          "midi": 75,
          "name": "D#5",
          "ticks": 38976,
          "time": 108.266802,
          "velocity": 0.2440944881889764
        },
        {
          "duration": 0.066666749999996,
          "durationTicks": 24,
          "midi": 87,
          "name": "D#6",
          "ticks": 38998,
          "time": 108.3279131875,
          "velocity": 0.23622047244094488
        },
        {
          "duration": 0.11111125000000754,
          "durationTicks": 40,
          "midi": 71,
          "name": "B4",
          "ticks": 39024,
          "time": 108.40013549999999,
          "velocity": 0.2283464566929134
        },
        {
          "duration": 0.06666675000001021,
          "durationTicks": 24,
          "midi": 83,
          "name": "B5",
          "ticks": 39046,
          "time": 108.4612466875,
          "velocity": 0.2283464566929134
        }
      ],
      "endOfTrackTicks": 82491
    },
    {
      "channel": 13,
      "controlChanges": {
        "6": [
          {
            "number": 6,
            "ticks": 0,
            "time": 0,
            "value": 0.09448818897637795
          },
          {
            "number": 6,
            "ticks": 0,
            "time": 0,
            "value": 0.09448818897637795
          },
          {
            "number": 6,
            "ticks": 0,
            "time": 0,
            "value": 0.09448818897637795
          },
          {
            "number": 6,
            "ticks": 82466,
            "time": 228.45777604166662,
            "value": 0.09448818897637795
          },
          {
            "number": 6,
            "ticks": 82491,
            "time": 228.52722057291663,
            "value": 0.09448818897637795
          }
        ],
        "7": [
          {
            "number": 7,
            "ticks": 0,
            "time": 0,
            "value": 0.7874015748031497
          },
          {
            "number": 7,
            "ticks": 0,
            "time": 0,
            "value": 0.7874015748031497
          },
          {
            "number": 7,
            "ticks": 0,
            "time": 0,
            "value": 0.7874015748031497
          },
          {
            "number": 7,
            "ticks": 0,
            "time": 0,
            "value": 0.7874015748031497
          },
          {
            "number": 7,
            "ticks": 82466,
            "time": 228.45777604166662,
            "value": 0.7874015748031497
          },
          {
            "number": 7,
            "ticks": 82491,
            "time": 228.52722057291663,
            "value": 0.7874015748031497
          }
        ],
        "10": [
          {
            "number": 10,
            "ticks": 0,
            "time": 0,
            "value": 0.5039370078740157
          },
          {
            "number": 10,
            "ticks": 0,
            "time": 0,
            "value": 0.5039370078740157
          },
          {
            "number": 10,
            "ticks": 0,
            "time": 0,
            "value": 0.5039370078740157
          },
          {
            "number": 10,
            "ticks": 0,
            "time": 0,
            "value": 0.5039370078740157
          },
          {
            "number": 10,
            "ticks": 82466,
            "time": 228.45777604166662,
            "value": 0.5039370078740157
          },
          {
            "number": 10,
            "ticks": 82491,
            "time": 228.52722057291663,
            "value": 0.5039370078740157
          }
        ],
        "100": [
          {
            "number": 100,
            "ticks": 0,
            "time": 0,
            "value": 0
          },
          {
            "number": 100,
            "ticks": 0,
            "time": 0,
            "value": 0
          },
          {
            "number": 100,
            "ticks": 0,
            "time": 0,
            "value": 0
          },
          {
            "number": 100,
            "ticks": 82466,
            "time": 228.45777604166662,
            "value": 0
          },
          {
            "number": 100,
            "ticks": 82491,
            "time": 228.52722057291663,
            "value": 0
          }
        ],
        "101": [
          {
            "number": 101,
            "ticks": 0,
            "time": 0,
            "value": 0
          },
          {
            "number": 101,
            "ticks": 0,
            "time": 0,
            "value": 0
          },
          {
            "number": 101,
            "ticks": 0,
            "time": 0,
            "value": 0
          },
          {
            "number": 101,
            "ticks": 82466,
            "time": 228.45777604166662,
            "value": 0
          },
          {
            "number": 101,
            "ticks": 82491,
            "time": 228.52722057291663,
            "value": 0
          }
        ]
      },
      "pitchBends": [
        {
          "ticks": 0,
          "time": 0,
          "value": 0
        },
        {
          "ticks": 0,
          "time": 0,
          "value": 0
        },
        {
          "ticks": 0,
          "time": 0,
          "value": 0
        },
        {
          "ticks": 0,
          "time": 0,
          "value": 0
        },
        {
          "ticks": 82466,
          "time": 228.45777604166662,
          "value": 0
        },
        {
          "ticks": 82491,
          "time": 228.52722057291663,
          "value": 0
        }
      ],
      "instrument": {
        "family": "piano",
        "number": 0,
        "name": "acoustic grand piano"
      },
      "name": "Synth",
      "notes": [
        {
          "duration": 0.0666667500000031,
          "durationTicks": 24,
          "midi": 59,
          "name": "B3",
          "ticks": 13152,
          "time": 36.533379,
          "velocity": 0.41732283464566927
        },
        {
          "duration": 0.0666667500000031,
          "durationTicks": 24,
          "midi": 66,
          "name": "F#4",
          "ticks": 13200,
          "time": 36.666712499999996,
          "velocity": 0.41732283464566927
        },
        {
          "duration": 0.0666667500000031,
          "durationTicks": 24,
          "midi": 65,
          "name": "F4",
          "ticks": 13248,
          "time": 36.800045999999995,
          "velocity": 0.41732283464566927
        },
        {
          "duration": 0.066666749999996,
          "durationTicks": 24,
          "midi": 66,
          "name": "F#4",
          "ticks": 13296,
          "time": 36.9333795,
          "velocity": 0.41732283464566927
        },
        {
          "duration": 0.066666749999996,
          "durationTicks": 24,
          "midi": 68,
          "name": "G#4",
          "ticks": 13344,
          "time": 37.066713,
          "velocity": 0.41732283464566927
        },
        {
          "duration": 0.066666749999996,
          "durationTicks": 24,
          "midi": 66,
          "name": "F#4",
          "ticks": 13392,
          "time": 37.2000465,
          "velocity": 0.41732283464566927
        },
        {
          "duration": 0.0666667500000031,
          "durationTicks": 24,
          "midi": 59,
          "name": "B3",
          "ticks": 13440,
          "time": 37.33338,
          "velocity": 0.41732283464566927
        },
        {
          "duration": 0.0666667500000031,
          "durationTicks": 24,
          "midi": 66,
          "name": "F#4",
          "ticks": 13488,
          "time": 37.4667135,
          "velocity": 0.41732283464566927
        },
        {
          "duration": 0.0666667500000031,
          "durationTicks": 24,
          "midi": 65,
          "name": "F4",
          "ticks": 13536,
          "time": 37.600046999999996,
          "velocity": 0.41732283464566927
        },
        {
          "duration": 0.0666667500000031,
          "durationTicks": 24,
          "midi": 66,
          "name": "F#4",
          "ticks": 13584,
          "time": 37.733380499999996,
          "velocity": 0.41732283464566927
        },
        {
          "duration": 0.066666749999996,
          "durationTicks": 24,
          "midi": 68,
          "name": "G#4",
          "ticks": 13632,
          "time": 37.866714,
          "velocity": 0.41732283464566927
        },
        {
          "duration": 0.066666749999996,
          "durationTicks": 24,
          "midi": 70,
          "name": "A#4",
          "ticks": 13680,
          "time": 38.0000475,
          "velocity": 0.41732283464566927
        },
        {
          "duration": 0.066666749999996,
          "durationTicks": 24,
          "midi": 58,
          "name": "A#3",
          "ticks": 13728,
          "time": 38.133381,
          "velocity": 0.41732283464566927
        },
        {
          "duration": 0.066666749999996,
          "durationTicks": 24,
          "midi": 65,
          "name": "F4",
          "ticks": 13776,
          "time": 38.2667145,
          "velocity": 0.41732283464566927
        },
        {
          "duration": 0.0666667500000031,
          "durationTicks": 24,
          "midi": 64,
          "name": "E4",
          "ticks": 13824,
          "time": 38.400048,
          "velocity": 0.41732283464566927
        },
        {
          "duration": 0.0666667500000031,
          "durationTicks": 24,
          "midi": 65,
          "name": "F4",
          "ticks": 13872,
          "time": 38.5333815,
          "velocity": 0.41732283464566927
        },
        {
          "duration": 0.0666667500000031,
          "durationTicks": 24,
          "midi": 67,
          "name": "G4",
          "ticks": 13920,
          "time": 38.666714999999996,
          "velocity": 0.41732283464566927
        },
        {
          "duration": 0.0666667500000031,
          "durationTicks": 24,
          "midi": 65,
          "name": "F4",
          "ticks": 13968,
          "time": 38.800048499999995,
          "velocity": 0.41732283464566927
        },
        {
          "duration": 0.0666667500000031,
          "durationTicks": 24,
          "midi": 58,
          "name": "A#3",
          "ticks": 14016,
          "time": 38.933381999999995,
          "velocity": 0.41732283464566927
        },
        {
          "duration": 0.066666749999996,
          "durationTicks": 24,
          "midi": 65,
          "name": "F4",
          "ticks": 14064,
          "time": 39.0667155,
          "velocity": 0.41732283464566927
        },
        {
          "duration": 0.066666749999996,
          "durationTicks": 24,
          "midi": 64,
          "name": "E4",
          "ticks": 14112,
          "time": 39.200049,
          "velocity": 0.41732283464566927
        },
        {
          "duration": 0.066666749999996,
          "durationTicks": 24,
          "midi": 65,
          "name": "F4",
          "ticks": 14160,
          "time": 39.3333825,
          "velocity": 0.41732283464566927
        },
        {
          "duration": 0.0666667500000031,
          "durationTicks": 24,
          "midi": 57,
          "name": "A3",
          "ticks": 14208,
          "time": 39.466716,
          "velocity": 0.41732283464566927
        },
        {
          "duration": 0.0666667500000031,
          "durationTicks": 24,
          "midi": 64,
          "name": "E4",
          "ticks": 14256,
          "time": 39.6000495,
          "velocity": 0.41732283464566927
        },
        {
          "duration": 0.0666667500000031,
          "durationTicks": 24,
          "midi": 63,
          "name": "D#4",
          "ticks": 14304,
          "time": 39.733382999999996,
          "velocity": 0.41732283464566927
        },
        {
          "duration": 0.0666667500000031,
          "durationTicks": 24,
          "midi": 64,
          "name": "E4",
          "ticks": 14352,
          "time": 39.866716499999995,
          "velocity": 0.41732283464566927
        },
        {
          "duration": 0.066666749999996,
          "durationTicks": 24,
          "midi": 66,
          "name": "F#4",
          "ticks": 14400,
          "time": 40.00005,
          "velocity": 0.41732283464566927
        },
        {
          "duration": 0.066666749999996,
          "durationTicks": 24,
          "midi": 64,
          "name": "E4",
          "ticks": 14448,
          "time": 40.1333835,
          "velocity": 0.41732283464566927
        },
        {
          "duration": 0.066666749999996,
          "durationTicks": 24,
          "midi": 57,
          "name": "A3",
          "ticks": 14496,
          "time": 40.266717,
          "velocity": 0.41732283464566927
        },
        {
          "duration": 0.066666749999996,
          "durationTicks": 24,
          "midi": 64,
          "name": "E4",
          "ticks": 14544,
          "time": 40.4000505,
          "velocity": 0.41732283464566927
        },
        {
          "duration": 0.0666667500000031,
          "durationTicks": 24,
          "midi": 63,
          "name": "D#4",
          "ticks": 14592,
          "time": 40.533384,
          "velocity": 0.41732283464566927
        },
        {
          "duration": 0.0666667500000031,
          "durationTicks": 24,
          "midi": 64,
          "name": "E4",
          "ticks": 14640,
          "time": 40.6667175,
          "velocity": 0.41732283464566927
        },
        {
          "duration": 0.0666667500000031,
          "durationTicks": 24,
          "midi": 66,
          "name": "F#4",
          "ticks": 14688,
          "time": 40.800050999999996,
          "velocity": 0.41732283464566927
        },
        {
          "duration": 0.0666667500000031,
          "durationTicks": 24,
          "midi": 68,
          "name": "G#4",
          "ticks": 14736,
          "time": 40.933384499999995,
          "velocity": 0.41732283464566927
        },
        {
          "duration": 0.0666667500000031,
          "durationTicks": 24,
          "midi": 56,
          "name": "G#3",
          "ticks": 14784,
          "time": 41.066717999999995,
          "velocity": 0.41732283464566927
        },
        {
          "duration": 0.066666749999996,
          "durationTicks": 24,
          "midi": 63,
          "name": "D#4",
          "ticks": 14832,
          "time": 41.2000515,
          "velocity": 0.41732283464566927
        },
        {
          "duration": 0.066666749999996,
          "durationTicks": 24,
          "midi": 62,
          "name": "D4",
          "ticks": 14880,
          "time": 41.333385,
          "velocity": 0.41732283464566927
        },
        {
          "duration": 0.066666749999996,
          "durationTicks": 24,
          "midi": 63,
          "name": "D#4",
          "ticks": 14928,
          "time": 41.4667185,
          "velocity": 0.41732283464566927
        },
        {
          "duration": 0.0666667500000031,
          "durationTicks": 24,
          "midi": 65,
          "name": "F4",
          "ticks": 14976,
          "time": 41.600052,
          "velocity": 0.41732283464566927
        },
        {
          "duration": 0.0666667500000031,
          "durationTicks": 24,
          "midi": 63,
          "name": "D#4",
          "ticks": 15024,
          "time": 41.7333855,
          "velocity": 0.41732283464566927
        },
        {
          "duration": 0.0666667500000031,
          "durationTicks": 24,
          "midi": 56,
          "name": "G#3",
          "ticks": 15072,
          "time": 41.866718999999996,
          "velocity": 0.41732283464566927
        },
        {
          "duration": 0.2666669999999982,
          "durationTicks": 96,
          "midi": 66,
          "name": "F#4",
          "ticks": 21504,
          "time": 59.733408,
          "velocity": 0.7244094488188977
        },
        {
          "duration": 0.033333375000005105,
          "durationTicks": 12,
          "midi": 76,
          "name": "E5",
          "ticks": 21600,
          "time": 60.000074999999995,
          "velocity": 0.7244094488188977
        },
        {
          "duration": 0.1166668125000001,
          "durationTicks": 42,
          "midi": 78,
          "name": "F#5",
          "ticks": 21606,
          "time": 60.016741687499994,
          "velocity": 0.7244094488188977
        },
        {
          "duration": 0.033333375000005105,
          "durationTicks": 12,
          "midi": 79,
          "name": "G5",
          "ticks": 21648,
          "time": 60.133408499999994,
          "velocity": 0.5511811023622047
        },
        {
          "duration": 0.033333374999998,
          "durationTicks": 12,
          "midi": 78,
          "name": "F#5",
          "ticks": 21660,
          "time": 60.166741875,
          "velocity": 0.5511811023622047
        },
        {
          "duration": 0.033333374999998,
          "durationTicks": 12,
          "midi": 79,
          "name": "G5",
          "ticks": 21672,
          "time": 60.20007525,
          "velocity": 0.5511811023622047
        },
        {
          "duration": 0.033333374999998,
          "durationTicks": 12,
          "midi": 78,
          "name": "F#5",
          "ticks": 21684,
          "time": 60.233408624999996,
          "velocity": 0.5511811023622047
        },
        {
          "duration": 0.033333375000005105,
          "durationTicks": 12,
          "midi": 79,
          "name": "G5",
          "ticks": 21696,
          "time": 60.266741999999994,
          "velocity": 0.5511811023622047
        },
        {
          "duration": 0.033333374999998,
          "durationTicks": 12,
          "midi": 78,
          "name": "F#5",
          "ticks": 21708,
          "time": 60.300075375,
          "velocity": 0.5511811023622047
        },
        {
          "duration": 0.033333374999998,
          "durationTicks": 12,
          "midi": 79,
          "name": "G5",
          "ticks": 21720,
          "time": 60.33340875,
          "velocity": 0.5511811023622047
        },
        {
          "duration": 0.033333375000005105,
          "durationTicks": 12,
          "midi": 78,
          "name": "F#5",
          "ticks": 21732,
          "time": 60.366742124999995,
          "velocity": 0.5511811023622047
        },
        {
          "duration": 0.1333334999999991,
          "durationTicks": 48,
          "midi": 73,
          "name": "C#5",
          "ticks": 21744,
          "time": 60.4000755,
          "velocity": 0.7244094488188977
        },
        {
          "duration": 0.1333334999999991,
          "durationTicks": 48,
          "midi": 71,
          "name": "B4",
          "ticks": 21792,
          "time": 60.533409,
          "velocity": 0.7244094488188977
        },
        {
          "duration": 0.033333374999998,
          "durationTicks": 12,
          "midi": 72,
          "name": "C5",
          "ticks": 21840,
          "time": 60.6667425,
          "velocity": 0.5511811023622047
        },
        {
          "duration": 0.033333374999998,
          "durationTicks": 12,
          "midi": 71,
          "name": "B4",
          "ticks": 21852,
          "time": 60.700075874999996,
          "velocity": 0.5511811023622047
        },
        {
          "duration": 0.033333375000005105,
          "durationTicks": 12,
          "midi": 72,
          "name": "C5",
          "ticks": 21864,
          "time": 60.733409249999994,
          "velocity": 0.5511811023622047
        },
        {
          "duration": 0.033333374999998,
          "durationTicks": 12,
          "midi": 71,
          "name": "B4",
          "ticks": 21876,
          "time": 60.766742625,
          "velocity": 0.5511811023622047
        },
        {
          "duration": 0.033333374999998,
          "durationTicks": 12,
          "midi": 72,
          "name": "C5",
          "ticks": 21888,
          "time": 60.800076,
          "velocity": 0.5511811023622047
        },
        {
          "duration": 0.033333375000005105,
          "durationTicks": 12,
          "midi": 71,
          "name": "B4",
          "ticks": 21900,
          "time": 60.833409374999995,
          "velocity": 0.5511811023622047
        },
        {
          "duration": 0.033333374999998,
          "durationTicks": 12,
          "midi": 72,
          "name": "C5",
          "ticks": 21912,
          "time": 60.86674275,
          "velocity": 0.5511811023622047
        },
        {
          "duration": 0.033333374999998,
          "durationTicks": 12,
          "midi": 71,
          "name": "B4",
          "ticks": 21924,
          "time": 60.900076125,
          "velocity": 0.5511811023622047
        },
        {
          "duration": 0.1333334999999991,
          "durationTicks": 48,
          "midi": 69,
          "name": "A4",
          "ticks": 21936,
          "time": 60.933409499999996,
          "velocity": 0.7244094488188977
        },
        {
          "duration": 0.1333334999999991,
          "durationTicks": 48,
          "midi": 71,
          "name": "B4",
          "ticks": 21984,
          "time": 61.066742999999995,
          "velocity": 0.7244094488188977
        },
        {
          "duration": 0.033333375000005105,
          "durationTicks": 12,
          "midi": 72,
          "name": "C5",
          "ticks": 22032,
          "time": 61.200076499999994,
          "velocity": 0.5118110236220472
        },
        {
          "duration": 0.033333374999998,
          "durationTicks": 12,
          "midi": 71,
          "name": "B4",
          "ticks": 22044,
          "time": 61.233409875,
          "velocity": 0.5118110236220472
        },
        {
          "duration": 0.033333374999998,
          "durationTicks": 12,
          "midi": 72,
          "name": "C5",
          "ticks": 22056,
          "time": 61.26674325,
          "velocity": 0.5118110236220472
        },
        {
          "duration": 0.033333375000005105,
          "durationTicks": 12,
          "midi": 71,
          "name": "B4",
          "ticks": 22068,
          "time": 61.300076624999996,
          "velocity": 0.5118110236220472
        },
        {
          "duration": 0.1333334999999991,
          "durationTicks": 48,
          "midi": 74,
          "name": "D5",
          "ticks": 22080,
          "time": 61.33341,
          "velocity": 0.7244094488188977
        },
        {
          "duration": 0.033333374999998,
          "durationTicks": 12,
          "midi": 75,
          "name": "D#5",
          "ticks": 22128,
          "time": 61.4667435,
          "velocity": 0.5118110236220472
        },
        {
          "duration": 0.033333374999998,
          "durationTicks": 12,
          "midi": 74,
          "name": "D5",
          "ticks": 22140,
          "time": 61.500076875,
          "velocity": 0.5118110236220472
        },
        {
          "duration": 0.033333374999998,
          "durationTicks": 12,
          "midi": 75,
          "name": "D#5",
          "ticks": 22152,
          "time": 61.533410249999996,
          "velocity": 0.5511811023622047
        },
        {
          "duration": 0.033333375000005105,
          "durationTicks": 12,
          "midi": 74,
          "name": "D5",
          "ticks": 22164,
          "time": 61.566743624999994,
          "velocity": 0.5511811023622047
        },
        {
          "duration": 0.1333334999999991,
          "durationTicks": 48,
          "midi": 73,
          "name": "C#5",
          "ticks": 22176,
          "time": 61.600077,
          "velocity": 0.7244094488188977
        },
        {
          "duration": 0.033333374999998,
          "durationTicks": 12,
          "midi": 74,
          "name": "D5",
          "ticks": 22224,
          "time": 61.7334105,
          "velocity": 0.5511811023622047
        },
        {
          "duration": 0.033333374999998,
          "durationTicks": 12,
          "midi": 73,
          "name": "C#5",
          "ticks": 22236,
          "time": 61.766743874999996,
          "velocity": 0.5511811023622047
        },
        {
          "duration": 0.033333375000005105,
          "durationTicks": 12,
          "midi": 74,
          "name": "D5",
          "ticks": 22248,
          "time": 61.800077249999994,
          "velocity": 0.5511811023622047
        },
        {
          "duration": 0.033333374999998,
          "durationTicks": 12,
          "midi": 73,
          "name": "C#5",
          "ticks": 22260,
          "time": 61.833410625,
          "velocity": 0.5511811023622047
        },
        {
          "duration": 0.2666669999999982,
          "durationTicks": 96,
          "midi": 66,
          "name": "F#4",
          "ticks": 22272,
          "time": 61.866744,
          "velocity": 0.7244094488188977
        },
        {
          "duration": 0.033333375000005105,
          "durationTicks": 12,
          "midi": 76,
          "name": "E5",
          "ticks": 22368,
          "time": 62.133410999999995,
          "velocity": 0.7244094488188977
        },
        {
          "duration": 0.1166668125000001,
          "durationTicks": 42,
          "midi": 78,
          "name": "F#5",
          "ticks": 22374,
          "time": 62.150077687499994,
          "velocity": 0.7244094488188977
        },
        {
          "duration": 0.033333375000005105,
          "durationTicks": 12,
          "midi": 79,
          "name": "G5",
          "ticks": 22416,
          "time": 62.266744499999994,
          "velocity": 0.5511811023622047
        },
        {
          "duration": 0.033333374999998,
          "durationTicks": 12,
          "midi": 78,
          "name": "F#5",
          "ticks": 22428,
          "time": 62.300077875,
          "velocity": 0.5511811023622047
        },
        {
          "duration": 0.033333374999998,
          "durationTicks": 12,
          "midi": 79,
          "name": "G5",
          "ticks": 22440,
          "time": 62.33341125,
          "velocity": 0.5511811023622047
        },
        {
          "duration": 0.033333374999998,
          "durationTicks": 12,
          "midi": 78,
          "name": "F#5",
          "ticks": 22452,
          "time": 62.366744624999995,
          "velocity": 0.5511811023622047
        },
        {
          "duration": 0.033333375000005105,
          "durationTicks": 12,
          "midi": 79,
          "name": "G5",
          "ticks": 22464,
          "time": 62.40007799999999,
          "velocity": 0.5511811023622047
        },
        {
          "duration": 0.033333374999998,
          "durationTicks": 12,
          "midi": 78,
          "name": "F#5",
          "ticks": 22476,
          "time": 62.433411375,
          "velocity": 0.5511811023622047
        },
        {
          "duration": 0.033333374999998,
          "durationTicks": 12,
          "midi": 79,
          "name": "G5",
          "ticks": 22488,
          "time": 62.46674475,
          "velocity": 0.5511811023622047
        },
        {
          "duration": 0.033333375000005105,
          "durationTicks": 12,
          "midi": 78,
          "name": "F#5",
          "ticks": 22500,
          "time": 62.500078124999995,
          "velocity": 0.5511811023622047
        },
        {
          "duration": 0.1333334999999991,
          "durationTicks": 48,
          "midi": 73,
          "name": "C#5",
          "ticks": 22512,
          "time": 62.5334115,
          "velocity": 0.7244094488188977
        },
        {
          "duration": 0.1333334999999991,
          "durationTicks": 48,
          "midi": 71,
          "name": "B4",
          "ticks": 22560,
          "time": 62.666745,
          "velocity": 0.7244094488188977
        },
        {
          "duration": 0.033333374999998,
          "durationTicks": 12,
          "midi": 72,
          "name": "C5",
          "ticks": 22608,
          "time": 62.8000785,
          "velocity": 0.5511811023622047
        },
        {
          "duration": 0.033333374999998,
          "durationTicks": 12,
          "midi": 71,
          "name": "B4",
          "ticks": 22620,
          "time": 62.833411874999996,
          "velocity": 0.5511811023622047
        },
        {
          "duration": 0.033333375000005105,
          "durationTicks": 12,
          "midi": 72,
          "name": "C5",
          "ticks": 22632,
          "time": 62.866745249999994,
          "velocity": 0.5511811023622047
        },
        {
          "duration": 0.033333374999998,
          "durationTicks": 12,
          "midi": 71,
          "name": "B4",
          "ticks": 22644,
          "time": 62.900078625,
          "velocity": 0.5511811023622047
        },
        {
          "duration": 0.033333374999998,
          "durationTicks": 12,
          "midi": 72,
          "name": "C5",
          "ticks": 22656,
          "time": 62.933412,
          "velocity": 0.5511811023622047
        },
        {
          "duration": 0.033333375000005105,
          "durationTicks": 12,
          "midi": 71,
          "name": "B4",
          "ticks": 22668,
          "time": 62.966745374999995,
          "velocity": 0.5511811023622047
        },
        {
          "duration": 0.033333374999998,
          "durationTicks": 12,
          "midi": 72,
          "name": "C5",
          "ticks": 22680,
          "time": 63.00007875,
          "velocity": 0.5511811023622047
        },
        {
          "duration": 0.033333374999998,
          "durationTicks": 12,
          "midi": 71,
          "name": "B4",
          "ticks": 22692,
          "time": 63.033412125,
          "velocity": 0.5511811023622047
        },
        {
          "duration": 0.1333334999999991,
          "durationTicks": 48,
          "midi": 68,
          "name": "G#4",
          "ticks": 22704,
          "time": 63.066745499999996,
          "velocity": 0.7244094488188977
        },
        {
          "duration": 0.0666667500000031,
          "durationTicks": 24,
          "midi": 71,
          "name": "B4",
          "ticks": 22752,
          "time": 63.200078999999995,
          "velocity": 0.7165354330708661
        },
        {
          "duration": 0.066666749999996,
          "durationTicks": 24,
          "midi": 73,
          "name": "C#5",
          "ticks": 22776,
          "time": 63.26674575,
          "velocity": 0.7244094488188977
        },
        {
          "duration": 0.0666667500000031,
          "durationTicks": 24,
          "midi": 76,
          "name": "E5",
          "ticks": 22800,
          "time": 63.333412499999994,
          "velocity": 0.7401574803149606
        },
        {
          "duration": 0.0666667500000031,
          "durationTicks": 24,
          "midi": 78,
          "name": "F#5",
          "ticks": 22824,
          "time": 63.40007925,
          "velocity": 0.7480314960629921
        },
        {
          "duration": 0.066666749999996,
          "durationTicks": 24,
          "midi": 79,
          "name": "G5",
          "ticks": 22848,
          "time": 63.466746,
          "velocity": 0.7559055118110236
        },
        {
          "duration": 0.0666667500000031,
          "durationTicks": 24,
          "midi": 80,
          "name": "G#5",
          "ticks": 22872,
          "time": 63.53341275,
          "velocity": 0.7716535433070866
        },
        {
          "duration": 0.066666749999996,
          "durationTicks": 24,
          "midi": 81,
          "name": "A5",
          "ticks": 22896,
          "time": 63.6000795,
          "velocity": 0.7795275590551181
        },
        {
          "duration": 0.0666667500000031,
          "durationTicks": 24,
          "midi": 83,
          "name": "B5",
          "ticks": 22920,
          "time": 63.666746249999996,
          "velocity": 0.7952755905511811
        },
        {
          "duration": 0.1333334999999991,
          "durationTicks": 48,
          "midi": 85,
          "name": "C#6",
          "ticks": 22944,
          "time": 63.733413,
          "velocity": 0.8031496062992126
        },
        {
          "duration": 0.033333374999998,
          "durationTicks": 12,
          "midi": 86,
          "name": "D6",
          "ticks": 22992,
          "time": 63.8667465,
          "velocity": 0.5511811023622047
        },
        {
          "duration": 0.033333374999998,
          "durationTicks": 12,
          "midi": 85,
          "name": "C#6",
          "ticks": 23004,
          "time": 63.900079874999996,
          "velocity": 0.5511811023622047
        },
        {
          "duration": 0.033333375000005105,
          "durationTicks": 12,
          "midi": 86,
          "name": "D6",
          "ticks": 23016,
          "time": 63.933413249999994,
          "velocity": 0.5511811023622047
        },
        {
          "duration": 0.033333374999998,
          "durationTicks": 12,
          "midi": 85,
          "name": "C#6",
          "ticks": 23028,
          "time": 63.966746625,
          "velocity": 0.5511811023622047
        },
        {
          "duration": 0.2666669999999982,
          "durationTicks": 96,
          "midi": 66,
          "name": "F#4",
          "ticks": 23040,
          "time": 64.00008,
          "velocity": 0.7244094488188977
        },
        {
          "duration": 0.033333374999998,
          "durationTicks": 12,
          "midi": 86,
          "name": "D6",
          "ticks": 23040,
          "time": 64.00008,
          "velocity": 0.5511811023622047
        },
        {
          "duration": 0.033333374999998,
          "durationTicks": 12,
          "midi": 85,
          "name": "C#6",
          "ticks": 23052,
          "time": 64.033413375,
          "velocity": 0.5511811023622047
        },
        {
          "duration": 0.033333374999998,
          "durationTicks": 12,
          "midi": 86,
          "name": "D6",
          "ticks": 23064,
          "time": 64.06674675,
          "velocity": 0.5511811023622047
        },
        {
          "duration": 0.03333337500001221,
          "durationTicks": 12,
          "midi": 85,
          "name": "C#6",
          "ticks": 23076,
          "time": 64.10008012499999,
          "velocity": 0.5511811023622047
        },
        {
          "duration": 0.033333374999998,
          "durationTicks": 12,
          "midi": 76,
          "name": "E5",
          "ticks": 23136,
          "time": 64.266747,
          "velocity": 0.7244094488188977
        },
        {
          "duration": 0.1166668125000001,
          "durationTicks": 42,
          "midi": 78,
          "name": "F#5",
          "ticks": 23142,
          "time": 64.2834136875,
          "velocity": 0.7244094488188977
        },
        {
          "duration": 0.033333374999998,
          "durationTicks": 12,
          "midi": 79,
          "name": "G5",
          "ticks": 23184,
          "time": 64.4000805,
          "velocity": 0.5511811023622047
        },
        {
          "duration": 0.033333374999998,
          "durationTicks": 12,
          "midi": 78,
          "name": "F#5",
          "ticks": 23196,
          "time": 64.433413875,
          "velocity": 0.5511811023622047
        },
        {
          "duration": 0.033333374999998,
          "durationTicks": 12,
          "midi": 79,
          "name": "G5",
          "ticks": 23208,
          "time": 64.46674725,
          "velocity": 0.5511811023622047
        },
        {
          "duration": 0.033333374999998,
          "durationTicks": 12,
          "midi": 78,
          "name": "F#5",
          "ticks": 23220,
          "time": 64.500080625,
          "velocity": 0.5511811023622047
        },
        {
          "duration": 0.033333374999998,
          "durationTicks": 12,
          "midi": 79,
          "name": "G5",
          "ticks": 23232,
          "time": 64.533414,
          "velocity": 0.5511811023622047
        },
        {
          "duration": 0.03333337500001221,
          "durationTicks": 12,
          "midi": 78,
          "name": "F#5",
          "ticks": 23244,
          "time": 64.56674737499999,
          "velocity": 0.5511811023622047
        },
        {
          "duration": 0.033333374999998,
          "durationTicks": 12,
          "midi": 79,
          "name": "G5",
          "ticks": 23256,
          "time": 64.60008075,
          "velocity": 0.5511811023622047
        },
        {
          "duration": 0.033333374999998,
          "durationTicks": 12,
          "midi": 78,
          "name": "F#5",
          "ticks": 23268,
          "time": 64.633414125,
          "velocity": 0.5511811023622047
        },
        {
          "duration": 0.133333499999992,
          "durationTicks": 48,
          "midi": 73,
          "name": "C#5",
          "ticks": 23280,
          "time": 64.6667475,
          "velocity": 0.7244094488188977
        },
        {
          "duration": 0.1333335000000062,
          "durationTicks": 48,
          "midi": 71,
          "name": "B4",
          "ticks": 23328,
          "time": 64.80008099999999,
          "velocity": 0.7244094488188977
        },
        {
          "duration": 0.033333374999998,
          "durationTicks": 12,
          "midi": 72,
          "name": "C5",
          "ticks": 23376,
          "time": 64.9334145,
          "velocity": 0.5511811023622047
        },
        {
          "duration": 0.033333374999998,
          "durationTicks": 12,
          "midi": 71,
          "name": "B4",
          "ticks": 23388,
          "time": 64.966747875,
          "velocity": 0.5511811023622047
        },
        {
          "duration": 0.033333374999998,
          "durationTicks": 12,
          "midi": 72,
          "name": "C5",
          "ticks": 23400,
          "time": 65.00008125,
          "velocity": 0.5511811023622047
        },
        {
          "duration": 0.033333374999998,
          "durationTicks": 12,
          "midi": 71,
          "name": "B4",
          "ticks": 23412,
          "time": 65.03341462499999,
          "velocity": 0.5511811023622047
        },
        {
          "duration": 0.03333337500001221,
          "durationTicks": 12,
          "midi": 72,
          "name": "C5",
          "ticks": 23424,
          "time": 65.06674799999999,
          "velocity": 0.5511811023622047
        },
        {
          "duration": 0.033333374999998,
          "durationTicks": 12,
          "midi": 71,
          "name": "B4",
          "ticks": 23436,
          "time": 65.100081375,
          "velocity": 0.5511811023622047
        },
        {
          "duration": 0.033333374999998,
          "durationTicks": 12,
          "midi": 72,
          "name": "C5",
          "ticks": 23448,
          "time": 65.13341475,
          "velocity": 0.5511811023622047
        },
        {
          "duration": 0.033333374999998,
          "durationTicks": 12,
          "midi": 71,
          "name": "B4",
          "ticks": 23460,
          "time": 65.166748125,
          "velocity": 0.5511811023622047
        },
        {
          "duration": 0.1333335000000062,
          "durationTicks": 48,
          "midi": 69,
          "name": "A4",
          "ticks": 23472,
          "time": 65.2000815,
          "velocity": 0.7244094488188977
        },
        {
          "duration": 0.133333499999992,
          "durationTicks": 48,
          "midi": 71,
          "name": "B4",
          "ticks": 23520,
          "time": 65.333415,
          "velocity": 0.7244094488188977
        },
        {
          "duration": 0.033333374999998,
          "durationTicks": 12,
          "midi": 72,
          "name": "C5",
          "ticks": 23568,
          "time": 65.4667485,
          "velocity": 0.5118110236220472
        },
        {
          "duration": 0.033333374999998,
          "durationTicks": 12,
          "midi": 71,
          "name": "B4",
          "ticks": 23580,
          "time": 65.50008187499999,
          "velocity": 0.5118110236220472
        },
        {
          "duration": 0.03333337500001221,
          "durationTicks": 12,
          "midi": 72,
          "name": "C5",
          "ticks": 23592,
          "time": 65.53341524999999,
          "velocity": 0.5118110236220472
        },
        {
          "duration": 0.033333374999998,
          "durationTicks": 12,
          "midi": 71,
          "name": "B4",
          "ticks": 23604,
          "time": 65.566748625,
          "velocity": 0.5118110236220472
        },
        {
          "duration": 0.133333499999992,
          "durationTicks": 48,
          "midi": 74,
          "name": "D5",
          "ticks": 23616,
          "time": 65.600082,
          "velocity": 0.7244094488188977
        },
        {
          "duration": 0.033333374999998,
          "durationTicks": 12,
          "midi": 75,
          "name": "D#5",
          "ticks": 23664,
          "time": 65.73341549999999,
          "velocity": 0.5118110236220472
        },
        {
          "duration": 0.03333337500001221,
          "durationTicks": 12,
          "midi": 74,
          "name": "D5",
          "ticks": 23676,
          "time": 65.76674887499999,
          "velocity": 0.5118110236220472
        },
        {
          "duration": 0.033333374999998,
          "durationTicks": 12,
          "midi": 75,
          "name": "D#5",
          "ticks": 23688,
          "time": 65.80008225,
          "velocity": 0.5511811023622047
        },
        {
          "duration": 0.033333374999998,
          "durationTicks": 12,
          "midi": 74,
          "name": "D5",
          "ticks": 23700,
          "time": 65.833415625,
          "velocity": 0.5511811023622047
        },
        {
          "duration": 0.133333499999992,
          "durationTicks": 48,
          "midi": 73,
          "name": "C#5",
          "ticks": 23712,
          "time": 65.866749,
          "velocity": 0.7244094488188977
        },
        {
          "duration": 0.03333337500001221,
          "durationTicks": 12,
          "midi": 74,
          "name": "D5",
          "ticks": 23760,
          "time": 66.00008249999999,
          "velocity": 0.5511811023622047
        },
        {
          "duration": 0.033333374999998,
          "durationTicks": 12,
          "midi": 73,
          "name": "C#5",
          "ticks": 23772,
          "time": 66.033415875,
          "velocity": 0.5511811023622047
        },
        {
          "duration": 0.033333374999998,
          "durationTicks": 12,
          "midi": 74,
          "name": "D5",
          "ticks": 23784,
          "time": 66.06674925,
          "velocity": 0.5511811023622047
        },
        {
          "duration": 0.033333374999998,
          "durationTicks": 12,
          "midi": 73,
          "name": "C#5",
          "ticks": 23796,
          "time": 66.100082625,
          "velocity": 0.5511811023622047
        },
        {
          "duration": 0.2666669999999982,
          "durationTicks": 96,
          "midi": 66,
          "name": "F#4",
          "ticks": 23808,
          "time": 66.133416,
          "velocity": 0.7244094488188977
        },
        {
          "duration": 0.033333374999998,
          "durationTicks": 12,
          "midi": 76,
          "name": "E5",
          "ticks": 23904,
          "time": 66.400083,
          "velocity": 0.7244094488188977
        },
        {
          "duration": 0.1166668125000001,
          "durationTicks": 42,
          "midi": 78,
          "name": "F#5",
          "ticks": 23910,
          "time": 66.4167496875,
          "velocity": 0.7244094488188977
        },
        {
          "duration": 0.033333374999998,
          "durationTicks": 12,
          "midi": 79,
          "name": "G5",
          "ticks": 23952,
          "time": 66.5334165,
          "velocity": 0.5511811023622047
        },
        {
          "duration": 0.033333374999998,
          "durationTicks": 12,
          "midi": 78,
          "name": "F#5",
          "ticks": 23964,
          "time": 66.566749875,
          "velocity": 0.5511811023622047
        },
        {
          "duration": 0.033333374999998,
          "durationTicks": 12,
          "midi": 79,
          "name": "G5",
          "ticks": 23976,
          "time": 66.60008325,
          "velocity": 0.5511811023622047
        },
        {
          "duration": 0.033333374999998,
          "durationTicks": 12,
          "midi": 78,
          "name": "F#5",
          "ticks": 23988,
          "time": 66.633416625,
          "velocity": 0.5511811023622047
        },
        {
          "duration": 0.033333374999998,
          "durationTicks": 12,
          "midi": 79,
          "name": "G5",
          "ticks": 24000,
          "time": 66.66675,
          "velocity": 0.5511811023622047
        },
        {
          "duration": 0.03333337500001221,
          "durationTicks": 12,
          "midi": 78,
          "name": "F#5",
          "ticks": 24012,
          "time": 66.70008337499999,
          "velocity": 0.5511811023622047
        },
        {
          "duration": 0.033333374999998,
          "durationTicks": 12,
          "midi": 79,
          "name": "G5",
          "ticks": 24024,
          "time": 66.73341675,
          "velocity": 0.5511811023622047
        },
        {
          "duration": 0.033333374999998,
          "durationTicks": 12,
          "midi": 78,
          "name": "F#5",
          "ticks": 24036,
          "time": 66.766750125,
          "velocity": 0.5511811023622047
        },
        {
          "duration": 0.133333499999992,
          "durationTicks": 48,
          "midi": 73,
          "name": "C#5",
          "ticks": 24048,
          "time": 66.8000835,
          "velocity": 0.7244094488188977
        },
        {
          "duration": 0.1333335000000062,
          "durationTicks": 48,
          "midi": 71,
          "name": "B4",
          "ticks": 24096,
          "time": 66.93341699999999,
          "velocity": 0.7244094488188977
        },
        {
          "duration": 0.033333374999998,
          "durationTicks": 12,
          "midi": 72,
          "name": "C5",
          "ticks": 24144,
          "time": 67.0667505,
          "velocity": 0.5511811023622047
        },
        {
          "duration": 0.033333374999998,
          "durationTicks": 12,
          "midi": 71,
          "name": "B4",
          "ticks": 24156,
          "time": 67.100083875,
          "velocity": 0.5511811023622047
        },
        {
          "duration": 0.033333374999998,
          "durationTicks": 12,
          "midi": 72,
          "name": "C5",
          "ticks": 24168,
          "time": 67.13341725,
          "velocity": 0.5511811023622047
        },
        {
          "duration": 0.03333337500001221,
          "durationTicks": 12,
          "midi": 71,
          "name": "B4",
          "ticks": 24180,
          "time": 67.16675062499999,
          "velocity": 0.5511811023622047
        },
        {
          "duration": 0.033333374999998,
          "durationTicks": 12,
          "midi": 72,
          "name": "C5",
          "ticks": 24192,
          "time": 67.200084,
          "velocity": 0.5511811023622047
        },
        {
          "duration": 0.033333374999998,
          "durationTicks": 12,
          "midi": 71,
          "name": "B4",
          "ticks": 24204,
          "time": 67.233417375,
          "velocity": 0.5511811023622047
        },
        {
          "duration": 0.033333374999998,
          "durationTicks": 12,
          "midi": 72,
          "name": "C5",
          "ticks": 24216,
          "time": 67.26675075,
          "velocity": 0.5511811023622047
        },
        {
          "duration": 0.033333374999998,
          "durationTicks": 12,
          "midi": 71,
          "name": "B4",
          "ticks": 24228,
          "time": 67.300084125,
          "velocity": 0.5511811023622047
        },
        {
          "duration": 0.1333335000000062,
          "durationTicks": 48,
          "midi": 68,
          "name": "G#4",
          "ticks": 24240,
          "time": 67.3334175,
          "velocity": 0.7244094488188977
        },
        {
          "duration": 0.133333499999992,
          "durationTicks": 48,
          "midi": 71,
          "name": "B4",
          "ticks": 24288,
          "time": 67.466751,
          "velocity": 0.7244094488188977
        },
        {
          "duration": 0.033333374999998,
          "durationTicks": 12,
          "midi": 72,
          "name": "C5",
          "ticks": 24336,
          "time": 67.6000845,
          "velocity": 0.5511811023622047
        },
        {
          "duration": 0.033333374999998,
          "durationTicks": 12,
          "midi": 71,
          "name": "B4",
          "ticks": 24348,
          "time": 67.63341787499999,
          "velocity": 0.5511811023622047
        },
        {
          "duration": 0.03333337500001221,
          "durationTicks": 12,
          "midi": 72,
          "name": "C5",
          "ticks": 24360,
          "time": 67.66675124999999,
          "velocity": 0.5511811023622047
        },
        {
          "duration": 0.033333374999998,
          "durationTicks": 12,
          "midi": 71,
          "name": "B4",
          "ticks": 24372,
          "time": 67.700084625,
          "velocity": 0.5511811023622047
        },
        {
          "duration": 0.133333499999992,
          "durationTicks": 48,
          "midi": 69,
          "name": "A4",
          "ticks": 24384,
          "time": 67.733418,
          "velocity": 0.7244094488188977
        },
        {
          "duration": 0.1333335000000062,
          "durationTicks": 48,
          "midi": 68,
          "name": "G#4",
          "ticks": 24432,
          "time": 67.86675149999999,
          "velocity": 0.7244094488188977
        },
        {
          "duration": 0.2666669999999982,
          "durationTicks": 96,
          "midi": 69,
          "name": "A4",
          "ticks": 24480,
          "time": 68.000085,
          "velocity": 0.7244094488188977
        },
        {
          "duration": 0.2666669999999982,
          "durationTicks": 96,
          "midi": 66,
          "name": "F#4",
          "ticks": 24576,
          "time": 68.266752,
          "velocity": 0.7244094488188977
        },
        {
          "duration": 0.033333374999998,
          "durationTicks": 12,
          "midi": 76,
          "name": "E5",
          "ticks": 24672,
          "time": 68.533419,
          "velocity": 0.7244094488188977
        },
        {
          "duration": 0.1166668125000001,
          "durationTicks": 42,
          "midi": 78,
          "name": "F#5",
          "ticks": 24678,
          "time": 68.5500856875,
          "velocity": 0.7244094488188977
        },
        {
          "duration": 0.033333374999998,
          "durationTicks": 12,
          "midi": 79,
          "name": "G5",
          "ticks": 24720,
          "time": 68.6667525,
          "velocity": 0.5511811023622047
        },
        {
          "duration": 0.033333374999998,
          "durationTicks": 12,
          "midi": 78,
          "name": "F#5",
          "ticks": 24732,
          "time": 68.700085875,
          "velocity": 0.5511811023622047
        },
        {
          "duration": 0.033333374999998,
          "durationTicks": 12,
          "midi": 79,
          "name": "G5",
          "ticks": 24744,
          "time": 68.73341925,
          "velocity": 0.5511811023622047
        },
        {
          "duration": 0.033333374999998,
          "durationTicks": 12,
          "midi": 78,
          "name": "F#5",
          "ticks": 24756,
          "time": 68.766752625,
          "velocity": 0.5511811023622047
        },
        {
          "duration": 0.033333374999998,
          "durationTicks": 12,
          "midi": 79,
          "name": "G5",
          "ticks": 24768,
          "time": 68.800086,
          "velocity": 0.5511811023622047
        },
        {
          "duration": 0.03333337500001221,
          "durationTicks": 12,
          "midi": 78,
          "name": "F#5",
          "ticks": 24780,
          "time": 68.83341937499999,
          "velocity": 0.5511811023622047
        },
        {
          "duration": 0.033333374999998,
          "durationTicks": 12,
          "midi": 79,
          "name": "G5",
          "ticks": 24792,
          "time": 68.86675275,
          "velocity": 0.5511811023622047
        },
        {
          "duration": 0.033333374999998,
          "durationTicks": 12,
          "midi": 78,
          "name": "F#5",
          "ticks": 24804,
          "time": 68.900086125,
          "velocity": 0.5511811023622047
        },
        {
          "duration": 0.133333499999992,
          "durationTicks": 48,
          "midi": 73,
          "name": "C#5",
          "ticks": 24816,
          "time": 68.9334195,
          "velocity": 0.7244094488188977
        },
        {
          "duration": 0.1333335000000062,
          "durationTicks": 48,
          "midi": 71,
          "name": "B4",
          "ticks": 24864,
          "time": 69.06675299999999,
          "velocity": 0.7244094488188977
        },
        {
          "duration": 0.033333374999998,
          "durationTicks": 12,
          "midi": 72,
          "name": "C5",
          "ticks": 24912,
          "time": 69.2000865,
          "velocity": 0.5511811023622047
        },
        {
          "duration": 0.033333374999998,
          "durationTicks": 12,
          "midi": 71,
          "name": "B4",
          "ticks": 24924,
          "time": 69.233419875,
          "velocity": 0.5511811023622047
        },
        {
          "duration": 0.033333374999998,
          "durationTicks": 12,
          "midi": 72,
          "name": "C5",
          "ticks": 24936,
          "time": 69.26675325,
          "velocity": 0.5511811023622047
        },
        {
          "duration": 0.033333374999998,
          "durationTicks": 12,
          "midi": 71,
          "name": "B4",
          "ticks": 24948,
          "time": 69.30008662499999,
          "velocity": 0.5511811023622047
        },
        {
          "duration": 0.03333337500001221,
          "durationTicks": 12,
          "midi": 72,
          "name": "C5",
          "ticks": 24960,
          "time": 69.33341999999999,
          "velocity": 0.5511811023622047
        },
        {
          "duration": 0.033333374999998,
          "durationTicks": 12,
          "midi": 71,
          "name": "B4",
          "ticks": 24972,
          "time": 69.366753375,
          "velocity": 0.5511811023622047
        },
        {
          "duration": 0.033333374999998,
          "durationTicks": 12,
          "midi": 72,
          "name": "C5",
          "ticks": 24984,
          "time": 69.40008675,
          "velocity": 0.5511811023622047
        },
        {
          "duration": 0.033333374999998,
          "durationTicks": 12,
          "midi": 71,
          "name": "B4",
          "ticks": 24996,
          "time": 69.433420125,
          "velocity": 0.5511811023622047
        },
        {
          "duration": 0.1333335000000062,
          "durationTicks": 48,
          "midi": 72,
          "name": "C5",
          "ticks": 25008,
          "time": 69.4667535,
          "velocity": 0.7244094488188977
        },
        {
          "duration": 0.133333499999992,
          "durationTicks": 48,
          "midi": 73,
          "name": "C#5",
          "ticks": 25056,
          "time": 69.600087,
          "velocity": 0.7244094488188977
        },
        {
          "duration": 0.033333374999998,
          "durationTicks": 12,
          "midi": 74,
          "name": "D5",
          "ticks": 25104,
          "time": 69.7334205,
          "velocity": 0.5511811023622047
        },
        {
          "duration": 0.033333374999998,
          "durationTicks": 12,
          "midi": 73,
          "name": "C#5",
          "ticks": 25116,
          "time": 69.76675387499999,
          "velocity": 0.5511811023622047
        },
        {
          "duration": 0.03333337500001221,
          "durationTicks": 12,
          "midi": 74,
          "name": "D5",
          "ticks": 25128,
          "time": 69.80008724999999,
          "velocity": 0.5511811023622047
        },
        {
          "duration": 0.033333374999998,
          "durationTicks": 12,
          "midi": 73,
          "name": "C#5",
          "ticks": 25140,
          "time": 69.833420625,
          "velocity": 0.5511811023622047
        },
        {
          "duration": 0.133333499999992,
          "durationTicks": 48,
          "midi": 77,
          "name": "F5",
          "ticks": 25152,
          "time": 69.866754,
          "velocity": 0.7244094488188977
        },
        {
          "duration": 0.033333374999998,
          "durationTicks": 12,
          "midi": 77,
          "name": "F5",
          "ticks": 25248,
          "time": 70.133421,
          "velocity": 0.7244094488188977
        },
        {
          "duration": 0.2500003125000063,
          "durationTicks": 90,
          "midi": 78,
          "name": "F#5",
          "ticks": 25254,
          "time": 70.15008768749999,
          "velocity": 0.7244094488188977
        },
        {
          "duration": 0.1333335000000062,
          "durationTicks": 48,
          "midi": 62,
          "name": "D4",
          "ticks": 31008,
          "time": 86.13344099999999,
          "velocity": 0.6377952755905512
        },
        {
          "duration": 0.1333335000000062,
          "durationTicks": 48,
          "midi": 67,
          "name": "G4",
          "ticks": 31008,
          "time": 86.13344099999999,
          "velocity": 0.6377952755905512
        },
        {
          "duration": 0.133333499999992,
          "durationTicks": 48,
          "midi": 63,
          "name": "D#4",
          "ticks": 31056,
          "time": 86.2667745,
          "velocity": 0.6377952755905512
        },
        {
          "duration": 0.133333499999992,
          "durationTicks": 48,
          "midi": 68,
          "name": "G#4",
          "ticks": 31056,
          "time": 86.2667745,
          "velocity": 0.6377952755905512
        },
        {
          "duration": 0.1333335000000062,
          "durationTicks": 48,
          "midi": 69,
          "name": "A4",
          "ticks": 31104,
          "time": 86.40010799999999,
          "velocity": 0.6377952755905512
        },
        {
          "duration": 0.1333335000000062,
          "durationTicks": 48,
          "midi": 64,
          "name": "E4",
          "ticks": 31104,
          "time": 86.40010799999999,
          "velocity": 0.6377952755905512
        },
        {
          "duration": 0.1333335000000062,
          "durationTicks": 48,
          "midi": 63,
          "name": "D#4",
          "ticks": 31152,
          "time": 86.5334415,
          "velocity": 0.6377952755905512
        },
        {
          "duration": 0.1333335000000062,
          "durationTicks": 48,
          "midi": 68,
          "name": "G#4",
          "ticks": 31152,
          "time": 86.5334415,
          "velocity": 0.6377952755905512
        },
        {
          "duration": 0.133333499999992,
          "durationTicks": 48,
          "midi": 65,
          "name": "F4",
          "ticks": 31200,
          "time": 86.666775,
          "velocity": 0.6377952755905512
        },
        {
          "duration": 0.133333499999992,
          "durationTicks": 48,
          "midi": 60,
          "name": "C4",
          "ticks": 31200,
          "time": 86.666775,
          "velocity": 0.6377952755905512
        },
        {
          "duration": 0.1333335000000062,
          "durationTicks": 48,
          "midi": 59,
          "name": "B3",
          "ticks": 31248,
          "time": 86.8001085,
          "velocity": 0.6377952755905512
        },
        {
          "duration": 0.1333335000000062,
          "durationTicks": 48,
          "midi": 64,
          "name": "E4",
          "ticks": 31248,
          "time": 86.8001085,
          "velocity": 0.6377952755905512
        },
        {
          "duration": 0.133333499999992,
          "durationTicks": 48,
          "midi": 62,
          "name": "D4",
          "ticks": 31296,
          "time": 86.933442,
          "velocity": 0.6377952755905512
        },
        {
          "duration": 0.133333499999992,
          "durationTicks": 48,
          "midi": 57,
          "name": "A3",
          "ticks": 31296,
          "time": 86.933442,
          "velocity": 0.6377952755905512
        },
        {
          "duration": 0.1333335000000062,
          "durationTicks": 48,
          "midi": 59,
          "name": "B3",
          "ticks": 31344,
          "time": 87.06677549999999,
          "velocity": 0.6377952755905512
        },
        {
          "duration": 0.1333335000000062,
          "durationTicks": 48,
          "midi": 54,
          "name": "F#3",
          "ticks": 31344,
          "time": 87.06677549999999,
          "velocity": 0.6377952755905512
        },
        {
          "duration": 0.133333499999992,
          "durationTicks": 48,
          "midi": 57,
          "name": "A3",
          "ticks": 31392,
          "time": 87.200109,
          "velocity": 0.6377952755905512
        },
        {
          "duration": 0.133333499999992,
          "durationTicks": 48,
          "midi": 62,
          "name": "D4",
          "ticks": 31392,
          "time": 87.200109,
          "velocity": 0.6377952755905512
        },
        {
          "duration": 0.1333335000000062,
          "durationTicks": 48,
          "midi": 63,
          "name": "D#4",
          "ticks": 31440,
          "time": 87.33344249999999,
          "velocity": 0.6377952755905512
        },
        {
          "duration": 0.1333335000000062,
          "durationTicks": 48,
          "midi": 58,
          "name": "A#3",
          "ticks": 31440,
          "time": 87.33344249999999,
          "velocity": 0.6377952755905512
        },
        {
          "duration": 0.1333335000000062,
          "durationTicks": 48,
          "midi": 64,
          "name": "E4",
          "ticks": 31488,
          "time": 87.466776,
          "velocity": 0.6377952755905512
        },
        {
          "duration": 0.1333335000000062,
          "durationTicks": 48,
          "midi": 59,
          "name": "B3",
          "ticks": 31488,
          "time": 87.466776,
          "velocity": 0.6377952755905512
        },
        {
          "duration": 0.133333499999992,
          "durationTicks": 48,
          "midi": 63,
          "name": "D#4",
          "ticks": 31536,
          "time": 87.6001095,
          "velocity": 0.6377952755905512
        },
        {
          "duration": 0.133333499999992,
          "durationTicks": 48,
          "midi": 58,
          "name": "A#3",
          "ticks": 31536,
          "time": 87.6001095,
          "velocity": 0.6377952755905512
        },
        {
          "duration": 0.1333335000000062,
          "durationTicks": 48,
          "midi": 60,
          "name": "C4",
          "ticks": 31584,
          "time": 87.733443,
          "velocity": 0.6377952755905512
        },
        {
          "duration": 0.1333335000000062,
          "durationTicks": 48,
          "midi": 55,
          "name": "G3",
          "ticks": 31584,
          "time": 87.733443,
          "velocity": 0.6377952755905512
        },
        {
          "duration": 0.133333499999992,
          "durationTicks": 48,
          "midi": 54,
          "name": "F#3",
          "ticks": 31632,
          "time": 87.8667765,
          "velocity": 0.6377952755905512
        },
        {
          "duration": 0.133333499999992,
          "durationTicks": 48,
          "midi": 59,
          "name": "B3",
          "ticks": 31632,
          "time": 87.8667765,
          "velocity": 0.6377952755905512
        },
        {
          "duration": 0.1333335000000062,
          "durationTicks": 48,
          "midi": 62,
          "name": "D4",
          "ticks": 32544,
          "time": 90.40011299999999,
          "velocity": 0.6377952755905512
        },
        {
          "duration": 0.1333335000000062,
          "durationTicks": 48,
          "midi": 67,
          "name": "G4",
          "ticks": 32544,
          "time": 90.40011299999999,
          "velocity": 0.6377952755905512
        },
        {
          "duration": 0.133333499999992,
          "durationTicks": 48,
          "midi": 63,
          "name": "D#4",
          "ticks": 32592,
          "time": 90.5334465,
          "velocity": 0.6377952755905512
        },
        {
          "duration": 0.133333499999992,
          "durationTicks": 48,
          "midi": 68,
          "name": "G#4",
          "ticks": 32592,
          "time": 90.5334465,
          "velocity": 0.6377952755905512
        },
        {
          "duration": 0.1333335000000062,
          "durationTicks": 48,
          "midi": 69,
          "name": "A4",
          "ticks": 32640,
          "time": 90.66677999999999,
          "velocity": 0.6377952755905512
        },
        {
          "duration": 0.1333335000000062,
          "durationTicks": 48,
          "midi": 64,
          "name": "E4",
          "ticks": 32640,
          "time": 90.66677999999999,
          "velocity": 0.6377952755905512
        },
        {
          "duration": 0.1333335000000062,
          "durationTicks": 48,
          "midi": 68,
          "name": "G#4",
          "ticks": 32688,
          "time": 90.8001135,
          "velocity": 0.6377952755905512
        },
        {
          "duration": 0.1333335000000062,
          "durationTicks": 48,
          "midi": 63,
          "name": "D#4",
          "ticks": 32688,
          "time": 90.8001135,
          "velocity": 0.6377952755905512
        },
        {
          "duration": 0.133333499999992,
          "durationTicks": 48,
          "midi": 64,
          "name": "E4",
          "ticks": 32736,
          "time": 90.933447,
          "velocity": 0.6377952755905512
        },
        {
          "duration": 0.133333499999992,
          "durationTicks": 48,
          "midi": 69,
          "name": "A4",
          "ticks": 32736,
          "time": 90.933447,
          "velocity": 0.6377952755905512
        },
        {
          "duration": 0.1333335000000062,
          "durationTicks": 48,
          "midi": 65,
          "name": "F4",
          "ticks": 32784,
          "time": 91.0667805,
          "velocity": 0.6377952755905512
        },
        {
          "duration": 0.1333335000000062,
          "durationTicks": 48,
          "midi": 70,
          "name": "A#4",
          "ticks": 32784,
          "time": 91.0667805,
          "velocity": 0.6377952755905512
        },
        {
          "duration": 0.133333499999992,
          "durationTicks": 48,
          "midi": 66,
          "name": "F#4",
          "ticks": 32832,
          "time": 91.200114,
          "velocity": 0.6377952755905512
        },
        {
          "duration": 0.133333499999992,
          "durationTicks": 48,
          "midi": 71,
          "name": "B4",
          "ticks": 32832,
          "time": 91.200114,
          "velocity": 0.6377952755905512
        },
        {
          "duration": 0.1333335000000062,
          "durationTicks": 48,
          "midi": 65,
          "name": "F4",
          "ticks": 32880,
          "time": 91.33344749999999,
          "velocity": 0.6377952755905512
        },
        {
          "duration": 0.1333335000000062,
          "durationTicks": 48,
          "midi": 70,
          "name": "A#4",
          "ticks": 32880,
          "time": 91.33344749999999,
          "velocity": 0.6377952755905512
        },
        {
          "duration": 0.133333499999992,
          "durationTicks": 48,
          "midi": 71,
          "name": "B4",
          "ticks": 32928,
          "time": 91.466781,
          "velocity": 0.6377952755905512
        },
        {
          "duration": 0.133333499999992,
          "durationTicks": 48,
          "midi": 66,
          "name": "F#4",
          "ticks": 32928,
          "time": 91.466781,
          "velocity": 0.6377952755905512
        },
        {
          "duration": 0.1333335000000062,
          "durationTicks": 48,
          "midi": 72,
          "name": "C5",
          "ticks": 32976,
          "time": 91.60011449999999,
          "velocity": 0.6377952755905512
        },
        {
          "duration": 0.1333335000000062,
          "durationTicks": 48,
          "midi": 67,
          "name": "G4",
          "ticks": 32976,
          "time": 91.60011449999999,
          "velocity": 0.6377952755905512
        },
        {
          "duration": 0.1333335000000062,
          "durationTicks": 48,
          "midi": 73,
          "name": "C#5",
          "ticks": 33024,
          "time": 91.733448,
          "velocity": 0.6377952755905512
        },
        {
          "duration": 0.1333335000000062,
          "durationTicks": 48,
          "midi": 68,
          "name": "G#4",
          "ticks": 33024,
          "time": 91.733448,
          "velocity": 0.6377952755905512
        },
        {
          "duration": 0.133333499999992,
          "durationTicks": 48,
          "midi": 67,
          "name": "G4",
          "ticks": 33072,
          "time": 91.8667815,
          "velocity": 0.6377952755905512
        },
        {
          "duration": 0.133333499999992,
          "durationTicks": 48,
          "midi": 72,
          "name": "C5",
          "ticks": 33072,
          "time": 91.8667815,
          "velocity": 0.6377952755905512
        },
        {
          "duration": 0.066666749999996,
          "durationTicks": 24,
          "midi": 59,
          "name": "B3",
          "ticks": 39936,
          "time": 110.933472,
          "velocity": 0.41732283464566927
        },
        {
          "duration": 0.066666749999996,
          "durationTicks": 24,
          "midi": 66,
          "name": "F#4",
          "ticks": 39984,
          "time": 111.0668055,
          "velocity": 0.41732283464566927
        },
        {
          "duration": 0.066666749999996,
          "durationTicks": 24,
          "midi": 65,
          "name": "F4",
          "ticks": 40032,
          "time": 111.200139,
          "velocity": 0.41732283464566927
        },
        {
          "duration": 0.066666749999996,
          "durationTicks": 24,
          "midi": 66,
          "name": "F#4",
          "ticks": 40080,
          "time": 111.3334725,
          "velocity": 0.41732283464566927
        },
        {
          "duration": 0.06666675000001021,
          "durationTicks": 24,
          "midi": 68,
          "name": "G#4",
          "ticks": 40128,
          "time": 111.46680599999999,
          "velocity": 0.41732283464566927
        },
        {
          "duration": 0.066666749999996,
          "durationTicks": 24,
          "midi": 66,
          "name": "F#4",
          "ticks": 40176,
          "time": 111.6001395,
          "velocity": 0.41732283464566927
        },
        {
          "duration": 0.06666675000001021,
          "durationTicks": 24,
          "midi": 59,
          "name": "B3",
          "ticks": 40224,
          "time": 111.73347299999999,
          "velocity": 0.41732283464566927
        },
        {
          "duration": 0.066666749999996,
          "durationTicks": 24,
          "midi": 66,
          "name": "F#4",
          "ticks": 40272,
          "time": 111.8668065,
          "velocity": 0.41732283464566927
        },
        {
          "duration": 0.06666675000001021,
          "durationTicks": 24,
          "midi": 65,
          "name": "F4",
          "ticks": 40320,
          "time": 112.00013999999999,
          "velocity": 0.41732283464566927
        },
        {
          "duration": 0.066666749999996,
          "durationTicks": 24,
          "midi": 66,
          "name": "F#4",
          "ticks": 40368,
          "time": 112.1334735,
          "velocity": 0.41732283464566927
        },
        {
          "duration": 0.066666749999996,
          "durationTicks": 24,
          "midi": 68,
          "name": "G#4",
          "ticks": 40416,
          "time": 112.266807,
          "velocity": 0.41732283464566927
        },
        {
          "duration": 0.066666749999996,
          "durationTicks": 24,
          "midi": 70,
          "name": "A#4",
          "ticks": 40464,
          "time": 112.40014049999999,
          "velocity": 0.41732283464566927
        },
        {
          "duration": 0.066666749999996,
          "durationTicks": 24,
          "midi": 58,
          "name": "A#3",
          "ticks": 40512,
          "time": 112.533474,
          "velocity": 0.41732283464566927
        },
        {
          "duration": 0.06666675000001021,
          "durationTicks": 24,
          "midi": 65,
          "name": "F4",
          "ticks": 40560,
          "time": 112.66680749999999,
          "velocity": 0.41732283464566927
        },
        {
          "duration": 0.066666749999996,
          "durationTicks": 24,
          "midi": 64,
          "name": "E4",
          "ticks": 40608,
          "time": 112.800141,
          "velocity": 0.41732283464566927
        },
        {
          "duration": 0.06666675000001021,
          "durationTicks": 24,
          "midi": 65,
          "name": "F4",
          "ticks": 40656,
          "time": 112.93347449999999,
          "velocity": 0.41732283464566927
        },
        {
          "duration": 0.066666749999996,
          "durationTicks": 24,
          "midi": 67,
          "name": "G4",
          "ticks": 40704,
          "time": 113.066808,
          "velocity": 0.41732283464566927
        },
        {
          "duration": 0.066666749999996,
          "durationTicks": 24,
          "midi": 65,
          "name": "F4",
          "ticks": 40752,
          "time": 113.2001415,
          "velocity": 0.41732283464566927
        },
        {
          "duration": 0.066666749999996,
          "durationTicks": 24,
          "midi": 58,
          "name": "A#3",
          "ticks": 40800,
          "time": 113.33347499999999,
          "velocity": 0.41732283464566927
        },
        {
          "duration": 0.066666749999996,
          "durationTicks": 24,
          "midi": 65,
          "name": "F4",
          "ticks": 40848,
          "time": 113.4668085,
          "velocity": 0.41732283464566927
        },
        {
          "duration": 0.06666675000001021,
          "durationTicks": 24,
          "midi": 64,
          "name": "E4",
          "ticks": 40896,
          "time": 113.60014199999999,
          "velocity": 0.41732283464566927
        },
        {
          "duration": 0.066666749999996,
          "durationTicks": 24,
          "midi": 65,
          "name": "F4",
          "ticks": 40944,
          "time": 113.7334755,
          "velocity": 0.41732283464566927
        },
        {
          "duration": 0.06666675000001021,
          "durationTicks": 24,
          "midi": 57,
          "name": "A3",
          "ticks": 40992,
          "time": 113.86680899999999,
          "velocity": 0.41732283464566927
        },
        {
          "duration": 0.066666749999996,
          "durationTicks": 24,
          "midi": 64,
          "name": "E4",
          "ticks": 41040,
          "time": 114.0001425,
          "velocity": 0.41732283464566927
        },
        {
          "duration": 0.066666749999996,
          "durationTicks": 24,
          "midi": 63,
          "name": "D#4",
          "ticks": 41088,
          "time": 114.133476,
          "velocity": 0.41732283464566927
        },
        {
          "duration": 0.066666749999996,
          "durationTicks": 24,
          "midi": 64,
          "name": "E4",
          "ticks": 41136,
          "time": 114.2668095,
          "velocity": 0.41732283464566927
        },
        {
          "duration": 0.066666749999996,
          "durationTicks": 24,
          "midi": 66,
          "name": "F#4",
          "ticks": 41184,
          "time": 114.400143,
          "velocity": 0.41732283464566927
        },
        {
          "duration": 0.066666749999996,
          "durationTicks": 24,
          "midi": 64,
          "name": "E4",
          "ticks": 41232,
          "time": 114.53347649999999,
          "velocity": 0.41732283464566927
        },
        {
          "duration": 0.066666749999996,
          "durationTicks": 24,
          "midi": 57,
          "name": "A3",
          "ticks": 41280,
          "time": 114.66681,
          "velocity": 0.41732283464566927
        },
        {
          "duration": 0.06666675000001021,
          "durationTicks": 24,
          "midi": 64,
          "name": "E4",
          "ticks": 41328,
          "time": 114.80014349999999,
          "velocity": 0.41732283464566927
        },
        {
          "duration": 0.066666749999996,
          "durationTicks": 24,
          "midi": 63,
          "name": "D#4",
          "ticks": 41376,
          "time": 114.933477,
          "velocity": 0.41732283464566927
        },
        {
          "duration": 0.06666675000001021,
          "durationTicks": 24,
          "midi": 64,
          "name": "E4",
          "ticks": 41424,
          "time": 115.06681049999999,
          "velocity": 0.41732283464566927
        },
        {
          "duration": 0.066666749999996,
          "durationTicks": 24,
          "midi": 66,
          "name": "F#4",
          "ticks": 41472,
          "time": 115.200144,
          "velocity": 0.41732283464566927
        },
        {
          "duration": 0.066666749999996,
          "durationTicks": 24,
          "midi": 68,
          "name": "G#4",
          "ticks": 41520,
          "time": 115.3334775,
          "velocity": 0.41732283464566927
        },
        {
          "duration": 0.066666749999996,
          "durationTicks": 24,
          "midi": 56,
          "name": "G#3",
          "ticks": 41568,
          "time": 115.46681099999999,
          "velocity": 0.41732283464566927
        },
        {
          "duration": 0.066666749999996,
          "durationTicks": 24,
          "midi": 63,
          "name": "D#4",
          "ticks": 41616,
          "time": 115.6001445,
          "velocity": 0.41732283464566927
        },
        {
          "duration": 0.06666675000001021,
          "durationTicks": 24,
          "midi": 62,
          "name": "D4",
          "ticks": 41664,
          "time": 115.73347799999999,
          "velocity": 0.41732283464566927
        },
        {
          "duration": 0.066666749999996,
          "durationTicks": 24,
          "midi": 63,
          "name": "D#4",
          "ticks": 41712,
          "time": 115.8668115,
          "velocity": 0.41732283464566927
        },
        {
          "duration": 0.06666675000001021,
          "durationTicks": 24,
          "midi": 65,
          "name": "F4",
          "ticks": 41760,
          "time": 116.00014499999999,
          "velocity": 0.41732283464566927
        },
        {
          "duration": 0.066666749999996,
          "durationTicks": 24,
          "midi": 63,
          "name": "D#4",
          "ticks": 41808,
          "time": 116.1334785,
          "velocity": 0.41732283464566927
        },
        {
          "duration": 0.06666675000001021,
          "durationTicks": 24,
          "midi": 56,
          "name": "G#3",
          "ticks": 41856,
          "time": 116.26681199999999,
          "velocity": 0.41732283464566927
        },
        {
          "duration": 0.2666670000000124,
          "durationTicks": 96,
          "midi": 66,
          "name": "F#4",
          "ticks": 48288,
          "time": 134.133501,
          "velocity": 0.7244094488188977
        },
        {
          "duration": 0.03333337499998379,
          "durationTicks": 12,
          "midi": 76,
          "name": "E5",
          "ticks": 48384,
          "time": 134.400168,
          "velocity": 0.7244094488188977
        },
        {
          "duration": 0.1166668125000001,
          "durationTicks": 42,
          "midi": 78,
          "name": "F#5",
          "ticks": 48390,
          "time": 134.4168346875,
          "velocity": 0.7244094488188977
        },
        {
          "duration": 0.03333337499998379,
          "durationTicks": 12,
          "midi": 79,
          "name": "G5",
          "ticks": 48432,
          "time": 134.5335015,
          "velocity": 0.5511811023622047
        },
        {
          "duration": 0.03333337500001221,
          "durationTicks": 12,
          "midi": 78,
          "name": "F#5",
          "ticks": 48444,
          "time": 134.56683487499998,
          "velocity": 0.5511811023622047
        },
        {
          "duration": 0.03333337499998379,
          "durationTicks": 12,
          "midi": 79,
          "name": "G5",
          "ticks": 48456,
          "time": 134.60016825,
          "velocity": 0.5511811023622047
        },
        {
          "duration": 0.03333337500001221,
          "durationTicks": 12,
          "midi": 78,
          "name": "F#5",
          "ticks": 48468,
          "time": 134.63350162499998,
          "velocity": 0.5511811023622047
        },
        {
          "duration": 0.03333337500001221,
          "durationTicks": 12,
          "midi": 79,
          "name": "G5",
          "ticks": 48480,
          "time": 134.666835,
          "velocity": 0.5511811023622047
        },
        {
          "duration": 0.03333337499998379,
          "durationTicks": 12,
          "midi": 78,
          "name": "F#5",
          "ticks": 48492,
          "time": 134.700168375,
          "velocity": 0.5511811023622047
        },
        {
          "duration": 0.03333337500001221,
          "durationTicks": 12,
          "midi": 79,
          "name": "G5",
          "ticks": 48504,
          "time": 134.73350175,
          "velocity": 0.5511811023622047
        },
        {
          "duration": 0.03333337499998379,
          "durationTicks": 12,
          "midi": 78,
          "name": "F#5",
          "ticks": 48516,
          "time": 134.766835125,
          "velocity": 0.5511811023622047
        },
        {
          "duration": 0.13333350000002042,
          "durationTicks": 48,
          "midi": 73,
          "name": "C#5",
          "ticks": 48528,
          "time": 134.80016849999998,
          "velocity": 0.7244094488188977
        },
        {
          "duration": 0.133333499999992,
          "durationTicks": 48,
          "midi": 71,
          "name": "B4",
          "ticks": 48576,
          "time": 134.933502,
          "velocity": 0.7244094488188977
        },
        {
          "duration": 0.03333337499998379,
          "durationTicks": 12,
          "midi": 72,
          "name": "C5",
          "ticks": 48624,
          "time": 135.0668355,
          "velocity": 0.5511811023622047
        },
        {
          "duration": 0.03333337500001221,
          "durationTicks": 12,
          "midi": 71,
          "name": "B4",
          "ticks": 48636,
          "time": 135.10016887499998,
          "velocity": 0.5511811023622047
        },
        {
          "duration": 0.03333337500001221,
          "durationTicks": 12,
          "midi": 72,
          "name": "C5",
          "ticks": 48648,
          "time": 135.13350225,
          "velocity": 0.5511811023622047
        },
        {
          "duration": 0.03333337499998379,
          "durationTicks": 12,
          "midi": 71,
          "name": "B4",
          "ticks": 48660,
          "time": 135.166835625,
          "velocity": 0.5511811023622047
        },
        {
          "duration": 0.03333337500001221,
          "durationTicks": 12,
          "midi": 72,
          "name": "C5",
          "ticks": 48672,
          "time": 135.200169,
          "velocity": 0.5511811023622047
        },
        {
          "duration": 0.03333337499998379,
          "durationTicks": 12,
          "midi": 71,
          "name": "B4",
          "ticks": 48684,
          "time": 135.233502375,
          "velocity": 0.5511811023622047
        },
        {
          "duration": 0.03333337500001221,
          "durationTicks": 12,
          "midi": 72,
          "name": "C5",
          "ticks": 48696,
          "time": 135.26683574999998,
          "velocity": 0.5511811023622047
        },
        {
          "duration": 0.03333337499998379,
          "durationTicks": 12,
          "midi": 71,
          "name": "B4",
          "ticks": 48708,
          "time": 135.300169125,
          "velocity": 0.5511811023622047
        },
        {
          "duration": 0.13333350000002042,
          "durationTicks": 48,
          "midi": 69,
          "name": "A4",
          "ticks": 48720,
          "time": 135.33350249999998,
          "velocity": 0.7244094488188977
        },
        {
          "duration": 0.133333499999992,
          "durationTicks": 48,
          "midi": 71,
          "name": "B4",
          "ticks": 48768,
          "time": 135.466836,
          "velocity": 0.7244094488188977
        },
        {
          "duration": 0.03333337500001221,
          "durationTicks": 12,
          "midi": 72,
          "name": "C5",
          "ticks": 48816,
          "time": 135.6001695,
          "velocity": 0.5118110236220472
        },
        {
          "duration": 0.03333337499998379,
          "durationTicks": 12,
          "midi": 71,
          "name": "B4",
          "ticks": 48828,
          "time": 135.633502875,
          "velocity": 0.5118110236220472
        },
        {
          "duration": 0.03333337500001221,
          "durationTicks": 12,
          "midi": 72,
          "name": "C5",
          "ticks": 48840,
          "time": 135.66683625,
          "velocity": 0.5118110236220472
        },
        {
          "duration": 0.03333337499998379,
          "durationTicks": 12,
          "midi": 71,
          "name": "B4",
          "ticks": 48852,
          "time": 135.700169625,
          "velocity": 0.5118110236220472
        },
        {
          "duration": 0.13333350000002042,
          "durationTicks": 48,
          "midi": 74,
          "name": "D5",
          "ticks": 48864,
          "time": 135.73350299999998,
          "velocity": 0.7244094488188977
        },
        {
          "duration": 0.03333337499998379,
          "durationTicks": 12,
          "midi": 75,
          "name": "D#5",
          "ticks": 48912,
          "time": 135.8668365,
          "velocity": 0.5118110236220472
        },
        {
          "duration": 0.03333337500001221,
          "durationTicks": 12,
          "midi": 74,
          "name": "D5",
          "ticks": 48924,
          "time": 135.900169875,
          "velocity": 0.5118110236220472
        },
        {
          "duration": 0.03333337499998379,
          "durationTicks": 12,
          "midi": 75,
          "name": "D#5",
          "ticks": 48936,
          "time": 135.93350325,
          "velocity": 0.5511811023622047
        },
        {
          "duration": 0.03333337500001221,
          "durationTicks": 12,
          "midi": 74,
          "name": "D5",
          "ticks": 48948,
          "time": 135.96683662499998,
          "velocity": 0.5511811023622047
        },
        {
          "duration": 0.133333499999992,
          "durationTicks": 48,
          "midi": 73,
          "name": "C#5",
          "ticks": 48960,
          "time": 136.00017,
          "velocity": 0.7244094488188977
        },
        {
          "duration": 0.03333337500001221,
          "durationTicks": 12,
          "midi": 74,
          "name": "D5",
          "ticks": 49008,
          "time": 136.1335035,
          "velocity": 0.5511811023622047
        },
        {
          "duration": 0.03333337499998379,
          "durationTicks": 12,
          "midi": 73,
          "name": "C#5",
          "ticks": 49020,
          "time": 136.166836875,
          "velocity": 0.5511811023622047
        },
        {
          "duration": 0.03333337500001221,
          "durationTicks": 12,
          "midi": 74,
          "name": "D5",
          "ticks": 49032,
          "time": 136.20017024999999,
          "velocity": 0.5511811023622047
        },
        {
          "duration": 0.03333337499998379,
          "durationTicks": 12,
          "midi": 73,
          "name": "C#5",
          "ticks": 49044,
          "time": 136.233503625,
          "velocity": 0.5511811023622047
        },
        {
          "duration": 0.2666670000000124,
          "durationTicks": 96,
          "midi": 66,
          "name": "F#4",
          "ticks": 49056,
          "time": 136.26683699999998,
          "velocity": 0.7244094488188977
        },
        {
          "duration": 0.03333337500001221,
          "durationTicks": 12,
          "midi": 76,
          "name": "E5",
          "ticks": 49152,
          "time": 136.533504,
          "velocity": 0.7244094488188977
        },
        {
          "duration": 0.1166668125000001,
          "durationTicks": 42,
          "midi": 78,
          "name": "F#5",
          "ticks": 49158,
          "time": 136.55017068749999,
          "velocity": 0.7244094488188977
        },
        {
          "duration": 0.03333337500001221,
          "durationTicks": 12,
          "midi": 79,
          "name": "G5",
          "ticks": 49200,
          "time": 136.66683749999999,
          "velocity": 0.5511811023622047
        },
        {
          "duration": 0.03333337499998379,
          "durationTicks": 12,
          "midi": 78,
          "name": "F#5",
          "ticks": 49212,
          "time": 136.700170875,
          "velocity": 0.5511811023622047
        },
        {
          "duration": 0.03333337500001221,
          "durationTicks": 12,
          "midi": 79,
          "name": "G5",
          "ticks": 49224,
          "time": 136.73350424999998,
          "velocity": 0.5511811023622047
        },
        {
          "duration": 0.03333337500001221,
          "durationTicks": 12,
          "midi": 78,
          "name": "F#5",
          "ticks": 49236,
          "time": 136.766837625,
          "velocity": 0.5511811023622047
        },
        {
          "duration": 0.03333337499998379,
          "durationTicks": 12,
          "midi": 79,
          "name": "G5",
          "ticks": 49248,
          "time": 136.800171,
          "velocity": 0.5511811023622047
        },
        {
          "duration": 0.03333337500001221,
          "durationTicks": 12,
          "midi": 78,
          "name": "F#5",
          "ticks": 49260,
          "time": 136.833504375,
          "velocity": 0.5511811023622047
        },
        {
          "duration": 0.03333337499998379,
          "durationTicks": 12,
          "midi": 79,
          "name": "G5",
          "ticks": 49272,
          "time": 136.86683775,
          "velocity": 0.5511811023622047
        },
        {
          "duration": 0.03333337500001221,
          "durationTicks": 12,
          "midi": 78,
          "name": "F#5",
          "ticks": 49284,
          "time": 136.90017112499999,
          "velocity": 0.5511811023622047
        },
        {
          "duration": 0.133333499999992,
          "durationTicks": 48,
          "midi": 73,
          "name": "C#5",
          "ticks": 49296,
          "time": 136.9335045,
          "velocity": 0.7244094488188977
        },
        {
          "duration": 0.133333499999992,
          "durationTicks": 48,
          "midi": 71,
          "name": "B4",
          "ticks": 49344,
          "time": 137.066838,
          "velocity": 0.7244094488188977
        },
        {
          "duration": 0.03333337500001221,
          "durationTicks": 12,
          "midi": 72,
          "name": "C5",
          "ticks": 49392,
          "time": 137.20017149999998,
          "velocity": 0.5511811023622047
        },
        {
          "duration": 0.03333337500001221,
          "durationTicks": 12,
          "midi": 71,
          "name": "B4",
          "ticks": 49404,
          "time": 137.233504875,
          "velocity": 0.5511811023622047
        },
        {
          "duration": 0.03333337499998379,
          "durationTicks": 12,
          "midi": 72,
          "name": "C5",
          "ticks": 49416,
          "time": 137.26683825,
          "velocity": 0.5511811023622047
        },
        {
          "duration": 0.03333337500001221,
          "durationTicks": 12,
          "midi": 71,
          "name": "B4",
          "ticks": 49428,
          "time": 137.300171625,
          "velocity": 0.5511811023622047
        },
        {
          "duration": 0.03333337499998379,
          "durationTicks": 12,
          "midi": 72,
          "name": "C5",
          "ticks": 49440,
          "time": 137.333505,
          "velocity": 0.5511811023622047
        },
        {
          "duration": 0.03333337500001221,
          "durationTicks": 12,
          "midi": 71,
          "name": "B4",
          "ticks": 49452,
          "time": 137.366838375,
          "velocity": 0.5511811023622047
        },
        {
          "duration": 0.03333337499998379,
          "durationTicks": 12,
          "midi": 72,
          "name": "C5",
          "ticks": 49464,
          "time": 137.40017175,
          "velocity": 0.5511811023622047
        },
        {
          "duration": 0.03333337500001221,
          "durationTicks": 12,
          "midi": 71,
          "name": "B4",
          "ticks": 49476,
          "time": 137.43350512499998,
          "velocity": 0.5511811023622047
        },
        {
          "duration": 0.133333499999992,
          "durationTicks": 48,
          "midi": 68,
          "name": "G#4",
          "ticks": 49488,
          "time": 137.4668385,
          "velocity": 0.7244094488188977
        },
        {
          "duration": 0.066666749999996,
          "durationTicks": 24,
          "midi": 71,
          "name": "B4",
          "ticks": 49536,
          "time": 137.600172,
          "velocity": 0.7165354330708661
        },
        {
          "duration": 0.06666675000002442,
          "durationTicks": 24,
          "midi": 73,
          "name": "C#5",
          "ticks": 49560,
          "time": 137.66683874999998,
          "velocity": 0.7244094488188977
        },
        {
          "duration": 0.066666749999996,
          "durationTicks": 24,
          "midi": 76,
          "name": "E5",
          "ticks": 49584,
          "time": 137.7335055,
          "velocity": 0.7401574803149606
        },
        {
          "duration": 0.066666749999996,
          "durationTicks": 24,
          "midi": 78,
          "name": "F#5",
          "ticks": 49608,
          "time": 137.80017225,
          "velocity": 0.7480314960629921
        },
        {
          "duration": 0.066666749999996,
          "durationTicks": 24,
          "midi": 79,
          "name": "G5",
          "ticks": 49632,
          "time": 137.866839,
          "velocity": 0.7559055118110236
        },
        {
          "duration": 0.066666749999996,
          "durationTicks": 24,
          "midi": 80,
          "name": "G#5",
          "ticks": 49656,
          "time": 137.93350575,
          "velocity": 0.7716535433070866
        },
        {
          "duration": 0.066666749999996,
          "durationTicks": 24,
          "midi": 81,
          "name": "A5",
          "ticks": 49680,
          "time": 138.0001725,
          "velocity": 0.7795275590551181
        },
        {
          "duration": 0.066666749999996,
          "durationTicks": 24,
          "midi": 83,
          "name": "B5",
          "ticks": 49704,
          "time": 138.06683925,
          "velocity": 0.7952755905511811
        },
        {
          "duration": 0.13333350000002042,
          "durationTicks": 48,
          "midi": 85,
          "name": "C#6",
          "ticks": 49728,
          "time": 138.13350599999998,
          "velocity": 0.8031496062992126
        },
        {
          "duration": 0.03333337499998379,
          "durationTicks": 12,
          "midi": 86,
          "name": "D6",
          "ticks": 49776,
          "time": 138.2668395,
          "velocity": 0.5511811023622047
        },
        {
          "duration": 0.03333337500001221,
          "durationTicks": 12,
          "midi": 85,
          "name": "C#6",
          "ticks": 49788,
          "time": 138.300172875,
          "velocity": 0.5511811023622047
        },
        {
          "duration": 0.03333337499998379,
          "durationTicks": 12,
          "midi": 86,
          "name": "D6",
          "ticks": 49800,
          "time": 138.33350625,
          "velocity": 0.5511811023622047
        },
        {
          "duration": 0.03333337500001221,
          "durationTicks": 12,
          "midi": 85,
          "name": "C#6",
          "ticks": 49812,
          "time": 138.36683962499998,
          "velocity": 0.5511811023622047
        },
        {
          "duration": 0.266666999999984,
          "durationTicks": 96,
          "midi": 66,
          "name": "F#4",
          "ticks": 49824,
          "time": 138.400173,
          "velocity": 0.7244094488188977
        },
        {
          "duration": 0.03333337500001221,
          "durationTicks": 12,
          "midi": 86,
          "name": "D6",
          "ticks": 49824,
          "time": 138.400173,
          "velocity": 0.5511811023622047
        },
        {
          "duration": 0.03333337499998379,
          "durationTicks": 12,
          "midi": 85,
          "name": "C#6",
          "ticks": 49836,
          "time": 138.433506375,
          "velocity": 0.5511811023622047
        },
        {
          "duration": 0.03333337500001221,
          "durationTicks": 12,
          "midi": 86,
          "name": "D6",
          "ticks": 49848,
          "time": 138.46683975,
          "velocity": 0.5511811023622047
        },
        {
          "duration": 0.03333337499998379,
          "durationTicks": 12,
          "midi": 85,
          "name": "C#6",
          "ticks": 49860,
          "time": 138.500173125,
          "velocity": 0.5511811023622047
        },
        {
          "duration": 0.03333337500001221,
          "durationTicks": 12,
          "midi": 76,
          "name": "E5",
          "ticks": 49920,
          "time": 138.66683999999998,
          "velocity": 0.7244094488188977
        },
        {
          "duration": 0.1166668125000001,
          "durationTicks": 42,
          "midi": 78,
          "name": "F#5",
          "ticks": 49926,
          "time": 138.6835066875,
          "velocity": 0.7244094488188977
        },
        {
          "duration": 0.03333337499998379,
          "durationTicks": 12,
          "midi": 79,
          "name": "G5",
          "ticks": 49968,
          "time": 138.8001735,
          "velocity": 0.5511811023622047
        },
        {
          "duration": 0.03333337500001221,
          "durationTicks": 12,
          "midi": 78,
          "name": "F#5",
          "ticks": 49980,
          "time": 138.83350687499998,
          "velocity": 0.5511811023622047
        },
        {
          "duration": 0.03333337499998379,
          "durationTicks": 12,
          "midi": 79,
          "name": "G5",
          "ticks": 49992,
          "time": 138.86684025,
          "velocity": 0.5511811023622047
        },
        {
          "duration": 0.03333337500001221,
          "durationTicks": 12,
          "midi": 78,
          "name": "F#5",
          "ticks": 50004,
          "time": 138.90017362499998,
          "velocity": 0.5511811023622047
        },
        {
          "duration": 0.03333337500001221,
          "durationTicks": 12,
          "midi": 79,
          "name": "G5",
          "ticks": 50016,
          "time": 138.933507,
          "velocity": 0.5511811023622047
        },
        {
          "duration": 0.03333337499998379,
          "durationTicks": 12,
          "midi": 78,
          "name": "F#5",
          "ticks": 50028,
          "time": 138.966840375,
          "velocity": 0.5511811023622047
        },
        {
          "duration": 0.03333337500001221,
          "durationTicks": 12,
          "midi": 79,
          "name": "G5",
          "ticks": 50040,
          "time": 139.00017375,
          "velocity": 0.5511811023622047
        },
        {
          "duration": 0.03333337499998379,
          "durationTicks": 12,
          "midi": 78,
          "name": "F#5",
          "ticks": 50052,
          "time": 139.033507125,
          "velocity": 0.5511811023622047
        },
        {
          "duration": 0.13333350000002042,
          "durationTicks": 48,
          "midi": 73,
          "name": "C#5",
          "ticks": 50064,
          "time": 139.06684049999998,
          "velocity": 0.7244094488188977
        },
        {
          "duration": 0.133333499999992,
          "durationTicks": 48,
          "midi": 71,
          "name": "B4",
          "ticks": 50112,
          "time": 139.200174,
          "velocity": 0.7244094488188977
        },
        {
          "duration": 0.03333337499998379,
          "durationTicks": 12,
          "midi": 72,
          "name": "C5",
          "ticks": 50160,
          "time": 139.3335075,
          "velocity": 0.5511811023622047
        },
        {
          "duration": 0.03333337500001221,
          "durationTicks": 12,
          "midi": 71,
          "name": "B4",
          "ticks": 50172,
          "time": 139.36684087499998,
          "velocity": 0.5511811023622047
        },
        {
          "duration": 0.03333337500001221,
          "durationTicks": 12,
          "midi": 72,
          "name": "C5",
          "ticks": 50184,
          "time": 139.40017425,
          "velocity": 0.5511811023622047
        },
        {
          "duration": 0.03333337499998379,
          "durationTicks": 12,
          "midi": 71,
          "name": "B4",
          "ticks": 50196,
          "time": 139.433507625,
          "velocity": 0.5511811023622047
        },
        {
          "duration": 0.03333337500001221,
          "durationTicks": 12,
          "midi": 72,
          "name": "C5",
          "ticks": 50208,
          "time": 139.466841,
          "velocity": 0.5511811023622047
        },
        {
          "duration": 0.03333337499998379,
          "durationTicks": 12,
          "midi": 71,
          "name": "B4",
          "ticks": 50220,
          "time": 139.500174375,
          "velocity": 0.5511811023622047
        },
        {
          "duration": 0.03333337500001221,
          "durationTicks": 12,
          "midi": 72,
          "name": "C5",
          "ticks": 50232,
          "time": 139.53350774999998,
          "velocity": 0.5511811023622047
        },
        {
          "duration": 0.03333337499998379,
          "durationTicks": 12,
          "midi": 71,
          "name": "B4",
          "ticks": 50244,
          "time": 139.566841125,
          "velocity": 0.5511811023622047
        },
        {
          "duration": 0.13333350000002042,
          "durationTicks": 48,
          "midi": 69,
          "name": "A4",
          "ticks": 50256,
          "time": 139.60017449999998,
          "velocity": 0.7244094488188977
        },
        {
          "duration": 0.133333499999992,
          "durationTicks": 48,
          "midi": 71,
          "name": "B4",
          "ticks": 50304,
          "time": 139.733508,
          "velocity": 0.7244094488188977
        },
        {
          "duration": 0.03333337500001221,
          "durationTicks": 12,
          "midi": 72,
          "name": "C5",
          "ticks": 50352,
          "time": 139.8668415,
          "velocity": 0.5118110236220472
        },
        {
          "duration": 0.03333337499998379,
          "durationTicks": 12,
          "midi": 71,
          "name": "B4",
          "ticks": 50364,
          "time": 139.900174875,
          "velocity": 0.5118110236220472
        },
        {
          "duration": 0.03333337500001221,
          "durationTicks": 12,
          "midi": 72,
          "name": "C5",
          "ticks": 50376,
          "time": 139.93350825,
          "velocity": 0.5118110236220472
        },
        {
          "duration": 0.03333337499998379,
          "durationTicks": 12,
          "midi": 71,
          "name": "B4",
          "ticks": 50388,
          "time": 139.966841625,
          "velocity": 0.5118110236220472
        },
        {
          "duration": 0.13333350000002042,
          "durationTicks": 48,
          "midi": 74,
          "name": "D5",
          "ticks": 50400,
          "time": 140.00017499999998,
          "velocity": 0.7244094488188977
        },
        {
          "duration": 0.03333337499998379,
          "durationTicks": 12,
          "midi": 75,
          "name": "D#5",
          "ticks": 50448,
          "time": 140.1335085,
          "velocity": 0.5118110236220472
        },
        {
          "duration": 0.03333337500001221,
          "durationTicks": 12,
          "midi": 74,
          "name": "D5",
          "ticks": 50460,
          "time": 140.166841875,
          "velocity": 0.5118110236220472
        },
        {
          "duration": 0.03333337499998379,
          "durationTicks": 12,
          "midi": 75,
          "name": "D#5",
          "ticks": 50472,
          "time": 140.20017525,
          "velocity": 0.5511811023622047
        },
        {
          "duration": 0.03333337500001221,
          "durationTicks": 12,
          "midi": 74,
          "name": "D5",
          "ticks": 50484,
          "time": 140.23350862499998,
          "velocity": 0.5511811023622047
        },
        {
          "duration": 0.133333499999992,
          "durationTicks": 48,
          "midi": 73,
          "name": "C#5",
          "ticks": 50496,
          "time": 140.266842,
          "velocity": 0.7244094488188977
        },
        {
          "duration": 0.03333337500001221,
          "durationTicks": 12,
          "midi": 74,
          "name": "D5",
          "ticks": 50544,
          "time": 140.4001755,
          "velocity": 0.5511811023622047
        },
        {
          "duration": 0.03333337499998379,
          "durationTicks": 12,
          "midi": 73,
          "name": "C#5",
          "ticks": 50556,
          "time": 140.433508875,
          "velocity": 0.5511811023622047
        },
        {
          "duration": 0.03333337500001221,
          "durationTicks": 12,
          "midi": 74,
          "name": "D5",
          "ticks": 50568,
          "time": 140.46684224999998,
          "velocity": 0.5511811023622047
        },
        {
          "duration": 0.03333337499998379,
          "durationTicks": 12,
          "midi": 73,
          "name": "C#5",
          "ticks": 50580,
          "time": 140.500175625,
          "velocity": 0.5511811023622047
        },
        {
          "duration": 0.2666670000000124,
          "durationTicks": 96,
          "midi": 66,
          "name": "F#4",
          "ticks": 50592,
          "time": 140.53350899999998,
          "velocity": 0.7244094488188977
        },
        {
          "duration": 0.03333337500001221,
          "durationTicks": 12,
          "midi": 76,
          "name": "E5",
          "ticks": 50688,
          "time": 140.800176,
          "velocity": 0.7244094488188977
        },
        {
          "duration": 0.1166668125000001,
          "durationTicks": 42,
          "midi": 78,
          "name": "F#5",
          "ticks": 50694,
          "time": 140.81684268749999,
          "velocity": 0.7244094488188977
        },
        {
          "duration": 0.03333337500001221,
          "durationTicks": 12,
          "midi": 79,
          "name": "G5",
          "ticks": 50736,
          "time": 140.93350949999999,
          "velocity": 0.5511811023622047
        },
        {
          "duration": 0.03333337499998379,
          "durationTicks": 12,
          "midi": 78,
          "name": "F#5",
          "ticks": 50748,
          "time": 140.966842875,
          "velocity": 0.5511811023622047
        },
        {
          "duration": 0.03333337500001221,
          "durationTicks": 12,
          "midi": 79,
          "name": "G5",
          "ticks": 50760,
          "time": 141.00017624999998,
          "velocity": 0.5511811023622047
        },
        {
          "duration": 0.03333337500001221,
          "durationTicks": 12,
          "midi": 78,
          "name": "F#5",
          "ticks": 50772,
          "time": 141.033509625,
          "velocity": 0.5511811023622047
        },
        {
          "duration": 0.03333337499998379,
          "durationTicks": 12,
          "midi": 79,
          "name": "G5",
          "ticks": 50784,
          "time": 141.066843,
          "velocity": 0.5511811023622047
        },
        {
          "duration": 0.03333337500001221,
          "durationTicks": 12,
          "midi": 78,
          "name": "F#5",
          "ticks": 50796,
          "time": 141.100176375,
          "velocity": 0.5511811023622047
        },
        {
          "duration": 0.03333337499998379,
          "durationTicks": 12,
          "midi": 79,
          "name": "G5",
          "ticks": 50808,
          "time": 141.13350975,
          "velocity": 0.5511811023622047
        },
        {
          "duration": 0.03333337500001221,
          "durationTicks": 12,
          "midi": 78,
          "name": "F#5",
          "ticks": 50820,
          "time": 141.16684312499999,
          "velocity": 0.5511811023622047
        },
        {
          "duration": 0.133333499999992,
          "durationTicks": 48,
          "midi": 73,
          "name": "C#5",
          "ticks": 50832,
          "time": 141.2001765,
          "velocity": 0.7244094488188977
        },
        {
          "duration": 0.133333499999992,
          "durationTicks": 48,
          "midi": 71,
          "name": "B4",
          "ticks": 50880,
          "time": 141.33351,
          "velocity": 0.7244094488188977
        },
        {
          "duration": 0.03333337500001221,
          "durationTicks": 12,
          "midi": 72,
          "name": "C5",
          "ticks": 50928,
          "time": 141.46684349999998,
          "velocity": 0.5511811023622047
        },
        {
          "duration": 0.03333337500001221,
          "durationTicks": 12,
          "midi": 71,
          "name": "B4",
          "ticks": 50940,
          "time": 141.500176875,
          "velocity": 0.5511811023622047
        },
        {
          "duration": 0.03333337499998379,
          "durationTicks": 12,
          "midi": 72,
          "name": "C5",
          "ticks": 50952,
          "time": 141.53351025,
          "velocity": 0.5511811023622047
        },
        {
          "duration": 0.03333337500001221,
          "durationTicks": 12,
          "midi": 71,
          "name": "B4",
          "ticks": 50964,
          "time": 141.566843625,
          "velocity": 0.5511811023622047
        },
        {
          "duration": 0.03333337499998379,
          "durationTicks": 12,
          "midi": 72,
          "name": "C5",
          "ticks": 50976,
          "time": 141.600177,
          "velocity": 0.5511811023622047
        },
        {
          "duration": 0.03333337500001221,
          "durationTicks": 12,
          "midi": 71,
          "name": "B4",
          "ticks": 50988,
          "time": 141.633510375,
          "velocity": 0.5511811023622047
        },
        {
          "duration": 0.03333337499998379,
          "durationTicks": 12,
          "midi": 72,
          "name": "C5",
          "ticks": 51000,
          "time": 141.66684375,
          "velocity": 0.5511811023622047
        },
        {
          "duration": 0.03333337500001221,
          "durationTicks": 12,
          "midi": 71,
          "name": "B4",
          "ticks": 51012,
          "time": 141.70017712499998,
          "velocity": 0.5511811023622047
        },
        {
          "duration": 0.133333499999992,
          "durationTicks": 48,
          "midi": 68,
          "name": "G#4",
          "ticks": 51024,
          "time": 141.7335105,
          "velocity": 0.7244094488188977
        },
        {
          "duration": 0.13333350000002042,
          "durationTicks": 48,
          "midi": 71,
          "name": "B4",
          "ticks": 51072,
          "time": 141.866844,
          "velocity": 0.7244094488188977
        },
        {
          "duration": 0.03333337499998379,
          "durationTicks": 12,
          "midi": 72,
          "name": "C5",
          "ticks": 51120,
          "time": 142.0001775,
          "velocity": 0.5511811023622047
        },
        {
          "duration": 0.03333337500001221,
          "durationTicks": 12,
          "midi": 71,
          "name": "B4",
          "ticks": 51132,
          "time": 142.033510875,
          "velocity": 0.5511811023622047
        },
        {
          "duration": 0.03333337499998379,
          "durationTicks": 12,
          "midi": 72,
          "name": "C5",
          "ticks": 51144,
          "time": 142.06684425,
          "velocity": 0.5511811023622047
        },
        {
          "duration": 0.03333337500001221,
          "durationTicks": 12,
          "midi": 71,
          "name": "B4",
          "ticks": 51156,
          "time": 142.100177625,
          "velocity": 0.5511811023622047
        },
        {
          "duration": 0.133333499999992,
          "durationTicks": 48,
          "midi": 69,
          "name": "A4",
          "ticks": 51168,
          "time": 142.133511,
          "velocity": 0.7244094488188977
        },
        {
          "duration": 0.133333499999992,
          "durationTicks": 48,
          "midi": 68,
          "name": "G#4",
          "ticks": 51216,
          "time": 142.2668445,
          "velocity": 0.7244094488188977
        },
        {
          "duration": 0.2666670000000124,
          "durationTicks": 96,
          "midi": 69,
          "name": "A4",
          "ticks": 51264,
          "time": 142.40017799999998,
          "velocity": 0.7244094488188977
        },
        {
          "duration": 0.2666670000000124,
          "durationTicks": 96,
          "midi": 66,
          "name": "F#4",
          "ticks": 51360,
          "time": 142.666845,
          "velocity": 0.7244094488188977
        },
        {
          "duration": 0.03333337499998379,
          "durationTicks": 12,
          "midi": 76,
          "name": "E5",
          "ticks": 51456,
          "time": 142.933512,
          "velocity": 0.7244094488188977
        },
        {
          "duration": 0.1166668125000001,
          "durationTicks": 42,
          "midi": 78,
          "name": "F#5",
          "ticks": 51462,
          "time": 142.9501786875,
          "velocity": 0.7244094488188977
        },
        {
          "duration": 0.03333337499998379,
          "durationTicks": 12,
          "midi": 79,
          "name": "G5",
          "ticks": 51504,
          "time": 143.0668455,
          "velocity": 0.5511811023622047
        },
        {
          "duration": 0.03333337500001221,
          "durationTicks": 12,
          "midi": 78,
          "name": "F#5",
          "ticks": 51516,
          "time": 143.10017887499998,
          "velocity": 0.5511811023622047
        },
        {
          "duration": 0.03333337499998379,
          "durationTicks": 12,
          "midi": 79,
          "name": "G5",
          "ticks": 51528,
          "time": 143.13351225,
          "velocity": 0.5511811023622047
        },
        {
          "duration": 0.03333337500001221,
          "durationTicks": 12,
          "midi": 78,
          "name": "F#5",
          "ticks": 51540,
          "time": 143.16684562499998,
          "velocity": 0.5511811023622047
        },
        {
          "duration": 0.03333337500001221,
          "durationTicks": 12,
          "midi": 79,
          "name": "G5",
          "ticks": 51552,
          "time": 143.200179,
          "velocity": 0.5511811023622047
        },
        {
          "duration": 0.03333337499998379,
          "durationTicks": 12,
          "midi": 78,
          "name": "F#5",
          "ticks": 51564,
          "time": 143.233512375,
          "velocity": 0.5511811023622047
        },
        {
          "duration": 0.03333337500001221,
          "durationTicks": 12,
          "midi": 79,
          "name": "G5",
          "ticks": 51576,
          "time": 143.26684575,
          "velocity": 0.5511811023622047
        },
        {
          "duration": 0.03333337499998379,
          "durationTicks": 12,
          "midi": 78,
          "name": "F#5",
          "ticks": 51588,
          "time": 143.300179125,
          "velocity": 0.5511811023622047
        },
        {
          "duration": 0.13333350000002042,
          "durationTicks": 48,
          "midi": 73,
          "name": "C#5",
          "ticks": 51600,
          "time": 143.33351249999998,
          "velocity": 0.7244094488188977
        },
        {
          "duration": 0.133333499999992,
          "durationTicks": 48,
          "midi": 71,
          "name": "B4",
          "ticks": 51648,
          "time": 143.466846,
          "velocity": 0.7244094488188977
        },
        {
          "duration": 0.03333337499998379,
          "durationTicks": 12,
          "midi": 72,
          "name": "C5",
          "ticks": 51696,
          "time": 143.6001795,
          "velocity": 0.5511811023622047
        },
        {
          "duration": 0.03333337500001221,
          "durationTicks": 12,
          "midi": 71,
          "name": "B4",
          "ticks": 51708,
          "time": 143.63351287499998,
          "velocity": 0.5511811023622047
        },
        {
          "duration": 0.03333337500001221,
          "durationTicks": 12,
          "midi": 72,
          "name": "C5",
          "ticks": 51720,
          "time": 143.66684625,
          "velocity": 0.5511811023622047
        },
        {
          "duration": 0.03333337499998379,
          "durationTicks": 12,
          "midi": 71,
          "name": "B4",
          "ticks": 51732,
          "time": 143.700179625,
          "velocity": 0.5511811023622047
        },
        {
          "duration": 0.03333337500001221,
          "durationTicks": 12,
          "midi": 72,
          "name": "C5",
          "ticks": 51744,
          "time": 143.733513,
          "velocity": 0.5511811023622047
        },
        {
          "duration": 0.03333337499998379,
          "durationTicks": 12,
          "midi": 71,
          "name": "B4",
          "ticks": 51756,
          "time": 143.766846375,
          "velocity": 0.5511811023622047
        },
        {
          "duration": 0.03333337500001221,
          "durationTicks": 12,
          "midi": 72,
          "name": "C5",
          "ticks": 51768,
          "time": 143.80017974999998,
          "velocity": 0.5511811023622047
        },
        {
          "duration": 0.03333337499998379,
          "durationTicks": 12,
          "midi": 71,
          "name": "B4",
          "ticks": 51780,
          "time": 143.833513125,
          "velocity": 0.5511811023622047
        },
        {
          "duration": 0.13333350000002042,
          "durationTicks": 48,
          "midi": 72,
          "name": "C5",
          "ticks": 51792,
          "time": 143.86684649999998,
          "velocity": 0.7244094488188977
        },
        {
          "duration": 0.133333499999992,
          "durationTicks": 48,
          "midi": 73,
          "name": "C#5",
          "ticks": 51840,
          "time": 144.00018,
          "velocity": 0.7244094488188977
        },
        {
          "duration": 0.03333337500001221,
          "durationTicks": 12,
          "midi": 74,
          "name": "D5",
          "ticks": 51888,
          "time": 144.1335135,
          "velocity": 0.5511811023622047
        },
        {
          "duration": 0.03333337499998379,
          "durationTicks": 12,
          "midi": 73,
          "name": "C#5",
          "ticks": 51900,
          "time": 144.166846875,
          "velocity": 0.5511811023622047
        },
        {
          "duration": 0.03333337500001221,
          "durationTicks": 12,
          "midi": 74,
          "name": "D5",
          "ticks": 51912,
          "time": 144.20018025,
          "velocity": 0.5511811023622047
        },
        {
          "duration": 0.03333337499998379,
          "durationTicks": 12,
          "midi": 73,
          "name": "C#5",
          "ticks": 51924,
          "time": 144.233513625,
          "velocity": 0.5511811023622047
        },
        {
          "duration": 0.13333350000002042,
          "durationTicks": 48,
          "midi": 77,
          "name": "F5",
          "ticks": 51936,
          "time": 144.26684699999998,
          "velocity": 0.7244094488188977
        },
        {
          "duration": 0.03333337499998379,
          "durationTicks": 12,
          "midi": 77,
          "name": "F5",
          "ticks": 52032,
          "time": 144.533514,
          "velocity": 0.7244094488188977
        },
        {
          "duration": 0.2500003124999921,
          "durationTicks": 90,
          "midi": 78,
          "name": "F#5",
          "ticks": 52038,
          "time": 144.5501806875,
          "velocity": 0.7244094488188977
        },
        {
          "duration": 0.03333337499998379,
          "durationTicks": 12,
          "midi": 64,
          "name": "E4",
          "ticks": 54528,
          "time": 151.466856,
          "velocity": 0.5826771653543307
        },
        {
          "duration": 0.03333337500001221,
          "durationTicks": 12,
          "midi": 66,
          "name": "F#4",
          "ticks": 54540,
          "time": 151.500189375,
          "velocity": 0.6141732283464567
        },
        {
          "duration": 0.03333337499998379,
          "durationTicks": 12,
          "midi": 68,
          "name": "G#4",
          "ticks": 54552,
          "time": 151.53352275,
          "velocity": 0.6377952755905512
        },
        {
          "duration": 0.03333337500001221,
          "durationTicks": 12,
          "midi": 69,
          "name": "A4",
          "ticks": 54564,
          "time": 151.566856125,
          "velocity": 0.6692913385826772
        },
        {
          "duration": 0.03333337499998379,
          "durationTicks": 12,
          "midi": 71,
          "name": "B4",
          "ticks": 54576,
          "time": 151.6001895,
          "velocity": 0.7007874015748031
        },
        {
          "duration": 0.03333337500001221,
          "durationTicks": 12,
          "midi": 73,
          "name": "C#5",
          "ticks": 54588,
          "time": 151.63352287499998,
          "velocity": 0.7322834645669292
        },
        {
          "duration": 0.03333337499998379,
          "durationTicks": 12,
          "midi": 76,
          "name": "E5",
          "ticks": 54600,
          "time": 151.66685625,
          "velocity": 0.7637795275590551
        },
        {
          "duration": 0.03333337500001221,
          "durationTicks": 12,
          "midi": 77,
          "name": "F5",
          "ticks": 54612,
          "time": 151.70018962499998,
          "velocity": 0.7952755905511811
        },
        {
          "duration": 0.2666670000000124,
          "durationTicks": 96,
          "midi": 78,
          "name": "F#5",
          "ticks": 54624,
          "time": 151.733523,
          "velocity": 0.8267716535433071
        },
        {
          "duration": 0.2666670000000124,
          "durationTicks": 96,
          "midi": 71,
          "name": "B4",
          "ticks": 54624,
          "time": 151.733523,
          "velocity": 0.8267716535433071
        },
        {
          "duration": 0.2666670000000124,
          "durationTicks": 96,
          "midi": 90,
          "name": "F#6",
          "ticks": 54624,
          "time": 151.733523,
          "velocity": 0.8267716535433071
        },
        {
          "duration": 0.266666999999984,
          "durationTicks": 96,
          "midi": 76,
          "name": "E5",
          "ticks": 54720,
          "time": 152.00019,
          "velocity": 0.8267716535433071
        },
        {
          "duration": 0.266666999999984,
          "durationTicks": 96,
          "midi": 88,
          "name": "E6",
          "ticks": 54720,
          "time": 152.00019,
          "velocity": 0.8267716535433071
        },
        {
          "duration": 0.266666999999984,
          "durationTicks": 96,
          "midi": 71,
          "name": "B4",
          "ticks": 54720,
          "time": 152.00019,
          "velocity": 0.8267716535433071
        },
        {
          "duration": 0.133333499999992,
          "durationTicks": 48,
          "midi": 80,
          "name": "G#5",
          "ticks": 54816,
          "time": 152.266857,
          "velocity": 0.8267716535433071
        },
        {
          "duration": 0.2666670000000124,
          "durationTicks": 96,
          "midi": 69,
          "name": "A4",
          "ticks": 54816,
          "time": 152.266857,
          "velocity": 0.8267716535433071
        },
        {
          "duration": 0.2666670000000124,
          "durationTicks": 96,
          "midi": 64,
          "name": "E4",
          "ticks": 54816,
          "time": 152.266857,
          "velocity": 0.8267716535433071
        },
        {
          "duration": 0.2666670000000124,
          "durationTicks": 96,
          "midi": 81,
          "name": "A5",
          "ticks": 54864,
          "time": 152.40019049999998,
          "velocity": 0.8267716535433071
        },
        {
          "duration": 0.066666749999996,
          "durationTicks": 24,
          "midi": 78,
          "name": "F#5",
          "ticks": 54960,
          "time": 152.6668575,
          "velocity": 0.8267716535433071
        },
        {
          "duration": 0.066666749999996,
          "durationTicks": 24,
          "midi": 76,
          "name": "E5",
          "ticks": 54984,
          "time": 152.73352425,
          "velocity": 0.8267716535433071
        },
        {
          "duration": 0.066666749999996,
          "durationTicks": 24,
          "midi": 71,
          "name": "B4",
          "ticks": 55008,
          "time": 152.80019099999998,
          "velocity": 0.8267716535433071
        },
        {
          "duration": 0.06666675000002442,
          "durationTicks": 24,
          "midi": 72,
          "name": "C5",
          "ticks": 55032,
          "time": 152.86685774999998,
          "velocity": 0.8267716535433071
        },
        {
          "duration": 0.066666749999996,
          "durationTicks": 24,
          "midi": 73,
          "name": "C#5",
          "ticks": 55056,
          "time": 152.9335245,
          "velocity": 0.8267716535433071
        },
        {
          "duration": 0.066666749999996,
          "durationTicks": 24,
          "midi": 69,
          "name": "A4",
          "ticks": 55080,
          "time": 153.00019125,
          "velocity": 0.8267716535433071
        },
        {
          "duration": 0.066666749999996,
          "durationTicks": 24,
          "midi": 64,
          "name": "E4",
          "ticks": 55104,
          "time": 153.066858,
          "velocity": 0.8267716535433071
        },
        {
          "duration": 0.066666749999996,
          "durationTicks": 24,
          "midi": 65,
          "name": "F4",
          "ticks": 55128,
          "time": 153.13352475,
          "velocity": 0.8267716535433071
        },
        {
          "duration": 0.066666749999996,
          "durationTicks": 24,
          "midi": 66,
          "name": "F#4",
          "ticks": 55152,
          "time": 153.2001915,
          "velocity": 0.8267716535433071
        },
        {
          "duration": 0.066666749999996,
          "durationTicks": 24,
          "midi": 69,
          "name": "A4",
          "ticks": 55176,
          "time": 153.26685824999998,
          "velocity": 0.8267716535433071
        },
        {
          "duration": 0.13333350000002042,
          "durationTicks": 48,
          "midi": 66,
          "name": "F#4",
          "ticks": 55200,
          "time": 153.33352499999998,
          "velocity": 0.8267716535433071
        },
        {
          "duration": 0.133333499999992,
          "durationTicks": 48,
          "midi": 59,
          "name": "B3",
          "ticks": 55248,
          "time": 153.4668585,
          "velocity": 0.8267716535433071
        },
        {
          "duration": 0.03333337500001221,
          "durationTicks": 12,
          "midi": 64,
          "name": "E4",
          "ticks": 55296,
          "time": 153.600192,
          "velocity": 0.6377952755905512
        },
        {
          "duration": 0.03333337499998379,
          "durationTicks": 12,
          "midi": 66,
          "name": "F#4",
          "ticks": 55308,
          "time": 153.633525375,
          "velocity": 0.6535433070866141
        },
        {
          "duration": 0.03333337500001221,
          "durationTicks": 12,
          "midi": 68,
          "name": "G#4",
          "ticks": 55320,
          "time": 153.66685875,
          "velocity": 0.6771653543307087
        },
        {
          "duration": 0.03333337499998379,
          "durationTicks": 12,
          "midi": 69,
          "name": "A4",
          "ticks": 55332,
          "time": 153.700192125,
          "velocity": 0.7007874015748031
        },
        {
          "duration": 0.03333337500001221,
          "durationTicks": 12,
          "midi": 71,
          "name": "B4",
          "ticks": 55344,
          "time": 153.73352549999998,
          "velocity": 0.7244094488188977
        },
        {
          "duration": 0.03333337499998379,
          "durationTicks": 12,
          "midi": 73,
          "name": "C#5",
          "ticks": 55356,
          "time": 153.766858875,
          "velocity": 0.7480314960629921
        },
        {
          "duration": 0.03333337500001221,
          "durationTicks": 12,
          "midi": 76,
          "name": "E5",
          "ticks": 55368,
          "time": 153.80019224999998,
          "velocity": 0.7637795275590551
        },
        {
          "duration": 0.03333337500001221,
          "durationTicks": 12,
          "midi": 77,
          "name": "F5",
          "ticks": 55380,
          "time": 153.833525625,
          "velocity": 0.7874015748031497
        },
        {
          "duration": 0.266666999999984,
          "durationTicks": 96,
          "midi": 90,
          "name": "F#6",
          "ticks": 55392,
          "time": 153.866859,
          "velocity": 0.8267716535433071
        },
        {
          "duration": 0.266666999999984,
          "durationTicks": 96,
          "midi": 78,
          "name": "F#5",
          "ticks": 55392,
          "time": 153.866859,
          "velocity": 0.8267716535433071
        },
        {
          "duration": 0.266666999999984,
          "durationTicks": 96,
          "midi": 71,
          "name": "B4",
          "ticks": 55392,
          "time": 153.866859,
          "velocity": 0.8267716535433071
        },
        {
          "duration": 0.2666670000000124,
          "durationTicks": 96,
          "midi": 76,
          "name": "E5",
          "ticks": 55488,
          "time": 154.133526,
          "velocity": 0.8267716535433071
        },
        {
          "duration": 0.2666670000000124,
          "durationTicks": 96,
          "midi": 71,
          "name": "B4",
          "ticks": 55488,
          "time": 154.133526,
          "velocity": 0.8267716535433071
        },
        {
          "duration": 0.2666670000000124,
          "durationTicks": 96,
          "midi": 88,
          "name": "E6",
          "ticks": 55488,
          "time": 154.133526,
          "velocity": 0.8267716535433071
        },
        {
          "duration": 0.133333499999992,
          "durationTicks": 48,
          "midi": 80,
          "name": "G#5",
          "ticks": 55584,
          "time": 154.400193,
          "velocity": 0.8267716535433071
        },
        {
          "duration": 0.266666999999984,
          "durationTicks": 96,
          "midi": 69,
          "name": "A4",
          "ticks": 55584,
          "time": 154.400193,
          "velocity": 0.8267716535433071
        },
        {
          "duration": 0.266666999999984,
          "durationTicks": 96,
          "midi": 64,
          "name": "E4",
          "ticks": 55584,
          "time": 154.400193,
          "velocity": 0.8267716535433071
        },
        {
          "duration": 0.2666670000000124,
          "durationTicks": 96,
          "midi": 81,
          "name": "A5",
          "ticks": 55632,
          "time": 154.5335265,
          "velocity": 0.8267716535433071
        },
        {
          "duration": 0.066666749999996,
          "durationTicks": 24,
          "midi": 78,
          "name": "F#5",
          "ticks": 55728,
          "time": 154.8001935,
          "velocity": 0.8267716535433071
        },
        {
          "duration": 0.066666749999996,
          "durationTicks": 24,
          "midi": 81,
          "name": "A5",
          "ticks": 55752,
          "time": 154.86686025,
          "velocity": 0.8267716535433071
        },
        {
          "duration": 0.066666749999996,
          "durationTicks": 24,
          "midi": 83,
          "name": "B5",
          "ticks": 55776,
          "time": 154.933527,
          "velocity": 0.8267716535433071
        },
        {
          "duration": 0.066666749999996,
          "durationTicks": 24,
          "midi": 84,
          "name": "C6",
          "ticks": 55800,
          "time": 155.00019375,
          "velocity": 0.8267716535433071
        },
        {
          "duration": 0.066666749999996,
          "durationTicks": 24,
          "midi": 83,
          "name": "B5",
          "ticks": 55824,
          "time": 155.0668605,
          "velocity": 0.8267716535433071
        },
        {
          "duration": 0.066666749999996,
          "durationTicks": 24,
          "midi": 81,
          "name": "A5",
          "ticks": 55848,
          "time": 155.13352725,
          "velocity": 0.8267716535433071
        },
        {
          "duration": 0.06666675000002442,
          "durationTicks": 24,
          "midi": 76,
          "name": "E5",
          "ticks": 55872,
          "time": 155.20019399999998,
          "velocity": 0.8267716535433071
        },
        {
          "duration": 0.066666749999996,
          "durationTicks": 24,
          "midi": 77,
          "name": "F5",
          "ticks": 55896,
          "time": 155.26686075,
          "velocity": 0.8267716535433071
        },
        {
          "duration": 0.066666749999996,
          "durationTicks": 24,
          "midi": 78,
          "name": "F#5",
          "ticks": 55920,
          "time": 155.3335275,
          "velocity": 0.8267716535433071
        },
        {
          "duration": 0.066666749999996,
          "durationTicks": 24,
          "midi": 73,
          "name": "C#5",
          "ticks": 55944,
          "time": 155.40019425,
          "velocity": 0.8267716535433071
        },
        {
          "duration": 0.066666749999996,
          "durationTicks": 24,
          "midi": 72,
          "name": "C5",
          "ticks": 55968,
          "time": 155.466861,
          "velocity": 0.8267716535433071
        },
        {
          "duration": 0.066666749999996,
          "durationTicks": 24,
          "midi": 71,
          "name": "B4",
          "ticks": 55992,
          "time": 155.53352775,
          "velocity": 0.8267716535433071
        },
        {
          "duration": 0.066666749999996,
          "durationTicks": 24,
          "midi": 69,
          "name": "A4",
          "ticks": 56016,
          "time": 155.6001945,
          "velocity": 0.8267716535433071
        },
        {
          "duration": 0.066666749999996,
          "durationTicks": 24,
          "midi": 66,
          "name": "F#4",
          "ticks": 56040,
          "time": 155.66686124999998,
          "velocity": 0.8267716535433071
        },
        {
          "duration": 0.06666675000002442,
          "durationTicks": 24,
          "midi": 65,
          "name": "F4",
          "ticks": 56064,
          "time": 155.73352799999998,
          "velocity": 0.8267716535433071
        },
        {
          "duration": 0.066666749999996,
          "durationTicks": 24,
          "midi": 64,
          "name": "E4",
          "ticks": 56076,
          "time": 155.766861375,
          "velocity": 0.7637795275590551
        },
        {
          "duration": 0.066666749999996,
          "durationTicks": 24,
          "midi": 63,
          "name": "D#4",
          "ticks": 56088,
          "time": 155.80019475,
          "velocity": 0.7322834645669292
        },
        {
          "duration": 0.066666749999996,
          "durationTicks": 24,
          "midi": 62,
          "name": "D4",
          "ticks": 56100,
          "time": 155.833528125,
          "velocity": 0.7007874015748031
        },
        {
          "duration": 0.066666749999996,
          "durationTicks": 24,
          "midi": 61,
          "name": "C#4",
          "ticks": 56112,
          "time": 155.8668615,
          "velocity": 0.6692913385826772
        },
        {
          "duration": 0.066666749999996,
          "durationTicks": 24,
          "midi": 60,
          "name": "C4",
          "ticks": 56124,
          "time": 155.90019487499998,
          "velocity": 0.6377952755905512
        },
        {
          "duration": 0.066666749999996,
          "durationTicks": 24,
          "midi": 59,
          "name": "B3",
          "ticks": 56136,
          "time": 155.93352825,
          "velocity": 0.6062992125984252
        },
        {
          "duration": 0.06666675000002442,
          "durationTicks": 24,
          "midi": 58,
          "name": "A#3",
          "ticks": 56148,
          "time": 155.96686162499998,
          "velocity": 0.5748031496062992
        },
        {
          "duration": 0.066666749999996,
          "durationTicks": 24,
          "midi": 57,
          "name": "A3",
          "ticks": 56160,
          "time": 156.000195,
          "velocity": 0.5433070866141733
        },
        {
          "duration": 0.066666749999996,
          "durationTicks": 24,
          "midi": 56,
          "name": "G#3",
          "ticks": 56172,
          "time": 156.033528375,
          "velocity": 0.5118110236220472
        },
        {
          "duration": 0.066666749999996,
          "durationTicks": 24,
          "midi": 55,
          "name": "G3",
          "ticks": 56184,
          "time": 156.06686175,
          "velocity": 0.48031496062992124
        },
        {
          "duration": 0.066666749999996,
          "durationTicks": 24,
          "midi": 54,
          "name": "F#3",
          "ticks": 56196,
          "time": 156.100195125,
          "velocity": 0.44881889763779526
        },
        {
          "duration": 0.066666749999996,
          "durationTicks": 24,
          "midi": 53,
          "name": "F3",
          "ticks": 56208,
          "time": 156.13352849999998,
          "velocity": 0.41732283464566927
        },
        {
          "duration": 0.066666749999996,
          "durationTicks": 24,
          "midi": 52,
          "name": "E3",
          "ticks": 56220,
          "time": 156.166861875,
          "velocity": 0.3858267716535433
        },
        {
          "duration": 0.06666675000002442,
          "durationTicks": 24,
          "midi": 51,
          "name": "D#3",
          "ticks": 56232,
          "time": 156.20019524999998,
          "velocity": 0.3543307086614173
        },
        {
          "duration": 0.2666670000000124,
          "durationTicks": 96,
          "midi": 67,
          "name": "G4",
          "ticks": 69024,
          "time": 191.73357299999998,
          "velocity": 0.7244094488188977
        },
        {
          "duration": 0.03333337500001221,
          "durationTicks": 12,
          "midi": 77,
          "name": "F5",
          "ticks": 69120,
          "time": 192.00024,
          "velocity": 0.7244094488188977
        },
        {
          "duration": 0.1166668125000001,
          "durationTicks": 42,
          "midi": 79,
          "name": "G5",
          "ticks": 69126,
          "time": 192.01690668749998,
          "velocity": 0.7244094488188977
        },
        {
          "duration": 0.03333337500001221,
          "durationTicks": 12,
          "midi": 80,
          "name": "G#5",
          "ticks": 69168,
          "time": 192.13357349999998,
          "velocity": 0.5511811023622047
        },
        {
          "duration": 0.03333337499998379,
          "durationTicks": 12,
          "midi": 79,
          "name": "G5",
          "ticks": 69180,
          "time": 192.166906875,
          "velocity": 0.5511811023622047
        },
        {
          "duration": 0.03333337500001221,
          "durationTicks": 12,
          "midi": 80,
          "name": "G#5",
          "ticks": 69192,
          "time": 192.20024024999998,
          "velocity": 0.5511811023622047
        },
        {
          "duration": 0.03333337500001221,
          "durationTicks": 12,
          "midi": 79,
          "name": "G5",
          "ticks": 69204,
          "time": 192.233573625,
          "velocity": 0.5511811023622047
        },
        {
          "duration": 0.03333337499998379,
          "durationTicks": 12,
          "midi": 80,
          "name": "G#5",
          "ticks": 69216,
          "time": 192.266907,
          "velocity": 0.5511811023622047
        },
        {
          "duration": 0.03333337500001221,
          "durationTicks": 12,
          "midi": 79,
          "name": "G5",
          "ticks": 69228,
          "time": 192.300240375,
          "velocity": 0.5511811023622047
        },
        {
          "duration": 0.03333337499998379,
          "durationTicks": 12,
          "midi": 80,
          "name": "G#5",
          "ticks": 69240,
          "time": 192.33357375,
          "velocity": 0.5511811023622047
        },
        {
          "duration": 0.03333337500001221,
          "durationTicks": 12,
          "midi": 79,
          "name": "G5",
          "ticks": 69252,
          "time": 192.36690712499998,
          "velocity": 0.5511811023622047
        },
        {
          "duration": 0.133333499999992,
          "durationTicks": 48,
          "midi": 74,
          "name": "D5",
          "ticks": 69264,
          "time": 192.4002405,
          "velocity": 0.7244094488188977
        },
        {
          "duration": 0.133333499999992,
          "durationTicks": 48,
          "midi": 72,
          "name": "C5",
          "ticks": 69312,
          "time": 192.533574,
          "velocity": 0.7244094488188977
        },
        {
          "duration": 0.03333337500001221,
          "durationTicks": 12,
          "midi": 73,
          "name": "C#5",
          "ticks": 69360,
          "time": 192.66690749999998,
          "velocity": 0.5511811023622047
        },
        {
          "duration": 0.03333337500001221,
          "durationTicks": 12,
          "midi": 72,
          "name": "C5",
          "ticks": 69372,
          "time": 192.700240875,
          "velocity": 0.5511811023622047
        },
        {
          "duration": 0.03333337499998379,
          "durationTicks": 12,
          "midi": 73,
          "name": "C#5",
          "ticks": 69384,
          "time": 192.73357425,
          "velocity": 0.5511811023622047
        },
        {
          "duration": 0.03333337500001221,
          "durationTicks": 12,
          "midi": 72,
          "name": "C5",
          "ticks": 69396,
          "time": 192.766907625,
          "velocity": 0.5511811023622047
        },
        {
          "duration": 0.03333337499998379,
          "durationTicks": 12,
          "midi": 73,
          "name": "C#5",
          "ticks": 69408,
          "time": 192.800241,
          "velocity": 0.5511811023622047
        },
        {
          "duration": 0.03333337500001221,
          "durationTicks": 12,
          "midi": 72,
          "name": "C5",
          "ticks": 69420,
          "time": 192.83357437499998,
          "velocity": 0.5511811023622047
        },
        {
          "duration": 0.03333337499998379,
          "durationTicks": 12,
          "midi": 73,
          "name": "C#5",
          "ticks": 69432,
          "time": 192.86690775,
          "velocity": 0.5511811023622047
        },
        {
          "duration": 0.03333337500001221,
          "durationTicks": 12,
          "midi": 72,
          "name": "C5",
          "ticks": 69444,
          "time": 192.90024112499998,
          "velocity": 0.5511811023622047
        },
        {
          "duration": 0.133333499999992,
          "durationTicks": 48,
          "midi": 70,
          "name": "A#4",
          "ticks": 69456,
          "time": 192.9335745,
          "velocity": 0.7244094488188977
        },
        {
          "duration": 0.13333350000002042,
          "durationTicks": 48,
          "midi": 72,
          "name": "C5",
          "ticks": 69504,
          "time": 193.06690799999998,
          "velocity": 0.7244094488188977
        },
        {
          "duration": 0.03333337499998379,
          "durationTicks": 12,
          "midi": 73,
          "name": "C#5",
          "ticks": 69552,
          "time": 193.2002415,
          "velocity": 0.5118110236220472
        },
        {
          "duration": 0.03333337500001221,
          "durationTicks": 12,
          "midi": 72,
          "name": "C5",
          "ticks": 69564,
          "time": 193.233574875,
          "velocity": 0.5118110236220472
        },
        {
          "duration": 0.03333337499998379,
          "durationTicks": 12,
          "midi": 73,
          "name": "C#5",
          "ticks": 69576,
          "time": 193.26690825,
          "velocity": 0.5118110236220472
        },
        {
          "duration": 0.03333337500001221,
          "durationTicks": 12,
          "midi": 72,
          "name": "C5",
          "ticks": 69588,
          "time": 193.30024162499998,
          "velocity": 0.5118110236220472
        },
        {
          "duration": 0.133333499999992,
          "durationTicks": 48,
          "midi": 75,
          "name": "D#5",
          "ticks": 69600,
          "time": 193.333575,
          "velocity": 0.7244094488188977
        },
        {
          "duration": 0.03333337500001221,
          "durationTicks": 12,
          "midi": 76,
          "name": "E5",
          "ticks": 69648,
          "time": 193.4669085,
          "velocity": 0.5118110236220472
        },
        {
          "duration": 0.03333337499998379,
          "durationTicks": 12,
          "midi": 75,
          "name": "D#5",
          "ticks": 69660,
          "time": 193.500241875,
          "velocity": 0.5118110236220472
        },
        {
          "duration": 0.03333337500001221,
          "durationTicks": 12,
          "midi": 76,
          "name": "E5",
          "ticks": 69672,
          "time": 193.53357524999998,
          "velocity": 0.5511811023622047
        },
        {
          "duration": 0.03333337499998379,
          "durationTicks": 12,
          "midi": 75,
          "name": "D#5",
          "ticks": 69684,
          "time": 193.566908625,
          "velocity": 0.5511811023622047
        },
        {
          "duration": 0.13333350000002042,
          "durationTicks": 48,
          "midi": 74,
          "name": "D5",
          "ticks": 69696,
          "time": 193.60024199999998,
          "velocity": 0.7244094488188977
        },
        {
          "duration": 0.03333337499998379,
          "durationTicks": 12,
          "midi": 75,
          "name": "D#5",
          "ticks": 69744,
          "time": 193.7335755,
          "velocity": 0.5511811023622047
        },
        {
          "duration": 0.03333337500001221,
          "durationTicks": 12,
          "midi": 74,
          "name": "D5",
          "ticks": 69756,
          "time": 193.76690887499998,
          "velocity": 0.5511811023622047
        },
        {
          "duration": 0.03333337499998379,
          "durationTicks": 12,
          "midi": 75,
          "name": "D#5",
          "ticks": 69768,
          "time": 193.80024225,
          "velocity": 0.5511811023622047
        },
        {
          "duration": 0.03333337500001221,
          "durationTicks": 12,
          "midi": 74,
          "name": "D5",
          "ticks": 69780,
          "time": 193.83357562499998,
          "velocity": 0.5511811023622047
        },
        {
          "duration": 0.2666670000000124,
          "durationTicks": 96,
          "midi": 67,
          "name": "G4",
          "ticks": 69792,
          "time": 193.866909,
          "velocity": 0.7244094488188977
        },
        {
          "duration": 0.03333337499998379,
          "durationTicks": 12,
          "midi": 77,
          "name": "F5",
          "ticks": 69888,
          "time": 194.133576,
          "velocity": 0.7244094488188977
        },
        {
          "duration": 0.1166668125000001,
          "durationTicks": 42,
          "midi": 79,
          "name": "G5",
          "ticks": 69894,
          "time": 194.1502426875,
          "velocity": 0.7244094488188977
        },
        {
          "duration": 0.03333337499998379,
          "durationTicks": 12,
          "midi": 80,
          "name": "G#5",
          "ticks": 69936,
          "time": 194.2669095,
          "velocity": 0.5511811023622047
        },
        {
          "duration": 0.03333337500001221,
          "durationTicks": 12,
          "midi": 79,
          "name": "G5",
          "ticks": 69948,
          "time": 194.30024287499998,
          "velocity": 0.5511811023622047
        },
        {
          "duration": 0.03333337499998379,
          "durationTicks": 12,
          "midi": 80,
          "name": "G#5",
          "ticks": 69960,
          "time": 194.33357625,
          "velocity": 0.5511811023622047
        },
        {
          "duration": 0.03333337500001221,
          "durationTicks": 12,
          "midi": 79,
          "name": "G5",
          "ticks": 69972,
          "time": 194.36690962499998,
          "velocity": 0.5511811023622047
        },
        {
          "duration": 0.03333337500001221,
          "durationTicks": 12,
          "midi": 80,
          "name": "G#5",
          "ticks": 69984,
          "time": 194.400243,
          "velocity": 0.5511811023622047
        },
        {
          "duration": 0.03333337499998379,
          "durationTicks": 12,
          "midi": 79,
          "name": "G5",
          "ticks": 69996,
          "time": 194.433576375,
          "velocity": 0.5511811023622047
        },
        {
          "duration": 0.03333337500001221,
          "durationTicks": 12,
          "midi": 80,
          "name": "G#5",
          "ticks": 70008,
          "time": 194.46690974999999,
          "velocity": 0.5511811023622047
        },
        {
          "duration": 0.03333337499998379,
          "durationTicks": 12,
          "midi": 79,
          "name": "G5",
          "ticks": 70020,
          "time": 194.500243125,
          "velocity": 0.5511811023622047
        },
        {
          "duration": 0.13333350000002042,
          "durationTicks": 48,
          "midi": 74,
          "name": "D5",
          "ticks": 70032,
          "time": 194.53357649999998,
          "velocity": 0.7244094488188977
        },
        {
          "duration": 0.133333499999992,
          "durationTicks": 48,
          "midi": 72,
          "name": "C5",
          "ticks": 70080,
          "time": 194.66691,
          "velocity": 0.7244094488188977
        },
        {
          "duration": 0.03333337499998379,
          "durationTicks": 12,
          "midi": 73,
          "name": "C#5",
          "ticks": 70128,
          "time": 194.8002435,
          "velocity": 0.5511811023622047
        },
        {
          "duration": 0.03333337500001221,
          "durationTicks": 12,
          "midi": 72,
          "name": "C5",
          "ticks": 70140,
          "time": 194.83357687499998,
          "velocity": 0.5511811023622047
        },
        {
          "duration": 0.03333337500001221,
          "durationTicks": 12,
          "midi": 73,
          "name": "C#5",
          "ticks": 70152,
          "time": 194.86691025,
          "velocity": 0.5511811023622047
        },
        {
          "duration": 0.03333337499998379,
          "durationTicks": 12,
          "midi": 72,
          "name": "C5",
          "ticks": 70164,
          "time": 194.900243625,
          "velocity": 0.5511811023622047
        },
        {
          "duration": 0.03333337500001221,
          "durationTicks": 12,
          "midi": 73,
          "name": "C#5",
          "ticks": 70176,
          "time": 194.93357699999999,
          "velocity": 0.5511811023622047
        },
        {
          "duration": 0.03333337499998379,
          "durationTicks": 12,
          "midi": 72,
          "name": "C5",
          "ticks": 70188,
          "time": 194.966910375,
          "velocity": 0.5511811023622047
        },
        {
          "duration": 0.03333337500001221,
          "durationTicks": 12,
          "midi": 73,
          "name": "C#5",
          "ticks": 70200,
          "time": 195.00024374999998,
          "velocity": 0.5511811023622047
        },
        {
          "duration": 0.03333337499998379,
          "durationTicks": 12,
          "midi": 72,
          "name": "C5",
          "ticks": 70212,
          "time": 195.033577125,
          "velocity": 0.5511811023622047
        },
        {
          "duration": 0.13333350000002042,
          "durationTicks": 48,
          "midi": 69,
          "name": "A4",
          "ticks": 70224,
          "time": 195.06691049999998,
          "velocity": 0.7244094488188977
        },
        {
          "duration": 0.066666749999996,
          "durationTicks": 24,
          "midi": 72,
          "name": "C5",
          "ticks": 70272,
          "time": 195.200244,
          "velocity": 0.7165354330708661
        },
        {
          "duration": 0.066666749999996,
          "durationTicks": 24,
          "midi": 74,
          "name": "D5",
          "ticks": 70296,
          "time": 195.26691075,
          "velocity": 0.7244094488188977
        },
        {
          "duration": 0.066666749999996,
          "durationTicks": 24,
          "midi": 77,
          "name": "F5",
          "ticks": 70320,
          "time": 195.3335775,
          "velocity": 0.7401574803149606
        },
        {
          "duration": 0.066666749999996,
          "durationTicks": 24,
          "midi": 79,
          "name": "G5",
          "ticks": 70344,
          "time": 195.40024425,
          "velocity": 0.7480314960629921
        },
        {
          "duration": 0.066666749999996,
          "durationTicks": 24,
          "midi": 80,
          "name": "G#5",
          "ticks": 70368,
          "time": 195.46691099999998,
          "velocity": 0.7559055118110236
        },
        {
          "duration": 0.06666675000002442,
          "durationTicks": 24,
          "midi": 81,
          "name": "A5",
          "ticks": 70392,
          "time": 195.53357774999998,
          "velocity": 0.7716535433070866
        },
        {
          "duration": 0.066666749999996,
          "durationTicks": 24,
          "midi": 82,
          "name": "A#5",
          "ticks": 70416,
          "time": 195.6002445,
          "velocity": 0.7795275590551181
        },
        {
          "duration": 0.066666749999996,
          "durationTicks": 24,
          "midi": 84,
          "name": "C6",
          "ticks": 70440,
          "time": 195.66691125,
          "velocity": 0.7952755905511811
        },
        {
          "duration": 0.133333499999992,
          "durationTicks": 48,
          "midi": 86,
          "name": "D6",
          "ticks": 70464,
          "time": 195.733578,
          "velocity": 0.8031496062992126
        },
        {
          "duration": 0.03333337500001221,
          "durationTicks": 12,
          "midi": 87,
          "name": "D#6",
          "ticks": 70512,
          "time": 195.8669115,
          "velocity": 0.5511811023622047
        },
        {
          "duration": 0.03333337499998379,
          "durationTicks": 12,
          "midi": 86,
          "name": "D6",
          "ticks": 70524,
          "time": 195.900244875,
          "velocity": 0.5511811023622047
        },
        {
          "duration": 0.03333337500001221,
          "durationTicks": 12,
          "midi": 87,
          "name": "D#6",
          "ticks": 70536,
          "time": 195.93357824999998,
          "velocity": 0.5511811023622047
        },
        {
          "duration": 0.03333337499998379,
          "durationTicks": 12,
          "midi": 86,
          "name": "D6",
          "ticks": 70548,
          "time": 195.966911625,
          "velocity": 0.5511811023622047
        },
        {
          "duration": 0.03333337500001221,
          "durationTicks": 12,
          "midi": 87,
          "name": "D#6",
          "ticks": 70560,
          "time": 196.00024499999998,
          "velocity": 0.5511811023622047
        },
        {
          "duration": 0.2666670000000124,
          "durationTicks": 96,
          "midi": 67,
          "name": "G4",
          "ticks": 70560,
          "time": 196.00024499999998,
          "velocity": 0.7244094488188977
        },
        {
          "duration": 0.03333337500001221,
          "durationTicks": 12,
          "midi": 86,
          "name": "D6",
          "ticks": 70572,
          "time": 196.033578375,
          "velocity": 0.5511811023622047
        },
        {
          "duration": 0.03333337499998379,
          "durationTicks": 12,
          "midi": 87,
          "name": "D#6",
          "ticks": 70584,
          "time": 196.06691175,
          "velocity": 0.5511811023622047
        },
        {
          "duration": 0.03333337500001221,
          "durationTicks": 12,
          "midi": 86,
          "name": "D6",
          "ticks": 70596,
          "time": 196.100245125,
          "velocity": 0.5511811023622047
        },
        {
          "duration": 0.03333337500001221,
          "durationTicks": 12,
          "midi": 77,
          "name": "F5",
          "ticks": 70656,
          "time": 196.266912,
          "velocity": 0.7244094488188977
        },
        {
          "duration": 0.1166668125000001,
          "durationTicks": 42,
          "midi": 79,
          "name": "G5",
          "ticks": 70662,
          "time": 196.28357868749998,
          "velocity": 0.7244094488188977
        },
        {
          "duration": 0.03333337500001221,
          "durationTicks": 12,
          "midi": 80,
          "name": "G#5",
          "ticks": 70704,
          "time": 196.40024549999998,
          "velocity": 0.5511811023622047
        },
        {
          "duration": 0.03333337499998379,
          "durationTicks": 12,
          "midi": 79,
          "name": "G5",
          "ticks": 70716,
          "time": 196.433578875,
          "velocity": 0.5511811023622047
        },
        {
          "duration": 0.03333337500001221,
          "durationTicks": 12,
          "midi": 80,
          "name": "G#5",
          "ticks": 70728,
          "time": 196.46691224999998,
          "velocity": 0.5511811023622047
        },
        {
          "duration": 0.03333337500001221,
          "durationTicks": 12,
          "midi": 79,
          "name": "G5",
          "ticks": 70740,
          "time": 196.500245625,
          "velocity": 0.5511811023622047
        },
        {
          "duration": 0.03333337499998379,
          "durationTicks": 12,
          "midi": 80,
          "name": "G#5",
          "ticks": 70752,
          "time": 196.533579,
          "velocity": 0.5511811023622047
        },
        {
          "duration": 0.03333337500001221,
          "durationTicks": 12,
          "midi": 79,
          "name": "G5",
          "ticks": 70764,
          "time": 196.566912375,
          "velocity": 0.5511811023622047
        },
        {
          "duration": 0.03333337499998379,
          "durationTicks": 12,
          "midi": 80,
          "name": "G#5",
          "ticks": 70776,
          "time": 196.60024575,
          "velocity": 0.5511811023622047
        },
        {
          "duration": 0.03333337500001221,
          "durationTicks": 12,
          "midi": 79,
          "name": "G5",
          "ticks": 70788,
          "time": 196.63357912499998,
          "velocity": 0.5511811023622047
        },
        {
          "duration": 0.133333499999992,
          "durationTicks": 48,
          "midi": 74,
          "name": "D5",
          "ticks": 70800,
          "time": 196.6669125,
          "velocity": 0.7244094488188977
        },
        {
          "duration": 0.133333499999992,
          "durationTicks": 48,
          "midi": 72,
          "name": "C5",
          "ticks": 70848,
          "time": 196.800246,
          "velocity": 0.7244094488188977
        },
        {
          "duration": 0.03333337500001221,
          "durationTicks": 12,
          "midi": 73,
          "name": "C#5",
          "ticks": 70896,
          "time": 196.93357949999998,
          "velocity": 0.5511811023622047
        },
        {
          "duration": 0.03333337500001221,
          "durationTicks": 12,
          "midi": 72,
          "name": "C5",
          "ticks": 70908,
          "time": 196.966912875,
          "velocity": 0.5511811023622047
        },
        {
          "duration": 0.03333337499998379,
          "durationTicks": 12,
          "midi": 73,
          "name": "C#5",
          "ticks": 70920,
          "time": 197.00024625,
          "velocity": 0.5511811023622047
        },
        {
          "duration": 0.03333337500001221,
          "durationTicks": 12,
          "midi": 72,
          "name": "C5",
          "ticks": 70932,
          "time": 197.033579625,
          "velocity": 0.5511811023622047
        },
        {
          "duration": 0.03333337499998379,
          "durationTicks": 12,
          "midi": 73,
          "name": "C#5",
          "ticks": 70944,
          "time": 197.066913,
          "velocity": 0.5511811023622047
        },
        {
          "duration": 0.03333337500001221,
          "durationTicks": 12,
          "midi": 72,
          "name": "C5",
          "ticks": 70956,
          "time": 197.10024637499998,
          "velocity": 0.5511811023622047
        },
        {
          "duration": 0.03333337499998379,
          "durationTicks": 12,
          "midi": 73,
          "name": "C#5",
          "ticks": 70968,
          "time": 197.13357975,
          "velocity": 0.5511811023622047
        },
        {
          "duration": 0.03333337500001221,
          "durationTicks": 12,
          "midi": 72,
          "name": "C5",
          "ticks": 70980,
          "time": 197.16691312499998,
          "velocity": 0.5511811023622047
        },
        {
          "duration": 0.133333499999992,
          "durationTicks": 48,
          "midi": 70,
          "name": "A#4",
          "ticks": 70992,
          "time": 197.2002465,
          "velocity": 0.7244094488188977
        },
        {
          "duration": 0.13333350000002042,
          "durationTicks": 48,
          "midi": 72,
          "name": "C5",
          "ticks": 71040,
          "time": 197.33357999999998,
          "velocity": 0.7244094488188977
        },
        {
          "duration": 0.03333337499998379,
          "durationTicks": 12,
          "midi": 73,
          "name": "C#5",
          "ticks": 71088,
          "time": 197.4669135,
          "velocity": 0.5118110236220472
        },
        {
          "duration": 0.03333337500001221,
          "durationTicks": 12,
          "midi": 72,
          "name": "C5",
          "ticks": 71100,
          "time": 197.500246875,
          "velocity": 0.5118110236220472
        },
        {
          "duration": 0.03333337499998379,
          "durationTicks": 12,
          "midi": 73,
          "name": "C#5",
          "ticks": 71112,
          "time": 197.53358025,
          "velocity": 0.5118110236220472
        },
        {
          "duration": 0.03333337500001221,
          "durationTicks": 12,
          "midi": 72,
          "name": "C5",
          "ticks": 71124,
          "time": 197.56691362499998,
          "velocity": 0.5118110236220472
        },
        {
          "duration": 0.133333499999992,
          "durationTicks": 48,
          "midi": 75,
          "name": "D#5",
          "ticks": 71136,
          "time": 197.600247,
          "velocity": 0.7244094488188977
        },
        {
          "duration": 0.03333337500001221,
          "durationTicks": 12,
          "midi": 76,
          "name": "E5",
          "ticks": 71184,
          "time": 197.7335805,
          "velocity": 0.5118110236220472
        },
        {
          "duration": 0.03333337499998379,
          "durationTicks": 12,
          "midi": 75,
          "name": "D#5",
          "ticks": 71196,
          "time": 197.766913875,
          "velocity": 0.5118110236220472
        },
        {
          "duration": 0.03333337500001221,
          "durationTicks": 12,
          "midi": 76,
          "name": "E5",
          "ticks": 71208,
          "time": 197.80024724999998,
          "velocity": 0.5511811023622047
        },
        {
          "duration": 0.03333337499998379,
          "durationTicks": 12,
          "midi": 75,
          "name": "D#5",
          "ticks": 71220,
          "time": 197.833580625,
          "velocity": 0.5511811023622047
        },
        {
          "duration": 0.13333350000002042,
          "durationTicks": 48,
          "midi": 74,
          "name": "D5",
          "ticks": 71232,
          "time": 197.86691399999998,
          "velocity": 0.7244094488188977
        },
        {
          "duration": 0.03333337499998379,
          "durationTicks": 12,
          "midi": 75,
          "name": "D#5",
          "ticks": 71280,
          "time": 198.0002475,
          "velocity": 0.5511811023622047
        },
        {
          "duration": 0.03333337500001221,
          "durationTicks": 12,
          "midi": 74,
          "name": "D5",
          "ticks": 71292,
          "time": 198.03358087499998,
          "velocity": 0.5511811023622047
        },
        {
          "duration": 0.03333337499998379,
          "durationTicks": 12,
          "midi": 75,
          "name": "D#5",
          "ticks": 71304,
          "time": 198.06691425,
          "velocity": 0.5511811023622047
        },
        {
          "duration": 0.03333337500001221,
          "durationTicks": 12,
          "midi": 74,
          "name": "D5",
          "ticks": 71316,
          "time": 198.10024762499998,
          "velocity": 0.5511811023622047
        },
        {
          "duration": 0.266666999999984,
          "durationTicks": 96,
          "midi": 67,
          "name": "G4",
          "ticks": 71328,
          "time": 198.133581,
          "velocity": 0.7244094488188977
        },
        {
          "duration": 0.03333337500001221,
          "durationTicks": 12,
          "midi": 77,
          "name": "F5",
          "ticks": 71424,
          "time": 198.40024799999998,
          "velocity": 0.7244094488188977
        },
        {
          "duration": 0.1166668125000001,
          "durationTicks": 42,
          "midi": 79,
          "name": "G5",
          "ticks": 71430,
          "time": 198.4169146875,
          "velocity": 0.7244094488188977
        },
        {
          "duration": 0.03333337499998379,
          "durationTicks": 12,
          "midi": 80,
          "name": "G#5",
          "ticks": 71472,
          "time": 198.5335815,
          "velocity": 0.5511811023622047
        },
        {
          "duration": 0.03333337500001221,
          "durationTicks": 12,
          "midi": 79,
          "name": "G5",
          "ticks": 71484,
          "time": 198.56691487499998,
          "velocity": 0.5511811023622047
        },
        {
          "duration": 0.03333337499998379,
          "durationTicks": 12,
          "midi": 80,
          "name": "G#5",
          "ticks": 71496,
          "time": 198.60024825,
          "velocity": 0.5511811023622047
        },
        {
          "duration": 0.03333337500001221,
          "durationTicks": 12,
          "midi": 79,
          "name": "G5",
          "ticks": 71508,
          "time": 198.63358162499998,
          "velocity": 0.5511811023622047
        },
        {
          "duration": 0.03333337500001221,
          "durationTicks": 12,
          "midi": 80,
          "name": "G#5",
          "ticks": 71520,
          "time": 198.666915,
          "velocity": 0.5511811023622047
        },
        {
          "duration": 0.03333337499998379,
          "durationTicks": 12,
          "midi": 79,
          "name": "G5",
          "ticks": 71532,
          "time": 198.700248375,
          "velocity": 0.5511811023622047
        },
        {
          "duration": 0.03333337500001221,
          "durationTicks": 12,
          "midi": 80,
          "name": "G#5",
          "ticks": 71544,
          "time": 198.73358174999998,
          "velocity": 0.5511811023622047
        },
        {
          "duration": 0.03333337499998379,
          "durationTicks": 12,
          "midi": 79,
          "name": "G5",
          "ticks": 71556,
          "time": 198.766915125,
          "velocity": 0.5511811023622047
        },
        {
          "duration": 0.13333350000002042,
          "durationTicks": 48,
          "midi": 74,
          "name": "D5",
          "ticks": 71568,
          "time": 198.80024849999998,
          "velocity": 0.7244094488188977
        },
        {
          "duration": 0.133333499999992,
          "durationTicks": 48,
          "midi": 72,
          "name": "C5",
          "ticks": 71616,
          "time": 198.933582,
          "velocity": 0.7244094488188977
        },
        {
          "duration": 0.03333337499998379,
          "durationTicks": 12,
          "midi": 73,
          "name": "C#5",
          "ticks": 71664,
          "time": 199.0669155,
          "velocity": 0.5511811023622047
        },
        {
          "duration": 0.03333337500001221,
          "durationTicks": 12,
          "midi": 72,
          "name": "C5",
          "ticks": 71676,
          "time": 199.10024887499998,
          "velocity": 0.5511811023622047
        },
        {
          "duration": 0.03333337500001221,
          "durationTicks": 12,
          "midi": 73,
          "name": "C#5",
          "ticks": 71688,
          "time": 199.13358225,
          "velocity": 0.5511811023622047
        },
        {
          "duration": 0.03333337499998379,
          "durationTicks": 12,
          "midi": 72,
          "name": "C5",
          "ticks": 71700,
          "time": 199.166915625,
          "velocity": 0.5511811023622047
        },
        {
          "duration": 0.03333337500001221,
          "durationTicks": 12,
          "midi": 73,
          "name": "C#5",
          "ticks": 71712,
          "time": 199.20024899999999,
          "velocity": 0.5511811023622047
        },
        {
          "duration": 0.03333337499998379,
          "durationTicks": 12,
          "midi": 72,
          "name": "C5",
          "ticks": 71724,
          "time": 199.233582375,
          "velocity": 0.5511811023622047
        },
        {
          "duration": 0.03333337500001221,
          "durationTicks": 12,
          "midi": 73,
          "name": "C#5",
          "ticks": 71736,
          "time": 199.26691574999998,
          "velocity": 0.5511811023622047
        },
        {
          "duration": 0.03333337499998379,
          "durationTicks": 12,
          "midi": 72,
          "name": "C5",
          "ticks": 71748,
          "time": 199.300249125,
          "velocity": 0.5511811023622047
        },
        {
          "duration": 0.13333350000002042,
          "durationTicks": 48,
          "midi": 69,
          "name": "A4",
          "ticks": 71760,
          "time": 199.33358249999998,
          "velocity": 0.7244094488188977
        },
        {
          "duration": 0.133333499999992,
          "durationTicks": 48,
          "midi": 72,
          "name": "C5",
          "ticks": 71808,
          "time": 199.466916,
          "velocity": 0.7244094488188977
        },
        {
          "duration": 0.03333337500001221,
          "durationTicks": 12,
          "midi": 73,
          "name": "C#5",
          "ticks": 71856,
          "time": 199.6002495,
          "velocity": 0.5511811023622047
        },
        {
          "duration": 0.03333337499998379,
          "durationTicks": 12,
          "midi": 72,
          "name": "C5",
          "ticks": 71868,
          "time": 199.633582875,
          "velocity": 0.5511811023622047
        },
        {
          "duration": 0.03333337500001221,
          "durationTicks": 12,
          "midi": 73,
          "name": "C#5",
          "ticks": 71880,
          "time": 199.66691624999999,
          "velocity": 0.5511811023622047
        },
        {
          "duration": 0.03333337499998379,
          "durationTicks": 12,
          "midi": 72,
          "name": "C5",
          "ticks": 71892,
          "time": 199.700249625,
          "velocity": 0.5511811023622047
        },
        {
          "duration": 0.13333350000002042,
          "durationTicks": 48,
          "midi": 70,
          "name": "A#4",
          "ticks": 71904,
          "time": 199.73358299999998,
          "velocity": 0.7244094488188977
        },
        {
          "duration": 0.133333499999992,
          "durationTicks": 48,
          "midi": 69,
          "name": "A4",
          "ticks": 71952,
          "time": 199.8669165,
          "velocity": 0.7244094488188977
        },
        {
          "duration": 0.266666999999984,
          "durationTicks": 96,
          "midi": 70,
          "name": "A#4",
          "ticks": 72000,
          "time": 200.00025,
          "velocity": 0.7244094488188977
        },
        {
          "duration": 0.2666670000000124,
          "durationTicks": 96,
          "midi": 67,
          "name": "G4",
          "ticks": 72096,
          "time": 200.26691699999998,
          "velocity": 0.7244094488188977
        },
        {
          "duration": 0.03333337500001221,
          "durationTicks": 12,
          "midi": 77,
          "name": "F5",
          "ticks": 72192,
          "time": 200.533584,
          "velocity": 0.7244094488188977
        },
        {
          "duration": 0.1166668125000001,
          "durationTicks": 42,
          "midi": 79,
          "name": "G5",
          "ticks": 72198,
          "time": 200.55025068749998,
          "velocity": 0.7244094488188977
        },
        {
          "duration": 0.03333337500001221,
          "durationTicks": 12,
          "midi": 80,
          "name": "G#5",
          "ticks": 72240,
          "time": 200.66691749999998,
          "velocity": 0.5511811023622047
        },
        {
          "duration": 0.03333337499998379,
          "durationTicks": 12,
          "midi": 79,
          "name": "G5",
          "ticks": 72252,
          "time": 200.700250875,
          "velocity": 0.5511811023622047
        },
        {
          "duration": 0.03333337500001221,
          "durationTicks": 12,
          "midi": 80,
          "name": "G#5",
          "ticks": 72264,
          "time": 200.73358424999998,
          "velocity": 0.5511811023622047
        },
        {
          "duration": 0.03333337500001221,
          "durationTicks": 12,
          "midi": 79,
          "name": "G5",
          "ticks": 72276,
          "time": 200.766917625,
          "velocity": 0.5511811023622047
        },
        {
          "duration": 0.03333337499998379,
          "durationTicks": 12,
          "midi": 80,
          "name": "G#5",
          "ticks": 72288,
          "time": 200.800251,
          "velocity": 0.5511811023622047
        },
        {
          "duration": 0.03333337500001221,
          "durationTicks": 12,
          "midi": 79,
          "name": "G5",
          "ticks": 72300,
          "time": 200.833584375,
          "velocity": 0.5511811023622047
        },
        {
          "duration": 0.03333337499998379,
          "durationTicks": 12,
          "midi": 80,
          "name": "G#5",
          "ticks": 72312,
          "time": 200.86691775,
          "velocity": 0.5511811023622047
        },
        {
          "duration": 0.03333337500001221,
          "durationTicks": 12,
          "midi": 79,
          "name": "G5",
          "ticks": 72324,
          "time": 200.90025112499998,
          "velocity": 0.5511811023622047
        },
        {
          "duration": 0.133333499999992,
          "durationTicks": 48,
          "midi": 74,
          "name": "D5",
          "ticks": 72336,
          "time": 200.9335845,
          "velocity": 0.7244094488188977
        },
        {
          "duration": 0.133333499999992,
          "durationTicks": 48,
          "midi": 72,
          "name": "C5",
          "ticks": 72384,
          "time": 201.066918,
          "velocity": 0.7244094488188977
        },
        {
          "duration": 0.03333337500001221,
          "durationTicks": 12,
          "midi": 73,
          "name": "C#5",
          "ticks": 72432,
          "time": 201.20025149999998,
          "velocity": 0.5511811023622047
        },
        {
          "duration": 0.03333337500001221,
          "durationTicks": 12,
          "midi": 72,
          "name": "C5",
          "ticks": 72444,
          "time": 201.233584875,
          "velocity": 0.5511811023622047
        },
        {
          "duration": 0.03333337499998379,
          "durationTicks": 12,
          "midi": 73,
          "name": "C#5",
          "ticks": 72456,
          "time": 201.26691825,
          "velocity": 0.5511811023622047
        },
        {
          "duration": 0.03333337500001221,
          "durationTicks": 12,
          "midi": 72,
          "name": "C5",
          "ticks": 72468,
          "time": 201.300251625,
          "velocity": 0.5511811023622047
        },
        {
          "duration": 0.03333337499998379,
          "durationTicks": 12,
          "midi": 73,
          "name": "C#5",
          "ticks": 72480,
          "time": 201.333585,
          "velocity": 0.5511811023622047
        },
        {
          "duration": 0.03333337500001221,
          "durationTicks": 12,
          "midi": 72,
          "name": "C5",
          "ticks": 72492,
          "time": 201.36691837499998,
          "velocity": 0.5511811023622047
        },
        {
          "duration": 0.03333337499998379,
          "durationTicks": 12,
          "midi": 73,
          "name": "C#5",
          "ticks": 72504,
          "time": 201.40025175,
          "velocity": 0.5511811023622047
        },
        {
          "duration": 0.03333337500001221,
          "durationTicks": 12,
          "midi": 72,
          "name": "C5",
          "ticks": 72516,
          "time": 201.43358512499998,
          "velocity": 0.5511811023622047
        },
        {
          "duration": 0.133333499999992,
          "durationTicks": 48,
          "midi": 73,
          "name": "C#5",
          "ticks": 72528,
          "time": 201.4669185,
          "velocity": 0.7244094488188977
        },
        {
          "duration": 0.13333350000002042,
          "durationTicks": 48,
          "midi": 74,
          "name": "D5",
          "ticks": 72576,
          "time": 201.60025199999998,
          "velocity": 0.7244094488188977
        },
        {
          "duration": 0.03333337499998379,
          "durationTicks": 12,
          "midi": 75,
          "name": "D#5",
          "ticks": 72624,
          "time": 201.7335855,
          "velocity": 0.5511811023622047
        },
        {
          "duration": 0.03333337500001221,
          "durationTicks": 12,
          "midi": 74,
          "name": "D5",
          "ticks": 72636,
          "time": 201.766918875,
          "velocity": 0.5511811023622047
        },
        {
          "duration": 0.03333337499998379,
          "durationTicks": 12,
          "midi": 75,
          "name": "D#5",
          "ticks": 72648,
          "time": 201.80025225,
          "velocity": 0.5511811023622047
        },
        {
          "duration": 0.03333337500001221,
          "durationTicks": 12,
          "midi": 74,
          "name": "D5",
          "ticks": 72660,
          "time": 201.83358562499998,
          "velocity": 0.5511811023622047
        },
        {
          "duration": 0.133333499999992,
          "durationTicks": 48,
          "midi": 78,
          "name": "F#5",
          "ticks": 72672,
          "time": 201.866919,
          "velocity": 0.7244094488188977
        },
        {
          "duration": 0.03333337500001221,
          "durationTicks": 12,
          "midi": 78,
          "name": "F#5",
          "ticks": 72768,
          "time": 202.13358599999998,
          "velocity": 0.7244094488188977
        },
        {
          "duration": 0.2500003124999921,
          "durationTicks": 90,
          "midi": 79,
          "name": "G5",
          "ticks": 72774,
          "time": 202.1502526875,
          "velocity": 0.7244094488188977
        }
      ],
      "endOfTrackTicks": 82491
    },
    {
      "channel": 14,
      "controlChanges": {
        "6": [
          {
            "number": 6,
            "ticks": 0,
            "time": 0,
            "value": 0.09448818897637795
          },
          {
            "number": 6,
            "ticks": 0,
            "time": 0,
            "value": 0.09448818897637795
          },
          {
            "number": 6,
            "ticks": 0,
            "time": 0,
            "value": 0.09448818897637795
          },
          {
            "number": 6,
            "ticks": 82466,
            "time": 228.45777604166662,
            "value": 0.09448818897637795
          },
          {
            "number": 6,
            "ticks": 82491,
            "time": 228.52722057291663,
            "value": 0.09448818897637795
          }
        ],
        "7": [
          {
            "number": 7,
            "ticks": 0,
            "time": 0,
            "value": 0.7874015748031497
          },
          {
            "number": 7,
            "ticks": 0,
            "time": 0,
            "value": 0.7874015748031497
          },
          {
            "number": 7,
            "ticks": 0,
            "time": 0,
            "value": 0.7874015748031497
          },
          {
            "number": 7,
            "ticks": 0,
            "time": 0,
            "value": 0.7874015748031497
          },
          {
            "number": 7,
            "ticks": 82466,
            "time": 228.45777604166662,
            "value": 0.7874015748031497
          },
          {
            "number": 7,
            "ticks": 82491,
            "time": 228.52722057291663,
            "value": 0.7874015748031497
          }
        ],
        "10": [
          {
            "number": 10,
            "ticks": 0,
            "time": 0,
            "value": 0.5039370078740157
          },
          {
            "number": 10,
            "ticks": 0,
            "time": 0,
            "value": 0.5039370078740157
          },
          {
            "number": 10,
            "ticks": 0,
            "time": 0,
            "value": 0.5039370078740157
          },
          {
            "number": 10,
            "ticks": 0,
            "time": 0,
            "value": 0.5039370078740157
          },
          {
            "number": 10,
            "ticks": 82466,
            "time": 228.45777604166662,
            "value": 0.5039370078740157
          },
          {
            "number": 10,
            "ticks": 82491,
            "time": 228.52722057291663,
            "value": 0.5039370078740157
          }
        ],
        "100": [
          {
            "number": 100,
            "ticks": 0,
            "time": 0,
            "value": 0
          },
          {
            "number": 100,
            "ticks": 0,
            "time": 0,
            "value": 0
          },
          {
            "number": 100,
            "ticks": 0,
            "time": 0,
            "value": 0
          },
          {
            "number": 100,
            "ticks": 82466,
            "time": 228.45777604166662,
            "value": 0
          },
          {
            "number": 100,
            "ticks": 82491,
            "time": 228.52722057291663,
            "value": 0
          }
        ],
        "101": [
          {
            "number": 101,
            "ticks": 0,
            "time": 0,
            "value": 0
          },
          {
            "number": 101,
            "ticks": 0,
            "time": 0,
            "value": 0
          },
          {
            "number": 101,
            "ticks": 0,
            "time": 0,
            "value": 0
          },
          {
            "number": 101,
            "ticks": 82466,
            "time": 228.45777604166662,
            "value": 0
          },
          {
            "number": 101,
            "ticks": 82491,
            "time": 228.52722057291663,
            "value": 0
          }
        ]
      },
      "pitchBends": [
        {
          "ticks": 0,
          "time": 0,
          "value": 0
        },
        {
          "ticks": 0,
          "time": 0,
          "value": 0
        },
        {
          "ticks": 0,
          "time": 0,
          "value": 0
        },
        {
          "ticks": 0,
          "time": 0,
          "value": 0
        },
        {
          "ticks": 82466,
          "time": 228.45777604166662,
          "value": 0
        },
        {
          "ticks": 82491,
          "time": 228.52722057291663,
          "value": 0
        }
      ],
      "instrument": {
        "family": "piano",
        "number": 0,
        "name": "acoustic grand piano"
      },
      "name": "Dist",
      "notes": [
        {
          "duration": 0.011111124999999333,
          "durationTicks": 4,
          "midi": 27,
          "name": "D#1",
          "ticks": 3072,
          "time": 8.533344,
          "velocity": 0.5669291338582677
        },
        {
          "duration": 0.01111112500000111,
          "durationTicks": 4,
          "midi": 27,
          "name": "D#1",
          "ticks": 3088,
          "time": 8.577788499999999,
          "velocity": 0.5669291338582677
        },
        {
          "duration": 0.011111124999999333,
          "durationTicks": 4,
          "midi": 27,
          "name": "D#1",
          "ticks": 3104,
          "time": 8.622233,
          "velocity": 0.5669291338582677
        },
        {
          "duration": 0.01111112500000111,
          "durationTicks": 4,
          "midi": 27,
          "name": "D#1",
          "ticks": 3120,
          "time": 8.666677499999999,
          "velocity": 0.5669291338582677
        },
        {
          "duration": 0.01111112500000111,
          "durationTicks": 4,
          "midi": 27,
          "name": "D#1",
          "ticks": 3136,
          "time": 8.711122,
          "velocity": 0.5669291338582677
        },
        {
          "duration": 0.011111124999999333,
          "durationTicks": 4,
          "midi": 27,
          "name": "D#1",
          "ticks": 3152,
          "time": 8.7555665,
          "velocity": 0.5669291338582677
        },
        {
          "duration": 0.011111124999999333,
          "durationTicks": 4,
          "midi": 46,
          "name": "A#2",
          "ticks": 3168,
          "time": 8.800011,
          "velocity": 0.8188976377952756
        },
        {
          "duration": 0.011111124999999333,
          "durationTicks": 4,
          "midi": 34,
          "name": "A#1",
          "ticks": 3168,
          "time": 8.800011,
          "velocity": 0.8188976377952756
        },
        {
          "duration": 0.011111124999999333,
          "durationTicks": 4,
          "midi": 34,
          "name": "A#1",
          "ticks": 3192,
          "time": 8.86667775,
          "velocity": 0.8188976377952756
        },
        {
          "duration": 0.011111124999999333,
          "durationTicks": 4,
          "midi": 46,
          "name": "A#2",
          "ticks": 3192,
          "time": 8.86667775,
          "velocity": 0.8188976377952756
        },
        {
          "duration": 0.011111124999999333,
          "durationTicks": 4,
          "midi": 34,
          "name": "A#1",
          "ticks": 3216,
          "time": 8.9333445,
          "velocity": 0.8188976377952756
        },
        {
          "duration": 0.011111124999999333,
          "durationTicks": 4,
          "midi": 46,
          "name": "A#2",
          "ticks": 3216,
          "time": 8.9333445,
          "velocity": 0.8188976377952756
        },
        {
          "duration": 0.011111124999999333,
          "durationTicks": 4,
          "midi": 46,
          "name": "A#2",
          "ticks": 3240,
          "time": 9.00001125,
          "velocity": 0.8188976377952756
        },
        {
          "duration": 0.011111124999999333,
          "durationTicks": 4,
          "midi": 34,
          "name": "A#1",
          "ticks": 3240,
          "time": 9.00001125,
          "velocity": 0.8188976377952756
        },
        {
          "duration": 0.1333334999999991,
          "durationTicks": 48,
          "midi": 27,
          "name": "D#1",
          "ticks": 6528,
          "time": 18.133356,
          "velocity": 0.8110236220472441
        },
        {
          "duration": 0.1333334999999991,
          "durationTicks": 48,
          "midi": 39,
          "name": "D#2",
          "ticks": 6528,
          "time": 18.133356,
          "velocity": 0.6771653543307087
        },
        {
          "duration": 0.06666674999999955,
          "durationTicks": 24,
          "midi": 27,
          "name": "D#1",
          "ticks": 6768,
          "time": 18.800023499999998,
          "velocity": 0.8110236220472441
        },
        {
          "duration": 0.06666674999999955,
          "durationTicks": 24,
          "midi": 39,
          "name": "D#2",
          "ticks": 6768,
          "time": 18.800023499999998,
          "velocity": 0.6771653543307087
        },
        {
          "duration": 0.06666674999999955,
          "durationTicks": 24,
          "midi": 27,
          "name": "D#1",
          "ticks": 6816,
          "time": 18.933357,
          "velocity": 0.8110236220472441
        },
        {
          "duration": 0.06666674999999955,
          "durationTicks": 24,
          "midi": 39,
          "name": "D#2",
          "ticks": 6816,
          "time": 18.933357,
          "velocity": 0.6771653543307087
        },
        {
          "duration": 0.0666667500000031,
          "durationTicks": 24,
          "midi": 27,
          "name": "D#1",
          "ticks": 7008,
          "time": 19.466690999999997,
          "velocity": 0.8110236220472441
        },
        {
          "duration": 0.0666667500000031,
          "durationTicks": 24,
          "midi": 39,
          "name": "D#2",
          "ticks": 7008,
          "time": 19.466690999999997,
          "velocity": 0.6771653543307087
        },
        {
          "duration": 0.022222249999998667,
          "durationTicks": 8,
          "midi": 39,
          "name": "D#2",
          "ticks": 7296,
          "time": 20.266692,
          "velocity": 0.6771653543307087
        },
        {
          "duration": 0.022222249999998667,
          "durationTicks": 8,
          "midi": 27,
          "name": "D#1",
          "ticks": 7296,
          "time": 20.266692,
          "velocity": 0.8110236220472441
        },
        {
          "duration": 0.022222249999998667,
          "durationTicks": 8,
          "midi": 27,
          "name": "D#1",
          "ticks": 7320,
          "time": 20.33335875,
          "velocity": 0.8110236220472441
        },
        {
          "duration": 0.022222249999998667,
          "durationTicks": 8,
          "midi": 39,
          "name": "D#2",
          "ticks": 7320,
          "time": 20.33335875,
          "velocity": 0.6771653543307087
        },
        {
          "duration": 0.022222249999998667,
          "durationTicks": 8,
          "midi": 27,
          "name": "D#1",
          "ticks": 7344,
          "time": 20.400025499999998,
          "velocity": 0.8110236220472441
        },
        {
          "duration": 0.022222249999998667,
          "durationTicks": 8,
          "midi": 39,
          "name": "D#2",
          "ticks": 7344,
          "time": 20.400025499999998,
          "velocity": 0.6771653543307087
        },
        {
          "duration": 0.022222249999998667,
          "durationTicks": 8,
          "midi": 27,
          "name": "D#1",
          "ticks": 7368,
          "time": 20.466692249999998,
          "velocity": 0.8110236220472441
        },
        {
          "duration": 0.022222249999998667,
          "durationTicks": 8,
          "midi": 39,
          "name": "D#2",
          "ticks": 7368,
          "time": 20.466692249999998,
          "velocity": 0.6771653543307087
        },
        {
          "duration": 0.0666667500000031,
          "durationTicks": 24,
          "midi": 39,
          "name": "D#2",
          "ticks": 7392,
          "time": 20.533358999999997,
          "velocity": 0.6771653543307087
        },
        {
          "duration": 0.0666667500000031,
          "durationTicks": 24,
          "midi": 27,
          "name": "D#1",
          "ticks": 7392,
          "time": 20.533358999999997,
          "velocity": 0.8110236220472441
        },
        {
          "duration": 0.06666674999999955,
          "durationTicks": 24,
          "midi": 27,
          "name": "D#1",
          "ticks": 7536,
          "time": 20.933359499999998,
          "velocity": 0.8110236220472441
        },
        {
          "duration": 0.06666674999999955,
          "durationTicks": 24,
          "midi": 39,
          "name": "D#2",
          "ticks": 7536,
          "time": 20.933359499999998,
          "velocity": 0.6771653543307087
        },
        {
          "duration": 0.06666674999999955,
          "durationTicks": 24,
          "midi": 27,
          "name": "D#1",
          "ticks": 7584,
          "time": 21.066693,
          "velocity": 0.8110236220472441
        },
        {
          "duration": 0.06666674999999955,
          "durationTicks": 24,
          "midi": 39,
          "name": "D#2",
          "ticks": 7584,
          "time": 21.066693,
          "velocity": 0.6771653543307087
        },
        {
          "duration": 0.0666667500000031,
          "durationTicks": 24,
          "midi": 39,
          "name": "D#2",
          "ticks": 7776,
          "time": 21.600026999999997,
          "velocity": 0.6771653543307087
        },
        {
          "duration": 0.0666667500000031,
          "durationTicks": 24,
          "midi": 27,
          "name": "D#1",
          "ticks": 7776,
          "time": 21.600026999999997,
          "velocity": 0.8110236220472441
        },
        {
          "duration": 0.1333334999999991,
          "durationTicks": 48,
          "midi": 27,
          "name": "D#1",
          "ticks": 8064,
          "time": 22.400028,
          "velocity": 0.8110236220472441
        },
        {
          "duration": 0.1333334999999991,
          "durationTicks": 48,
          "midi": 39,
          "name": "D#2",
          "ticks": 8064,
          "time": 22.400028,
          "velocity": 0.6771653543307087
        },
        {
          "duration": 0.06666674999999955,
          "durationTicks": 24,
          "midi": 39,
          "name": "D#2",
          "ticks": 8304,
          "time": 23.066695499999998,
          "velocity": 0.6771653543307087
        },
        {
          "duration": 0.06666674999999955,
          "durationTicks": 24,
          "midi": 27,
          "name": "D#1",
          "ticks": 8304,
          "time": 23.066695499999998,
          "velocity": 0.8110236220472441
        },
        {
          "duration": 0.06666674999999955,
          "durationTicks": 24,
          "midi": 39,
          "name": "D#2",
          "ticks": 8352,
          "time": 23.200029,
          "velocity": 0.6771653543307087
        },
        {
          "duration": 0.06666674999999955,
          "durationTicks": 24,
          "midi": 27,
          "name": "D#1",
          "ticks": 8352,
          "time": 23.200029,
          "velocity": 0.8110236220472441
        },
        {
          "duration": 0.0666667500000031,
          "durationTicks": 24,
          "midi": 39,
          "name": "D#2",
          "ticks": 8544,
          "time": 23.733362999999997,
          "velocity": 0.6771653543307087
        },
        {
          "duration": 0.0666667500000031,
          "durationTicks": 24,
          "midi": 27,
          "name": "D#1",
          "ticks": 8544,
          "time": 23.733362999999997,
          "velocity": 0.8110236220472441
        },
        {
          "duration": 0.022222249999998667,
          "durationTicks": 8,
          "midi": 42,
          "name": "F#2",
          "ticks": 8832,
          "time": 24.533364,
          "velocity": 0.6771653543307087
        },
        {
          "duration": 0.022222249999998667,
          "durationTicks": 8,
          "midi": 30,
          "name": "F#1",
          "ticks": 8832,
          "time": 24.533364,
          "velocity": 0.8110236220472441
        },
        {
          "duration": 0.022222249999998667,
          "durationTicks": 8,
          "midi": 30,
          "name": "F#1",
          "ticks": 8856,
          "time": 24.60003075,
          "velocity": 0.8110236220472441
        },
        {
          "duration": 0.022222249999998667,
          "durationTicks": 8,
          "midi": 42,
          "name": "F#2",
          "ticks": 8856,
          "time": 24.60003075,
          "velocity": 0.6771653543307087
        },
        {
          "duration": 0.022222249999998667,
          "durationTicks": 8,
          "midi": 42,
          "name": "F#2",
          "ticks": 8880,
          "time": 24.666697499999998,
          "velocity": 0.6771653543307087
        },
        {
          "duration": 0.022222249999998667,
          "durationTicks": 8,
          "midi": 30,
          "name": "F#1",
          "ticks": 8880,
          "time": 24.666697499999998,
          "velocity": 0.8110236220472441
        },
        {
          "duration": 0.022222249999998667,
          "durationTicks": 8,
          "midi": 30,
          "name": "F#1",
          "ticks": 8904,
          "time": 24.733364249999997,
          "velocity": 0.8110236220472441
        },
        {
          "duration": 0.022222249999998667,
          "durationTicks": 8,
          "midi": 42,
          "name": "F#2",
          "ticks": 8904,
          "time": 24.733364249999997,
          "velocity": 0.6771653543307087
        },
        {
          "duration": 0.0666667500000031,
          "durationTicks": 24,
          "midi": 30,
          "name": "F#1",
          "ticks": 8928,
          "time": 24.800030999999997,
          "velocity": 0.8110236220472441
        },
        {
          "duration": 0.0666667500000031,
          "durationTicks": 24,
          "midi": 42,
          "name": "F#2",
          "ticks": 8928,
          "time": 24.800030999999997,
          "velocity": 0.6771653543307087
        },
        {
          "duration": 0.06666674999999955,
          "durationTicks": 24,
          "midi": 29,
          "name": "F1",
          "ticks": 9072,
          "time": 25.200031499999998,
          "velocity": 0.8110236220472441
        },
        {
          "duration": 0.06666674999999955,
          "durationTicks": 24,
          "midi": 41,
          "name": "F2",
          "ticks": 9072,
          "time": 25.200031499999998,
          "velocity": 0.6771653543307087
        },
        {
          "duration": 0.06666674999999955,
          "durationTicks": 24,
          "midi": 29,
          "name": "F1",
          "ticks": 9120,
          "time": 25.333365,
          "velocity": 0.8110236220472441
        },
        {
          "duration": 0.06666674999999955,
          "durationTicks": 24,
          "midi": 41,
          "name": "F2",
          "ticks": 9120,
          "time": 25.333365,
          "velocity": 0.6771653543307087
        },
        {
          "duration": 0.0666667500000031,
          "durationTicks": 24,
          "midi": 44,
          "name": "G#2",
          "ticks": 9312,
          "time": 25.866698999999997,
          "velocity": 0.6771653543307087
        },
        {
          "duration": 0.0666667500000031,
          "durationTicks": 24,
          "midi": 32,
          "name": "G#1",
          "ticks": 9312,
          "time": 25.866698999999997,
          "velocity": 0.8110236220472441
        },
        {
          "duration": 0.06666674999999955,
          "durationTicks": 24,
          "midi": 34,
          "name": "A#1",
          "ticks": 9408,
          "time": 26.133366,
          "velocity": 0.8110236220472441
        },
        {
          "duration": 0.06666674999999955,
          "durationTicks": 24,
          "midi": 46,
          "name": "A#2",
          "ticks": 9408,
          "time": 26.133366,
          "velocity": 0.6771653543307087
        },
        {
          "duration": 0.06666674999999955,
          "durationTicks": 24,
          "midi": 27,
          "name": "D#1",
          "ticks": 9840,
          "time": 27.333367499999998,
          "velocity": 0.8110236220472441
        },
        {
          "duration": 0.06666674999999955,
          "durationTicks": 24,
          "midi": 39,
          "name": "D#2",
          "ticks": 9840,
          "time": 27.333367499999998,
          "velocity": 0.6771653543307087
        },
        {
          "duration": 0.06666674999999955,
          "durationTicks": 24,
          "midi": 39,
          "name": "D#2",
          "ticks": 9888,
          "time": 27.466701,
          "velocity": 0.6771653543307087
        },
        {
          "duration": 0.06666674999999955,
          "durationTicks": 24,
          "midi": 27,
          "name": "D#1",
          "ticks": 9888,
          "time": 27.466701,
          "velocity": 0.8110236220472441
        },
        {
          "duration": 0.0666667500000031,
          "durationTicks": 24,
          "midi": 39,
          "name": "D#2",
          "ticks": 10080,
          "time": 28.000034999999997,
          "velocity": 0.6771653543307087
        },
        {
          "duration": 0.0666667500000031,
          "durationTicks": 24,
          "midi": 27,
          "name": "D#1",
          "ticks": 10080,
          "time": 28.000034999999997,
          "velocity": 0.8110236220472441
        },
        {
          "duration": 0.022222249999998667,
          "durationTicks": 8,
          "midi": 27,
          "name": "D#1",
          "ticks": 10368,
          "time": 28.800036,
          "velocity": 0.8110236220472441
        },
        {
          "duration": 0.022222249999998667,
          "durationTicks": 8,
          "midi": 39,
          "name": "D#2",
          "ticks": 10368,
          "time": 28.800036,
          "velocity": 0.6771653543307087
        },
        {
          "duration": 0.02222225000000222,
          "durationTicks": 8,
          "midi": 27,
          "name": "D#1",
          "ticks": 10400,
          "time": 28.888924999999997,
          "velocity": 0.8110236220472441
        },
        {
          "duration": 0.02222225000000222,
          "durationTicks": 8,
          "midi": 39,
          "name": "D#2",
          "ticks": 10400,
          "time": 28.888924999999997,
          "velocity": 0.6771653543307087
        },
        {
          "duration": 0.022222249999998667,
          "durationTicks": 8,
          "midi": 39,
          "name": "D#2",
          "ticks": 10432,
          "time": 28.977814,
          "velocity": 0.6771653543307087
        },
        {
          "duration": 0.022222249999998667,
          "durationTicks": 8,
          "midi": 27,
          "name": "D#1",
          "ticks": 10432,
          "time": 28.977814,
          "velocity": 0.8110236220472441
        },
        {
          "duration": 0.02222225000000222,
          "durationTicks": 8,
          "midi": 27,
          "name": "D#1",
          "ticks": 10496,
          "time": 29.155592,
          "velocity": 0.8110236220472441
        },
        {
          "duration": 0.02222225000000222,
          "durationTicks": 8,
          "midi": 39,
          "name": "D#2",
          "ticks": 10496,
          "time": 29.155592,
          "velocity": 0.6771653543307087
        },
        {
          "duration": 0.022222249999998667,
          "durationTicks": 8,
          "midi": 27,
          "name": "D#1",
          "ticks": 10528,
          "time": 29.244481,
          "velocity": 0.8110236220472441
        },
        {
          "duration": 0.022222249999998667,
          "durationTicks": 8,
          "midi": 39,
          "name": "D#2",
          "ticks": 10528,
          "time": 29.244481,
          "velocity": 0.6771653543307087
        },
        {
          "duration": 0.02222225000000222,
          "durationTicks": 8,
          "midi": 27,
          "name": "D#1",
          "ticks": 10592,
          "time": 29.422258999999997,
          "velocity": 0.8110236220472441
        },
        {
          "duration": 0.02222225000000222,
          "durationTicks": 8,
          "midi": 39,
          "name": "D#2",
          "ticks": 10592,
          "time": 29.422258999999997,
          "velocity": 0.6771653543307087
        },
        {
          "duration": 0.022222249999998667,
          "durationTicks": 8,
          "midi": 39,
          "name": "D#2",
          "ticks": 10624,
          "time": 29.511148,
          "velocity": 0.6771653543307087
        },
        {
          "duration": 0.022222249999998667,
          "durationTicks": 8,
          "midi": 27,
          "name": "D#1",
          "ticks": 10624,
          "time": 29.511148,
          "velocity": 0.8110236220472441
        },
        {
          "duration": 0.022222249999998667,
          "durationTicks": 8,
          "midi": 39,
          "name": "D#2",
          "ticks": 10656,
          "time": 29.600037,
          "velocity": 0.6771653543307087
        },
        {
          "duration": 0.022222249999998667,
          "durationTicks": 8,
          "midi": 27,
          "name": "D#1",
          "ticks": 10656,
          "time": 29.600037,
          "velocity": 0.8110236220472441
        },
        {
          "duration": 0.0666667500000031,
          "durationTicks": 24,
          "midi": 39,
          "name": "D#2",
          "ticks": 10848,
          "time": 30.133370999999997,
          "velocity": 0.6771653543307087
        },
        {
          "duration": 0.0666667500000031,
          "durationTicks": 24,
          "midi": 27,
          "name": "D#1",
          "ticks": 10848,
          "time": 30.133370999999997,
          "velocity": 0.8110236220472441
        },
        {
          "duration": 0.1333334999999991,
          "durationTicks": 48,
          "midi": 25,
          "name": "C#1",
          "ticks": 11040,
          "time": 30.666705,
          "velocity": 0.8110236220472441
        },
        {
          "duration": 0.1333334999999991,
          "durationTicks": 48,
          "midi": 37,
          "name": "C#2",
          "ticks": 11040,
          "time": 30.666705,
          "velocity": 0.6771653543307087
        },
        {
          "duration": 0.1333334999999991,
          "durationTicks": 48,
          "midi": 23,
          "name": "B0",
          "ticks": 11136,
          "time": 30.933372,
          "velocity": 0.8110236220472441
        },
        {
          "duration": 0.1333334999999991,
          "durationTicks": 48,
          "midi": 35,
          "name": "B1",
          "ticks": 11136,
          "time": 30.933372,
          "velocity": 0.6771653543307087
        },
        {
          "duration": 0.06666674999999955,
          "durationTicks": 24,
          "midi": 23,
          "name": "B0",
          "ticks": 11376,
          "time": 31.600039499999998,
          "velocity": 0.8110236220472441
        },
        {
          "duration": 0.06666674999999955,
          "durationTicks": 24,
          "midi": 35,
          "name": "B1",
          "ticks": 11376,
          "time": 31.600039499999998,
          "velocity": 0.6771653543307087
        },
        {
          "duration": 0.06666674999999955,
          "durationTicks": 24,
          "midi": 35,
          "name": "B1",
          "ticks": 11424,
          "time": 31.733373,
          "velocity": 0.6771653543307087
        },
        {
          "duration": 0.06666674999999955,
          "durationTicks": 24,
          "midi": 23,
          "name": "B0",
          "ticks": 11424,
          "time": 31.733373,
          "velocity": 0.8110236220472441
        },
        {
          "duration": 0.0666667500000031,
          "durationTicks": 24,
          "midi": 23,
          "name": "B0",
          "ticks": 11616,
          "time": 32.266707,
          "velocity": 0.8110236220472441
        },
        {
          "duration": 0.0666667500000031,
          "durationTicks": 24,
          "midi": 35,
          "name": "B1",
          "ticks": 11616,
          "time": 32.266707,
          "velocity": 0.6771653543307087
        },
        {
          "duration": 0.022222249999998667,
          "durationTicks": 8,
          "midi": 35,
          "name": "B1",
          "ticks": 11904,
          "time": 33.066708,
          "velocity": 0.6771653543307087
        },
        {
          "duration": 0.022222249999998667,
          "durationTicks": 8,
          "midi": 23,
          "name": "B0",
          "ticks": 11904,
          "time": 33.066708,
          "velocity": 0.8110236220472441
        },
        {
          "duration": 0.022222249999998667,
          "durationTicks": 8,
          "midi": 35,
          "name": "B1",
          "ticks": 11928,
          "time": 33.13337475,
          "velocity": 0.6771653543307087
        },
        {
          "duration": 0.022222249999998667,
          "durationTicks": 8,
          "midi": 23,
          "name": "B0",
          "ticks": 11928,
          "time": 33.13337475,
          "velocity": 0.8110236220472441
        },
        {
          "duration": 0.022222249999998667,
          "durationTicks": 8,
          "midi": 35,
          "name": "B1",
          "ticks": 11952,
          "time": 33.2000415,
          "velocity": 0.6771653543307087
        },
        {
          "duration": 0.022222249999998667,
          "durationTicks": 8,
          "midi": 23,
          "name": "B0",
          "ticks": 11952,
          "time": 33.2000415,
          "velocity": 0.8110236220472441
        },
        {
          "duration": 0.022222249999998667,
          "durationTicks": 8,
          "midi": 23,
          "name": "B0",
          "ticks": 11976,
          "time": 33.26670825,
          "velocity": 0.8110236220472441
        },
        {
          "duration": 0.022222249999998667,
          "durationTicks": 8,
          "midi": 35,
          "name": "B1",
          "ticks": 11976,
          "time": 33.26670825,
          "velocity": 0.6771653543307087
        },
        {
          "duration": 0.0666667500000031,
          "durationTicks": 24,
          "midi": 23,
          "name": "B0",
          "ticks": 12000,
          "time": 33.333375,
          "velocity": 0.8110236220472441
        },
        {
          "duration": 0.0666667500000031,
          "durationTicks": 24,
          "midi": 35,
          "name": "B1",
          "ticks": 12000,
          "time": 33.333375,
          "velocity": 0.6771653543307087
        },
        {
          "duration": 0.066666749999996,
          "durationTicks": 24,
          "midi": 35,
          "name": "B1",
          "ticks": 12144,
          "time": 33.7333755,
          "velocity": 0.6771653543307087
        },
        {
          "duration": 0.066666749999996,
          "durationTicks": 24,
          "midi": 23,
          "name": "B0",
          "ticks": 12144,
          "time": 33.7333755,
          "velocity": 0.8110236220472441
        },
        {
          "duration": 0.066666749999996,
          "durationTicks": 24,
          "midi": 23,
          "name": "B0",
          "ticks": 12192,
          "time": 33.866709,
          "velocity": 0.8110236220472441
        },
        {
          "duration": 0.066666749999996,
          "durationTicks": 24,
          "midi": 35,
          "name": "B1",
          "ticks": 12192,
          "time": 33.866709,
          "velocity": 0.6771653543307087
        },
        {
          "duration": 0.011111124999999333,
          "durationTicks": 4,
          "midi": 40,
          "name": "E2",
          "ticks": 26784,
          "time": 74.400093,
          "velocity": 0.8188976377952756
        },
        {
          "duration": 0.011111124999999333,
          "durationTicks": 4,
          "midi": 40,
          "name": "E2",
          "ticks": 26796,
          "time": 74.433426375,
          "velocity": 0.8188976377952756
        },
        {
          "duration": 0.011111125000013544,
          "durationTicks": 4,
          "midi": 40,
          "name": "E2",
          "ticks": 26808,
          "time": 74.46675975,
          "velocity": 0.8188976377952756
        },
        {
          "duration": 0.011111125000013544,
          "durationTicks": 4,
          "midi": 40,
          "name": "E2",
          "ticks": 26820,
          "time": 74.50009312499999,
          "velocity": 0.8188976377952756
        },
        {
          "duration": 0.011111125000013544,
          "durationTicks": 4,
          "midi": 40,
          "name": "E2",
          "ticks": 26832,
          "time": 74.53342649999999,
          "velocity": 0.8188976377952756
        },
        {
          "duration": 0.011111124999999333,
          "durationTicks": 4,
          "midi": 40,
          "name": "E2",
          "ticks": 26844,
          "time": 74.566759875,
          "velocity": 0.8188976377952756
        },
        {
          "duration": 0.011111124999999333,
          "durationTicks": 4,
          "midi": 40,
          "name": "E2",
          "ticks": 26856,
          "time": 74.60009325,
          "velocity": 0.8188976377952756
        },
        {
          "duration": 0.011111124999999333,
          "durationTicks": 4,
          "midi": 40,
          "name": "E2",
          "ticks": 26868,
          "time": 74.633426625,
          "velocity": 0.8188976377952756
        },
        {
          "duration": 0.011111124999999333,
          "durationTicks": 4,
          "midi": 40,
          "name": "E2",
          "ticks": 26880,
          "time": 74.66676,
          "velocity": 0.8188976377952756
        },
        {
          "duration": 0.011111125000013544,
          "durationTicks": 4,
          "midi": 40,
          "name": "E2",
          "ticks": 26892,
          "time": 74.700093375,
          "velocity": 0.8188976377952756
        },
        {
          "duration": 0.011111125000013544,
          "durationTicks": 4,
          "midi": 40,
          "name": "E2",
          "ticks": 26904,
          "time": 74.73342674999999,
          "velocity": 0.8188976377952756
        },
        {
          "duration": 0.011111125000013544,
          "durationTicks": 4,
          "midi": 40,
          "name": "E2",
          "ticks": 26916,
          "time": 74.76676012499999,
          "velocity": 0.8188976377952756
        },
        {
          "duration": 0.011111125000013544,
          "durationTicks": 4,
          "midi": 27,
          "name": "D#1",
          "ticks": 26976,
          "time": 74.933427,
          "velocity": 0.5669291338582677
        },
        {
          "duration": 0.011111124999985122,
          "durationTicks": 4,
          "midi": 27,
          "name": "D#1",
          "ticks": 26992,
          "time": 74.9778715,
          "velocity": 0.5669291338582677
        },
        {
          "duration": 0.011111125000013544,
          "durationTicks": 4,
          "midi": 27,
          "name": "D#1",
          "ticks": 27008,
          "time": 75.02231599999999,
          "velocity": 0.5669291338582677
        },
        {
          "duration": 0.011111124999999333,
          "durationTicks": 4,
          "midi": 27,
          "name": "D#1",
          "ticks": 27024,
          "time": 75.0667605,
          "velocity": 0.5669291338582677
        },
        {
          "duration": 0.011111124999999333,
          "durationTicks": 4,
          "midi": 27,
          "name": "D#1",
          "ticks": 27040,
          "time": 75.111205,
          "velocity": 0.5669291338582677
        },
        {
          "duration": 0.011111124999999333,
          "durationTicks": 4,
          "midi": 27,
          "name": "D#1",
          "ticks": 27056,
          "time": 75.1556495,
          "velocity": 0.5669291338582677
        },
        {
          "duration": 0.011111125000013544,
          "durationTicks": 4,
          "midi": 34,
          "name": "A#1",
          "ticks": 27072,
          "time": 75.20009399999999,
          "velocity": 0.8188976377952756
        },
        {
          "duration": 0.011111125000013544,
          "durationTicks": 4,
          "midi": 46,
          "name": "A#2",
          "ticks": 27072,
          "time": 75.20009399999999,
          "velocity": 0.8188976377952756
        },
        {
          "duration": 0.011111124999999333,
          "durationTicks": 4,
          "midi": 34,
          "name": "A#1",
          "ticks": 27096,
          "time": 75.26676075,
          "velocity": 0.8188976377952756
        },
        {
          "duration": 0.011111124999999333,
          "durationTicks": 4,
          "midi": 46,
          "name": "A#2",
          "ticks": 27096,
          "time": 75.26676075,
          "velocity": 0.8188976377952756
        },
        {
          "duration": 0.011111124999999333,
          "durationTicks": 4,
          "midi": 34,
          "name": "A#1",
          "ticks": 27120,
          "time": 75.3334275,
          "velocity": 0.8188976377952756
        },
        {
          "duration": 0.011111124999999333,
          "durationTicks": 4,
          "midi": 46,
          "name": "A#2",
          "ticks": 27120,
          "time": 75.3334275,
          "velocity": 0.8188976377952756
        },
        {
          "duration": 0.011111124999999333,
          "durationTicks": 4,
          "midi": 34,
          "name": "A#1",
          "ticks": 27144,
          "time": 75.40009425,
          "velocity": 0.8188976377952756
        },
        {
          "duration": 0.011111124999999333,
          "durationTicks": 4,
          "midi": 46,
          "name": "A#2",
          "ticks": 27144,
          "time": 75.40009425,
          "velocity": 0.8188976377952756
        },
        {
          "duration": 0.011111125000013544,
          "durationTicks": 4,
          "midi": 27,
          "name": "D#1",
          "ticks": 30816,
          "time": 85.600107,
          "velocity": 0.5669291338582677
        },
        {
          "duration": 0.011111124999985122,
          "durationTicks": 4,
          "midi": 27,
          "name": "D#1",
          "ticks": 30832,
          "time": 85.6445515,
          "velocity": 0.5669291338582677
        },
        {
          "duration": 0.011111125000013544,
          "durationTicks": 4,
          "midi": 27,
          "name": "D#1",
          "ticks": 30848,
          "time": 85.68899599999999,
          "velocity": 0.5669291338582677
        },
        {
          "duration": 0.011111124999999333,
          "durationTicks": 4,
          "midi": 27,
          "name": "D#1",
          "ticks": 30864,
          "time": 85.7334405,
          "velocity": 0.5669291338582677
        },
        {
          "duration": 0.011111124999999333,
          "durationTicks": 4,
          "midi": 27,
          "name": "D#1",
          "ticks": 30880,
          "time": 85.777885,
          "velocity": 0.5669291338582677
        },
        {
          "duration": 0.011111124999999333,
          "durationTicks": 4,
          "midi": 27,
          "name": "D#1",
          "ticks": 30896,
          "time": 85.8223295,
          "velocity": 0.5669291338582677
        },
        {
          "duration": 0.011111125000013544,
          "durationTicks": 4,
          "midi": 27,
          "name": "D#1",
          "ticks": 32352,
          "time": 89.866779,
          "velocity": 0.5669291338582677
        },
        {
          "duration": 0.011111124999985122,
          "durationTicks": 4,
          "midi": 27,
          "name": "D#1",
          "ticks": 32368,
          "time": 89.9112235,
          "velocity": 0.5669291338582677
        },
        {
          "duration": 0.011111125000013544,
          "durationTicks": 4,
          "midi": 27,
          "name": "D#1",
          "ticks": 32384,
          "time": 89.95566799999999,
          "velocity": 0.5669291338582677
        },
        {
          "duration": 0.011111124999999333,
          "durationTicks": 4,
          "midi": 27,
          "name": "D#1",
          "ticks": 32400,
          "time": 90.0001125,
          "velocity": 0.5669291338582677
        },
        {
          "duration": 0.011111124999999333,
          "durationTicks": 4,
          "midi": 27,
          "name": "D#1",
          "ticks": 32416,
          "time": 90.044557,
          "velocity": 0.5669291338582677
        },
        {
          "duration": 0.011111124999999333,
          "durationTicks": 4,
          "midi": 27,
          "name": "D#1",
          "ticks": 32432,
          "time": 90.0890015,
          "velocity": 0.5669291338582677
        },
        {
          "duration": 0.1333335000000062,
          "durationTicks": 48,
          "midi": 39,
          "name": "D#2",
          "ticks": 34176,
          "time": 94.93345199999999,
          "velocity": 0.6771653543307087
        },
        {
          "duration": 0.1333335000000062,
          "durationTicks": 48,
          "midi": 27,
          "name": "D#1",
          "ticks": 34176,
          "time": 94.93345199999999,
          "velocity": 0.8110236220472441
        },
        {
          "duration": 0.133333499999992,
          "durationTicks": 48,
          "midi": 27,
          "name": "D#1",
          "ticks": 34272,
          "time": 95.200119,
          "velocity": 0.8110236220472441
        },
        {
          "duration": 0.133333499999992,
          "durationTicks": 48,
          "midi": 39,
          "name": "D#2",
          "ticks": 34272,
          "time": 95.200119,
          "velocity": 0.6771653543307087
        },
        {
          "duration": 0.133333499999992,
          "durationTicks": 48,
          "midi": 27,
          "name": "D#1",
          "ticks": 34464,
          "time": 95.733453,
          "velocity": 0.8110236220472441
        },
        {
          "duration": 0.133333499999992,
          "durationTicks": 48,
          "midi": 39,
          "name": "D#2",
          "ticks": 34464,
          "time": 95.733453,
          "velocity": 0.6771653543307087
        },
        {
          "duration": 0.1333335000000062,
          "durationTicks": 48,
          "midi": 27,
          "name": "D#1",
          "ticks": 34656,
          "time": 96.266787,
          "velocity": 0.8110236220472441
        },
        {
          "duration": 0.1333335000000062,
          "durationTicks": 48,
          "midi": 39,
          "name": "D#2",
          "ticks": 34656,
          "time": 96.266787,
          "velocity": 0.6771653543307087
        },
        {
          "duration": 0.1333335000000062,
          "durationTicks": 48,
          "midi": 27,
          "name": "D#1",
          "ticks": 34848,
          "time": 96.80012099999999,
          "velocity": 0.8110236220472441
        },
        {
          "duration": 0.1333335000000062,
          "durationTicks": 48,
          "midi": 39,
          "name": "D#2",
          "ticks": 34848,
          "time": 96.80012099999999,
          "velocity": 0.6771653543307087
        },
        {
          "duration": 0.133333499999992,
          "durationTicks": 48,
          "midi": 27,
          "name": "D#1",
          "ticks": 35040,
          "time": 97.333455,
          "velocity": 0.8110236220472441
        },
        {
          "duration": 0.133333499999992,
          "durationTicks": 48,
          "midi": 39,
          "name": "D#2",
          "ticks": 35040,
          "time": 97.333455,
          "velocity": 0.6771653543307087
        },
        {
          "duration": 0.133333499999992,
          "durationTicks": 48,
          "midi": 39,
          "name": "D#2",
          "ticks": 35232,
          "time": 97.866789,
          "velocity": 0.6771653543307087
        },
        {
          "duration": 0.133333499999992,
          "durationTicks": 48,
          "midi": 27,
          "name": "D#1",
          "ticks": 35232,
          "time": 97.866789,
          "velocity": 0.8110236220472441
        },
        {
          "duration": 0.1333335000000062,
          "durationTicks": 48,
          "midi": 39,
          "name": "D#2",
          "ticks": 35424,
          "time": 98.400123,
          "velocity": 0.6771653543307087
        },
        {
          "duration": 0.1333335000000062,
          "durationTicks": 48,
          "midi": 27,
          "name": "D#1",
          "ticks": 35424,
          "time": 98.400123,
          "velocity": 0.8110236220472441
        },
        {
          "duration": 0.1333335000000062,
          "durationTicks": 48,
          "midi": 27,
          "name": "D#1",
          "ticks": 36384,
          "time": 101.06679299999999,
          "velocity": 0.8110236220472441
        },
        {
          "duration": 0.1333335000000062,
          "durationTicks": 48,
          "midi": 39,
          "name": "D#2",
          "ticks": 36384,
          "time": 101.06679299999999,
          "velocity": 0.6771653543307087
        },
        {
          "duration": 0.133333499999992,
          "durationTicks": 48,
          "midi": 27,
          "name": "D#1",
          "ticks": 36576,
          "time": 101.600127,
          "velocity": 0.8110236220472441
        },
        {
          "duration": 0.133333499999992,
          "durationTicks": 48,
          "midi": 39,
          "name": "D#2",
          "ticks": 36576,
          "time": 101.600127,
          "velocity": 0.6771653543307087
        },
        {
          "duration": 0.133333499999992,
          "durationTicks": 48,
          "midi": 39,
          "name": "D#2",
          "ticks": 36768,
          "time": 102.133461,
          "velocity": 0.6771653543307087
        },
        {
          "duration": 0.133333499999992,
          "durationTicks": 48,
          "midi": 27,
          "name": "D#1",
          "ticks": 36768,
          "time": 102.133461,
          "velocity": 0.8110236220472441
        },
        {
          "duration": 0.1333335000000062,
          "durationTicks": 48,
          "midi": 39,
          "name": "D#2",
          "ticks": 36960,
          "time": 102.666795,
          "velocity": 0.6771653543307087
        },
        {
          "duration": 0.1333335000000062,
          "durationTicks": 48,
          "midi": 27,
          "name": "D#1",
          "ticks": 36960,
          "time": 102.666795,
          "velocity": 0.8110236220472441
        },
        {
          "duration": 0.1333335000000062,
          "durationTicks": 48,
          "midi": 27,
          "name": "D#1",
          "ticks": 37152,
          "time": 103.20012899999999,
          "velocity": 0.8110236220472441
        },
        {
          "duration": 0.1333335000000062,
          "durationTicks": 48,
          "midi": 39,
          "name": "D#2",
          "ticks": 37152,
          "time": 103.20012899999999,
          "velocity": 0.6771653543307087
        },
        {
          "duration": 0.133333499999992,
          "durationTicks": 48,
          "midi": 39,
          "name": "D#2",
          "ticks": 37344,
          "time": 103.733463,
          "velocity": 0.6771653543307087
        },
        {
          "duration": 0.133333499999992,
          "durationTicks": 48,
          "midi": 27,
          "name": "D#1",
          "ticks": 37344,
          "time": 103.733463,
          "velocity": 0.8110236220472441
        },
        {
          "duration": 0.133333499999992,
          "durationTicks": 48,
          "midi": 27,
          "name": "D#1",
          "ticks": 37536,
          "time": 104.266797,
          "velocity": 0.8110236220472441
        },
        {
          "duration": 0.133333499999992,
          "durationTicks": 48,
          "midi": 39,
          "name": "D#2",
          "ticks": 37536,
          "time": 104.266797,
          "velocity": 0.6771653543307087
        },
        {
          "duration": 0.1333335000000062,
          "durationTicks": 48,
          "midi": 37,
          "name": "C#2",
          "ticks": 37728,
          "time": 104.800131,
          "velocity": 0.6771653543307087
        },
        {
          "duration": 0.1333335000000062,
          "durationTicks": 48,
          "midi": 25,
          "name": "C#1",
          "ticks": 37728,
          "time": 104.800131,
          "velocity": 0.8110236220472441
        },
        {
          "duration": 0.1333335000000062,
          "durationTicks": 48,
          "midi": 23,
          "name": "B0",
          "ticks": 37920,
          "time": 105.33346499999999,
          "velocity": 0.8110236220472441
        },
        {
          "duration": 0.1333335000000062,
          "durationTicks": 48,
          "midi": 35,
          "name": "B1",
          "ticks": 37920,
          "time": 105.33346499999999,
          "velocity": 0.6771653543307087
        },
        {
          "duration": 0.133333499999992,
          "durationTicks": 48,
          "midi": 35,
          "name": "B1",
          "ticks": 38112,
          "time": 105.866799,
          "velocity": 0.6771653543307087
        },
        {
          "duration": 0.133333499999992,
          "durationTicks": 48,
          "midi": 23,
          "name": "B0",
          "ticks": 38112,
          "time": 105.866799,
          "velocity": 0.8110236220472441
        },
        {
          "duration": 0.133333499999992,
          "durationTicks": 48,
          "midi": 23,
          "name": "B0",
          "ticks": 38304,
          "time": 106.400133,
          "velocity": 0.8110236220472441
        },
        {
          "duration": 0.133333499999992,
          "durationTicks": 48,
          "midi": 35,
          "name": "B1",
          "ticks": 38304,
          "time": 106.400133,
          "velocity": 0.6771653543307087
        },
        {
          "duration": 0.1333335000000062,
          "durationTicks": 48,
          "midi": 23,
          "name": "B0",
          "ticks": 38496,
          "time": 106.933467,
          "velocity": 0.8110236220472441
        },
        {
          "duration": 0.1333335000000062,
          "durationTicks": 48,
          "midi": 35,
          "name": "B1",
          "ticks": 38496,
          "time": 106.933467,
          "velocity": 0.6771653543307087
        },
        {
          "duration": 0.1333335000000062,
          "durationTicks": 48,
          "midi": 23,
          "name": "B0",
          "ticks": 38688,
          "time": 107.46680099999999,
          "velocity": 0.8110236220472441
        },
        {
          "duration": 0.1333335000000062,
          "durationTicks": 48,
          "midi": 35,
          "name": "B1",
          "ticks": 38688,
          "time": 107.46680099999999,
          "velocity": 0.6771653543307087
        },
        {
          "duration": 0.133333499999992,
          "durationTicks": 48,
          "midi": 23,
          "name": "B0",
          "ticks": 38880,
          "time": 108.000135,
          "velocity": 0.8110236220472441
        },
        {
          "duration": 0.133333499999992,
          "durationTicks": 48,
          "midi": 35,
          "name": "B1",
          "ticks": 38880,
          "time": 108.000135,
          "velocity": 0.6771653543307087
        },
        {
          "duration": 0.011111124999985122,
          "durationTicks": 4,
          "midi": 27,
          "name": "D#1",
          "ticks": 60096,
          "time": 166.933542,
          "velocity": 0.5669291338582677
        },
        {
          "duration": 0.011111125000013544,
          "durationTicks": 4,
          "midi": 27,
          "name": "D#1",
          "ticks": 60112,
          "time": 166.9779865,
          "velocity": 0.5669291338582677
        },
        {
          "duration": 0.011111124999985122,
          "durationTicks": 4,
          "midi": 27,
          "name": "D#1",
          "ticks": 60128,
          "time": 167.022431,
          "velocity": 0.5669291338582677
        },
        {
          "duration": 0.011111125000013544,
          "durationTicks": 4,
          "midi": 27,
          "name": "D#1",
          "ticks": 60144,
          "time": 167.06687549999998,
          "velocity": 0.5669291338582677
        },
        {
          "duration": 0.011111125000013544,
          "durationTicks": 4,
          "midi": 27,
          "name": "D#1",
          "ticks": 60160,
          "time": 167.11131999999998,
          "velocity": 0.5669291338582677
        },
        {
          "duration": 0.011111124999985122,
          "durationTicks": 4,
          "midi": 27,
          "name": "D#1",
          "ticks": 60176,
          "time": 167.1557645,
          "velocity": 0.5669291338582677
        },
        {
          "duration": 0.011111124999985122,
          "durationTicks": 4,
          "midi": 46,
          "name": "A#2",
          "ticks": 60192,
          "time": 167.200209,
          "velocity": 0.8188976377952756
        },
        {
          "duration": 0.011111124999985122,
          "durationTicks": 4,
          "midi": 34,
          "name": "A#1",
          "ticks": 60192,
          "time": 167.200209,
          "velocity": 0.8188976377952756
        },
        {
          "duration": 0.011111124999985122,
          "durationTicks": 4,
          "midi": 46,
          "name": "A#2",
          "ticks": 60216,
          "time": 167.26687575,
          "velocity": 0.8188976377952756
        },
        {
          "duration": 0.011111124999985122,
          "durationTicks": 4,
          "midi": 34,
          "name": "A#1",
          "ticks": 60216,
          "time": 167.26687575,
          "velocity": 0.8188976377952756
        },
        {
          "duration": 0.011111124999985122,
          "durationTicks": 4,
          "midi": 46,
          "name": "A#2",
          "ticks": 60240,
          "time": 167.3335425,
          "velocity": 0.8188976377952756
        },
        {
          "duration": 0.011111124999985122,
          "durationTicks": 4,
          "midi": 34,
          "name": "A#1",
          "ticks": 60240,
          "time": 167.3335425,
          "velocity": 0.8188976377952756
        },
        {
          "duration": 0.011111124999985122,
          "durationTicks": 4,
          "midi": 46,
          "name": "A#2",
          "ticks": 60264,
          "time": 167.40020925,
          "velocity": 0.8188976377952756
        },
        {
          "duration": 0.011111124999985122,
          "durationTicks": 4,
          "midi": 34,
          "name": "A#1",
          "ticks": 60264,
          "time": 167.40020925,
          "velocity": 0.8188976377952756
        },
        {
          "duration": 0.011111124999985122,
          "durationTicks": 4,
          "midi": 27,
          "name": "D#1",
          "ticks": 76224,
          "time": 211.733598,
          "velocity": 0.5669291338582677
        },
        {
          "duration": 0.011111125000041966,
          "durationTicks": 4,
          "midi": 27,
          "name": "D#1",
          "ticks": 76240,
          "time": 211.77804249999997,
          "velocity": 0.5669291338582677
        },
        {
          "duration": 0.011111124999985122,
          "durationTicks": 4,
          "midi": 27,
          "name": "D#1",
          "ticks": 76256,
          "time": 211.822487,
          "velocity": 0.5669291338582677
        },
        {
          "duration": 0.011111124999985122,
          "durationTicks": 4,
          "midi": 27,
          "name": "D#1",
          "ticks": 76272,
          "time": 211.8669315,
          "velocity": 0.5669291338582677
        },
        {
          "duration": 0.011111125000013544,
          "durationTicks": 4,
          "midi": 27,
          "name": "D#1",
          "ticks": 76288,
          "time": 211.911376,
          "velocity": 0.5669291338582677
        },
        {
          "duration": 0.011111125000013544,
          "durationTicks": 4,
          "midi": 27,
          "name": "D#1",
          "ticks": 76304,
          "time": 211.9558205,
          "velocity": 0.5669291338582677
        },
        {
          "duration": 0.011111124999985122,
          "durationTicks": 4,
          "midi": 46,
          "name": "A#2",
          "ticks": 76320,
          "time": 212.00026499999998,
          "velocity": 0.8188976377952756
        },
        {
          "duration": 0.011111124999985122,
          "durationTicks": 4,
          "midi": 34,
          "name": "A#1",
          "ticks": 76320,
          "time": 212.00026499999998,
          "velocity": 0.8188976377952756
        },
        {
          "duration": 0.011111124999985122,
          "durationTicks": 4,
          "midi": 46,
          "name": "A#2",
          "ticks": 76344,
          "time": 212.06693174999998,
          "velocity": 0.8188976377952756
        },
        {
          "duration": 0.011111124999985122,
          "durationTicks": 4,
          "midi": 34,
          "name": "A#1",
          "ticks": 76344,
          "time": 212.06693174999998,
          "velocity": 0.8188976377952756
        },
        {
          "duration": 0.011111125000013544,
          "durationTicks": 4,
          "midi": 46,
          "name": "A#2",
          "ticks": 76368,
          "time": 212.13359849999998,
          "velocity": 0.8188976377952756
        },
        {
          "duration": 0.011111125000013544,
          "durationTicks": 4,
          "midi": 34,
          "name": "A#1",
          "ticks": 76368,
          "time": 212.13359849999998,
          "velocity": 0.8188976377952756
        },
        {
          "duration": 0.011111124999985122,
          "durationTicks": 4,
          "midi": 46,
          "name": "A#2",
          "ticks": 76392,
          "time": 212.20026525,
          "velocity": 0.8188976377952756
        },
        {
          "duration": 0.011111124999985122,
          "durationTicks": 4,
          "midi": 34,
          "name": "A#1",
          "ticks": 76392,
          "time": 212.20026525,
          "velocity": 0.8188976377952756
        }
      ],
      "endOfTrackTicks": 82491
    },
    {
      "channel": 15,
      "controlChanges": {
        "6": [
          {
            "number": 6,
            "ticks": 0,
            "time": 0,
            "value": 0.09448818897637795
          },
          {
            "number": 6,
            "ticks": 0,
            "time": 0,
            "value": 0.09448818897637795
          },
          {
            "number": 6,
            "ticks": 0,
            "time": 0,
            "value": 0.09448818897637795
          },
          {
            "number": 6,
            "ticks": 82466,
            "time": 228.45777604166662,
            "value": 0.09448818897637795
          },
          {
            "number": 6,
            "ticks": 82491,
            "time": 228.52722057291663,
            "value": 0.09448818897637795
          }
        ],
        "7": [
          {
            "number": 7,
            "ticks": 0,
            "time": 0,
            "value": 0.7874015748031497
          },
          {
            "number": 7,
            "ticks": 0,
            "time": 0,
            "value": 0.7874015748031497
          },
          {
            "number": 7,
            "ticks": 0,
            "time": 0,
            "value": 0.7874015748031497
          },
          {
            "number": 7,
            "ticks": 0,
            "time": 0,
            "value": 0.7874015748031497
          },
          {
            "number": 7,
            "ticks": 82466,
            "time": 228.45777604166662,
            "value": 0.7874015748031497
          },
          {
            "number": 7,
            "ticks": 82491,
            "time": 228.52722057291663,
            "value": 0.7874015748031497
          }
        ],
        "10": [
          {
            "number": 10,
            "ticks": 0,
            "time": 0,
            "value": 0.5039370078740157
          },
          {
            "number": 10,
            "ticks": 0,
            "time": 0,
            "value": 0.5039370078740157
          },
          {
            "number": 10,
            "ticks": 0,
            "time": 0,
            "value": 0.5039370078740157
          },
          {
            "number": 10,
            "ticks": 0,
            "time": 0,
            "value": 0.5039370078740157
          },
          {
            "number": 10,
            "ticks": 82466,
            "time": 228.45777604166662,
            "value": 0.5039370078740157
          },
          {
            "number": 10,
            "ticks": 82491,
            "time": 228.52722057291663,
            "value": 0.5039370078740157
          }
        ],
        "100": [
          {
            "number": 100,
            "ticks": 0,
            "time": 0,
            "value": 0
          },
          {
            "number": 100,
            "ticks": 0,
            "time": 0,
            "value": 0
          },
          {
            "number": 100,
            "ticks": 0,
            "time": 0,
            "value": 0
          },
          {
            "number": 100,
            "ticks": 82466,
            "time": 228.45777604166662,
            "value": 0
          },
          {
            "number": 100,
            "ticks": 82491,
            "time": 228.52722057291663,
            "value": 0
          }
        ],
        "101": [
          {
            "number": 101,
            "ticks": 0,
            "time": 0,
            "value": 0
          },
          {
            "number": 101,
            "ticks": 0,
            "time": 0,
            "value": 0
          },
          {
            "number": 101,
            "ticks": 0,
            "time": 0,
            "value": 0
          },
          {
            "number": 101,
            "ticks": 82466,
            "time": 228.45777604166662,
            "value": 0
          },
          {
            "number": 101,
            "ticks": 82491,
            "time": 228.52722057291663,
            "value": 0
          }
        ]
      },
      "pitchBends": [
        {
          "ticks": 0,
          "time": 0,
          "value": 0
        },
        {
          "ticks": 0,
          "time": 0,
          "value": 0
        },
        {
          "ticks": 0,
          "time": 0,
          "value": 0
        },
        {
          "ticks": 0,
          "time": 0,
          "value": 0
        },
        {
          "ticks": 82466,
          "time": 228.45777604166662,
          "value": 0
        },
        {
          "ticks": 82491,
          "time": 228.52722057291663,
          "value": 0
        }
      ],
      "instrument": {
        "family": "piano",
        "number": 0,
        "name": "acoustic grand piano"
      },
      "name": "MIKU (EQ)",
      "notes": [
        {
          "duration": 0.2500003125,
          "durationTicks": 90,
          "midi": 63,
          "name": "D#4",
          "ticks": 96,
          "time": 0.266667,
          "velocity": 0.6456692913385826
        },
        {
          "duration": 0.033333375,
          "durationTicks": 12,
          "midi": 73,
          "name": "C#5",
          "ticks": 192,
          "time": 0.533334,
          "velocity": 0.6456692913385826
        },
        {
          "duration": 0.2500003125,
          "durationTicks": 90,
          "midi": 75,
          "name": "D#5",
          "ticks": 198,
          "time": 0.5500006875,
          "velocity": 0.6456692913385826
        },
        {
          "duration": 0.06666675,
          "durationTicks": 24,
          "midi": 70,
          "name": "A#4",
          "ticks": 336,
          "time": 0.9333345,
          "velocity": 0.6456692913385826
        },
        {
          "duration": 0.266667,
          "durationTicks": 96,
          "midi": 69,
          "name": "A4",
          "ticks": 384,
          "time": 1.066668,
          "velocity": 0.6456692913385826
        },
        {
          "duration": 0.11111125,
          "durationTicks": 40,
          "midi": 66,
          "name": "F#4",
          "ticks": 528,
          "time": 1.4666685,
          "velocity": 0.6377952755905512
        },
        {
          "duration": 0.266667,
          "durationTicks": 96,
          "midi": 69,
          "name": "A4",
          "ticks": 576,
          "time": 1.600002,
          "velocity": 0.6377952755905512
        },
        {
          "duration": 0.266667,
          "durationTicks": 96,
          "midi": 71,
          "name": "B4",
          "ticks": 672,
          "time": 1.866669,
          "velocity": 0.6377952755905512
        },
        {
          "duration": 0.266667,
          "durationTicks": 96,
          "midi": 70,
          "name": "A#4",
          "ticks": 768,
          "time": 2.133336,
          "velocity": 0.6299212598425197
        },
        {
          "duration": 0.266667,
          "durationTicks": 96,
          "midi": 63,
          "name": "D#4",
          "ticks": 864,
          "time": 2.400003,
          "velocity": 0.6299212598425197
        },
        {
          "duration": 0.033333374999999776,
          "durationTicks": 12,
          "midi": 73,
          "name": "C#5",
          "ticks": 960,
          "time": 2.66667,
          "velocity": 0.6299212598425197
        },
        {
          "duration": 0.2500003125000001,
          "durationTicks": 90,
          "midi": 75,
          "name": "D#5",
          "ticks": 966,
          "time": 2.6833366874999998,
          "velocity": 0.6299212598425197
        },
        {
          "duration": 0.06666675,
          "durationTicks": 24,
          "midi": 70,
          "name": "A#4",
          "ticks": 1104,
          "time": 3.0666705,
          "velocity": 0.6220472440944882
        },
        {
          "duration": 0.266667,
          "durationTicks": 96,
          "midi": 69,
          "name": "A4",
          "ticks": 1152,
          "time": 3.200004,
          "velocity": 0.6220472440944882
        },
        {
          "duration": 0.11111125,
          "durationTicks": 40,
          "midi": 66,
          "name": "F#4",
          "ticks": 1296,
          "time": 3.6000045,
          "velocity": 0.6220472440944882
        },
        {
          "duration": 0.266667,
          "durationTicks": 96,
          "midi": 68,
          "name": "G#4",
          "ticks": 1344,
          "time": 3.733338,
          "velocity": 0.6220472440944882
        },
        {
          "duration": 0.1333335,
          "durationTicks": 48,
          "midi": 66,
          "name": "F#4",
          "ticks": 1440,
          "time": 4.000005,
          "velocity": 0.6141732283464567
        },
        {
          "duration": 0.1333335,
          "durationTicks": 48,
          "midi": 65,
          "name": "F4",
          "ticks": 1488,
          "time": 4.1333385,
          "velocity": 0.6141732283464567
        },
        {
          "duration": 0.266667,
          "durationTicks": 96,
          "midi": 66,
          "name": "F#4",
          "ticks": 1536,
          "time": 4.266672,
          "velocity": 0.6141732283464567
        },
        {
          "duration": 0.2500003125000001,
          "durationTicks": 90,
          "midi": 63,
          "name": "D#4",
          "ticks": 1632,
          "time": 4.533339,
          "velocity": 0.6141732283464567
        },
        {
          "duration": 0.033333374999999776,
          "durationTicks": 12,
          "midi": 73,
          "name": "C#5",
          "ticks": 1728,
          "time": 4.800006,
          "velocity": 0.6062992125984252
        },
        {
          "duration": 0.2500003125000001,
          "durationTicks": 90,
          "midi": 75,
          "name": "D#5",
          "ticks": 1734,
          "time": 4.8166726875,
          "velocity": 0.5905511811023622
        },
        {
          "duration": 0.06666675000000044,
          "durationTicks": 24,
          "midi": 70,
          "name": "A#4",
          "ticks": 1872,
          "time": 5.2000065,
          "velocity": 0.5354330708661418
        },
        {
          "duration": 0.266667,
          "durationTicks": 96,
          "midi": 69,
          "name": "A4",
          "ticks": 1920,
          "time": 5.33334,
          "velocity": 0.5196850393700787
        },
        {
          "duration": 0.11111125000000044,
          "durationTicks": 40,
          "midi": 66,
          "name": "F#4",
          "ticks": 2064,
          "time": 5.7333405,
          "velocity": 0.4566929133858268
        },
        {
          "duration": 0.266667,
          "durationTicks": 96,
          "midi": 70,
          "name": "A#4",
          "ticks": 2112,
          "time": 5.866674,
          "velocity": 0.4409448818897638
        },
        {
          "duration": 0.266667,
          "durationTicks": 96,
          "midi": 73,
          "name": "C#5",
          "ticks": 2208,
          "time": 6.133341,
          "velocity": 0.4015748031496063
        },
        {
          "duration": 0.266667,
          "durationTicks": 96,
          "midi": 72,
          "name": "C5",
          "ticks": 2304,
          "time": 6.400008,
          "velocity": 0.36220472440944884
        },
        {
          "duration": 0.266667,
          "durationTicks": 96,
          "midi": 66,
          "name": "F#4",
          "ticks": 2400,
          "time": 6.666675,
          "velocity": 0.3228346456692913
        },
        {
          "duration": 0.033333374999999776,
          "durationTicks": 12,
          "midi": 77,
          "name": "F5",
          "ticks": 2496,
          "time": 6.933342,
          "velocity": 0.28346456692913385
        },
        {
          "duration": 0.2500003125000001,
          "durationTicks": 90,
          "midi": 79,
          "name": "G5",
          "ticks": 2502,
          "time": 6.9500086875,
          "velocity": 0.28346456692913385
        },
        {
          "duration": 0.06666675000000044,
          "durationTicks": 24,
          "midi": 74,
          "name": "D5",
          "ticks": 2640,
          "time": 7.3333425,
          "velocity": 0.2283464566929134
        },
        {
          "duration": 0.266667,
          "durationTicks": 96,
          "midi": 73,
          "name": "C#5",
          "ticks": 2688,
          "time": 7.466676,
          "velocity": 0.2125984251968504
        },
        {
          "duration": 0.2500003124999992,
          "durationTicks": 90,
          "midi": 63,
          "name": "D#4",
          "ticks": 4704,
          "time": 13.066683,
          "velocity": 0.6456692913385826
        },
        {
          "duration": 0.033333374999999776,
          "durationTicks": 12,
          "midi": 73,
          "name": "C#5",
          "ticks": 4800,
          "time": 13.33335,
          "velocity": 0.6456692913385826
        },
        {
          "duration": 0.2500003124999992,
          "durationTicks": 90,
          "midi": 75,
          "name": "D#5",
          "ticks": 4806,
          "time": 13.3500166875,
          "velocity": 0.6456692913385826
        },
        {
          "duration": 0.06666674999999955,
          "durationTicks": 24,
          "midi": 70,
          "name": "A#4",
          "ticks": 4944,
          "time": 13.7333505,
          "velocity": 0.6456692913385826
        },
        {
          "duration": 0.266667,
          "durationTicks": 96,
          "midi": 69,
          "name": "A4",
          "ticks": 4992,
          "time": 13.866684,
          "velocity": 0.6456692913385826
        },
        {
          "duration": 0.1333334999999991,
          "durationTicks": 48,
          "midi": 66,
          "name": "F#4",
          "ticks": 5136,
          "time": 14.2666845,
          "velocity": 0.6377952755905512
        },
        {
          "duration": 0.266667,
          "durationTicks": 96,
          "midi": 69,
          "name": "A4",
          "ticks": 5184,
          "time": 14.400018,
          "velocity": 0.6377952755905512
        },
        {
          "duration": 0.266667,
          "durationTicks": 96,
          "midi": 71,
          "name": "B4",
          "ticks": 5280,
          "time": 14.666685,
          "velocity": 0.6377952755905512
        },
        {
          "duration": 0.266667,
          "durationTicks": 96,
          "midi": 70,
          "name": "A#4",
          "ticks": 5376,
          "time": 14.933352,
          "velocity": 0.6299212598425197
        },
        {
          "duration": 0.266667,
          "durationTicks": 96,
          "midi": 63,
          "name": "D#4",
          "ticks": 5472,
          "time": 15.200019,
          "velocity": 0.6299212598425197
        },
        {
          "duration": 0.033333374999999776,
          "durationTicks": 12,
          "midi": 72,
          "name": "C5",
          "ticks": 5568,
          "time": 15.466686,
          "velocity": 0.6299212598425197
        },
        {
          "duration": 0.2500003124999992,
          "durationTicks": 90,
          "midi": 74,
          "name": "D5",
          "ticks": 5574,
          "time": 15.4833526875,
          "velocity": 0.6299212598425197
        },
        {
          "duration": 0.06666674999999955,
          "durationTicks": 24,
          "midi": 68,
          "name": "G#4",
          "ticks": 5712,
          "time": 15.8666865,
          "velocity": 0.6220472440944882
        },
        {
          "duration": 0.2666669999999982,
          "durationTicks": 96,
          "midi": 67,
          "name": "G4",
          "ticks": 5760,
          "time": 16.00002,
          "velocity": 0.6220472440944882
        },
        {
          "duration": 0.11111124999999689,
          "durationTicks": 40,
          "midi": 62,
          "name": "D4",
          "ticks": 5904,
          "time": 16.4000205,
          "velocity": 0.6220472440944882
        },
        {
          "duration": 0.2666669999999982,
          "durationTicks": 96,
          "midi": 62,
          "name": "D4",
          "ticks": 6432,
          "time": 17.866689,
          "velocity": 0.7874015748031497
        },
        {
          "duration": 0.1333334999999991,
          "durationTicks": 48,
          "midi": 63,
          "name": "D#4",
          "ticks": 6528,
          "time": 18.133356,
          "velocity": 0.7874015748031497
        },
        {
          "duration": 0.13333350000000266,
          "durationTicks": 48,
          "midi": 62,
          "name": "D4",
          "ticks": 6624,
          "time": 18.400022999999997,
          "velocity": 0.7874015748031497
        },
        {
          "duration": 0.1333334999999991,
          "durationTicks": 48,
          "midi": 63,
          "name": "D#4",
          "ticks": 6720,
          "time": 18.66669,
          "velocity": 0.7874015748031497
        },
        {
          "duration": 0.1333334999999991,
          "durationTicks": 48,
          "midi": 62,
          "name": "D4",
          "ticks": 6816,
          "time": 18.933357,
          "velocity": 0.7874015748031497
        },
        {
          "duration": 0.1333334999999991,
          "durationTicks": 48,
          "midi": 63,
          "name": "D#4",
          "ticks": 6864,
          "time": 19.0666905,
          "velocity": 0.7874015748031497
        },
        {
          "duration": 0.1333334999999991,
          "durationTicks": 48,
          "midi": 75,
          "name": "D#5",
          "ticks": 6960,
          "time": 19.333357499999998,
          "velocity": 0.7874015748031497
        },
        {
          "duration": 0.1333334999999991,
          "durationTicks": 48,
          "midi": 62,
          "name": "D4",
          "ticks": 7056,
          "time": 19.6000245,
          "velocity": 0.7874015748031497
        },
        {
          "duration": 0.1333334999999991,
          "durationTicks": 48,
          "midi": 63,
          "name": "D#4",
          "ticks": 7104,
          "time": 19.733358,
          "velocity": 0.7874015748031497
        },
        {
          "duration": 0.13333350000000266,
          "durationTicks": 48,
          "midi": 62,
          "name": "D4",
          "ticks": 7152,
          "time": 19.866691499999998,
          "velocity": 0.7874015748031497
        },
        {
          "duration": 0.1333334999999991,
          "durationTicks": 48,
          "midi": 63,
          "name": "D#4",
          "ticks": 7200,
          "time": 20.000025,
          "velocity": 0.7874015748031497
        },
        {
          "duration": 0.1333334999999991,
          "durationTicks": 48,
          "midi": 62,
          "name": "D4",
          "ticks": 7248,
          "time": 20.1333585,
          "velocity": 0.7874015748031497
        },
        {
          "duration": 0.1333334999999991,
          "durationTicks": 48,
          "midi": 63,
          "name": "D#4",
          "ticks": 7296,
          "time": 20.266692,
          "velocity": 0.7874015748031497
        },
        {
          "duration": 0.1333334999999991,
          "durationTicks": 48,
          "midi": 62,
          "name": "D4",
          "ticks": 7344,
          "time": 20.400025499999998,
          "velocity": 0.7874015748031497
        },
        {
          "duration": 0.13333350000000266,
          "durationTicks": 48,
          "midi": 63,
          "name": "D#4",
          "ticks": 7392,
          "time": 20.533358999999997,
          "velocity": 0.7874015748031497
        },
        {
          "duration": 0.1333334999999991,
          "durationTicks": 48,
          "midi": 62,
          "name": "D4",
          "ticks": 7440,
          "time": 20.6666925,
          "velocity": 0.7874015748031497
        },
        {
          "duration": 0.1333334999999991,
          "durationTicks": 48,
          "midi": 63,
          "name": "D#4",
          "ticks": 7488,
          "time": 20.800026,
          "velocity": 0.7874015748031497
        },
        {
          "duration": 0.13333350000000266,
          "durationTicks": 48,
          "midi": 63,
          "name": "D#4",
          "ticks": 7536,
          "time": 20.933359499999998,
          "velocity": 0.7874015748031497
        },
        {
          "duration": 0.1333334999999991,
          "durationTicks": 48,
          "midi": 75,
          "name": "D#5",
          "ticks": 7632,
          "time": 21.2000265,
          "velocity": 0.7874015748031497
        },
        {
          "duration": 0.26666700000000176,
          "durationTicks": 96,
          "midi": 74,
          "name": "D5",
          "ticks": 7728,
          "time": 21.466693499999998,
          "velocity": 0.7874015748031497
        },
        {
          "duration": 0.2666669999999982,
          "durationTicks": 96,
          "midi": 65,
          "name": "F4",
          "ticks": 7824,
          "time": 21.7333605,
          "velocity": 0.7874015748031497
        },
        {
          "duration": 0.2666669999999982,
          "durationTicks": 96,
          "midi": 62,
          "name": "D4",
          "ticks": 7968,
          "time": 22.133361,
          "velocity": 0.7874015748031497
        },
        {
          "duration": 0.1333334999999991,
          "durationTicks": 48,
          "midi": 63,
          "name": "D#4",
          "ticks": 8064,
          "time": 22.400028,
          "velocity": 0.7874015748031497
        },
        {
          "duration": 0.13333350000000266,
          "durationTicks": 48,
          "midi": 62,
          "name": "D4",
          "ticks": 8160,
          "time": 22.666694999999997,
          "velocity": 0.7874015748031497
        },
        {
          "duration": 0.1333334999999991,
          "durationTicks": 48,
          "midi": 63,
          "name": "D#4",
          "ticks": 8256,
          "time": 22.933362,
          "velocity": 0.7874015748031497
        },
        {
          "duration": 0.1333334999999991,
          "durationTicks": 48,
          "midi": 62,
          "name": "D4",
          "ticks": 8352,
          "time": 23.200029,
          "velocity": 0.7874015748031497
        },
        {
          "duration": 0.1333334999999991,
          "durationTicks": 48,
          "midi": 63,
          "name": "D#4",
          "ticks": 8400,
          "time": 23.3333625,
          "velocity": 0.7874015748031497
        },
        {
          "duration": 0.1333334999999991,
          "durationTicks": 48,
          "midi": 75,
          "name": "D#5",
          "ticks": 8496,
          "time": 23.600029499999998,
          "velocity": 0.7874015748031497
        },
        {
          "duration": 0.1333334999999991,
          "durationTicks": 48,
          "midi": 62,
          "name": "D4",
          "ticks": 8592,
          "time": 23.8666965,
          "velocity": 0.7874015748031497
        },
        {
          "duration": 0.1333334999999991,
          "durationTicks": 48,
          "midi": 63,
          "name": "D#4",
          "ticks": 8640,
          "time": 24.00003,
          "velocity": 0.7874015748031497
        },
        {
          "duration": 0.13333350000000266,
          "durationTicks": 48,
          "midi": 65,
          "name": "F4",
          "ticks": 8688,
          "time": 24.133363499999998,
          "velocity": 0.7874015748031497
        },
        {
          "duration": 0.1333334999999991,
          "durationTicks": 48,
          "midi": 66,
          "name": "F#4",
          "ticks": 8736,
          "time": 24.266697,
          "velocity": 0.7874015748031497
        },
        {
          "duration": 0.533334,
          "durationTicks": 192,
          "midi": 68,
          "name": "G#4",
          "ticks": 8832,
          "time": 24.533364,
          "velocity": 0.7874015748031497
        },
        {
          "duration": 0.533334,
          "durationTicks": 192,
          "midi": 70,
          "name": "A#4",
          "ticks": 9024,
          "time": 25.066698,
          "velocity": 0.7874015748031497
        },
        {
          "duration": 0.533334,
          "durationTicks": 192,
          "midi": 68,
          "name": "G#4",
          "ticks": 9216,
          "time": 25.600032,
          "velocity": 0.7874015748031497
        },
        {
          "duration": 0.1333334999999991,
          "durationTicks": 48,
          "midi": 65,
          "name": "F4",
          "ticks": 9408,
          "time": 26.133366,
          "velocity": 0.7874015748031497
        },
        {
          "duration": 0.1333334999999991,
          "durationTicks": 48,
          "midi": 63,
          "name": "D#4",
          "ticks": 9600,
          "time": 26.6667,
          "velocity": 0.7874015748031497
        },
        {
          "duration": 0.13333350000000266,
          "durationTicks": 48,
          "midi": 62,
          "name": "D4",
          "ticks": 9696,
          "time": 26.933366999999997,
          "velocity": 0.7874015748031497
        },
        {
          "duration": 0.1333334999999991,
          "durationTicks": 48,
          "midi": 63,
          "name": "D#4",
          "ticks": 9792,
          "time": 27.200034,
          "velocity": 0.7874015748031497
        },
        {
          "duration": 0.1333334999999991,
          "durationTicks": 48,
          "midi": 62,
          "name": "D4",
          "ticks": 9888,
          "time": 27.466701,
          "velocity": 0.7874015748031497
        },
        {
          "duration": 0.1333334999999991,
          "durationTicks": 48,
          "midi": 63,
          "name": "D#4",
          "ticks": 9936,
          "time": 27.6000345,
          "velocity": 0.7874015748031497
        },
        {
          "duration": 0.1333334999999991,
          "durationTicks": 48,
          "midi": 75,
          "name": "D#5",
          "ticks": 10032,
          "time": 27.866701499999998,
          "velocity": 0.7874015748031497
        },
        {
          "duration": 0.1333334999999991,
          "durationTicks": 48,
          "midi": 62,
          "name": "D4",
          "ticks": 10128,
          "time": 28.1333685,
          "velocity": 0.7874015748031497
        },
        {
          "duration": 0.1333334999999991,
          "durationTicks": 48,
          "midi": 63,
          "name": "D#4",
          "ticks": 10176,
          "time": 28.266702,
          "velocity": 0.7874015748031497
        },
        {
          "duration": 0.13333350000000266,
          "durationTicks": 48,
          "midi": 62,
          "name": "D4",
          "ticks": 10224,
          "time": 28.400035499999998,
          "velocity": 0.7874015748031497
        },
        {
          "duration": 0.1333334999999991,
          "durationTicks": 48,
          "midi": 63,
          "name": "D#4",
          "ticks": 10272,
          "time": 28.533369,
          "velocity": 0.7874015748031497
        },
        {
          "duration": 0.1333334999999991,
          "durationTicks": 48,
          "midi": 62,
          "name": "D4",
          "ticks": 10320,
          "time": 28.6667025,
          "velocity": 0.7874015748031497
        },
        {
          "duration": 0.1333334999999991,
          "durationTicks": 48,
          "midi": 63,
          "name": "D#4",
          "ticks": 10368,
          "time": 28.800036,
          "velocity": 0.7874015748031497
        },
        {
          "duration": 0.1333334999999991,
          "durationTicks": 48,
          "midi": 62,
          "name": "D4",
          "ticks": 10416,
          "time": 28.933369499999998,
          "velocity": 0.7874015748031497
        },
        {
          "duration": 0.13333350000000266,
          "durationTicks": 48,
          "midi": 63,
          "name": "D#4",
          "ticks": 10464,
          "time": 29.066702999999997,
          "velocity": 0.7874015748031497
        },
        {
          "duration": 0.1333334999999991,
          "durationTicks": 48,
          "midi": 62,
          "name": "D4",
          "ticks": 10512,
          "time": 29.2000365,
          "velocity": 0.7874015748031497
        },
        {
          "duration": 0.1333334999999991,
          "durationTicks": 48,
          "midi": 63,
          "name": "D#4",
          "ticks": 10560,
          "time": 29.33337,
          "velocity": 0.7874015748031497
        },
        {
          "duration": 0.13333350000000266,
          "durationTicks": 48,
          "midi": 63,
          "name": "D#4",
          "ticks": 10608,
          "time": 29.466703499999998,
          "velocity": 0.7874015748031497
        },
        {
          "duration": 0.1333334999999991,
          "durationTicks": 48,
          "midi": 75,
          "name": "D#5",
          "ticks": 10704,
          "time": 29.7333705,
          "velocity": 0.7874015748031497
        },
        {
          "duration": 0.26666700000000176,
          "durationTicks": 96,
          "midi": 74,
          "name": "D5",
          "ticks": 10800,
          "time": 30.000037499999998,
          "velocity": 0.7874015748031497
        },
        {
          "duration": 0.2666669999999982,
          "durationTicks": 96,
          "midi": 65,
          "name": "F4",
          "ticks": 10896,
          "time": 30.2667045,
          "velocity": 0.7874015748031497
        },
        {
          "duration": 0.2666669999999982,
          "durationTicks": 96,
          "midi": 65,
          "name": "F4",
          "ticks": 11040,
          "time": 30.666705,
          "velocity": 0.7874015748031497
        },
        {
          "duration": 0.2666669999999982,
          "durationTicks": 96,
          "midi": 66,
          "name": "F#4",
          "ticks": 11136,
          "time": 30.933372,
          "velocity": 0.7874015748031497
        },
        {
          "duration": 0.1333334999999991,
          "durationTicks": 48,
          "midi": 63,
          "name": "D#4",
          "ticks": 11280,
          "time": 31.3333725,
          "velocity": 0.7874015748031497
        },
        {
          "duration": 0.26666700000000176,
          "durationTicks": 96,
          "midi": 66,
          "name": "F#4",
          "ticks": 11328,
          "time": 31.466706,
          "velocity": 0.7874015748031497
        },
        {
          "duration": 0.1333334999999991,
          "durationTicks": 48,
          "midi": 63,
          "name": "D#4",
          "ticks": 11472,
          "time": 31.8667065,
          "velocity": 0.7874015748031497
        },
        {
          "duration": 0.1333334999999991,
          "durationTicks": 48,
          "midi": 66,
          "name": "F#4",
          "ticks": 11520,
          "time": 32.00004,
          "velocity": 0.7874015748031497
        },
        {
          "duration": 0.1333334999999991,
          "durationTicks": 48,
          "midi": 68,
          "name": "G#4",
          "ticks": 11568,
          "time": 32.1333735,
          "velocity": 0.7874015748031497
        },
        {
          "duration": 0.1333334999999991,
          "durationTicks": 48,
          "midi": 66,
          "name": "F#4",
          "ticks": 11664,
          "time": 32.400040499999996,
          "velocity": 0.7874015748031497
        },
        {
          "duration": 0.1333335000000062,
          "durationTicks": 48,
          "midi": 66,
          "name": "F#4",
          "ticks": 11712,
          "time": 32.533373999999995,
          "velocity": 0.7874015748031497
        },
        {
          "duration": 0.2666669999999982,
          "durationTicks": 96,
          "midi": 63,
          "name": "D#4",
          "ticks": 11808,
          "time": 32.800041,
          "velocity": 0.7874015748031497
        },
        {
          "duration": 0.2666669999999982,
          "durationTicks": 96,
          "midi": 66,
          "name": "F#4",
          "ticks": 11904,
          "time": 33.066708,
          "velocity": 0.7874015748031497
        },
        {
          "duration": 0.1333335000000062,
          "durationTicks": 48,
          "midi": 63,
          "name": "D#4",
          "ticks": 12048,
          "time": 33.466708499999996,
          "velocity": 0.7874015748031497
        },
        {
          "duration": 0.2666669999999982,
          "durationTicks": 96,
          "midi": 66,
          "name": "F#4",
          "ticks": 12096,
          "time": 33.600042,
          "velocity": 0.7874015748031497
        },
        {
          "duration": 0.1333334999999991,
          "durationTicks": 48,
          "midi": 63,
          "name": "D#4",
          "ticks": 12240,
          "time": 34.0000425,
          "velocity": 0.7874015748031497
        },
        {
          "duration": 0.1333334999999991,
          "durationTicks": 48,
          "midi": 70,
          "name": "A#4",
          "ticks": 13200,
          "time": 36.666712499999996,
          "velocity": 0.7874015748031497
        },
        {
          "duration": 0.1333335000000062,
          "durationTicks": 48,
          "midi": 69,
          "name": "A4",
          "ticks": 13248,
          "time": 36.800045999999995,
          "velocity": 0.7874015748031497
        },
        {
          "duration": 0.1333334999999991,
          "durationTicks": 48,
          "midi": 70,
          "name": "A#4",
          "ticks": 13296,
          "time": 36.9333795,
          "velocity": 0.7874015748031497
        },
        {
          "duration": 0.1333334999999991,
          "durationTicks": 48,
          "midi": 71,
          "name": "B4",
          "ticks": 13344,
          "time": 37.066713,
          "velocity": 0.7874015748031497
        },
        {
          "duration": 0.1333334999999991,
          "durationTicks": 48,
          "midi": 70,
          "name": "A#4",
          "ticks": 13392,
          "time": 37.2000465,
          "velocity": 0.7874015748031497
        },
        {
          "duration": 0.2666669999999982,
          "durationTicks": 96,
          "midi": 69,
          "name": "A4",
          "ticks": 13440,
          "time": 37.33338,
          "velocity": 0.7874015748031497
        },
        {
          "duration": 0.2666670000000053,
          "durationTicks": 96,
          "midi": 70,
          "name": "A#4",
          "ticks": 13536,
          "time": 37.600046999999996,
          "velocity": 0.7874015748031497
        },
        {
          "duration": 0.2666669999999982,
          "durationTicks": 96,
          "midi": 71,
          "name": "B4",
          "ticks": 13632,
          "time": 37.866714,
          "velocity": 0.7874015748031497
        },
        {
          "duration": 0.1333334999999991,
          "durationTicks": 48,
          "midi": 70,
          "name": "A#4",
          "ticks": 13728,
          "time": 38.133381,
          "velocity": 0.7874015748031497
        },
        {
          "duration": 0.1333334999999991,
          "durationTicks": 48,
          "midi": 65,
          "name": "F4",
          "ticks": 13824,
          "time": 38.400048,
          "velocity": 0.7874015748031497
        },
        {
          "duration": 0.1333334999999991,
          "durationTicks": 48,
          "midi": 65,
          "name": "F4",
          "ticks": 13872,
          "time": 38.5333815,
          "velocity": 0.7874015748031497
        },
        {
          "duration": 0.04444449999999733,
          "durationTicks": 16,
          "midi": 65,
          "name": "F4",
          "ticks": 13920,
          "time": 38.666714999999996,
          "velocity": 0.4566929133858268
        },
        {
          "duration": 0.04444450000000444,
          "durationTicks": 16,
          "midi": 64,
          "name": "E4",
          "ticks": 13936,
          "time": 38.711159499999994,
          "velocity": 0.4251968503937008
        },
        {
          "duration": 0.04444449999999733,
          "durationTicks": 16,
          "midi": 65,
          "name": "F4",
          "ticks": 13952,
          "time": 38.755604,
          "velocity": 0.4015748031496063
        },
        {
          "duration": 0.04444449999999733,
          "durationTicks": 16,
          "midi": 64,
          "name": "E4",
          "ticks": 13968,
          "time": 38.800048499999995,
          "velocity": 0.3700787401574803
        },
        {
          "duration": 0.04444450000000444,
          "durationTicks": 16,
          "midi": 65,
          "name": "F4",
          "ticks": 13984,
          "time": 38.84449299999999,
          "velocity": 0.3464566929133858
        },
        {
          "duration": 0.04444449999999733,
          "durationTicks": 16,
          "midi": 64,
          "name": "E4",
          "ticks": 14000,
          "time": 38.8889375,
          "velocity": 0.31496062992125984
        },
        {
          "duration": 0.1333334999999991,
          "durationTicks": 48,
          "midi": 68,
          "name": "G#4",
          "ticks": 14256,
          "time": 39.6000495,
          "velocity": 0.7874015748031497
        },
        {
          "duration": 0.1333334999999991,
          "durationTicks": 48,
          "midi": 67,
          "name": "G4",
          "ticks": 14304,
          "time": 39.733382999999996,
          "velocity": 0.7874015748031497
        },
        {
          "duration": 0.1333335000000062,
          "durationTicks": 48,
          "midi": 68,
          "name": "G#4",
          "ticks": 14352,
          "time": 39.866716499999995,
          "velocity": 0.7874015748031497
        },
        {
          "duration": 0.1333334999999991,
          "durationTicks": 48,
          "midi": 69,
          "name": "A4",
          "ticks": 14400,
          "time": 40.00005,
          "velocity": 0.7874015748031497
        },
        {
          "duration": 0.1333334999999991,
          "durationTicks": 48,
          "midi": 68,
          "name": "G#4",
          "ticks": 14448,
          "time": 40.1333835,
          "velocity": 0.7874015748031497
        },
        {
          "duration": 0.2666669999999982,
          "durationTicks": 96,
          "midi": 67,
          "name": "G4",
          "ticks": 14496,
          "time": 40.266717,
          "velocity": 0.7874015748031497
        },
        {
          "duration": 0.2666669999999982,
          "durationTicks": 96,
          "midi": 68,
          "name": "G#4",
          "ticks": 14592,
          "time": 40.533384,
          "velocity": 0.7874015748031497
        },
        {
          "duration": 0.2666669999999982,
          "durationTicks": 96,
          "midi": 69,
          "name": "A4",
          "ticks": 14688,
          "time": 40.800050999999996,
          "velocity": 0.7874015748031497
        },
        {
          "duration": 0.1333335000000062,
          "durationTicks": 48,
          "midi": 68,
          "name": "G#4",
          "ticks": 14784,
          "time": 41.066717999999995,
          "velocity": 0.7874015748031497
        },
        {
          "duration": 0.1333334999999991,
          "durationTicks": 48,
          "midi": 75,
          "name": "D#5",
          "ticks": 14880,
          "time": 41.333385,
          "velocity": 0.7874015748031497
        },
        {
          "duration": 0.1333334999999991,
          "durationTicks": 48,
          "midi": 75,
          "name": "D#5",
          "ticks": 14928,
          "time": 41.4667185,
          "velocity": 0.7874015748031497
        },
        {
          "duration": 0.04444449999999733,
          "durationTicks": 16,
          "midi": 75,
          "name": "D#5",
          "ticks": 14976,
          "time": 41.600052,
          "velocity": 0.4566929133858268
        },
        {
          "duration": 0.04444450000000444,
          "durationTicks": 16,
          "midi": 74,
          "name": "D5",
          "ticks": 14992,
          "time": 41.644496499999995,
          "velocity": 0.4251968503937008
        },
        {
          "duration": 0.04444449999999733,
          "durationTicks": 16,
          "midi": 75,
          "name": "D#5",
          "ticks": 15008,
          "time": 41.688941,
          "velocity": 0.4015748031496063
        },
        {
          "duration": 0.04444449999999733,
          "durationTicks": 16,
          "midi": 74,
          "name": "D5",
          "ticks": 15024,
          "time": 41.7333855,
          "velocity": 0.3700787401574803
        },
        {
          "duration": 0.04444450000000444,
          "durationTicks": 16,
          "midi": 75,
          "name": "D#5",
          "ticks": 15040,
          "time": 41.777829999999994,
          "velocity": 0.3464566929133858
        },
        {
          "duration": 0.04444449999999733,
          "durationTicks": 16,
          "midi": 74,
          "name": "D5",
          "ticks": 15056,
          "time": 41.8222745,
          "velocity": 0.31496062992125984
        },
        {
          "duration": 0.033333374999998,
          "durationTicks": 12,
          "midi": 73,
          "name": "C#5",
          "ticks": 25440,
          "time": 70.666755,
          "velocity": 0.6456692913385826
        },
        {
          "duration": 0.2500003124999921,
          "durationTicks": 90,
          "midi": 75,
          "name": "D#5",
          "ticks": 25446,
          "time": 70.6834216875,
          "velocity": 0.6456692913385826
        },
        {
          "duration": 0.066666749999996,
          "durationTicks": 24,
          "midi": 70,
          "name": "A#4",
          "ticks": 25584,
          "time": 71.0667555,
          "velocity": 0.6456692913385826
        },
        {
          "duration": 0.2666670000000124,
          "durationTicks": 96,
          "midi": 69,
          "name": "A4",
          "ticks": 25632,
          "time": 71.20008899999999,
          "velocity": 0.6456692913385826
        },
        {
          "duration": 0.11111125000000754,
          "durationTicks": 40,
          "midi": 66,
          "name": "F#4",
          "ticks": 25776,
          "time": 71.6000895,
          "velocity": 0.6377952755905512
        },
        {
          "duration": 0.2666669999999982,
          "durationTicks": 96,
          "midi": 69,
          "name": "A4",
          "ticks": 25824,
          "time": 71.733423,
          "velocity": 0.6377952755905512
        },
        {
          "duration": 0.2666669999999982,
          "durationTicks": 96,
          "midi": 71,
          "name": "B4",
          "ticks": 25920,
          "time": 72.00009,
          "velocity": 0.6377952755905512
        },
        {
          "duration": 0.2666669999999982,
          "durationTicks": 96,
          "midi": 70,
          "name": "A#4",
          "ticks": 26016,
          "time": 72.266757,
          "velocity": 0.6299212598425197
        },
        {
          "duration": 0.2666669999999982,
          "durationTicks": 96,
          "midi": 63,
          "name": "D#4",
          "ticks": 26112,
          "time": 72.533424,
          "velocity": 0.6299212598425197
        },
        {
          "duration": 0.033333374999998,
          "durationTicks": 12,
          "midi": 73,
          "name": "C#5",
          "ticks": 26208,
          "time": 72.800091,
          "velocity": 0.6299212598425197
        },
        {
          "duration": 0.2500003124999921,
          "durationTicks": 90,
          "midi": 75,
          "name": "D#5",
          "ticks": 26214,
          "time": 72.8167576875,
          "velocity": 0.6299212598425197
        },
        {
          "duration": 0.066666749999996,
          "durationTicks": 24,
          "midi": 70,
          "name": "A#4",
          "ticks": 26352,
          "time": 73.2000915,
          "velocity": 0.6220472440944882
        },
        {
          "duration": 0.2666669999999982,
          "durationTicks": 96,
          "midi": 69,
          "name": "A4",
          "ticks": 26400,
          "time": 73.33342499999999,
          "velocity": 0.6220472440944882
        },
        {
          "duration": 0.11111125000000754,
          "durationTicks": 40,
          "midi": 66,
          "name": "F#4",
          "ticks": 26544,
          "time": 73.7334255,
          "velocity": 0.6220472440944882
        },
        {
          "duration": 0.2500003125000063,
          "durationTicks": 90,
          "midi": 63,
          "name": "D#4",
          "ticks": 30912,
          "time": 85.86677399999999,
          "velocity": 0.6456692913385826
        },
        {
          "duration": 0.03333337500001221,
          "durationTicks": 12,
          "midi": 73,
          "name": "C#5",
          "ticks": 31008,
          "time": 86.13344099999999,
          "velocity": 0.6456692913385826
        },
        {
          "duration": 0.2500003124999921,
          "durationTicks": 90,
          "midi": 75,
          "name": "D#5",
          "ticks": 31014,
          "time": 86.1501076875,
          "velocity": 0.6456692913385826
        },
        {
          "duration": 0.066666749999996,
          "durationTicks": 24,
          "midi": 70,
          "name": "A#4",
          "ticks": 31152,
          "time": 86.5334415,
          "velocity": 0.6456692913385826
        },
        {
          "duration": 0.2666669999999982,
          "durationTicks": 96,
          "midi": 69,
          "name": "A4",
          "ticks": 31200,
          "time": 86.666775,
          "velocity": 0.6456692913385826
        },
        {
          "duration": 0.11111125000000754,
          "durationTicks": 40,
          "midi": 66,
          "name": "F#4",
          "ticks": 31344,
          "time": 87.06677549999999,
          "velocity": 0.6377952755905512
        },
        {
          "duration": 0.2666669999999982,
          "durationTicks": 96,
          "midi": 69,
          "name": "A4",
          "ticks": 31392,
          "time": 87.200109,
          "velocity": 0.6377952755905512
        },
        {
          "duration": 0.2666669999999982,
          "durationTicks": 96,
          "midi": 71,
          "name": "B4",
          "ticks": 31488,
          "time": 87.466776,
          "velocity": 0.6377952755905512
        },
        {
          "duration": 0.2666669999999982,
          "durationTicks": 96,
          "midi": 70,
          "name": "A#4",
          "ticks": 31584,
          "time": 87.733443,
          "velocity": 0.6299212598425197
        },
        {
          "duration": 0.2500003125000063,
          "durationTicks": 90,
          "midi": 63,
          "name": "D#4",
          "ticks": 32448,
          "time": 90.13344599999999,
          "velocity": 0.6456692913385826
        },
        {
          "duration": 0.03333337500001221,
          "durationTicks": 12,
          "midi": 73,
          "name": "C#5",
          "ticks": 32544,
          "time": 90.40011299999999,
          "velocity": 0.6456692913385826
        },
        {
          "duration": 0.2500003124999921,
          "durationTicks": 90,
          "midi": 75,
          "name": "D#5",
          "ticks": 32550,
          "time": 90.4167796875,
          "velocity": 0.6456692913385826
        },
        {
          "duration": 0.066666749999996,
          "durationTicks": 24,
          "midi": 70,
          "name": "A#4",
          "ticks": 32688,
          "time": 90.8001135,
          "velocity": 0.6456692913385826
        },
        {
          "duration": 0.2666669999999982,
          "durationTicks": 96,
          "midi": 69,
          "name": "A4",
          "ticks": 32736,
          "time": 90.933447,
          "velocity": 0.6456692913385826
        },
        {
          "duration": 0.11111125000000754,
          "durationTicks": 40,
          "midi": 66,
          "name": "F#4",
          "ticks": 32880,
          "time": 91.33344749999999,
          "velocity": 0.6377952755905512
        },
        {
          "duration": 0.066666749999996,
          "durationTicks": 24,
          "midi": 68,
          "name": "G#4",
          "ticks": 32928,
          "time": 91.466781,
          "velocity": 0.6377952755905512
        },
        {
          "duration": 0.066666749999996,
          "durationTicks": 24,
          "midi": 68,
          "name": "G#4",
          "ticks": 32952,
          "time": 91.53344775,
          "velocity": 0.5905511811023622
        },
        {
          "duration": 0.06666675000001021,
          "durationTicks": 24,
          "midi": 68,
          "name": "G#4",
          "ticks": 32976,
          "time": 91.60011449999999,
          "velocity": 0.5590551181102362
        },
        {
          "duration": 0.066666749999996,
          "durationTicks": 24,
          "midi": 68,
          "name": "G#4",
          "ticks": 33000,
          "time": 91.66678125,
          "velocity": 0.5275590551181102
        },
        {
          "duration": 0.066666749999996,
          "durationTicks": 24,
          "midi": 68,
          "name": "G#4",
          "ticks": 33024,
          "time": 91.733448,
          "velocity": 0.4881889763779528
        },
        {
          "duration": 0.06666675000001021,
          "durationTicks": 24,
          "midi": 68,
          "name": "G#4",
          "ticks": 33048,
          "time": 91.80011474999999,
          "velocity": 0.4566929133858268
        },
        {
          "duration": 0.066666749999996,
          "durationTicks": 24,
          "midi": 68,
          "name": "G#4",
          "ticks": 33072,
          "time": 91.8667815,
          "velocity": 0.4251968503937008
        },
        {
          "duration": 0.066666749999996,
          "durationTicks": 24,
          "midi": 68,
          "name": "G#4",
          "ticks": 33096,
          "time": 91.93344825,
          "velocity": 0.3858267716535433
        },
        {
          "duration": 0.066666749999996,
          "durationTicks": 24,
          "midi": 68,
          "name": "G#4",
          "ticks": 33120,
          "time": 92.000115,
          "velocity": 0.3543307086614173
        },
        {
          "duration": 0.06666675000001021,
          "durationTicks": 24,
          "midi": 68,
          "name": "G#4",
          "ticks": 33144,
          "time": 92.06678174999999,
          "velocity": 0.3228346456692913
        },
        {
          "duration": 0.066666749999996,
          "durationTicks": 24,
          "midi": 68,
          "name": "G#4",
          "ticks": 33168,
          "time": 92.1334485,
          "velocity": 0.28346456692913385
        },
        {
          "duration": 0.066666749999996,
          "durationTicks": 24,
          "midi": 68,
          "name": "G#4",
          "ticks": 33192,
          "time": 92.20011525,
          "velocity": 0.25196850393700787
        },
        {
          "duration": 0.2666669999999982,
          "durationTicks": 96,
          "midi": 62,
          "name": "D4",
          "ticks": 33216,
          "time": 92.26678199999999,
          "velocity": 0.7874015748031497
        },
        {
          "duration": 0.06666675000001021,
          "durationTicks": 24,
          "midi": 68,
          "name": "G#4",
          "ticks": 33216,
          "time": 92.26678199999999,
          "velocity": 0.2204724409448819
        },
        {
          "duration": 0.066666749999996,
          "durationTicks": 24,
          "midi": 68,
          "name": "G#4",
          "ticks": 33240,
          "time": 92.33344875,
          "velocity": 0.18110236220472442
        },
        {
          "duration": 0.066666749999996,
          "durationTicks": 24,
          "midi": 68,
          "name": "G#4",
          "ticks": 33264,
          "time": 92.4001155,
          "velocity": 0.14960629921259844
        },
        {
          "duration": 0.066666749999996,
          "durationTicks": 24,
          "midi": 68,
          "name": "G#4",
          "ticks": 33288,
          "time": 92.46678225,
          "velocity": 0.11023622047244094
        },
        {
          "duration": 0.1333335000000062,
          "durationTicks": 48,
          "midi": 63,
          "name": "D#4",
          "ticks": 33312,
          "time": 92.53344899999999,
          "velocity": 0.7874015748031497
        },
        {
          "duration": 0.133333499999992,
          "durationTicks": 48,
          "midi": 62,
          "name": "D4",
          "ticks": 33408,
          "time": 92.800116,
          "velocity": 0.7874015748031497
        },
        {
          "duration": 0.133333499999992,
          "durationTicks": 48,
          "midi": 63,
          "name": "D#4",
          "ticks": 33504,
          "time": 93.066783,
          "velocity": 0.7874015748031497
        },
        {
          "duration": 0.133333499999992,
          "durationTicks": 48,
          "midi": 62,
          "name": "D4",
          "ticks": 33600,
          "time": 93.33345,
          "velocity": 0.7874015748031497
        },
        {
          "duration": 0.1333335000000062,
          "durationTicks": 48,
          "midi": 63,
          "name": "D#4",
          "ticks": 33648,
          "time": 93.46678349999999,
          "velocity": 0.7874015748031497
        },
        {
          "duration": 0.1333335000000062,
          "durationTicks": 48,
          "midi": 75,
          "name": "D#5",
          "ticks": 33744,
          "time": 93.73345049999999,
          "velocity": 0.7874015748031497
        },
        {
          "duration": 0.133333499999992,
          "durationTicks": 48,
          "midi": 62,
          "name": "D4",
          "ticks": 33840,
          "time": 94.0001175,
          "velocity": 0.7874015748031497
        },
        {
          "duration": 0.1333335000000062,
          "durationTicks": 48,
          "midi": 63,
          "name": "D#4",
          "ticks": 33888,
          "time": 94.133451,
          "velocity": 0.7874015748031497
        },
        {
          "duration": 0.1333335000000062,
          "durationTicks": 48,
          "midi": 63,
          "name": "D#4",
          "ticks": 33984,
          "time": 94.40011799999999,
          "velocity": 0.7874015748031497
        },
        {
          "duration": 0.133333499999992,
          "durationTicks": 48,
          "midi": 62,
          "name": "D4",
          "ticks": 34032,
          "time": 94.5334515,
          "velocity": 0.7874015748031497
        },
        {
          "duration": 0.1333335000000062,
          "durationTicks": 48,
          "midi": 63,
          "name": "D#4",
          "ticks": 34080,
          "time": 94.66678499999999,
          "velocity": 0.7874015748031497
        },
        {
          "duration": 0.133333499999992,
          "durationTicks": 48,
          "midi": 62,
          "name": "D4",
          "ticks": 34128,
          "time": 94.8001185,
          "velocity": 0.7874015748031497
        },
        {
          "duration": 0.1333335000000062,
          "durationTicks": 48,
          "midi": 63,
          "name": "D#4",
          "ticks": 34176,
          "time": 94.93345199999999,
          "velocity": 0.7874015748031497
        },
        {
          "duration": 0.1333335000000062,
          "durationTicks": 48,
          "midi": 62,
          "name": "D4",
          "ticks": 34224,
          "time": 95.0667855,
          "velocity": 0.7874015748031497
        },
        {
          "duration": 0.133333499999992,
          "durationTicks": 48,
          "midi": 63,
          "name": "D#4",
          "ticks": 34272,
          "time": 95.200119,
          "velocity": 0.7874015748031497
        },
        {
          "duration": 0.1333335000000062,
          "durationTicks": 48,
          "midi": 63,
          "name": "D#4",
          "ticks": 34320,
          "time": 95.33345249999999,
          "velocity": 0.7874015748031497
        },
        {
          "duration": 0.1333335000000062,
          "durationTicks": 48,
          "midi": 75,
          "name": "D#5",
          "ticks": 34416,
          "time": 95.60011949999999,
          "velocity": 0.7874015748031497
        },
        {
          "duration": 0.2666670000000124,
          "durationTicks": 96,
          "midi": 74,
          "name": "D5",
          "ticks": 34512,
          "time": 95.86678649999999,
          "velocity": 0.7874015748031497
        },
        {
          "duration": 0.2666669999999982,
          "durationTicks": 96,
          "midi": 65,
          "name": "F4",
          "ticks": 34608,
          "time": 96.1334535,
          "velocity": 0.7874015748031497
        },
        {
          "duration": 0.2666669999999982,
          "durationTicks": 96,
          "midi": 62,
          "name": "D4",
          "ticks": 34752,
          "time": 96.53345399999999,
          "velocity": 0.7874015748031497
        },
        {
          "duration": 0.1333335000000062,
          "durationTicks": 48,
          "midi": 63,
          "name": "D#4",
          "ticks": 34848,
          "time": 96.80012099999999,
          "velocity": 0.7874015748031497
        },
        {
          "duration": 0.133333499999992,
          "durationTicks": 48,
          "midi": 62,
          "name": "D4",
          "ticks": 34944,
          "time": 97.066788,
          "velocity": 0.7874015748031497
        },
        {
          "duration": 0.133333499999992,
          "durationTicks": 48,
          "midi": 63,
          "name": "D#4",
          "ticks": 35040,
          "time": 97.333455,
          "velocity": 0.7874015748031497
        },
        {
          "duration": 0.133333499999992,
          "durationTicks": 48,
          "midi": 62,
          "name": "D4",
          "ticks": 35136,
          "time": 97.600122,
          "velocity": 0.7874015748031497
        },
        {
          "duration": 0.1333335000000062,
          "durationTicks": 48,
          "midi": 63,
          "name": "D#4",
          "ticks": 35184,
          "time": 97.73345549999999,
          "velocity": 0.7874015748031497
        },
        {
          "duration": 0.1333335000000062,
          "durationTicks": 48,
          "midi": 75,
          "name": "D#5",
          "ticks": 35280,
          "time": 98.00012249999999,
          "velocity": 0.7874015748031497
        },
        {
          "duration": 0.133333499999992,
          "durationTicks": 48,
          "midi": 62,
          "name": "D4",
          "ticks": 35376,
          "time": 98.2667895,
          "velocity": 0.7874015748031497
        },
        {
          "duration": 0.1333335000000062,
          "durationTicks": 48,
          "midi": 63,
          "name": "D#4",
          "ticks": 35424,
          "time": 98.400123,
          "velocity": 0.7874015748031497
        },
        {
          "duration": 0.133333499999992,
          "durationTicks": 48,
          "midi": 65,
          "name": "F4",
          "ticks": 35472,
          "time": 98.5334565,
          "velocity": 0.7874015748031497
        },
        {
          "duration": 0.1333335000000062,
          "durationTicks": 48,
          "midi": 66,
          "name": "F#4",
          "ticks": 35520,
          "time": 98.66678999999999,
          "velocity": 0.7874015748031497
        },
        {
          "duration": 0.5333340000000106,
          "durationTicks": 192,
          "midi": 68,
          "name": "G#4",
          "ticks": 35616,
          "time": 98.93345699999999,
          "velocity": 0.7874015748031497
        },
        {
          "duration": 0.5333339999999964,
          "durationTicks": 192,
          "midi": 70,
          "name": "A#4",
          "ticks": 35808,
          "time": 99.466791,
          "velocity": 0.7874015748031497
        },
        {
          "duration": 0.5333339999999964,
          "durationTicks": 192,
          "midi": 68,
          "name": "G#4",
          "ticks": 36000,
          "time": 100.000125,
          "velocity": 0.7874015748031497
        },
        {
          "duration": 0.1333335000000062,
          "durationTicks": 48,
          "midi": 65,
          "name": "F4",
          "ticks": 36192,
          "time": 100.533459,
          "velocity": 0.7874015748031497
        },
        {
          "duration": 0.1333335000000062,
          "durationTicks": 48,
          "midi": 63,
          "name": "D#4",
          "ticks": 36384,
          "time": 101.06679299999999,
          "velocity": 0.7874015748031497
        },
        {
          "duration": 0.133333499999992,
          "durationTicks": 48,
          "midi": 62,
          "name": "D4",
          "ticks": 36480,
          "time": 101.33346,
          "velocity": 0.7874015748031497
        },
        {
          "duration": 0.133333499999992,
          "durationTicks": 48,
          "midi": 63,
          "name": "D#4",
          "ticks": 36576,
          "time": 101.600127,
          "velocity": 0.7874015748031497
        },
        {
          "duration": 0.1333335000000062,
          "durationTicks": 48,
          "midi": 63,
          "name": "D#4",
          "ticks": 36624,
          "time": 101.73346049999999,
          "velocity": 0.7874015748031497
        },
        {
          "duration": 0.133333499999992,
          "durationTicks": 48,
          "midi": 62,
          "name": "D4",
          "ticks": 36672,
          "time": 101.866794,
          "velocity": 0.7874015748031497
        },
        {
          "duration": 0.1333335000000062,
          "durationTicks": 48,
          "midi": 63,
          "name": "D#4",
          "ticks": 36720,
          "time": 102.00012749999999,
          "velocity": 0.7874015748031497
        },
        {
          "duration": 0.1333335000000062,
          "durationTicks": 48,
          "midi": 75,
          "name": "D#5",
          "ticks": 36816,
          "time": 102.26679449999999,
          "velocity": 0.7874015748031497
        },
        {
          "duration": 0.133333499999992,
          "durationTicks": 48,
          "midi": 62,
          "name": "D4",
          "ticks": 36912,
          "time": 102.5334615,
          "velocity": 0.7874015748031497
        },
        {
          "duration": 0.1333335000000062,
          "durationTicks": 48,
          "midi": 63,
          "name": "D#4",
          "ticks": 36960,
          "time": 102.666795,
          "velocity": 0.7874015748031497
        },
        {
          "duration": 0.133333499999992,
          "durationTicks": 48,
          "midi": 62,
          "name": "D4",
          "ticks": 37008,
          "time": 102.8001285,
          "velocity": 0.7874015748031497
        },
        {
          "duration": 0.1333335000000062,
          "durationTicks": 48,
          "midi": 63,
          "name": "D#4",
          "ticks": 37056,
          "time": 102.93346199999999,
          "velocity": 0.7874015748031497
        },
        {
          "duration": 0.133333499999992,
          "durationTicks": 48,
          "midi": 62,
          "name": "D4",
          "ticks": 37104,
          "time": 103.0667955,
          "velocity": 0.7874015748031497
        },
        {
          "duration": 0.1333335000000062,
          "durationTicks": 48,
          "midi": 63,
          "name": "D#4",
          "ticks": 37152,
          "time": 103.20012899999999,
          "velocity": 0.7874015748031497
        },
        {
          "duration": 0.133333499999992,
          "durationTicks": 48,
          "midi": 62,
          "name": "D4",
          "ticks": 37200,
          "time": 103.3334625,
          "velocity": 0.7874015748031497
        },
        {
          "duration": 0.1333335000000062,
          "durationTicks": 48,
          "midi": 63,
          "name": "D#4",
          "ticks": 37248,
          "time": 103.46679599999999,
          "velocity": 0.7874015748031497
        },
        {
          "duration": 0.1333335000000062,
          "durationTicks": 48,
          "midi": 62,
          "name": "D4",
          "ticks": 37296,
          "time": 103.6001295,
          "velocity": 0.7874015748031497
        },
        {
          "duration": 0.133333499999992,
          "durationTicks": 48,
          "midi": 63,
          "name": "D#4",
          "ticks": 37344,
          "time": 103.733463,
          "velocity": 0.7874015748031497
        },
        {
          "duration": 0.1333335000000062,
          "durationTicks": 48,
          "midi": 63,
          "name": "D#4",
          "ticks": 37392,
          "time": 103.86679649999999,
          "velocity": 0.7874015748031497
        },
        {
          "duration": 0.1333335000000062,
          "durationTicks": 48,
          "midi": 75,
          "name": "D#5",
          "ticks": 37488,
          "time": 104.13346349999999,
          "velocity": 0.7874015748031497
        },
        {
          "duration": 0.2666670000000124,
          "durationTicks": 96,
          "midi": 74,
          "name": "D5",
          "ticks": 37584,
          "time": 104.40013049999999,
          "velocity": 0.7874015748031497
        },
        {
          "duration": 0.2666669999999982,
          "durationTicks": 96,
          "midi": 65,
          "name": "F4",
          "ticks": 37680,
          "time": 104.6667975,
          "velocity": 0.7874015748031497
        },
        {
          "duration": 0.2666669999999982,
          "durationTicks": 96,
          "midi": 65,
          "name": "F4",
          "ticks": 37824,
          "time": 105.06679799999999,
          "velocity": 0.7874015748031497
        },
        {
          "duration": 0.2666670000000124,
          "durationTicks": 96,
          "midi": 66,
          "name": "F#4",
          "ticks": 37920,
          "time": 105.33346499999999,
          "velocity": 0.7874015748031497
        },
        {
          "duration": 0.1333335000000062,
          "durationTicks": 48,
          "midi": 63,
          "name": "D#4",
          "ticks": 38064,
          "time": 105.7334655,
          "velocity": 0.7874015748031497
        },
        {
          "duration": 0.2666669999999982,
          "durationTicks": 96,
          "midi": 66,
          "name": "F#4",
          "ticks": 38112,
          "time": 105.866799,
          "velocity": 0.7874015748031497
        },
        {
          "duration": 0.1333335000000062,
          "durationTicks": 48,
          "midi": 63,
          "name": "D#4",
          "ticks": 38256,
          "time": 106.26679949999999,
          "velocity": 0.7874015748031497
        },
        {
          "duration": 0.133333499999992,
          "durationTicks": 48,
          "midi": 66,
          "name": "F#4",
          "ticks": 38304,
          "time": 106.400133,
          "velocity": 0.7874015748031497
        },
        {
          "duration": 0.1333335000000062,
          "durationTicks": 48,
          "midi": 68,
          "name": "G#4",
          "ticks": 38352,
          "time": 106.53346649999999,
          "velocity": 0.7874015748031497
        },
        {
          "duration": 0.133333499999992,
          "durationTicks": 48,
          "midi": 66,
          "name": "F#4",
          "ticks": 38448,
          "time": 106.8001335,
          "velocity": 0.7874015748031497
        },
        {
          "duration": 0.1333335000000062,
          "durationTicks": 48,
          "midi": 66,
          "name": "F#4",
          "ticks": 38496,
          "time": 106.933467,
          "velocity": 0.7874015748031497
        },
        {
          "duration": 0.2666669999999982,
          "durationTicks": 96,
          "midi": 63,
          "name": "D#4",
          "ticks": 38592,
          "time": 107.20013399999999,
          "velocity": 0.7874015748031497
        },
        {
          "duration": 0.2666669999999982,
          "durationTicks": 96,
          "midi": 66,
          "name": "F#4",
          "ticks": 38688,
          "time": 107.46680099999999,
          "velocity": 0.7874015748031497
        },
        {
          "duration": 0.1333335000000062,
          "durationTicks": 48,
          "midi": 63,
          "name": "D#4",
          "ticks": 38832,
          "time": 107.8668015,
          "velocity": 0.7874015748031497
        },
        {
          "duration": 0.2666669999999982,
          "durationTicks": 96,
          "midi": 66,
          "name": "F#4",
          "ticks": 38880,
          "time": 108.000135,
          "velocity": 0.7874015748031497
        },
        {
          "duration": 0.1333335000000062,
          "durationTicks": 48,
          "midi": 63,
          "name": "D#4",
          "ticks": 39024,
          "time": 108.40013549999999,
          "velocity": 0.7874015748031497
        },
        {
          "duration": 0.133333499999992,
          "durationTicks": 48,
          "midi": 70,
          "name": "A#4",
          "ticks": 39984,
          "time": 111.0668055,
          "velocity": 0.7874015748031497
        },
        {
          "duration": 0.1333335000000062,
          "durationTicks": 48,
          "midi": 69,
          "name": "A4",
          "ticks": 40032,
          "time": 111.200139,
          "velocity": 0.7874015748031497
        },
        {
          "duration": 0.133333499999992,
          "durationTicks": 48,
          "midi": 70,
          "name": "A#4",
          "ticks": 40080,
          "time": 111.3334725,
          "velocity": 0.7874015748031497
        },
        {
          "duration": 0.1333335000000062,
          "durationTicks": 48,
          "midi": 71,
          "name": "B4",
          "ticks": 40128,
          "time": 111.46680599999999,
          "velocity": 0.7874015748031497
        },
        {
          "duration": 0.133333499999992,
          "durationTicks": 48,
          "midi": 70,
          "name": "A#4",
          "ticks": 40176,
          "time": 111.6001395,
          "velocity": 0.7874015748031497
        },
        {
          "duration": 0.2666669999999982,
          "durationTicks": 96,
          "midi": 69,
          "name": "A4",
          "ticks": 40224,
          "time": 111.73347299999999,
          "velocity": 0.7874015748031497
        },
        {
          "duration": 0.2666670000000124,
          "durationTicks": 96,
          "midi": 70,
          "name": "A#4",
          "ticks": 40320,
          "time": 112.00013999999999,
          "velocity": 0.7874015748031497
        },
        {
          "duration": 0.2666669999999982,
          "durationTicks": 96,
          "midi": 71,
          "name": "B4",
          "ticks": 40416,
          "time": 112.266807,
          "velocity": 0.7874015748031497
        },
        {
          "duration": 0.133333499999992,
          "durationTicks": 48,
          "midi": 70,
          "name": "A#4",
          "ticks": 40512,
          "time": 112.533474,
          "velocity": 0.7874015748031497
        },
        {
          "duration": 0.133333499999992,
          "durationTicks": 48,
          "midi": 65,
          "name": "F4",
          "ticks": 40608,
          "time": 112.800141,
          "velocity": 0.7874015748031497
        },
        {
          "duration": 0.1333335000000062,
          "durationTicks": 48,
          "midi": 65,
          "name": "F4",
          "ticks": 40656,
          "time": 112.93347449999999,
          "velocity": 0.7874015748031497
        },
        {
          "duration": 0.044444500000011544,
          "durationTicks": 16,
          "midi": 65,
          "name": "F4",
          "ticks": 40704,
          "time": 113.066808,
          "velocity": 0.4566929133858268
        },
        {
          "duration": 0.04444449999998312,
          "durationTicks": 16,
          "midi": 64,
          "name": "E4",
          "ticks": 40720,
          "time": 113.1112525,
          "velocity": 0.4251968503937008
        },
        {
          "duration": 0.044444500000011544,
          "durationTicks": 16,
          "midi": 65,
          "name": "F4",
          "ticks": 40736,
          "time": 113.15569699999999,
          "velocity": 0.4015748031496063
        },
        {
          "duration": 0.04444449999999733,
          "durationTicks": 16,
          "midi": 64,
          "name": "E4",
          "ticks": 40752,
          "time": 113.2001415,
          "velocity": 0.3700787401574803
        },
        {
          "duration": 0.04444449999999733,
          "durationTicks": 16,
          "midi": 65,
          "name": "F4",
          "ticks": 40768,
          "time": 113.244586,
          "velocity": 0.3464566929133858
        },
        {
          "duration": 0.04444449999999733,
          "durationTicks": 16,
          "midi": 64,
          "name": "E4",
          "ticks": 40784,
          "time": 113.2890305,
          "velocity": 0.31496062992125984
        },
        {
          "duration": 0.1333335000000062,
          "durationTicks": 48,
          "midi": 68,
          "name": "G#4",
          "ticks": 41040,
          "time": 114.0001425,
          "velocity": 0.7874015748031497
        },
        {
          "duration": 0.133333499999992,
          "durationTicks": 48,
          "midi": 67,
          "name": "G4",
          "ticks": 41088,
          "time": 114.133476,
          "velocity": 0.7874015748031497
        },
        {
          "duration": 0.1333335000000062,
          "durationTicks": 48,
          "midi": 68,
          "name": "G#4",
          "ticks": 41136,
          "time": 114.2668095,
          "velocity": 0.7874015748031497
        },
        {
          "duration": 0.133333499999992,
          "durationTicks": 48,
          "midi": 69,
          "name": "A4",
          "ticks": 41184,
          "time": 114.400143,
          "velocity": 0.7874015748031497
        },
        {
          "duration": 0.1333335000000062,
          "durationTicks": 48,
          "midi": 68,
          "name": "G#4",
          "ticks": 41232,
          "time": 114.53347649999999,
          "velocity": 0.7874015748031497
        },
        {
          "duration": 0.2666669999999982,
          "durationTicks": 96,
          "midi": 67,
          "name": "G4",
          "ticks": 41280,
          "time": 114.66681,
          "velocity": 0.7874015748031497
        },
        {
          "duration": 0.2666669999999982,
          "durationTicks": 96,
          "midi": 68,
          "name": "G#4",
          "ticks": 41376,
          "time": 114.933477,
          "velocity": 0.7874015748031497
        },
        {
          "duration": 0.2666669999999982,
          "durationTicks": 96,
          "midi": 69,
          "name": "A4",
          "ticks": 41472,
          "time": 115.200144,
          "velocity": 0.7874015748031497
        },
        {
          "duration": 0.1333335000000062,
          "durationTicks": 48,
          "midi": 68,
          "name": "G#4",
          "ticks": 41568,
          "time": 115.46681099999999,
          "velocity": 0.7874015748031497
        },
        {
          "duration": 0.1333335000000062,
          "durationTicks": 48,
          "midi": 75,
          "name": "D#5",
          "ticks": 41664,
          "time": 115.73347799999999,
          "velocity": 0.7874015748031497
        },
        {
          "duration": 0.133333499999992,
          "durationTicks": 48,
          "midi": 75,
          "name": "D#5",
          "ticks": 41712,
          "time": 115.8668115,
          "velocity": 0.7874015748031497
        },
        {
          "duration": 0.044444500000011544,
          "durationTicks": 16,
          "midi": 75,
          "name": "D#5",
          "ticks": 41760,
          "time": 116.00014499999999,
          "velocity": 0.4566929133858268
        },
        {
          "duration": 0.04444449999998312,
          "durationTicks": 16,
          "midi": 74,
          "name": "D5",
          "ticks": 41776,
          "time": 116.0445895,
          "velocity": 0.4251968503937008
        },
        {
          "duration": 0.044444500000011544,
          "durationTicks": 16,
          "midi": 75,
          "name": "D#5",
          "ticks": 41792,
          "time": 116.08903399999998,
          "velocity": 0.4015748031496063
        },
        {
          "duration": 0.04444449999999733,
          "durationTicks": 16,
          "midi": 74,
          "name": "D5",
          "ticks": 41808,
          "time": 116.1334785,
          "velocity": 0.3700787401574803
        },
        {
          "duration": 0.04444449999999733,
          "durationTicks": 16,
          "midi": 75,
          "name": "D#5",
          "ticks": 41824,
          "time": 116.17792299999999,
          "velocity": 0.3464566929133858
        },
        {
          "duration": 0.04444449999999733,
          "durationTicks": 16,
          "midi": 74,
          "name": "D5",
          "ticks": 41840,
          "time": 116.22236749999999,
          "velocity": 0.31496062992125984
        },
        {
          "duration": 0.2500003125000205,
          "durationTicks": 90,
          "midi": 63,
          "name": "D#4",
          "ticks": 58272,
          "time": 161.86686899999998,
          "velocity": 0.6850393700787402
        },
        {
          "duration": 0.2666670000000124,
          "durationTicks": 96,
          "midi": 75,
          "name": "D#5",
          "ticks": 58368,
          "time": 162.133536,
          "velocity": 0.6850393700787402
        },
        {
          "duration": 0.066666749999996,
          "durationTicks": 24,
          "midi": 70,
          "name": "A#4",
          "ticks": 58512,
          "time": 162.5335365,
          "velocity": 0.6850393700787402
        },
        {
          "duration": 0.2666670000000124,
          "durationTicks": 96,
          "midi": 68,
          "name": "G#4",
          "ticks": 58560,
          "time": 162.66687,
          "velocity": 0.6850393700787402
        },
        {
          "duration": 0.133333499999992,
          "durationTicks": 48,
          "midi": 66,
          "name": "F#4",
          "ticks": 58704,
          "time": 163.0668705,
          "velocity": 0.6850393700787402
        },
        {
          "duration": 0.2666670000000124,
          "durationTicks": 96,
          "midi": 68,
          "name": "G#4",
          "ticks": 58752,
          "time": 163.20020399999999,
          "velocity": 0.6850393700787402
        },
        {
          "duration": 0.266666999999984,
          "durationTicks": 96,
          "midi": 71,
          "name": "B4",
          "ticks": 58848,
          "time": 163.466871,
          "velocity": 0.6850393700787402
        },
        {
          "duration": 0.2666670000000124,
          "durationTicks": 96,
          "midi": 70,
          "name": "A#4",
          "ticks": 58944,
          "time": 163.73353799999998,
          "velocity": 0.6850393700787402
        },
        {
          "duration": 0.266666999999984,
          "durationTicks": 96,
          "midi": 63,
          "name": "D#4",
          "ticks": 59040,
          "time": 164.000205,
          "velocity": 0.6850393700787402
        },
        {
          "duration": 0.2500003125000205,
          "durationTicks": 90,
          "midi": 75,
          "name": "D#5",
          "ticks": 59136,
          "time": 164.26687199999998,
          "velocity": 0.6850393700787402
        },
        {
          "duration": 0.066666749999996,
          "durationTicks": 24,
          "midi": 70,
          "name": "A#4",
          "ticks": 59280,
          "time": 164.66687249999998,
          "velocity": 0.6850393700787402
        },
        {
          "duration": 0.266666999999984,
          "durationTicks": 96,
          "midi": 68,
          "name": "G#4",
          "ticks": 59328,
          "time": 164.800206,
          "velocity": 0.6850393700787402
        },
        {
          "duration": 0.13333350000002042,
          "durationTicks": 48,
          "midi": 66,
          "name": "F#4",
          "ticks": 59472,
          "time": 165.20020649999998,
          "velocity": 0.6850393700787402
        },
        {
          "duration": 0.266666999999984,
          "durationTicks": 96,
          "midi": 68,
          "name": "G#4",
          "ticks": 59520,
          "time": 165.33354,
          "velocity": 0.6850393700787402
        },
        {
          "duration": 0.13333350000002042,
          "durationTicks": 48,
          "midi": 66,
          "name": "F#4",
          "ticks": 59616,
          "time": 165.60020699999998,
          "velocity": 0.6850393700787402
        },
        {
          "duration": 0.133333499999992,
          "durationTicks": 48,
          "midi": 65,
          "name": "F4",
          "ticks": 59664,
          "time": 165.7335405,
          "velocity": 0.6850393700787402
        },
        {
          "duration": 0.266666999999984,
          "durationTicks": 96,
          "midi": 66,
          "name": "F#4",
          "ticks": 59712,
          "time": 165.866874,
          "velocity": 0.6850393700787402
        },
        {
          "duration": 0.2500003125000205,
          "durationTicks": 90,
          "midi": 63,
          "name": "D#4",
          "ticks": 59808,
          "time": 166.13354099999998,
          "velocity": 0.6850393700787402
        },
        {
          "duration": 0.2666670000000124,
          "durationTicks": 96,
          "midi": 75,
          "name": "D#5",
          "ticks": 59904,
          "time": 166.400208,
          "velocity": 0.6850393700787402
        },
        {
          "duration": 0.066666749999996,
          "durationTicks": 24,
          "midi": 70,
          "name": "A#4",
          "ticks": 60048,
          "time": 166.8002085,
          "velocity": 0.6850393700787402
        },
        {
          "duration": 0.266666999999984,
          "durationTicks": 96,
          "midi": 58,
          "name": "A#3",
          "ticks": 61728,
          "time": 171.466881,
          "velocity": 0.6535433070866141
        },
        {
          "duration": 0.2666670000000124,
          "durationTicks": 96,
          "midi": 70,
          "name": "A#4",
          "ticks": 61824,
          "time": 171.73354799999998,
          "velocity": 0.6535433070866141
        },
        {
          "duration": 0.03333337500001221,
          "durationTicks": 12,
          "midi": 69,
          "name": "A4",
          "ticks": 61968,
          "time": 172.1335485,
          "velocity": 0.6535433070866141
        },
        {
          "duration": 0.03333337500001221,
          "durationTicks": 12,
          "midi": 69,
          "name": "A4",
          "ticks": 61992,
          "time": 172.20021524999999,
          "velocity": 0.6535433070866141
        },
        {
          "duration": 0.2666670000000124,
          "durationTicks": 96,
          "midi": 70,
          "name": "A#4",
          "ticks": 62016,
          "time": 172.26688199999998,
          "velocity": 0.6535433070866141
        },
        {
          "duration": 0.133333499999992,
          "durationTicks": 48,
          "midi": 69,
          "name": "A4",
          "ticks": 62160,
          "time": 172.66688249999999,
          "velocity": 0.6535433070866141
        },
        {
          "duration": 0.13333350000002042,
          "durationTicks": 48,
          "midi": 70,
          "name": "A#4",
          "ticks": 62208,
          "time": 172.80021599999998,
          "velocity": 0.6535433070866141
        },
        {
          "duration": 0.133333499999992,
          "durationTicks": 48,
          "midi": 69,
          "name": "A4",
          "ticks": 62256,
          "time": 172.9335495,
          "velocity": 0.6535433070866141
        },
        {
          "duration": 0.133333499999992,
          "durationTicks": 48,
          "midi": 70,
          "name": "A#4",
          "ticks": 62304,
          "time": 173.066883,
          "velocity": 0.6535433070866141
        },
        {
          "duration": 0.13333350000002042,
          "durationTicks": 48,
          "midi": 69,
          "name": "A4",
          "ticks": 62352,
          "time": 173.20021649999998,
          "velocity": 0.6535433070866141
        },
        {
          "duration": 0.266666999999984,
          "durationTicks": 96,
          "midi": 70,
          "name": "A#4",
          "ticks": 62400,
          "time": 173.33355,
          "velocity": 0.6535433070866141
        },
        {
          "duration": 0.03333337500001221,
          "durationTicks": 12,
          "midi": 76,
          "name": "E5",
          "ticks": 62496,
          "time": 173.600217,
          "velocity": 0.6535433070866141
        },
        {
          "duration": 0.2333336250000002,
          "durationTicks": 84,
          "midi": 78,
          "name": "F#5",
          "ticks": 62508,
          "time": 173.633550375,
          "velocity": 0.6535433070866141
        },
        {
          "duration": 0.133333499999992,
          "durationTicks": 48,
          "midi": 66,
          "name": "F#4",
          "ticks": 62592,
          "time": 173.866884,
          "velocity": 0.6535433070866141
        },
        {
          "duration": 0.03333337500001221,
          "durationTicks": 12,
          "midi": 67,
          "name": "G4",
          "ticks": 62688,
          "time": 174.13355099999998,
          "velocity": 0.6535433070866141
        },
        {
          "duration": 0.24444474999998533,
          "durationTicks": 88,
          "midi": 68,
          "name": "G#4",
          "ticks": 62696,
          "time": 174.15577325,
          "velocity": 0.6535433070866141
        },
        {
          "duration": 0.133333499999992,
          "durationTicks": 48,
          "midi": 62,
          "name": "D4",
          "ticks": 62784,
          "time": 174.400218,
          "velocity": 0.6535433070866141
        },
        {
          "duration": 0.133333499999992,
          "durationTicks": 48,
          "midi": 63,
          "name": "D#4",
          "ticks": 62832,
          "time": 174.5335515,
          "velocity": 0.6535433070866141
        },
        {
          "duration": 0.13333350000002042,
          "durationTicks": 48,
          "midi": 65,
          "name": "F4",
          "ticks": 62880,
          "time": 174.66688499999998,
          "velocity": 0.6535433070866141
        },
        {
          "duration": 0.133333499999992,
          "durationTicks": 48,
          "midi": 66,
          "name": "F#4",
          "ticks": 62928,
          "time": 174.8002185,
          "velocity": 0.6535433070866141
        },
        {
          "duration": 0.2500003124999921,
          "durationTicks": 90,
          "midi": 67,
          "name": "G4",
          "ticks": 74400,
          "time": 206.666925,
          "velocity": 0.6456692913385826
        },
        {
          "duration": 0.03333337500001221,
          "durationTicks": 12,
          "midi": 77,
          "name": "F5",
          "ticks": 74496,
          "time": 206.93359199999998,
          "velocity": 0.6456692913385826
        },
        {
          "duration": 0.2500003124999921,
          "durationTicks": 90,
          "midi": 79,
          "name": "G5",
          "ticks": 74502,
          "time": 206.9502586875,
          "velocity": 0.6456692913385826
        },
        {
          "duration": 0.066666749999996,
          "durationTicks": 24,
          "midi": 74,
          "name": "D5",
          "ticks": 74640,
          "time": 207.33359249999998,
          "velocity": 0.6456692913385826
        },
        {
          "duration": 0.266666999999984,
          "durationTicks": 96,
          "midi": 73,
          "name": "C#5",
          "ticks": 74688,
          "time": 207.466926,
          "velocity": 0.6456692913385826
        },
        {
          "duration": 0.13333350000002042,
          "durationTicks": 48,
          "midi": 70,
          "name": "A#4",
          "ticks": 74832,
          "time": 207.86692649999998,
          "velocity": 0.6377952755905512
        },
        {
          "duration": 0.133333499999992,
          "durationTicks": 48,
          "midi": 75,
          "name": "D#5",
          "ticks": 74880,
          "time": 208.00026,
          "velocity": 0.6377952755905512
        },
        {
          "duration": 0.133333499999992,
          "durationTicks": 48,
          "midi": 73,
          "name": "C#5",
          "ticks": 74928,
          "time": 208.1335935,
          "velocity": 0.6377952755905512
        },
        {
          "duration": 0.13333350000002042,
          "durationTicks": 48,
          "midi": 75,
          "name": "D#5",
          "ticks": 74976,
          "time": 208.26692699999998,
          "velocity": 0.6377952755905512
        },
        {
          "duration": 0.133333499999992,
          "durationTicks": 48,
          "midi": 75,
          "name": "D#5",
          "ticks": 75024,
          "time": 208.4002605,
          "velocity": 0.6377952755905512
        },
        {
          "duration": 0.266666999999984,
          "durationTicks": 96,
          "midi": 74,
          "name": "D5",
          "ticks": 75072,
          "time": 208.533594,
          "velocity": 0.6299212598425197
        },
        {
          "duration": 0.2666670000000124,
          "durationTicks": 96,
          "midi": 67,
          "name": "G4",
          "ticks": 75168,
          "time": 208.80026099999998,
          "velocity": 0.6299212598425197
        },
        {
          "duration": 0.03333337500001221,
          "durationTicks": 12,
          "midi": 77,
          "name": "F5",
          "ticks": 75264,
          "time": 209.066928,
          "velocity": 0.6299212598425197
        },
        {
          "duration": 0.2500003125000205,
          "durationTicks": 90,
          "midi": 79,
          "name": "G5",
          "ticks": 75270,
          "time": 209.08359468749998,
          "velocity": 0.6299212598425197
        },
        {
          "duration": 0.066666749999996,
          "durationTicks": 24,
          "midi": 74,
          "name": "D5",
          "ticks": 75408,
          "time": 209.4669285,
          "velocity": 0.6456692913385826
        },
        {
          "duration": 0.2666670000000124,
          "durationTicks": 96,
          "midi": 73,
          "name": "C#5",
          "ticks": 75456,
          "time": 209.600262,
          "velocity": 0.6456692913385826
        },
        {
          "duration": 0.133333499999992,
          "durationTicks": 48,
          "midi": 70,
          "name": "A#4",
          "ticks": 75600,
          "time": 210.0002625,
          "velocity": 0.6377952755905512
        },
        {
          "duration": 0.0722223125000312,
          "durationTicks": 26,
          "midi": 73,
          "name": "C#5",
          "ticks": 75648,
          "time": 210.13359599999998,
          "velocity": 0.6456692913385826
        },
        {
          "duration": 0.07222231250000277,
          "durationTicks": 26,
          "midi": 74,
          "name": "D5",
          "ticks": 75696,
          "time": 210.2669295,
          "velocity": 0.6456692913385826
        },
        {
          "duration": 0.07222231250000277,
          "durationTicks": 26,
          "midi": 75,
          "name": "D#5",
          "ticks": 75744,
          "time": 210.400263,
          "velocity": 0.6456692913385826
        },
        {
          "duration": 0.07222231250000277,
          "durationTicks": 26,
          "midi": 76,
          "name": "E5",
          "ticks": 75792,
          "time": 210.5335965,
          "velocity": 0.6456692913385826
        },
        {
          "duration": 0.0722223125000312,
          "durationTicks": 26,
          "midi": 77,
          "name": "F5",
          "ticks": 75840,
          "time": 210.66692999999998,
          "velocity": 0.6456692913385826
        },
        {
          "duration": 0.07222231250000277,
          "durationTicks": 26,
          "midi": 78,
          "name": "F#5",
          "ticks": 75888,
          "time": 210.8002635,
          "velocity": 0.6456692913385826
        },
        {
          "duration": 0.07222231250000277,
          "durationTicks": 26,
          "midi": 79,
          "name": "G5",
          "ticks": 75936,
          "time": 210.933597,
          "velocity": 0.6456692913385826
        },
        {
          "duration": 0.07222231250000277,
          "durationTicks": 26,
          "midi": 80,
          "name": "G#5",
          "ticks": 75984,
          "time": 211.06693049999998,
          "velocity": 0.6456692913385826
        },
        {
          "duration": 0.07222231250000277,
          "durationTicks": 26,
          "midi": 81,
          "name": "A5",
          "ticks": 76032,
          "time": 211.200264,
          "velocity": 0.6456692913385826
        },
        {
          "duration": 0.07222231250000277,
          "durationTicks": 26,
          "midi": 82,
          "name": "A#5",
          "ticks": 76080,
          "time": 211.3335975,
          "velocity": 0.6456692913385826
        },
        {
          "duration": 0.07222231250000277,
          "durationTicks": 26,
          "midi": 83,
          "name": "B5",
          "ticks": 76128,
          "time": 211.466931,
          "velocity": 0.6456692913385826
        },
        {
          "duration": 0.0722223125000312,
          "durationTicks": 26,
          "midi": 84,
          "name": "C6",
          "ticks": 76176,
          "time": 211.60026449999998,
          "velocity": 0.6456692913385826
        }
      ],
      "endOfTrackTicks": 82491
    },
    {
      "channel": 0,
      "controlChanges": {
        "6": [
          {
            "number": 6,
            "ticks": 0,
            "time": 0,
            "value": 0.09448818897637795
          },
          {
            "number": 6,
            "ticks": 0,
            "time": 0,
            "value": 0.09448818897637795
          },
          {
            "number": 6,
            "ticks": 0,
            "time": 0,
            "value": 0.09448818897637795
          },
          {
            "number": 6,
            "ticks": 82466,
            "time": 228.45777604166662,
            "value": 0.09448818897637795
          },
          {
            "number": 6,
            "ticks": 82491,
            "time": 228.52722057291663,
            "value": 0.09448818897637795
          }
        ],
        "7": [
          {
            "number": 7,
            "ticks": 0,
            "time": 0,
            "value": 0.7874015748031497
          },
          {
            "number": 7,
            "ticks": 0,
            "time": 0,
            "value": 0.7874015748031497
          },
          {
            "number": 7,
            "ticks": 0,
            "time": 0,
            "value": 0.7874015748031497
          },
          {
            "number": 7,
            "ticks": 0,
            "time": 0,
            "value": 0.7874015748031497
          },
          {
            "number": 7,
            "ticks": 82466,
            "time": 228.45777604166662,
            "value": 0.7874015748031497
          },
          {
            "number": 7,
            "ticks": 82491,
            "time": 228.52722057291663,
            "value": 0.7874015748031497
          }
        ],
        "10": [
          {
            "number": 10,
            "ticks": 0,
            "time": 0,
            "value": 0.5039370078740157
          },
          {
            "number": 10,
            "ticks": 0,
            "time": 0,
            "value": 0.5039370078740157
          },
          {
            "number": 10,
            "ticks": 0,
            "time": 0,
            "value": 0.5039370078740157
          },
          {
            "number": 10,
            "ticks": 0,
            "time": 0,
            "value": 0.5039370078740157
          },
          {
            "number": 10,
            "ticks": 82466,
            "time": 228.45777604166662,
            "value": 0.5039370078740157
          },
          {
            "number": 10,
            "ticks": 82491,
            "time": 228.52722057291663,
            "value": 0.5039370078740157
          }
        ],
        "100": [
          {
            "number": 100,
            "ticks": 0,
            "time": 0,
            "value": 0
          },
          {
            "number": 100,
            "ticks": 0,
            "time": 0,
            "value": 0
          },
          {
            "number": 100,
            "ticks": 0,
            "time": 0,
            "value": 0
          },
          {
            "number": 100,
            "ticks": 82466,
            "time": 228.45777604166662,
            "value": 0
          },
          {
            "number": 100,
            "ticks": 82491,
            "time": 228.52722057291663,
            "value": 0
          }
        ],
        "101": [
          {
            "number": 101,
            "ticks": 0,
            "time": 0,
            "value": 0
          },
          {
            "number": 101,
            "ticks": 0,
            "time": 0,
            "value": 0
          },
          {
            "number": 101,
            "ticks": 0,
            "time": 0,
            "value": 0
          },
          {
            "number": 101,
            "ticks": 82466,
            "time": 228.45777604166662,
            "value": 0
          },
          {
            "number": 101,
            "ticks": 82491,
            "time": 228.52722057291663,
            "value": 0
          }
        ]
      },
      "pitchBends": [
        {
          "ticks": 0,
          "time": 0,
          "value": 0
        },
        {
          "ticks": 0,
          "time": 0,
          "value": 0
        },
        {
          "ticks": 0,
          "time": 0,
          "value": 0
        },
        {
          "ticks": 0,
          "time": 0,
          "value": 0
        },
        {
          "ticks": 82466,
          "time": 228.45777604166662,
          "value": 0
        },
        {
          "ticks": 82491,
          "time": 228.52722057291663,
          "value": 0
        }
      ],
      "instrument": {
        "family": "piano",
        "number": 0,
        "name": "acoustic grand piano"
      },
      "name": "Holy",
      "notes": [
        {
          "duration": 0.133333499999992,
          "durationTicks": 48,
          "midi": 70,
          "name": "A#4",
          "ticks": 65376,
          "time": 181.600227,
          "velocity": 0.8188976377952756
        },
        {
          "duration": 0.066666749999996,
          "durationTicks": 24,
          "midi": 71,
          "name": "B4",
          "ticks": 65424,
          "time": 181.73356049999998,
          "velocity": 0.8188976377952756
        },
        {
          "duration": 0.133333499999992,
          "durationTicks": 48,
          "midi": 70,
          "name": "A#4",
          "ticks": 65472,
          "time": 181.866894,
          "velocity": 0.8188976377952756
        },
        {
          "duration": 0.133333499999992,
          "durationTicks": 48,
          "midi": 71,
          "name": "B4",
          "ticks": 65520,
          "time": 182.0002275,
          "velocity": 0.8188976377952756
        },
        {
          "duration": 0.133333499999992,
          "durationTicks": 48,
          "midi": 70,
          "name": "A#4",
          "ticks": 65568,
          "time": 182.133561,
          "velocity": 0.8188976377952756
        },
        {
          "duration": 0.06666675000002442,
          "durationTicks": 24,
          "midi": 71,
          "name": "B4",
          "ticks": 65616,
          "time": 182.26689449999998,
          "velocity": 0.8188976377952756
        },
        {
          "duration": 0.133333499999992,
          "durationTicks": 48,
          "midi": 73,
          "name": "C#5",
          "ticks": 65664,
          "time": 182.400228,
          "velocity": 0.8188976377952756
        },
        {
          "duration": 0.133333499999992,
          "durationTicks": 48,
          "midi": 74,
          "name": "D5",
          "ticks": 65712,
          "time": 182.5335615,
          "velocity": 0.8188976377952756
        },
        {
          "duration": 0.13333350000002042,
          "durationTicks": 48,
          "midi": 73,
          "name": "C#5",
          "ticks": 65760,
          "time": 182.66689499999998,
          "velocity": 0.8188976377952756
        },
        {
          "duration": 0.133333499999992,
          "durationTicks": 48,
          "midi": 74,
          "name": "D5",
          "ticks": 65808,
          "time": 182.8002285,
          "velocity": 0.8188976377952756
        },
        {
          "duration": 0.133333499999992,
          "durationTicks": 48,
          "midi": 73,
          "name": "C#5",
          "ticks": 65856,
          "time": 182.933562,
          "velocity": 0.8188976377952756
        }
      ],
      "endOfTrackTicks": 82491
    },
    {
      "channel": 1,
      "controlChanges": {
        "6": [
          {
            "number": 6,
            "ticks": 0,
            "time": 0,
            "value": 0.09448818897637795
          },
          {
            "number": 6,
            "ticks": 0,
            "time": 0,
            "value": 0.09448818897637795
          },
          {
            "number": 6,
            "ticks": 0,
            "time": 0,
            "value": 0.09448818897637795
          },
          {
            "number": 6,
            "ticks": 82466,
            "time": 228.45777604166662,
            "value": 0.09448818897637795
          },
          {
            "number": 6,
            "ticks": 82491,
            "time": 228.52722057291663,
            "value": 0.09448818897637795
          }
        ],
        "7": [
          {
            "number": 7,
            "ticks": 0,
            "time": 0,
            "value": 0.7874015748031497
          },
          {
            "number": 7,
            "ticks": 0,
            "time": 0,
            "value": 0.7874015748031497
          },
          {
            "number": 7,
            "ticks": 0,
            "time": 0,
            "value": 0.7874015748031497
          },
          {
            "number": 7,
            "ticks": 0,
            "time": 0,
            "value": 0.7874015748031497
          },
          {
            "number": 7,
            "ticks": 82466,
            "time": 228.45777604166662,
            "value": 0.7874015748031497
          },
          {
            "number": 7,
            "ticks": 82491,
            "time": 228.52722057291663,
            "value": 0.7874015748031497
          }
        ],
        "10": [
          {
            "number": 10,
            "ticks": 0,
            "time": 0,
            "value": 0.5039370078740157
          },
          {
            "number": 10,
            "ticks": 0,
            "time": 0,
            "value": 0.5039370078740157
          },
          {
            "number": 10,
            "ticks": 0,
            "time": 0,
            "value": 0.5039370078740157
          },
          {
            "number": 10,
            "ticks": 0,
            "time": 0,
            "value": 0.5039370078740157
          },
          {
            "number": 10,
            "ticks": 82466,
            "time": 228.45777604166662,
            "value": 0.5039370078740157
          },
          {
            "number": 10,
            "ticks": 82491,
            "time": 228.52722057291663,
            "value": 0.5039370078740157
          }
        ],
        "100": [
          {
            "number": 100,
            "ticks": 0,
            "time": 0,
            "value": 0
          },
          {
            "number": 100,
            "ticks": 0,
            "time": 0,
            "value": 0
          },
          {
            "number": 100,
            "ticks": 0,
            "time": 0,
            "value": 0
          },
          {
            "number": 100,
            "ticks": 82466,
            "time": 228.45777604166662,
            "value": 0
          },
          {
            "number": 100,
            "ticks": 82491,
            "time": 228.52722057291663,
            "value": 0
          }
        ],
        "101": [
          {
            "number": 101,
            "ticks": 0,
            "time": 0,
            "value": 0
          },
          {
            "number": 101,
            "ticks": 0,
            "time": 0,
            "value": 0
          },
          {
            "number": 101,
            "ticks": 0,
            "time": 0,
            "value": 0
          },
          {
            "number": 101,
            "ticks": 82466,
            "time": 228.45777604166662,
            "value": 0
          },
          {
            "number": 101,
            "ticks": 82491,
            "time": 228.52722057291663,
            "value": 0
          }
        ]
      },
      "pitchBends": [
        {
          "ticks": 0,
          "time": 0,
          "value": 0
        },
        {
          "ticks": 0,
          "time": 0,
          "value": 0
        },
        {
          "ticks": 0,
          "time": 0,
          "value": 0
        },
        {
          "ticks": 0,
          "time": 0,
          "value": 0
        },
        {
          "ticks": 82466,
          "time": 228.45777604166662,
          "value": 0
        },
        {
          "ticks": 82491,
          "time": 228.52722057291663,
          "value": 0
        }
      ],
      "instrument": {
        "family": "piano",
        "number": 0,
        "name": "acoustic grand piano"
      },
      "name": "What is she Saying",
      "notes": [
        {
          "duration": 0.033333374999998,
          "durationTicks": 12,
          "midi": 28,
          "name": "E1",
          "ticks": 26784,
          "time": 74.400093,
          "velocity": 0.7086614173228346
        },
        {
          "duration": 0.133333499999992,
          "durationTicks": 48,
          "midi": 64,
          "name": "E4",
          "ticks": 26784,
          "time": 74.400093,
          "velocity": 0.5118110236220472
        },
        {
          "duration": 0.033333374999998,
          "durationTicks": 12,
          "midi": 28,
          "name": "E1",
          "ticks": 26808,
          "time": 74.46675975,
          "velocity": 0.7322834645669292
        },
        {
          "duration": 0.03333337500001221,
          "durationTicks": 12,
          "midi": 28,
          "name": "E1",
          "ticks": 26832,
          "time": 74.53342649999999,
          "velocity": 0.7559055118110236
        },
        {
          "duration": 0.022222249999998667,
          "durationTicks": 8,
          "midi": 64,
          "name": "E4",
          "ticks": 26832,
          "time": 74.53342649999999,
          "velocity": 0.36220472440944884
        },
        {
          "duration": 0.033333374999998,
          "durationTicks": 12,
          "midi": 28,
          "name": "E1",
          "ticks": 26856,
          "time": 74.60009325,
          "velocity": 0.7795275590551181
        },
        {
          "duration": 0.033333374999998,
          "durationTicks": 12,
          "midi": 28,
          "name": "E1",
          "ticks": 26880,
          "time": 74.66676,
          "velocity": 0.8031496062992126
        },
        {
          "duration": 0.1333335000000062,
          "durationTicks": 48,
          "midi": 61,
          "name": "C#4",
          "ticks": 26880,
          "time": 74.66676,
          "velocity": 0.5118110236220472
        },
        {
          "duration": 0.033333374999998,
          "durationTicks": 12,
          "midi": 28,
          "name": "E1",
          "ticks": 26904,
          "time": 74.73342674999999,
          "velocity": 0.8346456692913385
        },
        {
          "duration": 0.044444500000011544,
          "durationTicks": 16,
          "midi": 39,
          "name": "D#2",
          "ticks": 27168,
          "time": 75.46676099999999,
          "velocity": 0.6220472440944882
        },
        {
          "duration": 0.044444500000011544,
          "durationTicks": 16,
          "midi": 51,
          "name": "D#3",
          "ticks": 27168,
          "time": 75.46676099999999,
          "velocity": 0.6220472440944882
        },
        {
          "duration": 0.04444449999999733,
          "durationTicks": 16,
          "midi": 39,
          "name": "D#2",
          "ticks": 27264,
          "time": 75.733428,
          "velocity": 0.6220472440944882
        },
        {
          "duration": 0.04444449999999733,
          "durationTicks": 16,
          "midi": 51,
          "name": "D#3",
          "ticks": 27264,
          "time": 75.733428,
          "velocity": 0.6220472440944882
        },
        {
          "duration": 0.04444449999999733,
          "durationTicks": 16,
          "midi": 51,
          "name": "D#3",
          "ticks": 27360,
          "time": 76.000095,
          "velocity": 0.6220472440944882
        },
        {
          "duration": 0.04444449999999733,
          "durationTicks": 16,
          "midi": 39,
          "name": "D#2",
          "ticks": 27360,
          "time": 76.000095,
          "velocity": 0.6220472440944882
        },
        {
          "duration": 0.04444449999999733,
          "durationTicks": 16,
          "midi": 51,
          "name": "D#3",
          "ticks": 27384,
          "time": 76.06676175,
          "velocity": 0.6220472440944882
        },
        {
          "duration": 0.04444449999999733,
          "durationTicks": 16,
          "midi": 39,
          "name": "D#2",
          "ticks": 27384,
          "time": 76.06676175,
          "velocity": 0.6220472440944882
        },
        {
          "duration": 0.044444500000011544,
          "durationTicks": 16,
          "midi": 51,
          "name": "D#3",
          "ticks": 27408,
          "time": 76.1334285,
          "velocity": 0.6220472440944882
        },
        {
          "duration": 0.044444500000011544,
          "durationTicks": 16,
          "midi": 39,
          "name": "D#2",
          "ticks": 27408,
          "time": 76.1334285,
          "velocity": 0.6220472440944882
        },
        {
          "duration": 0.044444500000011544,
          "durationTicks": 16,
          "midi": 39,
          "name": "D#2",
          "ticks": 27432,
          "time": 76.20009524999999,
          "velocity": 0.6220472440944882
        },
        {
          "duration": 0.044444500000011544,
          "durationTicks": 16,
          "midi": 51,
          "name": "D#3",
          "ticks": 27432,
          "time": 76.20009524999999,
          "velocity": 0.6220472440944882
        },
        {
          "duration": 0.04444449999999733,
          "durationTicks": 16,
          "midi": 51,
          "name": "D#3",
          "ticks": 27456,
          "time": 76.266762,
          "velocity": 0.6220472440944882
        },
        {
          "duration": 0.04444449999999733,
          "durationTicks": 16,
          "midi": 39,
          "name": "D#2",
          "ticks": 27456,
          "time": 76.266762,
          "velocity": 0.6220472440944882
        },
        {
          "duration": 0.04444449999999733,
          "durationTicks": 16,
          "midi": 39,
          "name": "D#2",
          "ticks": 27552,
          "time": 76.533429,
          "velocity": 0.6220472440944882
        },
        {
          "duration": 0.04444449999999733,
          "durationTicks": 16,
          "midi": 51,
          "name": "D#3",
          "ticks": 27552,
          "time": 76.533429,
          "velocity": 0.6220472440944882
        },
        {
          "duration": 0.044444500000011544,
          "durationTicks": 16,
          "midi": 39,
          "name": "D#2",
          "ticks": 27576,
          "time": 76.60009575,
          "velocity": 0.6220472440944882
        },
        {
          "duration": 0.044444500000011544,
          "durationTicks": 16,
          "midi": 51,
          "name": "D#3",
          "ticks": 27576,
          "time": 76.60009575,
          "velocity": 0.6220472440944882
        },
        {
          "duration": 0.044444500000011544,
          "durationTicks": 16,
          "midi": 39,
          "name": "D#2",
          "ticks": 27600,
          "time": 76.66676249999999,
          "velocity": 0.6220472440944882
        },
        {
          "duration": 0.044444500000011544,
          "durationTicks": 16,
          "midi": 51,
          "name": "D#3",
          "ticks": 27600,
          "time": 76.66676249999999,
          "velocity": 0.6220472440944882
        },
        {
          "duration": 0.04444449999999733,
          "durationTicks": 16,
          "midi": 39,
          "name": "D#2",
          "ticks": 27624,
          "time": 76.73342925,
          "velocity": 0.6220472440944882
        },
        {
          "duration": 0.04444449999999733,
          "durationTicks": 16,
          "midi": 51,
          "name": "D#3",
          "ticks": 27624,
          "time": 76.73342925,
          "velocity": 0.6220472440944882
        },
        {
          "duration": 0.044444500000011544,
          "durationTicks": 16,
          "midi": 51,
          "name": "D#3",
          "ticks": 27648,
          "time": 76.800096,
          "velocity": 0.6220472440944882
        },
        {
          "duration": 0.044444500000011544,
          "durationTicks": 16,
          "midi": 39,
          "name": "D#2",
          "ticks": 27648,
          "time": 76.800096,
          "velocity": 0.6220472440944882
        },
        {
          "duration": 0.044444500000011544,
          "durationTicks": 16,
          "midi": 39,
          "name": "D#2",
          "ticks": 27672,
          "time": 76.86676274999999,
          "velocity": 0.6220472440944882
        },
        {
          "duration": 0.044444500000011544,
          "durationTicks": 16,
          "midi": 51,
          "name": "D#3",
          "ticks": 27672,
          "time": 76.86676274999999,
          "velocity": 0.6220472440944882
        },
        {
          "duration": 0.04444449999999733,
          "durationTicks": 16,
          "midi": 51,
          "name": "D#3",
          "ticks": 27696,
          "time": 76.9334295,
          "velocity": 0.6220472440944882
        },
        {
          "duration": 0.04444449999999733,
          "durationTicks": 16,
          "midi": 39,
          "name": "D#2",
          "ticks": 27696,
          "time": 76.9334295,
          "velocity": 0.6220472440944882
        },
        {
          "duration": 0.04444449999999733,
          "durationTicks": 16,
          "midi": 39,
          "name": "D#2",
          "ticks": 27720,
          "time": 77.00009625,
          "velocity": 0.6220472440944882
        },
        {
          "duration": 0.04444449999999733,
          "durationTicks": 16,
          "midi": 51,
          "name": "D#3",
          "ticks": 27720,
          "time": 77.00009625,
          "velocity": 0.6220472440944882
        },
        {
          "duration": 0.044444500000011544,
          "durationTicks": 16,
          "midi": 39,
          "name": "D#2",
          "ticks": 27744,
          "time": 77.066763,
          "velocity": 0.6220472440944882
        },
        {
          "duration": 0.044444500000011544,
          "durationTicks": 16,
          "midi": 51,
          "name": "D#3",
          "ticks": 27744,
          "time": 77.066763,
          "velocity": 0.6220472440944882
        },
        {
          "duration": 0.044444500000011544,
          "durationTicks": 16,
          "midi": 51,
          "name": "D#3",
          "ticks": 27768,
          "time": 77.13342974999999,
          "velocity": 0.6220472440944882
        },
        {
          "duration": 0.044444500000011544,
          "durationTicks": 16,
          "midi": 39,
          "name": "D#2",
          "ticks": 27768,
          "time": 77.13342974999999,
          "velocity": 0.6220472440944882
        },
        {
          "duration": 0.04444449999999733,
          "durationTicks": 16,
          "midi": 39,
          "name": "D#2",
          "ticks": 27792,
          "time": 77.2000965,
          "velocity": 0.6220472440944882
        },
        {
          "duration": 0.04444449999999733,
          "durationTicks": 16,
          "midi": 51,
          "name": "D#3",
          "ticks": 27792,
          "time": 77.2000965,
          "velocity": 0.6220472440944882
        },
        {
          "duration": 0.044444500000011544,
          "durationTicks": 16,
          "midi": 39,
          "name": "D#2",
          "ticks": 27816,
          "time": 77.26676325,
          "velocity": 0.6220472440944882
        },
        {
          "duration": 0.044444500000011544,
          "durationTicks": 16,
          "midi": 51,
          "name": "D#3",
          "ticks": 27816,
          "time": 77.26676325,
          "velocity": 0.6220472440944882
        },
        {
          "duration": 0.044444500000011544,
          "durationTicks": 16,
          "midi": 39,
          "name": "D#2",
          "ticks": 27840,
          "time": 77.33342999999999,
          "velocity": 0.6220472440944882
        },
        {
          "duration": 0.044444500000011544,
          "durationTicks": 16,
          "midi": 51,
          "name": "D#3",
          "ticks": 27840,
          "time": 77.33342999999999,
          "velocity": 0.6220472440944882
        },
        {
          "duration": 0.04444449999999733,
          "durationTicks": 16,
          "midi": 39,
          "name": "D#2",
          "ticks": 27864,
          "time": 77.40009675,
          "velocity": 0.6220472440944882
        },
        {
          "duration": 0.04444449999999733,
          "durationTicks": 16,
          "midi": 51,
          "name": "D#3",
          "ticks": 27864,
          "time": 77.40009675,
          "velocity": 0.6220472440944882
        },
        {
          "duration": 0.04444449999999733,
          "durationTicks": 16,
          "midi": 51,
          "name": "D#3",
          "ticks": 27888,
          "time": 77.4667635,
          "velocity": 0.6220472440944882
        },
        {
          "duration": 0.04444449999999733,
          "durationTicks": 16,
          "midi": 39,
          "name": "D#2",
          "ticks": 27888,
          "time": 77.4667635,
          "velocity": 0.6220472440944882
        },
        {
          "duration": 0.044444500000011544,
          "durationTicks": 16,
          "midi": 51,
          "name": "D#3",
          "ticks": 27912,
          "time": 77.53343025,
          "velocity": 0.6220472440944882
        },
        {
          "duration": 0.044444500000011544,
          "durationTicks": 16,
          "midi": 39,
          "name": "D#2",
          "ticks": 27912,
          "time": 77.53343025,
          "velocity": 0.6220472440944882
        },
        {
          "duration": 0.044444500000011544,
          "durationTicks": 16,
          "midi": 39,
          "name": "D#2",
          "ticks": 27936,
          "time": 77.60009699999999,
          "velocity": 0.6220472440944882
        },
        {
          "duration": 0.044444500000011544,
          "durationTicks": 16,
          "midi": 51,
          "name": "D#3",
          "ticks": 27936,
          "time": 77.60009699999999,
          "velocity": 0.6220472440944882
        },
        {
          "duration": 0.044444500000011544,
          "durationTicks": 16,
          "midi": 39,
          "name": "D#2",
          "ticks": 28032,
          "time": 77.86676399999999,
          "velocity": 0.6220472440944882
        },
        {
          "duration": 0.044444500000011544,
          "durationTicks": 16,
          "midi": 51,
          "name": "D#3",
          "ticks": 28032,
          "time": 77.86676399999999,
          "velocity": 0.6220472440944882
        },
        {
          "duration": 0.04444449999999733,
          "durationTicks": 16,
          "midi": 39,
          "name": "D#2",
          "ticks": 28128,
          "time": 78.133431,
          "velocity": 0.6220472440944882
        },
        {
          "duration": 0.04444449999999733,
          "durationTicks": 16,
          "midi": 51,
          "name": "D#3",
          "ticks": 28128,
          "time": 78.133431,
          "velocity": 0.6220472440944882
        },
        {
          "duration": 0.04444449999999733,
          "durationTicks": 16,
          "midi": 39,
          "name": "D#2",
          "ticks": 28152,
          "time": 78.20009775,
          "velocity": 0.6220472440944882
        },
        {
          "duration": 0.04444449999999733,
          "durationTicks": 16,
          "midi": 51,
          "name": "D#3",
          "ticks": 28152,
          "time": 78.20009775,
          "velocity": 0.6220472440944882
        },
        {
          "duration": 0.044444500000011544,
          "durationTicks": 16,
          "midi": 51,
          "name": "D#3",
          "ticks": 28176,
          "time": 78.2667645,
          "velocity": 0.6220472440944882
        },
        {
          "duration": 0.044444500000011544,
          "durationTicks": 16,
          "midi": 39,
          "name": "D#2",
          "ticks": 28176,
          "time": 78.2667645,
          "velocity": 0.6220472440944882
        },
        {
          "duration": 0.044444500000011544,
          "durationTicks": 16,
          "midi": 39,
          "name": "D#2",
          "ticks": 28200,
          "time": 78.33343124999999,
          "velocity": 0.6220472440944882
        },
        {
          "duration": 0.044444500000011544,
          "durationTicks": 16,
          "midi": 51,
          "name": "D#3",
          "ticks": 28200,
          "time": 78.33343124999999,
          "velocity": 0.6220472440944882
        },
        {
          "duration": 0.04444449999999733,
          "durationTicks": 16,
          "midi": 39,
          "name": "D#2",
          "ticks": 28224,
          "time": 78.400098,
          "velocity": 0.6220472440944882
        },
        {
          "duration": 0.04444449999999733,
          "durationTicks": 16,
          "midi": 51,
          "name": "D#3",
          "ticks": 28224,
          "time": 78.400098,
          "velocity": 0.6220472440944882
        },
        {
          "duration": 0.04444449999999733,
          "durationTicks": 16,
          "midi": 39,
          "name": "D#2",
          "ticks": 28320,
          "time": 78.666765,
          "velocity": 0.6220472440944882
        },
        {
          "duration": 0.04444449999999733,
          "durationTicks": 16,
          "midi": 51,
          "name": "D#3",
          "ticks": 28320,
          "time": 78.666765,
          "velocity": 0.6220472440944882
        },
        {
          "duration": 0.044444500000011544,
          "durationTicks": 16,
          "midi": 51,
          "name": "D#3",
          "ticks": 28344,
          "time": 78.73343175,
          "velocity": 0.6220472440944882
        },
        {
          "duration": 0.044444500000011544,
          "durationTicks": 16,
          "midi": 39,
          "name": "D#2",
          "ticks": 28344,
          "time": 78.73343175,
          "velocity": 0.6220472440944882
        },
        {
          "duration": 0.044444500000011544,
          "durationTicks": 16,
          "midi": 39,
          "name": "D#2",
          "ticks": 28368,
          "time": 78.80009849999999,
          "velocity": 0.6220472440944882
        },
        {
          "duration": 0.044444500000011544,
          "durationTicks": 16,
          "midi": 51,
          "name": "D#3",
          "ticks": 28368,
          "time": 78.80009849999999,
          "velocity": 0.6220472440944882
        },
        {
          "duration": 0.04444449999999733,
          "durationTicks": 16,
          "midi": 39,
          "name": "D#2",
          "ticks": 28392,
          "time": 78.86676525,
          "velocity": 0.6220472440944882
        },
        {
          "duration": 0.04444449999999733,
          "durationTicks": 16,
          "midi": 51,
          "name": "D#3",
          "ticks": 28392,
          "time": 78.86676525,
          "velocity": 0.6220472440944882
        },
        {
          "duration": 0.044444500000011544,
          "durationTicks": 16,
          "midi": 51,
          "name": "D#3",
          "ticks": 28416,
          "time": 78.933432,
          "velocity": 0.6220472440944882
        },
        {
          "duration": 0.044444500000011544,
          "durationTicks": 16,
          "midi": 39,
          "name": "D#2",
          "ticks": 28416,
          "time": 78.933432,
          "velocity": 0.6220472440944882
        },
        {
          "duration": 0.044444500000011544,
          "durationTicks": 16,
          "midi": 39,
          "name": "D#2",
          "ticks": 28440,
          "time": 79.00009874999999,
          "velocity": 0.6220472440944882
        },
        {
          "duration": 0.044444500000011544,
          "durationTicks": 16,
          "midi": 51,
          "name": "D#3",
          "ticks": 28440,
          "time": 79.00009874999999,
          "velocity": 0.6220472440944882
        },
        {
          "duration": 0.04444449999999733,
          "durationTicks": 16,
          "midi": 39,
          "name": "D#2",
          "ticks": 28464,
          "time": 79.0667655,
          "velocity": 0.6220472440944882
        },
        {
          "duration": 0.04444449999999733,
          "durationTicks": 16,
          "midi": 51,
          "name": "D#3",
          "ticks": 28464,
          "time": 79.0667655,
          "velocity": 0.6220472440944882
        },
        {
          "duration": 0.04444449999999733,
          "durationTicks": 16,
          "midi": 51,
          "name": "D#3",
          "ticks": 28488,
          "time": 79.13343225,
          "velocity": 0.6220472440944882
        },
        {
          "duration": 0.04444449999999733,
          "durationTicks": 16,
          "midi": 39,
          "name": "D#2",
          "ticks": 28488,
          "time": 79.13343225,
          "velocity": 0.6220472440944882
        },
        {
          "duration": 0.044444500000011544,
          "durationTicks": 16,
          "midi": 51,
          "name": "D#3",
          "ticks": 28512,
          "time": 79.200099,
          "velocity": 0.6220472440944882
        },
        {
          "duration": 0.044444500000011544,
          "durationTicks": 16,
          "midi": 39,
          "name": "D#2",
          "ticks": 28512,
          "time": 79.200099,
          "velocity": 0.6220472440944882
        },
        {
          "duration": 0.044444500000011544,
          "durationTicks": 16,
          "midi": 51,
          "name": "D#3",
          "ticks": 28536,
          "time": 79.26676574999999,
          "velocity": 0.6220472440944882
        },
        {
          "duration": 0.044444500000011544,
          "durationTicks": 16,
          "midi": 39,
          "name": "D#2",
          "ticks": 28536,
          "time": 79.26676574999999,
          "velocity": 0.6220472440944882
        },
        {
          "duration": 0.04444449999999733,
          "durationTicks": 16,
          "midi": 51,
          "name": "D#3",
          "ticks": 28560,
          "time": 79.3334325,
          "velocity": 0.6220472440944882
        },
        {
          "duration": 0.04444449999999733,
          "durationTicks": 16,
          "midi": 39,
          "name": "D#2",
          "ticks": 28560,
          "time": 79.3334325,
          "velocity": 0.6220472440944882
        },
        {
          "duration": 0.044444500000011544,
          "durationTicks": 16,
          "midi": 39,
          "name": "D#2",
          "ticks": 28584,
          "time": 79.40009925,
          "velocity": 0.6220472440944882
        },
        {
          "duration": 0.044444500000011544,
          "durationTicks": 16,
          "midi": 51,
          "name": "D#3",
          "ticks": 28584,
          "time": 79.40009925,
          "velocity": 0.6220472440944882
        },
        {
          "duration": 0.044444500000011544,
          "durationTicks": 16,
          "midi": 51,
          "name": "D#3",
          "ticks": 28608,
          "time": 79.46676599999999,
          "velocity": 0.6220472440944882
        },
        {
          "duration": 0.044444500000011544,
          "durationTicks": 16,
          "midi": 39,
          "name": "D#2",
          "ticks": 28608,
          "time": 79.46676599999999,
          "velocity": 0.6220472440944882
        },
        {
          "duration": 0.04444449999999733,
          "durationTicks": 16,
          "midi": 39,
          "name": "D#2",
          "ticks": 28632,
          "time": 79.53343275,
          "velocity": 0.6220472440944882
        },
        {
          "duration": 0.04444449999999733,
          "durationTicks": 16,
          "midi": 51,
          "name": "D#3",
          "ticks": 28632,
          "time": 79.53343275,
          "velocity": 0.6220472440944882
        },
        {
          "duration": 0.04444449999999733,
          "durationTicks": 16,
          "midi": 39,
          "name": "D#2",
          "ticks": 28656,
          "time": 79.6000995,
          "velocity": 0.6220472440944882
        },
        {
          "duration": 0.04444449999999733,
          "durationTicks": 16,
          "midi": 51,
          "name": "D#3",
          "ticks": 28656,
          "time": 79.6000995,
          "velocity": 0.6220472440944882
        },
        {
          "duration": 0.044444500000011544,
          "durationTicks": 16,
          "midi": 51,
          "name": "D#3",
          "ticks": 28680,
          "time": 79.66676625,
          "velocity": 0.6220472440944882
        },
        {
          "duration": 0.044444500000011544,
          "durationTicks": 16,
          "midi": 39,
          "name": "D#2",
          "ticks": 28680,
          "time": 79.66676625,
          "velocity": 0.6220472440944882
        },
        {
          "duration": 0.044444500000011544,
          "durationTicks": 16,
          "midi": 39,
          "name": "D#2",
          "ticks": 28704,
          "time": 79.73343299999999,
          "velocity": 0.6220472440944882
        },
        {
          "duration": 0.044444500000011544,
          "durationTicks": 16,
          "midi": 51,
          "name": "D#3",
          "ticks": 28704,
          "time": 79.73343299999999,
          "velocity": 0.6220472440944882
        },
        {
          "duration": 0.04444449999999733,
          "durationTicks": 16,
          "midi": 39,
          "name": "D#2",
          "ticks": 28800,
          "time": 80.0001,
          "velocity": 0.6220472440944882
        },
        {
          "duration": 0.04444449999999733,
          "durationTicks": 16,
          "midi": 51,
          "name": "D#3",
          "ticks": 28800,
          "time": 80.0001,
          "velocity": 0.6220472440944882
        },
        {
          "duration": 0.04444449999999733,
          "durationTicks": 16,
          "midi": 51,
          "name": "D#3",
          "ticks": 28896,
          "time": 80.266767,
          "velocity": 0.6220472440944882
        },
        {
          "duration": 0.04444449999999733,
          "durationTicks": 16,
          "midi": 39,
          "name": "D#2",
          "ticks": 28896,
          "time": 80.266767,
          "velocity": 0.6220472440944882
        },
        {
          "duration": 0.04444449999999733,
          "durationTicks": 16,
          "midi": 39,
          "name": "D#2",
          "ticks": 28920,
          "time": 80.33343375,
          "velocity": 0.6220472440944882
        },
        {
          "duration": 0.04444449999999733,
          "durationTicks": 16,
          "midi": 51,
          "name": "D#3",
          "ticks": 28920,
          "time": 80.33343375,
          "velocity": 0.6220472440944882
        },
        {
          "duration": 0.044444500000011544,
          "durationTicks": 16,
          "midi": 51,
          "name": "D#3",
          "ticks": 28944,
          "time": 80.4001005,
          "velocity": 0.6220472440944882
        },
        {
          "duration": 0.044444500000011544,
          "durationTicks": 16,
          "midi": 39,
          "name": "D#2",
          "ticks": 28944,
          "time": 80.4001005,
          "velocity": 0.6220472440944882
        },
        {
          "duration": 0.044444500000011544,
          "durationTicks": 16,
          "midi": 39,
          "name": "D#2",
          "ticks": 28968,
          "time": 80.46676724999999,
          "velocity": 0.6220472440944882
        },
        {
          "duration": 0.044444500000011544,
          "durationTicks": 16,
          "midi": 51,
          "name": "D#3",
          "ticks": 28968,
          "time": 80.46676724999999,
          "velocity": 0.6220472440944882
        },
        {
          "duration": 0.04444449999999733,
          "durationTicks": 16,
          "midi": 39,
          "name": "D#2",
          "ticks": 28992,
          "time": 80.533434,
          "velocity": 0.6220472440944882
        },
        {
          "duration": 0.04444449999999733,
          "durationTicks": 16,
          "midi": 51,
          "name": "D#3",
          "ticks": 28992,
          "time": 80.533434,
          "velocity": 0.6220472440944882
        },
        {
          "duration": 0.044444500000011544,
          "durationTicks": 16,
          "midi": 51,
          "name": "D#3",
          "ticks": 29040,
          "time": 80.66676749999999,
          "velocity": 0.6220472440944882
        },
        {
          "duration": 0.044444500000011544,
          "durationTicks": 16,
          "midi": 39,
          "name": "D#2",
          "ticks": 29040,
          "time": 80.66676749999999,
          "velocity": 0.6220472440944882
        },
        {
          "duration": 0.04444449999999733,
          "durationTicks": 16,
          "midi": 51,
          "name": "D#3",
          "ticks": 29088,
          "time": 80.800101,
          "velocity": 0.6220472440944882
        },
        {
          "duration": 0.04444449999999733,
          "durationTicks": 16,
          "midi": 39,
          "name": "D#2",
          "ticks": 29088,
          "time": 80.800101,
          "velocity": 0.6220472440944882
        },
        {
          "duration": 0.044444500000011544,
          "durationTicks": 16,
          "midi": 51,
          "name": "D#3",
          "ticks": 29112,
          "time": 80.86676775,
          "velocity": 0.6220472440944882
        },
        {
          "duration": 0.044444500000011544,
          "durationTicks": 16,
          "midi": 39,
          "name": "D#2",
          "ticks": 29112,
          "time": 80.86676775,
          "velocity": 0.6220472440944882
        },
        {
          "duration": 0.044444500000011544,
          "durationTicks": 16,
          "midi": 39,
          "name": "D#2",
          "ticks": 29136,
          "time": 80.93343449999999,
          "velocity": 0.6220472440944882
        },
        {
          "duration": 0.044444500000011544,
          "durationTicks": 16,
          "midi": 51,
          "name": "D#3",
          "ticks": 29136,
          "time": 80.93343449999999,
          "velocity": 0.6220472440944882
        },
        {
          "duration": 0.04444449999999733,
          "durationTicks": 16,
          "midi": 39,
          "name": "D#2",
          "ticks": 29160,
          "time": 81.00010125,
          "velocity": 0.6220472440944882
        },
        {
          "duration": 0.04444449999999733,
          "durationTicks": 16,
          "midi": 51,
          "name": "D#3",
          "ticks": 29160,
          "time": 81.00010125,
          "velocity": 0.6220472440944882
        },
        {
          "duration": 0.044444500000011544,
          "durationTicks": 16,
          "midi": 39,
          "name": "D#2",
          "ticks": 29184,
          "time": 81.066768,
          "velocity": 0.6220472440944882
        },
        {
          "duration": 0.044444500000011544,
          "durationTicks": 16,
          "midi": 51,
          "name": "D#3",
          "ticks": 29184,
          "time": 81.066768,
          "velocity": 0.6220472440944882
        },
        {
          "duration": 0.044444500000011544,
          "durationTicks": 16,
          "midi": 39,
          "name": "D#2",
          "ticks": 29208,
          "time": 81.13343474999999,
          "velocity": 0.6220472440944882
        },
        {
          "duration": 0.044444500000011544,
          "durationTicks": 16,
          "midi": 51,
          "name": "D#3",
          "ticks": 29208,
          "time": 81.13343474999999,
          "velocity": 0.6220472440944882
        },
        {
          "duration": 0.04444449999999733,
          "durationTicks": 16,
          "midi": 51,
          "name": "D#3",
          "ticks": 29232,
          "time": 81.2001015,
          "velocity": 0.6220472440944882
        },
        {
          "duration": 0.04444449999999733,
          "durationTicks": 16,
          "midi": 39,
          "name": "D#2",
          "ticks": 29232,
          "time": 81.2001015,
          "velocity": 0.6220472440944882
        },
        {
          "duration": 0.04444449999999733,
          "durationTicks": 16,
          "midi": 51,
          "name": "D#3",
          "ticks": 29256,
          "time": 81.26676825,
          "velocity": 0.6220472440944882
        },
        {
          "duration": 0.04444449999999733,
          "durationTicks": 16,
          "midi": 39,
          "name": "D#2",
          "ticks": 29256,
          "time": 81.26676825,
          "velocity": 0.6220472440944882
        },
        {
          "duration": 0.044444500000011544,
          "durationTicks": 16,
          "midi": 51,
          "name": "D#3",
          "ticks": 29280,
          "time": 81.333435,
          "velocity": 0.6220472440944882
        },
        {
          "duration": 0.044444500000011544,
          "durationTicks": 16,
          "midi": 39,
          "name": "D#2",
          "ticks": 29280,
          "time": 81.333435,
          "velocity": 0.6220472440944882
        },
        {
          "duration": 0.044444500000011544,
          "durationTicks": 16,
          "midi": 51,
          "name": "D#3",
          "ticks": 29304,
          "time": 81.40010174999999,
          "velocity": 0.6220472440944882
        },
        {
          "duration": 0.044444500000011544,
          "durationTicks": 16,
          "midi": 39,
          "name": "D#2",
          "ticks": 29304,
          "time": 81.40010174999999,
          "velocity": 0.6220472440944882
        },
        {
          "duration": 0.04444449999999733,
          "durationTicks": 16,
          "midi": 51,
          "name": "D#3",
          "ticks": 29328,
          "time": 81.4667685,
          "velocity": 0.6220472440944882
        },
        {
          "duration": 0.04444449999999733,
          "durationTicks": 16,
          "midi": 39,
          "name": "D#2",
          "ticks": 29328,
          "time": 81.4667685,
          "velocity": 0.6220472440944882
        },
        {
          "duration": 0.044444500000011544,
          "durationTicks": 16,
          "midi": 51,
          "name": "D#3",
          "ticks": 29352,
          "time": 81.53343525,
          "velocity": 0.6220472440944882
        },
        {
          "duration": 0.044444500000011544,
          "durationTicks": 16,
          "midi": 39,
          "name": "D#2",
          "ticks": 29352,
          "time": 81.53343525,
          "velocity": 0.6220472440944882
        },
        {
          "duration": 0.044444500000011544,
          "durationTicks": 16,
          "midi": 39,
          "name": "D#2",
          "ticks": 29376,
          "time": 81.60010199999999,
          "velocity": 0.6220472440944882
        },
        {
          "duration": 0.044444500000011544,
          "durationTicks": 16,
          "midi": 51,
          "name": "D#3",
          "ticks": 29376,
          "time": 81.60010199999999,
          "velocity": 0.6220472440944882
        },
        {
          "duration": 0.04444449999999733,
          "durationTicks": 16,
          "midi": 39,
          "name": "D#2",
          "ticks": 29400,
          "time": 81.66676875,
          "velocity": 0.6220472440944882
        },
        {
          "duration": 0.04444449999999733,
          "durationTicks": 16,
          "midi": 51,
          "name": "D#3",
          "ticks": 29400,
          "time": 81.66676875,
          "velocity": 0.6220472440944882
        },
        {
          "duration": 0.04444449999999733,
          "durationTicks": 16,
          "midi": 39,
          "name": "D#2",
          "ticks": 29424,
          "time": 81.7334355,
          "velocity": 0.6220472440944882
        },
        {
          "duration": 0.04444449999999733,
          "durationTicks": 16,
          "midi": 51,
          "name": "D#3",
          "ticks": 29424,
          "time": 81.7334355,
          "velocity": 0.6220472440944882
        },
        {
          "duration": 0.044444500000011544,
          "durationTicks": 16,
          "midi": 51,
          "name": "D#3",
          "ticks": 29448,
          "time": 81.80010225,
          "velocity": 0.6220472440944882
        },
        {
          "duration": 0.044444500000011544,
          "durationTicks": 16,
          "midi": 39,
          "name": "D#2",
          "ticks": 29448,
          "time": 81.80010225,
          "velocity": 0.6220472440944882
        },
        {
          "duration": 0.044444500000011544,
          "durationTicks": 16,
          "midi": 39,
          "name": "D#2",
          "ticks": 29472,
          "time": 81.86676899999999,
          "velocity": 0.6220472440944882
        },
        {
          "duration": 0.044444500000011544,
          "durationTicks": 16,
          "midi": 51,
          "name": "D#3",
          "ticks": 29472,
          "time": 81.86676899999999,
          "velocity": 0.6220472440944882
        },
        {
          "duration": 0.04444449999999733,
          "durationTicks": 16,
          "midi": 39,
          "name": "D#2",
          "ticks": 29496,
          "time": 81.93343575,
          "velocity": 0.6220472440944882
        },
        {
          "duration": 0.04444449999999733,
          "durationTicks": 16,
          "midi": 51,
          "name": "D#3",
          "ticks": 29496,
          "time": 81.93343575,
          "velocity": 0.6220472440944882
        },
        {
          "duration": 0.04444449999999733,
          "durationTicks": 16,
          "midi": 39,
          "name": "D#2",
          "ticks": 29520,
          "time": 82.0001025,
          "velocity": 0.6220472440944882
        },
        {
          "duration": 0.04444449999999733,
          "durationTicks": 16,
          "midi": 51,
          "name": "D#3",
          "ticks": 29520,
          "time": 82.0001025,
          "velocity": 0.6220472440944882
        },
        {
          "duration": 0.044444500000011544,
          "durationTicks": 16,
          "midi": 51,
          "name": "D#3",
          "ticks": 29544,
          "time": 82.06676925,
          "velocity": 0.6220472440944882
        },
        {
          "duration": 0.044444500000011544,
          "durationTicks": 16,
          "midi": 39,
          "name": "D#2",
          "ticks": 29544,
          "time": 82.06676925,
          "velocity": 0.6220472440944882
        },
        {
          "duration": 0.044444500000011544,
          "durationTicks": 16,
          "midi": 51,
          "name": "D#3",
          "ticks": 29568,
          "time": 82.13343599999999,
          "velocity": 0.6220472440944882
        },
        {
          "duration": 0.044444500000011544,
          "durationTicks": 16,
          "midi": 39,
          "name": "D#2",
          "ticks": 29568,
          "time": 82.13343599999999,
          "velocity": 0.6220472440944882
        },
        {
          "duration": 0.04444449999999733,
          "durationTicks": 16,
          "midi": 51,
          "name": "D#3",
          "ticks": 29592,
          "time": 82.20010275,
          "velocity": 0.6220472440944882
        },
        {
          "duration": 0.04444449999999733,
          "durationTicks": 16,
          "midi": 39,
          "name": "D#2",
          "ticks": 29592,
          "time": 82.20010275,
          "velocity": 0.6220472440944882
        },
        {
          "duration": 0.044444500000011544,
          "durationTicks": 16,
          "midi": 51,
          "name": "D#3",
          "ticks": 29616,
          "time": 82.2667695,
          "velocity": 0.6220472440944882
        },
        {
          "duration": 0.044444500000011544,
          "durationTicks": 16,
          "midi": 39,
          "name": "D#2",
          "ticks": 29616,
          "time": 82.2667695,
          "velocity": 0.6220472440944882
        },
        {
          "duration": 0.044444500000011544,
          "durationTicks": 16,
          "midi": 39,
          "name": "D#2",
          "ticks": 29640,
          "time": 82.33343624999999,
          "velocity": 0.6220472440944882
        },
        {
          "duration": 0.044444500000011544,
          "durationTicks": 16,
          "midi": 51,
          "name": "D#3",
          "ticks": 29640,
          "time": 82.33343624999999,
          "velocity": 0.6220472440944882
        },
        {
          "duration": 0.04444449999999733,
          "durationTicks": 16,
          "midi": 39,
          "name": "D#2",
          "ticks": 29664,
          "time": 82.400103,
          "velocity": 0.6220472440944882
        },
        {
          "duration": 0.04444449999999733,
          "durationTicks": 16,
          "midi": 51,
          "name": "D#3",
          "ticks": 29664,
          "time": 82.400103,
          "velocity": 0.6220472440944882
        },
        {
          "duration": 0.04444449999999733,
          "durationTicks": 16,
          "midi": 39,
          "name": "D#2",
          "ticks": 29688,
          "time": 82.46676975,
          "velocity": 0.6220472440944882
        },
        {
          "duration": 0.04444449999999733,
          "durationTicks": 16,
          "midi": 51,
          "name": "D#3",
          "ticks": 29688,
          "time": 82.46676975,
          "velocity": 0.6220472440944882
        },
        {
          "duration": 0.044444500000011544,
          "durationTicks": 16,
          "midi": 39,
          "name": "D#2",
          "ticks": 29712,
          "time": 82.5334365,
          "velocity": 0.6220472440944882
        },
        {
          "duration": 0.044444500000011544,
          "durationTicks": 16,
          "midi": 51,
          "name": "D#3",
          "ticks": 29712,
          "time": 82.5334365,
          "velocity": 0.6220472440944882
        },
        {
          "duration": 0.044444500000011544,
          "durationTicks": 16,
          "midi": 51,
          "name": "D#3",
          "ticks": 29736,
          "time": 82.60010324999999,
          "velocity": 0.6220472440944882
        },
        {
          "duration": 0.044444500000011544,
          "durationTicks": 16,
          "midi": 39,
          "name": "D#2",
          "ticks": 29736,
          "time": 82.60010324999999,
          "velocity": 0.6220472440944882
        },
        {
          "duration": 0.04444449999999733,
          "durationTicks": 16,
          "midi": 39,
          "name": "D#2",
          "ticks": 29760,
          "time": 82.66677,
          "velocity": 0.6220472440944882
        },
        {
          "duration": 0.04444449999999733,
          "durationTicks": 16,
          "midi": 51,
          "name": "D#3",
          "ticks": 29760,
          "time": 82.66677,
          "velocity": 0.6220472440944882
        },
        {
          "duration": 0.044444500000011544,
          "durationTicks": 16,
          "midi": 39,
          "name": "D#2",
          "ticks": 29784,
          "time": 82.73343675,
          "velocity": 0.6220472440944882
        },
        {
          "duration": 0.044444500000011544,
          "durationTicks": 16,
          "midi": 51,
          "name": "D#3",
          "ticks": 29784,
          "time": 82.73343675,
          "velocity": 0.6220472440944882
        },
        {
          "duration": 0.044444500000011544,
          "durationTicks": 16,
          "midi": 39,
          "name": "D#2",
          "ticks": 29808,
          "time": 82.80010349999999,
          "velocity": 0.6220472440944882
        },
        {
          "duration": 0.044444500000011544,
          "durationTicks": 16,
          "midi": 51,
          "name": "D#3",
          "ticks": 29808,
          "time": 82.80010349999999,
          "velocity": 0.6220472440944882
        },
        {
          "duration": 0.04444449999999733,
          "durationTicks": 16,
          "midi": 51,
          "name": "D#3",
          "ticks": 29832,
          "time": 82.86677025,
          "velocity": 0.6220472440944882
        },
        {
          "duration": 0.04444449999999733,
          "durationTicks": 16,
          "midi": 39,
          "name": "D#2",
          "ticks": 29832,
          "time": 82.86677025,
          "velocity": 0.6220472440944882
        },
        {
          "duration": 0.04444449999999733,
          "durationTicks": 16,
          "midi": 39,
          "name": "D#2",
          "ticks": 29856,
          "time": 82.933437,
          "velocity": 0.6220472440944882
        },
        {
          "duration": 0.04444449999999733,
          "durationTicks": 16,
          "midi": 51,
          "name": "D#3",
          "ticks": 29856,
          "time": 82.933437,
          "velocity": 0.6220472440944882
        },
        {
          "duration": 0.044444500000011544,
          "durationTicks": 16,
          "midi": 51,
          "name": "D#3",
          "ticks": 29880,
          "time": 83.00010375,
          "velocity": 0.6220472440944882
        },
        {
          "duration": 0.044444500000011544,
          "durationTicks": 16,
          "midi": 39,
          "name": "D#2",
          "ticks": 29880,
          "time": 83.00010375,
          "velocity": 0.6220472440944882
        },
        {
          "duration": 0.044444500000011544,
          "durationTicks": 16,
          "midi": 51,
          "name": "D#3",
          "ticks": 29904,
          "time": 83.06677049999999,
          "velocity": 0.6220472440944882
        },
        {
          "duration": 0.044444500000011544,
          "durationTicks": 16,
          "midi": 39,
          "name": "D#2",
          "ticks": 29904,
          "time": 83.06677049999999,
          "velocity": 0.6220472440944882
        },
        {
          "duration": 0.04444449999999733,
          "durationTicks": 16,
          "midi": 51,
          "name": "D#3",
          "ticks": 29928,
          "time": 83.13343725,
          "velocity": 0.6220472440944882
        },
        {
          "duration": 0.04444449999999733,
          "durationTicks": 16,
          "midi": 39,
          "name": "D#2",
          "ticks": 29928,
          "time": 83.13343725,
          "velocity": 0.6220472440944882
        },
        {
          "duration": 0.044444500000011544,
          "durationTicks": 16,
          "midi": 52,
          "name": "E3",
          "ticks": 29952,
          "time": 83.200104,
          "velocity": 0.6220472440944882
        },
        {
          "duration": 0.044444500000011544,
          "durationTicks": 16,
          "midi": 40,
          "name": "E2",
          "ticks": 29952,
          "time": 83.200104,
          "velocity": 0.6220472440944882
        },
        {
          "duration": 0.044444500000011544,
          "durationTicks": 16,
          "midi": 40,
          "name": "E2",
          "ticks": 29976,
          "time": 83.26677074999999,
          "velocity": 0.6220472440944882
        },
        {
          "duration": 0.044444500000011544,
          "durationTicks": 16,
          "midi": 52,
          "name": "E3",
          "ticks": 29976,
          "time": 83.26677074999999,
          "velocity": 0.6220472440944882
        },
        {
          "duration": 0.04444449999999733,
          "durationTicks": 16,
          "midi": 40,
          "name": "E2",
          "ticks": 30000,
          "time": 83.3334375,
          "velocity": 0.6220472440944882
        },
        {
          "duration": 0.04444449999999733,
          "durationTicks": 16,
          "midi": 52,
          "name": "E3",
          "ticks": 30000,
          "time": 83.3334375,
          "velocity": 0.6220472440944882
        },
        {
          "duration": 0.04444449999999733,
          "durationTicks": 16,
          "midi": 52,
          "name": "E3",
          "ticks": 30024,
          "time": 83.40010425,
          "velocity": 0.6220472440944882
        },
        {
          "duration": 0.04444449999999733,
          "durationTicks": 16,
          "midi": 40,
          "name": "E2",
          "ticks": 30024,
          "time": 83.40010425,
          "velocity": 0.6220472440944882
        },
        {
          "duration": 0.044444500000011544,
          "durationTicks": 16,
          "midi": 53,
          "name": "F3",
          "ticks": 30048,
          "time": 83.466771,
          "velocity": 0.6220472440944882
        },
        {
          "duration": 0.044444500000011544,
          "durationTicks": 16,
          "midi": 41,
          "name": "F2",
          "ticks": 30048,
          "time": 83.466771,
          "velocity": 0.6220472440944882
        },
        {
          "duration": 0.044444500000011544,
          "durationTicks": 16,
          "midi": 41,
          "name": "F2",
          "ticks": 30072,
          "time": 83.53343774999999,
          "velocity": 0.6220472440944882
        },
        {
          "duration": 0.044444500000011544,
          "durationTicks": 16,
          "midi": 53,
          "name": "F3",
          "ticks": 30072,
          "time": 83.53343774999999,
          "velocity": 0.6220472440944882
        },
        {
          "duration": 0.04444449999999733,
          "durationTicks": 16,
          "midi": 53,
          "name": "F3",
          "ticks": 30096,
          "time": 83.6001045,
          "velocity": 0.6220472440944882
        },
        {
          "duration": 0.04444449999999733,
          "durationTicks": 16,
          "midi": 41,
          "name": "F2",
          "ticks": 30096,
          "time": 83.6001045,
          "velocity": 0.6220472440944882
        },
        {
          "duration": 0.044444500000011544,
          "durationTicks": 16,
          "midi": 41,
          "name": "F2",
          "ticks": 30120,
          "time": 83.66677125,
          "velocity": 0.6220472440944882
        },
        {
          "duration": 0.044444500000011544,
          "durationTicks": 16,
          "midi": 53,
          "name": "F3",
          "ticks": 30120,
          "time": 83.66677125,
          "velocity": 0.6220472440944882
        },
        {
          "duration": 0.044444500000011544,
          "durationTicks": 16,
          "midi": 54,
          "name": "F#3",
          "ticks": 30144,
          "time": 83.73343799999999,
          "velocity": 0.6220472440944882
        },
        {
          "duration": 0.044444500000011544,
          "durationTicks": 16,
          "midi": 42,
          "name": "F#2",
          "ticks": 30144,
          "time": 83.73343799999999,
          "velocity": 0.6220472440944882
        },
        {
          "duration": 0.04444449999999733,
          "durationTicks": 16,
          "midi": 42,
          "name": "F#2",
          "ticks": 30168,
          "time": 83.80010475,
          "velocity": 0.6220472440944882
        },
        {
          "duration": 0.04444449999999733,
          "durationTicks": 16,
          "midi": 54,
          "name": "F#3",
          "ticks": 30168,
          "time": 83.80010475,
          "velocity": 0.6220472440944882
        },
        {
          "duration": 0.04444449999999733,
          "durationTicks": 16,
          "midi": 42,
          "name": "F#2",
          "ticks": 30192,
          "time": 83.8667715,
          "velocity": 0.6220472440944882
        },
        {
          "duration": 0.04444449999999733,
          "durationTicks": 16,
          "midi": 54,
          "name": "F#3",
          "ticks": 30192,
          "time": 83.8667715,
          "velocity": 0.6220472440944882
        },
        {
          "duration": 0.044444500000011544,
          "durationTicks": 16,
          "midi": 42,
          "name": "F#2",
          "ticks": 30216,
          "time": 83.93343825,
          "velocity": 0.6220472440944882
        },
        {
          "duration": 0.044444500000011544,
          "durationTicks": 16,
          "midi": 54,
          "name": "F#3",
          "ticks": 30216,
          "time": 83.93343825,
          "velocity": 0.6220472440944882
        },
        {
          "duration": 0.04444449999999733,
          "durationTicks": 16,
          "midi": 51,
          "name": "D#3",
          "ticks": 76992,
          "time": 213.866934,
          "velocity": 0.6220472440944882
        },
        {
          "duration": 0.04444449999999733,
          "durationTicks": 16,
          "midi": 63,
          "name": "D#4",
          "ticks": 76992,
          "time": 213.866934,
          "velocity": 0.6220472440944882
        },
        {
          "duration": 0.04444449999999733,
          "durationTicks": 16,
          "midi": 63,
          "name": "D#4",
          "ticks": 77040,
          "time": 214.00026749999998,
          "velocity": 0.6220472440944882
        },
        {
          "duration": 0.04444449999999733,
          "durationTicks": 16,
          "midi": 51,
          "name": "D#3",
          "ticks": 77040,
          "time": 214.00026749999998,
          "velocity": 0.6220472440944882
        },
        {
          "duration": 0.04444449999996891,
          "durationTicks": 16,
          "midi": 51,
          "name": "D#3",
          "ticks": 77088,
          "time": 214.133601,
          "velocity": 0.6220472440944882
        },
        {
          "duration": 0.04444449999996891,
          "durationTicks": 16,
          "midi": 63,
          "name": "D#4",
          "ticks": 77088,
          "time": 214.133601,
          "velocity": 0.6220472440944882
        },
        {
          "duration": 0.04444449999999733,
          "durationTicks": 16,
          "midi": 51,
          "name": "D#3",
          "ticks": 77112,
          "time": 214.20026775,
          "velocity": 0.6220472440944882
        },
        {
          "duration": 0.04444449999999733,
          "durationTicks": 16,
          "midi": 63,
          "name": "D#4",
          "ticks": 77112,
          "time": 214.20026775,
          "velocity": 0.6220472440944882
        },
        {
          "duration": 0.04444449999999733,
          "durationTicks": 16,
          "midi": 51,
          "name": "D#3",
          "ticks": 77136,
          "time": 214.2669345,
          "velocity": 0.6220472440944882
        },
        {
          "duration": 0.04444449999999733,
          "durationTicks": 16,
          "midi": 63,
          "name": "D#4",
          "ticks": 77136,
          "time": 214.2669345,
          "velocity": 0.6220472440944882
        },
        {
          "duration": 0.04444449999999733,
          "durationTicks": 16,
          "midi": 51,
          "name": "D#3",
          "ticks": 77160,
          "time": 214.33360125,
          "velocity": 0.6220472440944882
        },
        {
          "duration": 0.04444449999999733,
          "durationTicks": 16,
          "midi": 63,
          "name": "D#4",
          "ticks": 77160,
          "time": 214.33360125,
          "velocity": 0.6220472440944882
        },
        {
          "duration": 0.040816333333339117,
          "durationTicks": 16,
          "midi": 63,
          "name": "D#4",
          "ticks": 77568,
          "time": 215.37985999999998,
          "velocity": 0.6220472440944882
        },
        {
          "duration": 0.040816333333339117,
          "durationTicks": 16,
          "midi": 51,
          "name": "D#3",
          "ticks": 77568,
          "time": 215.37985999999998,
          "velocity": 0.6220472440944882
        },
        {
          "duration": 0.040816333333339117,
          "durationTicks": 16,
          "midi": 63,
          "name": "D#4",
          "ticks": 77584,
          "time": 215.42067633333332,
          "velocity": 0.6220472440944882
        },
        {
          "duration": 0.040816333333339117,
          "durationTicks": 16,
          "midi": 51,
          "name": "D#3",
          "ticks": 77584,
          "time": 215.42067633333332,
          "velocity": 0.6220472440944882
        },
        {
          "duration": 0.040816333333339117,
          "durationTicks": 16,
          "midi": 63,
          "name": "D#4",
          "ticks": 77600,
          "time": 215.46149266666666,
          "velocity": 0.6220472440944882
        },
        {
          "duration": 0.040816333333339117,
          "durationTicks": 16,
          "midi": 51,
          "name": "D#3",
          "ticks": 77600,
          "time": 215.46149266666666,
          "velocity": 0.6220472440944882
        },
        {
          "duration": 0.040816333333339117,
          "durationTicks": 16,
          "midi": 63,
          "name": "D#4",
          "ticks": 77664,
          "time": 215.62475799999999,
          "velocity": 0.6220472440944882
        },
        {
          "duration": 0.040816333333339117,
          "durationTicks": 16,
          "midi": 51,
          "name": "D#3",
          "ticks": 77664,
          "time": 215.62475799999999,
          "velocity": 0.6220472440944882
        },
        {
          "duration": 0.040816333333310695,
          "durationTicks": 16,
          "midi": 63,
          "name": "D#4",
          "ticks": 77680,
          "time": 215.66557433333332,
          "velocity": 0.6220472440944882
        },
        {
          "duration": 0.040816333333310695,
          "durationTicks": 16,
          "midi": 51,
          "name": "D#3",
          "ticks": 77680,
          "time": 215.66557433333332,
          "velocity": 0.6220472440944882
        },
        {
          "duration": 0.040816333333339117,
          "durationTicks": 16,
          "midi": 63,
          "name": "D#4",
          "ticks": 77696,
          "time": 215.70639066666664,
          "velocity": 0.6220472440944882
        },
        {
          "duration": 0.040816333333339117,
          "durationTicks": 16,
          "midi": 51,
          "name": "D#3",
          "ticks": 77696,
          "time": 215.70639066666664,
          "velocity": 0.6220472440944882
        },
        {
          "duration": 0.040816333333310695,
          "durationTicks": 16,
          "midi": 51,
          "name": "D#3",
          "ticks": 77760,
          "time": 215.869656,
          "velocity": 0.6220472440944882
        },
        {
          "duration": 0.040816333333310695,
          "durationTicks": 16,
          "midi": 63,
          "name": "D#4",
          "ticks": 77760,
          "time": 215.869656,
          "velocity": 0.6220472440944882
        },
        {
          "duration": 0.040816333333339117,
          "durationTicks": 16,
          "midi": 63,
          "name": "D#4",
          "ticks": 77776,
          "time": 215.9104723333333,
          "velocity": 0.6220472440944882
        },
        {
          "duration": 0.040816333333339117,
          "durationTicks": 16,
          "midi": 51,
          "name": "D#3",
          "ticks": 77776,
          "time": 215.9104723333333,
          "velocity": 0.6220472440944882
        },
        {
          "duration": 0.040816333333339117,
          "durationTicks": 16,
          "midi": 51,
          "name": "D#3",
          "ticks": 77808,
          "time": 215.99210499999998,
          "velocity": 0.6220472440944882
        },
        {
          "duration": 0.040816333333339117,
          "durationTicks": 16,
          "midi": 63,
          "name": "D#4",
          "ticks": 77808,
          "time": 215.99210499999998,
          "velocity": 0.6220472440944882
        },
        {
          "duration": 0.040816333333339117,
          "durationTicks": 16,
          "midi": 63,
          "name": "D#4",
          "ticks": 77824,
          "time": 216.03292133333332,
          "velocity": 0.6220472440944882
        },
        {
          "duration": 0.040816333333339117,
          "durationTicks": 16,
          "midi": 51,
          "name": "D#3",
          "ticks": 77824,
          "time": 216.03292133333332,
          "velocity": 0.6220472440944882
        },
        {
          "duration": 0.040816333333339117,
          "durationTicks": 16,
          "midi": 63,
          "name": "D#4",
          "ticks": 77856,
          "time": 216.11455399999997,
          "velocity": 0.6220472440944882
        },
        {
          "duration": 0.040816333333339117,
          "durationTicks": 16,
          "midi": 51,
          "name": "D#3",
          "ticks": 77856,
          "time": 216.11455399999997,
          "velocity": 0.6220472440944882
        },
        {
          "duration": 0.040816333333339117,
          "durationTicks": 16,
          "midi": 63,
          "name": "D#4",
          "ticks": 77880,
          "time": 216.17577849999998,
          "velocity": 0.6220472440944882
        },
        {
          "duration": 0.040816333333339117,
          "durationTicks": 16,
          "midi": 51,
          "name": "D#3",
          "ticks": 77880,
          "time": 216.17577849999998,
          "velocity": 0.6220472440944882
        },
        {
          "duration": 0.040816333333339117,
          "durationTicks": 16,
          "midi": 63,
          "name": "D#4",
          "ticks": 77904,
          "time": 216.237003,
          "velocity": 0.6220472440944882
        },
        {
          "duration": 0.040816333333339117,
          "durationTicks": 16,
          "midi": 51,
          "name": "D#3",
          "ticks": 77904,
          "time": 216.237003,
          "velocity": 0.6220472440944882
        },
        {
          "duration": 0.040816333333310695,
          "durationTicks": 16,
          "midi": 51,
          "name": "D#3",
          "ticks": 77928,
          "time": 216.2982275,
          "velocity": 0.6220472440944882
        },
        {
          "duration": 0.040816333333310695,
          "durationTicks": 16,
          "midi": 63,
          "name": "D#4",
          "ticks": 77928,
          "time": 216.2982275,
          "velocity": 0.6220472440944882
        },
        {
          "duration": 0.03773583333332908,
          "durationTicks": 16,
          "midi": 63,
          "name": "D#4",
          "ticks": 78336,
          "time": 217.265112,
          "velocity": 0.6220472440944882
        },
        {
          "duration": 0.03773583333332908,
          "durationTicks": 16,
          "midi": 75,
          "name": "D#5",
          "ticks": 78336,
          "time": 217.265112,
          "velocity": 0.6220472440944882
        },
        {
          "duration": 0.03773583333332908,
          "durationTicks": 16,
          "midi": 63,
          "name": "D#4",
          "ticks": 78352,
          "time": 217.30284783333332,
          "velocity": 0.6220472440944882
        },
        {
          "duration": 0.03773583333332908,
          "durationTicks": 16,
          "midi": 75,
          "name": "D#5",
          "ticks": 78352,
          "time": 217.30284783333332,
          "velocity": 0.6220472440944882
        },
        {
          "duration": 0.03773583333332908,
          "durationTicks": 16,
          "midi": 75,
          "name": "D#5",
          "ticks": 78368,
          "time": 217.34058366666665,
          "velocity": 0.6220472440944882
        },
        {
          "duration": 0.03773583333332908,
          "durationTicks": 16,
          "midi": 63,
          "name": "D#4",
          "ticks": 78368,
          "time": 217.34058366666665,
          "velocity": 0.6220472440944882
        },
        {
          "duration": 0.037735833333357505,
          "durationTicks": 16,
          "midi": 75,
          "name": "D#5",
          "ticks": 78432,
          "time": 217.49152699999996,
          "velocity": 0.6220472440944882
        },
        {
          "duration": 0.037735833333357505,
          "durationTicks": 16,
          "midi": 63,
          "name": "D#4",
          "ticks": 78432,
          "time": 217.49152699999996,
          "velocity": 0.6220472440944882
        },
        {
          "duration": 0.03773583333332908,
          "durationTicks": 16,
          "midi": 75,
          "name": "D#5",
          "ticks": 78448,
          "time": 217.52926283333332,
          "velocity": 0.6220472440944882
        },
        {
          "duration": 0.03773583333332908,
          "durationTicks": 16,
          "midi": 63,
          "name": "D#4",
          "ticks": 78448,
          "time": 217.52926283333332,
          "velocity": 0.6220472440944882
        },
        {
          "duration": 0.03773583333332908,
          "durationTicks": 16,
          "midi": 75,
          "name": "D#5",
          "ticks": 78464,
          "time": 217.56699866666665,
          "velocity": 0.6220472440944882
        },
        {
          "duration": 0.03773583333332908,
          "durationTicks": 16,
          "midi": 63,
          "name": "D#4",
          "ticks": 78464,
          "time": 217.56699866666665,
          "velocity": 0.6220472440944882
        },
        {
          "duration": 0.037735833333357505,
          "durationTicks": 16,
          "midi": 63,
          "name": "D#4",
          "ticks": 78528,
          "time": 217.71794199999997,
          "velocity": 0.6220472440944882
        },
        {
          "duration": 0.037735833333357505,
          "durationTicks": 16,
          "midi": 75,
          "name": "D#5",
          "ticks": 78528,
          "time": 217.71794199999997,
          "velocity": 0.6220472440944882
        },
        {
          "duration": 0.03773583333332908,
          "durationTicks": 16,
          "midi": 75,
          "name": "D#5",
          "ticks": 78544,
          "time": 217.75567783333332,
          "velocity": 0.6220472440944882
        },
        {
          "duration": 0.03773583333332908,
          "durationTicks": 16,
          "midi": 63,
          "name": "D#4",
          "ticks": 78544,
          "time": 217.75567783333332,
          "velocity": 0.6220472440944882
        },
        {
          "duration": 0.03773583333332908,
          "durationTicks": 16,
          "midi": 63,
          "name": "D#4",
          "ticks": 78576,
          "time": 217.83114949999998,
          "velocity": 0.6220472440944882
        },
        {
          "duration": 0.03773583333332908,
          "durationTicks": 16,
          "midi": 75,
          "name": "D#5",
          "ticks": 78576,
          "time": 217.83114949999998,
          "velocity": 0.6220472440944882
        },
        {
          "duration": 0.03773583333332908,
          "durationTicks": 16,
          "midi": 75,
          "name": "D#5",
          "ticks": 78592,
          "time": 217.8688853333333,
          "velocity": 0.6220472440944882
        },
        {
          "duration": 0.03773583333332908,
          "durationTicks": 16,
          "midi": 63,
          "name": "D#4",
          "ticks": 78592,
          "time": 217.8688853333333,
          "velocity": 0.6220472440944882
        },
        {
          "duration": 0.03773583333332908,
          "durationTicks": 16,
          "midi": 75,
          "name": "D#5",
          "ticks": 78624,
          "time": 217.94435699999997,
          "velocity": 0.6220472440944882
        },
        {
          "duration": 0.03773583333332908,
          "durationTicks": 16,
          "midi": 63,
          "name": "D#4",
          "ticks": 78624,
          "time": 217.94435699999997,
          "velocity": 0.6220472440944882
        },
        {
          "duration": 0.03773583333332908,
          "durationTicks": 16,
          "midi": 75,
          "name": "D#5",
          "ticks": 78648,
          "time": 218.00096075,
          "velocity": 0.6220472440944882
        },
        {
          "duration": 0.03773583333332908,
          "durationTicks": 16,
          "midi": 63,
          "name": "D#4",
          "ticks": 78648,
          "time": 218.00096075,
          "velocity": 0.6220472440944882
        },
        {
          "duration": 0.03773583333332908,
          "durationTicks": 16,
          "midi": 63,
          "name": "D#4",
          "ticks": 78672,
          "time": 218.05756449999998,
          "velocity": 0.6220472440944882
        },
        {
          "duration": 0.03773583333332908,
          "durationTicks": 16,
          "midi": 75,
          "name": "D#5",
          "ticks": 78672,
          "time": 218.05756449999998,
          "velocity": 0.6220472440944882
        },
        {
          "duration": 0.03773583333332908,
          "durationTicks": 16,
          "midi": 63,
          "name": "D#4",
          "ticks": 78696,
          "time": 218.11416824999998,
          "velocity": 0.6220472440944882
        },
        {
          "duration": 0.03773583333332908,
          "durationTicks": 16,
          "midi": 75,
          "name": "D#5",
          "ticks": 78696,
          "time": 218.11416824999998,
          "velocity": 0.6220472440944882
        }
      ],
      "endOfTrackTicks": 82491
    },
    {
      "channel": 2,
      "controlChanges": {
        "6": [
          {
            "number": 6,
            "ticks": 0,
            "time": 0,
            "value": 0.09448818897637795
          },
          {
            "number": 6,
            "ticks": 0,
            "time": 0,
            "value": 0.09448818897637795
          },
          {
            "number": 6,
            "ticks": 0,
            "time": 0,
            "value": 0.09448818897637795
          },
          {
            "number": 6,
            "ticks": 82466,
            "time": 228.45777604166662,
            "value": 0.09448818897637795
          },
          {
            "number": 6,
            "ticks": 82491,
            "time": 228.52722057291663,
            "value": 0.09448818897637795
          }
        ],
        "7": [
          {
            "number": 7,
            "ticks": 0,
            "time": 0,
            "value": 0.7874015748031497
          },
          {
            "number": 7,
            "ticks": 0,
            "time": 0,
            "value": 0.7874015748031497
          },
          {
            "number": 7,
            "ticks": 0,
            "time": 0,
            "value": 0.7874015748031497
          },
          {
            "number": 7,
            "ticks": 0,
            "time": 0,
            "value": 0.7874015748031497
          },
          {
            "number": 7,
            "ticks": 82466,
            "time": 228.45777604166662,
            "value": 0.7874015748031497
          },
          {
            "number": 7,
            "ticks": 82491,
            "time": 228.52722057291663,
            "value": 0.7874015748031497
          }
        ],
        "10": [
          {
            "number": 10,
            "ticks": 0,
            "time": 0,
            "value": 0.5039370078740157
          },
          {
            "number": 10,
            "ticks": 0,
            "time": 0,
            "value": 0.5039370078740157
          },
          {
            "number": 10,
            "ticks": 0,
            "time": 0,
            "value": 0.5039370078740157
          },
          {
            "number": 10,
            "ticks": 0,
            "time": 0,
            "value": 0.5039370078740157
          },
          {
            "number": 10,
            "ticks": 82466,
            "time": 228.45777604166662,
            "value": 0.5039370078740157
          },
          {
            "number": 10,
            "ticks": 82491,
            "time": 228.52722057291663,
            "value": 0.5039370078740157
          }
        ],
        "100": [
          {
            "number": 100,
            "ticks": 0,
            "time": 0,
            "value": 0
          },
          {
            "number": 100,
            "ticks": 0,
            "time": 0,
            "value": 0
          },
          {
            "number": 100,
            "ticks": 0,
            "time": 0,
            "value": 0
          },
          {
            "number": 100,
            "ticks": 82466,
            "time": 228.45777604166662,
            "value": 0
          },
          {
            "number": 100,
            "ticks": 82491,
            "time": 228.52722057291663,
            "value": 0
          }
        ],
        "101": [
          {
            "number": 101,
            "ticks": 0,
            "time": 0,
            "value": 0
          },
          {
            "number": 101,
            "ticks": 0,
            "time": 0,
            "value": 0
          },
          {
            "number": 101,
            "ticks": 0,
            "time": 0,
            "value": 0
          },
          {
            "number": 101,
            "ticks": 82466,
            "time": 228.45777604166662,
            "value": 0
          },
          {
            "number": 101,
            "ticks": 82491,
            "time": 228.52722057291663,
            "value": 0
          }
        ]
      },
      "pitchBends": [
        {
          "ticks": 0,
          "time": 0,
          "value": 0
        },
        {
          "ticks": 0,
          "time": 0,
          "value": 0
        },
        {
          "ticks": 0,
          "time": 0,
          "value": 0
        },
        {
          "ticks": 0,
          "time": 0,
          "value": 0
        },
        {
          "ticks": 82466,
          "time": 228.45777604166662,
          "value": 0
        },
        {
          "ticks": 82491,
          "time": 228.52722057291663,
          "value": 0
        }
      ],
      "instrument": {
        "family": "piano",
        "number": 0,
        "name": "acoustic grand piano"
      },
      "name": "MIKU (EQ_H)",
      "notes": [
        {
          "duration": 0.2666669999999982,
          "durationTicks": 96,
          "midi": 69,
          "name": "A4",
          "ticks": 6432,
          "time": 17.866689,
          "velocity": 0.5669291338582677
        },
        {
          "duration": 0.2666669999999982,
          "durationTicks": 96,
          "midi": 65,
          "name": "F4",
          "ticks": 6432,
          "time": 17.866689,
          "velocity": 0.5669291338582677
        },
        {
          "duration": 0.1333334999999991,
          "durationTicks": 48,
          "midi": 66,
          "name": "F#4",
          "ticks": 6528,
          "time": 18.133356,
          "velocity": 0.5669291338582677
        },
        {
          "duration": 0.1333334999999991,
          "durationTicks": 48,
          "midi": 70,
          "name": "A#4",
          "ticks": 6528,
          "time": 18.133356,
          "velocity": 0.5669291338582677
        },
        {
          "duration": 0.13333350000000266,
          "durationTicks": 48,
          "midi": 65,
          "name": "F4",
          "ticks": 6624,
          "time": 18.400022999999997,
          "velocity": 0.5669291338582677
        },
        {
          "duration": 0.13333350000000266,
          "durationTicks": 48,
          "midi": 69,
          "name": "A4",
          "ticks": 6624,
          "time": 18.400022999999997,
          "velocity": 0.5669291338582677
        },
        {
          "duration": 0.1333334999999991,
          "durationTicks": 48,
          "midi": 70,
          "name": "A#4",
          "ticks": 6720,
          "time": 18.66669,
          "velocity": 0.5669291338582677
        },
        {
          "duration": 0.1333334999999991,
          "durationTicks": 48,
          "midi": 66,
          "name": "F#4",
          "ticks": 6720,
          "time": 18.66669,
          "velocity": 0.5669291338582677
        },
        {
          "duration": 0.1333334999999991,
          "durationTicks": 48,
          "midi": 65,
          "name": "F4",
          "ticks": 6816,
          "time": 18.933357,
          "velocity": 0.5669291338582677
        },
        {
          "duration": 0.1333334999999991,
          "durationTicks": 48,
          "midi": 69,
          "name": "A4",
          "ticks": 6816,
          "time": 18.933357,
          "velocity": 0.5669291338582677
        },
        {
          "duration": 0.1333334999999991,
          "durationTicks": 48,
          "midi": 70,
          "name": "A#4",
          "ticks": 6864,
          "time": 19.0666905,
          "velocity": 0.5669291338582677
        },
        {
          "duration": 0.1333334999999991,
          "durationTicks": 48,
          "midi": 66,
          "name": "F#4",
          "ticks": 6864,
          "time": 19.0666905,
          "velocity": 0.5669291338582677
        },
        {
          "duration": 0.1333334999999991,
          "durationTicks": 48,
          "midi": 82,
          "name": "A#5",
          "ticks": 6960,
          "time": 19.333357499999998,
          "velocity": 0.5669291338582677
        },
        {
          "duration": 0.1333334999999991,
          "durationTicks": 48,
          "midi": 78,
          "name": "F#5",
          "ticks": 6960,
          "time": 19.333357499999998,
          "velocity": 0.5669291338582677
        },
        {
          "duration": 0.1333334999999991,
          "durationTicks": 48,
          "midi": 65,
          "name": "F4",
          "ticks": 7056,
          "time": 19.6000245,
          "velocity": 0.5669291338582677
        },
        {
          "duration": 0.1333334999999991,
          "durationTicks": 48,
          "midi": 69,
          "name": "A4",
          "ticks": 7056,
          "time": 19.6000245,
          "velocity": 0.5669291338582677
        },
        {
          "duration": 0.1333334999999991,
          "durationTicks": 48,
          "midi": 66,
          "name": "F#4",
          "ticks": 7104,
          "time": 19.733358,
          "velocity": 0.5669291338582677
        },
        {
          "duration": 0.1333334999999991,
          "durationTicks": 48,
          "midi": 70,
          "name": "A#4",
          "ticks": 7104,
          "time": 19.733358,
          "velocity": 0.5669291338582677
        },
        {
          "duration": 0.13333350000000266,
          "durationTicks": 48,
          "midi": 69,
          "name": "A4",
          "ticks": 7152,
          "time": 19.866691499999998,
          "velocity": 0.5669291338582677
        },
        {
          "duration": 0.13333350000000266,
          "durationTicks": 48,
          "midi": 65,
          "name": "F4",
          "ticks": 7152,
          "time": 19.866691499999998,
          "velocity": 0.5669291338582677
        },
        {
          "duration": 0.1333334999999991,
          "durationTicks": 48,
          "midi": 70,
          "name": "A#4",
          "ticks": 7200,
          "time": 20.000025,
          "velocity": 0.5669291338582677
        },
        {
          "duration": 0.1333334999999991,
          "durationTicks": 48,
          "midi": 66,
          "name": "F#4",
          "ticks": 7200,
          "time": 20.000025,
          "velocity": 0.5669291338582677
        },
        {
          "duration": 0.1333334999999991,
          "durationTicks": 48,
          "midi": 69,
          "name": "A4",
          "ticks": 7248,
          "time": 20.1333585,
          "velocity": 0.5669291338582677
        },
        {
          "duration": 0.1333334999999991,
          "durationTicks": 48,
          "midi": 65,
          "name": "F4",
          "ticks": 7248,
          "time": 20.1333585,
          "velocity": 0.5669291338582677
        },
        {
          "duration": 0.1333334999999991,
          "durationTicks": 48,
          "midi": 66,
          "name": "F#4",
          "ticks": 7296,
          "time": 20.266692,
          "velocity": 0.5669291338582677
        },
        {
          "duration": 0.1333334999999991,
          "durationTicks": 48,
          "midi": 70,
          "name": "A#4",
          "ticks": 7296,
          "time": 20.266692,
          "velocity": 0.5669291338582677
        },
        {
          "duration": 0.1333334999999991,
          "durationTicks": 48,
          "midi": 65,
          "name": "F4",
          "ticks": 7344,
          "time": 20.400025499999998,
          "velocity": 0.5669291338582677
        },
        {
          "duration": 0.1333334999999991,
          "durationTicks": 48,
          "midi": 69,
          "name": "A4",
          "ticks": 7344,
          "time": 20.400025499999998,
          "velocity": 0.5669291338582677
        },
        {
          "duration": 0.13333350000000266,
          "durationTicks": 48,
          "midi": 70,
          "name": "A#4",
          "ticks": 7392,
          "time": 20.533358999999997,
          "velocity": 0.5669291338582677
        },
        {
          "duration": 0.13333350000000266,
          "durationTicks": 48,
          "midi": 66,
          "name": "F#4",
          "ticks": 7392,
          "time": 20.533358999999997,
          "velocity": 0.5669291338582677
        },
        {
          "duration": 0.1333334999999991,
          "durationTicks": 48,
          "midi": 65,
          "name": "F4",
          "ticks": 7440,
          "time": 20.6666925,
          "velocity": 0.5669291338582677
        },
        {
          "duration": 0.1333334999999991,
          "durationTicks": 48,
          "midi": 69,
          "name": "A4",
          "ticks": 7440,
          "time": 20.6666925,
          "velocity": 0.5669291338582677
        },
        {
          "duration": 0.1333334999999991,
          "durationTicks": 48,
          "midi": 70,
          "name": "A#4",
          "ticks": 7488,
          "time": 20.800026,
          "velocity": 0.5669291338582677
        },
        {
          "duration": 0.1333334999999991,
          "durationTicks": 48,
          "midi": 66,
          "name": "F#4",
          "ticks": 7488,
          "time": 20.800026,
          "velocity": 0.5669291338582677
        },
        {
          "duration": 0.13333350000000266,
          "durationTicks": 48,
          "midi": 70,
          "name": "A#4",
          "ticks": 7536,
          "time": 20.933359499999998,
          "velocity": 0.5669291338582677
        },
        {
          "duration": 0.13333350000000266,
          "durationTicks": 48,
          "midi": 66,
          "name": "F#4",
          "ticks": 7536,
          "time": 20.933359499999998,
          "velocity": 0.5669291338582677
        },
        {
          "duration": 0.1333334999999991,
          "durationTicks": 48,
          "midi": 82,
          "name": "A#5",
          "ticks": 7632,
          "time": 21.2000265,
          "velocity": 0.5669291338582677
        },
        {
          "duration": 0.1333334999999991,
          "durationTicks": 48,
          "midi": 78,
          "name": "F#5",
          "ticks": 7632,
          "time": 21.2000265,
          "velocity": 0.5669291338582677
        },
        {
          "duration": 0.26666700000000176,
          "durationTicks": 96,
          "midi": 81,
          "name": "A5",
          "ticks": 7728,
          "time": 21.466693499999998,
          "velocity": 0.5669291338582677
        },
        {
          "duration": 0.26666700000000176,
          "durationTicks": 96,
          "midi": 77,
          "name": "F5",
          "ticks": 7728,
          "time": 21.466693499999998,
          "velocity": 0.5669291338582677
        },
        {
          "duration": 0.2666669999999982,
          "durationTicks": 96,
          "midi": 68,
          "name": "G#4",
          "ticks": 7824,
          "time": 21.7333605,
          "velocity": 0.5669291338582677
        },
        {
          "duration": 0.2666669999999982,
          "durationTicks": 96,
          "midi": 72,
          "name": "C5",
          "ticks": 7824,
          "time": 21.7333605,
          "velocity": 0.5669291338582677
        },
        {
          "duration": 0.2666669999999982,
          "durationTicks": 96,
          "midi": 65,
          "name": "F4",
          "ticks": 7968,
          "time": 22.133361,
          "velocity": 0.5669291338582677
        },
        {
          "duration": 0.2666669999999982,
          "durationTicks": 96,
          "midi": 69,
          "name": "A4",
          "ticks": 7968,
          "time": 22.133361,
          "velocity": 0.5669291338582677
        },
        {
          "duration": 0.1333334999999991,
          "durationTicks": 48,
          "midi": 66,
          "name": "F#4",
          "ticks": 8064,
          "time": 22.400028,
          "velocity": 0.5669291338582677
        },
        {
          "duration": 0.1333334999999991,
          "durationTicks": 48,
          "midi": 70,
          "name": "A#4",
          "ticks": 8064,
          "time": 22.400028,
          "velocity": 0.5669291338582677
        },
        {
          "duration": 0.13333350000000266,
          "durationTicks": 48,
          "midi": 65,
          "name": "F4",
          "ticks": 8160,
          "time": 22.666694999999997,
          "velocity": 0.5669291338582677
        },
        {
          "duration": 0.13333350000000266,
          "durationTicks": 48,
          "midi": 69,
          "name": "A4",
          "ticks": 8160,
          "time": 22.666694999999997,
          "velocity": 0.5669291338582677
        },
        {
          "duration": 0.1333334999999991,
          "durationTicks": 48,
          "midi": 66,
          "name": "F#4",
          "ticks": 8256,
          "time": 22.933362,
          "velocity": 0.5669291338582677
        },
        {
          "duration": 0.1333334999999991,
          "durationTicks": 48,
          "midi": 70,
          "name": "A#4",
          "ticks": 8256,
          "time": 22.933362,
          "velocity": 0.5669291338582677
        },
        {
          "duration": 0.1333334999999991,
          "durationTicks": 48,
          "midi": 69,
          "name": "A4",
          "ticks": 8352,
          "time": 23.200029,
          "velocity": 0.5669291338582677
        },
        {
          "duration": 0.1333334999999991,
          "durationTicks": 48,
          "midi": 65,
          "name": "F4",
          "ticks": 8352,
          "time": 23.200029,
          "velocity": 0.5669291338582677
        },
        {
          "duration": 0.1333334999999991,
          "durationTicks": 48,
          "midi": 66,
          "name": "F#4",
          "ticks": 8400,
          "time": 23.3333625,
          "velocity": 0.5669291338582677
        },
        {
          "duration": 0.1333334999999991,
          "durationTicks": 48,
          "midi": 70,
          "name": "A#4",
          "ticks": 8400,
          "time": 23.3333625,
          "velocity": 0.5669291338582677
        },
        {
          "duration": 0.1333334999999991,
          "durationTicks": 48,
          "midi": 82,
          "name": "A#5",
          "ticks": 8496,
          "time": 23.600029499999998,
          "velocity": 0.5669291338582677
        },
        {
          "duration": 0.1333334999999991,
          "durationTicks": 48,
          "midi": 78,
          "name": "F#5",
          "ticks": 8496,
          "time": 23.600029499999998,
          "velocity": 0.5669291338582677
        },
        {
          "duration": 0.1333334999999991,
          "durationTicks": 48,
          "midi": 69,
          "name": "A4",
          "ticks": 8592,
          "time": 23.8666965,
          "velocity": 0.5669291338582677
        },
        {
          "duration": 0.1333334999999991,
          "durationTicks": 48,
          "midi": 65,
          "name": "F4",
          "ticks": 8592,
          "time": 23.8666965,
          "velocity": 0.5669291338582677
        },
        {
          "duration": 0.1333334999999991,
          "durationTicks": 48,
          "midi": 70,
          "name": "A#4",
          "ticks": 8640,
          "time": 24.00003,
          "velocity": 0.5669291338582677
        },
        {
          "duration": 0.1333334999999991,
          "durationTicks": 48,
          "midi": 66,
          "name": "F#4",
          "ticks": 8640,
          "time": 24.00003,
          "velocity": 0.5669291338582677
        },
        {
          "duration": 0.13333350000000266,
          "durationTicks": 48,
          "midi": 69,
          "name": "A4",
          "ticks": 8688,
          "time": 24.133363499999998,
          "velocity": 0.5669291338582677
        },
        {
          "duration": 0.13333350000000266,
          "durationTicks": 48,
          "midi": 72,
          "name": "C5",
          "ticks": 8688,
          "time": 24.133363499999998,
          "velocity": 0.5669291338582677
        },
        {
          "duration": 0.1333334999999991,
          "durationTicks": 48,
          "midi": 73,
          "name": "C#5",
          "ticks": 8736,
          "time": 24.266697,
          "velocity": 0.5669291338582677
        },
        {
          "duration": 0.1333334999999991,
          "durationTicks": 48,
          "midi": 70,
          "name": "A#4",
          "ticks": 8736,
          "time": 24.266697,
          "velocity": 0.5669291338582677
        },
        {
          "duration": 0.533334,
          "durationTicks": 192,
          "midi": 74,
          "name": "D5",
          "ticks": 8832,
          "time": 24.533364,
          "velocity": 0.5669291338582677
        },
        {
          "duration": 0.533334,
          "durationTicks": 192,
          "midi": 70,
          "name": "A#4",
          "ticks": 8832,
          "time": 24.533364,
          "velocity": 0.5669291338582677
        },
        {
          "duration": 0.533334,
          "durationTicks": 192,
          "midi": 75,
          "name": "D#5",
          "ticks": 9024,
          "time": 25.066698,
          "velocity": 0.5669291338582677
        },
        {
          "duration": 0.533334,
          "durationTicks": 192,
          "midi": 68,
          "name": "G#4",
          "ticks": 9024,
          "time": 25.066698,
          "velocity": 0.5669291338582677
        },
        {
          "duration": 0.533334,
          "durationTicks": 192,
          "midi": 74,
          "name": "D5",
          "ticks": 9216,
          "time": 25.600032,
          "velocity": 0.5669291338582677
        },
        {
          "duration": 0.533334,
          "durationTicks": 192,
          "midi": 71,
          "name": "B4",
          "ticks": 9216,
          "time": 25.600032,
          "velocity": 0.5669291338582677
        },
        {
          "duration": 0.1333334999999991,
          "durationTicks": 48,
          "midi": 70,
          "name": "A#4",
          "ticks": 9408,
          "time": 26.133366,
          "velocity": 0.5669291338582677
        },
        {
          "duration": 0.1333334999999991,
          "durationTicks": 48,
          "midi": 65,
          "name": "F4",
          "ticks": 9408,
          "time": 26.133366,
          "velocity": 0.5669291338582677
        },
        {
          "duration": 0.1333334999999991,
          "durationTicks": 48,
          "midi": 66,
          "name": "F#4",
          "ticks": 9600,
          "time": 26.6667,
          "velocity": 0.5669291338582677
        },
        {
          "duration": 0.1333334999999991,
          "durationTicks": 48,
          "midi": 70,
          "name": "A#4",
          "ticks": 9600,
          "time": 26.6667,
          "velocity": 0.5669291338582677
        },
        {
          "duration": 0.13333350000000266,
          "durationTicks": 48,
          "midi": 69,
          "name": "A4",
          "ticks": 9696,
          "time": 26.933366999999997,
          "velocity": 0.5669291338582677
        },
        {
          "duration": 0.13333350000000266,
          "durationTicks": 48,
          "midi": 65,
          "name": "F4",
          "ticks": 9696,
          "time": 26.933366999999997,
          "velocity": 0.5669291338582677
        },
        {
          "duration": 0.1333334999999991,
          "durationTicks": 48,
          "midi": 66,
          "name": "F#4",
          "ticks": 9792,
          "time": 27.200034,
          "velocity": 0.5669291338582677
        },
        {
          "duration": 0.1333334999999991,
          "durationTicks": 48,
          "midi": 70,
          "name": "A#4",
          "ticks": 9792,
          "time": 27.200034,
          "velocity": 0.5669291338582677
        },
        {
          "duration": 0.1333334999999991,
          "durationTicks": 48,
          "midi": 65,
          "name": "F4",
          "ticks": 9888,
          "time": 27.466701,
          "velocity": 0.5669291338582677
        },
        {
          "duration": 0.1333334999999991,
          "durationTicks": 48,
          "midi": 69,
          "name": "A4",
          "ticks": 9888,
          "time": 27.466701,
          "velocity": 0.5669291338582677
        },
        {
          "duration": 0.1333334999999991,
          "durationTicks": 48,
          "midi": 66,
          "name": "F#4",
          "ticks": 9936,
          "time": 27.6000345,
          "velocity": 0.5669291338582677
        },
        {
          "duration": 0.1333334999999991,
          "durationTicks": 48,
          "midi": 70,
          "name": "A#4",
          "ticks": 9936,
          "time": 27.6000345,
          "velocity": 0.5669291338582677
        },
        {
          "duration": 0.1333334999999991,
          "durationTicks": 48,
          "midi": 78,
          "name": "F#5",
          "ticks": 10032,
          "time": 27.866701499999998,
          "velocity": 0.5669291338582677
        },
        {
          "duration": 0.1333334999999991,
          "durationTicks": 48,
          "midi": 82,
          "name": "A#5",
          "ticks": 10032,
          "time": 27.866701499999998,
          "velocity": 0.5669291338582677
        },
        {
          "duration": 0.1333334999999991,
          "durationTicks": 48,
          "midi": 65,
          "name": "F4",
          "ticks": 10128,
          "time": 28.1333685,
          "velocity": 0.5669291338582677
        },
        {
          "duration": 0.1333334999999991,
          "durationTicks": 48,
          "midi": 69,
          "name": "A4",
          "ticks": 10128,
          "time": 28.1333685,
          "velocity": 0.5669291338582677
        },
        {
          "duration": 0.1333334999999991,
          "durationTicks": 48,
          "midi": 70,
          "name": "A#4",
          "ticks": 10176,
          "time": 28.266702,
          "velocity": 0.5669291338582677
        },
        {
          "duration": 0.1333334999999991,
          "durationTicks": 48,
          "midi": 66,
          "name": "F#4",
          "ticks": 10176,
          "time": 28.266702,
          "velocity": 0.5669291338582677
        },
        {
          "duration": 0.13333350000000266,
          "durationTicks": 48,
          "midi": 69,
          "name": "A4",
          "ticks": 10224,
          "time": 28.400035499999998,
          "velocity": 0.5669291338582677
        },
        {
          "duration": 0.13333350000000266,
          "durationTicks": 48,
          "midi": 65,
          "name": "F4",
          "ticks": 10224,
          "time": 28.400035499999998,
          "velocity": 0.5669291338582677
        },
        {
          "duration": 0.1333334999999991,
          "durationTicks": 48,
          "midi": 70,
          "name": "A#4",
          "ticks": 10272,
          "time": 28.533369,
          "velocity": 0.5669291338582677
        },
        {
          "duration": 0.1333334999999991,
          "durationTicks": 48,
          "midi": 66,
          "name": "F#4",
          "ticks": 10272,
          "time": 28.533369,
          "velocity": 0.5669291338582677
        },
        {
          "duration": 0.1333334999999991,
          "durationTicks": 48,
          "midi": 69,
          "name": "A4",
          "ticks": 10320,
          "time": 28.6667025,
          "velocity": 0.5669291338582677
        },
        {
          "duration": 0.1333334999999991,
          "durationTicks": 48,
          "midi": 65,
          "name": "F4",
          "ticks": 10320,
          "time": 28.6667025,
          "velocity": 0.5669291338582677
        },
        {
          "duration": 0.1333334999999991,
          "durationTicks": 48,
          "midi": 66,
          "name": "F#4",
          "ticks": 10368,
          "time": 28.800036,
          "velocity": 0.5669291338582677
        },
        {
          "duration": 0.1333334999999991,
          "durationTicks": 48,
          "midi": 70,
          "name": "A#4",
          "ticks": 10368,
          "time": 28.800036,
          "velocity": 0.5669291338582677
        },
        {
          "duration": 0.1333334999999991,
          "durationTicks": 48,
          "midi": 65,
          "name": "F4",
          "ticks": 10416,
          "time": 28.933369499999998,
          "velocity": 0.5669291338582677
        },
        {
          "duration": 0.1333334999999991,
          "durationTicks": 48,
          "midi": 69,
          "name": "A4",
          "ticks": 10416,
          "time": 28.933369499999998,
          "velocity": 0.5669291338582677
        },
        {
          "duration": 0.13333350000000266,
          "durationTicks": 48,
          "midi": 66,
          "name": "F#4",
          "ticks": 10464,
          "time": 29.066702999999997,
          "velocity": 0.5669291338582677
        },
        {
          "duration": 0.13333350000000266,
          "durationTicks": 48,
          "midi": 70,
          "name": "A#4",
          "ticks": 10464,
          "time": 29.066702999999997,
          "velocity": 0.5669291338582677
        },
        {
          "duration": 0.1333334999999991,
          "durationTicks": 48,
          "midi": 69,
          "name": "A4",
          "ticks": 10512,
          "time": 29.2000365,
          "velocity": 0.5669291338582677
        },
        {
          "duration": 0.1333334999999991,
          "durationTicks": 48,
          "midi": 65,
          "name": "F4",
          "ticks": 10512,
          "time": 29.2000365,
          "velocity": 0.5669291338582677
        },
        {
          "duration": 0.1333334999999991,
          "durationTicks": 48,
          "midi": 66,
          "name": "F#4",
          "ticks": 10560,
          "time": 29.33337,
          "velocity": 0.5669291338582677
        },
        {
          "duration": 0.1333334999999991,
          "durationTicks": 48,
          "midi": 70,
          "name": "A#4",
          "ticks": 10560,
          "time": 29.33337,
          "velocity": 0.5669291338582677
        },
        {
          "duration": 0.13333350000000266,
          "durationTicks": 48,
          "midi": 66,
          "name": "F#4",
          "ticks": 10608,
          "time": 29.466703499999998,
          "velocity": 0.5669291338582677
        },
        {
          "duration": 0.13333350000000266,
          "durationTicks": 48,
          "midi": 70,
          "name": "A#4",
          "ticks": 10608,
          "time": 29.466703499999998,
          "velocity": 0.5669291338582677
        },
        {
          "duration": 0.1333334999999991,
          "durationTicks": 48,
          "midi": 78,
          "name": "F#5",
          "ticks": 10704,
          "time": 29.7333705,
          "velocity": 0.5669291338582677
        },
        {
          "duration": 0.1333334999999991,
          "durationTicks": 48,
          "midi": 82,
          "name": "A#5",
          "ticks": 10704,
          "time": 29.7333705,
          "velocity": 0.5669291338582677
        },
        {
          "duration": 0.26666700000000176,
          "durationTicks": 96,
          "midi": 81,
          "name": "A5",
          "ticks": 10800,
          "time": 30.000037499999998,
          "velocity": 0.5669291338582677
        },
        {
          "duration": 0.26666700000000176,
          "durationTicks": 96,
          "midi": 77,
          "name": "F5",
          "ticks": 10800,
          "time": 30.000037499999998,
          "velocity": 0.5669291338582677
        },
        {
          "duration": 0.2666669999999982,
          "durationTicks": 96,
          "midi": 72,
          "name": "C5",
          "ticks": 10896,
          "time": 30.2667045,
          "velocity": 0.5669291338582677
        },
        {
          "duration": 0.2666669999999982,
          "durationTicks": 96,
          "midi": 68,
          "name": "G#4",
          "ticks": 10896,
          "time": 30.2667045,
          "velocity": 0.5669291338582677
        },
        {
          "duration": 0.2666669999999982,
          "durationTicks": 96,
          "midi": 70,
          "name": "A#4",
          "ticks": 11136,
          "time": 30.933372,
          "velocity": 0.5669291338582677
        },
        {
          "duration": 0.2666669999999982,
          "durationTicks": 96,
          "midi": 75,
          "name": "D#5",
          "ticks": 11136,
          "time": 30.933372,
          "velocity": 0.5669291338582677
        },
        {
          "duration": 0.1333334999999991,
          "durationTicks": 48,
          "midi": 70,
          "name": "A#4",
          "ticks": 11280,
          "time": 31.3333725,
          "velocity": 0.5669291338582677
        },
        {
          "duration": 0.1333334999999991,
          "durationTicks": 48,
          "midi": 66,
          "name": "F#4",
          "ticks": 11280,
          "time": 31.3333725,
          "velocity": 0.5669291338582677
        },
        {
          "duration": 0.26666700000000176,
          "durationTicks": 96,
          "midi": 75,
          "name": "D#5",
          "ticks": 11328,
          "time": 31.466706,
          "velocity": 0.5669291338582677
        },
        {
          "duration": 0.26666700000000176,
          "durationTicks": 96,
          "midi": 70,
          "name": "A#4",
          "ticks": 11328,
          "time": 31.466706,
          "velocity": 0.5669291338582677
        },
        {
          "duration": 0.1333334999999991,
          "durationTicks": 48,
          "midi": 66,
          "name": "F#4",
          "ticks": 11472,
          "time": 31.8667065,
          "velocity": 0.5669291338582677
        },
        {
          "duration": 0.1333334999999991,
          "durationTicks": 48,
          "midi": 70,
          "name": "A#4",
          "ticks": 11472,
          "time": 31.8667065,
          "velocity": 0.5669291338582677
        },
        {
          "duration": 0.1333334999999991,
          "durationTicks": 48,
          "midi": 70,
          "name": "A#4",
          "ticks": 11520,
          "time": 32.00004,
          "velocity": 0.5669291338582677
        },
        {
          "duration": 0.1333334999999991,
          "durationTicks": 48,
          "midi": 75,
          "name": "D#5",
          "ticks": 11520,
          "time": 32.00004,
          "velocity": 0.5669291338582677
        },
        {
          "duration": 0.1333334999999991,
          "durationTicks": 48,
          "midi": 75,
          "name": "D#5",
          "ticks": 11568,
          "time": 32.1333735,
          "velocity": 0.5669291338582677
        },
        {
          "duration": 0.1333334999999991,
          "durationTicks": 48,
          "midi": 70,
          "name": "A#4",
          "ticks": 11568,
          "time": 32.1333735,
          "velocity": 0.5669291338582677
        },
        {
          "duration": 0.1333334999999991,
          "durationTicks": 48,
          "midi": 70,
          "name": "A#4",
          "ticks": 11664,
          "time": 32.400040499999996,
          "velocity": 0.5669291338582677
        },
        {
          "duration": 0.1333334999999991,
          "durationTicks": 48,
          "midi": 73,
          "name": "C#5",
          "ticks": 11664,
          "time": 32.400040499999996,
          "velocity": 0.5669291338582677
        },
        {
          "duration": 0.1333335000000062,
          "durationTicks": 48,
          "midi": 73,
          "name": "C#5",
          "ticks": 11712,
          "time": 32.533373999999995,
          "velocity": 0.5669291338582677
        },
        {
          "duration": 0.1333335000000062,
          "durationTicks": 48,
          "midi": 70,
          "name": "A#4",
          "ticks": 11712,
          "time": 32.533373999999995,
          "velocity": 0.5669291338582677
        },
        {
          "duration": 0.2666669999999982,
          "durationTicks": 96,
          "midi": 70,
          "name": "A#4",
          "ticks": 11808,
          "time": 32.800041,
          "velocity": 0.5669291338582677
        },
        {
          "duration": 0.2666669999999982,
          "durationTicks": 96,
          "midi": 66,
          "name": "F#4",
          "ticks": 11808,
          "time": 32.800041,
          "velocity": 0.5669291338582677
        },
        {
          "duration": 0.2666669999999982,
          "durationTicks": 96,
          "midi": 75,
          "name": "D#5",
          "ticks": 11904,
          "time": 33.066708,
          "velocity": 0.5669291338582677
        },
        {
          "duration": 0.2666669999999982,
          "durationTicks": 96,
          "midi": 70,
          "name": "A#4",
          "ticks": 11904,
          "time": 33.066708,
          "velocity": 0.5669291338582677
        },
        {
          "duration": 0.1333335000000062,
          "durationTicks": 48,
          "midi": 70,
          "name": "A#4",
          "ticks": 12048,
          "time": 33.466708499999996,
          "velocity": 0.5669291338582677
        },
        {
          "duration": 0.1333335000000062,
          "durationTicks": 48,
          "midi": 66,
          "name": "F#4",
          "ticks": 12048,
          "time": 33.466708499999996,
          "velocity": 0.5669291338582677
        },
        {
          "duration": 0.2666669999999982,
          "durationTicks": 96,
          "midi": 70,
          "name": "A#4",
          "ticks": 12096,
          "time": 33.600042,
          "velocity": 0.5669291338582677
        },
        {
          "duration": 0.2666669999999982,
          "durationTicks": 96,
          "midi": 75,
          "name": "D#5",
          "ticks": 12096,
          "time": 33.600042,
          "velocity": 0.5669291338582677
        },
        {
          "duration": 0.1333334999999991,
          "durationTicks": 48,
          "midi": 70,
          "name": "A#4",
          "ticks": 12240,
          "time": 34.0000425,
          "velocity": 0.5669291338582677
        },
        {
          "duration": 0.1333334999999991,
          "durationTicks": 48,
          "midi": 66,
          "name": "F#4",
          "ticks": 12240,
          "time": 34.0000425,
          "velocity": 0.5669291338582677
        },
        {
          "duration": 0.2666669999999982,
          "durationTicks": 96,
          "midi": 65,
          "name": "F4",
          "ticks": 33216,
          "time": 92.26678199999999,
          "velocity": 0.5669291338582677
        },
        {
          "duration": 0.2666669999999982,
          "durationTicks": 96,
          "midi": 69,
          "name": "A4",
          "ticks": 33216,
          "time": 92.26678199999999,
          "velocity": 0.5669291338582677
        },
        {
          "duration": 0.1333335000000062,
          "durationTicks": 48,
          "midi": 66,
          "name": "F#4",
          "ticks": 33312,
          "time": 92.53344899999999,
          "velocity": 0.5669291338582677
        },
        {
          "duration": 0.1333335000000062,
          "durationTicks": 48,
          "midi": 70,
          "name": "A#4",
          "ticks": 33312,
          "time": 92.53344899999999,
          "velocity": 0.5669291338582677
        },
        {
          "duration": 0.133333499999992,
          "durationTicks": 48,
          "midi": 65,
          "name": "F4",
          "ticks": 33408,
          "time": 92.800116,
          "velocity": 0.5669291338582677
        },
        {
          "duration": 0.133333499999992,
          "durationTicks": 48,
          "midi": 69,
          "name": "A4",
          "ticks": 33408,
          "time": 92.800116,
          "velocity": 0.5669291338582677
        },
        {
          "duration": 0.133333499999992,
          "durationTicks": 48,
          "midi": 70,
          "name": "A#4",
          "ticks": 33504,
          "time": 93.066783,
          "velocity": 0.5669291338582677
        },
        {
          "duration": 0.133333499999992,
          "durationTicks": 48,
          "midi": 66,
          "name": "F#4",
          "ticks": 33504,
          "time": 93.066783,
          "velocity": 0.5669291338582677
        },
        {
          "duration": 0.133333499999992,
          "durationTicks": 48,
          "midi": 69,
          "name": "A4",
          "ticks": 33600,
          "time": 93.33345,
          "velocity": 0.5669291338582677
        },
        {
          "duration": 0.133333499999992,
          "durationTicks": 48,
          "midi": 65,
          "name": "F4",
          "ticks": 33600,
          "time": 93.33345,
          "velocity": 0.5669291338582677
        },
        {
          "duration": 0.1333335000000062,
          "durationTicks": 48,
          "midi": 66,
          "name": "F#4",
          "ticks": 33648,
          "time": 93.46678349999999,
          "velocity": 0.5669291338582677
        },
        {
          "duration": 0.1333335000000062,
          "durationTicks": 48,
          "midi": 70,
          "name": "A#4",
          "ticks": 33648,
          "time": 93.46678349999999,
          "velocity": 0.5669291338582677
        },
        {
          "duration": 0.1333335000000062,
          "durationTicks": 48,
          "midi": 78,
          "name": "F#5",
          "ticks": 33744,
          "time": 93.73345049999999,
          "velocity": 0.5669291338582677
        },
        {
          "duration": 0.1333335000000062,
          "durationTicks": 48,
          "midi": 82,
          "name": "A#5",
          "ticks": 33744,
          "time": 93.73345049999999,
          "velocity": 0.5669291338582677
        },
        {
          "duration": 0.133333499999992,
          "durationTicks": 48,
          "midi": 69,
          "name": "A4",
          "ticks": 33840,
          "time": 94.0001175,
          "velocity": 0.5669291338582677
        },
        {
          "duration": 0.133333499999992,
          "durationTicks": 48,
          "midi": 65,
          "name": "F4",
          "ticks": 33840,
          "time": 94.0001175,
          "velocity": 0.5669291338582677
        },
        {
          "duration": 0.1333335000000062,
          "durationTicks": 48,
          "midi": 70,
          "name": "A#4",
          "ticks": 33888,
          "time": 94.133451,
          "velocity": 0.5669291338582677
        },
        {
          "duration": 0.1333335000000062,
          "durationTicks": 48,
          "midi": 66,
          "name": "F#4",
          "ticks": 33888,
          "time": 94.133451,
          "velocity": 0.5669291338582677
        },
        {
          "duration": 0.1333335000000062,
          "durationTicks": 48,
          "midi": 70,
          "name": "A#4",
          "ticks": 33984,
          "time": 94.40011799999999,
          "velocity": 0.5669291338582677
        },
        {
          "duration": 0.1333335000000062,
          "durationTicks": 48,
          "midi": 66,
          "name": "F#4",
          "ticks": 33984,
          "time": 94.40011799999999,
          "velocity": 0.5669291338582677
        },
        {
          "duration": 0.133333499999992,
          "durationTicks": 48,
          "midi": 65,
          "name": "F4",
          "ticks": 34032,
          "time": 94.5334515,
          "velocity": 0.5669291338582677
        },
        {
          "duration": 0.133333499999992,
          "durationTicks": 48,
          "midi": 69,
          "name": "A4",
          "ticks": 34032,
          "time": 94.5334515,
          "velocity": 0.5669291338582677
        },
        {
          "duration": 0.1333335000000062,
          "durationTicks": 48,
          "midi": 70,
          "name": "A#4",
          "ticks": 34080,
          "time": 94.66678499999999,
          "velocity": 0.5669291338582677
        },
        {
          "duration": 0.1333335000000062,
          "durationTicks": 48,
          "midi": 66,
          "name": "F#4",
          "ticks": 34080,
          "time": 94.66678499999999,
          "velocity": 0.5669291338582677
        },
        {
          "duration": 0.133333499999992,
          "durationTicks": 48,
          "midi": 65,
          "name": "F4",
          "ticks": 34128,
          "time": 94.8001185,
          "velocity": 0.5669291338582677
        },
        {
          "duration": 0.133333499999992,
          "durationTicks": 48,
          "midi": 69,
          "name": "A4",
          "ticks": 34128,
          "time": 94.8001185,
          "velocity": 0.5669291338582677
        },
        {
          "duration": 0.1333335000000062,
          "durationTicks": 48,
          "midi": 70,
          "name": "A#4",
          "ticks": 34176,
          "time": 94.93345199999999,
          "velocity": 0.5669291338582677
        },
        {
          "duration": 0.1333335000000062,
          "durationTicks": 48,
          "midi": 66,
          "name": "F#4",
          "ticks": 34176,
          "time": 94.93345199999999,
          "velocity": 0.5669291338582677
        },
        {
          "duration": 0.1333335000000062,
          "durationTicks": 48,
          "midi": 65,
          "name": "F4",
          "ticks": 34224,
          "time": 95.0667855,
          "velocity": 0.5669291338582677
        },
        {
          "duration": 0.1333335000000062,
          "durationTicks": 48,
          "midi": 69,
          "name": "A4",
          "ticks": 34224,
          "time": 95.0667855,
          "velocity": 0.5669291338582677
        },
        {
          "duration": 0.133333499999992,
          "durationTicks": 48,
          "midi": 70,
          "name": "A#4",
          "ticks": 34272,
          "time": 95.200119,
          "velocity": 0.5669291338582677
        },
        {
          "duration": 0.133333499999992,
          "durationTicks": 48,
          "midi": 66,
          "name": "F#4",
          "ticks": 34272,
          "time": 95.200119,
          "velocity": 0.5669291338582677
        },
        {
          "duration": 0.1333335000000062,
          "durationTicks": 48,
          "midi": 66,
          "name": "F#4",
          "ticks": 34320,
          "time": 95.33345249999999,
          "velocity": 0.5669291338582677
        },
        {
          "duration": 0.1333335000000062,
          "durationTicks": 48,
          "midi": 70,
          "name": "A#4",
          "ticks": 34320,
          "time": 95.33345249999999,
          "velocity": 0.5669291338582677
        },
        {
          "duration": 0.1333335000000062,
          "durationTicks": 48,
          "midi": 78,
          "name": "F#5",
          "ticks": 34416,
          "time": 95.60011949999999,
          "velocity": 0.5669291338582677
        },
        {
          "duration": 0.1333335000000062,
          "durationTicks": 48,
          "midi": 82,
          "name": "A#5",
          "ticks": 34416,
          "time": 95.60011949999999,
          "velocity": 0.5669291338582677
        },
        {
          "duration": 0.2666670000000124,
          "durationTicks": 96,
          "midi": 81,
          "name": "A5",
          "ticks": 34512,
          "time": 95.86678649999999,
          "velocity": 0.5669291338582677
        },
        {
          "duration": 0.2666670000000124,
          "durationTicks": 96,
          "midi": 77,
          "name": "F5",
          "ticks": 34512,
          "time": 95.86678649999999,
          "velocity": 0.5669291338582677
        },
        {
          "duration": 0.2666669999999982,
          "durationTicks": 96,
          "midi": 72,
          "name": "C5",
          "ticks": 34608,
          "time": 96.1334535,
          "velocity": 0.5669291338582677
        },
        {
          "duration": 0.2666669999999982,
          "durationTicks": 96,
          "midi": 68,
          "name": "G#4",
          "ticks": 34608,
          "time": 96.1334535,
          "velocity": 0.5669291338582677
        },
        {
          "duration": 0.2666669999999982,
          "durationTicks": 96,
          "midi": 65,
          "name": "F4",
          "ticks": 34752,
          "time": 96.53345399999999,
          "velocity": 0.5669291338582677
        },
        {
          "duration": 0.2666669999999982,
          "durationTicks": 96,
          "midi": 69,
          "name": "A4",
          "ticks": 34752,
          "time": 96.53345399999999,
          "velocity": 0.5669291338582677
        },
        {
          "duration": 0.1333335000000062,
          "durationTicks": 48,
          "midi": 66,
          "name": "F#4",
          "ticks": 34848,
          "time": 96.80012099999999,
          "velocity": 0.5669291338582677
        },
        {
          "duration": 0.1333335000000062,
          "durationTicks": 48,
          "midi": 70,
          "name": "A#4",
          "ticks": 34848,
          "time": 96.80012099999999,
          "velocity": 0.5669291338582677
        },
        {
          "duration": 0.133333499999992,
          "durationTicks": 48,
          "midi": 65,
          "name": "F4",
          "ticks": 34944,
          "time": 97.066788,
          "velocity": 0.5669291338582677
        },
        {
          "duration": 0.133333499999992,
          "durationTicks": 48,
          "midi": 69,
          "name": "A4",
          "ticks": 34944,
          "time": 97.066788,
          "velocity": 0.5669291338582677
        },
        {
          "duration": 0.133333499999992,
          "durationTicks": 48,
          "midi": 66,
          "name": "F#4",
          "ticks": 35040,
          "time": 97.333455,
          "velocity": 0.5669291338582677
        },
        {
          "duration": 0.133333499999992,
          "durationTicks": 48,
          "midi": 70,
          "name": "A#4",
          "ticks": 35040,
          "time": 97.333455,
          "velocity": 0.5669291338582677
        },
        {
          "duration": 0.133333499999992,
          "durationTicks": 48,
          "midi": 65,
          "name": "F4",
          "ticks": 35136,
          "time": 97.600122,
          "velocity": 0.5669291338582677
        },
        {
          "duration": 0.133333499999992,
          "durationTicks": 48,
          "midi": 69,
          "name": "A4",
          "ticks": 35136,
          "time": 97.600122,
          "velocity": 0.5669291338582677
        },
        {
          "duration": 0.1333335000000062,
          "durationTicks": 48,
          "midi": 70,
          "name": "A#4",
          "ticks": 35184,
          "time": 97.73345549999999,
          "velocity": 0.5669291338582677
        },
        {
          "duration": 0.1333335000000062,
          "durationTicks": 48,
          "midi": 66,
          "name": "F#4",
          "ticks": 35184,
          "time": 97.73345549999999,
          "velocity": 0.5669291338582677
        },
        {
          "duration": 0.1333335000000062,
          "durationTicks": 48,
          "midi": 78,
          "name": "F#5",
          "ticks": 35280,
          "time": 98.00012249999999,
          "velocity": 0.5669291338582677
        },
        {
          "duration": 0.1333335000000062,
          "durationTicks": 48,
          "midi": 82,
          "name": "A#5",
          "ticks": 35280,
          "time": 98.00012249999999,
          "velocity": 0.5669291338582677
        },
        {
          "duration": 0.133333499999992,
          "durationTicks": 48,
          "midi": 65,
          "name": "F4",
          "ticks": 35376,
          "time": 98.2667895,
          "velocity": 0.5669291338582677
        },
        {
          "duration": 0.133333499999992,
          "durationTicks": 48,
          "midi": 69,
          "name": "A4",
          "ticks": 35376,
          "time": 98.2667895,
          "velocity": 0.5669291338582677
        },
        {
          "duration": 0.1333335000000062,
          "durationTicks": 48,
          "midi": 70,
          "name": "A#4",
          "ticks": 35424,
          "time": 98.400123,
          "velocity": 0.5669291338582677
        },
        {
          "duration": 0.1333335000000062,
          "durationTicks": 48,
          "midi": 66,
          "name": "F#4",
          "ticks": 35424,
          "time": 98.400123,
          "velocity": 0.5669291338582677
        },
        {
          "duration": 0.133333499999992,
          "durationTicks": 48,
          "midi": 69,
          "name": "A4",
          "ticks": 35472,
          "time": 98.5334565,
          "velocity": 0.5669291338582677
        },
        {
          "duration": 0.133333499999992,
          "durationTicks": 48,
          "midi": 72,
          "name": "C5",
          "ticks": 35472,
          "time": 98.5334565,
          "velocity": 0.5669291338582677
        },
        {
          "duration": 0.1333335000000062,
          "durationTicks": 48,
          "midi": 70,
          "name": "A#4",
          "ticks": 35520,
          "time": 98.66678999999999,
          "velocity": 0.5669291338582677
        },
        {
          "duration": 0.1333335000000062,
          "durationTicks": 48,
          "midi": 73,
          "name": "C#5",
          "ticks": 35520,
          "time": 98.66678999999999,
          "velocity": 0.5669291338582677
        },
        {
          "duration": 0.5333340000000106,
          "durationTicks": 192,
          "midi": 70,
          "name": "A#4",
          "ticks": 35616,
          "time": 98.93345699999999,
          "velocity": 0.5669291338582677
        },
        {
          "duration": 0.5333340000000106,
          "durationTicks": 192,
          "midi": 74,
          "name": "D5",
          "ticks": 35616,
          "time": 98.93345699999999,
          "velocity": 0.5669291338582677
        },
        {
          "duration": 0.5333339999999964,
          "durationTicks": 192,
          "midi": 75,
          "name": "D#5",
          "ticks": 35808,
          "time": 99.466791,
          "velocity": 0.5669291338582677
        },
        {
          "duration": 0.5333339999999964,
          "durationTicks": 192,
          "midi": 68,
          "name": "G#4",
          "ticks": 35808,
          "time": 99.466791,
          "velocity": 0.5669291338582677
        },
        {
          "duration": 0.5333339999999964,
          "durationTicks": 192,
          "midi": 74,
          "name": "D5",
          "ticks": 36000,
          "time": 100.000125,
          "velocity": 0.5669291338582677
        },
        {
          "duration": 0.5333339999999964,
          "durationTicks": 192,
          "midi": 71,
          "name": "B4",
          "ticks": 36000,
          "time": 100.000125,
          "velocity": 0.5669291338582677
        },
        {
          "duration": 0.1333335000000062,
          "durationTicks": 48,
          "midi": 70,
          "name": "A#4",
          "ticks": 36192,
          "time": 100.533459,
          "velocity": 0.5669291338582677
        },
        {
          "duration": 0.1333335000000062,
          "durationTicks": 48,
          "midi": 65,
          "name": "F4",
          "ticks": 36192,
          "time": 100.533459,
          "velocity": 0.5669291338582677
        },
        {
          "duration": 0.1333335000000062,
          "durationTicks": 48,
          "midi": 70,
          "name": "A#4",
          "ticks": 36384,
          "time": 101.06679299999999,
          "velocity": 0.5669291338582677
        },
        {
          "duration": 0.1333335000000062,
          "durationTicks": 48,
          "midi": 66,
          "name": "F#4",
          "ticks": 36384,
          "time": 101.06679299999999,
          "velocity": 0.5669291338582677
        },
        {
          "duration": 0.133333499999992,
          "durationTicks": 48,
          "midi": 65,
          "name": "F4",
          "ticks": 36480,
          "time": 101.33346,
          "velocity": 0.5669291338582677
        },
        {
          "duration": 0.133333499999992,
          "durationTicks": 48,
          "midi": 69,
          "name": "A4",
          "ticks": 36480,
          "time": 101.33346,
          "velocity": 0.5669291338582677
        },
        {
          "duration": 0.133333499999992,
          "durationTicks": 48,
          "midi": 66,
          "name": "F#4",
          "ticks": 36576,
          "time": 101.600127,
          "velocity": 0.5669291338582677
        },
        {
          "duration": 0.133333499999992,
          "durationTicks": 48,
          "midi": 70,
          "name": "A#4",
          "ticks": 36576,
          "time": 101.600127,
          "velocity": 0.5669291338582677
        },
        {
          "duration": 0.1333335000000062,
          "durationTicks": 48,
          "midi": 66,
          "name": "F#4",
          "ticks": 36624,
          "time": 101.73346049999999,
          "velocity": 0.5669291338582677
        },
        {
          "duration": 0.1333335000000062,
          "durationTicks": 48,
          "midi": 70,
          "name": "A#4",
          "ticks": 36624,
          "time": 101.73346049999999,
          "velocity": 0.5669291338582677
        },
        {
          "duration": 0.133333499999992,
          "durationTicks": 48,
          "midi": 69,
          "name": "A4",
          "ticks": 36672,
          "time": 101.866794,
          "velocity": 0.5669291338582677
        },
        {
          "duration": 0.133333499999992,
          "durationTicks": 48,
          "midi": 65,
          "name": "F4",
          "ticks": 36672,
          "time": 101.866794,
          "velocity": 0.5669291338582677
        },
        {
          "duration": 0.1333335000000062,
          "durationTicks": 48,
          "midi": 66,
          "name": "F#4",
          "ticks": 36720,
          "time": 102.00012749999999,
          "velocity": 0.5669291338582677
        },
        {
          "duration": 0.1333335000000062,
          "durationTicks": 48,
          "midi": 70,
          "name": "A#4",
          "ticks": 36720,
          "time": 102.00012749999999,
          "velocity": 0.5669291338582677
        },
        {
          "duration": 0.1333335000000062,
          "durationTicks": 48,
          "midi": 82,
          "name": "A#5",
          "ticks": 36816,
          "time": 102.26679449999999,
          "velocity": 0.5669291338582677
        },
        {
          "duration": 0.1333335000000062,
          "durationTicks": 48,
          "midi": 78,
          "name": "F#5",
          "ticks": 36816,
          "time": 102.26679449999999,
          "velocity": 0.5669291338582677
        },
        {
          "duration": 0.133333499999992,
          "durationTicks": 48,
          "midi": 65,
          "name": "F4",
          "ticks": 36912,
          "time": 102.5334615,
          "velocity": 0.5669291338582677
        },
        {
          "duration": 0.133333499999992,
          "durationTicks": 48,
          "midi": 69,
          "name": "A4",
          "ticks": 36912,
          "time": 102.5334615,
          "velocity": 0.5669291338582677
        },
        {
          "duration": 0.1333335000000062,
          "durationTicks": 48,
          "midi": 70,
          "name": "A#4",
          "ticks": 36960,
          "time": 102.666795,
          "velocity": 0.5669291338582677
        },
        {
          "duration": 0.1333335000000062,
          "durationTicks": 48,
          "midi": 66,
          "name": "F#4",
          "ticks": 36960,
          "time": 102.666795,
          "velocity": 0.5669291338582677
        },
        {
          "duration": 0.133333499999992,
          "durationTicks": 48,
          "midi": 69,
          "name": "A4",
          "ticks": 37008,
          "time": 102.8001285,
          "velocity": 0.5669291338582677
        },
        {
          "duration": 0.133333499999992,
          "durationTicks": 48,
          "midi": 65,
          "name": "F4",
          "ticks": 37008,
          "time": 102.8001285,
          "velocity": 0.5669291338582677
        },
        {
          "duration": 0.1333335000000062,
          "durationTicks": 48,
          "midi": 70,
          "name": "A#4",
          "ticks": 37056,
          "time": 102.93346199999999,
          "velocity": 0.5669291338582677
        },
        {
          "duration": 0.1333335000000062,
          "durationTicks": 48,
          "midi": 66,
          "name": "F#4",
          "ticks": 37056,
          "time": 102.93346199999999,
          "velocity": 0.5669291338582677
        },
        {
          "duration": 0.133333499999992,
          "durationTicks": 48,
          "midi": 65,
          "name": "F4",
          "ticks": 37104,
          "time": 103.0667955,
          "velocity": 0.5669291338582677
        },
        {
          "duration": 0.133333499999992,
          "durationTicks": 48,
          "midi": 69,
          "name": "A4",
          "ticks": 37104,
          "time": 103.0667955,
          "velocity": 0.5669291338582677
        },
        {
          "duration": 0.1333335000000062,
          "durationTicks": 48,
          "midi": 66,
          "name": "F#4",
          "ticks": 37152,
          "time": 103.20012899999999,
          "velocity": 0.5669291338582677
        },
        {
          "duration": 0.1333335000000062,
          "durationTicks": 48,
          "midi": 70,
          "name": "A#4",
          "ticks": 37152,
          "time": 103.20012899999999,
          "velocity": 0.5669291338582677
        },
        {
          "duration": 0.133333499999992,
          "durationTicks": 48,
          "midi": 69,
          "name": "A4",
          "ticks": 37200,
          "time": 103.3334625,
          "velocity": 0.5669291338582677
        },
        {
          "duration": 0.133333499999992,
          "durationTicks": 48,
          "midi": 65,
          "name": "F4",
          "ticks": 37200,
          "time": 103.3334625,
          "velocity": 0.5669291338582677
        },
        {
          "duration": 0.1333335000000062,
          "durationTicks": 48,
          "midi": 66,
          "name": "F#4",
          "ticks": 37248,
          "time": 103.46679599999999,
          "velocity": 0.5669291338582677
        },
        {
          "duration": 0.1333335000000062,
          "durationTicks": 48,
          "midi": 70,
          "name": "A#4",
          "ticks": 37248,
          "time": 103.46679599999999,
          "velocity": 0.5669291338582677
        },
        {
          "duration": 0.1333335000000062,
          "durationTicks": 48,
          "midi": 69,
          "name": "A4",
          "ticks": 37296,
          "time": 103.6001295,
          "velocity": 0.5669291338582677
        },
        {
          "duration": 0.1333335000000062,
          "durationTicks": 48,
          "midi": 65,
          "name": "F4",
          "ticks": 37296,
          "time": 103.6001295,
          "velocity": 0.5669291338582677
        },
        {
          "duration": 0.133333499999992,
          "durationTicks": 48,
          "midi": 70,
          "name": "A#4",
          "ticks": 37344,
          "time": 103.733463,
          "velocity": 0.5669291338582677
        },
        {
          "duration": 0.133333499999992,
          "durationTicks": 48,
          "midi": 66,
          "name": "F#4",
          "ticks": 37344,
          "time": 103.733463,
          "velocity": 0.5669291338582677
        },
        {
          "duration": 0.1333335000000062,
          "durationTicks": 48,
          "midi": 66,
          "name": "F#4",
          "ticks": 37392,
          "time": 103.86679649999999,
          "velocity": 0.5669291338582677
        },
        {
          "duration": 0.1333335000000062,
          "durationTicks": 48,
          "midi": 70,
          "name": "A#4",
          "ticks": 37392,
          "time": 103.86679649999999,
          "velocity": 0.5669291338582677
        },
        {
          "duration": 0.1333335000000062,
          "durationTicks": 48,
          "midi": 82,
          "name": "A#5",
          "ticks": 37488,
          "time": 104.13346349999999,
          "velocity": 0.5669291338582677
        },
        {
          "duration": 0.1333335000000062,
          "durationTicks": 48,
          "midi": 78,
          "name": "F#5",
          "ticks": 37488,
          "time": 104.13346349999999,
          "velocity": 0.5669291338582677
        },
        {
          "duration": 0.2666670000000124,
          "durationTicks": 96,
          "midi": 81,
          "name": "A5",
          "ticks": 37584,
          "time": 104.40013049999999,
          "velocity": 0.5669291338582677
        },
        {
          "duration": 0.2666670000000124,
          "durationTicks": 96,
          "midi": 77,
          "name": "F5",
          "ticks": 37584,
          "time": 104.40013049999999,
          "velocity": 0.5669291338582677
        },
        {
          "duration": 0.2666669999999982,
          "durationTicks": 96,
          "midi": 72,
          "name": "C5",
          "ticks": 37680,
          "time": 104.6667975,
          "velocity": 0.5669291338582677
        },
        {
          "duration": 0.2666669999999982,
          "durationTicks": 96,
          "midi": 68,
          "name": "G#4",
          "ticks": 37680,
          "time": 104.6667975,
          "velocity": 0.5669291338582677
        },
        {
          "duration": 0.2666670000000124,
          "durationTicks": 96,
          "midi": 75,
          "name": "D#5",
          "ticks": 37920,
          "time": 105.33346499999999,
          "velocity": 0.5669291338582677
        },
        {
          "duration": 0.2666670000000124,
          "durationTicks": 96,
          "midi": 70,
          "name": "A#4",
          "ticks": 37920,
          "time": 105.33346499999999,
          "velocity": 0.5669291338582677
        },
        {
          "duration": 0.1333335000000062,
          "durationTicks": 48,
          "midi": 70,
          "name": "A#4",
          "ticks": 38064,
          "time": 105.7334655,
          "velocity": 0.5669291338582677
        },
        {
          "duration": 0.1333335000000062,
          "durationTicks": 48,
          "midi": 66,
          "name": "F#4",
          "ticks": 38064,
          "time": 105.7334655,
          "velocity": 0.5669291338582677
        },
        {
          "duration": 0.2666669999999982,
          "durationTicks": 96,
          "midi": 70,
          "name": "A#4",
          "ticks": 38112,
          "time": 105.866799,
          "velocity": 0.5669291338582677
        },
        {
          "duration": 0.2666669999999982,
          "durationTicks": 96,
          "midi": 75,
          "name": "D#5",
          "ticks": 38112,
          "time": 105.866799,
          "velocity": 0.5669291338582677
        },
        {
          "duration": 0.1333335000000062,
          "durationTicks": 48,
          "midi": 70,
          "name": "A#4",
          "ticks": 38256,
          "time": 106.26679949999999,
          "velocity": 0.5669291338582677
        },
        {
          "duration": 0.1333335000000062,
          "durationTicks": 48,
          "midi": 66,
          "name": "F#4",
          "ticks": 38256,
          "time": 106.26679949999999,
          "velocity": 0.5669291338582677
        },
        {
          "duration": 0.133333499999992,
          "durationTicks": 48,
          "midi": 75,
          "name": "D#5",
          "ticks": 38304,
          "time": 106.400133,
          "velocity": 0.5669291338582677
        },
        {
          "duration": 0.133333499999992,
          "durationTicks": 48,
          "midi": 70,
          "name": "A#4",
          "ticks": 38304,
          "time": 106.400133,
          "velocity": 0.5669291338582677
        },
        {
          "duration": 0.1333335000000062,
          "durationTicks": 48,
          "midi": 75,
          "name": "D#5",
          "ticks": 38352,
          "time": 106.53346649999999,
          "velocity": 0.5669291338582677
        },
        {
          "duration": 0.1333335000000062,
          "durationTicks": 48,
          "midi": 70,
          "name": "A#4",
          "ticks": 38352,
          "time": 106.53346649999999,
          "velocity": 0.5669291338582677
        },
        {
          "duration": 0.133333499999992,
          "durationTicks": 48,
          "midi": 70,
          "name": "A#4",
          "ticks": 38448,
          "time": 106.8001335,
          "velocity": 0.5669291338582677
        },
        {
          "duration": 0.133333499999992,
          "durationTicks": 48,
          "midi": 73,
          "name": "C#5",
          "ticks": 38448,
          "time": 106.8001335,
          "velocity": 0.5669291338582677
        },
        {
          "duration": 0.1333335000000062,
          "durationTicks": 48,
          "midi": 73,
          "name": "C#5",
          "ticks": 38496,
          "time": 106.933467,
          "velocity": 0.5669291338582677
        },
        {
          "duration": 0.1333335000000062,
          "durationTicks": 48,
          "midi": 70,
          "name": "A#4",
          "ticks": 38496,
          "time": 106.933467,
          "velocity": 0.5669291338582677
        },
        {
          "duration": 0.2666669999999982,
          "durationTicks": 96,
          "midi": 70,
          "name": "A#4",
          "ticks": 38592,
          "time": 107.20013399999999,
          "velocity": 0.5669291338582677
        },
        {
          "duration": 0.2666669999999982,
          "durationTicks": 96,
          "midi": 66,
          "name": "F#4",
          "ticks": 38592,
          "time": 107.20013399999999,
          "velocity": 0.5669291338582677
        },
        {
          "duration": 0.2666669999999982,
          "durationTicks": 96,
          "midi": 75,
          "name": "D#5",
          "ticks": 38688,
          "time": 107.46680099999999,
          "velocity": 0.5669291338582677
        },
        {
          "duration": 0.2666669999999982,
          "durationTicks": 96,
          "midi": 70,
          "name": "A#4",
          "ticks": 38688,
          "time": 107.46680099999999,
          "velocity": 0.5669291338582677
        },
        {
          "duration": 0.1333335000000062,
          "durationTicks": 48,
          "midi": 70,
          "name": "A#4",
          "ticks": 38832,
          "time": 107.8668015,
          "velocity": 0.5669291338582677
        },
        {
          "duration": 0.1333335000000062,
          "durationTicks": 48,
          "midi": 66,
          "name": "F#4",
          "ticks": 38832,
          "time": 107.8668015,
          "velocity": 0.5669291338582677
        },
        {
          "duration": 0.2666669999999982,
          "durationTicks": 96,
          "midi": 70,
          "name": "A#4",
          "ticks": 38880,
          "time": 108.000135,
          "velocity": 0.5669291338582677
        },
        {
          "duration": 0.2666669999999982,
          "durationTicks": 96,
          "midi": 75,
          "name": "D#5",
          "ticks": 38880,
          "time": 108.000135,
          "velocity": 0.5669291338582677
        },
        {
          "duration": 0.1333335000000062,
          "durationTicks": 48,
          "midi": 70,
          "name": "A#4",
          "ticks": 39024,
          "time": 108.40013549999999,
          "velocity": 0.5669291338582677
        },
        {
          "duration": 0.1333335000000062,
          "durationTicks": 48,
          "midi": 66,
          "name": "F#4",
          "ticks": 39024,
          "time": 108.40013549999999,
          "velocity": 0.5669291338582677
        }
      ],
      "endOfTrackTicks": 82491
    },
    {
      "channel": 3,
      "controlChanges": {
        "6": [
          {
            "number": 6,
            "ticks": 0,
            "time": 0,
            "value": 0.09448818897637795
          },
          {
            "number": 6,
            "ticks": 0,
            "time": 0,
            "value": 0.09448818897637795
          },
          {
            "number": 6,
            "ticks": 0,
            "time": 0,
            "value": 0.09448818897637795
          },
          {
            "number": 6,
            "ticks": 82466,
            "time": 228.45777604166662,
            "value": 0.09448818897637795
          },
          {
            "number": 6,
            "ticks": 82491,
            "time": 228.52722057291663,
            "value": 0.09448818897637795
          }
        ],
        "7": [
          {
            "number": 7,
            "ticks": 0,
            "time": 0,
            "value": 0.7874015748031497
          },
          {
            "number": 7,
            "ticks": 0,
            "time": 0,
            "value": 0.7874015748031497
          },
          {
            "number": 7,
            "ticks": 0,
            "time": 0,
            "value": 0.7874015748031497
          },
          {
            "number": 7,
            "ticks": 0,
            "time": 0,
            "value": 0.7874015748031497
          },
          {
            "number": 7,
            "ticks": 82466,
            "time": 228.45777604166662,
            "value": 0.7874015748031497
          },
          {
            "number": 7,
            "ticks": 82491,
            "time": 228.52722057291663,
            "value": 0.7874015748031497
          }
        ],
        "10": [
          {
            "number": 10,
            "ticks": 0,
            "time": 0,
            "value": 0.5039370078740157
          },
          {
            "number": 10,
            "ticks": 0,
            "time": 0,
            "value": 0.5039370078740157
          },
          {
            "number": 10,
            "ticks": 0,
            "time": 0,
            "value": 0.5039370078740157
          },
          {
            "number": 10,
            "ticks": 0,
            "time": 0,
            "value": 0.5039370078740157
          },
          {
            "number": 10,
            "ticks": 82466,
            "time": 228.45777604166662,
            "value": 0.5039370078740157
          },
          {
            "number": 10,
            "ticks": 82491,
            "time": 228.52722057291663,
            "value": 0.5039370078740157
          }
        ],
        "100": [
          {
            "number": 100,
            "ticks": 0,
            "time": 0,
            "value": 0
          },
          {
            "number": 100,
            "ticks": 0,
            "time": 0,
            "value": 0
          },
          {
            "number": 100,
            "ticks": 0,
            "time": 0,
            "value": 0
          },
          {
            "number": 100,
            "ticks": 82466,
            "time": 228.45777604166662,
            "value": 0
          },
          {
            "number": 100,
            "ticks": 82491,
            "time": 228.52722057291663,
            "value": 0
          }
        ],
        "101": [
          {
            "number": 101,
            "ticks": 0,
            "time": 0,
            "value": 0
          },
          {
            "number": 101,
            "ticks": 0,
            "time": 0,
            "value": 0
          },
          {
            "number": 101,
            "ticks": 0,
            "time": 0,
            "value": 0
          },
          {
            "number": 101,
            "ticks": 82466,
            "time": 228.45777604166662,
            "value": 0
          },
          {
            "number": 101,
            "ticks": 82491,
            "time": 228.52722057291663,
            "value": 0
          }
        ]
      },
      "pitchBends": [
        {
          "ticks": 0,
          "time": 0,
          "value": 0
        },
        {
          "ticks": 0,
          "time": 0,
          "value": 0
        },
        {
          "ticks": 0,
          "time": 0,
          "value": 0
        },
        {
          "ticks": 0,
          "time": 0,
          "value": 0
        },
        {
          "ticks": 82466,
          "time": 228.45777604166662,
          "value": 0
        },
        {
          "ticks": 82491,
          "time": 228.52722057291663,
          "value": 0
        }
      ],
      "instrument": {
        "family": "piano",
        "number": 0,
        "name": "acoustic grand piano"
      },
      "name": "MIKU",
      "notes": [
        {
          "duration": 0.04444449999999733,
          "durationTicks": 16,
          "midi": 71,
          "name": "B4",
          "ticks": 12384,
          "time": 34.400043,
          "velocity": 0.7874015748031497
        },
        {
          "duration": 0.24444474999999244,
          "durationTicks": 88,
          "midi": 73,
          "name": "C#5",
          "ticks": 12392,
          "time": 34.42226525,
          "velocity": 0.7874015748031497
        },
        {
          "duration": 0.1333335000000062,
          "durationTicks": 48,
          "midi": 65,
          "name": "F4",
          "ticks": 12480,
          "time": 34.666709999999995,
          "velocity": 0.7874015748031497
        },
        {
          "duration": 0.04444449999999733,
          "durationTicks": 16,
          "midi": 69,
          "name": "A4",
          "ticks": 12576,
          "time": 34.933377,
          "velocity": 0.7874015748031497
        },
        {
          "duration": 0.22222250000000088,
          "durationTicks": 80,
          "midi": 71,
          "name": "B4",
          "ticks": 12592,
          "time": 34.9778215,
          "velocity": 0.7874015748031497
        },
        {
          "duration": 0.1333334999999991,
          "durationTicks": 48,
          "midi": 66,
          "name": "F#4",
          "ticks": 12672,
          "time": 35.200044,
          "velocity": 0.7874015748031497
        },
        {
          "duration": 0.2666670000000053,
          "durationTicks": 96,
          "midi": 67,
          "name": "G4",
          "ticks": 12768,
          "time": 35.466711,
          "velocity": 0.7874015748031497
        },
        {
          "duration": 0.2666670000000053,
          "durationTicks": 96,
          "midi": 62,
          "name": "D4",
          "ticks": 12768,
          "time": 35.466711,
          "velocity": 0.7874015748031497
        },
        {
          "duration": 0.2666669999999982,
          "durationTicks": 96,
          "midi": 69,
          "name": "A4",
          "ticks": 12864,
          "time": 35.733378,
          "velocity": 0.7874015748031497
        },
        {
          "duration": 0.2666669999999982,
          "durationTicks": 96,
          "midi": 73,
          "name": "C#5",
          "ticks": 12864,
          "time": 35.733378,
          "velocity": 0.7874015748031497
        },
        {
          "duration": 0.1333334999999991,
          "durationTicks": 48,
          "midi": 71,
          "name": "B4",
          "ticks": 12960,
          "time": 36.000045,
          "velocity": 0.7874015748031497
        },
        {
          "duration": 0.1333334999999991,
          "durationTicks": 48,
          "midi": 67,
          "name": "G4",
          "ticks": 12960,
          "time": 36.000045,
          "velocity": 0.7874015748031497
        },
        {
          "duration": 0.04444449999999733,
          "durationTicks": 16,
          "midi": 70,
          "name": "A#4",
          "ticks": 13008,
          "time": 36.1333785,
          "velocity": 0.5354330708661418
        },
        {
          "duration": 0.04444449999999733,
          "durationTicks": 16,
          "midi": 66,
          "name": "F#4",
          "ticks": 13008,
          "time": 36.1333785,
          "velocity": 0.5354330708661418
        },
        {
          "duration": 0.04444450000000444,
          "durationTicks": 16,
          "midi": 65,
          "name": "F4",
          "ticks": 13024,
          "time": 36.177823,
          "velocity": 0.4881889763779528
        },
        {
          "duration": 0.04444450000000444,
          "durationTicks": 16,
          "midi": 69,
          "name": "A4",
          "ticks": 13024,
          "time": 36.177823,
          "velocity": 0.4881889763779528
        },
        {
          "duration": 0.04444449999999733,
          "durationTicks": 16,
          "midi": 68,
          "name": "G#4",
          "ticks": 13040,
          "time": 36.2222675,
          "velocity": 0.4330708661417323
        },
        {
          "duration": 0.04444449999999733,
          "durationTicks": 16,
          "midi": 64,
          "name": "E4",
          "ticks": 13040,
          "time": 36.2222675,
          "velocity": 0.4330708661417323
        },
        {
          "duration": 0.04444449999999733,
          "durationTicks": 16,
          "midi": 67,
          "name": "G4",
          "ticks": 13056,
          "time": 36.266712,
          "velocity": 0.3858267716535433
        },
        {
          "duration": 0.04444449999999733,
          "durationTicks": 16,
          "midi": 63,
          "name": "D#4",
          "ticks": 13056,
          "time": 36.266712,
          "velocity": 0.3858267716535433
        },
        {
          "duration": 0.04444450000000444,
          "durationTicks": 16,
          "midi": 62,
          "name": "D4",
          "ticks": 13072,
          "time": 36.311156499999996,
          "velocity": 0.33858267716535434
        },
        {
          "duration": 0.04444450000000444,
          "durationTicks": 16,
          "midi": 66,
          "name": "F#4",
          "ticks": 13072,
          "time": 36.311156499999996,
          "velocity": 0.33858267716535434
        },
        {
          "duration": 0.04444449999999733,
          "durationTicks": 16,
          "midi": 65,
          "name": "F4",
          "ticks": 13088,
          "time": 36.355601,
          "velocity": 0.29133858267716534
        },
        {
          "duration": 0.04444449999999733,
          "durationTicks": 16,
          "midi": 61,
          "name": "C#4",
          "ticks": 13088,
          "time": 36.355601,
          "velocity": 0.29133858267716534
        },
        {
          "duration": 0.04444449999999733,
          "durationTicks": 16,
          "midi": 64,
          "name": "E4",
          "ticks": 13104,
          "time": 36.4000455,
          "velocity": 0.23622047244094488
        },
        {
          "duration": 0.04444449999999733,
          "durationTicks": 16,
          "midi": 60,
          "name": "C4",
          "ticks": 13104,
          "time": 36.4000455,
          "velocity": 0.23622047244094488
        },
        {
          "duration": 0.04444450000000444,
          "durationTicks": 16,
          "midi": 63,
          "name": "D#4",
          "ticks": 13120,
          "time": 36.444489999999995,
          "velocity": 0.1889763779527559
        },
        {
          "duration": 0.04444450000000444,
          "durationTicks": 16,
          "midi": 59,
          "name": "B3",
          "ticks": 13120,
          "time": 36.444489999999995,
          "velocity": 0.1889763779527559
        },
        {
          "duration": 0.04444449999999733,
          "durationTicks": 16,
          "midi": 62,
          "name": "D4",
          "ticks": 13136,
          "time": 36.4889345,
          "velocity": 0.14173228346456693
        },
        {
          "duration": 0.04444449999999733,
          "durationTicks": 16,
          "midi": 58,
          "name": "A#3",
          "ticks": 13136,
          "time": 36.4889345,
          "velocity": 0.14173228346456693
        },
        {
          "duration": 0.2666669999999982,
          "durationTicks": 96,
          "midi": 63,
          "name": "D#4",
          "ticks": 15168,
          "time": 42.133386,
          "velocity": 0.8188976377952756
        },
        {
          "duration": 0.04444449999999733,
          "durationTicks": 16,
          "midi": 64,
          "name": "E4",
          "ticks": 15264,
          "time": 42.400053,
          "velocity": 0.8188976377952756
        },
        {
          "duration": 0.11111125000000044,
          "durationTicks": 40,
          "midi": 65,
          "name": "F4",
          "ticks": 15272,
          "time": 42.42227525,
          "velocity": 0.8188976377952756
        },
        {
          "duration": 0.066666749999996,
          "durationTicks": 24,
          "midi": 64,
          "name": "E4",
          "ticks": 15312,
          "time": 42.5333865,
          "velocity": 0.8188976377952756
        },
        {
          "duration": 0.0666667500000031,
          "durationTicks": 24,
          "midi": 65,
          "name": "F4",
          "ticks": 15360,
          "time": 42.66672,
          "velocity": 0.8188976377952756
        },
        {
          "duration": 0.1333334999999991,
          "durationTicks": 48,
          "midi": 66,
          "name": "F#4",
          "ticks": 15408,
          "time": 42.8000535,
          "velocity": 0.8188976377952756
        },
        {
          "duration": 0.1333334999999991,
          "durationTicks": 48,
          "midi": 65,
          "name": "F4",
          "ticks": 15456,
          "time": 42.933386999999996,
          "velocity": 0.8188976377952756
        },
        {
          "duration": 0.0666667500000031,
          "durationTicks": 24,
          "midi": 66,
          "name": "F#4",
          "ticks": 15504,
          "time": 43.066720499999995,
          "velocity": 0.8188976377952756
        },
        {
          "duration": 0.1333335000000062,
          "durationTicks": 48,
          "midi": 67,
          "name": "G4",
          "ticks": 15552,
          "time": 43.200053999999994,
          "velocity": 0.8188976377952756
        },
        {
          "duration": 0.1333334999999991,
          "durationTicks": 48,
          "midi": 67,
          "name": "G4",
          "ticks": 15648,
          "time": 43.466721,
          "velocity": 0.8188976377952756
        },
        {
          "duration": 0.04444449999999733,
          "durationTicks": 16,
          "midi": 67,
          "name": "G4",
          "ticks": 15744,
          "time": 43.733388,
          "velocity": 0.8188976377952756
        },
        {
          "duration": 0.11111124999999333,
          "durationTicks": 40,
          "midi": 68,
          "name": "G#4",
          "ticks": 15752,
          "time": 43.755610250000004,
          "velocity": 0.8188976377952756
        },
        {
          "duration": 0.0666667500000031,
          "durationTicks": 24,
          "midi": 67,
          "name": "G4",
          "ticks": 15792,
          "time": 43.8667215,
          "velocity": 0.8188976377952756
        },
        {
          "duration": 0.0666667500000031,
          "durationTicks": 24,
          "midi": 68,
          "name": "G#4",
          "ticks": 15840,
          "time": 44.000054999999996,
          "velocity": 0.8188976377952756
        },
        {
          "duration": 0.1333335000000062,
          "durationTicks": 48,
          "midi": 69,
          "name": "A4",
          "ticks": 15888,
          "time": 44.133388499999995,
          "velocity": 0.8188976377952756
        },
        {
          "duration": 0.066666749999996,
          "durationTicks": 24,
          "midi": 68,
          "name": "G#4",
          "ticks": 15936,
          "time": 44.266722,
          "velocity": 0.8188976377952756
        },
        {
          "duration": 0.066666749999996,
          "durationTicks": 24,
          "midi": 69,
          "name": "A4",
          "ticks": 15984,
          "time": 44.4000555,
          "velocity": 0.8188976377952756
        },
        {
          "duration": 0.1333334999999991,
          "durationTicks": 48,
          "midi": 70,
          "name": "A#4",
          "ticks": 16032,
          "time": 44.533389,
          "velocity": 0.8188976377952756
        },
        {
          "duration": 0.1333334999999991,
          "durationTicks": 48,
          "midi": 76,
          "name": "E5",
          "ticks": 16080,
          "time": 44.6667225,
          "velocity": 0.8188976377952756
        },
        {
          "duration": 0.1333334999999991,
          "durationTicks": 48,
          "midi": 70,
          "name": "A#4",
          "ticks": 16128,
          "time": 44.800056,
          "velocity": 0.8188976377952756
        },
        {
          "duration": 0.1333334999999991,
          "durationTicks": 48,
          "midi": 69,
          "name": "A4",
          "ticks": 16176,
          "time": 44.9333895,
          "velocity": 0.8188976377952756
        },
        {
          "duration": 0.1333334999999991,
          "durationTicks": 48,
          "midi": 64,
          "name": "E4",
          "ticks": 16224,
          "time": 45.066722999999996,
          "velocity": 0.8188976377952756
        },
        {
          "duration": 0.0666667500000031,
          "durationTicks": 24,
          "midi": 73,
          "name": "C#5",
          "ticks": 17808,
          "time": 49.466728499999995,
          "velocity": 0.8188976377952756
        },
        {
          "duration": 0.0666667500000031,
          "durationTicks": 24,
          "midi": 73,
          "name": "C#5",
          "ticks": 17856,
          "time": 49.600061999999994,
          "velocity": 0.8188976377952756
        },
        {
          "duration": 0.066666749999996,
          "durationTicks": 24,
          "midi": 73,
          "name": "C#5",
          "ticks": 17952,
          "time": 49.866729,
          "velocity": 0.8188976377952756
        },
        {
          "duration": 0.066666749999996,
          "durationTicks": 24,
          "midi": 73,
          "name": "C#5",
          "ticks": 18000,
          "time": 50.0000625,
          "velocity": 0.8188976377952756
        },
        {
          "duration": 0.2666669999999982,
          "durationTicks": 96,
          "midi": 73,
          "name": "C#5",
          "ticks": 18096,
          "time": 50.2667295,
          "velocity": 0.8188976377952756
        },
        {
          "duration": 0.0666667500000031,
          "durationTicks": 24,
          "midi": 72,
          "name": "C5",
          "ticks": 18192,
          "time": 50.533396499999995,
          "velocity": 0.8188976377952756
        },
        {
          "duration": 0.066666749999996,
          "durationTicks": 24,
          "midi": 73,
          "name": "C#5",
          "ticks": 18240,
          "time": 50.66673,
          "velocity": 0.8188976377952756
        },
        {
          "duration": 0.066666749999996,
          "durationTicks": 24,
          "midi": 72,
          "name": "C5",
          "ticks": 18288,
          "time": 50.8000635,
          "velocity": 0.8188976377952756
        },
        {
          "duration": 0.066666749999996,
          "durationTicks": 24,
          "midi": 73,
          "name": "C#5",
          "ticks": 18336,
          "time": 50.933397,
          "velocity": 0.8188976377952756
        },
        {
          "duration": 0.2666669999999982,
          "durationTicks": 96,
          "midi": 61,
          "name": "C#4",
          "ticks": 18432,
          "time": 51.200064,
          "velocity": 0.8188976377952756
        },
        {
          "duration": 0.2666669999999982,
          "durationTicks": 96,
          "midi": 73,
          "name": "C#5",
          "ticks": 18528,
          "time": 51.466730999999996,
          "velocity": 0.8188976377952756
        },
        {
          "duration": 0.033333374999998,
          "durationTicks": 12,
          "midi": 72,
          "name": "C5",
          "ticks": 18672,
          "time": 51.8667315,
          "velocity": 0.8188976377952756
        },
        {
          "duration": 0.033333374999998,
          "durationTicks": 12,
          "midi": 72,
          "name": "C5",
          "ticks": 18696,
          "time": 51.933398249999996,
          "velocity": 0.8188976377952756
        },
        {
          "duration": 0.2666669999999982,
          "durationTicks": 96,
          "midi": 73,
          "name": "C#5",
          "ticks": 18720,
          "time": 52.000065,
          "velocity": 0.8188976377952756
        },
        {
          "duration": 0.1333334999999991,
          "durationTicks": 48,
          "midi": 72,
          "name": "C5",
          "ticks": 18864,
          "time": 52.4000655,
          "velocity": 0.8188976377952756
        },
        {
          "duration": 0.1333334999999991,
          "durationTicks": 48,
          "midi": 73,
          "name": "C#5",
          "ticks": 18912,
          "time": 52.533398999999996,
          "velocity": 0.8188976377952756
        },
        {
          "duration": 0.1333335000000062,
          "durationTicks": 48,
          "midi": 72,
          "name": "C5",
          "ticks": 18960,
          "time": 52.666732499999995,
          "velocity": 0.8188976377952756
        },
        {
          "duration": 0.1333334999999991,
          "durationTicks": 48,
          "midi": 73,
          "name": "C#5",
          "ticks": 19008,
          "time": 52.800066,
          "velocity": 0.8188976377952756
        },
        {
          "duration": 0.1333334999999991,
          "durationTicks": 48,
          "midi": 72,
          "name": "C5",
          "ticks": 19056,
          "time": 52.9333995,
          "velocity": 0.8188976377952756
        },
        {
          "duration": 0.2666669999999982,
          "durationTicks": 96,
          "midi": 73,
          "name": "C#5",
          "ticks": 19104,
          "time": 53.066733,
          "velocity": 0.8188976377952756
        },
        {
          "duration": 0.033333374999998,
          "durationTicks": 12,
          "midi": 79,
          "name": "G5",
          "ticks": 19200,
          "time": 53.3334,
          "velocity": 0.8188976377952756
        },
        {
          "duration": 0.2333336250000002,
          "durationTicks": 84,
          "midi": 81,
          "name": "A5",
          "ticks": 19212,
          "time": 53.366733374999995,
          "velocity": 0.8188976377952756
        },
        {
          "duration": 0.1333334999999991,
          "durationTicks": 48,
          "midi": 69,
          "name": "A4",
          "ticks": 19296,
          "time": 53.600066999999996,
          "velocity": 0.8188976377952756
        },
        {
          "duration": 0.033333375000005105,
          "durationTicks": 12,
          "midi": 70,
          "name": "A#4",
          "ticks": 19392,
          "time": 53.866733999999994,
          "velocity": 0.8188976377952756
        },
        {
          "duration": 0.24444474999999954,
          "durationTicks": 88,
          "midi": 71,
          "name": "B4",
          "ticks": 19400,
          "time": 53.88895625,
          "velocity": 0.8188976377952756
        },
        {
          "duration": 0.2666669999999982,
          "durationTicks": 96,
          "midi": 65,
          "name": "F4",
          "ticks": 19488,
          "time": 54.133401,
          "velocity": 0.8188976377952756
        },
        {
          "duration": 0.1333334999999991,
          "durationTicks": 48,
          "midi": 68,
          "name": "G#4",
          "ticks": 19584,
          "time": 54.400068,
          "velocity": 0.8188976377952756
        },
        {
          "duration": 0.1333334999999991,
          "durationTicks": 48,
          "midi": 69,
          "name": "A4",
          "ticks": 19632,
          "time": 54.5334015,
          "velocity": 0.8188976377952756
        },
        {
          "duration": 0.033333375000005105,
          "durationTicks": 12,
          "midi": 75,
          "name": "D#5",
          "ticks": 19680,
          "time": 54.666734999999996,
          "velocity": 0.8188976377952756
        },
        {
          "duration": 0.2333336250000002,
          "durationTicks": 84,
          "midi": 76,
          "name": "E5",
          "ticks": 19692,
          "time": 54.700068375,
          "velocity": 0.8188976377952756
        },
        {
          "duration": 0.2666669999999982,
          "durationTicks": 96,
          "midi": 73,
          "name": "C#5",
          "ticks": 19776,
          "time": 54.933402,
          "velocity": 0.8188976377952756
        },
        {
          "duration": 0.033333374999998,
          "durationTicks": 12,
          "midi": 70,
          "name": "A#4",
          "ticks": 19872,
          "time": 55.200069,
          "velocity": 0.8188976377952756
        },
        {
          "duration": 0.2333336250000002,
          "durationTicks": 84,
          "midi": 71,
          "name": "B4",
          "ticks": 19884,
          "time": 55.233402375,
          "velocity": 0.8188976377952756
        },
        {
          "duration": 0.2333336250000002,
          "durationTicks": 84,
          "midi": 69,
          "name": "A4",
          "ticks": 19968,
          "time": 55.466736,
          "velocity": 0.8188976377952756
        },
        {
          "duration": 0.1333334999999991,
          "durationTicks": 48,
          "midi": 69,
          "name": "A4",
          "ticks": 20064,
          "time": 55.733402999999996,
          "velocity": 0.8188976377952756
        },
        {
          "duration": 0.1333334999999991,
          "durationTicks": 48,
          "midi": 81,
          "name": "A5",
          "ticks": 20112,
          "time": 55.866736499999995,
          "velocity": 0.8188976377952756
        },
        {
          "duration": 0.066666749999996,
          "durationTicks": 24,
          "midi": 66,
          "name": "F#4",
          "ticks": 20208,
          "time": 56.1334035,
          "velocity": 0.8188976377952756
        },
        {
          "duration": 0.0666667500000031,
          "durationTicks": 24,
          "midi": 68,
          "name": "G#4",
          "ticks": 20232,
          "time": 56.200070249999996,
          "velocity": 0.8188976377952756
        },
        {
          "duration": 0.1000001250000011,
          "durationTicks": 36,
          "midi": 69,
          "name": "A4",
          "ticks": 20256,
          "time": 56.266737,
          "velocity": 0.8188976377952756
        },
        {
          "duration": 0.033333374999998,
          "durationTicks": 12,
          "midi": 69,
          "name": "A4",
          "ticks": 20304,
          "time": 56.4000705,
          "velocity": 0.8188976377952756
        },
        {
          "duration": 0.033333375000005105,
          "durationTicks": 12,
          "midi": 69,
          "name": "A4",
          "ticks": 20328,
          "time": 56.466737249999994,
          "velocity": 0.8188976377952756
        },
        {
          "duration": 0.0666667500000031,
          "durationTicks": 24,
          "midi": 78,
          "name": "F#5",
          "ticks": 20352,
          "time": 56.533404,
          "velocity": 0.8188976377952756
        },
        {
          "duration": 0.1333334999999991,
          "durationTicks": 48,
          "midi": 69,
          "name": "A4",
          "ticks": 20400,
          "time": 56.666737499999996,
          "velocity": 0.8188976377952756
        },
        {
          "duration": 0.033333375000005105,
          "durationTicks": 12,
          "midi": 71,
          "name": "B4",
          "ticks": 20448,
          "time": 56.800070999999996,
          "velocity": 0.8188976377952756
        },
        {
          "duration": 0.033333374999998,
          "durationTicks": 12,
          "midi": 71,
          "name": "B4",
          "ticks": 20472,
          "time": 56.86673775,
          "velocity": 0.8188976377952756
        },
        {
          "duration": 0.033333375000005105,
          "durationTicks": 12,
          "midi": 71,
          "name": "B4",
          "ticks": 20496,
          "time": 56.933404499999995,
          "velocity": 0.8188976377952756
        },
        {
          "duration": 0.033333374999998,
          "durationTicks": 12,
          "midi": 71,
          "name": "B4",
          "ticks": 20520,
          "time": 57.00007125,
          "velocity": 0.8188976377952756
        },
        {
          "duration": 0.1333334999999991,
          "durationTicks": 48,
          "midi": 78,
          "name": "F#5",
          "ticks": 20544,
          "time": 57.066738,
          "velocity": 0.8188976377952756
        },
        {
          "duration": 0.0666667500000031,
          "durationTicks": 24,
          "midi": 71,
          "name": "B4",
          "ticks": 20616,
          "time": 57.266738249999996,
          "velocity": 0.8188976377952756
        },
        {
          "duration": 0.033333374999998,
          "durationTicks": 12,
          "midi": 73,
          "name": "C#5",
          "ticks": 20640,
          "time": 57.333405,
          "velocity": 0.8188976377952756
        },
        {
          "duration": 0.033333375000005105,
          "durationTicks": 12,
          "midi": 73,
          "name": "C#5",
          "ticks": 20664,
          "time": 57.400071749999995,
          "velocity": 0.8188976377952756
        },
        {
          "duration": 0.033333374999998,
          "durationTicks": 12,
          "midi": 73,
          "name": "C#5",
          "ticks": 20688,
          "time": 57.4667385,
          "velocity": 0.8188976377952756
        },
        {
          "duration": 0.0666667500000031,
          "durationTicks": 24,
          "midi": 73,
          "name": "C#5",
          "ticks": 20712,
          "time": 57.533405249999994,
          "velocity": 0.8188976377952756
        },
        {
          "duration": 0.1333334999999991,
          "durationTicks": 48,
          "midi": 78,
          "name": "F#5",
          "ticks": 20736,
          "time": 57.600072,
          "velocity": 0.8188976377952756
        },
        {
          "duration": 0.1333334999999991,
          "durationTicks": 48,
          "midi": 73,
          "name": "C#5",
          "ticks": 20784,
          "time": 57.733405499999996,
          "velocity": 0.8188976377952756
        },
        {
          "duration": 0.1333334999999991,
          "durationTicks": 48,
          "midi": 74,
          "name": "D5",
          "ticks": 20832,
          "time": 57.866738999999995,
          "velocity": 0.8188976377952756
        },
        {
          "duration": 0.1333334999999991,
          "durationTicks": 48,
          "midi": 73,
          "name": "C#5",
          "ticks": 20880,
          "time": 58.000072499999995,
          "velocity": 0.8188976377952756
        },
        {
          "duration": 0.1333335000000062,
          "durationTicks": 48,
          "midi": 72,
          "name": "C5",
          "ticks": 20928,
          "time": 58.133405999999994,
          "velocity": 0.8188976377952756
        },
        {
          "duration": 0.1333334999999991,
          "durationTicks": 48,
          "midi": 71,
          "name": "B4",
          "ticks": 20976,
          "time": 58.2667395,
          "velocity": 0.8188976377952756
        },
        {
          "duration": 0.1333334999999991,
          "durationTicks": 48,
          "midi": 72,
          "name": "C5",
          "ticks": 21024,
          "time": 58.400073,
          "velocity": 0.8188976377952756
        },
        {
          "duration": 0.1333334999999991,
          "durationTicks": 48,
          "midi": 71,
          "name": "B4",
          "ticks": 21072,
          "time": 58.5334065,
          "velocity": 0.8188976377952756
        },
        {
          "duration": 0.1333334999999991,
          "durationTicks": 48,
          "midi": 70,
          "name": "A#4",
          "ticks": 21120,
          "time": 58.66674,
          "velocity": 0.8188976377952756
        },
        {
          "duration": 0.1333334999999991,
          "durationTicks": 48,
          "midi": 69,
          "name": "A4",
          "ticks": 21168,
          "time": 58.800073499999996,
          "velocity": 0.8188976377952756
        },
        {
          "duration": 0.1333334999999991,
          "durationTicks": 48,
          "midi": 73,
          "name": "C#5",
          "ticks": 21216,
          "time": 58.933406999999995,
          "velocity": 0.8188976377952756
        },
        {
          "duration": 0.1333335000000062,
          "durationTicks": 48,
          "midi": 74,
          "name": "D5",
          "ticks": 21264,
          "time": 59.066740499999995,
          "velocity": 0.8188976377952756
        },
        {
          "duration": 0.1333334999999991,
          "durationTicks": 48,
          "midi": 73,
          "name": "C#5",
          "ticks": 21312,
          "time": 59.200074,
          "velocity": 0.8188976377952756
        },
        {
          "duration": 0.1333334999999991,
          "durationTicks": 48,
          "midi": 74,
          "name": "D5",
          "ticks": 21360,
          "time": 59.3334075,
          "velocity": 0.8188976377952756
        },
        {
          "duration": 0.1333334999999991,
          "durationTicks": 48,
          "midi": 73,
          "name": "C#5",
          "ticks": 21408,
          "time": 59.466741,
          "velocity": 0.8188976377952756
        },
        {
          "duration": 0.2666669999999982,
          "durationTicks": 96,
          "midi": 66,
          "name": "F#4",
          "ticks": 21504,
          "time": 59.733408,
          "velocity": 0.8188976377952756
        },
        {
          "duration": 0.033333375000005105,
          "durationTicks": 12,
          "midi": 76,
          "name": "E5",
          "ticks": 21600,
          "time": 60.000074999999995,
          "velocity": 0.8188976377952756
        },
        {
          "duration": 0.2500003124999992,
          "durationTicks": 90,
          "midi": 78,
          "name": "F#5",
          "ticks": 21606,
          "time": 60.016741687499994,
          "velocity": 0.8188976377952756
        },
        {
          "duration": 0.066666749999996,
          "durationTicks": 24,
          "midi": 73,
          "name": "C#5",
          "ticks": 21744,
          "time": 60.4000755,
          "velocity": 0.8188976377952756
        },
        {
          "duration": 0.2666669999999982,
          "durationTicks": 96,
          "midi": 71,
          "name": "B4",
          "ticks": 21792,
          "time": 60.533409,
          "velocity": 0.8188976377952756
        },
        {
          "duration": 0.1333334999999991,
          "durationTicks": 48,
          "midi": 69,
          "name": "A4",
          "ticks": 21936,
          "time": 60.933409499999996,
          "velocity": 0.8188976377952756
        },
        {
          "duration": 0.033333375000005105,
          "durationTicks": 12,
          "midi": 69,
          "name": "A4",
          "ticks": 21984,
          "time": 61.066742999999995,
          "velocity": 0.8188976377952756
        },
        {
          "duration": 0.24722253125000293,
          "durationTicks": 89,
          "midi": 71,
          "name": "B4",
          "ticks": 21991,
          "time": 61.08618746875,
          "velocity": 0.8188976377952756
        },
        {
          "duration": 0.2666669999999982,
          "durationTicks": 96,
          "midi": 74,
          "name": "D5",
          "ticks": 22080,
          "time": 61.33341,
          "velocity": 0.8188976377952756
        },
        {
          "duration": 0.2666669999999982,
          "durationTicks": 96,
          "midi": 73,
          "name": "C#5",
          "ticks": 22176,
          "time": 61.600077,
          "velocity": 0.8188976377952756
        },
        {
          "duration": 0.2666669999999982,
          "durationTicks": 96,
          "midi": 66,
          "name": "F#4",
          "ticks": 22272,
          "time": 61.866744,
          "velocity": 0.8188976377952756
        },
        {
          "duration": 0.033333375000005105,
          "durationTicks": 12,
          "midi": 76,
          "name": "E5",
          "ticks": 22368,
          "time": 62.133410999999995,
          "velocity": 0.8188976377952756
        },
        {
          "duration": 0.2500003124999992,
          "durationTicks": 90,
          "midi": 78,
          "name": "F#5",
          "ticks": 22374,
          "time": 62.150077687499994,
          "velocity": 0.8188976377952756
        },
        {
          "duration": 0.066666749999996,
          "durationTicks": 24,
          "midi": 73,
          "name": "C#5",
          "ticks": 22512,
          "time": 62.5334115,
          "velocity": 0.8188976377952756
        },
        {
          "duration": 0.2666669999999982,
          "durationTicks": 96,
          "midi": 71,
          "name": "B4",
          "ticks": 22560,
          "time": 62.666745,
          "velocity": 0.8188976377952756
        },
        {
          "duration": 0.1333334999999991,
          "durationTicks": 48,
          "midi": 68,
          "name": "G#4",
          "ticks": 22704,
          "time": 63.066745499999996,
          "velocity": 0.8188976377952756
        },
        {
          "duration": 0.1333334999999991,
          "durationTicks": 48,
          "midi": 71,
          "name": "B4",
          "ticks": 22752,
          "time": 63.200078999999995,
          "velocity": 0.8188976377952756
        },
        {
          "duration": 0.1333335000000062,
          "durationTicks": 48,
          "midi": 71,
          "name": "B4",
          "ticks": 22800,
          "time": 63.333412499999994,
          "velocity": 0.8188976377952756
        },
        {
          "duration": 0.1333334999999991,
          "durationTicks": 48,
          "midi": 69,
          "name": "A4",
          "ticks": 22848,
          "time": 63.466746,
          "velocity": 0.8188976377952756
        },
        {
          "duration": 0.1333334999999991,
          "durationTicks": 48,
          "midi": 68,
          "name": "G#4",
          "ticks": 22896,
          "time": 63.6000795,
          "velocity": 0.8188976377952756
        },
        {
          "duration": 0.15555574999999777,
          "durationTicks": 56,
          "midi": 69,
          "name": "A4",
          "ticks": 22944,
          "time": 63.733413,
          "velocity": 0.8188976377952756
        },
        {
          "duration": 0.2666669999999982,
          "durationTicks": 96,
          "midi": 66,
          "name": "F#4",
          "ticks": 23040,
          "time": 64.00008,
          "velocity": 0.8188976377952756
        },
        {
          "duration": 0.033333374999998,
          "durationTicks": 12,
          "midi": 76,
          "name": "E5",
          "ticks": 23136,
          "time": 64.266747,
          "velocity": 0.8188976377952756
        },
        {
          "duration": 0.2500003124999921,
          "durationTicks": 90,
          "midi": 78,
          "name": "F#5",
          "ticks": 23142,
          "time": 64.2834136875,
          "velocity": 0.8188976377952756
        },
        {
          "duration": 0.066666749999996,
          "durationTicks": 24,
          "midi": 73,
          "name": "C#5",
          "ticks": 23280,
          "time": 64.6667475,
          "velocity": 0.8188976377952756
        },
        {
          "duration": 0.2666669999999982,
          "durationTicks": 96,
          "midi": 71,
          "name": "B4",
          "ticks": 23328,
          "time": 64.80008099999999,
          "velocity": 0.8188976377952756
        },
        {
          "duration": 0.1333335000000062,
          "durationTicks": 48,
          "midi": 69,
          "name": "A4",
          "ticks": 23472,
          "time": 65.2000815,
          "velocity": 0.8188976377952756
        },
        {
          "duration": 0.033333374999998,
          "durationTicks": 12,
          "midi": 69,
          "name": "A4",
          "ticks": 23520,
          "time": 65.333415,
          "velocity": 0.8188976377952756
        },
        {
          "duration": 0.24722253125000293,
          "durationTicks": 89,
          "midi": 71,
          "name": "B4",
          "ticks": 23527,
          "time": 65.35285946875,
          "velocity": 0.8188976377952756
        },
        {
          "duration": 0.2666669999999982,
          "durationTicks": 96,
          "midi": 74,
          "name": "D5",
          "ticks": 23616,
          "time": 65.600082,
          "velocity": 0.8188976377952756
        },
        {
          "duration": 0.2666669999999982,
          "durationTicks": 96,
          "midi": 73,
          "name": "C#5",
          "ticks": 23712,
          "time": 65.866749,
          "velocity": 0.8188976377952756
        },
        {
          "duration": 0.2666669999999982,
          "durationTicks": 96,
          "midi": 66,
          "name": "F#4",
          "ticks": 23808,
          "time": 66.133416,
          "velocity": 0.8188976377952756
        },
        {
          "duration": 0.033333374999998,
          "durationTicks": 12,
          "midi": 76,
          "name": "E5",
          "ticks": 23904,
          "time": 66.400083,
          "velocity": 0.8188976377952756
        },
        {
          "duration": 0.2500003124999921,
          "durationTicks": 90,
          "midi": 78,
          "name": "F#5",
          "ticks": 23910,
          "time": 66.4167496875,
          "velocity": 0.8188976377952756
        },
        {
          "duration": 0.066666749999996,
          "durationTicks": 24,
          "midi": 73,
          "name": "C#5",
          "ticks": 24048,
          "time": 66.8000835,
          "velocity": 0.8188976377952756
        },
        {
          "duration": 0.2666670000000124,
          "durationTicks": 96,
          "midi": 71,
          "name": "B4",
          "ticks": 24096,
          "time": 66.93341699999999,
          "velocity": 0.8188976377952756
        },
        {
          "duration": 0.1333335000000062,
          "durationTicks": 48,
          "midi": 68,
          "name": "G#4",
          "ticks": 24240,
          "time": 67.3334175,
          "velocity": 0.8188976377952756
        },
        {
          "duration": 0.133333499999992,
          "durationTicks": 48,
          "midi": 71,
          "name": "B4",
          "ticks": 24288,
          "time": 67.466751,
          "velocity": 0.8188976377952756
        },
        {
          "duration": 0.133333499999992,
          "durationTicks": 48,
          "midi": 69,
          "name": "A4",
          "ticks": 24384,
          "time": 67.733418,
          "velocity": 0.8188976377952756
        },
        {
          "duration": 0.1333335000000062,
          "durationTicks": 48,
          "midi": 68,
          "name": "G#4",
          "ticks": 24432,
          "time": 67.86675149999999,
          "velocity": 0.8188976377952756
        },
        {
          "duration": 0.2666669999999982,
          "durationTicks": 96,
          "midi": 69,
          "name": "A4",
          "ticks": 24480,
          "time": 68.000085,
          "velocity": 0.8188976377952756
        },
        {
          "duration": 0.2666669999999982,
          "durationTicks": 96,
          "midi": 66,
          "name": "F#4",
          "ticks": 24576,
          "time": 68.266752,
          "velocity": 0.8188976377952756
        },
        {
          "duration": 0.033333374999998,
          "durationTicks": 12,
          "midi": 76,
          "name": "E5",
          "ticks": 24672,
          "time": 68.533419,
          "velocity": 0.8188976377952756
        },
        {
          "duration": 0.2500003124999921,
          "durationTicks": 90,
          "midi": 78,
          "name": "F#5",
          "ticks": 24678,
          "time": 68.5500856875,
          "velocity": 0.8188976377952756
        },
        {
          "duration": 0.066666749999996,
          "durationTicks": 24,
          "midi": 73,
          "name": "C#5",
          "ticks": 24816,
          "time": 68.9334195,
          "velocity": 0.8188976377952756
        },
        {
          "duration": 0.2666669999999982,
          "durationTicks": 96,
          "midi": 71,
          "name": "B4",
          "ticks": 24864,
          "time": 69.06675299999999,
          "velocity": 0.8188976377952756
        },
        {
          "duration": 0.044444500000011544,
          "durationTicks": 16,
          "midi": 72,
          "name": "C5",
          "ticks": 25008,
          "time": 69.4667535,
          "velocity": 0.8188976377952756
        },
        {
          "duration": 0.044444500000011544,
          "durationTicks": 16,
          "midi": 72,
          "name": "C5",
          "ticks": 25032,
          "time": 69.53342024999999,
          "velocity": 0.8188976377952756
        },
        {
          "duration": 0.133333499999992,
          "durationTicks": 48,
          "midi": 73,
          "name": "C#5",
          "ticks": 25056,
          "time": 69.600087,
          "velocity": 0.8188976377952756
        },
        {
          "duration": 0.133333499999992,
          "durationTicks": 48,
          "midi": 77,
          "name": "F5",
          "ticks": 25152,
          "time": 69.866754,
          "velocity": 0.8188976377952756
        },
        {
          "duration": 0.033333374999998,
          "durationTicks": 12,
          "midi": 77,
          "name": "F5",
          "ticks": 25248,
          "time": 70.133421,
          "velocity": 0.8188976377952756
        },
        {
          "duration": 0.2500003125000063,
          "durationTicks": 90,
          "midi": 78,
          "name": "F#5",
          "ticks": 25254,
          "time": 70.15008768749999,
          "velocity": 0.8188976377952756
        },
        {
          "duration": 0.022222249999984456,
          "durationTicks": 8,
          "midi": 75,
          "name": "D#5",
          "ticks": 30432,
          "time": 84.533439,
          "velocity": 0.5748031496062992
        },
        {
          "duration": 0.022222249999998667,
          "durationTicks": 8,
          "midi": 75,
          "name": "D#5",
          "ticks": 30480,
          "time": 84.6667725,
          "velocity": 0.5748031496062992
        },
        {
          "duration": 0.022222249999984456,
          "durationTicks": 8,
          "midi": 75,
          "name": "D#5",
          "ticks": 31968,
          "time": 88.800111,
          "velocity": 0.5748031496062992
        },
        {
          "duration": 0.022222249999998667,
          "durationTicks": 8,
          "midi": 75,
          "name": "D#5",
          "ticks": 32016,
          "time": 88.9334445,
          "velocity": 0.5748031496062992
        },
        {
          "duration": 0.044444500000011544,
          "durationTicks": 16,
          "midi": 71,
          "name": "B4",
          "ticks": 39168,
          "time": 108.800136,
          "velocity": 0.7874015748031497
        },
        {
          "duration": 0.24444474999999954,
          "durationTicks": 88,
          "midi": 73,
          "name": "C#5",
          "ticks": 39176,
          "time": 108.82235825,
          "velocity": 0.7874015748031497
        },
        {
          "duration": 0.1333335000000062,
          "durationTicks": 48,
          "midi": 65,
          "name": "F4",
          "ticks": 39264,
          "time": 109.066803,
          "velocity": 0.7874015748031497
        },
        {
          "duration": 0.044444500000011544,
          "durationTicks": 16,
          "midi": 69,
          "name": "A4",
          "ticks": 39360,
          "time": 109.33346999999999,
          "velocity": 0.7874015748031497
        },
        {
          "duration": 0.22222249999998667,
          "durationTicks": 80,
          "midi": 71,
          "name": "B4",
          "ticks": 39376,
          "time": 109.3779145,
          "velocity": 0.7874015748031497
        },
        {
          "duration": 0.1333335000000062,
          "durationTicks": 48,
          "midi": 66,
          "name": "F#4",
          "ticks": 39456,
          "time": 109.60013699999999,
          "velocity": 0.7874015748031497
        },
        {
          "duration": 0.2666669999999982,
          "durationTicks": 96,
          "midi": 67,
          "name": "G4",
          "ticks": 39552,
          "time": 109.866804,
          "velocity": 0.7874015748031497
        },
        {
          "duration": 0.2666669999999982,
          "durationTicks": 96,
          "midi": 62,
          "name": "D4",
          "ticks": 39552,
          "time": 109.866804,
          "velocity": 0.7874015748031497
        },
        {
          "duration": 0.2666669999999982,
          "durationTicks": 96,
          "midi": 69,
          "name": "A4",
          "ticks": 39648,
          "time": 110.133471,
          "velocity": 0.7874015748031497
        },
        {
          "duration": 0.2666669999999982,
          "durationTicks": 96,
          "midi": 73,
          "name": "C#5",
          "ticks": 39648,
          "time": 110.133471,
          "velocity": 0.7874015748031497
        },
        {
          "duration": 0.133333499999992,
          "durationTicks": 48,
          "midi": 71,
          "name": "B4",
          "ticks": 39744,
          "time": 110.400138,
          "velocity": 0.7874015748031497
        },
        {
          "duration": 0.133333499999992,
          "durationTicks": 48,
          "midi": 67,
          "name": "G4",
          "ticks": 39744,
          "time": 110.400138,
          "velocity": 0.7874015748031497
        },
        {
          "duration": 0.044444500000011544,
          "durationTicks": 16,
          "midi": 70,
          "name": "A#4",
          "ticks": 39792,
          "time": 110.53347149999999,
          "velocity": 0.5354330708661418
        },
        {
          "duration": 0.044444500000011544,
          "durationTicks": 16,
          "midi": 66,
          "name": "F#4",
          "ticks": 39792,
          "time": 110.53347149999999,
          "velocity": 0.5354330708661418
        },
        {
          "duration": 0.04444449999998312,
          "durationTicks": 16,
          "midi": 65,
          "name": "F4",
          "ticks": 39808,
          "time": 110.577916,
          "velocity": 0.4881889763779528
        },
        {
          "duration": 0.04444449999998312,
          "durationTicks": 16,
          "midi": 69,
          "name": "A4",
          "ticks": 39808,
          "time": 110.577916,
          "velocity": 0.4881889763779528
        },
        {
          "duration": 0.044444500000011544,
          "durationTicks": 16,
          "midi": 68,
          "name": "G#4",
          "ticks": 39824,
          "time": 110.62236049999998,
          "velocity": 0.4330708661417323
        },
        {
          "duration": 0.044444500000011544,
          "durationTicks": 16,
          "midi": 64,
          "name": "E4",
          "ticks": 39824,
          "time": 110.62236049999998,
          "velocity": 0.4330708661417323
        },
        {
          "duration": 0.04444449999999733,
          "durationTicks": 16,
          "midi": 67,
          "name": "G4",
          "ticks": 39840,
          "time": 110.666805,
          "velocity": 0.3858267716535433
        },
        {
          "duration": 0.04444449999999733,
          "durationTicks": 16,
          "midi": 63,
          "name": "D#4",
          "ticks": 39840,
          "time": 110.666805,
          "velocity": 0.3858267716535433
        },
        {
          "duration": 0.04444449999999733,
          "durationTicks": 16,
          "midi": 62,
          "name": "D4",
          "ticks": 39856,
          "time": 110.7112495,
          "velocity": 0.33858267716535434
        },
        {
          "duration": 0.04444449999999733,
          "durationTicks": 16,
          "midi": 66,
          "name": "F#4",
          "ticks": 39856,
          "time": 110.7112495,
          "velocity": 0.33858267716535434
        },
        {
          "duration": 0.04444449999999733,
          "durationTicks": 16,
          "midi": 65,
          "name": "F4",
          "ticks": 39872,
          "time": 110.75569399999999,
          "velocity": 0.29133858267716534
        },
        {
          "duration": 0.04444449999999733,
          "durationTicks": 16,
          "midi": 61,
          "name": "C#4",
          "ticks": 39872,
          "time": 110.75569399999999,
          "velocity": 0.29133858267716534
        },
        {
          "duration": 0.044444500000011544,
          "durationTicks": 16,
          "midi": 64,
          "name": "E4",
          "ticks": 39888,
          "time": 110.80013849999999,
          "velocity": 0.23622047244094488
        },
        {
          "duration": 0.044444500000011544,
          "durationTicks": 16,
          "midi": 60,
          "name": "C4",
          "ticks": 39888,
          "time": 110.80013849999999,
          "velocity": 0.23622047244094488
        },
        {
          "duration": 0.04444449999998312,
          "durationTicks": 16,
          "midi": 63,
          "name": "D#4",
          "ticks": 39904,
          "time": 110.844583,
          "velocity": 0.1889763779527559
        },
        {
          "duration": 0.04444449999998312,
          "durationTicks": 16,
          "midi": 59,
          "name": "B3",
          "ticks": 39904,
          "time": 110.844583,
          "velocity": 0.1889763779527559
        },
        {
          "duration": 0.044444500000011544,
          "durationTicks": 16,
          "midi": 62,
          "name": "D4",
          "ticks": 39920,
          "time": 110.88902749999998,
          "velocity": 0.14173228346456693
        },
        {
          "duration": 0.044444500000011544,
          "durationTicks": 16,
          "midi": 58,
          "name": "A#3",
          "ticks": 39920,
          "time": 110.88902749999998,
          "velocity": 0.14173228346456693
        },
        {
          "duration": 0.2666669999999982,
          "durationTicks": 96,
          "midi": 63,
          "name": "D#4",
          "ticks": 41952,
          "time": 116.533479,
          "velocity": 0.8188976377952756
        },
        {
          "duration": 0.04444449999999733,
          "durationTicks": 16,
          "midi": 64,
          "name": "E4",
          "ticks": 42048,
          "time": 116.800146,
          "velocity": 0.8188976377952756
        },
        {
          "duration": 0.11111125000000754,
          "durationTicks": 40,
          "midi": 65,
          "name": "F4",
          "ticks": 42056,
          "time": 116.82236824999998,
          "velocity": 0.8188976377952756
        },
        {
          "duration": 0.06666675000001021,
          "durationTicks": 24,
          "midi": 64,
          "name": "E4",
          "ticks": 42096,
          "time": 116.93347949999999,
          "velocity": 0.8188976377952756
        },
        {
          "duration": 0.066666749999996,
          "durationTicks": 24,
          "midi": 65,
          "name": "F4",
          "ticks": 42144,
          "time": 117.066813,
          "velocity": 0.8188976377952756
        },
        {
          "duration": 0.1333335000000062,
          "durationTicks": 48,
          "midi": 66,
          "name": "F#4",
          "ticks": 42192,
          "time": 117.20014649999999,
          "velocity": 0.8188976377952756
        },
        {
          "duration": 0.1333335000000062,
          "durationTicks": 48,
          "midi": 65,
          "name": "F4",
          "ticks": 42240,
          "time": 117.33348,
          "velocity": 0.8188976377952756
        },
        {
          "duration": 0.066666749999996,
          "durationTicks": 24,
          "midi": 66,
          "name": "F#4",
          "ticks": 42288,
          "time": 117.4668135,
          "velocity": 0.8188976377952756
        },
        {
          "duration": 0.1333335000000062,
          "durationTicks": 48,
          "midi": 67,
          "name": "G4",
          "ticks": 42336,
          "time": 117.60014699999999,
          "velocity": 0.8188976377952756
        },
        {
          "duration": 0.1333335000000062,
          "durationTicks": 48,
          "midi": 67,
          "name": "G4",
          "ticks": 42432,
          "time": 117.86681399999999,
          "velocity": 0.8188976377952756
        },
        {
          "duration": 0.044444500000011544,
          "durationTicks": 16,
          "midi": 67,
          "name": "G4",
          "ticks": 42528,
          "time": 118.13348099999999,
          "velocity": 0.8188976377952756
        },
        {
          "duration": 0.11111125000000754,
          "durationTicks": 40,
          "midi": 68,
          "name": "G#4",
          "ticks": 42536,
          "time": 118.15570324999999,
          "velocity": 0.8188976377952756
        },
        {
          "duration": 0.066666749999996,
          "durationTicks": 24,
          "midi": 67,
          "name": "G4",
          "ticks": 42576,
          "time": 118.2668145,
          "velocity": 0.8188976377952756
        },
        {
          "duration": 0.066666749999996,
          "durationTicks": 24,
          "midi": 68,
          "name": "G#4",
          "ticks": 42624,
          "time": 118.400148,
          "velocity": 0.8188976377952756
        },
        {
          "duration": 0.1333335000000062,
          "durationTicks": 48,
          "midi": 69,
          "name": "A4",
          "ticks": 42672,
          "time": 118.5334815,
          "velocity": 0.8188976377952756
        },
        {
          "duration": 0.066666749999996,
          "durationTicks": 24,
          "midi": 68,
          "name": "G#4",
          "ticks": 42720,
          "time": 118.666815,
          "velocity": 0.8188976377952756
        },
        {
          "duration": 0.066666749999996,
          "durationTicks": 24,
          "midi": 69,
          "name": "A4",
          "ticks": 42768,
          "time": 118.80014849999999,
          "velocity": 0.8188976377952756
        },
        {
          "duration": 0.133333499999992,
          "durationTicks": 48,
          "midi": 70,
          "name": "A#4",
          "ticks": 42816,
          "time": 118.933482,
          "velocity": 0.8188976377952756
        },
        {
          "duration": 0.1333335000000062,
          "durationTicks": 48,
          "midi": 76,
          "name": "E5",
          "ticks": 42864,
          "time": 119.06681549999999,
          "velocity": 0.8188976377952756
        },
        {
          "duration": 0.133333499999992,
          "durationTicks": 48,
          "midi": 70,
          "name": "A#4",
          "ticks": 42912,
          "time": 119.200149,
          "velocity": 0.8188976377952756
        },
        {
          "duration": 0.1333335000000062,
          "durationTicks": 48,
          "midi": 69,
          "name": "A4",
          "ticks": 42960,
          "time": 119.33348249999999,
          "velocity": 0.8188976377952756
        },
        {
          "duration": 0.1333335000000062,
          "durationTicks": 48,
          "midi": 64,
          "name": "E4",
          "ticks": 43008,
          "time": 119.466816,
          "velocity": 0.8188976377952756
        },
        {
          "duration": 0.066666749999996,
          "durationTicks": 24,
          "midi": 73,
          "name": "C#5",
          "ticks": 44592,
          "time": 123.8668215,
          "velocity": 0.8188976377952756
        },
        {
          "duration": 0.066666749999996,
          "durationTicks": 24,
          "midi": 73,
          "name": "C#5",
          "ticks": 44640,
          "time": 124.00015499999999,
          "velocity": 0.8188976377952756
        },
        {
          "duration": 0.06666675000001021,
          "durationTicks": 24,
          "midi": 73,
          "name": "C#5",
          "ticks": 44736,
          "time": 124.26682199999999,
          "velocity": 0.8188976377952756
        },
        {
          "duration": 0.066666749999996,
          "durationTicks": 24,
          "midi": 73,
          "name": "C#5",
          "ticks": 44784,
          "time": 124.4001555,
          "velocity": 0.8188976377952756
        },
        {
          "duration": 0.2666669999999982,
          "durationTicks": 96,
          "midi": 73,
          "name": "C#5",
          "ticks": 44880,
          "time": 124.6668225,
          "velocity": 0.8188976377952756
        },
        {
          "duration": 0.066666749999996,
          "durationTicks": 24,
          "midi": 72,
          "name": "C5",
          "ticks": 44976,
          "time": 124.9334895,
          "velocity": 0.8188976377952756
        },
        {
          "duration": 0.066666749999996,
          "durationTicks": 24,
          "midi": 73,
          "name": "C#5",
          "ticks": 45024,
          "time": 125.066823,
          "velocity": 0.8188976377952756
        },
        {
          "duration": 0.066666749999996,
          "durationTicks": 24,
          "midi": 72,
          "name": "C5",
          "ticks": 45072,
          "time": 125.20015649999999,
          "velocity": 0.8188976377952756
        },
        {
          "duration": 0.066666749999996,
          "durationTicks": 24,
          "midi": 73,
          "name": "C#5",
          "ticks": 45120,
          "time": 125.33349,
          "velocity": 0.8188976377952756
        },
        {
          "duration": 0.2666669999999982,
          "durationTicks": 96,
          "midi": 61,
          "name": "C#4",
          "ticks": 45216,
          "time": 125.600157,
          "velocity": 0.8188976377952756
        },
        {
          "duration": 0.2666669999999982,
          "durationTicks": 96,
          "midi": 73,
          "name": "C#5",
          "ticks": 45312,
          "time": 125.866824,
          "velocity": 0.8188976377952756
        },
        {
          "duration": 0.033333374999998,
          "durationTicks": 12,
          "midi": 72,
          "name": "C5",
          "ticks": 45456,
          "time": 126.2668245,
          "velocity": 0.8188976377952756
        },
        {
          "duration": 0.033333374999998,
          "durationTicks": 12,
          "midi": 72,
          "name": "C5",
          "ticks": 45480,
          "time": 126.33349125,
          "velocity": 0.8188976377952756
        },
        {
          "duration": 0.2666669999999982,
          "durationTicks": 96,
          "midi": 73,
          "name": "C#5",
          "ticks": 45504,
          "time": 126.40015799999999,
          "velocity": 0.8188976377952756
        },
        {
          "duration": 0.1333335000000062,
          "durationTicks": 48,
          "midi": 72,
          "name": "C5",
          "ticks": 45648,
          "time": 126.8001585,
          "velocity": 0.8188976377952756
        },
        {
          "duration": 0.133333499999992,
          "durationTicks": 48,
          "midi": 73,
          "name": "C#5",
          "ticks": 45696,
          "time": 126.933492,
          "velocity": 0.8188976377952756
        },
        {
          "duration": 0.1333335000000062,
          "durationTicks": 48,
          "midi": 72,
          "name": "C5",
          "ticks": 45744,
          "time": 127.0668255,
          "velocity": 0.8188976377952756
        },
        {
          "duration": 0.133333499999992,
          "durationTicks": 48,
          "midi": 73,
          "name": "C#5",
          "ticks": 45792,
          "time": 127.200159,
          "velocity": 0.8188976377952756
        },
        {
          "duration": 0.1333335000000062,
          "durationTicks": 48,
          "midi": 72,
          "name": "C5",
          "ticks": 45840,
          "time": 127.33349249999999,
          "velocity": 0.8188976377952756
        },
        {
          "duration": 0.2666669999999982,
          "durationTicks": 96,
          "midi": 73,
          "name": "C#5",
          "ticks": 45888,
          "time": 127.466826,
          "velocity": 0.8188976377952756
        },
        {
          "duration": 0.033333374999998,
          "durationTicks": 12,
          "midi": 79,
          "name": "G5",
          "ticks": 45984,
          "time": 127.733493,
          "velocity": 0.8188976377952756
        },
        {
          "duration": 0.2333336250000002,
          "durationTicks": 84,
          "midi": 81,
          "name": "A5",
          "ticks": 45996,
          "time": 127.766826375,
          "velocity": 0.8188976377952756
        },
        {
          "duration": 0.133333499999992,
          "durationTicks": 48,
          "midi": 69,
          "name": "A4",
          "ticks": 46080,
          "time": 128.00016,
          "velocity": 0.8188976377952756
        },
        {
          "duration": 0.03333337499998379,
          "durationTicks": 12,
          "midi": 70,
          "name": "A#4",
          "ticks": 46176,
          "time": 128.266827,
          "velocity": 0.8188976377952756
        },
        {
          "duration": 0.24444475000001376,
          "durationTicks": 88,
          "midi": 71,
          "name": "B4",
          "ticks": 46184,
          "time": 128.28904924999998,
          "velocity": 0.8188976377952756
        },
        {
          "duration": 0.133333499999992,
          "durationTicks": 48,
          "midi": 65,
          "name": "F4",
          "ticks": 46272,
          "time": 128.533494,
          "velocity": 0.8188976377952756
        },
        {
          "duration": 0.13333350000002042,
          "durationTicks": 48,
          "midi": 66,
          "name": "F#4",
          "ticks": 46320,
          "time": 128.66682749999998,
          "velocity": 0.8188976377952756
        },
        {
          "duration": 0.133333499999992,
          "durationTicks": 48,
          "midi": 68,
          "name": "G#4",
          "ticks": 46368,
          "time": 128.800161,
          "velocity": 0.8188976377952756
        },
        {
          "duration": 0.133333499999992,
          "durationTicks": 48,
          "midi": 69,
          "name": "A4",
          "ticks": 46416,
          "time": 128.9334945,
          "velocity": 0.8188976377952756
        },
        {
          "duration": 0.03333337500001221,
          "durationTicks": 12,
          "midi": 75,
          "name": "D#5",
          "ticks": 46464,
          "time": 129.066828,
          "velocity": 0.8188976377952756
        },
        {
          "duration": 0.2333336250000002,
          "durationTicks": 84,
          "midi": 76,
          "name": "E5",
          "ticks": 46476,
          "time": 129.100161375,
          "velocity": 0.8188976377952756
        },
        {
          "duration": 0.266666999999984,
          "durationTicks": 96,
          "midi": 73,
          "name": "C#5",
          "ticks": 46560,
          "time": 129.333495,
          "velocity": 0.8188976377952756
        },
        {
          "duration": 0.03333337500001221,
          "durationTicks": 12,
          "midi": 70,
          "name": "A#4",
          "ticks": 46656,
          "time": 129.60016199999998,
          "velocity": 0.8188976377952756
        },
        {
          "duration": 0.2333336250000002,
          "durationTicks": 84,
          "midi": 71,
          "name": "B4",
          "ticks": 46668,
          "time": 129.633495375,
          "velocity": 0.8188976377952756
        },
        {
          "duration": 0.2333336250000002,
          "durationTicks": 84,
          "midi": 69,
          "name": "A4",
          "ticks": 46752,
          "time": 129.866829,
          "velocity": 0.8188976377952756
        },
        {
          "duration": 0.13333350000002042,
          "durationTicks": 48,
          "midi": 69,
          "name": "A4",
          "ticks": 46848,
          "time": 130.13349599999998,
          "velocity": 0.8188976377952756
        },
        {
          "duration": 0.133333499999992,
          "durationTicks": 48,
          "midi": 81,
          "name": "A5",
          "ticks": 46896,
          "time": 130.2668295,
          "velocity": 0.8188976377952756
        },
        {
          "duration": 0.066666749999996,
          "durationTicks": 24,
          "midi": 66,
          "name": "F#4",
          "ticks": 46992,
          "time": 130.53349649999998,
          "velocity": 0.8188976377952756
        },
        {
          "duration": 0.06666675000002442,
          "durationTicks": 24,
          "midi": 68,
          "name": "G#4",
          "ticks": 47016,
          "time": 130.60016324999998,
          "velocity": 0.8188976377952756
        },
        {
          "duration": 0.10000012499997979,
          "durationTicks": 36,
          "midi": 69,
          "name": "A4",
          "ticks": 47040,
          "time": 130.66683,
          "velocity": 0.8188976377952756
        },
        {
          "duration": 0.03333337499998379,
          "durationTicks": 12,
          "midi": 69,
          "name": "A4",
          "ticks": 47088,
          "time": 130.8001635,
          "velocity": 0.8188976377952756
        },
        {
          "duration": 0.03333337500001221,
          "durationTicks": 12,
          "midi": 69,
          "name": "A4",
          "ticks": 47112,
          "time": 130.86683025,
          "velocity": 0.8188976377952756
        },
        {
          "duration": 0.066666749999996,
          "durationTicks": 24,
          "midi": 78,
          "name": "F#5",
          "ticks": 47136,
          "time": 130.933497,
          "velocity": 0.8188976377952756
        },
        {
          "duration": 0.13333350000002042,
          "durationTicks": 48,
          "midi": 69,
          "name": "A4",
          "ticks": 47184,
          "time": 131.06683049999998,
          "velocity": 0.8188976377952756
        },
        {
          "duration": 0.03333337499998379,
          "durationTicks": 12,
          "midi": 71,
          "name": "B4",
          "ticks": 47232,
          "time": 131.200164,
          "velocity": 0.8188976377952756
        },
        {
          "duration": 0.03333337499998379,
          "durationTicks": 12,
          "midi": 71,
          "name": "B4",
          "ticks": 47256,
          "time": 131.26683075,
          "velocity": 0.8188976377952756
        },
        {
          "duration": 0.03333337500001221,
          "durationTicks": 12,
          "midi": 71,
          "name": "B4",
          "ticks": 47280,
          "time": 131.3334975,
          "velocity": 0.8188976377952756
        },
        {
          "duration": 0.03333337500001221,
          "durationTicks": 12,
          "midi": 71,
          "name": "B4",
          "ticks": 47304,
          "time": 131.40016425,
          "velocity": 0.8188976377952756
        },
        {
          "duration": 0.13333350000002042,
          "durationTicks": 48,
          "midi": 78,
          "name": "F#5",
          "ticks": 47328,
          "time": 131.46683099999998,
          "velocity": 0.8188976377952756
        },
        {
          "duration": 0.066666749999996,
          "durationTicks": 24,
          "midi": 71,
          "name": "B4",
          "ticks": 47400,
          "time": 131.66683125,
          "velocity": 0.8188976377952756
        },
        {
          "duration": 0.03333337499998379,
          "durationTicks": 12,
          "midi": 73,
          "name": "C#5",
          "ticks": 47424,
          "time": 131.733498,
          "velocity": 0.8188976377952756
        },
        {
          "duration": 0.03333337500001221,
          "durationTicks": 12,
          "midi": 73,
          "name": "C#5",
          "ticks": 47448,
          "time": 131.80016475,
          "velocity": 0.8188976377952756
        },
        {
          "duration": 0.03333337500001221,
          "durationTicks": 12,
          "midi": 73,
          "name": "C#5",
          "ticks": 47472,
          "time": 131.8668315,
          "velocity": 0.8188976377952756
        },
        {
          "duration": 0.066666749999996,
          "durationTicks": 24,
          "midi": 73,
          "name": "C#5",
          "ticks": 47496,
          "time": 131.93349824999999,
          "velocity": 0.8188976377952756
        },
        {
          "duration": 0.13333350000002042,
          "durationTicks": 48,
          "midi": 78,
          "name": "F#5",
          "ticks": 47520,
          "time": 132.00016499999998,
          "velocity": 0.8188976377952756
        },
        {
          "duration": 0.133333499999992,
          "durationTicks": 48,
          "midi": 73,
          "name": "C#5",
          "ticks": 47568,
          "time": 132.1334985,
          "velocity": 0.8188976377952756
        },
        {
          "duration": 0.133333499999992,
          "durationTicks": 48,
          "midi": 74,
          "name": "D5",
          "ticks": 47616,
          "time": 132.266832,
          "velocity": 0.8188976377952756
        },
        {
          "duration": 0.13333350000002042,
          "durationTicks": 48,
          "midi": 73,
          "name": "C#5",
          "ticks": 47664,
          "time": 132.40016549999999,
          "velocity": 0.8188976377952756
        },
        {
          "duration": 0.133333499999992,
          "durationTicks": 48,
          "midi": 72,
          "name": "C5",
          "ticks": 47712,
          "time": 132.533499,
          "velocity": 0.8188976377952756
        },
        {
          "duration": 0.133333499999992,
          "durationTicks": 48,
          "midi": 71,
          "name": "B4",
          "ticks": 47760,
          "time": 132.6668325,
          "velocity": 0.8188976377952756
        },
        {
          "duration": 0.133333499999992,
          "durationTicks": 48,
          "midi": 72,
          "name": "C5",
          "ticks": 47808,
          "time": 132.800166,
          "velocity": 0.8188976377952756
        },
        {
          "duration": 0.13333350000002042,
          "durationTicks": 48,
          "midi": 71,
          "name": "B4",
          "ticks": 47856,
          "time": 132.93349949999998,
          "velocity": 0.8188976377952756
        },
        {
          "duration": 0.133333499999992,
          "durationTicks": 48,
          "midi": 70,
          "name": "A#4",
          "ticks": 47904,
          "time": 133.066833,
          "velocity": 0.8188976377952756
        },
        {
          "duration": 0.133333499999992,
          "durationTicks": 48,
          "midi": 69,
          "name": "A4",
          "ticks": 47952,
          "time": 133.2001665,
          "velocity": 0.8188976377952756
        },
        {
          "duration": 0.13333350000002042,
          "durationTicks": 48,
          "midi": 73,
          "name": "C#5",
          "ticks": 48000,
          "time": 133.3335,
          "velocity": 0.8188976377952756
        },
        {
          "duration": 0.133333499999992,
          "durationTicks": 48,
          "midi": 74,
          "name": "D5",
          "ticks": 48048,
          "time": 133.4668335,
          "velocity": 0.8188976377952756
        },
        {
          "duration": 0.133333499999992,
          "durationTicks": 48,
          "midi": 73,
          "name": "C#5",
          "ticks": 48096,
          "time": 133.600167,
          "velocity": 0.8188976377952756
        },
        {
          "duration": 0.133333499999992,
          "durationTicks": 48,
          "midi": 74,
          "name": "D5",
          "ticks": 48144,
          "time": 133.7335005,
          "velocity": 0.8188976377952756
        },
        {
          "duration": 0.13333350000002042,
          "durationTicks": 48,
          "midi": 73,
          "name": "C#5",
          "ticks": 48192,
          "time": 133.86683399999998,
          "velocity": 0.8188976377952756
        },
        {
          "duration": 0.2666670000000124,
          "durationTicks": 96,
          "midi": 66,
          "name": "F#4",
          "ticks": 48288,
          "time": 134.133501,
          "velocity": 0.8188976377952756
        },
        {
          "duration": 0.03333337499998379,
          "durationTicks": 12,
          "midi": 76,
          "name": "E5",
          "ticks": 48384,
          "time": 134.400168,
          "velocity": 0.8188976377952756
        },
        {
          "duration": 0.2500003124999921,
          "durationTicks": 90,
          "midi": 78,
          "name": "F#5",
          "ticks": 48390,
          "time": 134.4168346875,
          "velocity": 0.8188976377952756
        },
        {
          "duration": 0.066666749999996,
          "durationTicks": 24,
          "midi": 73,
          "name": "C#5",
          "ticks": 48528,
          "time": 134.80016849999998,
          "velocity": 0.8188976377952756
        },
        {
          "duration": 0.266666999999984,
          "durationTicks": 96,
          "midi": 71,
          "name": "B4",
          "ticks": 48576,
          "time": 134.933502,
          "velocity": 0.8188976377952756
        },
        {
          "duration": 0.13333350000002042,
          "durationTicks": 48,
          "midi": 69,
          "name": "A4",
          "ticks": 48720,
          "time": 135.33350249999998,
          "velocity": 0.8188976377952756
        },
        {
          "duration": 0.03333337499998379,
          "durationTicks": 12,
          "midi": 69,
          "name": "A4",
          "ticks": 48768,
          "time": 135.466836,
          "velocity": 0.8188976377952756
        },
        {
          "duration": 0.2472225312499745,
          "durationTicks": 89,
          "midi": 71,
          "name": "B4",
          "ticks": 48775,
          "time": 135.48628046875,
          "velocity": 0.8188976377952756
        },
        {
          "duration": 0.2666670000000124,
          "durationTicks": 96,
          "midi": 74,
          "name": "D5",
          "ticks": 48864,
          "time": 135.73350299999998,
          "velocity": 0.8188976377952756
        },
        {
          "duration": 0.266666999999984,
          "durationTicks": 96,
          "midi": 73,
          "name": "C#5",
          "ticks": 48960,
          "time": 136.00017,
          "velocity": 0.8188976377952756
        },
        {
          "duration": 0.2666670000000124,
          "durationTicks": 96,
          "midi": 66,
          "name": "F#4",
          "ticks": 49056,
          "time": 136.26683699999998,
          "velocity": 0.8188976377952756
        },
        {
          "duration": 0.03333337500001221,
          "durationTicks": 12,
          "midi": 76,
          "name": "E5",
          "ticks": 49152,
          "time": 136.533504,
          "velocity": 0.8188976377952756
        },
        {
          "duration": 0.2500003125000205,
          "durationTicks": 90,
          "midi": 78,
          "name": "F#5",
          "ticks": 49158,
          "time": 136.55017068749999,
          "velocity": 0.8188976377952756
        },
        {
          "duration": 0.066666749999996,
          "durationTicks": 24,
          "midi": 73,
          "name": "C#5",
          "ticks": 49296,
          "time": 136.9335045,
          "velocity": 0.8188976377952756
        },
        {
          "duration": 0.2666670000000124,
          "durationTicks": 96,
          "midi": 71,
          "name": "B4",
          "ticks": 49344,
          "time": 137.066838,
          "velocity": 0.8188976377952756
        },
        {
          "duration": 0.133333499999992,
          "durationTicks": 48,
          "midi": 68,
          "name": "G#4",
          "ticks": 49488,
          "time": 137.4668385,
          "velocity": 0.8188976377952756
        },
        {
          "duration": 0.13333350000002042,
          "durationTicks": 48,
          "midi": 71,
          "name": "B4",
          "ticks": 49536,
          "time": 137.600172,
          "velocity": 0.8188976377952756
        },
        {
          "duration": 0.133333499999992,
          "durationTicks": 48,
          "midi": 71,
          "name": "B4",
          "ticks": 49584,
          "time": 137.7335055,
          "velocity": 0.8188976377952756
        },
        {
          "duration": 0.133333499999992,
          "durationTicks": 48,
          "midi": 69,
          "name": "A4",
          "ticks": 49632,
          "time": 137.866839,
          "velocity": 0.8188976377952756
        },
        {
          "duration": 0.133333499999992,
          "durationTicks": 48,
          "midi": 68,
          "name": "G#4",
          "ticks": 49680,
          "time": 138.0001725,
          "velocity": 0.8188976377952756
        },
        {
          "duration": 0.1555557500000191,
          "durationTicks": 56,
          "midi": 69,
          "name": "A4",
          "ticks": 49728,
          "time": 138.13350599999998,
          "velocity": 0.8188976377952756
        },
        {
          "duration": 0.266666999999984,
          "durationTicks": 96,
          "midi": 66,
          "name": "F#4",
          "ticks": 49824,
          "time": 138.400173,
          "velocity": 0.8188976377952756
        },
        {
          "duration": 0.03333337500001221,
          "durationTicks": 12,
          "midi": 76,
          "name": "E5",
          "ticks": 49920,
          "time": 138.66683999999998,
          "velocity": 0.8188976377952756
        },
        {
          "duration": 0.2500003124999921,
          "durationTicks": 90,
          "midi": 78,
          "name": "F#5",
          "ticks": 49926,
          "time": 138.6835066875,
          "velocity": 0.8188976377952756
        },
        {
          "duration": 0.066666749999996,
          "durationTicks": 24,
          "midi": 73,
          "name": "C#5",
          "ticks": 50064,
          "time": 139.06684049999998,
          "velocity": 0.8188976377952756
        },
        {
          "duration": 0.266666999999984,
          "durationTicks": 96,
          "midi": 71,
          "name": "B4",
          "ticks": 50112,
          "time": 139.200174,
          "velocity": 0.8188976377952756
        },
        {
          "duration": 0.13333350000002042,
          "durationTicks": 48,
          "midi": 69,
          "name": "A4",
          "ticks": 50256,
          "time": 139.60017449999998,
          "velocity": 0.8188976377952756
        },
        {
          "duration": 0.03333337499998379,
          "durationTicks": 12,
          "midi": 69,
          "name": "A4",
          "ticks": 50304,
          "time": 139.733508,
          "velocity": 0.8188976377952756
        },
        {
          "duration": 0.24722253125000293,
          "durationTicks": 89,
          "midi": 71,
          "name": "B4",
          "ticks": 50311,
          "time": 139.75295246874998,
          "velocity": 0.8188976377952756
        },
        {
          "duration": 0.2666670000000124,
          "durationTicks": 96,
          "midi": 74,
          "name": "D5",
          "ticks": 50400,
          "time": 140.00017499999998,
          "velocity": 0.8188976377952756
        },
        {
          "duration": 0.266666999999984,
          "durationTicks": 96,
          "midi": 73,
          "name": "C#5",
          "ticks": 50496,
          "time": 140.266842,
          "velocity": 0.8188976377952756
        },
        {
          "duration": 0.2666670000000124,
          "durationTicks": 96,
          "midi": 66,
          "name": "F#4",
          "ticks": 50592,
          "time": 140.53350899999998,
          "velocity": 0.8188976377952756
        },
        {
          "duration": 0.03333337500001221,
          "durationTicks": 12,
          "midi": 76,
          "name": "E5",
          "ticks": 50688,
          "time": 140.800176,
          "velocity": 0.8188976377952756
        },
        {
          "duration": 0.2500003125000205,
          "durationTicks": 90,
          "midi": 78,
          "name": "F#5",
          "ticks": 50694,
          "time": 140.81684268749999,
          "velocity": 0.8188976377952756
        },
        {
          "duration": 0.066666749999996,
          "durationTicks": 24,
          "midi": 73,
          "name": "C#5",
          "ticks": 50832,
          "time": 141.2001765,
          "velocity": 0.8188976377952756
        },
        {
          "duration": 0.2666670000000124,
          "durationTicks": 96,
          "midi": 71,
          "name": "B4",
          "ticks": 50880,
          "time": 141.33351,
          "velocity": 0.8188976377952756
        },
        {
          "duration": 0.133333499999992,
          "durationTicks": 48,
          "midi": 68,
          "name": "G#4",
          "ticks": 51024,
          "time": 141.7335105,
          "velocity": 0.8188976377952756
        },
        {
          "duration": 0.13333350000002042,
          "durationTicks": 48,
          "midi": 71,
          "name": "B4",
          "ticks": 51072,
          "time": 141.866844,
          "velocity": 0.8188976377952756
        },
        {
          "duration": 0.133333499999992,
          "durationTicks": 48,
          "midi": 69,
          "name": "A4",
          "ticks": 51168,
          "time": 142.133511,
          "velocity": 0.8188976377952756
        },
        {
          "duration": 0.133333499999992,
          "durationTicks": 48,
          "midi": 68,
          "name": "G#4",
          "ticks": 51216,
          "time": 142.2668445,
          "velocity": 0.8188976377952756
        },
        {
          "duration": 0.2666670000000124,
          "durationTicks": 96,
          "midi": 69,
          "name": "A4",
          "ticks": 51264,
          "time": 142.40017799999998,
          "velocity": 0.8188976377952756
        },
        {
          "duration": 0.2666670000000124,
          "durationTicks": 96,
          "midi": 66,
          "name": "F#4",
          "ticks": 51360,
          "time": 142.666845,
          "velocity": 0.8188976377952756
        },
        {
          "duration": 0.03333337499998379,
          "durationTicks": 12,
          "midi": 76,
          "name": "E5",
          "ticks": 51456,
          "time": 142.933512,
          "velocity": 0.8188976377952756
        },
        {
          "duration": 0.2500003124999921,
          "durationTicks": 90,
          "midi": 78,
          "name": "F#5",
          "ticks": 51462,
          "time": 142.9501786875,
          "velocity": 0.8188976377952756
        },
        {
          "duration": 0.066666749999996,
          "durationTicks": 24,
          "midi": 73,
          "name": "C#5",
          "ticks": 51600,
          "time": 143.33351249999998,
          "velocity": 0.8188976377952756
        },
        {
          "duration": 0.266666999999984,
          "durationTicks": 96,
          "midi": 71,
          "name": "B4",
          "ticks": 51648,
          "time": 143.466846,
          "velocity": 0.8188976377952756
        },
        {
          "duration": 0.13055571875003125,
          "durationTicks": 47,
          "midi": 72,
          "name": "C5",
          "ticks": 51792,
          "time": 143.86684649999998,
          "velocity": 0.8188976377952756
        },
        {
          "duration": 0.133333499999992,
          "durationTicks": 48,
          "midi": 73,
          "name": "C#5",
          "ticks": 51840,
          "time": 144.00018,
          "velocity": 0.8188976377952756
        },
        {
          "duration": 0.13333350000002042,
          "durationTicks": 48,
          "midi": 77,
          "name": "F5",
          "ticks": 51936,
          "time": 144.26684699999998,
          "velocity": 0.8188976377952756
        },
        {
          "duration": 0.03333337499998379,
          "durationTicks": 12,
          "midi": 77,
          "name": "F5",
          "ticks": 52032,
          "time": 144.533514,
          "velocity": 0.8188976377952756
        },
        {
          "duration": 0.5166673125000045,
          "durationTicks": 186,
          "midi": 78,
          "name": "F#5",
          "ticks": 52038,
          "time": 144.5501806875,
          "velocity": 0.8188976377952756
        },
        {
          "duration": 0.13055571875000282,
          "durationTicks": 47,
          "midi": 78,
          "name": "F#5",
          "ticks": 52224,
          "time": 145.066848,
          "velocity": 0.8188976377952756
        },
        {
          "duration": 0.13055571875003125,
          "durationTicks": 47,
          "midi": 77,
          "name": "F5",
          "ticks": 52272,
          "time": 145.20018149999999,
          "velocity": 0.8188976377952756
        },
        {
          "duration": 0.13055571875000282,
          "durationTicks": 47,
          "midi": 78,
          "name": "F#5",
          "ticks": 52320,
          "time": 145.333515,
          "velocity": 0.8188976377952756
        },
        {
          "duration": 0.13055571875000282,
          "durationTicks": 47,
          "midi": 77,
          "name": "F5",
          "ticks": 52368,
          "time": 145.4668485,
          "velocity": 0.8188976377952756
        },
        {
          "duration": 0.13055571875000282,
          "durationTicks": 47,
          "midi": 78,
          "name": "F#5",
          "ticks": 52416,
          "time": 145.600182,
          "velocity": 0.8188976377952756
        },
        {
          "duration": 0.06388896875000682,
          "durationTicks": 23,
          "midi": 71,
          "name": "B4",
          "ticks": 52488,
          "time": 145.80018225,
          "velocity": 0.8188976377952756
        },
        {
          "duration": 0.13055571875000282,
          "durationTicks": 47,
          "midi": 73,
          "name": "C#5",
          "ticks": 52512,
          "time": 145.866849,
          "velocity": 0.8188976377952756
        },
        {
          "duration": 0.13055571875000282,
          "durationTicks": 47,
          "midi": 71,
          "name": "B4",
          "ticks": 52560,
          "time": 146.0001825,
          "velocity": 0.8188976377952756
        },
        {
          "duration": 0.13055571875003125,
          "durationTicks": 47,
          "midi": 71,
          "name": "B4",
          "ticks": 52608,
          "time": 146.133516,
          "velocity": 0.8188976377952756
        },
        {
          "duration": 0.06388896875000682,
          "durationTicks": 23,
          "midi": 71,
          "name": "B4",
          "ticks": 52656,
          "time": 146.2668495,
          "velocity": 0.8188976377952756
        },
        {
          "duration": 0.13055571875000282,
          "durationTicks": 47,
          "midi": 71,
          "name": "B4",
          "ticks": 52704,
          "time": 146.400183,
          "velocity": 0.8188976377952756
        },
        {
          "duration": 0.13055571875000282,
          "durationTicks": 47,
          "midi": 71,
          "name": "B4",
          "ticks": 52752,
          "time": 146.5335165,
          "velocity": 0.8188976377952756
        },
        {
          "duration": 0.030555593750023036,
          "durationTicks": 11,
          "midi": 71,
          "name": "B4",
          "ticks": 52800,
          "time": 146.66684999999998,
          "velocity": 0.8188976377952756
        },
        {
          "duration": 0.23055584375001104,
          "durationTicks": 83,
          "midi": 73,
          "name": "C#5",
          "ticks": 52812,
          "time": 146.700183375,
          "velocity": 0.8188976377952756
        },
        {
          "duration": 0.13055571875000282,
          "durationTicks": 47,
          "midi": 71,
          "name": "B4",
          "ticks": 52896,
          "time": 146.933517,
          "velocity": 0.8188976377952756
        },
        {
          "duration": 0.13055571875000282,
          "durationTicks": 47,
          "midi": 69,
          "name": "A4",
          "ticks": 52944,
          "time": 147.0668505,
          "velocity": 0.8188976377952756
        },
        {
          "duration": 0.13055571875000282,
          "durationTicks": 47,
          "midi": 66,
          "name": "F#4",
          "ticks": 53040,
          "time": 147.3335175,
          "velocity": 0.8188976377952756
        },
        {
          "duration": 0.13055571875000282,
          "durationTicks": 47,
          "midi": 66,
          "name": "F#4",
          "ticks": 53088,
          "time": 147.466851,
          "velocity": 0.8188976377952756
        },
        {
          "duration": 0.13055571875003125,
          "durationTicks": 47,
          "midi": 66,
          "name": "F#4",
          "ticks": 53136,
          "time": 147.60018449999998,
          "velocity": 0.8188976377952756
        },
        {
          "duration": 0.06388896875000682,
          "durationTicks": 23,
          "midi": 66,
          "name": "F#4",
          "ticks": 53184,
          "time": 147.733518,
          "velocity": 0.8188976377952756
        },
        {
          "duration": 0.13055571875000282,
          "durationTicks": 47,
          "midi": 68,
          "name": "G#4",
          "ticks": 53232,
          "time": 147.8668515,
          "velocity": 0.8188976377952756
        },
        {
          "duration": 0.06388896875000682,
          "durationTicks": 23,
          "midi": 69,
          "name": "A4",
          "ticks": 53280,
          "time": 148.000185,
          "velocity": 0.8188976377952756
        },
        {
          "duration": 0.13055571875003125,
          "durationTicks": 47,
          "midi": 71,
          "name": "B4",
          "ticks": 53328,
          "time": 148.13351849999998,
          "velocity": 0.8188976377952756
        },
        {
          "duration": 0.030555593749994614,
          "durationTicks": 11,
          "midi": 71,
          "name": "B4",
          "ticks": 53376,
          "time": 148.266852,
          "velocity": 0.8188976377952756
        },
        {
          "duration": 0.23055584375001104,
          "durationTicks": 83,
          "midi": 73,
          "name": "C#5",
          "ticks": 53388,
          "time": 148.30018537499998,
          "velocity": 0.8188976377952756
        },
        {
          "duration": 0.23055584375001104,
          "durationTicks": 83,
          "midi": 76,
          "name": "E5",
          "ticks": 53472,
          "time": 148.53351899999998,
          "velocity": 0.8188976377952756
        },
        {
          "duration": 0.23055584375001104,
          "durationTicks": 83,
          "midi": 71,
          "name": "B4",
          "ticks": 53568,
          "time": 148.800186,
          "velocity": 0.8188976377952756
        },
        {
          "duration": 0.23055584375001104,
          "durationTicks": 83,
          "midi": 66,
          "name": "F#4",
          "ticks": 53664,
          "time": 149.06685299999998,
          "velocity": 0.8188976377952756
        },
        {
          "duration": 0.13055571875000282,
          "durationTicks": 47,
          "midi": 78,
          "name": "F#5",
          "ticks": 53760,
          "time": 149.33352,
          "velocity": 0.8188976377952756
        },
        {
          "duration": 0.13055571875003125,
          "durationTicks": 47,
          "midi": 77,
          "name": "F5",
          "ticks": 53808,
          "time": 149.46685349999998,
          "velocity": 0.8188976377952756
        },
        {
          "duration": 0.13055571875000282,
          "durationTicks": 47,
          "midi": 78,
          "name": "F#5",
          "ticks": 53856,
          "time": 149.600187,
          "velocity": 0.8188976377952756
        },
        {
          "duration": 0.13055571875000282,
          "durationTicks": 47,
          "midi": 77,
          "name": "F5",
          "ticks": 53904,
          "time": 149.7335205,
          "velocity": 0.8188976377952756
        },
        {
          "duration": 0.13055571875000282,
          "durationTicks": 47,
          "midi": 78,
          "name": "F#5",
          "ticks": 53952,
          "time": 149.866854,
          "velocity": 0.8188976377952756
        },
        {
          "duration": 0.2638892187499948,
          "durationTicks": 95,
          "midi": 73,
          "name": "C#5",
          "ticks": 54048,
          "time": 150.133521,
          "velocity": 0.8188976377952756
        },
        {
          "duration": 0.13055571875003125,
          "durationTicks": 47,
          "midi": 71,
          "name": "B4",
          "ticks": 54144,
          "time": 150.40018799999999,
          "velocity": 0.8188976377952756
        },
        {
          "duration": 0.06388896875000682,
          "durationTicks": 23,
          "midi": 71,
          "name": "B4",
          "ticks": 54192,
          "time": 150.5335215,
          "velocity": 0.8188976377952756
        },
        {
          "duration": 0.13055571875000282,
          "durationTicks": 47,
          "midi": 71,
          "name": "B4",
          "ticks": 54240,
          "time": 150.666855,
          "velocity": 0.8188976377952756
        },
        {
          "duration": 0.13055571875000282,
          "durationTicks": 47,
          "midi": 71,
          "name": "B4",
          "ticks": 54288,
          "time": 150.8001885,
          "velocity": 0.8188976377952756
        },
        {
          "duration": 0.030555593750023036,
          "durationTicks": 11,
          "midi": 71,
          "name": "B4",
          "ticks": 54336,
          "time": 150.93352199999998,
          "velocity": 0.8188976377952756
        },
        {
          "duration": 0.23055584375001104,
          "durationTicks": 83,
          "midi": 73,
          "name": "C#5",
          "ticks": 54348,
          "time": 150.966855375,
          "velocity": 0.8188976377952756
        },
        {
          "duration": 0.13055571875000282,
          "durationTicks": 47,
          "midi": 71,
          "name": "B4",
          "ticks": 54432,
          "time": 151.200189,
          "velocity": 0.8188976377952756
        },
        {
          "duration": 0.13055571875000282,
          "durationTicks": 47,
          "midi": 69,
          "name": "A4",
          "ticks": 54480,
          "time": 151.3335225,
          "velocity": 0.8188976377952756
        },
        {
          "duration": 0.23055584375001104,
          "durationTicks": 83,
          "midi": 78,
          "name": "F#5",
          "ticks": 54624,
          "time": 151.733523,
          "velocity": 0.8188976377952756
        },
        {
          "duration": 0.23055584375001104,
          "durationTicks": 83,
          "midi": 76,
          "name": "E5",
          "ticks": 54720,
          "time": 152.00019,
          "velocity": 0.8188976377952756
        },
        {
          "duration": 0.13055571875000282,
          "durationTicks": 47,
          "midi": 66,
          "name": "F#4",
          "ticks": 54816,
          "time": 152.266857,
          "velocity": 0.8188976377952756
        },
        {
          "duration": 0.26388921875002325,
          "durationTicks": 95,
          "midi": 68,
          "name": "G#4",
          "ticks": 54864,
          "time": 152.40019049999998,
          "velocity": 0.8188976377952756
        },
        {
          "duration": 0.39722271875001525,
          "durationTicks": 143,
          "midi": 69,
          "name": "A4",
          "ticks": 54960,
          "time": 152.6668575,
          "velocity": 0.8188976377952756
        },
        {
          "duration": 0.13055571875000282,
          "durationTicks": 47,
          "midi": 69,
          "name": "A4",
          "ticks": 55104,
          "time": 153.066858,
          "velocity": 0.8188976377952756
        },
        {
          "duration": 0.06388896875000682,
          "durationTicks": 23,
          "midi": 69,
          "name": "A4",
          "ticks": 55152,
          "time": 153.2001915,
          "velocity": 0.8188976377952756
        },
        {
          "duration": 0.13055571875003125,
          "durationTicks": 47,
          "midi": 71,
          "name": "B4",
          "ticks": 55200,
          "time": 153.33352499999998,
          "velocity": 0.8188976377952756
        },
        {
          "duration": 0.23055584375001104,
          "durationTicks": 83,
          "midi": 78,
          "name": "F#5",
          "ticks": 55392,
          "time": 153.866859,
          "velocity": 0.8188976377952756
        },
        {
          "duration": 0.23055584375001104,
          "durationTicks": 83,
          "midi": 76,
          "name": "E5",
          "ticks": 55488,
          "time": 154.133526,
          "velocity": 0.8188976377952756
        },
        {
          "duration": 0.13055571875000282,
          "durationTicks": 47,
          "midi": 66,
          "name": "F#4",
          "ticks": 55584,
          "time": 154.400193,
          "velocity": 0.8188976377952756
        },
        {
          "duration": 0.26388921875002325,
          "durationTicks": 95,
          "midi": 68,
          "name": "G#4",
          "ticks": 55632,
          "time": 154.5335265,
          "velocity": 0.8188976377952756
        },
        {
          "duration": 0.3972227187499868,
          "durationTicks": 143,
          "midi": 69,
          "name": "A4",
          "ticks": 55728,
          "time": 154.8001935,
          "velocity": 0.8188976377952756
        },
        {
          "duration": 0.13055571875003125,
          "durationTicks": 47,
          "midi": 69,
          "name": "A4",
          "ticks": 55872,
          "time": 155.20019399999998,
          "velocity": 0.8188976377952756
        },
        {
          "duration": 0.13055571875000282,
          "durationTicks": 47,
          "midi": 69,
          "name": "A4",
          "ticks": 55920,
          "time": 155.3335275,
          "velocity": 0.8188976377952756
        },
        {
          "duration": 0.13055571875000282,
          "durationTicks": 47,
          "midi": 71,
          "name": "B4",
          "ticks": 55968,
          "time": 155.466861,
          "velocity": 0.8188976377952756
        },
        {
          "duration": 0.26388921875002325,
          "durationTicks": 95,
          "midi": 73,
          "name": "C#5",
          "ticks": 56064,
          "time": 155.73352799999998,
          "velocity": 0.8188976377952756
        },
        {
          "duration": 0.13055571875003125,
          "durationTicks": 47,
          "midi": 74,
          "name": "D5",
          "ticks": 56208,
          "time": 156.13352849999998,
          "velocity": 0.8188976377952756
        },
        {
          "duration": 0.2638892187499948,
          "durationTicks": 95,
          "midi": 73,
          "name": "C#5",
          "ticks": 56256,
          "time": 156.266862,
          "velocity": 0.8188976377952756
        },
        {
          "duration": 0.13055571875003125,
          "durationTicks": 47,
          "midi": 74,
          "name": "D5",
          "ticks": 56400,
          "time": 156.66686249999998,
          "velocity": 0.8188976377952756
        },
        {
          "duration": 0.5305562187500072,
          "durationTicks": 191,
          "midi": 73,
          "name": "C#5",
          "ticks": 56448,
          "time": 156.800196,
          "velocity": 0.8188976377952756
        },
        {
          "duration": 0.13055571875000282,
          "durationTicks": 47,
          "midi": 73,
          "name": "C#5",
          "ticks": 56784,
          "time": 157.7335305,
          "velocity": 0.8188976377952756
        },
        {
          "duration": 0.26388921875002325,
          "durationTicks": 95,
          "midi": 74,
          "name": "D5",
          "ticks": 56832,
          "time": 157.866864,
          "velocity": 0.8188976377952756
        },
        {
          "duration": 0.13055571875000282,
          "durationTicks": 47,
          "midi": 75,
          "name": "D#5",
          "ticks": 56976,
          "time": 158.2668645,
          "velocity": 0.8188976377952756
        },
        {
          "duration": 0.26388921875002325,
          "durationTicks": 95,
          "midi": 74,
          "name": "D5",
          "ticks": 57024,
          "time": 158.400198,
          "velocity": 0.8188976377952756
        },
        {
          "duration": 0.13055571875000282,
          "durationTicks": 47,
          "midi": 75,
          "name": "D#5",
          "ticks": 57168,
          "time": 158.8001985,
          "velocity": 0.8188976377952756
        },
        {
          "duration": 0.5305562187500072,
          "durationTicks": 191,
          "midi": 74,
          "name": "D5",
          "ticks": 57216,
          "time": 158.93353199999999,
          "velocity": 0.8188976377952756
        },
        {
          "duration": 0.066666749999996,
          "durationTicks": 24,
          "midi": 70,
          "name": "A#4",
          "ticks": 61104,
          "time": 169.7335455,
          "velocity": 0.8188976377952756
        },
        {
          "duration": 0.066666749999996,
          "durationTicks": 24,
          "midi": 70,
          "name": "A#4",
          "ticks": 61152,
          "time": 169.86687899999998,
          "velocity": 0.8188976377952756
        },
        {
          "duration": 0.066666749999996,
          "durationTicks": 24,
          "midi": 70,
          "name": "A#4",
          "ticks": 61248,
          "time": 170.133546,
          "velocity": 0.8188976377952756
        },
        {
          "duration": 0.066666749999996,
          "durationTicks": 24,
          "midi": 70,
          "name": "A#4",
          "ticks": 61296,
          "time": 170.2668795,
          "velocity": 0.8188976377952756
        },
        {
          "duration": 0.266666999999984,
          "durationTicks": 96,
          "midi": 70,
          "name": "A#4",
          "ticks": 61392,
          "time": 170.5335465,
          "velocity": 0.8188976377952756
        },
        {
          "duration": 0.066666749999996,
          "durationTicks": 24,
          "midi": 69,
          "name": "A4",
          "ticks": 61488,
          "time": 170.80021349999998,
          "velocity": 0.8188976377952756
        },
        {
          "duration": 0.066666749999996,
          "durationTicks": 24,
          "midi": 70,
          "name": "A#4",
          "ticks": 61536,
          "time": 170.933547,
          "velocity": 0.8188976377952756
        },
        {
          "duration": 0.066666749999996,
          "durationTicks": 24,
          "midi": 69,
          "name": "A4",
          "ticks": 61584,
          "time": 171.0668805,
          "velocity": 0.8188976377952756
        },
        {
          "duration": 0.03333337500001221,
          "durationTicks": 12,
          "midi": 72,
          "name": "C5",
          "ticks": 62976,
          "time": 174.933552,
          "velocity": 0.8188976377952756
        },
        {
          "duration": 0.2333336250000002,
          "durationTicks": 84,
          "midi": 73,
          "name": "C#5",
          "ticks": 62988,
          "time": 174.966885375,
          "velocity": 0.8188976377952756
        },
        {
          "duration": 0.266666999999984,
          "durationTicks": 96,
          "midi": 70,
          "name": "A#4",
          "ticks": 63072,
          "time": 175.200219,
          "velocity": 0.8188976377952756
        },
        {
          "duration": 0.03333337500001221,
          "durationTicks": 12,
          "midi": 67,
          "name": "G4",
          "ticks": 63168,
          "time": 175.466886,
          "velocity": 0.8188976377952756
        },
        {
          "duration": 0.2333336250000002,
          "durationTicks": 84,
          "midi": 68,
          "name": "G#4",
          "ticks": 63180,
          "time": 175.500219375,
          "velocity": 0.8188976377952756
        },
        {
          "duration": 0.2333336250000002,
          "durationTicks": 84,
          "midi": 66,
          "name": "F#4",
          "ticks": 63264,
          "time": 175.733553,
          "velocity": 0.8188976377952756
        },
        {
          "duration": 0.13333350000002042,
          "durationTicks": 48,
          "midi": 66,
          "name": "F#4",
          "ticks": 63360,
          "time": 176.00021999999998,
          "velocity": 0.8188976377952756
        },
        {
          "duration": 0.133333499999992,
          "durationTicks": 48,
          "midi": 78,
          "name": "F#5",
          "ticks": 63408,
          "time": 176.1335535,
          "velocity": 0.8188976377952756
        },
        {
          "duration": 0.066666749999996,
          "durationTicks": 24,
          "midi": 63,
          "name": "D#4",
          "ticks": 63504,
          "time": 176.4002205,
          "velocity": 0.8188976377952756
        },
        {
          "duration": 0.066666749999996,
          "durationTicks": 24,
          "midi": 65,
          "name": "F4",
          "ticks": 63528,
          "time": 176.46688724999998,
          "velocity": 0.8188976377952756
        },
        {
          "duration": 0.03333337500001221,
          "durationTicks": 12,
          "midi": 66,
          "name": "F#4",
          "ticks": 63552,
          "time": 176.53355399999998,
          "velocity": 0.8188976377952756
        },
        {
          "duration": 0.03333337499998379,
          "durationTicks": 12,
          "midi": 66,
          "name": "F#4",
          "ticks": 63576,
          "time": 176.60022075,
          "velocity": 0.8188976377952756
        },
        {
          "duration": 0.041666718749979736,
          "durationTicks": 15,
          "midi": 66,
          "name": "F#4",
          "ticks": 63600,
          "time": 176.6668875,
          "velocity": 0.8188976377952756
        },
        {
          "duration": 0.03333337499998379,
          "durationTicks": 12,
          "midi": 66,
          "name": "F#4",
          "ticks": 63624,
          "time": 176.73355425,
          "velocity": 0.8188976377952756
        },
        {
          "duration": 0.066666749999996,
          "durationTicks": 24,
          "midi": 75,
          "name": "D#5",
          "ticks": 63648,
          "time": 176.800221,
          "velocity": 0.8188976377952756
        },
        {
          "duration": 0.04444449999999733,
          "durationTicks": 16,
          "midi": 66,
          "name": "F#4",
          "ticks": 63696,
          "time": 176.93355449999999,
          "velocity": 0.8188976377952756
        },
        {
          "duration": 0.03333337500001221,
          "durationTicks": 12,
          "midi": 68,
          "name": "G#4",
          "ticks": 63720,
          "time": 177.00022124999998,
          "velocity": 0.8188976377952756
        },
        {
          "duration": 0.03333337499998379,
          "durationTicks": 12,
          "midi": 68,
          "name": "G#4",
          "ticks": 63768,
          "time": 177.13355475,
          "velocity": 0.8188976377952756
        },
        {
          "duration": 0.03333337499998379,
          "durationTicks": 12,
          "midi": 68,
          "name": "G#4",
          "ticks": 63792,
          "time": 177.2002215,
          "velocity": 0.8188976377952756
        },
        {
          "duration": 0.03333337499998379,
          "durationTicks": 12,
          "midi": 68,
          "name": "G#4",
          "ticks": 63816,
          "time": 177.26688825,
          "velocity": 0.8188976377952756
        },
        {
          "duration": 0.133333499999992,
          "durationTicks": 48,
          "midi": 75,
          "name": "D#5",
          "ticks": 63840,
          "time": 177.333555,
          "velocity": 0.8188976377952756
        },
        {
          "duration": 0.066666749999996,
          "durationTicks": 24,
          "midi": 70,
          "name": "A#4",
          "ticks": 63888,
          "time": 177.46688849999998,
          "velocity": 0.8188976377952756
        },
        {
          "duration": 0.06666675000002442,
          "durationTicks": 24,
          "midi": 68,
          "name": "G#4",
          "ticks": 63912,
          "time": 177.53355524999998,
          "velocity": 0.8188976377952756
        },
        {
          "duration": 0.03333337499998379,
          "durationTicks": 12,
          "midi": 70,
          "name": "A#4",
          "ticks": 63936,
          "time": 177.600222,
          "velocity": 0.8188976377952756
        },
        {
          "duration": 0.03333337499998379,
          "durationTicks": 12,
          "midi": 70,
          "name": "A#4",
          "ticks": 63960,
          "time": 177.66688875,
          "velocity": 0.8188976377952756
        },
        {
          "duration": 0.03333337499998379,
          "durationTicks": 12,
          "midi": 70,
          "name": "A#4",
          "ticks": 63984,
          "time": 177.7335555,
          "velocity": 0.8188976377952756
        },
        {
          "duration": 0.066666749999996,
          "durationTicks": 24,
          "midi": 70,
          "name": "A#4",
          "ticks": 64008,
          "time": 177.80022225,
          "velocity": 0.8188976377952756
        },
        {
          "duration": 0.133333499999992,
          "durationTicks": 48,
          "midi": 75,
          "name": "D#5",
          "ticks": 64032,
          "time": 177.866889,
          "velocity": 0.8188976377952756
        },
        {
          "duration": 0.13333350000002042,
          "durationTicks": 48,
          "midi": 70,
          "name": "A#4",
          "ticks": 64080,
          "time": 178.00022249999998,
          "velocity": 0.8188976377952756
        },
        {
          "duration": 0.133333499999992,
          "durationTicks": 48,
          "midi": 71,
          "name": "B4",
          "ticks": 64128,
          "time": 178.133556,
          "velocity": 0.8188976377952756
        },
        {
          "duration": 0.133333499999992,
          "durationTicks": 48,
          "midi": 70,
          "name": "A#4",
          "ticks": 64176,
          "time": 178.2668895,
          "velocity": 0.8188976377952756
        },
        {
          "duration": 0.13333350000002042,
          "durationTicks": 48,
          "midi": 69,
          "name": "A4",
          "ticks": 64224,
          "time": 178.40022299999998,
          "velocity": 0.8188976377952756
        },
        {
          "duration": 0.133333499999992,
          "durationTicks": 48,
          "midi": 68,
          "name": "G#4",
          "ticks": 64272,
          "time": 178.5335565,
          "velocity": 0.8188976377952756
        },
        {
          "duration": 0.133333499999992,
          "durationTicks": 48,
          "midi": 69,
          "name": "A4",
          "ticks": 64320,
          "time": 178.66689,
          "velocity": 0.8188976377952756
        },
        {
          "duration": 0.133333499999992,
          "durationTicks": 48,
          "midi": 68,
          "name": "G#4",
          "ticks": 64368,
          "time": 178.8002235,
          "velocity": 0.8188976377952756
        },
        {
          "duration": 0.13333350000002042,
          "durationTicks": 48,
          "midi": 67,
          "name": "G4",
          "ticks": 64416,
          "time": 178.93355699999998,
          "velocity": 0.8188976377952756
        },
        {
          "duration": 0.133333499999992,
          "durationTicks": 48,
          "midi": 66,
          "name": "F#4",
          "ticks": 64464,
          "time": 179.0668905,
          "velocity": 0.8188976377952756
        },
        {
          "duration": 0.133333499999992,
          "durationTicks": 48,
          "midi": 70,
          "name": "A#4",
          "ticks": 64512,
          "time": 179.200224,
          "velocity": 0.8188976377952756
        },
        {
          "duration": 0.13333350000002042,
          "durationTicks": 48,
          "midi": 71,
          "name": "B4",
          "ticks": 64560,
          "time": 179.33355749999998,
          "velocity": 0.8188976377952756
        },
        {
          "duration": 0.133333499999992,
          "durationTicks": 48,
          "midi": 70,
          "name": "A#4",
          "ticks": 64608,
          "time": 179.466891,
          "velocity": 0.8188976377952756
        },
        {
          "duration": 0.133333499999992,
          "durationTicks": 48,
          "midi": 71,
          "name": "B4",
          "ticks": 64656,
          "time": 179.6002245,
          "velocity": 0.8188976377952756
        },
        {
          "duration": 0.133333499999992,
          "durationTicks": 48,
          "midi": 74,
          "name": "D5",
          "ticks": 64704,
          "time": 179.733558,
          "velocity": 0.8188976377952756
        },
        {
          "duration": 0.13333350000002042,
          "durationTicks": 48,
          "midi": 75,
          "name": "D#5",
          "ticks": 64752,
          "time": 179.86689149999998,
          "velocity": 0.8188976377952756
        },
        {
          "duration": 0.133333499999992,
          "durationTicks": 48,
          "midi": 74,
          "name": "D5",
          "ticks": 64800,
          "time": 180.000225,
          "velocity": 0.8188976377952756
        },
        {
          "duration": 0.133333499999992,
          "durationTicks": 48,
          "midi": 75,
          "name": "D#5",
          "ticks": 64848,
          "time": 180.1335585,
          "velocity": 0.8188976377952756
        },
        {
          "duration": 0.13333350000002042,
          "durationTicks": 48,
          "midi": 77,
          "name": "F5",
          "ticks": 64896,
          "time": 180.26689199999998,
          "velocity": 0.8188976377952756
        },
        {
          "duration": 0.133333499999992,
          "durationTicks": 48,
          "midi": 78,
          "name": "F#5",
          "ticks": 64944,
          "time": 180.4002255,
          "velocity": 0.8188976377952756
        },
        {
          "duration": 0.133333499999992,
          "durationTicks": 48,
          "midi": 77,
          "name": "F5",
          "ticks": 64992,
          "time": 180.533559,
          "velocity": 0.8188976377952756
        },
        {
          "duration": 0.133333499999992,
          "durationTicks": 48,
          "midi": 78,
          "name": "F#5",
          "ticks": 65040,
          "time": 180.6668925,
          "velocity": 0.8188976377952756
        },
        {
          "duration": 0.13333350000002042,
          "durationTicks": 48,
          "midi": 82,
          "name": "A#5",
          "ticks": 65088,
          "time": 180.80022599999998,
          "velocity": 0.8188976377952756
        },
        {
          "duration": 0.133333499999992,
          "durationTicks": 48,
          "midi": 83,
          "name": "B5",
          "ticks": 65136,
          "time": 180.9335595,
          "velocity": 0.8188976377952756
        },
        {
          "duration": 0.133333499999992,
          "durationTicks": 48,
          "midi": 82,
          "name": "A#5",
          "ticks": 65184,
          "time": 181.066893,
          "velocity": 0.8188976377952756
        },
        {
          "duration": 0.133333499999992,
          "durationTicks": 48,
          "midi": 83,
          "name": "B5",
          "ticks": 65232,
          "time": 181.20022649999999,
          "velocity": 0.8188976377952756
        },
        {
          "duration": 0.13333350000002042,
          "durationTicks": 48,
          "midi": 82,
          "name": "A#5",
          "ticks": 65280,
          "time": 181.33355999999998,
          "velocity": 0.8188976377952756
        },
        {
          "duration": 0.2666670000000124,
          "durationTicks": 96,
          "midi": 62,
          "name": "D4",
          "ticks": 65952,
          "time": 183.20022899999998,
          "velocity": 0.8188976377952756
        },
        {
          "duration": 0.2666670000000124,
          "durationTicks": 96,
          "midi": 74,
          "name": "D5",
          "ticks": 66048,
          "time": 183.466896,
          "velocity": 0.8188976377952756
        },
        {
          "duration": 0.03333337499998379,
          "durationTicks": 12,
          "midi": 73,
          "name": "C#5",
          "ticks": 66192,
          "time": 183.8668965,
          "velocity": 0.8188976377952756
        },
        {
          "duration": 0.03333337500001221,
          "durationTicks": 12,
          "midi": 73,
          "name": "C#5",
          "ticks": 66216,
          "time": 183.93356325,
          "velocity": 0.8188976377952756
        },
        {
          "duration": 0.2666670000000124,
          "durationTicks": 96,
          "midi": 74,
          "name": "D5",
          "ticks": 66240,
          "time": 184.00023,
          "velocity": 0.8188976377952756
        },
        {
          "duration": 0.133333499999992,
          "durationTicks": 48,
          "midi": 73,
          "name": "C#5",
          "ticks": 66384,
          "time": 184.4002305,
          "velocity": 0.8188976377952756
        },
        {
          "duration": 0.13333350000002042,
          "durationTicks": 48,
          "midi": 74,
          "name": "D5",
          "ticks": 66432,
          "time": 184.53356399999998,
          "velocity": 0.8188976377952756
        },
        {
          "duration": 0.133333499999992,
          "durationTicks": 48,
          "midi": 73,
          "name": "C#5",
          "ticks": 66480,
          "time": 184.6668975,
          "velocity": 0.8188976377952756
        },
        {
          "duration": 0.133333499999992,
          "durationTicks": 48,
          "midi": 74,
          "name": "D5",
          "ticks": 66528,
          "time": 184.800231,
          "velocity": 0.8188976377952756
        },
        {
          "duration": 0.133333499999992,
          "durationTicks": 48,
          "midi": 73,
          "name": "C#5",
          "ticks": 66576,
          "time": 184.9335645,
          "velocity": 0.8188976377952756
        },
        {
          "duration": 0.2666670000000124,
          "durationTicks": 96,
          "midi": 74,
          "name": "D5",
          "ticks": 66624,
          "time": 185.06689799999998,
          "velocity": 0.8188976377952756
        },
        {
          "duration": 0.03333337500001221,
          "durationTicks": 12,
          "midi": 80,
          "name": "G#5",
          "ticks": 66720,
          "time": 185.333565,
          "velocity": 0.8188976377952756
        },
        {
          "duration": 0.2333336250000002,
          "durationTicks": 84,
          "midi": 82,
          "name": "A#5",
          "ticks": 66732,
          "time": 185.366898375,
          "velocity": 0.8188976377952756
        },
        {
          "duration": 0.133333499999992,
          "durationTicks": 48,
          "midi": 70,
          "name": "A#4",
          "ticks": 66816,
          "time": 185.600232,
          "velocity": 0.8188976377952756
        },
        {
          "duration": 0.03333337500001221,
          "durationTicks": 12,
          "midi": 71,
          "name": "B4",
          "ticks": 66912,
          "time": 185.866899,
          "velocity": 0.8188976377952756
        },
        {
          "duration": 0.24444475000001376,
          "durationTicks": 88,
          "midi": 72,
          "name": "C5",
          "ticks": 66920,
          "time": 185.88912125,
          "velocity": 0.8188976377952756
        },
        {
          "duration": 0.133333499999992,
          "durationTicks": 48,
          "midi": 66,
          "name": "F#4",
          "ticks": 67008,
          "time": 186.133566,
          "velocity": 0.8188976377952756
        },
        {
          "duration": 0.133333499999992,
          "durationTicks": 48,
          "midi": 67,
          "name": "G4",
          "ticks": 67056,
          "time": 186.2668995,
          "velocity": 0.8188976377952756
        },
        {
          "duration": 0.133333499999992,
          "durationTicks": 48,
          "midi": 69,
          "name": "A4",
          "ticks": 67104,
          "time": 186.400233,
          "velocity": 0.8188976377952756
        },
        {
          "duration": 0.13333350000002042,
          "durationTicks": 48,
          "midi": 70,
          "name": "A#4",
          "ticks": 67152,
          "time": 186.53356649999998,
          "velocity": 0.8188976377952756
        },
        {
          "duration": 0.03333337499998379,
          "durationTicks": 12,
          "midi": 76,
          "name": "E5",
          "ticks": 67200,
          "time": 186.6669,
          "velocity": 0.8188976377952756
        },
        {
          "duration": 0.2333336250000002,
          "durationTicks": 84,
          "midi": 77,
          "name": "F5",
          "ticks": 67212,
          "time": 186.70023337499998,
          "velocity": 0.8188976377952756
        },
        {
          "duration": 0.2666670000000124,
          "durationTicks": 96,
          "midi": 74,
          "name": "D5",
          "ticks": 67296,
          "time": 186.93356699999998,
          "velocity": 0.8188976377952756
        },
        {
          "duration": 0.03333337499998379,
          "durationTicks": 12,
          "midi": 71,
          "name": "B4",
          "ticks": 67392,
          "time": 187.200234,
          "velocity": 0.8188976377952756
        },
        {
          "duration": 0.2333336250000002,
          "durationTicks": 84,
          "midi": 72,
          "name": "C5",
          "ticks": 67404,
          "time": 187.23356737499998,
          "velocity": 0.8188976377952756
        },
        {
          "duration": 0.2333336250000002,
          "durationTicks": 84,
          "midi": 70,
          "name": "A#4",
          "ticks": 67488,
          "time": 187.46690099999998,
          "velocity": 0.8188976377952756
        },
        {
          "duration": 0.133333499999992,
          "durationTicks": 48,
          "midi": 70,
          "name": "A#4",
          "ticks": 67584,
          "time": 187.733568,
          "velocity": 0.8188976377952756
        },
        {
          "duration": 0.13333350000002042,
          "durationTicks": 48,
          "midi": 82,
          "name": "A#5",
          "ticks": 67632,
          "time": 187.86690149999998,
          "velocity": 0.8188976377952756
        },
        {
          "duration": 0.066666749999996,
          "durationTicks": 24,
          "midi": 67,
          "name": "G4",
          "ticks": 67728,
          "time": 188.1335685,
          "velocity": 0.8188976377952756
        },
        {
          "duration": 0.066666749999996,
          "durationTicks": 24,
          "midi": 69,
          "name": "A4",
          "ticks": 67752,
          "time": 188.20023525,
          "velocity": 0.8188976377952756
        },
        {
          "duration": 0.05555562500001088,
          "durationTicks": 20,
          "midi": 70,
          "name": "A#4",
          "ticks": 67776,
          "time": 188.266902,
          "velocity": 0.8188976377952756
        },
        {
          "duration": 0.03333337500001221,
          "durationTicks": 12,
          "midi": 70,
          "name": "A#4",
          "ticks": 67824,
          "time": 188.40023549999998,
          "velocity": 0.8188976377952756
        },
        {
          "duration": 0.03333337499998379,
          "durationTicks": 12,
          "midi": 70,
          "name": "A#4",
          "ticks": 67848,
          "time": 188.46690225,
          "velocity": 0.8188976377952756
        },
        {
          "duration": 0.066666749999996,
          "durationTicks": 24,
          "midi": 79,
          "name": "G5",
          "ticks": 67872,
          "time": 188.533569,
          "velocity": 0.8188976377952756
        },
        {
          "duration": 0.04444449999999733,
          "durationTicks": 16,
          "midi": 70,
          "name": "A#4",
          "ticks": 67896,
          "time": 188.60023575,
          "velocity": 0.8188976377952756
        },
        {
          "duration": 0.04444449999999733,
          "durationTicks": 16,
          "midi": 70,
          "name": "A#4",
          "ticks": 67920,
          "time": 188.6669025,
          "velocity": 0.8188976377952756
        },
        {
          "duration": 0.01944446874998107,
          "durationTicks": 7,
          "midi": 70,
          "name": "A#4",
          "ticks": 67944,
          "time": 188.73356925,
          "velocity": 0.8188976377952756
        },
        {
          "duration": 0.11111125000002176,
          "durationTicks": 40,
          "midi": 72,
          "name": "C5",
          "ticks": 67948,
          "time": 188.74468037499997,
          "velocity": 0.8188976377952756
        },
        {
          "duration": 0.03333337499998379,
          "durationTicks": 12,
          "midi": 72,
          "name": "C5",
          "ticks": 68016,
          "time": 188.9335695,
          "velocity": 0.8188976377952756
        },
        {
          "duration": 0.03333337499998379,
          "durationTicks": 12,
          "midi": 72,
          "name": "C5",
          "ticks": 68040,
          "time": 189.00023625,
          "velocity": 0.8188976377952756
        },
        {
          "duration": 0.133333499999992,
          "durationTicks": 48,
          "midi": 79,
          "name": "G5",
          "ticks": 68064,
          "time": 189.066903,
          "velocity": 0.8188976377952756
        },
        {
          "duration": 0.133333499999992,
          "durationTicks": 48,
          "midi": 72,
          "name": "C5",
          "ticks": 68112,
          "time": 189.2002365,
          "velocity": 0.8188976377952756
        },
        {
          "duration": 0.07777787500000954,
          "durationTicks": 28,
          "midi": 74,
          "name": "D5",
          "ticks": 68160,
          "time": 189.33356999999998,
          "velocity": 0.8188976377952756
        },
        {
          "duration": 0.07777787499998112,
          "durationTicks": 28,
          "midi": 74,
          "name": "D5",
          "ticks": 68208,
          "time": 189.4669035,
          "velocity": 0.8188976377952756
        },
        {
          "duration": 0.133333499999992,
          "durationTicks": 48,
          "midi": 79,
          "name": "G5",
          "ticks": 68256,
          "time": 189.600237,
          "velocity": 0.8188976377952756
        },
        {
          "duration": 0.133333499999992,
          "durationTicks": 48,
          "midi": 74,
          "name": "D5",
          "ticks": 68304,
          "time": 189.73357049999998,
          "velocity": 0.8188976377952756
        },
        {
          "duration": 0.13333350000002042,
          "durationTicks": 48,
          "midi": 75,
          "name": "D#5",
          "ticks": 68352,
          "time": 189.86690399999998,
          "velocity": 0.8188976377952756
        },
        {
          "duration": 0.133333499999992,
          "durationTicks": 48,
          "midi": 74,
          "name": "D5",
          "ticks": 68400,
          "time": 190.0002375,
          "velocity": 0.8188976377952756
        },
        {
          "duration": 0.133333499999992,
          "durationTicks": 48,
          "midi": 73,
          "name": "C#5",
          "ticks": 68448,
          "time": 190.133571,
          "velocity": 0.8188976377952756
        },
        {
          "duration": 0.13333350000002042,
          "durationTicks": 48,
          "midi": 72,
          "name": "C5",
          "ticks": 68496,
          "time": 190.26690449999998,
          "velocity": 0.8188976377952756
        },
        {
          "duration": 0.133333499999992,
          "durationTicks": 48,
          "midi": 73,
          "name": "C#5",
          "ticks": 68544,
          "time": 190.400238,
          "velocity": 0.8188976377952756
        },
        {
          "duration": 0.133333499999992,
          "durationTicks": 48,
          "midi": 72,
          "name": "C5",
          "ticks": 68592,
          "time": 190.5335715,
          "velocity": 0.8188976377952756
        },
        {
          "duration": 0.133333499999992,
          "durationTicks": 48,
          "midi": 71,
          "name": "B4",
          "ticks": 68640,
          "time": 190.66690499999999,
          "velocity": 0.8188976377952756
        },
        {
          "duration": 0.13333350000002042,
          "durationTicks": 48,
          "midi": 70,
          "name": "A#4",
          "ticks": 68688,
          "time": 190.80023849999998,
          "velocity": 0.8188976377952756
        },
        {
          "duration": 0.133333499999992,
          "durationTicks": 48,
          "midi": 74,
          "name": "D5",
          "ticks": 68736,
          "time": 190.933572,
          "velocity": 0.8188976377952756
        },
        {
          "duration": 0.133333499999992,
          "durationTicks": 48,
          "midi": 75,
          "name": "D#5",
          "ticks": 68784,
          "time": 191.0669055,
          "velocity": 0.8188976377952756
        },
        {
          "duration": 0.13333350000002042,
          "durationTicks": 48,
          "midi": 74,
          "name": "D5",
          "ticks": 68832,
          "time": 191.20023899999998,
          "velocity": 0.8188976377952756
        },
        {
          "duration": 0.133333499999992,
          "durationTicks": 48,
          "midi": 75,
          "name": "D#5",
          "ticks": 68880,
          "time": 191.3335725,
          "velocity": 0.8188976377952756
        },
        {
          "duration": 0.133333499999992,
          "durationTicks": 48,
          "midi": 74,
          "name": "D5",
          "ticks": 68928,
          "time": 191.466906,
          "velocity": 0.8188976377952756
        },
        {
          "duration": 0.2666670000000124,
          "durationTicks": 96,
          "midi": 67,
          "name": "G4",
          "ticks": 69024,
          "time": 191.73357299999998,
          "velocity": 0.8188976377952756
        },
        {
          "duration": 0.03333337500001221,
          "durationTicks": 12,
          "midi": 77,
          "name": "F5",
          "ticks": 69120,
          "time": 192.00024,
          "velocity": 0.8188976377952756
        },
        {
          "duration": 0.2500003125000205,
          "durationTicks": 90,
          "midi": 79,
          "name": "G5",
          "ticks": 69126,
          "time": 192.01690668749998,
          "velocity": 0.8188976377952756
        },
        {
          "duration": 0.066666749999996,
          "durationTicks": 24,
          "midi": 74,
          "name": "D5",
          "ticks": 69264,
          "time": 192.4002405,
          "velocity": 0.8188976377952756
        },
        {
          "duration": 0.2666670000000124,
          "durationTicks": 96,
          "midi": 72,
          "name": "C5",
          "ticks": 69312,
          "time": 192.533574,
          "velocity": 0.8188976377952756
        },
        {
          "duration": 0.133333499999992,
          "durationTicks": 48,
          "midi": 70,
          "name": "A#4",
          "ticks": 69456,
          "time": 192.9335745,
          "velocity": 0.8188976377952756
        },
        {
          "duration": 0.03333337500001221,
          "durationTicks": 12,
          "midi": 70,
          "name": "A#4",
          "ticks": 69504,
          "time": 193.06690799999998,
          "velocity": 0.8188976377952756
        },
        {
          "duration": 0.24722253125000293,
          "durationTicks": 89,
          "midi": 72,
          "name": "C5",
          "ticks": 69511,
          "time": 193.08635246875,
          "velocity": 0.8188976377952756
        },
        {
          "duration": 0.266666999999984,
          "durationTicks": 96,
          "midi": 75,
          "name": "D#5",
          "ticks": 69600,
          "time": 193.333575,
          "velocity": 0.8188976377952756
        },
        {
          "duration": 0.2666670000000124,
          "durationTicks": 96,
          "midi": 74,
          "name": "D5",
          "ticks": 69696,
          "time": 193.60024199999998,
          "velocity": 0.8188976377952756
        },
        {
          "duration": 0.2666670000000124,
          "durationTicks": 96,
          "midi": 67,
          "name": "G4",
          "ticks": 69792,
          "time": 193.866909,
          "velocity": 0.8188976377952756
        },
        {
          "duration": 0.03333337499998379,
          "durationTicks": 12,
          "midi": 77,
          "name": "F5",
          "ticks": 69888,
          "time": 194.133576,
          "velocity": 0.8188976377952756
        },
        {
          "duration": 0.2500003124999921,
          "durationTicks": 90,
          "midi": 79,
          "name": "G5",
          "ticks": 69894,
          "time": 194.1502426875,
          "velocity": 0.8188976377952756
        },
        {
          "duration": 0.066666749999996,
          "durationTicks": 24,
          "midi": 74,
          "name": "D5",
          "ticks": 70032,
          "time": 194.53357649999998,
          "velocity": 0.8188976377952756
        },
        {
          "duration": 0.266666999999984,
          "durationTicks": 96,
          "midi": 72,
          "name": "C5",
          "ticks": 70080,
          "time": 194.66691,
          "velocity": 0.8188976377952756
        },
        {
          "duration": 0.13333350000002042,
          "durationTicks": 48,
          "midi": 69,
          "name": "A4",
          "ticks": 70224,
          "time": 195.06691049999998,
          "velocity": 0.8188976377952756
        },
        {
          "duration": 0.133333499999992,
          "durationTicks": 48,
          "midi": 72,
          "name": "C5",
          "ticks": 70272,
          "time": 195.200244,
          "velocity": 0.8188976377952756
        },
        {
          "duration": 0.133333499999992,
          "durationTicks": 48,
          "midi": 72,
          "name": "C5",
          "ticks": 70320,
          "time": 195.3335775,
          "velocity": 0.8188976377952756
        },
        {
          "duration": 0.13333350000002042,
          "durationTicks": 48,
          "midi": 70,
          "name": "A#4",
          "ticks": 70368,
          "time": 195.46691099999998,
          "velocity": 0.8188976377952756
        },
        {
          "duration": 0.133333499999992,
          "durationTicks": 48,
          "midi": 69,
          "name": "A4",
          "ticks": 70416,
          "time": 195.6002445,
          "velocity": 0.8188976377952756
        },
        {
          "duration": 0.1555557500000191,
          "durationTicks": 56,
          "midi": 70,
          "name": "A#4",
          "ticks": 70464,
          "time": 195.733578,
          "velocity": 0.8188976377952756
        },
        {
          "duration": 0.2666670000000124,
          "durationTicks": 96,
          "midi": 67,
          "name": "G4",
          "ticks": 70560,
          "time": 196.00024499999998,
          "velocity": 0.8188976377952756
        },
        {
          "duration": 0.03333337500001221,
          "durationTicks": 12,
          "midi": 77,
          "name": "F5",
          "ticks": 70656,
          "time": 196.266912,
          "velocity": 0.8188976377952756
        },
        {
          "duration": 0.2500003125000205,
          "durationTicks": 90,
          "midi": 79,
          "name": "G5",
          "ticks": 70662,
          "time": 196.28357868749998,
          "velocity": 0.8188976377952756
        },
        {
          "duration": 0.066666749999996,
          "durationTicks": 24,
          "midi": 74,
          "name": "D5",
          "ticks": 70800,
          "time": 196.6669125,
          "velocity": 0.8188976377952756
        },
        {
          "duration": 0.2666670000000124,
          "durationTicks": 96,
          "midi": 72,
          "name": "C5",
          "ticks": 70848,
          "time": 196.800246,
          "velocity": 0.8188976377952756
        },
        {
          "duration": 0.133333499999992,
          "durationTicks": 48,
          "midi": 70,
          "name": "A#4",
          "ticks": 70992,
          "time": 197.2002465,
          "velocity": 0.8188976377952756
        },
        {
          "duration": 0.03333337500001221,
          "durationTicks": 12,
          "midi": 70,
          "name": "A#4",
          "ticks": 71040,
          "time": 197.33357999999998,
          "velocity": 0.8188976377952756
        },
        {
          "duration": 0.24722253125000293,
          "durationTicks": 89,
          "midi": 72,
          "name": "C5",
          "ticks": 71047,
          "time": 197.35302446875,
          "velocity": 0.8188976377952756
        },
        {
          "duration": 0.266666999999984,
          "durationTicks": 96,
          "midi": 75,
          "name": "D#5",
          "ticks": 71136,
          "time": 197.600247,
          "velocity": 0.8188976377952756
        },
        {
          "duration": 0.2666670000000124,
          "durationTicks": 96,
          "midi": 74,
          "name": "D5",
          "ticks": 71232,
          "time": 197.86691399999998,
          "velocity": 0.8188976377952756
        },
        {
          "duration": 0.266666999999984,
          "durationTicks": 96,
          "midi": 67,
          "name": "G4",
          "ticks": 71328,
          "time": 198.133581,
          "velocity": 0.8188976377952756
        },
        {
          "duration": 0.03333337500001221,
          "durationTicks": 12,
          "midi": 77,
          "name": "F5",
          "ticks": 71424,
          "time": 198.40024799999998,
          "velocity": 0.8188976377952756
        },
        {
          "duration": 0.2500003124999921,
          "durationTicks": 90,
          "midi": 79,
          "name": "G5",
          "ticks": 71430,
          "time": 198.4169146875,
          "velocity": 0.8188976377952756
        },
        {
          "duration": 0.066666749999996,
          "durationTicks": 24,
          "midi": 74,
          "name": "D5",
          "ticks": 71568,
          "time": 198.80024849999998,
          "velocity": 0.8188976377952756
        },
        {
          "duration": 0.266666999999984,
          "durationTicks": 96,
          "midi": 72,
          "name": "C5",
          "ticks": 71616,
          "time": 198.933582,
          "velocity": 0.8188976377952756
        },
        {
          "duration": 0.13333350000002042,
          "durationTicks": 48,
          "midi": 69,
          "name": "A4",
          "ticks": 71760,
          "time": 199.33358249999998,
          "velocity": 0.8188976377952756
        },
        {
          "duration": 0.133333499999992,
          "durationTicks": 48,
          "midi": 72,
          "name": "C5",
          "ticks": 71808,
          "time": 199.466916,
          "velocity": 0.8188976377952756
        },
        {
          "duration": 0.13333350000002042,
          "durationTicks": 48,
          "midi": 70,
          "name": "A#4",
          "ticks": 71904,
          "time": 199.73358299999998,
          "velocity": 0.8188976377952756
        },
        {
          "duration": 0.133333499999992,
          "durationTicks": 48,
          "midi": 69,
          "name": "A4",
          "ticks": 71952,
          "time": 199.8669165,
          "velocity": 0.8188976377952756
        },
        {
          "duration": 0.266666999999984,
          "durationTicks": 96,
          "midi": 70,
          "name": "A#4",
          "ticks": 72000,
          "time": 200.00025,
          "velocity": 0.8188976377952756
        },
        {
          "duration": 0.2666670000000124,
          "durationTicks": 96,
          "midi": 67,
          "name": "G4",
          "ticks": 72096,
          "time": 200.26691699999998,
          "velocity": 0.8188976377952756
        },
        {
          "duration": 0.03333337500001221,
          "durationTicks": 12,
          "midi": 77,
          "name": "F5",
          "ticks": 72192,
          "time": 200.533584,
          "velocity": 0.8188976377952756
        },
        {
          "duration": 0.2500003125000205,
          "durationTicks": 90,
          "midi": 79,
          "name": "G5",
          "ticks": 72198,
          "time": 200.55025068749998,
          "velocity": 0.8188976377952756
        },
        {
          "duration": 0.066666749999996,
          "durationTicks": 24,
          "midi": 74,
          "name": "D5",
          "ticks": 72336,
          "time": 200.9335845,
          "velocity": 0.8188976377952756
        },
        {
          "duration": 0.2666670000000124,
          "durationTicks": 96,
          "midi": 72,
          "name": "C5",
          "ticks": 72384,
          "time": 201.066918,
          "velocity": 0.8188976377952756
        },
        {
          "duration": 0.04444449999999733,
          "durationTicks": 16,
          "midi": 73,
          "name": "C#5",
          "ticks": 72528,
          "time": 201.4669185,
          "velocity": 0.8188976377952756
        },
        {
          "duration": 0.04444449999999733,
          "durationTicks": 16,
          "midi": 73,
          "name": "C#5",
          "ticks": 72552,
          "time": 201.53358525,
          "velocity": 0.8188976377952756
        },
        {
          "duration": 0.13333350000002042,
          "durationTicks": 48,
          "midi": 74,
          "name": "D5",
          "ticks": 72576,
          "time": 201.60025199999998,
          "velocity": 0.8188976377952756
        },
        {
          "duration": 0.133333499999992,
          "durationTicks": 48,
          "midi": 78,
          "name": "F#5",
          "ticks": 72672,
          "time": 201.866919,
          "velocity": 0.8188976377952756
        },
        {
          "duration": 0.03333337500001221,
          "durationTicks": 12,
          "midi": 78,
          "name": "F#5",
          "ticks": 72768,
          "time": 202.13358599999998,
          "velocity": 0.8188976377952756
        },
        {
          "duration": 0.2500003124999921,
          "durationTicks": 90,
          "midi": 79,
          "name": "G5",
          "ticks": 72774,
          "time": 202.1502526875,
          "velocity": 0.8188976377952756
        },
        {
          "duration": 0.12765950000002135,
          "durationTicks": 48,
          "midi": 74,
          "name": "D5",
          "ticks": 79104,
          "time": 219.1325979583333,
          "velocity": 0.8188976377952756
        },
        {
          "duration": 0.13215850000000273,
          "durationTicks": 48,
          "midi": 78,
          "name": "F#5",
          "ticks": 79200,
          "time": 219.3879169583333,
          "velocity": 0.8188976377952756
        },
        {
          "duration": 0.03330889583330077,
          "durationTicks": 12,
          "midi": 78,
          "name": "F#5",
          "ticks": 79296,
          "time": 219.6522339583333,
          "velocity": 0.8188976377952756
        },
        {
          "duration": 0.2500003124999921,
          "durationTicks": 90,
          "midi": 79,
          "name": "G5",
          "ticks": 79302,
          "time": 219.66887616666662,
          "velocity": 0.8188976377952756
        }
      ],
      "endOfTrackTicks": 82491
    },
    {
      "channel": 4,
      "controlChanges": {
        "6": [
          {
            "number": 6,
            "ticks": 0,
            "time": 0,
            "value": 0.09448818897637795
          },
          {
            "number": 6,
            "ticks": 0,
            "time": 0,
            "value": 0.09448818897637795
          },
          {
            "number": 6,
            "ticks": 0,
            "time": 0,
            "value": 0.09448818897637795
          },
          {
            "number": 6,
            "ticks": 82466,
            "time": 228.45777604166662,
            "value": 0.09448818897637795
          },
          {
            "number": 6,
            "ticks": 82491,
            "time": 228.52722057291663,
            "value": 0.09448818897637795
          }
        ],
        "7": [
          {
            "number": 7,
            "ticks": 0,
            "time": 0,
            "value": 0.7874015748031497
          },
          {
            "number": 7,
            "ticks": 0,
            "time": 0,
            "value": 0.7874015748031497
          },
          {
            "number": 7,
            "ticks": 0,
            "time": 0,
            "value": 0.7874015748031497
          },
          {
            "number": 7,
            "ticks": 0,
            "time": 0,
            "value": 0.7874015748031497
          },
          {
            "number": 7,
            "ticks": 82466,
            "time": 228.45777604166662,
            "value": 0.7874015748031497
          },
          {
            "number": 7,
            "ticks": 82491,
            "time": 228.52722057291663,
            "value": 0.7874015748031497
          }
        ],
        "10": [
          {
            "number": 10,
            "ticks": 0,
            "time": 0,
            "value": 0.5039370078740157
          },
          {
            "number": 10,
            "ticks": 0,
            "time": 0,
            "value": 0.5039370078740157
          },
          {
            "number": 10,
            "ticks": 0,
            "time": 0,
            "value": 0.5039370078740157
          },
          {
            "number": 10,
            "ticks": 0,
            "time": 0,
            "value": 0.5039370078740157
          },
          {
            "number": 10,
            "ticks": 82466,
            "time": 228.45777604166662,
            "value": 0.5039370078740157
          },
          {
            "number": 10,
            "ticks": 82491,
            "time": 228.52722057291663,
            "value": 0.5039370078740157
          }
        ],
        "100": [
          {
            "number": 100,
            "ticks": 0,
            "time": 0,
            "value": 0
          },
          {
            "number": 100,
            "ticks": 0,
            "time": 0,
            "value": 0
          },
          {
            "number": 100,
            "ticks": 0,
            "time": 0,
            "value": 0
          },
          {
            "number": 100,
            "ticks": 82466,
            "time": 228.45777604166662,
            "value": 0
          },
          {
            "number": 100,
            "ticks": 82491,
            "time": 228.52722057291663,
            "value": 0
          }
        ],
        "101": [
          {
            "number": 101,
            "ticks": 0,
            "time": 0,
            "value": 0
          },
          {
            "number": 101,
            "ticks": 0,
            "time": 0,
            "value": 0
          },
          {
            "number": 101,
            "ticks": 0,
            "time": 0,
            "value": 0
          },
          {
            "number": 101,
            "ticks": 82466,
            "time": 228.45777604166662,
            "value": 0
          },
          {
            "number": 101,
            "ticks": 82491,
            "time": 228.52722057291663,
            "value": 0
          }
        ]
      },
      "pitchBends": [
        {
          "ticks": 0,
          "time": 0,
          "value": 0
        },
        {
          "ticks": 0,
          "time": 0,
          "value": 0
        },
        {
          "ticks": 0,
          "time": 0,
          "value": 0
        },
        {
          "ticks": 0,
          "time": 0,
          "value": 0
        },
        {
          "ticks": 82466,
          "time": 228.45777604166662,
          "value": 0
        },
        {
          "ticks": 82491,
          "time": 228.52722057291663,
          "value": 0
        }
      ],
      "instrument": {
        "family": "piano",
        "number": 0,
        "name": "acoustic grand piano"
      },
      "name": "MIKU (H)",
      "notes": [
        {
          "duration": 0.2666669999999982,
          "durationTicks": 96,
          "midi": 69,
          "name": "A4",
          "ticks": 12384,
          "time": 34.400043,
          "velocity": 0.4015748031496063
        },
        {
          "duration": 0.2666669999999982,
          "durationTicks": 96,
          "midi": 66,
          "name": "F#4",
          "ticks": 12384,
          "time": 34.400043,
          "velocity": 0.4015748031496063
        },
        {
          "duration": 0.2666669999999982,
          "durationTicks": 96,
          "midi": 78,
          "name": "F#5",
          "ticks": 12384,
          "time": 34.400043,
          "velocity": 0.4015748031496063
        },
        {
          "duration": 0.1333335000000062,
          "durationTicks": 48,
          "midi": 68,
          "name": "G#4",
          "ticks": 12480,
          "time": 34.666709999999995,
          "velocity": 0.4015748031496063
        },
        {
          "duration": 0.1333335000000062,
          "durationTicks": 48,
          "midi": 73,
          "name": "C#5",
          "ticks": 12480,
          "time": 34.666709999999995,
          "velocity": 0.4015748031496063
        },
        {
          "duration": 0.1333335000000062,
          "durationTicks": 48,
          "midi": 61,
          "name": "C#4",
          "ticks": 12480,
          "time": 34.666709999999995,
          "velocity": 0.4015748031496063
        },
        {
          "duration": 0.2666669999999982,
          "durationTicks": 96,
          "midi": 76,
          "name": "E5",
          "ticks": 12576,
          "time": 34.933377,
          "velocity": 0.4015748031496063
        },
        {
          "duration": 0.2666669999999982,
          "durationTicks": 96,
          "midi": 67,
          "name": "G4",
          "ticks": 12576,
          "time": 34.933377,
          "velocity": 0.4015748031496063
        },
        {
          "duration": 0.2666669999999982,
          "durationTicks": 96,
          "midi": 64,
          "name": "E4",
          "ticks": 12576,
          "time": 34.933377,
          "velocity": 0.4015748031496063
        },
        {
          "duration": 0.1333334999999991,
          "durationTicks": 48,
          "midi": 71,
          "name": "B4",
          "ticks": 12672,
          "time": 35.200044,
          "velocity": 0.4015748031496063
        },
        {
          "duration": 0.1333334999999991,
          "durationTicks": 48,
          "midi": 63,
          "name": "D#4",
          "ticks": 12672,
          "time": 35.200044,
          "velocity": 0.4015748031496063
        },
        {
          "duration": 0.1333334999999991,
          "durationTicks": 48,
          "midi": 59,
          "name": "B3",
          "ticks": 12672,
          "time": 35.200044,
          "velocity": 0.4015748031496063
        },
        {
          "duration": 0.2666670000000053,
          "durationTicks": 96,
          "midi": 58,
          "name": "A#3",
          "ticks": 12768,
          "time": 35.466711,
          "velocity": 0.4015748031496063
        },
        {
          "duration": 0.2666669999999982,
          "durationTicks": 96,
          "midi": 65,
          "name": "F4",
          "ticks": 12864,
          "time": 35.733378,
          "velocity": 0.4015748031496063
        },
        {
          "duration": 0.1333334999999991,
          "durationTicks": 48,
          "midi": 64,
          "name": "E4",
          "ticks": 12960,
          "time": 36.000045,
          "velocity": 0.4015748031496063
        },
        {
          "duration": 0.04444449999999733,
          "durationTicks": 16,
          "midi": 63,
          "name": "D#4",
          "ticks": 13008,
          "time": 36.1333785,
          "velocity": 0.33070866141732286
        },
        {
          "duration": 0.04444450000000444,
          "durationTicks": 16,
          "midi": 62,
          "name": "D4",
          "ticks": 13024,
          "time": 36.177823,
          "velocity": 0.2992125984251969
        },
        {
          "duration": 0.04444449999999733,
          "durationTicks": 16,
          "midi": 61,
          "name": "C#4",
          "ticks": 13040,
          "time": 36.2222675,
          "velocity": 0.2677165354330709
        },
        {
          "duration": 0.04444449999999733,
          "durationTicks": 16,
          "midi": 60,
          "name": "C4",
          "ticks": 13056,
          "time": 36.266712,
          "velocity": 0.2440944881889764
        },
        {
          "duration": 0.04444450000000444,
          "durationTicks": 16,
          "midi": 59,
          "name": "B3",
          "ticks": 13072,
          "time": 36.311156499999996,
          "velocity": 0.2125984251968504
        },
        {
          "duration": 0.04444449999999733,
          "durationTicks": 16,
          "midi": 58,
          "name": "A#3",
          "ticks": 13088,
          "time": 36.355601,
          "velocity": 0.18110236220472442
        },
        {
          "duration": 0.04444449999999733,
          "durationTicks": 16,
          "midi": 57,
          "name": "A3",
          "ticks": 13104,
          "time": 36.4000455,
          "velocity": 0.14960629921259844
        },
        {
          "duration": 0.04444450000000444,
          "durationTicks": 16,
          "midi": 56,
          "name": "G#3",
          "ticks": 13120,
          "time": 36.444489999999995,
          "velocity": 0.11811023622047244
        },
        {
          "duration": 0.04444449999999733,
          "durationTicks": 16,
          "midi": 55,
          "name": "G3",
          "ticks": 13136,
          "time": 36.4889345,
          "velocity": 0.09448818897637795
        },
        {
          "duration": 0.1333334999999991,
          "durationTicks": 48,
          "midi": 61,
          "name": "C#4",
          "ticks": 15264,
          "time": 42.400053,
          "velocity": 0.6535433070866141
        },
        {
          "duration": 0.1333334999999991,
          "durationTicks": 48,
          "midi": 54,
          "name": "F#3",
          "ticks": 15264,
          "time": 42.400053,
          "velocity": 0.6535433070866141
        },
        {
          "duration": 0.066666749999996,
          "durationTicks": 24,
          "midi": 61,
          "name": "C#4",
          "ticks": 15312,
          "time": 42.5333865,
          "velocity": 0.6535433070866141
        },
        {
          "duration": 0.066666749999996,
          "durationTicks": 24,
          "midi": 54,
          "name": "F#3",
          "ticks": 15312,
          "time": 42.5333865,
          "velocity": 0.6535433070866141
        },
        {
          "duration": 0.0666667500000031,
          "durationTicks": 24,
          "midi": 61,
          "name": "C#4",
          "ticks": 15360,
          "time": 42.66672,
          "velocity": 0.6535433070866141
        },
        {
          "duration": 0.0666667500000031,
          "durationTicks": 24,
          "midi": 54,
          "name": "F#3",
          "ticks": 15360,
          "time": 42.66672,
          "velocity": 0.6535433070866141
        },
        {
          "duration": 0.1333334999999991,
          "durationTicks": 48,
          "midi": 61,
          "name": "C#4",
          "ticks": 15408,
          "time": 42.8000535,
          "velocity": 0.6535433070866141
        },
        {
          "duration": 0.1333334999999991,
          "durationTicks": 48,
          "midi": 54,
          "name": "F#3",
          "ticks": 15408,
          "time": 42.8000535,
          "velocity": 0.6535433070866141
        },
        {
          "duration": 0.0666667500000031,
          "durationTicks": 24,
          "midi": 61,
          "name": "C#4",
          "ticks": 15456,
          "time": 42.933386999999996,
          "velocity": 0.6535433070866141
        },
        {
          "duration": 0.0666667500000031,
          "durationTicks": 24,
          "midi": 54,
          "name": "F#3",
          "ticks": 15456,
          "time": 42.933386999999996,
          "velocity": 0.6535433070866141
        },
        {
          "duration": 0.0666667500000031,
          "durationTicks": 24,
          "midi": 61,
          "name": "C#4",
          "ticks": 15504,
          "time": 43.066720499999995,
          "velocity": 0.6535433070866141
        },
        {
          "duration": 0.0666667500000031,
          "durationTicks": 24,
          "midi": 54,
          "name": "F#3",
          "ticks": 15504,
          "time": 43.066720499999995,
          "velocity": 0.6535433070866141
        },
        {
          "duration": 0.1333335000000062,
          "durationTicks": 48,
          "midi": 62,
          "name": "D4",
          "ticks": 15552,
          "time": 43.200053999999994,
          "velocity": 0.6535433070866141
        },
        {
          "duration": 0.1333335000000062,
          "durationTicks": 48,
          "midi": 54,
          "name": "F#3",
          "ticks": 15552,
          "time": 43.200053999999994,
          "velocity": 0.6535433070866141
        },
        {
          "duration": 0.1333334999999991,
          "durationTicks": 48,
          "midi": 62,
          "name": "D4",
          "ticks": 15648,
          "time": 43.466721,
          "velocity": 0.6535433070866141
        },
        {
          "duration": 0.1333334999999991,
          "durationTicks": 48,
          "midi": 54,
          "name": "F#3",
          "ticks": 15648,
          "time": 43.466721,
          "velocity": 0.6535433070866141
        },
        {
          "duration": 0.1333334999999991,
          "durationTicks": 48,
          "midi": 63,
          "name": "D#4",
          "ticks": 15744,
          "time": 43.733388,
          "velocity": 0.6535433070866141
        },
        {
          "duration": 0.1333334999999991,
          "durationTicks": 48,
          "midi": 57,
          "name": "A3",
          "ticks": 15744,
          "time": 43.733388,
          "velocity": 0.6535433070866141
        },
        {
          "duration": 0.0666667500000031,
          "durationTicks": 24,
          "midi": 63,
          "name": "D#4",
          "ticks": 15792,
          "time": 43.8667215,
          "velocity": 0.6535433070866141
        },
        {
          "duration": 0.0666667500000031,
          "durationTicks": 24,
          "midi": 57,
          "name": "A3",
          "ticks": 15792,
          "time": 43.8667215,
          "velocity": 0.6535433070866141
        },
        {
          "duration": 0.0666667500000031,
          "durationTicks": 24,
          "midi": 63,
          "name": "D#4",
          "ticks": 15840,
          "time": 44.000054999999996,
          "velocity": 0.6535433070866141
        },
        {
          "duration": 0.0666667500000031,
          "durationTicks": 24,
          "midi": 57,
          "name": "A3",
          "ticks": 15840,
          "time": 44.000054999999996,
          "velocity": 0.6535433070866141
        },
        {
          "duration": 0.1333335000000062,
          "durationTicks": 48,
          "midi": 63,
          "name": "D#4",
          "ticks": 15888,
          "time": 44.133388499999995,
          "velocity": 0.6535433070866141
        },
        {
          "duration": 0.1333335000000062,
          "durationTicks": 48,
          "midi": 57,
          "name": "A3",
          "ticks": 15888,
          "time": 44.133388499999995,
          "velocity": 0.6535433070866141
        },
        {
          "duration": 0.066666749999996,
          "durationTicks": 24,
          "midi": 63,
          "name": "D#4",
          "ticks": 15936,
          "time": 44.266722,
          "velocity": 0.6535433070866141
        },
        {
          "duration": 0.066666749999996,
          "durationTicks": 24,
          "midi": 57,
          "name": "A3",
          "ticks": 15936,
          "time": 44.266722,
          "velocity": 0.6535433070866141
        },
        {
          "duration": 0.066666749999996,
          "durationTicks": 24,
          "midi": 63,
          "name": "D#4",
          "ticks": 15984,
          "time": 44.4000555,
          "velocity": 0.6535433070866141
        },
        {
          "duration": 0.066666749999996,
          "durationTicks": 24,
          "midi": 57,
          "name": "A3",
          "ticks": 15984,
          "time": 44.4000555,
          "velocity": 0.6535433070866141
        },
        {
          "duration": 0.066666749999996,
          "durationTicks": 24,
          "midi": 57,
          "name": "A3",
          "ticks": 16032,
          "time": 44.533389,
          "velocity": 0.6535433070866141
        },
        {
          "duration": 0.066666749999996,
          "durationTicks": 24,
          "midi": 65,
          "name": "F4",
          "ticks": 16032,
          "time": 44.533389,
          "velocity": 0.6535433070866141
        },
        {
          "duration": 0.066666749999996,
          "durationTicks": 24,
          "midi": 57,
          "name": "A3",
          "ticks": 16080,
          "time": 44.6667225,
          "velocity": 0.6535433070866141
        },
        {
          "duration": 0.066666749999996,
          "durationTicks": 24,
          "midi": 65,
          "name": "F4",
          "ticks": 16080,
          "time": 44.6667225,
          "velocity": 0.6535433070866141
        },
        {
          "duration": 0.0666667500000031,
          "durationTicks": 24,
          "midi": 65,
          "name": "F4",
          "ticks": 16128,
          "time": 44.800056,
          "velocity": 0.6535433070866141
        },
        {
          "duration": 0.0666667500000031,
          "durationTicks": 24,
          "midi": 57,
          "name": "A3",
          "ticks": 16128,
          "time": 44.800056,
          "velocity": 0.6535433070866141
        },
        {
          "duration": 0.0666667500000031,
          "durationTicks": 24,
          "midi": 65,
          "name": "F4",
          "ticks": 16176,
          "time": 44.9333895,
          "velocity": 0.6535433070866141
        },
        {
          "duration": 0.0666667500000031,
          "durationTicks": 24,
          "midi": 57,
          "name": "A3",
          "ticks": 16176,
          "time": 44.9333895,
          "velocity": 0.6535433070866141
        },
        {
          "duration": 0.01388890625000272,
          "durationTicks": 5,
          "midi": 64,
          "name": "E4",
          "ticks": 16224,
          "time": 45.066722999999996,
          "velocity": 0.6850393700787402
        },
        {
          "duration": 0.01388890625000272,
          "durationTicks": 5,
          "midi": 57,
          "name": "A3",
          "ticks": 16224,
          "time": 45.066722999999996,
          "velocity": 0.6850393700787402
        },
        {
          "duration": 0.013888906249995614,
          "durationTicks": 5,
          "midi": 56,
          "name": "G#3",
          "ticks": 16229,
          "time": 45.08061190625,
          "velocity": 0.6456692913385826
        },
        {
          "duration": 0.013888906249995614,
          "durationTicks": 5,
          "midi": 63,
          "name": "D#4",
          "ticks": 16229,
          "time": 45.08061190625,
          "velocity": 0.6456692913385826
        },
        {
          "duration": 0.011111125000006439,
          "durationTicks": 4,
          "midi": 62,
          "name": "D4",
          "ticks": 16234,
          "time": 45.094500812499994,
          "velocity": 0.6062992125984252
        },
        {
          "duration": 0.011111125000006439,
          "durationTicks": 4,
          "midi": 55,
          "name": "G3",
          "ticks": 16234,
          "time": 45.094500812499994,
          "velocity": 0.6062992125984252
        },
        {
          "duration": 0.013888906249995614,
          "durationTicks": 5,
          "midi": 61,
          "name": "C#4",
          "ticks": 16238,
          "time": 45.1056119375,
          "velocity": 0.5748031496062992
        },
        {
          "duration": 0.013888906249995614,
          "durationTicks": 5,
          "midi": 54,
          "name": "F#3",
          "ticks": 16238,
          "time": 45.1056119375,
          "velocity": 0.5748031496062992
        },
        {
          "duration": 0.01388890625000272,
          "durationTicks": 5,
          "midi": 60,
          "name": "C4",
          "ticks": 16243,
          "time": 45.11950084375,
          "velocity": 0.5354330708661418
        },
        {
          "duration": 0.01388890625000272,
          "durationTicks": 5,
          "midi": 53,
          "name": "F3",
          "ticks": 16243,
          "time": 45.11950084375,
          "velocity": 0.5354330708661418
        },
        {
          "duration": 0.01388890625000272,
          "durationTicks": 5,
          "midi": 52,
          "name": "E3",
          "ticks": 16248,
          "time": 45.13338975,
          "velocity": 0.49606299212598426
        },
        {
          "duration": 0.01388890625000272,
          "durationTicks": 5,
          "midi": 59,
          "name": "B3",
          "ticks": 16248,
          "time": 45.13338975,
          "velocity": 0.49606299212598426
        },
        {
          "duration": 0.013888906249995614,
          "durationTicks": 5,
          "midi": 51,
          "name": "D#3",
          "ticks": 16253,
          "time": 45.14727865625,
          "velocity": 0.4566929133858268
        },
        {
          "duration": 0.013888906249995614,
          "durationTicks": 5,
          "midi": 58,
          "name": "A#3",
          "ticks": 16253,
          "time": 45.14727865625,
          "velocity": 0.4566929133858268
        },
        {
          "duration": 0.011111124999999333,
          "durationTicks": 4,
          "midi": 50,
          "name": "D3",
          "ticks": 16258,
          "time": 45.1611675625,
          "velocity": 0.41732283464566927
        },
        {
          "duration": 0.011111124999999333,
          "durationTicks": 4,
          "midi": 57,
          "name": "A3",
          "ticks": 16258,
          "time": 45.1611675625,
          "velocity": 0.41732283464566927
        },
        {
          "duration": 0.013888906249995614,
          "durationTicks": 5,
          "midi": 49,
          "name": "C#3",
          "ticks": 16262,
          "time": 45.1722786875,
          "velocity": 0.3858267716535433
        },
        {
          "duration": 0.013888906249995614,
          "durationTicks": 5,
          "midi": 56,
          "name": "G#3",
          "ticks": 16262,
          "time": 45.1722786875,
          "velocity": 0.3858267716535433
        },
        {
          "duration": 0.01388890625000272,
          "durationTicks": 5,
          "midi": 48,
          "name": "C3",
          "ticks": 16267,
          "time": 45.18616759374999,
          "velocity": 0.3464566929133858
        },
        {
          "duration": 0.01388890625000272,
          "durationTicks": 5,
          "midi": 55,
          "name": "G3",
          "ticks": 16267,
          "time": 45.18616759374999,
          "velocity": 0.3464566929133858
        },
        {
          "duration": 0.0666667500000031,
          "durationTicks": 24,
          "midi": 69,
          "name": "A4",
          "ticks": 17808,
          "time": 49.466728499999995,
          "velocity": 0.7952755905511811
        },
        {
          "duration": 0.0666667500000031,
          "durationTicks": 24,
          "midi": 69,
          "name": "A4",
          "ticks": 17856,
          "time": 49.600061999999994,
          "velocity": 0.7952755905511811
        },
        {
          "duration": 0.066666749999996,
          "durationTicks": 24,
          "midi": 69,
          "name": "A4",
          "ticks": 17952,
          "time": 49.866729,
          "velocity": 0.7952755905511811
        },
        {
          "duration": 0.066666749999996,
          "durationTicks": 24,
          "midi": 69,
          "name": "A4",
          "ticks": 18000,
          "time": 50.0000625,
          "velocity": 0.7952755905511811
        },
        {
          "duration": 0.2666669999999982,
          "durationTicks": 96,
          "midi": 69,
          "name": "A4",
          "ticks": 18096,
          "time": 50.2667295,
          "velocity": 0.7952755905511811
        },
        {
          "duration": 0.0666667500000031,
          "durationTicks": 24,
          "midi": 68,
          "name": "G#4",
          "ticks": 18192,
          "time": 50.533396499999995,
          "velocity": 0.7952755905511811
        },
        {
          "duration": 0.066666749999996,
          "durationTicks": 24,
          "midi": 69,
          "name": "A4",
          "ticks": 18240,
          "time": 50.66673,
          "velocity": 0.7952755905511811
        },
        {
          "duration": 0.066666749999996,
          "durationTicks": 24,
          "midi": 68,
          "name": "G#4",
          "ticks": 18288,
          "time": 50.8000635,
          "velocity": 0.7952755905511811
        },
        {
          "duration": 0.066666749999996,
          "durationTicks": 24,
          "midi": 69,
          "name": "A4",
          "ticks": 18336,
          "time": 50.933397,
          "velocity": 0.7952755905511811
        },
        {
          "duration": 0.2666669999999982,
          "durationTicks": 96,
          "midi": 69,
          "name": "A4",
          "ticks": 18528,
          "time": 51.466730999999996,
          "velocity": 0.7952755905511811
        },
        {
          "duration": 0.033333374999998,
          "durationTicks": 12,
          "midi": 68,
          "name": "G#4",
          "ticks": 18672,
          "time": 51.8667315,
          "velocity": 0.7952755905511811
        },
        {
          "duration": 0.033333374999998,
          "durationTicks": 12,
          "midi": 68,
          "name": "G#4",
          "ticks": 18696,
          "time": 51.933398249999996,
          "velocity": 0.7952755905511811
        },
        {
          "duration": 0.2666669999999982,
          "durationTicks": 96,
          "midi": 69,
          "name": "A4",
          "ticks": 18720,
          "time": 52.000065,
          "velocity": 0.7952755905511811
        },
        {
          "duration": 0.1333334999999991,
          "durationTicks": 48,
          "midi": 68,
          "name": "G#4",
          "ticks": 18864,
          "time": 52.4000655,
          "velocity": 0.7952755905511811
        },
        {
          "duration": 0.1333334999999991,
          "durationTicks": 48,
          "midi": 69,
          "name": "A4",
          "ticks": 18912,
          "time": 52.533398999999996,
          "velocity": 0.7952755905511811
        },
        {
          "duration": 0.1333335000000062,
          "durationTicks": 48,
          "midi": 68,
          "name": "G#4",
          "ticks": 18960,
          "time": 52.666732499999995,
          "velocity": 0.7952755905511811
        },
        {
          "duration": 0.1333334999999991,
          "durationTicks": 48,
          "midi": 69,
          "name": "A4",
          "ticks": 19008,
          "time": 52.800066,
          "velocity": 0.7952755905511811
        },
        {
          "duration": 0.1333334999999991,
          "durationTicks": 48,
          "midi": 68,
          "name": "G#4",
          "ticks": 19056,
          "time": 52.9333995,
          "velocity": 0.7952755905511811
        },
        {
          "duration": 0.2666669999999982,
          "durationTicks": 96,
          "midi": 69,
          "name": "A4",
          "ticks": 19104,
          "time": 53.066733,
          "velocity": 0.7952755905511811
        },
        {
          "duration": 0.033333374999998,
          "durationTicks": 12,
          "midi": 73,
          "name": "C#5",
          "ticks": 19200,
          "time": 53.3334,
          "velocity": 0.7952755905511811
        },
        {
          "duration": 0.2333336250000002,
          "durationTicks": 84,
          "midi": 76,
          "name": "E5",
          "ticks": 19212,
          "time": 53.366733374999995,
          "velocity": 0.7952755905511811
        },
        {
          "duration": 0.2666669999999982,
          "durationTicks": 96,
          "midi": 66,
          "name": "F#4",
          "ticks": 19296,
          "time": 53.600066999999996,
          "velocity": 0.7952755905511811
        },
        {
          "duration": 0.033333375000005105,
          "durationTicks": 12,
          "midi": 67,
          "name": "G4",
          "ticks": 19392,
          "time": 53.866733999999994,
          "velocity": 0.7952755905511811
        },
        {
          "duration": 0.2333336250000002,
          "durationTicks": 84,
          "midi": 68,
          "name": "G#4",
          "ticks": 19404,
          "time": 53.900067375,
          "velocity": 0.7952755905511811
        },
        {
          "duration": 0.2666669999999982,
          "durationTicks": 96,
          "midi": 61,
          "name": "C#4",
          "ticks": 19488,
          "time": 54.133401,
          "velocity": 0.7952755905511811
        },
        {
          "duration": 0.1333334999999991,
          "durationTicks": 48,
          "midi": 65,
          "name": "F4",
          "ticks": 19584,
          "time": 54.400068,
          "velocity": 0.7952755905511811
        },
        {
          "duration": 0.1333334999999991,
          "durationTicks": 48,
          "midi": 66,
          "name": "F#4",
          "ticks": 19632,
          "time": 54.5334015,
          "velocity": 0.7952755905511811
        },
        {
          "duration": 0.2666670000000053,
          "durationTicks": 96,
          "midi": 69,
          "name": "A4",
          "ticks": 19680,
          "time": 54.666734999999996,
          "velocity": 0.7952755905511811
        },
        {
          "duration": 0.2666669999999982,
          "durationTicks": 96,
          "midi": 69,
          "name": "A4",
          "ticks": 19776,
          "time": 54.933402,
          "velocity": 0.7952755905511811
        },
        {
          "duration": 0.033333374999998,
          "durationTicks": 12,
          "midi": 67,
          "name": "G4",
          "ticks": 19872,
          "time": 55.200069,
          "velocity": 0.7952755905511811
        },
        {
          "duration": 0.2333336250000002,
          "durationTicks": 84,
          "midi": 68,
          "name": "G#4",
          "ticks": 19884,
          "time": 55.233402375,
          "velocity": 0.7952755905511811
        },
        {
          "duration": 0.2666669999999982,
          "durationTicks": 96,
          "midi": 66,
          "name": "F#4",
          "ticks": 19968,
          "time": 55.466736,
          "velocity": 0.7952755905511811
        },
        {
          "duration": 0.1333334999999991,
          "durationTicks": 48,
          "midi": 66,
          "name": "F#4",
          "ticks": 20064,
          "time": 55.733402999999996,
          "velocity": 0.7952755905511811
        },
        {
          "duration": 0.1333334999999991,
          "durationTicks": 48,
          "midi": 78,
          "name": "F#5",
          "ticks": 20112,
          "time": 55.866736499999995,
          "velocity": 0.7952755905511811
        },
        {
          "duration": 0.066666749999996,
          "durationTicks": 24,
          "midi": 61,
          "name": "C#4",
          "ticks": 20208,
          "time": 56.1334035,
          "velocity": 0.7952755905511811
        },
        {
          "duration": 0.0666667500000031,
          "durationTicks": 24,
          "midi": 63,
          "name": "D#4",
          "ticks": 20232,
          "time": 56.200070249999996,
          "velocity": 0.7952755905511811
        },
        {
          "duration": 0.033333374999998,
          "durationTicks": 12,
          "midi": 65,
          "name": "F4",
          "ticks": 20256,
          "time": 56.266737,
          "velocity": 0.7952755905511811
        },
        {
          "duration": 0.033333375000005105,
          "durationTicks": 12,
          "midi": 65,
          "name": "F4",
          "ticks": 20280,
          "time": 56.333403749999995,
          "velocity": 0.7952755905511811
        },
        {
          "duration": 0.033333374999998,
          "durationTicks": 12,
          "midi": 65,
          "name": "F4",
          "ticks": 20304,
          "time": 56.4000705,
          "velocity": 0.7952755905511811
        },
        {
          "duration": 0.033333375000005105,
          "durationTicks": 12,
          "midi": 65,
          "name": "F4",
          "ticks": 20328,
          "time": 56.466737249999994,
          "velocity": 0.7952755905511811
        },
        {
          "duration": 0.0666667500000031,
          "durationTicks": 24,
          "midi": 73,
          "name": "C#5",
          "ticks": 20352,
          "time": 56.533404,
          "velocity": 0.7952755905511811
        },
        {
          "duration": 0.1333334999999991,
          "durationTicks": 48,
          "midi": 65,
          "name": "F4",
          "ticks": 20400,
          "time": 56.666737499999996,
          "velocity": 0.7952755905511811
        },
        {
          "duration": 0.033333375000005105,
          "durationTicks": 12,
          "midi": 66,
          "name": "F#4",
          "ticks": 20448,
          "time": 56.800070999999996,
          "velocity": 0.7952755905511811
        },
        {
          "duration": 0.033333374999998,
          "durationTicks": 12,
          "midi": 66,
          "name": "F#4",
          "ticks": 20472,
          "time": 56.86673775,
          "velocity": 0.7952755905511811
        },
        {
          "duration": 0.033333375000005105,
          "durationTicks": 12,
          "midi": 66,
          "name": "F#4",
          "ticks": 20496,
          "time": 56.933404499999995,
          "velocity": 0.7952755905511811
        },
        {
          "duration": 0.033333374999998,
          "durationTicks": 12,
          "midi": 66,
          "name": "F#4",
          "ticks": 20520,
          "time": 57.00007125,
          "velocity": 0.7952755905511811
        },
        {
          "duration": 0.1333334999999991,
          "durationTicks": 48,
          "midi": 73,
          "name": "C#5",
          "ticks": 20544,
          "time": 57.066738,
          "velocity": 0.7952755905511811
        },
        {
          "duration": 0.0666667500000031,
          "durationTicks": 24,
          "midi": 66,
          "name": "F#4",
          "ticks": 20616,
          "time": 57.266738249999996,
          "velocity": 0.7952755905511811
        },
        {
          "duration": 0.033333374999998,
          "durationTicks": 12,
          "midi": 69,
          "name": "A4",
          "ticks": 20640,
          "time": 57.333405,
          "velocity": 0.7952755905511811
        },
        {
          "duration": 0.033333375000005105,
          "durationTicks": 12,
          "midi": 69,
          "name": "A4",
          "ticks": 20664,
          "time": 57.400071749999995,
          "velocity": 0.7952755905511811
        },
        {
          "duration": 0.033333374999998,
          "durationTicks": 12,
          "midi": 69,
          "name": "A4",
          "ticks": 20688,
          "time": 57.4667385,
          "velocity": 0.7952755905511811
        },
        {
          "duration": 0.033333375000005105,
          "durationTicks": 12,
          "midi": 69,
          "name": "A4",
          "ticks": 20712,
          "time": 57.533405249999994,
          "velocity": 0.7952755905511811
        },
        {
          "duration": 0.1333334999999991,
          "durationTicks": 48,
          "midi": 73,
          "name": "C#5",
          "ticks": 20736,
          "time": 57.600072,
          "velocity": 0.7952755905511811
        },
        {
          "duration": 0.1333334999999991,
          "durationTicks": 48,
          "midi": 70,
          "name": "A#4",
          "ticks": 20784,
          "time": 57.733405499999996,
          "velocity": 0.7952755905511811
        },
        {
          "duration": 0.1333334999999991,
          "durationTicks": 48,
          "midi": 71,
          "name": "B4",
          "ticks": 20832,
          "time": 57.866738999999995,
          "velocity": 0.7952755905511811
        },
        {
          "duration": 0.1333334999999991,
          "durationTicks": 48,
          "midi": 70,
          "name": "A#4",
          "ticks": 20880,
          "time": 58.000072499999995,
          "velocity": 0.7952755905511811
        },
        {
          "duration": 0.1333335000000062,
          "durationTicks": 48,
          "midi": 69,
          "name": "A4",
          "ticks": 20928,
          "time": 58.133405999999994,
          "velocity": 0.7952755905511811
        },
        {
          "duration": 0.1333334999999991,
          "durationTicks": 48,
          "midi": 68,
          "name": "G#4",
          "ticks": 20976,
          "time": 58.2667395,
          "velocity": 0.7952755905511811
        },
        {
          "duration": 0.1333334999999991,
          "durationTicks": 48,
          "midi": 68,
          "name": "G#4",
          "ticks": 21024,
          "time": 58.400073,
          "velocity": 0.7952755905511811
        },
        {
          "duration": 0.1333334999999991,
          "durationTicks": 48,
          "midi": 67,
          "name": "G4",
          "ticks": 21072,
          "time": 58.5334065,
          "velocity": 0.7952755905511811
        },
        {
          "duration": 0.1333334999999991,
          "durationTicks": 48,
          "midi": 66,
          "name": "F#4",
          "ticks": 21120,
          "time": 58.66674,
          "velocity": 0.7952755905511811
        },
        {
          "duration": 0.1333334999999991,
          "durationTicks": 48,
          "midi": 65,
          "name": "F4",
          "ticks": 21168,
          "time": 58.800073499999996,
          "velocity": 0.7952755905511811
        },
        {
          "duration": 0.1333334999999991,
          "durationTicks": 48,
          "midi": 66,
          "name": "F#4",
          "ticks": 21216,
          "time": 58.933406999999995,
          "velocity": 0.7952755905511811
        },
        {
          "duration": 0.1333335000000062,
          "durationTicks": 48,
          "midi": 66,
          "name": "F#4",
          "ticks": 21264,
          "time": 59.066740499999995,
          "velocity": 0.7952755905511811
        },
        {
          "duration": 0.1333334999999991,
          "durationTicks": 48,
          "midi": 66,
          "name": "F#4",
          "ticks": 21312,
          "time": 59.200074,
          "velocity": 0.7952755905511811
        },
        {
          "duration": 0.1333334999999991,
          "durationTicks": 48,
          "midi": 66,
          "name": "F#4",
          "ticks": 21360,
          "time": 59.3334075,
          "velocity": 0.7952755905511811
        },
        {
          "duration": 0.1333334999999991,
          "durationTicks": 48,
          "midi": 65,
          "name": "F4",
          "ticks": 21408,
          "time": 59.466741,
          "velocity": 0.7952755905511811
        },
        {
          "duration": 0.2666669999999982,
          "durationTicks": 96,
          "midi": 61,
          "name": "C#4",
          "ticks": 21504,
          "time": 59.733408,
          "velocity": 0.7952755905511811
        },
        {
          "duration": 0.2666669999999982,
          "durationTicks": 96,
          "midi": 73,
          "name": "C#5",
          "ticks": 21600,
          "time": 60.000074999999995,
          "velocity": 0.7952755905511811
        },
        {
          "duration": 0.066666749999996,
          "durationTicks": 24,
          "midi": 69,
          "name": "A4",
          "ticks": 21744,
          "time": 60.4000755,
          "velocity": 0.7952755905511811
        },
        {
          "duration": 0.2666669999999982,
          "durationTicks": 96,
          "midi": 68,
          "name": "G#4",
          "ticks": 21792,
          "time": 60.533409,
          "velocity": 0.7952755905511811
        },
        {
          "duration": 0.1333334999999991,
          "durationTicks": 48,
          "midi": 65,
          "name": "F4",
          "ticks": 21936,
          "time": 60.933409499999996,
          "velocity": 0.7952755905511811
        },
        {
          "duration": 0.033333375000005105,
          "durationTicks": 12,
          "midi": 66,
          "name": "F#4",
          "ticks": 21984,
          "time": 61.066742999999995,
          "velocity": 0.7952755905511811
        },
        {
          "duration": 0.24444474999999954,
          "durationTicks": 88,
          "midi": 68,
          "name": "G#4",
          "ticks": 21991,
          "time": 61.08618746875,
          "velocity": 0.7952755905511811
        },
        {
          "duration": 0.2666669999999982,
          "durationTicks": 96,
          "midi": 71,
          "name": "B4",
          "ticks": 22080,
          "time": 61.33341,
          "velocity": 0.7952755905511811
        },
        {
          "duration": 0.2666669999999982,
          "durationTicks": 96,
          "midi": 69,
          "name": "A4",
          "ticks": 22176,
          "time": 61.600077,
          "velocity": 0.7952755905511811
        },
        {
          "duration": 0.2694447812499945,
          "durationTicks": 97,
          "midi": 61,
          "name": "C#4",
          "ticks": 22272,
          "time": 61.866744,
          "velocity": 0.7952755905511811
        },
        {
          "duration": 0.2666669999999982,
          "durationTicks": 96,
          "midi": 73,
          "name": "C#5",
          "ticks": 22368,
          "time": 62.133410999999995,
          "velocity": 0.7952755905511811
        },
        {
          "duration": 0.066666749999996,
          "durationTicks": 24,
          "midi": 69,
          "name": "A4",
          "ticks": 22512,
          "time": 62.5334115,
          "velocity": 0.7952755905511811
        },
        {
          "duration": 0.2666669999999982,
          "durationTicks": 96,
          "midi": 68,
          "name": "G#4",
          "ticks": 22560,
          "time": 62.666745,
          "velocity": 0.7952755905511811
        },
        {
          "duration": 0.1333334999999991,
          "durationTicks": 48,
          "midi": 65,
          "name": "F4",
          "ticks": 22704,
          "time": 63.066745499999996,
          "velocity": 0.7952755905511811
        },
        {
          "duration": 0.1333334999999991,
          "durationTicks": 48,
          "midi": 68,
          "name": "G#4",
          "ticks": 22752,
          "time": 63.200078999999995,
          "velocity": 0.7952755905511811
        },
        {
          "duration": 0.1333335000000062,
          "durationTicks": 48,
          "midi": 68,
          "name": "G#4",
          "ticks": 22800,
          "time": 63.333412499999994,
          "velocity": 0.7952755905511811
        },
        {
          "duration": 0.1333334999999991,
          "durationTicks": 48,
          "midi": 66,
          "name": "F#4",
          "ticks": 22848,
          "time": 63.466746,
          "velocity": 0.7952755905511811
        },
        {
          "duration": 0.1333334999999991,
          "durationTicks": 48,
          "midi": 65,
          "name": "F4",
          "ticks": 22896,
          "time": 63.6000795,
          "velocity": 0.7952755905511811
        },
        {
          "duration": 0.15555574999999777,
          "durationTicks": 56,
          "midi": 66,
          "name": "F#4",
          "ticks": 22944,
          "time": 63.733413,
          "velocity": 0.7952755905511811
        },
        {
          "duration": 0.2666669999999982,
          "durationTicks": 96,
          "midi": 61,
          "name": "C#4",
          "ticks": 23040,
          "time": 64.00008,
          "velocity": 0.7952755905511811
        },
        {
          "duration": 0.2666669999999982,
          "durationTicks": 96,
          "midi": 73,
          "name": "C#5",
          "ticks": 23136,
          "time": 64.266747,
          "velocity": 0.7952755905511811
        },
        {
          "duration": 0.066666749999996,
          "durationTicks": 24,
          "midi": 69,
          "name": "A4",
          "ticks": 23280,
          "time": 64.6667475,
          "velocity": 0.7952755905511811
        },
        {
          "duration": 0.2666669999999982,
          "durationTicks": 96,
          "midi": 68,
          "name": "G#4",
          "ticks": 23328,
          "time": 64.80008099999999,
          "velocity": 0.7952755905511811
        },
        {
          "duration": 0.1333335000000062,
          "durationTicks": 48,
          "midi": 65,
          "name": "F4",
          "ticks": 23472,
          "time": 65.2000815,
          "velocity": 0.7952755905511811
        },
        {
          "duration": 0.033333374999998,
          "durationTicks": 12,
          "midi": 66,
          "name": "F#4",
          "ticks": 23520,
          "time": 65.333415,
          "velocity": 0.7952755905511811
        },
        {
          "duration": 0.24444474999999954,
          "durationTicks": 88,
          "midi": 68,
          "name": "G#4",
          "ticks": 23527,
          "time": 65.35285946875,
          "velocity": 0.7952755905511811
        },
        {
          "duration": 0.2666669999999982,
          "durationTicks": 96,
          "midi": 71,
          "name": "B4",
          "ticks": 23616,
          "time": 65.600082,
          "velocity": 0.7952755905511811
        },
        {
          "duration": 0.2666669999999982,
          "durationTicks": 96,
          "midi": 69,
          "name": "A4",
          "ticks": 23712,
          "time": 65.866749,
          "velocity": 0.7952755905511811
        },
        {
          "duration": 0.2666669999999982,
          "durationTicks": 96,
          "midi": 73,
          "name": "C#5",
          "ticks": 23904,
          "time": 66.400083,
          "velocity": 0.7952755905511811
        },
        {
          "duration": 0.066666749999996,
          "durationTicks": 24,
          "midi": 69,
          "name": "A4",
          "ticks": 24048,
          "time": 66.8000835,
          "velocity": 0.7952755905511811
        },
        {
          "duration": 0.2666670000000124,
          "durationTicks": 96,
          "midi": 68,
          "name": "G#4",
          "ticks": 24096,
          "time": 66.93341699999999,
          "velocity": 0.7952755905511811
        },
        {
          "duration": 0.1333335000000062,
          "durationTicks": 48,
          "midi": 65,
          "name": "F4",
          "ticks": 24240,
          "time": 67.3334175,
          "velocity": 0.7952755905511811
        },
        {
          "duration": 0.133333499999992,
          "durationTicks": 48,
          "midi": 68,
          "name": "G#4",
          "ticks": 24288,
          "time": 67.466751,
          "velocity": 0.7952755905511811
        },
        {
          "duration": 0.133333499999992,
          "durationTicks": 48,
          "midi": 66,
          "name": "F#4",
          "ticks": 24384,
          "time": 67.733418,
          "velocity": 0.7952755905511811
        },
        {
          "duration": 0.1333335000000062,
          "durationTicks": 48,
          "midi": 65,
          "name": "F4",
          "ticks": 24432,
          "time": 67.86675149999999,
          "velocity": 0.7952755905511811
        },
        {
          "duration": 0.2666669999999982,
          "durationTicks": 96,
          "midi": 66,
          "name": "F#4",
          "ticks": 24480,
          "time": 68.000085,
          "velocity": 0.7952755905511811
        },
        {
          "duration": 0.2666669999999982,
          "durationTicks": 96,
          "midi": 61,
          "name": "C#4",
          "ticks": 24576,
          "time": 68.266752,
          "velocity": 0.7952755905511811
        },
        {
          "duration": 0.2666669999999982,
          "durationTicks": 96,
          "midi": 73,
          "name": "C#5",
          "ticks": 24672,
          "time": 68.533419,
          "velocity": 0.7952755905511811
        },
        {
          "duration": 0.066666749999996,
          "durationTicks": 24,
          "midi": 69,
          "name": "A4",
          "ticks": 24816,
          "time": 68.9334195,
          "velocity": 0.7952755905511811
        },
        {
          "duration": 0.2666669999999982,
          "durationTicks": 96,
          "midi": 68,
          "name": "G#4",
          "ticks": 24864,
          "time": 69.06675299999999,
          "velocity": 0.7952755905511811
        },
        {
          "duration": 0.1333335000000062,
          "durationTicks": 48,
          "midi": 68,
          "name": "G#4",
          "ticks": 25008,
          "time": 69.4667535,
          "velocity": 0.7952755905511811
        },
        {
          "duration": 0.133333499999992,
          "durationTicks": 48,
          "midi": 69,
          "name": "A4",
          "ticks": 25056,
          "time": 69.600087,
          "velocity": 0.7952755905511811
        },
        {
          "duration": 0.133333499999992,
          "durationTicks": 48,
          "midi": 71,
          "name": "B4",
          "ticks": 25152,
          "time": 69.866754,
          "velocity": 0.7952755905511811
        },
        {
          "duration": 0.2666669999999982,
          "durationTicks": 96,
          "midi": 73,
          "name": "C#5",
          "ticks": 25248,
          "time": 70.133421,
          "velocity": 0.7952755905511811
        },
        {
          "duration": 0.2666669999999982,
          "durationTicks": 96,
          "midi": 69,
          "name": "A4",
          "ticks": 39168,
          "time": 108.800136,
          "velocity": 0.4015748031496063
        },
        {
          "duration": 0.2666669999999982,
          "durationTicks": 96,
          "midi": 66,
          "name": "F#4",
          "ticks": 39168,
          "time": 108.800136,
          "velocity": 0.4015748031496063
        },
        {
          "duration": 0.2666669999999982,
          "durationTicks": 96,
          "midi": 78,
          "name": "F#5",
          "ticks": 39168,
          "time": 108.800136,
          "velocity": 0.4015748031496063
        },
        {
          "duration": 0.1333335000000062,
          "durationTicks": 48,
          "midi": 68,
          "name": "G#4",
          "ticks": 39264,
          "time": 109.066803,
          "velocity": 0.4015748031496063
        },
        {
          "duration": 0.1333335000000062,
          "durationTicks": 48,
          "midi": 73,
          "name": "C#5",
          "ticks": 39264,
          "time": 109.066803,
          "velocity": 0.4015748031496063
        },
        {
          "duration": 0.1333335000000062,
          "durationTicks": 48,
          "midi": 61,
          "name": "C#4",
          "ticks": 39264,
          "time": 109.066803,
          "velocity": 0.4015748031496063
        },
        {
          "duration": 0.2666669999999982,
          "durationTicks": 96,
          "midi": 76,
          "name": "E5",
          "ticks": 39360,
          "time": 109.33346999999999,
          "velocity": 0.4015748031496063
        },
        {
          "duration": 0.2666669999999982,
          "durationTicks": 96,
          "midi": 67,
          "name": "G4",
          "ticks": 39360,
          "time": 109.33346999999999,
          "velocity": 0.4015748031496063
        },
        {
          "duration": 0.2666669999999982,
          "durationTicks": 96,
          "midi": 64,
          "name": "E4",
          "ticks": 39360,
          "time": 109.33346999999999,
          "velocity": 0.4015748031496063
        },
        {
          "duration": 0.1333335000000062,
          "durationTicks": 48,
          "midi": 71,
          "name": "B4",
          "ticks": 39456,
          "time": 109.60013699999999,
          "velocity": 0.4015748031496063
        },
        {
          "duration": 0.1333335000000062,
          "durationTicks": 48,
          "midi": 63,
          "name": "D#4",
          "ticks": 39456,
          "time": 109.60013699999999,
          "velocity": 0.4015748031496063
        },
        {
          "duration": 0.1333335000000062,
          "durationTicks": 48,
          "midi": 59,
          "name": "B3",
          "ticks": 39456,
          "time": 109.60013699999999,
          "velocity": 0.4015748031496063
        },
        {
          "duration": 0.2666669999999982,
          "durationTicks": 96,
          "midi": 58,
          "name": "A#3",
          "ticks": 39552,
          "time": 109.866804,
          "velocity": 0.4015748031496063
        },
        {
          "duration": 0.2666669999999982,
          "durationTicks": 96,
          "midi": 65,
          "name": "F4",
          "ticks": 39648,
          "time": 110.133471,
          "velocity": 0.4015748031496063
        },
        {
          "duration": 0.133333499999992,
          "durationTicks": 48,
          "midi": 64,
          "name": "E4",
          "ticks": 39744,
          "time": 110.400138,
          "velocity": 0.4015748031496063
        },
        {
          "duration": 0.044444500000011544,
          "durationTicks": 16,
          "midi": 63,
          "name": "D#4",
          "ticks": 39792,
          "time": 110.53347149999999,
          "velocity": 0.33070866141732286
        },
        {
          "duration": 0.04444449999998312,
          "durationTicks": 16,
          "midi": 62,
          "name": "D4",
          "ticks": 39808,
          "time": 110.577916,
          "velocity": 0.2992125984251969
        },
        {
          "duration": 0.044444500000011544,
          "durationTicks": 16,
          "midi": 61,
          "name": "C#4",
          "ticks": 39824,
          "time": 110.62236049999998,
          "velocity": 0.2677165354330709
        },
        {
          "duration": 0.04444449999999733,
          "durationTicks": 16,
          "midi": 60,
          "name": "C4",
          "ticks": 39840,
          "time": 110.666805,
          "velocity": 0.2440944881889764
        },
        {
          "duration": 0.04444449999999733,
          "durationTicks": 16,
          "midi": 59,
          "name": "B3",
          "ticks": 39856,
          "time": 110.7112495,
          "velocity": 0.2125984251968504
        },
        {
          "duration": 0.04444449999999733,
          "durationTicks": 16,
          "midi": 58,
          "name": "A#3",
          "ticks": 39872,
          "time": 110.75569399999999,
          "velocity": 0.18110236220472442
        },
        {
          "duration": 0.044444500000011544,
          "durationTicks": 16,
          "midi": 57,
          "name": "A3",
          "ticks": 39888,
          "time": 110.80013849999999,
          "velocity": 0.14960629921259844
        },
        {
          "duration": 0.04444449999998312,
          "durationTicks": 16,
          "midi": 56,
          "name": "G#3",
          "ticks": 39904,
          "time": 110.844583,
          "velocity": 0.11811023622047244
        },
        {
          "duration": 0.044444500000011544,
          "durationTicks": 16,
          "midi": 55,
          "name": "G3",
          "ticks": 39920,
          "time": 110.88902749999998,
          "velocity": 0.09448818897637795
        },
        {
          "duration": 0.133333499999992,
          "durationTicks": 48,
          "midi": 61,
          "name": "C#4",
          "ticks": 42048,
          "time": 116.800146,
          "velocity": 0.6535433070866141
        },
        {
          "duration": 0.133333499999992,
          "durationTicks": 48,
          "midi": 54,
          "name": "F#3",
          "ticks": 42048,
          "time": 116.800146,
          "velocity": 0.6535433070866141
        },
        {
          "duration": 0.06666675000001021,
          "durationTicks": 24,
          "midi": 61,
          "name": "C#4",
          "ticks": 42096,
          "time": 116.93347949999999,
          "velocity": 0.6535433070866141
        },
        {
          "duration": 0.06666675000001021,
          "durationTicks": 24,
          "midi": 54,
          "name": "F#3",
          "ticks": 42096,
          "time": 116.93347949999999,
          "velocity": 0.6535433070866141
        },
        {
          "duration": 0.066666749999996,
          "durationTicks": 24,
          "midi": 54,
          "name": "F#3",
          "ticks": 42144,
          "time": 117.066813,
          "velocity": 0.6535433070866141
        },
        {
          "duration": 0.066666749999996,
          "durationTicks": 24,
          "midi": 61,
          "name": "C#4",
          "ticks": 42144,
          "time": 117.066813,
          "velocity": 0.6535433070866141
        },
        {
          "duration": 0.1333335000000062,
          "durationTicks": 48,
          "midi": 61,
          "name": "C#4",
          "ticks": 42192,
          "time": 117.20014649999999,
          "velocity": 0.6535433070866141
        },
        {
          "duration": 0.1333335000000062,
          "durationTicks": 48,
          "midi": 54,
          "name": "F#3",
          "ticks": 42192,
          "time": 117.20014649999999,
          "velocity": 0.6535433070866141
        },
        {
          "duration": 0.066666749999996,
          "durationTicks": 24,
          "midi": 61,
          "name": "C#4",
          "ticks": 42240,
          "time": 117.33348,
          "velocity": 0.6535433070866141
        },
        {
          "duration": 0.066666749999996,
          "durationTicks": 24,
          "midi": 54,
          "name": "F#3",
          "ticks": 42240,
          "time": 117.33348,
          "velocity": 0.6535433070866141
        },
        {
          "duration": 0.066666749999996,
          "durationTicks": 24,
          "midi": 54,
          "name": "F#3",
          "ticks": 42288,
          "time": 117.4668135,
          "velocity": 0.6535433070866141
        },
        {
          "duration": 0.066666749999996,
          "durationTicks": 24,
          "midi": 61,
          "name": "C#4",
          "ticks": 42288,
          "time": 117.4668135,
          "velocity": 0.6535433070866141
        },
        {
          "duration": 0.1333335000000062,
          "durationTicks": 48,
          "midi": 62,
          "name": "D4",
          "ticks": 42336,
          "time": 117.60014699999999,
          "velocity": 0.6535433070866141
        },
        {
          "duration": 0.1333335000000062,
          "durationTicks": 48,
          "midi": 54,
          "name": "F#3",
          "ticks": 42336,
          "time": 117.60014699999999,
          "velocity": 0.6535433070866141
        },
        {
          "duration": 0.1333335000000062,
          "durationTicks": 48,
          "midi": 62,
          "name": "D4",
          "ticks": 42432,
          "time": 117.86681399999999,
          "velocity": 0.6535433070866141
        },
        {
          "duration": 0.1333335000000062,
          "durationTicks": 48,
          "midi": 54,
          "name": "F#3",
          "ticks": 42432,
          "time": 117.86681399999999,
          "velocity": 0.6535433070866141
        },
        {
          "duration": 0.1333335000000062,
          "durationTicks": 48,
          "midi": 63,
          "name": "D#4",
          "ticks": 42528,
          "time": 118.13348099999999,
          "velocity": 0.6535433070866141
        },
        {
          "duration": 0.1333335000000062,
          "durationTicks": 48,
          "midi": 57,
          "name": "A3",
          "ticks": 42528,
          "time": 118.13348099999999,
          "velocity": 0.6535433070866141
        },
        {
          "duration": 0.066666749999996,
          "durationTicks": 24,
          "midi": 63,
          "name": "D#4",
          "ticks": 42576,
          "time": 118.2668145,
          "velocity": 0.6535433070866141
        },
        {
          "duration": 0.066666749999996,
          "durationTicks": 24,
          "midi": 57,
          "name": "A3",
          "ticks": 42576,
          "time": 118.2668145,
          "velocity": 0.6535433070866141
        },
        {
          "duration": 0.066666749999996,
          "durationTicks": 24,
          "midi": 57,
          "name": "A3",
          "ticks": 42624,
          "time": 118.400148,
          "velocity": 0.6535433070866141
        },
        {
          "duration": 0.066666749999996,
          "durationTicks": 24,
          "midi": 63,
          "name": "D#4",
          "ticks": 42624,
          "time": 118.400148,
          "velocity": 0.6535433070866141
        },
        {
          "duration": 0.1333335000000062,
          "durationTicks": 48,
          "midi": 63,
          "name": "D#4",
          "ticks": 42672,
          "time": 118.5334815,
          "velocity": 0.6535433070866141
        },
        {
          "duration": 0.1333335000000062,
          "durationTicks": 48,
          "midi": 57,
          "name": "A3",
          "ticks": 42672,
          "time": 118.5334815,
          "velocity": 0.6535433070866141
        },
        {
          "duration": 0.066666749999996,
          "durationTicks": 24,
          "midi": 63,
          "name": "D#4",
          "ticks": 42720,
          "time": 118.666815,
          "velocity": 0.6535433070866141
        },
        {
          "duration": 0.066666749999996,
          "durationTicks": 24,
          "midi": 57,
          "name": "A3",
          "ticks": 42720,
          "time": 118.666815,
          "velocity": 0.6535433070866141
        },
        {
          "duration": 0.066666749999996,
          "durationTicks": 24,
          "midi": 57,
          "name": "A3",
          "ticks": 42768,
          "time": 118.80014849999999,
          "velocity": 0.6535433070866141
        },
        {
          "duration": 0.066666749999996,
          "durationTicks": 24,
          "midi": 63,
          "name": "D#4",
          "ticks": 42768,
          "time": 118.80014849999999,
          "velocity": 0.6535433070866141
        },
        {
          "duration": 0.066666749999996,
          "durationTicks": 24,
          "midi": 57,
          "name": "A3",
          "ticks": 42816,
          "time": 118.933482,
          "velocity": 0.6535433070866141
        },
        {
          "duration": 0.066666749999996,
          "durationTicks": 24,
          "midi": 65,
          "name": "F4",
          "ticks": 42816,
          "time": 118.933482,
          "velocity": 0.6535433070866141
        },
        {
          "duration": 0.06666675000001021,
          "durationTicks": 24,
          "midi": 65,
          "name": "F4",
          "ticks": 42864,
          "time": 119.06681549999999,
          "velocity": 0.6535433070866141
        },
        {
          "duration": 0.06666675000001021,
          "durationTicks": 24,
          "midi": 57,
          "name": "A3",
          "ticks": 42864,
          "time": 119.06681549999999,
          "velocity": 0.6535433070866141
        },
        {
          "duration": 0.066666749999996,
          "durationTicks": 24,
          "midi": 57,
          "name": "A3",
          "ticks": 42912,
          "time": 119.200149,
          "velocity": 0.6535433070866141
        },
        {
          "duration": 0.066666749999996,
          "durationTicks": 24,
          "midi": 65,
          "name": "F4",
          "ticks": 42912,
          "time": 119.200149,
          "velocity": 0.6535433070866141
        },
        {
          "duration": 0.06666675000001021,
          "durationTicks": 24,
          "midi": 57,
          "name": "A3",
          "ticks": 42960,
          "time": 119.33348249999999,
          "velocity": 0.6535433070866141
        },
        {
          "duration": 0.06666675000001021,
          "durationTicks": 24,
          "midi": 65,
          "name": "F4",
          "ticks": 42960,
          "time": 119.33348249999999,
          "velocity": 0.6535433070866141
        },
        {
          "duration": 0.013888906249988509,
          "durationTicks": 5,
          "midi": 57,
          "name": "A3",
          "ticks": 43008,
          "time": 119.466816,
          "velocity": 0.6850393700787402
        },
        {
          "duration": 0.013888906249988509,
          "durationTicks": 5,
          "midi": 64,
          "name": "E4",
          "ticks": 43008,
          "time": 119.466816,
          "velocity": 0.6850393700787402
        },
        {
          "duration": 0.01388890625001693,
          "durationTicks": 5,
          "midi": 56,
          "name": "G#3",
          "ticks": 43013,
          "time": 119.48070490624998,
          "velocity": 0.6456692913385826
        },
        {
          "duration": 0.01388890625001693,
          "durationTicks": 5,
          "midi": 63,
          "name": "D#4",
          "ticks": 43013,
          "time": 119.48070490624998,
          "velocity": 0.6456692913385826
        },
        {
          "duration": 0.011111124999985122,
          "durationTicks": 4,
          "midi": 55,
          "name": "G3",
          "ticks": 43018,
          "time": 119.4945938125,
          "velocity": 0.6062992125984252
        },
        {
          "duration": 0.011111124999985122,
          "durationTicks": 4,
          "midi": 62,
          "name": "D4",
          "ticks": 43018,
          "time": 119.4945938125,
          "velocity": 0.6062992125984252
        },
        {
          "duration": 0.01388890625001693,
          "durationTicks": 5,
          "midi": 54,
          "name": "F#3",
          "ticks": 43022,
          "time": 119.50570493749998,
          "velocity": 0.5748031496062992
        },
        {
          "duration": 0.01388890625001693,
          "durationTicks": 5,
          "midi": 61,
          "name": "C#4",
          "ticks": 43022,
          "time": 119.50570493749998,
          "velocity": 0.5748031496062992
        },
        {
          "duration": 0.013888906249988509,
          "durationTicks": 5,
          "midi": 60,
          "name": "C4",
          "ticks": 43027,
          "time": 119.51959384375,
          "velocity": 0.5354330708661418
        },
        {
          "duration": 0.013888906249988509,
          "durationTicks": 5,
          "midi": 53,
          "name": "F3",
          "ticks": 43027,
          "time": 119.51959384375,
          "velocity": 0.5354330708661418
        },
        {
          "duration": 0.01388890625000272,
          "durationTicks": 5,
          "midi": 52,
          "name": "E3",
          "ticks": 43032,
          "time": 119.53348274999999,
          "velocity": 0.49606299212598426
        },
        {
          "duration": 0.01388890625000272,
          "durationTicks": 5,
          "midi": 59,
          "name": "B3",
          "ticks": 43032,
          "time": 119.53348274999999,
          "velocity": 0.49606299212598426
        },
        {
          "duration": 0.01388890625000272,
          "durationTicks": 5,
          "midi": 58,
          "name": "A#3",
          "ticks": 43037,
          "time": 119.54737165625,
          "velocity": 0.4566929133858268
        },
        {
          "duration": 0.01388890625000272,
          "durationTicks": 5,
          "midi": 51,
          "name": "D#3",
          "ticks": 43037,
          "time": 119.54737165625,
          "velocity": 0.4566929133858268
        },
        {
          "duration": 0.011111124999999333,
          "durationTicks": 4,
          "midi": 57,
          "name": "A3",
          "ticks": 43042,
          "time": 119.5612605625,
          "velocity": 0.41732283464566927
        },
        {
          "duration": 0.011111124999999333,
          "durationTicks": 4,
          "midi": 50,
          "name": "D3",
          "ticks": 43042,
          "time": 119.5612605625,
          "velocity": 0.41732283464566927
        },
        {
          "duration": 0.01388890625000272,
          "durationTicks": 5,
          "midi": 56,
          "name": "G#3",
          "ticks": 43046,
          "time": 119.5723716875,
          "velocity": 0.3858267716535433
        },
        {
          "duration": 0.01388890625000272,
          "durationTicks": 5,
          "midi": 49,
          "name": "C#3",
          "ticks": 43046,
          "time": 119.5723716875,
          "velocity": 0.3858267716535433
        },
        {
          "duration": 0.01388890625000272,
          "durationTicks": 5,
          "midi": 48,
          "name": "C3",
          "ticks": 43051,
          "time": 119.58626059375,
          "velocity": 0.3464566929133858
        },
        {
          "duration": 0.01388890625000272,
          "durationTicks": 5,
          "midi": 55,
          "name": "G3",
          "ticks": 43051,
          "time": 119.58626059375,
          "velocity": 0.3464566929133858
        },
        {
          "duration": 0.066666749999996,
          "durationTicks": 24,
          "midi": 69,
          "name": "A4",
          "ticks": 44592,
          "time": 123.8668215,
          "velocity": 0.7952755905511811
        },
        {
          "duration": 0.066666749999996,
          "durationTicks": 24,
          "midi": 69,
          "name": "A4",
          "ticks": 44640,
          "time": 124.00015499999999,
          "velocity": 0.7952755905511811
        },
        {
          "duration": 0.06666675000001021,
          "durationTicks": 24,
          "midi": 69,
          "name": "A4",
          "ticks": 44736,
          "time": 124.26682199999999,
          "velocity": 0.7952755905511811
        },
        {
          "duration": 0.066666749999996,
          "durationTicks": 24,
          "midi": 69,
          "name": "A4",
          "ticks": 44784,
          "time": 124.4001555,
          "velocity": 0.7952755905511811
        },
        {
          "duration": 0.2666669999999982,
          "durationTicks": 96,
          "midi": 69,
          "name": "A4",
          "ticks": 44880,
          "time": 124.6668225,
          "velocity": 0.7952755905511811
        },
        {
          "duration": 0.066666749999996,
          "durationTicks": 24,
          "midi": 68,
          "name": "G#4",
          "ticks": 44976,
          "time": 124.9334895,
          "velocity": 0.7952755905511811
        },
        {
          "duration": 0.066666749999996,
          "durationTicks": 24,
          "midi": 69,
          "name": "A4",
          "ticks": 45024,
          "time": 125.066823,
          "velocity": 0.7952755905511811
        },
        {
          "duration": 0.066666749999996,
          "durationTicks": 24,
          "midi": 68,
          "name": "G#4",
          "ticks": 45072,
          "time": 125.20015649999999,
          "velocity": 0.7952755905511811
        },
        {
          "duration": 0.066666749999996,
          "durationTicks": 24,
          "midi": 69,
          "name": "A4",
          "ticks": 45120,
          "time": 125.33349,
          "velocity": 0.7952755905511811
        },
        {
          "duration": 0.2666669999999982,
          "durationTicks": 96,
          "midi": 69,
          "name": "A4",
          "ticks": 45312,
          "time": 125.866824,
          "velocity": 0.7952755905511811
        },
        {
          "duration": 0.033333374999998,
          "durationTicks": 12,
          "midi": 68,
          "name": "G#4",
          "ticks": 45456,
          "time": 126.2668245,
          "velocity": 0.7952755905511811
        },
        {
          "duration": 0.033333374999998,
          "durationTicks": 12,
          "midi": 68,
          "name": "G#4",
          "ticks": 45480,
          "time": 126.33349125,
          "velocity": 0.7952755905511811
        },
        {
          "duration": 0.2666669999999982,
          "durationTicks": 96,
          "midi": 69,
          "name": "A4",
          "ticks": 45504,
          "time": 126.40015799999999,
          "velocity": 0.7952755905511811
        },
        {
          "duration": 0.1333335000000062,
          "durationTicks": 48,
          "midi": 68,
          "name": "G#4",
          "ticks": 45648,
          "time": 126.8001585,
          "velocity": 0.7952755905511811
        },
        {
          "duration": 0.133333499999992,
          "durationTicks": 48,
          "midi": 69,
          "name": "A4",
          "ticks": 45696,
          "time": 126.933492,
          "velocity": 0.7952755905511811
        },
        {
          "duration": 0.1333335000000062,
          "durationTicks": 48,
          "midi": 68,
          "name": "G#4",
          "ticks": 45744,
          "time": 127.0668255,
          "velocity": 0.7952755905511811
        },
        {
          "duration": 0.133333499999992,
          "durationTicks": 48,
          "midi": 69,
          "name": "A4",
          "ticks": 45792,
          "time": 127.200159,
          "velocity": 0.7952755905511811
        },
        {
          "duration": 0.1333335000000062,
          "durationTicks": 48,
          "midi": 68,
          "name": "G#4",
          "ticks": 45840,
          "time": 127.33349249999999,
          "velocity": 0.7952755905511811
        },
        {
          "duration": 0.2666669999999982,
          "durationTicks": 96,
          "midi": 69,
          "name": "A4",
          "ticks": 45888,
          "time": 127.466826,
          "velocity": 0.7952755905511811
        },
        {
          "duration": 0.033333374999998,
          "durationTicks": 12,
          "midi": 73,
          "name": "C#5",
          "ticks": 45984,
          "time": 127.733493,
          "velocity": 0.7952755905511811
        },
        {
          "duration": 0.2333336250000002,
          "durationTicks": 84,
          "midi": 76,
          "name": "E5",
          "ticks": 45996,
          "time": 127.766826375,
          "velocity": 0.7952755905511811
        },
        {
          "duration": 0.2666670000000124,
          "durationTicks": 96,
          "midi": 66,
          "name": "F#4",
          "ticks": 46080,
          "time": 128.00016,
          "velocity": 0.7952755905511811
        },
        {
          "duration": 0.03333337499998379,
          "durationTicks": 12,
          "midi": 67,
          "name": "G4",
          "ticks": 46176,
          "time": 128.266827,
          "velocity": 0.7952755905511811
        },
        {
          "duration": 0.2333336250000002,
          "durationTicks": 84,
          "midi": 68,
          "name": "G#4",
          "ticks": 46188,
          "time": 128.300160375,
          "velocity": 0.7952755905511811
        },
        {
          "duration": 0.133333499999992,
          "durationTicks": 48,
          "midi": 61,
          "name": "C#4",
          "ticks": 46272,
          "time": 128.533494,
          "velocity": 0.7952755905511811
        },
        {
          "duration": 0.13333350000002042,
          "durationTicks": 48,
          "midi": 63,
          "name": "D#4",
          "ticks": 46320,
          "time": 128.66682749999998,
          "velocity": 0.7952755905511811
        },
        {
          "duration": 0.133333499999992,
          "durationTicks": 48,
          "midi": 65,
          "name": "F4",
          "ticks": 46368,
          "time": 128.800161,
          "velocity": 0.7952755905511811
        },
        {
          "duration": 0.133333499999992,
          "durationTicks": 48,
          "midi": 66,
          "name": "F#4",
          "ticks": 46416,
          "time": 128.9334945,
          "velocity": 0.7952755905511811
        },
        {
          "duration": 0.2666670000000124,
          "durationTicks": 96,
          "midi": 69,
          "name": "A4",
          "ticks": 46464,
          "time": 129.066828,
          "velocity": 0.7952755905511811
        },
        {
          "duration": 0.266666999999984,
          "durationTicks": 96,
          "midi": 69,
          "name": "A4",
          "ticks": 46560,
          "time": 129.333495,
          "velocity": 0.7952755905511811
        },
        {
          "duration": 0.03333337500001221,
          "durationTicks": 12,
          "midi": 67,
          "name": "G4",
          "ticks": 46656,
          "time": 129.60016199999998,
          "velocity": 0.7952755905511811
        },
        {
          "duration": 0.2333336250000002,
          "durationTicks": 84,
          "midi": 68,
          "name": "G#4",
          "ticks": 46668,
          "time": 129.633495375,
          "velocity": 0.7952755905511811
        },
        {
          "duration": 0.266666999999984,
          "durationTicks": 96,
          "midi": 66,
          "name": "F#4",
          "ticks": 46752,
          "time": 129.866829,
          "velocity": 0.7952755905511811
        },
        {
          "duration": 0.13333350000002042,
          "durationTicks": 48,
          "midi": 66,
          "name": "F#4",
          "ticks": 46848,
          "time": 130.13349599999998,
          "velocity": 0.7952755905511811
        },
        {
          "duration": 0.133333499999992,
          "durationTicks": 48,
          "midi": 78,
          "name": "F#5",
          "ticks": 46896,
          "time": 130.2668295,
          "velocity": 0.7952755905511811
        },
        {
          "duration": 0.066666749999996,
          "durationTicks": 24,
          "midi": 61,
          "name": "C#4",
          "ticks": 46992,
          "time": 130.53349649999998,
          "velocity": 0.7952755905511811
        },
        {
          "duration": 0.06666675000002442,
          "durationTicks": 24,
          "midi": 63,
          "name": "D#4",
          "ticks": 47016,
          "time": 130.60016324999998,
          "velocity": 0.7952755905511811
        },
        {
          "duration": 0.03333337499998379,
          "durationTicks": 12,
          "midi": 65,
          "name": "F4",
          "ticks": 47040,
          "time": 130.66683,
          "velocity": 0.7952755905511811
        },
        {
          "duration": 0.03333337499998379,
          "durationTicks": 12,
          "midi": 65,
          "name": "F4",
          "ticks": 47064,
          "time": 130.73349675,
          "velocity": 0.7952755905511811
        },
        {
          "duration": 0.03333337499998379,
          "durationTicks": 12,
          "midi": 65,
          "name": "F4",
          "ticks": 47088,
          "time": 130.8001635,
          "velocity": 0.7952755905511811
        },
        {
          "duration": 0.03333337500001221,
          "durationTicks": 12,
          "midi": 65,
          "name": "F4",
          "ticks": 47112,
          "time": 130.86683025,
          "velocity": 0.7952755905511811
        },
        {
          "duration": 0.066666749999996,
          "durationTicks": 24,
          "midi": 73,
          "name": "C#5",
          "ticks": 47136,
          "time": 130.933497,
          "velocity": 0.7952755905511811
        },
        {
          "duration": 0.13333350000002042,
          "durationTicks": 48,
          "midi": 65,
          "name": "F4",
          "ticks": 47184,
          "time": 131.06683049999998,
          "velocity": 0.7952755905511811
        },
        {
          "duration": 0.03333337499998379,
          "durationTicks": 12,
          "midi": 66,
          "name": "F#4",
          "ticks": 47232,
          "time": 131.200164,
          "velocity": 0.7952755905511811
        },
        {
          "duration": 0.03333337499998379,
          "durationTicks": 12,
          "midi": 66,
          "name": "F#4",
          "ticks": 47256,
          "time": 131.26683075,
          "velocity": 0.7952755905511811
        },
        {
          "duration": 0.03333337500001221,
          "durationTicks": 12,
          "midi": 66,
          "name": "F#4",
          "ticks": 47280,
          "time": 131.3334975,
          "velocity": 0.7952755905511811
        },
        {
          "duration": 0.03333337500001221,
          "durationTicks": 12,
          "midi": 66,
          "name": "F#4",
          "ticks": 47304,
          "time": 131.40016425,
          "velocity": 0.7952755905511811
        },
        {
          "duration": 0.13333350000002042,
          "durationTicks": 48,
          "midi": 73,
          "name": "C#5",
          "ticks": 47328,
          "time": 131.46683099999998,
          "velocity": 0.7952755905511811
        },
        {
          "duration": 0.066666749999996,
          "durationTicks": 24,
          "midi": 66,
          "name": "F#4",
          "ticks": 47400,
          "time": 131.66683125,
          "velocity": 0.7952755905511811
        },
        {
          "duration": 0.03333337499998379,
          "durationTicks": 12,
          "midi": 69,
          "name": "A4",
          "ticks": 47424,
          "time": 131.733498,
          "velocity": 0.7952755905511811
        },
        {
          "duration": 0.03333337500001221,
          "durationTicks": 12,
          "midi": 69,
          "name": "A4",
          "ticks": 47448,
          "time": 131.80016475,
          "velocity": 0.7952755905511811
        },
        {
          "duration": 0.03333337500001221,
          "durationTicks": 12,
          "midi": 69,
          "name": "A4",
          "ticks": 47472,
          "time": 131.8668315,
          "velocity": 0.7952755905511811
        },
        {
          "duration": 0.03333337500001221,
          "durationTicks": 12,
          "midi": 69,
          "name": "A4",
          "ticks": 47496,
          "time": 131.93349824999999,
          "velocity": 0.7952755905511811
        },
        {
          "duration": 0.13333350000002042,
          "durationTicks": 48,
          "midi": 73,
          "name": "C#5",
          "ticks": 47520,
          "time": 132.00016499999998,
          "velocity": 0.7952755905511811
        },
        {
          "duration": 0.133333499999992,
          "durationTicks": 48,
          "midi": 70,
          "name": "A#4",
          "ticks": 47568,
          "time": 132.1334985,
          "velocity": 0.7952755905511811
        },
        {
          "duration": 0.133333499999992,
          "durationTicks": 48,
          "midi": 71,
          "name": "B4",
          "ticks": 47616,
          "time": 132.266832,
          "velocity": 0.7952755905511811
        },
        {
          "duration": 0.13333350000002042,
          "durationTicks": 48,
          "midi": 70,
          "name": "A#4",
          "ticks": 47664,
          "time": 132.40016549999999,
          "velocity": 0.7952755905511811
        },
        {
          "duration": 0.133333499999992,
          "durationTicks": 48,
          "midi": 69,
          "name": "A4",
          "ticks": 47712,
          "time": 132.533499,
          "velocity": 0.7952755905511811
        },
        {
          "duration": 0.133333499999992,
          "durationTicks": 48,
          "midi": 68,
          "name": "G#4",
          "ticks": 47760,
          "time": 132.6668325,
          "velocity": 0.7952755905511811
        },
        {
          "duration": 0.133333499999992,
          "durationTicks": 48,
          "midi": 68,
          "name": "G#4",
          "ticks": 47808,
          "time": 132.800166,
          "velocity": 0.7952755905511811
        },
        {
          "duration": 0.13333350000002042,
          "durationTicks": 48,
          "midi": 67,
          "name": "G4",
          "ticks": 47856,
          "time": 132.93349949999998,
          "velocity": 0.7952755905511811
        },
        {
          "duration": 0.133333499999992,
          "durationTicks": 48,
          "midi": 66,
          "name": "F#4",
          "ticks": 47904,
          "time": 133.066833,
          "velocity": 0.7952755905511811
        },
        {
          "duration": 0.133333499999992,
          "durationTicks": 48,
          "midi": 65,
          "name": "F4",
          "ticks": 47952,
          "time": 133.2001665,
          "velocity": 0.7952755905511811
        },
        {
          "duration": 0.13333350000002042,
          "durationTicks": 48,
          "midi": 66,
          "name": "F#4",
          "ticks": 48000,
          "time": 133.3335,
          "velocity": 0.7952755905511811
        },
        {
          "duration": 0.133333499999992,
          "durationTicks": 48,
          "midi": 66,
          "name": "F#4",
          "ticks": 48048,
          "time": 133.4668335,
          "velocity": 0.7952755905511811
        },
        {
          "duration": 0.133333499999992,
          "durationTicks": 48,
          "midi": 66,
          "name": "F#4",
          "ticks": 48096,
          "time": 133.600167,
          "velocity": 0.7952755905511811
        },
        {
          "duration": 0.133333499999992,
          "durationTicks": 48,
          "midi": 66,
          "name": "F#4",
          "ticks": 48144,
          "time": 133.7335005,
          "velocity": 0.7952755905511811
        },
        {
          "duration": 0.13333350000002042,
          "durationTicks": 48,
          "midi": 65,
          "name": "F4",
          "ticks": 48192,
          "time": 133.86683399999998,
          "velocity": 0.7952755905511811
        },
        {
          "duration": 0.2666670000000124,
          "durationTicks": 96,
          "midi": 61,
          "name": "C#4",
          "ticks": 48288,
          "time": 134.133501,
          "velocity": 0.7952755905511811
        },
        {
          "duration": 0.266666999999984,
          "durationTicks": 96,
          "midi": 73,
          "name": "C#5",
          "ticks": 48384,
          "time": 134.400168,
          "velocity": 0.7952755905511811
        },
        {
          "duration": 0.066666749999996,
          "durationTicks": 24,
          "midi": 69,
          "name": "A4",
          "ticks": 48528,
          "time": 134.80016849999998,
          "velocity": 0.7952755905511811
        },
        {
          "duration": 0.266666999999984,
          "durationTicks": 96,
          "midi": 68,
          "name": "G#4",
          "ticks": 48576,
          "time": 134.933502,
          "velocity": 0.7952755905511811
        },
        {
          "duration": 0.13333350000002042,
          "durationTicks": 48,
          "midi": 65,
          "name": "F4",
          "ticks": 48720,
          "time": 135.33350249999998,
          "velocity": 0.7952755905511811
        },
        {
          "duration": 0.03333337499998379,
          "durationTicks": 12,
          "midi": 66,
          "name": "F#4",
          "ticks": 48768,
          "time": 135.466836,
          "velocity": 0.7952755905511811
        },
        {
          "duration": 0.24444474999998533,
          "durationTicks": 88,
          "midi": 68,
          "name": "G#4",
          "ticks": 48775,
          "time": 135.48628046875,
          "velocity": 0.7952755905511811
        },
        {
          "duration": 0.2666670000000124,
          "durationTicks": 96,
          "midi": 71,
          "name": "B4",
          "ticks": 48864,
          "time": 135.73350299999998,
          "velocity": 0.7952755905511811
        },
        {
          "duration": 0.266666999999984,
          "durationTicks": 96,
          "midi": 69,
          "name": "A4",
          "ticks": 48960,
          "time": 136.00017,
          "velocity": 0.7952755905511811
        },
        {
          "duration": 0.2694447812500016,
          "durationTicks": 97,
          "midi": 61,
          "name": "C#4",
          "ticks": 49056,
          "time": 136.26683699999998,
          "velocity": 0.7952755905511811
        },
        {
          "duration": 0.2666670000000124,
          "durationTicks": 96,
          "midi": 73,
          "name": "C#5",
          "ticks": 49152,
          "time": 136.533504,
          "velocity": 0.7952755905511811
        },
        {
          "duration": 0.066666749999996,
          "durationTicks": 24,
          "midi": 69,
          "name": "A4",
          "ticks": 49296,
          "time": 136.9335045,
          "velocity": 0.7952755905511811
        },
        {
          "duration": 0.2666670000000124,
          "durationTicks": 96,
          "midi": 68,
          "name": "G#4",
          "ticks": 49344,
          "time": 137.066838,
          "velocity": 0.7952755905511811
        },
        {
          "duration": 0.133333499999992,
          "durationTicks": 48,
          "midi": 65,
          "name": "F4",
          "ticks": 49488,
          "time": 137.4668385,
          "velocity": 0.7952755905511811
        },
        {
          "duration": 0.13333350000002042,
          "durationTicks": 48,
          "midi": 68,
          "name": "G#4",
          "ticks": 49536,
          "time": 137.600172,
          "velocity": 0.7952755905511811
        },
        {
          "duration": 0.133333499999992,
          "durationTicks": 48,
          "midi": 68,
          "name": "G#4",
          "ticks": 49584,
          "time": 137.7335055,
          "velocity": 0.7952755905511811
        },
        {
          "duration": 0.133333499999992,
          "durationTicks": 48,
          "midi": 66,
          "name": "F#4",
          "ticks": 49632,
          "time": 137.866839,
          "velocity": 0.7952755905511811
        },
        {
          "duration": 0.133333499999992,
          "durationTicks": 48,
          "midi": 65,
          "name": "F4",
          "ticks": 49680,
          "time": 138.0001725,
          "velocity": 0.7952755905511811
        },
        {
          "duration": 0.1555557500000191,
          "durationTicks": 56,
          "midi": 66,
          "name": "F#4",
          "ticks": 49728,
          "time": 138.13350599999998,
          "velocity": 0.7952755905511811
        },
        {
          "duration": 0.266666999999984,
          "durationTicks": 96,
          "midi": 61,
          "name": "C#4",
          "ticks": 49824,
          "time": 138.400173,
          "velocity": 0.7952755905511811
        },
        {
          "duration": 0.2666670000000124,
          "durationTicks": 96,
          "midi": 73,
          "name": "C#5",
          "ticks": 49920,
          "time": 138.66683999999998,
          "velocity": 0.7952755905511811
        },
        {
          "duration": 0.066666749999996,
          "durationTicks": 24,
          "midi": 69,
          "name": "A4",
          "ticks": 50064,
          "time": 139.06684049999998,
          "velocity": 0.7952755905511811
        },
        {
          "duration": 0.266666999999984,
          "durationTicks": 96,
          "midi": 68,
          "name": "G#4",
          "ticks": 50112,
          "time": 139.200174,
          "velocity": 0.7952755905511811
        },
        {
          "duration": 0.13333350000002042,
          "durationTicks": 48,
          "midi": 65,
          "name": "F4",
          "ticks": 50256,
          "time": 139.60017449999998,
          "velocity": 0.7952755905511811
        },
        {
          "duration": 0.03333337499998379,
          "durationTicks": 12,
          "midi": 66,
          "name": "F#4",
          "ticks": 50304,
          "time": 139.733508,
          "velocity": 0.7952755905511811
        },
        {
          "duration": 0.24444475000001376,
          "durationTicks": 88,
          "midi": 68,
          "name": "G#4",
          "ticks": 50311,
          "time": 139.75295246874998,
          "velocity": 0.7952755905511811
        },
        {
          "duration": 0.2666670000000124,
          "durationTicks": 96,
          "midi": 71,
          "name": "B4",
          "ticks": 50400,
          "time": 140.00017499999998,
          "velocity": 0.7952755905511811
        },
        {
          "duration": 0.266666999999984,
          "durationTicks": 96,
          "midi": 69,
          "name": "A4",
          "ticks": 50496,
          "time": 140.266842,
          "velocity": 0.7952755905511811
        },
        {
          "duration": 0.2666670000000124,
          "durationTicks": 96,
          "midi": 73,
          "name": "C#5",
          "ticks": 50688,
          "time": 140.800176,
          "velocity": 0.7952755905511811
        },
        {
          "duration": 0.066666749999996,
          "durationTicks": 24,
          "midi": 69,
          "name": "A4",
          "ticks": 50832,
          "time": 141.2001765,
          "velocity": 0.7952755905511811
        },
        {
          "duration": 0.2666670000000124,
          "durationTicks": 96,
          "midi": 68,
          "name": "G#4",
          "ticks": 50880,
          "time": 141.33351,
          "velocity": 0.7952755905511811
        },
        {
          "duration": 0.133333499999992,
          "durationTicks": 48,
          "midi": 65,
          "name": "F4",
          "ticks": 51024,
          "time": 141.7335105,
          "velocity": 0.7952755905511811
        },
        {
          "duration": 0.13333350000002042,
          "durationTicks": 48,
          "midi": 68,
          "name": "G#4",
          "ticks": 51072,
          "time": 141.866844,
          "velocity": 0.7952755905511811
        },
        {
          "duration": 0.133333499999992,
          "durationTicks": 48,
          "midi": 66,
          "name": "F#4",
          "ticks": 51168,
          "time": 142.133511,
          "velocity": 0.7952755905511811
        },
        {
          "duration": 0.133333499999992,
          "durationTicks": 48,
          "midi": 65,
          "name": "F4",
          "ticks": 51216,
          "time": 142.2668445,
          "velocity": 0.7952755905511811
        },
        {
          "duration": 0.2666670000000124,
          "durationTicks": 96,
          "midi": 66,
          "name": "F#4",
          "ticks": 51264,
          "time": 142.40017799999998,
          "velocity": 0.7952755905511811
        },
        {
          "duration": 0.2666670000000124,
          "durationTicks": 96,
          "midi": 61,
          "name": "C#4",
          "ticks": 51360,
          "time": 142.666845,
          "velocity": 0.7952755905511811
        },
        {
          "duration": 0.266666999999984,
          "durationTicks": 96,
          "midi": 73,
          "name": "C#5",
          "ticks": 51456,
          "time": 142.933512,
          "velocity": 0.7952755905511811
        },
        {
          "duration": 0.066666749999996,
          "durationTicks": 24,
          "midi": 69,
          "name": "A4",
          "ticks": 51600,
          "time": 143.33351249999998,
          "velocity": 0.7952755905511811
        },
        {
          "duration": 0.266666999999984,
          "durationTicks": 96,
          "midi": 68,
          "name": "G#4",
          "ticks": 51648,
          "time": 143.466846,
          "velocity": 0.7952755905511811
        },
        {
          "duration": 0.13333350000002042,
          "durationTicks": 48,
          "midi": 68,
          "name": "G#4",
          "ticks": 51792,
          "time": 143.86684649999998,
          "velocity": 0.7952755905511811
        },
        {
          "duration": 0.133333499999992,
          "durationTicks": 48,
          "midi": 69,
          "name": "A4",
          "ticks": 51840,
          "time": 144.00018,
          "velocity": 0.7952755905511811
        },
        {
          "duration": 0.13333350000002042,
          "durationTicks": 48,
          "midi": 71,
          "name": "B4",
          "ticks": 51936,
          "time": 144.26684699999998,
          "velocity": 0.7952755905511811
        },
        {
          "duration": 0.266666999999984,
          "durationTicks": 96,
          "midi": 73,
          "name": "C#5",
          "ticks": 52032,
          "time": 144.533514,
          "velocity": 0.7952755905511811
        },
        {
          "duration": 0.23055584375001104,
          "durationTicks": 83,
          "midi": 73,
          "name": "C#5",
          "ticks": 54624,
          "time": 151.733523,
          "velocity": 0.7952755905511811
        },
        {
          "duration": 0.23055584375001104,
          "durationTicks": 83,
          "midi": 71,
          "name": "B4",
          "ticks": 54720,
          "time": 152.00019,
          "velocity": 0.7952755905511811
        },
        {
          "duration": 0.13055571875000282,
          "durationTicks": 47,
          "midi": 63,
          "name": "D#4",
          "ticks": 54816,
          "time": 152.266857,
          "velocity": 0.7952755905511811
        },
        {
          "duration": 0.13055571875003125,
          "durationTicks": 47,
          "midi": 64,
          "name": "E4",
          "ticks": 54864,
          "time": 152.40019049999998,
          "velocity": 0.7952755905511811
        },
        {
          "duration": 0.39722271875001525,
          "durationTicks": 143,
          "midi": 66,
          "name": "F#4",
          "ticks": 54960,
          "time": 152.6668575,
          "velocity": 0.7952755905511811
        },
        {
          "duration": 0.13055571875000282,
          "durationTicks": 47,
          "midi": 66,
          "name": "F#4",
          "ticks": 55104,
          "time": 153.066858,
          "velocity": 0.7952755905511811
        },
        {
          "duration": 0.13055571875000282,
          "durationTicks": 47,
          "midi": 66,
          "name": "F#4",
          "ticks": 55152,
          "time": 153.2001915,
          "velocity": 0.7952755905511811
        },
        {
          "duration": 0.13055571875003125,
          "durationTicks": 47,
          "midi": 68,
          "name": "G#4",
          "ticks": 55200,
          "time": 153.33352499999998,
          "velocity": 0.7952755905511811
        },
        {
          "duration": 0.23055584375001104,
          "durationTicks": 83,
          "midi": 73,
          "name": "C#5",
          "ticks": 55392,
          "time": 153.866859,
          "velocity": 0.7952755905511811
        },
        {
          "duration": 0.23055584375001104,
          "durationTicks": 83,
          "midi": 71,
          "name": "B4",
          "ticks": 55488,
          "time": 154.133526,
          "velocity": 0.7952755905511811
        },
        {
          "duration": 0.13055571875000282,
          "durationTicks": 47,
          "midi": 63,
          "name": "D#4",
          "ticks": 55584,
          "time": 154.400193,
          "velocity": 0.7952755905511811
        },
        {
          "duration": 0.26388921875002325,
          "durationTicks": 95,
          "midi": 64,
          "name": "E4",
          "ticks": 55632,
          "time": 154.5335265,
          "velocity": 0.7952755905511811
        },
        {
          "duration": 0.3972227187499868,
          "durationTicks": 143,
          "midi": 66,
          "name": "F#4",
          "ticks": 55728,
          "time": 154.8001935,
          "velocity": 0.7952755905511811
        },
        {
          "duration": 0.13055571875003125,
          "durationTicks": 47,
          "midi": 66,
          "name": "F#4",
          "ticks": 55872,
          "time": 155.20019399999998,
          "velocity": 0.7952755905511811
        },
        {
          "duration": 0.13055571875000282,
          "durationTicks": 47,
          "midi": 66,
          "name": "F#4",
          "ticks": 55920,
          "time": 155.3335275,
          "velocity": 0.7952755905511811
        },
        {
          "duration": 0.13055571875000282,
          "durationTicks": 47,
          "midi": 68,
          "name": "G#4",
          "ticks": 55968,
          "time": 155.466861,
          "velocity": 0.7952755905511811
        },
        {
          "duration": 0.26388921875002325,
          "durationTicks": 95,
          "midi": 61,
          "name": "C#4",
          "ticks": 56064,
          "time": 155.73352799999998,
          "velocity": 0.7952755905511811
        },
        {
          "duration": 0.26388921875002325,
          "durationTicks": 95,
          "midi": 65,
          "name": "F4",
          "ticks": 56064,
          "time": 155.73352799999998,
          "velocity": 0.7952755905511811
        },
        {
          "duration": 0.13055571875003125,
          "durationTicks": 47,
          "midi": 61,
          "name": "C#4",
          "ticks": 56208,
          "time": 156.13352849999998,
          "velocity": 0.7952755905511811
        },
        {
          "duration": 0.13055571875003125,
          "durationTicks": 47,
          "midi": 66,
          "name": "F#4",
          "ticks": 56208,
          "time": 156.13352849999998,
          "velocity": 0.7952755905511811
        },
        {
          "duration": 0.2638892187499948,
          "durationTicks": 95,
          "midi": 65,
          "name": "F4",
          "ticks": 56256,
          "time": 156.266862,
          "velocity": 0.7952755905511811
        },
        {
          "duration": 0.2638892187499948,
          "durationTicks": 95,
          "midi": 61,
          "name": "C#4",
          "ticks": 56256,
          "time": 156.266862,
          "velocity": 0.7952755905511811
        },
        {
          "duration": 0.13055571875003125,
          "durationTicks": 47,
          "midi": 61,
          "name": "C#4",
          "ticks": 56400,
          "time": 156.66686249999998,
          "velocity": 0.7952755905511811
        },
        {
          "duration": 0.13055571875003125,
          "durationTicks": 47,
          "midi": 66,
          "name": "F#4",
          "ticks": 56400,
          "time": 156.66686249999998,
          "velocity": 0.7952755905511811
        },
        {
          "duration": 0.5305562187500072,
          "durationTicks": 191,
          "midi": 61,
          "name": "C#4",
          "ticks": 56448,
          "time": 156.800196,
          "velocity": 0.7952755905511811
        },
        {
          "duration": 0.5305562187500072,
          "durationTicks": 191,
          "midi": 65,
          "name": "F4",
          "ticks": 56448,
          "time": 156.800196,
          "velocity": 0.7952755905511811
        },
        {
          "duration": 0.26388921875002325,
          "durationTicks": 95,
          "midi": 65,
          "name": "F4",
          "ticks": 56832,
          "time": 157.866864,
          "velocity": 0.7952755905511811
        },
        {
          "duration": 0.26388921875002325,
          "durationTicks": 95,
          "midi": 70,
          "name": "A#4",
          "ticks": 56832,
          "time": 157.866864,
          "velocity": 0.7952755905511811
        },
        {
          "duration": 0.13055571875000282,
          "durationTicks": 47,
          "midi": 70,
          "name": "A#4",
          "ticks": 56976,
          "time": 158.2668645,
          "velocity": 0.7952755905511811
        },
        {
          "duration": 0.13055571875000282,
          "durationTicks": 47,
          "midi": 65,
          "name": "F4",
          "ticks": 56976,
          "time": 158.2668645,
          "velocity": 0.7952755905511811
        },
        {
          "duration": 0.26388921875002325,
          "durationTicks": 95,
          "midi": 65,
          "name": "F4",
          "ticks": 57024,
          "time": 158.400198,
          "velocity": 0.7952755905511811
        },
        {
          "duration": 0.26388921875002325,
          "durationTicks": 95,
          "midi": 70,
          "name": "A#4",
          "ticks": 57024,
          "time": 158.400198,
          "velocity": 0.7952755905511811
        },
        {
          "duration": 0.13055571875000282,
          "durationTicks": 47,
          "midi": 70,
          "name": "A#4",
          "ticks": 57168,
          "time": 158.8001985,
          "velocity": 0.7952755905511811
        },
        {
          "duration": 0.13055571875000282,
          "durationTicks": 47,
          "midi": 65,
          "name": "F4",
          "ticks": 57168,
          "time": 158.8001985,
          "velocity": 0.7952755905511811
        },
        {
          "duration": 0.5305562187500072,
          "durationTicks": 191,
          "midi": 70,
          "name": "A#4",
          "ticks": 57216,
          "time": 158.93353199999999,
          "velocity": 0.7952755905511811
        },
        {
          "duration": 0.5305562187500072,
          "durationTicks": 191,
          "midi": 65,
          "name": "F4",
          "ticks": 57216,
          "time": 158.93353199999999,
          "velocity": 0.7952755905511811
        },
        {
          "duration": 0.066666749999996,
          "durationTicks": 24,
          "midi": 66,
          "name": "F#4",
          "ticks": 61104,
          "time": 169.7335455,
          "velocity": 0.7952755905511811
        },
        {
          "duration": 0.066666749999996,
          "durationTicks": 24,
          "midi": 66,
          "name": "F#4",
          "ticks": 61152,
          "time": 169.86687899999998,
          "velocity": 0.7952755905511811
        },
        {
          "duration": 0.066666749999996,
          "durationTicks": 24,
          "midi": 66,
          "name": "F#4",
          "ticks": 61248,
          "time": 170.133546,
          "velocity": 0.7952755905511811
        },
        {
          "duration": 0.066666749999996,
          "durationTicks": 24,
          "midi": 66,
          "name": "F#4",
          "ticks": 61296,
          "time": 170.2668795,
          "velocity": 0.7952755905511811
        },
        {
          "duration": 0.266666999999984,
          "durationTicks": 96,
          "midi": 66,
          "name": "F#4",
          "ticks": 61392,
          "time": 170.5335465,
          "velocity": 0.7952755905511811
        },
        {
          "duration": 0.066666749999996,
          "durationTicks": 24,
          "midi": 65,
          "name": "F4",
          "ticks": 61488,
          "time": 170.80021349999998,
          "velocity": 0.7952755905511811
        },
        {
          "duration": 0.066666749999996,
          "durationTicks": 24,
          "midi": 66,
          "name": "F#4",
          "ticks": 61536,
          "time": 170.933547,
          "velocity": 0.7952755905511811
        },
        {
          "duration": 0.066666749999996,
          "durationTicks": 24,
          "midi": 65,
          "name": "F4",
          "ticks": 61584,
          "time": 171.0668805,
          "velocity": 0.7952755905511811
        },
        {
          "duration": 0.066666749999996,
          "durationTicks": 24,
          "midi": 66,
          "name": "F#4",
          "ticks": 61632,
          "time": 171.200214,
          "velocity": 0.7952755905511811
        },
        {
          "duration": 0.2666670000000124,
          "durationTicks": 96,
          "midi": 66,
          "name": "F#4",
          "ticks": 62976,
          "time": 174.933552,
          "velocity": 0.7952755905511811
        },
        {
          "duration": 0.266666999999984,
          "durationTicks": 96,
          "midi": 66,
          "name": "F#4",
          "ticks": 63072,
          "time": 175.200219,
          "velocity": 0.7952755905511811
        },
        {
          "duration": 0.03333337500001221,
          "durationTicks": 12,
          "midi": 64,
          "name": "E4",
          "ticks": 63168,
          "time": 175.466886,
          "velocity": 0.7952755905511811
        },
        {
          "duration": 0.2333336250000002,
          "durationTicks": 84,
          "midi": 65,
          "name": "F4",
          "ticks": 63180,
          "time": 175.500219375,
          "velocity": 0.7952755905511811
        },
        {
          "duration": 0.266666999999984,
          "durationTicks": 96,
          "midi": 63,
          "name": "D#4",
          "ticks": 63264,
          "time": 175.733553,
          "velocity": 0.7952755905511811
        },
        {
          "duration": 0.13333350000002042,
          "durationTicks": 48,
          "midi": 63,
          "name": "D#4",
          "ticks": 63360,
          "time": 176.00021999999998,
          "velocity": 0.7952755905511811
        },
        {
          "duration": 0.133333499999992,
          "durationTicks": 48,
          "midi": 75,
          "name": "D#5",
          "ticks": 63408,
          "time": 176.1335535,
          "velocity": 0.7952755905511811
        },
        {
          "duration": 0.066666749999996,
          "durationTicks": 24,
          "midi": 58,
          "name": "A#3",
          "ticks": 63504,
          "time": 176.4002205,
          "velocity": 0.7952755905511811
        },
        {
          "duration": 0.066666749999996,
          "durationTicks": 24,
          "midi": 60,
          "name": "C4",
          "ticks": 63528,
          "time": 176.46688724999998,
          "velocity": 0.7952755905511811
        },
        {
          "duration": 0.03333337500001221,
          "durationTicks": 12,
          "midi": 62,
          "name": "D4",
          "ticks": 63552,
          "time": 176.53355399999998,
          "velocity": 0.7952755905511811
        },
        {
          "duration": 0.03333337499998379,
          "durationTicks": 12,
          "midi": 62,
          "name": "D4",
          "ticks": 63576,
          "time": 176.60022075,
          "velocity": 0.7952755905511811
        },
        {
          "duration": 0.03333337499998379,
          "durationTicks": 12,
          "midi": 62,
          "name": "D4",
          "ticks": 63600,
          "time": 176.6668875,
          "velocity": 0.7952755905511811
        },
        {
          "duration": 0.03333337499998379,
          "durationTicks": 12,
          "midi": 62,
          "name": "D4",
          "ticks": 63624,
          "time": 176.73355425,
          "velocity": 0.7952755905511811
        },
        {
          "duration": 0.066666749999996,
          "durationTicks": 24,
          "midi": 70,
          "name": "A#4",
          "ticks": 63648,
          "time": 176.800221,
          "velocity": 0.7952755905511811
        },
        {
          "duration": 0.04444449999999733,
          "durationTicks": 16,
          "midi": 62,
          "name": "D4",
          "ticks": 63696,
          "time": 176.93355449999999,
          "velocity": 0.7952755905511811
        },
        {
          "duration": 0.04444449999999733,
          "durationTicks": 16,
          "midi": 63,
          "name": "D#4",
          "ticks": 63720,
          "time": 177.00022124999998,
          "velocity": 0.7952755905511811
        },
        {
          "duration": 0.03333337499998379,
          "durationTicks": 12,
          "midi": 63,
          "name": "D#4",
          "ticks": 63768,
          "time": 177.13355475,
          "velocity": 0.7952755905511811
        },
        {
          "duration": 0.03333337499998379,
          "durationTicks": 12,
          "midi": 63,
          "name": "D#4",
          "ticks": 63792,
          "time": 177.2002215,
          "velocity": 0.7952755905511811
        },
        {
          "duration": 0.03333337499998379,
          "durationTicks": 12,
          "midi": 63,
          "name": "D#4",
          "ticks": 63816,
          "time": 177.26688825,
          "velocity": 0.7952755905511811
        },
        {
          "duration": 0.133333499999992,
          "durationTicks": 48,
          "midi": 70,
          "name": "A#4",
          "ticks": 63840,
          "time": 177.333555,
          "velocity": 0.7952755905511811
        },
        {
          "duration": 0.05555562500001088,
          "durationTicks": 20,
          "midi": 66,
          "name": "F#4",
          "ticks": 63888,
          "time": 177.46688849999998,
          "velocity": 0.8188976377952756
        },
        {
          "duration": 0.06666675000002442,
          "durationTicks": 24,
          "midi": 63,
          "name": "D#4",
          "ticks": 63912,
          "time": 177.53355524999998,
          "velocity": 0.7952755905511811
        },
        {
          "duration": 0.03333337499998379,
          "durationTicks": 12,
          "midi": 66,
          "name": "F#4",
          "ticks": 63936,
          "time": 177.600222,
          "velocity": 0.7952755905511811
        },
        {
          "duration": 0.03333337499998379,
          "durationTicks": 12,
          "midi": 66,
          "name": "F#4",
          "ticks": 63960,
          "time": 177.66688875,
          "velocity": 0.7952755905511811
        },
        {
          "duration": 0.03333337499998379,
          "durationTicks": 12,
          "midi": 66,
          "name": "F#4",
          "ticks": 63984,
          "time": 177.7335555,
          "velocity": 0.7952755905511811
        },
        {
          "duration": 0.03333337500001221,
          "durationTicks": 12,
          "midi": 66,
          "name": "F#4",
          "ticks": 64008,
          "time": 177.80022225,
          "velocity": 0.7952755905511811
        },
        {
          "duration": 0.133333499999992,
          "durationTicks": 48,
          "midi": 70,
          "name": "A#4",
          "ticks": 64032,
          "time": 177.866889,
          "velocity": 0.7952755905511811
        },
        {
          "duration": 0.13333350000002042,
          "durationTicks": 48,
          "midi": 67,
          "name": "G4",
          "ticks": 64080,
          "time": 178.00022249999998,
          "velocity": 0.7952755905511811
        },
        {
          "duration": 0.133333499999992,
          "durationTicks": 48,
          "midi": 68,
          "name": "G#4",
          "ticks": 64128,
          "time": 178.133556,
          "velocity": 0.7952755905511811
        },
        {
          "duration": 0.133333499999992,
          "durationTicks": 48,
          "midi": 67,
          "name": "G4",
          "ticks": 64176,
          "time": 178.2668895,
          "velocity": 0.7952755905511811
        },
        {
          "duration": 0.13333350000002042,
          "durationTicks": 48,
          "midi": 66,
          "name": "F#4",
          "ticks": 64224,
          "time": 178.40022299999998,
          "velocity": 0.7952755905511811
        },
        {
          "duration": 0.133333499999992,
          "durationTicks": 48,
          "midi": 65,
          "name": "F4",
          "ticks": 64272,
          "time": 178.5335565,
          "velocity": 0.7952755905511811
        },
        {
          "duration": 0.133333499999992,
          "durationTicks": 48,
          "midi": 65,
          "name": "F4",
          "ticks": 64320,
          "time": 178.66689,
          "velocity": 0.7952755905511811
        },
        {
          "duration": 0.133333499999992,
          "durationTicks": 48,
          "midi": 64,
          "name": "E4",
          "ticks": 64368,
          "time": 178.8002235,
          "velocity": 0.7952755905511811
        },
        {
          "duration": 0.13333350000002042,
          "durationTicks": 48,
          "midi": 63,
          "name": "D#4",
          "ticks": 64416,
          "time": 178.93355699999998,
          "velocity": 0.7952755905511811
        },
        {
          "duration": 0.133333499999992,
          "durationTicks": 48,
          "midi": 62,
          "name": "D4",
          "ticks": 64464,
          "time": 179.0668905,
          "velocity": 0.7952755905511811
        },
        {
          "duration": 0.133333499999992,
          "durationTicks": 48,
          "midi": 62,
          "name": "D4",
          "ticks": 64512,
          "time": 179.200224,
          "velocity": 0.7952755905511811
        },
        {
          "duration": 0.13333350000002042,
          "durationTicks": 48,
          "midi": 63,
          "name": "D#4",
          "ticks": 64560,
          "time": 179.33355749999998,
          "velocity": 0.7952755905511811
        },
        {
          "duration": 0.133333499999992,
          "durationTicks": 48,
          "midi": 62,
          "name": "D4",
          "ticks": 64608,
          "time": 179.466891,
          "velocity": 0.7952755905511811
        },
        {
          "duration": 0.133333499999992,
          "durationTicks": 48,
          "midi": 63,
          "name": "D#4",
          "ticks": 64656,
          "time": 179.6002245,
          "velocity": 0.7952755905511811
        },
        {
          "duration": 0.133333499999992,
          "durationTicks": 48,
          "midi": 65,
          "name": "F4",
          "ticks": 64704,
          "time": 179.733558,
          "velocity": 0.7952755905511811
        },
        {
          "duration": 0.13333350000002042,
          "durationTicks": 48,
          "midi": 66,
          "name": "F#4",
          "ticks": 64752,
          "time": 179.86689149999998,
          "velocity": 0.7952755905511811
        },
        {
          "duration": 0.133333499999992,
          "durationTicks": 48,
          "midi": 65,
          "name": "F4",
          "ticks": 64800,
          "time": 180.000225,
          "velocity": 0.7952755905511811
        },
        {
          "duration": 0.133333499999992,
          "durationTicks": 48,
          "midi": 66,
          "name": "F#4",
          "ticks": 64848,
          "time": 180.1335585,
          "velocity": 0.7952755905511811
        },
        {
          "duration": 0.13333350000002042,
          "durationTicks": 48,
          "midi": 70,
          "name": "A#4",
          "ticks": 64896,
          "time": 180.26689199999998,
          "velocity": 0.7322834645669292
        },
        {
          "duration": 0.133333499999992,
          "durationTicks": 48,
          "midi": 71,
          "name": "B4",
          "ticks": 64944,
          "time": 180.4002255,
          "velocity": 0.7322834645669292
        },
        {
          "duration": 0.133333499999992,
          "durationTicks": 48,
          "midi": 70,
          "name": "A#4",
          "ticks": 64992,
          "time": 180.533559,
          "velocity": 0.7322834645669292
        },
        {
          "duration": 0.133333499999992,
          "durationTicks": 48,
          "midi": 71,
          "name": "B4",
          "ticks": 65040,
          "time": 180.6668925,
          "velocity": 0.7322834645669292
        },
        {
          "duration": 0.13333350000002042,
          "durationTicks": 48,
          "midi": 74,
          "name": "D5",
          "ticks": 65088,
          "time": 180.80022599999998,
          "velocity": 0.7952755905511811
        },
        {
          "duration": 0.133333499999992,
          "durationTicks": 48,
          "midi": 75,
          "name": "D#5",
          "ticks": 65136,
          "time": 180.9335595,
          "velocity": 0.7952755905511811
        },
        {
          "duration": 0.133333499999992,
          "durationTicks": 48,
          "midi": 74,
          "name": "D5",
          "ticks": 65184,
          "time": 181.066893,
          "velocity": 0.7952755905511811
        },
        {
          "duration": 0.133333499999992,
          "durationTicks": 48,
          "midi": 75,
          "name": "D#5",
          "ticks": 65232,
          "time": 181.20022649999999,
          "velocity": 0.7952755905511811
        },
        {
          "duration": 0.13333350000002042,
          "durationTicks": 48,
          "midi": 74,
          "name": "D5",
          "ticks": 65280,
          "time": 181.33355999999998,
          "velocity": 0.7952755905511811
        },
        {
          "duration": 0.2666670000000124,
          "durationTicks": 96,
          "midi": 70,
          "name": "A#4",
          "ticks": 66048,
          "time": 183.466896,
          "velocity": 0.7952755905511811
        },
        {
          "duration": 0.03333337499998379,
          "durationTicks": 12,
          "midi": 69,
          "name": "A4",
          "ticks": 66192,
          "time": 183.8668965,
          "velocity": 0.7952755905511811
        },
        {
          "duration": 0.03333337500001221,
          "durationTicks": 12,
          "midi": 69,
          "name": "A4",
          "ticks": 66216,
          "time": 183.93356325,
          "velocity": 0.7952755905511811
        },
        {
          "duration": 0.2666670000000124,
          "durationTicks": 96,
          "midi": 70,
          "name": "A#4",
          "ticks": 66240,
          "time": 184.00023,
          "velocity": 0.7952755905511811
        },
        {
          "duration": 0.133333499999992,
          "durationTicks": 48,
          "midi": 69,
          "name": "A4",
          "ticks": 66384,
          "time": 184.4002305,
          "velocity": 0.7952755905511811
        },
        {
          "duration": 0.13333350000002042,
          "durationTicks": 48,
          "midi": 70,
          "name": "A#4",
          "ticks": 66432,
          "time": 184.53356399999998,
          "velocity": 0.7952755905511811
        },
        {
          "duration": 0.133333499999992,
          "durationTicks": 48,
          "midi": 69,
          "name": "A4",
          "ticks": 66480,
          "time": 184.6668975,
          "velocity": 0.7952755905511811
        },
        {
          "duration": 0.133333499999992,
          "durationTicks": 48,
          "midi": 70,
          "name": "A#4",
          "ticks": 66528,
          "time": 184.800231,
          "velocity": 0.7952755905511811
        },
        {
          "duration": 0.133333499999992,
          "durationTicks": 48,
          "midi": 69,
          "name": "A4",
          "ticks": 66576,
          "time": 184.9335645,
          "velocity": 0.7952755905511811
        },
        {
          "duration": 0.2666670000000124,
          "durationTicks": 96,
          "midi": 70,
          "name": "A#4",
          "ticks": 66624,
          "time": 185.06689799999998,
          "velocity": 0.7952755905511811
        },
        {
          "duration": 0.03333337500001221,
          "durationTicks": 12,
          "midi": 74,
          "name": "D5",
          "ticks": 66720,
          "time": 185.333565,
          "velocity": 0.7952755905511811
        },
        {
          "duration": 0.2333336250000002,
          "durationTicks": 84,
          "midi": 77,
          "name": "F5",
          "ticks": 66732,
          "time": 185.366898375,
          "velocity": 0.7952755905511811
        },
        {
          "duration": 0.266666999999984,
          "durationTicks": 96,
          "midi": 67,
          "name": "G4",
          "ticks": 66816,
          "time": 185.600232,
          "velocity": 0.7952755905511811
        },
        {
          "duration": 0.03333337500001221,
          "durationTicks": 12,
          "midi": 68,
          "name": "G#4",
          "ticks": 66912,
          "time": 185.866899,
          "velocity": 0.7952755905511811
        },
        {
          "duration": 0.2333336250000002,
          "durationTicks": 84,
          "midi": 69,
          "name": "A4",
          "ticks": 66924,
          "time": 185.900232375,
          "velocity": 0.7952755905511811
        },
        {
          "duration": 0.133333499999992,
          "durationTicks": 48,
          "midi": 62,
          "name": "D4",
          "ticks": 67008,
          "time": 186.133566,
          "velocity": 0.7952755905511811
        },
        {
          "duration": 0.133333499999992,
          "durationTicks": 48,
          "midi": 64,
          "name": "E4",
          "ticks": 67056,
          "time": 186.2668995,
          "velocity": 0.7952755905511811
        },
        {
          "duration": 0.133333499999992,
          "durationTicks": 48,
          "midi": 66,
          "name": "F#4",
          "ticks": 67104,
          "time": 186.400233,
          "velocity": 0.7952755905511811
        },
        {
          "duration": 0.13333350000002042,
          "durationTicks": 48,
          "midi": 67,
          "name": "G4",
          "ticks": 67152,
          "time": 186.53356649999998,
          "velocity": 0.7952755905511811
        },
        {
          "duration": 0.266666999999984,
          "durationTicks": 96,
          "midi": 70,
          "name": "A#4",
          "ticks": 67200,
          "time": 186.6669,
          "velocity": 0.7952755905511811
        },
        {
          "duration": 0.2666670000000124,
          "durationTicks": 96,
          "midi": 70,
          "name": "A#4",
          "ticks": 67296,
          "time": 186.93356699999998,
          "velocity": 0.7952755905511811
        },
        {
          "duration": 0.03333337499998379,
          "durationTicks": 12,
          "midi": 68,
          "name": "G#4",
          "ticks": 67392,
          "time": 187.200234,
          "velocity": 0.7952755905511811
        },
        {
          "duration": 0.2333336250000002,
          "durationTicks": 84,
          "midi": 69,
          "name": "A4",
          "ticks": 67404,
          "time": 187.23356737499998,
          "velocity": 0.7952755905511811
        },
        {
          "duration": 0.2666670000000124,
          "durationTicks": 96,
          "midi": 67,
          "name": "G4",
          "ticks": 67488,
          "time": 187.46690099999998,
          "velocity": 0.7952755905511811
        },
        {
          "duration": 0.133333499999992,
          "durationTicks": 48,
          "midi": 67,
          "name": "G4",
          "ticks": 67584,
          "time": 187.733568,
          "velocity": 0.7952755905511811
        },
        {
          "duration": 0.13333350000002042,
          "durationTicks": 48,
          "midi": 79,
          "name": "G5",
          "ticks": 67632,
          "time": 187.86690149999998,
          "velocity": 0.7952755905511811
        },
        {
          "duration": 0.066666749999996,
          "durationTicks": 24,
          "midi": 62,
          "name": "D4",
          "ticks": 67728,
          "time": 188.1335685,
          "velocity": 0.7952755905511811
        },
        {
          "duration": 0.066666749999996,
          "durationTicks": 24,
          "midi": 64,
          "name": "E4",
          "ticks": 67752,
          "time": 188.20023525,
          "velocity": 0.7952755905511811
        },
        {
          "duration": 0.03333337500001221,
          "durationTicks": 12,
          "midi": 66,
          "name": "F#4",
          "ticks": 67776,
          "time": 188.266902,
          "velocity": 0.7952755905511811
        },
        {
          "duration": 0.03333337500001221,
          "durationTicks": 12,
          "midi": 66,
          "name": "F#4",
          "ticks": 67824,
          "time": 188.40023549999998,
          "velocity": 0.7952755905511811
        },
        {
          "duration": 0.03333337499998379,
          "durationTicks": 12,
          "midi": 66,
          "name": "F#4",
          "ticks": 67848,
          "time": 188.46690225,
          "velocity": 0.7952755905511811
        },
        {
          "duration": 0.066666749999996,
          "durationTicks": 24,
          "midi": 74,
          "name": "D5",
          "ticks": 67872,
          "time": 188.533569,
          "velocity": 0.7952755905511811
        },
        {
          "duration": 0.04444449999999733,
          "durationTicks": 16,
          "midi": 66,
          "name": "F#4",
          "ticks": 67896,
          "time": 188.60023575,
          "velocity": 0.7952755905511811
        },
        {
          "duration": 0.04444449999999733,
          "durationTicks": 16,
          "midi": 66,
          "name": "F#4",
          "ticks": 67920,
          "time": 188.6669025,
          "velocity": 0.7952755905511811
        },
        {
          "duration": 0.10000012500000821,
          "durationTicks": 36,
          "midi": 67,
          "name": "G4",
          "ticks": 67944,
          "time": 188.73356925,
          "velocity": 0.7952755905511811
        },
        {
          "duration": 0.03333337499998379,
          "durationTicks": 12,
          "midi": 67,
          "name": "G4",
          "ticks": 68016,
          "time": 188.9335695,
          "velocity": 0.7952755905511811
        },
        {
          "duration": 0.03333337499998379,
          "durationTicks": 12,
          "midi": 67,
          "name": "G4",
          "ticks": 68040,
          "time": 189.00023625,
          "velocity": 0.7952755905511811
        },
        {
          "duration": 0.133333499999992,
          "durationTicks": 48,
          "midi": 74,
          "name": "D5",
          "ticks": 68064,
          "time": 189.066903,
          "velocity": 0.7952755905511811
        },
        {
          "duration": 0.133333499999992,
          "durationTicks": 48,
          "midi": 67,
          "name": "G4",
          "ticks": 68112,
          "time": 189.2002365,
          "velocity": 0.7952755905511811
        },
        {
          "duration": 0.07777787500000954,
          "durationTicks": 28,
          "midi": 70,
          "name": "A#4",
          "ticks": 68160,
          "time": 189.33356999999998,
          "velocity": 0.7952755905511811
        },
        {
          "duration": 0.07777787499998112,
          "durationTicks": 28,
          "midi": 70,
          "name": "A#4",
          "ticks": 68208,
          "time": 189.4669035,
          "velocity": 0.7952755905511811
        },
        {
          "duration": 0.133333499999992,
          "durationTicks": 48,
          "midi": 74,
          "name": "D5",
          "ticks": 68256,
          "time": 189.600237,
          "velocity": 0.7952755905511811
        },
        {
          "duration": 0.133333499999992,
          "durationTicks": 48,
          "midi": 71,
          "name": "B4",
          "ticks": 68304,
          "time": 189.73357049999998,
          "velocity": 0.7952755905511811
        },
        {
          "duration": 0.13333350000002042,
          "durationTicks": 48,
          "midi": 72,
          "name": "C5",
          "ticks": 68352,
          "time": 189.86690399999998,
          "velocity": 0.7952755905511811
        },
        {
          "duration": 0.133333499999992,
          "durationTicks": 48,
          "midi": 71,
          "name": "B4",
          "ticks": 68400,
          "time": 190.0002375,
          "velocity": 0.7952755905511811
        },
        {
          "duration": 0.133333499999992,
          "durationTicks": 48,
          "midi": 70,
          "name": "A#4",
          "ticks": 68448,
          "time": 190.133571,
          "velocity": 0.7952755905511811
        },
        {
          "duration": 0.13333350000002042,
          "durationTicks": 48,
          "midi": 69,
          "name": "A4",
          "ticks": 68496,
          "time": 190.26690449999998,
          "velocity": 0.7952755905511811
        },
        {
          "duration": 0.133333499999992,
          "durationTicks": 48,
          "midi": 69,
          "name": "A4",
          "ticks": 68544,
          "time": 190.400238,
          "velocity": 0.7952755905511811
        },
        {
          "duration": 0.133333499999992,
          "durationTicks": 48,
          "midi": 68,
          "name": "G#4",
          "ticks": 68592,
          "time": 190.5335715,
          "velocity": 0.7952755905511811
        },
        {
          "duration": 0.133333499999992,
          "durationTicks": 48,
          "midi": 67,
          "name": "G4",
          "ticks": 68640,
          "time": 190.66690499999999,
          "velocity": 0.7952755905511811
        },
        {
          "duration": 0.13333350000002042,
          "durationTicks": 48,
          "midi": 66,
          "name": "F#4",
          "ticks": 68688,
          "time": 190.80023849999998,
          "velocity": 0.7952755905511811
        },
        {
          "duration": 0.133333499999992,
          "durationTicks": 48,
          "midi": 67,
          "name": "G4",
          "ticks": 68736,
          "time": 190.933572,
          "velocity": 0.7952755905511811
        },
        {
          "duration": 0.133333499999992,
          "durationTicks": 48,
          "midi": 67,
          "name": "G4",
          "ticks": 68784,
          "time": 191.0669055,
          "velocity": 0.7952755905511811
        },
        {
          "duration": 0.13333350000002042,
          "durationTicks": 48,
          "midi": 67,
          "name": "G4",
          "ticks": 68832,
          "time": 191.20023899999998,
          "velocity": 0.7952755905511811
        },
        {
          "duration": 0.133333499999992,
          "durationTicks": 48,
          "midi": 67,
          "name": "G4",
          "ticks": 68880,
          "time": 191.3335725,
          "velocity": 0.7952755905511811
        },
        {
          "duration": 0.133333499999992,
          "durationTicks": 48,
          "midi": 66,
          "name": "F#4",
          "ticks": 68928,
          "time": 191.466906,
          "velocity": 0.7952755905511811
        },
        {
          "duration": 0.2666670000000124,
          "durationTicks": 96,
          "midi": 62,
          "name": "D4",
          "ticks": 69024,
          "time": 191.73357299999998,
          "velocity": 0.7952755905511811
        },
        {
          "duration": 0.2666670000000124,
          "durationTicks": 96,
          "midi": 74,
          "name": "D5",
          "ticks": 69120,
          "time": 192.00024,
          "velocity": 0.7952755905511811
        },
        {
          "duration": 0.066666749999996,
          "durationTicks": 24,
          "midi": 70,
          "name": "A#4",
          "ticks": 69264,
          "time": 192.4002405,
          "velocity": 0.7952755905511811
        },
        {
          "duration": 0.2666670000000124,
          "durationTicks": 96,
          "midi": 69,
          "name": "A4",
          "ticks": 69312,
          "time": 192.533574,
          "velocity": 0.7952755905511811
        },
        {
          "duration": 0.133333499999992,
          "durationTicks": 48,
          "midi": 66,
          "name": "F#4",
          "ticks": 69456,
          "time": 192.9335745,
          "velocity": 0.7952755905511811
        },
        {
          "duration": 0.03333337500001221,
          "durationTicks": 12,
          "midi": 67,
          "name": "G4",
          "ticks": 69504,
          "time": 193.06690799999998,
          "velocity": 0.7952755905511811
        },
        {
          "duration": 0.24444475000001376,
          "durationTicks": 88,
          "midi": 69,
          "name": "A4",
          "ticks": 69511,
          "time": 193.08635246875,
          "velocity": 0.7952755905511811
        },
        {
          "duration": 0.266666999999984,
          "durationTicks": 96,
          "midi": 72,
          "name": "C5",
          "ticks": 69600,
          "time": 193.333575,
          "velocity": 0.7952755905511811
        },
        {
          "duration": 0.2666670000000124,
          "durationTicks": 96,
          "midi": 70,
          "name": "A#4",
          "ticks": 69696,
          "time": 193.60024199999998,
          "velocity": 0.7952755905511811
        },
        {
          "duration": 0.2694447812500016,
          "durationTicks": 97,
          "midi": 62,
          "name": "D4",
          "ticks": 69792,
          "time": 193.866909,
          "velocity": 0.7952755905511811
        },
        {
          "duration": 0.266666999999984,
          "durationTicks": 96,
          "midi": 74,
          "name": "D5",
          "ticks": 69888,
          "time": 194.133576,
          "velocity": 0.7952755905511811
        },
        {
          "duration": 0.066666749999996,
          "durationTicks": 24,
          "midi": 70,
          "name": "A#4",
          "ticks": 70032,
          "time": 194.53357649999998,
          "velocity": 0.7952755905511811
        },
        {
          "duration": 0.266666999999984,
          "durationTicks": 96,
          "midi": 69,
          "name": "A4",
          "ticks": 70080,
          "time": 194.66691,
          "velocity": 0.7952755905511811
        },
        {
          "duration": 0.13333350000002042,
          "durationTicks": 48,
          "midi": 66,
          "name": "F#4",
          "ticks": 70224,
          "time": 195.06691049999998,
          "velocity": 0.7952755905511811
        },
        {
          "duration": 0.133333499999992,
          "durationTicks": 48,
          "midi": 69,
          "name": "A4",
          "ticks": 70272,
          "time": 195.200244,
          "velocity": 0.7952755905511811
        },
        {
          "duration": 0.133333499999992,
          "durationTicks": 48,
          "midi": 69,
          "name": "A4",
          "ticks": 70320,
          "time": 195.3335775,
          "velocity": 0.7952755905511811
        },
        {
          "duration": 0.13333350000002042,
          "durationTicks": 48,
          "midi": 67,
          "name": "G4",
          "ticks": 70368,
          "time": 195.46691099999998,
          "velocity": 0.7952755905511811
        },
        {
          "duration": 0.133333499999992,
          "durationTicks": 48,
          "midi": 66,
          "name": "F#4",
          "ticks": 70416,
          "time": 195.6002445,
          "velocity": 0.7952755905511811
        },
        {
          "duration": 0.1555557500000191,
          "durationTicks": 56,
          "midi": 67,
          "name": "G4",
          "ticks": 70464,
          "time": 195.733578,
          "velocity": 0.7952755905511811
        },
        {
          "duration": 0.2666670000000124,
          "durationTicks": 96,
          "midi": 62,
          "name": "D4",
          "ticks": 70560,
          "time": 196.00024499999998,
          "velocity": 0.7952755905511811
        },
        {
          "duration": 0.2666670000000124,
          "durationTicks": 96,
          "midi": 74,
          "name": "D5",
          "ticks": 70656,
          "time": 196.266912,
          "velocity": 0.7952755905511811
        },
        {
          "duration": 0.066666749999996,
          "durationTicks": 24,
          "midi": 70,
          "name": "A#4",
          "ticks": 70800,
          "time": 196.6669125,
          "velocity": 0.7952755905511811
        },
        {
          "duration": 0.2666670000000124,
          "durationTicks": 96,
          "midi": 69,
          "name": "A4",
          "ticks": 70848,
          "time": 196.800246,
          "velocity": 0.7952755905511811
        },
        {
          "duration": 0.133333499999992,
          "durationTicks": 48,
          "midi": 66,
          "name": "F#4",
          "ticks": 70992,
          "time": 197.2002465,
          "velocity": 0.7952755905511811
        },
        {
          "duration": 0.03333337500001221,
          "durationTicks": 12,
          "midi": 67,
          "name": "G4",
          "ticks": 71040,
          "time": 197.33357999999998,
          "velocity": 0.7952755905511811
        },
        {
          "duration": 0.24444475000001376,
          "durationTicks": 88,
          "midi": 69,
          "name": "A4",
          "ticks": 71047,
          "time": 197.35302446875,
          "velocity": 0.7952755905511811
        },
        {
          "duration": 0.266666999999984,
          "durationTicks": 96,
          "midi": 72,
          "name": "C5",
          "ticks": 71136,
          "time": 197.600247,
          "velocity": 0.7952755905511811
        },
        {
          "duration": 0.2666670000000124,
          "durationTicks": 96,
          "midi": 70,
          "name": "A#4",
          "ticks": 71232,
          "time": 197.86691399999998,
          "velocity": 0.7952755905511811
        },
        {
          "duration": 0.2666670000000124,
          "durationTicks": 96,
          "midi": 74,
          "name": "D5",
          "ticks": 71424,
          "time": 198.40024799999998,
          "velocity": 0.7952755905511811
        },
        {
          "duration": 0.066666749999996,
          "durationTicks": 24,
          "midi": 70,
          "name": "A#4",
          "ticks": 71568,
          "time": 198.80024849999998,
          "velocity": 0.7952755905511811
        },
        {
          "duration": 0.266666999999984,
          "durationTicks": 96,
          "midi": 69,
          "name": "A4",
          "ticks": 71616,
          "time": 198.933582,
          "velocity": 0.7952755905511811
        },
        {
          "duration": 0.13333350000002042,
          "durationTicks": 48,
          "midi": 66,
          "name": "F#4",
          "ticks": 71760,
          "time": 199.33358249999998,
          "velocity": 0.7952755905511811
        },
        {
          "duration": 0.133333499999992,
          "durationTicks": 48,
          "midi": 69,
          "name": "A4",
          "ticks": 71808,
          "time": 199.466916,
          "velocity": 0.7952755905511811
        },
        {
          "duration": 0.13333350000002042,
          "durationTicks": 48,
          "midi": 67,
          "name": "G4",
          "ticks": 71904,
          "time": 199.73358299999998,
          "velocity": 0.7952755905511811
        },
        {
          "duration": 0.133333499999992,
          "durationTicks": 48,
          "midi": 66,
          "name": "F#4",
          "ticks": 71952,
          "time": 199.8669165,
          "velocity": 0.7952755905511811
        },
        {
          "duration": 0.266666999999984,
          "durationTicks": 96,
          "midi": 67,
          "name": "G4",
          "ticks": 72000,
          "time": 200.00025,
          "velocity": 0.7952755905511811
        },
        {
          "duration": 0.2666670000000124,
          "durationTicks": 96,
          "midi": 62,
          "name": "D4",
          "ticks": 72096,
          "time": 200.26691699999998,
          "velocity": 0.7952755905511811
        },
        {
          "duration": 0.2666670000000124,
          "durationTicks": 96,
          "midi": 74,
          "name": "D5",
          "ticks": 72192,
          "time": 200.533584,
          "velocity": 0.7952755905511811
        },
        {
          "duration": 0.066666749999996,
          "durationTicks": 24,
          "midi": 70,
          "name": "A#4",
          "ticks": 72336,
          "time": 200.9335845,
          "velocity": 0.7952755905511811
        },
        {
          "duration": 0.2666670000000124,
          "durationTicks": 96,
          "midi": 69,
          "name": "A4",
          "ticks": 72384,
          "time": 201.066918,
          "velocity": 0.7952755905511811
        },
        {
          "duration": 0.133333499999992,
          "durationTicks": 48,
          "midi": 69,
          "name": "A4",
          "ticks": 72528,
          "time": 201.4669185,
          "velocity": 0.7952755905511811
        },
        {
          "duration": 0.13333350000002042,
          "durationTicks": 48,
          "midi": 70,
          "name": "A#4",
          "ticks": 72576,
          "time": 201.60025199999998,
          "velocity": 0.7952755905511811
        },
        {
          "duration": 0.133333499999992,
          "durationTicks": 48,
          "midi": 72,
          "name": "C5",
          "ticks": 72672,
          "time": 201.866919,
          "velocity": 0.7952755905511811
        },
        {
          "duration": 0.2666670000000124,
          "durationTicks": 96,
          "midi": 74,
          "name": "D5",
          "ticks": 72768,
          "time": 202.13358599999998,
          "velocity": 0.7952755905511811
        },
        {
          "duration": 0.12765950000002135,
          "durationTicks": 48,
          "midi": 70,
          "name": "A#4",
          "ticks": 79104,
          "time": 219.1325979583333,
          "velocity": 0.7952755905511811
        },
        {
          "duration": 0.13215850000000273,
          "durationTicks": 48,
          "midi": 72,
          "name": "C5",
          "ticks": 79200,
          "time": 219.3879169583333,
          "velocity": 0.7952755905511811
        },
        {
          "duration": 0.266642520833301,
          "durationTicks": 96,
          "midi": 74,
          "name": "D5",
          "ticks": 79296,
          "time": 219.6522339583333,
          "velocity": 0.7952755905511811
        }
      ],
      "endOfTrackTicks": 82491
    },
    {
      "channel": 5,
      "controlChanges": {
        "6": [
          {
            "number": 6,
            "ticks": 0,
            "time": 0,
            "value": 0.09448818897637795
          },
          {
            "number": 6,
            "ticks": 0,
            "time": 0,
            "value": 0.09448818897637795
          },
          {
            "number": 6,
            "ticks": 0,
            "time": 0,
            "value": 0.09448818897637795
          },
          {
            "number": 6,
            "ticks": 82466,
            "time": 228.45777604166662,
            "value": 0.09448818897637795
          },
          {
            "number": 6,
            "ticks": 82491,
            "time": 228.52722057291663,
            "value": 0.09448818897637795
          }
        ],
        "7": [
          {
            "number": 7,
            "ticks": 0,
            "time": 0,
            "value": 0.7874015748031497
          },
          {
            "number": 7,
            "ticks": 0,
            "time": 0,
            "value": 0.7874015748031497
          },
          {
            "number": 7,
            "ticks": 0,
            "time": 0,
            "value": 0.7874015748031497
          },
          {
            "number": 7,
            "ticks": 0,
            "time": 0,
            "value": 0.7874015748031497
          },
          {
            "number": 7,
            "ticks": 82466,
            "time": 228.45777604166662,
            "value": 0.7874015748031497
          },
          {
            "number": 7,
            "ticks": 82491,
            "time": 228.52722057291663,
            "value": 0.7874015748031497
          }
        ],
        "10": [
          {
            "number": 10,
            "ticks": 0,
            "time": 0,
            "value": 0.5039370078740157
          },
          {
            "number": 10,
            "ticks": 0,
            "time": 0,
            "value": 0.5039370078740157
          },
          {
            "number": 10,
            "ticks": 0,
            "time": 0,
            "value": 0.5039370078740157
          },
          {
            "number": 10,
            "ticks": 0,
            "time": 0,
            "value": 0.5039370078740157
          },
          {
            "number": 10,
            "ticks": 82466,
            "time": 228.45777604166662,
            "value": 0.5039370078740157
          },
          {
            "number": 10,
            "ticks": 82491,
            "time": 228.52722057291663,
            "value": 0.5039370078740157
          }
        ],
        "100": [
          {
            "number": 100,
            "ticks": 0,
            "time": 0,
            "value": 0
          },
          {
            "number": 100,
            "ticks": 0,
            "time": 0,
            "value": 0
          },
          {
            "number": 100,
            "ticks": 0,
            "time": 0,
            "value": 0
          },
          {
            "number": 100,
            "ticks": 82466,
            "time": 228.45777604166662,
            "value": 0
          },
          {
            "number": 100,
            "ticks": 82491,
            "time": 228.52722057291663,
            "value": 0
          }
        ],
        "101": [
          {
            "number": 101,
            "ticks": 0,
            "time": 0,
            "value": 0
          },
          {
            "number": 101,
            "ticks": 0,
            "time": 0,
            "value": 0
          },
          {
            "number": 101,
            "ticks": 0,
            "time": 0,
            "value": 0
          },
          {
            "number": 101,
            "ticks": 82466,
            "time": 228.45777604166662,
            "value": 0
          },
          {
            "number": 101,
            "ticks": 82491,
            "time": 228.52722057291663,
            "value": 0
          }
        ]
      },
      "pitchBends": [
        {
          "ticks": 0,
          "time": 0,
          "value": 0
        },
        {
          "ticks": 0,
          "time": 0,
          "value": 0
        },
        {
          "ticks": 0,
          "time": 0,
          "value": 0
        },
        {
          "ticks": 0,
          "time": 0,
          "value": 0
        },
        {
          "ticks": 82466,
          "time": 228.45777604166662,
          "value": 0
        },
        {
          "ticks": 82491,
          "time": 228.52722057291663,
          "value": 0
        }
      ],
      "instrument": {
        "family": "piano",
        "number": 0,
        "name": "acoustic grand piano"
      },
      "name": "MIKU (UP)",
      "notes": [
        {
          "duration": 0.0666667500000031,
          "durationTicks": 24,
          "midi": 85,
          "name": "C#6",
          "ticks": 17808,
          "time": 49.466728499999995,
          "velocity": 0.8188976377952756
        },
        {
          "duration": 0.0666667500000031,
          "durationTicks": 24,
          "midi": 85,
          "name": "C#6",
          "ticks": 17856,
          "time": 49.600061999999994,
          "velocity": 0.8188976377952756
        },
        {
          "duration": 0.066666749999996,
          "durationTicks": 24,
          "midi": 85,
          "name": "C#6",
          "ticks": 17952,
          "time": 49.866729,
          "velocity": 0.8188976377952756
        },
        {
          "duration": 0.066666749999996,
          "durationTicks": 24,
          "midi": 85,
          "name": "C#6",
          "ticks": 18000,
          "time": 50.0000625,
          "velocity": 0.8188976377952756
        },
        {
          "duration": 0.2666669999999982,
          "durationTicks": 96,
          "midi": 85,
          "name": "C#6",
          "ticks": 18096,
          "time": 50.2667295,
          "velocity": 0.8188976377952756
        },
        {
          "duration": 0.0666667500000031,
          "durationTicks": 24,
          "midi": 84,
          "name": "C6",
          "ticks": 18192,
          "time": 50.533396499999995,
          "velocity": 0.8188976377952756
        },
        {
          "duration": 0.066666749999996,
          "durationTicks": 24,
          "midi": 85,
          "name": "C#6",
          "ticks": 18240,
          "time": 50.66673,
          "velocity": 0.8188976377952756
        },
        {
          "duration": 0.066666749999996,
          "durationTicks": 24,
          "midi": 84,
          "name": "C6",
          "ticks": 18288,
          "time": 50.8000635,
          "velocity": 0.8188976377952756
        },
        {
          "duration": 0.066666749999996,
          "durationTicks": 24,
          "midi": 85,
          "name": "C#6",
          "ticks": 18336,
          "time": 50.933397,
          "velocity": 0.8188976377952756
        },
        {
          "duration": 0.2666669999999982,
          "durationTicks": 96,
          "midi": 73,
          "name": "C#5",
          "ticks": 18432,
          "time": 51.200064,
          "velocity": 0.8188976377952756
        },
        {
          "duration": 0.2666669999999982,
          "durationTicks": 96,
          "midi": 85,
          "name": "C#6",
          "ticks": 18528,
          "time": 51.466730999999996,
          "velocity": 0.8188976377952756
        },
        {
          "duration": 0.033333374999998,
          "durationTicks": 12,
          "midi": 84,
          "name": "C6",
          "ticks": 18672,
          "time": 51.8667315,
          "velocity": 0.8188976377952756
        },
        {
          "duration": 0.033333374999998,
          "durationTicks": 12,
          "midi": 84,
          "name": "C6",
          "ticks": 18696,
          "time": 51.933398249999996,
          "velocity": 0.8188976377952756
        },
        {
          "duration": 0.2666669999999982,
          "durationTicks": 96,
          "midi": 85,
          "name": "C#6",
          "ticks": 18720,
          "time": 52.000065,
          "velocity": 0.8188976377952756
        },
        {
          "duration": 0.1333334999999991,
          "durationTicks": 48,
          "midi": 84,
          "name": "C6",
          "ticks": 18864,
          "time": 52.4000655,
          "velocity": 0.8188976377952756
        },
        {
          "duration": 0.1333334999999991,
          "durationTicks": 48,
          "midi": 85,
          "name": "C#6",
          "ticks": 18912,
          "time": 52.533398999999996,
          "velocity": 0.8188976377952756
        },
        {
          "duration": 0.1333335000000062,
          "durationTicks": 48,
          "midi": 84,
          "name": "C6",
          "ticks": 18960,
          "time": 52.666732499999995,
          "velocity": 0.8188976377952756
        },
        {
          "duration": 0.1333334999999991,
          "durationTicks": 48,
          "midi": 85,
          "name": "C#6",
          "ticks": 19008,
          "time": 52.800066,
          "velocity": 0.8188976377952756
        },
        {
          "duration": 0.1333334999999991,
          "durationTicks": 48,
          "midi": 84,
          "name": "C6",
          "ticks": 19056,
          "time": 52.9333995,
          "velocity": 0.8188976377952756
        },
        {
          "duration": 0.2666669999999982,
          "durationTicks": 96,
          "midi": 85,
          "name": "C#6",
          "ticks": 19104,
          "time": 53.066733,
          "velocity": 0.8188976377952756
        },
        {
          "duration": 0.033333374999998,
          "durationTicks": 12,
          "midi": 91,
          "name": "G6",
          "ticks": 19200,
          "time": 53.3334,
          "velocity": 0.8188976377952756
        },
        {
          "duration": 0.2333336250000002,
          "durationTicks": 84,
          "midi": 93,
          "name": "A6",
          "ticks": 19212,
          "time": 53.366733374999995,
          "velocity": 0.8188976377952756
        },
        {
          "duration": 0.1333334999999991,
          "durationTicks": 48,
          "midi": 81,
          "name": "A5",
          "ticks": 19296,
          "time": 53.600066999999996,
          "velocity": 0.8188976377952756
        },
        {
          "duration": 0.033333375000005105,
          "durationTicks": 12,
          "midi": 82,
          "name": "A#5",
          "ticks": 19392,
          "time": 53.866733999999994,
          "velocity": 0.8188976377952756
        },
        {
          "duration": 0.24444474999999954,
          "durationTicks": 88,
          "midi": 83,
          "name": "B5",
          "ticks": 19400,
          "time": 53.88895625,
          "velocity": 0.8188976377952756
        },
        {
          "duration": 0.2666669999999982,
          "durationTicks": 96,
          "midi": 77,
          "name": "F5",
          "ticks": 19488,
          "time": 54.133401,
          "velocity": 0.8188976377952756
        },
        {
          "duration": 0.1333334999999991,
          "durationTicks": 48,
          "midi": 80,
          "name": "G#5",
          "ticks": 19584,
          "time": 54.400068,
          "velocity": 0.8188976377952756
        },
        {
          "duration": 0.1333334999999991,
          "durationTicks": 48,
          "midi": 81,
          "name": "A5",
          "ticks": 19632,
          "time": 54.5334015,
          "velocity": 0.8188976377952756
        },
        {
          "duration": 0.033333375000005105,
          "durationTicks": 12,
          "midi": 87,
          "name": "D#6",
          "ticks": 19680,
          "time": 54.666734999999996,
          "velocity": 0.8188976377952756
        },
        {
          "duration": 0.2333336250000002,
          "durationTicks": 84,
          "midi": 88,
          "name": "E6",
          "ticks": 19692,
          "time": 54.700068375,
          "velocity": 0.8188976377952756
        },
        {
          "duration": 0.2666669999999982,
          "durationTicks": 96,
          "midi": 85,
          "name": "C#6",
          "ticks": 19776,
          "time": 54.933402,
          "velocity": 0.8188976377952756
        },
        {
          "duration": 0.033333374999998,
          "durationTicks": 12,
          "midi": 82,
          "name": "A#5",
          "ticks": 19872,
          "time": 55.200069,
          "velocity": 0.8188976377952756
        },
        {
          "duration": 0.2333336250000002,
          "durationTicks": 84,
          "midi": 83,
          "name": "B5",
          "ticks": 19884,
          "time": 55.233402375,
          "velocity": 0.8188976377952756
        },
        {
          "duration": 0.2333336250000002,
          "durationTicks": 84,
          "midi": 81,
          "name": "A5",
          "ticks": 19968,
          "time": 55.466736,
          "velocity": 0.8188976377952756
        },
        {
          "duration": 0.1333334999999991,
          "durationTicks": 48,
          "midi": 81,
          "name": "A5",
          "ticks": 20064,
          "time": 55.733402999999996,
          "velocity": 0.8188976377952756
        },
        {
          "duration": 0.1333334999999991,
          "durationTicks": 48,
          "midi": 93,
          "name": "A6",
          "ticks": 20112,
          "time": 55.866736499999995,
          "velocity": 0.8188976377952756
        },
        {
          "duration": 0.066666749999996,
          "durationTicks": 24,
          "midi": 78,
          "name": "F#5",
          "ticks": 20208,
          "time": 56.1334035,
          "velocity": 0.8188976377952756
        },
        {
          "duration": 0.0666667500000031,
          "durationTicks": 24,
          "midi": 80,
          "name": "G#5",
          "ticks": 20232,
          "time": 56.200070249999996,
          "velocity": 0.8188976377952756
        },
        {
          "duration": 0.1000001250000011,
          "durationTicks": 36,
          "midi": 81,
          "name": "A5",
          "ticks": 20256,
          "time": 56.266737,
          "velocity": 0.8188976377952756
        },
        {
          "duration": 0.033333374999998,
          "durationTicks": 12,
          "midi": 81,
          "name": "A5",
          "ticks": 20304,
          "time": 56.4000705,
          "velocity": 0.8188976377952756
        },
        {
          "duration": 0.033333375000005105,
          "durationTicks": 12,
          "midi": 81,
          "name": "A5",
          "ticks": 20328,
          "time": 56.466737249999994,
          "velocity": 0.8188976377952756
        },
        {
          "duration": 0.0666667500000031,
          "durationTicks": 24,
          "midi": 90,
          "name": "F#6",
          "ticks": 20352,
          "time": 56.533404,
          "velocity": 0.8188976377952756
        },
        {
          "duration": 0.1333334999999991,
          "durationTicks": 48,
          "midi": 81,
          "name": "A5",
          "ticks": 20400,
          "time": 56.666737499999996,
          "velocity": 0.8188976377952756
        },
        {
          "duration": 0.033333375000005105,
          "durationTicks": 12,
          "midi": 83,
          "name": "B5",
          "ticks": 20448,
          "time": 56.800070999999996,
          "velocity": 0.8188976377952756
        },
        {
          "duration": 0.033333374999998,
          "durationTicks": 12,
          "midi": 83,
          "name": "B5",
          "ticks": 20472,
          "time": 56.86673775,
          "velocity": 0.8188976377952756
        },
        {
          "duration": 0.033333375000005105,
          "durationTicks": 12,
          "midi": 83,
          "name": "B5",
          "ticks": 20496,
          "time": 56.933404499999995,
          "velocity": 0.8188976377952756
        },
        {
          "duration": 0.033333374999998,
          "durationTicks": 12,
          "midi": 83,
          "name": "B5",
          "ticks": 20520,
          "time": 57.00007125,
          "velocity": 0.8188976377952756
        },
        {
          "duration": 0.1333334999999991,
          "durationTicks": 48,
          "midi": 90,
          "name": "F#6",
          "ticks": 20544,
          "time": 57.066738,
          "velocity": 0.8188976377952756
        },
        {
          "duration": 0.0666667500000031,
          "durationTicks": 24,
          "midi": 83,
          "name": "B5",
          "ticks": 20616,
          "time": 57.266738249999996,
          "velocity": 0.8188976377952756
        },
        {
          "duration": 0.033333374999998,
          "durationTicks": 12,
          "midi": 85,
          "name": "C#6",
          "ticks": 20640,
          "time": 57.333405,
          "velocity": 0.8188976377952756
        },
        {
          "duration": 0.033333375000005105,
          "durationTicks": 12,
          "midi": 85,
          "name": "C#6",
          "ticks": 20664,
          "time": 57.400071749999995,
          "velocity": 0.8188976377952756
        },
        {
          "duration": 0.033333374999998,
          "durationTicks": 12,
          "midi": 85,
          "name": "C#6",
          "ticks": 20688,
          "time": 57.4667385,
          "velocity": 0.8188976377952756
        },
        {
          "duration": 0.0666667500000031,
          "durationTicks": 24,
          "midi": 85,
          "name": "C#6",
          "ticks": 20712,
          "time": 57.533405249999994,
          "velocity": 0.8188976377952756
        },
        {
          "duration": 0.1333334999999991,
          "durationTicks": 48,
          "midi": 90,
          "name": "F#6",
          "ticks": 20736,
          "time": 57.600072,
          "velocity": 0.8188976377952756
        },
        {
          "duration": 0.1333334999999991,
          "durationTicks": 48,
          "midi": 85,
          "name": "C#6",
          "ticks": 20784,
          "time": 57.733405499999996,
          "velocity": 0.8188976377952756
        },
        {
          "duration": 0.1333334999999991,
          "durationTicks": 48,
          "midi": 86,
          "name": "D6",
          "ticks": 20832,
          "time": 57.866738999999995,
          "velocity": 0.8188976377952756
        },
        {
          "duration": 0.1333334999999991,
          "durationTicks": 48,
          "midi": 85,
          "name": "C#6",
          "ticks": 20880,
          "time": 58.000072499999995,
          "velocity": 0.8188976377952756
        },
        {
          "duration": 0.1333335000000062,
          "durationTicks": 48,
          "midi": 84,
          "name": "C6",
          "ticks": 20928,
          "time": 58.133405999999994,
          "velocity": 0.8188976377952756
        },
        {
          "duration": 0.1333334999999991,
          "durationTicks": 48,
          "midi": 83,
          "name": "B5",
          "ticks": 20976,
          "time": 58.2667395,
          "velocity": 0.8188976377952756
        },
        {
          "duration": 0.1333334999999991,
          "durationTicks": 48,
          "midi": 84,
          "name": "C6",
          "ticks": 21024,
          "time": 58.400073,
          "velocity": 0.8188976377952756
        },
        {
          "duration": 0.1333334999999991,
          "durationTicks": 48,
          "midi": 83,
          "name": "B5",
          "ticks": 21072,
          "time": 58.5334065,
          "velocity": 0.8188976377952756
        },
        {
          "duration": 0.1333334999999991,
          "durationTicks": 48,
          "midi": 82,
          "name": "A#5",
          "ticks": 21120,
          "time": 58.66674,
          "velocity": 0.8188976377952756
        },
        {
          "duration": 0.1333334999999991,
          "durationTicks": 48,
          "midi": 81,
          "name": "A5",
          "ticks": 21168,
          "time": 58.800073499999996,
          "velocity": 0.8188976377952756
        },
        {
          "duration": 0.1333334999999991,
          "durationTicks": 48,
          "midi": 85,
          "name": "C#6",
          "ticks": 21216,
          "time": 58.933406999999995,
          "velocity": 0.8188976377952756
        },
        {
          "duration": 0.1333335000000062,
          "durationTicks": 48,
          "midi": 86,
          "name": "D6",
          "ticks": 21264,
          "time": 59.066740499999995,
          "velocity": 0.8188976377952756
        },
        {
          "duration": 0.1333334999999991,
          "durationTicks": 48,
          "midi": 85,
          "name": "C#6",
          "ticks": 21312,
          "time": 59.200074,
          "velocity": 0.8188976377952756
        },
        {
          "duration": 0.1333334999999991,
          "durationTicks": 48,
          "midi": 86,
          "name": "D6",
          "ticks": 21360,
          "time": 59.3334075,
          "velocity": 0.8188976377952756
        },
        {
          "duration": 0.1333334999999991,
          "durationTicks": 48,
          "midi": 85,
          "name": "C#6",
          "ticks": 21408,
          "time": 59.466741,
          "velocity": 0.8188976377952756
        },
        {
          "duration": 0.2666669999999982,
          "durationTicks": 96,
          "midi": 78,
          "name": "F#5",
          "ticks": 21504,
          "time": 59.733408,
          "velocity": 0.8188976377952756
        },
        {
          "duration": 0.033333375000005105,
          "durationTicks": 12,
          "midi": 88,
          "name": "E6",
          "ticks": 21600,
          "time": 60.000074999999995,
          "velocity": 0.8188976377952756
        },
        {
          "duration": 0.2500003124999992,
          "durationTicks": 90,
          "midi": 90,
          "name": "F#6",
          "ticks": 21606,
          "time": 60.016741687499994,
          "velocity": 0.8188976377952756
        },
        {
          "duration": 0.066666749999996,
          "durationTicks": 24,
          "midi": 85,
          "name": "C#6",
          "ticks": 21744,
          "time": 60.4000755,
          "velocity": 0.8188976377952756
        },
        {
          "duration": 0.2666669999999982,
          "durationTicks": 96,
          "midi": 83,
          "name": "B5",
          "ticks": 21792,
          "time": 60.533409,
          "velocity": 0.8188976377952756
        },
        {
          "duration": 0.1333334999999991,
          "durationTicks": 48,
          "midi": 81,
          "name": "A5",
          "ticks": 21936,
          "time": 60.933409499999996,
          "velocity": 0.8188976377952756
        },
        {
          "duration": 0.033333375000005105,
          "durationTicks": 12,
          "midi": 81,
          "name": "A5",
          "ticks": 21984,
          "time": 61.066742999999995,
          "velocity": 0.8188976377952756
        },
        {
          "duration": 0.24722253125000293,
          "durationTicks": 89,
          "midi": 83,
          "name": "B5",
          "ticks": 21991,
          "time": 61.08618746875,
          "velocity": 0.8188976377952756
        },
        {
          "duration": 0.2666669999999982,
          "durationTicks": 96,
          "midi": 86,
          "name": "D6",
          "ticks": 22080,
          "time": 61.33341,
          "velocity": 0.8188976377952756
        },
        {
          "duration": 0.2666669999999982,
          "durationTicks": 96,
          "midi": 85,
          "name": "C#6",
          "ticks": 22176,
          "time": 61.600077,
          "velocity": 0.8188976377952756
        },
        {
          "duration": 0.2666669999999982,
          "durationTicks": 96,
          "midi": 78,
          "name": "F#5",
          "ticks": 22272,
          "time": 61.866744,
          "velocity": 0.8188976377952756
        },
        {
          "duration": 0.033333375000005105,
          "durationTicks": 12,
          "midi": 88,
          "name": "E6",
          "ticks": 22368,
          "time": 62.133410999999995,
          "velocity": 0.8188976377952756
        },
        {
          "duration": 0.2500003124999992,
          "durationTicks": 90,
          "midi": 90,
          "name": "F#6",
          "ticks": 22374,
          "time": 62.150077687499994,
          "velocity": 0.8188976377952756
        },
        {
          "duration": 0.066666749999996,
          "durationTicks": 24,
          "midi": 85,
          "name": "C#6",
          "ticks": 22512,
          "time": 62.5334115,
          "velocity": 0.8188976377952756
        },
        {
          "duration": 0.2666669999999982,
          "durationTicks": 96,
          "midi": 83,
          "name": "B5",
          "ticks": 22560,
          "time": 62.666745,
          "velocity": 0.8188976377952756
        },
        {
          "duration": 0.1333334999999991,
          "durationTicks": 48,
          "midi": 80,
          "name": "G#5",
          "ticks": 22704,
          "time": 63.066745499999996,
          "velocity": 0.8188976377952756
        },
        {
          "duration": 0.1333334999999991,
          "durationTicks": 48,
          "midi": 83,
          "name": "B5",
          "ticks": 22752,
          "time": 63.200078999999995,
          "velocity": 0.8188976377952756
        },
        {
          "duration": 0.1333335000000062,
          "durationTicks": 48,
          "midi": 83,
          "name": "B5",
          "ticks": 22800,
          "time": 63.333412499999994,
          "velocity": 0.8188976377952756
        },
        {
          "duration": 0.1333334999999991,
          "durationTicks": 48,
          "midi": 81,
          "name": "A5",
          "ticks": 22848,
          "time": 63.466746,
          "velocity": 0.8188976377952756
        },
        {
          "duration": 0.1333334999999991,
          "durationTicks": 48,
          "midi": 80,
          "name": "G#5",
          "ticks": 22896,
          "time": 63.6000795,
          "velocity": 0.8188976377952756
        },
        {
          "duration": 0.1333334999999991,
          "durationTicks": 48,
          "midi": 81,
          "name": "A5",
          "ticks": 22944,
          "time": 63.733413,
          "velocity": 0.8188976377952756
        },
        {
          "duration": 0.2666669999999982,
          "durationTicks": 96,
          "midi": 78,
          "name": "F#5",
          "ticks": 23040,
          "time": 64.00008,
          "velocity": 0.8188976377952756
        },
        {
          "duration": 0.033333374999998,
          "durationTicks": 12,
          "midi": 88,
          "name": "E6",
          "ticks": 23136,
          "time": 64.266747,
          "velocity": 0.8188976377952756
        },
        {
          "duration": 0.2500003124999921,
          "durationTicks": 90,
          "midi": 90,
          "name": "F#6",
          "ticks": 23142,
          "time": 64.2834136875,
          "velocity": 0.8188976377952756
        },
        {
          "duration": 0.066666749999996,
          "durationTicks": 24,
          "midi": 85,
          "name": "C#6",
          "ticks": 23280,
          "time": 64.6667475,
          "velocity": 0.8188976377952756
        },
        {
          "duration": 0.2666669999999982,
          "durationTicks": 96,
          "midi": 83,
          "name": "B5",
          "ticks": 23328,
          "time": 64.80008099999999,
          "velocity": 0.8188976377952756
        },
        {
          "duration": 0.1333335000000062,
          "durationTicks": 48,
          "midi": 81,
          "name": "A5",
          "ticks": 23472,
          "time": 65.2000815,
          "velocity": 0.8188976377952756
        },
        {
          "duration": 0.033333374999998,
          "durationTicks": 12,
          "midi": 81,
          "name": "A5",
          "ticks": 23520,
          "time": 65.333415,
          "velocity": 0.8188976377952756
        },
        {
          "duration": 0.24722253125000293,
          "durationTicks": 89,
          "midi": 83,
          "name": "B5",
          "ticks": 23527,
          "time": 65.35285946875,
          "velocity": 0.8188976377952756
        },
        {
          "duration": 0.2666669999999982,
          "durationTicks": 96,
          "midi": 86,
          "name": "D6",
          "ticks": 23616,
          "time": 65.600082,
          "velocity": 0.8188976377952756
        },
        {
          "duration": 0.2666669999999982,
          "durationTicks": 96,
          "midi": 85,
          "name": "C#6",
          "ticks": 23712,
          "time": 65.866749,
          "velocity": 0.8188976377952756
        },
        {
          "duration": 0.2666669999999982,
          "durationTicks": 96,
          "midi": 78,
          "name": "F#5",
          "ticks": 23808,
          "time": 66.133416,
          "velocity": 0.8188976377952756
        },
        {
          "duration": 0.033333374999998,
          "durationTicks": 12,
          "midi": 88,
          "name": "E6",
          "ticks": 23904,
          "time": 66.400083,
          "velocity": 0.8188976377952756
        },
        {
          "duration": 0.2500003124999921,
          "durationTicks": 90,
          "midi": 90,
          "name": "F#6",
          "ticks": 23910,
          "time": 66.4167496875,
          "velocity": 0.8188976377952756
        },
        {
          "duration": 0.066666749999996,
          "durationTicks": 24,
          "midi": 85,
          "name": "C#6",
          "ticks": 24048,
          "time": 66.8000835,
          "velocity": 0.8188976377952756
        },
        {
          "duration": 0.2666670000000124,
          "durationTicks": 96,
          "midi": 83,
          "name": "B5",
          "ticks": 24096,
          "time": 66.93341699999999,
          "velocity": 0.8188976377952756
        },
        {
          "duration": 0.1333335000000062,
          "durationTicks": 48,
          "midi": 80,
          "name": "G#5",
          "ticks": 24240,
          "time": 67.3334175,
          "velocity": 0.8188976377952756
        },
        {
          "duration": 0.133333499999992,
          "durationTicks": 48,
          "midi": 83,
          "name": "B5",
          "ticks": 24288,
          "time": 67.466751,
          "velocity": 0.8188976377952756
        },
        {
          "duration": 0.133333499999992,
          "durationTicks": 48,
          "midi": 81,
          "name": "A5",
          "ticks": 24384,
          "time": 67.733418,
          "velocity": 0.8188976377952756
        },
        {
          "duration": 0.1333335000000062,
          "durationTicks": 48,
          "midi": 80,
          "name": "G#5",
          "ticks": 24432,
          "time": 67.86675149999999,
          "velocity": 0.8188976377952756
        },
        {
          "duration": 0.2666669999999982,
          "durationTicks": 96,
          "midi": 81,
          "name": "A5",
          "ticks": 24480,
          "time": 68.000085,
          "velocity": 0.8188976377952756
        },
        {
          "duration": 0.2666669999999982,
          "durationTicks": 96,
          "midi": 78,
          "name": "F#5",
          "ticks": 24576,
          "time": 68.266752,
          "velocity": 0.8188976377952756
        },
        {
          "duration": 0.033333374999998,
          "durationTicks": 12,
          "midi": 88,
          "name": "E6",
          "ticks": 24672,
          "time": 68.533419,
          "velocity": 0.8188976377952756
        },
        {
          "duration": 0.2500003124999921,
          "durationTicks": 90,
          "midi": 90,
          "name": "F#6",
          "ticks": 24678,
          "time": 68.5500856875,
          "velocity": 0.8188976377952756
        },
        {
          "duration": 0.066666749999996,
          "durationTicks": 24,
          "midi": 85,
          "name": "C#6",
          "ticks": 24816,
          "time": 68.9334195,
          "velocity": 0.8188976377952756
        },
        {
          "duration": 0.2666669999999982,
          "durationTicks": 96,
          "midi": 83,
          "name": "B5",
          "ticks": 24864,
          "time": 69.06675299999999,
          "velocity": 0.8188976377952756
        },
        {
          "duration": 0.066666749999996,
          "durationTicks": 24,
          "midi": 84,
          "name": "C6",
          "ticks": 25008,
          "time": 69.4667535,
          "velocity": 0.8188976377952756
        },
        {
          "duration": 0.06666675000001021,
          "durationTicks": 24,
          "midi": 84,
          "name": "C6",
          "ticks": 25032,
          "time": 69.53342024999999,
          "velocity": 0.8188976377952756
        },
        {
          "duration": 0.133333499999992,
          "durationTicks": 48,
          "midi": 85,
          "name": "C#6",
          "ticks": 25056,
          "time": 69.600087,
          "velocity": 0.8188976377952756
        },
        {
          "duration": 0.133333499999992,
          "durationTicks": 48,
          "midi": 89,
          "name": "F6",
          "ticks": 25152,
          "time": 69.866754,
          "velocity": 0.8188976377952756
        },
        {
          "duration": 0.033333374999998,
          "durationTicks": 12,
          "midi": 89,
          "name": "F6",
          "ticks": 25248,
          "time": 70.133421,
          "velocity": 0.8188976377952756
        },
        {
          "duration": 0.2500003125000063,
          "durationTicks": 90,
          "midi": 90,
          "name": "F#6",
          "ticks": 25254,
          "time": 70.15008768749999,
          "velocity": 0.8188976377952756
        },
        {
          "duration": 0.066666749999996,
          "durationTicks": 24,
          "midi": 85,
          "name": "C#6",
          "ticks": 44592,
          "time": 123.8668215,
          "velocity": 0.8188976377952756
        },
        {
          "duration": 0.066666749999996,
          "durationTicks": 24,
          "midi": 85,
          "name": "C#6",
          "ticks": 44640,
          "time": 124.00015499999999,
          "velocity": 0.8188976377952756
        },
        {
          "duration": 0.06666675000001021,
          "durationTicks": 24,
          "midi": 85,
          "name": "C#6",
          "ticks": 44736,
          "time": 124.26682199999999,
          "velocity": 0.8188976377952756
        },
        {
          "duration": 0.066666749999996,
          "durationTicks": 24,
          "midi": 85,
          "name": "C#6",
          "ticks": 44784,
          "time": 124.4001555,
          "velocity": 0.8188976377952756
        },
        {
          "duration": 0.2666669999999982,
          "durationTicks": 96,
          "midi": 85,
          "name": "C#6",
          "ticks": 44880,
          "time": 124.6668225,
          "velocity": 0.8188976377952756
        },
        {
          "duration": 0.066666749999996,
          "durationTicks": 24,
          "midi": 84,
          "name": "C6",
          "ticks": 44976,
          "time": 124.9334895,
          "velocity": 0.8188976377952756
        },
        {
          "duration": 0.066666749999996,
          "durationTicks": 24,
          "midi": 85,
          "name": "C#6",
          "ticks": 45024,
          "time": 125.066823,
          "velocity": 0.8188976377952756
        },
        {
          "duration": 0.066666749999996,
          "durationTicks": 24,
          "midi": 84,
          "name": "C6",
          "ticks": 45072,
          "time": 125.20015649999999,
          "velocity": 0.8188976377952756
        },
        {
          "duration": 0.066666749999996,
          "durationTicks": 24,
          "midi": 85,
          "name": "C#6",
          "ticks": 45120,
          "time": 125.33349,
          "velocity": 0.8188976377952756
        },
        {
          "duration": 0.2666669999999982,
          "durationTicks": 96,
          "midi": 73,
          "name": "C#5",
          "ticks": 45216,
          "time": 125.600157,
          "velocity": 0.8188976377952756
        },
        {
          "duration": 0.2666669999999982,
          "durationTicks": 96,
          "midi": 85,
          "name": "C#6",
          "ticks": 45312,
          "time": 125.866824,
          "velocity": 0.8188976377952756
        },
        {
          "duration": 0.033333374999998,
          "durationTicks": 12,
          "midi": 84,
          "name": "C6",
          "ticks": 45456,
          "time": 126.2668245,
          "velocity": 0.8188976377952756
        },
        {
          "duration": 0.033333374999998,
          "durationTicks": 12,
          "midi": 84,
          "name": "C6",
          "ticks": 45480,
          "time": 126.33349125,
          "velocity": 0.8188976377952756
        },
        {
          "duration": 0.2666669999999982,
          "durationTicks": 96,
          "midi": 85,
          "name": "C#6",
          "ticks": 45504,
          "time": 126.40015799999999,
          "velocity": 0.8188976377952756
        },
        {
          "duration": 0.1333335000000062,
          "durationTicks": 48,
          "midi": 84,
          "name": "C6",
          "ticks": 45648,
          "time": 126.8001585,
          "velocity": 0.8188976377952756
        },
        {
          "duration": 0.133333499999992,
          "durationTicks": 48,
          "midi": 85,
          "name": "C#6",
          "ticks": 45696,
          "time": 126.933492,
          "velocity": 0.8188976377952756
        },
        {
          "duration": 0.1333335000000062,
          "durationTicks": 48,
          "midi": 84,
          "name": "C6",
          "ticks": 45744,
          "time": 127.0668255,
          "velocity": 0.8188976377952756
        },
        {
          "duration": 0.133333499999992,
          "durationTicks": 48,
          "midi": 85,
          "name": "C#6",
          "ticks": 45792,
          "time": 127.200159,
          "velocity": 0.8188976377952756
        },
        {
          "duration": 0.1333335000000062,
          "durationTicks": 48,
          "midi": 84,
          "name": "C6",
          "ticks": 45840,
          "time": 127.33349249999999,
          "velocity": 0.8188976377952756
        },
        {
          "duration": 0.2666669999999982,
          "durationTicks": 96,
          "midi": 85,
          "name": "C#6",
          "ticks": 45888,
          "time": 127.466826,
          "velocity": 0.8188976377952756
        },
        {
          "duration": 0.033333374999998,
          "durationTicks": 12,
          "midi": 91,
          "name": "G6",
          "ticks": 45984,
          "time": 127.733493,
          "velocity": 0.8188976377952756
        },
        {
          "duration": 0.2333336250000002,
          "durationTicks": 84,
          "midi": 93,
          "name": "A6",
          "ticks": 45996,
          "time": 127.766826375,
          "velocity": 0.8188976377952756
        },
        {
          "duration": 0.133333499999992,
          "durationTicks": 48,
          "midi": 81,
          "name": "A5",
          "ticks": 46080,
          "time": 128.00016,
          "velocity": 0.8188976377952756
        },
        {
          "duration": 0.03333337499998379,
          "durationTicks": 12,
          "midi": 82,
          "name": "A#5",
          "ticks": 46176,
          "time": 128.266827,
          "velocity": 0.8188976377952756
        },
        {
          "duration": 0.24444475000001376,
          "durationTicks": 88,
          "midi": 83,
          "name": "B5",
          "ticks": 46184,
          "time": 128.28904924999998,
          "velocity": 0.8188976377952756
        },
        {
          "duration": 0.133333499999992,
          "durationTicks": 48,
          "midi": 77,
          "name": "F5",
          "ticks": 46272,
          "time": 128.533494,
          "velocity": 0.8188976377952756
        },
        {
          "duration": 0.13333350000002042,
          "durationTicks": 48,
          "midi": 78,
          "name": "F#5",
          "ticks": 46320,
          "time": 128.66682749999998,
          "velocity": 0.8188976377952756
        },
        {
          "duration": 0.133333499999992,
          "durationTicks": 48,
          "midi": 80,
          "name": "G#5",
          "ticks": 46368,
          "time": 128.800161,
          "velocity": 0.8188976377952756
        },
        {
          "duration": 0.133333499999992,
          "durationTicks": 48,
          "midi": 81,
          "name": "A5",
          "ticks": 46416,
          "time": 128.9334945,
          "velocity": 0.8188976377952756
        },
        {
          "duration": 0.03333337500001221,
          "durationTicks": 12,
          "midi": 87,
          "name": "D#6",
          "ticks": 46464,
          "time": 129.066828,
          "velocity": 0.8188976377952756
        },
        {
          "duration": 0.2333336250000002,
          "durationTicks": 84,
          "midi": 88,
          "name": "E6",
          "ticks": 46476,
          "time": 129.100161375,
          "velocity": 0.8188976377952756
        },
        {
          "duration": 0.266666999999984,
          "durationTicks": 96,
          "midi": 85,
          "name": "C#6",
          "ticks": 46560,
          "time": 129.333495,
          "velocity": 0.8188976377952756
        },
        {
          "duration": 0.03333337500001221,
          "durationTicks": 12,
          "midi": 82,
          "name": "A#5",
          "ticks": 46656,
          "time": 129.60016199999998,
          "velocity": 0.8188976377952756
        },
        {
          "duration": 0.2333336250000002,
          "durationTicks": 84,
          "midi": 83,
          "name": "B5",
          "ticks": 46668,
          "time": 129.633495375,
          "velocity": 0.8188976377952756
        },
        {
          "duration": 0.2333336250000002,
          "durationTicks": 84,
          "midi": 81,
          "name": "A5",
          "ticks": 46752,
          "time": 129.866829,
          "velocity": 0.8188976377952756
        },
        {
          "duration": 0.13333350000002042,
          "durationTicks": 48,
          "midi": 81,
          "name": "A5",
          "ticks": 46848,
          "time": 130.13349599999998,
          "velocity": 0.8188976377952756
        },
        {
          "duration": 0.133333499999992,
          "durationTicks": 48,
          "midi": 93,
          "name": "A6",
          "ticks": 46896,
          "time": 130.2668295,
          "velocity": 0.8188976377952756
        },
        {
          "duration": 0.066666749999996,
          "durationTicks": 24,
          "midi": 78,
          "name": "F#5",
          "ticks": 46992,
          "time": 130.53349649999998,
          "velocity": 0.8188976377952756
        },
        {
          "duration": 0.06666675000002442,
          "durationTicks": 24,
          "midi": 80,
          "name": "G#5",
          "ticks": 47016,
          "time": 130.60016324999998,
          "velocity": 0.8188976377952756
        },
        {
          "duration": 0.10000012499997979,
          "durationTicks": 36,
          "midi": 81,
          "name": "A5",
          "ticks": 47040,
          "time": 130.66683,
          "velocity": 0.8188976377952756
        },
        {
          "duration": 0.03333337499998379,
          "durationTicks": 12,
          "midi": 81,
          "name": "A5",
          "ticks": 47088,
          "time": 130.8001635,
          "velocity": 0.8188976377952756
        },
        {
          "duration": 0.03333337500001221,
          "durationTicks": 12,
          "midi": 81,
          "name": "A5",
          "ticks": 47112,
          "time": 130.86683025,
          "velocity": 0.8188976377952756
        },
        {
          "duration": 0.066666749999996,
          "durationTicks": 24,
          "midi": 90,
          "name": "F#6",
          "ticks": 47136,
          "time": 130.933497,
          "velocity": 0.8188976377952756
        },
        {
          "duration": 0.13333350000002042,
          "durationTicks": 48,
          "midi": 81,
          "name": "A5",
          "ticks": 47184,
          "time": 131.06683049999998,
          "velocity": 0.8188976377952756
        },
        {
          "duration": 0.03333337499998379,
          "durationTicks": 12,
          "midi": 83,
          "name": "B5",
          "ticks": 47232,
          "time": 131.200164,
          "velocity": 0.8188976377952756
        },
        {
          "duration": 0.03333337499998379,
          "durationTicks": 12,
          "midi": 83,
          "name": "B5",
          "ticks": 47256,
          "time": 131.26683075,
          "velocity": 0.8188976377952756
        },
        {
          "duration": 0.03333337500001221,
          "durationTicks": 12,
          "midi": 83,
          "name": "B5",
          "ticks": 47280,
          "time": 131.3334975,
          "velocity": 0.8188976377952756
        },
        {
          "duration": 0.03333337500001221,
          "durationTicks": 12,
          "midi": 83,
          "name": "B5",
          "ticks": 47304,
          "time": 131.40016425,
          "velocity": 0.8188976377952756
        },
        {
          "duration": 0.13333350000002042,
          "durationTicks": 48,
          "midi": 90,
          "name": "F#6",
          "ticks": 47328,
          "time": 131.46683099999998,
          "velocity": 0.8188976377952756
        },
        {
          "duration": 0.066666749999996,
          "durationTicks": 24,
          "midi": 83,
          "name": "B5",
          "ticks": 47400,
          "time": 131.66683125,
          "velocity": 0.8188976377952756
        },
        {
          "duration": 0.03333337499998379,
          "durationTicks": 12,
          "midi": 85,
          "name": "C#6",
          "ticks": 47424,
          "time": 131.733498,
          "velocity": 0.8188976377952756
        },
        {
          "duration": 0.03333337500001221,
          "durationTicks": 12,
          "midi": 85,
          "name": "C#6",
          "ticks": 47448,
          "time": 131.80016475,
          "velocity": 0.8188976377952756
        },
        {
          "duration": 0.03333337500001221,
          "durationTicks": 12,
          "midi": 85,
          "name": "C#6",
          "ticks": 47472,
          "time": 131.8668315,
          "velocity": 0.8188976377952756
        },
        {
          "duration": 0.066666749999996,
          "durationTicks": 24,
          "midi": 85,
          "name": "C#6",
          "ticks": 47496,
          "time": 131.93349824999999,
          "velocity": 0.8188976377952756
        },
        {
          "duration": 0.13333350000002042,
          "durationTicks": 48,
          "midi": 90,
          "name": "F#6",
          "ticks": 47520,
          "time": 132.00016499999998,
          "velocity": 0.8188976377952756
        },
        {
          "duration": 0.133333499999992,
          "durationTicks": 48,
          "midi": 85,
          "name": "C#6",
          "ticks": 47568,
          "time": 132.1334985,
          "velocity": 0.8188976377952756
        },
        {
          "duration": 0.133333499999992,
          "durationTicks": 48,
          "midi": 86,
          "name": "D6",
          "ticks": 47616,
          "time": 132.266832,
          "velocity": 0.8188976377952756
        },
        {
          "duration": 0.13333350000002042,
          "durationTicks": 48,
          "midi": 85,
          "name": "C#6",
          "ticks": 47664,
          "time": 132.40016549999999,
          "velocity": 0.8188976377952756
        },
        {
          "duration": 0.133333499999992,
          "durationTicks": 48,
          "midi": 84,
          "name": "C6",
          "ticks": 47712,
          "time": 132.533499,
          "velocity": 0.8188976377952756
        },
        {
          "duration": 0.133333499999992,
          "durationTicks": 48,
          "midi": 83,
          "name": "B5",
          "ticks": 47760,
          "time": 132.6668325,
          "velocity": 0.8188976377952756
        },
        {
          "duration": 0.133333499999992,
          "durationTicks": 48,
          "midi": 84,
          "name": "C6",
          "ticks": 47808,
          "time": 132.800166,
          "velocity": 0.8188976377952756
        },
        {
          "duration": 0.13333350000002042,
          "durationTicks": 48,
          "midi": 83,
          "name": "B5",
          "ticks": 47856,
          "time": 132.93349949999998,
          "velocity": 0.8188976377952756
        },
        {
          "duration": 0.133333499999992,
          "durationTicks": 48,
          "midi": 82,
          "name": "A#5",
          "ticks": 47904,
          "time": 133.066833,
          "velocity": 0.8188976377952756
        },
        {
          "duration": 0.133333499999992,
          "durationTicks": 48,
          "midi": 81,
          "name": "A5",
          "ticks": 47952,
          "time": 133.2001665,
          "velocity": 0.8188976377952756
        },
        {
          "duration": 0.13333350000002042,
          "durationTicks": 48,
          "midi": 85,
          "name": "C#6",
          "ticks": 48000,
          "time": 133.3335,
          "velocity": 0.8188976377952756
        },
        {
          "duration": 0.133333499999992,
          "durationTicks": 48,
          "midi": 86,
          "name": "D6",
          "ticks": 48048,
          "time": 133.4668335,
          "velocity": 0.8188976377952756
        },
        {
          "duration": 0.133333499999992,
          "durationTicks": 48,
          "midi": 85,
          "name": "C#6",
          "ticks": 48096,
          "time": 133.600167,
          "velocity": 0.8188976377952756
        },
        {
          "duration": 0.133333499999992,
          "durationTicks": 48,
          "midi": 86,
          "name": "D6",
          "ticks": 48144,
          "time": 133.7335005,
          "velocity": 0.8188976377952756
        },
        {
          "duration": 0.13333350000002042,
          "durationTicks": 48,
          "midi": 85,
          "name": "C#6",
          "ticks": 48192,
          "time": 133.86683399999998,
          "velocity": 0.8188976377952756
        },
        {
          "duration": 0.2666670000000124,
          "durationTicks": 96,
          "midi": 78,
          "name": "F#5",
          "ticks": 48288,
          "time": 134.133501,
          "velocity": 0.8188976377952756
        },
        {
          "duration": 0.03333337499998379,
          "durationTicks": 12,
          "midi": 88,
          "name": "E6",
          "ticks": 48384,
          "time": 134.400168,
          "velocity": 0.8188976377952756
        },
        {
          "duration": 0.2500003124999921,
          "durationTicks": 90,
          "midi": 90,
          "name": "F#6",
          "ticks": 48390,
          "time": 134.4168346875,
          "velocity": 0.8188976377952756
        },
        {
          "duration": 0.066666749999996,
          "durationTicks": 24,
          "midi": 85,
          "name": "C#6",
          "ticks": 48528,
          "time": 134.80016849999998,
          "velocity": 0.8188976377952756
        },
        {
          "duration": 0.266666999999984,
          "durationTicks": 96,
          "midi": 83,
          "name": "B5",
          "ticks": 48576,
          "time": 134.933502,
          "velocity": 0.8188976377952756
        },
        {
          "duration": 0.13333350000002042,
          "durationTicks": 48,
          "midi": 81,
          "name": "A5",
          "ticks": 48720,
          "time": 135.33350249999998,
          "velocity": 0.8188976377952756
        },
        {
          "duration": 0.03333337499998379,
          "durationTicks": 12,
          "midi": 81,
          "name": "A5",
          "ticks": 48768,
          "time": 135.466836,
          "velocity": 0.8188976377952756
        },
        {
          "duration": 0.2472225312499745,
          "durationTicks": 89,
          "midi": 83,
          "name": "B5",
          "ticks": 48775,
          "time": 135.48628046875,
          "velocity": 0.8188976377952756
        },
        {
          "duration": 0.2666670000000124,
          "durationTicks": 96,
          "midi": 86,
          "name": "D6",
          "ticks": 48864,
          "time": 135.73350299999998,
          "velocity": 0.8188976377952756
        },
        {
          "duration": 0.266666999999984,
          "durationTicks": 96,
          "midi": 85,
          "name": "C#6",
          "ticks": 48960,
          "time": 136.00017,
          "velocity": 0.8188976377952756
        },
        {
          "duration": 0.2666670000000124,
          "durationTicks": 96,
          "midi": 78,
          "name": "F#5",
          "ticks": 49056,
          "time": 136.26683699999998,
          "velocity": 0.8188976377952756
        },
        {
          "duration": 0.03333337500001221,
          "durationTicks": 12,
          "midi": 88,
          "name": "E6",
          "ticks": 49152,
          "time": 136.533504,
          "velocity": 0.8188976377952756
        },
        {
          "duration": 0.2500003125000205,
          "durationTicks": 90,
          "midi": 90,
          "name": "F#6",
          "ticks": 49158,
          "time": 136.55017068749999,
          "velocity": 0.8188976377952756
        },
        {
          "duration": 0.066666749999996,
          "durationTicks": 24,
          "midi": 85,
          "name": "C#6",
          "ticks": 49296,
          "time": 136.9335045,
          "velocity": 0.8188976377952756
        },
        {
          "duration": 0.2666670000000124,
          "durationTicks": 96,
          "midi": 83,
          "name": "B5",
          "ticks": 49344,
          "time": 137.066838,
          "velocity": 0.8188976377952756
        },
        {
          "duration": 0.133333499999992,
          "durationTicks": 48,
          "midi": 80,
          "name": "G#5",
          "ticks": 49488,
          "time": 137.4668385,
          "velocity": 0.8188976377952756
        },
        {
          "duration": 0.13333350000002042,
          "durationTicks": 48,
          "midi": 83,
          "name": "B5",
          "ticks": 49536,
          "time": 137.600172,
          "velocity": 0.8188976377952756
        },
        {
          "duration": 0.133333499999992,
          "durationTicks": 48,
          "midi": 83,
          "name": "B5",
          "ticks": 49584,
          "time": 137.7335055,
          "velocity": 0.8188976377952756
        },
        {
          "duration": 0.133333499999992,
          "durationTicks": 48,
          "midi": 81,
          "name": "A5",
          "ticks": 49632,
          "time": 137.866839,
          "velocity": 0.8188976377952756
        },
        {
          "duration": 0.133333499999992,
          "durationTicks": 48,
          "midi": 80,
          "name": "G#5",
          "ticks": 49680,
          "time": 138.0001725,
          "velocity": 0.8188976377952756
        },
        {
          "duration": 0.13333350000002042,
          "durationTicks": 48,
          "midi": 81,
          "name": "A5",
          "ticks": 49728,
          "time": 138.13350599999998,
          "velocity": 0.8188976377952756
        },
        {
          "duration": 0.266666999999984,
          "durationTicks": 96,
          "midi": 78,
          "name": "F#5",
          "ticks": 49824,
          "time": 138.400173,
          "velocity": 0.8188976377952756
        },
        {
          "duration": 0.03333337500001221,
          "durationTicks": 12,
          "midi": 88,
          "name": "E6",
          "ticks": 49920,
          "time": 138.66683999999998,
          "velocity": 0.8188976377952756
        },
        {
          "duration": 0.2500003124999921,
          "durationTicks": 90,
          "midi": 90,
          "name": "F#6",
          "ticks": 49926,
          "time": 138.6835066875,
          "velocity": 0.8188976377952756
        },
        {
          "duration": 0.066666749999996,
          "durationTicks": 24,
          "midi": 85,
          "name": "C#6",
          "ticks": 50064,
          "time": 139.06684049999998,
          "velocity": 0.8188976377952756
        },
        {
          "duration": 0.266666999999984,
          "durationTicks": 96,
          "midi": 83,
          "name": "B5",
          "ticks": 50112,
          "time": 139.200174,
          "velocity": 0.8188976377952756
        },
        {
          "duration": 0.13333350000002042,
          "durationTicks": 48,
          "midi": 81,
          "name": "A5",
          "ticks": 50256,
          "time": 139.60017449999998,
          "velocity": 0.8188976377952756
        },
        {
          "duration": 0.03333337499998379,
          "durationTicks": 12,
          "midi": 81,
          "name": "A5",
          "ticks": 50304,
          "time": 139.733508,
          "velocity": 0.8188976377952756
        },
        {
          "duration": 0.24722253125000293,
          "durationTicks": 89,
          "midi": 83,
          "name": "B5",
          "ticks": 50311,
          "time": 139.75295246874998,
          "velocity": 0.8188976377952756
        },
        {
          "duration": 0.2666670000000124,
          "durationTicks": 96,
          "midi": 86,
          "name": "D6",
          "ticks": 50400,
          "time": 140.00017499999998,
          "velocity": 0.8188976377952756
        },
        {
          "duration": 0.266666999999984,
          "durationTicks": 96,
          "midi": 85,
          "name": "C#6",
          "ticks": 50496,
          "time": 140.266842,
          "velocity": 0.8188976377952756
        },
        {
          "duration": 0.2666670000000124,
          "durationTicks": 96,
          "midi": 78,
          "name": "F#5",
          "ticks": 50592,
          "time": 140.53350899999998,
          "velocity": 0.8188976377952756
        },
        {
          "duration": 0.03333337500001221,
          "durationTicks": 12,
          "midi": 88,
          "name": "E6",
          "ticks": 50688,
          "time": 140.800176,
          "velocity": 0.8188976377952756
        },
        {
          "duration": 0.2500003125000205,
          "durationTicks": 90,
          "midi": 90,
          "name": "F#6",
          "ticks": 50694,
          "time": 140.81684268749999,
          "velocity": 0.8188976377952756
        },
        {
          "duration": 0.066666749999996,
          "durationTicks": 24,
          "midi": 85,
          "name": "C#6",
          "ticks": 50832,
          "time": 141.2001765,
          "velocity": 0.8188976377952756
        },
        {
          "duration": 0.2666670000000124,
          "durationTicks": 96,
          "midi": 83,
          "name": "B5",
          "ticks": 50880,
          "time": 141.33351,
          "velocity": 0.8188976377952756
        },
        {
          "duration": 0.133333499999992,
          "durationTicks": 48,
          "midi": 80,
          "name": "G#5",
          "ticks": 51024,
          "time": 141.7335105,
          "velocity": 0.8188976377952756
        },
        {
          "duration": 0.13333350000002042,
          "durationTicks": 48,
          "midi": 83,
          "name": "B5",
          "ticks": 51072,
          "time": 141.866844,
          "velocity": 0.8188976377952756
        },
        {
          "duration": 0.133333499999992,
          "durationTicks": 48,
          "midi": 81,
          "name": "A5",
          "ticks": 51168,
          "time": 142.133511,
          "velocity": 0.8188976377952756
        },
        {
          "duration": 0.133333499999992,
          "durationTicks": 48,
          "midi": 80,
          "name": "G#5",
          "ticks": 51216,
          "time": 142.2668445,
          "velocity": 0.8188976377952756
        },
        {
          "duration": 0.2666670000000124,
          "durationTicks": 96,
          "midi": 81,
          "name": "A5",
          "ticks": 51264,
          "time": 142.40017799999998,
          "velocity": 0.8188976377952756
        },
        {
          "duration": 0.2666670000000124,
          "durationTicks": 96,
          "midi": 78,
          "name": "F#5",
          "ticks": 51360,
          "time": 142.666845,
          "velocity": 0.8188976377952756
        },
        {
          "duration": 0.03333337499998379,
          "durationTicks": 12,
          "midi": 88,
          "name": "E6",
          "ticks": 51456,
          "time": 142.933512,
          "velocity": 0.8188976377952756
        },
        {
          "duration": 0.2500003124999921,
          "durationTicks": 90,
          "midi": 90,
          "name": "F#6",
          "ticks": 51462,
          "time": 142.9501786875,
          "velocity": 0.8188976377952756
        },
        {
          "duration": 0.066666749999996,
          "durationTicks": 24,
          "midi": 85,
          "name": "C#6",
          "ticks": 51600,
          "time": 143.33351249999998,
          "velocity": 0.8188976377952756
        },
        {
          "duration": 0.266666999999984,
          "durationTicks": 96,
          "midi": 83,
          "name": "B5",
          "ticks": 51648,
          "time": 143.466846,
          "velocity": 0.8188976377952756
        },
        {
          "duration": 0.13333350000002042,
          "durationTicks": 48,
          "midi": 84,
          "name": "C6",
          "ticks": 51792,
          "time": 143.86684649999998,
          "velocity": 0.8188976377952756
        },
        {
          "duration": 0.133333499999992,
          "durationTicks": 48,
          "midi": 85,
          "name": "C#6",
          "ticks": 51840,
          "time": 144.00018,
          "velocity": 0.8188976377952756
        },
        {
          "duration": 0.13333350000002042,
          "durationTicks": 48,
          "midi": 89,
          "name": "F6",
          "ticks": 51936,
          "time": 144.26684699999998,
          "velocity": 0.8188976377952756
        },
        {
          "duration": 0.03333337499998379,
          "durationTicks": 12,
          "midi": 89,
          "name": "F6",
          "ticks": 52032,
          "time": 144.533514,
          "velocity": 0.8188976377952756
        },
        {
          "duration": 0.2500003124999921,
          "durationTicks": 90,
          "midi": 90,
          "name": "F#6",
          "ticks": 52038,
          "time": 144.5501806875,
          "velocity": 0.8188976377952756
        },
        {
          "duration": 0.066666749999996,
          "durationTicks": 24,
          "midi": 82,
          "name": "A#5",
          "ticks": 61104,
          "time": 169.7335455,
          "velocity": 0.8188976377952756
        },
        {
          "duration": 0.066666749999996,
          "durationTicks": 24,
          "midi": 82,
          "name": "A#5",
          "ticks": 61152,
          "time": 169.86687899999998,
          "velocity": 0.8188976377952756
        },
        {
          "duration": 0.066666749999996,
          "durationTicks": 24,
          "midi": 82,
          "name": "A#5",
          "ticks": 61248,
          "time": 170.133546,
          "velocity": 0.8188976377952756
        },
        {
          "duration": 0.066666749999996,
          "durationTicks": 24,
          "midi": 82,
          "name": "A#5",
          "ticks": 61296,
          "time": 170.2668795,
          "velocity": 0.8188976377952756
        },
        {
          "duration": 0.266666999999984,
          "durationTicks": 96,
          "midi": 82,
          "name": "A#5",
          "ticks": 61392,
          "time": 170.5335465,
          "velocity": 0.8188976377952756
        },
        {
          "duration": 0.066666749999996,
          "durationTicks": 24,
          "midi": 81,
          "name": "A5",
          "ticks": 61488,
          "time": 170.80021349999998,
          "velocity": 0.8188976377952756
        },
        {
          "duration": 0.066666749999996,
          "durationTicks": 24,
          "midi": 82,
          "name": "A#5",
          "ticks": 61536,
          "time": 170.933547,
          "velocity": 0.8188976377952756
        },
        {
          "duration": 0.066666749999996,
          "durationTicks": 24,
          "midi": 81,
          "name": "A5",
          "ticks": 61584,
          "time": 171.0668805,
          "velocity": 0.8188976377952756
        },
        {
          "duration": 0.03333337500001221,
          "durationTicks": 12,
          "midi": 84,
          "name": "C6",
          "ticks": 62976,
          "time": 174.933552,
          "velocity": 0.8188976377952756
        },
        {
          "duration": 0.2333336250000002,
          "durationTicks": 84,
          "midi": 85,
          "name": "C#6",
          "ticks": 62988,
          "time": 174.966885375,
          "velocity": 0.8188976377952756
        },
        {
          "duration": 0.266666999999984,
          "durationTicks": 96,
          "midi": 82,
          "name": "A#5",
          "ticks": 63072,
          "time": 175.200219,
          "velocity": 0.8188976377952756
        },
        {
          "duration": 0.03333337500001221,
          "durationTicks": 12,
          "midi": 79,
          "name": "G5",
          "ticks": 63168,
          "time": 175.466886,
          "velocity": 0.8188976377952756
        },
        {
          "duration": 0.2333336250000002,
          "durationTicks": 84,
          "midi": 80,
          "name": "G#5",
          "ticks": 63180,
          "time": 175.500219375,
          "velocity": 0.8188976377952756
        },
        {
          "duration": 0.2333336250000002,
          "durationTicks": 84,
          "midi": 78,
          "name": "F#5",
          "ticks": 63264,
          "time": 175.733553,
          "velocity": 0.8188976377952756
        },
        {
          "duration": 0.13333350000002042,
          "durationTicks": 48,
          "midi": 78,
          "name": "F#5",
          "ticks": 63360,
          "time": 176.00021999999998,
          "velocity": 0.8188976377952756
        },
        {
          "duration": 0.133333499999992,
          "durationTicks": 48,
          "midi": 90,
          "name": "F#6",
          "ticks": 63408,
          "time": 176.1335535,
          "velocity": 0.8188976377952756
        },
        {
          "duration": 0.066666749999996,
          "durationTicks": 24,
          "midi": 75,
          "name": "D#5",
          "ticks": 63504,
          "time": 176.4002205,
          "velocity": 0.8188976377952756
        },
        {
          "duration": 0.066666749999996,
          "durationTicks": 24,
          "midi": 77,
          "name": "F5",
          "ticks": 63528,
          "time": 176.46688724999998,
          "velocity": 0.8188976377952756
        },
        {
          "duration": 0.03333337500001221,
          "durationTicks": 12,
          "midi": 78,
          "name": "F#5",
          "ticks": 63552,
          "time": 176.53355399999998,
          "velocity": 0.8188976377952756
        },
        {
          "duration": 0.03333337499998379,
          "durationTicks": 12,
          "midi": 78,
          "name": "F#5",
          "ticks": 63576,
          "time": 176.60022075,
          "velocity": 0.8188976377952756
        },
        {
          "duration": 0.041666718749979736,
          "durationTicks": 15,
          "midi": 78,
          "name": "F#5",
          "ticks": 63600,
          "time": 176.6668875,
          "velocity": 0.8188976377952756
        },
        {
          "duration": 0.03333337499998379,
          "durationTicks": 12,
          "midi": 78,
          "name": "F#5",
          "ticks": 63624,
          "time": 176.73355425,
          "velocity": 0.8188976377952756
        },
        {
          "duration": 0.066666749999996,
          "durationTicks": 24,
          "midi": 87,
          "name": "D#6",
          "ticks": 63648,
          "time": 176.800221,
          "velocity": 0.8188976377952756
        },
        {
          "duration": 0.04444449999999733,
          "durationTicks": 16,
          "midi": 78,
          "name": "F#5",
          "ticks": 63696,
          "time": 176.93355449999999,
          "velocity": 0.8188976377952756
        },
        {
          "duration": 0.03333337500001221,
          "durationTicks": 12,
          "midi": 80,
          "name": "G#5",
          "ticks": 63720,
          "time": 177.00022124999998,
          "velocity": 0.8188976377952756
        },
        {
          "duration": 0.03333337499998379,
          "durationTicks": 12,
          "midi": 80,
          "name": "G#5",
          "ticks": 63768,
          "time": 177.13355475,
          "velocity": 0.8188976377952756
        },
        {
          "duration": 0.03333337499998379,
          "durationTicks": 12,
          "midi": 80,
          "name": "G#5",
          "ticks": 63792,
          "time": 177.2002215,
          "velocity": 0.8188976377952756
        },
        {
          "duration": 0.03333337499998379,
          "durationTicks": 12,
          "midi": 80,
          "name": "G#5",
          "ticks": 63816,
          "time": 177.26688825,
          "velocity": 0.8188976377952756
        },
        {
          "duration": 0.133333499999992,
          "durationTicks": 48,
          "midi": 87,
          "name": "D#6",
          "ticks": 63840,
          "time": 177.333555,
          "velocity": 0.8188976377952756
        },
        {
          "duration": 0.066666749999996,
          "durationTicks": 24,
          "midi": 82,
          "name": "A#5",
          "ticks": 63888,
          "time": 177.46688849999998,
          "velocity": 0.8188976377952756
        },
        {
          "duration": 0.06666675000002442,
          "durationTicks": 24,
          "midi": 80,
          "name": "G#5",
          "ticks": 63912,
          "time": 177.53355524999998,
          "velocity": 0.8188976377952756
        },
        {
          "duration": 0.03333337499998379,
          "durationTicks": 12,
          "midi": 82,
          "name": "A#5",
          "ticks": 63936,
          "time": 177.600222,
          "velocity": 0.8188976377952756
        },
        {
          "duration": 0.03333337499998379,
          "durationTicks": 12,
          "midi": 82,
          "name": "A#5",
          "ticks": 63960,
          "time": 177.66688875,
          "velocity": 0.8188976377952756
        },
        {
          "duration": 0.03333337499998379,
          "durationTicks": 12,
          "midi": 82,
          "name": "A#5",
          "ticks": 63984,
          "time": 177.7335555,
          "velocity": 0.8188976377952756
        },
        {
          "duration": 0.066666749999996,
          "durationTicks": 24,
          "midi": 82,
          "name": "A#5",
          "ticks": 64008,
          "time": 177.80022225,
          "velocity": 0.8188976377952756
        },
        {
          "duration": 0.133333499999992,
          "durationTicks": 48,
          "midi": 87,
          "name": "D#6",
          "ticks": 64032,
          "time": 177.866889,
          "velocity": 0.8188976377952756
        },
        {
          "duration": 0.13333350000002042,
          "durationTicks": 48,
          "midi": 82,
          "name": "A#5",
          "ticks": 64080,
          "time": 178.00022249999998,
          "velocity": 0.8188976377952756
        },
        {
          "duration": 0.133333499999992,
          "durationTicks": 48,
          "midi": 83,
          "name": "B5",
          "ticks": 64128,
          "time": 178.133556,
          "velocity": 0.8188976377952756
        },
        {
          "duration": 0.133333499999992,
          "durationTicks": 48,
          "midi": 82,
          "name": "A#5",
          "ticks": 64176,
          "time": 178.2668895,
          "velocity": 0.8188976377952756
        },
        {
          "duration": 0.13333350000002042,
          "durationTicks": 48,
          "midi": 81,
          "name": "A5",
          "ticks": 64224,
          "time": 178.40022299999998,
          "velocity": 0.8188976377952756
        },
        {
          "duration": 0.133333499999992,
          "durationTicks": 48,
          "midi": 80,
          "name": "G#5",
          "ticks": 64272,
          "time": 178.5335565,
          "velocity": 0.8188976377952756
        },
        {
          "duration": 0.133333499999992,
          "durationTicks": 48,
          "midi": 81,
          "name": "A5",
          "ticks": 64320,
          "time": 178.66689,
          "velocity": 0.8188976377952756
        },
        {
          "duration": 0.133333499999992,
          "durationTicks": 48,
          "midi": 80,
          "name": "G#5",
          "ticks": 64368,
          "time": 178.8002235,
          "velocity": 0.8188976377952756
        },
        {
          "duration": 0.13333350000002042,
          "durationTicks": 48,
          "midi": 79,
          "name": "G5",
          "ticks": 64416,
          "time": 178.93355699999998,
          "velocity": 0.8188976377952756
        },
        {
          "duration": 0.133333499999992,
          "durationTicks": 48,
          "midi": 78,
          "name": "F#5",
          "ticks": 64464,
          "time": 179.0668905,
          "velocity": 0.8188976377952756
        },
        {
          "duration": 0.133333499999992,
          "durationTicks": 48,
          "midi": 82,
          "name": "A#5",
          "ticks": 64512,
          "time": 179.200224,
          "velocity": 0.8188976377952756
        },
        {
          "duration": 0.13333350000002042,
          "durationTicks": 48,
          "midi": 83,
          "name": "B5",
          "ticks": 64560,
          "time": 179.33355749999998,
          "velocity": 0.8188976377952756
        },
        {
          "duration": 0.133333499999992,
          "durationTicks": 48,
          "midi": 82,
          "name": "A#5",
          "ticks": 64608,
          "time": 179.466891,
          "velocity": 0.8188976377952756
        },
        {
          "duration": 0.133333499999992,
          "durationTicks": 48,
          "midi": 83,
          "name": "B5",
          "ticks": 64656,
          "time": 179.6002245,
          "velocity": 0.8188976377952756
        },
        {
          "duration": 0.133333499999992,
          "durationTicks": 48,
          "midi": 86,
          "name": "D6",
          "ticks": 64704,
          "time": 179.733558,
          "velocity": 0.8188976377952756
        },
        {
          "duration": 0.13333350000002042,
          "durationTicks": 48,
          "midi": 87,
          "name": "D#6",
          "ticks": 64752,
          "time": 179.86689149999998,
          "velocity": 0.8188976377952756
        },
        {
          "duration": 0.133333499999992,
          "durationTicks": 48,
          "midi": 86,
          "name": "D6",
          "ticks": 64800,
          "time": 180.000225,
          "velocity": 0.8188976377952756
        },
        {
          "duration": 0.133333499999992,
          "durationTicks": 48,
          "midi": 87,
          "name": "D#6",
          "ticks": 64848,
          "time": 180.1335585,
          "velocity": 0.8188976377952756
        },
        {
          "duration": 0.13333350000002042,
          "durationTicks": 48,
          "midi": 89,
          "name": "F6",
          "ticks": 64896,
          "time": 180.26689199999998,
          "velocity": 0.8188976377952756
        },
        {
          "duration": 0.133333499999992,
          "durationTicks": 48,
          "midi": 90,
          "name": "F#6",
          "ticks": 64944,
          "time": 180.4002255,
          "velocity": 0.8188976377952756
        },
        {
          "duration": 0.133333499999992,
          "durationTicks": 48,
          "midi": 89,
          "name": "F6",
          "ticks": 64992,
          "time": 180.533559,
          "velocity": 0.8188976377952756
        },
        {
          "duration": 0.133333499999992,
          "durationTicks": 48,
          "midi": 90,
          "name": "F#6",
          "ticks": 65040,
          "time": 180.6668925,
          "velocity": 0.8188976377952756
        },
        {
          "duration": 0.13333350000002042,
          "durationTicks": 48,
          "midi": 94,
          "name": "A#6",
          "ticks": 65088,
          "time": 180.80022599999998,
          "velocity": 0.8188976377952756
        },
        {
          "duration": 0.133333499999992,
          "durationTicks": 48,
          "midi": 95,
          "name": "B6",
          "ticks": 65136,
          "time": 180.9335595,
          "velocity": 0.8188976377952756
        },
        {
          "duration": 0.133333499999992,
          "durationTicks": 48,
          "midi": 94,
          "name": "A#6",
          "ticks": 65184,
          "time": 181.066893,
          "velocity": 0.8188976377952756
        },
        {
          "duration": 0.133333499999992,
          "durationTicks": 48,
          "midi": 95,
          "name": "B6",
          "ticks": 65232,
          "time": 181.20022649999999,
          "velocity": 0.8188976377952756
        },
        {
          "duration": 0.13333350000002042,
          "durationTicks": 48,
          "midi": 94,
          "name": "A#6",
          "ticks": 65280,
          "time": 181.33355999999998,
          "velocity": 0.8188976377952756
        },
        {
          "duration": 0.2666670000000124,
          "durationTicks": 96,
          "midi": 74,
          "name": "D5",
          "ticks": 65952,
          "time": 183.20022899999998,
          "velocity": 0.8188976377952756
        },
        {
          "duration": 0.2666670000000124,
          "durationTicks": 96,
          "midi": 86,
          "name": "D6",
          "ticks": 66048,
          "time": 183.466896,
          "velocity": 0.8188976377952756
        },
        {
          "duration": 0.03333337499998379,
          "durationTicks": 12,
          "midi": 85,
          "name": "C#6",
          "ticks": 66192,
          "time": 183.8668965,
          "velocity": 0.8188976377952756
        },
        {
          "duration": 0.03333337500001221,
          "durationTicks": 12,
          "midi": 85,
          "name": "C#6",
          "ticks": 66216,
          "time": 183.93356325,
          "velocity": 0.8188976377952756
        },
        {
          "duration": 0.2666670000000124,
          "durationTicks": 96,
          "midi": 86,
          "name": "D6",
          "ticks": 66240,
          "time": 184.00023,
          "velocity": 0.8188976377952756
        },
        {
          "duration": 0.133333499999992,
          "durationTicks": 48,
          "midi": 85,
          "name": "C#6",
          "ticks": 66384,
          "time": 184.4002305,
          "velocity": 0.8188976377952756
        },
        {
          "duration": 0.13333350000002042,
          "durationTicks": 48,
          "midi": 86,
          "name": "D6",
          "ticks": 66432,
          "time": 184.53356399999998,
          "velocity": 0.8188976377952756
        },
        {
          "duration": 0.133333499999992,
          "durationTicks": 48,
          "midi": 85,
          "name": "C#6",
          "ticks": 66480,
          "time": 184.6668975,
          "velocity": 0.8188976377952756
        },
        {
          "duration": 0.133333499999992,
          "durationTicks": 48,
          "midi": 86,
          "name": "D6",
          "ticks": 66528,
          "time": 184.800231,
          "velocity": 0.8188976377952756
        },
        {
          "duration": 0.133333499999992,
          "durationTicks": 48,
          "midi": 85,
          "name": "C#6",
          "ticks": 66576,
          "time": 184.9335645,
          "velocity": 0.8188976377952756
        },
        {
          "duration": 0.2666670000000124,
          "durationTicks": 96,
          "midi": 86,
          "name": "D6",
          "ticks": 66624,
          "time": 185.06689799999998,
          "velocity": 0.8188976377952756
        },
        {
          "duration": 0.03333337500001221,
          "durationTicks": 12,
          "midi": 92,
          "name": "G#6",
          "ticks": 66720,
          "time": 185.333565,
          "velocity": 0.8188976377952756
        },
        {
          "duration": 0.2333336250000002,
          "durationTicks": 84,
          "midi": 94,
          "name": "A#6",
          "ticks": 66732,
          "time": 185.366898375,
          "velocity": 0.8188976377952756
        },
        {
          "duration": 0.133333499999992,
          "durationTicks": 48,
          "midi": 82,
          "name": "A#5",
          "ticks": 66816,
          "time": 185.600232,
          "velocity": 0.8188976377952756
        },
        {
          "duration": 0.03333337500001221,
          "durationTicks": 12,
          "midi": 83,
          "name": "B5",
          "ticks": 66912,
          "time": 185.866899,
          "velocity": 0.8188976377952756
        },
        {
          "duration": 0.24444475000001376,
          "durationTicks": 88,
          "midi": 84,
          "name": "C6",
          "ticks": 66920,
          "time": 185.88912125,
          "velocity": 0.8188976377952756
        },
        {
          "duration": 0.133333499999992,
          "durationTicks": 48,
          "midi": 78,
          "name": "F#5",
          "ticks": 67008,
          "time": 186.133566,
          "velocity": 0.8188976377952756
        },
        {
          "duration": 0.133333499999992,
          "durationTicks": 48,
          "midi": 79,
          "name": "G5",
          "ticks": 67056,
          "time": 186.2668995,
          "velocity": 0.8188976377952756
        },
        {
          "duration": 0.133333499999992,
          "durationTicks": 48,
          "midi": 81,
          "name": "A5",
          "ticks": 67104,
          "time": 186.400233,
          "velocity": 0.8188976377952756
        },
        {
          "duration": 0.13333350000002042,
          "durationTicks": 48,
          "midi": 82,
          "name": "A#5",
          "ticks": 67152,
          "time": 186.53356649999998,
          "velocity": 0.8188976377952756
        },
        {
          "duration": 0.03333337499998379,
          "durationTicks": 12,
          "midi": 88,
          "name": "E6",
          "ticks": 67200,
          "time": 186.6669,
          "velocity": 0.8188976377952756
        },
        {
          "duration": 0.2333336250000002,
          "durationTicks": 84,
          "midi": 89,
          "name": "F6",
          "ticks": 67212,
          "time": 186.70023337499998,
          "velocity": 0.8188976377952756
        },
        {
          "duration": 0.2666670000000124,
          "durationTicks": 96,
          "midi": 86,
          "name": "D6",
          "ticks": 67296,
          "time": 186.93356699999998,
          "velocity": 0.8188976377952756
        },
        {
          "duration": 0.03333337499998379,
          "durationTicks": 12,
          "midi": 83,
          "name": "B5",
          "ticks": 67392,
          "time": 187.200234,
          "velocity": 0.8188976377952756
        },
        {
          "duration": 0.2333336250000002,
          "durationTicks": 84,
          "midi": 84,
          "name": "C6",
          "ticks": 67404,
          "time": 187.23356737499998,
          "velocity": 0.8188976377952756
        },
        {
          "duration": 0.2333336250000002,
          "durationTicks": 84,
          "midi": 82,
          "name": "A#5",
          "ticks": 67488,
          "time": 187.46690099999998,
          "velocity": 0.8188976377952756
        },
        {
          "duration": 0.133333499999992,
          "durationTicks": 48,
          "midi": 82,
          "name": "A#5",
          "ticks": 67584,
          "time": 187.733568,
          "velocity": 0.8188976377952756
        },
        {
          "duration": 0.13333350000002042,
          "durationTicks": 48,
          "midi": 94,
          "name": "A#6",
          "ticks": 67632,
          "time": 187.86690149999998,
          "velocity": 0.8188976377952756
        },
        {
          "duration": 0.066666749999996,
          "durationTicks": 24,
          "midi": 79,
          "name": "G5",
          "ticks": 67728,
          "time": 188.1335685,
          "velocity": 0.8188976377952756
        },
        {
          "duration": 0.066666749999996,
          "durationTicks": 24,
          "midi": 81,
          "name": "A5",
          "ticks": 67752,
          "time": 188.20023525,
          "velocity": 0.8188976377952756
        },
        {
          "duration": 0.10000012500000821,
          "durationTicks": 36,
          "midi": 82,
          "name": "A#5",
          "ticks": 67776,
          "time": 188.266902,
          "velocity": 0.8188976377952756
        },
        {
          "duration": 0.03333337500001221,
          "durationTicks": 12,
          "midi": 82,
          "name": "A#5",
          "ticks": 67824,
          "time": 188.40023549999998,
          "velocity": 0.8188976377952756
        },
        {
          "duration": 0.03333337499998379,
          "durationTicks": 12,
          "midi": 82,
          "name": "A#5",
          "ticks": 67848,
          "time": 188.46690225,
          "velocity": 0.8188976377952756
        },
        {
          "duration": 0.066666749999996,
          "durationTicks": 24,
          "midi": 91,
          "name": "G6",
          "ticks": 67872,
          "time": 188.533569,
          "velocity": 0.8188976377952756
        },
        {
          "duration": 0.04444449999999733,
          "durationTicks": 16,
          "midi": 82,
          "name": "A#5",
          "ticks": 67896,
          "time": 188.60023575,
          "velocity": 0.8188976377952756
        },
        {
          "duration": 0.04444449999999733,
          "durationTicks": 16,
          "midi": 82,
          "name": "A#5",
          "ticks": 67920,
          "time": 188.6669025,
          "velocity": 0.8188976377952756
        },
        {
          "duration": 0.12222237500000688,
          "durationTicks": 44,
          "midi": 84,
          "name": "C6",
          "ticks": 67944,
          "time": 188.73356925,
          "velocity": 0.8188976377952756
        },
        {
          "duration": 0.03333337499998379,
          "durationTicks": 12,
          "midi": 84,
          "name": "C6",
          "ticks": 68016,
          "time": 188.9335695,
          "velocity": 0.8188976377952756
        },
        {
          "duration": 0.03333337499998379,
          "durationTicks": 12,
          "midi": 84,
          "name": "C6",
          "ticks": 68040,
          "time": 189.00023625,
          "velocity": 0.8188976377952756
        },
        {
          "duration": 0.133333499999992,
          "durationTicks": 48,
          "midi": 91,
          "name": "G6",
          "ticks": 68064,
          "time": 189.066903,
          "velocity": 0.8188976377952756
        },
        {
          "duration": 0.133333499999992,
          "durationTicks": 48,
          "midi": 84,
          "name": "C6",
          "ticks": 68112,
          "time": 189.2002365,
          "velocity": 0.8188976377952756
        },
        {
          "duration": 0.05555562500001088,
          "durationTicks": 20,
          "midi": 86,
          "name": "D6",
          "ticks": 68160,
          "time": 189.33356999999998,
          "velocity": 0.8188976377952756
        },
        {
          "duration": 0.05555562500001088,
          "durationTicks": 20,
          "midi": 86,
          "name": "D6",
          "ticks": 68208,
          "time": 189.4669035,
          "velocity": 0.8188976377952756
        },
        {
          "duration": 0.133333499999992,
          "durationTicks": 48,
          "midi": 91,
          "name": "G6",
          "ticks": 68256,
          "time": 189.600237,
          "velocity": 0.8188976377952756
        },
        {
          "duration": 0.133333499999992,
          "durationTicks": 48,
          "midi": 86,
          "name": "D6",
          "ticks": 68304,
          "time": 189.73357049999998,
          "velocity": 0.8188976377952756
        },
        {
          "duration": 0.13333350000002042,
          "durationTicks": 48,
          "midi": 87,
          "name": "D#6",
          "ticks": 68352,
          "time": 189.86690399999998,
          "velocity": 0.8188976377952756
        },
        {
          "duration": 0.133333499999992,
          "durationTicks": 48,
          "midi": 86,
          "name": "D6",
          "ticks": 68400,
          "time": 190.0002375,
          "velocity": 0.8188976377952756
        },
        {
          "duration": 0.133333499999992,
          "durationTicks": 48,
          "midi": 85,
          "name": "C#6",
          "ticks": 68448,
          "time": 190.133571,
          "velocity": 0.8188976377952756
        },
        {
          "duration": 0.13333350000002042,
          "durationTicks": 48,
          "midi": 84,
          "name": "C6",
          "ticks": 68496,
          "time": 190.26690449999998,
          "velocity": 0.8188976377952756
        },
        {
          "duration": 0.133333499999992,
          "durationTicks": 48,
          "midi": 85,
          "name": "C#6",
          "ticks": 68544,
          "time": 190.400238,
          "velocity": 0.8188976377952756
        },
        {
          "duration": 0.133333499999992,
          "durationTicks": 48,
          "midi": 84,
          "name": "C6",
          "ticks": 68592,
          "time": 190.5335715,
          "velocity": 0.8188976377952756
        },
        {
          "duration": 0.133333499999992,
          "durationTicks": 48,
          "midi": 83,
          "name": "B5",
          "ticks": 68640,
          "time": 190.66690499999999,
          "velocity": 0.8188976377952756
        },
        {
          "duration": 0.13333350000002042,
          "durationTicks": 48,
          "midi": 82,
          "name": "A#5",
          "ticks": 68688,
          "time": 190.80023849999998,
          "velocity": 0.8188976377952756
        },
        {
          "duration": 0.133333499999992,
          "durationTicks": 48,
          "midi": 86,
          "name": "D6",
          "ticks": 68736,
          "time": 190.933572,
          "velocity": 0.8188976377952756
        },
        {
          "duration": 0.133333499999992,
          "durationTicks": 48,
          "midi": 87,
          "name": "D#6",
          "ticks": 68784,
          "time": 191.0669055,
          "velocity": 0.8188976377952756
        },
        {
          "duration": 0.13333350000002042,
          "durationTicks": 48,
          "midi": 86,
          "name": "D6",
          "ticks": 68832,
          "time": 191.20023899999998,
          "velocity": 0.8188976377952756
        },
        {
          "duration": 0.133333499999992,
          "durationTicks": 48,
          "midi": 87,
          "name": "D#6",
          "ticks": 68880,
          "time": 191.3335725,
          "velocity": 0.8188976377952756
        },
        {
          "duration": 0.133333499999992,
          "durationTicks": 48,
          "midi": 86,
          "name": "D6",
          "ticks": 68928,
          "time": 191.466906,
          "velocity": 0.8188976377952756
        },
        {
          "duration": 0.2666670000000124,
          "durationTicks": 96,
          "midi": 79,
          "name": "G5",
          "ticks": 69024,
          "time": 191.73357299999998,
          "velocity": 0.8188976377952756
        },
        {
          "duration": 0.03333337500001221,
          "durationTicks": 12,
          "midi": 89,
          "name": "F6",
          "ticks": 69120,
          "time": 192.00024,
          "velocity": 0.8188976377952756
        },
        {
          "duration": 0.2500003125000205,
          "durationTicks": 90,
          "midi": 91,
          "name": "G6",
          "ticks": 69126,
          "time": 192.01690668749998,
          "velocity": 0.8188976377952756
        },
        {
          "duration": 0.066666749999996,
          "durationTicks": 24,
          "midi": 86,
          "name": "D6",
          "ticks": 69264,
          "time": 192.4002405,
          "velocity": 0.8188976377952756
        },
        {
          "duration": 0.2666670000000124,
          "durationTicks": 96,
          "midi": 84,
          "name": "C6",
          "ticks": 69312,
          "time": 192.533574,
          "velocity": 0.8188976377952756
        },
        {
          "duration": 0.133333499999992,
          "durationTicks": 48,
          "midi": 82,
          "name": "A#5",
          "ticks": 69456,
          "time": 192.9335745,
          "velocity": 0.8188976377952756
        },
        {
          "duration": 0.03333337500001221,
          "durationTicks": 12,
          "midi": 82,
          "name": "A#5",
          "ticks": 69504,
          "time": 193.06690799999998,
          "velocity": 0.8188976377952756
        },
        {
          "duration": 0.24722253125000293,
          "durationTicks": 89,
          "midi": 84,
          "name": "C6",
          "ticks": 69511,
          "time": 193.08635246875,
          "velocity": 0.8188976377952756
        },
        {
          "duration": 0.266666999999984,
          "durationTicks": 96,
          "midi": 87,
          "name": "D#6",
          "ticks": 69600,
          "time": 193.333575,
          "velocity": 0.8188976377952756
        },
        {
          "duration": 0.2666670000000124,
          "durationTicks": 96,
          "midi": 86,
          "name": "D6",
          "ticks": 69696,
          "time": 193.60024199999998,
          "velocity": 0.8188976377952756
        },
        {
          "duration": 0.2666670000000124,
          "durationTicks": 96,
          "midi": 79,
          "name": "G5",
          "ticks": 69792,
          "time": 193.866909,
          "velocity": 0.8188976377952756
        },
        {
          "duration": 0.03333337499998379,
          "durationTicks": 12,
          "midi": 89,
          "name": "F6",
          "ticks": 69888,
          "time": 194.133576,
          "velocity": 0.8188976377952756
        },
        {
          "duration": 0.2500003124999921,
          "durationTicks": 90,
          "midi": 91,
          "name": "G6",
          "ticks": 69894,
          "time": 194.1502426875,
          "velocity": 0.8188976377952756
        },
        {
          "duration": 0.066666749999996,
          "durationTicks": 24,
          "midi": 86,
          "name": "D6",
          "ticks": 70032,
          "time": 194.53357649999998,
          "velocity": 0.8188976377952756
        },
        {
          "duration": 0.266666999999984,
          "durationTicks": 96,
          "midi": 84,
          "name": "C6",
          "ticks": 70080,
          "time": 194.66691,
          "velocity": 0.8188976377952756
        },
        {
          "duration": 0.13333350000002042,
          "durationTicks": 48,
          "midi": 81,
          "name": "A5",
          "ticks": 70224,
          "time": 195.06691049999998,
          "velocity": 0.8188976377952756
        },
        {
          "duration": 0.133333499999992,
          "durationTicks": 48,
          "midi": 84,
          "name": "C6",
          "ticks": 70272,
          "time": 195.200244,
          "velocity": 0.8188976377952756
        },
        {
          "duration": 0.133333499999992,
          "durationTicks": 48,
          "midi": 84,
          "name": "C6",
          "ticks": 70320,
          "time": 195.3335775,
          "velocity": 0.8188976377952756
        },
        {
          "duration": 0.13333350000002042,
          "durationTicks": 48,
          "midi": 82,
          "name": "A#5",
          "ticks": 70368,
          "time": 195.46691099999998,
          "velocity": 0.8188976377952756
        },
        {
          "duration": 0.133333499999992,
          "durationTicks": 48,
          "midi": 81,
          "name": "A5",
          "ticks": 70416,
          "time": 195.6002445,
          "velocity": 0.8188976377952756
        },
        {
          "duration": 0.1555557500000191,
          "durationTicks": 56,
          "midi": 82,
          "name": "A#5",
          "ticks": 70464,
          "time": 195.733578,
          "velocity": 0.8188976377952756
        },
        {
          "duration": 0.2666670000000124,
          "durationTicks": 96,
          "midi": 79,
          "name": "G5",
          "ticks": 70560,
          "time": 196.00024499999998,
          "velocity": 0.8188976377952756
        },
        {
          "duration": 0.03333337500001221,
          "durationTicks": 12,
          "midi": 89,
          "name": "F6",
          "ticks": 70656,
          "time": 196.266912,
          "velocity": 0.8188976377952756
        },
        {
          "duration": 0.2500003125000205,
          "durationTicks": 90,
          "midi": 91,
          "name": "G6",
          "ticks": 70662,
          "time": 196.28357868749998,
          "velocity": 0.8188976377952756
        },
        {
          "duration": 0.066666749999996,
          "durationTicks": 24,
          "midi": 86,
          "name": "D6",
          "ticks": 70800,
          "time": 196.6669125,
          "velocity": 0.8188976377952756
        },
        {
          "duration": 0.2666670000000124,
          "durationTicks": 96,
          "midi": 84,
          "name": "C6",
          "ticks": 70848,
          "time": 196.800246,
          "velocity": 0.8188976377952756
        },
        {
          "duration": 0.133333499999992,
          "durationTicks": 48,
          "midi": 82,
          "name": "A#5",
          "ticks": 70992,
          "time": 197.2002465,
          "velocity": 0.8188976377952756
        },
        {
          "duration": 0.03333337500001221,
          "durationTicks": 12,
          "midi": 82,
          "name": "A#5",
          "ticks": 71040,
          "time": 197.33357999999998,
          "velocity": 0.8188976377952756
        },
        {
          "duration": 0.24722253125000293,
          "durationTicks": 89,
          "midi": 84,
          "name": "C6",
          "ticks": 71047,
          "time": 197.35302446875,
          "velocity": 0.8188976377952756
        },
        {
          "duration": 0.266666999999984,
          "durationTicks": 96,
          "midi": 87,
          "name": "D#6",
          "ticks": 71136,
          "time": 197.600247,
          "velocity": 0.8188976377952756
        },
        {
          "duration": 0.2666670000000124,
          "durationTicks": 96,
          "midi": 86,
          "name": "D6",
          "ticks": 71232,
          "time": 197.86691399999998,
          "velocity": 0.8188976377952756
        },
        {
          "duration": 0.266666999999984,
          "durationTicks": 96,
          "midi": 79,
          "name": "G5",
          "ticks": 71328,
          "time": 198.133581,
          "velocity": 0.8188976377952756
        },
        {
          "duration": 0.03333337500001221,
          "durationTicks": 12,
          "midi": 89,
          "name": "F6",
          "ticks": 71424,
          "time": 198.40024799999998,
          "velocity": 0.8188976377952756
        },
        {
          "duration": 0.2500003124999921,
          "durationTicks": 90,
          "midi": 91,
          "name": "G6",
          "ticks": 71430,
          "time": 198.4169146875,
          "velocity": 0.8188976377952756
        },
        {
          "duration": 0.066666749999996,
          "durationTicks": 24,
          "midi": 86,
          "name": "D6",
          "ticks": 71568,
          "time": 198.80024849999998,
          "velocity": 0.8188976377952756
        },
        {
          "duration": 0.266666999999984,
          "durationTicks": 96,
          "midi": 84,
          "name": "C6",
          "ticks": 71616,
          "time": 198.933582,
          "velocity": 0.8188976377952756
        },
        {
          "duration": 0.13333350000002042,
          "durationTicks": 48,
          "midi": 81,
          "name": "A5",
          "ticks": 71760,
          "time": 199.33358249999998,
          "velocity": 0.8188976377952756
        },
        {
          "duration": 0.133333499999992,
          "durationTicks": 48,
          "midi": 84,
          "name": "C6",
          "ticks": 71808,
          "time": 199.466916,
          "velocity": 0.8188976377952756
        },
        {
          "duration": 0.13333350000002042,
          "durationTicks": 48,
          "midi": 82,
          "name": "A#5",
          "ticks": 71904,
          "time": 199.73358299999998,
          "velocity": 0.8188976377952756
        },
        {
          "duration": 0.133333499999992,
          "durationTicks": 48,
          "midi": 81,
          "name": "A5",
          "ticks": 71952,
          "time": 199.8669165,
          "velocity": 0.8188976377952756
        },
        {
          "duration": 0.266666999999984,
          "durationTicks": 96,
          "midi": 82,
          "name": "A#5",
          "ticks": 72000,
          "time": 200.00025,
          "velocity": 0.8188976377952756
        },
        {
          "duration": 0.2666670000000124,
          "durationTicks": 96,
          "midi": 79,
          "name": "G5",
          "ticks": 72096,
          "time": 200.26691699999998,
          "velocity": 0.8188976377952756
        },
        {
          "duration": 0.03333337500001221,
          "durationTicks": 12,
          "midi": 89,
          "name": "F6",
          "ticks": 72192,
          "time": 200.533584,
          "velocity": 0.8188976377952756
        },
        {
          "duration": 0.2500003125000205,
          "durationTicks": 90,
          "midi": 91,
          "name": "G6",
          "ticks": 72198,
          "time": 200.55025068749998,
          "velocity": 0.8188976377952756
        },
        {
          "duration": 0.066666749999996,
          "durationTicks": 24,
          "midi": 86,
          "name": "D6",
          "ticks": 72336,
          "time": 200.9335845,
          "velocity": 0.8188976377952756
        },
        {
          "duration": 0.2666670000000124,
          "durationTicks": 96,
          "midi": 84,
          "name": "C6",
          "ticks": 72384,
          "time": 201.066918,
          "velocity": 0.8188976377952756
        },
        {
          "duration": 0.04444449999999733,
          "durationTicks": 16,
          "midi": 85,
          "name": "C#6",
          "ticks": 72528,
          "time": 201.4669185,
          "velocity": 0.8188976377952756
        },
        {
          "duration": 0.04444449999999733,
          "durationTicks": 16,
          "midi": 85,
          "name": "C#6",
          "ticks": 72552,
          "time": 201.53358525,
          "velocity": 0.8188976377952756
        },
        {
          "duration": 0.13333350000002042,
          "durationTicks": 48,
          "midi": 86,
          "name": "D6",
          "ticks": 72576,
          "time": 201.60025199999998,
          "velocity": 0.8188976377952756
        },
        {
          "duration": 0.133333499999992,
          "durationTicks": 48,
          "midi": 90,
          "name": "F#6",
          "ticks": 72672,
          "time": 201.866919,
          "velocity": 0.8188976377952756
        },
        {
          "duration": 0.03333337500001221,
          "durationTicks": 12,
          "midi": 90,
          "name": "F#6",
          "ticks": 72768,
          "time": 202.13358599999998,
          "velocity": 0.8188976377952756
        },
        {
          "duration": 0.2500003124999921,
          "durationTicks": 90,
          "midi": 91,
          "name": "G6",
          "ticks": 72774,
          "time": 202.1502526875,
          "velocity": 0.8188976377952756
        },
        {
          "duration": 0.12765950000002135,
          "durationTicks": 48,
          "midi": 86,
          "name": "D6",
          "ticks": 79104,
          "time": 219.1325979583333,
          "velocity": 0.8188976377952756
        },
        {
          "duration": 0.13215850000000273,
          "durationTicks": 48,
          "midi": 90,
          "name": "F#6",
          "ticks": 79200,
          "time": 219.3879169583333,
          "velocity": 0.8188976377952756
        },
        {
          "duration": 0.03330889583330077,
          "durationTicks": 12,
          "midi": 90,
          "name": "F#6",
          "ticks": 79296,
          "time": 219.6522339583333,
          "velocity": 0.8188976377952756
        },
        {
          "duration": 0.2500003124999921,
          "durationTicks": 90,
          "midi": 91,
          "name": "G6",
          "ticks": 79302,
          "time": 219.66887616666662,
          "velocity": 0.8188976377952756
        }
      ],
      "endOfTrackTicks": 82491
    },
    {
      "channel": 6,
      "controlChanges": {
        "6": [
          {
            "number": 6,
            "ticks": 0,
            "time": 0,
            "value": 0.09448818897637795
          },
          {
            "number": 6,
            "ticks": 0,
            "time": 0,
            "value": 0.09448818897637795
          },
          {
            "number": 6,
            "ticks": 0,
            "time": 0,
            "value": 0.09448818897637795
          },
          {
            "number": 6,
            "ticks": 82466,
            "time": 228.45777604166662,
            "value": 0.09448818897637795
          },
          {
            "number": 6,
            "ticks": 82491,
            "time": 228.52722057291663,
            "value": 0.09448818897637795
          }
        ],
        "7": [
          {
            "number": 7,
            "ticks": 0,
            "time": 0,
            "value": 0.7874015748031497
          },
          {
            "number": 7,
            "ticks": 0,
            "time": 0,
            "value": 0.7874015748031497
          },
          {
            "number": 7,
            "ticks": 0,
            "time": 0,
            "value": 0.7874015748031497
          },
          {
            "number": 7,
            "ticks": 0,
            "time": 0,
            "value": 0.7874015748031497
          },
          {
            "number": 7,
            "ticks": 82466,
            "time": 228.45777604166662,
            "value": 0.7874015748031497
          },
          {
            "number": 7,
            "ticks": 82491,
            "time": 228.52722057291663,
            "value": 0.7874015748031497
          }
        ],
        "10": [
          {
            "number": 10,
            "ticks": 0,
            "time": 0,
            "value": 0.5039370078740157
          },
          {
            "number": 10,
            "ticks": 0,
            "time": 0,
            "value": 0.5039370078740157
          },
          {
            "number": 10,
            "ticks": 0,
            "time": 0,
            "value": 0.5039370078740157
          },
          {
            "number": 10,
            "ticks": 0,
            "time": 0,
            "value": 0.5039370078740157
          },
          {
            "number": 10,
            "ticks": 82466,
            "time": 228.45777604166662,
            "value": 0.5039370078740157
          },
          {
            "number": 10,
            "ticks": 82491,
            "time": 228.52722057291663,
            "value": 0.5039370078740157
          }
        ],
        "100": [
          {
            "number": 100,
            "ticks": 0,
            "time": 0,
            "value": 0
          },
          {
            "number": 100,
            "ticks": 0,
            "time": 0,
            "value": 0
          },
          {
            "number": 100,
            "ticks": 0,
            "time": 0,
            "value": 0
          },
          {
            "number": 100,
            "ticks": 82466,
            "time": 228.45777604166662,
            "value": 0
          },
          {
            "number": 100,
            "ticks": 82491,
            "time": 228.52722057291663,
            "value": 0
          }
        ],
        "101": [
          {
            "number": 101,
            "ticks": 0,
            "time": 0,
            "value": 0
          },
          {
            "number": 101,
            "ticks": 0,
            "time": 0,
            "value": 0
          },
          {
            "number": 101,
            "ticks": 0,
            "time": 0,
            "value": 0
          },
          {
            "number": 101,
            "ticks": 82466,
            "time": 228.45777604166662,
            "value": 0
          },
          {
            "number": 101,
            "ticks": 82491,
            "time": 228.52722057291663,
            "value": 0
          }
        ]
      },
      "pitchBends": [
        {
          "ticks": 0,
          "time": 0,
          "value": 0
        },
        {
          "ticks": 0,
          "time": 0,
          "value": 0
        },
        {
          "ticks": 0,
          "time": 0,
          "value": 0
        },
        {
          "ticks": 0,
          "time": 0,
          "value": 0
        },
        {
          "ticks": 82466,
          "time": 228.45777604166662,
          "value": 0
        },
        {
          "ticks": 82491,
          "time": 228.52722057291663,
          "value": 0
        }
      ],
      "instrument": {
        "family": "piano",
        "number": 0,
        "name": "acoustic grand piano"
      },
      "name": "Pad",
      "notes": [
        {
          "duration": 0.088889,
          "durationTicks": 32,
          "midi": 82,
          "name": "A#5",
          "ticks": 1648,
          "time": 4.5777835,
          "velocity": 0.7637795275590551
        },
        {
          "duration": 0.088889,
          "durationTicks": 32,
          "midi": 75,
          "name": "D#5",
          "ticks": 1680,
          "time": 4.6666725,
          "velocity": 0.7559055118110236
        },
        {
          "duration": 0.08888899999999911,
          "durationTicks": 32,
          "midi": 69,
          "name": "A4",
          "ticks": 1704,
          "time": 4.73333925,
          "velocity": 0.7401574803149606
        },
        {
          "duration": 3.700004625,
          "durationTicks": 1332,
          "midi": 58,
          "name": "A#3",
          "ticks": 1728,
          "time": 4.800006,
          "velocity": 0.7322834645669292
        },
        {
          "duration": 3.700004625,
          "durationTicks": 1332,
          "midi": 51,
          "name": "D#3",
          "ticks": 1728,
          "time": 4.800006,
          "velocity": 0.7322834645669292
        },
        {
          "duration": 3.700004625,
          "durationTicks": 1332,
          "midi": 46,
          "name": "A#2",
          "ticks": 1728,
          "time": 4.800006,
          "velocity": 0.7322834645669292
        },
        {
          "duration": 3.700004624999999,
          "durationTicks": 1332,
          "midi": 63,
          "name": "D#4",
          "ticks": 1732,
          "time": 4.811117125,
          "velocity": 0.7322834645669292
        },
        {
          "duration": 4.088894,
          "durationTicks": 1472,
          "midi": 46,
          "name": "A#2",
          "ticks": 3264,
          "time": 9.066678,
          "velocity": 0.7165354330708661
        },
        {
          "duration": 4.088894,
          "durationTicks": 1472,
          "midi": 51,
          "name": "D#3",
          "ticks": 3264,
          "time": 9.066678,
          "velocity": 0.7165354330708661
        },
        {
          "duration": 4.088894,
          "durationTicks": 1472,
          "midi": 58,
          "name": "A#3",
          "ticks": 3264,
          "time": 9.066678,
          "velocity": 0.7165354330708661
        },
        {
          "duration": 4.000005,
          "durationTicks": 1440,
          "midi": 58,
          "name": "A#3",
          "ticks": 4896,
          "time": 13.600017,
          "velocity": 0.7165354330708661
        },
        {
          "duration": 4.000005,
          "durationTicks": 1440,
          "midi": 51,
          "name": "D#3",
          "ticks": 4896,
          "time": 13.600017,
          "velocity": 0.7165354330708661
        },
        {
          "duration": 4.000005,
          "durationTicks": 1440,
          "midi": 46,
          "name": "A#2",
          "ticks": 4896,
          "time": 13.600017,
          "velocity": 0.7165354330708661
        },
        {
          "duration": 0.1333334999999991,
          "durationTicks": 48,
          "midi": 63,
          "name": "D#4",
          "ticks": 6864,
          "time": 19.0666905,
          "velocity": 0.6850393700787402
        },
        {
          "duration": 0.1333334999999991,
          "durationTicks": 48,
          "midi": 58,
          "name": "A#3",
          "ticks": 6864,
          "time": 19.0666905,
          "velocity": 0.6850393700787402
        },
        {
          "duration": 0.1333334999999991,
          "durationTicks": 48,
          "midi": 51,
          "name": "D#3",
          "ticks": 6864,
          "time": 19.0666905,
          "velocity": 0.6850393700787402
        },
        {
          "duration": 0.13333350000000266,
          "durationTicks": 48,
          "midi": 51,
          "name": "D#3",
          "ticks": 7008,
          "time": 19.466690999999997,
          "velocity": 0.6850393700787402
        },
        {
          "duration": 0.13333350000000266,
          "durationTicks": 48,
          "midi": 58,
          "name": "A#3",
          "ticks": 7008,
          "time": 19.466690999999997,
          "velocity": 0.6850393700787402
        },
        {
          "duration": 0.13333350000000266,
          "durationTicks": 48,
          "midi": 63,
          "name": "D#4",
          "ticks": 7008,
          "time": 19.466690999999997,
          "velocity": 0.6850393700787402
        },
        {
          "duration": 0.1333334999999991,
          "durationTicks": 48,
          "midi": 63,
          "name": "D#4",
          "ticks": 7632,
          "time": 21.2000265,
          "velocity": 0.6850393700787402
        },
        {
          "duration": 0.1333334999999991,
          "durationTicks": 48,
          "midi": 58,
          "name": "A#3",
          "ticks": 7632,
          "time": 21.2000265,
          "velocity": 0.6850393700787402
        },
        {
          "duration": 0.1333334999999991,
          "durationTicks": 48,
          "midi": 51,
          "name": "D#3",
          "ticks": 7632,
          "time": 21.2000265,
          "velocity": 0.6850393700787402
        },
        {
          "duration": 0.13333350000000266,
          "durationTicks": 48,
          "midi": 51,
          "name": "D#3",
          "ticks": 7776,
          "time": 21.600026999999997,
          "velocity": 0.6850393700787402
        },
        {
          "duration": 0.13333350000000266,
          "durationTicks": 48,
          "midi": 58,
          "name": "A#3",
          "ticks": 7776,
          "time": 21.600026999999997,
          "velocity": 0.6850393700787402
        },
        {
          "duration": 0.13333350000000266,
          "durationTicks": 48,
          "midi": 63,
          "name": "D#4",
          "ticks": 7776,
          "time": 21.600026999999997,
          "velocity": 0.6850393700787402
        },
        {
          "duration": 0.1333334999999991,
          "durationTicks": 48,
          "midi": 63,
          "name": "D#4",
          "ticks": 8400,
          "time": 23.3333625,
          "velocity": 0.6850393700787402
        },
        {
          "duration": 0.1333334999999991,
          "durationTicks": 48,
          "midi": 58,
          "name": "A#3",
          "ticks": 8400,
          "time": 23.3333625,
          "velocity": 0.6850393700787402
        },
        {
          "duration": 0.1333334999999991,
          "durationTicks": 48,
          "midi": 51,
          "name": "D#3",
          "ticks": 8400,
          "time": 23.3333625,
          "velocity": 0.6850393700787402
        },
        {
          "duration": 0.13333350000000266,
          "durationTicks": 48,
          "midi": 51,
          "name": "D#3",
          "ticks": 8544,
          "time": 23.733362999999997,
          "velocity": 0.6850393700787402
        },
        {
          "duration": 0.13333350000000266,
          "durationTicks": 48,
          "midi": 58,
          "name": "A#3",
          "ticks": 8544,
          "time": 23.733362999999997,
          "velocity": 0.6850393700787402
        },
        {
          "duration": 0.13333350000000266,
          "durationTicks": 48,
          "midi": 63,
          "name": "D#4",
          "ticks": 8544,
          "time": 23.733362999999997,
          "velocity": 0.6850393700787402
        },
        {
          "duration": 0.533334,
          "durationTicks": 192,
          "midi": 54,
          "name": "F#3",
          "ticks": 8832,
          "time": 24.533364,
          "velocity": 0.6929133858267716
        },
        {
          "duration": 0.533334,
          "durationTicks": 192,
          "midi": 58,
          "name": "A#3",
          "ticks": 8832,
          "time": 24.533364,
          "velocity": 0.6929133858267716
        },
        {
          "duration": 0.533334,
          "durationTicks": 192,
          "midi": 63,
          "name": "D#4",
          "ticks": 8832,
          "time": 24.533364,
          "velocity": 0.6929133858267716
        },
        {
          "duration": 0.533334,
          "durationTicks": 192,
          "midi": 66,
          "name": "F#4",
          "ticks": 8832,
          "time": 24.533364,
          "velocity": 0.6929133858267716
        },
        {
          "duration": 0.533334,
          "durationTicks": 192,
          "midi": 53,
          "name": "F3",
          "ticks": 9024,
          "time": 25.066698,
          "velocity": 0.6929133858267716
        },
        {
          "duration": 0.533334,
          "durationTicks": 192,
          "midi": 65,
          "name": "F4",
          "ticks": 9024,
          "time": 25.066698,
          "velocity": 0.6929133858267716
        },
        {
          "duration": 0.533334,
          "durationTicks": 192,
          "midi": 57,
          "name": "A3",
          "ticks": 9024,
          "time": 25.066698,
          "velocity": 0.6929133858267716
        },
        {
          "duration": 0.533334,
          "durationTicks": 192,
          "midi": 61,
          "name": "C#4",
          "ticks": 9024,
          "time": 25.066698,
          "velocity": 0.6929133858267716
        },
        {
          "duration": 0.533334,
          "durationTicks": 192,
          "midi": 56,
          "name": "G#3",
          "ticks": 9216,
          "time": 25.600032,
          "velocity": 0.6929133858267716
        },
        {
          "duration": 0.533334,
          "durationTicks": 192,
          "midi": 59,
          "name": "B3",
          "ticks": 9216,
          "time": 25.600032,
          "velocity": 0.6929133858267716
        },
        {
          "duration": 0.533334,
          "durationTicks": 192,
          "midi": 63,
          "name": "D#4",
          "ticks": 9216,
          "time": 25.600032,
          "velocity": 0.6929133858267716
        },
        {
          "duration": 0.533334,
          "durationTicks": 192,
          "midi": 68,
          "name": "G#4",
          "ticks": 9216,
          "time": 25.600032,
          "velocity": 0.6929133858267716
        },
        {
          "duration": 0.1333334999999991,
          "durationTicks": 48,
          "midi": 53,
          "name": "F3",
          "ticks": 9408,
          "time": 26.133366,
          "velocity": 0.6929133858267716
        },
        {
          "duration": 0.1333334999999991,
          "durationTicks": 48,
          "midi": 65,
          "name": "F4",
          "ticks": 9408,
          "time": 26.133366,
          "velocity": 0.6929133858267716
        },
        {
          "duration": 0.1333334999999991,
          "durationTicks": 48,
          "midi": 58,
          "name": "A#3",
          "ticks": 9408,
          "time": 26.133366,
          "velocity": 0.6929133858267716
        },
        {
          "duration": 0.1333334999999991,
          "durationTicks": 48,
          "midi": 62,
          "name": "D4",
          "ticks": 9408,
          "time": 26.133366,
          "velocity": 0.6929133858267716
        },
        {
          "duration": 0.1333334999999991,
          "durationTicks": 48,
          "midi": 63,
          "name": "D#4",
          "ticks": 9792,
          "time": 27.200034,
          "velocity": 0.6850393700787402
        },
        {
          "duration": 0.1333334999999991,
          "durationTicks": 48,
          "midi": 51,
          "name": "D#3",
          "ticks": 9792,
          "time": 27.200034,
          "velocity": 0.6850393700787402
        },
        {
          "duration": 0.1333334999999991,
          "durationTicks": 48,
          "midi": 58,
          "name": "A#3",
          "ticks": 9792,
          "time": 27.200034,
          "velocity": 0.6850393700787402
        },
        {
          "duration": 0.1333334999999991,
          "durationTicks": 48,
          "midi": 51,
          "name": "D#3",
          "ticks": 9936,
          "time": 27.6000345,
          "velocity": 0.6850393700787402
        },
        {
          "duration": 0.1333334999999991,
          "durationTicks": 48,
          "midi": 58,
          "name": "A#3",
          "ticks": 9936,
          "time": 27.6000345,
          "velocity": 0.6850393700787402
        },
        {
          "duration": 0.1333334999999991,
          "durationTicks": 48,
          "midi": 63,
          "name": "D#4",
          "ticks": 9936,
          "time": 27.6000345,
          "velocity": 0.6850393700787402
        },
        {
          "duration": 0.13333350000000266,
          "durationTicks": 48,
          "midi": 63,
          "name": "D#4",
          "ticks": 10080,
          "time": 28.000034999999997,
          "velocity": 0.6850393700787402
        },
        {
          "duration": 0.13333350000000266,
          "durationTicks": 48,
          "midi": 58,
          "name": "A#3",
          "ticks": 10080,
          "time": 28.000034999999997,
          "velocity": 0.6850393700787402
        },
        {
          "duration": 0.13333350000000266,
          "durationTicks": 48,
          "midi": 51,
          "name": "D#3",
          "ticks": 10080,
          "time": 28.000034999999997,
          "velocity": 0.6850393700787402
        },
        {
          "duration": 0.1333334999999991,
          "durationTicks": 48,
          "midi": 63,
          "name": "D#4",
          "ticks": 10560,
          "time": 29.33337,
          "velocity": 0.6850393700787402
        },
        {
          "duration": 0.1333334999999991,
          "durationTicks": 48,
          "midi": 58,
          "name": "A#3",
          "ticks": 10560,
          "time": 29.33337,
          "velocity": 0.6850393700787402
        },
        {
          "duration": 0.1333334999999991,
          "durationTicks": 48,
          "midi": 51,
          "name": "D#3",
          "ticks": 10560,
          "time": 29.33337,
          "velocity": 0.6850393700787402
        },
        {
          "duration": 0.1333334999999991,
          "durationTicks": 48,
          "midi": 51,
          "name": "D#3",
          "ticks": 10704,
          "time": 29.7333705,
          "velocity": 0.6850393700787402
        },
        {
          "duration": 0.1333334999999991,
          "durationTicks": 48,
          "midi": 58,
          "name": "A#3",
          "ticks": 10704,
          "time": 29.7333705,
          "velocity": 0.6850393700787402
        },
        {
          "duration": 0.1333334999999991,
          "durationTicks": 48,
          "midi": 63,
          "name": "D#4",
          "ticks": 10704,
          "time": 29.7333705,
          "velocity": 0.6850393700787402
        },
        {
          "duration": 0.13333350000000266,
          "durationTicks": 48,
          "midi": 63,
          "name": "D#4",
          "ticks": 10848,
          "time": 30.133370999999997,
          "velocity": 0.6850393700787402
        },
        {
          "duration": 0.13333350000000266,
          "durationTicks": 48,
          "midi": 58,
          "name": "A#3",
          "ticks": 10848,
          "time": 30.133370999999997,
          "velocity": 0.6850393700787402
        },
        {
          "duration": 0.13333350000000266,
          "durationTicks": 48,
          "midi": 51,
          "name": "D#3",
          "ticks": 10848,
          "time": 30.133370999999997,
          "velocity": 0.6850393700787402
        },
        {
          "duration": 0.1333334999999991,
          "durationTicks": 48,
          "midi": 63,
          "name": "D#4",
          "ticks": 11328,
          "time": 31.466706,
          "velocity": 0.6850393700787402
        },
        {
          "duration": 0.1333334999999991,
          "durationTicks": 48,
          "midi": 58,
          "name": "A#3",
          "ticks": 11328,
          "time": 31.466706,
          "velocity": 0.6850393700787402
        },
        {
          "duration": 0.1333334999999991,
          "durationTicks": 48,
          "midi": 51,
          "name": "D#3",
          "ticks": 11328,
          "time": 31.466706,
          "velocity": 0.6850393700787402
        },
        {
          "duration": 0.1333334999999991,
          "durationTicks": 48,
          "midi": 63,
          "name": "D#4",
          "ticks": 11472,
          "time": 31.8667065,
          "velocity": 0.6850393700787402
        },
        {
          "duration": 0.1333334999999991,
          "durationTicks": 48,
          "midi": 58,
          "name": "A#3",
          "ticks": 11472,
          "time": 31.8667065,
          "velocity": 0.6850393700787402
        },
        {
          "duration": 0.1333334999999991,
          "durationTicks": 48,
          "midi": 51,
          "name": "D#3",
          "ticks": 11472,
          "time": 31.8667065,
          "velocity": 0.6850393700787402
        },
        {
          "duration": 0.1333334999999991,
          "durationTicks": 48,
          "midi": 63,
          "name": "D#4",
          "ticks": 11616,
          "time": 32.266707,
          "velocity": 0.6850393700787402
        },
        {
          "duration": 0.1333334999999991,
          "durationTicks": 48,
          "midi": 58,
          "name": "A#3",
          "ticks": 11616,
          "time": 32.266707,
          "velocity": 0.6850393700787402
        },
        {
          "duration": 0.1333334999999991,
          "durationTicks": 48,
          "midi": 51,
          "name": "D#3",
          "ticks": 11616,
          "time": 32.266707,
          "velocity": 0.6850393700787402
        },
        {
          "duration": 0.1333334999999991,
          "durationTicks": 48,
          "midi": 63,
          "name": "D#4",
          "ticks": 12096,
          "time": 33.600042,
          "velocity": 0.6850393700787402
        },
        {
          "duration": 0.1333334999999991,
          "durationTicks": 48,
          "midi": 58,
          "name": "A#3",
          "ticks": 12096,
          "time": 33.600042,
          "velocity": 0.6850393700787402
        },
        {
          "duration": 0.1333334999999991,
          "durationTicks": 48,
          "midi": 51,
          "name": "D#3",
          "ticks": 12096,
          "time": 33.600042,
          "velocity": 0.6850393700787402
        },
        {
          "duration": 0.2666669999999982,
          "durationTicks": 96,
          "midi": 73,
          "name": "C#5",
          "ticks": 12384,
          "time": 34.400043,
          "velocity": 0.6850393700787402
        },
        {
          "duration": 0.2666669999999982,
          "durationTicks": 96,
          "midi": 66,
          "name": "F#4",
          "ticks": 12384,
          "time": 34.400043,
          "velocity": 0.6850393700787402
        },
        {
          "duration": 0.2666669999999982,
          "durationTicks": 96,
          "midi": 69,
          "name": "A4",
          "ticks": 12384,
          "time": 34.400043,
          "velocity": 0.6850393700787402
        },
        {
          "duration": 0.2666669999999982,
          "durationTicks": 96,
          "midi": 54,
          "name": "F#3",
          "ticks": 12384,
          "time": 34.400043,
          "velocity": 0.6850393700787402
        },
        {
          "duration": 0.2666669999999982,
          "durationTicks": 96,
          "midi": 59,
          "name": "B3",
          "ticks": 12384,
          "time": 34.400043,
          "velocity": 0.6850393700787402
        },
        {
          "duration": 0.2666670000000053,
          "durationTicks": 96,
          "midi": 73,
          "name": "C#5",
          "ticks": 12480,
          "time": 34.666709999999995,
          "velocity": 0.6850393700787402
        },
        {
          "duration": 0.2666670000000053,
          "durationTicks": 96,
          "midi": 65,
          "name": "F4",
          "ticks": 12480,
          "time": 34.666709999999995,
          "velocity": 0.6850393700787402
        },
        {
          "duration": 0.2666670000000053,
          "durationTicks": 96,
          "midi": 68,
          "name": "G#4",
          "ticks": 12480,
          "time": 34.666709999999995,
          "velocity": 0.6850393700787402
        },
        {
          "duration": 0.2666670000000053,
          "durationTicks": 96,
          "midi": 53,
          "name": "F3",
          "ticks": 12480,
          "time": 34.666709999999995,
          "velocity": 0.6850393700787402
        },
        {
          "duration": 0.2666670000000053,
          "durationTicks": 96,
          "midi": 58,
          "name": "A#3",
          "ticks": 12480,
          "time": 34.666709999999995,
          "velocity": 0.6850393700787402
        },
        {
          "duration": 0.2666669999999982,
          "durationTicks": 96,
          "midi": 67,
          "name": "G4",
          "ticks": 12576,
          "time": 34.933377,
          "velocity": 0.6850393700787402
        },
        {
          "duration": 0.2666669999999982,
          "durationTicks": 96,
          "midi": 64,
          "name": "E4",
          "ticks": 12576,
          "time": 34.933377,
          "velocity": 0.6850393700787402
        },
        {
          "duration": 0.2666669999999982,
          "durationTicks": 96,
          "midi": 52,
          "name": "E3",
          "ticks": 12576,
          "time": 34.933377,
          "velocity": 0.6850393700787402
        },
        {
          "duration": 0.2666669999999982,
          "durationTicks": 96,
          "midi": 57,
          "name": "A3",
          "ticks": 12576,
          "time": 34.933377,
          "velocity": 0.6850393700787402
        },
        {
          "duration": 0.2666669999999982,
          "durationTicks": 96,
          "midi": 71,
          "name": "B4",
          "ticks": 12576,
          "time": 34.933377,
          "velocity": 0.6850393700787402
        },
        {
          "duration": 0.2666669999999982,
          "durationTicks": 96,
          "midi": 66,
          "name": "F#4",
          "ticks": 12672,
          "time": 35.200044,
          "velocity": 0.6850393700787402
        },
        {
          "duration": 0.2666669999999982,
          "durationTicks": 96,
          "midi": 56,
          "name": "G#3",
          "ticks": 12672,
          "time": 35.200044,
          "velocity": 0.6850393700787402
        },
        {
          "duration": 0.2666669999999982,
          "durationTicks": 96,
          "midi": 51,
          "name": "D#3",
          "ticks": 12672,
          "time": 35.200044,
          "velocity": 0.6850393700787402
        },
        {
          "duration": 0.2666669999999982,
          "durationTicks": 96,
          "midi": 63,
          "name": "D#4",
          "ticks": 12672,
          "time": 35.200044,
          "velocity": 0.6850393700787402
        },
        {
          "duration": 0.2666669999999982,
          "durationTicks": 96,
          "midi": 71,
          "name": "B4",
          "ticks": 12672,
          "time": 35.200044,
          "velocity": 0.6850393700787402
        },
        {
          "duration": 0.2666670000000053,
          "durationTicks": 96,
          "midi": 65,
          "name": "F4",
          "ticks": 12768,
          "time": 35.466711,
          "velocity": 0.6850393700787402
        },
        {
          "duration": 0.2666670000000053,
          "durationTicks": 96,
          "midi": 70,
          "name": "A#4",
          "ticks": 12768,
          "time": 35.466711,
          "velocity": 0.6850393700787402
        },
        {
          "duration": 0.2666670000000053,
          "durationTicks": 96,
          "midi": 55,
          "name": "G3",
          "ticks": 12768,
          "time": 35.466711,
          "velocity": 0.6850393700787402
        },
        {
          "duration": 0.2666670000000053,
          "durationTicks": 96,
          "midi": 50,
          "name": "D3",
          "ticks": 12768,
          "time": 35.466711,
          "velocity": 0.6850393700787402
        },
        {
          "duration": 0.2666670000000053,
          "durationTicks": 96,
          "midi": 62,
          "name": "D4",
          "ticks": 12768,
          "time": 35.466711,
          "velocity": 0.6850393700787402
        },
        {
          "duration": 0.2666669999999982,
          "durationTicks": 96,
          "midi": 65,
          "name": "F4",
          "ticks": 12864,
          "time": 35.733378,
          "velocity": 0.6850393700787402
        },
        {
          "duration": 0.2666669999999982,
          "durationTicks": 96,
          "midi": 69,
          "name": "A4",
          "ticks": 12864,
          "time": 35.733378,
          "velocity": 0.6850393700787402
        },
        {
          "duration": 0.2666669999999982,
          "durationTicks": 96,
          "midi": 61,
          "name": "C#4",
          "ticks": 12864,
          "time": 35.733378,
          "velocity": 0.6850393700787402
        },
        {
          "duration": 0.2666669999999982,
          "durationTicks": 96,
          "midi": 53,
          "name": "F3",
          "ticks": 12864,
          "time": 35.733378,
          "velocity": 0.6850393700787402
        },
        {
          "duration": 0.2666669999999982,
          "durationTicks": 96,
          "midi": 49,
          "name": "C#3",
          "ticks": 12864,
          "time": 35.733378,
          "velocity": 0.6850393700787402
        },
        {
          "duration": 0.2666669999999982,
          "durationTicks": 96,
          "midi": 67,
          "name": "G4",
          "ticks": 12960,
          "time": 36.000045,
          "velocity": 0.6850393700787402
        },
        {
          "duration": 0.2666669999999982,
          "durationTicks": 96,
          "midi": 59,
          "name": "B3",
          "ticks": 12960,
          "time": 36.000045,
          "velocity": 0.6850393700787402
        },
        {
          "duration": 0.2666669999999982,
          "durationTicks": 96,
          "midi": 52,
          "name": "E3",
          "ticks": 12960,
          "time": 36.000045,
          "velocity": 0.6850393700787402
        },
        {
          "duration": 0.2666669999999982,
          "durationTicks": 96,
          "midi": 64,
          "name": "E4",
          "ticks": 12960,
          "time": 36.000045,
          "velocity": 0.6850393700787402
        },
        {
          "duration": 0.2666669999999982,
          "durationTicks": 96,
          "midi": 48,
          "name": "C3",
          "ticks": 12960,
          "time": 36.000045,
          "velocity": 0.6850393700787402
        },
        {
          "duration": 0.04444449999999733,
          "durationTicks": 16,
          "midi": 66,
          "name": "F#4",
          "ticks": 13056,
          "time": 36.266712,
          "velocity": 0.5039370078740157
        },
        {
          "duration": 0.04444449999999733,
          "durationTicks": 16,
          "midi": 58,
          "name": "A#3",
          "ticks": 13056,
          "time": 36.266712,
          "velocity": 0.5039370078740157
        },
        {
          "duration": 0.04444449999999733,
          "durationTicks": 16,
          "midi": 51,
          "name": "D#3",
          "ticks": 13056,
          "time": 36.266712,
          "velocity": 0.5039370078740157
        },
        {
          "duration": 0.04444449999999733,
          "durationTicks": 16,
          "midi": 63,
          "name": "D#4",
          "ticks": 13056,
          "time": 36.266712,
          "velocity": 0.5039370078740157
        },
        {
          "duration": 0.04444449999999733,
          "durationTicks": 16,
          "midi": 47,
          "name": "B2",
          "ticks": 13056,
          "time": 36.266712,
          "velocity": 0.5039370078740157
        },
        {
          "duration": 0.04444450000000444,
          "durationTicks": 16,
          "midi": 65,
          "name": "F4",
          "ticks": 13072,
          "time": 36.311156499999996,
          "velocity": 0.4094488188976378
        },
        {
          "duration": 0.04444450000000444,
          "durationTicks": 16,
          "midi": 57,
          "name": "A3",
          "ticks": 13072,
          "time": 36.311156499999996,
          "velocity": 0.4094488188976378
        },
        {
          "duration": 0.04444450000000444,
          "durationTicks": 16,
          "midi": 50,
          "name": "D3",
          "ticks": 13072,
          "time": 36.311156499999996,
          "velocity": 0.4094488188976378
        },
        {
          "duration": 0.04444450000000444,
          "durationTicks": 16,
          "midi": 62,
          "name": "D4",
          "ticks": 13072,
          "time": 36.311156499999996,
          "velocity": 0.4094488188976378
        },
        {
          "duration": 0.04444450000000444,
          "durationTicks": 16,
          "midi": 46,
          "name": "A#2",
          "ticks": 13072,
          "time": 36.311156499999996,
          "velocity": 0.4094488188976378
        },
        {
          "duration": 0.04444449999999733,
          "durationTicks": 16,
          "midi": 64,
          "name": "E4",
          "ticks": 13088,
          "time": 36.355601,
          "velocity": 0.3228346456692913
        },
        {
          "duration": 0.04444449999999733,
          "durationTicks": 16,
          "midi": 56,
          "name": "G#3",
          "ticks": 13088,
          "time": 36.355601,
          "velocity": 0.3228346456692913
        },
        {
          "duration": 0.04444449999999733,
          "durationTicks": 16,
          "midi": 49,
          "name": "C#3",
          "ticks": 13088,
          "time": 36.355601,
          "velocity": 0.3228346456692913
        },
        {
          "duration": 0.04444449999999733,
          "durationTicks": 16,
          "midi": 61,
          "name": "C#4",
          "ticks": 13088,
          "time": 36.355601,
          "velocity": 0.3228346456692913
        },
        {
          "duration": 0.04444449999999733,
          "durationTicks": 16,
          "midi": 45,
          "name": "A2",
          "ticks": 13088,
          "time": 36.355601,
          "velocity": 0.3228346456692913
        },
        {
          "duration": 0.04444449999999733,
          "durationTicks": 16,
          "midi": 44,
          "name": "G#2",
          "ticks": 13104,
          "time": 36.4000455,
          "velocity": 0.2283464566929134
        },
        {
          "duration": 0.04444449999999733,
          "durationTicks": 16,
          "midi": 60,
          "name": "C4",
          "ticks": 13104,
          "time": 36.4000455,
          "velocity": 0.2283464566929134
        },
        {
          "duration": 0.04444449999999733,
          "durationTicks": 16,
          "midi": 48,
          "name": "C3",
          "ticks": 13104,
          "time": 36.4000455,
          "velocity": 0.2283464566929134
        },
        {
          "duration": 0.04444449999999733,
          "durationTicks": 16,
          "midi": 55,
          "name": "G3",
          "ticks": 13104,
          "time": 36.4000455,
          "velocity": 0.2283464566929134
        },
        {
          "duration": 0.04444449999999733,
          "durationTicks": 16,
          "midi": 63,
          "name": "D#4",
          "ticks": 13104,
          "time": 36.4000455,
          "velocity": 0.2283464566929134
        },
        {
          "duration": 0.04444450000000444,
          "durationTicks": 16,
          "midi": 43,
          "name": "G2",
          "ticks": 13120,
          "time": 36.444489999999995,
          "velocity": 0.13385826771653545
        },
        {
          "duration": 0.04444450000000444,
          "durationTicks": 16,
          "midi": 59,
          "name": "B3",
          "ticks": 13120,
          "time": 36.444489999999995,
          "velocity": 0.13385826771653545
        },
        {
          "duration": 0.04444450000000444,
          "durationTicks": 16,
          "midi": 47,
          "name": "B2",
          "ticks": 13120,
          "time": 36.444489999999995,
          "velocity": 0.13385826771653545
        },
        {
          "duration": 0.04444450000000444,
          "durationTicks": 16,
          "midi": 54,
          "name": "F#3",
          "ticks": 13120,
          "time": 36.444489999999995,
          "velocity": 0.13385826771653545
        },
        {
          "duration": 0.04444450000000444,
          "durationTicks": 16,
          "midi": 62,
          "name": "D4",
          "ticks": 13120,
          "time": 36.444489999999995,
          "velocity": 0.13385826771653545
        },
        {
          "duration": 0.04444449999999733,
          "durationTicks": 16,
          "midi": 42,
          "name": "F#2",
          "ticks": 13136,
          "time": 36.4889345,
          "velocity": 0.047244094488188976
        },
        {
          "duration": 0.04444449999999733,
          "durationTicks": 16,
          "midi": 58,
          "name": "A#3",
          "ticks": 13136,
          "time": 36.4889345,
          "velocity": 0.047244094488188976
        },
        {
          "duration": 0.04444449999999733,
          "durationTicks": 16,
          "midi": 46,
          "name": "A#2",
          "ticks": 13136,
          "time": 36.4889345,
          "velocity": 0.047244094488188976
        },
        {
          "duration": 0.04444449999999733,
          "durationTicks": 16,
          "midi": 53,
          "name": "F3",
          "ticks": 13136,
          "time": 36.4889345,
          "velocity": 0.047244094488188976
        },
        {
          "duration": 0.04444449999999733,
          "durationTicks": 16,
          "midi": 61,
          "name": "C#4",
          "ticks": 13136,
          "time": 36.4889345,
          "velocity": 0.047244094488188976
        },
        {
          "duration": 0.1333334999999991,
          "durationTicks": 48,
          "midi": 71,
          "name": "B4",
          "ticks": 13152,
          "time": 36.533379,
          "velocity": 0.5669291338582677
        },
        {
          "duration": 0.1333335000000062,
          "durationTicks": 48,
          "midi": 82,
          "name": "A#5",
          "ticks": 13248,
          "time": 36.800045999999995,
          "velocity": 0.5669291338582677
        },
        {
          "duration": 0.1333335000000062,
          "durationTicks": 48,
          "midi": 75,
          "name": "D#5",
          "ticks": 13248,
          "time": 36.800045999999995,
          "velocity": 0.5669291338582677
        },
        {
          "duration": 0.1333335000000062,
          "durationTicks": 48,
          "midi": 78,
          "name": "F#5",
          "ticks": 13248,
          "time": 36.800045999999995,
          "velocity": 0.5669291338582677
        },
        {
          "duration": 0.1333334999999991,
          "durationTicks": 48,
          "midi": 78,
          "name": "F#5",
          "ticks": 13344,
          "time": 37.066713,
          "velocity": 0.5669291338582677
        },
        {
          "duration": 0.1333334999999991,
          "durationTicks": 48,
          "midi": 82,
          "name": "A#5",
          "ticks": 13344,
          "time": 37.066713,
          "velocity": 0.5669291338582677
        },
        {
          "duration": 0.1333334999999991,
          "durationTicks": 48,
          "midi": 75,
          "name": "D#5",
          "ticks": 13344,
          "time": 37.066713,
          "velocity": 0.5669291338582677
        },
        {
          "duration": 0.1333334999999991,
          "durationTicks": 48,
          "midi": 71,
          "name": "B4",
          "ticks": 13440,
          "time": 37.33338,
          "velocity": 0.5669291338582677
        },
        {
          "duration": 0.1333334999999991,
          "durationTicks": 48,
          "midi": 75,
          "name": "D#5",
          "ticks": 13536,
          "time": 37.600046999999996,
          "velocity": 0.5669291338582677
        },
        {
          "duration": 0.1333334999999991,
          "durationTicks": 48,
          "midi": 82,
          "name": "A#5",
          "ticks": 13536,
          "time": 37.600046999999996,
          "velocity": 0.5669291338582677
        },
        {
          "duration": 0.1333334999999991,
          "durationTicks": 48,
          "midi": 78,
          "name": "F#5",
          "ticks": 13536,
          "time": 37.600046999999996,
          "velocity": 0.5669291338582677
        },
        {
          "duration": 0.1333334999999991,
          "durationTicks": 48,
          "midi": 78,
          "name": "F#5",
          "ticks": 13632,
          "time": 37.866714,
          "velocity": 0.5669291338582677
        },
        {
          "duration": 0.1333334999999991,
          "durationTicks": 48,
          "midi": 82,
          "name": "A#5",
          "ticks": 13632,
          "time": 37.866714,
          "velocity": 0.5669291338582677
        },
        {
          "duration": 0.1333334999999991,
          "durationTicks": 48,
          "midi": 75,
          "name": "D#5",
          "ticks": 13632,
          "time": 37.866714,
          "velocity": 0.5669291338582677
        },
        {
          "duration": 0.1333334999999991,
          "durationTicks": 48,
          "midi": 70,
          "name": "A#4",
          "ticks": 13728,
          "time": 38.133381,
          "velocity": 0.5669291338582677
        },
        {
          "duration": 0.1333334999999991,
          "durationTicks": 48,
          "midi": 81,
          "name": "A5",
          "ticks": 13824,
          "time": 38.400048,
          "velocity": 0.5669291338582677
        },
        {
          "duration": 0.1333334999999991,
          "durationTicks": 48,
          "midi": 77,
          "name": "F5",
          "ticks": 13824,
          "time": 38.400048,
          "velocity": 0.5669291338582677
        },
        {
          "duration": 0.1333334999999991,
          "durationTicks": 48,
          "midi": 74,
          "name": "D5",
          "ticks": 13824,
          "time": 38.400048,
          "velocity": 0.5669291338582677
        },
        {
          "duration": 0.1333334999999991,
          "durationTicks": 48,
          "midi": 74,
          "name": "D5",
          "ticks": 13920,
          "time": 38.666714999999996,
          "velocity": 0.5669291338582677
        },
        {
          "duration": 0.1333334999999991,
          "durationTicks": 48,
          "midi": 81,
          "name": "A5",
          "ticks": 13920,
          "time": 38.666714999999996,
          "velocity": 0.5669291338582677
        },
        {
          "duration": 0.1333334999999991,
          "durationTicks": 48,
          "midi": 77,
          "name": "F5",
          "ticks": 13920,
          "time": 38.666714999999996,
          "velocity": 0.5669291338582677
        },
        {
          "duration": 0.1333335000000062,
          "durationTicks": 48,
          "midi": 70,
          "name": "A#4",
          "ticks": 14016,
          "time": 38.933381999999995,
          "velocity": 0.5669291338582677
        },
        {
          "duration": 0.1333334999999991,
          "durationTicks": 48,
          "midi": 74,
          "name": "D5",
          "ticks": 14112,
          "time": 39.200049,
          "velocity": 0.5669291338582677
        },
        {
          "duration": 0.1333334999999991,
          "durationTicks": 48,
          "midi": 81,
          "name": "A5",
          "ticks": 14112,
          "time": 39.200049,
          "velocity": 0.5669291338582677
        },
        {
          "duration": 0.1333334999999991,
          "durationTicks": 48,
          "midi": 77,
          "name": "F5",
          "ticks": 14112,
          "time": 39.200049,
          "velocity": 0.5669291338582677
        },
        {
          "duration": 0.1333334999999991,
          "durationTicks": 48,
          "midi": 69,
          "name": "A4",
          "ticks": 14208,
          "time": 39.466716,
          "velocity": 0.5669291338582677
        },
        {
          "duration": 0.1333334999999991,
          "durationTicks": 48,
          "midi": 80,
          "name": "G#5",
          "ticks": 14304,
          "time": 39.733382999999996,
          "velocity": 0.5669291338582677
        },
        {
          "duration": 0.1333334999999991,
          "durationTicks": 48,
          "midi": 73,
          "name": "C#5",
          "ticks": 14304,
          "time": 39.733382999999996,
          "velocity": 0.5669291338582677
        },
        {
          "duration": 0.1333334999999991,
          "durationTicks": 48,
          "midi": 76,
          "name": "E5",
          "ticks": 14304,
          "time": 39.733382999999996,
          "velocity": 0.5669291338582677
        },
        {
          "duration": 0.1333334999999991,
          "durationTicks": 48,
          "midi": 76,
          "name": "E5",
          "ticks": 14400,
          "time": 40.00005,
          "velocity": 0.5669291338582677
        },
        {
          "duration": 0.1333334999999991,
          "durationTicks": 48,
          "midi": 80,
          "name": "G#5",
          "ticks": 14400,
          "time": 40.00005,
          "velocity": 0.5669291338582677
        },
        {
          "duration": 0.1333334999999991,
          "durationTicks": 48,
          "midi": 73,
          "name": "C#5",
          "ticks": 14400,
          "time": 40.00005,
          "velocity": 0.5669291338582677
        },
        {
          "duration": 0.1333334999999991,
          "durationTicks": 48,
          "midi": 69,
          "name": "A4",
          "ticks": 14496,
          "time": 40.266717,
          "velocity": 0.5669291338582677
        },
        {
          "duration": 0.1333334999999991,
          "durationTicks": 48,
          "midi": 76,
          "name": "E5",
          "ticks": 14592,
          "time": 40.533384,
          "velocity": 0.5669291338582677
        },
        {
          "duration": 0.1333334999999991,
          "durationTicks": 48,
          "midi": 80,
          "name": "G#5",
          "ticks": 14592,
          "time": 40.533384,
          "velocity": 0.5669291338582677
        },
        {
          "duration": 0.1333334999999991,
          "durationTicks": 48,
          "midi": 73,
          "name": "C#5",
          "ticks": 14592,
          "time": 40.533384,
          "velocity": 0.5669291338582677
        },
        {
          "duration": 0.1333334999999991,
          "durationTicks": 48,
          "midi": 73,
          "name": "C#5",
          "ticks": 14688,
          "time": 40.800050999999996,
          "velocity": 0.5669291338582677
        },
        {
          "duration": 0.1333334999999991,
          "durationTicks": 48,
          "midi": 80,
          "name": "G#5",
          "ticks": 14688,
          "time": 40.800050999999996,
          "velocity": 0.5669291338582677
        },
        {
          "duration": 0.1333334999999991,
          "durationTicks": 48,
          "midi": 76,
          "name": "E5",
          "ticks": 14688,
          "time": 40.800050999999996,
          "velocity": 0.5669291338582677
        },
        {
          "duration": 0.1333335000000062,
          "durationTicks": 48,
          "midi": 68,
          "name": "G#4",
          "ticks": 14784,
          "time": 41.066717999999995,
          "velocity": 0.5669291338582677
        },
        {
          "duration": 0.1333334999999991,
          "durationTicks": 48,
          "midi": 79,
          "name": "G5",
          "ticks": 14880,
          "time": 41.333385,
          "velocity": 0.5669291338582677
        },
        {
          "duration": 0.1333334999999991,
          "durationTicks": 48,
          "midi": 75,
          "name": "D#5",
          "ticks": 14880,
          "time": 41.333385,
          "velocity": 0.5669291338582677
        },
        {
          "duration": 0.1333334999999991,
          "durationTicks": 48,
          "midi": 72,
          "name": "C5",
          "ticks": 14880,
          "time": 41.333385,
          "velocity": 0.5669291338582677
        },
        {
          "duration": 0.1333334999999991,
          "durationTicks": 48,
          "midi": 72,
          "name": "C5",
          "ticks": 14976,
          "time": 41.600052,
          "velocity": 0.5669291338582677
        },
        {
          "duration": 0.1333334999999991,
          "durationTicks": 48,
          "midi": 79,
          "name": "G5",
          "ticks": 14976,
          "time": 41.600052,
          "velocity": 0.5669291338582677
        },
        {
          "duration": 0.1333334999999991,
          "durationTicks": 48,
          "midi": 75,
          "name": "D#5",
          "ticks": 14976,
          "time": 41.600052,
          "velocity": 0.5669291338582677
        },
        {
          "duration": 0.1333334999999991,
          "durationTicks": 48,
          "midi": 68,
          "name": "G#4",
          "ticks": 15072,
          "time": 41.866718999999996,
          "velocity": 0.5669291338582677
        },
        {
          "duration": 0.2666669999999982,
          "durationTicks": 96,
          "midi": 52,
          "name": "E3",
          "ticks": 15264,
          "time": 42.400053,
          "velocity": 0.6535433070866141
        },
        {
          "duration": 0.2666669999999982,
          "durationTicks": 96,
          "midi": 56,
          "name": "G#3",
          "ticks": 15264,
          "time": 42.400053,
          "velocity": 0.6535433070866141
        },
        {
          "duration": 0.2666669999999982,
          "durationTicks": 96,
          "midi": 58,
          "name": "A#3",
          "ticks": 15264,
          "time": 42.400053,
          "velocity": 0.6535433070866141
        },
        {
          "duration": 0.2666669999999982,
          "durationTicks": 96,
          "midi": 63,
          "name": "D#4",
          "ticks": 15264,
          "time": 42.400053,
          "velocity": 0.6535433070866141
        },
        {
          "duration": 0.0666667500000031,
          "durationTicks": 24,
          "midi": 52,
          "name": "E3",
          "ticks": 15408,
          "time": 42.8000535,
          "velocity": 0.6535433070866141
        },
        {
          "duration": 0.0666667500000031,
          "durationTicks": 24,
          "midi": 56,
          "name": "G#3",
          "ticks": 15408,
          "time": 42.8000535,
          "velocity": 0.6535433070866141
        },
        {
          "duration": 0.0666667500000031,
          "durationTicks": 24,
          "midi": 58,
          "name": "A#3",
          "ticks": 15408,
          "time": 42.8000535,
          "velocity": 0.6535433070866141
        },
        {
          "duration": 0.0666667500000031,
          "durationTicks": 24,
          "midi": 63,
          "name": "D#4",
          "ticks": 15408,
          "time": 42.8000535,
          "velocity": 0.6535433070866141
        },
        {
          "duration": 0.0666667500000031,
          "durationTicks": 24,
          "midi": 63,
          "name": "D#4",
          "ticks": 15504,
          "time": 43.066720499999995,
          "velocity": 0.6535433070866141
        },
        {
          "duration": 0.0666667500000031,
          "durationTicks": 24,
          "midi": 58,
          "name": "A#3",
          "ticks": 15504,
          "time": 43.066720499999995,
          "velocity": 0.6535433070866141
        },
        {
          "duration": 0.0666667500000031,
          "durationTicks": 24,
          "midi": 56,
          "name": "G#3",
          "ticks": 15504,
          "time": 43.066720499999995,
          "velocity": 0.6535433070866141
        },
        {
          "duration": 0.0666667500000031,
          "durationTicks": 24,
          "midi": 52,
          "name": "E3",
          "ticks": 15504,
          "time": 43.066720499999995,
          "velocity": 0.6535433070866141
        },
        {
          "duration": 0.1333335000000062,
          "durationTicks": 48,
          "midi": 60,
          "name": "C4",
          "ticks": 15552,
          "time": 43.200053999999994,
          "velocity": 0.6535433070866141
        },
        {
          "duration": 0.1333335000000062,
          "durationTicks": 48,
          "midi": 53,
          "name": "F3",
          "ticks": 15552,
          "time": 43.200053999999994,
          "velocity": 0.6535433070866141
        },
        {
          "duration": 0.1333335000000062,
          "durationTicks": 48,
          "midi": 64,
          "name": "E4",
          "ticks": 15552,
          "time": 43.200053999999994,
          "velocity": 0.6535433070866141
        },
        {
          "duration": 0.1333335000000062,
          "durationTicks": 48,
          "midi": 56,
          "name": "G#3",
          "ticks": 15552,
          "time": 43.200053999999994,
          "velocity": 0.6535433070866141
        },
        {
          "duration": 0.1333334999999991,
          "durationTicks": 48,
          "midi": 64,
          "name": "E4",
          "ticks": 15648,
          "time": 43.466721,
          "velocity": 0.6535433070866141
        },
        {
          "duration": 0.1333334999999991,
          "durationTicks": 48,
          "midi": 53,
          "name": "F3",
          "ticks": 15648,
          "time": 43.466721,
          "velocity": 0.6535433070866141
        },
        {
          "duration": 0.1333334999999991,
          "durationTicks": 48,
          "midi": 60,
          "name": "C4",
          "ticks": 15648,
          "time": 43.466721,
          "velocity": 0.6535433070866141
        },
        {
          "duration": 0.1333334999999991,
          "durationTicks": 48,
          "midi": 56,
          "name": "G#3",
          "ticks": 15648,
          "time": 43.466721,
          "velocity": 0.6535433070866141
        },
        {
          "duration": 0.2666669999999982,
          "durationTicks": 96,
          "midi": 59,
          "name": "B3",
          "ticks": 15744,
          "time": 43.733388,
          "velocity": 0.6535433070866141
        },
        {
          "duration": 0.2666669999999982,
          "durationTicks": 96,
          "midi": 61,
          "name": "C#4",
          "ticks": 15744,
          "time": 43.733388,
          "velocity": 0.6535433070866141
        },
        {
          "duration": 0.2666669999999982,
          "durationTicks": 96,
          "midi": 55,
          "name": "G3",
          "ticks": 15744,
          "time": 43.733388,
          "velocity": 0.6535433070866141
        },
        {
          "duration": 0.2666669999999982,
          "durationTicks": 96,
          "midi": 66,
          "name": "F#4",
          "ticks": 15744,
          "time": 43.733388,
          "velocity": 0.6535433070866141
        },
        {
          "duration": 0.0666667500000031,
          "durationTicks": 24,
          "midi": 59,
          "name": "B3",
          "ticks": 15888,
          "time": 44.133388499999995,
          "velocity": 0.6535433070866141
        },
        {
          "duration": 0.0666667500000031,
          "durationTicks": 24,
          "midi": 66,
          "name": "F#4",
          "ticks": 15888,
          "time": 44.133388499999995,
          "velocity": 0.6535433070866141
        },
        {
          "duration": 0.0666667500000031,
          "durationTicks": 24,
          "midi": 61,
          "name": "C#4",
          "ticks": 15888,
          "time": 44.133388499999995,
          "velocity": 0.6535433070866141
        },
        {
          "duration": 0.0666667500000031,
          "durationTicks": 24,
          "midi": 55,
          "name": "G3",
          "ticks": 15888,
          "time": 44.133388499999995,
          "velocity": 0.6535433070866141
        },
        {
          "duration": 0.066666749999996,
          "durationTicks": 24,
          "midi": 55,
          "name": "G3",
          "ticks": 15984,
          "time": 44.4000555,
          "velocity": 0.6535433070866141
        },
        {
          "duration": 0.066666749999996,
          "durationTicks": 24,
          "midi": 61,
          "name": "C#4",
          "ticks": 15984,
          "time": 44.4000555,
          "velocity": 0.6535433070866141
        },
        {
          "duration": 0.066666749999996,
          "durationTicks": 24,
          "midi": 66,
          "name": "F#4",
          "ticks": 15984,
          "time": 44.4000555,
          "velocity": 0.6535433070866141
        },
        {
          "duration": 0.066666749999996,
          "durationTicks": 24,
          "midi": 59,
          "name": "B3",
          "ticks": 15984,
          "time": 44.4000555,
          "velocity": 0.6535433070866141
        },
        {
          "duration": 0.1333334999999991,
          "durationTicks": 48,
          "midi": 59,
          "name": "B3",
          "ticks": 16032,
          "time": 44.533389,
          "velocity": 0.6535433070866141
        },
        {
          "duration": 0.1333334999999991,
          "durationTicks": 48,
          "midi": 56,
          "name": "G#3",
          "ticks": 16032,
          "time": 44.533389,
          "velocity": 0.6535433070866141
        },
        {
          "duration": 0.1333334999999991,
          "durationTicks": 48,
          "midi": 67,
          "name": "G4",
          "ticks": 16032,
          "time": 44.533389,
          "velocity": 0.6535433070866141
        },
        {
          "duration": 0.1333334999999991,
          "durationTicks": 48,
          "midi": 63,
          "name": "D#4",
          "ticks": 16032,
          "time": 44.533389,
          "velocity": 0.6535433070866141
        },
        {
          "duration": 0.1333334999999991,
          "durationTicks": 48,
          "midi": 56,
          "name": "G#3",
          "ticks": 16128,
          "time": 44.800056,
          "velocity": 0.6535433070866141
        },
        {
          "duration": 0.1333334999999991,
          "durationTicks": 48,
          "midi": 67,
          "name": "G4",
          "ticks": 16128,
          "time": 44.800056,
          "velocity": 0.6535433070866141
        },
        {
          "duration": 0.1333334999999991,
          "durationTicks": 48,
          "midi": 63,
          "name": "D#4",
          "ticks": 16128,
          "time": 44.800056,
          "velocity": 0.6535433070866141
        },
        {
          "duration": 0.1333334999999991,
          "durationTicks": 48,
          "midi": 59,
          "name": "B3",
          "ticks": 16128,
          "time": 44.800056,
          "velocity": 0.6535433070866141
        },
        {
          "duration": 0.0666667500000031,
          "durationTicks": 24,
          "midi": 69,
          "name": "A4",
          "ticks": 17808,
          "time": 49.466728499999995,
          "velocity": 0.7165354330708661
        },
        {
          "duration": 0.0666667500000031,
          "durationTicks": 24,
          "midi": 65,
          "name": "F4",
          "ticks": 17808,
          "time": 49.466728499999995,
          "velocity": 0.7165354330708661
        },
        {
          "duration": 0.0666667500000031,
          "durationTicks": 24,
          "midi": 57,
          "name": "A3",
          "ticks": 17808,
          "time": 49.466728499999995,
          "velocity": 0.7165354330708661
        },
        {
          "duration": 0.0666667500000031,
          "durationTicks": 24,
          "midi": 61,
          "name": "C#4",
          "ticks": 17808,
          "time": 49.466728499999995,
          "velocity": 0.7165354330708661
        },
        {
          "duration": 0.0666667500000031,
          "durationTicks": 24,
          "midi": 69,
          "name": "A4",
          "ticks": 17856,
          "time": 49.600061999999994,
          "velocity": 0.7165354330708661
        },
        {
          "duration": 0.0666667500000031,
          "durationTicks": 24,
          "midi": 65,
          "name": "F4",
          "ticks": 17856,
          "time": 49.600061999999994,
          "velocity": 0.7165354330708661
        },
        {
          "duration": 0.0666667500000031,
          "durationTicks": 24,
          "midi": 61,
          "name": "C#4",
          "ticks": 17856,
          "time": 49.600061999999994,
          "velocity": 0.7165354330708661
        },
        {
          "duration": 0.0666667500000031,
          "durationTicks": 24,
          "midi": 57,
          "name": "A3",
          "ticks": 17856,
          "time": 49.600061999999994,
          "velocity": 0.7165354330708661
        },
        {
          "duration": 0.066666749999996,
          "durationTicks": 24,
          "midi": 61,
          "name": "C#4",
          "ticks": 17952,
          "time": 49.866729,
          "velocity": 0.7165354330708661
        },
        {
          "duration": 0.066666749999996,
          "durationTicks": 24,
          "midi": 57,
          "name": "A3",
          "ticks": 17952,
          "time": 49.866729,
          "velocity": 0.7165354330708661
        },
        {
          "duration": 0.066666749999996,
          "durationTicks": 24,
          "midi": 65,
          "name": "F4",
          "ticks": 17952,
          "time": 49.866729,
          "velocity": 0.7165354330708661
        },
        {
          "duration": 0.066666749999996,
          "durationTicks": 24,
          "midi": 69,
          "name": "A4",
          "ticks": 17952,
          "time": 49.866729,
          "velocity": 0.7165354330708661
        },
        {
          "duration": 0.066666749999996,
          "durationTicks": 24,
          "midi": 57,
          "name": "A3",
          "ticks": 18000,
          "time": 50.0000625,
          "velocity": 0.7165354330708661
        },
        {
          "duration": 0.066666749999996,
          "durationTicks": 24,
          "midi": 61,
          "name": "C#4",
          "ticks": 18000,
          "time": 50.0000625,
          "velocity": 0.7165354330708661
        },
        {
          "duration": 0.066666749999996,
          "durationTicks": 24,
          "midi": 65,
          "name": "F4",
          "ticks": 18000,
          "time": 50.0000625,
          "velocity": 0.7165354330708661
        },
        {
          "duration": 0.066666749999996,
          "durationTicks": 24,
          "midi": 69,
          "name": "A4",
          "ticks": 18000,
          "time": 50.0000625,
          "velocity": 0.7165354330708661
        },
        {
          "duration": 0.0666667500000031,
          "durationTicks": 24,
          "midi": 61,
          "name": "C#4",
          "ticks": 18096,
          "time": 50.2667295,
          "velocity": 0.7165354330708661
        },
        {
          "duration": 0.0666667500000031,
          "durationTicks": 24,
          "midi": 57,
          "name": "A3",
          "ticks": 18096,
          "time": 50.2667295,
          "velocity": 0.7165354330708661
        },
        {
          "duration": 0.0666667500000031,
          "durationTicks": 24,
          "midi": 65,
          "name": "F4",
          "ticks": 18096,
          "time": 50.2667295,
          "velocity": 0.7165354330708661
        },
        {
          "duration": 0.0666667500000031,
          "durationTicks": 24,
          "midi": 69,
          "name": "A4",
          "ticks": 18096,
          "time": 50.2667295,
          "velocity": 0.7165354330708661
        },
        {
          "duration": 0.0666667500000031,
          "durationTicks": 24,
          "midi": 68,
          "name": "G#4",
          "ticks": 18192,
          "time": 50.533396499999995,
          "velocity": 0.7165354330708661
        },
        {
          "duration": 0.0666667500000031,
          "durationTicks": 24,
          "midi": 65,
          "name": "F4",
          "ticks": 18192,
          "time": 50.533396499999995,
          "velocity": 0.7165354330708661
        },
        {
          "duration": 0.0666667500000031,
          "durationTicks": 24,
          "midi": 57,
          "name": "A3",
          "ticks": 18192,
          "time": 50.533396499999995,
          "velocity": 0.7165354330708661
        },
        {
          "duration": 0.0666667500000031,
          "durationTicks": 24,
          "midi": 61,
          "name": "C#4",
          "ticks": 18192,
          "time": 50.533396499999995,
          "velocity": 0.7165354330708661
        },
        {
          "duration": 0.066666749999996,
          "durationTicks": 24,
          "midi": 61,
          "name": "C#4",
          "ticks": 18240,
          "time": 50.66673,
          "velocity": 0.7165354330708661
        },
        {
          "duration": 0.066666749999996,
          "durationTicks": 24,
          "midi": 57,
          "name": "A3",
          "ticks": 18240,
          "time": 50.66673,
          "velocity": 0.7165354330708661
        },
        {
          "duration": 0.066666749999996,
          "durationTicks": 24,
          "midi": 65,
          "name": "F4",
          "ticks": 18240,
          "time": 50.66673,
          "velocity": 0.7165354330708661
        },
        {
          "duration": 0.066666749999996,
          "durationTicks": 24,
          "midi": 69,
          "name": "A4",
          "ticks": 18240,
          "time": 50.66673,
          "velocity": 0.7165354330708661
        },
        {
          "duration": 0.066666749999996,
          "durationTicks": 24,
          "midi": 68,
          "name": "G#4",
          "ticks": 18288,
          "time": 50.8000635,
          "velocity": 0.7165354330708661
        },
        {
          "duration": 0.066666749999996,
          "durationTicks": 24,
          "midi": 65,
          "name": "F4",
          "ticks": 18288,
          "time": 50.8000635,
          "velocity": 0.7165354330708661
        },
        {
          "duration": 0.066666749999996,
          "durationTicks": 24,
          "midi": 61,
          "name": "C#4",
          "ticks": 18288,
          "time": 50.8000635,
          "velocity": 0.7165354330708661
        },
        {
          "duration": 0.066666749999996,
          "durationTicks": 24,
          "midi": 57,
          "name": "A3",
          "ticks": 18288,
          "time": 50.8000635,
          "velocity": 0.7165354330708661
        },
        {
          "duration": 0.066666749999996,
          "durationTicks": 24,
          "midi": 69,
          "name": "A4",
          "ticks": 18336,
          "time": 50.933397,
          "velocity": 0.7165354330708661
        },
        {
          "duration": 0.066666749999996,
          "durationTicks": 24,
          "midi": 65,
          "name": "F4",
          "ticks": 18336,
          "time": 50.933397,
          "velocity": 0.7165354330708661
        },
        {
          "duration": 0.066666749999996,
          "durationTicks": 24,
          "midi": 61,
          "name": "C#4",
          "ticks": 18336,
          "time": 50.933397,
          "velocity": 0.7165354330708661
        },
        {
          "duration": 0.066666749999996,
          "durationTicks": 24,
          "midi": 57,
          "name": "A3",
          "ticks": 18336,
          "time": 50.933397,
          "velocity": 0.7165354330708661
        },
        {
          "duration": 0.5333340000000035,
          "durationTicks": 192,
          "midi": 66,
          "name": "F#4",
          "ticks": 18528,
          "time": 51.466730999999996,
          "velocity": 0.7165354330708661
        },
        {
          "duration": 0.5333340000000035,
          "durationTicks": 192,
          "midi": 69,
          "name": "A4",
          "ticks": 18528,
          "time": 51.466730999999996,
          "velocity": 0.7165354330708661
        },
        {
          "duration": 0.5333340000000035,
          "durationTicks": 192,
          "midi": 61,
          "name": "C#4",
          "ticks": 18528,
          "time": 51.466730999999996,
          "velocity": 0.7165354330708661
        },
        {
          "duration": 0.5333340000000035,
          "durationTicks": 192,
          "midi": 57,
          "name": "A3",
          "ticks": 18528,
          "time": 51.466730999999996,
          "velocity": 0.7165354330708661
        },
        {
          "duration": 0.5333339999999964,
          "durationTicks": 192,
          "midi": 65,
          "name": "F4",
          "ticks": 18720,
          "time": 52.000065,
          "velocity": 0.7165354330708661
        },
        {
          "duration": 0.5333339999999964,
          "durationTicks": 192,
          "midi": 68,
          "name": "G#4",
          "ticks": 18720,
          "time": 52.000065,
          "velocity": 0.7165354330708661
        },
        {
          "duration": 0.5333339999999964,
          "durationTicks": 192,
          "midi": 61,
          "name": "C#4",
          "ticks": 18720,
          "time": 52.000065,
          "velocity": 0.7165354330708661
        },
        {
          "duration": 0.5333339999999964,
          "durationTicks": 192,
          "midi": 56,
          "name": "G#3",
          "ticks": 18720,
          "time": 52.000065,
          "velocity": 0.7165354330708661
        },
        {
          "duration": 0.5333340000000035,
          "durationTicks": 192,
          "midi": 64,
          "name": "E4",
          "ticks": 18912,
          "time": 52.533398999999996,
          "velocity": 0.7165354330708661
        },
        {
          "duration": 0.5333340000000035,
          "durationTicks": 192,
          "midi": 61,
          "name": "C#4",
          "ticks": 18912,
          "time": 52.533398999999996,
          "velocity": 0.7165354330708661
        },
        {
          "duration": 0.5333340000000035,
          "durationTicks": 192,
          "midi": 66,
          "name": "F#4",
          "ticks": 18912,
          "time": 52.533398999999996,
          "velocity": 0.7165354330708661
        },
        {
          "duration": 0.5333340000000035,
          "durationTicks": 192,
          "midi": 69,
          "name": "A4",
          "ticks": 18912,
          "time": 52.533398999999996,
          "velocity": 0.7165354330708661
        },
        {
          "duration": 0.5333340000000035,
          "durationTicks": 192,
          "midi": 54,
          "name": "F#3",
          "ticks": 18912,
          "time": 52.533398999999996,
          "velocity": 0.7165354330708661
        },
        {
          "duration": 0.5333339999999964,
          "durationTicks": 192,
          "midi": 69,
          "name": "A4",
          "ticks": 19104,
          "time": 53.066733,
          "velocity": 0.7165354330708661
        },
        {
          "duration": 0.5333339999999964,
          "durationTicks": 192,
          "midi": 61,
          "name": "C#4",
          "ticks": 19104,
          "time": 53.066733,
          "velocity": 0.7165354330708661
        },
        {
          "duration": 0.5333339999999964,
          "durationTicks": 192,
          "midi": 64,
          "name": "E4",
          "ticks": 19104,
          "time": 53.066733,
          "velocity": 0.7165354330708661
        },
        {
          "duration": 0.5333339999999964,
          "durationTicks": 192,
          "midi": 67,
          "name": "G4",
          "ticks": 19104,
          "time": 53.066733,
          "velocity": 0.7165354330708661
        },
        {
          "duration": 0.5333339999999964,
          "durationTicks": 192,
          "midi": 57,
          "name": "A3",
          "ticks": 19104,
          "time": 53.066733,
          "velocity": 0.7165354330708661
        },
        {
          "duration": 0.5333340000000035,
          "durationTicks": 192,
          "midi": 57,
          "name": "A3",
          "ticks": 19296,
          "time": 53.600066999999996,
          "velocity": 0.7165354330708661
        },
        {
          "duration": 0.5333340000000035,
          "durationTicks": 192,
          "midi": 69,
          "name": "A4",
          "ticks": 19296,
          "time": 53.600066999999996,
          "velocity": 0.7165354330708661
        },
        {
          "duration": 0.5333340000000035,
          "durationTicks": 192,
          "midi": 66,
          "name": "F#4",
          "ticks": 19296,
          "time": 53.600066999999996,
          "velocity": 0.7165354330708661
        },
        {
          "duration": 0.5333340000000035,
          "durationTicks": 192,
          "midi": 61,
          "name": "C#4",
          "ticks": 19296,
          "time": 53.600066999999996,
          "velocity": 0.7165354330708661
        },
        {
          "duration": 0.5333339999999964,
          "durationTicks": 192,
          "midi": 65,
          "name": "F4",
          "ticks": 19488,
          "time": 54.133401,
          "velocity": 0.7165354330708661
        },
        {
          "duration": 0.5333339999999964,
          "durationTicks": 192,
          "midi": 61,
          "name": "C#4",
          "ticks": 19488,
          "time": 54.133401,
          "velocity": 0.7165354330708661
        },
        {
          "duration": 0.5333339999999964,
          "durationTicks": 192,
          "midi": 68,
          "name": "G#4",
          "ticks": 19488,
          "time": 54.133401,
          "velocity": 0.7165354330708661
        },
        {
          "duration": 0.5333339999999964,
          "durationTicks": 192,
          "midi": 56,
          "name": "G#3",
          "ticks": 19488,
          "time": 54.133401,
          "velocity": 0.7165354330708661
        },
        {
          "duration": 0.2666670000000053,
          "durationTicks": 96,
          "midi": 54,
          "name": "F#3",
          "ticks": 19680,
          "time": 54.666734999999996,
          "velocity": 0.7165354330708661
        },
        {
          "duration": 0.2666670000000053,
          "durationTicks": 96,
          "midi": 61,
          "name": "C#4",
          "ticks": 19680,
          "time": 54.666734999999996,
          "velocity": 0.7165354330708661
        },
        {
          "duration": 0.2666670000000053,
          "durationTicks": 96,
          "midi": 69,
          "name": "A4",
          "ticks": 19680,
          "time": 54.666734999999996,
          "velocity": 0.7165354330708661
        },
        {
          "duration": 0.2666670000000053,
          "durationTicks": 96,
          "midi": 66,
          "name": "F#4",
          "ticks": 19680,
          "time": 54.666734999999996,
          "velocity": 0.7165354330708661
        },
        {
          "duration": 0.2666669999999982,
          "durationTicks": 96,
          "midi": 61,
          "name": "C#4",
          "ticks": 19776,
          "time": 54.933402,
          "velocity": 0.7165354330708661
        },
        {
          "duration": 0.2666669999999982,
          "durationTicks": 96,
          "midi": 65,
          "name": "F4",
          "ticks": 19776,
          "time": 54.933402,
          "velocity": 0.7165354330708661
        },
        {
          "duration": 0.2666669999999982,
          "durationTicks": 96,
          "midi": 69,
          "name": "A4",
          "ticks": 19776,
          "time": 54.933402,
          "velocity": 0.7165354330708661
        },
        {
          "duration": 0.2666669999999982,
          "durationTicks": 96,
          "midi": 53,
          "name": "F3",
          "ticks": 19776,
          "time": 54.933402,
          "velocity": 0.7165354330708661
        },
        {
          "duration": 0.2666669999999982,
          "durationTicks": 96,
          "midi": 52,
          "name": "E3",
          "ticks": 19872,
          "time": 55.200069,
          "velocity": 0.7165354330708661
        },
        {
          "duration": 0.2666669999999982,
          "durationTicks": 96,
          "midi": 64,
          "name": "E4",
          "ticks": 19872,
          "time": 55.200069,
          "velocity": 0.7165354330708661
        },
        {
          "duration": 0.2666669999999982,
          "durationTicks": 96,
          "midi": 69,
          "name": "A4",
          "ticks": 19872,
          "time": 55.200069,
          "velocity": 0.7165354330708661
        },
        {
          "duration": 0.2666669999999982,
          "durationTicks": 96,
          "midi": 61,
          "name": "C#4",
          "ticks": 19872,
          "time": 55.200069,
          "velocity": 0.7165354330708661
        },
        {
          "duration": 0.2666669999999982,
          "durationTicks": 96,
          "midi": 57,
          "name": "A3",
          "ticks": 19968,
          "time": 55.466736,
          "velocity": 0.7165354330708661
        },
        {
          "duration": 0.2666669999999982,
          "durationTicks": 96,
          "midi": 65,
          "name": "F4",
          "ticks": 19968,
          "time": 55.466736,
          "velocity": 0.7165354330708661
        },
        {
          "duration": 0.2666669999999982,
          "durationTicks": 96,
          "midi": 61,
          "name": "C#4",
          "ticks": 19968,
          "time": 55.466736,
          "velocity": 0.7165354330708661
        },
        {
          "duration": 0.2666669999999982,
          "durationTicks": 96,
          "midi": 69,
          "name": "A4",
          "ticks": 19968,
          "time": 55.466736,
          "velocity": 0.7165354330708661
        },
        {
          "duration": 0.5333340000000035,
          "durationTicks": 192,
          "midi": 57,
          "name": "A3",
          "ticks": 20064,
          "time": 55.733402999999996,
          "velocity": 0.7165354330708661
        },
        {
          "duration": 0.5333340000000035,
          "durationTicks": 192,
          "midi": 61,
          "name": "C#4",
          "ticks": 20064,
          "time": 55.733402999999996,
          "velocity": 0.7165354330708661
        },
        {
          "duration": 0.5333340000000035,
          "durationTicks": 192,
          "midi": 69,
          "name": "A4",
          "ticks": 20064,
          "time": 55.733402999999996,
          "velocity": 0.7165354330708661
        },
        {
          "duration": 0.5333340000000035,
          "durationTicks": 192,
          "midi": 66,
          "name": "F#4",
          "ticks": 20064,
          "time": 55.733402999999996,
          "velocity": 0.7165354330708661
        },
        {
          "duration": 0.5333339999999964,
          "durationTicks": 192,
          "midi": 65,
          "name": "F4",
          "ticks": 20256,
          "time": 56.266737,
          "velocity": 0.7165354330708661
        },
        {
          "duration": 0.5333339999999964,
          "durationTicks": 192,
          "midi": 61,
          "name": "C#4",
          "ticks": 20256,
          "time": 56.266737,
          "velocity": 0.7165354330708661
        },
        {
          "duration": 0.5333339999999964,
          "durationTicks": 192,
          "midi": 68,
          "name": "G#4",
          "ticks": 20256,
          "time": 56.266737,
          "velocity": 0.7165354330708661
        },
        {
          "duration": 0.5333339999999964,
          "durationTicks": 192,
          "midi": 56,
          "name": "G#3",
          "ticks": 20256,
          "time": 56.266737,
          "velocity": 0.7165354330708661
        },
        {
          "duration": 0.5333340000000035,
          "durationTicks": 192,
          "midi": 54,
          "name": "F#3",
          "ticks": 20448,
          "time": 56.800070999999996,
          "velocity": 0.7165354330708661
        },
        {
          "duration": 0.5333340000000035,
          "durationTicks": 192,
          "midi": 69,
          "name": "A4",
          "ticks": 20448,
          "time": 56.800070999999996,
          "velocity": 0.7165354330708661
        },
        {
          "duration": 0.5333340000000035,
          "durationTicks": 192,
          "midi": 66,
          "name": "F#4",
          "ticks": 20448,
          "time": 56.800070999999996,
          "velocity": 0.7165354330708661
        },
        {
          "duration": 0.5333340000000035,
          "durationTicks": 192,
          "midi": 61,
          "name": "C#4",
          "ticks": 20448,
          "time": 56.800070999999996,
          "velocity": 0.7165354330708661
        },
        {
          "duration": 0.5333340000000035,
          "durationTicks": 192,
          "midi": 64,
          "name": "E4",
          "ticks": 20448,
          "time": 56.800070999999996,
          "velocity": 0.7165354330708661
        },
        {
          "duration": 0.2666669999999982,
          "durationTicks": 96,
          "midi": 57,
          "name": "A3",
          "ticks": 20640,
          "time": 57.333405,
          "velocity": 0.7165354330708661
        },
        {
          "duration": 0.2666669999999982,
          "durationTicks": 96,
          "midi": 64,
          "name": "E4",
          "ticks": 20640,
          "time": 57.333405,
          "velocity": 0.7165354330708661
        },
        {
          "duration": 0.2666669999999982,
          "durationTicks": 96,
          "midi": 61,
          "name": "C#4",
          "ticks": 20640,
          "time": 57.333405,
          "velocity": 0.7165354330708661
        },
        {
          "duration": 0.2666669999999982,
          "durationTicks": 96,
          "midi": 69,
          "name": "A4",
          "ticks": 20640,
          "time": 57.333405,
          "velocity": 0.7165354330708661
        },
        {
          "duration": 0.2666669999999982,
          "durationTicks": 96,
          "midi": 58,
          "name": "A#3",
          "ticks": 20736,
          "time": 57.600072,
          "velocity": 0.7165354330708661
        },
        {
          "duration": 0.2666669999999982,
          "durationTicks": 96,
          "midi": 64,
          "name": "E4",
          "ticks": 20736,
          "time": 57.600072,
          "velocity": 0.7165354330708661
        },
        {
          "duration": 0.2666669999999982,
          "durationTicks": 96,
          "midi": 61,
          "name": "C#4",
          "ticks": 20736,
          "time": 57.600072,
          "velocity": 0.7165354330708661
        },
        {
          "duration": 0.2666669999999982,
          "durationTicks": 96,
          "midi": 70,
          "name": "A#4",
          "ticks": 20736,
          "time": 57.600072,
          "velocity": 0.7165354330708661
        },
        {
          "duration": 0.5333340000000035,
          "durationTicks": 192,
          "midi": 66,
          "name": "F#4",
          "ticks": 20832,
          "time": 57.866738999999995,
          "velocity": 0.7165354330708661
        },
        {
          "duration": 0.5333340000000035,
          "durationTicks": 192,
          "midi": 62,
          "name": "D4",
          "ticks": 20832,
          "time": 57.866738999999995,
          "velocity": 0.7165354330708661
        },
        {
          "duration": 0.5333340000000035,
          "durationTicks": 192,
          "midi": 71,
          "name": "B4",
          "ticks": 20832,
          "time": 57.866738999999995,
          "velocity": 0.7165354330708661
        },
        {
          "duration": 0.5333340000000035,
          "durationTicks": 192,
          "midi": 59,
          "name": "B3",
          "ticks": 20832,
          "time": 57.866738999999995,
          "velocity": 0.7165354330708661
        },
        {
          "duration": 0.5333339999999964,
          "durationTicks": 192,
          "midi": 56,
          "name": "G#3",
          "ticks": 21024,
          "time": 58.400073,
          "velocity": 0.7165354330708661
        },
        {
          "duration": 0.5333339999999964,
          "durationTicks": 192,
          "midi": 72,
          "name": "C5",
          "ticks": 21024,
          "time": 58.400073,
          "velocity": 0.7165354330708661
        },
        {
          "duration": 0.5333339999999964,
          "durationTicks": 192,
          "midi": 68,
          "name": "G#4",
          "ticks": 21024,
          "time": 58.400073,
          "velocity": 0.7165354330708661
        },
        {
          "duration": 0.5333339999999964,
          "durationTicks": 192,
          "midi": 63,
          "name": "D#4",
          "ticks": 21024,
          "time": 58.400073,
          "velocity": 0.7165354330708661
        },
        {
          "duration": 0.1333334999999991,
          "durationTicks": 48,
          "midi": 56,
          "name": "G#3",
          "ticks": 21216,
          "time": 58.933406999999995,
          "velocity": 0.7165354330708661
        },
        {
          "duration": 0.1333334999999991,
          "durationTicks": 48,
          "midi": 61,
          "name": "C#4",
          "ticks": 21216,
          "time": 58.933406999999995,
          "velocity": 0.7165354330708661
        },
        {
          "duration": 0.1333334999999991,
          "durationTicks": 48,
          "midi": 68,
          "name": "G#4",
          "ticks": 21216,
          "time": 58.933406999999995,
          "velocity": 0.7165354330708661
        },
        {
          "duration": 0.1333334999999991,
          "durationTicks": 48,
          "midi": 73,
          "name": "C#5",
          "ticks": 21216,
          "time": 58.933406999999995,
          "velocity": 0.7165354330708661
        },
        {
          "duration": 0.1333334999999991,
          "durationTicks": 48,
          "midi": 66,
          "name": "F#4",
          "ticks": 21216,
          "time": 58.933406999999995,
          "velocity": 0.7165354330708661
        },
        {
          "duration": 0.1333334999999991,
          "durationTicks": 48,
          "midi": 66,
          "name": "F#4",
          "ticks": 21312,
          "time": 59.200074,
          "velocity": 0.7165354330708661
        },
        {
          "duration": 0.1333334999999991,
          "durationTicks": 48,
          "midi": 73,
          "name": "C#5",
          "ticks": 21312,
          "time": 59.200074,
          "velocity": 0.7165354330708661
        },
        {
          "duration": 0.1333334999999991,
          "durationTicks": 48,
          "midi": 68,
          "name": "G#4",
          "ticks": 21312,
          "time": 59.200074,
          "velocity": 0.7165354330708661
        },
        {
          "duration": 0.1333334999999991,
          "durationTicks": 48,
          "midi": 61,
          "name": "C#4",
          "ticks": 21312,
          "time": 59.200074,
          "velocity": 0.7165354330708661
        },
        {
          "duration": 0.1333334999999991,
          "durationTicks": 48,
          "midi": 56,
          "name": "G#3",
          "ticks": 21312,
          "time": 59.200074,
          "velocity": 0.7165354330708661
        },
        {
          "duration": 0.1333334999999991,
          "durationTicks": 48,
          "midi": 65,
          "name": "F4",
          "ticks": 21408,
          "time": 59.466741,
          "velocity": 0.7165354330708661
        },
        {
          "duration": 0.1333334999999991,
          "durationTicks": 48,
          "midi": 61,
          "name": "C#4",
          "ticks": 21408,
          "time": 59.466741,
          "velocity": 0.7165354330708661
        },
        {
          "duration": 0.1333334999999991,
          "durationTicks": 48,
          "midi": 68,
          "name": "G#4",
          "ticks": 21408,
          "time": 59.466741,
          "velocity": 0.7165354330708661
        },
        {
          "duration": 0.1333334999999991,
          "durationTicks": 48,
          "midi": 73,
          "name": "C#5",
          "ticks": 21408,
          "time": 59.466741,
          "velocity": 0.7165354330708661
        },
        {
          "duration": 0.1333334999999991,
          "durationTicks": 48,
          "midi": 56,
          "name": "G#3",
          "ticks": 21408,
          "time": 59.466741,
          "velocity": 0.7165354330708661
        },
        {
          "duration": 0.5333340000000035,
          "durationTicks": 192,
          "midi": 57,
          "name": "A3",
          "ticks": 21600,
          "time": 60.000074999999995,
          "velocity": 0.7165354330708661
        },
        {
          "duration": 0.5333340000000035,
          "durationTicks": 192,
          "midi": 69,
          "name": "A4",
          "ticks": 21600,
          "time": 60.000074999999995,
          "velocity": 0.7165354330708661
        },
        {
          "duration": 0.5333340000000035,
          "durationTicks": 192,
          "midi": 66,
          "name": "F#4",
          "ticks": 21600,
          "time": 60.000074999999995,
          "velocity": 0.7165354330708661
        },
        {
          "duration": 0.5333340000000035,
          "durationTicks": 192,
          "midi": 61,
          "name": "C#4",
          "ticks": 21600,
          "time": 60.000074999999995,
          "velocity": 0.7165354330708661
        },
        {
          "duration": 0.5333339999999964,
          "durationTicks": 192,
          "midi": 65,
          "name": "F4",
          "ticks": 21792,
          "time": 60.533409,
          "velocity": 0.7165354330708661
        },
        {
          "duration": 0.5333339999999964,
          "durationTicks": 192,
          "midi": 68,
          "name": "G#4",
          "ticks": 21792,
          "time": 60.533409,
          "velocity": 0.7165354330708661
        },
        {
          "duration": 0.5333339999999964,
          "durationTicks": 192,
          "midi": 61,
          "name": "C#4",
          "ticks": 21792,
          "time": 60.533409,
          "velocity": 0.7165354330708661
        },
        {
          "duration": 0.5333339999999964,
          "durationTicks": 192,
          "midi": 56,
          "name": "G#3",
          "ticks": 21792,
          "time": 60.533409,
          "velocity": 0.7165354330708661
        },
        {
          "duration": 0.5333340000000035,
          "durationTicks": 192,
          "midi": 54,
          "name": "F#3",
          "ticks": 21984,
          "time": 61.066742999999995,
          "velocity": 0.7165354330708661
        },
        {
          "duration": 0.5333340000000035,
          "durationTicks": 192,
          "midi": 69,
          "name": "A4",
          "ticks": 21984,
          "time": 61.066742999999995,
          "velocity": 0.7165354330708661
        },
        {
          "duration": 0.5333340000000035,
          "durationTicks": 192,
          "midi": 66,
          "name": "F#4",
          "ticks": 21984,
          "time": 61.066742999999995,
          "velocity": 0.7165354330708661
        },
        {
          "duration": 0.5333340000000035,
          "durationTicks": 192,
          "midi": 61,
          "name": "C#4",
          "ticks": 21984,
          "time": 61.066742999999995,
          "velocity": 0.7165354330708661
        },
        {
          "duration": 0.5333340000000035,
          "durationTicks": 192,
          "midi": 64,
          "name": "E4",
          "ticks": 21984,
          "time": 61.066742999999995,
          "velocity": 0.7165354330708661
        },
        {
          "duration": 0.5333339999999964,
          "durationTicks": 192,
          "midi": 69,
          "name": "A4",
          "ticks": 22176,
          "time": 61.600077,
          "velocity": 0.7165354330708661
        },
        {
          "duration": 0.5333339999999964,
          "durationTicks": 192,
          "midi": 61,
          "name": "C#4",
          "ticks": 22176,
          "time": 61.600077,
          "velocity": 0.7165354330708661
        },
        {
          "duration": 0.5333339999999964,
          "durationTicks": 192,
          "midi": 64,
          "name": "E4",
          "ticks": 22176,
          "time": 61.600077,
          "velocity": 0.7165354330708661
        },
        {
          "duration": 0.5333339999999964,
          "durationTicks": 192,
          "midi": 67,
          "name": "G4",
          "ticks": 22176,
          "time": 61.600077,
          "velocity": 0.7165354330708661
        },
        {
          "duration": 0.5333339999999964,
          "durationTicks": 192,
          "midi": 57,
          "name": "A3",
          "ticks": 22176,
          "time": 61.600077,
          "velocity": 0.7165354330708661
        },
        {
          "duration": 0.5333340000000035,
          "durationTicks": 192,
          "midi": 57,
          "name": "A3",
          "ticks": 22368,
          "time": 62.133410999999995,
          "velocity": 0.7165354330708661
        },
        {
          "duration": 0.5333340000000035,
          "durationTicks": 192,
          "midi": 69,
          "name": "A4",
          "ticks": 22368,
          "time": 62.133410999999995,
          "velocity": 0.7165354330708661
        },
        {
          "duration": 0.5333340000000035,
          "durationTicks": 192,
          "midi": 66,
          "name": "F#4",
          "ticks": 22368,
          "time": 62.133410999999995,
          "velocity": 0.7165354330708661
        },
        {
          "duration": 0.5333340000000035,
          "durationTicks": 192,
          "midi": 61,
          "name": "C#4",
          "ticks": 22368,
          "time": 62.133410999999995,
          "velocity": 0.7165354330708661
        },
        {
          "duration": 0.5333339999999964,
          "durationTicks": 192,
          "midi": 56,
          "name": "G#3",
          "ticks": 22560,
          "time": 62.666745,
          "velocity": 0.7165354330708661
        },
        {
          "duration": 0.5333339999999964,
          "durationTicks": 192,
          "midi": 68,
          "name": "G#4",
          "ticks": 22560,
          "time": 62.666745,
          "velocity": 0.7165354330708661
        },
        {
          "duration": 0.5333339999999964,
          "durationTicks": 192,
          "midi": 61,
          "name": "C#4",
          "ticks": 22560,
          "time": 62.666745,
          "velocity": 0.7165354330708661
        },
        {
          "duration": 0.5333339999999964,
          "durationTicks": 192,
          "midi": 65,
          "name": "F4",
          "ticks": 22560,
          "time": 62.666745,
          "velocity": 0.7165354330708661
        },
        {
          "duration": 0.2666670000000053,
          "durationTicks": 96,
          "midi": 66,
          "name": "F#4",
          "ticks": 22752,
          "time": 63.200078999999995,
          "velocity": 0.7165354330708661
        },
        {
          "duration": 0.2666670000000053,
          "durationTicks": 96,
          "midi": 69,
          "name": "A4",
          "ticks": 22752,
          "time": 63.200078999999995,
          "velocity": 0.7165354330708661
        },
        {
          "duration": 0.2666670000000053,
          "durationTicks": 96,
          "midi": 61,
          "name": "C#4",
          "ticks": 22752,
          "time": 63.200078999999995,
          "velocity": 0.7165354330708661
        },
        {
          "duration": 0.2666670000000053,
          "durationTicks": 96,
          "midi": 54,
          "name": "F#3",
          "ticks": 22752,
          "time": 63.200078999999995,
          "velocity": 0.7165354330708661
        },
        {
          "duration": 0.2666669999999982,
          "durationTicks": 96,
          "midi": 53,
          "name": "F3",
          "ticks": 22848,
          "time": 63.466746,
          "velocity": 0.7165354330708661
        },
        {
          "duration": 0.2666669999999982,
          "durationTicks": 96,
          "midi": 69,
          "name": "A4",
          "ticks": 22848,
          "time": 63.466746,
          "velocity": 0.7165354330708661
        },
        {
          "duration": 0.2666669999999982,
          "durationTicks": 96,
          "midi": 65,
          "name": "F4",
          "ticks": 22848,
          "time": 63.466746,
          "velocity": 0.7165354330708661
        },
        {
          "duration": 0.2666669999999982,
          "durationTicks": 96,
          "midi": 61,
          "name": "C#4",
          "ticks": 22848,
          "time": 63.466746,
          "velocity": 0.7165354330708661
        },
        {
          "duration": 0.2666669999999982,
          "durationTicks": 96,
          "midi": 52,
          "name": "E3",
          "ticks": 22944,
          "time": 63.733413,
          "velocity": 0.7165354330708661
        },
        {
          "duration": 0.2666669999999982,
          "durationTicks": 96,
          "midi": 64,
          "name": "E4",
          "ticks": 22944,
          "time": 63.733413,
          "velocity": 0.7165354330708661
        },
        {
          "duration": 0.2666669999999982,
          "durationTicks": 96,
          "midi": 69,
          "name": "A4",
          "ticks": 22944,
          "time": 63.733413,
          "velocity": 0.7165354330708661
        },
        {
          "duration": 0.2666669999999982,
          "durationTicks": 96,
          "midi": 61,
          "name": "C#4",
          "ticks": 22944,
          "time": 63.733413,
          "velocity": 0.7165354330708661
        },
        {
          "duration": 0.5333339999999964,
          "durationTicks": 192,
          "midi": 66,
          "name": "F#4",
          "ticks": 23136,
          "time": 64.266747,
          "velocity": 0.7165354330708661
        },
        {
          "duration": 0.5333339999999964,
          "durationTicks": 192,
          "midi": 69,
          "name": "A4",
          "ticks": 23136,
          "time": 64.266747,
          "velocity": 0.7165354330708661
        },
        {
          "duration": 0.5333339999999964,
          "durationTicks": 192,
          "midi": 61,
          "name": "C#4",
          "ticks": 23136,
          "time": 64.266747,
          "velocity": 0.7165354330708661
        },
        {
          "duration": 0.5333339999999964,
          "durationTicks": 192,
          "midi": 57,
          "name": "A3",
          "ticks": 23136,
          "time": 64.266747,
          "velocity": 0.7165354330708661
        },
        {
          "duration": 0.5333340000000106,
          "durationTicks": 192,
          "midi": 65,
          "name": "F4",
          "ticks": 23328,
          "time": 64.80008099999999,
          "velocity": 0.7165354330708661
        },
        {
          "duration": 0.5333340000000106,
          "durationTicks": 192,
          "midi": 61,
          "name": "C#4",
          "ticks": 23328,
          "time": 64.80008099999999,
          "velocity": 0.7165354330708661
        },
        {
          "duration": 0.5333340000000106,
          "durationTicks": 192,
          "midi": 68,
          "name": "G#4",
          "ticks": 23328,
          "time": 64.80008099999999,
          "velocity": 0.7165354330708661
        },
        {
          "duration": 0.5333340000000106,
          "durationTicks": 192,
          "midi": 56,
          "name": "G#3",
          "ticks": 23328,
          "time": 64.80008099999999,
          "velocity": 0.7165354330708661
        },
        {
          "duration": 0.5333339999999964,
          "durationTicks": 192,
          "midi": 64,
          "name": "E4",
          "ticks": 23520,
          "time": 65.333415,
          "velocity": 0.7165354330708661
        },
        {
          "duration": 0.5333339999999964,
          "durationTicks": 192,
          "midi": 61,
          "name": "C#4",
          "ticks": 23520,
          "time": 65.333415,
          "velocity": 0.7165354330708661
        },
        {
          "duration": 0.5333339999999964,
          "durationTicks": 192,
          "midi": 66,
          "name": "F#4",
          "ticks": 23520,
          "time": 65.333415,
          "velocity": 0.7165354330708661
        },
        {
          "duration": 0.5333339999999964,
          "durationTicks": 192,
          "midi": 69,
          "name": "A4",
          "ticks": 23520,
          "time": 65.333415,
          "velocity": 0.7165354330708661
        },
        {
          "duration": 0.5333339999999964,
          "durationTicks": 192,
          "midi": 54,
          "name": "F#3",
          "ticks": 23520,
          "time": 65.333415,
          "velocity": 0.7165354330708661
        },
        {
          "duration": 0.2666669999999982,
          "durationTicks": 96,
          "midi": 57,
          "name": "A3",
          "ticks": 23712,
          "time": 65.866749,
          "velocity": 0.7165354330708661
        },
        {
          "duration": 0.2666669999999982,
          "durationTicks": 96,
          "midi": 64,
          "name": "E4",
          "ticks": 23712,
          "time": 65.866749,
          "velocity": 0.7165354330708661
        },
        {
          "duration": 0.2666669999999982,
          "durationTicks": 96,
          "midi": 61,
          "name": "C#4",
          "ticks": 23712,
          "time": 65.866749,
          "velocity": 0.7165354330708661
        },
        {
          "duration": 0.2666669999999982,
          "durationTicks": 96,
          "midi": 69,
          "name": "A4",
          "ticks": 23712,
          "time": 65.866749,
          "velocity": 0.7165354330708661
        },
        {
          "duration": 0.2666669999999982,
          "durationTicks": 96,
          "midi": 70,
          "name": "A#4",
          "ticks": 23808,
          "time": 66.133416,
          "velocity": 0.7165354330708661
        },
        {
          "duration": 0.2666669999999982,
          "durationTicks": 96,
          "midi": 61,
          "name": "C#4",
          "ticks": 23808,
          "time": 66.133416,
          "velocity": 0.7165354330708661
        },
        {
          "duration": 0.2666669999999982,
          "durationTicks": 96,
          "midi": 64,
          "name": "E4",
          "ticks": 23808,
          "time": 66.133416,
          "velocity": 0.7165354330708661
        },
        {
          "duration": 0.2666669999999982,
          "durationTicks": 96,
          "midi": 58,
          "name": "A#3",
          "ticks": 23808,
          "time": 66.133416,
          "velocity": 0.7165354330708661
        },
        {
          "duration": 0.1333335000000062,
          "durationTicks": 48,
          "midi": 59,
          "name": "B3",
          "ticks": 23904,
          "time": 66.400083,
          "velocity": 0.7165354330708661
        },
        {
          "duration": 0.1333335000000062,
          "durationTicks": 48,
          "midi": 62,
          "name": "D4",
          "ticks": 23904,
          "time": 66.400083,
          "velocity": 0.7165354330708661
        },
        {
          "duration": 0.1333335000000062,
          "durationTicks": 48,
          "midi": 66,
          "name": "F#4",
          "ticks": 23904,
          "time": 66.400083,
          "velocity": 0.7165354330708661
        },
        {
          "duration": 0.1333335000000062,
          "durationTicks": 48,
          "midi": 71,
          "name": "B4",
          "ticks": 23904,
          "time": 66.400083,
          "velocity": 0.7165354330708661
        },
        {
          "duration": 0.133333499999992,
          "durationTicks": 48,
          "midi": 71,
          "name": "B4",
          "ticks": 23952,
          "time": 66.5334165,
          "velocity": 0.7165354330708661
        },
        {
          "duration": 0.133333499999992,
          "durationTicks": 48,
          "midi": 66,
          "name": "F#4",
          "ticks": 23952,
          "time": 66.5334165,
          "velocity": 0.7165354330708661
        },
        {
          "duration": 0.133333499999992,
          "durationTicks": 48,
          "midi": 62,
          "name": "D4",
          "ticks": 23952,
          "time": 66.5334165,
          "velocity": 0.7165354330708661
        },
        {
          "duration": 0.133333499999992,
          "durationTicks": 48,
          "midi": 59,
          "name": "B3",
          "ticks": 23952,
          "time": 66.5334165,
          "velocity": 0.7165354330708661
        },
        {
          "duration": 0.1333335000000062,
          "durationTicks": 48,
          "midi": 61,
          "name": "C#4",
          "ticks": 24096,
          "time": 66.93341699999999,
          "velocity": 0.7165354330708661
        },
        {
          "duration": 0.1333335000000062,
          "durationTicks": 48,
          "midi": 73,
          "name": "C#5",
          "ticks": 24096,
          "time": 66.93341699999999,
          "velocity": 0.7165354330708661
        },
        {
          "duration": 0.1333335000000062,
          "durationTicks": 48,
          "midi": 68,
          "name": "G#4",
          "ticks": 24096,
          "time": 66.93341699999999,
          "velocity": 0.7165354330708661
        },
        {
          "duration": 0.1333335000000062,
          "durationTicks": 48,
          "midi": 65,
          "name": "F4",
          "ticks": 24096,
          "time": 66.93341699999999,
          "velocity": 0.7165354330708661
        },
        {
          "duration": 0.1333335000000062,
          "durationTicks": 48,
          "midi": 61,
          "name": "C#4",
          "ticks": 24144,
          "time": 67.0667505,
          "velocity": 0.7165354330708661
        },
        {
          "duration": 0.1333335000000062,
          "durationTicks": 48,
          "midi": 73,
          "name": "C#5",
          "ticks": 24144,
          "time": 67.0667505,
          "velocity": 0.7165354330708661
        },
        {
          "duration": 0.1333335000000062,
          "durationTicks": 48,
          "midi": 68,
          "name": "G#4",
          "ticks": 24144,
          "time": 67.0667505,
          "velocity": 0.7165354330708661
        },
        {
          "duration": 0.1333335000000062,
          "durationTicks": 48,
          "midi": 65,
          "name": "F4",
          "ticks": 24144,
          "time": 67.0667505,
          "velocity": 0.7165354330708661
        },
        {
          "duration": 0.133333499999992,
          "durationTicks": 48,
          "midi": 71,
          "name": "B4",
          "ticks": 24288,
          "time": 67.466751,
          "velocity": 0.7165354330708661
        },
        {
          "duration": 0.133333499999992,
          "durationTicks": 48,
          "midi": 61,
          "name": "C#4",
          "ticks": 24288,
          "time": 67.466751,
          "velocity": 0.7165354330708661
        },
        {
          "duration": 0.133333499999992,
          "durationTicks": 48,
          "midi": 66,
          "name": "F#4",
          "ticks": 24288,
          "time": 67.466751,
          "velocity": 0.7165354330708661
        },
        {
          "duration": 0.133333499999992,
          "durationTicks": 48,
          "midi": 59,
          "name": "B3",
          "ticks": 24288,
          "time": 67.466751,
          "velocity": 0.7165354330708661
        },
        {
          "duration": 0.133333499999992,
          "durationTicks": 48,
          "midi": 61,
          "name": "C#4",
          "ticks": 24384,
          "time": 67.733418,
          "velocity": 0.7165354330708661
        },
        {
          "duration": 0.133333499999992,
          "durationTicks": 48,
          "midi": 68,
          "name": "G#4",
          "ticks": 24384,
          "time": 67.733418,
          "velocity": 0.7165354330708661
        },
        {
          "duration": 0.133333499999992,
          "durationTicks": 48,
          "midi": 66,
          "name": "F#4",
          "ticks": 24384,
          "time": 67.733418,
          "velocity": 0.7165354330708661
        },
        {
          "duration": 0.133333499999992,
          "durationTicks": 48,
          "midi": 56,
          "name": "G#3",
          "ticks": 24384,
          "time": 67.733418,
          "velocity": 0.7165354330708661
        },
        {
          "duration": 0.2666669999999982,
          "durationTicks": 96,
          "midi": 57,
          "name": "A3",
          "ticks": 24480,
          "time": 68.000085,
          "velocity": 0.7165354330708661
        },
        {
          "duration": 0.2666669999999982,
          "durationTicks": 96,
          "midi": 66,
          "name": "F#4",
          "ticks": 24480,
          "time": 68.000085,
          "velocity": 0.7165354330708661
        },
        {
          "duration": 0.2666669999999982,
          "durationTicks": 96,
          "midi": 69,
          "name": "A4",
          "ticks": 24480,
          "time": 68.000085,
          "velocity": 0.7165354330708661
        },
        {
          "duration": 0.2666669999999982,
          "durationTicks": 96,
          "midi": 61,
          "name": "C#4",
          "ticks": 24480,
          "time": 68.000085,
          "velocity": 0.7165354330708661
        },
        {
          "duration": 0.1333335000000062,
          "durationTicks": 48,
          "midi": 59,
          "name": "B3",
          "ticks": 24672,
          "time": 68.533419,
          "velocity": 0.7165354330708661
        },
        {
          "duration": 0.1333335000000062,
          "durationTicks": 48,
          "midi": 62,
          "name": "D4",
          "ticks": 24672,
          "time": 68.533419,
          "velocity": 0.7165354330708661
        },
        {
          "duration": 0.1333335000000062,
          "durationTicks": 48,
          "midi": 66,
          "name": "F#4",
          "ticks": 24672,
          "time": 68.533419,
          "velocity": 0.7165354330708661
        },
        {
          "duration": 0.1333335000000062,
          "durationTicks": 48,
          "midi": 71,
          "name": "B4",
          "ticks": 24672,
          "time": 68.533419,
          "velocity": 0.7165354330708661
        },
        {
          "duration": 0.133333499999992,
          "durationTicks": 48,
          "midi": 71,
          "name": "B4",
          "ticks": 24720,
          "time": 68.6667525,
          "velocity": 0.7165354330708661
        },
        {
          "duration": 0.133333499999992,
          "durationTicks": 48,
          "midi": 66,
          "name": "F#4",
          "ticks": 24720,
          "time": 68.6667525,
          "velocity": 0.7165354330708661
        },
        {
          "duration": 0.133333499999992,
          "durationTicks": 48,
          "midi": 62,
          "name": "D4",
          "ticks": 24720,
          "time": 68.6667525,
          "velocity": 0.7165354330708661
        },
        {
          "duration": 0.133333499999992,
          "durationTicks": 48,
          "midi": 59,
          "name": "B3",
          "ticks": 24720,
          "time": 68.6667525,
          "velocity": 0.7165354330708661
        },
        {
          "duration": 0.1333335000000062,
          "durationTicks": 48,
          "midi": 61,
          "name": "C#4",
          "ticks": 24864,
          "time": 69.06675299999999,
          "velocity": 0.7165354330708661
        },
        {
          "duration": 0.1333335000000062,
          "durationTicks": 48,
          "midi": 73,
          "name": "C#5",
          "ticks": 24864,
          "time": 69.06675299999999,
          "velocity": 0.7165354330708661
        },
        {
          "duration": 0.1333335000000062,
          "durationTicks": 48,
          "midi": 68,
          "name": "G#4",
          "ticks": 24864,
          "time": 69.06675299999999,
          "velocity": 0.7165354330708661
        },
        {
          "duration": 0.1333335000000062,
          "durationTicks": 48,
          "midi": 65,
          "name": "F4",
          "ticks": 24864,
          "time": 69.06675299999999,
          "velocity": 0.7165354330708661
        },
        {
          "duration": 0.133333499999992,
          "durationTicks": 48,
          "midi": 65,
          "name": "F4",
          "ticks": 24912,
          "time": 69.2000865,
          "velocity": 0.7165354330708661
        },
        {
          "duration": 0.133333499999992,
          "durationTicks": 48,
          "midi": 68,
          "name": "G#4",
          "ticks": 24912,
          "time": 69.2000865,
          "velocity": 0.7165354330708661
        },
        {
          "duration": 0.133333499999992,
          "durationTicks": 48,
          "midi": 73,
          "name": "C#5",
          "ticks": 24912,
          "time": 69.2000865,
          "velocity": 0.7165354330708661
        },
        {
          "duration": 0.133333499999992,
          "durationTicks": 48,
          "midi": 61,
          "name": "C#4",
          "ticks": 24912,
          "time": 69.2000865,
          "velocity": 0.7165354330708661
        },
        {
          "duration": 0.133333499999992,
          "durationTicks": 48,
          "midi": 66,
          "name": "F#4",
          "ticks": 25056,
          "time": 69.600087,
          "velocity": 0.7165354330708661
        },
        {
          "duration": 0.133333499999992,
          "durationTicks": 48,
          "midi": 71,
          "name": "B4",
          "ticks": 25056,
          "time": 69.600087,
          "velocity": 0.7165354330708661
        },
        {
          "duration": 0.133333499999992,
          "durationTicks": 48,
          "midi": 61,
          "name": "C#4",
          "ticks": 25056,
          "time": 69.600087,
          "velocity": 0.7165354330708661
        },
        {
          "duration": 0.133333499999992,
          "durationTicks": 48,
          "midi": 59,
          "name": "B3",
          "ticks": 25056,
          "time": 69.600087,
          "velocity": 0.7165354330708661
        },
        {
          "duration": 0.133333499999992,
          "durationTicks": 48,
          "midi": 68,
          "name": "G#4",
          "ticks": 25152,
          "time": 69.866754,
          "velocity": 0.7165354330708661
        },
        {
          "duration": 0.133333499999992,
          "durationTicks": 48,
          "midi": 65,
          "name": "F4",
          "ticks": 25152,
          "time": 69.866754,
          "velocity": 0.7165354330708661
        },
        {
          "duration": 0.133333499999992,
          "durationTicks": 48,
          "midi": 61,
          "name": "C#4",
          "ticks": 25152,
          "time": 69.866754,
          "velocity": 0.7165354330708661
        },
        {
          "duration": 0.133333499999992,
          "durationTicks": 48,
          "midi": 56,
          "name": "G#3",
          "ticks": 25152,
          "time": 69.866754,
          "velocity": 0.7165354330708661
        },
        {
          "duration": 0.2666669999999982,
          "durationTicks": 96,
          "midi": 57,
          "name": "A3",
          "ticks": 25248,
          "time": 70.133421,
          "velocity": 0.7165354330708661
        },
        {
          "duration": 0.2666669999999982,
          "durationTicks": 96,
          "midi": 66,
          "name": "F#4",
          "ticks": 25248,
          "time": 70.133421,
          "velocity": 0.7165354330708661
        },
        {
          "duration": 0.2666669999999982,
          "durationTicks": 96,
          "midi": 61,
          "name": "C#4",
          "ticks": 25248,
          "time": 70.133421,
          "velocity": 0.7165354330708661
        },
        {
          "duration": 0.2666669999999982,
          "durationTicks": 96,
          "midi": 69,
          "name": "A4",
          "ticks": 25248,
          "time": 70.133421,
          "velocity": 0.7165354330708661
        },
        {
          "duration": 3.7000046250000054,
          "durationTicks": 1332,
          "midi": 46,
          "name": "A#2",
          "ticks": 25440,
          "time": 70.666755,
          "velocity": 0.7322834645669292
        },
        {
          "duration": 3.7000046250000054,
          "durationTicks": 1332,
          "midi": 51,
          "name": "D#3",
          "ticks": 25440,
          "time": 70.666755,
          "velocity": 0.7322834645669292
        },
        {
          "duration": 3.7000046250000054,
          "durationTicks": 1332,
          "midi": 58,
          "name": "A#3",
          "ticks": 25440,
          "time": 70.666755,
          "velocity": 0.7322834645669292
        },
        {
          "duration": 3.700004624999991,
          "durationTicks": 1332,
          "midi": 63,
          "name": "D#4",
          "ticks": 25444,
          "time": 70.67786612500001,
          "velocity": 0.7322834645669292
        },
        {
          "duration": 4.266672,
          "durationTicks": 1536,
          "midi": 51,
          "name": "D#3",
          "ticks": 27168,
          "time": 75.46676099999999,
          "velocity": 0.7322834645669292
        },
        {
          "duration": 4.266672,
          "durationTicks": 1536,
          "midi": 46,
          "name": "A#2",
          "ticks": 27168,
          "time": 75.46676099999999,
          "velocity": 0.7322834645669292
        },
        {
          "duration": 4.266672,
          "durationTicks": 1536,
          "midi": 58,
          "name": "A#3",
          "ticks": 27168,
          "time": 75.46676099999999,
          "velocity": 0.7322834645669292
        },
        {
          "duration": 3.333337499999999,
          "durationTicks": 1200,
          "midi": 46,
          "name": "A#2",
          "ticks": 28752,
          "time": 79.8667665,
          "velocity": 0.7322834645669292
        },
        {
          "duration": 3.333337499999999,
          "durationTicks": 1200,
          "midi": 58,
          "name": "A#3",
          "ticks": 28752,
          "time": 79.8667665,
          "velocity": 0.7322834645669292
        },
        {
          "duration": 3.333337499999999,
          "durationTicks": 1200,
          "midi": 51,
          "name": "D#3",
          "ticks": 28752,
          "time": 79.8667665,
          "velocity": 0.7322834645669292
        },
        {
          "duration": 2.1222248750000006,
          "durationTicks": 764,
          "midi": 51,
          "name": "D#3",
          "ticks": 31008,
          "time": 86.13344099999999,
          "velocity": 0.7165354330708661
        },
        {
          "duration": 2.1222248750000006,
          "durationTicks": 764,
          "midi": 46,
          "name": "A#2",
          "ticks": 31008,
          "time": 86.13344099999999,
          "velocity": 0.7165354330708661
        },
        {
          "duration": 2.1222248750000006,
          "durationTicks": 764,
          "midi": 58,
          "name": "A#3",
          "ticks": 31008,
          "time": 86.13344099999999,
          "velocity": 0.7165354330708661
        },
        {
          "duration": 2.1222248750000006,
          "durationTicks": 764,
          "midi": 46,
          "name": "A#2",
          "ticks": 32544,
          "time": 90.40011299999999,
          "velocity": 0.7165354330708661
        },
        {
          "duration": 2.1222248750000006,
          "durationTicks": 764,
          "midi": 51,
          "name": "D#3",
          "ticks": 32544,
          "time": 90.40011299999999,
          "velocity": 0.7165354330708661
        },
        {
          "duration": 2.1222248750000006,
          "durationTicks": 764,
          "midi": 58,
          "name": "A#3",
          "ticks": 32544,
          "time": 90.40011299999999,
          "velocity": 0.7165354330708661
        },
        {
          "duration": 0.1333335000000062,
          "durationTicks": 48,
          "midi": 51,
          "name": "D#3",
          "ticks": 34416,
          "time": 95.60011949999999,
          "velocity": 0.6850393700787402
        },
        {
          "duration": 0.1333335000000062,
          "durationTicks": 48,
          "midi": 58,
          "name": "A#3",
          "ticks": 34416,
          "time": 95.60011949999999,
          "velocity": 0.6850393700787402
        },
        {
          "duration": 0.1333335000000062,
          "durationTicks": 48,
          "midi": 63,
          "name": "D#4",
          "ticks": 34416,
          "time": 95.60011949999999,
          "velocity": 0.6850393700787402
        },
        {
          "duration": 0.1333335000000062,
          "durationTicks": 48,
          "midi": 51,
          "name": "D#3",
          "ticks": 34560,
          "time": 96.00012,
          "velocity": 0.6850393700787402
        },
        {
          "duration": 0.1333335000000062,
          "durationTicks": 48,
          "midi": 58,
          "name": "A#3",
          "ticks": 34560,
          "time": 96.00012,
          "velocity": 0.6850393700787402
        },
        {
          "duration": 0.1333335000000062,
          "durationTicks": 48,
          "midi": 63,
          "name": "D#4",
          "ticks": 34560,
          "time": 96.00012,
          "velocity": 0.6850393700787402
        },
        {
          "duration": 0.1333335000000062,
          "durationTicks": 48,
          "midi": 63,
          "name": "D#4",
          "ticks": 35184,
          "time": 97.73345549999999,
          "velocity": 0.6850393700787402
        },
        {
          "duration": 0.1333335000000062,
          "durationTicks": 48,
          "midi": 58,
          "name": "A#3",
          "ticks": 35184,
          "time": 97.73345549999999,
          "velocity": 0.6850393700787402
        },
        {
          "duration": 0.1333335000000062,
          "durationTicks": 48,
          "midi": 51,
          "name": "D#3",
          "ticks": 35184,
          "time": 97.73345549999999,
          "velocity": 0.6850393700787402
        },
        {
          "duration": 0.1333335000000062,
          "durationTicks": 48,
          "midi": 63,
          "name": "D#4",
          "ticks": 35328,
          "time": 98.133456,
          "velocity": 0.6850393700787402
        },
        {
          "duration": 0.1333335000000062,
          "durationTicks": 48,
          "midi": 58,
          "name": "A#3",
          "ticks": 35328,
          "time": 98.133456,
          "velocity": 0.6850393700787402
        },
        {
          "duration": 0.1333335000000062,
          "durationTicks": 48,
          "midi": 51,
          "name": "D#3",
          "ticks": 35328,
          "time": 98.133456,
          "velocity": 0.6850393700787402
        },
        {
          "duration": 0.5333340000000106,
          "durationTicks": 192,
          "midi": 66,
          "name": "F#4",
          "ticks": 35616,
          "time": 98.93345699999999,
          "velocity": 0.6929133858267716
        },
        {
          "duration": 0.5333340000000106,
          "durationTicks": 192,
          "midi": 63,
          "name": "D#4",
          "ticks": 35616,
          "time": 98.93345699999999,
          "velocity": 0.6929133858267716
        },
        {
          "duration": 0.5333340000000106,
          "durationTicks": 192,
          "midi": 58,
          "name": "A#3",
          "ticks": 35616,
          "time": 98.93345699999999,
          "velocity": 0.6929133858267716
        },
        {
          "duration": 0.5333340000000106,
          "durationTicks": 192,
          "midi": 54,
          "name": "F#3",
          "ticks": 35616,
          "time": 98.93345699999999,
          "velocity": 0.6929133858267716
        },
        {
          "duration": 0.5333339999999964,
          "durationTicks": 192,
          "midi": 53,
          "name": "F3",
          "ticks": 35808,
          "time": 99.466791,
          "velocity": 0.6929133858267716
        },
        {
          "duration": 0.5333339999999964,
          "durationTicks": 192,
          "midi": 65,
          "name": "F4",
          "ticks": 35808,
          "time": 99.466791,
          "velocity": 0.6929133858267716
        },
        {
          "duration": 0.5333339999999964,
          "durationTicks": 192,
          "midi": 57,
          "name": "A3",
          "ticks": 35808,
          "time": 99.466791,
          "velocity": 0.6929133858267716
        },
        {
          "duration": 0.5333339999999964,
          "durationTicks": 192,
          "midi": 61,
          "name": "C#4",
          "ticks": 35808,
          "time": 99.466791,
          "velocity": 0.6929133858267716
        },
        {
          "duration": 0.5333339999999964,
          "durationTicks": 192,
          "midi": 56,
          "name": "G#3",
          "ticks": 36000,
          "time": 100.000125,
          "velocity": 0.6929133858267716
        },
        {
          "duration": 0.5333339999999964,
          "durationTicks": 192,
          "midi": 59,
          "name": "B3",
          "ticks": 36000,
          "time": 100.000125,
          "velocity": 0.6929133858267716
        },
        {
          "duration": 0.5333339999999964,
          "durationTicks": 192,
          "midi": 63,
          "name": "D#4",
          "ticks": 36000,
          "time": 100.000125,
          "velocity": 0.6929133858267716
        },
        {
          "duration": 0.5333339999999964,
          "durationTicks": 192,
          "midi": 68,
          "name": "G#4",
          "ticks": 36000,
          "time": 100.000125,
          "velocity": 0.6929133858267716
        },
        {
          "duration": 0.1333335000000062,
          "durationTicks": 48,
          "midi": 53,
          "name": "F3",
          "ticks": 36192,
          "time": 100.533459,
          "velocity": 0.6929133858267716
        },
        {
          "duration": 0.1333335000000062,
          "durationTicks": 48,
          "midi": 65,
          "name": "F4",
          "ticks": 36192,
          "time": 100.533459,
          "velocity": 0.6929133858267716
        },
        {
          "duration": 0.1333335000000062,
          "durationTicks": 48,
          "midi": 58,
          "name": "A#3",
          "ticks": 36192,
          "time": 100.533459,
          "velocity": 0.6929133858267716
        },
        {
          "duration": 0.1333335000000062,
          "durationTicks": 48,
          "midi": 62,
          "name": "D4",
          "ticks": 36192,
          "time": 100.533459,
          "velocity": 0.6929133858267716
        },
        {
          "duration": 0.133333499999992,
          "durationTicks": 48,
          "midi": 58,
          "name": "A#3",
          "ticks": 36576,
          "time": 101.600127,
          "velocity": 0.6850393700787402
        },
        {
          "duration": 0.133333499999992,
          "durationTicks": 48,
          "midi": 51,
          "name": "D#3",
          "ticks": 36576,
          "time": 101.600127,
          "velocity": 0.6850393700787402
        },
        {
          "duration": 0.133333499999992,
          "durationTicks": 48,
          "midi": 63,
          "name": "D#4",
          "ticks": 36576,
          "time": 101.600127,
          "velocity": 0.6850393700787402
        },
        {
          "duration": 0.1333335000000062,
          "durationTicks": 48,
          "midi": 63,
          "name": "D#4",
          "ticks": 36720,
          "time": 102.00012749999999,
          "velocity": 0.6850393700787402
        },
        {
          "duration": 0.1333335000000062,
          "durationTicks": 48,
          "midi": 58,
          "name": "A#3",
          "ticks": 36720,
          "time": 102.00012749999999,
          "velocity": 0.6850393700787402
        },
        {
          "duration": 0.1333335000000062,
          "durationTicks": 48,
          "midi": 51,
          "name": "D#3",
          "ticks": 36720,
          "time": 102.00012749999999,
          "velocity": 0.6850393700787402
        },
        {
          "duration": 0.1333335000000062,
          "durationTicks": 48,
          "midi": 51,
          "name": "D#3",
          "ticks": 36864,
          "time": 102.400128,
          "velocity": 0.6850393700787402
        },
        {
          "duration": 0.1333335000000062,
          "durationTicks": 48,
          "midi": 58,
          "name": "A#3",
          "ticks": 36864,
          "time": 102.400128,
          "velocity": 0.6850393700787402
        },
        {
          "duration": 0.1333335000000062,
          "durationTicks": 48,
          "midi": 63,
          "name": "D#4",
          "ticks": 36864,
          "time": 102.400128,
          "velocity": 0.6850393700787402
        },
        {
          "duration": 0.133333499999992,
          "durationTicks": 48,
          "midi": 63,
          "name": "D#4",
          "ticks": 37344,
          "time": 103.733463,
          "velocity": 0.6850393700787402
        },
        {
          "duration": 0.133333499999992,
          "durationTicks": 48,
          "midi": 58,
          "name": "A#3",
          "ticks": 37344,
          "time": 103.733463,
          "velocity": 0.6850393700787402
        },
        {
          "duration": 0.133333499999992,
          "durationTicks": 48,
          "midi": 51,
          "name": "D#3",
          "ticks": 37344,
          "time": 103.733463,
          "velocity": 0.6850393700787402
        },
        {
          "duration": 0.1333335000000062,
          "durationTicks": 48,
          "midi": 63,
          "name": "D#4",
          "ticks": 37488,
          "time": 104.13346349999999,
          "velocity": 0.6850393700787402
        },
        {
          "duration": 0.1333335000000062,
          "durationTicks": 48,
          "midi": 58,
          "name": "A#3",
          "ticks": 37488,
          "time": 104.13346349999999,
          "velocity": 0.6850393700787402
        },
        {
          "duration": 0.1333335000000062,
          "durationTicks": 48,
          "midi": 51,
          "name": "D#3",
          "ticks": 37488,
          "time": 104.13346349999999,
          "velocity": 0.6850393700787402
        },
        {
          "duration": 0.1333335000000062,
          "durationTicks": 48,
          "midi": 51,
          "name": "D#3",
          "ticks": 37632,
          "time": 104.533464,
          "velocity": 0.6850393700787402
        },
        {
          "duration": 0.1333335000000062,
          "durationTicks": 48,
          "midi": 58,
          "name": "A#3",
          "ticks": 37632,
          "time": 104.533464,
          "velocity": 0.6850393700787402
        },
        {
          "duration": 0.1333335000000062,
          "durationTicks": 48,
          "midi": 63,
          "name": "D#4",
          "ticks": 37632,
          "time": 104.533464,
          "velocity": 0.6850393700787402
        },
        {
          "duration": 0.133333499999992,
          "durationTicks": 48,
          "midi": 63,
          "name": "D#4",
          "ticks": 38112,
          "time": 105.866799,
          "velocity": 0.6850393700787402
        },
        {
          "duration": 0.133333499999992,
          "durationTicks": 48,
          "midi": 58,
          "name": "A#3",
          "ticks": 38112,
          "time": 105.866799,
          "velocity": 0.6850393700787402
        },
        {
          "duration": 0.133333499999992,
          "durationTicks": 48,
          "midi": 51,
          "name": "D#3",
          "ticks": 38112,
          "time": 105.866799,
          "velocity": 0.6850393700787402
        },
        {
          "duration": 0.1333335000000062,
          "durationTicks": 48,
          "midi": 51,
          "name": "D#3",
          "ticks": 38256,
          "time": 106.26679949999999,
          "velocity": 0.6850393700787402
        },
        {
          "duration": 0.1333335000000062,
          "durationTicks": 48,
          "midi": 58,
          "name": "A#3",
          "ticks": 38256,
          "time": 106.26679949999999,
          "velocity": 0.6850393700787402
        },
        {
          "duration": 0.1333335000000062,
          "durationTicks": 48,
          "midi": 63,
          "name": "D#4",
          "ticks": 38256,
          "time": 106.26679949999999,
          "velocity": 0.6850393700787402
        },
        {
          "duration": 0.1333335000000062,
          "durationTicks": 48,
          "midi": 51,
          "name": "D#3",
          "ticks": 38400,
          "time": 106.6668,
          "velocity": 0.6850393700787402
        },
        {
          "duration": 0.1333335000000062,
          "durationTicks": 48,
          "midi": 58,
          "name": "A#3",
          "ticks": 38400,
          "time": 106.6668,
          "velocity": 0.6850393700787402
        },
        {
          "duration": 0.1333335000000062,
          "durationTicks": 48,
          "midi": 63,
          "name": "D#4",
          "ticks": 38400,
          "time": 106.6668,
          "velocity": 0.6850393700787402
        },
        {
          "duration": 0.133333499999992,
          "durationTicks": 48,
          "midi": 63,
          "name": "D#4",
          "ticks": 38880,
          "time": 108.000135,
          "velocity": 0.6850393700787402
        },
        {
          "duration": 0.133333499999992,
          "durationTicks": 48,
          "midi": 58,
          "name": "A#3",
          "ticks": 38880,
          "time": 108.000135,
          "velocity": 0.6850393700787402
        },
        {
          "duration": 0.133333499999992,
          "durationTicks": 48,
          "midi": 51,
          "name": "D#3",
          "ticks": 38880,
          "time": 108.000135,
          "velocity": 0.6850393700787402
        },
        {
          "duration": 0.2666669999999982,
          "durationTicks": 96,
          "midi": 73,
          "name": "C#5",
          "ticks": 39168,
          "time": 108.800136,
          "velocity": 0.6850393700787402
        },
        {
          "duration": 0.2666669999999982,
          "durationTicks": 96,
          "midi": 66,
          "name": "F#4",
          "ticks": 39168,
          "time": 108.800136,
          "velocity": 0.6850393700787402
        },
        {
          "duration": 0.2666669999999982,
          "durationTicks": 96,
          "midi": 69,
          "name": "A4",
          "ticks": 39168,
          "time": 108.800136,
          "velocity": 0.6850393700787402
        },
        {
          "duration": 0.2666669999999982,
          "durationTicks": 96,
          "midi": 54,
          "name": "F#3",
          "ticks": 39168,
          "time": 108.800136,
          "velocity": 0.6850393700787402
        },
        {
          "duration": 0.2666669999999982,
          "durationTicks": 96,
          "midi": 59,
          "name": "B3",
          "ticks": 39168,
          "time": 108.800136,
          "velocity": 0.6850393700787402
        },
        {
          "duration": 0.2666669999999982,
          "durationTicks": 96,
          "midi": 58,
          "name": "A#3",
          "ticks": 39264,
          "time": 109.066803,
          "velocity": 0.6850393700787402
        },
        {
          "duration": 0.2666669999999982,
          "durationTicks": 96,
          "midi": 53,
          "name": "F3",
          "ticks": 39264,
          "time": 109.066803,
          "velocity": 0.6850393700787402
        },
        {
          "duration": 0.2666669999999982,
          "durationTicks": 96,
          "midi": 68,
          "name": "G#4",
          "ticks": 39264,
          "time": 109.066803,
          "velocity": 0.6850393700787402
        },
        {
          "duration": 0.2666669999999982,
          "durationTicks": 96,
          "midi": 65,
          "name": "F4",
          "ticks": 39264,
          "time": 109.066803,
          "velocity": 0.6850393700787402
        },
        {
          "duration": 0.2666669999999982,
          "durationTicks": 96,
          "midi": 73,
          "name": "C#5",
          "ticks": 39264,
          "time": 109.066803,
          "velocity": 0.6850393700787402
        },
        {
          "duration": 0.2666669999999982,
          "durationTicks": 96,
          "midi": 71,
          "name": "B4",
          "ticks": 39360,
          "time": 109.33346999999999,
          "velocity": 0.6850393700787402
        },
        {
          "duration": 0.2666669999999982,
          "durationTicks": 96,
          "midi": 57,
          "name": "A3",
          "ticks": 39360,
          "time": 109.33346999999999,
          "velocity": 0.6850393700787402
        },
        {
          "duration": 0.2666669999999982,
          "durationTicks": 96,
          "midi": 52,
          "name": "E3",
          "ticks": 39360,
          "time": 109.33346999999999,
          "velocity": 0.6850393700787402
        },
        {
          "duration": 0.2666669999999982,
          "durationTicks": 96,
          "midi": 64,
          "name": "E4",
          "ticks": 39360,
          "time": 109.33346999999999,
          "velocity": 0.6850393700787402
        },
        {
          "duration": 0.2666669999999982,
          "durationTicks": 96,
          "midi": 67,
          "name": "G4",
          "ticks": 39360,
          "time": 109.33346999999999,
          "velocity": 0.6850393700787402
        },
        {
          "duration": 0.2666670000000124,
          "durationTicks": 96,
          "midi": 71,
          "name": "B4",
          "ticks": 39456,
          "time": 109.60013699999999,
          "velocity": 0.6850393700787402
        },
        {
          "duration": 0.2666670000000124,
          "durationTicks": 96,
          "midi": 63,
          "name": "D#4",
          "ticks": 39456,
          "time": 109.60013699999999,
          "velocity": 0.6850393700787402
        },
        {
          "duration": 0.2666670000000124,
          "durationTicks": 96,
          "midi": 51,
          "name": "D#3",
          "ticks": 39456,
          "time": 109.60013699999999,
          "velocity": 0.6850393700787402
        },
        {
          "duration": 0.2666670000000124,
          "durationTicks": 96,
          "midi": 56,
          "name": "G#3",
          "ticks": 39456,
          "time": 109.60013699999999,
          "velocity": 0.6850393700787402
        },
        {
          "duration": 0.2666670000000124,
          "durationTicks": 96,
          "midi": 66,
          "name": "F#4",
          "ticks": 39456,
          "time": 109.60013699999999,
          "velocity": 0.6850393700787402
        },
        {
          "duration": 0.2666669999999982,
          "durationTicks": 96,
          "midi": 62,
          "name": "D4",
          "ticks": 39552,
          "time": 109.866804,
          "velocity": 0.6850393700787402
        },
        {
          "duration": 0.2666669999999982,
          "durationTicks": 96,
          "midi": 50,
          "name": "D3",
          "ticks": 39552,
          "time": 109.866804,
          "velocity": 0.6850393700787402
        },
        {
          "duration": 0.2666669999999982,
          "durationTicks": 96,
          "midi": 55,
          "name": "G3",
          "ticks": 39552,
          "time": 109.866804,
          "velocity": 0.6850393700787402
        },
        {
          "duration": 0.2666669999999982,
          "durationTicks": 96,
          "midi": 70,
          "name": "A#4",
          "ticks": 39552,
          "time": 109.866804,
          "velocity": 0.6850393700787402
        },
        {
          "duration": 0.2666669999999982,
          "durationTicks": 96,
          "midi": 65,
          "name": "F4",
          "ticks": 39552,
          "time": 109.866804,
          "velocity": 0.6850393700787402
        },
        {
          "duration": 0.2666669999999982,
          "durationTicks": 96,
          "midi": 49,
          "name": "C#3",
          "ticks": 39648,
          "time": 110.133471,
          "velocity": 0.6850393700787402
        },
        {
          "duration": 0.2666669999999982,
          "durationTicks": 96,
          "midi": 53,
          "name": "F3",
          "ticks": 39648,
          "time": 110.133471,
          "velocity": 0.6850393700787402
        },
        {
          "duration": 0.2666669999999982,
          "durationTicks": 96,
          "midi": 61,
          "name": "C#4",
          "ticks": 39648,
          "time": 110.133471,
          "velocity": 0.6850393700787402
        },
        {
          "duration": 0.2666669999999982,
          "durationTicks": 96,
          "midi": 69,
          "name": "A4",
          "ticks": 39648,
          "time": 110.133471,
          "velocity": 0.6850393700787402
        },
        {
          "duration": 0.2666669999999982,
          "durationTicks": 96,
          "midi": 65,
          "name": "F4",
          "ticks": 39648,
          "time": 110.133471,
          "velocity": 0.6850393700787402
        },
        {
          "duration": 0.2666669999999982,
          "durationTicks": 96,
          "midi": 48,
          "name": "C3",
          "ticks": 39744,
          "time": 110.400138,
          "velocity": 0.6850393700787402
        },
        {
          "duration": 0.2666669999999982,
          "durationTicks": 96,
          "midi": 64,
          "name": "E4",
          "ticks": 39744,
          "time": 110.400138,
          "velocity": 0.6850393700787402
        },
        {
          "duration": 0.2666669999999982,
          "durationTicks": 96,
          "midi": 52,
          "name": "E3",
          "ticks": 39744,
          "time": 110.400138,
          "velocity": 0.6850393700787402
        },
        {
          "duration": 0.2666669999999982,
          "durationTicks": 96,
          "midi": 59,
          "name": "B3",
          "ticks": 39744,
          "time": 110.400138,
          "velocity": 0.6850393700787402
        },
        {
          "duration": 0.2666669999999982,
          "durationTicks": 96,
          "midi": 67,
          "name": "G4",
          "ticks": 39744,
          "time": 110.400138,
          "velocity": 0.6850393700787402
        },
        {
          "duration": 0.04444449999999733,
          "durationTicks": 16,
          "midi": 66,
          "name": "F#4",
          "ticks": 39840,
          "time": 110.666805,
          "velocity": 0.5039370078740157
        },
        {
          "duration": 0.04444449999999733,
          "durationTicks": 16,
          "midi": 58,
          "name": "A#3",
          "ticks": 39840,
          "time": 110.666805,
          "velocity": 0.5039370078740157
        },
        {
          "duration": 0.04444449999999733,
          "durationTicks": 16,
          "midi": 51,
          "name": "D#3",
          "ticks": 39840,
          "time": 110.666805,
          "velocity": 0.5039370078740157
        },
        {
          "duration": 0.04444449999999733,
          "durationTicks": 16,
          "midi": 63,
          "name": "D#4",
          "ticks": 39840,
          "time": 110.666805,
          "velocity": 0.5039370078740157
        },
        {
          "duration": 0.04444449999999733,
          "durationTicks": 16,
          "midi": 47,
          "name": "B2",
          "ticks": 39840,
          "time": 110.666805,
          "velocity": 0.5039370078740157
        },
        {
          "duration": 0.04444449999999733,
          "durationTicks": 16,
          "midi": 65,
          "name": "F4",
          "ticks": 39856,
          "time": 110.7112495,
          "velocity": 0.4094488188976378
        },
        {
          "duration": 0.04444449999999733,
          "durationTicks": 16,
          "midi": 57,
          "name": "A3",
          "ticks": 39856,
          "time": 110.7112495,
          "velocity": 0.4094488188976378
        },
        {
          "duration": 0.04444449999999733,
          "durationTicks": 16,
          "midi": 50,
          "name": "D3",
          "ticks": 39856,
          "time": 110.7112495,
          "velocity": 0.4094488188976378
        },
        {
          "duration": 0.04444449999999733,
          "durationTicks": 16,
          "midi": 62,
          "name": "D4",
          "ticks": 39856,
          "time": 110.7112495,
          "velocity": 0.4094488188976378
        },
        {
          "duration": 0.04444449999999733,
          "durationTicks": 16,
          "midi": 46,
          "name": "A#2",
          "ticks": 39856,
          "time": 110.7112495,
          "velocity": 0.4094488188976378
        },
        {
          "duration": 0.04444449999999733,
          "durationTicks": 16,
          "midi": 64,
          "name": "E4",
          "ticks": 39872,
          "time": 110.75569399999999,
          "velocity": 0.3228346456692913
        },
        {
          "duration": 0.04444449999999733,
          "durationTicks": 16,
          "midi": 56,
          "name": "G#3",
          "ticks": 39872,
          "time": 110.75569399999999,
          "velocity": 0.3228346456692913
        },
        {
          "duration": 0.04444449999999733,
          "durationTicks": 16,
          "midi": 49,
          "name": "C#3",
          "ticks": 39872,
          "time": 110.75569399999999,
          "velocity": 0.3228346456692913
        },
        {
          "duration": 0.04444449999999733,
          "durationTicks": 16,
          "midi": 61,
          "name": "C#4",
          "ticks": 39872,
          "time": 110.75569399999999,
          "velocity": 0.3228346456692913
        },
        {
          "duration": 0.04444449999999733,
          "durationTicks": 16,
          "midi": 45,
          "name": "A2",
          "ticks": 39872,
          "time": 110.75569399999999,
          "velocity": 0.3228346456692913
        },
        {
          "duration": 0.044444500000011544,
          "durationTicks": 16,
          "midi": 63,
          "name": "D#4",
          "ticks": 39888,
          "time": 110.80013849999999,
          "velocity": 0.2283464566929134
        },
        {
          "duration": 0.044444500000011544,
          "durationTicks": 16,
          "midi": 55,
          "name": "G3",
          "ticks": 39888,
          "time": 110.80013849999999,
          "velocity": 0.2283464566929134
        },
        {
          "duration": 0.044444500000011544,
          "durationTicks": 16,
          "midi": 48,
          "name": "C3",
          "ticks": 39888,
          "time": 110.80013849999999,
          "velocity": 0.2283464566929134
        },
        {
          "duration": 0.044444500000011544,
          "durationTicks": 16,
          "midi": 60,
          "name": "C4",
          "ticks": 39888,
          "time": 110.80013849999999,
          "velocity": 0.2283464566929134
        },
        {
          "duration": 0.044444500000011544,
          "durationTicks": 16,
          "midi": 44,
          "name": "G#2",
          "ticks": 39888,
          "time": 110.80013849999999,
          "velocity": 0.2283464566929134
        },
        {
          "duration": 0.04444449999998312,
          "durationTicks": 16,
          "midi": 43,
          "name": "G2",
          "ticks": 39904,
          "time": 110.844583,
          "velocity": 0.13385826771653545
        },
        {
          "duration": 0.04444449999998312,
          "durationTicks": 16,
          "midi": 59,
          "name": "B3",
          "ticks": 39904,
          "time": 110.844583,
          "velocity": 0.13385826771653545
        },
        {
          "duration": 0.04444449999998312,
          "durationTicks": 16,
          "midi": 47,
          "name": "B2",
          "ticks": 39904,
          "time": 110.844583,
          "velocity": 0.13385826771653545
        },
        {
          "duration": 0.04444449999998312,
          "durationTicks": 16,
          "midi": 54,
          "name": "F#3",
          "ticks": 39904,
          "time": 110.844583,
          "velocity": 0.13385826771653545
        },
        {
          "duration": 0.04444449999998312,
          "durationTicks": 16,
          "midi": 62,
          "name": "D4",
          "ticks": 39904,
          "time": 110.844583,
          "velocity": 0.13385826771653545
        },
        {
          "duration": 0.044444500000011544,
          "durationTicks": 16,
          "midi": 42,
          "name": "F#2",
          "ticks": 39920,
          "time": 110.88902749999998,
          "velocity": 0.047244094488188976
        },
        {
          "duration": 0.044444500000011544,
          "durationTicks": 16,
          "midi": 58,
          "name": "A#3",
          "ticks": 39920,
          "time": 110.88902749999998,
          "velocity": 0.047244094488188976
        },
        {
          "duration": 0.044444500000011544,
          "durationTicks": 16,
          "midi": 46,
          "name": "A#2",
          "ticks": 39920,
          "time": 110.88902749999998,
          "velocity": 0.047244094488188976
        },
        {
          "duration": 0.044444500000011544,
          "durationTicks": 16,
          "midi": 53,
          "name": "F3",
          "ticks": 39920,
          "time": 110.88902749999998,
          "velocity": 0.047244094488188976
        },
        {
          "duration": 0.044444500000011544,
          "durationTicks": 16,
          "midi": 61,
          "name": "C#4",
          "ticks": 39920,
          "time": 110.88902749999998,
          "velocity": 0.047244094488188976
        },
        {
          "duration": 0.1333335000000062,
          "durationTicks": 48,
          "midi": 71,
          "name": "B4",
          "ticks": 39936,
          "time": 110.933472,
          "velocity": 0.5669291338582677
        },
        {
          "duration": 0.1333335000000062,
          "durationTicks": 48,
          "midi": 78,
          "name": "F#5",
          "ticks": 40032,
          "time": 111.200139,
          "velocity": 0.5669291338582677
        },
        {
          "duration": 0.1333335000000062,
          "durationTicks": 48,
          "midi": 75,
          "name": "D#5",
          "ticks": 40032,
          "time": 111.200139,
          "velocity": 0.5669291338582677
        },
        {
          "duration": 0.1333335000000062,
          "durationTicks": 48,
          "midi": 82,
          "name": "A#5",
          "ticks": 40032,
          "time": 111.200139,
          "velocity": 0.5669291338582677
        },
        {
          "duration": 0.1333335000000062,
          "durationTicks": 48,
          "midi": 75,
          "name": "D#5",
          "ticks": 40128,
          "time": 111.46680599999999,
          "velocity": 0.5669291338582677
        },
        {
          "duration": 0.1333335000000062,
          "durationTicks": 48,
          "midi": 82,
          "name": "A#5",
          "ticks": 40128,
          "time": 111.46680599999999,
          "velocity": 0.5669291338582677
        },
        {
          "duration": 0.1333335000000062,
          "durationTicks": 48,
          "midi": 78,
          "name": "F#5",
          "ticks": 40128,
          "time": 111.46680599999999,
          "velocity": 0.5669291338582677
        },
        {
          "duration": 0.1333335000000062,
          "durationTicks": 48,
          "midi": 71,
          "name": "B4",
          "ticks": 40224,
          "time": 111.73347299999999,
          "velocity": 0.5669291338582677
        },
        {
          "duration": 0.1333335000000062,
          "durationTicks": 48,
          "midi": 75,
          "name": "D#5",
          "ticks": 40320,
          "time": 112.00013999999999,
          "velocity": 0.5669291338582677
        },
        {
          "duration": 0.1333335000000062,
          "durationTicks": 48,
          "midi": 82,
          "name": "A#5",
          "ticks": 40320,
          "time": 112.00013999999999,
          "velocity": 0.5669291338582677
        },
        {
          "duration": 0.1333335000000062,
          "durationTicks": 48,
          "midi": 78,
          "name": "F#5",
          "ticks": 40320,
          "time": 112.00013999999999,
          "velocity": 0.5669291338582677
        },
        {
          "duration": 0.133333499999992,
          "durationTicks": 48,
          "midi": 75,
          "name": "D#5",
          "ticks": 40416,
          "time": 112.266807,
          "velocity": 0.5669291338582677
        },
        {
          "duration": 0.133333499999992,
          "durationTicks": 48,
          "midi": 82,
          "name": "A#5",
          "ticks": 40416,
          "time": 112.266807,
          "velocity": 0.5669291338582677
        },
        {
          "duration": 0.133333499999992,
          "durationTicks": 48,
          "midi": 78,
          "name": "F#5",
          "ticks": 40416,
          "time": 112.266807,
          "velocity": 0.5669291338582677
        },
        {
          "duration": 0.133333499999992,
          "durationTicks": 48,
          "midi": 70,
          "name": "A#4",
          "ticks": 40512,
          "time": 112.533474,
          "velocity": 0.5669291338582677
        },
        {
          "duration": 0.133333499999992,
          "durationTicks": 48,
          "midi": 81,
          "name": "A5",
          "ticks": 40608,
          "time": 112.800141,
          "velocity": 0.5669291338582677
        },
        {
          "duration": 0.133333499999992,
          "durationTicks": 48,
          "midi": 77,
          "name": "F5",
          "ticks": 40608,
          "time": 112.800141,
          "velocity": 0.5669291338582677
        },
        {
          "duration": 0.133333499999992,
          "durationTicks": 48,
          "midi": 74,
          "name": "D5",
          "ticks": 40608,
          "time": 112.800141,
          "velocity": 0.5669291338582677
        },
        {
          "duration": 0.1333335000000062,
          "durationTicks": 48,
          "midi": 77,
          "name": "F5",
          "ticks": 40704,
          "time": 113.066808,
          "velocity": 0.5669291338582677
        },
        {
          "duration": 0.1333335000000062,
          "durationTicks": 48,
          "midi": 81,
          "name": "A5",
          "ticks": 40704,
          "time": 113.066808,
          "velocity": 0.5669291338582677
        },
        {
          "duration": 0.1333335000000062,
          "durationTicks": 48,
          "midi": 74,
          "name": "D5",
          "ticks": 40704,
          "time": 113.066808,
          "velocity": 0.5669291338582677
        },
        {
          "duration": 0.1333335000000062,
          "durationTicks": 48,
          "midi": 70,
          "name": "A#4",
          "ticks": 40800,
          "time": 113.33347499999999,
          "velocity": 0.5669291338582677
        },
        {
          "duration": 0.1333335000000062,
          "durationTicks": 48,
          "midi": 74,
          "name": "D5",
          "ticks": 40896,
          "time": 113.60014199999999,
          "velocity": 0.5669291338582677
        },
        {
          "duration": 0.1333335000000062,
          "durationTicks": 48,
          "midi": 81,
          "name": "A5",
          "ticks": 40896,
          "time": 113.60014199999999,
          "velocity": 0.5669291338582677
        },
        {
          "duration": 0.1333335000000062,
          "durationTicks": 48,
          "midi": 77,
          "name": "F5",
          "ticks": 40896,
          "time": 113.60014199999999,
          "velocity": 0.5669291338582677
        },
        {
          "duration": 0.1333335000000062,
          "durationTicks": 48,
          "midi": 69,
          "name": "A4",
          "ticks": 40992,
          "time": 113.86680899999999,
          "velocity": 0.5669291338582677
        },
        {
          "duration": 0.133333499999992,
          "durationTicks": 48,
          "midi": 76,
          "name": "E5",
          "ticks": 41088,
          "time": 114.133476,
          "velocity": 0.5669291338582677
        },
        {
          "duration": 0.133333499999992,
          "durationTicks": 48,
          "midi": 73,
          "name": "C#5",
          "ticks": 41088,
          "time": 114.133476,
          "velocity": 0.5669291338582677
        },
        {
          "duration": 0.133333499999992,
          "durationTicks": 48,
          "midi": 80,
          "name": "G#5",
          "ticks": 41088,
          "time": 114.133476,
          "velocity": 0.5669291338582677
        },
        {
          "duration": 0.133333499999992,
          "durationTicks": 48,
          "midi": 73,
          "name": "C#5",
          "ticks": 41184,
          "time": 114.400143,
          "velocity": 0.5669291338582677
        },
        {
          "duration": 0.133333499999992,
          "durationTicks": 48,
          "midi": 80,
          "name": "G#5",
          "ticks": 41184,
          "time": 114.400143,
          "velocity": 0.5669291338582677
        },
        {
          "duration": 0.133333499999992,
          "durationTicks": 48,
          "midi": 76,
          "name": "E5",
          "ticks": 41184,
          "time": 114.400143,
          "velocity": 0.5669291338582677
        },
        {
          "duration": 0.133333499999992,
          "durationTicks": 48,
          "midi": 69,
          "name": "A4",
          "ticks": 41280,
          "time": 114.66681,
          "velocity": 0.5669291338582677
        },
        {
          "duration": 0.133333499999992,
          "durationTicks": 48,
          "midi": 73,
          "name": "C#5",
          "ticks": 41376,
          "time": 114.933477,
          "velocity": 0.5669291338582677
        },
        {
          "duration": 0.133333499999992,
          "durationTicks": 48,
          "midi": 80,
          "name": "G#5",
          "ticks": 41376,
          "time": 114.933477,
          "velocity": 0.5669291338582677
        },
        {
          "duration": 0.133333499999992,
          "durationTicks": 48,
          "midi": 76,
          "name": "E5",
          "ticks": 41376,
          "time": 114.933477,
          "velocity": 0.5669291338582677
        },
        {
          "duration": 0.1333335000000062,
          "durationTicks": 48,
          "midi": 76,
          "name": "E5",
          "ticks": 41472,
          "time": 115.200144,
          "velocity": 0.5669291338582677
        },
        {
          "duration": 0.1333335000000062,
          "durationTicks": 48,
          "midi": 80,
          "name": "G#5",
          "ticks": 41472,
          "time": 115.200144,
          "velocity": 0.5669291338582677
        },
        {
          "duration": 0.1333335000000062,
          "durationTicks": 48,
          "midi": 73,
          "name": "C#5",
          "ticks": 41472,
          "time": 115.200144,
          "velocity": 0.5669291338582677
        },
        {
          "duration": 0.1333335000000062,
          "durationTicks": 48,
          "midi": 68,
          "name": "G#4",
          "ticks": 41568,
          "time": 115.46681099999999,
          "velocity": 0.5669291338582677
        },
        {
          "duration": 0.1333335000000062,
          "durationTicks": 48,
          "midi": 72,
          "name": "C5",
          "ticks": 41664,
          "time": 115.73347799999999,
          "velocity": 0.5669291338582677
        },
        {
          "duration": 0.1333335000000062,
          "durationTicks": 48,
          "midi": 75,
          "name": "D#5",
          "ticks": 41664,
          "time": 115.73347799999999,
          "velocity": 0.5669291338582677
        },
        {
          "duration": 0.1333335000000062,
          "durationTicks": 48,
          "midi": 79,
          "name": "G5",
          "ticks": 41664,
          "time": 115.73347799999999,
          "velocity": 0.5669291338582677
        },
        {
          "duration": 0.1333335000000062,
          "durationTicks": 48,
          "midi": 72,
          "name": "C5",
          "ticks": 41760,
          "time": 116.00014499999999,
          "velocity": 0.5669291338582677
        },
        {
          "duration": 0.1333335000000062,
          "durationTicks": 48,
          "midi": 79,
          "name": "G5",
          "ticks": 41760,
          "time": 116.00014499999999,
          "velocity": 0.5669291338582677
        },
        {
          "duration": 0.1333335000000062,
          "durationTicks": 48,
          "midi": 75,
          "name": "D#5",
          "ticks": 41760,
          "time": 116.00014499999999,
          "velocity": 0.5669291338582677
        },
        {
          "duration": 0.1333335000000062,
          "durationTicks": 48,
          "midi": 68,
          "name": "G#4",
          "ticks": 41856,
          "time": 116.26681199999999,
          "velocity": 0.5669291338582677
        },
        {
          "duration": 0.2666669999999982,
          "durationTicks": 96,
          "midi": 63,
          "name": "D#4",
          "ticks": 42048,
          "time": 116.800146,
          "velocity": 0.6535433070866141
        },
        {
          "duration": 0.2666669999999982,
          "durationTicks": 96,
          "midi": 58,
          "name": "A#3",
          "ticks": 42048,
          "time": 116.800146,
          "velocity": 0.6535433070866141
        },
        {
          "duration": 0.2666669999999982,
          "durationTicks": 96,
          "midi": 56,
          "name": "G#3",
          "ticks": 42048,
          "time": 116.800146,
          "velocity": 0.6535433070866141
        },
        {
          "duration": 0.2666669999999982,
          "durationTicks": 96,
          "midi": 52,
          "name": "E3",
          "ticks": 42048,
          "time": 116.800146,
          "velocity": 0.6535433070866141
        },
        {
          "duration": 0.06666675000001021,
          "durationTicks": 24,
          "midi": 52,
          "name": "E3",
          "ticks": 42192,
          "time": 117.20014649999999,
          "velocity": 0.6535433070866141
        },
        {
          "duration": 0.06666675000001021,
          "durationTicks": 24,
          "midi": 56,
          "name": "G#3",
          "ticks": 42192,
          "time": 117.20014649999999,
          "velocity": 0.6535433070866141
        },
        {
          "duration": 0.06666675000001021,
          "durationTicks": 24,
          "midi": 58,
          "name": "A#3",
          "ticks": 42192,
          "time": 117.20014649999999,
          "velocity": 0.6535433070866141
        },
        {
          "duration": 0.06666675000001021,
          "durationTicks": 24,
          "midi": 63,
          "name": "D#4",
          "ticks": 42192,
          "time": 117.20014649999999,
          "velocity": 0.6535433070866141
        },
        {
          "duration": 0.066666749999996,
          "durationTicks": 24,
          "midi": 63,
          "name": "D#4",
          "ticks": 42288,
          "time": 117.4668135,
          "velocity": 0.6535433070866141
        },
        {
          "duration": 0.066666749999996,
          "durationTicks": 24,
          "midi": 58,
          "name": "A#3",
          "ticks": 42288,
          "time": 117.4668135,
          "velocity": 0.6535433070866141
        },
        {
          "duration": 0.066666749999996,
          "durationTicks": 24,
          "midi": 56,
          "name": "G#3",
          "ticks": 42288,
          "time": 117.4668135,
          "velocity": 0.6535433070866141
        },
        {
          "duration": 0.066666749999996,
          "durationTicks": 24,
          "midi": 52,
          "name": "E3",
          "ticks": 42288,
          "time": 117.4668135,
          "velocity": 0.6535433070866141
        },
        {
          "duration": 0.1333335000000062,
          "durationTicks": 48,
          "midi": 56,
          "name": "G#3",
          "ticks": 42336,
          "time": 117.60014699999999,
          "velocity": 0.6535433070866141
        },
        {
          "duration": 0.1333335000000062,
          "durationTicks": 48,
          "midi": 64,
          "name": "E4",
          "ticks": 42336,
          "time": 117.60014699999999,
          "velocity": 0.6535433070866141
        },
        {
          "duration": 0.1333335000000062,
          "durationTicks": 48,
          "midi": 53,
          "name": "F3",
          "ticks": 42336,
          "time": 117.60014699999999,
          "velocity": 0.6535433070866141
        },
        {
          "duration": 0.1333335000000062,
          "durationTicks": 48,
          "midi": 60,
          "name": "C4",
          "ticks": 42336,
          "time": 117.60014699999999,
          "velocity": 0.6535433070866141
        },
        {
          "duration": 0.1333335000000062,
          "durationTicks": 48,
          "midi": 64,
          "name": "E4",
          "ticks": 42432,
          "time": 117.86681399999999,
          "velocity": 0.6535433070866141
        },
        {
          "duration": 0.1333335000000062,
          "durationTicks": 48,
          "midi": 53,
          "name": "F3",
          "ticks": 42432,
          "time": 117.86681399999999,
          "velocity": 0.6535433070866141
        },
        {
          "duration": 0.1333335000000062,
          "durationTicks": 48,
          "midi": 60,
          "name": "C4",
          "ticks": 42432,
          "time": 117.86681399999999,
          "velocity": 0.6535433070866141
        },
        {
          "duration": 0.1333335000000062,
          "durationTicks": 48,
          "midi": 56,
          "name": "G#3",
          "ticks": 42432,
          "time": 117.86681399999999,
          "velocity": 0.6535433070866141
        },
        {
          "duration": 0.2666670000000124,
          "durationTicks": 96,
          "midi": 66,
          "name": "F#4",
          "ticks": 42528,
          "time": 118.13348099999999,
          "velocity": 0.6535433070866141
        },
        {
          "duration": 0.2666670000000124,
          "durationTicks": 96,
          "midi": 55,
          "name": "G3",
          "ticks": 42528,
          "time": 118.13348099999999,
          "velocity": 0.6535433070866141
        },
        {
          "duration": 0.2666670000000124,
          "durationTicks": 96,
          "midi": 61,
          "name": "C#4",
          "ticks": 42528,
          "time": 118.13348099999999,
          "velocity": 0.6535433070866141
        },
        {
          "duration": 0.2666670000000124,
          "durationTicks": 96,
          "midi": 59,
          "name": "B3",
          "ticks": 42528,
          "time": 118.13348099999999,
          "velocity": 0.6535433070866141
        },
        {
          "duration": 0.066666749999996,
          "durationTicks": 24,
          "midi": 59,
          "name": "B3",
          "ticks": 42672,
          "time": 118.5334815,
          "velocity": 0.6535433070866141
        },
        {
          "duration": 0.066666749999996,
          "durationTicks": 24,
          "midi": 66,
          "name": "F#4",
          "ticks": 42672,
          "time": 118.5334815,
          "velocity": 0.6535433070866141
        },
        {
          "duration": 0.066666749999996,
          "durationTicks": 24,
          "midi": 61,
          "name": "C#4",
          "ticks": 42672,
          "time": 118.5334815,
          "velocity": 0.6535433070866141
        },
        {
          "duration": 0.066666749999996,
          "durationTicks": 24,
          "midi": 55,
          "name": "G3",
          "ticks": 42672,
          "time": 118.5334815,
          "velocity": 0.6535433070866141
        },
        {
          "duration": 0.066666749999996,
          "durationTicks": 24,
          "midi": 55,
          "name": "G3",
          "ticks": 42768,
          "time": 118.80014849999999,
          "velocity": 0.6535433070866141
        },
        {
          "duration": 0.066666749999996,
          "durationTicks": 24,
          "midi": 61,
          "name": "C#4",
          "ticks": 42768,
          "time": 118.80014849999999,
          "velocity": 0.6535433070866141
        },
        {
          "duration": 0.066666749999996,
          "durationTicks": 24,
          "midi": 66,
          "name": "F#4",
          "ticks": 42768,
          "time": 118.80014849999999,
          "velocity": 0.6535433070866141
        },
        {
          "duration": 0.066666749999996,
          "durationTicks": 24,
          "midi": 59,
          "name": "B3",
          "ticks": 42768,
          "time": 118.80014849999999,
          "velocity": 0.6535433070866141
        },
        {
          "duration": 0.133333499999992,
          "durationTicks": 48,
          "midi": 63,
          "name": "D#4",
          "ticks": 42816,
          "time": 118.933482,
          "velocity": 0.6535433070866141
        },
        {
          "duration": 0.133333499999992,
          "durationTicks": 48,
          "midi": 67,
          "name": "G4",
          "ticks": 42816,
          "time": 118.933482,
          "velocity": 0.6535433070866141
        },
        {
          "duration": 0.133333499999992,
          "durationTicks": 48,
          "midi": 56,
          "name": "G#3",
          "ticks": 42816,
          "time": 118.933482,
          "velocity": 0.6535433070866141
        },
        {
          "duration": 0.133333499999992,
          "durationTicks": 48,
          "midi": 59,
          "name": "B3",
          "ticks": 42816,
          "time": 118.933482,
          "velocity": 0.6535433070866141
        },
        {
          "duration": 0.133333499999992,
          "durationTicks": 48,
          "midi": 59,
          "name": "B3",
          "ticks": 42912,
          "time": 119.200149,
          "velocity": 0.6535433070866141
        },
        {
          "duration": 0.133333499999992,
          "durationTicks": 48,
          "midi": 63,
          "name": "D#4",
          "ticks": 42912,
          "time": 119.200149,
          "velocity": 0.6535433070866141
        },
        {
          "duration": 0.133333499999992,
          "durationTicks": 48,
          "midi": 67,
          "name": "G4",
          "ticks": 42912,
          "time": 119.200149,
          "velocity": 0.6535433070866141
        },
        {
          "duration": 0.133333499999992,
          "durationTicks": 48,
          "midi": 56,
          "name": "G#3",
          "ticks": 42912,
          "time": 119.200149,
          "velocity": 0.6535433070866141
        },
        {
          "duration": 0.066666749999996,
          "durationTicks": 24,
          "midi": 69,
          "name": "A4",
          "ticks": 44592,
          "time": 123.8668215,
          "velocity": 0.7165354330708661
        },
        {
          "duration": 0.066666749999996,
          "durationTicks": 24,
          "midi": 65,
          "name": "F4",
          "ticks": 44592,
          "time": 123.8668215,
          "velocity": 0.7165354330708661
        },
        {
          "duration": 0.066666749999996,
          "durationTicks": 24,
          "midi": 57,
          "name": "A3",
          "ticks": 44592,
          "time": 123.8668215,
          "velocity": 0.7165354330708661
        },
        {
          "duration": 0.066666749999996,
          "durationTicks": 24,
          "midi": 61,
          "name": "C#4",
          "ticks": 44592,
          "time": 123.8668215,
          "velocity": 0.7165354330708661
        },
        {
          "duration": 0.066666749999996,
          "durationTicks": 24,
          "midi": 57,
          "name": "A3",
          "ticks": 44640,
          "time": 124.00015499999999,
          "velocity": 0.7165354330708661
        },
        {
          "duration": 0.066666749999996,
          "durationTicks": 24,
          "midi": 61,
          "name": "C#4",
          "ticks": 44640,
          "time": 124.00015499999999,
          "velocity": 0.7165354330708661
        },
        {
          "duration": 0.066666749999996,
          "durationTicks": 24,
          "midi": 65,
          "name": "F4",
          "ticks": 44640,
          "time": 124.00015499999999,
          "velocity": 0.7165354330708661
        },
        {
          "duration": 0.066666749999996,
          "durationTicks": 24,
          "midi": 69,
          "name": "A4",
          "ticks": 44640,
          "time": 124.00015499999999,
          "velocity": 0.7165354330708661
        },
        {
          "duration": 0.06666675000001021,
          "durationTicks": 24,
          "midi": 69,
          "name": "A4",
          "ticks": 44736,
          "time": 124.26682199999999,
          "velocity": 0.7165354330708661
        },
        {
          "duration": 0.06666675000001021,
          "durationTicks": 24,
          "midi": 65,
          "name": "F4",
          "ticks": 44736,
          "time": 124.26682199999999,
          "velocity": 0.7165354330708661
        },
        {
          "duration": 0.06666675000001021,
          "durationTicks": 24,
          "midi": 57,
          "name": "A3",
          "ticks": 44736,
          "time": 124.26682199999999,
          "velocity": 0.7165354330708661
        },
        {
          "duration": 0.06666675000001021,
          "durationTicks": 24,
          "midi": 61,
          "name": "C#4",
          "ticks": 44736,
          "time": 124.26682199999999,
          "velocity": 0.7165354330708661
        },
        {
          "duration": 0.066666749999996,
          "durationTicks": 24,
          "midi": 57,
          "name": "A3",
          "ticks": 44784,
          "time": 124.4001555,
          "velocity": 0.7165354330708661
        },
        {
          "duration": 0.066666749999996,
          "durationTicks": 24,
          "midi": 61,
          "name": "C#4",
          "ticks": 44784,
          "time": 124.4001555,
          "velocity": 0.7165354330708661
        },
        {
          "duration": 0.066666749999996,
          "durationTicks": 24,
          "midi": 65,
          "name": "F4",
          "ticks": 44784,
          "time": 124.4001555,
          "velocity": 0.7165354330708661
        },
        {
          "duration": 0.066666749999996,
          "durationTicks": 24,
          "midi": 69,
          "name": "A4",
          "ticks": 44784,
          "time": 124.4001555,
          "velocity": 0.7165354330708661
        },
        {
          "duration": 0.066666749999996,
          "durationTicks": 24,
          "midi": 69,
          "name": "A4",
          "ticks": 44880,
          "time": 124.6668225,
          "velocity": 0.7165354330708661
        },
        {
          "duration": 0.066666749999996,
          "durationTicks": 24,
          "midi": 65,
          "name": "F4",
          "ticks": 44880,
          "time": 124.6668225,
          "velocity": 0.7165354330708661
        },
        {
          "duration": 0.066666749999996,
          "durationTicks": 24,
          "midi": 57,
          "name": "A3",
          "ticks": 44880,
          "time": 124.6668225,
          "velocity": 0.7165354330708661
        },
        {
          "duration": 0.066666749999996,
          "durationTicks": 24,
          "midi": 61,
          "name": "C#4",
          "ticks": 44880,
          "time": 124.6668225,
          "velocity": 0.7165354330708661
        },
        {
          "duration": 0.066666749999996,
          "durationTicks": 24,
          "midi": 61,
          "name": "C#4",
          "ticks": 44976,
          "time": 124.9334895,
          "velocity": 0.7165354330708661
        },
        {
          "duration": 0.066666749999996,
          "durationTicks": 24,
          "midi": 57,
          "name": "A3",
          "ticks": 44976,
          "time": 124.9334895,
          "velocity": 0.7165354330708661
        },
        {
          "duration": 0.066666749999996,
          "durationTicks": 24,
          "midi": 65,
          "name": "F4",
          "ticks": 44976,
          "time": 124.9334895,
          "velocity": 0.7165354330708661
        },
        {
          "duration": 0.066666749999996,
          "durationTicks": 24,
          "midi": 68,
          "name": "G#4",
          "ticks": 44976,
          "time": 124.9334895,
          "velocity": 0.7165354330708661
        },
        {
          "duration": 0.066666749999996,
          "durationTicks": 24,
          "midi": 69,
          "name": "A4",
          "ticks": 45024,
          "time": 125.066823,
          "velocity": 0.7165354330708661
        },
        {
          "duration": 0.066666749999996,
          "durationTicks": 24,
          "midi": 65,
          "name": "F4",
          "ticks": 45024,
          "time": 125.066823,
          "velocity": 0.7165354330708661
        },
        {
          "duration": 0.066666749999996,
          "durationTicks": 24,
          "midi": 57,
          "name": "A3",
          "ticks": 45024,
          "time": 125.066823,
          "velocity": 0.7165354330708661
        },
        {
          "duration": 0.066666749999996,
          "durationTicks": 24,
          "midi": 61,
          "name": "C#4",
          "ticks": 45024,
          "time": 125.066823,
          "velocity": 0.7165354330708661
        },
        {
          "duration": 0.066666749999996,
          "durationTicks": 24,
          "midi": 68,
          "name": "G#4",
          "ticks": 45072,
          "time": 125.20015649999999,
          "velocity": 0.7165354330708661
        },
        {
          "duration": 0.066666749999996,
          "durationTicks": 24,
          "midi": 65,
          "name": "F4",
          "ticks": 45072,
          "time": 125.20015649999999,
          "velocity": 0.7165354330708661
        },
        {
          "duration": 0.066666749999996,
          "durationTicks": 24,
          "midi": 61,
          "name": "C#4",
          "ticks": 45072,
          "time": 125.20015649999999,
          "velocity": 0.7165354330708661
        },
        {
          "duration": 0.066666749999996,
          "durationTicks": 24,
          "midi": 57,
          "name": "A3",
          "ticks": 45072,
          "time": 125.20015649999999,
          "velocity": 0.7165354330708661
        },
        {
          "duration": 0.066666749999996,
          "durationTicks": 24,
          "midi": 69,
          "name": "A4",
          "ticks": 45120,
          "time": 125.33349,
          "velocity": 0.7165354330708661
        },
        {
          "duration": 0.066666749999996,
          "durationTicks": 24,
          "midi": 65,
          "name": "F4",
          "ticks": 45120,
          "time": 125.33349,
          "velocity": 0.7165354330708661
        },
        {
          "duration": 0.066666749999996,
          "durationTicks": 24,
          "midi": 61,
          "name": "C#4",
          "ticks": 45120,
          "time": 125.33349,
          "velocity": 0.7165354330708661
        },
        {
          "duration": 0.066666749999996,
          "durationTicks": 24,
          "midi": 57,
          "name": "A3",
          "ticks": 45120,
          "time": 125.33349,
          "velocity": 0.7165354330708661
        },
        {
          "duration": 0.5333339999999964,
          "durationTicks": 192,
          "midi": 57,
          "name": "A3",
          "ticks": 45312,
          "time": 125.866824,
          "velocity": 0.7165354330708661
        },
        {
          "duration": 0.5333339999999964,
          "durationTicks": 192,
          "midi": 61,
          "name": "C#4",
          "ticks": 45312,
          "time": 125.866824,
          "velocity": 0.7165354330708661
        },
        {
          "duration": 0.5333339999999964,
          "durationTicks": 192,
          "midi": 69,
          "name": "A4",
          "ticks": 45312,
          "time": 125.866824,
          "velocity": 0.7165354330708661
        },
        {
          "duration": 0.5333339999999964,
          "durationTicks": 192,
          "midi": 66,
          "name": "F#4",
          "ticks": 45312,
          "time": 125.866824,
          "velocity": 0.7165354330708661
        },
        {
          "duration": 0.5333340000000106,
          "durationTicks": 192,
          "midi": 65,
          "name": "F4",
          "ticks": 45504,
          "time": 126.40015799999999,
          "velocity": 0.7165354330708661
        },
        {
          "duration": 0.5333340000000106,
          "durationTicks": 192,
          "midi": 68,
          "name": "G#4",
          "ticks": 45504,
          "time": 126.40015799999999,
          "velocity": 0.7165354330708661
        },
        {
          "duration": 0.5333340000000106,
          "durationTicks": 192,
          "midi": 61,
          "name": "C#4",
          "ticks": 45504,
          "time": 126.40015799999999,
          "velocity": 0.7165354330708661
        },
        {
          "duration": 0.5333340000000106,
          "durationTicks": 192,
          "midi": 56,
          "name": "G#3",
          "ticks": 45504,
          "time": 126.40015799999999,
          "velocity": 0.7165354330708661
        },
        {
          "duration": 0.5333339999999964,
          "durationTicks": 192,
          "midi": 64,
          "name": "E4",
          "ticks": 45696,
          "time": 126.933492,
          "velocity": 0.7165354330708661
        },
        {
          "duration": 0.5333339999999964,
          "durationTicks": 192,
          "midi": 61,
          "name": "C#4",
          "ticks": 45696,
          "time": 126.933492,
          "velocity": 0.7165354330708661
        },
        {
          "duration": 0.5333339999999964,
          "durationTicks": 192,
          "midi": 66,
          "name": "F#4",
          "ticks": 45696,
          "time": 126.933492,
          "velocity": 0.7165354330708661
        },
        {
          "duration": 0.5333339999999964,
          "durationTicks": 192,
          "midi": 69,
          "name": "A4",
          "ticks": 45696,
          "time": 126.933492,
          "velocity": 0.7165354330708661
        },
        {
          "duration": 0.5333339999999964,
          "durationTicks": 192,
          "midi": 54,
          "name": "F#3",
          "ticks": 45696,
          "time": 126.933492,
          "velocity": 0.7165354330708661
        },
        {
          "duration": 0.5333339999999964,
          "durationTicks": 192,
          "midi": 57,
          "name": "A3",
          "ticks": 45888,
          "time": 127.466826,
          "velocity": 0.7165354330708661
        },
        {
          "duration": 0.5333339999999964,
          "durationTicks": 192,
          "midi": 67,
          "name": "G4",
          "ticks": 45888,
          "time": 127.466826,
          "velocity": 0.7165354330708661
        },
        {
          "duration": 0.5333339999999964,
          "durationTicks": 192,
          "midi": 64,
          "name": "E4",
          "ticks": 45888,
          "time": 127.466826,
          "velocity": 0.7165354330708661
        },
        {
          "duration": 0.5333339999999964,
          "durationTicks": 192,
          "midi": 61,
          "name": "C#4",
          "ticks": 45888,
          "time": 127.466826,
          "velocity": 0.7165354330708661
        },
        {
          "duration": 0.5333339999999964,
          "durationTicks": 192,
          "midi": 69,
          "name": "A4",
          "ticks": 45888,
          "time": 127.466826,
          "velocity": 0.7165354330708661
        },
        {
          "duration": 0.5333339999999964,
          "durationTicks": 192,
          "midi": 61,
          "name": "C#4",
          "ticks": 46080,
          "time": 128.00016,
          "velocity": 0.7165354330708661
        },
        {
          "duration": 0.5333339999999964,
          "durationTicks": 192,
          "midi": 66,
          "name": "F#4",
          "ticks": 46080,
          "time": 128.00016,
          "velocity": 0.7165354330708661
        },
        {
          "duration": 0.5333339999999964,
          "durationTicks": 192,
          "midi": 69,
          "name": "A4",
          "ticks": 46080,
          "time": 128.00016,
          "velocity": 0.7165354330708661
        },
        {
          "duration": 0.5333339999999964,
          "durationTicks": 192,
          "midi": 57,
          "name": "A3",
          "ticks": 46080,
          "time": 128.00016,
          "velocity": 0.7165354330708661
        },
        {
          "duration": 0.5333339999999964,
          "durationTicks": 192,
          "midi": 56,
          "name": "G#3",
          "ticks": 46272,
          "time": 128.533494,
          "velocity": 0.7165354330708661
        },
        {
          "duration": 0.5333339999999964,
          "durationTicks": 192,
          "midi": 68,
          "name": "G#4",
          "ticks": 46272,
          "time": 128.533494,
          "velocity": 0.7165354330708661
        },
        {
          "duration": 0.5333339999999964,
          "durationTicks": 192,
          "midi": 61,
          "name": "C#4",
          "ticks": 46272,
          "time": 128.533494,
          "velocity": 0.7165354330708661
        },
        {
          "duration": 0.5333339999999964,
          "durationTicks": 192,
          "midi": 65,
          "name": "F4",
          "ticks": 46272,
          "time": 128.533494,
          "velocity": 0.7165354330708661
        },
        {
          "duration": 0.2666670000000124,
          "durationTicks": 96,
          "midi": 66,
          "name": "F#4",
          "ticks": 46464,
          "time": 129.066828,
          "velocity": 0.7165354330708661
        },
        {
          "duration": 0.2666670000000124,
          "durationTicks": 96,
          "midi": 69,
          "name": "A4",
          "ticks": 46464,
          "time": 129.066828,
          "velocity": 0.7165354330708661
        },
        {
          "duration": 0.2666670000000124,
          "durationTicks": 96,
          "midi": 61,
          "name": "C#4",
          "ticks": 46464,
          "time": 129.066828,
          "velocity": 0.7165354330708661
        },
        {
          "duration": 0.2666670000000124,
          "durationTicks": 96,
          "midi": 54,
          "name": "F#3",
          "ticks": 46464,
          "time": 129.066828,
          "velocity": 0.7165354330708661
        },
        {
          "duration": 0.266666999999984,
          "durationTicks": 96,
          "midi": 53,
          "name": "F3",
          "ticks": 46560,
          "time": 129.333495,
          "velocity": 0.7165354330708661
        },
        {
          "duration": 0.266666999999984,
          "durationTicks": 96,
          "midi": 69,
          "name": "A4",
          "ticks": 46560,
          "time": 129.333495,
          "velocity": 0.7165354330708661
        },
        {
          "duration": 0.266666999999984,
          "durationTicks": 96,
          "midi": 65,
          "name": "F4",
          "ticks": 46560,
          "time": 129.333495,
          "velocity": 0.7165354330708661
        },
        {
          "duration": 0.266666999999984,
          "durationTicks": 96,
          "midi": 61,
          "name": "C#4",
          "ticks": 46560,
          "time": 129.333495,
          "velocity": 0.7165354330708661
        },
        {
          "duration": 0.2666670000000124,
          "durationTicks": 96,
          "midi": 61,
          "name": "C#4",
          "ticks": 46656,
          "time": 129.60016199999998,
          "velocity": 0.7165354330708661
        },
        {
          "duration": 0.2666670000000124,
          "durationTicks": 96,
          "midi": 69,
          "name": "A4",
          "ticks": 46656,
          "time": 129.60016199999998,
          "velocity": 0.7165354330708661
        },
        {
          "duration": 0.2666670000000124,
          "durationTicks": 96,
          "midi": 64,
          "name": "E4",
          "ticks": 46656,
          "time": 129.60016199999998,
          "velocity": 0.7165354330708661
        },
        {
          "duration": 0.2666670000000124,
          "durationTicks": 96,
          "midi": 52,
          "name": "E3",
          "ticks": 46656,
          "time": 129.60016199999998,
          "velocity": 0.7165354330708661
        },
        {
          "duration": 0.266666999999984,
          "durationTicks": 96,
          "midi": 69,
          "name": "A4",
          "ticks": 46752,
          "time": 129.866829,
          "velocity": 0.7165354330708661
        },
        {
          "duration": 0.266666999999984,
          "durationTicks": 96,
          "midi": 61,
          "name": "C#4",
          "ticks": 46752,
          "time": 129.866829,
          "velocity": 0.7165354330708661
        },
        {
          "duration": 0.266666999999984,
          "durationTicks": 96,
          "midi": 65,
          "name": "F4",
          "ticks": 46752,
          "time": 129.866829,
          "velocity": 0.7165354330708661
        },
        {
          "duration": 0.266666999999984,
          "durationTicks": 96,
          "midi": 57,
          "name": "A3",
          "ticks": 46752,
          "time": 129.866829,
          "velocity": 0.7165354330708661
        },
        {
          "duration": 0.5333340000000248,
          "durationTicks": 192,
          "midi": 66,
          "name": "F#4",
          "ticks": 46848,
          "time": 130.13349599999998,
          "velocity": 0.7165354330708661
        },
        {
          "duration": 0.5333340000000248,
          "durationTicks": 192,
          "midi": 69,
          "name": "A4",
          "ticks": 46848,
          "time": 130.13349599999998,
          "velocity": 0.7165354330708661
        },
        {
          "duration": 0.5333340000000248,
          "durationTicks": 192,
          "midi": 61,
          "name": "C#4",
          "ticks": 46848,
          "time": 130.13349599999998,
          "velocity": 0.7165354330708661
        },
        {
          "duration": 0.5333340000000248,
          "durationTicks": 192,
          "midi": 57,
          "name": "A3",
          "ticks": 46848,
          "time": 130.13349599999998,
          "velocity": 0.7165354330708661
        },
        {
          "duration": 0.5333339999999964,
          "durationTicks": 192,
          "midi": 65,
          "name": "F4",
          "ticks": 47040,
          "time": 130.66683,
          "velocity": 0.7165354330708661
        },
        {
          "duration": 0.5333339999999964,
          "durationTicks": 192,
          "midi": 61,
          "name": "C#4",
          "ticks": 47040,
          "time": 130.66683,
          "velocity": 0.7165354330708661
        },
        {
          "duration": 0.5333339999999964,
          "durationTicks": 192,
          "midi": 68,
          "name": "G#4",
          "ticks": 47040,
          "time": 130.66683,
          "velocity": 0.7165354330708661
        },
        {
          "duration": 0.5333339999999964,
          "durationTicks": 192,
          "midi": 56,
          "name": "G#3",
          "ticks": 47040,
          "time": 130.66683,
          "velocity": 0.7165354330708661
        },
        {
          "duration": 0.5333339999999964,
          "durationTicks": 192,
          "midi": 64,
          "name": "E4",
          "ticks": 47232,
          "time": 131.200164,
          "velocity": 0.7165354330708661
        },
        {
          "duration": 0.5333339999999964,
          "durationTicks": 192,
          "midi": 61,
          "name": "C#4",
          "ticks": 47232,
          "time": 131.200164,
          "velocity": 0.7165354330708661
        },
        {
          "duration": 0.5333339999999964,
          "durationTicks": 192,
          "midi": 66,
          "name": "F#4",
          "ticks": 47232,
          "time": 131.200164,
          "velocity": 0.7165354330708661
        },
        {
          "duration": 0.5333339999999964,
          "durationTicks": 192,
          "midi": 69,
          "name": "A4",
          "ticks": 47232,
          "time": 131.200164,
          "velocity": 0.7165354330708661
        },
        {
          "duration": 0.5333339999999964,
          "durationTicks": 192,
          "midi": 54,
          "name": "F#3",
          "ticks": 47232,
          "time": 131.200164,
          "velocity": 0.7165354330708661
        },
        {
          "duration": 0.266666999999984,
          "durationTicks": 96,
          "midi": 57,
          "name": "A3",
          "ticks": 47424,
          "time": 131.733498,
          "velocity": 0.7165354330708661
        },
        {
          "duration": 0.266666999999984,
          "durationTicks": 96,
          "midi": 64,
          "name": "E4",
          "ticks": 47424,
          "time": 131.733498,
          "velocity": 0.7165354330708661
        },
        {
          "duration": 0.266666999999984,
          "durationTicks": 96,
          "midi": 61,
          "name": "C#4",
          "ticks": 47424,
          "time": 131.733498,
          "velocity": 0.7165354330708661
        },
        {
          "duration": 0.266666999999984,
          "durationTicks": 96,
          "midi": 69,
          "name": "A4",
          "ticks": 47424,
          "time": 131.733498,
          "velocity": 0.7165354330708661
        },
        {
          "duration": 0.2666670000000124,
          "durationTicks": 96,
          "midi": 58,
          "name": "A#3",
          "ticks": 47520,
          "time": 132.00016499999998,
          "velocity": 0.7165354330708661
        },
        {
          "duration": 0.2666670000000124,
          "durationTicks": 96,
          "midi": 64,
          "name": "E4",
          "ticks": 47520,
          "time": 132.00016499999998,
          "velocity": 0.7165354330708661
        },
        {
          "duration": 0.2666670000000124,
          "durationTicks": 96,
          "midi": 61,
          "name": "C#4",
          "ticks": 47520,
          "time": 132.00016499999998,
          "velocity": 0.7165354330708661
        },
        {
          "duration": 0.2666670000000124,
          "durationTicks": 96,
          "midi": 70,
          "name": "A#4",
          "ticks": 47520,
          "time": 132.00016499999998,
          "velocity": 0.7165354330708661
        },
        {
          "duration": 0.5333339999999964,
          "durationTicks": 192,
          "midi": 66,
          "name": "F#4",
          "ticks": 47616,
          "time": 132.266832,
          "velocity": 0.7165354330708661
        },
        {
          "duration": 0.5333339999999964,
          "durationTicks": 192,
          "midi": 62,
          "name": "D4",
          "ticks": 47616,
          "time": 132.266832,
          "velocity": 0.7165354330708661
        },
        {
          "duration": 0.5333339999999964,
          "durationTicks": 192,
          "midi": 71,
          "name": "B4",
          "ticks": 47616,
          "time": 132.266832,
          "velocity": 0.7165354330708661
        },
        {
          "duration": 0.5333339999999964,
          "durationTicks": 192,
          "midi": 59,
          "name": "B3",
          "ticks": 47616,
          "time": 132.266832,
          "velocity": 0.7165354330708661
        },
        {
          "duration": 0.5333339999999964,
          "durationTicks": 192,
          "midi": 56,
          "name": "G#3",
          "ticks": 47808,
          "time": 132.800166,
          "velocity": 0.7165354330708661
        },
        {
          "duration": 0.5333339999999964,
          "durationTicks": 192,
          "midi": 72,
          "name": "C5",
          "ticks": 47808,
          "time": 132.800166,
          "velocity": 0.7165354330708661
        },
        {
          "duration": 0.5333339999999964,
          "durationTicks": 192,
          "midi": 68,
          "name": "G#4",
          "ticks": 47808,
          "time": 132.800166,
          "velocity": 0.7165354330708661
        },
        {
          "duration": 0.5333339999999964,
          "durationTicks": 192,
          "midi": 63,
          "name": "D#4",
          "ticks": 47808,
          "time": 132.800166,
          "velocity": 0.7165354330708661
        },
        {
          "duration": 0.13333350000002042,
          "durationTicks": 48,
          "midi": 56,
          "name": "G#3",
          "ticks": 48000,
          "time": 133.3335,
          "velocity": 0.7165354330708661
        },
        {
          "duration": 0.13333350000002042,
          "durationTicks": 48,
          "midi": 61,
          "name": "C#4",
          "ticks": 48000,
          "time": 133.3335,
          "velocity": 0.7165354330708661
        },
        {
          "duration": 0.13333350000002042,
          "durationTicks": 48,
          "midi": 68,
          "name": "G#4",
          "ticks": 48000,
          "time": 133.3335,
          "velocity": 0.7165354330708661
        },
        {
          "duration": 0.13333350000002042,
          "durationTicks": 48,
          "midi": 73,
          "name": "C#5",
          "ticks": 48000,
          "time": 133.3335,
          "velocity": 0.7165354330708661
        },
        {
          "duration": 0.13333350000002042,
          "durationTicks": 48,
          "midi": 66,
          "name": "F#4",
          "ticks": 48000,
          "time": 133.3335,
          "velocity": 0.7165354330708661
        },
        {
          "duration": 0.133333499999992,
          "durationTicks": 48,
          "midi": 56,
          "name": "G#3",
          "ticks": 48096,
          "time": 133.600167,
          "velocity": 0.7165354330708661
        },
        {
          "duration": 0.133333499999992,
          "durationTicks": 48,
          "midi": 61,
          "name": "C#4",
          "ticks": 48096,
          "time": 133.600167,
          "velocity": 0.7165354330708661
        },
        {
          "duration": 0.133333499999992,
          "durationTicks": 48,
          "midi": 68,
          "name": "G#4",
          "ticks": 48096,
          "time": 133.600167,
          "velocity": 0.7165354330708661
        },
        {
          "duration": 0.133333499999992,
          "durationTicks": 48,
          "midi": 73,
          "name": "C#5",
          "ticks": 48096,
          "time": 133.600167,
          "velocity": 0.7165354330708661
        },
        {
          "duration": 0.133333499999992,
          "durationTicks": 48,
          "midi": 66,
          "name": "F#4",
          "ticks": 48096,
          "time": 133.600167,
          "velocity": 0.7165354330708661
        },
        {
          "duration": 0.13333350000002042,
          "durationTicks": 48,
          "midi": 56,
          "name": "G#3",
          "ticks": 48192,
          "time": 133.86683399999998,
          "velocity": 0.7165354330708661
        },
        {
          "duration": 0.13333350000002042,
          "durationTicks": 48,
          "midi": 73,
          "name": "C#5",
          "ticks": 48192,
          "time": 133.86683399999998,
          "velocity": 0.7165354330708661
        },
        {
          "duration": 0.13333350000002042,
          "durationTicks": 48,
          "midi": 68,
          "name": "G#4",
          "ticks": 48192,
          "time": 133.86683399999998,
          "velocity": 0.7165354330708661
        },
        {
          "duration": 0.13333350000002042,
          "durationTicks": 48,
          "midi": 61,
          "name": "C#4",
          "ticks": 48192,
          "time": 133.86683399999998,
          "velocity": 0.7165354330708661
        },
        {
          "duration": 0.13333350000002042,
          "durationTicks": 48,
          "midi": 65,
          "name": "F4",
          "ticks": 48192,
          "time": 133.86683399999998,
          "velocity": 0.7165354330708661
        },
        {
          "duration": 0.5333339999999964,
          "durationTicks": 192,
          "midi": 57,
          "name": "A3",
          "ticks": 48384,
          "time": 134.400168,
          "velocity": 0.7165354330708661
        },
        {
          "duration": 0.5333339999999964,
          "durationTicks": 192,
          "midi": 69,
          "name": "A4",
          "ticks": 48384,
          "time": 134.400168,
          "velocity": 0.7165354330708661
        },
        {
          "duration": 0.5333339999999964,
          "durationTicks": 192,
          "midi": 66,
          "name": "F#4",
          "ticks": 48384,
          "time": 134.400168,
          "velocity": 0.7165354330708661
        },
        {
          "duration": 0.5333339999999964,
          "durationTicks": 192,
          "midi": 61,
          "name": "C#4",
          "ticks": 48384,
          "time": 134.400168,
          "velocity": 0.7165354330708661
        },
        {
          "duration": 0.5333339999999964,
          "durationTicks": 192,
          "midi": 56,
          "name": "G#3",
          "ticks": 48576,
          "time": 134.933502,
          "velocity": 0.7165354330708661
        },
        {
          "duration": 0.5333339999999964,
          "durationTicks": 192,
          "midi": 61,
          "name": "C#4",
          "ticks": 48576,
          "time": 134.933502,
          "velocity": 0.7165354330708661
        },
        {
          "duration": 0.5333339999999964,
          "durationTicks": 192,
          "midi": 68,
          "name": "G#4",
          "ticks": 48576,
          "time": 134.933502,
          "velocity": 0.7165354330708661
        },
        {
          "duration": 0.5333339999999964,
          "durationTicks": 192,
          "midi": 65,
          "name": "F4",
          "ticks": 48576,
          "time": 134.933502,
          "velocity": 0.7165354330708661
        },
        {
          "duration": 0.5333339999999964,
          "durationTicks": 192,
          "midi": 64,
          "name": "E4",
          "ticks": 48768,
          "time": 135.466836,
          "velocity": 0.7165354330708661
        },
        {
          "duration": 0.5333339999999964,
          "durationTicks": 192,
          "midi": 61,
          "name": "C#4",
          "ticks": 48768,
          "time": 135.466836,
          "velocity": 0.7165354330708661
        },
        {
          "duration": 0.5333339999999964,
          "durationTicks": 192,
          "midi": 66,
          "name": "F#4",
          "ticks": 48768,
          "time": 135.466836,
          "velocity": 0.7165354330708661
        },
        {
          "duration": 0.5333339999999964,
          "durationTicks": 192,
          "midi": 69,
          "name": "A4",
          "ticks": 48768,
          "time": 135.466836,
          "velocity": 0.7165354330708661
        },
        {
          "duration": 0.5333339999999964,
          "durationTicks": 192,
          "midi": 54,
          "name": "F#3",
          "ticks": 48768,
          "time": 135.466836,
          "velocity": 0.7165354330708661
        },
        {
          "duration": 0.5333339999999964,
          "durationTicks": 192,
          "midi": 69,
          "name": "A4",
          "ticks": 48960,
          "time": 136.00017,
          "velocity": 0.7165354330708661
        },
        {
          "duration": 0.5333339999999964,
          "durationTicks": 192,
          "midi": 61,
          "name": "C#4",
          "ticks": 48960,
          "time": 136.00017,
          "velocity": 0.7165354330708661
        },
        {
          "duration": 0.5333339999999964,
          "durationTicks": 192,
          "midi": 64,
          "name": "E4",
          "ticks": 48960,
          "time": 136.00017,
          "velocity": 0.7165354330708661
        },
        {
          "duration": 0.5333339999999964,
          "durationTicks": 192,
          "midi": 67,
          "name": "G4",
          "ticks": 48960,
          "time": 136.00017,
          "velocity": 0.7165354330708661
        },
        {
          "duration": 0.5333339999999964,
          "durationTicks": 192,
          "midi": 57,
          "name": "A3",
          "ticks": 48960,
          "time": 136.00017,
          "velocity": 0.7165354330708661
        },
        {
          "duration": 0.5333339999999964,
          "durationTicks": 192,
          "midi": 61,
          "name": "C#4",
          "ticks": 49152,
          "time": 136.533504,
          "velocity": 0.7165354330708661
        },
        {
          "duration": 0.5333339999999964,
          "durationTicks": 192,
          "midi": 66,
          "name": "F#4",
          "ticks": 49152,
          "time": 136.533504,
          "velocity": 0.7165354330708661
        },
        {
          "duration": 0.5333339999999964,
          "durationTicks": 192,
          "midi": 69,
          "name": "A4",
          "ticks": 49152,
          "time": 136.533504,
          "velocity": 0.7165354330708661
        },
        {
          "duration": 0.5333339999999964,
          "durationTicks": 192,
          "midi": 57,
          "name": "A3",
          "ticks": 49152,
          "time": 136.533504,
          "velocity": 0.7165354330708661
        },
        {
          "duration": 0.5333339999999964,
          "durationTicks": 192,
          "midi": 56,
          "name": "G#3",
          "ticks": 49344,
          "time": 137.066838,
          "velocity": 0.7165354330708661
        },
        {
          "duration": 0.5333339999999964,
          "durationTicks": 192,
          "midi": 68,
          "name": "G#4",
          "ticks": 49344,
          "time": 137.066838,
          "velocity": 0.7165354330708661
        },
        {
          "duration": 0.5333339999999964,
          "durationTicks": 192,
          "midi": 61,
          "name": "C#4",
          "ticks": 49344,
          "time": 137.066838,
          "velocity": 0.7165354330708661
        },
        {
          "duration": 0.5333339999999964,
          "durationTicks": 192,
          "midi": 65,
          "name": "F4",
          "ticks": 49344,
          "time": 137.066838,
          "velocity": 0.7165354330708661
        },
        {
          "duration": 0.2666670000000124,
          "durationTicks": 96,
          "midi": 66,
          "name": "F#4",
          "ticks": 49536,
          "time": 137.600172,
          "velocity": 0.7165354330708661
        },
        {
          "duration": 0.2666670000000124,
          "durationTicks": 96,
          "midi": 69,
          "name": "A4",
          "ticks": 49536,
          "time": 137.600172,
          "velocity": 0.7165354330708661
        },
        {
          "duration": 0.2666670000000124,
          "durationTicks": 96,
          "midi": 61,
          "name": "C#4",
          "ticks": 49536,
          "time": 137.600172,
          "velocity": 0.7165354330708661
        },
        {
          "duration": 0.2666670000000124,
          "durationTicks": 96,
          "midi": 54,
          "name": "F#3",
          "ticks": 49536,
          "time": 137.600172,
          "velocity": 0.7165354330708661
        },
        {
          "duration": 0.266666999999984,
          "durationTicks": 96,
          "midi": 53,
          "name": "F3",
          "ticks": 49632,
          "time": 137.866839,
          "velocity": 0.7165354330708661
        },
        {
          "duration": 0.266666999999984,
          "durationTicks": 96,
          "midi": 69,
          "name": "A4",
          "ticks": 49632,
          "time": 137.866839,
          "velocity": 0.7165354330708661
        },
        {
          "duration": 0.266666999999984,
          "durationTicks": 96,
          "midi": 65,
          "name": "F4",
          "ticks": 49632,
          "time": 137.866839,
          "velocity": 0.7165354330708661
        },
        {
          "duration": 0.266666999999984,
          "durationTicks": 96,
          "midi": 61,
          "name": "C#4",
          "ticks": 49632,
          "time": 137.866839,
          "velocity": 0.7165354330708661
        },
        {
          "duration": 0.2666670000000124,
          "durationTicks": 96,
          "midi": 52,
          "name": "E3",
          "ticks": 49728,
          "time": 138.13350599999998,
          "velocity": 0.7165354330708661
        },
        {
          "duration": 0.2666670000000124,
          "durationTicks": 96,
          "midi": 64,
          "name": "E4",
          "ticks": 49728,
          "time": 138.13350599999998,
          "velocity": 0.7165354330708661
        },
        {
          "duration": 0.2666670000000124,
          "durationTicks": 96,
          "midi": 69,
          "name": "A4",
          "ticks": 49728,
          "time": 138.13350599999998,
          "velocity": 0.7165354330708661
        },
        {
          "duration": 0.2666670000000124,
          "durationTicks": 96,
          "midi": 61,
          "name": "C#4",
          "ticks": 49728,
          "time": 138.13350599999998,
          "velocity": 0.7165354330708661
        },
        {
          "duration": 0.5333340000000248,
          "durationTicks": 192,
          "midi": 57,
          "name": "A3",
          "ticks": 49920,
          "time": 138.66683999999998,
          "velocity": 0.7165354330708661
        },
        {
          "duration": 0.5333340000000248,
          "durationTicks": 192,
          "midi": 61,
          "name": "C#4",
          "ticks": 49920,
          "time": 138.66683999999998,
          "velocity": 0.7165354330708661
        },
        {
          "duration": 0.5333340000000248,
          "durationTicks": 192,
          "midi": 69,
          "name": "A4",
          "ticks": 49920,
          "time": 138.66683999999998,
          "velocity": 0.7165354330708661
        },
        {
          "duration": 0.5333340000000248,
          "durationTicks": 192,
          "midi": 66,
          "name": "F#4",
          "ticks": 49920,
          "time": 138.66683999999998,
          "velocity": 0.7165354330708661
        },
        {
          "duration": 0.5333339999999964,
          "durationTicks": 192,
          "midi": 56,
          "name": "G#3",
          "ticks": 50112,
          "time": 139.200174,
          "velocity": 0.7165354330708661
        },
        {
          "duration": 0.5333339999999964,
          "durationTicks": 192,
          "midi": 68,
          "name": "G#4",
          "ticks": 50112,
          "time": 139.200174,
          "velocity": 0.7165354330708661
        },
        {
          "duration": 0.5333339999999964,
          "durationTicks": 192,
          "midi": 61,
          "name": "C#4",
          "ticks": 50112,
          "time": 139.200174,
          "velocity": 0.7165354330708661
        },
        {
          "duration": 0.5333339999999964,
          "durationTicks": 192,
          "midi": 65,
          "name": "F4",
          "ticks": 50112,
          "time": 139.200174,
          "velocity": 0.7165354330708661
        },
        {
          "duration": 0.5333339999999964,
          "durationTicks": 192,
          "midi": 64,
          "name": "E4",
          "ticks": 50304,
          "time": 139.733508,
          "velocity": 0.7165354330708661
        },
        {
          "duration": 0.5333339999999964,
          "durationTicks": 192,
          "midi": 61,
          "name": "C#4",
          "ticks": 50304,
          "time": 139.733508,
          "velocity": 0.7165354330708661
        },
        {
          "duration": 0.5333339999999964,
          "durationTicks": 192,
          "midi": 66,
          "name": "F#4",
          "ticks": 50304,
          "time": 139.733508,
          "velocity": 0.7165354330708661
        },
        {
          "duration": 0.5333339999999964,
          "durationTicks": 192,
          "midi": 69,
          "name": "A4",
          "ticks": 50304,
          "time": 139.733508,
          "velocity": 0.7165354330708661
        },
        {
          "duration": 0.5333339999999964,
          "durationTicks": 192,
          "midi": 54,
          "name": "F#3",
          "ticks": 50304,
          "time": 139.733508,
          "velocity": 0.7165354330708661
        },
        {
          "duration": 0.266666999999984,
          "durationTicks": 96,
          "midi": 57,
          "name": "A3",
          "ticks": 50496,
          "time": 140.266842,
          "velocity": 0.7165354330708661
        },
        {
          "duration": 0.266666999999984,
          "durationTicks": 96,
          "midi": 64,
          "name": "E4",
          "ticks": 50496,
          "time": 140.266842,
          "velocity": 0.7165354330708661
        },
        {
          "duration": 0.266666999999984,
          "durationTicks": 96,
          "midi": 61,
          "name": "C#4",
          "ticks": 50496,
          "time": 140.266842,
          "velocity": 0.7165354330708661
        },
        {
          "duration": 0.266666999999984,
          "durationTicks": 96,
          "midi": 69,
          "name": "A4",
          "ticks": 50496,
          "time": 140.266842,
          "velocity": 0.7165354330708661
        },
        {
          "duration": 0.2666670000000124,
          "durationTicks": 96,
          "midi": 58,
          "name": "A#3",
          "ticks": 50592,
          "time": 140.53350899999998,
          "velocity": 0.7165354330708661
        },
        {
          "duration": 0.2666670000000124,
          "durationTicks": 96,
          "midi": 64,
          "name": "E4",
          "ticks": 50592,
          "time": 140.53350899999998,
          "velocity": 0.7165354330708661
        },
        {
          "duration": 0.2666670000000124,
          "durationTicks": 96,
          "midi": 61,
          "name": "C#4",
          "ticks": 50592,
          "time": 140.53350899999998,
          "velocity": 0.7165354330708661
        },
        {
          "duration": 0.2666670000000124,
          "durationTicks": 96,
          "midi": 70,
          "name": "A#4",
          "ticks": 50592,
          "time": 140.53350899999998,
          "velocity": 0.7165354330708661
        },
        {
          "duration": 0.133333499999992,
          "durationTicks": 48,
          "midi": 71,
          "name": "B4",
          "ticks": 50688,
          "time": 140.800176,
          "velocity": 0.7165354330708661
        },
        {
          "duration": 0.133333499999992,
          "durationTicks": 48,
          "midi": 66,
          "name": "F#4",
          "ticks": 50688,
          "time": 140.800176,
          "velocity": 0.7165354330708661
        },
        {
          "duration": 0.133333499999992,
          "durationTicks": 48,
          "midi": 62,
          "name": "D4",
          "ticks": 50688,
          "time": 140.800176,
          "velocity": 0.7165354330708661
        },
        {
          "duration": 0.133333499999992,
          "durationTicks": 48,
          "midi": 59,
          "name": "B3",
          "ticks": 50688,
          "time": 140.800176,
          "velocity": 0.7165354330708661
        },
        {
          "duration": 0.13333350000002042,
          "durationTicks": 48,
          "midi": 71,
          "name": "B4",
          "ticks": 50736,
          "time": 140.93350949999999,
          "velocity": 0.7165354330708661
        },
        {
          "duration": 0.13333350000002042,
          "durationTicks": 48,
          "midi": 66,
          "name": "F#4",
          "ticks": 50736,
          "time": 140.93350949999999,
          "velocity": 0.7165354330708661
        },
        {
          "duration": 0.13333350000002042,
          "durationTicks": 48,
          "midi": 62,
          "name": "D4",
          "ticks": 50736,
          "time": 140.93350949999999,
          "velocity": 0.7165354330708661
        },
        {
          "duration": 0.13333350000002042,
          "durationTicks": 48,
          "midi": 59,
          "name": "B3",
          "ticks": 50736,
          "time": 140.93350949999999,
          "velocity": 0.7165354330708661
        },
        {
          "duration": 0.133333499999992,
          "durationTicks": 48,
          "midi": 61,
          "name": "C#4",
          "ticks": 50880,
          "time": 141.33351,
          "velocity": 0.7165354330708661
        },
        {
          "duration": 0.133333499999992,
          "durationTicks": 48,
          "midi": 73,
          "name": "C#5",
          "ticks": 50880,
          "time": 141.33351,
          "velocity": 0.7165354330708661
        },
        {
          "duration": 0.133333499999992,
          "durationTicks": 48,
          "midi": 68,
          "name": "G#4",
          "ticks": 50880,
          "time": 141.33351,
          "velocity": 0.7165354330708661
        },
        {
          "duration": 0.133333499999992,
          "durationTicks": 48,
          "midi": 65,
          "name": "F4",
          "ticks": 50880,
          "time": 141.33351,
          "velocity": 0.7165354330708661
        },
        {
          "duration": 0.13333350000002042,
          "durationTicks": 48,
          "midi": 65,
          "name": "F4",
          "ticks": 50928,
          "time": 141.46684349999998,
          "velocity": 0.7165354330708661
        },
        {
          "duration": 0.13333350000002042,
          "durationTicks": 48,
          "midi": 68,
          "name": "G#4",
          "ticks": 50928,
          "time": 141.46684349999998,
          "velocity": 0.7165354330708661
        },
        {
          "duration": 0.13333350000002042,
          "durationTicks": 48,
          "midi": 73,
          "name": "C#5",
          "ticks": 50928,
          "time": 141.46684349999998,
          "velocity": 0.7165354330708661
        },
        {
          "duration": 0.13333350000002042,
          "durationTicks": 48,
          "midi": 61,
          "name": "C#4",
          "ticks": 50928,
          "time": 141.46684349999998,
          "velocity": 0.7165354330708661
        },
        {
          "duration": 0.13333350000002042,
          "durationTicks": 48,
          "midi": 71,
          "name": "B4",
          "ticks": 51072,
          "time": 141.866844,
          "velocity": 0.7165354330708661
        },
        {
          "duration": 0.13333350000002042,
          "durationTicks": 48,
          "midi": 61,
          "name": "C#4",
          "ticks": 51072,
          "time": 141.866844,
          "velocity": 0.7165354330708661
        },
        {
          "duration": 0.13333350000002042,
          "durationTicks": 48,
          "midi": 66,
          "name": "F#4",
          "ticks": 51072,
          "time": 141.866844,
          "velocity": 0.7165354330708661
        },
        {
          "duration": 0.13333350000002042,
          "durationTicks": 48,
          "midi": 59,
          "name": "B3",
          "ticks": 51072,
          "time": 141.866844,
          "velocity": 0.7165354330708661
        },
        {
          "duration": 0.133333499999992,
          "durationTicks": 48,
          "midi": 56,
          "name": "G#3",
          "ticks": 51168,
          "time": 142.133511,
          "velocity": 0.7165354330708661
        },
        {
          "duration": 0.133333499999992,
          "durationTicks": 48,
          "midi": 66,
          "name": "F#4",
          "ticks": 51168,
          "time": 142.133511,
          "velocity": 0.7165354330708661
        },
        {
          "duration": 0.133333499999992,
          "durationTicks": 48,
          "midi": 68,
          "name": "G#4",
          "ticks": 51168,
          "time": 142.133511,
          "velocity": 0.7165354330708661
        },
        {
          "duration": 0.133333499999992,
          "durationTicks": 48,
          "midi": 61,
          "name": "C#4",
          "ticks": 51168,
          "time": 142.133511,
          "velocity": 0.7165354330708661
        },
        {
          "duration": 0.2666670000000124,
          "durationTicks": 96,
          "midi": 57,
          "name": "A3",
          "ticks": 51264,
          "time": 142.40017799999998,
          "velocity": 0.7165354330708661
        },
        {
          "duration": 0.2666670000000124,
          "durationTicks": 96,
          "midi": 66,
          "name": "F#4",
          "ticks": 51264,
          "time": 142.40017799999998,
          "velocity": 0.7165354330708661
        },
        {
          "duration": 0.2666670000000124,
          "durationTicks": 96,
          "midi": 69,
          "name": "A4",
          "ticks": 51264,
          "time": 142.40017799999998,
          "velocity": 0.7165354330708661
        },
        {
          "duration": 0.2666670000000124,
          "durationTicks": 96,
          "midi": 61,
          "name": "C#4",
          "ticks": 51264,
          "time": 142.40017799999998,
          "velocity": 0.7165354330708661
        },
        {
          "duration": 0.133333499999992,
          "durationTicks": 48,
          "midi": 59,
          "name": "B3",
          "ticks": 51456,
          "time": 142.933512,
          "velocity": 0.7165354330708661
        },
        {
          "duration": 0.133333499999992,
          "durationTicks": 48,
          "midi": 62,
          "name": "D4",
          "ticks": 51456,
          "time": 142.933512,
          "velocity": 0.7165354330708661
        },
        {
          "duration": 0.133333499999992,
          "durationTicks": 48,
          "midi": 66,
          "name": "F#4",
          "ticks": 51456,
          "time": 142.933512,
          "velocity": 0.7165354330708661
        },
        {
          "duration": 0.133333499999992,
          "durationTicks": 48,
          "midi": 71,
          "name": "B4",
          "ticks": 51456,
          "time": 142.933512,
          "velocity": 0.7165354330708661
        },
        {
          "duration": 0.133333499999992,
          "durationTicks": 48,
          "midi": 59,
          "name": "B3",
          "ticks": 51504,
          "time": 143.0668455,
          "velocity": 0.7165354330708661
        },
        {
          "duration": 0.133333499999992,
          "durationTicks": 48,
          "midi": 62,
          "name": "D4",
          "ticks": 51504,
          "time": 143.0668455,
          "velocity": 0.7165354330708661
        },
        {
          "duration": 0.133333499999992,
          "durationTicks": 48,
          "midi": 66,
          "name": "F#4",
          "ticks": 51504,
          "time": 143.0668455,
          "velocity": 0.7165354330708661
        },
        {
          "duration": 0.133333499999992,
          "durationTicks": 48,
          "midi": 71,
          "name": "B4",
          "ticks": 51504,
          "time": 143.0668455,
          "velocity": 0.7165354330708661
        },
        {
          "duration": 0.133333499999992,
          "durationTicks": 48,
          "midi": 61,
          "name": "C#4",
          "ticks": 51648,
          "time": 143.466846,
          "velocity": 0.7165354330708661
        },
        {
          "duration": 0.133333499999992,
          "durationTicks": 48,
          "midi": 73,
          "name": "C#5",
          "ticks": 51648,
          "time": 143.466846,
          "velocity": 0.7165354330708661
        },
        {
          "duration": 0.133333499999992,
          "durationTicks": 48,
          "midi": 68,
          "name": "G#4",
          "ticks": 51648,
          "time": 143.466846,
          "velocity": 0.7165354330708661
        },
        {
          "duration": 0.133333499999992,
          "durationTicks": 48,
          "midi": 65,
          "name": "F4",
          "ticks": 51648,
          "time": 143.466846,
          "velocity": 0.7165354330708661
        },
        {
          "duration": 0.133333499999992,
          "durationTicks": 48,
          "midi": 61,
          "name": "C#4",
          "ticks": 51696,
          "time": 143.6001795,
          "velocity": 0.7165354330708661
        },
        {
          "duration": 0.133333499999992,
          "durationTicks": 48,
          "midi": 73,
          "name": "C#5",
          "ticks": 51696,
          "time": 143.6001795,
          "velocity": 0.7165354330708661
        },
        {
          "duration": 0.133333499999992,
          "durationTicks": 48,
          "midi": 68,
          "name": "G#4",
          "ticks": 51696,
          "time": 143.6001795,
          "velocity": 0.7165354330708661
        },
        {
          "duration": 0.133333499999992,
          "durationTicks": 48,
          "midi": 65,
          "name": "F4",
          "ticks": 51696,
          "time": 143.6001795,
          "velocity": 0.7165354330708661
        },
        {
          "duration": 0.133333499999992,
          "durationTicks": 48,
          "midi": 59,
          "name": "B3",
          "ticks": 51840,
          "time": 144.00018,
          "velocity": 0.7165354330708661
        },
        {
          "duration": 0.133333499999992,
          "durationTicks": 48,
          "midi": 61,
          "name": "C#4",
          "ticks": 51840,
          "time": 144.00018,
          "velocity": 0.7165354330708661
        },
        {
          "duration": 0.133333499999992,
          "durationTicks": 48,
          "midi": 71,
          "name": "B4",
          "ticks": 51840,
          "time": 144.00018,
          "velocity": 0.7165354330708661
        },
        {
          "duration": 0.133333499999992,
          "durationTicks": 48,
          "midi": 66,
          "name": "F#4",
          "ticks": 51840,
          "time": 144.00018,
          "velocity": 0.7165354330708661
        },
        {
          "duration": 0.13333350000002042,
          "durationTicks": 48,
          "midi": 68,
          "name": "G#4",
          "ticks": 51936,
          "time": 144.26684699999998,
          "velocity": 0.7165354330708661
        },
        {
          "duration": 0.13333350000002042,
          "durationTicks": 48,
          "midi": 65,
          "name": "F4",
          "ticks": 51936,
          "time": 144.26684699999998,
          "velocity": 0.7165354330708661
        },
        {
          "duration": 0.13333350000002042,
          "durationTicks": 48,
          "midi": 61,
          "name": "C#4",
          "ticks": 51936,
          "time": 144.26684699999998,
          "velocity": 0.7165354330708661
        },
        {
          "duration": 0.13333350000002042,
          "durationTicks": 48,
          "midi": 56,
          "name": "G#3",
          "ticks": 51936,
          "time": 144.26684699999998,
          "velocity": 0.7165354330708661
        },
        {
          "duration": 0.266666999999984,
          "durationTicks": 96,
          "midi": 69,
          "name": "A4",
          "ticks": 52032,
          "time": 144.533514,
          "velocity": 0.7165354330708661
        },
        {
          "duration": 0.266666999999984,
          "durationTicks": 96,
          "midi": 61,
          "name": "C#4",
          "ticks": 52032,
          "time": 144.533514,
          "velocity": 0.7165354330708661
        },
        {
          "duration": 0.266666999999984,
          "durationTicks": 96,
          "midi": 66,
          "name": "F#4",
          "ticks": 52032,
          "time": 144.533514,
          "velocity": 0.7165354330708661
        },
        {
          "duration": 0.266666999999984,
          "durationTicks": 96,
          "midi": 57,
          "name": "A3",
          "ticks": 52032,
          "time": 144.533514,
          "velocity": 0.7165354330708661
        },
        {
          "duration": 0.9333345000000008,
          "durationTicks": 336,
          "midi": 62,
          "name": "D4",
          "ticks": 52224,
          "time": 145.066848,
          "velocity": 0.5354330708661418
        },
        {
          "duration": 0.9333345000000008,
          "durationTicks": 336,
          "midi": 66,
          "name": "F#4",
          "ticks": 52224,
          "time": 145.066848,
          "velocity": 0.5354330708661418
        },
        {
          "duration": 0.9333345000000008,
          "durationTicks": 336,
          "midi": 73,
          "name": "C#5",
          "ticks": 52224,
          "time": 145.066848,
          "velocity": 0.5354330708661418
        },
        {
          "duration": 0.9333345000000008,
          "durationTicks": 336,
          "midi": 69,
          "name": "A4",
          "ticks": 52224,
          "time": 145.066848,
          "velocity": 0.5354330708661418
        },
        {
          "duration": 0.9333345000000008,
          "durationTicks": 336,
          "midi": 57,
          "name": "A3",
          "ticks": 52224,
          "time": 145.066848,
          "velocity": 0.5354330708661418
        },
        {
          "duration": 1.2000014999999848,
          "durationTicks": 432,
          "midi": 61,
          "name": "C#4",
          "ticks": 52560,
          "time": 146.0001825,
          "velocity": 0.5354330708661418
        },
        {
          "duration": 1.2000014999999848,
          "durationTicks": 432,
          "midi": 71,
          "name": "B4",
          "ticks": 52560,
          "time": 146.0001825,
          "velocity": 0.5354330708661418
        },
        {
          "duration": 1.2000014999999848,
          "durationTicks": 432,
          "midi": 65,
          "name": "F4",
          "ticks": 52560,
          "time": 146.0001825,
          "velocity": 0.5354330708661418
        },
        {
          "duration": 1.2000014999999848,
          "durationTicks": 432,
          "midi": 68,
          "name": "G#4",
          "ticks": 52560,
          "time": 146.0001825,
          "velocity": 0.5354330708661418
        },
        {
          "duration": 1.2000014999999848,
          "durationTicks": 432,
          "midi": 56,
          "name": "G#3",
          "ticks": 52560,
          "time": 146.0001825,
          "velocity": 0.5354330708661418
        },
        {
          "duration": 0.9333345000000008,
          "durationTicks": 336,
          "midi": 54,
          "name": "F#3",
          "ticks": 52992,
          "time": 147.20018399999998,
          "velocity": 0.5354330708661418
        },
        {
          "duration": 0.9333345000000008,
          "durationTicks": 336,
          "midi": 61,
          "name": "C#4",
          "ticks": 52992,
          "time": 147.20018399999998,
          "velocity": 0.5354330708661418
        },
        {
          "duration": 0.9333345000000008,
          "durationTicks": 336,
          "midi": 64,
          "name": "E4",
          "ticks": 52992,
          "time": 147.20018399999998,
          "velocity": 0.5354330708661418
        },
        {
          "duration": 0.9333345000000008,
          "durationTicks": 336,
          "midi": 57,
          "name": "A3",
          "ticks": 52992,
          "time": 147.20018399999998,
          "velocity": 0.5354330708661418
        },
        {
          "duration": 0.9333345000000008,
          "durationTicks": 336,
          "midi": 69,
          "name": "A4",
          "ticks": 52992,
          "time": 147.20018399999998,
          "velocity": 0.5354330708661418
        },
        {
          "duration": 1.2000015000000133,
          "durationTicks": 432,
          "midi": 65,
          "name": "F4",
          "ticks": 53328,
          "time": 148.13351849999998,
          "velocity": 0.5354330708661418
        },
        {
          "duration": 1.2000015000000133,
          "durationTicks": 432,
          "midi": 71,
          "name": "B4",
          "ticks": 53328,
          "time": 148.13351849999998,
          "velocity": 0.5354330708661418
        },
        {
          "duration": 1.2000015000000133,
          "durationTicks": 432,
          "midi": 68,
          "name": "G#4",
          "ticks": 53328,
          "time": 148.13351849999998,
          "velocity": 0.5354330708661418
        },
        {
          "duration": 1.2000015000000133,
          "durationTicks": 432,
          "midi": 56,
          "name": "G#3",
          "ticks": 53328,
          "time": 148.13351849999998,
          "velocity": 0.5354330708661418
        },
        {
          "duration": 1.2000015000000133,
          "durationTicks": 432,
          "midi": 61,
          "name": "C#4",
          "ticks": 53328,
          "time": 148.13351849999998,
          "velocity": 0.5354330708661418
        },
        {
          "duration": 0.9333345000000008,
          "durationTicks": 336,
          "midi": 69,
          "name": "A4",
          "ticks": 53760,
          "time": 149.33352,
          "velocity": 0.5354330708661418
        },
        {
          "duration": 0.9333345000000008,
          "durationTicks": 336,
          "midi": 66,
          "name": "F#4",
          "ticks": 53760,
          "time": 149.33352,
          "velocity": 0.5354330708661418
        },
        {
          "duration": 0.9333345000000008,
          "durationTicks": 336,
          "midi": 62,
          "name": "D4",
          "ticks": 53760,
          "time": 149.33352,
          "velocity": 0.5354330708661418
        },
        {
          "duration": 0.9333345000000008,
          "durationTicks": 336,
          "midi": 57,
          "name": "A3",
          "ticks": 53760,
          "time": 149.33352,
          "velocity": 0.5354330708661418
        },
        {
          "duration": 0.9333345000000008,
          "durationTicks": 336,
          "midi": 73,
          "name": "C#5",
          "ticks": 53760,
          "time": 149.33352,
          "velocity": 0.5354330708661418
        },
        {
          "duration": 1.2000015000000133,
          "durationTicks": 432,
          "midi": 64,
          "name": "E4",
          "ticks": 54096,
          "time": 150.2668545,
          "velocity": 0.5354330708661418
        },
        {
          "duration": 1.2000015000000133,
          "durationTicks": 432,
          "midi": 56,
          "name": "G#3",
          "ticks": 54096,
          "time": 150.2668545,
          "velocity": 0.5354330708661418
        },
        {
          "duration": 1.2000015000000133,
          "durationTicks": 432,
          "midi": 71,
          "name": "B4",
          "ticks": 54096,
          "time": 150.2668545,
          "velocity": 0.5354330708661418
        },
        {
          "duration": 1.2000015000000133,
          "durationTicks": 432,
          "midi": 68,
          "name": "G#4",
          "ticks": 54096,
          "time": 150.2668545,
          "velocity": 0.5354330708661418
        },
        {
          "duration": 1.2000015000000133,
          "durationTicks": 432,
          "midi": 61,
          "name": "C#4",
          "ticks": 54096,
          "time": 150.2668545,
          "velocity": 0.5354330708661418
        },
        {
          "duration": 0.5333339999999964,
          "durationTicks": 192,
          "midi": 59,
          "name": "B3",
          "ticks": 54528,
          "time": 151.466856,
          "velocity": 0.6456692913385826
        },
        {
          "duration": 0.5333339999999964,
          "durationTicks": 192,
          "midi": 66,
          "name": "F#4",
          "ticks": 54528,
          "time": 151.466856,
          "velocity": 0.6456692913385826
        },
        {
          "duration": 0.5333339999999964,
          "durationTicks": 192,
          "midi": 62,
          "name": "D4",
          "ticks": 54528,
          "time": 151.466856,
          "velocity": 0.6456692913385826
        },
        {
          "duration": 0.5333339999999964,
          "durationTicks": 192,
          "midi": 69,
          "name": "A4",
          "ticks": 54528,
          "time": 151.466856,
          "velocity": 0.6456692913385826
        },
        {
          "duration": 0.5333339999999964,
          "durationTicks": 192,
          "midi": 73,
          "name": "C#5",
          "ticks": 54528,
          "time": 151.466856,
          "velocity": 0.6456692913385826
        },
        {
          "duration": 0.5333339999999964,
          "durationTicks": 192,
          "midi": 69,
          "name": "A4",
          "ticks": 54720,
          "time": 152.00019,
          "velocity": 0.6456692913385826
        },
        {
          "duration": 0.5333339999999964,
          "durationTicks": 192,
          "midi": 64,
          "name": "E4",
          "ticks": 54720,
          "time": 152.00019,
          "velocity": 0.6456692913385826
        },
        {
          "duration": 0.5333339999999964,
          "durationTicks": 192,
          "midi": 61,
          "name": "C#4",
          "ticks": 54720,
          "time": 152.00019,
          "velocity": 0.6456692913385826
        },
        {
          "duration": 0.5333339999999964,
          "durationTicks": 192,
          "midi": 73,
          "name": "C#5",
          "ticks": 54720,
          "time": 152.00019,
          "velocity": 0.6456692913385826
        },
        {
          "duration": 1.0666679999999928,
          "durationTicks": 384,
          "midi": 73,
          "name": "C#5",
          "ticks": 54912,
          "time": 152.533524,
          "velocity": 0.6456692913385826
        },
        {
          "duration": 1.0666679999999928,
          "durationTicks": 384,
          "midi": 69,
          "name": "A4",
          "ticks": 54912,
          "time": 152.533524,
          "velocity": 0.6456692913385826
        },
        {
          "duration": 1.0666679999999928,
          "durationTicks": 384,
          "midi": 66,
          "name": "F#4",
          "ticks": 54912,
          "time": 152.533524,
          "velocity": 0.6456692913385826
        },
        {
          "duration": 1.0666679999999928,
          "durationTicks": 384,
          "midi": 62,
          "name": "D4",
          "ticks": 54912,
          "time": 152.533524,
          "velocity": 0.6456692913385826
        },
        {
          "duration": 0.5333339999999964,
          "durationTicks": 192,
          "midi": 73,
          "name": "C#5",
          "ticks": 55296,
          "time": 153.600192,
          "velocity": 0.6456692913385826
        },
        {
          "duration": 0.5333339999999964,
          "durationTicks": 192,
          "midi": 69,
          "name": "A4",
          "ticks": 55296,
          "time": 153.600192,
          "velocity": 0.6456692913385826
        },
        {
          "duration": 0.5333339999999964,
          "durationTicks": 192,
          "midi": 59,
          "name": "B3",
          "ticks": 55296,
          "time": 153.600192,
          "velocity": 0.6456692913385826
        },
        {
          "duration": 0.5333339999999964,
          "durationTicks": 192,
          "midi": 66,
          "name": "F#4",
          "ticks": 55296,
          "time": 153.600192,
          "velocity": 0.6456692913385826
        },
        {
          "duration": 0.5333339999999964,
          "durationTicks": 192,
          "midi": 62,
          "name": "D4",
          "ticks": 55296,
          "time": 153.600192,
          "velocity": 0.6456692913385826
        },
        {
          "duration": 0.5333339999999964,
          "durationTicks": 192,
          "midi": 73,
          "name": "C#5",
          "ticks": 55488,
          "time": 154.133526,
          "velocity": 0.6456692913385826
        },
        {
          "duration": 0.5333339999999964,
          "durationTicks": 192,
          "midi": 69,
          "name": "A4",
          "ticks": 55488,
          "time": 154.133526,
          "velocity": 0.6456692913385826
        },
        {
          "duration": 0.5333339999999964,
          "durationTicks": 192,
          "midi": 64,
          "name": "E4",
          "ticks": 55488,
          "time": 154.133526,
          "velocity": 0.6456692913385826
        },
        {
          "duration": 0.5333339999999964,
          "durationTicks": 192,
          "midi": 61,
          "name": "C#4",
          "ticks": 55488,
          "time": 154.133526,
          "velocity": 0.6456692913385826
        },
        {
          "duration": 1.0666679999999928,
          "durationTicks": 384,
          "midi": 62,
          "name": "D4",
          "ticks": 55680,
          "time": 154.66685999999999,
          "velocity": 0.6456692913385826
        },
        {
          "duration": 1.0666679999999928,
          "durationTicks": 384,
          "midi": 66,
          "name": "F#4",
          "ticks": 55680,
          "time": 154.66685999999999,
          "velocity": 0.6456692913385826
        },
        {
          "duration": 1.0666679999999928,
          "durationTicks": 384,
          "midi": 69,
          "name": "A4",
          "ticks": 55680,
          "time": 154.66685999999999,
          "velocity": 0.6456692913385826
        },
        {
          "duration": 1.0666679999999928,
          "durationTicks": 384,
          "midi": 73,
          "name": "C#5",
          "ticks": 55680,
          "time": 154.66685999999999,
          "velocity": 0.6456692913385826
        },
        {
          "duration": 2.133336000000014,
          "durationTicks": 768,
          "midi": 71,
          "name": "B4",
          "ticks": 56064,
          "time": 155.73352799999998,
          "velocity": 0.6456692913385826
        },
        {
          "duration": 2.133336000000014,
          "durationTicks": 768,
          "midi": 61,
          "name": "C#4",
          "ticks": 56064,
          "time": 155.73352799999998,
          "velocity": 0.6456692913385826
        },
        {
          "duration": 2.133336000000014,
          "durationTicks": 768,
          "midi": 65,
          "name": "F4",
          "ticks": 56064,
          "time": 155.73352799999998,
          "velocity": 0.6456692913385826
        },
        {
          "duration": 2.133336000000014,
          "durationTicks": 768,
          "midi": 68,
          "name": "G#4",
          "ticks": 56064,
          "time": 155.73352799999998,
          "velocity": 0.6456692913385826
        },
        {
          "duration": 2.133336000000014,
          "durationTicks": 768,
          "midi": 74,
          "name": "D5",
          "ticks": 56832,
          "time": 157.866864,
          "velocity": 0.6456692913385826
        },
        {
          "duration": 2.133336000000014,
          "durationTicks": 768,
          "midi": 65,
          "name": "F4",
          "ticks": 56832,
          "time": 157.866864,
          "velocity": 0.6456692913385826
        },
        {
          "duration": 2.133336000000014,
          "durationTicks": 768,
          "midi": 62,
          "name": "D4",
          "ticks": 56832,
          "time": 157.866864,
          "velocity": 0.6456692913385826
        },
        {
          "duration": 2.133336000000014,
          "durationTicks": 768,
          "midi": 70,
          "name": "A#4",
          "ticks": 56832,
          "time": 157.866864,
          "velocity": 0.6456692913385826
        },
        {
          "duration": 0.05555562500001088,
          "durationTicks": 20,
          "midi": 46,
          "name": "A#2",
          "ticks": 60288,
          "time": 167.46687599999998,
          "velocity": 0.7165354330708661
        },
        {
          "duration": 0.05555562500001088,
          "durationTicks": 20,
          "midi": 51,
          "name": "D#3",
          "ticks": 60288,
          "time": 167.46687599999998,
          "velocity": 0.7165354330708661
        },
        {
          "duration": 0.05555562500001088,
          "durationTicks": 20,
          "midi": 58,
          "name": "A#3",
          "ticks": 60288,
          "time": 167.46687599999998,
          "velocity": 0.7165354330708661
        },
        {
          "duration": 0.05555562500001088,
          "durationTicks": 20,
          "midi": 46,
          "name": "A#2",
          "ticks": 60312,
          "time": 167.53354274999998,
          "velocity": 0.7165354330708661
        },
        {
          "duration": 0.05555562500001088,
          "durationTicks": 20,
          "midi": 51,
          "name": "D#3",
          "ticks": 60312,
          "time": 167.53354274999998,
          "velocity": 0.7165354330708661
        },
        {
          "duration": 0.05555562500001088,
          "durationTicks": 20,
          "midi": 58,
          "name": "A#3",
          "ticks": 60312,
          "time": 167.53354274999998,
          "velocity": 0.7165354330708661
        },
        {
          "duration": 0.05555562500001088,
          "durationTicks": 20,
          "midi": 47,
          "name": "B2",
          "ticks": 60336,
          "time": 167.6002095,
          "velocity": 0.7165354330708661
        },
        {
          "duration": 0.05555562500001088,
          "durationTicks": 20,
          "midi": 52,
          "name": "E3",
          "ticks": 60336,
          "time": 167.6002095,
          "velocity": 0.7165354330708661
        },
        {
          "duration": 0.05555562500001088,
          "durationTicks": 20,
          "midi": 59,
          "name": "B3",
          "ticks": 60336,
          "time": 167.6002095,
          "velocity": 0.7165354330708661
        },
        {
          "duration": 0.05555562500001088,
          "durationTicks": 20,
          "midi": 47,
          "name": "B2",
          "ticks": 60360,
          "time": 167.66687625,
          "velocity": 0.7165354330708661
        },
        {
          "duration": 0.05555562500001088,
          "durationTicks": 20,
          "midi": 52,
          "name": "E3",
          "ticks": 60360,
          "time": 167.66687625,
          "velocity": 0.7165354330708661
        },
        {
          "duration": 0.05555562500001088,
          "durationTicks": 20,
          "midi": 59,
          "name": "B3",
          "ticks": 60360,
          "time": 167.66687625,
          "velocity": 0.7165354330708661
        },
        {
          "duration": 0.05555562500001088,
          "durationTicks": 20,
          "midi": 48,
          "name": "C3",
          "ticks": 60384,
          "time": 167.733543,
          "velocity": 0.7165354330708661
        },
        {
          "duration": 0.05555562500001088,
          "durationTicks": 20,
          "midi": 53,
          "name": "F3",
          "ticks": 60384,
          "time": 167.733543,
          "velocity": 0.7165354330708661
        },
        {
          "duration": 0.05555562500001088,
          "durationTicks": 20,
          "midi": 60,
          "name": "C4",
          "ticks": 60384,
          "time": 167.733543,
          "velocity": 0.7165354330708661
        },
        {
          "duration": 0.05555562500001088,
          "durationTicks": 20,
          "midi": 60,
          "name": "C4",
          "ticks": 60408,
          "time": 167.80020975,
          "velocity": 0.7165354330708661
        },
        {
          "duration": 0.05555562500001088,
          "durationTicks": 20,
          "midi": 53,
          "name": "F3",
          "ticks": 60408,
          "time": 167.80020975,
          "velocity": 0.7165354330708661
        },
        {
          "duration": 0.05555562500001088,
          "durationTicks": 20,
          "midi": 48,
          "name": "C3",
          "ticks": 60408,
          "time": 167.80020975,
          "velocity": 0.7165354330708661
        },
        {
          "duration": 0.05555562500001088,
          "durationTicks": 20,
          "midi": 61,
          "name": "C#4",
          "ticks": 60432,
          "time": 167.8668765,
          "velocity": 0.7165354330708661
        },
        {
          "duration": 0.05555562500001088,
          "durationTicks": 20,
          "midi": 54,
          "name": "F#3",
          "ticks": 60432,
          "time": 167.8668765,
          "velocity": 0.7165354330708661
        },
        {
          "duration": 0.05555562500001088,
          "durationTicks": 20,
          "midi": 49,
          "name": "C#3",
          "ticks": 60432,
          "time": 167.8668765,
          "velocity": 0.7165354330708661
        },
        {
          "duration": 0.05555562500001088,
          "durationTicks": 20,
          "midi": 61,
          "name": "C#4",
          "ticks": 60456,
          "time": 167.93354324999999,
          "velocity": 0.7165354330708661
        },
        {
          "duration": 0.05555562500001088,
          "durationTicks": 20,
          "midi": 54,
          "name": "F#3",
          "ticks": 60456,
          "time": 167.93354324999999,
          "velocity": 0.7165354330708661
        },
        {
          "duration": 0.05555562500001088,
          "durationTicks": 20,
          "midi": 49,
          "name": "C#3",
          "ticks": 60456,
          "time": 167.93354324999999,
          "velocity": 0.7165354330708661
        },
        {
          "duration": 0.05555562500001088,
          "durationTicks": 20,
          "midi": 62,
          "name": "D4",
          "ticks": 60480,
          "time": 168.00020999999998,
          "velocity": 0.7165354330708661
        },
        {
          "duration": 0.05555562500001088,
          "durationTicks": 20,
          "midi": 55,
          "name": "G3",
          "ticks": 60480,
          "time": 168.00020999999998,
          "velocity": 0.7165354330708661
        },
        {
          "duration": 0.05555562500001088,
          "durationTicks": 20,
          "midi": 50,
          "name": "D3",
          "ticks": 60480,
          "time": 168.00020999999998,
          "velocity": 0.7165354330708661
        },
        {
          "duration": 0.055555624999982456,
          "durationTicks": 20,
          "midi": 50,
          "name": "D3",
          "ticks": 60504,
          "time": 168.06687675,
          "velocity": 0.7165354330708661
        },
        {
          "duration": 0.055555624999982456,
          "durationTicks": 20,
          "midi": 55,
          "name": "G3",
          "ticks": 60504,
          "time": 168.06687675,
          "velocity": 0.7165354330708661
        },
        {
          "duration": 0.055555624999982456,
          "durationTicks": 20,
          "midi": 62,
          "name": "D4",
          "ticks": 60504,
          "time": 168.06687675,
          "velocity": 0.7165354330708661
        },
        {
          "duration": 0.05555562500001088,
          "durationTicks": 20,
          "midi": 51,
          "name": "D#3",
          "ticks": 60528,
          "time": 168.1335435,
          "velocity": 0.7165354330708661
        },
        {
          "duration": 0.05555562500001088,
          "durationTicks": 20,
          "midi": 56,
          "name": "G#3",
          "ticks": 60528,
          "time": 168.1335435,
          "velocity": 0.7165354330708661
        },
        {
          "duration": 0.05555562500001088,
          "durationTicks": 20,
          "midi": 63,
          "name": "D#4",
          "ticks": 60528,
          "time": 168.1335435,
          "velocity": 0.7165354330708661
        },
        {
          "duration": 0.05555562500001088,
          "durationTicks": 20,
          "midi": 63,
          "name": "D#4",
          "ticks": 60552,
          "time": 168.20021025,
          "velocity": 0.7165354330708661
        },
        {
          "duration": 0.05555562500001088,
          "durationTicks": 20,
          "midi": 56,
          "name": "G#3",
          "ticks": 60552,
          "time": 168.20021025,
          "velocity": 0.7165354330708661
        },
        {
          "duration": 0.05555562500001088,
          "durationTicks": 20,
          "midi": 51,
          "name": "D#3",
          "ticks": 60552,
          "time": 168.20021025,
          "velocity": 0.7165354330708661
        },
        {
          "duration": 0.05555562500001088,
          "durationTicks": 20,
          "midi": 64,
          "name": "E4",
          "ticks": 60576,
          "time": 168.266877,
          "velocity": 0.7165354330708661
        },
        {
          "duration": 0.05555562500001088,
          "durationTicks": 20,
          "midi": 57,
          "name": "A3",
          "ticks": 60576,
          "time": 168.266877,
          "velocity": 0.7165354330708661
        },
        {
          "duration": 0.05555562500001088,
          "durationTicks": 20,
          "midi": 52,
          "name": "E3",
          "ticks": 60576,
          "time": 168.266877,
          "velocity": 0.7165354330708661
        },
        {
          "duration": 0.05555562500001088,
          "durationTicks": 20,
          "midi": 52,
          "name": "E3",
          "ticks": 60600,
          "time": 168.33354375,
          "velocity": 0.7165354330708661
        },
        {
          "duration": 0.05555562500001088,
          "durationTicks": 20,
          "midi": 57,
          "name": "A3",
          "ticks": 60600,
          "time": 168.33354375,
          "velocity": 0.7165354330708661
        },
        {
          "duration": 0.05555562500001088,
          "durationTicks": 20,
          "midi": 64,
          "name": "E4",
          "ticks": 60600,
          "time": 168.33354375,
          "velocity": 0.7165354330708661
        },
        {
          "duration": 0.05555562500001088,
          "durationTicks": 20,
          "midi": 53,
          "name": "F3",
          "ticks": 60624,
          "time": 168.4002105,
          "velocity": 0.7165354330708661
        },
        {
          "duration": 0.05555562500001088,
          "durationTicks": 20,
          "midi": 58,
          "name": "A#3",
          "ticks": 60624,
          "time": 168.4002105,
          "velocity": 0.7165354330708661
        },
        {
          "duration": 0.05555562500001088,
          "durationTicks": 20,
          "midi": 65,
          "name": "F4",
          "ticks": 60624,
          "time": 168.4002105,
          "velocity": 0.7165354330708661
        },
        {
          "duration": 0.05555562500001088,
          "durationTicks": 20,
          "midi": 53,
          "name": "F3",
          "ticks": 60648,
          "time": 168.46687724999998,
          "velocity": 0.7165354330708661
        },
        {
          "duration": 0.05555562500001088,
          "durationTicks": 20,
          "midi": 58,
          "name": "A#3",
          "ticks": 60648,
          "time": 168.46687724999998,
          "velocity": 0.7165354330708661
        },
        {
          "duration": 0.05555562500001088,
          "durationTicks": 20,
          "midi": 65,
          "name": "F4",
          "ticks": 60648,
          "time": 168.46687724999998,
          "velocity": 0.7165354330708661
        },
        {
          "duration": 0.055555624999982456,
          "durationTicks": 20,
          "midi": 54,
          "name": "F#3",
          "ticks": 60672,
          "time": 168.533544,
          "velocity": 0.7165354330708661
        },
        {
          "duration": 0.055555624999982456,
          "durationTicks": 20,
          "midi": 59,
          "name": "B3",
          "ticks": 60672,
          "time": 168.533544,
          "velocity": 0.7165354330708661
        },
        {
          "duration": 0.055555624999982456,
          "durationTicks": 20,
          "midi": 66,
          "name": "F#4",
          "ticks": 60672,
          "time": 168.533544,
          "velocity": 0.7165354330708661
        },
        {
          "duration": 0.05555562500001088,
          "durationTicks": 20,
          "midi": 54,
          "name": "F#3",
          "ticks": 60696,
          "time": 168.60021075,
          "velocity": 0.7165354330708661
        },
        {
          "duration": 0.05555562500001088,
          "durationTicks": 20,
          "midi": 59,
          "name": "B3",
          "ticks": 60696,
          "time": 168.60021075,
          "velocity": 0.7165354330708661
        },
        {
          "duration": 0.05555562500001088,
          "durationTicks": 20,
          "midi": 66,
          "name": "F#4",
          "ticks": 60696,
          "time": 168.60021075,
          "velocity": 0.7165354330708661
        },
        {
          "duration": 0.05555562500001088,
          "durationTicks": 20,
          "midi": 67,
          "name": "G4",
          "ticks": 60720,
          "time": 168.6668775,
          "velocity": 0.7165354330708661
        },
        {
          "duration": 0.05555562500001088,
          "durationTicks": 20,
          "midi": 60,
          "name": "C4",
          "ticks": 60720,
          "time": 168.6668775,
          "velocity": 0.7165354330708661
        },
        {
          "duration": 0.05555562500001088,
          "durationTicks": 20,
          "midi": 55,
          "name": "G3",
          "ticks": 60720,
          "time": 168.6668775,
          "velocity": 0.7165354330708661
        },
        {
          "duration": 0.05555562500001088,
          "durationTicks": 20,
          "midi": 67,
          "name": "G4",
          "ticks": 60744,
          "time": 168.73354425,
          "velocity": 0.7165354330708661
        },
        {
          "duration": 0.05555562500001088,
          "durationTicks": 20,
          "midi": 60,
          "name": "C4",
          "ticks": 60744,
          "time": 168.73354425,
          "velocity": 0.7165354330708661
        },
        {
          "duration": 0.05555562500001088,
          "durationTicks": 20,
          "midi": 55,
          "name": "G3",
          "ticks": 60744,
          "time": 168.73354425,
          "velocity": 0.7165354330708661
        },
        {
          "duration": 0.05555562500001088,
          "durationTicks": 20,
          "midi": 68,
          "name": "G#4",
          "ticks": 60768,
          "time": 168.800211,
          "velocity": 0.7165354330708661
        },
        {
          "duration": 0.05555562500001088,
          "durationTicks": 20,
          "midi": 61,
          "name": "C#4",
          "ticks": 60768,
          "time": 168.800211,
          "velocity": 0.7165354330708661
        },
        {
          "duration": 0.05555562500001088,
          "durationTicks": 20,
          "midi": 56,
          "name": "G#3",
          "ticks": 60768,
          "time": 168.800211,
          "velocity": 0.7165354330708661
        },
        {
          "duration": 0.05555562500001088,
          "durationTicks": 20,
          "midi": 68,
          "name": "G#4",
          "ticks": 60792,
          "time": 168.86687775,
          "velocity": 0.7165354330708661
        },
        {
          "duration": 0.05555562500001088,
          "durationTicks": 20,
          "midi": 61,
          "name": "C#4",
          "ticks": 60792,
          "time": 168.86687775,
          "velocity": 0.7165354330708661
        },
        {
          "duration": 0.05555562500001088,
          "durationTicks": 20,
          "midi": 56,
          "name": "G#3",
          "ticks": 60792,
          "time": 168.86687775,
          "velocity": 0.7165354330708661
        },
        {
          "duration": 0.05555562500001088,
          "durationTicks": 20,
          "midi": 69,
          "name": "A4",
          "ticks": 60816,
          "time": 168.93354449999998,
          "velocity": 0.7165354330708661
        },
        {
          "duration": 0.05555562500001088,
          "durationTicks": 20,
          "midi": 62,
          "name": "D4",
          "ticks": 60816,
          "time": 168.93354449999998,
          "velocity": 0.7165354330708661
        },
        {
          "duration": 0.05555562500001088,
          "durationTicks": 20,
          "midi": 57,
          "name": "A3",
          "ticks": 60816,
          "time": 168.93354449999998,
          "velocity": 0.7165354330708661
        },
        {
          "duration": 0.05555562500001088,
          "durationTicks": 20,
          "midi": 57,
          "name": "A3",
          "ticks": 60840,
          "time": 169.00021124999998,
          "velocity": 0.7165354330708661
        },
        {
          "duration": 0.05555562500001088,
          "durationTicks": 20,
          "midi": 62,
          "name": "D4",
          "ticks": 60840,
          "time": 169.00021124999998,
          "velocity": 0.7165354330708661
        },
        {
          "duration": 0.05555562500001088,
          "durationTicks": 20,
          "midi": 69,
          "name": "A4",
          "ticks": 60840,
          "time": 169.00021124999998,
          "velocity": 0.7165354330708661
        },
        {
          "duration": 0.066666749999996,
          "durationTicks": 24,
          "midi": 66,
          "name": "F#4",
          "ticks": 61104,
          "time": 169.7335455,
          "velocity": 0.6535433070866141
        },
        {
          "duration": 0.066666749999996,
          "durationTicks": 24,
          "midi": 62,
          "name": "D4",
          "ticks": 61104,
          "time": 169.7335455,
          "velocity": 0.6535433070866141
        },
        {
          "duration": 0.066666749999996,
          "durationTicks": 24,
          "midi": 54,
          "name": "F#3",
          "ticks": 61104,
          "time": 169.7335455,
          "velocity": 0.6535433070866141
        },
        {
          "duration": 0.066666749999996,
          "durationTicks": 24,
          "midi": 58,
          "name": "A#3",
          "ticks": 61104,
          "time": 169.7335455,
          "velocity": 0.6535433070866141
        },
        {
          "duration": 0.066666749999996,
          "durationTicks": 24,
          "midi": 54,
          "name": "F#3",
          "ticks": 61152,
          "time": 169.86687899999998,
          "velocity": 0.6535433070866141
        },
        {
          "duration": 0.066666749999996,
          "durationTicks": 24,
          "midi": 58,
          "name": "A#3",
          "ticks": 61152,
          "time": 169.86687899999998,
          "velocity": 0.6535433070866141
        },
        {
          "duration": 0.066666749999996,
          "durationTicks": 24,
          "midi": 62,
          "name": "D4",
          "ticks": 61152,
          "time": 169.86687899999998,
          "velocity": 0.6535433070866141
        },
        {
          "duration": 0.066666749999996,
          "durationTicks": 24,
          "midi": 66,
          "name": "F#4",
          "ticks": 61152,
          "time": 169.86687899999998,
          "velocity": 0.6535433070866141
        },
        {
          "duration": 0.066666749999996,
          "durationTicks": 24,
          "midi": 66,
          "name": "F#4",
          "ticks": 61248,
          "time": 170.133546,
          "velocity": 0.6535433070866141
        },
        {
          "duration": 0.066666749999996,
          "durationTicks": 24,
          "midi": 62,
          "name": "D4",
          "ticks": 61248,
          "time": 170.133546,
          "velocity": 0.6535433070866141
        },
        {
          "duration": 0.066666749999996,
          "durationTicks": 24,
          "midi": 54,
          "name": "F#3",
          "ticks": 61248,
          "time": 170.133546,
          "velocity": 0.6535433070866141
        },
        {
          "duration": 0.066666749999996,
          "durationTicks": 24,
          "midi": 58,
          "name": "A#3",
          "ticks": 61248,
          "time": 170.133546,
          "velocity": 0.6535433070866141
        },
        {
          "duration": 0.066666749999996,
          "durationTicks": 24,
          "midi": 66,
          "name": "F#4",
          "ticks": 61296,
          "time": 170.2668795,
          "velocity": 0.6535433070866141
        },
        {
          "duration": 0.066666749999996,
          "durationTicks": 24,
          "midi": 62,
          "name": "D4",
          "ticks": 61296,
          "time": 170.2668795,
          "velocity": 0.6535433070866141
        },
        {
          "duration": 0.066666749999996,
          "durationTicks": 24,
          "midi": 58,
          "name": "A#3",
          "ticks": 61296,
          "time": 170.2668795,
          "velocity": 0.6535433070866141
        },
        {
          "duration": 0.066666749999996,
          "durationTicks": 24,
          "midi": 54,
          "name": "F#3",
          "ticks": 61296,
          "time": 170.2668795,
          "velocity": 0.6535433070866141
        },
        {
          "duration": 0.066666749999996,
          "durationTicks": 24,
          "midi": 58,
          "name": "A#3",
          "ticks": 61392,
          "time": 170.5335465,
          "velocity": 0.6535433070866141
        },
        {
          "duration": 0.066666749999996,
          "durationTicks": 24,
          "midi": 54,
          "name": "F#3",
          "ticks": 61392,
          "time": 170.5335465,
          "velocity": 0.6535433070866141
        },
        {
          "duration": 0.066666749999996,
          "durationTicks": 24,
          "midi": 62,
          "name": "D4",
          "ticks": 61392,
          "time": 170.5335465,
          "velocity": 0.6535433070866141
        },
        {
          "duration": 0.066666749999996,
          "durationTicks": 24,
          "midi": 66,
          "name": "F#4",
          "ticks": 61392,
          "time": 170.5335465,
          "velocity": 0.6535433070866141
        },
        {
          "duration": 0.066666749999996,
          "durationTicks": 24,
          "midi": 65,
          "name": "F4",
          "ticks": 61488,
          "time": 170.80021349999998,
          "velocity": 0.6535433070866141
        },
        {
          "duration": 0.066666749999996,
          "durationTicks": 24,
          "midi": 62,
          "name": "D4",
          "ticks": 61488,
          "time": 170.80021349999998,
          "velocity": 0.6535433070866141
        },
        {
          "duration": 0.066666749999996,
          "durationTicks": 24,
          "midi": 54,
          "name": "F#3",
          "ticks": 61488,
          "time": 170.80021349999998,
          "velocity": 0.6535433070866141
        },
        {
          "duration": 0.066666749999996,
          "durationTicks": 24,
          "midi": 58,
          "name": "A#3",
          "ticks": 61488,
          "time": 170.80021349999998,
          "velocity": 0.6535433070866141
        },
        {
          "duration": 0.066666749999996,
          "durationTicks": 24,
          "midi": 66,
          "name": "F#4",
          "ticks": 61536,
          "time": 170.933547,
          "velocity": 0.6535433070866141
        },
        {
          "duration": 0.066666749999996,
          "durationTicks": 24,
          "midi": 62,
          "name": "D4",
          "ticks": 61536,
          "time": 170.933547,
          "velocity": 0.6535433070866141
        },
        {
          "duration": 0.066666749999996,
          "durationTicks": 24,
          "midi": 54,
          "name": "F#3",
          "ticks": 61536,
          "time": 170.933547,
          "velocity": 0.6535433070866141
        },
        {
          "duration": 0.066666749999996,
          "durationTicks": 24,
          "midi": 58,
          "name": "A#3",
          "ticks": 61536,
          "time": 170.933547,
          "velocity": 0.6535433070866141
        },
        {
          "duration": 0.066666749999996,
          "durationTicks": 24,
          "midi": 54,
          "name": "F#3",
          "ticks": 61584,
          "time": 171.0668805,
          "velocity": 0.6535433070866141
        },
        {
          "duration": 0.066666749999996,
          "durationTicks": 24,
          "midi": 58,
          "name": "A#3",
          "ticks": 61584,
          "time": 171.0668805,
          "velocity": 0.6535433070866141
        },
        {
          "duration": 0.066666749999996,
          "durationTicks": 24,
          "midi": 62,
          "name": "D4",
          "ticks": 61584,
          "time": 171.0668805,
          "velocity": 0.6535433070866141
        },
        {
          "duration": 0.066666749999996,
          "durationTicks": 24,
          "midi": 65,
          "name": "F4",
          "ticks": 61584,
          "time": 171.0668805,
          "velocity": 0.6535433070866141
        },
        {
          "duration": 0.133333499999992,
          "durationTicks": 48,
          "midi": 65,
          "name": "F4",
          "ticks": 63168,
          "time": 175.466886,
          "velocity": 0.7795275590551181
        },
        {
          "duration": 0.133333499999992,
          "durationTicks": 48,
          "midi": 56,
          "name": "G#3",
          "ticks": 63168,
          "time": 175.466886,
          "velocity": 0.7795275590551181
        },
        {
          "duration": 0.133333499999992,
          "durationTicks": 48,
          "midi": 68,
          "name": "G#4",
          "ticks": 63168,
          "time": 175.466886,
          "velocity": 0.7795275590551181
        },
        {
          "duration": 0.133333499999992,
          "durationTicks": 48,
          "midi": 61,
          "name": "C#4",
          "ticks": 63168,
          "time": 175.466886,
          "velocity": 0.7795275590551181
        },
        {
          "duration": 0.133333499999992,
          "durationTicks": 48,
          "midi": 54,
          "name": "F#3",
          "ticks": 63240,
          "time": 175.66688625,
          "velocity": 0.7795275590551181
        },
        {
          "duration": 0.133333499999992,
          "durationTicks": 48,
          "midi": 63,
          "name": "D#4",
          "ticks": 63240,
          "time": 175.66688625,
          "velocity": 0.7795275590551181
        },
        {
          "duration": 0.133333499999992,
          "durationTicks": 48,
          "midi": 66,
          "name": "F#4",
          "ticks": 63240,
          "time": 175.66688625,
          "velocity": 0.7795275590551181
        },
        {
          "duration": 0.133333499999992,
          "durationTicks": 48,
          "midi": 60,
          "name": "C4",
          "ticks": 63240,
          "time": 175.66688625,
          "velocity": 0.7795275590551181
        },
        {
          "duration": 0.133333499999992,
          "durationTicks": 48,
          "midi": 54,
          "name": "F#3",
          "ticks": 63312,
          "time": 175.8668865,
          "velocity": 0.7795275590551181
        },
        {
          "duration": 0.133333499999992,
          "durationTicks": 48,
          "midi": 63,
          "name": "D#4",
          "ticks": 63312,
          "time": 175.8668865,
          "velocity": 0.7795275590551181
        },
        {
          "duration": 0.133333499999992,
          "durationTicks": 48,
          "midi": 66,
          "name": "F#4",
          "ticks": 63312,
          "time": 175.8668865,
          "velocity": 0.7795275590551181
        },
        {
          "duration": 0.133333499999992,
          "durationTicks": 48,
          "midi": 60,
          "name": "C4",
          "ticks": 63312,
          "time": 175.8668865,
          "velocity": 0.7795275590551181
        },
        {
          "duration": 0.266666999999984,
          "durationTicks": 96,
          "midi": 66,
          "name": "F#4",
          "ticks": 63456,
          "time": 176.266887,
          "velocity": 0.7795275590551181
        },
        {
          "duration": 0.266666999999984,
          "durationTicks": 96,
          "midi": 54,
          "name": "F#3",
          "ticks": 63456,
          "time": 176.266887,
          "velocity": 0.7795275590551181
        },
        {
          "duration": 0.266666999999984,
          "durationTicks": 96,
          "midi": 58,
          "name": "A#3",
          "ticks": 63456,
          "time": 176.266887,
          "velocity": 0.7795275590551181
        },
        {
          "duration": 0.266666999999984,
          "durationTicks": 96,
          "midi": 63,
          "name": "D#4",
          "ticks": 63456,
          "time": 176.266887,
          "velocity": 0.7795275590551181
        },
        {
          "duration": 0.2666670000000124,
          "durationTicks": 96,
          "midi": 53,
          "name": "F3",
          "ticks": 63648,
          "time": 176.800221,
          "velocity": 0.7795275590551181
        },
        {
          "duration": 0.2666670000000124,
          "durationTicks": 96,
          "midi": 58,
          "name": "A#3",
          "ticks": 63648,
          "time": 176.800221,
          "velocity": 0.7795275590551181
        },
        {
          "duration": 0.2666670000000124,
          "durationTicks": 96,
          "midi": 65,
          "name": "F4",
          "ticks": 63648,
          "time": 176.800221,
          "velocity": 0.7795275590551181
        },
        {
          "duration": 0.2666670000000124,
          "durationTicks": 96,
          "midi": 62,
          "name": "D4",
          "ticks": 63648,
          "time": 176.800221,
          "velocity": 0.7795275590551181
        },
        {
          "duration": 0.2666670000000124,
          "durationTicks": 96,
          "midi": 54,
          "name": "F#3",
          "ticks": 63840,
          "time": 177.333555,
          "velocity": 0.7795275590551181
        },
        {
          "duration": 0.2666670000000124,
          "durationTicks": 96,
          "midi": 66,
          "name": "F#4",
          "ticks": 63840,
          "time": 177.333555,
          "velocity": 0.7795275590551181
        },
        {
          "duration": 0.2666670000000124,
          "durationTicks": 96,
          "midi": 63,
          "name": "D#4",
          "ticks": 63840,
          "time": 177.333555,
          "velocity": 0.7795275590551181
        },
        {
          "duration": 0.2666670000000124,
          "durationTicks": 96,
          "midi": 58,
          "name": "A#3",
          "ticks": 63840,
          "time": 177.333555,
          "velocity": 0.7795275590551181
        },
        {
          "duration": 0.2666670000000124,
          "durationTicks": 96,
          "midi": 61,
          "name": "C#4",
          "ticks": 63840,
          "time": 177.333555,
          "velocity": 0.7795275590551181
        },
        {
          "duration": 0.2666670000000124,
          "durationTicks": 96,
          "midi": 55,
          "name": "G3",
          "ticks": 64032,
          "time": 177.866889,
          "velocity": 0.7795275590551181
        },
        {
          "duration": 0.2666670000000124,
          "durationTicks": 96,
          "midi": 58,
          "name": "A#3",
          "ticks": 64032,
          "time": 177.866889,
          "velocity": 0.7795275590551181
        },
        {
          "duration": 0.2666670000000124,
          "durationTicks": 96,
          "midi": 61,
          "name": "C#4",
          "ticks": 64032,
          "time": 177.866889,
          "velocity": 0.7795275590551181
        },
        {
          "duration": 0.2666670000000124,
          "durationTicks": 96,
          "midi": 67,
          "name": "G4",
          "ticks": 64032,
          "time": 177.866889,
          "velocity": 0.7795275590551181
        },
        {
          "duration": 0.2666670000000124,
          "durationTicks": 96,
          "midi": 56,
          "name": "G#3",
          "ticks": 64224,
          "time": 178.40022299999998,
          "velocity": 0.7795275590551181
        },
        {
          "duration": 0.2666670000000124,
          "durationTicks": 96,
          "midi": 59,
          "name": "B3",
          "ticks": 64224,
          "time": 178.40022299999998,
          "velocity": 0.7795275590551181
        },
        {
          "duration": 0.2666670000000124,
          "durationTicks": 96,
          "midi": 63,
          "name": "D#4",
          "ticks": 64224,
          "time": 178.40022299999998,
          "velocity": 0.7795275590551181
        },
        {
          "duration": 0.2666670000000124,
          "durationTicks": 96,
          "midi": 68,
          "name": "G#4",
          "ticks": 64224,
          "time": 178.40022299999998,
          "velocity": 0.7795275590551181
        },
        {
          "duration": 0.2666670000000124,
          "durationTicks": 96,
          "midi": 69,
          "name": "A4",
          "ticks": 64416,
          "time": 178.93355699999998,
          "velocity": 0.7795275590551181
        },
        {
          "duration": 0.2666670000000124,
          "durationTicks": 96,
          "midi": 60,
          "name": "C4",
          "ticks": 64416,
          "time": 178.93355699999998,
          "velocity": 0.7795275590551181
        },
        {
          "duration": 0.2666670000000124,
          "durationTicks": 96,
          "midi": 63,
          "name": "D#4",
          "ticks": 64416,
          "time": 178.93355699999998,
          "velocity": 0.7795275590551181
        },
        {
          "duration": 0.2666670000000124,
          "durationTicks": 96,
          "midi": 57,
          "name": "A3",
          "ticks": 64416,
          "time": 178.93355699999998,
          "velocity": 0.7795275590551181
        },
        {
          "duration": 0.2666670000000124,
          "durationTicks": 96,
          "midi": 58,
          "name": "A#3",
          "ticks": 64512,
          "time": 179.200224,
          "velocity": 0.7795275590551181
        },
        {
          "duration": 0.2666670000000124,
          "durationTicks": 96,
          "midi": 70,
          "name": "A#4",
          "ticks": 64512,
          "time": 179.200224,
          "velocity": 0.7795275590551181
        },
        {
          "duration": 0.2666670000000124,
          "durationTicks": 96,
          "midi": 62,
          "name": "D4",
          "ticks": 64512,
          "time": 179.200224,
          "velocity": 0.7795275590551181
        },
        {
          "duration": 0.2666670000000124,
          "durationTicks": 96,
          "midi": 65,
          "name": "F4",
          "ticks": 64512,
          "time": 179.200224,
          "velocity": 0.7795275590551181
        },
        {
          "duration": 0.266666999999984,
          "durationTicks": 96,
          "midi": 58,
          "name": "A#3",
          "ticks": 64608,
          "time": 179.466891,
          "velocity": 0.7795275590551181
        },
        {
          "duration": 0.266666999999984,
          "durationTicks": 96,
          "midi": 70,
          "name": "A#4",
          "ticks": 64608,
          "time": 179.466891,
          "velocity": 0.7795275590551181
        },
        {
          "duration": 0.266666999999984,
          "durationTicks": 96,
          "midi": 62,
          "name": "D4",
          "ticks": 64608,
          "time": 179.466891,
          "velocity": 0.7795275590551181
        },
        {
          "duration": 0.266666999999984,
          "durationTicks": 96,
          "midi": 65,
          "name": "F4",
          "ticks": 64608,
          "time": 179.466891,
          "velocity": 0.7795275590551181
        },
        {
          "duration": 0.2666670000000124,
          "durationTicks": 96,
          "midi": 66,
          "name": "F#4",
          "ticks": 64704,
          "time": 179.733558,
          "velocity": 0.7795275590551181
        },
        {
          "duration": 0.2666670000000124,
          "durationTicks": 96,
          "midi": 63,
          "name": "D#4",
          "ticks": 64704,
          "time": 179.733558,
          "velocity": 0.7795275590551181
        },
        {
          "duration": 0.2666670000000124,
          "durationTicks": 96,
          "midi": 71,
          "name": "B4",
          "ticks": 64704,
          "time": 179.733558,
          "velocity": 0.7795275590551181
        },
        {
          "duration": 0.2666670000000124,
          "durationTicks": 96,
          "midi": 59,
          "name": "B3",
          "ticks": 64704,
          "time": 179.733558,
          "velocity": 0.7795275590551181
        },
        {
          "duration": 0.266666999999984,
          "durationTicks": 96,
          "midi": 59,
          "name": "B3",
          "ticks": 64800,
          "time": 180.000225,
          "velocity": 0.7795275590551181
        },
        {
          "duration": 0.266666999999984,
          "durationTicks": 96,
          "midi": 71,
          "name": "B4",
          "ticks": 64800,
          "time": 180.000225,
          "velocity": 0.7795275590551181
        },
        {
          "duration": 0.266666999999984,
          "durationTicks": 96,
          "midi": 63,
          "name": "D#4",
          "ticks": 64800,
          "time": 180.000225,
          "velocity": 0.7795275590551181
        },
        {
          "duration": 0.266666999999984,
          "durationTicks": 96,
          "midi": 66,
          "name": "F#4",
          "ticks": 64800,
          "time": 180.000225,
          "velocity": 0.7795275590551181
        },
        {
          "duration": 0.2666670000000124,
          "durationTicks": 96,
          "midi": 67,
          "name": "G4",
          "ticks": 64896,
          "time": 180.26689199999998,
          "velocity": 0.7795275590551181
        },
        {
          "duration": 0.2666670000000124,
          "durationTicks": 96,
          "midi": 64,
          "name": "E4",
          "ticks": 64896,
          "time": 180.26689199999998,
          "velocity": 0.7795275590551181
        },
        {
          "duration": 0.2666670000000124,
          "durationTicks": 96,
          "midi": 72,
          "name": "C5",
          "ticks": 64896,
          "time": 180.26689199999998,
          "velocity": 0.7795275590551181
        },
        {
          "duration": 0.2666670000000124,
          "durationTicks": 96,
          "midi": 60,
          "name": "C4",
          "ticks": 64896,
          "time": 180.26689199999998,
          "velocity": 0.7795275590551181
        },
        {
          "duration": 0.266666999999984,
          "durationTicks": 96,
          "midi": 60,
          "name": "C4",
          "ticks": 64992,
          "time": 180.533559,
          "velocity": 0.7795275590551181
        },
        {
          "duration": 0.266666999999984,
          "durationTicks": 96,
          "midi": 72,
          "name": "C5",
          "ticks": 64992,
          "time": 180.533559,
          "velocity": 0.7795275590551181
        },
        {
          "duration": 0.266666999999984,
          "durationTicks": 96,
          "midi": 64,
          "name": "E4",
          "ticks": 64992,
          "time": 180.533559,
          "velocity": 0.7795275590551181
        },
        {
          "duration": 0.266666999999984,
          "durationTicks": 96,
          "midi": 67,
          "name": "G4",
          "ticks": 64992,
          "time": 180.533559,
          "velocity": 0.7795275590551181
        },
        {
          "duration": 0.2666670000000124,
          "durationTicks": 96,
          "midi": 61,
          "name": "C#4",
          "ticks": 65088,
          "time": 180.80022599999998,
          "velocity": 0.7795275590551181
        },
        {
          "duration": 0.2666670000000124,
          "durationTicks": 96,
          "midi": 73,
          "name": "C#5",
          "ticks": 65088,
          "time": 180.80022599999998,
          "velocity": 0.7795275590551181
        },
        {
          "duration": 0.2666670000000124,
          "durationTicks": 96,
          "midi": 65,
          "name": "F4",
          "ticks": 65088,
          "time": 180.80022599999998,
          "velocity": 0.7795275590551181
        },
        {
          "duration": 0.2666670000000124,
          "durationTicks": 96,
          "midi": 68,
          "name": "G#4",
          "ticks": 65088,
          "time": 180.80022599999998,
          "velocity": 0.7795275590551181
        },
        {
          "duration": 0.266666999999984,
          "durationTicks": 96,
          "midi": 61,
          "name": "C#4",
          "ticks": 65184,
          "time": 181.066893,
          "velocity": 0.7795275590551181
        },
        {
          "duration": 0.266666999999984,
          "durationTicks": 96,
          "midi": 73,
          "name": "C#5",
          "ticks": 65184,
          "time": 181.066893,
          "velocity": 0.7795275590551181
        },
        {
          "duration": 0.266666999999984,
          "durationTicks": 96,
          "midi": 65,
          "name": "F4",
          "ticks": 65184,
          "time": 181.066893,
          "velocity": 0.7795275590551181
        },
        {
          "duration": 0.266666999999984,
          "durationTicks": 96,
          "midi": 68,
          "name": "G#4",
          "ticks": 65184,
          "time": 181.066893,
          "velocity": 0.7795275590551181
        },
        {
          "duration": 0.5333339999999964,
          "durationTicks": 192,
          "midi": 58,
          "name": "A#3",
          "ticks": 66048,
          "time": 183.466896,
          "velocity": 0.7165354330708661
        },
        {
          "duration": 0.5333339999999964,
          "durationTicks": 192,
          "midi": 62,
          "name": "D4",
          "ticks": 66048,
          "time": 183.466896,
          "velocity": 0.7165354330708661
        },
        {
          "duration": 0.5333339999999964,
          "durationTicks": 192,
          "midi": 70,
          "name": "A#4",
          "ticks": 66048,
          "time": 183.466896,
          "velocity": 0.7165354330708661
        },
        {
          "duration": 0.5333339999999964,
          "durationTicks": 192,
          "midi": 67,
          "name": "G4",
          "ticks": 66048,
          "time": 183.466896,
          "velocity": 0.7165354330708661
        },
        {
          "duration": 0.5333339999999964,
          "durationTicks": 192,
          "midi": 66,
          "name": "F#4",
          "ticks": 66240,
          "time": 184.00023,
          "velocity": 0.7165354330708661
        },
        {
          "duration": 0.5333339999999964,
          "durationTicks": 192,
          "midi": 69,
          "name": "A4",
          "ticks": 66240,
          "time": 184.00023,
          "velocity": 0.7165354330708661
        },
        {
          "duration": 0.5333339999999964,
          "durationTicks": 192,
          "midi": 62,
          "name": "D4",
          "ticks": 66240,
          "time": 184.00023,
          "velocity": 0.7165354330708661
        },
        {
          "duration": 0.5333339999999964,
          "durationTicks": 192,
          "midi": 57,
          "name": "A3",
          "ticks": 66240,
          "time": 184.00023,
          "velocity": 0.7165354330708661
        },
        {
          "duration": 0.5333339999999964,
          "durationTicks": 192,
          "midi": 65,
          "name": "F4",
          "ticks": 66432,
          "time": 184.53356399999998,
          "velocity": 0.7165354330708661
        },
        {
          "duration": 0.5333339999999964,
          "durationTicks": 192,
          "midi": 62,
          "name": "D4",
          "ticks": 66432,
          "time": 184.53356399999998,
          "velocity": 0.7165354330708661
        },
        {
          "duration": 0.5333339999999964,
          "durationTicks": 192,
          "midi": 67,
          "name": "G4",
          "ticks": 66432,
          "time": 184.53356399999998,
          "velocity": 0.7165354330708661
        },
        {
          "duration": 0.5333339999999964,
          "durationTicks": 192,
          "midi": 70,
          "name": "A#4",
          "ticks": 66432,
          "time": 184.53356399999998,
          "velocity": 0.7165354330708661
        },
        {
          "duration": 0.5333339999999964,
          "durationTicks": 192,
          "midi": 55,
          "name": "G3",
          "ticks": 66432,
          "time": 184.53356399999998,
          "velocity": 0.7165354330708661
        },
        {
          "duration": 0.5333340000000248,
          "durationTicks": 192,
          "midi": 58,
          "name": "A#3",
          "ticks": 66624,
          "time": 185.06689799999998,
          "velocity": 0.7165354330708661
        },
        {
          "duration": 0.5333340000000248,
          "durationTicks": 192,
          "midi": 68,
          "name": "G#4",
          "ticks": 66624,
          "time": 185.06689799999998,
          "velocity": 0.7165354330708661
        },
        {
          "duration": 0.5333340000000248,
          "durationTicks": 192,
          "midi": 65,
          "name": "F4",
          "ticks": 66624,
          "time": 185.06689799999998,
          "velocity": 0.7165354330708661
        },
        {
          "duration": 0.5333340000000248,
          "durationTicks": 192,
          "midi": 62,
          "name": "D4",
          "ticks": 66624,
          "time": 185.06689799999998,
          "velocity": 0.7165354330708661
        },
        {
          "duration": 0.5333340000000248,
          "durationTicks": 192,
          "midi": 70,
          "name": "A#4",
          "ticks": 66624,
          "time": 185.06689799999998,
          "velocity": 0.7165354330708661
        },
        {
          "duration": 0.5333339999999964,
          "durationTicks": 192,
          "midi": 58,
          "name": "A#3",
          "ticks": 66816,
          "time": 185.600232,
          "velocity": 0.7165354330708661
        },
        {
          "duration": 0.5333339999999964,
          "durationTicks": 192,
          "midi": 70,
          "name": "A#4",
          "ticks": 66816,
          "time": 185.600232,
          "velocity": 0.7165354330708661
        },
        {
          "duration": 0.5333339999999964,
          "durationTicks": 192,
          "midi": 67,
          "name": "G4",
          "ticks": 66816,
          "time": 185.600232,
          "velocity": 0.7165354330708661
        },
        {
          "duration": 0.5333339999999964,
          "durationTicks": 192,
          "midi": 62,
          "name": "D4",
          "ticks": 66816,
          "time": 185.600232,
          "velocity": 0.7165354330708661
        },
        {
          "duration": 0.5333339999999964,
          "durationTicks": 192,
          "midi": 66,
          "name": "F#4",
          "ticks": 67008,
          "time": 186.133566,
          "velocity": 0.7165354330708661
        },
        {
          "duration": 0.5333339999999964,
          "durationTicks": 192,
          "midi": 62,
          "name": "D4",
          "ticks": 67008,
          "time": 186.133566,
          "velocity": 0.7165354330708661
        },
        {
          "duration": 0.5333339999999964,
          "durationTicks": 192,
          "midi": 69,
          "name": "A4",
          "ticks": 67008,
          "time": 186.133566,
          "velocity": 0.7165354330708661
        },
        {
          "duration": 0.5333339999999964,
          "durationTicks": 192,
          "midi": 57,
          "name": "A3",
          "ticks": 67008,
          "time": 186.133566,
          "velocity": 0.7165354330708661
        },
        {
          "duration": 0.266666999999984,
          "durationTicks": 96,
          "midi": 55,
          "name": "G3",
          "ticks": 67200,
          "time": 186.6669,
          "velocity": 0.7165354330708661
        },
        {
          "duration": 0.266666999999984,
          "durationTicks": 96,
          "midi": 62,
          "name": "D4",
          "ticks": 67200,
          "time": 186.6669,
          "velocity": 0.7165354330708661
        },
        {
          "duration": 0.266666999999984,
          "durationTicks": 96,
          "midi": 70,
          "name": "A#4",
          "ticks": 67200,
          "time": 186.6669,
          "velocity": 0.7165354330708661
        },
        {
          "duration": 0.266666999999984,
          "durationTicks": 96,
          "midi": 67,
          "name": "G4",
          "ticks": 67200,
          "time": 186.6669,
          "velocity": 0.7165354330708661
        },
        {
          "duration": 0.2666670000000124,
          "durationTicks": 96,
          "midi": 54,
          "name": "F#3",
          "ticks": 67296,
          "time": 186.93356699999998,
          "velocity": 0.7165354330708661
        },
        {
          "duration": 0.2666670000000124,
          "durationTicks": 96,
          "midi": 70,
          "name": "A#4",
          "ticks": 67296,
          "time": 186.93356699999998,
          "velocity": 0.7165354330708661
        },
        {
          "duration": 0.2666670000000124,
          "durationTicks": 96,
          "midi": 66,
          "name": "F#4",
          "ticks": 67296,
          "time": 186.93356699999998,
          "velocity": 0.7165354330708661
        },
        {
          "duration": 0.2666670000000124,
          "durationTicks": 96,
          "midi": 62,
          "name": "D4",
          "ticks": 67296,
          "time": 186.93356699999998,
          "velocity": 0.7165354330708661
        },
        {
          "duration": 0.266666999999984,
          "durationTicks": 96,
          "midi": 53,
          "name": "F3",
          "ticks": 67392,
          "time": 187.200234,
          "velocity": 0.7165354330708661
        },
        {
          "duration": 0.266666999999984,
          "durationTicks": 96,
          "midi": 65,
          "name": "F4",
          "ticks": 67392,
          "time": 187.200234,
          "velocity": 0.7165354330708661
        },
        {
          "duration": 0.266666999999984,
          "durationTicks": 96,
          "midi": 70,
          "name": "A#4",
          "ticks": 67392,
          "time": 187.200234,
          "velocity": 0.7165354330708661
        },
        {
          "duration": 0.266666999999984,
          "durationTicks": 96,
          "midi": 62,
          "name": "D4",
          "ticks": 67392,
          "time": 187.200234,
          "velocity": 0.7165354330708661
        },
        {
          "duration": 0.2666670000000124,
          "durationTicks": 96,
          "midi": 58,
          "name": "A#3",
          "ticks": 67488,
          "time": 187.46690099999998,
          "velocity": 0.7165354330708661
        },
        {
          "duration": 0.2666670000000124,
          "durationTicks": 96,
          "midi": 66,
          "name": "F#4",
          "ticks": 67488,
          "time": 187.46690099999998,
          "velocity": 0.7165354330708661
        },
        {
          "duration": 0.2666670000000124,
          "durationTicks": 96,
          "midi": 62,
          "name": "D4",
          "ticks": 67488,
          "time": 187.46690099999998,
          "velocity": 0.7165354330708661
        },
        {
          "duration": 0.2666670000000124,
          "durationTicks": 96,
          "midi": 70,
          "name": "A#4",
          "ticks": 67488,
          "time": 187.46690099999998,
          "velocity": 0.7165354330708661
        },
        {
          "duration": 0.5333339999999964,
          "durationTicks": 192,
          "midi": 67,
          "name": "G4",
          "ticks": 67584,
          "time": 187.733568,
          "velocity": 0.7165354330708661
        },
        {
          "duration": 0.5333339999999964,
          "durationTicks": 192,
          "midi": 70,
          "name": "A#4",
          "ticks": 67584,
          "time": 187.733568,
          "velocity": 0.7165354330708661
        },
        {
          "duration": 0.5333339999999964,
          "durationTicks": 192,
          "midi": 62,
          "name": "D4",
          "ticks": 67584,
          "time": 187.733568,
          "velocity": 0.7165354330708661
        },
        {
          "duration": 0.5333339999999964,
          "durationTicks": 192,
          "midi": 58,
          "name": "A#3",
          "ticks": 67584,
          "time": 187.733568,
          "velocity": 0.7165354330708661
        },
        {
          "duration": 0.5333339999999964,
          "durationTicks": 192,
          "midi": 66,
          "name": "F#4",
          "ticks": 67776,
          "time": 188.266902,
          "velocity": 0.7165354330708661
        },
        {
          "duration": 0.5333339999999964,
          "durationTicks": 192,
          "midi": 62,
          "name": "D4",
          "ticks": 67776,
          "time": 188.266902,
          "velocity": 0.7165354330708661
        },
        {
          "duration": 0.5333339999999964,
          "durationTicks": 192,
          "midi": 69,
          "name": "A4",
          "ticks": 67776,
          "time": 188.266902,
          "velocity": 0.7165354330708661
        },
        {
          "duration": 0.5333339999999964,
          "durationTicks": 192,
          "midi": 57,
          "name": "A3",
          "ticks": 67776,
          "time": 188.266902,
          "velocity": 0.7165354330708661
        },
        {
          "duration": 0.5333339999999964,
          "durationTicks": 192,
          "midi": 55,
          "name": "G3",
          "ticks": 67968,
          "time": 188.80023599999998,
          "velocity": 0.7165354330708661
        },
        {
          "duration": 0.5333339999999964,
          "durationTicks": 192,
          "midi": 70,
          "name": "A#4",
          "ticks": 67968,
          "time": 188.80023599999998,
          "velocity": 0.7165354330708661
        },
        {
          "duration": 0.5333339999999964,
          "durationTicks": 192,
          "midi": 67,
          "name": "G4",
          "ticks": 67968,
          "time": 188.80023599999998,
          "velocity": 0.7165354330708661
        },
        {
          "duration": 0.5333339999999964,
          "durationTicks": 192,
          "midi": 62,
          "name": "D4",
          "ticks": 67968,
          "time": 188.80023599999998,
          "velocity": 0.7165354330708661
        },
        {
          "duration": 0.5333339999999964,
          "durationTicks": 192,
          "midi": 65,
          "name": "F4",
          "ticks": 67968,
          "time": 188.80023599999998,
          "velocity": 0.7165354330708661
        },
        {
          "duration": 0.2666670000000124,
          "durationTicks": 96,
          "midi": 58,
          "name": "A#3",
          "ticks": 68160,
          "time": 189.33356999999998,
          "velocity": 0.7165354330708661
        },
        {
          "duration": 0.2666670000000124,
          "durationTicks": 96,
          "midi": 65,
          "name": "F4",
          "ticks": 68160,
          "time": 189.33356999999998,
          "velocity": 0.7165354330708661
        },
        {
          "duration": 0.2666670000000124,
          "durationTicks": 96,
          "midi": 62,
          "name": "D4",
          "ticks": 68160,
          "time": 189.33356999999998,
          "velocity": 0.7165354330708661
        },
        {
          "duration": 0.2666670000000124,
          "durationTicks": 96,
          "midi": 70,
          "name": "A#4",
          "ticks": 68160,
          "time": 189.33356999999998,
          "velocity": 0.7165354330708661
        },
        {
          "duration": 0.266666999999984,
          "durationTicks": 96,
          "midi": 59,
          "name": "B3",
          "ticks": 68256,
          "time": 189.600237,
          "velocity": 0.7165354330708661
        },
        {
          "duration": 0.266666999999984,
          "durationTicks": 96,
          "midi": 65,
          "name": "F4",
          "ticks": 68256,
          "time": 189.600237,
          "velocity": 0.7165354330708661
        },
        {
          "duration": 0.266666999999984,
          "durationTicks": 96,
          "midi": 62,
          "name": "D4",
          "ticks": 68256,
          "time": 189.600237,
          "velocity": 0.7165354330708661
        },
        {
          "duration": 0.266666999999984,
          "durationTicks": 96,
          "midi": 71,
          "name": "B4",
          "ticks": 68256,
          "time": 189.600237,
          "velocity": 0.7165354330708661
        },
        {
          "duration": 0.5333340000000248,
          "durationTicks": 192,
          "midi": 60,
          "name": "C4",
          "ticks": 68352,
          "time": 189.86690399999998,
          "velocity": 0.7165354330708661
        },
        {
          "duration": 0.5333340000000248,
          "durationTicks": 192,
          "midi": 72,
          "name": "C5",
          "ticks": 68352,
          "time": 189.86690399999998,
          "velocity": 0.7165354330708661
        },
        {
          "duration": 0.5333340000000248,
          "durationTicks": 192,
          "midi": 63,
          "name": "D#4",
          "ticks": 68352,
          "time": 189.86690399999998,
          "velocity": 0.7165354330708661
        },
        {
          "duration": 0.5333340000000248,
          "durationTicks": 192,
          "midi": 67,
          "name": "G4",
          "ticks": 68352,
          "time": 189.86690399999998,
          "velocity": 0.7165354330708661
        },
        {
          "duration": 0.5333339999999964,
          "durationTicks": 192,
          "midi": 57,
          "name": "A3",
          "ticks": 68544,
          "time": 190.400238,
          "velocity": 0.7165354330708661
        },
        {
          "duration": 0.5333339999999964,
          "durationTicks": 192,
          "midi": 73,
          "name": "C#5",
          "ticks": 68544,
          "time": 190.400238,
          "velocity": 0.7165354330708661
        },
        {
          "duration": 0.5333339999999964,
          "durationTicks": 192,
          "midi": 69,
          "name": "A4",
          "ticks": 68544,
          "time": 190.400238,
          "velocity": 0.7165354330708661
        },
        {
          "duration": 0.5333339999999964,
          "durationTicks": 192,
          "midi": 64,
          "name": "E4",
          "ticks": 68544,
          "time": 190.400238,
          "velocity": 0.7165354330708661
        },
        {
          "duration": 0.133333499999992,
          "durationTicks": 48,
          "midi": 57,
          "name": "A3",
          "ticks": 68736,
          "time": 190.933572,
          "velocity": 0.7165354330708661
        },
        {
          "duration": 0.133333499999992,
          "durationTicks": 48,
          "midi": 62,
          "name": "D4",
          "ticks": 68736,
          "time": 190.933572,
          "velocity": 0.7165354330708661
        },
        {
          "duration": 0.133333499999992,
          "durationTicks": 48,
          "midi": 69,
          "name": "A4",
          "ticks": 68736,
          "time": 190.933572,
          "velocity": 0.7165354330708661
        },
        {
          "duration": 0.133333499999992,
          "durationTicks": 48,
          "midi": 74,
          "name": "D5",
          "ticks": 68736,
          "time": 190.933572,
          "velocity": 0.7165354330708661
        },
        {
          "duration": 0.133333499999992,
          "durationTicks": 48,
          "midi": 67,
          "name": "G4",
          "ticks": 68736,
          "time": 190.933572,
          "velocity": 0.7165354330708661
        },
        {
          "duration": 0.13333350000002042,
          "durationTicks": 48,
          "midi": 57,
          "name": "A3",
          "ticks": 68832,
          "time": 191.20023899999998,
          "velocity": 0.7165354330708661
        },
        {
          "duration": 0.13333350000002042,
          "durationTicks": 48,
          "midi": 62,
          "name": "D4",
          "ticks": 68832,
          "time": 191.20023899999998,
          "velocity": 0.7165354330708661
        },
        {
          "duration": 0.13333350000002042,
          "durationTicks": 48,
          "midi": 69,
          "name": "A4",
          "ticks": 68832,
          "time": 191.20023899999998,
          "velocity": 0.7165354330708661
        },
        {
          "duration": 0.13333350000002042,
          "durationTicks": 48,
          "midi": 74,
          "name": "D5",
          "ticks": 68832,
          "time": 191.20023899999998,
          "velocity": 0.7165354330708661
        },
        {
          "duration": 0.13333350000002042,
          "durationTicks": 48,
          "midi": 67,
          "name": "G4",
          "ticks": 68832,
          "time": 191.20023899999998,
          "velocity": 0.7165354330708661
        },
        {
          "duration": 0.133333499999992,
          "durationTicks": 48,
          "midi": 66,
          "name": "F#4",
          "ticks": 68928,
          "time": 191.466906,
          "velocity": 0.7165354330708661
        },
        {
          "duration": 0.133333499999992,
          "durationTicks": 48,
          "midi": 62,
          "name": "D4",
          "ticks": 68928,
          "time": 191.466906,
          "velocity": 0.7165354330708661
        },
        {
          "duration": 0.133333499999992,
          "durationTicks": 48,
          "midi": 69,
          "name": "A4",
          "ticks": 68928,
          "time": 191.466906,
          "velocity": 0.7165354330708661
        },
        {
          "duration": 0.133333499999992,
          "durationTicks": 48,
          "midi": 74,
          "name": "D5",
          "ticks": 68928,
          "time": 191.466906,
          "velocity": 0.7165354330708661
        },
        {
          "duration": 0.133333499999992,
          "durationTicks": 48,
          "midi": 57,
          "name": "A3",
          "ticks": 68928,
          "time": 191.466906,
          "velocity": 0.7165354330708661
        },
        {
          "duration": 0.5333339999999964,
          "durationTicks": 192,
          "midi": 58,
          "name": "A#3",
          "ticks": 69120,
          "time": 192.00024,
          "velocity": 0.7165354330708661
        },
        {
          "duration": 0.5333339999999964,
          "durationTicks": 192,
          "midi": 70,
          "name": "A#4",
          "ticks": 69120,
          "time": 192.00024,
          "velocity": 0.7165354330708661
        },
        {
          "duration": 0.5333339999999964,
          "durationTicks": 192,
          "midi": 67,
          "name": "G4",
          "ticks": 69120,
          "time": 192.00024,
          "velocity": 0.7165354330708661
        },
        {
          "duration": 0.5333339999999964,
          "durationTicks": 192,
          "midi": 62,
          "name": "D4",
          "ticks": 69120,
          "time": 192.00024,
          "velocity": 0.7165354330708661
        },
        {
          "duration": 0.5333339999999964,
          "durationTicks": 192,
          "midi": 57,
          "name": "A3",
          "ticks": 69312,
          "time": 192.533574,
          "velocity": 0.7165354330708661
        },
        {
          "duration": 0.5333339999999964,
          "durationTicks": 192,
          "midi": 62,
          "name": "D4",
          "ticks": 69312,
          "time": 192.533574,
          "velocity": 0.7165354330708661
        },
        {
          "duration": 0.5333339999999964,
          "durationTicks": 192,
          "midi": 69,
          "name": "A4",
          "ticks": 69312,
          "time": 192.533574,
          "velocity": 0.7165354330708661
        },
        {
          "duration": 0.5333339999999964,
          "durationTicks": 192,
          "midi": 66,
          "name": "F#4",
          "ticks": 69312,
          "time": 192.533574,
          "velocity": 0.7165354330708661
        },
        {
          "duration": 0.5333339999999964,
          "durationTicks": 192,
          "midi": 55,
          "name": "G3",
          "ticks": 69504,
          "time": 193.06690799999998,
          "velocity": 0.7165354330708661
        },
        {
          "duration": 0.5333339999999964,
          "durationTicks": 192,
          "midi": 70,
          "name": "A#4",
          "ticks": 69504,
          "time": 193.06690799999998,
          "velocity": 0.7165354330708661
        },
        {
          "duration": 0.5333339999999964,
          "durationTicks": 192,
          "midi": 67,
          "name": "G4",
          "ticks": 69504,
          "time": 193.06690799999998,
          "velocity": 0.7165354330708661
        },
        {
          "duration": 0.5333339999999964,
          "durationTicks": 192,
          "midi": 62,
          "name": "D4",
          "ticks": 69504,
          "time": 193.06690799999998,
          "velocity": 0.7165354330708661
        },
        {
          "duration": 0.5333339999999964,
          "durationTicks": 192,
          "midi": 65,
          "name": "F4",
          "ticks": 69504,
          "time": 193.06690799999998,
          "velocity": 0.7165354330708661
        },
        {
          "duration": 0.5333340000000248,
          "durationTicks": 192,
          "midi": 70,
          "name": "A#4",
          "ticks": 69696,
          "time": 193.60024199999998,
          "velocity": 0.7165354330708661
        },
        {
          "duration": 0.5333340000000248,
          "durationTicks": 192,
          "midi": 62,
          "name": "D4",
          "ticks": 69696,
          "time": 193.60024199999998,
          "velocity": 0.7165354330708661
        },
        {
          "duration": 0.5333340000000248,
          "durationTicks": 192,
          "midi": 65,
          "name": "F4",
          "ticks": 69696,
          "time": 193.60024199999998,
          "velocity": 0.7165354330708661
        },
        {
          "duration": 0.5333340000000248,
          "durationTicks": 192,
          "midi": 68,
          "name": "G#4",
          "ticks": 69696,
          "time": 193.60024199999998,
          "velocity": 0.7165354330708661
        },
        {
          "duration": 0.5333340000000248,
          "durationTicks": 192,
          "midi": 58,
          "name": "A#3",
          "ticks": 69696,
          "time": 193.60024199999998,
          "velocity": 0.7165354330708661
        },
        {
          "duration": 0.5333339999999964,
          "durationTicks": 192,
          "midi": 62,
          "name": "D4",
          "ticks": 69888,
          "time": 194.133576,
          "velocity": 0.7165354330708661
        },
        {
          "duration": 0.5333339999999964,
          "durationTicks": 192,
          "midi": 67,
          "name": "G4",
          "ticks": 69888,
          "time": 194.133576,
          "velocity": 0.7165354330708661
        },
        {
          "duration": 0.5333339999999964,
          "durationTicks": 192,
          "midi": 70,
          "name": "A#4",
          "ticks": 69888,
          "time": 194.133576,
          "velocity": 0.7165354330708661
        },
        {
          "duration": 0.5333339999999964,
          "durationTicks": 192,
          "midi": 58,
          "name": "A#3",
          "ticks": 69888,
          "time": 194.133576,
          "velocity": 0.7165354330708661
        },
        {
          "duration": 0.5333339999999964,
          "durationTicks": 192,
          "midi": 66,
          "name": "F#4",
          "ticks": 70080,
          "time": 194.66691,
          "velocity": 0.7165354330708661
        },
        {
          "duration": 0.5333339999999964,
          "durationTicks": 192,
          "midi": 62,
          "name": "D4",
          "ticks": 70080,
          "time": 194.66691,
          "velocity": 0.7165354330708661
        },
        {
          "duration": 0.5333339999999964,
          "durationTicks": 192,
          "midi": 69,
          "name": "A4",
          "ticks": 70080,
          "time": 194.66691,
          "velocity": 0.7165354330708661
        },
        {
          "duration": 0.5333339999999964,
          "durationTicks": 192,
          "midi": 57,
          "name": "A3",
          "ticks": 70080,
          "time": 194.66691,
          "velocity": 0.7165354330708661
        },
        {
          "duration": 0.266666999999984,
          "durationTicks": 96,
          "midi": 67,
          "name": "G4",
          "ticks": 70272,
          "time": 195.200244,
          "velocity": 0.7165354330708661
        },
        {
          "duration": 0.266666999999984,
          "durationTicks": 96,
          "midi": 70,
          "name": "A#4",
          "ticks": 70272,
          "time": 195.200244,
          "velocity": 0.7165354330708661
        },
        {
          "duration": 0.266666999999984,
          "durationTicks": 96,
          "midi": 62,
          "name": "D4",
          "ticks": 70272,
          "time": 195.200244,
          "velocity": 0.7165354330708661
        },
        {
          "duration": 0.266666999999984,
          "durationTicks": 96,
          "midi": 55,
          "name": "G3",
          "ticks": 70272,
          "time": 195.200244,
          "velocity": 0.7165354330708661
        },
        {
          "duration": 0.2666670000000124,
          "durationTicks": 96,
          "midi": 54,
          "name": "F#3",
          "ticks": 70368,
          "time": 195.46691099999998,
          "velocity": 0.7165354330708661
        },
        {
          "duration": 0.2666670000000124,
          "durationTicks": 96,
          "midi": 70,
          "name": "A#4",
          "ticks": 70368,
          "time": 195.46691099999998,
          "velocity": 0.7165354330708661
        },
        {
          "duration": 0.2666670000000124,
          "durationTicks": 96,
          "midi": 66,
          "name": "F#4",
          "ticks": 70368,
          "time": 195.46691099999998,
          "velocity": 0.7165354330708661
        },
        {
          "duration": 0.2666670000000124,
          "durationTicks": 96,
          "midi": 62,
          "name": "D4",
          "ticks": 70368,
          "time": 195.46691099999998,
          "velocity": 0.7165354330708661
        },
        {
          "duration": 0.266666999999984,
          "durationTicks": 96,
          "midi": 62,
          "name": "D4",
          "ticks": 70464,
          "time": 195.733578,
          "velocity": 0.7165354330708661
        },
        {
          "duration": 0.266666999999984,
          "durationTicks": 96,
          "midi": 70,
          "name": "A#4",
          "ticks": 70464,
          "time": 195.733578,
          "velocity": 0.7165354330708661
        },
        {
          "duration": 0.266666999999984,
          "durationTicks": 96,
          "midi": 65,
          "name": "F4",
          "ticks": 70464,
          "time": 195.733578,
          "velocity": 0.7165354330708661
        },
        {
          "duration": 0.266666999999984,
          "durationTicks": 96,
          "midi": 53,
          "name": "F3",
          "ticks": 70464,
          "time": 195.733578,
          "velocity": 0.7165354330708661
        },
        {
          "duration": 0.5333339999999964,
          "durationTicks": 192,
          "midi": 58,
          "name": "A#3",
          "ticks": 70656,
          "time": 196.266912,
          "velocity": 0.7165354330708661
        },
        {
          "duration": 0.5333339999999964,
          "durationTicks": 192,
          "midi": 62,
          "name": "D4",
          "ticks": 70656,
          "time": 196.266912,
          "velocity": 0.7165354330708661
        },
        {
          "duration": 0.5333339999999964,
          "durationTicks": 192,
          "midi": 70,
          "name": "A#4",
          "ticks": 70656,
          "time": 196.266912,
          "velocity": 0.7165354330708661
        },
        {
          "duration": 0.5333339999999964,
          "durationTicks": 192,
          "midi": 67,
          "name": "G4",
          "ticks": 70656,
          "time": 196.266912,
          "velocity": 0.7165354330708661
        },
        {
          "duration": 0.5333339999999964,
          "durationTicks": 192,
          "midi": 57,
          "name": "A3",
          "ticks": 70848,
          "time": 196.800246,
          "velocity": 0.7165354330708661
        },
        {
          "duration": 0.5333339999999964,
          "durationTicks": 192,
          "midi": 69,
          "name": "A4",
          "ticks": 70848,
          "time": 196.800246,
          "velocity": 0.7165354330708661
        },
        {
          "duration": 0.5333339999999964,
          "durationTicks": 192,
          "midi": 62,
          "name": "D4",
          "ticks": 70848,
          "time": 196.800246,
          "velocity": 0.7165354330708661
        },
        {
          "duration": 0.5333339999999964,
          "durationTicks": 192,
          "midi": 66,
          "name": "F#4",
          "ticks": 70848,
          "time": 196.800246,
          "velocity": 0.7165354330708661
        },
        {
          "duration": 0.5333339999999964,
          "durationTicks": 192,
          "midi": 65,
          "name": "F4",
          "ticks": 71040,
          "time": 197.33357999999998,
          "velocity": 0.7165354330708661
        },
        {
          "duration": 0.5333339999999964,
          "durationTicks": 192,
          "midi": 62,
          "name": "D4",
          "ticks": 71040,
          "time": 197.33357999999998,
          "velocity": 0.7165354330708661
        },
        {
          "duration": 0.5333339999999964,
          "durationTicks": 192,
          "midi": 67,
          "name": "G4",
          "ticks": 71040,
          "time": 197.33357999999998,
          "velocity": 0.7165354330708661
        },
        {
          "duration": 0.5333339999999964,
          "durationTicks": 192,
          "midi": 70,
          "name": "A#4",
          "ticks": 71040,
          "time": 197.33357999999998,
          "velocity": 0.7165354330708661
        },
        {
          "duration": 0.5333339999999964,
          "durationTicks": 192,
          "midi": 55,
          "name": "G3",
          "ticks": 71040,
          "time": 197.33357999999998,
          "velocity": 0.7165354330708661
        },
        {
          "duration": 0.2666670000000124,
          "durationTicks": 96,
          "midi": 58,
          "name": "A#3",
          "ticks": 71232,
          "time": 197.86691399999998,
          "velocity": 0.7165354330708661
        },
        {
          "duration": 0.2666670000000124,
          "durationTicks": 96,
          "midi": 65,
          "name": "F4",
          "ticks": 71232,
          "time": 197.86691399999998,
          "velocity": 0.7165354330708661
        },
        {
          "duration": 0.2666670000000124,
          "durationTicks": 96,
          "midi": 62,
          "name": "D4",
          "ticks": 71232,
          "time": 197.86691399999998,
          "velocity": 0.7165354330708661
        },
        {
          "duration": 0.2666670000000124,
          "durationTicks": 96,
          "midi": 70,
          "name": "A#4",
          "ticks": 71232,
          "time": 197.86691399999998,
          "velocity": 0.7165354330708661
        },
        {
          "duration": 0.266666999999984,
          "durationTicks": 96,
          "midi": 71,
          "name": "B4",
          "ticks": 71328,
          "time": 198.133581,
          "velocity": 0.7165354330708661
        },
        {
          "duration": 0.266666999999984,
          "durationTicks": 96,
          "midi": 62,
          "name": "D4",
          "ticks": 71328,
          "time": 198.133581,
          "velocity": 0.7165354330708661
        },
        {
          "duration": 0.266666999999984,
          "durationTicks": 96,
          "midi": 65,
          "name": "F4",
          "ticks": 71328,
          "time": 198.133581,
          "velocity": 0.7165354330708661
        },
        {
          "duration": 0.266666999999984,
          "durationTicks": 96,
          "midi": 59,
          "name": "B3",
          "ticks": 71328,
          "time": 198.133581,
          "velocity": 0.7165354330708661
        },
        {
          "duration": 0.13333350000002042,
          "durationTicks": 48,
          "midi": 72,
          "name": "C5",
          "ticks": 71424,
          "time": 198.40024799999998,
          "velocity": 0.7165354330708661
        },
        {
          "duration": 0.13333350000002042,
          "durationTicks": 48,
          "midi": 67,
          "name": "G4",
          "ticks": 71424,
          "time": 198.40024799999998,
          "velocity": 0.7165354330708661
        },
        {
          "duration": 0.13333350000002042,
          "durationTicks": 48,
          "midi": 63,
          "name": "D#4",
          "ticks": 71424,
          "time": 198.40024799999998,
          "velocity": 0.7165354330708661
        },
        {
          "duration": 0.13333350000002042,
          "durationTicks": 48,
          "midi": 60,
          "name": "C4",
          "ticks": 71424,
          "time": 198.40024799999998,
          "velocity": 0.7165354330708661
        },
        {
          "duration": 0.133333499999992,
          "durationTicks": 48,
          "midi": 60,
          "name": "C4",
          "ticks": 71472,
          "time": 198.5335815,
          "velocity": 0.7165354330708661
        },
        {
          "duration": 0.133333499999992,
          "durationTicks": 48,
          "midi": 63,
          "name": "D#4",
          "ticks": 71472,
          "time": 198.5335815,
          "velocity": 0.7165354330708661
        },
        {
          "duration": 0.133333499999992,
          "durationTicks": 48,
          "midi": 67,
          "name": "G4",
          "ticks": 71472,
          "time": 198.5335815,
          "velocity": 0.7165354330708661
        },
        {
          "duration": 0.133333499999992,
          "durationTicks": 48,
          "midi": 72,
          "name": "C5",
          "ticks": 71472,
          "time": 198.5335815,
          "velocity": 0.7165354330708661
        },
        {
          "duration": 0.133333499999992,
          "durationTicks": 48,
          "midi": 66,
          "name": "F#4",
          "ticks": 71616,
          "time": 198.933582,
          "velocity": 0.7165354330708661
        },
        {
          "duration": 0.133333499999992,
          "durationTicks": 48,
          "midi": 69,
          "name": "A4",
          "ticks": 71616,
          "time": 198.933582,
          "velocity": 0.7165354330708661
        },
        {
          "duration": 0.133333499999992,
          "durationTicks": 48,
          "midi": 74,
          "name": "D5",
          "ticks": 71616,
          "time": 198.933582,
          "velocity": 0.7165354330708661
        },
        {
          "duration": 0.133333499999992,
          "durationTicks": 48,
          "midi": 62,
          "name": "D4",
          "ticks": 71616,
          "time": 198.933582,
          "velocity": 0.7165354330708661
        },
        {
          "duration": 0.133333499999992,
          "durationTicks": 48,
          "midi": 62,
          "name": "D4",
          "ticks": 71664,
          "time": 199.0669155,
          "velocity": 0.7165354330708661
        },
        {
          "duration": 0.133333499999992,
          "durationTicks": 48,
          "midi": 74,
          "name": "D5",
          "ticks": 71664,
          "time": 199.0669155,
          "velocity": 0.7165354330708661
        },
        {
          "duration": 0.133333499999992,
          "durationTicks": 48,
          "midi": 69,
          "name": "A4",
          "ticks": 71664,
          "time": 199.0669155,
          "velocity": 0.7165354330708661
        },
        {
          "duration": 0.133333499999992,
          "durationTicks": 48,
          "midi": 66,
          "name": "F#4",
          "ticks": 71664,
          "time": 199.0669155,
          "velocity": 0.7165354330708661
        },
        {
          "duration": 0.133333499999992,
          "durationTicks": 48,
          "midi": 72,
          "name": "C5",
          "ticks": 71808,
          "time": 199.466916,
          "velocity": 0.7165354330708661
        },
        {
          "duration": 0.133333499999992,
          "durationTicks": 48,
          "midi": 62,
          "name": "D4",
          "ticks": 71808,
          "time": 199.466916,
          "velocity": 0.7165354330708661
        },
        {
          "duration": 0.133333499999992,
          "durationTicks": 48,
          "midi": 67,
          "name": "G4",
          "ticks": 71808,
          "time": 199.466916,
          "velocity": 0.7165354330708661
        },
        {
          "duration": 0.133333499999992,
          "durationTicks": 48,
          "midi": 60,
          "name": "C4",
          "ticks": 71808,
          "time": 199.466916,
          "velocity": 0.7165354330708661
        },
        {
          "duration": 0.13333350000002042,
          "durationTicks": 48,
          "midi": 62,
          "name": "D4",
          "ticks": 71904,
          "time": 199.73358299999998,
          "velocity": 0.7165354330708661
        },
        {
          "duration": 0.13333350000002042,
          "durationTicks": 48,
          "midi": 69,
          "name": "A4",
          "ticks": 71904,
          "time": 199.73358299999998,
          "velocity": 0.7165354330708661
        },
        {
          "duration": 0.13333350000002042,
          "durationTicks": 48,
          "midi": 67,
          "name": "G4",
          "ticks": 71904,
          "time": 199.73358299999998,
          "velocity": 0.7165354330708661
        },
        {
          "duration": 0.13333350000002042,
          "durationTicks": 48,
          "midi": 57,
          "name": "A3",
          "ticks": 71904,
          "time": 199.73358299999998,
          "velocity": 0.7165354330708661
        },
        {
          "duration": 0.266666999999984,
          "durationTicks": 96,
          "midi": 62,
          "name": "D4",
          "ticks": 72000,
          "time": 200.00025,
          "velocity": 0.7165354330708661
        },
        {
          "duration": 0.266666999999984,
          "durationTicks": 96,
          "midi": 70,
          "name": "A#4",
          "ticks": 72000,
          "time": 200.00025,
          "velocity": 0.7165354330708661
        },
        {
          "duration": 0.266666999999984,
          "durationTicks": 96,
          "midi": 67,
          "name": "G4",
          "ticks": 72000,
          "time": 200.00025,
          "velocity": 0.7165354330708661
        },
        {
          "duration": 0.266666999999984,
          "durationTicks": 96,
          "midi": 58,
          "name": "A#3",
          "ticks": 72000,
          "time": 200.00025,
          "velocity": 0.7165354330708661
        },
        {
          "duration": 0.133333499999992,
          "durationTicks": 48,
          "midi": 60,
          "name": "C4",
          "ticks": 72192,
          "time": 200.533584,
          "velocity": 0.7165354330708661
        },
        {
          "duration": 0.133333499999992,
          "durationTicks": 48,
          "midi": 63,
          "name": "D#4",
          "ticks": 72192,
          "time": 200.533584,
          "velocity": 0.7165354330708661
        },
        {
          "duration": 0.133333499999992,
          "durationTicks": 48,
          "midi": 67,
          "name": "G4",
          "ticks": 72192,
          "time": 200.533584,
          "velocity": 0.7165354330708661
        },
        {
          "duration": 0.133333499999992,
          "durationTicks": 48,
          "midi": 72,
          "name": "C5",
          "ticks": 72192,
          "time": 200.533584,
          "velocity": 0.7165354330708661
        },
        {
          "duration": 0.13333350000002042,
          "durationTicks": 48,
          "midi": 60,
          "name": "C4",
          "ticks": 72240,
          "time": 200.66691749999998,
          "velocity": 0.7165354330708661
        },
        {
          "duration": 0.13333350000002042,
          "durationTicks": 48,
          "midi": 63,
          "name": "D#4",
          "ticks": 72240,
          "time": 200.66691749999998,
          "velocity": 0.7165354330708661
        },
        {
          "duration": 0.13333350000002042,
          "durationTicks": 48,
          "midi": 67,
          "name": "G4",
          "ticks": 72240,
          "time": 200.66691749999998,
          "velocity": 0.7165354330708661
        },
        {
          "duration": 0.13333350000002042,
          "durationTicks": 48,
          "midi": 72,
          "name": "C5",
          "ticks": 72240,
          "time": 200.66691749999998,
          "velocity": 0.7165354330708661
        },
        {
          "duration": 0.133333499999992,
          "durationTicks": 48,
          "midi": 66,
          "name": "F#4",
          "ticks": 72384,
          "time": 201.066918,
          "velocity": 0.7165354330708661
        },
        {
          "duration": 0.133333499999992,
          "durationTicks": 48,
          "midi": 69,
          "name": "A4",
          "ticks": 72384,
          "time": 201.066918,
          "velocity": 0.7165354330708661
        },
        {
          "duration": 0.133333499999992,
          "durationTicks": 48,
          "midi": 74,
          "name": "D5",
          "ticks": 72384,
          "time": 201.066918,
          "velocity": 0.7165354330708661
        },
        {
          "duration": 0.133333499999992,
          "durationTicks": 48,
          "midi": 62,
          "name": "D4",
          "ticks": 72384,
          "time": 201.066918,
          "velocity": 0.7165354330708661
        },
        {
          "duration": 0.13333350000002042,
          "durationTicks": 48,
          "midi": 66,
          "name": "F#4",
          "ticks": 72432,
          "time": 201.20025149999998,
          "velocity": 0.7165354330708661
        },
        {
          "duration": 0.13333350000002042,
          "durationTicks": 48,
          "midi": 69,
          "name": "A4",
          "ticks": 72432,
          "time": 201.20025149999998,
          "velocity": 0.7165354330708661
        },
        {
          "duration": 0.13333350000002042,
          "durationTicks": 48,
          "midi": 74,
          "name": "D5",
          "ticks": 72432,
          "time": 201.20025149999998,
          "velocity": 0.7165354330708661
        },
        {
          "duration": 0.13333350000002042,
          "durationTicks": 48,
          "midi": 62,
          "name": "D4",
          "ticks": 72432,
          "time": 201.20025149999998,
          "velocity": 0.7165354330708661
        },
        {
          "duration": 0.13333350000002042,
          "durationTicks": 48,
          "midi": 60,
          "name": "C4",
          "ticks": 72576,
          "time": 201.60025199999998,
          "velocity": 0.7165354330708661
        },
        {
          "duration": 0.13333350000002042,
          "durationTicks": 48,
          "midi": 62,
          "name": "D4",
          "ticks": 72576,
          "time": 201.60025199999998,
          "velocity": 0.7165354330708661
        },
        {
          "duration": 0.13333350000002042,
          "durationTicks": 48,
          "midi": 72,
          "name": "C5",
          "ticks": 72576,
          "time": 201.60025199999998,
          "velocity": 0.7165354330708661
        },
        {
          "duration": 0.13333350000002042,
          "durationTicks": 48,
          "midi": 67,
          "name": "G4",
          "ticks": 72576,
          "time": 201.60025199999998,
          "velocity": 0.7165354330708661
        },
        {
          "duration": 0.133333499999992,
          "durationTicks": 48,
          "midi": 69,
          "name": "A4",
          "ticks": 72672,
          "time": 201.866919,
          "velocity": 0.7165354330708661
        },
        {
          "duration": 0.133333499999992,
          "durationTicks": 48,
          "midi": 66,
          "name": "F#4",
          "ticks": 72672,
          "time": 201.866919,
          "velocity": 0.7165354330708661
        },
        {
          "duration": 0.133333499999992,
          "durationTicks": 48,
          "midi": 62,
          "name": "D4",
          "ticks": 72672,
          "time": 201.866919,
          "velocity": 0.7165354330708661
        },
        {
          "duration": 0.133333499999992,
          "durationTicks": 48,
          "midi": 57,
          "name": "A3",
          "ticks": 72672,
          "time": 201.866919,
          "velocity": 0.7165354330708661
        },
        {
          "duration": 0.2666670000000124,
          "durationTicks": 96,
          "midi": 58,
          "name": "A#3",
          "ticks": 72768,
          "time": 202.13358599999998,
          "velocity": 0.7165354330708661
        },
        {
          "duration": 0.2666670000000124,
          "durationTicks": 96,
          "midi": 67,
          "name": "G4",
          "ticks": 72768,
          "time": 202.13358599999998,
          "velocity": 0.7165354330708661
        },
        {
          "duration": 0.2666670000000124,
          "durationTicks": 96,
          "midi": 62,
          "name": "D4",
          "ticks": 72768,
          "time": 202.13358599999998,
          "velocity": 0.7165354330708661
        },
        {
          "duration": 0.2666670000000124,
          "durationTicks": 96,
          "midi": 70,
          "name": "A#4",
          "ticks": 72768,
          "time": 202.13358599999998,
          "velocity": 0.7165354330708661
        },
        {
          "duration": 4.088893999999982,
          "durationTicks": 1472,
          "midi": 50,
          "name": "D3",
          "ticks": 72960,
          "time": 202.66692,
          "velocity": 0.7165354330708661
        },
        {
          "duration": 4.088893999999982,
          "durationTicks": 1472,
          "midi": 55,
          "name": "G3",
          "ticks": 72960,
          "time": 202.66692,
          "velocity": 0.7165354330708661
        },
        {
          "duration": 4.088893999999982,
          "durationTicks": 1472,
          "midi": 62,
          "name": "D4",
          "ticks": 72960,
          "time": 202.66692,
          "velocity": 0.7165354330708661
        },
        {
          "duration": 4.000005000000016,
          "durationTicks": 1440,
          "midi": 50,
          "name": "D3",
          "ticks": 74592,
          "time": 207.200259,
          "velocity": 0.7165354330708661
        },
        {
          "duration": 4.000005000000016,
          "durationTicks": 1440,
          "midi": 55,
          "name": "G3",
          "ticks": 74592,
          "time": 207.200259,
          "velocity": 0.7165354330708661
        },
        {
          "duration": 4.000005000000016,
          "durationTicks": 1440,
          "midi": 62,
          "name": "D4",
          "ticks": 74592,
          "time": 207.200259,
          "velocity": 0.7165354330708661
        },
        {
          "duration": 1.6000019999999893,
          "durationTicks": 576,
          "midi": 51,
          "name": "D#3",
          "ticks": 76416,
          "time": 212.266932,
          "velocity": 0.7165354330708661
        },
        {
          "duration": 1.6000019999999893,
          "durationTicks": 576,
          "midi": 56,
          "name": "G#3",
          "ticks": 76416,
          "time": 212.266932,
          "velocity": 0.7165354330708661
        },
        {
          "duration": 1.6000019999999893,
          "durationTicks": 576,
          "midi": 63,
          "name": "D#4",
          "ticks": 76416,
          "time": 212.266932,
          "velocity": 0.7165354330708661
        },
        {
          "duration": 1.4693880000000092,
          "durationTicks": 576,
          "midi": 51,
          "name": "D#3",
          "ticks": 77184,
          "time": 214.40026799999998,
          "velocity": 0.7165354330708661
        },
        {
          "duration": 1.4693880000000092,
          "durationTicks": 576,
          "midi": 56,
          "name": "G#3",
          "ticks": 77184,
          "time": 214.40026799999998,
          "velocity": 0.7165354330708661
        },
        {
          "duration": 1.4693880000000092,
          "durationTicks": 576,
          "midi": 63,
          "name": "D#4",
          "ticks": 77184,
          "time": 214.40026799999998,
          "velocity": 0.7165354330708661
        },
        {
          "duration": 1.283018333333331,
          "durationTicks": 544,
          "midi": 63,
          "name": "D#4",
          "ticks": 77952,
          "time": 216.35945199999998,
          "velocity": 0.7165354330708661
        },
        {
          "duration": 1.283018333333331,
          "durationTicks": 544,
          "midi": 56,
          "name": "G#3",
          "ticks": 77952,
          "time": 216.35945199999998,
          "velocity": 0.7165354330708661
        },
        {
          "duration": 1.283018333333331,
          "durationTicks": 544,
          "midi": 51,
          "name": "D#3",
          "ticks": 77952,
          "time": 216.35945199999998,
          "velocity": 0.7165354330708661
        },
        {
          "duration": 0.056603749999993624,
          "durationTicks": 24,
          "midi": 74,
          "name": "D5",
          "ticks": 78720,
          "time": 218.17077199999997,
          "velocity": 0.7165354330708661
        },
        {
          "duration": 0.056603749999993624,
          "durationTicks": 24,
          "midi": 67,
          "name": "G4",
          "ticks": 78720,
          "time": 218.17077199999997,
          "velocity": 0.7165354330708661
        },
        {
          "duration": 0.056603749999993624,
          "durationTicks": 24,
          "midi": 62,
          "name": "D4",
          "ticks": 78720,
          "time": 218.17077199999997,
          "velocity": 0.7165354330708661
        },
        {
          "duration": 0.056603750000022046,
          "durationTicks": 24,
          "midi": 61,
          "name": "C#4",
          "ticks": 78744,
          "time": 218.22737574999996,
          "velocity": 0.7165354330708661
        },
        {
          "duration": 0.056603750000022046,
          "durationTicks": 24,
          "midi": 66,
          "name": "F#4",
          "ticks": 78744,
          "time": 218.22737574999996,
          "velocity": 0.7165354330708661
        },
        {
          "duration": 0.056603750000022046,
          "durationTicks": 24,
          "midi": 73,
          "name": "C#5",
          "ticks": 78744,
          "time": 218.22737574999996,
          "velocity": 0.7165354330708661
        },
        {
          "duration": 0.056603749999993624,
          "durationTicks": 24,
          "midi": 60,
          "name": "C4",
          "ticks": 78768,
          "time": 218.2839795,
          "velocity": 0.7165354330708661
        },
        {
          "duration": 0.056603749999993624,
          "durationTicks": 24,
          "midi": 65,
          "name": "F4",
          "ticks": 78768,
          "time": 218.2839795,
          "velocity": 0.7165354330708661
        },
        {
          "duration": 0.056603749999993624,
          "durationTicks": 24,
          "midi": 72,
          "name": "C5",
          "ticks": 78768,
          "time": 218.2839795,
          "velocity": 0.7165354330708661
        },
        {
          "duration": 0.056603749999993624,
          "durationTicks": 24,
          "midi": 59,
          "name": "B3",
          "ticks": 78792,
          "time": 218.34058324999998,
          "velocity": 0.7165354330708661
        },
        {
          "duration": 0.056603749999993624,
          "durationTicks": 24,
          "midi": 64,
          "name": "E4",
          "ticks": 78792,
          "time": 218.34058324999998,
          "velocity": 0.7165354330708661
        },
        {
          "duration": 0.056603749999993624,
          "durationTicks": 24,
          "midi": 71,
          "name": "B4",
          "ticks": 78792,
          "time": 218.34058324999998,
          "velocity": 0.7165354330708661
        },
        {
          "duration": 0.05882349999998837,
          "durationTicks": 24,
          "midi": 58,
          "name": "A#3",
          "ticks": 78816,
          "time": 218.39718699999997,
          "velocity": 0.7165354330708661
        },
        {
          "duration": 0.05882349999998837,
          "durationTicks": 24,
          "midi": 63,
          "name": "D#4",
          "ticks": 78816,
          "time": 218.39718699999997,
          "velocity": 0.7165354330708661
        },
        {
          "duration": 0.05882349999998837,
          "durationTicks": 24,
          "midi": 70,
          "name": "A#4",
          "ticks": 78816,
          "time": 218.39718699999997,
          "velocity": 0.7165354330708661
        },
        {
          "duration": 0.05882350000001679,
          "durationTicks": 24,
          "midi": 57,
          "name": "A3",
          "ticks": 78840,
          "time": 218.45601049999996,
          "velocity": 0.7165354330708661
        },
        {
          "duration": 0.05882350000001679,
          "durationTicks": 24,
          "midi": 62,
          "name": "D4",
          "ticks": 78840,
          "time": 218.45601049999996,
          "velocity": 0.7165354330708661
        },
        {
          "duration": 0.05882350000001679,
          "durationTicks": 24,
          "midi": 69,
          "name": "A4",
          "ticks": 78840,
          "time": 218.45601049999996,
          "velocity": 0.7165354330708661
        },
        {
          "duration": 0.05882349999998837,
          "durationTicks": 24,
          "midi": 56,
          "name": "G#3",
          "ticks": 78864,
          "time": 218.51483399999998,
          "velocity": 0.7165354330708661
        },
        {
          "duration": 0.05882349999998837,
          "durationTicks": 24,
          "midi": 61,
          "name": "C#4",
          "ticks": 78864,
          "time": 218.51483399999998,
          "velocity": 0.7165354330708661
        },
        {
          "duration": 0.05882349999998837,
          "durationTicks": 24,
          "midi": 68,
          "name": "G#4",
          "ticks": 78864,
          "time": 218.51483399999998,
          "velocity": 0.7165354330708661
        },
        {
          "duration": 0.05882350000001679,
          "durationTicks": 24,
          "midi": 55,
          "name": "G3",
          "ticks": 78888,
          "time": 218.57365749999997,
          "velocity": 0.7165354330708661
        },
        {
          "duration": 0.05882350000001679,
          "durationTicks": 24,
          "midi": 60,
          "name": "C4",
          "ticks": 78888,
          "time": 218.57365749999997,
          "velocity": 0.7165354330708661
        },
        {
          "duration": 0.05882350000001679,
          "durationTicks": 24,
          "midi": 67,
          "name": "G4",
          "ticks": 78888,
          "time": 218.57365749999997,
          "velocity": 0.7165354330708661
        },
        {
          "duration": 0.06112445833329616,
          "durationTicks": 24,
          "midi": 54,
          "name": "F#3",
          "ticks": 78912,
          "time": 218.63248099999998,
          "velocity": 0.7165354330708661
        },
        {
          "duration": 0.06112445833329616,
          "durationTicks": 24,
          "midi": 59,
          "name": "B3",
          "ticks": 78912,
          "time": 218.63248099999998,
          "velocity": 0.7165354330708661
        },
        {
          "duration": 0.06112445833329616,
          "durationTicks": 24,
          "midi": 66,
          "name": "F#4",
          "ticks": 78912,
          "time": 218.63248099999998,
          "velocity": 0.7165354330708661
        },
        {
          "duration": 0.061224500000008675,
          "durationTicks": 24,
          "midi": 65,
          "name": "F4",
          "ticks": 78936,
          "time": 218.69360545833328,
          "velocity": 0.7165354330708661
        },
        {
          "duration": 0.061224500000008675,
          "durationTicks": 24,
          "midi": 58,
          "name": "A#3",
          "ticks": 78936,
          "time": 218.69360545833328,
          "velocity": 0.7165354330708661
        },
        {
          "duration": 0.061224500000008675,
          "durationTicks": 24,
          "midi": 53,
          "name": "F3",
          "ticks": 78936,
          "time": 218.69360545833328,
          "velocity": 0.7165354330708661
        },
        {
          "duration": 0.061224500000008675,
          "durationTicks": 24,
          "midi": 64,
          "name": "E4",
          "ticks": 78960,
          "time": 218.7548299583333,
          "velocity": 0.7165354330708661
        },
        {
          "duration": 0.061224500000008675,
          "durationTicks": 24,
          "midi": 57,
          "name": "A3",
          "ticks": 78960,
          "time": 218.7548299583333,
          "velocity": 0.7165354330708661
        },
        {
          "duration": 0.061224500000008675,
          "durationTicks": 24,
          "midi": 52,
          "name": "E3",
          "ticks": 78960,
          "time": 218.7548299583333,
          "velocity": 0.7165354330708661
        },
        {
          "duration": 0.061224500000008675,
          "durationTicks": 24,
          "midi": 63,
          "name": "D#4",
          "ticks": 78984,
          "time": 218.8160544583333,
          "velocity": 0.7165354330708661
        },
        {
          "duration": 0.061224500000008675,
          "durationTicks": 24,
          "midi": 56,
          "name": "G#3",
          "ticks": 78984,
          "time": 218.8160544583333,
          "velocity": 0.7165354330708661
        },
        {
          "duration": 0.061224500000008675,
          "durationTicks": 24,
          "midi": 51,
          "name": "D#3",
          "ticks": 78984,
          "time": 218.8160544583333,
          "velocity": 0.7165354330708661
        },
        {
          "duration": 0.06382974999999647,
          "durationTicks": 24,
          "midi": 62,
          "name": "D4",
          "ticks": 79008,
          "time": 218.8772789583333,
          "velocity": 0.7165354330708661
        },
        {
          "duration": 0.06382974999999647,
          "durationTicks": 24,
          "midi": 55,
          "name": "G3",
          "ticks": 79008,
          "time": 218.8772789583333,
          "velocity": 0.7165354330708661
        },
        {
          "duration": 0.06382974999999647,
          "durationTicks": 24,
          "midi": 50,
          "name": "D3",
          "ticks": 79008,
          "time": 218.8772789583333,
          "velocity": 0.7165354330708661
        },
        {
          "duration": 0.06382974999999647,
          "durationTicks": 24,
          "midi": 61,
          "name": "C#4",
          "ticks": 79032,
          "time": 218.9411087083333,
          "velocity": 0.7165354330708661
        },
        {
          "duration": 0.06382974999999647,
          "durationTicks": 24,
          "midi": 54,
          "name": "F#3",
          "ticks": 79032,
          "time": 218.9411087083333,
          "velocity": 0.7165354330708661
        },
        {
          "duration": 0.06382974999999647,
          "durationTicks": 24,
          "midi": 49,
          "name": "C#3",
          "ticks": 79032,
          "time": 218.9411087083333,
          "velocity": 0.7165354330708661
        },
        {
          "duration": 0.06382974999999647,
          "durationTicks": 24,
          "midi": 48,
          "name": "C3",
          "ticks": 79056,
          "time": 219.0049384583333,
          "velocity": 0.7165354330708661
        },
        {
          "duration": 0.06382974999999647,
          "durationTicks": 24,
          "midi": 53,
          "name": "F3",
          "ticks": 79056,
          "time": 219.0049384583333,
          "velocity": 0.7165354330708661
        },
        {
          "duration": 0.06382974999999647,
          "durationTicks": 24,
          "midi": 60,
          "name": "C4",
          "ticks": 79056,
          "time": 219.0049384583333,
          "velocity": 0.7165354330708661
        },
        {
          "duration": 0.06382974999999647,
          "durationTicks": 24,
          "midi": 47,
          "name": "B2",
          "ticks": 79080,
          "time": 219.0687682083333,
          "velocity": 0.7165354330708661
        },
        {
          "duration": 0.06382974999999647,
          "durationTicks": 24,
          "midi": 52,
          "name": "E3",
          "ticks": 79080,
          "time": 219.0687682083333,
          "velocity": 0.7165354330708661
        },
        {
          "duration": 0.06382974999999647,
          "durationTicks": 24,
          "midi": 59,
          "name": "B3",
          "ticks": 79080,
          "time": 219.0687682083333,
          "velocity": 0.7165354330708661
        },
        {
          "duration": 0.12765950000002135,
          "durationTicks": 48,
          "midi": 67,
          "name": "G4",
          "ticks": 79104,
          "time": 219.1325979583333,
          "velocity": 0.7795275590551181
        },
        {
          "duration": 0.12765950000002135,
          "durationTicks": 48,
          "midi": 62,
          "name": "D4",
          "ticks": 79104,
          "time": 219.1325979583333,
          "velocity": 0.7795275590551181
        },
        {
          "duration": 0.12765950000002135,
          "durationTicks": 48,
          "midi": 60,
          "name": "C4",
          "ticks": 79104,
          "time": 219.1325979583333,
          "velocity": 0.7795275590551181
        },
        {
          "duration": 0.12765950000002135,
          "durationTicks": 48,
          "midi": 70,
          "name": "A#4",
          "ticks": 79104,
          "time": 219.1325979583333,
          "velocity": 0.7795275590551181
        },
        {
          "duration": 0.13215850000000273,
          "durationTicks": 48,
          "midi": 57,
          "name": "A3",
          "ticks": 79200,
          "time": 219.3879169583333,
          "velocity": 0.7795275590551181
        },
        {
          "duration": 0.13215850000000273,
          "durationTicks": 48,
          "midi": 62,
          "name": "D4",
          "ticks": 79200,
          "time": 219.3879169583333,
          "velocity": 0.7795275590551181
        },
        {
          "duration": 0.13215850000000273,
          "durationTicks": 48,
          "midi": 66,
          "name": "F#4",
          "ticks": 79200,
          "time": 219.3879169583333,
          "velocity": 0.7795275590551181
        },
        {
          "duration": 0.13215850000000273,
          "durationTicks": 48,
          "midi": 69,
          "name": "A4",
          "ticks": 79200,
          "time": 219.3879169583333,
          "velocity": 0.7795275590551181
        },
        {
          "duration": 0.266642520833301,
          "durationTicks": 96,
          "midi": 70,
          "name": "A#4",
          "ticks": 79296,
          "time": 219.6522339583333,
          "velocity": 0.7795275590551181
        },
        {
          "duration": 0.266642520833301,
          "durationTicks": 96,
          "midi": 62,
          "name": "D4",
          "ticks": 79296,
          "time": 219.6522339583333,
          "velocity": 0.7795275590551181
        },
        {
          "duration": 0.266642520833301,
          "durationTicks": 96,
          "midi": 67,
          "name": "G4",
          "ticks": 79296,
          "time": 219.6522339583333,
          "velocity": 0.7795275590551181
        },
        {
          "duration": 0.266642520833301,
          "durationTicks": 96,
          "midi": 58,
          "name": "A#3",
          "ticks": 79296,
          "time": 219.6522339583333,
          "velocity": 0.7795275590551181
        }
      ],
      "endOfTrackTicks": 82491
    },
    {
      "channel": 7,
      "controlChanges": {
        "6": [
          {
            "number": 6,
            "ticks": 0,
            "time": 0,
            "value": 0.09448818897637795
          },
          {
            "number": 6,
            "ticks": 0,
            "time": 0,
            "value": 0.09448818897637795
          },
          {
            "number": 6,
            "ticks": 0,
            "time": 0,
            "value": 0.09448818897637795
          },
          {
            "number": 6,
            "ticks": 82466,
            "time": 228.45777604166662,
            "value": 0.09448818897637795
          },
          {
            "number": 6,
            "ticks": 82491,
            "time": 228.52722057291663,
            "value": 0.09448818897637795
          }
        ],
        "7": [
          {
            "number": 7,
            "ticks": 0,
            "time": 0,
            "value": 0.7874015748031497
          },
          {
            "number": 7,
            "ticks": 0,
            "time": 0,
            "value": 0.7874015748031497
          },
          {
            "number": 7,
            "ticks": 0,
            "time": 0,
            "value": 0.7874015748031497
          },
          {
            "number": 7,
            "ticks": 0,
            "time": 0,
            "value": 0.7874015748031497
          },
          {
            "number": 7,
            "ticks": 82466,
            "time": 228.45777604166662,
            "value": 0.7874015748031497
          },
          {
            "number": 7,
            "ticks": 82491,
            "time": 228.52722057291663,
            "value": 0.7874015748031497
          }
        ],
        "10": [
          {
            "number": 10,
            "ticks": 0,
            "time": 0,
            "value": 0.5039370078740157
          },
          {
            "number": 10,
            "ticks": 0,
            "time": 0,
            "value": 0.5039370078740157
          },
          {
            "number": 10,
            "ticks": 0,
            "time": 0,
            "value": 0.5039370078740157
          },
          {
            "number": 10,
            "ticks": 0,
            "time": 0,
            "value": 0.5039370078740157
          },
          {
            "number": 10,
            "ticks": 0,
            "time": 0,
            "value": 0.5039370078740157
          },
          {
            "number": 10,
            "ticks": 76032,
            "time": 211.200264,
            "value": 0.5039370078740157
          },
          {
            "number": 10,
            "ticks": 76223,
            "time": 211.73082021875,
            "value": 0.2047244094488189
          },
          {
            "number": 10,
            "ticks": 76320,
            "time": 212.00026499999998,
            "value": 0.8031496062992126
          },
          {
            "number": 10,
            "ticks": 76417,
            "time": 212.26970978125,
            "value": 0.5039370078740157
          },
          {
            "number": 10,
            "ticks": 82466,
            "time": 228.45777604166662,
            "value": 0.5039370078740157
          },
          {
            "number": 10,
            "ticks": 82490,
            "time": 228.52444279166664,
            "value": 0.5039370078740157
          },
          {
            "number": 10,
            "ticks": 82491,
            "time": 228.52722057291663,
            "value": 0.5039370078740157
          }
        ],
        "100": [
          {
            "number": 100,
            "ticks": 0,
            "time": 0,
            "value": 0
          },
          {
            "number": 100,
            "ticks": 0,
            "time": 0,
            "value": 0
          },
          {
            "number": 100,
            "ticks": 0,
            "time": 0,
            "value": 0
          },
          {
            "number": 100,
            "ticks": 82466,
            "time": 228.45777604166662,
            "value": 0
          },
          {
            "number": 100,
            "ticks": 82491,
            "time": 228.52722057291663,
            "value": 0
          }
        ],
        "101": [
          {
            "number": 101,
            "ticks": 0,
            "time": 0,
            "value": 0
          },
          {
            "number": 101,
            "ticks": 0,
            "time": 0,
            "value": 0
          },
          {
            "number": 101,
            "ticks": 0,
            "time": 0,
            "value": 0
          },
          {
            "number": 101,
            "ticks": 82466,
            "time": 228.45777604166662,
            "value": 0
          },
          {
            "number": 101,
            "ticks": 82491,
            "time": 228.52722057291663,
            "value": 0
          }
        ]
      },
      "pitchBends": [
        {
          "ticks": 0,
          "time": 0,
          "value": 0
        },
        {
          "ticks": 0,
          "time": 0,
          "value": 0
        },
        {
          "ticks": 0,
          "time": 0,
          "value": 0
        },
        {
          "ticks": 0,
          "time": 0,
          "value": 0
        },
        {
          "ticks": 82466,
          "time": 228.45777604166662,
          "value": 0
        },
        {
          "ticks": 82491,
          "time": 228.52722057291663,
          "value": 0
        }
      ],
      "instrument": {
        "family": "piano",
        "number": 0,
        "name": "acoustic grand piano"
      },
      "name": "fx",
      "notes": [
        {
          "duration": 0.088889,
          "durationTicks": 32,
          "midi": 102,
          "name": "F#7",
          "ticks": 1728,
          "time": 4.800006,
          "velocity": 0.3700787401574803
        },
        {
          "duration": 0.088889,
          "durationTicks": 32,
          "midi": 102,
          "name": "F#7",
          "ticks": 2112,
          "time": 5.866674,
          "velocity": 0.3700787401574803
        },
        {
          "duration": 0.088889,
          "durationTicks": 32,
          "midi": 102,
          "name": "F#7",
          "ticks": 2496,
          "time": 6.933342,
          "velocity": 0.3700787401574803
        },
        {
          "duration": 0.011111124999999333,
          "durationTicks": 4,
          "midi": 27,
          "name": "D#1",
          "ticks": 3072,
          "time": 8.533344,
          "velocity": 0.5748031496062992
        },
        {
          "duration": 0.030555593749999943,
          "durationTicks": 11,
          "midi": 102,
          "name": "F#7",
          "ticks": 3072,
          "time": 8.533344,
          "velocity": 0.3700787401574803
        },
        {
          "duration": 0.011111124999999333,
          "durationTicks": 4,
          "midi": 27,
          "name": "D#1",
          "ticks": 3084,
          "time": 8.566677375,
          "velocity": 0.5748031496062992
        },
        {
          "duration": 0.03055559375000172,
          "durationTicks": 11,
          "midi": 102,
          "name": "F#7",
          "ticks": 3084,
          "time": 8.566677375,
          "velocity": 0.3700787401574803
        },
        {
          "duration": 0.011111124999999333,
          "durationTicks": 4,
          "midi": 27,
          "name": "D#1",
          "ticks": 3096,
          "time": 8.60001075,
          "velocity": 0.5748031496062992
        },
        {
          "duration": 0.03055559375000172,
          "durationTicks": 11,
          "midi": 102,
          "name": "F#7",
          "ticks": 3096,
          "time": 8.60001075,
          "velocity": 0.3700787401574803
        },
        {
          "duration": 0.011111124999999333,
          "durationTicks": 4,
          "midi": 27,
          "name": "D#1",
          "ticks": 3108,
          "time": 8.633344124999999,
          "velocity": 0.5748031496062992
        },
        {
          "duration": 0.03055559375000172,
          "durationTicks": 11,
          "midi": 102,
          "name": "F#7",
          "ticks": 3108,
          "time": 8.633344124999999,
          "velocity": 0.3700787401574803
        },
        {
          "duration": 0.01111112500000111,
          "durationTicks": 4,
          "midi": 27,
          "name": "D#1",
          "ticks": 3120,
          "time": 8.666677499999999,
          "velocity": 0.5748031496062992
        },
        {
          "duration": 0.03055559375000172,
          "durationTicks": 11,
          "midi": 102,
          "name": "F#7",
          "ticks": 3120,
          "time": 8.666677499999999,
          "velocity": 0.3700787401574803
        },
        {
          "duration": 0.011111124999999333,
          "durationTicks": 4,
          "midi": 27,
          "name": "D#1",
          "ticks": 3132,
          "time": 8.700010875,
          "velocity": 0.5748031496062992
        },
        {
          "duration": 0.030555593749999943,
          "durationTicks": 11,
          "midi": 102,
          "name": "F#7",
          "ticks": 3132,
          "time": 8.700010875,
          "velocity": 0.3700787401574803
        },
        {
          "duration": 0.011111124999999333,
          "durationTicks": 4,
          "midi": 27,
          "name": "D#1",
          "ticks": 3144,
          "time": 8.73334425,
          "velocity": 0.5748031496062992
        },
        {
          "duration": 0.030555593749999943,
          "durationTicks": 11,
          "midi": 102,
          "name": "F#7",
          "ticks": 3144,
          "time": 8.73334425,
          "velocity": 0.3700787401574803
        },
        {
          "duration": 0.011111124999999333,
          "durationTicks": 4,
          "midi": 27,
          "name": "D#1",
          "ticks": 3156,
          "time": 8.766677625,
          "velocity": 0.5748031496062992
        },
        {
          "duration": 0.030555593749999943,
          "durationTicks": 11,
          "midi": 102,
          "name": "F#7",
          "ticks": 3156,
          "time": 8.766677625,
          "velocity": 0.3700787401574803
        },
        {
          "duration": 0.0083333437499995,
          "durationTicks": 3,
          "midi": 34,
          "name": "A#1",
          "ticks": 3168,
          "time": 8.800011,
          "velocity": 0.7874015748031497
        },
        {
          "duration": 0.0083333437499995,
          "durationTicks": 3,
          "midi": 22,
          "name": "A#0",
          "ticks": 3168,
          "time": 8.800011,
          "velocity": 0.7874015748031497
        },
        {
          "duration": 0.0083333437499995,
          "durationTicks": 3,
          "midi": 51,
          "name": "D#3",
          "ticks": 3168,
          "time": 8.800011,
          "velocity": 0.5669291338582677
        },
        {
          "duration": 0.0083333437499995,
          "durationTicks": 3,
          "midi": 58,
          "name": "A#3",
          "ticks": 3168,
          "time": 8.800011,
          "velocity": 0.5669291338582677
        },
        {
          "duration": 0.0083333437499995,
          "durationTicks": 3,
          "midi": 46,
          "name": "A#2",
          "ticks": 3168,
          "time": 8.800011,
          "velocity": 0.5669291338582677
        },
        {
          "duration": 0.030555593749999943,
          "durationTicks": 11,
          "midi": 102,
          "name": "F#7",
          "ticks": 3168,
          "time": 8.800011,
          "velocity": 0.3700787401574803
        },
        {
          "duration": 0.0083333437499995,
          "durationTicks": 3,
          "midi": 39,
          "name": "D#2",
          "ticks": 3168,
          "time": 8.800011,
          "velocity": 0.7874015748031497
        },
        {
          "duration": 0.0083333437499995,
          "durationTicks": 3,
          "midi": 27,
          "name": "D#1",
          "ticks": 3168,
          "time": 8.800011,
          "velocity": 0.7874015748031497
        },
        {
          "duration": 0.03055559375000172,
          "durationTicks": 11,
          "midi": 102,
          "name": "F#7",
          "ticks": 3180,
          "time": 8.833344375,
          "velocity": 0.3700787401574803
        },
        {
          "duration": 0.008333343750001276,
          "durationTicks": 3,
          "midi": 34,
          "name": "A#1",
          "ticks": 3192,
          "time": 8.86667775,
          "velocity": 0.7874015748031497
        },
        {
          "duration": 0.008333343750001276,
          "durationTicks": 3,
          "midi": 22,
          "name": "A#0",
          "ticks": 3192,
          "time": 8.86667775,
          "velocity": 0.7874015748031497
        },
        {
          "duration": 0.008333343750001276,
          "durationTicks": 3,
          "midi": 51,
          "name": "D#3",
          "ticks": 3192,
          "time": 8.86667775,
          "velocity": 0.5669291338582677
        },
        {
          "duration": 0.008333343750001276,
          "durationTicks": 3,
          "midi": 58,
          "name": "A#3",
          "ticks": 3192,
          "time": 8.86667775,
          "velocity": 0.5669291338582677
        },
        {
          "duration": 0.008333343750001276,
          "durationTicks": 3,
          "midi": 46,
          "name": "A#2",
          "ticks": 3192,
          "time": 8.86667775,
          "velocity": 0.5669291338582677
        },
        {
          "duration": 0.03055559375000172,
          "durationTicks": 11,
          "midi": 102,
          "name": "F#7",
          "ticks": 3192,
          "time": 8.86667775,
          "velocity": 0.3700787401574803
        },
        {
          "duration": 0.008333343750001276,
          "durationTicks": 3,
          "midi": 39,
          "name": "D#2",
          "ticks": 3192,
          "time": 8.86667775,
          "velocity": 0.7874015748031497
        },
        {
          "duration": 0.008333343750001276,
          "durationTicks": 3,
          "midi": 27,
          "name": "D#1",
          "ticks": 3192,
          "time": 8.86667775,
          "velocity": 0.7874015748031497
        },
        {
          "duration": 0.03055559375000172,
          "durationTicks": 11,
          "midi": 102,
          "name": "F#7",
          "ticks": 3204,
          "time": 8.900011124999999,
          "velocity": 0.3700787401574803
        },
        {
          "duration": 0.0083333437499995,
          "durationTicks": 3,
          "midi": 34,
          "name": "A#1",
          "ticks": 3216,
          "time": 8.9333445,
          "velocity": 0.7874015748031497
        },
        {
          "duration": 0.0083333437499995,
          "durationTicks": 3,
          "midi": 22,
          "name": "A#0",
          "ticks": 3216,
          "time": 8.9333445,
          "velocity": 0.7874015748031497
        },
        {
          "duration": 0.0083333437499995,
          "durationTicks": 3,
          "midi": 51,
          "name": "D#3",
          "ticks": 3216,
          "time": 8.9333445,
          "velocity": 0.5669291338582677
        },
        {
          "duration": 0.0083333437499995,
          "durationTicks": 3,
          "midi": 58,
          "name": "A#3",
          "ticks": 3216,
          "time": 8.9333445,
          "velocity": 0.5669291338582677
        },
        {
          "duration": 0.0083333437499995,
          "durationTicks": 3,
          "midi": 46,
          "name": "A#2",
          "ticks": 3216,
          "time": 8.9333445,
          "velocity": 0.5669291338582677
        },
        {
          "duration": 0.030555593749999943,
          "durationTicks": 11,
          "midi": 102,
          "name": "F#7",
          "ticks": 3216,
          "time": 8.9333445,
          "velocity": 0.3700787401574803
        },
        {
          "duration": 0.0083333437499995,
          "durationTicks": 3,
          "midi": 39,
          "name": "D#2",
          "ticks": 3216,
          "time": 8.9333445,
          "velocity": 0.7874015748031497
        },
        {
          "duration": 0.0083333437499995,
          "durationTicks": 3,
          "midi": 27,
          "name": "D#1",
          "ticks": 3216,
          "time": 8.9333445,
          "velocity": 0.7874015748031497
        },
        {
          "duration": 0.030555593749999943,
          "durationTicks": 11,
          "midi": 102,
          "name": "F#7",
          "ticks": 3228,
          "time": 8.966677875,
          "velocity": 0.3700787401574803
        },
        {
          "duration": 0.0083333437499995,
          "durationTicks": 3,
          "midi": 22,
          "name": "A#0",
          "ticks": 3240,
          "time": 9.00001125,
          "velocity": 0.7874015748031497
        },
        {
          "duration": 0.0083333437499995,
          "durationTicks": 3,
          "midi": 34,
          "name": "A#1",
          "ticks": 3240,
          "time": 9.00001125,
          "velocity": 0.7874015748031497
        },
        {
          "duration": 0.0083333437499995,
          "durationTicks": 3,
          "midi": 51,
          "name": "D#3",
          "ticks": 3240,
          "time": 9.00001125,
          "velocity": 0.5669291338582677
        },
        {
          "duration": 0.0083333437499995,
          "durationTicks": 3,
          "midi": 58,
          "name": "A#3",
          "ticks": 3240,
          "time": 9.00001125,
          "velocity": 0.5669291338582677
        },
        {
          "duration": 0.0083333437499995,
          "durationTicks": 3,
          "midi": 46,
          "name": "A#2",
          "ticks": 3240,
          "time": 9.00001125,
          "velocity": 0.5669291338582677
        },
        {
          "duration": 0.030555593749999943,
          "durationTicks": 11,
          "midi": 102,
          "name": "F#7",
          "ticks": 3240,
          "time": 9.00001125,
          "velocity": 0.3700787401574803
        },
        {
          "duration": 0.0083333437499995,
          "durationTicks": 3,
          "midi": 27,
          "name": "D#1",
          "ticks": 3240,
          "time": 9.00001125,
          "velocity": 0.7874015748031497
        },
        {
          "duration": 0.0083333437499995,
          "durationTicks": 3,
          "midi": 39,
          "name": "D#2",
          "ticks": 3240,
          "time": 9.00001125,
          "velocity": 0.7874015748031497
        },
        {
          "duration": 0.030555593749999943,
          "durationTicks": 11,
          "midi": 102,
          "name": "F#7",
          "ticks": 3252,
          "time": 9.033344625,
          "velocity": 0.3700787401574803
        },
        {
          "duration": 0.02222225000000222,
          "durationTicks": 8,
          "midi": 64,
          "name": "E4",
          "ticks": 5952,
          "time": 16.533354,
          "velocity": 0.5118110236220472
        },
        {
          "duration": 0.08888899999999822,
          "durationTicks": 32,
          "midi": 65,
          "name": "F4",
          "ticks": 5960,
          "time": 16.55557625,
          "velocity": 0.5826771653543307
        },
        {
          "duration": 0.02222225000000222,
          "durationTicks": 8,
          "midi": 63,
          "name": "D#4",
          "ticks": 6000,
          "time": 16.6666875,
          "velocity": 0.5118110236220472
        },
        {
          "duration": 0.08888899999999822,
          "durationTicks": 32,
          "midi": 64,
          "name": "E4",
          "ticks": 6008,
          "time": 16.68890975,
          "velocity": 0.5826771653543307
        },
        {
          "duration": 0.022222249999998667,
          "durationTicks": 8,
          "midi": 62,
          "name": "D4",
          "ticks": 6048,
          "time": 16.800021,
          "velocity": 0.5118110236220472
        },
        {
          "duration": 0.08888899999999822,
          "durationTicks": 32,
          "midi": 63,
          "name": "D#4",
          "ticks": 6056,
          "time": 16.82224325,
          "velocity": 0.5826771653543307
        },
        {
          "duration": 0.022222249999998667,
          "durationTicks": 8,
          "midi": 61,
          "name": "C#4",
          "ticks": 6096,
          "time": 16.9333545,
          "velocity": 0.5118110236220472
        },
        {
          "duration": 0.08888899999999822,
          "durationTicks": 32,
          "midi": 62,
          "name": "D4",
          "ticks": 6104,
          "time": 16.95557675,
          "velocity": 0.5826771653543307
        },
        {
          "duration": 0.022222249999998667,
          "durationTicks": 8,
          "midi": 60,
          "name": "C4",
          "ticks": 6144,
          "time": 17.066688,
          "velocity": 0.5118110236220472
        },
        {
          "duration": 0.08888900000000177,
          "durationTicks": 32,
          "midi": 61,
          "name": "C#4",
          "ticks": 6152,
          "time": 17.088910249999998,
          "velocity": 0.5826771653543307
        },
        {
          "duration": 0.022222249999998667,
          "durationTicks": 8,
          "midi": 59,
          "name": "B3",
          "ticks": 6192,
          "time": 17.2000215,
          "velocity": 0.5118110236220472
        },
        {
          "duration": 0.08888900000000177,
          "durationTicks": 32,
          "midi": 60,
          "name": "C4",
          "ticks": 6200,
          "time": 17.222243749999997,
          "velocity": 0.5826771653543307
        },
        {
          "duration": 0.02222225000000222,
          "durationTicks": 8,
          "midi": 67,
          "name": "G4",
          "ticks": 6240,
          "time": 17.333354999999997,
          "velocity": 0.6456692913385826
        },
        {
          "duration": 0.02222225000000222,
          "durationTicks": 8,
          "midi": 68,
          "name": "G#4",
          "ticks": 6248,
          "time": 17.35557725,
          "velocity": 0.6456692913385826
        },
        {
          "duration": 0.022222249999998667,
          "durationTicks": 8,
          "midi": 69,
          "name": "A4",
          "ticks": 6256,
          "time": 17.377799500000002,
          "velocity": 0.6456692913385826
        },
        {
          "duration": 0.022222249999998667,
          "durationTicks": 8,
          "midi": 70,
          "name": "A#4",
          "ticks": 6264,
          "time": 17.40002175,
          "velocity": 0.6456692913385826
        },
        {
          "duration": 0.02222225000000222,
          "durationTicks": 8,
          "midi": 71,
          "name": "B4",
          "ticks": 6272,
          "time": 17.422244,
          "velocity": 0.6456692913385826
        },
        {
          "duration": 0.022222249999998667,
          "durationTicks": 8,
          "midi": 72,
          "name": "C5",
          "ticks": 6280,
          "time": 17.44446625,
          "velocity": 0.6456692913385826
        },
        {
          "duration": 0.022222249999998667,
          "durationTicks": 8,
          "midi": 73,
          "name": "C#5",
          "ticks": 6288,
          "time": 17.4666885,
          "velocity": 0.6456692913385826
        },
        {
          "duration": 0.02222225000000222,
          "durationTicks": 8,
          "midi": 74,
          "name": "D5",
          "ticks": 6296,
          "time": 17.48891075,
          "velocity": 0.6456692913385826
        },
        {
          "duration": 0.022222249999998667,
          "durationTicks": 8,
          "midi": 75,
          "name": "D#5",
          "ticks": 6304,
          "time": 17.511133,
          "velocity": 0.6456692913385826
        },
        {
          "duration": 0.022222249999998667,
          "durationTicks": 8,
          "midi": 76,
          "name": "E5",
          "ticks": 6312,
          "time": 17.53335525,
          "velocity": 0.6456692913385826
        },
        {
          "duration": 0.02222225000000222,
          "durationTicks": 8,
          "midi": 77,
          "name": "F5",
          "ticks": 6320,
          "time": 17.5555775,
          "velocity": 0.6456692913385826
        },
        {
          "duration": 0.022222249999998667,
          "durationTicks": 8,
          "midi": 78,
          "name": "F#5",
          "ticks": 6328,
          "time": 17.57779975,
          "velocity": 0.6456692913385826
        },
        {
          "duration": 0.08888899999999822,
          "durationTicks": 32,
          "midi": 77,
          "name": "F5",
          "ticks": 6336,
          "time": 17.600022,
          "velocity": 0.5511811023622047
        },
        {
          "duration": 0.08888899999999822,
          "durationTicks": 32,
          "midi": 76,
          "name": "E5",
          "ticks": 6336,
          "time": 17.600022,
          "velocity": 0.5511811023622047
        },
        {
          "duration": 0.08888899999999822,
          "durationTicks": 32,
          "midi": 77,
          "name": "F5",
          "ticks": 6384,
          "time": 17.7333555,
          "velocity": 0.5511811023622047
        },
        {
          "duration": 0.08888899999999822,
          "durationTicks": 32,
          "midi": 76,
          "name": "E5",
          "ticks": 6384,
          "time": 17.7333555,
          "velocity": 0.5511811023622047
        },
        {
          "duration": 0.08888899999999822,
          "durationTicks": 32,
          "midi": 77,
          "name": "F5",
          "ticks": 6432,
          "time": 17.866689,
          "velocity": 0.5511811023622047
        },
        {
          "duration": 0.08888899999999822,
          "durationTicks": 32,
          "midi": 76,
          "name": "E5",
          "ticks": 6432,
          "time": 17.866689,
          "velocity": 0.5511811023622047
        },
        {
          "duration": 0.08888899999999822,
          "durationTicks": 32,
          "midi": 77,
          "name": "F5",
          "ticks": 6480,
          "time": 18.0000225,
          "velocity": 0.5511811023622047
        },
        {
          "duration": 0.08888899999999822,
          "durationTicks": 32,
          "midi": 76,
          "name": "E5",
          "ticks": 6480,
          "time": 18.0000225,
          "velocity": 0.5511811023622047
        },
        {
          "duration": 0.1333334999999991,
          "durationTicks": 48,
          "midi": 94,
          "name": "A#6",
          "ticks": 8832,
          "time": 24.533364,
          "velocity": 0.3779527559055118
        },
        {
          "duration": 0.13333350000000266,
          "durationTicks": 48,
          "midi": 93,
          "name": "A6",
          "ticks": 8896,
          "time": 24.711142,
          "velocity": 0.33858267716535434
        },
        {
          "duration": 0.1333334999999991,
          "durationTicks": 48,
          "midi": 92,
          "name": "G#6",
          "ticks": 8960,
          "time": 24.88892,
          "velocity": 0.2992125984251969
        },
        {
          "duration": 0.06666674999999955,
          "durationTicks": 24,
          "midi": 91,
          "name": "G6",
          "ticks": 9024,
          "time": 25.066698,
          "velocity": 0.2677165354330709
        },
        {
          "duration": 0.06666674999999955,
          "durationTicks": 24,
          "midi": 90,
          "name": "F#6",
          "ticks": 9072,
          "time": 25.200031499999998,
          "velocity": 0.23622047244094488
        },
        {
          "duration": 0.06666674999999955,
          "durationTicks": 24,
          "midi": 89,
          "name": "F6",
          "ticks": 9120,
          "time": 25.333365,
          "velocity": 0.2125984251968504
        },
        {
          "duration": 0.06666674999999955,
          "durationTicks": 24,
          "midi": 88,
          "name": "E6",
          "ticks": 9168,
          "time": 25.4666985,
          "velocity": 0.18110236220472442
        },
        {
          "duration": 0.044444500000000886,
          "durationTicks": 16,
          "midi": 87,
          "name": "D#6",
          "ticks": 9216,
          "time": 25.600032,
          "velocity": 0.15748031496062992
        },
        {
          "duration": 0.044444500000000886,
          "durationTicks": 16,
          "midi": 86,
          "name": "D6",
          "ticks": 9248,
          "time": 25.688920999999997,
          "velocity": 0.13385826771653545
        },
        {
          "duration": 0.04444449999999733,
          "durationTicks": 16,
          "midi": 85,
          "name": "C#6",
          "ticks": 9280,
          "time": 25.77781,
          "velocity": 0.11811023622047244
        },
        {
          "duration": 0.04444450000000444,
          "durationTicks": 16,
          "midi": 84,
          "name": "C6",
          "ticks": 9312,
          "time": 25.866698999999997,
          "velocity": 0.10236220472440945
        },
        {
          "duration": 0.044444500000000886,
          "durationTicks": 16,
          "midi": 83,
          "name": "B5",
          "ticks": 9344,
          "time": 25.955588,
          "velocity": 0.07874015748031496
        },
        {
          "duration": 0.04444449999999733,
          "durationTicks": 16,
          "midi": 82,
          "name": "A#5",
          "ticks": 9376,
          "time": 26.044477,
          "velocity": 0.06299212598425197
        },
        {
          "duration": 0.044444500000000886,
          "durationTicks": 16,
          "midi": 81,
          "name": "A5",
          "ticks": 9408,
          "time": 26.133366,
          "velocity": 0.047244094488188976
        },
        {
          "duration": 0.04444449999999733,
          "durationTicks": 16,
          "midi": 80,
          "name": "G#5",
          "ticks": 9424,
          "time": 26.1778105,
          "velocity": 0.031496062992125984
        },
        {
          "duration": 0.044444500000000886,
          "durationTicks": 16,
          "midi": 79,
          "name": "G5",
          "ticks": 9440,
          "time": 26.222254999999997,
          "velocity": 0.023622047244094488
        },
        {
          "duration": 0.044444500000000886,
          "durationTicks": 16,
          "midi": 78,
          "name": "F#5",
          "ticks": 9456,
          "time": 26.266699499999998,
          "velocity": 0.015748031496062992
        },
        {
          "duration": 0.04444449999999733,
          "durationTicks": 16,
          "midi": 77,
          "name": "F5",
          "ticks": 9472,
          "time": 26.311144,
          "velocity": 0.007874015748031496
        },
        {
          "duration": 0.22777806250000765,
          "durationTicks": 82,
          "midi": 94,
          "name": "A#6",
          "ticks": 25440,
          "time": 70.666755,
          "velocity": 0.3779527559055118
        },
        {
          "duration": 0.22777806249999344,
          "durationTicks": 82,
          "midi": 93,
          "name": "A6",
          "ticks": 25550,
          "time": 70.9723109375,
          "velocity": 0.33858267716535434
        },
        {
          "duration": 0.22777806250000765,
          "durationTicks": 82,
          "midi": 92,
          "name": "G#6",
          "ticks": 25659,
          "time": 71.27508909375,
          "velocity": 0.2992125984251969
        },
        {
          "duration": 0.11388903125001093,
          "durationTicks": 41,
          "midi": 91,
          "name": "G6",
          "ticks": 25769,
          "time": 71.58064503124999,
          "velocity": 0.2677165354330709
        },
        {
          "duration": 0.11388903124999672,
          "durationTicks": 41,
          "midi": 90,
          "name": "F#6",
          "ticks": 25851,
          "time": 71.80842309375,
          "velocity": 0.23622047244094488
        },
        {
          "duration": 0.11388903124999672,
          "durationTicks": 41,
          "midi": 89,
          "name": "F6",
          "ticks": 25933,
          "time": 72.03620115625,
          "velocity": 0.2125984251968504
        },
        {
          "duration": 0.11388903124999672,
          "durationTicks": 41,
          "midi": 88,
          "name": "E6",
          "ticks": 26016,
          "time": 72.266757,
          "velocity": 0.18110236220472442
        },
        {
          "duration": 0.07500009374999195,
          "durationTicks": 27,
          "midi": 87,
          "name": "D#6",
          "ticks": 26098,
          "time": 72.4945350625,
          "velocity": 0.15748031496062992
        },
        {
          "duration": 0.07500009374999195,
          "durationTicks": 27,
          "midi": 86,
          "name": "D6",
          "ticks": 26153,
          "time": 72.64731303125,
          "velocity": 0.13385826771653545
        },
        {
          "duration": 0.07777787500000954,
          "durationTicks": 28,
          "midi": 85,
          "name": "C#6",
          "ticks": 26207,
          "time": 72.79731321874999,
          "velocity": 0.11811023622047244
        },
        {
          "duration": 0.07777787500000954,
          "durationTicks": 28,
          "midi": 84,
          "name": "C6",
          "ticks": 26262,
          "time": 72.95009118749999,
          "velocity": 0.10236220472440945
        },
        {
          "duration": 0.07500009374999195,
          "durationTicks": 27,
          "midi": 83,
          "name": "B5",
          "ticks": 26317,
          "time": 73.10286915625001,
          "velocity": 0.07874015748031496
        },
        {
          "duration": 0.07500009374999195,
          "durationTicks": 27,
          "midi": 82,
          "name": "A#5",
          "ticks": 26372,
          "time": 73.255647125,
          "velocity": 0.06299212598425197
        },
        {
          "duration": 0.07500009375000616,
          "durationTicks": 27,
          "midi": 81,
          "name": "A5",
          "ticks": 26427,
          "time": 73.40842509375,
          "velocity": 0.047244094488188976
        },
        {
          "duration": 0.07500009374999195,
          "durationTicks": 27,
          "midi": 80,
          "name": "G#5",
          "ticks": 26454,
          "time": 73.4834251875,
          "velocity": 0.031496062992125984
        },
        {
          "duration": 0.07777787500000954,
          "durationTicks": 28,
          "midi": 79,
          "name": "G5",
          "ticks": 26481,
          "time": 73.55842528125,
          "velocity": 0.023622047244094488
        },
        {
          "duration": 0.07500009374999195,
          "durationTicks": 27,
          "midi": 78,
          "name": "F#5",
          "ticks": 26509,
          "time": 73.63620315625,
          "velocity": 0.015748031496062992
        },
        {
          "duration": 0.07777787499999533,
          "durationTicks": 28,
          "midi": 77,
          "name": "F5",
          "ticks": 26536,
          "time": 73.71120325,
          "velocity": 0.007874015748031496
        },
        {
          "duration": 0.011111125000013544,
          "durationTicks": 4,
          "midi": 27,
          "name": "D#1",
          "ticks": 26976,
          "time": 74.933427,
          "velocity": 0.5748031496062992
        },
        {
          "duration": 0.011111125000013544,
          "durationTicks": 4,
          "midi": 27,
          "name": "D#1",
          "ticks": 26988,
          "time": 74.96676037499999,
          "velocity": 0.5748031496062992
        },
        {
          "duration": 0.011111125000013544,
          "durationTicks": 4,
          "midi": 27,
          "name": "D#1",
          "ticks": 27000,
          "time": 75.00009374999999,
          "velocity": 0.5748031496062992
        },
        {
          "duration": 0.011111124999999333,
          "durationTicks": 4,
          "midi": 27,
          "name": "D#1",
          "ticks": 27012,
          "time": 75.033427125,
          "velocity": 0.5748031496062992
        },
        {
          "duration": 0.011111124999999333,
          "durationTicks": 4,
          "midi": 27,
          "name": "D#1",
          "ticks": 27024,
          "time": 75.0667605,
          "velocity": 0.5748031496062992
        },
        {
          "duration": 0.011111124999999333,
          "durationTicks": 4,
          "midi": 27,
          "name": "D#1",
          "ticks": 27036,
          "time": 75.100093875,
          "velocity": 0.5748031496062992
        },
        {
          "duration": 0.011111124999999333,
          "durationTicks": 4,
          "midi": 27,
          "name": "D#1",
          "ticks": 27048,
          "time": 75.13342725,
          "velocity": 0.5748031496062992
        },
        {
          "duration": 0.011111125000013544,
          "durationTicks": 4,
          "midi": 27,
          "name": "D#1",
          "ticks": 27060,
          "time": 75.166760625,
          "velocity": 0.5748031496062992
        },
        {
          "duration": 0.008333343750010158,
          "durationTicks": 3,
          "midi": 34,
          "name": "A#1",
          "ticks": 27072,
          "time": 75.20009399999999,
          "velocity": 0.7874015748031497
        },
        {
          "duration": 0.008333343750010158,
          "durationTicks": 3,
          "midi": 22,
          "name": "A#0",
          "ticks": 27072,
          "time": 75.20009399999999,
          "velocity": 0.7874015748031497
        },
        {
          "duration": 0.008333343750010158,
          "durationTicks": 3,
          "midi": 51,
          "name": "D#3",
          "ticks": 27072,
          "time": 75.20009399999999,
          "velocity": 0.5669291338582677
        },
        {
          "duration": 0.008333343750010158,
          "durationTicks": 3,
          "midi": 58,
          "name": "A#3",
          "ticks": 27072,
          "time": 75.20009399999999,
          "velocity": 0.5669291338582677
        },
        {
          "duration": 0.008333343750010158,
          "durationTicks": 3,
          "midi": 46,
          "name": "A#2",
          "ticks": 27072,
          "time": 75.20009399999999,
          "velocity": 0.5669291338582677
        },
        {
          "duration": 0.008333343750010158,
          "durationTicks": 3,
          "midi": 39,
          "name": "D#2",
          "ticks": 27072,
          "time": 75.20009399999999,
          "velocity": 0.7874015748031497
        },
        {
          "duration": 0.008333343750010158,
          "durationTicks": 3,
          "midi": 27,
          "name": "D#1",
          "ticks": 27072,
          "time": 75.20009399999999,
          "velocity": 0.7874015748031497
        },
        {
          "duration": 0.008333343749995947,
          "durationTicks": 3,
          "midi": 34,
          "name": "A#1",
          "ticks": 27096,
          "time": 75.26676075,
          "velocity": 0.7874015748031497
        },
        {
          "duration": 0.008333343749995947,
          "durationTicks": 3,
          "midi": 22,
          "name": "A#0",
          "ticks": 27096,
          "time": 75.26676075,
          "velocity": 0.7874015748031497
        },
        {
          "duration": 0.008333343749995947,
          "durationTicks": 3,
          "midi": 51,
          "name": "D#3",
          "ticks": 27096,
          "time": 75.26676075,
          "velocity": 0.5669291338582677
        },
        {
          "duration": 0.008333343749995947,
          "durationTicks": 3,
          "midi": 58,
          "name": "A#3",
          "ticks": 27096,
          "time": 75.26676075,
          "velocity": 0.5669291338582677
        },
        {
          "duration": 0.008333343749995947,
          "durationTicks": 3,
          "midi": 46,
          "name": "A#2",
          "ticks": 27096,
          "time": 75.26676075,
          "velocity": 0.5669291338582677
        },
        {
          "duration": 0.008333343749995947,
          "durationTicks": 3,
          "midi": 39,
          "name": "D#2",
          "ticks": 27096,
          "time": 75.26676075,
          "velocity": 0.7874015748031497
        },
        {
          "duration": 0.008333343749995947,
          "durationTicks": 3,
          "midi": 27,
          "name": "D#1",
          "ticks": 27096,
          "time": 75.26676075,
          "velocity": 0.7874015748031497
        },
        {
          "duration": 0.008333343749995947,
          "durationTicks": 3,
          "midi": 34,
          "name": "A#1",
          "ticks": 27120,
          "time": 75.3334275,
          "velocity": 0.7874015748031497
        },
        {
          "duration": 0.008333343749995947,
          "durationTicks": 3,
          "midi": 22,
          "name": "A#0",
          "ticks": 27120,
          "time": 75.3334275,
          "velocity": 0.7874015748031497
        },
        {
          "duration": 0.008333343749995947,
          "durationTicks": 3,
          "midi": 51,
          "name": "D#3",
          "ticks": 27120,
          "time": 75.3334275,
          "velocity": 0.5669291338582677
        },
        {
          "duration": 0.008333343749995947,
          "durationTicks": 3,
          "midi": 58,
          "name": "A#3",
          "ticks": 27120,
          "time": 75.3334275,
          "velocity": 0.5669291338582677
        },
        {
          "duration": 0.008333343749995947,
          "durationTicks": 3,
          "midi": 46,
          "name": "A#2",
          "ticks": 27120,
          "time": 75.3334275,
          "velocity": 0.5669291338582677
        },
        {
          "duration": 0.008333343749995947,
          "durationTicks": 3,
          "midi": 39,
          "name": "D#2",
          "ticks": 27120,
          "time": 75.3334275,
          "velocity": 0.7874015748031497
        },
        {
          "duration": 0.008333343749995947,
          "durationTicks": 3,
          "midi": 27,
          "name": "D#1",
          "ticks": 27120,
          "time": 75.3334275,
          "velocity": 0.7874015748031497
        },
        {
          "duration": 0.008333343749995947,
          "durationTicks": 3,
          "midi": 39,
          "name": "D#2",
          "ticks": 27144,
          "time": 75.40009425,
          "velocity": 0.7874015748031497
        },
        {
          "duration": 0.008333343749995947,
          "durationTicks": 3,
          "midi": 27,
          "name": "D#1",
          "ticks": 27144,
          "time": 75.40009425,
          "velocity": 0.7874015748031497
        },
        {
          "duration": 0.008333343749995947,
          "durationTicks": 3,
          "midi": 46,
          "name": "A#2",
          "ticks": 27144,
          "time": 75.40009425,
          "velocity": 0.5669291338582677
        },
        {
          "duration": 0.008333343749995947,
          "durationTicks": 3,
          "midi": 58,
          "name": "A#3",
          "ticks": 27144,
          "time": 75.40009425,
          "velocity": 0.5669291338582677
        },
        {
          "duration": 0.008333343749995947,
          "durationTicks": 3,
          "midi": 51,
          "name": "D#3",
          "ticks": 27144,
          "time": 75.40009425,
          "velocity": 0.5669291338582677
        },
        {
          "duration": 0.008333343749995947,
          "durationTicks": 3,
          "midi": 34,
          "name": "A#1",
          "ticks": 27144,
          "time": 75.40009425,
          "velocity": 0.7874015748031497
        },
        {
          "duration": 0.008333343749995947,
          "durationTicks": 3,
          "midi": 22,
          "name": "A#0",
          "ticks": 27144,
          "time": 75.40009425,
          "velocity": 0.7874015748031497
        },
        {
          "duration": 0.011111125000013544,
          "durationTicks": 4,
          "midi": 27,
          "name": "D#1",
          "ticks": 30816,
          "time": 85.600107,
          "velocity": 0.5748031496062992
        },
        {
          "duration": 0.011111125000013544,
          "durationTicks": 4,
          "midi": 27,
          "name": "D#1",
          "ticks": 30828,
          "time": 85.63344037499999,
          "velocity": 0.5748031496062992
        },
        {
          "duration": 0.011111125000013544,
          "durationTicks": 4,
          "midi": 27,
          "name": "D#1",
          "ticks": 30840,
          "time": 85.66677374999999,
          "velocity": 0.5748031496062992
        },
        {
          "duration": 0.011111124999999333,
          "durationTicks": 4,
          "midi": 27,
          "name": "D#1",
          "ticks": 30852,
          "time": 85.700107125,
          "velocity": 0.5748031496062992
        },
        {
          "duration": 0.011111124999999333,
          "durationTicks": 4,
          "midi": 27,
          "name": "D#1",
          "ticks": 30864,
          "time": 85.7334405,
          "velocity": 0.5748031496062992
        },
        {
          "duration": 0.011111124999999333,
          "durationTicks": 4,
          "midi": 27,
          "name": "D#1",
          "ticks": 30876,
          "time": 85.766773875,
          "velocity": 0.5748031496062992
        },
        {
          "duration": 0.011111124999999333,
          "durationTicks": 4,
          "midi": 27,
          "name": "D#1",
          "ticks": 30888,
          "time": 85.80010725,
          "velocity": 0.5748031496062992
        },
        {
          "duration": 0.011111125000013544,
          "durationTicks": 4,
          "midi": 27,
          "name": "D#1",
          "ticks": 30900,
          "time": 85.833440625,
          "velocity": 0.5748031496062992
        },
        {
          "duration": 0.008333343750010158,
          "durationTicks": 3,
          "midi": 27,
          "name": "D#1",
          "ticks": 30912,
          "time": 85.86677399999999,
          "velocity": 0.7874015748031497
        },
        {
          "duration": 0.008333343750010158,
          "durationTicks": 3,
          "midi": 39,
          "name": "D#2",
          "ticks": 30912,
          "time": 85.86677399999999,
          "velocity": 0.7874015748031497
        },
        {
          "duration": 0.008333343750010158,
          "durationTicks": 3,
          "midi": 46,
          "name": "A#2",
          "ticks": 30912,
          "time": 85.86677399999999,
          "velocity": 0.5669291338582677
        },
        {
          "duration": 0.008333343750010158,
          "durationTicks": 3,
          "midi": 58,
          "name": "A#3",
          "ticks": 30912,
          "time": 85.86677399999999,
          "velocity": 0.5669291338582677
        },
        {
          "duration": 0.008333343750010158,
          "durationTicks": 3,
          "midi": 51,
          "name": "D#3",
          "ticks": 30912,
          "time": 85.86677399999999,
          "velocity": 0.5669291338582677
        },
        {
          "duration": 0.008333343750010158,
          "durationTicks": 3,
          "midi": 22,
          "name": "A#0",
          "ticks": 30912,
          "time": 85.86677399999999,
          "velocity": 0.7874015748031497
        },
        {
          "duration": 0.008333343750010158,
          "durationTicks": 3,
          "midi": 34,
          "name": "A#1",
          "ticks": 30912,
          "time": 85.86677399999999,
          "velocity": 0.7874015748031497
        },
        {
          "duration": 0.008333343749995947,
          "durationTicks": 3,
          "midi": 27,
          "name": "D#1",
          "ticks": 30936,
          "time": 85.93344075,
          "velocity": 0.7874015748031497
        },
        {
          "duration": 0.008333343749995947,
          "durationTicks": 3,
          "midi": 39,
          "name": "D#2",
          "ticks": 30936,
          "time": 85.93344075,
          "velocity": 0.7874015748031497
        },
        {
          "duration": 0.008333343749995947,
          "durationTicks": 3,
          "midi": 46,
          "name": "A#2",
          "ticks": 30936,
          "time": 85.93344075,
          "velocity": 0.5669291338582677
        },
        {
          "duration": 0.008333343749995947,
          "durationTicks": 3,
          "midi": 58,
          "name": "A#3",
          "ticks": 30936,
          "time": 85.93344075,
          "velocity": 0.5669291338582677
        },
        {
          "duration": 0.008333343749995947,
          "durationTicks": 3,
          "midi": 51,
          "name": "D#3",
          "ticks": 30936,
          "time": 85.93344075,
          "velocity": 0.5669291338582677
        },
        {
          "duration": 0.008333343749995947,
          "durationTicks": 3,
          "midi": 22,
          "name": "A#0",
          "ticks": 30936,
          "time": 85.93344075,
          "velocity": 0.7874015748031497
        },
        {
          "duration": 0.008333343749995947,
          "durationTicks": 3,
          "midi": 34,
          "name": "A#1",
          "ticks": 30936,
          "time": 85.93344075,
          "velocity": 0.7874015748031497
        },
        {
          "duration": 0.008333343749995947,
          "durationTicks": 3,
          "midi": 27,
          "name": "D#1",
          "ticks": 30960,
          "time": 86.0001075,
          "velocity": 0.7874015748031497
        },
        {
          "duration": 0.008333343749995947,
          "durationTicks": 3,
          "midi": 39,
          "name": "D#2",
          "ticks": 30960,
          "time": 86.0001075,
          "velocity": 0.7874015748031497
        },
        {
          "duration": 0.008333343749995947,
          "durationTicks": 3,
          "midi": 46,
          "name": "A#2",
          "ticks": 30960,
          "time": 86.0001075,
          "velocity": 0.5669291338582677
        },
        {
          "duration": 0.008333343749995947,
          "durationTicks": 3,
          "midi": 58,
          "name": "A#3",
          "ticks": 30960,
          "time": 86.0001075,
          "velocity": 0.5669291338582677
        },
        {
          "duration": 0.008333343749995947,
          "durationTicks": 3,
          "midi": 51,
          "name": "D#3",
          "ticks": 30960,
          "time": 86.0001075,
          "velocity": 0.5669291338582677
        },
        {
          "duration": 0.008333343749995947,
          "durationTicks": 3,
          "midi": 22,
          "name": "A#0",
          "ticks": 30960,
          "time": 86.0001075,
          "velocity": 0.7874015748031497
        },
        {
          "duration": 0.008333343749995947,
          "durationTicks": 3,
          "midi": 34,
          "name": "A#1",
          "ticks": 30960,
          "time": 86.0001075,
          "velocity": 0.7874015748031497
        },
        {
          "duration": 0.008333343749995947,
          "durationTicks": 3,
          "midi": 39,
          "name": "D#2",
          "ticks": 30984,
          "time": 86.06677425,
          "velocity": 0.7874015748031497
        },
        {
          "duration": 0.008333343749995947,
          "durationTicks": 3,
          "midi": 27,
          "name": "D#1",
          "ticks": 30984,
          "time": 86.06677425,
          "velocity": 0.7874015748031497
        },
        {
          "duration": 0.008333343749995947,
          "durationTicks": 3,
          "midi": 46,
          "name": "A#2",
          "ticks": 30984,
          "time": 86.06677425,
          "velocity": 0.5669291338582677
        },
        {
          "duration": 0.008333343749995947,
          "durationTicks": 3,
          "midi": 58,
          "name": "A#3",
          "ticks": 30984,
          "time": 86.06677425,
          "velocity": 0.5669291338582677
        },
        {
          "duration": 0.008333343749995947,
          "durationTicks": 3,
          "midi": 51,
          "name": "D#3",
          "ticks": 30984,
          "time": 86.06677425,
          "velocity": 0.5669291338582677
        },
        {
          "duration": 0.008333343749995947,
          "durationTicks": 3,
          "midi": 34,
          "name": "A#1",
          "ticks": 30984,
          "time": 86.06677425,
          "velocity": 0.7874015748031497
        },
        {
          "duration": 0.008333343749995947,
          "durationTicks": 3,
          "midi": 22,
          "name": "A#0",
          "ticks": 30984,
          "time": 86.06677425,
          "velocity": 0.7874015748031497
        },
        {
          "duration": 0.08888899999999467,
          "durationTicks": 32,
          "midi": 102,
          "name": "F#7",
          "ticks": 31008,
          "time": 86.13344099999999,
          "velocity": 0.3700787401574803
        },
        {
          "duration": 0.08888899999999467,
          "durationTicks": 32,
          "midi": 102,
          "name": "F#7",
          "ticks": 31392,
          "time": 87.200109,
          "velocity": 0.3700787401574803
        },
        {
          "duration": 0.022222249999998667,
          "durationTicks": 8,
          "midi": 39,
          "name": "D#2",
          "ticks": 31680,
          "time": 88.00010999999999,
          "velocity": 0.7874015748031497
        },
        {
          "duration": 0.022222249999998667,
          "durationTicks": 8,
          "midi": 27,
          "name": "D#1",
          "ticks": 31680,
          "time": 88.00010999999999,
          "velocity": 0.7874015748031497
        },
        {
          "duration": 0.022222249999998667,
          "durationTicks": 8,
          "midi": 28,
          "name": "E1",
          "ticks": 31692,
          "time": 88.03344337499999,
          "velocity": 0.7874015748031497
        },
        {
          "duration": 0.022222249999998667,
          "durationTicks": 8,
          "midi": 39,
          "name": "D#2",
          "ticks": 31692,
          "time": 88.03344337499999,
          "velocity": 0.7874015748031497
        },
        {
          "duration": 0.022222249999984456,
          "durationTicks": 8,
          "midi": 29,
          "name": "F1",
          "ticks": 31704,
          "time": 88.06677675,
          "velocity": 0.7874015748031497
        },
        {
          "duration": 0.022222249999984456,
          "durationTicks": 8,
          "midi": 39,
          "name": "D#2",
          "ticks": 31704,
          "time": 88.06677675,
          "velocity": 0.7874015748031497
        },
        {
          "duration": 0.022222249999984456,
          "durationTicks": 8,
          "midi": 30,
          "name": "F#1",
          "ticks": 31716,
          "time": 88.100110125,
          "velocity": 0.7874015748031497
        },
        {
          "duration": 0.022222249999984456,
          "durationTicks": 8,
          "midi": 39,
          "name": "D#2",
          "ticks": 31716,
          "time": 88.100110125,
          "velocity": 0.7874015748031497
        },
        {
          "duration": 0.022222249999998667,
          "durationTicks": 8,
          "midi": 31,
          "name": "G1",
          "ticks": 31728,
          "time": 88.1334435,
          "velocity": 0.7874015748031497
        },
        {
          "duration": 0.022222249999998667,
          "durationTicks": 8,
          "midi": 39,
          "name": "D#2",
          "ticks": 31728,
          "time": 88.1334435,
          "velocity": 0.7874015748031497
        },
        {
          "duration": 0.022222249999998667,
          "durationTicks": 8,
          "midi": 32,
          "name": "G#1",
          "ticks": 31740,
          "time": 88.166776875,
          "velocity": 0.7874015748031497
        },
        {
          "duration": 0.022222249999998667,
          "durationTicks": 8,
          "midi": 39,
          "name": "D#2",
          "ticks": 31740,
          "time": 88.166776875,
          "velocity": 0.7874015748031497
        },
        {
          "duration": 0.022222249999998667,
          "durationTicks": 8,
          "midi": 33,
          "name": "A1",
          "ticks": 31752,
          "time": 88.20011025,
          "velocity": 0.7874015748031497
        },
        {
          "duration": 0.022222249999998667,
          "durationTicks": 8,
          "midi": 39,
          "name": "D#2",
          "ticks": 31752,
          "time": 88.20011025,
          "velocity": 0.7874015748031497
        },
        {
          "duration": 0.022222249999998667,
          "durationTicks": 8,
          "midi": 34,
          "name": "A#1",
          "ticks": 31764,
          "time": 88.23344362499999,
          "velocity": 0.7874015748031497
        },
        {
          "duration": 0.022222249999998667,
          "durationTicks": 8,
          "midi": 39,
          "name": "D#2",
          "ticks": 31764,
          "time": 88.23344362499999,
          "velocity": 0.7874015748031497
        },
        {
          "duration": 0.05555562499999667,
          "durationTicks": 20,
          "midi": 85,
          "name": "C#6",
          "ticks": 32064,
          "time": 89.066778,
          "velocity": 0.5748031496062992
        },
        {
          "duration": 0.022222249999998667,
          "durationTicks": 8,
          "midi": 85,
          "name": "C#6",
          "ticks": 32112,
          "time": 89.20011149999999,
          "velocity": 0.5748031496062992
        },
        {
          "duration": 0.011111125000013544,
          "durationTicks": 4,
          "midi": 27,
          "name": "D#1",
          "ticks": 32352,
          "time": 89.866779,
          "velocity": 0.5748031496062992
        },
        {
          "duration": 0.011111125000013544,
          "durationTicks": 4,
          "midi": 27,
          "name": "D#1",
          "ticks": 32364,
          "time": 89.90011237499999,
          "velocity": 0.5748031496062992
        },
        {
          "duration": 0.011111125000013544,
          "durationTicks": 4,
          "midi": 27,
          "name": "D#1",
          "ticks": 32376,
          "time": 89.93344574999999,
          "velocity": 0.5748031496062992
        },
        {
          "duration": 0.011111124999999333,
          "durationTicks": 4,
          "midi": 27,
          "name": "D#1",
          "ticks": 32388,
          "time": 89.966779125,
          "velocity": 0.5748031496062992
        },
        {
          "duration": 0.011111124999999333,
          "durationTicks": 4,
          "midi": 27,
          "name": "D#1",
          "ticks": 32400,
          "time": 90.0001125,
          "velocity": 0.5748031496062992
        },
        {
          "duration": 0.011111124999999333,
          "durationTicks": 4,
          "midi": 27,
          "name": "D#1",
          "ticks": 32412,
          "time": 90.033445875,
          "velocity": 0.5748031496062992
        },
        {
          "duration": 0.011111124999999333,
          "durationTicks": 4,
          "midi": 27,
          "name": "D#1",
          "ticks": 32424,
          "time": 90.06677925,
          "velocity": 0.5748031496062992
        },
        {
          "duration": 0.011111125000013544,
          "durationTicks": 4,
          "midi": 27,
          "name": "D#1",
          "ticks": 32436,
          "time": 90.100112625,
          "velocity": 0.5748031496062992
        },
        {
          "duration": 0.008333343750010158,
          "durationTicks": 3,
          "midi": 34,
          "name": "A#1",
          "ticks": 32448,
          "time": 90.13344599999999,
          "velocity": 0.7874015748031497
        },
        {
          "duration": 0.008333343750010158,
          "durationTicks": 3,
          "midi": 22,
          "name": "A#0",
          "ticks": 32448,
          "time": 90.13344599999999,
          "velocity": 0.7874015748031497
        },
        {
          "duration": 0.008333343750010158,
          "durationTicks": 3,
          "midi": 51,
          "name": "D#3",
          "ticks": 32448,
          "time": 90.13344599999999,
          "velocity": 0.5669291338582677
        },
        {
          "duration": 0.008333343750010158,
          "durationTicks": 3,
          "midi": 58,
          "name": "A#3",
          "ticks": 32448,
          "time": 90.13344599999999,
          "velocity": 0.5669291338582677
        },
        {
          "duration": 0.008333343750010158,
          "durationTicks": 3,
          "midi": 46,
          "name": "A#2",
          "ticks": 32448,
          "time": 90.13344599999999,
          "velocity": 0.5669291338582677
        },
        {
          "duration": 0.008333343750010158,
          "durationTicks": 3,
          "midi": 39,
          "name": "D#2",
          "ticks": 32448,
          "time": 90.13344599999999,
          "velocity": 0.7874015748031497
        },
        {
          "duration": 0.008333343750010158,
          "durationTicks": 3,
          "midi": 27,
          "name": "D#1",
          "ticks": 32448,
          "time": 90.13344599999999,
          "velocity": 0.7874015748031497
        },
        {
          "duration": 0.008333343749995947,
          "durationTicks": 3,
          "midi": 34,
          "name": "A#1",
          "ticks": 32472,
          "time": 90.20011275,
          "velocity": 0.7874015748031497
        },
        {
          "duration": 0.008333343749995947,
          "durationTicks": 3,
          "midi": 22,
          "name": "A#0",
          "ticks": 32472,
          "time": 90.20011275,
          "velocity": 0.7874015748031497
        },
        {
          "duration": 0.008333343749995947,
          "durationTicks": 3,
          "midi": 51,
          "name": "D#3",
          "ticks": 32472,
          "time": 90.20011275,
          "velocity": 0.5669291338582677
        },
        {
          "duration": 0.008333343749995947,
          "durationTicks": 3,
          "midi": 58,
          "name": "A#3",
          "ticks": 32472,
          "time": 90.20011275,
          "velocity": 0.5669291338582677
        },
        {
          "duration": 0.008333343749995947,
          "durationTicks": 3,
          "midi": 46,
          "name": "A#2",
          "ticks": 32472,
          "time": 90.20011275,
          "velocity": 0.5669291338582677
        },
        {
          "duration": 0.008333343749995947,
          "durationTicks": 3,
          "midi": 39,
          "name": "D#2",
          "ticks": 32472,
          "time": 90.20011275,
          "velocity": 0.7874015748031497
        },
        {
          "duration": 0.008333343749995947,
          "durationTicks": 3,
          "midi": 27,
          "name": "D#1",
          "ticks": 32472,
          "time": 90.20011275,
          "velocity": 0.7874015748031497
        },
        {
          "duration": 0.008333343749995947,
          "durationTicks": 3,
          "midi": 34,
          "name": "A#1",
          "ticks": 32496,
          "time": 90.2667795,
          "velocity": 0.7874015748031497
        },
        {
          "duration": 0.008333343749995947,
          "durationTicks": 3,
          "midi": 22,
          "name": "A#0",
          "ticks": 32496,
          "time": 90.2667795,
          "velocity": 0.7874015748031497
        },
        {
          "duration": 0.008333343749995947,
          "durationTicks": 3,
          "midi": 51,
          "name": "D#3",
          "ticks": 32496,
          "time": 90.2667795,
          "velocity": 0.5669291338582677
        },
        {
          "duration": 0.008333343749995947,
          "durationTicks": 3,
          "midi": 58,
          "name": "A#3",
          "ticks": 32496,
          "time": 90.2667795,
          "velocity": 0.5669291338582677
        },
        {
          "duration": 0.008333343749995947,
          "durationTicks": 3,
          "midi": 46,
          "name": "A#2",
          "ticks": 32496,
          "time": 90.2667795,
          "velocity": 0.5669291338582677
        },
        {
          "duration": 0.008333343749995947,
          "durationTicks": 3,
          "midi": 39,
          "name": "D#2",
          "ticks": 32496,
          "time": 90.2667795,
          "velocity": 0.7874015748031497
        },
        {
          "duration": 0.008333343749995947,
          "durationTicks": 3,
          "midi": 27,
          "name": "D#1",
          "ticks": 32496,
          "time": 90.2667795,
          "velocity": 0.7874015748031497
        },
        {
          "duration": 0.008333343749995947,
          "durationTicks": 3,
          "midi": 22,
          "name": "A#0",
          "ticks": 32520,
          "time": 90.33344625,
          "velocity": 0.7874015748031497
        },
        {
          "duration": 0.008333343749995947,
          "durationTicks": 3,
          "midi": 34,
          "name": "A#1",
          "ticks": 32520,
          "time": 90.33344625,
          "velocity": 0.7874015748031497
        },
        {
          "duration": 0.008333343749995947,
          "durationTicks": 3,
          "midi": 51,
          "name": "D#3",
          "ticks": 32520,
          "time": 90.33344625,
          "velocity": 0.5669291338582677
        },
        {
          "duration": 0.008333343749995947,
          "durationTicks": 3,
          "midi": 58,
          "name": "A#3",
          "ticks": 32520,
          "time": 90.33344625,
          "velocity": 0.5669291338582677
        },
        {
          "duration": 0.008333343749995947,
          "durationTicks": 3,
          "midi": 46,
          "name": "A#2",
          "ticks": 32520,
          "time": 90.33344625,
          "velocity": 0.5669291338582677
        },
        {
          "duration": 0.008333343749995947,
          "durationTicks": 3,
          "midi": 27,
          "name": "D#1",
          "ticks": 32520,
          "time": 90.33344625,
          "velocity": 0.7874015748031497
        },
        {
          "duration": 0.008333343749995947,
          "durationTicks": 3,
          "midi": 39,
          "name": "D#2",
          "ticks": 32520,
          "time": 90.33344625,
          "velocity": 0.7874015748031497
        },
        {
          "duration": 0.08888899999999467,
          "durationTicks": 32,
          "midi": 102,
          "name": "F#7",
          "ticks": 32544,
          "time": 90.40011299999999,
          "velocity": 0.3700787401574803
        },
        {
          "duration": 0.030555593749994614,
          "durationTicks": 11,
          "midi": 102,
          "name": "F#7",
          "ticks": 32928,
          "time": 91.466781,
          "velocity": 0.3700787401574803
        },
        {
          "duration": 0.030555593749994614,
          "durationTicks": 11,
          "midi": 102,
          "name": "F#7",
          "ticks": 32940,
          "time": 91.500114375,
          "velocity": 0.3700787401574803
        },
        {
          "duration": 0.030555593749994614,
          "durationTicks": 11,
          "midi": 102,
          "name": "F#7",
          "ticks": 32952,
          "time": 91.53344775,
          "velocity": 0.3700787401574803
        },
        {
          "duration": 0.030555593749994614,
          "durationTicks": 11,
          "midi": 102,
          "name": "F#7",
          "ticks": 32964,
          "time": 91.56678112499999,
          "velocity": 0.3700787401574803
        },
        {
          "duration": 0.030555593749994614,
          "durationTicks": 11,
          "midi": 102,
          "name": "F#7",
          "ticks": 32976,
          "time": 91.60011449999999,
          "velocity": 0.3700787401574803
        },
        {
          "duration": 0.030555593749994614,
          "durationTicks": 11,
          "midi": 102,
          "name": "F#7",
          "ticks": 32988,
          "time": 91.633447875,
          "velocity": 0.3700787401574803
        },
        {
          "duration": 0.030555593749994614,
          "durationTicks": 11,
          "midi": 102,
          "name": "F#7",
          "ticks": 33000,
          "time": 91.66678125,
          "velocity": 0.3700787401574803
        },
        {
          "duration": 0.030555593749994614,
          "durationTicks": 11,
          "midi": 102,
          "name": "F#7",
          "ticks": 33012,
          "time": 91.700114625,
          "velocity": 0.3700787401574803
        },
        {
          "duration": 0.030555593749994614,
          "durationTicks": 11,
          "midi": 102,
          "name": "F#7",
          "ticks": 33024,
          "time": 91.733448,
          "velocity": 0.3700787401574803
        },
        {
          "duration": 0.030555593749994614,
          "durationTicks": 11,
          "midi": 102,
          "name": "F#7",
          "ticks": 33036,
          "time": 91.766781375,
          "velocity": 0.3700787401574803
        },
        {
          "duration": 0.030555593749994614,
          "durationTicks": 11,
          "midi": 102,
          "name": "F#7",
          "ticks": 33048,
          "time": 91.80011474999999,
          "velocity": 0.3700787401574803
        },
        {
          "duration": 0.030555593749994614,
          "durationTicks": 11,
          "midi": 102,
          "name": "F#7",
          "ticks": 33060,
          "time": 91.83344812499999,
          "velocity": 0.3700787401574803
        },
        {
          "duration": 0.030555593749994614,
          "durationTicks": 11,
          "midi": 102,
          "name": "F#7",
          "ticks": 33072,
          "time": 91.8667815,
          "velocity": 0.3700787401574803
        },
        {
          "duration": 0.030555593749994614,
          "durationTicks": 11,
          "midi": 102,
          "name": "F#7",
          "ticks": 33084,
          "time": 91.900114875,
          "velocity": 0.3700787401574803
        },
        {
          "duration": 0.030555593749994614,
          "durationTicks": 11,
          "midi": 102,
          "name": "F#7",
          "ticks": 33096,
          "time": 91.93344825,
          "velocity": 0.3700787401574803
        },
        {
          "duration": 0.030555593749994614,
          "durationTicks": 11,
          "midi": 102,
          "name": "F#7",
          "ticks": 33108,
          "time": 91.966781625,
          "velocity": 0.3700787401574803
        },
        {
          "duration": 0.030555593749994614,
          "durationTicks": 11,
          "midi": 102,
          "name": "F#7",
          "ticks": 33120,
          "time": 92.000115,
          "velocity": 0.3700787401574803
        },
        {
          "duration": 0.030555593749994614,
          "durationTicks": 11,
          "midi": 102,
          "name": "F#7",
          "ticks": 33132,
          "time": 92.03344837499999,
          "velocity": 0.3700787401574803
        },
        {
          "duration": 0.030555593749994614,
          "durationTicks": 11,
          "midi": 102,
          "name": "F#7",
          "ticks": 33144,
          "time": 92.06678174999999,
          "velocity": 0.3700787401574803
        },
        {
          "duration": 0.030555593749994614,
          "durationTicks": 11,
          "midi": 102,
          "name": "F#7",
          "ticks": 33156,
          "time": 92.100115125,
          "velocity": 0.3700787401574803
        },
        {
          "duration": 0.030555593749994614,
          "durationTicks": 11,
          "midi": 102,
          "name": "F#7",
          "ticks": 33168,
          "time": 92.1334485,
          "velocity": 0.3700787401574803
        },
        {
          "duration": 0.030555593749994614,
          "durationTicks": 11,
          "midi": 102,
          "name": "F#7",
          "ticks": 33180,
          "time": 92.166781875,
          "velocity": 0.3700787401574803
        },
        {
          "duration": 0.030555593749994614,
          "durationTicks": 11,
          "midi": 102,
          "name": "F#7",
          "ticks": 33192,
          "time": 92.20011525,
          "velocity": 0.3700787401574803
        },
        {
          "duration": 0.030555593749994614,
          "durationTicks": 11,
          "midi": 102,
          "name": "F#7",
          "ticks": 33204,
          "time": 92.233448625,
          "velocity": 0.3700787401574803
        },
        {
          "duration": 0.030555593749994614,
          "durationTicks": 11,
          "midi": 102,
          "name": "F#7",
          "ticks": 33216,
          "time": 92.26678199999999,
          "velocity": 0.3700787401574803
        },
        {
          "duration": 0.030555593749994614,
          "durationTicks": 11,
          "midi": 102,
          "name": "F#7",
          "ticks": 33228,
          "time": 92.30011537499999,
          "velocity": 0.3700787401574803
        },
        {
          "duration": 0.030555593749994614,
          "durationTicks": 11,
          "midi": 102,
          "name": "F#7",
          "ticks": 33240,
          "time": 92.33344875,
          "velocity": 0.3700787401574803
        },
        {
          "duration": 0.030555593749994614,
          "durationTicks": 11,
          "midi": 102,
          "name": "F#7",
          "ticks": 33252,
          "time": 92.366782125,
          "velocity": 0.3700787401574803
        },
        {
          "duration": 0.030555593749994614,
          "durationTicks": 11,
          "midi": 102,
          "name": "F#7",
          "ticks": 33264,
          "time": 92.4001155,
          "velocity": 0.3700787401574803
        },
        {
          "duration": 0.030555593749994614,
          "durationTicks": 11,
          "midi": 102,
          "name": "F#7",
          "ticks": 33276,
          "time": 92.433448875,
          "velocity": 0.3700787401574803
        },
        {
          "duration": 0.030555593749994614,
          "durationTicks": 11,
          "midi": 102,
          "name": "F#7",
          "ticks": 33288,
          "time": 92.46678225,
          "velocity": 0.3700787401574803
        },
        {
          "duration": 0.030555593749994614,
          "durationTicks": 11,
          "midi": 102,
          "name": "F#7",
          "ticks": 33300,
          "time": 92.50011562499999,
          "velocity": 0.3700787401574803
        },
        {
          "duration": 0.030555593749994614,
          "durationTicks": 11,
          "midi": 102,
          "name": "F#7",
          "ticks": 33312,
          "time": 92.53344899999999,
          "velocity": 0.3700787401574803
        },
        {
          "duration": 0.030555593749994614,
          "durationTicks": 11,
          "midi": 102,
          "name": "F#7",
          "ticks": 33324,
          "time": 92.566782375,
          "velocity": 0.3700787401574803
        },
        {
          "duration": 0.030555593749994614,
          "durationTicks": 11,
          "midi": 102,
          "name": "F#7",
          "ticks": 33336,
          "time": 92.60011575,
          "velocity": 0.3700787401574803
        },
        {
          "duration": 0.030555593749994614,
          "durationTicks": 11,
          "midi": 102,
          "name": "F#7",
          "ticks": 33348,
          "time": 92.633449125,
          "velocity": 0.3700787401574803
        },
        {
          "duration": 0.030555593749994614,
          "durationTicks": 11,
          "midi": 102,
          "name": "F#7",
          "ticks": 33360,
          "time": 92.6667825,
          "velocity": 0.3700787401574803
        },
        {
          "duration": 0.030555593749994614,
          "durationTicks": 11,
          "midi": 102,
          "name": "F#7",
          "ticks": 33372,
          "time": 92.700115875,
          "velocity": 0.3700787401574803
        },
        {
          "duration": 0.030555593749994614,
          "durationTicks": 11,
          "midi": 102,
          "name": "F#7",
          "ticks": 33384,
          "time": 92.73344924999999,
          "velocity": 0.3700787401574803
        },
        {
          "duration": 0.030555593749994614,
          "durationTicks": 11,
          "midi": 102,
          "name": "F#7",
          "ticks": 33396,
          "time": 92.76678262499999,
          "velocity": 0.3700787401574803
        },
        {
          "duration": 0.030555593749994614,
          "durationTicks": 11,
          "midi": 102,
          "name": "F#7",
          "ticks": 33408,
          "time": 92.800116,
          "velocity": 0.3700787401574803
        },
        {
          "duration": 0.030555593749994614,
          "durationTicks": 11,
          "midi": 102,
          "name": "F#7",
          "ticks": 33420,
          "time": 92.833449375,
          "velocity": 0.3700787401574803
        },
        {
          "duration": 0.030555593749994614,
          "durationTicks": 11,
          "midi": 102,
          "name": "F#7",
          "ticks": 33432,
          "time": 92.86678275,
          "velocity": 0.3700787401574803
        },
        {
          "duration": 0.030555593749994614,
          "durationTicks": 11,
          "midi": 102,
          "name": "F#7",
          "ticks": 33444,
          "time": 92.900116125,
          "velocity": 0.3700787401574803
        },
        {
          "duration": 0.030555593749994614,
          "durationTicks": 11,
          "midi": 101,
          "name": "F7",
          "ticks": 33456,
          "time": 92.9334495,
          "velocity": 0.3700787401574803
        },
        {
          "duration": 0.030555593749994614,
          "durationTicks": 11,
          "midi": 101,
          "name": "F7",
          "ticks": 33468,
          "time": 92.96678287499999,
          "velocity": 0.3700787401574803
        },
        {
          "duration": 0.030555593749994614,
          "durationTicks": 11,
          "midi": 101,
          "name": "F7",
          "ticks": 33480,
          "time": 93.00011624999999,
          "velocity": 0.3700787401574803
        },
        {
          "duration": 0.030555593750008825,
          "durationTicks": 11,
          "midi": 101,
          "name": "F7",
          "ticks": 33492,
          "time": 93.03344962499999,
          "velocity": 0.3700787401574803
        },
        {
          "duration": 0.030555593749994614,
          "durationTicks": 11,
          "midi": 100,
          "name": "E7",
          "ticks": 33504,
          "time": 93.066783,
          "velocity": 0.3700787401574803
        },
        {
          "duration": 0.030555593749994614,
          "durationTicks": 11,
          "midi": 100,
          "name": "E7",
          "ticks": 33516,
          "time": 93.100116375,
          "velocity": 0.3700787401574803
        },
        {
          "duration": 0.030555593749994614,
          "durationTicks": 11,
          "midi": 99,
          "name": "D#7",
          "ticks": 33528,
          "time": 93.13344975,
          "velocity": 0.3700787401574803
        },
        {
          "duration": 0.030555593749994614,
          "durationTicks": 11,
          "midi": 99,
          "name": "D#7",
          "ticks": 33540,
          "time": 93.166783125,
          "velocity": 0.3700787401574803
        },
        {
          "duration": 0.030555593749994614,
          "durationTicks": 11,
          "midi": 98,
          "name": "D7",
          "ticks": 33552,
          "time": 93.2001165,
          "velocity": 0.3700787401574803
        },
        {
          "duration": 0.030555593749994614,
          "durationTicks": 11,
          "midi": 97,
          "name": "C#7",
          "ticks": 33564,
          "time": 93.23344987499999,
          "velocity": 0.3700787401574803
        },
        {
          "duration": 0.030555593749994614,
          "durationTicks": 11,
          "midi": 96,
          "name": "C7",
          "ticks": 33576,
          "time": 93.26678324999999,
          "velocity": 0.3700787401574803
        },
        {
          "duration": 0.030555593749994614,
          "durationTicks": 11,
          "midi": 95,
          "name": "B6",
          "ticks": 33588,
          "time": 93.300116625,
          "velocity": 0.3700787401574803
        },
        {
          "duration": 0.013888906249988509,
          "durationTicks": 5,
          "midi": 94,
          "name": "A#6",
          "ticks": 33600,
          "time": 93.33345,
          "velocity": 0.3700787401574803
        },
        {
          "duration": 0.01388890625000272,
          "durationTicks": 5,
          "midi": 93,
          "name": "A6",
          "ticks": 33606,
          "time": 93.35011668749999,
          "velocity": 0.3700787401574803
        },
        {
          "duration": 0.01388890625000272,
          "durationTicks": 5,
          "midi": 92,
          "name": "G#6",
          "ticks": 33611,
          "time": 93.36400559375,
          "velocity": 0.3700787401574803
        },
        {
          "duration": 0.01388890625001693,
          "durationTicks": 5,
          "midi": 91,
          "name": "G6",
          "ticks": 33617,
          "time": 93.38067228124999,
          "velocity": 0.3700787401574803
        },
        {
          "duration": 0.013888906249988509,
          "durationTicks": 5,
          "midi": 90,
          "name": "F#6",
          "ticks": 33622,
          "time": 93.3945611875,
          "velocity": 0.3700787401574803
        },
        {
          "duration": 0.01388890625000272,
          "durationTicks": 5,
          "midi": 89,
          "name": "F6",
          "ticks": 33628,
          "time": 93.411227875,
          "velocity": 0.3700787401574803
        },
        {
          "duration": 0.013888906249988509,
          "durationTicks": 5,
          "midi": 88,
          "name": "E6",
          "ticks": 33633,
          "time": 93.42511678125,
          "velocity": 0.3700787401574803
        },
        {
          "duration": 0.01388890625000272,
          "durationTicks": 5,
          "midi": 87,
          "name": "D#6",
          "ticks": 33639,
          "time": 93.44178346874999,
          "velocity": 0.3700787401574803
        },
        {
          "duration": 0.016666687499991895,
          "durationTicks": 6,
          "midi": 86,
          "name": "D6",
          "ticks": 33644,
          "time": 93.45567237499999,
          "velocity": 0.3700787401574803
        },
        {
          "duration": 0.01388890625001693,
          "durationTicks": 5,
          "midi": 85,
          "name": "C#6",
          "ticks": 33650,
          "time": 93.47233906249998,
          "velocity": 0.3700787401574803
        },
        {
          "duration": 0.01388890625001693,
          "durationTicks": 5,
          "midi": 84,
          "name": "C6",
          "ticks": 33656,
          "time": 93.48900574999999,
          "velocity": 0.3700787401574803
        },
        {
          "duration": 0.013888906249988509,
          "durationTicks": 5,
          "midi": 83,
          "name": "B5",
          "ticks": 33661,
          "time": 93.50289465625,
          "velocity": 0.3700787401574803
        },
        {
          "duration": 0.01388890625000272,
          "durationTicks": 5,
          "midi": 82,
          "name": "A#5",
          "ticks": 33667,
          "time": 93.51956134375,
          "velocity": 0.3700787401574803
        },
        {
          "duration": 0.013888906249988509,
          "durationTicks": 5,
          "midi": 81,
          "name": "A5",
          "ticks": 33672,
          "time": 93.53345025,
          "velocity": 0.3700787401574803
        },
        {
          "duration": 0.01388890625000272,
          "durationTicks": 5,
          "midi": 80,
          "name": "G#5",
          "ticks": 33678,
          "time": 93.5501169375,
          "velocity": 0.3700787401574803
        },
        {
          "duration": 0.01388890625000272,
          "durationTicks": 5,
          "midi": 79,
          "name": "G5",
          "ticks": 33683,
          "time": 93.56400584375,
          "velocity": 0.3700787401574803
        },
        {
          "duration": 0.01388890625001693,
          "durationTicks": 5,
          "midi": 78,
          "name": "F#5",
          "ticks": 33689,
          "time": 93.58067253124999,
          "velocity": 0.3700787401574803
        },
        {
          "duration": 0.1333335000000062,
          "durationTicks": 48,
          "midi": 94,
          "name": "A#6",
          "ticks": 35616,
          "time": 98.93345699999999,
          "velocity": 0.3779527559055118
        },
        {
          "duration": 0.1333335000000062,
          "durationTicks": 48,
          "midi": 93,
          "name": "A6",
          "ticks": 35680,
          "time": 99.111235,
          "velocity": 0.33858267716535434
        },
        {
          "duration": 0.133333499999992,
          "durationTicks": 48,
          "midi": 92,
          "name": "G#6",
          "ticks": 35744,
          "time": 99.289013,
          "velocity": 0.2992125984251969
        },
        {
          "duration": 0.066666749999996,
          "durationTicks": 24,
          "midi": 91,
          "name": "G6",
          "ticks": 35808,
          "time": 99.466791,
          "velocity": 0.2677165354330709
        },
        {
          "duration": 0.066666749999996,
          "durationTicks": 24,
          "midi": 90,
          "name": "F#6",
          "ticks": 35856,
          "time": 99.60012449999999,
          "velocity": 0.23622047244094488
        },
        {
          "duration": 0.066666749999996,
          "durationTicks": 24,
          "midi": 89,
          "name": "F6",
          "ticks": 35904,
          "time": 99.733458,
          "velocity": 0.2125984251968504
        },
        {
          "duration": 0.06666675000001021,
          "durationTicks": 24,
          "midi": 88,
          "name": "E6",
          "ticks": 35952,
          "time": 99.86679149999999,
          "velocity": 0.18110236220472442
        },
        {
          "duration": 0.04444449999999733,
          "durationTicks": 16,
          "midi": 87,
          "name": "D#6",
          "ticks": 36000,
          "time": 100.000125,
          "velocity": 0.15748031496062992
        },
        {
          "duration": 0.04444449999999733,
          "durationTicks": 16,
          "midi": 86,
          "name": "D6",
          "ticks": 36032,
          "time": 100.08901399999999,
          "velocity": 0.13385826771653545
        },
        {
          "duration": 0.04444449999998312,
          "durationTicks": 16,
          "midi": 85,
          "name": "C#6",
          "ticks": 36064,
          "time": 100.177903,
          "velocity": 0.11811023622047244
        },
        {
          "duration": 0.044444500000011544,
          "durationTicks": 16,
          "midi": 84,
          "name": "C6",
          "ticks": 36096,
          "time": 100.266792,
          "velocity": 0.10236220472440945
        },
        {
          "duration": 0.044444500000011544,
          "durationTicks": 16,
          "midi": 83,
          "name": "B5",
          "ticks": 36128,
          "time": 100.35568099999999,
          "velocity": 0.07874015748031496
        },
        {
          "duration": 0.04444449999999733,
          "durationTicks": 16,
          "midi": 82,
          "name": "A#5",
          "ticks": 36160,
          "time": 100.44457,
          "velocity": 0.06299212598425197
        },
        {
          "duration": 0.044444500000011544,
          "durationTicks": 16,
          "midi": 81,
          "name": "A5",
          "ticks": 36192,
          "time": 100.533459,
          "velocity": 0.047244094488188976
        },
        {
          "duration": 0.04444449999998312,
          "durationTicks": 16,
          "midi": 80,
          "name": "G#5",
          "ticks": 36208,
          "time": 100.5779035,
          "velocity": 0.031496062992125984
        },
        {
          "duration": 0.044444500000011544,
          "durationTicks": 16,
          "midi": 79,
          "name": "G5",
          "ticks": 36224,
          "time": 100.62234799999999,
          "velocity": 0.023622047244094488
        },
        {
          "duration": 0.04444449999999733,
          "durationTicks": 16,
          "midi": 78,
          "name": "F#5",
          "ticks": 36240,
          "time": 100.6667925,
          "velocity": 0.015748031496062992
        },
        {
          "duration": 0.04444449999999733,
          "durationTicks": 16,
          "midi": 77,
          "name": "F5",
          "ticks": 36256,
          "time": 100.711237,
          "velocity": 0.007874015748031496
        },
        {
          "duration": 0.011111124999985122,
          "durationTicks": 4,
          "midi": 27,
          "name": "D#1",
          "ticks": 60096,
          "time": 166.933542,
          "velocity": 0.5748031496062992
        },
        {
          "duration": 0.011111124999985122,
          "durationTicks": 4,
          "midi": 27,
          "name": "D#1",
          "ticks": 60108,
          "time": 166.966875375,
          "velocity": 0.5748031496062992
        },
        {
          "duration": 0.011111124999985122,
          "durationTicks": 4,
          "midi": 27,
          "name": "D#1",
          "ticks": 60120,
          "time": 167.00020874999998,
          "velocity": 0.5748031496062992
        },
        {
          "duration": 0.011111124999985122,
          "durationTicks": 4,
          "midi": 27,
          "name": "D#1",
          "ticks": 60132,
          "time": 167.033542125,
          "velocity": 0.5748031496062992
        },
        {
          "duration": 0.011111125000013544,
          "durationTicks": 4,
          "midi": 27,
          "name": "D#1",
          "ticks": 60144,
          "time": 167.06687549999998,
          "velocity": 0.5748031496062992
        },
        {
          "duration": 0.011111124999985122,
          "durationTicks": 4,
          "midi": 27,
          "name": "D#1",
          "ticks": 60156,
          "time": 167.100208875,
          "velocity": 0.5748031496062992
        },
        {
          "duration": 0.011111124999985122,
          "durationTicks": 4,
          "midi": 27,
          "name": "D#1",
          "ticks": 60168,
          "time": 167.13354225,
          "velocity": 0.5748031496062992
        },
        {
          "duration": 0.011111124999985122,
          "durationTicks": 4,
          "midi": 27,
          "name": "D#1",
          "ticks": 60180,
          "time": 167.166875625,
          "velocity": 0.5748031496062992
        },
        {
          "duration": 0.008333343749995947,
          "durationTicks": 3,
          "midi": 34,
          "name": "A#1",
          "ticks": 60192,
          "time": 167.200209,
          "velocity": 0.7874015748031497
        },
        {
          "duration": 0.008333343749995947,
          "durationTicks": 3,
          "midi": 22,
          "name": "A#0",
          "ticks": 60192,
          "time": 167.200209,
          "velocity": 0.7874015748031497
        },
        {
          "duration": 0.008333343749995947,
          "durationTicks": 3,
          "midi": 51,
          "name": "D#3",
          "ticks": 60192,
          "time": 167.200209,
          "velocity": 0.5669291338582677
        },
        {
          "duration": 0.008333343749995947,
          "durationTicks": 3,
          "midi": 58,
          "name": "A#3",
          "ticks": 60192,
          "time": 167.200209,
          "velocity": 0.5669291338582677
        },
        {
          "duration": 0.008333343749995947,
          "durationTicks": 3,
          "midi": 46,
          "name": "A#2",
          "ticks": 60192,
          "time": 167.200209,
          "velocity": 0.5669291338582677
        },
        {
          "duration": 0.008333343749995947,
          "durationTicks": 3,
          "midi": 39,
          "name": "D#2",
          "ticks": 60192,
          "time": 167.200209,
          "velocity": 0.7874015748031497
        },
        {
          "duration": 0.008333343749995947,
          "durationTicks": 3,
          "midi": 27,
          "name": "D#1",
          "ticks": 60192,
          "time": 167.200209,
          "velocity": 0.7874015748031497
        },
        {
          "duration": 0.008333343749995947,
          "durationTicks": 3,
          "midi": 27,
          "name": "D#1",
          "ticks": 60216,
          "time": 167.26687575,
          "velocity": 0.7874015748031497
        },
        {
          "duration": 0.008333343749995947,
          "durationTicks": 3,
          "midi": 39,
          "name": "D#2",
          "ticks": 60216,
          "time": 167.26687575,
          "velocity": 0.7874015748031497
        },
        {
          "duration": 0.008333343749995947,
          "durationTicks": 3,
          "midi": 46,
          "name": "A#2",
          "ticks": 60216,
          "time": 167.26687575,
          "velocity": 0.5669291338582677
        },
        {
          "duration": 0.008333343749995947,
          "durationTicks": 3,
          "midi": 58,
          "name": "A#3",
          "ticks": 60216,
          "time": 167.26687575,
          "velocity": 0.5669291338582677
        },
        {
          "duration": 0.008333343749995947,
          "durationTicks": 3,
          "midi": 51,
          "name": "D#3",
          "ticks": 60216,
          "time": 167.26687575,
          "velocity": 0.5669291338582677
        },
        {
          "duration": 0.008333343749995947,
          "durationTicks": 3,
          "midi": 22,
          "name": "A#0",
          "ticks": 60216,
          "time": 167.26687575,
          "velocity": 0.7874015748031497
        },
        {
          "duration": 0.008333343749995947,
          "durationTicks": 3,
          "midi": 34,
          "name": "A#1",
          "ticks": 60216,
          "time": 167.26687575,
          "velocity": 0.7874015748031497
        },
        {
          "duration": 0.008333343749995947,
          "durationTicks": 3,
          "midi": 27,
          "name": "D#1",
          "ticks": 60240,
          "time": 167.3335425,
          "velocity": 0.7874015748031497
        },
        {
          "duration": 0.008333343749995947,
          "durationTicks": 3,
          "midi": 39,
          "name": "D#2",
          "ticks": 60240,
          "time": 167.3335425,
          "velocity": 0.7874015748031497
        },
        {
          "duration": 0.008333343749995947,
          "durationTicks": 3,
          "midi": 46,
          "name": "A#2",
          "ticks": 60240,
          "time": 167.3335425,
          "velocity": 0.5669291338582677
        },
        {
          "duration": 0.008333343749995947,
          "durationTicks": 3,
          "midi": 58,
          "name": "A#3",
          "ticks": 60240,
          "time": 167.3335425,
          "velocity": 0.5669291338582677
        },
        {
          "duration": 0.008333343749995947,
          "durationTicks": 3,
          "midi": 51,
          "name": "D#3",
          "ticks": 60240,
          "time": 167.3335425,
          "velocity": 0.5669291338582677
        },
        {
          "duration": 0.008333343749995947,
          "durationTicks": 3,
          "midi": 22,
          "name": "A#0",
          "ticks": 60240,
          "time": 167.3335425,
          "velocity": 0.7874015748031497
        },
        {
          "duration": 0.008333343749995947,
          "durationTicks": 3,
          "midi": 34,
          "name": "A#1",
          "ticks": 60240,
          "time": 167.3335425,
          "velocity": 0.7874015748031497
        },
        {
          "duration": 0.008333343749995947,
          "durationTicks": 3,
          "midi": 39,
          "name": "D#2",
          "ticks": 60264,
          "time": 167.40020925,
          "velocity": 0.7874015748031497
        },
        {
          "duration": 0.008333343749995947,
          "durationTicks": 3,
          "midi": 27,
          "name": "D#1",
          "ticks": 60264,
          "time": 167.40020925,
          "velocity": 0.7874015748031497
        },
        {
          "duration": 0.008333343749995947,
          "durationTicks": 3,
          "midi": 46,
          "name": "A#2",
          "ticks": 60264,
          "time": 167.40020925,
          "velocity": 0.5669291338582677
        },
        {
          "duration": 0.008333343749995947,
          "durationTicks": 3,
          "midi": 58,
          "name": "A#3",
          "ticks": 60264,
          "time": 167.40020925,
          "velocity": 0.5669291338582677
        },
        {
          "duration": 0.008333343749995947,
          "durationTicks": 3,
          "midi": 51,
          "name": "D#3",
          "ticks": 60264,
          "time": 167.40020925,
          "velocity": 0.5669291338582677
        },
        {
          "duration": 0.008333343749995947,
          "durationTicks": 3,
          "midi": 34,
          "name": "A#1",
          "ticks": 60264,
          "time": 167.40020925,
          "velocity": 0.7874015748031497
        },
        {
          "duration": 0.008333343749995947,
          "durationTicks": 3,
          "midi": 22,
          "name": "A#0",
          "ticks": 60264,
          "time": 167.40020925,
          "velocity": 0.7874015748031497
        },
        {
          "duration": 0.041666718749979736,
          "durationTicks": 15,
          "midi": 102,
          "name": "F#7",
          "ticks": 61056,
          "time": 169.600212,
          "velocity": 0.7795275590551181
        },
        {
          "duration": 0.030555593749994614,
          "durationTicks": 11,
          "midi": 102,
          "name": "F#7",
          "ticks": 61536,
          "time": 170.933547,
          "velocity": 0.3700787401574803
        },
        {
          "duration": 0.030555593750023036,
          "durationTicks": 11,
          "midi": 102,
          "name": "F#7",
          "ticks": 61548,
          "time": 170.966880375,
          "velocity": 0.3700787401574803
        },
        {
          "duration": 0.030555593749994614,
          "durationTicks": 11,
          "midi": 102,
          "name": "F#7",
          "ticks": 61560,
          "time": 171.00021375,
          "velocity": 0.3700787401574803
        },
        {
          "duration": 0.030555593750023036,
          "durationTicks": 11,
          "midi": 102,
          "name": "F#7",
          "ticks": 61572,
          "time": 171.03354712499998,
          "velocity": 0.3700787401574803
        },
        {
          "duration": 0.030555593749994614,
          "durationTicks": 11,
          "midi": 102,
          "name": "F#7",
          "ticks": 61584,
          "time": 171.0668805,
          "velocity": 0.3700787401574803
        },
        {
          "duration": 0.030555593750023036,
          "durationTicks": 11,
          "midi": 102,
          "name": "F#7",
          "ticks": 61596,
          "time": 171.10021387499998,
          "velocity": 0.3700787401574803
        },
        {
          "duration": 0.030555593750023036,
          "durationTicks": 11,
          "midi": 102,
          "name": "F#7",
          "ticks": 61608,
          "time": 171.13354725,
          "velocity": 0.3700787401574803
        },
        {
          "duration": 0.030555593749994614,
          "durationTicks": 11,
          "midi": 102,
          "name": "F#7",
          "ticks": 61620,
          "time": 171.166880625,
          "velocity": 0.3700787401574803
        },
        {
          "duration": 0.030555593750023036,
          "durationTicks": 11,
          "midi": 102,
          "name": "F#7",
          "ticks": 61632,
          "time": 171.200214,
          "velocity": 0.3700787401574803
        },
        {
          "duration": 0.030555593749994614,
          "durationTicks": 11,
          "midi": 102,
          "name": "F#7",
          "ticks": 61644,
          "time": 171.233547375,
          "velocity": 0.3700787401574803
        },
        {
          "duration": 0.030555593750023036,
          "durationTicks": 11,
          "midi": 102,
          "name": "F#7",
          "ticks": 61656,
          "time": 171.26688074999998,
          "velocity": 0.3700787401574803
        },
        {
          "duration": 0.030555593749994614,
          "durationTicks": 11,
          "midi": 102,
          "name": "F#7",
          "ticks": 61668,
          "time": 171.300214125,
          "velocity": 0.3700787401574803
        },
        {
          "duration": 0.030555593750023036,
          "durationTicks": 11,
          "midi": 102,
          "name": "F#7",
          "ticks": 61680,
          "time": 171.33354749999998,
          "velocity": 0.3700787401574803
        },
        {
          "duration": 0.030555593750023036,
          "durationTicks": 11,
          "midi": 102,
          "name": "F#7",
          "ticks": 61692,
          "time": 171.366880875,
          "velocity": 0.3700787401574803
        },
        {
          "duration": 0.030555593749994614,
          "durationTicks": 11,
          "midi": 102,
          "name": "F#7",
          "ticks": 61704,
          "time": 171.40021425,
          "velocity": 0.3700787401574803
        },
        {
          "duration": 0.030555593750023036,
          "durationTicks": 11,
          "midi": 102,
          "name": "F#7",
          "ticks": 61716,
          "time": 171.433547625,
          "velocity": 0.3700787401574803
        },
        {
          "duration": 0.030555593749994614,
          "durationTicks": 11,
          "midi": 102,
          "name": "F#7",
          "ticks": 61728,
          "time": 171.466881,
          "velocity": 0.3700787401574803
        },
        {
          "duration": 0.030555593750023036,
          "durationTicks": 11,
          "midi": 102,
          "name": "F#7",
          "ticks": 61740,
          "time": 171.50021437499998,
          "velocity": 0.3700787401574803
        },
        {
          "duration": 0.030555593749994614,
          "durationTicks": 11,
          "midi": 102,
          "name": "F#7",
          "ticks": 61752,
          "time": 171.53354775,
          "velocity": 0.3700787401574803
        },
        {
          "duration": 0.030555593750023036,
          "durationTicks": 11,
          "midi": 102,
          "name": "F#7",
          "ticks": 61764,
          "time": 171.56688112499998,
          "velocity": 0.3700787401574803
        },
        {
          "duration": 0.030555593750023036,
          "durationTicks": 11,
          "midi": 102,
          "name": "F#7",
          "ticks": 61776,
          "time": 171.6002145,
          "velocity": 0.3700787401574803
        },
        {
          "duration": 0.030555593749994614,
          "durationTicks": 11,
          "midi": 102,
          "name": "F#7",
          "ticks": 61788,
          "time": 171.633547875,
          "velocity": 0.3700787401574803
        },
        {
          "duration": 0.030555593750023036,
          "durationTicks": 11,
          "midi": 102,
          "name": "F#7",
          "ticks": 61800,
          "time": 171.66688125,
          "velocity": 0.3700787401574803
        },
        {
          "duration": 0.030555593749994614,
          "durationTicks": 11,
          "midi": 102,
          "name": "F#7",
          "ticks": 61812,
          "time": 171.700214625,
          "velocity": 0.3700787401574803
        },
        {
          "duration": 0.04166671875000816,
          "durationTicks": 15,
          "midi": 102,
          "name": "F#7",
          "ticks": 61824,
          "time": 171.73354799999998,
          "velocity": 0.5511811023622047
        },
        {
          "duration": 0.04166671875000816,
          "durationTicks": 15,
          "midi": 102,
          "name": "F#7",
          "ticks": 62208,
          "time": 172.80021599999998,
          "velocity": 0.5511811023622047
        },
        {
          "duration": 0.041666718749979736,
          "durationTicks": 15,
          "midi": 102,
          "name": "F#7",
          "ticks": 62592,
          "time": 173.866884,
          "velocity": 0.5511811023622047
        },
        {
          "duration": 0.04166671875000816,
          "durationTicks": 15,
          "midi": 102,
          "name": "F#7",
          "ticks": 62976,
          "time": 174.933552,
          "velocity": 0.5511811023622047
        },
        {
          "duration": 0.04166671875000816,
          "durationTicks": 15,
          "midi": 102,
          "name": "F#7",
          "ticks": 63360,
          "time": 176.00021999999998,
          "velocity": 0.5511811023622047
        },
        {
          "duration": 0.041666718749979736,
          "durationTicks": 15,
          "midi": 102,
          "name": "F#7",
          "ticks": 63744,
          "time": 177.066888,
          "velocity": 0.5511811023622047
        },
        {
          "duration": 0.041666718749979736,
          "durationTicks": 15,
          "midi": 102,
          "name": "F#7",
          "ticks": 64128,
          "time": 178.133556,
          "velocity": 0.5511811023622047
        },
        {
          "duration": 0.04166671875000816,
          "durationTicks": 15,
          "midi": 102,
          "name": "F#7",
          "ticks": 64512,
          "time": 179.200224,
          "velocity": 0.5511811023622047
        },
        {
          "duration": 0.04166671875000816,
          "durationTicks": 15,
          "midi": 102,
          "name": "F#7",
          "ticks": 64896,
          "time": 180.26689199999998,
          "velocity": 0.5511811023622047
        },
        {
          "duration": 0.011111125000013544,
          "durationTicks": 4,
          "midi": 26,
          "name": "D1",
          "ticks": 65952,
          "time": 183.20022899999998,
          "velocity": 0.5748031496062992
        },
        {
          "duration": 0.011111124999985122,
          "durationTicks": 4,
          "midi": 26,
          "name": "D1",
          "ticks": 65964,
          "time": 183.233562375,
          "velocity": 0.5748031496062992
        },
        {
          "duration": 0.011111124999985122,
          "durationTicks": 4,
          "midi": 26,
          "name": "D1",
          "ticks": 65976,
          "time": 183.26689575,
          "velocity": 0.5748031496062992
        },
        {
          "duration": 0.011111124999985122,
          "durationTicks": 4,
          "midi": 26,
          "name": "D1",
          "ticks": 65988,
          "time": 183.300229125,
          "velocity": 0.5748031496062992
        },
        {
          "duration": 0.011111124999985122,
          "durationTicks": 4,
          "midi": 26,
          "name": "D1",
          "ticks": 66000,
          "time": 183.3335625,
          "velocity": 0.5748031496062992
        },
        {
          "duration": 0.011111124999985122,
          "durationTicks": 4,
          "midi": 26,
          "name": "D1",
          "ticks": 66012,
          "time": 183.36689587499998,
          "velocity": 0.5748031496062992
        },
        {
          "duration": 0.011111124999985122,
          "durationTicks": 4,
          "midi": 26,
          "name": "D1",
          "ticks": 66024,
          "time": 183.40022925,
          "velocity": 0.5748031496062992
        },
        {
          "duration": 0.011111125000013544,
          "durationTicks": 4,
          "midi": 26,
          "name": "D1",
          "ticks": 66036,
          "time": 183.43356262499998,
          "velocity": 0.5748031496062992
        },
        {
          "duration": 0.011111124999985122,
          "durationTicks": 4,
          "midi": 27,
          "name": "D#1",
          "ticks": 76224,
          "time": 211.733598,
          "velocity": 0.5748031496062992
        },
        {
          "duration": 0.04444449999996891,
          "durationTicks": 16,
          "midi": 55,
          "name": "G3",
          "ticks": 76224,
          "time": 211.733598,
          "velocity": 0.7874015748031497
        },
        {
          "duration": 0.011111124999985122,
          "durationTicks": 4,
          "midi": 27,
          "name": "D#1",
          "ticks": 76236,
          "time": 211.76693137499998,
          "velocity": 0.5748031496062992
        },
        {
          "duration": 0.011111124999985122,
          "durationTicks": 4,
          "midi": 27,
          "name": "D#1",
          "ticks": 76248,
          "time": 211.80026475,
          "velocity": 0.5748031496062992
        },
        {
          "duration": 0.04444449999999733,
          "durationTicks": 16,
          "midi": 62,
          "name": "D4",
          "ticks": 76248,
          "time": 211.80026475,
          "velocity": 0.7874015748031497
        },
        {
          "duration": 0.011111125000013544,
          "durationTicks": 4,
          "midi": 27,
          "name": "D#1",
          "ticks": 76260,
          "time": 211.83359812499998,
          "velocity": 0.5748031496062992
        },
        {
          "duration": 0.04444449999999733,
          "durationTicks": 16,
          "midi": 67,
          "name": "G4",
          "ticks": 76272,
          "time": 211.8669315,
          "velocity": 0.7874015748031497
        },
        {
          "duration": 0.011111124999985122,
          "durationTicks": 4,
          "midi": 27,
          "name": "D#1",
          "ticks": 76272,
          "time": 211.8669315,
          "velocity": 0.5748031496062992
        },
        {
          "duration": 0.011111125000013544,
          "durationTicks": 4,
          "midi": 27,
          "name": "D#1",
          "ticks": 76284,
          "time": 211.90026487499998,
          "velocity": 0.5748031496062992
        },
        {
          "duration": 0.011111124999985122,
          "durationTicks": 4,
          "midi": 27,
          "name": "D#1",
          "ticks": 76296,
          "time": 211.93359825,
          "velocity": 0.5748031496062992
        },
        {
          "duration": 0.04444449999999733,
          "durationTicks": 16,
          "midi": 74,
          "name": "D5",
          "ticks": 76296,
          "time": 211.93359825,
          "velocity": 0.7874015748031497
        },
        {
          "duration": 0.011111124999985122,
          "durationTicks": 4,
          "midi": 27,
          "name": "D#1",
          "ticks": 76308,
          "time": 211.966931625,
          "velocity": 0.5748031496062992
        },
        {
          "duration": 0.04444449999999733,
          "durationTicks": 16,
          "midi": 56,
          "name": "G#3",
          "ticks": 76320,
          "time": 212.00026499999998,
          "velocity": 0.7874015748031497
        },
        {
          "duration": 0.008333343749995947,
          "durationTicks": 3,
          "midi": 27,
          "name": "D#1",
          "ticks": 76320,
          "time": 212.00026499999998,
          "velocity": 0.7874015748031497
        },
        {
          "duration": 0.008333343749995947,
          "durationTicks": 3,
          "midi": 39,
          "name": "D#2",
          "ticks": 76320,
          "time": 212.00026499999998,
          "velocity": 0.7874015748031497
        },
        {
          "duration": 0.008333343749995947,
          "durationTicks": 3,
          "midi": 46,
          "name": "A#2",
          "ticks": 76320,
          "time": 212.00026499999998,
          "velocity": 0.5669291338582677
        },
        {
          "duration": 0.008333343749995947,
          "durationTicks": 3,
          "midi": 58,
          "name": "A#3",
          "ticks": 76320,
          "time": 212.00026499999998,
          "velocity": 0.5669291338582677
        },
        {
          "duration": 0.008333343749995947,
          "durationTicks": 3,
          "midi": 51,
          "name": "D#3",
          "ticks": 76320,
          "time": 212.00026499999998,
          "velocity": 0.5669291338582677
        },
        {
          "duration": 0.008333343749995947,
          "durationTicks": 3,
          "midi": 22,
          "name": "A#0",
          "ticks": 76320,
          "time": 212.00026499999998,
          "velocity": 0.7874015748031497
        },
        {
          "duration": 0.008333343749995947,
          "durationTicks": 3,
          "midi": 34,
          "name": "A#1",
          "ticks": 76320,
          "time": 212.00026499999998,
          "velocity": 0.7874015748031497
        },
        {
          "duration": 0.04444449999999733,
          "durationTicks": 16,
          "midi": 63,
          "name": "D#4",
          "ticks": 76344,
          "time": 212.06693174999998,
          "velocity": 0.7874015748031497
        },
        {
          "duration": 0.008333343749995947,
          "durationTicks": 3,
          "midi": 34,
          "name": "A#1",
          "ticks": 76344,
          "time": 212.06693174999998,
          "velocity": 0.7874015748031497
        },
        {
          "duration": 0.008333343749995947,
          "durationTicks": 3,
          "midi": 22,
          "name": "A#0",
          "ticks": 76344,
          "time": 212.06693174999998,
          "velocity": 0.7874015748031497
        },
        {
          "duration": 0.008333343749995947,
          "durationTicks": 3,
          "midi": 51,
          "name": "D#3",
          "ticks": 76344,
          "time": 212.06693174999998,
          "velocity": 0.5669291338582677
        },
        {
          "duration": 0.008333343749995947,
          "durationTicks": 3,
          "midi": 58,
          "name": "A#3",
          "ticks": 76344,
          "time": 212.06693174999998,
          "velocity": 0.5669291338582677
        },
        {
          "duration": 0.008333343749995947,
          "durationTicks": 3,
          "midi": 46,
          "name": "A#2",
          "ticks": 76344,
          "time": 212.06693174999998,
          "velocity": 0.5669291338582677
        },
        {
          "duration": 0.008333343749995947,
          "durationTicks": 3,
          "midi": 39,
          "name": "D#2",
          "ticks": 76344,
          "time": 212.06693174999998,
          "velocity": 0.7874015748031497
        },
        {
          "duration": 0.008333343749995947,
          "durationTicks": 3,
          "midi": 27,
          "name": "D#1",
          "ticks": 76344,
          "time": 212.06693174999998,
          "velocity": 0.7874015748031497
        },
        {
          "duration": 0.008333343750024369,
          "durationTicks": 3,
          "midi": 27,
          "name": "D#1",
          "ticks": 76368,
          "time": 212.13359849999998,
          "velocity": 0.7874015748031497
        },
        {
          "duration": 0.008333343750024369,
          "durationTicks": 3,
          "midi": 39,
          "name": "D#2",
          "ticks": 76368,
          "time": 212.13359849999998,
          "velocity": 0.7874015748031497
        },
        {
          "duration": 0.008333343750024369,
          "durationTicks": 3,
          "midi": 46,
          "name": "A#2",
          "ticks": 76368,
          "time": 212.13359849999998,
          "velocity": 0.5669291338582677
        },
        {
          "duration": 0.008333343750024369,
          "durationTicks": 3,
          "midi": 58,
          "name": "A#3",
          "ticks": 76368,
          "time": 212.13359849999998,
          "velocity": 0.5669291338582677
        },
        {
          "duration": 0.008333343750024369,
          "durationTicks": 3,
          "midi": 51,
          "name": "D#3",
          "ticks": 76368,
          "time": 212.13359849999998,
          "velocity": 0.5669291338582677
        },
        {
          "duration": 0.008333343750024369,
          "durationTicks": 3,
          "midi": 22,
          "name": "A#0",
          "ticks": 76368,
          "time": 212.13359849999998,
          "velocity": 0.7874015748031497
        },
        {
          "duration": 0.008333343750024369,
          "durationTicks": 3,
          "midi": 34,
          "name": "A#1",
          "ticks": 76368,
          "time": 212.13359849999998,
          "velocity": 0.7874015748031497
        },
        {
          "duration": 0.04444449999999733,
          "durationTicks": 16,
          "midi": 68,
          "name": "G#4",
          "ticks": 76368,
          "time": 212.13359849999998,
          "velocity": 0.7874015748031497
        },
        {
          "duration": 0.04444449999996891,
          "durationTicks": 16,
          "midi": 75,
          "name": "D#5",
          "ticks": 76392,
          "time": 212.20026525,
          "velocity": 0.7874015748031497
        },
        {
          "duration": 0.008333343749995947,
          "durationTicks": 3,
          "midi": 22,
          "name": "A#0",
          "ticks": 76392,
          "time": 212.20026525,
          "velocity": 0.7874015748031497
        },
        {
          "duration": 0.008333343749995947,
          "durationTicks": 3,
          "midi": 34,
          "name": "A#1",
          "ticks": 76392,
          "time": 212.20026525,
          "velocity": 0.7874015748031497
        },
        {
          "duration": 0.008333343749995947,
          "durationTicks": 3,
          "midi": 51,
          "name": "D#3",
          "ticks": 76392,
          "time": 212.20026525,
          "velocity": 0.5669291338582677
        },
        {
          "duration": 0.008333343749995947,
          "durationTicks": 3,
          "midi": 58,
          "name": "A#3",
          "ticks": 76392,
          "time": 212.20026525,
          "velocity": 0.5669291338582677
        },
        {
          "duration": 0.008333343749995947,
          "durationTicks": 3,
          "midi": 46,
          "name": "A#2",
          "ticks": 76392,
          "time": 212.20026525,
          "velocity": 0.5669291338582677
        },
        {
          "duration": 0.008333343749995947,
          "durationTicks": 3,
          "midi": 27,
          "name": "D#1",
          "ticks": 76392,
          "time": 212.20026525,
          "velocity": 0.7874015748031497
        },
        {
          "duration": 0.008333343749995947,
          "durationTicks": 3,
          "midi": 39,
          "name": "D#2",
          "ticks": 76392,
          "time": 212.20026525,
          "velocity": 0.7874015748031497
        },
        {
          "duration": 0.041666718749979736,
          "durationTicks": 15,
          "midi": 102,
          "name": "F#7",
          "ticks": 76416,
          "time": 212.266932,
          "velocity": 0.6614173228346457
        },
        {
          "duration": 0.04166671875000816,
          "durationTicks": 15,
          "midi": 102,
          "name": "F#7",
          "ticks": 76800,
          "time": 213.3336,
          "velocity": 0.6614173228346457
        },
        {
          "duration": 0.04166671875000816,
          "durationTicks": 15,
          "midi": 78,
          "name": "F#5",
          "ticks": 76992,
          "time": 213.866934,
          "velocity": 0.7874015748031497
        },
        {
          "duration": 0.04166671875000816,
          "durationTicks": 15,
          "midi": 77,
          "name": "F5",
          "ticks": 76992,
          "time": 213.866934,
          "velocity": 0.7874015748031497
        },
        {
          "duration": 0.04166671875000816,
          "durationTicks": 15,
          "midi": 90,
          "name": "F#6",
          "ticks": 76992,
          "time": 213.866934,
          "velocity": 0.7874015748031497
        },
        {
          "duration": 0.04166671875000816,
          "durationTicks": 15,
          "midi": 89,
          "name": "F6",
          "ticks": 76992,
          "time": 213.866934,
          "velocity": 0.7874015748031497
        },
        {
          "duration": 0.04166671875000816,
          "durationTicks": 15,
          "midi": 89,
          "name": "F6",
          "ticks": 77040,
          "time": 214.00026749999998,
          "velocity": 0.7874015748031497
        },
        {
          "duration": 0.04166671875000816,
          "durationTicks": 15,
          "midi": 90,
          "name": "F#6",
          "ticks": 77040,
          "time": 214.00026749999998,
          "velocity": 0.7874015748031497
        },
        {
          "duration": 0.04166671875000816,
          "durationTicks": 15,
          "midi": 77,
          "name": "F5",
          "ticks": 77040,
          "time": 214.00026749999998,
          "velocity": 0.7874015748031497
        },
        {
          "duration": 0.04166671875000816,
          "durationTicks": 15,
          "midi": 78,
          "name": "F#5",
          "ticks": 77040,
          "time": 214.00026749999998,
          "velocity": 0.7874015748031497
        },
        {
          "duration": 0.041666718749979736,
          "durationTicks": 15,
          "midi": 89,
          "name": "F6",
          "ticks": 77088,
          "time": 214.133601,
          "velocity": 0.7874015748031497
        },
        {
          "duration": 0.041666718749979736,
          "durationTicks": 15,
          "midi": 90,
          "name": "F#6",
          "ticks": 77088,
          "time": 214.133601,
          "velocity": 0.7874015748031497
        },
        {
          "duration": 0.041666718749979736,
          "durationTicks": 15,
          "midi": 77,
          "name": "F5",
          "ticks": 77088,
          "time": 214.133601,
          "velocity": 0.7874015748031497
        },
        {
          "duration": 0.041666718749979736,
          "durationTicks": 15,
          "midi": 78,
          "name": "F#5",
          "ticks": 77088,
          "time": 214.133601,
          "velocity": 0.7874015748031497
        },
        {
          "duration": 0.04166671875000816,
          "durationTicks": 15,
          "midi": 77,
          "name": "F5",
          "ticks": 77104,
          "time": 214.17804549999997,
          "velocity": 0.7874015748031497
        },
        {
          "duration": 0.04166671875000816,
          "durationTicks": 15,
          "midi": 78,
          "name": "F#5",
          "ticks": 77104,
          "time": 214.17804549999997,
          "velocity": 0.7874015748031497
        },
        {
          "duration": 0.04166671875000816,
          "durationTicks": 15,
          "midi": 89,
          "name": "F6",
          "ticks": 77104,
          "time": 214.17804549999997,
          "velocity": 0.7874015748031497
        },
        {
          "duration": 0.04166671875000816,
          "durationTicks": 15,
          "midi": 90,
          "name": "F#6",
          "ticks": 77104,
          "time": 214.17804549999997,
          "velocity": 0.7874015748031497
        },
        {
          "duration": 0.04166671875000816,
          "durationTicks": 15,
          "midi": 78,
          "name": "F#5",
          "ticks": 77120,
          "time": 214.22249,
          "velocity": 0.7874015748031497
        },
        {
          "duration": 0.04166671875000816,
          "durationTicks": 15,
          "midi": 77,
          "name": "F5",
          "ticks": 77120,
          "time": 214.22249,
          "velocity": 0.7874015748031497
        },
        {
          "duration": 0.04166671875000816,
          "durationTicks": 15,
          "midi": 90,
          "name": "F#6",
          "ticks": 77120,
          "time": 214.22249,
          "velocity": 0.7874015748031497
        },
        {
          "duration": 0.04166671875000816,
          "durationTicks": 15,
          "midi": 89,
          "name": "F6",
          "ticks": 77120,
          "time": 214.22249,
          "velocity": 0.7874015748031497
        },
        {
          "duration": 0.04166671875000816,
          "durationTicks": 15,
          "midi": 78,
          "name": "F#5",
          "ticks": 77136,
          "time": 214.2669345,
          "velocity": 0.7874015748031497
        },
        {
          "duration": 0.04166671875000816,
          "durationTicks": 15,
          "midi": 77,
          "name": "F5",
          "ticks": 77136,
          "time": 214.2669345,
          "velocity": 0.7874015748031497
        },
        {
          "duration": 0.04166671875000816,
          "durationTicks": 15,
          "midi": 90,
          "name": "F#6",
          "ticks": 77136,
          "time": 214.2669345,
          "velocity": 0.7874015748031497
        },
        {
          "duration": 0.04166671875000816,
          "durationTicks": 15,
          "midi": 89,
          "name": "F6",
          "ticks": 77136,
          "time": 214.2669345,
          "velocity": 0.7874015748031497
        },
        {
          "duration": 0.041666718749979736,
          "durationTicks": 15,
          "midi": 78,
          "name": "F#5",
          "ticks": 77152,
          "time": 214.311379,
          "velocity": 0.7874015748031497
        },
        {
          "duration": 0.041666718749979736,
          "durationTicks": 15,
          "midi": 77,
          "name": "F5",
          "ticks": 77152,
          "time": 214.311379,
          "velocity": 0.7874015748031497
        },
        {
          "duration": 0.041666718749979736,
          "durationTicks": 15,
          "midi": 90,
          "name": "F#6",
          "ticks": 77152,
          "time": 214.311379,
          "velocity": 0.7874015748031497
        },
        {
          "duration": 0.041666718749979736,
          "durationTicks": 15,
          "midi": 89,
          "name": "F6",
          "ticks": 77152,
          "time": 214.311379,
          "velocity": 0.7874015748031497
        },
        {
          "duration": 0.041666718749979736,
          "durationTicks": 15,
          "midi": 90,
          "name": "F#6",
          "ticks": 77168,
          "time": 214.3558235,
          "velocity": 0.7874015748031497
        },
        {
          "duration": 0.041666718749979736,
          "durationTicks": 15,
          "midi": 89,
          "name": "F6",
          "ticks": 77168,
          "time": 214.3558235,
          "velocity": 0.7874015748031497
        },
        {
          "duration": 0.041666718749979736,
          "durationTicks": 15,
          "midi": 78,
          "name": "F#5",
          "ticks": 77168,
          "time": 214.3558235,
          "velocity": 0.7874015748031497
        },
        {
          "duration": 0.041666718749979736,
          "durationTicks": 15,
          "midi": 77,
          "name": "F5",
          "ticks": 77168,
          "time": 214.3558235,
          "velocity": 0.7874015748031497
        },
        {
          "duration": 0.03826531249998766,
          "durationTicks": 15,
          "midi": 102,
          "name": "F#7",
          "ticks": 77184,
          "time": 214.40026799999998,
          "velocity": 0.6614173228346457
        },
        {
          "duration": 0.03826531250001608,
          "durationTicks": 15,
          "midi": 102,
          "name": "F#7",
          "ticks": 77568,
          "time": 215.37985999999998,
          "velocity": 0.6614173228346457
        },
        {
          "duration": 0.03826531249998766,
          "durationTicks": 15,
          "midi": 102,
          "name": "F#7",
          "ticks": 77760,
          "time": 215.869656,
          "velocity": 0.7874015748031497
        },
        {
          "duration": 0.03826531249998766,
          "durationTicks": 15,
          "midi": 101,
          "name": "F7",
          "ticks": 77760,
          "time": 215.869656,
          "velocity": 0.7874015748031497
        },
        {
          "duration": 0.03826531250001608,
          "durationTicks": 15,
          "midi": 101,
          "name": "F7",
          "ticks": 77808,
          "time": 215.99210499999998,
          "velocity": 0.7874015748031497
        },
        {
          "duration": 0.03826531250001608,
          "durationTicks": 15,
          "midi": 102,
          "name": "F#7",
          "ticks": 77808,
          "time": 215.99210499999998,
          "velocity": 0.7874015748031497
        },
        {
          "duration": 0.03826531250001608,
          "durationTicks": 15,
          "midi": 78,
          "name": "F#5",
          "ticks": 77856,
          "time": 216.11455399999997,
          "velocity": 0.7874015748031497
        },
        {
          "duration": 0.03826531250001608,
          "durationTicks": 15,
          "midi": 77,
          "name": "F5",
          "ticks": 77856,
          "time": 216.11455399999997,
          "velocity": 0.7874015748031497
        },
        {
          "duration": 0.03826531250001608,
          "durationTicks": 15,
          "midi": 90,
          "name": "F#6",
          "ticks": 77856,
          "time": 216.11455399999997,
          "velocity": 0.7874015748031497
        },
        {
          "duration": 0.03826531250001608,
          "durationTicks": 15,
          "midi": 89,
          "name": "F6",
          "ticks": 77856,
          "time": 216.11455399999997,
          "velocity": 0.7874015748031497
        },
        {
          "duration": 0.03826531250001608,
          "durationTicks": 15,
          "midi": 89,
          "name": "F6",
          "ticks": 77872,
          "time": 216.1553703333333,
          "velocity": 0.7874015748031497
        },
        {
          "duration": 0.03826531250001608,
          "durationTicks": 15,
          "midi": 90,
          "name": "F#6",
          "ticks": 77872,
          "time": 216.1553703333333,
          "velocity": 0.7874015748031497
        },
        {
          "duration": 0.03826531250001608,
          "durationTicks": 15,
          "midi": 77,
          "name": "F5",
          "ticks": 77872,
          "time": 216.1553703333333,
          "velocity": 0.7874015748031497
        },
        {
          "duration": 0.03826531250001608,
          "durationTicks": 15,
          "midi": 78,
          "name": "F#5",
          "ticks": 77872,
          "time": 216.1553703333333,
          "velocity": 0.7874015748031497
        },
        {
          "duration": 0.03826531249998766,
          "durationTicks": 15,
          "midi": 89,
          "name": "F6",
          "ticks": 77888,
          "time": 216.19618666666665,
          "velocity": 0.7874015748031497
        },
        {
          "duration": 0.03826531249998766,
          "durationTicks": 15,
          "midi": 90,
          "name": "F#6",
          "ticks": 77888,
          "time": 216.19618666666665,
          "velocity": 0.7874015748031497
        },
        {
          "duration": 0.03826531249998766,
          "durationTicks": 15,
          "midi": 77,
          "name": "F5",
          "ticks": 77888,
          "time": 216.19618666666665,
          "velocity": 0.7874015748031497
        },
        {
          "duration": 0.03826531249998766,
          "durationTicks": 15,
          "midi": 78,
          "name": "F#5",
          "ticks": 77888,
          "time": 216.19618666666665,
          "velocity": 0.7874015748031497
        },
        {
          "duration": 0.03826531249998766,
          "durationTicks": 15,
          "midi": 78,
          "name": "F#5",
          "ticks": 77904,
          "time": 216.237003,
          "velocity": 0.7874015748031497
        },
        {
          "duration": 0.03826531249998766,
          "durationTicks": 15,
          "midi": 77,
          "name": "F5",
          "ticks": 77904,
          "time": 216.237003,
          "velocity": 0.7874015748031497
        },
        {
          "duration": 0.03826531249998766,
          "durationTicks": 15,
          "midi": 90,
          "name": "F#6",
          "ticks": 77904,
          "time": 216.237003,
          "velocity": 0.7874015748031497
        },
        {
          "duration": 0.03826531249998766,
          "durationTicks": 15,
          "midi": 89,
          "name": "F6",
          "ticks": 77904,
          "time": 216.237003,
          "velocity": 0.7874015748031497
        },
        {
          "duration": 0.03826531249998766,
          "durationTicks": 15,
          "midi": 90,
          "name": "F#6",
          "ticks": 77920,
          "time": 216.27781933333333,
          "velocity": 0.7874015748031497
        },
        {
          "duration": 0.03826531249998766,
          "durationTicks": 15,
          "midi": 89,
          "name": "F6",
          "ticks": 77920,
          "time": 216.27781933333333,
          "velocity": 0.7874015748031497
        },
        {
          "duration": 0.03826531249998766,
          "durationTicks": 15,
          "midi": 78,
          "name": "F#5",
          "ticks": 77920,
          "time": 216.27781933333333,
          "velocity": 0.7874015748031497
        },
        {
          "duration": 0.03826531249998766,
          "durationTicks": 15,
          "midi": 77,
          "name": "F5",
          "ticks": 77920,
          "time": 216.27781933333333,
          "velocity": 0.7874015748031497
        },
        {
          "duration": 0.03826531250001608,
          "durationTicks": 15,
          "midi": 89,
          "name": "F6",
          "ticks": 77936,
          "time": 216.31863566666664,
          "velocity": 0.7874015748031497
        },
        {
          "duration": 0.03826531250001608,
          "durationTicks": 15,
          "midi": 90,
          "name": "F#6",
          "ticks": 77936,
          "time": 216.31863566666664,
          "velocity": 0.7874015748031497
        },
        {
          "duration": 0.03826531250001608,
          "durationTicks": 15,
          "midi": 77,
          "name": "F5",
          "ticks": 77936,
          "time": 216.31863566666664,
          "velocity": 0.7874015748031497
        },
        {
          "duration": 0.03826531250001608,
          "durationTicks": 15,
          "midi": 78,
          "name": "F#5",
          "ticks": 77936,
          "time": 216.31863566666664,
          "velocity": 0.7874015748031497
        },
        {
          "duration": 0.03537734375001378,
          "durationTicks": 15,
          "midi": 102,
          "name": "F#7",
          "ticks": 77952,
          "time": 216.35945199999998,
          "velocity": 0.6614173228346457
        },
        {
          "duration": 0.03537734374998536,
          "durationTicks": 15,
          "midi": 102,
          "name": "F#7",
          "ticks": 78336,
          "time": 217.265112,
          "velocity": 0.6614173228346457
        }
      ],
      "endOfTrackTicks": 82491
    },
    {
      "channel": 8,
      "controlChanges": {
        "6": [
          {
            "number": 6,
            "ticks": 0,
            "time": 0,
            "value": 0.09448818897637795
          },
          {
            "number": 6,
            "ticks": 0,
            "time": 0,
            "value": 0.09448818897637795
          },
          {
            "number": 6,
            "ticks": 0,
            "time": 0,
            "value": 0.09448818897637795
          },
          {
            "number": 6,
            "ticks": 82466,
            "time": 228.45777604166662,
            "value": 0.09448818897637795
          },
          {
            "number": 6,
            "ticks": 82491,
            "time": 228.52722057291663,
            "value": 0.09448818897637795
          }
        ],
        "7": [
          {
            "number": 7,
            "ticks": 0,
            "time": 0,
            "value": 0.7874015748031497
          },
          {
            "number": 7,
            "ticks": 0,
            "time": 0,
            "value": 0.7874015748031497
          },
          {
            "number": 7,
            "ticks": 0,
            "time": 0,
            "value": 0.7874015748031497
          },
          {
            "number": 7,
            "ticks": 0,
            "time": 0,
            "value": 0.7874015748031497
          },
          {
            "number": 7,
            "ticks": 82466,
            "time": 228.45777604166662,
            "value": 0.7874015748031497
          },
          {
            "number": 7,
            "ticks": 82491,
            "time": 228.52722057291663,
            "value": 0.7874015748031497
          }
        ],
        "10": [
          {
            "number": 10,
            "ticks": 0,
            "time": 0,
            "value": 0.5039370078740157
          },
          {
            "number": 10,
            "ticks": 0,
            "time": 0,
            "value": 0.5039370078740157
          },
          {
            "number": 10,
            "ticks": 0,
            "time": 0,
            "value": 0.5039370078740157
          },
          {
            "number": 10,
            "ticks": 0,
            "time": 0,
            "value": 0.5039370078740157
          },
          {
            "number": 10,
            "ticks": 82466,
            "time": 228.45777604166662,
            "value": 0.5039370078740157
          },
          {
            "number": 10,
            "ticks": 82491,
            "time": 228.52722057291663,
            "value": 0.5039370078740157
          }
        ],
        "100": [
          {
            "number": 100,
            "ticks": 0,
            "time": 0,
            "value": 0
          },
          {
            "number": 100,
            "ticks": 0,
            "time": 0,
            "value": 0
          },
          {
            "number": 100,
            "ticks": 0,
            "time": 0,
            "value": 0
          },
          {
            "number": 100,
            "ticks": 82466,
            "time": 228.45777604166662,
            "value": 0
          },
          {
            "number": 100,
            "ticks": 82491,
            "time": 228.52722057291663,
            "value": 0
          }
        ],
        "101": [
          {
            "number": 101,
            "ticks": 0,
            "time": 0,
            "value": 0
          },
          {
            "number": 101,
            "ticks": 0,
            "time": 0,
            "value": 0
          },
          {
            "number": 101,
            "ticks": 0,
            "time": 0,
            "value": 0
          },
          {
            "number": 101,
            "ticks": 82466,
            "time": 228.45777604166662,
            "value": 0
          },
          {
            "number": 101,
            "ticks": 82491,
            "time": 228.52722057291663,
            "value": 0
          }
        ]
      },
      "pitchBends": [
        {
          "ticks": 0,
          "time": 0,
          "value": 0
        },
        {
          "ticks": 0,
          "time": 0,
          "value": 0
        },
        {
          "ticks": 0,
          "time": 0,
          "value": 0
        },
        {
          "ticks": 0,
          "time": 0,
          "value": 0
        },
        {
          "ticks": 82466,
          "time": 228.45777604166662,
          "value": 0
        },
        {
          "ticks": 82491,
          "time": 228.52722057291663,
          "value": 0
        }
      ],
      "instrument": {
        "family": "piano",
        "number": 0,
        "name": "acoustic grand piano"
      },
      "name": " Fill Effect + Ect",
      "notes": [
        {
          "duration": 0.011111124999999333,
          "durationTicks": 4,
          "midi": 46,
          "name": "A#2",
          "ticks": 3168,
          "time": 8.800011,
          "velocity": 0.7322834645669292
        },
        {
          "duration": 0.011111124999999333,
          "durationTicks": 4,
          "midi": 34,
          "name": "A#1",
          "ticks": 3168,
          "time": 8.800011,
          "velocity": 0.7322834645669292
        },
        {
          "duration": 0.011111124999999333,
          "durationTicks": 4,
          "midi": 22,
          "name": "A#0",
          "ticks": 3168,
          "time": 8.800011,
          "velocity": 0.7322834645669292
        },
        {
          "duration": 0.011111124999999333,
          "durationTicks": 4,
          "midi": 22,
          "name": "A#0",
          "ticks": 3192,
          "time": 8.86667775,
          "velocity": 0.7322834645669292
        },
        {
          "duration": 0.011111124999999333,
          "durationTicks": 4,
          "midi": 34,
          "name": "A#1",
          "ticks": 3192,
          "time": 8.86667775,
          "velocity": 0.7322834645669292
        },
        {
          "duration": 0.011111124999999333,
          "durationTicks": 4,
          "midi": 46,
          "name": "A#2",
          "ticks": 3192,
          "time": 8.86667775,
          "velocity": 0.7322834645669292
        },
        {
          "duration": 0.011111124999999333,
          "durationTicks": 4,
          "midi": 46,
          "name": "A#2",
          "ticks": 3216,
          "time": 8.9333445,
          "velocity": 0.7322834645669292
        },
        {
          "duration": 0.011111124999999333,
          "durationTicks": 4,
          "midi": 34,
          "name": "A#1",
          "ticks": 3216,
          "time": 8.9333445,
          "velocity": 0.7322834645669292
        },
        {
          "duration": 0.011111124999999333,
          "durationTicks": 4,
          "midi": 22,
          "name": "A#0",
          "ticks": 3216,
          "time": 8.9333445,
          "velocity": 0.7322834645669292
        },
        {
          "duration": 0.011111124999999333,
          "durationTicks": 4,
          "midi": 46,
          "name": "A#2",
          "ticks": 3240,
          "time": 9.00001125,
          "velocity": 0.7322834645669292
        },
        {
          "duration": 0.011111124999999333,
          "durationTicks": 4,
          "midi": 34,
          "name": "A#1",
          "ticks": 3240,
          "time": 9.00001125,
          "velocity": 0.7322834645669292
        },
        {
          "duration": 0.011111124999999333,
          "durationTicks": 4,
          "midi": 22,
          "name": "A#0",
          "ticks": 3240,
          "time": 9.00001125,
          "velocity": 0.7322834645669292
        },
        {
          "duration": 0.011111125000013544,
          "durationTicks": 4,
          "midi": 34,
          "name": "A#1",
          "ticks": 27072,
          "time": 75.20009399999999,
          "velocity": 0.7322834645669292
        },
        {
          "duration": 0.011111125000013544,
          "durationTicks": 4,
          "midi": 22,
          "name": "A#0",
          "ticks": 27072,
          "time": 75.20009399999999,
          "velocity": 0.7322834645669292
        },
        {
          "duration": 0.011111124999999333,
          "durationTicks": 4,
          "midi": 22,
          "name": "A#0",
          "ticks": 27096,
          "time": 75.26676075,
          "velocity": 0.7322834645669292
        },
        {
          "duration": 0.011111124999999333,
          "durationTicks": 4,
          "midi": 34,
          "name": "A#1",
          "ticks": 27096,
          "time": 75.26676075,
          "velocity": 0.7322834645669292
        },
        {
          "duration": 0.011111124999999333,
          "durationTicks": 4,
          "midi": 34,
          "name": "A#1",
          "ticks": 27120,
          "time": 75.3334275,
          "velocity": 0.7322834645669292
        },
        {
          "duration": 0.011111124999999333,
          "durationTicks": 4,
          "midi": 22,
          "name": "A#0",
          "ticks": 27120,
          "time": 75.3334275,
          "velocity": 0.7322834645669292
        },
        {
          "duration": 0.011111124999999333,
          "durationTicks": 4,
          "midi": 22,
          "name": "A#0",
          "ticks": 27144,
          "time": 75.40009425,
          "velocity": 0.7322834645669292
        },
        {
          "duration": 0.011111124999999333,
          "durationTicks": 4,
          "midi": 34,
          "name": "A#1",
          "ticks": 27144,
          "time": 75.40009425,
          "velocity": 0.7322834645669292
        },
        {
          "duration": 0.2666670000000124,
          "durationTicks": 96,
          "midi": 63,
          "name": "D#4",
          "ticks": 30240,
          "time": 84.00010499999999,
          "velocity": 0.7952755905511811
        },
        {
          "duration": 0.2666670000000124,
          "durationTicks": 96,
          "midi": 58,
          "name": "A#3",
          "ticks": 30240,
          "time": 84.00010499999999,
          "velocity": 0.7952755905511811
        },
        {
          "duration": 0.2666670000000124,
          "durationTicks": 96,
          "midi": 51,
          "name": "D#3",
          "ticks": 30240,
          "time": 84.00010499999999,
          "velocity": 0.7952755905511811
        },
        {
          "duration": 0.12222237499999267,
          "durationTicks": 44,
          "midi": 64,
          "name": "E4",
          "ticks": 30336,
          "time": 84.266772,
          "velocity": 0.7952755905511811
        },
        {
          "duration": 0.12222237499999267,
          "durationTicks": 44,
          "midi": 52,
          "name": "E3",
          "ticks": 30336,
          "time": 84.266772,
          "velocity": 0.7952755905511811
        },
        {
          "duration": 0.12222237499999267,
          "durationTicks": 44,
          "midi": 59,
          "name": "B3",
          "ticks": 30336,
          "time": 84.266772,
          "velocity": 0.7952755905511811
        },
        {
          "duration": 0.05555562499999667,
          "durationTicks": 20,
          "midi": 60,
          "name": "C4",
          "ticks": 30528,
          "time": 84.800106,
          "velocity": 0.7952755905511811
        },
        {
          "duration": 0.05555562499999667,
          "durationTicks": 20,
          "midi": 53,
          "name": "F3",
          "ticks": 30528,
          "time": 84.800106,
          "velocity": 0.7952755905511811
        },
        {
          "duration": 0.05555562499999667,
          "durationTicks": 20,
          "midi": 65,
          "name": "F4",
          "ticks": 30528,
          "time": 84.800106,
          "velocity": 0.7952755905511811
        },
        {
          "duration": 0.05555562499999667,
          "durationTicks": 20,
          "midi": 60,
          "name": "C4",
          "ticks": 30576,
          "time": 84.93343949999999,
          "velocity": 0.7952755905511811
        },
        {
          "duration": 0.05555562499999667,
          "durationTicks": 20,
          "midi": 53,
          "name": "F3",
          "ticks": 30576,
          "time": 84.93343949999999,
          "velocity": 0.7952755905511811
        },
        {
          "duration": 0.05555562499999667,
          "durationTicks": 20,
          "midi": 65,
          "name": "F4",
          "ticks": 30576,
          "time": 84.93343949999999,
          "velocity": 0.7952755905511811
        },
        {
          "duration": 0.12222237499999267,
          "durationTicks": 44,
          "midi": 67,
          "name": "G4",
          "ticks": 30720,
          "time": 85.33344,
          "velocity": 0.7952755905511811
        },
        {
          "duration": 0.12222237499999267,
          "durationTicks": 44,
          "midi": 55,
          "name": "G3",
          "ticks": 30720,
          "time": 85.33344,
          "velocity": 0.7952755905511811
        },
        {
          "duration": 0.12222237499999267,
          "durationTicks": 44,
          "midi": 62,
          "name": "D4",
          "ticks": 30720,
          "time": 85.33344,
          "velocity": 0.7952755905511811
        },
        {
          "duration": 0.011111125000013544,
          "durationTicks": 4,
          "midi": 22,
          "name": "A#0",
          "ticks": 30912,
          "time": 85.86677399999999,
          "velocity": 0.7322834645669292
        },
        {
          "duration": 0.011111125000013544,
          "durationTicks": 4,
          "midi": 34,
          "name": "A#1",
          "ticks": 30912,
          "time": 85.86677399999999,
          "velocity": 0.7952755905511811
        },
        {
          "duration": 0.011111125000013544,
          "durationTicks": 4,
          "midi": 46,
          "name": "A#2",
          "ticks": 30912,
          "time": 85.86677399999999,
          "velocity": 0.7952755905511811
        },
        {
          "duration": 0.011111125000013544,
          "durationTicks": 4,
          "midi": 58,
          "name": "A#3",
          "ticks": 30912,
          "time": 85.86677399999999,
          "velocity": 0.7952755905511811
        },
        {
          "duration": 0.011111124999999333,
          "durationTicks": 4,
          "midi": 22,
          "name": "A#0",
          "ticks": 30936,
          "time": 85.93344075,
          "velocity": 0.7322834645669292
        },
        {
          "duration": 0.011111124999999333,
          "durationTicks": 4,
          "midi": 34,
          "name": "A#1",
          "ticks": 30936,
          "time": 85.93344075,
          "velocity": 0.7952755905511811
        },
        {
          "duration": 0.011111124999999333,
          "durationTicks": 4,
          "midi": 46,
          "name": "A#2",
          "ticks": 30936,
          "time": 85.93344075,
          "velocity": 0.7952755905511811
        },
        {
          "duration": 0.011111124999999333,
          "durationTicks": 4,
          "midi": 58,
          "name": "A#3",
          "ticks": 30936,
          "time": 85.93344075,
          "velocity": 0.7952755905511811
        },
        {
          "duration": 0.011111124999999333,
          "durationTicks": 4,
          "midi": 22,
          "name": "A#0",
          "ticks": 30960,
          "time": 86.0001075,
          "velocity": 0.7322834645669292
        },
        {
          "duration": 0.011111124999999333,
          "durationTicks": 4,
          "midi": 34,
          "name": "A#1",
          "ticks": 30960,
          "time": 86.0001075,
          "velocity": 0.7952755905511811
        },
        {
          "duration": 0.011111124999999333,
          "durationTicks": 4,
          "midi": 46,
          "name": "A#2",
          "ticks": 30960,
          "time": 86.0001075,
          "velocity": 0.7952755905511811
        },
        {
          "duration": 0.011111124999999333,
          "durationTicks": 4,
          "midi": 58,
          "name": "A#3",
          "ticks": 30960,
          "time": 86.0001075,
          "velocity": 0.7952755905511811
        },
        {
          "duration": 0.011111124999999333,
          "durationTicks": 4,
          "midi": 22,
          "name": "A#0",
          "ticks": 30984,
          "time": 86.06677425,
          "velocity": 0.7322834645669292
        },
        {
          "duration": 0.011111124999999333,
          "durationTicks": 4,
          "midi": 34,
          "name": "A#1",
          "ticks": 30984,
          "time": 86.06677425,
          "velocity": 0.7952755905511811
        },
        {
          "duration": 0.011111124999999333,
          "durationTicks": 4,
          "midi": 46,
          "name": "A#2",
          "ticks": 30984,
          "time": 86.06677425,
          "velocity": 0.7952755905511811
        },
        {
          "duration": 0.011111124999999333,
          "durationTicks": 4,
          "midi": 58,
          "name": "A#3",
          "ticks": 30984,
          "time": 86.06677425,
          "velocity": 0.7952755905511811
        },
        {
          "duration": 0.2666670000000124,
          "durationTicks": 96,
          "midi": 63,
          "name": "D#4",
          "ticks": 31776,
          "time": 88.26677699999999,
          "velocity": 0.7952755905511811
        },
        {
          "duration": 0.2666670000000124,
          "durationTicks": 96,
          "midi": 58,
          "name": "A#3",
          "ticks": 31776,
          "time": 88.26677699999999,
          "velocity": 0.7952755905511811
        },
        {
          "duration": 0.2666670000000124,
          "durationTicks": 96,
          "midi": 51,
          "name": "D#3",
          "ticks": 31776,
          "time": 88.26677699999999,
          "velocity": 0.7952755905511811
        },
        {
          "duration": 0.12222237499999267,
          "durationTicks": 44,
          "midi": 64,
          "name": "E4",
          "ticks": 31872,
          "time": 88.533444,
          "velocity": 0.7952755905511811
        },
        {
          "duration": 0.12222237499999267,
          "durationTicks": 44,
          "midi": 52,
          "name": "E3",
          "ticks": 31872,
          "time": 88.533444,
          "velocity": 0.7952755905511811
        },
        {
          "duration": 0.12222237499999267,
          "durationTicks": 44,
          "midi": 59,
          "name": "B3",
          "ticks": 31872,
          "time": 88.533444,
          "velocity": 0.7952755905511811
        },
        {
          "duration": 0.133333499999992,
          "durationTicks": 48,
          "midi": 54,
          "name": "F#3",
          "ticks": 32160,
          "time": 89.333445,
          "velocity": 0.7952755905511811
        },
        {
          "duration": 0.133333499999992,
          "durationTicks": 48,
          "midi": 61,
          "name": "C#4",
          "ticks": 32160,
          "time": 89.333445,
          "velocity": 0.7952755905511811
        },
        {
          "duration": 0.133333499999992,
          "durationTicks": 48,
          "midi": 66,
          "name": "F#4",
          "ticks": 32160,
          "time": 89.333445,
          "velocity": 0.7952755905511811
        },
        {
          "duration": 0.1333335000000062,
          "durationTicks": 48,
          "midi": 66,
          "name": "F#4",
          "ticks": 32208,
          "time": 89.46677849999999,
          "velocity": 0.7952755905511811
        },
        {
          "duration": 0.1333335000000062,
          "durationTicks": 48,
          "midi": 61,
          "name": "C#4",
          "ticks": 32208,
          "time": 89.46677849999999,
          "velocity": 0.7952755905511811
        },
        {
          "duration": 0.1333335000000062,
          "durationTicks": 48,
          "midi": 54,
          "name": "F#3",
          "ticks": 32208,
          "time": 89.46677849999999,
          "velocity": 0.7952755905511811
        },
        {
          "duration": 0.1333335000000062,
          "durationTicks": 48,
          "midi": 55,
          "name": "G3",
          "ticks": 32256,
          "time": 89.600112,
          "velocity": 0.7952755905511811
        },
        {
          "duration": 0.1333335000000062,
          "durationTicks": 48,
          "midi": 62,
          "name": "D4",
          "ticks": 32256,
          "time": 89.600112,
          "velocity": 0.7952755905511811
        },
        {
          "duration": 0.1333335000000062,
          "durationTicks": 48,
          "midi": 67,
          "name": "G4",
          "ticks": 32256,
          "time": 89.600112,
          "velocity": 0.7952755905511811
        },
        {
          "duration": 0.011111125000013544,
          "durationTicks": 4,
          "midi": 58,
          "name": "A#3",
          "ticks": 32448,
          "time": 90.13344599999999,
          "velocity": 0.7952755905511811
        },
        {
          "duration": 0.011111125000013544,
          "durationTicks": 4,
          "midi": 46,
          "name": "A#2",
          "ticks": 32448,
          "time": 90.13344599999999,
          "velocity": 0.7952755905511811
        },
        {
          "duration": 0.011111125000013544,
          "durationTicks": 4,
          "midi": 34,
          "name": "A#1",
          "ticks": 32448,
          "time": 90.13344599999999,
          "velocity": 0.7952755905511811
        },
        {
          "duration": 0.011111125000013544,
          "durationTicks": 4,
          "midi": 22,
          "name": "A#0",
          "ticks": 32448,
          "time": 90.13344599999999,
          "velocity": 0.7322834645669292
        },
        {
          "duration": 0.011111124999999333,
          "durationTicks": 4,
          "midi": 58,
          "name": "A#3",
          "ticks": 32472,
          "time": 90.20011275,
          "velocity": 0.7952755905511811
        },
        {
          "duration": 0.011111124999999333,
          "durationTicks": 4,
          "midi": 46,
          "name": "A#2",
          "ticks": 32472,
          "time": 90.20011275,
          "velocity": 0.7952755905511811
        },
        {
          "duration": 0.011111124999999333,
          "durationTicks": 4,
          "midi": 34,
          "name": "A#1",
          "ticks": 32472,
          "time": 90.20011275,
          "velocity": 0.7952755905511811
        },
        {
          "duration": 0.011111124999999333,
          "durationTicks": 4,
          "midi": 22,
          "name": "A#0",
          "ticks": 32472,
          "time": 90.20011275,
          "velocity": 0.7322834645669292
        },
        {
          "duration": 0.011111124999999333,
          "durationTicks": 4,
          "midi": 58,
          "name": "A#3",
          "ticks": 32496,
          "time": 90.2667795,
          "velocity": 0.7952755905511811
        },
        {
          "duration": 0.011111124999999333,
          "durationTicks": 4,
          "midi": 46,
          "name": "A#2",
          "ticks": 32496,
          "time": 90.2667795,
          "velocity": 0.7952755905511811
        },
        {
          "duration": 0.011111124999999333,
          "durationTicks": 4,
          "midi": 34,
          "name": "A#1",
          "ticks": 32496,
          "time": 90.2667795,
          "velocity": 0.7952755905511811
        },
        {
          "duration": 0.011111124999999333,
          "durationTicks": 4,
          "midi": 22,
          "name": "A#0",
          "ticks": 32496,
          "time": 90.2667795,
          "velocity": 0.7322834645669292
        },
        {
          "duration": 0.011111124999999333,
          "durationTicks": 4,
          "midi": 22,
          "name": "A#0",
          "ticks": 32520,
          "time": 90.33344625,
          "velocity": 0.7322834645669292
        },
        {
          "duration": 0.011111124999999333,
          "durationTicks": 4,
          "midi": 34,
          "name": "A#1",
          "ticks": 32520,
          "time": 90.33344625,
          "velocity": 0.7952755905511811
        },
        {
          "duration": 0.011111124999999333,
          "durationTicks": 4,
          "midi": 46,
          "name": "A#2",
          "ticks": 32520,
          "time": 90.33344625,
          "velocity": 0.7952755905511811
        },
        {
          "duration": 0.011111124999999333,
          "durationTicks": 4,
          "midi": 58,
          "name": "A#3",
          "ticks": 32520,
          "time": 90.33344625,
          "velocity": 0.7952755905511811
        },
        {
          "duration": 0.011111124999985122,
          "durationTicks": 4,
          "midi": 22,
          "name": "A#0",
          "ticks": 60192,
          "time": 167.200209,
          "velocity": 0.7322834645669292
        },
        {
          "duration": 0.011111124999985122,
          "durationTicks": 4,
          "midi": 34,
          "name": "A#1",
          "ticks": 60192,
          "time": 167.200209,
          "velocity": 0.7322834645669292
        },
        {
          "duration": 0.011111124999985122,
          "durationTicks": 4,
          "midi": 46,
          "name": "A#2",
          "ticks": 60192,
          "time": 167.200209,
          "velocity": 0.7322834645669292
        },
        {
          "duration": 0.011111124999985122,
          "durationTicks": 4,
          "midi": 58,
          "name": "A#3",
          "ticks": 60192,
          "time": 167.200209,
          "velocity": 0.7322834645669292
        },
        {
          "duration": 0.011111124999985122,
          "durationTicks": 4,
          "midi": 22,
          "name": "A#0",
          "ticks": 60216,
          "time": 167.26687575,
          "velocity": 0.7322834645669292
        },
        {
          "duration": 0.011111124999985122,
          "durationTicks": 4,
          "midi": 34,
          "name": "A#1",
          "ticks": 60216,
          "time": 167.26687575,
          "velocity": 0.7322834645669292
        },
        {
          "duration": 0.011111124999985122,
          "durationTicks": 4,
          "midi": 46,
          "name": "A#2",
          "ticks": 60216,
          "time": 167.26687575,
          "velocity": 0.7322834645669292
        },
        {
          "duration": 0.011111124999985122,
          "durationTicks": 4,
          "midi": 58,
          "name": "A#3",
          "ticks": 60216,
          "time": 167.26687575,
          "velocity": 0.7322834645669292
        },
        {
          "duration": 0.011111124999985122,
          "durationTicks": 4,
          "midi": 58,
          "name": "A#3",
          "ticks": 60240,
          "time": 167.3335425,
          "velocity": 0.7322834645669292
        },
        {
          "duration": 0.011111124999985122,
          "durationTicks": 4,
          "midi": 46,
          "name": "A#2",
          "ticks": 60240,
          "time": 167.3335425,
          "velocity": 0.7322834645669292
        },
        {
          "duration": 0.011111124999985122,
          "durationTicks": 4,
          "midi": 34,
          "name": "A#1",
          "ticks": 60240,
          "time": 167.3335425,
          "velocity": 0.7322834645669292
        },
        {
          "duration": 0.011111124999985122,
          "durationTicks": 4,
          "midi": 22,
          "name": "A#0",
          "ticks": 60240,
          "time": 167.3335425,
          "velocity": 0.7322834645669292
        },
        {
          "duration": 0.011111124999985122,
          "durationTicks": 4,
          "midi": 22,
          "name": "A#0",
          "ticks": 60264,
          "time": 167.40020925,
          "velocity": 0.7322834645669292
        },
        {
          "duration": 0.011111124999985122,
          "durationTicks": 4,
          "midi": 34,
          "name": "A#1",
          "ticks": 60264,
          "time": 167.40020925,
          "velocity": 0.7322834645669292
        },
        {
          "duration": 0.011111124999985122,
          "durationTicks": 4,
          "midi": 46,
          "name": "A#2",
          "ticks": 60264,
          "time": 167.40020925,
          "velocity": 0.7322834645669292
        },
        {
          "duration": 0.011111124999985122,
          "durationTicks": 4,
          "midi": 58,
          "name": "A#3",
          "ticks": 60264,
          "time": 167.40020925,
          "velocity": 0.7322834645669292
        },
        {
          "duration": 0.011111125000013544,
          "durationTicks": 4,
          "midi": 38,
          "name": "D2",
          "ticks": 65952,
          "time": 183.20022899999998,
          "velocity": 0.7874015748031497
        },
        {
          "duration": 0.011111125000013544,
          "durationTicks": 4,
          "midi": 26,
          "name": "D1",
          "ticks": 65952,
          "time": 183.20022899999998,
          "velocity": 0.7322834645669292
        },
        {
          "duration": 0.011111124999985122,
          "durationTicks": 4,
          "midi": 38,
          "name": "D2",
          "ticks": 65960,
          "time": 183.22245125,
          "velocity": 0.7874015748031497
        },
        {
          "duration": 0.011111125000013544,
          "durationTicks": 4,
          "midi": 38,
          "name": "D2",
          "ticks": 65968,
          "time": 183.24467349999998,
          "velocity": 0.7874015748031497
        },
        {
          "duration": 0.011111124999985122,
          "durationTicks": 4,
          "midi": 26,
          "name": "D1",
          "ticks": 65976,
          "time": 183.26689575,
          "velocity": 0.7322834645669292
        },
        {
          "duration": 0.011111124999985122,
          "durationTicks": 4,
          "midi": 38,
          "name": "D2",
          "ticks": 65976,
          "time": 183.26689575,
          "velocity": 0.7874015748031497
        },
        {
          "duration": 0.011111124999985122,
          "durationTicks": 4,
          "midi": 38,
          "name": "D2",
          "ticks": 65984,
          "time": 183.289118,
          "velocity": 0.7874015748031497
        },
        {
          "duration": 0.011111125000041966,
          "durationTicks": 4,
          "midi": 38,
          "name": "D2",
          "ticks": 65992,
          "time": 183.31134024999997,
          "velocity": 0.7874015748031497
        },
        {
          "duration": 0.011111124999985122,
          "durationTicks": 4,
          "midi": 26,
          "name": "D1",
          "ticks": 66000,
          "time": 183.3335625,
          "velocity": 0.7322834645669292
        },
        {
          "duration": 0.011111124999985122,
          "durationTicks": 4,
          "midi": 38,
          "name": "D2",
          "ticks": 66000,
          "time": 183.3335625,
          "velocity": 0.7874015748031497
        },
        {
          "duration": 0.011111124999985122,
          "durationTicks": 4,
          "midi": 38,
          "name": "D2",
          "ticks": 66008,
          "time": 183.35578475,
          "velocity": 0.7874015748031497
        },
        {
          "duration": 0.011111125000041966,
          "durationTicks": 4,
          "midi": 38,
          "name": "D2",
          "ticks": 66016,
          "time": 183.37800699999997,
          "velocity": 0.7874015748031497
        },
        {
          "duration": 0.011111124999985122,
          "durationTicks": 4,
          "midi": 26,
          "name": "D1",
          "ticks": 66024,
          "time": 183.40022925,
          "velocity": 0.7322834645669292
        },
        {
          "duration": 0.011111124999985122,
          "durationTicks": 4,
          "midi": 38,
          "name": "D2",
          "ticks": 66024,
          "time": 183.40022925,
          "velocity": 0.7874015748031497
        },
        {
          "duration": 0.011111124999985122,
          "durationTicks": 4,
          "midi": 38,
          "name": "D2",
          "ticks": 66032,
          "time": 183.4224515,
          "velocity": 0.7874015748031497
        },
        {
          "duration": 0.011111125000013544,
          "durationTicks": 4,
          "midi": 38,
          "name": "D2",
          "ticks": 66040,
          "time": 183.44467375,
          "velocity": 0.7874015748031497
        },
        {
          "duration": 0.011111124999985122,
          "durationTicks": 4,
          "midi": 22,
          "name": "A#0",
          "ticks": 76320,
          "time": 212.00026499999998,
          "velocity": 0.7322834645669292
        },
        {
          "duration": 0.011111124999985122,
          "durationTicks": 4,
          "midi": 34,
          "name": "A#1",
          "ticks": 76320,
          "time": 212.00026499999998,
          "velocity": 0.7322834645669292
        },
        {
          "duration": 0.011111124999985122,
          "durationTicks": 4,
          "midi": 46,
          "name": "A#2",
          "ticks": 76320,
          "time": 212.00026499999998,
          "velocity": 0.7322834645669292
        },
        {
          "duration": 0.011111124999985122,
          "durationTicks": 4,
          "midi": 58,
          "name": "A#3",
          "ticks": 76320,
          "time": 212.00026499999998,
          "velocity": 0.7322834645669292
        },
        {
          "duration": 0.011111124999985122,
          "durationTicks": 4,
          "midi": 58,
          "name": "A#3",
          "ticks": 76344,
          "time": 212.06693174999998,
          "velocity": 0.7322834645669292
        },
        {
          "duration": 0.011111124999985122,
          "durationTicks": 4,
          "midi": 46,
          "name": "A#2",
          "ticks": 76344,
          "time": 212.06693174999998,
          "velocity": 0.7322834645669292
        },
        {
          "duration": 0.011111124999985122,
          "durationTicks": 4,
          "midi": 34,
          "name": "A#1",
          "ticks": 76344,
          "time": 212.06693174999998,
          "velocity": 0.7322834645669292
        },
        {
          "duration": 0.011111124999985122,
          "durationTicks": 4,
          "midi": 22,
          "name": "A#0",
          "ticks": 76344,
          "time": 212.06693174999998,
          "velocity": 0.7322834645669292
        },
        {
          "duration": 0.011111125000013544,
          "durationTicks": 4,
          "midi": 58,
          "name": "A#3",
          "ticks": 76368,
          "time": 212.13359849999998,
          "velocity": 0.7322834645669292
        },
        {
          "duration": 0.011111125000013544,
          "durationTicks": 4,
          "midi": 46,
          "name": "A#2",
          "ticks": 76368,
          "time": 212.13359849999998,
          "velocity": 0.7322834645669292
        },
        {
          "duration": 0.011111125000013544,
          "durationTicks": 4,
          "midi": 34,
          "name": "A#1",
          "ticks": 76368,
          "time": 212.13359849999998,
          "velocity": 0.7322834645669292
        },
        {
          "duration": 0.011111125000013544,
          "durationTicks": 4,
          "midi": 22,
          "name": "A#0",
          "ticks": 76368,
          "time": 212.13359849999998,
          "velocity": 0.7322834645669292
        },
        {
          "duration": 0.011111124999985122,
          "durationTicks": 4,
          "midi": 22,
          "name": "A#0",
          "ticks": 76392,
          "time": 212.20026525,
          "velocity": 0.7322834645669292
        },
        {
          "duration": 0.011111124999985122,
          "durationTicks": 4,
          "midi": 34,
          "name": "A#1",
          "ticks": 76392,
          "time": 212.20026525,
          "velocity": 0.7322834645669292
        },
        {
          "duration": 0.011111124999985122,
          "durationTicks": 4,
          "midi": 46,
          "name": "A#2",
          "ticks": 76392,
          "time": 212.20026525,
          "velocity": 0.7322834645669292
        },
        {
          "duration": 0.011111124999985122,
          "durationTicks": 4,
          "midi": 58,
          "name": "A#3",
          "ticks": 76392,
          "time": 212.20026525,
          "velocity": 0.7322834645669292
        }
      ],
      "endOfTrackTicks": 82491
    },
    {
      "channel": 10,
      "controlChanges": {
        "6": [
          {
            "number": 6,
            "ticks": 0,
            "time": 0,
            "value": 0.09448818897637795
          },
          {
            "number": 6,
            "ticks": 0,
            "time": 0,
            "value": 0.09448818897637795
          },
          {
            "number": 6,
            "ticks": 0,
            "time": 0,
            "value": 0.09448818897637795
          },
          {
            "number": 6,
            "ticks": 82466,
            "time": 228.45777604166662,
            "value": 0.09448818897637795
          },
          {
            "number": 6,
            "ticks": 82491,
            "time": 228.52722057291663,
            "value": 0.09448818897637795
          }
        ],
        "7": [
          {
            "number": 7,
            "ticks": 0,
            "time": 0,
            "value": 0.7874015748031497
          },
          {
            "number": 7,
            "ticks": 0,
            "time": 0,
            "value": 0.7874015748031497
          },
          {
            "number": 7,
            "ticks": 0,
            "time": 0,
            "value": 0.7874015748031497
          },
          {
            "number": 7,
            "ticks": 0,
            "time": 0,
            "value": 0.7874015748031497
          },
          {
            "number": 7,
            "ticks": 82466,
            "time": 228.45777604166662,
            "value": 0.7874015748031497
          },
          {
            "number": 7,
            "ticks": 82491,
            "time": 228.52722057291663,
            "value": 0.7874015748031497
          }
        ],
        "10": [
          {
            "number": 10,
            "ticks": 0,
            "time": 0,
            "value": 0.5039370078740157
          },
          {
            "number": 10,
            "ticks": 0,
            "time": 0,
            "value": 0.5039370078740157
          },
          {
            "number": 10,
            "ticks": 0,
            "time": 0,
            "value": 0.5039370078740157
          },
          {
            "number": 10,
            "ticks": 0,
            "time": 0,
            "value": 0.5039370078740157
          },
          {
            "number": 10,
            "ticks": 82466,
            "time": 228.45777604166662,
            "value": 0.5039370078740157
          },
          {
            "number": 10,
            "ticks": 82491,
            "time": 228.52722057291663,
            "value": 0.5039370078740157
          }
        ],
        "100": [
          {
            "number": 100,
            "ticks": 0,
            "time": 0,
            "value": 0
          },
          {
            "number": 100,
            "ticks": 0,
            "time": 0,
            "value": 0
          },
          {
            "number": 100,
            "ticks": 0,
            "time": 0,
            "value": 0
          },
          {
            "number": 100,
            "ticks": 82466,
            "time": 228.45777604166662,
            "value": 0
          },
          {
            "number": 100,
            "ticks": 82491,
            "time": 228.52722057291663,
            "value": 0
          }
        ],
        "101": [
          {
            "number": 101,
            "ticks": 0,
            "time": 0,
            "value": 0
          },
          {
            "number": 101,
            "ticks": 0,
            "time": 0,
            "value": 0
          },
          {
            "number": 101,
            "ticks": 0,
            "time": 0,
            "value": 0
          },
          {
            "number": 101,
            "ticks": 82466,
            "time": 228.45777604166662,
            "value": 0
          },
          {
            "number": 101,
            "ticks": 82491,
            "time": 228.52722057291663,
            "value": 0
          }
        ]
      },
      "pitchBends": [
        {
          "ticks": 0,
          "time": 0,
          "value": 0
        },
        {
          "ticks": 0,
          "time": 0,
          "value": 0
        },
        {
          "ticks": 0,
          "time": 0,
          "value": 0
        },
        {
          "ticks": 0,
          "time": 0,
          "value": 0
        },
        {
          "ticks": 82466,
          "time": 228.45777604166662,
          "value": 0
        },
        {
          "ticks": 82491,
          "time": 228.52722057291663,
          "value": 0
        }
      ],
      "instrument": {
        "family": "piano",
        "number": 0,
        "name": "acoustic grand piano"
      },
      "name": "I have no Idea #3",
      "notes": [
        {
          "duration": 0.12222237499999267,
          "durationTicks": 44,
          "midi": 51,
          "name": "D#3",
          "ticks": 30288,
          "time": 84.1334385,
          "velocity": 0.7874015748031497
        },
        {
          "duration": 0.12222237499999267,
          "durationTicks": 44,
          "midi": 46,
          "name": "A#2",
          "ticks": 30288,
          "time": 84.1334385,
          "velocity": 0.7874015748031497
        },
        {
          "duration": 0.12222237499999267,
          "durationTicks": 44,
          "midi": 39,
          "name": "D#2",
          "ticks": 30288,
          "time": 84.1334385,
          "velocity": 0.7874015748031497
        },
        {
          "duration": 0.25555587499998467,
          "durationTicks": 92,
          "midi": 40,
          "name": "E2",
          "ticks": 30432,
          "time": 84.533439,
          "velocity": 0.7874015748031497
        },
        {
          "duration": 0.25555587499998467,
          "durationTicks": 92,
          "midi": 47,
          "name": "B2",
          "ticks": 30432,
          "time": 84.533439,
          "velocity": 0.7874015748031497
        },
        {
          "duration": 0.25555587499998467,
          "durationTicks": 92,
          "midi": 52,
          "name": "E3",
          "ticks": 30432,
          "time": 84.533439,
          "velocity": 0.7874015748031497
        },
        {
          "duration": 0.05555562499999667,
          "durationTicks": 20,
          "midi": 42,
          "name": "F#2",
          "ticks": 30624,
          "time": 85.066773,
          "velocity": 0.7874015748031497
        },
        {
          "duration": 0.05555562499999667,
          "durationTicks": 20,
          "midi": 49,
          "name": "C#3",
          "ticks": 30624,
          "time": 85.066773,
          "velocity": 0.7874015748031497
        },
        {
          "duration": 0.05555562499999667,
          "durationTicks": 20,
          "midi": 54,
          "name": "F#3",
          "ticks": 30624,
          "time": 85.066773,
          "velocity": 0.7874015748031497
        },
        {
          "duration": 0.05555562499999667,
          "durationTicks": 20,
          "midi": 54,
          "name": "F#3",
          "ticks": 30672,
          "time": 85.20010649999999,
          "velocity": 0.7874015748031497
        },
        {
          "duration": 0.05555562499999667,
          "durationTicks": 20,
          "midi": 61,
          "name": "C#4",
          "ticks": 30672,
          "time": 85.20010649999999,
          "velocity": 0.7874015748031497
        },
        {
          "duration": 0.05555562499999667,
          "durationTicks": 20,
          "midi": 66,
          "name": "F#4",
          "ticks": 30672,
          "time": 85.20010649999999,
          "velocity": 0.7874015748031497
        },
        {
          "duration": 0.055555624999982456,
          "durationTicks": 20,
          "midi": 55,
          "name": "G3",
          "ticks": 30768,
          "time": 85.4667735,
          "velocity": 0.7874015748031497
        },
        {
          "duration": 0.055555624999982456,
          "durationTicks": 20,
          "midi": 50,
          "name": "D3",
          "ticks": 30768,
          "time": 85.4667735,
          "velocity": 0.7874015748031497
        },
        {
          "duration": 0.055555624999982456,
          "durationTicks": 20,
          "midi": 43,
          "name": "G2",
          "ticks": 30768,
          "time": 85.4667735,
          "velocity": 0.7874015748031497
        },
        {
          "duration": 0.12222237499999267,
          "durationTicks": 44,
          "midi": 39,
          "name": "D#2",
          "ticks": 31824,
          "time": 88.4001105,
          "velocity": 0.6377952755905512
        },
        {
          "duration": 0.12222237499999267,
          "durationTicks": 44,
          "midi": 46,
          "name": "A#2",
          "ticks": 31824,
          "time": 88.4001105,
          "velocity": 0.6377952755905512
        },
        {
          "duration": 0.12222237499999267,
          "durationTicks": 44,
          "midi": 51,
          "name": "D#3",
          "ticks": 31824,
          "time": 88.4001105,
          "velocity": 0.6377952755905512
        },
        {
          "duration": 0.08888899999999467,
          "durationTicks": 32,
          "midi": 78,
          "name": "F#5",
          "ticks": 32160,
          "time": 89.333445,
          "velocity": 0.5748031496062992
        },
        {
          "duration": 0.05555562499999667,
          "durationTicks": 20,
          "midi": 42,
          "name": "F#2",
          "ticks": 32160,
          "time": 89.333445,
          "velocity": 0.7874015748031497
        },
        {
          "duration": 0.05555562499999667,
          "durationTicks": 20,
          "midi": 49,
          "name": "C#3",
          "ticks": 32160,
          "time": 89.333445,
          "velocity": 0.7874015748031497
        },
        {
          "duration": 0.05555562499999667,
          "durationTicks": 20,
          "midi": 54,
          "name": "F#3",
          "ticks": 32160,
          "time": 89.333445,
          "velocity": 0.7874015748031497
        },
        {
          "duration": 0.05555562499999667,
          "durationTicks": 20,
          "midi": 66,
          "name": "F#4",
          "ticks": 32208,
          "time": 89.46677849999999,
          "velocity": 0.7874015748031497
        },
        {
          "duration": 0.05555562499999667,
          "durationTicks": 20,
          "midi": 61,
          "name": "C#4",
          "ticks": 32208,
          "time": 89.46677849999999,
          "velocity": 0.7874015748031497
        },
        {
          "duration": 0.05555562499999667,
          "durationTicks": 20,
          "midi": 54,
          "name": "F#3",
          "ticks": 32208,
          "time": 89.46677849999999,
          "velocity": 0.7874015748031497
        },
        {
          "duration": 0.055555624999982456,
          "durationTicks": 20,
          "midi": 55,
          "name": "G3",
          "ticks": 32304,
          "time": 89.7334455,
          "velocity": 0.7874015748031497
        },
        {
          "duration": 0.055555624999982456,
          "durationTicks": 20,
          "midi": 50,
          "name": "D3",
          "ticks": 32304,
          "time": 89.7334455,
          "velocity": 0.7874015748031497
        },
        {
          "duration": 0.055555624999982456,
          "durationTicks": 20,
          "midi": 43,
          "name": "G2",
          "ticks": 32304,
          "time": 89.7334455,
          "velocity": 0.7874015748031497
        }
      ],
      "endOfTrackTicks": 82491
    },
    {
      "channel": 11,
      "controlChanges": {
        "6": [
          {
            "number": 6,
            "ticks": 0,
            "time": 0,
            "value": 0.09448818897637795
          },
          {
            "number": 6,
            "ticks": 0,
            "time": 0,
            "value": 0.09448818897637795
          },
          {
            "number": 6,
            "ticks": 0,
            "time": 0,
            "value": 0.09448818897637795
          },
          {
            "number": 6,
            "ticks": 82466,
            "time": 228.45777604166662,
            "value": 0.09448818897637795
          },
          {
            "number": 6,
            "ticks": 82491,
            "time": 228.52722057291663,
            "value": 0.09448818897637795
          }
        ],
        "7": [
          {
            "number": 7,
            "ticks": 0,
            "time": 0,
            "value": 0.7874015748031497
          },
          {
            "number": 7,
            "ticks": 0,
            "time": 0,
            "value": 0.7874015748031497
          },
          {
            "number": 7,
            "ticks": 0,
            "time": 0,
            "value": 0.7874015748031497
          },
          {
            "number": 7,
            "ticks": 0,
            "time": 0,
            "value": 0.7874015748031497
          },
          {
            "number": 7,
            "ticks": 82466,
            "time": 228.45777604166662,
            "value": 0.7874015748031497
          },
          {
            "number": 7,
            "ticks": 82491,
            "time": 228.52722057291663,
            "value": 0.7874015748031497
          }
        ],
        "10": [
          {
            "number": 10,
            "ticks": 0,
            "time": 0,
            "value": 0.5039370078740157
          },
          {
            "number": 10,
            "ticks": 0,
            "time": 0,
            "value": 0.5039370078740157
          },
          {
            "number": 10,
            "ticks": 0,
            "time": 0,
            "value": 0.5039370078740157
          },
          {
            "number": 10,
            "ticks": 0,
            "time": 0,
            "value": 0.5039370078740157
          },
          {
            "number": 10,
            "ticks": 82466,
            "time": 228.45777604166662,
            "value": 0.5039370078740157
          },
          {
            "number": 10,
            "ticks": 82491,
            "time": 228.52722057291663,
            "value": 0.5039370078740157
          }
        ],
        "100": [
          {
            "number": 100,
            "ticks": 0,
            "time": 0,
            "value": 0
          },
          {
            "number": 100,
            "ticks": 0,
            "time": 0,
            "value": 0
          },
          {
            "number": 100,
            "ticks": 0,
            "time": 0,
            "value": 0
          },
          {
            "number": 100,
            "ticks": 82466,
            "time": 228.45777604166662,
            "value": 0
          },
          {
            "number": 100,
            "ticks": 82491,
            "time": 228.52722057291663,
            "value": 0
          }
        ],
        "101": [
          {
            "number": 101,
            "ticks": 0,
            "time": 0,
            "value": 0
          },
          {
            "number": 101,
            "ticks": 0,
            "time": 0,
            "value": 0
          },
          {
            "number": 101,
            "ticks": 0,
            "time": 0,
            "value": 0
          },
          {
            "number": 101,
            "ticks": 82466,
            "time": 228.45777604166662,
            "value": 0
          },
          {
            "number": 101,
            "ticks": 82491,
            "time": 228.52722057291663,
            "value": 0
          }
        ]
      },
      "pitchBends": [
        {
          "ticks": 0,
          "time": 0,
          "value": 0
        },
        {
          "ticks": 0,
          "time": 0,
          "value": 0
        },
        {
          "ticks": 0,
          "time": 0,
          "value": 0
        },
        {
          "ticks": 0,
          "time": 0,
          "value": 0
        },
        {
          "ticks": 82466,
          "time": 228.45777604166662,
          "value": 0
        },
        {
          "ticks": 82491,
          "time": 228.52722057291663,
          "value": 0
        }
      ],
      "instrument": {
        "family": "piano",
        "number": 0,
        "name": "acoustic grand piano"
      },
      "name": "I have no Idea #4",
      "notes": [
        {
          "duration": 0.02777781250000011,
          "durationTicks": 10,
          "midi": 80,
          "name": "G#5",
          "ticks": 3072,
          "time": 8.533344,
          "velocity": 0.8188976377952756
        },
        {
          "duration": 0.02777781250000011,
          "durationTicks": 10,
          "midi": 85,
          "name": "C#6",
          "ticks": 3072,
          "time": 8.533344,
          "velocity": 0.8188976377952756
        },
        {
          "duration": 0.02777781250000011,
          "durationTicks": 10,
          "midi": 75,
          "name": "D#5",
          "ticks": 3096,
          "time": 8.60001075,
          "velocity": 0.8188976377952756
        },
        {
          "duration": 0.02777781250000011,
          "durationTicks": 10,
          "midi": 80,
          "name": "G#5",
          "ticks": 3096,
          "time": 8.60001075,
          "velocity": 0.8188976377952756
        },
        {
          "duration": 0.02777781250000011,
          "durationTicks": 10,
          "midi": 63,
          "name": "D#4",
          "ticks": 3120,
          "time": 8.666677499999999,
          "velocity": 0.8188976377952756
        },
        {
          "duration": 0.02777781250000011,
          "durationTicks": 10,
          "midi": 68,
          "name": "G#4",
          "ticks": 3120,
          "time": 8.666677499999999,
          "velocity": 0.8188976377952756
        },
        {
          "duration": 0.027777812499998333,
          "durationTicks": 10,
          "midi": 70,
          "name": "A#4",
          "ticks": 3144,
          "time": 8.73334425,
          "velocity": 0.8188976377952756
        },
        {
          "duration": 0.027777812499998333,
          "durationTicks": 10,
          "midi": 66,
          "name": "F#4",
          "ticks": 3144,
          "time": 8.73334425,
          "velocity": 0.8188976377952756
        },
        {
          "duration": 0.02777781250000011,
          "durationTicks": 10,
          "midi": 66,
          "name": "F#4",
          "ticks": 3168,
          "time": 8.800011,
          "velocity": 0.8188976377952756
        },
        {
          "duration": 0.02777781250000011,
          "durationTicks": 10,
          "midi": 62,
          "name": "D4",
          "ticks": 3168,
          "time": 8.800011,
          "velocity": 0.8188976377952756
        },
        {
          "duration": 0.02777781250000011,
          "durationTicks": 10,
          "midi": 58,
          "name": "A#3",
          "ticks": 3192,
          "time": 8.86667775,
          "velocity": 0.8188976377952756
        },
        {
          "duration": 0.02777781250000011,
          "durationTicks": 10,
          "midi": 62,
          "name": "D4",
          "ticks": 3192,
          "time": 8.86667775,
          "velocity": 0.8188976377952756
        },
        {
          "duration": 0.027777812499998333,
          "durationTicks": 10,
          "midi": 54,
          "name": "F#3",
          "ticks": 3216,
          "time": 8.9333445,
          "velocity": 0.8188976377952756
        },
        {
          "duration": 0.027777812499998333,
          "durationTicks": 10,
          "midi": 58,
          "name": "A#3",
          "ticks": 3216,
          "time": 8.9333445,
          "velocity": 0.8188976377952756
        },
        {
          "duration": 0.027777812499998333,
          "durationTicks": 10,
          "midi": 54,
          "name": "F#3",
          "ticks": 3240,
          "time": 9.00001125,
          "velocity": 0.8188976377952756
        },
        {
          "duration": 0.027777812499998333,
          "durationTicks": 10,
          "midi": 50,
          "name": "D3",
          "ticks": 3240,
          "time": 9.00001125,
          "velocity": 0.8188976377952756
        },
        {
          "duration": 0.02777781250000544,
          "durationTicks": 10,
          "midi": 80,
          "name": "G#5",
          "ticks": 26976,
          "time": 74.933427,
          "velocity": 0.8188976377952756
        },
        {
          "duration": 0.02777781250000544,
          "durationTicks": 10,
          "midi": 85,
          "name": "C#6",
          "ticks": 26976,
          "time": 74.933427,
          "velocity": 0.8188976377952756
        },
        {
          "duration": 0.02777781250000544,
          "durationTicks": 10,
          "midi": 75,
          "name": "D#5",
          "ticks": 27000,
          "time": 75.00009374999999,
          "velocity": 0.8188976377952756
        },
        {
          "duration": 0.02777781250000544,
          "durationTicks": 10,
          "midi": 80,
          "name": "G#5",
          "ticks": 27000,
          "time": 75.00009374999999,
          "velocity": 0.8188976377952756
        },
        {
          "duration": 0.02777781250000544,
          "durationTicks": 10,
          "midi": 63,
          "name": "D#4",
          "ticks": 27024,
          "time": 75.0667605,
          "velocity": 0.8188976377952756
        },
        {
          "duration": 0.02777781250000544,
          "durationTicks": 10,
          "midi": 68,
          "name": "G#4",
          "ticks": 27024,
          "time": 75.0667605,
          "velocity": 0.8188976377952756
        },
        {
          "duration": 0.02777781250000544,
          "durationTicks": 10,
          "midi": 66,
          "name": "F#4",
          "ticks": 27048,
          "time": 75.13342725,
          "velocity": 0.8188976377952756
        },
        {
          "duration": 0.02777781250000544,
          "durationTicks": 10,
          "midi": 70,
          "name": "A#4",
          "ticks": 27048,
          "time": 75.13342725,
          "velocity": 0.8188976377952756
        },
        {
          "duration": 0.02777781250000544,
          "durationTicks": 10,
          "midi": 62,
          "name": "D4",
          "ticks": 27072,
          "time": 75.20009399999999,
          "velocity": 0.8188976377952756
        },
        {
          "duration": 0.02777781250000544,
          "durationTicks": 10,
          "midi": 66,
          "name": "F#4",
          "ticks": 27072,
          "time": 75.20009399999999,
          "velocity": 0.8188976377952756
        },
        {
          "duration": 0.02777781250000544,
          "durationTicks": 10,
          "midi": 58,
          "name": "A#3",
          "ticks": 27096,
          "time": 75.26676075,
          "velocity": 0.8188976377952756
        },
        {
          "duration": 0.02777781250000544,
          "durationTicks": 10,
          "midi": 62,
          "name": "D4",
          "ticks": 27096,
          "time": 75.26676075,
          "velocity": 0.8188976377952756
        },
        {
          "duration": 0.02777781250000544,
          "durationTicks": 10,
          "midi": 54,
          "name": "F#3",
          "ticks": 27120,
          "time": 75.3334275,
          "velocity": 0.8188976377952756
        },
        {
          "duration": 0.02777781250000544,
          "durationTicks": 10,
          "midi": 58,
          "name": "A#3",
          "ticks": 27120,
          "time": 75.3334275,
          "velocity": 0.8188976377952756
        },
        {
          "duration": 0.02777781250000544,
          "durationTicks": 10,
          "midi": 54,
          "name": "F#3",
          "ticks": 27144,
          "time": 75.40009425,
          "velocity": 0.8188976377952756
        },
        {
          "duration": 0.02777781250000544,
          "durationTicks": 10,
          "midi": 50,
          "name": "D3",
          "ticks": 27144,
          "time": 75.40009425,
          "velocity": 0.8188976377952756
        },
        {
          "duration": 0.027777812499977017,
          "durationTicks": 10,
          "midi": 80,
          "name": "G#5",
          "ticks": 60864,
          "time": 169.066878,
          "velocity": 0.8188976377952756
        },
        {
          "duration": 0.027777812499977017,
          "durationTicks": 10,
          "midi": 85,
          "name": "C#6",
          "ticks": 60864,
          "time": 169.066878,
          "velocity": 0.8188976377952756
        },
        {
          "duration": 0.027777812499977017,
          "durationTicks": 10,
          "midi": 75,
          "name": "D#5",
          "ticks": 60888,
          "time": 169.13354475,
          "velocity": 0.8188976377952756
        },
        {
          "duration": 0.027777812499977017,
          "durationTicks": 10,
          "midi": 80,
          "name": "G#5",
          "ticks": 60888,
          "time": 169.13354475,
          "velocity": 0.8188976377952756
        },
        {
          "duration": 0.027777812499977017,
          "durationTicks": 10,
          "midi": 63,
          "name": "D#4",
          "ticks": 60912,
          "time": 169.2002115,
          "velocity": 0.8188976377952756
        },
        {
          "duration": 0.027777812499977017,
          "durationTicks": 10,
          "midi": 68,
          "name": "G#4",
          "ticks": 60912,
          "time": 169.2002115,
          "velocity": 0.8188976377952756
        },
        {
          "duration": 0.027777812499977017,
          "durationTicks": 10,
          "midi": 66,
          "name": "F#4",
          "ticks": 60936,
          "time": 169.26687825,
          "velocity": 0.8188976377952756
        },
        {
          "duration": 0.027777812499977017,
          "durationTicks": 10,
          "midi": 70,
          "name": "A#4",
          "ticks": 60936,
          "time": 169.26687825,
          "velocity": 0.8188976377952756
        },
        {
          "duration": 0.02777781250000544,
          "durationTicks": 10,
          "midi": 62,
          "name": "D4",
          "ticks": 60960,
          "time": 169.333545,
          "velocity": 0.8188976377952756
        },
        {
          "duration": 0.02777781250000544,
          "durationTicks": 10,
          "midi": 66,
          "name": "F#4",
          "ticks": 60960,
          "time": 169.333545,
          "velocity": 0.8188976377952756
        },
        {
          "duration": 0.02777781250000544,
          "durationTicks": 10,
          "midi": 58,
          "name": "A#3",
          "ticks": 60984,
          "time": 169.40021174999998,
          "velocity": 0.8188976377952756
        },
        {
          "duration": 0.02777781250000544,
          "durationTicks": 10,
          "midi": 62,
          "name": "D4",
          "ticks": 60984,
          "time": 169.40021174999998,
          "velocity": 0.8188976377952756
        },
        {
          "duration": 0.02777781250000544,
          "durationTicks": 10,
          "midi": 54,
          "name": "F#3",
          "ticks": 61008,
          "time": 169.46687849999998,
          "velocity": 0.8188976377952756
        },
        {
          "duration": 0.02777781250000544,
          "durationTicks": 10,
          "midi": 58,
          "name": "A#3",
          "ticks": 61008,
          "time": 169.46687849999998,
          "velocity": 0.8188976377952756
        },
        {
          "duration": 0.027777812499977017,
          "durationTicks": 10,
          "midi": 50,
          "name": "D3",
          "ticks": 61032,
          "time": 169.53354525,
          "velocity": 0.8188976377952756
        },
        {
          "duration": 0.027777812499977017,
          "durationTicks": 10,
          "midi": 54,
          "name": "F#3",
          "ticks": 61032,
          "time": 169.53354525,
          "velocity": 0.8188976377952756
        }
      ],
      "endOfTrackTicks": 82491
    },
    {
      "channel": 12,
      "controlChanges": {
        "6": [
          {
            "number": 6,
            "ticks": 0,
            "time": 0,
            "value": 0.09448818897637795
          },
          {
            "number": 6,
            "ticks": 0,
            "time": 0,
            "value": 0.09448818897637795
          },
          {
            "number": 6,
            "ticks": 0,
            "time": 0,
            "value": 0.09448818897637795
          },
          {
            "number": 6,
            "ticks": 82466,
            "time": 228.45777604166662,
            "value": 0.09448818897637795
          },
          {
            "number": 6,
            "ticks": 82491,
            "time": 228.52722057291663,
            "value": 0.09448818897637795
          }
        ],
        "7": [
          {
            "number": 7,
            "ticks": 0,
            "time": 0,
            "value": 0.7874015748031497
          },
          {
            "number": 7,
            "ticks": 0,
            "time": 0,
            "value": 0.7874015748031497
          },
          {
            "number": 7,
            "ticks": 0,
            "time": 0,
            "value": 0.7874015748031497
          },
          {
            "number": 7,
            "ticks": 0,
            "time": 0,
            "value": 0.7874015748031497
          },
          {
            "number": 7,
            "ticks": 82466,
            "time": 228.45777604166662,
            "value": 0.7874015748031497
          },
          {
            "number": 7,
            "ticks": 82491,
            "time": 228.52722057291663,
            "value": 0.7874015748031497
          }
        ],
        "10": [
          {
            "number": 10,
            "ticks": 0,
            "time": 0,
            "value": 0.5039370078740157
          },
          {
            "number": 10,
            "ticks": 0,
            "time": 0,
            "value": 0.5039370078740157
          },
          {
            "number": 10,
            "ticks": 0,
            "time": 0,
            "value": 0.5039370078740157
          },
          {
            "number": 10,
            "ticks": 0,
            "time": 0,
            "value": 0.5039370078740157
          },
          {
            "number": 10,
            "ticks": 82466,
            "time": 228.45777604166662,
            "value": 0.5039370078740157
          },
          {
            "number": 10,
            "ticks": 82491,
            "time": 228.52722057291663,
            "value": 0.5039370078740157
          }
        ],
        "100": [
          {
            "number": 100,
            "ticks": 0,
            "time": 0,
            "value": 0
          },
          {
            "number": 100,
            "ticks": 0,
            "time": 0,
            "value": 0
          },
          {
            "number": 100,
            "ticks": 0,
            "time": 0,
            "value": 0
          },
          {
            "number": 100,
            "ticks": 82466,
            "time": 228.45777604166662,
            "value": 0
          },
          {
            "number": 100,
            "ticks": 82491,
            "time": 228.52722057291663,
            "value": 0
          }
        ],
        "101": [
          {
            "number": 101,
            "ticks": 0,
            "time": 0,
            "value": 0
          },
          {
            "number": 101,
            "ticks": 0,
            "time": 0,
            "value": 0
          },
          {
            "number": 101,
            "ticks": 0,
            "time": 0,
            "value": 0
          },
          {
            "number": 101,
            "ticks": 82466,
            "time": 228.45777604166662,
            "value": 0
          },
          {
            "number": 101,
            "ticks": 82491,
            "time": 228.52722057291663,
            "value": 0
          }
        ]
      },
      "pitchBends": [
        {
          "ticks": 0,
          "time": 0,
          "value": 0
        },
        {
          "ticks": 0,
          "time": 0,
          "value": 0
        },
        {
          "ticks": 0,
          "time": 0,
          "value": 0
        },
        {
          "ticks": 0,
          "time": 0,
          "value": 0
        },
        {
          "ticks": 82466,
          "time": 228.45777604166662,
          "value": 0
        },
        {
          "ticks": 82491,
          "time": 228.52722057291663,
          "value": 0
        }
      ],
      "instrument": {
        "family": "piano",
        "number": 0,
        "name": "acoustic grand piano"
      },
      "name": "Bell",
      "notes": [
        {
          "duration": 0.2500003125,
          "durationTicks": 90,
          "midi": 87,
          "name": "D#6",
          "ticks": 96,
          "time": 0.266667,
          "velocity": 0.6456692913385826
        },
        {
          "duration": 0.266667,
          "durationTicks": 96,
          "midi": 99,
          "name": "D#7",
          "ticks": 192,
          "time": 0.533334,
          "velocity": 0.6456692913385826
        },
        {
          "duration": 0.06666675,
          "durationTicks": 24,
          "midi": 94,
          "name": "A#6",
          "ticks": 336,
          "time": 0.9333345,
          "velocity": 0.6456692913385826
        },
        {
          "duration": 0.266667,
          "durationTicks": 96,
          "midi": 93,
          "name": "A6",
          "ticks": 384,
          "time": 1.066668,
          "velocity": 0.6456692913385826
        },
        {
          "duration": 0.1333335,
          "durationTicks": 48,
          "midi": 90,
          "name": "F#6",
          "ticks": 528,
          "time": 1.4666685,
          "velocity": 0.6456692913385826
        },
        {
          "duration": 0.266667,
          "durationTicks": 96,
          "midi": 93,
          "name": "A6",
          "ticks": 576,
          "time": 1.600002,
          "velocity": 0.6377952755905512
        },
        {
          "duration": 0.266667,
          "durationTicks": 96,
          "midi": 95,
          "name": "B6",
          "ticks": 672,
          "time": 1.866669,
          "velocity": 0.6377952755905512
        },
        {
          "duration": 0.266667,
          "durationTicks": 96,
          "midi": 94,
          "name": "A#6",
          "ticks": 768,
          "time": 2.133336,
          "velocity": 0.6377952755905512
        },
        {
          "duration": 0.266667,
          "durationTicks": 96,
          "midi": 87,
          "name": "D#6",
          "ticks": 864,
          "time": 2.400003,
          "velocity": 0.6299212598425197
        },
        {
          "duration": 0.2500003125000001,
          "durationTicks": 90,
          "midi": 99,
          "name": "D#7",
          "ticks": 960,
          "time": 2.66667,
          "velocity": 0.6299212598425197
        },
        {
          "duration": 0.06666675,
          "durationTicks": 24,
          "midi": 94,
          "name": "A#6",
          "ticks": 1104,
          "time": 3.0666705,
          "velocity": 0.6220472440944882
        },
        {
          "duration": 0.266667,
          "durationTicks": 96,
          "midi": 93,
          "name": "A6",
          "ticks": 1152,
          "time": 3.200004,
          "velocity": 0.6220472440944882
        },
        {
          "duration": 0.1333335,
          "durationTicks": 48,
          "midi": 90,
          "name": "F#6",
          "ticks": 1296,
          "time": 3.6000045,
          "velocity": 0.6141732283464567
        },
        {
          "duration": 0.266667,
          "durationTicks": 96,
          "midi": 92,
          "name": "G#6",
          "ticks": 1344,
          "time": 3.733338,
          "velocity": 0.6220472440944882
        },
        {
          "duration": 0.1333335,
          "durationTicks": 48,
          "midi": 90,
          "name": "F#6",
          "ticks": 1440,
          "time": 4.000005,
          "velocity": 0.6141732283464567
        },
        {
          "duration": 0.1333335,
          "durationTicks": 48,
          "midi": 89,
          "name": "F6",
          "ticks": 1488,
          "time": 4.1333385,
          "velocity": 0.6141732283464567
        },
        {
          "duration": 0.266667,
          "durationTicks": 96,
          "midi": 90,
          "name": "F#6",
          "ticks": 1536,
          "time": 4.266672,
          "velocity": 0.6141732283464567
        },
        {
          "duration": 0.2500003125000001,
          "durationTicks": 90,
          "midi": 87,
          "name": "D#6",
          "ticks": 1632,
          "time": 4.533339,
          "velocity": 0.6141732283464567
        },
        {
          "duration": 0.266667,
          "durationTicks": 96,
          "midi": 99,
          "name": "D#7",
          "ticks": 1728,
          "time": 4.800006,
          "velocity": 0.5984251968503937
        },
        {
          "duration": 0.266667,
          "durationTicks": 96,
          "midi": 98,
          "name": "D7",
          "ticks": 1728,
          "time": 4.800006,
          "velocity": 0.10236220472440945
        },
        {
          "duration": 0.06666675000000044,
          "durationTicks": 24,
          "midi": 94,
          "name": "A#6",
          "ticks": 1872,
          "time": 5.2000065,
          "velocity": 0.5748031496062992
        },
        {
          "duration": 0.06666675000000044,
          "durationTicks": 24,
          "midi": 93,
          "name": "A6",
          "ticks": 1872,
          "time": 5.2000065,
          "velocity": 0.15748031496062992
        },
        {
          "duration": 0.266667,
          "durationTicks": 96,
          "midi": 92,
          "name": "G#6",
          "ticks": 1920,
          "time": 5.33334,
          "velocity": 0.1732283464566929
        },
        {
          "duration": 0.266667,
          "durationTicks": 96,
          "midi": 93,
          "name": "A6",
          "ticks": 1920,
          "time": 5.33334,
          "velocity": 0.5669291338582677
        },
        {
          "duration": 0.1333335,
          "durationTicks": 48,
          "midi": 90,
          "name": "F#6",
          "ticks": 2064,
          "time": 5.7333405,
          "velocity": 0.5433070866141733
        },
        {
          "duration": 0.1333335,
          "durationTicks": 48,
          "midi": 89,
          "name": "F6",
          "ticks": 2064,
          "time": 5.7333405,
          "velocity": 0.2283464566929134
        },
        {
          "duration": 0.266667,
          "durationTicks": 96,
          "midi": 93,
          "name": "A6",
          "ticks": 2112,
          "time": 5.866674,
          "velocity": 0.2440944881889764
        },
        {
          "duration": 0.266667,
          "durationTicks": 96,
          "midi": 94,
          "name": "A#6",
          "ticks": 2112,
          "time": 5.866674,
          "velocity": 0.5354330708661418
        },
        {
          "duration": 0.266667,
          "durationTicks": 96,
          "midi": 95,
          "name": "B6",
          "ticks": 2208,
          "time": 6.133341,
          "velocity": 0.2755905511811024
        },
        {
          "duration": 0.266667,
          "durationTicks": 96,
          "midi": 96,
          "name": "C7",
          "ticks": 2208,
          "time": 6.133341,
          "velocity": 0.5196850393700787
        },
        {
          "duration": 0.266667,
          "durationTicks": 96,
          "midi": 95,
          "name": "B6",
          "ticks": 2304,
          "time": 6.400008,
          "velocity": 0.5118110236220472
        },
        {
          "duration": 0.266667,
          "durationTicks": 96,
          "midi": 94,
          "name": "A#6",
          "ticks": 2304,
          "time": 6.400008,
          "velocity": 0.31496062992125984
        },
        {
          "duration": 0.266667,
          "durationTicks": 96,
          "midi": 90,
          "name": "F#6",
          "ticks": 2400,
          "time": 6.666675,
          "velocity": 0.49606299212598426
        },
        {
          "duration": 0.266667,
          "durationTicks": 96,
          "midi": 89,
          "name": "F6",
          "ticks": 2400,
          "time": 6.666675,
          "velocity": 0.3464566929133858
        },
        {
          "duration": 0.266667,
          "durationTicks": 96,
          "midi": 102,
          "name": "F#7",
          "ticks": 2496,
          "time": 6.933342,
          "velocity": 0.3779527559055118
        },
        {
          "duration": 0.266667,
          "durationTicks": 96,
          "midi": 103,
          "name": "G7",
          "ticks": 2496,
          "time": 6.933342,
          "velocity": 0.48031496062992124
        },
        {
          "duration": 0.1333335,
          "durationTicks": 48,
          "midi": 98,
          "name": "D7",
          "ticks": 2640,
          "time": 7.3333425,
          "velocity": 0.4330708661417323
        },
        {
          "duration": 0.1333335,
          "durationTicks": 48,
          "midi": 99,
          "name": "D#7",
          "ticks": 2640,
          "time": 7.3333425,
          "velocity": 0.4566929133858268
        },
        {
          "duration": 0.266667,
          "durationTicks": 96,
          "midi": 99,
          "name": "D#7",
          "ticks": 2688,
          "time": 7.466676,
          "velocity": 0.44881889763779526
        },
        {
          "duration": 0.266667,
          "durationTicks": 96,
          "midi": 100,
          "name": "E7",
          "ticks": 2688,
          "time": 7.466676,
          "velocity": 0.44881889763779526
        },
        {
          "duration": 0.2500003124999992,
          "durationTicks": 90,
          "midi": 87,
          "name": "D#6",
          "ticks": 4704,
          "time": 13.066683,
          "velocity": 0.6377952755905512
        },
        {
          "duration": 0.266667,
          "durationTicks": 96,
          "midi": 99,
          "name": "D#7",
          "ticks": 4800,
          "time": 13.33335,
          "velocity": 0.6141732283464567
        },
        {
          "duration": 0.06666674999999955,
          "durationTicks": 24,
          "midi": 94,
          "name": "A#6",
          "ticks": 4944,
          "time": 13.7333505,
          "velocity": 0.5669291338582677
        },
        {
          "duration": 0.266667,
          "durationTicks": 96,
          "midi": 93,
          "name": "A6",
          "ticks": 4992,
          "time": 13.866684,
          "velocity": 0.5511811023622047
        },
        {
          "duration": 0.1333334999999991,
          "durationTicks": 48,
          "midi": 90,
          "name": "F#6",
          "ticks": 5136,
          "time": 14.2666845,
          "velocity": 0.5118110236220472
        },
        {
          "duration": 0.266667,
          "durationTicks": 96,
          "midi": 93,
          "name": "A6",
          "ticks": 5184,
          "time": 14.400018,
          "velocity": 0.49606299212598426
        },
        {
          "duration": 0.266667,
          "durationTicks": 96,
          "midi": 95,
          "name": "B6",
          "ticks": 5280,
          "time": 14.666685,
          "velocity": 0.4645669291338583
        },
        {
          "duration": 0.266667,
          "durationTicks": 96,
          "midi": 94,
          "name": "A#6",
          "ticks": 5376,
          "time": 14.933352,
          "velocity": 0.4409448818897638
        },
        {
          "duration": 0.266667,
          "durationTicks": 96,
          "midi": 87,
          "name": "D#6",
          "ticks": 5472,
          "time": 15.200019,
          "velocity": 0.4094488188976378
        },
        {
          "duration": 0.2500003124999992,
          "durationTicks": 90,
          "midi": 99,
          "name": "D#7",
          "ticks": 5568,
          "time": 15.466686,
          "velocity": 0.3779527559055118
        },
        {
          "duration": 0.06666674999999955,
          "durationTicks": 24,
          "midi": 94,
          "name": "A#6",
          "ticks": 5712,
          "time": 15.8666865,
          "velocity": 0.33858267716535434
        },
        {
          "duration": 0.2666669999999982,
          "durationTicks": 96,
          "midi": 93,
          "name": "A6",
          "ticks": 5760,
          "time": 16.00002,
          "velocity": 0.3228346456692913
        },
        {
          "duration": 0.1333334999999991,
          "durationTicks": 48,
          "midi": 90,
          "name": "F#6",
          "ticks": 5904,
          "time": 16.4000205,
          "velocity": 0.2755905511811024
        },
        {
          "duration": 0.26666700000000176,
          "durationTicks": 96,
          "midi": 92,
          "name": "G#6",
          "ticks": 5952,
          "time": 16.533354,
          "velocity": 0.25984251968503935
        },
        {
          "duration": 0.1333334999999991,
          "durationTicks": 48,
          "midi": 90,
          "name": "F#6",
          "ticks": 6048,
          "time": 16.800021,
          "velocity": 0.23622047244094488
        },
        {
          "duration": 0.1333334999999991,
          "durationTicks": 48,
          "midi": 89,
          "name": "F6",
          "ticks": 6096,
          "time": 16.9333545,
          "velocity": 0.2204724409448819
        },
        {
          "duration": 0.2666669999999982,
          "durationTicks": 96,
          "midi": 90,
          "name": "F#6",
          "ticks": 6144,
          "time": 17.066688,
          "velocity": 0.2047244094488189
        },
        {
          "duration": 0.25000031250000276,
          "durationTicks": 90,
          "midi": 87,
          "name": "D#6",
          "ticks": 6240,
          "time": 17.333354999999997,
          "velocity": 0.1732283464566929
        },
        {
          "duration": 0.030555593749994614,
          "durationTicks": 11,
          "midi": 65,
          "name": "F4",
          "ticks": 55968,
          "time": 155.466861,
          "velocity": 0.3937007874015748
        },
        {
          "duration": 0.030555593749994614,
          "durationTicks": 11,
          "midi": 77,
          "name": "F5",
          "ticks": 55968,
          "time": 155.466861,
          "velocity": 0.3937007874015748
        },
        {
          "duration": 0.030555593749994614,
          "durationTicks": 11,
          "midi": 78,
          "name": "F#5",
          "ticks": 55980,
          "time": 155.500194375,
          "velocity": 0.4251968503937008
        },
        {
          "duration": 0.030555593749994614,
          "durationTicks": 11,
          "midi": 66,
          "name": "F#4",
          "ticks": 55980,
          "time": 155.500194375,
          "velocity": 0.4251968503937008
        },
        {
          "duration": 0.030555593750023036,
          "durationTicks": 11,
          "midi": 79,
          "name": "G5",
          "ticks": 55992,
          "time": 155.53352775,
          "velocity": 0.44881889763779526
        },
        {
          "duration": 0.030555593750023036,
          "durationTicks": 11,
          "midi": 67,
          "name": "G4",
          "ticks": 55992,
          "time": 155.53352775,
          "velocity": 0.44881889763779526
        },
        {
          "duration": 0.030555593749994614,
          "durationTicks": 11,
          "midi": 80,
          "name": "G#5",
          "ticks": 56004,
          "time": 155.566861125,
          "velocity": 0.48031496062992124
        },
        {
          "duration": 0.030555593749994614,
          "durationTicks": 11,
          "midi": 68,
          "name": "G#4",
          "ticks": 56004,
          "time": 155.566861125,
          "velocity": 0.48031496062992124
        },
        {
          "duration": 0.030555593750023036,
          "durationTicks": 11,
          "midi": 81,
          "name": "A5",
          "ticks": 56016,
          "time": 155.6001945,
          "velocity": 0.5039370078740157
        },
        {
          "duration": 0.030555593750023036,
          "durationTicks": 11,
          "midi": 69,
          "name": "A4",
          "ticks": 56016,
          "time": 155.6001945,
          "velocity": 0.5039370078740157
        },
        {
          "duration": 0.030555593749994614,
          "durationTicks": 11,
          "midi": 82,
          "name": "A#5",
          "ticks": 56028,
          "time": 155.633527875,
          "velocity": 0.5275590551181102
        },
        {
          "duration": 0.030555593749994614,
          "durationTicks": 11,
          "midi": 70,
          "name": "A#4",
          "ticks": 56028,
          "time": 155.633527875,
          "velocity": 0.5275590551181102
        },
        {
          "duration": 0.030555593750023036,
          "durationTicks": 11,
          "midi": 71,
          "name": "B4",
          "ticks": 56040,
          "time": 155.66686124999998,
          "velocity": 0.5590551181102362
        },
        {
          "duration": 0.030555593750023036,
          "durationTicks": 11,
          "midi": 83,
          "name": "B5",
          "ticks": 56040,
          "time": 155.66686124999998,
          "velocity": 0.5590551181102362
        },
        {
          "duration": 0.030555593749994614,
          "durationTicks": 11,
          "midi": 84,
          "name": "C6",
          "ticks": 56052,
          "time": 155.700194625,
          "velocity": 0.5826771653543307
        },
        {
          "duration": 0.030555593749994614,
          "durationTicks": 11,
          "midi": 72,
          "name": "C5",
          "ticks": 56052,
          "time": 155.700194625,
          "velocity": 0.5826771653543307
        },
        {
          "duration": 0.29722259375003546,
          "durationTicks": 107,
          "midi": 85,
          "name": "C#6",
          "ticks": 56064,
          "time": 155.73352799999998,
          "velocity": 0.6141732283464567
        },
        {
          "duration": 0.29722259375003546,
          "durationTicks": 107,
          "midi": 73,
          "name": "C#5",
          "ticks": 56064,
          "time": 155.73352799999998,
          "velocity": 0.6141732283464567
        },
        {
          "duration": 0.13055571875003125,
          "durationTicks": 47,
          "midi": 86,
          "name": "D6",
          "ticks": 56208,
          "time": 156.13352849999998,
          "velocity": 0.5984251968503937
        },
        {
          "duration": 0.13055571875003125,
          "durationTicks": 47,
          "midi": 74,
          "name": "D5",
          "ticks": 56208,
          "time": 156.13352849999998,
          "velocity": 0.5984251968503937
        },
        {
          "duration": 0.29722259375000704,
          "durationTicks": 107,
          "midi": 73,
          "name": "C#5",
          "ticks": 56256,
          "time": 156.266862,
          "velocity": 0.5984251968503937
        },
        {
          "duration": 0.29722259375000704,
          "durationTicks": 107,
          "midi": 85,
          "name": "C#6",
          "ticks": 56256,
          "time": 156.266862,
          "velocity": 0.5984251968503937
        },
        {
          "duration": 0.13055571875003125,
          "durationTicks": 47,
          "midi": 74,
          "name": "D5",
          "ticks": 56400,
          "time": 156.66686249999998,
          "velocity": 0.5984251968503937
        },
        {
          "duration": 0.13055571875003125,
          "durationTicks": 47,
          "midi": 86,
          "name": "D6",
          "ticks": 56400,
          "time": 156.66686249999998,
          "velocity": 0.5984251968503937
        },
        {
          "duration": 0.13055571875000282,
          "durationTicks": 47,
          "midi": 73,
          "name": "C#5",
          "ticks": 56448,
          "time": 156.800196,
          "velocity": 0.5984251968503937
        },
        {
          "duration": 0.13055571875000282,
          "durationTicks": 47,
          "midi": 85,
          "name": "C#6",
          "ticks": 56448,
          "time": 156.800196,
          "velocity": 0.5984251968503937
        },
        {
          "duration": 0.13055571875000282,
          "durationTicks": 47,
          "midi": 84,
          "name": "C6",
          "ticks": 56472,
          "time": 156.86686275,
          "velocity": 0.4094488188976378
        },
        {
          "duration": 0.13055571875000282,
          "durationTicks": 47,
          "midi": 72,
          "name": "C5",
          "ticks": 56472,
          "time": 156.86686275,
          "velocity": 0.4094488188976378
        },
        {
          "duration": 0.13055571875000282,
          "durationTicks": 47,
          "midi": 83,
          "name": "B5",
          "ticks": 56496,
          "time": 156.9335295,
          "velocity": 0.3543307086614173
        },
        {
          "duration": 0.13055571875000282,
          "durationTicks": 47,
          "midi": 71,
          "name": "B4",
          "ticks": 56496,
          "time": 156.9335295,
          "velocity": 0.3543307086614173
        },
        {
          "duration": 0.13055571875000282,
          "durationTicks": 47,
          "midi": 82,
          "name": "A#5",
          "ticks": 56520,
          "time": 157.00019625,
          "velocity": 0.2992125984251969
        },
        {
          "duration": 0.13055571875000282,
          "durationTicks": 47,
          "midi": 70,
          "name": "A#4",
          "ticks": 56520,
          "time": 157.00019625,
          "velocity": 0.2992125984251969
        },
        {
          "duration": 0.13055571875003125,
          "durationTicks": 47,
          "midi": 69,
          "name": "A4",
          "ticks": 56544,
          "time": 157.06686299999998,
          "velocity": 0.2440944881889764
        },
        {
          "duration": 0.13055571875003125,
          "durationTicks": 47,
          "midi": 81,
          "name": "A5",
          "ticks": 56544,
          "time": 157.06686299999998,
          "velocity": 0.2440944881889764
        },
        {
          "duration": 0.13055571875003125,
          "durationTicks": 47,
          "midi": 68,
          "name": "G#4",
          "ticks": 56568,
          "time": 157.13352974999998,
          "velocity": 0.1889763779527559
        },
        {
          "duration": 0.13055571875003125,
          "durationTicks": 47,
          "midi": 80,
          "name": "G#5",
          "ticks": 56568,
          "time": 157.13352974999998,
          "velocity": 0.1889763779527559
        },
        {
          "duration": 0.13055571875000282,
          "durationTicks": 47,
          "midi": 67,
          "name": "G4",
          "ticks": 56592,
          "time": 157.2001965,
          "velocity": 0.12598425196850394
        },
        {
          "duration": 0.13055571875000282,
          "durationTicks": 47,
          "midi": 79,
          "name": "G5",
          "ticks": 56592,
          "time": 157.2001965,
          "velocity": 0.12598425196850394
        },
        {
          "duration": 0.13055571875000282,
          "durationTicks": 47,
          "midi": 78,
          "name": "F#5",
          "ticks": 56604,
          "time": 157.233529875,
          "velocity": 0.10236220472440945
        },
        {
          "duration": 0.13055571875000282,
          "durationTicks": 47,
          "midi": 66,
          "name": "F#4",
          "ticks": 56604,
          "time": 157.233529875,
          "velocity": 0.10236220472440945
        },
        {
          "duration": 0.13055571875003125,
          "durationTicks": 47,
          "midi": 65,
          "name": "F4",
          "ticks": 56628,
          "time": 157.30019662499998,
          "velocity": 0.047244094488188976
        },
        {
          "duration": 0.13055571875003125,
          "durationTicks": 47,
          "midi": 77,
          "name": "F5",
          "ticks": 56628,
          "time": 157.30019662499998,
          "velocity": 0.047244094488188976
        },
        {
          "duration": 0.13055571875000282,
          "durationTicks": 47,
          "midi": 74,
          "name": "D5",
          "ticks": 56832,
          "time": 157.866864,
          "velocity": 0.4330708661417323
        },
        {
          "duration": 0.13055571875000282,
          "durationTicks": 47,
          "midi": 86,
          "name": "D6",
          "ticks": 56832,
          "time": 157.866864,
          "velocity": 0.4330708661417323
        },
        {
          "duration": 0.13055571875003125,
          "durationTicks": 47,
          "midi": 87,
          "name": "D#6",
          "ticks": 56880,
          "time": 158.00019749999998,
          "velocity": 0.44881889763779526
        },
        {
          "duration": 0.13055571875003125,
          "durationTicks": 47,
          "midi": 75,
          "name": "D#5",
          "ticks": 56880,
          "time": 158.00019749999998,
          "velocity": 0.44881889763779526
        },
        {
          "duration": 0.13055571875000282,
          "durationTicks": 47,
          "midi": 88,
          "name": "E6",
          "ticks": 56928,
          "time": 158.133531,
          "velocity": 0.47244094488188976
        },
        {
          "duration": 0.13055571875000282,
          "durationTicks": 47,
          "midi": 76,
          "name": "E5",
          "ticks": 56928,
          "time": 158.133531,
          "velocity": 0.47244094488188976
        },
        {
          "duration": 0.13055571875000282,
          "durationTicks": 47,
          "midi": 77,
          "name": "F5",
          "ticks": 56976,
          "time": 158.2668645,
          "velocity": 0.4881889763779528
        },
        {
          "duration": 0.13055571875000282,
          "durationTicks": 47,
          "midi": 89,
          "name": "F6",
          "ticks": 56976,
          "time": 158.2668645,
          "velocity": 0.4881889763779528
        },
        {
          "duration": 0.13055571875000282,
          "durationTicks": 47,
          "midi": 90,
          "name": "F#6",
          "ticks": 57024,
          "time": 158.400198,
          "velocity": 0.5039370078740157
        },
        {
          "duration": 0.13055571875000282,
          "durationTicks": 47,
          "midi": 78,
          "name": "F#5",
          "ticks": 57024,
          "time": 158.400198,
          "velocity": 0.5039370078740157
        },
        {
          "duration": 0.13055571875003125,
          "durationTicks": 47,
          "midi": 79,
          "name": "G5",
          "ticks": 57072,
          "time": 158.53353149999998,
          "velocity": 0.5275590551181102
        },
        {
          "duration": 0.13055571875003125,
          "durationTicks": 47,
          "midi": 91,
          "name": "G6",
          "ticks": 57072,
          "time": 158.53353149999998,
          "velocity": 0.5275590551181102
        },
        {
          "duration": 0.13055571875000282,
          "durationTicks": 47,
          "midi": 80,
          "name": "G#5",
          "ticks": 57120,
          "time": 158.666865,
          "velocity": 0.5433070866141733
        },
        {
          "duration": 0.13055571875000282,
          "durationTicks": 47,
          "midi": 92,
          "name": "G#6",
          "ticks": 57120,
          "time": 158.666865,
          "velocity": 0.5433070866141733
        },
        {
          "duration": 0.13055571875000282,
          "durationTicks": 47,
          "midi": 81,
          "name": "A5",
          "ticks": 57168,
          "time": 158.8001985,
          "velocity": 0.5590551181102362
        },
        {
          "duration": 0.13055571875000282,
          "durationTicks": 47,
          "midi": 93,
          "name": "A6",
          "ticks": 57168,
          "time": 158.8001985,
          "velocity": 0.5590551181102362
        },
        {
          "duration": 0.13055571875003125,
          "durationTicks": 47,
          "midi": 82,
          "name": "A#5",
          "ticks": 57216,
          "time": 158.93353199999999,
          "velocity": 0.5826771653543307
        },
        {
          "duration": 0.13055571875003125,
          "durationTicks": 47,
          "midi": 94,
          "name": "A#6",
          "ticks": 57216,
          "time": 158.93353199999999,
          "velocity": 0.5826771653543307
        },
        {
          "duration": 0.13055571875000282,
          "durationTicks": 47,
          "midi": 83,
          "name": "B5",
          "ticks": 57264,
          "time": 159.0668655,
          "velocity": 0.5984251968503937
        },
        {
          "duration": 0.13055571875000282,
          "durationTicks": 47,
          "midi": 95,
          "name": "B6",
          "ticks": 57264,
          "time": 159.0668655,
          "velocity": 0.5984251968503937
        },
        {
          "duration": 0.13055571875000282,
          "durationTicks": 47,
          "midi": 84,
          "name": "C6",
          "ticks": 57312,
          "time": 159.200199,
          "velocity": 0.6141732283464567
        },
        {
          "duration": 0.13055571875000282,
          "durationTicks": 47,
          "midi": 96,
          "name": "C7",
          "ticks": 57312,
          "time": 159.200199,
          "velocity": 0.6141732283464567
        },
        {
          "duration": 0.13055571875000282,
          "durationTicks": 47,
          "midi": 85,
          "name": "C#6",
          "ticks": 57360,
          "time": 159.3335325,
          "velocity": 0.6377952755905512
        },
        {
          "duration": 0.13055571875000282,
          "durationTicks": 47,
          "midi": 97,
          "name": "C#7",
          "ticks": 57360,
          "time": 159.3335325,
          "velocity": 0.6377952755905512
        },
        {
          "duration": 0.13055571875003125,
          "durationTicks": 47,
          "midi": 98,
          "name": "D7",
          "ticks": 57408,
          "time": 159.46686599999998,
          "velocity": 0.6535433070866141
        },
        {
          "duration": 0.13055571875003125,
          "durationTicks": 47,
          "midi": 86,
          "name": "D6",
          "ticks": 57408,
          "time": 159.46686599999998,
          "velocity": 0.6535433070866141
        },
        {
          "duration": 0.13055571875000282,
          "durationTicks": 47,
          "midi": 87,
          "name": "D#6",
          "ticks": 57456,
          "time": 159.6001995,
          "velocity": 0.6692913385826772
        },
        {
          "duration": 0.13055571875000282,
          "durationTicks": 47,
          "midi": 99,
          "name": "D#7",
          "ticks": 57456,
          "time": 159.6001995,
          "velocity": 0.6692913385826772
        },
        {
          "duration": 0.13055571875000282,
          "durationTicks": 47,
          "midi": 88,
          "name": "E6",
          "ticks": 57504,
          "time": 159.733533,
          "velocity": 0.6850393700787402
        },
        {
          "duration": 0.13055571875000282,
          "durationTicks": 47,
          "midi": 100,
          "name": "E7",
          "ticks": 57504,
          "time": 159.733533,
          "velocity": 0.6850393700787402
        },
        {
          "duration": 0.13055571875000282,
          "durationTicks": 47,
          "midi": 89,
          "name": "F6",
          "ticks": 57552,
          "time": 159.8668665,
          "velocity": 0.7086614173228346
        },
        {
          "duration": 0.13055571875000282,
          "durationTicks": 47,
          "midi": 101,
          "name": "F7",
          "ticks": 57552,
          "time": 159.8668665,
          "velocity": 0.7086614173228346
        },
        {
          "duration": 0.2500003125000205,
          "durationTicks": 90,
          "midi": 87,
          "name": "D#6",
          "ticks": 58272,
          "time": 161.86686899999998,
          "velocity": 0.7559055118110236
        },
        {
          "duration": 0.2666670000000124,
          "durationTicks": 96,
          "midi": 99,
          "name": "D#7",
          "ticks": 58368,
          "time": 162.133536,
          "velocity": 0.7559055118110236
        },
        {
          "duration": 0.066666749999996,
          "durationTicks": 24,
          "midi": 94,
          "name": "A#6",
          "ticks": 58512,
          "time": 162.5335365,
          "velocity": 0.7559055118110236
        },
        {
          "duration": 0.2666670000000124,
          "durationTicks": 96,
          "midi": 92,
          "name": "G#6",
          "ticks": 58560,
          "time": 162.66687,
          "velocity": 0.7559055118110236
        },
        {
          "duration": 0.133333499999992,
          "durationTicks": 48,
          "midi": 90,
          "name": "F#6",
          "ticks": 58704,
          "time": 163.0668705,
          "velocity": 0.7559055118110236
        },
        {
          "duration": 0.2666670000000124,
          "durationTicks": 96,
          "midi": 92,
          "name": "G#6",
          "ticks": 58752,
          "time": 163.20020399999999,
          "velocity": 0.7559055118110236
        },
        {
          "duration": 0.266666999999984,
          "durationTicks": 96,
          "midi": 95,
          "name": "B6",
          "ticks": 58848,
          "time": 163.466871,
          "velocity": 0.7559055118110236
        },
        {
          "duration": 0.2666670000000124,
          "durationTicks": 96,
          "midi": 94,
          "name": "A#6",
          "ticks": 58944,
          "time": 163.73353799999998,
          "velocity": 0.7559055118110236
        },
        {
          "duration": 0.266666999999984,
          "durationTicks": 96,
          "midi": 87,
          "name": "D#6",
          "ticks": 59040,
          "time": 164.000205,
          "velocity": 0.7559055118110236
        },
        {
          "duration": 0.2500003125000205,
          "durationTicks": 90,
          "midi": 99,
          "name": "D#7",
          "ticks": 59136,
          "time": 164.26687199999998,
          "velocity": 0.7559055118110236
        },
        {
          "duration": 0.066666749999996,
          "durationTicks": 24,
          "midi": 94,
          "name": "A#6",
          "ticks": 59280,
          "time": 164.66687249999998,
          "velocity": 0.7559055118110236
        },
        {
          "duration": 0.266666999999984,
          "durationTicks": 96,
          "midi": 92,
          "name": "G#6",
          "ticks": 59328,
          "time": 164.800206,
          "velocity": 0.7559055118110236
        },
        {
          "duration": 0.13333350000002042,
          "durationTicks": 48,
          "midi": 90,
          "name": "F#6",
          "ticks": 59472,
          "time": 165.20020649999998,
          "velocity": 0.7559055118110236
        },
        {
          "duration": 0.266666999999984,
          "durationTicks": 96,
          "midi": 92,
          "name": "G#6",
          "ticks": 59520,
          "time": 165.33354,
          "velocity": 0.7559055118110236
        },
        {
          "duration": 0.13333350000002042,
          "durationTicks": 48,
          "midi": 90,
          "name": "F#6",
          "ticks": 59616,
          "time": 165.60020699999998,
          "velocity": 0.7559055118110236
        },
        {
          "duration": 0.133333499999992,
          "durationTicks": 48,
          "midi": 89,
          "name": "F6",
          "ticks": 59664,
          "time": 165.7335405,
          "velocity": 0.7559055118110236
        },
        {
          "duration": 0.266666999999984,
          "durationTicks": 96,
          "midi": 90,
          "name": "F#6",
          "ticks": 59712,
          "time": 165.866874,
          "velocity": 0.7559055118110236
        },
        {
          "duration": 0.2500003125000205,
          "durationTicks": 90,
          "midi": 87,
          "name": "D#6",
          "ticks": 59808,
          "time": 166.13354099999998,
          "velocity": 0.7559055118110236
        },
        {
          "duration": 0.2666670000000124,
          "durationTicks": 96,
          "midi": 99,
          "name": "D#7",
          "ticks": 59904,
          "time": 166.400208,
          "velocity": 0.7559055118110236
        },
        {
          "duration": 0.066666749999996,
          "durationTicks": 24,
          "midi": 94,
          "name": "A#6",
          "ticks": 60048,
          "time": 166.8002085,
          "velocity": 0.7559055118110236
        },
        {
          "duration": 0.2500003124999921,
          "durationTicks": 90,
          "midi": 79,
          "name": "G5",
          "ticks": 74400,
          "time": 206.666925,
          "velocity": 0.6456692913385826
        },
        {
          "duration": 0.03333337500001221,
          "durationTicks": 12,
          "midi": 89,
          "name": "F6",
          "ticks": 74496,
          "time": 206.93359199999998,
          "velocity": 0.6456692913385826
        },
        {
          "duration": 0.2500003124999921,
          "durationTicks": 90,
          "midi": 91,
          "name": "G6",
          "ticks": 74502,
          "time": 206.9502586875,
          "velocity": 0.6456692913385826
        },
        {
          "duration": 0.066666749999996,
          "durationTicks": 24,
          "midi": 86,
          "name": "D6",
          "ticks": 74640,
          "time": 207.33359249999998,
          "velocity": 0.6456692913385826
        },
        {
          "duration": 0.266666999999984,
          "durationTicks": 96,
          "midi": 85,
          "name": "C#6",
          "ticks": 74688,
          "time": 207.466926,
          "velocity": 0.6456692913385826
        },
        {
          "duration": 0.13333350000002042,
          "durationTicks": 48,
          "midi": 82,
          "name": "A#5",
          "ticks": 74832,
          "time": 207.86692649999998,
          "velocity": 0.6377952755905512
        },
        {
          "duration": 0.133333499999992,
          "durationTicks": 48,
          "midi": 87,
          "name": "D#6",
          "ticks": 74880,
          "time": 208.00026,
          "velocity": 0.6377952755905512
        },
        {
          "duration": 0.133333499999992,
          "durationTicks": 48,
          "midi": 85,
          "name": "C#6",
          "ticks": 74928,
          "time": 208.1335935,
          "velocity": 0.6377952755905512
        },
        {
          "duration": 0.2666670000000124,
          "durationTicks": 96,
          "midi": 87,
          "name": "D#6",
          "ticks": 74976,
          "time": 208.26692699999998,
          "velocity": 0.6377952755905512
        },
        {
          "duration": 0.266666999999984,
          "durationTicks": 96,
          "midi": 86,
          "name": "D6",
          "ticks": 75072,
          "time": 208.533594,
          "velocity": 0.6299212598425197
        },
        {
          "duration": 0.2666670000000124,
          "durationTicks": 96,
          "midi": 79,
          "name": "G5",
          "ticks": 75168,
          "time": 208.80026099999998,
          "velocity": 0.6299212598425197
        },
        {
          "duration": 0.03333337500001221,
          "durationTicks": 12,
          "midi": 89,
          "name": "F6",
          "ticks": 75264,
          "time": 209.066928,
          "velocity": 0.6299212598425197
        },
        {
          "duration": 0.2500003125000205,
          "durationTicks": 90,
          "midi": 91,
          "name": "G6",
          "ticks": 75270,
          "time": 209.08359468749998,
          "velocity": 0.6299212598425197
        },
        {
          "duration": 0.066666749999996,
          "durationTicks": 24,
          "midi": 86,
          "name": "D6",
          "ticks": 75408,
          "time": 209.4669285,
          "velocity": 0.6456692913385826
        },
        {
          "duration": 0.2666670000000124,
          "durationTicks": 96,
          "midi": 85,
          "name": "C#6",
          "ticks": 75456,
          "time": 209.600262,
          "velocity": 0.6456692913385826
        },
        {
          "duration": 0.133333499999992,
          "durationTicks": 48,
          "midi": 82,
          "name": "A#5",
          "ticks": 75600,
          "time": 210.0002625,
          "velocity": 0.6377952755905512
        },
        {
          "duration": 0.0722223125000312,
          "durationTicks": 26,
          "midi": 85,
          "name": "C#6",
          "ticks": 75648,
          "time": 210.13359599999998,
          "velocity": 0.6456692913385826
        },
        {
          "duration": 0.07222231250000277,
          "durationTicks": 26,
          "midi": 86,
          "name": "D6",
          "ticks": 75696,
          "time": 210.2669295,
          "velocity": 0.6456692913385826
        },
        {
          "duration": 0.07222231250000277,
          "durationTicks": 26,
          "midi": 87,
          "name": "D#6",
          "ticks": 75744,
          "time": 210.400263,
          "velocity": 0.6456692913385826
        },
        {
          "duration": 0.07222231250000277,
          "durationTicks": 26,
          "midi": 88,
          "name": "E6",
          "ticks": 75792,
          "time": 210.5335965,
          "velocity": 0.6456692913385826
        },
        {
          "duration": 0.0722223125000312,
          "durationTicks": 26,
          "midi": 89,
          "name": "F6",
          "ticks": 75840,
          "time": 210.66692999999998,
          "velocity": 0.6456692913385826
        },
        {
          "duration": 0.07222231250000277,
          "durationTicks": 26,
          "midi": 90,
          "name": "F#6",
          "ticks": 75888,
          "time": 210.8002635,
          "velocity": 0.6456692913385826
        },
        {
          "duration": 0.07222231250000277,
          "durationTicks": 26,
          "midi": 91,
          "name": "G6",
          "ticks": 75936,
          "time": 210.933597,
          "velocity": 0.6456692913385826
        },
        {
          "duration": 0.07222231250000277,
          "durationTicks": 26,
          "midi": 92,
          "name": "G#6",
          "ticks": 75984,
          "time": 211.06693049999998,
          "velocity": 0.6456692913385826
        },
        {
          "duration": 0.07222231250000277,
          "durationTicks": 26,
          "midi": 93,
          "name": "A6",
          "ticks": 76032,
          "time": 211.200264,
          "velocity": 0.6456692913385826
        },
        {
          "duration": 0.07222231250000277,
          "durationTicks": 26,
          "midi": 94,
          "name": "A#6",
          "ticks": 76080,
          "time": 211.3335975,
          "velocity": 0.6456692913385826
        },
        {
          "duration": 0.07222231250000277,
          "durationTicks": 26,
          "midi": 95,
          "name": "B6",
          "ticks": 76128,
          "time": 211.466931,
          "velocity": 0.6456692913385826
        },
        {
          "duration": 0.0722223125000312,
          "durationTicks": 26,
          "midi": 96,
          "name": "C7",
          "ticks": 76176,
          "time": 211.60026449999998,
          "velocity": 0.6456692913385826
        }
      ],
      "endOfTrackTicks": 82491
    },
    {
      "channel": 13,
      "controlChanges": {
        "6": [
          {
            "number": 6,
            "ticks": 0,
            "time": 0,
            "value": 0.09448818897637795
          },
          {
            "number": 6,
            "ticks": 0,
            "time": 0,
            "value": 0.09448818897637795
          },
          {
            "number": 6,
            "ticks": 0,
            "time": 0,
            "value": 0.09448818897637795
          },
          {
            "number": 6,
            "ticks": 82466,
            "time": 228.45777604166662,
            "value": 0.09448818897637795
          },
          {
            "number": 6,
            "ticks": 82491,
            "time": 228.52722057291663,
            "value": 0.09448818897637795
          }
        ],
        "7": [
          {
            "number": 7,
            "ticks": 0,
            "time": 0,
            "value": 0.7874015748031497
          },
          {
            "number": 7,
            "ticks": 0,
            "time": 0,
            "value": 0.7874015748031497
          },
          {
            "number": 7,
            "ticks": 0,
            "time": 0,
            "value": 0.7874015748031497
          },
          {
            "number": 7,
            "ticks": 0,
            "time": 0,
            "value": 0.7874015748031497
          },
          {
            "number": 7,
            "ticks": 82466,
            "time": 228.45777604166662,
            "value": 0.7874015748031497
          },
          {
            "number": 7,
            "ticks": 82491,
            "time": 228.52722057291663,
            "value": 0.7874015748031497
          }
        ],
        "10": [
          {
            "number": 10,
            "ticks": 0,
            "time": 0,
            "value": 0.5039370078740157
          },
          {
            "number": 10,
            "ticks": 0,
            "time": 0,
            "value": 0.5039370078740157
          },
          {
            "number": 10,
            "ticks": 0,
            "time": 0,
            "value": 0.5039370078740157
          },
          {
            "number": 10,
            "ticks": 0,
            "time": 0,
            "value": 0.5039370078740157
          },
          {
            "number": 10,
            "ticks": 82466,
            "time": 228.45777604166662,
            "value": 0.5039370078740157
          },
          {
            "number": 10,
            "ticks": 82491,
            "time": 228.52722057291663,
            "value": 0.5039370078740157
          }
        ],
        "100": [
          {
            "number": 100,
            "ticks": 0,
            "time": 0,
            "value": 0
          },
          {
            "number": 100,
            "ticks": 0,
            "time": 0,
            "value": 0
          },
          {
            "number": 100,
            "ticks": 0,
            "time": 0,
            "value": 0
          },
          {
            "number": 100,
            "ticks": 82466,
            "time": 228.45777604166662,
            "value": 0
          },
          {
            "number": 100,
            "ticks": 82491,
            "time": 228.52722057291663,
            "value": 0
          }
        ],
        "101": [
          {
            "number": 101,
            "ticks": 0,
            "time": 0,
            "value": 0
          },
          {
            "number": 101,
            "ticks": 0,
            "time": 0,
            "value": 0
          },
          {
            "number": 101,
            "ticks": 0,
            "time": 0,
            "value": 0
          },
          {
            "number": 101,
            "ticks": 82466,
            "time": 228.45777604166662,
            "value": 0
          },
          {
            "number": 101,
            "ticks": 82491,
            "time": 228.52722057291663,
            "value": 0
          }
        ]
      },
      "pitchBends": [
        {
          "ticks": 0,
          "time": 0,
          "value": 0
        },
        {
          "ticks": 0,
          "time": 0,
          "value": 0
        },
        {
          "ticks": 0,
          "time": 0,
          "value": 0
        },
        {
          "ticks": 0,
          "time": 0,
          "value": 0
        },
        {
          "ticks": 82466,
          "time": 228.45777604166662,
          "value": 0
        },
        {
          "ticks": 82491,
          "time": 228.52722057291663,
          "value": 0
        }
      ],
      "instrument": {
        "family": "piano",
        "number": 0,
        "name": "acoustic grand piano"
      },
      "name": "KICK",
      "notes": [
        {
          "duration": 0.033333374999999776,
          "durationTicks": 12,
          "midi": 39,
          "name": "D#2",
          "ticks": 3264,
          "time": 9.066678,
          "velocity": 0.7716535433070866
        },
        {
          "duration": 0.033333374999999776,
          "durationTicks": 12,
          "midi": 27,
          "name": "D#1",
          "ticks": 3264,
          "time": 9.066678,
          "velocity": 0.7716535433070866
        },
        {
          "duration": 0.033333374999999776,
          "durationTicks": 12,
          "midi": 34,
          "name": "A#1",
          "ticks": 3264,
          "time": 9.066678,
          "velocity": 0.7716535433070866
        },
        {
          "duration": 0.033333374999999776,
          "durationTicks": 12,
          "midi": 39,
          "name": "D#2",
          "ticks": 3360,
          "time": 9.333345,
          "velocity": 0.7716535433070866
        },
        {
          "duration": 0.033333374999999776,
          "durationTicks": 12,
          "midi": 27,
          "name": "D#1",
          "ticks": 3360,
          "time": 9.333345,
          "velocity": 0.7716535433070866
        },
        {
          "duration": 0.033333374999999776,
          "durationTicks": 12,
          "midi": 34,
          "name": "A#1",
          "ticks": 3360,
          "time": 9.333345,
          "velocity": 0.7716535433070866
        },
        {
          "duration": 0.033333374999999776,
          "durationTicks": 12,
          "midi": 39,
          "name": "D#2",
          "ticks": 3456,
          "time": 9.600012,
          "velocity": 0.7716535433070866
        },
        {
          "duration": 0.033333374999999776,
          "durationTicks": 12,
          "midi": 34,
          "name": "A#1",
          "ticks": 3456,
          "time": 9.600012,
          "velocity": 0.7716535433070866
        },
        {
          "duration": 0.033333374999999776,
          "durationTicks": 12,
          "midi": 27,
          "name": "D#1",
          "ticks": 3456,
          "time": 9.600012,
          "velocity": 0.7716535433070866
        },
        {
          "duration": 0.033333374999999776,
          "durationTicks": 12,
          "midi": 39,
          "name": "D#2",
          "ticks": 3552,
          "time": 9.866679,
          "velocity": 0.7716535433070866
        },
        {
          "duration": 0.033333374999999776,
          "durationTicks": 12,
          "midi": 27,
          "name": "D#1",
          "ticks": 3552,
          "time": 9.866679,
          "velocity": 0.7716535433070866
        },
        {
          "duration": 0.033333374999999776,
          "durationTicks": 12,
          "midi": 34,
          "name": "A#1",
          "ticks": 3552,
          "time": 9.866679,
          "velocity": 0.7716535433070866
        },
        {
          "duration": 0.033333374999999776,
          "durationTicks": 12,
          "midi": 39,
          "name": "D#2",
          "ticks": 3648,
          "time": 10.133346,
          "velocity": 0.7716535433070866
        },
        {
          "duration": 0.033333374999999776,
          "durationTicks": 12,
          "midi": 27,
          "name": "D#1",
          "ticks": 3648,
          "time": 10.133346,
          "velocity": 0.7716535433070866
        },
        {
          "duration": 0.033333374999999776,
          "durationTicks": 12,
          "midi": 34,
          "name": "A#1",
          "ticks": 3648,
          "time": 10.133346,
          "velocity": 0.7716535433070866
        },
        {
          "duration": 0.033333374999999776,
          "durationTicks": 12,
          "midi": 39,
          "name": "D#2",
          "ticks": 3744,
          "time": 10.400013,
          "velocity": 0.7716535433070866
        },
        {
          "duration": 0.033333374999999776,
          "durationTicks": 12,
          "midi": 27,
          "name": "D#1",
          "ticks": 3744,
          "time": 10.400013,
          "velocity": 0.7716535433070866
        },
        {
          "duration": 0.033333374999999776,
          "durationTicks": 12,
          "midi": 34,
          "name": "A#1",
          "ticks": 3744,
          "time": 10.400013,
          "velocity": 0.7716535433070866
        },
        {
          "duration": 0.033333374999999776,
          "durationTicks": 12,
          "midi": 39,
          "name": "D#2",
          "ticks": 3840,
          "time": 10.66668,
          "velocity": 0.7716535433070866
        },
        {
          "duration": 0.033333374999999776,
          "durationTicks": 12,
          "midi": 27,
          "name": "D#1",
          "ticks": 3840,
          "time": 10.66668,
          "velocity": 0.7716535433070866
        },
        {
          "duration": 0.033333374999999776,
          "durationTicks": 12,
          "midi": 34,
          "name": "A#1",
          "ticks": 3840,
          "time": 10.66668,
          "velocity": 0.7716535433070866
        },
        {
          "duration": 0.033333374999999776,
          "durationTicks": 12,
          "midi": 39,
          "name": "D#2",
          "ticks": 3936,
          "time": 10.933347,
          "velocity": 0.7716535433070866
        },
        {
          "duration": 0.033333374999999776,
          "durationTicks": 12,
          "midi": 27,
          "name": "D#1",
          "ticks": 3936,
          "time": 10.933347,
          "velocity": 0.7716535433070866
        },
        {
          "duration": 0.033333374999999776,
          "durationTicks": 12,
          "midi": 34,
          "name": "A#1",
          "ticks": 3936,
          "time": 10.933347,
          "velocity": 0.7716535433070866
        },
        {
          "duration": 0.033333374999999776,
          "durationTicks": 12,
          "midi": 39,
          "name": "D#2",
          "ticks": 4032,
          "time": 11.200014,
          "velocity": 0.7716535433070866
        },
        {
          "duration": 0.033333374999999776,
          "durationTicks": 12,
          "midi": 34,
          "name": "A#1",
          "ticks": 4032,
          "time": 11.200014,
          "velocity": 0.7716535433070866
        },
        {
          "duration": 0.033333374999999776,
          "durationTicks": 12,
          "midi": 27,
          "name": "D#1",
          "ticks": 4032,
          "time": 11.200014,
          "velocity": 0.7716535433070866
        },
        {
          "duration": 0.033333374999999776,
          "durationTicks": 12,
          "midi": 39,
          "name": "D#2",
          "ticks": 4128,
          "time": 11.466681,
          "velocity": 0.7716535433070866
        },
        {
          "duration": 0.033333374999999776,
          "durationTicks": 12,
          "midi": 27,
          "name": "D#1",
          "ticks": 4128,
          "time": 11.466681,
          "velocity": 0.7716535433070866
        },
        {
          "duration": 0.033333374999999776,
          "durationTicks": 12,
          "midi": 34,
          "name": "A#1",
          "ticks": 4128,
          "time": 11.466681,
          "velocity": 0.7716535433070866
        },
        {
          "duration": 0.033333374999999776,
          "durationTicks": 12,
          "midi": 39,
          "name": "D#2",
          "ticks": 4224,
          "time": 11.733348,
          "velocity": 0.7716535433070866
        },
        {
          "duration": 0.033333374999999776,
          "durationTicks": 12,
          "midi": 34,
          "name": "A#1",
          "ticks": 4224,
          "time": 11.733348,
          "velocity": 0.7716535433070866
        },
        {
          "duration": 0.033333374999999776,
          "durationTicks": 12,
          "midi": 27,
          "name": "D#1",
          "ticks": 4224,
          "time": 11.733348,
          "velocity": 0.7716535433070866
        },
        {
          "duration": 0.033333374999999776,
          "durationTicks": 12,
          "midi": 39,
          "name": "D#2",
          "ticks": 4320,
          "time": 12.000015,
          "velocity": 0.7716535433070866
        },
        {
          "duration": 0.033333374999999776,
          "durationTicks": 12,
          "midi": 27,
          "name": "D#1",
          "ticks": 4320,
          "time": 12.000015,
          "velocity": 0.7716535433070866
        },
        {
          "duration": 0.033333374999999776,
          "durationTicks": 12,
          "midi": 34,
          "name": "A#1",
          "ticks": 4320,
          "time": 12.000015,
          "velocity": 0.7716535433070866
        },
        {
          "duration": 0.033333374999999776,
          "durationTicks": 12,
          "midi": 39,
          "name": "D#2",
          "ticks": 4416,
          "time": 12.266682,
          "velocity": 0.7716535433070866
        },
        {
          "duration": 0.033333374999999776,
          "durationTicks": 12,
          "midi": 34,
          "name": "A#1",
          "ticks": 4416,
          "time": 12.266682,
          "velocity": 0.7716535433070866
        },
        {
          "duration": 0.033333374999999776,
          "durationTicks": 12,
          "midi": 27,
          "name": "D#1",
          "ticks": 4416,
          "time": 12.266682,
          "velocity": 0.7716535433070866
        },
        {
          "duration": 0.033333374999999776,
          "durationTicks": 12,
          "midi": 39,
          "name": "D#2",
          "ticks": 4512,
          "time": 12.533349,
          "velocity": 0.7716535433070866
        },
        {
          "duration": 0.033333374999999776,
          "durationTicks": 12,
          "midi": 27,
          "name": "D#1",
          "ticks": 4512,
          "time": 12.533349,
          "velocity": 0.7716535433070866
        },
        {
          "duration": 0.033333374999999776,
          "durationTicks": 12,
          "midi": 34,
          "name": "A#1",
          "ticks": 4512,
          "time": 12.533349,
          "velocity": 0.7716535433070866
        },
        {
          "duration": 0.033333374999999776,
          "durationTicks": 12,
          "midi": 39,
          "name": "D#2",
          "ticks": 4608,
          "time": 12.800016,
          "velocity": 0.7716535433070866
        },
        {
          "duration": 0.033333374999999776,
          "durationTicks": 12,
          "midi": 34,
          "name": "A#1",
          "ticks": 4608,
          "time": 12.800016,
          "velocity": 0.7716535433070866
        },
        {
          "duration": 0.033333374999999776,
          "durationTicks": 12,
          "midi": 27,
          "name": "D#1",
          "ticks": 4608,
          "time": 12.800016,
          "velocity": 0.7716535433070866
        },
        {
          "duration": 0.033333374999999776,
          "durationTicks": 12,
          "midi": 39,
          "name": "D#2",
          "ticks": 4704,
          "time": 13.066683,
          "velocity": 0.7716535433070866
        },
        {
          "duration": 0.033333374999999776,
          "durationTicks": 12,
          "midi": 27,
          "name": "D#1",
          "ticks": 4704,
          "time": 13.066683,
          "velocity": 0.7716535433070866
        },
        {
          "duration": 0.033333374999999776,
          "durationTicks": 12,
          "midi": 34,
          "name": "A#1",
          "ticks": 4704,
          "time": 13.066683,
          "velocity": 0.7716535433070866
        },
        {
          "duration": 0.033333374999999776,
          "durationTicks": 12,
          "midi": 39,
          "name": "D#2",
          "ticks": 4800,
          "time": 13.33335,
          "velocity": 0.7716535433070866
        },
        {
          "duration": 0.033333374999999776,
          "durationTicks": 12,
          "midi": 27,
          "name": "D#1",
          "ticks": 4800,
          "time": 13.33335,
          "velocity": 0.7716535433070866
        },
        {
          "duration": 0.033333374999999776,
          "durationTicks": 12,
          "midi": 39,
          "name": "D#2",
          "ticks": 4896,
          "time": 13.600017,
          "velocity": 0.7716535433070866
        },
        {
          "duration": 0.033333374999999776,
          "durationTicks": 12,
          "midi": 34,
          "name": "A#1",
          "ticks": 4896,
          "time": 13.600017,
          "velocity": 0.7716535433070866
        },
        {
          "duration": 0.033333374999999776,
          "durationTicks": 12,
          "midi": 27,
          "name": "D#1",
          "ticks": 4896,
          "time": 13.600017,
          "velocity": 0.7716535433070866
        },
        {
          "duration": 0.033333374999999776,
          "durationTicks": 12,
          "midi": 39,
          "name": "D#2",
          "ticks": 4992,
          "time": 13.866684,
          "velocity": 0.7716535433070866
        },
        {
          "duration": 0.033333374999999776,
          "durationTicks": 12,
          "midi": 34,
          "name": "A#1",
          "ticks": 4992,
          "time": 13.866684,
          "velocity": 0.7716535433070866
        },
        {
          "duration": 0.033333374999999776,
          "durationTicks": 12,
          "midi": 27,
          "name": "D#1",
          "ticks": 4992,
          "time": 13.866684,
          "velocity": 0.7716535433070866
        },
        {
          "duration": 0.033333374999999776,
          "durationTicks": 12,
          "midi": 39,
          "name": "D#2",
          "ticks": 5088,
          "time": 14.133351,
          "velocity": 0.7716535433070866
        },
        {
          "duration": 0.033333374999999776,
          "durationTicks": 12,
          "midi": 34,
          "name": "A#1",
          "ticks": 5088,
          "time": 14.133351,
          "velocity": 0.7716535433070866
        },
        {
          "duration": 0.033333374999999776,
          "durationTicks": 12,
          "midi": 27,
          "name": "D#1",
          "ticks": 5088,
          "time": 14.133351,
          "velocity": 0.7716535433070866
        },
        {
          "duration": 0.033333374999999776,
          "durationTicks": 12,
          "midi": 39,
          "name": "D#2",
          "ticks": 5184,
          "time": 14.400018,
          "velocity": 0.7716535433070866
        },
        {
          "duration": 0.033333374999999776,
          "durationTicks": 12,
          "midi": 27,
          "name": "D#1",
          "ticks": 5184,
          "time": 14.400018,
          "velocity": 0.7716535433070866
        },
        {
          "duration": 0.033333374999999776,
          "durationTicks": 12,
          "midi": 34,
          "name": "A#1",
          "ticks": 5184,
          "time": 14.400018,
          "velocity": 0.7716535433070866
        },
        {
          "duration": 0.033333374999999776,
          "durationTicks": 12,
          "midi": 39,
          "name": "D#2",
          "ticks": 5280,
          "time": 14.666685,
          "velocity": 0.7716535433070866
        },
        {
          "duration": 0.033333374999999776,
          "durationTicks": 12,
          "midi": 27,
          "name": "D#1",
          "ticks": 5280,
          "time": 14.666685,
          "velocity": 0.7716535433070866
        },
        {
          "duration": 0.033333374999999776,
          "durationTicks": 12,
          "midi": 34,
          "name": "A#1",
          "ticks": 5280,
          "time": 14.666685,
          "velocity": 0.7716535433070866
        },
        {
          "duration": 0.033333374999999776,
          "durationTicks": 12,
          "midi": 39,
          "name": "D#2",
          "ticks": 5376,
          "time": 14.933352,
          "velocity": 0.7716535433070866
        },
        {
          "duration": 0.033333374999999776,
          "durationTicks": 12,
          "midi": 34,
          "name": "A#1",
          "ticks": 5376,
          "time": 14.933352,
          "velocity": 0.7716535433070866
        },
        {
          "duration": 0.033333374999999776,
          "durationTicks": 12,
          "midi": 27,
          "name": "D#1",
          "ticks": 5376,
          "time": 14.933352,
          "velocity": 0.7716535433070866
        },
        {
          "duration": 0.033333374999999776,
          "durationTicks": 12,
          "midi": 39,
          "name": "D#2",
          "ticks": 5472,
          "time": 15.200019,
          "velocity": 0.7716535433070866
        },
        {
          "duration": 0.033333374999999776,
          "durationTicks": 12,
          "midi": 27,
          "name": "D#1",
          "ticks": 5472,
          "time": 15.200019,
          "velocity": 0.7716535433070866
        },
        {
          "duration": 0.033333374999999776,
          "durationTicks": 12,
          "midi": 34,
          "name": "A#1",
          "ticks": 5472,
          "time": 15.200019,
          "velocity": 0.7716535433070866
        },
        {
          "duration": 0.033333374999999776,
          "durationTicks": 12,
          "midi": 39,
          "name": "D#2",
          "ticks": 5568,
          "time": 15.466686,
          "velocity": 0.7716535433070866
        },
        {
          "duration": 0.033333374999999776,
          "durationTicks": 12,
          "midi": 27,
          "name": "D#1",
          "ticks": 5568,
          "time": 15.466686,
          "velocity": 0.7716535433070866
        },
        {
          "duration": 0.033333374999999776,
          "durationTicks": 12,
          "midi": 34,
          "name": "A#1",
          "ticks": 5568,
          "time": 15.466686,
          "velocity": 0.7716535433070866
        },
        {
          "duration": 0.033333374999999776,
          "durationTicks": 12,
          "midi": 39,
          "name": "D#2",
          "ticks": 5664,
          "time": 15.733353,
          "velocity": 0.7716535433070866
        },
        {
          "duration": 0.033333374999999776,
          "durationTicks": 12,
          "midi": 34,
          "name": "A#1",
          "ticks": 5664,
          "time": 15.733353,
          "velocity": 0.7716535433070866
        },
        {
          "duration": 0.033333374999999776,
          "durationTicks": 12,
          "midi": 27,
          "name": "D#1",
          "ticks": 5664,
          "time": 15.733353,
          "velocity": 0.7716535433070866
        },
        {
          "duration": 0.03333337500000155,
          "durationTicks": 12,
          "midi": 39,
          "name": "D#2",
          "ticks": 5760,
          "time": 16.00002,
          "velocity": 0.7716535433070866
        },
        {
          "duration": 0.03333337500000155,
          "durationTicks": 12,
          "midi": 27,
          "name": "D#1",
          "ticks": 5760,
          "time": 16.00002,
          "velocity": 0.7716535433070866
        },
        {
          "duration": 0.03333337500000155,
          "durationTicks": 12,
          "midi": 34,
          "name": "A#1",
          "ticks": 5760,
          "time": 16.00002,
          "velocity": 0.7716535433070866
        },
        {
          "duration": 0.03333337500000155,
          "durationTicks": 12,
          "midi": 39,
          "name": "D#2",
          "ticks": 5856,
          "time": 16.266686999999997,
          "velocity": 0.7716535433070866
        },
        {
          "duration": 0.03333337500000155,
          "durationTicks": 12,
          "midi": 34,
          "name": "A#1",
          "ticks": 5856,
          "time": 16.266686999999997,
          "velocity": 0.7716535433070866
        },
        {
          "duration": 0.03333337500000155,
          "durationTicks": 12,
          "midi": 27,
          "name": "D#1",
          "ticks": 5856,
          "time": 16.266686999999997,
          "velocity": 0.7716535433070866
        },
        {
          "duration": 0.03333337500000155,
          "durationTicks": 12,
          "midi": 39,
          "name": "D#2",
          "ticks": 5952,
          "time": 16.533354,
          "velocity": 0.7716535433070866
        },
        {
          "duration": 0.03333337500000155,
          "durationTicks": 12,
          "midi": 34,
          "name": "A#1",
          "ticks": 5952,
          "time": 16.533354,
          "velocity": 0.7716535433070866
        },
        {
          "duration": 0.03333337500000155,
          "durationTicks": 12,
          "midi": 27,
          "name": "D#1",
          "ticks": 5952,
          "time": 16.533354,
          "velocity": 0.7716535433070866
        },
        {
          "duration": 0.03333337500000155,
          "durationTicks": 12,
          "midi": 39,
          "name": "D#2",
          "ticks": 6000,
          "time": 16.6666875,
          "velocity": 0.7716535433070866
        },
        {
          "duration": 0.03333337500000155,
          "durationTicks": 12,
          "midi": 34,
          "name": "A#1",
          "ticks": 6000,
          "time": 16.6666875,
          "velocity": 0.7716535433070866
        },
        {
          "duration": 0.03333337500000155,
          "durationTicks": 12,
          "midi": 27,
          "name": "D#1",
          "ticks": 6000,
          "time": 16.6666875,
          "velocity": 0.7716535433070866
        },
        {
          "duration": 0.033333374999998,
          "durationTicks": 12,
          "midi": 39,
          "name": "D#2",
          "ticks": 6048,
          "time": 16.800021,
          "velocity": 0.7716535433070866
        },
        {
          "duration": 0.033333374999998,
          "durationTicks": 12,
          "midi": 27,
          "name": "D#1",
          "ticks": 6048,
          "time": 16.800021,
          "velocity": 0.7716535433070866
        },
        {
          "duration": 0.033333374999998,
          "durationTicks": 12,
          "midi": 34,
          "name": "A#1",
          "ticks": 6048,
          "time": 16.800021,
          "velocity": 0.7716535433070866
        },
        {
          "duration": 0.033333374999998,
          "durationTicks": 12,
          "midi": 39,
          "name": "D#2",
          "ticks": 6096,
          "time": 16.9333545,
          "velocity": 0.7716535433070866
        },
        {
          "duration": 0.033333374999998,
          "durationTicks": 12,
          "midi": 27,
          "name": "D#1",
          "ticks": 6096,
          "time": 16.9333545,
          "velocity": 0.7716535433070866
        },
        {
          "duration": 0.033333374999998,
          "durationTicks": 12,
          "midi": 34,
          "name": "A#1",
          "ticks": 6096,
          "time": 16.9333545,
          "velocity": 0.7716535433070866
        },
        {
          "duration": 0.03333337500000155,
          "durationTicks": 12,
          "midi": 39,
          "name": "D#2",
          "ticks": 6144,
          "time": 17.066688,
          "velocity": 0.7716535433070866
        },
        {
          "duration": 0.03333337500000155,
          "durationTicks": 12,
          "midi": 27,
          "name": "D#1",
          "ticks": 6144,
          "time": 17.066688,
          "velocity": 0.7716535433070866
        },
        {
          "duration": 0.03333337500000155,
          "durationTicks": 12,
          "midi": 34,
          "name": "A#1",
          "ticks": 6144,
          "time": 17.066688,
          "velocity": 0.7716535433070866
        },
        {
          "duration": 0.03333337500000155,
          "durationTicks": 12,
          "midi": 39,
          "name": "D#2",
          "ticks": 6192,
          "time": 17.2000215,
          "velocity": 0.7716535433070866
        },
        {
          "duration": 0.03333337500000155,
          "durationTicks": 12,
          "midi": 27,
          "name": "D#1",
          "ticks": 6192,
          "time": 17.2000215,
          "velocity": 0.7716535433070866
        },
        {
          "duration": 0.03333337500000155,
          "durationTicks": 12,
          "midi": 34,
          "name": "A#1",
          "ticks": 6192,
          "time": 17.2000215,
          "velocity": 0.7716535433070866
        },
        {
          "duration": 0.03333337500001221,
          "durationTicks": 12,
          "midi": 34,
          "name": "A#1",
          "ticks": 27168,
          "time": 75.46676099999999,
          "velocity": 0.8188976377952756
        },
        {
          "duration": 0.03333337500001221,
          "durationTicks": 12,
          "midi": 27,
          "name": "D#1",
          "ticks": 27168,
          "time": 75.46676099999999,
          "velocity": 0.8188976377952756
        },
        {
          "duration": 0.03333337500001221,
          "durationTicks": 12,
          "midi": 56,
          "name": "G#3",
          "ticks": 27168,
          "time": 75.46676099999999,
          "velocity": 0.8188976377952756
        },
        {
          "duration": 0.03333337500001221,
          "durationTicks": 12,
          "midi": 39,
          "name": "D#2",
          "ticks": 27168,
          "time": 75.46676099999999,
          "velocity": 0.8188976377952756
        },
        {
          "duration": 0.033333374999998,
          "durationTicks": 12,
          "midi": 34,
          "name": "A#1",
          "ticks": 27264,
          "time": 75.733428,
          "velocity": 0.8188976377952756
        },
        {
          "duration": 0.033333374999998,
          "durationTicks": 12,
          "midi": 27,
          "name": "D#1",
          "ticks": 27264,
          "time": 75.733428,
          "velocity": 0.8188976377952756
        },
        {
          "duration": 0.033333374999998,
          "durationTicks": 12,
          "midi": 39,
          "name": "D#2",
          "ticks": 27264,
          "time": 75.733428,
          "velocity": 0.8188976377952756
        },
        {
          "duration": 0.033333374999998,
          "durationTicks": 12,
          "midi": 56,
          "name": "G#3",
          "ticks": 27264,
          "time": 75.733428,
          "velocity": 0.8188976377952756
        },
        {
          "duration": 0.033333374999998,
          "durationTicks": 12,
          "midi": 34,
          "name": "A#1",
          "ticks": 27360,
          "time": 76.000095,
          "velocity": 0.8188976377952756
        },
        {
          "duration": 0.033333374999998,
          "durationTicks": 12,
          "midi": 27,
          "name": "D#1",
          "ticks": 27360,
          "time": 76.000095,
          "velocity": 0.8188976377952756
        },
        {
          "duration": 0.033333374999998,
          "durationTicks": 12,
          "midi": 39,
          "name": "D#2",
          "ticks": 27360,
          "time": 76.000095,
          "velocity": 0.8188976377952756
        },
        {
          "duration": 0.033333374999998,
          "durationTicks": 12,
          "midi": 56,
          "name": "G#3",
          "ticks": 27360,
          "time": 76.000095,
          "velocity": 0.8188976377952756
        },
        {
          "duration": 0.033333374999998,
          "durationTicks": 12,
          "midi": 34,
          "name": "A#1",
          "ticks": 27456,
          "time": 76.266762,
          "velocity": 0.8188976377952756
        },
        {
          "duration": 0.033333374999998,
          "durationTicks": 12,
          "midi": 27,
          "name": "D#1",
          "ticks": 27456,
          "time": 76.266762,
          "velocity": 0.8188976377952756
        },
        {
          "duration": 0.033333374999998,
          "durationTicks": 12,
          "midi": 39,
          "name": "D#2",
          "ticks": 27456,
          "time": 76.266762,
          "velocity": 0.8188976377952756
        },
        {
          "duration": 0.033333374999998,
          "durationTicks": 12,
          "midi": 56,
          "name": "G#3",
          "ticks": 27456,
          "time": 76.266762,
          "velocity": 0.8188976377952756
        },
        {
          "duration": 0.033333374999998,
          "durationTicks": 12,
          "midi": 34,
          "name": "A#1",
          "ticks": 27552,
          "time": 76.533429,
          "velocity": 0.8188976377952756
        },
        {
          "duration": 0.033333374999998,
          "durationTicks": 12,
          "midi": 56,
          "name": "G#3",
          "ticks": 27552,
          "time": 76.533429,
          "velocity": 0.8188976377952756
        },
        {
          "duration": 0.033333374999998,
          "durationTicks": 12,
          "midi": 39,
          "name": "D#2",
          "ticks": 27552,
          "time": 76.533429,
          "velocity": 0.8188976377952756
        },
        {
          "duration": 0.033333374999998,
          "durationTicks": 12,
          "midi": 27,
          "name": "D#1",
          "ticks": 27552,
          "time": 76.533429,
          "velocity": 0.8188976377952756
        },
        {
          "duration": 0.033333374999998,
          "durationTicks": 12,
          "midi": 34,
          "name": "A#1",
          "ticks": 27576,
          "time": 76.60009575,
          "velocity": 0.8188976377952756
        },
        {
          "duration": 0.033333374999998,
          "durationTicks": 12,
          "midi": 56,
          "name": "G#3",
          "ticks": 27576,
          "time": 76.60009575,
          "velocity": 0.8188976377952756
        },
        {
          "duration": 0.033333374999998,
          "durationTicks": 12,
          "midi": 39,
          "name": "D#2",
          "ticks": 27576,
          "time": 76.60009575,
          "velocity": 0.8188976377952756
        },
        {
          "duration": 0.033333374999998,
          "durationTicks": 12,
          "midi": 27,
          "name": "D#1",
          "ticks": 27576,
          "time": 76.60009575,
          "velocity": 0.8188976377952756
        },
        {
          "duration": 0.03333337500001221,
          "durationTicks": 12,
          "midi": 34,
          "name": "A#1",
          "ticks": 27600,
          "time": 76.66676249999999,
          "velocity": 0.8188976377952756
        },
        {
          "duration": 0.03333337500001221,
          "durationTicks": 12,
          "midi": 39,
          "name": "D#2",
          "ticks": 27600,
          "time": 76.66676249999999,
          "velocity": 0.8188976377952756
        },
        {
          "duration": 0.03333337500001221,
          "durationTicks": 12,
          "midi": 56,
          "name": "G#3",
          "ticks": 27600,
          "time": 76.66676249999999,
          "velocity": 0.8188976377952756
        },
        {
          "duration": 0.03333337500001221,
          "durationTicks": 12,
          "midi": 27,
          "name": "D#1",
          "ticks": 27600,
          "time": 76.66676249999999,
          "velocity": 0.8188976377952756
        },
        {
          "duration": 0.033333374999998,
          "durationTicks": 12,
          "midi": 34,
          "name": "A#1",
          "ticks": 27624,
          "time": 76.73342925,
          "velocity": 0.8188976377952756
        },
        {
          "duration": 0.033333374999998,
          "durationTicks": 12,
          "midi": 56,
          "name": "G#3",
          "ticks": 27624,
          "time": 76.73342925,
          "velocity": 0.8188976377952756
        },
        {
          "duration": 0.033333374999998,
          "durationTicks": 12,
          "midi": 39,
          "name": "D#2",
          "ticks": 27624,
          "time": 76.73342925,
          "velocity": 0.8188976377952756
        },
        {
          "duration": 0.033333374999998,
          "durationTicks": 12,
          "midi": 27,
          "name": "D#1",
          "ticks": 27624,
          "time": 76.73342925,
          "velocity": 0.8188976377952756
        },
        {
          "duration": 0.033333374999998,
          "durationTicks": 12,
          "midi": 34,
          "name": "A#1",
          "ticks": 27648,
          "time": 76.800096,
          "velocity": 0.8188976377952756
        },
        {
          "duration": 0.033333374999998,
          "durationTicks": 12,
          "midi": 27,
          "name": "D#1",
          "ticks": 27648,
          "time": 76.800096,
          "velocity": 0.8188976377952756
        },
        {
          "duration": 0.033333374999998,
          "durationTicks": 12,
          "midi": 56,
          "name": "G#3",
          "ticks": 27648,
          "time": 76.800096,
          "velocity": 0.8188976377952756
        },
        {
          "duration": 0.033333374999998,
          "durationTicks": 12,
          "midi": 39,
          "name": "D#2",
          "ticks": 27648,
          "time": 76.800096,
          "velocity": 0.8188976377952756
        },
        {
          "duration": 0.033333374999998,
          "durationTicks": 12,
          "midi": 34,
          "name": "A#1",
          "ticks": 27696,
          "time": 76.9334295,
          "velocity": 0.8188976377952756
        },
        {
          "duration": 0.033333374999998,
          "durationTicks": 12,
          "midi": 27,
          "name": "D#1",
          "ticks": 27696,
          "time": 76.9334295,
          "velocity": 0.8188976377952756
        },
        {
          "duration": 0.033333374999998,
          "durationTicks": 12,
          "midi": 39,
          "name": "D#2",
          "ticks": 27696,
          "time": 76.9334295,
          "velocity": 0.8188976377952756
        },
        {
          "duration": 0.033333374999998,
          "durationTicks": 12,
          "midi": 56,
          "name": "G#3",
          "ticks": 27696,
          "time": 76.9334295,
          "velocity": 0.8188976377952756
        },
        {
          "duration": 0.033333374999998,
          "durationTicks": 12,
          "midi": 34,
          "name": "A#1",
          "ticks": 27744,
          "time": 77.066763,
          "velocity": 0.8188976377952756
        },
        {
          "duration": 0.033333374999998,
          "durationTicks": 12,
          "midi": 27,
          "name": "D#1",
          "ticks": 27744,
          "time": 77.066763,
          "velocity": 0.8188976377952756
        },
        {
          "duration": 0.033333374999998,
          "durationTicks": 12,
          "midi": 56,
          "name": "G#3",
          "ticks": 27744,
          "time": 77.066763,
          "velocity": 0.8188976377952756
        },
        {
          "duration": 0.033333374999998,
          "durationTicks": 12,
          "midi": 39,
          "name": "D#2",
          "ticks": 27744,
          "time": 77.066763,
          "velocity": 0.8188976377952756
        },
        {
          "duration": 0.06666675000001021,
          "durationTicks": 24,
          "midi": 34,
          "name": "A#1",
          "ticks": 27840,
          "time": 77.33342999999999,
          "velocity": 0.8188976377952756
        },
        {
          "duration": 0.06666675000001021,
          "durationTicks": 24,
          "midi": 27,
          "name": "D#1",
          "ticks": 27840,
          "time": 77.33342999999999,
          "velocity": 0.8188976377952756
        },
        {
          "duration": 0.06666675000001021,
          "durationTicks": 24,
          "midi": 39,
          "name": "D#2",
          "ticks": 27840,
          "time": 77.33342999999999,
          "velocity": 0.8188976377952756
        },
        {
          "duration": 0.06666675000001021,
          "durationTicks": 24,
          "midi": 56,
          "name": "G#3",
          "ticks": 27840,
          "time": 77.33342999999999,
          "velocity": 0.8188976377952756
        },
        {
          "duration": 0.066666749999996,
          "durationTicks": 24,
          "midi": 34,
          "name": "A#1",
          "ticks": 27888,
          "time": 77.4667635,
          "velocity": 0.8188976377952756
        },
        {
          "duration": 0.066666749999996,
          "durationTicks": 24,
          "midi": 27,
          "name": "D#1",
          "ticks": 27888,
          "time": 77.4667635,
          "velocity": 0.8188976377952756
        },
        {
          "duration": 0.066666749999996,
          "durationTicks": 24,
          "midi": 39,
          "name": "D#2",
          "ticks": 27888,
          "time": 77.4667635,
          "velocity": 0.8188976377952756
        },
        {
          "duration": 0.066666749999996,
          "durationTicks": 24,
          "midi": 56,
          "name": "G#3",
          "ticks": 27888,
          "time": 77.4667635,
          "velocity": 0.8188976377952756
        },
        {
          "duration": 0.06666675000001021,
          "durationTicks": 24,
          "midi": 34,
          "name": "A#1",
          "ticks": 27936,
          "time": 77.60009699999999,
          "velocity": 0.8188976377952756
        },
        {
          "duration": 0.06666675000001021,
          "durationTicks": 24,
          "midi": 27,
          "name": "D#1",
          "ticks": 27936,
          "time": 77.60009699999999,
          "velocity": 0.8188976377952756
        },
        {
          "duration": 0.06666675000001021,
          "durationTicks": 24,
          "midi": 56,
          "name": "G#3",
          "ticks": 27936,
          "time": 77.60009699999999,
          "velocity": 0.8188976377952756
        },
        {
          "duration": 0.06666675000001021,
          "durationTicks": 24,
          "midi": 64,
          "name": "E4",
          "ticks": 27936,
          "time": 77.60009699999999,
          "velocity": 0.6614173228346457
        },
        {
          "duration": 0.06666675000001021,
          "durationTicks": 24,
          "midi": 39,
          "name": "D#2",
          "ticks": 27936,
          "time": 77.60009699999999,
          "velocity": 0.8188976377952756
        },
        {
          "duration": 0.066666749999996,
          "durationTicks": 24,
          "midi": 34,
          "name": "A#1",
          "ticks": 28008,
          "time": 77.80009725,
          "velocity": 0.8188976377952756
        },
        {
          "duration": 0.066666749999996,
          "durationTicks": 24,
          "midi": 27,
          "name": "D#1",
          "ticks": 28008,
          "time": 77.80009725,
          "velocity": 0.8188976377952756
        },
        {
          "duration": 0.066666749999996,
          "durationTicks": 24,
          "midi": 56,
          "name": "G#3",
          "ticks": 28008,
          "time": 77.80009725,
          "velocity": 0.8188976377952756
        },
        {
          "duration": 0.066666749999996,
          "durationTicks": 24,
          "midi": 63,
          "name": "D#4",
          "ticks": 28008,
          "time": 77.80009725,
          "velocity": 0.6614173228346457
        },
        {
          "duration": 0.066666749999996,
          "durationTicks": 24,
          "midi": 39,
          "name": "D#2",
          "ticks": 28008,
          "time": 77.80009725,
          "velocity": 0.8188976377952756
        },
        {
          "duration": 0.066666749999996,
          "durationTicks": 24,
          "midi": 34,
          "name": "A#1",
          "ticks": 28080,
          "time": 78.0000975,
          "velocity": 0.8188976377952756
        },
        {
          "duration": 0.066666749999996,
          "durationTicks": 24,
          "midi": 27,
          "name": "D#1",
          "ticks": 28080,
          "time": 78.0000975,
          "velocity": 0.8188976377952756
        },
        {
          "duration": 0.066666749999996,
          "durationTicks": 24,
          "midi": 56,
          "name": "G#3",
          "ticks": 28080,
          "time": 78.0000975,
          "velocity": 0.8188976377952756
        },
        {
          "duration": 0.066666749999996,
          "durationTicks": 24,
          "midi": 39,
          "name": "D#2",
          "ticks": 28080,
          "time": 78.0000975,
          "velocity": 0.8188976377952756
        },
        {
          "duration": 0.066666749999996,
          "durationTicks": 24,
          "midi": 34,
          "name": "A#1",
          "ticks": 28128,
          "time": 78.133431,
          "velocity": 0.8188976377952756
        },
        {
          "duration": 0.066666749999996,
          "durationTicks": 24,
          "midi": 27,
          "name": "D#1",
          "ticks": 28128,
          "time": 78.133431,
          "velocity": 0.8188976377952756
        },
        {
          "duration": 0.066666749999996,
          "durationTicks": 24,
          "midi": 39,
          "name": "D#2",
          "ticks": 28128,
          "time": 78.133431,
          "velocity": 0.8188976377952756
        },
        {
          "duration": 0.066666749999996,
          "durationTicks": 24,
          "midi": 56,
          "name": "G#3",
          "ticks": 28128,
          "time": 78.133431,
          "velocity": 0.8188976377952756
        },
        {
          "duration": 0.066666749999996,
          "durationTicks": 24,
          "midi": 34,
          "name": "A#1",
          "ticks": 28176,
          "time": 78.2667645,
          "velocity": 0.8188976377952756
        },
        {
          "duration": 0.066666749999996,
          "durationTicks": 24,
          "midi": 27,
          "name": "D#1",
          "ticks": 28176,
          "time": 78.2667645,
          "velocity": 0.8188976377952756
        },
        {
          "duration": 0.066666749999996,
          "durationTicks": 24,
          "midi": 56,
          "name": "G#3",
          "ticks": 28176,
          "time": 78.2667645,
          "velocity": 0.8188976377952756
        },
        {
          "duration": 0.066666749999996,
          "durationTicks": 24,
          "midi": 39,
          "name": "D#2",
          "ticks": 28176,
          "time": 78.2667645,
          "velocity": 0.8188976377952756
        },
        {
          "duration": 0.033333374999998,
          "durationTicks": 12,
          "midi": 34,
          "name": "A#1",
          "ticks": 28224,
          "time": 78.400098,
          "velocity": 0.8188976377952756
        },
        {
          "duration": 0.033333374999998,
          "durationTicks": 12,
          "midi": 27,
          "name": "D#1",
          "ticks": 28224,
          "time": 78.400098,
          "velocity": 0.8188976377952756
        },
        {
          "duration": 0.033333374999998,
          "durationTicks": 12,
          "midi": 39,
          "name": "D#2",
          "ticks": 28224,
          "time": 78.400098,
          "velocity": 0.8188976377952756
        },
        {
          "duration": 0.066666749999996,
          "durationTicks": 24,
          "midi": 56,
          "name": "G#3",
          "ticks": 28224,
          "time": 78.400098,
          "velocity": 0.8188976377952756
        },
        {
          "duration": 0.033333374999998,
          "durationTicks": 12,
          "midi": 34,
          "name": "A#1",
          "ticks": 28320,
          "time": 78.666765,
          "velocity": 0.8188976377952756
        },
        {
          "duration": 0.033333374999998,
          "durationTicks": 12,
          "midi": 39,
          "name": "D#2",
          "ticks": 28320,
          "time": 78.666765,
          "velocity": 0.8188976377952756
        },
        {
          "duration": 0.033333374999998,
          "durationTicks": 12,
          "midi": 56,
          "name": "G#3",
          "ticks": 28320,
          "time": 78.666765,
          "velocity": 0.8188976377952756
        },
        {
          "duration": 0.033333374999998,
          "durationTicks": 12,
          "midi": 27,
          "name": "D#1",
          "ticks": 28320,
          "time": 78.666765,
          "velocity": 0.8188976377952756
        },
        {
          "duration": 0.033333374999998,
          "durationTicks": 12,
          "midi": 34,
          "name": "A#1",
          "ticks": 28344,
          "time": 78.73343175,
          "velocity": 0.8188976377952756
        },
        {
          "duration": 0.033333374999998,
          "durationTicks": 12,
          "midi": 27,
          "name": "D#1",
          "ticks": 28344,
          "time": 78.73343175,
          "velocity": 0.8188976377952756
        },
        {
          "duration": 0.033333374999998,
          "durationTicks": 12,
          "midi": 56,
          "name": "G#3",
          "ticks": 28344,
          "time": 78.73343175,
          "velocity": 0.8188976377952756
        },
        {
          "duration": 0.033333374999998,
          "durationTicks": 12,
          "midi": 39,
          "name": "D#2",
          "ticks": 28344,
          "time": 78.73343175,
          "velocity": 0.8188976377952756
        },
        {
          "duration": 0.033333374999998,
          "durationTicks": 12,
          "midi": 34,
          "name": "A#1",
          "ticks": 28392,
          "time": 78.86676525,
          "velocity": 0.8188976377952756
        },
        {
          "duration": 0.033333374999998,
          "durationTicks": 12,
          "midi": 39,
          "name": "D#2",
          "ticks": 28392,
          "time": 78.86676525,
          "velocity": 0.8188976377952756
        },
        {
          "duration": 0.033333374999998,
          "durationTicks": 12,
          "midi": 56,
          "name": "G#3",
          "ticks": 28392,
          "time": 78.86676525,
          "velocity": 0.8188976377952756
        },
        {
          "duration": 0.033333374999998,
          "durationTicks": 12,
          "midi": 27,
          "name": "D#1",
          "ticks": 28392,
          "time": 78.86676525,
          "velocity": 0.8188976377952756
        },
        {
          "duration": 0.033333374999998,
          "durationTicks": 12,
          "midi": 34,
          "name": "A#1",
          "ticks": 28416,
          "time": 78.933432,
          "velocity": 0.8188976377952756
        },
        {
          "duration": 0.033333374999998,
          "durationTicks": 12,
          "midi": 27,
          "name": "D#1",
          "ticks": 28416,
          "time": 78.933432,
          "velocity": 0.8188976377952756
        },
        {
          "duration": 0.033333374999998,
          "durationTicks": 12,
          "midi": 39,
          "name": "D#2",
          "ticks": 28416,
          "time": 78.933432,
          "velocity": 0.8188976377952756
        },
        {
          "duration": 0.033333374999998,
          "durationTicks": 12,
          "midi": 56,
          "name": "G#3",
          "ticks": 28416,
          "time": 78.933432,
          "velocity": 0.8188976377952756
        },
        {
          "duration": 0.033333374999998,
          "durationTicks": 12,
          "midi": 34,
          "name": "A#1",
          "ticks": 28464,
          "time": 79.0667655,
          "velocity": 0.8188976377952756
        },
        {
          "duration": 0.033333374999998,
          "durationTicks": 12,
          "midi": 27,
          "name": "D#1",
          "ticks": 28464,
          "time": 79.0667655,
          "velocity": 0.8188976377952756
        },
        {
          "duration": 0.033333374999998,
          "durationTicks": 12,
          "midi": 56,
          "name": "G#3",
          "ticks": 28464,
          "time": 79.0667655,
          "velocity": 0.8188976377952756
        },
        {
          "duration": 0.033333374999998,
          "durationTicks": 12,
          "midi": 39,
          "name": "D#2",
          "ticks": 28464,
          "time": 79.0667655,
          "velocity": 0.8188976377952756
        },
        {
          "duration": 0.033333374999998,
          "durationTicks": 12,
          "midi": 34,
          "name": "A#1",
          "ticks": 28512,
          "time": 79.200099,
          "velocity": 0.8188976377952756
        },
        {
          "duration": 0.033333374999998,
          "durationTicks": 12,
          "midi": 27,
          "name": "D#1",
          "ticks": 28512,
          "time": 79.200099,
          "velocity": 0.8188976377952756
        },
        {
          "duration": 0.033333374999998,
          "durationTicks": 12,
          "midi": 56,
          "name": "G#3",
          "ticks": 28512,
          "time": 79.200099,
          "velocity": 0.8188976377952756
        },
        {
          "duration": 0.033333374999998,
          "durationTicks": 12,
          "midi": 39,
          "name": "D#2",
          "ticks": 28512,
          "time": 79.200099,
          "velocity": 0.8188976377952756
        },
        {
          "duration": 0.033333374999998,
          "durationTicks": 12,
          "midi": 34,
          "name": "A#1",
          "ticks": 28608,
          "time": 79.46676599999999,
          "velocity": 0.8188976377952756
        },
        {
          "duration": 0.033333374999998,
          "durationTicks": 12,
          "midi": 27,
          "name": "D#1",
          "ticks": 28608,
          "time": 79.46676599999999,
          "velocity": 0.8188976377952756
        },
        {
          "duration": 0.033333374999998,
          "durationTicks": 12,
          "midi": 39,
          "name": "D#2",
          "ticks": 28608,
          "time": 79.46676599999999,
          "velocity": 0.8188976377952756
        },
        {
          "duration": 0.033333374999998,
          "durationTicks": 12,
          "midi": 56,
          "name": "G#3",
          "ticks": 28608,
          "time": 79.46676599999999,
          "velocity": 0.8188976377952756
        },
        {
          "duration": 0.033333374999998,
          "durationTicks": 12,
          "midi": 34,
          "name": "A#1",
          "ticks": 28656,
          "time": 79.6000995,
          "velocity": 0.8188976377952756
        },
        {
          "duration": 0.033333374999998,
          "durationTicks": 12,
          "midi": 39,
          "name": "D#2",
          "ticks": 28656,
          "time": 79.6000995,
          "velocity": 0.8188976377952756
        },
        {
          "duration": 0.033333374999998,
          "durationTicks": 12,
          "midi": 56,
          "name": "G#3",
          "ticks": 28656,
          "time": 79.6000995,
          "velocity": 0.8188976377952756
        },
        {
          "duration": 0.033333374999998,
          "durationTicks": 12,
          "midi": 27,
          "name": "D#1",
          "ticks": 28656,
          "time": 79.6000995,
          "velocity": 0.8188976377952756
        },
        {
          "duration": 0.033333374999998,
          "durationTicks": 12,
          "midi": 34,
          "name": "A#1",
          "ticks": 28680,
          "time": 79.66676625,
          "velocity": 0.8188976377952756
        },
        {
          "duration": 0.033333374999998,
          "durationTicks": 12,
          "midi": 27,
          "name": "D#1",
          "ticks": 28680,
          "time": 79.66676625,
          "velocity": 0.8188976377952756
        },
        {
          "duration": 0.033333374999998,
          "durationTicks": 12,
          "midi": 39,
          "name": "D#2",
          "ticks": 28680,
          "time": 79.66676625,
          "velocity": 0.8188976377952756
        },
        {
          "duration": 0.033333374999998,
          "durationTicks": 12,
          "midi": 56,
          "name": "G#3",
          "ticks": 28680,
          "time": 79.66676625,
          "velocity": 0.8188976377952756
        },
        {
          "duration": 0.033333374999998,
          "durationTicks": 12,
          "midi": 34,
          "name": "A#1",
          "ticks": 28752,
          "time": 79.8667665,
          "velocity": 0.8188976377952756
        },
        {
          "duration": 0.033333374999998,
          "durationTicks": 12,
          "midi": 27,
          "name": "D#1",
          "ticks": 28752,
          "time": 79.8667665,
          "velocity": 0.8188976377952756
        },
        {
          "duration": 0.033333374999998,
          "durationTicks": 12,
          "midi": 39,
          "name": "D#2",
          "ticks": 28752,
          "time": 79.8667665,
          "velocity": 0.8188976377952756
        },
        {
          "duration": 0.033333374999998,
          "durationTicks": 12,
          "midi": 56,
          "name": "G#3",
          "ticks": 28752,
          "time": 79.8667665,
          "velocity": 0.8188976377952756
        },
        {
          "duration": 0.033333374999998,
          "durationTicks": 12,
          "midi": 34,
          "name": "A#1",
          "ticks": 28800,
          "time": 80.0001,
          "velocity": 0.8188976377952756
        },
        {
          "duration": 0.033333374999998,
          "durationTicks": 12,
          "midi": 27,
          "name": "D#1",
          "ticks": 28800,
          "time": 80.0001,
          "velocity": 0.8188976377952756
        },
        {
          "duration": 0.033333374999998,
          "durationTicks": 12,
          "midi": 56,
          "name": "G#3",
          "ticks": 28800,
          "time": 80.0001,
          "velocity": 0.8188976377952756
        },
        {
          "duration": 0.033333374999998,
          "durationTicks": 12,
          "midi": 39,
          "name": "D#2",
          "ticks": 28800,
          "time": 80.0001,
          "velocity": 0.8188976377952756
        },
        {
          "duration": 0.033333374999998,
          "durationTicks": 12,
          "midi": 34,
          "name": "A#1",
          "ticks": 28896,
          "time": 80.266767,
          "velocity": 0.8188976377952756
        },
        {
          "duration": 0.033333374999998,
          "durationTicks": 12,
          "midi": 27,
          "name": "D#1",
          "ticks": 28896,
          "time": 80.266767,
          "velocity": 0.8188976377952756
        },
        {
          "duration": 0.033333374999998,
          "durationTicks": 12,
          "midi": 39,
          "name": "D#2",
          "ticks": 28896,
          "time": 80.266767,
          "velocity": 0.8188976377952756
        },
        {
          "duration": 0.033333374999998,
          "durationTicks": 12,
          "midi": 56,
          "name": "G#3",
          "ticks": 28896,
          "time": 80.266767,
          "velocity": 0.8188976377952756
        },
        {
          "duration": 0.033333374999998,
          "durationTicks": 12,
          "midi": 34,
          "name": "A#1",
          "ticks": 28944,
          "time": 80.4001005,
          "velocity": 0.8188976377952756
        },
        {
          "duration": 0.033333374999998,
          "durationTicks": 12,
          "midi": 27,
          "name": "D#1",
          "ticks": 28944,
          "time": 80.4001005,
          "velocity": 0.8188976377952756
        },
        {
          "duration": 0.033333374999998,
          "durationTicks": 12,
          "midi": 56,
          "name": "G#3",
          "ticks": 28944,
          "time": 80.4001005,
          "velocity": 0.8188976377952756
        },
        {
          "duration": 0.033333374999998,
          "durationTicks": 12,
          "midi": 39,
          "name": "D#2",
          "ticks": 28944,
          "time": 80.4001005,
          "velocity": 0.8188976377952756
        },
        {
          "duration": 0.033333374999998,
          "durationTicks": 12,
          "midi": 34,
          "name": "A#1",
          "ticks": 28992,
          "time": 80.533434,
          "velocity": 0.8188976377952756
        },
        {
          "duration": 0.033333374999998,
          "durationTicks": 12,
          "midi": 27,
          "name": "D#1",
          "ticks": 28992,
          "time": 80.533434,
          "velocity": 0.8188976377952756
        },
        {
          "duration": 0.033333374999998,
          "durationTicks": 12,
          "midi": 39,
          "name": "D#2",
          "ticks": 28992,
          "time": 80.533434,
          "velocity": 0.8188976377952756
        },
        {
          "duration": 0.033333374999998,
          "durationTicks": 12,
          "midi": 56,
          "name": "G#3",
          "ticks": 28992,
          "time": 80.533434,
          "velocity": 0.8188976377952756
        },
        {
          "duration": 0.033333374999998,
          "durationTicks": 12,
          "midi": 34,
          "name": "A#1",
          "ticks": 29040,
          "time": 80.66676749999999,
          "velocity": 0.8188976377952756
        },
        {
          "duration": 0.033333374999998,
          "durationTicks": 12,
          "midi": 56,
          "name": "G#3",
          "ticks": 29040,
          "time": 80.66676749999999,
          "velocity": 0.8188976377952756
        },
        {
          "duration": 0.033333374999998,
          "durationTicks": 12,
          "midi": 39,
          "name": "D#2",
          "ticks": 29040,
          "time": 80.66676749999999,
          "velocity": 0.8188976377952756
        },
        {
          "duration": 0.033333374999998,
          "durationTicks": 12,
          "midi": 27,
          "name": "D#1",
          "ticks": 29040,
          "time": 80.66676749999999,
          "velocity": 0.8188976377952756
        },
        {
          "duration": 0.033333374999998,
          "durationTicks": 12,
          "midi": 34,
          "name": "A#1",
          "ticks": 29064,
          "time": 80.73343425,
          "velocity": 0.8188976377952756
        },
        {
          "duration": 0.033333374999998,
          "durationTicks": 12,
          "midi": 39,
          "name": "D#2",
          "ticks": 29064,
          "time": 80.73343425,
          "velocity": 0.8188976377952756
        },
        {
          "duration": 0.033333374999998,
          "durationTicks": 12,
          "midi": 56,
          "name": "G#3",
          "ticks": 29064,
          "time": 80.73343425,
          "velocity": 0.8188976377952756
        },
        {
          "duration": 0.033333374999998,
          "durationTicks": 12,
          "midi": 27,
          "name": "D#1",
          "ticks": 29064,
          "time": 80.73343425,
          "velocity": 0.8188976377952756
        },
        {
          "duration": 0.033333374999998,
          "durationTicks": 12,
          "midi": 34,
          "name": "A#1",
          "ticks": 29088,
          "time": 80.800101,
          "velocity": 0.8188976377952756
        },
        {
          "duration": 0.033333374999998,
          "durationTicks": 12,
          "midi": 56,
          "name": "G#3",
          "ticks": 29088,
          "time": 80.800101,
          "velocity": 0.8188976377952756
        },
        {
          "duration": 0.033333374999998,
          "durationTicks": 12,
          "midi": 39,
          "name": "D#2",
          "ticks": 29088,
          "time": 80.800101,
          "velocity": 0.8188976377952756
        },
        {
          "duration": 0.033333374999998,
          "durationTicks": 12,
          "midi": 27,
          "name": "D#1",
          "ticks": 29088,
          "time": 80.800101,
          "velocity": 0.8188976377952756
        },
        {
          "duration": 0.033333374999998,
          "durationTicks": 12,
          "midi": 34,
          "name": "A#1",
          "ticks": 29112,
          "time": 80.86676775,
          "velocity": 0.8188976377952756
        },
        {
          "duration": 0.033333374999998,
          "durationTicks": 12,
          "midi": 39,
          "name": "D#2",
          "ticks": 29112,
          "time": 80.86676775,
          "velocity": 0.8188976377952756
        },
        {
          "duration": 0.033333374999998,
          "durationTicks": 12,
          "midi": 51,
          "name": "D#3",
          "ticks": 29112,
          "time": 80.86676775,
          "velocity": 0.8188976377952756
        },
        {
          "duration": 0.033333374999998,
          "durationTicks": 12,
          "midi": 27,
          "name": "D#1",
          "ticks": 29112,
          "time": 80.86676775,
          "velocity": 0.8188976377952756
        },
        {
          "duration": 0.03333337500001221,
          "durationTicks": 12,
          "midi": 34,
          "name": "A#1",
          "ticks": 29136,
          "time": 80.93343449999999,
          "velocity": 0.8188976377952756
        },
        {
          "duration": 0.03333337500001221,
          "durationTicks": 12,
          "midi": 56,
          "name": "G#3",
          "ticks": 29136,
          "time": 80.93343449999999,
          "velocity": 0.8188976377952756
        },
        {
          "duration": 0.03333337500001221,
          "durationTicks": 12,
          "midi": 39,
          "name": "D#2",
          "ticks": 29136,
          "time": 80.93343449999999,
          "velocity": 0.8188976377952756
        },
        {
          "duration": 0.03333337500001221,
          "durationTicks": 12,
          "midi": 27,
          "name": "D#1",
          "ticks": 29136,
          "time": 80.93343449999999,
          "velocity": 0.8188976377952756
        },
        {
          "duration": 0.033333374999998,
          "durationTicks": 12,
          "midi": 34,
          "name": "A#1",
          "ticks": 29160,
          "time": 81.00010125,
          "velocity": 0.8188976377952756
        },
        {
          "duration": 0.033333374999998,
          "durationTicks": 12,
          "midi": 57,
          "name": "A3",
          "ticks": 29160,
          "time": 81.00010125,
          "velocity": 0.8188976377952756
        },
        {
          "duration": 0.033333374999998,
          "durationTicks": 12,
          "midi": 39,
          "name": "D#2",
          "ticks": 29160,
          "time": 81.00010125,
          "velocity": 0.8188976377952756
        },
        {
          "duration": 0.033333374999998,
          "durationTicks": 12,
          "midi": 27,
          "name": "D#1",
          "ticks": 29160,
          "time": 81.00010125,
          "velocity": 0.8188976377952756
        },
        {
          "duration": 0.033333374999998,
          "durationTicks": 12,
          "midi": 34,
          "name": "A#1",
          "ticks": 29184,
          "time": 81.066768,
          "velocity": 0.8188976377952756
        },
        {
          "duration": 0.033333374999998,
          "durationTicks": 12,
          "midi": 39,
          "name": "D#2",
          "ticks": 29184,
          "time": 81.066768,
          "velocity": 0.8188976377952756
        },
        {
          "duration": 0.033333374999998,
          "durationTicks": 12,
          "midi": 58,
          "name": "A#3",
          "ticks": 29184,
          "time": 81.066768,
          "velocity": 0.8188976377952756
        },
        {
          "duration": 0.033333374999998,
          "durationTicks": 12,
          "midi": 27,
          "name": "D#1",
          "ticks": 29184,
          "time": 81.066768,
          "velocity": 0.8188976377952756
        },
        {
          "duration": 0.033333374999998,
          "durationTicks": 12,
          "midi": 34,
          "name": "A#1",
          "ticks": 29208,
          "time": 81.13343474999999,
          "velocity": 0.8188976377952756
        },
        {
          "duration": 0.033333374999998,
          "durationTicks": 12,
          "midi": 57,
          "name": "A3",
          "ticks": 29208,
          "time": 81.13343474999999,
          "velocity": 0.8188976377952756
        },
        {
          "duration": 0.033333374999998,
          "durationTicks": 12,
          "midi": 39,
          "name": "D#2",
          "ticks": 29208,
          "time": 81.13343474999999,
          "velocity": 0.8188976377952756
        },
        {
          "duration": 0.033333374999998,
          "durationTicks": 12,
          "midi": 27,
          "name": "D#1",
          "ticks": 29208,
          "time": 81.13343474999999,
          "velocity": 0.8188976377952756
        },
        {
          "duration": 0.033333374999998,
          "durationTicks": 12,
          "midi": 34,
          "name": "A#1",
          "ticks": 29232,
          "time": 81.2001015,
          "velocity": 0.8188976377952756
        },
        {
          "duration": 0.033333374999998,
          "durationTicks": 12,
          "midi": 39,
          "name": "D#2",
          "ticks": 29232,
          "time": 81.2001015,
          "velocity": 0.8188976377952756
        },
        {
          "duration": 0.033333374999998,
          "durationTicks": 12,
          "midi": 46,
          "name": "A#2",
          "ticks": 29232,
          "time": 81.2001015,
          "velocity": 0.8188976377952756
        },
        {
          "duration": 0.033333374999998,
          "durationTicks": 12,
          "midi": 27,
          "name": "D#1",
          "ticks": 29232,
          "time": 81.2001015,
          "velocity": 0.8188976377952756
        },
        {
          "duration": 0.033333374999998,
          "durationTicks": 12,
          "midi": 34,
          "name": "A#1",
          "ticks": 29256,
          "time": 81.26676825,
          "velocity": 0.8188976377952756
        },
        {
          "duration": 0.033333374999998,
          "durationTicks": 12,
          "midi": 45,
          "name": "A2",
          "ticks": 29256,
          "time": 81.26676825,
          "velocity": 0.8188976377952756
        },
        {
          "duration": 0.033333374999998,
          "durationTicks": 12,
          "midi": 39,
          "name": "D#2",
          "ticks": 29256,
          "time": 81.26676825,
          "velocity": 0.8188976377952756
        },
        {
          "duration": 0.033333374999998,
          "durationTicks": 12,
          "midi": 27,
          "name": "D#1",
          "ticks": 29256,
          "time": 81.26676825,
          "velocity": 0.8188976377952756
        },
        {
          "duration": 0.033333374999998,
          "durationTicks": 12,
          "midi": 34,
          "name": "A#1",
          "ticks": 29280,
          "time": 81.333435,
          "velocity": 0.8188976377952756
        },
        {
          "duration": 0.033333374999998,
          "durationTicks": 12,
          "midi": 39,
          "name": "D#2",
          "ticks": 29280,
          "time": 81.333435,
          "velocity": 0.8188976377952756
        },
        {
          "duration": 0.033333374999998,
          "durationTicks": 12,
          "midi": 59,
          "name": "B3",
          "ticks": 29280,
          "time": 81.333435,
          "velocity": 0.8188976377952756
        },
        {
          "duration": 0.033333374999998,
          "durationTicks": 12,
          "midi": 27,
          "name": "D#1",
          "ticks": 29280,
          "time": 81.333435,
          "velocity": 0.8188976377952756
        },
        {
          "duration": 0.03333337500001221,
          "durationTicks": 12,
          "midi": 34,
          "name": "A#1",
          "ticks": 29304,
          "time": 81.40010174999999,
          "velocity": 0.8188976377952756
        },
        {
          "duration": 0.03333337500001221,
          "durationTicks": 12,
          "midi": 39,
          "name": "D#2",
          "ticks": 29304,
          "time": 81.40010174999999,
          "velocity": 0.8188976377952756
        },
        {
          "duration": 0.03333337500001221,
          "durationTicks": 12,
          "midi": 58,
          "name": "A#3",
          "ticks": 29304,
          "time": 81.40010174999999,
          "velocity": 0.8188976377952756
        },
        {
          "duration": 0.03333337500001221,
          "durationTicks": 12,
          "midi": 27,
          "name": "D#1",
          "ticks": 29304,
          "time": 81.40010174999999,
          "velocity": 0.8188976377952756
        },
        {
          "duration": 0.033333374999998,
          "durationTicks": 12,
          "midi": 34,
          "name": "A#1",
          "ticks": 29328,
          "time": 81.4667685,
          "velocity": 0.8188976377952756
        },
        {
          "duration": 0.033333374999998,
          "durationTicks": 12,
          "midi": 47,
          "name": "B2",
          "ticks": 29328,
          "time": 81.4667685,
          "velocity": 0.8188976377952756
        },
        {
          "duration": 0.033333374999998,
          "durationTicks": 12,
          "midi": 39,
          "name": "D#2",
          "ticks": 29328,
          "time": 81.4667685,
          "velocity": 0.8188976377952756
        },
        {
          "duration": 0.033333374999998,
          "durationTicks": 12,
          "midi": 27,
          "name": "D#1",
          "ticks": 29328,
          "time": 81.4667685,
          "velocity": 0.8188976377952756
        },
        {
          "duration": 0.033333374999998,
          "durationTicks": 12,
          "midi": 34,
          "name": "A#1",
          "ticks": 29352,
          "time": 81.53343525,
          "velocity": 0.8188976377952756
        },
        {
          "duration": 0.033333374999998,
          "durationTicks": 12,
          "midi": 39,
          "name": "D#2",
          "ticks": 29352,
          "time": 81.53343525,
          "velocity": 0.8188976377952756
        },
        {
          "duration": 0.033333374999998,
          "durationTicks": 12,
          "midi": 46,
          "name": "A#2",
          "ticks": 29352,
          "time": 81.53343525,
          "velocity": 0.8188976377952756
        },
        {
          "duration": 0.033333374999998,
          "durationTicks": 12,
          "midi": 27,
          "name": "D#1",
          "ticks": 29352,
          "time": 81.53343525,
          "velocity": 0.8188976377952756
        },
        {
          "duration": 0.033333374999998,
          "durationTicks": 12,
          "midi": 34,
          "name": "A#1",
          "ticks": 29376,
          "time": 81.60010199999999,
          "velocity": 0.8188976377952756
        },
        {
          "duration": 0.033333374999998,
          "durationTicks": 12,
          "midi": 27,
          "name": "D#1",
          "ticks": 29376,
          "time": 81.60010199999999,
          "velocity": 0.8188976377952756
        },
        {
          "duration": 0.033333374999998,
          "durationTicks": 12,
          "midi": 39,
          "name": "D#2",
          "ticks": 29376,
          "time": 81.60010199999999,
          "velocity": 0.8188976377952756
        },
        {
          "duration": 0.033333374999998,
          "durationTicks": 12,
          "midi": 56,
          "name": "G#3",
          "ticks": 29376,
          "time": 81.60010199999999,
          "velocity": 0.8188976377952756
        },
        {
          "duration": 0.03333337500001221,
          "durationTicks": 12,
          "midi": 34,
          "name": "A#1",
          "ticks": 29472,
          "time": 81.86676899999999,
          "velocity": 0.8188976377952756
        },
        {
          "duration": 0.03333337500001221,
          "durationTicks": 12,
          "midi": 56,
          "name": "G#3",
          "ticks": 29472,
          "time": 81.86676899999999,
          "velocity": 0.8188976377952756
        },
        {
          "duration": 0.03333337500001221,
          "durationTicks": 12,
          "midi": 39,
          "name": "D#2",
          "ticks": 29472,
          "time": 81.86676899999999,
          "velocity": 0.8188976377952756
        },
        {
          "duration": 0.03333337500001221,
          "durationTicks": 12,
          "midi": 27,
          "name": "D#1",
          "ticks": 29472,
          "time": 81.86676899999999,
          "velocity": 0.8188976377952756
        },
        {
          "duration": 0.033333374999998,
          "durationTicks": 12,
          "midi": 34,
          "name": "A#1",
          "ticks": 29496,
          "time": 81.93343575,
          "velocity": 0.8188976377952756
        },
        {
          "duration": 0.033333374999998,
          "durationTicks": 12,
          "midi": 39,
          "name": "D#2",
          "ticks": 29496,
          "time": 81.93343575,
          "velocity": 0.8188976377952756
        },
        {
          "duration": 0.033333374999998,
          "durationTicks": 12,
          "midi": 56,
          "name": "G#3",
          "ticks": 29496,
          "time": 81.93343575,
          "velocity": 0.8188976377952756
        },
        {
          "duration": 0.033333374999998,
          "durationTicks": 12,
          "midi": 27,
          "name": "D#1",
          "ticks": 29496,
          "time": 81.93343575,
          "velocity": 0.8188976377952756
        },
        {
          "duration": 0.033333374999998,
          "durationTicks": 12,
          "midi": 34,
          "name": "A#1",
          "ticks": 29520,
          "time": 82.0001025,
          "velocity": 0.8188976377952756
        },
        {
          "duration": 0.033333374999998,
          "durationTicks": 12,
          "midi": 56,
          "name": "G#3",
          "ticks": 29520,
          "time": 82.0001025,
          "velocity": 0.8188976377952756
        },
        {
          "duration": 0.033333374999998,
          "durationTicks": 12,
          "midi": 39,
          "name": "D#2",
          "ticks": 29520,
          "time": 82.0001025,
          "velocity": 0.8188976377952756
        },
        {
          "duration": 0.033333374999998,
          "durationTicks": 12,
          "midi": 27,
          "name": "D#1",
          "ticks": 29520,
          "time": 82.0001025,
          "velocity": 0.8188976377952756
        },
        {
          "duration": 0.033333374999998,
          "durationTicks": 12,
          "midi": 34,
          "name": "A#1",
          "ticks": 29544,
          "time": 82.06676925,
          "velocity": 0.8188976377952756
        },
        {
          "duration": 0.033333374999998,
          "durationTicks": 12,
          "midi": 27,
          "name": "D#1",
          "ticks": 29544,
          "time": 82.06676925,
          "velocity": 0.8188976377952756
        },
        {
          "duration": 0.033333374999998,
          "durationTicks": 12,
          "midi": 56,
          "name": "G#3",
          "ticks": 29544,
          "time": 82.06676925,
          "velocity": 0.8188976377952756
        },
        {
          "duration": 0.033333374999998,
          "durationTicks": 12,
          "midi": 39,
          "name": "D#2",
          "ticks": 29544,
          "time": 82.06676925,
          "velocity": 0.8188976377952756
        },
        {
          "duration": 0.033333374999998,
          "durationTicks": 12,
          "midi": 34,
          "name": "A#1",
          "ticks": 29664,
          "time": 82.400103,
          "velocity": 0.8188976377952756
        },
        {
          "duration": 0.033333374999998,
          "durationTicks": 12,
          "midi": 57,
          "name": "A3",
          "ticks": 29664,
          "time": 82.400103,
          "velocity": 0.8188976377952756
        },
        {
          "duration": 0.033333374999998,
          "durationTicks": 12,
          "midi": 39,
          "name": "D#2",
          "ticks": 29664,
          "time": 82.400103,
          "velocity": 0.8188976377952756
        },
        {
          "duration": 0.033333374999998,
          "durationTicks": 12,
          "midi": 27,
          "name": "D#1",
          "ticks": 29664,
          "time": 82.400103,
          "velocity": 0.8188976377952756
        },
        {
          "duration": 0.033333374999998,
          "durationTicks": 12,
          "midi": 34,
          "name": "A#1",
          "ticks": 29688,
          "time": 82.46676975,
          "velocity": 0.8188976377952756
        },
        {
          "duration": 0.033333374999998,
          "durationTicks": 12,
          "midi": 57,
          "name": "A3",
          "ticks": 29688,
          "time": 82.46676975,
          "velocity": 0.8188976377952756
        },
        {
          "duration": 0.033333374999998,
          "durationTicks": 12,
          "midi": 39,
          "name": "D#2",
          "ticks": 29688,
          "time": 82.46676975,
          "velocity": 0.8188976377952756
        },
        {
          "duration": 0.033333374999998,
          "durationTicks": 12,
          "midi": 27,
          "name": "D#1",
          "ticks": 29688,
          "time": 82.46676975,
          "velocity": 0.8188976377952756
        },
        {
          "duration": 0.033333374999998,
          "durationTicks": 12,
          "midi": 34,
          "name": "A#1",
          "ticks": 29712,
          "time": 82.5334365,
          "velocity": 0.8188976377952756
        },
        {
          "duration": 0.033333374999998,
          "durationTicks": 12,
          "midi": 39,
          "name": "D#2",
          "ticks": 29712,
          "time": 82.5334365,
          "velocity": 0.8188976377952756
        },
        {
          "duration": 0.033333374999998,
          "durationTicks": 12,
          "midi": 57,
          "name": "A3",
          "ticks": 29712,
          "time": 82.5334365,
          "velocity": 0.8188976377952756
        },
        {
          "duration": 0.033333374999998,
          "durationTicks": 12,
          "midi": 27,
          "name": "D#1",
          "ticks": 29712,
          "time": 82.5334365,
          "velocity": 0.8188976377952756
        },
        {
          "duration": 0.03333337500001221,
          "durationTicks": 12,
          "midi": 34,
          "name": "A#1",
          "ticks": 29736,
          "time": 82.60010324999999,
          "velocity": 0.8188976377952756
        },
        {
          "duration": 0.03333337500001221,
          "durationTicks": 12,
          "midi": 27,
          "name": "D#1",
          "ticks": 29736,
          "time": 82.60010324999999,
          "velocity": 0.8188976377952756
        },
        {
          "duration": 0.03333337500001221,
          "durationTicks": 12,
          "midi": 39,
          "name": "D#2",
          "ticks": 29736,
          "time": 82.60010324999999,
          "velocity": 0.8188976377952756
        },
        {
          "duration": 0.03333337500001221,
          "durationTicks": 12,
          "midi": 57,
          "name": "A3",
          "ticks": 29736,
          "time": 82.60010324999999,
          "velocity": 0.8188976377952756
        },
        {
          "duration": 0.033333374999998,
          "durationTicks": 12,
          "midi": 34,
          "name": "A#1",
          "ticks": 29856,
          "time": 82.933437,
          "velocity": 0.8188976377952756
        },
        {
          "duration": 0.033333374999998,
          "durationTicks": 12,
          "midi": 58,
          "name": "A#3",
          "ticks": 29856,
          "time": 82.933437,
          "velocity": 0.8188976377952756
        },
        {
          "duration": 0.033333374999998,
          "durationTicks": 12,
          "midi": 39,
          "name": "D#2",
          "ticks": 29856,
          "time": 82.933437,
          "velocity": 0.8188976377952756
        },
        {
          "duration": 0.033333374999998,
          "durationTicks": 12,
          "midi": 27,
          "name": "D#1",
          "ticks": 29856,
          "time": 82.933437,
          "velocity": 0.8188976377952756
        },
        {
          "duration": 0.033333374999998,
          "durationTicks": 12,
          "midi": 34,
          "name": "A#1",
          "ticks": 29880,
          "time": 83.00010375,
          "velocity": 0.8188976377952756
        },
        {
          "duration": 0.033333374999998,
          "durationTicks": 12,
          "midi": 39,
          "name": "D#2",
          "ticks": 29880,
          "time": 83.00010375,
          "velocity": 0.8188976377952756
        },
        {
          "duration": 0.033333374999998,
          "durationTicks": 12,
          "midi": 58,
          "name": "A#3",
          "ticks": 29880,
          "time": 83.00010375,
          "velocity": 0.8188976377952756
        },
        {
          "duration": 0.033333374999998,
          "durationTicks": 12,
          "midi": 27,
          "name": "D#1",
          "ticks": 29880,
          "time": 83.00010375,
          "velocity": 0.8188976377952756
        },
        {
          "duration": 0.03333337500001221,
          "durationTicks": 12,
          "midi": 34,
          "name": "A#1",
          "ticks": 29904,
          "time": 83.06677049999999,
          "velocity": 0.8188976377952756
        },
        {
          "duration": 0.03333337500001221,
          "durationTicks": 12,
          "midi": 58,
          "name": "A#3",
          "ticks": 29904,
          "time": 83.06677049999999,
          "velocity": 0.8188976377952756
        },
        {
          "duration": 0.03333337500001221,
          "durationTicks": 12,
          "midi": 39,
          "name": "D#2",
          "ticks": 29904,
          "time": 83.06677049999999,
          "velocity": 0.8188976377952756
        },
        {
          "duration": 0.03333337500001221,
          "durationTicks": 12,
          "midi": 27,
          "name": "D#1",
          "ticks": 29904,
          "time": 83.06677049999999,
          "velocity": 0.8188976377952756
        },
        {
          "duration": 0.033333374999998,
          "durationTicks": 12,
          "midi": 34,
          "name": "A#1",
          "ticks": 29928,
          "time": 83.13343725,
          "velocity": 0.8188976377952756
        },
        {
          "duration": 0.033333374999998,
          "durationTicks": 12,
          "midi": 27,
          "name": "D#1",
          "ticks": 29928,
          "time": 83.13343725,
          "velocity": 0.8188976377952756
        },
        {
          "duration": 0.033333374999998,
          "durationTicks": 12,
          "midi": 39,
          "name": "D#2",
          "ticks": 29928,
          "time": 83.13343725,
          "velocity": 0.8188976377952756
        },
        {
          "duration": 0.033333374999998,
          "durationTicks": 12,
          "midi": 58,
          "name": "A#3",
          "ticks": 29928,
          "time": 83.13343725,
          "velocity": 0.8188976377952756
        },
        {
          "duration": 0.1333335000000062,
          "durationTicks": 48,
          "midi": 34,
          "name": "A#1",
          "ticks": 30240,
          "time": 84.00010499999999,
          "velocity": 0.8188976377952756
        },
        {
          "duration": 0.1333335000000062,
          "durationTicks": 48,
          "midi": 27,
          "name": "D#1",
          "ticks": 30240,
          "time": 84.00010499999999,
          "velocity": 0.8188976377952756
        },
        {
          "duration": 0.1333335000000062,
          "durationTicks": 48,
          "midi": 39,
          "name": "D#2",
          "ticks": 30240,
          "time": 84.00010499999999,
          "velocity": 0.8188976377952756
        },
        {
          "duration": 0.1333335000000062,
          "durationTicks": 48,
          "midi": 34,
          "name": "A#1",
          "ticks": 30384,
          "time": 84.4001055,
          "velocity": 0.8188976377952756
        },
        {
          "duration": 0.1333335000000062,
          "durationTicks": 48,
          "midi": 27,
          "name": "D#1",
          "ticks": 30384,
          "time": 84.4001055,
          "velocity": 0.8188976377952756
        },
        {
          "duration": 0.1333335000000062,
          "durationTicks": 48,
          "midi": 39,
          "name": "D#2",
          "ticks": 30384,
          "time": 84.4001055,
          "velocity": 0.8188976377952756
        },
        {
          "duration": 0.133333499999992,
          "durationTicks": 48,
          "midi": 34,
          "name": "A#1",
          "ticks": 30528,
          "time": 84.800106,
          "velocity": 0.8188976377952756
        },
        {
          "duration": 0.133333499999992,
          "durationTicks": 48,
          "midi": 27,
          "name": "D#1",
          "ticks": 30528,
          "time": 84.800106,
          "velocity": 0.8188976377952756
        },
        {
          "duration": 0.133333499999992,
          "durationTicks": 48,
          "midi": 39,
          "name": "D#2",
          "ticks": 30528,
          "time": 84.800106,
          "velocity": 0.8188976377952756
        },
        {
          "duration": 0.133333499999992,
          "durationTicks": 48,
          "midi": 34,
          "name": "A#1",
          "ticks": 30624,
          "time": 85.066773,
          "velocity": 0.8188976377952756
        },
        {
          "duration": 0.133333499999992,
          "durationTicks": 48,
          "midi": 27,
          "name": "D#1",
          "ticks": 30624,
          "time": 85.066773,
          "velocity": 0.8188976377952756
        },
        {
          "duration": 0.133333499999992,
          "durationTicks": 48,
          "midi": 39,
          "name": "D#2",
          "ticks": 30624,
          "time": 85.066773,
          "velocity": 0.8188976377952756
        },
        {
          "duration": 0.033333374999998,
          "durationTicks": 12,
          "midi": 34,
          "name": "A#1",
          "ticks": 30768,
          "time": 85.4667735,
          "velocity": 0.8188976377952756
        },
        {
          "duration": 0.033333374999998,
          "durationTicks": 12,
          "midi": 39,
          "name": "D#2",
          "ticks": 30768,
          "time": 85.4667735,
          "velocity": 0.8188976377952756
        },
        {
          "duration": 0.033333374999998,
          "durationTicks": 12,
          "midi": 27,
          "name": "D#1",
          "ticks": 30768,
          "time": 85.4667735,
          "velocity": 0.8188976377952756
        },
        {
          "duration": 0.033333374999998,
          "durationTicks": 12,
          "midi": 34,
          "name": "A#1",
          "ticks": 30792,
          "time": 85.53344025,
          "velocity": 0.8188976377952756
        },
        {
          "duration": 0.033333374999998,
          "durationTicks": 12,
          "midi": 27,
          "name": "D#1",
          "ticks": 30792,
          "time": 85.53344025,
          "velocity": 0.8188976377952756
        },
        {
          "duration": 0.033333374999998,
          "durationTicks": 12,
          "midi": 39,
          "name": "D#2",
          "ticks": 30792,
          "time": 85.53344025,
          "velocity": 0.8188976377952756
        },
        {
          "duration": 0.03333337500001221,
          "durationTicks": 12,
          "midi": 34,
          "name": "A#1",
          "ticks": 31776,
          "time": 88.26677699999999,
          "velocity": 0.8188976377952756
        },
        {
          "duration": 0.03333337500001221,
          "durationTicks": 12,
          "midi": 27,
          "name": "D#1",
          "ticks": 31776,
          "time": 88.26677699999999,
          "velocity": 0.8188976377952756
        },
        {
          "duration": 0.03333337500001221,
          "durationTicks": 12,
          "midi": 39,
          "name": "D#2",
          "ticks": 31776,
          "time": 88.26677699999999,
          "velocity": 0.8188976377952756
        },
        {
          "duration": 0.033333374999998,
          "durationTicks": 12,
          "midi": 34,
          "name": "A#1",
          "ticks": 31920,
          "time": 88.6667775,
          "velocity": 0.8188976377952756
        },
        {
          "duration": 0.033333374999998,
          "durationTicks": 12,
          "midi": 27,
          "name": "D#1",
          "ticks": 31920,
          "time": 88.6667775,
          "velocity": 0.8188976377952756
        },
        {
          "duration": 0.033333374999998,
          "durationTicks": 12,
          "midi": 39,
          "name": "D#2",
          "ticks": 31920,
          "time": 88.6667775,
          "velocity": 0.8188976377952756
        },
        {
          "duration": 0.033333374999998,
          "durationTicks": 12,
          "midi": 34,
          "name": "A#1",
          "ticks": 32064,
          "time": 89.066778,
          "velocity": 0.8188976377952756
        },
        {
          "duration": 0.033333374999998,
          "durationTicks": 12,
          "midi": 27,
          "name": "D#1",
          "ticks": 32064,
          "time": 89.066778,
          "velocity": 0.8188976377952756
        },
        {
          "duration": 0.033333374999998,
          "durationTicks": 12,
          "midi": 39,
          "name": "D#2",
          "ticks": 32064,
          "time": 89.066778,
          "velocity": 0.8188976377952756
        },
        {
          "duration": 0.033333374999998,
          "durationTicks": 12,
          "midi": 34,
          "name": "A#1",
          "ticks": 32160,
          "time": 89.333445,
          "velocity": 0.8188976377952756
        },
        {
          "duration": 0.033333374999998,
          "durationTicks": 12,
          "midi": 27,
          "name": "D#1",
          "ticks": 32160,
          "time": 89.333445,
          "velocity": 0.8188976377952756
        },
        {
          "duration": 0.033333374999998,
          "durationTicks": 12,
          "midi": 39,
          "name": "D#2",
          "ticks": 32160,
          "time": 89.333445,
          "velocity": 0.8188976377952756
        },
        {
          "duration": 0.033333374999998,
          "durationTicks": 12,
          "midi": 34,
          "name": "A#1",
          "ticks": 32304,
          "time": 89.7334455,
          "velocity": 0.8188976377952756
        },
        {
          "duration": 0.033333374999998,
          "durationTicks": 12,
          "midi": 39,
          "name": "D#2",
          "ticks": 32304,
          "time": 89.7334455,
          "velocity": 0.8188976377952756
        },
        {
          "duration": 0.033333374999998,
          "durationTicks": 12,
          "midi": 27,
          "name": "D#1",
          "ticks": 32304,
          "time": 89.7334455,
          "velocity": 0.8188976377952756
        },
        {
          "duration": 0.033333374999998,
          "durationTicks": 12,
          "midi": 34,
          "name": "A#1",
          "ticks": 32328,
          "time": 89.80011225,
          "velocity": 0.8188976377952756
        },
        {
          "duration": 0.033333374999998,
          "durationTicks": 12,
          "midi": 27,
          "name": "D#1",
          "ticks": 32328,
          "time": 89.80011225,
          "velocity": 0.8188976377952756
        },
        {
          "duration": 0.033333374999998,
          "durationTicks": 12,
          "midi": 39,
          "name": "D#2",
          "ticks": 32328,
          "time": 89.80011225,
          "velocity": 0.8188976377952756
        },
        {
          "duration": 0.03333337499998379,
          "durationTicks": 12,
          "midi": 38,
          "name": "D2",
          "ticks": 72960,
          "time": 202.66692,
          "velocity": 0.7716535433070866
        },
        {
          "duration": 0.03333337499998379,
          "durationTicks": 12,
          "midi": 26,
          "name": "D1",
          "ticks": 72960,
          "time": 202.66692,
          "velocity": 0.7716535433070866
        },
        {
          "duration": 0.03333337499998379,
          "durationTicks": 12,
          "midi": 33,
          "name": "A1",
          "ticks": 72960,
          "time": 202.66692,
          "velocity": 0.7716535433070866
        },
        {
          "duration": 0.03333337500001221,
          "durationTicks": 12,
          "midi": 38,
          "name": "D2",
          "ticks": 73056,
          "time": 202.933587,
          "velocity": 0.7716535433070866
        },
        {
          "duration": 0.03333337500001221,
          "durationTicks": 12,
          "midi": 26,
          "name": "D1",
          "ticks": 73056,
          "time": 202.933587,
          "velocity": 0.7716535433070866
        },
        {
          "duration": 0.03333337500001221,
          "durationTicks": 12,
          "midi": 33,
          "name": "A1",
          "ticks": 73056,
          "time": 202.933587,
          "velocity": 0.7716535433070866
        },
        {
          "duration": 0.03333337499998379,
          "durationTicks": 12,
          "midi": 38,
          "name": "D2",
          "ticks": 73152,
          "time": 203.200254,
          "velocity": 0.7716535433070866
        },
        {
          "duration": 0.03333337499998379,
          "durationTicks": 12,
          "midi": 33,
          "name": "A1",
          "ticks": 73152,
          "time": 203.200254,
          "velocity": 0.7716535433070866
        },
        {
          "duration": 0.03333337499998379,
          "durationTicks": 12,
          "midi": 26,
          "name": "D1",
          "ticks": 73152,
          "time": 203.200254,
          "velocity": 0.7716535433070866
        },
        {
          "duration": 0.03333337500001221,
          "durationTicks": 12,
          "midi": 38,
          "name": "D2",
          "ticks": 73248,
          "time": 203.46692099999999,
          "velocity": 0.7716535433070866
        },
        {
          "duration": 0.03333337500001221,
          "durationTicks": 12,
          "midi": 26,
          "name": "D1",
          "ticks": 73248,
          "time": 203.46692099999999,
          "velocity": 0.7716535433070866
        },
        {
          "duration": 0.03333337500001221,
          "durationTicks": 12,
          "midi": 33,
          "name": "A1",
          "ticks": 73248,
          "time": 203.46692099999999,
          "velocity": 0.7716535433070866
        },
        {
          "duration": 0.03333337499998379,
          "durationTicks": 12,
          "midi": 38,
          "name": "D2",
          "ticks": 73344,
          "time": 203.733588,
          "velocity": 0.7716535433070866
        },
        {
          "duration": 0.03333337499998379,
          "durationTicks": 12,
          "midi": 26,
          "name": "D1",
          "ticks": 73344,
          "time": 203.733588,
          "velocity": 0.7716535433070866
        },
        {
          "duration": 0.03333337499998379,
          "durationTicks": 12,
          "midi": 33,
          "name": "A1",
          "ticks": 73344,
          "time": 203.733588,
          "velocity": 0.7716535433070866
        },
        {
          "duration": 0.03333337500001221,
          "durationTicks": 12,
          "midi": 38,
          "name": "D2",
          "ticks": 73440,
          "time": 204.00025499999998,
          "velocity": 0.7716535433070866
        },
        {
          "duration": 0.03333337500001221,
          "durationTicks": 12,
          "midi": 26,
          "name": "D1",
          "ticks": 73440,
          "time": 204.00025499999998,
          "velocity": 0.7716535433070866
        },
        {
          "duration": 0.03333337500001221,
          "durationTicks": 12,
          "midi": 33,
          "name": "A1",
          "ticks": 73440,
          "time": 204.00025499999998,
          "velocity": 0.7716535433070866
        },
        {
          "duration": 0.03333337499998379,
          "durationTicks": 12,
          "midi": 38,
          "name": "D2",
          "ticks": 73536,
          "time": 204.266922,
          "velocity": 0.7716535433070866
        },
        {
          "duration": 0.03333337499998379,
          "durationTicks": 12,
          "midi": 26,
          "name": "D1",
          "ticks": 73536,
          "time": 204.266922,
          "velocity": 0.7716535433070866
        },
        {
          "duration": 0.03333337499998379,
          "durationTicks": 12,
          "midi": 33,
          "name": "A1",
          "ticks": 73536,
          "time": 204.266922,
          "velocity": 0.7716535433070866
        },
        {
          "duration": 0.03333337500001221,
          "durationTicks": 12,
          "midi": 38,
          "name": "D2",
          "ticks": 73632,
          "time": 204.53358899999998,
          "velocity": 0.7716535433070866
        },
        {
          "duration": 0.03333337500001221,
          "durationTicks": 12,
          "midi": 26,
          "name": "D1",
          "ticks": 73632,
          "time": 204.53358899999998,
          "velocity": 0.7716535433070866
        },
        {
          "duration": 0.03333337500001221,
          "durationTicks": 12,
          "midi": 33,
          "name": "A1",
          "ticks": 73632,
          "time": 204.53358899999998,
          "velocity": 0.7716535433070866
        },
        {
          "duration": 0.03333337500001221,
          "durationTicks": 12,
          "midi": 38,
          "name": "D2",
          "ticks": 73728,
          "time": 204.800256,
          "velocity": 0.7716535433070866
        },
        {
          "duration": 0.03333337500001221,
          "durationTicks": 12,
          "midi": 33,
          "name": "A1",
          "ticks": 73728,
          "time": 204.800256,
          "velocity": 0.7716535433070866
        },
        {
          "duration": 0.03333337500001221,
          "durationTicks": 12,
          "midi": 26,
          "name": "D1",
          "ticks": 73728,
          "time": 204.800256,
          "velocity": 0.7716535433070866
        },
        {
          "duration": 0.03333337499998379,
          "durationTicks": 12,
          "midi": 38,
          "name": "D2",
          "ticks": 73824,
          "time": 205.066923,
          "velocity": 0.7716535433070866
        },
        {
          "duration": 0.03333337499998379,
          "durationTicks": 12,
          "midi": 26,
          "name": "D1",
          "ticks": 73824,
          "time": 205.066923,
          "velocity": 0.7716535433070866
        },
        {
          "duration": 0.03333337499998379,
          "durationTicks": 12,
          "midi": 33,
          "name": "A1",
          "ticks": 73824,
          "time": 205.066923,
          "velocity": 0.7716535433070866
        },
        {
          "duration": 0.03333337500001221,
          "durationTicks": 12,
          "midi": 38,
          "name": "D2",
          "ticks": 73920,
          "time": 205.33359,
          "velocity": 0.7716535433070866
        },
        {
          "duration": 0.03333337500001221,
          "durationTicks": 12,
          "midi": 33,
          "name": "A1",
          "ticks": 73920,
          "time": 205.33359,
          "velocity": 0.7716535433070866
        },
        {
          "duration": 0.03333337500001221,
          "durationTicks": 12,
          "midi": 26,
          "name": "D1",
          "ticks": 73920,
          "time": 205.33359,
          "velocity": 0.7716535433070866
        },
        {
          "duration": 0.03333337499998379,
          "durationTicks": 12,
          "midi": 33,
          "name": "A1",
          "ticks": 74016,
          "time": 205.600257,
          "velocity": 0.7716535433070866
        },
        {
          "duration": 0.03333337499998379,
          "durationTicks": 12,
          "midi": 26,
          "name": "D1",
          "ticks": 74016,
          "time": 205.600257,
          "velocity": 0.7716535433070866
        },
        {
          "duration": 0.03333337499998379,
          "durationTicks": 12,
          "midi": 38,
          "name": "D2",
          "ticks": 74016,
          "time": 205.600257,
          "velocity": 0.7716535433070866
        },
        {
          "duration": 0.03333337500001221,
          "durationTicks": 12,
          "midi": 26,
          "name": "D1",
          "ticks": 74112,
          "time": 205.86692399999998,
          "velocity": 0.7716535433070866
        },
        {
          "duration": 0.03333337500001221,
          "durationTicks": 12,
          "midi": 33,
          "name": "A1",
          "ticks": 74112,
          "time": 205.86692399999998,
          "velocity": 0.7716535433070866
        },
        {
          "duration": 0.03333337500001221,
          "durationTicks": 12,
          "midi": 38,
          "name": "D2",
          "ticks": 74112,
          "time": 205.86692399999998,
          "velocity": 0.7716535433070866
        },
        {
          "duration": 0.03333337499998379,
          "durationTicks": 12,
          "midi": 38,
          "name": "D2",
          "ticks": 74208,
          "time": 206.133591,
          "velocity": 0.7716535433070866
        },
        {
          "duration": 0.03333337499998379,
          "durationTicks": 12,
          "midi": 26,
          "name": "D1",
          "ticks": 74208,
          "time": 206.133591,
          "velocity": 0.7716535433070866
        },
        {
          "duration": 0.03333337499998379,
          "durationTicks": 12,
          "midi": 33,
          "name": "A1",
          "ticks": 74208,
          "time": 206.133591,
          "velocity": 0.7716535433070866
        },
        {
          "duration": 0.03333337500001221,
          "durationTicks": 12,
          "midi": 38,
          "name": "D2",
          "ticks": 74304,
          "time": 206.40025799999998,
          "velocity": 0.7716535433070866
        },
        {
          "duration": 0.03333337500001221,
          "durationTicks": 12,
          "midi": 33,
          "name": "A1",
          "ticks": 74304,
          "time": 206.40025799999998,
          "velocity": 0.7716535433070866
        },
        {
          "duration": 0.03333337500001221,
          "durationTicks": 12,
          "midi": 26,
          "name": "D1",
          "ticks": 74304,
          "time": 206.40025799999998,
          "velocity": 0.7716535433070866
        },
        {
          "duration": 0.03333337500001221,
          "durationTicks": 12,
          "midi": 38,
          "name": "D2",
          "ticks": 74400,
          "time": 206.666925,
          "velocity": 0.7716535433070866
        },
        {
          "duration": 0.03333337500001221,
          "durationTicks": 12,
          "midi": 26,
          "name": "D1",
          "ticks": 74400,
          "time": 206.666925,
          "velocity": 0.7716535433070866
        },
        {
          "duration": 0.03333337500001221,
          "durationTicks": 12,
          "midi": 33,
          "name": "A1",
          "ticks": 74400,
          "time": 206.666925,
          "velocity": 0.7716535433070866
        },
        {
          "duration": 0.03333337500001221,
          "durationTicks": 12,
          "midi": 38,
          "name": "D2",
          "ticks": 74496,
          "time": 206.93359199999998,
          "velocity": 0.7716535433070866
        },
        {
          "duration": 0.03333337500001221,
          "durationTicks": 12,
          "midi": 26,
          "name": "D1",
          "ticks": 74496,
          "time": 206.93359199999998,
          "velocity": 0.7716535433070866
        },
        {
          "duration": 0.03333337500001221,
          "durationTicks": 12,
          "midi": 38,
          "name": "D2",
          "ticks": 74592,
          "time": 207.200259,
          "velocity": 0.7716535433070866
        },
        {
          "duration": 0.03333337500001221,
          "durationTicks": 12,
          "midi": 33,
          "name": "A1",
          "ticks": 74592,
          "time": 207.200259,
          "velocity": 0.7716535433070866
        },
        {
          "duration": 0.03333337500001221,
          "durationTicks": 12,
          "midi": 26,
          "name": "D1",
          "ticks": 74592,
          "time": 207.200259,
          "velocity": 0.7716535433070866
        },
        {
          "duration": 0.03333337499998379,
          "durationTicks": 12,
          "midi": 38,
          "name": "D2",
          "ticks": 74688,
          "time": 207.466926,
          "velocity": 0.7716535433070866
        },
        {
          "duration": 0.03333337499998379,
          "durationTicks": 12,
          "midi": 33,
          "name": "A1",
          "ticks": 74688,
          "time": 207.466926,
          "velocity": 0.7716535433070866
        },
        {
          "duration": 0.03333337499998379,
          "durationTicks": 12,
          "midi": 26,
          "name": "D1",
          "ticks": 74688,
          "time": 207.466926,
          "velocity": 0.7716535433070866
        },
        {
          "duration": 0.03333337500001221,
          "durationTicks": 12,
          "midi": 38,
          "name": "D2",
          "ticks": 74784,
          "time": 207.73359299999998,
          "velocity": 0.7716535433070866
        },
        {
          "duration": 0.03333337500001221,
          "durationTicks": 12,
          "midi": 33,
          "name": "A1",
          "ticks": 74784,
          "time": 207.73359299999998,
          "velocity": 0.7716535433070866
        },
        {
          "duration": 0.03333337500001221,
          "durationTicks": 12,
          "midi": 26,
          "name": "D1",
          "ticks": 74784,
          "time": 207.73359299999998,
          "velocity": 0.7716535433070866
        },
        {
          "duration": 0.03333337499998379,
          "durationTicks": 12,
          "midi": 38,
          "name": "D2",
          "ticks": 74880,
          "time": 208.00026,
          "velocity": 0.7716535433070866
        },
        {
          "duration": 0.03333337499998379,
          "durationTicks": 12,
          "midi": 26,
          "name": "D1",
          "ticks": 74880,
          "time": 208.00026,
          "velocity": 0.7716535433070866
        },
        {
          "duration": 0.03333337499998379,
          "durationTicks": 12,
          "midi": 33,
          "name": "A1",
          "ticks": 74880,
          "time": 208.00026,
          "velocity": 0.7716535433070866
        },
        {
          "duration": 0.03333337500001221,
          "durationTicks": 12,
          "midi": 38,
          "name": "D2",
          "ticks": 74976,
          "time": 208.26692699999998,
          "velocity": 0.7716535433070866
        },
        {
          "duration": 0.03333337500001221,
          "durationTicks": 12,
          "midi": 26,
          "name": "D1",
          "ticks": 74976,
          "time": 208.26692699999998,
          "velocity": 0.7716535433070866
        },
        {
          "duration": 0.03333337500001221,
          "durationTicks": 12,
          "midi": 33,
          "name": "A1",
          "ticks": 74976,
          "time": 208.26692699999998,
          "velocity": 0.7716535433070866
        },
        {
          "duration": 0.03333337499998379,
          "durationTicks": 12,
          "midi": 38,
          "name": "D2",
          "ticks": 75072,
          "time": 208.533594,
          "velocity": 0.7716535433070866
        },
        {
          "duration": 0.03333337499998379,
          "durationTicks": 12,
          "midi": 33,
          "name": "A1",
          "ticks": 75072,
          "time": 208.533594,
          "velocity": 0.7716535433070866
        },
        {
          "duration": 0.03333337499998379,
          "durationTicks": 12,
          "midi": 26,
          "name": "D1",
          "ticks": 75072,
          "time": 208.533594,
          "velocity": 0.7716535433070866
        },
        {
          "duration": 0.03333337500001221,
          "durationTicks": 12,
          "midi": 38,
          "name": "D2",
          "ticks": 75168,
          "time": 208.80026099999998,
          "velocity": 0.7716535433070866
        },
        {
          "duration": 0.03333337500001221,
          "durationTicks": 12,
          "midi": 26,
          "name": "D1",
          "ticks": 75168,
          "time": 208.80026099999998,
          "velocity": 0.7716535433070866
        },
        {
          "duration": 0.03333337500001221,
          "durationTicks": 12,
          "midi": 33,
          "name": "A1",
          "ticks": 75168,
          "time": 208.80026099999998,
          "velocity": 0.7716535433070866
        },
        {
          "duration": 0.03333337500001221,
          "durationTicks": 12,
          "midi": 38,
          "name": "D2",
          "ticks": 75264,
          "time": 209.066928,
          "velocity": 0.7716535433070866
        },
        {
          "duration": 0.03333337500001221,
          "durationTicks": 12,
          "midi": 26,
          "name": "D1",
          "ticks": 75264,
          "time": 209.066928,
          "velocity": 0.7716535433070866
        },
        {
          "duration": 0.03333337500001221,
          "durationTicks": 12,
          "midi": 33,
          "name": "A1",
          "ticks": 75264,
          "time": 209.066928,
          "velocity": 0.7716535433070866
        },
        {
          "duration": 0.03333337499998379,
          "durationTicks": 12,
          "midi": 38,
          "name": "D2",
          "ticks": 75360,
          "time": 209.333595,
          "velocity": 0.7716535433070866
        },
        {
          "duration": 0.03333337499998379,
          "durationTicks": 12,
          "midi": 33,
          "name": "A1",
          "ticks": 75360,
          "time": 209.333595,
          "velocity": 0.7716535433070866
        },
        {
          "duration": 0.03333337499998379,
          "durationTicks": 12,
          "midi": 26,
          "name": "D1",
          "ticks": 75360,
          "time": 209.333595,
          "velocity": 0.7716535433070866
        },
        {
          "duration": 0.03333337500001221,
          "durationTicks": 12,
          "midi": 38,
          "name": "D2",
          "ticks": 75456,
          "time": 209.600262,
          "velocity": 0.7716535433070866
        },
        {
          "duration": 0.03333337500001221,
          "durationTicks": 12,
          "midi": 26,
          "name": "D1",
          "ticks": 75456,
          "time": 209.600262,
          "velocity": 0.7716535433070866
        },
        {
          "duration": 0.03333337500001221,
          "durationTicks": 12,
          "midi": 33,
          "name": "A1",
          "ticks": 75456,
          "time": 209.600262,
          "velocity": 0.7716535433070866
        },
        {
          "duration": 0.03333337499998379,
          "durationTicks": 12,
          "midi": 38,
          "name": "D2",
          "ticks": 75552,
          "time": 209.866929,
          "velocity": 0.7716535433070866
        },
        {
          "duration": 0.03333337499998379,
          "durationTicks": 12,
          "midi": 33,
          "name": "A1",
          "ticks": 75552,
          "time": 209.866929,
          "velocity": 0.7716535433070866
        },
        {
          "duration": 0.03333337499998379,
          "durationTicks": 12,
          "midi": 26,
          "name": "D1",
          "ticks": 75552,
          "time": 209.866929,
          "velocity": 0.7716535433070866
        },
        {
          "duration": 0.03333337500001221,
          "durationTicks": 12,
          "midi": 38,
          "name": "D2",
          "ticks": 75648,
          "time": 210.13359599999998,
          "velocity": 0.7716535433070866
        },
        {
          "duration": 0.03333337500001221,
          "durationTicks": 12,
          "midi": 33,
          "name": "A1",
          "ticks": 75648,
          "time": 210.13359599999998,
          "velocity": 0.7716535433070866
        },
        {
          "duration": 0.03333337500001221,
          "durationTicks": 12,
          "midi": 26,
          "name": "D1",
          "ticks": 75648,
          "time": 210.13359599999998,
          "velocity": 0.7716535433070866
        },
        {
          "duration": 0.03333337499998379,
          "durationTicks": 12,
          "midi": 38,
          "name": "D2",
          "ticks": 75696,
          "time": 210.2669295,
          "velocity": 0.7716535433070866
        },
        {
          "duration": 0.03333337499998379,
          "durationTicks": 12,
          "midi": 33,
          "name": "A1",
          "ticks": 75696,
          "time": 210.2669295,
          "velocity": 0.7716535433070866
        },
        {
          "duration": 0.03333337499998379,
          "durationTicks": 12,
          "midi": 26,
          "name": "D1",
          "ticks": 75696,
          "time": 210.2669295,
          "velocity": 0.7716535433070866
        },
        {
          "duration": 0.03333337499998379,
          "durationTicks": 12,
          "midi": 38,
          "name": "D2",
          "ticks": 75744,
          "time": 210.400263,
          "velocity": 0.7716535433070866
        },
        {
          "duration": 0.03333337499998379,
          "durationTicks": 12,
          "midi": 26,
          "name": "D1",
          "ticks": 75744,
          "time": 210.400263,
          "velocity": 0.7716535433070866
        },
        {
          "duration": 0.03333337499998379,
          "durationTicks": 12,
          "midi": 33,
          "name": "A1",
          "ticks": 75744,
          "time": 210.400263,
          "velocity": 0.7716535433070866
        },
        {
          "duration": 0.03333337500001221,
          "durationTicks": 12,
          "midi": 38,
          "name": "D2",
          "ticks": 75792,
          "time": 210.5335965,
          "velocity": 0.7716535433070866
        },
        {
          "duration": 0.03333337500001221,
          "durationTicks": 12,
          "midi": 26,
          "name": "D1",
          "ticks": 75792,
          "time": 210.5335965,
          "velocity": 0.7716535433070866
        },
        {
          "duration": 0.03333337500001221,
          "durationTicks": 12,
          "midi": 33,
          "name": "A1",
          "ticks": 75792,
          "time": 210.5335965,
          "velocity": 0.7716535433070866
        },
        {
          "duration": 0.03333337500001221,
          "durationTicks": 12,
          "midi": 38,
          "name": "D2",
          "ticks": 75840,
          "time": 210.66692999999998,
          "velocity": 0.7716535433070866
        },
        {
          "duration": 0.03333337500001221,
          "durationTicks": 12,
          "midi": 26,
          "name": "D1",
          "ticks": 75840,
          "time": 210.66692999999998,
          "velocity": 0.7716535433070866
        },
        {
          "duration": 0.03333337500001221,
          "durationTicks": 12,
          "midi": 33,
          "name": "A1",
          "ticks": 75840,
          "time": 210.66692999999998,
          "velocity": 0.7716535433070866
        },
        {
          "duration": 0.03333337499998379,
          "durationTicks": 12,
          "midi": 38,
          "name": "D2",
          "ticks": 75888,
          "time": 210.8002635,
          "velocity": 0.7716535433070866
        },
        {
          "duration": 0.03333337499998379,
          "durationTicks": 12,
          "midi": 26,
          "name": "D1",
          "ticks": 75888,
          "time": 210.8002635,
          "velocity": 0.7716535433070866
        },
        {
          "duration": 0.03333337499998379,
          "durationTicks": 12,
          "midi": 33,
          "name": "A1",
          "ticks": 75888,
          "time": 210.8002635,
          "velocity": 0.7716535433070866
        }
      ],
      "endOfTrackTicks": 82491
    }
  ]
}