{
  "header": {
    "keySignatures": [
      {
        "key": "C",
        "scale": "major",
        "ticks": 0
      }
    ],
    "meta": [],
    "name": "ÄÁÄÁÄ[ (General MIDI)",
    "ppq": 120,
    "tempos": [
      {
        "bpm": 200,
        "ticks": 0
      },
      {
        "bpm": 200,
        "ticks": 11040
      },
      {
        "bpm": 200,
        "ticks": 20640
      }
    ],
    "timeSignatures": [
      {
        "ticks": 0,
        "timeSignature": [
          4,
          4
        ],
        "measures": 0
      }
    ]
  },
  "tracks": [
    {
      "channel": 0,
      "controlChanges": {},
      "pitchBends": [],
      "instrument": {
        "family": "piano",
        "number": 0,
        "name": "acoustic grand piano"
      },
      "name": "Setup",
      "notes": [],
      "endOfTrackTicks": 480
    },
    {
      "channel": 0,
      "controlChanges": {
        "0": [
          {
            "number": 0,
            "ticks": 120,
            "time": 0.3,
            "value": 0
          }
        ],
        "32": [
          {
            "number": 32,
            "ticks": 121,
            "time": 0.3025,
            "value": 0
          }
        ],
        "91": [
          {
            "number": 91,
            "ticks": 0,
            "time": 0,
            "value": 0
          }
        ],
        "93": [
          {
            "number": 93,
            "ticks": 0,
            "time": 0,
            "value": 0
          }
        ]
      },
      "pitchBends": [],
      "instrument": {
        "family": "piano",
        "number": 0,
        "name": "acoustic grand piano"
      },
      "name": "",
      "notes": [],
      "endOfTrackTicks": 23940
    },
    {
      "channel": 1,
      "controlChanges": {
        "7": [
          {
            "number": 7,
            "ticks": 123,
            "time": 0.30749999999999994,
            "value": 0.31496062992125984
          }
        ],
        "10": [
          {
            "number": 10,
            "ticks": 123,
            "time": 0.30749999999999994,
            "value": 0.31496062992125984
          }
        ]
      },
      "pitchBends": [],
      "instrument": {
        "family": "synth pad",
        "number": 88,
        "name": "pad 1 (new age)"
      },
      "name": "",
      "notes": [
        {
          "duration": 0.9000000000000004,
          "durationTicks": 360,
          "midi": 67,
          "name": "G4",
          "ticks": 1440,
          "time": 3.5999999999999996,
          "velocity": 0.9448818897637795
        },
        {
          "duration": 0.14999999999999947,
          "durationTicks": 60,
          "midi": 62,
          "name": "D4",
          "ticks": 1980,
          "time": 4.95,
          "velocity": 0.9448818897637795
        },
        {
          "duration": 0.2999999999999998,
          "durationTicks": 120,
          "midi": 64,
          "name": "E4",
          "ticks": 2040,
          "time": 5.1,
          "velocity": 0.9448818897637795
        },
        {
          "duration": 0.3000000000000007,
          "durationTicks": 120,
          "midi": 67,
          "name": "G4",
          "ticks": 2160,
          "time": 5.3999999999999995,
          "velocity": 0.9448818897637795
        },
        {
          "duration": 0.14999999999999947,
          "durationTicks": 60,
          "midi": 64,
          "name": "E4",
          "ticks": 2280,
          "time": 5.7,
          "velocity": 0.9448818897637795
        },
        {
          "duration": 0.15000000000000036,
          "durationTicks": 60,
          "midi": 67,
          "name": "G4",
          "ticks": 2340,
          "time": 5.85,
          "velocity": 0.9448818897637795
        },
        {
          "duration": 0.2999999999999998,
          "durationTicks": 120,
          "midi": 69,
          "name": "A4",
          "ticks": 2400,
          "time": 6,
          "velocity": 0.9448818897637795
        },
        {
          "duration": 0.2999999999999998,
          "durationTicks": 120,
          "midi": 71,
          "name": "B4",
          "ticks": 2580,
          "time": 6.45,
          "velocity": 0.9448818897637795
        },
        {
          "duration": 0.2999999999999998,
          "durationTicks": 120,
          "midi": 67,
          "name": "G4",
          "ticks": 2760,
          "time": 6.8999999999999995,
          "velocity": 0.9448818897637795
        },
        {
          "duration": 0.3000000000000007,
          "durationTicks": 120,
          "midi": 69,
          "name": "A4",
          "ticks": 2880,
          "time": 7.199999999999999,
          "velocity": 0.9448818897637795
        },
        {
          "duration": 0.2999999999999998,
          "durationTicks": 120,
          "midi": 71,
          "name": "B4",
          "ticks": 3060,
          "time": 7.6499999999999995,
          "velocity": 0.9448818897637795
        },
        {
          "duration": 0.3000000000000007,
          "durationTicks": 120,
          "midi": 67,
          "name": "G4",
          "ticks": 3240,
          "time": 8.1,
          "velocity": 0.9448818897637795
        },
        {
          "duration": 0.8999999999999986,
          "durationTicks": 360,
          "midi": 67,
          "name": "G4",
          "ticks": 3360,
          "time": 8.4,
          "velocity": 0.9448818897637795
        },
        {
          "duration": 0.15000000000000036,
          "durationTicks": 60,
          "midi": 67,
          "name": "G4",
          "ticks": 3900,
          "time": 9.75,
          "velocity": 0.9448818897637795
        },
        {
          "duration": 0.29999999999999893,
          "durationTicks": 120,
          "midi": 64,
          "name": "E4",
          "ticks": 3960,
          "time": 9.9,
          "velocity": 0.9448818897637795
        },
        {
          "duration": 0.3000000000000007,
          "durationTicks": 120,
          "midi": 67,
          "name": "G4",
          "ticks": 4080,
          "time": 10.2,
          "velocity": 0.9448818897637795
        },
        {
          "duration": 0.29999999999999893,
          "durationTicks": 120,
          "midi": 64,
          "name": "E4",
          "ticks": 4200,
          "time": 10.5,
          "velocity": 0.9448818897637795
        },
        {
          "duration": 1.0500000000000007,
          "durationTicks": 420,
          "midi": 62,
          "name": "D4",
          "ticks": 4320,
          "time": 10.799999999999999,
          "velocity": 0.9448818897637795
        },
        {
          "duration": 0.8999999999999986,
          "durationTicks": 360,
          "midi": 67,
          "name": "G4",
          "ticks": 11040,
          "time": 27.599999999999998,
          "velocity": 0.9448818897637795
        },
        {
          "duration": 0.14999999999999858,
          "durationTicks": 60,
          "midi": 62,
          "name": "D4",
          "ticks": 11580,
          "time": 28.95,
          "velocity": 0.9448818897637795
        },
        {
          "duration": 0.3000000000000007,
          "durationTicks": 120,
          "midi": 64,
          "name": "E4",
          "ticks": 11640,
          "time": 29.099999999999998,
          "velocity": 0.9448818897637795
        },
        {
          "duration": 0.3000000000000007,
          "durationTicks": 120,
          "midi": 67,
          "name": "G4",
          "ticks": 11760,
          "time": 29.4,
          "velocity": 0.9448818897637795
        },
        {
          "duration": 0.14999999999999858,
          "durationTicks": 60,
          "midi": 64,
          "name": "E4",
          "ticks": 11880,
          "time": 29.7,
          "velocity": 0.9448818897637795
        },
        {
          "duration": 0.14999999999999858,
          "durationTicks": 60,
          "midi": 67,
          "name": "G4",
          "ticks": 11940,
          "time": 29.849999999999998,
          "velocity": 0.9448818897637795
        },
        {
          "duration": 0.3000000000000007,
          "durationTicks": 120,
          "midi": 69,
          "name": "A4",
          "ticks": 12000,
          "time": 29.999999999999996,
          "velocity": 0.9448818897637795
        },
        {
          "duration": 0.29999999999999716,
          "durationTicks": 120,
          "midi": 71,
          "name": "B4",
          "ticks": 12180,
          "time": 30.45,
          "velocity": 0.9448818897637795
        },
        {
          "duration": 0.29999999999999716,
          "durationTicks": 120,
          "midi": 67,
          "name": "G4",
          "ticks": 12360,
          "time": 30.9,
          "velocity": 0.9448818897637795
        },
        {
          "duration": 0.3000000000000007,
          "durationTicks": 120,
          "midi": 69,
          "name": "A4",
          "ticks": 12480,
          "time": 31.199999999999996,
          "velocity": 0.9448818897637795
        },
        {
          "duration": 0.29999999999999716,
          "durationTicks": 120,
          "midi": 71,
          "name": "B4",
          "ticks": 12660,
          "time": 31.65,
          "velocity": 0.9448818897637795
        },
        {
          "duration": 0.30000000000000426,
          "durationTicks": 120,
          "midi": 67,
          "name": "G4",
          "ticks": 12840,
          "time": 32.099999999999994,
          "velocity": 0.9448818897637795
        },
        {
          "duration": 0.8999999999999986,
          "durationTicks": 360,
          "midi": 67,
          "name": "G4",
          "ticks": 12960,
          "time": 32.4,
          "velocity": 0.9448818897637795
        },
        {
          "duration": 0.14999999999999858,
          "durationTicks": 60,
          "midi": 67,
          "name": "G4",
          "ticks": 13500,
          "time": 33.75,
          "velocity": 0.9448818897637795
        },
        {
          "duration": 0.29999999999999716,
          "durationTicks": 120,
          "midi": 64,
          "name": "E4",
          "ticks": 13560,
          "time": 33.9,
          "velocity": 0.9448818897637795
        },
        {
          "duration": 0.30000000000000426,
          "durationTicks": 120,
          "midi": 67,
          "name": "G4",
          "ticks": 13680,
          "time": 34.199999999999996,
          "velocity": 0.9448818897637795
        },
        {
          "duration": 0.29999999999999716,
          "durationTicks": 120,
          "midi": 64,
          "name": "E4",
          "ticks": 13800,
          "time": 34.5,
          "velocity": 0.9448818897637795
        },
        {
          "duration": 1.0499999999999972,
          "durationTicks": 420,
          "midi": 62,
          "name": "D4",
          "ticks": 13920,
          "time": 34.8,
          "velocity": 0.9448818897637795
        },
        {
          "duration": 0.8999999999999986,
          "durationTicks": 360,
          "midi": 67,
          "name": "G4",
          "ticks": 20640,
          "time": 51.599999999999994,
          "velocity": 0.9448818897637795
        },
        {
          "duration": 0.14999999999999858,
          "durationTicks": 60,
          "midi": 62,
          "name": "D4",
          "ticks": 21180,
          "time": 52.949999999999996,
          "velocity": 0.9448818897637795
        },
        {
          "duration": 0.29999999999999716,
          "durationTicks": 120,
          "midi": 64,
          "name": "E4",
          "ticks": 21240,
          "time": 53.099999999999994,
          "velocity": 0.9448818897637795
        },
        {
          "duration": 0.30000000000000426,
          "durationTicks": 120,
          "midi": 67,
          "name": "G4",
          "ticks": 21360,
          "time": 53.39999999999999,
          "velocity": 0.9448818897637795
        },
        {
          "duration": 0.14999999999999858,
          "durationTicks": 60,
          "midi": 64,
          "name": "E4",
          "ticks": 21480,
          "time": 53.699999999999996,
          "velocity": 0.9448818897637795
        },
        {
          "duration": 0.14999999999999858,
          "durationTicks": 60,
          "midi": 67,
          "name": "G4",
          "ticks": 21540,
          "time": 53.849999999999994,
          "velocity": 0.9448818897637795
        },
        {
          "duration": 0.30000000000000426,
          "durationTicks": 120,
          "midi": 69,
          "name": "A4",
          "ticks": 21600,
          "time": 53.99999999999999,
          "velocity": 0.9448818897637795
        },
        {
          "duration": 0.29999999999999716,
          "durationTicks": 120,
          "midi": 71,
          "name": "B4",
          "ticks": 21780,
          "time": 54.449999999999996,
          "velocity": 0.9448818897637795
        },
        {
          "duration": 0.30000000000000426,
          "durationTicks": 120,
          "midi": 67,
          "name": "G4",
          "ticks": 21960,
          "time": 54.89999999999999,
          "velocity": 0.9448818897637795
        },
        {
          "duration": 0.29999999999999716,
          "durationTicks": 120,
          "midi": 69,
          "name": "A4",
          "ticks": 22080,
          "time": 55.199999999999996,
          "velocity": 0.9448818897637795
        },
        {
          "duration": 0.30000000000000426,
          "durationTicks": 120,
          "midi": 71,
          "name": "B4",
          "ticks": 22260,
          "time": 55.64999999999999,
          "velocity": 0.9448818897637795
        },
        {
          "duration": 0.29999999999999716,
          "durationTicks": 120,
          "midi": 67,
          "name": "G4",
          "ticks": 22440,
          "time": 56.099999999999994,
          "velocity": 0.9448818897637795
        },
        {
          "duration": 0.9000000000000057,
          "durationTicks": 360,
          "midi": 67,
          "name": "G4",
          "ticks": 22560,
          "time": 56.39999999999999,
          "velocity": 0.9448818897637795
        },
        {
          "duration": 0.14999999999999858,
          "durationTicks": 60,
          "midi": 67,
          "name": "G4",
          "ticks": 23100,
          "time": 57.74999999999999,
          "velocity": 0.9448818897637795
        },
        {
          "duration": 0.30000000000000426,
          "durationTicks": 120,
          "midi": 64,
          "name": "E4",
          "ticks": 23160,
          "time": 57.89999999999999,
          "velocity": 0.9448818897637795
        },
        {
          "duration": 0.29999999999999716,
          "durationTicks": 120,
          "midi": 67,
          "name": "G4",
          "ticks": 23280,
          "time": 58.199999999999996,
          "velocity": 0.9448818897637795
        },
        {
          "duration": 0.30000000000000426,
          "durationTicks": 120,
          "midi": 64,
          "name": "E4",
          "ticks": 23400,
          "time": 58.49999999999999,
          "velocity": 0.9448818897637795
        },
        {
          "duration": 1.0499999999999972,
          "durationTicks": 420,
          "midi": 62,
          "name": "D4",
          "ticks": 23520,
          "time": 58.8,
          "velocity": 0.9448818897637795
        }
      ]
    },
    {
      "channel": 0,
      "controlChanges": {
        "0": [
          {
            "number": 0,
            "ticks": 125,
            "time": 0.3125,
            "value": 0
          }
        ],
        "32": [
          {
            "number": 32,
            "ticks": 126,
            "time": 0.315,
            "value": 0
          }
        ],
        "91": [
          {
            "number": 91,
            "ticks": 0,
            "time": 0,
            "value": 0
          }
        ],
        "93": [
          {
            "number": 93,
            "ticks": 0,
            "time": 0,
            "value": 0
          }
        ]
      },
      "pitchBends": [],
      "instrument": {
        "family": "piano",
        "number": 0,
        "name": "acoustic grand piano"
      },
      "name": "",
      "notes": [],
      "endOfTrackTicks": 23940
    },
    {
      "channel": 2,
      "controlChanges": {
        "7": [
          {
            "number": 7,
            "ticks": 128,
            "time": 0.32,
            "value": 0.1889763779527559
          }
        ],
        "10": [
          {
            "number": 10,
            "ticks": 128,
            "time": 0.32,
            "value": 0.6929133858267716
          }
        ]
      },
      "pitchBends": [],
      "instrument": {
        "family": "synth effects",
        "number": 98,
        "name": "fx 3 (crystal)"
      },
      "name": "",
      "notes": [
        {
          "duration": 0.9000000000000004,
          "durationTicks": 360,
          "midi": 91,
          "name": "G6",
          "ticks": 1440,
          "time": 3.5999999999999996,
          "velocity": 0.9448818897637795
        },
        {
          "duration": 0.14999999999999947,
          "durationTicks": 60,
          "midi": 86,
          "name": "D6",
          "ticks": 1980,
          "time": 4.95,
          "velocity": 0.9448818897637795
        },
        {
          "duration": 0.2999999999999998,
          "durationTicks": 120,
          "midi": 88,
          "name": "E6",
          "ticks": 2040,
          "time": 5.1,
          "velocity": 0.9448818897637795
        },
        {
          "duration": 0.3000000000000007,
          "durationTicks": 120,
          "midi": 91,
          "name": "G6",
          "ticks": 2160,
          "time": 5.3999999999999995,
          "velocity": 0.9448818897637795
        },
        {
          "duration": 0.14999999999999947,
          "durationTicks": 60,
          "midi": 88,
          "name": "E6",
          "ticks": 2280,
          "time": 5.7,
          "velocity": 0.9448818897637795
        },
        {
          "duration": 0.15000000000000036,
          "durationTicks": 60,
          "midi": 91,
          "name": "G6",
          "ticks": 2340,
          "time": 5.85,
          "velocity": 0.9448818897637795
        },
        {
          "duration": 0.2999999999999998,
          "durationTicks": 120,
          "midi": 93,
          "name": "A6",
          "ticks": 2400,
          "time": 6,
          "velocity": 0.9448818897637795
        },
        {
          "duration": 0.2999999999999998,
          "durationTicks": 120,
          "midi": 95,
          "name": "B6",
          "ticks": 2580,
          "time": 6.45,
          "velocity": 0.9448818897637795
        },
        {
          "duration": 0.2999999999999998,
          "durationTicks": 120,
          "midi": 91,
          "name": "G6",
          "ticks": 2760,
          "time": 6.8999999999999995,
          "velocity": 0.9448818897637795
        },
        {
          "duration": 0.3000000000000007,
          "durationTicks": 120,
          "midi": 93,
          "name": "A6",
          "ticks": 2880,
          "time": 7.199999999999999,
          "velocity": 0.9448818897637795
        },
        {
          "duration": 0.2999999999999998,
          "durationTicks": 120,
          "midi": 95,
          "name": "B6",
          "ticks": 3060,
          "time": 7.6499999999999995,
          "velocity": 0.9448818897637795
        },
        {
          "duration": 0.3000000000000007,
          "durationTicks": 120,
          "midi": 91,
          "name": "G6",
          "ticks": 3240,
          "time": 8.1,
          "velocity": 0.9448818897637795
        },
        {
          "duration": 0.8999999999999986,
          "durationTicks": 360,
          "midi": 98,
          "name": "D7",
          "ticks": 3360,
          "time": 8.4,
          "velocity": 0.9448818897637795
        },
        {
          "duration": 0.15000000000000036,
          "durationTicks": 60,
          "midi": 96,
          "name": "C7",
          "ticks": 3900,
          "time": 9.75,
          "velocity": 0.9448818897637795
        },
        {
          "duration": 0.29999999999999893,
          "durationTicks": 120,
          "midi": 95,
          "name": "B6",
          "ticks": 3960,
          "time": 9.9,
          "velocity": 0.9448818897637795
        },
        {
          "duration": 0.3000000000000007,
          "durationTicks": 120,
          "midi": 98,
          "name": "D7",
          "ticks": 4080,
          "time": 10.2,
          "velocity": 0.9448818897637795
        },
        {
          "duration": 0.15000000000000036,
          "durationTicks": 60,
          "midi": 96,
          "name": "C7",
          "ticks": 4200,
          "time": 10.5,
          "velocity": 0.9448818897637795
        },
        {
          "duration": 0.14999999999999858,
          "durationTicks": 60,
          "midi": 95,
          "name": "B6",
          "ticks": 4260,
          "time": 10.65,
          "velocity": 0.9448818897637795
        },
        {
          "duration": 1.0500000000000007,
          "durationTicks": 420,
          "midi": 91,
          "name": "G6",
          "ticks": 4320,
          "time": 10.799999999999999,
          "velocity": 0.9448818897637795
        },
        {
          "duration": 0.8999999999999986,
          "durationTicks": 360,
          "midi": 91,
          "name": "G6",
          "ticks": 11040,
          "time": 27.599999999999998,
          "velocity": 0.9448818897637795
        },
        {
          "duration": 0.14999999999999858,
          "durationTicks": 60,
          "midi": 86,
          "name": "D6",
          "ticks": 11580,
          "time": 28.95,
          "velocity": 0.9448818897637795
        },
        {
          "duration": 0.3000000000000007,
          "durationTicks": 120,
          "midi": 88,
          "name": "E6",
          "ticks": 11640,
          "time": 29.099999999999998,
          "velocity": 0.9448818897637795
        },
        {
          "duration": 0.3000000000000007,
          "durationTicks": 120,
          "midi": 91,
          "name": "G6",
          "ticks": 11760,
          "time": 29.4,
          "velocity": 0.9448818897637795
        },
        {
          "duration": 0.14999999999999858,
          "durationTicks": 60,
          "midi": 88,
          "name": "E6",
          "ticks": 11880,
          "time": 29.7,
          "velocity": 0.9448818897637795
        },
        {
          "duration": 0.14999999999999858,
          "durationTicks": 60,
          "midi": 91,
          "name": "G6",
          "ticks": 11940,
          "time": 29.849999999999998,
          "velocity": 0.9448818897637795
        },
        {
          "duration": 0.3000000000000007,
          "durationTicks": 120,
          "midi": 93,
          "name": "A6",
          "ticks": 12000,
          "time": 29.999999999999996,
          "velocity": 0.9448818897637795
        },
        {
          "duration": 0.29999999999999716,
          "durationTicks": 120,
          "midi": 95,
          "name": "B6",
          "ticks": 12180,
          "time": 30.45,
          "velocity": 0.9448818897637795
        },
        {
          "duration": 0.29999999999999716,
          "durationTicks": 120,
          "midi": 91,
          "name": "G6",
          "ticks": 12360,
          "time": 30.9,
          "velocity": 0.9448818897637795
        },
        {
          "duration": 0.3000000000000007,
          "durationTicks": 120,
          "midi": 93,
          "name": "A6",
          "ticks": 12480,
          "time": 31.199999999999996,
          "velocity": 0.9448818897637795
        },
        {
          "duration": 0.29999999999999716,
          "durationTicks": 120,
          "midi": 95,
          "name": "B6",
          "ticks": 12660,
          "time": 31.65,
          "velocity": 0.9448818897637795
        },
        {
          "duration": 0.30000000000000426,
          "durationTicks": 120,
          "midi": 91,
          "name": "G6",
          "ticks": 12840,
          "time": 32.099999999999994,
          "velocity": 0.9448818897637795
        },
        {
          "duration": 0.8999999999999986,
          "durationTicks": 360,
          "midi": 98,
          "name": "D7",
          "ticks": 12960,
          "time": 32.4,
          "velocity": 0.9448818897637795
        },
        {
          "duration": 0.14999999999999858,
          "durationTicks": 60,
          "midi": 96,
          "name": "C7",
          "ticks": 13500,
          "time": 33.75,
          "velocity": 0.9448818897637795
        },
        {
          "duration": 0.29999999999999716,
          "durationTicks": 120,
          "midi": 95,
          "name": "B6",
          "ticks": 13560,
          "time": 33.9,
          "velocity": 0.9448818897637795
        },
        {
          "duration": 0.30000000000000426,
          "durationTicks": 120,
          "midi": 98,
          "name": "D7",
          "ticks": 13680,
          "time": 34.199999999999996,
          "velocity": 0.9448818897637795
        },
        {
          "duration": 0.14999999999999858,
          "durationTicks": 60,
          "midi": 96,
          "name": "C7",
          "ticks": 13800,
          "time": 34.5,
          "velocity": 0.9448818897637795
        },
        {
          "duration": 0.14999999999999858,
          "durationTicks": 60,
          "midi": 95,
          "name": "B6",
          "ticks": 13860,
          "time": 34.65,
          "velocity": 0.9448818897637795
        },
        {
          "duration": 1.0499999999999972,
          "durationTicks": 420,
          "midi": 91,
          "name": "G6",
          "ticks": 13920,
          "time": 34.8,
          "velocity": 0.9448818897637795
        },
        {
          "duration": 0.8999999999999986,
          "durationTicks": 360,
          "midi": 91,
          "name": "G6",
          "ticks": 20640,
          "time": 51.599999999999994,
          "velocity": 0.9448818897637795
        },
        {
          "duration": 0.14999999999999858,
          "durationTicks": 60,
          "midi": 86,
          "name": "D6",
          "ticks": 21180,
          "time": 52.949999999999996,
          "velocity": 0.9448818897637795
        },
        {
          "duration": 0.29999999999999716,
          "durationTicks": 120,
          "midi": 88,
          "name": "E6",
          "ticks": 21240,
          "time": 53.099999999999994,
          "velocity": 0.9448818897637795
        },
        {
          "duration": 0.30000000000000426,
          "durationTicks": 120,
          "midi": 91,
          "name": "G6",
          "ticks": 21360,
          "time": 53.39999999999999,
          "velocity": 0.9448818897637795
        },
        {
          "duration": 0.14999999999999858,
          "durationTicks": 60,
          "midi": 88,
          "name": "E6",
          "ticks": 21480,
          "time": 53.699999999999996,
          "velocity": 0.9448818897637795
        },
        {
          "duration": 0.14999999999999858,
          "durationTicks": 60,
          "midi": 91,
          "name": "G6",
          "ticks": 21540,
          "time": 53.849999999999994,
          "velocity": 0.9448818897637795
        },
        {
          "duration": 0.30000000000000426,
          "durationTicks": 120,
          "midi": 93,
          "name": "A6",
          "ticks": 21600,
          "time": 53.99999999999999,
          "velocity": 0.9448818897637795
        },
        {
          "duration": 0.29999999999999716,
          "durationTicks": 120,
          "midi": 95,
          "name": "B6",
          "ticks": 21780,
          "time": 54.449999999999996,
          "velocity": 0.9448818897637795
        },
        {
          "duration": 0.30000000000000426,
          "durationTicks": 120,
          "midi": 91,
          "name": "G6",
          "ticks": 21960,
          "time": 54.89999999999999,
          "velocity": 0.9448818897637795
        },
        {
          "duration": 0.29999999999999716,
          "durationTicks": 120,
          "midi": 93,
          "name": "A6",
          "ticks": 22080,
          "time": 55.199999999999996,
          "velocity": 0.9448818897637795
        },
        {
          "duration": 0.30000000000000426,
          "durationTicks": 120,
          "midi": 95,
          "name": "B6",
          "ticks": 22260,
          "time": 55.64999999999999,
          "velocity": 0.9448818897637795
        },
        {
          "duration": 0.29999999999999716,
          "durationTicks": 120,
          "midi": 91,
          "name": "G6",
          "ticks": 22440,
          "time": 56.099999999999994,
          "velocity": 0.9448818897637795
        },
        {
          "duration": 0.9000000000000057,
          "durationTicks": 360,
          "midi": 98,
          "name": "D7",
          "ticks": 22560,
          "time": 56.39999999999999,
          "velocity": 0.9448818897637795
        },
        {
          "duration": 0.14999999999999858,
          "durationTicks": 60,
          "midi": 96,
          "name": "C7",
          "ticks": 23100,
          "time": 57.74999999999999,
          "velocity": 0.9448818897637795
        },
        {
          "duration": 0.30000000000000426,
          "durationTicks": 120,
          "midi": 95,
          "name": "B6",
          "ticks": 23160,
          "time": 57.89999999999999,
          "velocity": 0.9448818897637795
        },
        {
          "duration": 0.29999999999999716,
          "durationTicks": 120,
          "midi": 98,
          "name": "D7",
          "ticks": 23280,
          "time": 58.199999999999996,
          "velocity": 0.9448818897637795
        },
        {
          "duration": 0.14999999999999858,
          "durationTicks": 60,
          "midi": 96,
          "name": "C7",
          "ticks": 23400,
          "time": 58.49999999999999,
          "velocity": 0.9448818897637795
        },
        {
          "duration": 0.15000000000000568,
          "durationTicks": 60,
          "midi": 95,
          "name": "B6",
          "ticks": 23460,
          "time": 58.64999999999999,
          "velocity": 0.9448818897637795
        },
        {
          "duration": 1.0499999999999972,
          "durationTicks": 420,
          "midi": 91,
          "name": "G6",
          "ticks": 23520,
          "time": 58.8,
          "velocity": 0.9448818897637795
        }
      ]
    },
    {
      "channel": 0,
      "controlChanges": {
        "0": [
          {
            "number": 0,
            "ticks": 130,
            "time": 0.32499999999999996,
            "value": 0
          }
        ],
        "32": [
          {
            "number": 32,
            "ticks": 131,
            "time": 0.32749999999999996,
            "value": 0
          }
        ],
        "91": [
          {
            "number": 91,
            "ticks": 0,
            "time": 0,
            "value": 0
          }
        ],
        "93": [
          {
            "number": 93,
            "ticks": 0,
            "time": 0,
            "value": 0
          }
        ]
      },
      "pitchBends": [],
      "instrument": {
        "family": "piano",
        "number": 0,
        "name": "acoustic grand piano"
      },
      "name": "",
      "notes": [],
      "endOfTrackTicks": 24060
    },
    {
      "channel": 3,
      "controlChanges": {
        "7": [
          {
            "number": 7,
            "ticks": 133,
            "time": 0.3325,
            "value": 0.6299212598425197
          }
        ],
        "10": [
          {
            "number": 10,
            "ticks": 133,
            "time": 0.3325,
            "value": 0.4251968503937008
          }
        ],
        "11": [
          {
            "number": 11,
            "ticks": 960,
            "time": 2.4,
            "value": 0.7874015748031497
          },
          {
            "number": 11,
            "ticks": 1680,
            "time": 4.2,
            "value": 0.7874015748031497
          },
          {
            "number": 11,
            "ticks": 1683,
            "time": 4.2075,
            "value": 0.7795275590551181
          },
          {
            "number": 11,
            "ticks": 1686,
            "time": 4.215,
            "value": 0.7716535433070866
          },
          {
            "number": 11,
            "ticks": 1690,
            "time": 4.225,
            "value": 0.7637795275590551
          },
          {
            "number": 11,
            "ticks": 1693,
            "time": 4.2325,
            "value": 0.7559055118110236
          },
          {
            "number": 11,
            "ticks": 1696,
            "time": 4.239999999999999,
            "value": 0.7480314960629921
          },
          {
            "number": 11,
            "ticks": 1700,
            "time": 4.25,
            "value": 0.7401574803149606
          },
          {
            "number": 11,
            "ticks": 1703,
            "time": 4.257499999999999,
            "value": 0.7322834645669292
          },
          {
            "number": 11,
            "ticks": 1706,
            "time": 4.265,
            "value": 0.7244094488188977
          },
          {
            "number": 11,
            "ticks": 1710,
            "time": 4.2749999999999995,
            "value": 0.7086614173228346
          },
          {
            "number": 11,
            "ticks": 1713,
            "time": 4.2825,
            "value": 0.7007874015748031
          },
          {
            "number": 11,
            "ticks": 1716,
            "time": 4.29,
            "value": 0.6929133858267716
          },
          {
            "number": 11,
            "ticks": 1720,
            "time": 4.3,
            "value": 0.6850393700787402
          },
          {
            "number": 11,
            "ticks": 1723,
            "time": 4.307499999999999,
            "value": 0.6771653543307087
          },
          {
            "number": 11,
            "ticks": 1726,
            "time": 4.3149999999999995,
            "value": 0.6692913385826772
          },
          {
            "number": 11,
            "ticks": 1730,
            "time": 4.324999999999999,
            "value": 0.6614173228346457
          },
          {
            "number": 11,
            "ticks": 1733,
            "time": 4.3325,
            "value": 0.6535433070866141
          },
          {
            "number": 11,
            "ticks": 1736,
            "time": 4.34,
            "value": 0.6456692913385826
          },
          {
            "number": 11,
            "ticks": 1740,
            "time": 4.35,
            "value": 0.6299212598425197
          },
          {
            "number": 11,
            "ticks": 1743,
            "time": 4.3575,
            "value": 0.6220472440944882
          },
          {
            "number": 11,
            "ticks": 1746,
            "time": 4.365,
            "value": 0.6141732283464567
          },
          {
            "number": 11,
            "ticks": 1750,
            "time": 4.375,
            "value": 0.6062992125984252
          },
          {
            "number": 11,
            "ticks": 1753,
            "time": 4.382499999999999,
            "value": 0.5984251968503937
          },
          {
            "number": 11,
            "ticks": 1756,
            "time": 4.39,
            "value": 0.5905511811023622
          },
          {
            "number": 11,
            "ticks": 1760,
            "time": 4.3999999999999995,
            "value": 0.5826771653543307
          },
          {
            "number": 11,
            "ticks": 1763,
            "time": 4.4075,
            "value": 0.5748031496062992
          },
          {
            "number": 11,
            "ticks": 1766,
            "time": 4.415,
            "value": 0.5669291338582677
          },
          {
            "number": 11,
            "ticks": 1770,
            "time": 4.425,
            "value": 0.5511811023622047
          },
          {
            "number": 11,
            "ticks": 1773,
            "time": 4.4325,
            "value": 0.5433070866141733
          },
          {
            "number": 11,
            "ticks": 1776,
            "time": 4.44,
            "value": 0.5354330708661418
          },
          {
            "number": 11,
            "ticks": 1780,
            "time": 4.45,
            "value": 0.5275590551181102
          },
          {
            "number": 11,
            "ticks": 1783,
            "time": 4.4575,
            "value": 0.5196850393700787
          },
          {
            "number": 11,
            "ticks": 1786,
            "time": 4.465,
            "value": 0.5118110236220472
          },
          {
            "number": 11,
            "ticks": 1790,
            "time": 4.475,
            "value": 0.5039370078740157
          },
          {
            "number": 11,
            "ticks": 1793,
            "time": 4.4825,
            "value": 0.49606299212598426
          },
          {
            "number": 11,
            "ticks": 1796,
            "time": 4.49,
            "value": 0.4881889763779528
          },
          {
            "number": 11,
            "ticks": 1800,
            "time": 4.5,
            "value": 0.47244094488188976
          },
          {
            "number": 11,
            "ticks": 1803,
            "time": 4.5075,
            "value": 0.4645669291338583
          },
          {
            "number": 11,
            "ticks": 1806,
            "time": 4.515,
            "value": 0.4566929133858268
          },
          {
            "number": 11,
            "ticks": 1810,
            "time": 4.525,
            "value": 0.44881889763779526
          },
          {
            "number": 11,
            "ticks": 1813,
            "time": 4.5325,
            "value": 0.4409448818897638
          },
          {
            "number": 11,
            "ticks": 1816,
            "time": 4.54,
            "value": 0.4330708661417323
          },
          {
            "number": 11,
            "ticks": 1820,
            "time": 4.55,
            "value": 0.4251968503937008
          },
          {
            "number": 11,
            "ticks": 1823,
            "time": 4.5575,
            "value": 0.41732283464566927
          },
          {
            "number": 11,
            "ticks": 1826,
            "time": 4.5649999999999995,
            "value": 0.4094488188976378
          },
          {
            "number": 11,
            "ticks": 1830,
            "time": 4.575,
            "value": 0.3937007874015748
          },
          {
            "number": 11,
            "ticks": 1833,
            "time": 4.5825,
            "value": 0.3858267716535433
          },
          {
            "number": 11,
            "ticks": 1836,
            "time": 4.59,
            "value": 0.3779527559055118
          },
          {
            "number": 11,
            "ticks": 1840,
            "time": 4.6,
            "value": 0.3700787401574803
          },
          {
            "number": 11,
            "ticks": 1843,
            "time": 4.6075,
            "value": 0.36220472440944884
          },
          {
            "number": 11,
            "ticks": 1846,
            "time": 4.614999999999999,
            "value": 0.3543307086614173
          },
          {
            "number": 11,
            "ticks": 1850,
            "time": 4.625,
            "value": 0.3464566929133858
          },
          {
            "number": 11,
            "ticks": 1853,
            "time": 4.632499999999999,
            "value": 0.33858267716535434
          },
          {
            "number": 11,
            "ticks": 1856,
            "time": 4.64,
            "value": 0.33070866141732286
          },
          {
            "number": 11,
            "ticks": 1860,
            "time": 4.6499999999999995,
            "value": 0.31496062992125984
          },
          {
            "number": 11,
            "ticks": 1863,
            "time": 4.6575,
            "value": 0.30708661417322836
          },
          {
            "number": 11,
            "ticks": 1866,
            "time": 4.665,
            "value": 0.2992125984251969
          },
          {
            "number": 11,
            "ticks": 1870,
            "time": 4.675,
            "value": 0.29133858267716534
          },
          {
            "number": 11,
            "ticks": 1873,
            "time": 4.682499999999999,
            "value": 0.28346456692913385
          },
          {
            "number": 11,
            "ticks": 1876,
            "time": 4.6899999999999995,
            "value": 0.2755905511811024
          },
          {
            "number": 11,
            "ticks": 1880,
            "time": 4.699999999999999,
            "value": 0.2677165354330709
          },
          {
            "number": 11,
            "ticks": 1883,
            "time": 4.7075,
            "value": 0.25984251968503935
          },
          {
            "number": 11,
            "ticks": 1886,
            "time": 4.715,
            "value": 0.25196850393700787
          },
          {
            "number": 11,
            "ticks": 1890,
            "time": 4.725,
            "value": 0.23622047244094488
          },
          {
            "number": 11,
            "ticks": 1893,
            "time": 4.7325,
            "value": 0.2283464566929134
          },
          {
            "number": 11,
            "ticks": 1896,
            "time": 4.74,
            "value": 0.2204724409448819
          },
          {
            "number": 11,
            "ticks": 1900,
            "time": 4.75,
            "value": 0.2125984251968504
          },
          {
            "number": 11,
            "ticks": 1903,
            "time": 4.757499999999999,
            "value": 0.2047244094488189
          },
          {
            "number": 11,
            "ticks": 1906,
            "time": 4.765,
            "value": 0.1968503937007874
          },
          {
            "number": 11,
            "ticks": 1910,
            "time": 4.7749999999999995,
            "value": 0.1889763779527559
          },
          {
            "number": 11,
            "ticks": 1913,
            "time": 4.7825,
            "value": 0.18110236220472442
          },
          {
            "number": 11,
            "ticks": 1916,
            "time": 4.79,
            "value": 0.1732283464566929
          },
          {
            "number": 11,
            "ticks": 1920,
            "time": 4.8,
            "value": 0.15748031496062992
          },
          {
            "number": 11,
            "ticks": 1923,
            "time": 4.807499999999999,
            "value": 0.14960629921259844
          },
          {
            "number": 11,
            "ticks": 1926,
            "time": 4.815,
            "value": 0.14173228346456693
          },
          {
            "number": 11,
            "ticks": 1930,
            "time": 4.824999999999999,
            "value": 0.13385826771653545
          },
          {
            "number": 11,
            "ticks": 1933,
            "time": 4.8325000000000005,
            "value": 0.12598425196850394
          },
          {
            "number": 11,
            "ticks": 1936,
            "time": 4.84,
            "value": 0.11811023622047244
          },
          {
            "number": 11,
            "ticks": 1940,
            "time": 4.8500000000000005,
            "value": 0.11023622047244094
          },
          {
            "number": 11,
            "ticks": 1943,
            "time": 4.8575,
            "value": 0.10236220472440945
          },
          {
            "number": 11,
            "ticks": 1946,
            "time": 4.864999999999999,
            "value": 0.09448818897637795
          },
          {
            "number": 11,
            "ticks": 1950,
            "time": 4.875,
            "value": 0.07874015748031496
          },
          {
            "number": 11,
            "ticks": 1953,
            "time": 4.882499999999999,
            "value": 0.07086614173228346
          },
          {
            "number": 11,
            "ticks": 1956,
            "time": 4.89,
            "value": 0.06299212598425197
          },
          {
            "number": 11,
            "ticks": 1960,
            "time": 4.8999999999999995,
            "value": 0.05511811023622047
          },
          {
            "number": 11,
            "ticks": 1963,
            "time": 4.9075,
            "value": 0.047244094488188976
          },
          {
            "number": 11,
            "ticks": 1966,
            "time": 4.915,
            "value": 0.03937007874015748
          },
          {
            "number": 11,
            "ticks": 1970,
            "time": 4.925,
            "value": 0.031496062992125984
          },
          {
            "number": 11,
            "ticks": 1973,
            "time": 4.9325,
            "value": 0.023622047244094488
          },
          {
            "number": 11,
            "ticks": 1976,
            "time": 4.9399999999999995,
            "value": 0.015748031496062992
          },
          {
            "number": 11,
            "ticks": 1980,
            "time": 4.95,
            "value": 0.7874015748031497
          },
          {
            "number": 11,
            "ticks": 2100,
            "time": 5.25,
            "value": 0.7874015748031497
          },
          {
            "number": 11,
            "ticks": 2103,
            "time": 5.257499999999999,
            "value": 0.7795275590551181
          },
          {
            "number": 11,
            "ticks": 2106,
            "time": 5.265,
            "value": 0.7716535433070866
          },
          {
            "number": 11,
            "ticks": 2110,
            "time": 5.2749999999999995,
            "value": 0.7637795275590551
          },
          {
            "number": 11,
            "ticks": 2113,
            "time": 5.2825,
            "value": 0.7559055118110236
          },
          {
            "number": 11,
            "ticks": 2116,
            "time": 5.29,
            "value": 0.7480314960629921
          },
          {
            "number": 11,
            "ticks": 2120,
            "time": 5.3,
            "value": 0.7401574803149606
          },
          {
            "number": 11,
            "ticks": 2123,
            "time": 5.3075,
            "value": 0.7322834645669292
          },
          {
            "number": 11,
            "ticks": 2126,
            "time": 5.3149999999999995,
            "value": 0.7244094488188977
          },
          {
            "number": 11,
            "ticks": 2130,
            "time": 5.325,
            "value": 0.7086614173228346
          },
          {
            "number": 11,
            "ticks": 2133,
            "time": 5.3325,
            "value": 0.7007874015748031
          },
          {
            "number": 11,
            "ticks": 2136,
            "time": 5.34,
            "value": 0.6929133858267716
          },
          {
            "number": 11,
            "ticks": 2140,
            "time": 5.35,
            "value": 0.6850393700787402
          },
          {
            "number": 11,
            "ticks": 2143,
            "time": 5.3575,
            "value": 0.6771653543307087
          },
          {
            "number": 11,
            "ticks": 2146,
            "time": 5.364999999999999,
            "value": 0.6692913385826772
          },
          {
            "number": 11,
            "ticks": 2150,
            "time": 5.375,
            "value": 0.6614173228346457
          },
          {
            "number": 11,
            "ticks": 2153,
            "time": 5.382499999999999,
            "value": 0.6535433070866141
          },
          {
            "number": 11,
            "ticks": 2156,
            "time": 5.39,
            "value": 0.6456692913385826
          },
          {
            "number": 11,
            "ticks": 2160,
            "time": 5.3999999999999995,
            "value": 0.7874015748031497
          },
          {
            "number": 11,
            "ticks": 2220,
            "time": 5.55,
            "value": 0.7874015748031497
          },
          {
            "number": 11,
            "ticks": 2223,
            "time": 5.557499999999999,
            "value": 0.7795275590551181
          },
          {
            "number": 11,
            "ticks": 2226,
            "time": 5.565,
            "value": 0.7716535433070866
          },
          {
            "number": 11,
            "ticks": 2230,
            "time": 5.574999999999999,
            "value": 0.7637795275590551
          },
          {
            "number": 11,
            "ticks": 2233,
            "time": 5.5825000000000005,
            "value": 0.7559055118110236
          },
          {
            "number": 11,
            "ticks": 2236,
            "time": 5.59,
            "value": 0.7480314960629921
          },
          {
            "number": 11,
            "ticks": 2240,
            "time": 5.6000000000000005,
            "value": 0.7401574803149606
          },
          {
            "number": 11,
            "ticks": 2243,
            "time": 5.6075,
            "value": 0.7322834645669292
          },
          {
            "number": 11,
            "ticks": 2246,
            "time": 5.614999999999999,
            "value": 0.7244094488188977
          },
          {
            "number": 11,
            "ticks": 2250,
            "time": 5.625,
            "value": 0.7086614173228346
          },
          {
            "number": 11,
            "ticks": 2253,
            "time": 5.632499999999999,
            "value": 0.7007874015748031
          },
          {
            "number": 11,
            "ticks": 2256,
            "time": 5.64,
            "value": 0.6929133858267716
          },
          {
            "number": 11,
            "ticks": 2260,
            "time": 5.6499999999999995,
            "value": 0.6850393700787402
          },
          {
            "number": 11,
            "ticks": 2263,
            "time": 5.6575,
            "value": 0.6771653543307087
          },
          {
            "number": 11,
            "ticks": 2266,
            "time": 5.665,
            "value": 0.6692913385826772
          },
          {
            "number": 11,
            "ticks": 2270,
            "time": 5.675,
            "value": 0.6614173228346457
          },
          {
            "number": 11,
            "ticks": 2273,
            "time": 5.6825,
            "value": 0.6535433070866141
          },
          {
            "number": 11,
            "ticks": 2276,
            "time": 5.6899999999999995,
            "value": 0.6456692913385826
          },
          {
            "number": 11,
            "ticks": 2280,
            "time": 5.7,
            "value": 0.7874015748031497
          },
          {
            "number": 11,
            "ticks": 2640,
            "time": 6.6,
            "value": 0.7874015748031497
          },
          {
            "number": 11,
            "ticks": 2643,
            "time": 6.607499999999999,
            "value": 0.7795275590551181
          },
          {
            "number": 11,
            "ticks": 2646,
            "time": 6.615,
            "value": 0.7716535433070866
          },
          {
            "number": 11,
            "ticks": 2650,
            "time": 6.624999999999999,
            "value": 0.7637795275590551
          },
          {
            "number": 11,
            "ticks": 2653,
            "time": 6.6325,
            "value": 0.7559055118110236
          },
          {
            "number": 11,
            "ticks": 2656,
            "time": 6.64,
            "value": 0.7480314960629921
          },
          {
            "number": 11,
            "ticks": 2660,
            "time": 6.65,
            "value": 0.7401574803149606
          },
          {
            "number": 11,
            "ticks": 2663,
            "time": 6.6575,
            "value": 0.7322834645669292
          },
          {
            "number": 11,
            "ticks": 2666,
            "time": 6.664999999999999,
            "value": 0.7244094488188977
          },
          {
            "number": 11,
            "ticks": 2670,
            "time": 6.675,
            "value": 0.7086614173228346
          },
          {
            "number": 11,
            "ticks": 2673,
            "time": 6.682499999999999,
            "value": 0.7007874015748031
          },
          {
            "number": 11,
            "ticks": 2676,
            "time": 6.69,
            "value": 0.6929133858267716
          },
          {
            "number": 11,
            "ticks": 2680,
            "time": 6.699999999999999,
            "value": 0.6850393700787402
          },
          {
            "number": 11,
            "ticks": 2683,
            "time": 6.7075000000000005,
            "value": 0.6771653543307087
          },
          {
            "number": 11,
            "ticks": 2686,
            "time": 6.715,
            "value": 0.6692913385826772
          },
          {
            "number": 11,
            "ticks": 2690,
            "time": 6.7250000000000005,
            "value": 0.6614173228346457
          },
          {
            "number": 11,
            "ticks": 2693,
            "time": 6.7325,
            "value": 0.6535433070866141
          },
          {
            "number": 11,
            "ticks": 2696,
            "time": 6.739999999999999,
            "value": 0.6456692913385826
          },
          {
            "number": 11,
            "ticks": 2700,
            "time": 6.75,
            "value": 0.6299212598425197
          },
          {
            "number": 11,
            "ticks": 2703,
            "time": 6.757499999999999,
            "value": 0.6220472440944882
          },
          {
            "number": 11,
            "ticks": 2706,
            "time": 6.765,
            "value": 0.6141732283464567
          },
          {
            "number": 11,
            "ticks": 2710,
            "time": 6.7749999999999995,
            "value": 0.6062992125984252
          },
          {
            "number": 11,
            "ticks": 2713,
            "time": 6.7825,
            "value": 0.5984251968503937
          },
          {
            "number": 11,
            "ticks": 2716,
            "time": 6.79,
            "value": 0.5905511811023622
          },
          {
            "number": 11,
            "ticks": 2720,
            "time": 6.8,
            "value": 0.5826771653543307
          },
          {
            "number": 11,
            "ticks": 2723,
            "time": 6.8075,
            "value": 0.5748031496062992
          },
          {
            "number": 11,
            "ticks": 2726,
            "time": 6.8149999999999995,
            "value": 0.5669291338582677
          },
          {
            "number": 11,
            "ticks": 2730,
            "time": 6.825,
            "value": 0.5511811023622047
          },
          {
            "number": 11,
            "ticks": 2733,
            "time": 6.8325,
            "value": 0.5433070866141733
          },
          {
            "number": 11,
            "ticks": 2736,
            "time": 6.84,
            "value": 0.5354330708661418
          },
          {
            "number": 11,
            "ticks": 2740,
            "time": 6.85,
            "value": 0.5275590551181102
          },
          {
            "number": 11,
            "ticks": 2743,
            "time": 6.8575,
            "value": 0.5196850393700787
          },
          {
            "number": 11,
            "ticks": 2746,
            "time": 6.864999999999999,
            "value": 0.5118110236220472
          },
          {
            "number": 11,
            "ticks": 2750,
            "time": 6.875,
            "value": 0.5039370078740157
          },
          {
            "number": 11,
            "ticks": 2753,
            "time": 6.882499999999999,
            "value": 0.49606299212598426
          },
          {
            "number": 11,
            "ticks": 2756,
            "time": 6.89,
            "value": 0.4881889763779528
          },
          {
            "number": 11,
            "ticks": 2760,
            "time": 6.8999999999999995,
            "value": 0.7874015748031497
          },
          {
            "number": 11,
            "ticks": 2820,
            "time": 7.05,
            "value": 0.7874015748031497
          },
          {
            "number": 11,
            "ticks": 2823,
            "time": 7.057499999999999,
            "value": 0.7795275590551181
          },
          {
            "number": 11,
            "ticks": 2826,
            "time": 7.065,
            "value": 0.7716535433070866
          },
          {
            "number": 11,
            "ticks": 2830,
            "time": 7.074999999999999,
            "value": 0.7637795275590551
          },
          {
            "number": 11,
            "ticks": 2833,
            "time": 7.0825000000000005,
            "value": 0.7559055118110236
          },
          {
            "number": 11,
            "ticks": 2836,
            "time": 7.09,
            "value": 0.7480314960629921
          },
          {
            "number": 11,
            "ticks": 2840,
            "time": 7.1000000000000005,
            "value": 0.7401574803149606
          },
          {
            "number": 11,
            "ticks": 2843,
            "time": 7.1075,
            "value": 0.7322834645669292
          },
          {
            "number": 11,
            "ticks": 2846,
            "time": 7.114999999999999,
            "value": 0.7244094488188977
          },
          {
            "number": 11,
            "ticks": 2850,
            "time": 7.125,
            "value": 0.7086614173228346
          },
          {
            "number": 11,
            "ticks": 2853,
            "time": 7.132499999999999,
            "value": 0.7007874015748031
          },
          {
            "number": 11,
            "ticks": 2856,
            "time": 7.14,
            "value": 0.6929133858267716
          },
          {
            "number": 11,
            "ticks": 2860,
            "time": 7.1499999999999995,
            "value": 0.6850393700787402
          },
          {
            "number": 11,
            "ticks": 2863,
            "time": 7.1575,
            "value": 0.6771653543307087
          },
          {
            "number": 11,
            "ticks": 2866,
            "time": 7.165,
            "value": 0.6692913385826772
          },
          {
            "number": 11,
            "ticks": 2870,
            "time": 7.175,
            "value": 0.6614173228346457
          },
          {
            "number": 11,
            "ticks": 2873,
            "time": 7.1825,
            "value": 0.6535433070866141
          },
          {
            "number": 11,
            "ticks": 2876,
            "time": 7.1899999999999995,
            "value": 0.6456692913385826
          },
          {
            "number": 11,
            "ticks": 2880,
            "time": 7.199999999999999,
            "value": 0.7874015748031497
          },
          {
            "number": 11,
            "ticks": 3300,
            "time": 8.25,
            "value": 0.7874015748031497
          },
          {
            "number": 11,
            "ticks": 3303,
            "time": 8.257499999999999,
            "value": 0.7795275590551181
          },
          {
            "number": 11,
            "ticks": 3306,
            "time": 8.265,
            "value": 0.7716535433070866
          },
          {
            "number": 11,
            "ticks": 3310,
            "time": 8.274999999999999,
            "value": 0.7637795275590551
          },
          {
            "number": 11,
            "ticks": 3313,
            "time": 8.2825,
            "value": 0.7559055118110236
          },
          {
            "number": 11,
            "ticks": 3316,
            "time": 8.29,
            "value": 0.7480314960629921
          },
          {
            "number": 11,
            "ticks": 3320,
            "time": 8.3,
            "value": 0.7401574803149606
          },
          {
            "number": 11,
            "ticks": 3323,
            "time": 8.3075,
            "value": 0.7322834645669292
          },
          {
            "number": 11,
            "ticks": 3326,
            "time": 8.315,
            "value": 0.7244094488188977
          },
          {
            "number": 11,
            "ticks": 3330,
            "time": 8.325,
            "value": 0.7086614173228346
          },
          {
            "number": 11,
            "ticks": 3333,
            "time": 8.3325,
            "value": 0.7007874015748031
          },
          {
            "number": 11,
            "ticks": 3336,
            "time": 8.34,
            "value": 0.6929133858267716
          },
          {
            "number": 11,
            "ticks": 3340,
            "time": 8.35,
            "value": 0.6850393700787402
          },
          {
            "number": 11,
            "ticks": 3343,
            "time": 8.3575,
            "value": 0.6771653543307087
          },
          {
            "number": 11,
            "ticks": 3346,
            "time": 8.365,
            "value": 0.6692913385826772
          },
          {
            "number": 11,
            "ticks": 3350,
            "time": 8.375,
            "value": 0.6614173228346457
          },
          {
            "number": 11,
            "ticks": 3353,
            "time": 8.3825,
            "value": 0.6535433070866141
          },
          {
            "number": 11,
            "ticks": 3356,
            "time": 8.389999999999999,
            "value": 0.6456692913385826
          },
          {
            "number": 11,
            "ticks": 3360,
            "time": 8.4,
            "value": 0.7874015748031497
          },
          {
            "number": 11,
            "ticks": 3600,
            "time": 9,
            "value": 0.7874015748031497
          },
          {
            "number": 11,
            "ticks": 3603,
            "time": 9.007499999999999,
            "value": 0.7795275590551181
          },
          {
            "number": 11,
            "ticks": 3606,
            "time": 9.015,
            "value": 0.7716535433070866
          },
          {
            "number": 11,
            "ticks": 3610,
            "time": 9.024999999999999,
            "value": 0.7637795275590551
          },
          {
            "number": 11,
            "ticks": 3613,
            "time": 9.0325,
            "value": 0.7559055118110236
          },
          {
            "number": 11,
            "ticks": 3616,
            "time": 9.04,
            "value": 0.7480314960629921
          },
          {
            "number": 11,
            "ticks": 3620,
            "time": 9.05,
            "value": 0.7401574803149606
          },
          {
            "number": 11,
            "ticks": 3623,
            "time": 9.0575,
            "value": 0.7322834645669292
          },
          {
            "number": 11,
            "ticks": 3626,
            "time": 9.065,
            "value": 0.7244094488188977
          },
          {
            "number": 11,
            "ticks": 3630,
            "time": 9.075,
            "value": 0.7086614173228346
          },
          {
            "number": 11,
            "ticks": 3633,
            "time": 9.0825,
            "value": 0.7007874015748031
          },
          {
            "number": 11,
            "ticks": 3636,
            "time": 9.09,
            "value": 0.6929133858267716
          },
          {
            "number": 11,
            "ticks": 3640,
            "time": 9.1,
            "value": 0.6850393700787402
          },
          {
            "number": 11,
            "ticks": 3643,
            "time": 9.1075,
            "value": 0.6771653543307087
          },
          {
            "number": 11,
            "ticks": 3646,
            "time": 9.115,
            "value": 0.6692913385826772
          },
          {
            "number": 11,
            "ticks": 3650,
            "time": 9.125,
            "value": 0.6614173228346457
          },
          {
            "number": 11,
            "ticks": 3653,
            "time": 9.1325,
            "value": 0.6535433070866141
          },
          {
            "number": 11,
            "ticks": 3656,
            "time": 9.139999999999999,
            "value": 0.6456692913385826
          },
          {
            "number": 11,
            "ticks": 3660,
            "time": 9.15,
            "value": 0.6299212598425197
          },
          {
            "number": 11,
            "ticks": 3663,
            "time": 9.157499999999999,
            "value": 0.6220472440944882
          },
          {
            "number": 11,
            "ticks": 3666,
            "time": 9.165,
            "value": 0.6141732283464567
          },
          {
            "number": 11,
            "ticks": 3670,
            "time": 9.174999999999999,
            "value": 0.6062992125984252
          },
          {
            "number": 11,
            "ticks": 3673,
            "time": 9.1825,
            "value": 0.5984251968503937
          },
          {
            "number": 11,
            "ticks": 3676,
            "time": 9.19,
            "value": 0.5905511811023622
          },
          {
            "number": 11,
            "ticks": 3680,
            "time": 9.2,
            "value": 0.5826771653543307
          },
          {
            "number": 11,
            "ticks": 3683,
            "time": 9.2075,
            "value": 0.5748031496062992
          },
          {
            "number": 11,
            "ticks": 3686,
            "time": 9.215,
            "value": 0.5669291338582677
          },
          {
            "number": 11,
            "ticks": 3690,
            "time": 9.225,
            "value": 0.5511811023622047
          },
          {
            "number": 11,
            "ticks": 3693,
            "time": 9.2325,
            "value": 0.5433070866141733
          },
          {
            "number": 11,
            "ticks": 3696,
            "time": 9.24,
            "value": 0.5354330708661418
          },
          {
            "number": 11,
            "ticks": 3700,
            "time": 9.25,
            "value": 0.5275590551181102
          },
          {
            "number": 11,
            "ticks": 3703,
            "time": 9.2575,
            "value": 0.5196850393700787
          },
          {
            "number": 11,
            "ticks": 3706,
            "time": 9.264999999999999,
            "value": 0.5118110236220472
          },
          {
            "number": 11,
            "ticks": 3710,
            "time": 9.275,
            "value": 0.5039370078740157
          },
          {
            "number": 11,
            "ticks": 3713,
            "time": 9.282499999999999,
            "value": 0.49606299212598426
          },
          {
            "number": 11,
            "ticks": 3716,
            "time": 9.29,
            "value": 0.4881889763779528
          },
          {
            "number": 11,
            "ticks": 3720,
            "time": 9.299999999999999,
            "value": 0.47244094488188976
          },
          {
            "number": 11,
            "ticks": 3723,
            "time": 9.3075,
            "value": 0.4645669291338583
          },
          {
            "number": 11,
            "ticks": 3726,
            "time": 9.315,
            "value": 0.4566929133858268
          },
          {
            "number": 11,
            "ticks": 3730,
            "time": 9.325,
            "value": 0.44881889763779526
          },
          {
            "number": 11,
            "ticks": 3733,
            "time": 9.3325,
            "value": 0.4409448818897638
          },
          {
            "number": 11,
            "ticks": 3736,
            "time": 9.34,
            "value": 0.4330708661417323
          },
          {
            "number": 11,
            "ticks": 3740,
            "time": 9.35,
            "value": 0.4251968503937008
          },
          {
            "number": 11,
            "ticks": 3743,
            "time": 9.3575,
            "value": 0.41732283464566927
          },
          {
            "number": 11,
            "ticks": 3746,
            "time": 9.364999999999998,
            "value": 0.4094488188976378
          },
          {
            "number": 11,
            "ticks": 3750,
            "time": 9.375,
            "value": 0.3937007874015748
          },
          {
            "number": 11,
            "ticks": 3753,
            "time": 9.382499999999999,
            "value": 0.3858267716535433
          },
          {
            "number": 11,
            "ticks": 3756,
            "time": 9.39,
            "value": 0.3779527559055118
          },
          {
            "number": 11,
            "ticks": 3760,
            "time": 9.399999999999999,
            "value": 0.3700787401574803
          },
          {
            "number": 11,
            "ticks": 3763,
            "time": 9.4075,
            "value": 0.36220472440944884
          },
          {
            "number": 11,
            "ticks": 3766,
            "time": 9.415,
            "value": 0.3543307086614173
          },
          {
            "number": 11,
            "ticks": 3770,
            "time": 9.425,
            "value": 0.3464566929133858
          },
          {
            "number": 11,
            "ticks": 3773,
            "time": 9.4325,
            "value": 0.33858267716535434
          },
          {
            "number": 11,
            "ticks": 3776,
            "time": 9.44,
            "value": 0.33070866141732286
          },
          {
            "number": 11,
            "ticks": 3780,
            "time": 9.45,
            "value": 0.31496062992125984
          },
          {
            "number": 11,
            "ticks": 3783,
            "time": 9.4575,
            "value": 0.30708661417322836
          },
          {
            "number": 11,
            "ticks": 3786,
            "time": 9.465,
            "value": 0.2992125984251969
          },
          {
            "number": 11,
            "ticks": 3790,
            "time": 9.475,
            "value": 0.29133858267716534
          },
          {
            "number": 11,
            "ticks": 3793,
            "time": 9.4825,
            "value": 0.28346456692913385
          },
          {
            "number": 11,
            "ticks": 3796,
            "time": 9.49,
            "value": 0.2755905511811024
          },
          {
            "number": 11,
            "ticks": 3800,
            "time": 9.5,
            "value": 0.2677165354330709
          },
          {
            "number": 11,
            "ticks": 3803,
            "time": 9.5075,
            "value": 0.25984251968503935
          },
          {
            "number": 11,
            "ticks": 3806,
            "time": 9.514999999999999,
            "value": 0.25196850393700787
          },
          {
            "number": 11,
            "ticks": 3810,
            "time": 9.525,
            "value": 0.23622047244094488
          },
          {
            "number": 11,
            "ticks": 3813,
            "time": 9.532499999999999,
            "value": 0.2283464566929134
          },
          {
            "number": 11,
            "ticks": 3816,
            "time": 9.54,
            "value": 0.2204724409448819
          },
          {
            "number": 11,
            "ticks": 3820,
            "time": 9.549999999999999,
            "value": 0.2125984251968504
          },
          {
            "number": 11,
            "ticks": 3823,
            "time": 9.5575,
            "value": 0.2047244094488189
          },
          {
            "number": 11,
            "ticks": 3826,
            "time": 9.565,
            "value": 0.1968503937007874
          },
          {
            "number": 11,
            "ticks": 3830,
            "time": 9.575,
            "value": 0.1889763779527559
          },
          {
            "number": 11,
            "ticks": 3833,
            "time": 9.5825,
            "value": 0.18110236220472442
          },
          {
            "number": 11,
            "ticks": 3836,
            "time": 9.59,
            "value": 0.1732283464566929
          },
          {
            "number": 11,
            "ticks": 3840,
            "time": 9.6,
            "value": 0.15748031496062992
          },
          {
            "number": 11,
            "ticks": 3843,
            "time": 9.6075,
            "value": 0.14960629921259844
          },
          {
            "number": 11,
            "ticks": 3846,
            "time": 9.614999999999998,
            "value": 0.14173228346456693
          },
          {
            "number": 11,
            "ticks": 3850,
            "time": 9.625,
            "value": 0.13385826771653545
          },
          {
            "number": 11,
            "ticks": 3853,
            "time": 9.6325,
            "value": 0.12598425196850394
          },
          {
            "number": 11,
            "ticks": 3856,
            "time": 9.639999999999999,
            "value": 0.11811023622047244
          },
          {
            "number": 11,
            "ticks": 3860,
            "time": 9.649999999999999,
            "value": 0.11023622047244094
          },
          {
            "number": 11,
            "ticks": 3863,
            "time": 9.6575,
            "value": 0.10236220472440945
          },
          {
            "number": 11,
            "ticks": 3866,
            "time": 9.665000000000001,
            "value": 0.09448818897637795
          },
          {
            "number": 11,
            "ticks": 3870,
            "time": 9.674999999999999,
            "value": 0.07874015748031496
          },
          {
            "number": 11,
            "ticks": 3873,
            "time": 9.6825,
            "value": 0.07086614173228346
          },
          {
            "number": 11,
            "ticks": 3876,
            "time": 9.69,
            "value": 0.06299212598425197
          },
          {
            "number": 11,
            "ticks": 3880,
            "time": 9.700000000000001,
            "value": 0.05511811023622047
          },
          {
            "number": 11,
            "ticks": 3883,
            "time": 9.7075,
            "value": 0.047244094488188976
          },
          {
            "number": 11,
            "ticks": 3886,
            "time": 9.715,
            "value": 0.03937007874015748
          },
          {
            "number": 11,
            "ticks": 3890,
            "time": 9.725,
            "value": 0.031496062992125984
          },
          {
            "number": 11,
            "ticks": 3893,
            "time": 9.7325,
            "value": 0.023622047244094488
          },
          {
            "number": 11,
            "ticks": 3896,
            "time": 9.74,
            "value": 0.015748031496062992
          },
          {
            "number": 11,
            "ticks": 3900,
            "time": 9.75,
            "value": 0.7874015748031497
          },
          {
            "number": 11,
            "ticks": 4020,
            "time": 10.049999999999999,
            "value": 0.7874015748031497
          },
          {
            "number": 11,
            "ticks": 4023,
            "time": 10.0575,
            "value": 0.7795275590551181
          },
          {
            "number": 11,
            "ticks": 4026,
            "time": 10.065,
            "value": 0.7716535433070866
          },
          {
            "number": 11,
            "ticks": 4030,
            "time": 10.075000000000001,
            "value": 0.7637795275590551
          },
          {
            "number": 11,
            "ticks": 4033,
            "time": 10.0825,
            "value": 0.7559055118110236
          },
          {
            "number": 11,
            "ticks": 4036,
            "time": 10.09,
            "value": 0.7480314960629921
          },
          {
            "number": 11,
            "ticks": 4040,
            "time": 10.1,
            "value": 0.7401574803149606
          },
          {
            "number": 11,
            "ticks": 4043,
            "time": 10.1075,
            "value": 0.7322834645669292
          },
          {
            "number": 11,
            "ticks": 4046,
            "time": 10.115,
            "value": 0.7244094488188977
          },
          {
            "number": 11,
            "ticks": 4050,
            "time": 10.125,
            "value": 0.7086614173228346
          },
          {
            "number": 11,
            "ticks": 4053,
            "time": 10.132499999999999,
            "value": 0.7007874015748031
          },
          {
            "number": 11,
            "ticks": 4056,
            "time": 10.139999999999999,
            "value": 0.6929133858267716
          },
          {
            "number": 11,
            "ticks": 4060,
            "time": 10.15,
            "value": 0.6850393700787402
          },
          {
            "number": 11,
            "ticks": 4063,
            "time": 10.1575,
            "value": 0.6771653543307087
          },
          {
            "number": 11,
            "ticks": 4066,
            "time": 10.165,
            "value": 0.6692913385826772
          },
          {
            "number": 11,
            "ticks": 4070,
            "time": 10.174999999999999,
            "value": 0.6614173228346457
          },
          {
            "number": 11,
            "ticks": 4073,
            "time": 10.182500000000001,
            "value": 0.6535433070866141
          },
          {
            "number": 11,
            "ticks": 4076,
            "time": 10.19,
            "value": 0.6456692913385826
          },
          {
            "number": 11,
            "ticks": 4080,
            "time": 10.2,
            "value": 0.7874015748031497
          },
          {
            "number": 11,
            "ticks": 4140,
            "time": 10.35,
            "value": 0.7874015748031497
          },
          {
            "number": 11,
            "ticks": 4143,
            "time": 10.3575,
            "value": 0.7795275590551181
          },
          {
            "number": 11,
            "ticks": 4146,
            "time": 10.364999999999998,
            "value": 0.7716535433070866
          },
          {
            "number": 11,
            "ticks": 4150,
            "time": 10.375,
            "value": 0.7637795275590551
          },
          {
            "number": 11,
            "ticks": 4153,
            "time": 10.3825,
            "value": 0.7559055118110236
          },
          {
            "number": 11,
            "ticks": 4156,
            "time": 10.389999999999999,
            "value": 0.7480314960629921
          },
          {
            "number": 11,
            "ticks": 4160,
            "time": 10.399999999999999,
            "value": 0.7401574803149606
          },
          {
            "number": 11,
            "ticks": 4163,
            "time": 10.4075,
            "value": 0.7322834645669292
          },
          {
            "number": 11,
            "ticks": 4166,
            "time": 10.415000000000001,
            "value": 0.7244094488188977
          },
          {
            "number": 11,
            "ticks": 4170,
            "time": 10.424999999999999,
            "value": 0.7086614173228346
          },
          {
            "number": 11,
            "ticks": 4173,
            "time": 10.4325,
            "value": 0.7007874015748031
          },
          {
            "number": 11,
            "ticks": 4176,
            "time": 10.44,
            "value": 0.6929133858267716
          },
          {
            "number": 11,
            "ticks": 4180,
            "time": 10.450000000000001,
            "value": 0.6850393700787402
          },
          {
            "number": 11,
            "ticks": 4183,
            "time": 10.4575,
            "value": 0.6771653543307087
          },
          {
            "number": 11,
            "ticks": 4186,
            "time": 10.465,
            "value": 0.6692913385826772
          },
          {
            "number": 11,
            "ticks": 4190,
            "time": 10.475,
            "value": 0.6614173228346457
          },
          {
            "number": 11,
            "ticks": 4193,
            "time": 10.4825,
            "value": 0.6535433070866141
          },
          {
            "number": 11,
            "ticks": 4196,
            "time": 10.49,
            "value": 0.6456692913385826
          },
          {
            "number": 11,
            "ticks": 4200,
            "time": 10.5,
            "value": 0.7874015748031497
          },
          {
            "number": 11,
            "ticks": 4560,
            "time": 11.4,
            "value": 0.7874015748031497
          },
          {
            "number": 11,
            "ticks": 4563,
            "time": 11.407499999999999,
            "value": 0.7795275590551181
          },
          {
            "number": 11,
            "ticks": 4566,
            "time": 11.415,
            "value": 0.7716535433070866
          },
          {
            "number": 11,
            "ticks": 4570,
            "time": 11.425,
            "value": 0.7637795275590551
          },
          {
            "number": 11,
            "ticks": 4573,
            "time": 11.4325,
            "value": 0.7559055118110236
          },
          {
            "number": 11,
            "ticks": 4576,
            "time": 11.44,
            "value": 0.7480314960629921
          },
          {
            "number": 11,
            "ticks": 4580,
            "time": 11.45,
            "value": 0.7401574803149606
          },
          {
            "number": 11,
            "ticks": 4583,
            "time": 11.457500000000001,
            "value": 0.7322834645669292
          },
          {
            "number": 11,
            "ticks": 4586,
            "time": 11.465,
            "value": 0.7244094488188977
          },
          {
            "number": 11,
            "ticks": 4590,
            "time": 11.475,
            "value": 0.7086614173228346
          },
          {
            "number": 11,
            "ticks": 4593,
            "time": 11.4825,
            "value": 0.7007874015748031
          },
          {
            "number": 11,
            "ticks": 4596,
            "time": 11.489999999999998,
            "value": 0.6929133858267716
          },
          {
            "number": 11,
            "ticks": 4600,
            "time": 11.5,
            "value": 0.6850393700787402
          },
          {
            "number": 11,
            "ticks": 4603,
            "time": 11.5075,
            "value": 0.6771653543307087
          },
          {
            "number": 11,
            "ticks": 4606,
            "time": 11.514999999999999,
            "value": 0.6692913385826772
          },
          {
            "number": 11,
            "ticks": 4610,
            "time": 11.524999999999999,
            "value": 0.6614173228346457
          },
          {
            "number": 11,
            "ticks": 4613,
            "time": 11.5325,
            "value": 0.6535433070866141
          },
          {
            "number": 11,
            "ticks": 4616,
            "time": 11.540000000000001,
            "value": 0.6456692913385826
          },
          {
            "number": 11,
            "ticks": 4620,
            "time": 11.549999999999999,
            "value": 0.6299212598425197
          },
          {
            "number": 11,
            "ticks": 4623,
            "time": 11.5575,
            "value": 0.6220472440944882
          },
          {
            "number": 11,
            "ticks": 4626,
            "time": 11.565,
            "value": 0.6141732283464567
          },
          {
            "number": 11,
            "ticks": 4630,
            "time": 11.575000000000001,
            "value": 0.6062992125984252
          },
          {
            "number": 11,
            "ticks": 4633,
            "time": 11.5825,
            "value": 0.5984251968503937
          },
          {
            "number": 11,
            "ticks": 4636,
            "time": 11.59,
            "value": 0.5905511811023622
          },
          {
            "number": 11,
            "ticks": 4640,
            "time": 11.6,
            "value": 0.5826771653543307
          },
          {
            "number": 11,
            "ticks": 4643,
            "time": 11.6075,
            "value": 0.5748031496062992
          },
          {
            "number": 11,
            "ticks": 4646,
            "time": 11.615,
            "value": 0.5669291338582677
          },
          {
            "number": 11,
            "ticks": 4650,
            "time": 11.625,
            "value": 0.5511811023622047
          },
          {
            "number": 11,
            "ticks": 4653,
            "time": 11.632499999999999,
            "value": 0.5433070866141733
          },
          {
            "number": 11,
            "ticks": 4656,
            "time": 11.639999999999999,
            "value": 0.5354330708661418
          },
          {
            "number": 11,
            "ticks": 4660,
            "time": 11.65,
            "value": 0.5275590551181102
          },
          {
            "number": 11,
            "ticks": 4663,
            "time": 11.6575,
            "value": 0.5196850393700787
          },
          {
            "number": 11,
            "ticks": 4666,
            "time": 11.665,
            "value": 0.5118110236220472
          },
          {
            "number": 11,
            "ticks": 4670,
            "time": 11.674999999999999,
            "value": 0.5039370078740157
          },
          {
            "number": 11,
            "ticks": 4673,
            "time": 11.682500000000001,
            "value": 0.49606299212598426
          },
          {
            "number": 11,
            "ticks": 4676,
            "time": 11.69,
            "value": 0.4881889763779528
          },
          {
            "number": 11,
            "ticks": 4680,
            "time": 11.7,
            "value": 0.47244094488188976
          },
          {
            "number": 11,
            "ticks": 4683,
            "time": 11.7075,
            "value": 0.4645669291338583
          },
          {
            "number": 11,
            "ticks": 4686,
            "time": 11.714999999999998,
            "value": 0.4566929133858268
          },
          {
            "number": 11,
            "ticks": 4690,
            "time": 11.725,
            "value": 0.44881889763779526
          },
          {
            "number": 11,
            "ticks": 4693,
            "time": 11.7325,
            "value": 0.4409448818897638
          },
          {
            "number": 11,
            "ticks": 4696,
            "time": 11.74,
            "value": 0.4330708661417323
          },
          {
            "number": 11,
            "ticks": 4700,
            "time": 11.749999999999998,
            "value": 0.4251968503937008
          },
          {
            "number": 11,
            "ticks": 4703,
            "time": 11.7575,
            "value": 0.41732283464566927
          },
          {
            "number": 11,
            "ticks": 4706,
            "time": 11.765,
            "value": 0.4094488188976378
          },
          {
            "number": 11,
            "ticks": 4710,
            "time": 11.775,
            "value": 0.3937007874015748
          },
          {
            "number": 11,
            "ticks": 4713,
            "time": 11.782499999999999,
            "value": 0.3858267716535433
          },
          {
            "number": 11,
            "ticks": 4716,
            "time": 11.79,
            "value": 0.3779527559055118
          },
          {
            "number": 11,
            "ticks": 4720,
            "time": 11.8,
            "value": 0.3700787401574803
          },
          {
            "number": 11,
            "ticks": 4723,
            "time": 11.8075,
            "value": 0.36220472440944884
          },
          {
            "number": 11,
            "ticks": 4726,
            "time": 11.815,
            "value": 0.3543307086614173
          },
          {
            "number": 11,
            "ticks": 4730,
            "time": 11.825,
            "value": 0.3464566929133858
          },
          {
            "number": 11,
            "ticks": 4733,
            "time": 11.832500000000001,
            "value": 0.33858267716535434
          },
          {
            "number": 11,
            "ticks": 4736,
            "time": 11.84,
            "value": 0.33070866141732286
          },
          {
            "number": 11,
            "ticks": 4740,
            "time": 11.85,
            "value": 0.31496062992125984
          },
          {
            "number": 11,
            "ticks": 4743,
            "time": 11.8575,
            "value": 0.30708661417322836
          },
          {
            "number": 11,
            "ticks": 4746,
            "time": 11.864999999999998,
            "value": 0.2992125984251969
          },
          {
            "number": 11,
            "ticks": 4750,
            "time": 11.875,
            "value": 0.29133858267716534
          },
          {
            "number": 11,
            "ticks": 4753,
            "time": 11.8825,
            "value": 0.28346456692913385
          },
          {
            "number": 11,
            "ticks": 4756,
            "time": 11.889999999999999,
            "value": 0.2755905511811024
          },
          {
            "number": 11,
            "ticks": 4760,
            "time": 11.899999999999999,
            "value": 0.2677165354330709
          },
          {
            "number": 11,
            "ticks": 4763,
            "time": 11.9075,
            "value": 0.25984251968503935
          },
          {
            "number": 11,
            "ticks": 4766,
            "time": 11.915000000000001,
            "value": 0.25196850393700787
          },
          {
            "number": 11,
            "ticks": 4770,
            "time": 11.924999999999999,
            "value": 0.23622047244094488
          },
          {
            "number": 11,
            "ticks": 4773,
            "time": 11.9325,
            "value": 0.2283464566929134
          },
          {
            "number": 11,
            "ticks": 4776,
            "time": 11.94,
            "value": 0.2204724409448819
          },
          {
            "number": 11,
            "ticks": 4780,
            "time": 11.950000000000001,
            "value": 0.2125984251968504
          },
          {
            "number": 11,
            "ticks": 4783,
            "time": 11.9575,
            "value": 0.2047244094488189
          },
          {
            "number": 11,
            "ticks": 4786,
            "time": 11.965,
            "value": 0.1968503937007874
          },
          {
            "number": 11,
            "ticks": 4790,
            "time": 11.975,
            "value": 0.1889763779527559
          },
          {
            "number": 11,
            "ticks": 4793,
            "time": 11.9825,
            "value": 0.18110236220472442
          },
          {
            "number": 11,
            "ticks": 4796,
            "time": 11.99,
            "value": 0.1732283464566929
          },
          {
            "number": 11,
            "ticks": 4800,
            "time": 12,
            "value": 0.15748031496062992
          },
          {
            "number": 11,
            "ticks": 4803,
            "time": 12.007499999999999,
            "value": 0.14960629921259844
          },
          {
            "number": 11,
            "ticks": 4806,
            "time": 12.014999999999999,
            "value": 0.14173228346456693
          },
          {
            "number": 11,
            "ticks": 4810,
            "time": 12.025,
            "value": 0.13385826771653545
          },
          {
            "number": 11,
            "ticks": 4813,
            "time": 12.0325,
            "value": 0.12598425196850394
          },
          {
            "number": 11,
            "ticks": 4816,
            "time": 12.04,
            "value": 0.11811023622047244
          },
          {
            "number": 11,
            "ticks": 4820,
            "time": 12.049999999999999,
            "value": 0.11023622047244094
          },
          {
            "number": 11,
            "ticks": 4823,
            "time": 12.057500000000001,
            "value": 0.10236220472440945
          },
          {
            "number": 11,
            "ticks": 4826,
            "time": 12.065,
            "value": 0.09448818897637795
          },
          {
            "number": 11,
            "ticks": 4830,
            "time": 12.075,
            "value": 0.07874015748031496
          },
          {
            "number": 11,
            "ticks": 4833,
            "time": 12.0825,
            "value": 0.07086614173228346
          },
          {
            "number": 11,
            "ticks": 4836,
            "time": 12.089999999999998,
            "value": 0.06299212598425197
          },
          {
            "number": 11,
            "ticks": 4840,
            "time": 12.1,
            "value": 0.05511811023622047
          },
          {
            "number": 11,
            "ticks": 4843,
            "time": 12.1075,
            "value": 0.047244094488188976
          },
          {
            "number": 11,
            "ticks": 4846,
            "time": 12.115,
            "value": 0.03937007874015748
          },
          {
            "number": 11,
            "ticks": 4850,
            "time": 12.124999999999998,
            "value": 0.031496062992125984
          },
          {
            "number": 11,
            "ticks": 4853,
            "time": 12.1325,
            "value": 0.023622047244094488
          },
          {
            "number": 11,
            "ticks": 4856,
            "time": 12.14,
            "value": 0.015748031496062992
          },
          {
            "number": 11,
            "ticks": 4860,
            "time": 12.15,
            "value": 0.7874015748031497
          },
          {
            "number": 11,
            "ticks": 11040,
            "time": 27.599999999999998,
            "value": 0.7874015748031497
          },
          {
            "number": 11,
            "ticks": 11280,
            "time": 28.2,
            "value": 0.7874015748031497
          },
          {
            "number": 11,
            "ticks": 11283,
            "time": 28.207499999999996,
            "value": 0.7795275590551181
          },
          {
            "number": 11,
            "ticks": 11286,
            "time": 28.214999999999996,
            "value": 0.7716535433070866
          },
          {
            "number": 11,
            "ticks": 11290,
            "time": 28.224999999999998,
            "value": 0.7637795275590551
          },
          {
            "number": 11,
            "ticks": 11293,
            "time": 28.232499999999998,
            "value": 0.7559055118110236
          },
          {
            "number": 11,
            "ticks": 11296,
            "time": 28.24,
            "value": 0.7480314960629921
          },
          {
            "number": 11,
            "ticks": 11300,
            "time": 28.249999999999996,
            "value": 0.7401574803149606
          },
          {
            "number": 11,
            "ticks": 11303,
            "time": 28.257499999999997,
            "value": 0.7322834645669292
          },
          {
            "number": 11,
            "ticks": 11306,
            "time": 28.264999999999997,
            "value": 0.7244094488188977
          },
          {
            "number": 11,
            "ticks": 11310,
            "time": 28.275,
            "value": 0.7086614173228346
          },
          {
            "number": 11,
            "ticks": 11313,
            "time": 28.2825,
            "value": 0.7007874015748031
          },
          {
            "number": 11,
            "ticks": 11316,
            "time": 28.29,
            "value": 0.6929133858267716
          },
          {
            "number": 11,
            "ticks": 11320,
            "time": 28.299999999999997,
            "value": 0.6850393700787402
          },
          {
            "number": 11,
            "ticks": 11323,
            "time": 28.307499999999997,
            "value": 0.6771653543307087
          },
          {
            "number": 11,
            "ticks": 11326,
            "time": 28.314999999999998,
            "value": 0.6692913385826772
          },
          {
            "number": 11,
            "ticks": 11330,
            "time": 28.325,
            "value": 0.6614173228346457
          },
          {
            "number": 11,
            "ticks": 11333,
            "time": 28.3325,
            "value": 0.6535433070866141
          },
          {
            "number": 11,
            "ticks": 11336,
            "time": 28.339999999999996,
            "value": 0.6456692913385826
          },
          {
            "number": 11,
            "ticks": 11340,
            "time": 28.349999999999998,
            "value": 0.6299212598425197
          },
          {
            "number": 11,
            "ticks": 11343,
            "time": 28.357499999999998,
            "value": 0.6220472440944882
          },
          {
            "number": 11,
            "ticks": 11346,
            "time": 28.365,
            "value": 0.6141732283464567
          },
          {
            "number": 11,
            "ticks": 11350,
            "time": 28.374999999999996,
            "value": 0.6062992125984252
          },
          {
            "number": 11,
            "ticks": 11353,
            "time": 28.382499999999997,
            "value": 0.5984251968503937
          },
          {
            "number": 11,
            "ticks": 11356,
            "time": 28.389999999999997,
            "value": 0.5905511811023622
          },
          {
            "number": 11,
            "ticks": 11360,
            "time": 28.4,
            "value": 0.5826771653543307
          },
          {
            "number": 11,
            "ticks": 11363,
            "time": 28.4075,
            "value": 0.5748031496062992
          },
          {
            "number": 11,
            "ticks": 11366,
            "time": 28.415,
            "value": 0.5669291338582677
          },
          {
            "number": 11,
            "ticks": 11370,
            "time": 28.424999999999997,
            "value": 0.5511811023622047
          },
          {
            "number": 11,
            "ticks": 11373,
            "time": 28.432499999999997,
            "value": 0.5433070866141733
          },
          {
            "number": 11,
            "ticks": 11376,
            "time": 28.439999999999998,
            "value": 0.5354330708661418
          },
          {
            "number": 11,
            "ticks": 11380,
            "time": 28.45,
            "value": 0.5275590551181102
          },
          {
            "number": 11,
            "ticks": 11383,
            "time": 28.4575,
            "value": 0.5196850393700787
          },
          {
            "number": 11,
            "ticks": 11386,
            "time": 28.464999999999996,
            "value": 0.5118110236220472
          },
          {
            "number": 11,
            "ticks": 11390,
            "time": 28.474999999999998,
            "value": 0.5039370078740157
          },
          {
            "number": 11,
            "ticks": 11393,
            "time": 28.482499999999998,
            "value": 0.49606299212598426
          },
          {
            "number": 11,
            "ticks": 11396,
            "time": 28.49,
            "value": 0.4881889763779528
          },
          {
            "number": 11,
            "ticks": 11400,
            "time": 28.499999999999996,
            "value": 0.47244094488188976
          },
          {
            "number": 11,
            "ticks": 11403,
            "time": 28.507499999999997,
            "value": 0.4645669291338583
          },
          {
            "number": 11,
            "ticks": 11406,
            "time": 28.514999999999997,
            "value": 0.4566929133858268
          },
          {
            "number": 11,
            "ticks": 11410,
            "time": 28.525,
            "value": 0.44881889763779526
          },
          {
            "number": 11,
            "ticks": 11413,
            "time": 28.5325,
            "value": 0.4409448818897638
          },
          {
            "number": 11,
            "ticks": 11416,
            "time": 28.54,
            "value": 0.4330708661417323
          },
          {
            "number": 11,
            "ticks": 11420,
            "time": 28.549999999999997,
            "value": 0.4251968503937008
          },
          {
            "number": 11,
            "ticks": 11423,
            "time": 28.557499999999997,
            "value": 0.41732283464566927
          },
          {
            "number": 11,
            "ticks": 11426,
            "time": 28.564999999999998,
            "value": 0.4094488188976378
          },
          {
            "number": 11,
            "ticks": 11430,
            "time": 28.575,
            "value": 0.3937007874015748
          },
          {
            "number": 11,
            "ticks": 11433,
            "time": 28.582499999999996,
            "value": 0.3858267716535433
          },
          {
            "number": 11,
            "ticks": 11436,
            "time": 28.589999999999996,
            "value": 0.3779527559055118
          },
          {
            "number": 11,
            "ticks": 11440,
            "time": 28.599999999999998,
            "value": 0.3700787401574803
          },
          {
            "number": 11,
            "ticks": 11443,
            "time": 28.607499999999998,
            "value": 0.36220472440944884
          },
          {
            "number": 11,
            "ticks": 11446,
            "time": 28.615,
            "value": 0.3543307086614173
          },
          {
            "number": 11,
            "ticks": 11450,
            "time": 28.624999999999996,
            "value": 0.3464566929133858
          },
          {
            "number": 11,
            "ticks": 11453,
            "time": 28.632499999999997,
            "value": 0.33858267716535434
          },
          {
            "number": 11,
            "ticks": 11456,
            "time": 28.639999999999997,
            "value": 0.33070866141732286
          },
          {
            "number": 11,
            "ticks": 11460,
            "time": 28.65,
            "value": 0.31496062992125984
          },
          {
            "number": 11,
            "ticks": 11463,
            "time": 28.6575,
            "value": 0.30708661417322836
          },
          {
            "number": 11,
            "ticks": 11466,
            "time": 28.665,
            "value": 0.2992125984251969
          },
          {
            "number": 11,
            "ticks": 11470,
            "time": 28.674999999999997,
            "value": 0.29133858267716534
          },
          {
            "number": 11,
            "ticks": 11473,
            "time": 28.682499999999997,
            "value": 0.28346456692913385
          },
          {
            "number": 11,
            "ticks": 11476,
            "time": 28.689999999999998,
            "value": 0.2755905511811024
          },
          {
            "number": 11,
            "ticks": 11480,
            "time": 28.7,
            "value": 0.2677165354330709
          },
          {
            "number": 11,
            "ticks": 11483,
            "time": 28.707499999999996,
            "value": 0.25984251968503935
          },
          {
            "number": 11,
            "ticks": 11486,
            "time": 28.714999999999996,
            "value": 0.25196850393700787
          },
          {
            "number": 11,
            "ticks": 11490,
            "time": 28.724999999999998,
            "value": 0.23622047244094488
          },
          {
            "number": 11,
            "ticks": 11493,
            "time": 28.732499999999998,
            "value": 0.2283464566929134
          },
          {
            "number": 11,
            "ticks": 11496,
            "time": 28.74,
            "value": 0.2204724409448819
          },
          {
            "number": 11,
            "ticks": 11500,
            "time": 28.749999999999996,
            "value": 0.2125984251968504
          },
          {
            "number": 11,
            "ticks": 11503,
            "time": 28.757499999999997,
            "value": 0.2047244094488189
          },
          {
            "number": 11,
            "ticks": 11506,
            "time": 28.764999999999997,
            "value": 0.1968503937007874
          },
          {
            "number": 11,
            "ticks": 11510,
            "time": 28.775,
            "value": 0.1889763779527559
          },
          {
            "number": 11,
            "ticks": 11513,
            "time": 28.7825,
            "value": 0.18110236220472442
          },
          {
            "number": 11,
            "ticks": 11516,
            "time": 28.79,
            "value": 0.1732283464566929
          },
          {
            "number": 11,
            "ticks": 11520,
            "time": 28.799999999999997,
            "value": 0.15748031496062992
          },
          {
            "number": 11,
            "ticks": 11523,
            "time": 28.807499999999997,
            "value": 0.14960629921259844
          },
          {
            "number": 11,
            "ticks": 11526,
            "time": 28.814999999999998,
            "value": 0.14173228346456693
          },
          {
            "number": 11,
            "ticks": 11530,
            "time": 28.825,
            "value": 0.13385826771653545
          },
          {
            "number": 11,
            "ticks": 11533,
            "time": 28.832499999999996,
            "value": 0.12598425196850394
          },
          {
            "number": 11,
            "ticks": 11536,
            "time": 28.839999999999996,
            "value": 0.11811023622047244
          },
          {
            "number": 11,
            "ticks": 11540,
            "time": 28.849999999999998,
            "value": 0.11023622047244094
          },
          {
            "number": 11,
            "ticks": 11543,
            "time": 28.857499999999998,
            "value": 0.10236220472440945
          },
          {
            "number": 11,
            "ticks": 11546,
            "time": 28.865,
            "value": 0.09448818897637795
          },
          {
            "number": 11,
            "ticks": 11550,
            "time": 28.874999999999996,
            "value": 0.07874015748031496
          },
          {
            "number": 11,
            "ticks": 11553,
            "time": 28.882499999999997,
            "value": 0.07086614173228346
          },
          {
            "number": 11,
            "ticks": 11556,
            "time": 28.889999999999997,
            "value": 0.06299212598425197
          },
          {
            "number": 11,
            "ticks": 11560,
            "time": 28.9,
            "value": 0.05511811023622047
          },
          {
            "number": 11,
            "ticks": 11563,
            "time": 28.9075,
            "value": 0.047244094488188976
          },
          {
            "number": 11,
            "ticks": 11566,
            "time": 28.915,
            "value": 0.03937007874015748
          },
          {
            "number": 11,
            "ticks": 11570,
            "time": 28.924999999999997,
            "value": 0.031496062992125984
          },
          {
            "number": 11,
            "ticks": 11573,
            "time": 28.932499999999997,
            "value": 0.023622047244094488
          },
          {
            "number": 11,
            "ticks": 11576,
            "time": 28.939999999999998,
            "value": 0.015748031496062992
          },
          {
            "number": 11,
            "ticks": 11580,
            "time": 28.95,
            "value": 0.7874015748031497
          },
          {
            "number": 11,
            "ticks": 11700,
            "time": 29.249999999999996,
            "value": 0.7874015748031497
          },
          {
            "number": 11,
            "ticks": 11703,
            "time": 29.257499999999997,
            "value": 0.7795275590551181
          },
          {
            "number": 11,
            "ticks": 11706,
            "time": 29.264999999999997,
            "value": 0.7716535433070866
          },
          {
            "number": 11,
            "ticks": 11710,
            "time": 29.275,
            "value": 0.7637795275590551
          },
          {
            "number": 11,
            "ticks": 11713,
            "time": 29.2825,
            "value": 0.7559055118110236
          },
          {
            "number": 11,
            "ticks": 11716,
            "time": 29.29,
            "value": 0.7480314960629921
          },
          {
            "number": 11,
            "ticks": 11720,
            "time": 29.299999999999997,
            "value": 0.7401574803149606
          },
          {
            "number": 11,
            "ticks": 11723,
            "time": 29.307499999999997,
            "value": 0.7322834645669292
          },
          {
            "number": 11,
            "ticks": 11726,
            "time": 29.314999999999998,
            "value": 0.7244094488188977
          },
          {
            "number": 11,
            "ticks": 11730,
            "time": 29.325,
            "value": 0.7086614173228346
          },
          {
            "number": 11,
            "ticks": 11733,
            "time": 29.3325,
            "value": 0.7007874015748031
          },
          {
            "number": 11,
            "ticks": 11736,
            "time": 29.339999999999996,
            "value": 0.6929133858267716
          },
          {
            "number": 11,
            "ticks": 11740,
            "time": 29.349999999999998,
            "value": 0.6850393700787402
          },
          {
            "number": 11,
            "ticks": 11743,
            "time": 29.357499999999998,
            "value": 0.6771653543307087
          },
          {
            "number": 11,
            "ticks": 11746,
            "time": 29.365,
            "value": 0.6692913385826772
          },
          {
            "number": 11,
            "ticks": 11750,
            "time": 29.374999999999996,
            "value": 0.6614173228346457
          },
          {
            "number": 11,
            "ticks": 11753,
            "time": 29.382499999999997,
            "value": 0.6535433070866141
          },
          {
            "number": 11,
            "ticks": 11756,
            "time": 29.389999999999997,
            "value": 0.6456692913385826
          },
          {
            "number": 11,
            "ticks": 11760,
            "time": 29.4,
            "value": 0.7874015748031497
          },
          {
            "number": 11,
            "ticks": 11820,
            "time": 29.549999999999997,
            "value": 0.7874015748031497
          },
          {
            "number": 11,
            "ticks": 11823,
            "time": 29.557499999999997,
            "value": 0.7795275590551181
          },
          {
            "number": 11,
            "ticks": 11826,
            "time": 29.564999999999998,
            "value": 0.7716535433070866
          },
          {
            "number": 11,
            "ticks": 11830,
            "time": 29.575,
            "value": 0.7637795275590551
          },
          {
            "number": 11,
            "ticks": 11833,
            "time": 29.582499999999996,
            "value": 0.7559055118110236
          },
          {
            "number": 11,
            "ticks": 11836,
            "time": 29.589999999999996,
            "value": 0.7480314960629921
          },
          {
            "number": 11,
            "ticks": 11840,
            "time": 29.599999999999998,
            "value": 0.7401574803149606
          },
          {
            "number": 11,
            "ticks": 11843,
            "time": 29.607499999999998,
            "value": 0.7322834645669292
          },
          {
            "number": 11,
            "ticks": 11846,
            "time": 29.615,
            "value": 0.7244094488188977
          },
          {
            "number": 11,
            "ticks": 11850,
            "time": 29.624999999999996,
            "value": 0.7086614173228346
          },
          {
            "number": 11,
            "ticks": 11853,
            "time": 29.632499999999997,
            "value": 0.7007874015748031
          },
          {
            "number": 11,
            "ticks": 11856,
            "time": 29.639999999999997,
            "value": 0.6929133858267716
          },
          {
            "number": 11,
            "ticks": 11860,
            "time": 29.65,
            "value": 0.6850393700787402
          },
          {
            "number": 11,
            "ticks": 11863,
            "time": 29.6575,
            "value": 0.6771653543307087
          },
          {
            "number": 11,
            "ticks": 11866,
            "time": 29.665,
            "value": 0.6692913385826772
          },
          {
            "number": 11,
            "ticks": 11870,
            "time": 29.674999999999997,
            "value": 0.6614173228346457
          },
          {
            "number": 11,
            "ticks": 11873,
            "time": 29.682499999999997,
            "value": 0.6535433070866141
          },
          {
            "number": 11,
            "ticks": 11876,
            "time": 29.689999999999998,
            "value": 0.6456692913385826
          },
          {
            "number": 11,
            "ticks": 11880,
            "time": 29.7,
            "value": 0.7874015748031497
          },
          {
            "number": 11,
            "ticks": 12240,
            "time": 30.599999999999998,
            "value": 0.7874015748031497
          },
          {
            "number": 11,
            "ticks": 12243,
            "time": 30.607499999999998,
            "value": 0.7795275590551181
          },
          {
            "number": 11,
            "ticks": 12246,
            "time": 30.615,
            "value": 0.7716535433070866
          },
          {
            "number": 11,
            "ticks": 12250,
            "time": 30.624999999999996,
            "value": 0.7637795275590551
          },
          {
            "number": 11,
            "ticks": 12253,
            "time": 30.632499999999997,
            "value": 0.7559055118110236
          },
          {
            "number": 11,
            "ticks": 12256,
            "time": 30.639999999999997,
            "value": 0.7480314960629921
          },
          {
            "number": 11,
            "ticks": 12260,
            "time": 30.65,
            "value": 0.7401574803149606
          },
          {
            "number": 11,
            "ticks": 12263,
            "time": 30.6575,
            "value": 0.7322834645669292
          },
          {
            "number": 11,
            "ticks": 12266,
            "time": 30.665,
            "value": 0.7244094488188977
          },
          {
            "number": 11,
            "ticks": 12270,
            "time": 30.674999999999997,
            "value": 0.7086614173228346
          },
          {
            "number": 11,
            "ticks": 12273,
            "time": 30.682499999999997,
            "value": 0.7007874015748031
          },
          {
            "number": 11,
            "ticks": 12276,
            "time": 30.689999999999998,
            "value": 0.6929133858267716
          },
          {
            "number": 11,
            "ticks": 12280,
            "time": 30.7,
            "value": 0.6850393700787402
          },
          {
            "number": 11,
            "ticks": 12283,
            "time": 30.707499999999996,
            "value": 0.6771653543307087
          },
          {
            "number": 11,
            "ticks": 12286,
            "time": 30.714999999999996,
            "value": 0.6692913385826772
          },
          {
            "number": 11,
            "ticks": 12290,
            "time": 30.724999999999998,
            "value": 0.6614173228346457
          },
          {
            "number": 11,
            "ticks": 12293,
            "time": 30.732499999999998,
            "value": 0.6535433070866141
          },
          {
            "number": 11,
            "ticks": 12296,
            "time": 30.74,
            "value": 0.6456692913385826
          },
          {
            "number": 11,
            "ticks": 12300,
            "time": 30.749999999999996,
            "value": 0.6299212598425197
          },
          {
            "number": 11,
            "ticks": 12303,
            "time": 30.757499999999997,
            "value": 0.6220472440944882
          },
          {
            "number": 11,
            "ticks": 12306,
            "time": 30.764999999999997,
            "value": 0.6141732283464567
          },
          {
            "number": 11,
            "ticks": 12310,
            "time": 30.775,
            "value": 0.6062992125984252
          },
          {
            "number": 11,
            "ticks": 12313,
            "time": 30.7825,
            "value": 0.5984251968503937
          },
          {
            "number": 11,
            "ticks": 12316,
            "time": 30.79,
            "value": 0.5905511811023622
          },
          {
            "number": 11,
            "ticks": 12320,
            "time": 30.799999999999997,
            "value": 0.5826771653543307
          },
          {
            "number": 11,
            "ticks": 12323,
            "time": 30.807499999999997,
            "value": 0.5748031496062992
          },
          {
            "number": 11,
            "ticks": 12326,
            "time": 30.814999999999998,
            "value": 0.5669291338582677
          },
          {
            "number": 11,
            "ticks": 12330,
            "time": 30.825,
            "value": 0.5511811023622047
          },
          {
            "number": 11,
            "ticks": 12333,
            "time": 30.832499999999996,
            "value": 0.5433070866141733
          },
          {
            "number": 11,
            "ticks": 12336,
            "time": 30.839999999999996,
            "value": 0.5354330708661418
          },
          {
            "number": 11,
            "ticks": 12340,
            "time": 30.849999999999998,
            "value": 0.5275590551181102
          },
          {
            "number": 11,
            "ticks": 12343,
            "time": 30.857499999999998,
            "value": 0.5196850393700787
          },
          {
            "number": 11,
            "ticks": 12346,
            "time": 30.865,
            "value": 0.5118110236220472
          },
          {
            "number": 11,
            "ticks": 12350,
            "time": 30.874999999999996,
            "value": 0.5039370078740157
          },
          {
            "number": 11,
            "ticks": 12353,
            "time": 30.882499999999997,
            "value": 0.49606299212598426
          },
          {
            "number": 11,
            "ticks": 12356,
            "time": 30.889999999999997,
            "value": 0.4881889763779528
          },
          {
            "number": 11,
            "ticks": 12360,
            "time": 30.9,
            "value": 0.7874015748031497
          },
          {
            "number": 11,
            "ticks": 12420,
            "time": 31.049999999999997,
            "value": 0.7874015748031497
          },
          {
            "number": 11,
            "ticks": 12423,
            "time": 31.057499999999997,
            "value": 0.7795275590551181
          },
          {
            "number": 11,
            "ticks": 12426,
            "time": 31.064999999999998,
            "value": 0.7716535433070866
          },
          {
            "number": 11,
            "ticks": 12430,
            "time": 31.075,
            "value": 0.7637795275590551
          },
          {
            "number": 11,
            "ticks": 12433,
            "time": 31.082499999999996,
            "value": 0.7559055118110236
          },
          {
            "number": 11,
            "ticks": 12436,
            "time": 31.089999999999996,
            "value": 0.7480314960629921
          },
          {
            "number": 11,
            "ticks": 12440,
            "time": 31.099999999999998,
            "value": 0.7401574803149606
          },
          {
            "number": 11,
            "ticks": 12443,
            "time": 31.107499999999998,
            "value": 0.7322834645669292
          },
          {
            "number": 11,
            "ticks": 12446,
            "time": 31.115,
            "value": 0.7244094488188977
          },
          {
            "number": 11,
            "ticks": 12450,
            "time": 31.124999999999996,
            "value": 0.7086614173228346
          },
          {
            "number": 11,
            "ticks": 12453,
            "time": 31.132499999999997,
            "value": 0.7007874015748031
          },
          {
            "number": 11,
            "ticks": 12456,
            "time": 31.139999999999997,
            "value": 0.6929133858267716
          },
          {
            "number": 11,
            "ticks": 12460,
            "time": 31.15,
            "value": 0.6850393700787402
          },
          {
            "number": 11,
            "ticks": 12463,
            "time": 31.1575,
            "value": 0.6771653543307087
          },
          {
            "number": 11,
            "ticks": 12466,
            "time": 31.165,
            "value": 0.6692913385826772
          },
          {
            "number": 11,
            "ticks": 12470,
            "time": 31.174999999999997,
            "value": 0.6614173228346457
          },
          {
            "number": 11,
            "ticks": 12473,
            "time": 31.182499999999997,
            "value": 0.6535433070866141
          },
          {
            "number": 11,
            "ticks": 12476,
            "time": 31.189999999999998,
            "value": 0.6456692913385826
          },
          {
            "number": 11,
            "ticks": 12480,
            "time": 31.199999999999996,
            "value": 0.7874015748031497
          },
          {
            "number": 11,
            "ticks": 12900,
            "time": 32.25,
            "value": 0.7874015748031497
          },
          {
            "number": 11,
            "ticks": 12903,
            "time": 32.2575,
            "value": 0.7795275590551181
          },
          {
            "number": 11,
            "ticks": 12906,
            "time": 32.265,
            "value": 0.7716535433070866
          },
          {
            "number": 11,
            "ticks": 12910,
            "time": 32.275,
            "value": 0.7637795275590551
          },
          {
            "number": 11,
            "ticks": 12913,
            "time": 32.2825,
            "value": 0.7559055118110236
          },
          {
            "number": 11,
            "ticks": 12916,
            "time": 32.29,
            "value": 0.7480314960629921
          },
          {
            "number": 11,
            "ticks": 12920,
            "time": 32.3,
            "value": 0.7401574803149606
          },
          {
            "number": 11,
            "ticks": 12923,
            "time": 32.3075,
            "value": 0.7322834645669292
          },
          {
            "number": 11,
            "ticks": 12926,
            "time": 32.315,
            "value": 0.7244094488188977
          },
          {
            "number": 11,
            "ticks": 12930,
            "time": 32.324999999999996,
            "value": 0.7086614173228346
          },
          {
            "number": 11,
            "ticks": 12933,
            "time": 32.332499999999996,
            "value": 0.7007874015748031
          },
          {
            "number": 11,
            "ticks": 12936,
            "time": 32.339999999999996,
            "value": 0.6929133858267716
          },
          {
            "number": 11,
            "ticks": 12940,
            "time": 32.349999999999994,
            "value": 0.6850393700787402
          },
          {
            "number": 11,
            "ticks": 12943,
            "time": 32.357499999999995,
            "value": 0.6771653543307087
          },
          {
            "number": 11,
            "ticks": 12946,
            "time": 32.364999999999995,
            "value": 0.6692913385826772
          },
          {
            "number": 11,
            "ticks": 12950,
            "time": 32.375,
            "value": 0.6614173228346457
          },
          {
            "number": 11,
            "ticks": 12953,
            "time": 32.3825,
            "value": 0.6535433070866141
          },
          {
            "number": 11,
            "ticks": 12956,
            "time": 32.39,
            "value": 0.6456692913385826
          },
          {
            "number": 11,
            "ticks": 12960,
            "time": 32.4,
            "value": 0.7874015748031497
          },
          {
            "number": 11,
            "ticks": 13200,
            "time": 33,
            "value": 0.7874015748031497
          },
          {
            "number": 11,
            "ticks": 13203,
            "time": 33.0075,
            "value": 0.7795275590551181
          },
          {
            "number": 11,
            "ticks": 13206,
            "time": 33.015,
            "value": 0.7716535433070866
          },
          {
            "number": 11,
            "ticks": 13210,
            "time": 33.025,
            "value": 0.7637795275590551
          },
          {
            "number": 11,
            "ticks": 13213,
            "time": 33.0325,
            "value": 0.7559055118110236
          },
          {
            "number": 11,
            "ticks": 13216,
            "time": 33.04,
            "value": 0.7480314960629921
          },
          {
            "number": 11,
            "ticks": 13220,
            "time": 33.05,
            "value": 0.7401574803149606
          },
          {
            "number": 11,
            "ticks": 13223,
            "time": 33.0575,
            "value": 0.7322834645669292
          },
          {
            "number": 11,
            "ticks": 13226,
            "time": 33.065,
            "value": 0.7244094488188977
          },
          {
            "number": 11,
            "ticks": 13230,
            "time": 33.074999999999996,
            "value": 0.7086614173228346
          },
          {
            "number": 11,
            "ticks": 13233,
            "time": 33.082499999999996,
            "value": 0.7007874015748031
          },
          {
            "number": 11,
            "ticks": 13236,
            "time": 33.089999999999996,
            "value": 0.6929133858267716
          },
          {
            "number": 11,
            "ticks": 13240,
            "time": 33.099999999999994,
            "value": 0.6850393700787402
          },
          {
            "number": 11,
            "ticks": 13243,
            "time": 33.1075,
            "value": 0.6771653543307087
          },
          {
            "number": 11,
            "ticks": 13246,
            "time": 33.114999999999995,
            "value": 0.6692913385826772
          },
          {
            "number": 11,
            "ticks": 13250,
            "time": 33.125,
            "value": 0.6614173228346457
          },
          {
            "number": 11,
            "ticks": 13253,
            "time": 33.1325,
            "value": 0.6535433070866141
          },
          {
            "number": 11,
            "ticks": 13256,
            "time": 33.14,
            "value": 0.6456692913385826
          },
          {
            "number": 11,
            "ticks": 13260,
            "time": 33.15,
            "value": 0.6299212598425197
          },
          {
            "number": 11,
            "ticks": 13263,
            "time": 33.1575,
            "value": 0.6220472440944882
          },
          {
            "number": 11,
            "ticks": 13266,
            "time": 33.165,
            "value": 0.6141732283464567
          },
          {
            "number": 11,
            "ticks": 13270,
            "time": 33.175,
            "value": 0.6062992125984252
          },
          {
            "number": 11,
            "ticks": 13273,
            "time": 33.1825,
            "value": 0.5984251968503937
          },
          {
            "number": 11,
            "ticks": 13276,
            "time": 33.19,
            "value": 0.5905511811023622
          },
          {
            "number": 11,
            "ticks": 13280,
            "time": 33.199999999999996,
            "value": 0.5826771653543307
          },
          {
            "number": 11,
            "ticks": 13283,
            "time": 33.207499999999996,
            "value": 0.5748031496062992
          },
          {
            "number": 11,
            "ticks": 13286,
            "time": 33.214999999999996,
            "value": 0.5669291338582677
          },
          {
            "number": 11,
            "ticks": 13290,
            "time": 33.224999999999994,
            "value": 0.5511811023622047
          },
          {
            "number": 11,
            "ticks": 13293,
            "time": 33.232499999999995,
            "value": 0.5433070866141733
          },
          {
            "number": 11,
            "ticks": 13296,
            "time": 33.239999999999995,
            "value": 0.5354330708661418
          },
          {
            "number": 11,
            "ticks": 13300,
            "time": 33.25,
            "value": 0.5275590551181102
          },
          {
            "number": 11,
            "ticks": 13303,
            "time": 33.2575,
            "value": 0.5196850393700787
          },
          {
            "number": 11,
            "ticks": 13306,
            "time": 33.265,
            "value": 0.5118110236220472
          },
          {
            "number": 11,
            "ticks": 13310,
            "time": 33.275,
            "value": 0.5039370078740157
          },
          {
            "number": 11,
            "ticks": 13313,
            "time": 33.2825,
            "value": 0.49606299212598426
          },
          {
            "number": 11,
            "ticks": 13316,
            "time": 33.29,
            "value": 0.4881889763779528
          },
          {
            "number": 11,
            "ticks": 13320,
            "time": 33.3,
            "value": 0.47244094488188976
          },
          {
            "number": 11,
            "ticks": 13323,
            "time": 33.3075,
            "value": 0.4645669291338583
          },
          {
            "number": 11,
            "ticks": 13326,
            "time": 33.315,
            "value": 0.4566929133858268
          },
          {
            "number": 11,
            "ticks": 13330,
            "time": 33.324999999999996,
            "value": 0.44881889763779526
          },
          {
            "number": 11,
            "ticks": 13333,
            "time": 33.332499999999996,
            "value": 0.4409448818897638
          },
          {
            "number": 11,
            "ticks": 13336,
            "time": 33.339999999999996,
            "value": 0.4330708661417323
          },
          {
            "number": 11,
            "ticks": 13340,
            "time": 33.349999999999994,
            "value": 0.4251968503937008
          },
          {
            "number": 11,
            "ticks": 13343,
            "time": 33.357499999999995,
            "value": 0.41732283464566927
          },
          {
            "number": 11,
            "ticks": 13346,
            "time": 33.364999999999995,
            "value": 0.4094488188976378
          },
          {
            "number": 11,
            "ticks": 13350,
            "time": 33.375,
            "value": 0.3937007874015748
          },
          {
            "number": 11,
            "ticks": 13353,
            "time": 33.3825,
            "value": 0.3858267716535433
          },
          {
            "number": 11,
            "ticks": 13356,
            "time": 33.39,
            "value": 0.3779527559055118
          },
          {
            "number": 11,
            "ticks": 13360,
            "time": 33.4,
            "value": 0.3700787401574803
          },
          {
            "number": 11,
            "ticks": 13363,
            "time": 33.4075,
            "value": 0.36220472440944884
          },
          {
            "number": 11,
            "ticks": 13366,
            "time": 33.415,
            "value": 0.3543307086614173
          },
          {
            "number": 11,
            "ticks": 13370,
            "time": 33.425,
            "value": 0.3464566929133858
          },
          {
            "number": 11,
            "ticks": 13373,
            "time": 33.4325,
            "value": 0.33858267716535434
          },
          {
            "number": 11,
            "ticks": 13376,
            "time": 33.44,
            "value": 0.33070866141732286
          },
          {
            "number": 11,
            "ticks": 13380,
            "time": 33.449999999999996,
            "value": 0.31496062992125984
          },
          {
            "number": 11,
            "ticks": 13383,
            "time": 33.457499999999996,
            "value": 0.30708661417322836
          },
          {
            "number": 11,
            "ticks": 13386,
            "time": 33.464999999999996,
            "value": 0.2992125984251969
          },
          {
            "number": 11,
            "ticks": 13390,
            "time": 33.474999999999994,
            "value": 0.29133858267716534
          },
          {
            "number": 11,
            "ticks": 13393,
            "time": 33.4825,
            "value": 0.28346456692913385
          },
          {
            "number": 11,
            "ticks": 13396,
            "time": 33.489999999999995,
            "value": 0.2755905511811024
          },
          {
            "number": 11,
            "ticks": 13400,
            "time": 33.5,
            "value": 0.2677165354330709
          },
          {
            "number": 11,
            "ticks": 13403,
            "time": 33.5075,
            "value": 0.25984251968503935
          },
          {
            "number": 11,
            "ticks": 13406,
            "time": 33.515,
            "value": 0.25196850393700787
          },
          {
            "number": 11,
            "ticks": 13410,
            "time": 33.525,
            "value": 0.23622047244094488
          },
          {
            "number": 11,
            "ticks": 13413,
            "time": 33.5325,
            "value": 0.2283464566929134
          },
          {
            "number": 11,
            "ticks": 13416,
            "time": 33.54,
            "value": 0.2204724409448819
          },
          {
            "number": 11,
            "ticks": 13420,
            "time": 33.55,
            "value": 0.2125984251968504
          },
          {
            "number": 11,
            "ticks": 13423,
            "time": 33.5575,
            "value": 0.2047244094488189
          },
          {
            "number": 11,
            "ticks": 13426,
            "time": 33.565,
            "value": 0.1968503937007874
          },
          {
            "number": 11,
            "ticks": 13430,
            "time": 33.574999999999996,
            "value": 0.1889763779527559
          },
          {
            "number": 11,
            "ticks": 13433,
            "time": 33.582499999999996,
            "value": 0.18110236220472442
          },
          {
            "number": 11,
            "ticks": 13436,
            "time": 33.589999999999996,
            "value": 0.1732283464566929
          },
          {
            "number": 11,
            "ticks": 13440,
            "time": 33.599999999999994,
            "value": 0.15748031496062992
          },
          {
            "number": 11,
            "ticks": 13443,
            "time": 33.607499999999995,
            "value": 0.14960629921259844
          },
          {
            "number": 11,
            "ticks": 13446,
            "time": 33.614999999999995,
            "value": 0.14173228346456693
          },
          {
            "number": 11,
            "ticks": 13450,
            "time": 33.625,
            "value": 0.13385826771653545
          },
          {
            "number": 11,
            "ticks": 13453,
            "time": 33.6325,
            "value": 0.12598425196850394
          },
          {
            "number": 11,
            "ticks": 13456,
            "time": 33.64,
            "value": 0.11811023622047244
          },
          {
            "number": 11,
            "ticks": 13460,
            "time": 33.65,
            "value": 0.11023622047244094
          },
          {
            "number": 11,
            "ticks": 13463,
            "time": 33.6575,
            "value": 0.10236220472440945
          },
          {
            "number": 11,
            "ticks": 13466,
            "time": 33.665,
            "value": 0.09448818897637795
          },
          {
            "number": 11,
            "ticks": 13470,
            "time": 33.675,
            "value": 0.07874015748031496
          },
          {
            "number": 11,
            "ticks": 13473,
            "time": 33.6825,
            "value": 0.07086614173228346
          },
          {
            "number": 11,
            "ticks": 13476,
            "time": 33.69,
            "value": 0.06299212598425197
          },
          {
            "number": 11,
            "ticks": 13480,
            "time": 33.699999999999996,
            "value": 0.05511811023622047
          },
          {
            "number": 11,
            "ticks": 13483,
            "time": 33.707499999999996,
            "value": 0.047244094488188976
          },
          {
            "number": 11,
            "ticks": 13486,
            "time": 33.714999999999996,
            "value": 0.03937007874015748
          },
          {
            "number": 11,
            "ticks": 13490,
            "time": 33.724999999999994,
            "value": 0.031496062992125984
          },
          {
            "number": 11,
            "ticks": 13493,
            "time": 33.732499999999995,
            "value": 0.023622047244094488
          },
          {
            "number": 11,
            "ticks": 13496,
            "time": 33.739999999999995,
            "value": 0.015748031496062992
          },
          {
            "number": 11,
            "ticks": 13500,
            "time": 33.75,
            "value": 0.7874015748031497
          },
          {
            "number": 11,
            "ticks": 13620,
            "time": 34.05,
            "value": 0.7874015748031497
          },
          {
            "number": 11,
            "ticks": 13623,
            "time": 34.0575,
            "value": 0.7795275590551181
          },
          {
            "number": 11,
            "ticks": 13626,
            "time": 34.065,
            "value": 0.7716535433070866
          },
          {
            "number": 11,
            "ticks": 13630,
            "time": 34.074999999999996,
            "value": 0.7637795275590551
          },
          {
            "number": 11,
            "ticks": 13633,
            "time": 34.082499999999996,
            "value": 0.7559055118110236
          },
          {
            "number": 11,
            "ticks": 13636,
            "time": 34.089999999999996,
            "value": 0.7480314960629921
          },
          {
            "number": 11,
            "ticks": 13640,
            "time": 34.099999999999994,
            "value": 0.7401574803149606
          },
          {
            "number": 11,
            "ticks": 13643,
            "time": 34.107499999999995,
            "value": 0.7322834645669292
          },
          {
            "number": 11,
            "ticks": 13646,
            "time": 34.114999999999995,
            "value": 0.7244094488188977
          },
          {
            "number": 11,
            "ticks": 13650,
            "time": 34.125,
            "value": 0.7086614173228346
          },
          {
            "number": 11,
            "ticks": 13653,
            "time": 34.1325,
            "value": 0.7007874015748031
          },
          {
            "number": 11,
            "ticks": 13656,
            "time": 34.14,
            "value": 0.6929133858267716
          },
          {
            "number": 11,
            "ticks": 13660,
            "time": 34.15,
            "value": 0.6850393700787402
          },
          {
            "number": 11,
            "ticks": 13663,
            "time": 34.1575,
            "value": 0.6771653543307087
          },
          {
            "number": 11,
            "ticks": 13666,
            "time": 34.165,
            "value": 0.6692913385826772
          },
          {
            "number": 11,
            "ticks": 13670,
            "time": 34.175,
            "value": 0.6614173228346457
          },
          {
            "number": 11,
            "ticks": 13673,
            "time": 34.1825,
            "value": 0.6535433070866141
          },
          {
            "number": 11,
            "ticks": 13676,
            "time": 34.19,
            "value": 0.6456692913385826
          },
          {
            "number": 11,
            "ticks": 13680,
            "time": 34.199999999999996,
            "value": 0.7874015748031497
          },
          {
            "number": 11,
            "ticks": 13740,
            "time": 34.349999999999994,
            "value": 0.7874015748031497
          },
          {
            "number": 11,
            "ticks": 13743,
            "time": 34.357499999999995,
            "value": 0.7795275590551181
          },
          {
            "number": 11,
            "ticks": 13746,
            "time": 34.364999999999995,
            "value": 0.7716535433070866
          },
          {
            "number": 11,
            "ticks": 13750,
            "time": 34.375,
            "value": 0.7637795275590551
          },
          {
            "number": 11,
            "ticks": 13753,
            "time": 34.3825,
            "value": 0.7559055118110236
          },
          {
            "number": 11,
            "ticks": 13756,
            "time": 34.39,
            "value": 0.7480314960629921
          },
          {
            "number": 11,
            "ticks": 13760,
            "time": 34.4,
            "value": 0.7401574803149606
          },
          {
            "number": 11,
            "ticks": 13763,
            "time": 34.4075,
            "value": 0.7322834645669292
          },
          {
            "number": 11,
            "ticks": 13766,
            "time": 34.415,
            "value": 0.7244094488188977
          },
          {
            "number": 11,
            "ticks": 13770,
            "time": 34.425,
            "value": 0.7086614173228346
          },
          {
            "number": 11,
            "ticks": 13773,
            "time": 34.4325,
            "value": 0.7007874015748031
          },
          {
            "number": 11,
            "ticks": 13776,
            "time": 34.44,
            "value": 0.6929133858267716
          },
          {
            "number": 11,
            "ticks": 13780,
            "time": 34.449999999999996,
            "value": 0.6850393700787402
          },
          {
            "number": 11,
            "ticks": 13783,
            "time": 34.457499999999996,
            "value": 0.6771653543307087
          },
          {
            "number": 11,
            "ticks": 13786,
            "time": 34.464999999999996,
            "value": 0.6692913385826772
          },
          {
            "number": 11,
            "ticks": 13790,
            "time": 34.474999999999994,
            "value": 0.6614173228346457
          },
          {
            "number": 11,
            "ticks": 13793,
            "time": 34.482499999999995,
            "value": 0.6535433070866141
          },
          {
            "number": 11,
            "ticks": 13796,
            "time": 34.489999999999995,
            "value": 0.6456692913385826
          },
          {
            "number": 11,
            "ticks": 13800,
            "time": 34.5,
            "value": 0.7874015748031497
          },
          {
            "number": 11,
            "ticks": 14160,
            "time": 35.4,
            "value": 0.7874015748031497
          },
          {
            "number": 11,
            "ticks": 14163,
            "time": 35.4075,
            "value": 0.7795275590551181
          },
          {
            "number": 11,
            "ticks": 14166,
            "time": 35.415,
            "value": 0.7716535433070866
          },
          {
            "number": 11,
            "ticks": 14170,
            "time": 35.425,
            "value": 0.7637795275590551
          },
          {
            "number": 11,
            "ticks": 14173,
            "time": 35.4325,
            "value": 0.7559055118110236
          },
          {
            "number": 11,
            "ticks": 14176,
            "time": 35.44,
            "value": 0.7480314960629921
          },
          {
            "number": 11,
            "ticks": 14180,
            "time": 35.449999999999996,
            "value": 0.7401574803149606
          },
          {
            "number": 11,
            "ticks": 14183,
            "time": 35.457499999999996,
            "value": 0.7322834645669292
          },
          {
            "number": 11,
            "ticks": 14186,
            "time": 35.464999999999996,
            "value": 0.7244094488188977
          },
          {
            "number": 11,
            "ticks": 14190,
            "time": 35.474999999999994,
            "value": 0.7086614173228346
          },
          {
            "number": 11,
            "ticks": 14193,
            "time": 35.482499999999995,
            "value": 0.7007874015748031
          },
          {
            "number": 11,
            "ticks": 14196,
            "time": 35.489999999999995,
            "value": 0.6929133858267716
          },
          {
            "number": 11,
            "ticks": 14200,
            "time": 35.5,
            "value": 0.6850393700787402
          },
          {
            "number": 11,
            "ticks": 14203,
            "time": 35.5075,
            "value": 0.6771653543307087
          },
          {
            "number": 11,
            "ticks": 14206,
            "time": 35.515,
            "value": 0.6692913385826772
          },
          {
            "number": 11,
            "ticks": 14210,
            "time": 35.525,
            "value": 0.6614173228346457
          },
          {
            "number": 11,
            "ticks": 14213,
            "time": 35.5325,
            "value": 0.6535433070866141
          },
          {
            "number": 11,
            "ticks": 14216,
            "time": 35.54,
            "value": 0.6456692913385826
          },
          {
            "number": 11,
            "ticks": 14220,
            "time": 35.55,
            "value": 0.6299212598425197
          },
          {
            "number": 11,
            "ticks": 14223,
            "time": 35.5575,
            "value": 0.6220472440944882
          },
          {
            "number": 11,
            "ticks": 14226,
            "time": 35.565,
            "value": 0.6141732283464567
          },
          {
            "number": 11,
            "ticks": 14230,
            "time": 35.574999999999996,
            "value": 0.6062992125984252
          },
          {
            "number": 11,
            "ticks": 14233,
            "time": 35.582499999999996,
            "value": 0.5984251968503937
          },
          {
            "number": 11,
            "ticks": 14236,
            "time": 35.589999999999996,
            "value": 0.5905511811023622
          },
          {
            "number": 11,
            "ticks": 14240,
            "time": 35.599999999999994,
            "value": 0.5826771653543307
          },
          {
            "number": 11,
            "ticks": 14243,
            "time": 35.6075,
            "value": 0.5748031496062992
          },
          {
            "number": 11,
            "ticks": 14246,
            "time": 35.614999999999995,
            "value": 0.5669291338582677
          },
          {
            "number": 11,
            "ticks": 14250,
            "time": 35.625,
            "value": 0.5511811023622047
          },
          {
            "number": 11,
            "ticks": 14253,
            "time": 35.63249999999999,
            "value": 0.5433070866141733
          },
          {
            "number": 11,
            "ticks": 14256,
            "time": 35.64,
            "value": 0.5354330708661418
          },
          {
            "number": 11,
            "ticks": 14260,
            "time": 35.65,
            "value": 0.5275590551181102
          },
          {
            "number": 11,
            "ticks": 14263,
            "time": 35.6575,
            "value": 0.5196850393700787
          },
          {
            "number": 11,
            "ticks": 14266,
            "time": 35.665,
            "value": 0.5118110236220472
          },
          {
            "number": 11,
            "ticks": 14270,
            "time": 35.675,
            "value": 0.5039370078740157
          },
          {
            "number": 11,
            "ticks": 14273,
            "time": 35.6825,
            "value": 0.49606299212598426
          },
          {
            "number": 11,
            "ticks": 14276,
            "time": 35.69,
            "value": 0.4881889763779528
          },
          {
            "number": 11,
            "ticks": 14280,
            "time": 35.699999999999996,
            "value": 0.47244094488188976
          },
          {
            "number": 11,
            "ticks": 14283,
            "time": 35.707499999999996,
            "value": 0.4645669291338583
          },
          {
            "number": 11,
            "ticks": 14286,
            "time": 35.714999999999996,
            "value": 0.4566929133858268
          },
          {
            "number": 11,
            "ticks": 14290,
            "time": 35.724999999999994,
            "value": 0.44881889763779526
          },
          {
            "number": 11,
            "ticks": 14293,
            "time": 35.7325,
            "value": 0.4409448818897638
          },
          {
            "number": 11,
            "ticks": 14296,
            "time": 35.739999999999995,
            "value": 0.4330708661417323
          },
          {
            "number": 11,
            "ticks": 14300,
            "time": 35.75,
            "value": 0.4251968503937008
          },
          {
            "number": 11,
            "ticks": 14303,
            "time": 35.75749999999999,
            "value": 0.41732283464566927
          },
          {
            "number": 11,
            "ticks": 14306,
            "time": 35.765,
            "value": 0.4094488188976378
          },
          {
            "number": 11,
            "ticks": 14310,
            "time": 35.775,
            "value": 0.3937007874015748
          },
          {
            "number": 11,
            "ticks": 14313,
            "time": 35.7825,
            "value": 0.3858267716535433
          },
          {
            "number": 11,
            "ticks": 14316,
            "time": 35.79,
            "value": 0.3779527559055118
          },
          {
            "number": 11,
            "ticks": 14320,
            "time": 35.8,
            "value": 0.3700787401574803
          },
          {
            "number": 11,
            "ticks": 14323,
            "time": 35.8075,
            "value": 0.36220472440944884
          },
          {
            "number": 11,
            "ticks": 14326,
            "time": 35.815,
            "value": 0.3543307086614173
          },
          {
            "number": 11,
            "ticks": 14330,
            "time": 35.824999999999996,
            "value": 0.3464566929133858
          },
          {
            "number": 11,
            "ticks": 14333,
            "time": 35.832499999999996,
            "value": 0.33858267716535434
          },
          {
            "number": 11,
            "ticks": 14336,
            "time": 35.839999999999996,
            "value": 0.33070866141732286
          },
          {
            "number": 11,
            "ticks": 14340,
            "time": 35.849999999999994,
            "value": 0.31496062992125984
          },
          {
            "number": 11,
            "ticks": 14343,
            "time": 35.857499999999995,
            "value": 0.30708661417322836
          },
          {
            "number": 11,
            "ticks": 14346,
            "time": 35.864999999999995,
            "value": 0.2992125984251969
          },
          {
            "number": 11,
            "ticks": 14350,
            "time": 35.875,
            "value": 0.29133858267716534
          },
          {
            "number": 11,
            "ticks": 14353,
            "time": 35.8825,
            "value": 0.28346456692913385
          },
          {
            "number": 11,
            "ticks": 14356,
            "time": 35.89,
            "value": 0.2755905511811024
          },
          {
            "number": 11,
            "ticks": 14360,
            "time": 35.9,
            "value": 0.2677165354330709
          },
          {
            "number": 11,
            "ticks": 14363,
            "time": 35.9075,
            "value": 0.25984251968503935
          },
          {
            "number": 11,
            "ticks": 14366,
            "time": 35.915,
            "value": 0.25196850393700787
          },
          {
            "number": 11,
            "ticks": 14370,
            "time": 35.925,
            "value": 0.23622047244094488
          },
          {
            "number": 11,
            "ticks": 14373,
            "time": 35.9325,
            "value": 0.2283464566929134
          },
          {
            "number": 11,
            "ticks": 14376,
            "time": 35.94,
            "value": 0.2204724409448819
          },
          {
            "number": 11,
            "ticks": 14380,
            "time": 35.949999999999996,
            "value": 0.2125984251968504
          },
          {
            "number": 11,
            "ticks": 14383,
            "time": 35.957499999999996,
            "value": 0.2047244094488189
          },
          {
            "number": 11,
            "ticks": 14386,
            "time": 35.964999999999996,
            "value": 0.1968503937007874
          },
          {
            "number": 11,
            "ticks": 14390,
            "time": 35.974999999999994,
            "value": 0.1889763779527559
          },
          {
            "number": 11,
            "ticks": 14393,
            "time": 35.9825,
            "value": 0.18110236220472442
          },
          {
            "number": 11,
            "ticks": 14396,
            "time": 35.989999999999995,
            "value": 0.1732283464566929
          },
          {
            "number": 11,
            "ticks": 14400,
            "time": 36,
            "value": 0.15748031496062992
          },
          {
            "number": 11,
            "ticks": 14403,
            "time": 36.00749999999999,
            "value": 0.14960629921259844
          },
          {
            "number": 11,
            "ticks": 14406,
            "time": 36.015,
            "value": 0.14173228346456693
          },
          {
            "number": 11,
            "ticks": 14410,
            "time": 36.025,
            "value": 0.13385826771653545
          },
          {
            "number": 11,
            "ticks": 14413,
            "time": 36.0325,
            "value": 0.12598425196850394
          },
          {
            "number": 11,
            "ticks": 14416,
            "time": 36.04,
            "value": 0.11811023622047244
          },
          {
            "number": 11,
            "ticks": 14420,
            "time": 36.05,
            "value": 0.11023622047244094
          },
          {
            "number": 11,
            "ticks": 14423,
            "time": 36.0575,
            "value": 0.10236220472440945
          },
          {
            "number": 11,
            "ticks": 14426,
            "time": 36.065,
            "value": 0.09448818897637795
          },
          {
            "number": 11,
            "ticks": 14430,
            "time": 36.074999999999996,
            "value": 0.07874015748031496
          },
          {
            "number": 11,
            "ticks": 14433,
            "time": 36.082499999999996,
            "value": 0.07086614173228346
          },
          {
            "number": 11,
            "ticks": 14436,
            "time": 36.089999999999996,
            "value": 0.06299212598425197
          },
          {
            "number": 11,
            "ticks": 14440,
            "time": 36.099999999999994,
            "value": 0.05511811023622047
          },
          {
            "number": 11,
            "ticks": 14443,
            "time": 36.1075,
            "value": 0.047244094488188976
          },
          {
            "number": 11,
            "ticks": 14446,
            "time": 36.114999999999995,
            "value": 0.03937007874015748
          },
          {
            "number": 11,
            "ticks": 14450,
            "time": 36.125,
            "value": 0.031496062992125984
          },
          {
            "number": 11,
            "ticks": 14453,
            "time": 36.13249999999999,
            "value": 0.023622047244094488
          },
          {
            "number": 11,
            "ticks": 14456,
            "time": 36.14,
            "value": 0.015748031496062992
          },
          {
            "number": 11,
            "ticks": 14460,
            "time": 36.15,
            "value": 0.7874015748031497
          },
          {
            "number": 11,
            "ticks": 20640,
            "time": 51.599999999999994,
            "value": 0.7874015748031497
          },
          {
            "number": 11,
            "ticks": 20880,
            "time": 52.199999999999996,
            "value": 0.7874015748031497
          },
          {
            "number": 11,
            "ticks": 20883,
            "time": 52.207499999999996,
            "value": 0.7795275590551181
          },
          {
            "number": 11,
            "ticks": 20886,
            "time": 52.214999999999996,
            "value": 0.7716535433070866
          },
          {
            "number": 11,
            "ticks": 20890,
            "time": 52.224999999999994,
            "value": 0.7637795275590551
          },
          {
            "number": 11,
            "ticks": 20893,
            "time": 52.232499999999995,
            "value": 0.7559055118110236
          },
          {
            "number": 11,
            "ticks": 20896,
            "time": 52.239999999999995,
            "value": 0.7480314960629921
          },
          {
            "number": 11,
            "ticks": 20900,
            "time": 52.24999999999999,
            "value": 0.7401574803149606
          },
          {
            "number": 11,
            "ticks": 20903,
            "time": 52.25749999999999,
            "value": 0.7322834645669292
          },
          {
            "number": 11,
            "ticks": 20906,
            "time": 52.26499999999999,
            "value": 0.7244094488188977
          },
          {
            "number": 11,
            "ticks": 20910,
            "time": 52.27499999999999,
            "value": 0.7086614173228346
          },
          {
            "number": 11,
            "ticks": 20913,
            "time": 52.28249999999999,
            "value": 0.7007874015748031
          },
          {
            "number": 11,
            "ticks": 20916,
            "time": 52.28999999999999,
            "value": 0.6929133858267716
          },
          {
            "number": 11,
            "ticks": 20920,
            "time": 52.3,
            "value": 0.6850393700787402
          },
          {
            "number": 11,
            "ticks": 20923,
            "time": 52.3075,
            "value": 0.6771653543307087
          },
          {
            "number": 11,
            "ticks": 20926,
            "time": 52.315,
            "value": 0.6692913385826772
          },
          {
            "number": 11,
            "ticks": 20930,
            "time": 52.324999999999996,
            "value": 0.6614173228346457
          },
          {
            "number": 11,
            "ticks": 20933,
            "time": 52.332499999999996,
            "value": 0.6535433070866141
          },
          {
            "number": 11,
            "ticks": 20936,
            "time": 52.339999999999996,
            "value": 0.6456692913385826
          },
          {
            "number": 11,
            "ticks": 20940,
            "time": 52.349999999999994,
            "value": 0.6299212598425197
          },
          {
            "number": 11,
            "ticks": 20943,
            "time": 52.357499999999995,
            "value": 0.6220472440944882
          },
          {
            "number": 11,
            "ticks": 20946,
            "time": 52.364999999999995,
            "value": 0.6141732283464567
          },
          {
            "number": 11,
            "ticks": 20950,
            "time": 52.37499999999999,
            "value": 0.6062992125984252
          },
          {
            "number": 11,
            "ticks": 20953,
            "time": 52.38249999999999,
            "value": 0.5984251968503937
          },
          {
            "number": 11,
            "ticks": 20956,
            "time": 52.38999999999999,
            "value": 0.5905511811023622
          },
          {
            "number": 11,
            "ticks": 20960,
            "time": 52.39999999999999,
            "value": 0.5826771653543307
          },
          {
            "number": 11,
            "ticks": 20963,
            "time": 52.40749999999999,
            "value": 0.5748031496062992
          },
          {
            "number": 11,
            "ticks": 20966,
            "time": 52.41499999999999,
            "value": 0.5669291338582677
          },
          {
            "number": 11,
            "ticks": 20970,
            "time": 52.425,
            "value": 0.5511811023622047
          },
          {
            "number": 11,
            "ticks": 20973,
            "time": 52.4325,
            "value": 0.5433070866141733
          },
          {
            "number": 11,
            "ticks": 20976,
            "time": 52.44,
            "value": 0.5354330708661418
          },
          {
            "number": 11,
            "ticks": 20980,
            "time": 52.449999999999996,
            "value": 0.5275590551181102
          },
          {
            "number": 11,
            "ticks": 20983,
            "time": 52.457499999999996,
            "value": 0.5196850393700787
          },
          {
            "number": 11,
            "ticks": 20986,
            "time": 52.464999999999996,
            "value": 0.5118110236220472
          },
          {
            "number": 11,
            "ticks": 20990,
            "time": 52.474999999999994,
            "value": 0.5039370078740157
          },
          {
            "number": 11,
            "ticks": 20993,
            "time": 52.482499999999995,
            "value": 0.49606299212598426
          },
          {
            "number": 11,
            "ticks": 20996,
            "time": 52.489999999999995,
            "value": 0.4881889763779528
          },
          {
            "number": 11,
            "ticks": 21000,
            "time": 52.49999999999999,
            "value": 0.47244094488188976
          },
          {
            "number": 11,
            "ticks": 21003,
            "time": 52.50749999999999,
            "value": 0.4645669291338583
          },
          {
            "number": 11,
            "ticks": 21006,
            "time": 52.51499999999999,
            "value": 0.4566929133858268
          },
          {
            "number": 11,
            "ticks": 21010,
            "time": 52.52499999999999,
            "value": 0.44881889763779526
          },
          {
            "number": 11,
            "ticks": 21013,
            "time": 52.53249999999999,
            "value": 0.4409448818897638
          },
          {
            "number": 11,
            "ticks": 21016,
            "time": 52.53999999999999,
            "value": 0.4330708661417323
          },
          {
            "number": 11,
            "ticks": 21020,
            "time": 52.55,
            "value": 0.4251968503937008
          },
          {
            "number": 11,
            "ticks": 21023,
            "time": 52.5575,
            "value": 0.41732283464566927
          },
          {
            "number": 11,
            "ticks": 21026,
            "time": 52.565,
            "value": 0.4094488188976378
          },
          {
            "number": 11,
            "ticks": 21030,
            "time": 52.574999999999996,
            "value": 0.3937007874015748
          },
          {
            "number": 11,
            "ticks": 21033,
            "time": 52.582499999999996,
            "value": 0.3858267716535433
          },
          {
            "number": 11,
            "ticks": 21036,
            "time": 52.589999999999996,
            "value": 0.3779527559055118
          },
          {
            "number": 11,
            "ticks": 21040,
            "time": 52.599999999999994,
            "value": 0.3700787401574803
          },
          {
            "number": 11,
            "ticks": 21043,
            "time": 52.607499999999995,
            "value": 0.36220472440944884
          },
          {
            "number": 11,
            "ticks": 21046,
            "time": 52.614999999999995,
            "value": 0.3543307086614173
          },
          {
            "number": 11,
            "ticks": 21050,
            "time": 52.62499999999999,
            "value": 0.3464566929133858
          },
          {
            "number": 11,
            "ticks": 21053,
            "time": 52.63249999999999,
            "value": 0.33858267716535434
          },
          {
            "number": 11,
            "ticks": 21056,
            "time": 52.63999999999999,
            "value": 0.33070866141732286
          },
          {
            "number": 11,
            "ticks": 21060,
            "time": 52.64999999999999,
            "value": 0.31496062992125984
          },
          {
            "number": 11,
            "ticks": 21063,
            "time": 52.65749999999999,
            "value": 0.30708661417322836
          },
          {
            "number": 11,
            "ticks": 21066,
            "time": 52.66499999999999,
            "value": 0.2992125984251969
          },
          {
            "number": 11,
            "ticks": 21070,
            "time": 52.675,
            "value": 0.29133858267716534
          },
          {
            "number": 11,
            "ticks": 21073,
            "time": 52.6825,
            "value": 0.28346456692913385
          },
          {
            "number": 11,
            "ticks": 21076,
            "time": 52.69,
            "value": 0.2755905511811024
          },
          {
            "number": 11,
            "ticks": 21080,
            "time": 52.699999999999996,
            "value": 0.2677165354330709
          },
          {
            "number": 11,
            "ticks": 21083,
            "time": 52.707499999999996,
            "value": 0.25984251968503935
          },
          {
            "number": 11,
            "ticks": 21086,
            "time": 52.714999999999996,
            "value": 0.25196850393700787
          },
          {
            "number": 11,
            "ticks": 21090,
            "time": 52.724999999999994,
            "value": 0.23622047244094488
          },
          {
            "number": 11,
            "ticks": 21093,
            "time": 52.732499999999995,
            "value": 0.2283464566929134
          },
          {
            "number": 11,
            "ticks": 21096,
            "time": 52.739999999999995,
            "value": 0.2204724409448819
          },
          {
            "number": 11,
            "ticks": 21100,
            "time": 52.74999999999999,
            "value": 0.2125984251968504
          },
          {
            "number": 11,
            "ticks": 21103,
            "time": 52.75749999999999,
            "value": 0.2047244094488189
          },
          {
            "number": 11,
            "ticks": 21106,
            "time": 52.76499999999999,
            "value": 0.1968503937007874
          },
          {
            "number": 11,
            "ticks": 21110,
            "time": 52.77499999999999,
            "value": 0.1889763779527559
          },
          {
            "number": 11,
            "ticks": 21113,
            "time": 52.78249999999999,
            "value": 0.18110236220472442
          },
          {
            "number": 11,
            "ticks": 21116,
            "time": 52.78999999999999,
            "value": 0.1732283464566929
          },
          {
            "number": 11,
            "ticks": 21120,
            "time": 52.8,
            "value": 0.15748031496062992
          },
          {
            "number": 11,
            "ticks": 21123,
            "time": 52.8075,
            "value": 0.14960629921259844
          },
          {
            "number": 11,
            "ticks": 21126,
            "time": 52.815,
            "value": 0.14173228346456693
          },
          {
            "number": 11,
            "ticks": 21130,
            "time": 52.824999999999996,
            "value": 0.13385826771653545
          },
          {
            "number": 11,
            "ticks": 21133,
            "time": 52.832499999999996,
            "value": 0.12598425196850394
          },
          {
            "number": 11,
            "ticks": 21136,
            "time": 52.839999999999996,
            "value": 0.11811023622047244
          },
          {
            "number": 11,
            "ticks": 21140,
            "time": 52.849999999999994,
            "value": 0.11023622047244094
          },
          {
            "number": 11,
            "ticks": 21143,
            "time": 52.857499999999995,
            "value": 0.10236220472440945
          },
          {
            "number": 11,
            "ticks": 21146,
            "time": 52.864999999999995,
            "value": 0.09448818897637795
          },
          {
            "number": 11,
            "ticks": 21150,
            "time": 52.87499999999999,
            "value": 0.07874015748031496
          },
          {
            "number": 11,
            "ticks": 21153,
            "time": 52.88249999999999,
            "value": 0.07086614173228346
          },
          {
            "number": 11,
            "ticks": 21156,
            "time": 52.88999999999999,
            "value": 0.06299212598425197
          },
          {
            "number": 11,
            "ticks": 21160,
            "time": 52.89999999999999,
            "value": 0.05511811023622047
          },
          {
            "number": 11,
            "ticks": 21163,
            "time": 52.90749999999999,
            "value": 0.047244094488188976
          },
          {
            "number": 11,
            "ticks": 21166,
            "time": 52.91499999999999,
            "value": 0.03937007874015748
          },
          {
            "number": 11,
            "ticks": 21170,
            "time": 52.925,
            "value": 0.031496062992125984
          },
          {
            "number": 11,
            "ticks": 21173,
            "time": 52.9325,
            "value": 0.023622047244094488
          },
          {
            "number": 11,
            "ticks": 21176,
            "time": 52.94,
            "value": 0.015748031496062992
          },
          {
            "number": 11,
            "ticks": 21180,
            "time": 52.949999999999996,
            "value": 0.7874015748031497
          },
          {
            "number": 11,
            "ticks": 21300,
            "time": 53.24999999999999,
            "value": 0.7874015748031497
          },
          {
            "number": 11,
            "ticks": 21303,
            "time": 53.25749999999999,
            "value": 0.7795275590551181
          },
          {
            "number": 11,
            "ticks": 21306,
            "time": 53.26499999999999,
            "value": 0.7716535433070866
          },
          {
            "number": 11,
            "ticks": 21310,
            "time": 53.27499999999999,
            "value": 0.7637795275590551
          },
          {
            "number": 11,
            "ticks": 21313,
            "time": 53.28249999999999,
            "value": 0.7559055118110236
          },
          {
            "number": 11,
            "ticks": 21316,
            "time": 53.28999999999999,
            "value": 0.7480314960629921
          },
          {
            "number": 11,
            "ticks": 21320,
            "time": 53.3,
            "value": 0.7401574803149606
          },
          {
            "number": 11,
            "ticks": 21323,
            "time": 53.3075,
            "value": 0.7322834645669292
          },
          {
            "number": 11,
            "ticks": 21326,
            "time": 53.315,
            "value": 0.7244094488188977
          },
          {
            "number": 11,
            "ticks": 21330,
            "time": 53.324999999999996,
            "value": 0.7086614173228346
          },
          {
            "number": 11,
            "ticks": 21333,
            "time": 53.332499999999996,
            "value": 0.7007874015748031
          },
          {
            "number": 11,
            "ticks": 21336,
            "time": 53.339999999999996,
            "value": 0.6929133858267716
          },
          {
            "number": 11,
            "ticks": 21340,
            "time": 53.349999999999994,
            "value": 0.6850393700787402
          },
          {
            "number": 11,
            "ticks": 21343,
            "time": 53.357499999999995,
            "value": 0.6771653543307087
          },
          {
            "number": 11,
            "ticks": 21346,
            "time": 53.364999999999995,
            "value": 0.6692913385826772
          },
          {
            "number": 11,
            "ticks": 21350,
            "time": 53.37499999999999,
            "value": 0.6614173228346457
          },
          {
            "number": 11,
            "ticks": 21353,
            "time": 53.38249999999999,
            "value": 0.6535433070866141
          },
          {
            "number": 11,
            "ticks": 21356,
            "time": 53.38999999999999,
            "value": 0.6456692913385826
          },
          {
            "number": 11,
            "ticks": 21360,
            "time": 53.39999999999999,
            "value": 0.7874015748031497
          },
          {
            "number": 11,
            "ticks": 21420,
            "time": 53.55,
            "value": 0.7874015748031497
          },
          {
            "number": 11,
            "ticks": 21423,
            "time": 53.5575,
            "value": 0.7795275590551181
          },
          {
            "number": 11,
            "ticks": 21426,
            "time": 53.565,
            "value": 0.7716535433070866
          },
          {
            "number": 11,
            "ticks": 21430,
            "time": 53.574999999999996,
            "value": 0.7637795275590551
          },
          {
            "number": 11,
            "ticks": 21433,
            "time": 53.582499999999996,
            "value": 0.7559055118110236
          },
          {
            "number": 11,
            "ticks": 21436,
            "time": 53.589999999999996,
            "value": 0.7480314960629921
          },
          {
            "number": 11,
            "ticks": 21440,
            "time": 53.599999999999994,
            "value": 0.7401574803149606
          },
          {
            "number": 11,
            "ticks": 21443,
            "time": 53.607499999999995,
            "value": 0.7322834645669292
          },
          {
            "number": 11,
            "ticks": 21446,
            "time": 53.614999999999995,
            "value": 0.7244094488188977
          },
          {
            "number": 11,
            "ticks": 21450,
            "time": 53.62499999999999,
            "value": 0.7086614173228346
          },
          {
            "number": 11,
            "ticks": 21453,
            "time": 53.63249999999999,
            "value": 0.7007874015748031
          },
          {
            "number": 11,
            "ticks": 21456,
            "time": 53.63999999999999,
            "value": 0.6929133858267716
          },
          {
            "number": 11,
            "ticks": 21460,
            "time": 53.64999999999999,
            "value": 0.6850393700787402
          },
          {
            "number": 11,
            "ticks": 21463,
            "time": 53.65749999999999,
            "value": 0.6771653543307087
          },
          {
            "number": 11,
            "ticks": 21466,
            "time": 53.66499999999999,
            "value": 0.6692913385826772
          },
          {
            "number": 11,
            "ticks": 21470,
            "time": 53.675,
            "value": 0.6614173228346457
          },
          {
            "number": 11,
            "ticks": 21473,
            "time": 53.6825,
            "value": 0.6535433070866141
          },
          {
            "number": 11,
            "ticks": 21476,
            "time": 53.69,
            "value": 0.6456692913385826
          },
          {
            "number": 11,
            "ticks": 21480,
            "time": 53.699999999999996,
            "value": 0.7874015748031497
          },
          {
            "number": 11,
            "ticks": 21840,
            "time": 54.599999999999994,
            "value": 0.7874015748031497
          },
          {
            "number": 11,
            "ticks": 21843,
            "time": 54.607499999999995,
            "value": 0.7795275590551181
          },
          {
            "number": 11,
            "ticks": 21846,
            "time": 54.614999999999995,
            "value": 0.7716535433070866
          },
          {
            "number": 11,
            "ticks": 21850,
            "time": 54.62499999999999,
            "value": 0.7637795275590551
          },
          {
            "number": 11,
            "ticks": 21853,
            "time": 54.63249999999999,
            "value": 0.7559055118110236
          },
          {
            "number": 11,
            "ticks": 21856,
            "time": 54.63999999999999,
            "value": 0.7480314960629921
          },
          {
            "number": 11,
            "ticks": 21860,
            "time": 54.64999999999999,
            "value": 0.7401574803149606
          },
          {
            "number": 11,
            "ticks": 21863,
            "time": 54.65749999999999,
            "value": 0.7322834645669292
          },
          {
            "number": 11,
            "ticks": 21866,
            "time": 54.66499999999999,
            "value": 0.7244094488188977
          },
          {
            "number": 11,
            "ticks": 21870,
            "time": 54.675,
            "value": 0.7086614173228346
          },
          {
            "number": 11,
            "ticks": 21873,
            "time": 54.6825,
            "value": 0.7007874015748031
          },
          {
            "number": 11,
            "ticks": 21876,
            "time": 54.69,
            "value": 0.6929133858267716
          },
          {
            "number": 11,
            "ticks": 21880,
            "time": 54.699999999999996,
            "value": 0.6850393700787402
          },
          {
            "number": 11,
            "ticks": 21883,
            "time": 54.707499999999996,
            "value": 0.6771653543307087
          },
          {
            "number": 11,
            "ticks": 21886,
            "time": 54.714999999999996,
            "value": 0.6692913385826772
          },
          {
            "number": 11,
            "ticks": 21890,
            "time": 54.724999999999994,
            "value": 0.6614173228346457
          },
          {
            "number": 11,
            "ticks": 21893,
            "time": 54.732499999999995,
            "value": 0.6535433070866141
          },
          {
            "number": 11,
            "ticks": 21896,
            "time": 54.739999999999995,
            "value": 0.6456692913385826
          },
          {
            "number": 11,
            "ticks": 21900,
            "time": 54.74999999999999,
            "value": 0.6299212598425197
          },
          {
            "number": 11,
            "ticks": 21903,
            "time": 54.75749999999999,
            "value": 0.6220472440944882
          },
          {
            "number": 11,
            "ticks": 21906,
            "time": 54.76499999999999,
            "value": 0.6141732283464567
          },
          {
            "number": 11,
            "ticks": 21910,
            "time": 54.77499999999999,
            "value": 0.6062992125984252
          },
          {
            "number": 11,
            "ticks": 21913,
            "time": 54.78249999999999,
            "value": 0.5984251968503937
          },
          {
            "number": 11,
            "ticks": 21916,
            "time": 54.78999999999999,
            "value": 0.5905511811023622
          },
          {
            "number": 11,
            "ticks": 21920,
            "time": 54.8,
            "value": 0.5826771653543307
          },
          {
            "number": 11,
            "ticks": 21923,
            "time": 54.8075,
            "value": 0.5748031496062992
          },
          {
            "number": 11,
            "ticks": 21926,
            "time": 54.815,
            "value": 0.5669291338582677
          },
          {
            "number": 11,
            "ticks": 21930,
            "time": 54.824999999999996,
            "value": 0.5511811023622047
          },
          {
            "number": 11,
            "ticks": 21933,
            "time": 54.832499999999996,
            "value": 0.5433070866141733
          },
          {
            "number": 11,
            "ticks": 21936,
            "time": 54.839999999999996,
            "value": 0.5354330708661418
          },
          {
            "number": 11,
            "ticks": 21940,
            "time": 54.849999999999994,
            "value": 0.5275590551181102
          },
          {
            "number": 11,
            "ticks": 21943,
            "time": 54.857499999999995,
            "value": 0.5196850393700787
          },
          {
            "number": 11,
            "ticks": 21946,
            "time": 54.864999999999995,
            "value": 0.5118110236220472
          },
          {
            "number": 11,
            "ticks": 21950,
            "time": 54.87499999999999,
            "value": 0.5039370078740157
          },
          {
            "number": 11,
            "ticks": 21953,
            "time": 54.88249999999999,
            "value": 0.49606299212598426
          },
          {
            "number": 11,
            "ticks": 21956,
            "time": 54.88999999999999,
            "value": 0.4881889763779528
          },
          {
            "number": 11,
            "ticks": 21960,
            "time": 54.89999999999999,
            "value": 0.7874015748031497
          },
          {
            "number": 11,
            "ticks": 22020,
            "time": 55.05,
            "value": 0.7874015748031497
          },
          {
            "number": 11,
            "ticks": 22023,
            "time": 55.0575,
            "value": 0.7795275590551181
          },
          {
            "number": 11,
            "ticks": 22026,
            "time": 55.065,
            "value": 0.7716535433070866
          },
          {
            "number": 11,
            "ticks": 22030,
            "time": 55.074999999999996,
            "value": 0.7637795275590551
          },
          {
            "number": 11,
            "ticks": 22033,
            "time": 55.082499999999996,
            "value": 0.7559055118110236
          },
          {
            "number": 11,
            "ticks": 22036,
            "time": 55.089999999999996,
            "value": 0.7480314960629921
          },
          {
            "number": 11,
            "ticks": 22040,
            "time": 55.099999999999994,
            "value": 0.7401574803149606
          },
          {
            "number": 11,
            "ticks": 22043,
            "time": 55.107499999999995,
            "value": 0.7322834645669292
          },
          {
            "number": 11,
            "ticks": 22046,
            "time": 55.114999999999995,
            "value": 0.7244094488188977
          },
          {
            "number": 11,
            "ticks": 22050,
            "time": 55.12499999999999,
            "value": 0.7086614173228346
          },
          {
            "number": 11,
            "ticks": 22053,
            "time": 55.13249999999999,
            "value": 0.7007874015748031
          },
          {
            "number": 11,
            "ticks": 22056,
            "time": 55.13999999999999,
            "value": 0.6929133858267716
          },
          {
            "number": 11,
            "ticks": 22060,
            "time": 55.14999999999999,
            "value": 0.6850393700787402
          },
          {
            "number": 11,
            "ticks": 22063,
            "time": 55.15749999999999,
            "value": 0.6771653543307087
          },
          {
            "number": 11,
            "ticks": 22066,
            "time": 55.16499999999999,
            "value": 0.6692913385826772
          },
          {
            "number": 11,
            "ticks": 22070,
            "time": 55.175,
            "value": 0.6614173228346457
          },
          {
            "number": 11,
            "ticks": 22073,
            "time": 55.1825,
            "value": 0.6535433070866141
          },
          {
            "number": 11,
            "ticks": 22076,
            "time": 55.19,
            "value": 0.6456692913385826
          },
          {
            "number": 11,
            "ticks": 22080,
            "time": 55.199999999999996,
            "value": 0.7874015748031497
          },
          {
            "number": 11,
            "ticks": 22500,
            "time": 56.24999999999999,
            "value": 0.7874015748031497
          },
          {
            "number": 11,
            "ticks": 22503,
            "time": 56.25749999999999,
            "value": 0.7795275590551181
          },
          {
            "number": 11,
            "ticks": 22506,
            "time": 56.26499999999999,
            "value": 0.7716535433070866
          },
          {
            "number": 11,
            "ticks": 22510,
            "time": 56.27499999999999,
            "value": 0.7637795275590551
          },
          {
            "number": 11,
            "ticks": 22513,
            "time": 56.28249999999999,
            "value": 0.7559055118110236
          },
          {
            "number": 11,
            "ticks": 22516,
            "time": 56.28999999999999,
            "value": 0.7480314960629921
          },
          {
            "number": 11,
            "ticks": 22520,
            "time": 56.3,
            "value": 0.7401574803149606
          },
          {
            "number": 11,
            "ticks": 22523,
            "time": 56.30749999999999,
            "value": 0.7322834645669292
          },
          {
            "number": 11,
            "ticks": 22526,
            "time": 56.315,
            "value": 0.7244094488188977
          },
          {
            "number": 11,
            "ticks": 22530,
            "time": 56.324999999999996,
            "value": 0.7086614173228346
          },
          {
            "number": 11,
            "ticks": 22533,
            "time": 56.332499999999996,
            "value": 0.7007874015748031
          },
          {
            "number": 11,
            "ticks": 22536,
            "time": 56.339999999999996,
            "value": 0.6929133858267716
          },
          {
            "number": 11,
            "ticks": 22540,
            "time": 56.349999999999994,
            "value": 0.6850393700787402
          },
          {
            "number": 11,
            "ticks": 22543,
            "time": 56.357499999999995,
            "value": 0.6771653543307087
          },
          {
            "number": 11,
            "ticks": 22546,
            "time": 56.364999999999995,
            "value": 0.6692913385826772
          },
          {
            "number": 11,
            "ticks": 22550,
            "time": 56.37499999999999,
            "value": 0.6614173228346457
          },
          {
            "number": 11,
            "ticks": 22553,
            "time": 56.38249999999999,
            "value": 0.6535433070866141
          },
          {
            "number": 11,
            "ticks": 22556,
            "time": 56.38999999999999,
            "value": 0.6456692913385826
          },
          {
            "number": 11,
            "ticks": 22560,
            "time": 56.39999999999999,
            "value": 0.7874015748031497
          },
          {
            "number": 11,
            "ticks": 22800,
            "time": 56.99999999999999,
            "value": 0.7874015748031497
          },
          {
            "number": 11,
            "ticks": 22803,
            "time": 57.00749999999999,
            "value": 0.7795275590551181
          },
          {
            "number": 11,
            "ticks": 22806,
            "time": 57.01499999999999,
            "value": 0.7716535433070866
          },
          {
            "number": 11,
            "ticks": 22810,
            "time": 57.02499999999999,
            "value": 0.7637795275590551
          },
          {
            "number": 11,
            "ticks": 22813,
            "time": 57.03249999999999,
            "value": 0.7559055118110236
          },
          {
            "number": 11,
            "ticks": 22816,
            "time": 57.03999999999999,
            "value": 0.7480314960629921
          },
          {
            "number": 11,
            "ticks": 22820,
            "time": 57.05,
            "value": 0.7401574803149606
          },
          {
            "number": 11,
            "ticks": 22823,
            "time": 57.05749999999999,
            "value": 0.7322834645669292
          },
          {
            "number": 11,
            "ticks": 22826,
            "time": 57.06499999999999,
            "value": 0.7244094488188977
          },
          {
            "number": 11,
            "ticks": 22830,
            "time": 57.074999999999996,
            "value": 0.7086614173228346
          },
          {
            "number": 11,
            "ticks": 22833,
            "time": 57.082499999999996,
            "value": 0.7007874015748031
          },
          {
            "number": 11,
            "ticks": 22836,
            "time": 57.089999999999996,
            "value": 0.6929133858267716
          },
          {
            "number": 11,
            "ticks": 22840,
            "time": 57.099999999999994,
            "value": 0.6850393700787402
          },
          {
            "number": 11,
            "ticks": 22843,
            "time": 57.107499999999995,
            "value": 0.6771653543307087
          },
          {
            "number": 11,
            "ticks": 22846,
            "time": 57.114999999999995,
            "value": 0.6692913385826772
          },
          {
            "number": 11,
            "ticks": 22850,
            "time": 57.12499999999999,
            "value": 0.6614173228346457
          },
          {
            "number": 11,
            "ticks": 22853,
            "time": 57.13249999999999,
            "value": 0.6535433070866141
          },
          {
            "number": 11,
            "ticks": 22856,
            "time": 57.13999999999999,
            "value": 0.6456692913385826
          },
          {
            "number": 11,
            "ticks": 22860,
            "time": 57.14999999999999,
            "value": 0.6299212598425197
          },
          {
            "number": 11,
            "ticks": 22863,
            "time": 57.15749999999999,
            "value": 0.6220472440944882
          },
          {
            "number": 11,
            "ticks": 22866,
            "time": 57.16499999999999,
            "value": 0.6141732283464567
          },
          {
            "number": 11,
            "ticks": 22870,
            "time": 57.175,
            "value": 0.6062992125984252
          },
          {
            "number": 11,
            "ticks": 22873,
            "time": 57.1825,
            "value": 0.5984251968503937
          },
          {
            "number": 11,
            "ticks": 22876,
            "time": 57.19,
            "value": 0.5905511811023622
          },
          {
            "number": 11,
            "ticks": 22880,
            "time": 57.199999999999996,
            "value": 0.5826771653543307
          },
          {
            "number": 11,
            "ticks": 22883,
            "time": 57.207499999999996,
            "value": 0.5748031496062992
          },
          {
            "number": 11,
            "ticks": 22886,
            "time": 57.214999999999996,
            "value": 0.5669291338582677
          },
          {
            "number": 11,
            "ticks": 22890,
            "time": 57.224999999999994,
            "value": 0.5511811023622047
          },
          {
            "number": 11,
            "ticks": 22893,
            "time": 57.232499999999995,
            "value": 0.5433070866141733
          },
          {
            "number": 11,
            "ticks": 22896,
            "time": 57.239999999999995,
            "value": 0.5354330708661418
          },
          {
            "number": 11,
            "ticks": 22900,
            "time": 57.24999999999999,
            "value": 0.5275590551181102
          },
          {
            "number": 11,
            "ticks": 22903,
            "time": 57.25749999999999,
            "value": 0.5196850393700787
          },
          {
            "number": 11,
            "ticks": 22906,
            "time": 57.26499999999999,
            "value": 0.5118110236220472
          },
          {
            "number": 11,
            "ticks": 22910,
            "time": 57.27499999999999,
            "value": 0.5039370078740157
          },
          {
            "number": 11,
            "ticks": 22913,
            "time": 57.28249999999999,
            "value": 0.49606299212598426
          },
          {
            "number": 11,
            "ticks": 22916,
            "time": 57.28999999999999,
            "value": 0.4881889763779528
          },
          {
            "number": 11,
            "ticks": 22920,
            "time": 57.3,
            "value": 0.47244094488188976
          },
          {
            "number": 11,
            "ticks": 22923,
            "time": 57.30749999999999,
            "value": 0.4645669291338583
          },
          {
            "number": 11,
            "ticks": 22926,
            "time": 57.315,
            "value": 0.4566929133858268
          },
          {
            "number": 11,
            "ticks": 22930,
            "time": 57.324999999999996,
            "value": 0.44881889763779526
          },
          {
            "number": 11,
            "ticks": 22933,
            "time": 57.332499999999996,
            "value": 0.4409448818897638
          },
          {
            "number": 11,
            "ticks": 22936,
            "time": 57.339999999999996,
            "value": 0.4330708661417323
          },
          {
            "number": 11,
            "ticks": 22940,
            "time": 57.349999999999994,
            "value": 0.4251968503937008
          },
          {
            "number": 11,
            "ticks": 22943,
            "time": 57.357499999999995,
            "value": 0.41732283464566927
          },
          {
            "number": 11,
            "ticks": 22946,
            "time": 57.364999999999995,
            "value": 0.4094488188976378
          },
          {
            "number": 11,
            "ticks": 22950,
            "time": 57.37499999999999,
            "value": 0.3937007874015748
          },
          {
            "number": 11,
            "ticks": 22953,
            "time": 57.38249999999999,
            "value": 0.3858267716535433
          },
          {
            "number": 11,
            "ticks": 22956,
            "time": 57.38999999999999,
            "value": 0.3779527559055118
          },
          {
            "number": 11,
            "ticks": 22960,
            "time": 57.39999999999999,
            "value": 0.3700787401574803
          },
          {
            "number": 11,
            "ticks": 22963,
            "time": 57.40749999999999,
            "value": 0.36220472440944884
          },
          {
            "number": 11,
            "ticks": 22966,
            "time": 57.41499999999999,
            "value": 0.3543307086614173
          },
          {
            "number": 11,
            "ticks": 22970,
            "time": 57.425,
            "value": 0.3464566929133858
          },
          {
            "number": 11,
            "ticks": 22973,
            "time": 57.43249999999999,
            "value": 0.33858267716535434
          },
          {
            "number": 11,
            "ticks": 22976,
            "time": 57.43999999999999,
            "value": 0.33070866141732286
          },
          {
            "number": 11,
            "ticks": 22980,
            "time": 57.449999999999996,
            "value": 0.31496062992125984
          },
          {
            "number": 11,
            "ticks": 22983,
            "time": 57.457499999999996,
            "value": 0.30708661417322836
          },
          {
            "number": 11,
            "ticks": 22986,
            "time": 57.464999999999996,
            "value": 0.2992125984251969
          },
          {
            "number": 11,
            "ticks": 22990,
            "time": 57.474999999999994,
            "value": 0.29133858267716534
          },
          {
            "number": 11,
            "ticks": 22993,
            "time": 57.482499999999995,
            "value": 0.28346456692913385
          },
          {
            "number": 11,
            "ticks": 22996,
            "time": 57.489999999999995,
            "value": 0.2755905511811024
          },
          {
            "number": 11,
            "ticks": 23000,
            "time": 57.49999999999999,
            "value": 0.2677165354330709
          },
          {
            "number": 11,
            "ticks": 23003,
            "time": 57.50749999999999,
            "value": 0.25984251968503935
          },
          {
            "number": 11,
            "ticks": 23006,
            "time": 57.51499999999999,
            "value": 0.25196850393700787
          },
          {
            "number": 11,
            "ticks": 23010,
            "time": 57.52499999999999,
            "value": 0.23622047244094488
          },
          {
            "number": 11,
            "ticks": 23013,
            "time": 57.53249999999999,
            "value": 0.2283464566929134
          },
          {
            "number": 11,
            "ticks": 23016,
            "time": 57.53999999999999,
            "value": 0.2204724409448819
          },
          {
            "number": 11,
            "ticks": 23020,
            "time": 57.55,
            "value": 0.2125984251968504
          },
          {
            "number": 11,
            "ticks": 23023,
            "time": 57.5575,
            "value": 0.2047244094488189
          },
          {
            "number": 11,
            "ticks": 23026,
            "time": 57.565,
            "value": 0.1968503937007874
          },
          {
            "number": 11,
            "ticks": 23030,
            "time": 57.574999999999996,
            "value": 0.1889763779527559
          },
          {
            "number": 11,
            "ticks": 23033,
            "time": 57.582499999999996,
            "value": 0.18110236220472442
          },
          {
            "number": 11,
            "ticks": 23036,
            "time": 57.589999999999996,
            "value": 0.1732283464566929
          },
          {
            "number": 11,
            "ticks": 23040,
            "time": 57.599999999999994,
            "value": 0.15748031496062992
          },
          {
            "number": 11,
            "ticks": 23043,
            "time": 57.607499999999995,
            "value": 0.14960629921259844
          },
          {
            "number": 11,
            "ticks": 23046,
            "time": 57.614999999999995,
            "value": 0.14173228346456693
          },
          {
            "number": 11,
            "ticks": 23050,
            "time": 57.62499999999999,
            "value": 0.13385826771653545
          },
          {
            "number": 11,
            "ticks": 23053,
            "time": 57.63249999999999,
            "value": 0.12598425196850394
          },
          {
            "number": 11,
            "ticks": 23056,
            "time": 57.63999999999999,
            "value": 0.11811023622047244
          },
          {
            "number": 11,
            "ticks": 23060,
            "time": 57.64999999999999,
            "value": 0.11023622047244094
          },
          {
            "number": 11,
            "ticks": 23063,
            "time": 57.65749999999999,
            "value": 0.10236220472440945
          },
          {
            "number": 11,
            "ticks": 23066,
            "time": 57.66499999999999,
            "value": 0.09448818897637795
          },
          {
            "number": 11,
            "ticks": 23070,
            "time": 57.675,
            "value": 0.07874015748031496
          },
          {
            "number": 11,
            "ticks": 23073,
            "time": 57.68249999999999,
            "value": 0.07086614173228346
          },
          {
            "number": 11,
            "ticks": 23076,
            "time": 57.69,
            "value": 0.06299212598425197
          },
          {
            "number": 11,
            "ticks": 23080,
            "time": 57.699999999999996,
            "value": 0.05511811023622047
          },
          {
            "number": 11,
            "ticks": 23083,
            "time": 57.707499999999996,
            "value": 0.047244094488188976
          },
          {
            "number": 11,
            "ticks": 23086,
            "time": 57.714999999999996,
            "value": 0.03937007874015748
          },
          {
            "number": 11,
            "ticks": 23090,
            "time": 57.724999999999994,
            "value": 0.031496062992125984
          },
          {
            "number": 11,
            "ticks": 23093,
            "time": 57.732499999999995,
            "value": 0.023622047244094488
          },
          {
            "number": 11,
            "ticks": 23096,
            "time": 57.739999999999995,
            "value": 0.015748031496062992
          },
          {
            "number": 11,
            "ticks": 23100,
            "time": 57.74999999999999,
            "value": 0.7874015748031497
          },
          {
            "number": 11,
            "ticks": 23220,
            "time": 58.05,
            "value": 0.7874015748031497
          },
          {
            "number": 11,
            "ticks": 23223,
            "time": 58.05749999999999,
            "value": 0.7795275590551181
          },
          {
            "number": 11,
            "ticks": 23226,
            "time": 58.065,
            "value": 0.7716535433070866
          },
          {
            "number": 11,
            "ticks": 23230,
            "time": 58.074999999999996,
            "value": 0.7637795275590551
          },
          {
            "number": 11,
            "ticks": 23233,
            "time": 58.082499999999996,
            "value": 0.7559055118110236
          },
          {
            "number": 11,
            "ticks": 23236,
            "time": 58.089999999999996,
            "value": 0.7480314960629921
          },
          {
            "number": 11,
            "ticks": 23240,
            "time": 58.099999999999994,
            "value": 0.7401574803149606
          },
          {
            "number": 11,
            "ticks": 23243,
            "time": 58.107499999999995,
            "value": 0.7322834645669292
          },
          {
            "number": 11,
            "ticks": 23246,
            "time": 58.114999999999995,
            "value": 0.7244094488188977
          },
          {
            "number": 11,
            "ticks": 23250,
            "time": 58.12499999999999,
            "value": 0.7086614173228346
          },
          {
            "number": 11,
            "ticks": 23253,
            "time": 58.13249999999999,
            "value": 0.7007874015748031
          },
          {
            "number": 11,
            "ticks": 23256,
            "time": 58.13999999999999,
            "value": 0.6929133858267716
          },
          {
            "number": 11,
            "ticks": 23260,
            "time": 58.14999999999999,
            "value": 0.6850393700787402
          },
          {
            "number": 11,
            "ticks": 23263,
            "time": 58.15749999999999,
            "value": 0.6771653543307087
          },
          {
            "number": 11,
            "ticks": 23266,
            "time": 58.16499999999999,
            "value": 0.6692913385826772
          },
          {
            "number": 11,
            "ticks": 23270,
            "time": 58.175,
            "value": 0.6614173228346457
          },
          {
            "number": 11,
            "ticks": 23273,
            "time": 58.18249999999999,
            "value": 0.6535433070866141
          },
          {
            "number": 11,
            "ticks": 23276,
            "time": 58.18999999999999,
            "value": 0.6456692913385826
          },
          {
            "number": 11,
            "ticks": 23280,
            "time": 58.199999999999996,
            "value": 0.7874015748031497
          },
          {
            "number": 11,
            "ticks": 23340,
            "time": 58.349999999999994,
            "value": 0.7874015748031497
          },
          {
            "number": 11,
            "ticks": 23343,
            "time": 58.357499999999995,
            "value": 0.7795275590551181
          },
          {
            "number": 11,
            "ticks": 23346,
            "time": 58.364999999999995,
            "value": 0.7716535433070866
          },
          {
            "number": 11,
            "ticks": 23350,
            "time": 58.37499999999999,
            "value": 0.7637795275590551
          },
          {
            "number": 11,
            "ticks": 23353,
            "time": 58.38249999999999,
            "value": 0.7559055118110236
          },
          {
            "number": 11,
            "ticks": 23356,
            "time": 58.38999999999999,
            "value": 0.7480314960629921
          },
          {
            "number": 11,
            "ticks": 23360,
            "time": 58.39999999999999,
            "value": 0.7401574803149606
          },
          {
            "number": 11,
            "ticks": 23363,
            "time": 58.40749999999999,
            "value": 0.7322834645669292
          },
          {
            "number": 11,
            "ticks": 23366,
            "time": 58.41499999999999,
            "value": 0.7244094488188977
          },
          {
            "number": 11,
            "ticks": 23370,
            "time": 58.425,
            "value": 0.7086614173228346
          },
          {
            "number": 11,
            "ticks": 23373,
            "time": 58.43249999999999,
            "value": 0.7007874015748031
          },
          {
            "number": 11,
            "ticks": 23376,
            "time": 58.44,
            "value": 0.6929133858267716
          },
          {
            "number": 11,
            "ticks": 23380,
            "time": 58.449999999999996,
            "value": 0.6850393700787402
          },
          {
            "number": 11,
            "ticks": 23383,
            "time": 58.457499999999996,
            "value": 0.6771653543307087
          },
          {
            "number": 11,
            "ticks": 23386,
            "time": 58.464999999999996,
            "value": 0.6692913385826772
          },
          {
            "number": 11,
            "ticks": 23390,
            "time": 58.474999999999994,
            "value": 0.6614173228346457
          },
          {
            "number": 11,
            "ticks": 23393,
            "time": 58.482499999999995,
            "value": 0.6535433070866141
          },
          {
            "number": 11,
            "ticks": 23396,
            "time": 58.489999999999995,
            "value": 0.6456692913385826
          },
          {
            "number": 11,
            "ticks": 23400,
            "time": 58.49999999999999,
            "value": 0.7874015748031497
          },
          {
            "number": 11,
            "ticks": 23760,
            "time": 59.39999999999999,
            "value": 0.7874015748031497
          },
          {
            "number": 11,
            "ticks": 23763,
            "time": 59.40749999999999,
            "value": 0.7795275590551181
          },
          {
            "number": 11,
            "ticks": 23766,
            "time": 59.41499999999999,
            "value": 0.7716535433070866
          },
          {
            "number": 11,
            "ticks": 23770,
            "time": 59.425,
            "value": 0.7637795275590551
          },
          {
            "number": 11,
            "ticks": 23773,
            "time": 59.43249999999999,
            "value": 0.7559055118110236
          },
          {
            "number": 11,
            "ticks": 23776,
            "time": 59.44,
            "value": 0.7480314960629921
          },
          {
            "number": 11,
            "ticks": 23780,
            "time": 59.449999999999996,
            "value": 0.7401574803149606
          },
          {
            "number": 11,
            "ticks": 23783,
            "time": 59.457499999999996,
            "value": 0.7322834645669292
          },
          {
            "number": 11,
            "ticks": 23786,
            "time": 59.464999999999996,
            "value": 0.7244094488188977
          },
          {
            "number": 11,
            "ticks": 23790,
            "time": 59.474999999999994,
            "value": 0.7086614173228346
          },
          {
            "number": 11,
            "ticks": 23793,
            "time": 59.482499999999995,
            "value": 0.7007874015748031
          },
          {
            "number": 11,
            "ticks": 23796,
            "time": 59.489999999999995,
            "value": 0.6929133858267716
          },
          {
            "number": 11,
            "ticks": 23800,
            "time": 59.49999999999999,
            "value": 0.6850393700787402
          },
          {
            "number": 11,
            "ticks": 23803,
            "time": 59.50749999999999,
            "value": 0.6771653543307087
          },
          {
            "number": 11,
            "ticks": 23806,
            "time": 59.51499999999999,
            "value": 0.6692913385826772
          },
          {
            "number": 11,
            "ticks": 23810,
            "time": 59.52499999999999,
            "value": 0.6614173228346457
          },
          {
            "number": 11,
            "ticks": 23813,
            "time": 59.53249999999999,
            "value": 0.6535433070866141
          },
          {
            "number": 11,
            "ticks": 23816,
            "time": 59.53999999999999,
            "value": 0.6456692913385826
          },
          {
            "number": 11,
            "ticks": 23820,
            "time": 59.55,
            "value": 0.6299212598425197
          },
          {
            "number": 11,
            "ticks": 23823,
            "time": 59.55749999999999,
            "value": 0.6220472440944882
          },
          {
            "number": 11,
            "ticks": 23826,
            "time": 59.565,
            "value": 0.6141732283464567
          },
          {
            "number": 11,
            "ticks": 23830,
            "time": 59.574999999999996,
            "value": 0.6062992125984252
          },
          {
            "number": 11,
            "ticks": 23833,
            "time": 59.582499999999996,
            "value": 0.5984251968503937
          },
          {
            "number": 11,
            "ticks": 23836,
            "time": 59.589999999999996,
            "value": 0.5905511811023622
          },
          {
            "number": 11,
            "ticks": 23840,
            "time": 59.599999999999994,
            "value": 0.5826771653543307
          },
          {
            "number": 11,
            "ticks": 23843,
            "time": 59.607499999999995,
            "value": 0.5748031496062992
          },
          {
            "number": 11,
            "ticks": 23846,
            "time": 59.614999999999995,
            "value": 0.5669291338582677
          },
          {
            "number": 11,
            "ticks": 23850,
            "time": 59.62499999999999,
            "value": 0.5511811023622047
          },
          {
            "number": 11,
            "ticks": 23853,
            "time": 59.63249999999999,
            "value": 0.5433070866141733
          },
          {
            "number": 11,
            "ticks": 23856,
            "time": 59.63999999999999,
            "value": 0.5354330708661418
          },
          {
            "number": 11,
            "ticks": 23860,
            "time": 59.64999999999999,
            "value": 0.5275590551181102
          },
          {
            "number": 11,
            "ticks": 23863,
            "time": 59.65749999999999,
            "value": 0.5196850393700787
          },
          {
            "number": 11,
            "ticks": 23866,
            "time": 59.66499999999999,
            "value": 0.5118110236220472
          },
          {
            "number": 11,
            "ticks": 23870,
            "time": 59.675,
            "value": 0.5039370078740157
          },
          {
            "number": 11,
            "ticks": 23873,
            "time": 59.68249999999999,
            "value": 0.49606299212598426
          },
          {
            "number": 11,
            "ticks": 23876,
            "time": 59.69,
            "value": 0.4881889763779528
          },
          {
            "number": 11,
            "ticks": 23880,
            "time": 59.699999999999996,
            "value": 0.47244094488188976
          },
          {
            "number": 11,
            "ticks": 23883,
            "time": 59.707499999999996,
            "value": 0.4645669291338583
          },
          {
            "number": 11,
            "ticks": 23886,
            "time": 59.714999999999996,
            "value": 0.4566929133858268
          },
          {
            "number": 11,
            "ticks": 23890,
            "time": 59.724999999999994,
            "value": 0.44881889763779526
          },
          {
            "number": 11,
            "ticks": 23893,
            "time": 59.732499999999995,
            "value": 0.4409448818897638
          },
          {
            "number": 11,
            "ticks": 23896,
            "time": 59.739999999999995,
            "value": 0.4330708661417323
          },
          {
            "number": 11,
            "ticks": 23900,
            "time": 59.74999999999999,
            "value": 0.4251968503937008
          },
          {
            "number": 11,
            "ticks": 23903,
            "time": 59.75749999999999,
            "value": 0.41732283464566927
          },
          {
            "number": 11,
            "ticks": 23906,
            "time": 59.76499999999999,
            "value": 0.4094488188976378
          },
          {
            "number": 11,
            "ticks": 23910,
            "time": 59.77499999999999,
            "value": 0.3937007874015748
          },
          {
            "number": 11,
            "ticks": 23913,
            "time": 59.78249999999999,
            "value": 0.3858267716535433
          },
          {
            "number": 11,
            "ticks": 23916,
            "time": 59.78999999999999,
            "value": 0.3779527559055118
          },
          {
            "number": 11,
            "ticks": 23920,
            "time": 59.8,
            "value": 0.3700787401574803
          },
          {
            "number": 11,
            "ticks": 23923,
            "time": 59.80749999999999,
            "value": 0.36220472440944884
          },
          {
            "number": 11,
            "ticks": 23926,
            "time": 59.815,
            "value": 0.3543307086614173
          },
          {
            "number": 11,
            "ticks": 23930,
            "time": 59.824999999999996,
            "value": 0.3464566929133858
          },
          {
            "number": 11,
            "ticks": 23933,
            "time": 59.832499999999996,
            "value": 0.33858267716535434
          },
          {
            "number": 11,
            "ticks": 23936,
            "time": 59.83999999999999,
            "value": 0.33070866141732286
          },
          {
            "number": 11,
            "ticks": 23940,
            "time": 59.849999999999994,
            "value": 0.31496062992125984
          },
          {
            "number": 11,
            "ticks": 23943,
            "time": 59.857499999999995,
            "value": 0.30708661417322836
          },
          {
            "number": 11,
            "ticks": 23946,
            "time": 59.864999999999995,
            "value": 0.2992125984251969
          },
          {
            "number": 11,
            "ticks": 23950,
            "time": 59.87499999999999,
            "value": 0.29133858267716534
          },
          {
            "number": 11,
            "ticks": 23953,
            "time": 59.88249999999999,
            "value": 0.28346456692913385
          },
          {
            "number": 11,
            "ticks": 23956,
            "time": 59.88999999999999,
            "value": 0.2755905511811024
          },
          {
            "number": 11,
            "ticks": 23960,
            "time": 59.89999999999999,
            "value": 0.2677165354330709
          },
          {
            "number": 11,
            "ticks": 23963,
            "time": 59.90749999999999,
            "value": 0.25984251968503935
          },
          {
            "number": 11,
            "ticks": 23966,
            "time": 59.91499999999999,
            "value": 0.25196850393700787
          },
          {
            "number": 11,
            "ticks": 23970,
            "time": 59.925,
            "value": 0.23622047244094488
          },
          {
            "number": 11,
            "ticks": 23973,
            "time": 59.93249999999999,
            "value": 0.2283464566929134
          },
          {
            "number": 11,
            "ticks": 23976,
            "time": 59.94,
            "value": 0.2204724409448819
          },
          {
            "number": 11,
            "ticks": 23980,
            "time": 59.949999999999996,
            "value": 0.2125984251968504
          },
          {
            "number": 11,
            "ticks": 23983,
            "time": 59.957499999999996,
            "value": 0.2047244094488189
          },
          {
            "number": 11,
            "ticks": 23986,
            "time": 59.964999999999996,
            "value": 0.1968503937007874
          },
          {
            "number": 11,
            "ticks": 23990,
            "time": 59.974999999999994,
            "value": 0.1889763779527559
          },
          {
            "number": 11,
            "ticks": 23993,
            "time": 59.982499999999995,
            "value": 0.18110236220472442
          },
          {
            "number": 11,
            "ticks": 23996,
            "time": 59.989999999999995,
            "value": 0.1732283464566929
          },
          {
            "number": 11,
            "ticks": 24000,
            "time": 59.99999999999999,
            "value": 0.15748031496062992
          },
          {
            "number": 11,
            "ticks": 24003,
            "time": 60.00749999999999,
            "value": 0.14960629921259844
          },
          {
            "number": 11,
            "ticks": 24006,
            "time": 60.01499999999999,
            "value": 0.14173228346456693
          },
          {
            "number": 11,
            "ticks": 24010,
            "time": 60.02499999999999,
            "value": 0.13385826771653545
          },
          {
            "number": 11,
            "ticks": 24013,
            "time": 60.03249999999999,
            "value": 0.12598425196850394
          },
          {
            "number": 11,
            "ticks": 24016,
            "time": 60.03999999999999,
            "value": 0.11811023622047244
          },
          {
            "number": 11,
            "ticks": 24020,
            "time": 60.05,
            "value": 0.11023622047244094
          },
          {
            "number": 11,
            "ticks": 24023,
            "time": 60.05749999999999,
            "value": 0.10236220472440945
          },
          {
            "number": 11,
            "ticks": 24026,
            "time": 60.065,
            "value": 0.09448818897637795
          },
          {
            "number": 11,
            "ticks": 24030,
            "time": 60.074999999999996,
            "value": 0.07874015748031496
          },
          {
            "number": 11,
            "ticks": 24033,
            "time": 60.082499999999996,
            "value": 0.07086614173228346
          },
          {
            "number": 11,
            "ticks": 24036,
            "time": 60.089999999999996,
            "value": 0.06299212598425197
          },
          {
            "number": 11,
            "ticks": 24040,
            "time": 60.099999999999994,
            "value": 0.05511811023622047
          },
          {
            "number": 11,
            "ticks": 24043,
            "time": 60.107499999999995,
            "value": 0.047244094488188976
          },
          {
            "number": 11,
            "ticks": 24046,
            "time": 60.114999999999995,
            "value": 0.03937007874015748
          },
          {
            "number": 11,
            "ticks": 24050,
            "time": 60.12499999999999,
            "value": 0.031496062992125984
          },
          {
            "number": 11,
            "ticks": 24053,
            "time": 60.13249999999999,
            "value": 0.023622047244094488
          },
          {
            "number": 11,
            "ticks": 24056,
            "time": 60.13999999999999,
            "value": 0.015748031496062992
          },
          {
            "number": 11,
            "ticks": 24060,
            "time": 60.14999999999999,
            "value": 0.7874015748031497
          }
        ],
        "94": [
          {
            "number": 94,
            "ticks": 1440,
            "time": 3.5999999999999996,
            "value": 0.1889763779527559
          }
        ]
      },
      "pitchBends": [],
      "instrument": {
        "family": "synth lead",
        "number": 82,
        "name": "lead 3 (calliope)"
      },
      "name": "",
      "notes": [
        {
          "duration": 1.3450000000000006,
          "durationTicks": 538,
          "midi": 79,
          "name": "G5",
          "ticks": 1440,
          "time": 3.5999999999999996,
          "velocity": 0.6614173228346457
        },
        {
          "duration": 0.14999999999999947,
          "durationTicks": 60,
          "midi": 74,
          "name": "D5",
          "ticks": 1980,
          "time": 4.95,
          "velocity": 0.6614173228346457
        },
        {
          "duration": 0.2999999999999998,
          "durationTicks": 120,
          "midi": 76,
          "name": "E5",
          "ticks": 2040,
          "time": 5.1,
          "velocity": 0.6614173228346457
        },
        {
          "duration": 0.3000000000000007,
          "durationTicks": 120,
          "midi": 79,
          "name": "G5",
          "ticks": 2160,
          "time": 5.3999999999999995,
          "velocity": 0.6614173228346457
        },
        {
          "duration": 0.14999999999999947,
          "durationTicks": 60,
          "midi": 76,
          "name": "E5",
          "ticks": 2280,
          "time": 5.7,
          "velocity": 0.6614173228346457
        },
        {
          "duration": 0.15000000000000036,
          "durationTicks": 60,
          "midi": 79,
          "name": "G5",
          "ticks": 2340,
          "time": 5.85,
          "velocity": 0.6614173228346457
        },
        {
          "duration": 0.4500000000000002,
          "durationTicks": 180,
          "midi": 81,
          "name": "A5",
          "ticks": 2400,
          "time": 6,
          "velocity": 0.6614173228346457
        },
        {
          "duration": 0.4499999999999993,
          "durationTicks": 180,
          "midi": 83,
          "name": "B5",
          "ticks": 2580,
          "time": 6.45,
          "velocity": 0.6614173228346457
        },
        {
          "duration": 0.2999999999999998,
          "durationTicks": 120,
          "midi": 79,
          "name": "G5",
          "ticks": 2760,
          "time": 6.8999999999999995,
          "velocity": 0.6614173228346457
        },
        {
          "duration": 0.4500000000000002,
          "durationTicks": 180,
          "midi": 81,
          "name": "A5",
          "ticks": 2880,
          "time": 7.199999999999999,
          "velocity": 0.6614173228346457
        },
        {
          "duration": 0.4500000000000002,
          "durationTicks": 180,
          "midi": 83,
          "name": "B5",
          "ticks": 3060,
          "time": 7.6499999999999995,
          "velocity": 0.6614173228346457
        },
        {
          "duration": 0.3000000000000007,
          "durationTicks": 120,
          "midi": 79,
          "name": "G5",
          "ticks": 3240,
          "time": 8.1,
          "velocity": 0.6614173228346457
        },
        {
          "duration": 1.3499999999999996,
          "durationTicks": 540,
          "midi": 86,
          "name": "D6",
          "ticks": 3360,
          "time": 8.4,
          "velocity": 0.6614173228346457
        },
        {
          "duration": 1.3499999999999996,
          "durationTicks": 540,
          "midi": 79,
          "name": "G5",
          "ticks": 3360,
          "time": 8.4,
          "velocity": 0.6614173228346457
        },
        {
          "duration": 0.15000000000000036,
          "durationTicks": 60,
          "midi": 84,
          "name": "C6",
          "ticks": 3900,
          "time": 9.75,
          "velocity": 0.6614173228346457
        },
        {
          "duration": 0.15000000000000036,
          "durationTicks": 60,
          "midi": 79,
          "name": "G5",
          "ticks": 3900,
          "time": 9.75,
          "velocity": 0.6614173228346457
        },
        {
          "duration": 0.29999999999999893,
          "durationTicks": 120,
          "midi": 83,
          "name": "B5",
          "ticks": 3960,
          "time": 9.9,
          "velocity": 0.6614173228346457
        },
        {
          "duration": 0.29999999999999893,
          "durationTicks": 120,
          "midi": 76,
          "name": "E5",
          "ticks": 3960,
          "time": 9.9,
          "velocity": 0.6614173228346457
        },
        {
          "duration": 0.3000000000000007,
          "durationTicks": 120,
          "midi": 86,
          "name": "D6",
          "ticks": 4080,
          "time": 10.2,
          "velocity": 0.6614173228346457
        },
        {
          "duration": 0.3000000000000007,
          "durationTicks": 120,
          "midi": 79,
          "name": "G5",
          "ticks": 4080,
          "time": 10.2,
          "velocity": 0.6614173228346457
        },
        {
          "duration": 0.15000000000000036,
          "durationTicks": 60,
          "midi": 84,
          "name": "C6",
          "ticks": 4200,
          "time": 10.5,
          "velocity": 0.6614173228346457
        },
        {
          "duration": 0.29999999999999893,
          "durationTicks": 120,
          "midi": 76,
          "name": "E5",
          "ticks": 4200,
          "time": 10.5,
          "velocity": 0.6614173228346457
        },
        {
          "duration": 0.14999999999999858,
          "durationTicks": 60,
          "midi": 83,
          "name": "B5",
          "ticks": 4260,
          "time": 10.65,
          "velocity": 0.6614173228346457
        },
        {
          "duration": 1.200000000000001,
          "durationTicks": 480,
          "midi": 79,
          "name": "G5",
          "ticks": 4320,
          "time": 10.799999999999999,
          "velocity": 0.6614173228346457
        },
        {
          "duration": 1.200000000000001,
          "durationTicks": 480,
          "midi": 74,
          "name": "D5",
          "ticks": 4320,
          "time": 10.799999999999999,
          "velocity": 0.6614173228346457
        },
        {
          "duration": 1.3449999999999989,
          "durationTicks": 538,
          "midi": 79,
          "name": "G5",
          "ticks": 11040,
          "time": 27.599999999999998,
          "velocity": 0.6614173228346457
        },
        {
          "duration": 0.14999999999999858,
          "durationTicks": 60,
          "midi": 74,
          "name": "D5",
          "ticks": 11580,
          "time": 28.95,
          "velocity": 0.6614173228346457
        },
        {
          "duration": 0.3000000000000007,
          "durationTicks": 120,
          "midi": 76,
          "name": "E5",
          "ticks": 11640,
          "time": 29.099999999999998,
          "velocity": 0.6614173228346457
        },
        {
          "duration": 0.3000000000000007,
          "durationTicks": 120,
          "midi": 79,
          "name": "G5",
          "ticks": 11760,
          "time": 29.4,
          "velocity": 0.6614173228346457
        },
        {
          "duration": 0.14999999999999858,
          "durationTicks": 60,
          "midi": 76,
          "name": "E5",
          "ticks": 11880,
          "time": 29.7,
          "velocity": 0.6614173228346457
        },
        {
          "duration": 0.14999999999999858,
          "durationTicks": 60,
          "midi": 79,
          "name": "G5",
          "ticks": 11940,
          "time": 29.849999999999998,
          "velocity": 0.6614173228346457
        },
        {
          "duration": 0.45000000000000284,
          "durationTicks": 180,
          "midi": 81,
          "name": "A5",
          "ticks": 12000,
          "time": 29.999999999999996,
          "velocity": 0.6614173228346457
        },
        {
          "duration": 0.4499999999999993,
          "durationTicks": 180,
          "midi": 83,
          "name": "B5",
          "ticks": 12180,
          "time": 30.45,
          "velocity": 0.6614173228346457
        },
        {
          "duration": 0.29999999999999716,
          "durationTicks": 120,
          "midi": 79,
          "name": "G5",
          "ticks": 12360,
          "time": 30.9,
          "velocity": 0.6614173228346457
        },
        {
          "duration": 0.45000000000000284,
          "durationTicks": 180,
          "midi": 81,
          "name": "A5",
          "ticks": 12480,
          "time": 31.199999999999996,
          "velocity": 0.6614173228346457
        },
        {
          "duration": 0.44999999999999574,
          "durationTicks": 180,
          "midi": 83,
          "name": "B5",
          "ticks": 12660,
          "time": 31.65,
          "velocity": 0.6614173228346457
        },
        {
          "duration": 0.30000000000000426,
          "durationTicks": 120,
          "midi": 79,
          "name": "G5",
          "ticks": 12840,
          "time": 32.099999999999994,
          "velocity": 0.6614173228346457
        },
        {
          "duration": 1.3500000000000014,
          "durationTicks": 540,
          "midi": 86,
          "name": "D6",
          "ticks": 12960,
          "time": 32.4,
          "velocity": 0.6614173228346457
        },
        {
          "duration": 1.3500000000000014,
          "durationTicks": 540,
          "midi": 79,
          "name": "G5",
          "ticks": 12960,
          "time": 32.4,
          "velocity": 0.6614173228346457
        },
        {
          "duration": 0.14999999999999858,
          "durationTicks": 60,
          "midi": 84,
          "name": "C6",
          "ticks": 13500,
          "time": 33.75,
          "velocity": 0.6614173228346457
        },
        {
          "duration": 0.14999999999999858,
          "durationTicks": 60,
          "midi": 79,
          "name": "G5",
          "ticks": 13500,
          "time": 33.75,
          "velocity": 0.6614173228346457
        },
        {
          "duration": 0.29999999999999716,
          "durationTicks": 120,
          "midi": 83,
          "name": "B5",
          "ticks": 13560,
          "time": 33.9,
          "velocity": 0.6614173228346457
        },
        {
          "duration": 0.29999999999999716,
          "durationTicks": 120,
          "midi": 76,
          "name": "E5",
          "ticks": 13560,
          "time": 33.9,
          "velocity": 0.6614173228346457
        },
        {
          "duration": 0.30000000000000426,
          "durationTicks": 120,
          "midi": 86,
          "name": "D6",
          "ticks": 13680,
          "time": 34.199999999999996,
          "velocity": 0.6614173228346457
        },
        {
          "duration": 0.30000000000000426,
          "durationTicks": 120,
          "midi": 79,
          "name": "G5",
          "ticks": 13680,
          "time": 34.199999999999996,
          "velocity": 0.6614173228346457
        },
        {
          "duration": 0.14999999999999858,
          "durationTicks": 60,
          "midi": 84,
          "name": "C6",
          "ticks": 13800,
          "time": 34.5,
          "velocity": 0.6614173228346457
        },
        {
          "duration": 0.29999999999999716,
          "durationTicks": 120,
          "midi": 76,
          "name": "E5",
          "ticks": 13800,
          "time": 34.5,
          "velocity": 0.6614173228346457
        },
        {
          "duration": 0.14999999999999858,
          "durationTicks": 60,
          "midi": 83,
          "name": "B5",
          "ticks": 13860,
          "time": 34.65,
          "velocity": 0.6614173228346457
        },
        {
          "duration": 1.2000000000000028,
          "durationTicks": 480,
          "midi": 79,
          "name": "G5",
          "ticks": 13920,
          "time": 34.8,
          "velocity": 0.6614173228346457
        },
        {
          "duration": 1.2000000000000028,
          "durationTicks": 480,
          "midi": 74,
          "name": "D5",
          "ticks": 13920,
          "time": 34.8,
          "velocity": 0.6614173228346457
        },
        {
          "duration": 1.3449999999999989,
          "durationTicks": 538,
          "midi": 79,
          "name": "G5",
          "ticks": 20640,
          "time": 51.599999999999994,
          "velocity": 0.6614173228346457
        },
        {
          "duration": 0.14999999999999858,
          "durationTicks": 60,
          "midi": 74,
          "name": "D5",
          "ticks": 21180,
          "time": 52.949999999999996,
          "velocity": 0.6614173228346457
        },
        {
          "duration": 0.29999999999999716,
          "durationTicks": 120,
          "midi": 76,
          "name": "E5",
          "ticks": 21240,
          "time": 53.099999999999994,
          "velocity": 0.6614173228346457
        },
        {
          "duration": 0.30000000000000426,
          "durationTicks": 120,
          "midi": 79,
          "name": "G5",
          "ticks": 21360,
          "time": 53.39999999999999,
          "velocity": 0.6614173228346457
        },
        {
          "duration": 0.14999999999999858,
          "durationTicks": 60,
          "midi": 76,
          "name": "E5",
          "ticks": 21480,
          "time": 53.699999999999996,
          "velocity": 0.6614173228346457
        },
        {
          "duration": 0.14999999999999858,
          "durationTicks": 60,
          "midi": 79,
          "name": "G5",
          "ticks": 21540,
          "time": 53.849999999999994,
          "velocity": 0.6614173228346457
        },
        {
          "duration": 0.45000000000000284,
          "durationTicks": 180,
          "midi": 81,
          "name": "A5",
          "ticks": 21600,
          "time": 53.99999999999999,
          "velocity": 0.6614173228346457
        },
        {
          "duration": 0.44999999999999574,
          "durationTicks": 180,
          "midi": 83,
          "name": "B5",
          "ticks": 21780,
          "time": 54.449999999999996,
          "velocity": 0.6614173228346457
        },
        {
          "duration": 0.30000000000000426,
          "durationTicks": 120,
          "midi": 79,
          "name": "G5",
          "ticks": 21960,
          "time": 54.89999999999999,
          "velocity": 0.6614173228346457
        },
        {
          "duration": 0.44999999999999574,
          "durationTicks": 180,
          "midi": 81,
          "name": "A5",
          "ticks": 22080,
          "time": 55.199999999999996,
          "velocity": 0.6614173228346457
        },
        {
          "duration": 0.45000000000000284,
          "durationTicks": 180,
          "midi": 83,
          "name": "B5",
          "ticks": 22260,
          "time": 55.64999999999999,
          "velocity": 0.6614173228346457
        },
        {
          "duration": 0.29999999999999716,
          "durationTicks": 120,
          "midi": 79,
          "name": "G5",
          "ticks": 22440,
          "time": 56.099999999999994,
          "velocity": 0.6614173228346457
        },
        {
          "duration": 1.3500000000000014,
          "durationTicks": 540,
          "midi": 86,
          "name": "D6",
          "ticks": 22560,
          "time": 56.39999999999999,
          "velocity": 0.6614173228346457
        },
        {
          "duration": 1.3500000000000014,
          "durationTicks": 540,
          "midi": 79,
          "name": "G5",
          "ticks": 22560,
          "time": 56.39999999999999,
          "velocity": 0.6614173228346457
        },
        {
          "duration": 0.14999999999999858,
          "durationTicks": 60,
          "midi": 84,
          "name": "C6",
          "ticks": 23100,
          "time": 57.74999999999999,
          "velocity": 0.6614173228346457
        },
        {
          "duration": 0.14999999999999858,
          "durationTicks": 60,
          "midi": 79,
          "name": "G5",
          "ticks": 23100,
          "time": 57.74999999999999,
          "velocity": 0.6614173228346457
        },
        {
          "duration": 0.30000000000000426,
          "durationTicks": 120,
          "midi": 83,
          "name": "B5",
          "ticks": 23160,
          "time": 57.89999999999999,
          "velocity": 0.6614173228346457
        },
        {
          "duration": 0.30000000000000426,
          "durationTicks": 120,
          "midi": 76,
          "name": "E5",
          "ticks": 23160,
          "time": 57.89999999999999,
          "velocity": 0.6614173228346457
        },
        {
          "duration": 0.29999999999999716,
          "durationTicks": 120,
          "midi": 86,
          "name": "D6",
          "ticks": 23280,
          "time": 58.199999999999996,
          "velocity": 0.6614173228346457
        },
        {
          "duration": 0.29999999999999716,
          "durationTicks": 120,
          "midi": 79,
          "name": "G5",
          "ticks": 23280,
          "time": 58.199999999999996,
          "velocity": 0.6614173228346457
        },
        {
          "duration": 0.14999999999999858,
          "durationTicks": 60,
          "midi": 84,
          "name": "C6",
          "ticks": 23400,
          "time": 58.49999999999999,
          "velocity": 0.6614173228346457
        },
        {
          "duration": 0.30000000000000426,
          "durationTicks": 120,
          "midi": 76,
          "name": "E5",
          "ticks": 23400,
          "time": 58.49999999999999,
          "velocity": 0.6614173228346457
        },
        {
          "duration": 0.15000000000000568,
          "durationTicks": 60,
          "midi": 83,
          "name": "B5",
          "ticks": 23460,
          "time": 58.64999999999999,
          "velocity": 0.6614173228346457
        },
        {
          "duration": 1.1999999999999957,
          "durationTicks": 480,
          "midi": 79,
          "name": "G5",
          "ticks": 23520,
          "time": 58.8,
          "velocity": 0.6614173228346457
        },
        {
          "duration": 1.1999999999999957,
          "durationTicks": 480,
          "midi": 74,
          "name": "D5",
          "ticks": 23520,
          "time": 58.8,
          "velocity": 0.6614173228346457
        }
      ]
    },
    {
      "channel": 0,
      "controlChanges": {
        "0": [
          {
            "number": 0,
            "ticks": 135,
            "time": 0.33749999999999997,
            "value": 0
          }
        ],
        "32": [
          {
            "number": 32,
            "ticks": 136,
            "time": 0.33999999999999997,
            "value": 0
          }
        ],
        "91": [
          {
            "number": 91,
            "ticks": 0,
            "time": 0,
            "value": 0
          }
        ],
        "93": [
          {
            "number": 93,
            "ticks": 0,
            "time": 0,
            "value": 0
          }
        ]
      },
      "pitchBends": [],
      "instrument": {
        "family": "piano",
        "number": 0,
        "name": "acoustic grand piano"
      },
      "name": "",
      "notes": [],
      "endOfTrackTicks": 28440
    },
    {
      "channel": 4,
      "controlChanges": {
        "1": [
          {
            "number": 1,
            "ticks": 4800,
            "time": 12,
            "value": 0.12598425196850394
          }
        ],
        "7": [
          {
            "number": 7,
            "ticks": 138,
            "time": 0.345,
            "value": 0.5354330708661418
          }
        ],
        "10": [
          {
            "number": 10,
            "ticks": 138,
            "time": 0.345,
            "value": 0.5039370078740157
          }
        ]
      },
      "pitchBends": [],
      "instrument": {
        "family": "organ",
        "number": 16,
        "name": "drawbar organ"
      },
      "name": "",
      "notes": [
        {
          "duration": 0.11250000000000071,
          "durationTicks": 45,
          "midi": 86,
          "name": "D6",
          "ticks": 5280,
          "time": 13.2,
          "velocity": 1
        },
        {
          "duration": 0.11250000000000071,
          "durationTicks": 45,
          "midi": 79,
          "name": "G5",
          "ticks": 5280,
          "time": 13.2,
          "velocity": 1
        },
        {
          "duration": 0.11250000000000071,
          "durationTicks": 45,
          "midi": 98,
          "name": "D7",
          "ticks": 5280,
          "time": 13.2,
          "velocity": 0.6220472440944882
        },
        {
          "duration": 0.11250000000000071,
          "durationTicks": 45,
          "midi": 91,
          "name": "G6",
          "ticks": 5280,
          "time": 13.2,
          "velocity": 0.6220472440944882
        },
        {
          "duration": 0.11249999999999893,
          "durationTicks": 45,
          "midi": 98,
          "name": "D7",
          "ticks": 5400,
          "time": 13.5,
          "velocity": 0.6220472440944882
        },
        {
          "duration": 0.11249999999999893,
          "durationTicks": 45,
          "midi": 91,
          "name": "G6",
          "ticks": 5400,
          "time": 13.5,
          "velocity": 0.6220472440944882
        },
        {
          "duration": 0.11249999999999893,
          "durationTicks": 45,
          "midi": 86,
          "name": "D6",
          "ticks": 5400,
          "time": 13.5,
          "velocity": 1
        },
        {
          "duration": 0.11249999999999893,
          "durationTicks": 45,
          "midi": 79,
          "name": "G5",
          "ticks": 5400,
          "time": 13.5,
          "velocity": 1
        },
        {
          "duration": 0.2699999999999996,
          "durationTicks": 108,
          "midi": 86,
          "name": "D6",
          "ticks": 5520,
          "time": 13.799999999999999,
          "velocity": 1
        },
        {
          "duration": 0.2699999999999996,
          "durationTicks": 108,
          "midi": 79,
          "name": "G5",
          "ticks": 5520,
          "time": 13.799999999999999,
          "velocity": 1
        },
        {
          "duration": 0.2699999999999996,
          "durationTicks": 108,
          "midi": 98,
          "name": "D7",
          "ticks": 5520,
          "time": 13.799999999999999,
          "velocity": 0.6220472440944882
        },
        {
          "duration": 0.2699999999999996,
          "durationTicks": 108,
          "midi": 91,
          "name": "G6",
          "ticks": 5520,
          "time": 13.799999999999999,
          "velocity": 0.6220472440944882
        },
        {
          "duration": 0.11249999999999893,
          "durationTicks": 45,
          "midi": 100,
          "name": "E7",
          "ticks": 5700,
          "time": 14.25,
          "velocity": 0.6220472440944882
        },
        {
          "duration": 0.11249999999999893,
          "durationTicks": 45,
          "midi": 96,
          "name": "C7",
          "ticks": 5700,
          "time": 14.25,
          "velocity": 0.6220472440944882
        },
        {
          "duration": 0.11249999999999893,
          "durationTicks": 45,
          "midi": 88,
          "name": "E6",
          "ticks": 5700,
          "time": 14.25,
          "velocity": 1
        },
        {
          "duration": 0.11249999999999893,
          "durationTicks": 45,
          "midi": 84,
          "name": "C6",
          "ticks": 5700,
          "time": 14.25,
          "velocity": 1
        },
        {
          "duration": 0.11250000000000071,
          "durationTicks": 45,
          "midi": 88,
          "name": "E6",
          "ticks": 5820,
          "time": 14.549999999999999,
          "velocity": 1
        },
        {
          "duration": 0.11250000000000071,
          "durationTicks": 45,
          "midi": 84,
          "name": "C6",
          "ticks": 5820,
          "time": 14.549999999999999,
          "velocity": 1
        },
        {
          "duration": 0.11250000000000071,
          "durationTicks": 45,
          "midi": 100,
          "name": "E7",
          "ticks": 5820,
          "time": 14.549999999999999,
          "velocity": 0.6220472440944882
        },
        {
          "duration": 0.11250000000000071,
          "durationTicks": 45,
          "midi": 96,
          "name": "C7",
          "ticks": 5820,
          "time": 14.549999999999999,
          "velocity": 0.6220472440944882
        },
        {
          "duration": 0.11249999999999893,
          "durationTicks": 45,
          "midi": 100,
          "name": "E7",
          "ticks": 5940,
          "time": 14.85,
          "velocity": 0.6220472440944882
        },
        {
          "duration": 0.11249999999999893,
          "durationTicks": 45,
          "midi": 96,
          "name": "C7",
          "ticks": 5940,
          "time": 14.85,
          "velocity": 0.6220472440944882
        },
        {
          "duration": 0.11249999999999893,
          "durationTicks": 45,
          "midi": 88,
          "name": "E6",
          "ticks": 5940,
          "time": 14.85,
          "velocity": 1
        },
        {
          "duration": 0.11249999999999893,
          "durationTicks": 45,
          "midi": 84,
          "name": "C6",
          "ticks": 5940,
          "time": 14.85,
          "velocity": 1
        },
        {
          "duration": 0.29999999999999893,
          "durationTicks": 120,
          "midi": 88,
          "name": "E6",
          "ticks": 6000,
          "time": 15,
          "velocity": 1
        },
        {
          "duration": 0.29999999999999893,
          "durationTicks": 120,
          "midi": 84,
          "name": "C6",
          "ticks": 6000,
          "time": 15,
          "velocity": 1
        },
        {
          "duration": 0.29999999999999893,
          "durationTicks": 120,
          "midi": 100,
          "name": "E7",
          "ticks": 6000,
          "time": 15,
          "velocity": 0.6220472440944882
        },
        {
          "duration": 0.29999999999999893,
          "durationTicks": 120,
          "midi": 96,
          "name": "C7",
          "ticks": 6000,
          "time": 15,
          "velocity": 0.6220472440944882
        },
        {
          "duration": 0.11249999999999893,
          "durationTicks": 45,
          "midi": 98,
          "name": "D7",
          "ticks": 6240,
          "time": 15.6,
          "velocity": 0.6220472440944882
        },
        {
          "duration": 0.11249999999999893,
          "durationTicks": 45,
          "midi": 91,
          "name": "G6",
          "ticks": 6240,
          "time": 15.6,
          "velocity": 0.6220472440944882
        },
        {
          "duration": 0.11249999999999893,
          "durationTicks": 45,
          "midi": 79,
          "name": "G5",
          "ticks": 6240,
          "time": 15.6,
          "velocity": 1
        },
        {
          "duration": 0.11249999999999893,
          "durationTicks": 45,
          "midi": 86,
          "name": "D6",
          "ticks": 6240,
          "time": 15.6,
          "velocity": 1
        },
        {
          "duration": 0.11250000000000071,
          "durationTicks": 45,
          "midi": 98,
          "name": "D7",
          "ticks": 6360,
          "time": 15.899999999999999,
          "velocity": 0.6220472440944882
        },
        {
          "duration": 0.11250000000000071,
          "durationTicks": 45,
          "midi": 86,
          "name": "D6",
          "ticks": 6360,
          "time": 15.899999999999999,
          "velocity": 1
        },
        {
          "duration": 0.11250000000000071,
          "durationTicks": 45,
          "midi": 79,
          "name": "G5",
          "ticks": 6360,
          "time": 15.899999999999999,
          "velocity": 1
        },
        {
          "duration": 0.11250000000000071,
          "durationTicks": 45,
          "midi": 91,
          "name": "G6",
          "ticks": 6360,
          "time": 15.899999999999999,
          "velocity": 0.6220472440944882
        },
        {
          "duration": 0.2699999999999996,
          "durationTicks": 108,
          "midi": 79,
          "name": "G5",
          "ticks": 6480,
          "time": 16.2,
          "velocity": 1
        },
        {
          "duration": 0.2699999999999996,
          "durationTicks": 108,
          "midi": 91,
          "name": "G6",
          "ticks": 6480,
          "time": 16.2,
          "velocity": 0.6220472440944882
        },
        {
          "duration": 0.2699999999999996,
          "durationTicks": 108,
          "midi": 98,
          "name": "D7",
          "ticks": 6480,
          "time": 16.2,
          "velocity": 0.6220472440944882
        },
        {
          "duration": 0.2699999999999996,
          "durationTicks": 108,
          "midi": 86,
          "name": "D6",
          "ticks": 6480,
          "time": 16.2,
          "velocity": 1
        },
        {
          "duration": 0.11250000000000071,
          "durationTicks": 45,
          "midi": 84,
          "name": "C6",
          "ticks": 6660,
          "time": 16.65,
          "velocity": 1
        },
        {
          "duration": 0.11250000000000071,
          "durationTicks": 45,
          "midi": 88,
          "name": "E6",
          "ticks": 6660,
          "time": 16.65,
          "velocity": 1
        },
        {
          "duration": 0.11250000000000071,
          "durationTicks": 45,
          "midi": 100,
          "name": "E7",
          "ticks": 6660,
          "time": 16.65,
          "velocity": 0.6220472440944882
        },
        {
          "duration": 0.11250000000000071,
          "durationTicks": 45,
          "midi": 96,
          "name": "C7",
          "ticks": 6660,
          "time": 16.65,
          "velocity": 0.6220472440944882
        },
        {
          "duration": 0.11250000000000071,
          "durationTicks": 45,
          "midi": 100,
          "name": "E7",
          "ticks": 6780,
          "time": 16.95,
          "velocity": 0.6220472440944882
        },
        {
          "duration": 0.11250000000000071,
          "durationTicks": 45,
          "midi": 96,
          "name": "C7",
          "ticks": 6780,
          "time": 16.95,
          "velocity": 0.6220472440944882
        },
        {
          "duration": 0.11250000000000071,
          "durationTicks": 45,
          "midi": 84,
          "name": "C6",
          "ticks": 6780,
          "time": 16.95,
          "velocity": 1
        },
        {
          "duration": 0.11250000000000071,
          "durationTicks": 45,
          "midi": 88,
          "name": "E6",
          "ticks": 6780,
          "time": 16.95,
          "velocity": 1
        },
        {
          "duration": 0.11250000000000071,
          "durationTicks": 45,
          "midi": 100,
          "name": "E7",
          "ticks": 6900,
          "time": 17.25,
          "velocity": 0.6220472440944882
        },
        {
          "duration": 0.11250000000000071,
          "durationTicks": 45,
          "midi": 88,
          "name": "E6",
          "ticks": 6900,
          "time": 17.25,
          "velocity": 1
        },
        {
          "duration": 0.11250000000000071,
          "durationTicks": 45,
          "midi": 84,
          "name": "C6",
          "ticks": 6900,
          "time": 17.25,
          "velocity": 1
        },
        {
          "duration": 0.11250000000000071,
          "durationTicks": 45,
          "midi": 96,
          "name": "C7",
          "ticks": 6900,
          "time": 17.25,
          "velocity": 0.6220472440944882
        },
        {
          "duration": 0.3000000000000007,
          "durationTicks": 120,
          "midi": 84,
          "name": "C6",
          "ticks": 6960,
          "time": 17.4,
          "velocity": 1
        },
        {
          "duration": 0.3000000000000007,
          "durationTicks": 120,
          "midi": 96,
          "name": "C7",
          "ticks": 6960,
          "time": 17.4,
          "velocity": 0.6220472440944882
        },
        {
          "duration": 0.3000000000000007,
          "durationTicks": 120,
          "midi": 100,
          "name": "E7",
          "ticks": 6960,
          "time": 17.4,
          "velocity": 0.6220472440944882
        },
        {
          "duration": 0.3000000000000007,
          "durationTicks": 120,
          "midi": 88,
          "name": "E6",
          "ticks": 6960,
          "time": 17.4,
          "velocity": 1
        },
        {
          "duration": 0.11250000000000071,
          "durationTicks": 45,
          "midi": 81,
          "name": "A5",
          "ticks": 7200,
          "time": 18,
          "velocity": 1
        },
        {
          "duration": 0.11250000000000071,
          "durationTicks": 45,
          "midi": 88,
          "name": "E6",
          "ticks": 7200,
          "time": 18,
          "velocity": 1
        },
        {
          "duration": 0.11250000000000071,
          "durationTicks": 45,
          "midi": 100,
          "name": "E7",
          "ticks": 7200,
          "time": 18,
          "velocity": 0.6220472440944882
        },
        {
          "duration": 0.11250000000000071,
          "durationTicks": 45,
          "midi": 93,
          "name": "A6",
          "ticks": 7200,
          "time": 18,
          "velocity": 0.6220472440944882
        },
        {
          "duration": 0.11249999999999716,
          "durationTicks": 45,
          "midi": 100,
          "name": "E7",
          "ticks": 7320,
          "time": 18.3,
          "velocity": 0.6220472440944882
        },
        {
          "duration": 0.11249999999999716,
          "durationTicks": 45,
          "midi": 93,
          "name": "A6",
          "ticks": 7320,
          "time": 18.3,
          "velocity": 0.6220472440944882
        },
        {
          "duration": 0.11249999999999716,
          "durationTicks": 45,
          "midi": 81,
          "name": "A5",
          "ticks": 7320,
          "time": 18.3,
          "velocity": 1
        },
        {
          "duration": 0.11249999999999716,
          "durationTicks": 45,
          "midi": 88,
          "name": "E6",
          "ticks": 7320,
          "time": 18.3,
          "velocity": 1
        },
        {
          "duration": 0.2699999999999996,
          "durationTicks": 108,
          "midi": 100,
          "name": "E7",
          "ticks": 7440,
          "time": 18.599999999999998,
          "velocity": 0.6220472440944882
        },
        {
          "duration": 0.2699999999999996,
          "durationTicks": 108,
          "midi": 88,
          "name": "E6",
          "ticks": 7440,
          "time": 18.599999999999998,
          "velocity": 1
        },
        {
          "duration": 0.2699999999999996,
          "durationTicks": 108,
          "midi": 81,
          "name": "A5",
          "ticks": 7440,
          "time": 18.599999999999998,
          "velocity": 1
        },
        {
          "duration": 0.2699999999999996,
          "durationTicks": 108,
          "midi": 93,
          "name": "A6",
          "ticks": 7440,
          "time": 18.599999999999998,
          "velocity": 0.6220472440944882
        },
        {
          "duration": 0.11249999999999716,
          "durationTicks": 45,
          "midi": 90,
          "name": "F#6",
          "ticks": 7620,
          "time": 19.05,
          "velocity": 1
        },
        {
          "duration": 0.11249999999999716,
          "durationTicks": 45,
          "midi": 78,
          "name": "F#5",
          "ticks": 7620,
          "time": 19.05,
          "velocity": 0.6220472440944882
        },
        {
          "duration": 0.11249999999999716,
          "durationTicks": 45,
          "midi": 86,
          "name": "D6",
          "ticks": 7620,
          "time": 19.05,
          "velocity": 1
        },
        {
          "duration": 0.11249999999999716,
          "durationTicks": 45,
          "midi": 98,
          "name": "D7",
          "ticks": 7620,
          "time": 19.05,
          "velocity": 0.6220472440944882
        },
        {
          "duration": 0.11250000000000071,
          "durationTicks": 45,
          "midi": 90,
          "name": "F#6",
          "ticks": 7740,
          "time": 19.349999999999998,
          "velocity": 1
        },
        {
          "duration": 0.11250000000000071,
          "durationTicks": 45,
          "midi": 86,
          "name": "D6",
          "ticks": 7740,
          "time": 19.349999999999998,
          "velocity": 1
        },
        {
          "duration": 0.11250000000000071,
          "durationTicks": 45,
          "midi": 98,
          "name": "D7",
          "ticks": 7740,
          "time": 19.349999999999998,
          "velocity": 0.6220472440944882
        },
        {
          "duration": 0.11250000000000071,
          "durationTicks": 45,
          "midi": 78,
          "name": "F#5",
          "ticks": 7740,
          "time": 19.349999999999998,
          "velocity": 0.6220472440944882
        },
        {
          "duration": 0.11250000000000071,
          "durationTicks": 45,
          "midi": 78,
          "name": "F#5",
          "ticks": 7860,
          "time": 19.65,
          "velocity": 0.6220472440944882
        },
        {
          "duration": 0.11250000000000071,
          "durationTicks": 45,
          "midi": 90,
          "name": "F#6",
          "ticks": 7860,
          "time": 19.65,
          "velocity": 1
        },
        {
          "duration": 0.11250000000000071,
          "durationTicks": 45,
          "midi": 86,
          "name": "D6",
          "ticks": 7860,
          "time": 19.65,
          "velocity": 1
        },
        {
          "duration": 0.11250000000000071,
          "durationTicks": 45,
          "midi": 98,
          "name": "D7",
          "ticks": 7860,
          "time": 19.65,
          "velocity": 0.6220472440944882
        },
        {
          "duration": 0.29999999999999716,
          "durationTicks": 120,
          "midi": 90,
          "name": "F#6",
          "ticks": 7920,
          "time": 19.8,
          "velocity": 1
        },
        {
          "duration": 0.29999999999999716,
          "durationTicks": 120,
          "midi": 86,
          "name": "D6",
          "ticks": 7920,
          "time": 19.8,
          "velocity": 1
        },
        {
          "duration": 0.29999999999999716,
          "durationTicks": 120,
          "midi": 78,
          "name": "F#5",
          "ticks": 7920,
          "time": 19.8,
          "velocity": 0.6220472440944882
        },
        {
          "duration": 0.29999999999999716,
          "durationTicks": 120,
          "midi": 98,
          "name": "D7",
          "ticks": 7920,
          "time": 19.8,
          "velocity": 0.6220472440944882
        },
        {
          "duration": 0.11250000000000071,
          "durationTicks": 45,
          "midi": 88,
          "name": "E6",
          "ticks": 8160,
          "time": 20.4,
          "velocity": 1
        },
        {
          "duration": 0.11250000000000071,
          "durationTicks": 45,
          "midi": 100,
          "name": "E7",
          "ticks": 8160,
          "time": 20.4,
          "velocity": 0.6220472440944882
        },
        {
          "duration": 0.11250000000000071,
          "durationTicks": 45,
          "midi": 93,
          "name": "A6",
          "ticks": 8160,
          "time": 20.4,
          "velocity": 0.6220472440944882
        },
        {
          "duration": 0.11250000000000071,
          "durationTicks": 45,
          "midi": 81,
          "name": "A5",
          "ticks": 8160,
          "time": 20.4,
          "velocity": 1
        },
        {
          "duration": 0.11250000000000071,
          "durationTicks": 45,
          "midi": 93,
          "name": "A6",
          "ticks": 8280,
          "time": 20.7,
          "velocity": 0.6220472440944882
        },
        {
          "duration": 0.11250000000000071,
          "durationTicks": 45,
          "midi": 100,
          "name": "E7",
          "ticks": 8280,
          "time": 20.7,
          "velocity": 0.6220472440944882
        },
        {
          "duration": 0.11250000000000071,
          "durationTicks": 45,
          "midi": 88,
          "name": "E6",
          "ticks": 8280,
          "time": 20.7,
          "velocity": 1
        },
        {
          "duration": 0.11250000000000071,
          "durationTicks": 45,
          "midi": 81,
          "name": "A5",
          "ticks": 8280,
          "time": 20.7,
          "velocity": 1
        },
        {
          "duration": 0.2699999999999996,
          "durationTicks": 108,
          "midi": 88,
          "name": "E6",
          "ticks": 8400,
          "time": 21,
          "velocity": 1
        },
        {
          "duration": 0.2699999999999996,
          "durationTicks": 108,
          "midi": 81,
          "name": "A5",
          "ticks": 8400,
          "time": 21,
          "velocity": 1
        },
        {
          "duration": 0.2699999999999996,
          "durationTicks": 108,
          "midi": 93,
          "name": "A6",
          "ticks": 8400,
          "time": 21,
          "velocity": 0.6220472440944882
        },
        {
          "duration": 0.2699999999999996,
          "durationTicks": 108,
          "midi": 100,
          "name": "E7",
          "ticks": 8400,
          "time": 21,
          "velocity": 0.6220472440944882
        },
        {
          "duration": 0.11250000000000071,
          "durationTicks": 45,
          "midi": 78,
          "name": "F#5",
          "ticks": 8580,
          "time": 21.45,
          "velocity": 0.6220472440944882
        },
        {
          "duration": 0.11250000000000071,
          "durationTicks": 45,
          "midi": 86,
          "name": "D6",
          "ticks": 8580,
          "time": 21.45,
          "velocity": 1
        },
        {
          "duration": 0.11250000000000071,
          "durationTicks": 45,
          "midi": 90,
          "name": "F#6",
          "ticks": 8580,
          "time": 21.45,
          "velocity": 1
        },
        {
          "duration": 0.11250000000000071,
          "durationTicks": 45,
          "midi": 98,
          "name": "D7",
          "ticks": 8580,
          "time": 21.45,
          "velocity": 0.6220472440944882
        },
        {
          "duration": 0.11250000000000071,
          "durationTicks": 45,
          "midi": 98,
          "name": "D7",
          "ticks": 8700,
          "time": 21.75,
          "velocity": 0.6220472440944882
        },
        {
          "duration": 0.11250000000000071,
          "durationTicks": 45,
          "midi": 90,
          "name": "F#6",
          "ticks": 8700,
          "time": 21.75,
          "velocity": 1
        },
        {
          "duration": 0.11250000000000071,
          "durationTicks": 45,
          "midi": 86,
          "name": "D6",
          "ticks": 8700,
          "time": 21.75,
          "velocity": 1
        },
        {
          "duration": 0.11250000000000071,
          "durationTicks": 45,
          "midi": 78,
          "name": "F#5",
          "ticks": 8700,
          "time": 21.75,
          "velocity": 0.6220472440944882
        },
        {
          "duration": 0.11249999999999716,
          "durationTicks": 45,
          "midi": 90,
          "name": "F#6",
          "ticks": 8820,
          "time": 22.05,
          "velocity": 1
        },
        {
          "duration": 0.11249999999999716,
          "durationTicks": 45,
          "midi": 78,
          "name": "F#5",
          "ticks": 8820,
          "time": 22.05,
          "velocity": 0.6220472440944882
        },
        {
          "duration": 0.11249999999999716,
          "durationTicks": 45,
          "midi": 98,
          "name": "D7",
          "ticks": 8820,
          "time": 22.05,
          "velocity": 0.6220472440944882
        },
        {
          "duration": 0.11249999999999716,
          "durationTicks": 45,
          "midi": 86,
          "name": "D6",
          "ticks": 8820,
          "time": 22.05,
          "velocity": 1
        },
        {
          "duration": 0.3000000000000007,
          "durationTicks": 120,
          "midi": 78,
          "name": "F#5",
          "ticks": 8880,
          "time": 22.2,
          "velocity": 0.6220472440944882
        },
        {
          "duration": 0.3000000000000007,
          "durationTicks": 120,
          "midi": 86,
          "name": "D6",
          "ticks": 8880,
          "time": 22.2,
          "velocity": 1
        },
        {
          "duration": 0.3000000000000007,
          "durationTicks": 120,
          "midi": 90,
          "name": "F#6",
          "ticks": 8880,
          "time": 22.2,
          "velocity": 1
        },
        {
          "duration": 0.3000000000000007,
          "durationTicks": 120,
          "midi": 98,
          "name": "D7",
          "ticks": 8880,
          "time": 22.2,
          "velocity": 0.6220472440944882
        },
        {
          "duration": 0.29999999999999716,
          "durationTicks": 120,
          "midi": 95,
          "name": "B6",
          "ticks": 9120,
          "time": 22.8,
          "velocity": 0.6220472440944882
        },
        {
          "duration": 0.29999999999999716,
          "durationTicks": 120,
          "midi": 83,
          "name": "B5",
          "ticks": 9120,
          "time": 22.8,
          "velocity": 1
        },
        {
          "duration": 0.29999999999999716,
          "durationTicks": 120,
          "midi": 79,
          "name": "G5",
          "ticks": 9120,
          "time": 22.8,
          "velocity": 1
        },
        {
          "duration": 0.29999999999999716,
          "durationTicks": 120,
          "midi": 91,
          "name": "G6",
          "ticks": 9120,
          "time": 22.8,
          "velocity": 0.6220472440944882
        },
        {
          "duration": 0.11250000000000426,
          "durationTicks": 45,
          "midi": 86,
          "name": "D6",
          "ticks": 14880,
          "time": 37.199999999999996,
          "velocity": 1
        },
        {
          "duration": 0.11250000000000426,
          "durationTicks": 45,
          "midi": 79,
          "name": "G5",
          "ticks": 14880,
          "time": 37.199999999999996,
          "velocity": 1
        },
        {
          "duration": 0.11250000000000426,
          "durationTicks": 45,
          "midi": 98,
          "name": "D7",
          "ticks": 14880,
          "time": 37.199999999999996,
          "velocity": 0.6220472440944882
        },
        {
          "duration": 0.11250000000000426,
          "durationTicks": 45,
          "midi": 91,
          "name": "G6",
          "ticks": 14880,
          "time": 37.199999999999996,
          "velocity": 0.6220472440944882
        },
        {
          "duration": 0.11249999999999716,
          "durationTicks": 45,
          "midi": 98,
          "name": "D7",
          "ticks": 15000,
          "time": 37.5,
          "velocity": 0.6220472440944882
        },
        {
          "duration": 0.11249999999999716,
          "durationTicks": 45,
          "midi": 91,
          "name": "G6",
          "ticks": 15000,
          "time": 37.5,
          "velocity": 0.6220472440944882
        },
        {
          "duration": 0.11249999999999716,
          "durationTicks": 45,
          "midi": 86,
          "name": "D6",
          "ticks": 15000,
          "time": 37.5,
          "velocity": 1
        },
        {
          "duration": 0.11249999999999716,
          "durationTicks": 45,
          "midi": 79,
          "name": "G5",
          "ticks": 15000,
          "time": 37.5,
          "velocity": 1
        },
        {
          "duration": 0.269999999999996,
          "durationTicks": 108,
          "midi": 86,
          "name": "D6",
          "ticks": 15120,
          "time": 37.8,
          "velocity": 1
        },
        {
          "duration": 0.269999999999996,
          "durationTicks": 108,
          "midi": 79,
          "name": "G5",
          "ticks": 15120,
          "time": 37.8,
          "velocity": 1
        },
        {
          "duration": 0.269999999999996,
          "durationTicks": 108,
          "midi": 98,
          "name": "D7",
          "ticks": 15120,
          "time": 37.8,
          "velocity": 0.6220472440944882
        },
        {
          "duration": 0.269999999999996,
          "durationTicks": 108,
          "midi": 91,
          "name": "G6",
          "ticks": 15120,
          "time": 37.8,
          "velocity": 0.6220472440944882
        },
        {
          "duration": 0.11249999999999716,
          "durationTicks": 45,
          "midi": 100,
          "name": "E7",
          "ticks": 15300,
          "time": 38.25,
          "velocity": 0.6220472440944882
        },
        {
          "duration": 0.11249999999999716,
          "durationTicks": 45,
          "midi": 96,
          "name": "C7",
          "ticks": 15300,
          "time": 38.25,
          "velocity": 0.6220472440944882
        },
        {
          "duration": 0.11249999999999716,
          "durationTicks": 45,
          "midi": 88,
          "name": "E6",
          "ticks": 15300,
          "time": 38.25,
          "velocity": 1
        },
        {
          "duration": 0.11249999999999716,
          "durationTicks": 45,
          "midi": 84,
          "name": "C6",
          "ticks": 15300,
          "time": 38.25,
          "velocity": 1
        },
        {
          "duration": 0.11249999999999716,
          "durationTicks": 45,
          "midi": 88,
          "name": "E6",
          "ticks": 15420,
          "time": 38.55,
          "velocity": 1
        },
        {
          "duration": 0.11249999999999716,
          "durationTicks": 45,
          "midi": 84,
          "name": "C6",
          "ticks": 15420,
          "time": 38.55,
          "velocity": 1
        },
        {
          "duration": 0.11249999999999716,
          "durationTicks": 45,
          "midi": 100,
          "name": "E7",
          "ticks": 15420,
          "time": 38.55,
          "velocity": 0.6220472440944882
        },
        {
          "duration": 0.11249999999999716,
          "durationTicks": 45,
          "midi": 96,
          "name": "C7",
          "ticks": 15420,
          "time": 38.55,
          "velocity": 0.6220472440944882
        },
        {
          "duration": 0.11250000000000426,
          "durationTicks": 45,
          "midi": 100,
          "name": "E7",
          "ticks": 15540,
          "time": 38.849999999999994,
          "velocity": 0.6220472440944882
        },
        {
          "duration": 0.11250000000000426,
          "durationTicks": 45,
          "midi": 96,
          "name": "C7",
          "ticks": 15540,
          "time": 38.849999999999994,
          "velocity": 0.6220472440944882
        },
        {
          "duration": 0.11250000000000426,
          "durationTicks": 45,
          "midi": 88,
          "name": "E6",
          "ticks": 15540,
          "time": 38.849999999999994,
          "velocity": 1
        },
        {
          "duration": 0.11250000000000426,
          "durationTicks": 45,
          "midi": 84,
          "name": "C6",
          "ticks": 15540,
          "time": 38.849999999999994,
          "velocity": 1
        },
        {
          "duration": 0.29999999999999716,
          "durationTicks": 120,
          "midi": 88,
          "name": "E6",
          "ticks": 15600,
          "time": 39,
          "velocity": 1
        },
        {
          "duration": 0.29999999999999716,
          "durationTicks": 120,
          "midi": 84,
          "name": "C6",
          "ticks": 15600,
          "time": 39,
          "velocity": 1
        },
        {
          "duration": 0.29999999999999716,
          "durationTicks": 120,
          "midi": 100,
          "name": "E7",
          "ticks": 15600,
          "time": 39,
          "velocity": 0.6220472440944882
        },
        {
          "duration": 0.29999999999999716,
          "durationTicks": 120,
          "midi": 96,
          "name": "C7",
          "ticks": 15600,
          "time": 39,
          "velocity": 0.6220472440944882
        },
        {
          "duration": 0.11250000000000426,
          "durationTicks": 45,
          "midi": 98,
          "name": "D7",
          "ticks": 15840,
          "time": 39.599999999999994,
          "velocity": 0.6220472440944882
        },
        {
          "duration": 0.11250000000000426,
          "durationTicks": 45,
          "midi": 91,
          "name": "G6",
          "ticks": 15840,
          "time": 39.599999999999994,
          "velocity": 0.6220472440944882
        },
        {
          "duration": 0.11250000000000426,
          "durationTicks": 45,
          "midi": 79,
          "name": "G5",
          "ticks": 15840,
          "time": 39.599999999999994,
          "velocity": 1
        },
        {
          "duration": 0.11250000000000426,
          "durationTicks": 45,
          "midi": 86,
          "name": "D6",
          "ticks": 15840,
          "time": 39.599999999999994,
          "velocity": 1
        },
        {
          "duration": 0.11249999999999716,
          "durationTicks": 45,
          "midi": 98,
          "name": "D7",
          "ticks": 15960,
          "time": 39.9,
          "velocity": 0.6220472440944882
        },
        {
          "duration": 0.11249999999999716,
          "durationTicks": 45,
          "midi": 86,
          "name": "D6",
          "ticks": 15960,
          "time": 39.9,
          "velocity": 1
        },
        {
          "duration": 0.11249999999999716,
          "durationTicks": 45,
          "midi": 79,
          "name": "G5",
          "ticks": 15960,
          "time": 39.9,
          "velocity": 1
        },
        {
          "duration": 0.11249999999999716,
          "durationTicks": 45,
          "midi": 91,
          "name": "G6",
          "ticks": 15960,
          "time": 39.9,
          "velocity": 0.6220472440944882
        },
        {
          "duration": 0.2700000000000031,
          "durationTicks": 108,
          "midi": 79,
          "name": "G5",
          "ticks": 16080,
          "time": 40.199999999999996,
          "velocity": 1
        },
        {
          "duration": 0.2700000000000031,
          "durationTicks": 108,
          "midi": 91,
          "name": "G6",
          "ticks": 16080,
          "time": 40.199999999999996,
          "velocity": 0.6220472440944882
        },
        {
          "duration": 0.2700000000000031,
          "durationTicks": 108,
          "midi": 98,
          "name": "D7",
          "ticks": 16080,
          "time": 40.199999999999996,
          "velocity": 0.6220472440944882
        },
        {
          "duration": 0.2700000000000031,
          "durationTicks": 108,
          "midi": 86,
          "name": "D6",
          "ticks": 16080,
          "time": 40.199999999999996,
          "velocity": 1
        },
        {
          "duration": 0.11249999999999716,
          "durationTicks": 45,
          "midi": 84,
          "name": "C6",
          "ticks": 16260,
          "time": 40.65,
          "velocity": 1
        },
        {
          "duration": 0.11249999999999716,
          "durationTicks": 45,
          "midi": 88,
          "name": "E6",
          "ticks": 16260,
          "time": 40.65,
          "velocity": 1
        },
        {
          "duration": 0.11249999999999716,
          "durationTicks": 45,
          "midi": 100,
          "name": "E7",
          "ticks": 16260,
          "time": 40.65,
          "velocity": 0.6220472440944882
        },
        {
          "duration": 0.11249999999999716,
          "durationTicks": 45,
          "midi": 96,
          "name": "C7",
          "ticks": 16260,
          "time": 40.65,
          "velocity": 0.6220472440944882
        },
        {
          "duration": 0.11250000000000426,
          "durationTicks": 45,
          "midi": 100,
          "name": "E7",
          "ticks": 16380,
          "time": 40.949999999999996,
          "velocity": 0.6220472440944882
        },
        {
          "duration": 0.11250000000000426,
          "durationTicks": 45,
          "midi": 96,
          "name": "C7",
          "ticks": 16380,
          "time": 40.949999999999996,
          "velocity": 0.6220472440944882
        },
        {
          "duration": 0.11250000000000426,
          "durationTicks": 45,
          "midi": 84,
          "name": "C6",
          "ticks": 16380,
          "time": 40.949999999999996,
          "velocity": 1
        },
        {
          "duration": 0.11250000000000426,
          "durationTicks": 45,
          "midi": 88,
          "name": "E6",
          "ticks": 16380,
          "time": 40.949999999999996,
          "velocity": 1
        },
        {
          "duration": 0.11249999999999716,
          "durationTicks": 45,
          "midi": 100,
          "name": "E7",
          "ticks": 16500,
          "time": 41.25,
          "velocity": 0.6220472440944882
        },
        {
          "duration": 0.11249999999999716,
          "durationTicks": 45,
          "midi": 88,
          "name": "E6",
          "ticks": 16500,
          "time": 41.25,
          "velocity": 1
        },
        {
          "duration": 0.11249999999999716,
          "durationTicks": 45,
          "midi": 84,
          "name": "C6",
          "ticks": 16500,
          "time": 41.25,
          "velocity": 1
        },
        {
          "duration": 0.11249999999999716,
          "durationTicks": 45,
          "midi": 96,
          "name": "C7",
          "ticks": 16500,
          "time": 41.25,
          "velocity": 0.6220472440944882
        },
        {
          "duration": 0.29999999999999716,
          "durationTicks": 120,
          "midi": 84,
          "name": "C6",
          "ticks": 16560,
          "time": 41.4,
          "velocity": 1
        },
        {
          "duration": 0.29999999999999716,
          "durationTicks": 120,
          "midi": 96,
          "name": "C7",
          "ticks": 16560,
          "time": 41.4,
          "velocity": 0.6220472440944882
        },
        {
          "duration": 0.29999999999999716,
          "durationTicks": 120,
          "midi": 100,
          "name": "E7",
          "ticks": 16560,
          "time": 41.4,
          "velocity": 0.6220472440944882
        },
        {
          "duration": 0.29999999999999716,
          "durationTicks": 120,
          "midi": 88,
          "name": "E6",
          "ticks": 16560,
          "time": 41.4,
          "velocity": 1
        },
        {
          "duration": 0.11249999999999716,
          "durationTicks": 45,
          "midi": 81,
          "name": "A5",
          "ticks": 16800,
          "time": 42,
          "velocity": 1
        },
        {
          "duration": 0.11249999999999716,
          "durationTicks": 45,
          "midi": 88,
          "name": "E6",
          "ticks": 16800,
          "time": 42,
          "velocity": 1
        },
        {
          "duration": 0.11249999999999716,
          "durationTicks": 45,
          "midi": 100,
          "name": "E7",
          "ticks": 16800,
          "time": 42,
          "velocity": 0.6220472440944882
        },
        {
          "duration": 0.11249999999999716,
          "durationTicks": 45,
          "midi": 93,
          "name": "A6",
          "ticks": 16800,
          "time": 42,
          "velocity": 0.6220472440944882
        },
        {
          "duration": 0.11249999999999716,
          "durationTicks": 45,
          "midi": 100,
          "name": "E7",
          "ticks": 16920,
          "time": 42.3,
          "velocity": 0.6220472440944882
        },
        {
          "duration": 0.11249999999999716,
          "durationTicks": 45,
          "midi": 93,
          "name": "A6",
          "ticks": 16920,
          "time": 42.3,
          "velocity": 0.6220472440944882
        },
        {
          "duration": 0.11249999999999716,
          "durationTicks": 45,
          "midi": 81,
          "name": "A5",
          "ticks": 16920,
          "time": 42.3,
          "velocity": 1
        },
        {
          "duration": 0.11249999999999716,
          "durationTicks": 45,
          "midi": 88,
          "name": "E6",
          "ticks": 16920,
          "time": 42.3,
          "velocity": 1
        },
        {
          "duration": 0.2700000000000031,
          "durationTicks": 108,
          "midi": 100,
          "name": "E7",
          "ticks": 17040,
          "time": 42.599999999999994,
          "velocity": 0.6220472440944882
        },
        {
          "duration": 0.2700000000000031,
          "durationTicks": 108,
          "midi": 88,
          "name": "E6",
          "ticks": 17040,
          "time": 42.599999999999994,
          "velocity": 1
        },
        {
          "duration": 0.2700000000000031,
          "durationTicks": 108,
          "midi": 81,
          "name": "A5",
          "ticks": 17040,
          "time": 42.599999999999994,
          "velocity": 1
        },
        {
          "duration": 0.2700000000000031,
          "durationTicks": 108,
          "midi": 93,
          "name": "A6",
          "ticks": 17040,
          "time": 42.599999999999994,
          "velocity": 0.6220472440944882
        },
        {
          "duration": 0.11249999999999716,
          "durationTicks": 45,
          "midi": 90,
          "name": "F#6",
          "ticks": 17220,
          "time": 43.05,
          "velocity": 1
        },
        {
          "duration": 0.11249999999999716,
          "durationTicks": 45,
          "midi": 78,
          "name": "F#5",
          "ticks": 17220,
          "time": 43.05,
          "velocity": 0.6220472440944882
        },
        {
          "duration": 0.11249999999999716,
          "durationTicks": 45,
          "midi": 86,
          "name": "D6",
          "ticks": 17220,
          "time": 43.05,
          "velocity": 1
        },
        {
          "duration": 0.11249999999999716,
          "durationTicks": 45,
          "midi": 98,
          "name": "D7",
          "ticks": 17220,
          "time": 43.05,
          "velocity": 0.6220472440944882
        },
        {
          "duration": 0.11250000000000426,
          "durationTicks": 45,
          "midi": 90,
          "name": "F#6",
          "ticks": 17340,
          "time": 43.349999999999994,
          "velocity": 1
        },
        {
          "duration": 0.11250000000000426,
          "durationTicks": 45,
          "midi": 86,
          "name": "D6",
          "ticks": 17340,
          "time": 43.349999999999994,
          "velocity": 1
        },
        {
          "duration": 0.11250000000000426,
          "durationTicks": 45,
          "midi": 98,
          "name": "D7",
          "ticks": 17340,
          "time": 43.349999999999994,
          "velocity": 0.6220472440944882
        },
        {
          "duration": 0.11250000000000426,
          "durationTicks": 45,
          "midi": 78,
          "name": "F#5",
          "ticks": 17340,
          "time": 43.349999999999994,
          "velocity": 0.6220472440944882
        },
        {
          "duration": 0.11249999999999716,
          "durationTicks": 45,
          "midi": 78,
          "name": "F#5",
          "ticks": 17460,
          "time": 43.65,
          "velocity": 0.6220472440944882
        },
        {
          "duration": 0.11249999999999716,
          "durationTicks": 45,
          "midi": 90,
          "name": "F#6",
          "ticks": 17460,
          "time": 43.65,
          "velocity": 1
        },
        {
          "duration": 0.11249999999999716,
          "durationTicks": 45,
          "midi": 86,
          "name": "D6",
          "ticks": 17460,
          "time": 43.65,
          "velocity": 1
        },
        {
          "duration": 0.11249999999999716,
          "durationTicks": 45,
          "midi": 98,
          "name": "D7",
          "ticks": 17460,
          "time": 43.65,
          "velocity": 0.6220472440944882
        },
        {
          "duration": 0.29999999999999716,
          "durationTicks": 120,
          "midi": 90,
          "name": "F#6",
          "ticks": 17520,
          "time": 43.8,
          "velocity": 1
        },
        {
          "duration": 0.29999999999999716,
          "durationTicks": 120,
          "midi": 86,
          "name": "D6",
          "ticks": 17520,
          "time": 43.8,
          "velocity": 1
        },
        {
          "duration": 0.29999999999999716,
          "durationTicks": 120,
          "midi": 78,
          "name": "F#5",
          "ticks": 17520,
          "time": 43.8,
          "velocity": 0.6220472440944882
        },
        {
          "duration": 0.29999999999999716,
          "durationTicks": 120,
          "midi": 98,
          "name": "D7",
          "ticks": 17520,
          "time": 43.8,
          "velocity": 0.6220472440944882
        },
        {
          "duration": 0.11249999999999716,
          "durationTicks": 45,
          "midi": 88,
          "name": "E6",
          "ticks": 17760,
          "time": 44.4,
          "velocity": 1
        },
        {
          "duration": 0.11249999999999716,
          "durationTicks": 45,
          "midi": 100,
          "name": "E7",
          "ticks": 17760,
          "time": 44.4,
          "velocity": 0.6220472440944882
        },
        {
          "duration": 0.11249999999999716,
          "durationTicks": 45,
          "midi": 93,
          "name": "A6",
          "ticks": 17760,
          "time": 44.4,
          "velocity": 0.6220472440944882
        },
        {
          "duration": 0.11249999999999716,
          "durationTicks": 45,
          "midi": 81,
          "name": "A5",
          "ticks": 17760,
          "time": 44.4,
          "velocity": 1
        },
        {
          "duration": 0.11250000000000426,
          "durationTicks": 45,
          "midi": 93,
          "name": "A6",
          "ticks": 17880,
          "time": 44.699999999999996,
          "velocity": 0.6220472440944882
        },
        {
          "duration": 0.11250000000000426,
          "durationTicks": 45,
          "midi": 100,
          "name": "E7",
          "ticks": 17880,
          "time": 44.699999999999996,
          "velocity": 0.6220472440944882
        },
        {
          "duration": 0.11250000000000426,
          "durationTicks": 45,
          "midi": 88,
          "name": "E6",
          "ticks": 17880,
          "time": 44.699999999999996,
          "velocity": 1
        },
        {
          "duration": 0.11250000000000426,
          "durationTicks": 45,
          "midi": 81,
          "name": "A5",
          "ticks": 17880,
          "time": 44.699999999999996,
          "velocity": 1
        },
        {
          "duration": 0.269999999999996,
          "durationTicks": 108,
          "midi": 88,
          "name": "E6",
          "ticks": 18000,
          "time": 45,
          "velocity": 1
        },
        {
          "duration": 0.269999999999996,
          "durationTicks": 108,
          "midi": 81,
          "name": "A5",
          "ticks": 18000,
          "time": 45,
          "velocity": 1
        },
        {
          "duration": 0.269999999999996,
          "durationTicks": 108,
          "midi": 93,
          "name": "A6",
          "ticks": 18000,
          "time": 45,
          "velocity": 0.6220472440944882
        },
        {
          "duration": 0.269999999999996,
          "durationTicks": 108,
          "midi": 100,
          "name": "E7",
          "ticks": 18000,
          "time": 45,
          "velocity": 0.6220472440944882
        },
        {
          "duration": 0.11250000000000426,
          "durationTicks": 45,
          "midi": 78,
          "name": "F#5",
          "ticks": 18180,
          "time": 45.449999999999996,
          "velocity": 0.6220472440944882
        },
        {
          "duration": 0.11250000000000426,
          "durationTicks": 45,
          "midi": 86,
          "name": "D6",
          "ticks": 18180,
          "time": 45.449999999999996,
          "velocity": 1
        },
        {
          "duration": 0.11250000000000426,
          "durationTicks": 45,
          "midi": 90,
          "name": "F#6",
          "ticks": 18180,
          "time": 45.449999999999996,
          "velocity": 1
        },
        {
          "duration": 0.11250000000000426,
          "durationTicks": 45,
          "midi": 98,
          "name": "D7",
          "ticks": 18180,
          "time": 45.449999999999996,
          "velocity": 0.6220472440944882
        },
        {
          "duration": 0.11249999999999716,
          "durationTicks": 45,
          "midi": 98,
          "name": "D7",
          "ticks": 18300,
          "time": 45.75,
          "velocity": 0.6220472440944882
        },
        {
          "duration": 0.11249999999999716,
          "durationTicks": 45,
          "midi": 90,
          "name": "F#6",
          "ticks": 18300,
          "time": 45.75,
          "velocity": 1
        },
        {
          "duration": 0.11249999999999716,
          "durationTicks": 45,
          "midi": 86,
          "name": "D6",
          "ticks": 18300,
          "time": 45.75,
          "velocity": 1
        },
        {
          "duration": 0.11249999999999716,
          "durationTicks": 45,
          "midi": 78,
          "name": "F#5",
          "ticks": 18300,
          "time": 45.75,
          "velocity": 0.6220472440944882
        },
        {
          "duration": 0.11249999999999716,
          "durationTicks": 45,
          "midi": 90,
          "name": "F#6",
          "ticks": 18420,
          "time": 46.05,
          "velocity": 1
        },
        {
          "duration": 0.11249999999999716,
          "durationTicks": 45,
          "midi": 78,
          "name": "F#5",
          "ticks": 18420,
          "time": 46.05,
          "velocity": 0.6220472440944882
        },
        {
          "duration": 0.11249999999999716,
          "durationTicks": 45,
          "midi": 98,
          "name": "D7",
          "ticks": 18420,
          "time": 46.05,
          "velocity": 0.6220472440944882
        },
        {
          "duration": 0.11249999999999716,
          "durationTicks": 45,
          "midi": 86,
          "name": "D6",
          "ticks": 18420,
          "time": 46.05,
          "velocity": 1
        },
        {
          "duration": 0.30000000000000426,
          "durationTicks": 120,
          "midi": 78,
          "name": "F#5",
          "ticks": 18480,
          "time": 46.199999999999996,
          "velocity": 0.6220472440944882
        },
        {
          "duration": 0.30000000000000426,
          "durationTicks": 120,
          "midi": 86,
          "name": "D6",
          "ticks": 18480,
          "time": 46.199999999999996,
          "velocity": 1
        },
        {
          "duration": 0.30000000000000426,
          "durationTicks": 120,
          "midi": 90,
          "name": "F#6",
          "ticks": 18480,
          "time": 46.199999999999996,
          "velocity": 1
        },
        {
          "duration": 0.30000000000000426,
          "durationTicks": 120,
          "midi": 98,
          "name": "D7",
          "ticks": 18480,
          "time": 46.199999999999996,
          "velocity": 0.6220472440944882
        },
        {
          "duration": 0.29999999999999716,
          "durationTicks": 120,
          "midi": 95,
          "name": "B6",
          "ticks": 18720,
          "time": 46.8,
          "velocity": 0.6220472440944882
        },
        {
          "duration": 0.29999999999999716,
          "durationTicks": 120,
          "midi": 83,
          "name": "B5",
          "ticks": 18720,
          "time": 46.8,
          "velocity": 1
        },
        {
          "duration": 0.29999999999999716,
          "durationTicks": 120,
          "midi": 79,
          "name": "G5",
          "ticks": 18720,
          "time": 46.8,
          "velocity": 1
        },
        {
          "duration": 0.29999999999999716,
          "durationTicks": 120,
          "midi": 91,
          "name": "G6",
          "ticks": 18720,
          "time": 46.8,
          "velocity": 0.6220472440944882
        },
        {
          "duration": 0.11249999999999716,
          "durationTicks": 45,
          "midi": 86,
          "name": "D6",
          "ticks": 24480,
          "time": 61.199999999999996,
          "velocity": 1
        },
        {
          "duration": 0.11249999999999716,
          "durationTicks": 45,
          "midi": 79,
          "name": "G5",
          "ticks": 24480,
          "time": 61.199999999999996,
          "velocity": 1
        },
        {
          "duration": 0.11249999999999716,
          "durationTicks": 45,
          "midi": 98,
          "name": "D7",
          "ticks": 24480,
          "time": 61.199999999999996,
          "velocity": 0.6220472440944882
        },
        {
          "duration": 0.11249999999999716,
          "durationTicks": 45,
          "midi": 91,
          "name": "G6",
          "ticks": 24480,
          "time": 61.199999999999996,
          "velocity": 0.6220472440944882
        },
        {
          "duration": 0.11250000000000426,
          "durationTicks": 45,
          "midi": 98,
          "name": "D7",
          "ticks": 24600,
          "time": 61.49999999999999,
          "velocity": 0.6220472440944882
        },
        {
          "duration": 0.11250000000000426,
          "durationTicks": 45,
          "midi": 91,
          "name": "G6",
          "ticks": 24600,
          "time": 61.49999999999999,
          "velocity": 0.6220472440944882
        },
        {
          "duration": 0.11250000000000426,
          "durationTicks": 45,
          "midi": 86,
          "name": "D6",
          "ticks": 24600,
          "time": 61.49999999999999,
          "velocity": 1
        },
        {
          "duration": 0.11250000000000426,
          "durationTicks": 45,
          "midi": 79,
          "name": "G5",
          "ticks": 24600,
          "time": 61.49999999999999,
          "velocity": 1
        },
        {
          "duration": 0.269999999999996,
          "durationTicks": 108,
          "midi": 86,
          "name": "D6",
          "ticks": 24720,
          "time": 61.8,
          "velocity": 1
        },
        {
          "duration": 0.269999999999996,
          "durationTicks": 108,
          "midi": 79,
          "name": "G5",
          "ticks": 24720,
          "time": 61.8,
          "velocity": 1
        },
        {
          "duration": 0.269999999999996,
          "durationTicks": 108,
          "midi": 98,
          "name": "D7",
          "ticks": 24720,
          "time": 61.8,
          "velocity": 0.6220472440944882
        },
        {
          "duration": 0.269999999999996,
          "durationTicks": 108,
          "midi": 91,
          "name": "G6",
          "ticks": 24720,
          "time": 61.8,
          "velocity": 0.6220472440944882
        },
        {
          "duration": 0.11250000000000426,
          "durationTicks": 45,
          "midi": 100,
          "name": "E7",
          "ticks": 24900,
          "time": 62.24999999999999,
          "velocity": 0.6220472440944882
        },
        {
          "duration": 0.11250000000000426,
          "durationTicks": 45,
          "midi": 96,
          "name": "C7",
          "ticks": 24900,
          "time": 62.24999999999999,
          "velocity": 0.6220472440944882
        },
        {
          "duration": 0.11250000000000426,
          "durationTicks": 45,
          "midi": 88,
          "name": "E6",
          "ticks": 24900,
          "time": 62.24999999999999,
          "velocity": 1
        },
        {
          "duration": 0.11250000000000426,
          "durationTicks": 45,
          "midi": 84,
          "name": "C6",
          "ticks": 24900,
          "time": 62.24999999999999,
          "velocity": 1
        },
        {
          "duration": 0.11249999999999716,
          "durationTicks": 45,
          "midi": 88,
          "name": "E6",
          "ticks": 25020,
          "time": 62.55,
          "velocity": 1
        },
        {
          "duration": 0.11249999999999716,
          "durationTicks": 45,
          "midi": 84,
          "name": "C6",
          "ticks": 25020,
          "time": 62.55,
          "velocity": 1
        },
        {
          "duration": 0.11249999999999716,
          "durationTicks": 45,
          "midi": 100,
          "name": "E7",
          "ticks": 25020,
          "time": 62.55,
          "velocity": 0.6220472440944882
        },
        {
          "duration": 0.11249999999999716,
          "durationTicks": 45,
          "midi": 96,
          "name": "C7",
          "ticks": 25020,
          "time": 62.55,
          "velocity": 0.6220472440944882
        },
        {
          "duration": 0.11249999999999716,
          "durationTicks": 45,
          "midi": 100,
          "name": "E7",
          "ticks": 25140,
          "time": 62.849999999999994,
          "velocity": 0.6220472440944882
        },
        {
          "duration": 0.11249999999999716,
          "durationTicks": 45,
          "midi": 96,
          "name": "C7",
          "ticks": 25140,
          "time": 62.849999999999994,
          "velocity": 0.6220472440944882
        },
        {
          "duration": 0.11249999999999716,
          "durationTicks": 45,
          "midi": 88,
          "name": "E6",
          "ticks": 25140,
          "time": 62.849999999999994,
          "velocity": 1
        },
        {
          "duration": 0.11249999999999716,
          "durationTicks": 45,
          "midi": 84,
          "name": "C6",
          "ticks": 25140,
          "time": 62.849999999999994,
          "velocity": 1
        },
        {
          "duration": 0.30000000000000426,
          "durationTicks": 120,
          "midi": 88,
          "name": "E6",
          "ticks": 25200,
          "time": 62.99999999999999,
          "velocity": 1
        },
        {
          "duration": 0.30000000000000426,
          "durationTicks": 120,
          "midi": 84,
          "name": "C6",
          "ticks": 25200,
          "time": 62.99999999999999,
          "velocity": 1
        },
        {
          "duration": 0.30000000000000426,
          "durationTicks": 120,
          "midi": 100,
          "name": "E7",
          "ticks": 25200,
          "time": 62.99999999999999,
          "velocity": 0.6220472440944882
        },
        {
          "duration": 0.30000000000000426,
          "durationTicks": 120,
          "midi": 96,
          "name": "C7",
          "ticks": 25200,
          "time": 62.99999999999999,
          "velocity": 0.6220472440944882
        },
        {
          "duration": 0.11249999999999716,
          "durationTicks": 45,
          "midi": 98,
          "name": "D7",
          "ticks": 25440,
          "time": 63.599999999999994,
          "velocity": 0.6220472440944882
        },
        {
          "duration": 0.11249999999999716,
          "durationTicks": 45,
          "midi": 91,
          "name": "G6",
          "ticks": 25440,
          "time": 63.599999999999994,
          "velocity": 0.6220472440944882
        },
        {
          "duration": 0.11249999999999716,
          "durationTicks": 45,
          "midi": 79,
          "name": "G5",
          "ticks": 25440,
          "time": 63.599999999999994,
          "velocity": 1
        },
        {
          "duration": 0.11249999999999716,
          "durationTicks": 45,
          "midi": 86,
          "name": "D6",
          "ticks": 25440,
          "time": 63.599999999999994,
          "velocity": 1
        },
        {
          "duration": 0.11249999999999716,
          "durationTicks": 45,
          "midi": 98,
          "name": "D7",
          "ticks": 25560,
          "time": 63.89999999999999,
          "velocity": 0.6220472440944882
        },
        {
          "duration": 0.11249999999999716,
          "durationTicks": 45,
          "midi": 86,
          "name": "D6",
          "ticks": 25560,
          "time": 63.89999999999999,
          "velocity": 1
        },
        {
          "duration": 0.11249999999999716,
          "durationTicks": 45,
          "midi": 79,
          "name": "G5",
          "ticks": 25560,
          "time": 63.89999999999999,
          "velocity": 1
        },
        {
          "duration": 0.11249999999999716,
          "durationTicks": 45,
          "midi": 91,
          "name": "G6",
          "ticks": 25560,
          "time": 63.89999999999999,
          "velocity": 0.6220472440944882
        },
        {
          "duration": 0.27000000000001023,
          "durationTicks": 108,
          "midi": 79,
          "name": "G5",
          "ticks": 25680,
          "time": 64.19999999999999,
          "velocity": 1
        },
        {
          "duration": 0.27000000000001023,
          "durationTicks": 108,
          "midi": 91,
          "name": "G6",
          "ticks": 25680,
          "time": 64.19999999999999,
          "velocity": 0.6220472440944882
        },
        {
          "duration": 0.27000000000001023,
          "durationTicks": 108,
          "midi": 98,
          "name": "D7",
          "ticks": 25680,
          "time": 64.19999999999999,
          "velocity": 0.6220472440944882
        },
        {
          "duration": 0.27000000000001023,
          "durationTicks": 108,
          "midi": 86,
          "name": "D6",
          "ticks": 25680,
          "time": 64.19999999999999,
          "velocity": 1
        },
        {
          "duration": 0.11249999999999716,
          "durationTicks": 45,
          "midi": 84,
          "name": "C6",
          "ticks": 25860,
          "time": 64.64999999999999,
          "velocity": 1
        },
        {
          "duration": 0.11249999999999716,
          "durationTicks": 45,
          "midi": 88,
          "name": "E6",
          "ticks": 25860,
          "time": 64.64999999999999,
          "velocity": 1
        },
        {
          "duration": 0.11249999999999716,
          "durationTicks": 45,
          "midi": 100,
          "name": "E7",
          "ticks": 25860,
          "time": 64.64999999999999,
          "velocity": 0.6220472440944882
        },
        {
          "duration": 0.11249999999999716,
          "durationTicks": 45,
          "midi": 96,
          "name": "C7",
          "ticks": 25860,
          "time": 64.64999999999999,
          "velocity": 0.6220472440944882
        },
        {
          "duration": 0.11250000000001137,
          "durationTicks": 45,
          "midi": 100,
          "name": "E7",
          "ticks": 25980,
          "time": 64.94999999999999,
          "velocity": 0.6220472440944882
        },
        {
          "duration": 0.11250000000001137,
          "durationTicks": 45,
          "midi": 96,
          "name": "C7",
          "ticks": 25980,
          "time": 64.94999999999999,
          "velocity": 0.6220472440944882
        },
        {
          "duration": 0.11250000000001137,
          "durationTicks": 45,
          "midi": 84,
          "name": "C6",
          "ticks": 25980,
          "time": 64.94999999999999,
          "velocity": 1
        },
        {
          "duration": 0.11250000000001137,
          "durationTicks": 45,
          "midi": 88,
          "name": "E6",
          "ticks": 25980,
          "time": 64.94999999999999,
          "velocity": 1
        },
        {
          "duration": 0.11249999999999716,
          "durationTicks": 45,
          "midi": 100,
          "name": "E7",
          "ticks": 26100,
          "time": 65.25,
          "velocity": 0.6220472440944882
        },
        {
          "duration": 0.11249999999999716,
          "durationTicks": 45,
          "midi": 88,
          "name": "E6",
          "ticks": 26100,
          "time": 65.25,
          "velocity": 1
        },
        {
          "duration": 0.11249999999999716,
          "durationTicks": 45,
          "midi": 84,
          "name": "C6",
          "ticks": 26100,
          "time": 65.25,
          "velocity": 1
        },
        {
          "duration": 0.11249999999999716,
          "durationTicks": 45,
          "midi": 96,
          "name": "C7",
          "ticks": 26100,
          "time": 65.25,
          "velocity": 0.6220472440944882
        },
        {
          "duration": 0.29999999999999716,
          "durationTicks": 120,
          "midi": 84,
          "name": "C6",
          "ticks": 26160,
          "time": 65.39999999999999,
          "velocity": 1
        },
        {
          "duration": 0.29999999999999716,
          "durationTicks": 120,
          "midi": 96,
          "name": "C7",
          "ticks": 26160,
          "time": 65.39999999999999,
          "velocity": 0.6220472440944882
        },
        {
          "duration": 0.29999999999999716,
          "durationTicks": 120,
          "midi": 100,
          "name": "E7",
          "ticks": 26160,
          "time": 65.39999999999999,
          "velocity": 0.6220472440944882
        },
        {
          "duration": 0.29999999999999716,
          "durationTicks": 120,
          "midi": 88,
          "name": "E6",
          "ticks": 26160,
          "time": 65.39999999999999,
          "velocity": 1
        },
        {
          "duration": 0.11249999999999716,
          "durationTicks": 45,
          "midi": 81,
          "name": "A5",
          "ticks": 26400,
          "time": 66,
          "velocity": 1
        },
        {
          "duration": 0.11249999999999716,
          "durationTicks": 45,
          "midi": 88,
          "name": "E6",
          "ticks": 26400,
          "time": 66,
          "velocity": 1
        },
        {
          "duration": 0.11249999999999716,
          "durationTicks": 45,
          "midi": 100,
          "name": "E7",
          "ticks": 26400,
          "time": 66,
          "velocity": 0.6220472440944882
        },
        {
          "duration": 0.11249999999999716,
          "durationTicks": 45,
          "midi": 93,
          "name": "A6",
          "ticks": 26400,
          "time": 66,
          "velocity": 0.6220472440944882
        },
        {
          "duration": 0.11249999999999716,
          "durationTicks": 45,
          "midi": 100,
          "name": "E7",
          "ticks": 26520,
          "time": 66.3,
          "velocity": 0.6220472440944882
        },
        {
          "duration": 0.11249999999999716,
          "durationTicks": 45,
          "midi": 93,
          "name": "A6",
          "ticks": 26520,
          "time": 66.3,
          "velocity": 0.6220472440944882
        },
        {
          "duration": 0.11249999999999716,
          "durationTicks": 45,
          "midi": 81,
          "name": "A5",
          "ticks": 26520,
          "time": 66.3,
          "velocity": 1
        },
        {
          "duration": 0.11249999999999716,
          "durationTicks": 45,
          "midi": 88,
          "name": "E6",
          "ticks": 26520,
          "time": 66.3,
          "velocity": 1
        },
        {
          "duration": 0.269999999999996,
          "durationTicks": 108,
          "midi": 100,
          "name": "E7",
          "ticks": 26640,
          "time": 66.6,
          "velocity": 0.6220472440944882
        },
        {
          "duration": 0.269999999999996,
          "durationTicks": 108,
          "midi": 88,
          "name": "E6",
          "ticks": 26640,
          "time": 66.6,
          "velocity": 1
        },
        {
          "duration": 0.269999999999996,
          "durationTicks": 108,
          "midi": 81,
          "name": "A5",
          "ticks": 26640,
          "time": 66.6,
          "velocity": 1
        },
        {
          "duration": 0.269999999999996,
          "durationTicks": 108,
          "midi": 93,
          "name": "A6",
          "ticks": 26640,
          "time": 66.6,
          "velocity": 0.6220472440944882
        },
        {
          "duration": 0.11249999999999716,
          "durationTicks": 45,
          "midi": 90,
          "name": "F#6",
          "ticks": 26820,
          "time": 67.05,
          "velocity": 1
        },
        {
          "duration": 0.11249999999999716,
          "durationTicks": 45,
          "midi": 78,
          "name": "F#5",
          "ticks": 26820,
          "time": 67.05,
          "velocity": 0.6220472440944882
        },
        {
          "duration": 0.11249999999999716,
          "durationTicks": 45,
          "midi": 86,
          "name": "D6",
          "ticks": 26820,
          "time": 67.05,
          "velocity": 1
        },
        {
          "duration": 0.11249999999999716,
          "durationTicks": 45,
          "midi": 98,
          "name": "D7",
          "ticks": 26820,
          "time": 67.05,
          "velocity": 0.6220472440944882
        },
        {
          "duration": 0.11249999999999716,
          "durationTicks": 45,
          "midi": 90,
          "name": "F#6",
          "ticks": 26940,
          "time": 67.35,
          "velocity": 1
        },
        {
          "duration": 0.11249999999999716,
          "durationTicks": 45,
          "midi": 86,
          "name": "D6",
          "ticks": 26940,
          "time": 67.35,
          "velocity": 1
        },
        {
          "duration": 0.11249999999999716,
          "durationTicks": 45,
          "midi": 98,
          "name": "D7",
          "ticks": 26940,
          "time": 67.35,
          "velocity": 0.6220472440944882
        },
        {
          "duration": 0.11249999999999716,
          "durationTicks": 45,
          "midi": 78,
          "name": "F#5",
          "ticks": 26940,
          "time": 67.35,
          "velocity": 0.6220472440944882
        },
        {
          "duration": 0.11249999999999716,
          "durationTicks": 45,
          "midi": 78,
          "name": "F#5",
          "ticks": 27060,
          "time": 67.64999999999999,
          "velocity": 0.6220472440944882
        },
        {
          "duration": 0.11249999999999716,
          "durationTicks": 45,
          "midi": 90,
          "name": "F#6",
          "ticks": 27060,
          "time": 67.64999999999999,
          "velocity": 1
        },
        {
          "duration": 0.11249999999999716,
          "durationTicks": 45,
          "midi": 86,
          "name": "D6",
          "ticks": 27060,
          "time": 67.64999999999999,
          "velocity": 1
        },
        {
          "duration": 0.11249999999999716,
          "durationTicks": 45,
          "midi": 98,
          "name": "D7",
          "ticks": 27060,
          "time": 67.64999999999999,
          "velocity": 0.6220472440944882
        },
        {
          "duration": 0.29999999999999716,
          "durationTicks": 120,
          "midi": 90,
          "name": "F#6",
          "ticks": 27120,
          "time": 67.8,
          "velocity": 1
        },
        {
          "duration": 0.29999999999999716,
          "durationTicks": 120,
          "midi": 86,
          "name": "D6",
          "ticks": 27120,
          "time": 67.8,
          "velocity": 1
        },
        {
          "duration": 0.29999999999999716,
          "durationTicks": 120,
          "midi": 78,
          "name": "F#5",
          "ticks": 27120,
          "time": 67.8,
          "velocity": 0.6220472440944882
        },
        {
          "duration": 0.29999999999999716,
          "durationTicks": 120,
          "midi": 98,
          "name": "D7",
          "ticks": 27120,
          "time": 67.8,
          "velocity": 0.6220472440944882
        },
        {
          "duration": 0.11249999999999716,
          "durationTicks": 45,
          "midi": 88,
          "name": "E6",
          "ticks": 27360,
          "time": 68.39999999999999,
          "velocity": 1
        },
        {
          "duration": 0.11249999999999716,
          "durationTicks": 45,
          "midi": 100,
          "name": "E7",
          "ticks": 27360,
          "time": 68.39999999999999,
          "velocity": 0.6220472440944882
        },
        {
          "duration": 0.11249999999999716,
          "durationTicks": 45,
          "midi": 93,
          "name": "A6",
          "ticks": 27360,
          "time": 68.39999999999999,
          "velocity": 0.6220472440944882
        },
        {
          "duration": 0.11249999999999716,
          "durationTicks": 45,
          "midi": 81,
          "name": "A5",
          "ticks": 27360,
          "time": 68.39999999999999,
          "velocity": 1
        },
        {
          "duration": 0.11250000000001137,
          "durationTicks": 45,
          "midi": 93,
          "name": "A6",
          "ticks": 27480,
          "time": 68.69999999999999,
          "velocity": 0.6220472440944882
        },
        {
          "duration": 0.11250000000001137,
          "durationTicks": 45,
          "midi": 100,
          "name": "E7",
          "ticks": 27480,
          "time": 68.69999999999999,
          "velocity": 0.6220472440944882
        },
        {
          "duration": 0.11250000000001137,
          "durationTicks": 45,
          "midi": 88,
          "name": "E6",
          "ticks": 27480,
          "time": 68.69999999999999,
          "velocity": 1
        },
        {
          "duration": 0.11250000000001137,
          "durationTicks": 45,
          "midi": 81,
          "name": "A5",
          "ticks": 27480,
          "time": 68.69999999999999,
          "velocity": 1
        },
        {
          "duration": 0.269999999999996,
          "durationTicks": 108,
          "midi": 88,
          "name": "E6",
          "ticks": 27600,
          "time": 69,
          "velocity": 1
        },
        {
          "duration": 0.269999999999996,
          "durationTicks": 108,
          "midi": 81,
          "name": "A5",
          "ticks": 27600,
          "time": 69,
          "velocity": 1
        },
        {
          "duration": 0.269999999999996,
          "durationTicks": 108,
          "midi": 93,
          "name": "A6",
          "ticks": 27600,
          "time": 69,
          "velocity": 0.6220472440944882
        },
        {
          "duration": 0.269999999999996,
          "durationTicks": 108,
          "midi": 100,
          "name": "E7",
          "ticks": 27600,
          "time": 69,
          "velocity": 0.6220472440944882
        },
        {
          "duration": 0.11250000000001137,
          "durationTicks": 45,
          "midi": 78,
          "name": "F#5",
          "ticks": 27780,
          "time": 69.44999999999999,
          "velocity": 0.6220472440944882
        },
        {
          "duration": 0.11250000000001137,
          "durationTicks": 45,
          "midi": 86,
          "name": "D6",
          "ticks": 27780,
          "time": 69.44999999999999,
          "velocity": 1
        },
        {
          "duration": 0.11250000000001137,
          "durationTicks": 45,
          "midi": 90,
          "name": "F#6",
          "ticks": 27780,
          "time": 69.44999999999999,
          "velocity": 1
        },
        {
          "duration": 0.11250000000001137,
          "durationTicks": 45,
          "midi": 98,
          "name": "D7",
          "ticks": 27780,
          "time": 69.44999999999999,
          "velocity": 0.6220472440944882
        },
        {
          "duration": 0.11249999999999716,
          "durationTicks": 45,
          "midi": 98,
          "name": "D7",
          "ticks": 27900,
          "time": 69.75,
          "velocity": 0.6220472440944882
        },
        {
          "duration": 0.11249999999999716,
          "durationTicks": 45,
          "midi": 90,
          "name": "F#6",
          "ticks": 27900,
          "time": 69.75,
          "velocity": 1
        },
        {
          "duration": 0.11249999999999716,
          "durationTicks": 45,
          "midi": 86,
          "name": "D6",
          "ticks": 27900,
          "time": 69.75,
          "velocity": 1
        },
        {
          "duration": 0.11249999999999716,
          "durationTicks": 45,
          "midi": 78,
          "name": "F#5",
          "ticks": 27900,
          "time": 69.75,
          "velocity": 0.6220472440944882
        },
        {
          "duration": 0.11249999999999716,
          "durationTicks": 45,
          "midi": 90,
          "name": "F#6",
          "ticks": 28020,
          "time": 70.05,
          "velocity": 1
        },
        {
          "duration": 0.11249999999999716,
          "durationTicks": 45,
          "midi": 78,
          "name": "F#5",
          "ticks": 28020,
          "time": 70.05,
          "velocity": 0.6220472440944882
        },
        {
          "duration": 0.11249999999999716,
          "durationTicks": 45,
          "midi": 98,
          "name": "D7",
          "ticks": 28020,
          "time": 70.05,
          "velocity": 0.6220472440944882
        },
        {
          "duration": 0.11249999999999716,
          "durationTicks": 45,
          "midi": 86,
          "name": "D6",
          "ticks": 28020,
          "time": 70.05,
          "velocity": 1
        },
        {
          "duration": 0.30000000000001137,
          "durationTicks": 120,
          "midi": 78,
          "name": "F#5",
          "ticks": 28080,
          "time": 70.19999999999999,
          "velocity": 0.6220472440944882
        },
        {
          "duration": 0.30000000000001137,
          "durationTicks": 120,
          "midi": 86,
          "name": "D6",
          "ticks": 28080,
          "time": 70.19999999999999,
          "velocity": 1
        },
        {
          "duration": 0.30000000000001137,
          "durationTicks": 120,
          "midi": 90,
          "name": "F#6",
          "ticks": 28080,
          "time": 70.19999999999999,
          "velocity": 1
        },
        {
          "duration": 0.30000000000001137,
          "durationTicks": 120,
          "midi": 98,
          "name": "D7",
          "ticks": 28080,
          "time": 70.19999999999999,
          "velocity": 0.6220472440944882
        },
        {
          "duration": 0.29999999999999716,
          "durationTicks": 120,
          "midi": 95,
          "name": "B6",
          "ticks": 28320,
          "time": 70.8,
          "velocity": 0.6220472440944882
        },
        {
          "duration": 0.29999999999999716,
          "durationTicks": 120,
          "midi": 83,
          "name": "B5",
          "ticks": 28320,
          "time": 70.8,
          "velocity": 1
        },
        {
          "duration": 0.29999999999999716,
          "durationTicks": 120,
          "midi": 79,
          "name": "G5",
          "ticks": 28320,
          "time": 70.8,
          "velocity": 1
        },
        {
          "duration": 0.29999999999999716,
          "durationTicks": 120,
          "midi": 91,
          "name": "G6",
          "ticks": 28320,
          "time": 70.8,
          "velocity": 0.6220472440944882
        }
      ]
    },
    {
      "channel": 0,
      "controlChanges": {
        "0": [
          {
            "number": 0,
            "ticks": 145,
            "time": 0.3625,
            "value": 0
          }
        ],
        "32": [
          {
            "number": 32,
            "ticks": 146,
            "time": 0.36499999999999994,
            "value": 0
          }
        ],
        "91": [
          {
            "number": 91,
            "ticks": 0,
            "time": 0,
            "value": 0
          }
        ],
        "93": [
          {
            "number": 93,
            "ticks": 0,
            "time": 0,
            "value": 0
          }
        ]
      },
      "pitchBends": [],
      "instrument": {
        "family": "piano",
        "number": 0,
        "name": "acoustic grand piano"
      },
      "name": "",
      "notes": [],
      "endOfTrackTicks": 30240
    },
    {
      "channel": 5,
      "controlChanges": {
        "7": [
          {
            "number": 7,
            "ticks": 148,
            "time": 0.37,
            "value": 0.5511811023622047
          }
        ],
        "10": [
          {
            "number": 10,
            "ticks": 148,
            "time": 0.37,
            "value": 0.5039370078740157
          }
        ]
      },
      "pitchBends": [],
      "instrument": {
        "family": "bass",
        "number": 38,
        "name": "synth bass 1"
      },
      "name": "",
      "notes": [
        {
          "duration": 0.15000000000000036,
          "durationTicks": 60,
          "midi": 43,
          "name": "G2",
          "ticks": 1440,
          "time": 3.5999999999999996,
          "velocity": 0.7716535433070866
        },
        {
          "duration": 0.1499999999999999,
          "durationTicks": 60,
          "midi": 43,
          "name": "G2",
          "ticks": 1560,
          "time": 3.9,
          "velocity": 0.7716535433070866
        },
        {
          "duration": 0.2999999999999998,
          "durationTicks": 120,
          "midi": 43,
          "name": "G2",
          "ticks": 1680,
          "time": 4.2,
          "velocity": 0.7716535433070866
        },
        {
          "duration": 0.14999999999999947,
          "durationTicks": 60,
          "midi": 38,
          "name": "D2",
          "ticks": 1800,
          "time": 4.5,
          "velocity": 0.7716535433070866
        },
        {
          "duration": 0.15000000000000036,
          "durationTicks": 60,
          "midi": 36,
          "name": "C2",
          "ticks": 1860,
          "time": 4.6499999999999995,
          "velocity": 0.7716535433070866
        },
        {
          "duration": 0.14999999999999947,
          "durationTicks": 60,
          "midi": 36,
          "name": "C2",
          "ticks": 1980,
          "time": 4.95,
          "velocity": 0.7716535433070866
        },
        {
          "duration": 0.14999999999999947,
          "durationTicks": 60,
          "midi": 36,
          "name": "C2",
          "ticks": 2100,
          "time": 5.25,
          "velocity": 0.7716535433070866
        },
        {
          "duration": 0.3000000000000007,
          "durationTicks": 120,
          "midi": 36,
          "name": "C2",
          "ticks": 2160,
          "time": 5.3999999999999995,
          "velocity": 0.7716535433070866
        },
        {
          "duration": 0.2999999999999998,
          "durationTicks": 120,
          "midi": 38,
          "name": "D2",
          "ticks": 2280,
          "time": 5.7,
          "velocity": 0.7716535433070866
        },
        {
          "duration": 0.14999999999999947,
          "durationTicks": 60,
          "midi": 31,
          "name": "G1",
          "ticks": 2400,
          "time": 6,
          "velocity": 0.7716535433070866
        },
        {
          "duration": 0.15000000000000036,
          "durationTicks": 60,
          "midi": 31,
          "name": "G1",
          "ticks": 2520,
          "time": 6.3,
          "velocity": 0.7716535433070866
        },
        {
          "duration": 0.2999999999999998,
          "durationTicks": 120,
          "midi": 31,
          "name": "G1",
          "ticks": 2640,
          "time": 6.6,
          "velocity": 0.7716535433070866
        },
        {
          "duration": 0.15000000000000036,
          "durationTicks": 60,
          "midi": 43,
          "name": "G2",
          "ticks": 2760,
          "time": 6.8999999999999995,
          "velocity": 0.7716535433070866
        },
        {
          "duration": 0.14999999999999947,
          "durationTicks": 60,
          "midi": 36,
          "name": "C2",
          "ticks": 2820,
          "time": 7.05,
          "velocity": 0.7716535433070866
        },
        {
          "duration": 0.15000000000000036,
          "durationTicks": 60,
          "midi": 36,
          "name": "C2",
          "ticks": 2940,
          "time": 7.35,
          "velocity": 0.7716535433070866
        },
        {
          "duration": 0.15000000000000036,
          "durationTicks": 60,
          "midi": 36,
          "name": "C2",
          "ticks": 3060,
          "time": 7.6499999999999995,
          "velocity": 0.7716535433070866
        },
        {
          "duration": 0.2999999999999998,
          "durationTicks": 120,
          "midi": 36,
          "name": "C2",
          "ticks": 3120,
          "time": 7.8,
          "velocity": 0.7716535433070866
        },
        {
          "duration": 0.15000000000000036,
          "durationTicks": 60,
          "midi": 43,
          "name": "G2",
          "ticks": 3240,
          "time": 8.1,
          "velocity": 0.7716535433070866
        },
        {
          "duration": 0.15000000000000036,
          "durationTicks": 60,
          "midi": 36,
          "name": "C2",
          "ticks": 3300,
          "time": 8.25,
          "velocity": 0.7716535433070866
        },
        {
          "duration": 0.14999999999999858,
          "durationTicks": 60,
          "midi": 31,
          "name": "G1",
          "ticks": 3360,
          "time": 8.4,
          "velocity": 0.7716535433070866
        },
        {
          "duration": 0.15000000000000036,
          "durationTicks": 60,
          "midi": 43,
          "name": "G2",
          "ticks": 3480,
          "time": 8.7,
          "velocity": 0.7716535433070866
        },
        {
          "duration": 0.29999999999999893,
          "durationTicks": 120,
          "midi": 43,
          "name": "G2",
          "ticks": 3600,
          "time": 9,
          "velocity": 0.7716535433070866
        },
        {
          "duration": 0.15000000000000036,
          "durationTicks": 60,
          "midi": 38,
          "name": "D2",
          "ticks": 3720,
          "time": 9.299999999999999,
          "velocity": 0.7716535433070866
        },
        {
          "duration": 0.15000000000000036,
          "durationTicks": 60,
          "midi": 36,
          "name": "C2",
          "ticks": 3780,
          "time": 9.45,
          "velocity": 0.7716535433070866
        },
        {
          "duration": 0.15000000000000036,
          "durationTicks": 60,
          "midi": 36,
          "name": "C2",
          "ticks": 3900,
          "time": 9.75,
          "velocity": 0.7716535433070866
        },
        {
          "duration": 0.15000000000000036,
          "durationTicks": 60,
          "midi": 36,
          "name": "C2",
          "ticks": 4020,
          "time": 10.049999999999999,
          "velocity": 0.7716535433070866
        },
        {
          "duration": 0.3000000000000007,
          "durationTicks": 120,
          "midi": 36,
          "name": "C2",
          "ticks": 4080,
          "time": 10.2,
          "velocity": 0.7716535433070866
        },
        {
          "duration": 0.29999999999999893,
          "durationTicks": 120,
          "midi": 38,
          "name": "D2",
          "ticks": 4200,
          "time": 10.5,
          "velocity": 0.7716535433070866
        },
        {
          "duration": 0.15000000000000036,
          "durationTicks": 60,
          "midi": 43,
          "name": "G2",
          "ticks": 4320,
          "time": 10.799999999999999,
          "velocity": 0.7716535433070866
        },
        {
          "duration": 0.15000000000000036,
          "durationTicks": 60,
          "midi": 43,
          "name": "G2",
          "ticks": 4440,
          "time": 11.1,
          "velocity": 0.7716535433070866
        },
        {
          "duration": 0.29999999999999893,
          "durationTicks": 120,
          "midi": 43,
          "name": "G2",
          "ticks": 4560,
          "time": 11.4,
          "velocity": 0.7716535433070866
        },
        {
          "duration": 0.15000000000000036,
          "durationTicks": 60,
          "midi": 38,
          "name": "D2",
          "ticks": 4680,
          "time": 11.7,
          "velocity": 0.7716535433070866
        },
        {
          "duration": 0.15000000000000036,
          "durationTicks": 60,
          "midi": 43,
          "name": "G2",
          "ticks": 4740,
          "time": 11.85,
          "velocity": 0.7716535433070866
        },
        {
          "duration": 0.14999999999999858,
          "durationTicks": 60,
          "midi": 43,
          "name": "G2",
          "ticks": 4860,
          "time": 12.15,
          "velocity": 0.7716535433070866
        },
        {
          "duration": 0.15000000000000036,
          "durationTicks": 60,
          "midi": 36,
          "name": "C2",
          "ticks": 4920,
          "time": 12.299999999999999,
          "velocity": 0.7716535433070866
        },
        {
          "duration": 0.15000000000000036,
          "durationTicks": 60,
          "midi": 36,
          "name": "C2",
          "ticks": 4980,
          "time": 12.45,
          "velocity": 0.7716535433070866
        },
        {
          "duration": 0.3000000000000007,
          "durationTicks": 120,
          "midi": 36,
          "name": "C2",
          "ticks": 5040,
          "time": 12.6,
          "velocity": 0.7716535433070866
        },
        {
          "duration": 0.14999999999999858,
          "durationTicks": 60,
          "midi": 48,
          "name": "C3",
          "ticks": 5160,
          "time": 12.9,
          "velocity": 0.7716535433070866
        },
        {
          "duration": 0.15000000000000036,
          "durationTicks": 60,
          "midi": 43,
          "name": "G2",
          "ticks": 5220,
          "time": 13.049999999999999,
          "velocity": 0.7716535433070866
        },
        {
          "duration": 0.15000000000000036,
          "durationTicks": 60,
          "midi": 43,
          "name": "G2",
          "ticks": 5280,
          "time": 13.2,
          "velocity": 0.7716535433070866
        },
        {
          "duration": 0.15000000000000036,
          "durationTicks": 60,
          "midi": 43,
          "name": "G2",
          "ticks": 5400,
          "time": 13.5,
          "velocity": 0.7716535433070866
        },
        {
          "duration": 0.3000000000000007,
          "durationTicks": 120,
          "midi": 43,
          "name": "G2",
          "ticks": 5520,
          "time": 13.799999999999999,
          "velocity": 0.7716535433070866
        },
        {
          "duration": 0.15000000000000036,
          "durationTicks": 60,
          "midi": 38,
          "name": "D2",
          "ticks": 5640,
          "time": 14.1,
          "velocity": 0.7716535433070866
        },
        {
          "duration": 0.14999999999999858,
          "durationTicks": 60,
          "midi": 36,
          "name": "C2",
          "ticks": 5700,
          "time": 14.25,
          "velocity": 0.7716535433070866
        },
        {
          "duration": 0.15000000000000036,
          "durationTicks": 60,
          "midi": 36,
          "name": "C2",
          "ticks": 5820,
          "time": 14.549999999999999,
          "velocity": 0.7716535433070866
        },
        {
          "duration": 0.15000000000000036,
          "durationTicks": 60,
          "midi": 36,
          "name": "C2",
          "ticks": 5940,
          "time": 14.85,
          "velocity": 0.7716535433070866
        },
        {
          "duration": 0.29999999999999893,
          "durationTicks": 120,
          "midi": 36,
          "name": "C2",
          "ticks": 6000,
          "time": 15,
          "velocity": 0.7716535433070866
        },
        {
          "duration": 0.3000000000000007,
          "durationTicks": 120,
          "midi": 48,
          "name": "C3",
          "ticks": 6120,
          "time": 15.299999999999999,
          "velocity": 0.7716535433070866
        },
        {
          "duration": 0.15000000000000036,
          "durationTicks": 60,
          "midi": 31,
          "name": "G1",
          "ticks": 6240,
          "time": 15.6,
          "velocity": 0.7716535433070866
        },
        {
          "duration": 0.15000000000000213,
          "durationTicks": 60,
          "midi": 31,
          "name": "G1",
          "ticks": 6360,
          "time": 15.899999999999999,
          "velocity": 0.7716535433070866
        },
        {
          "duration": 0.14999999999999858,
          "durationTicks": 60,
          "midi": 43,
          "name": "G2",
          "ticks": 6480,
          "time": 16.2,
          "velocity": 0.7716535433070866
        },
        {
          "duration": 0.15000000000000213,
          "durationTicks": 60,
          "midi": 43,
          "name": "G2",
          "ticks": 6540,
          "time": 16.349999999999998,
          "velocity": 0.7716535433070866
        },
        {
          "duration": 0.14999999999999858,
          "durationTicks": 60,
          "midi": 38,
          "name": "D2",
          "ticks": 6600,
          "time": 16.5,
          "velocity": 0.7716535433070866
        },
        {
          "duration": 0.15000000000000213,
          "durationTicks": 60,
          "midi": 36,
          "name": "C2",
          "ticks": 6660,
          "time": 16.65,
          "velocity": 0.7716535433070866
        },
        {
          "duration": 0.14999999999999858,
          "durationTicks": 60,
          "midi": 36,
          "name": "C2",
          "ticks": 6780,
          "time": 16.95,
          "velocity": 0.7716535433070866
        },
        {
          "duration": 0.14999999999999858,
          "durationTicks": 60,
          "midi": 36,
          "name": "C2",
          "ticks": 6900,
          "time": 17.25,
          "velocity": 0.7716535433070866
        },
        {
          "duration": 0.3000000000000007,
          "durationTicks": 120,
          "midi": 36,
          "name": "C2",
          "ticks": 6960,
          "time": 17.4,
          "velocity": 0.7716535433070866
        },
        {
          "duration": 0.14999999999999858,
          "durationTicks": 60,
          "midi": 48,
          "name": "C3",
          "ticks": 7080,
          "time": 17.7,
          "velocity": 0.7716535433070866
        },
        {
          "duration": 0.15000000000000213,
          "durationTicks": 60,
          "midi": 36,
          "name": "C2",
          "ticks": 7140,
          "time": 17.849999999999998,
          "velocity": 0.7716535433070866
        },
        {
          "duration": 0.14999999999999858,
          "durationTicks": 60,
          "midi": 33,
          "name": "A1",
          "ticks": 7200,
          "time": 18,
          "velocity": 0.7716535433070866
        },
        {
          "duration": 0.14999999999999858,
          "durationTicks": 60,
          "midi": 33,
          "name": "A1",
          "ticks": 7320,
          "time": 18.3,
          "velocity": 0.7716535433070866
        },
        {
          "duration": 0.3000000000000007,
          "durationTicks": 120,
          "midi": 33,
          "name": "A1",
          "ticks": 7440,
          "time": 18.599999999999998,
          "velocity": 0.7716535433070866
        },
        {
          "duration": 0.15000000000000213,
          "durationTicks": 60,
          "midi": 45,
          "name": "A2",
          "ticks": 7560,
          "time": 18.9,
          "velocity": 0.7716535433070866
        },
        {
          "duration": 0.14999999999999858,
          "durationTicks": 60,
          "midi": 38,
          "name": "D2",
          "ticks": 7620,
          "time": 19.05,
          "velocity": 0.7716535433070866
        },
        {
          "duration": 0.15000000000000213,
          "durationTicks": 60,
          "midi": 38,
          "name": "D2",
          "ticks": 7740,
          "time": 19.349999999999998,
          "velocity": 0.7716535433070866
        },
        {
          "duration": 0.15000000000000213,
          "durationTicks": 60,
          "midi": 33,
          "name": "A1",
          "ticks": 7860,
          "time": 19.65,
          "velocity": 0.7716535433070866
        },
        {
          "duration": 0.29999999999999716,
          "durationTicks": 120,
          "midi": 38,
          "name": "D2",
          "ticks": 7920,
          "time": 19.8,
          "velocity": 0.7716535433070866
        },
        {
          "duration": 0.3000000000000007,
          "durationTicks": 120,
          "midi": 50,
          "name": "D3",
          "ticks": 8040,
          "time": 20.099999999999998,
          "velocity": 0.7716535433070866
        },
        {
          "duration": 0.15000000000000213,
          "durationTicks": 60,
          "midi": 33,
          "name": "A1",
          "ticks": 8160,
          "time": 20.4,
          "velocity": 0.7716535433070866
        },
        {
          "duration": 0.14999999999999858,
          "durationTicks": 60,
          "midi": 33,
          "name": "A1",
          "ticks": 8280,
          "time": 20.7,
          "velocity": 0.7716535433070866
        },
        {
          "duration": 0.14999999999999858,
          "durationTicks": 60,
          "midi": 45,
          "name": "A2",
          "ticks": 8400,
          "time": 21,
          "velocity": 0.7716535433070866
        },
        {
          "duration": 0.15000000000000213,
          "durationTicks": 60,
          "midi": 45,
          "name": "A2",
          "ticks": 8460,
          "time": 21.15,
          "velocity": 0.7716535433070866
        },
        {
          "duration": 0.14999999999999858,
          "durationTicks": 60,
          "midi": 40,
          "name": "E2",
          "ticks": 8520,
          "time": 21.3,
          "velocity": 0.7716535433070866
        },
        {
          "duration": 0.3000000000000007,
          "durationTicks": 120,
          "midi": 38,
          "name": "D2",
          "ticks": 8580,
          "time": 21.45,
          "velocity": 0.7716535433070866
        },
        {
          "duration": 0.14999999999999858,
          "durationTicks": 60,
          "midi": 50,
          "name": "D3",
          "ticks": 8700,
          "time": 21.75,
          "velocity": 0.7716535433070866
        },
        {
          "duration": 0.14999999999999858,
          "durationTicks": 60,
          "midi": 38,
          "name": "D2",
          "ticks": 8820,
          "time": 22.05,
          "velocity": 0.7716535433070866
        },
        {
          "duration": 0.14999999999999858,
          "durationTicks": 60,
          "midi": 38,
          "name": "D2",
          "ticks": 8880,
          "time": 22.2,
          "velocity": 0.7716535433070866
        },
        {
          "duration": 0.15000000000000213,
          "durationTicks": 60,
          "midi": 38,
          "name": "D2",
          "ticks": 8940,
          "time": 22.349999999999998,
          "velocity": 0.7716535433070866
        },
        {
          "duration": 0.14999999999999858,
          "durationTicks": 60,
          "midi": 50,
          "name": "D3",
          "ticks": 9000,
          "time": 22.5,
          "velocity": 0.7716535433070866
        },
        {
          "duration": 0.15000000000000213,
          "durationTicks": 60,
          "midi": 38,
          "name": "D2",
          "ticks": 9060,
          "time": 22.65,
          "velocity": 0.7716535433070866
        },
        {
          "duration": 0.14999999999999858,
          "durationTicks": 60,
          "midi": 31,
          "name": "G1",
          "ticks": 9120,
          "time": 22.8,
          "velocity": 0.7716535433070866
        },
        {
          "duration": 0.3000000000000007,
          "durationTicks": 120,
          "midi": 31,
          "name": "G1",
          "ticks": 9600,
          "time": 24,
          "velocity": 0.7716535433070866
        },
        {
          "duration": 0.3000000000000007,
          "durationTicks": 120,
          "midi": 31,
          "name": "G1",
          "ticks": 10080,
          "time": 25.2,
          "velocity": 0.7716535433070866
        },
        {
          "duration": 0.29999999999999716,
          "durationTicks": 120,
          "midi": 31,
          "name": "G1",
          "ticks": 10320,
          "time": 25.8,
          "velocity": 0.7716535433070866
        },
        {
          "duration": 0.4499999999999993,
          "durationTicks": 180,
          "midi": 31,
          "name": "G1",
          "ticks": 10560,
          "time": 26.4,
          "velocity": 0.7716535433070866
        },
        {
          "duration": 0.14999999999999858,
          "durationTicks": 60,
          "midi": 38,
          "name": "D2",
          "ticks": 10920,
          "time": 27.3,
          "velocity": 0.7716535433070866
        },
        {
          "duration": 0.14999999999999858,
          "durationTicks": 60,
          "midi": 35,
          "name": "B1",
          "ticks": 10980,
          "time": 27.45,
          "velocity": 0.7716535433070866
        },
        {
          "duration": 0.14999999999999858,
          "durationTicks": 60,
          "midi": 43,
          "name": "G2",
          "ticks": 11040,
          "time": 27.599999999999998,
          "velocity": 0.7716535433070866
        },
        {
          "duration": 0.14999999999999858,
          "durationTicks": 60,
          "midi": 43,
          "name": "G2",
          "ticks": 11160,
          "time": 27.9,
          "velocity": 0.7716535433070866
        },
        {
          "duration": 0.29999999999999716,
          "durationTicks": 120,
          "midi": 43,
          "name": "G2",
          "ticks": 11280,
          "time": 28.2,
          "velocity": 0.7716535433070866
        },
        {
          "duration": 0.15000000000000213,
          "durationTicks": 60,
          "midi": 38,
          "name": "D2",
          "ticks": 11400,
          "time": 28.499999999999996,
          "velocity": 0.7716535433070866
        },
        {
          "duration": 0.14999999999999858,
          "durationTicks": 60,
          "midi": 36,
          "name": "C2",
          "ticks": 11460,
          "time": 28.65,
          "velocity": 0.7716535433070866
        },
        {
          "duration": 0.14999999999999858,
          "durationTicks": 60,
          "midi": 36,
          "name": "C2",
          "ticks": 11580,
          "time": 28.95,
          "velocity": 0.7716535433070866
        },
        {
          "duration": 0.15000000000000213,
          "durationTicks": 60,
          "midi": 36,
          "name": "C2",
          "ticks": 11700,
          "time": 29.249999999999996,
          "velocity": 0.7716535433070866
        },
        {
          "duration": 0.3000000000000007,
          "durationTicks": 120,
          "midi": 36,
          "name": "C2",
          "ticks": 11760,
          "time": 29.4,
          "velocity": 0.7716535433070866
        },
        {
          "duration": 0.29999999999999716,
          "durationTicks": 120,
          "midi": 38,
          "name": "D2",
          "ticks": 11880,
          "time": 29.7,
          "velocity": 0.7716535433070866
        },
        {
          "duration": 0.15000000000000213,
          "durationTicks": 60,
          "midi": 31,
          "name": "G1",
          "ticks": 12000,
          "time": 29.999999999999996,
          "velocity": 0.7716535433070866
        },
        {
          "duration": 0.15000000000000213,
          "durationTicks": 60,
          "midi": 31,
          "name": "G1",
          "ticks": 12120,
          "time": 30.299999999999997,
          "velocity": 0.7716535433070866
        },
        {
          "duration": 0.3000000000000007,
          "durationTicks": 120,
          "midi": 31,
          "name": "G1",
          "ticks": 12240,
          "time": 30.599999999999998,
          "velocity": 0.7716535433070866
        },
        {
          "duration": 0.14999999999999858,
          "durationTicks": 60,
          "midi": 43,
          "name": "G2",
          "ticks": 12360,
          "time": 30.9,
          "velocity": 0.7716535433070866
        },
        {
          "duration": 0.14999999999999858,
          "durationTicks": 60,
          "midi": 36,
          "name": "C2",
          "ticks": 12420,
          "time": 31.049999999999997,
          "velocity": 0.7716535433070866
        },
        {
          "duration": 0.14999999999999858,
          "durationTicks": 60,
          "midi": 36,
          "name": "C2",
          "ticks": 12540,
          "time": 31.349999999999998,
          "velocity": 0.7716535433070866
        },
        {
          "duration": 0.14999999999999858,
          "durationTicks": 60,
          "midi": 36,
          "name": "C2",
          "ticks": 12660,
          "time": 31.65,
          "velocity": 0.7716535433070866
        },
        {
          "duration": 0.29999999999999716,
          "durationTicks": 120,
          "midi": 36,
          "name": "C2",
          "ticks": 12720,
          "time": 31.799999999999997,
          "velocity": 0.7716535433070866
        },
        {
          "duration": 0.15000000000000568,
          "durationTicks": 60,
          "midi": 43,
          "name": "G2",
          "ticks": 12840,
          "time": 32.099999999999994,
          "velocity": 0.7716535433070866
        },
        {
          "duration": 0.14999999999999858,
          "durationTicks": 60,
          "midi": 36,
          "name": "C2",
          "ticks": 12900,
          "time": 32.25,
          "velocity": 0.7716535433070866
        },
        {
          "duration": 0.14999999999999858,
          "durationTicks": 60,
          "midi": 31,
          "name": "G1",
          "ticks": 12960,
          "time": 32.4,
          "velocity": 0.7716535433070866
        },
        {
          "duration": 0.14999999999999858,
          "durationTicks": 60,
          "midi": 43,
          "name": "G2",
          "ticks": 13080,
          "time": 32.699999999999996,
          "velocity": 0.7716535433070866
        },
        {
          "duration": 0.29999999999999716,
          "durationTicks": 120,
          "midi": 43,
          "name": "G2",
          "ticks": 13200,
          "time": 33,
          "velocity": 0.7716535433070866
        },
        {
          "duration": 0.14999999999999858,
          "durationTicks": 60,
          "midi": 38,
          "name": "D2",
          "ticks": 13320,
          "time": 33.3,
          "velocity": 0.7716535433070866
        },
        {
          "duration": 0.14999999999999858,
          "durationTicks": 60,
          "midi": 36,
          "name": "C2",
          "ticks": 13380,
          "time": 33.449999999999996,
          "velocity": 0.7716535433070866
        },
        {
          "duration": 0.14999999999999858,
          "durationTicks": 60,
          "midi": 36,
          "name": "C2",
          "ticks": 13500,
          "time": 33.75,
          "velocity": 0.7716535433070866
        },
        {
          "duration": 0.14999999999999858,
          "durationTicks": 60,
          "midi": 36,
          "name": "C2",
          "ticks": 13620,
          "time": 34.05,
          "velocity": 0.7716535433070866
        },
        {
          "duration": 0.30000000000000426,
          "durationTicks": 120,
          "midi": 36,
          "name": "C2",
          "ticks": 13680,
          "time": 34.199999999999996,
          "velocity": 0.7716535433070866
        },
        {
          "duration": 0.29999999999999716,
          "durationTicks": 120,
          "midi": 38,
          "name": "D2",
          "ticks": 13800,
          "time": 34.5,
          "velocity": 0.7716535433070866
        },
        {
          "duration": 0.14999999999999858,
          "durationTicks": 60,
          "midi": 43,
          "name": "G2",
          "ticks": 13920,
          "time": 34.8,
          "velocity": 0.7716535433070866
        },
        {
          "duration": 0.15000000000000568,
          "durationTicks": 60,
          "midi": 43,
          "name": "G2",
          "ticks": 14040,
          "time": 35.099999999999994,
          "velocity": 0.7716535433070866
        },
        {
          "duration": 0.29999999999999716,
          "durationTicks": 120,
          "midi": 43,
          "name": "G2",
          "ticks": 14160,
          "time": 35.4,
          "velocity": 0.7716535433070866
        },
        {
          "duration": 0.14999999999999858,
          "durationTicks": 60,
          "midi": 38,
          "name": "D2",
          "ticks": 14280,
          "time": 35.699999999999996,
          "velocity": 0.7716535433070866
        },
        {
          "duration": 0.15000000000000568,
          "durationTicks": 60,
          "midi": 43,
          "name": "G2",
          "ticks": 14340,
          "time": 35.849999999999994,
          "velocity": 0.7716535433070866
        },
        {
          "duration": 0.14999999999999858,
          "durationTicks": 60,
          "midi": 43,
          "name": "G2",
          "ticks": 14460,
          "time": 36.15,
          "velocity": 0.7716535433070866
        },
        {
          "duration": 0.14999999999999858,
          "durationTicks": 60,
          "midi": 36,
          "name": "C2",
          "ticks": 14520,
          "time": 36.3,
          "velocity": 0.7716535433070866
        },
        {
          "duration": 0.14999999999999858,
          "durationTicks": 60,
          "midi": 36,
          "name": "C2",
          "ticks": 14580,
          "time": 36.449999999999996,
          "velocity": 0.7716535433070866
        },
        {
          "duration": 0.30000000000000426,
          "durationTicks": 120,
          "midi": 36,
          "name": "C2",
          "ticks": 14640,
          "time": 36.599999999999994,
          "velocity": 0.7716535433070866
        },
        {
          "duration": 0.14999999999999858,
          "durationTicks": 60,
          "midi": 48,
          "name": "C3",
          "ticks": 14760,
          "time": 36.9,
          "velocity": 0.7716535433070866
        },
        {
          "duration": 0.14999999999999858,
          "durationTicks": 60,
          "midi": 43,
          "name": "G2",
          "ticks": 14820,
          "time": 37.05,
          "velocity": 0.7716535433070866
        },
        {
          "duration": 0.14999999999999858,
          "durationTicks": 60,
          "midi": 43,
          "name": "G2",
          "ticks": 14880,
          "time": 37.199999999999996,
          "velocity": 0.7716535433070866
        },
        {
          "duration": 0.14999999999999858,
          "durationTicks": 60,
          "midi": 43,
          "name": "G2",
          "ticks": 15000,
          "time": 37.5,
          "velocity": 0.7716535433070866
        },
        {
          "duration": 0.29999999999999716,
          "durationTicks": 120,
          "midi": 43,
          "name": "G2",
          "ticks": 15120,
          "time": 37.8,
          "velocity": 0.7716535433070866
        },
        {
          "duration": 0.15000000000000568,
          "durationTicks": 60,
          "midi": 38,
          "name": "D2",
          "ticks": 15240,
          "time": 38.099999999999994,
          "velocity": 0.7716535433070866
        },
        {
          "duration": 0.14999999999999858,
          "durationTicks": 60,
          "midi": 36,
          "name": "C2",
          "ticks": 15300,
          "time": 38.25,
          "velocity": 0.7716535433070866
        },
        {
          "duration": 0.14999999999999858,
          "durationTicks": 60,
          "midi": 36,
          "name": "C2",
          "ticks": 15420,
          "time": 38.55,
          "velocity": 0.7716535433070866
        },
        {
          "duration": 0.15000000000000568,
          "durationTicks": 60,
          "midi": 36,
          "name": "C2",
          "ticks": 15540,
          "time": 38.849999999999994,
          "velocity": 0.7716535433070866
        },
        {
          "duration": 0.29999999999999716,
          "durationTicks": 120,
          "midi": 36,
          "name": "C2",
          "ticks": 15600,
          "time": 39,
          "velocity": 0.7716535433070866
        },
        {
          "duration": 0.29999999999999716,
          "durationTicks": 120,
          "midi": 48,
          "name": "C3",
          "ticks": 15720,
          "time": 39.3,
          "velocity": 0.7716535433070866
        },
        {
          "duration": 0.15000000000000568,
          "durationTicks": 60,
          "midi": 31,
          "name": "G1",
          "ticks": 15840,
          "time": 39.599999999999994,
          "velocity": 0.7716535433070866
        },
        {
          "duration": 0.14999999999999858,
          "durationTicks": 60,
          "midi": 31,
          "name": "G1",
          "ticks": 15960,
          "time": 39.9,
          "velocity": 0.7716535433070866
        },
        {
          "duration": 0.14999999999999858,
          "durationTicks": 60,
          "midi": 43,
          "name": "G2",
          "ticks": 16080,
          "time": 40.199999999999996,
          "velocity": 0.7716535433070866
        },
        {
          "duration": 0.15000000000000568,
          "durationTicks": 60,
          "midi": 43,
          "name": "G2",
          "ticks": 16140,
          "time": 40.349999999999994,
          "velocity": 0.7716535433070866
        },
        {
          "duration": 0.14999999999999858,
          "durationTicks": 60,
          "midi": 38,
          "name": "D2",
          "ticks": 16200,
          "time": 40.5,
          "velocity": 0.7716535433070866
        },
        {
          "duration": 0.14999999999999858,
          "durationTicks": 60,
          "midi": 36,
          "name": "C2",
          "ticks": 16260,
          "time": 40.65,
          "velocity": 0.7716535433070866
        },
        {
          "duration": 0.14999999999999858,
          "durationTicks": 60,
          "midi": 36,
          "name": "C2",
          "ticks": 16380,
          "time": 40.949999999999996,
          "velocity": 0.7716535433070866
        },
        {
          "duration": 0.14999999999999858,
          "durationTicks": 60,
          "midi": 36,
          "name": "C2",
          "ticks": 16500,
          "time": 41.25,
          "velocity": 0.7716535433070866
        },
        {
          "duration": 0.29999999999999716,
          "durationTicks": 120,
          "midi": 36,
          "name": "C2",
          "ticks": 16560,
          "time": 41.4,
          "velocity": 0.7716535433070866
        },
        {
          "duration": 0.14999999999999858,
          "durationTicks": 60,
          "midi": 48,
          "name": "C3",
          "ticks": 16680,
          "time": 41.699999999999996,
          "velocity": 0.7716535433070866
        },
        {
          "duration": 0.15000000000000568,
          "durationTicks": 60,
          "midi": 36,
          "name": "C2",
          "ticks": 16740,
          "time": 41.849999999999994,
          "velocity": 0.7716535433070866
        },
        {
          "duration": 0.14999999999999858,
          "durationTicks": 60,
          "midi": 33,
          "name": "A1",
          "ticks": 16800,
          "time": 42,
          "velocity": 0.7716535433070866
        },
        {
          "duration": 0.14999999999999858,
          "durationTicks": 60,
          "midi": 33,
          "name": "A1",
          "ticks": 16920,
          "time": 42.3,
          "velocity": 0.7716535433070866
        },
        {
          "duration": 0.30000000000000426,
          "durationTicks": 120,
          "midi": 33,
          "name": "A1",
          "ticks": 17040,
          "time": 42.599999999999994,
          "velocity": 0.7716535433070866
        },
        {
          "duration": 0.14999999999999858,
          "durationTicks": 60,
          "midi": 45,
          "name": "A2",
          "ticks": 17160,
          "time": 42.9,
          "velocity": 0.7716535433070866
        },
        {
          "duration": 0.14999999999999858,
          "durationTicks": 60,
          "midi": 38,
          "name": "D2",
          "ticks": 17220,
          "time": 43.05,
          "velocity": 0.7716535433070866
        },
        {
          "duration": 0.15000000000000568,
          "durationTicks": 60,
          "midi": 38,
          "name": "D2",
          "ticks": 17340,
          "time": 43.349999999999994,
          "velocity": 0.7716535433070866
        },
        {
          "duration": 0.14999999999999858,
          "durationTicks": 60,
          "midi": 33,
          "name": "A1",
          "ticks": 17460,
          "time": 43.65,
          "velocity": 0.7716535433070866
        },
        {
          "duration": 0.29999999999999716,
          "durationTicks": 120,
          "midi": 38,
          "name": "D2",
          "ticks": 17520,
          "time": 43.8,
          "velocity": 0.7716535433070866
        },
        {
          "duration": 0.30000000000000426,
          "durationTicks": 120,
          "midi": 50,
          "name": "D3",
          "ticks": 17640,
          "time": 44.099999999999994,
          "velocity": 0.7716535433070866
        },
        {
          "duration": 0.14999999999999858,
          "durationTicks": 60,
          "midi": 33,
          "name": "A1",
          "ticks": 17760,
          "time": 44.4,
          "velocity": 0.7716535433070866
        },
        {
          "duration": 0.14999999999999858,
          "durationTicks": 60,
          "midi": 33,
          "name": "A1",
          "ticks": 17880,
          "time": 44.699999999999996,
          "velocity": 0.7716535433070866
        },
        {
          "duration": 0.14999999999999858,
          "durationTicks": 60,
          "midi": 45,
          "name": "A2",
          "ticks": 18000,
          "time": 45,
          "velocity": 0.7716535433070866
        },
        {
          "duration": 0.14999999999999858,
          "durationTicks": 60,
          "midi": 45,
          "name": "A2",
          "ticks": 18060,
          "time": 45.15,
          "velocity": 0.7716535433070866
        },
        {
          "duration": 0.14999999999999858,
          "durationTicks": 60,
          "midi": 40,
          "name": "E2",
          "ticks": 18120,
          "time": 45.3,
          "velocity": 0.7716535433070866
        },
        {
          "duration": 0.30000000000000426,
          "durationTicks": 120,
          "midi": 38,
          "name": "D2",
          "ticks": 18180,
          "time": 45.449999999999996,
          "velocity": 0.7716535433070866
        },
        {
          "duration": 0.14999999999999858,
          "durationTicks": 60,
          "midi": 50,
          "name": "D3",
          "ticks": 18300,
          "time": 45.75,
          "velocity": 0.7716535433070866
        },
        {
          "duration": 0.14999999999999858,
          "durationTicks": 60,
          "midi": 38,
          "name": "D2",
          "ticks": 18420,
          "time": 46.05,
          "velocity": 0.7716535433070866
        },
        {
          "duration": 0.14999999999999858,
          "durationTicks": 60,
          "midi": 38,
          "name": "D2",
          "ticks": 18480,
          "time": 46.199999999999996,
          "velocity": 0.7716535433070866
        },
        {
          "duration": 0.15000000000000568,
          "durationTicks": 60,
          "midi": 38,
          "name": "D2",
          "ticks": 18540,
          "time": 46.349999999999994,
          "velocity": 0.7716535433070866
        },
        {
          "duration": 0.14999999999999858,
          "durationTicks": 60,
          "midi": 50,
          "name": "D3",
          "ticks": 18600,
          "time": 46.5,
          "velocity": 0.7716535433070866
        },
        {
          "duration": 0.14999999999999858,
          "durationTicks": 60,
          "midi": 38,
          "name": "D2",
          "ticks": 18660,
          "time": 46.65,
          "velocity": 0.7716535433070866
        },
        {
          "duration": 0.14999999999999858,
          "durationTicks": 60,
          "midi": 31,
          "name": "G1",
          "ticks": 18720,
          "time": 46.8,
          "velocity": 0.7716535433070866
        },
        {
          "duration": 0.29999999999999716,
          "durationTicks": 120,
          "midi": 31,
          "name": "G1",
          "ticks": 19200,
          "time": 48,
          "velocity": 0.7716535433070866
        },
        {
          "duration": 0.30000000000000426,
          "durationTicks": 120,
          "midi": 31,
          "name": "G1",
          "ticks": 19680,
          "time": 49.199999999999996,
          "velocity": 0.7716535433070866
        },
        {
          "duration": 0.29999999999999716,
          "durationTicks": 120,
          "midi": 31,
          "name": "G1",
          "ticks": 19920,
          "time": 49.8,
          "velocity": 0.7716535433070866
        },
        {
          "duration": 0.44999999999999574,
          "durationTicks": 180,
          "midi": 31,
          "name": "G1",
          "ticks": 20160,
          "time": 50.4,
          "velocity": 0.7716535433070866
        },
        {
          "duration": 0.14999999999999858,
          "durationTicks": 60,
          "midi": 38,
          "name": "D2",
          "ticks": 20520,
          "time": 51.3,
          "velocity": 0.7716535433070866
        },
        {
          "duration": 0.14999999999999858,
          "durationTicks": 60,
          "midi": 35,
          "name": "B1",
          "ticks": 20580,
          "time": 51.449999999999996,
          "velocity": 0.7716535433070866
        },
        {
          "duration": 0.14999999999999858,
          "durationTicks": 60,
          "midi": 43,
          "name": "G2",
          "ticks": 20640,
          "time": 51.599999999999994,
          "velocity": 0.7716535433070866
        },
        {
          "duration": 0.15000000000000568,
          "durationTicks": 60,
          "midi": 43,
          "name": "G2",
          "ticks": 20760,
          "time": 51.89999999999999,
          "velocity": 0.7716535433070866
        },
        {
          "duration": 0.29999999999999716,
          "durationTicks": 120,
          "midi": 43,
          "name": "G2",
          "ticks": 20880,
          "time": 52.199999999999996,
          "velocity": 0.7716535433070866
        },
        {
          "duration": 0.14999999999999858,
          "durationTicks": 60,
          "midi": 38,
          "name": "D2",
          "ticks": 21000,
          "time": 52.49999999999999,
          "velocity": 0.7716535433070866
        },
        {
          "duration": 0.15000000000000568,
          "durationTicks": 60,
          "midi": 36,
          "name": "C2",
          "ticks": 21060,
          "time": 52.64999999999999,
          "velocity": 0.7716535433070866
        },
        {
          "duration": 0.14999999999999858,
          "durationTicks": 60,
          "midi": 36,
          "name": "C2",
          "ticks": 21180,
          "time": 52.949999999999996,
          "velocity": 0.7716535433070866
        },
        {
          "duration": 0.14999999999999858,
          "durationTicks": 60,
          "midi": 36,
          "name": "C2",
          "ticks": 21300,
          "time": 53.24999999999999,
          "velocity": 0.7716535433070866
        },
        {
          "duration": 0.30000000000000426,
          "durationTicks": 120,
          "midi": 36,
          "name": "C2",
          "ticks": 21360,
          "time": 53.39999999999999,
          "velocity": 0.7716535433070866
        },
        {
          "duration": 0.29999999999999716,
          "durationTicks": 120,
          "midi": 38,
          "name": "D2",
          "ticks": 21480,
          "time": 53.699999999999996,
          "velocity": 0.7716535433070866
        },
        {
          "duration": 0.14999999999999858,
          "durationTicks": 60,
          "midi": 31,
          "name": "G1",
          "ticks": 21600,
          "time": 53.99999999999999,
          "velocity": 0.7716535433070866
        },
        {
          "duration": 0.14999999999999858,
          "durationTicks": 60,
          "midi": 31,
          "name": "G1",
          "ticks": 21720,
          "time": 54.3,
          "velocity": 0.7716535433070866
        },
        {
          "duration": 0.29999999999999716,
          "durationTicks": 120,
          "midi": 31,
          "name": "G1",
          "ticks": 21840,
          "time": 54.599999999999994,
          "velocity": 0.7716535433070866
        },
        {
          "duration": 0.15000000000000568,
          "durationTicks": 60,
          "midi": 43,
          "name": "G2",
          "ticks": 21960,
          "time": 54.89999999999999,
          "velocity": 0.7716535433070866
        },
        {
          "duration": 0.14999999999999858,
          "durationTicks": 60,
          "midi": 36,
          "name": "C2",
          "ticks": 22020,
          "time": 55.05,
          "velocity": 0.7716535433070866
        },
        {
          "duration": 0.14999999999999858,
          "durationTicks": 60,
          "midi": 36,
          "name": "C2",
          "ticks": 22140,
          "time": 55.349999999999994,
          "velocity": 0.7716535433070866
        },
        {
          "duration": 0.15000000000000568,
          "durationTicks": 60,
          "midi": 36,
          "name": "C2",
          "ticks": 22260,
          "time": 55.64999999999999,
          "velocity": 0.7716535433070866
        },
        {
          "duration": 0.29999999999999716,
          "durationTicks": 120,
          "midi": 36,
          "name": "C2",
          "ticks": 22320,
          "time": 55.8,
          "velocity": 0.7716535433070866
        },
        {
          "duration": 0.14999999999999858,
          "durationTicks": 60,
          "midi": 43,
          "name": "G2",
          "ticks": 22440,
          "time": 56.099999999999994,
          "velocity": 0.7716535433070866
        },
        {
          "duration": 0.14999999999999858,
          "durationTicks": 60,
          "midi": 36,
          "name": "C2",
          "ticks": 22500,
          "time": 56.24999999999999,
          "velocity": 0.7716535433070866
        },
        {
          "duration": 0.15000000000000568,
          "durationTicks": 60,
          "midi": 31,
          "name": "G1",
          "ticks": 22560,
          "time": 56.39999999999999,
          "velocity": 0.7716535433070866
        },
        {
          "duration": 0.14999999999999858,
          "durationTicks": 60,
          "midi": 43,
          "name": "G2",
          "ticks": 22680,
          "time": 56.699999999999996,
          "velocity": 0.7716535433070866
        },
        {
          "duration": 0.30000000000000426,
          "durationTicks": 120,
          "midi": 43,
          "name": "G2",
          "ticks": 22800,
          "time": 56.99999999999999,
          "velocity": 0.7716535433070866
        },
        {
          "duration": 0.14999999999999858,
          "durationTicks": 60,
          "midi": 38,
          "name": "D2",
          "ticks": 22920,
          "time": 57.3,
          "velocity": 0.7716535433070866
        },
        {
          "duration": 0.14999999999999858,
          "durationTicks": 60,
          "midi": 36,
          "name": "C2",
          "ticks": 22980,
          "time": 57.449999999999996,
          "velocity": 0.7716535433070866
        },
        {
          "duration": 0.14999999999999858,
          "durationTicks": 60,
          "midi": 36,
          "name": "C2",
          "ticks": 23100,
          "time": 57.74999999999999,
          "velocity": 0.7716535433070866
        },
        {
          "duration": 0.14999999999999858,
          "durationTicks": 60,
          "midi": 36,
          "name": "C2",
          "ticks": 23220,
          "time": 58.05,
          "velocity": 0.7716535433070866
        },
        {
          "duration": 0.29999999999999716,
          "durationTicks": 120,
          "midi": 36,
          "name": "C2",
          "ticks": 23280,
          "time": 58.199999999999996,
          "velocity": 0.7716535433070866
        },
        {
          "duration": 0.30000000000000426,
          "durationTicks": 120,
          "midi": 38,
          "name": "D2",
          "ticks": 23400,
          "time": 58.49999999999999,
          "velocity": 0.7716535433070866
        },
        {
          "duration": 0.14999999999999858,
          "durationTicks": 60,
          "midi": 43,
          "name": "G2",
          "ticks": 23520,
          "time": 58.8,
          "velocity": 0.7716535433070866
        },
        {
          "duration": 0.14999999999999858,
          "durationTicks": 60,
          "midi": 43,
          "name": "G2",
          "ticks": 23640,
          "time": 59.099999999999994,
          "velocity": 0.7716535433070866
        },
        {
          "duration": 0.30000000000000426,
          "durationTicks": 120,
          "midi": 43,
          "name": "G2",
          "ticks": 23760,
          "time": 59.39999999999999,
          "velocity": 0.7716535433070866
        },
        {
          "duration": 0.14999999999999858,
          "durationTicks": 60,
          "midi": 38,
          "name": "D2",
          "ticks": 23880,
          "time": 59.699999999999996,
          "velocity": 0.7716535433070866
        },
        {
          "duration": 0.14999999999999858,
          "durationTicks": 60,
          "midi": 43,
          "name": "G2",
          "ticks": 23940,
          "time": 59.849999999999994,
          "velocity": 0.7716535433070866
        },
        {
          "duration": 0.15000000000000568,
          "durationTicks": 60,
          "midi": 43,
          "name": "G2",
          "ticks": 24060,
          "time": 60.14999999999999,
          "velocity": 0.7716535433070866
        },
        {
          "duration": 0.14999999999999858,
          "durationTicks": 60,
          "midi": 36,
          "name": "C2",
          "ticks": 24120,
          "time": 60.3,
          "velocity": 0.7716535433070866
        },
        {
          "duration": 0.14999999999999858,
          "durationTicks": 60,
          "midi": 36,
          "name": "C2",
          "ticks": 24180,
          "time": 60.449999999999996,
          "velocity": 0.7716535433070866
        },
        {
          "duration": 0.29999999999999716,
          "durationTicks": 120,
          "midi": 36,
          "name": "C2",
          "ticks": 24240,
          "time": 60.599999999999994,
          "velocity": 0.7716535433070866
        },
        {
          "duration": 0.15000000000000568,
          "durationTicks": 60,
          "midi": 48,
          "name": "C3",
          "ticks": 24360,
          "time": 60.89999999999999,
          "velocity": 0.7716535433070866
        },
        {
          "duration": 0.14999999999999858,
          "durationTicks": 60,
          "midi": 43,
          "name": "G2",
          "ticks": 24420,
          "time": 61.05,
          "velocity": 0.7716535433070866
        },
        {
          "duration": 0.14999999999999858,
          "durationTicks": 60,
          "midi": 43,
          "name": "G2",
          "ticks": 24480,
          "time": 61.199999999999996,
          "velocity": 0.7716535433070866
        },
        {
          "duration": 0.14999999999999858,
          "durationTicks": 60,
          "midi": 43,
          "name": "G2",
          "ticks": 24600,
          "time": 61.49999999999999,
          "velocity": 0.7716535433070866
        },
        {
          "duration": 0.29999999999999716,
          "durationTicks": 120,
          "midi": 43,
          "name": "G2",
          "ticks": 24720,
          "time": 61.8,
          "velocity": 0.7716535433070866
        },
        {
          "duration": 0.14999999999999858,
          "durationTicks": 60,
          "midi": 38,
          "name": "D2",
          "ticks": 24840,
          "time": 62.099999999999994,
          "velocity": 0.7716535433070866
        },
        {
          "duration": 0.14999999999999858,
          "durationTicks": 60,
          "midi": 36,
          "name": "C2",
          "ticks": 24900,
          "time": 62.24999999999999,
          "velocity": 0.7716535433070866
        },
        {
          "duration": 0.14999999999999858,
          "durationTicks": 60,
          "midi": 36,
          "name": "C2",
          "ticks": 25020,
          "time": 62.55,
          "velocity": 0.7716535433070866
        },
        {
          "duration": 0.14999999999999858,
          "durationTicks": 60,
          "midi": 36,
          "name": "C2",
          "ticks": 25140,
          "time": 62.849999999999994,
          "velocity": 0.7716535433070866
        },
        {
          "duration": 0.30000000000000426,
          "durationTicks": 120,
          "midi": 36,
          "name": "C2",
          "ticks": 25200,
          "time": 62.99999999999999,
          "velocity": 0.7716535433070866
        },
        {
          "duration": 0.29999999999999716,
          "durationTicks": 120,
          "midi": 48,
          "name": "C3",
          "ticks": 25320,
          "time": 63.3,
          "velocity": 0.7716535433070866
        },
        {
          "duration": 0.14999999999999858,
          "durationTicks": 60,
          "midi": 31,
          "name": "G1",
          "ticks": 25440,
          "time": 63.599999999999994,
          "velocity": 0.7716535433070866
        },
        {
          "duration": 0.15000000000000568,
          "durationTicks": 60,
          "midi": 31,
          "name": "G1",
          "ticks": 25560,
          "time": 63.89999999999999,
          "velocity": 0.7716535433070866
        },
        {
          "duration": 0.15000000000000568,
          "durationTicks": 60,
          "midi": 43,
          "name": "G2",
          "ticks": 25680,
          "time": 64.19999999999999,
          "velocity": 0.7716535433070866
        },
        {
          "duration": 0.15000000000000568,
          "durationTicks": 60,
          "midi": 43,
          "name": "G2",
          "ticks": 25740,
          "time": 64.35,
          "velocity": 0.7716535433070866
        },
        {
          "duration": 0.14999999999999147,
          "durationTicks": 60,
          "midi": 38,
          "name": "D2",
          "ticks": 25800,
          "time": 64.5,
          "velocity": 0.7716535433070866
        },
        {
          "duration": 0.15000000000000568,
          "durationTicks": 60,
          "midi": 36,
          "name": "C2",
          "ticks": 25860,
          "time": 64.64999999999999,
          "velocity": 0.7716535433070866
        },
        {
          "duration": 0.15000000000000568,
          "durationTicks": 60,
          "midi": 36,
          "name": "C2",
          "ticks": 25980,
          "time": 64.94999999999999,
          "velocity": 0.7716535433070866
        },
        {
          "duration": 0.14999999999999147,
          "durationTicks": 60,
          "midi": 36,
          "name": "C2",
          "ticks": 26100,
          "time": 65.25,
          "velocity": 0.7716535433070866
        },
        {
          "duration": 0.29999999999999716,
          "durationTicks": 120,
          "midi": 36,
          "name": "C2",
          "ticks": 26160,
          "time": 65.39999999999999,
          "velocity": 0.7716535433070866
        },
        {
          "duration": 0.15000000000000568,
          "durationTicks": 60,
          "midi": 48,
          "name": "C3",
          "ticks": 26280,
          "time": 65.69999999999999,
          "velocity": 0.7716535433070866
        },
        {
          "duration": 0.15000000000000568,
          "durationTicks": 60,
          "midi": 36,
          "name": "C2",
          "ticks": 26340,
          "time": 65.85,
          "velocity": 0.7716535433070866
        },
        {
          "duration": 0.14999999999999147,
          "durationTicks": 60,
          "midi": 33,
          "name": "A1",
          "ticks": 26400,
          "time": 66,
          "velocity": 0.7716535433070866
        },
        {
          "duration": 0.14999999999999147,
          "durationTicks": 60,
          "midi": 33,
          "name": "A1",
          "ticks": 26520,
          "time": 66.3,
          "velocity": 0.7716535433070866
        },
        {
          "duration": 0.29999999999999716,
          "durationTicks": 120,
          "midi": 33,
          "name": "A1",
          "ticks": 26640,
          "time": 66.6,
          "velocity": 0.7716535433070866
        },
        {
          "duration": 0.15000000000000568,
          "durationTicks": 60,
          "midi": 45,
          "name": "A2",
          "ticks": 26760,
          "time": 66.89999999999999,
          "velocity": 0.7716535433070866
        },
        {
          "duration": 0.14999999999999147,
          "durationTicks": 60,
          "midi": 38,
          "name": "D2",
          "ticks": 26820,
          "time": 67.05,
          "velocity": 0.7716535433070866
        },
        {
          "duration": 0.15000000000000568,
          "durationTicks": 60,
          "midi": 38,
          "name": "D2",
          "ticks": 26940,
          "time": 67.35,
          "velocity": 0.7716535433070866
        },
        {
          "duration": 0.15000000000000568,
          "durationTicks": 60,
          "midi": 33,
          "name": "A1",
          "ticks": 27060,
          "time": 67.64999999999999,
          "velocity": 0.7716535433070866
        },
        {
          "duration": 0.29999999999999716,
          "durationTicks": 120,
          "midi": 38,
          "name": "D2",
          "ticks": 27120,
          "time": 67.8,
          "velocity": 0.7716535433070866
        },
        {
          "duration": 0.29999999999999716,
          "durationTicks": 120,
          "midi": 50,
          "name": "D3",
          "ticks": 27240,
          "time": 68.1,
          "velocity": 0.7716535433070866
        },
        {
          "duration": 0.15000000000000568,
          "durationTicks": 60,
          "midi": 33,
          "name": "A1",
          "ticks": 27360,
          "time": 68.39999999999999,
          "velocity": 0.7716535433070866
        },
        {
          "duration": 0.15000000000000568,
          "durationTicks": 60,
          "midi": 33,
          "name": "A1",
          "ticks": 27480,
          "time": 68.69999999999999,
          "velocity": 0.7716535433070866
        },
        {
          "duration": 0.14999999999999147,
          "durationTicks": 60,
          "midi": 45,
          "name": "A2",
          "ticks": 27600,
          "time": 69,
          "velocity": 0.7716535433070866
        },
        {
          "duration": 0.15000000000000568,
          "durationTicks": 60,
          "midi": 45,
          "name": "A2",
          "ticks": 27660,
          "time": 69.14999999999999,
          "velocity": 0.7716535433070866
        },
        {
          "duration": 0.14999999999999147,
          "durationTicks": 60,
          "midi": 40,
          "name": "E2",
          "ticks": 27720,
          "time": 69.3,
          "velocity": 0.7716535433070866
        },
        {
          "duration": 0.30000000000001137,
          "durationTicks": 120,
          "midi": 38,
          "name": "D2",
          "ticks": 27780,
          "time": 69.44999999999999,
          "velocity": 0.7716535433070866
        },
        {
          "duration": 0.14999999999999147,
          "durationTicks": 60,
          "midi": 50,
          "name": "D3",
          "ticks": 27900,
          "time": 69.75,
          "velocity": 0.7716535433070866
        },
        {
          "duration": 0.14999999999999147,
          "durationTicks": 60,
          "midi": 38,
          "name": "D2",
          "ticks": 28020,
          "time": 70.05,
          "velocity": 0.7716535433070866
        },
        {
          "duration": 0.15000000000000568,
          "durationTicks": 60,
          "midi": 38,
          "name": "D2",
          "ticks": 28080,
          "time": 70.19999999999999,
          "velocity": 0.7716535433070866
        },
        {
          "duration": 0.15000000000000568,
          "durationTicks": 60,
          "midi": 38,
          "name": "D2",
          "ticks": 28140,
          "time": 70.35,
          "velocity": 0.7716535433070866
        },
        {
          "duration": 0.14999999999999147,
          "durationTicks": 60,
          "midi": 50,
          "name": "D3",
          "ticks": 28200,
          "time": 70.5,
          "velocity": 0.7716535433070866
        },
        {
          "duration": 0.15000000000000568,
          "durationTicks": 60,
          "midi": 38,
          "name": "D2",
          "ticks": 28260,
          "time": 70.64999999999999,
          "velocity": 0.7716535433070866
        },
        {
          "duration": 0.14999999999999147,
          "durationTicks": 60,
          "midi": 31,
          "name": "G1",
          "ticks": 28320,
          "time": 70.8,
          "velocity": 0.7716535433070866
        },
        {
          "duration": 0.29999999999999716,
          "durationTicks": 120,
          "midi": 31,
          "name": "G1",
          "ticks": 28800,
          "time": 72,
          "velocity": 0.7716535433070866
        },
        {
          "duration": 0.30000000000001137,
          "durationTicks": 120,
          "midi": 31,
          "name": "G1",
          "ticks": 29280,
          "time": 73.19999999999999,
          "velocity": 0.7716535433070866
        },
        {
          "duration": 0.29999999999999716,
          "durationTicks": 120,
          "midi": 31,
          "name": "G1",
          "ticks": 29520,
          "time": 73.8,
          "velocity": 0.7716535433070866
        },
        {
          "duration": 0.45000000000000284,
          "durationTicks": 180,
          "midi": 31,
          "name": "G1",
          "ticks": 29760,
          "time": 74.39999999999999,
          "velocity": 0.7716535433070866
        },
        {
          "duration": 0.14999999999999147,
          "durationTicks": 60,
          "midi": 38,
          "name": "D2",
          "ticks": 30120,
          "time": 75.3,
          "velocity": 0.7716535433070866
        },
        {
          "duration": 0.15000000000000568,
          "durationTicks": 60,
          "midi": 35,
          "name": "B1",
          "ticks": 30180,
          "time": 75.44999999999999,
          "velocity": 0.7716535433070866
        }
      ]
    },
    {
      "channel": 0,
      "controlChanges": {
        "0": [
          {
            "number": 0,
            "ticks": 150,
            "time": 0.375,
            "value": 0
          }
        ],
        "32": [
          {
            "number": 32,
            "ticks": 151,
            "time": 0.3775,
            "value": 0
          }
        ],
        "91": [
          {
            "number": 91,
            "ticks": 0,
            "time": 0,
            "value": 0
          }
        ],
        "93": [
          {
            "number": 93,
            "ticks": 0,
            "time": 0,
            "value": 0
          }
        ]
      },
      "pitchBends": [],
      "instrument": {
        "family": "piano",
        "number": 0,
        "name": "acoustic grand piano"
      },
      "name": "",
      "notes": [],
      "endOfTrackTicks": 30120
    },
    {
      "channel": 6,
      "controlChanges": {
        "7": [
          {
            "number": 7,
            "ticks": 153,
            "time": 0.38249999999999995,
            "value": 0.4094488188976378
          }
        ],
        "10": [
          {
            "number": 10,
            "ticks": 153,
            "time": 0.38249999999999995,
            "value": 0.28346456692913385
          }
        ]
      },
      "pitchBends": [],
      "instrument": {
        "family": "strings",
        "number": 47,
        "name": "timpani"
      },
      "name": "",
      "notes": [
        {
          "duration": 0.15000000000000036,
          "durationTicks": 60,
          "midi": 48,
          "name": "C3",
          "ticks": 4920,
          "time": 12.299999999999999,
          "velocity": 0.8661417322834646
        },
        {
          "duration": 0.15000000000000036,
          "durationTicks": 60,
          "midi": 36,
          "name": "C2",
          "ticks": 4920,
          "time": 12.299999999999999,
          "velocity": 0.8661417322834646
        },
        {
          "duration": 0.15000000000000036,
          "durationTicks": 60,
          "midi": 48,
          "name": "C3",
          "ticks": 4980,
          "time": 12.45,
          "velocity": 0.8661417322834646
        },
        {
          "duration": 0.15000000000000036,
          "durationTicks": 60,
          "midi": 36,
          "name": "C2",
          "ticks": 4980,
          "time": 12.45,
          "velocity": 0.8661417322834646
        },
        {
          "duration": 0.15000000000000036,
          "durationTicks": 60,
          "midi": 48,
          "name": "C3",
          "ticks": 5100,
          "time": 12.75,
          "velocity": 0.8661417322834646
        },
        {
          "duration": 0.15000000000000036,
          "durationTicks": 60,
          "midi": 36,
          "name": "C2",
          "ticks": 5100,
          "time": 12.75,
          "velocity": 0.8661417322834646
        },
        {
          "duration": 0.14999999999999858,
          "durationTicks": 60,
          "midi": 48,
          "name": "C3",
          "ticks": 5160,
          "time": 12.9,
          "velocity": 0.8661417322834646
        },
        {
          "duration": 0.14999999999999858,
          "durationTicks": 60,
          "midi": 36,
          "name": "C2",
          "ticks": 5160,
          "time": 12.9,
          "velocity": 0.8661417322834646
        },
        {
          "duration": 0.15000000000000036,
          "durationTicks": 60,
          "midi": 48,
          "name": "C3",
          "ticks": 5220,
          "time": 13.049999999999999,
          "velocity": 0.8661417322834646
        },
        {
          "duration": 0.15000000000000036,
          "durationTicks": 60,
          "midi": 36,
          "name": "C2",
          "ticks": 5220,
          "time": 13.049999999999999,
          "velocity": 0.8661417322834646
        },
        {
          "duration": 0.9000000000000004,
          "durationTicks": 360,
          "midi": 43,
          "name": "G2",
          "ticks": 5280,
          "time": 13.2,
          "velocity": 0.8661417322834646
        },
        {
          "duration": 0.9000000000000004,
          "durationTicks": 360,
          "midi": 31,
          "name": "G1",
          "ticks": 5280,
          "time": 13.2,
          "velocity": 0.8661417322834646
        },
        {
          "duration": 0.14999999999999858,
          "durationTicks": 60,
          "midi": 48,
          "name": "C3",
          "ticks": 7020,
          "time": 17.55,
          "velocity": 0.8661417322834646
        },
        {
          "duration": 0.14999999999999858,
          "durationTicks": 60,
          "midi": 36,
          "name": "C2",
          "ticks": 7020,
          "time": 17.55,
          "velocity": 0.8661417322834646
        },
        {
          "duration": 0.14999999999999858,
          "durationTicks": 60,
          "midi": 48,
          "name": "C3",
          "ticks": 7080,
          "time": 17.7,
          "velocity": 0.8661417322834646
        },
        {
          "duration": 0.14999999999999858,
          "durationTicks": 60,
          "midi": 36,
          "name": "C2",
          "ticks": 7080,
          "time": 17.7,
          "velocity": 0.8661417322834646
        },
        {
          "duration": 0.15000000000000213,
          "durationTicks": 60,
          "midi": 48,
          "name": "C3",
          "ticks": 7140,
          "time": 17.849999999999998,
          "velocity": 0.8661417322834646
        },
        {
          "duration": 0.15000000000000213,
          "durationTicks": 60,
          "midi": 36,
          "name": "C2",
          "ticks": 7140,
          "time": 17.849999999999998,
          "velocity": 0.8661417322834646
        },
        {
          "duration": 0.8999999999999986,
          "durationTicks": 360,
          "midi": 45,
          "name": "A2",
          "ticks": 7200,
          "time": 18,
          "velocity": 0.8661417322834646
        },
        {
          "duration": 0.8999999999999986,
          "durationTicks": 360,
          "midi": 33,
          "name": "A1",
          "ticks": 7200,
          "time": 18,
          "velocity": 0.8661417322834646
        },
        {
          "duration": 0.8999999999999986,
          "durationTicks": 360,
          "midi": 50,
          "name": "D3",
          "ticks": 7680,
          "time": 19.2,
          "velocity": 0.8661417322834646
        },
        {
          "duration": 0.8999999999999986,
          "durationTicks": 360,
          "midi": 38,
          "name": "D2",
          "ticks": 7680,
          "time": 19.2,
          "velocity": 0.8661417322834646
        },
        {
          "duration": 0.3000000000000007,
          "durationTicks": 120,
          "midi": 45,
          "name": "A2",
          "ticks": 8160,
          "time": 20.4,
          "velocity": 0.8661417322834646
        },
        {
          "duration": 0.3000000000000007,
          "durationTicks": 120,
          "midi": 33,
          "name": "A1",
          "ticks": 8160,
          "time": 20.4,
          "velocity": 0.8661417322834646
        },
        {
          "duration": 0.15000000000000213,
          "durationTicks": 60,
          "midi": 45,
          "name": "A2",
          "ticks": 8340,
          "time": 20.849999999999998,
          "velocity": 0.8661417322834646
        },
        {
          "duration": 0.15000000000000213,
          "durationTicks": 60,
          "midi": 33,
          "name": "A1",
          "ticks": 8340,
          "time": 20.849999999999998,
          "velocity": 0.8661417322834646
        },
        {
          "duration": 0.3000000000000007,
          "durationTicks": 120,
          "midi": 45,
          "name": "A2",
          "ticks": 8400,
          "time": 21,
          "velocity": 0.8661417322834646
        },
        {
          "duration": 0.3000000000000007,
          "durationTicks": 120,
          "midi": 33,
          "name": "A1",
          "ticks": 8400,
          "time": 21,
          "velocity": 0.8661417322834646
        },
        {
          "duration": 0.3000000000000007,
          "durationTicks": 120,
          "midi": 50,
          "name": "D3",
          "ticks": 8580,
          "time": 21.45,
          "velocity": 0.8661417322834646
        },
        {
          "duration": 0.3000000000000007,
          "durationTicks": 120,
          "midi": 38,
          "name": "D2",
          "ticks": 8580,
          "time": 21.45,
          "velocity": 0.8661417322834646
        },
        {
          "duration": 0.3000000000000007,
          "durationTicks": 120,
          "midi": 50,
          "name": "D3",
          "ticks": 8700,
          "time": 21.75,
          "velocity": 0.8661417322834646
        },
        {
          "duration": 0.3000000000000007,
          "durationTicks": 120,
          "midi": 38,
          "name": "D2",
          "ticks": 8700,
          "time": 21.75,
          "velocity": 0.8661417322834646
        },
        {
          "duration": 0.14999999999999858,
          "durationTicks": 60,
          "midi": 50,
          "name": "D3",
          "ticks": 8820,
          "time": 22.05,
          "velocity": 0.8661417322834646
        },
        {
          "duration": 0.14999999999999858,
          "durationTicks": 60,
          "midi": 38,
          "name": "D2",
          "ticks": 8820,
          "time": 22.05,
          "velocity": 0.8661417322834646
        },
        {
          "duration": 0.3000000000000007,
          "durationTicks": 120,
          "midi": 50,
          "name": "D3",
          "ticks": 8880,
          "time": 22.2,
          "velocity": 0.8661417322834646
        },
        {
          "duration": 0.3000000000000007,
          "durationTicks": 120,
          "midi": 38,
          "name": "D2",
          "ticks": 8880,
          "time": 22.2,
          "velocity": 0.8661417322834646
        },
        {
          "duration": 0.3000000000000007,
          "durationTicks": 120,
          "midi": 50,
          "name": "D3",
          "ticks": 9000,
          "time": 22.5,
          "velocity": 0.8661417322834646
        },
        {
          "duration": 0.3000000000000007,
          "durationTicks": 120,
          "midi": 38,
          "name": "D2",
          "ticks": 9000,
          "time": 22.5,
          "velocity": 0.8661417322834646
        },
        {
          "duration": 0.8999999999999986,
          "durationTicks": 360,
          "midi": 43,
          "name": "G2",
          "ticks": 9120,
          "time": 22.8,
          "velocity": 0.8661417322834646
        },
        {
          "duration": 0.8999999999999986,
          "durationTicks": 360,
          "midi": 31,
          "name": "G1",
          "ticks": 9120,
          "time": 22.8,
          "velocity": 0.8661417322834646
        },
        {
          "duration": 0.8999999999999986,
          "durationTicks": 360,
          "midi": 43,
          "name": "G2",
          "ticks": 9600,
          "time": 24,
          "velocity": 0.8661417322834646
        },
        {
          "duration": 0.8999999999999986,
          "durationTicks": 360,
          "midi": 31,
          "name": "G1",
          "ticks": 9600,
          "time": 24,
          "velocity": 0.8661417322834646
        },
        {
          "duration": 0.14999999999999858,
          "durationTicks": 60,
          "midi": 43,
          "name": "G2",
          "ticks": 10020,
          "time": 25.05,
          "velocity": 0.8661417322834646
        },
        {
          "duration": 0.14999999999999858,
          "durationTicks": 60,
          "midi": 31,
          "name": "G1",
          "ticks": 10020,
          "time": 25.05,
          "velocity": 0.8661417322834646
        },
        {
          "duration": 0.3000000000000007,
          "durationTicks": 120,
          "midi": 43,
          "name": "G2",
          "ticks": 10080,
          "time": 25.2,
          "velocity": 0.8661417322834646
        },
        {
          "duration": 0.3000000000000007,
          "durationTicks": 120,
          "midi": 31,
          "name": "G1",
          "ticks": 10080,
          "time": 25.2,
          "velocity": 0.8661417322834646
        },
        {
          "duration": 0.15000000000000213,
          "durationTicks": 60,
          "midi": 43,
          "name": "G2",
          "ticks": 10260,
          "time": 25.65,
          "velocity": 0.8661417322834646
        },
        {
          "duration": 0.15000000000000213,
          "durationTicks": 60,
          "midi": 31,
          "name": "G1",
          "ticks": 10260,
          "time": 25.65,
          "velocity": 0.8661417322834646
        },
        {
          "duration": 0.29999999999999716,
          "durationTicks": 120,
          "midi": 43,
          "name": "G2",
          "ticks": 10320,
          "time": 25.8,
          "velocity": 0.8661417322834646
        },
        {
          "duration": 0.29999999999999716,
          "durationTicks": 120,
          "midi": 31,
          "name": "G1",
          "ticks": 10320,
          "time": 25.8,
          "velocity": 0.8661417322834646
        },
        {
          "duration": 0.14999999999999858,
          "durationTicks": 60,
          "midi": 43,
          "name": "G2",
          "ticks": 10500,
          "time": 26.25,
          "velocity": 0.8661417322834646
        },
        {
          "duration": 0.14999999999999858,
          "durationTicks": 60,
          "midi": 31,
          "name": "G1",
          "ticks": 10500,
          "time": 26.25,
          "velocity": 0.8661417322834646
        },
        {
          "duration": 0.9000000000000021,
          "durationTicks": 360,
          "midi": 43,
          "name": "G2",
          "ticks": 10560,
          "time": 26.4,
          "velocity": 0.8661417322834646
        },
        {
          "duration": 0.9000000000000021,
          "durationTicks": 360,
          "midi": 31,
          "name": "G1",
          "ticks": 10560,
          "time": 26.4,
          "velocity": 0.8661417322834646
        },
        {
          "duration": 0.14999999999999858,
          "durationTicks": 60,
          "midi": 48,
          "name": "C3",
          "ticks": 14520,
          "time": 36.3,
          "velocity": 0.8661417322834646
        },
        {
          "duration": 0.14999999999999858,
          "durationTicks": 60,
          "midi": 36,
          "name": "C2",
          "ticks": 14520,
          "time": 36.3,
          "velocity": 0.8661417322834646
        },
        {
          "duration": 0.14999999999999858,
          "durationTicks": 60,
          "midi": 48,
          "name": "C3",
          "ticks": 14580,
          "time": 36.449999999999996,
          "velocity": 0.8661417322834646
        },
        {
          "duration": 0.14999999999999858,
          "durationTicks": 60,
          "midi": 36,
          "name": "C2",
          "ticks": 14580,
          "time": 36.449999999999996,
          "velocity": 0.8661417322834646
        },
        {
          "duration": 0.14999999999999858,
          "durationTicks": 60,
          "midi": 48,
          "name": "C3",
          "ticks": 14700,
          "time": 36.75,
          "velocity": 0.8661417322834646
        },
        {
          "duration": 0.14999999999999858,
          "durationTicks": 60,
          "midi": 36,
          "name": "C2",
          "ticks": 14700,
          "time": 36.75,
          "velocity": 0.8661417322834646
        },
        {
          "duration": 0.14999999999999858,
          "durationTicks": 60,
          "midi": 48,
          "name": "C3",
          "ticks": 14760,
          "time": 36.9,
          "velocity": 0.8661417322834646
        },
        {
          "duration": 0.14999999999999858,
          "durationTicks": 60,
          "midi": 36,
          "name": "C2",
          "ticks": 14760,
          "time": 36.9,
          "velocity": 0.8661417322834646
        },
        {
          "duration": 0.14999999999999858,
          "durationTicks": 60,
          "midi": 48,
          "name": "C3",
          "ticks": 14820,
          "time": 37.05,
          "velocity": 0.8661417322834646
        },
        {
          "duration": 0.14999999999999858,
          "durationTicks": 60,
          "midi": 36,
          "name": "C2",
          "ticks": 14820,
          "time": 37.05,
          "velocity": 0.8661417322834646
        },
        {
          "duration": 0.8999999999999986,
          "durationTicks": 360,
          "midi": 43,
          "name": "G2",
          "ticks": 14880,
          "time": 37.199999999999996,
          "velocity": 0.8661417322834646
        },
        {
          "duration": 0.8999999999999986,
          "durationTicks": 360,
          "midi": 31,
          "name": "G1",
          "ticks": 14880,
          "time": 37.199999999999996,
          "velocity": 0.8661417322834646
        },
        {
          "duration": 0.14999999999999858,
          "durationTicks": 60,
          "midi": 48,
          "name": "C3",
          "ticks": 16620,
          "time": 41.55,
          "velocity": 0.8661417322834646
        },
        {
          "duration": 0.14999999999999858,
          "durationTicks": 60,
          "midi": 36,
          "name": "C2",
          "ticks": 16620,
          "time": 41.55,
          "velocity": 0.8661417322834646
        },
        {
          "duration": 0.14999999999999858,
          "durationTicks": 60,
          "midi": 48,
          "name": "C3",
          "ticks": 16680,
          "time": 41.699999999999996,
          "velocity": 0.8661417322834646
        },
        {
          "duration": 0.14999999999999858,
          "durationTicks": 60,
          "midi": 36,
          "name": "C2",
          "ticks": 16680,
          "time": 41.699999999999996,
          "velocity": 0.8661417322834646
        },
        {
          "duration": 0.15000000000000568,
          "durationTicks": 60,
          "midi": 48,
          "name": "C3",
          "ticks": 16740,
          "time": 41.849999999999994,
          "velocity": 0.8661417322834646
        },
        {
          "duration": 0.15000000000000568,
          "durationTicks": 60,
          "midi": 36,
          "name": "C2",
          "ticks": 16740,
          "time": 41.849999999999994,
          "velocity": 0.8661417322834646
        },
        {
          "duration": 0.8999999999999986,
          "durationTicks": 360,
          "midi": 45,
          "name": "A2",
          "ticks": 16800,
          "time": 42,
          "velocity": 0.8661417322834646
        },
        {
          "duration": 0.8999999999999986,
          "durationTicks": 360,
          "midi": 33,
          "name": "A1",
          "ticks": 16800,
          "time": 42,
          "velocity": 0.8661417322834646
        },
        {
          "duration": 0.8999999999999986,
          "durationTicks": 360,
          "midi": 50,
          "name": "D3",
          "ticks": 17280,
          "time": 43.199999999999996,
          "velocity": 0.8661417322834646
        },
        {
          "duration": 0.8999999999999986,
          "durationTicks": 360,
          "midi": 38,
          "name": "D2",
          "ticks": 17280,
          "time": 43.199999999999996,
          "velocity": 0.8661417322834646
        },
        {
          "duration": 0.29999999999999716,
          "durationTicks": 120,
          "midi": 45,
          "name": "A2",
          "ticks": 17760,
          "time": 44.4,
          "velocity": 0.8661417322834646
        },
        {
          "duration": 0.29999999999999716,
          "durationTicks": 120,
          "midi": 33,
          "name": "A1",
          "ticks": 17760,
          "time": 44.4,
          "velocity": 0.8661417322834646
        },
        {
          "duration": 0.15000000000000568,
          "durationTicks": 60,
          "midi": 45,
          "name": "A2",
          "ticks": 17940,
          "time": 44.849999999999994,
          "velocity": 0.8661417322834646
        },
        {
          "duration": 0.15000000000000568,
          "durationTicks": 60,
          "midi": 33,
          "name": "A1",
          "ticks": 17940,
          "time": 44.849999999999994,
          "velocity": 0.8661417322834646
        },
        {
          "duration": 0.29999999999999716,
          "durationTicks": 120,
          "midi": 45,
          "name": "A2",
          "ticks": 18000,
          "time": 45,
          "velocity": 0.8661417322834646
        },
        {
          "duration": 0.29999999999999716,
          "durationTicks": 120,
          "midi": 33,
          "name": "A1",
          "ticks": 18000,
          "time": 45,
          "velocity": 0.8661417322834646
        },
        {
          "duration": 0.30000000000000426,
          "durationTicks": 120,
          "midi": 50,
          "name": "D3",
          "ticks": 18180,
          "time": 45.449999999999996,
          "velocity": 0.8661417322834646
        },
        {
          "duration": 0.30000000000000426,
          "durationTicks": 120,
          "midi": 38,
          "name": "D2",
          "ticks": 18180,
          "time": 45.449999999999996,
          "velocity": 0.8661417322834646
        },
        {
          "duration": 0.29999999999999716,
          "durationTicks": 120,
          "midi": 50,
          "name": "D3",
          "ticks": 18300,
          "time": 45.75,
          "velocity": 0.8661417322834646
        },
        {
          "duration": 0.29999999999999716,
          "durationTicks": 120,
          "midi": 38,
          "name": "D2",
          "ticks": 18300,
          "time": 45.75,
          "velocity": 0.8661417322834646
        },
        {
          "duration": 0.14999999999999858,
          "durationTicks": 60,
          "midi": 50,
          "name": "D3",
          "ticks": 18420,
          "time": 46.05,
          "velocity": 0.8661417322834646
        },
        {
          "duration": 0.14999999999999858,
          "durationTicks": 60,
          "midi": 38,
          "name": "D2",
          "ticks": 18420,
          "time": 46.05,
          "velocity": 0.8661417322834646
        },
        {
          "duration": 0.30000000000000426,
          "durationTicks": 120,
          "midi": 50,
          "name": "D3",
          "ticks": 18480,
          "time": 46.199999999999996,
          "velocity": 0.8661417322834646
        },
        {
          "duration": 0.30000000000000426,
          "durationTicks": 120,
          "midi": 38,
          "name": "D2",
          "ticks": 18480,
          "time": 46.199999999999996,
          "velocity": 0.8661417322834646
        },
        {
          "duration": 0.29999999999999716,
          "durationTicks": 120,
          "midi": 50,
          "name": "D3",
          "ticks": 18600,
          "time": 46.5,
          "velocity": 0.8661417322834646
        },
        {
          "duration": 0.29999999999999716,
          "durationTicks": 120,
          "midi": 38,
          "name": "D2",
          "ticks": 18600,
          "time": 46.5,
          "velocity": 0.8661417322834646
        },
        {
          "duration": 0.8999999999999986,
          "durationTicks": 360,
          "midi": 43,
          "name": "G2",
          "ticks": 18720,
          "time": 46.8,
          "velocity": 0.8661417322834646
        },
        {
          "duration": 0.8999999999999986,
          "durationTicks": 360,
          "midi": 31,
          "name": "G1",
          "ticks": 18720,
          "time": 46.8,
          "velocity": 0.8661417322834646
        },
        {
          "duration": 0.8999999999999986,
          "durationTicks": 360,
          "midi": 43,
          "name": "G2",
          "ticks": 19200,
          "time": 48,
          "velocity": 0.8661417322834646
        },
        {
          "duration": 0.8999999999999986,
          "durationTicks": 360,
          "midi": 31,
          "name": "G1",
          "ticks": 19200,
          "time": 48,
          "velocity": 0.8661417322834646
        },
        {
          "duration": 0.14999999999999858,
          "durationTicks": 60,
          "midi": 43,
          "name": "G2",
          "ticks": 19620,
          "time": 49.05,
          "velocity": 0.8661417322834646
        },
        {
          "duration": 0.14999999999999858,
          "durationTicks": 60,
          "midi": 31,
          "name": "G1",
          "ticks": 19620,
          "time": 49.05,
          "velocity": 0.8661417322834646
        },
        {
          "duration": 0.30000000000000426,
          "durationTicks": 120,
          "midi": 43,
          "name": "G2",
          "ticks": 19680,
          "time": 49.199999999999996,
          "velocity": 0.8661417322834646
        },
        {
          "duration": 0.30000000000000426,
          "durationTicks": 120,
          "midi": 31,
          "name": "G1",
          "ticks": 19680,
          "time": 49.199999999999996,
          "velocity": 0.8661417322834646
        },
        {
          "duration": 0.14999999999999858,
          "durationTicks": 60,
          "midi": 43,
          "name": "G2",
          "ticks": 19860,
          "time": 49.65,
          "velocity": 0.8661417322834646
        },
        {
          "duration": 0.14999999999999858,
          "durationTicks": 60,
          "midi": 31,
          "name": "G1",
          "ticks": 19860,
          "time": 49.65,
          "velocity": 0.8661417322834646
        },
        {
          "duration": 0.29999999999999716,
          "durationTicks": 120,
          "midi": 43,
          "name": "G2",
          "ticks": 19920,
          "time": 49.8,
          "velocity": 0.8661417322834646
        },
        {
          "duration": 0.29999999999999716,
          "durationTicks": 120,
          "midi": 31,
          "name": "G1",
          "ticks": 19920,
          "time": 49.8,
          "velocity": 0.8661417322834646
        },
        {
          "duration": 0.14999999999999858,
          "durationTicks": 60,
          "midi": 43,
          "name": "G2",
          "ticks": 20100,
          "time": 50.25,
          "velocity": 0.8661417322834646
        },
        {
          "duration": 0.14999999999999858,
          "durationTicks": 60,
          "midi": 31,
          "name": "G1",
          "ticks": 20100,
          "time": 50.25,
          "velocity": 0.8661417322834646
        },
        {
          "duration": 0.8999999999999986,
          "durationTicks": 360,
          "midi": 43,
          "name": "G2",
          "ticks": 20160,
          "time": 50.4,
          "velocity": 0.8661417322834646
        },
        {
          "duration": 0.8999999999999986,
          "durationTicks": 360,
          "midi": 31,
          "name": "G1",
          "ticks": 20160,
          "time": 50.4,
          "velocity": 0.8661417322834646
        },
        {
          "duration": 0.14999999999999858,
          "durationTicks": 60,
          "midi": 48,
          "name": "C3",
          "ticks": 24120,
          "time": 60.3,
          "velocity": 0.8661417322834646
        },
        {
          "duration": 0.14999999999999858,
          "durationTicks": 60,
          "midi": 36,
          "name": "C2",
          "ticks": 24120,
          "time": 60.3,
          "velocity": 0.8661417322834646
        },
        {
          "duration": 0.14999999999999858,
          "durationTicks": 60,
          "midi": 48,
          "name": "C3",
          "ticks": 24180,
          "time": 60.449999999999996,
          "velocity": 0.8661417322834646
        },
        {
          "duration": 0.14999999999999858,
          "durationTicks": 60,
          "midi": 36,
          "name": "C2",
          "ticks": 24180,
          "time": 60.449999999999996,
          "velocity": 0.8661417322834646
        },
        {
          "duration": 0.14999999999999858,
          "durationTicks": 60,
          "midi": 48,
          "name": "C3",
          "ticks": 24300,
          "time": 60.74999999999999,
          "velocity": 0.8661417322834646
        },
        {
          "duration": 0.14999999999999858,
          "durationTicks": 60,
          "midi": 36,
          "name": "C2",
          "ticks": 24300,
          "time": 60.74999999999999,
          "velocity": 0.8661417322834646
        },
        {
          "duration": 0.15000000000000568,
          "durationTicks": 60,
          "midi": 48,
          "name": "C3",
          "ticks": 24360,
          "time": 60.89999999999999,
          "velocity": 0.8661417322834646
        },
        {
          "duration": 0.15000000000000568,
          "durationTicks": 60,
          "midi": 36,
          "name": "C2",
          "ticks": 24360,
          "time": 60.89999999999999,
          "velocity": 0.8661417322834646
        },
        {
          "duration": 0.14999999999999858,
          "durationTicks": 60,
          "midi": 48,
          "name": "C3",
          "ticks": 24420,
          "time": 61.05,
          "velocity": 0.8661417322834646
        },
        {
          "duration": 0.14999999999999858,
          "durationTicks": 60,
          "midi": 36,
          "name": "C2",
          "ticks": 24420,
          "time": 61.05,
          "velocity": 0.8661417322834646
        },
        {
          "duration": 0.8999999999999986,
          "durationTicks": 360,
          "midi": 43,
          "name": "G2",
          "ticks": 24480,
          "time": 61.199999999999996,
          "velocity": 0.8661417322834646
        },
        {
          "duration": 0.8999999999999986,
          "durationTicks": 360,
          "midi": 31,
          "name": "G1",
          "ticks": 24480,
          "time": 61.199999999999996,
          "velocity": 0.8661417322834646
        },
        {
          "duration": 0.14999999999999147,
          "durationTicks": 60,
          "midi": 48,
          "name": "C3",
          "ticks": 26220,
          "time": 65.55,
          "velocity": 0.8661417322834646
        },
        {
          "duration": 0.14999999999999147,
          "durationTicks": 60,
          "midi": 36,
          "name": "C2",
          "ticks": 26220,
          "time": 65.55,
          "velocity": 0.8661417322834646
        },
        {
          "duration": 0.15000000000000568,
          "durationTicks": 60,
          "midi": 48,
          "name": "C3",
          "ticks": 26280,
          "time": 65.69999999999999,
          "velocity": 0.8661417322834646
        },
        {
          "duration": 0.15000000000000568,
          "durationTicks": 60,
          "midi": 36,
          "name": "C2",
          "ticks": 26280,
          "time": 65.69999999999999,
          "velocity": 0.8661417322834646
        },
        {
          "duration": 0.15000000000000568,
          "durationTicks": 60,
          "midi": 48,
          "name": "C3",
          "ticks": 26340,
          "time": 65.85,
          "velocity": 0.8661417322834646
        },
        {
          "duration": 0.15000000000000568,
          "durationTicks": 60,
          "midi": 36,
          "name": "C2",
          "ticks": 26340,
          "time": 65.85,
          "velocity": 0.8661417322834646
        },
        {
          "duration": 0.8999999999999915,
          "durationTicks": 360,
          "midi": 45,
          "name": "A2",
          "ticks": 26400,
          "time": 66,
          "velocity": 0.8661417322834646
        },
        {
          "duration": 0.8999999999999915,
          "durationTicks": 360,
          "midi": 33,
          "name": "A1",
          "ticks": 26400,
          "time": 66,
          "velocity": 0.8661417322834646
        },
        {
          "duration": 0.9000000000000057,
          "durationTicks": 360,
          "midi": 50,
          "name": "D3",
          "ticks": 26880,
          "time": 67.19999999999999,
          "velocity": 0.8661417322834646
        },
        {
          "duration": 0.9000000000000057,
          "durationTicks": 360,
          "midi": 38,
          "name": "D2",
          "ticks": 26880,
          "time": 67.19999999999999,
          "velocity": 0.8661417322834646
        },
        {
          "duration": 0.29999999999999716,
          "durationTicks": 120,
          "midi": 45,
          "name": "A2",
          "ticks": 27360,
          "time": 68.39999999999999,
          "velocity": 0.8661417322834646
        },
        {
          "duration": 0.29999999999999716,
          "durationTicks": 120,
          "midi": 33,
          "name": "A1",
          "ticks": 27360,
          "time": 68.39999999999999,
          "velocity": 0.8661417322834646
        },
        {
          "duration": 0.15000000000000568,
          "durationTicks": 60,
          "midi": 45,
          "name": "A2",
          "ticks": 27540,
          "time": 68.85,
          "velocity": 0.8661417322834646
        },
        {
          "duration": 0.15000000000000568,
          "durationTicks": 60,
          "midi": 33,
          "name": "A1",
          "ticks": 27540,
          "time": 68.85,
          "velocity": 0.8661417322834646
        },
        {
          "duration": 0.29999999999999716,
          "durationTicks": 120,
          "midi": 45,
          "name": "A2",
          "ticks": 27600,
          "time": 69,
          "velocity": 0.8661417322834646
        },
        {
          "duration": 0.29999999999999716,
          "durationTicks": 120,
          "midi": 33,
          "name": "A1",
          "ticks": 27600,
          "time": 69,
          "velocity": 0.8661417322834646
        },
        {
          "duration": 0.30000000000001137,
          "durationTicks": 120,
          "midi": 50,
          "name": "D3",
          "ticks": 27780,
          "time": 69.44999999999999,
          "velocity": 0.8661417322834646
        },
        {
          "duration": 0.30000000000001137,
          "durationTicks": 120,
          "midi": 38,
          "name": "D2",
          "ticks": 27780,
          "time": 69.44999999999999,
          "velocity": 0.8661417322834646
        },
        {
          "duration": 0.29999999999999716,
          "durationTicks": 120,
          "midi": 50,
          "name": "D3",
          "ticks": 27900,
          "time": 69.75,
          "velocity": 0.8661417322834646
        },
        {
          "duration": 0.29999999999999716,
          "durationTicks": 120,
          "midi": 38,
          "name": "D2",
          "ticks": 27900,
          "time": 69.75,
          "velocity": 0.8661417322834646
        },
        {
          "duration": 0.14999999999999147,
          "durationTicks": 60,
          "midi": 50,
          "name": "D3",
          "ticks": 28020,
          "time": 70.05,
          "velocity": 0.8661417322834646
        },
        {
          "duration": 0.14999999999999147,
          "durationTicks": 60,
          "midi": 38,
          "name": "D2",
          "ticks": 28020,
          "time": 70.05,
          "velocity": 0.8661417322834646
        },
        {
          "duration": 0.30000000000001137,
          "durationTicks": 120,
          "midi": 50,
          "name": "D3",
          "ticks": 28080,
          "time": 70.19999999999999,
          "velocity": 0.8661417322834646
        },
        {
          "duration": 0.30000000000001137,
          "durationTicks": 120,
          "midi": 38,
          "name": "D2",
          "ticks": 28080,
          "time": 70.19999999999999,
          "velocity": 0.8661417322834646
        },
        {
          "duration": 0.29999999999999716,
          "durationTicks": 120,
          "midi": 50,
          "name": "D3",
          "ticks": 28200,
          "time": 70.5,
          "velocity": 0.8661417322834646
        },
        {
          "duration": 0.29999999999999716,
          "durationTicks": 120,
          "midi": 38,
          "name": "D2",
          "ticks": 28200,
          "time": 70.5,
          "velocity": 0.8661417322834646
        },
        {
          "duration": 0.8999999999999915,
          "durationTicks": 360,
          "midi": 43,
          "name": "G2",
          "ticks": 28320,
          "time": 70.8,
          "velocity": 0.8661417322834646
        },
        {
          "duration": 0.8999999999999915,
          "durationTicks": 360,
          "midi": 31,
          "name": "G1",
          "ticks": 28320,
          "time": 70.8,
          "velocity": 0.8661417322834646
        },
        {
          "duration": 0.8999999999999915,
          "durationTicks": 360,
          "midi": 43,
          "name": "G2",
          "ticks": 28800,
          "time": 72,
          "velocity": 0.8661417322834646
        },
        {
          "duration": 0.8999999999999915,
          "durationTicks": 360,
          "midi": 31,
          "name": "G1",
          "ticks": 28800,
          "time": 72,
          "velocity": 0.8661417322834646
        },
        {
          "duration": 0.14999999999999147,
          "durationTicks": 60,
          "midi": 43,
          "name": "G2",
          "ticks": 29220,
          "time": 73.05,
          "velocity": 0.8661417322834646
        },
        {
          "duration": 0.14999999999999147,
          "durationTicks": 60,
          "midi": 31,
          "name": "G1",
          "ticks": 29220,
          "time": 73.05,
          "velocity": 0.8661417322834646
        },
        {
          "duration": 0.30000000000001137,
          "durationTicks": 120,
          "midi": 43,
          "name": "G2",
          "ticks": 29280,
          "time": 73.19999999999999,
          "velocity": 0.8661417322834646
        },
        {
          "duration": 0.30000000000001137,
          "durationTicks": 120,
          "midi": 31,
          "name": "G1",
          "ticks": 29280,
          "time": 73.19999999999999,
          "velocity": 0.8661417322834646
        },
        {
          "duration": 0.15000000000000568,
          "durationTicks": 60,
          "midi": 43,
          "name": "G2",
          "ticks": 29460,
          "time": 73.64999999999999,
          "velocity": 0.8661417322834646
        },
        {
          "duration": 0.15000000000000568,
          "durationTicks": 60,
          "midi": 31,
          "name": "G1",
          "ticks": 29460,
          "time": 73.64999999999999,
          "velocity": 0.8661417322834646
        },
        {
          "duration": 0.29999999999999716,
          "durationTicks": 120,
          "midi": 43,
          "name": "G2",
          "ticks": 29520,
          "time": 73.8,
          "velocity": 0.8661417322834646
        },
        {
          "duration": 0.29999999999999716,
          "durationTicks": 120,
          "midi": 31,
          "name": "G1",
          "ticks": 29520,
          "time": 73.8,
          "velocity": 0.8661417322834646
        },
        {
          "duration": 0.14999999999999147,
          "durationTicks": 60,
          "midi": 43,
          "name": "G2",
          "ticks": 29700,
          "time": 74.25,
          "velocity": 0.8661417322834646
        },
        {
          "duration": 0.14999999999999147,
          "durationTicks": 60,
          "midi": 31,
          "name": "G1",
          "ticks": 29700,
          "time": 74.25,
          "velocity": 0.8661417322834646
        },
        {
          "duration": 0.9000000000000057,
          "durationTicks": 360,
          "midi": 43,
          "name": "G2",
          "ticks": 29760,
          "time": 74.39999999999999,
          "velocity": 0.8661417322834646
        },
        {
          "duration": 0.9000000000000057,
          "durationTicks": 360,
          "midi": 31,
          "name": "G1",
          "ticks": 29760,
          "time": 74.39999999999999,
          "velocity": 0.8661417322834646
        }
      ]
    },
    {
      "channel": 0,
      "controlChanges": {
        "0": [
          {
            "number": 0,
            "ticks": 160,
            "time": 0.39999999999999997,
            "value": 0
          }
        ],
        "32": [
          {
            "number": 32,
            "ticks": 161,
            "time": 0.40249999999999997,
            "value": 0
          }
        ],
        "91": [
          {
            "number": 91,
            "ticks": 0,
            "time": 0,
            "value": 0
          }
        ],
        "93": [
          {
            "number": 93,
            "ticks": 0,
            "time": 0,
            "value": 0
          }
        ]
      },
      "pitchBends": [],
      "instrument": {
        "family": "piano",
        "number": 0,
        "name": "acoustic grand piano"
      },
      "name": "",
      "notes": [],
      "endOfTrackTicks": 30060
    },
    {
      "channel": 8,
      "controlChanges": {
        "7": [
          {
            "number": 7,
            "ticks": 163,
            "time": 0.40750000000000003,
            "value": 0.5039370078740157
          }
        ],
        "10": [
          {
            "number": 10,
            "ticks": 163,
            "time": 0.40750000000000003,
            "value": 0.1889763779527559
          }
        ]
      },
      "pitchBends": [],
      "instrument": {
        "family": "percussive",
        "number": 113,
        "name": "agogo"
      },
      "name": "",
      "notes": [
        {
          "duration": 0.15000000000000036,
          "durationTicks": 60,
          "midi": 72,
          "name": "C5",
          "ticks": 1440,
          "time": 3.5999999999999996,
          "velocity": 0.7874015748031497
        },
        {
          "duration": 0.1499999999999999,
          "durationTicks": 60,
          "midi": 67,
          "name": "G4",
          "ticks": 1560,
          "time": 3.9,
          "velocity": 0.49606299212598426
        },
        {
          "duration": 0.15000000000000036,
          "durationTicks": 60,
          "midi": 72,
          "name": "C5",
          "ticks": 1620,
          "time": 4.05,
          "velocity": 0.6377952755905512
        },
        {
          "duration": 0.14999999999999947,
          "durationTicks": 60,
          "midi": 72,
          "name": "C5",
          "ticks": 1680,
          "time": 4.2,
          "velocity": 0.7795275590551181
        },
        {
          "duration": 0.14999999999999947,
          "durationTicks": 60,
          "midi": 67,
          "name": "G4",
          "ticks": 1800,
          "time": 4.5,
          "velocity": 0.6062992125984252
        },
        {
          "duration": 0.15000000000000036,
          "durationTicks": 60,
          "midi": 72,
          "name": "C5",
          "ticks": 1860,
          "time": 4.6499999999999995,
          "velocity": 0.7874015748031497
        },
        {
          "duration": 0.14999999999999947,
          "durationTicks": 60,
          "midi": 67,
          "name": "G4",
          "ticks": 1980,
          "time": 4.95,
          "velocity": 0.7874015748031497
        },
        {
          "duration": 0.14999999999999947,
          "durationTicks": 60,
          "midi": 72,
          "name": "C5",
          "ticks": 2100,
          "time": 5.25,
          "velocity": 0.6456692913385826
        },
        {
          "duration": 0.15000000000000036,
          "durationTicks": 60,
          "midi": 67,
          "name": "G4",
          "ticks": 2160,
          "time": 5.3999999999999995,
          "velocity": 0.6456692913385826
        },
        {
          "duration": 0.15000000000000036,
          "durationTicks": 60,
          "midi": 72,
          "name": "C5",
          "ticks": 2220,
          "time": 5.55,
          "velocity": 0.7874015748031497
        },
        {
          "duration": 0.14999999999999947,
          "durationTicks": 60,
          "midi": 67,
          "name": "G4",
          "ticks": 2280,
          "time": 5.7,
          "velocity": 0.6535433070866141
        },
        {
          "duration": 0.14999999999999947,
          "durationTicks": 60,
          "midi": 72,
          "name": "C5",
          "ticks": 2400,
          "time": 6,
          "velocity": 0.7874015748031497
        },
        {
          "duration": 0.15000000000000036,
          "durationTicks": 60,
          "midi": 67,
          "name": "G4",
          "ticks": 2520,
          "time": 6.3,
          "velocity": 0.5039370078740157
        },
        {
          "duration": 0.14999999999999947,
          "durationTicks": 60,
          "midi": 67,
          "name": "G4",
          "ticks": 2580,
          "time": 6.45,
          "velocity": 0.6456692913385826
        },
        {
          "duration": 0.15000000000000036,
          "durationTicks": 60,
          "midi": 72,
          "name": "C5",
          "ticks": 2640,
          "time": 6.6,
          "velocity": 0.7874015748031497
        },
        {
          "duration": 0.15000000000000036,
          "durationTicks": 60,
          "midi": 67,
          "name": "G4",
          "ticks": 2760,
          "time": 6.8999999999999995,
          "velocity": 0.5905511811023622
        },
        {
          "duration": 0.14999999999999947,
          "durationTicks": 60,
          "midi": 72,
          "name": "C5",
          "ticks": 2820,
          "time": 7.05,
          "velocity": 0.7874015748031497
        },
        {
          "duration": 0.15000000000000036,
          "durationTicks": 60,
          "midi": 67,
          "name": "G4",
          "ticks": 2940,
          "time": 7.35,
          "velocity": 0.7874015748031497
        },
        {
          "duration": 0.15000000000000036,
          "durationTicks": 60,
          "midi": 67,
          "name": "G4",
          "ticks": 3060,
          "time": 7.6499999999999995,
          "velocity": 0.6220472440944882
        },
        {
          "duration": 0.14999999999999947,
          "durationTicks": 60,
          "midi": 67,
          "name": "G4",
          "ticks": 3120,
          "time": 7.8,
          "velocity": 0.6299212598425197
        },
        {
          "duration": 0.15000000000000036,
          "durationTicks": 60,
          "midi": 67,
          "name": "G4",
          "ticks": 3240,
          "time": 8.1,
          "velocity": 0.6377952755905512
        },
        {
          "duration": 0.14999999999999858,
          "durationTicks": 60,
          "midi": 67,
          "name": "G4",
          "ticks": 3360,
          "time": 8.4,
          "velocity": 0.7952755905511811
        },
        {
          "duration": 0.15000000000000036,
          "durationTicks": 60,
          "midi": 67,
          "name": "G4",
          "ticks": 3480,
          "time": 8.7,
          "velocity": 0.5039370078740157
        },
        {
          "duration": 0.15000000000000036,
          "durationTicks": 60,
          "midi": 72,
          "name": "C5",
          "ticks": 3540,
          "time": 8.85,
          "velocity": 0.6456692913385826
        },
        {
          "duration": 0.15000000000000036,
          "durationTicks": 60,
          "midi": 72,
          "name": "C5",
          "ticks": 3600,
          "time": 9,
          "velocity": 0.7874015748031497
        },
        {
          "duration": 0.15000000000000036,
          "durationTicks": 60,
          "midi": 67,
          "name": "G4",
          "ticks": 3720,
          "time": 9.299999999999999,
          "velocity": 0.6299212598425197
        },
        {
          "duration": 0.15000000000000036,
          "durationTicks": 60,
          "midi": 72,
          "name": "C5",
          "ticks": 3780,
          "time": 9.45,
          "velocity": 0.7874015748031497
        },
        {
          "duration": 0.15000000000000036,
          "durationTicks": 60,
          "midi": 67,
          "name": "G4",
          "ticks": 3900,
          "time": 9.75,
          "velocity": 0.7874015748031497
        },
        {
          "duration": 0.15000000000000036,
          "durationTicks": 60,
          "midi": 72,
          "name": "C5",
          "ticks": 4020,
          "time": 10.049999999999999,
          "velocity": 0.6299212598425197
        },
        {
          "duration": 0.15000000000000036,
          "durationTicks": 60,
          "midi": 67,
          "name": "G4",
          "ticks": 4080,
          "time": 10.2,
          "velocity": 0.6299212598425197
        },
        {
          "duration": 0.15000000000000036,
          "durationTicks": 60,
          "midi": 72,
          "name": "C5",
          "ticks": 4140,
          "time": 10.35,
          "velocity": 0.7874015748031497
        },
        {
          "duration": 0.15000000000000036,
          "durationTicks": 60,
          "midi": 67,
          "name": "G4",
          "ticks": 4200,
          "time": 10.5,
          "velocity": 0.6377952755905512
        },
        {
          "duration": 0.15000000000000036,
          "durationTicks": 60,
          "midi": 72,
          "name": "C5",
          "ticks": 4320,
          "time": 10.799999999999999,
          "velocity": 0.7874015748031497
        },
        {
          "duration": 0.15000000000000036,
          "durationTicks": 60,
          "midi": 67,
          "name": "G4",
          "ticks": 4440,
          "time": 11.1,
          "velocity": 0.5039370078740157
        },
        {
          "duration": 0.15000000000000036,
          "durationTicks": 60,
          "midi": 72,
          "name": "C5",
          "ticks": 4500,
          "time": 11.25,
          "velocity": 0.6456692913385826
        },
        {
          "duration": 0.14999999999999858,
          "durationTicks": 60,
          "midi": 72,
          "name": "C5",
          "ticks": 4560,
          "time": 11.4,
          "velocity": 0.7874015748031497
        },
        {
          "duration": 0.15000000000000036,
          "durationTicks": 60,
          "midi": 67,
          "name": "G4",
          "ticks": 4680,
          "time": 11.7,
          "velocity": 0.6220472440944882
        },
        {
          "duration": 0.15000000000000036,
          "durationTicks": 60,
          "midi": 72,
          "name": "C5",
          "ticks": 4740,
          "time": 11.85,
          "velocity": 0.7874015748031497
        },
        {
          "duration": 0.14999999999999858,
          "durationTicks": 60,
          "midi": 67,
          "name": "G4",
          "ticks": 4860,
          "time": 12.15,
          "velocity": 0.7874015748031497
        },
        {
          "duration": 0.15000000000000036,
          "durationTicks": 60,
          "midi": 67,
          "name": "G4",
          "ticks": 4980,
          "time": 12.45,
          "velocity": 0.6377952755905512
        },
        {
          "duration": 0.15000000000000036,
          "durationTicks": 60,
          "midi": 67,
          "name": "G4",
          "ticks": 5040,
          "time": 12.6,
          "velocity": 0.7874015748031497
        },
        {
          "duration": 0.14999999999999858,
          "durationTicks": 60,
          "midi": 72,
          "name": "C5",
          "ticks": 5160,
          "time": 12.9,
          "velocity": 0.7874015748031497
        },
        {
          "duration": 0.14999999999999858,
          "durationTicks": 60,
          "midi": 72,
          "name": "C5",
          "ticks": 9120,
          "time": 22.8,
          "velocity": 0.7874015748031497
        },
        {
          "duration": 0.15000000000000213,
          "durationTicks": 60,
          "midi": 72,
          "name": "C5",
          "ticks": 9240,
          "time": 23.099999999999998,
          "velocity": 0.7874015748031497
        },
        {
          "duration": 0.15000000000000213,
          "durationTicks": 60,
          "midi": 72,
          "name": "C5",
          "ticks": 9360,
          "time": 23.4,
          "velocity": 0.7874015748031497
        },
        {
          "duration": 0.14999999999999858,
          "durationTicks": 60,
          "midi": 67,
          "name": "G4",
          "ticks": 9480,
          "time": 23.7,
          "velocity": 0.5905511811023622
        },
        {
          "duration": 0.15000000000000213,
          "durationTicks": 60,
          "midi": 72,
          "name": "C5",
          "ticks": 9540,
          "time": 23.849999999999998,
          "velocity": 0.6062992125984252
        },
        {
          "duration": 0.14999999999999858,
          "durationTicks": 60,
          "midi": 67,
          "name": "G4",
          "ticks": 9600,
          "time": 24,
          "velocity": 0.7874015748031497
        },
        {
          "duration": 0.15000000000000213,
          "durationTicks": 60,
          "midi": 72,
          "name": "C5",
          "ticks": 9660,
          "time": 24.15,
          "velocity": 0.6299212598425197
        },
        {
          "duration": 0.14999999999999858,
          "durationTicks": 60,
          "midi": 67,
          "name": "G4",
          "ticks": 9720,
          "time": 24.3,
          "velocity": 0.5039370078740157
        },
        {
          "duration": 0.14999999999999858,
          "durationTicks": 60,
          "midi": 67,
          "name": "G4",
          "ticks": 9780,
          "time": 24.45,
          "velocity": 0.6456692913385826
        },
        {
          "duration": 0.15000000000000213,
          "durationTicks": 60,
          "midi": 72,
          "name": "C5",
          "ticks": 9840,
          "time": 24.599999999999998,
          "velocity": 0.7874015748031497
        },
        {
          "duration": 0.15000000000000213,
          "durationTicks": 60,
          "midi": 67,
          "name": "G4",
          "ticks": 9960,
          "time": 24.9,
          "velocity": 0.7874015748031497
        },
        {
          "duration": 0.14999999999999858,
          "durationTicks": 60,
          "midi": 72,
          "name": "C5",
          "ticks": 10080,
          "time": 25.2,
          "velocity": 0.7874015748031497
        },
        {
          "duration": 0.14999999999999858,
          "durationTicks": 60,
          "midi": 67,
          "name": "G4",
          "ticks": 10200,
          "time": 25.5,
          "velocity": 0.5039370078740157
        },
        {
          "duration": 0.15000000000000213,
          "durationTicks": 60,
          "midi": 72,
          "name": "C5",
          "ticks": 10260,
          "time": 25.65,
          "velocity": 0.6456692913385826
        },
        {
          "duration": 0.14999999999999858,
          "durationTicks": 60,
          "midi": 72,
          "name": "C5",
          "ticks": 10320,
          "time": 25.8,
          "velocity": 0.7874015748031497
        },
        {
          "duration": 0.15000000000000213,
          "durationTicks": 60,
          "midi": 67,
          "name": "G4",
          "ticks": 10440,
          "time": 26.099999999999998,
          "velocity": 0.6377952755905512
        },
        {
          "duration": 0.14999999999999858,
          "durationTicks": 60,
          "midi": 72,
          "name": "C5",
          "ticks": 10500,
          "time": 26.25,
          "velocity": 0.6377952755905512
        },
        {
          "duration": 0.15000000000000213,
          "durationTicks": 60,
          "midi": 67,
          "name": "G4",
          "ticks": 10560,
          "time": 26.4,
          "velocity": 0.7874015748031497
        },
        {
          "duration": 0.14999999999999858,
          "durationTicks": 60,
          "midi": 72,
          "name": "C5",
          "ticks": 10620,
          "time": 26.55,
          "velocity": 0.6220472440944882
        },
        {
          "duration": 0.14999999999999858,
          "durationTicks": 60,
          "midi": 67,
          "name": "G4",
          "ticks": 10680,
          "time": 26.7,
          "velocity": 0.5039370078740157
        },
        {
          "duration": 0.15000000000000213,
          "durationTicks": 60,
          "midi": 67,
          "name": "G4",
          "ticks": 10740,
          "time": 26.849999999999998,
          "velocity": 0.6456692913385826
        },
        {
          "duration": 0.14999999999999858,
          "durationTicks": 60,
          "midi": 72,
          "name": "C5",
          "ticks": 10800,
          "time": 27,
          "velocity": 0.7874015748031497
        },
        {
          "duration": 0.14999999999999858,
          "durationTicks": 60,
          "midi": 72,
          "name": "C5",
          "ticks": 11040,
          "time": 27.599999999999998,
          "velocity": 0.7874015748031497
        },
        {
          "duration": 0.14999999999999858,
          "durationTicks": 60,
          "midi": 67,
          "name": "G4",
          "ticks": 11160,
          "time": 27.9,
          "velocity": 0.49606299212598426
        },
        {
          "duration": 0.15000000000000213,
          "durationTicks": 60,
          "midi": 72,
          "name": "C5",
          "ticks": 11220,
          "time": 28.049999999999997,
          "velocity": 0.6377952755905512
        },
        {
          "duration": 0.14999999999999858,
          "durationTicks": 60,
          "midi": 72,
          "name": "C5",
          "ticks": 11280,
          "time": 28.2,
          "velocity": 0.7795275590551181
        },
        {
          "duration": 0.15000000000000213,
          "durationTicks": 60,
          "midi": 67,
          "name": "G4",
          "ticks": 11400,
          "time": 28.499999999999996,
          "velocity": 0.6062992125984252
        },
        {
          "duration": 0.14999999999999858,
          "durationTicks": 60,
          "midi": 72,
          "name": "C5",
          "ticks": 11460,
          "time": 28.65,
          "velocity": 0.7874015748031497
        },
        {
          "duration": 0.14999999999999858,
          "durationTicks": 60,
          "midi": 67,
          "name": "G4",
          "ticks": 11580,
          "time": 28.95,
          "velocity": 0.7874015748031497
        },
        {
          "duration": 0.15000000000000213,
          "durationTicks": 60,
          "midi": 72,
          "name": "C5",
          "ticks": 11700,
          "time": 29.249999999999996,
          "velocity": 0.6456692913385826
        },
        {
          "duration": 0.14999999999999858,
          "durationTicks": 60,
          "midi": 67,
          "name": "G4",
          "ticks": 11760,
          "time": 29.4,
          "velocity": 0.6456692913385826
        },
        {
          "duration": 0.15000000000000213,
          "durationTicks": 60,
          "midi": 72,
          "name": "C5",
          "ticks": 11820,
          "time": 29.549999999999997,
          "velocity": 0.7874015748031497
        },
        {
          "duration": 0.14999999999999858,
          "durationTicks": 60,
          "midi": 67,
          "name": "G4",
          "ticks": 11880,
          "time": 29.7,
          "velocity": 0.6535433070866141
        },
        {
          "duration": 0.15000000000000213,
          "durationTicks": 60,
          "midi": 72,
          "name": "C5",
          "ticks": 12000,
          "time": 29.999999999999996,
          "velocity": 0.7874015748031497
        },
        {
          "duration": 0.15000000000000213,
          "durationTicks": 60,
          "midi": 67,
          "name": "G4",
          "ticks": 12120,
          "time": 30.299999999999997,
          "velocity": 0.5039370078740157
        },
        {
          "duration": 0.14999999999999858,
          "durationTicks": 60,
          "midi": 67,
          "name": "G4",
          "ticks": 12180,
          "time": 30.45,
          "velocity": 0.6456692913385826
        },
        {
          "duration": 0.14999999999999858,
          "durationTicks": 60,
          "midi": 72,
          "name": "C5",
          "ticks": 12240,
          "time": 30.599999999999998,
          "velocity": 0.7874015748031497
        },
        {
          "duration": 0.14999999999999858,
          "durationTicks": 60,
          "midi": 67,
          "name": "G4",
          "ticks": 12360,
          "time": 30.9,
          "velocity": 0.5905511811023622
        },
        {
          "duration": 0.14999999999999858,
          "durationTicks": 60,
          "midi": 72,
          "name": "C5",
          "ticks": 12420,
          "time": 31.049999999999997,
          "velocity": 0.7874015748031497
        },
        {
          "duration": 0.14999999999999858,
          "durationTicks": 60,
          "midi": 67,
          "name": "G4",
          "ticks": 12540,
          "time": 31.349999999999998,
          "velocity": 0.7874015748031497
        },
        {
          "duration": 0.14999999999999858,
          "durationTicks": 60,
          "midi": 67,
          "name": "G4",
          "ticks": 12660,
          "time": 31.65,
          "velocity": 0.6220472440944882
        },
        {
          "duration": 0.14999999999999858,
          "durationTicks": 60,
          "midi": 67,
          "name": "G4",
          "ticks": 12720,
          "time": 31.799999999999997,
          "velocity": 0.6299212598425197
        },
        {
          "duration": 0.15000000000000568,
          "durationTicks": 60,
          "midi": 67,
          "name": "G4",
          "ticks": 12840,
          "time": 32.099999999999994,
          "velocity": 0.6377952755905512
        },
        {
          "duration": 0.14999999999999858,
          "durationTicks": 60,
          "midi": 67,
          "name": "G4",
          "ticks": 12960,
          "time": 32.4,
          "velocity": 0.7952755905511811
        },
        {
          "duration": 0.14999999999999858,
          "durationTicks": 60,
          "midi": 67,
          "name": "G4",
          "ticks": 13080,
          "time": 32.699999999999996,
          "velocity": 0.5039370078740157
        },
        {
          "duration": 0.15000000000000568,
          "durationTicks": 60,
          "midi": 72,
          "name": "C5",
          "ticks": 13140,
          "time": 32.849999999999994,
          "velocity": 0.6456692913385826
        },
        {
          "duration": 0.14999999999999858,
          "durationTicks": 60,
          "midi": 72,
          "name": "C5",
          "ticks": 13200,
          "time": 33,
          "velocity": 0.7874015748031497
        },
        {
          "duration": 0.14999999999999858,
          "durationTicks": 60,
          "midi": 67,
          "name": "G4",
          "ticks": 13320,
          "time": 33.3,
          "velocity": 0.6299212598425197
        },
        {
          "duration": 0.14999999999999858,
          "durationTicks": 60,
          "midi": 72,
          "name": "C5",
          "ticks": 13380,
          "time": 33.449999999999996,
          "velocity": 0.7874015748031497
        },
        {
          "duration": 0.14999999999999858,
          "durationTicks": 60,
          "midi": 67,
          "name": "G4",
          "ticks": 13500,
          "time": 33.75,
          "velocity": 0.7874015748031497
        },
        {
          "duration": 0.14999999999999858,
          "durationTicks": 60,
          "midi": 72,
          "name": "C5",
          "ticks": 13620,
          "time": 34.05,
          "velocity": 0.6299212598425197
        },
        {
          "duration": 0.14999999999999858,
          "durationTicks": 60,
          "midi": 67,
          "name": "G4",
          "ticks": 13680,
          "time": 34.199999999999996,
          "velocity": 0.6299212598425197
        },
        {
          "duration": 0.15000000000000568,
          "durationTicks": 60,
          "midi": 72,
          "name": "C5",
          "ticks": 13740,
          "time": 34.349999999999994,
          "velocity": 0.7874015748031497
        },
        {
          "duration": 0.14999999999999858,
          "durationTicks": 60,
          "midi": 67,
          "name": "G4",
          "ticks": 13800,
          "time": 34.5,
          "velocity": 0.6377952755905512
        },
        {
          "duration": 0.14999999999999858,
          "durationTicks": 60,
          "midi": 72,
          "name": "C5",
          "ticks": 13920,
          "time": 34.8,
          "velocity": 0.7874015748031497
        },
        {
          "duration": 0.15000000000000568,
          "durationTicks": 60,
          "midi": 67,
          "name": "G4",
          "ticks": 14040,
          "time": 35.099999999999994,
          "velocity": 0.5039370078740157
        },
        {
          "duration": 0.14999999999999858,
          "durationTicks": 60,
          "midi": 72,
          "name": "C5",
          "ticks": 14100,
          "time": 35.25,
          "velocity": 0.6456692913385826
        },
        {
          "duration": 0.14999999999999858,
          "durationTicks": 60,
          "midi": 72,
          "name": "C5",
          "ticks": 14160,
          "time": 35.4,
          "velocity": 0.7874015748031497
        },
        {
          "duration": 0.14999999999999858,
          "durationTicks": 60,
          "midi": 67,
          "name": "G4",
          "ticks": 14280,
          "time": 35.699999999999996,
          "velocity": 0.6220472440944882
        },
        {
          "duration": 0.15000000000000568,
          "durationTicks": 60,
          "midi": 72,
          "name": "C5",
          "ticks": 14340,
          "time": 35.849999999999994,
          "velocity": 0.7874015748031497
        },
        {
          "duration": 0.14999999999999858,
          "durationTicks": 60,
          "midi": 67,
          "name": "G4",
          "ticks": 14460,
          "time": 36.15,
          "velocity": 0.7874015748031497
        },
        {
          "duration": 0.14999999999999858,
          "durationTicks": 60,
          "midi": 67,
          "name": "G4",
          "ticks": 14580,
          "time": 36.449999999999996,
          "velocity": 0.6377952755905512
        },
        {
          "duration": 0.15000000000000568,
          "durationTicks": 60,
          "midi": 67,
          "name": "G4",
          "ticks": 14640,
          "time": 36.599999999999994,
          "velocity": 0.7874015748031497
        },
        {
          "duration": 0.14999999999999858,
          "durationTicks": 60,
          "midi": 72,
          "name": "C5",
          "ticks": 14760,
          "time": 36.9,
          "velocity": 0.7874015748031497
        },
        {
          "duration": 0.14999999999999858,
          "durationTicks": 60,
          "midi": 72,
          "name": "C5",
          "ticks": 18720,
          "time": 46.8,
          "velocity": 0.7874015748031497
        },
        {
          "duration": 0.15000000000000568,
          "durationTicks": 60,
          "midi": 72,
          "name": "C5",
          "ticks": 18840,
          "time": 47.099999999999994,
          "velocity": 0.7874015748031497
        },
        {
          "duration": 0.14999999999999858,
          "durationTicks": 60,
          "midi": 72,
          "name": "C5",
          "ticks": 18960,
          "time": 47.4,
          "velocity": 0.7874015748031497
        },
        {
          "duration": 0.14999999999999858,
          "durationTicks": 60,
          "midi": 67,
          "name": "G4",
          "ticks": 19080,
          "time": 47.699999999999996,
          "velocity": 0.5905511811023622
        },
        {
          "duration": 0.15000000000000568,
          "durationTicks": 60,
          "midi": 72,
          "name": "C5",
          "ticks": 19140,
          "time": 47.849999999999994,
          "velocity": 0.6062992125984252
        },
        {
          "duration": 0.14999999999999858,
          "durationTicks": 60,
          "midi": 67,
          "name": "G4",
          "ticks": 19200,
          "time": 48,
          "velocity": 0.7874015748031497
        },
        {
          "duration": 0.14999999999999858,
          "durationTicks": 60,
          "midi": 72,
          "name": "C5",
          "ticks": 19260,
          "time": 48.15,
          "velocity": 0.6299212598425197
        },
        {
          "duration": 0.14999999999999858,
          "durationTicks": 60,
          "midi": 67,
          "name": "G4",
          "ticks": 19320,
          "time": 48.3,
          "velocity": 0.5039370078740157
        },
        {
          "duration": 0.14999999999999858,
          "durationTicks": 60,
          "midi": 67,
          "name": "G4",
          "ticks": 19380,
          "time": 48.449999999999996,
          "velocity": 0.6456692913385826
        },
        {
          "duration": 0.15000000000000568,
          "durationTicks": 60,
          "midi": 72,
          "name": "C5",
          "ticks": 19440,
          "time": 48.599999999999994,
          "velocity": 0.7874015748031497
        },
        {
          "duration": 0.14999999999999858,
          "durationTicks": 60,
          "midi": 67,
          "name": "G4",
          "ticks": 19560,
          "time": 48.9,
          "velocity": 0.7874015748031497
        },
        {
          "duration": 0.14999999999999858,
          "durationTicks": 60,
          "midi": 72,
          "name": "C5",
          "ticks": 19680,
          "time": 49.199999999999996,
          "velocity": 0.7874015748031497
        },
        {
          "duration": 0.14999999999999858,
          "durationTicks": 60,
          "midi": 67,
          "name": "G4",
          "ticks": 19800,
          "time": 49.5,
          "velocity": 0.5039370078740157
        },
        {
          "duration": 0.14999999999999858,
          "durationTicks": 60,
          "midi": 72,
          "name": "C5",
          "ticks": 19860,
          "time": 49.65,
          "velocity": 0.6456692913385826
        },
        {
          "duration": 0.14999999999999858,
          "durationTicks": 60,
          "midi": 72,
          "name": "C5",
          "ticks": 19920,
          "time": 49.8,
          "velocity": 0.7874015748031497
        },
        {
          "duration": 0.15000000000000568,
          "durationTicks": 60,
          "midi": 67,
          "name": "G4",
          "ticks": 20040,
          "time": 50.099999999999994,
          "velocity": 0.6377952755905512
        },
        {
          "duration": 0.14999999999999858,
          "durationTicks": 60,
          "midi": 72,
          "name": "C5",
          "ticks": 20100,
          "time": 50.25,
          "velocity": 0.6377952755905512
        },
        {
          "duration": 0.14999999999999858,
          "durationTicks": 60,
          "midi": 67,
          "name": "G4",
          "ticks": 20160,
          "time": 50.4,
          "velocity": 0.7874015748031497
        },
        {
          "duration": 0.14999999999999858,
          "durationTicks": 60,
          "midi": 72,
          "name": "C5",
          "ticks": 20220,
          "time": 50.55,
          "velocity": 0.6220472440944882
        },
        {
          "duration": 0.14999999999999858,
          "durationTicks": 60,
          "midi": 67,
          "name": "G4",
          "ticks": 20280,
          "time": 50.699999999999996,
          "velocity": 0.5039370078740157
        },
        {
          "duration": 0.15000000000000568,
          "durationTicks": 60,
          "midi": 67,
          "name": "G4",
          "ticks": 20340,
          "time": 50.849999999999994,
          "velocity": 0.6456692913385826
        },
        {
          "duration": 0.14999999999999858,
          "durationTicks": 60,
          "midi": 72,
          "name": "C5",
          "ticks": 20400,
          "time": 51,
          "velocity": 0.7874015748031497
        },
        {
          "duration": 0.14999999999999858,
          "durationTicks": 60,
          "midi": 72,
          "name": "C5",
          "ticks": 20640,
          "time": 51.599999999999994,
          "velocity": 0.7874015748031497
        },
        {
          "duration": 0.15000000000000568,
          "durationTicks": 60,
          "midi": 67,
          "name": "G4",
          "ticks": 20760,
          "time": 51.89999999999999,
          "velocity": 0.49606299212598426
        },
        {
          "duration": 0.14999999999999858,
          "durationTicks": 60,
          "midi": 72,
          "name": "C5",
          "ticks": 20820,
          "time": 52.05,
          "velocity": 0.6377952755905512
        },
        {
          "duration": 0.14999999999999858,
          "durationTicks": 60,
          "midi": 72,
          "name": "C5",
          "ticks": 20880,
          "time": 52.199999999999996,
          "velocity": 0.7795275590551181
        },
        {
          "duration": 0.14999999999999858,
          "durationTicks": 60,
          "midi": 67,
          "name": "G4",
          "ticks": 21000,
          "time": 52.49999999999999,
          "velocity": 0.6062992125984252
        },
        {
          "duration": 0.15000000000000568,
          "durationTicks": 60,
          "midi": 72,
          "name": "C5",
          "ticks": 21060,
          "time": 52.64999999999999,
          "velocity": 0.7874015748031497
        },
        {
          "duration": 0.14999999999999858,
          "durationTicks": 60,
          "midi": 67,
          "name": "G4",
          "ticks": 21180,
          "time": 52.949999999999996,
          "velocity": 0.7874015748031497
        },
        {
          "duration": 0.14999999999999858,
          "durationTicks": 60,
          "midi": 72,
          "name": "C5",
          "ticks": 21300,
          "time": 53.24999999999999,
          "velocity": 0.6456692913385826
        },
        {
          "duration": 0.15000000000000568,
          "durationTicks": 60,
          "midi": 67,
          "name": "G4",
          "ticks": 21360,
          "time": 53.39999999999999,
          "velocity": 0.6456692913385826
        },
        {
          "duration": 0.14999999999999858,
          "durationTicks": 60,
          "midi": 72,
          "name": "C5",
          "ticks": 21420,
          "time": 53.55,
          "velocity": 0.7874015748031497
        },
        {
          "duration": 0.14999999999999858,
          "durationTicks": 60,
          "midi": 67,
          "name": "G4",
          "ticks": 21480,
          "time": 53.699999999999996,
          "velocity": 0.6535433070866141
        },
        {
          "duration": 0.14999999999999858,
          "durationTicks": 60,
          "midi": 72,
          "name": "C5",
          "ticks": 21600,
          "time": 53.99999999999999,
          "velocity": 0.7874015748031497
        },
        {
          "duration": 0.14999999999999858,
          "durationTicks": 60,
          "midi": 67,
          "name": "G4",
          "ticks": 21720,
          "time": 54.3,
          "velocity": 0.5039370078740157
        },
        {
          "duration": 0.14999999999999858,
          "durationTicks": 60,
          "midi": 67,
          "name": "G4",
          "ticks": 21780,
          "time": 54.449999999999996,
          "velocity": 0.6456692913385826
        },
        {
          "duration": 0.14999999999999858,
          "durationTicks": 60,
          "midi": 72,
          "name": "C5",
          "ticks": 21840,
          "time": 54.599999999999994,
          "velocity": 0.7874015748031497
        },
        {
          "duration": 0.15000000000000568,
          "durationTicks": 60,
          "midi": 67,
          "name": "G4",
          "ticks": 21960,
          "time": 54.89999999999999,
          "velocity": 0.5905511811023622
        },
        {
          "duration": 0.14999999999999858,
          "durationTicks": 60,
          "midi": 72,
          "name": "C5",
          "ticks": 22020,
          "time": 55.05,
          "velocity": 0.7874015748031497
        },
        {
          "duration": 0.14999999999999858,
          "durationTicks": 60,
          "midi": 67,
          "name": "G4",
          "ticks": 22140,
          "time": 55.349999999999994,
          "velocity": 0.7874015748031497
        },
        {
          "duration": 0.15000000000000568,
          "durationTicks": 60,
          "midi": 67,
          "name": "G4",
          "ticks": 22260,
          "time": 55.64999999999999,
          "velocity": 0.6220472440944882
        },
        {
          "duration": 0.14999999999999858,
          "durationTicks": 60,
          "midi": 67,
          "name": "G4",
          "ticks": 22320,
          "time": 55.8,
          "velocity": 0.6299212598425197
        },
        {
          "duration": 0.14999999999999858,
          "durationTicks": 60,
          "midi": 67,
          "name": "G4",
          "ticks": 22440,
          "time": 56.099999999999994,
          "velocity": 0.6377952755905512
        },
        {
          "duration": 0.15000000000000568,
          "durationTicks": 60,
          "midi": 67,
          "name": "G4",
          "ticks": 22560,
          "time": 56.39999999999999,
          "velocity": 0.7952755905511811
        },
        {
          "duration": 0.14999999999999858,
          "durationTicks": 60,
          "midi": 67,
          "name": "G4",
          "ticks": 22680,
          "time": 56.699999999999996,
          "velocity": 0.5039370078740157
        },
        {
          "duration": 0.14999999999999858,
          "durationTicks": 60,
          "midi": 72,
          "name": "C5",
          "ticks": 22740,
          "time": 56.849999999999994,
          "velocity": 0.6456692913385826
        },
        {
          "duration": 0.14999999999999858,
          "durationTicks": 60,
          "midi": 72,
          "name": "C5",
          "ticks": 22800,
          "time": 56.99999999999999,
          "velocity": 0.7874015748031497
        },
        {
          "duration": 0.14999999999999858,
          "durationTicks": 60,
          "midi": 67,
          "name": "G4",
          "ticks": 22920,
          "time": 57.3,
          "velocity": 0.6299212598425197
        },
        {
          "duration": 0.14999999999999858,
          "durationTicks": 60,
          "midi": 72,
          "name": "C5",
          "ticks": 22980,
          "time": 57.449999999999996,
          "velocity": 0.7874015748031497
        },
        {
          "duration": 0.14999999999999858,
          "durationTicks": 60,
          "midi": 67,
          "name": "G4",
          "ticks": 23100,
          "time": 57.74999999999999,
          "velocity": 0.7874015748031497
        },
        {
          "duration": 0.14999999999999858,
          "durationTicks": 60,
          "midi": 72,
          "name": "C5",
          "ticks": 23220,
          "time": 58.05,
          "velocity": 0.6299212598425197
        },
        {
          "duration": 0.14999999999999858,
          "durationTicks": 60,
          "midi": 67,
          "name": "G4",
          "ticks": 23280,
          "time": 58.199999999999996,
          "velocity": 0.6299212598425197
        },
        {
          "duration": 0.14999999999999858,
          "durationTicks": 60,
          "midi": 72,
          "name": "C5",
          "ticks": 23340,
          "time": 58.349999999999994,
          "velocity": 0.7874015748031497
        },
        {
          "duration": 0.14999999999999858,
          "durationTicks": 60,
          "midi": 67,
          "name": "G4",
          "ticks": 23400,
          "time": 58.49999999999999,
          "velocity": 0.6377952755905512
        },
        {
          "duration": 0.14999999999999858,
          "durationTicks": 60,
          "midi": 72,
          "name": "C5",
          "ticks": 23520,
          "time": 58.8,
          "velocity": 0.7874015748031497
        },
        {
          "duration": 0.14999999999999858,
          "durationTicks": 60,
          "midi": 67,
          "name": "G4",
          "ticks": 23640,
          "time": 59.099999999999994,
          "velocity": 0.5039370078740157
        },
        {
          "duration": 0.14999999999999858,
          "durationTicks": 60,
          "midi": 72,
          "name": "C5",
          "ticks": 23700,
          "time": 59.24999999999999,
          "velocity": 0.6456692913385826
        },
        {
          "duration": 0.15000000000000568,
          "durationTicks": 60,
          "midi": 72,
          "name": "C5",
          "ticks": 23760,
          "time": 59.39999999999999,
          "velocity": 0.7874015748031497
        },
        {
          "duration": 0.14999999999999858,
          "durationTicks": 60,
          "midi": 67,
          "name": "G4",
          "ticks": 23880,
          "time": 59.699999999999996,
          "velocity": 0.6220472440944882
        },
        {
          "duration": 0.14999999999999858,
          "durationTicks": 60,
          "midi": 72,
          "name": "C5",
          "ticks": 23940,
          "time": 59.849999999999994,
          "velocity": 0.7874015748031497
        },
        {
          "duration": 0.15000000000000568,
          "durationTicks": 60,
          "midi": 67,
          "name": "G4",
          "ticks": 24060,
          "time": 60.14999999999999,
          "velocity": 0.7874015748031497
        },
        {
          "duration": 0.14999999999999858,
          "durationTicks": 60,
          "midi": 67,
          "name": "G4",
          "ticks": 24180,
          "time": 60.449999999999996,
          "velocity": 0.6377952755905512
        },
        {
          "duration": 0.14999999999999858,
          "durationTicks": 60,
          "midi": 67,
          "name": "G4",
          "ticks": 24240,
          "time": 60.599999999999994,
          "velocity": 0.7874015748031497
        },
        {
          "duration": 0.15000000000000568,
          "durationTicks": 60,
          "midi": 72,
          "name": "C5",
          "ticks": 24360,
          "time": 60.89999999999999,
          "velocity": 0.7874015748031497
        },
        {
          "duration": 0.14999999999999147,
          "durationTicks": 60,
          "midi": 72,
          "name": "C5",
          "ticks": 28320,
          "time": 70.8,
          "velocity": 0.7874015748031497
        },
        {
          "duration": 0.15000000000000568,
          "durationTicks": 60,
          "midi": 72,
          "name": "C5",
          "ticks": 28440,
          "time": 71.1,
          "velocity": 0.7874015748031497
        },
        {
          "duration": 0.15000000000000568,
          "durationTicks": 60,
          "midi": 72,
          "name": "C5",
          "ticks": 28560,
          "time": 71.39999999999999,
          "velocity": 0.7874015748031497
        },
        {
          "duration": 0.15000000000000568,
          "durationTicks": 60,
          "midi": 67,
          "name": "G4",
          "ticks": 28680,
          "time": 71.69999999999999,
          "velocity": 0.5905511811023622
        },
        {
          "duration": 0.15000000000000568,
          "durationTicks": 60,
          "midi": 72,
          "name": "C5",
          "ticks": 28740,
          "time": 71.85,
          "velocity": 0.6062992125984252
        },
        {
          "duration": 0.14999999999999147,
          "durationTicks": 60,
          "midi": 67,
          "name": "G4",
          "ticks": 28800,
          "time": 72,
          "velocity": 0.7874015748031497
        },
        {
          "duration": 0.15000000000000568,
          "durationTicks": 60,
          "midi": 72,
          "name": "C5",
          "ticks": 28860,
          "time": 72.14999999999999,
          "velocity": 0.6299212598425197
        },
        {
          "duration": 0.14999999999999147,
          "durationTicks": 60,
          "midi": 67,
          "name": "G4",
          "ticks": 28920,
          "time": 72.3,
          "velocity": 0.5039370078740157
        },
        {
          "duration": 0.15000000000000568,
          "durationTicks": 60,
          "midi": 67,
          "name": "G4",
          "ticks": 28980,
          "time": 72.44999999999999,
          "velocity": 0.6456692913385826
        },
        {
          "duration": 0.15000000000000568,
          "durationTicks": 60,
          "midi": 72,
          "name": "C5",
          "ticks": 29040,
          "time": 72.6,
          "velocity": 0.7874015748031497
        },
        {
          "duration": 0.15000000000000568,
          "durationTicks": 60,
          "midi": 67,
          "name": "G4",
          "ticks": 29160,
          "time": 72.89999999999999,
          "velocity": 0.7874015748031497
        },
        {
          "duration": 0.15000000000000568,
          "durationTicks": 60,
          "midi": 72,
          "name": "C5",
          "ticks": 29280,
          "time": 73.19999999999999,
          "velocity": 0.7874015748031497
        },
        {
          "duration": 0.14999999999999147,
          "durationTicks": 60,
          "midi": 67,
          "name": "G4",
          "ticks": 29400,
          "time": 73.5,
          "velocity": 0.5039370078740157
        },
        {
          "duration": 0.15000000000000568,
          "durationTicks": 60,
          "midi": 72,
          "name": "C5",
          "ticks": 29460,
          "time": 73.64999999999999,
          "velocity": 0.6456692913385826
        },
        {
          "duration": 0.14999999999999147,
          "durationTicks": 60,
          "midi": 72,
          "name": "C5",
          "ticks": 29520,
          "time": 73.8,
          "velocity": 0.7874015748031497
        },
        {
          "duration": 0.15000000000000568,
          "durationTicks": 60,
          "midi": 67,
          "name": "G4",
          "ticks": 29640,
          "time": 74.1,
          "velocity": 0.6377952755905512
        },
        {
          "duration": 0.14999999999999147,
          "durationTicks": 60,
          "midi": 72,
          "name": "C5",
          "ticks": 29700,
          "time": 74.25,
          "velocity": 0.6377952755905512
        },
        {
          "duration": 0.15000000000000568,
          "durationTicks": 60,
          "midi": 67,
          "name": "G4",
          "ticks": 29760,
          "time": 74.39999999999999,
          "velocity": 0.7874015748031497
        },
        {
          "duration": 0.14999999999999147,
          "durationTicks": 60,
          "midi": 72,
          "name": "C5",
          "ticks": 29820,
          "time": 74.55,
          "velocity": 0.6220472440944882
        },
        {
          "duration": 0.15000000000000568,
          "durationTicks": 60,
          "midi": 67,
          "name": "G4",
          "ticks": 29880,
          "time": 74.69999999999999,
          "velocity": 0.5039370078740157
        },
        {
          "duration": 0.15000000000000568,
          "durationTicks": 60,
          "midi": 67,
          "name": "G4",
          "ticks": 29940,
          "time": 74.85,
          "velocity": 0.6456692913385826
        },
        {
          "duration": 0.14999999999999147,
          "durationTicks": 60,
          "midi": 72,
          "name": "C5",
          "ticks": 30000,
          "time": 75,
          "velocity": 0.7874015748031497
        }
      ]
    },
    {
      "channel": 9,
      "controlChanges": {
        "0": [
          {
            "number": 0,
            "ticks": 165,
            "time": 0.4125,
            "value": 0
          }
        ],
        "7": [
          {
            "number": 7,
            "ticks": 168,
            "time": 0.42,
            "value": 0.5669291338582677
          }
        ],
        "10": [
          {
            "number": 10,
            "ticks": 168,
            "time": 0.42,
            "value": 0.5669291338582677
          }
        ],
        "32": [
          {
            "number": 32,
            "ticks": 166,
            "time": 0.415,
            "value": 0
          }
        ],
        "91": [
          {
            "number": 91,
            "ticks": 0,
            "time": 0,
            "value": 0
          }
        ],
        "93": [
          {
            "number": 93,
            "ticks": 0,
            "time": 0,
            "value": 0
          }
        ]
      },
      "pitchBends": [],
      "instrument": {
        "family": "drums",
        "number": 0,
        "name": "standard kit"
      },
      "name": "Rhythm",
      "notes": [
        {
          "duration": 0.07500000000000018,
          "durationTicks": 30,
          "midi": 121,
          "name": "C#9",
          "ticks": 930,
          "time": 2.3249999999999997,
          "velocity": 0.9133858267716536
        },
        {
          "duration": 0.07500000000000018,
          "durationTicks": 30,
          "midi": 121,
          "name": "C#9",
          "ticks": 960,
          "time": 2.4,
          "velocity": 0.9133858267716536
        },
        {
          "duration": 0.1499999999999999,
          "durationTicks": 60,
          "midi": 42,
          "name": "F#2",
          "ticks": 960,
          "time": 2.4,
          "velocity": 0.7874015748031497
        },
        {
          "duration": 0.1499999999999999,
          "durationTicks": 60,
          "midi": 42,
          "name": "F#2",
          "ticks": 1020,
          "time": 2.55,
          "velocity": 0.7874015748031497
        },
        {
          "duration": 0.15000000000000036,
          "durationTicks": 60,
          "midi": 121,
          "name": "C#9",
          "ticks": 1080,
          "time": 2.6999999999999997,
          "velocity": 0.9133858267716536
        },
        {
          "duration": 0.15000000000000036,
          "durationTicks": 60,
          "midi": 42,
          "name": "F#2",
          "ticks": 1080,
          "time": 2.6999999999999997,
          "velocity": 0.7874015748031497
        },
        {
          "duration": 0.15000000000000036,
          "durationTicks": 60,
          "midi": 39,
          "name": "D#2",
          "ticks": 1080,
          "time": 2.6999999999999997,
          "velocity": 0.7874015748031497
        },
        {
          "duration": 0.1499999999999999,
          "durationTicks": 60,
          "midi": 42,
          "name": "F#2",
          "ticks": 1140,
          "time": 2.85,
          "velocity": 0.7874015748031497
        },
        {
          "duration": 0.1499999999999999,
          "durationTicks": 60,
          "midi": 121,
          "name": "C#9",
          "ticks": 1200,
          "time": 3,
          "velocity": 0.9133858267716536
        },
        {
          "duration": 0.1499999999999999,
          "durationTicks": 60,
          "midi": 42,
          "name": "F#2",
          "ticks": 1200,
          "time": 3,
          "velocity": 0.7874015748031497
        },
        {
          "duration": 0.1499999999999999,
          "durationTicks": 60,
          "midi": 121,
          "name": "C#9",
          "ticks": 1260,
          "time": 3.15,
          "velocity": 0.9133858267716536
        },
        {
          "duration": 0.1499999999999999,
          "durationTicks": 60,
          "midi": 46,
          "name": "A#2",
          "ticks": 1260,
          "time": 3.15,
          "velocity": 0.7874015748031497
        },
        {
          "duration": 0.1499999999999999,
          "durationTicks": 60,
          "midi": 39,
          "name": "D#2",
          "ticks": 1260,
          "time": 3.15,
          "velocity": 0.7874015748031497
        },
        {
          "duration": 0.1499999999999999,
          "durationTicks": 60,
          "midi": 121,
          "name": "C#9",
          "ticks": 1320,
          "time": 3.3,
          "velocity": 0.9133858267716536
        },
        {
          "duration": 0.1499999999999999,
          "durationTicks": 60,
          "midi": 42,
          "name": "F#2",
          "ticks": 1320,
          "time": 3.3,
          "velocity": 0.7874015748031497
        },
        {
          "duration": 0.1499999999999999,
          "durationTicks": 60,
          "midi": 39,
          "name": "D#2",
          "ticks": 1320,
          "time": 3.3,
          "velocity": 0.7874015748031497
        },
        {
          "duration": 0.1499999999999999,
          "durationTicks": 60,
          "midi": 121,
          "name": "C#9",
          "ticks": 1380,
          "time": 3.4499999999999997,
          "velocity": 0.9133858267716536
        },
        {
          "duration": 0.1499999999999999,
          "durationTicks": 60,
          "midi": 42,
          "name": "F#2",
          "ticks": 1380,
          "time": 3.4499999999999997,
          "velocity": 0.7874015748031497
        },
        {
          "duration": 0.15000000000000036,
          "durationTicks": 60,
          "midi": 42,
          "name": "F#2",
          "ticks": 1440,
          "time": 3.5999999999999996,
          "velocity": 0.7874015748031497
        },
        {
          "duration": 0.15000000000000036,
          "durationTicks": 60,
          "midi": 36,
          "name": "C2",
          "ticks": 1440,
          "time": 3.5999999999999996,
          "velocity": 0.7874015748031497
        },
        {
          "duration": 0.15000000000000036,
          "durationTicks": 60,
          "midi": 82,
          "name": "A#5",
          "ticks": 1440,
          "time": 3.5999999999999996,
          "velocity": 1
        },
        {
          "duration": 0.1499999999999999,
          "durationTicks": 60,
          "midi": 42,
          "name": "F#2",
          "ticks": 1500,
          "time": 3.75,
          "velocity": 0.7874015748031497
        },
        {
          "duration": 0.1499999999999999,
          "durationTicks": 60,
          "midi": 82,
          "name": "A#5",
          "ticks": 1500,
          "time": 3.75,
          "velocity": 0.5039370078740157
        },
        {
          "duration": 0.1499999999999999,
          "durationTicks": 60,
          "midi": 121,
          "name": "C#9",
          "ticks": 1560,
          "time": 3.9,
          "velocity": 0.9133858267716536
        },
        {
          "duration": 0.1499999999999999,
          "durationTicks": 60,
          "midi": 42,
          "name": "F#2",
          "ticks": 1560,
          "time": 3.9,
          "velocity": 0.7874015748031497
        },
        {
          "duration": 0.1499999999999999,
          "durationTicks": 60,
          "midi": 82,
          "name": "A#5",
          "ticks": 1560,
          "time": 3.9,
          "velocity": 1
        },
        {
          "duration": 0.15000000000000036,
          "durationTicks": 60,
          "midi": 42,
          "name": "F#2",
          "ticks": 1620,
          "time": 4.05,
          "velocity": 0.7874015748031497
        },
        {
          "duration": 0.15000000000000036,
          "durationTicks": 60,
          "midi": 36,
          "name": "C2",
          "ticks": 1620,
          "time": 4.05,
          "velocity": 0.7874015748031497
        },
        {
          "duration": 0.15000000000000036,
          "durationTicks": 60,
          "midi": 82,
          "name": "A#5",
          "ticks": 1620,
          "time": 4.05,
          "velocity": 0.5039370078740157
        },
        {
          "duration": 0.14999999999999947,
          "durationTicks": 60,
          "midi": 42,
          "name": "F#2",
          "ticks": 1680,
          "time": 4.2,
          "velocity": 0.7874015748031497
        },
        {
          "duration": 0.14999999999999947,
          "durationTicks": 60,
          "midi": 36,
          "name": "C2",
          "ticks": 1680,
          "time": 4.2,
          "velocity": 0.7874015748031497
        },
        {
          "duration": 0.14999999999999947,
          "durationTicks": 60,
          "midi": 82,
          "name": "A#5",
          "ticks": 1680,
          "time": 4.2,
          "velocity": 0.5039370078740157
        },
        {
          "duration": 0.15000000000000036,
          "durationTicks": 60,
          "midi": 42,
          "name": "F#2",
          "ticks": 1740,
          "time": 4.35,
          "velocity": 0.7874015748031497
        },
        {
          "duration": 0.15000000000000036,
          "durationTicks": 60,
          "midi": 82,
          "name": "A#5",
          "ticks": 1740,
          "time": 4.35,
          "velocity": 0.5039370078740157
        },
        {
          "duration": 0.14999999999999947,
          "durationTicks": 60,
          "midi": 121,
          "name": "C#9",
          "ticks": 1800,
          "time": 4.5,
          "velocity": 0.9133858267716536
        },
        {
          "duration": 0.14999999999999947,
          "durationTicks": 60,
          "midi": 42,
          "name": "F#2",
          "ticks": 1800,
          "time": 4.5,
          "velocity": 0.7874015748031497
        },
        {
          "duration": 0.14999999999999947,
          "durationTicks": 60,
          "midi": 82,
          "name": "A#5",
          "ticks": 1800,
          "time": 4.5,
          "velocity": 0.5039370078740157
        },
        {
          "duration": 0.15000000000000036,
          "durationTicks": 60,
          "midi": 42,
          "name": "F#2",
          "ticks": 1860,
          "time": 4.6499999999999995,
          "velocity": 0.7874015748031497
        },
        {
          "duration": 0.15000000000000036,
          "durationTicks": 60,
          "midi": 82,
          "name": "A#5",
          "ticks": 1860,
          "time": 4.6499999999999995,
          "velocity": 1
        },
        {
          "duration": 0.15000000000000036,
          "durationTicks": 60,
          "midi": 42,
          "name": "F#2",
          "ticks": 1920,
          "time": 4.8,
          "velocity": 0.7874015748031497
        },
        {
          "duration": 0.15000000000000036,
          "durationTicks": 60,
          "midi": 36,
          "name": "C2",
          "ticks": 1920,
          "time": 4.8,
          "velocity": 0.7874015748031497
        },
        {
          "duration": 0.15000000000000036,
          "durationTicks": 60,
          "midi": 82,
          "name": "A#5",
          "ticks": 1920,
          "time": 4.8,
          "velocity": 0.5039370078740157
        },
        {
          "duration": 0.14999999999999947,
          "durationTicks": 60,
          "midi": 42,
          "name": "F#2",
          "ticks": 1980,
          "time": 4.95,
          "velocity": 0.7874015748031497
        },
        {
          "duration": 0.14999999999999947,
          "durationTicks": 60,
          "midi": 82,
          "name": "A#5",
          "ticks": 1980,
          "time": 4.95,
          "velocity": 0.5039370078740157
        },
        {
          "duration": 0.15000000000000036,
          "durationTicks": 60,
          "midi": 121,
          "name": "C#9",
          "ticks": 2040,
          "time": 5.1,
          "velocity": 0.9133858267716536
        },
        {
          "duration": 0.15000000000000036,
          "durationTicks": 60,
          "midi": 42,
          "name": "F#2",
          "ticks": 2040,
          "time": 5.1,
          "velocity": 0.7874015748031497
        },
        {
          "duration": 0.15000000000000036,
          "durationTicks": 60,
          "midi": 82,
          "name": "A#5",
          "ticks": 2040,
          "time": 5.1,
          "velocity": 0.5039370078740157
        },
        {
          "duration": 0.14999999999999947,
          "durationTicks": 60,
          "midi": 42,
          "name": "F#2",
          "ticks": 2100,
          "time": 5.25,
          "velocity": 0.7874015748031497
        },
        {
          "duration": 0.14999999999999947,
          "durationTicks": 60,
          "midi": 36,
          "name": "C2",
          "ticks": 2100,
          "time": 5.25,
          "velocity": 0.7874015748031497
        },
        {
          "duration": 0.14999999999999947,
          "durationTicks": 60,
          "midi": 82,
          "name": "A#5",
          "ticks": 2100,
          "time": 5.25,
          "velocity": 1
        },
        {
          "duration": 0.15000000000000036,
          "durationTicks": 60,
          "midi": 42,
          "name": "F#2",
          "ticks": 2160,
          "time": 5.3999999999999995,
          "velocity": 0.7874015748031497
        },
        {
          "duration": 0.15000000000000036,
          "durationTicks": 60,
          "midi": 36,
          "name": "C2",
          "ticks": 2160,
          "time": 5.3999999999999995,
          "velocity": 0.7874015748031497
        },
        {
          "duration": 0.15000000000000036,
          "durationTicks": 60,
          "midi": 82,
          "name": "A#5",
          "ticks": 2160,
          "time": 5.3999999999999995,
          "velocity": 0.5039370078740157
        },
        {
          "duration": 0.15000000000000036,
          "durationTicks": 60,
          "midi": 42,
          "name": "F#2",
          "ticks": 2220,
          "time": 5.55,
          "velocity": 0.7874015748031497
        },
        {
          "duration": 0.15000000000000036,
          "durationTicks": 60,
          "midi": 82,
          "name": "A#5",
          "ticks": 2220,
          "time": 5.55,
          "velocity": 0.5039370078740157
        },
        {
          "duration": 0.14999999999999947,
          "durationTicks": 60,
          "midi": 121,
          "name": "C#9",
          "ticks": 2280,
          "time": 5.7,
          "velocity": 0.9133858267716536
        },
        {
          "duration": 0.14999999999999947,
          "durationTicks": 60,
          "midi": 42,
          "name": "F#2",
          "ticks": 2280,
          "time": 5.7,
          "velocity": 0.7874015748031497
        },
        {
          "duration": 0.14999999999999947,
          "durationTicks": 60,
          "midi": 82,
          "name": "A#5",
          "ticks": 2280,
          "time": 5.7,
          "velocity": 0.5039370078740157
        },
        {
          "duration": 0.15000000000000036,
          "durationTicks": 60,
          "midi": 42,
          "name": "F#2",
          "ticks": 2340,
          "time": 5.85,
          "velocity": 0.7874015748031497
        },
        {
          "duration": 0.15000000000000036,
          "durationTicks": 60,
          "midi": 82,
          "name": "A#5",
          "ticks": 2340,
          "time": 5.85,
          "velocity": 1
        },
        {
          "duration": 0.14999999999999947,
          "durationTicks": 60,
          "midi": 42,
          "name": "F#2",
          "ticks": 2400,
          "time": 6,
          "velocity": 0.7874015748031497
        },
        {
          "duration": 0.14999999999999947,
          "durationTicks": 60,
          "midi": 36,
          "name": "C2",
          "ticks": 2400,
          "time": 6,
          "velocity": 0.7874015748031497
        },
        {
          "duration": 0.14999999999999947,
          "durationTicks": 60,
          "midi": 82,
          "name": "A#5",
          "ticks": 2400,
          "time": 6,
          "velocity": 1
        },
        {
          "duration": 0.15000000000000036,
          "durationTicks": 60,
          "midi": 42,
          "name": "F#2",
          "ticks": 2460,
          "time": 6.1499999999999995,
          "velocity": 0.7874015748031497
        },
        {
          "duration": 0.15000000000000036,
          "durationTicks": 60,
          "midi": 82,
          "name": "A#5",
          "ticks": 2460,
          "time": 6.1499999999999995,
          "velocity": 0.5039370078740157
        },
        {
          "duration": 0.15000000000000036,
          "durationTicks": 60,
          "midi": 121,
          "name": "C#9",
          "ticks": 2520,
          "time": 6.3,
          "velocity": 0.9133858267716536
        },
        {
          "duration": 0.15000000000000036,
          "durationTicks": 60,
          "midi": 42,
          "name": "F#2",
          "ticks": 2520,
          "time": 6.3,
          "velocity": 0.7874015748031497
        },
        {
          "duration": 0.15000000000000036,
          "durationTicks": 60,
          "midi": 82,
          "name": "A#5",
          "ticks": 2520,
          "time": 6.3,
          "velocity": 1
        },
        {
          "duration": 0.14999999999999947,
          "durationTicks": 60,
          "midi": 42,
          "name": "F#2",
          "ticks": 2580,
          "time": 6.45,
          "velocity": 0.7874015748031497
        },
        {
          "duration": 0.14999999999999947,
          "durationTicks": 60,
          "midi": 36,
          "name": "C2",
          "ticks": 2580,
          "time": 6.45,
          "velocity": 0.7874015748031497
        },
        {
          "duration": 0.14999999999999947,
          "durationTicks": 60,
          "midi": 82,
          "name": "A#5",
          "ticks": 2580,
          "time": 6.45,
          "velocity": 0.5039370078740157
        },
        {
          "duration": 0.15000000000000036,
          "durationTicks": 60,
          "midi": 42,
          "name": "F#2",
          "ticks": 2640,
          "time": 6.6,
          "velocity": 0.7874015748031497
        },
        {
          "duration": 0.15000000000000036,
          "durationTicks": 60,
          "midi": 36,
          "name": "C2",
          "ticks": 2640,
          "time": 6.6,
          "velocity": 0.7874015748031497
        },
        {
          "duration": 0.15000000000000036,
          "durationTicks": 60,
          "midi": 82,
          "name": "A#5",
          "ticks": 2640,
          "time": 6.6,
          "velocity": 0.5039370078740157
        },
        {
          "duration": 0.14999999999999947,
          "durationTicks": 60,
          "midi": 42,
          "name": "F#2",
          "ticks": 2700,
          "time": 6.75,
          "velocity": 0.7874015748031497
        },
        {
          "duration": 0.14999999999999947,
          "durationTicks": 60,
          "midi": 82,
          "name": "A#5",
          "ticks": 2700,
          "time": 6.75,
          "velocity": 0.5039370078740157
        },
        {
          "duration": 0.15000000000000036,
          "durationTicks": 60,
          "midi": 121,
          "name": "C#9",
          "ticks": 2760,
          "time": 6.8999999999999995,
          "velocity": 0.9133858267716536
        },
        {
          "duration": 0.15000000000000036,
          "durationTicks": 60,
          "midi": 42,
          "name": "F#2",
          "ticks": 2760,
          "time": 6.8999999999999995,
          "velocity": 0.7874015748031497
        },
        {
          "duration": 0.15000000000000036,
          "durationTicks": 60,
          "midi": 82,
          "name": "A#5",
          "ticks": 2760,
          "time": 6.8999999999999995,
          "velocity": 0.5039370078740157
        },
        {
          "duration": 0.14999999999999947,
          "durationTicks": 60,
          "midi": 42,
          "name": "F#2",
          "ticks": 2820,
          "time": 7.05,
          "velocity": 0.7874015748031497
        },
        {
          "duration": 0.14999999999999947,
          "durationTicks": 60,
          "midi": 36,
          "name": "C2",
          "ticks": 2820,
          "time": 7.05,
          "velocity": 0.7874015748031497
        },
        {
          "duration": 0.14999999999999947,
          "durationTicks": 60,
          "midi": 82,
          "name": "A#5",
          "ticks": 2820,
          "time": 7.05,
          "velocity": 1
        },
        {
          "duration": 0.15000000000000036,
          "durationTicks": 60,
          "midi": 42,
          "name": "F#2",
          "ticks": 2880,
          "time": 7.199999999999999,
          "velocity": 0.7874015748031497
        },
        {
          "duration": 0.15000000000000036,
          "durationTicks": 60,
          "midi": 36,
          "name": "C2",
          "ticks": 2880,
          "time": 7.199999999999999,
          "velocity": 0.7874015748031497
        },
        {
          "duration": 0.15000000000000036,
          "durationTicks": 60,
          "midi": 82,
          "name": "A#5",
          "ticks": 2880,
          "time": 7.199999999999999,
          "velocity": 0.5039370078740157
        },
        {
          "duration": 0.15000000000000036,
          "durationTicks": 60,
          "midi": 42,
          "name": "F#2",
          "ticks": 2940,
          "time": 7.35,
          "velocity": 0.7874015748031497
        },
        {
          "duration": 0.15000000000000036,
          "durationTicks": 60,
          "midi": 82,
          "name": "A#5",
          "ticks": 2940,
          "time": 7.35,
          "velocity": 0.5039370078740157
        },
        {
          "duration": 0.14999999999999947,
          "durationTicks": 60,
          "midi": 121,
          "name": "C#9",
          "ticks": 3000,
          "time": 7.5,
          "velocity": 0.9133858267716536
        },
        {
          "duration": 0.14999999999999947,
          "durationTicks": 60,
          "midi": 42,
          "name": "F#2",
          "ticks": 3000,
          "time": 7.5,
          "velocity": 0.7874015748031497
        },
        {
          "duration": 0.14999999999999947,
          "durationTicks": 60,
          "midi": 82,
          "name": "A#5",
          "ticks": 3000,
          "time": 7.5,
          "velocity": 0.5039370078740157
        },
        {
          "duration": 0.15000000000000036,
          "durationTicks": 60,
          "midi": 42,
          "name": "F#2",
          "ticks": 3060,
          "time": 7.6499999999999995,
          "velocity": 0.7874015748031497
        },
        {
          "duration": 0.15000000000000036,
          "durationTicks": 60,
          "midi": 36,
          "name": "C2",
          "ticks": 3060,
          "time": 7.6499999999999995,
          "velocity": 0.7874015748031497
        },
        {
          "duration": 0.15000000000000036,
          "durationTicks": 60,
          "midi": 82,
          "name": "A#5",
          "ticks": 3060,
          "time": 7.6499999999999995,
          "velocity": 1
        },
        {
          "duration": 0.14999999999999947,
          "durationTicks": 60,
          "midi": 42,
          "name": "F#2",
          "ticks": 3120,
          "time": 7.8,
          "velocity": 0.7874015748031497
        },
        {
          "duration": 0.14999999999999947,
          "durationTicks": 60,
          "midi": 36,
          "name": "C2",
          "ticks": 3120,
          "time": 7.8,
          "velocity": 0.7874015748031497
        },
        {
          "duration": 0.14999999999999947,
          "durationTicks": 60,
          "midi": 82,
          "name": "A#5",
          "ticks": 3120,
          "time": 7.8,
          "velocity": 0.5039370078740157
        },
        {
          "duration": 0.15000000000000036,
          "durationTicks": 60,
          "midi": 42,
          "name": "F#2",
          "ticks": 3180,
          "time": 7.949999999999999,
          "velocity": 0.7874015748031497
        },
        {
          "duration": 0.15000000000000036,
          "durationTicks": 60,
          "midi": 82,
          "name": "A#5",
          "ticks": 3180,
          "time": 7.949999999999999,
          "velocity": 0.5039370078740157
        },
        {
          "duration": 0.15000000000000036,
          "durationTicks": 60,
          "midi": 121,
          "name": "C#9",
          "ticks": 3240,
          "time": 8.1,
          "velocity": 0.9133858267716536
        },
        {
          "duration": 0.15000000000000036,
          "durationTicks": 60,
          "midi": 42,
          "name": "F#2",
          "ticks": 3240,
          "time": 8.1,
          "velocity": 0.7874015748031497
        },
        {
          "duration": 0.15000000000000036,
          "durationTicks": 60,
          "midi": 82,
          "name": "A#5",
          "ticks": 3240,
          "time": 8.1,
          "velocity": 1
        },
        {
          "duration": 0.15000000000000036,
          "durationTicks": 60,
          "midi": 42,
          "name": "F#2",
          "ticks": 3300,
          "time": 8.25,
          "velocity": 0.7874015748031497
        },
        {
          "duration": 0.15000000000000036,
          "durationTicks": 60,
          "midi": 82,
          "name": "A#5",
          "ticks": 3300,
          "time": 8.25,
          "velocity": 0.5039370078740157
        },
        {
          "duration": 0.14999999999999858,
          "durationTicks": 60,
          "midi": 42,
          "name": "F#2",
          "ticks": 3360,
          "time": 8.4,
          "velocity": 0.7874015748031497
        },
        {
          "duration": 0.14999999999999858,
          "durationTicks": 60,
          "midi": 36,
          "name": "C2",
          "ticks": 3360,
          "time": 8.4,
          "velocity": 0.7874015748031497
        },
        {
          "duration": 0.14999999999999858,
          "durationTicks": 60,
          "midi": 82,
          "name": "A#5",
          "ticks": 3360,
          "time": 8.4,
          "velocity": 1
        },
        {
          "duration": 0.15000000000000036,
          "durationTicks": 60,
          "midi": 42,
          "name": "F#2",
          "ticks": 3420,
          "time": 8.549999999999999,
          "velocity": 0.7874015748031497
        },
        {
          "duration": 0.15000000000000036,
          "durationTicks": 60,
          "midi": 82,
          "name": "A#5",
          "ticks": 3420,
          "time": 8.549999999999999,
          "velocity": 0.5039370078740157
        },
        {
          "duration": 0.15000000000000036,
          "durationTicks": 60,
          "midi": 121,
          "name": "C#9",
          "ticks": 3480,
          "time": 8.7,
          "velocity": 0.9133858267716536
        },
        {
          "duration": 0.15000000000000036,
          "durationTicks": 60,
          "midi": 42,
          "name": "F#2",
          "ticks": 3480,
          "time": 8.7,
          "velocity": 0.7874015748031497
        },
        {
          "duration": 0.15000000000000036,
          "durationTicks": 60,
          "midi": 82,
          "name": "A#5",
          "ticks": 3480,
          "time": 8.7,
          "velocity": 1
        },
        {
          "duration": 0.15000000000000036,
          "durationTicks": 60,
          "midi": 42,
          "name": "F#2",
          "ticks": 3540,
          "time": 8.85,
          "velocity": 0.7874015748031497
        },
        {
          "duration": 0.15000000000000036,
          "durationTicks": 60,
          "midi": 36,
          "name": "C2",
          "ticks": 3540,
          "time": 8.85,
          "velocity": 0.7874015748031497
        },
        {
          "duration": 0.15000000000000036,
          "durationTicks": 60,
          "midi": 82,
          "name": "A#5",
          "ticks": 3540,
          "time": 8.85,
          "velocity": 0.5039370078740157
        },
        {
          "duration": 0.15000000000000036,
          "durationTicks": 60,
          "midi": 42,
          "name": "F#2",
          "ticks": 3600,
          "time": 9,
          "velocity": 0.7874015748031497
        },
        {
          "duration": 0.15000000000000036,
          "durationTicks": 60,
          "midi": 36,
          "name": "C2",
          "ticks": 3600,
          "time": 9,
          "velocity": 0.7874015748031497
        },
        {
          "duration": 0.15000000000000036,
          "durationTicks": 60,
          "midi": 82,
          "name": "A#5",
          "ticks": 3600,
          "time": 9,
          "velocity": 0.5039370078740157
        },
        {
          "duration": 0.14999999999999858,
          "durationTicks": 60,
          "midi": 46,
          "name": "A#2",
          "ticks": 3660,
          "time": 9.15,
          "velocity": 0.7874015748031497
        },
        {
          "duration": 0.14999999999999858,
          "durationTicks": 60,
          "midi": 82,
          "name": "A#5",
          "ticks": 3660,
          "time": 9.15,
          "velocity": 0.5039370078740157
        },
        {
          "duration": 0.15000000000000036,
          "durationTicks": 60,
          "midi": 121,
          "name": "C#9",
          "ticks": 3720,
          "time": 9.299999999999999,
          "velocity": 0.9133858267716536
        },
        {
          "duration": 0.15000000000000036,
          "durationTicks": 60,
          "midi": 42,
          "name": "F#2",
          "ticks": 3720,
          "time": 9.299999999999999,
          "velocity": 0.7874015748031497
        },
        {
          "duration": 0.15000000000000036,
          "durationTicks": 60,
          "midi": 82,
          "name": "A#5",
          "ticks": 3720,
          "time": 9.299999999999999,
          "velocity": 0.5039370078740157
        },
        {
          "duration": 0.15000000000000036,
          "durationTicks": 60,
          "midi": 42,
          "name": "F#2",
          "ticks": 3780,
          "time": 9.45,
          "velocity": 0.7874015748031497
        },
        {
          "duration": 0.15000000000000036,
          "durationTicks": 60,
          "midi": 82,
          "name": "A#5",
          "ticks": 3780,
          "time": 9.45,
          "velocity": 1
        },
        {
          "duration": 0.15000000000000036,
          "durationTicks": 60,
          "midi": 42,
          "name": "F#2",
          "ticks": 3840,
          "time": 9.6,
          "velocity": 0.7874015748031497
        },
        {
          "duration": 0.15000000000000036,
          "durationTicks": 60,
          "midi": 36,
          "name": "C2",
          "ticks": 3840,
          "time": 9.6,
          "velocity": 0.7874015748031497
        },
        {
          "duration": 0.15000000000000036,
          "durationTicks": 60,
          "midi": 82,
          "name": "A#5",
          "ticks": 3840,
          "time": 9.6,
          "velocity": 0.5039370078740157
        },
        {
          "duration": 0.15000000000000036,
          "durationTicks": 60,
          "midi": 42,
          "name": "F#2",
          "ticks": 3900,
          "time": 9.75,
          "velocity": 0.7874015748031497
        },
        {
          "duration": 0.15000000000000036,
          "durationTicks": 60,
          "midi": 82,
          "name": "A#5",
          "ticks": 3900,
          "time": 9.75,
          "velocity": 0.5039370078740157
        },
        {
          "duration": 0.14999999999999858,
          "durationTicks": 60,
          "midi": 121,
          "name": "C#9",
          "ticks": 3960,
          "time": 9.9,
          "velocity": 0.9133858267716536
        },
        {
          "duration": 0.14999999999999858,
          "durationTicks": 60,
          "midi": 42,
          "name": "F#2",
          "ticks": 3960,
          "time": 9.9,
          "velocity": 0.7874015748031497
        },
        {
          "duration": 0.14999999999999858,
          "durationTicks": 60,
          "midi": 82,
          "name": "A#5",
          "ticks": 3960,
          "time": 9.9,
          "velocity": 0.5039370078740157
        },
        {
          "duration": 0.15000000000000036,
          "durationTicks": 60,
          "midi": 42,
          "name": "F#2",
          "ticks": 4020,
          "time": 10.049999999999999,
          "velocity": 0.7874015748031497
        },
        {
          "duration": 0.15000000000000036,
          "durationTicks": 60,
          "midi": 36,
          "name": "C2",
          "ticks": 4020,
          "time": 10.049999999999999,
          "velocity": 0.7874015748031497
        },
        {
          "duration": 0.15000000000000036,
          "durationTicks": 60,
          "midi": 82,
          "name": "A#5",
          "ticks": 4020,
          "time": 10.049999999999999,
          "velocity": 1
        },
        {
          "duration": 0.15000000000000036,
          "durationTicks": 60,
          "midi": 42,
          "name": "F#2",
          "ticks": 4080,
          "time": 10.2,
          "velocity": 0.7874015748031497
        },
        {
          "duration": 0.15000000000000036,
          "durationTicks": 60,
          "midi": 36,
          "name": "C2",
          "ticks": 4080,
          "time": 10.2,
          "velocity": 0.7874015748031497
        },
        {
          "duration": 0.15000000000000036,
          "durationTicks": 60,
          "midi": 82,
          "name": "A#5",
          "ticks": 4080,
          "time": 10.2,
          "velocity": 0.5039370078740157
        },
        {
          "duration": 0.15000000000000036,
          "durationTicks": 60,
          "midi": 46,
          "name": "A#2",
          "ticks": 4140,
          "time": 10.35,
          "velocity": 0.7874015748031497
        },
        {
          "duration": 0.15000000000000036,
          "durationTicks": 60,
          "midi": 82,
          "name": "A#5",
          "ticks": 4140,
          "time": 10.35,
          "velocity": 0.5039370078740157
        },
        {
          "duration": 0.15000000000000036,
          "durationTicks": 60,
          "midi": 121,
          "name": "C#9",
          "ticks": 4200,
          "time": 10.5,
          "velocity": 0.9133858267716536
        },
        {
          "duration": 0.15000000000000036,
          "durationTicks": 60,
          "midi": 42,
          "name": "F#2",
          "ticks": 4200,
          "time": 10.5,
          "velocity": 0.7874015748031497
        },
        {
          "duration": 0.15000000000000036,
          "durationTicks": 60,
          "midi": 82,
          "name": "A#5",
          "ticks": 4200,
          "time": 10.5,
          "velocity": 0.5039370078740157
        },
        {
          "duration": 0.14999999999999858,
          "durationTicks": 60,
          "midi": 42,
          "name": "F#2",
          "ticks": 4260,
          "time": 10.65,
          "velocity": 0.7874015748031497
        },
        {
          "duration": 0.14999999999999858,
          "durationTicks": 60,
          "midi": 82,
          "name": "A#5",
          "ticks": 4260,
          "time": 10.65,
          "velocity": 1
        },
        {
          "duration": 0.15000000000000036,
          "durationTicks": 60,
          "midi": 42,
          "name": "F#2",
          "ticks": 4320,
          "time": 10.799999999999999,
          "velocity": 0.7874015748031497
        },
        {
          "duration": 0.15000000000000036,
          "durationTicks": 60,
          "midi": 36,
          "name": "C2",
          "ticks": 4320,
          "time": 10.799999999999999,
          "velocity": 0.7874015748031497
        },
        {
          "duration": 0.15000000000000036,
          "durationTicks": 60,
          "midi": 82,
          "name": "A#5",
          "ticks": 4320,
          "time": 10.799999999999999,
          "velocity": 1
        },
        {
          "duration": 0.15000000000000036,
          "durationTicks": 60,
          "midi": 42,
          "name": "F#2",
          "ticks": 4380,
          "time": 10.95,
          "velocity": 0.7874015748031497
        },
        {
          "duration": 0.15000000000000036,
          "durationTicks": 60,
          "midi": 82,
          "name": "A#5",
          "ticks": 4380,
          "time": 10.95,
          "velocity": 0.5039370078740157
        },
        {
          "duration": 0.15000000000000036,
          "durationTicks": 60,
          "midi": 121,
          "name": "C#9",
          "ticks": 4440,
          "time": 11.1,
          "velocity": 0.9133858267716536
        },
        {
          "duration": 0.15000000000000036,
          "durationTicks": 60,
          "midi": 42,
          "name": "F#2",
          "ticks": 4440,
          "time": 11.1,
          "velocity": 0.7874015748031497
        },
        {
          "duration": 0.15000000000000036,
          "durationTicks": 60,
          "midi": 82,
          "name": "A#5",
          "ticks": 4440,
          "time": 11.1,
          "velocity": 1
        },
        {
          "duration": 0.15000000000000036,
          "durationTicks": 60,
          "midi": 42,
          "name": "F#2",
          "ticks": 4500,
          "time": 11.25,
          "velocity": 0.7874015748031497
        },
        {
          "duration": 0.15000000000000036,
          "durationTicks": 60,
          "midi": 36,
          "name": "C2",
          "ticks": 4500,
          "time": 11.25,
          "velocity": 0.7874015748031497
        },
        {
          "duration": 0.15000000000000036,
          "durationTicks": 60,
          "midi": 82,
          "name": "A#5",
          "ticks": 4500,
          "time": 11.25,
          "velocity": 0.5039370078740157
        },
        {
          "duration": 0.14999999999999858,
          "durationTicks": 60,
          "midi": 42,
          "name": "F#2",
          "ticks": 4560,
          "time": 11.4,
          "velocity": 0.7874015748031497
        },
        {
          "duration": 0.14999999999999858,
          "durationTicks": 60,
          "midi": 36,
          "name": "C2",
          "ticks": 4560,
          "time": 11.4,
          "velocity": 0.7874015748031497
        },
        {
          "duration": 0.14999999999999858,
          "durationTicks": 60,
          "midi": 82,
          "name": "A#5",
          "ticks": 4560,
          "time": 11.4,
          "velocity": 0.5039370078740157
        },
        {
          "duration": 0.15000000000000036,
          "durationTicks": 60,
          "midi": 46,
          "name": "A#2",
          "ticks": 4620,
          "time": 11.549999999999999,
          "velocity": 0.7874015748031497
        },
        {
          "duration": 0.15000000000000036,
          "durationTicks": 60,
          "midi": 82,
          "name": "A#5",
          "ticks": 4620,
          "time": 11.549999999999999,
          "velocity": 0.5039370078740157
        },
        {
          "duration": 0.15000000000000036,
          "durationTicks": 60,
          "midi": 121,
          "name": "C#9",
          "ticks": 4680,
          "time": 11.7,
          "velocity": 0.9133858267716536
        },
        {
          "duration": 0.15000000000000036,
          "durationTicks": 60,
          "midi": 42,
          "name": "F#2",
          "ticks": 4680,
          "time": 11.7,
          "velocity": 0.7874015748031497
        },
        {
          "duration": 0.15000000000000036,
          "durationTicks": 60,
          "midi": 82,
          "name": "A#5",
          "ticks": 4680,
          "time": 11.7,
          "velocity": 0.5039370078740157
        },
        {
          "duration": 0.15000000000000036,
          "durationTicks": 60,
          "midi": 42,
          "name": "F#2",
          "ticks": 4740,
          "time": 11.85,
          "velocity": 0.7874015748031497
        },
        {
          "duration": 0.15000000000000036,
          "durationTicks": 60,
          "midi": 36,
          "name": "C2",
          "ticks": 4740,
          "time": 11.85,
          "velocity": 0.7874015748031497
        },
        {
          "duration": 0.15000000000000036,
          "durationTicks": 60,
          "midi": 82,
          "name": "A#5",
          "ticks": 4740,
          "time": 11.85,
          "velocity": 1
        },
        {
          "duration": 0.15000000000000036,
          "durationTicks": 60,
          "midi": 42,
          "name": "F#2",
          "ticks": 4800,
          "time": 12,
          "velocity": 0.7874015748031497
        },
        {
          "duration": 0.15000000000000036,
          "durationTicks": 60,
          "midi": 36,
          "name": "C2",
          "ticks": 4800,
          "time": 12,
          "velocity": 0.7874015748031497
        },
        {
          "duration": 0.15000000000000036,
          "durationTicks": 60,
          "midi": 82,
          "name": "A#5",
          "ticks": 4800,
          "time": 12,
          "velocity": 0.5039370078740157
        },
        {
          "duration": 0.14999999999999858,
          "durationTicks": 60,
          "midi": 46,
          "name": "A#2",
          "ticks": 4860,
          "time": 12.15,
          "velocity": 0.7874015748031497
        },
        {
          "duration": 0.14999999999999858,
          "durationTicks": 60,
          "midi": 82,
          "name": "A#5",
          "ticks": 4860,
          "time": 12.15,
          "velocity": 0.5039370078740157
        },
        {
          "duration": 0.15000000000000036,
          "durationTicks": 60,
          "midi": 121,
          "name": "C#9",
          "ticks": 4920,
          "time": 12.299999999999999,
          "velocity": 0.9133858267716536
        },
        {
          "duration": 0.15000000000000036,
          "durationTicks": 60,
          "midi": 42,
          "name": "F#2",
          "ticks": 4920,
          "time": 12.299999999999999,
          "velocity": 0.7874015748031497
        },
        {
          "duration": 0.15000000000000036,
          "durationTicks": 60,
          "midi": 82,
          "name": "A#5",
          "ticks": 4920,
          "time": 12.299999999999999,
          "velocity": 0.5039370078740157
        },
        {
          "duration": 0.15000000000000036,
          "durationTicks": 60,
          "midi": 42,
          "name": "F#2",
          "ticks": 4980,
          "time": 12.45,
          "velocity": 0.7874015748031497
        },
        {
          "duration": 0.15000000000000036,
          "durationTicks": 60,
          "midi": 36,
          "name": "C2",
          "ticks": 4980,
          "time": 12.45,
          "velocity": 0.7874015748031497
        },
        {
          "duration": 0.15000000000000036,
          "durationTicks": 60,
          "midi": 82,
          "name": "A#5",
          "ticks": 4980,
          "time": 12.45,
          "velocity": 1
        },
        {
          "duration": 0.15000000000000036,
          "durationTicks": 60,
          "midi": 42,
          "name": "F#2",
          "ticks": 5040,
          "time": 12.6,
          "velocity": 0.7874015748031497
        },
        {
          "duration": 0.15000000000000036,
          "durationTicks": 60,
          "midi": 36,
          "name": "C2",
          "ticks": 5040,
          "time": 12.6,
          "velocity": 0.7874015748031497
        },
        {
          "duration": 0.15000000000000036,
          "durationTicks": 60,
          "midi": 82,
          "name": "A#5",
          "ticks": 5040,
          "time": 12.6,
          "velocity": 0.5039370078740157
        },
        {
          "duration": 0.15000000000000036,
          "durationTicks": 60,
          "midi": 121,
          "name": "C#9",
          "ticks": 5100,
          "time": 12.75,
          "velocity": 0.9133858267716536
        },
        {
          "duration": 0.15000000000000036,
          "durationTicks": 60,
          "midi": 42,
          "name": "F#2",
          "ticks": 5100,
          "time": 12.75,
          "velocity": 0.7874015748031497
        },
        {
          "duration": 0.15000000000000036,
          "durationTicks": 60,
          "midi": 82,
          "name": "A#5",
          "ticks": 5100,
          "time": 12.75,
          "velocity": 0.5039370078740157
        },
        {
          "duration": 0.14999999999999858,
          "durationTicks": 60,
          "midi": 121,
          "name": "C#9",
          "ticks": 5160,
          "time": 12.9,
          "velocity": 0.9133858267716536
        },
        {
          "duration": 0.14999999999999858,
          "durationTicks": 60,
          "midi": 42,
          "name": "F#2",
          "ticks": 5160,
          "time": 12.9,
          "velocity": 0.7874015748031497
        },
        {
          "duration": 0.14999999999999858,
          "durationTicks": 60,
          "midi": 82,
          "name": "A#5",
          "ticks": 5160,
          "time": 12.9,
          "velocity": 1
        },
        {
          "duration": 0.15000000000000036,
          "durationTicks": 60,
          "midi": 121,
          "name": "C#9",
          "ticks": 5220,
          "time": 13.049999999999999,
          "velocity": 0.9133858267716536
        },
        {
          "duration": 0.15000000000000036,
          "durationTicks": 60,
          "midi": 42,
          "name": "F#2",
          "ticks": 5220,
          "time": 13.049999999999999,
          "velocity": 0.7874015748031497
        },
        {
          "duration": 0.15000000000000036,
          "durationTicks": 60,
          "midi": 82,
          "name": "A#5",
          "ticks": 5220,
          "time": 13.049999999999999,
          "velocity": 0.5039370078740157
        },
        {
          "duration": 0.15000000000000036,
          "durationTicks": 60,
          "midi": 49,
          "name": "C#3",
          "ticks": 5280,
          "time": 13.2,
          "velocity": 0.7874015748031497
        },
        {
          "duration": 0.15000000000000036,
          "durationTicks": 60,
          "midi": 36,
          "name": "C2",
          "ticks": 5280,
          "time": 13.2,
          "velocity": 0.7874015748031497
        },
        {
          "duration": 0.15000000000000036,
          "durationTicks": 60,
          "midi": 82,
          "name": "A#5",
          "ticks": 5280,
          "time": 13.2,
          "velocity": 1
        },
        {
          "duration": 0.15000000000000036,
          "durationTicks": 60,
          "midi": 82,
          "name": "A#5",
          "ticks": 5340,
          "time": 13.35,
          "velocity": 0.5039370078740157
        },
        {
          "duration": 0.15000000000000036,
          "durationTicks": 60,
          "midi": 121,
          "name": "C#9",
          "ticks": 5400,
          "time": 13.5,
          "velocity": 0.9133858267716536
        },
        {
          "duration": 0.15000000000000036,
          "durationTicks": 60,
          "midi": 42,
          "name": "F#2",
          "ticks": 5400,
          "time": 13.5,
          "velocity": 0.7874015748031497
        },
        {
          "duration": 0.15000000000000036,
          "durationTicks": 60,
          "midi": 82,
          "name": "A#5",
          "ticks": 5400,
          "time": 13.5,
          "velocity": 1
        },
        {
          "duration": 0.14999999999999858,
          "durationTicks": 60,
          "midi": 36,
          "name": "C2",
          "ticks": 5460,
          "time": 13.65,
          "velocity": 0.7874015748031497
        },
        {
          "duration": 0.14999999999999858,
          "durationTicks": 60,
          "midi": 82,
          "name": "A#5",
          "ticks": 5460,
          "time": 13.65,
          "velocity": 0.5039370078740157
        },
        {
          "duration": 0.15000000000000036,
          "durationTicks": 60,
          "midi": 42,
          "name": "F#2",
          "ticks": 5520,
          "time": 13.799999999999999,
          "velocity": 0.7874015748031497
        },
        {
          "duration": 0.15000000000000036,
          "durationTicks": 60,
          "midi": 36,
          "name": "C2",
          "ticks": 5520,
          "time": 13.799999999999999,
          "velocity": 0.7874015748031497
        },
        {
          "duration": 0.15000000000000036,
          "durationTicks": 60,
          "midi": 82,
          "name": "A#5",
          "ticks": 5520,
          "time": 13.799999999999999,
          "velocity": 1
        },
        {
          "duration": 0.15000000000000036,
          "durationTicks": 60,
          "midi": 82,
          "name": "A#5",
          "ticks": 5580,
          "time": 13.95,
          "velocity": 0.5039370078740157
        },
        {
          "duration": 0.15000000000000036,
          "durationTicks": 60,
          "midi": 121,
          "name": "C#9",
          "ticks": 5640,
          "time": 14.1,
          "velocity": 0.9133858267716536
        },
        {
          "duration": 0.15000000000000036,
          "durationTicks": 60,
          "midi": 42,
          "name": "F#2",
          "ticks": 5640,
          "time": 14.1,
          "velocity": 0.7874015748031497
        },
        {
          "duration": 0.15000000000000036,
          "durationTicks": 60,
          "midi": 82,
          "name": "A#5",
          "ticks": 5640,
          "time": 14.1,
          "velocity": 1
        },
        {
          "duration": 0.15000000000000036,
          "durationTicks": 60,
          "midi": 39,
          "name": "D#2",
          "ticks": 5640,
          "time": 14.1,
          "velocity": 0.7874015748031497
        },
        {
          "duration": 0.14999999999999858,
          "durationTicks": 60,
          "midi": 82,
          "name": "A#5",
          "ticks": 5700,
          "time": 14.25,
          "velocity": 0.5039370078740157
        },
        {
          "duration": 0.15000000000000036,
          "durationTicks": 60,
          "midi": 42,
          "name": "F#2",
          "ticks": 5760,
          "time": 14.399999999999999,
          "velocity": 0.7874015748031497
        },
        {
          "duration": 0.15000000000000036,
          "durationTicks": 60,
          "midi": 36,
          "name": "C2",
          "ticks": 5760,
          "time": 14.399999999999999,
          "velocity": 0.7874015748031497
        },
        {
          "duration": 0.15000000000000036,
          "durationTicks": 60,
          "midi": 82,
          "name": "A#5",
          "ticks": 5760,
          "time": 14.399999999999999,
          "velocity": 0.5039370078740157
        },
        {
          "duration": 0.15000000000000036,
          "durationTicks": 60,
          "midi": 42,
          "name": "F#2",
          "ticks": 5820,
          "time": 14.549999999999999,
          "velocity": 0.7874015748031497
        },
        {
          "duration": 0.15000000000000036,
          "durationTicks": 60,
          "midi": 82,
          "name": "A#5",
          "ticks": 5820,
          "time": 14.549999999999999,
          "velocity": 0.5039370078740157
        },
        {
          "duration": 0.15000000000000036,
          "durationTicks": 60,
          "midi": 121,
          "name": "C#9",
          "ticks": 5880,
          "time": 14.7,
          "velocity": 0.9133858267716536
        },
        {
          "duration": 0.15000000000000036,
          "durationTicks": 60,
          "midi": 42,
          "name": "F#2",
          "ticks": 5880,
          "time": 14.7,
          "velocity": 0.7874015748031497
        },
        {
          "duration": 0.15000000000000036,
          "durationTicks": 60,
          "midi": 82,
          "name": "A#5",
          "ticks": 5880,
          "time": 14.7,
          "velocity": 0.5039370078740157
        },
        {
          "duration": 0.15000000000000036,
          "durationTicks": 60,
          "midi": 36,
          "name": "C2",
          "ticks": 5940,
          "time": 14.85,
          "velocity": 0.7874015748031497
        },
        {
          "duration": 0.15000000000000036,
          "durationTicks": 60,
          "midi": 82,
          "name": "A#5",
          "ticks": 5940,
          "time": 14.85,
          "velocity": 0.5039370078740157
        },
        {
          "duration": 0.14999999999999858,
          "durationTicks": 60,
          "midi": 42,
          "name": "F#2",
          "ticks": 6000,
          "time": 15,
          "velocity": 0.7874015748031497
        },
        {
          "duration": 0.14999999999999858,
          "durationTicks": 60,
          "midi": 36,
          "name": "C2",
          "ticks": 6000,
          "time": 15,
          "velocity": 0.7874015748031497
        },
        {
          "duration": 0.14999999999999858,
          "durationTicks": 60,
          "midi": 82,
          "name": "A#5",
          "ticks": 6000,
          "time": 15,
          "velocity": 1
        },
        {
          "duration": 0.15000000000000036,
          "durationTicks": 60,
          "midi": 42,
          "name": "F#2",
          "ticks": 6060,
          "time": 15.149999999999999,
          "velocity": 0.7874015748031497
        },
        {
          "duration": 0.15000000000000036,
          "durationTicks": 60,
          "midi": 82,
          "name": "A#5",
          "ticks": 6060,
          "time": 15.149999999999999,
          "velocity": 0.5039370078740157
        },
        {
          "duration": 0.15000000000000036,
          "durationTicks": 60,
          "midi": 121,
          "name": "C#9",
          "ticks": 6120,
          "time": 15.299999999999999,
          "velocity": 0.9133858267716536
        },
        {
          "duration": 0.15000000000000036,
          "durationTicks": 60,
          "midi": 42,
          "name": "F#2",
          "ticks": 6120,
          "time": 15.299999999999999,
          "velocity": 0.7874015748031497
        },
        {
          "duration": 0.15000000000000036,
          "durationTicks": 60,
          "midi": 82,
          "name": "A#5",
          "ticks": 6120,
          "time": 15.299999999999999,
          "velocity": 1
        },
        {
          "duration": 0.15000000000000036,
          "durationTicks": 60,
          "midi": 39,
          "name": "D#2",
          "ticks": 6120,
          "time": 15.299999999999999,
          "velocity": 0.7874015748031497
        },
        {
          "duration": 0.15000000000000036,
          "durationTicks": 60,
          "midi": 82,
          "name": "A#5",
          "ticks": 6180,
          "time": 15.45,
          "velocity": 0.5039370078740157
        },
        {
          "duration": 0.15000000000000036,
          "durationTicks": 60,
          "midi": 42,
          "name": "F#2",
          "ticks": 6240,
          "time": 15.6,
          "velocity": 0.7874015748031497
        },
        {
          "duration": 0.15000000000000036,
          "durationTicks": 60,
          "midi": 36,
          "name": "C2",
          "ticks": 6240,
          "time": 15.6,
          "velocity": 0.7874015748031497
        },
        {
          "duration": 0.15000000000000036,
          "durationTicks": 60,
          "midi": 82,
          "name": "A#5",
          "ticks": 6240,
          "time": 15.6,
          "velocity": 1
        },
        {
          "duration": 0.14999999999999858,
          "durationTicks": 60,
          "midi": 42,
          "name": "F#2",
          "ticks": 6300,
          "time": 15.75,
          "velocity": 0.7874015748031497
        },
        {
          "duration": 0.14999999999999858,
          "durationTicks": 60,
          "midi": 82,
          "name": "A#5",
          "ticks": 6300,
          "time": 15.75,
          "velocity": 0.5039370078740157
        },
        {
          "duration": 0.15000000000000213,
          "durationTicks": 60,
          "midi": 121,
          "name": "C#9",
          "ticks": 6360,
          "time": 15.899999999999999,
          "velocity": 0.9133858267716536
        },
        {
          "duration": 0.15000000000000213,
          "durationTicks": 60,
          "midi": 42,
          "name": "F#2",
          "ticks": 6360,
          "time": 15.899999999999999,
          "velocity": 0.7874015748031497
        },
        {
          "duration": 0.15000000000000213,
          "durationTicks": 60,
          "midi": 82,
          "name": "A#5",
          "ticks": 6360,
          "time": 15.899999999999999,
          "velocity": 1
        },
        {
          "duration": 0.15000000000000213,
          "durationTicks": 60,
          "midi": 39,
          "name": "D#2",
          "ticks": 6360,
          "time": 15.899999999999999,
          "velocity": 0.7874015748031497
        },
        {
          "duration": 0.14999999999999858,
          "durationTicks": 60,
          "midi": 36,
          "name": "C2",
          "ticks": 6420,
          "time": 16.05,
          "velocity": 0.7874015748031497
        },
        {
          "duration": 0.14999999999999858,
          "durationTicks": 60,
          "midi": 82,
          "name": "A#5",
          "ticks": 6420,
          "time": 16.05,
          "velocity": 0.5039370078740157
        },
        {
          "duration": 0.14999999999999858,
          "durationTicks": 60,
          "midi": 42,
          "name": "F#2",
          "ticks": 6480,
          "time": 16.2,
          "velocity": 0.7874015748031497
        },
        {
          "duration": 0.14999999999999858,
          "durationTicks": 60,
          "midi": 36,
          "name": "C2",
          "ticks": 6480,
          "time": 16.2,
          "velocity": 0.7874015748031497
        },
        {
          "duration": 0.14999999999999858,
          "durationTicks": 60,
          "midi": 82,
          "name": "A#5",
          "ticks": 6480,
          "time": 16.2,
          "velocity": 0.5039370078740157
        },
        {
          "duration": 0.15000000000000213,
          "durationTicks": 60,
          "midi": 42,
          "name": "F#2",
          "ticks": 6540,
          "time": 16.349999999999998,
          "velocity": 0.7874015748031497
        },
        {
          "duration": 0.15000000000000213,
          "durationTicks": 60,
          "midi": 82,
          "name": "A#5",
          "ticks": 6540,
          "time": 16.349999999999998,
          "velocity": 1
        },
        {
          "duration": 0.14999999999999858,
          "durationTicks": 60,
          "midi": 121,
          "name": "C#9",
          "ticks": 6600,
          "time": 16.5,
          "velocity": 0.9133858267716536
        },
        {
          "duration": 0.14999999999999858,
          "durationTicks": 60,
          "midi": 42,
          "name": "F#2",
          "ticks": 6600,
          "time": 16.5,
          "velocity": 0.7874015748031497
        },
        {
          "duration": 0.14999999999999858,
          "durationTicks": 60,
          "midi": 82,
          "name": "A#5",
          "ticks": 6600,
          "time": 16.5,
          "velocity": 1
        },
        {
          "duration": 0.14999999999999858,
          "durationTicks": 60,
          "midi": 39,
          "name": "D#2",
          "ticks": 6600,
          "time": 16.5,
          "velocity": 0.7874015748031497
        },
        {
          "duration": 0.15000000000000213,
          "durationTicks": 60,
          "midi": 36,
          "name": "C2",
          "ticks": 6660,
          "time": 16.65,
          "velocity": 0.7874015748031497
        },
        {
          "duration": 0.15000000000000213,
          "durationTicks": 60,
          "midi": 82,
          "name": "A#5",
          "ticks": 6660,
          "time": 16.65,
          "velocity": 0.5039370078740157
        },
        {
          "duration": 0.14999999999999858,
          "durationTicks": 60,
          "midi": 42,
          "name": "F#2",
          "ticks": 6720,
          "time": 16.8,
          "velocity": 0.7874015748031497
        },
        {
          "duration": 0.14999999999999858,
          "durationTicks": 60,
          "midi": 36,
          "name": "C2",
          "ticks": 6720,
          "time": 16.8,
          "velocity": 0.7874015748031497
        },
        {
          "duration": 0.14999999999999858,
          "durationTicks": 60,
          "midi": 82,
          "name": "A#5",
          "ticks": 6720,
          "time": 16.8,
          "velocity": 0.5039370078740157
        },
        {
          "duration": 0.14999999999999858,
          "durationTicks": 60,
          "midi": 42,
          "name": "F#2",
          "ticks": 6780,
          "time": 16.95,
          "velocity": 0.7874015748031497
        },
        {
          "duration": 0.14999999999999858,
          "durationTicks": 60,
          "midi": 82,
          "name": "A#5",
          "ticks": 6780,
          "time": 16.95,
          "velocity": 0.5039370078740157
        },
        {
          "duration": 0.15000000000000213,
          "durationTicks": 60,
          "midi": 121,
          "name": "C#9",
          "ticks": 6840,
          "time": 17.099999999999998,
          "velocity": 0.9133858267716536
        },
        {
          "duration": 0.15000000000000213,
          "durationTicks": 60,
          "midi": 42,
          "name": "F#2",
          "ticks": 6840,
          "time": 17.099999999999998,
          "velocity": 0.7874015748031497
        },
        {
          "duration": 0.15000000000000213,
          "durationTicks": 60,
          "midi": 82,
          "name": "A#5",
          "ticks": 6840,
          "time": 17.099999999999998,
          "velocity": 0.5039370078740157
        },
        {
          "duration": 0.15000000000000213,
          "durationTicks": 60,
          "midi": 39,
          "name": "D#2",
          "ticks": 6840,
          "time": 17.099999999999998,
          "velocity": 0.7874015748031497
        },
        {
          "duration": 0.14999999999999858,
          "durationTicks": 60,
          "midi": 36,
          "name": "C2",
          "ticks": 6900,
          "time": 17.25,
          "velocity": 0.7874015748031497
        },
        {
          "duration": 0.14999999999999858,
          "durationTicks": 60,
          "midi": 82,
          "name": "A#5",
          "ticks": 6900,
          "time": 17.25,
          "velocity": 0.5039370078740157
        },
        {
          "duration": 0.15000000000000213,
          "durationTicks": 60,
          "midi": 42,
          "name": "F#2",
          "ticks": 6960,
          "time": 17.4,
          "velocity": 0.7874015748031497
        },
        {
          "duration": 0.15000000000000213,
          "durationTicks": 60,
          "midi": 36,
          "name": "C2",
          "ticks": 6960,
          "time": 17.4,
          "velocity": 0.7874015748031497
        },
        {
          "duration": 0.15000000000000213,
          "durationTicks": 60,
          "midi": 82,
          "name": "A#5",
          "ticks": 6960,
          "time": 17.4,
          "velocity": 1
        },
        {
          "duration": 0.14999999999999858,
          "durationTicks": 60,
          "midi": 42,
          "name": "F#2",
          "ticks": 7020,
          "time": 17.55,
          "velocity": 0.7874015748031497
        },
        {
          "duration": 0.14999999999999858,
          "durationTicks": 60,
          "midi": 82,
          "name": "A#5",
          "ticks": 7020,
          "time": 17.55,
          "velocity": 1
        },
        {
          "duration": 0.14999999999999858,
          "durationTicks": 60,
          "midi": 121,
          "name": "C#9",
          "ticks": 7080,
          "time": 17.7,
          "velocity": 0.9133858267716536
        },
        {
          "duration": 0.14999999999999858,
          "durationTicks": 60,
          "midi": 42,
          "name": "F#2",
          "ticks": 7080,
          "time": 17.7,
          "velocity": 0.7874015748031497
        },
        {
          "duration": 0.14999999999999858,
          "durationTicks": 60,
          "midi": 82,
          "name": "A#5",
          "ticks": 7080,
          "time": 17.7,
          "velocity": 1
        },
        {
          "duration": 0.14999999999999858,
          "durationTicks": 60,
          "midi": 39,
          "name": "D#2",
          "ticks": 7080,
          "time": 17.7,
          "velocity": 0.7874015748031497
        },
        {
          "duration": 0.15000000000000213,
          "durationTicks": 60,
          "midi": 82,
          "name": "A#5",
          "ticks": 7140,
          "time": 17.849999999999998,
          "velocity": 0.5039370078740157
        },
        {
          "duration": 0.14999999999999858,
          "durationTicks": 60,
          "midi": 49,
          "name": "C#3",
          "ticks": 7200,
          "time": 18,
          "velocity": 0.7874015748031497
        },
        {
          "duration": 0.14999999999999858,
          "durationTicks": 60,
          "midi": 36,
          "name": "C2",
          "ticks": 7200,
          "time": 18,
          "velocity": 0.7874015748031497
        },
        {
          "duration": 0.14999999999999858,
          "durationTicks": 60,
          "midi": 82,
          "name": "A#5",
          "ticks": 7200,
          "time": 18,
          "velocity": 1
        },
        {
          "duration": 0.15000000000000213,
          "durationTicks": 60,
          "midi": 82,
          "name": "A#5",
          "ticks": 7260,
          "time": 18.15,
          "velocity": 0.5039370078740157
        },
        {
          "duration": 0.14999999999999858,
          "durationTicks": 60,
          "midi": 121,
          "name": "C#9",
          "ticks": 7320,
          "time": 18.3,
          "velocity": 0.9133858267716536
        },
        {
          "duration": 0.14999999999999858,
          "durationTicks": 60,
          "midi": 42,
          "name": "F#2",
          "ticks": 7320,
          "time": 18.3,
          "velocity": 0.7874015748031497
        },
        {
          "duration": 0.14999999999999858,
          "durationTicks": 60,
          "midi": 82,
          "name": "A#5",
          "ticks": 7320,
          "time": 18.3,
          "velocity": 1
        },
        {
          "duration": 0.14999999999999858,
          "durationTicks": 60,
          "midi": 36,
          "name": "C2",
          "ticks": 7380,
          "time": 18.45,
          "velocity": 0.7874015748031497
        },
        {
          "duration": 0.14999999999999858,
          "durationTicks": 60,
          "midi": 82,
          "name": "A#5",
          "ticks": 7380,
          "time": 18.45,
          "velocity": 0.5039370078740157
        },
        {
          "duration": 0.15000000000000213,
          "durationTicks": 60,
          "midi": 42,
          "name": "F#2",
          "ticks": 7440,
          "time": 18.599999999999998,
          "velocity": 0.7874015748031497
        },
        {
          "duration": 0.15000000000000213,
          "durationTicks": 60,
          "midi": 36,
          "name": "C2",
          "ticks": 7440,
          "time": 18.599999999999998,
          "velocity": 0.7874015748031497
        },
        {
          "duration": 0.15000000000000213,
          "durationTicks": 60,
          "midi": 82,
          "name": "A#5",
          "ticks": 7440,
          "time": 18.599999999999998,
          "velocity": 1
        },
        {
          "duration": 0.14999999999999858,
          "durationTicks": 60,
          "midi": 82,
          "name": "A#5",
          "ticks": 7500,
          "time": 18.75,
          "velocity": 0.5039370078740157
        },
        {
          "duration": 0.15000000000000213,
          "durationTicks": 60,
          "midi": 121,
          "name": "C#9",
          "ticks": 7560,
          "time": 18.9,
          "velocity": 0.9133858267716536
        },
        {
          "duration": 0.15000000000000213,
          "durationTicks": 60,
          "midi": 42,
          "name": "F#2",
          "ticks": 7560,
          "time": 18.9,
          "velocity": 0.7874015748031497
        },
        {
          "duration": 0.15000000000000213,
          "durationTicks": 60,
          "midi": 82,
          "name": "A#5",
          "ticks": 7560,
          "time": 18.9,
          "velocity": 1
        },
        {
          "duration": 0.15000000000000213,
          "durationTicks": 60,
          "midi": 39,
          "name": "D#2",
          "ticks": 7560,
          "time": 18.9,
          "velocity": 0.7874015748031497
        },
        {
          "duration": 0.14999999999999858,
          "durationTicks": 60,
          "midi": 82,
          "name": "A#5",
          "ticks": 7620,
          "time": 19.05,
          "velocity": 0.5039370078740157
        },
        {
          "duration": 0.14999999999999858,
          "durationTicks": 60,
          "midi": 42,
          "name": "F#2",
          "ticks": 7680,
          "time": 19.2,
          "velocity": 0.7874015748031497
        },
        {
          "duration": 0.14999999999999858,
          "durationTicks": 60,
          "midi": 36,
          "name": "C2",
          "ticks": 7680,
          "time": 19.2,
          "velocity": 0.7874015748031497
        },
        {
          "duration": 0.14999999999999858,
          "durationTicks": 60,
          "midi": 82,
          "name": "A#5",
          "ticks": 7680,
          "time": 19.2,
          "velocity": 0.5039370078740157
        },
        {
          "duration": 0.15000000000000213,
          "durationTicks": 60,
          "midi": 42,
          "name": "F#2",
          "ticks": 7740,
          "time": 19.349999999999998,
          "velocity": 0.7874015748031497
        },
        {
          "duration": 0.15000000000000213,
          "durationTicks": 60,
          "midi": 82,
          "name": "A#5",
          "ticks": 7740,
          "time": 19.349999999999998,
          "velocity": 0.5039370078740157
        },
        {
          "duration": 0.14999999999999858,
          "durationTicks": 60,
          "midi": 121,
          "name": "C#9",
          "ticks": 7800,
          "time": 19.5,
          "velocity": 0.9133858267716536
        },
        {
          "duration": 0.14999999999999858,
          "durationTicks": 60,
          "midi": 42,
          "name": "F#2",
          "ticks": 7800,
          "time": 19.5,
          "velocity": 0.7874015748031497
        },
        {
          "duration": 0.14999999999999858,
          "durationTicks": 60,
          "midi": 82,
          "name": "A#5",
          "ticks": 7800,
          "time": 19.5,
          "velocity": 0.5039370078740157
        },
        {
          "duration": 0.15000000000000213,
          "durationTicks": 60,
          "midi": 36,
          "name": "C2",
          "ticks": 7860,
          "time": 19.65,
          "velocity": 0.7874015748031497
        },
        {
          "duration": 0.15000000000000213,
          "durationTicks": 60,
          "midi": 82,
          "name": "A#5",
          "ticks": 7860,
          "time": 19.65,
          "velocity": 0.5039370078740157
        },
        {
          "duration": 0.14999999999999858,
          "durationTicks": 60,
          "midi": 42,
          "name": "F#2",
          "ticks": 7920,
          "time": 19.8,
          "velocity": 0.7874015748031497
        },
        {
          "duration": 0.14999999999999858,
          "durationTicks": 60,
          "midi": 36,
          "name": "C2",
          "ticks": 7920,
          "time": 19.8,
          "velocity": 0.7874015748031497
        },
        {
          "duration": 0.14999999999999858,
          "durationTicks": 60,
          "midi": 82,
          "name": "A#5",
          "ticks": 7920,
          "time": 19.8,
          "velocity": 1
        },
        {
          "duration": 0.14999999999999858,
          "durationTicks": 60,
          "midi": 42,
          "name": "F#2",
          "ticks": 7980,
          "time": 19.95,
          "velocity": 0.7874015748031497
        },
        {
          "duration": 0.14999999999999858,
          "durationTicks": 60,
          "midi": 82,
          "name": "A#5",
          "ticks": 7980,
          "time": 19.95,
          "velocity": 0.5039370078740157
        },
        {
          "duration": 0.15000000000000213,
          "durationTicks": 60,
          "midi": 121,
          "name": "C#9",
          "ticks": 8040,
          "time": 20.099999999999998,
          "velocity": 0.9133858267716536
        },
        {
          "duration": 0.15000000000000213,
          "durationTicks": 60,
          "midi": 42,
          "name": "F#2",
          "ticks": 8040,
          "time": 20.099999999999998,
          "velocity": 0.7874015748031497
        },
        {
          "duration": 0.15000000000000213,
          "durationTicks": 60,
          "midi": 82,
          "name": "A#5",
          "ticks": 8040,
          "time": 20.099999999999998,
          "velocity": 1
        },
        {
          "duration": 0.14999999999999858,
          "durationTicks": 60,
          "midi": 39,
          "name": "D#2",
          "ticks": 8070,
          "time": 20.175,
          "velocity": 0.7874015748031497
        },
        {
          "duration": 0.14999999999999858,
          "durationTicks": 60,
          "midi": 82,
          "name": "A#5",
          "ticks": 8100,
          "time": 20.25,
          "velocity": 0.5039370078740157
        },
        {
          "duration": 0.15000000000000213,
          "durationTicks": 60,
          "midi": 42,
          "name": "F#2",
          "ticks": 8160,
          "time": 20.4,
          "velocity": 0.7874015748031497
        },
        {
          "duration": 0.15000000000000213,
          "durationTicks": 60,
          "midi": 36,
          "name": "C2",
          "ticks": 8160,
          "time": 20.4,
          "velocity": 0.7874015748031497
        },
        {
          "duration": 0.15000000000000213,
          "durationTicks": 60,
          "midi": 82,
          "name": "A#5",
          "ticks": 8160,
          "time": 20.4,
          "velocity": 1
        },
        {
          "duration": 0.14999999999999858,
          "durationTicks": 60,
          "midi": 42,
          "name": "F#2",
          "ticks": 8220,
          "time": 20.55,
          "velocity": 0.7874015748031497
        },
        {
          "duration": 0.14999999999999858,
          "durationTicks": 60,
          "midi": 82,
          "name": "A#5",
          "ticks": 8220,
          "time": 20.55,
          "velocity": 0.5039370078740157
        },
        {
          "duration": 0.14999999999999858,
          "durationTicks": 60,
          "midi": 121,
          "name": "C#9",
          "ticks": 8280,
          "time": 20.7,
          "velocity": 0.9133858267716536
        },
        {
          "duration": 0.14999999999999858,
          "durationTicks": 60,
          "midi": 42,
          "name": "F#2",
          "ticks": 8280,
          "time": 20.7,
          "velocity": 0.7874015748031497
        },
        {
          "duration": 0.14999999999999858,
          "durationTicks": 60,
          "midi": 82,
          "name": "A#5",
          "ticks": 8280,
          "time": 20.7,
          "velocity": 1
        },
        {
          "duration": 0.14999999999999858,
          "durationTicks": 60,
          "midi": 39,
          "name": "D#2",
          "ticks": 8280,
          "time": 20.7,
          "velocity": 0.7874015748031497
        },
        {
          "duration": 0.15000000000000213,
          "durationTicks": 60,
          "midi": 36,
          "name": "C2",
          "ticks": 8340,
          "time": 20.849999999999998,
          "velocity": 0.7874015748031497
        },
        {
          "duration": 0.15000000000000213,
          "durationTicks": 60,
          "midi": 82,
          "name": "A#5",
          "ticks": 8340,
          "time": 20.849999999999998,
          "velocity": 0.5039370078740157
        },
        {
          "duration": 0.14999999999999858,
          "durationTicks": 60,
          "midi": 42,
          "name": "F#2",
          "ticks": 8400,
          "time": 21,
          "velocity": 0.7874015748031497
        },
        {
          "duration": 0.14999999999999858,
          "durationTicks": 60,
          "midi": 36,
          "name": "C2",
          "ticks": 8400,
          "time": 21,
          "velocity": 0.7874015748031497
        },
        {
          "duration": 0.14999999999999858,
          "durationTicks": 60,
          "midi": 82,
          "name": "A#5",
          "ticks": 8400,
          "time": 21,
          "velocity": 0.5039370078740157
        },
        {
          "duration": 0.15000000000000213,
          "durationTicks": 60,
          "midi": 42,
          "name": "F#2",
          "ticks": 8460,
          "time": 21.15,
          "velocity": 0.7874015748031497
        },
        {
          "duration": 0.15000000000000213,
          "durationTicks": 60,
          "midi": 82,
          "name": "A#5",
          "ticks": 8460,
          "time": 21.15,
          "velocity": 1
        },
        {
          "duration": 0.14999999999999858,
          "durationTicks": 60,
          "midi": 121,
          "name": "C#9",
          "ticks": 8520,
          "time": 21.3,
          "velocity": 0.9133858267716536
        },
        {
          "duration": 0.14999999999999858,
          "durationTicks": 60,
          "midi": 42,
          "name": "F#2",
          "ticks": 8520,
          "time": 21.3,
          "velocity": 0.7874015748031497
        },
        {
          "duration": 0.14999999999999858,
          "durationTicks": 60,
          "midi": 82,
          "name": "A#5",
          "ticks": 8520,
          "time": 21.3,
          "velocity": 1
        },
        {
          "duration": 0.14999999999999858,
          "durationTicks": 60,
          "midi": 39,
          "name": "D#2",
          "ticks": 8520,
          "time": 21.3,
          "velocity": 0.7874015748031497
        },
        {
          "duration": 0.14999999999999858,
          "durationTicks": 60,
          "midi": 36,
          "name": "C2",
          "ticks": 8580,
          "time": 21.45,
          "velocity": 0.7874015748031497
        },
        {
          "duration": 0.14999999999999858,
          "durationTicks": 60,
          "midi": 82,
          "name": "A#5",
          "ticks": 8580,
          "time": 21.45,
          "velocity": 0.5039370078740157
        },
        {
          "duration": 0.15000000000000213,
          "durationTicks": 60,
          "midi": 42,
          "name": "F#2",
          "ticks": 8640,
          "time": 21.599999999999998,
          "velocity": 0.7874015748031497
        },
        {
          "duration": 0.15000000000000213,
          "durationTicks": 60,
          "midi": 36,
          "name": "C2",
          "ticks": 8640,
          "time": 21.599999999999998,
          "velocity": 0.7874015748031497
        },
        {
          "duration": 0.15000000000000213,
          "durationTicks": 60,
          "midi": 82,
          "name": "A#5",
          "ticks": 8640,
          "time": 21.599999999999998,
          "velocity": 0.5039370078740157
        },
        {
          "duration": 0.14999999999999858,
          "durationTicks": 60,
          "midi": 42,
          "name": "F#2",
          "ticks": 8700,
          "time": 21.75,
          "velocity": 0.7874015748031497
        },
        {
          "duration": 0.14999999999999858,
          "durationTicks": 60,
          "midi": 82,
          "name": "A#5",
          "ticks": 8700,
          "time": 21.75,
          "velocity": 0.5039370078740157
        },
        {
          "duration": 0.15000000000000213,
          "durationTicks": 60,
          "midi": 121,
          "name": "C#9",
          "ticks": 8760,
          "time": 21.9,
          "velocity": 0.9133858267716536
        },
        {
          "duration": 0.15000000000000213,
          "durationTicks": 60,
          "midi": 42,
          "name": "F#2",
          "ticks": 8760,
          "time": 21.9,
          "velocity": 0.7874015748031497
        },
        {
          "duration": 0.15000000000000213,
          "durationTicks": 60,
          "midi": 82,
          "name": "A#5",
          "ticks": 8760,
          "time": 21.9,
          "velocity": 0.5039370078740157
        },
        {
          "duration": 0.15000000000000213,
          "durationTicks": 60,
          "midi": 39,
          "name": "D#2",
          "ticks": 8760,
          "time": 21.9,
          "velocity": 0.7874015748031497
        },
        {
          "duration": 0.14999999999999858,
          "durationTicks": 60,
          "midi": 36,
          "name": "C2",
          "ticks": 8820,
          "time": 22.05,
          "velocity": 0.7874015748031497
        },
        {
          "duration": 0.14999999999999858,
          "durationTicks": 60,
          "midi": 82,
          "name": "A#5",
          "ticks": 8820,
          "time": 22.05,
          "velocity": 0.5039370078740157
        },
        {
          "duration": 0.14999999999999858,
          "durationTicks": 60,
          "midi": 42,
          "name": "F#2",
          "ticks": 8880,
          "time": 22.2,
          "velocity": 0.7874015748031497
        },
        {
          "duration": 0.14999999999999858,
          "durationTicks": 60,
          "midi": 36,
          "name": "C2",
          "ticks": 8880,
          "time": 22.2,
          "velocity": 0.7874015748031497
        },
        {
          "duration": 0.14999999999999858,
          "durationTicks": 60,
          "midi": 82,
          "name": "A#5",
          "ticks": 8880,
          "time": 22.2,
          "velocity": 1
        },
        {
          "duration": 0.15000000000000213,
          "durationTicks": 60,
          "midi": 121,
          "name": "C#9",
          "ticks": 8940,
          "time": 22.349999999999998,
          "velocity": 0.9133858267716536
        },
        {
          "duration": 0.15000000000000213,
          "durationTicks": 60,
          "midi": 42,
          "name": "F#2",
          "ticks": 8940,
          "time": 22.349999999999998,
          "velocity": 0.7874015748031497
        },
        {
          "duration": 0.15000000000000213,
          "durationTicks": 60,
          "midi": 82,
          "name": "A#5",
          "ticks": 8940,
          "time": 22.349999999999998,
          "velocity": 1
        },
        {
          "duration": 0.15000000000000213,
          "durationTicks": 60,
          "midi": 39,
          "name": "D#2",
          "ticks": 8940,
          "time": 22.349999999999998,
          "velocity": 0.7874015748031497
        },
        {
          "duration": 0.14999999999999858,
          "durationTicks": 60,
          "midi": 121,
          "name": "C#9",
          "ticks": 9000,
          "time": 22.5,
          "velocity": 0.9133858267716536
        },
        {
          "duration": 0.14999999999999858,
          "durationTicks": 60,
          "midi": 42,
          "name": "F#2",
          "ticks": 9000,
          "time": 22.5,
          "velocity": 0.7874015748031497
        },
        {
          "duration": 0.14999999999999858,
          "durationTicks": 60,
          "midi": 82,
          "name": "A#5",
          "ticks": 9000,
          "time": 22.5,
          "velocity": 1
        },
        {
          "duration": 0.14999999999999858,
          "durationTicks": 60,
          "midi": 39,
          "name": "D#2",
          "ticks": 9000,
          "time": 22.5,
          "velocity": 0.7874015748031497
        },
        {
          "duration": 0.15000000000000213,
          "durationTicks": 60,
          "midi": 121,
          "name": "C#9",
          "ticks": 9060,
          "time": 22.65,
          "velocity": 0.9133858267716536
        },
        {
          "duration": 0.15000000000000213,
          "durationTicks": 60,
          "midi": 82,
          "name": "A#5",
          "ticks": 9060,
          "time": 22.65,
          "velocity": 0.5039370078740157
        },
        {
          "duration": 0.14999999999999858,
          "durationTicks": 60,
          "midi": 49,
          "name": "C#3",
          "ticks": 9120,
          "time": 22.8,
          "velocity": 0.7874015748031497
        },
        {
          "duration": 0.14999999999999858,
          "durationTicks": 60,
          "midi": 36,
          "name": "C2",
          "ticks": 9120,
          "time": 22.8,
          "velocity": 0.7874015748031497
        },
        {
          "duration": 0.14999999999999858,
          "durationTicks": 60,
          "midi": 82,
          "name": "A#5",
          "ticks": 9120,
          "time": 22.8,
          "velocity": 1
        },
        {
          "duration": 0.14999999999999858,
          "durationTicks": 60,
          "midi": 82,
          "name": "A#5",
          "ticks": 9180,
          "time": 22.95,
          "velocity": 0.5039370078740157
        },
        {
          "duration": 0.15000000000000213,
          "durationTicks": 60,
          "midi": 42,
          "name": "F#2",
          "ticks": 9240,
          "time": 23.099999999999998,
          "velocity": 0.7874015748031497
        },
        {
          "duration": 0.15000000000000213,
          "durationTicks": 60,
          "midi": 82,
          "name": "A#5",
          "ticks": 9240,
          "time": 23.099999999999998,
          "velocity": 1
        },
        {
          "duration": 0.14999999999999858,
          "durationTicks": 60,
          "midi": 42,
          "name": "F#2",
          "ticks": 9300,
          "time": 23.25,
          "velocity": 0.7874015748031497
        },
        {
          "duration": 0.14999999999999858,
          "durationTicks": 60,
          "midi": 36,
          "name": "C2",
          "ticks": 9300,
          "time": 23.25,
          "velocity": 0.7874015748031497
        },
        {
          "duration": 0.14999999999999858,
          "durationTicks": 60,
          "midi": 82,
          "name": "A#5",
          "ticks": 9300,
          "time": 23.25,
          "velocity": 0.5039370078740157
        },
        {
          "duration": 0.15000000000000213,
          "durationTicks": 60,
          "midi": 42,
          "name": "F#2",
          "ticks": 9360,
          "time": 23.4,
          "velocity": 0.7874015748031497
        },
        {
          "duration": 0.15000000000000213,
          "durationTicks": 60,
          "midi": 36,
          "name": "C2",
          "ticks": 9360,
          "time": 23.4,
          "velocity": 0.7874015748031497
        },
        {
          "duration": 0.15000000000000213,
          "durationTicks": 60,
          "midi": 82,
          "name": "A#5",
          "ticks": 9360,
          "time": 23.4,
          "velocity": 0.5039370078740157
        },
        {
          "duration": 0.14999999999999858,
          "durationTicks": 60,
          "midi": 46,
          "name": "A#2",
          "ticks": 9420,
          "time": 23.55,
          "velocity": 0.7874015748031497
        },
        {
          "duration": 0.14999999999999858,
          "durationTicks": 60,
          "midi": 82,
          "name": "A#5",
          "ticks": 9420,
          "time": 23.55,
          "velocity": 0.5039370078740157
        },
        {
          "duration": 0.14999999999999858,
          "durationTicks": 60,
          "midi": 121,
          "name": "C#9",
          "ticks": 9480,
          "time": 23.7,
          "velocity": 0.9133858267716536
        },
        {
          "duration": 0.14999999999999858,
          "durationTicks": 60,
          "midi": 42,
          "name": "F#2",
          "ticks": 9480,
          "time": 23.7,
          "velocity": 0.7874015748031497
        },
        {
          "duration": 0.14999999999999858,
          "durationTicks": 60,
          "midi": 82,
          "name": "A#5",
          "ticks": 9480,
          "time": 23.7,
          "velocity": 1
        },
        {
          "duration": 0.14999999999999858,
          "durationTicks": 60,
          "midi": 39,
          "name": "D#2",
          "ticks": 9480,
          "time": 23.7,
          "velocity": 0.7874015748031497
        },
        {
          "duration": 0.15000000000000213,
          "durationTicks": 60,
          "midi": 42,
          "name": "F#2",
          "ticks": 9540,
          "time": 23.849999999999998,
          "velocity": 0.7874015748031497
        },
        {
          "duration": 0.15000000000000213,
          "durationTicks": 60,
          "midi": 82,
          "name": "A#5",
          "ticks": 9540,
          "time": 23.849999999999998,
          "velocity": 1
        },
        {
          "duration": 0.14999999999999858,
          "durationTicks": 60,
          "midi": 42,
          "name": "F#2",
          "ticks": 9600,
          "time": 24,
          "velocity": 0.7874015748031497
        },
        {
          "duration": 0.14999999999999858,
          "durationTicks": 60,
          "midi": 36,
          "name": "C2",
          "ticks": 9600,
          "time": 24,
          "velocity": 0.7874015748031497
        },
        {
          "duration": 0.14999999999999858,
          "durationTicks": 60,
          "midi": 82,
          "name": "A#5",
          "ticks": 9600,
          "time": 24,
          "velocity": 0.5039370078740157
        },
        {
          "duration": 0.15000000000000213,
          "durationTicks": 60,
          "midi": 42,
          "name": "F#2",
          "ticks": 9660,
          "time": 24.15,
          "velocity": 0.7874015748031497
        },
        {
          "duration": 0.15000000000000213,
          "durationTicks": 60,
          "midi": 82,
          "name": "A#5",
          "ticks": 9660,
          "time": 24.15,
          "velocity": 0.5039370078740157
        },
        {
          "duration": 0.14999999999999858,
          "durationTicks": 60,
          "midi": 42,
          "name": "F#2",
          "ticks": 9720,
          "time": 24.3,
          "velocity": 0.7874015748031497
        },
        {
          "duration": 0.14999999999999858,
          "durationTicks": 60,
          "midi": 82,
          "name": "A#5",
          "ticks": 9720,
          "time": 24.3,
          "velocity": 1
        },
        {
          "duration": 0.14999999999999858,
          "durationTicks": 60,
          "midi": 42,
          "name": "F#2",
          "ticks": 9780,
          "time": 24.45,
          "velocity": 0.7874015748031497
        },
        {
          "duration": 0.14999999999999858,
          "durationTicks": 60,
          "midi": 36,
          "name": "C2",
          "ticks": 9780,
          "time": 24.45,
          "velocity": 0.7874015748031497
        },
        {
          "duration": 0.14999999999999858,
          "durationTicks": 60,
          "midi": 82,
          "name": "A#5",
          "ticks": 9780,
          "time": 24.45,
          "velocity": 1
        },
        {
          "duration": 0.15000000000000213,
          "durationTicks": 60,
          "midi": 42,
          "name": "F#2",
          "ticks": 9840,
          "time": 24.599999999999998,
          "velocity": 0.7874015748031497
        },
        {
          "duration": 0.15000000000000213,
          "durationTicks": 60,
          "midi": 36,
          "name": "C2",
          "ticks": 9840,
          "time": 24.599999999999998,
          "velocity": 0.7874015748031497
        },
        {
          "duration": 0.15000000000000213,
          "durationTicks": 60,
          "midi": 82,
          "name": "A#5",
          "ticks": 9840,
          "time": 24.599999999999998,
          "velocity": 0.5039370078740157
        },
        {
          "duration": 0.14999999999999858,
          "durationTicks": 60,
          "midi": 46,
          "name": "A#2",
          "ticks": 9900,
          "time": 24.75,
          "velocity": 0.7874015748031497
        },
        {
          "duration": 0.14999999999999858,
          "durationTicks": 60,
          "midi": 82,
          "name": "A#5",
          "ticks": 9900,
          "time": 24.75,
          "velocity": 0.5039370078740157
        },
        {
          "duration": 0.15000000000000213,
          "durationTicks": 60,
          "midi": 121,
          "name": "C#9",
          "ticks": 9960,
          "time": 24.9,
          "velocity": 0.9133858267716536
        },
        {
          "duration": 0.15000000000000213,
          "durationTicks": 60,
          "midi": 42,
          "name": "F#2",
          "ticks": 9960,
          "time": 24.9,
          "velocity": 0.7874015748031497
        },
        {
          "duration": 0.15000000000000213,
          "durationTicks": 60,
          "midi": 82,
          "name": "A#5",
          "ticks": 9960,
          "time": 24.9,
          "velocity": 1
        },
        {
          "duration": 0.15000000000000213,
          "durationTicks": 60,
          "midi": 39,
          "name": "D#2",
          "ticks": 9960,
          "time": 24.9,
          "velocity": 0.7874015748031497
        },
        {
          "duration": 0.14999999999999858,
          "durationTicks": 60,
          "midi": 42,
          "name": "F#2",
          "ticks": 10020,
          "time": 25.05,
          "velocity": 0.7874015748031497
        },
        {
          "duration": 0.14999999999999858,
          "durationTicks": 60,
          "midi": 82,
          "name": "A#5",
          "ticks": 10020,
          "time": 25.05,
          "velocity": 1
        },
        {
          "duration": 0.14999999999999858,
          "durationTicks": 60,
          "midi": 42,
          "name": "F#2",
          "ticks": 10080,
          "time": 25.2,
          "velocity": 0.7874015748031497
        },
        {
          "duration": 0.14999999999999858,
          "durationTicks": 60,
          "midi": 36,
          "name": "C2",
          "ticks": 10080,
          "time": 25.2,
          "velocity": 0.7874015748031497
        },
        {
          "duration": 0.14999999999999858,
          "durationTicks": 60,
          "midi": 82,
          "name": "A#5",
          "ticks": 10080,
          "time": 25.2,
          "velocity": 1
        },
        {
          "duration": 0.15000000000000213,
          "durationTicks": 60,
          "midi": 46,
          "name": "A#2",
          "ticks": 10140,
          "time": 25.349999999999998,
          "velocity": 0.7874015748031497
        },
        {
          "duration": 0.15000000000000213,
          "durationTicks": 60,
          "midi": 82,
          "name": "A#5",
          "ticks": 10140,
          "time": 25.349999999999998,
          "velocity": 0.5039370078740157
        },
        {
          "duration": 0.14999999999999858,
          "durationTicks": 60,
          "midi": 121,
          "name": "C#9",
          "ticks": 10200,
          "time": 25.5,
          "velocity": 0.9133858267716536
        },
        {
          "duration": 0.14999999999999858,
          "durationTicks": 60,
          "midi": 42,
          "name": "F#2",
          "ticks": 10200,
          "time": 25.5,
          "velocity": 0.7874015748031497
        },
        {
          "duration": 0.14999999999999858,
          "durationTicks": 60,
          "midi": 82,
          "name": "A#5",
          "ticks": 10200,
          "time": 25.5,
          "velocity": 1
        },
        {
          "duration": 0.14999999999999858,
          "durationTicks": 60,
          "midi": 39,
          "name": "D#2",
          "ticks": 10200,
          "time": 25.5,
          "velocity": 0.7874015748031497
        },
        {
          "duration": 0.15000000000000213,
          "durationTicks": 60,
          "midi": 42,
          "name": "F#2",
          "ticks": 10260,
          "time": 25.65,
          "velocity": 0.7874015748031497
        },
        {
          "duration": 0.15000000000000213,
          "durationTicks": 60,
          "midi": 36,
          "name": "C2",
          "ticks": 10260,
          "time": 25.65,
          "velocity": 0.7874015748031497
        },
        {
          "duration": 0.15000000000000213,
          "durationTicks": 60,
          "midi": 82,
          "name": "A#5",
          "ticks": 10260,
          "time": 25.65,
          "velocity": 0.5039370078740157
        },
        {
          "duration": 0.14999999999999858,
          "durationTicks": 60,
          "midi": 42,
          "name": "F#2",
          "ticks": 10320,
          "time": 25.8,
          "velocity": 0.7874015748031497
        },
        {
          "duration": 0.14999999999999858,
          "durationTicks": 60,
          "midi": 36,
          "name": "C2",
          "ticks": 10320,
          "time": 25.8,
          "velocity": 0.7874015748031497
        },
        {
          "duration": 0.14999999999999858,
          "durationTicks": 60,
          "midi": 82,
          "name": "A#5",
          "ticks": 10320,
          "time": 25.8,
          "velocity": 0.5039370078740157
        },
        {
          "duration": 0.14999999999999858,
          "durationTicks": 60,
          "midi": 46,
          "name": "A#2",
          "ticks": 10380,
          "time": 25.95,
          "velocity": 0.7874015748031497
        },
        {
          "duration": 0.14999999999999858,
          "durationTicks": 60,
          "midi": 82,
          "name": "A#5",
          "ticks": 10380,
          "time": 25.95,
          "velocity": 0.5039370078740157
        },
        {
          "duration": 0.15000000000000213,
          "durationTicks": 60,
          "midi": 121,
          "name": "C#9",
          "ticks": 10440,
          "time": 26.099999999999998,
          "velocity": 0.9133858267716536
        },
        {
          "duration": 0.15000000000000213,
          "durationTicks": 60,
          "midi": 42,
          "name": "F#2",
          "ticks": 10440,
          "time": 26.099999999999998,
          "velocity": 0.7874015748031497
        },
        {
          "duration": 0.15000000000000213,
          "durationTicks": 60,
          "midi": 82,
          "name": "A#5",
          "ticks": 10440,
          "time": 26.099999999999998,
          "velocity": 1
        },
        {
          "duration": 0.15000000000000213,
          "durationTicks": 60,
          "midi": 39,
          "name": "D#2",
          "ticks": 10440,
          "time": 26.099999999999998,
          "velocity": 0.7874015748031497
        },
        {
          "duration": 0.14999999999999858,
          "durationTicks": 60,
          "midi": 42,
          "name": "F#2",
          "ticks": 10500,
          "time": 26.25,
          "velocity": 0.7874015748031497
        },
        {
          "duration": 0.14999999999999858,
          "durationTicks": 60,
          "midi": 36,
          "name": "C2",
          "ticks": 10500,
          "time": 26.25,
          "velocity": 0.7874015748031497
        },
        {
          "duration": 0.14999999999999858,
          "durationTicks": 60,
          "midi": 82,
          "name": "A#5",
          "ticks": 10500,
          "time": 26.25,
          "velocity": 1
        },
        {
          "duration": 0.15000000000000213,
          "durationTicks": 60,
          "midi": 42,
          "name": "F#2",
          "ticks": 10560,
          "time": 26.4,
          "velocity": 0.7874015748031497
        },
        {
          "duration": 0.15000000000000213,
          "durationTicks": 60,
          "midi": 36,
          "name": "C2",
          "ticks": 10560,
          "time": 26.4,
          "velocity": 0.7874015748031497
        },
        {
          "duration": 0.15000000000000213,
          "durationTicks": 60,
          "midi": 82,
          "name": "A#5",
          "ticks": 10560,
          "time": 26.4,
          "velocity": 0.5039370078740157
        },
        {
          "duration": 0.14999999999999858,
          "durationTicks": 60,
          "midi": 46,
          "name": "A#2",
          "ticks": 10620,
          "time": 26.55,
          "velocity": 0.7874015748031497
        },
        {
          "duration": 0.14999999999999858,
          "durationTicks": 60,
          "midi": 82,
          "name": "A#5",
          "ticks": 10620,
          "time": 26.55,
          "velocity": 0.5039370078740157
        },
        {
          "duration": 0.14999999999999858,
          "durationTicks": 60,
          "midi": 42,
          "name": "F#2",
          "ticks": 10680,
          "time": 26.7,
          "velocity": 0.7874015748031497
        },
        {
          "duration": 0.14999999999999858,
          "durationTicks": 60,
          "midi": 36,
          "name": "C2",
          "ticks": 10680,
          "time": 26.7,
          "velocity": 0.7874015748031497
        },
        {
          "duration": 0.14999999999999858,
          "durationTicks": 60,
          "midi": 82,
          "name": "A#5",
          "ticks": 10680,
          "time": 26.7,
          "velocity": 1
        },
        {
          "duration": 0.15000000000000213,
          "durationTicks": 60,
          "midi": 42,
          "name": "F#2",
          "ticks": 10740,
          "time": 26.849999999999998,
          "velocity": 0.7874015748031497
        },
        {
          "duration": 0.15000000000000213,
          "durationTicks": 60,
          "midi": 82,
          "name": "A#5",
          "ticks": 10740,
          "time": 26.849999999999998,
          "velocity": 1
        },
        {
          "duration": 0.14999999999999858,
          "durationTicks": 60,
          "midi": 42,
          "name": "F#2",
          "ticks": 10800,
          "time": 27,
          "velocity": 0.7874015748031497
        },
        {
          "duration": 0.14999999999999858,
          "durationTicks": 60,
          "midi": 36,
          "name": "C2",
          "ticks": 10800,
          "time": 27,
          "velocity": 0.7874015748031497
        },
        {
          "duration": 0.14999999999999858,
          "durationTicks": 60,
          "midi": 82,
          "name": "A#5",
          "ticks": 10800,
          "time": 27,
          "velocity": 1
        },
        {
          "duration": 0.15000000000000213,
          "durationTicks": 60,
          "midi": 82,
          "name": "A#5",
          "ticks": 10860,
          "time": 27.15,
          "velocity": 0.5039370078740157
        },
        {
          "duration": 0.14999999999999858,
          "durationTicks": 60,
          "midi": 55,
          "name": "G3",
          "ticks": 10920,
          "time": 27.3,
          "velocity": 1
        },
        {
          "duration": 0.14999999999999858,
          "durationTicks": 60,
          "midi": 82,
          "name": "A#5",
          "ticks": 10920,
          "time": 27.3,
          "velocity": 1
        },
        {
          "duration": 0.14999999999999858,
          "durationTicks": 60,
          "midi": 42,
          "name": "F#2",
          "ticks": 11040,
          "time": 27.599999999999998,
          "velocity": 0.7874015748031497
        },
        {
          "duration": 0.14999999999999858,
          "durationTicks": 60,
          "midi": 36,
          "name": "C2",
          "ticks": 11040,
          "time": 27.599999999999998,
          "velocity": 0.7874015748031497
        },
        {
          "duration": 0.14999999999999858,
          "durationTicks": 60,
          "midi": 82,
          "name": "A#5",
          "ticks": 11040,
          "time": 27.599999999999998,
          "velocity": 1
        },
        {
          "duration": 0.15000000000000213,
          "durationTicks": 60,
          "midi": 42,
          "name": "F#2",
          "ticks": 11100,
          "time": 27.749999999999996,
          "velocity": 0.7874015748031497
        },
        {
          "duration": 0.15000000000000213,
          "durationTicks": 60,
          "midi": 82,
          "name": "A#5",
          "ticks": 11100,
          "time": 27.749999999999996,
          "velocity": 0.5039370078740157
        },
        {
          "duration": 0.14999999999999858,
          "durationTicks": 60,
          "midi": 121,
          "name": "C#9",
          "ticks": 11160,
          "time": 27.9,
          "velocity": 0.9133858267716536
        },
        {
          "duration": 0.14999999999999858,
          "durationTicks": 60,
          "midi": 42,
          "name": "F#2",
          "ticks": 11160,
          "time": 27.9,
          "velocity": 0.7874015748031497
        },
        {
          "duration": 0.14999999999999858,
          "durationTicks": 60,
          "midi": 82,
          "name": "A#5",
          "ticks": 11160,
          "time": 27.9,
          "velocity": 1
        },
        {
          "duration": 0.15000000000000213,
          "durationTicks": 60,
          "midi": 42,
          "name": "F#2",
          "ticks": 11220,
          "time": 28.049999999999997,
          "velocity": 0.7874015748031497
        },
        {
          "duration": 0.15000000000000213,
          "durationTicks": 60,
          "midi": 36,
          "name": "C2",
          "ticks": 11220,
          "time": 28.049999999999997,
          "velocity": 0.7874015748031497
        },
        {
          "duration": 0.15000000000000213,
          "durationTicks": 60,
          "midi": 82,
          "name": "A#5",
          "ticks": 11220,
          "time": 28.049999999999997,
          "velocity": 0.5039370078740157
        },
        {
          "duration": 0.14999999999999858,
          "durationTicks": 60,
          "midi": 42,
          "name": "F#2",
          "ticks": 11280,
          "time": 28.2,
          "velocity": 0.7874015748031497
        },
        {
          "duration": 0.14999999999999858,
          "durationTicks": 60,
          "midi": 36,
          "name": "C2",
          "ticks": 11280,
          "time": 28.2,
          "velocity": 0.7874015748031497
        },
        {
          "duration": 0.14999999999999858,
          "durationTicks": 60,
          "midi": 82,
          "name": "A#5",
          "ticks": 11280,
          "time": 28.2,
          "velocity": 0.5039370078740157
        },
        {
          "duration": 0.14999999999999858,
          "durationTicks": 60,
          "midi": 42,
          "name": "F#2",
          "ticks": 11340,
          "time": 28.349999999999998,
          "velocity": 0.7874015748031497
        },
        {
          "duration": 0.14999999999999858,
          "durationTicks": 60,
          "midi": 82,
          "name": "A#5",
          "ticks": 11340,
          "time": 28.349999999999998,
          "velocity": 0.5039370078740157
        },
        {
          "duration": 0.15000000000000213,
          "durationTicks": 60,
          "midi": 121,
          "name": "C#9",
          "ticks": 11400,
          "time": 28.499999999999996,
          "velocity": 0.9133858267716536
        },
        {
          "duration": 0.15000000000000213,
          "durationTicks": 60,
          "midi": 42,
          "name": "F#2",
          "ticks": 11400,
          "time": 28.499999999999996,
          "velocity": 0.7874015748031497
        },
        {
          "duration": 0.15000000000000213,
          "durationTicks": 60,
          "midi": 82,
          "name": "A#5",
          "ticks": 11400,
          "time": 28.499999999999996,
          "velocity": 0.5039370078740157
        },
        {
          "duration": 0.14999999999999858,
          "durationTicks": 60,
          "midi": 42,
          "name": "F#2",
          "ticks": 11460,
          "time": 28.65,
          "velocity": 0.7874015748031497
        },
        {
          "duration": 0.14999999999999858,
          "durationTicks": 60,
          "midi": 82,
          "name": "A#5",
          "ticks": 11460,
          "time": 28.65,
          "velocity": 1
        },
        {
          "duration": 0.15000000000000213,
          "durationTicks": 60,
          "midi": 42,
          "name": "F#2",
          "ticks": 11520,
          "time": 28.799999999999997,
          "velocity": 0.7874015748031497
        },
        {
          "duration": 0.15000000000000213,
          "durationTicks": 60,
          "midi": 36,
          "name": "C2",
          "ticks": 11520,
          "time": 28.799999999999997,
          "velocity": 0.7874015748031497
        },
        {
          "duration": 0.15000000000000213,
          "durationTicks": 60,
          "midi": 82,
          "name": "A#5",
          "ticks": 11520,
          "time": 28.799999999999997,
          "velocity": 0.5039370078740157
        },
        {
          "duration": 0.14999999999999858,
          "durationTicks": 60,
          "midi": 42,
          "name": "F#2",
          "ticks": 11580,
          "time": 28.95,
          "velocity": 0.7874015748031497
        },
        {
          "duration": 0.14999999999999858,
          "durationTicks": 60,
          "midi": 82,
          "name": "A#5",
          "ticks": 11580,
          "time": 28.95,
          "velocity": 0.5039370078740157
        },
        {
          "duration": 0.14999999999999858,
          "durationTicks": 60,
          "midi": 121,
          "name": "C#9",
          "ticks": 11640,
          "time": 29.099999999999998,
          "velocity": 0.9133858267716536
        },
        {
          "duration": 0.14999999999999858,
          "durationTicks": 60,
          "midi": 42,
          "name": "F#2",
          "ticks": 11640,
          "time": 29.099999999999998,
          "velocity": 0.7874015748031497
        },
        {
          "duration": 0.14999999999999858,
          "durationTicks": 60,
          "midi": 82,
          "name": "A#5",
          "ticks": 11640,
          "time": 29.099999999999998,
          "velocity": 0.5039370078740157
        },
        {
          "duration": 0.15000000000000213,
          "durationTicks": 60,
          "midi": 42,
          "name": "F#2",
          "ticks": 11700,
          "time": 29.249999999999996,
          "velocity": 0.7874015748031497
        },
        {
          "duration": 0.15000000000000213,
          "durationTicks": 60,
          "midi": 36,
          "name": "C2",
          "ticks": 11700,
          "time": 29.249999999999996,
          "velocity": 0.7874015748031497
        },
        {
          "duration": 0.15000000000000213,
          "durationTicks": 60,
          "midi": 82,
          "name": "A#5",
          "ticks": 11700,
          "time": 29.249999999999996,
          "velocity": 1
        },
        {
          "duration": 0.14999999999999858,
          "durationTicks": 60,
          "midi": 42,
          "name": "F#2",
          "ticks": 11760,
          "time": 29.4,
          "velocity": 0.7874015748031497
        },
        {
          "duration": 0.14999999999999858,
          "durationTicks": 60,
          "midi": 36,
          "name": "C2",
          "ticks": 11760,
          "time": 29.4,
          "velocity": 0.7874015748031497
        },
        {
          "duration": 0.14999999999999858,
          "durationTicks": 60,
          "midi": 82,
          "name": "A#5",
          "ticks": 11760,
          "time": 29.4,
          "velocity": 0.5039370078740157
        },
        {
          "duration": 0.15000000000000213,
          "durationTicks": 60,
          "midi": 42,
          "name": "F#2",
          "ticks": 11820,
          "time": 29.549999999999997,
          "velocity": 0.7874015748031497
        },
        {
          "duration": 0.15000000000000213,
          "durationTicks": 60,
          "midi": 82,
          "name": "A#5",
          "ticks": 11820,
          "time": 29.549999999999997,
          "velocity": 0.5039370078740157
        },
        {
          "duration": 0.14999999999999858,
          "durationTicks": 60,
          "midi": 121,
          "name": "C#9",
          "ticks": 11880,
          "time": 29.7,
          "velocity": 0.9133858267716536
        },
        {
          "duration": 0.14999999999999858,
          "durationTicks": 60,
          "midi": 42,
          "name": "F#2",
          "ticks": 11880,
          "time": 29.7,
          "velocity": 0.7874015748031497
        },
        {
          "duration": 0.14999999999999858,
          "durationTicks": 60,
          "midi": 82,
          "name": "A#5",
          "ticks": 11880,
          "time": 29.7,
          "velocity": 0.5039370078740157
        },
        {
          "duration": 0.14999999999999858,
          "durationTicks": 60,
          "midi": 42,
          "name": "F#2",
          "ticks": 11940,
          "time": 29.849999999999998,
          "velocity": 0.7874015748031497
        },
        {
          "duration": 0.14999999999999858,
          "durationTicks": 60,
          "midi": 82,
          "name": "A#5",
          "ticks": 11940,
          "time": 29.849999999999998,
          "velocity": 1
        },
        {
          "duration": 0.15000000000000213,
          "durationTicks": 60,
          "midi": 42,
          "name": "F#2",
          "ticks": 12000,
          "time": 29.999999999999996,
          "velocity": 0.7874015748031497
        },
        {
          "duration": 0.15000000000000213,
          "durationTicks": 60,
          "midi": 36,
          "name": "C2",
          "ticks": 12000,
          "time": 29.999999999999996,
          "velocity": 0.7874015748031497
        },
        {
          "duration": 0.15000000000000213,
          "durationTicks": 60,
          "midi": 82,
          "name": "A#5",
          "ticks": 12000,
          "time": 29.999999999999996,
          "velocity": 1
        },
        {
          "duration": 0.14999999999999858,
          "durationTicks": 60,
          "midi": 42,
          "name": "F#2",
          "ticks": 12060,
          "time": 30.15,
          "velocity": 0.7874015748031497
        },
        {
          "duration": 0.14999999999999858,
          "durationTicks": 60,
          "midi": 82,
          "name": "A#5",
          "ticks": 12060,
          "time": 30.15,
          "velocity": 0.5039370078740157
        },
        {
          "duration": 0.15000000000000213,
          "durationTicks": 60,
          "midi": 121,
          "name": "C#9",
          "ticks": 12120,
          "time": 30.299999999999997,
          "velocity": 0.9133858267716536
        },
        {
          "duration": 0.15000000000000213,
          "durationTicks": 60,
          "midi": 42,
          "name": "F#2",
          "ticks": 12120,
          "time": 30.299999999999997,
          "velocity": 0.7874015748031497
        },
        {
          "duration": 0.15000000000000213,
          "durationTicks": 60,
          "midi": 82,
          "name": "A#5",
          "ticks": 12120,
          "time": 30.299999999999997,
          "velocity": 1
        },
        {
          "duration": 0.14999999999999858,
          "durationTicks": 60,
          "midi": 42,
          "name": "F#2",
          "ticks": 12180,
          "time": 30.45,
          "velocity": 0.7874015748031497
        },
        {
          "duration": 0.14999999999999858,
          "durationTicks": 60,
          "midi": 36,
          "name": "C2",
          "ticks": 12180,
          "time": 30.45,
          "velocity": 0.7874015748031497
        },
        {
          "duration": 0.14999999999999858,
          "durationTicks": 60,
          "midi": 82,
          "name": "A#5",
          "ticks": 12180,
          "time": 30.45,
          "velocity": 0.5039370078740157
        },
        {
          "duration": 0.14999999999999858,
          "durationTicks": 60,
          "midi": 42,
          "name": "F#2",
          "ticks": 12240,
          "time": 30.599999999999998,
          "velocity": 0.7874015748031497
        },
        {
          "duration": 0.14999999999999858,
          "durationTicks": 60,
          "midi": 36,
          "name": "C2",
          "ticks": 12240,
          "time": 30.599999999999998,
          "velocity": 0.7874015748031497
        },
        {
          "duration": 0.14999999999999858,
          "durationTicks": 60,
          "midi": 82,
          "name": "A#5",
          "ticks": 12240,
          "time": 30.599999999999998,
          "velocity": 0.5039370078740157
        },
        {
          "duration": 0.15000000000000213,
          "durationTicks": 60,
          "midi": 42,
          "name": "F#2",
          "ticks": 12300,
          "time": 30.749999999999996,
          "velocity": 0.7874015748031497
        },
        {
          "duration": 0.15000000000000213,
          "durationTicks": 60,
          "midi": 82,
          "name": "A#5",
          "ticks": 12300,
          "time": 30.749999999999996,
          "velocity": 0.5039370078740157
        },
        {
          "duration": 0.14999999999999858,
          "durationTicks": 60,
          "midi": 121,
          "name": "C#9",
          "ticks": 12360,
          "time": 30.9,
          "velocity": 0.9133858267716536
        },
        {
          "duration": 0.14999999999999858,
          "durationTicks": 60,
          "midi": 42,
          "name": "F#2",
          "ticks": 12360,
          "time": 30.9,
          "velocity": 0.7874015748031497
        },
        {
          "duration": 0.14999999999999858,
          "durationTicks": 60,
          "midi": 82,
          "name": "A#5",
          "ticks": 12360,
          "time": 30.9,
          "velocity": 0.5039370078740157
        },
        {
          "duration": 0.14999999999999858,
          "durationTicks": 60,
          "midi": 42,
          "name": "F#2",
          "ticks": 12420,
          "time": 31.049999999999997,
          "velocity": 0.7874015748031497
        },
        {
          "duration": 0.14999999999999858,
          "durationTicks": 60,
          "midi": 36,
          "name": "C2",
          "ticks": 12420,
          "time": 31.049999999999997,
          "velocity": 0.7874015748031497
        },
        {
          "duration": 0.14999999999999858,
          "durationTicks": 60,
          "midi": 82,
          "name": "A#5",
          "ticks": 12420,
          "time": 31.049999999999997,
          "velocity": 1
        },
        {
          "duration": 0.15000000000000213,
          "durationTicks": 60,
          "midi": 42,
          "name": "F#2",
          "ticks": 12480,
          "time": 31.199999999999996,
          "velocity": 0.7874015748031497
        },
        {
          "duration": 0.15000000000000213,
          "durationTicks": 60,
          "midi": 36,
          "name": "C2",
          "ticks": 12480,
          "time": 31.199999999999996,
          "velocity": 0.7874015748031497
        },
        {
          "duration": 0.15000000000000213,
          "durationTicks": 60,
          "midi": 82,
          "name": "A#5",
          "ticks": 12480,
          "time": 31.199999999999996,
          "velocity": 0.5039370078740157
        },
        {
          "duration": 0.14999999999999858,
          "durationTicks": 60,
          "midi": 42,
          "name": "F#2",
          "ticks": 12540,
          "time": 31.349999999999998,
          "velocity": 0.7874015748031497
        },
        {
          "duration": 0.14999999999999858,
          "durationTicks": 60,
          "midi": 82,
          "name": "A#5",
          "ticks": 12540,
          "time": 31.349999999999998,
          "velocity": 0.5039370078740157
        },
        {
          "duration": 0.15000000000000213,
          "durationTicks": 60,
          "midi": 121,
          "name": "C#9",
          "ticks": 12600,
          "time": 31.499999999999996,
          "velocity": 0.9133858267716536
        },
        {
          "duration": 0.15000000000000213,
          "durationTicks": 60,
          "midi": 42,
          "name": "F#2",
          "ticks": 12600,
          "time": 31.499999999999996,
          "velocity": 0.7874015748031497
        },
        {
          "duration": 0.15000000000000213,
          "durationTicks": 60,
          "midi": 82,
          "name": "A#5",
          "ticks": 12600,
          "time": 31.499999999999996,
          "velocity": 0.5039370078740157
        },
        {
          "duration": 0.14999999999999858,
          "durationTicks": 60,
          "midi": 42,
          "name": "F#2",
          "ticks": 12660,
          "time": 31.65,
          "velocity": 0.7874015748031497
        },
        {
          "duration": 0.14999999999999858,
          "durationTicks": 60,
          "midi": 36,
          "name": "C2",
          "ticks": 12660,
          "time": 31.65,
          "velocity": 0.7874015748031497
        },
        {
          "duration": 0.14999999999999858,
          "durationTicks": 60,
          "midi": 82,
          "name": "A#5",
          "ticks": 12660,
          "time": 31.65,
          "velocity": 1
        },
        {
          "duration": 0.14999999999999858,
          "durationTicks": 60,
          "midi": 42,
          "name": "F#2",
          "ticks": 12720,
          "time": 31.799999999999997,
          "velocity": 0.7874015748031497
        },
        {
          "duration": 0.14999999999999858,
          "durationTicks": 60,
          "midi": 36,
          "name": "C2",
          "ticks": 12720,
          "time": 31.799999999999997,
          "velocity": 0.7874015748031497
        },
        {
          "duration": 0.14999999999999858,
          "durationTicks": 60,
          "midi": 82,
          "name": "A#5",
          "ticks": 12720,
          "time": 31.799999999999997,
          "velocity": 0.5039370078740157
        },
        {
          "duration": 0.14999999999999858,
          "durationTicks": 60,
          "midi": 42,
          "name": "F#2",
          "ticks": 12780,
          "time": 31.949999999999996,
          "velocity": 0.7874015748031497
        },
        {
          "duration": 0.14999999999999858,
          "durationTicks": 60,
          "midi": 82,
          "name": "A#5",
          "ticks": 12780,
          "time": 31.949999999999996,
          "velocity": 0.5039370078740157
        },
        {
          "duration": 0.15000000000000568,
          "durationTicks": 60,
          "midi": 121,
          "name": "C#9",
          "ticks": 12840,
          "time": 32.099999999999994,
          "velocity": 0.9133858267716536
        },
        {
          "duration": 0.15000000000000568,
          "durationTicks": 60,
          "midi": 42,
          "name": "F#2",
          "ticks": 12840,
          "time": 32.099999999999994,
          "velocity": 0.7874015748031497
        },
        {
          "duration": 0.15000000000000568,
          "durationTicks": 60,
          "midi": 82,
          "name": "A#5",
          "ticks": 12840,
          "time": 32.099999999999994,
          "velocity": 1
        },
        {
          "duration": 0.14999999999999858,
          "durationTicks": 60,
          "midi": 42,
          "name": "F#2",
          "ticks": 12900,
          "time": 32.25,
          "velocity": 0.7874015748031497
        },
        {
          "duration": 0.14999999999999858,
          "durationTicks": 60,
          "midi": 82,
          "name": "A#5",
          "ticks": 12900,
          "time": 32.25,
          "velocity": 0.5039370078740157
        },
        {
          "duration": 0.14999999999999858,
          "durationTicks": 60,
          "midi": 42,
          "name": "F#2",
          "ticks": 12960,
          "time": 32.4,
          "velocity": 0.7874015748031497
        },
        {
          "duration": 0.14999999999999858,
          "durationTicks": 60,
          "midi": 36,
          "name": "C2",
          "ticks": 12960,
          "time": 32.4,
          "velocity": 0.7874015748031497
        },
        {
          "duration": 0.14999999999999858,
          "durationTicks": 60,
          "midi": 82,
          "name": "A#5",
          "ticks": 12960,
          "time": 32.4,
          "velocity": 1
        },
        {
          "duration": 0.14999999999999858,
          "durationTicks": 60,
          "midi": 42,
          "name": "F#2",
          "ticks": 13020,
          "time": 32.55,
          "velocity": 0.7874015748031497
        },
        {
          "duration": 0.14999999999999858,
          "durationTicks": 60,
          "midi": 82,
          "name": "A#5",
          "ticks": 13020,
          "time": 32.55,
          "velocity": 0.5039370078740157
        },
        {
          "duration": 0.14999999999999858,
          "durationTicks": 60,
          "midi": 121,
          "name": "C#9",
          "ticks": 13080,
          "time": 32.699999999999996,
          "velocity": 0.9133858267716536
        },
        {
          "duration": 0.14999999999999858,
          "durationTicks": 60,
          "midi": 42,
          "name": "F#2",
          "ticks": 13080,
          "time": 32.699999999999996,
          "velocity": 0.7874015748031497
        },
        {
          "duration": 0.14999999999999858,
          "durationTicks": 60,
          "midi": 82,
          "name": "A#5",
          "ticks": 13080,
          "time": 32.699999999999996,
          "velocity": 1
        },
        {
          "duration": 0.15000000000000568,
          "durationTicks": 60,
          "midi": 42,
          "name": "F#2",
          "ticks": 13140,
          "time": 32.849999999999994,
          "velocity": 0.7874015748031497
        },
        {
          "duration": 0.15000000000000568,
          "durationTicks": 60,
          "midi": 36,
          "name": "C2",
          "ticks": 13140,
          "time": 32.849999999999994,
          "velocity": 0.7874015748031497
        },
        {
          "duration": 0.15000000000000568,
          "durationTicks": 60,
          "midi": 82,
          "name": "A#5",
          "ticks": 13140,
          "time": 32.849999999999994,
          "velocity": 0.5039370078740157
        },
        {
          "duration": 0.14999999999999858,
          "durationTicks": 60,
          "midi": 42,
          "name": "F#2",
          "ticks": 13200,
          "time": 33,
          "velocity": 0.7874015748031497
        },
        {
          "duration": 0.14999999999999858,
          "durationTicks": 60,
          "midi": 36,
          "name": "C2",
          "ticks": 13200,
          "time": 33,
          "velocity": 0.7874015748031497
        },
        {
          "duration": 0.14999999999999858,
          "durationTicks": 60,
          "midi": 82,
          "name": "A#5",
          "ticks": 13200,
          "time": 33,
          "velocity": 0.5039370078740157
        },
        {
          "duration": 0.14999999999999858,
          "durationTicks": 60,
          "midi": 46,
          "name": "A#2",
          "ticks": 13260,
          "time": 33.15,
          "velocity": 0.7874015748031497
        },
        {
          "duration": 0.14999999999999858,
          "durationTicks": 60,
          "midi": 82,
          "name": "A#5",
          "ticks": 13260,
          "time": 33.15,
          "velocity": 0.5039370078740157
        },
        {
          "duration": 0.14999999999999858,
          "durationTicks": 60,
          "midi": 121,
          "name": "C#9",
          "ticks": 13320,
          "time": 33.3,
          "velocity": 0.9133858267716536
        },
        {
          "duration": 0.14999999999999858,
          "durationTicks": 60,
          "midi": 42,
          "name": "F#2",
          "ticks": 13320,
          "time": 33.3,
          "velocity": 0.7874015748031497
        },
        {
          "duration": 0.14999999999999858,
          "durationTicks": 60,
          "midi": 82,
          "name": "A#5",
          "ticks": 13320,
          "time": 33.3,
          "velocity": 0.5039370078740157
        },
        {
          "duration": 0.14999999999999858,
          "durationTicks": 60,
          "midi": 42,
          "name": "F#2",
          "ticks": 13380,
          "time": 33.449999999999996,
          "velocity": 0.7874015748031497
        },
        {
          "duration": 0.14999999999999858,
          "durationTicks": 60,
          "midi": 82,
          "name": "A#5",
          "ticks": 13380,
          "time": 33.449999999999996,
          "velocity": 1
        },
        {
          "duration": 0.15000000000000568,
          "durationTicks": 60,
          "midi": 42,
          "name": "F#2",
          "ticks": 13440,
          "time": 33.599999999999994,
          "velocity": 0.7874015748031497
        },
        {
          "duration": 0.15000000000000568,
          "durationTicks": 60,
          "midi": 36,
          "name": "C2",
          "ticks": 13440,
          "time": 33.599999999999994,
          "velocity": 0.7874015748031497
        },
        {
          "duration": 0.15000000000000568,
          "durationTicks": 60,
          "midi": 82,
          "name": "A#5",
          "ticks": 13440,
          "time": 33.599999999999994,
          "velocity": 0.5039370078740157
        },
        {
          "duration": 0.14999999999999858,
          "durationTicks": 60,
          "midi": 42,
          "name": "F#2",
          "ticks": 13500,
          "time": 33.75,
          "velocity": 0.7874015748031497
        },
        {
          "duration": 0.14999999999999858,
          "durationTicks": 60,
          "midi": 82,
          "name": "A#5",
          "ticks": 13500,
          "time": 33.75,
          "velocity": 0.5039370078740157
        },
        {
          "duration": 0.14999999999999858,
          "durationTicks": 60,
          "midi": 121,
          "name": "C#9",
          "ticks": 13560,
          "time": 33.9,
          "velocity": 0.9133858267716536
        },
        {
          "duration": 0.14999999999999858,
          "durationTicks": 60,
          "midi": 42,
          "name": "F#2",
          "ticks": 13560,
          "time": 33.9,
          "velocity": 0.7874015748031497
        },
        {
          "duration": 0.14999999999999858,
          "durationTicks": 60,
          "midi": 82,
          "name": "A#5",
          "ticks": 13560,
          "time": 33.9,
          "velocity": 0.5039370078740157
        },
        {
          "duration": 0.14999999999999858,
          "durationTicks": 60,
          "midi": 42,
          "name": "F#2",
          "ticks": 13620,
          "time": 34.05,
          "velocity": 0.7874015748031497
        },
        {
          "duration": 0.14999999999999858,
          "durationTicks": 60,
          "midi": 36,
          "name": "C2",
          "ticks": 13620,
          "time": 34.05,
          "velocity": 0.7874015748031497
        },
        {
          "duration": 0.14999999999999858,
          "durationTicks": 60,
          "midi": 82,
          "name": "A#5",
          "ticks": 13620,
          "time": 34.05,
          "velocity": 1
        },
        {
          "duration": 0.14999999999999858,
          "durationTicks": 60,
          "midi": 42,
          "name": "F#2",
          "ticks": 13680,
          "time": 34.199999999999996,
          "velocity": 0.7874015748031497
        },
        {
          "duration": 0.14999999999999858,
          "durationTicks": 60,
          "midi": 36,
          "name": "C2",
          "ticks": 13680,
          "time": 34.199999999999996,
          "velocity": 0.7874015748031497
        },
        {
          "duration": 0.14999999999999858,
          "durationTicks": 60,
          "midi": 82,
          "name": "A#5",
          "ticks": 13680,
          "time": 34.199999999999996,
          "velocity": 0.5039370078740157
        },
        {
          "duration": 0.15000000000000568,
          "durationTicks": 60,
          "midi": 46,
          "name": "A#2",
          "ticks": 13740,
          "time": 34.349999999999994,
          "velocity": 0.7874015748031497
        },
        {
          "duration": 0.15000000000000568,
          "durationTicks": 60,
          "midi": 82,
          "name": "A#5",
          "ticks": 13740,
          "time": 34.349999999999994,
          "velocity": 0.5039370078740157
        },
        {
          "duration": 0.14999999999999858,
          "durationTicks": 60,
          "midi": 121,
          "name": "C#9",
          "ticks": 13800,
          "time": 34.5,
          "velocity": 0.9133858267716536
        },
        {
          "duration": 0.14999999999999858,
          "durationTicks": 60,
          "midi": 42,
          "name": "F#2",
          "ticks": 13800,
          "time": 34.5,
          "velocity": 0.7874015748031497
        },
        {
          "duration": 0.14999999999999858,
          "durationTicks": 60,
          "midi": 82,
          "name": "A#5",
          "ticks": 13800,
          "time": 34.5,
          "velocity": 0.5039370078740157
        },
        {
          "duration": 0.14999999999999858,
          "durationTicks": 60,
          "midi": 42,
          "name": "F#2",
          "ticks": 13860,
          "time": 34.65,
          "velocity": 0.7874015748031497
        },
        {
          "duration": 0.14999999999999858,
          "durationTicks": 60,
          "midi": 82,
          "name": "A#5",
          "ticks": 13860,
          "time": 34.65,
          "velocity": 1
        },
        {
          "duration": 0.14999999999999858,
          "durationTicks": 60,
          "midi": 42,
          "name": "F#2",
          "ticks": 13920,
          "time": 34.8,
          "velocity": 0.7874015748031497
        },
        {
          "duration": 0.14999999999999858,
          "durationTicks": 60,
          "midi": 36,
          "name": "C2",
          "ticks": 13920,
          "time": 34.8,
          "velocity": 0.7874015748031497
        },
        {
          "duration": 0.14999999999999858,
          "durationTicks": 60,
          "midi": 82,
          "name": "A#5",
          "ticks": 13920,
          "time": 34.8,
          "velocity": 1
        },
        {
          "duration": 0.14999999999999858,
          "durationTicks": 60,
          "midi": 42,
          "name": "F#2",
          "ticks": 13980,
          "time": 34.949999999999996,
          "velocity": 0.7874015748031497
        },
        {
          "duration": 0.14999999999999858,
          "durationTicks": 60,
          "midi": 82,
          "name": "A#5",
          "ticks": 13980,
          "time": 34.949999999999996,
          "velocity": 0.5039370078740157
        },
        {
          "duration": 0.15000000000000568,
          "durationTicks": 60,
          "midi": 121,
          "name": "C#9",
          "ticks": 14040,
          "time": 35.099999999999994,
          "velocity": 0.9133858267716536
        },
        {
          "duration": 0.15000000000000568,
          "durationTicks": 60,
          "midi": 42,
          "name": "F#2",
          "ticks": 14040,
          "time": 35.099999999999994,
          "velocity": 0.7874015748031497
        },
        {
          "duration": 0.15000000000000568,
          "durationTicks": 60,
          "midi": 82,
          "name": "A#5",
          "ticks": 14040,
          "time": 35.099999999999994,
          "velocity": 1
        },
        {
          "duration": 0.14999999999999858,
          "durationTicks": 60,
          "midi": 42,
          "name": "F#2",
          "ticks": 14100,
          "time": 35.25,
          "velocity": 0.7874015748031497
        },
        {
          "duration": 0.14999999999999858,
          "durationTicks": 60,
          "midi": 36,
          "name": "C2",
          "ticks": 14100,
          "time": 35.25,
          "velocity": 0.7874015748031497
        },
        {
          "duration": 0.14999999999999858,
          "durationTicks": 60,
          "midi": 82,
          "name": "A#5",
          "ticks": 14100,
          "time": 35.25,
          "velocity": 0.5039370078740157
        },
        {
          "duration": 0.14999999999999858,
          "durationTicks": 60,
          "midi": 42,
          "name": "F#2",
          "ticks": 14160,
          "time": 35.4,
          "velocity": 0.7874015748031497
        },
        {
          "duration": 0.14999999999999858,
          "durationTicks": 60,
          "midi": 36,
          "name": "C2",
          "ticks": 14160,
          "time": 35.4,
          "velocity": 0.7874015748031497
        },
        {
          "duration": 0.14999999999999858,
          "durationTicks": 60,
          "midi": 82,
          "name": "A#5",
          "ticks": 14160,
          "time": 35.4,
          "velocity": 0.5039370078740157
        },
        {
          "duration": 0.14999999999999858,
          "durationTicks": 60,
          "midi": 46,
          "name": "A#2",
          "ticks": 14220,
          "time": 35.55,
          "velocity": 0.7874015748031497
        },
        {
          "duration": 0.14999999999999858,
          "durationTicks": 60,
          "midi": 82,
          "name": "A#5",
          "ticks": 14220,
          "time": 35.55,
          "velocity": 0.5039370078740157
        },
        {
          "duration": 0.14999999999999858,
          "durationTicks": 60,
          "midi": 121,
          "name": "C#9",
          "ticks": 14280,
          "time": 35.699999999999996,
          "velocity": 0.9133858267716536
        },
        {
          "duration": 0.14999999999999858,
          "durationTicks": 60,
          "midi": 42,
          "name": "F#2",
          "ticks": 14280,
          "time": 35.699999999999996,
          "velocity": 0.7874015748031497
        },
        {
          "duration": 0.14999999999999858,
          "durationTicks": 60,
          "midi": 82,
          "name": "A#5",
          "ticks": 14280,
          "time": 35.699999999999996,
          "velocity": 0.5039370078740157
        },
        {
          "duration": 0.15000000000000568,
          "durationTicks": 60,
          "midi": 42,
          "name": "F#2",
          "ticks": 14340,
          "time": 35.849999999999994,
          "velocity": 0.7874015748031497
        },
        {
          "duration": 0.15000000000000568,
          "durationTicks": 60,
          "midi": 36,
          "name": "C2",
          "ticks": 14340,
          "time": 35.849999999999994,
          "velocity": 0.7874015748031497
        },
        {
          "duration": 0.15000000000000568,
          "durationTicks": 60,
          "midi": 82,
          "name": "A#5",
          "ticks": 14340,
          "time": 35.849999999999994,
          "velocity": 1
        },
        {
          "duration": 0.14999999999999858,
          "durationTicks": 60,
          "midi": 42,
          "name": "F#2",
          "ticks": 14400,
          "time": 36,
          "velocity": 0.7874015748031497
        },
        {
          "duration": 0.14999999999999858,
          "durationTicks": 60,
          "midi": 36,
          "name": "C2",
          "ticks": 14400,
          "time": 36,
          "velocity": 0.7874015748031497
        },
        {
          "duration": 0.14999999999999858,
          "durationTicks": 60,
          "midi": 82,
          "name": "A#5",
          "ticks": 14400,
          "time": 36,
          "velocity": 0.5039370078740157
        },
        {
          "duration": 0.14999999999999858,
          "durationTicks": 60,
          "midi": 46,
          "name": "A#2",
          "ticks": 14460,
          "time": 36.15,
          "velocity": 0.7874015748031497
        },
        {
          "duration": 0.14999999999999858,
          "durationTicks": 60,
          "midi": 82,
          "name": "A#5",
          "ticks": 14460,
          "time": 36.15,
          "velocity": 0.5039370078740157
        },
        {
          "duration": 0.14999999999999858,
          "durationTicks": 60,
          "midi": 121,
          "name": "C#9",
          "ticks": 14520,
          "time": 36.3,
          "velocity": 0.9133858267716536
        },
        {
          "duration": 0.14999999999999858,
          "durationTicks": 60,
          "midi": 42,
          "name": "F#2",
          "ticks": 14520,
          "time": 36.3,
          "velocity": 0.7874015748031497
        },
        {
          "duration": 0.14999999999999858,
          "durationTicks": 60,
          "midi": 82,
          "name": "A#5",
          "ticks": 14520,
          "time": 36.3,
          "velocity": 0.5039370078740157
        },
        {
          "duration": 0.14999999999999858,
          "durationTicks": 60,
          "midi": 42,
          "name": "F#2",
          "ticks": 14580,
          "time": 36.449999999999996,
          "velocity": 0.7874015748031497
        },
        {
          "duration": 0.14999999999999858,
          "durationTicks": 60,
          "midi": 36,
          "name": "C2",
          "ticks": 14580,
          "time": 36.449999999999996,
          "velocity": 0.7874015748031497
        },
        {
          "duration": 0.14999999999999858,
          "durationTicks": 60,
          "midi": 82,
          "name": "A#5",
          "ticks": 14580,
          "time": 36.449999999999996,
          "velocity": 1
        },
        {
          "duration": 0.15000000000000568,
          "durationTicks": 60,
          "midi": 42,
          "name": "F#2",
          "ticks": 14640,
          "time": 36.599999999999994,
          "velocity": 0.7874015748031497
        },
        {
          "duration": 0.15000000000000568,
          "durationTicks": 60,
          "midi": 36,
          "name": "C2",
          "ticks": 14640,
          "time": 36.599999999999994,
          "velocity": 0.7874015748031497
        },
        {
          "duration": 0.15000000000000568,
          "durationTicks": 60,
          "midi": 82,
          "name": "A#5",
          "ticks": 14640,
          "time": 36.599999999999994,
          "velocity": 0.5039370078740157
        },
        {
          "duration": 0.14999999999999858,
          "durationTicks": 60,
          "midi": 121,
          "name": "C#9",
          "ticks": 14700,
          "time": 36.75,
          "velocity": 0.9133858267716536
        },
        {
          "duration": 0.14999999999999858,
          "durationTicks": 60,
          "midi": 42,
          "name": "F#2",
          "ticks": 14700,
          "time": 36.75,
          "velocity": 0.7874015748031497
        },
        {
          "duration": 0.14999999999999858,
          "durationTicks": 60,
          "midi": 82,
          "name": "A#5",
          "ticks": 14700,
          "time": 36.75,
          "velocity": 0.5039370078740157
        },
        {
          "duration": 0.14999999999999858,
          "durationTicks": 60,
          "midi": 121,
          "name": "C#9",
          "ticks": 14760,
          "time": 36.9,
          "velocity": 0.9133858267716536
        },
        {
          "duration": 0.14999999999999858,
          "durationTicks": 60,
          "midi": 42,
          "name": "F#2",
          "ticks": 14760,
          "time": 36.9,
          "velocity": 0.7874015748031497
        },
        {
          "duration": 0.14999999999999858,
          "durationTicks": 60,
          "midi": 82,
          "name": "A#5",
          "ticks": 14760,
          "time": 36.9,
          "velocity": 1
        },
        {
          "duration": 0.14999999999999858,
          "durationTicks": 60,
          "midi": 121,
          "name": "C#9",
          "ticks": 14820,
          "time": 37.05,
          "velocity": 0.9133858267716536
        },
        {
          "duration": 0.14999999999999858,
          "durationTicks": 60,
          "midi": 42,
          "name": "F#2",
          "ticks": 14820,
          "time": 37.05,
          "velocity": 0.7874015748031497
        },
        {
          "duration": 0.14999999999999858,
          "durationTicks": 60,
          "midi": 82,
          "name": "A#5",
          "ticks": 14820,
          "time": 37.05,
          "velocity": 0.5039370078740157
        },
        {
          "duration": 0.14999999999999858,
          "durationTicks": 60,
          "midi": 49,
          "name": "C#3",
          "ticks": 14880,
          "time": 37.199999999999996,
          "velocity": 0.7874015748031497
        },
        {
          "duration": 0.14999999999999858,
          "durationTicks": 60,
          "midi": 36,
          "name": "C2",
          "ticks": 14880,
          "time": 37.199999999999996,
          "velocity": 0.7874015748031497
        },
        {
          "duration": 0.14999999999999858,
          "durationTicks": 60,
          "midi": 82,
          "name": "A#5",
          "ticks": 14880,
          "time": 37.199999999999996,
          "velocity": 1
        },
        {
          "duration": 0.15000000000000568,
          "durationTicks": 60,
          "midi": 82,
          "name": "A#5",
          "ticks": 14940,
          "time": 37.349999999999994,
          "velocity": 0.5039370078740157
        },
        {
          "duration": 0.14999999999999858,
          "durationTicks": 60,
          "midi": 121,
          "name": "C#9",
          "ticks": 15000,
          "time": 37.5,
          "velocity": 0.9133858267716536
        },
        {
          "duration": 0.14999999999999858,
          "durationTicks": 60,
          "midi": 42,
          "name": "F#2",
          "ticks": 15000,
          "time": 37.5,
          "velocity": 0.7874015748031497
        },
        {
          "duration": 0.14999999999999858,
          "durationTicks": 60,
          "midi": 82,
          "name": "A#5",
          "ticks": 15000,
          "time": 37.5,
          "velocity": 1
        },
        {
          "duration": 0.14999999999999858,
          "durationTicks": 60,
          "midi": 36,
          "name": "C2",
          "ticks": 15060,
          "time": 37.65,
          "velocity": 0.7874015748031497
        },
        {
          "duration": 0.14999999999999858,
          "durationTicks": 60,
          "midi": 82,
          "name": "A#5",
          "ticks": 15060,
          "time": 37.65,
          "velocity": 0.5039370078740157
        },
        {
          "duration": 0.14999999999999858,
          "durationTicks": 60,
          "midi": 42,
          "name": "F#2",
          "ticks": 15120,
          "time": 37.8,
          "velocity": 0.7874015748031497
        },
        {
          "duration": 0.14999999999999858,
          "durationTicks": 60,
          "midi": 36,
          "name": "C2",
          "ticks": 15120,
          "time": 37.8,
          "velocity": 0.7874015748031497
        },
        {
          "duration": 0.14999999999999858,
          "durationTicks": 60,
          "midi": 82,
          "name": "A#5",
          "ticks": 15120,
          "time": 37.8,
          "velocity": 1
        },
        {
          "duration": 0.14999999999999858,
          "durationTicks": 60,
          "midi": 82,
          "name": "A#5",
          "ticks": 15180,
          "time": 37.949999999999996,
          "velocity": 0.5039370078740157
        },
        {
          "duration": 0.15000000000000568,
          "durationTicks": 60,
          "midi": 121,
          "name": "C#9",
          "ticks": 15240,
          "time": 38.099999999999994,
          "velocity": 0.9133858267716536
        },
        {
          "duration": 0.15000000000000568,
          "durationTicks": 60,
          "midi": 42,
          "name": "F#2",
          "ticks": 15240,
          "time": 38.099999999999994,
          "velocity": 0.7874015748031497
        },
        {
          "duration": 0.15000000000000568,
          "durationTicks": 60,
          "midi": 82,
          "name": "A#5",
          "ticks": 15240,
          "time": 38.099999999999994,
          "velocity": 1
        },
        {
          "duration": 0.15000000000000568,
          "durationTicks": 60,
          "midi": 39,
          "name": "D#2",
          "ticks": 15240,
          "time": 38.099999999999994,
          "velocity": 0.7874015748031497
        },
        {
          "duration": 0.14999999999999858,
          "durationTicks": 60,
          "midi": 82,
          "name": "A#5",
          "ticks": 15300,
          "time": 38.25,
          "velocity": 0.5039370078740157
        },
        {
          "duration": 0.14999999999999858,
          "durationTicks": 60,
          "midi": 42,
          "name": "F#2",
          "ticks": 15360,
          "time": 38.4,
          "velocity": 0.7874015748031497
        },
        {
          "duration": 0.14999999999999858,
          "durationTicks": 60,
          "midi": 36,
          "name": "C2",
          "ticks": 15360,
          "time": 38.4,
          "velocity": 0.7874015748031497
        },
        {
          "duration": 0.14999999999999858,
          "durationTicks": 60,
          "midi": 82,
          "name": "A#5",
          "ticks": 15360,
          "time": 38.4,
          "velocity": 0.5039370078740157
        },
        {
          "duration": 0.14999999999999858,
          "durationTicks": 60,
          "midi": 42,
          "name": "F#2",
          "ticks": 15420,
          "time": 38.55,
          "velocity": 0.7874015748031497
        },
        {
          "duration": 0.14999999999999858,
          "durationTicks": 60,
          "midi": 82,
          "name": "A#5",
          "ticks": 15420,
          "time": 38.55,
          "velocity": 0.5039370078740157
        },
        {
          "duration": 0.14999999999999858,
          "durationTicks": 60,
          "midi": 121,
          "name": "C#9",
          "ticks": 15480,
          "time": 38.699999999999996,
          "velocity": 0.9133858267716536
        },
        {
          "duration": 0.14999999999999858,
          "durationTicks": 60,
          "midi": 42,
          "name": "F#2",
          "ticks": 15480,
          "time": 38.699999999999996,
          "velocity": 0.7874015748031497
        },
        {
          "duration": 0.14999999999999858,
          "durationTicks": 60,
          "midi": 82,
          "name": "A#5",
          "ticks": 15480,
          "time": 38.699999999999996,
          "velocity": 0.5039370078740157
        },
        {
          "duration": 0.15000000000000568,
          "durationTicks": 60,
          "midi": 36,
          "name": "C2",
          "ticks": 15540,
          "time": 38.849999999999994,
          "velocity": 0.7874015748031497
        },
        {
          "duration": 0.15000000000000568,
          "durationTicks": 60,
          "midi": 82,
          "name": "A#5",
          "ticks": 15540,
          "time": 38.849999999999994,
          "velocity": 0.5039370078740157
        },
        {
          "duration": 0.14999999999999858,
          "durationTicks": 60,
          "midi": 42,
          "name": "F#2",
          "ticks": 15600,
          "time": 39,
          "velocity": 0.7874015748031497
        },
        {
          "duration": 0.14999999999999858,
          "durationTicks": 60,
          "midi": 36,
          "name": "C2",
          "ticks": 15600,
          "time": 39,
          "velocity": 0.7874015748031497
        },
        {
          "duration": 0.14999999999999858,
          "durationTicks": 60,
          "midi": 82,
          "name": "A#5",
          "ticks": 15600,
          "time": 39,
          "velocity": 1
        },
        {
          "duration": 0.14999999999999858,
          "durationTicks": 60,
          "midi": 42,
          "name": "F#2",
          "ticks": 15660,
          "time": 39.15,
          "velocity": 0.7874015748031497
        },
        {
          "duration": 0.14999999999999858,
          "durationTicks": 60,
          "midi": 82,
          "name": "A#5",
          "ticks": 15660,
          "time": 39.15,
          "velocity": 0.5039370078740157
        },
        {
          "duration": 0.14999999999999858,
          "durationTicks": 60,
          "midi": 121,
          "name": "C#9",
          "ticks": 15720,
          "time": 39.3,
          "velocity": 0.9133858267716536
        },
        {
          "duration": 0.14999999999999858,
          "durationTicks": 60,
          "midi": 42,
          "name": "F#2",
          "ticks": 15720,
          "time": 39.3,
          "velocity": 0.7874015748031497
        },
        {
          "duration": 0.14999999999999858,
          "durationTicks": 60,
          "midi": 82,
          "name": "A#5",
          "ticks": 15720,
          "time": 39.3,
          "velocity": 1
        },
        {
          "duration": 0.14999999999999858,
          "durationTicks": 60,
          "midi": 39,
          "name": "D#2",
          "ticks": 15720,
          "time": 39.3,
          "velocity": 0.7874015748031497
        },
        {
          "duration": 0.14999999999999858,
          "durationTicks": 60,
          "midi": 82,
          "name": "A#5",
          "ticks": 15780,
          "time": 39.449999999999996,
          "velocity": 0.5039370078740157
        },
        {
          "duration": 0.15000000000000568,
          "durationTicks": 60,
          "midi": 42,
          "name": "F#2",
          "ticks": 15840,
          "time": 39.599999999999994,
          "velocity": 0.7874015748031497
        },
        {
          "duration": 0.15000000000000568,
          "durationTicks": 60,
          "midi": 36,
          "name": "C2",
          "ticks": 15840,
          "time": 39.599999999999994,
          "velocity": 0.7874015748031497
        },
        {
          "duration": 0.15000000000000568,
          "durationTicks": 60,
          "midi": 82,
          "name": "A#5",
          "ticks": 15840,
          "time": 39.599999999999994,
          "velocity": 1
        },
        {
          "duration": 0.14999999999999858,
          "durationTicks": 60,
          "midi": 42,
          "name": "F#2",
          "ticks": 15900,
          "time": 39.75,
          "velocity": 0.7874015748031497
        },
        {
          "duration": 0.14999999999999858,
          "durationTicks": 60,
          "midi": 82,
          "name": "A#5",
          "ticks": 15900,
          "time": 39.75,
          "velocity": 0.5039370078740157
        },
        {
          "duration": 0.14999999999999858,
          "durationTicks": 60,
          "midi": 121,
          "name": "C#9",
          "ticks": 15960,
          "time": 39.9,
          "velocity": 0.9133858267716536
        },
        {
          "duration": 0.14999999999999858,
          "durationTicks": 60,
          "midi": 42,
          "name": "F#2",
          "ticks": 15960,
          "time": 39.9,
          "velocity": 0.7874015748031497
        },
        {
          "duration": 0.14999999999999858,
          "durationTicks": 60,
          "midi": 82,
          "name": "A#5",
          "ticks": 15960,
          "time": 39.9,
          "velocity": 1
        },
        {
          "duration": 0.14999999999999858,
          "durationTicks": 60,
          "midi": 39,
          "name": "D#2",
          "ticks": 15960,
          "time": 39.9,
          "velocity": 0.7874015748031497
        },
        {
          "duration": 0.14999999999999858,
          "durationTicks": 60,
          "midi": 36,
          "name": "C2",
          "ticks": 16020,
          "time": 40.05,
          "velocity": 0.7874015748031497
        },
        {
          "duration": 0.14999999999999858,
          "durationTicks": 60,
          "midi": 82,
          "name": "A#5",
          "ticks": 16020,
          "time": 40.05,
          "velocity": 0.5039370078740157
        },
        {
          "duration": 0.14999999999999858,
          "durationTicks": 60,
          "midi": 42,
          "name": "F#2",
          "ticks": 16080,
          "time": 40.199999999999996,
          "velocity": 0.7874015748031497
        },
        {
          "duration": 0.14999999999999858,
          "durationTicks": 60,
          "midi": 36,
          "name": "C2",
          "ticks": 16080,
          "time": 40.199999999999996,
          "velocity": 0.7874015748031497
        },
        {
          "duration": 0.14999999999999858,
          "durationTicks": 60,
          "midi": 82,
          "name": "A#5",
          "ticks": 16080,
          "time": 40.199999999999996,
          "velocity": 0.5039370078740157
        },
        {
          "duration": 0.15000000000000568,
          "durationTicks": 60,
          "midi": 42,
          "name": "F#2",
          "ticks": 16140,
          "time": 40.349999999999994,
          "velocity": 0.7874015748031497
        },
        {
          "duration": 0.15000000000000568,
          "durationTicks": 60,
          "midi": 82,
          "name": "A#5",
          "ticks": 16140,
          "time": 40.349999999999994,
          "velocity": 1
        },
        {
          "duration": 0.14999999999999858,
          "durationTicks": 60,
          "midi": 121,
          "name": "C#9",
          "ticks": 16200,
          "time": 40.5,
          "velocity": 0.9133858267716536
        },
        {
          "duration": 0.14999999999999858,
          "durationTicks": 60,
          "midi": 42,
          "name": "F#2",
          "ticks": 16200,
          "time": 40.5,
          "velocity": 0.7874015748031497
        },
        {
          "duration": 0.14999999999999858,
          "durationTicks": 60,
          "midi": 82,
          "name": "A#5",
          "ticks": 16200,
          "time": 40.5,
          "velocity": 1
        },
        {
          "duration": 0.14999999999999858,
          "durationTicks": 60,
          "midi": 39,
          "name": "D#2",
          "ticks": 16200,
          "time": 40.5,
          "velocity": 0.7874015748031497
        },
        {
          "duration": 0.14999999999999858,
          "durationTicks": 60,
          "midi": 36,
          "name": "C2",
          "ticks": 16260,
          "time": 40.65,
          "velocity": 0.7874015748031497
        },
        {
          "duration": 0.14999999999999858,
          "durationTicks": 60,
          "midi": 82,
          "name": "A#5",
          "ticks": 16260,
          "time": 40.65,
          "velocity": 0.5039370078740157
        },
        {
          "duration": 0.14999999999999858,
          "durationTicks": 60,
          "midi": 42,
          "name": "F#2",
          "ticks": 16320,
          "time": 40.8,
          "velocity": 0.7874015748031497
        },
        {
          "duration": 0.14999999999999858,
          "durationTicks": 60,
          "midi": 36,
          "name": "C2",
          "ticks": 16320,
          "time": 40.8,
          "velocity": 0.7874015748031497
        },
        {
          "duration": 0.14999999999999858,
          "durationTicks": 60,
          "midi": 82,
          "name": "A#5",
          "ticks": 16320,
          "time": 40.8,
          "velocity": 0.5039370078740157
        },
        {
          "duration": 0.14999999999999858,
          "durationTicks": 60,
          "midi": 42,
          "name": "F#2",
          "ticks": 16380,
          "time": 40.949999999999996,
          "velocity": 0.7874015748031497
        },
        {
          "duration": 0.14999999999999858,
          "durationTicks": 60,
          "midi": 82,
          "name": "A#5",
          "ticks": 16380,
          "time": 40.949999999999996,
          "velocity": 0.5039370078740157
        },
        {
          "duration": 0.15000000000000568,
          "durationTicks": 60,
          "midi": 121,
          "name": "C#9",
          "ticks": 16440,
          "time": 41.099999999999994,
          "velocity": 0.9133858267716536
        },
        {
          "duration": 0.15000000000000568,
          "durationTicks": 60,
          "midi": 42,
          "name": "F#2",
          "ticks": 16440,
          "time": 41.099999999999994,
          "velocity": 0.7874015748031497
        },
        {
          "duration": 0.15000000000000568,
          "durationTicks": 60,
          "midi": 82,
          "name": "A#5",
          "ticks": 16440,
          "time": 41.099999999999994,
          "velocity": 0.5039370078740157
        },
        {
          "duration": 0.15000000000000568,
          "durationTicks": 60,
          "midi": 39,
          "name": "D#2",
          "ticks": 16440,
          "time": 41.099999999999994,
          "velocity": 0.7874015748031497
        },
        {
          "duration": 0.14999999999999858,
          "durationTicks": 60,
          "midi": 36,
          "name": "C2",
          "ticks": 16500,
          "time": 41.25,
          "velocity": 0.7874015748031497
        },
        {
          "duration": 0.14999999999999858,
          "durationTicks": 60,
          "midi": 82,
          "name": "A#5",
          "ticks": 16500,
          "time": 41.25,
          "velocity": 0.5039370078740157
        },
        {
          "duration": 0.14999999999999858,
          "durationTicks": 60,
          "midi": 42,
          "name": "F#2",
          "ticks": 16560,
          "time": 41.4,
          "velocity": 0.7874015748031497
        },
        {
          "duration": 0.14999999999999858,
          "durationTicks": 60,
          "midi": 36,
          "name": "C2",
          "ticks": 16560,
          "time": 41.4,
          "velocity": 0.7874015748031497
        },
        {
          "duration": 0.14999999999999858,
          "durationTicks": 60,
          "midi": 82,
          "name": "A#5",
          "ticks": 16560,
          "time": 41.4,
          "velocity": 1
        },
        {
          "duration": 0.14999999999999858,
          "durationTicks": 60,
          "midi": 42,
          "name": "F#2",
          "ticks": 16620,
          "time": 41.55,
          "velocity": 0.7874015748031497
        },
        {
          "duration": 0.14999999999999858,
          "durationTicks": 60,
          "midi": 82,
          "name": "A#5",
          "ticks": 16620,
          "time": 41.55,
          "velocity": 1
        },
        {
          "duration": 0.14999999999999858,
          "durationTicks": 60,
          "midi": 121,
          "name": "C#9",
          "ticks": 16680,
          "time": 41.699999999999996,
          "velocity": 0.9133858267716536
        },
        {
          "duration": 0.14999999999999858,
          "durationTicks": 60,
          "midi": 42,
          "name": "F#2",
          "ticks": 16680,
          "time": 41.699999999999996,
          "velocity": 0.7874015748031497
        },
        {
          "duration": 0.14999999999999858,
          "durationTicks": 60,
          "midi": 82,
          "name": "A#5",
          "ticks": 16680,
          "time": 41.699999999999996,
          "velocity": 1
        },
        {
          "duration": 0.14999999999999858,
          "durationTicks": 60,
          "midi": 39,
          "name": "D#2",
          "ticks": 16680,
          "time": 41.699999999999996,
          "velocity": 0.7874015748031497
        },
        {
          "duration": 0.15000000000000568,
          "durationTicks": 60,
          "midi": 82,
          "name": "A#5",
          "ticks": 16740,
          "time": 41.849999999999994,
          "velocity": 0.5039370078740157
        },
        {
          "duration": 0.14999999999999858,
          "durationTicks": 60,
          "midi": 49,
          "name": "C#3",
          "ticks": 16800,
          "time": 42,
          "velocity": 0.7874015748031497
        },
        {
          "duration": 0.14999999999999858,
          "durationTicks": 60,
          "midi": 36,
          "name": "C2",
          "ticks": 16800,
          "time": 42,
          "velocity": 0.7874015748031497
        },
        {
          "duration": 0.14999999999999858,
          "durationTicks": 60,
          "midi": 82,
          "name": "A#5",
          "ticks": 16800,
          "time": 42,
          "velocity": 1
        },
        {
          "duration": 0.14999999999999858,
          "durationTicks": 60,
          "midi": 82,
          "name": "A#5",
          "ticks": 16860,
          "time": 42.15,
          "velocity": 0.5039370078740157
        },
        {
          "duration": 0.14999999999999858,
          "durationTicks": 60,
          "midi": 121,
          "name": "C#9",
          "ticks": 16920,
          "time": 42.3,
          "velocity": 0.9133858267716536
        },
        {
          "duration": 0.14999999999999858,
          "durationTicks": 60,
          "midi": 42,
          "name": "F#2",
          "ticks": 16920,
          "time": 42.3,
          "velocity": 0.7874015748031497
        },
        {
          "duration": 0.14999999999999858,
          "durationTicks": 60,
          "midi": 82,
          "name": "A#5",
          "ticks": 16920,
          "time": 42.3,
          "velocity": 1
        },
        {
          "duration": 0.14999999999999858,
          "durationTicks": 60,
          "midi": 36,
          "name": "C2",
          "ticks": 16980,
          "time": 42.449999999999996,
          "velocity": 0.7874015748031497
        },
        {
          "duration": 0.14999999999999858,
          "durationTicks": 60,
          "midi": 82,
          "name": "A#5",
          "ticks": 16980,
          "time": 42.449999999999996,
          "velocity": 0.5039370078740157
        },
        {
          "duration": 0.15000000000000568,
          "durationTicks": 60,
          "midi": 42,
          "name": "F#2",
          "ticks": 17040,
          "time": 42.599999999999994,
          "velocity": 0.7874015748031497
        },
        {
          "duration": 0.15000000000000568,
          "durationTicks": 60,
          "midi": 36,
          "name": "C2",
          "ticks": 17040,
          "time": 42.599999999999994,
          "velocity": 0.7874015748031497
        },
        {
          "duration": 0.15000000000000568,
          "durationTicks": 60,
          "midi": 82,
          "name": "A#5",
          "ticks": 17040,
          "time": 42.599999999999994,
          "velocity": 1
        },
        {
          "duration": 0.14999999999999858,
          "durationTicks": 60,
          "midi": 82,
          "name": "A#5",
          "ticks": 17100,
          "time": 42.75,
          "velocity": 0.5039370078740157
        },
        {
          "duration": 0.14999999999999858,
          "durationTicks": 60,
          "midi": 121,
          "name": "C#9",
          "ticks": 17160,
          "time": 42.9,
          "velocity": 0.9133858267716536
        },
        {
          "duration": 0.14999999999999858,
          "durationTicks": 60,
          "midi": 42,
          "name": "F#2",
          "ticks": 17160,
          "time": 42.9,
          "velocity": 0.7874015748031497
        },
        {
          "duration": 0.14999999999999858,
          "durationTicks": 60,
          "midi": 82,
          "name": "A#5",
          "ticks": 17160,
          "time": 42.9,
          "velocity": 1
        },
        {
          "duration": 0.14999999999999858,
          "durationTicks": 60,
          "midi": 39,
          "name": "D#2",
          "ticks": 17160,
          "time": 42.9,
          "velocity": 0.7874015748031497
        },
        {
          "duration": 0.14999999999999858,
          "durationTicks": 60,
          "midi": 82,
          "name": "A#5",
          "ticks": 17220,
          "time": 43.05,
          "velocity": 0.5039370078740157
        },
        {
          "duration": 0.14999999999999858,
          "durationTicks": 60,
          "midi": 42,
          "name": "F#2",
          "ticks": 17280,
          "time": 43.199999999999996,
          "velocity": 0.7874015748031497
        },
        {
          "duration": 0.14999999999999858,
          "durationTicks": 60,
          "midi": 36,
          "name": "C2",
          "ticks": 17280,
          "time": 43.199999999999996,
          "velocity": 0.7874015748031497
        },
        {
          "duration": 0.14999999999999858,
          "durationTicks": 60,
          "midi": 82,
          "name": "A#5",
          "ticks": 17280,
          "time": 43.199999999999996,
          "velocity": 0.5039370078740157
        },
        {
          "duration": 0.15000000000000568,
          "durationTicks": 60,
          "midi": 42,
          "name": "F#2",
          "ticks": 17340,
          "time": 43.349999999999994,
          "velocity": 0.7874015748031497
        },
        {
          "duration": 0.15000000000000568,
          "durationTicks": 60,
          "midi": 82,
          "name": "A#5",
          "ticks": 17340,
          "time": 43.349999999999994,
          "velocity": 0.5039370078740157
        },
        {
          "duration": 0.14999999999999858,
          "durationTicks": 60,
          "midi": 121,
          "name": "C#9",
          "ticks": 17400,
          "time": 43.5,
          "velocity": 0.9133858267716536
        },
        {
          "duration": 0.14999999999999858,
          "durationTicks": 60,
          "midi": 42,
          "name": "F#2",
          "ticks": 17400,
          "time": 43.5,
          "velocity": 0.7874015748031497
        },
        {
          "duration": 0.14999999999999858,
          "durationTicks": 60,
          "midi": 82,
          "name": "A#5",
          "ticks": 17400,
          "time": 43.5,
          "velocity": 0.5039370078740157
        },
        {
          "duration": 0.14999999999999858,
          "durationTicks": 60,
          "midi": 36,
          "name": "C2",
          "ticks": 17460,
          "time": 43.65,
          "velocity": 0.7874015748031497
        },
        {
          "duration": 0.14999999999999858,
          "durationTicks": 60,
          "midi": 82,
          "name": "A#5",
          "ticks": 17460,
          "time": 43.65,
          "velocity": 0.5039370078740157
        },
        {
          "duration": 0.14999999999999858,
          "durationTicks": 60,
          "midi": 42,
          "name": "F#2",
          "ticks": 17520,
          "time": 43.8,
          "velocity": 0.7874015748031497
        },
        {
          "duration": 0.14999999999999858,
          "durationTicks": 60,
          "midi": 36,
          "name": "C2",
          "ticks": 17520,
          "time": 43.8,
          "velocity": 0.7874015748031497
        },
        {
          "duration": 0.14999999999999858,
          "durationTicks": 60,
          "midi": 82,
          "name": "A#5",
          "ticks": 17520,
          "time": 43.8,
          "velocity": 1
        },
        {
          "duration": 0.14999999999999858,
          "durationTicks": 60,
          "midi": 42,
          "name": "F#2",
          "ticks": 17580,
          "time": 43.949999999999996,
          "velocity": 0.7874015748031497
        },
        {
          "duration": 0.14999999999999858,
          "durationTicks": 60,
          "midi": 82,
          "name": "A#5",
          "ticks": 17580,
          "time": 43.949999999999996,
          "velocity": 0.5039370078740157
        },
        {
          "duration": 0.15000000000000568,
          "durationTicks": 60,
          "midi": 121,
          "name": "C#9",
          "ticks": 17640,
          "time": 44.099999999999994,
          "velocity": 0.9133858267716536
        },
        {
          "duration": 0.15000000000000568,
          "durationTicks": 60,
          "midi": 42,
          "name": "F#2",
          "ticks": 17640,
          "time": 44.099999999999994,
          "velocity": 0.7874015748031497
        },
        {
          "duration": 0.15000000000000568,
          "durationTicks": 60,
          "midi": 82,
          "name": "A#5",
          "ticks": 17640,
          "time": 44.099999999999994,
          "velocity": 1
        },
        {
          "duration": 0.15000000000000568,
          "durationTicks": 60,
          "midi": 39,
          "name": "D#2",
          "ticks": 17640,
          "time": 44.099999999999994,
          "velocity": 0.7874015748031497
        },
        {
          "duration": 0.14999999999999858,
          "durationTicks": 60,
          "midi": 82,
          "name": "A#5",
          "ticks": 17700,
          "time": 44.25,
          "velocity": 0.5039370078740157
        },
        {
          "duration": 0.14999999999999858,
          "durationTicks": 60,
          "midi": 42,
          "name": "F#2",
          "ticks": 17760,
          "time": 44.4,
          "velocity": 0.7874015748031497
        },
        {
          "duration": 0.14999999999999858,
          "durationTicks": 60,
          "midi": 36,
          "name": "C2",
          "ticks": 17760,
          "time": 44.4,
          "velocity": 0.7874015748031497
        },
        {
          "duration": 0.14999999999999858,
          "durationTicks": 60,
          "midi": 82,
          "name": "A#5",
          "ticks": 17760,
          "time": 44.4,
          "velocity": 1
        },
        {
          "duration": 0.14999999999999858,
          "durationTicks": 60,
          "midi": 42,
          "name": "F#2",
          "ticks": 17820,
          "time": 44.55,
          "velocity": 0.7874015748031497
        },
        {
          "duration": 0.14999999999999858,
          "durationTicks": 60,
          "midi": 82,
          "name": "A#5",
          "ticks": 17820,
          "time": 44.55,
          "velocity": 0.5039370078740157
        },
        {
          "duration": 0.14999999999999858,
          "durationTicks": 60,
          "midi": 121,
          "name": "C#9",
          "ticks": 17880,
          "time": 44.699999999999996,
          "velocity": 0.9133858267716536
        },
        {
          "duration": 0.14999999999999858,
          "durationTicks": 60,
          "midi": 42,
          "name": "F#2",
          "ticks": 17880,
          "time": 44.699999999999996,
          "velocity": 0.7874015748031497
        },
        {
          "duration": 0.14999999999999858,
          "durationTicks": 60,
          "midi": 82,
          "name": "A#5",
          "ticks": 17880,
          "time": 44.699999999999996,
          "velocity": 1
        },
        {
          "duration": 0.14999999999999858,
          "durationTicks": 60,
          "midi": 39,
          "name": "D#2",
          "ticks": 17880,
          "time": 44.699999999999996,
          "velocity": 0.7874015748031497
        },
        {
          "duration": 0.15000000000000568,
          "durationTicks": 60,
          "midi": 36,
          "name": "C2",
          "ticks": 17940,
          "time": 44.849999999999994,
          "velocity": 0.7874015748031497
        },
        {
          "duration": 0.15000000000000568,
          "durationTicks": 60,
          "midi": 82,
          "name": "A#5",
          "ticks": 17940,
          "time": 44.849999999999994,
          "velocity": 0.5039370078740157
        },
        {
          "duration": 0.14999999999999858,
          "durationTicks": 60,
          "midi": 42,
          "name": "F#2",
          "ticks": 18000,
          "time": 45,
          "velocity": 0.7874015748031497
        },
        {
          "duration": 0.14999999999999858,
          "durationTicks": 60,
          "midi": 36,
          "name": "C2",
          "ticks": 18000,
          "time": 45,
          "velocity": 0.7874015748031497
        },
        {
          "duration": 0.14999999999999858,
          "durationTicks": 60,
          "midi": 82,
          "name": "A#5",
          "ticks": 18000,
          "time": 45,
          "velocity": 0.5039370078740157
        },
        {
          "duration": 0.14999999999999858,
          "durationTicks": 60,
          "midi": 42,
          "name": "F#2",
          "ticks": 18060,
          "time": 45.15,
          "velocity": 0.7874015748031497
        },
        {
          "duration": 0.14999999999999858,
          "durationTicks": 60,
          "midi": 82,
          "name": "A#5",
          "ticks": 18060,
          "time": 45.15,
          "velocity": 1
        },
        {
          "duration": 0.14999999999999858,
          "durationTicks": 60,
          "midi": 121,
          "name": "C#9",
          "ticks": 18120,
          "time": 45.3,
          "velocity": 0.9133858267716536
        },
        {
          "duration": 0.14999999999999858,
          "durationTicks": 60,
          "midi": 42,
          "name": "F#2",
          "ticks": 18120,
          "time": 45.3,
          "velocity": 0.7874015748031497
        },
        {
          "duration": 0.14999999999999858,
          "durationTicks": 60,
          "midi": 82,
          "name": "A#5",
          "ticks": 18120,
          "time": 45.3,
          "velocity": 1
        },
        {
          "duration": 0.14999999999999858,
          "durationTicks": 60,
          "midi": 39,
          "name": "D#2",
          "ticks": 18120,
          "time": 45.3,
          "velocity": 0.7874015748031497
        },
        {
          "duration": 0.14999999999999858,
          "durationTicks": 60,
          "midi": 36,
          "name": "C2",
          "ticks": 18180,
          "time": 45.449999999999996,
          "velocity": 0.7874015748031497
        },
        {
          "duration": 0.14999999999999858,
          "durationTicks": 60,
          "midi": 82,
          "name": "A#5",
          "ticks": 18180,
          "time": 45.449999999999996,
          "velocity": 0.5039370078740157
        },
        {
          "duration": 0.15000000000000568,
          "durationTicks": 60,
          "midi": 42,
          "name": "F#2",
          "ticks": 18240,
          "time": 45.599999999999994,
          "velocity": 0.7874015748031497
        },
        {
          "duration": 0.15000000000000568,
          "durationTicks": 60,
          "midi": 36,
          "name": "C2",
          "ticks": 18240,
          "time": 45.599999999999994,
          "velocity": 0.7874015748031497
        },
        {
          "duration": 0.15000000000000568,
          "durationTicks": 60,
          "midi": 82,
          "name": "A#5",
          "ticks": 18240,
          "time": 45.599999999999994,
          "velocity": 0.5039370078740157
        },
        {
          "duration": 0.14999999999999858,
          "durationTicks": 60,
          "midi": 42,
          "name": "F#2",
          "ticks": 18300,
          "time": 45.75,
          "velocity": 0.7874015748031497
        },
        {
          "duration": 0.14999999999999858,
          "durationTicks": 60,
          "midi": 82,
          "name": "A#5",
          "ticks": 18300,
          "time": 45.75,
          "velocity": 0.5039370078740157
        },
        {
          "duration": 0.14999999999999858,
          "durationTicks": 60,
          "midi": 121,
          "name": "C#9",
          "ticks": 18360,
          "time": 45.9,
          "velocity": 0.9133858267716536
        },
        {
          "duration": 0.14999999999999858,
          "durationTicks": 60,
          "midi": 42,
          "name": "F#2",
          "ticks": 18360,
          "time": 45.9,
          "velocity": 0.7874015748031497
        },
        {
          "duration": 0.14999999999999858,
          "durationTicks": 60,
          "midi": 82,
          "name": "A#5",
          "ticks": 18360,
          "time": 45.9,
          "velocity": 0.5039370078740157
        },
        {
          "duration": 0.14999999999999858,
          "durationTicks": 60,
          "midi": 39,
          "name": "D#2",
          "ticks": 18360,
          "time": 45.9,
          "velocity": 0.7874015748031497
        },
        {
          "duration": 0.14999999999999858,
          "durationTicks": 60,
          "midi": 36,
          "name": "C2",
          "ticks": 18420,
          "time": 46.05,
          "velocity": 0.7874015748031497
        },
        {
          "duration": 0.14999999999999858,
          "durationTicks": 60,
          "midi": 82,
          "name": "A#5",
          "ticks": 18420,
          "time": 46.05,
          "velocity": 0.5039370078740157
        },
        {
          "duration": 0.14999999999999858,
          "durationTicks": 60,
          "midi": 42,
          "name": "F#2",
          "ticks": 18480,
          "time": 46.199999999999996,
          "velocity": 0.7874015748031497
        },
        {
          "duration": 0.14999999999999858,
          "durationTicks": 60,
          "midi": 36,
          "name": "C2",
          "ticks": 18480,
          "time": 46.199999999999996,
          "velocity": 0.7874015748031497
        },
        {
          "duration": 0.14999999999999858,
          "durationTicks": 60,
          "midi": 82,
          "name": "A#5",
          "ticks": 18480,
          "time": 46.199999999999996,
          "velocity": 1
        },
        {
          "duration": 0.15000000000000568,
          "durationTicks": 60,
          "midi": 121,
          "name": "C#9",
          "ticks": 18540,
          "time": 46.349999999999994,
          "velocity": 0.9133858267716536
        },
        {
          "duration": 0.15000000000000568,
          "durationTicks": 60,
          "midi": 42,
          "name": "F#2",
          "ticks": 18540,
          "time": 46.349999999999994,
          "velocity": 0.7874015748031497
        },
        {
          "duration": 0.15000000000000568,
          "durationTicks": 60,
          "midi": 82,
          "name": "A#5",
          "ticks": 18540,
          "time": 46.349999999999994,
          "velocity": 1
        },
        {
          "duration": 0.15000000000000568,
          "durationTicks": 60,
          "midi": 39,
          "name": "D#2",
          "ticks": 18540,
          "time": 46.349999999999994,
          "velocity": 0.7874015748031497
        },
        {
          "duration": 0.14999999999999858,
          "durationTicks": 60,
          "midi": 121,
          "name": "C#9",
          "ticks": 18600,
          "time": 46.5,
          "velocity": 0.9133858267716536
        },
        {
          "duration": 0.14999999999999858,
          "durationTicks": 60,
          "midi": 42,
          "name": "F#2",
          "ticks": 18600,
          "time": 46.5,
          "velocity": 0.7874015748031497
        },
        {
          "duration": 0.14999999999999858,
          "durationTicks": 60,
          "midi": 82,
          "name": "A#5",
          "ticks": 18600,
          "time": 46.5,
          "velocity": 1
        },
        {
          "duration": 0.14999999999999858,
          "durationTicks": 60,
          "midi": 39,
          "name": "D#2",
          "ticks": 18600,
          "time": 46.5,
          "velocity": 0.7874015748031497
        },
        {
          "duration": 0.14999999999999858,
          "durationTicks": 60,
          "midi": 121,
          "name": "C#9",
          "ticks": 18660,
          "time": 46.65,
          "velocity": 0.9133858267716536
        },
        {
          "duration": 0.14999999999999858,
          "durationTicks": 60,
          "midi": 82,
          "name": "A#5",
          "ticks": 18660,
          "time": 46.65,
          "velocity": 0.5039370078740157
        },
        {
          "duration": 0.14999999999999858,
          "durationTicks": 60,
          "midi": 49,
          "name": "C#3",
          "ticks": 18720,
          "time": 46.8,
          "velocity": 0.7874015748031497
        },
        {
          "duration": 0.14999999999999858,
          "durationTicks": 60,
          "midi": 36,
          "name": "C2",
          "ticks": 18720,
          "time": 46.8,
          "velocity": 0.7874015748031497
        },
        {
          "duration": 0.14999999999999858,
          "durationTicks": 60,
          "midi": 82,
          "name": "A#5",
          "ticks": 18720,
          "time": 46.8,
          "velocity": 1
        },
        {
          "duration": 0.14999999999999858,
          "durationTicks": 60,
          "midi": 82,
          "name": "A#5",
          "ticks": 18780,
          "time": 46.949999999999996,
          "velocity": 0.5039370078740157
        },
        {
          "duration": 0.15000000000000568,
          "durationTicks": 60,
          "midi": 42,
          "name": "F#2",
          "ticks": 18840,
          "time": 47.099999999999994,
          "velocity": 0.7874015748031497
        },
        {
          "duration": 0.15000000000000568,
          "durationTicks": 60,
          "midi": 82,
          "name": "A#5",
          "ticks": 18840,
          "time": 47.099999999999994,
          "velocity": 1
        },
        {
          "duration": 0.14999999999999858,
          "durationTicks": 60,
          "midi": 42,
          "name": "F#2",
          "ticks": 18900,
          "time": 47.25,
          "velocity": 0.7874015748031497
        },
        {
          "duration": 0.14999999999999858,
          "durationTicks": 60,
          "midi": 36,
          "name": "C2",
          "ticks": 18900,
          "time": 47.25,
          "velocity": 0.7874015748031497
        },
        {
          "duration": 0.14999999999999858,
          "durationTicks": 60,
          "midi": 82,
          "name": "A#5",
          "ticks": 18900,
          "time": 47.25,
          "velocity": 0.5039370078740157
        },
        {
          "duration": 0.14999999999999858,
          "durationTicks": 60,
          "midi": 42,
          "name": "F#2",
          "ticks": 18960,
          "time": 47.4,
          "velocity": 0.7874015748031497
        },
        {
          "duration": 0.14999999999999858,
          "durationTicks": 60,
          "midi": 36,
          "name": "C2",
          "ticks": 18960,
          "time": 47.4,
          "velocity": 0.7874015748031497
        },
        {
          "duration": 0.14999999999999858,
          "durationTicks": 60,
          "midi": 82,
          "name": "A#5",
          "ticks": 18960,
          "time": 47.4,
          "velocity": 0.5039370078740157
        },
        {
          "duration": 0.14999999999999858,
          "durationTicks": 60,
          "midi": 46,
          "name": "A#2",
          "ticks": 19020,
          "time": 47.55,
          "velocity": 0.7874015748031497
        },
        {
          "duration": 0.14999999999999858,
          "durationTicks": 60,
          "midi": 82,
          "name": "A#5",
          "ticks": 19020,
          "time": 47.55,
          "velocity": 0.5039370078740157
        },
        {
          "duration": 0.14999999999999858,
          "durationTicks": 60,
          "midi": 121,
          "name": "C#9",
          "ticks": 19080,
          "time": 47.699999999999996,
          "velocity": 0.9133858267716536
        },
        {
          "duration": 0.14999999999999858,
          "durationTicks": 60,
          "midi": 42,
          "name": "F#2",
          "ticks": 19080,
          "time": 47.699999999999996,
          "velocity": 0.7874015748031497
        },
        {
          "duration": 0.14999999999999858,
          "durationTicks": 60,
          "midi": 82,
          "name": "A#5",
          "ticks": 19080,
          "time": 47.699999999999996,
          "velocity": 1
        },
        {
          "duration": 0.14999999999999858,
          "durationTicks": 60,
          "midi": 39,
          "name": "D#2",
          "ticks": 19080,
          "time": 47.699999999999996,
          "velocity": 0.7874015748031497
        },
        {
          "duration": 0.15000000000000568,
          "durationTicks": 60,
          "midi": 42,
          "name": "F#2",
          "ticks": 19140,
          "time": 47.849999999999994,
          "velocity": 0.7874015748031497
        },
        {
          "duration": 0.15000000000000568,
          "durationTicks": 60,
          "midi": 82,
          "name": "A#5",
          "ticks": 19140,
          "time": 47.849999999999994,
          "velocity": 1
        },
        {
          "duration": 0.14999999999999858,
          "durationTicks": 60,
          "midi": 42,
          "name": "F#2",
          "ticks": 19200,
          "time": 48,
          "velocity": 0.7874015748031497
        },
        {
          "duration": 0.14999999999999858,
          "durationTicks": 60,
          "midi": 36,
          "name": "C2",
          "ticks": 19200,
          "time": 48,
          "velocity": 0.7874015748031497
        },
        {
          "duration": 0.14999999999999858,
          "durationTicks": 60,
          "midi": 82,
          "name": "A#5",
          "ticks": 19200,
          "time": 48,
          "velocity": 0.5039370078740157
        },
        {
          "duration": 0.14999999999999858,
          "durationTicks": 60,
          "midi": 42,
          "name": "F#2",
          "ticks": 19260,
          "time": 48.15,
          "velocity": 0.7874015748031497
        },
        {
          "duration": 0.14999999999999858,
          "durationTicks": 60,
          "midi": 82,
          "name": "A#5",
          "ticks": 19260,
          "time": 48.15,
          "velocity": 0.5039370078740157
        },
        {
          "duration": 0.14999999999999858,
          "durationTicks": 60,
          "midi": 42,
          "name": "F#2",
          "ticks": 19320,
          "time": 48.3,
          "velocity": 0.7874015748031497
        },
        {
          "duration": 0.14999999999999858,
          "durationTicks": 60,
          "midi": 82,
          "name": "A#5",
          "ticks": 19320,
          "time": 48.3,
          "velocity": 1
        },
        {
          "duration": 0.14999999999999858,
          "durationTicks": 60,
          "midi": 42,
          "name": "F#2",
          "ticks": 19380,
          "time": 48.449999999999996,
          "velocity": 0.7874015748031497
        },
        {
          "duration": 0.14999999999999858,
          "durationTicks": 60,
          "midi": 36,
          "name": "C2",
          "ticks": 19380,
          "time": 48.449999999999996,
          "velocity": 0.7874015748031497
        },
        {
          "duration": 0.14999999999999858,
          "durationTicks": 60,
          "midi": 82,
          "name": "A#5",
          "ticks": 19380,
          "time": 48.449999999999996,
          "velocity": 1
        },
        {
          "duration": 0.15000000000000568,
          "durationTicks": 60,
          "midi": 42,
          "name": "F#2",
          "ticks": 19440,
          "time": 48.599999999999994,
          "velocity": 0.7874015748031497
        },
        {
          "duration": 0.15000000000000568,
          "durationTicks": 60,
          "midi": 36,
          "name": "C2",
          "ticks": 19440,
          "time": 48.599999999999994,
          "velocity": 0.7874015748031497
        },
        {
          "duration": 0.15000000000000568,
          "durationTicks": 60,
          "midi": 82,
          "name": "A#5",
          "ticks": 19440,
          "time": 48.599999999999994,
          "velocity": 0.5039370078740157
        },
        {
          "duration": 0.14999999999999858,
          "durationTicks": 60,
          "midi": 46,
          "name": "A#2",
          "ticks": 19500,
          "time": 48.75,
          "velocity": 0.7874015748031497
        },
        {
          "duration": 0.14999999999999858,
          "durationTicks": 60,
          "midi": 82,
          "name": "A#5",
          "ticks": 19500,
          "time": 48.75,
          "velocity": 0.5039370078740157
        },
        {
          "duration": 0.14999999999999858,
          "durationTicks": 60,
          "midi": 121,
          "name": "C#9",
          "ticks": 19560,
          "time": 48.9,
          "velocity": 0.9133858267716536
        },
        {
          "duration": 0.14999999999999858,
          "durationTicks": 60,
          "midi": 42,
          "name": "F#2",
          "ticks": 19560,
          "time": 48.9,
          "velocity": 0.7874015748031497
        },
        {
          "duration": 0.14999999999999858,
          "durationTicks": 60,
          "midi": 82,
          "name": "A#5",
          "ticks": 19560,
          "time": 48.9,
          "velocity": 1
        },
        {
          "duration": 0.14999999999999858,
          "durationTicks": 60,
          "midi": 39,
          "name": "D#2",
          "ticks": 19560,
          "time": 48.9,
          "velocity": 0.7874015748031497
        },
        {
          "duration": 0.14999999999999858,
          "durationTicks": 60,
          "midi": 42,
          "name": "F#2",
          "ticks": 19620,
          "time": 49.05,
          "velocity": 0.7874015748031497
        },
        {
          "duration": 0.14999999999999858,
          "durationTicks": 60,
          "midi": 82,
          "name": "A#5",
          "ticks": 19620,
          "time": 49.05,
          "velocity": 1
        },
        {
          "duration": 0.14999999999999858,
          "durationTicks": 60,
          "midi": 42,
          "name": "F#2",
          "ticks": 19680,
          "time": 49.199999999999996,
          "velocity": 0.7874015748031497
        },
        {
          "duration": 0.14999999999999858,
          "durationTicks": 60,
          "midi": 36,
          "name": "C2",
          "ticks": 19680,
          "time": 49.199999999999996,
          "velocity": 0.7874015748031497
        },
        {
          "duration": 0.14999999999999858,
          "durationTicks": 60,
          "midi": 82,
          "name": "A#5",
          "ticks": 19680,
          "time": 49.199999999999996,
          "velocity": 1
        },
        {
          "duration": 0.15000000000000568,
          "durationTicks": 60,
          "midi": 46,
          "name": "A#2",
          "ticks": 19740,
          "time": 49.349999999999994,
          "velocity": 0.7874015748031497
        },
        {
          "duration": 0.15000000000000568,
          "durationTicks": 60,
          "midi": 82,
          "name": "A#5",
          "ticks": 19740,
          "time": 49.349999999999994,
          "velocity": 0.5039370078740157
        },
        {
          "duration": 0.14999999999999858,
          "durationTicks": 60,
          "midi": 121,
          "name": "C#9",
          "ticks": 19800,
          "time": 49.5,
          "velocity": 0.9133858267716536
        },
        {
          "duration": 0.14999999999999858,
          "durationTicks": 60,
          "midi": 42,
          "name": "F#2",
          "ticks": 19800,
          "time": 49.5,
          "velocity": 0.7874015748031497
        },
        {
          "duration": 0.14999999999999858,
          "durationTicks": 60,
          "midi": 82,
          "name": "A#5",
          "ticks": 19800,
          "time": 49.5,
          "velocity": 1
        },
        {
          "duration": 0.14999999999999858,
          "durationTicks": 60,
          "midi": 39,
          "name": "D#2",
          "ticks": 19800,
          "time": 49.5,
          "velocity": 0.7874015748031497
        },
        {
          "duration": 0.14999999999999858,
          "durationTicks": 60,
          "midi": 42,
          "name": "F#2",
          "ticks": 19860,
          "time": 49.65,
          "velocity": 0.7874015748031497
        },
        {
          "duration": 0.14999999999999858,
          "durationTicks": 60,
          "midi": 36,
          "name": "C2",
          "ticks": 19860,
          "time": 49.65,
          "velocity": 0.7874015748031497
        },
        {
          "duration": 0.14999999999999858,
          "durationTicks": 60,
          "midi": 82,
          "name": "A#5",
          "ticks": 19860,
          "time": 49.65,
          "velocity": 0.5039370078740157
        },
        {
          "duration": 0.14999999999999858,
          "durationTicks": 60,
          "midi": 42,
          "name": "F#2",
          "ticks": 19920,
          "time": 49.8,
          "velocity": 0.7874015748031497
        },
        {
          "duration": 0.14999999999999858,
          "durationTicks": 60,
          "midi": 36,
          "name": "C2",
          "ticks": 19920,
          "time": 49.8,
          "velocity": 0.7874015748031497
        },
        {
          "duration": 0.14999999999999858,
          "durationTicks": 60,
          "midi": 82,
          "name": "A#5",
          "ticks": 19920,
          "time": 49.8,
          "velocity": 0.5039370078740157
        },
        {
          "duration": 0.14999999999999858,
          "durationTicks": 60,
          "midi": 46,
          "name": "A#2",
          "ticks": 19980,
          "time": 49.949999999999996,
          "velocity": 0.7874015748031497
        },
        {
          "duration": 0.14999999999999858,
          "durationTicks": 60,
          "midi": 82,
          "name": "A#5",
          "ticks": 19980,
          "time": 49.949999999999996,
          "velocity": 0.5039370078740157
        },
        {
          "duration": 0.15000000000000568,
          "durationTicks": 60,
          "midi": 121,
          "name": "C#9",
          "ticks": 20040,
          "time": 50.099999999999994,
          "velocity": 0.9133858267716536
        },
        {
          "duration": 0.15000000000000568,
          "durationTicks": 60,
          "midi": 42,
          "name": "F#2",
          "ticks": 20040,
          "time": 50.099999999999994,
          "velocity": 0.7874015748031497
        },
        {
          "duration": 0.15000000000000568,
          "durationTicks": 60,
          "midi": 82,
          "name": "A#5",
          "ticks": 20040,
          "time": 50.099999999999994,
          "velocity": 1
        },
        {
          "duration": 0.15000000000000568,
          "durationTicks": 60,
          "midi": 39,
          "name": "D#2",
          "ticks": 20040,
          "time": 50.099999999999994,
          "velocity": 0.7874015748031497
        },
        {
          "duration": 0.14999999999999858,
          "durationTicks": 60,
          "midi": 42,
          "name": "F#2",
          "ticks": 20100,
          "time": 50.25,
          "velocity": 0.7874015748031497
        },
        {
          "duration": 0.14999999999999858,
          "durationTicks": 60,
          "midi": 36,
          "name": "C2",
          "ticks": 20100,
          "time": 50.25,
          "velocity": 0.7874015748031497
        },
        {
          "duration": 0.14999999999999858,
          "durationTicks": 60,
          "midi": 82,
          "name": "A#5",
          "ticks": 20100,
          "time": 50.25,
          "velocity": 1
        },
        {
          "duration": 0.14999999999999858,
          "durationTicks": 60,
          "midi": 42,
          "name": "F#2",
          "ticks": 20160,
          "time": 50.4,
          "velocity": 0.7874015748031497
        },
        {
          "duration": 0.14999999999999858,
          "durationTicks": 60,
          "midi": 36,
          "name": "C2",
          "ticks": 20160,
          "time": 50.4,
          "velocity": 0.7874015748031497
        },
        {
          "duration": 0.14999999999999858,
          "durationTicks": 60,
          "midi": 82,
          "name": "A#5",
          "ticks": 20160,
          "time": 50.4,
          "velocity": 0.5039370078740157
        },
        {
          "duration": 0.14999999999999858,
          "durationTicks": 60,
          "midi": 46,
          "name": "A#2",
          "ticks": 20220,
          "time": 50.55,
          "velocity": 0.7874015748031497
        },
        {
          "duration": 0.14999999999999858,
          "durationTicks": 60,
          "midi": 82,
          "name": "A#5",
          "ticks": 20220,
          "time": 50.55,
          "velocity": 0.5039370078740157
        },
        {
          "duration": 0.14999999999999858,
          "durationTicks": 60,
          "midi": 42,
          "name": "F#2",
          "ticks": 20280,
          "time": 50.699999999999996,
          "velocity": 0.7874015748031497
        },
        {
          "duration": 0.14999999999999858,
          "durationTicks": 60,
          "midi": 36,
          "name": "C2",
          "ticks": 20280,
          "time": 50.699999999999996,
          "velocity": 0.7874015748031497
        },
        {
          "duration": 0.14999999999999858,
          "durationTicks": 60,
          "midi": 82,
          "name": "A#5",
          "ticks": 20280,
          "time": 50.699999999999996,
          "velocity": 1
        },
        {
          "duration": 0.15000000000000568,
          "durationTicks": 60,
          "midi": 42,
          "name": "F#2",
          "ticks": 20340,
          "time": 50.849999999999994,
          "velocity": 0.7874015748031497
        },
        {
          "duration": 0.15000000000000568,
          "durationTicks": 60,
          "midi": 82,
          "name": "A#5",
          "ticks": 20340,
          "time": 50.849999999999994,
          "velocity": 1
        },
        {
          "duration": 0.14999999999999858,
          "durationTicks": 60,
          "midi": 42,
          "name": "F#2",
          "ticks": 20400,
          "time": 51,
          "velocity": 0.7874015748031497
        },
        {
          "duration": 0.14999999999999858,
          "durationTicks": 60,
          "midi": 36,
          "name": "C2",
          "ticks": 20400,
          "time": 51,
          "velocity": 0.7874015748031497
        },
        {
          "duration": 0.14999999999999858,
          "durationTicks": 60,
          "midi": 82,
          "name": "A#5",
          "ticks": 20400,
          "time": 51,
          "velocity": 1
        },
        {
          "duration": 0.14999999999999858,
          "durationTicks": 60,
          "midi": 82,
          "name": "A#5",
          "ticks": 20460,
          "time": 51.15,
          "velocity": 0.5039370078740157
        },
        {
          "duration": 0.14999999999999858,
          "durationTicks": 60,
          "midi": 55,
          "name": "G3",
          "ticks": 20520,
          "time": 51.3,
          "velocity": 1
        },
        {
          "duration": 0.14999999999999858,
          "durationTicks": 60,
          "midi": 82,
          "name": "A#5",
          "ticks": 20520,
          "time": 51.3,
          "velocity": 1
        },
        {
          "duration": 0.14999999999999858,
          "durationTicks": 60,
          "midi": 42,
          "name": "F#2",
          "ticks": 20640,
          "time": 51.599999999999994,
          "velocity": 0.7874015748031497
        },
        {
          "duration": 0.14999999999999858,
          "durationTicks": 60,
          "midi": 36,
          "name": "C2",
          "ticks": 20640,
          "time": 51.599999999999994,
          "velocity": 0.7874015748031497
        },
        {
          "duration": 0.14999999999999858,
          "durationTicks": 60,
          "midi": 82,
          "name": "A#5",
          "ticks": 20640,
          "time": 51.599999999999994,
          "velocity": 1
        },
        {
          "duration": 0.14999999999999858,
          "durationTicks": 60,
          "midi": 42,
          "name": "F#2",
          "ticks": 20700,
          "time": 51.74999999999999,
          "velocity": 0.7874015748031497
        },
        {
          "duration": 0.14999999999999858,
          "durationTicks": 60,
          "midi": 82,
          "name": "A#5",
          "ticks": 20700,
          "time": 51.74999999999999,
          "velocity": 0.5039370078740157
        },
        {
          "duration": 0.15000000000000568,
          "durationTicks": 60,
          "midi": 121,
          "name": "C#9",
          "ticks": 20760,
          "time": 51.89999999999999,
          "velocity": 0.9133858267716536
        },
        {
          "duration": 0.15000000000000568,
          "durationTicks": 60,
          "midi": 42,
          "name": "F#2",
          "ticks": 20760,
          "time": 51.89999999999999,
          "velocity": 0.7874015748031497
        },
        {
          "duration": 0.15000000000000568,
          "durationTicks": 60,
          "midi": 82,
          "name": "A#5",
          "ticks": 20760,
          "time": 51.89999999999999,
          "velocity": 1
        },
        {
          "duration": 0.14999999999999858,
          "durationTicks": 60,
          "midi": 42,
          "name": "F#2",
          "ticks": 20820,
          "time": 52.05,
          "velocity": 0.7874015748031497
        },
        {
          "duration": 0.14999999999999858,
          "durationTicks": 60,
          "midi": 36,
          "name": "C2",
          "ticks": 20820,
          "time": 52.05,
          "velocity": 0.7874015748031497
        },
        {
          "duration": 0.14999999999999858,
          "durationTicks": 60,
          "midi": 82,
          "name": "A#5",
          "ticks": 20820,
          "time": 52.05,
          "velocity": 0.5039370078740157
        },
        {
          "duration": 0.14999999999999858,
          "durationTicks": 60,
          "midi": 42,
          "name": "F#2",
          "ticks": 20880,
          "time": 52.199999999999996,
          "velocity": 0.7874015748031497
        },
        {
          "duration": 0.14999999999999858,
          "durationTicks": 60,
          "midi": 36,
          "name": "C2",
          "ticks": 20880,
          "time": 52.199999999999996,
          "velocity": 0.7874015748031497
        },
        {
          "duration": 0.14999999999999858,
          "durationTicks": 60,
          "midi": 82,
          "name": "A#5",
          "ticks": 20880,
          "time": 52.199999999999996,
          "velocity": 0.5039370078740157
        },
        {
          "duration": 0.14999999999999858,
          "durationTicks": 60,
          "midi": 42,
          "name": "F#2",
          "ticks": 20940,
          "time": 52.349999999999994,
          "velocity": 0.7874015748031497
        },
        {
          "duration": 0.14999999999999858,
          "durationTicks": 60,
          "midi": 82,
          "name": "A#5",
          "ticks": 20940,
          "time": 52.349999999999994,
          "velocity": 0.5039370078740157
        },
        {
          "duration": 0.14999999999999858,
          "durationTicks": 60,
          "midi": 121,
          "name": "C#9",
          "ticks": 21000,
          "time": 52.49999999999999,
          "velocity": 0.9133858267716536
        },
        {
          "duration": 0.14999999999999858,
          "durationTicks": 60,
          "midi": 42,
          "name": "F#2",
          "ticks": 21000,
          "time": 52.49999999999999,
          "velocity": 0.7874015748031497
        },
        {
          "duration": 0.14999999999999858,
          "durationTicks": 60,
          "midi": 82,
          "name": "A#5",
          "ticks": 21000,
          "time": 52.49999999999999,
          "velocity": 0.5039370078740157
        },
        {
          "duration": 0.15000000000000568,
          "durationTicks": 60,
          "midi": 42,
          "name": "F#2",
          "ticks": 21060,
          "time": 52.64999999999999,
          "velocity": 0.7874015748031497
        },
        {
          "duration": 0.15000000000000568,
          "durationTicks": 60,
          "midi": 82,
          "name": "A#5",
          "ticks": 21060,
          "time": 52.64999999999999,
          "velocity": 1
        },
        {
          "duration": 0.14999999999999858,
          "durationTicks": 60,
          "midi": 42,
          "name": "F#2",
          "ticks": 21120,
          "time": 52.8,
          "velocity": 0.7874015748031497
        },
        {
          "duration": 0.14999999999999858,
          "durationTicks": 60,
          "midi": 36,
          "name": "C2",
          "ticks": 21120,
          "time": 52.8,
          "velocity": 0.7874015748031497
        },
        {
          "duration": 0.14999999999999858,
          "durationTicks": 60,
          "midi": 82,
          "name": "A#5",
          "ticks": 21120,
          "time": 52.8,
          "velocity": 0.5039370078740157
        },
        {
          "duration": 0.14999999999999858,
          "durationTicks": 60,
          "midi": 42,
          "name": "F#2",
          "ticks": 21180,
          "time": 52.949999999999996,
          "velocity": 0.7874015748031497
        },
        {
          "duration": 0.14999999999999858,
          "durationTicks": 60,
          "midi": 82,
          "name": "A#5",
          "ticks": 21180,
          "time": 52.949999999999996,
          "velocity": 0.5039370078740157
        },
        {
          "duration": 0.14999999999999858,
          "durationTicks": 60,
          "midi": 121,
          "name": "C#9",
          "ticks": 21240,
          "time": 53.099999999999994,
          "velocity": 0.9133858267716536
        },
        {
          "duration": 0.14999999999999858,
          "durationTicks": 60,
          "midi": 42,
          "name": "F#2",
          "ticks": 21240,
          "time": 53.099999999999994,
          "velocity": 0.7874015748031497
        },
        {
          "duration": 0.14999999999999858,
          "durationTicks": 60,
          "midi": 82,
          "name": "A#5",
          "ticks": 21240,
          "time": 53.099999999999994,
          "velocity": 0.5039370078740157
        },
        {
          "duration": 0.14999999999999858,
          "durationTicks": 60,
          "midi": 42,
          "name": "F#2",
          "ticks": 21300,
          "time": 53.24999999999999,
          "velocity": 0.7874015748031497
        },
        {
          "duration": 0.14999999999999858,
          "durationTicks": 60,
          "midi": 36,
          "name": "C2",
          "ticks": 21300,
          "time": 53.24999999999999,
          "velocity": 0.7874015748031497
        },
        {
          "duration": 0.14999999999999858,
          "durationTicks": 60,
          "midi": 82,
          "name": "A#5",
          "ticks": 21300,
          "time": 53.24999999999999,
          "velocity": 1
        },
        {
          "duration": 0.15000000000000568,
          "durationTicks": 60,
          "midi": 42,
          "name": "F#2",
          "ticks": 21360,
          "time": 53.39999999999999,
          "velocity": 0.7874015748031497
        },
        {
          "duration": 0.15000000000000568,
          "durationTicks": 60,
          "midi": 36,
          "name": "C2",
          "ticks": 21360,
          "time": 53.39999999999999,
          "velocity": 0.7874015748031497
        },
        {
          "duration": 0.15000000000000568,
          "durationTicks": 60,
          "midi": 82,
          "name": "A#5",
          "ticks": 21360,
          "time": 53.39999999999999,
          "velocity": 0.5039370078740157
        },
        {
          "duration": 0.14999999999999858,
          "durationTicks": 60,
          "midi": 42,
          "name": "F#2",
          "ticks": 21420,
          "time": 53.55,
          "velocity": 0.7874015748031497
        },
        {
          "duration": 0.14999999999999858,
          "durationTicks": 60,
          "midi": 82,
          "name": "A#5",
          "ticks": 21420,
          "time": 53.55,
          "velocity": 0.5039370078740157
        },
        {
          "duration": 0.14999999999999858,
          "durationTicks": 60,
          "midi": 121,
          "name": "C#9",
          "ticks": 21480,
          "time": 53.699999999999996,
          "velocity": 0.9133858267716536
        },
        {
          "duration": 0.14999999999999858,
          "durationTicks": 60,
          "midi": 42,
          "name": "F#2",
          "ticks": 21480,
          "time": 53.699999999999996,
          "velocity": 0.7874015748031497
        },
        {
          "duration": 0.14999999999999858,
          "durationTicks": 60,
          "midi": 82,
          "name": "A#5",
          "ticks": 21480,
          "time": 53.699999999999996,
          "velocity": 0.5039370078740157
        },
        {
          "duration": 0.14999999999999858,
          "durationTicks": 60,
          "midi": 42,
          "name": "F#2",
          "ticks": 21540,
          "time": 53.849999999999994,
          "velocity": 0.7874015748031497
        },
        {
          "duration": 0.14999999999999858,
          "durationTicks": 60,
          "midi": 82,
          "name": "A#5",
          "ticks": 21540,
          "time": 53.849999999999994,
          "velocity": 1
        },
        {
          "duration": 0.14999999999999858,
          "durationTicks": 60,
          "midi": 42,
          "name": "F#2",
          "ticks": 21600,
          "time": 53.99999999999999,
          "velocity": 0.7874015748031497
        },
        {
          "duration": 0.14999999999999858,
          "durationTicks": 60,
          "midi": 36,
          "name": "C2",
          "ticks": 21600,
          "time": 53.99999999999999,
          "velocity": 0.7874015748031497
        },
        {
          "duration": 0.14999999999999858,
          "durationTicks": 60,
          "midi": 82,
          "name": "A#5",
          "ticks": 21600,
          "time": 53.99999999999999,
          "velocity": 1
        },
        {
          "duration": 0.15000000000000568,
          "durationTicks": 60,
          "midi": 42,
          "name": "F#2",
          "ticks": 21660,
          "time": 54.14999999999999,
          "velocity": 0.7874015748031497
        },
        {
          "duration": 0.15000000000000568,
          "durationTicks": 60,
          "midi": 82,
          "name": "A#5",
          "ticks": 21660,
          "time": 54.14999999999999,
          "velocity": 0.5039370078740157
        },
        {
          "duration": 0.14999999999999858,
          "durationTicks": 60,
          "midi": 121,
          "name": "C#9",
          "ticks": 21720,
          "time": 54.3,
          "velocity": 0.9133858267716536
        },
        {
          "duration": 0.14999999999999858,
          "durationTicks": 60,
          "midi": 42,
          "name": "F#2",
          "ticks": 21720,
          "time": 54.3,
          "velocity": 0.7874015748031497
        },
        {
          "duration": 0.14999999999999858,
          "durationTicks": 60,
          "midi": 82,
          "name": "A#5",
          "ticks": 21720,
          "time": 54.3,
          "velocity": 1
        },
        {
          "duration": 0.14999999999999858,
          "durationTicks": 60,
          "midi": 42,
          "name": "F#2",
          "ticks": 21780,
          "time": 54.449999999999996,
          "velocity": 0.7874015748031497
        },
        {
          "duration": 0.14999999999999858,
          "durationTicks": 60,
          "midi": 36,
          "name": "C2",
          "ticks": 21780,
          "time": 54.449999999999996,
          "velocity": 0.7874015748031497
        },
        {
          "duration": 0.14999999999999858,
          "durationTicks": 60,
          "midi": 82,
          "name": "A#5",
          "ticks": 21780,
          "time": 54.449999999999996,
          "velocity": 0.5039370078740157
        },
        {
          "duration": 0.14999999999999858,
          "durationTicks": 60,
          "midi": 42,
          "name": "F#2",
          "ticks": 21840,
          "time": 54.599999999999994,
          "velocity": 0.7874015748031497
        },
        {
          "duration": 0.14999999999999858,
          "durationTicks": 60,
          "midi": 36,
          "name": "C2",
          "ticks": 21840,
          "time": 54.599999999999994,
          "velocity": 0.7874015748031497
        },
        {
          "duration": 0.14999999999999858,
          "durationTicks": 60,
          "midi": 82,
          "name": "A#5",
          "ticks": 21840,
          "time": 54.599999999999994,
          "velocity": 0.5039370078740157
        },
        {
          "duration": 0.14999999999999858,
          "durationTicks": 60,
          "midi": 42,
          "name": "F#2",
          "ticks": 21900,
          "time": 54.74999999999999,
          "velocity": 0.7874015748031497
        },
        {
          "duration": 0.14999999999999858,
          "durationTicks": 60,
          "midi": 82,
          "name": "A#5",
          "ticks": 21900,
          "time": 54.74999999999999,
          "velocity": 0.5039370078740157
        },
        {
          "duration": 0.15000000000000568,
          "durationTicks": 60,
          "midi": 121,
          "name": "C#9",
          "ticks": 21960,
          "time": 54.89999999999999,
          "velocity": 0.9133858267716536
        },
        {
          "duration": 0.15000000000000568,
          "durationTicks": 60,
          "midi": 42,
          "name": "F#2",
          "ticks": 21960,
          "time": 54.89999999999999,
          "velocity": 0.7874015748031497
        },
        {
          "duration": 0.15000000000000568,
          "durationTicks": 60,
          "midi": 82,
          "name": "A#5",
          "ticks": 21960,
          "time": 54.89999999999999,
          "velocity": 0.5039370078740157
        },
        {
          "duration": 0.14999999999999858,
          "durationTicks": 60,
          "midi": 42,
          "name": "F#2",
          "ticks": 22020,
          "time": 55.05,
          "velocity": 0.7874015748031497
        },
        {
          "duration": 0.14999999999999858,
          "durationTicks": 60,
          "midi": 36,
          "name": "C2",
          "ticks": 22020,
          "time": 55.05,
          "velocity": 0.7874015748031497
        },
        {
          "duration": 0.14999999999999858,
          "durationTicks": 60,
          "midi": 82,
          "name": "A#5",
          "ticks": 22020,
          "time": 55.05,
          "velocity": 1
        },
        {
          "duration": 0.14999999999999858,
          "durationTicks": 60,
          "midi": 42,
          "name": "F#2",
          "ticks": 22080,
          "time": 55.199999999999996,
          "velocity": 0.7874015748031497
        },
        {
          "duration": 0.14999999999999858,
          "durationTicks": 60,
          "midi": 36,
          "name": "C2",
          "ticks": 22080,
          "time": 55.199999999999996,
          "velocity": 0.7874015748031497
        },
        {
          "duration": 0.14999999999999858,
          "durationTicks": 60,
          "midi": 82,
          "name": "A#5",
          "ticks": 22080,
          "time": 55.199999999999996,
          "velocity": 0.5039370078740157
        },
        {
          "duration": 0.14999999999999858,
          "durationTicks": 60,
          "midi": 42,
          "name": "F#2",
          "ticks": 22140,
          "time": 55.349999999999994,
          "velocity": 0.7874015748031497
        },
        {
          "duration": 0.14999999999999858,
          "durationTicks": 60,
          "midi": 82,
          "name": "A#5",
          "ticks": 22140,
          "time": 55.349999999999994,
          "velocity": 0.5039370078740157
        },
        {
          "duration": 0.14999999999999858,
          "durationTicks": 60,
          "midi": 121,
          "name": "C#9",
          "ticks": 22200,
          "time": 55.49999999999999,
          "velocity": 0.9133858267716536
        },
        {
          "duration": 0.14999999999999858,
          "durationTicks": 60,
          "midi": 42,
          "name": "F#2",
          "ticks": 22200,
          "time": 55.49999999999999,
          "velocity": 0.7874015748031497
        },
        {
          "duration": 0.14999999999999858,
          "durationTicks": 60,
          "midi": 82,
          "name": "A#5",
          "ticks": 22200,
          "time": 55.49999999999999,
          "velocity": 0.5039370078740157
        },
        {
          "duration": 0.15000000000000568,
          "durationTicks": 60,
          "midi": 42,
          "name": "F#2",
          "ticks": 22260,
          "time": 55.64999999999999,
          "velocity": 0.7874015748031497
        },
        {
          "duration": 0.15000000000000568,
          "durationTicks": 60,
          "midi": 36,
          "name": "C2",
          "ticks": 22260,
          "time": 55.64999999999999,
          "velocity": 0.7874015748031497
        },
        {
          "duration": 0.15000000000000568,
          "durationTicks": 60,
          "midi": 82,
          "name": "A#5",
          "ticks": 22260,
          "time": 55.64999999999999,
          "velocity": 1
        },
        {
          "duration": 0.14999999999999858,
          "durationTicks": 60,
          "midi": 42,
          "name": "F#2",
          "ticks": 22320,
          "time": 55.8,
          "velocity": 0.7874015748031497
        },
        {
          "duration": 0.14999999999999858,
          "durationTicks": 60,
          "midi": 36,
          "name": "C2",
          "ticks": 22320,
          "time": 55.8,
          "velocity": 0.7874015748031497
        },
        {
          "duration": 0.14999999999999858,
          "durationTicks": 60,
          "midi": 82,
          "name": "A#5",
          "ticks": 22320,
          "time": 55.8,
          "velocity": 0.5039370078740157
        },
        {
          "duration": 0.14999999999999858,
          "durationTicks": 60,
          "midi": 42,
          "name": "F#2",
          "ticks": 22380,
          "time": 55.949999999999996,
          "velocity": 0.7874015748031497
        },
        {
          "duration": 0.14999999999999858,
          "durationTicks": 60,
          "midi": 82,
          "name": "A#5",
          "ticks": 22380,
          "time": 55.949999999999996,
          "velocity": 0.5039370078740157
        },
        {
          "duration": 0.14999999999999858,
          "durationTicks": 60,
          "midi": 121,
          "name": "C#9",
          "ticks": 22440,
          "time": 56.099999999999994,
          "velocity": 0.9133858267716536
        },
        {
          "duration": 0.14999999999999858,
          "durationTicks": 60,
          "midi": 42,
          "name": "F#2",
          "ticks": 22440,
          "time": 56.099999999999994,
          "velocity": 0.7874015748031497
        },
        {
          "duration": 0.14999999999999858,
          "durationTicks": 60,
          "midi": 82,
          "name": "A#5",
          "ticks": 22440,
          "time": 56.099999999999994,
          "velocity": 1
        },
        {
          "duration": 0.14999999999999858,
          "durationTicks": 60,
          "midi": 42,
          "name": "F#2",
          "ticks": 22500,
          "time": 56.24999999999999,
          "velocity": 0.7874015748031497
        },
        {
          "duration": 0.14999999999999858,
          "durationTicks": 60,
          "midi": 82,
          "name": "A#5",
          "ticks": 22500,
          "time": 56.24999999999999,
          "velocity": 0.5039370078740157
        },
        {
          "duration": 0.15000000000000568,
          "durationTicks": 60,
          "midi": 42,
          "name": "F#2",
          "ticks": 22560,
          "time": 56.39999999999999,
          "velocity": 0.7874015748031497
        },
        {
          "duration": 0.15000000000000568,
          "durationTicks": 60,
          "midi": 36,
          "name": "C2",
          "ticks": 22560,
          "time": 56.39999999999999,
          "velocity": 0.7874015748031497
        },
        {
          "duration": 0.15000000000000568,
          "durationTicks": 60,
          "midi": 82,
          "name": "A#5",
          "ticks": 22560,
          "time": 56.39999999999999,
          "velocity": 1
        },
        {
          "duration": 0.14999999999999858,
          "durationTicks": 60,
          "midi": 42,
          "name": "F#2",
          "ticks": 22620,
          "time": 56.55,
          "velocity": 0.7874015748031497
        },
        {
          "duration": 0.14999999999999858,
          "durationTicks": 60,
          "midi": 82,
          "name": "A#5",
          "ticks": 22620,
          "time": 56.55,
          "velocity": 0.5039370078740157
        },
        {
          "duration": 0.14999999999999858,
          "durationTicks": 60,
          "midi": 121,
          "name": "C#9",
          "ticks": 22680,
          "time": 56.699999999999996,
          "velocity": 0.9133858267716536
        },
        {
          "duration": 0.14999999999999858,
          "durationTicks": 60,
          "midi": 42,
          "name": "F#2",
          "ticks": 22680,
          "time": 56.699999999999996,
          "velocity": 0.7874015748031497
        },
        {
          "duration": 0.14999999999999858,
          "durationTicks": 60,
          "midi": 82,
          "name": "A#5",
          "ticks": 22680,
          "time": 56.699999999999996,
          "velocity": 1
        },
        {
          "duration": 0.14999999999999858,
          "durationTicks": 60,
          "midi": 42,
          "name": "F#2",
          "ticks": 22740,
          "time": 56.849999999999994,
          "velocity": 0.7874015748031497
        },
        {
          "duration": 0.14999999999999858,
          "durationTicks": 60,
          "midi": 36,
          "name": "C2",
          "ticks": 22740,
          "time": 56.849999999999994,
          "velocity": 0.7874015748031497
        },
        {
          "duration": 0.14999999999999858,
          "durationTicks": 60,
          "midi": 82,
          "name": "A#5",
          "ticks": 22740,
          "time": 56.849999999999994,
          "velocity": 0.5039370078740157
        },
        {
          "duration": 0.14999999999999858,
          "durationTicks": 60,
          "midi": 42,
          "name": "F#2",
          "ticks": 22800,
          "time": 56.99999999999999,
          "velocity": 0.7874015748031497
        },
        {
          "duration": 0.14999999999999858,
          "durationTicks": 60,
          "midi": 36,
          "name": "C2",
          "ticks": 22800,
          "time": 56.99999999999999,
          "velocity": 0.7874015748031497
        },
        {
          "duration": 0.14999999999999858,
          "durationTicks": 60,
          "midi": 82,
          "name": "A#5",
          "ticks": 22800,
          "time": 56.99999999999999,
          "velocity": 0.5039370078740157
        },
        {
          "duration": 0.15000000000000568,
          "durationTicks": 60,
          "midi": 46,
          "name": "A#2",
          "ticks": 22860,
          "time": 57.14999999999999,
          "velocity": 0.7874015748031497
        },
        {
          "duration": 0.15000000000000568,
          "durationTicks": 60,
          "midi": 82,
          "name": "A#5",
          "ticks": 22860,
          "time": 57.14999999999999,
          "velocity": 0.5039370078740157
        },
        {
          "duration": 0.14999999999999858,
          "durationTicks": 60,
          "midi": 121,
          "name": "C#9",
          "ticks": 22920,
          "time": 57.3,
          "velocity": 0.9133858267716536
        },
        {
          "duration": 0.14999999999999858,
          "durationTicks": 60,
          "midi": 42,
          "name": "F#2",
          "ticks": 22920,
          "time": 57.3,
          "velocity": 0.7874015748031497
        },
        {
          "duration": 0.14999999999999858,
          "durationTicks": 60,
          "midi": 82,
          "name": "A#5",
          "ticks": 22920,
          "time": 57.3,
          "velocity": 0.5039370078740157
        },
        {
          "duration": 0.14999999999999858,
          "durationTicks": 60,
          "midi": 42,
          "name": "F#2",
          "ticks": 22980,
          "time": 57.449999999999996,
          "velocity": 0.7874015748031497
        },
        {
          "duration": 0.14999999999999858,
          "durationTicks": 60,
          "midi": 82,
          "name": "A#5",
          "ticks": 22980,
          "time": 57.449999999999996,
          "velocity": 1
        },
        {
          "duration": 0.14999999999999858,
          "durationTicks": 60,
          "midi": 42,
          "name": "F#2",
          "ticks": 23040,
          "time": 57.599999999999994,
          "velocity": 0.7874015748031497
        },
        {
          "duration": 0.14999999999999858,
          "durationTicks": 60,
          "midi": 36,
          "name": "C2",
          "ticks": 23040,
          "time": 57.599999999999994,
          "velocity": 0.7874015748031497
        },
        {
          "duration": 0.14999999999999858,
          "durationTicks": 60,
          "midi": 82,
          "name": "A#5",
          "ticks": 23040,
          "time": 57.599999999999994,
          "velocity": 0.5039370078740157
        },
        {
          "duration": 0.14999999999999858,
          "durationTicks": 60,
          "midi": 42,
          "name": "F#2",
          "ticks": 23100,
          "time": 57.74999999999999,
          "velocity": 0.7874015748031497
        },
        {
          "duration": 0.14999999999999858,
          "durationTicks": 60,
          "midi": 82,
          "name": "A#5",
          "ticks": 23100,
          "time": 57.74999999999999,
          "velocity": 0.5039370078740157
        },
        {
          "duration": 0.15000000000000568,
          "durationTicks": 60,
          "midi": 121,
          "name": "C#9",
          "ticks": 23160,
          "time": 57.89999999999999,
          "velocity": 0.9133858267716536
        },
        {
          "duration": 0.15000000000000568,
          "durationTicks": 60,
          "midi": 42,
          "name": "F#2",
          "ticks": 23160,
          "time": 57.89999999999999,
          "velocity": 0.7874015748031497
        },
        {
          "duration": 0.15000000000000568,
          "durationTicks": 60,
          "midi": 82,
          "name": "A#5",
          "ticks": 23160,
          "time": 57.89999999999999,
          "velocity": 0.5039370078740157
        },
        {
          "duration": 0.14999999999999858,
          "durationTicks": 60,
          "midi": 42,
          "name": "F#2",
          "ticks": 23220,
          "time": 58.05,
          "velocity": 0.7874015748031497
        },
        {
          "duration": 0.14999999999999858,
          "durationTicks": 60,
          "midi": 36,
          "name": "C2",
          "ticks": 23220,
          "time": 58.05,
          "velocity": 0.7874015748031497
        },
        {
          "duration": 0.14999999999999858,
          "durationTicks": 60,
          "midi": 82,
          "name": "A#5",
          "ticks": 23220,
          "time": 58.05,
          "velocity": 1
        },
        {
          "duration": 0.14999999999999858,
          "durationTicks": 60,
          "midi": 42,
          "name": "F#2",
          "ticks": 23280,
          "time": 58.199999999999996,
          "velocity": 0.7874015748031497
        },
        {
          "duration": 0.14999999999999858,
          "durationTicks": 60,
          "midi": 36,
          "name": "C2",
          "ticks": 23280,
          "time": 58.199999999999996,
          "velocity": 0.7874015748031497
        },
        {
          "duration": 0.14999999999999858,
          "durationTicks": 60,
          "midi": 82,
          "name": "A#5",
          "ticks": 23280,
          "time": 58.199999999999996,
          "velocity": 0.5039370078740157
        },
        {
          "duration": 0.14999999999999858,
          "durationTicks": 60,
          "midi": 46,
          "name": "A#2",
          "ticks": 23340,
          "time": 58.349999999999994,
          "velocity": 0.7874015748031497
        },
        {
          "duration": 0.14999999999999858,
          "durationTicks": 60,
          "midi": 82,
          "name": "A#5",
          "ticks": 23340,
          "time": 58.349999999999994,
          "velocity": 0.5039370078740157
        },
        {
          "duration": 0.14999999999999858,
          "durationTicks": 60,
          "midi": 121,
          "name": "C#9",
          "ticks": 23400,
          "time": 58.49999999999999,
          "velocity": 0.9133858267716536
        },
        {
          "duration": 0.14999999999999858,
          "durationTicks": 60,
          "midi": 42,
          "name": "F#2",
          "ticks": 23400,
          "time": 58.49999999999999,
          "velocity": 0.7874015748031497
        },
        {
          "duration": 0.14999999999999858,
          "durationTicks": 60,
          "midi": 82,
          "name": "A#5",
          "ticks": 23400,
          "time": 58.49999999999999,
          "velocity": 0.5039370078740157
        },
        {
          "duration": 0.15000000000000568,
          "durationTicks": 60,
          "midi": 42,
          "name": "F#2",
          "ticks": 23460,
          "time": 58.64999999999999,
          "velocity": 0.7874015748031497
        },
        {
          "duration": 0.15000000000000568,
          "durationTicks": 60,
          "midi": 82,
          "name": "A#5",
          "ticks": 23460,
          "time": 58.64999999999999,
          "velocity": 1
        },
        {
          "duration": 0.14999999999999858,
          "durationTicks": 60,
          "midi": 42,
          "name": "F#2",
          "ticks": 23520,
          "time": 58.8,
          "velocity": 0.7874015748031497
        },
        {
          "duration": 0.14999999999999858,
          "durationTicks": 60,
          "midi": 36,
          "name": "C2",
          "ticks": 23520,
          "time": 58.8,
          "velocity": 0.7874015748031497
        },
        {
          "duration": 0.14999999999999858,
          "durationTicks": 60,
          "midi": 82,
          "name": "A#5",
          "ticks": 23520,
          "time": 58.8,
          "velocity": 1
        },
        {
          "duration": 0.14999999999999858,
          "durationTicks": 60,
          "midi": 42,
          "name": "F#2",
          "ticks": 23580,
          "time": 58.949999999999996,
          "velocity": 0.7874015748031497
        },
        {
          "duration": 0.14999999999999858,
          "durationTicks": 60,
          "midi": 82,
          "name": "A#5",
          "ticks": 23580,
          "time": 58.949999999999996,
          "velocity": 0.5039370078740157
        },
        {
          "duration": 0.14999999999999858,
          "durationTicks": 60,
          "midi": 121,
          "name": "C#9",
          "ticks": 23640,
          "time": 59.099999999999994,
          "velocity": 0.9133858267716536
        },
        {
          "duration": 0.14999999999999858,
          "durationTicks": 60,
          "midi": 42,
          "name": "F#2",
          "ticks": 23640,
          "time": 59.099999999999994,
          "velocity": 0.7874015748031497
        },
        {
          "duration": 0.14999999999999858,
          "durationTicks": 60,
          "midi": 82,
          "name": "A#5",
          "ticks": 23640,
          "time": 59.099999999999994,
          "velocity": 1
        },
        {
          "duration": 0.14999999999999858,
          "durationTicks": 60,
          "midi": 42,
          "name": "F#2",
          "ticks": 23700,
          "time": 59.24999999999999,
          "velocity": 0.7874015748031497
        },
        {
          "duration": 0.14999999999999858,
          "durationTicks": 60,
          "midi": 36,
          "name": "C2",
          "ticks": 23700,
          "time": 59.24999999999999,
          "velocity": 0.7874015748031497
        },
        {
          "duration": 0.14999999999999858,
          "durationTicks": 60,
          "midi": 82,
          "name": "A#5",
          "ticks": 23700,
          "time": 59.24999999999999,
          "velocity": 0.5039370078740157
        },
        {
          "duration": 0.15000000000000568,
          "durationTicks": 60,
          "midi": 42,
          "name": "F#2",
          "ticks": 23760,
          "time": 59.39999999999999,
          "velocity": 0.7874015748031497
        },
        {
          "duration": 0.15000000000000568,
          "durationTicks": 60,
          "midi": 36,
          "name": "C2",
          "ticks": 23760,
          "time": 59.39999999999999,
          "velocity": 0.7874015748031497
        },
        {
          "duration": 0.15000000000000568,
          "durationTicks": 60,
          "midi": 82,
          "name": "A#5",
          "ticks": 23760,
          "time": 59.39999999999999,
          "velocity": 0.5039370078740157
        },
        {
          "duration": 0.14999999999999858,
          "durationTicks": 60,
          "midi": 46,
          "name": "A#2",
          "ticks": 23820,
          "time": 59.55,
          "velocity": 0.7874015748031497
        },
        {
          "duration": 0.14999999999999858,
          "durationTicks": 60,
          "midi": 82,
          "name": "A#5",
          "ticks": 23820,
          "time": 59.55,
          "velocity": 0.5039370078740157
        },
        {
          "duration": 0.14999999999999858,
          "durationTicks": 60,
          "midi": 121,
          "name": "C#9",
          "ticks": 23880,
          "time": 59.699999999999996,
          "velocity": 0.9133858267716536
        },
        {
          "duration": 0.14999999999999858,
          "durationTicks": 60,
          "midi": 42,
          "name": "F#2",
          "ticks": 23880,
          "time": 59.699999999999996,
          "velocity": 0.7874015748031497
        },
        {
          "duration": 0.14999999999999858,
          "durationTicks": 60,
          "midi": 82,
          "name": "A#5",
          "ticks": 23880,
          "time": 59.699999999999996,
          "velocity": 0.5039370078740157
        },
        {
          "duration": 0.14999999999999858,
          "durationTicks": 60,
          "midi": 42,
          "name": "F#2",
          "ticks": 23940,
          "time": 59.849999999999994,
          "velocity": 0.7874015748031497
        },
        {
          "duration": 0.14999999999999858,
          "durationTicks": 60,
          "midi": 36,
          "name": "C2",
          "ticks": 23940,
          "time": 59.849999999999994,
          "velocity": 0.7874015748031497
        },
        {
          "duration": 0.14999999999999858,
          "durationTicks": 60,
          "midi": 82,
          "name": "A#5",
          "ticks": 23940,
          "time": 59.849999999999994,
          "velocity": 1
        },
        {
          "duration": 0.14999999999999858,
          "durationTicks": 60,
          "midi": 42,
          "name": "F#2",
          "ticks": 24000,
          "time": 59.99999999999999,
          "velocity": 0.7874015748031497
        },
        {
          "duration": 0.14999999999999858,
          "durationTicks": 60,
          "midi": 36,
          "name": "C2",
          "ticks": 24000,
          "time": 59.99999999999999,
          "velocity": 0.7874015748031497
        },
        {
          "duration": 0.14999999999999858,
          "durationTicks": 60,
          "midi": 82,
          "name": "A#5",
          "ticks": 24000,
          "time": 59.99999999999999,
          "velocity": 0.5039370078740157
        },
        {
          "duration": 0.15000000000000568,
          "durationTicks": 60,
          "midi": 46,
          "name": "A#2",
          "ticks": 24060,
          "time": 60.14999999999999,
          "velocity": 0.7874015748031497
        },
        {
          "duration": 0.15000000000000568,
          "durationTicks": 60,
          "midi": 82,
          "name": "A#5",
          "ticks": 24060,
          "time": 60.14999999999999,
          "velocity": 0.5039370078740157
        },
        {
          "duration": 0.14999999999999858,
          "durationTicks": 60,
          "midi": 121,
          "name": "C#9",
          "ticks": 24120,
          "time": 60.3,
          "velocity": 0.9133858267716536
        },
        {
          "duration": 0.14999999999999858,
          "durationTicks": 60,
          "midi": 42,
          "name": "F#2",
          "ticks": 24120,
          "time": 60.3,
          "velocity": 0.7874015748031497
        },
        {
          "duration": 0.14999999999999858,
          "durationTicks": 60,
          "midi": 82,
          "name": "A#5",
          "ticks": 24120,
          "time": 60.3,
          "velocity": 0.5039370078740157
        },
        {
          "duration": 0.14999999999999858,
          "durationTicks": 60,
          "midi": 42,
          "name": "F#2",
          "ticks": 24180,
          "time": 60.449999999999996,
          "velocity": 0.7874015748031497
        },
        {
          "duration": 0.14999999999999858,
          "durationTicks": 60,
          "midi": 36,
          "name": "C2",
          "ticks": 24180,
          "time": 60.449999999999996,
          "velocity": 0.7874015748031497
        },
        {
          "duration": 0.14999999999999858,
          "durationTicks": 60,
          "midi": 82,
          "name": "A#5",
          "ticks": 24180,
          "time": 60.449999999999996,
          "velocity": 1
        },
        {
          "duration": 0.14999999999999858,
          "durationTicks": 60,
          "midi": 42,
          "name": "F#2",
          "ticks": 24240,
          "time": 60.599999999999994,
          "velocity": 0.7874015748031497
        },
        {
          "duration": 0.14999999999999858,
          "durationTicks": 60,
          "midi": 36,
          "name": "C2",
          "ticks": 24240,
          "time": 60.599999999999994,
          "velocity": 0.7874015748031497
        },
        {
          "duration": 0.14999999999999858,
          "durationTicks": 60,
          "midi": 82,
          "name": "A#5",
          "ticks": 24240,
          "time": 60.599999999999994,
          "velocity": 0.5039370078740157
        },
        {
          "duration": 0.14999999999999858,
          "durationTicks": 60,
          "midi": 121,
          "name": "C#9",
          "ticks": 24300,
          "time": 60.74999999999999,
          "velocity": 0.9133858267716536
        },
        {
          "duration": 0.14999999999999858,
          "durationTicks": 60,
          "midi": 42,
          "name": "F#2",
          "ticks": 24300,
          "time": 60.74999999999999,
          "velocity": 0.7874015748031497
        },
        {
          "duration": 0.14999999999999858,
          "durationTicks": 60,
          "midi": 82,
          "name": "A#5",
          "ticks": 24300,
          "time": 60.74999999999999,
          "velocity": 0.5039370078740157
        },
        {
          "duration": 0.15000000000000568,
          "durationTicks": 60,
          "midi": 121,
          "name": "C#9",
          "ticks": 24360,
          "time": 60.89999999999999,
          "velocity": 0.9133858267716536
        },
        {
          "duration": 0.15000000000000568,
          "durationTicks": 60,
          "midi": 42,
          "name": "F#2",
          "ticks": 24360,
          "time": 60.89999999999999,
          "velocity": 0.7874015748031497
        },
        {
          "duration": 0.15000000000000568,
          "durationTicks": 60,
          "midi": 82,
          "name": "A#5",
          "ticks": 24360,
          "time": 60.89999999999999,
          "velocity": 1
        },
        {
          "duration": 0.14999999999999858,
          "durationTicks": 60,
          "midi": 121,
          "name": "C#9",
          "ticks": 24420,
          "time": 61.05,
          "velocity": 0.9133858267716536
        },
        {
          "duration": 0.14999999999999858,
          "durationTicks": 60,
          "midi": 42,
          "name": "F#2",
          "ticks": 24420,
          "time": 61.05,
          "velocity": 0.7874015748031497
        },
        {
          "duration": 0.14999999999999858,
          "durationTicks": 60,
          "midi": 82,
          "name": "A#5",
          "ticks": 24420,
          "time": 61.05,
          "velocity": 0.5039370078740157
        },
        {
          "duration": 0.14999999999999858,
          "durationTicks": 60,
          "midi": 49,
          "name": "C#3",
          "ticks": 24480,
          "time": 61.199999999999996,
          "velocity": 0.7874015748031497
        },
        {
          "duration": 0.14999999999999858,
          "durationTicks": 60,
          "midi": 36,
          "name": "C2",
          "ticks": 24480,
          "time": 61.199999999999996,
          "velocity": 0.7874015748031497
        },
        {
          "duration": 0.14999999999999858,
          "durationTicks": 60,
          "midi": 82,
          "name": "A#5",
          "ticks": 24480,
          "time": 61.199999999999996,
          "velocity": 1
        },
        {
          "duration": 0.14999999999999858,
          "durationTicks": 60,
          "midi": 82,
          "name": "A#5",
          "ticks": 24540,
          "time": 61.349999999999994,
          "velocity": 0.5039370078740157
        },
        {
          "duration": 0.14999999999999858,
          "durationTicks": 60,
          "midi": 121,
          "name": "C#9",
          "ticks": 24600,
          "time": 61.49999999999999,
          "velocity": 0.9133858267716536
        },
        {
          "duration": 0.14999999999999858,
          "durationTicks": 60,
          "midi": 42,
          "name": "F#2",
          "ticks": 24600,
          "time": 61.49999999999999,
          "velocity": 0.7874015748031497
        },
        {
          "duration": 0.14999999999999858,
          "durationTicks": 60,
          "midi": 82,
          "name": "A#5",
          "ticks": 24600,
          "time": 61.49999999999999,
          "velocity": 1
        },
        {
          "duration": 0.15000000000000568,
          "durationTicks": 60,
          "midi": 36,
          "name": "C2",
          "ticks": 24660,
          "time": 61.64999999999999,
          "velocity": 0.7874015748031497
        },
        {
          "duration": 0.15000000000000568,
          "durationTicks": 60,
          "midi": 82,
          "name": "A#5",
          "ticks": 24660,
          "time": 61.64999999999999,
          "velocity": 0.5039370078740157
        },
        {
          "duration": 0.14999999999999858,
          "durationTicks": 60,
          "midi": 42,
          "name": "F#2",
          "ticks": 24720,
          "time": 61.8,
          "velocity": 0.7874015748031497
        },
        {
          "duration": 0.14999999999999858,
          "durationTicks": 60,
          "midi": 36,
          "name": "C2",
          "ticks": 24720,
          "time": 61.8,
          "velocity": 0.7874015748031497
        },
        {
          "duration": 0.14999999999999858,
          "durationTicks": 60,
          "midi": 82,
          "name": "A#5",
          "ticks": 24720,
          "time": 61.8,
          "velocity": 1
        },
        {
          "duration": 0.14999999999999858,
          "durationTicks": 60,
          "midi": 82,
          "name": "A#5",
          "ticks": 24780,
          "time": 61.949999999999996,
          "velocity": 0.5039370078740157
        },
        {
          "duration": 0.14999999999999858,
          "durationTicks": 60,
          "midi": 121,
          "name": "C#9",
          "ticks": 24840,
          "time": 62.099999999999994,
          "velocity": 0.9133858267716536
        },
        {
          "duration": 0.14999999999999858,
          "durationTicks": 60,
          "midi": 42,
          "name": "F#2",
          "ticks": 24840,
          "time": 62.099999999999994,
          "velocity": 0.7874015748031497
        },
        {
          "duration": 0.14999999999999858,
          "durationTicks": 60,
          "midi": 82,
          "name": "A#5",
          "ticks": 24840,
          "time": 62.099999999999994,
          "velocity": 1
        },
        {
          "duration": 0.14999999999999858,
          "durationTicks": 60,
          "midi": 39,
          "name": "D#2",
          "ticks": 24840,
          "time": 62.099999999999994,
          "velocity": 0.7874015748031497
        },
        {
          "duration": 0.14999999999999858,
          "durationTicks": 60,
          "midi": 82,
          "name": "A#5",
          "ticks": 24900,
          "time": 62.24999999999999,
          "velocity": 0.5039370078740157
        },
        {
          "duration": 0.15000000000000568,
          "durationTicks": 60,
          "midi": 42,
          "name": "F#2",
          "ticks": 24960,
          "time": 62.39999999999999,
          "velocity": 0.7874015748031497
        },
        {
          "duration": 0.15000000000000568,
          "durationTicks": 60,
          "midi": 36,
          "name": "C2",
          "ticks": 24960,
          "time": 62.39999999999999,
          "velocity": 0.7874015748031497
        },
        {
          "duration": 0.15000000000000568,
          "durationTicks": 60,
          "midi": 82,
          "name": "A#5",
          "ticks": 24960,
          "time": 62.39999999999999,
          "velocity": 0.5039370078740157
        },
        {
          "duration": 0.14999999999999858,
          "durationTicks": 60,
          "midi": 42,
          "name": "F#2",
          "ticks": 25020,
          "time": 62.55,
          "velocity": 0.7874015748031497
        },
        {
          "duration": 0.14999999999999858,
          "durationTicks": 60,
          "midi": 82,
          "name": "A#5",
          "ticks": 25020,
          "time": 62.55,
          "velocity": 0.5039370078740157
        },
        {
          "duration": 0.14999999999999858,
          "durationTicks": 60,
          "midi": 121,
          "name": "C#9",
          "ticks": 25080,
          "time": 62.699999999999996,
          "velocity": 0.9133858267716536
        },
        {
          "duration": 0.14999999999999858,
          "durationTicks": 60,
          "midi": 42,
          "name": "F#2",
          "ticks": 25080,
          "time": 62.699999999999996,
          "velocity": 0.7874015748031497
        },
        {
          "duration": 0.14999999999999858,
          "durationTicks": 60,
          "midi": 82,
          "name": "A#5",
          "ticks": 25080,
          "time": 62.699999999999996,
          "velocity": 0.5039370078740157
        },
        {
          "duration": 0.14999999999999858,
          "durationTicks": 60,
          "midi": 36,
          "name": "C2",
          "ticks": 25140,
          "time": 62.849999999999994,
          "velocity": 0.7874015748031497
        },
        {
          "duration": 0.14999999999999858,
          "durationTicks": 60,
          "midi": 82,
          "name": "A#5",
          "ticks": 25140,
          "time": 62.849999999999994,
          "velocity": 0.5039370078740157
        },
        {
          "duration": 0.14999999999999858,
          "durationTicks": 60,
          "midi": 42,
          "name": "F#2",
          "ticks": 25200,
          "time": 62.99999999999999,
          "velocity": 0.7874015748031497
        },
        {
          "duration": 0.14999999999999858,
          "durationTicks": 60,
          "midi": 36,
          "name": "C2",
          "ticks": 25200,
          "time": 62.99999999999999,
          "velocity": 0.7874015748031497
        },
        {
          "duration": 0.14999999999999858,
          "durationTicks": 60,
          "midi": 82,
          "name": "A#5",
          "ticks": 25200,
          "time": 62.99999999999999,
          "velocity": 1
        },
        {
          "duration": 0.15000000000000568,
          "durationTicks": 60,
          "midi": 42,
          "name": "F#2",
          "ticks": 25260,
          "time": 63.14999999999999,
          "velocity": 0.7874015748031497
        },
        {
          "duration": 0.15000000000000568,
          "durationTicks": 60,
          "midi": 82,
          "name": "A#5",
          "ticks": 25260,
          "time": 63.14999999999999,
          "velocity": 0.5039370078740157
        },
        {
          "duration": 0.14999999999999858,
          "durationTicks": 60,
          "midi": 121,
          "name": "C#9",
          "ticks": 25320,
          "time": 63.3,
          "velocity": 0.9133858267716536
        },
        {
          "duration": 0.14999999999999858,
          "durationTicks": 60,
          "midi": 42,
          "name": "F#2",
          "ticks": 25320,
          "time": 63.3,
          "velocity": 0.7874015748031497
        },
        {
          "duration": 0.14999999999999858,
          "durationTicks": 60,
          "midi": 82,
          "name": "A#5",
          "ticks": 25320,
          "time": 63.3,
          "velocity": 1
        },
        {
          "duration": 0.14999999999999858,
          "durationTicks": 60,
          "midi": 39,
          "name": "D#2",
          "ticks": 25320,
          "time": 63.3,
          "velocity": 0.7874015748031497
        },
        {
          "duration": 0.14999999999999858,
          "durationTicks": 60,
          "midi": 82,
          "name": "A#5",
          "ticks": 25380,
          "time": 63.449999999999996,
          "velocity": 0.5039370078740157
        },
        {
          "duration": 0.14999999999999858,
          "durationTicks": 60,
          "midi": 42,
          "name": "F#2",
          "ticks": 25440,
          "time": 63.599999999999994,
          "velocity": 0.7874015748031497
        },
        {
          "duration": 0.14999999999999858,
          "durationTicks": 60,
          "midi": 36,
          "name": "C2",
          "ticks": 25440,
          "time": 63.599999999999994,
          "velocity": 0.7874015748031497
        },
        {
          "duration": 0.14999999999999858,
          "durationTicks": 60,
          "midi": 82,
          "name": "A#5",
          "ticks": 25440,
          "time": 63.599999999999994,
          "velocity": 1
        },
        {
          "duration": 0.14999999999999858,
          "durationTicks": 60,
          "midi": 42,
          "name": "F#2",
          "ticks": 25500,
          "time": 63.74999999999999,
          "velocity": 0.7874015748031497
        },
        {
          "duration": 0.14999999999999858,
          "durationTicks": 60,
          "midi": 82,
          "name": "A#5",
          "ticks": 25500,
          "time": 63.74999999999999,
          "velocity": 0.5039370078740157
        },
        {
          "duration": 0.15000000000000568,
          "durationTicks": 60,
          "midi": 121,
          "name": "C#9",
          "ticks": 25560,
          "time": 63.89999999999999,
          "velocity": 0.9133858267716536
        },
        {
          "duration": 0.15000000000000568,
          "durationTicks": 60,
          "midi": 42,
          "name": "F#2",
          "ticks": 25560,
          "time": 63.89999999999999,
          "velocity": 0.7874015748031497
        },
        {
          "duration": 0.15000000000000568,
          "durationTicks": 60,
          "midi": 82,
          "name": "A#5",
          "ticks": 25560,
          "time": 63.89999999999999,
          "velocity": 1
        },
        {
          "duration": 0.15000000000000568,
          "durationTicks": 60,
          "midi": 39,
          "name": "D#2",
          "ticks": 25560,
          "time": 63.89999999999999,
          "velocity": 0.7874015748031497
        },
        {
          "duration": 0.14999999999999147,
          "durationTicks": 60,
          "midi": 36,
          "name": "C2",
          "ticks": 25620,
          "time": 64.05,
          "velocity": 0.7874015748031497
        },
        {
          "duration": 0.14999999999999147,
          "durationTicks": 60,
          "midi": 82,
          "name": "A#5",
          "ticks": 25620,
          "time": 64.05,
          "velocity": 0.5039370078740157
        },
        {
          "duration": 0.15000000000000568,
          "durationTicks": 60,
          "midi": 42,
          "name": "F#2",
          "ticks": 25680,
          "time": 64.19999999999999,
          "velocity": 0.7874015748031497
        },
        {
          "duration": 0.15000000000000568,
          "durationTicks": 60,
          "midi": 36,
          "name": "C2",
          "ticks": 25680,
          "time": 64.19999999999999,
          "velocity": 0.7874015748031497
        },
        {
          "duration": 0.15000000000000568,
          "durationTicks": 60,
          "midi": 82,
          "name": "A#5",
          "ticks": 25680,
          "time": 64.19999999999999,
          "velocity": 0.5039370078740157
        },
        {
          "duration": 0.15000000000000568,
          "durationTicks": 60,
          "midi": 42,
          "name": "F#2",
          "ticks": 25740,
          "time": 64.35,
          "velocity": 0.7874015748031497
        },
        {
          "duration": 0.15000000000000568,
          "durationTicks": 60,
          "midi": 82,
          "name": "A#5",
          "ticks": 25740,
          "time": 64.35,
          "velocity": 1
        },
        {
          "duration": 0.14999999999999147,
          "durationTicks": 60,
          "midi": 121,
          "name": "C#9",
          "ticks": 25800,
          "time": 64.5,
          "velocity": 0.9133858267716536
        },
        {
          "duration": 0.14999999999999147,
          "durationTicks": 60,
          "midi": 42,
          "name": "F#2",
          "ticks": 25800,
          "time": 64.5,
          "velocity": 0.7874015748031497
        },
        {
          "duration": 0.14999999999999147,
          "durationTicks": 60,
          "midi": 82,
          "name": "A#5",
          "ticks": 25800,
          "time": 64.5,
          "velocity": 1
        },
        {
          "duration": 0.14999999999999147,
          "durationTicks": 60,
          "midi": 39,
          "name": "D#2",
          "ticks": 25800,
          "time": 64.5,
          "velocity": 0.7874015748031497
        },
        {
          "duration": 0.15000000000000568,
          "durationTicks": 60,
          "midi": 36,
          "name": "C2",
          "ticks": 25860,
          "time": 64.64999999999999,
          "velocity": 0.7874015748031497
        },
        {
          "duration": 0.15000000000000568,
          "durationTicks": 60,
          "midi": 82,
          "name": "A#5",
          "ticks": 25860,
          "time": 64.64999999999999,
          "velocity": 0.5039370078740157
        },
        {
          "duration": 0.14999999999999147,
          "durationTicks": 60,
          "midi": 42,
          "name": "F#2",
          "ticks": 25920,
          "time": 64.8,
          "velocity": 0.7874015748031497
        },
        {
          "duration": 0.14999999999999147,
          "durationTicks": 60,
          "midi": 36,
          "name": "C2",
          "ticks": 25920,
          "time": 64.8,
          "velocity": 0.7874015748031497
        },
        {
          "duration": 0.14999999999999147,
          "durationTicks": 60,
          "midi": 82,
          "name": "A#5",
          "ticks": 25920,
          "time": 64.8,
          "velocity": 0.5039370078740157
        },
        {
          "duration": 0.15000000000000568,
          "durationTicks": 60,
          "midi": 42,
          "name": "F#2",
          "ticks": 25980,
          "time": 64.94999999999999,
          "velocity": 0.7874015748031497
        },
        {
          "duration": 0.15000000000000568,
          "durationTicks": 60,
          "midi": 82,
          "name": "A#5",
          "ticks": 25980,
          "time": 64.94999999999999,
          "velocity": 0.5039370078740157
        },
        {
          "duration": 0.15000000000000568,
          "durationTicks": 60,
          "midi": 121,
          "name": "C#9",
          "ticks": 26040,
          "time": 65.1,
          "velocity": 0.9133858267716536
        },
        {
          "duration": 0.15000000000000568,
          "durationTicks": 60,
          "midi": 42,
          "name": "F#2",
          "ticks": 26040,
          "time": 65.1,
          "velocity": 0.7874015748031497
        },
        {
          "duration": 0.15000000000000568,
          "durationTicks": 60,
          "midi": 82,
          "name": "A#5",
          "ticks": 26040,
          "time": 65.1,
          "velocity": 0.5039370078740157
        },
        {
          "duration": 0.15000000000000568,
          "durationTicks": 60,
          "midi": 39,
          "name": "D#2",
          "ticks": 26040,
          "time": 65.1,
          "velocity": 0.7874015748031497
        },
        {
          "duration": 0.14999999999999147,
          "durationTicks": 60,
          "midi": 36,
          "name": "C2",
          "ticks": 26100,
          "time": 65.25,
          "velocity": 0.7874015748031497
        },
        {
          "duration": 0.14999999999999147,
          "durationTicks": 60,
          "midi": 82,
          "name": "A#5",
          "ticks": 26100,
          "time": 65.25,
          "velocity": 0.5039370078740157
        },
        {
          "duration": 0.15000000000000568,
          "durationTicks": 60,
          "midi": 42,
          "name": "F#2",
          "ticks": 26160,
          "time": 65.39999999999999,
          "velocity": 0.7874015748031497
        },
        {
          "duration": 0.15000000000000568,
          "durationTicks": 60,
          "midi": 36,
          "name": "C2",
          "ticks": 26160,
          "time": 65.39999999999999,
          "velocity": 0.7874015748031497
        },
        {
          "duration": 0.15000000000000568,
          "durationTicks": 60,
          "midi": 82,
          "name": "A#5",
          "ticks": 26160,
          "time": 65.39999999999999,
          "velocity": 1
        },
        {
          "duration": 0.14999999999999147,
          "durationTicks": 60,
          "midi": 42,
          "name": "F#2",
          "ticks": 26220,
          "time": 65.55,
          "velocity": 0.7874015748031497
        },
        {
          "duration": 0.14999999999999147,
          "durationTicks": 60,
          "midi": 82,
          "name": "A#5",
          "ticks": 26220,
          "time": 65.55,
          "velocity": 1
        },
        {
          "duration": 0.15000000000000568,
          "durationTicks": 60,
          "midi": 121,
          "name": "C#9",
          "ticks": 26280,
          "time": 65.69999999999999,
          "velocity": 0.9133858267716536
        },
        {
          "duration": 0.15000000000000568,
          "durationTicks": 60,
          "midi": 42,
          "name": "F#2",
          "ticks": 26280,
          "time": 65.69999999999999,
          "velocity": 0.7874015748031497
        },
        {
          "duration": 0.15000000000000568,
          "durationTicks": 60,
          "midi": 82,
          "name": "A#5",
          "ticks": 26280,
          "time": 65.69999999999999,
          "velocity": 1
        },
        {
          "duration": 0.15000000000000568,
          "durationTicks": 60,
          "midi": 39,
          "name": "D#2",
          "ticks": 26280,
          "time": 65.69999999999999,
          "velocity": 0.7874015748031497
        },
        {
          "duration": 0.15000000000000568,
          "durationTicks": 60,
          "midi": 82,
          "name": "A#5",
          "ticks": 26340,
          "time": 65.85,
          "velocity": 0.5039370078740157
        },
        {
          "duration": 0.14999999999999147,
          "durationTicks": 60,
          "midi": 49,
          "name": "C#3",
          "ticks": 26400,
          "time": 66,
          "velocity": 0.7874015748031497
        },
        {
          "duration": 0.14999999999999147,
          "durationTicks": 60,
          "midi": 36,
          "name": "C2",
          "ticks": 26400,
          "time": 66,
          "velocity": 0.7874015748031497
        },
        {
          "duration": 0.14999999999999147,
          "durationTicks": 60,
          "midi": 82,
          "name": "A#5",
          "ticks": 26400,
          "time": 66,
          "velocity": 1
        },
        {
          "duration": 0.15000000000000568,
          "durationTicks": 60,
          "midi": 82,
          "name": "A#5",
          "ticks": 26460,
          "time": 66.14999999999999,
          "velocity": 0.5039370078740157
        },
        {
          "duration": 0.14999999999999147,
          "durationTicks": 60,
          "midi": 121,
          "name": "C#9",
          "ticks": 26520,
          "time": 66.3,
          "velocity": 0.9133858267716536
        },
        {
          "duration": 0.14999999999999147,
          "durationTicks": 60,
          "midi": 42,
          "name": "F#2",
          "ticks": 26520,
          "time": 66.3,
          "velocity": 0.7874015748031497
        },
        {
          "duration": 0.14999999999999147,
          "durationTicks": 60,
          "midi": 82,
          "name": "A#5",
          "ticks": 26520,
          "time": 66.3,
          "velocity": 1
        },
        {
          "duration": 0.15000000000000568,
          "durationTicks": 60,
          "midi": 36,
          "name": "C2",
          "ticks": 26580,
          "time": 66.44999999999999,
          "velocity": 0.7874015748031497
        },
        {
          "duration": 0.15000000000000568,
          "durationTicks": 60,
          "midi": 82,
          "name": "A#5",
          "ticks": 26580,
          "time": 66.44999999999999,
          "velocity": 0.5039370078740157
        },
        {
          "duration": 0.15000000000000568,
          "durationTicks": 60,
          "midi": 42,
          "name": "F#2",
          "ticks": 26640,
          "time": 66.6,
          "velocity": 0.7874015748031497
        },
        {
          "duration": 0.15000000000000568,
          "durationTicks": 60,
          "midi": 36,
          "name": "C2",
          "ticks": 26640,
          "time": 66.6,
          "velocity": 0.7874015748031497
        },
        {
          "duration": 0.15000000000000568,
          "durationTicks": 60,
          "midi": 82,
          "name": "A#5",
          "ticks": 26640,
          "time": 66.6,
          "velocity": 1
        },
        {
          "duration": 0.14999999999999147,
          "durationTicks": 60,
          "midi": 82,
          "name": "A#5",
          "ticks": 26700,
          "time": 66.75,
          "velocity": 0.5039370078740157
        },
        {
          "duration": 0.15000000000000568,
          "durationTicks": 60,
          "midi": 121,
          "name": "C#9",
          "ticks": 26760,
          "time": 66.89999999999999,
          "velocity": 0.9133858267716536
        },
        {
          "duration": 0.15000000000000568,
          "durationTicks": 60,
          "midi": 42,
          "name": "F#2",
          "ticks": 26760,
          "time": 66.89999999999999,
          "velocity": 0.7874015748031497
        },
        {
          "duration": 0.15000000000000568,
          "durationTicks": 60,
          "midi": 82,
          "name": "A#5",
          "ticks": 26760,
          "time": 66.89999999999999,
          "velocity": 1
        },
        {
          "duration": 0.15000000000000568,
          "durationTicks": 60,
          "midi": 39,
          "name": "D#2",
          "ticks": 26760,
          "time": 66.89999999999999,
          "velocity": 0.7874015748031497
        },
        {
          "duration": 0.14999999999999147,
          "durationTicks": 60,
          "midi": 82,
          "name": "A#5",
          "ticks": 26820,
          "time": 67.05,
          "velocity": 0.5039370078740157
        },
        {
          "duration": 0.15000000000000568,
          "durationTicks": 60,
          "midi": 42,
          "name": "F#2",
          "ticks": 26880,
          "time": 67.19999999999999,
          "velocity": 0.7874015748031497
        },
        {
          "duration": 0.15000000000000568,
          "durationTicks": 60,
          "midi": 36,
          "name": "C2",
          "ticks": 26880,
          "time": 67.19999999999999,
          "velocity": 0.7874015748031497
        },
        {
          "duration": 0.15000000000000568,
          "durationTicks": 60,
          "midi": 82,
          "name": "A#5",
          "ticks": 26880,
          "time": 67.19999999999999,
          "velocity": 0.5039370078740157
        },
        {
          "duration": 0.15000000000000568,
          "durationTicks": 60,
          "midi": 42,
          "name": "F#2",
          "ticks": 26940,
          "time": 67.35,
          "velocity": 0.7874015748031497
        },
        {
          "duration": 0.15000000000000568,
          "durationTicks": 60,
          "midi": 82,
          "name": "A#5",
          "ticks": 26940,
          "time": 67.35,
          "velocity": 0.5039370078740157
        },
        {
          "duration": 0.14999999999999147,
          "durationTicks": 60,
          "midi": 121,
          "name": "C#9",
          "ticks": 27000,
          "time": 67.5,
          "velocity": 0.9133858267716536
        },
        {
          "duration": 0.14999999999999147,
          "durationTicks": 60,
          "midi": 42,
          "name": "F#2",
          "ticks": 27000,
          "time": 67.5,
          "velocity": 0.7874015748031497
        },
        {
          "duration": 0.14999999999999147,
          "durationTicks": 60,
          "midi": 82,
          "name": "A#5",
          "ticks": 27000,
          "time": 67.5,
          "velocity": 0.5039370078740157
        },
        {
          "duration": 0.15000000000000568,
          "durationTicks": 60,
          "midi": 36,
          "name": "C2",
          "ticks": 27060,
          "time": 67.64999999999999,
          "velocity": 0.7874015748031497
        },
        {
          "duration": 0.15000000000000568,
          "durationTicks": 60,
          "midi": 82,
          "name": "A#5",
          "ticks": 27060,
          "time": 67.64999999999999,
          "velocity": 0.5039370078740157
        },
        {
          "duration": 0.14999999999999147,
          "durationTicks": 60,
          "midi": 42,
          "name": "F#2",
          "ticks": 27120,
          "time": 67.8,
          "velocity": 0.7874015748031497
        },
        {
          "duration": 0.14999999999999147,
          "durationTicks": 60,
          "midi": 36,
          "name": "C2",
          "ticks": 27120,
          "time": 67.8,
          "velocity": 0.7874015748031497
        },
        {
          "duration": 0.14999999999999147,
          "durationTicks": 60,
          "midi": 82,
          "name": "A#5",
          "ticks": 27120,
          "time": 67.8,
          "velocity": 1
        },
        {
          "duration": 0.15000000000000568,
          "durationTicks": 60,
          "midi": 42,
          "name": "F#2",
          "ticks": 27180,
          "time": 67.94999999999999,
          "velocity": 0.7874015748031497
        },
        {
          "duration": 0.15000000000000568,
          "durationTicks": 60,
          "midi": 82,
          "name": "A#5",
          "ticks": 27180,
          "time": 67.94999999999999,
          "velocity": 0.5039370078740157
        },
        {
          "duration": 0.15000000000000568,
          "durationTicks": 60,
          "midi": 121,
          "name": "C#9",
          "ticks": 27240,
          "time": 68.1,
          "velocity": 0.9133858267716536
        },
        {
          "duration": 0.15000000000000568,
          "durationTicks": 60,
          "midi": 42,
          "name": "F#2",
          "ticks": 27240,
          "time": 68.1,
          "velocity": 0.7874015748031497
        },
        {
          "duration": 0.15000000000000568,
          "durationTicks": 60,
          "midi": 82,
          "name": "A#5",
          "ticks": 27240,
          "time": 68.1,
          "velocity": 1
        },
        {
          "duration": 0.15000000000000568,
          "durationTicks": 60,
          "midi": 39,
          "name": "D#2",
          "ticks": 27240,
          "time": 68.1,
          "velocity": 0.7874015748031497
        },
        {
          "duration": 0.14999999999999147,
          "durationTicks": 60,
          "midi": 82,
          "name": "A#5",
          "ticks": 27300,
          "time": 68.25,
          "velocity": 0.5039370078740157
        },
        {
          "duration": 0.15000000000000568,
          "durationTicks": 60,
          "midi": 42,
          "name": "F#2",
          "ticks": 27360,
          "time": 68.39999999999999,
          "velocity": 0.7874015748031497
        },
        {
          "duration": 0.15000000000000568,
          "durationTicks": 60,
          "midi": 36,
          "name": "C2",
          "ticks": 27360,
          "time": 68.39999999999999,
          "velocity": 0.7874015748031497
        },
        {
          "duration": 0.15000000000000568,
          "durationTicks": 60,
          "midi": 82,
          "name": "A#5",
          "ticks": 27360,
          "time": 68.39999999999999,
          "velocity": 1
        },
        {
          "duration": 0.14999999999999147,
          "durationTicks": 60,
          "midi": 42,
          "name": "F#2",
          "ticks": 27420,
          "time": 68.55,
          "velocity": 0.7874015748031497
        },
        {
          "duration": 0.14999999999999147,
          "durationTicks": 60,
          "midi": 82,
          "name": "A#5",
          "ticks": 27420,
          "time": 68.55,
          "velocity": 0.5039370078740157
        },
        {
          "duration": 0.15000000000000568,
          "durationTicks": 60,
          "midi": 121,
          "name": "C#9",
          "ticks": 27480,
          "time": 68.69999999999999,
          "velocity": 0.9133858267716536
        },
        {
          "duration": 0.15000000000000568,
          "durationTicks": 60,
          "midi": 42,
          "name": "F#2",
          "ticks": 27480,
          "time": 68.69999999999999,
          "velocity": 0.7874015748031497
        },
        {
          "duration": 0.15000000000000568,
          "durationTicks": 60,
          "midi": 82,
          "name": "A#5",
          "ticks": 27480,
          "time": 68.69999999999999,
          "velocity": 1
        },
        {
          "duration": 0.15000000000000568,
          "durationTicks": 60,
          "midi": 39,
          "name": "D#2",
          "ticks": 27480,
          "time": 68.69999999999999,
          "velocity": 0.7874015748031497
        },
        {
          "duration": 0.15000000000000568,
          "durationTicks": 60,
          "midi": 36,
          "name": "C2",
          "ticks": 27540,
          "time": 68.85,
          "velocity": 0.7874015748031497
        },
        {
          "duration": 0.15000000000000568,
          "durationTicks": 60,
          "midi": 82,
          "name": "A#5",
          "ticks": 27540,
          "time": 68.85,
          "velocity": 0.5039370078740157
        },
        {
          "duration": 0.14999999999999147,
          "durationTicks": 60,
          "midi": 42,
          "name": "F#2",
          "ticks": 27600,
          "time": 69,
          "velocity": 0.7874015748031497
        },
        {
          "duration": 0.14999999999999147,
          "durationTicks": 60,
          "midi": 36,
          "name": "C2",
          "ticks": 27600,
          "time": 69,
          "velocity": 0.7874015748031497
        },
        {
          "duration": 0.14999999999999147,
          "durationTicks": 60,
          "midi": 82,
          "name": "A#5",
          "ticks": 27600,
          "time": 69,
          "velocity": 0.5039370078740157
        },
        {
          "duration": 0.15000000000000568,
          "durationTicks": 60,
          "midi": 42,
          "name": "F#2",
          "ticks": 27660,
          "time": 69.14999999999999,
          "velocity": 0.7874015748031497
        },
        {
          "duration": 0.15000000000000568,
          "durationTicks": 60,
          "midi": 82,
          "name": "A#5",
          "ticks": 27660,
          "time": 69.14999999999999,
          "velocity": 1
        },
        {
          "duration": 0.14999999999999147,
          "durationTicks": 60,
          "midi": 121,
          "name": "C#9",
          "ticks": 27720,
          "time": 69.3,
          "velocity": 0.9133858267716536
        },
        {
          "duration": 0.14999999999999147,
          "durationTicks": 60,
          "midi": 42,
          "name": "F#2",
          "ticks": 27720,
          "time": 69.3,
          "velocity": 0.7874015748031497
        },
        {
          "duration": 0.14999999999999147,
          "durationTicks": 60,
          "midi": 82,
          "name": "A#5",
          "ticks": 27720,
          "time": 69.3,
          "velocity": 1
        },
        {
          "duration": 0.14999999999999147,
          "durationTicks": 60,
          "midi": 39,
          "name": "D#2",
          "ticks": 27720,
          "time": 69.3,
          "velocity": 0.7874015748031497
        },
        {
          "duration": 0.15000000000000568,
          "durationTicks": 60,
          "midi": 36,
          "name": "C2",
          "ticks": 27780,
          "time": 69.44999999999999,
          "velocity": 0.7874015748031497
        },
        {
          "duration": 0.15000000000000568,
          "durationTicks": 60,
          "midi": 82,
          "name": "A#5",
          "ticks": 27780,
          "time": 69.44999999999999,
          "velocity": 0.5039370078740157
        },
        {
          "duration": 0.15000000000000568,
          "durationTicks": 60,
          "midi": 42,
          "name": "F#2",
          "ticks": 27840,
          "time": 69.6,
          "velocity": 0.7874015748031497
        },
        {
          "duration": 0.15000000000000568,
          "durationTicks": 60,
          "midi": 36,
          "name": "C2",
          "ticks": 27840,
          "time": 69.6,
          "velocity": 0.7874015748031497
        },
        {
          "duration": 0.15000000000000568,
          "durationTicks": 60,
          "midi": 82,
          "name": "A#5",
          "ticks": 27840,
          "time": 69.6,
          "velocity": 0.5039370078740157
        },
        {
          "duration": 0.14999999999999147,
          "durationTicks": 60,
          "midi": 42,
          "name": "F#2",
          "ticks": 27900,
          "time": 69.75,
          "velocity": 0.7874015748031497
        },
        {
          "duration": 0.14999999999999147,
          "durationTicks": 60,
          "midi": 82,
          "name": "A#5",
          "ticks": 27900,
          "time": 69.75,
          "velocity": 0.5039370078740157
        },
        {
          "duration": 0.15000000000000568,
          "durationTicks": 60,
          "midi": 121,
          "name": "C#9",
          "ticks": 27960,
          "time": 69.89999999999999,
          "velocity": 0.9133858267716536
        },
        {
          "duration": 0.15000000000000568,
          "durationTicks": 60,
          "midi": 42,
          "name": "F#2",
          "ticks": 27960,
          "time": 69.89999999999999,
          "velocity": 0.7874015748031497
        },
        {
          "duration": 0.15000000000000568,
          "durationTicks": 60,
          "midi": 82,
          "name": "A#5",
          "ticks": 27960,
          "time": 69.89999999999999,
          "velocity": 0.5039370078740157
        },
        {
          "duration": 0.15000000000000568,
          "durationTicks": 60,
          "midi": 39,
          "name": "D#2",
          "ticks": 27960,
          "time": 69.89999999999999,
          "velocity": 0.7874015748031497
        },
        {
          "duration": 0.14999999999999147,
          "durationTicks": 60,
          "midi": 36,
          "name": "C2",
          "ticks": 28020,
          "time": 70.05,
          "velocity": 0.7874015748031497
        },
        {
          "duration": 0.14999999999999147,
          "durationTicks": 60,
          "midi": 82,
          "name": "A#5",
          "ticks": 28020,
          "time": 70.05,
          "velocity": 0.5039370078740157
        },
        {
          "duration": 0.15000000000000568,
          "durationTicks": 60,
          "midi": 42,
          "name": "F#2",
          "ticks": 28080,
          "time": 70.19999999999999,
          "velocity": 0.7874015748031497
        },
        {
          "duration": 0.15000000000000568,
          "durationTicks": 60,
          "midi": 36,
          "name": "C2",
          "ticks": 28080,
          "time": 70.19999999999999,
          "velocity": 0.7874015748031497
        },
        {
          "duration": 0.15000000000000568,
          "durationTicks": 60,
          "midi": 82,
          "name": "A#5",
          "ticks": 28080,
          "time": 70.19999999999999,
          "velocity": 1
        },
        {
          "duration": 0.15000000000000568,
          "durationTicks": 60,
          "midi": 121,
          "name": "C#9",
          "ticks": 28140,
          "time": 70.35,
          "velocity": 0.9133858267716536
        },
        {
          "duration": 0.15000000000000568,
          "durationTicks": 60,
          "midi": 42,
          "name": "F#2",
          "ticks": 28140,
          "time": 70.35,
          "velocity": 0.7874015748031497
        },
        {
          "duration": 0.15000000000000568,
          "durationTicks": 60,
          "midi": 82,
          "name": "A#5",
          "ticks": 28140,
          "time": 70.35,
          "velocity": 1
        },
        {
          "duration": 0.15000000000000568,
          "durationTicks": 60,
          "midi": 39,
          "name": "D#2",
          "ticks": 28140,
          "time": 70.35,
          "velocity": 0.7874015748031497
        },
        {
          "duration": 0.14999999999999147,
          "durationTicks": 60,
          "midi": 121,
          "name": "C#9",
          "ticks": 28200,
          "time": 70.5,
          "velocity": 0.9133858267716536
        },
        {
          "duration": 0.14999999999999147,
          "durationTicks": 60,
          "midi": 42,
          "name": "F#2",
          "ticks": 28200,
          "time": 70.5,
          "velocity": 0.7874015748031497
        },
        {
          "duration": 0.14999999999999147,
          "durationTicks": 60,
          "midi": 82,
          "name": "A#5",
          "ticks": 28200,
          "time": 70.5,
          "velocity": 1
        },
        {
          "duration": 0.14999999999999147,
          "durationTicks": 60,
          "midi": 39,
          "name": "D#2",
          "ticks": 28200,
          "time": 70.5,
          "velocity": 0.7874015748031497
        },
        {
          "duration": 0.15000000000000568,
          "durationTicks": 60,
          "midi": 121,
          "name": "C#9",
          "ticks": 28260,
          "time": 70.64999999999999,
          "velocity": 0.9133858267716536
        },
        {
          "duration": 0.15000000000000568,
          "durationTicks": 60,
          "midi": 82,
          "name": "A#5",
          "ticks": 28260,
          "time": 70.64999999999999,
          "velocity": 0.5039370078740157
        },
        {
          "duration": 0.14999999999999147,
          "durationTicks": 60,
          "midi": 49,
          "name": "C#3",
          "ticks": 28320,
          "time": 70.8,
          "velocity": 0.7874015748031497
        },
        {
          "duration": 0.14999999999999147,
          "durationTicks": 60,
          "midi": 36,
          "name": "C2",
          "ticks": 28320,
          "time": 70.8,
          "velocity": 0.7874015748031497
        },
        {
          "duration": 0.14999999999999147,
          "durationTicks": 60,
          "midi": 82,
          "name": "A#5",
          "ticks": 28320,
          "time": 70.8,
          "velocity": 1
        },
        {
          "duration": 0.15000000000000568,
          "durationTicks": 60,
          "midi": 82,
          "name": "A#5",
          "ticks": 28380,
          "time": 70.94999999999999,
          "velocity": 0.5039370078740157
        },
        {
          "duration": 0.15000000000000568,
          "durationTicks": 60,
          "midi": 42,
          "name": "F#2",
          "ticks": 28440,
          "time": 71.1,
          "velocity": 0.7874015748031497
        },
        {
          "duration": 0.15000000000000568,
          "durationTicks": 60,
          "midi": 82,
          "name": "A#5",
          "ticks": 28440,
          "time": 71.1,
          "velocity": 1
        },
        {
          "duration": 0.14999999999999147,
          "durationTicks": 60,
          "midi": 42,
          "name": "F#2",
          "ticks": 28500,
          "time": 71.25,
          "velocity": 0.7874015748031497
        },
        {
          "duration": 0.14999999999999147,
          "durationTicks": 60,
          "midi": 36,
          "name": "C2",
          "ticks": 28500,
          "time": 71.25,
          "velocity": 0.7874015748031497
        },
        {
          "duration": 0.14999999999999147,
          "durationTicks": 60,
          "midi": 82,
          "name": "A#5",
          "ticks": 28500,
          "time": 71.25,
          "velocity": 0.5039370078740157
        },
        {
          "duration": 0.15000000000000568,
          "durationTicks": 60,
          "midi": 42,
          "name": "F#2",
          "ticks": 28560,
          "time": 71.39999999999999,
          "velocity": 0.7874015748031497
        },
        {
          "duration": 0.15000000000000568,
          "durationTicks": 60,
          "midi": 36,
          "name": "C2",
          "ticks": 28560,
          "time": 71.39999999999999,
          "velocity": 0.7874015748031497
        },
        {
          "duration": 0.15000000000000568,
          "durationTicks": 60,
          "midi": 82,
          "name": "A#5",
          "ticks": 28560,
          "time": 71.39999999999999,
          "velocity": 0.5039370078740157
        },
        {
          "duration": 0.14999999999999147,
          "durationTicks": 60,
          "midi": 46,
          "name": "A#2",
          "ticks": 28620,
          "time": 71.55,
          "velocity": 0.7874015748031497
        },
        {
          "duration": 0.14999999999999147,
          "durationTicks": 60,
          "midi": 82,
          "name": "A#5",
          "ticks": 28620,
          "time": 71.55,
          "velocity": 0.5039370078740157
        },
        {
          "duration": 0.15000000000000568,
          "durationTicks": 60,
          "midi": 121,
          "name": "C#9",
          "ticks": 28680,
          "time": 71.69999999999999,
          "velocity": 0.9133858267716536
        },
        {
          "duration": 0.15000000000000568,
          "durationTicks": 60,
          "midi": 42,
          "name": "F#2",
          "ticks": 28680,
          "time": 71.69999999999999,
          "velocity": 0.7874015748031497
        },
        {
          "duration": 0.15000000000000568,
          "durationTicks": 60,
          "midi": 82,
          "name": "A#5",
          "ticks": 28680,
          "time": 71.69999999999999,
          "velocity": 1
        },
        {
          "duration": 0.15000000000000568,
          "durationTicks": 60,
          "midi": 39,
          "name": "D#2",
          "ticks": 28680,
          "time": 71.69999999999999,
          "velocity": 0.7874015748031497
        },
        {
          "duration": 0.15000000000000568,
          "durationTicks": 60,
          "midi": 42,
          "name": "F#2",
          "ticks": 28740,
          "time": 71.85,
          "velocity": 0.7874015748031497
        },
        {
          "duration": 0.15000000000000568,
          "durationTicks": 60,
          "midi": 82,
          "name": "A#5",
          "ticks": 28740,
          "time": 71.85,
          "velocity": 1
        },
        {
          "duration": 0.14999999999999147,
          "durationTicks": 60,
          "midi": 42,
          "name": "F#2",
          "ticks": 28800,
          "time": 72,
          "velocity": 0.7874015748031497
        },
        {
          "duration": 0.14999999999999147,
          "durationTicks": 60,
          "midi": 36,
          "name": "C2",
          "ticks": 28800,
          "time": 72,
          "velocity": 0.7874015748031497
        },
        {
          "duration": 0.14999999999999147,
          "durationTicks": 60,
          "midi": 82,
          "name": "A#5",
          "ticks": 28800,
          "time": 72,
          "velocity": 0.5039370078740157
        },
        {
          "duration": 0.15000000000000568,
          "durationTicks": 60,
          "midi": 42,
          "name": "F#2",
          "ticks": 28860,
          "time": 72.14999999999999,
          "velocity": 0.7874015748031497
        },
        {
          "duration": 0.15000000000000568,
          "durationTicks": 60,
          "midi": 82,
          "name": "A#5",
          "ticks": 28860,
          "time": 72.14999999999999,
          "velocity": 0.5039370078740157
        },
        {
          "duration": 0.14999999999999147,
          "durationTicks": 60,
          "midi": 42,
          "name": "F#2",
          "ticks": 28920,
          "time": 72.3,
          "velocity": 0.7874015748031497
        },
        {
          "duration": 0.14999999999999147,
          "durationTicks": 60,
          "midi": 82,
          "name": "A#5",
          "ticks": 28920,
          "time": 72.3,
          "velocity": 1
        },
        {
          "duration": 0.15000000000000568,
          "durationTicks": 60,
          "midi": 42,
          "name": "F#2",
          "ticks": 28980,
          "time": 72.44999999999999,
          "velocity": 0.7874015748031497
        },
        {
          "duration": 0.15000000000000568,
          "durationTicks": 60,
          "midi": 36,
          "name": "C2",
          "ticks": 28980,
          "time": 72.44999999999999,
          "velocity": 0.7874015748031497
        },
        {
          "duration": 0.15000000000000568,
          "durationTicks": 60,
          "midi": 82,
          "name": "A#5",
          "ticks": 28980,
          "time": 72.44999999999999,
          "velocity": 1
        },
        {
          "duration": 0.15000000000000568,
          "durationTicks": 60,
          "midi": 42,
          "name": "F#2",
          "ticks": 29040,
          "time": 72.6,
          "velocity": 0.7874015748031497
        },
        {
          "duration": 0.15000000000000568,
          "durationTicks": 60,
          "midi": 36,
          "name": "C2",
          "ticks": 29040,
          "time": 72.6,
          "velocity": 0.7874015748031497
        },
        {
          "duration": 0.15000000000000568,
          "durationTicks": 60,
          "midi": 82,
          "name": "A#5",
          "ticks": 29040,
          "time": 72.6,
          "velocity": 0.5039370078740157
        },
        {
          "duration": 0.14999999999999147,
          "durationTicks": 60,
          "midi": 46,
          "name": "A#2",
          "ticks": 29100,
          "time": 72.75,
          "velocity": 0.7874015748031497
        },
        {
          "duration": 0.14999999999999147,
          "durationTicks": 60,
          "midi": 82,
          "name": "A#5",
          "ticks": 29100,
          "time": 72.75,
          "velocity": 0.5039370078740157
        },
        {
          "duration": 0.15000000000000568,
          "durationTicks": 60,
          "midi": 121,
          "name": "C#9",
          "ticks": 29160,
          "time": 72.89999999999999,
          "velocity": 0.9133858267716536
        },
        {
          "duration": 0.15000000000000568,
          "durationTicks": 60,
          "midi": 42,
          "name": "F#2",
          "ticks": 29160,
          "time": 72.89999999999999,
          "velocity": 0.7874015748031497
        },
        {
          "duration": 0.15000000000000568,
          "durationTicks": 60,
          "midi": 82,
          "name": "A#5",
          "ticks": 29160,
          "time": 72.89999999999999,
          "velocity": 1
        },
        {
          "duration": 0.15000000000000568,
          "durationTicks": 60,
          "midi": 39,
          "name": "D#2",
          "ticks": 29160,
          "time": 72.89999999999999,
          "velocity": 0.7874015748031497
        },
        {
          "duration": 0.14999999999999147,
          "durationTicks": 60,
          "midi": 42,
          "name": "F#2",
          "ticks": 29220,
          "time": 73.05,
          "velocity": 0.7874015748031497
        },
        {
          "duration": 0.14999999999999147,
          "durationTicks": 60,
          "midi": 82,
          "name": "A#5",
          "ticks": 29220,
          "time": 73.05,
          "velocity": 1
        },
        {
          "duration": 0.15000000000000568,
          "durationTicks": 60,
          "midi": 42,
          "name": "F#2",
          "ticks": 29280,
          "time": 73.19999999999999,
          "velocity": 0.7874015748031497
        },
        {
          "duration": 0.15000000000000568,
          "durationTicks": 60,
          "midi": 36,
          "name": "C2",
          "ticks": 29280,
          "time": 73.19999999999999,
          "velocity": 0.7874015748031497
        },
        {
          "duration": 0.15000000000000568,
          "durationTicks": 60,
          "midi": 82,
          "name": "A#5",
          "ticks": 29280,
          "time": 73.19999999999999,
          "velocity": 1
        },
        {
          "duration": 0.15000000000000568,
          "durationTicks": 60,
          "midi": 46,
          "name": "A#2",
          "ticks": 29340,
          "time": 73.35,
          "velocity": 0.7874015748031497
        },
        {
          "duration": 0.15000000000000568,
          "durationTicks": 60,
          "midi": 82,
          "name": "A#5",
          "ticks": 29340,
          "time": 73.35,
          "velocity": 0.5039370078740157
        },
        {
          "duration": 0.14999999999999147,
          "durationTicks": 60,
          "midi": 121,
          "name": "C#9",
          "ticks": 29400,
          "time": 73.5,
          "velocity": 0.9133858267716536
        },
        {
          "duration": 0.14999999999999147,
          "durationTicks": 60,
          "midi": 42,
          "name": "F#2",
          "ticks": 29400,
          "time": 73.5,
          "velocity": 0.7874015748031497
        },
        {
          "duration": 0.14999999999999147,
          "durationTicks": 60,
          "midi": 82,
          "name": "A#5",
          "ticks": 29400,
          "time": 73.5,
          "velocity": 1
        },
        {
          "duration": 0.14999999999999147,
          "durationTicks": 60,
          "midi": 39,
          "name": "D#2",
          "ticks": 29400,
          "time": 73.5,
          "velocity": 0.7874015748031497
        },
        {
          "duration": 0.15000000000000568,
          "durationTicks": 60,
          "midi": 42,
          "name": "F#2",
          "ticks": 29460,
          "time": 73.64999999999999,
          "velocity": 0.7874015748031497
        },
        {
          "duration": 0.15000000000000568,
          "durationTicks": 60,
          "midi": 36,
          "name": "C2",
          "ticks": 29460,
          "time": 73.64999999999999,
          "velocity": 0.7874015748031497
        },
        {
          "duration": 0.15000000000000568,
          "durationTicks": 60,
          "midi": 82,
          "name": "A#5",
          "ticks": 29460,
          "time": 73.64999999999999,
          "velocity": 0.5039370078740157
        },
        {
          "duration": 0.14999999999999147,
          "durationTicks": 60,
          "midi": 42,
          "name": "F#2",
          "ticks": 29520,
          "time": 73.8,
          "velocity": 0.7874015748031497
        },
        {
          "duration": 0.14999999999999147,
          "durationTicks": 60,
          "midi": 36,
          "name": "C2",
          "ticks": 29520,
          "time": 73.8,
          "velocity": 0.7874015748031497
        },
        {
          "duration": 0.14999999999999147,
          "durationTicks": 60,
          "midi": 82,
          "name": "A#5",
          "ticks": 29520,
          "time": 73.8,
          "velocity": 0.5039370078740157
        },
        {
          "duration": 0.15000000000000568,
          "durationTicks": 60,
          "midi": 46,
          "name": "A#2",
          "ticks": 29580,
          "time": 73.94999999999999,
          "velocity": 0.7874015748031497
        },
        {
          "duration": 0.15000000000000568,
          "durationTicks": 60,
          "midi": 82,
          "name": "A#5",
          "ticks": 29580,
          "time": 73.94999999999999,
          "velocity": 0.5039370078740157
        },
        {
          "duration": 0.15000000000000568,
          "durationTicks": 60,
          "midi": 121,
          "name": "C#9",
          "ticks": 29640,
          "time": 74.1,
          "velocity": 0.9133858267716536
        },
        {
          "duration": 0.15000000000000568,
          "durationTicks": 60,
          "midi": 42,
          "name": "F#2",
          "ticks": 29640,
          "time": 74.1,
          "velocity": 0.7874015748031497
        },
        {
          "duration": 0.15000000000000568,
          "durationTicks": 60,
          "midi": 82,
          "name": "A#5",
          "ticks": 29640,
          "time": 74.1,
          "velocity": 1
        },
        {
          "duration": 0.15000000000000568,
          "durationTicks": 60,
          "midi": 39,
          "name": "D#2",
          "ticks": 29640,
          "time": 74.1,
          "velocity": 0.7874015748031497
        },
        {
          "duration": 0.14999999999999147,
          "durationTicks": 60,
          "midi": 42,
          "name": "F#2",
          "ticks": 29700,
          "time": 74.25,
          "velocity": 0.7874015748031497
        },
        {
          "duration": 0.14999999999999147,
          "durationTicks": 60,
          "midi": 36,
          "name": "C2",
          "ticks": 29700,
          "time": 74.25,
          "velocity": 0.7874015748031497
        },
        {
          "duration": 0.14999999999999147,
          "durationTicks": 60,
          "midi": 82,
          "name": "A#5",
          "ticks": 29700,
          "time": 74.25,
          "velocity": 1
        },
        {
          "duration": 0.15000000000000568,
          "durationTicks": 60,
          "midi": 42,
          "name": "F#2",
          "ticks": 29760,
          "time": 74.39999999999999,
          "velocity": 0.7874015748031497
        },
        {
          "duration": 0.15000000000000568,
          "durationTicks": 60,
          "midi": 36,
          "name": "C2",
          "ticks": 29760,
          "time": 74.39999999999999,
          "velocity": 0.7874015748031497
        },
        {
          "duration": 0.15000000000000568,
          "durationTicks": 60,
          "midi": 82,
          "name": "A#5",
          "ticks": 29760,
          "time": 74.39999999999999,
          "velocity": 0.5039370078740157
        },
        {
          "duration": 0.14999999999999147,
          "durationTicks": 60,
          "midi": 46,
          "name": "A#2",
          "ticks": 29820,
          "time": 74.55,
          "velocity": 0.7874015748031497
        },
        {
          "duration": 0.14999999999999147,
          "durationTicks": 60,
          "midi": 82,
          "name": "A#5",
          "ticks": 29820,
          "time": 74.55,
          "velocity": 0.5039370078740157
        },
        {
          "duration": 0.15000000000000568,
          "durationTicks": 60,
          "midi": 42,
          "name": "F#2",
          "ticks": 29880,
          "time": 74.69999999999999,
          "velocity": 0.7874015748031497
        },
        {
          "duration": 0.15000000000000568,
          "durationTicks": 60,
          "midi": 36,
          "name": "C2",
          "ticks": 29880,
          "time": 74.69999999999999,
          "velocity": 0.7874015748031497
        },
        {
          "duration": 0.15000000000000568,
          "durationTicks": 60,
          "midi": 82,
          "name": "A#5",
          "ticks": 29880,
          "time": 74.69999999999999,
          "velocity": 1
        },
        {
          "duration": 0.15000000000000568,
          "durationTicks": 60,
          "midi": 42,
          "name": "F#2",
          "ticks": 29940,
          "time": 74.85,
          "velocity": 0.7874015748031497
        },
        {
          "duration": 0.15000000000000568,
          "durationTicks": 60,
          "midi": 82,
          "name": "A#5",
          "ticks": 29940,
          "time": 74.85,
          "velocity": 1
        },
        {
          "duration": 0.14999999999999147,
          "durationTicks": 60,
          "midi": 42,
          "name": "F#2",
          "ticks": 30000,
          "time": 75,
          "velocity": 0.7874015748031497
        },
        {
          "duration": 0.14999999999999147,
          "durationTicks": 60,
          "midi": 36,
          "name": "C2",
          "ticks": 30000,
          "time": 75,
          "velocity": 0.7874015748031497
        },
        {
          "duration": 0.14999999999999147,
          "durationTicks": 60,
          "midi": 82,
          "name": "A#5",
          "ticks": 30000,
          "time": 75,
          "velocity": 1
        },
        {
          "duration": 0.15000000000000568,
          "durationTicks": 60,
          "midi": 82,
          "name": "A#5",
          "ticks": 30060,
          "time": 75.14999999999999,
          "velocity": 0.5039370078740157
        },
        {
          "duration": 0.14999999999999147,
          "durationTicks": 60,
          "midi": 55,
          "name": "G3",
          "ticks": 30120,
          "time": 75.3,
          "velocity": 1
        },
        {
          "duration": 0.14999999999999147,
          "durationTicks": 60,
          "midi": 82,
          "name": "A#5",
          "ticks": 30120,
          "time": 75.3,
          "velocity": 1
        }
      ],
      "endOfTrackTicks": 30180
    },
    {
      "channel": 0,
      "controlChanges": {
        "0": [
          {
            "number": 0,
            "ticks": 170,
            "time": 0.425,
            "value": 0
          }
        ],
        "32": [
          {
            "number": 32,
            "ticks": 171,
            "time": 0.4275,
            "value": 0
          }
        ],
        "91": [
          {
            "number": 91,
            "ticks": 0,
            "time": 0,
            "value": 0
          }
        ],
        "93": [
          {
            "number": 93,
            "ticks": 0,
            "time": 0,
            "value": 0
          }
        ]
      },
      "pitchBends": [],
      "instrument": {
        "family": "piano",
        "number": 0,
        "name": "acoustic grand piano"
      },
      "name": "",
      "notes": [],
      "endOfTrackTicks": 29718
    },
    {
      "channel": 10,
      "controlChanges": {
        "7": [
          {
            "number": 7,
            "ticks": 173,
            "time": 0.4325,
            "value": 0.5039370078740157
          }
        ],
        "10": [
          {
            "number": 10,
            "ticks": 173,
            "time": 0.4325,
            "value": 0.5669291338582677
          }
        ]
      },
      "pitchBends": [],
      "instrument": {
        "family": "percussive",
        "number": 115,
        "name": "woodblock"
      },
      "name": "",
      "notes": [
        {
          "duration": 0.15000000000000036,
          "durationTicks": 60,
          "midi": 58,
          "name": "A#3",
          "ticks": 1080,
          "time": 2.6999999999999997,
          "velocity": 0.7874015748031497
        },
        {
          "duration": 0.15000000000000036,
          "durationTicks": 60,
          "midi": 81,
          "name": "A5",
          "ticks": 1087,
          "time": 2.7175,
          "velocity": 0.7874015748031497
        },
        {
          "duration": 0.1499999999999999,
          "durationTicks": 60,
          "midi": 68,
          "name": "G#4",
          "ticks": 1098,
          "time": 2.745,
          "velocity": 0.7874015748031497
        },
        {
          "duration": 0.1499999999999999,
          "durationTicks": 60,
          "midi": 58,
          "name": "A#3",
          "ticks": 1260,
          "time": 3.15,
          "velocity": 0.7874015748031497
        },
        {
          "duration": 0.1499999999999999,
          "durationTicks": 60,
          "midi": 81,
          "name": "A5",
          "ticks": 1267,
          "time": 3.1675,
          "velocity": 0.7874015748031497
        },
        {
          "duration": 0.15000000000000036,
          "durationTicks": 60,
          "midi": 68,
          "name": "G#4",
          "ticks": 1278,
          "time": 3.195,
          "velocity": 0.7874015748031497
        },
        {
          "duration": 0.1499999999999999,
          "durationTicks": 60,
          "midi": 58,
          "name": "A#3",
          "ticks": 1320,
          "time": 3.3,
          "velocity": 0.7874015748031497
        },
        {
          "duration": 0.1499999999999999,
          "durationTicks": 60,
          "midi": 81,
          "name": "A5",
          "ticks": 1327,
          "time": 3.3175,
          "velocity": 0.7874015748031497
        },
        {
          "duration": 0.1499999999999999,
          "durationTicks": 60,
          "midi": 68,
          "name": "G#4",
          "ticks": 1338,
          "time": 3.345,
          "velocity": 0.7874015748031497
        },
        {
          "duration": 0.15000000000000036,
          "durationTicks": 60,
          "midi": 58,
          "name": "A#3",
          "ticks": 5640,
          "time": 14.1,
          "velocity": 0.7874015748031497
        },
        {
          "duration": 0.15000000000000036,
          "durationTicks": 60,
          "midi": 81,
          "name": "A5",
          "ticks": 5647,
          "time": 14.117499999999998,
          "velocity": 0.7874015748031497
        },
        {
          "duration": 0.15000000000000036,
          "durationTicks": 60,
          "midi": 68,
          "name": "G#4",
          "ticks": 5658,
          "time": 14.145,
          "velocity": 0.7874015748031497
        },
        {
          "duration": 0.15000000000000036,
          "durationTicks": 60,
          "midi": 58,
          "name": "A#3",
          "ticks": 6120,
          "time": 15.299999999999999,
          "velocity": 0.7874015748031497
        },
        {
          "duration": 0.14999999999999858,
          "durationTicks": 60,
          "midi": 81,
          "name": "A5",
          "ticks": 6127,
          "time": 15.317499999999999,
          "velocity": 0.7874015748031497
        },
        {
          "duration": 0.15000000000000036,
          "durationTicks": 60,
          "midi": 68,
          "name": "G#4",
          "ticks": 6138,
          "time": 15.344999999999999,
          "velocity": 0.7874015748031497
        },
        {
          "duration": 0.15000000000000213,
          "durationTicks": 60,
          "midi": 58,
          "name": "A#3",
          "ticks": 6360,
          "time": 15.899999999999999,
          "velocity": 0.7874015748031497
        },
        {
          "duration": 0.15000000000000036,
          "durationTicks": 60,
          "midi": 81,
          "name": "A5",
          "ticks": 6367,
          "time": 15.917499999999999,
          "velocity": 0.7874015748031497
        },
        {
          "duration": 0.15000000000000036,
          "durationTicks": 60,
          "midi": 68,
          "name": "G#4",
          "ticks": 6378,
          "time": 15.944999999999999,
          "velocity": 0.7874015748031497
        },
        {
          "duration": 0.14999999999999858,
          "durationTicks": 60,
          "midi": 58,
          "name": "A#3",
          "ticks": 6600,
          "time": 16.5,
          "velocity": 0.7874015748031497
        },
        {
          "duration": 0.14999999999999858,
          "durationTicks": 60,
          "midi": 81,
          "name": "A5",
          "ticks": 6607,
          "time": 16.5175,
          "velocity": 0.7874015748031497
        },
        {
          "duration": 0.15000000000000213,
          "durationTicks": 60,
          "midi": 68,
          "name": "G#4",
          "ticks": 6618,
          "time": 16.544999999999998,
          "velocity": 0.7874015748031497
        },
        {
          "duration": 0.15000000000000213,
          "durationTicks": 60,
          "midi": 58,
          "name": "A#3",
          "ticks": 6840,
          "time": 17.099999999999998,
          "velocity": 0.7874015748031497
        },
        {
          "duration": 0.14999999999999858,
          "durationTicks": 60,
          "midi": 81,
          "name": "A5",
          "ticks": 6847,
          "time": 17.1175,
          "velocity": 0.7874015748031497
        },
        {
          "duration": 0.14999999999999858,
          "durationTicks": 60,
          "midi": 68,
          "name": "G#4",
          "ticks": 6858,
          "time": 17.145,
          "velocity": 0.7874015748031497
        },
        {
          "duration": 0.14999999999999858,
          "durationTicks": 60,
          "midi": 58,
          "name": "A#3",
          "ticks": 7080,
          "time": 17.7,
          "velocity": 0.7874015748031497
        },
        {
          "duration": 0.15000000000000213,
          "durationTicks": 60,
          "midi": 81,
          "name": "A5",
          "ticks": 7087,
          "time": 17.717499999999998,
          "velocity": 0.7874015748031497
        },
        {
          "duration": 0.15000000000000213,
          "durationTicks": 60,
          "midi": 68,
          "name": "G#4",
          "ticks": 7098,
          "time": 17.744999999999997,
          "velocity": 0.7874015748031497
        },
        {
          "duration": 0.15000000000000213,
          "durationTicks": 60,
          "midi": 58,
          "name": "A#3",
          "ticks": 7560,
          "time": 18.9,
          "velocity": 0.7874015748031497
        },
        {
          "duration": 0.15000000000000213,
          "durationTicks": 60,
          "midi": 81,
          "name": "A5",
          "ticks": 7567,
          "time": 18.917499999999997,
          "velocity": 0.7874015748031497
        },
        {
          "duration": 0.14999999999999858,
          "durationTicks": 60,
          "midi": 68,
          "name": "G#4",
          "ticks": 7578,
          "time": 18.945,
          "velocity": 0.7874015748031497
        },
        {
          "duration": 0.15000000000000213,
          "durationTicks": 60,
          "midi": 58,
          "name": "A#3",
          "ticks": 8040,
          "time": 20.099999999999998,
          "velocity": 0.7874015748031497
        },
        {
          "duration": 0.15000000000000213,
          "durationTicks": 60,
          "midi": 81,
          "name": "A5",
          "ticks": 8047,
          "time": 20.1175,
          "velocity": 0.7874015748031497
        },
        {
          "duration": 0.15000000000000213,
          "durationTicks": 60,
          "midi": 68,
          "name": "G#4",
          "ticks": 8058,
          "time": 20.145,
          "velocity": 0.7874015748031497
        },
        {
          "duration": 0.14999999999999858,
          "durationTicks": 60,
          "midi": 58,
          "name": "A#3",
          "ticks": 8280,
          "time": 20.7,
          "velocity": 0.7874015748031497
        },
        {
          "duration": 0.14999999999999858,
          "durationTicks": 60,
          "midi": 81,
          "name": "A5",
          "ticks": 8287,
          "time": 20.7175,
          "velocity": 0.7874015748031497
        },
        {
          "duration": 0.14999999999999858,
          "durationTicks": 60,
          "midi": 68,
          "name": "G#4",
          "ticks": 8298,
          "time": 20.745,
          "velocity": 0.7874015748031497
        },
        {
          "duration": 0.14999999999999858,
          "durationTicks": 60,
          "midi": 58,
          "name": "A#3",
          "ticks": 8520,
          "time": 21.3,
          "velocity": 0.7874015748031497
        },
        {
          "duration": 0.15000000000000213,
          "durationTicks": 60,
          "midi": 81,
          "name": "A5",
          "ticks": 8527,
          "time": 21.3175,
          "velocity": 0.7874015748031497
        },
        {
          "duration": 0.14999999999999858,
          "durationTicks": 60,
          "midi": 68,
          "name": "G#4",
          "ticks": 8538,
          "time": 21.345000000000002,
          "velocity": 0.7874015748031497
        },
        {
          "duration": 0.15000000000000213,
          "durationTicks": 60,
          "midi": 58,
          "name": "A#3",
          "ticks": 8760,
          "time": 21.9,
          "velocity": 0.7874015748031497
        },
        {
          "duration": 0.14999999999999858,
          "durationTicks": 60,
          "midi": 81,
          "name": "A5",
          "ticks": 8767,
          "time": 21.9175,
          "velocity": 0.7874015748031497
        },
        {
          "duration": 0.15000000000000213,
          "durationTicks": 60,
          "midi": 68,
          "name": "G#4",
          "ticks": 8778,
          "time": 21.945,
          "velocity": 0.7874015748031497
        },
        {
          "duration": 0.15000000000000213,
          "durationTicks": 60,
          "midi": 58,
          "name": "A#3",
          "ticks": 8940,
          "time": 22.349999999999998,
          "velocity": 0.7874015748031497
        },
        {
          "duration": 0.15000000000000213,
          "durationTicks": 60,
          "midi": 81,
          "name": "A5",
          "ticks": 8947,
          "time": 22.3675,
          "velocity": 0.7874015748031497
        },
        {
          "duration": 0.15000000000000213,
          "durationTicks": 60,
          "midi": 68,
          "name": "G#4",
          "ticks": 8958,
          "time": 22.395,
          "velocity": 0.7874015748031497
        },
        {
          "duration": 0.14999999999999858,
          "durationTicks": 60,
          "midi": 58,
          "name": "A#3",
          "ticks": 9000,
          "time": 22.5,
          "velocity": 0.7874015748031497
        },
        {
          "duration": 0.14999999999999858,
          "durationTicks": 60,
          "midi": 81,
          "name": "A5",
          "ticks": 9007,
          "time": 22.517500000000002,
          "velocity": 0.7874015748031497
        },
        {
          "duration": 0.14999999999999858,
          "durationTicks": 60,
          "midi": 68,
          "name": "G#4",
          "ticks": 9018,
          "time": 22.545,
          "velocity": 0.7874015748031497
        },
        {
          "duration": 0.14999999999999858,
          "durationTicks": 60,
          "midi": 58,
          "name": "A#3",
          "ticks": 9480,
          "time": 23.7,
          "velocity": 0.7874015748031497
        },
        {
          "duration": 0.14999999999999858,
          "durationTicks": 60,
          "midi": 81,
          "name": "A5",
          "ticks": 9487,
          "time": 23.7175,
          "velocity": 0.7874015748031497
        },
        {
          "duration": 0.14999999999999858,
          "durationTicks": 60,
          "midi": 68,
          "name": "G#4",
          "ticks": 9498,
          "time": 23.745,
          "velocity": 0.7874015748031497
        },
        {
          "duration": 0.15000000000000213,
          "durationTicks": 60,
          "midi": 58,
          "name": "A#3",
          "ticks": 9960,
          "time": 24.9,
          "velocity": 0.7874015748031497
        },
        {
          "duration": 0.14999999999999858,
          "durationTicks": 60,
          "midi": 81,
          "name": "A5",
          "ticks": 9967,
          "time": 24.9175,
          "velocity": 0.7874015748031497
        },
        {
          "duration": 0.15000000000000213,
          "durationTicks": 60,
          "midi": 68,
          "name": "G#4",
          "ticks": 9978,
          "time": 24.945,
          "velocity": 0.7874015748031497
        },
        {
          "duration": 0.14999999999999858,
          "durationTicks": 60,
          "midi": 58,
          "name": "A#3",
          "ticks": 10200,
          "time": 25.5,
          "velocity": 0.7874015748031497
        },
        {
          "duration": 0.14999999999999858,
          "durationTicks": 60,
          "midi": 81,
          "name": "A5",
          "ticks": 10207,
          "time": 25.517500000000002,
          "velocity": 0.7874015748031497
        },
        {
          "duration": 0.14999999999999858,
          "durationTicks": 60,
          "midi": 68,
          "name": "G#4",
          "ticks": 10218,
          "time": 25.545,
          "velocity": 0.7874015748031497
        },
        {
          "duration": 0.15000000000000213,
          "durationTicks": 60,
          "midi": 58,
          "name": "A#3",
          "ticks": 10440,
          "time": 26.099999999999998,
          "velocity": 0.7874015748031497
        },
        {
          "duration": 0.15000000000000213,
          "durationTicks": 60,
          "midi": 81,
          "name": "A5",
          "ticks": 10447,
          "time": 26.1175,
          "velocity": 0.7874015748031497
        },
        {
          "duration": 0.15000000000000213,
          "durationTicks": 60,
          "midi": 68,
          "name": "G#4",
          "ticks": 10458,
          "time": 26.145,
          "velocity": 0.7874015748031497
        },
        {
          "duration": 0.15000000000000568,
          "durationTicks": 60,
          "midi": 58,
          "name": "A#3",
          "ticks": 15240,
          "time": 38.099999999999994,
          "velocity": 0.7874015748031497
        },
        {
          "duration": 0.15000000000000568,
          "durationTicks": 60,
          "midi": 81,
          "name": "A5",
          "ticks": 15247,
          "time": 38.11749999999999,
          "velocity": 0.7874015748031497
        },
        {
          "duration": 0.14999999999999858,
          "durationTicks": 60,
          "midi": 68,
          "name": "G#4",
          "ticks": 15258,
          "time": 38.144999999999996,
          "velocity": 0.7874015748031497
        },
        {
          "duration": 0.14999999999999858,
          "durationTicks": 60,
          "midi": 58,
          "name": "A#3",
          "ticks": 15720,
          "time": 39.3,
          "velocity": 0.7874015748031497
        },
        {
          "duration": 0.14999999999999858,
          "durationTicks": 60,
          "midi": 81,
          "name": "A5",
          "ticks": 15727,
          "time": 39.317499999999995,
          "velocity": 0.7874015748031497
        },
        {
          "duration": 0.14999999999999858,
          "durationTicks": 60,
          "midi": 68,
          "name": "G#4",
          "ticks": 15738,
          "time": 39.345,
          "velocity": 0.7874015748031497
        },
        {
          "duration": 0.14999999999999858,
          "durationTicks": 60,
          "midi": 58,
          "name": "A#3",
          "ticks": 15960,
          "time": 39.9,
          "velocity": 0.7874015748031497
        },
        {
          "duration": 0.14999999999999858,
          "durationTicks": 60,
          "midi": 81,
          "name": "A5",
          "ticks": 15967,
          "time": 39.9175,
          "velocity": 0.7874015748031497
        },
        {
          "duration": 0.15000000000000568,
          "durationTicks": 60,
          "midi": 68,
          "name": "G#4",
          "ticks": 15978,
          "time": 39.94499999999999,
          "velocity": 0.7874015748031497
        },
        {
          "duration": 0.14999999999999858,
          "durationTicks": 60,
          "midi": 58,
          "name": "A#3",
          "ticks": 16200,
          "time": 40.5,
          "velocity": 0.7874015748031497
        },
        {
          "duration": 0.14999999999999858,
          "durationTicks": 60,
          "midi": 81,
          "name": "A5",
          "ticks": 16207,
          "time": 40.5175,
          "velocity": 0.7874015748031497
        },
        {
          "duration": 0.14999999999999858,
          "durationTicks": 60,
          "midi": 68,
          "name": "G#4",
          "ticks": 16218,
          "time": 40.544999999999995,
          "velocity": 0.7874015748031497
        },
        {
          "duration": 0.15000000000000568,
          "durationTicks": 60,
          "midi": 58,
          "name": "A#3",
          "ticks": 16440,
          "time": 41.099999999999994,
          "velocity": 0.7874015748031497
        },
        {
          "duration": 0.15000000000000568,
          "durationTicks": 60,
          "midi": 81,
          "name": "A5",
          "ticks": 16447,
          "time": 41.11749999999999,
          "velocity": 0.7874015748031497
        },
        {
          "duration": 0.14999999999999858,
          "durationTicks": 60,
          "midi": 68,
          "name": "G#4",
          "ticks": 16458,
          "time": 41.144999999999996,
          "velocity": 0.7874015748031497
        },
        {
          "duration": 0.14999999999999858,
          "durationTicks": 60,
          "midi": 58,
          "name": "A#3",
          "ticks": 16680,
          "time": 41.699999999999996,
          "velocity": 0.7874015748031497
        },
        {
          "duration": 0.14999999999999858,
          "durationTicks": 60,
          "midi": 81,
          "name": "A5",
          "ticks": 16687,
          "time": 41.717499999999994,
          "velocity": 0.7874015748031497
        },
        {
          "duration": 0.14999999999999858,
          "durationTicks": 60,
          "midi": 68,
          "name": "G#4",
          "ticks": 16698,
          "time": 41.745,
          "velocity": 0.7874015748031497
        },
        {
          "duration": 0.14999999999999858,
          "durationTicks": 60,
          "midi": 58,
          "name": "A#3",
          "ticks": 17160,
          "time": 42.9,
          "velocity": 0.7874015748031497
        },
        {
          "duration": 0.14999999999999858,
          "durationTicks": 60,
          "midi": 81,
          "name": "A5",
          "ticks": 17167,
          "time": 42.9175,
          "velocity": 0.7874015748031497
        },
        {
          "duration": 0.15000000000000568,
          "durationTicks": 60,
          "midi": 68,
          "name": "G#4",
          "ticks": 17178,
          "time": 42.94499999999999,
          "velocity": 0.7874015748031497
        },
        {
          "duration": 0.15000000000000568,
          "durationTicks": 60,
          "midi": 58,
          "name": "A#3",
          "ticks": 17640,
          "time": 44.099999999999994,
          "velocity": 0.7874015748031497
        },
        {
          "duration": 0.15000000000000568,
          "durationTicks": 60,
          "midi": 81,
          "name": "A5",
          "ticks": 17647,
          "time": 44.11749999999999,
          "velocity": 0.7874015748031497
        },
        {
          "duration": 0.15000000000000568,
          "durationTicks": 60,
          "midi": 68,
          "name": "G#4",
          "ticks": 17658,
          "time": 44.144999999999996,
          "velocity": 0.7874015748031497
        },
        {
          "duration": 0.14999999999999858,
          "durationTicks": 60,
          "midi": 58,
          "name": "A#3",
          "ticks": 17880,
          "time": 44.699999999999996,
          "velocity": 0.7874015748031497
        },
        {
          "duration": 0.14999999999999147,
          "durationTicks": 60,
          "midi": 81,
          "name": "A5",
          "ticks": 17887,
          "time": 44.7175,
          "velocity": 0.7874015748031497
        },
        {
          "duration": 0.14999999999999858,
          "durationTicks": 60,
          "midi": 68,
          "name": "G#4",
          "ticks": 17898,
          "time": 44.745,
          "velocity": 0.7874015748031497
        },
        {
          "duration": 0.14999999999999858,
          "durationTicks": 60,
          "midi": 58,
          "name": "A#3",
          "ticks": 18120,
          "time": 45.3,
          "velocity": 0.7874015748031497
        },
        {
          "duration": 0.15000000000000568,
          "durationTicks": 60,
          "midi": 81,
          "name": "A5",
          "ticks": 18127,
          "time": 45.317499999999995,
          "velocity": 0.7874015748031497
        },
        {
          "duration": 0.14999999999999858,
          "durationTicks": 60,
          "midi": 68,
          "name": "G#4",
          "ticks": 18138,
          "time": 45.345,
          "velocity": 0.7874015748031497
        },
        {
          "duration": 0.14999999999999858,
          "durationTicks": 60,
          "midi": 58,
          "name": "A#3",
          "ticks": 18360,
          "time": 45.9,
          "velocity": 0.7874015748031497
        },
        {
          "duration": 0.14999999999999858,
          "durationTicks": 60,
          "midi": 81,
          "name": "A5",
          "ticks": 18367,
          "time": 45.9175,
          "velocity": 0.7874015748031497
        },
        {
          "duration": 0.15000000000000568,
          "durationTicks": 60,
          "midi": 68,
          "name": "G#4",
          "ticks": 18378,
          "time": 45.94499999999999,
          "velocity": 0.7874015748031497
        },
        {
          "duration": 0.15000000000000568,
          "durationTicks": 60,
          "midi": 58,
          "name": "A#3",
          "ticks": 18540,
          "time": 46.349999999999994,
          "velocity": 0.7874015748031497
        },
        {
          "duration": 0.15000000000000568,
          "durationTicks": 60,
          "midi": 81,
          "name": "A5",
          "ticks": 18547,
          "time": 46.36749999999999,
          "velocity": 0.7874015748031497
        },
        {
          "duration": 0.15000000000000568,
          "durationTicks": 60,
          "midi": 68,
          "name": "G#4",
          "ticks": 18558,
          "time": 46.394999999999996,
          "velocity": 0.7874015748031497
        },
        {
          "duration": 0.14999999999999858,
          "durationTicks": 60,
          "midi": 58,
          "name": "A#3",
          "ticks": 18600,
          "time": 46.5,
          "velocity": 0.7874015748031497
        },
        {
          "duration": 0.14999999999999858,
          "durationTicks": 60,
          "midi": 81,
          "name": "A5",
          "ticks": 18607,
          "time": 46.5175,
          "velocity": 0.7874015748031497
        },
        {
          "duration": 0.14999999999999147,
          "durationTicks": 60,
          "midi": 68,
          "name": "G#4",
          "ticks": 18618,
          "time": 46.545,
          "velocity": 0.7874015748031497
        },
        {
          "duration": 0.14999999999999858,
          "durationTicks": 60,
          "midi": 58,
          "name": "A#3",
          "ticks": 19080,
          "time": 47.699999999999996,
          "velocity": 0.7874015748031497
        },
        {
          "duration": 0.14999999999999858,
          "durationTicks": 60,
          "midi": 81,
          "name": "A5",
          "ticks": 19087,
          "time": 47.7175,
          "velocity": 0.7874015748031497
        },
        {
          "duration": 0.14999999999999858,
          "durationTicks": 60,
          "midi": 68,
          "name": "G#4",
          "ticks": 19098,
          "time": 47.745,
          "velocity": 0.7874015748031497
        },
        {
          "duration": 0.14999999999999858,
          "durationTicks": 60,
          "midi": 58,
          "name": "A#3",
          "ticks": 19560,
          "time": 48.9,
          "velocity": 0.7874015748031497
        },
        {
          "duration": 0.14999999999999858,
          "durationTicks": 60,
          "midi": 81,
          "name": "A5",
          "ticks": 19567,
          "time": 48.9175,
          "velocity": 0.7874015748031497
        },
        {
          "duration": 0.14999999999999858,
          "durationTicks": 60,
          "midi": 68,
          "name": "G#4",
          "ticks": 19578,
          "time": 48.945,
          "velocity": 0.7874015748031497
        },
        {
          "duration": 0.14999999999999858,
          "durationTicks": 60,
          "midi": 58,
          "name": "A#3",
          "ticks": 19800,
          "time": 49.5,
          "velocity": 0.7874015748031497
        },
        {
          "duration": 0.14999999999999858,
          "durationTicks": 60,
          "midi": 81,
          "name": "A5",
          "ticks": 19807,
          "time": 49.5175,
          "velocity": 0.7874015748031497
        },
        {
          "duration": 0.14999999999999858,
          "durationTicks": 60,
          "midi": 68,
          "name": "G#4",
          "ticks": 19818,
          "time": 49.545,
          "velocity": 0.7874015748031497
        },
        {
          "duration": 0.15000000000000568,
          "durationTicks": 60,
          "midi": 58,
          "name": "A#3",
          "ticks": 20040,
          "time": 50.099999999999994,
          "velocity": 0.7874015748031497
        },
        {
          "duration": 0.14999999999999858,
          "durationTicks": 60,
          "midi": 81,
          "name": "A5",
          "ticks": 20047,
          "time": 50.1175,
          "velocity": 0.7874015748031497
        },
        {
          "duration": 0.15000000000000568,
          "durationTicks": 60,
          "midi": 68,
          "name": "G#4",
          "ticks": 20058,
          "time": 50.144999999999996,
          "velocity": 0.7874015748031497
        },
        {
          "duration": 0.14999999999999858,
          "durationTicks": 60,
          "midi": 58,
          "name": "A#3",
          "ticks": 24840,
          "time": 62.099999999999994,
          "velocity": 0.7874015748031497
        },
        {
          "duration": 0.14999999999999858,
          "durationTicks": 60,
          "midi": 81,
          "name": "A5",
          "ticks": 24847,
          "time": 62.11749999999999,
          "velocity": 0.7874015748031497
        },
        {
          "duration": 0.14999999999999858,
          "durationTicks": 60,
          "midi": 68,
          "name": "G#4",
          "ticks": 24858,
          "time": 62.144999999999996,
          "velocity": 0.7874015748031497
        },
        {
          "duration": 0.14999999999999858,
          "durationTicks": 60,
          "midi": 58,
          "name": "A#3",
          "ticks": 25320,
          "time": 63.3,
          "velocity": 0.7874015748031497
        },
        {
          "duration": 0.14999999999999858,
          "durationTicks": 60,
          "midi": 81,
          "name": "A5",
          "ticks": 25327,
          "time": 63.317499999999995,
          "velocity": 0.7874015748031497
        },
        {
          "duration": 0.14999999999999858,
          "durationTicks": 60,
          "midi": 68,
          "name": "G#4",
          "ticks": 25338,
          "time": 63.34499999999999,
          "velocity": 0.7874015748031497
        },
        {
          "duration": 0.15000000000000568,
          "durationTicks": 60,
          "midi": 58,
          "name": "A#3",
          "ticks": 25560,
          "time": 63.89999999999999,
          "velocity": 0.7874015748031497
        },
        {
          "duration": 0.15000000000000568,
          "durationTicks": 60,
          "midi": 81,
          "name": "A5",
          "ticks": 25567,
          "time": 63.91749999999999,
          "velocity": 0.7874015748031497
        },
        {
          "duration": 0.15000000000000568,
          "durationTicks": 60,
          "midi": 68,
          "name": "G#4",
          "ticks": 25578,
          "time": 63.94499999999999,
          "velocity": 0.7874015748031497
        },
        {
          "duration": 0.14999999999999147,
          "durationTicks": 60,
          "midi": 58,
          "name": "A#3",
          "ticks": 25800,
          "time": 64.5,
          "velocity": 0.7874015748031497
        },
        {
          "duration": 0.14999999999999147,
          "durationTicks": 60,
          "midi": 81,
          "name": "A5",
          "ticks": 25807,
          "time": 64.5175,
          "velocity": 0.7874015748031497
        },
        {
          "duration": 0.15000000000000568,
          "durationTicks": 60,
          "midi": 68,
          "name": "G#4",
          "ticks": 25818,
          "time": 64.54499999999999,
          "velocity": 0.7874015748031497
        },
        {
          "duration": 0.15000000000000568,
          "durationTicks": 60,
          "midi": 58,
          "name": "A#3",
          "ticks": 26040,
          "time": 65.1,
          "velocity": 0.7874015748031497
        },
        {
          "duration": 0.15000000000000568,
          "durationTicks": 60,
          "midi": 81,
          "name": "A5",
          "ticks": 26047,
          "time": 65.11749999999999,
          "velocity": 0.7874015748031497
        },
        {
          "duration": 0.14999999999999147,
          "durationTicks": 60,
          "midi": 68,
          "name": "G#4",
          "ticks": 26058,
          "time": 65.145,
          "velocity": 0.7874015748031497
        },
        {
          "duration": 0.15000000000000568,
          "durationTicks": 60,
          "midi": 58,
          "name": "A#3",
          "ticks": 26280,
          "time": 65.69999999999999,
          "velocity": 0.7874015748031497
        },
        {
          "duration": 0.15000000000000568,
          "durationTicks": 60,
          "midi": 81,
          "name": "A5",
          "ticks": 26287,
          "time": 65.71749999999999,
          "velocity": 0.7874015748031497
        },
        {
          "duration": 0.15000000000000568,
          "durationTicks": 60,
          "midi": 68,
          "name": "G#4",
          "ticks": 26298,
          "time": 65.74499999999999,
          "velocity": 0.7874015748031497
        },
        {
          "duration": 0.15000000000000568,
          "durationTicks": 60,
          "midi": 58,
          "name": "A#3",
          "ticks": 26760,
          "time": 66.89999999999999,
          "velocity": 0.7874015748031497
        },
        {
          "duration": 0.15000000000000568,
          "durationTicks": 60,
          "midi": 81,
          "name": "A5",
          "ticks": 26767,
          "time": 66.91749999999999,
          "velocity": 0.7874015748031497
        },
        {
          "duration": 0.15000000000000568,
          "durationTicks": 60,
          "midi": 68,
          "name": "G#4",
          "ticks": 26778,
          "time": 66.945,
          "velocity": 0.7874015748031497
        },
        {
          "duration": 0.15000000000000568,
          "durationTicks": 60,
          "midi": 58,
          "name": "A#3",
          "ticks": 27240,
          "time": 68.1,
          "velocity": 0.7874015748031497
        },
        {
          "duration": 0.14999999999999147,
          "durationTicks": 60,
          "midi": 81,
          "name": "A5",
          "ticks": 27247,
          "time": 68.11749999999999,
          "velocity": 0.7874015748031497
        },
        {
          "duration": 0.14999999999999147,
          "durationTicks": 60,
          "midi": 68,
          "name": "G#4",
          "ticks": 27258,
          "time": 68.145,
          "velocity": 0.7874015748031497
        },
        {
          "duration": 0.15000000000000568,
          "durationTicks": 60,
          "midi": 58,
          "name": "A#3",
          "ticks": 27480,
          "time": 68.69999999999999,
          "velocity": 0.7874015748031497
        },
        {
          "duration": 0.14999999999999147,
          "durationTicks": 60,
          "midi": 81,
          "name": "A5",
          "ticks": 27487,
          "time": 68.7175,
          "velocity": 0.7874015748031497
        },
        {
          "duration": 0.15000000000000568,
          "durationTicks": 60,
          "midi": 68,
          "name": "G#4",
          "ticks": 27498,
          "time": 68.74499999999999,
          "velocity": 0.7874015748031497
        },
        {
          "duration": 0.14999999999999147,
          "durationTicks": 60,
          "midi": 58,
          "name": "A#3",
          "ticks": 27720,
          "time": 69.3,
          "velocity": 0.7874015748031497
        },
        {
          "duration": 0.15000000000000568,
          "durationTicks": 60,
          "midi": 81,
          "name": "A5",
          "ticks": 27727,
          "time": 69.3175,
          "velocity": 0.7874015748031497
        },
        {
          "duration": 0.14999999999999147,
          "durationTicks": 60,
          "midi": 68,
          "name": "G#4",
          "ticks": 27738,
          "time": 69.345,
          "velocity": 0.7874015748031497
        },
        {
          "duration": 0.15000000000000568,
          "durationTicks": 60,
          "midi": 58,
          "name": "A#3",
          "ticks": 27960,
          "time": 69.89999999999999,
          "velocity": 0.7874015748031497
        },
        {
          "duration": 0.15000000000000568,
          "durationTicks": 60,
          "midi": 81,
          "name": "A5",
          "ticks": 27967,
          "time": 69.91749999999999,
          "velocity": 0.7874015748031497
        },
        {
          "duration": 0.15000000000000568,
          "durationTicks": 60,
          "midi": 68,
          "name": "G#4",
          "ticks": 27978,
          "time": 69.945,
          "velocity": 0.7874015748031497
        },
        {
          "duration": 0.15000000000000568,
          "durationTicks": 60,
          "midi": 58,
          "name": "A#3",
          "ticks": 28140,
          "time": 70.35,
          "velocity": 0.7874015748031497
        },
        {
          "duration": 0.14999999999999147,
          "durationTicks": 60,
          "midi": 81,
          "name": "A5",
          "ticks": 28147,
          "time": 70.36749999999999,
          "velocity": 0.7874015748031497
        },
        {
          "duration": 0.14999999999999147,
          "durationTicks": 60,
          "midi": 68,
          "name": "G#4",
          "ticks": 28158,
          "time": 70.395,
          "velocity": 0.7874015748031497
        },
        {
          "duration": 0.14999999999999147,
          "durationTicks": 60,
          "midi": 58,
          "name": "A#3",
          "ticks": 28200,
          "time": 70.5,
          "velocity": 0.7874015748031497
        },
        {
          "duration": 0.15000000000000568,
          "durationTicks": 60,
          "midi": 81,
          "name": "A5",
          "ticks": 28207,
          "time": 70.51749999999998,
          "velocity": 0.7874015748031497
        },
        {
          "duration": 0.15000000000000568,
          "durationTicks": 60,
          "midi": 68,
          "name": "G#4",
          "ticks": 28218,
          "time": 70.54499999999999,
          "velocity": 0.7874015748031497
        },
        {
          "duration": 0.15000000000000568,
          "durationTicks": 60,
          "midi": 58,
          "name": "A#3",
          "ticks": 28680,
          "time": 71.69999999999999,
          "velocity": 0.7874015748031497
        },
        {
          "duration": 0.14999999999999147,
          "durationTicks": 60,
          "midi": 81,
          "name": "A5",
          "ticks": 28687,
          "time": 71.7175,
          "velocity": 0.7874015748031497
        },
        {
          "duration": 0.15000000000000568,
          "durationTicks": 60,
          "midi": 68,
          "name": "G#4",
          "ticks": 28698,
          "time": 71.74499999999999,
          "velocity": 0.7874015748031497
        },
        {
          "duration": 0.15000000000000568,
          "durationTicks": 60,
          "midi": 58,
          "name": "A#3",
          "ticks": 29160,
          "time": 72.89999999999999,
          "velocity": 0.7874015748031497
        },
        {
          "duration": 0.15000000000000568,
          "durationTicks": 60,
          "midi": 81,
          "name": "A5",
          "ticks": 29167,
          "time": 72.91749999999999,
          "velocity": 0.7874015748031497
        },
        {
          "duration": 0.15000000000000568,
          "durationTicks": 60,
          "midi": 68,
          "name": "G#4",
          "ticks": 29178,
          "time": 72.945,
          "velocity": 0.7874015748031497
        },
        {
          "duration": 0.14999999999999147,
          "durationTicks": 60,
          "midi": 58,
          "name": "A#3",
          "ticks": 29400,
          "time": 73.5,
          "velocity": 0.7874015748031497
        },
        {
          "duration": 0.14999999999999147,
          "durationTicks": 60,
          "midi": 81,
          "name": "A5",
          "ticks": 29407,
          "time": 73.5175,
          "velocity": 0.7874015748031497
        },
        {
          "duration": 0.15000000000000568,
          "durationTicks": 60,
          "midi": 68,
          "name": "G#4",
          "ticks": 29418,
          "time": 73.54499999999999,
          "velocity": 0.7874015748031497
        },
        {
          "duration": 0.15000000000000568,
          "durationTicks": 60,
          "midi": 58,
          "name": "A#3",
          "ticks": 29640,
          "time": 74.1,
          "velocity": 0.7874015748031497
        },
        {
          "duration": 0.15000000000000568,
          "durationTicks": 60,
          "midi": 81,
          "name": "A5",
          "ticks": 29647,
          "time": 74.11749999999999,
          "velocity": 0.7874015748031497
        },
        {
          "duration": 0.14999999999999147,
          "durationTicks": 60,
          "midi": 68,
          "name": "G#4",
          "ticks": 29658,
          "time": 74.145,
          "velocity": 0.7874015748031497
        }
      ]
    },
    {
      "channel": 0,
      "controlChanges": {
        "0": [
          {
            "number": 0,
            "ticks": 175,
            "time": 0.43749999999999994,
            "value": 0
          }
        ],
        "32": [
          {
            "number": 32,
            "ticks": 176,
            "time": 0.43999999999999995,
            "value": 0
          }
        ],
        "91": [
          {
            "number": 91,
            "ticks": 0,
            "time": 0,
            "value": 0
          }
        ],
        "93": [
          {
            "number": 93,
            "ticks": 0,
            "time": 0,
            "value": 0
          }
        ]
      },
      "pitchBends": [],
      "instrument": {
        "family": "piano",
        "number": 0,
        "name": "acoustic grand piano"
      },
      "name": "",
      "notes": [],
      "endOfTrackTicks": 23940
    },
    {
      "channel": 11,
      "controlChanges": {
        "7": [
          {
            "number": 7,
            "ticks": 178,
            "time": 0.445,
            "value": 0.3779527559055118
          }
        ],
        "10": [
          {
            "number": 10,
            "ticks": 178,
            "time": 0.445,
            "value": 0.31496062992125984
          }
        ]
      },
      "pitchBends": [],
      "instrument": {
        "family": "chromatic percussion",
        "number": 15,
        "name": "dulcimer"
      },
      "name": "",
      "notes": [
        {
          "duration": 0.9000000000000004,
          "durationTicks": 360,
          "midi": 67,
          "name": "G4",
          "ticks": 1440,
          "time": 3.5999999999999996,
          "velocity": 0.9448818897637795
        },
        {
          "duration": 0.14999999999999947,
          "durationTicks": 60,
          "midi": 62,
          "name": "D4",
          "ticks": 1980,
          "time": 4.95,
          "velocity": 0.9448818897637795
        },
        {
          "duration": 0.2999999999999998,
          "durationTicks": 120,
          "midi": 64,
          "name": "E4",
          "ticks": 2040,
          "time": 5.1,
          "velocity": 0.9448818897637795
        },
        {
          "duration": 0.3000000000000007,
          "durationTicks": 120,
          "midi": 67,
          "name": "G4",
          "ticks": 2160,
          "time": 5.3999999999999995,
          "velocity": 0.9448818897637795
        },
        {
          "duration": 0.14999999999999947,
          "durationTicks": 60,
          "midi": 64,
          "name": "E4",
          "ticks": 2280,
          "time": 5.7,
          "velocity": 0.9448818897637795
        },
        {
          "duration": 0.15000000000000036,
          "durationTicks": 60,
          "midi": 67,
          "name": "G4",
          "ticks": 2340,
          "time": 5.85,
          "velocity": 0.9448818897637795
        },
        {
          "duration": 0.2999999999999998,
          "durationTicks": 120,
          "midi": 69,
          "name": "A4",
          "ticks": 2400,
          "time": 6,
          "velocity": 0.9448818897637795
        },
        {
          "duration": 0.2999999999999998,
          "durationTicks": 120,
          "midi": 71,
          "name": "B4",
          "ticks": 2580,
          "time": 6.45,
          "velocity": 0.9448818897637795
        },
        {
          "duration": 0.2999999999999998,
          "durationTicks": 120,
          "midi": 67,
          "name": "G4",
          "ticks": 2760,
          "time": 6.8999999999999995,
          "velocity": 0.9448818897637795
        },
        {
          "duration": 0.3000000000000007,
          "durationTicks": 120,
          "midi": 69,
          "name": "A4",
          "ticks": 2880,
          "time": 7.199999999999999,
          "velocity": 0.9448818897637795
        },
        {
          "duration": 0.2999999999999998,
          "durationTicks": 120,
          "midi": 71,
          "name": "B4",
          "ticks": 3060,
          "time": 7.6499999999999995,
          "velocity": 0.9448818897637795
        },
        {
          "duration": 0.3000000000000007,
          "durationTicks": 120,
          "midi": 67,
          "name": "G4",
          "ticks": 3240,
          "time": 8.1,
          "velocity": 0.9448818897637795
        },
        {
          "duration": 0.8999999999999986,
          "durationTicks": 360,
          "midi": 67,
          "name": "G4",
          "ticks": 3360,
          "time": 8.4,
          "velocity": 0.9448818897637795
        },
        {
          "duration": 0.15000000000000036,
          "durationTicks": 60,
          "midi": 67,
          "name": "G4",
          "ticks": 3900,
          "time": 9.75,
          "velocity": 0.9448818897637795
        },
        {
          "duration": 0.29999999999999893,
          "durationTicks": 120,
          "midi": 64,
          "name": "E4",
          "ticks": 3960,
          "time": 9.9,
          "velocity": 0.9448818897637795
        },
        {
          "duration": 0.3000000000000007,
          "durationTicks": 120,
          "midi": 67,
          "name": "G4",
          "ticks": 4080,
          "time": 10.2,
          "velocity": 0.9448818897637795
        },
        {
          "duration": 0.29999999999999893,
          "durationTicks": 120,
          "midi": 64,
          "name": "E4",
          "ticks": 4200,
          "time": 10.5,
          "velocity": 0.9448818897637795
        },
        {
          "duration": 1.0500000000000007,
          "durationTicks": 420,
          "midi": 62,
          "name": "D4",
          "ticks": 4320,
          "time": 10.799999999999999,
          "velocity": 0.9448818897637795
        },
        {
          "duration": 0.8999999999999986,
          "durationTicks": 360,
          "midi": 67,
          "name": "G4",
          "ticks": 11040,
          "time": 27.599999999999998,
          "velocity": 0.9448818897637795
        },
        {
          "duration": 0.14999999999999858,
          "durationTicks": 60,
          "midi": 62,
          "name": "D4",
          "ticks": 11580,
          "time": 28.95,
          "velocity": 0.9448818897637795
        },
        {
          "duration": 0.3000000000000007,
          "durationTicks": 120,
          "midi": 64,
          "name": "E4",
          "ticks": 11640,
          "time": 29.099999999999998,
          "velocity": 0.9448818897637795
        },
        {
          "duration": 0.3000000000000007,
          "durationTicks": 120,
          "midi": 67,
          "name": "G4",
          "ticks": 11760,
          "time": 29.4,
          "velocity": 0.9448818897637795
        },
        {
          "duration": 0.14999999999999858,
          "durationTicks": 60,
          "midi": 64,
          "name": "E4",
          "ticks": 11880,
          "time": 29.7,
          "velocity": 0.9448818897637795
        },
        {
          "duration": 0.14999999999999858,
          "durationTicks": 60,
          "midi": 67,
          "name": "G4",
          "ticks": 11940,
          "time": 29.849999999999998,
          "velocity": 0.9448818897637795
        },
        {
          "duration": 0.3000000000000007,
          "durationTicks": 120,
          "midi": 69,
          "name": "A4",
          "ticks": 12000,
          "time": 29.999999999999996,
          "velocity": 0.9448818897637795
        },
        {
          "duration": 0.29999999999999716,
          "durationTicks": 120,
          "midi": 71,
          "name": "B4",
          "ticks": 12180,
          "time": 30.45,
          "velocity": 0.9448818897637795
        },
        {
          "duration": 0.29999999999999716,
          "durationTicks": 120,
          "midi": 67,
          "name": "G4",
          "ticks": 12360,
          "time": 30.9,
          "velocity": 0.9448818897637795
        },
        {
          "duration": 0.3000000000000007,
          "durationTicks": 120,
          "midi": 69,
          "name": "A4",
          "ticks": 12480,
          "time": 31.199999999999996,
          "velocity": 0.9448818897637795
        },
        {
          "duration": 0.29999999999999716,
          "durationTicks": 120,
          "midi": 71,
          "name": "B4",
          "ticks": 12660,
          "time": 31.65,
          "velocity": 0.9448818897637795
        },
        {
          "duration": 0.30000000000000426,
          "durationTicks": 120,
          "midi": 67,
          "name": "G4",
          "ticks": 12840,
          "time": 32.099999999999994,
          "velocity": 0.9448818897637795
        },
        {
          "duration": 0.8999999999999986,
          "durationTicks": 360,
          "midi": 67,
          "name": "G4",
          "ticks": 12960,
          "time": 32.4,
          "velocity": 0.9448818897637795
        },
        {
          "duration": 0.14999999999999858,
          "durationTicks": 60,
          "midi": 67,
          "name": "G4",
          "ticks": 13500,
          "time": 33.75,
          "velocity": 0.9448818897637795
        },
        {
          "duration": 0.29999999999999716,
          "durationTicks": 120,
          "midi": 64,
          "name": "E4",
          "ticks": 13560,
          "time": 33.9,
          "velocity": 0.9448818897637795
        },
        {
          "duration": 0.30000000000000426,
          "durationTicks": 120,
          "midi": 67,
          "name": "G4",
          "ticks": 13680,
          "time": 34.199999999999996,
          "velocity": 0.9448818897637795
        },
        {
          "duration": 0.29999999999999716,
          "durationTicks": 120,
          "midi": 64,
          "name": "E4",
          "ticks": 13800,
          "time": 34.5,
          "velocity": 0.9448818897637795
        },
        {
          "duration": 1.0499999999999972,
          "durationTicks": 420,
          "midi": 62,
          "name": "D4",
          "ticks": 13920,
          "time": 34.8,
          "velocity": 0.9448818897637795
        },
        {
          "duration": 0.8999999999999986,
          "durationTicks": 360,
          "midi": 67,
          "name": "G4",
          "ticks": 20640,
          "time": 51.599999999999994,
          "velocity": 0.9448818897637795
        },
        {
          "duration": 0.14999999999999858,
          "durationTicks": 60,
          "midi": 62,
          "name": "D4",
          "ticks": 21180,
          "time": 52.949999999999996,
          "velocity": 0.9448818897637795
        },
        {
          "duration": 0.29999999999999716,
          "durationTicks": 120,
          "midi": 64,
          "name": "E4",
          "ticks": 21240,
          "time": 53.099999999999994,
          "velocity": 0.9448818897637795
        },
        {
          "duration": 0.30000000000000426,
          "durationTicks": 120,
          "midi": 67,
          "name": "G4",
          "ticks": 21360,
          "time": 53.39999999999999,
          "velocity": 0.9448818897637795
        },
        {
          "duration": 0.14999999999999858,
          "durationTicks": 60,
          "midi": 64,
          "name": "E4",
          "ticks": 21480,
          "time": 53.699999999999996,
          "velocity": 0.9448818897637795
        },
        {
          "duration": 0.14999999999999858,
          "durationTicks": 60,
          "midi": 67,
          "name": "G4",
          "ticks": 21540,
          "time": 53.849999999999994,
          "velocity": 0.9448818897637795
        },
        {
          "duration": 0.30000000000000426,
          "durationTicks": 120,
          "midi": 69,
          "name": "A4",
          "ticks": 21600,
          "time": 53.99999999999999,
          "velocity": 0.9448818897637795
        },
        {
          "duration": 0.29999999999999716,
          "durationTicks": 120,
          "midi": 71,
          "name": "B4",
          "ticks": 21780,
          "time": 54.449999999999996,
          "velocity": 0.9448818897637795
        },
        {
          "duration": 0.30000000000000426,
          "durationTicks": 120,
          "midi": 67,
          "name": "G4",
          "ticks": 21960,
          "time": 54.89999999999999,
          "velocity": 0.9448818897637795
        },
        {
          "duration": 0.29999999999999716,
          "durationTicks": 120,
          "midi": 69,
          "name": "A4",
          "ticks": 22080,
          "time": 55.199999999999996,
          "velocity": 0.9448818897637795
        },
        {
          "duration": 0.30000000000000426,
          "durationTicks": 120,
          "midi": 71,
          "name": "B4",
          "ticks": 22260,
          "time": 55.64999999999999,
          "velocity": 0.9448818897637795
        },
        {
          "duration": 0.29999999999999716,
          "durationTicks": 120,
          "midi": 67,
          "name": "G4",
          "ticks": 22440,
          "time": 56.099999999999994,
          "velocity": 0.9448818897637795
        },
        {
          "duration": 0.9000000000000057,
          "durationTicks": 360,
          "midi": 67,
          "name": "G4",
          "ticks": 22560,
          "time": 56.39999999999999,
          "velocity": 0.9448818897637795
        },
        {
          "duration": 0.14999999999999858,
          "durationTicks": 60,
          "midi": 67,
          "name": "G4",
          "ticks": 23100,
          "time": 57.74999999999999,
          "velocity": 0.9448818897637795
        },
        {
          "duration": 0.30000000000000426,
          "durationTicks": 120,
          "midi": 64,
          "name": "E4",
          "ticks": 23160,
          "time": 57.89999999999999,
          "velocity": 0.9448818897637795
        },
        {
          "duration": 0.29999999999999716,
          "durationTicks": 120,
          "midi": 67,
          "name": "G4",
          "ticks": 23280,
          "time": 58.199999999999996,
          "velocity": 0.9448818897637795
        },
        {
          "duration": 0.30000000000000426,
          "durationTicks": 120,
          "midi": 64,
          "name": "E4",
          "ticks": 23400,
          "time": 58.49999999999999,
          "velocity": 0.9448818897637795
        },
        {
          "duration": 1.0499999999999972,
          "durationTicks": 420,
          "midi": 62,
          "name": "D4",
          "ticks": 23520,
          "time": 58.8,
          "velocity": 0.9448818897637795
        }
      ]
    },
    {
      "channel": 0,
      "controlChanges": {
        "0": [
          {
            "number": 0,
            "ticks": 180,
            "time": 0.44999999999999996,
            "value": 0
          }
        ],
        "32": [
          {
            "number": 32,
            "ticks": 181,
            "time": 0.45249999999999996,
            "value": 0
          }
        ],
        "91": [
          {
            "number": 91,
            "ticks": 0,
            "time": 0,
            "value": 0
          }
        ],
        "93": [
          {
            "number": 93,
            "ticks": 0,
            "time": 0,
            "value": 0
          }
        ]
      },
      "pitchBends": [],
      "instrument": {
        "family": "piano",
        "number": 0,
        "name": "acoustic grand piano"
      },
      "name": "",
      "notes": [],
      "endOfTrackTicks": 23580
    },
    {
      "channel": 12,
      "controlChanges": {
        "7": [
          {
            "number": 7,
            "ticks": 183,
            "time": 0.45749999999999996,
            "value": 0.1889763779527559
          }
        ],
        "10": [
          {
            "number": 10,
            "ticks": 183,
            "time": 0.45749999999999996,
            "value": 0.31496062992125984
          }
        ]
      },
      "pitchBends": [],
      "instrument": {
        "family": "synth effects",
        "number": 102,
        "name": "fx 7 (echoes)"
      },
      "name": "",
      "notes": [
        {
          "duration": 0.15000000000000036,
          "durationTicks": 60,
          "midi": 79,
          "name": "G5",
          "ticks": 1440,
          "time": 3.5999999999999996,
          "velocity": 0.9448818897637795
        },
        {
          "duration": 0.14999999999999947,
          "durationTicks": 60,
          "midi": 74,
          "name": "D5",
          "ticks": 1980,
          "time": 4.95,
          "velocity": 0.9448818897637795
        },
        {
          "duration": 0.15000000000000036,
          "durationTicks": 60,
          "midi": 76,
          "name": "E5",
          "ticks": 2040,
          "time": 5.1,
          "velocity": 0.9448818897637795
        },
        {
          "duration": 0.15000000000000036,
          "durationTicks": 60,
          "midi": 79,
          "name": "G5",
          "ticks": 2160,
          "time": 5.3999999999999995,
          "velocity": 0.9448818897637795
        },
        {
          "duration": 0.14999999999999947,
          "durationTicks": 60,
          "midi": 76,
          "name": "E5",
          "ticks": 2280,
          "time": 5.7,
          "velocity": 0.9448818897637795
        },
        {
          "duration": 0.15000000000000036,
          "durationTicks": 60,
          "midi": 79,
          "name": "G5",
          "ticks": 2340,
          "time": 5.85,
          "velocity": 0.9448818897637795
        },
        {
          "duration": 0.14999999999999947,
          "durationTicks": 60,
          "midi": 81,
          "name": "A5",
          "ticks": 2400,
          "time": 6,
          "velocity": 0.9448818897637795
        },
        {
          "duration": 0.14999999999999947,
          "durationTicks": 60,
          "midi": 83,
          "name": "B5",
          "ticks": 2580,
          "time": 6.45,
          "velocity": 0.9448818897637795
        },
        {
          "duration": 0.15000000000000036,
          "durationTicks": 60,
          "midi": 79,
          "name": "G5",
          "ticks": 2760,
          "time": 6.8999999999999995,
          "velocity": 0.9448818897637795
        },
        {
          "duration": 0.15000000000000036,
          "durationTicks": 60,
          "midi": 81,
          "name": "A5",
          "ticks": 2880,
          "time": 7.199999999999999,
          "velocity": 0.9448818897637795
        },
        {
          "duration": 0.15000000000000036,
          "durationTicks": 60,
          "midi": 83,
          "name": "B5",
          "ticks": 3060,
          "time": 7.6499999999999995,
          "velocity": 0.9448818897637795
        },
        {
          "duration": 0.15000000000000036,
          "durationTicks": 60,
          "midi": 79,
          "name": "G5",
          "ticks": 3240,
          "time": 8.1,
          "velocity": 0.9448818897637795
        },
        {
          "duration": 0.14999999999999858,
          "durationTicks": 60,
          "midi": 79,
          "name": "G5",
          "ticks": 3360,
          "time": 8.4,
          "velocity": 0.9448818897637795
        },
        {
          "duration": 0.15000000000000036,
          "durationTicks": 60,
          "midi": 79,
          "name": "G5",
          "ticks": 3900,
          "time": 9.75,
          "velocity": 0.9448818897637795
        },
        {
          "duration": 0.14999999999999858,
          "durationTicks": 60,
          "midi": 76,
          "name": "E5",
          "ticks": 3960,
          "time": 9.9,
          "velocity": 0.9448818897637795
        },
        {
          "duration": 0.15000000000000036,
          "durationTicks": 60,
          "midi": 79,
          "name": "G5",
          "ticks": 4080,
          "time": 10.2,
          "velocity": 0.9448818897637795
        },
        {
          "duration": 0.15000000000000036,
          "durationTicks": 60,
          "midi": 76,
          "name": "E5",
          "ticks": 4200,
          "time": 10.5,
          "velocity": 0.9448818897637795
        },
        {
          "duration": 0.15000000000000036,
          "durationTicks": 60,
          "midi": 74,
          "name": "D5",
          "ticks": 4320,
          "time": 10.799999999999999,
          "velocity": 0.9448818897637795
        },
        {
          "duration": 0.14999999999999858,
          "durationTicks": 60,
          "midi": 79,
          "name": "G5",
          "ticks": 11040,
          "time": 27.599999999999998,
          "velocity": 0.9448818897637795
        },
        {
          "duration": 0.14999999999999858,
          "durationTicks": 60,
          "midi": 74,
          "name": "D5",
          "ticks": 11580,
          "time": 28.95,
          "velocity": 0.9448818897637795
        },
        {
          "duration": 0.14999999999999858,
          "durationTicks": 60,
          "midi": 76,
          "name": "E5",
          "ticks": 11640,
          "time": 29.099999999999998,
          "velocity": 0.9448818897637795
        },
        {
          "duration": 0.14999999999999858,
          "durationTicks": 60,
          "midi": 79,
          "name": "G5",
          "ticks": 11760,
          "time": 29.4,
          "velocity": 0.9448818897637795
        },
        {
          "duration": 0.14999999999999858,
          "durationTicks": 60,
          "midi": 76,
          "name": "E5",
          "ticks": 11880,
          "time": 29.7,
          "velocity": 0.9448818897637795
        },
        {
          "duration": 0.14999999999999858,
          "durationTicks": 60,
          "midi": 79,
          "name": "G5",
          "ticks": 11940,
          "time": 29.849999999999998,
          "velocity": 0.9448818897637795
        },
        {
          "duration": 0.15000000000000213,
          "durationTicks": 60,
          "midi": 81,
          "name": "A5",
          "ticks": 12000,
          "time": 29.999999999999996,
          "velocity": 0.9448818897637795
        },
        {
          "duration": 0.14999999999999858,
          "durationTicks": 60,
          "midi": 83,
          "name": "B5",
          "ticks": 12180,
          "time": 30.45,
          "velocity": 0.9448818897637795
        },
        {
          "duration": 0.14999999999999858,
          "durationTicks": 60,
          "midi": 79,
          "name": "G5",
          "ticks": 12360,
          "time": 30.9,
          "velocity": 0.9448818897637795
        },
        {
          "duration": 0.15000000000000213,
          "durationTicks": 60,
          "midi": 81,
          "name": "A5",
          "ticks": 12480,
          "time": 31.199999999999996,
          "velocity": 0.9448818897637795
        },
        {
          "duration": 0.14999999999999858,
          "durationTicks": 60,
          "midi": 83,
          "name": "B5",
          "ticks": 12660,
          "time": 31.65,
          "velocity": 0.9448818897637795
        },
        {
          "duration": 0.15000000000000568,
          "durationTicks": 60,
          "midi": 79,
          "name": "G5",
          "ticks": 12840,
          "time": 32.099999999999994,
          "velocity": 0.9448818897637795
        },
        {
          "duration": 0.14999999999999858,
          "durationTicks": 60,
          "midi": 79,
          "name": "G5",
          "ticks": 12960,
          "time": 32.4,
          "velocity": 0.9448818897637795
        },
        {
          "duration": 0.14999999999999858,
          "durationTicks": 60,
          "midi": 79,
          "name": "G5",
          "ticks": 13500,
          "time": 33.75,
          "velocity": 0.9448818897637795
        },
        {
          "duration": 0.14999999999999858,
          "durationTicks": 60,
          "midi": 76,
          "name": "E5",
          "ticks": 13560,
          "time": 33.9,
          "velocity": 0.9448818897637795
        },
        {
          "duration": 0.14999999999999858,
          "durationTicks": 60,
          "midi": 79,
          "name": "G5",
          "ticks": 13680,
          "time": 34.199999999999996,
          "velocity": 0.9448818897637795
        },
        {
          "duration": 0.14999999999999858,
          "durationTicks": 60,
          "midi": 76,
          "name": "E5",
          "ticks": 13800,
          "time": 34.5,
          "velocity": 0.9448818897637795
        },
        {
          "duration": 0.14999999999999858,
          "durationTicks": 60,
          "midi": 74,
          "name": "D5",
          "ticks": 13920,
          "time": 34.8,
          "velocity": 0.9448818897637795
        },
        {
          "duration": 0.14999999999999858,
          "durationTicks": 60,
          "midi": 79,
          "name": "G5",
          "ticks": 20640,
          "time": 51.599999999999994,
          "velocity": 0.9448818897637795
        },
        {
          "duration": 0.14999999999999858,
          "durationTicks": 60,
          "midi": 74,
          "name": "D5",
          "ticks": 21180,
          "time": 52.949999999999996,
          "velocity": 0.9448818897637795
        },
        {
          "duration": 0.14999999999999858,
          "durationTicks": 60,
          "midi": 76,
          "name": "E5",
          "ticks": 21240,
          "time": 53.099999999999994,
          "velocity": 0.9448818897637795
        },
        {
          "duration": 0.15000000000000568,
          "durationTicks": 60,
          "midi": 79,
          "name": "G5",
          "ticks": 21360,
          "time": 53.39999999999999,
          "velocity": 0.9448818897637795
        },
        {
          "duration": 0.14999999999999858,
          "durationTicks": 60,
          "midi": 76,
          "name": "E5",
          "ticks": 21480,
          "time": 53.699999999999996,
          "velocity": 0.9448818897637795
        },
        {
          "duration": 0.14999999999999858,
          "durationTicks": 60,
          "midi": 79,
          "name": "G5",
          "ticks": 21540,
          "time": 53.849999999999994,
          "velocity": 0.9448818897637795
        },
        {
          "duration": 0.14999999999999858,
          "durationTicks": 60,
          "midi": 81,
          "name": "A5",
          "ticks": 21600,
          "time": 53.99999999999999,
          "velocity": 0.9448818897637795
        },
        {
          "duration": 0.14999999999999858,
          "durationTicks": 60,
          "midi": 83,
          "name": "B5",
          "ticks": 21780,
          "time": 54.449999999999996,
          "velocity": 0.9448818897637795
        },
        {
          "duration": 0.15000000000000568,
          "durationTicks": 60,
          "midi": 79,
          "name": "G5",
          "ticks": 21960,
          "time": 54.89999999999999,
          "velocity": 0.9448818897637795
        },
        {
          "duration": 0.14999999999999858,
          "durationTicks": 60,
          "midi": 81,
          "name": "A5",
          "ticks": 22080,
          "time": 55.199999999999996,
          "velocity": 0.9448818897637795
        },
        {
          "duration": 0.15000000000000568,
          "durationTicks": 60,
          "midi": 83,
          "name": "B5",
          "ticks": 22260,
          "time": 55.64999999999999,
          "velocity": 0.9448818897637795
        },
        {
          "duration": 0.14999999999999858,
          "durationTicks": 60,
          "midi": 79,
          "name": "G5",
          "ticks": 22440,
          "time": 56.099999999999994,
          "velocity": 0.9448818897637795
        },
        {
          "duration": 0.15000000000000568,
          "durationTicks": 60,
          "midi": 79,
          "name": "G5",
          "ticks": 22560,
          "time": 56.39999999999999,
          "velocity": 0.9448818897637795
        },
        {
          "duration": 0.14999999999999858,
          "durationTicks": 60,
          "midi": 79,
          "name": "G5",
          "ticks": 23100,
          "time": 57.74999999999999,
          "velocity": 0.9448818897637795
        },
        {
          "duration": 0.15000000000000568,
          "durationTicks": 60,
          "midi": 76,
          "name": "E5",
          "ticks": 23160,
          "time": 57.89999999999999,
          "velocity": 0.9448818897637795
        },
        {
          "duration": 0.14999999999999858,
          "durationTicks": 60,
          "midi": 79,
          "name": "G5",
          "ticks": 23280,
          "time": 58.199999999999996,
          "velocity": 0.9448818897637795
        },
        {
          "duration": 0.14999999999999858,
          "durationTicks": 60,
          "midi": 76,
          "name": "E5",
          "ticks": 23400,
          "time": 58.49999999999999,
          "velocity": 0.9448818897637795
        },
        {
          "duration": 0.14999999999999858,
          "durationTicks": 60,
          "midi": 74,
          "name": "D5",
          "ticks": 23520,
          "time": 58.8,
          "velocity": 0.9448818897637795
        }
      ]
    },
    {
      "channel": 0,
      "controlChanges": {
        "0": [
          {
            "number": 0,
            "ticks": 185,
            "time": 0.4625,
            "value": 0
          }
        ],
        "32": [
          {
            "number": 32,
            "ticks": 186,
            "time": 0.46499999999999997,
            "value": 0
          }
        ],
        "91": [
          {
            "number": 91,
            "ticks": 0,
            "time": 0,
            "value": 0
          }
        ],
        "93": [
          {
            "number": 93,
            "ticks": 0,
            "time": 0,
            "value": 0
          }
        ]
      },
      "pitchBends": [],
      "instrument": {
        "family": "piano",
        "number": 0,
        "name": "acoustic grand piano"
      },
      "name": "",
      "notes": [],
      "endOfTrackTicks": 28440
    },
    {
      "channel": 13,
      "controlChanges": {
        "7": [
          {
            "number": 7,
            "ticks": 188,
            "time": 0.47,
            "value": 0.3543307086614173
          }
        ],
        "10": [
          {
            "number": 10,
            "ticks": 188,
            "time": 0.47,
            "value": 0.5039370078740157
          }
        ]
      },
      "pitchBends": [],
      "instrument": {
        "family": "synth lead",
        "number": 84,
        "name": "lead 5 (charang)"
      },
      "name": "",
      "notes": [
        {
          "duration": 0.11250000000000071,
          "durationTicks": 45,
          "midi": 74,
          "name": "D5",
          "ticks": 5280,
          "time": 13.2,
          "velocity": 0.7480314960629921
        },
        {
          "duration": 0.11250000000000071,
          "durationTicks": 45,
          "midi": 67,
          "name": "G4",
          "ticks": 5280,
          "time": 13.2,
          "velocity": 0.7480314960629921
        },
        {
          "duration": 0.11250000000000071,
          "durationTicks": 45,
          "midi": 62,
          "name": "D4",
          "ticks": 5280,
          "time": 13.2,
          "velocity": 0.3700787401574803
        },
        {
          "duration": 0.11250000000000071,
          "durationTicks": 45,
          "midi": 55,
          "name": "G3",
          "ticks": 5280,
          "time": 13.2,
          "velocity": 0.3700787401574803
        },
        {
          "duration": 0.11249999999999893,
          "durationTicks": 45,
          "midi": 74,
          "name": "D5",
          "ticks": 5400,
          "time": 13.5,
          "velocity": 0.7480314960629921
        },
        {
          "duration": 0.11249999999999893,
          "durationTicks": 45,
          "midi": 67,
          "name": "G4",
          "ticks": 5400,
          "time": 13.5,
          "velocity": 0.7480314960629921
        },
        {
          "duration": 0.11249999999999893,
          "durationTicks": 45,
          "midi": 62,
          "name": "D4",
          "ticks": 5400,
          "time": 13.5,
          "velocity": 0.3700787401574803
        },
        {
          "duration": 0.11249999999999893,
          "durationTicks": 45,
          "midi": 55,
          "name": "G3",
          "ticks": 5400,
          "time": 13.5,
          "velocity": 0.3700787401574803
        },
        {
          "duration": 0.2699999999999996,
          "durationTicks": 108,
          "midi": 74,
          "name": "D5",
          "ticks": 5520,
          "time": 13.799999999999999,
          "velocity": 0.7480314960629921
        },
        {
          "duration": 0.2699999999999996,
          "durationTicks": 108,
          "midi": 67,
          "name": "G4",
          "ticks": 5520,
          "time": 13.799999999999999,
          "velocity": 0.7480314960629921
        },
        {
          "duration": 0.2699999999999996,
          "durationTicks": 108,
          "midi": 62,
          "name": "D4",
          "ticks": 5520,
          "time": 13.799999999999999,
          "velocity": 0.3700787401574803
        },
        {
          "duration": 0.2699999999999996,
          "durationTicks": 108,
          "midi": 55,
          "name": "G3",
          "ticks": 5520,
          "time": 13.799999999999999,
          "velocity": 0.3700787401574803
        },
        {
          "duration": 0.11249999999999893,
          "durationTicks": 45,
          "midi": 76,
          "name": "E5",
          "ticks": 5700,
          "time": 14.25,
          "velocity": 0.7480314960629921
        },
        {
          "duration": 0.11249999999999893,
          "durationTicks": 45,
          "midi": 72,
          "name": "C5",
          "ticks": 5700,
          "time": 14.25,
          "velocity": 0.7480314960629921
        },
        {
          "duration": 0.11249999999999893,
          "durationTicks": 45,
          "midi": 64,
          "name": "E4",
          "ticks": 5700,
          "time": 14.25,
          "velocity": 0.3700787401574803
        },
        {
          "duration": 0.11249999999999893,
          "durationTicks": 45,
          "midi": 60,
          "name": "C4",
          "ticks": 5700,
          "time": 14.25,
          "velocity": 0.3700787401574803
        },
        {
          "duration": 0.11250000000000071,
          "durationTicks": 45,
          "midi": 76,
          "name": "E5",
          "ticks": 5820,
          "time": 14.549999999999999,
          "velocity": 0.7480314960629921
        },
        {
          "duration": 0.11250000000000071,
          "durationTicks": 45,
          "midi": 72,
          "name": "C5",
          "ticks": 5820,
          "time": 14.549999999999999,
          "velocity": 0.7480314960629921
        },
        {
          "duration": 0.11250000000000071,
          "durationTicks": 45,
          "midi": 64,
          "name": "E4",
          "ticks": 5820,
          "time": 14.549999999999999,
          "velocity": 0.3700787401574803
        },
        {
          "duration": 0.11250000000000071,
          "durationTicks": 45,
          "midi": 60,
          "name": "C4",
          "ticks": 5820,
          "time": 14.549999999999999,
          "velocity": 0.3700787401574803
        },
        {
          "duration": 0.11249999999999893,
          "durationTicks": 45,
          "midi": 76,
          "name": "E5",
          "ticks": 5940,
          "time": 14.85,
          "velocity": 0.7480314960629921
        },
        {
          "duration": 0.11249999999999893,
          "durationTicks": 45,
          "midi": 72,
          "name": "C5",
          "ticks": 5940,
          "time": 14.85,
          "velocity": 0.7480314960629921
        },
        {
          "duration": 0.11249999999999893,
          "durationTicks": 45,
          "midi": 64,
          "name": "E4",
          "ticks": 5940,
          "time": 14.85,
          "velocity": 0.3700787401574803
        },
        {
          "duration": 0.11249999999999893,
          "durationTicks": 45,
          "midi": 60,
          "name": "C4",
          "ticks": 5940,
          "time": 14.85,
          "velocity": 0.3700787401574803
        },
        {
          "duration": 0.29999999999999893,
          "durationTicks": 120,
          "midi": 76,
          "name": "E5",
          "ticks": 6000,
          "time": 15,
          "velocity": 0.7480314960629921
        },
        {
          "duration": 0.29999999999999893,
          "durationTicks": 120,
          "midi": 72,
          "name": "C5",
          "ticks": 6000,
          "time": 15,
          "velocity": 0.7480314960629921
        },
        {
          "duration": 0.29999999999999893,
          "durationTicks": 120,
          "midi": 64,
          "name": "E4",
          "ticks": 6000,
          "time": 15,
          "velocity": 0.3700787401574803
        },
        {
          "duration": 0.29999999999999893,
          "durationTicks": 120,
          "midi": 60,
          "name": "C4",
          "ticks": 6000,
          "time": 15,
          "velocity": 0.3700787401574803
        },
        {
          "duration": 0.11249999999999893,
          "durationTicks": 45,
          "midi": 74,
          "name": "D5",
          "ticks": 6240,
          "time": 15.6,
          "velocity": 0.7480314960629921
        },
        {
          "duration": 0.11249999999999893,
          "durationTicks": 45,
          "midi": 67,
          "name": "G4",
          "ticks": 6240,
          "time": 15.6,
          "velocity": 0.7480314960629921
        },
        {
          "duration": 0.11249999999999893,
          "durationTicks": 45,
          "midi": 62,
          "name": "D4",
          "ticks": 6240,
          "time": 15.6,
          "velocity": 0.3700787401574803
        },
        {
          "duration": 0.11249999999999893,
          "durationTicks": 45,
          "midi": 55,
          "name": "G3",
          "ticks": 6240,
          "time": 15.6,
          "velocity": 0.3700787401574803
        },
        {
          "duration": 0.11250000000000071,
          "durationTicks": 45,
          "midi": 74,
          "name": "D5",
          "ticks": 6360,
          "time": 15.899999999999999,
          "velocity": 0.7480314960629921
        },
        {
          "duration": 0.11250000000000071,
          "durationTicks": 45,
          "midi": 67,
          "name": "G4",
          "ticks": 6360,
          "time": 15.899999999999999,
          "velocity": 0.7480314960629921
        },
        {
          "duration": 0.11250000000000071,
          "durationTicks": 45,
          "midi": 62,
          "name": "D4",
          "ticks": 6360,
          "time": 15.899999999999999,
          "velocity": 0.3700787401574803
        },
        {
          "duration": 0.11250000000000071,
          "durationTicks": 45,
          "midi": 55,
          "name": "G3",
          "ticks": 6360,
          "time": 15.899999999999999,
          "velocity": 0.3700787401574803
        },
        {
          "duration": 0.2699999999999996,
          "durationTicks": 108,
          "midi": 74,
          "name": "D5",
          "ticks": 6480,
          "time": 16.2,
          "velocity": 0.7480314960629921
        },
        {
          "duration": 0.2699999999999996,
          "durationTicks": 108,
          "midi": 67,
          "name": "G4",
          "ticks": 6480,
          "time": 16.2,
          "velocity": 0.7480314960629921
        },
        {
          "duration": 0.2699999999999996,
          "durationTicks": 108,
          "midi": 62,
          "name": "D4",
          "ticks": 6480,
          "time": 16.2,
          "velocity": 0.3700787401574803
        },
        {
          "duration": 0.2699999999999996,
          "durationTicks": 108,
          "midi": 55,
          "name": "G3",
          "ticks": 6480,
          "time": 16.2,
          "velocity": 0.3700787401574803
        },
        {
          "duration": 0.11250000000000071,
          "durationTicks": 45,
          "midi": 76,
          "name": "E5",
          "ticks": 6660,
          "time": 16.65,
          "velocity": 0.7480314960629921
        },
        {
          "duration": 0.11250000000000071,
          "durationTicks": 45,
          "midi": 72,
          "name": "C5",
          "ticks": 6660,
          "time": 16.65,
          "velocity": 0.7480314960629921
        },
        {
          "duration": 0.11250000000000071,
          "durationTicks": 45,
          "midi": 64,
          "name": "E4",
          "ticks": 6660,
          "time": 16.65,
          "velocity": 0.3700787401574803
        },
        {
          "duration": 0.11250000000000071,
          "durationTicks": 45,
          "midi": 60,
          "name": "C4",
          "ticks": 6660,
          "time": 16.65,
          "velocity": 0.3700787401574803
        },
        {
          "duration": 0.11250000000000071,
          "durationTicks": 45,
          "midi": 76,
          "name": "E5",
          "ticks": 6780,
          "time": 16.95,
          "velocity": 0.7480314960629921
        },
        {
          "duration": 0.11250000000000071,
          "durationTicks": 45,
          "midi": 72,
          "name": "C5",
          "ticks": 6780,
          "time": 16.95,
          "velocity": 0.7480314960629921
        },
        {
          "duration": 0.11250000000000071,
          "durationTicks": 45,
          "midi": 64,
          "name": "E4",
          "ticks": 6780,
          "time": 16.95,
          "velocity": 0.3700787401574803
        },
        {
          "duration": 0.11250000000000071,
          "durationTicks": 45,
          "midi": 60,
          "name": "C4",
          "ticks": 6780,
          "time": 16.95,
          "velocity": 0.3700787401574803
        },
        {
          "duration": 0.11250000000000071,
          "durationTicks": 45,
          "midi": 76,
          "name": "E5",
          "ticks": 6900,
          "time": 17.25,
          "velocity": 0.7480314960629921
        },
        {
          "duration": 0.11250000000000071,
          "durationTicks": 45,
          "midi": 72,
          "name": "C5",
          "ticks": 6900,
          "time": 17.25,
          "velocity": 0.7480314960629921
        },
        {
          "duration": 0.11250000000000071,
          "durationTicks": 45,
          "midi": 64,
          "name": "E4",
          "ticks": 6900,
          "time": 17.25,
          "velocity": 0.3700787401574803
        },
        {
          "duration": 0.11250000000000071,
          "durationTicks": 45,
          "midi": 60,
          "name": "C4",
          "ticks": 6900,
          "time": 17.25,
          "velocity": 0.3700787401574803
        },
        {
          "duration": 0.3000000000000007,
          "durationTicks": 120,
          "midi": 76,
          "name": "E5",
          "ticks": 6960,
          "time": 17.4,
          "velocity": 0.7480314960629921
        },
        {
          "duration": 0.3000000000000007,
          "durationTicks": 120,
          "midi": 72,
          "name": "C5",
          "ticks": 6960,
          "time": 17.4,
          "velocity": 0.7480314960629921
        },
        {
          "duration": 0.3000000000000007,
          "durationTicks": 120,
          "midi": 64,
          "name": "E4",
          "ticks": 6960,
          "time": 17.4,
          "velocity": 0.3700787401574803
        },
        {
          "duration": 0.3000000000000007,
          "durationTicks": 120,
          "midi": 60,
          "name": "C4",
          "ticks": 6960,
          "time": 17.4,
          "velocity": 0.3700787401574803
        },
        {
          "duration": 0.11250000000000071,
          "durationTicks": 45,
          "midi": 76,
          "name": "E5",
          "ticks": 7200,
          "time": 18,
          "velocity": 0.7480314960629921
        },
        {
          "duration": 0.11250000000000071,
          "durationTicks": 45,
          "midi": 69,
          "name": "A4",
          "ticks": 7200,
          "time": 18,
          "velocity": 0.7480314960629921
        },
        {
          "duration": 0.11250000000000071,
          "durationTicks": 45,
          "midi": 64,
          "name": "E4",
          "ticks": 7200,
          "time": 18,
          "velocity": 0.3700787401574803
        },
        {
          "duration": 0.11250000000000071,
          "durationTicks": 45,
          "midi": 57,
          "name": "A3",
          "ticks": 7200,
          "time": 18,
          "velocity": 0.3700787401574803
        },
        {
          "duration": 0.11249999999999716,
          "durationTicks": 45,
          "midi": 76,
          "name": "E5",
          "ticks": 7320,
          "time": 18.3,
          "velocity": 0.7480314960629921
        },
        {
          "duration": 0.11249999999999716,
          "durationTicks": 45,
          "midi": 69,
          "name": "A4",
          "ticks": 7320,
          "time": 18.3,
          "velocity": 0.7480314960629921
        },
        {
          "duration": 0.11249999999999716,
          "durationTicks": 45,
          "midi": 64,
          "name": "E4",
          "ticks": 7320,
          "time": 18.3,
          "velocity": 0.3700787401574803
        },
        {
          "duration": 0.11249999999999716,
          "durationTicks": 45,
          "midi": 57,
          "name": "A3",
          "ticks": 7320,
          "time": 18.3,
          "velocity": 0.3700787401574803
        },
        {
          "duration": 0.2699999999999996,
          "durationTicks": 108,
          "midi": 76,
          "name": "E5",
          "ticks": 7440,
          "time": 18.599999999999998,
          "velocity": 0.7480314960629921
        },
        {
          "duration": 0.2699999999999996,
          "durationTicks": 108,
          "midi": 69,
          "name": "A4",
          "ticks": 7440,
          "time": 18.599999999999998,
          "velocity": 0.7480314960629921
        },
        {
          "duration": 0.2699999999999996,
          "durationTicks": 108,
          "midi": 64,
          "name": "E4",
          "ticks": 7440,
          "time": 18.599999999999998,
          "velocity": 0.3700787401574803
        },
        {
          "duration": 0.2699999999999996,
          "durationTicks": 108,
          "midi": 57,
          "name": "A3",
          "ticks": 7440,
          "time": 18.599999999999998,
          "velocity": 0.3700787401574803
        },
        {
          "duration": 0.11249999999999716,
          "durationTicks": 45,
          "midi": 78,
          "name": "F#5",
          "ticks": 7620,
          "time": 19.05,
          "velocity": 0.7480314960629921
        },
        {
          "duration": 0.11249999999999716,
          "durationTicks": 45,
          "midi": 74,
          "name": "D5",
          "ticks": 7620,
          "time": 19.05,
          "velocity": 0.7480314960629921
        },
        {
          "duration": 0.11249999999999716,
          "durationTicks": 45,
          "midi": 66,
          "name": "F#4",
          "ticks": 7620,
          "time": 19.05,
          "velocity": 0.3700787401574803
        },
        {
          "duration": 0.11249999999999716,
          "durationTicks": 45,
          "midi": 62,
          "name": "D4",
          "ticks": 7620,
          "time": 19.05,
          "velocity": 0.3700787401574803
        },
        {
          "duration": 0.11250000000000071,
          "durationTicks": 45,
          "midi": 78,
          "name": "F#5",
          "ticks": 7740,
          "time": 19.349999999999998,
          "velocity": 0.7480314960629921
        },
        {
          "duration": 0.11250000000000071,
          "durationTicks": 45,
          "midi": 74,
          "name": "D5",
          "ticks": 7740,
          "time": 19.349999999999998,
          "velocity": 0.7480314960629921
        },
        {
          "duration": 0.11250000000000071,
          "durationTicks": 45,
          "midi": 66,
          "name": "F#4",
          "ticks": 7740,
          "time": 19.349999999999998,
          "velocity": 0.3700787401574803
        },
        {
          "duration": 0.11250000000000071,
          "durationTicks": 45,
          "midi": 62,
          "name": "D4",
          "ticks": 7740,
          "time": 19.349999999999998,
          "velocity": 0.3700787401574803
        },
        {
          "duration": 0.11250000000000071,
          "durationTicks": 45,
          "midi": 78,
          "name": "F#5",
          "ticks": 7860,
          "time": 19.65,
          "velocity": 0.7480314960629921
        },
        {
          "duration": 0.11250000000000071,
          "durationTicks": 45,
          "midi": 74,
          "name": "D5",
          "ticks": 7860,
          "time": 19.65,
          "velocity": 0.7480314960629921
        },
        {
          "duration": 0.11250000000000071,
          "durationTicks": 45,
          "midi": 66,
          "name": "F#4",
          "ticks": 7860,
          "time": 19.65,
          "velocity": 0.3700787401574803
        },
        {
          "duration": 0.11250000000000071,
          "durationTicks": 45,
          "midi": 62,
          "name": "D4",
          "ticks": 7860,
          "time": 19.65,
          "velocity": 0.3700787401574803
        },
        {
          "duration": 0.29999999999999716,
          "durationTicks": 120,
          "midi": 78,
          "name": "F#5",
          "ticks": 7920,
          "time": 19.8,
          "velocity": 0.7480314960629921
        },
        {
          "duration": 0.29999999999999716,
          "durationTicks": 120,
          "midi": 74,
          "name": "D5",
          "ticks": 7920,
          "time": 19.8,
          "velocity": 0.7480314960629921
        },
        {
          "duration": 0.29999999999999716,
          "durationTicks": 120,
          "midi": 66,
          "name": "F#4",
          "ticks": 7920,
          "time": 19.8,
          "velocity": 0.3700787401574803
        },
        {
          "duration": 0.29999999999999716,
          "durationTicks": 120,
          "midi": 62,
          "name": "D4",
          "ticks": 7920,
          "time": 19.8,
          "velocity": 0.3700787401574803
        },
        {
          "duration": 0.11250000000000071,
          "durationTicks": 45,
          "midi": 76,
          "name": "E5",
          "ticks": 8160,
          "time": 20.4,
          "velocity": 0.7480314960629921
        },
        {
          "duration": 0.11250000000000071,
          "durationTicks": 45,
          "midi": 69,
          "name": "A4",
          "ticks": 8160,
          "time": 20.4,
          "velocity": 0.7480314960629921
        },
        {
          "duration": 0.11250000000000071,
          "durationTicks": 45,
          "midi": 64,
          "name": "E4",
          "ticks": 8160,
          "time": 20.4,
          "velocity": 0.3700787401574803
        },
        {
          "duration": 0.11250000000000071,
          "durationTicks": 45,
          "midi": 57,
          "name": "A3",
          "ticks": 8160,
          "time": 20.4,
          "velocity": 0.3700787401574803
        },
        {
          "duration": 0.11250000000000071,
          "durationTicks": 45,
          "midi": 76,
          "name": "E5",
          "ticks": 8280,
          "time": 20.7,
          "velocity": 0.7480314960629921
        },
        {
          "duration": 0.11250000000000071,
          "durationTicks": 45,
          "midi": 69,
          "name": "A4",
          "ticks": 8280,
          "time": 20.7,
          "velocity": 0.7480314960629921
        },
        {
          "duration": 0.11250000000000071,
          "durationTicks": 45,
          "midi": 64,
          "name": "E4",
          "ticks": 8280,
          "time": 20.7,
          "velocity": 0.3700787401574803
        },
        {
          "duration": 0.11250000000000071,
          "durationTicks": 45,
          "midi": 57,
          "name": "A3",
          "ticks": 8280,
          "time": 20.7,
          "velocity": 0.3700787401574803
        },
        {
          "duration": 0.2699999999999996,
          "durationTicks": 108,
          "midi": 76,
          "name": "E5",
          "ticks": 8400,
          "time": 21,
          "velocity": 0.7480314960629921
        },
        {
          "duration": 0.2699999999999996,
          "durationTicks": 108,
          "midi": 69,
          "name": "A4",
          "ticks": 8400,
          "time": 21,
          "velocity": 0.7480314960629921
        },
        {
          "duration": 0.2699999999999996,
          "durationTicks": 108,
          "midi": 64,
          "name": "E4",
          "ticks": 8400,
          "time": 21,
          "velocity": 0.3700787401574803
        },
        {
          "duration": 0.2699999999999996,
          "durationTicks": 108,
          "midi": 57,
          "name": "A3",
          "ticks": 8400,
          "time": 21,
          "velocity": 0.3700787401574803
        },
        {
          "duration": 0.11250000000000071,
          "durationTicks": 45,
          "midi": 78,
          "name": "F#5",
          "ticks": 8580,
          "time": 21.45,
          "velocity": 0.7480314960629921
        },
        {
          "duration": 0.11250000000000071,
          "durationTicks": 45,
          "midi": 74,
          "name": "D5",
          "ticks": 8580,
          "time": 21.45,
          "velocity": 0.7480314960629921
        },
        {
          "duration": 0.11250000000000071,
          "durationTicks": 45,
          "midi": 66,
          "name": "F#4",
          "ticks": 8580,
          "time": 21.45,
          "velocity": 0.3700787401574803
        },
        {
          "duration": 0.11250000000000071,
          "durationTicks": 45,
          "midi": 62,
          "name": "D4",
          "ticks": 8580,
          "time": 21.45,
          "velocity": 0.3700787401574803
        },
        {
          "duration": 0.11250000000000071,
          "durationTicks": 45,
          "midi": 78,
          "name": "F#5",
          "ticks": 8700,
          "time": 21.75,
          "velocity": 0.7480314960629921
        },
        {
          "duration": 0.11250000000000071,
          "durationTicks": 45,
          "midi": 74,
          "name": "D5",
          "ticks": 8700,
          "time": 21.75,
          "velocity": 0.7480314960629921
        },
        {
          "duration": 0.11250000000000071,
          "durationTicks": 45,
          "midi": 66,
          "name": "F#4",
          "ticks": 8700,
          "time": 21.75,
          "velocity": 0.3700787401574803
        },
        {
          "duration": 0.11250000000000071,
          "durationTicks": 45,
          "midi": 62,
          "name": "D4",
          "ticks": 8700,
          "time": 21.75,
          "velocity": 0.3700787401574803
        },
        {
          "duration": 0.11249999999999716,
          "durationTicks": 45,
          "midi": 78,
          "name": "F#5",
          "ticks": 8820,
          "time": 22.05,
          "velocity": 0.7480314960629921
        },
        {
          "duration": 0.11249999999999716,
          "durationTicks": 45,
          "midi": 74,
          "name": "D5",
          "ticks": 8820,
          "time": 22.05,
          "velocity": 0.7480314960629921
        },
        {
          "duration": 0.11249999999999716,
          "durationTicks": 45,
          "midi": 66,
          "name": "F#4",
          "ticks": 8820,
          "time": 22.05,
          "velocity": 0.3700787401574803
        },
        {
          "duration": 0.11249999999999716,
          "durationTicks": 45,
          "midi": 62,
          "name": "D4",
          "ticks": 8820,
          "time": 22.05,
          "velocity": 0.3700787401574803
        },
        {
          "duration": 0.3000000000000007,
          "durationTicks": 120,
          "midi": 78,
          "name": "F#5",
          "ticks": 8880,
          "time": 22.2,
          "velocity": 0.7480314960629921
        },
        {
          "duration": 0.3000000000000007,
          "durationTicks": 120,
          "midi": 74,
          "name": "D5",
          "ticks": 8880,
          "time": 22.2,
          "velocity": 0.7480314960629921
        },
        {
          "duration": 0.3000000000000007,
          "durationTicks": 120,
          "midi": 66,
          "name": "F#4",
          "ticks": 8880,
          "time": 22.2,
          "velocity": 0.3700787401574803
        },
        {
          "duration": 0.3000000000000007,
          "durationTicks": 120,
          "midi": 62,
          "name": "D4",
          "ticks": 8880,
          "time": 22.2,
          "velocity": 0.3700787401574803
        },
        {
          "duration": 0.29999999999999716,
          "durationTicks": 120,
          "midi": 71,
          "name": "B4",
          "ticks": 9120,
          "time": 22.8,
          "velocity": 0.7480314960629921
        },
        {
          "duration": 0.29999999999999716,
          "durationTicks": 120,
          "midi": 67,
          "name": "G4",
          "ticks": 9120,
          "time": 22.8,
          "velocity": 0.7480314960629921
        },
        {
          "duration": 0.29999999999999716,
          "durationTicks": 120,
          "midi": 59,
          "name": "B3",
          "ticks": 9120,
          "time": 22.8,
          "velocity": 0.3700787401574803
        },
        {
          "duration": 0.29999999999999716,
          "durationTicks": 120,
          "midi": 55,
          "name": "G3",
          "ticks": 9120,
          "time": 22.8,
          "velocity": 0.3700787401574803
        },
        {
          "duration": 0.11250000000000426,
          "durationTicks": 45,
          "midi": 74,
          "name": "D5",
          "ticks": 14880,
          "time": 37.199999999999996,
          "velocity": 0.7480314960629921
        },
        {
          "duration": 0.11250000000000426,
          "durationTicks": 45,
          "midi": 67,
          "name": "G4",
          "ticks": 14880,
          "time": 37.199999999999996,
          "velocity": 0.7480314960629921
        },
        {
          "duration": 0.11250000000000426,
          "durationTicks": 45,
          "midi": 62,
          "name": "D4",
          "ticks": 14880,
          "time": 37.199999999999996,
          "velocity": 0.3700787401574803
        },
        {
          "duration": 0.11250000000000426,
          "durationTicks": 45,
          "midi": 55,
          "name": "G3",
          "ticks": 14880,
          "time": 37.199999999999996,
          "velocity": 0.3700787401574803
        },
        {
          "duration": 0.11249999999999716,
          "durationTicks": 45,
          "midi": 74,
          "name": "D5",
          "ticks": 15000,
          "time": 37.5,
          "velocity": 0.7480314960629921
        },
        {
          "duration": 0.11249999999999716,
          "durationTicks": 45,
          "midi": 67,
          "name": "G4",
          "ticks": 15000,
          "time": 37.5,
          "velocity": 0.7480314960629921
        },
        {
          "duration": 0.11249999999999716,
          "durationTicks": 45,
          "midi": 62,
          "name": "D4",
          "ticks": 15000,
          "time": 37.5,
          "velocity": 0.3700787401574803
        },
        {
          "duration": 0.11249999999999716,
          "durationTicks": 45,
          "midi": 55,
          "name": "G3",
          "ticks": 15000,
          "time": 37.5,
          "velocity": 0.3700787401574803
        },
        {
          "duration": 0.269999999999996,
          "durationTicks": 108,
          "midi": 74,
          "name": "D5",
          "ticks": 15120,
          "time": 37.8,
          "velocity": 0.7480314960629921
        },
        {
          "duration": 0.269999999999996,
          "durationTicks": 108,
          "midi": 67,
          "name": "G4",
          "ticks": 15120,
          "time": 37.8,
          "velocity": 0.7480314960629921
        },
        {
          "duration": 0.269999999999996,
          "durationTicks": 108,
          "midi": 62,
          "name": "D4",
          "ticks": 15120,
          "time": 37.8,
          "velocity": 0.3700787401574803
        },
        {
          "duration": 0.269999999999996,
          "durationTicks": 108,
          "midi": 55,
          "name": "G3",
          "ticks": 15120,
          "time": 37.8,
          "velocity": 0.3700787401574803
        },
        {
          "duration": 0.11249999999999716,
          "durationTicks": 45,
          "midi": 76,
          "name": "E5",
          "ticks": 15300,
          "time": 38.25,
          "velocity": 0.7480314960629921
        },
        {
          "duration": 0.11249999999999716,
          "durationTicks": 45,
          "midi": 72,
          "name": "C5",
          "ticks": 15300,
          "time": 38.25,
          "velocity": 0.7480314960629921
        },
        {
          "duration": 0.11249999999999716,
          "durationTicks": 45,
          "midi": 64,
          "name": "E4",
          "ticks": 15300,
          "time": 38.25,
          "velocity": 0.3700787401574803
        },
        {
          "duration": 0.11249999999999716,
          "durationTicks": 45,
          "midi": 60,
          "name": "C4",
          "ticks": 15300,
          "time": 38.25,
          "velocity": 0.3700787401574803
        },
        {
          "duration": 0.11249999999999716,
          "durationTicks": 45,
          "midi": 76,
          "name": "E5",
          "ticks": 15420,
          "time": 38.55,
          "velocity": 0.7480314960629921
        },
        {
          "duration": 0.11249999999999716,
          "durationTicks": 45,
          "midi": 72,
          "name": "C5",
          "ticks": 15420,
          "time": 38.55,
          "velocity": 0.7480314960629921
        },
        {
          "duration": 0.11249999999999716,
          "durationTicks": 45,
          "midi": 64,
          "name": "E4",
          "ticks": 15420,
          "time": 38.55,
          "velocity": 0.3700787401574803
        },
        {
          "duration": 0.11249999999999716,
          "durationTicks": 45,
          "midi": 60,
          "name": "C4",
          "ticks": 15420,
          "time": 38.55,
          "velocity": 0.3700787401574803
        },
        {
          "duration": 0.11250000000000426,
          "durationTicks": 45,
          "midi": 76,
          "name": "E5",
          "ticks": 15540,
          "time": 38.849999999999994,
          "velocity": 0.7480314960629921
        },
        {
          "duration": 0.11250000000000426,
          "durationTicks": 45,
          "midi": 72,
          "name": "C5",
          "ticks": 15540,
          "time": 38.849999999999994,
          "velocity": 0.7480314960629921
        },
        {
          "duration": 0.11250000000000426,
          "durationTicks": 45,
          "midi": 64,
          "name": "E4",
          "ticks": 15540,
          "time": 38.849999999999994,
          "velocity": 0.3700787401574803
        },
        {
          "duration": 0.11250000000000426,
          "durationTicks": 45,
          "midi": 60,
          "name": "C4",
          "ticks": 15540,
          "time": 38.849999999999994,
          "velocity": 0.3700787401574803
        },
        {
          "duration": 0.29999999999999716,
          "durationTicks": 120,
          "midi": 76,
          "name": "E5",
          "ticks": 15600,
          "time": 39,
          "velocity": 0.7480314960629921
        },
        {
          "duration": 0.29999999999999716,
          "durationTicks": 120,
          "midi": 72,
          "name": "C5",
          "ticks": 15600,
          "time": 39,
          "velocity": 0.7480314960629921
        },
        {
          "duration": 0.29999999999999716,
          "durationTicks": 120,
          "midi": 64,
          "name": "E4",
          "ticks": 15600,
          "time": 39,
          "velocity": 0.3700787401574803
        },
        {
          "duration": 0.29999999999999716,
          "durationTicks": 120,
          "midi": 60,
          "name": "C4",
          "ticks": 15600,
          "time": 39,
          "velocity": 0.3700787401574803
        },
        {
          "duration": 0.11250000000000426,
          "durationTicks": 45,
          "midi": 74,
          "name": "D5",
          "ticks": 15840,
          "time": 39.599999999999994,
          "velocity": 0.7480314960629921
        },
        {
          "duration": 0.11250000000000426,
          "durationTicks": 45,
          "midi": 67,
          "name": "G4",
          "ticks": 15840,
          "time": 39.599999999999994,
          "velocity": 0.7480314960629921
        },
        {
          "duration": 0.11250000000000426,
          "durationTicks": 45,
          "midi": 62,
          "name": "D4",
          "ticks": 15840,
          "time": 39.599999999999994,
          "velocity": 0.3700787401574803
        },
        {
          "duration": 0.11250000000000426,
          "durationTicks": 45,
          "midi": 55,
          "name": "G3",
          "ticks": 15840,
          "time": 39.599999999999994,
          "velocity": 0.3700787401574803
        },
        {
          "duration": 0.11249999999999716,
          "durationTicks": 45,
          "midi": 74,
          "name": "D5",
          "ticks": 15960,
          "time": 39.9,
          "velocity": 0.7480314960629921
        },
        {
          "duration": 0.11249999999999716,
          "durationTicks": 45,
          "midi": 67,
          "name": "G4",
          "ticks": 15960,
          "time": 39.9,
          "velocity": 0.7480314960629921
        },
        {
          "duration": 0.11249999999999716,
          "durationTicks": 45,
          "midi": 62,
          "name": "D4",
          "ticks": 15960,
          "time": 39.9,
          "velocity": 0.3700787401574803
        },
        {
          "duration": 0.11249999999999716,
          "durationTicks": 45,
          "midi": 55,
          "name": "G3",
          "ticks": 15960,
          "time": 39.9,
          "velocity": 0.3700787401574803
        },
        {
          "duration": 0.2700000000000031,
          "durationTicks": 108,
          "midi": 74,
          "name": "D5",
          "ticks": 16080,
          "time": 40.199999999999996,
          "velocity": 0.7480314960629921
        },
        {
          "duration": 0.2700000000000031,
          "durationTicks": 108,
          "midi": 67,
          "name": "G4",
          "ticks": 16080,
          "time": 40.199999999999996,
          "velocity": 0.7480314960629921
        },
        {
          "duration": 0.2700000000000031,
          "durationTicks": 108,
          "midi": 62,
          "name": "D4",
          "ticks": 16080,
          "time": 40.199999999999996,
          "velocity": 0.3700787401574803
        },
        {
          "duration": 0.2700000000000031,
          "durationTicks": 108,
          "midi": 55,
          "name": "G3",
          "ticks": 16080,
          "time": 40.199999999999996,
          "velocity": 0.3700787401574803
        },
        {
          "duration": 0.11249999999999716,
          "durationTicks": 45,
          "midi": 76,
          "name": "E5",
          "ticks": 16260,
          "time": 40.65,
          "velocity": 0.7480314960629921
        },
        {
          "duration": 0.11249999999999716,
          "durationTicks": 45,
          "midi": 72,
          "name": "C5",
          "ticks": 16260,
          "time": 40.65,
          "velocity": 0.7480314960629921
        },
        {
          "duration": 0.11249999999999716,
          "durationTicks": 45,
          "midi": 64,
          "name": "E4",
          "ticks": 16260,
          "time": 40.65,
          "velocity": 0.3700787401574803
        },
        {
          "duration": 0.11249999999999716,
          "durationTicks": 45,
          "midi": 60,
          "name": "C4",
          "ticks": 16260,
          "time": 40.65,
          "velocity": 0.3700787401574803
        },
        {
          "duration": 0.11250000000000426,
          "durationTicks": 45,
          "midi": 76,
          "name": "E5",
          "ticks": 16380,
          "time": 40.949999999999996,
          "velocity": 0.7480314960629921
        },
        {
          "duration": 0.11250000000000426,
          "durationTicks": 45,
          "midi": 72,
          "name": "C5",
          "ticks": 16380,
          "time": 40.949999999999996,
          "velocity": 0.7480314960629921
        },
        {
          "duration": 0.11250000000000426,
          "durationTicks": 45,
          "midi": 64,
          "name": "E4",
          "ticks": 16380,
          "time": 40.949999999999996,
          "velocity": 0.3700787401574803
        },
        {
          "duration": 0.11250000000000426,
          "durationTicks": 45,
          "midi": 60,
          "name": "C4",
          "ticks": 16380,
          "time": 40.949999999999996,
          "velocity": 0.3700787401574803
        },
        {
          "duration": 0.11249999999999716,
          "durationTicks": 45,
          "midi": 76,
          "name": "E5",
          "ticks": 16500,
          "time": 41.25,
          "velocity": 0.7480314960629921
        },
        {
          "duration": 0.11249999999999716,
          "durationTicks": 45,
          "midi": 72,
          "name": "C5",
          "ticks": 16500,
          "time": 41.25,
          "velocity": 0.7480314960629921
        },
        {
          "duration": 0.11249999999999716,
          "durationTicks": 45,
          "midi": 64,
          "name": "E4",
          "ticks": 16500,
          "time": 41.25,
          "velocity": 0.3700787401574803
        },
        {
          "duration": 0.11249999999999716,
          "durationTicks": 45,
          "midi": 60,
          "name": "C4",
          "ticks": 16500,
          "time": 41.25,
          "velocity": 0.3700787401574803
        },
        {
          "duration": 0.29999999999999716,
          "durationTicks": 120,
          "midi": 76,
          "name": "E5",
          "ticks": 16560,
          "time": 41.4,
          "velocity": 0.7480314960629921
        },
        {
          "duration": 0.29999999999999716,
          "durationTicks": 120,
          "midi": 72,
          "name": "C5",
          "ticks": 16560,
          "time": 41.4,
          "velocity": 0.7480314960629921
        },
        {
          "duration": 0.29999999999999716,
          "durationTicks": 120,
          "midi": 64,
          "name": "E4",
          "ticks": 16560,
          "time": 41.4,
          "velocity": 0.3700787401574803
        },
        {
          "duration": 0.29999999999999716,
          "durationTicks": 120,
          "midi": 60,
          "name": "C4",
          "ticks": 16560,
          "time": 41.4,
          "velocity": 0.3700787401574803
        },
        {
          "duration": 0.11249999999999716,
          "durationTicks": 45,
          "midi": 76,
          "name": "E5",
          "ticks": 16800,
          "time": 42,
          "velocity": 0.7480314960629921
        },
        {
          "duration": 0.11249999999999716,
          "durationTicks": 45,
          "midi": 69,
          "name": "A4",
          "ticks": 16800,
          "time": 42,
          "velocity": 0.7480314960629921
        },
        {
          "duration": 0.11249999999999716,
          "durationTicks": 45,
          "midi": 64,
          "name": "E4",
          "ticks": 16800,
          "time": 42,
          "velocity": 0.3700787401574803
        },
        {
          "duration": 0.11249999999999716,
          "durationTicks": 45,
          "midi": 57,
          "name": "A3",
          "ticks": 16800,
          "time": 42,
          "velocity": 0.3700787401574803
        },
        {
          "duration": 0.11249999999999716,
          "durationTicks": 45,
          "midi": 76,
          "name": "E5",
          "ticks": 16920,
          "time": 42.3,
          "velocity": 0.7480314960629921
        },
        {
          "duration": 0.11249999999999716,
          "durationTicks": 45,
          "midi": 69,
          "name": "A4",
          "ticks": 16920,
          "time": 42.3,
          "velocity": 0.7480314960629921
        },
        {
          "duration": 0.11249999999999716,
          "durationTicks": 45,
          "midi": 64,
          "name": "E4",
          "ticks": 16920,
          "time": 42.3,
          "velocity": 0.3700787401574803
        },
        {
          "duration": 0.11249999999999716,
          "durationTicks": 45,
          "midi": 57,
          "name": "A3",
          "ticks": 16920,
          "time": 42.3,
          "velocity": 0.3700787401574803
        },
        {
          "duration": 0.2700000000000031,
          "durationTicks": 108,
          "midi": 76,
          "name": "E5",
          "ticks": 17040,
          "time": 42.599999999999994,
          "velocity": 0.7480314960629921
        },
        {
          "duration": 0.2700000000000031,
          "durationTicks": 108,
          "midi": 69,
          "name": "A4",
          "ticks": 17040,
          "time": 42.599999999999994,
          "velocity": 0.7480314960629921
        },
        {
          "duration": 0.2700000000000031,
          "durationTicks": 108,
          "midi": 64,
          "name": "E4",
          "ticks": 17040,
          "time": 42.599999999999994,
          "velocity": 0.3700787401574803
        },
        {
          "duration": 0.2700000000000031,
          "durationTicks": 108,
          "midi": 57,
          "name": "A3",
          "ticks": 17040,
          "time": 42.599999999999994,
          "velocity": 0.3700787401574803
        },
        {
          "duration": 0.11249999999999716,
          "durationTicks": 45,
          "midi": 78,
          "name": "F#5",
          "ticks": 17220,
          "time": 43.05,
          "velocity": 0.7480314960629921
        },
        {
          "duration": 0.11249999999999716,
          "durationTicks": 45,
          "midi": 74,
          "name": "D5",
          "ticks": 17220,
          "time": 43.05,
          "velocity": 0.7480314960629921
        },
        {
          "duration": 0.11249999999999716,
          "durationTicks": 45,
          "midi": 66,
          "name": "F#4",
          "ticks": 17220,
          "time": 43.05,
          "velocity": 0.3700787401574803
        },
        {
          "duration": 0.11249999999999716,
          "durationTicks": 45,
          "midi": 62,
          "name": "D4",
          "ticks": 17220,
          "time": 43.05,
          "velocity": 0.3700787401574803
        },
        {
          "duration": 0.11250000000000426,
          "durationTicks": 45,
          "midi": 78,
          "name": "F#5",
          "ticks": 17340,
          "time": 43.349999999999994,
          "velocity": 0.7480314960629921
        },
        {
          "duration": 0.11250000000000426,
          "durationTicks": 45,
          "midi": 74,
          "name": "D5",
          "ticks": 17340,
          "time": 43.349999999999994,
          "velocity": 0.7480314960629921
        },
        {
          "duration": 0.11250000000000426,
          "durationTicks": 45,
          "midi": 66,
          "name": "F#4",
          "ticks": 17340,
          "time": 43.349999999999994,
          "velocity": 0.3700787401574803
        },
        {
          "duration": 0.11250000000000426,
          "durationTicks": 45,
          "midi": 62,
          "name": "D4",
          "ticks": 17340,
          "time": 43.349999999999994,
          "velocity": 0.3700787401574803
        },
        {
          "duration": 0.11249999999999716,
          "durationTicks": 45,
          "midi": 78,
          "name": "F#5",
          "ticks": 17460,
          "time": 43.65,
          "velocity": 0.7480314960629921
        },
        {
          "duration": 0.11249999999999716,
          "durationTicks": 45,
          "midi": 74,
          "name": "D5",
          "ticks": 17460,
          "time": 43.65,
          "velocity": 0.7480314960629921
        },
        {
          "duration": 0.11249999999999716,
          "durationTicks": 45,
          "midi": 66,
          "name": "F#4",
          "ticks": 17460,
          "time": 43.65,
          "velocity": 0.3700787401574803
        },
        {
          "duration": 0.11249999999999716,
          "durationTicks": 45,
          "midi": 62,
          "name": "D4",
          "ticks": 17460,
          "time": 43.65,
          "velocity": 0.3700787401574803
        },
        {
          "duration": 0.29999999999999716,
          "durationTicks": 120,
          "midi": 78,
          "name": "F#5",
          "ticks": 17520,
          "time": 43.8,
          "velocity": 0.7480314960629921
        },
        {
          "duration": 0.29999999999999716,
          "durationTicks": 120,
          "midi": 74,
          "name": "D5",
          "ticks": 17520,
          "time": 43.8,
          "velocity": 0.7480314960629921
        },
        {
          "duration": 0.29999999999999716,
          "durationTicks": 120,
          "midi": 66,
          "name": "F#4",
          "ticks": 17520,
          "time": 43.8,
          "velocity": 0.3700787401574803
        },
        {
          "duration": 0.29999999999999716,
          "durationTicks": 120,
          "midi": 62,
          "name": "D4",
          "ticks": 17520,
          "time": 43.8,
          "velocity": 0.3700787401574803
        },
        {
          "duration": 0.11249999999999716,
          "durationTicks": 45,
          "midi": 76,
          "name": "E5",
          "ticks": 17760,
          "time": 44.4,
          "velocity": 0.7480314960629921
        },
        {
          "duration": 0.11249999999999716,
          "durationTicks": 45,
          "midi": 69,
          "name": "A4",
          "ticks": 17760,
          "time": 44.4,
          "velocity": 0.7480314960629921
        },
        {
          "duration": 0.11249999999999716,
          "durationTicks": 45,
          "midi": 64,
          "name": "E4",
          "ticks": 17760,
          "time": 44.4,
          "velocity": 0.3700787401574803
        },
        {
          "duration": 0.11249999999999716,
          "durationTicks": 45,
          "midi": 57,
          "name": "A3",
          "ticks": 17760,
          "time": 44.4,
          "velocity": 0.3700787401574803
        },
        {
          "duration": 0.11250000000000426,
          "durationTicks": 45,
          "midi": 76,
          "name": "E5",
          "ticks": 17880,
          "time": 44.699999999999996,
          "velocity": 0.7480314960629921
        },
        {
          "duration": 0.11250000000000426,
          "durationTicks": 45,
          "midi": 69,
          "name": "A4",
          "ticks": 17880,
          "time": 44.699999999999996,
          "velocity": 0.7480314960629921
        },
        {
          "duration": 0.11250000000000426,
          "durationTicks": 45,
          "midi": 64,
          "name": "E4",
          "ticks": 17880,
          "time": 44.699999999999996,
          "velocity": 0.3700787401574803
        },
        {
          "duration": 0.11250000000000426,
          "durationTicks": 45,
          "midi": 57,
          "name": "A3",
          "ticks": 17880,
          "time": 44.699999999999996,
          "velocity": 0.3700787401574803
        },
        {
          "duration": 0.269999999999996,
          "durationTicks": 108,
          "midi": 76,
          "name": "E5",
          "ticks": 18000,
          "time": 45,
          "velocity": 0.7480314960629921
        },
        {
          "duration": 0.269999999999996,
          "durationTicks": 108,
          "midi": 69,
          "name": "A4",
          "ticks": 18000,
          "time": 45,
          "velocity": 0.7480314960629921
        },
        {
          "duration": 0.269999999999996,
          "durationTicks": 108,
          "midi": 64,
          "name": "E4",
          "ticks": 18000,
          "time": 45,
          "velocity": 0.3700787401574803
        },
        {
          "duration": 0.269999999999996,
          "durationTicks": 108,
          "midi": 57,
          "name": "A3",
          "ticks": 18000,
          "time": 45,
          "velocity": 0.3700787401574803
        },
        {
          "duration": 0.11250000000000426,
          "durationTicks": 45,
          "midi": 78,
          "name": "F#5",
          "ticks": 18180,
          "time": 45.449999999999996,
          "velocity": 0.7480314960629921
        },
        {
          "duration": 0.11250000000000426,
          "durationTicks": 45,
          "midi": 74,
          "name": "D5",
          "ticks": 18180,
          "time": 45.449999999999996,
          "velocity": 0.7480314960629921
        },
        {
          "duration": 0.11250000000000426,
          "durationTicks": 45,
          "midi": 66,
          "name": "F#4",
          "ticks": 18180,
          "time": 45.449999999999996,
          "velocity": 0.3700787401574803
        },
        {
          "duration": 0.11250000000000426,
          "durationTicks": 45,
          "midi": 62,
          "name": "D4",
          "ticks": 18180,
          "time": 45.449999999999996,
          "velocity": 0.3700787401574803
        },
        {
          "duration": 0.11249999999999716,
          "durationTicks": 45,
          "midi": 78,
          "name": "F#5",
          "ticks": 18300,
          "time": 45.75,
          "velocity": 0.7480314960629921
        },
        {
          "duration": 0.11249999999999716,
          "durationTicks": 45,
          "midi": 74,
          "name": "D5",
          "ticks": 18300,
          "time": 45.75,
          "velocity": 0.7480314960629921
        },
        {
          "duration": 0.11249999999999716,
          "durationTicks": 45,
          "midi": 66,
          "name": "F#4",
          "ticks": 18300,
          "time": 45.75,
          "velocity": 0.3700787401574803
        },
        {
          "duration": 0.11249999999999716,
          "durationTicks": 45,
          "midi": 62,
          "name": "D4",
          "ticks": 18300,
          "time": 45.75,
          "velocity": 0.3700787401574803
        },
        {
          "duration": 0.11249999999999716,
          "durationTicks": 45,
          "midi": 78,
          "name": "F#5",
          "ticks": 18420,
          "time": 46.05,
          "velocity": 0.7480314960629921
        },
        {
          "duration": 0.11249999999999716,
          "durationTicks": 45,
          "midi": 74,
          "name": "D5",
          "ticks": 18420,
          "time": 46.05,
          "velocity": 0.7480314960629921
        },
        {
          "duration": 0.11249999999999716,
          "durationTicks": 45,
          "midi": 66,
          "name": "F#4",
          "ticks": 18420,
          "time": 46.05,
          "velocity": 0.3700787401574803
        },
        {
          "duration": 0.11249999999999716,
          "durationTicks": 45,
          "midi": 62,
          "name": "D4",
          "ticks": 18420,
          "time": 46.05,
          "velocity": 0.3700787401574803
        },
        {
          "duration": 0.30000000000000426,
          "durationTicks": 120,
          "midi": 78,
          "name": "F#5",
          "ticks": 18480,
          "time": 46.199999999999996,
          "velocity": 0.7480314960629921
        },
        {
          "duration": 0.30000000000000426,
          "durationTicks": 120,
          "midi": 74,
          "name": "D5",
          "ticks": 18480,
          "time": 46.199999999999996,
          "velocity": 0.7480314960629921
        },
        {
          "duration": 0.30000000000000426,
          "durationTicks": 120,
          "midi": 66,
          "name": "F#4",
          "ticks": 18480,
          "time": 46.199999999999996,
          "velocity": 0.3700787401574803
        },
        {
          "duration": 0.30000000000000426,
          "durationTicks": 120,
          "midi": 62,
          "name": "D4",
          "ticks": 18480,
          "time": 46.199999999999996,
          "velocity": 0.3700787401574803
        },
        {
          "duration": 0.29999999999999716,
          "durationTicks": 120,
          "midi": 71,
          "name": "B4",
          "ticks": 18720,
          "time": 46.8,
          "velocity": 0.7480314960629921
        },
        {
          "duration": 0.29999999999999716,
          "durationTicks": 120,
          "midi": 67,
          "name": "G4",
          "ticks": 18720,
          "time": 46.8,
          "velocity": 0.7480314960629921
        },
        {
          "duration": 0.29999999999999716,
          "durationTicks": 120,
          "midi": 59,
          "name": "B3",
          "ticks": 18720,
          "time": 46.8,
          "velocity": 0.3700787401574803
        },
        {
          "duration": 0.29999999999999716,
          "durationTicks": 120,
          "midi": 55,
          "name": "G3",
          "ticks": 18720,
          "time": 46.8,
          "velocity": 0.3700787401574803
        },
        {
          "duration": 0.11249999999999716,
          "durationTicks": 45,
          "midi": 74,
          "name": "D5",
          "ticks": 24480,
          "time": 61.199999999999996,
          "velocity": 0.7480314960629921
        },
        {
          "duration": 0.11249999999999716,
          "durationTicks": 45,
          "midi": 67,
          "name": "G4",
          "ticks": 24480,
          "time": 61.199999999999996,
          "velocity": 0.7480314960629921
        },
        {
          "duration": 0.11249999999999716,
          "durationTicks": 45,
          "midi": 62,
          "name": "D4",
          "ticks": 24480,
          "time": 61.199999999999996,
          "velocity": 0.3700787401574803
        },
        {
          "duration": 0.11249999999999716,
          "durationTicks": 45,
          "midi": 55,
          "name": "G3",
          "ticks": 24480,
          "time": 61.199999999999996,
          "velocity": 0.3700787401574803
        },
        {
          "duration": 0.11250000000000426,
          "durationTicks": 45,
          "midi": 74,
          "name": "D5",
          "ticks": 24600,
          "time": 61.49999999999999,
          "velocity": 0.7480314960629921
        },
        {
          "duration": 0.11250000000000426,
          "durationTicks": 45,
          "midi": 67,
          "name": "G4",
          "ticks": 24600,
          "time": 61.49999999999999,
          "velocity": 0.7480314960629921
        },
        {
          "duration": 0.11250000000000426,
          "durationTicks": 45,
          "midi": 62,
          "name": "D4",
          "ticks": 24600,
          "time": 61.49999999999999,
          "velocity": 0.3700787401574803
        },
        {
          "duration": 0.11250000000000426,
          "durationTicks": 45,
          "midi": 55,
          "name": "G3",
          "ticks": 24600,
          "time": 61.49999999999999,
          "velocity": 0.3700787401574803
        },
        {
          "duration": 0.269999999999996,
          "durationTicks": 108,
          "midi": 74,
          "name": "D5",
          "ticks": 24720,
          "time": 61.8,
          "velocity": 0.7480314960629921
        },
        {
          "duration": 0.269999999999996,
          "durationTicks": 108,
          "midi": 67,
          "name": "G4",
          "ticks": 24720,
          "time": 61.8,
          "velocity": 0.7480314960629921
        },
        {
          "duration": 0.269999999999996,
          "durationTicks": 108,
          "midi": 62,
          "name": "D4",
          "ticks": 24720,
          "time": 61.8,
          "velocity": 0.3700787401574803
        },
        {
          "duration": 0.269999999999996,
          "durationTicks": 108,
          "midi": 55,
          "name": "G3",
          "ticks": 24720,
          "time": 61.8,
          "velocity": 0.3700787401574803
        },
        {
          "duration": 0.11250000000000426,
          "durationTicks": 45,
          "midi": 76,
          "name": "E5",
          "ticks": 24900,
          "time": 62.24999999999999,
          "velocity": 0.7480314960629921
        },
        {
          "duration": 0.11250000000000426,
          "durationTicks": 45,
          "midi": 72,
          "name": "C5",
          "ticks": 24900,
          "time": 62.24999999999999,
          "velocity": 0.7480314960629921
        },
        {
          "duration": 0.11250000000000426,
          "durationTicks": 45,
          "midi": 64,
          "name": "E4",
          "ticks": 24900,
          "time": 62.24999999999999,
          "velocity": 0.3700787401574803
        },
        {
          "duration": 0.11250000000000426,
          "durationTicks": 45,
          "midi": 60,
          "name": "C4",
          "ticks": 24900,
          "time": 62.24999999999999,
          "velocity": 0.3700787401574803
        },
        {
          "duration": 0.11249999999999716,
          "durationTicks": 45,
          "midi": 76,
          "name": "E5",
          "ticks": 25020,
          "time": 62.55,
          "velocity": 0.7480314960629921
        },
        {
          "duration": 0.11249999999999716,
          "durationTicks": 45,
          "midi": 72,
          "name": "C5",
          "ticks": 25020,
          "time": 62.55,
          "velocity": 0.7480314960629921
        },
        {
          "duration": 0.11249999999999716,
          "durationTicks": 45,
          "midi": 64,
          "name": "E4",
          "ticks": 25020,
          "time": 62.55,
          "velocity": 0.3700787401574803
        },
        {
          "duration": 0.11249999999999716,
          "durationTicks": 45,
          "midi": 60,
          "name": "C4",
          "ticks": 25020,
          "time": 62.55,
          "velocity": 0.3700787401574803
        },
        {
          "duration": 0.11249999999999716,
          "durationTicks": 45,
          "midi": 76,
          "name": "E5",
          "ticks": 25140,
          "time": 62.849999999999994,
          "velocity": 0.7480314960629921
        },
        {
          "duration": 0.11249999999999716,
          "durationTicks": 45,
          "midi": 72,
          "name": "C5",
          "ticks": 25140,
          "time": 62.849999999999994,
          "velocity": 0.7480314960629921
        },
        {
          "duration": 0.11249999999999716,
          "durationTicks": 45,
          "midi": 64,
          "name": "E4",
          "ticks": 25140,
          "time": 62.849999999999994,
          "velocity": 0.3700787401574803
        },
        {
          "duration": 0.11249999999999716,
          "durationTicks": 45,
          "midi": 60,
          "name": "C4",
          "ticks": 25140,
          "time": 62.849999999999994,
          "velocity": 0.3700787401574803
        },
        {
          "duration": 0.30000000000000426,
          "durationTicks": 120,
          "midi": 76,
          "name": "E5",
          "ticks": 25200,
          "time": 62.99999999999999,
          "velocity": 0.7480314960629921
        },
        {
          "duration": 0.30000000000000426,
          "durationTicks": 120,
          "midi": 72,
          "name": "C5",
          "ticks": 25200,
          "time": 62.99999999999999,
          "velocity": 0.7480314960629921
        },
        {
          "duration": 0.30000000000000426,
          "durationTicks": 120,
          "midi": 64,
          "name": "E4",
          "ticks": 25200,
          "time": 62.99999999999999,
          "velocity": 0.3700787401574803
        },
        {
          "duration": 0.30000000000000426,
          "durationTicks": 120,
          "midi": 60,
          "name": "C4",
          "ticks": 25200,
          "time": 62.99999999999999,
          "velocity": 0.3700787401574803
        },
        {
          "duration": 0.11249999999999716,
          "durationTicks": 45,
          "midi": 74,
          "name": "D5",
          "ticks": 25440,
          "time": 63.599999999999994,
          "velocity": 0.7480314960629921
        },
        {
          "duration": 0.11249999999999716,
          "durationTicks": 45,
          "midi": 67,
          "name": "G4",
          "ticks": 25440,
          "time": 63.599999999999994,
          "velocity": 0.7480314960629921
        },
        {
          "duration": 0.11249999999999716,
          "durationTicks": 45,
          "midi": 62,
          "name": "D4",
          "ticks": 25440,
          "time": 63.599999999999994,
          "velocity": 0.3700787401574803
        },
        {
          "duration": 0.11249999999999716,
          "durationTicks": 45,
          "midi": 55,
          "name": "G3",
          "ticks": 25440,
          "time": 63.599999999999994,
          "velocity": 0.3700787401574803
        },
        {
          "duration": 0.11249999999999716,
          "durationTicks": 45,
          "midi": 74,
          "name": "D5",
          "ticks": 25560,
          "time": 63.89999999999999,
          "velocity": 0.7480314960629921
        },
        {
          "duration": 0.11249999999999716,
          "durationTicks": 45,
          "midi": 67,
          "name": "G4",
          "ticks": 25560,
          "time": 63.89999999999999,
          "velocity": 0.7480314960629921
        },
        {
          "duration": 0.11249999999999716,
          "durationTicks": 45,
          "midi": 62,
          "name": "D4",
          "ticks": 25560,
          "time": 63.89999999999999,
          "velocity": 0.3700787401574803
        },
        {
          "duration": 0.11249999999999716,
          "durationTicks": 45,
          "midi": 55,
          "name": "G3",
          "ticks": 25560,
          "time": 63.89999999999999,
          "velocity": 0.3700787401574803
        },
        {
          "duration": 0.27000000000001023,
          "durationTicks": 108,
          "midi": 74,
          "name": "D5",
          "ticks": 25680,
          "time": 64.19999999999999,
          "velocity": 0.7480314960629921
        },
        {
          "duration": 0.27000000000001023,
          "durationTicks": 108,
          "midi": 67,
          "name": "G4",
          "ticks": 25680,
          "time": 64.19999999999999,
          "velocity": 0.7480314960629921
        },
        {
          "duration": 0.27000000000001023,
          "durationTicks": 108,
          "midi": 62,
          "name": "D4",
          "ticks": 25680,
          "time": 64.19999999999999,
          "velocity": 0.3700787401574803
        },
        {
          "duration": 0.27000000000001023,
          "durationTicks": 108,
          "midi": 55,
          "name": "G3",
          "ticks": 25680,
          "time": 64.19999999999999,
          "velocity": 0.3700787401574803
        },
        {
          "duration": 0.11249999999999716,
          "durationTicks": 45,
          "midi": 76,
          "name": "E5",
          "ticks": 25860,
          "time": 64.64999999999999,
          "velocity": 0.7480314960629921
        },
        {
          "duration": 0.11249999999999716,
          "durationTicks": 45,
          "midi": 72,
          "name": "C5",
          "ticks": 25860,
          "time": 64.64999999999999,
          "velocity": 0.7480314960629921
        },
        {
          "duration": 0.11249999999999716,
          "durationTicks": 45,
          "midi": 64,
          "name": "E4",
          "ticks": 25860,
          "time": 64.64999999999999,
          "velocity": 0.3700787401574803
        },
        {
          "duration": 0.11249999999999716,
          "durationTicks": 45,
          "midi": 60,
          "name": "C4",
          "ticks": 25860,
          "time": 64.64999999999999,
          "velocity": 0.3700787401574803
        },
        {
          "duration": 0.11250000000001137,
          "durationTicks": 45,
          "midi": 76,
          "name": "E5",
          "ticks": 25980,
          "time": 64.94999999999999,
          "velocity": 0.7480314960629921
        },
        {
          "duration": 0.11250000000001137,
          "durationTicks": 45,
          "midi": 72,
          "name": "C5",
          "ticks": 25980,
          "time": 64.94999999999999,
          "velocity": 0.7480314960629921
        },
        {
          "duration": 0.11250000000001137,
          "durationTicks": 45,
          "midi": 64,
          "name": "E4",
          "ticks": 25980,
          "time": 64.94999999999999,
          "velocity": 0.3700787401574803
        },
        {
          "duration": 0.11250000000001137,
          "durationTicks": 45,
          "midi": 60,
          "name": "C4",
          "ticks": 25980,
          "time": 64.94999999999999,
          "velocity": 0.3700787401574803
        },
        {
          "duration": 0.11249999999999716,
          "durationTicks": 45,
          "midi": 76,
          "name": "E5",
          "ticks": 26100,
          "time": 65.25,
          "velocity": 0.7480314960629921
        },
        {
          "duration": 0.11249999999999716,
          "durationTicks": 45,
          "midi": 72,
          "name": "C5",
          "ticks": 26100,
          "time": 65.25,
          "velocity": 0.7480314960629921
        },
        {
          "duration": 0.11249999999999716,
          "durationTicks": 45,
          "midi": 64,
          "name": "E4",
          "ticks": 26100,
          "time": 65.25,
          "velocity": 0.3700787401574803
        },
        {
          "duration": 0.11249999999999716,
          "durationTicks": 45,
          "midi": 60,
          "name": "C4",
          "ticks": 26100,
          "time": 65.25,
          "velocity": 0.3700787401574803
        },
        {
          "duration": 0.29999999999999716,
          "durationTicks": 120,
          "midi": 76,
          "name": "E5",
          "ticks": 26160,
          "time": 65.39999999999999,
          "velocity": 0.7480314960629921
        },
        {
          "duration": 0.29999999999999716,
          "durationTicks": 120,
          "midi": 72,
          "name": "C5",
          "ticks": 26160,
          "time": 65.39999999999999,
          "velocity": 0.7480314960629921
        },
        {
          "duration": 0.29999999999999716,
          "durationTicks": 120,
          "midi": 64,
          "name": "E4",
          "ticks": 26160,
          "time": 65.39999999999999,
          "velocity": 0.3700787401574803
        },
        {
          "duration": 0.29999999999999716,
          "durationTicks": 120,
          "midi": 60,
          "name": "C4",
          "ticks": 26160,
          "time": 65.39999999999999,
          "velocity": 0.3700787401574803
        },
        {
          "duration": 0.11249999999999716,
          "durationTicks": 45,
          "midi": 76,
          "name": "E5",
          "ticks": 26400,
          "time": 66,
          "velocity": 0.7480314960629921
        },
        {
          "duration": 0.11249999999999716,
          "durationTicks": 45,
          "midi": 69,
          "name": "A4",
          "ticks": 26400,
          "time": 66,
          "velocity": 0.7480314960629921
        },
        {
          "duration": 0.11249999999999716,
          "durationTicks": 45,
          "midi": 64,
          "name": "E4",
          "ticks": 26400,
          "time": 66,
          "velocity": 0.3700787401574803
        },
        {
          "duration": 0.11249999999999716,
          "durationTicks": 45,
          "midi": 57,
          "name": "A3",
          "ticks": 26400,
          "time": 66,
          "velocity": 0.3700787401574803
        },
        {
          "duration": 0.11249999999999716,
          "durationTicks": 45,
          "midi": 76,
          "name": "E5",
          "ticks": 26520,
          "time": 66.3,
          "velocity": 0.7480314960629921
        },
        {
          "duration": 0.11249999999999716,
          "durationTicks": 45,
          "midi": 69,
          "name": "A4",
          "ticks": 26520,
          "time": 66.3,
          "velocity": 0.7480314960629921
        },
        {
          "duration": 0.11249999999999716,
          "durationTicks": 45,
          "midi": 64,
          "name": "E4",
          "ticks": 26520,
          "time": 66.3,
          "velocity": 0.3700787401574803
        },
        {
          "duration": 0.11249999999999716,
          "durationTicks": 45,
          "midi": 57,
          "name": "A3",
          "ticks": 26520,
          "time": 66.3,
          "velocity": 0.3700787401574803
        },
        {
          "duration": 0.269999999999996,
          "durationTicks": 108,
          "midi": 76,
          "name": "E5",
          "ticks": 26640,
          "time": 66.6,
          "velocity": 0.7480314960629921
        },
        {
          "duration": 0.269999999999996,
          "durationTicks": 108,
          "midi": 69,
          "name": "A4",
          "ticks": 26640,
          "time": 66.6,
          "velocity": 0.7480314960629921
        },
        {
          "duration": 0.269999999999996,
          "durationTicks": 108,
          "midi": 64,
          "name": "E4",
          "ticks": 26640,
          "time": 66.6,
          "velocity": 0.3700787401574803
        },
        {
          "duration": 0.269999999999996,
          "durationTicks": 108,
          "midi": 57,
          "name": "A3",
          "ticks": 26640,
          "time": 66.6,
          "velocity": 0.3700787401574803
        },
        {
          "duration": 0.11249999999999716,
          "durationTicks": 45,
          "midi": 78,
          "name": "F#5",
          "ticks": 26820,
          "time": 67.05,
          "velocity": 0.7480314960629921
        },
        {
          "duration": 0.11249999999999716,
          "durationTicks": 45,
          "midi": 74,
          "name": "D5",
          "ticks": 26820,
          "time": 67.05,
          "velocity": 0.7480314960629921
        },
        {
          "duration": 0.11249999999999716,
          "durationTicks": 45,
          "midi": 66,
          "name": "F#4",
          "ticks": 26820,
          "time": 67.05,
          "velocity": 0.3700787401574803
        },
        {
          "duration": 0.11249999999999716,
          "durationTicks": 45,
          "midi": 62,
          "name": "D4",
          "ticks": 26820,
          "time": 67.05,
          "velocity": 0.3700787401574803
        },
        {
          "duration": 0.11249999999999716,
          "durationTicks": 45,
          "midi": 78,
          "name": "F#5",
          "ticks": 26940,
          "time": 67.35,
          "velocity": 0.7480314960629921
        },
        {
          "duration": 0.11249999999999716,
          "durationTicks": 45,
          "midi": 74,
          "name": "D5",
          "ticks": 26940,
          "time": 67.35,
          "velocity": 0.7480314960629921
        },
        {
          "duration": 0.11249999999999716,
          "durationTicks": 45,
          "midi": 66,
          "name": "F#4",
          "ticks": 26940,
          "time": 67.35,
          "velocity": 0.3700787401574803
        },
        {
          "duration": 0.11249999999999716,
          "durationTicks": 45,
          "midi": 62,
          "name": "D4",
          "ticks": 26940,
          "time": 67.35,
          "velocity": 0.3700787401574803
        },
        {
          "duration": 0.11249999999999716,
          "durationTicks": 45,
          "midi": 78,
          "name": "F#5",
          "ticks": 27060,
          "time": 67.64999999999999,
          "velocity": 0.7480314960629921
        },
        {
          "duration": 0.11249999999999716,
          "durationTicks": 45,
          "midi": 74,
          "name": "D5",
          "ticks": 27060,
          "time": 67.64999999999999,
          "velocity": 0.7480314960629921
        },
        {
          "duration": 0.11249999999999716,
          "durationTicks": 45,
          "midi": 66,
          "name": "F#4",
          "ticks": 27060,
          "time": 67.64999999999999,
          "velocity": 0.3700787401574803
        },
        {
          "duration": 0.11249999999999716,
          "durationTicks": 45,
          "midi": 62,
          "name": "D4",
          "ticks": 27060,
          "time": 67.64999999999999,
          "velocity": 0.3700787401574803
        },
        {
          "duration": 0.29999999999999716,
          "durationTicks": 120,
          "midi": 78,
          "name": "F#5",
          "ticks": 27120,
          "time": 67.8,
          "velocity": 0.7480314960629921
        },
        {
          "duration": 0.29999999999999716,
          "durationTicks": 120,
          "midi": 74,
          "name": "D5",
          "ticks": 27120,
          "time": 67.8,
          "velocity": 0.7480314960629921
        },
        {
          "duration": 0.29999999999999716,
          "durationTicks": 120,
          "midi": 66,
          "name": "F#4",
          "ticks": 27120,
          "time": 67.8,
          "velocity": 0.3700787401574803
        },
        {
          "duration": 0.29999999999999716,
          "durationTicks": 120,
          "midi": 62,
          "name": "D4",
          "ticks": 27120,
          "time": 67.8,
          "velocity": 0.3700787401574803
        },
        {
          "duration": 0.11249999999999716,
          "durationTicks": 45,
          "midi": 76,
          "name": "E5",
          "ticks": 27360,
          "time": 68.39999999999999,
          "velocity": 0.7480314960629921
        },
        {
          "duration": 0.11249999999999716,
          "durationTicks": 45,
          "midi": 69,
          "name": "A4",
          "ticks": 27360,
          "time": 68.39999999999999,
          "velocity": 0.7480314960629921
        },
        {
          "duration": 0.11249999999999716,
          "durationTicks": 45,
          "midi": 64,
          "name": "E4",
          "ticks": 27360,
          "time": 68.39999999999999,
          "velocity": 0.3700787401574803
        },
        {
          "duration": 0.11249999999999716,
          "durationTicks": 45,
          "midi": 57,
          "name": "A3",
          "ticks": 27360,
          "time": 68.39999999999999,
          "velocity": 0.3700787401574803
        },
        {
          "duration": 0.11250000000001137,
          "durationTicks": 45,
          "midi": 76,
          "name": "E5",
          "ticks": 27480,
          "time": 68.69999999999999,
          "velocity": 0.7480314960629921
        },
        {
          "duration": 0.11250000000001137,
          "durationTicks": 45,
          "midi": 69,
          "name": "A4",
          "ticks": 27480,
          "time": 68.69999999999999,
          "velocity": 0.7480314960629921
        },
        {
          "duration": 0.11250000000001137,
          "durationTicks": 45,
          "midi": 64,
          "name": "E4",
          "ticks": 27480,
          "time": 68.69999999999999,
          "velocity": 0.3700787401574803
        },
        {
          "duration": 0.11250000000001137,
          "durationTicks": 45,
          "midi": 57,
          "name": "A3",
          "ticks": 27480,
          "time": 68.69999999999999,
          "velocity": 0.3700787401574803
        },
        {
          "duration": 0.269999999999996,
          "durationTicks": 108,
          "midi": 76,
          "name": "E5",
          "ticks": 27600,
          "time": 69,
          "velocity": 0.7480314960629921
        },
        {
          "duration": 0.269999999999996,
          "durationTicks": 108,
          "midi": 69,
          "name": "A4",
          "ticks": 27600,
          "time": 69,
          "velocity": 0.7480314960629921
        },
        {
          "duration": 0.269999999999996,
          "durationTicks": 108,
          "midi": 64,
          "name": "E4",
          "ticks": 27600,
          "time": 69,
          "velocity": 0.3700787401574803
        },
        {
          "duration": 0.269999999999996,
          "durationTicks": 108,
          "midi": 57,
          "name": "A3",
          "ticks": 27600,
          "time": 69,
          "velocity": 0.3700787401574803
        },
        {
          "duration": 0.11250000000001137,
          "durationTicks": 45,
          "midi": 78,
          "name": "F#5",
          "ticks": 27780,
          "time": 69.44999999999999,
          "velocity": 0.7480314960629921
        },
        {
          "duration": 0.11250000000001137,
          "durationTicks": 45,
          "midi": 74,
          "name": "D5",
          "ticks": 27780,
          "time": 69.44999999999999,
          "velocity": 0.7480314960629921
        },
        {
          "duration": 0.11250000000001137,
          "durationTicks": 45,
          "midi": 66,
          "name": "F#4",
          "ticks": 27780,
          "time": 69.44999999999999,
          "velocity": 0.3700787401574803
        },
        {
          "duration": 0.11250000000001137,
          "durationTicks": 45,
          "midi": 62,
          "name": "D4",
          "ticks": 27780,
          "time": 69.44999999999999,
          "velocity": 0.3700787401574803
        },
        {
          "duration": 0.11249999999999716,
          "durationTicks": 45,
          "midi": 78,
          "name": "F#5",
          "ticks": 27900,
          "time": 69.75,
          "velocity": 0.7480314960629921
        },
        {
          "duration": 0.11249999999999716,
          "durationTicks": 45,
          "midi": 74,
          "name": "D5",
          "ticks": 27900,
          "time": 69.75,
          "velocity": 0.7480314960629921
        },
        {
          "duration": 0.11249999999999716,
          "durationTicks": 45,
          "midi": 66,
          "name": "F#4",
          "ticks": 27900,
          "time": 69.75,
          "velocity": 0.3700787401574803
        },
        {
          "duration": 0.11249999999999716,
          "durationTicks": 45,
          "midi": 62,
          "name": "D4",
          "ticks": 27900,
          "time": 69.75,
          "velocity": 0.3700787401574803
        },
        {
          "duration": 0.11249999999999716,
          "durationTicks": 45,
          "midi": 78,
          "name": "F#5",
          "ticks": 28020,
          "time": 70.05,
          "velocity": 0.7480314960629921
        },
        {
          "duration": 0.11249999999999716,
          "durationTicks": 45,
          "midi": 74,
          "name": "D5",
          "ticks": 28020,
          "time": 70.05,
          "velocity": 0.7480314960629921
        },
        {
          "duration": 0.11249999999999716,
          "durationTicks": 45,
          "midi": 66,
          "name": "F#4",
          "ticks": 28020,
          "time": 70.05,
          "velocity": 0.3700787401574803
        },
        {
          "duration": 0.11249999999999716,
          "durationTicks": 45,
          "midi": 62,
          "name": "D4",
          "ticks": 28020,
          "time": 70.05,
          "velocity": 0.3700787401574803
        },
        {
          "duration": 0.30000000000001137,
          "durationTicks": 120,
          "midi": 78,
          "name": "F#5",
          "ticks": 28080,
          "time": 70.19999999999999,
          "velocity": 0.7480314960629921
        },
        {
          "duration": 0.30000000000001137,
          "durationTicks": 120,
          "midi": 74,
          "name": "D5",
          "ticks": 28080,
          "time": 70.19999999999999,
          "velocity": 0.7480314960629921
        },
        {
          "duration": 0.30000000000001137,
          "durationTicks": 120,
          "midi": 66,
          "name": "F#4",
          "ticks": 28080,
          "time": 70.19999999999999,
          "velocity": 0.3700787401574803
        },
        {
          "duration": 0.30000000000001137,
          "durationTicks": 120,
          "midi": 62,
          "name": "D4",
          "ticks": 28080,
          "time": 70.19999999999999,
          "velocity": 0.3700787401574803
        },
        {
          "duration": 0.29999999999999716,
          "durationTicks": 120,
          "midi": 71,
          "name": "B4",
          "ticks": 28320,
          "time": 70.8,
          "velocity": 0.7480314960629921
        },
        {
          "duration": 0.29999999999999716,
          "durationTicks": 120,
          "midi": 67,
          "name": "G4",
          "ticks": 28320,
          "time": 70.8,
          "velocity": 0.7480314960629921
        },
        {
          "duration": 0.29999999999999716,
          "durationTicks": 120,
          "midi": 59,
          "name": "B3",
          "ticks": 28320,
          "time": 70.8,
          "velocity": 0.3700787401574803
        },
        {
          "duration": 0.29999999999999716,
          "durationTicks": 120,
          "midi": 55,
          "name": "G3",
          "ticks": 28320,
          "time": 70.8,
          "velocity": 0.3700787401574803
        }
      ]
    }
  ]
}
