{
  "header": {
    "keySignatures": [
      {
        "key": "G",
        "scale": "major",
        "ticks": 0
      },
      {
        "key": "G",
        "scale": "major",
        "ticks": 0
      }
    ],
    "meta": [],
    "name": "Piano\u0000",
    "ppq": 480,
    "tempos": [
      {
        "bpm": 93.00004185001883,
        "ticks": 0
      }
    ],
    "timeSignatures": [
      {
        "ticks": 0,
        "timeSignature": [
          4,
          4
        ],
        "measures": 0
      }
    ]
  },
  "tracks": [
    {
      "channel": 0,
      "controlChanges": {
        "7": [
          {
            "number": 7,
            "ticks": 0,
            "time": 0,
            "value": 0.7874015748031497
          }
        ],
        "10": [
          {
            "number": 10,
            "ticks": 0,
            "time": 0,
            "value": 0.5039370078740157
          }
        ],
        "91": [
          {
            "number": 91,
            "ticks": 0,
            "time": 0,
            "value": 0
          }
        ],
        "93": [
          {
            "number": 93,
            "ticks": 0,
            "time": 0,
            "value": 0
          }
        ],
        "121": [
          {
            "number": 121,
            "ticks": 0,
            "time": 0,
            "value": 0
          }
        ]
      },
      "pitchBends": [],
      "instrument": {
        "family": "piano",
        "number": 0,
        "name": "acoustic grand piano"
      },
      "name": "Piano\u0000",
      "notes": [
        {
          "duration": 0.07930103958333333,
          "durationTicks": 59,
          "midi": 59,
          "name": "B3",
          "ticks": 0,
          "time": 0,
          "velocity": 0.6299212598425197
        },
        {
          "duration": 0.07930103958333333,
          "durationTicks": 59,
          "midi": 62,
          "name": "D4",
          "ticks": 0,
          "time": 0,
          "velocity": 0.6299212598425197
        },
        {
          "duration": 0.07930103958333333,
          "durationTicks": 59,
          "midi": 67,
          "name": "G4",
          "ticks": 0,
          "time": 0,
          "velocity": 0.6299212598425197
        },
        {
          "duration": 0.45833312708333335,
          "durationTicks": 341,
          "midi": 59,
          "name": "B3",
          "ticks": 240,
          "time": 0.3225805,
          "velocity": 0.6299212598425197
        },
        {
          "duration": 0.45833312708333335,
          "durationTicks": 341,
          "midi": 62,
          "name": "D4",
          "ticks": 240,
          "time": 0.3225805,
          "velocity": 0.6299212598425197
        },
        {
          "duration": 0.45833312708333335,
          "durationTicks": 341,
          "midi": 67,
          "name": "G4",
          "ticks": 240,
          "time": 0.3225805,
          "velocity": 0.6299212598425197
        },
        {
          "duration": 0.4583331270833334,
          "durationTicks": 341,
          "midi": 59,
          "name": "B3",
          "ticks": 600,
          "time": 0.80645125,
          "velocity": 0.6299212598425197
        },
        {
          "duration": 0.4583331270833334,
          "durationTicks": 341,
          "midi": 62,
          "name": "D4",
          "ticks": 600,
          "time": 0.80645125,
          "velocity": 0.6299212598425197
        },
        {
          "duration": 0.4583331270833334,
          "durationTicks": 341,
          "midi": 67,
          "name": "G4",
          "ticks": 600,
          "time": 0.80645125,
          "velocity": 0.6299212598425197
        },
        {
          "duration": 0.07930103958333334,
          "durationTicks": 59,
          "midi": 59,
          "name": "B3",
          "ticks": 960,
          "time": 1.290322,
          "velocity": 0.6299212598425197
        },
        {
          "duration": 0.07930103958333334,
          "durationTicks": 59,
          "midi": 62,
          "name": "D4",
          "ticks": 960,
          "time": 1.290322,
          "velocity": 0.6299212598425197
        },
        {
          "duration": 0.07930103958333334,
          "durationTicks": 59,
          "midi": 67,
          "name": "G4",
          "ticks": 960,
          "time": 1.290322,
          "velocity": 0.6299212598425197
        },
        {
          "duration": 0.3051073895833336,
          "durationTicks": 227,
          "midi": 59,
          "name": "B3",
          "ticks": 1200,
          "time": 1.6129025,
          "velocity": 0.6299212598425197
        },
        {
          "duration": 0.3051073895833336,
          "durationTicks": 227,
          "midi": 62,
          "name": "D4",
          "ticks": 1200,
          "time": 1.6129025,
          "velocity": 0.6299212598425197
        },
        {
          "duration": 0.3051073895833336,
          "durationTicks": 227,
          "midi": 67,
          "name": "G4",
          "ticks": 1200,
          "time": 1.6129025,
          "velocity": 0.6299212598425197
        },
        {
          "duration": 0.30510738958333317,
          "durationTicks": 227,
          "midi": 59,
          "name": "B3",
          "ticks": 1560,
          "time": 2.09677325,
          "velocity": 0.6299212598425197
        },
        {
          "duration": 0.30510738958333317,
          "durationTicks": 227,
          "midi": 62,
          "name": "D4",
          "ticks": 1560,
          "time": 2.09677325,
          "velocity": 0.6299212598425197
        },
        {
          "duration": 0.30510738958333317,
          "durationTicks": 227,
          "midi": 67,
          "name": "G4",
          "ticks": 1560,
          "time": 2.09677325,
          "velocity": 0.6299212598425197
        },
        {
          "duration": 0.07930103958333357,
          "durationTicks": 59,
          "midi": 62,
          "name": "D4",
          "ticks": 1800,
          "time": 2.41935375,
          "velocity": 0.6299212598425197
        },
        {
          "duration": 0.07930103958333357,
          "durationTicks": 59,
          "midi": 69,
          "name": "A4",
          "ticks": 1800,
          "time": 2.41935375,
          "velocity": 0.6299212598425197
        },
        {
          "duration": 0.4583331270833333,
          "durationTicks": 341,
          "midi": 62,
          "name": "D4",
          "ticks": 2160,
          "time": 2.9032245,
          "velocity": 0.6299212598425197
        },
        {
          "duration": 0.4583331270833333,
          "durationTicks": 341,
          "midi": 69,
          "name": "A4",
          "ticks": 2160,
          "time": 2.9032245,
          "velocity": 0.6299212598425197
        },
        {
          "duration": 0.30510738958333317,
          "durationTicks": 227,
          "midi": 62,
          "name": "D4",
          "ticks": 2520,
          "time": 3.38709525,
          "velocity": 0.6299212598425197
        },
        {
          "duration": 0.30510738958333317,
          "durationTicks": 227,
          "midi": 69,
          "name": "A4",
          "ticks": 2520,
          "time": 3.38709525,
          "velocity": 0.6299212598425197
        },
        {
          "duration": 0.07930103958333357,
          "durationTicks": 59,
          "midi": 63,
          "name": "D#4",
          "ticks": 2760,
          "time": 3.7096757499999997,
          "velocity": 0.6299212598425197
        },
        {
          "duration": 0.07930103958333357,
          "durationTicks": 59,
          "midi": 66,
          "name": "F#4",
          "ticks": 2760,
          "time": 3.7096757499999997,
          "velocity": 0.6299212598425197
        },
        {
          "duration": 0.07930103958333357,
          "durationTicks": 59,
          "midi": 69,
          "name": "A4",
          "ticks": 2760,
          "time": 3.7096757499999997,
          "velocity": 0.6299212598425197
        },
        {
          "duration": 0.07930103958333401,
          "durationTicks": 59,
          "midi": 63,
          "name": "D#4",
          "ticks": 3000,
          "time": 4.03225625,
          "velocity": 0.6299212598425197
        },
        {
          "duration": 0.07930103958333401,
          "durationTicks": 59,
          "midi": 66,
          "name": "F#4",
          "ticks": 3000,
          "time": 4.03225625,
          "velocity": 0.6299212598425197
        },
        {
          "duration": 0.07930103958333401,
          "durationTicks": 59,
          "midi": 69,
          "name": "A4",
          "ticks": 3000,
          "time": 4.03225625,
          "velocity": 0.6299212598425197
        },
        {
          "duration": 0.45833312708333285,
          "durationTicks": 341,
          "midi": 63,
          "name": "D#4",
          "ticks": 3120,
          "time": 4.1935465,
          "velocity": 0.6299212598425197
        },
        {
          "duration": 0.45833312708333285,
          "durationTicks": 341,
          "midi": 66,
          "name": "F#4",
          "ticks": 3120,
          "time": 4.1935465,
          "velocity": 0.6299212598425197
        },
        {
          "duration": 0.45833312708333285,
          "durationTicks": 341,
          "midi": 69,
          "name": "A4",
          "ticks": 3120,
          "time": 4.1935465,
          "velocity": 0.6299212598425197
        },
        {
          "duration": 0.45833312708333374,
          "durationTicks": 341,
          "midi": 63,
          "name": "D#4",
          "ticks": 3480,
          "time": 4.6774172499999995,
          "velocity": 0.6299212598425197
        },
        {
          "duration": 0.45833312708333374,
          "durationTicks": 341,
          "midi": 66,
          "name": "F#4",
          "ticks": 3480,
          "time": 4.6774172499999995,
          "velocity": 0.6299212598425197
        },
        {
          "duration": 0.45833312708333374,
          "durationTicks": 341,
          "midi": 69,
          "name": "A4",
          "ticks": 3480,
          "time": 4.6774172499999995,
          "velocity": 0.6299212598425197
        },
        {
          "duration": 0.45833312708333374,
          "durationTicks": 341,
          "midi": 62,
          "name": "D4",
          "ticks": 4080,
          "time": 5.4838685,
          "velocity": 0.6299212598425197
        },
        {
          "duration": 0.45833312708333374,
          "durationTicks": 341,
          "midi": 67,
          "name": "G4",
          "ticks": 4080,
          "time": 5.4838685,
          "velocity": 0.6299212598425197
        },
        {
          "duration": 0.45833312708333374,
          "durationTicks": 341,
          "midi": 62,
          "name": "D4",
          "ticks": 4440,
          "time": 5.96773925,
          "velocity": 0.6299212598425197
        },
        {
          "duration": 0.45833312708333374,
          "durationTicks": 341,
          "midi": 67,
          "name": "G4",
          "ticks": 4440,
          "time": 5.96773925,
          "velocity": 0.6299212598425197
        },
        {
          "duration": 0.45833312708333374,
          "durationTicks": 341,
          "midi": 62,
          "name": "D4",
          "ticks": 5040,
          "time": 6.7741905,
          "velocity": 0.6299212598425197
        },
        {
          "duration": 0.45833312708333374,
          "durationTicks": 341,
          "midi": 67,
          "name": "G4",
          "ticks": 5040,
          "time": 6.7741905,
          "velocity": 0.6299212598425197
        },
        {
          "duration": 0.45833312708333374,
          "durationTicks": 341,
          "midi": 61,
          "name": "C#4",
          "ticks": 5400,
          "time": 7.25806125,
          "velocity": 0.6299212598425197
        },
        {
          "duration": 0.45833312708333374,
          "durationTicks": 341,
          "midi": 66,
          "name": "F#4",
          "ticks": 5400,
          "time": 7.25806125,
          "velocity": 0.6299212598425197
        },
        {
          "duration": 0.45833312708333374,
          "durationTicks": 341,
          "midi": 60,
          "name": "C4",
          "ticks": 6000,
          "time": 8.0645125,
          "velocity": 0.6299212598425197
        },
        {
          "duration": 0.45833312708333374,
          "durationTicks": 341,
          "midi": 65,
          "name": "F4",
          "ticks": 6000,
          "time": 8.0645125,
          "velocity": 0.6299212598425197
        },
        {
          "duration": 0.3051073895833323,
          "durationTicks": 227,
          "midi": 60,
          "name": "C4",
          "ticks": 6360,
          "time": 8.54838325,
          "velocity": 0.6299212598425197
        },
        {
          "duration": 0.3051073895833323,
          "durationTicks": 227,
          "midi": 65,
          "name": "F4",
          "ticks": 6360,
          "time": 8.54838325,
          "velocity": 0.6299212598425197
        },
        {
          "duration": 0.07930103958333312,
          "durationTicks": 59,
          "midi": 59,
          "name": "B3",
          "ticks": 6600,
          "time": 8.87096375,
          "velocity": 0.6299212598425197
        },
        {
          "duration": 0.07930103958333312,
          "durationTicks": 59,
          "midi": 64,
          "name": "E4",
          "ticks": 6600,
          "time": 8.87096375,
          "velocity": 0.6299212598425197
        },
        {
          "duration": 0.45833312708333374,
          "durationTicks": 341,
          "midi": 59,
          "name": "B3",
          "ticks": 6960,
          "time": 9.354834499999999,
          "velocity": 0.6299212598425197
        },
        {
          "duration": 0.45833312708333374,
          "durationTicks": 341,
          "midi": 64,
          "name": "E4",
          "ticks": 6960,
          "time": 9.354834499999999,
          "velocity": 0.6299212598425197
        },
        {
          "duration": 0.45833312708333374,
          "durationTicks": 341,
          "midi": 59,
          "name": "B3",
          "ticks": 7320,
          "time": 9.83870525,
          "velocity": 0.6299212598425197
        },
        {
          "duration": 0.45833312708333374,
          "durationTicks": 341,
          "midi": 64,
          "name": "E4",
          "ticks": 7320,
          "time": 9.83870525,
          "velocity": 0.6299212598425197
        },
        {
          "duration": 0.07930103958333312,
          "durationTicks": 59,
          "midi": 59,
          "name": "B3",
          "ticks": 7680,
          "time": 10.322576,
          "velocity": 0.6299212598425197
        },
        {
          "duration": 0.07930103958333312,
          "durationTicks": 59,
          "midi": 62,
          "name": "D4",
          "ticks": 7680,
          "time": 10.322576,
          "velocity": 0.6299212598425197
        },
        {
          "duration": 0.07930103958333312,
          "durationTicks": 59,
          "midi": 67,
          "name": "G4",
          "ticks": 7680,
          "time": 10.322576,
          "velocity": 0.6299212598425197
        },
        {
          "duration": 0.45833312708333196,
          "durationTicks": 341,
          "midi": 59,
          "name": "B3",
          "ticks": 7920,
          "time": 10.6451565,
          "velocity": 0.6299212598425197
        },
        {
          "duration": 0.45833312708333196,
          "durationTicks": 341,
          "midi": 62,
          "name": "D4",
          "ticks": 7920,
          "time": 10.6451565,
          "velocity": 0.6299212598425197
        },
        {
          "duration": 0.45833312708333196,
          "durationTicks": 341,
          "midi": 67,
          "name": "G4",
          "ticks": 7920,
          "time": 10.6451565,
          "velocity": 0.6299212598425197
        },
        {
          "duration": 0.45833312708333374,
          "durationTicks": 341,
          "midi": 59,
          "name": "B3",
          "ticks": 8280,
          "time": 11.12902725,
          "velocity": 0.6299212598425197
        },
        {
          "duration": 0.45833312708333374,
          "durationTicks": 341,
          "midi": 62,
          "name": "D4",
          "ticks": 8280,
          "time": 11.12902725,
          "velocity": 0.6299212598425197
        },
        {
          "duration": 0.45833312708333374,
          "durationTicks": 341,
          "midi": 67,
          "name": "G4",
          "ticks": 8280,
          "time": 11.12902725,
          "velocity": 0.6299212598425197
        },
        {
          "duration": 0.07930103958333312,
          "durationTicks": 59,
          "midi": 59,
          "name": "B3",
          "ticks": 8640,
          "time": 11.612898,
          "velocity": 0.6299212598425197
        },
        {
          "duration": 0.07930103958333312,
          "durationTicks": 59,
          "midi": 62,
          "name": "D4",
          "ticks": 8640,
          "time": 11.612898,
          "velocity": 0.6299212598425197
        },
        {
          "duration": 0.07930103958333312,
          "durationTicks": 59,
          "midi": 67,
          "name": "G4",
          "ticks": 8640,
          "time": 11.612898,
          "velocity": 0.6299212598425197
        },
        {
          "duration": 0.3051073895833323,
          "durationTicks": 227,
          "midi": 59,
          "name": "B3",
          "ticks": 8880,
          "time": 11.9354785,
          "velocity": 0.6299212598425197
        },
        {
          "duration": 0.3051073895833323,
          "durationTicks": 227,
          "midi": 62,
          "name": "D4",
          "ticks": 8880,
          "time": 11.9354785,
          "velocity": 0.6299212598425197
        },
        {
          "duration": 0.3051073895833323,
          "durationTicks": 227,
          "midi": 67,
          "name": "G4",
          "ticks": 8880,
          "time": 11.9354785,
          "velocity": 0.6299212598425197
        },
        {
          "duration": 0.3051073895833323,
          "durationTicks": 227,
          "midi": 59,
          "name": "B3",
          "ticks": 9240,
          "time": 12.41934925,
          "velocity": 0.6299212598425197
        },
        {
          "duration": 0.3051073895833323,
          "durationTicks": 227,
          "midi": 62,
          "name": "D4",
          "ticks": 9240,
          "time": 12.41934925,
          "velocity": 0.6299212598425197
        },
        {
          "duration": 0.3051073895833323,
          "durationTicks": 227,
          "midi": 67,
          "name": "G4",
          "ticks": 9240,
          "time": 12.41934925,
          "velocity": 0.6299212598425197
        },
        {
          "duration": 0.07930103958333312,
          "durationTicks": 59,
          "midi": 62,
          "name": "D4",
          "ticks": 9480,
          "time": 12.741929749999999,
          "velocity": 0.6299212598425197
        },
        {
          "duration": 0.07930103958333312,
          "durationTicks": 59,
          "midi": 69,
          "name": "A4",
          "ticks": 9480,
          "time": 12.741929749999999,
          "velocity": 0.6299212598425197
        },
        {
          "duration": 0.45833312708333374,
          "durationTicks": 341,
          "midi": 62,
          "name": "D4",
          "ticks": 9840,
          "time": 13.2258005,
          "velocity": 0.6299212598425197
        },
        {
          "duration": 0.45833312708333374,
          "durationTicks": 341,
          "midi": 69,
          "name": "A4",
          "ticks": 9840,
          "time": 13.2258005,
          "velocity": 0.6299212598425197
        },
        {
          "duration": 0.30510738958333405,
          "durationTicks": 227,
          "midi": 62,
          "name": "D4",
          "ticks": 10200,
          "time": 13.70967125,
          "velocity": 0.6299212598425197
        },
        {
          "duration": 0.30510738958333405,
          "durationTicks": 227,
          "midi": 69,
          "name": "A4",
          "ticks": 10200,
          "time": 13.70967125,
          "velocity": 0.6299212598425197
        },
        {
          "duration": 0.07930103958333135,
          "durationTicks": 59,
          "midi": 63,
          "name": "D#4",
          "ticks": 10440,
          "time": 14.03225175,
          "velocity": 0.6299212598425197
        },
        {
          "duration": 0.07930103958333135,
          "durationTicks": 59,
          "midi": 66,
          "name": "F#4",
          "ticks": 10440,
          "time": 14.03225175,
          "velocity": 0.6299212598425197
        },
        {
          "duration": 0.07930103958333135,
          "durationTicks": 59,
          "midi": 69,
          "name": "A4",
          "ticks": 10440,
          "time": 14.03225175,
          "velocity": 0.6299212598425197
        },
        {
          "duration": 0.07930103958333312,
          "durationTicks": 59,
          "midi": 63,
          "name": "D#4",
          "ticks": 10680,
          "time": 14.35483225,
          "velocity": 0.6299212598425197
        },
        {
          "duration": 0.07930103958333312,
          "durationTicks": 59,
          "midi": 66,
          "name": "F#4",
          "ticks": 10680,
          "time": 14.35483225,
          "velocity": 0.6299212598425197
        },
        {
          "duration": 0.07930103958333312,
          "durationTicks": 59,
          "midi": 69,
          "name": "A4",
          "ticks": 10680,
          "time": 14.35483225,
          "velocity": 0.6299212598425197
        },
        {
          "duration": 0.45833312708333374,
          "durationTicks": 341,
          "midi": 63,
          "name": "D#4",
          "ticks": 10800,
          "time": 14.5161225,
          "velocity": 0.6299212598425197
        },
        {
          "duration": 0.45833312708333374,
          "durationTicks": 341,
          "midi": 66,
          "name": "F#4",
          "ticks": 10800,
          "time": 14.5161225,
          "velocity": 0.6299212598425197
        },
        {
          "duration": 0.45833312708333374,
          "durationTicks": 341,
          "midi": 69,
          "name": "A4",
          "ticks": 10800,
          "time": 14.5161225,
          "velocity": 0.6299212598425197
        },
        {
          "duration": 0.45833312708333374,
          "durationTicks": 341,
          "midi": 63,
          "name": "D#4",
          "ticks": 11160,
          "time": 14.99999325,
          "velocity": 0.6299212598425197
        },
        {
          "duration": 0.45833312708333374,
          "durationTicks": 341,
          "midi": 66,
          "name": "F#4",
          "ticks": 11160,
          "time": 14.99999325,
          "velocity": 0.6299212598425197
        },
        {
          "duration": 0.45833312708333374,
          "durationTicks": 341,
          "midi": 69,
          "name": "A4",
          "ticks": 11160,
          "time": 14.99999325,
          "velocity": 0.6299212598425197
        },
        {
          "duration": 0.45833312708333374,
          "durationTicks": 341,
          "midi": 62,
          "name": "D4",
          "ticks": 11760,
          "time": 15.8064445,
          "velocity": 0.6299212598425197
        },
        {
          "duration": 0.45833312708333374,
          "durationTicks": 341,
          "midi": 67,
          "name": "G4",
          "ticks": 11760,
          "time": 15.8064445,
          "velocity": 0.6299212598425197
        },
        {
          "duration": 0.4583331270833355,
          "durationTicks": 341,
          "midi": 62,
          "name": "D4",
          "ticks": 12120,
          "time": 16.29031525,
          "velocity": 0.6299212598425197
        },
        {
          "duration": 0.4583331270833355,
          "durationTicks": 341,
          "midi": 67,
          "name": "G4",
          "ticks": 12120,
          "time": 16.29031525,
          "velocity": 0.6299212598425197
        },
        {
          "duration": 0.45833312708333196,
          "durationTicks": 341,
          "midi": 62,
          "name": "D4",
          "ticks": 12720,
          "time": 17.0967665,
          "velocity": 0.6299212598425197
        },
        {
          "duration": 0.45833312708333196,
          "durationTicks": 341,
          "midi": 67,
          "name": "G4",
          "ticks": 12720,
          "time": 17.0967665,
          "velocity": 0.6299212598425197
        },
        {
          "duration": 0.4583331270833355,
          "durationTicks": 341,
          "midi": 61,
          "name": "C#4",
          "ticks": 13080,
          "time": 17.58063725,
          "velocity": 0.6299212598425197
        },
        {
          "duration": 0.4583331270833355,
          "durationTicks": 341,
          "midi": 66,
          "name": "F#4",
          "ticks": 13080,
          "time": 17.58063725,
          "velocity": 0.6299212598425197
        },
        {
          "duration": 0.45833312708333196,
          "durationTicks": 341,
          "midi": 60,
          "name": "C4",
          "ticks": 13680,
          "time": 18.3870885,
          "velocity": 0.6299212598425197
        },
        {
          "duration": 0.45833312708333196,
          "durationTicks": 341,
          "midi": 65,
          "name": "F4",
          "ticks": 13680,
          "time": 18.3870885,
          "velocity": 0.6299212598425197
        },
        {
          "duration": 0.30510738958333405,
          "durationTicks": 227,
          "midi": 60,
          "name": "C4",
          "ticks": 14040,
          "time": 18.87095925,
          "velocity": 0.6299212598425197
        },
        {
          "duration": 0.30510738958333405,
          "durationTicks": 227,
          "midi": 65,
          "name": "F4",
          "ticks": 14040,
          "time": 18.87095925,
          "velocity": 0.6299212598425197
        },
        {
          "duration": 0.07930103958333135,
          "durationTicks": 59,
          "midi": 60,
          "name": "C4",
          "ticks": 14280,
          "time": 19.19353975,
          "velocity": 0.6299212598425197
        },
        {
          "duration": 0.07930103958333135,
          "durationTicks": 59,
          "midi": 65,
          "name": "F4",
          "ticks": 14280,
          "time": 19.19353975,
          "velocity": 0.6299212598425197
        },
        {
          "duration": 0.1518816520833326,
          "durationTicks": 113,
          "midi": 59,
          "name": "B3",
          "ticks": 14400,
          "time": 19.35483,
          "velocity": 0.6299212598425197
        },
        {
          "duration": 0.1518816520833326,
          "durationTicks": 113,
          "midi": 64,
          "name": "E4",
          "ticks": 14400,
          "time": 19.35483,
          "velocity": 0.6299212598425197
        },
        {
          "duration": 0.1518816520833326,
          "durationTicks": 113,
          "midi": 53,
          "name": "F3",
          "ticks": 14760,
          "time": 19.83870075,
          "velocity": 0.6299212598425197
        },
        {
          "duration": 0.1518816520833326,
          "durationTicks": 113,
          "midi": 59,
          "name": "B3",
          "ticks": 14760,
          "time": 19.83870075,
          "velocity": 0.6299212598425197
        },
        {
          "duration": 0.15188165208333615,
          "durationTicks": 113,
          "midi": 59,
          "name": "B3",
          "ticks": 14880,
          "time": 19.999990999999998,
          "velocity": 0.6299212598425197
        },
        {
          "duration": 0.15188165208333615,
          "durationTicks": 113,
          "midi": 64,
          "name": "E4",
          "ticks": 14880,
          "time": 19.999990999999998,
          "velocity": 0.6299212598425197
        },
        {
          "duration": 0.1518816520833326,
          "durationTicks": 113,
          "midi": 55,
          "name": "G3",
          "ticks": 15000,
          "time": 20.16128125,
          "velocity": 0.6299212598425197
        },
        {
          "duration": 0.1518816520833326,
          "durationTicks": 113,
          "midi": 59,
          "name": "B3",
          "ticks": 15120,
          "time": 20.3225715,
          "velocity": 0.6299212598425197
        },
        {
          "duration": 0.1518816520833326,
          "durationTicks": 113,
          "midi": 62,
          "name": "D4",
          "ticks": 15120,
          "time": 20.3225715,
          "velocity": 0.6299212598425197
        },
        {
          "duration": 0.07526878333333542,
          "durationTicks": 56,
          "midi": 65,
          "name": "F4",
          "ticks": 15240,
          "time": 20.48386175,
          "velocity": 0.6299212598425197
        },
        {
          "duration": 0.07526878333333542,
          "durationTicks": 56,
          "midi": 66,
          "name": "F#4",
          "ticks": 15300,
          "time": 20.564506875,
          "velocity": 0.6299212598425197
        },
        {
          "duration": 0.0793010395833349,
          "durationTicks": 59,
          "midi": 62,
          "name": "D4",
          "ticks": 15360,
          "time": 20.645152,
          "velocity": 0.6299212598425197
        },
        {
          "duration": 0.0793010395833349,
          "durationTicks": 59,
          "midi": 67,
          "name": "G4",
          "ticks": 15360,
          "time": 20.645152,
          "velocity": 0.6299212598425197
        },
        {
          "duration": 0.45833312708333196,
          "durationTicks": 341,
          "midi": 59,
          "name": "B3",
          "ticks": 15600,
          "time": 20.9677325,
          "velocity": 0.6299212598425197
        },
        {
          "duration": 0.45833312708333196,
          "durationTicks": 341,
          "midi": 62,
          "name": "D4",
          "ticks": 15600,
          "time": 20.9677325,
          "velocity": 0.6299212598425197
        },
        {
          "duration": 0.45833312708333196,
          "durationTicks": 341,
          "midi": 67,
          "name": "G4",
          "ticks": 15600,
          "time": 20.9677325,
          "velocity": 0.6299212598425197
        },
        {
          "duration": 0.4583331270833355,
          "durationTicks": 341,
          "midi": 59,
          "name": "B3",
          "ticks": 15960,
          "time": 21.451603249999998,
          "velocity": 0.6299212598425197
        },
        {
          "duration": 0.4583331270833355,
          "durationTicks": 341,
          "midi": 62,
          "name": "D4",
          "ticks": 15960,
          "time": 21.451603249999998,
          "velocity": 0.6299212598425197
        },
        {
          "duration": 0.4583331270833355,
          "durationTicks": 341,
          "midi": 67,
          "name": "G4",
          "ticks": 15960,
          "time": 21.451603249999998,
          "velocity": 0.6299212598425197
        },
        {
          "duration": 0.0793010395833349,
          "durationTicks": 59,
          "midi": 59,
          "name": "B3",
          "ticks": 16320,
          "time": 21.935474,
          "velocity": 0.6299212598425197
        },
        {
          "duration": 0.0793010395833349,
          "durationTicks": 59,
          "midi": 62,
          "name": "D4",
          "ticks": 16320,
          "time": 21.935474,
          "velocity": 0.6299212598425197
        },
        {
          "duration": 0.0793010395833349,
          "durationTicks": 59,
          "midi": 67,
          "name": "G4",
          "ticks": 16320,
          "time": 21.935474,
          "velocity": 0.6299212598425197
        },
        {
          "duration": 0.30510738958333405,
          "durationTicks": 227,
          "midi": 59,
          "name": "B3",
          "ticks": 16560,
          "time": 22.2580545,
          "velocity": 0.6299212598425197
        },
        {
          "duration": 0.30510738958333405,
          "durationTicks": 227,
          "midi": 62,
          "name": "D4",
          "ticks": 16560,
          "time": 22.2580545,
          "velocity": 0.6299212598425197
        },
        {
          "duration": 0.30510738958333405,
          "durationTicks": 227,
          "midi": 67,
          "name": "G4",
          "ticks": 16560,
          "time": 22.2580545,
          "velocity": 0.6299212598425197
        },
        {
          "duration": 0.3051073895833376,
          "durationTicks": 227,
          "midi": 59,
          "name": "B3",
          "ticks": 16920,
          "time": 22.741925249999998,
          "velocity": 0.6299212598425197
        },
        {
          "duration": 0.3051073895833376,
          "durationTicks": 227,
          "midi": 62,
          "name": "D4",
          "ticks": 16920,
          "time": 22.741925249999998,
          "velocity": 0.6299212598425197
        },
        {
          "duration": 0.3051073895833376,
          "durationTicks": 227,
          "midi": 67,
          "name": "G4",
          "ticks": 16920,
          "time": 22.741925249999998,
          "velocity": 0.6299212598425197
        },
        {
          "duration": 0.0793010395833349,
          "durationTicks": 59,
          "midi": 62,
          "name": "D4",
          "ticks": 17160,
          "time": 23.06450575,
          "velocity": 0.6299212598425197
        },
        {
          "duration": 0.0793010395833349,
          "durationTicks": 59,
          "midi": 69,
          "name": "A4",
          "ticks": 17160,
          "time": 23.06450575,
          "velocity": 0.6299212598425197
        },
        {
          "duration": 0.45833312708333196,
          "durationTicks": 341,
          "midi": 62,
          "name": "D4",
          "ticks": 17520,
          "time": 23.5483765,
          "velocity": 0.6299212598425197
        },
        {
          "duration": 0.45833312708333196,
          "durationTicks": 341,
          "midi": 69,
          "name": "A4",
          "ticks": 17520,
          "time": 23.5483765,
          "velocity": 0.6299212598425197
        },
        {
          "duration": 0.30510738958333405,
          "durationTicks": 227,
          "midi": 62,
          "name": "D4",
          "ticks": 17880,
          "time": 24.03224725,
          "velocity": 0.6299212598425197
        },
        {
          "duration": 0.30510738958333405,
          "durationTicks": 227,
          "midi": 69,
          "name": "A4",
          "ticks": 17880,
          "time": 24.03224725,
          "velocity": 0.6299212598425197
        },
        {
          "duration": 0.0793010395833349,
          "durationTicks": 59,
          "midi": 63,
          "name": "D#4",
          "ticks": 18120,
          "time": 24.35482775,
          "velocity": 0.6299212598425197
        },
        {
          "duration": 0.0793010395833349,
          "durationTicks": 59,
          "midi": 66,
          "name": "F#4",
          "ticks": 18120,
          "time": 24.35482775,
          "velocity": 0.6299212598425197
        },
        {
          "duration": 0.0793010395833349,
          "durationTicks": 59,
          "midi": 69,
          "name": "A4",
          "ticks": 18120,
          "time": 24.35482775,
          "velocity": 0.6299212598425197
        },
        {
          "duration": 0.1518816520833326,
          "durationTicks": 113,
          "midi": 63,
          "name": "D#4",
          "ticks": 18360,
          "time": 24.67740825,
          "velocity": 0.6299212598425197
        },
        {
          "duration": 0.1518816520833326,
          "durationTicks": 113,
          "midi": 66,
          "name": "F#4",
          "ticks": 18360,
          "time": 24.67740825,
          "velocity": 0.6299212598425197
        },
        {
          "duration": 0.1518816520833326,
          "durationTicks": 113,
          "midi": 69,
          "name": "A4",
          "ticks": 18360,
          "time": 24.67740825,
          "velocity": 0.6299212598425197
        },
        {
          "duration": 0.45833312708333196,
          "durationTicks": 341,
          "midi": 63,
          "name": "D#4",
          "ticks": 18480,
          "time": 24.8386985,
          "velocity": 0.6299212598425197
        },
        {
          "duration": 0.45833312708333196,
          "durationTicks": 341,
          "midi": 66,
          "name": "F#4",
          "ticks": 18480,
          "time": 24.8386985,
          "velocity": 0.6299212598425197
        },
        {
          "duration": 0.45833312708333196,
          "durationTicks": 341,
          "midi": 69,
          "name": "A4",
          "ticks": 18480,
          "time": 24.8386985,
          "velocity": 0.6299212598425197
        },
        {
          "duration": 0.30510738958333405,
          "durationTicks": 227,
          "midi": 63,
          "name": "D#4",
          "ticks": 18840,
          "time": 25.32256925,
          "velocity": 0.6299212598425197
        },
        {
          "duration": 0.30510738958333405,
          "durationTicks": 227,
          "midi": 66,
          "name": "F#4",
          "ticks": 18840,
          "time": 25.32256925,
          "velocity": 0.6299212598425197
        },
        {
          "duration": 0.30510738958333405,
          "durationTicks": 227,
          "midi": 69,
          "name": "A4",
          "ticks": 18840,
          "time": 25.32256925,
          "velocity": 0.6299212598425197
        },
        {
          "duration": 0.0793010395833349,
          "durationTicks": 59,
          "midi": 68,
          "name": "G#4",
          "ticks": 19080,
          "time": 25.645149749999998,
          "velocity": 0.6299212598425197
        },
        {
          "duration": 0.0793010395833349,
          "durationTicks": 59,
          "midi": 62,
          "name": "D4",
          "ticks": 19200,
          "time": 25.80644,
          "velocity": 0.6299212598425197
        },
        {
          "duration": 0.0793010395833349,
          "durationTicks": 59,
          "midi": 67,
          "name": "G4",
          "ticks": 19200,
          "time": 25.80644,
          "velocity": 0.6299212598425197
        },
        {
          "duration": 0.45833312708333196,
          "durationTicks": 341,
          "midi": 62,
          "name": "D4",
          "ticks": 19440,
          "time": 26.1290205,
          "velocity": 0.6299212598425197
        },
        {
          "duration": 0.45833312708333196,
          "durationTicks": 341,
          "midi": 67,
          "name": "G4",
          "ticks": 19440,
          "time": 26.1290205,
          "velocity": 0.6299212598425197
        },
        {
          "duration": 0.7647846020833349,
          "durationTicks": 569,
          "midi": 62,
          "name": "D4",
          "ticks": 19800,
          "time": 26.61289125,
          "velocity": 0.6299212598425197
        },
        {
          "duration": 0.7647846020833349,
          "durationTicks": 569,
          "midi": 67,
          "name": "G4",
          "ticks": 19800,
          "time": 26.61289125,
          "velocity": 0.6299212598425197
        },
        {
          "duration": 0.4583331270833355,
          "durationTicks": 341,
          "midi": 62,
          "name": "D4",
          "ticks": 20400,
          "time": 27.4193425,
          "velocity": 0.6299212598425197
        },
        {
          "duration": 0.4583331270833355,
          "durationTicks": 341,
          "midi": 67,
          "name": "G4",
          "ticks": 20400,
          "time": 27.4193425,
          "velocity": 0.6299212598425197
        },
        {
          "duration": 0.45833312708333196,
          "durationTicks": 341,
          "midi": 61,
          "name": "C#4",
          "ticks": 20760,
          "time": 27.90321325,
          "velocity": 0.6299212598425197
        },
        {
          "duration": 0.45833312708333196,
          "durationTicks": 341,
          "midi": 66,
          "name": "F#4",
          "ticks": 20760,
          "time": 27.90321325,
          "velocity": 0.6299212598425197
        },
        {
          "duration": 0.1518816520833326,
          "durationTicks": 113,
          "midi": 60,
          "name": "C4",
          "ticks": 21120,
          "time": 28.387083999999998,
          "velocity": 0.6299212598425197
        },
        {
          "duration": 0.1518816520833326,
          "durationTicks": 113,
          "midi": 65,
          "name": "F4",
          "ticks": 21120,
          "time": 28.387083999999998,
          "velocity": 0.6299212598425197
        },
        {
          "duration": 0.4583331270833355,
          "durationTicks": 341,
          "midi": 60,
          "name": "C4",
          "ticks": 21360,
          "time": 28.7096645,
          "velocity": 0.6299212598425197
        },
        {
          "duration": 0.4583331270833355,
          "durationTicks": 341,
          "midi": 65,
          "name": "F4",
          "ticks": 21360,
          "time": 28.7096645,
          "velocity": 0.6299212598425197
        },
        {
          "duration": 0.30510738958333405,
          "durationTicks": 227,
          "midi": 60,
          "name": "C4",
          "ticks": 21720,
          "time": 29.19353525,
          "velocity": 0.6299212598425197
        },
        {
          "duration": 0.30510738958333405,
          "durationTicks": 227,
          "midi": 65,
          "name": "F4",
          "ticks": 21720,
          "time": 29.19353525,
          "velocity": 0.6299212598425197
        },
        {
          "duration": 0.1518816520833326,
          "durationTicks": 113,
          "midi": 59,
          "name": "B3",
          "ticks": 21960,
          "time": 29.51611575,
          "velocity": 0.6299212598425197
        },
        {
          "duration": 0.0793010395833349,
          "durationTicks": 59,
          "midi": 59,
          "name": "B3",
          "ticks": 22080,
          "time": 29.677405999999998,
          "velocity": 0.6299212598425197
        },
        {
          "duration": 0.0793010395833349,
          "durationTicks": 59,
          "midi": 62,
          "name": "D4",
          "ticks": 22080,
          "time": 29.677405999999998,
          "velocity": 0.6299212598425197
        },
        {
          "duration": 0.0793010395833349,
          "durationTicks": 59,
          "midi": 65,
          "name": "F4",
          "ticks": 22080,
          "time": 29.677405999999998,
          "velocity": 0.6299212598425197
        },
        {
          "duration": 0.4583331270833355,
          "durationTicks": 341,
          "midi": 59,
          "name": "B3",
          "ticks": 22320,
          "time": 29.9999865,
          "velocity": 0.6299212598425197
        },
        {
          "duration": 0.4583331270833355,
          "durationTicks": 341,
          "midi": 62,
          "name": "D4",
          "ticks": 22320,
          "time": 29.9999865,
          "velocity": 0.6299212598425197
        },
        {
          "duration": 0.4583331270833355,
          "durationTicks": 341,
          "midi": 65,
          "name": "F4",
          "ticks": 22320,
          "time": 29.9999865,
          "velocity": 0.6299212598425197
        },
        {
          "duration": 0.30510738958333405,
          "durationTicks": 227,
          "midi": 59,
          "name": "B3",
          "ticks": 22680,
          "time": 30.48385725,
          "velocity": 0.6299212598425197
        },
        {
          "duration": 0.30510738958333405,
          "durationTicks": 227,
          "midi": 62,
          "name": "D4",
          "ticks": 22680,
          "time": 30.48385725,
          "velocity": 0.6299212598425197
        },
        {
          "duration": 0.30510738958333405,
          "durationTicks": 227,
          "midi": 65,
          "name": "F4",
          "ticks": 22680,
          "time": 30.48385725,
          "velocity": 0.6299212598425197
        },
        {
          "duration": 0.07526878333333187,
          "durationTicks": 56,
          "midi": 65,
          "name": "F4",
          "ticks": 22920,
          "time": 30.80643775,
          "velocity": 0.6299212598425197
        },
        {
          "duration": 0.07526878333333187,
          "durationTicks": 56,
          "midi": 66,
          "name": "F#4",
          "ticks": 22980,
          "time": 30.887082875,
          "velocity": 0.6299212598425197
        },
        {
          "duration": 0.07930103958333135,
          "durationTicks": 59,
          "midi": 62,
          "name": "D4",
          "ticks": 23040,
          "time": 30.967728,
          "velocity": 0.6299212598425197
        },
        {
          "duration": 0.07930103958333135,
          "durationTicks": 59,
          "midi": 67,
          "name": "G4",
          "ticks": 23040,
          "time": 30.967728,
          "velocity": 0.6299212598425197
        },
        {
          "duration": 0.4583331270833355,
          "durationTicks": 341,
          "midi": 59,
          "name": "B3",
          "ticks": 23280,
          "time": 31.2903085,
          "velocity": 0.6299212598425197
        },
        {
          "duration": 0.4583331270833355,
          "durationTicks": 341,
          "midi": 62,
          "name": "D4",
          "ticks": 23280,
          "time": 31.2903085,
          "velocity": 0.6299212598425197
        },
        {
          "duration": 0.4583331270833355,
          "durationTicks": 341,
          "midi": 67,
          "name": "G4",
          "ticks": 23280,
          "time": 31.2903085,
          "velocity": 0.6299212598425197
        },
        {
          "duration": 0.45833312708333196,
          "durationTicks": 341,
          "midi": 59,
          "name": "B3",
          "ticks": 23640,
          "time": 31.77417925,
          "velocity": 0.6299212598425197
        },
        {
          "duration": 0.45833312708333196,
          "durationTicks": 341,
          "midi": 62,
          "name": "D4",
          "ticks": 23640,
          "time": 31.77417925,
          "velocity": 0.6299212598425197
        },
        {
          "duration": 0.45833312708333196,
          "durationTicks": 341,
          "midi": 67,
          "name": "G4",
          "ticks": 23640,
          "time": 31.77417925,
          "velocity": 0.6299212598425197
        },
        {
          "duration": 0.0793010395833349,
          "durationTicks": 59,
          "midi": 59,
          "name": "B3",
          "ticks": 24000,
          "time": 32.25805,
          "velocity": 0.6299212598425197
        },
        {
          "duration": 0.0793010395833349,
          "durationTicks": 59,
          "midi": 62,
          "name": "D4",
          "ticks": 24000,
          "time": 32.25805,
          "velocity": 0.6299212598425197
        },
        {
          "duration": 0.0793010395833349,
          "durationTicks": 59,
          "midi": 67,
          "name": "G4",
          "ticks": 24000,
          "time": 32.25805,
          "velocity": 0.6299212598425197
        },
        {
          "duration": 0.30510738958333405,
          "durationTicks": 227,
          "midi": 59,
          "name": "B3",
          "ticks": 24240,
          "time": 32.5806305,
          "velocity": 0.6299212598425197
        },
        {
          "duration": 0.30510738958333405,
          "durationTicks": 227,
          "midi": 62,
          "name": "D4",
          "ticks": 24240,
          "time": 32.5806305,
          "velocity": 0.6299212598425197
        },
        {
          "duration": 0.30510738958333405,
          "durationTicks": 227,
          "midi": 67,
          "name": "G4",
          "ticks": 24240,
          "time": 32.5806305,
          "velocity": 0.6299212598425197
        },
        {
          "duration": 0.30510738958333405,
          "durationTicks": 227,
          "midi": 59,
          "name": "B3",
          "ticks": 24600,
          "time": 33.06450125,
          "velocity": 0.6299212598425197
        },
        {
          "duration": 0.30510738958333405,
          "durationTicks": 227,
          "midi": 62,
          "name": "D4",
          "ticks": 24600,
          "time": 33.06450125,
          "velocity": 0.6299212598425197
        },
        {
          "duration": 0.30510738958333405,
          "durationTicks": 227,
          "midi": 67,
          "name": "G4",
          "ticks": 24600,
          "time": 33.06450125,
          "velocity": 0.6299212598425197
        },
        {
          "duration": 0.0793010395833349,
          "durationTicks": 59,
          "midi": 62,
          "name": "D4",
          "ticks": 24840,
          "time": 33.38708175,
          "velocity": 0.6299212598425197
        },
        {
          "duration": 0.0793010395833349,
          "durationTicks": 59,
          "midi": 69,
          "name": "A4",
          "ticks": 24840,
          "time": 33.38708175,
          "velocity": 0.6299212598425197
        },
        {
          "duration": 0.4583331270833284,
          "durationTicks": 341,
          "midi": 62,
          "name": "D4",
          "ticks": 25200,
          "time": 33.8709525,
          "velocity": 0.6299212598425197
        },
        {
          "duration": 0.4583331270833284,
          "durationTicks": 341,
          "midi": 69,
          "name": "A4",
          "ticks": 25200,
          "time": 33.8709525,
          "velocity": 0.6299212598425197
        },
        {
          "duration": 0.30510738958333405,
          "durationTicks": 227,
          "midi": 62,
          "name": "D4",
          "ticks": 25560,
          "time": 34.35482325,
          "velocity": 0.6299212598425197
        },
        {
          "duration": 0.30510738958333405,
          "durationTicks": 227,
          "midi": 69,
          "name": "A4",
          "ticks": 25560,
          "time": 34.35482325,
          "velocity": 0.6299212598425197
        },
        {
          "duration": 0.0793010395833349,
          "durationTicks": 59,
          "midi": 63,
          "name": "D#4",
          "ticks": 25800,
          "time": 34.677403749999996,
          "velocity": 0.6299212598425197
        },
        {
          "duration": 0.0793010395833349,
          "durationTicks": 59,
          "midi": 66,
          "name": "F#4",
          "ticks": 25800,
          "time": 34.677403749999996,
          "velocity": 0.6299212598425197
        },
        {
          "duration": 0.0793010395833349,
          "durationTicks": 59,
          "midi": 69,
          "name": "A4",
          "ticks": 25800,
          "time": 34.677403749999996,
          "velocity": 0.6299212598425197
        },
        {
          "duration": 0.1518816520833326,
          "durationTicks": 113,
          "midi": 63,
          "name": "D#4",
          "ticks": 26040,
          "time": 34.99998425,
          "velocity": 0.6299212598425197
        },
        {
          "duration": 0.1518816520833326,
          "durationTicks": 113,
          "midi": 66,
          "name": "F#4",
          "ticks": 26040,
          "time": 34.99998425,
          "velocity": 0.6299212598425197
        },
        {
          "duration": 0.1518816520833326,
          "durationTicks": 113,
          "midi": 69,
          "name": "A4",
          "ticks": 26040,
          "time": 34.99998425,
          "velocity": 0.6299212598425197
        },
        {
          "duration": 0.4583331270833355,
          "durationTicks": 341,
          "midi": 63,
          "name": "D#4",
          "ticks": 26160,
          "time": 35.1612745,
          "velocity": 0.6299212598425197
        },
        {
          "duration": 0.4583331270833355,
          "durationTicks": 341,
          "midi": 66,
          "name": "F#4",
          "ticks": 26160,
          "time": 35.1612745,
          "velocity": 0.6299212598425197
        },
        {
          "duration": 0.4583331270833355,
          "durationTicks": 341,
          "midi": 69,
          "name": "A4",
          "ticks": 26160,
          "time": 35.1612745,
          "velocity": 0.6299212598425197
        },
        {
          "duration": 0.30510738958333405,
          "durationTicks": 227,
          "midi": 63,
          "name": "D#4",
          "ticks": 26520,
          "time": 35.64514525,
          "velocity": 0.6299212598425197
        },
        {
          "duration": 0.30510738958333405,
          "durationTicks": 227,
          "midi": 66,
          "name": "F#4",
          "ticks": 26520,
          "time": 35.64514525,
          "velocity": 0.6299212598425197
        },
        {
          "duration": 0.30510738958333405,
          "durationTicks": 227,
          "midi": 69,
          "name": "A4",
          "ticks": 26520,
          "time": 35.64514525,
          "velocity": 0.6299212598425197
        },
        {
          "duration": 0.0793010395833349,
          "durationTicks": 59,
          "midi": 68,
          "name": "G#4",
          "ticks": 26760,
          "time": 35.96772575,
          "velocity": 0.6299212598425197
        },
        {
          "duration": 0.0793010395833349,
          "durationTicks": 59,
          "midi": 62,
          "name": "D4",
          "ticks": 26880,
          "time": 36.129016,
          "velocity": 0.6299212598425197
        },
        {
          "duration": 0.0793010395833349,
          "durationTicks": 59,
          "midi": 67,
          "name": "G4",
          "ticks": 26880,
          "time": 36.129016,
          "velocity": 0.6299212598425197
        },
        {
          "duration": 0.4583331270833284,
          "durationTicks": 341,
          "midi": 62,
          "name": "D4",
          "ticks": 27120,
          "time": 36.4515965,
          "velocity": 0.6299212598425197
        },
        {
          "duration": 0.4583331270833284,
          "durationTicks": 341,
          "midi": 67,
          "name": "G4",
          "ticks": 27120,
          "time": 36.4515965,
          "velocity": 0.6299212598425197
        },
        {
          "duration": 0.7647846020833313,
          "durationTicks": 569,
          "midi": 62,
          "name": "D4",
          "ticks": 27480,
          "time": 36.93546725,
          "velocity": 0.6299212598425197
        },
        {
          "duration": 0.7647846020833313,
          "durationTicks": 569,
          "midi": 67,
          "name": "G4",
          "ticks": 27480,
          "time": 36.93546725,
          "velocity": 0.6299212598425197
        },
        {
          "duration": 0.4583331270833355,
          "durationTicks": 341,
          "midi": 62,
          "name": "D4",
          "ticks": 28080,
          "time": 37.7419185,
          "velocity": 0.6299212598425197
        },
        {
          "duration": 0.4583331270833355,
          "durationTicks": 341,
          "midi": 67,
          "name": "G4",
          "ticks": 28080,
          "time": 37.7419185,
          "velocity": 0.6299212598425197
        },
        {
          "duration": 0.4583331270833355,
          "durationTicks": 341,
          "midi": 61,
          "name": "C#4",
          "ticks": 28440,
          "time": 38.22578925,
          "velocity": 0.6299212598425197
        },
        {
          "duration": 0.4583331270833355,
          "durationTicks": 341,
          "midi": 66,
          "name": "F#4",
          "ticks": 28440,
          "time": 38.22578925,
          "velocity": 0.6299212598425197
        },
        {
          "duration": 0.0793010395833349,
          "durationTicks": 59,
          "midi": 60,
          "name": "C4",
          "ticks": 28800,
          "time": 38.70966,
          "velocity": 0.6299212598425197
        },
        {
          "duration": 0.0793010395833349,
          "durationTicks": 59,
          "midi": 65,
          "name": "F4",
          "ticks": 28800,
          "time": 38.70966,
          "velocity": 0.6299212598425197
        },
        {
          "duration": 0.4583331270833355,
          "durationTicks": 341,
          "midi": 60,
          "name": "C4",
          "ticks": 29040,
          "time": 39.0322405,
          "velocity": 0.6299212598425197
        },
        {
          "duration": 0.4583331270833355,
          "durationTicks": 341,
          "midi": 65,
          "name": "F4",
          "ticks": 29040,
          "time": 39.0322405,
          "velocity": 0.6299212598425197
        },
        {
          "duration": 0.30510738958333405,
          "durationTicks": 227,
          "midi": 60,
          "name": "C4",
          "ticks": 29400,
          "time": 39.51611125,
          "velocity": 0.6299212598425197
        },
        {
          "duration": 0.30510738958333405,
          "durationTicks": 227,
          "midi": 65,
          "name": "F4",
          "ticks": 29400,
          "time": 39.51611125,
          "velocity": 0.6299212598425197
        },
        {
          "duration": 0.1518816520833326,
          "durationTicks": 113,
          "midi": 59,
          "name": "B3",
          "ticks": 29640,
          "time": 39.83869175,
          "velocity": 0.6299212598425197
        },
        {
          "duration": 0.0793010395833349,
          "durationTicks": 59,
          "midi": 59,
          "name": "B3",
          "ticks": 29760,
          "time": 39.999981999999996,
          "velocity": 0.6299212598425197
        },
        {
          "duration": 0.0793010395833349,
          "durationTicks": 59,
          "midi": 62,
          "name": "D4",
          "ticks": 29760,
          "time": 39.999981999999996,
          "velocity": 0.6299212598425197
        },
        {
          "duration": 0.0793010395833349,
          "durationTicks": 59,
          "midi": 65,
          "name": "F4",
          "ticks": 29760,
          "time": 39.999981999999996,
          "velocity": 0.6299212598425197
        },
        {
          "duration": 0.4583331270833355,
          "durationTicks": 341,
          "midi": 59,
          "name": "B3",
          "ticks": 30000,
          "time": 40.3225625,
          "velocity": 0.6299212598425197
        },
        {
          "duration": 0.4583331270833355,
          "durationTicks": 341,
          "midi": 62,
          "name": "D4",
          "ticks": 30000,
          "time": 40.3225625,
          "velocity": 0.6299212598425197
        },
        {
          "duration": 0.4583331270833355,
          "durationTicks": 341,
          "midi": 65,
          "name": "F4",
          "ticks": 30000,
          "time": 40.3225625,
          "velocity": 0.6299212598425197
        },
        {
          "duration": 0.4583331270833355,
          "durationTicks": 341,
          "midi": 59,
          "name": "B3",
          "ticks": 30360,
          "time": 40.80643325,
          "velocity": 0.6299212598425197
        },
        {
          "duration": 0.4583331270833355,
          "durationTicks": 341,
          "midi": 62,
          "name": "D4",
          "ticks": 30360,
          "time": 40.80643325,
          "velocity": 0.6299212598425197
        },
        {
          "duration": 0.4583331270833355,
          "durationTicks": 341,
          "midi": 65,
          "name": "F4",
          "ticks": 30360,
          "time": 40.80643325,
          "velocity": 0.6299212598425197
        },
        {
          "duration": 0.1518816520833326,
          "durationTicks": 113,
          "midi": 86,
          "name": "D6",
          "ticks": 31080,
          "time": 41.77417475,
          "velocity": 0.6299212598425197
        },
        {
          "duration": 0.30510738958332695,
          "durationTicks": 227,
          "midi": 86,
          "name": "D6",
          "ticks": 31200,
          "time": 41.935465,
          "velocity": 0.6299212598425197
        },
        {
          "duration": 0.1518816520833326,
          "durationTicks": 113,
          "midi": 86,
          "name": "D6",
          "ticks": 31440,
          "time": 42.2580455,
          "velocity": 0.6299212598425197
        },
        {
          "duration": 0.1518816520833326,
          "durationTicks": 113,
          "midi": 86,
          "name": "D6",
          "ticks": 31560,
          "time": 42.41933575,
          "velocity": 0.6299212598425197
        },
        {
          "duration": 0.30510738958332695,
          "durationTicks": 227,
          "midi": 86,
          "name": "D6",
          "ticks": 31680,
          "time": 42.580626,
          "velocity": 0.6299212598425197
        },
        {
          "duration": 0.1518816520833326,
          "durationTicks": 113,
          "midi": 86,
          "name": "D6",
          "ticks": 31920,
          "time": 42.903206499999996,
          "velocity": 0.6299212598425197
        },
        {
          "duration": 0.30510738958333405,
          "durationTicks": 227,
          "midi": 86,
          "name": "D6",
          "ticks": 32040,
          "time": 43.064496749999996,
          "velocity": 0.6299212598425197
        },
        {
          "duration": 0.1518816520833326,
          "durationTicks": 113,
          "midi": 86,
          "name": "D6",
          "ticks": 32280,
          "time": 43.38707725,
          "velocity": 0.6299212598425197
        },
        {
          "duration": 0.1518816520833326,
          "durationTicks": 113,
          "midi": 86,
          "name": "D6",
          "ticks": 32400,
          "time": 43.5483675,
          "velocity": 0.6299212598425197
        },
        {
          "duration": 0.1518816520833326,
          "durationTicks": 113,
          "midi": 86,
          "name": "D6",
          "ticks": 32520,
          "time": 43.70965775,
          "velocity": 0.6299212598425197
        },
        {
          "duration": 0.30510738958333405,
          "durationTicks": 227,
          "midi": 86,
          "name": "D6",
          "ticks": 32640,
          "time": 43.870948,
          "velocity": 0.6299212598425197
        },
        {
          "duration": 0.1518816520833326,
          "durationTicks": 113,
          "midi": 86,
          "name": "D6",
          "ticks": 32880,
          "time": 44.1935285,
          "velocity": 0.6299212598425197
        },
        {
          "duration": 0.1518816520833326,
          "durationTicks": 113,
          "midi": 86,
          "name": "D6",
          "ticks": 33000,
          "time": 44.35481875,
          "velocity": 0.6299212598425197
        },
        {
          "duration": 0.1518816520833326,
          "durationTicks": 113,
          "midi": 86,
          "name": "D6",
          "ticks": 33120,
          "time": 44.516109,
          "velocity": 0.6299212598425197
        },
        {
          "duration": 0.1518816520833326,
          "durationTicks": 113,
          "midi": 84,
          "name": "C6",
          "ticks": 33240,
          "time": 44.67739925,
          "velocity": 0.6299212598425197
        },
        {
          "duration": 0.1518816520833326,
          "durationTicks": 113,
          "midi": 83,
          "name": "B5",
          "ticks": 33360,
          "time": 44.8386895,
          "velocity": 0.6299212598425197
        },
        {
          "duration": 0.1518816520833326,
          "durationTicks": 113,
          "midi": 84,
          "name": "C6",
          "ticks": 33480,
          "time": 44.99997975,
          "velocity": 0.6299212598425197
        },
        {
          "duration": 0.4583331270833284,
          "durationTicks": 341,
          "midi": 86,
          "name": "D6",
          "ticks": 33600,
          "time": 45.16127,
          "velocity": 0.6299212598425197
        },
        {
          "duration": 0.1518816520833326,
          "durationTicks": 113,
          "midi": 79,
          "name": "G5",
          "ticks": 33960,
          "time": 45.645140749999996,
          "velocity": 0.6299212598425197
        },
        {
          "duration": 0.1518816520833326,
          "durationTicks": 113,
          "midi": 81,
          "name": "A5",
          "ticks": 34080,
          "time": 45.806430999999996,
          "velocity": 0.6299212598425197
        },
        {
          "duration": 0.1518816520833326,
          "durationTicks": 113,
          "midi": 79,
          "name": "G5",
          "ticks": 34200,
          "time": 45.96772125,
          "velocity": 0.6299212598425197
        },
        {
          "duration": 0.1518816520833326,
          "durationTicks": 113,
          "midi": 79,
          "name": "G5",
          "ticks": 34320,
          "time": 46.1290115,
          "velocity": 0.6299212598425197
        },
        {
          "duration": 0.1518816520833326,
          "durationTicks": 113,
          "midi": 81,
          "name": "A5",
          "ticks": 34440,
          "time": 46.29030175,
          "velocity": 0.6299212598425197
        },
        {
          "duration": 0.4583331270833284,
          "durationTicks": 341,
          "midi": 83,
          "name": "B5",
          "ticks": 34560,
          "time": 46.451592,
          "velocity": 0.6299212598425197
        },
        {
          "duration": 0.1518816520833326,
          "durationTicks": 113,
          "midi": 79,
          "name": "G5",
          "ticks": 34920,
          "time": 46.93546275,
          "velocity": 0.6299212598425197
        },
        {
          "duration": 0.1518816520833326,
          "durationTicks": 113,
          "midi": 81,
          "name": "A5",
          "ticks": 35040,
          "time": 47.096753,
          "velocity": 0.6299212598425197
        },
        {
          "duration": 0.1518816520833326,
          "durationTicks": 113,
          "midi": 79,
          "name": "G5",
          "ticks": 35160,
          "time": 47.25804325,
          "velocity": 0.6299212598425197
        },
        {
          "duration": 0.1518816520833326,
          "durationTicks": 113,
          "midi": 79,
          "name": "G5",
          "ticks": 35280,
          "time": 47.4193335,
          "velocity": 0.6299212598425197
        },
        {
          "duration": 0.1518816520833326,
          "durationTicks": 113,
          "midi": 81,
          "name": "A5",
          "ticks": 35400,
          "time": 47.58062375,
          "velocity": 0.6299212598425197
        },
        {
          "duration": 0.4583331270833284,
          "durationTicks": 341,
          "midi": 83,
          "name": "B5",
          "ticks": 35520,
          "time": 47.741914,
          "velocity": 0.6299212598425197
        },
        {
          "duration": 0.1518816520833326,
          "durationTicks": 113,
          "midi": 79,
          "name": "G5",
          "ticks": 35880,
          "time": 48.225784749999995,
          "velocity": 0.6299212598425197
        },
        {
          "duration": 0.1518816520833326,
          "durationTicks": 113,
          "midi": 81,
          "name": "A5",
          "ticks": 36000,
          "time": 48.387074999999996,
          "velocity": 0.6299212598425197
        },
        {
          "duration": 0.1518816520833326,
          "durationTicks": 113,
          "midi": 79,
          "name": "G5",
          "ticks": 36120,
          "time": 48.548365249999996,
          "velocity": 0.6299212598425197
        },
        {
          "duration": 0.1518816520833326,
          "durationTicks": 113,
          "midi": 79,
          "name": "G5",
          "ticks": 36240,
          "time": 48.7096555,
          "velocity": 0.6299212598425197
        },
        {
          "duration": 0.1518816520833326,
          "durationTicks": 113,
          "midi": 81,
          "name": "A5",
          "ticks": 36360,
          "time": 48.87094575,
          "velocity": 0.6299212598425197
        },
        {
          "duration": 0.30510738958333405,
          "durationTicks": 227,
          "midi": 83,
          "name": "B5",
          "ticks": 36480,
          "time": 49.032236,
          "velocity": 0.6299212598425197
        },
        {
          "duration": 0.1518816520833326,
          "durationTicks": 113,
          "midi": 81,
          "name": "A5",
          "ticks": 36720,
          "time": 49.3548165,
          "velocity": 0.6299212598425197
        },
        {
          "duration": 0.1518816520833326,
          "durationTicks": 113,
          "midi": 83,
          "name": "B5",
          "ticks": 36840,
          "time": 49.51610675,
          "velocity": 0.6299212598425197
        },
        {
          "duration": 0.1518816520833326,
          "durationTicks": 113,
          "midi": 84,
          "name": "C6",
          "ticks": 37080,
          "time": 49.83868725,
          "velocity": 0.6299212598425197
        },
        {
          "duration": 0.1518816520833326,
          "durationTicks": 113,
          "midi": 86,
          "name": "D6",
          "ticks": 37320,
          "time": 50.16126775,
          "velocity": 0.6299212598425197
        },
        {
          "duration": 0.1518816520833326,
          "durationTicks": 113,
          "midi": 83,
          "name": "B5",
          "ticks": 37560,
          "time": 50.48384825,
          "velocity": 0.6299212598425197
        },
        {
          "duration": 0.1518816520833326,
          "durationTicks": 113,
          "midi": 81,
          "name": "A5",
          "ticks": 37800,
          "time": 50.80642875,
          "velocity": 0.6299212598425197
        },
        {
          "duration": 0.1518816520833326,
          "durationTicks": 113,
          "midi": 79,
          "name": "G5",
          "ticks": 38040,
          "time": 51.129009249999996,
          "velocity": 0.6299212598425197
        },
        {
          "duration": 0.1518816520833326,
          "durationTicks": 113,
          "midi": 81,
          "name": "A5",
          "ticks": 38160,
          "time": 51.290299499999996,
          "velocity": 0.6299212598425197
        },
        {
          "duration": 0.1518816520833326,
          "durationTicks": 113,
          "midi": 79,
          "name": "G5",
          "ticks": 38760,
          "time": 52.09675075,
          "velocity": 0.6299212598425197
        },
        {
          "duration": 0.30510738958333405,
          "durationTicks": 227,
          "midi": 86,
          "name": "D6",
          "ticks": 38880,
          "time": 52.258041,
          "velocity": 0.6299212598425197
        },
        {
          "duration": 0.1518816520833326,
          "durationTicks": 113,
          "midi": 86,
          "name": "D6",
          "ticks": 39120,
          "time": 52.5806215,
          "velocity": 0.6299212598425197
        },
        {
          "duration": 0.1518816520833326,
          "durationTicks": 113,
          "midi": 86,
          "name": "D6",
          "ticks": 39240,
          "time": 52.74191175,
          "velocity": 0.6299212598425197
        },
        {
          "duration": 0.30510738958332695,
          "durationTicks": 227,
          "midi": 86,
          "name": "D6",
          "ticks": 39360,
          "time": 52.903202,
          "velocity": 0.6299212598425197
        },
        {
          "duration": 0.1518816520833326,
          "durationTicks": 113,
          "midi": 86,
          "name": "D6",
          "ticks": 39600,
          "time": 53.2257825,
          "velocity": 0.6299212598425197
        },
        {
          "duration": 0.30510738958332695,
          "durationTicks": 227,
          "midi": 86,
          "name": "D6",
          "ticks": 39720,
          "time": 53.38707275,
          "velocity": 0.6299212598425197
        },
        {
          "duration": 0.30510738958333405,
          "durationTicks": 227,
          "midi": 86,
          "name": "D6",
          "ticks": 39960,
          "time": 53.709653249999995,
          "velocity": 0.6299212598425197
        },
        {
          "duration": 0.30510738958333405,
          "durationTicks": 227,
          "midi": 86,
          "name": "D6",
          "ticks": 40200,
          "time": 54.032233749999996,
          "velocity": 0.6299212598425197
        },
        {
          "duration": 0.1518816520833326,
          "durationTicks": 113,
          "midi": 86,
          "name": "D6",
          "ticks": 40440,
          "time": 54.35481425,
          "velocity": 0.6299212598425197
        },
        {
          "duration": 0.1518816520833326,
          "durationTicks": 113,
          "midi": 86,
          "name": "D6",
          "ticks": 40560,
          "time": 54.5161045,
          "velocity": 0.6299212598425197
        },
        {
          "duration": 0.1518816520833326,
          "durationTicks": 113,
          "midi": 86,
          "name": "D6",
          "ticks": 40680,
          "time": 54.67739475,
          "velocity": 0.6299212598425197
        },
        {
          "duration": 0.30510738958333405,
          "durationTicks": 227,
          "midi": 86,
          "name": "D6",
          "ticks": 40800,
          "time": 54.838685,
          "velocity": 0.6299212598425197
        },
        {
          "duration": 0.1518816520833326,
          "durationTicks": 113,
          "midi": 86,
          "name": "D6",
          "ticks": 41040,
          "time": 55.1612655,
          "velocity": 0.6299212598425197
        },
        {
          "duration": 0.1518816520833326,
          "durationTicks": 113,
          "midi": 91,
          "name": "G6",
          "ticks": 41160,
          "time": 55.32255575,
          "velocity": 0.6299212598425197
        },
        {
          "duration": 0.4583331270833284,
          "durationTicks": 341,
          "midi": 86,
          "name": "D6",
          "ticks": 41280,
          "time": 55.483846,
          "velocity": 0.6299212598425197
        },
        {
          "duration": 0.1518816520833326,
          "durationTicks": 113,
          "midi": 79,
          "name": "G5",
          "ticks": 41640,
          "time": 55.96771675,
          "velocity": 0.6299212598425197
        },
        {
          "duration": 0.1518816520833326,
          "durationTicks": 113,
          "midi": 81,
          "name": "A5",
          "ticks": 41760,
          "time": 56.129007,
          "velocity": 0.6299212598425197
        },
        {
          "duration": 0.1518816520833326,
          "durationTicks": 113,
          "midi": 79,
          "name": "G5",
          "ticks": 41880,
          "time": 56.29029725,
          "velocity": 0.6299212598425197
        },
        {
          "duration": 0.1518816520833397,
          "durationTicks": 113,
          "midi": 79,
          "name": "G5",
          "ticks": 42000,
          "time": 56.451587499999995,
          "velocity": 0.6299212598425197
        },
        {
          "duration": 0.1518816520833326,
          "durationTicks": 113,
          "midi": 81,
          "name": "A5",
          "ticks": 42120,
          "time": 56.612877749999996,
          "velocity": 0.6299212598425197
        },
        {
          "duration": 0.4583331270833284,
          "durationTicks": 341,
          "midi": 83,
          "name": "B5",
          "ticks": 42240,
          "time": 56.774167999999996,
          "velocity": 0.6299212598425197
        },
        {
          "duration": 0.1518816520833326,
          "durationTicks": 113,
          "midi": 79,
          "name": "G5",
          "ticks": 42600,
          "time": 57.25803875,
          "velocity": 0.6299212598425197
        },
        {
          "duration": 0.1518816520833326,
          "durationTicks": 113,
          "midi": 81,
          "name": "A5",
          "ticks": 42720,
          "time": 57.419329,
          "velocity": 0.6299212598425197
        },
        {
          "duration": 0.1518816520833326,
          "durationTicks": 113,
          "midi": 79,
          "name": "G5",
          "ticks": 42840,
          "time": 57.58061925,
          "velocity": 0.6299212598425197
        },
        {
          "duration": 0.1518816520833326,
          "durationTicks": 113,
          "midi": 79,
          "name": "G5",
          "ticks": 42960,
          "time": 57.7419095,
          "velocity": 0.6299212598425197
        },
        {
          "duration": 0.1518816520833326,
          "durationTicks": 113,
          "midi": 81,
          "name": "A5",
          "ticks": 43080,
          "time": 57.90319975,
          "velocity": 0.6299212598425197
        },
        {
          "duration": 0.4583331270833284,
          "durationTicks": 341,
          "midi": 83,
          "name": "B5",
          "ticks": 43200,
          "time": 58.06449,
          "velocity": 0.6299212598425197
        },
        {
          "duration": 0.1518816520833326,
          "durationTicks": 113,
          "midi": 81,
          "name": "A5",
          "ticks": 43560,
          "time": 58.54836075,
          "velocity": 0.6299212598425197
        },
        {
          "duration": 0.1518816520833326,
          "durationTicks": 113,
          "midi": 81,
          "name": "A5",
          "ticks": 43680,
          "time": 58.709651,
          "velocity": 0.6299212598425197
        },
        {
          "duration": 0.1518816520833326,
          "durationTicks": 113,
          "midi": 79,
          "name": "G5",
          "ticks": 43800,
          "time": 58.87094125,
          "velocity": 0.6299212598425197
        },
        {
          "duration": 0.1518816520833326,
          "durationTicks": 113,
          "midi": 79,
          "name": "G5",
          "ticks": 43920,
          "time": 59.0322315,
          "velocity": 0.6299212598425197
        },
        {
          "duration": 0.1518816520833397,
          "durationTicks": 113,
          "midi": 81,
          "name": "A5",
          "ticks": 44040,
          "time": 59.193521749999995,
          "velocity": 0.6299212598425197
        },
        {
          "duration": 0.30510738958333405,
          "durationTicks": 227,
          "midi": 83,
          "name": "B5",
          "ticks": 44160,
          "time": 59.354811999999995,
          "velocity": 0.6299212598425197
        },
        {
          "duration": 0.1518816520833326,
          "durationTicks": 113,
          "midi": 81,
          "name": "A5",
          "ticks": 44400,
          "time": 59.677392499999996,
          "velocity": 0.6299212598425197
        },
        {
          "duration": 0.1518816520833326,
          "durationTicks": 113,
          "midi": 83,
          "name": "B5",
          "ticks": 44520,
          "time": 59.83868275,
          "velocity": 0.6299212598425197
        },
        {
          "duration": 0.1518816520833326,
          "durationTicks": 113,
          "midi": 84,
          "name": "C6",
          "ticks": 44760,
          "time": 60.16126325,
          "velocity": 0.6299212598425197
        },
        {
          "duration": 0.1518816520833326,
          "durationTicks": 113,
          "midi": 86,
          "name": "D6",
          "ticks": 45000,
          "time": 60.48384375,
          "velocity": 0.6299212598425197
        },
        {
          "duration": 0.1518816520833326,
          "durationTicks": 113,
          "midi": 83,
          "name": "B5",
          "ticks": 45240,
          "time": 60.80642425,
          "velocity": 0.6299212598425197
        },
        {
          "duration": 0.1518816520833326,
          "durationTicks": 113,
          "midi": 81,
          "name": "A5",
          "ticks": 45480,
          "time": 61.12900475,
          "velocity": 0.6299212598425197
        },
        {
          "duration": 0.1518816520833326,
          "durationTicks": 113,
          "midi": 79,
          "name": "G5",
          "ticks": 45720,
          "time": 61.45158525,
          "velocity": 0.6299212598425197
        },
        {
          "duration": 0.1518816520833326,
          "durationTicks": 113,
          "midi": 81,
          "name": "A5",
          "ticks": 45840,
          "time": 61.6128755,
          "velocity": 0.6299212598425197
        },
        {
          "duration": 0.1518816520833326,
          "durationTicks": 113,
          "midi": 79,
          "name": "G5",
          "ticks": 46440,
          "time": 62.419326749999996,
          "velocity": 0.6299212598425197
        },
        {
          "duration": 0.1518816520833326,
          "durationTicks": 113,
          "midi": 86,
          "name": "D6",
          "ticks": 46560,
          "time": 62.580617,
          "velocity": 0.6299212598425197
        },
        {
          "duration": 0.30510738958333405,
          "durationTicks": 227,
          "midi": 86,
          "name": "D6",
          "ticks": 46680,
          "time": 62.74190725,
          "velocity": 0.6299212598425197
        },
        {
          "duration": 0.1518816520833326,
          "durationTicks": 113,
          "midi": 86,
          "name": "D6",
          "ticks": 46920,
          "time": 63.06448775,
          "velocity": 0.6299212598425197
        },
        {
          "duration": 0.30510738958333405,
          "durationTicks": 227,
          "midi": 86,
          "name": "D6",
          "ticks": 47040,
          "time": 63.225778,
          "velocity": 0.6299212598425197
        },
        {
          "duration": 0.1518816520833326,
          "durationTicks": 113,
          "midi": 86,
          "name": "D6",
          "ticks": 47280,
          "time": 63.5483585,
          "velocity": 0.6299212598425197
        },
        {
          "duration": 0.30510738958332695,
          "durationTicks": 227,
          "midi": 86,
          "name": "D6",
          "ticks": 47400,
          "time": 63.70964875,
          "velocity": 0.6299212598425197
        },
        {
          "duration": 0.1518816520833326,
          "durationTicks": 113,
          "midi": 86,
          "name": "D6",
          "ticks": 47640,
          "time": 64.03222925,
          "velocity": 0.6299212598425197
        },
        {
          "duration": 0.30510738958334116,
          "durationTicks": 227,
          "midi": 86,
          "name": "D6",
          "ticks": 47760,
          "time": 64.1935195,
          "velocity": 0.6299212598425197
        },
        {
          "duration": 0.30510738958334116,
          "durationTicks": 227,
          "midi": 86,
          "name": "D6",
          "ticks": 48000,
          "time": 64.5161,
          "velocity": 0.6299212598425197
        },
        {
          "duration": 0.1518816520833326,
          "durationTicks": 113,
          "midi": 86,
          "name": "D6",
          "ticks": 48240,
          "time": 64.8386805,
          "velocity": 0.6299212598425197
        },
        {
          "duration": 0.1518816520833326,
          "durationTicks": 113,
          "midi": 86,
          "name": "D6",
          "ticks": 48360,
          "time": 64.99997075,
          "velocity": 0.6299212598425197
        },
        {
          "duration": 0.1518816520833326,
          "durationTicks": 113,
          "midi": 86,
          "name": "D6",
          "ticks": 48480,
          "time": 65.161261,
          "velocity": 0.6299212598425197
        },
        {
          "duration": 0.1518816520833326,
          "durationTicks": 113,
          "midi": 84,
          "name": "C6",
          "ticks": 48600,
          "time": 65.32255125,
          "velocity": 0.6299212598425197
        },
        {
          "duration": 0.1518816520833326,
          "durationTicks": 113,
          "midi": 83,
          "name": "B5",
          "ticks": 48720,
          "time": 65.4838415,
          "velocity": 0.6299212598425197
        },
        {
          "duration": 0.1518816520833326,
          "durationTicks": 113,
          "midi": 84,
          "name": "C6",
          "ticks": 48840,
          "time": 65.64513175,
          "velocity": 0.6299212598425197
        },
        {
          "duration": 0.4583331270833355,
          "durationTicks": 341,
          "midi": 86,
          "name": "D6",
          "ticks": 48960,
          "time": 65.806422,
          "velocity": 0.6299212598425197
        },
        {
          "duration": 0.1518816520833326,
          "durationTicks": 113,
          "midi": 79,
          "name": "G5",
          "ticks": 49320,
          "time": 66.29029274999999,
          "velocity": 0.6299212598425197
        },
        {
          "duration": 0.1518816520833326,
          "durationTicks": 113,
          "midi": 81,
          "name": "A5",
          "ticks": 49440,
          "time": 66.451583,
          "velocity": 0.6299212598425197
        },
        {
          "duration": 0.1518816520833326,
          "durationTicks": 113,
          "midi": 79,
          "name": "G5",
          "ticks": 49560,
          "time": 66.61287324999999,
          "velocity": 0.6299212598425197
        },
        {
          "duration": 0.1518816520833326,
          "durationTicks": 113,
          "midi": 79,
          "name": "G5",
          "ticks": 49680,
          "time": 66.7741635,
          "velocity": 0.6299212598425197
        },
        {
          "duration": 0.1518816520833326,
          "durationTicks": 113,
          "midi": 81,
          "name": "A5",
          "ticks": 49800,
          "time": 66.93545375,
          "velocity": 0.6299212598425197
        },
        {
          "duration": 0.4583331270833213,
          "durationTicks": 341,
          "midi": 83,
          "name": "B5",
          "ticks": 49920,
          "time": 67.096744,
          "velocity": 0.6299212598425197
        },
        {
          "duration": 0.1518816520833326,
          "durationTicks": 113,
          "midi": 83,
          "name": "B5",
          "ticks": 50280,
          "time": 67.58061475,
          "velocity": 0.6299212598425197
        },
        {
          "duration": 0.1518816520833326,
          "durationTicks": 113,
          "midi": 81,
          "name": "A5",
          "ticks": 50400,
          "time": 67.741905,
          "velocity": 0.6299212598425197
        },
        {
          "duration": 0.1518816520833326,
          "durationTicks": 113,
          "midi": 79,
          "name": "G5",
          "ticks": 50520,
          "time": 67.90319525,
          "velocity": 0.6299212598425197
        },
        {
          "duration": 0.1518816520833326,
          "durationTicks": 113,
          "midi": 79,
          "name": "G5",
          "ticks": 50640,
          "time": 68.0644855,
          "velocity": 0.6299212598425197
        },
        {
          "duration": 0.1518816520833326,
          "durationTicks": 113,
          "midi": 81,
          "name": "A5",
          "ticks": 50760,
          "time": 68.22577575,
          "velocity": 0.6299212598425197
        },
        {
          "duration": 0.4583331270833213,
          "durationTicks": 341,
          "midi": 83,
          "name": "B5",
          "ticks": 50880,
          "time": 68.387066,
          "velocity": 0.6299212598425197
        },
        {
          "duration": 0.1518816520833326,
          "durationTicks": 113,
          "midi": 83,
          "name": "B5",
          "ticks": 51240,
          "time": 68.87093675,
          "velocity": 0.6299212598425197
        },
        {
          "duration": 0.1518816520833326,
          "durationTicks": 113,
          "midi": 81,
          "name": "A5",
          "ticks": 51360,
          "time": 69.03222699999999,
          "velocity": 0.6299212598425197
        },
        {
          "duration": 0.1518816520833326,
          "durationTicks": 113,
          "midi": 79,
          "name": "G5",
          "ticks": 51480,
          "time": 69.19351725,
          "velocity": 0.6299212598425197
        },
        {
          "duration": 0.1518816520833326,
          "durationTicks": 113,
          "midi": 79,
          "name": "G5",
          "ticks": 51600,
          "time": 69.35480749999999,
          "velocity": 0.6299212598425197
        },
        {
          "duration": 0.1518816520833326,
          "durationTicks": 113,
          "midi": 81,
          "name": "A5",
          "ticks": 51720,
          "time": 69.51609775,
          "velocity": 0.6299212598425197
        },
        {
          "duration": 0.30510738958334116,
          "durationTicks": 227,
          "midi": 83,
          "name": "B5",
          "ticks": 51840,
          "time": 69.677388,
          "velocity": 0.6299212598425197
        },
        {
          "duration": 0.1518816520833326,
          "durationTicks": 113,
          "midi": 81,
          "name": "A5",
          "ticks": 52080,
          "time": 69.9999685,
          "velocity": 0.6299212598425197
        },
        {
          "duration": 0.1518816520833326,
          "durationTicks": 113,
          "midi": 83,
          "name": "B5",
          "ticks": 52200,
          "time": 70.16125875,
          "velocity": 0.6299212598425197
        },
        {
          "duration": 0.1518816520833326,
          "durationTicks": 113,
          "midi": 84,
          "name": "C6",
          "ticks": 52440,
          "time": 70.48383925,
          "velocity": 0.6299212598425197
        },
        {
          "duration": 0.1518816520833326,
          "durationTicks": 113,
          "midi": 86,
          "name": "D6",
          "ticks": 52680,
          "time": 70.80641975,
          "velocity": 0.6299212598425197
        },
        {
          "duration": 0.1518816520833326,
          "durationTicks": 113,
          "midi": 83,
          "name": "B5",
          "ticks": 52920,
          "time": 71.12900025,
          "velocity": 0.6299212598425197
        },
        {
          "duration": 0.1518816520833326,
          "durationTicks": 113,
          "midi": 79,
          "name": "G5",
          "ticks": 53160,
          "time": 71.45158075,
          "velocity": 0.6299212598425197
        },
        {
          "duration": 0.1518816520833326,
          "durationTicks": 113,
          "midi": 79,
          "name": "G5",
          "ticks": 53400,
          "time": 71.77416124999999,
          "velocity": 0.6299212598425197
        },
        {
          "duration": 0.1518816520833326,
          "durationTicks": 113,
          "midi": 81,
          "name": "A5",
          "ticks": 53520,
          "time": 71.9354515,
          "velocity": 0.6299212598425197
        },
        {
          "duration": 0.1518816520833326,
          "durationTicks": 113,
          "midi": 79,
          "name": "G5",
          "ticks": 53640,
          "time": 72.09674174999999,
          "velocity": 0.6299212598425197
        },
        {
          "duration": 0.1518816520833326,
          "durationTicks": 113,
          "midi": 79,
          "name": "G5",
          "ticks": 54120,
          "time": 72.74190275,
          "velocity": 0.6299212598425197
        },
        {
          "duration": 0.1518816520833326,
          "durationTicks": 113,
          "midi": 86,
          "name": "D6",
          "ticks": 54240,
          "time": 72.903193,
          "velocity": 0.6299212598425197
        },
        {
          "duration": 0.30510738958334116,
          "durationTicks": 227,
          "midi": 86,
          "name": "D6",
          "ticks": 54360,
          "time": 73.06448325,
          "velocity": 0.6299212598425197
        },
        {
          "duration": 0.1518816520833326,
          "durationTicks": 113,
          "midi": 86,
          "name": "D6",
          "ticks": 54600,
          "time": 73.38706375,
          "velocity": 0.6299212598425197
        },
        {
          "duration": 0.30510738958332695,
          "durationTicks": 227,
          "midi": 86,
          "name": "D6",
          "ticks": 54720,
          "time": 73.548354,
          "velocity": 0.6299212598425197
        },
        {
          "duration": 0.1518816520833326,
          "durationTicks": 113,
          "midi": 86,
          "name": "D6",
          "ticks": 54960,
          "time": 73.8709345,
          "velocity": 0.6299212598425197
        },
        {
          "duration": 0.30510738958332695,
          "durationTicks": 227,
          "midi": 86,
          "name": "D6",
          "ticks": 55080,
          "time": 74.03222475,
          "velocity": 0.6299212598425197
        },
        {
          "duration": 0.1518816520833326,
          "durationTicks": 113,
          "midi": 86,
          "name": "D6",
          "ticks": 55320,
          "time": 74.35480525,
          "velocity": 0.6299212598425197
        },
        {
          "duration": 0.1518816520833326,
          "durationTicks": 113,
          "midi": 86,
          "name": "D6",
          "ticks": 55440,
          "time": 74.51609549999999,
          "velocity": 0.6299212598425197
        },
        {
          "duration": 0.30510738958332695,
          "durationTicks": 227,
          "midi": 86,
          "name": "D6",
          "ticks": 55560,
          "time": 74.67738575,
          "velocity": 0.6299212598425197
        },
        {
          "duration": 0.30510738958332695,
          "durationTicks": 227,
          "midi": 86,
          "name": "D6",
          "ticks": 55800,
          "time": 74.99996625,
          "velocity": 0.6299212598425197
        },
        {
          "duration": 0.1518816520833326,
          "durationTicks": 113,
          "midi": 86,
          "name": "D6",
          "ticks": 56040,
          "time": 75.32254675,
          "velocity": 0.6299212598425197
        },
        {
          "duration": 0.30510738958334116,
          "durationTicks": 227,
          "midi": 86,
          "name": "D6",
          "ticks": 56160,
          "time": 75.483837,
          "velocity": 0.6299212598425197
        },
        {
          "duration": 0.1518816520833326,
          "durationTicks": 113,
          "midi": 86,
          "name": "D6",
          "ticks": 56400,
          "time": 75.8064175,
          "velocity": 0.6299212598425197
        },
        {
          "duration": 0.1518816520833326,
          "durationTicks": 113,
          "midi": 91,
          "name": "G6",
          "ticks": 56520,
          "time": 75.96770775,
          "velocity": 0.6299212598425197
        },
        {
          "duration": 0.4583331270833355,
          "durationTicks": 341,
          "midi": 86,
          "name": "D6",
          "ticks": 56640,
          "time": 76.128998,
          "velocity": 0.6299212598425197
        },
        {
          "duration": 0.1518816520833326,
          "durationTicks": 113,
          "midi": 79,
          "name": "G5",
          "ticks": 57000,
          "time": 76.61286875,
          "velocity": 0.6299212598425197
        },
        {
          "duration": 0.1518816520833326,
          "durationTicks": 113,
          "midi": 81,
          "name": "A5",
          "ticks": 57120,
          "time": 76.774159,
          "velocity": 0.6299212598425197
        },
        {
          "duration": 0.1518816520833326,
          "durationTicks": 113,
          "midi": 79,
          "name": "G5",
          "ticks": 57240,
          "time": 76.93544925,
          "velocity": 0.6299212598425197
        },
        {
          "duration": 0.1518816520833326,
          "durationTicks": 113,
          "midi": 79,
          "name": "G5",
          "ticks": 57360,
          "time": 77.0967395,
          "velocity": 0.6299212598425197
        },
        {
          "duration": 0.1518816520833326,
          "durationTicks": 113,
          "midi": 81,
          "name": "A5",
          "ticks": 57480,
          "time": 77.25802974999999,
          "velocity": 0.6299212598425197
        },
        {
          "duration": 0.4583331270833213,
          "durationTicks": 341,
          "midi": 83,
          "name": "B5",
          "ticks": 57600,
          "time": 77.41932,
          "velocity": 0.6299212598425197
        },
        {
          "duration": 0.1518816520833326,
          "durationTicks": 113,
          "midi": 79,
          "name": "G5",
          "ticks": 57960,
          "time": 77.90319075,
          "velocity": 0.6299212598425197
        },
        {
          "duration": 0.1518816520833326,
          "durationTicks": 113,
          "midi": 81,
          "name": "A5",
          "ticks": 58080,
          "time": 78.064481,
          "velocity": 0.6299212598425197
        },
        {
          "duration": 0.1518816520833326,
          "durationTicks": 113,
          "midi": 79,
          "name": "G5",
          "ticks": 58200,
          "time": 78.22577125,
          "velocity": 0.6299212598425197
        },
        {
          "duration": 0.1518816520833326,
          "durationTicks": 113,
          "midi": 79,
          "name": "G5",
          "ticks": 58320,
          "time": 78.3870615,
          "velocity": 0.6299212598425197
        },
        {
          "duration": 0.1518816520833326,
          "durationTicks": 113,
          "midi": 81,
          "name": "A5",
          "ticks": 58440,
          "time": 78.54835175,
          "velocity": 0.6299212598425197
        },
        {
          "duration": 0.4583331270833213,
          "durationTicks": 341,
          "midi": 83,
          "name": "B5",
          "ticks": 58560,
          "time": 78.709642,
          "velocity": 0.6299212598425197
        },
        {
          "duration": 0.1518816520833326,
          "durationTicks": 113,
          "midi": 83,
          "name": "B5",
          "ticks": 58920,
          "time": 79.19351275,
          "velocity": 0.6299212598425197
        },
        {
          "duration": 0.22849452083333688,
          "durationTicks": 170,
          "midi": 83,
          "name": "B5",
          "ticks": 59040,
          "time": 79.354803,
          "velocity": 0.6299212598425197
        },
        {
          "duration": 0.22849452083333688,
          "durationTicks": 170,
          "midi": 90,
          "name": "F#6",
          "ticks": 59220,
          "time": 79.596738375,
          "velocity": 0.6299212598425197
        },
        {
          "duration": 0.1518816520833326,
          "durationTicks": 113,
          "midi": 91,
          "name": "G6",
          "ticks": 59400,
          "time": 79.83867375,
          "velocity": 0.6299212598425197
        },
        {
          "duration": 0.30510738958334116,
          "durationTicks": 227,
          "midi": 93,
          "name": "A6",
          "ticks": 59520,
          "time": 79.99996399999999,
          "velocity": 0.6299212598425197
        },
        {
          "duration": 0.1518816520833326,
          "durationTicks": 113,
          "midi": 91,
          "name": "G6",
          "ticks": 59760,
          "time": 80.32254449999999,
          "velocity": 0.6299212598425197
        },
        {
          "duration": 0.1518816520833326,
          "durationTicks": 113,
          "midi": 93,
          "name": "A6",
          "ticks": 59880,
          "time": 80.48383475,
          "velocity": 0.6299212598425197
        },
        {
          "duration": 0.1518816520833326,
          "durationTicks": 113,
          "midi": 83,
          "name": "B5",
          "ticks": 60120,
          "time": 80.80641525,
          "velocity": 0.6299212598425197
        },
        {
          "duration": 0.1518816520833326,
          "durationTicks": 113,
          "midi": 86,
          "name": "D6",
          "ticks": 60360,
          "time": 81.12899575,
          "velocity": 0.6299212598425197
        },
        {
          "duration": 0.1518816520833326,
          "durationTicks": 113,
          "midi": 79,
          "name": "G5",
          "ticks": 60840,
          "time": 81.77415675,
          "velocity": 0.6299212598425197
        },
        {
          "duration": 0.1518816520833326,
          "durationTicks": 113,
          "midi": 79,
          "name": "G5",
          "ticks": 60960,
          "time": 81.935447,
          "velocity": 0.6299212598425197
        },
        {
          "duration": 0.1518816520833326,
          "durationTicks": 113,
          "midi": 79,
          "name": "G5",
          "ticks": 61080,
          "time": 82.09673725,
          "velocity": 0.6299212598425197
        },
        {
          "duration": 0.1518816520833326,
          "durationTicks": 113,
          "midi": 81,
          "name": "A5",
          "ticks": 61200,
          "time": 82.2580275,
          "velocity": 0.6299212598425197
        },
        {
          "duration": 0.1518816520833326,
          "durationTicks": 113,
          "midi": 79,
          "name": "G5",
          "ticks": 61320,
          "time": 82.41931775,
          "velocity": 0.6299212598425197
        },
        {
          "duration": 0.1518816520833468,
          "durationTicks": 113,
          "midi": 83,
          "name": "B5",
          "ticks": 61800,
          "time": 83.06447874999999,
          "velocity": 0.6299212598425197
        },
        {
          "duration": 0.30510738958332695,
          "durationTicks": 227,
          "midi": 83,
          "name": "B5",
          "ticks": 61920,
          "time": 83.225769,
          "velocity": 0.6299212598425197
        },
        {
          "duration": 0.1518816520833326,
          "durationTicks": 113,
          "midi": 83,
          "name": "B5",
          "ticks": 62160,
          "time": 83.5483495,
          "velocity": 0.6299212598425197
        },
        {
          "duration": 0.1518816520833468,
          "durationTicks": 113,
          "midi": 83,
          "name": "B5",
          "ticks": 62280,
          "time": 83.70963975,
          "velocity": 0.6299212598425197
        },
        {
          "duration": 0.30510738958332695,
          "durationTicks": 227,
          "midi": 83,
          "name": "B5",
          "ticks": 62400,
          "time": 83.87093,
          "velocity": 0.6299212598425197
        },
        {
          "duration": 0.1518816520833326,
          "durationTicks": 113,
          "midi": 83,
          "name": "B5",
          "ticks": 62640,
          "time": 84.1935105,
          "velocity": 0.6299212598425197
        },
        {
          "duration": 0.30510738958332695,
          "durationTicks": 227,
          "midi": 83,
          "name": "B5",
          "ticks": 62760,
          "time": 84.35480075,
          "velocity": 0.6299212598425197
        },
        {
          "duration": 0.30510738958332695,
          "durationTicks": 227,
          "midi": 83,
          "name": "B5",
          "ticks": 63000,
          "time": 84.67738125,
          "velocity": 0.6299212598425197
        },
        {
          "duration": 0.30510738958332695,
          "durationTicks": 227,
          "midi": 81,
          "name": "A5",
          "ticks": 63240,
          "time": 84.99996175,
          "velocity": 0.6299212598425197
        },
        {
          "duration": 0.30510738958332695,
          "durationTicks": 227,
          "midi": 79,
          "name": "G5",
          "ticks": 63480,
          "time": 85.32254225,
          "velocity": 0.6299212598425197
        },
        {
          "duration": 0.30510738958332695,
          "durationTicks": 227,
          "midi": 81,
          "name": "A5",
          "ticks": 63720,
          "time": 85.64512275,
          "velocity": 0.6299212598425197
        },
        {
          "duration": 0.30510738958332695,
          "durationTicks": 227,
          "midi": 79,
          "name": "G5",
          "ticks": 63960,
          "time": 85.96770325,
          "velocity": 0.6299212598425197
        },
        {
          "duration": 0.6115588645833299,
          "durationTicks": 455,
          "midi": 83,
          "name": "B5",
          "ticks": 64200,
          "time": 86.29028375,
          "velocity": 0.6299212598425197
        },
        {
          "duration": 0.1518816520833326,
          "durationTicks": 113,
          "midi": 83,
          "name": "B5",
          "ticks": 64680,
          "time": 86.93544475,
          "velocity": 0.6299212598425197
        },
        {
          "duration": 0.1518816520833468,
          "durationTicks": 113,
          "midi": 81,
          "name": "A5",
          "ticks": 64800,
          "time": 87.096735,
          "velocity": 0.6299212598425197
        },
        {
          "duration": 0.4583331270833355,
          "durationTicks": 341,
          "midi": 79,
          "name": "G5",
          "ticks": 64920,
          "time": 87.25802525,
          "velocity": 0.6299212598425197
        },
        {
          "duration": 0.4583331270833355,
          "durationTicks": 341,
          "midi": 78,
          "name": "F#5",
          "ticks": 65280,
          "time": 87.741896,
          "velocity": 0.6299212598425197
        },
        {
          "duration": 0.6115588645833299,
          "durationTicks": 455,
          "midi": 79,
          "name": "G5",
          "ticks": 65640,
          "time": 88.22576674999999,
          "velocity": 0.6299212598425197
        },
        {
          "duration": 0.1518816520833468,
          "durationTicks": 113,
          "midi": 79,
          "name": "G5",
          "ticks": 66600,
          "time": 89.51608875,
          "velocity": 0.6299212598425197
        },
        {
          "duration": 0.1518816520833326,
          "durationTicks": 113,
          "midi": 81,
          "name": "A5",
          "ticks": 66720,
          "time": 89.677379,
          "velocity": 0.6299212598425197
        },
        {
          "duration": 0.1518816520833468,
          "durationTicks": 113,
          "midi": 79,
          "name": "G5",
          "ticks": 66840,
          "time": 89.83866925,
          "velocity": 0.6299212598425197
        },
        {
          "duration": 0.30510738958332695,
          "durationTicks": 227,
          "midi": 79,
          "name": "G5",
          "ticks": 66960,
          "time": 89.9999595,
          "velocity": 0.6299212598425197
        },
        {
          "duration": 0.30510738958332695,
          "durationTicks": 227,
          "midi": 81,
          "name": "A5",
          "ticks": 67200,
          "time": 90.32254,
          "velocity": 0.6299212598425197
        },
        {
          "duration": 0.1518816520833326,
          "durationTicks": 113,
          "midi": 79,
          "name": "G5",
          "ticks": 67440,
          "time": 90.6451205,
          "velocity": 0.6299212598425197
        },
        {
          "duration": 0.1518816520833468,
          "durationTicks": 113,
          "midi": 81,
          "name": "A5",
          "ticks": 67560,
          "time": 90.80641075,
          "velocity": 0.6299212598425197
        },
        {
          "duration": 0.1518816520833468,
          "durationTicks": 113,
          "midi": 79,
          "name": "G5",
          "ticks": 67800,
          "time": 91.12899125,
          "velocity": 0.6299212598425197
        },
        {
          "duration": 0.1518816520833468,
          "durationTicks": 113,
          "midi": 84,
          "name": "C6",
          "ticks": 68040,
          "time": 91.45157175,
          "velocity": 0.6299212598425197
        },
        {
          "duration": 0.1518816520833326,
          "durationTicks": 113,
          "midi": 83,
          "name": "B5",
          "ticks": 68280,
          "time": 91.77415225,
          "velocity": 0.6299212598425197
        },
        {
          "duration": 0.1518816520833326,
          "durationTicks": 113,
          "midi": 81,
          "name": "A5",
          "ticks": 68520,
          "time": 92.09673275,
          "velocity": 0.6299212598425197
        },
        {
          "duration": 0.4583331270833355,
          "durationTicks": 341,
          "midi": 79,
          "name": "G5",
          "ticks": 68760,
          "time": 92.41931325,
          "velocity": 0.6299212598425197
        },
        {
          "duration": 0.1518816520833326,
          "durationTicks": 113,
          "midi": 79,
          "name": "G5",
          "ticks": 69480,
          "time": 93.38705475,
          "velocity": 0.6299212598425197
        },
        {
          "duration": 0.30510738958332695,
          "durationTicks": 227,
          "midi": 86,
          "name": "D6",
          "ticks": 69600,
          "time": 93.548345,
          "velocity": 0.6299212598425197
        },
        {
          "duration": 0.1518816520833468,
          "durationTicks": 113,
          "midi": 86,
          "name": "D6",
          "ticks": 69840,
          "time": 93.8709255,
          "velocity": 0.6299212598425197
        },
        {
          "duration": 0.1518816520833468,
          "durationTicks": 113,
          "midi": 86,
          "name": "D6",
          "ticks": 69960,
          "time": 94.03221574999999,
          "velocity": 0.6299212598425197
        },
        {
          "duration": 0.30510738958332695,
          "durationTicks": 227,
          "midi": 86,
          "name": "D6",
          "ticks": 70080,
          "time": 94.193506,
          "velocity": 0.6299212598425197
        },
        {
          "duration": 0.1518816520833326,
          "durationTicks": 113,
          "midi": 86,
          "name": "D6",
          "ticks": 70320,
          "time": 94.5160865,
          "velocity": 0.6299212598425197
        },
        {
          "duration": 0.30510738958334116,
          "durationTicks": 227,
          "midi": 86,
          "name": "D6",
          "ticks": 70440,
          "time": 94.67737675,
          "velocity": 0.6299212598425197
        },
        {
          "duration": 0.30510738958334116,
          "durationTicks": 227,
          "midi": 79,
          "name": "G5",
          "ticks": 70680,
          "time": 94.99995725,
          "velocity": 0.6299212598425197
        },
        {
          "duration": 0.4583331270833355,
          "durationTicks": 341,
          "midi": 81,
          "name": "A5",
          "ticks": 70920,
          "time": 95.32253775,
          "velocity": 0.6299212598425197
        },
        {
          "duration": 0.1518816520833326,
          "durationTicks": 113,
          "midi": 79,
          "name": "G5",
          "ticks": 71280,
          "time": 95.8064085,
          "velocity": 0.6299212598425197
        },
        {
          "duration": 0.30510738958332695,
          "durationTicks": 227,
          "midi": 81,
          "name": "A5",
          "ticks": 71400,
          "time": 95.96769875,
          "velocity": 0.6299212598425197
        },
        {
          "duration": 0.30510738958332695,
          "durationTicks": 227,
          "midi": 79,
          "name": "G5",
          "ticks": 71640,
          "time": 96.29027925,
          "velocity": 0.6299212598425197
        },
        {
          "duration": 0.6115588645833299,
          "durationTicks": 455,
          "midi": 83,
          "name": "B5",
          "ticks": 71880,
          "time": 96.61285975,
          "velocity": 0.6299212598425197
        },
        {
          "duration": 0.1518816520833326,
          "durationTicks": 113,
          "midi": 83,
          "name": "B5",
          "ticks": 72360,
          "time": 97.25802075,
          "velocity": 0.6299212598425197
        },
        {
          "duration": 0.1518816520833468,
          "durationTicks": 113,
          "midi": 81,
          "name": "A5",
          "ticks": 72480,
          "time": 97.419311,
          "velocity": 0.6299212598425197
        },
        {
          "duration": 0.1518816520833326,
          "durationTicks": 113,
          "midi": 81,
          "name": "A5",
          "ticks": 72600,
          "time": 97.58060125,
          "velocity": 0.6299212598425197
        },
        {
          "duration": 0.30510738958334116,
          "durationTicks": 227,
          "midi": 79,
          "name": "G5",
          "ticks": 72720,
          "time": 97.7418915,
          "velocity": 0.6299212598425197
        },
        {
          "duration": 0.4583331270833355,
          "durationTicks": 341,
          "midi": 78,
          "name": "F#5",
          "ticks": 72960,
          "time": 98.064472,
          "velocity": 0.6299212598425197
        },
        {
          "duration": 0.6115588645833157,
          "durationTicks": 455,
          "midi": 79,
          "name": "G5",
          "ticks": 73320,
          "time": 98.54834275,
          "velocity": 0.6299212598425197
        },
        {
          "duration": 0.1518816520833468,
          "durationTicks": 113,
          "midi": 79,
          "name": "G5",
          "ticks": 74280,
          "time": 99.83866474999999,
          "velocity": 0.6299212598425197
        },
        {
          "duration": 0.1518816520833326,
          "durationTicks": 113,
          "midi": 81,
          "name": "A5",
          "ticks": 74400,
          "time": 99.999955,
          "velocity": 0.6299212598425197
        },
        {
          "duration": 0.1518816520833468,
          "durationTicks": 113,
          "midi": 79,
          "name": "G5",
          "ticks": 74520,
          "time": 100.16124525,
          "velocity": 0.6299212598425197
        },
        {
          "duration": 0.30510738958332695,
          "durationTicks": 227,
          "midi": 79,
          "name": "G5",
          "ticks": 74640,
          "time": 100.3225355,
          "velocity": 0.6299212598425197
        },
        {
          "duration": 0.30510738958332695,
          "durationTicks": 227,
          "midi": 81,
          "name": "A5",
          "ticks": 74880,
          "time": 100.645116,
          "velocity": 0.6299212598425197
        },
        {
          "duration": 0.1518816520833326,
          "durationTicks": 113,
          "midi": 79,
          "name": "G5",
          "ticks": 75120,
          "time": 100.9676965,
          "velocity": 0.6299212598425197
        },
        {
          "duration": 0.1518816520833468,
          "durationTicks": 113,
          "midi": 81,
          "name": "A5",
          "ticks": 75240,
          "time": 101.12898675,
          "velocity": 0.6299212598425197
        },
        {
          "duration": 0.1518816520833468,
          "durationTicks": 113,
          "midi": 83,
          "name": "B5",
          "ticks": 75480,
          "time": 101.45156725,
          "velocity": 0.6299212598425197
        },
        {
          "duration": 0.1518816520833468,
          "durationTicks": 113,
          "midi": 84,
          "name": "C6",
          "ticks": 75720,
          "time": 101.77414775,
          "velocity": 0.6299212598425197
        },
        {
          "duration": 0.1518816520833468,
          "durationTicks": 113,
          "midi": 83,
          "name": "B5",
          "ticks": 75960,
          "time": 102.09672825,
          "velocity": 0.6299212598425197
        },
        {
          "duration": 0.1518816520833468,
          "durationTicks": 113,
          "midi": 81,
          "name": "A5",
          "ticks": 76200,
          "time": 102.41930875,
          "velocity": 0.6299212598425197
        },
        {
          "duration": 0.4583331270833355,
          "durationTicks": 341,
          "midi": 79,
          "name": "G5",
          "ticks": 76440,
          "time": 102.74188925,
          "velocity": 0.6299212598425197
        },
        {
          "duration": 0.1518816520833326,
          "durationTicks": 113,
          "midi": 79,
          "name": "G5",
          "ticks": 77160,
          "time": 103.70963075,
          "velocity": 0.6299212598425197
        },
        {
          "duration": 0.30510738958332695,
          "durationTicks": 227,
          "midi": 86,
          "name": "D6",
          "ticks": 77280,
          "time": 103.870921,
          "velocity": 0.6299212598425197
        },
        {
          "duration": 0.1518816520833468,
          "durationTicks": 113,
          "midi": 86,
          "name": "D6",
          "ticks": 77520,
          "time": 104.1935015,
          "velocity": 0.6299212598425197
        },
        {
          "duration": 0.30510738958332695,
          "durationTicks": 227,
          "midi": 86,
          "name": "D6",
          "ticks": 77640,
          "time": 104.35479175,
          "velocity": 0.6299212598425197
        },
        {
          "duration": 0.30510738958334116,
          "durationTicks": 227,
          "midi": 86,
          "name": "D6",
          "ticks": 77880,
          "time": 104.67737224999999,
          "velocity": 0.6299212598425197
        },
        {
          "duration": 0.30510738958334116,
          "durationTicks": 227,
          "midi": 86,
          "name": "D6",
          "ticks": 78120,
          "time": 104.99995274999999,
          "velocity": 0.6299212598425197
        },
        {
          "duration": 0.30510738958334116,
          "durationTicks": 227,
          "midi": 79,
          "name": "G5",
          "ticks": 78360,
          "time": 105.32253324999999,
          "velocity": 0.6299212598425197
        },
        {
          "duration": 0.4583331270833497,
          "durationTicks": 341,
          "midi": 81,
          "name": "A5",
          "ticks": 78600,
          "time": 105.64511375,
          "velocity": 0.6299212598425197
        },
        {
          "duration": 0.1518816520833326,
          "durationTicks": 113,
          "midi": 79,
          "name": "G5",
          "ticks": 78960,
          "time": 106.1289845,
          "velocity": 0.6299212598425197
        },
        {
          "duration": 0.30510738958332695,
          "durationTicks": 227,
          "midi": 81,
          "name": "A5",
          "ticks": 79080,
          "time": 106.29027475,
          "velocity": 0.6299212598425197
        },
        {
          "duration": 0.30510738958332695,
          "durationTicks": 227,
          "midi": 79,
          "name": "G5",
          "ticks": 79320,
          "time": 106.61285525,
          "velocity": 0.6299212598425197
        },
        {
          "duration": 0.6115588645833299,
          "durationTicks": 455,
          "midi": 83,
          "name": "B5",
          "ticks": 79560,
          "time": 106.93543575,
          "velocity": 0.6299212598425197
        },
        {
          "duration": 0.1518816520833468,
          "durationTicks": 113,
          "midi": 83,
          "name": "B5",
          "ticks": 80040,
          "time": 107.58059675,
          "velocity": 0.6299212598425197
        },
        {
          "duration": 0.30510738958334116,
          "durationTicks": 227,
          "midi": 81,
          "name": "A5",
          "ticks": 80160,
          "time": 107.74188699999999,
          "velocity": 0.6299212598425197
        },
        {
          "duration": 0.1518816520833468,
          "durationTicks": 113,
          "midi": 79,
          "name": "G5",
          "ticks": 80400,
          "time": 108.06446749999999,
          "velocity": 0.6299212598425197
        },
        {
          "duration": 0.1518816520833326,
          "durationTicks": 113,
          "midi": 81,
          "name": "A5",
          "ticks": 80520,
          "time": 108.22575775,
          "velocity": 0.6299212598425197
        },
        {
          "duration": 0.4583331270833497,
          "durationTicks": 341,
          "midi": 83,
          "name": "B5",
          "ticks": 80640,
          "time": 108.387048,
          "velocity": 0.6299212598425197
        },
        {
          "duration": 0.1518816520833326,
          "durationTicks": 113,
          "midi": 79,
          "name": "G5",
          "ticks": 81000,
          "time": 108.87091875,
          "velocity": 0.6299212598425197
        },
        {
          "duration": 0.1518816520833468,
          "durationTicks": 113,
          "midi": 81,
          "name": "A5",
          "ticks": 81120,
          "time": 109.032209,
          "velocity": 0.6299212598425197
        },
        {
          "duration": 0.1518816520833326,
          "durationTicks": 113,
          "midi": 79,
          "name": "G5",
          "ticks": 81240,
          "time": 109.19349925,
          "velocity": 0.6299212598425197
        },
        {
          "duration": 0.1518816520833468,
          "durationTicks": 113,
          "midi": 79,
          "name": "G5",
          "ticks": 81360,
          "time": 109.3547895,
          "velocity": 0.6299212598425197
        },
        {
          "duration": 0.1518816520833326,
          "durationTicks": 113,
          "midi": 81,
          "name": "A5",
          "ticks": 81480,
          "time": 109.51607975,
          "velocity": 0.6299212598425197
        },
        {
          "duration": 0.30510738958332695,
          "durationTicks": 227,
          "midi": 83,
          "name": "B5",
          "ticks": 81600,
          "time": 109.67737,
          "velocity": 0.6299212598425197
        },
        {
          "duration": 0.1518816520833468,
          "durationTicks": 113,
          "midi": 79,
          "name": "G5",
          "ticks": 81960,
          "time": 110.16124074999999,
          "velocity": 0.6299212598425197
        },
        {
          "duration": 0.1518816520833468,
          "durationTicks": 113,
          "midi": 81,
          "name": "A5",
          "ticks": 82080,
          "time": 110.322531,
          "velocity": 0.6299212598425197
        },
        {
          "duration": 0.1518816520833468,
          "durationTicks": 113,
          "midi": 79,
          "name": "G5",
          "ticks": 82200,
          "time": 110.48382124999999,
          "velocity": 0.6299212598425197
        },
        {
          "duration": 0.30510738958332695,
          "durationTicks": 227,
          "midi": 79,
          "name": "G5",
          "ticks": 82320,
          "time": 110.6451115,
          "velocity": 0.6299212598425197
        },
        {
          "duration": 0.30510738958332695,
          "durationTicks": 227,
          "midi": 81,
          "name": "A5",
          "ticks": 82560,
          "time": 110.967692,
          "velocity": 0.6299212598425197
        },
        {
          "duration": 0.1518816520833326,
          "durationTicks": 113,
          "midi": 79,
          "name": "G5",
          "ticks": 82800,
          "time": 111.2902725,
          "velocity": 0.6299212598425197
        },
        {
          "duration": 0.1518816520833468,
          "durationTicks": 113,
          "midi": 81,
          "name": "A5",
          "ticks": 82920,
          "time": 111.45156275,
          "velocity": 0.6299212598425197
        },
        {
          "duration": 0.1518816520833468,
          "durationTicks": 113,
          "midi": 83,
          "name": "B5",
          "ticks": 83160,
          "time": 111.77414325,
          "velocity": 0.6299212598425197
        },
        {
          "duration": 0.1518816520833468,
          "durationTicks": 113,
          "midi": 84,
          "name": "C6",
          "ticks": 83400,
          "time": 112.09672375,
          "velocity": 0.6299212598425197
        },
        {
          "duration": 0.1518816520833468,
          "durationTicks": 113,
          "midi": 86,
          "name": "D6",
          "ticks": 83640,
          "time": 112.41930425,
          "velocity": 0.6299212598425197
        },
        {
          "duration": 0.1518816520833468,
          "durationTicks": 113,
          "midi": 81,
          "name": "A5",
          "ticks": 83880,
          "time": 112.74188475,
          "velocity": 0.6299212598425197
        },
        {
          "duration": 0.4583331270833355,
          "durationTicks": 341,
          "midi": 79,
          "name": "G5",
          "ticks": 84120,
          "time": 113.06446525,
          "velocity": 0.6299212598425197
        },
        {
          "duration": 0.1518816520833326,
          "durationTicks": 113,
          "midi": 79,
          "name": "G5",
          "ticks": 84840,
          "time": 114.03220675,
          "velocity": 0.6299212598425197
        },
        {
          "duration": 0.30510738958334116,
          "durationTicks": 227,
          "midi": 86,
          "name": "D6",
          "ticks": 84960,
          "time": 114.193497,
          "velocity": 0.6299212598425197
        },
        {
          "duration": 0.1518816520833468,
          "durationTicks": 113,
          "midi": 86,
          "name": "D6",
          "ticks": 85200,
          "time": 114.5160775,
          "velocity": 0.6299212598425197
        },
        {
          "duration": 0.4583331270833355,
          "durationTicks": 341,
          "midi": 86,
          "name": "D6",
          "ticks": 85320,
          "time": 114.67736775,
          "velocity": 0.6299212598425197
        },
        {
          "duration": 0.1518816520833468,
          "durationTicks": 113,
          "midi": 86,
          "name": "D6",
          "ticks": 85680,
          "time": 115.1612385,
          "velocity": 0.6299212598425197
        },
        {
          "duration": 0.30510738958332695,
          "durationTicks": 227,
          "midi": 86,
          "name": "D6",
          "ticks": 85800,
          "time": 115.32252875,
          "velocity": 0.6299212598425197
        },
        {
          "duration": 0.30510738958334116,
          "durationTicks": 227,
          "midi": 91,
          "name": "G6",
          "ticks": 86040,
          "time": 115.64510924999999,
          "velocity": 0.6299212598425197
        },
        {
          "duration": 0.30510738958334116,
          "durationTicks": 227,
          "midi": 81,
          "name": "A5",
          "ticks": 86280,
          "time": 115.96768974999999,
          "velocity": 0.6299212598425197
        },
        {
          "duration": 0.30510738958334116,
          "durationTicks": 227,
          "midi": 81,
          "name": "A5",
          "ticks": 86520,
          "time": 116.29027024999999,
          "velocity": 0.6299212598425197
        },
        {
          "duration": 0.1518816520833468,
          "durationTicks": 113,
          "midi": 79,
          "name": "G5",
          "ticks": 86760,
          "time": 116.61285074999999,
          "velocity": 0.6299212598425197
        },
        {
          "duration": 0.30510738958332695,
          "durationTicks": 227,
          "midi": 81,
          "name": "A5",
          "ticks": 86880,
          "time": 116.774141,
          "velocity": 0.6299212598425197
        },
        {
          "duration": 0.1518816520833326,
          "durationTicks": 113,
          "midi": 79,
          "name": "G5",
          "ticks": 87120,
          "time": 117.0967215,
          "velocity": 0.6299212598425197
        },
        {
          "duration": 0.6115588645833299,
          "durationTicks": 455,
          "midi": 83,
          "name": "B5",
          "ticks": 87240,
          "time": 117.25801175,
          "velocity": 0.6299212598425197
        },
        {
          "duration": 0.1518816520833468,
          "durationTicks": 113,
          "midi": 83,
          "name": "B5",
          "ticks": 87720,
          "time": 117.90317275,
          "velocity": 0.6299212598425197
        },
        {
          "duration": 0.1518816520833326,
          "durationTicks": 113,
          "midi": 83,
          "name": "B5",
          "ticks": 87840,
          "time": 118.064463,
          "velocity": 0.6299212598425197
        },
        {
          "duration": 0.30510738958332695,
          "durationTicks": 227,
          "midi": 90,
          "name": "F#6",
          "ticks": 87960,
          "time": 118.22575325,
          "velocity": 0.6299212598425197
        },
        {
          "duration": 0.1518816520833468,
          "durationTicks": 113,
          "midi": 91,
          "name": "G6",
          "ticks": 88200,
          "time": 118.54833375,
          "velocity": 0.6299212598425197
        },
        {
          "duration": 0.30510738958334116,
          "durationTicks": 227,
          "midi": 93,
          "name": "A6",
          "ticks": 88320,
          "time": 118.70962399999999,
          "velocity": 0.6299212598425197
        },
        {
          "duration": 0.1518816520833468,
          "durationTicks": 113,
          "midi": 91,
          "name": "G6",
          "ticks": 88560,
          "time": 119.03220449999999,
          "velocity": 0.6299212598425197
        },
        {
          "duration": 0.30510738958332695,
          "durationTicks": 227,
          "midi": 91,
          "name": "G6",
          "ticks": 88680,
          "time": 119.19349475,
          "velocity": 0.6299212598425197
        },
        {
          "duration": 0.30510738958332695,
          "durationTicks": 227,
          "midi": 83,
          "name": "B5",
          "ticks": 88920,
          "time": 119.51607525,
          "velocity": 0.6299212598425197
        },
        {
          "duration": 0.6115588645833299,
          "durationTicks": 455,
          "midi": 86,
          "name": "D6",
          "ticks": 89160,
          "time": 119.83865575,
          "velocity": 0.6299212598425197
        },
        {
          "duration": 0.1518816520833326,
          "durationTicks": 113,
          "midi": 83,
          "name": "B5",
          "ticks": 89640,
          "time": 120.48381675,
          "velocity": 0.6299212598425197
        },
        {
          "duration": 0.1518816520833468,
          "durationTicks": 113,
          "midi": 81,
          "name": "A5",
          "ticks": 89760,
          "time": 120.645107,
          "velocity": 0.6299212598425197
        },
        {
          "duration": 0.1518816520833326,
          "durationTicks": 113,
          "midi": 79,
          "name": "G5",
          "ticks": 89880,
          "time": 120.80639725,
          "velocity": 0.6299212598425197
        },
        {
          "duration": 0.30510738958332695,
          "durationTicks": 227,
          "midi": 79,
          "name": "G5",
          "ticks": 90000,
          "time": 120.9676875,
          "velocity": 0.6299212598425197
        },
        {
          "duration": 0.30510738958332695,
          "durationTicks": 227,
          "midi": 81,
          "name": "A5",
          "ticks": 90240,
          "time": 121.290268,
          "velocity": 0.6299212598425197
        },
        {
          "duration": 0.1518816520833468,
          "durationTicks": 113,
          "midi": 79,
          "name": "G5",
          "ticks": 90480,
          "time": 121.6128485,
          "velocity": 0.6299212598425197
        },
        {
          "duration": 0.30510738958334116,
          "durationTicks": 227,
          "midi": 81,
          "name": "A5",
          "ticks": 90600,
          "time": 121.77413874999999,
          "velocity": 0.6299212598425197
        },
        {
          "duration": 0.30510738958334116,
          "durationTicks": 227,
          "midi": 83,
          "name": "B5",
          "ticks": 90840,
          "time": 122.09671924999999,
          "velocity": 0.6299212598425197
        },
        {
          "duration": 0.30510738958334116,
          "durationTicks": 227,
          "midi": 84,
          "name": "C6",
          "ticks": 91080,
          "time": 122.41929975,
          "velocity": 0.6299212598425197
        },
        {
          "duration": 0.30510738958332695,
          "durationTicks": 227,
          "midi": 83,
          "name": "B5",
          "ticks": 91320,
          "time": 122.74188025,
          "velocity": 0.6299212598425197
        },
        {
          "duration": 0.30510738958332695,
          "durationTicks": 227,
          "midi": 81,
          "name": "A5",
          "ticks": 91560,
          "time": 123.06446075,
          "velocity": 0.6299212598425197
        },
        {
          "duration": 0.30510738958332695,
          "durationTicks": 227,
          "midi": 79,
          "name": "G5",
          "ticks": 91800,
          "time": 123.38704125,
          "velocity": 0.6299212598425197
        },
        {
          "duration": 0.1518816520833468,
          "durationTicks": 113,
          "midi": 81,
          "name": "A5",
          "ticks": 92040,
          "time": 123.70962175,
          "velocity": 0.6299212598425197
        },
        {
          "duration": 0.6115588645833157,
          "durationTicks": 455,
          "midi": 79,
          "name": "G5",
          "ticks": 92160,
          "time": 123.870912,
          "velocity": 0.6299212598425197
        },
        {
          "duration": 0.1518816520833326,
          "durationTicks": 113,
          "midi": 79,
          "name": "G5",
          "ticks": 93000,
          "time": 124.99994375,
          "velocity": 0.6299212598425197
        },
        {
          "duration": 0.30510738958334116,
          "durationTicks": 227,
          "midi": 81,
          "name": "A5",
          "ticks": 93120,
          "time": 125.161234,
          "velocity": 0.6299212598425197
        },
        {
          "duration": 0.1518816520833468,
          "durationTicks": 113,
          "midi": 79,
          "name": "G5",
          "ticks": 93360,
          "time": 125.4838145,
          "velocity": 0.6299212598425197
        },
        {
          "duration": 0.30510738958332695,
          "durationTicks": 227,
          "midi": 81,
          "name": "A5",
          "ticks": 93480,
          "time": 125.64510475,
          "velocity": 0.6299212598425197
        },
        {
          "duration": 0.30510738958332695,
          "durationTicks": 227,
          "midi": 79,
          "name": "G5",
          "ticks": 93720,
          "time": 125.96768525,
          "velocity": 0.6299212598425197
        },
        {
          "duration": 0.30510738958332695,
          "durationTicks": 227,
          "midi": 81,
          "name": "A5",
          "ticks": 93960,
          "time": 126.29026575,
          "velocity": 0.6299212598425197
        },
        {
          "duration": 0.30510738958332695,
          "durationTicks": 227,
          "midi": 79,
          "name": "G5",
          "ticks": 94200,
          "time": 126.61284625,
          "velocity": 0.6299212598425197
        },
        {
          "duration": 0.30510738958334116,
          "durationTicks": 227,
          "midi": 81,
          "name": "A5",
          "ticks": 94440,
          "time": 126.93542674999999,
          "velocity": 0.6299212598425197
        },
        {
          "duration": 0.30510738958334116,
          "durationTicks": 227,
          "midi": 83,
          "name": "B5",
          "ticks": 94680,
          "time": 127.25800724999999,
          "velocity": 0.6299212598425197
        },
        {
          "duration": 0.6115588645833299,
          "durationTicks": 455,
          "midi": 83,
          "name": "B5",
          "ticks": 94920,
          "time": 127.58058774999999,
          "velocity": 0.6299212598425197
        },
        {
          "duration": 0.30510738958332695,
          "durationTicks": 227,
          "midi": 81,
          "name": "A5",
          "ticks": 95520,
          "time": 128.387039,
          "velocity": 0.6299212598425197
        },
        {
          "duration": 0.30510738958332695,
          "durationTicks": 227,
          "midi": 79,
          "name": "G5",
          "ticks": 95760,
          "time": 128.7096195,
          "velocity": 0.6299212598425197
        },
        {
          "duration": 0.4583331270833355,
          "durationTicks": 341,
          "midi": 78,
          "name": "F#5",
          "ticks": 96000,
          "time": 129.0322,
          "velocity": 0.6299212598425197
        },
        {
          "duration": 0.6115588645833441,
          "durationTicks": 455,
          "midi": 79,
          "name": "G5",
          "ticks": 96360,
          "time": 129.51607074999998,
          "velocity": 0.6299212598425197
        },
        {
          "duration": 0.1518816520833468,
          "durationTicks": 113,
          "midi": 83,
          "name": "B5",
          "ticks": 97320,
          "time": 130.80639275,
          "velocity": 0.6299212598425197
        },
        {
          "duration": 0.30510738958332695,
          "durationTicks": 227,
          "midi": 81,
          "name": "A5",
          "ticks": 97440,
          "time": 130.967683,
          "velocity": 0.6299212598425197
        },
        {
          "duration": 0.30510738958332695,
          "durationTicks": 227,
          "midi": 79,
          "name": "G5",
          "ticks": 97680,
          "time": 131.2902635,
          "velocity": 0.6299212598425197
        },
        {
          "duration": 0.30510738958332695,
          "durationTicks": 227,
          "midi": 81,
          "name": "A5",
          "ticks": 97920,
          "time": 131.612844,
          "velocity": 0.6299212598425197
        },
        {
          "duration": 0.15188165208331839,
          "durationTicks": 113,
          "midi": 79,
          "name": "G5",
          "ticks": 98160,
          "time": 131.9354245,
          "velocity": 0.6299212598425197
        },
        {
          "duration": 0.30510738958332695,
          "durationTicks": 227,
          "midi": 81,
          "name": "A5",
          "ticks": 98280,
          "time": 132.09671475,
          "velocity": 0.6299212598425197
        },
        {
          "duration": 0.30510738958332695,
          "durationTicks": 227,
          "midi": 83,
          "name": "B5",
          "ticks": 98520,
          "time": 132.41929525,
          "velocity": 0.6299212598425197
        },
        {
          "duration": 0.30510738958332695,
          "durationTicks": 227,
          "midi": 84,
          "name": "C6",
          "ticks": 98760,
          "time": 132.74187575,
          "velocity": 0.6299212598425197
        },
        {
          "duration": 0.30510738958332695,
          "durationTicks": 227,
          "midi": 83,
          "name": "B5",
          "ticks": 99000,
          "time": 133.06445625,
          "velocity": 0.6299212598425197
        },
        {
          "duration": 0.30510738958332695,
          "durationTicks": 227,
          "midi": 81,
          "name": "A5",
          "ticks": 99240,
          "time": 133.38703675,
          "velocity": 0.6299212598425197
        },
        {
          "duration": 0.30510738958332695,
          "durationTicks": 227,
          "midi": 79,
          "name": "G5",
          "ticks": 99480,
          "time": 133.70961725,
          "velocity": 0.6299212598425197
        },
        {
          "duration": 0.1518816520833468,
          "durationTicks": 113,
          "midi": 79,
          "name": "G5",
          "ticks": 100680,
          "time": 135.32251975,
          "velocity": 0.6299212598425197
        },
        {
          "duration": 0.30510738958332695,
          "durationTicks": 227,
          "midi": 81,
          "name": "A5",
          "ticks": 100800,
          "time": 135.48381,
          "velocity": 0.6299212598425197
        },
        {
          "duration": 0.1518816520833468,
          "durationTicks": 113,
          "midi": 79,
          "name": "G5",
          "ticks": 101040,
          "time": 135.8063905,
          "velocity": 0.6299212598425197
        },
        {
          "duration": 0.30510738958332695,
          "durationTicks": 227,
          "midi": 81,
          "name": "A5",
          "ticks": 101160,
          "time": 135.96768075,
          "velocity": 0.6299212598425197
        },
        {
          "duration": 0.30510738958335537,
          "durationTicks": 227,
          "midi": 79,
          "name": "G5",
          "ticks": 101400,
          "time": 136.29026125,
          "velocity": 0.6299212598425197
        },
        {
          "duration": 0.1518816520833468,
          "durationTicks": 113,
          "midi": 79,
          "name": "G5",
          "ticks": 101640,
          "time": 136.61284175,
          "velocity": 0.6299212598425197
        },
        {
          "duration": 0.4583331270833355,
          "durationTicks": 341,
          "midi": 81,
          "name": "A5",
          "ticks": 101760,
          "time": 136.774132,
          "velocity": 0.6299212598425197
        },
        {
          "duration": 1.2244618145833215,
          "durationTicks": 911,
          "midi": 83,
          "name": "B5",
          "ticks": 102120,
          "time": 137.25800275,
          "velocity": 0.6299212598425197
        },
        {
          "duration": 0.30510738958335537,
          "durationTicks": 227,
          "midi": 81,
          "name": "A5",
          "ticks": 103200,
          "time": 138.70961499999999,
          "velocity": 0.6299212598425197
        },
        {
          "duration": 0.30510738958332695,
          "durationTicks": 227,
          "midi": 79,
          "name": "G5",
          "ticks": 103440,
          "time": 139.0321955,
          "velocity": 0.6299212598425197
        },
        {
          "duration": 0.4583331270833355,
          "durationTicks": 341,
          "midi": 81,
          "name": "A5",
          "ticks": 103680,
          "time": 139.354776,
          "velocity": 0.6299212598425197
        },
        {
          "duration": 0.6115588645833157,
          "durationTicks": 455,
          "midi": 83,
          "name": "B5",
          "ticks": 104040,
          "time": 139.83864675,
          "velocity": 0.6299212598425197
        },
        {
          "duration": 0.30510738958332695,
          "durationTicks": 227,
          "midi": 81,
          "name": "A5",
          "ticks": 105120,
          "time": 141.290259,
          "velocity": 0.6299212598425197
        },
        {
          "duration": 0.30510738958332695,
          "durationTicks": 227,
          "midi": 79,
          "name": "G5",
          "ticks": 105360,
          "time": 141.6128395,
          "velocity": 0.6299212598425197
        },
        {
          "duration": 0.30510738958332695,
          "durationTicks": 227,
          "midi": 81,
          "name": "A5",
          "ticks": 105600,
          "time": 141.93542,
          "velocity": 0.6299212598425197
        },
        {
          "duration": 0.15188165208331839,
          "durationTicks": 113,
          "midi": 79,
          "name": "G5",
          "ticks": 105840,
          "time": 142.2580005,
          "velocity": 0.6299212598425197
        },
        {
          "duration": 0.30510738958332695,
          "durationTicks": 227,
          "midi": 81,
          "name": "A5",
          "ticks": 105960,
          "time": 142.41929075,
          "velocity": 0.6299212598425197
        },
        {
          "duration": 0.30510738958332695,
          "durationTicks": 227,
          "midi": 83,
          "name": "B5",
          "ticks": 106200,
          "time": 142.74187125,
          "velocity": 0.6299212598425197
        },
        {
          "duration": 0.30510738958332695,
          "durationTicks": 227,
          "midi": 84,
          "name": "C6",
          "ticks": 106440,
          "time": 143.06445175,
          "velocity": 0.6299212598425197
        },
        {
          "duration": 0.30510738958332695,
          "durationTicks": 227,
          "midi": 83,
          "name": "B5",
          "ticks": 106680,
          "time": 143.38703225,
          "velocity": 0.6299212598425197
        },
        {
          "duration": 0.30510738958332695,
          "durationTicks": 227,
          "midi": 81,
          "name": "A5",
          "ticks": 106920,
          "time": 143.70961275,
          "velocity": 0.6299212598425197
        },
        {
          "duration": 0.4583331270833355,
          "durationTicks": 341,
          "midi": 79,
          "name": "G5",
          "ticks": 107160,
          "time": 144.03219325,
          "velocity": 0.6299212598425197
        },
        {
          "duration": 0.22849452083332267,
          "durationTicks": 170,
          "midi": 71,
          "name": "B4",
          "ticks": 108960,
          "time": 146.451547,
          "velocity": 0.6299212598425197
        },
        {
          "duration": 0.22849452083332267,
          "durationTicks": 170,
          "midi": 78,
          "name": "F#5",
          "ticks": 109140,
          "time": 146.693482375,
          "velocity": 0.6299212598425197
        },
        {
          "duration": 0.1518816520833468,
          "durationTicks": 113,
          "midi": 79,
          "name": "G5",
          "ticks": 109320,
          "time": 146.93541775,
          "velocity": 0.6299212598425197
        },
        {
          "duration": 0.30510738958332695,
          "durationTicks": 227,
          "midi": 81,
          "name": "A5",
          "ticks": 109440,
          "time": 147.096708,
          "velocity": 0.6299212598425197
        },
        {
          "duration": 0.1518816520833468,
          "durationTicks": 113,
          "midi": 79,
          "name": "G5",
          "ticks": 109680,
          "time": 147.4192885,
          "velocity": 0.6299212598425197
        },
        {
          "duration": 1.2244618145833215,
          "durationTicks": 911,
          "midi": 79,
          "name": "G5",
          "ticks": 109800,
          "time": 147.58057875,
          "velocity": 0.6299212598425197
        },
        {
          "duration": 0.1518816520833468,
          "durationTicks": 113,
          "midi": 71,
          "name": "B4",
          "ticks": 110760,
          "time": 148.87090075,
          "velocity": 0.6299212598425197
        },
        {
          "duration": 0.2284945208333511,
          "durationTicks": 170,
          "midi": 71,
          "name": "B4",
          "ticks": 110880,
          "time": 149.03219099999998,
          "velocity": 0.6299212598425197
        },
        {
          "duration": 0.22849452083332267,
          "durationTicks": 170,
          "midi": 78,
          "name": "F#5",
          "ticks": 111060,
          "time": 149.274126375,
          "velocity": 0.6299212598425197
        },
        {
          "duration": 0.15188165208331839,
          "durationTicks": 113,
          "midi": 79,
          "name": "G5",
          "ticks": 111240,
          "time": 149.51606175,
          "velocity": 0.6299212598425197
        },
        {
          "duration": 0.30510738958335537,
          "durationTicks": 227,
          "midi": 81,
          "name": "A5",
          "ticks": 111360,
          "time": 149.67735199999998,
          "velocity": 0.6299212598425197
        },
        {
          "duration": 0.1518816520833468,
          "durationTicks": 113,
          "midi": 79,
          "name": "G5",
          "ticks": 111600,
          "time": 149.9999325,
          "velocity": 0.6299212598425197
        },
        {
          "duration": 1.2244618145833215,
          "durationTicks": 911,
          "midi": 79,
          "name": "G5",
          "ticks": 111720,
          "time": 150.16122275,
          "velocity": 0.6299212598425197
        },
        {
          "duration": 0.1518816520833468,
          "durationTicks": 113,
          "midi": 71,
          "name": "B4",
          "ticks": 112680,
          "time": 151.45154474999998,
          "velocity": 0.6299212598425197
        },
        {
          "duration": 0.22849452083332267,
          "durationTicks": 170,
          "midi": 71,
          "name": "B4",
          "ticks": 112800,
          "time": 151.612835,
          "velocity": 0.6299212598425197
        },
        {
          "duration": 0.22849452083332267,
          "durationTicks": 170,
          "midi": 78,
          "name": "F#5",
          "ticks": 112980,
          "time": 151.854770375,
          "velocity": 0.6299212598425197
        },
        {
          "duration": 0.1518816520833468,
          "durationTicks": 113,
          "midi": 79,
          "name": "G5",
          "ticks": 113160,
          "time": 152.09670574999998,
          "velocity": 0.6299212598425197
        },
        {
          "duration": 0.30510738958332695,
          "durationTicks": 227,
          "midi": 81,
          "name": "A5",
          "ticks": 113280,
          "time": 152.257996,
          "velocity": 0.6299212598425197
        },
        {
          "duration": 0.15188165208331839,
          "durationTicks": 113,
          "midi": 79,
          "name": "G5",
          "ticks": 113520,
          "time": 152.5805765,
          "velocity": 0.6299212598425197
        },
        {
          "duration": 0.30510738958335537,
          "durationTicks": 227,
          "midi": 79,
          "name": "G5",
          "ticks": 113640,
          "time": 152.74186674999999,
          "velocity": 0.6299212598425197
        },
        {
          "duration": 0.30510738958332695,
          "durationTicks": 227,
          "midi": 81,
          "name": "A5",
          "ticks": 113880,
          "time": 153.06444725,
          "velocity": 0.6299212598425197
        },
        {
          "duration": 0.06317201458332988,
          "durationTicks": 47,
          "midi": 83,
          "name": "B5",
          "ticks": 114120,
          "time": 153.38702775,
          "velocity": 0.6299212598425197
        },
        {
          "duration": 0.24327946041668724,
          "durationTicks": 181,
          "midi": 84,
          "name": "C6",
          "ticks": 114168,
          "time": 153.45154384999998,
          "velocity": 0.6299212598425197
        },
        {
          "duration": 0.30510738958332695,
          "durationTicks": 227,
          "midi": 83,
          "name": "B5",
          "ticks": 114360,
          "time": 153.70960825,
          "velocity": 0.6299212598425197
        },
        {
          "duration": 0.30510738958332695,
          "durationTicks": 227,
          "midi": 81,
          "name": "A5",
          "ticks": 114600,
          "time": 154.03218875,
          "velocity": 0.6299212598425197
        },
        {
          "duration": 0.30510738958332695,
          "durationTicks": 227,
          "midi": 79,
          "name": "G5",
          "ticks": 114840,
          "time": 154.35476925,
          "velocity": 0.6299212598425197
        },
        {
          "duration": 0.22849452083332267,
          "durationTicks": 170,
          "midi": 71,
          "name": "B4",
          "ticks": 116640,
          "time": 156.774123,
          "velocity": 0.6299212598425197
        },
        {
          "duration": 0.22849452083332267,
          "durationTicks": 170,
          "midi": 78,
          "name": "F#5",
          "ticks": 116820,
          "time": 157.016058375,
          "velocity": 0.6299212598425197
        },
        {
          "duration": 0.1518816520833468,
          "durationTicks": 113,
          "midi": 79,
          "name": "G5",
          "ticks": 117000,
          "time": 157.25799375,
          "velocity": 0.6299212598425197
        },
        {
          "duration": 0.30510738958332695,
          "durationTicks": 227,
          "midi": 81,
          "name": "A5",
          "ticks": 117120,
          "time": 157.419284,
          "velocity": 0.6299212598425197
        },
        {
          "duration": 0.1518816520833468,
          "durationTicks": 113,
          "midi": 79,
          "name": "G5",
          "ticks": 117360,
          "time": 157.7418645,
          "velocity": 0.6299212598425197
        },
        {
          "duration": 1.2244618145833215,
          "durationTicks": 911,
          "midi": 79,
          "name": "G5",
          "ticks": 117480,
          "time": 157.90315475,
          "velocity": 0.6299212598425197
        },
        {
          "duration": 0.1518816520833468,
          "durationTicks": 113,
          "midi": 71,
          "name": "B4",
          "ticks": 118440,
          "time": 159.19347675,
          "velocity": 0.6299212598425197
        },
        {
          "duration": 0.22849452083332267,
          "durationTicks": 170,
          "midi": 71,
          "name": "B4",
          "ticks": 118560,
          "time": 159.354767,
          "velocity": 0.6299212598425197
        },
        {
          "duration": 0.22849452083332267,
          "durationTicks": 170,
          "midi": 78,
          "name": "F#5",
          "ticks": 118740,
          "time": 159.596702375,
          "velocity": 0.6299212598425197
        },
        {
          "duration": 0.1518816520833468,
          "durationTicks": 113,
          "midi": 79,
          "name": "G5",
          "ticks": 118920,
          "time": 159.83863775,
          "velocity": 0.6299212598425197
        },
        {
          "duration": 0.30510738958335537,
          "durationTicks": 227,
          "midi": 81,
          "name": "A5",
          "ticks": 119040,
          "time": 159.99992799999998,
          "velocity": 0.6299212598425197
        },
        {
          "duration": 0.1518816520833468,
          "durationTicks": 113,
          "midi": 79,
          "name": "G5",
          "ticks": 119280,
          "time": 160.3225085,
          "velocity": 0.6299212598425197
        },
        {
          "duration": 1.2244618145833215,
          "durationTicks": 911,
          "midi": 79,
          "name": "G5",
          "ticks": 119400,
          "time": 160.48379875,
          "velocity": 0.6299212598425197
        },
        {
          "duration": 0.15188165208331839,
          "durationTicks": 113,
          "midi": 71,
          "name": "B4",
          "ticks": 120360,
          "time": 161.77412075,
          "velocity": 0.6299212598425197
        },
        {
          "duration": 0.22849452083332267,
          "durationTicks": 170,
          "midi": 71,
          "name": "B4",
          "ticks": 120480,
          "time": 161.935411,
          "velocity": 0.6299212598425197
        },
        {
          "duration": 0.2284945208333511,
          "durationTicks": 170,
          "midi": 78,
          "name": "F#5",
          "ticks": 120660,
          "time": 162.17734637499998,
          "velocity": 0.6299212598425197
        },
        {
          "duration": 0.1518816520833468,
          "durationTicks": 113,
          "midi": 79,
          "name": "G5",
          "ticks": 120840,
          "time": 162.41928174999998,
          "velocity": 0.6299212598425197
        },
        {
          "duration": 0.30510738958332695,
          "durationTicks": 227,
          "midi": 81,
          "name": "A5",
          "ticks": 120960,
          "time": 162.580572,
          "velocity": 0.6299212598425197
        },
        {
          "duration": 0.1518816520833468,
          "durationTicks": 113,
          "midi": 79,
          "name": "G5",
          "ticks": 121200,
          "time": 162.9031525,
          "velocity": 0.6299212598425197
        },
        {
          "duration": 0.30510738958335537,
          "durationTicks": 227,
          "midi": 79,
          "name": "G5",
          "ticks": 121320,
          "time": 163.06444274999998,
          "velocity": 0.6299212598425197
        },
        {
          "duration": 0.30510738958332695,
          "durationTicks": 227,
          "midi": 81,
          "name": "A5",
          "ticks": 121560,
          "time": 163.38702325,
          "velocity": 0.6299212598425197
        },
        {
          "duration": 0.06317201458332988,
          "durationTicks": 47,
          "midi": 83,
          "name": "B5",
          "ticks": 121800,
          "time": 163.70960374999999,
          "velocity": 0.6299212598425197
        },
        {
          "duration": 0.24327946041665882,
          "durationTicks": 181,
          "midi": 84,
          "name": "C6",
          "ticks": 121848,
          "time": 163.77411985,
          "velocity": 0.6299212598425197
        },
        {
          "duration": 0.30510738958332695,
          "durationTicks": 227,
          "midi": 83,
          "name": "B5",
          "ticks": 122040,
          "time": 164.03218425,
          "velocity": 0.6299212598425197
        },
        {
          "duration": 0.1518816520833468,
          "durationTicks": 113,
          "midi": 71,
          "name": "B4",
          "ticks": 122280,
          "time": 164.35476475,
          "velocity": 0.6299212598425197
        },
        {
          "duration": 0.1518816520833468,
          "durationTicks": 113,
          "midi": 81,
          "name": "A5",
          "ticks": 122280,
          "time": 164.35476475,
          "velocity": 0.6299212598425197
        },
        {
          "duration": 0.1518816520833468,
          "durationTicks": 113,
          "midi": 76,
          "name": "E5",
          "ticks": 122400,
          "time": 164.516055,
          "velocity": 0.6299212598425197
        },
        {
          "duration": 0.1518816520833468,
          "durationTicks": 113,
          "midi": 74,
          "name": "D5",
          "ticks": 122520,
          "time": 164.67734525,
          "velocity": 0.6299212598425197
        },
        {
          "duration": 0.15188165208331839,
          "durationTicks": 113,
          "midi": 71,
          "name": "B4",
          "ticks": 122640,
          "time": 164.8386355,
          "velocity": 0.6299212598425197
        },
        {
          "duration": 0.1518816520833468,
          "durationTicks": 113,
          "midi": 69,
          "name": "A4",
          "ticks": 122760,
          "time": 164.99992575,
          "velocity": 0.6299212598425197
        },
        {
          "duration": 0.07930103958332779,
          "durationTicks": 59,
          "midi": 59,
          "name": "B3",
          "ticks": 122880,
          "time": 165.161216,
          "velocity": 0.6299212598425197
        },
        {
          "duration": 0.07930103958332779,
          "durationTicks": 59,
          "midi": 62,
          "name": "D4",
          "ticks": 122880,
          "time": 165.161216,
          "velocity": 0.6299212598425197
        },
        {
          "duration": 0.07930103958332779,
          "durationTicks": 59,
          "midi": 67,
          "name": "G4",
          "ticks": 122880,
          "time": 165.161216,
          "velocity": 0.6299212598425197
        },
        {
          "duration": 0.45833312708336393,
          "durationTicks": 341,
          "midi": 59,
          "name": "B3",
          "ticks": 123120,
          "time": 165.48379649999998,
          "velocity": 0.6299212598425197
        },
        {
          "duration": 0.45833312708336393,
          "durationTicks": 341,
          "midi": 62,
          "name": "D4",
          "ticks": 123120,
          "time": 165.48379649999998,
          "velocity": 0.6299212598425197
        },
        {
          "duration": 0.45833312708336393,
          "durationTicks": 341,
          "midi": 67,
          "name": "G4",
          "ticks": 123120,
          "time": 165.48379649999998,
          "velocity": 0.6299212598425197
        },
        {
          "duration": 0.4583331270833355,
          "durationTicks": 341,
          "midi": 59,
          "name": "B3",
          "ticks": 123480,
          "time": 165.96766725,
          "velocity": 0.6299212598425197
        },
        {
          "duration": 0.4583331270833355,
          "durationTicks": 341,
          "midi": 62,
          "name": "D4",
          "ticks": 123480,
          "time": 165.96766725,
          "velocity": 0.6299212598425197
        },
        {
          "duration": 0.4583331270833355,
          "durationTicks": 341,
          "midi": 67,
          "name": "G4",
          "ticks": 123480,
          "time": 165.96766725,
          "velocity": 0.6299212598425197
        },
        {
          "duration": 0.07930103958329937,
          "durationTicks": 59,
          "midi": 59,
          "name": "B3",
          "ticks": 123840,
          "time": 166.451538,
          "velocity": 0.6299212598425197
        },
        {
          "duration": 0.07930103958329937,
          "durationTicks": 59,
          "midi": 62,
          "name": "D4",
          "ticks": 123840,
          "time": 166.451538,
          "velocity": 0.6299212598425197
        },
        {
          "duration": 0.07930103958329937,
          "durationTicks": 59,
          "midi": 67,
          "name": "G4",
          "ticks": 123840,
          "time": 166.451538,
          "velocity": 0.6299212598425197
        },
        {
          "duration": 0.30510738958332695,
          "durationTicks": 227,
          "midi": 59,
          "name": "B3",
          "ticks": 124080,
          "time": 166.7741185,
          "velocity": 0.6299212598425197
        },
        {
          "duration": 0.30510738958332695,
          "durationTicks": 227,
          "midi": 62,
          "name": "D4",
          "ticks": 124080,
          "time": 166.7741185,
          "velocity": 0.6299212598425197
        },
        {
          "duration": 0.30510738958332695,
          "durationTicks": 227,
          "midi": 67,
          "name": "G4",
          "ticks": 124080,
          "time": 166.7741185,
          "velocity": 0.6299212598425197
        },
        {
          "duration": 0.30510738958332695,
          "durationTicks": 227,
          "midi": 59,
          "name": "B3",
          "ticks": 124440,
          "time": 167.25798925,
          "velocity": 0.6299212598425197
        },
        {
          "duration": 0.30510738958332695,
          "durationTicks": 227,
          "midi": 62,
          "name": "D4",
          "ticks": 124440,
          "time": 167.25798925,
          "velocity": 0.6299212598425197
        },
        {
          "duration": 0.30510738958332695,
          "durationTicks": 227,
          "midi": 67,
          "name": "G4",
          "ticks": 124440,
          "time": 167.25798925,
          "velocity": 0.6299212598425197
        },
        {
          "duration": 0.07930103958332779,
          "durationTicks": 59,
          "midi": 62,
          "name": "D4",
          "ticks": 124680,
          "time": 167.58056975,
          "velocity": 0.6299212598425197
        },
        {
          "duration": 0.07930103958332779,
          "durationTicks": 59,
          "midi": 69,
          "name": "A4",
          "ticks": 124680,
          "time": 167.58056975,
          "velocity": 0.6299212598425197
        },
        {
          "duration": 0.4583331270833355,
          "durationTicks": 341,
          "midi": 62,
          "name": "D4",
          "ticks": 125040,
          "time": 168.0644405,
          "velocity": 0.6299212598425197
        },
        {
          "duration": 0.4583331270833355,
          "durationTicks": 341,
          "midi": 69,
          "name": "A4",
          "ticks": 125040,
          "time": 168.0644405,
          "velocity": 0.6299212598425197
        },
        {
          "duration": 0.30510738958335537,
          "durationTicks": 227,
          "midi": 62,
          "name": "D4",
          "ticks": 125400,
          "time": 168.54831124999998,
          "velocity": 0.6299212598425197
        },
        {
          "duration": 0.30510738958335537,
          "durationTicks": 227,
          "midi": 69,
          "name": "A4",
          "ticks": 125400,
          "time": 168.54831124999998,
          "velocity": 0.6299212598425197
        },
        {
          "duration": 0.07930103958332779,
          "durationTicks": 59,
          "midi": 63,
          "name": "D#4",
          "ticks": 125640,
          "time": 168.87089175,
          "velocity": 0.6299212598425197
        },
        {
          "duration": 0.07930103958332779,
          "durationTicks": 59,
          "midi": 66,
          "name": "F#4",
          "ticks": 125640,
          "time": 168.87089175,
          "velocity": 0.6299212598425197
        },
        {
          "duration": 0.07930103958332779,
          "durationTicks": 59,
          "midi": 69,
          "name": "A4",
          "ticks": 125640,
          "time": 168.87089175,
          "velocity": 0.6299212598425197
        },
        {
          "duration": 0.07930103958332779,
          "durationTicks": 59,
          "midi": 63,
          "name": "D#4",
          "ticks": 125880,
          "time": 169.19347224999999,
          "velocity": 0.6299212598425197
        },
        {
          "duration": 0.07930103958332779,
          "durationTicks": 59,
          "midi": 66,
          "name": "F#4",
          "ticks": 125880,
          "time": 169.19347224999999,
          "velocity": 0.6299212598425197
        },
        {
          "duration": 0.07930103958332779,
          "durationTicks": 59,
          "midi": 69,
          "name": "A4",
          "ticks": 125880,
          "time": 169.19347224999999,
          "velocity": 0.6299212598425197
        },
        {
          "duration": 0.4583331270833355,
          "durationTicks": 341,
          "midi": 63,
          "name": "D#4",
          "ticks": 126000,
          "time": 169.3547625,
          "velocity": 0.6299212598425197
        },
        {
          "duration": 0.4583331270833355,
          "durationTicks": 341,
          "midi": 66,
          "name": "F#4",
          "ticks": 126000,
          "time": 169.3547625,
          "velocity": 0.6299212598425197
        },
        {
          "duration": 0.4583331270833355,
          "durationTicks": 341,
          "midi": 69,
          "name": "A4",
          "ticks": 126000,
          "time": 169.3547625,
          "velocity": 0.6299212598425197
        },
        {
          "duration": 0.4583331270833355,
          "durationTicks": 341,
          "midi": 63,
          "name": "D#4",
          "ticks": 126360,
          "time": 169.83863325,
          "velocity": 0.6299212598425197
        },
        {
          "duration": 0.4583331270833355,
          "durationTicks": 341,
          "midi": 66,
          "name": "F#4",
          "ticks": 126360,
          "time": 169.83863325,
          "velocity": 0.6299212598425197
        },
        {
          "duration": 0.4583331270833355,
          "durationTicks": 341,
          "midi": 69,
          "name": "A4",
          "ticks": 126360,
          "time": 169.83863325,
          "velocity": 0.6299212598425197
        },
        {
          "duration": 0.4583331270833355,
          "durationTicks": 341,
          "midi": 62,
          "name": "D4",
          "ticks": 126960,
          "time": 170.6450845,
          "velocity": 0.6299212598425197
        },
        {
          "duration": 0.4583331270833355,
          "durationTicks": 341,
          "midi": 67,
          "name": "G4",
          "ticks": 126960,
          "time": 170.6450845,
          "velocity": 0.6299212598425197
        },
        {
          "duration": 0.4583331270833355,
          "durationTicks": 341,
          "midi": 62,
          "name": "D4",
          "ticks": 127320,
          "time": 171.12895525,
          "velocity": 0.6299212598425197
        },
        {
          "duration": 0.4583331270833355,
          "durationTicks": 341,
          "midi": 67,
          "name": "G4",
          "ticks": 127320,
          "time": 171.12895525,
          "velocity": 0.6299212598425197
        },
        {
          "duration": 0.4583331270833355,
          "durationTicks": 341,
          "midi": 62,
          "name": "D4",
          "ticks": 127920,
          "time": 171.9354065,
          "velocity": 0.6299212598425197
        },
        {
          "duration": 0.4583331270833355,
          "durationTicks": 341,
          "midi": 67,
          "name": "G4",
          "ticks": 127920,
          "time": 171.9354065,
          "velocity": 0.6299212598425197
        },
        {
          "duration": 0.4583331270833355,
          "durationTicks": 341,
          "midi": 61,
          "name": "C#4",
          "ticks": 128280,
          "time": 172.41927725,
          "velocity": 0.6299212598425197
        },
        {
          "duration": 0.4583331270833355,
          "durationTicks": 341,
          "midi": 66,
          "name": "F#4",
          "ticks": 128280,
          "time": 172.41927725,
          "velocity": 0.6299212598425197
        },
        {
          "duration": 0.4583331270833355,
          "durationTicks": 341,
          "midi": 60,
          "name": "C4",
          "ticks": 128880,
          "time": 173.2257285,
          "velocity": 0.6299212598425197
        },
        {
          "duration": 0.4583331270833355,
          "durationTicks": 341,
          "midi": 65,
          "name": "F4",
          "ticks": 128880,
          "time": 173.2257285,
          "velocity": 0.6299212598425197
        },
        {
          "duration": 0.30510738958332695,
          "durationTicks": 227,
          "midi": 60,
          "name": "C4",
          "ticks": 129240,
          "time": 173.70959925,
          "velocity": 0.6299212598425197
        },
        {
          "duration": 0.30510738958332695,
          "durationTicks": 227,
          "midi": 65,
          "name": "F4",
          "ticks": 129240,
          "time": 173.70959925,
          "velocity": 0.6299212598425197
        },
        {
          "duration": 0.07930103958332779,
          "durationTicks": 59,
          "midi": 59,
          "name": "B3",
          "ticks": 129480,
          "time": 174.03217974999998,
          "velocity": 0.6299212598425197
        },
        {
          "duration": 0.07930103958332779,
          "durationTicks": 59,
          "midi": 64,
          "name": "E4",
          "ticks": 129480,
          "time": 174.03217974999998,
          "velocity": 0.6299212598425197
        },
        {
          "duration": 0.4583331270833355,
          "durationTicks": 341,
          "midi": 59,
          "name": "B3",
          "ticks": 129840,
          "time": 174.5160505,
          "velocity": 0.6299212598425197
        },
        {
          "duration": 0.4583331270833355,
          "durationTicks": 341,
          "midi": 64,
          "name": "E4",
          "ticks": 129840,
          "time": 174.5160505,
          "velocity": 0.6299212598425197
        },
        {
          "duration": 0.4583331270833355,
          "durationTicks": 341,
          "midi": 59,
          "name": "B3",
          "ticks": 130200,
          "time": 174.99992125,
          "velocity": 0.6299212598425197
        },
        {
          "duration": 0.4583331270833355,
          "durationTicks": 341,
          "midi": 64,
          "name": "E4",
          "ticks": 130200,
          "time": 174.99992125,
          "velocity": 0.6299212598425197
        },
        {
          "duration": 0.07930103958332779,
          "durationTicks": 59,
          "midi": 59,
          "name": "B3",
          "ticks": 130560,
          "time": 175.483792,
          "velocity": 0.6299212598425197
        },
        {
          "duration": 0.07930103958332779,
          "durationTicks": 59,
          "midi": 62,
          "name": "D4",
          "ticks": 130560,
          "time": 175.483792,
          "velocity": 0.6299212598425197
        },
        {
          "duration": 0.07930103958332779,
          "durationTicks": 59,
          "midi": 67,
          "name": "G4",
          "ticks": 130560,
          "time": 175.483792,
          "velocity": 0.6299212598425197
        },
        {
          "duration": 0.4583331270833355,
          "durationTicks": 341,
          "midi": 59,
          "name": "B3",
          "ticks": 130800,
          "time": 175.8063725,
          "velocity": 0.6299212598425197
        },
        {
          "duration": 0.4583331270833355,
          "durationTicks": 341,
          "midi": 62,
          "name": "D4",
          "ticks": 130800,
          "time": 175.8063725,
          "velocity": 0.6299212598425197
        },
        {
          "duration": 0.4583331270833355,
          "durationTicks": 341,
          "midi": 67,
          "name": "G4",
          "ticks": 130800,
          "time": 175.8063725,
          "velocity": 0.6299212598425197
        },
        {
          "duration": 0.4583331270833355,
          "durationTicks": 341,
          "midi": 59,
          "name": "B3",
          "ticks": 131160,
          "time": 176.29024325,
          "velocity": 0.6299212598425197
        },
        {
          "duration": 0.4583331270833355,
          "durationTicks": 341,
          "midi": 62,
          "name": "D4",
          "ticks": 131160,
          "time": 176.29024325,
          "velocity": 0.6299212598425197
        },
        {
          "duration": 0.4583331270833355,
          "durationTicks": 341,
          "midi": 67,
          "name": "G4",
          "ticks": 131160,
          "time": 176.29024325,
          "velocity": 0.6299212598425197
        },
        {
          "duration": 0.07930103958332779,
          "durationTicks": 59,
          "midi": 59,
          "name": "B3",
          "ticks": 131520,
          "time": 176.774114,
          "velocity": 0.6299212598425197
        },
        {
          "duration": 0.07930103958332779,
          "durationTicks": 59,
          "midi": 62,
          "name": "D4",
          "ticks": 131520,
          "time": 176.774114,
          "velocity": 0.6299212598425197
        },
        {
          "duration": 0.07930103958332779,
          "durationTicks": 59,
          "midi": 67,
          "name": "G4",
          "ticks": 131520,
          "time": 176.774114,
          "velocity": 0.6299212598425197
        },
        {
          "duration": 0.30510738958335537,
          "durationTicks": 227,
          "midi": 59,
          "name": "B3",
          "ticks": 131760,
          "time": 177.09669449999998,
          "velocity": 0.6299212598425197
        },
        {
          "duration": 0.30510738958335537,
          "durationTicks": 227,
          "midi": 62,
          "name": "D4",
          "ticks": 131760,
          "time": 177.09669449999998,
          "velocity": 0.6299212598425197
        },
        {
          "duration": 0.30510738958335537,
          "durationTicks": 227,
          "midi": 67,
          "name": "G4",
          "ticks": 131760,
          "time": 177.09669449999998,
          "velocity": 0.6299212598425197
        },
        {
          "duration": 0.30510738958332695,
          "durationTicks": 227,
          "midi": 59,
          "name": "B3",
          "ticks": 132120,
          "time": 177.58056525,
          "velocity": 0.6299212598425197
        },
        {
          "duration": 0.30510738958332695,
          "durationTicks": 227,
          "midi": 62,
          "name": "D4",
          "ticks": 132120,
          "time": 177.58056525,
          "velocity": 0.6299212598425197
        },
        {
          "duration": 0.30510738958332695,
          "durationTicks": 227,
          "midi": 67,
          "name": "G4",
          "ticks": 132120,
          "time": 177.58056525,
          "velocity": 0.6299212598425197
        },
        {
          "duration": 0.07930103958332779,
          "durationTicks": 59,
          "midi": 62,
          "name": "D4",
          "ticks": 132360,
          "time": 177.90314575,
          "velocity": 0.6299212598425197
        },
        {
          "duration": 0.07930103958332779,
          "durationTicks": 59,
          "midi": 69,
          "name": "A4",
          "ticks": 132360,
          "time": 177.90314575,
          "velocity": 0.6299212598425197
        },
        {
          "duration": 0.4583331270833355,
          "durationTicks": 341,
          "midi": 62,
          "name": "D4",
          "ticks": 132720,
          "time": 178.3870165,
          "velocity": 0.6299212598425197
        },
        {
          "duration": 0.4583331270833355,
          "durationTicks": 341,
          "midi": 69,
          "name": "A4",
          "ticks": 132720,
          "time": 178.3870165,
          "velocity": 0.6299212598425197
        },
        {
          "duration": 0.30510738958332695,
          "durationTicks": 227,
          "midi": 62,
          "name": "D4",
          "ticks": 133080,
          "time": 178.87088725,
          "velocity": 0.6299212598425197
        },
        {
          "duration": 0.30510738958332695,
          "durationTicks": 227,
          "midi": 69,
          "name": "A4",
          "ticks": 133080,
          "time": 178.87088725,
          "velocity": 0.6299212598425197
        },
        {
          "duration": 0.07930103958332779,
          "durationTicks": 59,
          "midi": 63,
          "name": "D#4",
          "ticks": 133320,
          "time": 179.19346775,
          "velocity": 0.6299212598425197
        },
        {
          "duration": 0.07930103958332779,
          "durationTicks": 59,
          "midi": 66,
          "name": "F#4",
          "ticks": 133320,
          "time": 179.19346775,
          "velocity": 0.6299212598425197
        },
        {
          "duration": 0.07930103958332779,
          "durationTicks": 59,
          "midi": 69,
          "name": "A4",
          "ticks": 133320,
          "time": 179.19346775,
          "velocity": 0.6299212598425197
        },
        {
          "duration": 0.07930103958332779,
          "durationTicks": 59,
          "midi": 63,
          "name": "D#4",
          "ticks": 133560,
          "time": 179.51604824999998,
          "velocity": 0.6299212598425197
        },
        {
          "duration": 0.07930103958332779,
          "durationTicks": 59,
          "midi": 66,
          "name": "F#4",
          "ticks": 133560,
          "time": 179.51604824999998,
          "velocity": 0.6299212598425197
        },
        {
          "duration": 0.07930103958332779,
          "durationTicks": 59,
          "midi": 69,
          "name": "A4",
          "ticks": 133560,
          "time": 179.51604824999998,
          "velocity": 0.6299212598425197
        },
        {
          "duration": 0.4583331270833355,
          "durationTicks": 341,
          "midi": 63,
          "name": "D#4",
          "ticks": 133680,
          "time": 179.6773385,
          "velocity": 0.6299212598425197
        },
        {
          "duration": 0.4583331270833355,
          "durationTicks": 341,
          "midi": 66,
          "name": "F#4",
          "ticks": 133680,
          "time": 179.6773385,
          "velocity": 0.6299212598425197
        },
        {
          "duration": 0.4583331270833355,
          "durationTicks": 341,
          "midi": 69,
          "name": "A4",
          "ticks": 133680,
          "time": 179.6773385,
          "velocity": 0.6299212598425197
        },
        {
          "duration": 0.4583331270833355,
          "durationTicks": 341,
          "midi": 63,
          "name": "D#4",
          "ticks": 134040,
          "time": 180.16120924999998,
          "velocity": 0.6299212598425197
        },
        {
          "duration": 0.4583331270833355,
          "durationTicks": 341,
          "midi": 66,
          "name": "F#4",
          "ticks": 134040,
          "time": 180.16120924999998,
          "velocity": 0.6299212598425197
        },
        {
          "duration": 0.4583331270833355,
          "durationTicks": 341,
          "midi": 69,
          "name": "A4",
          "ticks": 134040,
          "time": 180.16120924999998,
          "velocity": 0.6299212598425197
        },
        {
          "duration": 0.4583331270833355,
          "durationTicks": 341,
          "midi": 62,
          "name": "D4",
          "ticks": 134640,
          "time": 180.9676605,
          "velocity": 0.6299212598425197
        },
        {
          "duration": 0.4583331270833355,
          "durationTicks": 341,
          "midi": 67,
          "name": "G4",
          "ticks": 134640,
          "time": 180.9676605,
          "velocity": 0.6299212598425197
        },
        {
          "duration": 0.4583331270833355,
          "durationTicks": 341,
          "midi": 62,
          "name": "D4",
          "ticks": 135000,
          "time": 181.45153125,
          "velocity": 0.6299212598425197
        },
        {
          "duration": 0.4583331270833355,
          "durationTicks": 341,
          "midi": 67,
          "name": "G4",
          "ticks": 135000,
          "time": 181.45153125,
          "velocity": 0.6299212598425197
        },
        {
          "duration": 0.4583331270833355,
          "durationTicks": 341,
          "midi": 62,
          "name": "D4",
          "ticks": 135600,
          "time": 182.2579825,
          "velocity": 0.6299212598425197
        },
        {
          "duration": 0.4583331270833355,
          "durationTicks": 341,
          "midi": 67,
          "name": "G4",
          "ticks": 135600,
          "time": 182.2579825,
          "velocity": 0.6299212598425197
        },
        {
          "duration": 0.4583331270833355,
          "durationTicks": 341,
          "midi": 61,
          "name": "C#4",
          "ticks": 135960,
          "time": 182.74185325,
          "velocity": 0.6299212598425197
        },
        {
          "duration": 0.4583331270833355,
          "durationTicks": 341,
          "midi": 66,
          "name": "F#4",
          "ticks": 135960,
          "time": 182.74185325,
          "velocity": 0.6299212598425197
        },
        {
          "duration": 0.4583331270833355,
          "durationTicks": 341,
          "midi": 60,
          "name": "C4",
          "ticks": 136560,
          "time": 183.5483045,
          "velocity": 0.6299212598425197
        },
        {
          "duration": 0.4583331270833355,
          "durationTicks": 341,
          "midi": 65,
          "name": "F4",
          "ticks": 136560,
          "time": 183.5483045,
          "velocity": 0.6299212598425197
        },
        {
          "duration": 0.30510738958332695,
          "durationTicks": 227,
          "midi": 60,
          "name": "C4",
          "ticks": 136920,
          "time": 184.03217525,
          "velocity": 0.6299212598425197
        },
        {
          "duration": 0.30510738958332695,
          "durationTicks": 227,
          "midi": 65,
          "name": "F4",
          "ticks": 136920,
          "time": 184.03217525,
          "velocity": 0.6299212598425197
        },
        {
          "duration": 0.07930103958329937,
          "durationTicks": 59,
          "midi": 60,
          "name": "C4",
          "ticks": 137160,
          "time": 184.35475575,
          "velocity": 0.6299212598425197
        },
        {
          "duration": 0.07930103958329937,
          "durationTicks": 59,
          "midi": 65,
          "name": "F4",
          "ticks": 137160,
          "time": 184.35475575,
          "velocity": 0.6299212598425197
        },
        {
          "duration": 0.15188165208331839,
          "durationTicks": 113,
          "midi": 59,
          "name": "B3",
          "ticks": 137280,
          "time": 184.516046,
          "velocity": 0.6299212598425197
        },
        {
          "duration": 0.15188165208331839,
          "durationTicks": 113,
          "midi": 64,
          "name": "E4",
          "ticks": 137280,
          "time": 184.516046,
          "velocity": 0.6299212598425197
        },
        {
          "duration": 0.1518816520833468,
          "durationTicks": 113,
          "midi": 59,
          "name": "B3",
          "ticks": 137640,
          "time": 184.99991674999998,
          "velocity": 0.6299212598425197
        },
        {
          "duration": 0.15188165208331839,
          "durationTicks": 113,
          "midi": 64,
          "name": "E4",
          "ticks": 137760,
          "time": 185.161207,
          "velocity": 0.6299212598425197
        },
        {
          "duration": 0.15188165208331839,
          "durationTicks": 113,
          "midi": 62,
          "name": "D4",
          "ticks": 137880,
          "time": 185.32249725,
          "velocity": 0.6299212598425197
        },
        {
          "duration": 0.15188165208331839,
          "durationTicks": 113,
          "midi": 59,
          "name": "B3",
          "ticks": 138000,
          "time": 185.4837875,
          "velocity": 0.6299212598425197
        },
        {
          "duration": 0.1518816520833468,
          "durationTicks": 113,
          "midi": 57,
          "name": "A3",
          "ticks": 138120,
          "time": 185.64507774999998,
          "velocity": 0.6299212598425197
        },
        {
          "duration": 0.30510738958332695,
          "durationTicks": 227,
          "midi": 86,
          "name": "D6",
          "ticks": 138720,
          "time": 186.451529,
          "velocity": 0.6299212598425197
        },
        {
          "duration": 0.30510738958332695,
          "durationTicks": 227,
          "midi": 86,
          "name": "D6",
          "ticks": 138960,
          "time": 186.7741095,
          "velocity": 0.6299212598425197
        },
        {
          "duration": 0.6115588645833441,
          "durationTicks": 455,
          "midi": 91,
          "name": "G6",
          "ticks": 139200,
          "time": 187.09669,
          "velocity": 0.6299212598425197
        },
        {
          "duration": 0.6115588645833441,
          "durationTicks": 455,
          "midi": 79,
          "name": "G5",
          "ticks": 139680,
          "time": 187.741851,
          "velocity": 0.6299212598425197
        },
        {
          "duration": 0.4583331270833355,
          "durationTicks": 341,
          "midi": 81,
          "name": "A5",
          "ticks": 140160,
          "time": 188.387012,
          "velocity": 0.6299212598425197
        },
        {
          "duration": 1.22446181458335,
          "durationTicks": 911,
          "midi": 83,
          "name": "B5",
          "ticks": 140520,
          "time": 188.87088275,
          "velocity": 0.6299212598425197
        },
        {
          "duration": 0.30510738958332695,
          "durationTicks": 227,
          "midi": 81,
          "name": "A5",
          "ticks": 141600,
          "time": 190.322495,
          "velocity": 0.6299212598425197
        },
        {
          "duration": 0.30510738958332695,
          "durationTicks": 227,
          "midi": 79,
          "name": "G5",
          "ticks": 141840,
          "time": 190.6450755,
          "velocity": 0.6299212598425197
        },
        {
          "duration": 0.4583331270833355,
          "durationTicks": 341,
          "midi": 81,
          "name": "A5",
          "ticks": 142080,
          "time": 190.967656,
          "velocity": 0.6299212598425197
        },
        {
          "duration": 1.2244618145833215,
          "durationTicks": 911,
          "midi": 79,
          "name": "G5",
          "ticks": 142440,
          "time": 191.45152675,
          "velocity": 0.6299212598425197
        },
        {
          "duration": 0.30510738958332695,
          "durationTicks": 227,
          "midi": 54,
          "name": "F#3",
          "ticks": 143640,
          "time": 193.06442925,
          "velocity": 0.6299212598425197
        },
        {
          "duration": 0.30510738958332695,
          "durationTicks": 227,
          "midi": 61,
          "name": "C#4",
          "ticks": 143640,
          "time": 193.06442925,
          "velocity": 0.6299212598425197
        },
        {
          "duration": 0.15188165208331839,
          "durationTicks": 113,
          "midi": 79,
          "name": "G5",
          "ticks": 143880,
          "time": 193.38700975,
          "velocity": 0.6299212598425197
        },
        {
          "duration": 0.30510738958335537,
          "durationTicks": 227,
          "midi": 81,
          "name": "A5",
          "ticks": 144000,
          "time": 193.54829999999998,
          "velocity": 0.6299212598425197
        },
        {
          "duration": 0.15188165208331839,
          "durationTicks": 113,
          "midi": 79,
          "name": "G5",
          "ticks": 144240,
          "time": 193.8708805,
          "velocity": 0.6299212598425197
        },
        {
          "duration": 0.30510738958332695,
          "durationTicks": 227,
          "midi": 81,
          "name": "A5",
          "ticks": 144360,
          "time": 194.03217075,
          "velocity": 0.6299212598425197
        },
        {
          "duration": 0.30510738958332695,
          "durationTicks": 227,
          "midi": 83,
          "name": "B5",
          "ticks": 144600,
          "time": 194.35475125,
          "velocity": 0.6299212598425197
        },
        {
          "duration": 0.30510738958332695,
          "durationTicks": 227,
          "midi": 84,
          "name": "C6",
          "ticks": 144840,
          "time": 194.67733175,
          "velocity": 0.6299212598425197
        },
        {
          "duration": 0.30510738958332695,
          "durationTicks": 227,
          "midi": 83,
          "name": "B5",
          "ticks": 145080,
          "time": 194.99991225,
          "velocity": 0.6299212598425197
        },
        {
          "duration": 0.30510738958332695,
          "durationTicks": 227,
          "midi": 81,
          "name": "A5",
          "ticks": 145320,
          "time": 195.32249275,
          "velocity": 0.6299212598425197
        },
        {
          "duration": 0.30510738958332695,
          "durationTicks": 227,
          "midi": 79,
          "name": "G5",
          "ticks": 145560,
          "time": 195.64507325,
          "velocity": 0.6299212598425197
        },
        {
          "duration": 0.07526878333334253,
          "durationTicks": 56,
          "midi": 74,
          "name": "D5",
          "ticks": 145800,
          "time": 195.96765374999998,
          "velocity": 0.6299212598425197
        },
        {
          "duration": 0.07526878333334253,
          "durationTicks": 56,
          "midi": 75,
          "name": "D#5",
          "ticks": 145860,
          "time": 196.048298875,
          "velocity": 0.6299212598425197
        },
        {
          "duration": 0.30510738958332695,
          "durationTicks": 227,
          "midi": 76,
          "name": "E5",
          "ticks": 145920,
          "time": 196.128944,
          "velocity": 0.6299212598425197
        },
        {
          "duration": 0.15188165208331839,
          "durationTicks": 113,
          "midi": 79,
          "name": "G5",
          "ticks": 146160,
          "time": 196.4515245,
          "velocity": 0.6299212598425197
        },
        {
          "duration": 1.22446181458335,
          "durationTicks": 911,
          "midi": 79,
          "name": "G5",
          "ticks": 146280,
          "time": 196.61281474999998,
          "velocity": 0.6299212598425197
        },
        {
          "duration": 0.15188165208331839,
          "durationTicks": 113,
          "midi": 74,
          "name": "D5",
          "ticks": 147240,
          "time": 197.90313675,
          "velocity": 0.6299212598425197
        },
        {
          "duration": 0.2284945208333511,
          "durationTicks": 170,
          "midi": 76,
          "name": "E5",
          "ticks": 147360,
          "time": 198.064427,
          "velocity": 0.6299212598425197
        },
        {
          "duration": 0.2284945208333511,
          "durationTicks": 170,
          "midi": 79,
          "name": "G5",
          "ticks": 147540,
          "time": 198.306362375,
          "velocity": 0.6299212598425197
        },
        {
          "duration": 0.15188165208331839,
          "durationTicks": 113,
          "midi": 83,
          "name": "B5",
          "ticks": 147720,
          "time": 198.54829775,
          "velocity": 0.6299212598425197
        },
        {
          "duration": 1.22446181458335,
          "durationTicks": 911,
          "midi": 81,
          "name": "A5",
          "ticks": 147840,
          "time": 198.709588,
          "velocity": 0.6299212598425197
        },
        {
          "duration": 0.6115588645833441,
          "durationTicks": 455,
          "midi": 86,
          "name": "D6",
          "ticks": 148800,
          "time": 199.99991,
          "velocity": 0.6299212598425197
        },
        {
          "duration": 0.6115588645833441,
          "durationTicks": 455,
          "midi": 88,
          "name": "E6",
          "ticks": 149280,
          "time": 200.645071,
          "velocity": 0.6299212598425197
        },
        {
          "duration": 0.4583331270833355,
          "durationTicks": 341,
          "midi": 81,
          "name": "A5",
          "ticks": 149760,
          "time": 201.290232,
          "velocity": 0.6299212598425197
        },
        {
          "duration": 1.22446181458335,
          "durationTicks": 911,
          "midi": 83,
          "name": "B5",
          "ticks": 150120,
          "time": 201.77410275,
          "velocity": 0.6299212598425197
        },
        {
          "duration": 0.30510738958332695,
          "durationTicks": 227,
          "midi": 54,
          "name": "F#3",
          "ticks": 151320,
          "time": 203.38700525,
          "velocity": 0.6299212598425197
        },
        {
          "duration": 0.30510738958332695,
          "durationTicks": 227,
          "midi": 61,
          "name": "C#4",
          "ticks": 151320,
          "time": 203.38700525,
          "velocity": 0.6299212598425197
        },
        {
          "duration": 0.15188165208331839,
          "durationTicks": 113,
          "midi": 84,
          "name": "C6",
          "ticks": 151560,
          "time": 203.70958575,
          "velocity": 0.6299212598425197
        },
        {
          "duration": 0.30510738958335537,
          "durationTicks": 227,
          "midi": 84,
          "name": "C6",
          "ticks": 151680,
          "time": 203.87087599999998,
          "velocity": 0.6299212598425197
        },
        {
          "duration": 0.15188165208331839,
          "durationTicks": 113,
          "midi": 83,
          "name": "B5",
          "ticks": 151920,
          "time": 204.1934565,
          "velocity": 0.6299212598425197
        },
        {
          "duration": 0.30510738958332695,
          "durationTicks": 227,
          "midi": 84,
          "name": "C6",
          "ticks": 152040,
          "time": 204.35474675,
          "velocity": 0.6299212598425197
        },
        {
          "duration": 0.30510738958332695,
          "durationTicks": 227,
          "midi": 86,
          "name": "D6",
          "ticks": 152280,
          "time": 204.67732725,
          "velocity": 0.6299212598425197
        },
        {
          "duration": 0.30510738958332695,
          "durationTicks": 227,
          "midi": 88,
          "name": "E6",
          "ticks": 152520,
          "time": 204.99990775,
          "velocity": 0.6299212598425197
        },
        {
          "duration": 0.30510738958332695,
          "durationTicks": 227,
          "midi": 86,
          "name": "D6",
          "ticks": 152760,
          "time": 205.32248825,
          "velocity": 0.6299212598425197
        },
        {
          "duration": 0.30510738958332695,
          "durationTicks": 227,
          "midi": 84,
          "name": "C6",
          "ticks": 153000,
          "time": 205.64506875,
          "velocity": 0.6299212598425197
        },
        {
          "duration": 0.30510738958332695,
          "durationTicks": 227,
          "midi": 83,
          "name": "B5",
          "ticks": 153240,
          "time": 205.96764925,
          "velocity": 0.6299212598425197
        },
        {
          "duration": 0.06317201458332988,
          "durationTicks": 47,
          "midi": 78,
          "name": "F#5",
          "ticks": 153480,
          "time": 206.29022975,
          "velocity": 0.6299212598425197
        },
        {
          "duration": 0.24327946041665882,
          "durationTicks": 181,
          "midi": 79,
          "name": "G5",
          "ticks": 153528,
          "time": 206.35474585,
          "velocity": 0.6299212598425197
        },
        {
          "duration": 0.15188165208331839,
          "durationTicks": 113,
          "midi": 81,
          "name": "A5",
          "ticks": 153720,
          "time": 206.61281025,
          "velocity": 0.6299212598425197
        },
        {
          "duration": 0.15188165208331839,
          "durationTicks": 113,
          "midi": 79,
          "name": "G5",
          "ticks": 153840,
          "time": 206.7741005,
          "velocity": 0.6299212598425197
        },
        {
          "duration": 1.22446181458335,
          "durationTicks": 911,
          "midi": 79,
          "name": "G5",
          "ticks": 153960,
          "time": 206.93539074999998,
          "velocity": 0.6299212598425197
        },
        {
          "duration": 0.1518816520833468,
          "durationTicks": 113,
          "midi": 71,
          "name": "B4",
          "ticks": 154920,
          "time": 208.22571274999999,
          "velocity": 0.6299212598425197
        },
        {
          "duration": 0.2284945208333511,
          "durationTicks": 170,
          "midi": 71,
          "name": "B4",
          "ticks": 155040,
          "time": 208.387003,
          "velocity": 0.6299212598425197
        },
        {
          "duration": 0.2284945208333511,
          "durationTicks": 170,
          "midi": 78,
          "name": "F#5",
          "ticks": 155220,
          "time": 208.628938375,
          "velocity": 0.6299212598425197
        },
        {
          "duration": 0.15188165208331839,
          "durationTicks": 113,
          "midi": 79,
          "name": "G5",
          "ticks": 155400,
          "time": 208.87087375,
          "velocity": 0.6299212598425197
        },
        {
          "duration": 0.30510738958332695,
          "durationTicks": 227,
          "midi": 81,
          "name": "A5",
          "ticks": 155520,
          "time": 209.032164,
          "velocity": 0.6299212598425197
        },
        {
          "duration": 0.1518816520833468,
          "durationTicks": 113,
          "midi": 79,
          "name": "G5",
          "ticks": 155760,
          "time": 209.35474449999998,
          "velocity": 0.6299212598425197
        },
        {
          "duration": 0.30510738958332695,
          "durationTicks": 227,
          "midi": 79,
          "name": "G5",
          "ticks": 155880,
          "time": 209.51603475,
          "velocity": 0.6299212598425197
        },
        {
          "duration": 0.30510738958332695,
          "durationTicks": 227,
          "midi": 81,
          "name": "A5",
          "ticks": 156120,
          "time": 209.83861525,
          "velocity": 0.6299212598425197
        },
        {
          "duration": 0.06317201458332988,
          "durationTicks": 47,
          "midi": 83,
          "name": "B5",
          "ticks": 156360,
          "time": 210.16119575,
          "velocity": 0.6299212598425197
        },
        {
          "duration": 0.24327946041665882,
          "durationTicks": 181,
          "midi": 84,
          "name": "C6",
          "ticks": 156408,
          "time": 210.22571185,
          "velocity": 0.6299212598425197
        },
        {
          "duration": 0.30510738958332695,
          "durationTicks": 227,
          "midi": 83,
          "name": "B5",
          "ticks": 156600,
          "time": 210.48377625,
          "velocity": 0.6299212598425197
        },
        {
          "duration": 0.30510738958332695,
          "durationTicks": 227,
          "midi": 81,
          "name": "A5",
          "ticks": 156840,
          "time": 210.80635675,
          "velocity": 0.6299212598425197
        },
        {
          "duration": 0.30510738958332695,
          "durationTicks": 227,
          "midi": 79,
          "name": "G5",
          "ticks": 157080,
          "time": 211.12893725,
          "velocity": 0.6299212598425197
        },
        {
          "duration": 0.15188165208331839,
          "durationTicks": 113,
          "midi": 81,
          "name": "A5",
          "ticks": 157320,
          "time": 211.45151775,
          "velocity": 0.6299212598425197
        },
        {
          "duration": 0.30510738958332695,
          "durationTicks": 227,
          "midi": 81,
          "name": "A5",
          "ticks": 157440,
          "time": 211.612808,
          "velocity": 0.6299212598425197
        },
        {
          "duration": 0.15188165208331839,
          "durationTicks": 113,
          "midi": 82,
          "name": "A#5",
          "ticks": 157680,
          "time": 211.9353885,
          "velocity": 0.6299212598425197
        },
        {
          "duration": 1.22446181458335,
          "durationTicks": 911,
          "midi": 83,
          "name": "B5",
          "ticks": 157800,
          "time": 212.09667875,
          "velocity": 0.6299212598425197
        },
        {
          "duration": 0.30510738958332695,
          "durationTicks": 227,
          "midi": 81,
          "name": "A5",
          "ticks": 158880,
          "time": 213.548291,
          "velocity": 0.6299212598425197
        },
        {
          "duration": 0.30510738958332695,
          "durationTicks": 227,
          "midi": 79,
          "name": "G5",
          "ticks": 159120,
          "time": 213.8708715,
          "velocity": 0.6299212598425197
        },
        {
          "duration": 0.30510738958332695,
          "durationTicks": 227,
          "midi": 81,
          "name": "A5",
          "ticks": 159360,
          "time": 214.193452,
          "velocity": 0.6299212598425197
        },
        {
          "duration": 0.15188165208331839,
          "durationTicks": 113,
          "midi": 79,
          "name": "G5",
          "ticks": 159600,
          "time": 214.5160325,
          "velocity": 0.6299212598425197
        },
        {
          "duration": 0.30510738958332695,
          "durationTicks": 227,
          "midi": 81,
          "name": "A5",
          "ticks": 159720,
          "time": 214.67732275,
          "velocity": 0.6299212598425197
        },
        {
          "duration": 0.30510738958332695,
          "durationTicks": 227,
          "midi": 83,
          "name": "B5",
          "ticks": 159960,
          "time": 214.99990325,
          "velocity": 0.6299212598425197
        },
        {
          "duration": 0.30510738958332695,
          "durationTicks": 227,
          "midi": 84,
          "name": "C6",
          "ticks": 160200,
          "time": 215.32248375,
          "velocity": 0.6299212598425197
        },
        {
          "duration": 0.30510738958332695,
          "durationTicks": 227,
          "midi": 83,
          "name": "B5",
          "ticks": 160440,
          "time": 215.64506425,
          "velocity": 0.6299212598425197
        },
        {
          "duration": 0.30510738958332695,
          "durationTicks": 227,
          "midi": 81,
          "name": "A5",
          "ticks": 160680,
          "time": 215.96764475,
          "velocity": 0.6299212598425197
        },
        {
          "duration": 0.30510738958332695,
          "durationTicks": 227,
          "midi": 79,
          "name": "G5",
          "ticks": 160920,
          "time": 216.29022525,
          "velocity": 0.6299212598425197
        },
        {
          "duration": 0.0752687833333141,
          "durationTicks": 56,
          "midi": 74,
          "name": "D5",
          "ticks": 161160,
          "time": 216.61280575,
          "velocity": 0.6299212598425197
        },
        {
          "duration": 0.07526878333334253,
          "durationTicks": 56,
          "midi": 75,
          "name": "D#5",
          "ticks": 161220,
          "time": 216.693450875,
          "velocity": 0.6299212598425197
        },
        {
          "duration": 0.4583331270833355,
          "durationTicks": 341,
          "midi": 76,
          "name": "E5",
          "ticks": 161280,
          "time": 216.774096,
          "velocity": 0.6299212598425197
        },
        {
          "duration": 1.2244618145833215,
          "durationTicks": 911,
          "midi": 79,
          "name": "G5",
          "ticks": 161640,
          "time": 217.25796675,
          "velocity": 0.6299212598425197
        },
        {
          "duration": 0.1518816520833468,
          "durationTicks": 113,
          "midi": 74,
          "name": "D5",
          "ticks": 162600,
          "time": 218.54828874999998,
          "velocity": 0.6299212598425197
        },
        {
          "duration": 0.2284945208333511,
          "durationTicks": 170,
          "midi": 76,
          "name": "E5",
          "ticks": 162720,
          "time": 218.709579,
          "velocity": 0.6299212598425197
        },
        {
          "duration": 0.2284945208333511,
          "durationTicks": 170,
          "midi": 79,
          "name": "G5",
          "ticks": 162900,
          "time": 218.951514375,
          "velocity": 0.6299212598425197
        },
        {
          "duration": 0.1518816520833468,
          "durationTicks": 113,
          "midi": 83,
          "name": "B5",
          "ticks": 163080,
          "time": 219.19344974999998,
          "velocity": 0.6299212598425197
        },
        {
          "duration": 0.9180103395833328,
          "durationTicks": 683,
          "midi": 81,
          "name": "A5",
          "ticks": 163200,
          "time": 219.35474,
          "velocity": 0.6299212598425197
        },
        {
          "duration": 0.15188165208331839,
          "durationTicks": 113,
          "midi": 81,
          "name": "A5",
          "ticks": 164040,
          "time": 220.48377175,
          "velocity": 0.6299212598425197
        },
        {
          "duration": 0.6115588645833441,
          "durationTicks": 455,
          "midi": 86,
          "name": "D6",
          "ticks": 164160,
          "time": 220.645062,
          "velocity": 0.6299212598425197
        },
        {
          "duration": 0.6115588645833441,
          "durationTicks": 455,
          "midi": 88,
          "name": "E6",
          "ticks": 164640,
          "time": 221.290223,
          "velocity": 0.6299212598425197
        },
        {
          "duration": 0.4583331270833355,
          "durationTicks": 341,
          "midi": 81,
          "name": "A5",
          "ticks": 165120,
          "time": 221.935384,
          "velocity": 0.6299212598425197
        },
        {
          "duration": 0.06317201458332988,
          "durationTicks": 47,
          "midi": 82,
          "name": "A#5",
          "ticks": 165480,
          "time": 222.41925475,
          "velocity": 0.6299212598425197
        },
        {
          "duration": 1.1626338854166534,
          "durationTicks": 865,
          "midi": 83,
          "name": "B5",
          "ticks": 165528,
          "time": 222.48377085,
          "velocity": 0.6299212598425197
        },
        {
          "duration": 0.15188165208331839,
          "durationTicks": 113,
          "midi": 83,
          "name": "B5",
          "ticks": 166440,
          "time": 223.70957675,
          "velocity": 0.6299212598425197
        },
        {
          "duration": 0.22849452083332267,
          "durationTicks": 170,
          "midi": 83,
          "name": "B5",
          "ticks": 166560,
          "time": 223.870867,
          "velocity": 0.6299212598425197
        },
        {
          "duration": 0.2284945208333511,
          "durationTicks": 170,
          "midi": 90,
          "name": "F#6",
          "ticks": 166740,
          "time": 224.112802375,
          "velocity": 0.6299212598425197
        },
        {
          "duration": 0.15188165208331839,
          "durationTicks": 113,
          "midi": 91,
          "name": "G6",
          "ticks": 166920,
          "time": 224.35473775,
          "velocity": 0.6299212598425197
        },
        {
          "duration": 0.06317201458332988,
          "durationTicks": 47,
          "midi": 92,
          "name": "G#6",
          "ticks": 167040,
          "time": 224.516028,
          "velocity": 0.6299212598425197
        },
        {
          "duration": 0.24327946041665882,
          "durationTicks": 181,
          "midi": 93,
          "name": "A6",
          "ticks": 167088,
          "time": 224.5805441,
          "velocity": 0.6299212598425197
        },
        {
          "duration": 0.15188165208331839,
          "durationTicks": 113,
          "midi": 91,
          "name": "G6",
          "ticks": 167280,
          "time": 224.8386085,
          "velocity": 0.6299212598425197
        },
        {
          "duration": 0.30510738958332695,
          "durationTicks": 227,
          "midi": 91,
          "name": "G6",
          "ticks": 167400,
          "time": 224.99989875,
          "velocity": 0.6299212598425197
        },
        {
          "duration": 0.30510738958332695,
          "durationTicks": 227,
          "midi": 93,
          "name": "A6",
          "ticks": 167640,
          "time": 225.32247925,
          "velocity": 0.6299212598425197
        },
        {
          "duration": 0.30510738958332695,
          "durationTicks": 227,
          "midi": 96,
          "name": "C7",
          "ticks": 167880,
          "time": 225.64505975,
          "velocity": 0.6299212598425197
        },
        {
          "duration": 0.30510738958332695,
          "durationTicks": 227,
          "midi": 95,
          "name": "B6",
          "ticks": 168120,
          "time": 225.96764025,
          "velocity": 0.6299212598425197
        },
        {
          "duration": 0.30510738958332695,
          "durationTicks": 227,
          "midi": 93,
          "name": "A6",
          "ticks": 168360,
          "time": 226.29022075,
          "velocity": 0.6299212598425197
        },
        {
          "duration": 0.30510738958332695,
          "durationTicks": 227,
          "midi": 91,
          "name": "G6",
          "ticks": 168600,
          "time": 226.61280125,
          "velocity": 0.6299212598425197
        },
        {
          "duration": 0.15188165208331839,
          "durationTicks": 113,
          "midi": 83,
          "name": "B5",
          "ticks": 169320,
          "time": 227.58054275,
          "velocity": 0.6299212598425197
        },
        {
          "duration": 0.4583331270833355,
          "durationTicks": 341,
          "midi": 83,
          "name": "B5",
          "ticks": 169440,
          "time": 227.74183299999999,
          "velocity": 0.6299212598425197
        },
        {
          "duration": 0.15188165208331839,
          "durationTicks": 113,
          "midi": 83,
          "name": "B5",
          "ticks": 169800,
          "time": 228.22570375,
          "velocity": 0.6299212598425197
        },
        {
          "duration": 0.30510738958332695,
          "durationTicks": 227,
          "midi": 83,
          "name": "B5",
          "ticks": 169920,
          "time": 228.386994,
          "velocity": 0.6299212598425197
        },
        {
          "duration": 0.15188165208331839,
          "durationTicks": 113,
          "midi": 83,
          "name": "B5",
          "ticks": 170160,
          "time": 228.7095745,
          "velocity": 0.6299212598425197
        },
        {
          "duration": 0.30510738958335537,
          "durationTicks": 227,
          "midi": 83,
          "name": "B5",
          "ticks": 170280,
          "time": 228.87086474999998,
          "velocity": 0.6299212598425197
        },
        {
          "duration": 0.30510738958332695,
          "durationTicks": 227,
          "midi": 83,
          "name": "B5",
          "ticks": 170520,
          "time": 229.19344525,
          "velocity": 0.6299212598425197
        },
        {
          "duration": 0.30510738958335537,
          "durationTicks": 227,
          "midi": 81,
          "name": "A5",
          "ticks": 170760,
          "time": 229.51602574999998,
          "velocity": 0.6299212598425197
        },
        {
          "duration": 0.30510738958332695,
          "durationTicks": 227,
          "midi": 79,
          "name": "G5",
          "ticks": 171000,
          "time": 229.83860625,
          "velocity": 0.6299212598425197
        },
        {
          "duration": 0.30510738958332695,
          "durationTicks": 227,
          "midi": 81,
          "name": "A5",
          "ticks": 171240,
          "time": 230.16118674999998,
          "velocity": 0.6299212598425197
        },
        {
          "duration": 0.30510738958332695,
          "durationTicks": 227,
          "midi": 79,
          "name": "G5",
          "ticks": 171480,
          "time": 230.48376725,
          "velocity": 0.6299212598425197
        },
        {
          "duration": 0.6115588645833441,
          "durationTicks": 455,
          "midi": 83,
          "name": "B5",
          "ticks": 171720,
          "time": 230.80634775,
          "velocity": 0.6299212598425197
        },
        {
          "duration": 0.15188165208331839,
          "durationTicks": 113,
          "midi": 83,
          "name": "B5",
          "ticks": 172200,
          "time": 231.45150875,
          "velocity": 0.6299212598425197
        },
        {
          "duration": 0.15188165208331839,
          "durationTicks": 113,
          "midi": 81,
          "name": "A5",
          "ticks": 172320,
          "time": 231.612799,
          "velocity": 0.6299212598425197
        },
        {
          "duration": 0.15188165208331839,
          "durationTicks": 113,
          "midi": 79,
          "name": "G5",
          "ticks": 172440,
          "time": 231.77408925,
          "velocity": 0.6299212598425197
        },
        {
          "duration": 0.30510738958335537,
          "durationTicks": 227,
          "midi": 79,
          "name": "G5",
          "ticks": 172560,
          "time": 231.93537949999998,
          "velocity": 0.6299212598425197
        },
        {
          "duration": 0.4583331270833355,
          "durationTicks": 341,
          "midi": 78,
          "name": "F#5",
          "ticks": 172800,
          "time": 232.25796,
          "velocity": 0.6299212598425197
        },
        {
          "duration": 0.6115588645833441,
          "durationTicks": 455,
          "midi": 79,
          "name": "G5",
          "ticks": 173160,
          "time": 232.74183075,
          "velocity": 0.6299212598425197
        },
        {
          "duration": 0.15188165208331839,
          "durationTicks": 113,
          "midi": 79,
          "name": "G5",
          "ticks": 174120,
          "time": 234.03215275,
          "velocity": 0.6299212598425197
        },
        {
          "duration": 0.15188165208331839,
          "durationTicks": 113,
          "midi": 81,
          "name": "A5",
          "ticks": 174240,
          "time": 234.193443,
          "velocity": 0.6299212598425197
        },
        {
          "duration": 0.1518816520833468,
          "durationTicks": 113,
          "midi": 79,
          "name": "G5",
          "ticks": 174360,
          "time": 234.35473324999998,
          "velocity": 0.6299212598425197
        },
        {
          "duration": 0.30510738958332695,
          "durationTicks": 227,
          "midi": 79,
          "name": "G5",
          "ticks": 174480,
          "time": 234.5160235,
          "velocity": 0.6299212598425197
        },
        {
          "duration": 0.30510738958332695,
          "durationTicks": 227,
          "midi": 81,
          "name": "A5",
          "ticks": 174720,
          "time": 234.838604,
          "velocity": 0.6299212598425197
        },
        {
          "duration": 0.15188165208331839,
          "durationTicks": 113,
          "midi": 79,
          "name": "G5",
          "ticks": 174960,
          "time": 235.1611845,
          "velocity": 0.6299212598425197
        },
        {
          "duration": 0.15188165208331839,
          "durationTicks": 113,
          "midi": 81,
          "name": "A5",
          "ticks": 175080,
          "time": 235.32247475,
          "velocity": 0.6299212598425197
        },
        {
          "duration": 0.1518816520833468,
          "durationTicks": 113,
          "midi": 79,
          "name": "G5",
          "ticks": 175320,
          "time": 235.64505524999998,
          "velocity": 0.6299212598425197
        },
        {
          "duration": 0.30510738958332695,
          "durationTicks": 227,
          "midi": 84,
          "name": "C6",
          "ticks": 175560,
          "time": 235.96763575,
          "velocity": 0.6299212598425197
        },
        {
          "duration": 0.30510738958332695,
          "durationTicks": 227,
          "midi": 83,
          "name": "B5",
          "ticks": 175800,
          "time": 236.29021625,
          "velocity": 0.6299212598425197
        },
        {
          "duration": 0.30510738958332695,
          "durationTicks": 227,
          "midi": 81,
          "name": "A5",
          "ticks": 176040,
          "time": 236.61279675,
          "velocity": 0.6299212598425197
        },
        {
          "duration": 0.4583331270833355,
          "durationTicks": 341,
          "midi": 79,
          "name": "G5",
          "ticks": 176280,
          "time": 236.93537725,
          "velocity": 0.6299212598425197
        },
        {
          "duration": 0.15188165208331839,
          "durationTicks": 113,
          "midi": 86,
          "name": "D6",
          "ticks": 177000,
          "time": 237.90311875,
          "velocity": 0.6299212598425197
        },
        {
          "duration": 0.30510738958335537,
          "durationTicks": 227,
          "midi": 86,
          "name": "D6",
          "ticks": 177120,
          "time": 238.06440899999998,
          "velocity": 0.6299212598425197
        },
        {
          "duration": 0.30510738958332695,
          "durationTicks": 227,
          "midi": 86,
          "name": "D6",
          "ticks": 177360,
          "time": 238.3869895,
          "velocity": 0.6299212598425197
        },
        {
          "duration": 0.30510738958332695,
          "durationTicks": 227,
          "midi": 86,
          "name": "D6",
          "ticks": 177600,
          "time": 238.70956999999999,
          "velocity": 0.6299212598425197
        },
        {
          "duration": 0.15188165208331839,
          "durationTicks": 113,
          "midi": 86,
          "name": "D6",
          "ticks": 177840,
          "time": 239.0321505,
          "velocity": 0.6299212598425197
        },
        {
          "duration": 0.15188165208331839,
          "durationTicks": 113,
          "midi": 86,
          "name": "D6",
          "ticks": 177960,
          "time": 239.19344075,
          "velocity": 0.6299212598425197
        },
        {
          "duration": 0.30510738958332695,
          "durationTicks": 227,
          "midi": 86,
          "name": "D6",
          "ticks": 178080,
          "time": 239.354731,
          "velocity": 0.6299212598425197
        },
        {
          "duration": 0.15188165208331839,
          "durationTicks": 113,
          "midi": 79,
          "name": "G5",
          "ticks": 178320,
          "time": 239.6773115,
          "velocity": 0.6299212598425197
        },
        {
          "duration": 0.45833312708336393,
          "durationTicks": 341,
          "midi": 81,
          "name": "A5",
          "ticks": 178440,
          "time": 239.83860174999998,
          "velocity": 0.6299212598425197
        },
        {
          "duration": 0.15188165208331839,
          "durationTicks": 113,
          "midi": 79,
          "name": "G5",
          "ticks": 178800,
          "time": 240.3224725,
          "velocity": 0.6299212598425197
        },
        {
          "duration": 0.30510738958335537,
          "durationTicks": 227,
          "midi": 81,
          "name": "A5",
          "ticks": 178920,
          "time": 240.48376274999998,
          "velocity": 0.6299212598425197
        },
        {
          "duration": 0.30510738958332695,
          "durationTicks": 227,
          "midi": 79,
          "name": "G5",
          "ticks": 179160,
          "time": 240.80634325,
          "velocity": 0.6299212598425197
        },
        {
          "duration": 0.6115588645833441,
          "durationTicks": 455,
          "midi": 83,
          "name": "B5",
          "ticks": 179400,
          "time": 241.12892374999998,
          "velocity": 0.6299212598425197
        },
        {
          "duration": 0.15188165208331839,
          "durationTicks": 113,
          "midi": 83,
          "name": "B5",
          "ticks": 179880,
          "time": 241.77408475,
          "velocity": 0.6299212598425197
        },
        {
          "duration": 0.15188165208331839,
          "durationTicks": 113,
          "midi": 81,
          "name": "A5",
          "ticks": 180000,
          "time": 241.935375,
          "velocity": 0.6299212598425197
        },
        {
          "duration": 0.4583331270833355,
          "durationTicks": 341,
          "midi": 79,
          "name": "G5",
          "ticks": 180120,
          "time": 242.09666525,
          "velocity": 0.6299212598425197
        },
        {
          "duration": 0.4583331270833355,
          "durationTicks": 341,
          "midi": 78,
          "name": "F#5",
          "ticks": 180480,
          "time": 242.580536,
          "velocity": 0.6299212598425197
        },
        {
          "duration": 0.6115588645833441,
          "durationTicks": 455,
          "midi": 79,
          "name": "G5",
          "ticks": 180840,
          "time": 243.06440675,
          "velocity": 0.6299212598425197
        },
        {
          "duration": 0.15188165208331839,
          "durationTicks": 113,
          "midi": 79,
          "name": "G5",
          "ticks": 181800,
          "time": 244.35472875,
          "velocity": 0.6299212598425197
        },
        {
          "duration": 0.15188165208331839,
          "durationTicks": 113,
          "midi": 81,
          "name": "A5",
          "ticks": 181920,
          "time": 244.516019,
          "velocity": 0.6299212598425197
        },
        {
          "duration": 0.15188165208331839,
          "durationTicks": 113,
          "midi": 79,
          "name": "G5",
          "ticks": 182040,
          "time": 244.67730925,
          "velocity": 0.6299212598425197
        },
        {
          "duration": 0.30510738958332695,
          "durationTicks": 227,
          "midi": 79,
          "name": "G5",
          "ticks": 182160,
          "time": 244.8385995,
          "velocity": 0.6299212598425197
        },
        {
          "duration": 0.15188165208331839,
          "durationTicks": 113,
          "midi": 81,
          "name": "A5",
          "ticks": 182400,
          "time": 245.16118,
          "velocity": 0.6299212598425197
        },
        {
          "duration": 0.15188165208331839,
          "durationTicks": 113,
          "midi": 79,
          "name": "G5",
          "ticks": 182640,
          "time": 245.4837605,
          "velocity": 0.6299212598425197
        },
        {
          "duration": 0.15188165208331839,
          "durationTicks": 113,
          "midi": 81,
          "name": "A5",
          "ticks": 182760,
          "time": 245.64505075,
          "velocity": 0.6299212598425197
        },
        {
          "duration": 0.30510738958335537,
          "durationTicks": 227,
          "midi": 83,
          "name": "B5",
          "ticks": 183000,
          "time": 245.96763124999998,
          "velocity": 0.6299212598425197
        },
        {
          "duration": 0.30510738958332695,
          "durationTicks": 227,
          "midi": 84,
          "name": "C6",
          "ticks": 183240,
          "time": 246.29021175,
          "velocity": 0.6299212598425197
        },
        {
          "duration": 0.30510738958332695,
          "durationTicks": 227,
          "midi": 83,
          "name": "B5",
          "ticks": 183480,
          "time": 246.61279224999998,
          "velocity": 0.6299212598425197
        },
        {
          "duration": 0.30510738958332695,
          "durationTicks": 227,
          "midi": 81,
          "name": "A5",
          "ticks": 183720,
          "time": 246.93537275,
          "velocity": 0.6299212598425197
        },
        {
          "duration": 0.4583331270833355,
          "durationTicks": 341,
          "midi": 79,
          "name": "G5",
          "ticks": 183960,
          "time": 247.25795324999999,
          "velocity": 0.6299212598425197
        },
        {
          "duration": 0.15188165208331839,
          "durationTicks": 113,
          "midi": 79,
          "name": "G5",
          "ticks": 184680,
          "time": 248.22569475,
          "velocity": 0.6299212598425197
        },
        {
          "duration": 0.30510738958335537,
          "durationTicks": 227,
          "midi": 86,
          "name": "D6",
          "ticks": 184800,
          "time": 248.38698499999998,
          "velocity": 0.6299212598425197
        },
        {
          "duration": 0.15188165208331839,
          "durationTicks": 113,
          "midi": 86,
          "name": "D6",
          "ticks": 185040,
          "time": 248.7095655,
          "velocity": 0.6299212598425197
        },
        {
          "duration": 0.30510738958332695,
          "durationTicks": 227,
          "midi": 86,
          "name": "D6",
          "ticks": 185160,
          "time": 248.87085575,
          "velocity": 0.6299212598425197
        },
        {
          "duration": 0.30510738958332695,
          "durationTicks": 227,
          "midi": 86,
          "name": "D6",
          "ticks": 185400,
          "time": 249.19343625,
          "velocity": 0.6299212598425197
        },
        {
          "duration": 0.30510738958332695,
          "durationTicks": 227,
          "midi": 86,
          "name": "D6",
          "ticks": 185640,
          "time": 249.51601675,
          "velocity": 0.6299212598425197
        },
        {
          "duration": 0.30510738958332695,
          "durationTicks": 227,
          "midi": 79,
          "name": "G5",
          "ticks": 185880,
          "time": 249.83859725,
          "velocity": 0.6299212598425197
        },
        {
          "duration": 0.4583331270833355,
          "durationTicks": 341,
          "midi": 81,
          "name": "A5",
          "ticks": 186120,
          "time": 250.16117775,
          "velocity": 0.6299212598425197
        },
        {
          "duration": 0.15188165208331839,
          "durationTicks": 113,
          "midi": 79,
          "name": "G5",
          "ticks": 186480,
          "time": 250.6450485,
          "velocity": 0.6299212598425197
        },
        {
          "duration": 0.30510738958335537,
          "durationTicks": 227,
          "midi": 81,
          "name": "A5",
          "ticks": 186600,
          "time": 250.80633874999998,
          "velocity": 0.6299212598425197
        },
        {
          "duration": 0.30510738958332695,
          "durationTicks": 227,
          "midi": 79,
          "name": "G5",
          "ticks": 186840,
          "time": 251.12891925,
          "velocity": 0.6299212598425197
        },
        {
          "duration": 0.6115588645833441,
          "durationTicks": 455,
          "midi": 83,
          "name": "B5",
          "ticks": 187080,
          "time": 251.45149974999998,
          "velocity": 0.6299212598425197
        },
        {
          "duration": 0.1518816520833468,
          "durationTicks": 113,
          "midi": 83,
          "name": "B5",
          "ticks": 187560,
          "time": 252.09666074999998,
          "velocity": 0.6299212598425197
        },
        {
          "duration": 0.15188165208331839,
          "durationTicks": 113,
          "midi": 81,
          "name": "A5",
          "ticks": 187680,
          "time": 252.257951,
          "velocity": 0.6299212598425197
        },
        {
          "duration": 0.15188165208331839,
          "durationTicks": 113,
          "midi": 79,
          "name": "G5",
          "ticks": 187800,
          "time": 252.41924125,
          "velocity": 0.6299212598425197
        },
        {
          "duration": 0.15188165208331839,
          "durationTicks": 113,
          "midi": 79,
          "name": "G5",
          "ticks": 187920,
          "time": 252.5805315,
          "velocity": 0.6299212598425197
        },
        {
          "duration": 0.15188165208331839,
          "durationTicks": 113,
          "midi": 81,
          "name": "A5",
          "ticks": 188040,
          "time": 252.74182174999999,
          "velocity": 0.6299212598425197
        },
        {
          "duration": 0.4583331270833355,
          "durationTicks": 341,
          "midi": 83,
          "name": "B5",
          "ticks": 188160,
          "time": 252.903112,
          "velocity": 0.6299212598425197
        },
        {
          "duration": 0.15188165208331839,
          "durationTicks": 113,
          "midi": 79,
          "name": "G5",
          "ticks": 188520,
          "time": 253.38698275,
          "velocity": 0.6299212598425197
        },
        {
          "duration": 0.15188165208331839,
          "durationTicks": 113,
          "midi": 81,
          "name": "A5",
          "ticks": 188640,
          "time": 253.548273,
          "velocity": 0.6299212598425197
        },
        {
          "duration": 0.15188165208331839,
          "durationTicks": 113,
          "midi": 79,
          "name": "G5",
          "ticks": 188760,
          "time": 253.70956325,
          "velocity": 0.6299212598425197
        },
        {
          "duration": 0.1518816520833468,
          "durationTicks": 113,
          "midi": 79,
          "name": "G5",
          "ticks": 188880,
          "time": 253.87085349999998,
          "velocity": 0.6299212598425197
        },
        {
          "duration": 0.15188165208331839,
          "durationTicks": 113,
          "midi": 81,
          "name": "A5",
          "ticks": 189000,
          "time": 254.03214375,
          "velocity": 0.6299212598425197
        },
        {
          "duration": 0.30510738958332695,
          "durationTicks": 227,
          "midi": 83,
          "name": "B5",
          "ticks": 189120,
          "time": 254.193434,
          "velocity": 0.6299212598425197
        },
        {
          "duration": 0.15188165208331839,
          "durationTicks": 113,
          "midi": 79,
          "name": "G5",
          "ticks": 189480,
          "time": 254.67730475,
          "velocity": 0.6299212598425197
        },
        {
          "duration": 0.15188165208331839,
          "durationTicks": 113,
          "midi": 81,
          "name": "A5",
          "ticks": 189600,
          "time": 254.838595,
          "velocity": 0.6299212598425197
        },
        {
          "duration": 0.15188165208331839,
          "durationTicks": 113,
          "midi": 79,
          "name": "G5",
          "ticks": 189720,
          "time": 254.99988525,
          "velocity": 0.6299212598425197
        },
        {
          "duration": 0.30510738958332695,
          "durationTicks": 227,
          "midi": 79,
          "name": "G5",
          "ticks": 189840,
          "time": 255.16117549999998,
          "velocity": 0.6299212598425197
        },
        {
          "duration": 0.15188165208331839,
          "durationTicks": 113,
          "midi": 81,
          "name": "A5",
          "ticks": 190080,
          "time": 255.483756,
          "velocity": 0.6299212598425197
        },
        {
          "duration": 0.15188165208331839,
          "durationTicks": 113,
          "midi": 79,
          "name": "G5",
          "ticks": 190320,
          "time": 255.8063365,
          "velocity": 0.6299212598425197
        },
        {
          "duration": 0.1518816520833468,
          "durationTicks": 113,
          "midi": 81,
          "name": "A5",
          "ticks": 190440,
          "time": 255.96762675,
          "velocity": 0.6299212598425197
        },
        {
          "duration": 0.30510738958332695,
          "durationTicks": 227,
          "midi": 83,
          "name": "B5",
          "ticks": 190680,
          "time": 256.29020725,
          "velocity": 0.6299212598425197
        },
        {
          "duration": 0.30510738958332695,
          "durationTicks": 227,
          "midi": 84,
          "name": "C6",
          "ticks": 190920,
          "time": 256.61278775,
          "velocity": 0.6299212598425197
        },
        {
          "duration": 0.30510738958332695,
          "durationTicks": 227,
          "midi": 86,
          "name": "D6",
          "ticks": 191160,
          "time": 256.93536825,
          "velocity": 0.6299212598425197
        },
        {
          "duration": 0.3051073895833838,
          "durationTicks": 227,
          "midi": 81,
          "name": "A5",
          "ticks": 191400,
          "time": 257.25794874999997,
          "velocity": 0.6299212598425197
        },
        {
          "duration": 0.4583331270833355,
          "durationTicks": 341,
          "midi": 79,
          "name": "G5",
          "ticks": 191640,
          "time": 257.58052925,
          "velocity": 0.6299212598425197
        },
        {
          "duration": 0.15188165208331839,
          "durationTicks": 113,
          "midi": 79,
          "name": "G5",
          "ticks": 192360,
          "time": 258.54827075,
          "velocity": 0.6299212598425197
        },
        {
          "duration": 0.30510738958332695,
          "durationTicks": 227,
          "midi": 86,
          "name": "D6",
          "ticks": 192480,
          "time": 258.709561,
          "velocity": 0.6299212598425197
        },
        {
          "duration": 0.15188165208337523,
          "durationTicks": 113,
          "midi": 86,
          "name": "D6",
          "ticks": 192720,
          "time": 259.03214149999997,
          "velocity": 0.6299212598425197
        },
        {
          "duration": 0.15188165208331839,
          "durationTicks": 113,
          "midi": 86,
          "name": "D6",
          "ticks": 192840,
          "time": 259.19343175,
          "velocity": 0.6299212598425197
        },
        {
          "duration": 0.30510738958332695,
          "durationTicks": 227,
          "midi": 86,
          "name": "D6",
          "ticks": 192960,
          "time": 259.354722,
          "velocity": 0.6299212598425197
        },
        {
          "duration": 0.15188165208331839,
          "durationTicks": 113,
          "midi": 86,
          "name": "D6",
          "ticks": 193200,
          "time": 259.6773025,
          "velocity": 0.6299212598425197
        },
        {
          "duration": 0.30510738958332695,
          "durationTicks": 227,
          "midi": 86,
          "name": "D6",
          "ticks": 193320,
          "time": 259.83859275,
          "velocity": 0.6299212598425197
        },
        {
          "duration": 0.30510738958332695,
          "durationTicks": 227,
          "midi": 91,
          "name": "G6",
          "ticks": 193560,
          "time": 260.16117325,
          "velocity": 0.6299212598425197
        },
        {
          "duration": 0.30510738958332695,
          "durationTicks": 227,
          "midi": 81,
          "name": "A5",
          "ticks": 193800,
          "time": 260.48375375,
          "velocity": 0.6299212598425197
        },
        {
          "duration": 0.30510738958332695,
          "durationTicks": 227,
          "midi": 81,
          "name": "A5",
          "ticks": 194040,
          "time": 260.80633425,
          "velocity": 0.6299212598425197
        },
        {
          "duration": 0.15188165208331839,
          "durationTicks": 113,
          "midi": 79,
          "name": "G5",
          "ticks": 194280,
          "time": 261.12891475,
          "velocity": 0.6299212598425197
        },
        {
          "duration": 0.30510738958332695,
          "durationTicks": 227,
          "midi": 81,
          "name": "A5",
          "ticks": 194400,
          "time": 261.290205,
          "velocity": 0.6299212598425197
        },
        {
          "duration": 0.15188165208331839,
          "durationTicks": 113,
          "midi": 79,
          "name": "G5",
          "ticks": 194640,
          "time": 261.6127855,
          "velocity": 0.6299212598425197
        },
        {
          "duration": 0.6115588645833441,
          "durationTicks": 455,
          "midi": 83,
          "name": "B5",
          "ticks": 194760,
          "time": 261.77407575,
          "velocity": 0.6299212598425197
        },
        {
          "duration": 0.15188165208331839,
          "durationTicks": 113,
          "midi": 83,
          "name": "B5",
          "ticks": 195240,
          "time": 262.41923675,
          "velocity": 0.6299212598425197
        },
        {
          "duration": 0.15188165208331839,
          "durationTicks": 113,
          "midi": 83,
          "name": "B5",
          "ticks": 195360,
          "time": 262.580527,
          "velocity": 0.6299212598425197
        },
        {
          "duration": 0.30510738958332695,
          "durationTicks": 227,
          "midi": 90,
          "name": "F#6",
          "ticks": 195480,
          "time": 262.74181725,
          "velocity": 0.6299212598425197
        },
        {
          "duration": 0.15188165208331839,
          "durationTicks": 113,
          "midi": 91,
          "name": "G6",
          "ticks": 195720,
          "time": 263.06439775,
          "velocity": 0.6299212598425197
        },
        {
          "duration": 0.30510738958332695,
          "durationTicks": 227,
          "midi": 93,
          "name": "A6",
          "ticks": 195840,
          "time": 263.225688,
          "velocity": 0.6299212598425197
        },
        {
          "duration": 0.15188165208331839,
          "durationTicks": 113,
          "midi": 91,
          "name": "G6",
          "ticks": 196080,
          "time": 263.5482685,
          "velocity": 0.6299212598425197
        },
        {
          "duration": 0.30510738958332695,
          "durationTicks": 227,
          "midi": 91,
          "name": "G6",
          "ticks": 196200,
          "time": 263.70955875,
          "velocity": 0.6299212598425197
        },
        {
          "duration": 0.30510738958332695,
          "durationTicks": 227,
          "midi": 83,
          "name": "B5",
          "ticks": 196440,
          "time": 264.03213925,
          "velocity": 0.6299212598425197
        },
        {
          "duration": 0.30510738958332695,
          "durationTicks": 227,
          "midi": 86,
          "name": "D6",
          "ticks": 196680,
          "time": 264.35471975,
          "velocity": 0.6299212598425197
        },
        {
          "duration": 0.15188165208331839,
          "durationTicks": 113,
          "midi": 91,
          "name": "G6",
          "ticks": 196920,
          "time": 264.67730025,
          "velocity": 0.6299212598425197
        },
        {
          "duration": 0.4583331270833355,
          "durationTicks": 341,
          "midi": 86,
          "name": "D6",
          "ticks": 197040,
          "time": 264.8385905,
          "velocity": 0.6299212598425197
        },
        {
          "duration": 0.15188165208331839,
          "durationTicks": 113,
          "midi": 83,
          "name": "B5",
          "ticks": 197400,
          "time": 265.32246125,
          "velocity": 0.6299212598425197
        },
        {
          "duration": 0.15188165208331839,
          "durationTicks": 113,
          "midi": 81,
          "name": "A5",
          "ticks": 197520,
          "time": 265.4837515,
          "velocity": 0.6299212598425197
        },
        {
          "duration": 0.15188165208331839,
          "durationTicks": 113,
          "midi": 79,
          "name": "G5",
          "ticks": 197640,
          "time": 265.64504175,
          "velocity": 0.6299212598425197
        },
        {
          "duration": 0.15188165208331839,
          "durationTicks": 113,
          "midi": 81,
          "name": "A5",
          "ticks": 197760,
          "time": 265.806332,
          "velocity": 0.6299212598425197
        },
        {
          "duration": 0.15188165208331839,
          "durationTicks": 113,
          "midi": 79,
          "name": "G5",
          "ticks": 198000,
          "time": 266.1289125,
          "velocity": 0.6299212598425197
        },
        {
          "duration": 0.15188165208331839,
          "durationTicks": 113,
          "midi": 81,
          "name": "A5",
          "ticks": 198120,
          "time": 266.29020275,
          "velocity": 0.6299212598425197
        },
        {
          "duration": 0.30510738958332695,
          "durationTicks": 227,
          "midi": 83,
          "name": "B5",
          "ticks": 198360,
          "time": 266.61278325,
          "velocity": 0.6299212598425197
        },
        {
          "duration": 0.30510738958332695,
          "durationTicks": 227,
          "midi": 84,
          "name": "C6",
          "ticks": 198600,
          "time": 266.93536375,
          "velocity": 0.6299212598425197
        },
        {
          "duration": 0.30510738958332695,
          "durationTicks": 227,
          "midi": 83,
          "name": "B5",
          "ticks": 198840,
          "time": 267.25794425,
          "velocity": 0.6299212598425197
        },
        {
          "duration": 0.30510738958332695,
          "durationTicks": 227,
          "midi": 81,
          "name": "A5",
          "ticks": 199080,
          "time": 267.58052475,
          "velocity": 0.6299212598425197
        },
        {
          "duration": 0.30510738958332695,
          "durationTicks": 227,
          "midi": 79,
          "name": "G5",
          "ticks": 199320,
          "time": 267.90310525,
          "velocity": 0.6299212598425197
        },
        {
          "duration": 0.15188165208337523,
          "durationTicks": 113,
          "midi": 81,
          "name": "A5",
          "ticks": 199560,
          "time": 268.22568574999997,
          "velocity": 0.6299212598425197
        },
        {
          "duration": 0.30510738958332695,
          "durationTicks": 227,
          "midi": 79,
          "name": "G5",
          "ticks": 199680,
          "time": 268.386976,
          "velocity": 0.6299212598425197
        },
        {
          "duration": 0.4583331270833355,
          "durationTicks": 341,
          "midi": 59,
          "name": "B3",
          "ticks": 199920,
          "time": 268.7095565,
          "velocity": 0.6299212598425197
        },
        {
          "duration": 0.4583331270833355,
          "durationTicks": 341,
          "midi": 62,
          "name": "D4",
          "ticks": 199920,
          "time": 268.7095565,
          "velocity": 0.6299212598425197
        },
        {
          "duration": 0.4583331270833355,
          "durationTicks": 341,
          "midi": 67,
          "name": "G4",
          "ticks": 199920,
          "time": 268.7095565,
          "velocity": 0.6299212598425197
        },
        {
          "duration": 0.4583331270833355,
          "durationTicks": 341,
          "midi": 59,
          "name": "B3",
          "ticks": 200280,
          "time": 269.19342725,
          "velocity": 0.6299212598425197
        },
        {
          "duration": 0.4583331270833355,
          "durationTicks": 341,
          "midi": 62,
          "name": "D4",
          "ticks": 200280,
          "time": 269.19342725,
          "velocity": 0.6299212598425197
        },
        {
          "duration": 0.4583331270833355,
          "durationTicks": 341,
          "midi": 67,
          "name": "G4",
          "ticks": 200280,
          "time": 269.19342725,
          "velocity": 0.6299212598425197
        },
        {
          "duration": 0.07930103958329937,
          "durationTicks": 59,
          "midi": 59,
          "name": "B3",
          "ticks": 200640,
          "time": 269.677298,
          "velocity": 0.6299212598425197
        },
        {
          "duration": 0.07930103958329937,
          "durationTicks": 59,
          "midi": 62,
          "name": "D4",
          "ticks": 200640,
          "time": 269.677298,
          "velocity": 0.6299212598425197
        },
        {
          "duration": 0.07930103958329937,
          "durationTicks": 59,
          "midi": 67,
          "name": "G4",
          "ticks": 200640,
          "time": 269.677298,
          "velocity": 0.6299212598425197
        },
        {
          "duration": 0.3051073895833838,
          "durationTicks": 227,
          "midi": 59,
          "name": "B3",
          "ticks": 200880,
          "time": 269.99987849999997,
          "velocity": 0.6299212598425197
        },
        {
          "duration": 0.3051073895833838,
          "durationTicks": 227,
          "midi": 62,
          "name": "D4",
          "ticks": 200880,
          "time": 269.99987849999997,
          "velocity": 0.6299212598425197
        },
        {
          "duration": 0.3051073895833838,
          "durationTicks": 227,
          "midi": 67,
          "name": "G4",
          "ticks": 200880,
          "time": 269.99987849999997,
          "velocity": 0.6299212598425197
        },
        {
          "duration": 0.30510738958332695,
          "durationTicks": 227,
          "midi": 59,
          "name": "B3",
          "ticks": 201240,
          "time": 270.48374925,
          "velocity": 0.6299212598425197
        },
        {
          "duration": 0.30510738958332695,
          "durationTicks": 227,
          "midi": 62,
          "name": "D4",
          "ticks": 201240,
          "time": 270.48374925,
          "velocity": 0.6299212598425197
        },
        {
          "duration": 0.30510738958332695,
          "durationTicks": 227,
          "midi": 67,
          "name": "G4",
          "ticks": 201240,
          "time": 270.48374925,
          "velocity": 0.6299212598425197
        },
        {
          "duration": 0.07930103958335621,
          "durationTicks": 59,
          "midi": 62,
          "name": "D4",
          "ticks": 201480,
          "time": 270.80632975,
          "velocity": 0.6299212598425197
        },
        {
          "duration": 0.07930103958335621,
          "durationTicks": 59,
          "midi": 69,
          "name": "A4",
          "ticks": 201480,
          "time": 270.80632975,
          "velocity": 0.6299212598425197
        },
        {
          "duration": 0.4583331270833355,
          "durationTicks": 341,
          "midi": 62,
          "name": "D4",
          "ticks": 201840,
          "time": 271.29020049999997,
          "velocity": 0.6299212598425197
        },
        {
          "duration": 0.4583331270833355,
          "durationTicks": 341,
          "midi": 69,
          "name": "A4",
          "ticks": 201840,
          "time": 271.29020049999997,
          "velocity": 0.6299212598425197
        },
        {
          "duration": 0.30510738958332695,
          "durationTicks": 227,
          "midi": 62,
          "name": "D4",
          "ticks": 202200,
          "time": 271.77407125,
          "velocity": 0.6299212598425197
        },
        {
          "duration": 0.30510738958332695,
          "durationTicks": 227,
          "midi": 69,
          "name": "A4",
          "ticks": 202200,
          "time": 271.77407125,
          "velocity": 0.6299212598425197
        },
        {
          "duration": 0.07930103958335621,
          "durationTicks": 59,
          "midi": 63,
          "name": "D#4",
          "ticks": 202440,
          "time": 272.09665175,
          "velocity": 0.6299212598425197
        },
        {
          "duration": 0.07930103958335621,
          "durationTicks": 59,
          "midi": 66,
          "name": "F#4",
          "ticks": 202440,
          "time": 272.09665175,
          "velocity": 0.6299212598425197
        },
        {
          "duration": 0.07930103958335621,
          "durationTicks": 59,
          "midi": 69,
          "name": "A4",
          "ticks": 202440,
          "time": 272.09665175,
          "velocity": 0.6299212598425197
        },
        {
          "duration": 0.07930103958329937,
          "durationTicks": 59,
          "midi": 63,
          "name": "D#4",
          "ticks": 202680,
          "time": 272.41923225,
          "velocity": 0.6299212598425197
        },
        {
          "duration": 0.07930103958329937,
          "durationTicks": 59,
          "midi": 66,
          "name": "F#4",
          "ticks": 202680,
          "time": 272.41923225,
          "velocity": 0.6299212598425197
        },
        {
          "duration": 0.07930103958329937,
          "durationTicks": 59,
          "midi": 69,
          "name": "A4",
          "ticks": 202680,
          "time": 272.41923225,
          "velocity": 0.6299212598425197
        },
        {
          "duration": 0.4583331270833355,
          "durationTicks": 341,
          "midi": 63,
          "name": "D#4",
          "ticks": 202800,
          "time": 272.5805225,
          "velocity": 0.6299212598425197
        },
        {
          "duration": 0.4583331270833355,
          "durationTicks": 341,
          "midi": 66,
          "name": "F#4",
          "ticks": 202800,
          "time": 272.5805225,
          "velocity": 0.6299212598425197
        },
        {
          "duration": 0.4583331270833355,
          "durationTicks": 341,
          "midi": 69,
          "name": "A4",
          "ticks": 202800,
          "time": 272.5805225,
          "velocity": 0.6299212598425197
        },
        {
          "duration": 0.45833312708339236,
          "durationTicks": 341,
          "midi": 63,
          "name": "D#4",
          "ticks": 203160,
          "time": 273.06439324999997,
          "velocity": 0.6299212598425197
        },
        {
          "duration": 0.45833312708339236,
          "durationTicks": 341,
          "midi": 66,
          "name": "F#4",
          "ticks": 203160,
          "time": 273.06439324999997,
          "velocity": 0.6299212598425197
        },
        {
          "duration": 0.45833312708339236,
          "durationTicks": 341,
          "midi": 69,
          "name": "A4",
          "ticks": 203160,
          "time": 273.06439324999997,
          "velocity": 0.6299212598425197
        },
        {
          "duration": 0.4583331270833355,
          "durationTicks": 341,
          "midi": 62,
          "name": "D4",
          "ticks": 203760,
          "time": 273.8708445,
          "velocity": 0.6299212598425197
        },
        {
          "duration": 0.4583331270833355,
          "durationTicks": 341,
          "midi": 67,
          "name": "G4",
          "ticks": 203760,
          "time": 273.8708445,
          "velocity": 0.6299212598425197
        },
        {
          "duration": 0.4583331270833355,
          "durationTicks": 341,
          "midi": 62,
          "name": "D4",
          "ticks": 204120,
          "time": 274.35471524999997,
          "velocity": 0.6299212598425197
        },
        {
          "duration": 0.4583331270833355,
          "durationTicks": 341,
          "midi": 67,
          "name": "G4",
          "ticks": 204120,
          "time": 274.35471524999997,
          "velocity": 0.6299212598425197
        },
        {
          "duration": 0.4583331270833355,
          "durationTicks": 341,
          "midi": 62,
          "name": "D4",
          "ticks": 204720,
          "time": 275.1611665,
          "velocity": 0.6299212598425197
        },
        {
          "duration": 0.4583331270833355,
          "durationTicks": 341,
          "midi": 67,
          "name": "G4",
          "ticks": 204720,
          "time": 275.1611665,
          "velocity": 0.6299212598425197
        },
        {
          "duration": 0.4583331270833355,
          "durationTicks": 341,
          "midi": 61,
          "name": "C#4",
          "ticks": 205080,
          "time": 275.64503725,
          "velocity": 0.6299212598425197
        },
        {
          "duration": 0.4583331270833355,
          "durationTicks": 341,
          "midi": 66,
          "name": "F#4",
          "ticks": 205080,
          "time": 275.64503725,
          "velocity": 0.6299212598425197
        },
        {
          "duration": 0.4583331270833355,
          "durationTicks": 341,
          "midi": 60,
          "name": "C4",
          "ticks": 205680,
          "time": 276.4514885,
          "velocity": 0.6299212598425197
        },
        {
          "duration": 0.4583331270833355,
          "durationTicks": 341,
          "midi": 65,
          "name": "F4",
          "ticks": 205680,
          "time": 276.4514885,
          "velocity": 0.6299212598425197
        },
        {
          "duration": 0.30510738958332695,
          "durationTicks": 227,
          "midi": 60,
          "name": "C4",
          "ticks": 206040,
          "time": 276.93535925,
          "velocity": 0.6299212598425197
        },
        {
          "duration": 0.30510738958332695,
          "durationTicks": 227,
          "midi": 65,
          "name": "F4",
          "ticks": 206040,
          "time": 276.93535925,
          "velocity": 0.6299212598425197
        },
        {
          "duration": 0.07930103958329937,
          "durationTicks": 59,
          "midi": 59,
          "name": "B3",
          "ticks": 206280,
          "time": 277.25793975,
          "velocity": 0.6299212598425197
        },
        {
          "duration": 0.07930103958329937,
          "durationTicks": 59,
          "midi": 64,
          "name": "E4",
          "ticks": 206280,
          "time": 277.25793975,
          "velocity": 0.6299212598425197
        },
        {
          "duration": 0.4583331270833355,
          "durationTicks": 341,
          "midi": 59,
          "name": "B3",
          "ticks": 206640,
          "time": 277.7418105,
          "velocity": 0.6299212598425197
        },
        {
          "duration": 0.4583331270833355,
          "durationTicks": 341,
          "midi": 64,
          "name": "E4",
          "ticks": 206640,
          "time": 277.7418105,
          "velocity": 0.6299212598425197
        },
        {
          "duration": 0.4583331270833355,
          "durationTicks": 341,
          "midi": 59,
          "name": "B3",
          "ticks": 207000,
          "time": 278.22568125,
          "velocity": 0.6299212598425197
        },
        {
          "duration": 0.4583331270833355,
          "durationTicks": 341,
          "midi": 64,
          "name": "E4",
          "ticks": 207000,
          "time": 278.22568125,
          "velocity": 0.6299212598425197
        },
        {
          "duration": 0.07930103958335621,
          "durationTicks": 59,
          "midi": 59,
          "name": "B3",
          "ticks": 207360,
          "time": 278.709552,
          "velocity": 0.6299212598425197
        },
        {
          "duration": 0.07930103958335621,
          "durationTicks": 59,
          "midi": 62,
          "name": "D4",
          "ticks": 207360,
          "time": 278.709552,
          "velocity": 0.6299212598425197
        },
        {
          "duration": 0.07930103958335621,
          "durationTicks": 59,
          "midi": 67,
          "name": "G4",
          "ticks": 207360,
          "time": 278.709552,
          "velocity": 0.6299212598425197
        },
        {
          "duration": 0.4583331270833355,
          "durationTicks": 341,
          "midi": 59,
          "name": "B3",
          "ticks": 207600,
          "time": 279.0321325,
          "velocity": 0.6299212598425197
        },
        {
          "duration": 0.4583331270833355,
          "durationTicks": 341,
          "midi": 62,
          "name": "D4",
          "ticks": 207600,
          "time": 279.0321325,
          "velocity": 0.6299212598425197
        },
        {
          "duration": 0.4583331270833355,
          "durationTicks": 341,
          "midi": 67,
          "name": "G4",
          "ticks": 207600,
          "time": 279.0321325,
          "velocity": 0.6299212598425197
        },
        {
          "duration": 0.4583331270833355,
          "durationTicks": 341,
          "midi": 59,
          "name": "B3",
          "ticks": 207960,
          "time": 279.51600325,
          "velocity": 0.6299212598425197
        },
        {
          "duration": 0.4583331270833355,
          "durationTicks": 341,
          "midi": 62,
          "name": "D4",
          "ticks": 207960,
          "time": 279.51600325,
          "velocity": 0.6299212598425197
        },
        {
          "duration": 0.4583331270833355,
          "durationTicks": 341,
          "midi": 67,
          "name": "G4",
          "ticks": 207960,
          "time": 279.51600325,
          "velocity": 0.6299212598425197
        },
        {
          "duration": 0.07930103958335621,
          "durationTicks": 59,
          "midi": 59,
          "name": "B3",
          "ticks": 208320,
          "time": 279.999874,
          "velocity": 0.6299212598425197
        },
        {
          "duration": 0.07930103958335621,
          "durationTicks": 59,
          "midi": 62,
          "name": "D4",
          "ticks": 208320,
          "time": 279.999874,
          "velocity": 0.6299212598425197
        },
        {
          "duration": 0.07930103958335621,
          "durationTicks": 59,
          "midi": 67,
          "name": "G4",
          "ticks": 208320,
          "time": 279.999874,
          "velocity": 0.6299212598425197
        },
        {
          "duration": 0.30510738958332695,
          "durationTicks": 227,
          "midi": 59,
          "name": "B3",
          "ticks": 208560,
          "time": 280.3224545,
          "velocity": 0.6299212598425197
        },
        {
          "duration": 0.30510738958332695,
          "durationTicks": 227,
          "midi": 62,
          "name": "D4",
          "ticks": 208560,
          "time": 280.3224545,
          "velocity": 0.6299212598425197
        },
        {
          "duration": 0.30510738958332695,
          "durationTicks": 227,
          "midi": 67,
          "name": "G4",
          "ticks": 208560,
          "time": 280.3224545,
          "velocity": 0.6299212598425197
        },
        {
          "duration": 0.30510738958332695,
          "durationTicks": 227,
          "midi": 59,
          "name": "B3",
          "ticks": 208920,
          "time": 280.80632525,
          "velocity": 0.6299212598425197
        },
        {
          "duration": 0.30510738958332695,
          "durationTicks": 227,
          "midi": 62,
          "name": "D4",
          "ticks": 208920,
          "time": 280.80632525,
          "velocity": 0.6299212598425197
        },
        {
          "duration": 0.30510738958332695,
          "durationTicks": 227,
          "midi": 67,
          "name": "G4",
          "ticks": 208920,
          "time": 280.80632525,
          "velocity": 0.6299212598425197
        },
        {
          "duration": 0.07930103958329937,
          "durationTicks": 59,
          "midi": 62,
          "name": "D4",
          "ticks": 209160,
          "time": 281.12890575,
          "velocity": 0.6299212598425197
        },
        {
          "duration": 0.07930103958329937,
          "durationTicks": 59,
          "midi": 69,
          "name": "A4",
          "ticks": 209160,
          "time": 281.12890575,
          "velocity": 0.6299212598425197
        },
        {
          "duration": 0.4583331270833355,
          "durationTicks": 341,
          "midi": 62,
          "name": "D4",
          "ticks": 209520,
          "time": 281.6127765,
          "velocity": 0.6299212598425197
        },
        {
          "duration": 0.4583331270833355,
          "durationTicks": 341,
          "midi": 69,
          "name": "A4",
          "ticks": 209520,
          "time": 281.6127765,
          "velocity": 0.6299212598425197
        },
        {
          "duration": 0.30510738958332695,
          "durationTicks": 227,
          "midi": 62,
          "name": "D4",
          "ticks": 209880,
          "time": 282.09664725,
          "velocity": 0.6299212598425197
        },
        {
          "duration": 0.30510738958332695,
          "durationTicks": 227,
          "midi": 69,
          "name": "A4",
          "ticks": 209880,
          "time": 282.09664725,
          "velocity": 0.6299212598425197
        },
        {
          "duration": 0.07930103958329937,
          "durationTicks": 59,
          "midi": 63,
          "name": "D#4",
          "ticks": 210120,
          "time": 282.41922775,
          "velocity": 0.6299212598425197
        },
        {
          "duration": 0.07930103958329937,
          "durationTicks": 59,
          "midi": 66,
          "name": "F#4",
          "ticks": 210120,
          "time": 282.41922775,
          "velocity": 0.6299212598425197
        },
        {
          "duration": 0.07930103958329937,
          "durationTicks": 59,
          "midi": 69,
          "name": "A4",
          "ticks": 210120,
          "time": 282.41922775,
          "velocity": 0.6299212598425197
        },
        {
          "duration": 0.07930103958329937,
          "durationTicks": 59,
          "midi": 63,
          "name": "D#4",
          "ticks": 210360,
          "time": 282.74180825,
          "velocity": 0.6299212598425197
        },
        {
          "duration": 0.07930103958329937,
          "durationTicks": 59,
          "midi": 66,
          "name": "F#4",
          "ticks": 210360,
          "time": 282.74180825,
          "velocity": 0.6299212598425197
        },
        {
          "duration": 0.07930103958329937,
          "durationTicks": 59,
          "midi": 69,
          "name": "A4",
          "ticks": 210360,
          "time": 282.74180825,
          "velocity": 0.6299212598425197
        },
        {
          "duration": 0.4583331270833355,
          "durationTicks": 341,
          "midi": 63,
          "name": "D#4",
          "ticks": 210480,
          "time": 282.9030985,
          "velocity": 0.6299212598425197
        },
        {
          "duration": 0.4583331270833355,
          "durationTicks": 341,
          "midi": 66,
          "name": "F#4",
          "ticks": 210480,
          "time": 282.9030985,
          "velocity": 0.6299212598425197
        },
        {
          "duration": 0.4583331270833355,
          "durationTicks": 341,
          "midi": 69,
          "name": "A4",
          "ticks": 210480,
          "time": 282.9030985,
          "velocity": 0.6299212598425197
        },
        {
          "duration": 0.4583331270833355,
          "durationTicks": 341,
          "midi": 63,
          "name": "D#4",
          "ticks": 210840,
          "time": 283.38696925,
          "velocity": 0.6299212598425197
        },
        {
          "duration": 0.4583331270833355,
          "durationTicks": 341,
          "midi": 66,
          "name": "F#4",
          "ticks": 210840,
          "time": 283.38696925,
          "velocity": 0.6299212598425197
        },
        {
          "duration": 0.4583331270833355,
          "durationTicks": 341,
          "midi": 69,
          "name": "A4",
          "ticks": 210840,
          "time": 283.38696925,
          "velocity": 0.6299212598425197
        },
        {
          "duration": 0.4583331270833355,
          "durationTicks": 341,
          "midi": 62,
          "name": "D4",
          "ticks": 211440,
          "time": 284.1934205,
          "velocity": 0.6299212598425197
        },
        {
          "duration": 0.4583331270833355,
          "durationTicks": 341,
          "midi": 67,
          "name": "G4",
          "ticks": 211440,
          "time": 284.1934205,
          "velocity": 0.6299212598425197
        },
        {
          "duration": 0.4583331270833355,
          "durationTicks": 341,
          "midi": 62,
          "name": "D4",
          "ticks": 211800,
          "time": 284.67729125,
          "velocity": 0.6299212598425197
        },
        {
          "duration": 0.4583331270833355,
          "durationTicks": 341,
          "midi": 67,
          "name": "G4",
          "ticks": 211800,
          "time": 284.67729125,
          "velocity": 0.6299212598425197
        },
        {
          "duration": 0.4583331270833355,
          "durationTicks": 341,
          "midi": 62,
          "name": "D4",
          "ticks": 212400,
          "time": 285.4837425,
          "velocity": 0.6299212598425197
        },
        {
          "duration": 0.4583331270833355,
          "durationTicks": 341,
          "midi": 67,
          "name": "G4",
          "ticks": 212400,
          "time": 285.4837425,
          "velocity": 0.6299212598425197
        },
        {
          "duration": 0.4583331270833355,
          "durationTicks": 341,
          "midi": 61,
          "name": "C#4",
          "ticks": 212760,
          "time": 285.96761325,
          "velocity": 0.6299212598425197
        },
        {
          "duration": 0.4583331270833355,
          "durationTicks": 341,
          "midi": 66,
          "name": "F#4",
          "ticks": 212760,
          "time": 285.96761325,
          "velocity": 0.6299212598425197
        },
        {
          "duration": 0.4583331270833355,
          "durationTicks": 341,
          "midi": 60,
          "name": "C4",
          "ticks": 213360,
          "time": 286.7740645,
          "velocity": 0.6299212598425197
        },
        {
          "duration": 0.4583331270833355,
          "durationTicks": 341,
          "midi": 65,
          "name": "F4",
          "ticks": 213360,
          "time": 286.7740645,
          "velocity": 0.6299212598425197
        },
        {
          "duration": 0.30510738958332695,
          "durationTicks": 227,
          "midi": 60,
          "name": "C4",
          "ticks": 213720,
          "time": 287.25793525,
          "velocity": 0.6299212598425197
        },
        {
          "duration": 0.30510738958332695,
          "durationTicks": 227,
          "midi": 65,
          "name": "F4",
          "ticks": 213720,
          "time": 287.25793525,
          "velocity": 0.6299212598425197
        },
        {
          "duration": 0.07930103958329937,
          "durationTicks": 59,
          "midi": 59,
          "name": "B3",
          "ticks": 213960,
          "time": 287.58051575,
          "velocity": 0.6299212598425197
        },
        {
          "duration": 0.07930103958329937,
          "durationTicks": 59,
          "midi": 64,
          "name": "E4",
          "ticks": 213960,
          "time": 287.58051575,
          "velocity": 0.6299212598425197
        },
        {
          "duration": 0.4583331270833355,
          "durationTicks": 341,
          "midi": 59,
          "name": "B3",
          "ticks": 214320,
          "time": 288.0643865,
          "velocity": 0.6299212598425197
        },
        {
          "duration": 0.4583331270833355,
          "durationTicks": 341,
          "midi": 64,
          "name": "E4",
          "ticks": 214320,
          "time": 288.0643865,
          "velocity": 0.6299212598425197
        },
        {
          "duration": 0.4583331270833355,
          "durationTicks": 341,
          "midi": 59,
          "name": "B3",
          "ticks": 214680,
          "time": 288.54825725,
          "velocity": 0.6299212598425197
        },
        {
          "duration": 0.4583331270833355,
          "durationTicks": 341,
          "midi": 64,
          "name": "E4",
          "ticks": 214680,
          "time": 288.54825725,
          "velocity": 0.6299212598425197
        },
        {
          "duration": 0.07930103958329937,
          "durationTicks": 59,
          "midi": 59,
          "name": "B3",
          "ticks": 215040,
          "time": 289.032128,
          "velocity": 0.6299212598425197
        },
        {
          "duration": 0.07930103958329937,
          "durationTicks": 59,
          "midi": 62,
          "name": "D4",
          "ticks": 215040,
          "time": 289.032128,
          "velocity": 0.6299212598425197
        },
        {
          "duration": 0.07930103958329937,
          "durationTicks": 59,
          "midi": 67,
          "name": "G4",
          "ticks": 215040,
          "time": 289.032128,
          "velocity": 0.6299212598425197
        },
        {
          "duration": 0.4583331270833355,
          "durationTicks": 341,
          "midi": 59,
          "name": "B3",
          "ticks": 215280,
          "time": 289.3547085,
          "velocity": 0.6299212598425197
        },
        {
          "duration": 0.4583331270833355,
          "durationTicks": 341,
          "midi": 62,
          "name": "D4",
          "ticks": 215280,
          "time": 289.3547085,
          "velocity": 0.6299212598425197
        },
        {
          "duration": 0.4583331270833355,
          "durationTicks": 341,
          "midi": 67,
          "name": "G4",
          "ticks": 215280,
          "time": 289.3547085,
          "velocity": 0.6299212598425197
        },
        {
          "duration": 0.4583331270833355,
          "durationTicks": 341,
          "midi": 59,
          "name": "B3",
          "ticks": 215640,
          "time": 289.83857925,
          "velocity": 0.6299212598425197
        },
        {
          "duration": 0.4583331270833355,
          "durationTicks": 341,
          "midi": 62,
          "name": "D4",
          "ticks": 215640,
          "time": 289.83857925,
          "velocity": 0.6299212598425197
        },
        {
          "duration": 0.4583331270833355,
          "durationTicks": 341,
          "midi": 67,
          "name": "G4",
          "ticks": 215640,
          "time": 289.83857925,
          "velocity": 0.6299212598425197
        },
        {
          "duration": 0.07930103958329937,
          "durationTicks": 59,
          "midi": 59,
          "name": "B3",
          "ticks": 216000,
          "time": 290.32245,
          "velocity": 0.6299212598425197
        },
        {
          "duration": 0.07930103958329937,
          "durationTicks": 59,
          "midi": 62,
          "name": "D4",
          "ticks": 216000,
          "time": 290.32245,
          "velocity": 0.6299212598425197
        },
        {
          "duration": 0.07930103958329937,
          "durationTicks": 59,
          "midi": 67,
          "name": "G4",
          "ticks": 216000,
          "time": 290.32245,
          "velocity": 0.6299212598425197
        },
        {
          "duration": 0.30510738958332695,
          "durationTicks": 227,
          "midi": 59,
          "name": "B3",
          "ticks": 216240,
          "time": 290.6450305,
          "velocity": 0.6299212598425197
        },
        {
          "duration": 0.30510738958332695,
          "durationTicks": 227,
          "midi": 62,
          "name": "D4",
          "ticks": 216240,
          "time": 290.6450305,
          "velocity": 0.6299212598425197
        },
        {
          "duration": 0.30510738958332695,
          "durationTicks": 227,
          "midi": 67,
          "name": "G4",
          "ticks": 216240,
          "time": 290.6450305,
          "velocity": 0.6299212598425197
        },
        {
          "duration": 0.30510738958332695,
          "durationTicks": 227,
          "midi": 59,
          "name": "B3",
          "ticks": 216600,
          "time": 291.12890125,
          "velocity": 0.6299212598425197
        },
        {
          "duration": 0.30510738958332695,
          "durationTicks": 227,
          "midi": 62,
          "name": "D4",
          "ticks": 216600,
          "time": 291.12890125,
          "velocity": 0.6299212598425197
        },
        {
          "duration": 0.30510738958332695,
          "durationTicks": 227,
          "midi": 67,
          "name": "G4",
          "ticks": 216600,
          "time": 291.12890125,
          "velocity": 0.6299212598425197
        },
        {
          "duration": 0.07930103958335621,
          "durationTicks": 59,
          "midi": 62,
          "name": "D4",
          "ticks": 216840,
          "time": 291.45148174999997,
          "velocity": 0.6299212598425197
        },
        {
          "duration": 0.07930103958335621,
          "durationTicks": 59,
          "midi": 69,
          "name": "A4",
          "ticks": 216840,
          "time": 291.45148174999997,
          "velocity": 0.6299212598425197
        },
        {
          "duration": 0.45833312708339236,
          "durationTicks": 341,
          "midi": 62,
          "name": "D4",
          "ticks": 217200,
          "time": 291.93535249999996,
          "velocity": 0.6299212598425197
        },
        {
          "duration": 0.45833312708339236,
          "durationTicks": 341,
          "midi": 69,
          "name": "A4",
          "ticks": 217200,
          "time": 291.93535249999996,
          "velocity": 0.6299212598425197
        },
        {
          "duration": 0.30510738958332695,
          "durationTicks": 227,
          "midi": 62,
          "name": "D4",
          "ticks": 217560,
          "time": 292.41922325,
          "velocity": 0.6299212598425197
        },
        {
          "duration": 0.30510738958332695,
          "durationTicks": 227,
          "midi": 69,
          "name": "A4",
          "ticks": 217560,
          "time": 292.41922325,
          "velocity": 0.6299212598425197
        },
        {
          "duration": 0.07930103958335621,
          "durationTicks": 59,
          "midi": 63,
          "name": "D#4",
          "ticks": 217800,
          "time": 292.74180375,
          "velocity": 0.6299212598425197
        },
        {
          "duration": 0.07930103958335621,
          "durationTicks": 59,
          "midi": 66,
          "name": "F#4",
          "ticks": 217800,
          "time": 292.74180375,
          "velocity": 0.6299212598425197
        },
        {
          "duration": 0.07930103958335621,
          "durationTicks": 59,
          "midi": 69,
          "name": "A4",
          "ticks": 217800,
          "time": 292.74180375,
          "velocity": 0.6299212598425197
        },
        {
          "duration": 0.07930103958329937,
          "durationTicks": 59,
          "midi": 63,
          "name": "D#4",
          "ticks": 218040,
          "time": 293.06438425,
          "velocity": 0.6299212598425197
        },
        {
          "duration": 0.07930103958329937,
          "durationTicks": 59,
          "midi": 66,
          "name": "F#4",
          "ticks": 218040,
          "time": 293.06438425,
          "velocity": 0.6299212598425197
        },
        {
          "duration": 0.07930103958329937,
          "durationTicks": 59,
          "midi": 69,
          "name": "A4",
          "ticks": 218040,
          "time": 293.06438425,
          "velocity": 0.6299212598425197
        },
        {
          "duration": 0.4583331270833355,
          "durationTicks": 341,
          "midi": 63,
          "name": "D#4",
          "ticks": 218160,
          "time": 293.22567449999997,
          "velocity": 0.6299212598425197
        },
        {
          "duration": 0.4583331270833355,
          "durationTicks": 341,
          "midi": 66,
          "name": "F#4",
          "ticks": 218160,
          "time": 293.22567449999997,
          "velocity": 0.6299212598425197
        },
        {
          "duration": 0.4583331270833355,
          "durationTicks": 341,
          "midi": 69,
          "name": "A4",
          "ticks": 218160,
          "time": 293.22567449999997,
          "velocity": 0.6299212598425197
        },
        {
          "duration": 0.4583331270833355,
          "durationTicks": 341,
          "midi": 63,
          "name": "D#4",
          "ticks": 218520,
          "time": 293.70954525,
          "velocity": 0.6299212598425197
        },
        {
          "duration": 0.4583331270833355,
          "durationTicks": 341,
          "midi": 66,
          "name": "F#4",
          "ticks": 218520,
          "time": 293.70954525,
          "velocity": 0.6299212598425197
        },
        {
          "duration": 0.4583331270833355,
          "durationTicks": 341,
          "midi": 69,
          "name": "A4",
          "ticks": 218520,
          "time": 293.70954525,
          "velocity": 0.6299212598425197
        },
        {
          "duration": 0.4583331270833355,
          "durationTicks": 341,
          "midi": 62,
          "name": "D4",
          "ticks": 219120,
          "time": 294.51599649999997,
          "velocity": 0.6299212598425197
        },
        {
          "duration": 0.4583331270833355,
          "durationTicks": 341,
          "midi": 67,
          "name": "G4",
          "ticks": 219120,
          "time": 294.51599649999997,
          "velocity": 0.6299212598425197
        },
        {
          "duration": 0.45833312708339236,
          "durationTicks": 341,
          "midi": 62,
          "name": "D4",
          "ticks": 219480,
          "time": 294.99986724999997,
          "velocity": 0.6299212598425197
        },
        {
          "duration": 0.45833312708339236,
          "durationTicks": 341,
          "midi": 67,
          "name": "G4",
          "ticks": 219480,
          "time": 294.99986724999997,
          "velocity": 0.6299212598425197
        },
        {
          "duration": 0.4583331270833355,
          "durationTicks": 341,
          "midi": 62,
          "name": "D4",
          "ticks": 220080,
          "time": 295.8063185,
          "velocity": 0.6299212598425197
        },
        {
          "duration": 0.4583331270833355,
          "durationTicks": 341,
          "midi": 67,
          "name": "G4",
          "ticks": 220080,
          "time": 295.8063185,
          "velocity": 0.6299212598425197
        },
        {
          "duration": 0.4583331270833355,
          "durationTicks": 341,
          "midi": 61,
          "name": "C#4",
          "ticks": 220440,
          "time": 296.29018924999997,
          "velocity": 0.6299212598425197
        },
        {
          "duration": 0.4583331270833355,
          "durationTicks": 341,
          "midi": 66,
          "name": "F#4",
          "ticks": 220440,
          "time": 296.29018924999997,
          "velocity": 0.6299212598425197
        },
        {
          "duration": 0.4583331270833355,
          "durationTicks": 341,
          "midi": 60,
          "name": "C4",
          "ticks": 221040,
          "time": 297.0966405,
          "velocity": 0.6299212598425197
        },
        {
          "duration": 0.4583331270833355,
          "durationTicks": 341,
          "midi": 65,
          "name": "F4",
          "ticks": 221040,
          "time": 297.0966405,
          "velocity": 0.6299212598425197
        },
        {
          "duration": 0.30510738958332695,
          "durationTicks": 227,
          "midi": 60,
          "name": "C4",
          "ticks": 221400,
          "time": 297.58051125,
          "velocity": 0.6299212598425197
        },
        {
          "duration": 0.30510738958332695,
          "durationTicks": 227,
          "midi": 65,
          "name": "F4",
          "ticks": 221400,
          "time": 297.58051125,
          "velocity": 0.6299212598425197
        },
        {
          "duration": 0.07930103958329937,
          "durationTicks": 59,
          "midi": 59,
          "name": "B3",
          "ticks": 221640,
          "time": 297.90309175,
          "velocity": 0.6299212598425197
        },
        {
          "duration": 0.45833312708339236,
          "durationTicks": 341,
          "midi": 59,
          "name": "B3",
          "ticks": 221760,
          "time": 298.06438199999997,
          "velocity": 0.6299212598425197
        },
        {
          "duration": 0.45833312708339236,
          "durationTicks": 341,
          "midi": 64,
          "name": "E4",
          "ticks": 221760,
          "time": 298.06438199999997,
          "velocity": 0.6299212598425197
        },
        {
          "duration": 0.4583331270833355,
          "durationTicks": 341,
          "midi": 59,
          "name": "B3",
          "ticks": 222120,
          "time": 298.54825275,
          "velocity": 0.6299212598425197
        },
        {
          "duration": 0.4583331270833355,
          "durationTicks": 341,
          "midi": 64,
          "name": "E4",
          "ticks": 222120,
          "time": 298.54825275,
          "velocity": 0.6299212598425197
        },
        {
          "duration": 0.30510738958332695,
          "durationTicks": 227,
          "midi": 59,
          "name": "B3",
          "ticks": 222480,
          "time": 299.0321235,
          "velocity": 0.6299212598425197
        },
        {
          "duration": 0.30510738958332695,
          "durationTicks": 227,
          "midi": 64,
          "name": "E4",
          "ticks": 222480,
          "time": 299.0321235,
          "velocity": 0.6299212598425197
        },
        {
          "duration": 0.07930103958335621,
          "durationTicks": 59,
          "midi": 59,
          "name": "B3",
          "ticks": 222720,
          "time": 299.35470399999997,
          "velocity": 0.6299212598425197
        },
        {
          "duration": 0.07930103958335621,
          "durationTicks": 59,
          "midi": 62,
          "name": "D4",
          "ticks": 222720,
          "time": 299.35470399999997,
          "velocity": 0.6299212598425197
        },
        {
          "duration": 0.07930103958335621,
          "durationTicks": 59,
          "midi": 67,
          "name": "G4",
          "ticks": 222720,
          "time": 299.35470399999997,
          "velocity": 0.6299212598425197
        },
        {
          "duration": 0.4583331270833355,
          "durationTicks": 341,
          "midi": 59,
          "name": "B3",
          "ticks": 222960,
          "time": 299.6772845,
          "velocity": 0.6299212598425197
        },
        {
          "duration": 0.4583331270833355,
          "durationTicks": 341,
          "midi": 62,
          "name": "D4",
          "ticks": 222960,
          "time": 299.6772845,
          "velocity": 0.6299212598425197
        },
        {
          "duration": 0.4583331270833355,
          "durationTicks": 341,
          "midi": 67,
          "name": "G4",
          "ticks": 222960,
          "time": 299.6772845,
          "velocity": 0.6299212598425197
        },
        {
          "duration": 0.4583331270833355,
          "durationTicks": 341,
          "midi": 59,
          "name": "B3",
          "ticks": 223320,
          "time": 300.16115525,
          "velocity": 0.6299212598425197
        },
        {
          "duration": 0.4583331270833355,
          "durationTicks": 341,
          "midi": 62,
          "name": "D4",
          "ticks": 223320,
          "time": 300.16115525,
          "velocity": 0.6299212598425197
        },
        {
          "duration": 0.4583331270833355,
          "durationTicks": 341,
          "midi": 67,
          "name": "G4",
          "ticks": 223320,
          "time": 300.16115525,
          "velocity": 0.6299212598425197
        },
        {
          "duration": 0.07930103958335621,
          "durationTicks": 59,
          "midi": 59,
          "name": "B3",
          "ticks": 223680,
          "time": 300.645026,
          "velocity": 0.6299212598425197
        },
        {
          "duration": 0.07930103958335621,
          "durationTicks": 59,
          "midi": 62,
          "name": "D4",
          "ticks": 223680,
          "time": 300.645026,
          "velocity": 0.6299212598425197
        },
        {
          "duration": 0.07930103958335621,
          "durationTicks": 59,
          "midi": 67,
          "name": "G4",
          "ticks": 223680,
          "time": 300.645026,
          "velocity": 0.6299212598425197
        },
        {
          "duration": 0.30510738958332695,
          "durationTicks": 227,
          "midi": 59,
          "name": "B3",
          "ticks": 223920,
          "time": 300.9676065,
          "velocity": 0.6299212598425197
        },
        {
          "duration": 0.30510738958332695,
          "durationTicks": 227,
          "midi": 62,
          "name": "D4",
          "ticks": 223920,
          "time": 300.9676065,
          "velocity": 0.6299212598425197
        },
        {
          "duration": 0.30510738958332695,
          "durationTicks": 227,
          "midi": 67,
          "name": "G4",
          "ticks": 223920,
          "time": 300.9676065,
          "velocity": 0.6299212598425197
        },
        {
          "duration": 0.30510738958332695,
          "durationTicks": 227,
          "midi": 59,
          "name": "B3",
          "ticks": 224280,
          "time": 301.45147725,
          "velocity": 0.6299212598425197
        },
        {
          "duration": 0.30510738958332695,
          "durationTicks": 227,
          "midi": 62,
          "name": "D4",
          "ticks": 224280,
          "time": 301.45147725,
          "velocity": 0.6299212598425197
        },
        {
          "duration": 0.30510738958332695,
          "durationTicks": 227,
          "midi": 67,
          "name": "G4",
          "ticks": 224280,
          "time": 301.45147725,
          "velocity": 0.6299212598425197
        },
        {
          "duration": 0.07930103958329937,
          "durationTicks": 59,
          "midi": 62,
          "name": "D4",
          "ticks": 224520,
          "time": 301.77405775,
          "velocity": 0.6299212598425197
        },
        {
          "duration": 0.07930103958329937,
          "durationTicks": 59,
          "midi": 69,
          "name": "A4",
          "ticks": 224520,
          "time": 301.77405775,
          "velocity": 0.6299212598425197
        },
        {
          "duration": 0.4583331270833355,
          "durationTicks": 341,
          "midi": 62,
          "name": "D4",
          "ticks": 224880,
          "time": 302.2579285,
          "velocity": 0.6299212598425197
        },
        {
          "duration": 0.4583331270833355,
          "durationTicks": 341,
          "midi": 69,
          "name": "A4",
          "ticks": 224880,
          "time": 302.2579285,
          "velocity": 0.6299212598425197
        },
        {
          "duration": 0.30510738958332695,
          "durationTicks": 227,
          "midi": 62,
          "name": "D4",
          "ticks": 225240,
          "time": 302.74179925,
          "velocity": 0.6299212598425197
        },
        {
          "duration": 0.30510738958332695,
          "durationTicks": 227,
          "midi": 69,
          "name": "A4",
          "ticks": 225240,
          "time": 302.74179925,
          "velocity": 0.6299212598425197
        },
        {
          "duration": 0.07930103958329937,
          "durationTicks": 59,
          "midi": 63,
          "name": "D#4",
          "ticks": 225480,
          "time": 303.06437975,
          "velocity": 0.6299212598425197
        },
        {
          "duration": 0.07930103958329937,
          "durationTicks": 59,
          "midi": 66,
          "name": "F#4",
          "ticks": 225480,
          "time": 303.06437975,
          "velocity": 0.6299212598425197
        },
        {
          "duration": 0.07930103958329937,
          "durationTicks": 59,
          "midi": 69,
          "name": "A4",
          "ticks": 225480,
          "time": 303.06437975,
          "velocity": 0.6299212598425197
        },
        {
          "duration": 0.07930103958329937,
          "durationTicks": 59,
          "midi": 63,
          "name": "D#4",
          "ticks": 225720,
          "time": 303.38696025,
          "velocity": 0.6299212598425197
        },
        {
          "duration": 0.07930103958329937,
          "durationTicks": 59,
          "midi": 66,
          "name": "F#4",
          "ticks": 225720,
          "time": 303.38696025,
          "velocity": 0.6299212598425197
        },
        {
          "duration": 0.07930103958329937,
          "durationTicks": 59,
          "midi": 69,
          "name": "A4",
          "ticks": 225720,
          "time": 303.38696025,
          "velocity": 0.6299212598425197
        },
        {
          "duration": 0.4583331270833355,
          "durationTicks": 341,
          "midi": 63,
          "name": "D#4",
          "ticks": 225840,
          "time": 303.5482505,
          "velocity": 0.6299212598425197
        },
        {
          "duration": 0.4583331270833355,
          "durationTicks": 341,
          "midi": 66,
          "name": "F#4",
          "ticks": 225840,
          "time": 303.5482505,
          "velocity": 0.6299212598425197
        },
        {
          "duration": 0.4583331270833355,
          "durationTicks": 341,
          "midi": 69,
          "name": "A4",
          "ticks": 225840,
          "time": 303.5482505,
          "velocity": 0.6299212598425197
        },
        {
          "duration": 0.4583331270833355,
          "durationTicks": 341,
          "midi": 63,
          "name": "D#4",
          "ticks": 226200,
          "time": 304.03212125,
          "velocity": 0.6299212598425197
        },
        {
          "duration": 0.4583331270833355,
          "durationTicks": 341,
          "midi": 66,
          "name": "F#4",
          "ticks": 226200,
          "time": 304.03212125,
          "velocity": 0.6299212598425197
        },
        {
          "duration": 0.4583331270833355,
          "durationTicks": 341,
          "midi": 69,
          "name": "A4",
          "ticks": 226200,
          "time": 304.03212125,
          "velocity": 0.6299212598425197
        },
        {
          "duration": 0.4583331270833355,
          "durationTicks": 341,
          "midi": 62,
          "name": "D4",
          "ticks": 226800,
          "time": 304.8385725,
          "velocity": 0.6299212598425197
        },
        {
          "duration": 0.4583331270833355,
          "durationTicks": 341,
          "midi": 67,
          "name": "G4",
          "ticks": 226800,
          "time": 304.8385725,
          "velocity": 0.6299212598425197
        },
        {
          "duration": 0.4583331270833355,
          "durationTicks": 341,
          "midi": 62,
          "name": "D4",
          "ticks": 227160,
          "time": 305.32244325,
          "velocity": 0.6299212598425197
        },
        {
          "duration": 0.4583331270833355,
          "durationTicks": 341,
          "midi": 67,
          "name": "G4",
          "ticks": 227160,
          "time": 305.32244325,
          "velocity": 0.6299212598425197
        },
        {
          "duration": 0.4583331270833355,
          "durationTicks": 341,
          "midi": 62,
          "name": "D4",
          "ticks": 227760,
          "time": 306.1288945,
          "velocity": 0.6299212598425197
        },
        {
          "duration": 0.4583331270833355,
          "durationTicks": 341,
          "midi": 67,
          "name": "G4",
          "ticks": 227760,
          "time": 306.1288945,
          "velocity": 0.6299212598425197
        },
        {
          "duration": 0.4583331270833355,
          "durationTicks": 341,
          "midi": 61,
          "name": "C#4",
          "ticks": 228120,
          "time": 306.61276525,
          "velocity": 0.6299212598425197
        },
        {
          "duration": 0.4583331270833355,
          "durationTicks": 341,
          "midi": 66,
          "name": "F#4",
          "ticks": 228120,
          "time": 306.61276525,
          "velocity": 0.6299212598425197
        },
        {
          "duration": 0.4583331270833355,
          "durationTicks": 341,
          "midi": 60,
          "name": "C4",
          "ticks": 228720,
          "time": 307.4192165,
          "velocity": 0.6299212598425197
        },
        {
          "duration": 0.4583331270833355,
          "durationTicks": 341,
          "midi": 65,
          "name": "F4",
          "ticks": 228720,
          "time": 307.4192165,
          "velocity": 0.6299212598425197
        },
        {
          "duration": 0.30510738958332695,
          "durationTicks": 227,
          "midi": 60,
          "name": "C4",
          "ticks": 229080,
          "time": 307.90308725,
          "velocity": 0.6299212598425197
        },
        {
          "duration": 0.30510738958332695,
          "durationTicks": 227,
          "midi": 65,
          "name": "F4",
          "ticks": 229080,
          "time": 307.90308725,
          "velocity": 0.6299212598425197
        },
        {
          "duration": 0.07930103958329937,
          "durationTicks": 59,
          "midi": 59,
          "name": "B3",
          "ticks": 229320,
          "time": 308.22566775,
          "velocity": 0.6299212598425197
        },
        {
          "duration": 0.4583331270833355,
          "durationTicks": 341,
          "midi": 59,
          "name": "B3",
          "ticks": 229440,
          "time": 308.386958,
          "velocity": 0.6299212598425197
        },
        {
          "duration": 0.4583331270833355,
          "durationTicks": 341,
          "midi": 64,
          "name": "E4",
          "ticks": 229440,
          "time": 308.386958,
          "velocity": 0.6299212598425197
        },
        {
          "duration": 0.4583331270833355,
          "durationTicks": 341,
          "midi": 59,
          "name": "B3",
          "ticks": 229800,
          "time": 308.87082875,
          "velocity": 0.6299212598425197
        },
        {
          "duration": 0.4583331270833355,
          "durationTicks": 341,
          "midi": 64,
          "name": "E4",
          "ticks": 229800,
          "time": 308.87082875,
          "velocity": 0.6299212598425197
        },
        {
          "duration": 0.30510738958332695,
          "durationTicks": 227,
          "midi": 59,
          "name": "B3",
          "ticks": 230160,
          "time": 309.3546995,
          "velocity": 0.6299212598425197
        },
        {
          "duration": 0.30510738958332695,
          "durationTicks": 227,
          "midi": 64,
          "name": "E4",
          "ticks": 230160,
          "time": 309.3546995,
          "velocity": 0.6299212598425197
        },
        {
          "duration": 1.837364764583299,
          "durationTicks": 1367,
          "midi": 55,
          "name": "G3",
          "ticks": 230400,
          "time": 309.67728,
          "velocity": 0.6299212598425197
        },
        {
          "duration": 1.837364764583299,
          "durationTicks": 1367,
          "midi": 59,
          "name": "B3",
          "ticks": 230400,
          "time": 309.67728,
          "velocity": 0.6299212598425197
        },
        {
          "duration": 1.837364764583299,
          "durationTicks": 1367,
          "midi": 62,
          "name": "D4",
          "ticks": 230400,
          "time": 309.67728,
          "velocity": 0.6299212598425197
        },
        {
          "duration": 1.2244618145833215,
          "durationTicks": 911,
          "midi": 57,
          "name": "A3",
          "ticks": 232320,
          "time": 312.257924,
          "velocity": 0.6141732283464567
        },
        {
          "duration": 1.2244618145833215,
          "durationTicks": 911,
          "midi": 62,
          "name": "D4",
          "ticks": 232320,
          "time": 312.257924,
          "velocity": 0.6141732283464567
        },
        {
          "duration": 0.9180103395833044,
          "durationTicks": 683,
          "midi": 57,
          "name": "A3",
          "ticks": 233280,
          "time": 313.548246,
          "velocity": 0.5984251968503937
        },
        {
          "duration": 0.9180103395833044,
          "durationTicks": 683,
          "midi": 60,
          "name": "C4",
          "ticks": 233280,
          "time": 313.548246,
          "velocity": 0.5984251968503937
        },
        {
          "duration": 0.07526878333334253,
          "durationTicks": 56,
          "midi": 62,
          "name": "D4",
          "ticks": 234120,
          "time": 314.67727775,
          "velocity": 0.5905511811023622
        },
        {
          "duration": 0.07526878333328568,
          "durationTicks": 56,
          "midi": 60,
          "name": "C4",
          "ticks": 234180,
          "time": 314.757922875,
          "velocity": 0.5905511811023622
        },
        {
          "duration": 1.837364764583299,
          "durationTicks": 1367,
          "midi": 55,
          "name": "G3",
          "ticks": 234240,
          "time": 314.838568,
          "velocity": 0.5905511811023622
        },
        {
          "duration": 1.837364764583299,
          "durationTicks": 1367,
          "midi": 59,
          "name": "B3",
          "ticks": 234240,
          "time": 314.838568,
          "velocity": 0.5905511811023622
        },
        {
          "duration": 0.9180103395833044,
          "durationTicks": 683,
          "midi": 53,
          "name": "F3",
          "ticks": 236160,
          "time": 317.419212,
          "velocity": 0.5669291338582677
        },
        {
          "duration": 0.9180103395833044,
          "durationTicks": 683,
          "midi": 57,
          "name": "A3",
          "ticks": 236160,
          "time": 317.419212,
          "velocity": 0.5669291338582677
        },
        {
          "duration": 0.9180103395833044,
          "durationTicks": 683,
          "midi": 60,
          "name": "C4",
          "ticks": 236160,
          "time": 317.419212,
          "velocity": 0.5669291338582677
        },
        {
          "duration": 0.07526878333334253,
          "durationTicks": 56,
          "midi": 57,
          "name": "A3",
          "ticks": 237000,
          "time": 318.54824375,
          "velocity": 0.5590551181102362
        },
        {
          "duration": 0.07526878333334253,
          "durationTicks": 56,
          "midi": 58,
          "name": "A#3",
          "ticks": 237060,
          "time": 318.628888875,
          "velocity": 0.5590551181102362
        },
        {
          "duration": 0.9180103395833044,
          "durationTicks": 683,
          "midi": 53,
          "name": "F3",
          "ticks": 237120,
          "time": 318.709534,
          "velocity": 0.5590551181102362
        },
        {
          "duration": 0.9180103395833044,
          "durationTicks": 683,
          "midi": 59,
          "name": "B3",
          "ticks": 237120,
          "time": 318.709534,
          "velocity": 0.5590551181102362
        },
        {
          "duration": 1.8373647645833557,
          "durationTicks": 1367,
          "midi": 55,
          "name": "G3",
          "ticks": 238080,
          "time": 319.99985599999997,
          "velocity": 0.5511811023622047
        },
        {
          "duration": 1.8373647645833557,
          "durationTicks": 1367,
          "midi": 59,
          "name": "B3",
          "ticks": 238080,
          "time": 319.99985599999997,
          "velocity": 0.5511811023622047
        },
        {
          "duration": 1.8373647645833557,
          "durationTicks": 1367,
          "midi": 62,
          "name": "D4",
          "ticks": 238080,
          "time": 319.99985599999997,
          "velocity": 0.5511811023622047
        },
        {
          "duration": 1.2244618145833783,
          "durationTicks": 911,
          "midi": 57,
          "name": "A3",
          "ticks": 240000,
          "time": 322.5805,
          "velocity": 0.5275590551181102
        },
        {
          "duration": 1.2244618145833783,
          "durationTicks": 911,
          "midi": 62,
          "name": "D4",
          "ticks": 240000,
          "time": 322.5805,
          "velocity": 0.5275590551181102
        },
        {
          "duration": 0.9180103395833612,
          "durationTicks": 683,
          "midi": 57,
          "name": "A3",
          "ticks": 240960,
          "time": 323.870822,
          "velocity": 0.5196850393700787
        },
        {
          "duration": 0.9180103395833612,
          "durationTicks": 683,
          "midi": 60,
          "name": "C4",
          "ticks": 240960,
          "time": 323.870822,
          "velocity": 0.5196850393700787
        },
        {
          "duration": 0.07526878333334253,
          "durationTicks": 56,
          "midi": 64,
          "name": "E4",
          "ticks": 241800,
          "time": 324.99985375,
          "velocity": 0.5039370078740157
        },
        {
          "duration": 0.07526878333334253,
          "durationTicks": 56,
          "midi": 66,
          "name": "F#4",
          "ticks": 241860,
          "time": 325.080498875,
          "velocity": 0.5039370078740157
        },
        {
          "duration": 1.8373647645833557,
          "durationTicks": 1367,
          "midi": 59,
          "name": "B3",
          "ticks": 241920,
          "time": 325.161144,
          "velocity": 0.5039370078740157
        },
        {
          "duration": 1.8373647645833557,
          "durationTicks": 1367,
          "midi": 62,
          "name": "D4",
          "ticks": 241920,
          "time": 325.161144,
          "velocity": 0.5039370078740157
        },
        {
          "duration": 1.8373647645833557,
          "durationTicks": 1367,
          "midi": 67,
          "name": "G4",
          "ticks": 241920,
          "time": 325.161144,
          "velocity": 0.5039370078740157
        },
        {
          "duration": 0.9180103395833044,
          "durationTicks": 683,
          "midi": 57,
          "name": "A3",
          "ticks": 243840,
          "time": 327.741788,
          "velocity": 0.4881889763779528
        },
        {
          "duration": 0.9180103395833044,
          "durationTicks": 683,
          "midi": 60,
          "name": "C4",
          "ticks": 243840,
          "time": 327.741788,
          "velocity": 0.4881889763779528
        },
        {
          "duration": 0.9180103395833044,
          "durationTicks": 683,
          "midi": 65,
          "name": "F4",
          "ticks": 243840,
          "time": 327.741788,
          "velocity": 0.4881889763779528
        },
        {
          "duration": 0.07526878333334253,
          "durationTicks": 56,
          "midi": 57,
          "name": "A3",
          "ticks": 244680,
          "time": 328.87081975,
          "velocity": 0.47244094488188976
        },
        {
          "duration": 0.07526878333334253,
          "durationTicks": 56,
          "midi": 58,
          "name": "A#3",
          "ticks": 244740,
          "time": 328.951464875,
          "velocity": 0.47244094488188976
        },
        {
          "duration": 0.9180103395833044,
          "durationTicks": 683,
          "midi": 53,
          "name": "F3",
          "ticks": 244800,
          "time": 329.03211,
          "velocity": 0.47244094488188976
        },
        {
          "duration": 0.9180103395833044,
          "durationTicks": 683,
          "midi": 59,
          "name": "B3",
          "ticks": 244800,
          "time": 329.03211,
          "velocity": 0.47244094488188976
        },
        {
          "duration": 1.8373647645833557,
          "durationTicks": 1367,
          "midi": 55,
          "name": "G3",
          "ticks": 245760,
          "time": 330.322432,
          "velocity": 0.4645669291338583
        },
        {
          "duration": 1.8373647645833557,
          "durationTicks": 1367,
          "midi": 59,
          "name": "B3",
          "ticks": 245760,
          "time": 330.322432,
          "velocity": 0.4645669291338583
        },
        {
          "duration": 1.8373647645833557,
          "durationTicks": 1367,
          "midi": 62,
          "name": "D4",
          "ticks": 245760,
          "time": 330.322432,
          "velocity": 0.4645669291338583
        },
        {
          "duration": 1.8373647645833557,
          "durationTicks": 1367,
          "midi": 57,
          "name": "A3",
          "ticks": 247680,
          "time": 332.903076,
          "velocity": 0.4409448818897638
        },
        {
          "duration": 1.8373647645833557,
          "durationTicks": 1367,
          "midi": 60,
          "name": "C4",
          "ticks": 247680,
          "time": 332.903076,
          "velocity": 0.4409448818897638
        },
        {
          "duration": 1.8373647645833557,
          "durationTicks": 1367,
          "midi": 55,
          "name": "G3",
          "ticks": 249600,
          "time": 335.48372,
          "velocity": 0.4251968503937008
        },
        {
          "duration": 1.8373647645833557,
          "durationTicks": 1367,
          "midi": 59,
          "name": "B3",
          "ticks": 249600,
          "time": 335.48372,
          "velocity": 0.4251968503937008
        },
        {
          "duration": 1.2244618145833215,
          "durationTicks": 911,
          "midi": 53,
          "name": "F3",
          "ticks": 251520,
          "time": 338.064364,
          "velocity": 0.4015748031496063
        },
        {
          "duration": 1.2244618145833215,
          "durationTicks": 911,
          "midi": 57,
          "name": "A3",
          "ticks": 251520,
          "time": 338.064364,
          "velocity": 0.4015748031496063
        },
        {
          "duration": 1.2244618145833215,
          "durationTicks": 911,
          "midi": 60,
          "name": "C4",
          "ticks": 251520,
          "time": 338.064364,
          "velocity": 0.4015748031496063
        },
        {
          "duration": 3.676073614583288,
          "durationTicks": 2735,
          "midi": 53,
          "name": "F3",
          "ticks": 252480,
          "time": 339.354686,
          "velocity": 0.3858267716535433
        },
        {
          "duration": 3.676073614583288,
          "durationTicks": 2735,
          "midi": 59,
          "name": "B3",
          "ticks": 252480,
          "time": 339.354686,
          "velocity": 0.3858267716535433
        },
        {
          "duration": 3.676073614583288,
          "durationTicks": 2735,
          "midi": 64,
          "name": "E4",
          "ticks": 252480,
          "time": 339.354686,
          "velocity": 0.3858267716535433
        }
      ],
      "endOfTrackTicks": 255216
    },
    {
      "channel": 0,
      "controlChanges": {},
      "pitchBends": [],
      "instrument": {
        "family": "piano",
        "number": 0,
        "name": "acoustic grand piano"
      },
      "name": "Piano\u0000",
      "notes": [
        {
          "duration": 0.6115588645833333,
          "durationTicks": 455,
          "midi": 48,
          "name": "C3",
          "ticks": 0,
          "time": 0,
          "velocity": 0.6299212598425197
        },
        {
          "duration": 0.6115588645833333,
          "durationTicks": 455,
          "midi": 48,
          "name": "C3",
          "ticks": 480,
          "time": 0.645161,
          "velocity": 0.6299212598425197
        },
        {
          "duration": 0.6115588645833332,
          "durationTicks": 455,
          "midi": 48,
          "name": "C3",
          "ticks": 960,
          "time": 1.290322,
          "velocity": 0.6299212598425197
        },
        {
          "duration": 0.611558864583333,
          "durationTicks": 455,
          "midi": 48,
          "name": "C3",
          "ticks": 1440,
          "time": 1.935483,
          "velocity": 0.6299212598425197
        },
        {
          "duration": 0.6115588645833334,
          "durationTicks": 455,
          "midi": 47,
          "name": "B2",
          "ticks": 1920,
          "time": 2.580644,
          "velocity": 0.6299212598425197
        },
        {
          "duration": 0.6115588645833334,
          "durationTicks": 455,
          "midi": 47,
          "name": "B2",
          "ticks": 2400,
          "time": 3.225805,
          "velocity": 0.6299212598425197
        },
        {
          "duration": 0.6115588645833334,
          "durationTicks": 455,
          "midi": 51,
          "name": "D#3",
          "ticks": 2880,
          "time": 3.870966,
          "velocity": 0.6299212598425197
        },
        {
          "duration": 0.45833312708333285,
          "durationTicks": 341,
          "midi": 51,
          "name": "D#3",
          "ticks": 3360,
          "time": 4.516127,
          "velocity": 0.6299212598425197
        },
        {
          "duration": 0.07930103958333401,
          "durationTicks": 59,
          "midi": 53,
          "name": "F3",
          "ticks": 3720,
          "time": 4.9999977499999995,
          "velocity": 0.6299212598425197
        },
        {
          "duration": 0.6115588645833325,
          "durationTicks": 455,
          "midi": 52,
          "name": "E3",
          "ticks": 3840,
          "time": 5.161288,
          "velocity": 0.6299212598425197
        },
        {
          "duration": 0.6115588645833334,
          "durationTicks": 455,
          "midi": 52,
          "name": "E3",
          "ticks": 4320,
          "time": 5.806449,
          "velocity": 0.6299212598425197
        },
        {
          "duration": 0.6115588645833334,
          "durationTicks": 455,
          "midi": 52,
          "name": "E3",
          "ticks": 4800,
          "time": 6.45161,
          "velocity": 0.6299212598425197
        },
        {
          "duration": 0.30510738958333317,
          "durationTicks": 227,
          "midi": 52,
          "name": "E3",
          "ticks": 5280,
          "time": 7.0967709999999995,
          "velocity": 0.6299212598425197
        },
        {
          "duration": 0.30510738958333317,
          "durationTicks": 227,
          "midi": 51,
          "name": "D#3",
          "ticks": 5520,
          "time": 7.419351499999999,
          "velocity": 0.6299212598425197
        },
        {
          "duration": 0.6115588645833316,
          "durationTicks": 455,
          "midi": 50,
          "name": "D3",
          "ticks": 5760,
          "time": 7.741932,
          "velocity": 0.6299212598425197
        },
        {
          "duration": 0.6115588645833334,
          "durationTicks": 455,
          "midi": 45,
          "name": "A2",
          "ticks": 6240,
          "time": 8.387093,
          "velocity": 0.6299212598425197
        },
        {
          "duration": 0.45833312708333374,
          "durationTicks": 341,
          "midi": 45,
          "name": "A2",
          "ticks": 6720,
          "time": 9.032254,
          "velocity": 0.6299212598425197
        },
        {
          "duration": 0.07930103958333312,
          "durationTicks": 59,
          "midi": 50,
          "name": "D3",
          "ticks": 7080,
          "time": 9.51612475,
          "velocity": 0.6299212598425197
        },
        {
          "duration": 0.3051073895833323,
          "durationTicks": 227,
          "midi": 43,
          "name": "G2",
          "ticks": 7200,
          "time": 9.677415,
          "velocity": 0.6299212598425197
        },
        {
          "duration": 0.30510738958333405,
          "durationTicks": 227,
          "midi": 50,
          "name": "D3",
          "ticks": 7440,
          "time": 9.999995499999999,
          "velocity": 0.6299212598425197
        },
        {
          "duration": 2.450267714583333,
          "durationTicks": 1823,
          "midi": 36,
          "name": "C2",
          "ticks": 7680,
          "time": 10.322576,
          "velocity": 0.6299212598425197
        },
        {
          "duration": 0.1518816520833326,
          "durationTicks": 113,
          "midi": 48,
          "name": "C3",
          "ticks": 8040,
          "time": 10.80644675,
          "velocity": 0.6299212598425197
        },
        {
          "duration": 0.6115588645833334,
          "durationTicks": 455,
          "midi": 48,
          "name": "C3",
          "ticks": 8160,
          "time": 10.967737,
          "velocity": 0.6299212598425197
        },
        {
          "duration": 0.45833312708333374,
          "durationTicks": 341,
          "midi": 48,
          "name": "C3",
          "ticks": 8640,
          "time": 11.612898,
          "velocity": 0.6299212598425197
        },
        {
          "duration": 0.1518816520833326,
          "durationTicks": 113,
          "midi": 48,
          "name": "C3",
          "ticks": 9000,
          "time": 12.096768749999999,
          "velocity": 0.6299212598425197
        },
        {
          "duration": 0.6115588645833352,
          "durationTicks": 455,
          "midi": 48,
          "name": "C3",
          "ticks": 9120,
          "time": 12.258059,
          "velocity": 0.6299212598425197
        },
        {
          "duration": 0.45833312708333374,
          "durationTicks": 341,
          "midi": 47,
          "name": "B2",
          "ticks": 9600,
          "time": 12.90322,
          "velocity": 0.6299212598425197
        },
        {
          "duration": 0.1518816520833326,
          "durationTicks": 113,
          "midi": 47,
          "name": "B2",
          "ticks": 9960,
          "time": 13.38709075,
          "velocity": 0.6299212598425197
        },
        {
          "duration": 0.6115588645833352,
          "durationTicks": 455,
          "midi": 47,
          "name": "B2",
          "ticks": 10080,
          "time": 13.548381,
          "velocity": 0.6299212598425197
        },
        {
          "duration": 0.45833312708333374,
          "durationTicks": 341,
          "midi": 51,
          "name": "D#3",
          "ticks": 10560,
          "time": 14.193541999999999,
          "velocity": 0.6299212598425197
        },
        {
          "duration": 0.1518816520833326,
          "durationTicks": 113,
          "midi": 51,
          "name": "D#3",
          "ticks": 10920,
          "time": 14.67741275,
          "velocity": 0.6299212598425197
        },
        {
          "duration": 0.45833312708333374,
          "durationTicks": 341,
          "midi": 51,
          "name": "D#3",
          "ticks": 11040,
          "time": 14.838702999999999,
          "velocity": 0.6299212598425197
        },
        {
          "duration": 0.07930103958333135,
          "durationTicks": 59,
          "midi": 53,
          "name": "F3",
          "ticks": 11400,
          "time": 15.32257375,
          "velocity": 0.6299212598425197
        },
        {
          "duration": 0.45833312708333196,
          "durationTicks": 341,
          "midi": 52,
          "name": "E3",
          "ticks": 11520,
          "time": 15.483864,
          "velocity": 0.6299212598425197
        },
        {
          "duration": 0.15188165208333082,
          "durationTicks": 113,
          "midi": 52,
          "name": "E3",
          "ticks": 11880,
          "time": 15.96773475,
          "velocity": 0.6299212598425197
        },
        {
          "duration": 0.6115588645833334,
          "durationTicks": 455,
          "midi": 52,
          "name": "E3",
          "ticks": 12000,
          "time": 16.129025,
          "velocity": 0.6299212598425197
        },
        {
          "duration": 0.45833312708333196,
          "durationTicks": 341,
          "midi": 52,
          "name": "E3",
          "ticks": 12480,
          "time": 16.774186,
          "velocity": 0.6299212598425197
        },
        {
          "duration": 0.1518816520833326,
          "durationTicks": 113,
          "midi": 52,
          "name": "E3",
          "ticks": 12840,
          "time": 17.258056749999998,
          "velocity": 0.6299212598425197
        },
        {
          "duration": 0.30510738958333405,
          "durationTicks": 227,
          "midi": 52,
          "name": "E3",
          "ticks": 12960,
          "time": 17.419347,
          "velocity": 0.6299212598425197
        },
        {
          "duration": 0.30510738958333405,
          "durationTicks": 227,
          "midi": 51,
          "name": "D#3",
          "ticks": 13200,
          "time": 17.7419275,
          "velocity": 0.6299212598425197
        },
        {
          "duration": 0.45833312708333196,
          "durationTicks": 341,
          "midi": 50,
          "name": "D3",
          "ticks": 13440,
          "time": 18.064508,
          "velocity": 0.6299212598425197
        },
        {
          "duration": 0.1518816520833326,
          "durationTicks": 113,
          "midi": 45,
          "name": "A2",
          "ticks": 13800,
          "time": 18.54837875,
          "velocity": 0.6299212598425197
        },
        {
          "duration": 0.611558864583337,
          "durationTicks": 455,
          "midi": 45,
          "name": "A2",
          "ticks": 13920,
          "time": 18.709668999999998,
          "velocity": 0.6299212598425197
        },
        {
          "duration": 0.1518816520833326,
          "durationTicks": 113,
          "midi": 43,
          "name": "G2",
          "ticks": 14400,
          "time": 19.35483,
          "velocity": 0.6299212598425197
        },
        {
          "duration": 0.1518816520833326,
          "durationTicks": 113,
          "midi": 53,
          "name": "F3",
          "ticks": 14400,
          "time": 19.35483,
          "velocity": 0.6299212598425197
        },
        {
          "duration": 1.2244618145833321,
          "durationTicks": 911,
          "midi": 36,
          "name": "C2",
          "ticks": 15360,
          "time": 20.645152,
          "velocity": 0.6299212598425197
        },
        {
          "duration": 0.1518816520833326,
          "durationTicks": 113,
          "midi": 48,
          "name": "C3",
          "ticks": 15720,
          "time": 21.12902275,
          "velocity": 0.6299212598425197
        },
        {
          "duration": 0.45833312708333196,
          "durationTicks": 341,
          "midi": 48,
          "name": "C3",
          "ticks": 15840,
          "time": 21.290313,
          "velocity": 0.6299212598425197
        },
        {
          "duration": 0.0793010395833349,
          "durationTicks": 59,
          "midi": 48,
          "name": "C3",
          "ticks": 16200,
          "time": 21.77418375,
          "velocity": 0.6299212598425197
        },
        {
          "duration": 1.2244618145833321,
          "durationTicks": 911,
          "midi": 36,
          "name": "C2",
          "ticks": 16320,
          "time": 21.935474,
          "velocity": 0.6299212598425197
        },
        {
          "duration": 0.1518816520833326,
          "durationTicks": 113,
          "midi": 48,
          "name": "C3",
          "ticks": 16680,
          "time": 22.41934475,
          "velocity": 0.6299212598425197
        },
        {
          "duration": 0.6115588645833299,
          "durationTicks": 455,
          "midi": 48,
          "name": "C3",
          "ticks": 16800,
          "time": 22.580635,
          "velocity": 0.6299212598425197
        },
        {
          "duration": 1.2244618145833357,
          "durationTicks": 911,
          "midi": 35,
          "name": "B1",
          "ticks": 17280,
          "time": 23.225796,
          "velocity": 0.6299212598425197
        },
        {
          "duration": 0.1518816520833326,
          "durationTicks": 113,
          "midi": 47,
          "name": "B2",
          "ticks": 17640,
          "time": 23.70966675,
          "velocity": 0.6299212598425197
        },
        {
          "duration": 0.6115588645833299,
          "durationTicks": 455,
          "midi": 47,
          "name": "B2",
          "ticks": 17760,
          "time": 23.870957,
          "velocity": 0.6299212598425197
        },
        {
          "duration": 1.2244618145833357,
          "durationTicks": 911,
          "midi": 39,
          "name": "D#2",
          "ticks": 18240,
          "time": 24.516118,
          "velocity": 0.6299212598425197
        },
        {
          "duration": 0.1518816520833326,
          "durationTicks": 113,
          "midi": 51,
          "name": "D#3",
          "ticks": 18600,
          "time": 24.99998875,
          "velocity": 0.6299212598425197
        },
        {
          "duration": 0.45833312708333196,
          "durationTicks": 341,
          "midi": 51,
          "name": "D#3",
          "ticks": 18720,
          "time": 25.161279,
          "velocity": 0.6299212598425197
        },
        {
          "duration": 0.0793010395833349,
          "durationTicks": 59,
          "midi": 41,
          "name": "F2",
          "ticks": 19080,
          "time": 25.645149749999998,
          "velocity": 0.6299212598425197
        },
        {
          "duration": 1.2244618145833357,
          "durationTicks": 911,
          "midi": 40,
          "name": "E2",
          "ticks": 19200,
          "time": 25.80644,
          "velocity": 0.6299212598425197
        },
        {
          "duration": 0.1518816520833326,
          "durationTicks": 113,
          "midi": 52,
          "name": "E3",
          "ticks": 19560,
          "time": 26.29031075,
          "velocity": 0.6299212598425197
        },
        {
          "duration": 0.45833312708333196,
          "durationTicks": 341,
          "midi": 52,
          "name": "E3",
          "ticks": 19680,
          "time": 26.451601,
          "velocity": 0.6299212598425197
        },
        {
          "duration": 0.0793010395833349,
          "durationTicks": 59,
          "midi": 52,
          "name": "E3",
          "ticks": 20040,
          "time": 26.935471749999998,
          "velocity": 0.6299212598425197
        },
        {
          "duration": 1.2244618145833357,
          "durationTicks": 911,
          "midi": 40,
          "name": "E2",
          "ticks": 20160,
          "time": 27.096762,
          "velocity": 0.6299212598425197
        },
        {
          "duration": 0.1518816520833326,
          "durationTicks": 113,
          "midi": 52,
          "name": "E3",
          "ticks": 20520,
          "time": 27.58063275,
          "velocity": 0.6299212598425197
        },
        {
          "duration": 0.30510738958333405,
          "durationTicks": 227,
          "midi": 52,
          "name": "E3",
          "ticks": 20640,
          "time": 27.741923,
          "velocity": 0.6299212598425197
        },
        {
          "duration": 0.30510738958333405,
          "durationTicks": 227,
          "midi": 39,
          "name": "D#2",
          "ticks": 20880,
          "time": 28.0645035,
          "velocity": 0.6299212598425197
        },
        {
          "duration": 1.2244618145833357,
          "durationTicks": 911,
          "midi": 38,
          "name": "D2",
          "ticks": 21120,
          "time": 28.387083999999998,
          "velocity": 0.6299212598425197
        },
        {
          "duration": 0.1518816520833326,
          "durationTicks": 113,
          "midi": 45,
          "name": "A2",
          "ticks": 21480,
          "time": 28.87095475,
          "velocity": 0.6299212598425197
        },
        {
          "duration": 0.6115588645833299,
          "durationTicks": 455,
          "midi": 45,
          "name": "A2",
          "ticks": 21600,
          "time": 29.032245,
          "velocity": 0.6299212598425197
        },
        {
          "duration": 1.2244618145833357,
          "durationTicks": 911,
          "midi": 31,
          "name": "G1",
          "ticks": 22080,
          "time": 29.677405999999998,
          "velocity": 0.6299212598425197
        },
        {
          "duration": 0.1518816520833326,
          "durationTicks": 113,
          "midi": 43,
          "name": "G2",
          "ticks": 22440,
          "time": 30.16127675,
          "velocity": 0.6299212598425197
        },
        {
          "duration": 0.30510738958333405,
          "durationTicks": 227,
          "midi": 43,
          "name": "G2",
          "ticks": 22560,
          "time": 30.322567,
          "velocity": 0.6299212598425197
        },
        {
          "duration": 0.30510738958333405,
          "durationTicks": 227,
          "midi": 50,
          "name": "D3",
          "ticks": 22800,
          "time": 30.6451475,
          "velocity": 0.6299212598425197
        },
        {
          "duration": 1.2244618145833286,
          "durationTicks": 911,
          "midi": 36,
          "name": "C2",
          "ticks": 23040,
          "time": 30.967728,
          "velocity": 0.6299212598425197
        },
        {
          "duration": 0.1518816520833326,
          "durationTicks": 113,
          "midi": 48,
          "name": "C3",
          "ticks": 23400,
          "time": 31.45159875,
          "velocity": 0.6299212598425197
        },
        {
          "duration": 0.45833312708333196,
          "durationTicks": 341,
          "midi": 48,
          "name": "C3",
          "ticks": 23520,
          "time": 31.612889,
          "velocity": 0.6299212598425197
        },
        {
          "duration": 0.0793010395833349,
          "durationTicks": 59,
          "midi": 48,
          "name": "C3",
          "ticks": 23880,
          "time": 32.09675975,
          "velocity": 0.6299212598425197
        },
        {
          "duration": 1.2244618145833357,
          "durationTicks": 911,
          "midi": 36,
          "name": "C2",
          "ticks": 24000,
          "time": 32.25805,
          "velocity": 0.6299212598425197
        },
        {
          "duration": 0.1518816520833326,
          "durationTicks": 113,
          "midi": 48,
          "name": "C3",
          "ticks": 24360,
          "time": 32.74192075,
          "velocity": 0.6299212598425197
        },
        {
          "duration": 0.6115588645833299,
          "durationTicks": 455,
          "midi": 48,
          "name": "C3",
          "ticks": 24480,
          "time": 32.903211,
          "velocity": 0.6299212598425197
        },
        {
          "duration": 1.2244618145833357,
          "durationTicks": 911,
          "midi": 35,
          "name": "B1",
          "ticks": 24960,
          "time": 33.548372,
          "velocity": 0.6299212598425197
        },
        {
          "duration": 0.1518816520833326,
          "durationTicks": 113,
          "midi": 47,
          "name": "B2",
          "ticks": 25320,
          "time": 34.03224275,
          "velocity": 0.6299212598425197
        },
        {
          "duration": 0.6115588645833299,
          "durationTicks": 455,
          "midi": 47,
          "name": "B2",
          "ticks": 25440,
          "time": 34.193533,
          "velocity": 0.6299212598425197
        },
        {
          "duration": 1.2244618145833357,
          "durationTicks": 911,
          "midi": 39,
          "name": "D#2",
          "ticks": 25920,
          "time": 34.838694,
          "velocity": 0.6299212598425197
        },
        {
          "duration": 0.1518816520833326,
          "durationTicks": 113,
          "midi": 51,
          "name": "D#3",
          "ticks": 26280,
          "time": 35.32256475,
          "velocity": 0.6299212598425197
        },
        {
          "duration": 0.4583331270833355,
          "durationTicks": 341,
          "midi": 51,
          "name": "D#3",
          "ticks": 26400,
          "time": 35.483855,
          "velocity": 0.6299212598425197
        },
        {
          "duration": 0.0793010395833349,
          "durationTicks": 59,
          "midi": 41,
          "name": "F2",
          "ticks": 26760,
          "time": 35.96772575,
          "velocity": 0.6299212598425197
        },
        {
          "duration": 1.2244618145833357,
          "durationTicks": 911,
          "midi": 40,
          "name": "E2",
          "ticks": 26880,
          "time": 36.129016,
          "velocity": 0.6299212598425197
        },
        {
          "duration": 0.1518816520833326,
          "durationTicks": 113,
          "midi": 52,
          "name": "E3",
          "ticks": 27240,
          "time": 36.61288675,
          "velocity": 0.6299212598425197
        },
        {
          "duration": 0.4583331270833284,
          "durationTicks": 341,
          "midi": 52,
          "name": "E3",
          "ticks": 27360,
          "time": 36.774177,
          "velocity": 0.6299212598425197
        },
        {
          "duration": 0.0793010395833349,
          "durationTicks": 59,
          "midi": 52,
          "name": "E3",
          "ticks": 27720,
          "time": 37.258047749999996,
          "velocity": 0.6299212598425197
        },
        {
          "duration": 1.2244618145833357,
          "durationTicks": 911,
          "midi": 40,
          "name": "E2",
          "ticks": 27840,
          "time": 37.419337999999996,
          "velocity": 0.6299212598425197
        },
        {
          "duration": 0.1518816520833326,
          "durationTicks": 113,
          "midi": 52,
          "name": "E3",
          "ticks": 28200,
          "time": 37.90320875,
          "velocity": 0.6299212598425197
        },
        {
          "duration": 0.30510738958333405,
          "durationTicks": 227,
          "midi": 52,
          "name": "E3",
          "ticks": 28320,
          "time": 38.064499,
          "velocity": 0.6299212598425197
        },
        {
          "duration": 0.30510738958333405,
          "durationTicks": 227,
          "midi": 39,
          "name": "D#2",
          "ticks": 28560,
          "time": 38.3870795,
          "velocity": 0.6299212598425197
        },
        {
          "duration": 1.2244618145833357,
          "durationTicks": 911,
          "midi": 38,
          "name": "D2",
          "ticks": 28800,
          "time": 38.70966,
          "velocity": 0.6299212598425197
        },
        {
          "duration": 0.1518816520833326,
          "durationTicks": 113,
          "midi": 45,
          "name": "A2",
          "ticks": 29160,
          "time": 39.19353075,
          "velocity": 0.6299212598425197
        },
        {
          "duration": 0.6115588645833299,
          "durationTicks": 455,
          "midi": 45,
          "name": "A2",
          "ticks": 29280,
          "time": 39.354821,
          "velocity": 0.6299212598425197
        },
        {
          "duration": 1.2244618145833357,
          "durationTicks": 911,
          "midi": 31,
          "name": "G1",
          "ticks": 29760,
          "time": 39.999981999999996,
          "velocity": 0.6299212598425197
        },
        {
          "duration": 0.1518816520833326,
          "durationTicks": 113,
          "midi": 43,
          "name": "G2",
          "ticks": 30120,
          "time": 40.48385275,
          "velocity": 0.6299212598425197
        },
        {
          "duration": 0.30510738958333405,
          "durationTicks": 227,
          "midi": 43,
          "name": "G2",
          "ticks": 30240,
          "time": 40.645143,
          "velocity": 0.6299212598425197
        },
        {
          "duration": 0.30510738958333405,
          "durationTicks": 227,
          "midi": 50,
          "name": "D3",
          "ticks": 30480,
          "time": 40.9677235,
          "velocity": 0.6299212598425197
        },
        {
          "duration": 0.30510738958333405,
          "durationTicks": 227,
          "midi": 36,
          "name": "C2",
          "ticks": 30720,
          "time": 41.290304,
          "velocity": 0.6299212598425197
        },
        {
          "duration": 0.30510738958332695,
          "durationTicks": 227,
          "midi": 55,
          "name": "G3",
          "ticks": 30960,
          "time": 41.6128845,
          "velocity": 0.6299212598425197
        },
        {
          "duration": 0.30510738958332695,
          "durationTicks": 227,
          "midi": 59,
          "name": "B3",
          "ticks": 30960,
          "time": 41.6128845,
          "velocity": 0.6299212598425197
        },
        {
          "duration": 0.1518816520833326,
          "durationTicks": 113,
          "midi": 48,
          "name": "C3",
          "ticks": 31200,
          "time": 41.935465,
          "velocity": 0.6299212598425197
        },
        {
          "duration": 0.4583331270833284,
          "durationTicks": 341,
          "midi": 55,
          "name": "G3",
          "ticks": 31320,
          "time": 42.09675525,
          "velocity": 0.6299212598425197
        },
        {
          "duration": 0.4583331270833284,
          "durationTicks": 341,
          "midi": 59,
          "name": "B3",
          "ticks": 31320,
          "time": 42.09675525,
          "velocity": 0.6299212598425197
        },
        {
          "duration": 0.30510738958332695,
          "durationTicks": 227,
          "midi": 36,
          "name": "C2",
          "ticks": 31680,
          "time": 42.580626,
          "velocity": 0.6299212598425197
        },
        {
          "duration": 0.30510738958333405,
          "durationTicks": 227,
          "midi": 55,
          "name": "G3",
          "ticks": 31920,
          "time": 42.903206499999996,
          "velocity": 0.6299212598425197
        },
        {
          "duration": 0.30510738958333405,
          "durationTicks": 227,
          "midi": 59,
          "name": "B3",
          "ticks": 31920,
          "time": 42.903206499999996,
          "velocity": 0.6299212598425197
        },
        {
          "duration": 0.1518816520833326,
          "durationTicks": 113,
          "midi": 48,
          "name": "C3",
          "ticks": 32160,
          "time": 43.225787,
          "velocity": 0.6299212598425197
        },
        {
          "duration": 0.4583331270833284,
          "durationTicks": 341,
          "midi": 55,
          "name": "G3",
          "ticks": 32280,
          "time": 43.38707725,
          "velocity": 0.6299212598425197
        },
        {
          "duration": 0.4583331270833284,
          "durationTicks": 341,
          "midi": 59,
          "name": "B3",
          "ticks": 32280,
          "time": 43.38707725,
          "velocity": 0.6299212598425197
        },
        {
          "duration": 0.30510738958333405,
          "durationTicks": 227,
          "midi": 35,
          "name": "B1",
          "ticks": 32640,
          "time": 43.870948,
          "velocity": 0.6299212598425197
        },
        {
          "duration": 0.30510738958332695,
          "durationTicks": 227,
          "midi": 50,
          "name": "D3",
          "ticks": 32880,
          "time": 44.1935285,
          "velocity": 0.6299212598425197
        },
        {
          "duration": 0.30510738958332695,
          "durationTicks": 227,
          "midi": 57,
          "name": "A3",
          "ticks": 32880,
          "time": 44.1935285,
          "velocity": 0.6299212598425197
        },
        {
          "duration": 0.1518816520833326,
          "durationTicks": 113,
          "midi": 47,
          "name": "B2",
          "ticks": 33120,
          "time": 44.516109,
          "velocity": 0.6299212598425197
        },
        {
          "duration": 0.4583331270833284,
          "durationTicks": 341,
          "midi": 50,
          "name": "D3",
          "ticks": 33240,
          "time": 44.67739925,
          "velocity": 0.6299212598425197
        },
        {
          "duration": 0.4583331270833284,
          "durationTicks": 341,
          "midi": 57,
          "name": "A3",
          "ticks": 33240,
          "time": 44.67739925,
          "velocity": 0.6299212598425197
        },
        {
          "duration": 0.1518816520833326,
          "durationTicks": 113,
          "midi": 39,
          "name": "D#2",
          "ticks": 33600,
          "time": 45.16127,
          "velocity": 0.6299212598425197
        },
        {
          "duration": 0.1518816520833326,
          "durationTicks": 113,
          "midi": 51,
          "name": "D#3",
          "ticks": 33720,
          "time": 45.32256025,
          "velocity": 0.6299212598425197
        },
        {
          "duration": 0.30510738958333405,
          "durationTicks": 227,
          "midi": 54,
          "name": "F#3",
          "ticks": 33840,
          "time": 45.483850499999996,
          "velocity": 0.6299212598425197
        },
        {
          "duration": 0.30510738958333405,
          "durationTicks": 227,
          "midi": 57,
          "name": "A3",
          "ticks": 33840,
          "time": 45.483850499999996,
          "velocity": 0.6299212598425197
        },
        {
          "duration": 0.1518816520833326,
          "durationTicks": 113,
          "midi": 51,
          "name": "D#3",
          "ticks": 34080,
          "time": 45.806430999999996,
          "velocity": 0.6299212598425197
        },
        {
          "duration": 0.30510738958333405,
          "durationTicks": 227,
          "midi": 54,
          "name": "F#3",
          "ticks": 34200,
          "time": 45.96772125,
          "velocity": 0.6299212598425197
        },
        {
          "duration": 0.30510738958333405,
          "durationTicks": 227,
          "midi": 57,
          "name": "A3",
          "ticks": 34200,
          "time": 45.96772125,
          "velocity": 0.6299212598425197
        },
        {
          "duration": 0.1518816520833326,
          "durationTicks": 113,
          "midi": 41,
          "name": "F2",
          "ticks": 34440,
          "time": 46.29030175,
          "velocity": 0.6299212598425197
        },
        {
          "duration": 0.30510738958333405,
          "durationTicks": 227,
          "midi": 40,
          "name": "E2",
          "ticks": 34560,
          "time": 46.451592,
          "velocity": 0.6299212598425197
        },
        {
          "duration": 0.30510738958333405,
          "durationTicks": 227,
          "midi": 55,
          "name": "G3",
          "ticks": 34800,
          "time": 46.7741725,
          "velocity": 0.6299212598425197
        },
        {
          "duration": 0.30510738958333405,
          "durationTicks": 227,
          "midi": 62,
          "name": "D4",
          "ticks": 34800,
          "time": 46.7741725,
          "velocity": 0.6299212598425197
        },
        {
          "duration": 0.1518816520833326,
          "durationTicks": 113,
          "midi": 52,
          "name": "E3",
          "ticks": 35040,
          "time": 47.096753,
          "velocity": 0.6299212598425197
        },
        {
          "duration": 0.4583331270833284,
          "durationTicks": 341,
          "midi": 55,
          "name": "G3",
          "ticks": 35160,
          "time": 47.25804325,
          "velocity": 0.6299212598425197
        },
        {
          "duration": 0.4583331270833284,
          "durationTicks": 341,
          "midi": 62,
          "name": "D4",
          "ticks": 35160,
          "time": 47.25804325,
          "velocity": 0.6299212598425197
        },
        {
          "duration": 0.30510738958332695,
          "durationTicks": 227,
          "midi": 40,
          "name": "E2",
          "ticks": 35520,
          "time": 47.741914,
          "velocity": 0.6299212598425197
        },
        {
          "duration": 0.30510738958332695,
          "durationTicks": 227,
          "midi": 55,
          "name": "G3",
          "ticks": 35760,
          "time": 48.0644945,
          "velocity": 0.6299212598425197
        },
        {
          "duration": 0.30510738958332695,
          "durationTicks": 227,
          "midi": 62,
          "name": "D4",
          "ticks": 35760,
          "time": 48.0644945,
          "velocity": 0.6299212598425197
        },
        {
          "duration": 0.1518816520833326,
          "durationTicks": 113,
          "midi": 39,
          "name": "D#2",
          "ticks": 36000,
          "time": 48.387074999999996,
          "velocity": 0.6299212598425197
        },
        {
          "duration": 0.4583331270833284,
          "durationTicks": 341,
          "midi": 51,
          "name": "D#3",
          "ticks": 36120,
          "time": 48.548365249999996,
          "velocity": 0.6299212598425197
        },
        {
          "duration": 0.30510738958333405,
          "durationTicks": 227,
          "midi": 38,
          "name": "D2",
          "ticks": 36480,
          "time": 49.032236,
          "velocity": 0.6299212598425197
        },
        {
          "duration": 0.30510738958333405,
          "durationTicks": 227,
          "midi": 53,
          "name": "F3",
          "ticks": 36720,
          "time": 49.3548165,
          "velocity": 0.6299212598425197
        },
        {
          "duration": 0.30510738958333405,
          "durationTicks": 227,
          "midi": 60,
          "name": "C4",
          "ticks": 36720,
          "time": 49.3548165,
          "velocity": 0.6299212598425197
        },
        {
          "duration": 0.1518816520833326,
          "durationTicks": 113,
          "midi": 45,
          "name": "A2",
          "ticks": 36960,
          "time": 49.677397,
          "velocity": 0.6299212598425197
        },
        {
          "duration": 0.4583331270833284,
          "durationTicks": 341,
          "midi": 53,
          "name": "F3",
          "ticks": 37080,
          "time": 49.83868725,
          "velocity": 0.6299212598425197
        },
        {
          "duration": 0.4583331270833284,
          "durationTicks": 341,
          "midi": 60,
          "name": "C4",
          "ticks": 37080,
          "time": 49.83868725,
          "velocity": 0.6299212598425197
        },
        {
          "duration": 0.30510738958332695,
          "durationTicks": 227,
          "midi": 43,
          "name": "G2",
          "ticks": 37440,
          "time": 50.322558,
          "velocity": 0.6299212598425197
        },
        {
          "duration": 0.30510738958332695,
          "durationTicks": 227,
          "midi": 59,
          "name": "B3",
          "ticks": 37680,
          "time": 50.6451385,
          "velocity": 0.6299212598425197
        },
        {
          "duration": 0.30510738958332695,
          "durationTicks": 227,
          "midi": 64,
          "name": "E4",
          "ticks": 37680,
          "time": 50.6451385,
          "velocity": 0.6299212598425197
        },
        {
          "duration": 0.1518816520833397,
          "durationTicks": 113,
          "midi": 53,
          "name": "F3",
          "ticks": 37920,
          "time": 50.967718999999995,
          "velocity": 0.6299212598425197
        },
        {
          "duration": 0.4583331270833355,
          "durationTicks": 341,
          "midi": 59,
          "name": "B3",
          "ticks": 38040,
          "time": 51.129009249999996,
          "velocity": 0.6299212598425197
        },
        {
          "duration": 0.4583331270833355,
          "durationTicks": 341,
          "midi": 64,
          "name": "E4",
          "ticks": 38040,
          "time": 51.129009249999996,
          "velocity": 0.6299212598425197
        },
        {
          "duration": 0.30510738958333405,
          "durationTicks": 227,
          "midi": 36,
          "name": "C2",
          "ticks": 38400,
          "time": 51.61288,
          "velocity": 0.6299212598425197
        },
        {
          "duration": 0.30510738958333405,
          "durationTicks": 227,
          "midi": 55,
          "name": "G3",
          "ticks": 38640,
          "time": 51.9354605,
          "velocity": 0.6299212598425197
        },
        {
          "duration": 0.30510738958333405,
          "durationTicks": 227,
          "midi": 59,
          "name": "B3",
          "ticks": 38640,
          "time": 51.9354605,
          "velocity": 0.6299212598425197
        },
        {
          "duration": 0.1518816520833326,
          "durationTicks": 113,
          "midi": 48,
          "name": "C3",
          "ticks": 38880,
          "time": 52.258041,
          "velocity": 0.6299212598425197
        },
        {
          "duration": 0.4583331270833284,
          "durationTicks": 341,
          "midi": 55,
          "name": "G3",
          "ticks": 39000,
          "time": 52.41933125,
          "velocity": 0.6299212598425197
        },
        {
          "duration": 0.4583331270833284,
          "durationTicks": 341,
          "midi": 59,
          "name": "B3",
          "ticks": 39000,
          "time": 52.41933125,
          "velocity": 0.6299212598425197
        },
        {
          "duration": 0.30510738958332695,
          "durationTicks": 227,
          "midi": 36,
          "name": "C2",
          "ticks": 39360,
          "time": 52.903202,
          "velocity": 0.6299212598425197
        },
        {
          "duration": 0.30510738958332695,
          "durationTicks": 227,
          "midi": 55,
          "name": "G3",
          "ticks": 39600,
          "time": 53.2257825,
          "velocity": 0.6299212598425197
        },
        {
          "duration": 0.30510738958332695,
          "durationTicks": 227,
          "midi": 59,
          "name": "B3",
          "ticks": 39600,
          "time": 53.2257825,
          "velocity": 0.6299212598425197
        },
        {
          "duration": 0.1518816520833326,
          "durationTicks": 113,
          "midi": 48,
          "name": "C3",
          "ticks": 39840,
          "time": 53.548363,
          "velocity": 0.6299212598425197
        },
        {
          "duration": 0.4583331270833355,
          "durationTicks": 341,
          "midi": 55,
          "name": "G3",
          "ticks": 39960,
          "time": 53.709653249999995,
          "velocity": 0.6299212598425197
        },
        {
          "duration": 0.4583331270833355,
          "durationTicks": 341,
          "midi": 59,
          "name": "B3",
          "ticks": 39960,
          "time": 53.709653249999995,
          "velocity": 0.6299212598425197
        },
        {
          "duration": 0.30510738958333405,
          "durationTicks": 227,
          "midi": 35,
          "name": "B1",
          "ticks": 40320,
          "time": 54.193524,
          "velocity": 0.6299212598425197
        },
        {
          "duration": 0.30510738958333405,
          "durationTicks": 227,
          "midi": 50,
          "name": "D3",
          "ticks": 40560,
          "time": 54.5161045,
          "velocity": 0.6299212598425197
        },
        {
          "duration": 0.30510738958333405,
          "durationTicks": 227,
          "midi": 57,
          "name": "A3",
          "ticks": 40560,
          "time": 54.5161045,
          "velocity": 0.6299212598425197
        },
        {
          "duration": 0.1518816520833326,
          "durationTicks": 113,
          "midi": 47,
          "name": "B2",
          "ticks": 40800,
          "time": 54.838685,
          "velocity": 0.6299212598425197
        },
        {
          "duration": 0.4583331270833284,
          "durationTicks": 341,
          "midi": 50,
          "name": "D3",
          "ticks": 40920,
          "time": 54.99997525,
          "velocity": 0.6299212598425197
        },
        {
          "duration": 0.4583331270833284,
          "durationTicks": 341,
          "midi": 57,
          "name": "A3",
          "ticks": 40920,
          "time": 54.99997525,
          "velocity": 0.6299212598425197
        },
        {
          "duration": 0.1518816520833326,
          "durationTicks": 113,
          "midi": 39,
          "name": "D#2",
          "ticks": 41280,
          "time": 55.483846,
          "velocity": 0.6299212598425197
        },
        {
          "duration": 0.1518816520833326,
          "durationTicks": 113,
          "midi": 51,
          "name": "D#3",
          "ticks": 41400,
          "time": 55.64513625,
          "velocity": 0.6299212598425197
        },
        {
          "duration": 0.30510738958332695,
          "durationTicks": 227,
          "midi": 54,
          "name": "F#3",
          "ticks": 41520,
          "time": 55.8064265,
          "velocity": 0.6299212598425197
        },
        {
          "duration": 0.30510738958332695,
          "durationTicks": 227,
          "midi": 57,
          "name": "A3",
          "ticks": 41520,
          "time": 55.8064265,
          "velocity": 0.6299212598425197
        },
        {
          "duration": 0.1518816520833326,
          "durationTicks": 113,
          "midi": 51,
          "name": "D#3",
          "ticks": 41760,
          "time": 56.129007,
          "velocity": 0.6299212598425197
        },
        {
          "duration": 0.30510738958332695,
          "durationTicks": 227,
          "midi": 54,
          "name": "F#3",
          "ticks": 41880,
          "time": 56.29029725,
          "velocity": 0.6299212598425197
        },
        {
          "duration": 0.30510738958332695,
          "durationTicks": 227,
          "midi": 57,
          "name": "A3",
          "ticks": 41880,
          "time": 56.29029725,
          "velocity": 0.6299212598425197
        },
        {
          "duration": 0.1518816520833326,
          "durationTicks": 113,
          "midi": 41,
          "name": "F2",
          "ticks": 42120,
          "time": 56.612877749999996,
          "velocity": 0.6299212598425197
        },
        {
          "duration": 0.30510738958333405,
          "durationTicks": 227,
          "midi": 40,
          "name": "E2",
          "ticks": 42240,
          "time": 56.774167999999996,
          "velocity": 0.6299212598425197
        },
        {
          "duration": 0.30510738958333405,
          "durationTicks": 227,
          "midi": 55,
          "name": "G3",
          "ticks": 42480,
          "time": 57.0967485,
          "velocity": 0.6299212598425197
        },
        {
          "duration": 0.30510738958333405,
          "durationTicks": 227,
          "midi": 62,
          "name": "D4",
          "ticks": 42480,
          "time": 57.0967485,
          "velocity": 0.6299212598425197
        },
        {
          "duration": 0.1518816520833326,
          "durationTicks": 113,
          "midi": 52,
          "name": "E3",
          "ticks": 42720,
          "time": 57.419329,
          "velocity": 0.6299212598425197
        },
        {
          "duration": 0.4583331270833284,
          "durationTicks": 341,
          "midi": 55,
          "name": "G3",
          "ticks": 42840,
          "time": 57.58061925,
          "velocity": 0.6299212598425197
        },
        {
          "duration": 0.4583331270833284,
          "durationTicks": 341,
          "midi": 62,
          "name": "D4",
          "ticks": 42840,
          "time": 57.58061925,
          "velocity": 0.6299212598425197
        },
        {
          "duration": 0.30510738958332695,
          "durationTicks": 227,
          "midi": 40,
          "name": "E2",
          "ticks": 43200,
          "time": 58.06449,
          "velocity": 0.6299212598425197
        },
        {
          "duration": 0.30510738958332695,
          "durationTicks": 227,
          "midi": 55,
          "name": "G3",
          "ticks": 43440,
          "time": 58.3870705,
          "velocity": 0.6299212598425197
        },
        {
          "duration": 0.30510738958332695,
          "durationTicks": 227,
          "midi": 62,
          "name": "D4",
          "ticks": 43440,
          "time": 58.3870705,
          "velocity": 0.6299212598425197
        },
        {
          "duration": 0.1518816520833326,
          "durationTicks": 113,
          "midi": 39,
          "name": "D#2",
          "ticks": 43680,
          "time": 58.709651,
          "velocity": 0.6299212598425197
        },
        {
          "duration": 0.4583331270833284,
          "durationTicks": 341,
          "midi": 51,
          "name": "D#3",
          "ticks": 43800,
          "time": 58.87094125,
          "velocity": 0.6299212598425197
        },
        {
          "duration": 0.30510738958333405,
          "durationTicks": 227,
          "midi": 38,
          "name": "D2",
          "ticks": 44160,
          "time": 59.354811999999995,
          "velocity": 0.6299212598425197
        },
        {
          "duration": 0.30510738958333405,
          "durationTicks": 227,
          "midi": 53,
          "name": "F3",
          "ticks": 44400,
          "time": 59.677392499999996,
          "velocity": 0.6299212598425197
        },
        {
          "duration": 0.30510738958333405,
          "durationTicks": 227,
          "midi": 60,
          "name": "C4",
          "ticks": 44400,
          "time": 59.677392499999996,
          "velocity": 0.6299212598425197
        },
        {
          "duration": 0.1518816520833326,
          "durationTicks": 113,
          "midi": 45,
          "name": "A2",
          "ticks": 44640,
          "time": 59.999973,
          "velocity": 0.6299212598425197
        },
        {
          "duration": 0.4583331270833284,
          "durationTicks": 341,
          "midi": 53,
          "name": "F3",
          "ticks": 44760,
          "time": 60.16126325,
          "velocity": 0.6299212598425197
        },
        {
          "duration": 0.4583331270833284,
          "durationTicks": 341,
          "midi": 60,
          "name": "C4",
          "ticks": 44760,
          "time": 60.16126325,
          "velocity": 0.6299212598425197
        },
        {
          "duration": 0.30510738958333405,
          "durationTicks": 227,
          "midi": 43,
          "name": "G2",
          "ticks": 45120,
          "time": 60.645134,
          "velocity": 0.6299212598425197
        },
        {
          "duration": 0.30510738958332695,
          "durationTicks": 227,
          "midi": 59,
          "name": "B3",
          "ticks": 45360,
          "time": 60.9677145,
          "velocity": 0.6299212598425197
        },
        {
          "duration": 0.30510738958332695,
          "durationTicks": 227,
          "midi": 64,
          "name": "E4",
          "ticks": 45360,
          "time": 60.9677145,
          "velocity": 0.6299212598425197
        },
        {
          "duration": 0.1518816520833326,
          "durationTicks": 113,
          "midi": 53,
          "name": "F3",
          "ticks": 45600,
          "time": 61.290295,
          "velocity": 0.6299212598425197
        },
        {
          "duration": 0.4583331270833284,
          "durationTicks": 341,
          "midi": 59,
          "name": "B3",
          "ticks": 45720,
          "time": 61.45158525,
          "velocity": 0.6299212598425197
        },
        {
          "duration": 0.4583331270833284,
          "durationTicks": 341,
          "midi": 64,
          "name": "E4",
          "ticks": 45720,
          "time": 61.45158525,
          "velocity": 0.6299212598425197
        },
        {
          "duration": 0.30510738958332695,
          "durationTicks": 227,
          "midi": 36,
          "name": "C2",
          "ticks": 46080,
          "time": 61.935456,
          "velocity": 0.6299212598425197
        },
        {
          "duration": 0.30510738958333405,
          "durationTicks": 227,
          "midi": 55,
          "name": "G3",
          "ticks": 46320,
          "time": 62.258036499999996,
          "velocity": 0.6299212598425197
        },
        {
          "duration": 0.30510738958333405,
          "durationTicks": 227,
          "midi": 59,
          "name": "B3",
          "ticks": 46320,
          "time": 62.258036499999996,
          "velocity": 0.6299212598425197
        },
        {
          "duration": 0.1518816520833326,
          "durationTicks": 113,
          "midi": 48,
          "name": "C3",
          "ticks": 46560,
          "time": 62.580617,
          "velocity": 0.6299212598425197
        },
        {
          "duration": 0.4583331270833284,
          "durationTicks": 341,
          "midi": 55,
          "name": "G3",
          "ticks": 46680,
          "time": 62.74190725,
          "velocity": 0.6299212598425197
        },
        {
          "duration": 0.4583331270833284,
          "durationTicks": 341,
          "midi": 59,
          "name": "B3",
          "ticks": 46680,
          "time": 62.74190725,
          "velocity": 0.6299212598425197
        },
        {
          "duration": 0.30510738958333405,
          "durationTicks": 227,
          "midi": 36,
          "name": "C2",
          "ticks": 47040,
          "time": 63.225778,
          "velocity": 0.6299212598425197
        },
        {
          "duration": 0.30510738958332695,
          "durationTicks": 227,
          "midi": 55,
          "name": "G3",
          "ticks": 47280,
          "time": 63.5483585,
          "velocity": 0.6299212598425197
        },
        {
          "duration": 0.30510738958332695,
          "durationTicks": 227,
          "midi": 59,
          "name": "B3",
          "ticks": 47280,
          "time": 63.5483585,
          "velocity": 0.6299212598425197
        },
        {
          "duration": 0.1518816520833255,
          "durationTicks": 113,
          "midi": 48,
          "name": "C3",
          "ticks": 47520,
          "time": 63.870939,
          "velocity": 0.6299212598425197
        },
        {
          "duration": 0.4583331270833213,
          "durationTicks": 341,
          "midi": 55,
          "name": "G3",
          "ticks": 47640,
          "time": 64.03222925,
          "velocity": 0.6299212598425197
        },
        {
          "duration": 0.4583331270833213,
          "durationTicks": 341,
          "midi": 59,
          "name": "B3",
          "ticks": 47640,
          "time": 64.03222925,
          "velocity": 0.6299212598425197
        },
        {
          "duration": 0.30510738958334116,
          "durationTicks": 227,
          "midi": 35,
          "name": "B1",
          "ticks": 48000,
          "time": 64.5161,
          "velocity": 0.6299212598425197
        },
        {
          "duration": 0.30510738958332695,
          "durationTicks": 227,
          "midi": 50,
          "name": "D3",
          "ticks": 48240,
          "time": 64.8386805,
          "velocity": 0.6299212598425197
        },
        {
          "duration": 0.30510738958332695,
          "durationTicks": 227,
          "midi": 57,
          "name": "A3",
          "ticks": 48240,
          "time": 64.8386805,
          "velocity": 0.6299212598425197
        },
        {
          "duration": 0.1518816520833326,
          "durationTicks": 113,
          "midi": 47,
          "name": "B2",
          "ticks": 48480,
          "time": 65.161261,
          "velocity": 0.6299212598425197
        },
        {
          "duration": 0.4583331270833213,
          "durationTicks": 341,
          "midi": 50,
          "name": "D3",
          "ticks": 48600,
          "time": 65.32255125,
          "velocity": 0.6299212598425197
        },
        {
          "duration": 0.4583331270833213,
          "durationTicks": 341,
          "midi": 57,
          "name": "A3",
          "ticks": 48600,
          "time": 65.32255125,
          "velocity": 0.6299212598425197
        },
        {
          "duration": 0.1518816520833326,
          "durationTicks": 113,
          "midi": 39,
          "name": "D#2",
          "ticks": 48960,
          "time": 65.806422,
          "velocity": 0.6299212598425197
        },
        {
          "duration": 0.1518816520833326,
          "durationTicks": 113,
          "midi": 51,
          "name": "D#3",
          "ticks": 49080,
          "time": 65.96771225,
          "velocity": 0.6299212598425197
        },
        {
          "duration": 0.30510738958332695,
          "durationTicks": 227,
          "midi": 54,
          "name": "F#3",
          "ticks": 49200,
          "time": 66.1290025,
          "velocity": 0.6299212598425197
        },
        {
          "duration": 0.30510738958332695,
          "durationTicks": 227,
          "midi": 57,
          "name": "A3",
          "ticks": 49200,
          "time": 66.1290025,
          "velocity": 0.6299212598425197
        },
        {
          "duration": 0.1518816520833326,
          "durationTicks": 113,
          "midi": 51,
          "name": "D#3",
          "ticks": 49440,
          "time": 66.451583,
          "velocity": 0.6299212598425197
        },
        {
          "duration": 0.30510738958334116,
          "durationTicks": 227,
          "midi": 54,
          "name": "F#3",
          "ticks": 49560,
          "time": 66.61287324999999,
          "velocity": 0.6299212598425197
        },
        {
          "duration": 0.30510738958334116,
          "durationTicks": 227,
          "midi": 57,
          "name": "A3",
          "ticks": 49560,
          "time": 66.61287324999999,
          "velocity": 0.6299212598425197
        },
        {
          "duration": 0.1518816520833326,
          "durationTicks": 113,
          "midi": 41,
          "name": "F2",
          "ticks": 49800,
          "time": 66.93545375,
          "velocity": 0.6299212598425197
        },
        {
          "duration": 0.30510738958332695,
          "durationTicks": 227,
          "midi": 40,
          "name": "E2",
          "ticks": 49920,
          "time": 67.096744,
          "velocity": 0.6299212598425197
        },
        {
          "duration": 0.30510738958332695,
          "durationTicks": 227,
          "midi": 55,
          "name": "G3",
          "ticks": 50160,
          "time": 67.4193245,
          "velocity": 0.6299212598425197
        },
        {
          "duration": 0.30510738958332695,
          "durationTicks": 227,
          "midi": 62,
          "name": "D4",
          "ticks": 50160,
          "time": 67.4193245,
          "velocity": 0.6299212598425197
        },
        {
          "duration": 0.1518816520833326,
          "durationTicks": 113,
          "midi": 52,
          "name": "E3",
          "ticks": 50400,
          "time": 67.741905,
          "velocity": 0.6299212598425197
        },
        {
          "duration": 0.4583331270833355,
          "durationTicks": 341,
          "midi": 55,
          "name": "G3",
          "ticks": 50520,
          "time": 67.90319525,
          "velocity": 0.6299212598425197
        },
        {
          "duration": 0.4583331270833355,
          "durationTicks": 341,
          "midi": 62,
          "name": "D4",
          "ticks": 50520,
          "time": 67.90319525,
          "velocity": 0.6299212598425197
        },
        {
          "duration": 0.30510738958332695,
          "durationTicks": 227,
          "midi": 40,
          "name": "E2",
          "ticks": 50880,
          "time": 68.387066,
          "velocity": 0.6299212598425197
        },
        {
          "duration": 0.30510738958332695,
          "durationTicks": 227,
          "midi": 55,
          "name": "G3",
          "ticks": 51120,
          "time": 68.7096465,
          "velocity": 0.6299212598425197
        },
        {
          "duration": 0.30510738958332695,
          "durationTicks": 227,
          "midi": 62,
          "name": "D4",
          "ticks": 51120,
          "time": 68.7096465,
          "velocity": 0.6299212598425197
        },
        {
          "duration": 0.1518816520833326,
          "durationTicks": 113,
          "midi": 39,
          "name": "D#2",
          "ticks": 51360,
          "time": 69.03222699999999,
          "velocity": 0.6299212598425197
        },
        {
          "duration": 0.4583331270833213,
          "durationTicks": 341,
          "midi": 51,
          "name": "D#3",
          "ticks": 51480,
          "time": 69.19351725,
          "velocity": 0.6299212598425197
        },
        {
          "duration": 0.30510738958334116,
          "durationTicks": 227,
          "midi": 38,
          "name": "D2",
          "ticks": 51840,
          "time": 69.677388,
          "velocity": 0.6299212598425197
        },
        {
          "duration": 0.30510738958334116,
          "durationTicks": 227,
          "midi": 53,
          "name": "F3",
          "ticks": 52080,
          "time": 69.9999685,
          "velocity": 0.6299212598425197
        },
        {
          "duration": 0.30510738958334116,
          "durationTicks": 227,
          "midi": 60,
          "name": "C4",
          "ticks": 52080,
          "time": 69.9999685,
          "velocity": 0.6299212598425197
        },
        {
          "duration": 0.1518816520833326,
          "durationTicks": 113,
          "midi": 45,
          "name": "A2",
          "ticks": 52320,
          "time": 70.322549,
          "velocity": 0.6299212598425197
        },
        {
          "duration": 0.4583331270833213,
          "durationTicks": 341,
          "midi": 53,
          "name": "F3",
          "ticks": 52440,
          "time": 70.48383925,
          "velocity": 0.6299212598425197
        },
        {
          "duration": 0.4583331270833213,
          "durationTicks": 341,
          "midi": 60,
          "name": "C4",
          "ticks": 52440,
          "time": 70.48383925,
          "velocity": 0.6299212598425197
        },
        {
          "duration": 0.30510738958332695,
          "durationTicks": 227,
          "midi": 43,
          "name": "G2",
          "ticks": 52800,
          "time": 70.96771,
          "velocity": 0.6299212598425197
        },
        {
          "duration": 0.30510738958332695,
          "durationTicks": 227,
          "midi": 59,
          "name": "B3",
          "ticks": 53040,
          "time": 71.2902905,
          "velocity": 0.6299212598425197
        },
        {
          "duration": 0.30510738958332695,
          "durationTicks": 227,
          "midi": 64,
          "name": "E4",
          "ticks": 53040,
          "time": 71.2902905,
          "velocity": 0.6299212598425197
        },
        {
          "duration": 0.1518816520833326,
          "durationTicks": 113,
          "midi": 53,
          "name": "F3",
          "ticks": 53280,
          "time": 71.612871,
          "velocity": 0.6299212598425197
        },
        {
          "duration": 0.4583331270833355,
          "durationTicks": 341,
          "midi": 59,
          "name": "B3",
          "ticks": 53400,
          "time": 71.77416124999999,
          "velocity": 0.6299212598425197
        },
        {
          "duration": 0.4583331270833355,
          "durationTicks": 341,
          "midi": 64,
          "name": "E4",
          "ticks": 53400,
          "time": 71.77416124999999,
          "velocity": 0.6299212598425197
        },
        {
          "duration": 0.30510738958332695,
          "durationTicks": 227,
          "midi": 36,
          "name": "C2",
          "ticks": 53760,
          "time": 72.258032,
          "velocity": 0.6299212598425197
        },
        {
          "duration": 0.30510738958332695,
          "durationTicks": 227,
          "midi": 55,
          "name": "G3",
          "ticks": 54000,
          "time": 72.5806125,
          "velocity": 0.6299212598425197
        },
        {
          "duration": 0.30510738958332695,
          "durationTicks": 227,
          "midi": 59,
          "name": "B3",
          "ticks": 54000,
          "time": 72.5806125,
          "velocity": 0.6299212598425197
        },
        {
          "duration": 0.1518816520833326,
          "durationTicks": 113,
          "midi": 48,
          "name": "C3",
          "ticks": 54240,
          "time": 72.903193,
          "velocity": 0.6299212598425197
        },
        {
          "duration": 0.4583331270833355,
          "durationTicks": 341,
          "midi": 55,
          "name": "G3",
          "ticks": 54360,
          "time": 73.06448325,
          "velocity": 0.6299212598425197
        },
        {
          "duration": 0.4583331270833355,
          "durationTicks": 341,
          "midi": 59,
          "name": "B3",
          "ticks": 54360,
          "time": 73.06448325,
          "velocity": 0.6299212598425197
        },
        {
          "duration": 0.30510738958332695,
          "durationTicks": 227,
          "midi": 36,
          "name": "C2",
          "ticks": 54720,
          "time": 73.548354,
          "velocity": 0.6299212598425197
        },
        {
          "duration": 0.30510738958332695,
          "durationTicks": 227,
          "midi": 55,
          "name": "G3",
          "ticks": 54960,
          "time": 73.8709345,
          "velocity": 0.6299212598425197
        },
        {
          "duration": 0.30510738958332695,
          "durationTicks": 227,
          "midi": 59,
          "name": "B3",
          "ticks": 54960,
          "time": 73.8709345,
          "velocity": 0.6299212598425197
        },
        {
          "duration": 0.1518816520833326,
          "durationTicks": 113,
          "midi": 48,
          "name": "C3",
          "ticks": 55200,
          "time": 74.193515,
          "velocity": 0.6299212598425197
        },
        {
          "duration": 0.4583331270833355,
          "durationTicks": 341,
          "midi": 55,
          "name": "G3",
          "ticks": 55320,
          "time": 74.35480525,
          "velocity": 0.6299212598425197
        },
        {
          "duration": 0.4583331270833355,
          "durationTicks": 341,
          "midi": 59,
          "name": "B3",
          "ticks": 55320,
          "time": 74.35480525,
          "velocity": 0.6299212598425197
        },
        {
          "duration": 0.30510738958334116,
          "durationTicks": 227,
          "midi": 35,
          "name": "B1",
          "ticks": 55680,
          "time": 74.83867599999999,
          "velocity": 0.6299212598425197
        },
        {
          "duration": 0.30510738958334116,
          "durationTicks": 227,
          "midi": 50,
          "name": "D3",
          "ticks": 55920,
          "time": 75.1612565,
          "velocity": 0.6299212598425197
        },
        {
          "duration": 0.30510738958334116,
          "durationTicks": 227,
          "midi": 57,
          "name": "A3",
          "ticks": 55920,
          "time": 75.1612565,
          "velocity": 0.6299212598425197
        },
        {
          "duration": 0.1518816520833326,
          "durationTicks": 113,
          "midi": 47,
          "name": "B2",
          "ticks": 56160,
          "time": 75.483837,
          "velocity": 0.6299212598425197
        },
        {
          "duration": 0.4583331270833213,
          "durationTicks": 341,
          "midi": 50,
          "name": "D3",
          "ticks": 56280,
          "time": 75.64512725,
          "velocity": 0.6299212598425197
        },
        {
          "duration": 0.4583331270833213,
          "durationTicks": 341,
          "midi": 57,
          "name": "A3",
          "ticks": 56280,
          "time": 75.64512725,
          "velocity": 0.6299212598425197
        },
        {
          "duration": 0.1518816520833326,
          "durationTicks": 113,
          "midi": 39,
          "name": "D#2",
          "ticks": 56640,
          "time": 76.128998,
          "velocity": 0.6299212598425197
        },
        {
          "duration": 0.1518816520833326,
          "durationTicks": 113,
          "midi": 51,
          "name": "D#3",
          "ticks": 56760,
          "time": 76.29028825,
          "velocity": 0.6299212598425197
        },
        {
          "duration": 0.30510738958332695,
          "durationTicks": 227,
          "midi": 54,
          "name": "F#3",
          "ticks": 56880,
          "time": 76.4515785,
          "velocity": 0.6299212598425197
        },
        {
          "duration": 0.30510738958332695,
          "durationTicks": 227,
          "midi": 57,
          "name": "A3",
          "ticks": 56880,
          "time": 76.4515785,
          "velocity": 0.6299212598425197
        },
        {
          "duration": 0.1518816520833326,
          "durationTicks": 113,
          "midi": 51,
          "name": "D#3",
          "ticks": 57120,
          "time": 76.774159,
          "velocity": 0.6299212598425197
        },
        {
          "duration": 0.30510738958332695,
          "durationTicks": 227,
          "midi": 54,
          "name": "F#3",
          "ticks": 57240,
          "time": 76.93544925,
          "velocity": 0.6299212598425197
        },
        {
          "duration": 0.30510738958332695,
          "durationTicks": 227,
          "midi": 57,
          "name": "A3",
          "ticks": 57240,
          "time": 76.93544925,
          "velocity": 0.6299212598425197
        },
        {
          "duration": 0.1518816520833326,
          "durationTicks": 113,
          "midi": 41,
          "name": "F2",
          "ticks": 57480,
          "time": 77.25802974999999,
          "velocity": 0.6299212598425197
        },
        {
          "duration": 0.30510738958332695,
          "durationTicks": 227,
          "midi": 40,
          "name": "E2",
          "ticks": 57600,
          "time": 77.41932,
          "velocity": 0.6299212598425197
        },
        {
          "duration": 0.30510738958332695,
          "durationTicks": 227,
          "midi": 55,
          "name": "G3",
          "ticks": 57840,
          "time": 77.7419005,
          "velocity": 0.6299212598425197
        },
        {
          "duration": 0.30510738958332695,
          "durationTicks": 227,
          "midi": 62,
          "name": "D4",
          "ticks": 57840,
          "time": 77.7419005,
          "velocity": 0.6299212598425197
        },
        {
          "duration": 0.1518816520833326,
          "durationTicks": 113,
          "midi": 52,
          "name": "E3",
          "ticks": 58080,
          "time": 78.064481,
          "velocity": 0.6299212598425197
        },
        {
          "duration": 0.4583331270833355,
          "durationTicks": 341,
          "midi": 55,
          "name": "G3",
          "ticks": 58200,
          "time": 78.22577125,
          "velocity": 0.6299212598425197
        },
        {
          "duration": 0.4583331270833355,
          "durationTicks": 341,
          "midi": 62,
          "name": "D4",
          "ticks": 58200,
          "time": 78.22577125,
          "velocity": 0.6299212598425197
        },
        {
          "duration": 0.30510738958332695,
          "durationTicks": 227,
          "midi": 40,
          "name": "E2",
          "ticks": 58560,
          "time": 78.709642,
          "velocity": 0.6299212598425197
        },
        {
          "duration": 0.30510738958332695,
          "durationTicks": 227,
          "midi": 55,
          "name": "G3",
          "ticks": 58800,
          "time": 79.0322225,
          "velocity": 0.6299212598425197
        },
        {
          "duration": 0.30510738958332695,
          "durationTicks": 227,
          "midi": 62,
          "name": "D4",
          "ticks": 58800,
          "time": 79.0322225,
          "velocity": 0.6299212598425197
        },
        {
          "duration": 0.1518816520833326,
          "durationTicks": 113,
          "midi": 39,
          "name": "D#2",
          "ticks": 59040,
          "time": 79.354803,
          "velocity": 0.6299212598425197
        },
        {
          "duration": 0.4583331270833355,
          "durationTicks": 341,
          "midi": 51,
          "name": "D#3",
          "ticks": 59160,
          "time": 79.51609325,
          "velocity": 0.6299212598425197
        },
        {
          "duration": 0.30510738958334116,
          "durationTicks": 227,
          "midi": 38,
          "name": "D2",
          "ticks": 59520,
          "time": 79.99996399999999,
          "velocity": 0.6299212598425197
        },
        {
          "duration": 0.30510738958334116,
          "durationTicks": 227,
          "midi": 53,
          "name": "F3",
          "ticks": 59760,
          "time": 80.32254449999999,
          "velocity": 0.6299212598425197
        },
        {
          "duration": 0.30510738958334116,
          "durationTicks": 227,
          "midi": 60,
          "name": "C4",
          "ticks": 59760,
          "time": 80.32254449999999,
          "velocity": 0.6299212598425197
        },
        {
          "duration": 0.1518816520833326,
          "durationTicks": 113,
          "midi": 45,
          "name": "A2",
          "ticks": 60000,
          "time": 80.645125,
          "velocity": 0.6299212598425197
        },
        {
          "duration": 0.4583331270833213,
          "durationTicks": 341,
          "midi": 53,
          "name": "F3",
          "ticks": 60120,
          "time": 80.80641525,
          "velocity": 0.6299212598425197
        },
        {
          "duration": 0.4583331270833213,
          "durationTicks": 341,
          "midi": 60,
          "name": "C4",
          "ticks": 60120,
          "time": 80.80641525,
          "velocity": 0.6299212598425197
        },
        {
          "duration": 0.30510738958334116,
          "durationTicks": 227,
          "midi": 43,
          "name": "G2",
          "ticks": 60480,
          "time": 81.290286,
          "velocity": 0.6299212598425197
        },
        {
          "duration": 0.30510738958332695,
          "durationTicks": 227,
          "midi": 59,
          "name": "B3",
          "ticks": 60720,
          "time": 81.6128665,
          "velocity": 0.6299212598425197
        },
        {
          "duration": 0.30510738958332695,
          "durationTicks": 227,
          "midi": 64,
          "name": "E4",
          "ticks": 60720,
          "time": 81.6128665,
          "velocity": 0.6299212598425197
        },
        {
          "duration": 0.1518816520833326,
          "durationTicks": 113,
          "midi": 53,
          "name": "F3",
          "ticks": 60960,
          "time": 81.935447,
          "velocity": 0.6299212598425197
        },
        {
          "duration": 0.4583331270833213,
          "durationTicks": 341,
          "midi": 59,
          "name": "B3",
          "ticks": 61080,
          "time": 82.09673725,
          "velocity": 0.6299212598425197
        },
        {
          "duration": 0.4583331270833213,
          "durationTicks": 341,
          "midi": 64,
          "name": "E4",
          "ticks": 61080,
          "time": 82.09673725,
          "velocity": 0.6299212598425197
        },
        {
          "duration": 0.30510738958332695,
          "durationTicks": 227,
          "midi": 36,
          "name": "C2",
          "ticks": 61440,
          "time": 82.580608,
          "velocity": 0.6299212598425197
        },
        {
          "duration": 0.30510738958332695,
          "durationTicks": 227,
          "midi": 55,
          "name": "G3",
          "ticks": 61680,
          "time": 82.9031885,
          "velocity": 0.6299212598425197
        },
        {
          "duration": 0.30510738958332695,
          "durationTicks": 227,
          "midi": 59,
          "name": "B3",
          "ticks": 61680,
          "time": 82.9031885,
          "velocity": 0.6299212598425197
        },
        {
          "duration": 0.1518816520833468,
          "durationTicks": 113,
          "midi": 48,
          "name": "C3",
          "ticks": 61920,
          "time": 83.225769,
          "velocity": 0.6299212598425197
        },
        {
          "duration": 0.4583331270833497,
          "durationTicks": 341,
          "midi": 55,
          "name": "G3",
          "ticks": 62040,
          "time": 83.38705925,
          "velocity": 0.6299212598425197
        },
        {
          "duration": 0.4583331270833497,
          "durationTicks": 341,
          "midi": 59,
          "name": "B3",
          "ticks": 62040,
          "time": 83.38705925,
          "velocity": 0.6299212598425197
        },
        {
          "duration": 0.30510738958332695,
          "durationTicks": 227,
          "midi": 36,
          "name": "C2",
          "ticks": 62400,
          "time": 83.87093,
          "velocity": 0.6299212598425197
        },
        {
          "duration": 0.30510738958332695,
          "durationTicks": 227,
          "midi": 55,
          "name": "G3",
          "ticks": 62640,
          "time": 84.1935105,
          "velocity": 0.6299212598425197
        },
        {
          "duration": 0.30510738958332695,
          "durationTicks": 227,
          "midi": 59,
          "name": "B3",
          "ticks": 62640,
          "time": 84.1935105,
          "velocity": 0.6299212598425197
        },
        {
          "duration": 0.1518816520833326,
          "durationTicks": 113,
          "midi": 48,
          "name": "C3",
          "ticks": 62880,
          "time": 84.516091,
          "velocity": 0.6299212598425197
        },
        {
          "duration": 0.4583331270833355,
          "durationTicks": 341,
          "midi": 55,
          "name": "G3",
          "ticks": 63000,
          "time": 84.67738125,
          "velocity": 0.6299212598425197
        },
        {
          "duration": 0.4583331270833355,
          "durationTicks": 341,
          "midi": 59,
          "name": "B3",
          "ticks": 63000,
          "time": 84.67738125,
          "velocity": 0.6299212598425197
        },
        {
          "duration": 0.30510738958332695,
          "durationTicks": 227,
          "midi": 35,
          "name": "B1",
          "ticks": 63360,
          "time": 85.161252,
          "velocity": 0.6299212598425197
        },
        {
          "duration": 0.30510738958334116,
          "durationTicks": 227,
          "midi": 50,
          "name": "D3",
          "ticks": 63600,
          "time": 85.48383249999999,
          "velocity": 0.6299212598425197
        },
        {
          "duration": 0.30510738958334116,
          "durationTicks": 227,
          "midi": 57,
          "name": "A3",
          "ticks": 63600,
          "time": 85.48383249999999,
          "velocity": 0.6299212598425197
        },
        {
          "duration": 0.1518816520833468,
          "durationTicks": 113,
          "midi": 47,
          "name": "B2",
          "ticks": 63840,
          "time": 85.80641299999999,
          "velocity": 0.6299212598425197
        },
        {
          "duration": 0.4583331270833355,
          "durationTicks": 341,
          "midi": 50,
          "name": "D3",
          "ticks": 63960,
          "time": 85.96770325,
          "velocity": 0.6299212598425197
        },
        {
          "duration": 0.4583331270833355,
          "durationTicks": 341,
          "midi": 57,
          "name": "A3",
          "ticks": 63960,
          "time": 85.96770325,
          "velocity": 0.6299212598425197
        },
        {
          "duration": 0.1518816520833468,
          "durationTicks": 113,
          "midi": 39,
          "name": "D#2",
          "ticks": 64320,
          "time": 86.451574,
          "velocity": 0.6299212598425197
        },
        {
          "duration": 0.1518816520833326,
          "durationTicks": 113,
          "midi": 51,
          "name": "D#3",
          "ticks": 64440,
          "time": 86.61286425,
          "velocity": 0.6299212598425197
        },
        {
          "duration": 0.30510738958334116,
          "durationTicks": 227,
          "midi": 54,
          "name": "F#3",
          "ticks": 64560,
          "time": 86.7741545,
          "velocity": 0.6299212598425197
        },
        {
          "duration": 0.30510738958334116,
          "durationTicks": 227,
          "midi": 57,
          "name": "A3",
          "ticks": 64560,
          "time": 86.7741545,
          "velocity": 0.6299212598425197
        },
        {
          "duration": 0.1518816520833468,
          "durationTicks": 113,
          "midi": 51,
          "name": "D#3",
          "ticks": 64800,
          "time": 87.096735,
          "velocity": 0.6299212598425197
        },
        {
          "duration": 0.30510738958332695,
          "durationTicks": 227,
          "midi": 54,
          "name": "F#3",
          "ticks": 64920,
          "time": 87.25802525,
          "velocity": 0.6299212598425197
        },
        {
          "duration": 0.30510738958332695,
          "durationTicks": 227,
          "midi": 57,
          "name": "A3",
          "ticks": 64920,
          "time": 87.25802525,
          "velocity": 0.6299212598425197
        },
        {
          "duration": 0.1518816520833326,
          "durationTicks": 113,
          "midi": 41,
          "name": "F2",
          "ticks": 65160,
          "time": 87.58060575,
          "velocity": 0.6299212598425197
        },
        {
          "duration": 0.30510738958332695,
          "durationTicks": 227,
          "midi": 40,
          "name": "E2",
          "ticks": 65280,
          "time": 87.741896,
          "velocity": 0.6299212598425197
        },
        {
          "duration": 0.30510738958332695,
          "durationTicks": 227,
          "midi": 55,
          "name": "G3",
          "ticks": 65520,
          "time": 88.0644765,
          "velocity": 0.6299212598425197
        },
        {
          "duration": 0.30510738958332695,
          "durationTicks": 227,
          "midi": 62,
          "name": "D4",
          "ticks": 65520,
          "time": 88.0644765,
          "velocity": 0.6299212598425197
        },
        {
          "duration": 0.1518816520833468,
          "durationTicks": 113,
          "midi": 52,
          "name": "E3",
          "ticks": 65760,
          "time": 88.387057,
          "velocity": 0.6299212598425197
        },
        {
          "duration": 0.4583331270833497,
          "durationTicks": 341,
          "midi": 55,
          "name": "G3",
          "ticks": 65880,
          "time": 88.54834724999999,
          "velocity": 0.6299212598425197
        },
        {
          "duration": 0.4583331270833497,
          "durationTicks": 341,
          "midi": 62,
          "name": "D4",
          "ticks": 65880,
          "time": 88.54834724999999,
          "velocity": 0.6299212598425197
        },
        {
          "duration": 0.30510738958332695,
          "durationTicks": 227,
          "midi": 40,
          "name": "E2",
          "ticks": 66240,
          "time": 89.032218,
          "velocity": 0.6299212598425197
        },
        {
          "duration": 0.30510738958332695,
          "durationTicks": 227,
          "midi": 55,
          "name": "G3",
          "ticks": 66480,
          "time": 89.3547985,
          "velocity": 0.6299212598425197
        },
        {
          "duration": 0.30510738958332695,
          "durationTicks": 227,
          "midi": 62,
          "name": "D4",
          "ticks": 66480,
          "time": 89.3547985,
          "velocity": 0.6299212598425197
        },
        {
          "duration": 0.1518816520833326,
          "durationTicks": 113,
          "midi": 39,
          "name": "D#2",
          "ticks": 66720,
          "time": 89.677379,
          "velocity": 0.6299212598425197
        },
        {
          "duration": 0.4583331270833355,
          "durationTicks": 341,
          "midi": 51,
          "name": "D#3",
          "ticks": 66840,
          "time": 89.83866925,
          "velocity": 0.6299212598425197
        },
        {
          "duration": 0.30510738958332695,
          "durationTicks": 227,
          "midi": 38,
          "name": "D2",
          "ticks": 67200,
          "time": 90.32254,
          "velocity": 0.6299212598425197
        },
        {
          "duration": 0.30510738958332695,
          "durationTicks": 227,
          "midi": 53,
          "name": "F3",
          "ticks": 67440,
          "time": 90.6451205,
          "velocity": 0.6299212598425197
        },
        {
          "duration": 0.30510738958332695,
          "durationTicks": 227,
          "midi": 60,
          "name": "C4",
          "ticks": 67440,
          "time": 90.6451205,
          "velocity": 0.6299212598425197
        },
        {
          "duration": 0.1518816520833468,
          "durationTicks": 113,
          "midi": 45,
          "name": "A2",
          "ticks": 67680,
          "time": 90.96770099999999,
          "velocity": 0.6299212598425197
        },
        {
          "duration": 0.4583331270833355,
          "durationTicks": 341,
          "midi": 53,
          "name": "F3",
          "ticks": 67800,
          "time": 91.12899125,
          "velocity": 0.6299212598425197
        },
        {
          "duration": 0.4583331270833355,
          "durationTicks": 341,
          "midi": 60,
          "name": "C4",
          "ticks": 67800,
          "time": 91.12899125,
          "velocity": 0.6299212598425197
        },
        {
          "duration": 0.30510738958334116,
          "durationTicks": 227,
          "midi": 43,
          "name": "G2",
          "ticks": 68160,
          "time": 91.61286199999999,
          "velocity": 0.6299212598425197
        },
        {
          "duration": 0.30510738958334116,
          "durationTicks": 227,
          "midi": 59,
          "name": "B3",
          "ticks": 68400,
          "time": 91.9354425,
          "velocity": 0.6299212598425197
        },
        {
          "duration": 0.30510738958334116,
          "durationTicks": 227,
          "midi": 64,
          "name": "E4",
          "ticks": 68400,
          "time": 91.9354425,
          "velocity": 0.6299212598425197
        },
        {
          "duration": 0.1518816520833468,
          "durationTicks": 113,
          "midi": 53,
          "name": "F3",
          "ticks": 68640,
          "time": 92.258023,
          "velocity": 0.6299212598425197
        },
        {
          "duration": 0.4583331270833355,
          "durationTicks": 341,
          "midi": 59,
          "name": "B3",
          "ticks": 68760,
          "time": 92.41931325,
          "velocity": 0.6299212598425197
        },
        {
          "duration": 0.4583331270833355,
          "durationTicks": 341,
          "midi": 64,
          "name": "E4",
          "ticks": 68760,
          "time": 92.41931325,
          "velocity": 0.6299212598425197
        },
        {
          "duration": 0.30510738958332695,
          "durationTicks": 227,
          "midi": 36,
          "name": "C2",
          "ticks": 69120,
          "time": 92.903184,
          "velocity": 0.6299212598425197
        },
        {
          "duration": 0.30510738958332695,
          "durationTicks": 227,
          "midi": 55,
          "name": "G3",
          "ticks": 69360,
          "time": 93.2257645,
          "velocity": 0.6299212598425197
        },
        {
          "duration": 0.30510738958332695,
          "durationTicks": 227,
          "midi": 59,
          "name": "B3",
          "ticks": 69360,
          "time": 93.2257645,
          "velocity": 0.6299212598425197
        },
        {
          "duration": 0.1518816520833468,
          "durationTicks": 113,
          "midi": 48,
          "name": "C3",
          "ticks": 69600,
          "time": 93.548345,
          "velocity": 0.6299212598425197
        },
        {
          "duration": 0.4583331270833497,
          "durationTicks": 341,
          "midi": 55,
          "name": "G3",
          "ticks": 69720,
          "time": 93.70963524999999,
          "velocity": 0.6299212598425197
        },
        {
          "duration": 0.4583331270833497,
          "durationTicks": 341,
          "midi": 59,
          "name": "B3",
          "ticks": 69720,
          "time": 93.70963524999999,
          "velocity": 0.6299212598425197
        },
        {
          "duration": 0.30510738958332695,
          "durationTicks": 227,
          "midi": 36,
          "name": "C2",
          "ticks": 70080,
          "time": 94.193506,
          "velocity": 0.6299212598425197
        },
        {
          "duration": 0.30510738958332695,
          "durationTicks": 227,
          "midi": 55,
          "name": "G3",
          "ticks": 70320,
          "time": 94.5160865,
          "velocity": 0.6299212598425197
        },
        {
          "duration": 0.30510738958332695,
          "durationTicks": 227,
          "midi": 59,
          "name": "B3",
          "ticks": 70320,
          "time": 94.5160865,
          "velocity": 0.6299212598425197
        },
        {
          "duration": 0.1518816520833326,
          "durationTicks": 113,
          "midi": 48,
          "name": "C3",
          "ticks": 70560,
          "time": 94.838667,
          "velocity": 0.6299212598425197
        },
        {
          "duration": 0.4583331270833355,
          "durationTicks": 341,
          "midi": 55,
          "name": "G3",
          "ticks": 70680,
          "time": 94.99995725,
          "velocity": 0.6299212598425197
        },
        {
          "duration": 0.4583331270833355,
          "durationTicks": 341,
          "midi": 59,
          "name": "B3",
          "ticks": 70680,
          "time": 94.99995725,
          "velocity": 0.6299212598425197
        },
        {
          "duration": 0.30510738958332695,
          "durationTicks": 227,
          "midi": 35,
          "name": "B1",
          "ticks": 71040,
          "time": 95.483828,
          "velocity": 0.6299212598425197
        },
        {
          "duration": 0.30510738958332695,
          "durationTicks": 227,
          "midi": 50,
          "name": "D3",
          "ticks": 71280,
          "time": 95.8064085,
          "velocity": 0.6299212598425197
        },
        {
          "duration": 0.30510738958332695,
          "durationTicks": 227,
          "midi": 57,
          "name": "A3",
          "ticks": 71280,
          "time": 95.8064085,
          "velocity": 0.6299212598425197
        },
        {
          "duration": 0.1518816520833326,
          "durationTicks": 113,
          "midi": 47,
          "name": "B2",
          "ticks": 71520,
          "time": 96.128989,
          "velocity": 0.6299212598425197
        },
        {
          "duration": 0.4583331270833355,
          "durationTicks": 341,
          "midi": 50,
          "name": "D3",
          "ticks": 71640,
          "time": 96.29027925,
          "velocity": 0.6299212598425197
        },
        {
          "duration": 0.4583331270833355,
          "durationTicks": 341,
          "midi": 57,
          "name": "A3",
          "ticks": 71640,
          "time": 96.29027925,
          "velocity": 0.6299212598425197
        },
        {
          "duration": 0.1518816520833468,
          "durationTicks": 113,
          "midi": 39,
          "name": "D#2",
          "ticks": 72000,
          "time": 96.77414999999999,
          "velocity": 0.6299212598425197
        },
        {
          "duration": 0.1518816520833468,
          "durationTicks": 113,
          "midi": 51,
          "name": "D#3",
          "ticks": 72120,
          "time": 96.93544025,
          "velocity": 0.6299212598425197
        },
        {
          "duration": 0.30510738958334116,
          "durationTicks": 227,
          "midi": 54,
          "name": "F#3",
          "ticks": 72240,
          "time": 97.09673049999999,
          "velocity": 0.6299212598425197
        },
        {
          "duration": 0.30510738958334116,
          "durationTicks": 227,
          "midi": 57,
          "name": "A3",
          "ticks": 72240,
          "time": 97.09673049999999,
          "velocity": 0.6299212598425197
        },
        {
          "duration": 0.1518816520833468,
          "durationTicks": 113,
          "midi": 51,
          "name": "D#3",
          "ticks": 72480,
          "time": 97.419311,
          "velocity": 0.6299212598425197
        },
        {
          "duration": 0.30510738958332695,
          "durationTicks": 227,
          "midi": 54,
          "name": "F#3",
          "ticks": 72600,
          "time": 97.58060125,
          "velocity": 0.6299212598425197
        },
        {
          "duration": 0.30510738958332695,
          "durationTicks": 227,
          "midi": 57,
          "name": "A3",
          "ticks": 72600,
          "time": 97.58060125,
          "velocity": 0.6299212598425197
        },
        {
          "duration": 0.1518816520833326,
          "durationTicks": 113,
          "midi": 41,
          "name": "F2",
          "ticks": 72840,
          "time": 97.90318175,
          "velocity": 0.6299212598425197
        },
        {
          "duration": 0.30510738958332695,
          "durationTicks": 227,
          "midi": 40,
          "name": "E2",
          "ticks": 72960,
          "time": 98.064472,
          "velocity": 0.6299212598425197
        },
        {
          "duration": 0.30510738958332695,
          "durationTicks": 227,
          "midi": 55,
          "name": "G3",
          "ticks": 73200,
          "time": 98.3870525,
          "velocity": 0.6299212598425197
        },
        {
          "duration": 0.30510738958332695,
          "durationTicks": 227,
          "midi": 62,
          "name": "D4",
          "ticks": 73200,
          "time": 98.3870525,
          "velocity": 0.6299212598425197
        },
        {
          "duration": 0.1518816520833468,
          "durationTicks": 113,
          "midi": 52,
          "name": "E3",
          "ticks": 73440,
          "time": 98.709633,
          "velocity": 0.6299212598425197
        },
        {
          "duration": 0.4583331270833355,
          "durationTicks": 341,
          "midi": 55,
          "name": "G3",
          "ticks": 73560,
          "time": 98.87092325,
          "velocity": 0.6299212598425197
        },
        {
          "duration": 0.4583331270833355,
          "durationTicks": 341,
          "midi": 62,
          "name": "D4",
          "ticks": 73560,
          "time": 98.87092325,
          "velocity": 0.6299212598425197
        },
        {
          "duration": 0.30510738958332695,
          "durationTicks": 227,
          "midi": 40,
          "name": "E2",
          "ticks": 73920,
          "time": 99.354794,
          "velocity": 0.6299212598425197
        },
        {
          "duration": 0.30510738958332695,
          "durationTicks": 227,
          "midi": 55,
          "name": "G3",
          "ticks": 74160,
          "time": 99.6773745,
          "velocity": 0.6299212598425197
        },
        {
          "duration": 0.30510738958332695,
          "durationTicks": 227,
          "midi": 62,
          "name": "D4",
          "ticks": 74160,
          "time": 99.6773745,
          "velocity": 0.6299212598425197
        },
        {
          "duration": 0.1518816520833326,
          "durationTicks": 113,
          "midi": 39,
          "name": "D#2",
          "ticks": 74400,
          "time": 99.999955,
          "velocity": 0.6299212598425197
        },
        {
          "duration": 0.4583331270833355,
          "durationTicks": 341,
          "midi": 51,
          "name": "D#3",
          "ticks": 74520,
          "time": 100.16124525,
          "velocity": 0.6299212598425197
        },
        {
          "duration": 0.30510738958332695,
          "durationTicks": 227,
          "midi": 38,
          "name": "D2",
          "ticks": 74880,
          "time": 100.645116,
          "velocity": 0.6299212598425197
        },
        {
          "duration": 0.30510738958332695,
          "durationTicks": 227,
          "midi": 53,
          "name": "F3",
          "ticks": 75120,
          "time": 100.9676965,
          "velocity": 0.6299212598425197
        },
        {
          "duration": 0.30510738958332695,
          "durationTicks": 227,
          "midi": 60,
          "name": "C4",
          "ticks": 75120,
          "time": 100.9676965,
          "velocity": 0.6299212598425197
        },
        {
          "duration": 0.1518816520833326,
          "durationTicks": 113,
          "midi": 45,
          "name": "A2",
          "ticks": 75360,
          "time": 101.290277,
          "velocity": 0.6299212598425197
        },
        {
          "duration": 0.4583331270833355,
          "durationTicks": 341,
          "midi": 53,
          "name": "F3",
          "ticks": 75480,
          "time": 101.45156725,
          "velocity": 0.6299212598425197
        },
        {
          "duration": 0.4583331270833355,
          "durationTicks": 341,
          "midi": 60,
          "name": "C4",
          "ticks": 75480,
          "time": 101.45156725,
          "velocity": 0.6299212598425197
        },
        {
          "duration": 0.30510738958334116,
          "durationTicks": 227,
          "midi": 43,
          "name": "G2",
          "ticks": 75840,
          "time": 101.93543799999999,
          "velocity": 0.6299212598425197
        },
        {
          "duration": 0.30510738958334116,
          "durationTicks": 227,
          "midi": 59,
          "name": "B3",
          "ticks": 76080,
          "time": 102.25801849999999,
          "velocity": 0.6299212598425197
        },
        {
          "duration": 0.30510738958334116,
          "durationTicks": 227,
          "midi": 64,
          "name": "E4",
          "ticks": 76080,
          "time": 102.25801849999999,
          "velocity": 0.6299212598425197
        },
        {
          "duration": 0.1518816520833468,
          "durationTicks": 113,
          "midi": 53,
          "name": "F3",
          "ticks": 76320,
          "time": 102.58059899999999,
          "velocity": 0.6299212598425197
        },
        {
          "duration": 0.4583331270833355,
          "durationTicks": 341,
          "midi": 59,
          "name": "B3",
          "ticks": 76440,
          "time": 102.74188925,
          "velocity": 0.6299212598425197
        },
        {
          "duration": 0.4583331270833355,
          "durationTicks": 341,
          "midi": 64,
          "name": "E4",
          "ticks": 76440,
          "time": 102.74188925,
          "velocity": 0.6299212598425197
        },
        {
          "duration": 0.30510738958334116,
          "durationTicks": 227,
          "midi": 36,
          "name": "C2",
          "ticks": 76800,
          "time": 103.22576,
          "velocity": 0.6299212598425197
        },
        {
          "duration": 0.30510738958332695,
          "durationTicks": 227,
          "midi": 55,
          "name": "G3",
          "ticks": 77040,
          "time": 103.5483405,
          "velocity": 0.6299212598425197
        },
        {
          "duration": 0.30510738958332695,
          "durationTicks": 227,
          "midi": 59,
          "name": "B3",
          "ticks": 77040,
          "time": 103.5483405,
          "velocity": 0.6299212598425197
        },
        {
          "duration": 0.1518816520833468,
          "durationTicks": 113,
          "midi": 48,
          "name": "C3",
          "ticks": 77280,
          "time": 103.870921,
          "velocity": 0.6299212598425197
        },
        {
          "duration": 0.4583331270833355,
          "durationTicks": 341,
          "midi": 55,
          "name": "G3",
          "ticks": 77400,
          "time": 104.03221125,
          "velocity": 0.6299212598425197
        },
        {
          "duration": 0.4583331270833355,
          "durationTicks": 341,
          "midi": 59,
          "name": "B3",
          "ticks": 77400,
          "time": 104.03221125,
          "velocity": 0.6299212598425197
        },
        {
          "duration": 0.30510738958332695,
          "durationTicks": 227,
          "midi": 36,
          "name": "C2",
          "ticks": 77760,
          "time": 104.516082,
          "velocity": 0.6299212598425197
        },
        {
          "duration": 0.30510738958332695,
          "durationTicks": 227,
          "midi": 55,
          "name": "G3",
          "ticks": 78000,
          "time": 104.8386625,
          "velocity": 0.6299212598425197
        },
        {
          "duration": 0.30510738958332695,
          "durationTicks": 227,
          "midi": 59,
          "name": "B3",
          "ticks": 78000,
          "time": 104.8386625,
          "velocity": 0.6299212598425197
        },
        {
          "duration": 0.1518816520833468,
          "durationTicks": 113,
          "midi": 48,
          "name": "C3",
          "ticks": 78240,
          "time": 105.161243,
          "velocity": 0.6299212598425197
        },
        {
          "duration": 0.4583331270833497,
          "durationTicks": 341,
          "midi": 55,
          "name": "G3",
          "ticks": 78360,
          "time": 105.32253324999999,
          "velocity": 0.6299212598425197
        },
        {
          "duration": 0.4583331270833497,
          "durationTicks": 341,
          "midi": 59,
          "name": "B3",
          "ticks": 78360,
          "time": 105.32253324999999,
          "velocity": 0.6299212598425197
        },
        {
          "duration": 0.30510738958332695,
          "durationTicks": 227,
          "midi": 35,
          "name": "B1",
          "ticks": 78720,
          "time": 105.806404,
          "velocity": 0.6299212598425197
        },
        {
          "duration": 0.30510738958332695,
          "durationTicks": 227,
          "midi": 50,
          "name": "D3",
          "ticks": 78960,
          "time": 106.1289845,
          "velocity": 0.6299212598425197
        },
        {
          "duration": 0.30510738958332695,
          "durationTicks": 227,
          "midi": 57,
          "name": "A3",
          "ticks": 78960,
          "time": 106.1289845,
          "velocity": 0.6299212598425197
        },
        {
          "duration": 0.1518816520833326,
          "durationTicks": 113,
          "midi": 47,
          "name": "B2",
          "ticks": 79200,
          "time": 106.451565,
          "velocity": 0.6299212598425197
        },
        {
          "duration": 0.4583331270833355,
          "durationTicks": 341,
          "midi": 50,
          "name": "D3",
          "ticks": 79320,
          "time": 106.61285525,
          "velocity": 0.6299212598425197
        },
        {
          "duration": 0.4583331270833355,
          "durationTicks": 341,
          "midi": 57,
          "name": "A3",
          "ticks": 79320,
          "time": 106.61285525,
          "velocity": 0.6299212598425197
        },
        {
          "duration": 0.1518816520833326,
          "durationTicks": 113,
          "midi": 39,
          "name": "D#2",
          "ticks": 79680,
          "time": 107.096726,
          "velocity": 0.6299212598425197
        },
        {
          "duration": 0.1518816520833468,
          "durationTicks": 113,
          "midi": 51,
          "name": "D#3",
          "ticks": 79800,
          "time": 107.25801625,
          "velocity": 0.6299212598425197
        },
        {
          "duration": 0.30510738958334116,
          "durationTicks": 227,
          "midi": 54,
          "name": "F#3",
          "ticks": 79920,
          "time": 107.41930649999999,
          "velocity": 0.6299212598425197
        },
        {
          "duration": 0.30510738958334116,
          "durationTicks": 227,
          "midi": 57,
          "name": "A3",
          "ticks": 79920,
          "time": 107.41930649999999,
          "velocity": 0.6299212598425197
        },
        {
          "duration": 0.1518816520833468,
          "durationTicks": 113,
          "midi": 51,
          "name": "D#3",
          "ticks": 80160,
          "time": 107.74188699999999,
          "velocity": 0.6299212598425197
        },
        {
          "duration": 0.30510738958332695,
          "durationTicks": 227,
          "midi": 54,
          "name": "F#3",
          "ticks": 80280,
          "time": 107.90317725,
          "velocity": 0.6299212598425197
        },
        {
          "duration": 0.30510738958332695,
          "durationTicks": 227,
          "midi": 57,
          "name": "A3",
          "ticks": 80280,
          "time": 107.90317725,
          "velocity": 0.6299212598425197
        },
        {
          "duration": 0.1518816520833326,
          "durationTicks": 113,
          "midi": 41,
          "name": "F2",
          "ticks": 80520,
          "time": 108.22575775,
          "velocity": 0.6299212598425197
        },
        {
          "duration": 0.30510738958334116,
          "durationTicks": 227,
          "midi": 40,
          "name": "E2",
          "ticks": 80640,
          "time": 108.387048,
          "velocity": 0.6299212598425197
        },
        {
          "duration": 0.30510738958334116,
          "durationTicks": 227,
          "midi": 55,
          "name": "G3",
          "ticks": 80880,
          "time": 108.7096285,
          "velocity": 0.6299212598425197
        },
        {
          "duration": 0.30510738958334116,
          "durationTicks": 227,
          "midi": 62,
          "name": "D4",
          "ticks": 80880,
          "time": 108.7096285,
          "velocity": 0.6299212598425197
        },
        {
          "duration": 0.1518816520833468,
          "durationTicks": 113,
          "midi": 52,
          "name": "E3",
          "ticks": 81120,
          "time": 109.032209,
          "velocity": 0.6299212598425197
        },
        {
          "duration": 0.4583331270833355,
          "durationTicks": 341,
          "midi": 55,
          "name": "G3",
          "ticks": 81240,
          "time": 109.19349925,
          "velocity": 0.6299212598425197
        },
        {
          "duration": 0.4583331270833355,
          "durationTicks": 341,
          "midi": 62,
          "name": "D4",
          "ticks": 81240,
          "time": 109.19349925,
          "velocity": 0.6299212598425197
        },
        {
          "duration": 0.30510738958332695,
          "durationTicks": 227,
          "midi": 40,
          "name": "E2",
          "ticks": 81600,
          "time": 109.67737,
          "velocity": 0.6299212598425197
        },
        {
          "duration": 0.30510738958332695,
          "durationTicks": 227,
          "midi": 55,
          "name": "G3",
          "ticks": 81840,
          "time": 109.9999505,
          "velocity": 0.6299212598425197
        },
        {
          "duration": 0.30510738958332695,
          "durationTicks": 227,
          "midi": 62,
          "name": "D4",
          "ticks": 81840,
          "time": 109.9999505,
          "velocity": 0.6299212598425197
        },
        {
          "duration": 0.1518816520833468,
          "durationTicks": 113,
          "midi": 39,
          "name": "D#2",
          "ticks": 82080,
          "time": 110.322531,
          "velocity": 0.6299212598425197
        },
        {
          "duration": 0.4583331270833497,
          "durationTicks": 341,
          "midi": 51,
          "name": "D#3",
          "ticks": 82200,
          "time": 110.48382124999999,
          "velocity": 0.6299212598425197
        },
        {
          "duration": 0.30510738958332695,
          "durationTicks": 227,
          "midi": 38,
          "name": "D2",
          "ticks": 82560,
          "time": 110.967692,
          "velocity": 0.6299212598425197
        },
        {
          "duration": 0.30510738958332695,
          "durationTicks": 227,
          "midi": 53,
          "name": "F3",
          "ticks": 82800,
          "time": 111.2902725,
          "velocity": 0.6299212598425197
        },
        {
          "duration": 0.30510738958332695,
          "durationTicks": 227,
          "midi": 60,
          "name": "C4",
          "ticks": 82800,
          "time": 111.2902725,
          "velocity": 0.6299212598425197
        },
        {
          "duration": 0.1518816520833326,
          "durationTicks": 113,
          "midi": 45,
          "name": "A2",
          "ticks": 83040,
          "time": 111.612853,
          "velocity": 0.6299212598425197
        },
        {
          "duration": 0.4583331270833355,
          "durationTicks": 341,
          "midi": 53,
          "name": "F3",
          "ticks": 83160,
          "time": 111.77414325,
          "velocity": 0.6299212598425197
        },
        {
          "duration": 0.4583331270833355,
          "durationTicks": 341,
          "midi": 60,
          "name": "C4",
          "ticks": 83160,
          "time": 111.77414325,
          "velocity": 0.6299212598425197
        },
        {
          "duration": 0.30510738958332695,
          "durationTicks": 227,
          "midi": 43,
          "name": "G2",
          "ticks": 83520,
          "time": 112.258014,
          "velocity": 0.6299212598425197
        },
        {
          "duration": 0.30510738958332695,
          "durationTicks": 227,
          "midi": 59,
          "name": "B3",
          "ticks": 83760,
          "time": 112.5805945,
          "velocity": 0.6299212598425197
        },
        {
          "duration": 0.30510738958332695,
          "durationTicks": 227,
          "midi": 64,
          "name": "E4",
          "ticks": 83760,
          "time": 112.5805945,
          "velocity": 0.6299212598425197
        },
        {
          "duration": 0.1518816520833468,
          "durationTicks": 113,
          "midi": 53,
          "name": "F3",
          "ticks": 84000,
          "time": 112.90317499999999,
          "velocity": 0.6299212598425197
        },
        {
          "duration": 0.4583331270833355,
          "durationTicks": 341,
          "midi": 59,
          "name": "B3",
          "ticks": 84120,
          "time": 113.06446525,
          "velocity": 0.6299212598425197
        },
        {
          "duration": 0.4583331270833355,
          "durationTicks": 341,
          "midi": 64,
          "name": "E4",
          "ticks": 84120,
          "time": 113.06446525,
          "velocity": 0.6299212598425197
        },
        {
          "duration": 0.30510738958334116,
          "durationTicks": 227,
          "midi": 36,
          "name": "C2",
          "ticks": 84480,
          "time": 113.54833599999999,
          "velocity": 0.6299212598425197
        },
        {
          "duration": 0.30510738958334116,
          "durationTicks": 227,
          "midi": 55,
          "name": "G3",
          "ticks": 84720,
          "time": 113.87091649999999,
          "velocity": 0.6299212598425197
        },
        {
          "duration": 0.30510738958334116,
          "durationTicks": 227,
          "midi": 59,
          "name": "B3",
          "ticks": 84720,
          "time": 113.87091649999999,
          "velocity": 0.6299212598425197
        },
        {
          "duration": 0.1518816520833468,
          "durationTicks": 113,
          "midi": 48,
          "name": "C3",
          "ticks": 84960,
          "time": 114.193497,
          "velocity": 0.6299212598425197
        },
        {
          "duration": 0.4583331270833355,
          "durationTicks": 341,
          "midi": 55,
          "name": "G3",
          "ticks": 85080,
          "time": 114.35478725,
          "velocity": 0.6299212598425197
        },
        {
          "duration": 0.4583331270833355,
          "durationTicks": 341,
          "midi": 59,
          "name": "B3",
          "ticks": 85080,
          "time": 114.35478725,
          "velocity": 0.6299212598425197
        },
        {
          "duration": 0.30510738958332695,
          "durationTicks": 227,
          "midi": 36,
          "name": "C2",
          "ticks": 85440,
          "time": 114.838658,
          "velocity": 0.6299212598425197
        },
        {
          "duration": 0.30510738958332695,
          "durationTicks": 227,
          "midi": 55,
          "name": "G3",
          "ticks": 85680,
          "time": 115.1612385,
          "velocity": 0.6299212598425197
        },
        {
          "duration": 0.30510738958332695,
          "durationTicks": 227,
          "midi": 59,
          "name": "B3",
          "ticks": 85680,
          "time": 115.1612385,
          "velocity": 0.6299212598425197
        },
        {
          "duration": 0.1518816520833468,
          "durationTicks": 113,
          "midi": 48,
          "name": "C3",
          "ticks": 85920,
          "time": 115.483819,
          "velocity": 0.6299212598425197
        },
        {
          "duration": 0.4583331270833497,
          "durationTicks": 341,
          "midi": 55,
          "name": "G3",
          "ticks": 86040,
          "time": 115.64510924999999,
          "velocity": 0.6299212598425197
        },
        {
          "duration": 0.4583331270833497,
          "durationTicks": 341,
          "midi": 59,
          "name": "B3",
          "ticks": 86040,
          "time": 115.64510924999999,
          "velocity": 0.6299212598425197
        },
        {
          "duration": 0.30510738958332695,
          "durationTicks": 227,
          "midi": 35,
          "name": "B1",
          "ticks": 86400,
          "time": 116.12898,
          "velocity": 0.6299212598425197
        },
        {
          "duration": 0.30510738958332695,
          "durationTicks": 227,
          "midi": 50,
          "name": "D3",
          "ticks": 86640,
          "time": 116.4515605,
          "velocity": 0.6299212598425197
        },
        {
          "duration": 0.30510738958332695,
          "durationTicks": 227,
          "midi": 57,
          "name": "A3",
          "ticks": 86640,
          "time": 116.4515605,
          "velocity": 0.6299212598425197
        },
        {
          "duration": 0.1518816520833326,
          "durationTicks": 113,
          "midi": 47,
          "name": "B2",
          "ticks": 86880,
          "time": 116.774141,
          "velocity": 0.6299212598425197
        },
        {
          "duration": 0.4583331270833355,
          "durationTicks": 341,
          "midi": 50,
          "name": "D3",
          "ticks": 87000,
          "time": 116.93543125,
          "velocity": 0.6299212598425197
        },
        {
          "duration": 0.4583331270833355,
          "durationTicks": 341,
          "midi": 57,
          "name": "A3",
          "ticks": 87000,
          "time": 116.93543125,
          "velocity": 0.6299212598425197
        },
        {
          "duration": 0.1518816520833326,
          "durationTicks": 113,
          "midi": 39,
          "name": "D#2",
          "ticks": 87360,
          "time": 117.419302,
          "velocity": 0.6299212598425197
        },
        {
          "duration": 0.1518816520833468,
          "durationTicks": 113,
          "midi": 51,
          "name": "D#3",
          "ticks": 87480,
          "time": 117.58059225,
          "velocity": 0.6299212598425197
        },
        {
          "duration": 0.30510738958332695,
          "durationTicks": 227,
          "midi": 54,
          "name": "F#3",
          "ticks": 87600,
          "time": 117.7418825,
          "velocity": 0.6299212598425197
        },
        {
          "duration": 0.30510738958332695,
          "durationTicks": 227,
          "midi": 57,
          "name": "A3",
          "ticks": 87600,
          "time": 117.7418825,
          "velocity": 0.6299212598425197
        },
        {
          "duration": 0.1518816520833326,
          "durationTicks": 113,
          "midi": 51,
          "name": "D#3",
          "ticks": 87840,
          "time": 118.064463,
          "velocity": 0.6299212598425197
        },
        {
          "duration": 0.30510738958332695,
          "durationTicks": 227,
          "midi": 54,
          "name": "F#3",
          "ticks": 87960,
          "time": 118.22575325,
          "velocity": 0.6299212598425197
        },
        {
          "duration": 0.30510738958332695,
          "durationTicks": 227,
          "midi": 57,
          "name": "A3",
          "ticks": 87960,
          "time": 118.22575325,
          "velocity": 0.6299212598425197
        },
        {
          "duration": 0.1518816520833468,
          "durationTicks": 113,
          "midi": 41,
          "name": "F2",
          "ticks": 88200,
          "time": 118.54833375,
          "velocity": 0.6299212598425197
        },
        {
          "duration": 0.30510738958334116,
          "durationTicks": 227,
          "midi": 40,
          "name": "E2",
          "ticks": 88320,
          "time": 118.70962399999999,
          "velocity": 0.6299212598425197
        },
        {
          "duration": 0.30510738958334116,
          "durationTicks": 227,
          "midi": 55,
          "name": "G3",
          "ticks": 88560,
          "time": 119.03220449999999,
          "velocity": 0.6299212598425197
        },
        {
          "duration": 0.30510738958334116,
          "durationTicks": 227,
          "midi": 62,
          "name": "D4",
          "ticks": 88560,
          "time": 119.03220449999999,
          "velocity": 0.6299212598425197
        },
        {
          "duration": 0.1518816520833468,
          "durationTicks": 113,
          "midi": 52,
          "name": "E3",
          "ticks": 88800,
          "time": 119.35478499999999,
          "velocity": 0.6299212598425197
        },
        {
          "duration": 0.4583331270833355,
          "durationTicks": 341,
          "midi": 55,
          "name": "G3",
          "ticks": 88920,
          "time": 119.51607525,
          "velocity": 0.6299212598425197
        },
        {
          "duration": 0.4583331270833355,
          "durationTicks": 341,
          "midi": 62,
          "name": "D4",
          "ticks": 88920,
          "time": 119.51607525,
          "velocity": 0.6299212598425197
        },
        {
          "duration": 0.30510738958332695,
          "durationTicks": 227,
          "midi": 40,
          "name": "E2",
          "ticks": 89280,
          "time": 119.999946,
          "velocity": 0.6299212598425197
        },
        {
          "duration": 0.30510738958332695,
          "durationTicks": 227,
          "midi": 55,
          "name": "G3",
          "ticks": 89520,
          "time": 120.3225265,
          "velocity": 0.6299212598425197
        },
        {
          "duration": 0.30510738958332695,
          "durationTicks": 227,
          "midi": 62,
          "name": "D4",
          "ticks": 89520,
          "time": 120.3225265,
          "velocity": 0.6299212598425197
        },
        {
          "duration": 0.1518816520833468,
          "durationTicks": 113,
          "midi": 39,
          "name": "D#2",
          "ticks": 89760,
          "time": 120.645107,
          "velocity": 0.6299212598425197
        },
        {
          "duration": 0.4583331270833355,
          "durationTicks": 341,
          "midi": 51,
          "name": "D#3",
          "ticks": 89880,
          "time": 120.80639725,
          "velocity": 0.6299212598425197
        },
        {
          "duration": 0.30510738958332695,
          "durationTicks": 227,
          "midi": 38,
          "name": "D2",
          "ticks": 90240,
          "time": 121.290268,
          "velocity": 0.6299212598425197
        },
        {
          "duration": 0.30510738958332695,
          "durationTicks": 227,
          "midi": 53,
          "name": "F3",
          "ticks": 90480,
          "time": 121.6128485,
          "velocity": 0.6299212598425197
        },
        {
          "duration": 0.30510738958332695,
          "durationTicks": 227,
          "midi": 60,
          "name": "C4",
          "ticks": 90480,
          "time": 121.6128485,
          "velocity": 0.6299212598425197
        },
        {
          "duration": 0.1518816520833468,
          "durationTicks": 113,
          "midi": 45,
          "name": "A2",
          "ticks": 90720,
          "time": 121.935429,
          "velocity": 0.6299212598425197
        },
        {
          "duration": 0.4583331270833497,
          "durationTicks": 341,
          "midi": 53,
          "name": "F3",
          "ticks": 90840,
          "time": 122.09671924999999,
          "velocity": 0.6299212598425197
        },
        {
          "duration": 0.4583331270833497,
          "durationTicks": 341,
          "midi": 60,
          "name": "C4",
          "ticks": 90840,
          "time": 122.09671924999999,
          "velocity": 0.6299212598425197
        },
        {
          "duration": 0.30510738958332695,
          "durationTicks": 227,
          "midi": 43,
          "name": "G2",
          "ticks": 91200,
          "time": 122.58059,
          "velocity": 0.6299212598425197
        },
        {
          "duration": 0.30510738958332695,
          "durationTicks": 227,
          "midi": 59,
          "name": "B3",
          "ticks": 91440,
          "time": 122.9031705,
          "velocity": 0.6299212598425197
        },
        {
          "duration": 0.30510738958332695,
          "durationTicks": 227,
          "midi": 64,
          "name": "E4",
          "ticks": 91440,
          "time": 122.9031705,
          "velocity": 0.6299212598425197
        },
        {
          "duration": 0.1518816520833326,
          "durationTicks": 113,
          "midi": 53,
          "name": "F3",
          "ticks": 91680,
          "time": 123.225751,
          "velocity": 0.6299212598425197
        },
        {
          "duration": 0.4583331270833355,
          "durationTicks": 341,
          "midi": 59,
          "name": "B3",
          "ticks": 91800,
          "time": 123.38704125,
          "velocity": 0.6299212598425197
        },
        {
          "duration": 0.4583331270833355,
          "durationTicks": 341,
          "midi": 64,
          "name": "E4",
          "ticks": 91800,
          "time": 123.38704125,
          "velocity": 0.6299212598425197
        },
        {
          "duration": 0.30510738958332695,
          "durationTicks": 227,
          "midi": 36,
          "name": "C2",
          "ticks": 92160,
          "time": 123.870912,
          "velocity": 0.6299212598425197
        },
        {
          "duration": 0.30510738958334116,
          "durationTicks": 227,
          "midi": 55,
          "name": "G3",
          "ticks": 92400,
          "time": 124.19349249999999,
          "velocity": 0.6299212598425197
        },
        {
          "duration": 0.30510738958334116,
          "durationTicks": 227,
          "midi": 59,
          "name": "B3",
          "ticks": 92400,
          "time": 124.19349249999999,
          "velocity": 0.6299212598425197
        },
        {
          "duration": 0.1518816520833468,
          "durationTicks": 113,
          "midi": 48,
          "name": "C3",
          "ticks": 92640,
          "time": 124.51607299999999,
          "velocity": 0.6299212598425197
        },
        {
          "duration": 0.4583331270833355,
          "durationTicks": 341,
          "midi": 55,
          "name": "G3",
          "ticks": 92760,
          "time": 124.67736325,
          "velocity": 0.6299212598425197
        },
        {
          "duration": 0.4583331270833355,
          "durationTicks": 341,
          "midi": 59,
          "name": "B3",
          "ticks": 92760,
          "time": 124.67736325,
          "velocity": 0.6299212598425197
        },
        {
          "duration": 0.30510738958334116,
          "durationTicks": 227,
          "midi": 36,
          "name": "C2",
          "ticks": 93120,
          "time": 125.161234,
          "velocity": 0.6299212598425197
        },
        {
          "duration": 0.30510738958332695,
          "durationTicks": 227,
          "midi": 55,
          "name": "G3",
          "ticks": 93360,
          "time": 125.4838145,
          "velocity": 0.6299212598425197
        },
        {
          "duration": 0.30510738958332695,
          "durationTicks": 227,
          "midi": 59,
          "name": "B3",
          "ticks": 93360,
          "time": 125.4838145,
          "velocity": 0.6299212598425197
        },
        {
          "duration": 0.1518816520833468,
          "durationTicks": 113,
          "midi": 48,
          "name": "C3",
          "ticks": 93600,
          "time": 125.806395,
          "velocity": 0.6299212598425197
        },
        {
          "duration": 0.4583331270833355,
          "durationTicks": 341,
          "midi": 55,
          "name": "G3",
          "ticks": 93720,
          "time": 125.96768525,
          "velocity": 0.6299212598425197
        },
        {
          "duration": 0.4583331270833355,
          "durationTicks": 341,
          "midi": 59,
          "name": "B3",
          "ticks": 93720,
          "time": 125.96768525,
          "velocity": 0.6299212598425197
        },
        {
          "duration": 0.30510738958332695,
          "durationTicks": 227,
          "midi": 35,
          "name": "B1",
          "ticks": 94080,
          "time": 126.451556,
          "velocity": 0.6299212598425197
        },
        {
          "duration": 0.30510738958332695,
          "durationTicks": 227,
          "midi": 50,
          "name": "D3",
          "ticks": 94320,
          "time": 126.7741365,
          "velocity": 0.6299212598425197
        },
        {
          "duration": 0.30510738958332695,
          "durationTicks": 227,
          "midi": 57,
          "name": "A3",
          "ticks": 94320,
          "time": 126.7741365,
          "velocity": 0.6299212598425197
        },
        {
          "duration": 0.1518816520833468,
          "durationTicks": 113,
          "midi": 47,
          "name": "B2",
          "ticks": 94560,
          "time": 127.096717,
          "velocity": 0.6299212598425197
        },
        {
          "duration": 0.4583331270833497,
          "durationTicks": 341,
          "midi": 50,
          "name": "D3",
          "ticks": 94680,
          "time": 127.25800724999999,
          "velocity": 0.6299212598425197
        },
        {
          "duration": 0.4583331270833497,
          "durationTicks": 341,
          "midi": 57,
          "name": "A3",
          "ticks": 94680,
          "time": 127.25800724999999,
          "velocity": 0.6299212598425197
        },
        {
          "duration": 0.1518816520833326,
          "durationTicks": 113,
          "midi": 39,
          "name": "D#2",
          "ticks": 95040,
          "time": 127.741878,
          "velocity": 0.6299212598425197
        },
        {
          "duration": 0.1518816520833468,
          "durationTicks": 113,
          "midi": 51,
          "name": "D#3",
          "ticks": 95160,
          "time": 127.90316825,
          "velocity": 0.6299212598425197
        },
        {
          "duration": 0.30510738958332695,
          "durationTicks": 227,
          "midi": 54,
          "name": "F#3",
          "ticks": 95280,
          "time": 128.0644585,
          "velocity": 0.6299212598425197
        },
        {
          "duration": 0.30510738958332695,
          "durationTicks": 227,
          "midi": 57,
          "name": "A3",
          "ticks": 95280,
          "time": 128.0644585,
          "velocity": 0.6299212598425197
        },
        {
          "duration": 0.1518816520833468,
          "durationTicks": 113,
          "midi": 51,
          "name": "D#3",
          "ticks": 95520,
          "time": 128.387039,
          "velocity": 0.6299212598425197
        },
        {
          "duration": 0.30510738958332695,
          "durationTicks": 227,
          "midi": 54,
          "name": "F#3",
          "ticks": 95640,
          "time": 128.54832925,
          "velocity": 0.6299212598425197
        },
        {
          "duration": 0.30510738958332695,
          "durationTicks": 227,
          "midi": 57,
          "name": "A3",
          "ticks": 95640,
          "time": 128.54832925,
          "velocity": 0.6299212598425197
        },
        {
          "duration": 0.15188165208331839,
          "durationTicks": 113,
          "midi": 41,
          "name": "F2",
          "ticks": 95880,
          "time": 128.87090975,
          "velocity": 0.6299212598425197
        },
        {
          "duration": 0.30510738958332695,
          "durationTicks": 227,
          "midi": 40,
          "name": "E2",
          "ticks": 96000,
          "time": 129.0322,
          "velocity": 0.6299212598425197
        },
        {
          "duration": 0.30510738958332695,
          "durationTicks": 227,
          "midi": 55,
          "name": "G3",
          "ticks": 96240,
          "time": 129.3547805,
          "velocity": 0.6299212598425197
        },
        {
          "duration": 0.30510738958332695,
          "durationTicks": 227,
          "midi": 62,
          "name": "D4",
          "ticks": 96240,
          "time": 129.3547805,
          "velocity": 0.6299212598425197
        },
        {
          "duration": 0.1518816520833468,
          "durationTicks": 113,
          "midi": 52,
          "name": "E3",
          "ticks": 96480,
          "time": 129.677361,
          "velocity": 0.6299212598425197
        },
        {
          "duration": 0.4583331270833355,
          "durationTicks": 341,
          "midi": 55,
          "name": "G3",
          "ticks": 96600,
          "time": 129.83865125,
          "velocity": 0.6299212598425197
        },
        {
          "duration": 0.4583331270833355,
          "durationTicks": 341,
          "midi": 62,
          "name": "D4",
          "ticks": 96600,
          "time": 129.83865125,
          "velocity": 0.6299212598425197
        },
        {
          "duration": 0.30510738958332695,
          "durationTicks": 227,
          "midi": 40,
          "name": "E2",
          "ticks": 96960,
          "time": 130.322522,
          "velocity": 0.6299212598425197
        },
        {
          "duration": 0.30510738958332695,
          "durationTicks": 227,
          "midi": 55,
          "name": "G3",
          "ticks": 97200,
          "time": 130.6451025,
          "velocity": 0.6299212598425197
        },
        {
          "duration": 0.30510738958332695,
          "durationTicks": 227,
          "midi": 62,
          "name": "D4",
          "ticks": 97200,
          "time": 130.6451025,
          "velocity": 0.6299212598425197
        },
        {
          "duration": 0.1518816520833468,
          "durationTicks": 113,
          "midi": 39,
          "name": "D#2",
          "ticks": 97440,
          "time": 130.967683,
          "velocity": 0.6299212598425197
        },
        {
          "duration": 0.4583331270833355,
          "durationTicks": 341,
          "midi": 51,
          "name": "D#3",
          "ticks": 97560,
          "time": 131.12897325,
          "velocity": 0.6299212598425197
        },
        {
          "duration": 0.30510738958332695,
          "durationTicks": 227,
          "midi": 38,
          "name": "D2",
          "ticks": 97920,
          "time": 131.612844,
          "velocity": 0.6299212598425197
        },
        {
          "duration": 0.30510738958332695,
          "durationTicks": 227,
          "midi": 53,
          "name": "F3",
          "ticks": 98160,
          "time": 131.9354245,
          "velocity": 0.6299212598425197
        },
        {
          "duration": 0.30510738958332695,
          "durationTicks": 227,
          "midi": 60,
          "name": "C4",
          "ticks": 98160,
          "time": 131.9354245,
          "velocity": 0.6299212598425197
        },
        {
          "duration": 0.1518816520833468,
          "durationTicks": 113,
          "midi": 45,
          "name": "A2",
          "ticks": 98400,
          "time": 132.258005,
          "velocity": 0.6299212598425197
        },
        {
          "duration": 0.4583331270833355,
          "durationTicks": 341,
          "midi": 53,
          "name": "F3",
          "ticks": 98520,
          "time": 132.41929525,
          "velocity": 0.6299212598425197
        },
        {
          "duration": 0.4583331270833355,
          "durationTicks": 341,
          "midi": 60,
          "name": "C4",
          "ticks": 98520,
          "time": 132.41929525,
          "velocity": 0.6299212598425197
        },
        {
          "duration": 0.30510738958332695,
          "durationTicks": 227,
          "midi": 43,
          "name": "G2",
          "ticks": 98880,
          "time": 132.903166,
          "velocity": 0.6299212598425197
        },
        {
          "duration": 0.30510738958335537,
          "durationTicks": 227,
          "midi": 59,
          "name": "B3",
          "ticks": 99120,
          "time": 133.22574649999999,
          "velocity": 0.6299212598425197
        },
        {
          "duration": 0.30510738958335537,
          "durationTicks": 227,
          "midi": 64,
          "name": "E4",
          "ticks": 99120,
          "time": 133.22574649999999,
          "velocity": 0.6299212598425197
        },
        {
          "duration": 0.1518816520833468,
          "durationTicks": 113,
          "midi": 53,
          "name": "F3",
          "ticks": 99360,
          "time": 133.548327,
          "velocity": 0.6299212598425197
        },
        {
          "duration": 0.4583331270833355,
          "durationTicks": 341,
          "midi": 59,
          "name": "B3",
          "ticks": 99480,
          "time": 133.70961725,
          "velocity": 0.6299212598425197
        },
        {
          "duration": 0.4583331270833355,
          "durationTicks": 341,
          "midi": 64,
          "name": "E4",
          "ticks": 99480,
          "time": 133.70961725,
          "velocity": 0.6299212598425197
        },
        {
          "duration": 0.30510738958332695,
          "durationTicks": 227,
          "midi": 36,
          "name": "C2",
          "ticks": 99840,
          "time": 134.193488,
          "velocity": 0.6299212598425197
        },
        {
          "duration": 0.30510738958332695,
          "durationTicks": 227,
          "midi": 55,
          "name": "G3",
          "ticks": 100080,
          "time": 134.5160685,
          "velocity": 0.6299212598425197
        },
        {
          "duration": 0.30510738958332695,
          "durationTicks": 227,
          "midi": 59,
          "name": "B3",
          "ticks": 100080,
          "time": 134.5160685,
          "velocity": 0.6299212598425197
        },
        {
          "duration": 0.1518816520833468,
          "durationTicks": 113,
          "midi": 48,
          "name": "C3",
          "ticks": 100320,
          "time": 134.838649,
          "velocity": 0.6299212598425197
        },
        {
          "duration": 0.45833312708336393,
          "durationTicks": 341,
          "midi": 55,
          "name": "G3",
          "ticks": 100440,
          "time": 134.99993924999998,
          "velocity": 0.6299212598425197
        },
        {
          "duration": 0.45833312708336393,
          "durationTicks": 341,
          "midi": 59,
          "name": "B3",
          "ticks": 100440,
          "time": 134.99993924999998,
          "velocity": 0.6299212598425197
        },
        {
          "duration": 0.30510738958332695,
          "durationTicks": 227,
          "midi": 36,
          "name": "C2",
          "ticks": 100800,
          "time": 135.48381,
          "velocity": 0.6299212598425197
        },
        {
          "duration": 0.30510738958332695,
          "durationTicks": 227,
          "midi": 55,
          "name": "G3",
          "ticks": 101040,
          "time": 135.8063905,
          "velocity": 0.6299212598425197
        },
        {
          "duration": 0.30510738958332695,
          "durationTicks": 227,
          "midi": 59,
          "name": "B3",
          "ticks": 101040,
          "time": 135.8063905,
          "velocity": 0.6299212598425197
        },
        {
          "duration": 0.15188165208331839,
          "durationTicks": 113,
          "midi": 48,
          "name": "C3",
          "ticks": 101280,
          "time": 136.128971,
          "velocity": 0.6299212598425197
        },
        {
          "duration": 0.4583331270833355,
          "durationTicks": 341,
          "midi": 55,
          "name": "G3",
          "ticks": 101400,
          "time": 136.29026125,
          "velocity": 0.6299212598425197
        },
        {
          "duration": 0.4583331270833355,
          "durationTicks": 341,
          "midi": 59,
          "name": "B3",
          "ticks": 101400,
          "time": 136.29026125,
          "velocity": 0.6299212598425197
        },
        {
          "duration": 0.30510738958332695,
          "durationTicks": 227,
          "midi": 35,
          "name": "B1",
          "ticks": 101760,
          "time": 136.774132,
          "velocity": 0.6299212598425197
        },
        {
          "duration": 0.30510738958332695,
          "durationTicks": 227,
          "midi": 50,
          "name": "D3",
          "ticks": 102000,
          "time": 137.0967125,
          "velocity": 0.6299212598425197
        },
        {
          "duration": 0.30510738958332695,
          "durationTicks": 227,
          "midi": 57,
          "name": "A3",
          "ticks": 102000,
          "time": 137.0967125,
          "velocity": 0.6299212598425197
        },
        {
          "duration": 0.15188165208331839,
          "durationTicks": 113,
          "midi": 47,
          "name": "B2",
          "ticks": 102240,
          "time": 137.419293,
          "velocity": 0.6299212598425197
        },
        {
          "duration": 0.4583331270833355,
          "durationTicks": 341,
          "midi": 50,
          "name": "D3",
          "ticks": 102360,
          "time": 137.58058325,
          "velocity": 0.6299212598425197
        },
        {
          "duration": 0.4583331270833355,
          "durationTicks": 341,
          "midi": 57,
          "name": "A3",
          "ticks": 102360,
          "time": 137.58058325,
          "velocity": 0.6299212598425197
        },
        {
          "duration": 0.1518816520833468,
          "durationTicks": 113,
          "midi": 39,
          "name": "D#2",
          "ticks": 102720,
          "time": 138.06445399999998,
          "velocity": 0.6299212598425197
        },
        {
          "duration": 0.1518816520833468,
          "durationTicks": 113,
          "midi": 51,
          "name": "D#3",
          "ticks": 102840,
          "time": 138.22574425,
          "velocity": 0.6299212598425197
        },
        {
          "duration": 0.30510738958332695,
          "durationTicks": 227,
          "midi": 54,
          "name": "F#3",
          "ticks": 102960,
          "time": 138.3870345,
          "velocity": 0.6299212598425197
        },
        {
          "duration": 0.30510738958332695,
          "durationTicks": 227,
          "midi": 57,
          "name": "A3",
          "ticks": 102960,
          "time": 138.3870345,
          "velocity": 0.6299212598425197
        },
        {
          "duration": 0.1518816520833468,
          "durationTicks": 113,
          "midi": 51,
          "name": "D#3",
          "ticks": 103200,
          "time": 138.70961499999999,
          "velocity": 0.6299212598425197
        },
        {
          "duration": 0.30510738958332695,
          "durationTicks": 227,
          "midi": 54,
          "name": "F#3",
          "ticks": 103320,
          "time": 138.87090525,
          "velocity": 0.6299212598425197
        },
        {
          "duration": 0.30510738958332695,
          "durationTicks": 227,
          "midi": 57,
          "name": "A3",
          "ticks": 103320,
          "time": 138.87090525,
          "velocity": 0.6299212598425197
        },
        {
          "duration": 0.15188165208331839,
          "durationTicks": 113,
          "midi": 41,
          "name": "F2",
          "ticks": 103560,
          "time": 139.19348575,
          "velocity": 0.6299212598425197
        },
        {
          "duration": 0.30510738958332695,
          "durationTicks": 227,
          "midi": 40,
          "name": "E2",
          "ticks": 103680,
          "time": 139.354776,
          "velocity": 0.6299212598425197
        },
        {
          "duration": 0.30510738958332695,
          "durationTicks": 227,
          "midi": 55,
          "name": "G3",
          "ticks": 103920,
          "time": 139.6773565,
          "velocity": 0.6299212598425197
        },
        {
          "duration": 0.30510738958332695,
          "durationTicks": 227,
          "midi": 62,
          "name": "D4",
          "ticks": 103920,
          "time": 139.6773565,
          "velocity": 0.6299212598425197
        },
        {
          "duration": 0.1518816520833468,
          "durationTicks": 113,
          "midi": 52,
          "name": "E3",
          "ticks": 104160,
          "time": 139.999937,
          "velocity": 0.6299212598425197
        },
        {
          "duration": 0.4583331270833355,
          "durationTicks": 341,
          "midi": 55,
          "name": "G3",
          "ticks": 104280,
          "time": 140.16122725,
          "velocity": 0.6299212598425197
        },
        {
          "duration": 0.4583331270833355,
          "durationTicks": 341,
          "midi": 62,
          "name": "D4",
          "ticks": 104280,
          "time": 140.16122725,
          "velocity": 0.6299212598425197
        },
        {
          "duration": 0.30510738958332695,
          "durationTicks": 227,
          "midi": 40,
          "name": "E2",
          "ticks": 104640,
          "time": 140.645098,
          "velocity": 0.6299212598425197
        },
        {
          "duration": 0.30510738958332695,
          "durationTicks": 227,
          "midi": 55,
          "name": "G3",
          "ticks": 104880,
          "time": 140.9676785,
          "velocity": 0.6299212598425197
        },
        {
          "duration": 0.30510738958332695,
          "durationTicks": 227,
          "midi": 62,
          "name": "D4",
          "ticks": 104880,
          "time": 140.9676785,
          "velocity": 0.6299212598425197
        },
        {
          "duration": 0.1518816520833468,
          "durationTicks": 113,
          "midi": 39,
          "name": "D#2",
          "ticks": 105120,
          "time": 141.290259,
          "velocity": 0.6299212598425197
        },
        {
          "duration": 0.4583331270833355,
          "durationTicks": 341,
          "midi": 51,
          "name": "D#3",
          "ticks": 105240,
          "time": 141.45154925,
          "velocity": 0.6299212598425197
        },
        {
          "duration": 0.30510738958332695,
          "durationTicks": 227,
          "midi": 38,
          "name": "D2",
          "ticks": 105600,
          "time": 141.93542,
          "velocity": 0.6299212598425197
        },
        {
          "duration": 0.30510738958332695,
          "durationTicks": 227,
          "midi": 53,
          "name": "F3",
          "ticks": 105840,
          "time": 142.2580005,
          "velocity": 0.6299212598425197
        },
        {
          "duration": 0.30510738958332695,
          "durationTicks": 227,
          "midi": 60,
          "name": "C4",
          "ticks": 105840,
          "time": 142.2580005,
          "velocity": 0.6299212598425197
        },
        {
          "duration": 0.1518816520833468,
          "durationTicks": 113,
          "midi": 45,
          "name": "A2",
          "ticks": 106080,
          "time": 142.580581,
          "velocity": 0.6299212598425197
        },
        {
          "duration": 0.4583331270833355,
          "durationTicks": 341,
          "midi": 53,
          "name": "F3",
          "ticks": 106200,
          "time": 142.74187125,
          "velocity": 0.6299212598425197
        },
        {
          "duration": 0.4583331270833355,
          "durationTicks": 341,
          "midi": 60,
          "name": "C4",
          "ticks": 106200,
          "time": 142.74187125,
          "velocity": 0.6299212598425197
        },
        {
          "duration": 0.30510738958332695,
          "durationTicks": 227,
          "midi": 43,
          "name": "G2",
          "ticks": 106560,
          "time": 143.225742,
          "velocity": 0.6299212598425197
        },
        {
          "duration": 0.30510738958335537,
          "durationTicks": 227,
          "midi": 59,
          "name": "B3",
          "ticks": 106800,
          "time": 143.54832249999998,
          "velocity": 0.6299212598425197
        },
        {
          "duration": 0.30510738958335537,
          "durationTicks": 227,
          "midi": 64,
          "name": "E4",
          "ticks": 106800,
          "time": 143.54832249999998,
          "velocity": 0.6299212598425197
        },
        {
          "duration": 0.1518816520833468,
          "durationTicks": 113,
          "midi": 53,
          "name": "F3",
          "ticks": 107040,
          "time": 143.870903,
          "velocity": 0.6299212598425197
        },
        {
          "duration": 0.4583331270833355,
          "durationTicks": 341,
          "midi": 59,
          "name": "B3",
          "ticks": 107160,
          "time": 144.03219325,
          "velocity": 0.6299212598425197
        },
        {
          "duration": 0.4583331270833355,
          "durationTicks": 341,
          "midi": 64,
          "name": "E4",
          "ticks": 107160,
          "time": 144.03219325,
          "velocity": 0.6299212598425197
        },
        {
          "duration": 0.30510738958332695,
          "durationTicks": 227,
          "midi": 36,
          "name": "C2",
          "ticks": 107520,
          "time": 144.516064,
          "velocity": 0.6299212598425197
        },
        {
          "duration": 0.30510738958332695,
          "durationTicks": 227,
          "midi": 55,
          "name": "G3",
          "ticks": 107760,
          "time": 144.8386445,
          "velocity": 0.6299212598425197
        },
        {
          "duration": 0.30510738958332695,
          "durationTicks": 227,
          "midi": 59,
          "name": "B3",
          "ticks": 107760,
          "time": 144.8386445,
          "velocity": 0.6299212598425197
        },
        {
          "duration": 0.1518816520833468,
          "durationTicks": 113,
          "midi": 48,
          "name": "C3",
          "ticks": 108000,
          "time": 145.161225,
          "velocity": 0.6299212598425197
        },
        {
          "duration": 0.4583331270833355,
          "durationTicks": 341,
          "midi": 55,
          "name": "G3",
          "ticks": 108120,
          "time": 145.32251525,
          "velocity": 0.6299212598425197
        },
        {
          "duration": 0.4583331270833355,
          "durationTicks": 341,
          "midi": 59,
          "name": "B3",
          "ticks": 108120,
          "time": 145.32251525,
          "velocity": 0.6299212598425197
        },
        {
          "duration": 0.30510738958332695,
          "durationTicks": 227,
          "midi": 36,
          "name": "C2",
          "ticks": 108480,
          "time": 145.806386,
          "velocity": 0.6299212598425197
        },
        {
          "duration": 0.30510738958332695,
          "durationTicks": 227,
          "midi": 55,
          "name": "G3",
          "ticks": 108720,
          "time": 146.1289665,
          "velocity": 0.6299212598425197
        },
        {
          "duration": 0.30510738958332695,
          "durationTicks": 227,
          "midi": 59,
          "name": "B3",
          "ticks": 108720,
          "time": 146.1289665,
          "velocity": 0.6299212598425197
        },
        {
          "duration": 0.1518816520833468,
          "durationTicks": 113,
          "midi": 48,
          "name": "C3",
          "ticks": 108960,
          "time": 146.451547,
          "velocity": 0.6299212598425197
        },
        {
          "duration": 0.45833312708336393,
          "durationTicks": 341,
          "midi": 55,
          "name": "G3",
          "ticks": 109080,
          "time": 146.61283724999998,
          "velocity": 0.6299212598425197
        },
        {
          "duration": 0.45833312708336393,
          "durationTicks": 341,
          "midi": 59,
          "name": "B3",
          "ticks": 109080,
          "time": 146.61283724999998,
          "velocity": 0.6299212598425197
        },
        {
          "duration": 0.30510738958332695,
          "durationTicks": 227,
          "midi": 35,
          "name": "B1",
          "ticks": 109440,
          "time": 147.096708,
          "velocity": 0.6299212598425197
        },
        {
          "duration": 0.30510738958332695,
          "durationTicks": 227,
          "midi": 50,
          "name": "D3",
          "ticks": 109680,
          "time": 147.4192885,
          "velocity": 0.6299212598425197
        },
        {
          "duration": 0.30510738958332695,
          "durationTicks": 227,
          "midi": 57,
          "name": "A3",
          "ticks": 109680,
          "time": 147.4192885,
          "velocity": 0.6299212598425197
        },
        {
          "duration": 0.15188165208331839,
          "durationTicks": 113,
          "midi": 47,
          "name": "B2",
          "ticks": 109920,
          "time": 147.741869,
          "velocity": 0.6299212598425197
        },
        {
          "duration": 0.4583331270833355,
          "durationTicks": 341,
          "midi": 50,
          "name": "D3",
          "ticks": 110040,
          "time": 147.90315925,
          "velocity": 0.6299212598425197
        },
        {
          "duration": 0.4583331270833355,
          "durationTicks": 341,
          "midi": 57,
          "name": "A3",
          "ticks": 110040,
          "time": 147.90315925,
          "velocity": 0.6299212598425197
        },
        {
          "duration": 0.15188165208331839,
          "durationTicks": 113,
          "midi": 39,
          "name": "D#2",
          "ticks": 110400,
          "time": 148.38703,
          "velocity": 0.6299212598425197
        },
        {
          "duration": 0.1518816520833468,
          "durationTicks": 113,
          "midi": 51,
          "name": "D#3",
          "ticks": 110520,
          "time": 148.54832025,
          "velocity": 0.6299212598425197
        },
        {
          "duration": 0.30510738958332695,
          "durationTicks": 227,
          "midi": 54,
          "name": "F#3",
          "ticks": 110640,
          "time": 148.7096105,
          "velocity": 0.6299212598425197
        },
        {
          "duration": 0.30510738958332695,
          "durationTicks": 227,
          "midi": 57,
          "name": "A3",
          "ticks": 110640,
          "time": 148.7096105,
          "velocity": 0.6299212598425197
        },
        {
          "duration": 0.1518816520833468,
          "durationTicks": 113,
          "midi": 51,
          "name": "D#3",
          "ticks": 110880,
          "time": 149.03219099999998,
          "velocity": 0.6299212598425197
        },
        {
          "duration": 0.30510738958332695,
          "durationTicks": 227,
          "midi": 54,
          "name": "F#3",
          "ticks": 111000,
          "time": 149.19348125,
          "velocity": 0.6299212598425197
        },
        {
          "duration": 0.30510738958332695,
          "durationTicks": 227,
          "midi": 57,
          "name": "A3",
          "ticks": 111000,
          "time": 149.19348125,
          "velocity": 0.6299212598425197
        },
        {
          "duration": 0.15188165208331839,
          "durationTicks": 113,
          "midi": 41,
          "name": "F2",
          "ticks": 111240,
          "time": 149.51606175,
          "velocity": 0.6299212598425197
        },
        {
          "duration": 0.30510738958335537,
          "durationTicks": 227,
          "midi": 40,
          "name": "E2",
          "ticks": 111360,
          "time": 149.67735199999998,
          "velocity": 0.6299212598425197
        },
        {
          "duration": 0.30510738958332695,
          "durationTicks": 227,
          "midi": 55,
          "name": "G3",
          "ticks": 111600,
          "time": 149.9999325,
          "velocity": 0.6299212598425197
        },
        {
          "duration": 0.30510738958332695,
          "durationTicks": 227,
          "midi": 62,
          "name": "D4",
          "ticks": 111600,
          "time": 149.9999325,
          "velocity": 0.6299212598425197
        },
        {
          "duration": 0.1518816520833468,
          "durationTicks": 113,
          "midi": 52,
          "name": "E3",
          "ticks": 111840,
          "time": 150.322513,
          "velocity": 0.6299212598425197
        },
        {
          "duration": 0.4583331270833355,
          "durationTicks": 341,
          "midi": 55,
          "name": "G3",
          "ticks": 111960,
          "time": 150.48380325,
          "velocity": 0.6299212598425197
        },
        {
          "duration": 0.4583331270833355,
          "durationTicks": 341,
          "midi": 62,
          "name": "D4",
          "ticks": 111960,
          "time": 150.48380325,
          "velocity": 0.6299212598425197
        },
        {
          "duration": 0.30510738958332695,
          "durationTicks": 227,
          "midi": 40,
          "name": "E2",
          "ticks": 112320,
          "time": 150.967674,
          "velocity": 0.6299212598425197
        },
        {
          "duration": 0.30510738958332695,
          "durationTicks": 227,
          "midi": 55,
          "name": "G3",
          "ticks": 112560,
          "time": 151.2902545,
          "velocity": 0.6299212598425197
        },
        {
          "duration": 0.30510738958332695,
          "durationTicks": 227,
          "midi": 62,
          "name": "D4",
          "ticks": 112560,
          "time": 151.2902545,
          "velocity": 0.6299212598425197
        },
        {
          "duration": 0.1518816520833468,
          "durationTicks": 113,
          "midi": 39,
          "name": "D#2",
          "ticks": 112800,
          "time": 151.612835,
          "velocity": 0.6299212598425197
        },
        {
          "duration": 0.4583331270833355,
          "durationTicks": 341,
          "midi": 51,
          "name": "D#3",
          "ticks": 112920,
          "time": 151.77412525,
          "velocity": 0.6299212598425197
        },
        {
          "duration": 0.30510738958332695,
          "durationTicks": 227,
          "midi": 38,
          "name": "D2",
          "ticks": 113280,
          "time": 152.257996,
          "velocity": 0.6299212598425197
        },
        {
          "duration": 0.30510738958332695,
          "durationTicks": 227,
          "midi": 53,
          "name": "F3",
          "ticks": 113520,
          "time": 152.5805765,
          "velocity": 0.6299212598425197
        },
        {
          "duration": 0.30510738958332695,
          "durationTicks": 227,
          "midi": 60,
          "name": "C4",
          "ticks": 113520,
          "time": 152.5805765,
          "velocity": 0.6299212598425197
        },
        {
          "duration": 0.1518816520833468,
          "durationTicks": 113,
          "midi": 45,
          "name": "A2",
          "ticks": 113760,
          "time": 152.903157,
          "velocity": 0.6299212598425197
        },
        {
          "duration": 0.4583331270833355,
          "durationTicks": 341,
          "midi": 53,
          "name": "F3",
          "ticks": 113880,
          "time": 153.06444725,
          "velocity": 0.6299212598425197
        },
        {
          "duration": 0.4583331270833355,
          "durationTicks": 341,
          "midi": 60,
          "name": "C4",
          "ticks": 113880,
          "time": 153.06444725,
          "velocity": 0.6299212598425197
        },
        {
          "duration": 0.30510738958332695,
          "durationTicks": 227,
          "midi": 43,
          "name": "G2",
          "ticks": 114240,
          "time": 153.548318,
          "velocity": 0.6299212598425197
        },
        {
          "duration": 0.30510738958332695,
          "durationTicks": 227,
          "midi": 59,
          "name": "B3",
          "ticks": 114480,
          "time": 153.8708985,
          "velocity": 0.6299212598425197
        },
        {
          "duration": 0.30510738958332695,
          "durationTicks": 227,
          "midi": 64,
          "name": "E4",
          "ticks": 114480,
          "time": 153.8708985,
          "velocity": 0.6299212598425197
        },
        {
          "duration": 0.1518816520833468,
          "durationTicks": 113,
          "midi": 53,
          "name": "F3",
          "ticks": 114720,
          "time": 154.193479,
          "velocity": 0.6299212598425197
        },
        {
          "duration": 0.4583331270833355,
          "durationTicks": 341,
          "midi": 59,
          "name": "B3",
          "ticks": 114840,
          "time": 154.35476925,
          "velocity": 0.6299212598425197
        },
        {
          "duration": 0.4583331270833355,
          "durationTicks": 341,
          "midi": 64,
          "name": "E4",
          "ticks": 114840,
          "time": 154.35476925,
          "velocity": 0.6299212598425197
        },
        {
          "duration": 0.30510738958332695,
          "durationTicks": 227,
          "midi": 36,
          "name": "C2",
          "ticks": 115200,
          "time": 154.83864,
          "velocity": 0.6299212598425197
        },
        {
          "duration": 0.30510738958335537,
          "durationTicks": 227,
          "midi": 55,
          "name": "G3",
          "ticks": 115440,
          "time": 155.16122049999998,
          "velocity": 0.6299212598425197
        },
        {
          "duration": 0.30510738958335537,
          "durationTicks": 227,
          "midi": 59,
          "name": "B3",
          "ticks": 115440,
          "time": 155.16122049999998,
          "velocity": 0.6299212598425197
        },
        {
          "duration": 0.1518816520833468,
          "durationTicks": 113,
          "midi": 48,
          "name": "C3",
          "ticks": 115680,
          "time": 155.483801,
          "velocity": 0.6299212598425197
        },
        {
          "duration": 0.4583331270833355,
          "durationTicks": 341,
          "midi": 55,
          "name": "G3",
          "ticks": 115800,
          "time": 155.64509125,
          "velocity": 0.6299212598425197
        },
        {
          "duration": 0.4583331270833355,
          "durationTicks": 341,
          "midi": 59,
          "name": "B3",
          "ticks": 115800,
          "time": 155.64509125,
          "velocity": 0.6299212598425197
        },
        {
          "duration": 0.30510738958332695,
          "durationTicks": 227,
          "midi": 36,
          "name": "C2",
          "ticks": 116160,
          "time": 156.128962,
          "velocity": 0.6299212598425197
        },
        {
          "duration": 0.30510738958332695,
          "durationTicks": 227,
          "midi": 55,
          "name": "G3",
          "ticks": 116400,
          "time": 156.4515425,
          "velocity": 0.6299212598425197
        },
        {
          "duration": 0.30510738958332695,
          "durationTicks": 227,
          "midi": 59,
          "name": "B3",
          "ticks": 116400,
          "time": 156.4515425,
          "velocity": 0.6299212598425197
        },
        {
          "duration": 0.1518816520833468,
          "durationTicks": 113,
          "midi": 48,
          "name": "C3",
          "ticks": 116640,
          "time": 156.774123,
          "velocity": 0.6299212598425197
        },
        {
          "duration": 0.45833312708336393,
          "durationTicks": 341,
          "midi": 55,
          "name": "G3",
          "ticks": 116760,
          "time": 156.93541324999998,
          "velocity": 0.6299212598425197
        },
        {
          "duration": 0.45833312708336393,
          "durationTicks": 341,
          "midi": 59,
          "name": "B3",
          "ticks": 116760,
          "time": 156.93541324999998,
          "velocity": 0.6299212598425197
        },
        {
          "duration": 0.30510738958332695,
          "durationTicks": 227,
          "midi": 35,
          "name": "B1",
          "ticks": 117120,
          "time": 157.419284,
          "velocity": 0.6299212598425197
        },
        {
          "duration": 0.30510738958332695,
          "durationTicks": 227,
          "midi": 50,
          "name": "D3",
          "ticks": 117360,
          "time": 157.7418645,
          "velocity": 0.6299212598425197
        },
        {
          "duration": 0.30510738958332695,
          "durationTicks": 227,
          "midi": 57,
          "name": "A3",
          "ticks": 117360,
          "time": 157.7418645,
          "velocity": 0.6299212598425197
        },
        {
          "duration": 0.15188165208331839,
          "durationTicks": 113,
          "midi": 47,
          "name": "B2",
          "ticks": 117600,
          "time": 158.064445,
          "velocity": 0.6299212598425197
        },
        {
          "duration": 0.4583331270833355,
          "durationTicks": 341,
          "midi": 50,
          "name": "D3",
          "ticks": 117720,
          "time": 158.22573524999999,
          "velocity": 0.6299212598425197
        },
        {
          "duration": 0.4583331270833355,
          "durationTicks": 341,
          "midi": 57,
          "name": "A3",
          "ticks": 117720,
          "time": 158.22573524999999,
          "velocity": 0.6299212598425197
        },
        {
          "duration": 0.15188165208331839,
          "durationTicks": 113,
          "midi": 39,
          "name": "D#2",
          "ticks": 118080,
          "time": 158.709606,
          "velocity": 0.6299212598425197
        },
        {
          "duration": 0.1518816520833468,
          "durationTicks": 113,
          "midi": 51,
          "name": "D#3",
          "ticks": 118200,
          "time": 158.87089625,
          "velocity": 0.6299212598425197
        },
        {
          "duration": 0.30510738958332695,
          "durationTicks": 227,
          "midi": 54,
          "name": "F#3",
          "ticks": 118320,
          "time": 159.0321865,
          "velocity": 0.6299212598425197
        },
        {
          "duration": 0.30510738958332695,
          "durationTicks": 227,
          "midi": 57,
          "name": "A3",
          "ticks": 118320,
          "time": 159.0321865,
          "velocity": 0.6299212598425197
        },
        {
          "duration": 0.15188165208331839,
          "durationTicks": 113,
          "midi": 51,
          "name": "D#3",
          "ticks": 118560,
          "time": 159.354767,
          "velocity": 0.6299212598425197
        },
        {
          "duration": 0.30510738958332695,
          "durationTicks": 227,
          "midi": 54,
          "name": "F#3",
          "ticks": 118680,
          "time": 159.51605725,
          "velocity": 0.6299212598425197
        },
        {
          "duration": 0.30510738958332695,
          "durationTicks": 227,
          "midi": 57,
          "name": "A3",
          "ticks": 118680,
          "time": 159.51605725,
          "velocity": 0.6299212598425197
        },
        {
          "duration": 0.1518816520833468,
          "durationTicks": 113,
          "midi": 41,
          "name": "F2",
          "ticks": 118920,
          "time": 159.83863775,
          "velocity": 0.6299212598425197
        },
        {
          "duration": 0.30510738958335537,
          "durationTicks": 227,
          "midi": 40,
          "name": "E2",
          "ticks": 119040,
          "time": 159.99992799999998,
          "velocity": 0.6299212598425197
        },
        {
          "duration": 0.30510738958332695,
          "durationTicks": 227,
          "midi": 55,
          "name": "G3",
          "ticks": 119280,
          "time": 160.3225085,
          "velocity": 0.6299212598425197
        },
        {
          "duration": 0.30510738958332695,
          "durationTicks": 227,
          "midi": 62,
          "name": "D4",
          "ticks": 119280,
          "time": 160.3225085,
          "velocity": 0.6299212598425197
        },
        {
          "duration": 0.1518816520833468,
          "durationTicks": 113,
          "midi": 52,
          "name": "E3",
          "ticks": 119520,
          "time": 160.64508899999998,
          "velocity": 0.6299212598425197
        },
        {
          "duration": 0.4583331270833355,
          "durationTicks": 341,
          "midi": 55,
          "name": "G3",
          "ticks": 119640,
          "time": 160.80637925,
          "velocity": 0.6299212598425197
        },
        {
          "duration": 0.4583331270833355,
          "durationTicks": 341,
          "midi": 62,
          "name": "D4",
          "ticks": 119640,
          "time": 160.80637925,
          "velocity": 0.6299212598425197
        },
        {
          "duration": 0.30510738958332695,
          "durationTicks": 227,
          "midi": 40,
          "name": "E2",
          "ticks": 120000,
          "time": 161.29025,
          "velocity": 0.6299212598425197
        },
        {
          "duration": 0.30510738958332695,
          "durationTicks": 227,
          "midi": 55,
          "name": "G3",
          "ticks": 120240,
          "time": 161.6128305,
          "velocity": 0.6299212598425197
        },
        {
          "duration": 0.30510738958332695,
          "durationTicks": 227,
          "midi": 62,
          "name": "D4",
          "ticks": 120240,
          "time": 161.6128305,
          "velocity": 0.6299212598425197
        },
        {
          "duration": 0.1518816520833468,
          "durationTicks": 113,
          "midi": 39,
          "name": "D#2",
          "ticks": 120480,
          "time": 161.935411,
          "velocity": 0.6299212598425197
        },
        {
          "duration": 0.4583331270833355,
          "durationTicks": 341,
          "midi": 51,
          "name": "D#3",
          "ticks": 120600,
          "time": 162.09670125,
          "velocity": 0.6299212598425197
        },
        {
          "duration": 0.30510738958332695,
          "durationTicks": 227,
          "midi": 38,
          "name": "D2",
          "ticks": 120960,
          "time": 162.580572,
          "velocity": 0.6299212598425197
        },
        {
          "duration": 0.30510738958332695,
          "durationTicks": 227,
          "midi": 53,
          "name": "F3",
          "ticks": 121200,
          "time": 162.9031525,
          "velocity": 0.6299212598425197
        },
        {
          "duration": 0.30510738958332695,
          "durationTicks": 227,
          "midi": 60,
          "name": "C4",
          "ticks": 121200,
          "time": 162.9031525,
          "velocity": 0.6299212598425197
        },
        {
          "duration": 0.1518816520833468,
          "durationTicks": 113,
          "midi": 45,
          "name": "A2",
          "ticks": 121440,
          "time": 163.225733,
          "velocity": 0.6299212598425197
        },
        {
          "duration": 0.4583331270833355,
          "durationTicks": 341,
          "midi": 53,
          "name": "F3",
          "ticks": 121560,
          "time": 163.38702325,
          "velocity": 0.6299212598425197
        },
        {
          "duration": 0.4583331270833355,
          "durationTicks": 341,
          "midi": 60,
          "name": "C4",
          "ticks": 121560,
          "time": 163.38702325,
          "velocity": 0.6299212598425197
        },
        {
          "duration": 0.30510738958332695,
          "durationTicks": 227,
          "midi": 43,
          "name": "G2",
          "ticks": 121920,
          "time": 163.870894,
          "velocity": 0.6299212598425197
        },
        {
          "duration": 0.30510738958332695,
          "durationTicks": 227,
          "midi": 59,
          "name": "B3",
          "ticks": 122160,
          "time": 164.1934745,
          "velocity": 0.6299212598425197
        },
        {
          "duration": 0.30510738958332695,
          "durationTicks": 227,
          "midi": 64,
          "name": "E4",
          "ticks": 122160,
          "time": 164.1934745,
          "velocity": 0.6299212598425197
        },
        {
          "duration": 0.1518816520833468,
          "durationTicks": 113,
          "midi": 53,
          "name": "F3",
          "ticks": 122400,
          "time": 164.516055,
          "velocity": 0.6299212598425197
        },
        {
          "duration": 0.4583331270833355,
          "durationTicks": 341,
          "midi": 59,
          "name": "B3",
          "ticks": 122520,
          "time": 164.67734525,
          "velocity": 0.6299212598425197
        },
        {
          "duration": 0.4583331270833355,
          "durationTicks": 341,
          "midi": 64,
          "name": "E4",
          "ticks": 122520,
          "time": 164.67734525,
          "velocity": 0.6299212598425197
        },
        {
          "duration": 0.6115588645833441,
          "durationTicks": 455,
          "midi": 48,
          "name": "C3",
          "ticks": 122880,
          "time": 165.161216,
          "velocity": 0.6299212598425197
        },
        {
          "duration": 0.6115588645833441,
          "durationTicks": 455,
          "midi": 48,
          "name": "C3",
          "ticks": 123360,
          "time": 165.806377,
          "velocity": 0.6299212598425197
        },
        {
          "duration": 0.6115588645833441,
          "durationTicks": 455,
          "midi": 48,
          "name": "C3",
          "ticks": 123840,
          "time": 166.451538,
          "velocity": 0.6299212598425197
        },
        {
          "duration": 0.6115588645833441,
          "durationTicks": 455,
          "midi": 48,
          "name": "C3",
          "ticks": 124320,
          "time": 167.096699,
          "velocity": 0.6299212598425197
        },
        {
          "duration": 0.6115588645833441,
          "durationTicks": 455,
          "midi": 47,
          "name": "B2",
          "ticks": 124800,
          "time": 167.74186,
          "velocity": 0.6299212598425197
        },
        {
          "duration": 0.6115588645833441,
          "durationTicks": 455,
          "midi": 47,
          "name": "B2",
          "ticks": 125280,
          "time": 168.387021,
          "velocity": 0.6299212598425197
        },
        {
          "duration": 0.6115588645833441,
          "durationTicks": 455,
          "midi": 51,
          "name": "D#3",
          "ticks": 125760,
          "time": 169.032182,
          "velocity": 0.6299212598425197
        },
        {
          "duration": 0.4583331270833355,
          "durationTicks": 341,
          "midi": 51,
          "name": "D#3",
          "ticks": 126240,
          "time": 169.677343,
          "velocity": 0.6299212598425197
        },
        {
          "duration": 0.07930103958329937,
          "durationTicks": 59,
          "midi": 53,
          "name": "F3",
          "ticks": 126600,
          "time": 170.16121375,
          "velocity": 0.6299212598425197
        },
        {
          "duration": 0.6115588645833441,
          "durationTicks": 455,
          "midi": 52,
          "name": "E3",
          "ticks": 126720,
          "time": 170.322504,
          "velocity": 0.6299212598425197
        },
        {
          "duration": 0.6115588645833725,
          "durationTicks": 455,
          "midi": 52,
          "name": "E3",
          "ticks": 127200,
          "time": 170.96766499999998,
          "velocity": 0.6299212598425197
        },
        {
          "duration": 0.6115588645833441,
          "durationTicks": 455,
          "midi": 52,
          "name": "E3",
          "ticks": 127680,
          "time": 171.61282599999998,
          "velocity": 0.6299212598425197
        },
        {
          "duration": 0.30510738958332695,
          "durationTicks": 227,
          "midi": 52,
          "name": "E3",
          "ticks": 128160,
          "time": 172.25798699999999,
          "velocity": 0.6299212598425197
        },
        {
          "duration": 0.30510738958332695,
          "durationTicks": 227,
          "midi": 51,
          "name": "D#3",
          "ticks": 128400,
          "time": 172.5805675,
          "velocity": 0.6299212598425197
        },
        {
          "duration": 0.6115588645833441,
          "durationTicks": 455,
          "midi": 50,
          "name": "D3",
          "ticks": 128640,
          "time": 172.903148,
          "velocity": 0.6299212598425197
        },
        {
          "duration": 0.6115588645833441,
          "durationTicks": 455,
          "midi": 45,
          "name": "A2",
          "ticks": 129120,
          "time": 173.548309,
          "velocity": 0.6299212598425197
        },
        {
          "duration": 0.4583331270833355,
          "durationTicks": 341,
          "midi": 43,
          "name": "G2",
          "ticks": 129600,
          "time": 174.19347,
          "velocity": 0.6299212598425197
        },
        {
          "duration": 0.07930103958332779,
          "durationTicks": 59,
          "midi": 50,
          "name": "D3",
          "ticks": 129960,
          "time": 174.67734074999998,
          "velocity": 0.6299212598425197
        },
        {
          "duration": 0.30510738958332695,
          "durationTicks": 227,
          "midi": 43,
          "name": "G2",
          "ticks": 130080,
          "time": 174.838631,
          "velocity": 0.6299212598425197
        },
        {
          "duration": 0.30510738958332695,
          "durationTicks": 227,
          "midi": 50,
          "name": "D3",
          "ticks": 130320,
          "time": 175.1612115,
          "velocity": 0.6299212598425197
        },
        {
          "duration": 0.6115588645833441,
          "durationTicks": 455,
          "midi": 48,
          "name": "C3",
          "ticks": 130560,
          "time": 175.483792,
          "velocity": 0.6299212598425197
        },
        {
          "duration": 0.6115588645833441,
          "durationTicks": 455,
          "midi": 48,
          "name": "C3",
          "ticks": 131040,
          "time": 176.128953,
          "velocity": 0.6299212598425197
        },
        {
          "duration": 0.6115588645833441,
          "durationTicks": 455,
          "midi": 48,
          "name": "C3",
          "ticks": 131520,
          "time": 176.774114,
          "velocity": 0.6299212598425197
        },
        {
          "duration": 0.6115588645833441,
          "durationTicks": 455,
          "midi": 48,
          "name": "C3",
          "ticks": 132000,
          "time": 177.419275,
          "velocity": 0.6299212598425197
        },
        {
          "duration": 0.6115588645833441,
          "durationTicks": 455,
          "midi": 47,
          "name": "B2",
          "ticks": 132480,
          "time": 178.064436,
          "velocity": 0.6299212598425197
        },
        {
          "duration": 0.6115588645833441,
          "durationTicks": 455,
          "midi": 47,
          "name": "B2",
          "ticks": 132960,
          "time": 178.709597,
          "velocity": 0.6299212598425197
        },
        {
          "duration": 0.6115588645833441,
          "durationTicks": 455,
          "midi": 51,
          "name": "D#3",
          "ticks": 133440,
          "time": 179.354758,
          "velocity": 0.6299212598425197
        },
        {
          "duration": 0.4583331270833355,
          "durationTicks": 341,
          "midi": 51,
          "name": "D#3",
          "ticks": 133920,
          "time": 179.999919,
          "velocity": 0.6299212598425197
        },
        {
          "duration": 0.07930103958329937,
          "durationTicks": 59,
          "midi": 53,
          "name": "F3",
          "ticks": 134280,
          "time": 180.48378975,
          "velocity": 0.6299212598425197
        },
        {
          "duration": 0.6115588645833441,
          "durationTicks": 455,
          "midi": 52,
          "name": "E3",
          "ticks": 134400,
          "time": 180.64508,
          "velocity": 0.6299212598425197
        },
        {
          "duration": 0.6115588645833441,
          "durationTicks": 455,
          "midi": 52,
          "name": "E3",
          "ticks": 134880,
          "time": 181.290241,
          "velocity": 0.6299212598425197
        },
        {
          "duration": 0.6115588645833725,
          "durationTicks": 455,
          "midi": 52,
          "name": "E3",
          "ticks": 135360,
          "time": 181.93540199999998,
          "velocity": 0.6299212598425197
        },
        {
          "duration": 0.30510738958335537,
          "durationTicks": 227,
          "midi": 52,
          "name": "E3",
          "ticks": 135840,
          "time": 182.58056299999998,
          "velocity": 0.6299212598425197
        },
        {
          "duration": 0.30510738958332695,
          "durationTicks": 227,
          "midi": 51,
          "name": "D#3",
          "ticks": 136080,
          "time": 182.9031435,
          "velocity": 0.6299212598425197
        },
        {
          "duration": 0.6115588645833441,
          "durationTicks": 455,
          "midi": 50,
          "name": "D3",
          "ticks": 136320,
          "time": 183.22572399999999,
          "velocity": 0.6299212598425197
        },
        {
          "duration": 0.6115588645833441,
          "durationTicks": 455,
          "midi": 45,
          "name": "A2",
          "ticks": 136800,
          "time": 183.870885,
          "velocity": 0.6299212598425197
        },
        {
          "duration": 0.15188165208331839,
          "durationTicks": 113,
          "midi": 43,
          "name": "G2",
          "ticks": 137280,
          "time": 184.516046,
          "velocity": 0.6299212598425197
        },
        {
          "duration": 0.15188165208331839,
          "durationTicks": 113,
          "midi": 53,
          "name": "F3",
          "ticks": 137280,
          "time": 184.516046,
          "velocity": 0.6299212598425197
        },
        {
          "duration": 0.30510738958332695,
          "durationTicks": 227,
          "midi": 36,
          "name": "C2",
          "ticks": 138240,
          "time": 185.806368,
          "velocity": 0.6299212598425197
        },
        {
          "duration": 0.30510738958332695,
          "durationTicks": 227,
          "midi": 55,
          "name": "G3",
          "ticks": 138480,
          "time": 186.1289485,
          "velocity": 0.6299212598425197
        },
        {
          "duration": 0.30510738958332695,
          "durationTicks": 227,
          "midi": 59,
          "name": "B3",
          "ticks": 138480,
          "time": 186.1289485,
          "velocity": 0.6299212598425197
        },
        {
          "duration": 0.15188165208331839,
          "durationTicks": 113,
          "midi": 48,
          "name": "C3",
          "ticks": 138720,
          "time": 186.451529,
          "velocity": 0.6299212598425197
        },
        {
          "duration": 0.4583331270833355,
          "durationTicks": 341,
          "midi": 55,
          "name": "G3",
          "ticks": 138840,
          "time": 186.61281925,
          "velocity": 0.6299212598425197
        },
        {
          "duration": 0.4583331270833355,
          "durationTicks": 341,
          "midi": 59,
          "name": "B3",
          "ticks": 138840,
          "time": 186.61281925,
          "velocity": 0.6299212598425197
        },
        {
          "duration": 0.30510738958332695,
          "durationTicks": 227,
          "midi": 36,
          "name": "C2",
          "ticks": 139200,
          "time": 187.09669,
          "velocity": 0.6299212598425197
        },
        {
          "duration": 0.30510738958335537,
          "durationTicks": 227,
          "midi": 55,
          "name": "G3",
          "ticks": 139440,
          "time": 187.41927049999998,
          "velocity": 0.6299212598425197
        },
        {
          "duration": 0.30510738958335537,
          "durationTicks": 227,
          "midi": 59,
          "name": "B3",
          "ticks": 139440,
          "time": 187.41927049999998,
          "velocity": 0.6299212598425197
        },
        {
          "duration": 0.15188165208331839,
          "durationTicks": 113,
          "midi": 48,
          "name": "C3",
          "ticks": 139680,
          "time": 187.741851,
          "velocity": 0.6299212598425197
        },
        {
          "duration": 0.4583331270833355,
          "durationTicks": 341,
          "midi": 55,
          "name": "G3",
          "ticks": 139800,
          "time": 187.90314125,
          "velocity": 0.6299212598425197
        },
        {
          "duration": 0.4583331270833355,
          "durationTicks": 341,
          "midi": 59,
          "name": "B3",
          "ticks": 139800,
          "time": 187.90314125,
          "velocity": 0.6299212598425197
        },
        {
          "duration": 0.30510738958332695,
          "durationTicks": 227,
          "midi": 35,
          "name": "B1",
          "ticks": 140160,
          "time": 188.387012,
          "velocity": 0.6299212598425197
        },
        {
          "duration": 0.30510738958332695,
          "durationTicks": 227,
          "midi": 50,
          "name": "D3",
          "ticks": 140400,
          "time": 188.70959249999999,
          "velocity": 0.6299212598425197
        },
        {
          "duration": 0.30510738958332695,
          "durationTicks": 227,
          "midi": 57,
          "name": "A3",
          "ticks": 140400,
          "time": 188.70959249999999,
          "velocity": 0.6299212598425197
        },
        {
          "duration": 0.15188165208331839,
          "durationTicks": 113,
          "midi": 47,
          "name": "B2",
          "ticks": 140640,
          "time": 189.032173,
          "velocity": 0.6299212598425197
        },
        {
          "duration": 0.4583331270833355,
          "durationTicks": 341,
          "midi": 50,
          "name": "D3",
          "ticks": 140760,
          "time": 189.19346325,
          "velocity": 0.6299212598425197
        },
        {
          "duration": 0.4583331270833355,
          "durationTicks": 341,
          "midi": 57,
          "name": "A3",
          "ticks": 140760,
          "time": 189.19346325,
          "velocity": 0.6299212598425197
        },
        {
          "duration": 0.15188165208331839,
          "durationTicks": 113,
          "midi": 39,
          "name": "D#2",
          "ticks": 141120,
          "time": 189.677334,
          "velocity": 0.6299212598425197
        },
        {
          "duration": 0.15188165208331839,
          "durationTicks": 113,
          "midi": 51,
          "name": "D#3",
          "ticks": 141240,
          "time": 189.83862425,
          "velocity": 0.6299212598425197
        },
        {
          "duration": 0.30510738958332695,
          "durationTicks": 227,
          "midi": 54,
          "name": "F#3",
          "ticks": 141360,
          "time": 189.9999145,
          "velocity": 0.6299212598425197
        },
        {
          "duration": 0.30510738958332695,
          "durationTicks": 227,
          "midi": 57,
          "name": "A3",
          "ticks": 141360,
          "time": 189.9999145,
          "velocity": 0.6299212598425197
        },
        {
          "duration": 0.15188165208331839,
          "durationTicks": 113,
          "midi": 51,
          "name": "D#3",
          "ticks": 141600,
          "time": 190.322495,
          "velocity": 0.6299212598425197
        },
        {
          "duration": 0.30510738958335537,
          "durationTicks": 227,
          "midi": 54,
          "name": "F#3",
          "ticks": 141720,
          "time": 190.48378524999998,
          "velocity": 0.6299212598425197
        },
        {
          "duration": 0.30510738958335537,
          "durationTicks": 227,
          "midi": 57,
          "name": "A3",
          "ticks": 141720,
          "time": 190.48378524999998,
          "velocity": 0.6299212598425197
        },
        {
          "duration": 0.15188165208331839,
          "durationTicks": 113,
          "midi": 41,
          "name": "F2",
          "ticks": 141960,
          "time": 190.80636575,
          "velocity": 0.6299212598425197
        },
        {
          "duration": 0.30510738958332695,
          "durationTicks": 227,
          "midi": 40,
          "name": "E2",
          "ticks": 142080,
          "time": 190.967656,
          "velocity": 0.6299212598425197
        },
        {
          "duration": 0.30510738958332695,
          "durationTicks": 227,
          "midi": 55,
          "name": "G3",
          "ticks": 142320,
          "time": 191.2902365,
          "velocity": 0.6299212598425197
        },
        {
          "duration": 0.30510738958332695,
          "durationTicks": 227,
          "midi": 62,
          "name": "D4",
          "ticks": 142320,
          "time": 191.2902365,
          "velocity": 0.6299212598425197
        },
        {
          "duration": 0.15188165208331839,
          "durationTicks": 113,
          "midi": 52,
          "name": "E3",
          "ticks": 142560,
          "time": 191.612817,
          "velocity": 0.6299212598425197
        },
        {
          "duration": 0.4583331270833355,
          "durationTicks": 341,
          "midi": 55,
          "name": "G3",
          "ticks": 142680,
          "time": 191.77410725,
          "velocity": 0.6299212598425197
        },
        {
          "duration": 0.4583331270833355,
          "durationTicks": 341,
          "midi": 62,
          "name": "D4",
          "ticks": 142680,
          "time": 191.77410725,
          "velocity": 0.6299212598425197
        },
        {
          "duration": 0.30510738958332695,
          "durationTicks": 227,
          "midi": 40,
          "name": "E2",
          "ticks": 143040,
          "time": 192.257978,
          "velocity": 0.6299212598425197
        },
        {
          "duration": 0.30510738958332695,
          "durationTicks": 227,
          "midi": 55,
          "name": "G3",
          "ticks": 143280,
          "time": 192.5805585,
          "velocity": 0.6299212598425197
        },
        {
          "duration": 0.30510738958332695,
          "durationTicks": 227,
          "midi": 62,
          "name": "D4",
          "ticks": 143280,
          "time": 192.5805585,
          "velocity": 0.6299212598425197
        },
        {
          "duration": 0.6115588645833725,
          "durationTicks": 455,
          "midi": 39,
          "name": "D#2",
          "ticks": 143520,
          "time": 192.90313899999998,
          "velocity": 0.6299212598425197
        },
        {
          "duration": 0.30510738958335537,
          "durationTicks": 227,
          "midi": 38,
          "name": "D2",
          "ticks": 144000,
          "time": 193.54829999999998,
          "velocity": 0.6299212598425197
        },
        {
          "duration": 0.30510738958332695,
          "durationTicks": 227,
          "midi": 53,
          "name": "F3",
          "ticks": 144240,
          "time": 193.8708805,
          "velocity": 0.6299212598425197
        },
        {
          "duration": 0.30510738958332695,
          "durationTicks": 227,
          "midi": 60,
          "name": "C4",
          "ticks": 144240,
          "time": 193.8708805,
          "velocity": 0.6299212598425197
        },
        {
          "duration": 0.1518816520833468,
          "durationTicks": 113,
          "midi": 45,
          "name": "A2",
          "ticks": 144480,
          "time": 194.19346099999999,
          "velocity": 0.6299212598425197
        },
        {
          "duration": 0.4583331270833355,
          "durationTicks": 341,
          "midi": 53,
          "name": "F3",
          "ticks": 144600,
          "time": 194.35475125,
          "velocity": 0.6299212598425197
        },
        {
          "duration": 0.4583331270833355,
          "durationTicks": 341,
          "midi": 60,
          "name": "C4",
          "ticks": 144600,
          "time": 194.35475125,
          "velocity": 0.6299212598425197
        },
        {
          "duration": 0.30510738958332695,
          "durationTicks": 227,
          "midi": 43,
          "name": "G2",
          "ticks": 144960,
          "time": 194.838622,
          "velocity": 0.6299212598425197
        },
        {
          "duration": 0.30510738958332695,
          "durationTicks": 227,
          "midi": 59,
          "name": "B3",
          "ticks": 145200,
          "time": 195.1612025,
          "velocity": 0.6299212598425197
        },
        {
          "duration": 0.30510738958332695,
          "durationTicks": 227,
          "midi": 64,
          "name": "E4",
          "ticks": 145200,
          "time": 195.1612025,
          "velocity": 0.6299212598425197
        },
        {
          "duration": 0.15188165208331839,
          "durationTicks": 113,
          "midi": 53,
          "name": "F3",
          "ticks": 145440,
          "time": 195.483783,
          "velocity": 0.6299212598425197
        },
        {
          "duration": 0.4583331270833355,
          "durationTicks": 341,
          "midi": 59,
          "name": "B3",
          "ticks": 145560,
          "time": 195.64507325,
          "velocity": 0.6299212598425197
        },
        {
          "duration": 0.4583331270833355,
          "durationTicks": 341,
          "midi": 64,
          "name": "E4",
          "ticks": 145560,
          "time": 195.64507325,
          "velocity": 0.6299212598425197
        },
        {
          "duration": 0.30510738958332695,
          "durationTicks": 227,
          "midi": 36,
          "name": "C2",
          "ticks": 145920,
          "time": 196.128944,
          "velocity": 0.6299212598425197
        },
        {
          "duration": 0.30510738958332695,
          "durationTicks": 227,
          "midi": 55,
          "name": "G3",
          "ticks": 146160,
          "time": 196.4515245,
          "velocity": 0.6299212598425197
        },
        {
          "duration": 0.30510738958332695,
          "durationTicks": 227,
          "midi": 59,
          "name": "B3",
          "ticks": 146160,
          "time": 196.4515245,
          "velocity": 0.6299212598425197
        },
        {
          "duration": 0.15188165208331839,
          "durationTicks": 113,
          "midi": 48,
          "name": "C3",
          "ticks": 146400,
          "time": 196.774105,
          "velocity": 0.6299212598425197
        },
        {
          "duration": 0.4583331270833355,
          "durationTicks": 341,
          "midi": 55,
          "name": "G3",
          "ticks": 146520,
          "time": 196.93539525,
          "velocity": 0.6299212598425197
        },
        {
          "duration": 0.4583331270833355,
          "durationTicks": 341,
          "midi": 59,
          "name": "B3",
          "ticks": 146520,
          "time": 196.93539525,
          "velocity": 0.6299212598425197
        },
        {
          "duration": 0.30510738958332695,
          "durationTicks": 227,
          "midi": 36,
          "name": "C2",
          "ticks": 146880,
          "time": 197.419266,
          "velocity": 0.6299212598425197
        },
        {
          "duration": 0.30510738958332695,
          "durationTicks": 227,
          "midi": 55,
          "name": "G3",
          "ticks": 147120,
          "time": 197.7418465,
          "velocity": 0.6299212598425197
        },
        {
          "duration": 0.30510738958332695,
          "durationTicks": 227,
          "midi": 59,
          "name": "B3",
          "ticks": 147120,
          "time": 197.7418465,
          "velocity": 0.6299212598425197
        },
        {
          "duration": 0.15188165208331839,
          "durationTicks": 113,
          "midi": 48,
          "name": "C3",
          "ticks": 147360,
          "time": 198.064427,
          "velocity": 0.6299212598425197
        },
        {
          "duration": 0.4583331270833355,
          "durationTicks": 341,
          "midi": 55,
          "name": "G3",
          "ticks": 147480,
          "time": 198.22571725,
          "velocity": 0.6299212598425197
        },
        {
          "duration": 0.4583331270833355,
          "durationTicks": 341,
          "midi": 59,
          "name": "B3",
          "ticks": 147480,
          "time": 198.22571725,
          "velocity": 0.6299212598425197
        },
        {
          "duration": 0.30510738958332695,
          "durationTicks": 227,
          "midi": 35,
          "name": "B1",
          "ticks": 147840,
          "time": 198.709588,
          "velocity": 0.6299212598425197
        },
        {
          "duration": 0.30510738958335537,
          "durationTicks": 227,
          "midi": 50,
          "name": "D3",
          "ticks": 148080,
          "time": 199.03216849999998,
          "velocity": 0.6299212598425197
        },
        {
          "duration": 0.30510738958335537,
          "durationTicks": 227,
          "midi": 57,
          "name": "A3",
          "ticks": 148080,
          "time": 199.03216849999998,
          "velocity": 0.6299212598425197
        },
        {
          "duration": 0.15188165208331839,
          "durationTicks": 113,
          "midi": 47,
          "name": "B2",
          "ticks": 148320,
          "time": 199.354749,
          "velocity": 0.6299212598425197
        },
        {
          "duration": 0.4583331270833355,
          "durationTicks": 341,
          "midi": 50,
          "name": "D3",
          "ticks": 148440,
          "time": 199.51603925,
          "velocity": 0.6299212598425197
        },
        {
          "duration": 0.4583331270833355,
          "durationTicks": 341,
          "midi": 57,
          "name": "A3",
          "ticks": 148440,
          "time": 199.51603925,
          "velocity": 0.6299212598425197
        },
        {
          "duration": 0.15188165208331839,
          "durationTicks": 113,
          "midi": 39,
          "name": "D#2",
          "ticks": 148800,
          "time": 199.99991,
          "velocity": 0.6299212598425197
        },
        {
          "duration": 0.15188165208331839,
          "durationTicks": 113,
          "midi": 51,
          "name": "D#3",
          "ticks": 148920,
          "time": 200.16120025,
          "velocity": 0.6299212598425197
        },
        {
          "duration": 0.30510738958332695,
          "durationTicks": 227,
          "midi": 54,
          "name": "F#3",
          "ticks": 149040,
          "time": 200.3224905,
          "velocity": 0.6299212598425197
        },
        {
          "duration": 0.30510738958332695,
          "durationTicks": 227,
          "midi": 57,
          "name": "A3",
          "ticks": 149040,
          "time": 200.3224905,
          "velocity": 0.6299212598425197
        },
        {
          "duration": 0.15188165208331839,
          "durationTicks": 113,
          "midi": 51,
          "name": "D#3",
          "ticks": 149280,
          "time": 200.645071,
          "velocity": 0.6299212598425197
        },
        {
          "duration": 0.30510738958332695,
          "durationTicks": 227,
          "midi": 54,
          "name": "F#3",
          "ticks": 149400,
          "time": 200.80636125,
          "velocity": 0.6299212598425197
        },
        {
          "duration": 0.30510738958332695,
          "durationTicks": 227,
          "midi": 57,
          "name": "A3",
          "ticks": 149400,
          "time": 200.80636125,
          "velocity": 0.6299212598425197
        },
        {
          "duration": 0.15188165208331839,
          "durationTicks": 113,
          "midi": 41,
          "name": "F2",
          "ticks": 149640,
          "time": 201.12894175,
          "velocity": 0.6299212598425197
        },
        {
          "duration": 0.30510738958332695,
          "durationTicks": 227,
          "midi": 40,
          "name": "E2",
          "ticks": 149760,
          "time": 201.290232,
          "velocity": 0.6299212598425197
        },
        {
          "duration": 0.30510738958332695,
          "durationTicks": 227,
          "midi": 55,
          "name": "G3",
          "ticks": 150000,
          "time": 201.6128125,
          "velocity": 0.6299212598425197
        },
        {
          "duration": 0.30510738958332695,
          "durationTicks": 227,
          "midi": 62,
          "name": "D4",
          "ticks": 150000,
          "time": 201.6128125,
          "velocity": 0.6299212598425197
        },
        {
          "duration": 0.15188165208331839,
          "durationTicks": 113,
          "midi": 52,
          "name": "E3",
          "ticks": 150240,
          "time": 201.935393,
          "velocity": 0.6299212598425197
        },
        {
          "duration": 0.4583331270833355,
          "durationTicks": 341,
          "midi": 55,
          "name": "G3",
          "ticks": 150360,
          "time": 202.09668324999998,
          "velocity": 0.6299212598425197
        },
        {
          "duration": 0.4583331270833355,
          "durationTicks": 341,
          "midi": 62,
          "name": "D4",
          "ticks": 150360,
          "time": 202.09668324999998,
          "velocity": 0.6299212598425197
        },
        {
          "duration": 0.30510738958332695,
          "durationTicks": 227,
          "midi": 40,
          "name": "E2",
          "ticks": 150720,
          "time": 202.580554,
          "velocity": 0.6299212598425197
        },
        {
          "duration": 0.30510738958332695,
          "durationTicks": 227,
          "midi": 55,
          "name": "G3",
          "ticks": 150960,
          "time": 202.9031345,
          "velocity": 0.6299212598425197
        },
        {
          "duration": 0.30510738958332695,
          "durationTicks": 227,
          "midi": 62,
          "name": "D4",
          "ticks": 150960,
          "time": 202.9031345,
          "velocity": 0.6299212598425197
        },
        {
          "duration": 0.6115588645833441,
          "durationTicks": 455,
          "midi": 39,
          "name": "D#2",
          "ticks": 151200,
          "time": 203.225715,
          "velocity": 0.6299212598425197
        },
        {
          "duration": 0.30510738958335537,
          "durationTicks": 227,
          "midi": 38,
          "name": "D2",
          "ticks": 151680,
          "time": 203.87087599999998,
          "velocity": 0.6299212598425197
        },
        {
          "duration": 0.30510738958332695,
          "durationTicks": 227,
          "midi": 53,
          "name": "F3",
          "ticks": 151920,
          "time": 204.1934565,
          "velocity": 0.6299212598425197
        },
        {
          "duration": 0.30510738958332695,
          "durationTicks": 227,
          "midi": 60,
          "name": "C4",
          "ticks": 151920,
          "time": 204.1934565,
          "velocity": 0.6299212598425197
        },
        {
          "duration": 0.1518816520833468,
          "durationTicks": 113,
          "midi": 45,
          "name": "A2",
          "ticks": 152160,
          "time": 204.51603699999998,
          "velocity": 0.6299212598425197
        },
        {
          "duration": 0.4583331270833355,
          "durationTicks": 341,
          "midi": 53,
          "name": "F3",
          "ticks": 152280,
          "time": 204.67732725,
          "velocity": 0.6299212598425197
        },
        {
          "duration": 0.4583331270833355,
          "durationTicks": 341,
          "midi": 60,
          "name": "C4",
          "ticks": 152280,
          "time": 204.67732725,
          "velocity": 0.6299212598425197
        },
        {
          "duration": 0.30510738958335537,
          "durationTicks": 227,
          "midi": 43,
          "name": "G2",
          "ticks": 152640,
          "time": 205.16119799999998,
          "velocity": 0.6299212598425197
        },
        {
          "duration": 0.15188165208331839,
          "durationTicks": 113,
          "midi": 59,
          "name": "B3",
          "ticks": 152880,
          "time": 205.4837785,
          "velocity": 0.6299212598425197
        },
        {
          "duration": 0.15188165208331839,
          "durationTicks": 113,
          "midi": 53,
          "name": "F3",
          "ticks": 153000,
          "time": 205.64506875,
          "velocity": 0.6299212598425197
        },
        {
          "duration": 0.15188165208331839,
          "durationTicks": 113,
          "midi": 64,
          "name": "E4",
          "ticks": 153120,
          "time": 205.806359,
          "velocity": 0.6299212598425197
        },
        {
          "duration": 0.15188165208331839,
          "durationTicks": 113,
          "midi": 55,
          "name": "G3",
          "ticks": 153240,
          "time": 205.96764925,
          "velocity": 0.6299212598425197
        },
        {
          "duration": 0.30510738958332695,
          "durationTicks": 227,
          "midi": 59,
          "name": "B3",
          "ticks": 153360,
          "time": 206.1289395,
          "velocity": 0.6299212598425197
        },
        {
          "duration": 0.30510738958332695,
          "durationTicks": 227,
          "midi": 62,
          "name": "D4",
          "ticks": 153360,
          "time": 206.1289395,
          "velocity": 0.6299212598425197
        },
        {
          "duration": 0.30510738958332695,
          "durationTicks": 227,
          "midi": 36,
          "name": "C2",
          "ticks": 153600,
          "time": 206.45152,
          "velocity": 0.6299212598425197
        },
        {
          "duration": 0.30510738958332695,
          "durationTicks": 227,
          "midi": 55,
          "name": "G3",
          "ticks": 153840,
          "time": 206.7741005,
          "velocity": 0.6299212598425197
        },
        {
          "duration": 0.30510738958332695,
          "durationTicks": 227,
          "midi": 59,
          "name": "B3",
          "ticks": 153840,
          "time": 206.7741005,
          "velocity": 0.6299212598425197
        },
        {
          "duration": 0.15188165208331839,
          "durationTicks": 113,
          "midi": 48,
          "name": "C3",
          "ticks": 154080,
          "time": 207.096681,
          "velocity": 0.6299212598425197
        },
        {
          "duration": 0.4583331270833355,
          "durationTicks": 341,
          "midi": 55,
          "name": "G3",
          "ticks": 154200,
          "time": 207.25797125,
          "velocity": 0.6299212598425197
        },
        {
          "duration": 0.4583331270833355,
          "durationTicks": 341,
          "midi": 59,
          "name": "B3",
          "ticks": 154200,
          "time": 207.25797125,
          "velocity": 0.6299212598425197
        },
        {
          "duration": 0.30510738958332695,
          "durationTicks": 227,
          "midi": 36,
          "name": "C2",
          "ticks": 154560,
          "time": 207.741842,
          "velocity": 0.6299212598425197
        },
        {
          "duration": 0.30510738958332695,
          "durationTicks": 227,
          "midi": 55,
          "name": "G3",
          "ticks": 154800,
          "time": 208.0644225,
          "velocity": 0.6299212598425197
        },
        {
          "duration": 0.30510738958332695,
          "durationTicks": 227,
          "midi": 59,
          "name": "B3",
          "ticks": 154800,
          "time": 208.0644225,
          "velocity": 0.6299212598425197
        },
        {
          "duration": 0.15188165208331839,
          "durationTicks": 113,
          "midi": 48,
          "name": "C3",
          "ticks": 155040,
          "time": 208.387003,
          "velocity": 0.6299212598425197
        },
        {
          "duration": 0.4583331270833355,
          "durationTicks": 341,
          "midi": 55,
          "name": "G3",
          "ticks": 155160,
          "time": 208.54829325,
          "velocity": 0.6299212598425197
        },
        {
          "duration": 0.4583331270833355,
          "durationTicks": 341,
          "midi": 59,
          "name": "B3",
          "ticks": 155160,
          "time": 208.54829325,
          "velocity": 0.6299212598425197
        },
        {
          "duration": 0.30510738958332695,
          "durationTicks": 227,
          "midi": 35,
          "name": "B1",
          "ticks": 155520,
          "time": 209.032164,
          "velocity": 0.6299212598425197
        },
        {
          "duration": 0.30510738958335537,
          "durationTicks": 227,
          "midi": 50,
          "name": "D3",
          "ticks": 155760,
          "time": 209.35474449999998,
          "velocity": 0.6299212598425197
        },
        {
          "duration": 0.30510738958335537,
          "durationTicks": 227,
          "midi": 57,
          "name": "A3",
          "ticks": 155760,
          "time": 209.35474449999998,
          "velocity": 0.6299212598425197
        },
        {
          "duration": 0.15188165208331839,
          "durationTicks": 113,
          "midi": 47,
          "name": "B2",
          "ticks": 156000,
          "time": 209.677325,
          "velocity": 0.6299212598425197
        },
        {
          "duration": 0.4583331270833355,
          "durationTicks": 341,
          "midi": 50,
          "name": "D3",
          "ticks": 156120,
          "time": 209.83861525,
          "velocity": 0.6299212598425197
        },
        {
          "duration": 0.4583331270833355,
          "durationTicks": 341,
          "midi": 57,
          "name": "A3",
          "ticks": 156120,
          "time": 209.83861525,
          "velocity": 0.6299212598425197
        },
        {
          "duration": 0.15188165208331839,
          "durationTicks": 113,
          "midi": 39,
          "name": "D#2",
          "ticks": 156480,
          "time": 210.322486,
          "velocity": 0.6299212598425197
        },
        {
          "duration": 0.15188165208331839,
          "durationTicks": 113,
          "midi": 51,
          "name": "D#3",
          "ticks": 156600,
          "time": 210.48377625,
          "velocity": 0.6299212598425197
        },
        {
          "duration": 0.30510738958335537,
          "durationTicks": 227,
          "midi": 54,
          "name": "F#3",
          "ticks": 156720,
          "time": 210.64506649999998,
          "velocity": 0.6299212598425197
        },
        {
          "duration": 0.30510738958335537,
          "durationTicks": 227,
          "midi": 57,
          "name": "A3",
          "ticks": 156720,
          "time": 210.64506649999998,
          "velocity": 0.6299212598425197
        },
        {
          "duration": 0.15188165208331839,
          "durationTicks": 113,
          "midi": 51,
          "name": "D#3",
          "ticks": 156960,
          "time": 210.967647,
          "velocity": 0.6299212598425197
        },
        {
          "duration": 0.30510738958332695,
          "durationTicks": 227,
          "midi": 54,
          "name": "F#3",
          "ticks": 157080,
          "time": 211.12893725,
          "velocity": 0.6299212598425197
        },
        {
          "duration": 0.30510738958332695,
          "durationTicks": 227,
          "midi": 57,
          "name": "A3",
          "ticks": 157080,
          "time": 211.12893725,
          "velocity": 0.6299212598425197
        },
        {
          "duration": 0.15188165208331839,
          "durationTicks": 113,
          "midi": 41,
          "name": "F2",
          "ticks": 157320,
          "time": 211.45151775,
          "velocity": 0.6299212598425197
        },
        {
          "duration": 0.30510738958332695,
          "durationTicks": 227,
          "midi": 40,
          "name": "E2",
          "ticks": 157440,
          "time": 211.612808,
          "velocity": 0.6299212598425197
        },
        {
          "duration": 0.30510738958332695,
          "durationTicks": 227,
          "midi": 55,
          "name": "G3",
          "ticks": 157680,
          "time": 211.9353885,
          "velocity": 0.6299212598425197
        },
        {
          "duration": 0.30510738958332695,
          "durationTicks": 227,
          "midi": 62,
          "name": "D4",
          "ticks": 157680,
          "time": 211.9353885,
          "velocity": 0.6299212598425197
        },
        {
          "duration": 0.15188165208331839,
          "durationTicks": 113,
          "midi": 52,
          "name": "E3",
          "ticks": 157920,
          "time": 212.257969,
          "velocity": 0.6299212598425197
        },
        {
          "duration": 0.45833312708336393,
          "durationTicks": 341,
          "midi": 55,
          "name": "G3",
          "ticks": 158040,
          "time": 212.41925924999998,
          "velocity": 0.6299212598425197
        },
        {
          "duration": 0.45833312708336393,
          "durationTicks": 341,
          "midi": 62,
          "name": "D4",
          "ticks": 158040,
          "time": 212.41925924999998,
          "velocity": 0.6299212598425197
        },
        {
          "duration": 0.30510738958332695,
          "durationTicks": 227,
          "midi": 40,
          "name": "E2",
          "ticks": 158400,
          "time": 212.90313,
          "velocity": 0.6299212598425197
        },
        {
          "duration": 0.30510738958332695,
          "durationTicks": 227,
          "midi": 55,
          "name": "G3",
          "ticks": 158640,
          "time": 213.2257105,
          "velocity": 0.6299212598425197
        },
        {
          "duration": 0.30510738958332695,
          "durationTicks": 227,
          "midi": 62,
          "name": "D4",
          "ticks": 158640,
          "time": 213.2257105,
          "velocity": 0.6299212598425197
        },
        {
          "duration": 0.15188165208331839,
          "durationTicks": 113,
          "midi": 39,
          "name": "D#2",
          "ticks": 158880,
          "time": 213.548291,
          "velocity": 0.6299212598425197
        },
        {
          "duration": 0.4583331270833355,
          "durationTicks": 341,
          "midi": 51,
          "name": "D#3",
          "ticks": 159000,
          "time": 213.70958124999999,
          "velocity": 0.6299212598425197
        },
        {
          "duration": 0.30510738958332695,
          "durationTicks": 227,
          "midi": 38,
          "name": "D2",
          "ticks": 159360,
          "time": 214.193452,
          "velocity": 0.6299212598425197
        },
        {
          "duration": 0.30510738958332695,
          "durationTicks": 227,
          "midi": 53,
          "name": "F3",
          "ticks": 159600,
          "time": 214.5160325,
          "velocity": 0.6299212598425197
        },
        {
          "duration": 0.30510738958332695,
          "durationTicks": 227,
          "midi": 60,
          "name": "C4",
          "ticks": 159600,
          "time": 214.5160325,
          "velocity": 0.6299212598425197
        },
        {
          "duration": 0.1518816520833468,
          "durationTicks": 113,
          "midi": 45,
          "name": "A2",
          "ticks": 159840,
          "time": 214.83861299999998,
          "velocity": 0.6299212598425197
        },
        {
          "duration": 0.4583331270833355,
          "durationTicks": 341,
          "midi": 53,
          "name": "F3",
          "ticks": 159960,
          "time": 214.99990325,
          "velocity": 0.6299212598425197
        },
        {
          "duration": 0.4583331270833355,
          "durationTicks": 341,
          "midi": 60,
          "name": "C4",
          "ticks": 159960,
          "time": 214.99990325,
          "velocity": 0.6299212598425197
        },
        {
          "duration": 0.30510738958335537,
          "durationTicks": 227,
          "midi": 43,
          "name": "G2",
          "ticks": 160320,
          "time": 215.48377399999998,
          "velocity": 0.6299212598425197
        },
        {
          "duration": 0.30510738958332695,
          "durationTicks": 227,
          "midi": 59,
          "name": "B3",
          "ticks": 160560,
          "time": 215.8063545,
          "velocity": 0.6299212598425197
        },
        {
          "duration": 0.30510738958332695,
          "durationTicks": 227,
          "midi": 64,
          "name": "E4",
          "ticks": 160560,
          "time": 215.8063545,
          "velocity": 0.6299212598425197
        },
        {
          "duration": 0.1518816520833468,
          "durationTicks": 113,
          "midi": 53,
          "name": "F3",
          "ticks": 160800,
          "time": 216.12893499999998,
          "velocity": 0.6299212598425197
        },
        {
          "duration": 0.4583331270833355,
          "durationTicks": 341,
          "midi": 59,
          "name": "B3",
          "ticks": 160920,
          "time": 216.29022525,
          "velocity": 0.6299212598425197
        },
        {
          "duration": 0.4583331270833355,
          "durationTicks": 341,
          "midi": 64,
          "name": "E4",
          "ticks": 160920,
          "time": 216.29022525,
          "velocity": 0.6299212598425197
        },
        {
          "duration": 0.30510738958332695,
          "durationTicks": 227,
          "midi": 36,
          "name": "C2",
          "ticks": 161280,
          "time": 216.774096,
          "velocity": 0.6299212598425197
        },
        {
          "duration": 0.30510738958332695,
          "durationTicks": 227,
          "midi": 55,
          "name": "G3",
          "ticks": 161520,
          "time": 217.0966765,
          "velocity": 0.6299212598425197
        },
        {
          "duration": 0.30510738958332695,
          "durationTicks": 227,
          "midi": 59,
          "name": "B3",
          "ticks": 161520,
          "time": 217.0966765,
          "velocity": 0.6299212598425197
        },
        {
          "duration": 0.15188165208331839,
          "durationTicks": 113,
          "midi": 48,
          "name": "C3",
          "ticks": 161760,
          "time": 217.419257,
          "velocity": 0.6299212598425197
        },
        {
          "duration": 0.4583331270833355,
          "durationTicks": 341,
          "midi": 55,
          "name": "G3",
          "ticks": 161880,
          "time": 217.58054725,
          "velocity": 0.6299212598425197
        },
        {
          "duration": 0.4583331270833355,
          "durationTicks": 341,
          "midi": 59,
          "name": "B3",
          "ticks": 161880,
          "time": 217.58054725,
          "velocity": 0.6299212598425197
        },
        {
          "duration": 0.30510738958332695,
          "durationTicks": 227,
          "midi": 36,
          "name": "C2",
          "ticks": 162240,
          "time": 218.064418,
          "velocity": 0.6299212598425197
        },
        {
          "duration": 0.30510738958332695,
          "durationTicks": 227,
          "midi": 55,
          "name": "G3",
          "ticks": 162480,
          "time": 218.3869985,
          "velocity": 0.6299212598425197
        },
        {
          "duration": 0.30510738958332695,
          "durationTicks": 227,
          "midi": 59,
          "name": "B3",
          "ticks": 162480,
          "time": 218.3869985,
          "velocity": 0.6299212598425197
        },
        {
          "duration": 0.15188165208331839,
          "durationTicks": 113,
          "midi": 48,
          "name": "C3",
          "ticks": 162720,
          "time": 218.709579,
          "velocity": 0.6299212598425197
        },
        {
          "duration": 0.4583331270833355,
          "durationTicks": 341,
          "midi": 55,
          "name": "G3",
          "ticks": 162840,
          "time": 218.87086925,
          "velocity": 0.6299212598425197
        },
        {
          "duration": 0.4583331270833355,
          "durationTicks": 341,
          "midi": 59,
          "name": "B3",
          "ticks": 162840,
          "time": 218.87086925,
          "velocity": 0.6299212598425197
        },
        {
          "duration": 0.30510738958332695,
          "durationTicks": 227,
          "midi": 35,
          "name": "B1",
          "ticks": 163200,
          "time": 219.35474,
          "velocity": 0.6299212598425197
        },
        {
          "duration": 0.30510738958332695,
          "durationTicks": 227,
          "midi": 50,
          "name": "D3",
          "ticks": 163440,
          "time": 219.6773205,
          "velocity": 0.6299212598425197
        },
        {
          "duration": 0.30510738958332695,
          "durationTicks": 227,
          "midi": 57,
          "name": "A3",
          "ticks": 163440,
          "time": 219.6773205,
          "velocity": 0.6299212598425197
        },
        {
          "duration": 0.15188165208331839,
          "durationTicks": 113,
          "midi": 47,
          "name": "B2",
          "ticks": 163680,
          "time": 219.999901,
          "velocity": 0.6299212598425197
        },
        {
          "duration": 0.4583331270833355,
          "durationTicks": 341,
          "midi": 50,
          "name": "D3",
          "ticks": 163800,
          "time": 220.16119125,
          "velocity": 0.6299212598425197
        },
        {
          "duration": 0.4583331270833355,
          "durationTicks": 341,
          "midi": 57,
          "name": "A3",
          "ticks": 163800,
          "time": 220.16119125,
          "velocity": 0.6299212598425197
        },
        {
          "duration": 0.15188165208331839,
          "durationTicks": 113,
          "midi": 39,
          "name": "D#2",
          "ticks": 164160,
          "time": 220.645062,
          "velocity": 0.6299212598425197
        },
        {
          "duration": 0.15188165208331839,
          "durationTicks": 113,
          "midi": 51,
          "name": "D#3",
          "ticks": 164280,
          "time": 220.80635225,
          "velocity": 0.6299212598425197
        },
        {
          "duration": 0.30510738958335537,
          "durationTicks": 227,
          "midi": 54,
          "name": "F#3",
          "ticks": 164400,
          "time": 220.96764249999998,
          "velocity": 0.6299212598425197
        },
        {
          "duration": 0.30510738958335537,
          "durationTicks": 227,
          "midi": 57,
          "name": "A3",
          "ticks": 164400,
          "time": 220.96764249999998,
          "velocity": 0.6299212598425197
        },
        {
          "duration": 0.15188165208331839,
          "durationTicks": 113,
          "midi": 51,
          "name": "D#3",
          "ticks": 164640,
          "time": 221.290223,
          "velocity": 0.6299212598425197
        },
        {
          "duration": 0.30510738958332695,
          "durationTicks": 227,
          "midi": 54,
          "name": "F#3",
          "ticks": 164760,
          "time": 221.45151325,
          "velocity": 0.6299212598425197
        },
        {
          "duration": 0.30510738958332695,
          "durationTicks": 227,
          "midi": 57,
          "name": "A3",
          "ticks": 164760,
          "time": 221.45151325,
          "velocity": 0.6299212598425197
        },
        {
          "duration": 0.15188165208331839,
          "durationTicks": 113,
          "midi": 41,
          "name": "F2",
          "ticks": 165000,
          "time": 221.77409375,
          "velocity": 0.6299212598425197
        },
        {
          "duration": 0.30510738958332695,
          "durationTicks": 227,
          "midi": 40,
          "name": "E2",
          "ticks": 165120,
          "time": 221.935384,
          "velocity": 0.6299212598425197
        },
        {
          "duration": 0.30510738958332695,
          "durationTicks": 227,
          "midi": 55,
          "name": "G3",
          "ticks": 165360,
          "time": 222.25796449999999,
          "velocity": 0.6299212598425197
        },
        {
          "duration": 0.30510738958332695,
          "durationTicks": 227,
          "midi": 62,
          "name": "D4",
          "ticks": 165360,
          "time": 222.25796449999999,
          "velocity": 0.6299212598425197
        },
        {
          "duration": 0.15188165208331839,
          "durationTicks": 113,
          "midi": 52,
          "name": "E3",
          "ticks": 165600,
          "time": 222.580545,
          "velocity": 0.6299212598425197
        },
        {
          "duration": 0.4583331270833355,
          "durationTicks": 341,
          "midi": 55,
          "name": "G3",
          "ticks": 165720,
          "time": 222.74183525,
          "velocity": 0.6299212598425197
        },
        {
          "duration": 0.4583331270833355,
          "durationTicks": 341,
          "midi": 62,
          "name": "D4",
          "ticks": 165720,
          "time": 222.74183525,
          "velocity": 0.6299212598425197
        },
        {
          "duration": 0.30510738958332695,
          "durationTicks": 227,
          "midi": 40,
          "name": "E2",
          "ticks": 166080,
          "time": 223.225706,
          "velocity": 0.6299212598425197
        },
        {
          "duration": 0.30510738958332695,
          "durationTicks": 227,
          "midi": 55,
          "name": "G3",
          "ticks": 166320,
          "time": 223.5482865,
          "velocity": 0.6299212598425197
        },
        {
          "duration": 0.30510738958332695,
          "durationTicks": 227,
          "midi": 62,
          "name": "D4",
          "ticks": 166320,
          "time": 223.5482865,
          "velocity": 0.6299212598425197
        },
        {
          "duration": 0.15188165208331839,
          "durationTicks": 113,
          "midi": 39,
          "name": "D#2",
          "ticks": 166560,
          "time": 223.870867,
          "velocity": 0.6299212598425197
        },
        {
          "duration": 0.4583331270833355,
          "durationTicks": 341,
          "midi": 51,
          "name": "D#3",
          "ticks": 166680,
          "time": 224.03215724999998,
          "velocity": 0.6299212598425197
        },
        {
          "duration": 0.30510738958332695,
          "durationTicks": 227,
          "midi": 38,
          "name": "D2",
          "ticks": 167040,
          "time": 224.516028,
          "velocity": 0.6299212598425197
        },
        {
          "duration": 0.30510738958332695,
          "durationTicks": 227,
          "midi": 53,
          "name": "F3",
          "ticks": 167280,
          "time": 224.8386085,
          "velocity": 0.6299212598425197
        },
        {
          "duration": 0.30510738958332695,
          "durationTicks": 227,
          "midi": 60,
          "name": "C4",
          "ticks": 167280,
          "time": 224.8386085,
          "velocity": 0.6299212598425197
        },
        {
          "duration": 0.15188165208331839,
          "durationTicks": 113,
          "midi": 45,
          "name": "A2",
          "ticks": 167520,
          "time": 225.161189,
          "velocity": 0.6299212598425197
        },
        {
          "duration": 0.4583331270833355,
          "durationTicks": 341,
          "midi": 53,
          "name": "F3",
          "ticks": 167640,
          "time": 225.32247925,
          "velocity": 0.6299212598425197
        },
        {
          "duration": 0.4583331270833355,
          "durationTicks": 341,
          "midi": 60,
          "name": "C4",
          "ticks": 167640,
          "time": 225.32247925,
          "velocity": 0.6299212598425197
        },
        {
          "duration": 0.30510738958335537,
          "durationTicks": 227,
          "midi": 43,
          "name": "G2",
          "ticks": 168000,
          "time": 225.80634999999998,
          "velocity": 0.6299212598425197
        },
        {
          "duration": 0.30510738958332695,
          "durationTicks": 227,
          "midi": 59,
          "name": "B3",
          "ticks": 168240,
          "time": 226.1289305,
          "velocity": 0.6299212598425197
        },
        {
          "duration": 0.30510738958332695,
          "durationTicks": 227,
          "midi": 64,
          "name": "E4",
          "ticks": 168240,
          "time": 226.1289305,
          "velocity": 0.6299212598425197
        },
        {
          "duration": 0.1518816520833468,
          "durationTicks": 113,
          "midi": 53,
          "name": "F3",
          "ticks": 168480,
          "time": 226.45151099999998,
          "velocity": 0.6299212598425197
        },
        {
          "duration": 0.4583331270833355,
          "durationTicks": 341,
          "midi": 59,
          "name": "B3",
          "ticks": 168600,
          "time": 226.61280125,
          "velocity": 0.6299212598425197
        },
        {
          "duration": 0.4583331270833355,
          "durationTicks": 341,
          "midi": 64,
          "name": "E4",
          "ticks": 168600,
          "time": 226.61280125,
          "velocity": 0.6299212598425197
        },
        {
          "duration": 0.30510738958335537,
          "durationTicks": 227,
          "midi": 36,
          "name": "C2",
          "ticks": 168960,
          "time": 227.09667199999998,
          "velocity": 0.6299212598425197
        },
        {
          "duration": 0.30510738958332695,
          "durationTicks": 227,
          "midi": 55,
          "name": "G3",
          "ticks": 169200,
          "time": 227.4192525,
          "velocity": 0.6299212598425197
        },
        {
          "duration": 0.30510738958332695,
          "durationTicks": 227,
          "midi": 59,
          "name": "B3",
          "ticks": 169200,
          "time": 227.4192525,
          "velocity": 0.6299212598425197
        },
        {
          "duration": 0.15188165208331839,
          "durationTicks": 113,
          "midi": 48,
          "name": "C3",
          "ticks": 169440,
          "time": 227.74183299999999,
          "velocity": 0.6299212598425197
        },
        {
          "duration": 0.4583331270833355,
          "durationTicks": 341,
          "midi": 55,
          "name": "G3",
          "ticks": 169560,
          "time": 227.90312325,
          "velocity": 0.6299212598425197
        },
        {
          "duration": 0.4583331270833355,
          "durationTicks": 341,
          "midi": 59,
          "name": "B3",
          "ticks": 169560,
          "time": 227.90312325,
          "velocity": 0.6299212598425197
        },
        {
          "duration": 0.30510738958332695,
          "durationTicks": 227,
          "midi": 36,
          "name": "C2",
          "ticks": 169920,
          "time": 228.386994,
          "velocity": 0.6299212598425197
        },
        {
          "duration": 0.30510738958332695,
          "durationTicks": 227,
          "midi": 55,
          "name": "G3",
          "ticks": 170160,
          "time": 228.7095745,
          "velocity": 0.6299212598425197
        },
        {
          "duration": 0.30510738958332695,
          "durationTicks": 227,
          "midi": 59,
          "name": "B3",
          "ticks": 170160,
          "time": 228.7095745,
          "velocity": 0.6299212598425197
        },
        {
          "duration": 0.15188165208331839,
          "durationTicks": 113,
          "midi": 48,
          "name": "C3",
          "ticks": 170400,
          "time": 229.032155,
          "velocity": 0.6299212598425197
        },
        {
          "duration": 0.4583331270833355,
          "durationTicks": 341,
          "midi": 55,
          "name": "G3",
          "ticks": 170520,
          "time": 229.19344525,
          "velocity": 0.6299212598425197
        },
        {
          "duration": 0.4583331270833355,
          "durationTicks": 341,
          "midi": 59,
          "name": "B3",
          "ticks": 170520,
          "time": 229.19344525,
          "velocity": 0.6299212598425197
        },
        {
          "duration": 0.30510738958332695,
          "durationTicks": 227,
          "midi": 35,
          "name": "B1",
          "ticks": 170880,
          "time": 229.677316,
          "velocity": 0.6299212598425197
        },
        {
          "duration": 0.30510738958332695,
          "durationTicks": 227,
          "midi": 50,
          "name": "D3",
          "ticks": 171120,
          "time": 229.9998965,
          "velocity": 0.6299212598425197
        },
        {
          "duration": 0.30510738958332695,
          "durationTicks": 227,
          "midi": 57,
          "name": "A3",
          "ticks": 171120,
          "time": 229.9998965,
          "velocity": 0.6299212598425197
        },
        {
          "duration": 0.15188165208331839,
          "durationTicks": 113,
          "midi": 47,
          "name": "B2",
          "ticks": 171360,
          "time": 230.322477,
          "velocity": 0.6299212598425197
        },
        {
          "duration": 0.4583331270833355,
          "durationTicks": 341,
          "midi": 50,
          "name": "D3",
          "ticks": 171480,
          "time": 230.48376725,
          "velocity": 0.6299212598425197
        },
        {
          "duration": 0.4583331270833355,
          "durationTicks": 341,
          "midi": 57,
          "name": "A3",
          "ticks": 171480,
          "time": 230.48376725,
          "velocity": 0.6299212598425197
        },
        {
          "duration": 0.15188165208331839,
          "durationTicks": 113,
          "midi": 39,
          "name": "D#2",
          "ticks": 171840,
          "time": 230.967638,
          "velocity": 0.6299212598425197
        },
        {
          "duration": 0.15188165208331839,
          "durationTicks": 113,
          "midi": 51,
          "name": "D#3",
          "ticks": 171960,
          "time": 231.12892825,
          "velocity": 0.6299212598425197
        },
        {
          "duration": 0.30510738958335537,
          "durationTicks": 227,
          "midi": 54,
          "name": "F#3",
          "ticks": 172080,
          "time": 231.29021849999998,
          "velocity": 0.6299212598425197
        },
        {
          "duration": 0.30510738958335537,
          "durationTicks": 227,
          "midi": 57,
          "name": "A3",
          "ticks": 172080,
          "time": 231.29021849999998,
          "velocity": 0.6299212598425197
        },
        {
          "duration": 0.15188165208331839,
          "durationTicks": 113,
          "midi": 51,
          "name": "D#3",
          "ticks": 172320,
          "time": 231.612799,
          "velocity": 0.6299212598425197
        },
        {
          "duration": 0.30510738958332695,
          "durationTicks": 227,
          "midi": 54,
          "name": "F#3",
          "ticks": 172440,
          "time": 231.77408925,
          "velocity": 0.6299212598425197
        },
        {
          "duration": 0.30510738958332695,
          "durationTicks": 227,
          "midi": 57,
          "name": "A3",
          "ticks": 172440,
          "time": 231.77408925,
          "velocity": 0.6299212598425197
        },
        {
          "duration": 0.15188165208331839,
          "durationTicks": 113,
          "midi": 41,
          "name": "F2",
          "ticks": 172680,
          "time": 232.09666975,
          "velocity": 0.6299212598425197
        },
        {
          "duration": 0.30510738958332695,
          "durationTicks": 227,
          "midi": 40,
          "name": "E2",
          "ticks": 172800,
          "time": 232.25796,
          "velocity": 0.6299212598425197
        },
        {
          "duration": 0.30510738958335537,
          "durationTicks": 227,
          "midi": 55,
          "name": "G3",
          "ticks": 173040,
          "time": 232.58054049999998,
          "velocity": 0.6299212598425197
        },
        {
          "duration": 0.30510738958335537,
          "durationTicks": 227,
          "midi": 62,
          "name": "D4",
          "ticks": 173040,
          "time": 232.58054049999998,
          "velocity": 0.6299212598425197
        },
        {
          "duration": 0.15188165208331839,
          "durationTicks": 113,
          "midi": 52,
          "name": "E3",
          "ticks": 173280,
          "time": 232.903121,
          "velocity": 0.6299212598425197
        },
        {
          "duration": 0.4583331270833355,
          "durationTicks": 341,
          "midi": 55,
          "name": "G3",
          "ticks": 173400,
          "time": 233.06441125,
          "velocity": 0.6299212598425197
        },
        {
          "duration": 0.4583331270833355,
          "durationTicks": 341,
          "midi": 62,
          "name": "D4",
          "ticks": 173400,
          "time": 233.06441125,
          "velocity": 0.6299212598425197
        },
        {
          "duration": 0.30510738958332695,
          "durationTicks": 227,
          "midi": 40,
          "name": "E2",
          "ticks": 173760,
          "time": 233.548282,
          "velocity": 0.6299212598425197
        },
        {
          "duration": 0.30510738958332695,
          "durationTicks": 227,
          "midi": 55,
          "name": "G3",
          "ticks": 174000,
          "time": 233.8708625,
          "velocity": 0.6299212598425197
        },
        {
          "duration": 0.30510738958332695,
          "durationTicks": 227,
          "midi": 62,
          "name": "D4",
          "ticks": 174000,
          "time": 233.8708625,
          "velocity": 0.6299212598425197
        },
        {
          "duration": 0.15188165208331839,
          "durationTicks": 113,
          "midi": 39,
          "name": "D#2",
          "ticks": 174240,
          "time": 234.193443,
          "velocity": 0.6299212598425197
        },
        {
          "duration": 0.45833312708336393,
          "durationTicks": 341,
          "midi": 51,
          "name": "D#3",
          "ticks": 174360,
          "time": 234.35473324999998,
          "velocity": 0.6299212598425197
        },
        {
          "duration": 0.30510738958332695,
          "durationTicks": 227,
          "midi": 38,
          "name": "D2",
          "ticks": 174720,
          "time": 234.838604,
          "velocity": 0.6299212598425197
        },
        {
          "duration": 0.30510738958332695,
          "durationTicks": 227,
          "midi": 53,
          "name": "F3",
          "ticks": 174960,
          "time": 235.1611845,
          "velocity": 0.6299212598425197
        },
        {
          "duration": 0.30510738958332695,
          "durationTicks": 227,
          "midi": 60,
          "name": "C4",
          "ticks": 174960,
          "time": 235.1611845,
          "velocity": 0.6299212598425197
        },
        {
          "duration": 0.15188165208331839,
          "durationTicks": 113,
          "midi": 45,
          "name": "A2",
          "ticks": 175200,
          "time": 235.483765,
          "velocity": 0.6299212598425197
        },
        {
          "duration": 0.4583331270833355,
          "durationTicks": 341,
          "midi": 53,
          "name": "F3",
          "ticks": 175320,
          "time": 235.64505524999998,
          "velocity": 0.6299212598425197
        },
        {
          "duration": 0.4583331270833355,
          "durationTicks": 341,
          "midi": 60,
          "name": "C4",
          "ticks": 175320,
          "time": 235.64505524999998,
          "velocity": 0.6299212598425197
        },
        {
          "duration": 0.30510738958332695,
          "durationTicks": 227,
          "midi": 43,
          "name": "G2",
          "ticks": 175680,
          "time": 236.128926,
          "velocity": 0.6299212598425197
        },
        {
          "duration": 0.30510738958332695,
          "durationTicks": 227,
          "midi": 59,
          "name": "B3",
          "ticks": 175920,
          "time": 236.4515065,
          "velocity": 0.6299212598425197
        },
        {
          "duration": 0.30510738958332695,
          "durationTicks": 227,
          "midi": 64,
          "name": "E4",
          "ticks": 175920,
          "time": 236.4515065,
          "velocity": 0.6299212598425197
        },
        {
          "duration": 0.1518816520833468,
          "durationTicks": 113,
          "midi": 53,
          "name": "F3",
          "ticks": 176160,
          "time": 236.77408699999998,
          "velocity": 0.6299212598425197
        },
        {
          "duration": 0.4583331270833355,
          "durationTicks": 341,
          "midi": 59,
          "name": "B3",
          "ticks": 176280,
          "time": 236.93537725,
          "velocity": 0.6299212598425197
        },
        {
          "duration": 0.4583331270833355,
          "durationTicks": 341,
          "midi": 64,
          "name": "E4",
          "ticks": 176280,
          "time": 236.93537725,
          "velocity": 0.6299212598425197
        },
        {
          "duration": 0.30510738958335537,
          "durationTicks": 227,
          "midi": 36,
          "name": "C2",
          "ticks": 176640,
          "time": 237.41924799999998,
          "velocity": 0.6299212598425197
        },
        {
          "duration": 0.30510738958332695,
          "durationTicks": 227,
          "midi": 55,
          "name": "G3",
          "ticks": 176880,
          "time": 237.7418285,
          "velocity": 0.6299212598425197
        },
        {
          "duration": 0.30510738958332695,
          "durationTicks": 227,
          "midi": 59,
          "name": "B3",
          "ticks": 176880,
          "time": 237.7418285,
          "velocity": 0.6299212598425197
        },
        {
          "duration": 0.1518816520833468,
          "durationTicks": 113,
          "midi": 48,
          "name": "C3",
          "ticks": 177120,
          "time": 238.06440899999998,
          "velocity": 0.6299212598425197
        },
        {
          "duration": 0.4583331270833355,
          "durationTicks": 341,
          "midi": 55,
          "name": "G3",
          "ticks": 177240,
          "time": 238.22569925,
          "velocity": 0.6299212598425197
        },
        {
          "duration": 0.4583331270833355,
          "durationTicks": 341,
          "midi": 59,
          "name": "B3",
          "ticks": 177240,
          "time": 238.22569925,
          "velocity": 0.6299212598425197
        },
        {
          "duration": 0.30510738958332695,
          "durationTicks": 227,
          "midi": 36,
          "name": "C2",
          "ticks": 177600,
          "time": 238.70956999999999,
          "velocity": 0.6299212598425197
        },
        {
          "duration": 0.30510738958332695,
          "durationTicks": 227,
          "midi": 55,
          "name": "G3",
          "ticks": 177840,
          "time": 239.0321505,
          "velocity": 0.6299212598425197
        },
        {
          "duration": 0.30510738958332695,
          "durationTicks": 227,
          "midi": 59,
          "name": "B3",
          "ticks": 177840,
          "time": 239.0321505,
          "velocity": 0.6299212598425197
        },
        {
          "duration": 0.15188165208331839,
          "durationTicks": 113,
          "midi": 48,
          "name": "C3",
          "ticks": 178080,
          "time": 239.354731,
          "velocity": 0.6299212598425197
        },
        {
          "duration": 0.4583331270833355,
          "durationTicks": 341,
          "midi": 55,
          "name": "G3",
          "ticks": 178200,
          "time": 239.51602125,
          "velocity": 0.6299212598425197
        },
        {
          "duration": 0.4583331270833355,
          "durationTicks": 341,
          "midi": 59,
          "name": "B3",
          "ticks": 178200,
          "time": 239.51602125,
          "velocity": 0.6299212598425197
        },
        {
          "duration": 0.30510738958332695,
          "durationTicks": 227,
          "midi": 35,
          "name": "B1",
          "ticks": 178560,
          "time": 239.999892,
          "velocity": 0.6299212598425197
        },
        {
          "duration": 0.30510738958332695,
          "durationTicks": 227,
          "midi": 50,
          "name": "D3",
          "ticks": 178800,
          "time": 240.3224725,
          "velocity": 0.6299212598425197
        },
        {
          "duration": 0.30510738958332695,
          "durationTicks": 227,
          "midi": 57,
          "name": "A3",
          "ticks": 178800,
          "time": 240.3224725,
          "velocity": 0.6299212598425197
        },
        {
          "duration": 0.15188165208331839,
          "durationTicks": 113,
          "midi": 47,
          "name": "B2",
          "ticks": 179040,
          "time": 240.645053,
          "velocity": 0.6299212598425197
        },
        {
          "duration": 0.4583331270833355,
          "durationTicks": 341,
          "midi": 50,
          "name": "D3",
          "ticks": 179160,
          "time": 240.80634325,
          "velocity": 0.6299212598425197
        },
        {
          "duration": 0.4583331270833355,
          "durationTicks": 341,
          "midi": 57,
          "name": "A3",
          "ticks": 179160,
          "time": 240.80634325,
          "velocity": 0.6299212598425197
        },
        {
          "duration": 0.15188165208331839,
          "durationTicks": 113,
          "midi": 39,
          "name": "D#2",
          "ticks": 179520,
          "time": 241.290214,
          "velocity": 0.6299212598425197
        },
        {
          "duration": 0.15188165208331839,
          "durationTicks": 113,
          "midi": 51,
          "name": "D#3",
          "ticks": 179640,
          "time": 241.45150425,
          "velocity": 0.6299212598425197
        },
        {
          "duration": 0.30510738958332695,
          "durationTicks": 227,
          "midi": 54,
          "name": "F#3",
          "ticks": 179760,
          "time": 241.6127945,
          "velocity": 0.6299212598425197
        },
        {
          "duration": 0.30510738958332695,
          "durationTicks": 227,
          "midi": 57,
          "name": "A3",
          "ticks": 179760,
          "time": 241.6127945,
          "velocity": 0.6299212598425197
        },
        {
          "duration": 0.15188165208331839,
          "durationTicks": 113,
          "midi": 51,
          "name": "D#3",
          "ticks": 180000,
          "time": 241.935375,
          "velocity": 0.6299212598425197
        },
        {
          "duration": 0.30510738958332695,
          "durationTicks": 227,
          "midi": 54,
          "name": "F#3",
          "ticks": 180120,
          "time": 242.09666525,
          "velocity": 0.6299212598425197
        },
        {
          "duration": 0.30510738958332695,
          "durationTicks": 227,
          "midi": 57,
          "name": "A3",
          "ticks": 180120,
          "time": 242.09666525,
          "velocity": 0.6299212598425197
        },
        {
          "duration": 0.15188165208331839,
          "durationTicks": 113,
          "midi": 41,
          "name": "F2",
          "ticks": 180360,
          "time": 242.41924575,
          "velocity": 0.6299212598425197
        },
        {
          "duration": 0.30510738958332695,
          "durationTicks": 227,
          "midi": 40,
          "name": "E2",
          "ticks": 180480,
          "time": 242.580536,
          "velocity": 0.6299212598425197
        },
        {
          "duration": 0.30510738958335537,
          "durationTicks": 227,
          "midi": 55,
          "name": "G3",
          "ticks": 180720,
          "time": 242.90311649999998,
          "velocity": 0.6299212598425197
        },
        {
          "duration": 0.30510738958335537,
          "durationTicks": 227,
          "midi": 62,
          "name": "D4",
          "ticks": 180720,
          "time": 242.90311649999998,
          "velocity": 0.6299212598425197
        },
        {
          "duration": 0.15188165208331839,
          "durationTicks": 113,
          "midi": 52,
          "name": "E3",
          "ticks": 180960,
          "time": 243.225697,
          "velocity": 0.6299212598425197
        },
        {
          "duration": 0.4583331270833355,
          "durationTicks": 341,
          "midi": 55,
          "name": "G3",
          "ticks": 181080,
          "time": 243.38698725,
          "velocity": 0.6299212598425197
        },
        {
          "duration": 0.4583331270833355,
          "durationTicks": 341,
          "midi": 62,
          "name": "D4",
          "ticks": 181080,
          "time": 243.38698725,
          "velocity": 0.6299212598425197
        },
        {
          "duration": 0.30510738958332695,
          "durationTicks": 227,
          "midi": 40,
          "name": "E2",
          "ticks": 181440,
          "time": 243.870858,
          "velocity": 0.6299212598425197
        },
        {
          "duration": 0.30510738958332695,
          "durationTicks": 227,
          "midi": 55,
          "name": "G3",
          "ticks": 181680,
          "time": 244.19343849999998,
          "velocity": 0.6299212598425197
        },
        {
          "duration": 0.30510738958332695,
          "durationTicks": 227,
          "midi": 62,
          "name": "D4",
          "ticks": 181680,
          "time": 244.19343849999998,
          "velocity": 0.6299212598425197
        },
        {
          "duration": 0.15188165208331839,
          "durationTicks": 113,
          "midi": 39,
          "name": "D#2",
          "ticks": 181920,
          "time": 244.516019,
          "velocity": 0.6299212598425197
        },
        {
          "duration": 0.4583331270833355,
          "durationTicks": 341,
          "midi": 51,
          "name": "D#3",
          "ticks": 182040,
          "time": 244.67730925,
          "velocity": 0.6299212598425197
        },
        {
          "duration": 0.30510738958332695,
          "durationTicks": 227,
          "midi": 38,
          "name": "D2",
          "ticks": 182400,
          "time": 245.16118,
          "velocity": 0.6299212598425197
        },
        {
          "duration": 0.30510738958332695,
          "durationTicks": 227,
          "midi": 53,
          "name": "F3",
          "ticks": 182640,
          "time": 245.4837605,
          "velocity": 0.6299212598425197
        },
        {
          "duration": 0.30510738958332695,
          "durationTicks": 227,
          "midi": 60,
          "name": "C4",
          "ticks": 182640,
          "time": 245.4837605,
          "velocity": 0.6299212598425197
        },
        {
          "duration": 0.15188165208331839,
          "durationTicks": 113,
          "midi": 45,
          "name": "A2",
          "ticks": 182880,
          "time": 245.806341,
          "velocity": 0.6299212598425197
        },
        {
          "duration": 0.45833312708336393,
          "durationTicks": 341,
          "midi": 53,
          "name": "F3",
          "ticks": 183000,
          "time": 245.96763124999998,
          "velocity": 0.6299212598425197
        },
        {
          "duration": 0.45833312708336393,
          "durationTicks": 341,
          "midi": 60,
          "name": "C4",
          "ticks": 183000,
          "time": 245.96763124999998,
          "velocity": 0.6299212598425197
        },
        {
          "duration": 0.30510738958332695,
          "durationTicks": 227,
          "midi": 43,
          "name": "G2",
          "ticks": 183360,
          "time": 246.451502,
          "velocity": 0.6299212598425197
        },
        {
          "duration": 0.30510738958332695,
          "durationTicks": 227,
          "midi": 59,
          "name": "B3",
          "ticks": 183600,
          "time": 246.7740825,
          "velocity": 0.6299212598425197
        },
        {
          "duration": 0.30510738958332695,
          "durationTicks": 227,
          "midi": 64,
          "name": "E4",
          "ticks": 183600,
          "time": 246.7740825,
          "velocity": 0.6299212598425197
        },
        {
          "duration": 0.15188165208331839,
          "durationTicks": 113,
          "midi": 53,
          "name": "F3",
          "ticks": 183840,
          "time": 247.096663,
          "velocity": 0.6299212598425197
        },
        {
          "duration": 0.4583331270833355,
          "durationTicks": 341,
          "midi": 59,
          "name": "B3",
          "ticks": 183960,
          "time": 247.25795324999999,
          "velocity": 0.6299212598425197
        },
        {
          "duration": 0.4583331270833355,
          "durationTicks": 341,
          "midi": 64,
          "name": "E4",
          "ticks": 183960,
          "time": 247.25795324999999,
          "velocity": 0.6299212598425197
        },
        {
          "duration": 0.30510738958332695,
          "durationTicks": 227,
          "midi": 36,
          "name": "C2",
          "ticks": 184320,
          "time": 247.741824,
          "velocity": 0.6299212598425197
        },
        {
          "duration": 0.30510738958332695,
          "durationTicks": 227,
          "midi": 55,
          "name": "G3",
          "ticks": 184560,
          "time": 248.0644045,
          "velocity": 0.6299212598425197
        },
        {
          "duration": 0.30510738958332695,
          "durationTicks": 227,
          "midi": 59,
          "name": "B3",
          "ticks": 184560,
          "time": 248.0644045,
          "velocity": 0.6299212598425197
        },
        {
          "duration": 0.1518816520833468,
          "durationTicks": 113,
          "midi": 48,
          "name": "C3",
          "ticks": 184800,
          "time": 248.38698499999998,
          "velocity": 0.6299212598425197
        },
        {
          "duration": 0.4583331270833355,
          "durationTicks": 341,
          "midi": 55,
          "name": "G3",
          "ticks": 184920,
          "time": 248.54827525,
          "velocity": 0.6299212598425197
        },
        {
          "duration": 0.4583331270833355,
          "durationTicks": 341,
          "midi": 59,
          "name": "B3",
          "ticks": 184920,
          "time": 248.54827525,
          "velocity": 0.6299212598425197
        },
        {
          "duration": 0.30510738958335537,
          "durationTicks": 227,
          "midi": 36,
          "name": "C2",
          "ticks": 185280,
          "time": 249.03214599999998,
          "velocity": 0.6299212598425197
        },
        {
          "duration": 0.30510738958332695,
          "durationTicks": 227,
          "midi": 55,
          "name": "G3",
          "ticks": 185520,
          "time": 249.3547265,
          "velocity": 0.6299212598425197
        },
        {
          "duration": 0.30510738958332695,
          "durationTicks": 227,
          "midi": 59,
          "name": "B3",
          "ticks": 185520,
          "time": 249.3547265,
          "velocity": 0.6299212598425197
        },
        {
          "duration": 0.1518816520833468,
          "durationTicks": 113,
          "midi": 48,
          "name": "C3",
          "ticks": 185760,
          "time": 249.67730699999998,
          "velocity": 0.6299212598425197
        },
        {
          "duration": 0.4583331270833355,
          "durationTicks": 341,
          "midi": 55,
          "name": "G3",
          "ticks": 185880,
          "time": 249.83859725,
          "velocity": 0.6299212598425197
        },
        {
          "duration": 0.4583331270833355,
          "durationTicks": 341,
          "midi": 59,
          "name": "B3",
          "ticks": 185880,
          "time": 249.83859725,
          "velocity": 0.6299212598425197
        },
        {
          "duration": 0.30510738958332695,
          "durationTicks": 227,
          "midi": 35,
          "name": "B1",
          "ticks": 186240,
          "time": 250.322468,
          "velocity": 0.6299212598425197
        },
        {
          "duration": 0.30510738958332695,
          "durationTicks": 227,
          "midi": 50,
          "name": "D3",
          "ticks": 186480,
          "time": 250.6450485,
          "velocity": 0.6299212598425197
        },
        {
          "duration": 0.30510738958332695,
          "durationTicks": 227,
          "midi": 57,
          "name": "A3",
          "ticks": 186480,
          "time": 250.6450485,
          "velocity": 0.6299212598425197
        },
        {
          "duration": 0.15188165208331839,
          "durationTicks": 113,
          "midi": 47,
          "name": "B2",
          "ticks": 186720,
          "time": 250.967629,
          "velocity": 0.6299212598425197
        },
        {
          "duration": 0.4583331270833355,
          "durationTicks": 341,
          "midi": 50,
          "name": "D3",
          "ticks": 186840,
          "time": 251.12891925,
          "velocity": 0.6299212598425197
        },
        {
          "duration": 0.4583331270833355,
          "durationTicks": 341,
          "midi": 57,
          "name": "A3",
          "ticks": 186840,
          "time": 251.12891925,
          "velocity": 0.6299212598425197
        },
        {
          "duration": 0.15188165208331839,
          "durationTicks": 113,
          "midi": 39,
          "name": "D#2",
          "ticks": 187200,
          "time": 251.61279,
          "velocity": 0.6299212598425197
        },
        {
          "duration": 0.15188165208331839,
          "durationTicks": 113,
          "midi": 51,
          "name": "D#3",
          "ticks": 187320,
          "time": 251.77408025,
          "velocity": 0.6299212598425197
        },
        {
          "duration": 0.30510738958332695,
          "durationTicks": 227,
          "midi": 54,
          "name": "F#3",
          "ticks": 187440,
          "time": 251.9353705,
          "velocity": 0.6299212598425197
        },
        {
          "duration": 0.30510738958332695,
          "durationTicks": 227,
          "midi": 57,
          "name": "A3",
          "ticks": 187440,
          "time": 251.9353705,
          "velocity": 0.6299212598425197
        },
        {
          "duration": 0.15188165208331839,
          "durationTicks": 113,
          "midi": 51,
          "name": "D#3",
          "ticks": 187680,
          "time": 252.257951,
          "velocity": 0.6299212598425197
        },
        {
          "duration": 0.30510738958332695,
          "durationTicks": 227,
          "midi": 54,
          "name": "F#3",
          "ticks": 187800,
          "time": 252.41924125,
          "velocity": 0.6299212598425197
        },
        {
          "duration": 0.30510738958332695,
          "durationTicks": 227,
          "midi": 57,
          "name": "A3",
          "ticks": 187800,
          "time": 252.41924125,
          "velocity": 0.6299212598425197
        },
        {
          "duration": 0.15188165208331839,
          "durationTicks": 113,
          "midi": 41,
          "name": "F2",
          "ticks": 188040,
          "time": 252.74182174999999,
          "velocity": 0.6299212598425197
        },
        {
          "duration": 0.30510738958332695,
          "durationTicks": 227,
          "midi": 40,
          "name": "E2",
          "ticks": 188160,
          "time": 252.903112,
          "velocity": 0.6299212598425197
        },
        {
          "duration": 0.30510738958332695,
          "durationTicks": 227,
          "midi": 55,
          "name": "G3",
          "ticks": 188400,
          "time": 253.2256925,
          "velocity": 0.6299212598425197
        },
        {
          "duration": 0.30510738958332695,
          "durationTicks": 227,
          "midi": 62,
          "name": "D4",
          "ticks": 188400,
          "time": 253.2256925,
          "velocity": 0.6299212598425197
        },
        {
          "duration": 0.15188165208331839,
          "durationTicks": 113,
          "midi": 52,
          "name": "E3",
          "ticks": 188640,
          "time": 253.548273,
          "velocity": 0.6299212598425197
        },
        {
          "duration": 0.4583331270833355,
          "durationTicks": 341,
          "midi": 55,
          "name": "G3",
          "ticks": 188760,
          "time": 253.70956325,
          "velocity": 0.6299212598425197
        },
        {
          "duration": 0.4583331270833355,
          "durationTicks": 341,
          "midi": 62,
          "name": "D4",
          "ticks": 188760,
          "time": 253.70956325,
          "velocity": 0.6299212598425197
        },
        {
          "duration": 0.30510738958332695,
          "durationTicks": 227,
          "midi": 40,
          "name": "E2",
          "ticks": 189120,
          "time": 254.193434,
          "velocity": 0.6299212598425197
        },
        {
          "duration": 0.30510738958335537,
          "durationTicks": 227,
          "midi": 55,
          "name": "G3",
          "ticks": 189360,
          "time": 254.51601449999998,
          "velocity": 0.6299212598425197
        },
        {
          "duration": 0.30510738958335537,
          "durationTicks": 227,
          "midi": 62,
          "name": "D4",
          "ticks": 189360,
          "time": 254.51601449999998,
          "velocity": 0.6299212598425197
        },
        {
          "duration": 0.15188165208331839,
          "durationTicks": 113,
          "midi": 39,
          "name": "D#2",
          "ticks": 189600,
          "time": 254.838595,
          "velocity": 0.6299212598425197
        },
        {
          "duration": 0.4583331270833355,
          "durationTicks": 341,
          "midi": 51,
          "name": "D#3",
          "ticks": 189720,
          "time": 254.99988525,
          "velocity": 0.6299212598425197
        },
        {
          "duration": 0.30510738958332695,
          "durationTicks": 227,
          "midi": 38,
          "name": "D2",
          "ticks": 190080,
          "time": 255.483756,
          "velocity": 0.6299212598425197
        },
        {
          "duration": 0.30510738958332695,
          "durationTicks": 227,
          "midi": 53,
          "name": "F3",
          "ticks": 190320,
          "time": 255.8063365,
          "velocity": 0.6299212598425197
        },
        {
          "duration": 0.30510738958332695,
          "durationTicks": 227,
          "midi": 60,
          "name": "C4",
          "ticks": 190320,
          "time": 255.8063365,
          "velocity": 0.6299212598425197
        },
        {
          "duration": 0.15188165208331839,
          "durationTicks": 113,
          "midi": 45,
          "name": "A2",
          "ticks": 190560,
          "time": 256.128917,
          "velocity": 0.6299212598425197
        },
        {
          "duration": 0.4583331270833355,
          "durationTicks": 341,
          "midi": 53,
          "name": "F3",
          "ticks": 190680,
          "time": 256.29020725,
          "velocity": 0.6299212598425197
        },
        {
          "duration": 0.4583331270833355,
          "durationTicks": 341,
          "midi": 60,
          "name": "C4",
          "ticks": 190680,
          "time": 256.29020725,
          "velocity": 0.6299212598425197
        },
        {
          "duration": 0.30510738958332695,
          "durationTicks": 227,
          "midi": 43,
          "name": "G2",
          "ticks": 191040,
          "time": 256.774078,
          "velocity": 0.6299212598425197
        },
        {
          "duration": 0.30510738958332695,
          "durationTicks": 227,
          "midi": 59,
          "name": "B3",
          "ticks": 191280,
          "time": 257.0966585,
          "velocity": 0.6299212598425197
        },
        {
          "duration": 0.30510738958332695,
          "durationTicks": 227,
          "midi": 64,
          "name": "E4",
          "ticks": 191280,
          "time": 257.0966585,
          "velocity": 0.6299212598425197
        },
        {
          "duration": 0.15188165208331839,
          "durationTicks": 113,
          "midi": 53,
          "name": "F3",
          "ticks": 191520,
          "time": 257.419239,
          "velocity": 0.6299212598425197
        },
        {
          "duration": 0.4583331270833355,
          "durationTicks": 341,
          "midi": 59,
          "name": "B3",
          "ticks": 191640,
          "time": 257.58052925,
          "velocity": 0.6299212598425197
        },
        {
          "duration": 0.4583331270833355,
          "durationTicks": 341,
          "midi": 64,
          "name": "E4",
          "ticks": 191640,
          "time": 257.58052925,
          "velocity": 0.6299212598425197
        },
        {
          "duration": 0.30510738958332695,
          "durationTicks": 227,
          "midi": 36,
          "name": "C2",
          "ticks": 192000,
          "time": 258.0644,
          "velocity": 0.6299212598425197
        },
        {
          "duration": 0.30510738958332695,
          "durationTicks": 227,
          "midi": 55,
          "name": "G3",
          "ticks": 192240,
          "time": 258.3869805,
          "velocity": 0.6299212598425197
        },
        {
          "duration": 0.30510738958332695,
          "durationTicks": 227,
          "midi": 59,
          "name": "B3",
          "ticks": 192240,
          "time": 258.3869805,
          "velocity": 0.6299212598425197
        },
        {
          "duration": 0.15188165208331839,
          "durationTicks": 113,
          "midi": 48,
          "name": "C3",
          "ticks": 192480,
          "time": 258.709561,
          "velocity": 0.6299212598425197
        },
        {
          "duration": 0.4583331270833355,
          "durationTicks": 341,
          "midi": 55,
          "name": "G3",
          "ticks": 192600,
          "time": 258.87085125,
          "velocity": 0.6299212598425197
        },
        {
          "duration": 0.4583331270833355,
          "durationTicks": 341,
          "midi": 59,
          "name": "B3",
          "ticks": 192600,
          "time": 258.87085125,
          "velocity": 0.6299212598425197
        },
        {
          "duration": 0.30510738958332695,
          "durationTicks": 227,
          "midi": 36,
          "name": "C2",
          "ticks": 192960,
          "time": 259.354722,
          "velocity": 0.6299212598425197
        },
        {
          "duration": 0.30510738958332695,
          "durationTicks": 227,
          "midi": 55,
          "name": "G3",
          "ticks": 193200,
          "time": 259.6773025,
          "velocity": 0.6299212598425197
        },
        {
          "duration": 0.30510738958332695,
          "durationTicks": 227,
          "midi": 59,
          "name": "B3",
          "ticks": 193200,
          "time": 259.6773025,
          "velocity": 0.6299212598425197
        },
        {
          "duration": 0.15188165208331839,
          "durationTicks": 113,
          "midi": 48,
          "name": "C3",
          "ticks": 193440,
          "time": 259.999883,
          "velocity": 0.6299212598425197
        },
        {
          "duration": 0.4583331270833355,
          "durationTicks": 341,
          "midi": 55,
          "name": "G3",
          "ticks": 193560,
          "time": 260.16117325,
          "velocity": 0.6299212598425197
        },
        {
          "duration": 0.4583331270833355,
          "durationTicks": 341,
          "midi": 59,
          "name": "B3",
          "ticks": 193560,
          "time": 260.16117325,
          "velocity": 0.6299212598425197
        },
        {
          "duration": 0.30510738958332695,
          "durationTicks": 227,
          "midi": 35,
          "name": "B1",
          "ticks": 193920,
          "time": 260.645044,
          "velocity": 0.6299212598425197
        },
        {
          "duration": 0.30510738958332695,
          "durationTicks": 227,
          "midi": 50,
          "name": "D3",
          "ticks": 194160,
          "time": 260.9676245,
          "velocity": 0.6299212598425197
        },
        {
          "duration": 0.30510738958332695,
          "durationTicks": 227,
          "midi": 57,
          "name": "A3",
          "ticks": 194160,
          "time": 260.9676245,
          "velocity": 0.6299212598425197
        },
        {
          "duration": 0.15188165208331839,
          "durationTicks": 113,
          "midi": 47,
          "name": "B2",
          "ticks": 194400,
          "time": 261.290205,
          "velocity": 0.6299212598425197
        },
        {
          "duration": 0.4583331270833355,
          "durationTicks": 341,
          "midi": 50,
          "name": "D3",
          "ticks": 194520,
          "time": 261.45149525,
          "velocity": 0.6299212598425197
        },
        {
          "duration": 0.4583331270833355,
          "durationTicks": 341,
          "midi": 57,
          "name": "A3",
          "ticks": 194520,
          "time": 261.45149525,
          "velocity": 0.6299212598425197
        },
        {
          "duration": 0.15188165208331839,
          "durationTicks": 113,
          "midi": 39,
          "name": "D#2",
          "ticks": 194880,
          "time": 261.935366,
          "velocity": 0.6299212598425197
        },
        {
          "duration": 0.15188165208337523,
          "durationTicks": 113,
          "midi": 51,
          "name": "D#3",
          "ticks": 195000,
          "time": 262.09665624999997,
          "velocity": 0.6299212598425197
        },
        {
          "duration": 0.30510738958332695,
          "durationTicks": 227,
          "midi": 54,
          "name": "F#3",
          "ticks": 195120,
          "time": 262.2579465,
          "velocity": 0.6299212598425197
        },
        {
          "duration": 0.30510738958332695,
          "durationTicks": 227,
          "midi": 57,
          "name": "A3",
          "ticks": 195120,
          "time": 262.2579465,
          "velocity": 0.6299212598425197
        },
        {
          "duration": 0.15188165208331839,
          "durationTicks": 113,
          "midi": 51,
          "name": "D#3",
          "ticks": 195360,
          "time": 262.580527,
          "velocity": 0.6299212598425197
        },
        {
          "duration": 0.30510738958332695,
          "durationTicks": 227,
          "midi": 54,
          "name": "F#3",
          "ticks": 195480,
          "time": 262.74181725,
          "velocity": 0.6299212598425197
        },
        {
          "duration": 0.30510738958332695,
          "durationTicks": 227,
          "midi": 57,
          "name": "A3",
          "ticks": 195480,
          "time": 262.74181725,
          "velocity": 0.6299212598425197
        },
        {
          "duration": 0.15188165208331839,
          "durationTicks": 113,
          "midi": 41,
          "name": "F2",
          "ticks": 195720,
          "time": 263.06439775,
          "velocity": 0.6299212598425197
        },
        {
          "duration": 0.30510738958332695,
          "durationTicks": 227,
          "midi": 40,
          "name": "E2",
          "ticks": 195840,
          "time": 263.225688,
          "velocity": 0.6299212598425197
        },
        {
          "duration": 0.30510738958332695,
          "durationTicks": 227,
          "midi": 55,
          "name": "G3",
          "ticks": 196080,
          "time": 263.5482685,
          "velocity": 0.6299212598425197
        },
        {
          "duration": 0.30510738958332695,
          "durationTicks": 227,
          "midi": 62,
          "name": "D4",
          "ticks": 196080,
          "time": 263.5482685,
          "velocity": 0.6299212598425197
        },
        {
          "duration": 0.15188165208331839,
          "durationTicks": 113,
          "midi": 52,
          "name": "E3",
          "ticks": 196320,
          "time": 263.870849,
          "velocity": 0.6299212598425197
        },
        {
          "duration": 0.4583331270833355,
          "durationTicks": 341,
          "midi": 55,
          "name": "G3",
          "ticks": 196440,
          "time": 264.03213925,
          "velocity": 0.6299212598425197
        },
        {
          "duration": 0.4583331270833355,
          "durationTicks": 341,
          "midi": 62,
          "name": "D4",
          "ticks": 196440,
          "time": 264.03213925,
          "velocity": 0.6299212598425197
        },
        {
          "duration": 0.30510738958332695,
          "durationTicks": 227,
          "midi": 40,
          "name": "E2",
          "ticks": 196800,
          "time": 264.51601,
          "velocity": 0.6299212598425197
        },
        {
          "duration": 0.30510738958332695,
          "durationTicks": 227,
          "midi": 55,
          "name": "G3",
          "ticks": 197040,
          "time": 264.8385905,
          "velocity": 0.6299212598425197
        },
        {
          "duration": 0.30510738958332695,
          "durationTicks": 227,
          "midi": 62,
          "name": "D4",
          "ticks": 197040,
          "time": 264.8385905,
          "velocity": 0.6299212598425197
        },
        {
          "duration": 0.15188165208337523,
          "durationTicks": 113,
          "midi": 39,
          "name": "D#2",
          "ticks": 197280,
          "time": 265.16117099999997,
          "velocity": 0.6299212598425197
        },
        {
          "duration": 0.4583331270833355,
          "durationTicks": 341,
          "midi": 51,
          "name": "D#3",
          "ticks": 197400,
          "time": 265.32246125,
          "velocity": 0.6299212598425197
        },
        {
          "duration": 0.30510738958332695,
          "durationTicks": 227,
          "midi": 38,
          "name": "D2",
          "ticks": 197760,
          "time": 265.806332,
          "velocity": 0.6299212598425197
        },
        {
          "duration": 0.30510738958332695,
          "durationTicks": 227,
          "midi": 53,
          "name": "F3",
          "ticks": 198000,
          "time": 266.1289125,
          "velocity": 0.6299212598425197
        },
        {
          "duration": 0.30510738958332695,
          "durationTicks": 227,
          "midi": 60,
          "name": "C4",
          "ticks": 198000,
          "time": 266.1289125,
          "velocity": 0.6299212598425197
        },
        {
          "duration": 0.15188165208331839,
          "durationTicks": 113,
          "midi": 45,
          "name": "A2",
          "ticks": 198240,
          "time": 266.45149299999997,
          "velocity": 0.6299212598425197
        },
        {
          "duration": 0.4583331270833355,
          "durationTicks": 341,
          "midi": 53,
          "name": "F3",
          "ticks": 198360,
          "time": 266.61278325,
          "velocity": 0.6299212598425197
        },
        {
          "duration": 0.4583331270833355,
          "durationTicks": 341,
          "midi": 60,
          "name": "C4",
          "ticks": 198360,
          "time": 266.61278325,
          "velocity": 0.6299212598425197
        },
        {
          "duration": 0.30510738958332695,
          "durationTicks": 227,
          "midi": 43,
          "name": "G2",
          "ticks": 198720,
          "time": 267.096654,
          "velocity": 0.6299212598425197
        },
        {
          "duration": 0.30510738958332695,
          "durationTicks": 227,
          "midi": 59,
          "name": "B3",
          "ticks": 198960,
          "time": 267.4192345,
          "velocity": 0.6299212598425197
        },
        {
          "duration": 0.30510738958332695,
          "durationTicks": 227,
          "midi": 64,
          "name": "E4",
          "ticks": 198960,
          "time": 267.4192345,
          "velocity": 0.6299212598425197
        },
        {
          "duration": 0.15188165208331839,
          "durationTicks": 113,
          "midi": 53,
          "name": "F3",
          "ticks": 199200,
          "time": 267.741815,
          "velocity": 0.6299212598425197
        },
        {
          "duration": 0.4583331270833355,
          "durationTicks": 341,
          "midi": 59,
          "name": "B3",
          "ticks": 199320,
          "time": 267.90310525,
          "velocity": 0.6299212598425197
        },
        {
          "duration": 0.4583331270833355,
          "durationTicks": 341,
          "midi": 64,
          "name": "E4",
          "ticks": 199320,
          "time": 267.90310525,
          "velocity": 0.6299212598425197
        },
        {
          "duration": 0.6115588645833441,
          "durationTicks": 455,
          "midi": 48,
          "name": "C3",
          "ticks": 199680,
          "time": 268.386976,
          "velocity": 0.6299212598425197
        },
        {
          "duration": 0.6115588645833441,
          "durationTicks": 455,
          "midi": 48,
          "name": "C3",
          "ticks": 200160,
          "time": 269.032137,
          "velocity": 0.6299212598425197
        },
        {
          "duration": 0.6115588645833441,
          "durationTicks": 455,
          "midi": 48,
          "name": "C3",
          "ticks": 200640,
          "time": 269.677298,
          "velocity": 0.6299212598425197
        },
        {
          "duration": 0.6115588645833441,
          "durationTicks": 455,
          "midi": 48,
          "name": "C3",
          "ticks": 201120,
          "time": 270.322459,
          "velocity": 0.6299212598425197
        },
        {
          "duration": 0.6115588645833441,
          "durationTicks": 455,
          "midi": 47,
          "name": "B2",
          "ticks": 201600,
          "time": 270.96762,
          "velocity": 0.6299212598425197
        },
        {
          "duration": 0.6115588645833441,
          "durationTicks": 455,
          "midi": 47,
          "name": "B2",
          "ticks": 202080,
          "time": 271.612781,
          "velocity": 0.6299212598425197
        },
        {
          "duration": 0.6115588645833441,
          "durationTicks": 455,
          "midi": 51,
          "name": "D#3",
          "ticks": 202560,
          "time": 272.257942,
          "velocity": 0.6299212598425197
        },
        {
          "duration": 0.4583331270833355,
          "durationTicks": 341,
          "midi": 51,
          "name": "D#3",
          "ticks": 203040,
          "time": 272.903103,
          "velocity": 0.6299212598425197
        },
        {
          "duration": 0.07930103958335621,
          "durationTicks": 59,
          "midi": 53,
          "name": "F3",
          "ticks": 203400,
          "time": 273.38697375,
          "velocity": 0.6299212598425197
        },
        {
          "duration": 0.6115588645833441,
          "durationTicks": 455,
          "midi": 52,
          "name": "E3",
          "ticks": 203520,
          "time": 273.548264,
          "velocity": 0.6299212598425197
        },
        {
          "duration": 0.6115588645833441,
          "durationTicks": 455,
          "midi": 52,
          "name": "E3",
          "ticks": 204000,
          "time": 274.193425,
          "velocity": 0.6299212598425197
        },
        {
          "duration": 0.6115588645833441,
          "durationTicks": 455,
          "midi": 52,
          "name": "E3",
          "ticks": 204480,
          "time": 274.838586,
          "velocity": 0.6299212598425197
        },
        {
          "duration": 0.30510738958332695,
          "durationTicks": 227,
          "midi": 52,
          "name": "E3",
          "ticks": 204960,
          "time": 275.483747,
          "velocity": 0.6299212598425197
        },
        {
          "duration": 0.30510738958332695,
          "durationTicks": 227,
          "midi": 51,
          "name": "D#3",
          "ticks": 205200,
          "time": 275.8063275,
          "velocity": 0.6299212598425197
        },
        {
          "duration": 0.6115588645833441,
          "durationTicks": 455,
          "midi": 50,
          "name": "D3",
          "ticks": 205440,
          "time": 276.12890799999997,
          "velocity": 0.6299212598425197
        },
        {
          "duration": 0.6115588645833441,
          "durationTicks": 455,
          "midi": 45,
          "name": "A2",
          "ticks": 205920,
          "time": 276.774069,
          "velocity": 0.6299212598425197
        },
        {
          "duration": 0.4583331270833355,
          "durationTicks": 341,
          "midi": 43,
          "name": "G2",
          "ticks": 206400,
          "time": 277.41922999999997,
          "velocity": 0.6299212598425197
        },
        {
          "duration": 0.07930103958329937,
          "durationTicks": 59,
          "midi": 50,
          "name": "D3",
          "ticks": 206760,
          "time": 277.90310075,
          "velocity": 0.6299212598425197
        },
        {
          "duration": 0.30510738958332695,
          "durationTicks": 227,
          "midi": 43,
          "name": "G2",
          "ticks": 206880,
          "time": 278.064391,
          "velocity": 0.6299212598425197
        },
        {
          "duration": 0.30510738958332695,
          "durationTicks": 227,
          "midi": 50,
          "name": "D3",
          "ticks": 207120,
          "time": 278.3869715,
          "velocity": 0.6299212598425197
        },
        {
          "duration": 0.6115588645833441,
          "durationTicks": 455,
          "midi": 48,
          "name": "C3",
          "ticks": 207360,
          "time": 278.709552,
          "velocity": 0.6299212598425197
        },
        {
          "duration": 0.6115588645833441,
          "durationTicks": 455,
          "midi": 48,
          "name": "C3",
          "ticks": 207840,
          "time": 279.354713,
          "velocity": 0.6299212598425197
        },
        {
          "duration": 0.6115588645833441,
          "durationTicks": 455,
          "midi": 48,
          "name": "C3",
          "ticks": 208320,
          "time": 279.999874,
          "velocity": 0.6299212598425197
        },
        {
          "duration": 0.6115588645833441,
          "durationTicks": 455,
          "midi": 48,
          "name": "C3",
          "ticks": 208800,
          "time": 280.645035,
          "velocity": 0.6299212598425197
        },
        {
          "duration": 0.6115588645833441,
          "durationTicks": 455,
          "midi": 47,
          "name": "B2",
          "ticks": 209280,
          "time": 281.290196,
          "velocity": 0.6299212598425197
        },
        {
          "duration": 0.6115588645833441,
          "durationTicks": 455,
          "midi": 47,
          "name": "B2",
          "ticks": 209760,
          "time": 281.935357,
          "velocity": 0.6299212598425197
        },
        {
          "duration": 0.6115588645833441,
          "durationTicks": 455,
          "midi": 51,
          "name": "D#3",
          "ticks": 210240,
          "time": 282.580518,
          "velocity": 0.6299212598425197
        },
        {
          "duration": 0.4583331270833355,
          "durationTicks": 341,
          "midi": 51,
          "name": "D#3",
          "ticks": 210720,
          "time": 283.225679,
          "velocity": 0.6299212598425197
        },
        {
          "duration": 0.07930103958329937,
          "durationTicks": 59,
          "midi": 53,
          "name": "F3",
          "ticks": 211080,
          "time": 283.70954975,
          "velocity": 0.6299212598425197
        },
        {
          "duration": 0.6115588645833441,
          "durationTicks": 455,
          "midi": 52,
          "name": "E3",
          "ticks": 211200,
          "time": 283.87084,
          "velocity": 0.6299212598425197
        },
        {
          "duration": 0.6115588645833441,
          "durationTicks": 455,
          "midi": 52,
          "name": "E3",
          "ticks": 211680,
          "time": 284.516001,
          "velocity": 0.6299212598425197
        },
        {
          "duration": 0.6115588645833441,
          "durationTicks": 455,
          "midi": 52,
          "name": "E3",
          "ticks": 212160,
          "time": 285.161162,
          "velocity": 0.6299212598425197
        },
        {
          "duration": 0.30510738958332695,
          "durationTicks": 227,
          "midi": 52,
          "name": "E3",
          "ticks": 212640,
          "time": 285.806323,
          "velocity": 0.6299212598425197
        },
        {
          "duration": 0.30510738958332695,
          "durationTicks": 227,
          "midi": 51,
          "name": "D#3",
          "ticks": 212880,
          "time": 286.1289035,
          "velocity": 0.6299212598425197
        },
        {
          "duration": 0.6115588645833441,
          "durationTicks": 455,
          "midi": 50,
          "name": "D3",
          "ticks": 213120,
          "time": 286.451484,
          "velocity": 0.6299212598425197
        },
        {
          "duration": 0.6115588645833441,
          "durationTicks": 455,
          "midi": 45,
          "name": "A2",
          "ticks": 213600,
          "time": 287.09664499999997,
          "velocity": 0.6299212598425197
        },
        {
          "duration": 0.4583331270833355,
          "durationTicks": 341,
          "midi": 43,
          "name": "G2",
          "ticks": 214080,
          "time": 287.741806,
          "velocity": 0.6299212598425197
        },
        {
          "duration": 0.07930103958329937,
          "durationTicks": 59,
          "midi": 50,
          "name": "D3",
          "ticks": 214440,
          "time": 288.22567675,
          "velocity": 0.6299212598425197
        },
        {
          "duration": 0.30510738958332695,
          "durationTicks": 227,
          "midi": 43,
          "name": "G2",
          "ticks": 214560,
          "time": 288.38696699999997,
          "velocity": 0.6299212598425197
        },
        {
          "duration": 0.30510738958332695,
          "durationTicks": 227,
          "midi": 50,
          "name": "D3",
          "ticks": 214800,
          "time": 288.7095475,
          "velocity": 0.6299212598425197
        },
        {
          "duration": 0.6115588645833441,
          "durationTicks": 455,
          "midi": 48,
          "name": "C3",
          "ticks": 215040,
          "time": 289.032128,
          "velocity": 0.6299212598425197
        },
        {
          "duration": 0.6115588645833441,
          "durationTicks": 455,
          "midi": 48,
          "name": "C3",
          "ticks": 215520,
          "time": 289.677289,
          "velocity": 0.6299212598425197
        },
        {
          "duration": 0.6115588645833441,
          "durationTicks": 455,
          "midi": 48,
          "name": "C3",
          "ticks": 216000,
          "time": 290.32245,
          "velocity": 0.6299212598425197
        },
        {
          "duration": 0.6115588645833441,
          "durationTicks": 455,
          "midi": 48,
          "name": "C3",
          "ticks": 216480,
          "time": 290.967611,
          "velocity": 0.6299212598425197
        },
        {
          "duration": 0.6115588645833441,
          "durationTicks": 455,
          "midi": 47,
          "name": "B2",
          "ticks": 216960,
          "time": 291.612772,
          "velocity": 0.6299212598425197
        },
        {
          "duration": 0.6115588645833441,
          "durationTicks": 455,
          "midi": 47,
          "name": "B2",
          "ticks": 217440,
          "time": 292.257933,
          "velocity": 0.6299212598425197
        },
        {
          "duration": 0.6115588645833441,
          "durationTicks": 455,
          "midi": 51,
          "name": "D#3",
          "ticks": 217920,
          "time": 292.903094,
          "velocity": 0.6299212598425197
        },
        {
          "duration": 0.4583331270833355,
          "durationTicks": 341,
          "midi": 51,
          "name": "D#3",
          "ticks": 218400,
          "time": 293.548255,
          "velocity": 0.6299212598425197
        },
        {
          "duration": 0.07930103958335621,
          "durationTicks": 59,
          "midi": 53,
          "name": "F3",
          "ticks": 218760,
          "time": 294.03212575,
          "velocity": 0.6299212598425197
        },
        {
          "duration": 0.6115588645833441,
          "durationTicks": 455,
          "midi": 52,
          "name": "E3",
          "ticks": 218880,
          "time": 294.193416,
          "velocity": 0.6299212598425197
        },
        {
          "duration": 0.6115588645833441,
          "durationTicks": 455,
          "midi": 52,
          "name": "E3",
          "ticks": 219360,
          "time": 294.838577,
          "velocity": 0.6299212598425197
        },
        {
          "duration": 0.6115588645833441,
          "durationTicks": 455,
          "midi": 52,
          "name": "E3",
          "ticks": 219840,
          "time": 295.483738,
          "velocity": 0.6299212598425197
        },
        {
          "duration": 0.30510738958332695,
          "durationTicks": 227,
          "midi": 52,
          "name": "E3",
          "ticks": 220320,
          "time": 296.128899,
          "velocity": 0.6299212598425197
        },
        {
          "duration": 0.30510738958332695,
          "durationTicks": 227,
          "midi": 51,
          "name": "D#3",
          "ticks": 220560,
          "time": 296.4514795,
          "velocity": 0.6299212598425197
        },
        {
          "duration": 0.6115588645833441,
          "durationTicks": 455,
          "midi": 50,
          "name": "D3",
          "ticks": 220800,
          "time": 296.77406,
          "velocity": 0.6299212598425197
        },
        {
          "duration": 0.6115588645833441,
          "durationTicks": 455,
          "midi": 45,
          "name": "A2",
          "ticks": 221280,
          "time": 297.419221,
          "velocity": 0.6299212598425197
        },
        {
          "duration": 0.15188165208337523,
          "durationTicks": 113,
          "midi": 43,
          "name": "G2",
          "ticks": 221760,
          "time": 298.06438199999997,
          "velocity": 0.6299212598425197
        },
        {
          "duration": 0.07930103958329937,
          "durationTicks": 59,
          "midi": 50,
          "name": "D3",
          "ticks": 221880,
          "time": 298.22567225,
          "velocity": 0.6299212598425197
        },
        {
          "duration": 0.30510738958332695,
          "durationTicks": 227,
          "midi": 43,
          "name": "G2",
          "ticks": 222000,
          "time": 298.3869625,
          "velocity": 0.6299212598425197
        },
        {
          "duration": 0.15188165208331839,
          "durationTicks": 113,
          "midi": 43,
          "name": "G2",
          "ticks": 222240,
          "time": 298.709543,
          "velocity": 0.6299212598425197
        },
        {
          "duration": 0.4583331270833355,
          "durationTicks": 341,
          "midi": 50,
          "name": "D3",
          "ticks": 222360,
          "time": 298.87083325,
          "velocity": 0.6299212598425197
        },
        {
          "duration": 0.6115588645833441,
          "durationTicks": 455,
          "midi": 48,
          "name": "C3",
          "ticks": 222720,
          "time": 299.35470399999997,
          "velocity": 0.6299212598425197
        },
        {
          "duration": 0.6115588645833441,
          "durationTicks": 455,
          "midi": 48,
          "name": "C3",
          "ticks": 223200,
          "time": 299.999865,
          "velocity": 0.6299212598425197
        },
        {
          "duration": 0.6115588645833441,
          "durationTicks": 455,
          "midi": 48,
          "name": "C3",
          "ticks": 223680,
          "time": 300.645026,
          "velocity": 0.6299212598425197
        },
        {
          "duration": 0.6115588645833441,
          "durationTicks": 455,
          "midi": 48,
          "name": "C3",
          "ticks": 224160,
          "time": 301.290187,
          "velocity": 0.6299212598425197
        },
        {
          "duration": 0.6115588645833441,
          "durationTicks": 455,
          "midi": 47,
          "name": "B2",
          "ticks": 224640,
          "time": 301.935348,
          "velocity": 0.6299212598425197
        },
        {
          "duration": 0.6115588645833441,
          "durationTicks": 455,
          "midi": 47,
          "name": "B2",
          "ticks": 225120,
          "time": 302.580509,
          "velocity": 0.6299212598425197
        },
        {
          "duration": 0.6115588645833441,
          "durationTicks": 455,
          "midi": 51,
          "name": "D#3",
          "ticks": 225600,
          "time": 303.22567,
          "velocity": 0.6299212598425197
        },
        {
          "duration": 0.4583331270833355,
          "durationTicks": 341,
          "midi": 51,
          "name": "D#3",
          "ticks": 226080,
          "time": 303.870831,
          "velocity": 0.6299212598425197
        },
        {
          "duration": 0.07930103958329937,
          "durationTicks": 59,
          "midi": 53,
          "name": "F3",
          "ticks": 226440,
          "time": 304.35470175,
          "velocity": 0.6299212598425197
        },
        {
          "duration": 0.6115588645833441,
          "durationTicks": 455,
          "midi": 52,
          "name": "E3",
          "ticks": 226560,
          "time": 304.515992,
          "velocity": 0.6299212598425197
        },
        {
          "duration": 0.6115588645833441,
          "durationTicks": 455,
          "midi": 52,
          "name": "E3",
          "ticks": 227040,
          "time": 305.161153,
          "velocity": 0.6299212598425197
        },
        {
          "duration": 0.6115588645833441,
          "durationTicks": 455,
          "midi": 52,
          "name": "E3",
          "ticks": 227520,
          "time": 305.806314,
          "velocity": 0.6299212598425197
        },
        {
          "duration": 0.30510738958332695,
          "durationTicks": 227,
          "midi": 52,
          "name": "E3",
          "ticks": 228000,
          "time": 306.451475,
          "velocity": 0.6299212598425197
        },
        {
          "duration": 0.30510738958332695,
          "durationTicks": 227,
          "midi": 51,
          "name": "D#3",
          "ticks": 228240,
          "time": 306.7740555,
          "velocity": 0.6299212598425197
        },
        {
          "duration": 0.6115588645833441,
          "durationTicks": 455,
          "midi": 50,
          "name": "D3",
          "ticks": 228480,
          "time": 307.096636,
          "velocity": 0.6299212598425197
        },
        {
          "duration": 0.6115588645833441,
          "durationTicks": 455,
          "midi": 45,
          "name": "A2",
          "ticks": 228960,
          "time": 307.741797,
          "velocity": 0.6299212598425197
        },
        {
          "duration": 0.15188165208331839,
          "durationTicks": 113,
          "midi": 43,
          "name": "G2",
          "ticks": 229440,
          "time": 308.386958,
          "velocity": 0.6299212598425197
        },
        {
          "duration": 0.07930103958335621,
          "durationTicks": 59,
          "midi": 50,
          "name": "D3",
          "ticks": 229560,
          "time": 308.54824825,
          "velocity": 0.6299212598425197
        },
        {
          "duration": 0.30510738958332695,
          "durationTicks": 227,
          "midi": 43,
          "name": "G2",
          "ticks": 229680,
          "time": 308.7095385,
          "velocity": 0.6299212598425197
        },
        {
          "duration": 0.15188165208337523,
          "durationTicks": 113,
          "midi": 43,
          "name": "G2",
          "ticks": 229920,
          "time": 309.03211899999997,
          "velocity": 0.6299212598425197
        },
        {
          "duration": 0.4583331270833355,
          "durationTicks": 341,
          "midi": 50,
          "name": "D3",
          "ticks": 230040,
          "time": 309.19340925,
          "velocity": 0.6299212598425197
        },
        {
          "duration": 1.837364764583299,
          "durationTicks": 1367,
          "midi": 36,
          "name": "C2",
          "ticks": 230400,
          "time": 309.67728,
          "velocity": 0.6299212598425197
        },
        {
          "duration": 1.837364764583299,
          "durationTicks": 1367,
          "midi": 48,
          "name": "C3",
          "ticks": 230400,
          "time": 309.67728,
          "velocity": 0.6299212598425197
        },
        {
          "duration": 1.2244618145833215,
          "durationTicks": 911,
          "midi": 35,
          "name": "B1",
          "ticks": 232320,
          "time": 312.257924,
          "velocity": 0.6141732283464567
        },
        {
          "duration": 1.2244618145833215,
          "durationTicks": 911,
          "midi": 47,
          "name": "B2",
          "ticks": 232320,
          "time": 312.257924,
          "velocity": 0.6141732283464567
        },
        {
          "duration": 0.9180103395833044,
          "durationTicks": 683,
          "midi": 39,
          "name": "D#2",
          "ticks": 233280,
          "time": 313.548246,
          "velocity": 0.5984251968503937
        },
        {
          "duration": 0.9180103395833044,
          "durationTicks": 683,
          "midi": 51,
          "name": "D#3",
          "ticks": 233280,
          "time": 313.548246,
          "velocity": 0.5984251968503937
        },
        {
          "duration": 1.837364764583299,
          "durationTicks": 1367,
          "midi": 40,
          "name": "E2",
          "ticks": 234240,
          "time": 314.838568,
          "velocity": 0.5905511811023622
        },
        {
          "duration": 1.837364764583299,
          "durationTicks": 1367,
          "midi": 50,
          "name": "D3",
          "ticks": 234240,
          "time": 314.838568,
          "velocity": 0.5905511811023622
        },
        {
          "duration": 1.2244618145833215,
          "durationTicks": 911,
          "midi": 38,
          "name": "D2",
          "ticks": 236160,
          "time": 317.419212,
          "velocity": 0.5669291338582677
        },
        {
          "duration": 1.2244618145833215,
          "durationTicks": 911,
          "midi": 50,
          "name": "D3",
          "ticks": 236160,
          "time": 317.419212,
          "velocity": 0.5669291338582677
        },
        {
          "duration": 0.9180103395833044,
          "durationTicks": 683,
          "midi": 31,
          "name": "G1",
          "ticks": 237120,
          "time": 318.709534,
          "velocity": 0.5590551181102362
        },
        {
          "duration": 0.9180103395833044,
          "durationTicks": 683,
          "midi": 43,
          "name": "G2",
          "ticks": 237120,
          "time": 318.709534,
          "velocity": 0.5590551181102362
        },
        {
          "duration": 1.8373647645833557,
          "durationTicks": 1367,
          "midi": 36,
          "name": "C2",
          "ticks": 238080,
          "time": 319.99985599999997,
          "velocity": 0.5511811023622047
        },
        {
          "duration": 1.8373647645833557,
          "durationTicks": 1367,
          "midi": 48,
          "name": "C3",
          "ticks": 238080,
          "time": 319.99985599999997,
          "velocity": 0.5511811023622047
        },
        {
          "duration": 1.2244618145833783,
          "durationTicks": 911,
          "midi": 35,
          "name": "B1",
          "ticks": 240000,
          "time": 322.5805,
          "velocity": 0.5275590551181102
        },
        {
          "duration": 1.2244618145833783,
          "durationTicks": 911,
          "midi": 47,
          "name": "B2",
          "ticks": 240000,
          "time": 322.5805,
          "velocity": 0.5275590551181102
        },
        {
          "duration": 1.2244618145833783,
          "durationTicks": 911,
          "midi": 39,
          "name": "D#2",
          "ticks": 240960,
          "time": 323.870822,
          "velocity": 0.5196850393700787
        },
        {
          "duration": 1.2244618145833783,
          "durationTicks": 911,
          "midi": 51,
          "name": "D#3",
          "ticks": 240960,
          "time": 323.870822,
          "velocity": 0.5196850393700787
        },
        {
          "duration": 1.8373647645833557,
          "durationTicks": 1367,
          "midi": 40,
          "name": "E2",
          "ticks": 241920,
          "time": 325.161144,
          "velocity": 0.5039370078740157
        },
        {
          "duration": 1.8373647645833557,
          "durationTicks": 1367,
          "midi": 52,
          "name": "E3",
          "ticks": 241920,
          "time": 325.161144,
          "velocity": 0.5039370078740157
        },
        {
          "duration": 1.2244618145833215,
          "durationTicks": 911,
          "midi": 38,
          "name": "D2",
          "ticks": 243840,
          "time": 327.741788,
          "velocity": 0.4881889763779528
        },
        {
          "duration": 1.2244618145833215,
          "durationTicks": 911,
          "midi": 50,
          "name": "D3",
          "ticks": 243840,
          "time": 327.741788,
          "velocity": 0.4881889763779528
        },
        {
          "duration": 0.9180103395833044,
          "durationTicks": 683,
          "midi": 31,
          "name": "G1",
          "ticks": 244800,
          "time": 329.03211,
          "velocity": 0.47244094488188976
        },
        {
          "duration": 0.9180103395833044,
          "durationTicks": 683,
          "midi": 43,
          "name": "G2",
          "ticks": 244800,
          "time": 329.03211,
          "velocity": 0.47244094488188976
        },
        {
          "duration": 1.8373647645833557,
          "durationTicks": 1367,
          "midi": 36,
          "name": "C2",
          "ticks": 245760,
          "time": 330.322432,
          "velocity": 0.4645669291338583
        },
        {
          "duration": 1.8373647645833557,
          "durationTicks": 1367,
          "midi": 48,
          "name": "C3",
          "ticks": 245760,
          "time": 330.322432,
          "velocity": 0.4645669291338583
        },
        {
          "duration": 1.8373647645833557,
          "durationTicks": 1367,
          "midi": 39,
          "name": "D#2",
          "ticks": 247680,
          "time": 332.903076,
          "velocity": 0.4409448818897638
        },
        {
          "duration": 1.8373647645833557,
          "durationTicks": 1367,
          "midi": 51,
          "name": "D#3",
          "ticks": 247680,
          "time": 332.903076,
          "velocity": 0.4409448818897638
        },
        {
          "duration": 1.8373647645833557,
          "durationTicks": 1367,
          "midi": 40,
          "name": "E2",
          "ticks": 249600,
          "time": 335.48372,
          "velocity": 0.4251968503937008
        },
        {
          "duration": 1.8373647645833557,
          "durationTicks": 1367,
          "midi": 50,
          "name": "D3",
          "ticks": 249600,
          "time": 335.48372,
          "velocity": 0.4251968503937008
        },
        {
          "duration": 1.2244618145833215,
          "durationTicks": 911,
          "midi": 38,
          "name": "D2",
          "ticks": 251520,
          "time": 338.064364,
          "velocity": 0.4015748031496063
        },
        {
          "duration": 1.2244618145833215,
          "durationTicks": 911,
          "midi": 50,
          "name": "D3",
          "ticks": 251520,
          "time": 338.064364,
          "velocity": 0.4015748031496063
        },
        {
          "duration": 3.676073614583288,
          "durationTicks": 2735,
          "midi": 31,
          "name": "G1",
          "ticks": 252480,
          "time": 339.354686,
          "velocity": 0.3858267716535433
        },
        {
          "duration": 3.676073614583288,
          "durationTicks": 2735,
          "midi": 43,
          "name": "G2",
          "ticks": 252480,
          "time": 339.354686,
          "velocity": 0.3858267716535433
        }
      ],
      "endOfTrackTicks": 255216
    }
  ]
}