{
  "header": {
    "keySignatures": [],
    "meta": [],
    "name": "Acoustic Guitar",
    "ppq": 384,
    "tempos": [
      {
        "bpm": 180.00018000018,
        "ticks": 0
      }
    ],
    "timeSignatures": [
      {
        "ticks": 0,
        "timeSignature": [
          4,
          4
        ],
        "measures": 0
      }
    ]
  },
  "tracks": [
    {
      "channel": 0,
      "controlChanges": {},
      "pitchBends": [],
      "instrument": {
        "family": "guitar",
        "number": 27,
        "name": "electric guitar (clean)"
      },
      "name": "Acoustic Guitar",
      "notes": [
        {
          "duration": 0.1666665,
          "durationTicks": 192,
          "midi": 57,
          "name": "A3",
          "ticks": 0,
          "time": 0,
          "velocity": 0.30708661417322836
        },
        {
          "duration": 0.041666625,
          "durationTicks": 48,
          "midi": 45,
          "name": "A2",
          "ticks": 0,
          "time": 0,
          "velocity": 0.1889763779527559
        },
        {
          "duration": 0.1666665,
          "durationTicks": 192,
          "midi": 81,
          "name": "A5",
          "ticks": 0,
          "time": 0,
          "velocity": 0.2125984251968504
        },
        {
          "duration": 0.04166662500000001,
          "durationTicks": 48,
          "midi": 48,
          "name": "C3",
          "ticks": 192,
          "time": 0.1666665,
          "velocity": 0.1732283464566929
        },
        {
          "duration": 0.04166662500000001,
          "durationTicks": 48,
          "midi": 57,
          "name": "A3",
          "ticks": 192,
          "time": 0.1666665,
          "velocity": 0.1732283464566929
        },
        {
          "duration": 0.04166662500000001,
          "durationTicks": 48,
          "midi": 52,
          "name": "E3",
          "ticks": 192,
          "time": 0.1666665,
          "velocity": 0.1732283464566929
        },
        {
          "duration": 0.1666665,
          "durationTicks": 192,
          "midi": 60,
          "name": "C4",
          "ticks": 384,
          "time": 0.333333,
          "velocity": 0.30708661417322836
        },
        {
          "duration": 0.04166662500000001,
          "durationTicks": 48,
          "midi": 45,
          "name": "A2",
          "ticks": 384,
          "time": 0.333333,
          "velocity": 0.1889763779527559
        },
        {
          "duration": 0.1666665,
          "durationTicks": 192,
          "midi": 84,
          "name": "C6",
          "ticks": 384,
          "time": 0.333333,
          "velocity": 0.2125984251968504
        },
        {
          "duration": 0.04166662500000001,
          "durationTicks": 48,
          "midi": 52,
          "name": "E3",
          "ticks": 576,
          "time": 0.4999995,
          "velocity": 0.1732283464566929
        },
        {
          "duration": 0.04166662500000001,
          "durationTicks": 48,
          "midi": 57,
          "name": "A3",
          "ticks": 576,
          "time": 0.4999995,
          "velocity": 0.1732283464566929
        },
        {
          "duration": 0.04166662500000001,
          "durationTicks": 48,
          "midi": 48,
          "name": "C3",
          "ticks": 576,
          "time": 0.4999995,
          "velocity": 0.1732283464566929
        },
        {
          "duration": 0.24999974999999997,
          "durationTicks": 288,
          "midi": 63,
          "name": "D#4",
          "ticks": 768,
          "time": 0.666666,
          "velocity": 0.30708661417322836
        },
        {
          "duration": 0.04166662499999996,
          "durationTicks": 48,
          "midi": 45,
          "name": "A2",
          "ticks": 768,
          "time": 0.666666,
          "velocity": 0.1889763779527559
        },
        {
          "duration": 0.24999974999999997,
          "durationTicks": 288,
          "midi": 87,
          "name": "D#6",
          "ticks": 768,
          "time": 0.666666,
          "velocity": 0.2125984251968504
        },
        {
          "duration": 0.04166662499999996,
          "durationTicks": 48,
          "midi": 52,
          "name": "E3",
          "ticks": 960,
          "time": 0.8333325,
          "velocity": 0.1732283464566929
        },
        {
          "duration": 0.04166662499999996,
          "durationTicks": 48,
          "midi": 57,
          "name": "A3",
          "ticks": 960,
          "time": 0.8333325,
          "velocity": 0.1732283464566929
        },
        {
          "duration": 0.04166662499999996,
          "durationTicks": 48,
          "midi": 48,
          "name": "C3",
          "ticks": 960,
          "time": 0.8333325,
          "velocity": 0.1732283464566929
        },
        {
          "duration": 0.08333325000000003,
          "durationTicks": 96,
          "midi": 64,
          "name": "E4",
          "ticks": 1056,
          "time": 0.91666575,
          "velocity": 0.30708661417322836
        },
        {
          "duration": 0.08333325000000003,
          "durationTicks": 96,
          "midi": 88,
          "name": "E6",
          "ticks": 1056,
          "time": 0.91666575,
          "velocity": 0.2125984251968504
        },
        {
          "duration": 0.04166662500000007,
          "durationTicks": 48,
          "midi": 45,
          "name": "A2",
          "ticks": 1152,
          "time": 0.999999,
          "velocity": 0.1889763779527559
        },
        {
          "duration": 0.08333325000000014,
          "durationTicks": 96,
          "midi": 56,
          "name": "G#3",
          "ticks": 1344,
          "time": 1.1666655,
          "velocity": 0.30708661417322836
        },
        {
          "duration": 0.04166662499999996,
          "durationTicks": 48,
          "midi": 48,
          "name": "C3",
          "ticks": 1344,
          "time": 1.1666655,
          "velocity": 0.1732283464566929
        },
        {
          "duration": 0.04166662499999996,
          "durationTicks": 48,
          "midi": 57,
          "name": "A3",
          "ticks": 1344,
          "time": 1.1666655,
          "velocity": 0.1732283464566929
        },
        {
          "duration": 0.04166662499999996,
          "durationTicks": 48,
          "midi": 52,
          "name": "E3",
          "ticks": 1344,
          "time": 1.1666655,
          "velocity": 0.1732283464566929
        },
        {
          "duration": 0.08333325000000014,
          "durationTicks": 96,
          "midi": 80,
          "name": "G#5",
          "ticks": 1344,
          "time": 1.1666655,
          "velocity": 0.2125984251968504
        },
        {
          "duration": 0.08333324999999991,
          "durationTicks": 96,
          "midi": 57,
          "name": "A3",
          "ticks": 1536,
          "time": 1.333332,
          "velocity": 0.30708661417322836
        },
        {
          "duration": 0.04166662499999996,
          "durationTicks": 48,
          "midi": 48,
          "name": "C3",
          "ticks": 1536,
          "time": 1.333332,
          "velocity": 0.1889763779527559
        },
        {
          "duration": 0.08333324999999991,
          "durationTicks": 96,
          "midi": 81,
          "name": "A5",
          "ticks": 1536,
          "time": 1.333332,
          "velocity": 0.2125984251968504
        },
        {
          "duration": 0.08333324999999991,
          "durationTicks": 96,
          "midi": 60,
          "name": "C4",
          "ticks": 1728,
          "time": 1.4999985,
          "velocity": 0.30708661417322836
        },
        {
          "duration": 0.04166662499999996,
          "durationTicks": 48,
          "midi": 52,
          "name": "E3",
          "ticks": 1728,
          "time": 1.4999985,
          "velocity": 0.1732283464566929
        },
        {
          "duration": 0.04166662499999996,
          "durationTicks": 48,
          "midi": 57,
          "name": "A3",
          "ticks": 1728,
          "time": 1.4999985,
          "velocity": 0.1732283464566929
        },
        {
          "duration": 0.04166662499999996,
          "durationTicks": 48,
          "midi": 55,
          "name": "G3",
          "ticks": 1728,
          "time": 1.4999985,
          "velocity": 0.1732283464566929
        },
        {
          "duration": 0.04166662499999996,
          "durationTicks": 48,
          "midi": 48,
          "name": "C3",
          "ticks": 1728,
          "time": 1.4999985,
          "velocity": 0.1732283464566929
        },
        {
          "duration": 0.08333324999999991,
          "durationTicks": 96,
          "midi": 84,
          "name": "C6",
          "ticks": 1728,
          "time": 1.4999985,
          "velocity": 0.2125984251968504
        },
        {
          "duration": 0.08333324999999991,
          "durationTicks": 96,
          "midi": 62,
          "name": "D4",
          "ticks": 1920,
          "time": 1.666665,
          "velocity": 0.30708661417322836
        },
        {
          "duration": 0.04166662499999996,
          "durationTicks": 48,
          "midi": 48,
          "name": "C3",
          "ticks": 1920,
          "time": 1.666665,
          "velocity": 0.1889763779527559
        },
        {
          "duration": 0.08333324999999991,
          "durationTicks": 96,
          "midi": 86,
          "name": "D6",
          "ticks": 1920,
          "time": 1.666665,
          "velocity": 0.2125984251968504
        },
        {
          "duration": 0.08333325000000014,
          "durationTicks": 96,
          "midi": 60,
          "name": "C4",
          "ticks": 2112,
          "time": 1.8333315,
          "velocity": 0.30708661417322836
        },
        {
          "duration": 0.04166662499999996,
          "durationTicks": 48,
          "midi": 55,
          "name": "G3",
          "ticks": 2112,
          "time": 1.8333315,
          "velocity": 0.1732283464566929
        },
        {
          "duration": 0.04166662499999996,
          "durationTicks": 48,
          "midi": 52,
          "name": "E3",
          "ticks": 2112,
          "time": 1.8333315,
          "velocity": 0.1732283464566929
        },
        {
          "duration": 0.04166662499999996,
          "durationTicks": 48,
          "midi": 57,
          "name": "A3",
          "ticks": 2112,
          "time": 1.8333315,
          "velocity": 0.1732283464566929
        },
        {
          "duration": 0.04166662499999996,
          "durationTicks": 48,
          "midi": 48,
          "name": "C3",
          "ticks": 2112,
          "time": 1.8333315,
          "velocity": 0.1732283464566929
        },
        {
          "duration": 0.08333325000000014,
          "durationTicks": 96,
          "midi": 84,
          "name": "C6",
          "ticks": 2112,
          "time": 1.8333315,
          "velocity": 0.2125984251968504
        },
        {
          "duration": 0.08333325000000014,
          "durationTicks": 96,
          "midi": 63,
          "name": "D#4",
          "ticks": 2304,
          "time": 1.999998,
          "velocity": 0.30708661417322836
        },
        {
          "duration": 0.04166662500000018,
          "durationTicks": 48,
          "midi": 48,
          "name": "C3",
          "ticks": 2304,
          "time": 1.999998,
          "velocity": 0.1889763779527559
        },
        {
          "duration": 0.08333325000000014,
          "durationTicks": 96,
          "midi": 87,
          "name": "D#6",
          "ticks": 2304,
          "time": 1.999998,
          "velocity": 0.2125984251968504
        },
        {
          "duration": 0.08333324999999991,
          "durationTicks": 96,
          "midi": 63,
          "name": "D#4",
          "ticks": 2496,
          "time": 2.1666645,
          "velocity": 0.30708661417322836
        },
        {
          "duration": 0.04166662499999996,
          "durationTicks": 48,
          "midi": 52,
          "name": "E3",
          "ticks": 2496,
          "time": 2.1666645,
          "velocity": 0.1732283464566929
        },
        {
          "duration": 0.04166662499999996,
          "durationTicks": 48,
          "midi": 57,
          "name": "A3",
          "ticks": 2496,
          "time": 2.1666645,
          "velocity": 0.1732283464566929
        },
        {
          "duration": 0.04166662499999996,
          "durationTicks": 48,
          "midi": 55,
          "name": "G3",
          "ticks": 2496,
          "time": 2.1666645,
          "velocity": 0.1732283464566929
        },
        {
          "duration": 0.04166662499999996,
          "durationTicks": 48,
          "midi": 48,
          "name": "C3",
          "ticks": 2496,
          "time": 2.1666645,
          "velocity": 0.1732283464566929
        },
        {
          "duration": 0.08333324999999991,
          "durationTicks": 96,
          "midi": 87,
          "name": "D#6",
          "ticks": 2496,
          "time": 2.1666645,
          "velocity": 0.2125984251968504
        },
        {
          "duration": 0.16666649999999983,
          "durationTicks": 192,
          "midi": 64,
          "name": "E4",
          "ticks": 2592,
          "time": 2.24999775,
          "velocity": 0.30708661417322836
        },
        {
          "duration": 0.16666649999999983,
          "durationTicks": 192,
          "midi": 88,
          "name": "E6",
          "ticks": 2592,
          "time": 2.24999775,
          "velocity": 0.2125984251968504
        },
        {
          "duration": 0.04166662499999996,
          "durationTicks": 48,
          "midi": 48,
          "name": "C3",
          "ticks": 2688,
          "time": 2.333331,
          "velocity": 0.1889763779527559
        },
        {
          "duration": 0.04166662499999996,
          "durationTicks": 48,
          "midi": 55,
          "name": "G3",
          "ticks": 2880,
          "time": 2.4999975,
          "velocity": 0.1732283464566929
        },
        {
          "duration": 0.04166662499999996,
          "durationTicks": 48,
          "midi": 52,
          "name": "E3",
          "ticks": 2880,
          "time": 2.4999975,
          "velocity": 0.1732283464566929
        },
        {
          "duration": 0.04166662499999996,
          "durationTicks": 48,
          "midi": 57,
          "name": "A3",
          "ticks": 2880,
          "time": 2.4999975,
          "velocity": 0.1732283464566929
        },
        {
          "duration": 0.04166662499999996,
          "durationTicks": 48,
          "midi": 48,
          "name": "C3",
          "ticks": 2880,
          "time": 2.4999975,
          "velocity": 0.1732283464566929
        },
        {
          "duration": 0.08333324999999991,
          "durationTicks": 96,
          "midi": 67,
          "name": "G4",
          "ticks": 3072,
          "time": 2.666664,
          "velocity": 0.30708661417322836
        },
        {
          "duration": 0.04166662499999996,
          "durationTicks": 48,
          "midi": 41,
          "name": "F2",
          "ticks": 3072,
          "time": 2.666664,
          "velocity": 0.1889763779527559
        },
        {
          "duration": 0.08333324999999991,
          "durationTicks": 96,
          "midi": 91,
          "name": "G6",
          "ticks": 3072,
          "time": 2.666664,
          "velocity": 0.2125984251968504
        },
        {
          "duration": 0.08333325000000036,
          "durationTicks": 96,
          "midi": 66,
          "name": "F#4",
          "ticks": 3264,
          "time": 2.8333304999999998,
          "velocity": 0.30708661417322836
        },
        {
          "duration": 0.04166662499999996,
          "durationTicks": 48,
          "midi": 51,
          "name": "D#3",
          "ticks": 3264,
          "time": 2.8333304999999998,
          "velocity": 0.1732283464566929
        },
        {
          "duration": 0.04166662499999996,
          "durationTicks": 48,
          "midi": 48,
          "name": "C3",
          "ticks": 3264,
          "time": 2.8333304999999998,
          "velocity": 0.1732283464566929
        },
        {
          "duration": 0.04166662499999996,
          "durationTicks": 48,
          "midi": 53,
          "name": "F3",
          "ticks": 3264,
          "time": 2.8333304999999998,
          "velocity": 0.1732283464566929
        },
        {
          "duration": 0.04166662499999996,
          "durationTicks": 48,
          "midi": 57,
          "name": "A3",
          "ticks": 3264,
          "time": 2.8333304999999998,
          "velocity": 0.1732283464566929
        },
        {
          "duration": 0.08333325000000036,
          "durationTicks": 96,
          "midi": 90,
          "name": "F#6",
          "ticks": 3264,
          "time": 2.8333304999999998,
          "velocity": 0.2125984251968504
        },
        {
          "duration": 0.08333324999999991,
          "durationTicks": 96,
          "midi": 65,
          "name": "F4",
          "ticks": 3456,
          "time": 2.999997,
          "velocity": 0.30708661417322836
        },
        {
          "duration": 0.04166662499999996,
          "durationTicks": 48,
          "midi": 41,
          "name": "F2",
          "ticks": 3456,
          "time": 2.999997,
          "velocity": 0.1889763779527559
        },
        {
          "duration": 0.08333324999999991,
          "durationTicks": 96,
          "midi": 89,
          "name": "F6",
          "ticks": 3456,
          "time": 2.999997,
          "velocity": 0.2125984251968504
        },
        {
          "duration": 0.08333324999999991,
          "durationTicks": 96,
          "midi": 63,
          "name": "D#4",
          "ticks": 3648,
          "time": 3.1666635,
          "velocity": 0.30708661417322836
        },
        {
          "duration": 0.04166662499999996,
          "durationTicks": 48,
          "midi": 51,
          "name": "D#3",
          "ticks": 3648,
          "time": 3.1666635,
          "velocity": 0.1732283464566929
        },
        {
          "duration": 0.04166662499999996,
          "durationTicks": 48,
          "midi": 48,
          "name": "C3",
          "ticks": 3648,
          "time": 3.1666635,
          "velocity": 0.1732283464566929
        },
        {
          "duration": 0.04166662499999996,
          "durationTicks": 48,
          "midi": 53,
          "name": "F3",
          "ticks": 3648,
          "time": 3.1666635,
          "velocity": 0.1732283464566929
        },
        {
          "duration": 0.04166662499999996,
          "durationTicks": 48,
          "midi": 57,
          "name": "A3",
          "ticks": 3648,
          "time": 3.1666635,
          "velocity": 0.1732283464566929
        },
        {
          "duration": 0.08333324999999991,
          "durationTicks": 96,
          "midi": 87,
          "name": "D#6",
          "ticks": 3648,
          "time": 3.1666635,
          "velocity": 0.2125984251968504
        },
        {
          "duration": 0.08333324999999991,
          "durationTicks": 96,
          "midi": 62,
          "name": "D4",
          "ticks": 3840,
          "time": 3.33333,
          "velocity": 0.30708661417322836
        },
        {
          "duration": 0.04166662499999996,
          "durationTicks": 48,
          "midi": 41,
          "name": "F2",
          "ticks": 3840,
          "time": 3.33333,
          "velocity": 0.1889763779527559
        },
        {
          "duration": 0.08333324999999991,
          "durationTicks": 96,
          "midi": 86,
          "name": "D6",
          "ticks": 3840,
          "time": 3.33333,
          "velocity": 0.2125984251968504
        },
        {
          "duration": 0.08333324999999991,
          "durationTicks": 96,
          "midi": 60,
          "name": "C4",
          "ticks": 4032,
          "time": 3.4999965,
          "velocity": 0.30708661417322836
        },
        {
          "duration": 0.04166662499999996,
          "durationTicks": 48,
          "midi": 51,
          "name": "D#3",
          "ticks": 4032,
          "time": 3.4999965,
          "velocity": 0.1732283464566929
        },
        {
          "duration": 0.04166662499999996,
          "durationTicks": 48,
          "midi": 48,
          "name": "C3",
          "ticks": 4032,
          "time": 3.4999965,
          "velocity": 0.1732283464566929
        },
        {
          "duration": 0.04166662499999996,
          "durationTicks": 48,
          "midi": 53,
          "name": "F3",
          "ticks": 4032,
          "time": 3.4999965,
          "velocity": 0.1732283464566929
        },
        {
          "duration": 0.04166662499999996,
          "durationTicks": 48,
          "midi": 57,
          "name": "A3",
          "ticks": 4032,
          "time": 3.4999965,
          "velocity": 0.1732283464566929
        },
        {
          "duration": 0.08333324999999991,
          "durationTicks": 96,
          "midi": 84,
          "name": "C6",
          "ticks": 4032,
          "time": 3.4999965,
          "velocity": 0.2125984251968504
        },
        {
          "duration": 0.08333324999999991,
          "durationTicks": 96,
          "midi": 59,
          "name": "B3",
          "ticks": 4224,
          "time": 3.666663,
          "velocity": 0.30708661417322836
        },
        {
          "duration": 0.04166662499999996,
          "durationTicks": 48,
          "midi": 41,
          "name": "F2",
          "ticks": 4224,
          "time": 3.666663,
          "velocity": 0.1889763779527559
        },
        {
          "duration": 0.08333324999999991,
          "durationTicks": 96,
          "midi": 83,
          "name": "B5",
          "ticks": 4224,
          "time": 3.666663,
          "velocity": 0.2125984251968504
        },
        {
          "duration": 0.16666649999999983,
          "durationTicks": 192,
          "midi": 58,
          "name": "A#3",
          "ticks": 4416,
          "time": 3.8333295,
          "velocity": 0.30708661417322836
        },
        {
          "duration": 0.04166662499999996,
          "durationTicks": 48,
          "midi": 51,
          "name": "D#3",
          "ticks": 4416,
          "time": 3.8333295,
          "velocity": 0.1732283464566929
        },
        {
          "duration": 0.04166662499999996,
          "durationTicks": 48,
          "midi": 48,
          "name": "C3",
          "ticks": 4416,
          "time": 3.8333295,
          "velocity": 0.1732283464566929
        },
        {
          "duration": 0.04166662499999996,
          "durationTicks": 48,
          "midi": 53,
          "name": "F3",
          "ticks": 4416,
          "time": 3.8333295,
          "velocity": 0.1732283464566929
        },
        {
          "duration": 0.04166662499999996,
          "durationTicks": 48,
          "midi": 57,
          "name": "A3",
          "ticks": 4416,
          "time": 3.8333295,
          "velocity": 0.1732283464566929
        },
        {
          "duration": 0.16666649999999983,
          "durationTicks": 192,
          "midi": 82,
          "name": "A#5",
          "ticks": 4416,
          "time": 3.8333295,
          "velocity": 0.2125984251968504
        },
        {
          "duration": 0.08333325000000036,
          "durationTicks": 96,
          "midi": 59,
          "name": "B3",
          "ticks": 4608,
          "time": 3.999996,
          "velocity": 0.30708661417322836
        },
        {
          "duration": 0.04166662499999996,
          "durationTicks": 48,
          "midi": 40,
          "name": "E2",
          "ticks": 4608,
          "time": 3.999996,
          "velocity": 0.1889763779527559
        },
        {
          "duration": 0.08333325000000036,
          "durationTicks": 96,
          "midi": 83,
          "name": "B5",
          "ticks": 4608,
          "time": 3.999996,
          "velocity": 0.2125984251968504
        },
        {
          "duration": 0.08333324999999991,
          "durationTicks": 96,
          "midi": 60,
          "name": "C4",
          "ticks": 4800,
          "time": 4.1666625,
          "velocity": 0.30708661417322836
        },
        {
          "duration": 0.04166662499999951,
          "durationTicks": 48,
          "midi": 56,
          "name": "G#3",
          "ticks": 4800,
          "time": 4.1666625,
          "velocity": 0.1732283464566929
        },
        {
          "duration": 0.04166662499999951,
          "durationTicks": 48,
          "midi": 52,
          "name": "E3",
          "ticks": 4800,
          "time": 4.1666625,
          "velocity": 0.1732283464566929
        },
        {
          "duration": 0.04166662499999951,
          "durationTicks": 48,
          "midi": 47,
          "name": "B2",
          "ticks": 4800,
          "time": 4.1666625,
          "velocity": 0.1732283464566929
        },
        {
          "duration": 0.08333324999999991,
          "durationTicks": 96,
          "midi": 84,
          "name": "C6",
          "ticks": 4800,
          "time": 4.1666625,
          "velocity": 0.2125984251968504
        },
        {
          "duration": 0.16666649999999983,
          "durationTicks": 192,
          "midi": 62,
          "name": "D4",
          "ticks": 4992,
          "time": 4.333329,
          "velocity": 0.30708661417322836
        },
        {
          "duration": 0.04166662499999951,
          "durationTicks": 48,
          "midi": 40,
          "name": "E2",
          "ticks": 4992,
          "time": 4.333329,
          "velocity": 0.1889763779527559
        },
        {
          "duration": 0.16666649999999983,
          "durationTicks": 192,
          "midi": 86,
          "name": "D6",
          "ticks": 4992,
          "time": 4.333329,
          "velocity": 0.2125984251968504
        },
        {
          "duration": 0.08333324999999991,
          "durationTicks": 96,
          "midi": 63,
          "name": "D#4",
          "ticks": 5184,
          "time": 4.4999955,
          "velocity": 0.30708661417322836
        },
        {
          "duration": 0.0416666250000004,
          "durationTicks": 48,
          "midi": 47,
          "name": "B2",
          "ticks": 5184,
          "time": 4.4999955,
          "velocity": 0.1732283464566929
        },
        {
          "duration": 0.0416666250000004,
          "durationTicks": 48,
          "midi": 56,
          "name": "G#3",
          "ticks": 5184,
          "time": 4.4999955,
          "velocity": 0.1732283464566929
        },
        {
          "duration": 0.0416666250000004,
          "durationTicks": 48,
          "midi": 52,
          "name": "E3",
          "ticks": 5184,
          "time": 4.4999955,
          "velocity": 0.1732283464566929
        },
        {
          "duration": 0.08333324999999991,
          "durationTicks": 96,
          "midi": 87,
          "name": "D#6",
          "ticks": 5184,
          "time": 4.4999955,
          "velocity": 0.2125984251968504
        },
        {
          "duration": 0.16666649999999983,
          "durationTicks": 192,
          "midi": 64,
          "name": "E4",
          "ticks": 5376,
          "time": 4.666662,
          "velocity": 0.30708661417322836
        },
        {
          "duration": 0.0416666250000004,
          "durationTicks": 48,
          "midi": 40,
          "name": "E2",
          "ticks": 5376,
          "time": 4.666662,
          "velocity": 0.1889763779527559
        },
        {
          "duration": 0.16666649999999983,
          "durationTicks": 192,
          "midi": 88,
          "name": "E6",
          "ticks": 5376,
          "time": 4.666662,
          "velocity": 0.2125984251968504
        },
        {
          "duration": 0.0416666250000004,
          "durationTicks": 48,
          "midi": 47,
          "name": "B2",
          "ticks": 5568,
          "time": 4.8333284999999995,
          "velocity": 0.1732283464566929
        },
        {
          "duration": 0.0416666250000004,
          "durationTicks": 48,
          "midi": 52,
          "name": "E3",
          "ticks": 5568,
          "time": 4.8333284999999995,
          "velocity": 0.1732283464566929
        },
        {
          "duration": 0.0416666250000004,
          "durationTicks": 48,
          "midi": 56,
          "name": "G#3",
          "ticks": 5568,
          "time": 4.8333284999999995,
          "velocity": 0.1732283464566929
        },
        {
          "duration": 0.20833312499999934,
          "durationTicks": 240,
          "midi": 52,
          "name": "E3",
          "ticks": 5760,
          "time": 4.999995,
          "velocity": 0.30708661417322836
        },
        {
          "duration": 0.04166662499999951,
          "durationTicks": 48,
          "midi": 40,
          "name": "E2",
          "ticks": 5760,
          "time": 4.999995,
          "velocity": 0.1889763779527559
        },
        {
          "duration": 0.33333299999999966,
          "durationTicks": 384,
          "midi": 76,
          "name": "E5",
          "ticks": 5760,
          "time": 4.999995,
          "velocity": 0.2125984251968504
        },
        {
          "duration": 0.16666649999999983,
          "durationTicks": 192,
          "midi": 52,
          "name": "E3",
          "ticks": 5952,
          "time": 5.1666615,
          "velocity": 0.1732283464566929
        },
        {
          "duration": 0.04166662499999951,
          "durationTicks": 48,
          "midi": 56,
          "name": "G#3",
          "ticks": 5952,
          "time": 5.1666615,
          "velocity": 0.1732283464566929
        },
        {
          "duration": 0.04166662499999951,
          "durationTicks": 48,
          "midi": 47,
          "name": "B2",
          "ticks": 5952,
          "time": 5.1666615,
          "velocity": 0.1732283464566929
        },
        {
          "duration": 0.16666649999999983,
          "durationTicks": 192,
          "midi": 57,
          "name": "A3",
          "ticks": 6144,
          "time": 5.333328,
          "velocity": 0.30708661417322836
        },
        {
          "duration": 0.0416666250000004,
          "durationTicks": 48,
          "midi": 45,
          "name": "A2",
          "ticks": 6144,
          "time": 5.333328,
          "velocity": 0.1889763779527559
        },
        {
          "duration": 0.16666649999999983,
          "durationTicks": 192,
          "midi": 81,
          "name": "A5",
          "ticks": 6144,
          "time": 5.333328,
          "velocity": 0.2125984251968504
        },
        {
          "duration": 0.0416666250000004,
          "durationTicks": 48,
          "midi": 48,
          "name": "C3",
          "ticks": 6336,
          "time": 5.4999945,
          "velocity": 0.1732283464566929
        },
        {
          "duration": 0.0416666250000004,
          "durationTicks": 48,
          "midi": 57,
          "name": "A3",
          "ticks": 6336,
          "time": 5.4999945,
          "velocity": 0.1732283464566929
        },
        {
          "duration": 0.0416666250000004,
          "durationTicks": 48,
          "midi": 52,
          "name": "E3",
          "ticks": 6336,
          "time": 5.4999945,
          "velocity": 0.1732283464566929
        },
        {
          "duration": 0.16666650000000072,
          "durationTicks": 192,
          "midi": 60,
          "name": "C4",
          "ticks": 6528,
          "time": 5.6666609999999995,
          "velocity": 0.30708661417322836
        },
        {
          "duration": 0.0416666250000004,
          "durationTicks": 48,
          "midi": 45,
          "name": "A2",
          "ticks": 6528,
          "time": 5.6666609999999995,
          "velocity": 0.1889763779527559
        },
        {
          "duration": 0.16666650000000072,
          "durationTicks": 192,
          "midi": 84,
          "name": "C6",
          "ticks": 6528,
          "time": 5.6666609999999995,
          "velocity": 0.2125984251968504
        },
        {
          "duration": 0.04166662499999951,
          "durationTicks": 48,
          "midi": 52,
          "name": "E3",
          "ticks": 6720,
          "time": 5.8333275,
          "velocity": 0.1732283464566929
        },
        {
          "duration": 0.04166662499999951,
          "durationTicks": 48,
          "midi": 57,
          "name": "A3",
          "ticks": 6720,
          "time": 5.8333275,
          "velocity": 0.1732283464566929
        },
        {
          "duration": 0.04166662499999951,
          "durationTicks": 48,
          "midi": 48,
          "name": "C3",
          "ticks": 6720,
          "time": 5.8333275,
          "velocity": 0.1732283464566929
        },
        {
          "duration": 0.24999974999999974,
          "durationTicks": 288,
          "midi": 63,
          "name": "D#4",
          "ticks": 6912,
          "time": 5.999994,
          "velocity": 0.30708661417322836
        },
        {
          "duration": 0.04166662499999951,
          "durationTicks": 48,
          "midi": 45,
          "name": "A2",
          "ticks": 6912,
          "time": 5.999994,
          "velocity": 0.1889763779527559
        },
        {
          "duration": 0.24999974999999974,
          "durationTicks": 288,
          "midi": 87,
          "name": "D#6",
          "ticks": 6912,
          "time": 5.999994,
          "velocity": 0.2125984251968504
        },
        {
          "duration": 0.04166662499999951,
          "durationTicks": 48,
          "midi": 52,
          "name": "E3",
          "ticks": 7104,
          "time": 6.1666605,
          "velocity": 0.1732283464566929
        },
        {
          "duration": 0.04166662499999951,
          "durationTicks": 48,
          "midi": 57,
          "name": "A3",
          "ticks": 7104,
          "time": 6.1666605,
          "velocity": 0.1732283464566929
        },
        {
          "duration": 0.04166662499999951,
          "durationTicks": 48,
          "midi": 48,
          "name": "C3",
          "ticks": 7104,
          "time": 6.1666605,
          "velocity": 0.1732283464566929
        },
        {
          "duration": 0.08333324999999991,
          "durationTicks": 96,
          "midi": 64,
          "name": "E4",
          "ticks": 7200,
          "time": 6.24999375,
          "velocity": 0.30708661417322836
        },
        {
          "duration": 0.08333324999999991,
          "durationTicks": 96,
          "midi": 88,
          "name": "E6",
          "ticks": 7200,
          "time": 6.24999375,
          "velocity": 0.2125984251968504
        },
        {
          "duration": 0.0416666250000004,
          "durationTicks": 48,
          "midi": 45,
          "name": "A2",
          "ticks": 7296,
          "time": 6.333327,
          "velocity": 0.1889763779527559
        },
        {
          "duration": 0.08333324999999991,
          "durationTicks": 96,
          "midi": 56,
          "name": "G#3",
          "ticks": 7488,
          "time": 6.4999934999999995,
          "velocity": 0.30708661417322836
        },
        {
          "duration": 0.0416666250000004,
          "durationTicks": 48,
          "midi": 48,
          "name": "C3",
          "ticks": 7488,
          "time": 6.4999934999999995,
          "velocity": 0.1732283464566929
        },
        {
          "duration": 0.0416666250000004,
          "durationTicks": 48,
          "midi": 57,
          "name": "A3",
          "ticks": 7488,
          "time": 6.4999934999999995,
          "velocity": 0.1732283464566929
        },
        {
          "duration": 0.0416666250000004,
          "durationTicks": 48,
          "midi": 52,
          "name": "E3",
          "ticks": 7488,
          "time": 6.4999934999999995,
          "velocity": 0.1732283464566929
        },
        {
          "duration": 0.08333324999999991,
          "durationTicks": 96,
          "midi": 80,
          "name": "G#5",
          "ticks": 7488,
          "time": 6.4999934999999995,
          "velocity": 0.2125984251968504
        },
        {
          "duration": 0.08333324999999991,
          "durationTicks": 96,
          "midi": 57,
          "name": "A3",
          "ticks": 7680,
          "time": 6.66666,
          "velocity": 0.30708661417322836
        },
        {
          "duration": 0.04166662499999951,
          "durationTicks": 48,
          "midi": 48,
          "name": "C3",
          "ticks": 7680,
          "time": 6.66666,
          "velocity": 0.1889763779527559
        },
        {
          "duration": 0.08333324999999991,
          "durationTicks": 96,
          "midi": 81,
          "name": "A5",
          "ticks": 7680,
          "time": 6.66666,
          "velocity": 0.2125984251968504
        },
        {
          "duration": 0.08333324999999991,
          "durationTicks": 96,
          "midi": 60,
          "name": "C4",
          "ticks": 7872,
          "time": 6.8333265,
          "velocity": 0.30708661417322836
        },
        {
          "duration": 0.04166662499999951,
          "durationTicks": 48,
          "midi": 52,
          "name": "E3",
          "ticks": 7872,
          "time": 6.8333265,
          "velocity": 0.1732283464566929
        },
        {
          "duration": 0.04166662499999951,
          "durationTicks": 48,
          "midi": 57,
          "name": "A3",
          "ticks": 7872,
          "time": 6.8333265,
          "velocity": 0.1732283464566929
        },
        {
          "duration": 0.04166662499999951,
          "durationTicks": 48,
          "midi": 55,
          "name": "G3",
          "ticks": 7872,
          "time": 6.8333265,
          "velocity": 0.1732283464566929
        },
        {
          "duration": 0.04166662499999951,
          "durationTicks": 48,
          "midi": 48,
          "name": "C3",
          "ticks": 7872,
          "time": 6.8333265,
          "velocity": 0.1732283464566929
        },
        {
          "duration": 0.08333324999999991,
          "durationTicks": 96,
          "midi": 84,
          "name": "C6",
          "ticks": 7872,
          "time": 6.8333265,
          "velocity": 0.2125984251968504
        },
        {
          "duration": 0.08333324999999991,
          "durationTicks": 96,
          "midi": 62,
          "name": "D4",
          "ticks": 8064,
          "time": 6.999993,
          "velocity": 0.30708661417322836
        },
        {
          "duration": 0.04166662499999951,
          "durationTicks": 48,
          "midi": 48,
          "name": "C3",
          "ticks": 8064,
          "time": 6.999993,
          "velocity": 0.1889763779527559
        },
        {
          "duration": 0.08333324999999991,
          "durationTicks": 96,
          "midi": 86,
          "name": "D6",
          "ticks": 8064,
          "time": 6.999993,
          "velocity": 0.2125984251968504
        },
        {
          "duration": 0.08333324999999991,
          "durationTicks": 96,
          "midi": 60,
          "name": "C4",
          "ticks": 8256,
          "time": 7.1666595,
          "velocity": 0.30708661417322836
        },
        {
          "duration": 0.0416666250000004,
          "durationTicks": 48,
          "midi": 55,
          "name": "G3",
          "ticks": 8256,
          "time": 7.1666595,
          "velocity": 0.1732283464566929
        },
        {
          "duration": 0.0416666250000004,
          "durationTicks": 48,
          "midi": 52,
          "name": "E3",
          "ticks": 8256,
          "time": 7.1666595,
          "velocity": 0.1732283464566929
        },
        {
          "duration": 0.0416666250000004,
          "durationTicks": 48,
          "midi": 57,
          "name": "A3",
          "ticks": 8256,
          "time": 7.1666595,
          "velocity": 0.1732283464566929
        },
        {
          "duration": 0.0416666250000004,
          "durationTicks": 48,
          "midi": 48,
          "name": "C3",
          "ticks": 8256,
          "time": 7.1666595,
          "velocity": 0.1732283464566929
        },
        {
          "duration": 0.08333324999999991,
          "durationTicks": 96,
          "midi": 84,
          "name": "C6",
          "ticks": 8256,
          "time": 7.1666595,
          "velocity": 0.2125984251968504
        },
        {
          "duration": 0.08333324999999991,
          "durationTicks": 96,
          "midi": 63,
          "name": "D#4",
          "ticks": 8448,
          "time": 7.333326,
          "velocity": 0.30708661417322836
        },
        {
          "duration": 0.0416666250000004,
          "durationTicks": 48,
          "midi": 48,
          "name": "C3",
          "ticks": 8448,
          "time": 7.333326,
          "velocity": 0.1889763779527559
        },
        {
          "duration": 0.08333324999999991,
          "durationTicks": 96,
          "midi": 87,
          "name": "D#6",
          "ticks": 8448,
          "time": 7.333326,
          "velocity": 0.2125984251968504
        },
        {
          "duration": 0.0833332500000008,
          "durationTicks": 96,
          "midi": 63,
          "name": "D#4",
          "ticks": 8640,
          "time": 7.499992499999999,
          "velocity": 0.30708661417322836
        },
        {
          "duration": 0.0416666250000004,
          "durationTicks": 48,
          "midi": 52,
          "name": "E3",
          "ticks": 8640,
          "time": 7.499992499999999,
          "velocity": 0.1732283464566929
        },
        {
          "duration": 0.0416666250000004,
          "durationTicks": 48,
          "midi": 57,
          "name": "A3",
          "ticks": 8640,
          "time": 7.499992499999999,
          "velocity": 0.1732283464566929
        },
        {
          "duration": 0.0416666250000004,
          "durationTicks": 48,
          "midi": 55,
          "name": "G3",
          "ticks": 8640,
          "time": 7.499992499999999,
          "velocity": 0.1732283464566929
        },
        {
          "duration": 0.0416666250000004,
          "durationTicks": 48,
          "midi": 48,
          "name": "C3",
          "ticks": 8640,
          "time": 7.499992499999999,
          "velocity": 0.1732283464566929
        },
        {
          "duration": 0.0833332500000008,
          "durationTicks": 96,
          "midi": 87,
          "name": "D#6",
          "ticks": 8640,
          "time": 7.499992499999999,
          "velocity": 0.2125984251968504
        },
        {
          "duration": 0.16666649999999983,
          "durationTicks": 192,
          "midi": 64,
          "name": "E4",
          "ticks": 8736,
          "time": 7.58332575,
          "velocity": 0.30708661417322836
        },
        {
          "duration": 0.16666649999999983,
          "durationTicks": 192,
          "midi": 88,
          "name": "E6",
          "ticks": 8736,
          "time": 7.58332575,
          "velocity": 0.2125984251968504
        },
        {
          "duration": 0.04166662499999951,
          "durationTicks": 48,
          "midi": 48,
          "name": "C3",
          "ticks": 8832,
          "time": 7.666659,
          "velocity": 0.1889763779527559
        },
        {
          "duration": 0.04166662499999951,
          "durationTicks": 48,
          "midi": 55,
          "name": "G3",
          "ticks": 9024,
          "time": 7.8333255,
          "velocity": 0.1732283464566929
        },
        {
          "duration": 0.04166662499999951,
          "durationTicks": 48,
          "midi": 52,
          "name": "E3",
          "ticks": 9024,
          "time": 7.8333255,
          "velocity": 0.1732283464566929
        },
        {
          "duration": 0.04166662499999951,
          "durationTicks": 48,
          "midi": 57,
          "name": "A3",
          "ticks": 9024,
          "time": 7.8333255,
          "velocity": 0.1732283464566929
        },
        {
          "duration": 0.04166662499999951,
          "durationTicks": 48,
          "midi": 48,
          "name": "C3",
          "ticks": 9024,
          "time": 7.8333255,
          "velocity": 0.1732283464566929
        },
        {
          "duration": 0.08333324999999991,
          "durationTicks": 96,
          "midi": 67,
          "name": "G4",
          "ticks": 9216,
          "time": 7.999992,
          "velocity": 0.30708661417322836
        },
        {
          "duration": 0.0416666250000004,
          "durationTicks": 48,
          "midi": 41,
          "name": "F2",
          "ticks": 9216,
          "time": 7.999992,
          "velocity": 0.1889763779527559
        },
        {
          "duration": 0.0416666250000004,
          "durationTicks": 48,
          "midi": 65,
          "name": "F4",
          "ticks": 9216,
          "time": 7.999992,
          "velocity": 0.05511811023622047
        },
        {
          "duration": 0.0416666250000004,
          "durationTicks": 48,
          "midi": 29,
          "name": "F1",
          "ticks": 9216,
          "time": 7.999992,
          "velocity": 0.2283464566929134
        },
        {
          "duration": 0.08333324999999991,
          "durationTicks": 96,
          "midi": 91,
          "name": "G6",
          "ticks": 9216,
          "time": 7.999992,
          "velocity": 0.2125984251968504
        },
        {
          "duration": 0.08333324999999903,
          "durationTicks": 96,
          "midi": 66,
          "name": "F#4",
          "ticks": 9408,
          "time": 8.1666585,
          "velocity": 0.30708661417322836
        },
        {
          "duration": 0.04166662499999951,
          "durationTicks": 48,
          "midi": 64,
          "name": "E4",
          "ticks": 9408,
          "time": 8.1666585,
          "velocity": 0.07086614173228346
        },
        {
          "duration": 0.04166662499999951,
          "durationTicks": 48,
          "midi": 41,
          "name": "F2",
          "ticks": 9408,
          "time": 8.1666585,
          "velocity": 0.07086614173228346
        },
        {
          "duration": 0.04166662499999951,
          "durationTicks": 48,
          "midi": 51,
          "name": "D#3",
          "ticks": 9408,
          "time": 8.1666585,
          "velocity": 0.1732283464566929
        },
        {
          "duration": 0.04166662499999951,
          "durationTicks": 48,
          "midi": 48,
          "name": "C3",
          "ticks": 9408,
          "time": 8.1666585,
          "velocity": 0.1732283464566929
        },
        {
          "duration": 0.04166662499999951,
          "durationTicks": 48,
          "midi": 53,
          "name": "F3",
          "ticks": 9408,
          "time": 8.1666585,
          "velocity": 0.1732283464566929
        },
        {
          "duration": 0.04166662499999951,
          "durationTicks": 48,
          "midi": 57,
          "name": "A3",
          "ticks": 9408,
          "time": 8.1666585,
          "velocity": 0.1732283464566929
        },
        {
          "duration": 0.08333324999999903,
          "durationTicks": 96,
          "midi": 90,
          "name": "F#6",
          "ticks": 9408,
          "time": 8.1666585,
          "velocity": 0.2125984251968504
        },
        {
          "duration": 0.04166662499999951,
          "durationTicks": 48,
          "midi": 29,
          "name": "F1",
          "ticks": 9504,
          "time": 8.24999175,
          "velocity": 0.23622047244094488
        },
        {
          "duration": 0.04166662499999951,
          "durationTicks": 48,
          "midi": 63,
          "name": "D#4",
          "ticks": 9504,
          "time": 8.24999175,
          "velocity": 0.07086614173228346
        },
        {
          "duration": 0.08333324999999903,
          "durationTicks": 96,
          "midi": 65,
          "name": "F4",
          "ticks": 9600,
          "time": 8.333325,
          "velocity": 0.30708661417322836
        },
        {
          "duration": 0.04166662499999951,
          "durationTicks": 48,
          "midi": 41,
          "name": "F2",
          "ticks": 9600,
          "time": 8.333325,
          "velocity": 0.1889763779527559
        },
        {
          "duration": 0.04166662499999951,
          "durationTicks": 48,
          "midi": 62,
          "name": "D4",
          "ticks": 9600,
          "time": 8.333325,
          "velocity": 0.07874015748031496
        },
        {
          "duration": 0.04166662499999951,
          "durationTicks": 48,
          "midi": 29,
          "name": "F1",
          "ticks": 9600,
          "time": 8.333325,
          "velocity": 0.2440944881889764
        },
        {
          "duration": 0.08333324999999903,
          "durationTicks": 96,
          "midi": 89,
          "name": "F6",
          "ticks": 9600,
          "time": 8.333325,
          "velocity": 0.2125984251968504
        },
        {
          "duration": 0.08333324999999903,
          "durationTicks": 96,
          "midi": 63,
          "name": "D#4",
          "ticks": 9792,
          "time": 8.4999915,
          "velocity": 0.30708661417322836
        },
        {
          "duration": 0.04166662499999951,
          "durationTicks": 48,
          "midi": 60,
          "name": "C4",
          "ticks": 9792,
          "time": 8.4999915,
          "velocity": 0.09448818897637795
        },
        {
          "duration": 0.04166662499999951,
          "durationTicks": 48,
          "midi": 41,
          "name": "F2",
          "ticks": 9792,
          "time": 8.4999915,
          "velocity": 0.09448818897637795
        },
        {
          "duration": 0.04166662499999951,
          "durationTicks": 48,
          "midi": 51,
          "name": "D#3",
          "ticks": 9792,
          "time": 8.4999915,
          "velocity": 0.1732283464566929
        },
        {
          "duration": 0.04166662499999951,
          "durationTicks": 48,
          "midi": 48,
          "name": "C3",
          "ticks": 9792,
          "time": 8.4999915,
          "velocity": 0.1732283464566929
        },
        {
          "duration": 0.04166662499999951,
          "durationTicks": 48,
          "midi": 53,
          "name": "F3",
          "ticks": 9792,
          "time": 8.4999915,
          "velocity": 0.1732283464566929
        },
        {
          "duration": 0.04166662499999951,
          "durationTicks": 48,
          "midi": 57,
          "name": "A3",
          "ticks": 9792,
          "time": 8.4999915,
          "velocity": 0.1732283464566929
        },
        {
          "duration": 0.08333324999999903,
          "durationTicks": 96,
          "midi": 87,
          "name": "D#6",
          "ticks": 9792,
          "time": 8.4999915,
          "velocity": 0.2125984251968504
        },
        {
          "duration": 0.08333324999999903,
          "durationTicks": 96,
          "midi": 64,
          "name": "E4",
          "ticks": 9984,
          "time": 8.666658,
          "velocity": 0.30708661417322836
        },
        {
          "duration": 0.04166662499999951,
          "durationTicks": 48,
          "midi": 41,
          "name": "F2",
          "ticks": 9984,
          "time": 8.666658,
          "velocity": 0.1889763779527559
        },
        {
          "duration": 0.04166662499999951,
          "durationTicks": 48,
          "midi": 59,
          "name": "B3",
          "ticks": 9984,
          "time": 8.666658,
          "velocity": 0.10236220472440945
        },
        {
          "duration": 0.04166662499999951,
          "durationTicks": 48,
          "midi": 29,
          "name": "F1",
          "ticks": 9984,
          "time": 8.666658,
          "velocity": 0.25196850393700787
        },
        {
          "duration": 0.08333324999999903,
          "durationTicks": 96,
          "midi": 88,
          "name": "E6",
          "ticks": 9984,
          "time": 8.666658,
          "velocity": 0.2125984251968504
        },
        {
          "duration": 0.04166662500000129,
          "durationTicks": 48,
          "midi": 41,
          "name": "F2",
          "ticks": 10080,
          "time": 8.749991249999999,
          "velocity": 0.11023622047244094
        },
        {
          "duration": 0.04166662500000129,
          "durationTicks": 48,
          "midi": 58,
          "name": "A#3",
          "ticks": 10080,
          "time": 8.749991249999999,
          "velocity": 0.11023622047244094
        },
        {
          "duration": 0.0833332500000008,
          "durationTicks": 96,
          "midi": 65,
          "name": "F4",
          "ticks": 10176,
          "time": 8.8333245,
          "velocity": 0.30708661417322836
        },
        {
          "duration": 0.04166662499999951,
          "durationTicks": 48,
          "midi": 57,
          "name": "A3",
          "ticks": 10176,
          "time": 8.8333245,
          "velocity": 0.11811023622047244
        },
        {
          "duration": 0.04166662499999951,
          "durationTicks": 48,
          "midi": 29,
          "name": "F1",
          "ticks": 10176,
          "time": 8.8333245,
          "velocity": 0.25984251968503935
        },
        {
          "duration": 0.04166662499999951,
          "durationTicks": 48,
          "midi": 51,
          "name": "D#3",
          "ticks": 10176,
          "time": 8.8333245,
          "velocity": 0.1732283464566929
        },
        {
          "duration": 0.04166662499999951,
          "durationTicks": 48,
          "midi": 48,
          "name": "C3",
          "ticks": 10176,
          "time": 8.8333245,
          "velocity": 0.1732283464566929
        },
        {
          "duration": 0.04166662499999951,
          "durationTicks": 48,
          "midi": 53,
          "name": "F3",
          "ticks": 10176,
          "time": 8.8333245,
          "velocity": 0.1732283464566929
        },
        {
          "duration": 0.04166662499999951,
          "durationTicks": 48,
          "midi": 57,
          "name": "A3",
          "ticks": 10176,
          "time": 8.8333245,
          "velocity": 0.1732283464566929
        },
        {
          "duration": 0.0833332500000008,
          "durationTicks": 96,
          "midi": 89,
          "name": "F6",
          "ticks": 10176,
          "time": 8.8333245,
          "velocity": 0.2125984251968504
        },
        {
          "duration": 0.04166662499999951,
          "durationTicks": 48,
          "midi": 41,
          "name": "F2",
          "ticks": 10272,
          "time": 8.91665775,
          "velocity": 0.12598425196850394
        },
        {
          "duration": 0.04166662499999951,
          "durationTicks": 48,
          "midi": 56,
          "name": "G#3",
          "ticks": 10272,
          "time": 8.91665775,
          "velocity": 0.12598425196850394
        },
        {
          "duration": 0.0833332500000008,
          "durationTicks": 96,
          "midi": 66,
          "name": "F#4",
          "ticks": 10368,
          "time": 8.999991,
          "velocity": 0.30708661417322836
        },
        {
          "duration": 0.04166662499999951,
          "durationTicks": 48,
          "midi": 41,
          "name": "F2",
          "ticks": 10368,
          "time": 8.999991,
          "velocity": 0.1889763779527559
        },
        {
          "duration": 0.04166662499999951,
          "durationTicks": 48,
          "midi": 55,
          "name": "G3",
          "ticks": 10368,
          "time": 8.999991,
          "velocity": 0.12598425196850394
        },
        {
          "duration": 0.04166662499999951,
          "durationTicks": 48,
          "midi": 29,
          "name": "F1",
          "ticks": 10368,
          "time": 8.999991,
          "velocity": 0.2677165354330709
        },
        {
          "duration": 0.0833332500000008,
          "durationTicks": 96,
          "midi": 90,
          "name": "F#6",
          "ticks": 10368,
          "time": 8.999991,
          "velocity": 0.2125984251968504
        },
        {
          "duration": 0.0833332500000008,
          "durationTicks": 96,
          "midi": 67,
          "name": "G4",
          "ticks": 10560,
          "time": 9.1666575,
          "velocity": 0.30708661417322836
        },
        {
          "duration": 0.04166662499999951,
          "durationTicks": 48,
          "midi": 53,
          "name": "F3",
          "ticks": 10560,
          "time": 9.1666575,
          "velocity": 0.14173228346456693
        },
        {
          "duration": 0.04166662499999951,
          "durationTicks": 48,
          "midi": 29,
          "name": "F1",
          "ticks": 10560,
          "time": 9.1666575,
          "velocity": 0.2755905511811024
        },
        {
          "duration": 0.04166662499999951,
          "durationTicks": 48,
          "midi": 51,
          "name": "D#3",
          "ticks": 10560,
          "time": 9.1666575,
          "velocity": 0.1732283464566929
        },
        {
          "duration": 0.04166662499999951,
          "durationTicks": 48,
          "midi": 48,
          "name": "C3",
          "ticks": 10560,
          "time": 9.1666575,
          "velocity": 0.1732283464566929
        },
        {
          "duration": 0.04166662499999951,
          "durationTicks": 48,
          "midi": 53,
          "name": "F3",
          "ticks": 10560,
          "time": 9.1666575,
          "velocity": 0.1732283464566929
        },
        {
          "duration": 0.04166662499999951,
          "durationTicks": 48,
          "midi": 57,
          "name": "A3",
          "ticks": 10560,
          "time": 9.1666575,
          "velocity": 0.1732283464566929
        },
        {
          "duration": 0.0833332500000008,
          "durationTicks": 96,
          "midi": 91,
          "name": "G6",
          "ticks": 10560,
          "time": 9.1666575,
          "velocity": 0.2125984251968504
        },
        {
          "duration": 0.0833332500000008,
          "durationTicks": 96,
          "midi": 68,
          "name": "G#4",
          "ticks": 10752,
          "time": 9.333324,
          "velocity": 0.30708661417322836
        },
        {
          "duration": 0.04166662500000129,
          "durationTicks": 48,
          "midi": 40,
          "name": "E2",
          "ticks": 10752,
          "time": 9.333324,
          "velocity": 0.1889763779527559
        },
        {
          "duration": 0.04166662500000129,
          "durationTicks": 48,
          "midi": 28,
          "name": "E1",
          "ticks": 10752,
          "time": 9.333324,
          "velocity": 0.2755905511811024
        },
        {
          "duration": 0.04166662500000129,
          "durationTicks": 48,
          "midi": 52,
          "name": "E3",
          "ticks": 10752,
          "time": 9.333324,
          "velocity": 0.15748031496062992
        },
        {
          "duration": 0.0833332500000008,
          "durationTicks": 96,
          "midi": 92,
          "name": "G#6",
          "ticks": 10752,
          "time": 9.333324,
          "velocity": 0.2125984251968504
        },
        {
          "duration": 0.04166662499999951,
          "durationTicks": 48,
          "midi": 51,
          "name": "D#3",
          "ticks": 10848,
          "time": 9.41665725,
          "velocity": 0.16535433070866143
        },
        {
          "duration": 0.0833332500000008,
          "durationTicks": 96,
          "midi": 68,
          "name": "G#4",
          "ticks": 10944,
          "time": 9.4999905,
          "velocity": 0.30708661417322836
        },
        {
          "duration": 0.04166662500000129,
          "durationTicks": 48,
          "midi": 40,
          "name": "E2",
          "ticks": 10944,
          "time": 9.4999905,
          "velocity": 0.28346456692913385
        },
        {
          "duration": 0.04166662500000129,
          "durationTicks": 48,
          "midi": 50,
          "name": "D3",
          "ticks": 10944,
          "time": 9.4999905,
          "velocity": 0.1732283464566929
        },
        {
          "duration": 0.04166662500000129,
          "durationTicks": 48,
          "midi": 47,
          "name": "B2",
          "ticks": 10944,
          "time": 9.4999905,
          "velocity": 0.1732283464566929
        },
        {
          "duration": 0.04166662500000129,
          "durationTicks": 48,
          "midi": 52,
          "name": "E3",
          "ticks": 10944,
          "time": 9.4999905,
          "velocity": 0.1732283464566929
        },
        {
          "duration": 0.04166662500000129,
          "durationTicks": 48,
          "midi": 56,
          "name": "G#3",
          "ticks": 10944,
          "time": 9.4999905,
          "velocity": 0.1732283464566929
        },
        {
          "duration": 0.0833332500000008,
          "durationTicks": 96,
          "midi": 92,
          "name": "G#6",
          "ticks": 10944,
          "time": 9.4999905,
          "velocity": 0.2125984251968504
        },
        {
          "duration": 0.04166662499999951,
          "durationTicks": 48,
          "midi": 28,
          "name": "E1",
          "ticks": 11040,
          "time": 9.58332375,
          "velocity": 0.29133858267716534
        },
        {
          "duration": 0.04166662499999951,
          "durationTicks": 48,
          "midi": 49,
          "name": "C#3",
          "ticks": 11040,
          "time": 9.58332375,
          "velocity": 0.1732283464566929
        },
        {
          "duration": 0.0833332500000008,
          "durationTicks": 96,
          "midi": 69,
          "name": "A4",
          "ticks": 11136,
          "time": 9.666656999999999,
          "velocity": 0.30708661417322836
        },
        {
          "duration": 0.04166662500000129,
          "durationTicks": 48,
          "midi": 40,
          "name": "E2",
          "ticks": 11136,
          "time": 9.666656999999999,
          "velocity": 0.1889763779527559
        },
        {
          "duration": 0.04166662500000129,
          "durationTicks": 48,
          "midi": 28,
          "name": "E1",
          "ticks": 11136,
          "time": 9.666656999999999,
          "velocity": 0.29133858267716534
        },
        {
          "duration": 0.04166662500000129,
          "durationTicks": 48,
          "midi": 48,
          "name": "C3",
          "ticks": 11136,
          "time": 9.666656999999999,
          "velocity": 0.18110236220472442
        },
        {
          "duration": 0.0833332500000008,
          "durationTicks": 96,
          "midi": 93,
          "name": "A6",
          "ticks": 11136,
          "time": 9.666656999999999,
          "velocity": 0.2125984251968504
        },
        {
          "duration": 0.04166662499999951,
          "durationTicks": 48,
          "midi": 47,
          "name": "B2",
          "ticks": 11232,
          "time": 9.74999025,
          "velocity": 0.1889763779527559
        },
        {
          "duration": 0.08333324999999903,
          "durationTicks": 96,
          "midi": 69,
          "name": "A4",
          "ticks": 11328,
          "time": 9.8333235,
          "velocity": 0.30708661417322836
        },
        {
          "duration": 0.04166662499999951,
          "durationTicks": 48,
          "midi": 40,
          "name": "E2",
          "ticks": 11328,
          "time": 9.8333235,
          "velocity": 0.2992125984251969
        },
        {
          "duration": 0.04166662499999951,
          "durationTicks": 48,
          "midi": 46,
          "name": "A#2",
          "ticks": 11328,
          "time": 9.8333235,
          "velocity": 0.1968503937007874
        },
        {
          "duration": 0.04166662499999951,
          "durationTicks": 48,
          "midi": 52,
          "name": "E3",
          "ticks": 11328,
          "time": 9.8333235,
          "velocity": 0.1732283464566929
        },
        {
          "duration": 0.04166662499999951,
          "durationTicks": 48,
          "midi": 56,
          "name": "G#3",
          "ticks": 11328,
          "time": 9.8333235,
          "velocity": 0.1732283464566929
        },
        {
          "duration": 0.04166662499999951,
          "durationTicks": 48,
          "midi": 47,
          "name": "B2",
          "ticks": 11328,
          "time": 9.8333235,
          "velocity": 0.1732283464566929
        },
        {
          "duration": 0.08333324999999903,
          "durationTicks": 96,
          "midi": 93,
          "name": "A6",
          "ticks": 11328,
          "time": 9.8333235,
          "velocity": 0.2125984251968504
        },
        {
          "duration": 0.04166662499999951,
          "durationTicks": 48,
          "midi": 45,
          "name": "A2",
          "ticks": 11424,
          "time": 9.91665675,
          "velocity": 0.1968503937007874
        },
        {
          "duration": 0.33333299999999966,
          "durationTicks": 384,
          "midi": 71,
          "name": "B4",
          "ticks": 11520,
          "time": 9.99999,
          "velocity": 0.30708661417322836
        },
        {
          "duration": 0.04166662499999951,
          "durationTicks": 48,
          "midi": 40,
          "name": "E2",
          "ticks": 11520,
          "time": 9.99999,
          "velocity": 0.1889763779527559
        },
        {
          "duration": 0.04166662499999951,
          "durationTicks": 48,
          "midi": 44,
          "name": "G#2",
          "ticks": 11520,
          "time": 9.99999,
          "velocity": 0.2047244094488189
        },
        {
          "duration": 0.33333299999999966,
          "durationTicks": 384,
          "midi": 40,
          "name": "E2",
          "ticks": 11520,
          "time": 9.99999,
          "velocity": 0.2992125984251969
        },
        {
          "duration": 0.33333299999999966,
          "durationTicks": 384,
          "midi": 28,
          "name": "E1",
          "ticks": 11520,
          "time": 9.99999,
          "velocity": 0.2992125984251969
        },
        {
          "duration": 0.33333299999999966,
          "durationTicks": 384,
          "midi": 95,
          "name": "B6",
          "ticks": 11520,
          "time": 9.99999,
          "velocity": 0.2125984251968504
        },
        {
          "duration": 0.04166662499999951,
          "durationTicks": 48,
          "midi": 43,
          "name": "G2",
          "ticks": 11616,
          "time": 10.08332325,
          "velocity": 0.2125984251968504
        },
        {
          "duration": 0.04166662499999951,
          "durationTicks": 48,
          "midi": 42,
          "name": "F#2",
          "ticks": 11712,
          "time": 10.1666565,
          "velocity": 0.2204724409448819
        },
        {
          "duration": 0.04166662499999951,
          "durationTicks": 48,
          "midi": 56,
          "name": "G#3",
          "ticks": 11712,
          "time": 10.1666565,
          "velocity": 0.1732283464566929
        },
        {
          "duration": 0.04166662499999951,
          "durationTicks": 48,
          "midi": 52,
          "name": "E3",
          "ticks": 11712,
          "time": 10.1666565,
          "velocity": 0.1732283464566929
        },
        {
          "duration": 0.04166662499999951,
          "durationTicks": 48,
          "midi": 47,
          "name": "B2",
          "ticks": 11712,
          "time": 10.1666565,
          "velocity": 0.1732283464566929
        },
        {
          "duration": 0.04166662500000129,
          "durationTicks": 48,
          "midi": 41,
          "name": "F2",
          "ticks": 11808,
          "time": 10.24998975,
          "velocity": 0.2283464566929134
        },
        {
          "duration": 0.013888874999999246,
          "durationTicks": 16,
          "midi": 40,
          "name": "E2",
          "ticks": 11904,
          "time": 10.333323,
          "velocity": 0.25196850393700787
        },
        {
          "duration": 0.04166662499999951,
          "durationTicks": 48,
          "midi": 52,
          "name": "E3",
          "ticks": 11904,
          "time": 10.333323,
          "velocity": 0.2992125984251969
        },
        {
          "duration": 0.04166662499999951,
          "durationTicks": 48,
          "midi": 40,
          "name": "E2",
          "ticks": 11904,
          "time": 10.333323,
          "velocity": 0.2992125984251969
        },
        {
          "duration": 0.01041665625000121,
          "durationTicks": 12,
          "midi": 39,
          "name": "D#2",
          "ticks": 11920,
          "time": 10.347211875,
          "velocity": 0.2440944881889764
        },
        {
          "duration": 0.013888874999999246,
          "durationTicks": 16,
          "midi": 38,
          "name": "D2",
          "ticks": 11932,
          "time": 10.35762853125,
          "velocity": 0.2283464566929134
        },
        {
          "duration": 0.013888874999999246,
          "durationTicks": 16,
          "midi": 37,
          "name": "C#2",
          "ticks": 11948,
          "time": 10.37151740625,
          "velocity": 0.2204724409448819
        },
        {
          "duration": 0.01041665625000121,
          "durationTicks": 12,
          "midi": 36,
          "name": "C2",
          "ticks": 11964,
          "time": 10.385406281249999,
          "velocity": 0.2047244094488189
        },
        {
          "duration": 0.013888874999999246,
          "durationTicks": 16,
          "midi": 35,
          "name": "B1",
          "ticks": 11976,
          "time": 10.3958229375,
          "velocity": 0.1968503937007874
        },
        {
          "duration": 0.017361093750000833,
          "durationTicks": 20,
          "midi": 34,
          "name": "A#1",
          "ticks": 11992,
          "time": 10.4097118125,
          "velocity": 0.1889763779527559
        },
        {
          "duration": 0.010416656249999434,
          "durationTicks": 12,
          "midi": 33,
          "name": "A1",
          "ticks": 12012,
          "time": 10.42707290625,
          "velocity": 0.1732283464566929
        },
        {
          "duration": 0.013888875000001022,
          "durationTicks": 16,
          "midi": 32,
          "name": "G#1",
          "ticks": 12024,
          "time": 10.4374895625,
          "velocity": 0.15748031496062992
        },
        {
          "duration": 0.013020820312499737,
          "durationTicks": 15,
          "midi": 31,
          "name": "G1",
          "ticks": 12040,
          "time": 10.4513784375,
          "velocity": 0.14960629921259844
        },
        {
          "duration": 0.010416656249999434,
          "durationTicks": 12,
          "midi": 30,
          "name": "F#1",
          "ticks": 12055,
          "time": 10.4643992578125,
          "velocity": 0.14173228346456693
        },
        {
          "duration": 0.013888874999999246,
          "durationTicks": 16,
          "midi": 29,
          "name": "F1",
          "ticks": 12067,
          "time": 10.4748159140625,
          "velocity": 0.12598425196850394
        },
        {
          "duration": 0.013020820312499737,
          "durationTicks": 15,
          "midi": 28,
          "name": "E1",
          "ticks": 12083,
          "time": 10.4887047890625,
          "velocity": 0.11811023622047244
        },
        {
          "duration": 0.16666649999999805,
          "durationTicks": 192,
          "midi": 57,
          "name": "A3",
          "ticks": 12286,
          "time": 10.664919890625,
          "velocity": 0.3228346456692913
        },
        {
          "duration": 0.16666649999999805,
          "durationTicks": 192,
          "midi": 69,
          "name": "A4",
          "ticks": 12286,
          "time": 10.664919890625,
          "velocity": 0.3228346456692913
        },
        {
          "duration": 0.16666649999999805,
          "durationTicks": 192,
          "midi": 33,
          "name": "A1",
          "ticks": 12286,
          "time": 10.664919890625,
          "velocity": 0.3228346456692913
        },
        {
          "duration": 0.04166662499999951,
          "durationTicks": 48,
          "midi": 57,
          "name": "A3",
          "ticks": 12478,
          "time": 10.831586390624999,
          "velocity": 0.2755905511811024
        },
        {
          "duration": 0.04166662499999951,
          "durationTicks": 48,
          "midi": 64,
          "name": "E4",
          "ticks": 12478,
          "time": 10.831586390624999,
          "velocity": 0.2755905511811024
        },
        {
          "duration": 0.04166662499999951,
          "durationTicks": 48,
          "midi": 60,
          "name": "C4",
          "ticks": 12478,
          "time": 10.831586390624999,
          "velocity": 0.2755905511811024
        },
        {
          "duration": 0.0833332500000008,
          "durationTicks": 96,
          "midi": 45,
          "name": "A2",
          "ticks": 12478,
          "time": 10.831586390624999,
          "velocity": 0.2992125984251969
        },
        {
          "duration": 0.16666649999999983,
          "durationTicks": 192,
          "midi": 60,
          "name": "C4",
          "ticks": 12670,
          "time": 10.998252890624999,
          "velocity": 0.3228346456692913
        },
        {
          "duration": 0.16666649999999983,
          "durationTicks": 192,
          "midi": 72,
          "name": "C5",
          "ticks": 12670,
          "time": 10.998252890624999,
          "velocity": 0.3228346456692913
        },
        {
          "duration": 0.16666649999999983,
          "durationTicks": 192,
          "midi": 33,
          "name": "A1",
          "ticks": 12670,
          "time": 10.998252890624999,
          "velocity": 0.3228346456692913
        },
        {
          "duration": 0.16666649999999983,
          "durationTicks": 192,
          "midi": 45,
          "name": "A2",
          "ticks": 12670,
          "time": 10.998252890624999,
          "velocity": 0.25984251968503935
        },
        {
          "duration": 0.04166662500000129,
          "durationTicks": 48,
          "midi": 64,
          "name": "E4",
          "ticks": 12862,
          "time": 11.164919390624998,
          "velocity": 0.2755905511811024
        },
        {
          "duration": 0.04166662500000129,
          "durationTicks": 48,
          "midi": 60,
          "name": "C4",
          "ticks": 12862,
          "time": 11.164919390624998,
          "velocity": 0.2755905511811024
        },
        {
          "duration": 0.04166662500000129,
          "durationTicks": 48,
          "midi": 57,
          "name": "A3",
          "ticks": 12862,
          "time": 11.164919390624998,
          "velocity": 0.2755905511811024
        },
        {
          "duration": 0.0833332500000008,
          "durationTicks": 96,
          "midi": 45,
          "name": "A2",
          "ticks": 12862,
          "time": 11.164919390624998,
          "velocity": 0.2992125984251969
        },
        {
          "duration": 0.24999975000000063,
          "durationTicks": 288,
          "midi": 63,
          "name": "D#4",
          "ticks": 13054,
          "time": 11.331585890624998,
          "velocity": 0.3228346456692913
        },
        {
          "duration": 0.24999975000000063,
          "durationTicks": 288,
          "midi": 75,
          "name": "D#5",
          "ticks": 13054,
          "time": 11.331585890624998,
          "velocity": 0.3228346456692913
        },
        {
          "duration": 0.16666649999999983,
          "durationTicks": 192,
          "midi": 33,
          "name": "A1",
          "ticks": 13054,
          "time": 11.331585890624998,
          "velocity": 0.3228346456692913
        },
        {
          "duration": 0.04166662500000129,
          "durationTicks": 48,
          "midi": 57,
          "name": "A3",
          "ticks": 13246,
          "time": 11.498252390624998,
          "velocity": 0.2755905511811024
        },
        {
          "duration": 0.04166662500000129,
          "durationTicks": 48,
          "midi": 60,
          "name": "C4",
          "ticks": 13246,
          "time": 11.498252390624998,
          "velocity": 0.2755905511811024
        },
        {
          "duration": 0.04166662500000129,
          "durationTicks": 48,
          "midi": 64,
          "name": "E4",
          "ticks": 13246,
          "time": 11.498252390624998,
          "velocity": 0.2755905511811024
        },
        {
          "duration": 0.0833332500000008,
          "durationTicks": 96,
          "midi": 45,
          "name": "A2",
          "ticks": 13246,
          "time": 11.498252390624998,
          "velocity": 0.2992125984251969
        },
        {
          "duration": 0.0833332500000008,
          "durationTicks": 96,
          "midi": 64,
          "name": "E4",
          "ticks": 13342,
          "time": 11.581585640624999,
          "velocity": 0.3228346456692913
        },
        {
          "duration": 0.0833332500000008,
          "durationTicks": 96,
          "midi": 76,
          "name": "E5",
          "ticks": 13342,
          "time": 11.581585640624999,
          "velocity": 0.3228346456692913
        },
        {
          "duration": 0.16666649999999983,
          "durationTicks": 192,
          "midi": 33,
          "name": "A1",
          "ticks": 13438,
          "time": 11.664918890625,
          "velocity": 0.3228346456692913
        },
        {
          "duration": 0.16666649999999983,
          "durationTicks": 192,
          "midi": 45,
          "name": "A2",
          "ticks": 13438,
          "time": 11.664918890625,
          "velocity": 0.25984251968503935
        },
        {
          "duration": 0.04166662499999951,
          "durationTicks": 48,
          "midi": 57,
          "name": "A3",
          "ticks": 13630,
          "time": 11.831585390625,
          "velocity": 0.2755905511811024
        },
        {
          "duration": 0.04166662499999951,
          "durationTicks": 48,
          "midi": 64,
          "name": "E4",
          "ticks": 13630,
          "time": 11.831585390625,
          "velocity": 0.2755905511811024
        },
        {
          "duration": 0.04166662499999951,
          "durationTicks": 48,
          "midi": 60,
          "name": "C4",
          "ticks": 13630,
          "time": 11.831585390625,
          "velocity": 0.2755905511811024
        },
        {
          "duration": 0.08333324999999903,
          "durationTicks": 96,
          "midi": 56,
          "name": "G#3",
          "ticks": 13630,
          "time": 11.831585390625,
          "velocity": 0.3228346456692913
        },
        {
          "duration": 0.08333324999999903,
          "durationTicks": 96,
          "midi": 68,
          "name": "G#4",
          "ticks": 13630,
          "time": 11.831585390625,
          "velocity": 0.3228346456692913
        },
        {
          "duration": 0.08333324999999903,
          "durationTicks": 96,
          "midi": 45,
          "name": "A2",
          "ticks": 13630,
          "time": 11.831585390625,
          "velocity": 0.2992125984251969
        },
        {
          "duration": 0.08333324999999903,
          "durationTicks": 96,
          "midi": 57,
          "name": "A3",
          "ticks": 13822,
          "time": 11.998251890625,
          "velocity": 0.3228346456692913
        },
        {
          "duration": 0.08333324999999903,
          "durationTicks": 96,
          "midi": 69,
          "name": "A4",
          "ticks": 13822,
          "time": 11.998251890625,
          "velocity": 0.3228346456692913
        },
        {
          "duration": 0.16666649999999983,
          "durationTicks": 192,
          "midi": 36,
          "name": "C2",
          "ticks": 13822,
          "time": 11.998251890625,
          "velocity": 0.3228346456692913
        },
        {
          "duration": 0.04166662499999951,
          "durationTicks": 48,
          "midi": 64,
          "name": "E4",
          "ticks": 14014,
          "time": 12.164918390625,
          "velocity": 0.2755905511811024
        },
        {
          "duration": 0.04166662499999951,
          "durationTicks": 48,
          "midi": 57,
          "name": "A3",
          "ticks": 14014,
          "time": 12.164918390625,
          "velocity": 0.2755905511811024
        },
        {
          "duration": 0.04166662499999951,
          "durationTicks": 48,
          "midi": 55,
          "name": "G3",
          "ticks": 14014,
          "time": 12.164918390625,
          "velocity": 0.2755905511811024
        },
        {
          "duration": 0.04166662499999951,
          "durationTicks": 48,
          "midi": 60,
          "name": "C4",
          "ticks": 14014,
          "time": 12.164918390625,
          "velocity": 0.2755905511811024
        },
        {
          "duration": 0.08333324999999903,
          "durationTicks": 96,
          "midi": 60,
          "name": "C4",
          "ticks": 14014,
          "time": 12.164918390625,
          "velocity": 0.3228346456692913
        },
        {
          "duration": 0.08333324999999903,
          "durationTicks": 96,
          "midi": 72,
          "name": "C5",
          "ticks": 14014,
          "time": 12.164918390625,
          "velocity": 0.3228346456692913
        },
        {
          "duration": 0.08333324999999903,
          "durationTicks": 96,
          "midi": 48,
          "name": "C3",
          "ticks": 14014,
          "time": 12.164918390625,
          "velocity": 0.2992125984251969
        },
        {
          "duration": 0.08333324999999903,
          "durationTicks": 96,
          "midi": 62,
          "name": "D4",
          "ticks": 14206,
          "time": 12.331584890624999,
          "velocity": 0.3228346456692913
        },
        {
          "duration": 0.08333324999999903,
          "durationTicks": 96,
          "midi": 74,
          "name": "D5",
          "ticks": 14206,
          "time": 12.331584890624999,
          "velocity": 0.3228346456692913
        },
        {
          "duration": 0.16666649999999983,
          "durationTicks": 192,
          "midi": 36,
          "name": "C2",
          "ticks": 14206,
          "time": 12.331584890624999,
          "velocity": 0.3228346456692913
        },
        {
          "duration": 0.16666649999999983,
          "durationTicks": 192,
          "midi": 48,
          "name": "C3",
          "ticks": 14206,
          "time": 12.331584890624999,
          "velocity": 0.25984251968503935
        },
        {
          "duration": 0.04166662499999951,
          "durationTicks": 48,
          "midi": 60,
          "name": "C4",
          "ticks": 14398,
          "time": 12.498251390624999,
          "velocity": 0.2755905511811024
        },
        {
          "duration": 0.04166662499999951,
          "durationTicks": 48,
          "midi": 57,
          "name": "A3",
          "ticks": 14398,
          "time": 12.498251390624999,
          "velocity": 0.2755905511811024
        },
        {
          "duration": 0.04166662499999951,
          "durationTicks": 48,
          "midi": 64,
          "name": "E4",
          "ticks": 14398,
          "time": 12.498251390624999,
          "velocity": 0.2755905511811024
        },
        {
          "duration": 0.04166662499999951,
          "durationTicks": 48,
          "midi": 55,
          "name": "G3",
          "ticks": 14398,
          "time": 12.498251390624999,
          "velocity": 0.2755905511811024
        },
        {
          "duration": 0.0833332500000008,
          "durationTicks": 96,
          "midi": 60,
          "name": "C4",
          "ticks": 14398,
          "time": 12.498251390624999,
          "velocity": 0.3228346456692913
        },
        {
          "duration": 0.0833332500000008,
          "durationTicks": 96,
          "midi": 72,
          "name": "C5",
          "ticks": 14398,
          "time": 12.498251390624999,
          "velocity": 0.3228346456692913
        },
        {
          "duration": 0.0833332500000008,
          "durationTicks": 96,
          "midi": 48,
          "name": "C3",
          "ticks": 14398,
          "time": 12.498251390624999,
          "velocity": 0.2992125984251969
        },
        {
          "duration": 0.0833332500000008,
          "durationTicks": 96,
          "midi": 63,
          "name": "D#4",
          "ticks": 14590,
          "time": 12.664917890624999,
          "velocity": 0.3228346456692913
        },
        {
          "duration": 0.0833332500000008,
          "durationTicks": 96,
          "midi": 75,
          "name": "D#5",
          "ticks": 14590,
          "time": 12.664917890624999,
          "velocity": 0.3228346456692913
        },
        {
          "duration": 0.16666649999999983,
          "durationTicks": 192,
          "midi": 36,
          "name": "C2",
          "ticks": 14590,
          "time": 12.664917890624999,
          "velocity": 0.3228346456692913
        },
        {
          "duration": 0.04166662499999951,
          "durationTicks": 48,
          "midi": 60,
          "name": "C4",
          "ticks": 14782,
          "time": 12.831584390624998,
          "velocity": 0.2755905511811024
        },
        {
          "duration": 0.04166662499999951,
          "durationTicks": 48,
          "midi": 55,
          "name": "G3",
          "ticks": 14782,
          "time": 12.831584390624998,
          "velocity": 0.2755905511811024
        },
        {
          "duration": 0.04166662499999951,
          "durationTicks": 48,
          "midi": 57,
          "name": "A3",
          "ticks": 14782,
          "time": 12.831584390624998,
          "velocity": 0.2755905511811024
        },
        {
          "duration": 0.04166662499999951,
          "durationTicks": 48,
          "midi": 64,
          "name": "E4",
          "ticks": 14782,
          "time": 12.831584390624998,
          "velocity": 0.2755905511811024
        },
        {
          "duration": 0.0833332500000008,
          "durationTicks": 96,
          "midi": 63,
          "name": "D#4",
          "ticks": 14782,
          "time": 12.831584390624998,
          "velocity": 0.3228346456692913
        },
        {
          "duration": 0.0833332500000008,
          "durationTicks": 96,
          "midi": 75,
          "name": "D#5",
          "ticks": 14782,
          "time": 12.831584390624998,
          "velocity": 0.3228346456692913
        },
        {
          "duration": 0.0833332500000008,
          "durationTicks": 96,
          "midi": 48,
          "name": "C3",
          "ticks": 14782,
          "time": 12.831584390624998,
          "velocity": 0.2992125984251969
        },
        {
          "duration": 0.16666649999999983,
          "durationTicks": 192,
          "midi": 64,
          "name": "E4",
          "ticks": 14878,
          "time": 12.914917640625,
          "velocity": 0.3228346456692913
        },
        {
          "duration": 0.16666649999999983,
          "durationTicks": 192,
          "midi": 76,
          "name": "E5",
          "ticks": 14878,
          "time": 12.914917640625,
          "velocity": 0.3228346456692913
        },
        {
          "duration": 0.16666649999999983,
          "durationTicks": 192,
          "midi": 36,
          "name": "C2",
          "ticks": 14974,
          "time": 12.998250890624998,
          "velocity": 0.3228346456692913
        },
        {
          "duration": 0.16666649999999983,
          "durationTicks": 192,
          "midi": 48,
          "name": "C3",
          "ticks": 14974,
          "time": 12.998250890624998,
          "velocity": 0.25984251968503935
        },
        {
          "duration": 0.04166662500000129,
          "durationTicks": 48,
          "midi": 60,
          "name": "C4",
          "ticks": 15166,
          "time": 13.164917390624998,
          "velocity": 0.2755905511811024
        },
        {
          "duration": 0.04166662500000129,
          "durationTicks": 48,
          "midi": 55,
          "name": "G3",
          "ticks": 15166,
          "time": 13.164917390624998,
          "velocity": 0.2755905511811024
        },
        {
          "duration": 0.04166662500000129,
          "durationTicks": 48,
          "midi": 64,
          "name": "E4",
          "ticks": 15166,
          "time": 13.164917390624998,
          "velocity": 0.2755905511811024
        },
        {
          "duration": 0.04166662500000129,
          "durationTicks": 48,
          "midi": 57,
          "name": "A3",
          "ticks": 15166,
          "time": 13.164917390624998,
          "velocity": 0.2755905511811024
        },
        {
          "duration": 0.0833332500000008,
          "durationTicks": 96,
          "midi": 48,
          "name": "C3",
          "ticks": 15166,
          "time": 13.164917390624998,
          "velocity": 0.2992125984251969
        },
        {
          "duration": 0.08333324999999903,
          "durationTicks": 96,
          "midi": 67,
          "name": "G4",
          "ticks": 15358,
          "time": 13.331583890625,
          "velocity": 0.3228346456692913
        },
        {
          "duration": 0.08333324999999903,
          "durationTicks": 96,
          "midi": 79,
          "name": "G5",
          "ticks": 15358,
          "time": 13.331583890625,
          "velocity": 0.3228346456692913
        },
        {
          "duration": 0.16666649999999983,
          "durationTicks": 192,
          "midi": 29,
          "name": "F1",
          "ticks": 15358,
          "time": 13.331583890625,
          "velocity": 0.3228346456692913
        },
        {
          "duration": 0.04166662499999951,
          "durationTicks": 48,
          "midi": 63,
          "name": "D#4",
          "ticks": 15550,
          "time": 13.498250390625,
          "velocity": 0.2755905511811024
        },
        {
          "duration": 0.04166662499999951,
          "durationTicks": 48,
          "midi": 53,
          "name": "F3",
          "ticks": 15550,
          "time": 13.498250390625,
          "velocity": 0.2755905511811024
        },
        {
          "duration": 0.04166662499999951,
          "durationTicks": 48,
          "midi": 57,
          "name": "A3",
          "ticks": 15550,
          "time": 13.498250390625,
          "velocity": 0.2755905511811024
        },
        {
          "duration": 0.04166662499999951,
          "durationTicks": 48,
          "midi": 60,
          "name": "C4",
          "ticks": 15550,
          "time": 13.498250390625,
          "velocity": 0.2755905511811024
        },
        {
          "duration": 0.08333324999999903,
          "durationTicks": 96,
          "midi": 66,
          "name": "F#4",
          "ticks": 15550,
          "time": 13.498250390625,
          "velocity": 0.3228346456692913
        },
        {
          "duration": 0.08333324999999903,
          "durationTicks": 96,
          "midi": 78,
          "name": "F#5",
          "ticks": 15550,
          "time": 13.498250390625,
          "velocity": 0.3228346456692913
        },
        {
          "duration": 0.08333324999999903,
          "durationTicks": 96,
          "midi": 41,
          "name": "F2",
          "ticks": 15550,
          "time": 13.498250390625,
          "velocity": 0.2992125984251969
        },
        {
          "duration": 0.08333324999999903,
          "durationTicks": 96,
          "midi": 65,
          "name": "F4",
          "ticks": 15742,
          "time": 13.664916890625,
          "velocity": 0.3228346456692913
        },
        {
          "duration": 0.08333324999999903,
          "durationTicks": 96,
          "midi": 77,
          "name": "F5",
          "ticks": 15742,
          "time": 13.664916890625,
          "velocity": 0.3228346456692913
        },
        {
          "duration": 0.16666649999999983,
          "durationTicks": 192,
          "midi": 29,
          "name": "F1",
          "ticks": 15742,
          "time": 13.664916890625,
          "velocity": 0.3228346456692913
        },
        {
          "duration": 0.16666649999999983,
          "durationTicks": 192,
          "midi": 41,
          "name": "F2",
          "ticks": 15742,
          "time": 13.664916890625,
          "velocity": 0.25984251968503935
        },
        {
          "duration": 0.04166662499999951,
          "durationTicks": 48,
          "midi": 57,
          "name": "A3",
          "ticks": 15934,
          "time": 13.831583390625,
          "velocity": 0.2755905511811024
        },
        {
          "duration": 0.04166662499999951,
          "durationTicks": 48,
          "midi": 63,
          "name": "D#4",
          "ticks": 15934,
          "time": 13.831583390625,
          "velocity": 0.2755905511811024
        },
        {
          "duration": 0.04166662499999951,
          "durationTicks": 48,
          "midi": 53,
          "name": "F3",
          "ticks": 15934,
          "time": 13.831583390625,
          "velocity": 0.2755905511811024
        },
        {
          "duration": 0.04166662499999951,
          "durationTicks": 48,
          "midi": 60,
          "name": "C4",
          "ticks": 15934,
          "time": 13.831583390625,
          "velocity": 0.2755905511811024
        },
        {
          "duration": 0.08333324999999903,
          "durationTicks": 96,
          "midi": 63,
          "name": "D#4",
          "ticks": 15934,
          "time": 13.831583390625,
          "velocity": 0.3228346456692913
        },
        {
          "duration": 0.08333324999999903,
          "durationTicks": 96,
          "midi": 75,
          "name": "D#5",
          "ticks": 15934,
          "time": 13.831583390625,
          "velocity": 0.3228346456692913
        },
        {
          "duration": 0.08333324999999903,
          "durationTicks": 96,
          "midi": 41,
          "name": "F2",
          "ticks": 15934,
          "time": 13.831583390625,
          "velocity": 0.2992125984251969
        },
        {
          "duration": 0.08333324999999903,
          "durationTicks": 96,
          "midi": 62,
          "name": "D4",
          "ticks": 16126,
          "time": 13.998249890624999,
          "velocity": 0.3228346456692913
        },
        {
          "duration": 0.08333324999999903,
          "durationTicks": 96,
          "midi": 74,
          "name": "D5",
          "ticks": 16126,
          "time": 13.998249890624999,
          "velocity": 0.3228346456692913
        },
        {
          "duration": 0.16666649999999983,
          "durationTicks": 192,
          "midi": 29,
          "name": "F1",
          "ticks": 16126,
          "time": 13.998249890624999,
          "velocity": 0.3228346456692913
        },
        {
          "duration": 0.04166662499999951,
          "durationTicks": 48,
          "midi": 60,
          "name": "C4",
          "ticks": 16318,
          "time": 14.164916390624999,
          "velocity": 0.2755905511811024
        },
        {
          "duration": 0.04166662499999951,
          "durationTicks": 48,
          "midi": 57,
          "name": "A3",
          "ticks": 16318,
          "time": 14.164916390624999,
          "velocity": 0.2755905511811024
        },
        {
          "duration": 0.04166662499999951,
          "durationTicks": 48,
          "midi": 53,
          "name": "F3",
          "ticks": 16318,
          "time": 14.164916390624999,
          "velocity": 0.2755905511811024
        },
        {
          "duration": 0.04166662499999951,
          "durationTicks": 48,
          "midi": 63,
          "name": "D#4",
          "ticks": 16318,
          "time": 14.164916390624999,
          "velocity": 0.2755905511811024
        },
        {
          "duration": 0.0833332500000008,
          "durationTicks": 96,
          "midi": 60,
          "name": "C4",
          "ticks": 16318,
          "time": 14.164916390624999,
          "velocity": 0.3228346456692913
        },
        {
          "duration": 0.0833332500000008,
          "durationTicks": 96,
          "midi": 72,
          "name": "C5",
          "ticks": 16318,
          "time": 14.164916390624999,
          "velocity": 0.3228346456692913
        },
        {
          "duration": 0.0833332500000008,
          "durationTicks": 96,
          "midi": 41,
          "name": "F2",
          "ticks": 16318,
          "time": 14.164916390624999,
          "velocity": 0.2992125984251969
        },
        {
          "duration": 0.0833332500000008,
          "durationTicks": 96,
          "midi": 59,
          "name": "B3",
          "ticks": 16510,
          "time": 14.331582890624999,
          "velocity": 0.3228346456692913
        },
        {
          "duration": 0.0833332500000008,
          "durationTicks": 96,
          "midi": 71,
          "name": "B4",
          "ticks": 16510,
          "time": 14.331582890624999,
          "velocity": 0.3228346456692913
        },
        {
          "duration": 0.16666649999999983,
          "durationTicks": 192,
          "midi": 29,
          "name": "F1",
          "ticks": 16510,
          "time": 14.331582890624999,
          "velocity": 0.3228346456692913
        },
        {
          "duration": 0.16666649999999983,
          "durationTicks": 192,
          "midi": 41,
          "name": "F2",
          "ticks": 16510,
          "time": 14.331582890624999,
          "velocity": 0.25984251968503935
        },
        {
          "duration": 0.04166662499999951,
          "durationTicks": 48,
          "midi": 57,
          "name": "A3",
          "ticks": 16702,
          "time": 14.498249390624999,
          "velocity": 0.2755905511811024
        },
        {
          "duration": 0.04166662499999951,
          "durationTicks": 48,
          "midi": 63,
          "name": "D#4",
          "ticks": 16702,
          "time": 14.498249390624999,
          "velocity": 0.2755905511811024
        },
        {
          "duration": 0.04166662499999951,
          "durationTicks": 48,
          "midi": 53,
          "name": "F3",
          "ticks": 16702,
          "time": 14.498249390624999,
          "velocity": 0.2755905511811024
        },
        {
          "duration": 0.04166662499999951,
          "durationTicks": 48,
          "midi": 60,
          "name": "C4",
          "ticks": 16702,
          "time": 14.498249390624999,
          "velocity": 0.2755905511811024
        },
        {
          "duration": 0.16666649999999983,
          "durationTicks": 192,
          "midi": 58,
          "name": "A#3",
          "ticks": 16702,
          "time": 14.498249390624999,
          "velocity": 0.3228346456692913
        },
        {
          "duration": 0.16666649999999983,
          "durationTicks": 192,
          "midi": 70,
          "name": "A#4",
          "ticks": 16702,
          "time": 14.498249390624999,
          "velocity": 0.3228346456692913
        },
        {
          "duration": 0.0833332500000008,
          "durationTicks": 96,
          "midi": 41,
          "name": "F2",
          "ticks": 16702,
          "time": 14.498249390624999,
          "velocity": 0.2992125984251969
        },
        {
          "duration": 0.0833332500000008,
          "durationTicks": 96,
          "midi": 59,
          "name": "B3",
          "ticks": 16894,
          "time": 14.664915890624998,
          "velocity": 0.3228346456692913
        },
        {
          "duration": 0.0833332500000008,
          "durationTicks": 96,
          "midi": 71,
          "name": "B4",
          "ticks": 16894,
          "time": 14.664915890624998,
          "velocity": 0.3228346456692913
        },
        {
          "duration": 0.16666649999999983,
          "durationTicks": 192,
          "midi": 28,
          "name": "E1",
          "ticks": 16894,
          "time": 14.664915890624998,
          "velocity": 0.3228346456692913
        },
        {
          "duration": 0.04166662500000129,
          "durationTicks": 48,
          "midi": 56,
          "name": "G#3",
          "ticks": 17086,
          "time": 14.831582390624998,
          "velocity": 0.2755905511811024
        },
        {
          "duration": 0.04166662500000129,
          "durationTicks": 48,
          "midi": 59,
          "name": "B3",
          "ticks": 17086,
          "time": 14.831582390624998,
          "velocity": 0.2755905511811024
        },
        {
          "duration": 0.04166662500000129,
          "durationTicks": 48,
          "midi": 64,
          "name": "E4",
          "ticks": 17086,
          "time": 14.831582390624998,
          "velocity": 0.2755905511811024
        },
        {
          "duration": 0.0833332500000008,
          "durationTicks": 96,
          "midi": 60,
          "name": "C4",
          "ticks": 17086,
          "time": 14.831582390624998,
          "velocity": 0.3228346456692913
        },
        {
          "duration": 0.0833332500000008,
          "durationTicks": 96,
          "midi": 72,
          "name": "C5",
          "ticks": 17086,
          "time": 14.831582390624998,
          "velocity": 0.3228346456692913
        },
        {
          "duration": 0.0833332500000008,
          "durationTicks": 96,
          "midi": 40,
          "name": "E2",
          "ticks": 17086,
          "time": 14.831582390624998,
          "velocity": 0.2992125984251969
        },
        {
          "duration": 0.1666665000000016,
          "durationTicks": 192,
          "midi": 62,
          "name": "D4",
          "ticks": 17278,
          "time": 14.998248890624998,
          "velocity": 0.3228346456692913
        },
        {
          "duration": 0.1666665000000016,
          "durationTicks": 192,
          "midi": 74,
          "name": "D5",
          "ticks": 17278,
          "time": 14.998248890624998,
          "velocity": 0.3228346456692913
        },
        {
          "duration": 0.1666665000000016,
          "durationTicks": 192,
          "midi": 28,
          "name": "E1",
          "ticks": 17278,
          "time": 14.998248890624998,
          "velocity": 0.3228346456692913
        },
        {
          "duration": 0.1666665000000016,
          "durationTicks": 192,
          "midi": 40,
          "name": "E2",
          "ticks": 17278,
          "time": 14.998248890624998,
          "velocity": 0.25984251968503935
        },
        {
          "duration": 0.04166662499999951,
          "durationTicks": 48,
          "midi": 56,
          "name": "G#3",
          "ticks": 17470,
          "time": 15.164915390625,
          "velocity": 0.2755905511811024
        },
        {
          "duration": 0.04166662499999951,
          "durationTicks": 48,
          "midi": 59,
          "name": "B3",
          "ticks": 17470,
          "time": 15.164915390625,
          "velocity": 0.2755905511811024
        },
        {
          "duration": 0.04166662499999951,
          "durationTicks": 48,
          "midi": 64,
          "name": "E4",
          "ticks": 17470,
          "time": 15.164915390625,
          "velocity": 0.2755905511811024
        },
        {
          "duration": 0.08333324999999903,
          "durationTicks": 96,
          "midi": 63,
          "name": "D#4",
          "ticks": 17470,
          "time": 15.164915390625,
          "velocity": 0.3228346456692913
        },
        {
          "duration": 0.08333324999999903,
          "durationTicks": 96,
          "midi": 75,
          "name": "D#5",
          "ticks": 17470,
          "time": 15.164915390625,
          "velocity": 0.3228346456692913
        },
        {
          "duration": 0.08333324999999903,
          "durationTicks": 96,
          "midi": 40,
          "name": "E2",
          "ticks": 17470,
          "time": 15.164915390625,
          "velocity": 0.2992125984251969
        },
        {
          "duration": 0.16666649999999983,
          "durationTicks": 192,
          "midi": 64,
          "name": "E4",
          "ticks": 17662,
          "time": 15.331581890625,
          "velocity": 0.3228346456692913
        },
        {
          "duration": 0.16666649999999983,
          "durationTicks": 192,
          "midi": 76,
          "name": "E5",
          "ticks": 17662,
          "time": 15.331581890625,
          "velocity": 0.3228346456692913
        },
        {
          "duration": 0.16666649999999983,
          "durationTicks": 192,
          "midi": 28,
          "name": "E1",
          "ticks": 17662,
          "time": 15.331581890625,
          "velocity": 0.31496062992125984
        },
        {
          "duration": 0.04166662499999951,
          "durationTicks": 48,
          "midi": 56,
          "name": "G#3",
          "ticks": 17854,
          "time": 15.498248390625,
          "velocity": 0.2755905511811024
        },
        {
          "duration": 0.04166662499999951,
          "durationTicks": 48,
          "midi": 59,
          "name": "B3",
          "ticks": 17854,
          "time": 15.498248390625,
          "velocity": 0.2755905511811024
        },
        {
          "duration": 0.04166662499999951,
          "durationTicks": 48,
          "midi": 64,
          "name": "E4",
          "ticks": 17854,
          "time": 15.498248390625,
          "velocity": 0.2755905511811024
        },
        {
          "duration": 0.33333299999999966,
          "durationTicks": 384,
          "midi": 56,
          "name": "G#3",
          "ticks": 18046,
          "time": 15.664914890624999,
          "velocity": 0.2755905511811024
        },
        {
          "duration": 0.33333299999999966,
          "durationTicks": 384,
          "midi": 52,
          "name": "E3",
          "ticks": 18046,
          "time": 15.664914890624999,
          "velocity": 0.2755905511811024
        },
        {
          "duration": 0.33333299999999966,
          "durationTicks": 384,
          "midi": 59,
          "name": "B3",
          "ticks": 18046,
          "time": 15.664914890624999,
          "velocity": 0.2755905511811024
        },
        {
          "duration": 0.33333299999999966,
          "durationTicks": 384,
          "midi": 52,
          "name": "E3",
          "ticks": 18046,
          "time": 15.664914890624999,
          "velocity": 0.3228346456692913
        },
        {
          "duration": 0.33333299999999966,
          "durationTicks": 384,
          "midi": 64,
          "name": "E4",
          "ticks": 18046,
          "time": 15.664914890624999,
          "velocity": 0.3228346456692913
        },
        {
          "duration": 0.16666649999999983,
          "durationTicks": 192,
          "midi": 40,
          "name": "E2",
          "ticks": 18046,
          "time": 15.664914890624999,
          "velocity": 0.2992125984251969
        },
        {
          "duration": 0.16666649999999983,
          "durationTicks": 192,
          "midi": 28,
          "name": "E1",
          "ticks": 18046,
          "time": 15.664914890624999,
          "velocity": 0.31496062992125984
        },
        {
          "duration": 0.24999974999999885,
          "durationTicks": 288,
          "midi": 40,
          "name": "E2",
          "ticks": 18046,
          "time": 15.664914890624999,
          "velocity": 0.25984251968503935
        },
        {
          "duration": 0.1666665000000016,
          "durationTicks": 192,
          "midi": 57,
          "name": "A3",
          "ticks": 18430,
          "time": 15.998247890624999,
          "velocity": 0.3228346456692913
        },
        {
          "duration": 0.1666665000000016,
          "durationTicks": 192,
          "midi": 69,
          "name": "A4",
          "ticks": 18430,
          "time": 15.998247890624999,
          "velocity": 0.3228346456692913
        },
        {
          "duration": 0.1666665000000016,
          "durationTicks": 192,
          "midi": 33,
          "name": "A1",
          "ticks": 18430,
          "time": 15.998247890624999,
          "velocity": 0.3228346456692913
        },
        {
          "duration": 0.04166662499999774,
          "durationTicks": 48,
          "midi": 60,
          "name": "C4",
          "ticks": 18622,
          "time": 16.164914390625,
          "velocity": 0.2755905511811024
        },
        {
          "duration": 0.04166662499999774,
          "durationTicks": 48,
          "midi": 57,
          "name": "A3",
          "ticks": 18622,
          "time": 16.164914390625,
          "velocity": 0.2755905511811024
        },
        {
          "duration": 0.04166662499999774,
          "durationTicks": 48,
          "midi": 64,
          "name": "E4",
          "ticks": 18622,
          "time": 16.164914390625,
          "velocity": 0.2755905511811024
        },
        {
          "duration": 0.08333324999999903,
          "durationTicks": 96,
          "midi": 45,
          "name": "A2",
          "ticks": 18622,
          "time": 16.164914390625,
          "velocity": 0.2992125984251969
        },
        {
          "duration": 0.1666665000000016,
          "durationTicks": 192,
          "midi": 60,
          "name": "C4",
          "ticks": 18814,
          "time": 16.331580890625,
          "velocity": 0.3228346456692913
        },
        {
          "duration": 0.1666665000000016,
          "durationTicks": 192,
          "midi": 72,
          "name": "C5",
          "ticks": 18814,
          "time": 16.331580890625,
          "velocity": 0.3228346456692913
        },
        {
          "duration": 0.1666665000000016,
          "durationTicks": 192,
          "midi": 33,
          "name": "A1",
          "ticks": 18814,
          "time": 16.331580890625,
          "velocity": 0.3228346456692913
        },
        {
          "duration": 0.1666665000000016,
          "durationTicks": 192,
          "midi": 45,
          "name": "A2",
          "ticks": 18814,
          "time": 16.331580890625,
          "velocity": 0.25984251968503935
        },
        {
          "duration": 0.04166662499999774,
          "durationTicks": 48,
          "midi": 60,
          "name": "C4",
          "ticks": 19006,
          "time": 16.498247390625,
          "velocity": 0.2755905511811024
        },
        {
          "duration": 0.04166662499999774,
          "durationTicks": 48,
          "midi": 57,
          "name": "A3",
          "ticks": 19006,
          "time": 16.498247390625,
          "velocity": 0.2755905511811024
        },
        {
          "duration": 0.04166662499999774,
          "durationTicks": 48,
          "midi": 64,
          "name": "E4",
          "ticks": 19006,
          "time": 16.498247390625,
          "velocity": 0.2755905511811024
        },
        {
          "duration": 0.08333324999999903,
          "durationTicks": 96,
          "midi": 45,
          "name": "A2",
          "ticks": 19006,
          "time": 16.498247390625,
          "velocity": 0.2992125984251969
        },
        {
          "duration": 0.24999975000000063,
          "durationTicks": 288,
          "midi": 63,
          "name": "D#4",
          "ticks": 19198,
          "time": 16.664913890624998,
          "velocity": 0.3228346456692913
        },
        {
          "duration": 0.24999975000000063,
          "durationTicks": 288,
          "midi": 75,
          "name": "D#5",
          "ticks": 19198,
          "time": 16.664913890624998,
          "velocity": 0.3228346456692913
        },
        {
          "duration": 0.1666665000000016,
          "durationTicks": 192,
          "midi": 33,
          "name": "A1",
          "ticks": 19198,
          "time": 16.664913890624998,
          "velocity": 0.3228346456692913
        },
        {
          "duration": 0.04166662499999774,
          "durationTicks": 48,
          "midi": 60,
          "name": "C4",
          "ticks": 19390,
          "time": 16.831580390625,
          "velocity": 0.2755905511811024
        },
        {
          "duration": 0.04166662499999774,
          "durationTicks": 48,
          "midi": 64,
          "name": "E4",
          "ticks": 19390,
          "time": 16.831580390625,
          "velocity": 0.2755905511811024
        },
        {
          "duration": 0.04166662499999774,
          "durationTicks": 48,
          "midi": 57,
          "name": "A3",
          "ticks": 19390,
          "time": 16.831580390625,
          "velocity": 0.2755905511811024
        },
        {
          "duration": 0.08333324999999903,
          "durationTicks": 96,
          "midi": 45,
          "name": "A2",
          "ticks": 19390,
          "time": 16.831580390625,
          "velocity": 0.2992125984251969
        },
        {
          "duration": 0.08333324999999903,
          "durationTicks": 96,
          "midi": 64,
          "name": "E4",
          "ticks": 19486,
          "time": 16.914913640625,
          "velocity": 0.3228346456692913
        },
        {
          "duration": 0.08333324999999903,
          "durationTicks": 96,
          "midi": 76,
          "name": "E5",
          "ticks": 19486,
          "time": 16.914913640625,
          "velocity": 0.3228346456692913
        },
        {
          "duration": 0.1666665000000016,
          "durationTicks": 192,
          "midi": 33,
          "name": "A1",
          "ticks": 19582,
          "time": 16.998246890624998,
          "velocity": 0.3228346456692913
        },
        {
          "duration": 0.1666665000000016,
          "durationTicks": 192,
          "midi": 45,
          "name": "A2",
          "ticks": 19582,
          "time": 16.998246890624998,
          "velocity": 0.25984251968503935
        },
        {
          "duration": 0.04166662499999774,
          "durationTicks": 48,
          "midi": 64,
          "name": "E4",
          "ticks": 19774,
          "time": 17.164913390625,
          "velocity": 0.2755905511811024
        },
        {
          "duration": 0.04166662499999774,
          "durationTicks": 48,
          "midi": 57,
          "name": "A3",
          "ticks": 19774,
          "time": 17.164913390625,
          "velocity": 0.2755905511811024
        },
        {
          "duration": 0.04166662499999774,
          "durationTicks": 48,
          "midi": 60,
          "name": "C4",
          "ticks": 19774,
          "time": 17.164913390625,
          "velocity": 0.2755905511811024
        },
        {
          "duration": 0.08333324999999903,
          "durationTicks": 96,
          "midi": 56,
          "name": "G#3",
          "ticks": 19774,
          "time": 17.164913390625,
          "velocity": 0.3228346456692913
        },
        {
          "duration": 0.08333324999999903,
          "durationTicks": 96,
          "midi": 68,
          "name": "G#4",
          "ticks": 19774,
          "time": 17.164913390625,
          "velocity": 0.3228346456692913
        },
        {
          "duration": 0.08333324999999903,
          "durationTicks": 96,
          "midi": 45,
          "name": "A2",
          "ticks": 19774,
          "time": 17.164913390625,
          "velocity": 0.2992125984251969
        },
        {
          "duration": 0.08333325000000258,
          "durationTicks": 96,
          "midi": 57,
          "name": "A3",
          "ticks": 19966,
          "time": 17.331579890624997,
          "velocity": 0.3228346456692913
        },
        {
          "duration": 0.08333325000000258,
          "durationTicks": 96,
          "midi": 69,
          "name": "A4",
          "ticks": 19966,
          "time": 17.331579890624997,
          "velocity": 0.3228346456692913
        },
        {
          "duration": 0.1666665000000016,
          "durationTicks": 192,
          "midi": 36,
          "name": "C2",
          "ticks": 19966,
          "time": 17.331579890624997,
          "velocity": 0.3228346456692913
        },
        {
          "duration": 0.04166662500000129,
          "durationTicks": 48,
          "midi": 60,
          "name": "C4",
          "ticks": 20158,
          "time": 17.498246390625,
          "velocity": 0.2755905511811024
        },
        {
          "duration": 0.04166662500000129,
          "durationTicks": 48,
          "midi": 64,
          "name": "E4",
          "ticks": 20158,
          "time": 17.498246390625,
          "velocity": 0.2755905511811024
        },
        {
          "duration": 0.04166662500000129,
          "durationTicks": 48,
          "midi": 57,
          "name": "A3",
          "ticks": 20158,
          "time": 17.498246390625,
          "velocity": 0.2755905511811024
        },
        {
          "duration": 0.04166662500000129,
          "durationTicks": 48,
          "midi": 55,
          "name": "G3",
          "ticks": 20158,
          "time": 17.498246390625,
          "velocity": 0.2755905511811024
        },
        {
          "duration": 0.08333324999999903,
          "durationTicks": 96,
          "midi": 60,
          "name": "C4",
          "ticks": 20158,
          "time": 17.498246390625,
          "velocity": 0.3228346456692913
        },
        {
          "duration": 0.08333324999999903,
          "durationTicks": 96,
          "midi": 72,
          "name": "C5",
          "ticks": 20158,
          "time": 17.498246390625,
          "velocity": 0.3228346456692913
        },
        {
          "duration": 0.08333324999999903,
          "durationTicks": 96,
          "midi": 48,
          "name": "C3",
          "ticks": 20158,
          "time": 17.498246390625,
          "velocity": 0.2992125984251969
        },
        {
          "duration": 0.08333325000000258,
          "durationTicks": 96,
          "midi": 62,
          "name": "D4",
          "ticks": 20350,
          "time": 17.664912890624997,
          "velocity": 0.3228346456692913
        },
        {
          "duration": 0.08333325000000258,
          "durationTicks": 96,
          "midi": 74,
          "name": "D5",
          "ticks": 20350,
          "time": 17.664912890624997,
          "velocity": 0.3228346456692913
        },
        {
          "duration": 0.1666665000000016,
          "durationTicks": 192,
          "midi": 36,
          "name": "C2",
          "ticks": 20350,
          "time": 17.664912890624997,
          "velocity": 0.3228346456692913
        },
        {
          "duration": 0.1666665000000016,
          "durationTicks": 192,
          "midi": 48,
          "name": "C3",
          "ticks": 20350,
          "time": 17.664912890624997,
          "velocity": 0.25984251968503935
        },
        {
          "duration": 0.04166662500000129,
          "durationTicks": 48,
          "midi": 60,
          "name": "C4",
          "ticks": 20542,
          "time": 17.831579390625,
          "velocity": 0.2755905511811024
        },
        {
          "duration": 0.04166662500000129,
          "durationTicks": 48,
          "midi": 57,
          "name": "A3",
          "ticks": 20542,
          "time": 17.831579390625,
          "velocity": 0.2755905511811024
        },
        {
          "duration": 0.04166662500000129,
          "durationTicks": 48,
          "midi": 55,
          "name": "G3",
          "ticks": 20542,
          "time": 17.831579390625,
          "velocity": 0.2755905511811024
        },
        {
          "duration": 0.04166662500000129,
          "durationTicks": 48,
          "midi": 64,
          "name": "E4",
          "ticks": 20542,
          "time": 17.831579390625,
          "velocity": 0.2755905511811024
        },
        {
          "duration": 0.08333324999999903,
          "durationTicks": 96,
          "midi": 60,
          "name": "C4",
          "ticks": 20542,
          "time": 17.831579390625,
          "velocity": 0.3228346456692913
        },
        {
          "duration": 0.08333324999999903,
          "durationTicks": 96,
          "midi": 72,
          "name": "C5",
          "ticks": 20542,
          "time": 17.831579390625,
          "velocity": 0.3228346456692913
        },
        {
          "duration": 0.08333324999999903,
          "durationTicks": 96,
          "midi": 48,
          "name": "C3",
          "ticks": 20542,
          "time": 17.831579390625,
          "velocity": 0.2992125984251969
        },
        {
          "duration": 0.08333324999999903,
          "durationTicks": 96,
          "midi": 63,
          "name": "D#4",
          "ticks": 20734,
          "time": 17.998245890625,
          "velocity": 0.3228346456692913
        },
        {
          "duration": 0.08333324999999903,
          "durationTicks": 96,
          "midi": 75,
          "name": "D#5",
          "ticks": 20734,
          "time": 17.998245890625,
          "velocity": 0.3228346456692913
        },
        {
          "duration": 0.16666649999999805,
          "durationTicks": 192,
          "midi": 36,
          "name": "C2",
          "ticks": 20734,
          "time": 17.998245890625,
          "velocity": 0.3228346456692913
        },
        {
          "duration": 0.04166662500000129,
          "durationTicks": 48,
          "midi": 60,
          "name": "C4",
          "ticks": 20926,
          "time": 18.164912390625,
          "velocity": 0.2755905511811024
        },
        {
          "duration": 0.04166662500000129,
          "durationTicks": 48,
          "midi": 64,
          "name": "E4",
          "ticks": 20926,
          "time": 18.164912390625,
          "velocity": 0.2755905511811024
        },
        {
          "duration": 0.04166662500000129,
          "durationTicks": 48,
          "midi": 57,
          "name": "A3",
          "ticks": 20926,
          "time": 18.164912390625,
          "velocity": 0.2755905511811024
        },
        {
          "duration": 0.04166662500000129,
          "durationTicks": 48,
          "midi": 55,
          "name": "G3",
          "ticks": 20926,
          "time": 18.164912390625,
          "velocity": 0.2755905511811024
        },
        {
          "duration": 0.08333324999999903,
          "durationTicks": 96,
          "midi": 63,
          "name": "D#4",
          "ticks": 20926,
          "time": 18.164912390625,
          "velocity": 0.3228346456692913
        },
        {
          "duration": 0.08333324999999903,
          "durationTicks": 96,
          "midi": 75,
          "name": "D#5",
          "ticks": 20926,
          "time": 18.164912390625,
          "velocity": 0.3228346456692913
        },
        {
          "duration": 0.08333324999999903,
          "durationTicks": 96,
          "midi": 48,
          "name": "C3",
          "ticks": 20926,
          "time": 18.164912390625,
          "velocity": 0.2992125984251969
        },
        {
          "duration": 0.1666665000000016,
          "durationTicks": 192,
          "midi": 64,
          "name": "E4",
          "ticks": 21022,
          "time": 18.248245640624997,
          "velocity": 0.3228346456692913
        },
        {
          "duration": 0.1666665000000016,
          "durationTicks": 192,
          "midi": 76,
          "name": "E5",
          "ticks": 21022,
          "time": 18.248245640624997,
          "velocity": 0.3228346456692913
        },
        {
          "duration": 0.16666649999999805,
          "durationTicks": 192,
          "midi": 36,
          "name": "C2",
          "ticks": 21118,
          "time": 18.331578890625,
          "velocity": 0.3228346456692913
        },
        {
          "duration": 0.16666649999999805,
          "durationTicks": 192,
          "midi": 48,
          "name": "C3",
          "ticks": 21118,
          "time": 18.331578890625,
          "velocity": 0.25984251968503935
        },
        {
          "duration": 0.04166662500000129,
          "durationTicks": 48,
          "midi": 60,
          "name": "C4",
          "ticks": 21310,
          "time": 18.498245390624998,
          "velocity": 0.2755905511811024
        },
        {
          "duration": 0.04166662500000129,
          "durationTicks": 48,
          "midi": 57,
          "name": "A3",
          "ticks": 21310,
          "time": 18.498245390624998,
          "velocity": 0.2755905511811024
        },
        {
          "duration": 0.04166662500000129,
          "durationTicks": 48,
          "midi": 55,
          "name": "G3",
          "ticks": 21310,
          "time": 18.498245390624998,
          "velocity": 0.2755905511811024
        },
        {
          "duration": 0.04166662500000129,
          "durationTicks": 48,
          "midi": 64,
          "name": "E4",
          "ticks": 21310,
          "time": 18.498245390624998,
          "velocity": 0.2755905511811024
        },
        {
          "duration": 0.08333324999999903,
          "durationTicks": 96,
          "midi": 48,
          "name": "C3",
          "ticks": 21310,
          "time": 18.498245390624998,
          "velocity": 0.2992125984251969
        },
        {
          "duration": 0.08333324999999903,
          "durationTicks": 96,
          "midi": 67,
          "name": "G4",
          "ticks": 21502,
          "time": 18.664911890625,
          "velocity": 0.3228346456692913
        },
        {
          "duration": 0.08333324999999903,
          "durationTicks": 96,
          "midi": 79,
          "name": "G5",
          "ticks": 21502,
          "time": 18.664911890625,
          "velocity": 0.3228346456692913
        },
        {
          "duration": 0.16666649999999805,
          "durationTicks": 192,
          "midi": 29,
          "name": "F1",
          "ticks": 21502,
          "time": 18.664911890625,
          "velocity": 0.3228346456692913
        },
        {
          "duration": 0.04166662500000129,
          "durationTicks": 48,
          "midi": 60,
          "name": "C4",
          "ticks": 21694,
          "time": 18.831578390624998,
          "velocity": 0.2755905511811024
        },
        {
          "duration": 0.04166662500000129,
          "durationTicks": 48,
          "midi": 57,
          "name": "A3",
          "ticks": 21694,
          "time": 18.831578390624998,
          "velocity": 0.2755905511811024
        },
        {
          "duration": 0.04166662500000129,
          "durationTicks": 48,
          "midi": 53,
          "name": "F3",
          "ticks": 21694,
          "time": 18.831578390624998,
          "velocity": 0.2755905511811024
        },
        {
          "duration": 0.04166662500000129,
          "durationTicks": 48,
          "midi": 63,
          "name": "D#4",
          "ticks": 21694,
          "time": 18.831578390624998,
          "velocity": 0.2755905511811024
        },
        {
          "duration": 0.08333325000000258,
          "durationTicks": 96,
          "midi": 66,
          "name": "F#4",
          "ticks": 21694,
          "time": 18.831578390624998,
          "velocity": 0.3228346456692913
        },
        {
          "duration": 0.08333325000000258,
          "durationTicks": 96,
          "midi": 78,
          "name": "F#5",
          "ticks": 21694,
          "time": 18.831578390624998,
          "velocity": 0.3228346456692913
        },
        {
          "duration": 0.08333325000000258,
          "durationTicks": 96,
          "midi": 41,
          "name": "F2",
          "ticks": 21694,
          "time": 18.831578390624998,
          "velocity": 0.2992125984251969
        },
        {
          "duration": 0.08333324999999903,
          "durationTicks": 96,
          "midi": 65,
          "name": "F4",
          "ticks": 21886,
          "time": 18.998244890625,
          "velocity": 0.3228346456692913
        },
        {
          "duration": 0.08333324999999903,
          "durationTicks": 96,
          "midi": 77,
          "name": "F5",
          "ticks": 21886,
          "time": 18.998244890625,
          "velocity": 0.3228346456692913
        },
        {
          "duration": 0.16666649999999805,
          "durationTicks": 192,
          "midi": 29,
          "name": "F1",
          "ticks": 21886,
          "time": 18.998244890625,
          "velocity": 0.3228346456692913
        },
        {
          "duration": 0.16666649999999805,
          "durationTicks": 192,
          "midi": 41,
          "name": "F2",
          "ticks": 21886,
          "time": 18.998244890625,
          "velocity": 0.25984251968503935
        },
        {
          "duration": 0.04166662500000129,
          "durationTicks": 48,
          "midi": 57,
          "name": "A3",
          "ticks": 22078,
          "time": 19.164911390624997,
          "velocity": 0.2755905511811024
        },
        {
          "duration": 0.04166662500000129,
          "durationTicks": 48,
          "midi": 60,
          "name": "C4",
          "ticks": 22078,
          "time": 19.164911390624997,
          "velocity": 0.2755905511811024
        },
        {
          "duration": 0.04166662500000129,
          "durationTicks": 48,
          "midi": 63,
          "name": "D#4",
          "ticks": 22078,
          "time": 19.164911390624997,
          "velocity": 0.2755905511811024
        },
        {
          "duration": 0.04166662500000129,
          "durationTicks": 48,
          "midi": 53,
          "name": "F3",
          "ticks": 22078,
          "time": 19.164911390624997,
          "velocity": 0.2755905511811024
        },
        {
          "duration": 0.08333325000000258,
          "durationTicks": 96,
          "midi": 63,
          "name": "D#4",
          "ticks": 22078,
          "time": 19.164911390624997,
          "velocity": 0.3228346456692913
        },
        {
          "duration": 0.08333325000000258,
          "durationTicks": 96,
          "midi": 75,
          "name": "D#5",
          "ticks": 22078,
          "time": 19.164911390624997,
          "velocity": 0.3228346456692913
        },
        {
          "duration": 0.08333325000000258,
          "durationTicks": 96,
          "midi": 41,
          "name": "F2",
          "ticks": 22078,
          "time": 19.164911390624997,
          "velocity": 0.2992125984251969
        },
        {
          "duration": 0.08333324999999903,
          "durationTicks": 96,
          "midi": 64,
          "name": "E4",
          "ticks": 22270,
          "time": 19.331577890625,
          "velocity": 0.3228346456692913
        },
        {
          "duration": 0.08333324999999903,
          "durationTicks": 96,
          "midi": 76,
          "name": "E5",
          "ticks": 22270,
          "time": 19.331577890625,
          "velocity": 0.3228346456692913
        },
        {
          "duration": 0.16666649999999805,
          "durationTicks": 192,
          "midi": 29,
          "name": "F1",
          "ticks": 22270,
          "time": 19.331577890625,
          "velocity": 0.3228346456692913
        },
        {
          "duration": 0.04166662500000129,
          "durationTicks": 48,
          "midi": 60,
          "name": "C4",
          "ticks": 22462,
          "time": 19.498244390624997,
          "velocity": 0.2755905511811024
        },
        {
          "duration": 0.04166662500000129,
          "durationTicks": 48,
          "midi": 57,
          "name": "A3",
          "ticks": 22462,
          "time": 19.498244390624997,
          "velocity": 0.2755905511811024
        },
        {
          "duration": 0.04166662500000129,
          "durationTicks": 48,
          "midi": 53,
          "name": "F3",
          "ticks": 22462,
          "time": 19.498244390624997,
          "velocity": 0.2755905511811024
        },
        {
          "duration": 0.04166662500000129,
          "durationTicks": 48,
          "midi": 63,
          "name": "D#4",
          "ticks": 22462,
          "time": 19.498244390624997,
          "velocity": 0.2755905511811024
        },
        {
          "duration": 0.08333325000000258,
          "durationTicks": 96,
          "midi": 65,
          "name": "F4",
          "ticks": 22462,
          "time": 19.498244390624997,
          "velocity": 0.3228346456692913
        },
        {
          "duration": 0.08333325000000258,
          "durationTicks": 96,
          "midi": 77,
          "name": "F5",
          "ticks": 22462,
          "time": 19.498244390624997,
          "velocity": 0.3228346456692913
        },
        {
          "duration": 0.08333325000000258,
          "durationTicks": 96,
          "midi": 41,
          "name": "F2",
          "ticks": 22462,
          "time": 19.498244390624997,
          "velocity": 0.2992125984251969
        },
        {
          "duration": 0.08333324999999903,
          "durationTicks": 96,
          "midi": 66,
          "name": "F#4",
          "ticks": 22654,
          "time": 19.664910890625,
          "velocity": 0.3228346456692913
        },
        {
          "duration": 0.08333324999999903,
          "durationTicks": 96,
          "midi": 78,
          "name": "F#5",
          "ticks": 22654,
          "time": 19.664910890625,
          "velocity": 0.3228346456692913
        },
        {
          "duration": 0.1666665000000016,
          "durationTicks": 192,
          "midi": 29,
          "name": "F1",
          "ticks": 22654,
          "time": 19.664910890625,
          "velocity": 0.3228346456692913
        },
        {
          "duration": 0.1666665000000016,
          "durationTicks": 192,
          "midi": 41,
          "name": "F2",
          "ticks": 22654,
          "time": 19.664910890625,
          "velocity": 0.25984251968503935
        },
        {
          "duration": 0.04166662499999774,
          "durationTicks": 48,
          "midi": 57,
          "name": "A3",
          "ticks": 22846,
          "time": 19.831577390625,
          "velocity": 0.2755905511811024
        },
        {
          "duration": 0.04166662499999774,
          "durationTicks": 48,
          "midi": 60,
          "name": "C4",
          "ticks": 22846,
          "time": 19.831577390625,
          "velocity": 0.2755905511811024
        },
        {
          "duration": 0.04166662499999774,
          "durationTicks": 48,
          "midi": 63,
          "name": "D#4",
          "ticks": 22846,
          "time": 19.831577390625,
          "velocity": 0.2755905511811024
        },
        {
          "duration": 0.04166662499999774,
          "durationTicks": 48,
          "midi": 53,
          "name": "F3",
          "ticks": 22846,
          "time": 19.831577390625,
          "velocity": 0.2755905511811024
        },
        {
          "duration": 0.08333324999999903,
          "durationTicks": 96,
          "midi": 67,
          "name": "G4",
          "ticks": 22846,
          "time": 19.831577390625,
          "velocity": 0.3228346456692913
        },
        {
          "duration": 0.08333324999999903,
          "durationTicks": 96,
          "midi": 79,
          "name": "G5",
          "ticks": 22846,
          "time": 19.831577390625,
          "velocity": 0.3228346456692913
        },
        {
          "duration": 0.08333324999999903,
          "durationTicks": 96,
          "midi": 41,
          "name": "F2",
          "ticks": 22846,
          "time": 19.831577390625,
          "velocity": 0.2992125984251969
        },
        {
          "duration": 0.08333324999999903,
          "durationTicks": 96,
          "midi": 68,
          "name": "G#4",
          "ticks": 23038,
          "time": 19.998243890624998,
          "velocity": 0.3228346456692913
        },
        {
          "duration": 0.08333324999999903,
          "durationTicks": 96,
          "midi": 80,
          "name": "G#5",
          "ticks": 23038,
          "time": 19.998243890624998,
          "velocity": 0.3228346456692913
        },
        {
          "duration": 0.1666665000000016,
          "durationTicks": 192,
          "midi": 28,
          "name": "E1",
          "ticks": 23038,
          "time": 19.998243890624998,
          "velocity": 0.3228346456692913
        },
        {
          "duration": 0.04166662499999774,
          "durationTicks": 48,
          "midi": 64,
          "name": "E4",
          "ticks": 23230,
          "time": 20.164910390625,
          "velocity": 0.2755905511811024
        },
        {
          "duration": 0.04166662499999774,
          "durationTicks": 48,
          "midi": 59,
          "name": "B3",
          "ticks": 23230,
          "time": 20.164910390625,
          "velocity": 0.2755905511811024
        },
        {
          "duration": 0.04166662499999774,
          "durationTicks": 48,
          "midi": 56,
          "name": "G#3",
          "ticks": 23230,
          "time": 20.164910390625,
          "velocity": 0.2755905511811024
        },
        {
          "duration": 0.08333324999999903,
          "durationTicks": 96,
          "midi": 68,
          "name": "G#4",
          "ticks": 23230,
          "time": 20.164910390625,
          "velocity": 0.3228346456692913
        },
        {
          "duration": 0.08333324999999903,
          "durationTicks": 96,
          "midi": 80,
          "name": "G#5",
          "ticks": 23230,
          "time": 20.164910390625,
          "velocity": 0.3228346456692913
        },
        {
          "duration": 0.08333324999999903,
          "durationTicks": 96,
          "midi": 40,
          "name": "E2",
          "ticks": 23230,
          "time": 20.164910390625,
          "velocity": 0.2992125984251969
        },
        {
          "duration": 0.08333324999999903,
          "durationTicks": 96,
          "midi": 69,
          "name": "A4",
          "ticks": 23422,
          "time": 20.331576890624998,
          "velocity": 0.3228346456692913
        },
        {
          "duration": 0.08333324999999903,
          "durationTicks": 96,
          "midi": 81,
          "name": "A5",
          "ticks": 23422,
          "time": 20.331576890624998,
          "velocity": 0.3228346456692913
        },
        {
          "duration": 0.1666665000000016,
          "durationTicks": 192,
          "midi": 28,
          "name": "E1",
          "ticks": 23422,
          "time": 20.331576890624998,
          "velocity": 0.3228346456692913
        },
        {
          "duration": 0.1666665000000016,
          "durationTicks": 192,
          "midi": 40,
          "name": "E2",
          "ticks": 23422,
          "time": 20.331576890624998,
          "velocity": 0.25984251968503935
        },
        {
          "duration": 0.04166662499999774,
          "durationTicks": 48,
          "midi": 64,
          "name": "E4",
          "ticks": 23614,
          "time": 20.498243390625,
          "velocity": 0.2755905511811024
        },
        {
          "duration": 0.04166662499999774,
          "durationTicks": 48,
          "midi": 56,
          "name": "G#3",
          "ticks": 23614,
          "time": 20.498243390625,
          "velocity": 0.2755905511811024
        },
        {
          "duration": 0.04166662499999774,
          "durationTicks": 48,
          "midi": 59,
          "name": "B3",
          "ticks": 23614,
          "time": 20.498243390625,
          "velocity": 0.2755905511811024
        },
        {
          "duration": 0.08333324999999903,
          "durationTicks": 96,
          "midi": 69,
          "name": "A4",
          "ticks": 23614,
          "time": 20.498243390625,
          "velocity": 0.3228346456692913
        },
        {
          "duration": 0.08333324999999903,
          "durationTicks": 96,
          "midi": 81,
          "name": "A5",
          "ticks": 23614,
          "time": 20.498243390625,
          "velocity": 0.3228346456692913
        },
        {
          "duration": 0.08333324999999903,
          "durationTicks": 96,
          "midi": 40,
          "name": "E2",
          "ticks": 23614,
          "time": 20.498243390625,
          "velocity": 0.2992125984251969
        },
        {
          "duration": 0.33333299999999966,
          "durationTicks": 384,
          "midi": 71,
          "name": "B4",
          "ticks": 23806,
          "time": 20.664909890624998,
          "velocity": 0.3228346456692913
        },
        {
          "duration": 0.33333299999999966,
          "durationTicks": 384,
          "midi": 83,
          "name": "B5",
          "ticks": 23806,
          "time": 20.664909890624998,
          "velocity": 0.3228346456692913
        },
        {
          "duration": 0.1666665000000016,
          "durationTicks": 192,
          "midi": 28,
          "name": "E1",
          "ticks": 23806,
          "time": 20.664909890624998,
          "velocity": 0.3228346456692913
        },
        {
          "duration": 0.04166662499999774,
          "durationTicks": 48,
          "midi": 64,
          "name": "E4",
          "ticks": 23998,
          "time": 20.831576390625,
          "velocity": 0.2755905511811024
        },
        {
          "duration": 0.04166662499999774,
          "durationTicks": 48,
          "midi": 56,
          "name": "G#3",
          "ticks": 23998,
          "time": 20.831576390625,
          "velocity": 0.2755905511811024
        },
        {
          "duration": 0.04166662499999774,
          "durationTicks": 48,
          "midi": 52,
          "name": "E3",
          "ticks": 23998,
          "time": 20.831576390625,
          "velocity": 0.2755905511811024
        },
        {
          "duration": 0.04166662499999774,
          "durationTicks": 48,
          "midi": 59,
          "name": "B3",
          "ticks": 23998,
          "time": 20.831576390625,
          "velocity": 0.2755905511811024
        },
        {
          "duration": 0.08333324999999903,
          "durationTicks": 96,
          "midi": 52,
          "name": "E3",
          "ticks": 23998,
          "time": 20.831576390625,
          "velocity": 0.3228346456692913
        },
        {
          "duration": 0.08333324999999903,
          "durationTicks": 96,
          "midi": 64,
          "name": "E4",
          "ticks": 23998,
          "time": 20.831576390625,
          "velocity": 0.3228346456692913
        },
        {
          "duration": 0.08333324999999903,
          "durationTicks": 96,
          "midi": 40,
          "name": "E2",
          "ticks": 23998,
          "time": 20.831576390625,
          "velocity": 0.2992125984251969
        },
        {
          "duration": 0.04166662500000129,
          "durationTicks": 48,
          "midi": 54,
          "name": "F#3",
          "ticks": 24190,
          "time": 20.998242890624997,
          "velocity": 0.2755905511811024
        },
        {
          "duration": 0.08333325000000258,
          "durationTicks": 96,
          "midi": 54,
          "name": "F#3",
          "ticks": 24190,
          "time": 20.998242890624997,
          "velocity": 0.3228346456692913
        },
        {
          "duration": 0.08333325000000258,
          "durationTicks": 96,
          "midi": 66,
          "name": "F#4",
          "ticks": 24190,
          "time": 20.998242890624997,
          "velocity": 0.3228346456692913
        },
        {
          "duration": 0.08333325000000258,
          "durationTicks": 96,
          "midi": 42,
          "name": "F#2",
          "ticks": 24190,
          "time": 20.998242890624997,
          "velocity": 0.2992125984251969
        },
        {
          "duration": 0.1666665000000016,
          "durationTicks": 192,
          "midi": 28,
          "name": "E1",
          "ticks": 24190,
          "time": 20.998242890624997,
          "velocity": 0.3228346456692913
        },
        {
          "duration": 0.3333330000000032,
          "durationTicks": 384,
          "midi": 40,
          "name": "E2",
          "ticks": 24190,
          "time": 20.998242890624997,
          "velocity": 0.31496062992125984
        },
        {
          "duration": 0.04166662500000129,
          "durationTicks": 48,
          "midi": 56,
          "name": "G#3",
          "ticks": 24382,
          "time": 21.164909390625,
          "velocity": 0.2755905511811024
        },
        {
          "duration": 0.04166662500000129,
          "durationTicks": 48,
          "midi": 64,
          "name": "E4",
          "ticks": 24382,
          "time": 21.164909390625,
          "velocity": 0.2755905511811024
        },
        {
          "duration": 0.04166662500000129,
          "durationTicks": 48,
          "midi": 59,
          "name": "B3",
          "ticks": 24382,
          "time": 21.164909390625,
          "velocity": 0.2755905511811024
        },
        {
          "duration": 0.08333324999999903,
          "durationTicks": 96,
          "midi": 56,
          "name": "G#3",
          "ticks": 24382,
          "time": 21.164909390625,
          "velocity": 0.3228346456692913
        },
        {
          "duration": 0.08333324999999903,
          "durationTicks": 96,
          "midi": 68,
          "name": "G#4",
          "ticks": 24382,
          "time": 21.164909390625,
          "velocity": 0.3228346456692913
        },
        {
          "duration": 0.08333324999999903,
          "durationTicks": 96,
          "midi": 44,
          "name": "G#2",
          "ticks": 24382,
          "time": 21.164909390625,
          "velocity": 0.2992125984251969
        },
        {
          "duration": 0.1666665000000016,
          "durationTicks": 192,
          "midi": 57,
          "name": "A3",
          "ticks": 24574,
          "time": 21.331575890625,
          "velocity": 0.3228346456692913
        },
        {
          "duration": 0.1666665000000016,
          "durationTicks": 192,
          "midi": 69,
          "name": "A4",
          "ticks": 24574,
          "time": 21.331575890625,
          "velocity": 0.3228346456692913
        },
        {
          "duration": 0.1666665000000016,
          "durationTicks": 192,
          "midi": 33,
          "name": "A1",
          "ticks": 24574,
          "time": 21.331575890625,
          "velocity": 0.3228346456692913
        },
        {
          "duration": 0.1666665000000016,
          "durationTicks": 192,
          "midi": 81,
          "name": "A5",
          "ticks": 24574,
          "time": 21.331575890625,
          "velocity": 0.29133858267716534
        },
        {
          "duration": 0.04166662499999774,
          "durationTicks": 48,
          "midi": 60,
          "name": "C4",
          "ticks": 24766,
          "time": 21.498242390625002,
          "velocity": 0.2755905511811024
        },
        {
          "duration": 0.04166662499999774,
          "durationTicks": 48,
          "midi": 57,
          "name": "A3",
          "ticks": 24766,
          "time": 21.498242390625002,
          "velocity": 0.2755905511811024
        },
        {
          "duration": 0.04166662499999774,
          "durationTicks": 48,
          "midi": 64,
          "name": "E4",
          "ticks": 24766,
          "time": 21.498242390625002,
          "velocity": 0.2755905511811024
        },
        {
          "duration": 0.08333324999999903,
          "durationTicks": 96,
          "midi": 45,
          "name": "A2",
          "ticks": 24766,
          "time": 21.498242390625002,
          "velocity": 0.2992125984251969
        },
        {
          "duration": 0.1666665000000016,
          "durationTicks": 192,
          "midi": 60,
          "name": "C4",
          "ticks": 24958,
          "time": 21.664908890625,
          "velocity": 0.3228346456692913
        },
        {
          "duration": 0.1666665000000016,
          "durationTicks": 192,
          "midi": 72,
          "name": "C5",
          "ticks": 24958,
          "time": 21.664908890625,
          "velocity": 0.3228346456692913
        },
        {
          "duration": 0.1666665000000016,
          "durationTicks": 192,
          "midi": 33,
          "name": "A1",
          "ticks": 24958,
          "time": 21.664908890625,
          "velocity": 0.3228346456692913
        },
        {
          "duration": 0.1666665000000016,
          "durationTicks": 192,
          "midi": 45,
          "name": "A2",
          "ticks": 24958,
          "time": 21.664908890625,
          "velocity": 0.29133858267716534
        },
        {
          "duration": 0.1666665000000016,
          "durationTicks": 192,
          "midi": 84,
          "name": "C6",
          "ticks": 24958,
          "time": 21.664908890625,
          "velocity": 0.29133858267716534
        },
        {
          "duration": 0.04166662499999774,
          "durationTicks": 48,
          "midi": 60,
          "name": "C4",
          "ticks": 25150,
          "time": 21.831575390625,
          "velocity": 0.2755905511811024
        },
        {
          "duration": 0.04166662499999774,
          "durationTicks": 48,
          "midi": 57,
          "name": "A3",
          "ticks": 25150,
          "time": 21.831575390625,
          "velocity": 0.2755905511811024
        },
        {
          "duration": 0.04166662499999774,
          "durationTicks": 48,
          "midi": 64,
          "name": "E4",
          "ticks": 25150,
          "time": 21.831575390625,
          "velocity": 0.2755905511811024
        },
        {
          "duration": 0.08333324999999903,
          "durationTicks": 96,
          "midi": 45,
          "name": "A2",
          "ticks": 25150,
          "time": 21.831575390625,
          "velocity": 0.2992125984251969
        },
        {
          "duration": 0.04166662500000129,
          "durationTicks": 48,
          "midi": 33,
          "name": "A1",
          "ticks": 25246,
          "time": 21.914908640625,
          "velocity": 0.25196850393700787
        },
        {
          "duration": 0.24999975000000063,
          "durationTicks": 288,
          "midi": 63,
          "name": "D#4",
          "ticks": 25342,
          "time": 21.998241890625,
          "velocity": 0.3228346456692913
        },
        {
          "duration": 0.24999975000000063,
          "durationTicks": 288,
          "midi": 75,
          "name": "D#5",
          "ticks": 25342,
          "time": 21.998241890625,
          "velocity": 0.3228346456692913
        },
        {
          "duration": 0.1666665000000016,
          "durationTicks": 192,
          "midi": 33,
          "name": "A1",
          "ticks": 25342,
          "time": 21.998241890625,
          "velocity": 0.3228346456692913
        },
        {
          "duration": 0.24999975000000063,
          "durationTicks": 288,
          "midi": 87,
          "name": "D#6",
          "ticks": 25342,
          "time": 21.998241890625,
          "velocity": 0.29133858267716534
        },
        {
          "duration": 0.04166662500000129,
          "durationTicks": 48,
          "midi": 64,
          "name": "E4",
          "ticks": 25534,
          "time": 22.164908390625,
          "velocity": 0.2755905511811024
        },
        {
          "duration": 0.04166662500000129,
          "durationTicks": 48,
          "midi": 57,
          "name": "A3",
          "ticks": 25534,
          "time": 22.164908390625,
          "velocity": 0.2755905511811024
        },
        {
          "duration": 0.04166662500000129,
          "durationTicks": 48,
          "midi": 60,
          "name": "C4",
          "ticks": 25534,
          "time": 22.164908390625,
          "velocity": 0.2755905511811024
        },
        {
          "duration": 0.08333324999999903,
          "durationTicks": 96,
          "midi": 45,
          "name": "A2",
          "ticks": 25534,
          "time": 22.164908390625,
          "velocity": 0.2992125984251969
        },
        {
          "duration": 0.08333324999999903,
          "durationTicks": 96,
          "midi": 64,
          "name": "E4",
          "ticks": 25630,
          "time": 22.248241640625,
          "velocity": 0.3228346456692913
        },
        {
          "duration": 0.08333324999999903,
          "durationTicks": 96,
          "midi": 76,
          "name": "E5",
          "ticks": 25630,
          "time": 22.248241640625,
          "velocity": 0.3228346456692913
        },
        {
          "duration": 0.08333324999999903,
          "durationTicks": 96,
          "midi": 88,
          "name": "E6",
          "ticks": 25630,
          "time": 22.248241640625,
          "velocity": 0.29133858267716534
        },
        {
          "duration": 0.1666665000000016,
          "durationTicks": 192,
          "midi": 33,
          "name": "A1",
          "ticks": 25726,
          "time": 22.331574890625,
          "velocity": 0.3228346456692913
        },
        {
          "duration": 0.1666665000000016,
          "durationTicks": 192,
          "midi": 45,
          "name": "A2",
          "ticks": 25726,
          "time": 22.331574890625,
          "velocity": 0.29133858267716534
        },
        {
          "duration": 0.04166662500000129,
          "durationTicks": 48,
          "midi": 64,
          "name": "E4",
          "ticks": 25918,
          "time": 22.498241390625,
          "velocity": 0.2755905511811024
        },
        {
          "duration": 0.04166662500000129,
          "durationTicks": 48,
          "midi": 57,
          "name": "A3",
          "ticks": 25918,
          "time": 22.498241390625,
          "velocity": 0.2755905511811024
        },
        {
          "duration": 0.04166662500000129,
          "durationTicks": 48,
          "midi": 60,
          "name": "C4",
          "ticks": 25918,
          "time": 22.498241390625,
          "velocity": 0.2755905511811024
        },
        {
          "duration": 0.08333324999999903,
          "durationTicks": 96,
          "midi": 56,
          "name": "G#3",
          "ticks": 25918,
          "time": 22.498241390625,
          "velocity": 0.3228346456692913
        },
        {
          "duration": 0.08333324999999903,
          "durationTicks": 96,
          "midi": 68,
          "name": "G#4",
          "ticks": 25918,
          "time": 22.498241390625,
          "velocity": 0.3228346456692913
        },
        {
          "duration": 0.08333324999999903,
          "durationTicks": 96,
          "midi": 45,
          "name": "A2",
          "ticks": 25918,
          "time": 22.498241390625,
          "velocity": 0.2992125984251969
        },
        {
          "duration": 0.08333324999999903,
          "durationTicks": 96,
          "midi": 80,
          "name": "G#5",
          "ticks": 25918,
          "time": 22.498241390625,
          "velocity": 0.29133858267716534
        },
        {
          "duration": 0.04166662500000129,
          "durationTicks": 48,
          "midi": 33,
          "name": "A1",
          "ticks": 26014,
          "time": 22.581574640625,
          "velocity": 0.25196850393700787
        },
        {
          "duration": 0.08333324999999903,
          "durationTicks": 96,
          "midi": 57,
          "name": "A3",
          "ticks": 26110,
          "time": 22.664907890625003,
          "velocity": 0.3228346456692913
        },
        {
          "duration": 0.08333324999999903,
          "durationTicks": 96,
          "midi": 69,
          "name": "A4",
          "ticks": 26110,
          "time": 22.664907890625003,
          "velocity": 0.3228346456692913
        },
        {
          "duration": 0.16666649999999805,
          "durationTicks": 192,
          "midi": 36,
          "name": "C2",
          "ticks": 26110,
          "time": 22.664907890625003,
          "velocity": 0.3228346456692913
        },
        {
          "duration": 0.08333324999999903,
          "durationTicks": 96,
          "midi": 81,
          "name": "A5",
          "ticks": 26110,
          "time": 22.664907890625003,
          "velocity": 0.29133858267716534
        },
        {
          "duration": 0.04166662500000129,
          "durationTicks": 48,
          "midi": 64,
          "name": "E4",
          "ticks": 26302,
          "time": 22.831574390625,
          "velocity": 0.2755905511811024
        },
        {
          "duration": 0.04166662500000129,
          "durationTicks": 48,
          "midi": 57,
          "name": "A3",
          "ticks": 26302,
          "time": 22.831574390625,
          "velocity": 0.2755905511811024
        },
        {
          "duration": 0.04166662500000129,
          "durationTicks": 48,
          "midi": 55,
          "name": "G3",
          "ticks": 26302,
          "time": 22.831574390625,
          "velocity": 0.2755905511811024
        },
        {
          "duration": 0.04166662500000129,
          "durationTicks": 48,
          "midi": 60,
          "name": "C4",
          "ticks": 26302,
          "time": 22.831574390625,
          "velocity": 0.2755905511811024
        },
        {
          "duration": 0.08333324999999903,
          "durationTicks": 96,
          "midi": 60,
          "name": "C4",
          "ticks": 26302,
          "time": 22.831574390625,
          "velocity": 0.3228346456692913
        },
        {
          "duration": 0.08333324999999903,
          "durationTicks": 96,
          "midi": 72,
          "name": "C5",
          "ticks": 26302,
          "time": 22.831574390625,
          "velocity": 0.3228346456692913
        },
        {
          "duration": 0.08333324999999903,
          "durationTicks": 96,
          "midi": 48,
          "name": "C3",
          "ticks": 26302,
          "time": 22.831574390625,
          "velocity": 0.2992125984251969
        },
        {
          "duration": 0.08333324999999903,
          "durationTicks": 96,
          "midi": 84,
          "name": "C6",
          "ticks": 26302,
          "time": 22.831574390625,
          "velocity": 0.29133858267716534
        },
        {
          "duration": 0.08333324999999903,
          "durationTicks": 96,
          "midi": 62,
          "name": "D4",
          "ticks": 26494,
          "time": 22.998240890625002,
          "velocity": 0.3228346456692913
        },
        {
          "duration": 0.08333324999999903,
          "durationTicks": 96,
          "midi": 74,
          "name": "D5",
          "ticks": 26494,
          "time": 22.998240890625002,
          "velocity": 0.3228346456692913
        },
        {
          "duration": 0.16666649999999805,
          "durationTicks": 192,
          "midi": 36,
          "name": "C2",
          "ticks": 26494,
          "time": 22.998240890625002,
          "velocity": 0.3228346456692913
        },
        {
          "duration": 0.16666649999999805,
          "durationTicks": 192,
          "midi": 48,
          "name": "C3",
          "ticks": 26494,
          "time": 22.998240890625002,
          "velocity": 0.29133858267716534
        },
        {
          "duration": 0.08333324999999903,
          "durationTicks": 96,
          "midi": 86,
          "name": "D6",
          "ticks": 26494,
          "time": 22.998240890625002,
          "velocity": 0.29133858267716534
        },
        {
          "duration": 0.04166662500000129,
          "durationTicks": 48,
          "midi": 60,
          "name": "C4",
          "ticks": 26686,
          "time": 23.164907390625,
          "velocity": 0.2755905511811024
        },
        {
          "duration": 0.04166662500000129,
          "durationTicks": 48,
          "midi": 55,
          "name": "G3",
          "ticks": 26686,
          "time": 23.164907390625,
          "velocity": 0.2755905511811024
        },
        {
          "duration": 0.04166662500000129,
          "durationTicks": 48,
          "midi": 64,
          "name": "E4",
          "ticks": 26686,
          "time": 23.164907390625,
          "velocity": 0.2755905511811024
        },
        {
          "duration": 0.04166662500000129,
          "durationTicks": 48,
          "midi": 57,
          "name": "A3",
          "ticks": 26686,
          "time": 23.164907390625,
          "velocity": 0.2755905511811024
        },
        {
          "duration": 0.08333324999999903,
          "durationTicks": 96,
          "midi": 60,
          "name": "C4",
          "ticks": 26686,
          "time": 23.164907390625,
          "velocity": 0.3228346456692913
        },
        {
          "duration": 0.08333324999999903,
          "durationTicks": 96,
          "midi": 72,
          "name": "C5",
          "ticks": 26686,
          "time": 23.164907390625,
          "velocity": 0.3228346456692913
        },
        {
          "duration": 0.08333324999999903,
          "durationTicks": 96,
          "midi": 48,
          "name": "C3",
          "ticks": 26686,
          "time": 23.164907390625,
          "velocity": 0.2992125984251969
        },
        {
          "duration": 0.08333324999999903,
          "durationTicks": 96,
          "midi": 84,
          "name": "C6",
          "ticks": 26686,
          "time": 23.164907390625,
          "velocity": 0.29133858267716534
        },
        {
          "duration": 0.04166662500000129,
          "durationTicks": 48,
          "midi": 36,
          "name": "C2",
          "ticks": 26782,
          "time": 23.248240640625,
          "velocity": 0.25196850393700787
        },
        {
          "duration": 0.08333324999999903,
          "durationTicks": 96,
          "midi": 63,
          "name": "D#4",
          "ticks": 26878,
          "time": 23.331573890625002,
          "velocity": 0.3228346456692913
        },
        {
          "duration": 0.08333324999999903,
          "durationTicks": 96,
          "midi": 75,
          "name": "D#5",
          "ticks": 26878,
          "time": 23.331573890625002,
          "velocity": 0.3228346456692913
        },
        {
          "duration": 0.16666649999999805,
          "durationTicks": 192,
          "midi": 36,
          "name": "C2",
          "ticks": 26878,
          "time": 23.331573890625002,
          "velocity": 0.3228346456692913
        },
        {
          "duration": 0.08333324999999903,
          "durationTicks": 96,
          "midi": 87,
          "name": "D#6",
          "ticks": 26878,
          "time": 23.331573890625002,
          "velocity": 0.29133858267716534
        },
        {
          "duration": 0.04166662500000129,
          "durationTicks": 48,
          "midi": 64,
          "name": "E4",
          "ticks": 27070,
          "time": 23.498240390625,
          "velocity": 0.2755905511811024
        },
        {
          "duration": 0.04166662500000129,
          "durationTicks": 48,
          "midi": 57,
          "name": "A3",
          "ticks": 27070,
          "time": 23.498240390625,
          "velocity": 0.2755905511811024
        },
        {
          "duration": 0.04166662500000129,
          "durationTicks": 48,
          "midi": 55,
          "name": "G3",
          "ticks": 27070,
          "time": 23.498240390625,
          "velocity": 0.2755905511811024
        },
        {
          "duration": 0.04166662500000129,
          "durationTicks": 48,
          "midi": 60,
          "name": "C4",
          "ticks": 27070,
          "time": 23.498240390625,
          "velocity": 0.2755905511811024
        },
        {
          "duration": 0.08333325000000258,
          "durationTicks": 96,
          "midi": 63,
          "name": "D#4",
          "ticks": 27070,
          "time": 23.498240390625,
          "velocity": 0.3228346456692913
        },
        {
          "duration": 0.08333325000000258,
          "durationTicks": 96,
          "midi": 75,
          "name": "D#5",
          "ticks": 27070,
          "time": 23.498240390625,
          "velocity": 0.3228346456692913
        },
        {
          "duration": 0.08333325000000258,
          "durationTicks": 96,
          "midi": 48,
          "name": "C3",
          "ticks": 27070,
          "time": 23.498240390625,
          "velocity": 0.2992125984251969
        },
        {
          "duration": 0.08333325000000258,
          "durationTicks": 96,
          "midi": 87,
          "name": "D#6",
          "ticks": 27070,
          "time": 23.498240390625,
          "velocity": 0.29133858267716534
        },
        {
          "duration": 0.16666649999999805,
          "durationTicks": 192,
          "midi": 64,
          "name": "E4",
          "ticks": 27166,
          "time": 23.581573640625002,
          "velocity": 0.3228346456692913
        },
        {
          "duration": 0.16666649999999805,
          "durationTicks": 192,
          "midi": 76,
          "name": "E5",
          "ticks": 27166,
          "time": 23.581573640625002,
          "velocity": 0.3228346456692913
        },
        {
          "duration": 0.16666649999999805,
          "durationTicks": 192,
          "midi": 88,
          "name": "E6",
          "ticks": 27166,
          "time": 23.581573640625002,
          "velocity": 0.29133858267716534
        },
        {
          "duration": 0.16666649999999805,
          "durationTicks": 192,
          "midi": 36,
          "name": "C2",
          "ticks": 27262,
          "time": 23.664906890625,
          "velocity": 0.3228346456692913
        },
        {
          "duration": 0.16666649999999805,
          "durationTicks": 192,
          "midi": 48,
          "name": "C3",
          "ticks": 27262,
          "time": 23.664906890625,
          "velocity": 0.29133858267716534
        },
        {
          "duration": 0.04166662500000129,
          "durationTicks": 48,
          "midi": 60,
          "name": "C4",
          "ticks": 27454,
          "time": 23.831573390625,
          "velocity": 0.2755905511811024
        },
        {
          "duration": 0.04166662500000129,
          "durationTicks": 48,
          "midi": 55,
          "name": "G3",
          "ticks": 27454,
          "time": 23.831573390625,
          "velocity": 0.2755905511811024
        },
        {
          "duration": 0.04166662500000129,
          "durationTicks": 48,
          "midi": 64,
          "name": "E4",
          "ticks": 27454,
          "time": 23.831573390625,
          "velocity": 0.2755905511811024
        },
        {
          "duration": 0.04166662500000129,
          "durationTicks": 48,
          "midi": 57,
          "name": "A3",
          "ticks": 27454,
          "time": 23.831573390625,
          "velocity": 0.2755905511811024
        },
        {
          "duration": 0.08333325000000258,
          "durationTicks": 96,
          "midi": 48,
          "name": "C3",
          "ticks": 27454,
          "time": 23.831573390625,
          "velocity": 0.2992125984251969
        },
        {
          "duration": 0.04166662499999774,
          "durationTicks": 48,
          "midi": 36,
          "name": "C2",
          "ticks": 27550,
          "time": 23.914906640625002,
          "velocity": 0.25196850393700787
        },
        {
          "duration": 0.08333324999999903,
          "durationTicks": 96,
          "midi": 67,
          "name": "G4",
          "ticks": 27646,
          "time": 23.998239890625,
          "velocity": 0.3228346456692913
        },
        {
          "duration": 0.08333324999999903,
          "durationTicks": 96,
          "midi": 79,
          "name": "G5",
          "ticks": 27646,
          "time": 23.998239890625,
          "velocity": 0.3228346456692913
        },
        {
          "duration": 0.16666649999999805,
          "durationTicks": 192,
          "midi": 29,
          "name": "F1",
          "ticks": 27646,
          "time": 23.998239890625,
          "velocity": 0.3228346456692913
        },
        {
          "duration": 0.08333324999999903,
          "durationTicks": 96,
          "midi": 91,
          "name": "G6",
          "ticks": 27646,
          "time": 23.998239890625,
          "velocity": 0.29133858267716534
        },
        {
          "duration": 0.04166662500000129,
          "durationTicks": 48,
          "midi": 63,
          "name": "D#4",
          "ticks": 27838,
          "time": 24.164906390625,
          "velocity": 0.2755905511811024
        },
        {
          "duration": 0.04166662500000129,
          "durationTicks": 48,
          "midi": 53,
          "name": "F3",
          "ticks": 27838,
          "time": 24.164906390625,
          "velocity": 0.2755905511811024
        },
        {
          "duration": 0.04166662500000129,
          "durationTicks": 48,
          "midi": 57,
          "name": "A3",
          "ticks": 27838,
          "time": 24.164906390625,
          "velocity": 0.2755905511811024
        },
        {
          "duration": 0.04166662500000129,
          "durationTicks": 48,
          "midi": 60,
          "name": "C4",
          "ticks": 27838,
          "time": 24.164906390625,
          "velocity": 0.2755905511811024
        },
        {
          "duration": 0.08333325000000258,
          "durationTicks": 96,
          "midi": 66,
          "name": "F#4",
          "ticks": 27838,
          "time": 24.164906390625,
          "velocity": 0.3228346456692913
        },
        {
          "duration": 0.08333325000000258,
          "durationTicks": 96,
          "midi": 78,
          "name": "F#5",
          "ticks": 27838,
          "time": 24.164906390625,
          "velocity": 0.3228346456692913
        },
        {
          "duration": 0.08333325000000258,
          "durationTicks": 96,
          "midi": 41,
          "name": "F2",
          "ticks": 27838,
          "time": 24.164906390625,
          "velocity": 0.2992125984251969
        },
        {
          "duration": 0.08333325000000258,
          "durationTicks": 96,
          "midi": 90,
          "name": "F#6",
          "ticks": 27838,
          "time": 24.164906390625,
          "velocity": 0.29133858267716534
        },
        {
          "duration": 0.08333324999999903,
          "durationTicks": 96,
          "midi": 65,
          "name": "F4",
          "ticks": 28030,
          "time": 24.331572890625,
          "velocity": 0.3228346456692913
        },
        {
          "duration": 0.08333324999999903,
          "durationTicks": 96,
          "midi": 77,
          "name": "F5",
          "ticks": 28030,
          "time": 24.331572890625,
          "velocity": 0.3228346456692913
        },
        {
          "duration": 0.1666665000000016,
          "durationTicks": 192,
          "midi": 29,
          "name": "F1",
          "ticks": 28030,
          "time": 24.331572890625,
          "velocity": 0.3228346456692913
        },
        {
          "duration": 0.1666665000000016,
          "durationTicks": 192,
          "midi": 41,
          "name": "F2",
          "ticks": 28030,
          "time": 24.331572890625,
          "velocity": 0.29133858267716534
        },
        {
          "duration": 0.08333324999999903,
          "durationTicks": 96,
          "midi": 89,
          "name": "F6",
          "ticks": 28030,
          "time": 24.331572890625,
          "velocity": 0.29133858267716534
        },
        {
          "duration": 0.04166662499999774,
          "durationTicks": 48,
          "midi": 57,
          "name": "A3",
          "ticks": 28222,
          "time": 24.498239390625002,
          "velocity": 0.2755905511811024
        },
        {
          "duration": 0.04166662499999774,
          "durationTicks": 48,
          "midi": 63,
          "name": "D#4",
          "ticks": 28222,
          "time": 24.498239390625002,
          "velocity": 0.2755905511811024
        },
        {
          "duration": 0.04166662499999774,
          "durationTicks": 48,
          "midi": 53,
          "name": "F3",
          "ticks": 28222,
          "time": 24.498239390625002,
          "velocity": 0.2755905511811024
        },
        {
          "duration": 0.04166662499999774,
          "durationTicks": 48,
          "midi": 60,
          "name": "C4",
          "ticks": 28222,
          "time": 24.498239390625002,
          "velocity": 0.2755905511811024
        },
        {
          "duration": 0.08333324999999903,
          "durationTicks": 96,
          "midi": 63,
          "name": "D#4",
          "ticks": 28222,
          "time": 24.498239390625002,
          "velocity": 0.3228346456692913
        },
        {
          "duration": 0.08333324999999903,
          "durationTicks": 96,
          "midi": 75,
          "name": "D#5",
          "ticks": 28222,
          "time": 24.498239390625002,
          "velocity": 0.3228346456692913
        },
        {
          "duration": 0.08333324999999903,
          "durationTicks": 96,
          "midi": 41,
          "name": "F2",
          "ticks": 28222,
          "time": 24.498239390625002,
          "velocity": 0.2992125984251969
        },
        {
          "duration": 0.08333324999999903,
          "durationTicks": 96,
          "midi": 87,
          "name": "D#6",
          "ticks": 28222,
          "time": 24.498239390625002,
          "velocity": 0.29133858267716534
        },
        {
          "duration": 0.04166662499999774,
          "durationTicks": 48,
          "midi": 29,
          "name": "F1",
          "ticks": 28318,
          "time": 24.581572640625,
          "velocity": 0.25196850393700787
        },
        {
          "duration": 0.08333324999999903,
          "durationTicks": 96,
          "midi": 62,
          "name": "D4",
          "ticks": 28414,
          "time": 24.664905890625,
          "velocity": 0.3228346456692913
        },
        {
          "duration": 0.08333324999999903,
          "durationTicks": 96,
          "midi": 74,
          "name": "D5",
          "ticks": 28414,
          "time": 24.664905890625,
          "velocity": 0.3228346456692913
        },
        {
          "duration": 0.1666665000000016,
          "durationTicks": 192,
          "midi": 29,
          "name": "F1",
          "ticks": 28414,
          "time": 24.664905890625,
          "velocity": 0.3228346456692913
        },
        {
          "duration": 0.08333324999999903,
          "durationTicks": 96,
          "midi": 86,
          "name": "D6",
          "ticks": 28414,
          "time": 24.664905890625,
          "velocity": 0.29133858267716534
        },
        {
          "duration": 0.04166662499999774,
          "durationTicks": 48,
          "midi": 63,
          "name": "D#4",
          "ticks": 28606,
          "time": 24.831572390625002,
          "velocity": 0.2755905511811024
        },
        {
          "duration": 0.04166662499999774,
          "durationTicks": 48,
          "midi": 53,
          "name": "F3",
          "ticks": 28606,
          "time": 24.831572390625002,
          "velocity": 0.2755905511811024
        },
        {
          "duration": 0.04166662499999774,
          "durationTicks": 48,
          "midi": 57,
          "name": "A3",
          "ticks": 28606,
          "time": 24.831572390625002,
          "velocity": 0.2755905511811024
        },
        {
          "duration": 0.04166662499999774,
          "durationTicks": 48,
          "midi": 60,
          "name": "C4",
          "ticks": 28606,
          "time": 24.831572390625002,
          "velocity": 0.2755905511811024
        },
        {
          "duration": 0.08333324999999903,
          "durationTicks": 96,
          "midi": 60,
          "name": "C4",
          "ticks": 28606,
          "time": 24.831572390625002,
          "velocity": 0.3228346456692913
        },
        {
          "duration": 0.08333324999999903,
          "durationTicks": 96,
          "midi": 72,
          "name": "C5",
          "ticks": 28606,
          "time": 24.831572390625002,
          "velocity": 0.3228346456692913
        },
        {
          "duration": 0.08333324999999903,
          "durationTicks": 96,
          "midi": 41,
          "name": "F2",
          "ticks": 28606,
          "time": 24.831572390625002,
          "velocity": 0.2992125984251969
        },
        {
          "duration": 0.08333324999999903,
          "durationTicks": 96,
          "midi": 84,
          "name": "C6",
          "ticks": 28606,
          "time": 24.831572390625002,
          "velocity": 0.29133858267716534
        },
        {
          "duration": 0.08333324999999903,
          "durationTicks": 96,
          "midi": 59,
          "name": "B3",
          "ticks": 28798,
          "time": 24.998238890625,
          "velocity": 0.3228346456692913
        },
        {
          "duration": 0.08333324999999903,
          "durationTicks": 96,
          "midi": 71,
          "name": "B4",
          "ticks": 28798,
          "time": 24.998238890625,
          "velocity": 0.3228346456692913
        },
        {
          "duration": 0.1666665000000016,
          "durationTicks": 192,
          "midi": 29,
          "name": "F1",
          "ticks": 28798,
          "time": 24.998238890625,
          "velocity": 0.3228346456692913
        },
        {
          "duration": 0.1666665000000016,
          "durationTicks": 192,
          "midi": 41,
          "name": "F2",
          "ticks": 28798,
          "time": 24.998238890625,
          "velocity": 0.29133858267716534
        },
        {
          "duration": 0.08333324999999903,
          "durationTicks": 96,
          "midi": 83,
          "name": "B5",
          "ticks": 28798,
          "time": 24.998238890625,
          "velocity": 0.29133858267716534
        },
        {
          "duration": 0.04166662499999774,
          "durationTicks": 48,
          "midi": 57,
          "name": "A3",
          "ticks": 28990,
          "time": 25.164905390625,
          "velocity": 0.2755905511811024
        },
        {
          "duration": 0.04166662499999774,
          "durationTicks": 48,
          "midi": 60,
          "name": "C4",
          "ticks": 28990,
          "time": 25.164905390625,
          "velocity": 0.2755905511811024
        },
        {
          "duration": 0.04166662499999774,
          "durationTicks": 48,
          "midi": 53,
          "name": "F3",
          "ticks": 28990,
          "time": 25.164905390625,
          "velocity": 0.2755905511811024
        },
        {
          "duration": 0.04166662499999774,
          "durationTicks": 48,
          "midi": 63,
          "name": "D#4",
          "ticks": 28990,
          "time": 25.164905390625,
          "velocity": 0.2755905511811024
        },
        {
          "duration": 0.16666649999999805,
          "durationTicks": 192,
          "midi": 58,
          "name": "A#3",
          "ticks": 28990,
          "time": 25.164905390625,
          "velocity": 0.3228346456692913
        },
        {
          "duration": 0.16666649999999805,
          "durationTicks": 192,
          "midi": 70,
          "name": "A#4",
          "ticks": 28990,
          "time": 25.164905390625,
          "velocity": 0.3228346456692913
        },
        {
          "duration": 0.08333324999999903,
          "durationTicks": 96,
          "midi": 41,
          "name": "F2",
          "ticks": 28990,
          "time": 25.164905390625,
          "velocity": 0.2992125984251969
        },
        {
          "duration": 0.16666649999999805,
          "durationTicks": 192,
          "midi": 82,
          "name": "A#5",
          "ticks": 28990,
          "time": 25.164905390625,
          "velocity": 0.29133858267716534
        },
        {
          "duration": 0.04166662500000129,
          "durationTicks": 48,
          "midi": 29,
          "name": "F1",
          "ticks": 29086,
          "time": 25.248238640625,
          "velocity": 0.25196850393700787
        },
        {
          "duration": 0.08333325000000258,
          "durationTicks": 96,
          "midi": 59,
          "name": "B3",
          "ticks": 29182,
          "time": 25.331571890625,
          "velocity": 0.3228346456692913
        },
        {
          "duration": 0.08333325000000258,
          "durationTicks": 96,
          "midi": 71,
          "name": "B4",
          "ticks": 29182,
          "time": 25.331571890625,
          "velocity": 0.3228346456692913
        },
        {
          "duration": 0.1666665000000016,
          "durationTicks": 192,
          "midi": 28,
          "name": "E1",
          "ticks": 29182,
          "time": 25.331571890625,
          "velocity": 0.3228346456692913
        },
        {
          "duration": 0.08333325000000258,
          "durationTicks": 96,
          "midi": 83,
          "name": "B5",
          "ticks": 29182,
          "time": 25.331571890625,
          "velocity": 0.29133858267716534
        },
        {
          "duration": 0.04166662499999774,
          "durationTicks": 48,
          "midi": 64,
          "name": "E4",
          "ticks": 29374,
          "time": 25.498238390625,
          "velocity": 0.2755905511811024
        },
        {
          "duration": 0.04166662499999774,
          "durationTicks": 48,
          "midi": 59,
          "name": "B3",
          "ticks": 29374,
          "time": 25.498238390625,
          "velocity": 0.2755905511811024
        },
        {
          "duration": 0.04166662499999774,
          "durationTicks": 48,
          "midi": 56,
          "name": "G#3",
          "ticks": 29374,
          "time": 25.498238390625,
          "velocity": 0.2755905511811024
        },
        {
          "duration": 0.08333324999999903,
          "durationTicks": 96,
          "midi": 60,
          "name": "C4",
          "ticks": 29374,
          "time": 25.498238390625,
          "velocity": 0.3228346456692913
        },
        {
          "duration": 0.08333324999999903,
          "durationTicks": 96,
          "midi": 72,
          "name": "C5",
          "ticks": 29374,
          "time": 25.498238390625,
          "velocity": 0.3228346456692913
        },
        {
          "duration": 0.08333324999999903,
          "durationTicks": 96,
          "midi": 40,
          "name": "E2",
          "ticks": 29374,
          "time": 25.498238390625,
          "velocity": 0.2992125984251969
        },
        {
          "duration": 0.08333324999999903,
          "durationTicks": 96,
          "midi": 84,
          "name": "C6",
          "ticks": 29374,
          "time": 25.498238390625,
          "velocity": 0.29133858267716534
        },
        {
          "duration": 0.1666665000000016,
          "durationTicks": 192,
          "midi": 62,
          "name": "D4",
          "ticks": 29566,
          "time": 25.664904890625,
          "velocity": 0.3228346456692913
        },
        {
          "duration": 0.1666665000000016,
          "durationTicks": 192,
          "midi": 74,
          "name": "D5",
          "ticks": 29566,
          "time": 25.664904890625,
          "velocity": 0.3228346456692913
        },
        {
          "duration": 0.1666665000000016,
          "durationTicks": 192,
          "midi": 28,
          "name": "E1",
          "ticks": 29566,
          "time": 25.664904890625,
          "velocity": 0.3228346456692913
        },
        {
          "duration": 0.1666665000000016,
          "durationTicks": 192,
          "midi": 40,
          "name": "E2",
          "ticks": 29566,
          "time": 25.664904890625,
          "velocity": 0.29133858267716534
        },
        {
          "duration": 0.1666665000000016,
          "durationTicks": 192,
          "midi": 86,
          "name": "D6",
          "ticks": 29566,
          "time": 25.664904890625,
          "velocity": 0.29133858267716534
        },
        {
          "duration": 0.04166662500000129,
          "durationTicks": 48,
          "midi": 64,
          "name": "E4",
          "ticks": 29758,
          "time": 25.831571390625,
          "velocity": 0.2755905511811024
        },
        {
          "duration": 0.04166662500000129,
          "durationTicks": 48,
          "midi": 59,
          "name": "B3",
          "ticks": 29758,
          "time": 25.831571390625,
          "velocity": 0.2755905511811024
        },
        {
          "duration": 0.04166662500000129,
          "durationTicks": 48,
          "midi": 56,
          "name": "G#3",
          "ticks": 29758,
          "time": 25.831571390625,
          "velocity": 0.2755905511811024
        },
        {
          "duration": 0.08333324999999903,
          "durationTicks": 96,
          "midi": 63,
          "name": "D#4",
          "ticks": 29758,
          "time": 25.831571390625,
          "velocity": 0.3228346456692913
        },
        {
          "duration": 0.08333324999999903,
          "durationTicks": 96,
          "midi": 75,
          "name": "D#5",
          "ticks": 29758,
          "time": 25.831571390625,
          "velocity": 0.3228346456692913
        },
        {
          "duration": 0.08333324999999903,
          "durationTicks": 96,
          "midi": 40,
          "name": "E2",
          "ticks": 29758,
          "time": 25.831571390625,
          "velocity": 0.2992125984251969
        },
        {
          "duration": 0.08333324999999903,
          "durationTicks": 96,
          "midi": 87,
          "name": "D#6",
          "ticks": 29758,
          "time": 25.831571390625,
          "velocity": 0.29133858267716534
        },
        {
          "duration": 0.04166662500000129,
          "durationTicks": 48,
          "midi": 28,
          "name": "E1",
          "ticks": 29854,
          "time": 25.914904640625,
          "velocity": 0.25196850393700787
        },
        {
          "duration": 0.1666665000000016,
          "durationTicks": 192,
          "midi": 64,
          "name": "E4",
          "ticks": 29950,
          "time": 25.998237890625,
          "velocity": 0.3228346456692913
        },
        {
          "duration": 0.1666665000000016,
          "durationTicks": 192,
          "midi": 76,
          "name": "E5",
          "ticks": 29950,
          "time": 25.998237890625,
          "velocity": 0.3228346456692913
        },
        {
          "duration": 0.1666665000000016,
          "durationTicks": 192,
          "midi": 28,
          "name": "E1",
          "ticks": 29950,
          "time": 25.998237890625,
          "velocity": 0.3228346456692913
        },
        {
          "duration": 0.1666665000000016,
          "durationTicks": 192,
          "midi": 88,
          "name": "E6",
          "ticks": 29950,
          "time": 25.998237890625,
          "velocity": 0.29133858267716534
        },
        {
          "duration": 0.04166662500000129,
          "durationTicks": 48,
          "midi": 56,
          "name": "G#3",
          "ticks": 30142,
          "time": 26.164904390625,
          "velocity": 0.2755905511811024
        },
        {
          "duration": 0.04166662500000129,
          "durationTicks": 48,
          "midi": 59,
          "name": "B3",
          "ticks": 30142,
          "time": 26.164904390625,
          "velocity": 0.2755905511811024
        },
        {
          "duration": 0.04166662500000129,
          "durationTicks": 48,
          "midi": 64,
          "name": "E4",
          "ticks": 30142,
          "time": 26.164904390625,
          "velocity": 0.2755905511811024
        },
        {
          "duration": 0.33333299999999966,
          "durationTicks": 384,
          "midi": 56,
          "name": "G#3",
          "ticks": 30334,
          "time": 26.331570890625002,
          "velocity": 0.2755905511811024
        },
        {
          "duration": 0.33333299999999966,
          "durationTicks": 384,
          "midi": 52,
          "name": "E3",
          "ticks": 30334,
          "time": 26.331570890625002,
          "velocity": 0.2755905511811024
        },
        {
          "duration": 0.33333299999999966,
          "durationTicks": 384,
          "midi": 59,
          "name": "B3",
          "ticks": 30334,
          "time": 26.331570890625002,
          "velocity": 0.2755905511811024
        },
        {
          "duration": 0.33333299999999966,
          "durationTicks": 384,
          "midi": 52,
          "name": "E3",
          "ticks": 30334,
          "time": 26.331570890625002,
          "velocity": 0.3228346456692913
        },
        {
          "duration": 0.33333299999999966,
          "durationTicks": 384,
          "midi": 64,
          "name": "E4",
          "ticks": 30334,
          "time": 26.331570890625002,
          "velocity": 0.3228346456692913
        },
        {
          "duration": 0.16666649999999805,
          "durationTicks": 192,
          "midi": 40,
          "name": "E2",
          "ticks": 30334,
          "time": 26.331570890625002,
          "velocity": 0.2992125984251969
        },
        {
          "duration": 0.16666649999999805,
          "durationTicks": 192,
          "midi": 28,
          "name": "E1",
          "ticks": 30334,
          "time": 26.331570890625002,
          "velocity": 0.3228346456692913
        },
        {
          "duration": 0.24999974999999708,
          "durationTicks": 288,
          "midi": 40,
          "name": "E2",
          "ticks": 30334,
          "time": 26.331570890625002,
          "velocity": 0.29133858267716534
        },
        {
          "duration": 0.33333299999999966,
          "durationTicks": 384,
          "midi": 76,
          "name": "E5",
          "ticks": 30334,
          "time": 26.331570890625002,
          "velocity": 0.29133858267716534
        },
        {
          "duration": 0.04166662500000129,
          "durationTicks": 48,
          "midi": 28,
          "name": "E1",
          "ticks": 30622,
          "time": 26.581570640625,
          "velocity": 0.25196850393700787
        },
        {
          "duration": 0.16666649999999805,
          "durationTicks": 192,
          "midi": 57,
          "name": "A3",
          "ticks": 30718,
          "time": 26.664903890625002,
          "velocity": 0.3228346456692913
        },
        {
          "duration": 0.16666649999999805,
          "durationTicks": 192,
          "midi": 69,
          "name": "A4",
          "ticks": 30718,
          "time": 26.664903890625002,
          "velocity": 0.3228346456692913
        },
        {
          "duration": 0.16666649999999805,
          "durationTicks": 192,
          "midi": 33,
          "name": "A1",
          "ticks": 30718,
          "time": 26.664903890625002,
          "velocity": 0.3228346456692913
        },
        {
          "duration": 0.16666649999999805,
          "durationTicks": 192,
          "midi": 81,
          "name": "A5",
          "ticks": 30718,
          "time": 26.664903890625002,
          "velocity": 0.29133858267716534
        },
        {
          "duration": 0.04166662500000129,
          "durationTicks": 48,
          "midi": 64,
          "name": "E4",
          "ticks": 30910,
          "time": 26.831570390625,
          "velocity": 0.2755905511811024
        },
        {
          "duration": 0.04166662500000129,
          "durationTicks": 48,
          "midi": 57,
          "name": "A3",
          "ticks": 30910,
          "time": 26.831570390625,
          "velocity": 0.2755905511811024
        },
        {
          "duration": 0.04166662500000129,
          "durationTicks": 48,
          "midi": 60,
          "name": "C4",
          "ticks": 30910,
          "time": 26.831570390625,
          "velocity": 0.2755905511811024
        },
        {
          "duration": 0.08333324999999903,
          "durationTicks": 96,
          "midi": 45,
          "name": "A2",
          "ticks": 30910,
          "time": 26.831570390625,
          "velocity": 0.2992125984251969
        },
        {
          "duration": 0.16666649999999805,
          "durationTicks": 192,
          "midi": 60,
          "name": "C4",
          "ticks": 31102,
          "time": 26.998236890625,
          "velocity": 0.3228346456692913
        },
        {
          "duration": 0.16666649999999805,
          "durationTicks": 192,
          "midi": 72,
          "name": "C5",
          "ticks": 31102,
          "time": 26.998236890625,
          "velocity": 0.3228346456692913
        },
        {
          "duration": 0.16666649999999805,
          "durationTicks": 192,
          "midi": 33,
          "name": "A1",
          "ticks": 31102,
          "time": 26.998236890625,
          "velocity": 0.3228346456692913
        },
        {
          "duration": 0.16666649999999805,
          "durationTicks": 192,
          "midi": 45,
          "name": "A2",
          "ticks": 31102,
          "time": 26.998236890625,
          "velocity": 0.29133858267716534
        },
        {
          "duration": 0.16666649999999805,
          "durationTicks": 192,
          "midi": 84,
          "name": "C6",
          "ticks": 31102,
          "time": 26.998236890625,
          "velocity": 0.29133858267716534
        },
        {
          "duration": 0.04166662500000129,
          "durationTicks": 48,
          "midi": 60,
          "name": "C4",
          "ticks": 31294,
          "time": 27.164903390625,
          "velocity": 0.2755905511811024
        },
        {
          "duration": 0.04166662500000129,
          "durationTicks": 48,
          "midi": 57,
          "name": "A3",
          "ticks": 31294,
          "time": 27.164903390625,
          "velocity": 0.2755905511811024
        },
        {
          "duration": 0.04166662500000129,
          "durationTicks": 48,
          "midi": 64,
          "name": "E4",
          "ticks": 31294,
          "time": 27.164903390625,
          "velocity": 0.2755905511811024
        },
        {
          "duration": 0.08333325000000258,
          "durationTicks": 96,
          "midi": 45,
          "name": "A2",
          "ticks": 31294,
          "time": 27.164903390625,
          "velocity": 0.2992125984251969
        },
        {
          "duration": 0.04166662499999774,
          "durationTicks": 48,
          "midi": 33,
          "name": "A1",
          "ticks": 31390,
          "time": 27.248236640625002,
          "velocity": 0.25196850393700787
        },
        {
          "duration": 0.24999975000000063,
          "durationTicks": 288,
          "midi": 63,
          "name": "D#4",
          "ticks": 31486,
          "time": 27.331569890625,
          "velocity": 0.3228346456692913
        },
        {
          "duration": 0.24999975000000063,
          "durationTicks": 288,
          "midi": 75,
          "name": "D#5",
          "ticks": 31486,
          "time": 27.331569890625,
          "velocity": 0.3228346456692913
        },
        {
          "duration": 0.16666649999999805,
          "durationTicks": 192,
          "midi": 33,
          "name": "A1",
          "ticks": 31486,
          "time": 27.331569890625,
          "velocity": 0.3228346456692913
        },
        {
          "duration": 0.24999975000000063,
          "durationTicks": 288,
          "midi": 87,
          "name": "D#6",
          "ticks": 31486,
          "time": 27.331569890625,
          "velocity": 0.29133858267716534
        },
        {
          "duration": 0.04166662500000129,
          "durationTicks": 48,
          "midi": 64,
          "name": "E4",
          "ticks": 31678,
          "time": 27.498236390625,
          "velocity": 0.2755905511811024
        },
        {
          "duration": 0.04166662500000129,
          "durationTicks": 48,
          "midi": 60,
          "name": "C4",
          "ticks": 31678,
          "time": 27.498236390625,
          "velocity": 0.2755905511811024
        },
        {
          "duration": 0.04166662500000129,
          "durationTicks": 48,
          "midi": 57,
          "name": "A3",
          "ticks": 31678,
          "time": 27.498236390625,
          "velocity": 0.2755905511811024
        },
        {
          "duration": 0.08333325000000258,
          "durationTicks": 96,
          "midi": 45,
          "name": "A2",
          "ticks": 31678,
          "time": 27.498236390625,
          "velocity": 0.2992125984251969
        },
        {
          "duration": 0.08333324999999903,
          "durationTicks": 96,
          "midi": 64,
          "name": "E4",
          "ticks": 31774,
          "time": 27.581569640625002,
          "velocity": 0.3228346456692913
        },
        {
          "duration": 0.08333324999999903,
          "durationTicks": 96,
          "midi": 76,
          "name": "E5",
          "ticks": 31774,
          "time": 27.581569640625002,
          "velocity": 0.3228346456692913
        },
        {
          "duration": 0.08333324999999903,
          "durationTicks": 96,
          "midi": 88,
          "name": "E6",
          "ticks": 31774,
          "time": 27.581569640625002,
          "velocity": 0.29133858267716534
        },
        {
          "duration": 0.16666649999999805,
          "durationTicks": 192,
          "midi": 33,
          "name": "A1",
          "ticks": 31870,
          "time": 27.664902890625,
          "velocity": 0.3228346456692913
        },
        {
          "duration": 0.16666649999999805,
          "durationTicks": 192,
          "midi": 45,
          "name": "A2",
          "ticks": 31870,
          "time": 27.664902890625,
          "velocity": 0.29133858267716534
        },
        {
          "duration": 0.04166662500000129,
          "durationTicks": 48,
          "midi": 64,
          "name": "E4",
          "ticks": 32062,
          "time": 27.831569390625,
          "velocity": 0.2755905511811024
        },
        {
          "duration": 0.04166662500000129,
          "durationTicks": 48,
          "midi": 60,
          "name": "C4",
          "ticks": 32062,
          "time": 27.831569390625,
          "velocity": 0.2755905511811024
        },
        {
          "duration": 0.04166662500000129,
          "durationTicks": 48,
          "midi": 57,
          "name": "A3",
          "ticks": 32062,
          "time": 27.831569390625,
          "velocity": 0.2755905511811024
        },
        {
          "duration": 0.08333325000000258,
          "durationTicks": 96,
          "midi": 56,
          "name": "G#3",
          "ticks": 32062,
          "time": 27.831569390625,
          "velocity": 0.3228346456692913
        },
        {
          "duration": 0.08333325000000258,
          "durationTicks": 96,
          "midi": 68,
          "name": "G#4",
          "ticks": 32062,
          "time": 27.831569390625,
          "velocity": 0.3228346456692913
        },
        {
          "duration": 0.08333325000000258,
          "durationTicks": 96,
          "midi": 45,
          "name": "A2",
          "ticks": 32062,
          "time": 27.831569390625,
          "velocity": 0.2992125984251969
        },
        {
          "duration": 0.08333325000000258,
          "durationTicks": 96,
          "midi": 80,
          "name": "G#5",
          "ticks": 32062,
          "time": 27.831569390625,
          "velocity": 0.29133858267716534
        },
        {
          "duration": 0.04166662499999774,
          "durationTicks": 48,
          "midi": 33,
          "name": "A1",
          "ticks": 32158,
          "time": 27.914902640625,
          "velocity": 0.25196850393700787
        },
        {
          "duration": 0.08333324999999903,
          "durationTicks": 96,
          "midi": 57,
          "name": "A3",
          "ticks": 32254,
          "time": 27.998235890625,
          "velocity": 0.3228346456692913
        },
        {
          "duration": 0.08333324999999903,
          "durationTicks": 96,
          "midi": 69,
          "name": "A4",
          "ticks": 32254,
          "time": 27.998235890625,
          "velocity": 0.3228346456692913
        },
        {
          "duration": 0.1666665000000016,
          "durationTicks": 192,
          "midi": 36,
          "name": "C2",
          "ticks": 32254,
          "time": 27.998235890625,
          "velocity": 0.3228346456692913
        },
        {
          "duration": 0.08333324999999903,
          "durationTicks": 96,
          "midi": 81,
          "name": "A5",
          "ticks": 32254,
          "time": 27.998235890625,
          "velocity": 0.29133858267716534
        },
        {
          "duration": 0.04166662499999774,
          "durationTicks": 48,
          "midi": 64,
          "name": "E4",
          "ticks": 32446,
          "time": 28.164902390625002,
          "velocity": 0.2755905511811024
        },
        {
          "duration": 0.04166662499999774,
          "durationTicks": 48,
          "midi": 57,
          "name": "A3",
          "ticks": 32446,
          "time": 28.164902390625002,
          "velocity": 0.2755905511811024
        },
        {
          "duration": 0.04166662499999774,
          "durationTicks": 48,
          "midi": 55,
          "name": "G3",
          "ticks": 32446,
          "time": 28.164902390625002,
          "velocity": 0.2755905511811024
        },
        {
          "duration": 0.04166662499999774,
          "durationTicks": 48,
          "midi": 60,
          "name": "C4",
          "ticks": 32446,
          "time": 28.164902390625002,
          "velocity": 0.2755905511811024
        },
        {
          "duration": 0.08333324999999903,
          "durationTicks": 96,
          "midi": 60,
          "name": "C4",
          "ticks": 32446,
          "time": 28.164902390625002,
          "velocity": 0.3228346456692913
        },
        {
          "duration": 0.08333324999999903,
          "durationTicks": 96,
          "midi": 72,
          "name": "C5",
          "ticks": 32446,
          "time": 28.164902390625002,
          "velocity": 0.3228346456692913
        },
        {
          "duration": 0.08333324999999903,
          "durationTicks": 96,
          "midi": 48,
          "name": "C3",
          "ticks": 32446,
          "time": 28.164902390625002,
          "velocity": 0.2992125984251969
        },
        {
          "duration": 0.08333324999999903,
          "durationTicks": 96,
          "midi": 84,
          "name": "C6",
          "ticks": 32446,
          "time": 28.164902390625002,
          "velocity": 0.29133858267716534
        },
        {
          "duration": 0.08333324999999903,
          "durationTicks": 96,
          "midi": 62,
          "name": "D4",
          "ticks": 32638,
          "time": 28.331568890625,
          "velocity": 0.3228346456692913
        },
        {
          "duration": 0.08333324999999903,
          "durationTicks": 96,
          "midi": 74,
          "name": "D5",
          "ticks": 32638,
          "time": 28.331568890625,
          "velocity": 0.3228346456692913
        },
        {
          "duration": 0.1666665000000016,
          "durationTicks": 192,
          "midi": 36,
          "name": "C2",
          "ticks": 32638,
          "time": 28.331568890625,
          "velocity": 0.3228346456692913
        },
        {
          "duration": 0.1666665000000016,
          "durationTicks": 192,
          "midi": 48,
          "name": "C3",
          "ticks": 32638,
          "time": 28.331568890625,
          "velocity": 0.29133858267716534
        },
        {
          "duration": 0.08333324999999903,
          "durationTicks": 96,
          "midi": 86,
          "name": "D6",
          "ticks": 32638,
          "time": 28.331568890625,
          "velocity": 0.29133858267716534
        },
        {
          "duration": 0.04166662499999774,
          "durationTicks": 48,
          "midi": 60,
          "name": "C4",
          "ticks": 32830,
          "time": 28.498235390625002,
          "velocity": 0.2755905511811024
        },
        {
          "duration": 0.04166662499999774,
          "durationTicks": 48,
          "midi": 57,
          "name": "A3",
          "ticks": 32830,
          "time": 28.498235390625002,
          "velocity": 0.2755905511811024
        },
        {
          "duration": 0.04166662499999774,
          "durationTicks": 48,
          "midi": 64,
          "name": "E4",
          "ticks": 32830,
          "time": 28.498235390625002,
          "velocity": 0.2755905511811024
        },
        {
          "duration": 0.04166662499999774,
          "durationTicks": 48,
          "midi": 55,
          "name": "G3",
          "ticks": 32830,
          "time": 28.498235390625002,
          "velocity": 0.2755905511811024
        },
        {
          "duration": 0.08333324999999903,
          "durationTicks": 96,
          "midi": 60,
          "name": "C4",
          "ticks": 32830,
          "time": 28.498235390625002,
          "velocity": 0.3228346456692913
        },
        {
          "duration": 0.08333324999999903,
          "durationTicks": 96,
          "midi": 72,
          "name": "C5",
          "ticks": 32830,
          "time": 28.498235390625002,
          "velocity": 0.3228346456692913
        },
        {
          "duration": 0.08333324999999903,
          "durationTicks": 96,
          "midi": 48,
          "name": "C3",
          "ticks": 32830,
          "time": 28.498235390625002,
          "velocity": 0.2992125984251969
        },
        {
          "duration": 0.08333324999999903,
          "durationTicks": 96,
          "midi": 84,
          "name": "C6",
          "ticks": 32830,
          "time": 28.498235390625002,
          "velocity": 0.29133858267716534
        },
        {
          "duration": 0.04166662500000129,
          "durationTicks": 48,
          "midi": 36,
          "name": "C2",
          "ticks": 32926,
          "time": 28.581568640625,
          "velocity": 0.25196850393700787
        },
        {
          "duration": 0.08333325000000258,
          "durationTicks": 96,
          "midi": 63,
          "name": "D#4",
          "ticks": 33022,
          "time": 28.664901890625,
          "velocity": 0.3228346456692913
        },
        {
          "duration": 0.08333325000000258,
          "durationTicks": 96,
          "midi": 75,
          "name": "D#5",
          "ticks": 33022,
          "time": 28.664901890625,
          "velocity": 0.3228346456692913
        },
        {
          "duration": 0.1666665000000016,
          "durationTicks": 192,
          "midi": 36,
          "name": "C2",
          "ticks": 33022,
          "time": 28.664901890625,
          "velocity": 0.3228346456692913
        },
        {
          "duration": 0.08333325000000258,
          "durationTicks": 96,
          "midi": 87,
          "name": "D#6",
          "ticks": 33022,
          "time": 28.664901890625,
          "velocity": 0.29133858267716534
        },
        {
          "duration": 0.04166662499999774,
          "durationTicks": 48,
          "midi": 64,
          "name": "E4",
          "ticks": 33214,
          "time": 28.831568390625,
          "velocity": 0.2755905511811024
        },
        {
          "duration": 0.04166662499999774,
          "durationTicks": 48,
          "midi": 57,
          "name": "A3",
          "ticks": 33214,
          "time": 28.831568390625,
          "velocity": 0.2755905511811024
        },
        {
          "duration": 0.04166662499999774,
          "durationTicks": 48,
          "midi": 55,
          "name": "G3",
          "ticks": 33214,
          "time": 28.831568390625,
          "velocity": 0.2755905511811024
        },
        {
          "duration": 0.04166662499999774,
          "durationTicks": 48,
          "midi": 60,
          "name": "C4",
          "ticks": 33214,
          "time": 28.831568390625,
          "velocity": 0.2755905511811024
        },
        {
          "duration": 0.08333324999999903,
          "durationTicks": 96,
          "midi": 63,
          "name": "D#4",
          "ticks": 33214,
          "time": 28.831568390625,
          "velocity": 0.3228346456692913
        },
        {
          "duration": 0.08333324999999903,
          "durationTicks": 96,
          "midi": 75,
          "name": "D#5",
          "ticks": 33214,
          "time": 28.831568390625,
          "velocity": 0.3228346456692913
        },
        {
          "duration": 0.08333324999999903,
          "durationTicks": 96,
          "midi": 48,
          "name": "C3",
          "ticks": 33214,
          "time": 28.831568390625,
          "velocity": 0.2992125984251969
        },
        {
          "duration": 0.08333324999999903,
          "durationTicks": 96,
          "midi": 87,
          "name": "D#6",
          "ticks": 33214,
          "time": 28.831568390625,
          "velocity": 0.29133858267716534
        },
        {
          "duration": 0.1666665000000016,
          "durationTicks": 192,
          "midi": 64,
          "name": "E4",
          "ticks": 33310,
          "time": 28.914901640625,
          "velocity": 0.3228346456692913
        },
        {
          "duration": 0.1666665000000016,
          "durationTicks": 192,
          "midi": 76,
          "name": "E5",
          "ticks": 33310,
          "time": 28.914901640625,
          "velocity": 0.3228346456692913
        },
        {
          "duration": 0.1666665000000016,
          "durationTicks": 192,
          "midi": 88,
          "name": "E6",
          "ticks": 33310,
          "time": 28.914901640625,
          "velocity": 0.29133858267716534
        },
        {
          "duration": 0.1666665000000016,
          "durationTicks": 192,
          "midi": 36,
          "name": "C2",
          "ticks": 33406,
          "time": 28.998234890625,
          "velocity": 0.3228346456692913
        },
        {
          "duration": 0.1666665000000016,
          "durationTicks": 192,
          "midi": 48,
          "name": "C3",
          "ticks": 33406,
          "time": 28.998234890625,
          "velocity": 0.29133858267716534
        },
        {
          "duration": 0.04166662500000129,
          "durationTicks": 48,
          "midi": 55,
          "name": "G3",
          "ticks": 33598,
          "time": 29.164901390625,
          "velocity": 0.2755905511811024
        },
        {
          "duration": 0.04166662500000129,
          "durationTicks": 48,
          "midi": 64,
          "name": "E4",
          "ticks": 33598,
          "time": 29.164901390625,
          "velocity": 0.2755905511811024
        },
        {
          "duration": 0.04166662500000129,
          "durationTicks": 48,
          "midi": 60,
          "name": "C4",
          "ticks": 33598,
          "time": 29.164901390625,
          "velocity": 0.2755905511811024
        },
        {
          "duration": 0.04166662500000129,
          "durationTicks": 48,
          "midi": 57,
          "name": "A3",
          "ticks": 33598,
          "time": 29.164901390625,
          "velocity": 0.2755905511811024
        },
        {
          "duration": 0.08333324999999903,
          "durationTicks": 96,
          "midi": 48,
          "name": "C3",
          "ticks": 33598,
          "time": 29.164901390625,
          "velocity": 0.2992125984251969
        },
        {
          "duration": 0.04166662500000129,
          "durationTicks": 48,
          "midi": 36,
          "name": "C2",
          "ticks": 33694,
          "time": 29.248234640625,
          "velocity": 0.25196850393700787
        },
        {
          "duration": 0.08333325000000258,
          "durationTicks": 96,
          "midi": 67,
          "name": "G4",
          "ticks": 33790,
          "time": 29.331567890625,
          "velocity": 0.3228346456692913
        },
        {
          "duration": 0.08333325000000258,
          "durationTicks": 96,
          "midi": 79,
          "name": "G5",
          "ticks": 33790,
          "time": 29.331567890625,
          "velocity": 0.3228346456692913
        },
        {
          "duration": 0.1666665000000016,
          "durationTicks": 192,
          "midi": 29,
          "name": "F1",
          "ticks": 33790,
          "time": 29.331567890625,
          "velocity": 0.3228346456692913
        },
        {
          "duration": 0.08333325000000258,
          "durationTicks": 96,
          "midi": 91,
          "name": "G6",
          "ticks": 33790,
          "time": 29.331567890625,
          "velocity": 0.29133858267716534
        },
        {
          "duration": 0.04166662500000129,
          "durationTicks": 48,
          "midi": 63,
          "name": "D#4",
          "ticks": 33982,
          "time": 29.498234390625,
          "velocity": 0.2755905511811024
        },
        {
          "duration": 0.04166662500000129,
          "durationTicks": 48,
          "midi": 53,
          "name": "F3",
          "ticks": 33982,
          "time": 29.498234390625,
          "velocity": 0.2755905511811024
        },
        {
          "duration": 0.04166662500000129,
          "durationTicks": 48,
          "midi": 57,
          "name": "A3",
          "ticks": 33982,
          "time": 29.498234390625,
          "velocity": 0.2755905511811024
        },
        {
          "duration": 0.04166662500000129,
          "durationTicks": 48,
          "midi": 60,
          "name": "C4",
          "ticks": 33982,
          "time": 29.498234390625,
          "velocity": 0.2755905511811024
        },
        {
          "duration": 0.08333324999999903,
          "durationTicks": 96,
          "midi": 66,
          "name": "F#4",
          "ticks": 33982,
          "time": 29.498234390625,
          "velocity": 0.3228346456692913
        },
        {
          "duration": 0.08333324999999903,
          "durationTicks": 96,
          "midi": 78,
          "name": "F#5",
          "ticks": 33982,
          "time": 29.498234390625,
          "velocity": 0.3228346456692913
        },
        {
          "duration": 0.08333324999999903,
          "durationTicks": 96,
          "midi": 41,
          "name": "F2",
          "ticks": 33982,
          "time": 29.498234390625,
          "velocity": 0.2992125984251969
        },
        {
          "duration": 0.08333324999999903,
          "durationTicks": 96,
          "midi": 90,
          "name": "F#6",
          "ticks": 33982,
          "time": 29.498234390625,
          "velocity": 0.29133858267716534
        },
        {
          "duration": 0.08333324999999903,
          "durationTicks": 96,
          "midi": 65,
          "name": "F4",
          "ticks": 34174,
          "time": 29.664900890625002,
          "velocity": 0.3228346456692913
        },
        {
          "duration": 0.08333324999999903,
          "durationTicks": 96,
          "midi": 77,
          "name": "F5",
          "ticks": 34174,
          "time": 29.664900890625002,
          "velocity": 0.3228346456692913
        },
        {
          "duration": 0.16666649999999805,
          "durationTicks": 192,
          "midi": 29,
          "name": "F1",
          "ticks": 34174,
          "time": 29.664900890625002,
          "velocity": 0.3228346456692913
        },
        {
          "duration": 0.16666649999999805,
          "durationTicks": 192,
          "midi": 41,
          "name": "F2",
          "ticks": 34174,
          "time": 29.664900890625002,
          "velocity": 0.29133858267716534
        },
        {
          "duration": 0.08333324999999903,
          "durationTicks": 96,
          "midi": 89,
          "name": "F6",
          "ticks": 34174,
          "time": 29.664900890625002,
          "velocity": 0.29133858267716534
        },
        {
          "duration": 0.04166662500000129,
          "durationTicks": 48,
          "midi": 57,
          "name": "A3",
          "ticks": 34366,
          "time": 29.831567390625,
          "velocity": 0.2755905511811024
        },
        {
          "duration": 0.04166662500000129,
          "durationTicks": 48,
          "midi": 60,
          "name": "C4",
          "ticks": 34366,
          "time": 29.831567390625,
          "velocity": 0.2755905511811024
        },
        {
          "duration": 0.04166662500000129,
          "durationTicks": 48,
          "midi": 53,
          "name": "F3",
          "ticks": 34366,
          "time": 29.831567390625,
          "velocity": 0.2755905511811024
        },
        {
          "duration": 0.04166662500000129,
          "durationTicks": 48,
          "midi": 63,
          "name": "D#4",
          "ticks": 34366,
          "time": 29.831567390625,
          "velocity": 0.2755905511811024
        },
        {
          "duration": 0.08333324999999903,
          "durationTicks": 96,
          "midi": 63,
          "name": "D#4",
          "ticks": 34366,
          "time": 29.831567390625,
          "velocity": 0.3228346456692913
        },
        {
          "duration": 0.08333324999999903,
          "durationTicks": 96,
          "midi": 75,
          "name": "D#5",
          "ticks": 34366,
          "time": 29.831567390625,
          "velocity": 0.3228346456692913
        },
        {
          "duration": 0.08333324999999903,
          "durationTicks": 96,
          "midi": 41,
          "name": "F2",
          "ticks": 34366,
          "time": 29.831567390625,
          "velocity": 0.2992125984251969
        },
        {
          "duration": 0.08333324999999903,
          "durationTicks": 96,
          "midi": 87,
          "name": "D#6",
          "ticks": 34366,
          "time": 29.831567390625,
          "velocity": 0.29133858267716534
        },
        {
          "duration": 0.04166662500000129,
          "durationTicks": 48,
          "midi": 29,
          "name": "F1",
          "ticks": 34462,
          "time": 29.914900640625,
          "velocity": 0.25196850393700787
        },
        {
          "duration": 0.08333324999999903,
          "durationTicks": 96,
          "midi": 64,
          "name": "E4",
          "ticks": 34558,
          "time": 29.998233890625002,
          "velocity": 0.3228346456692913
        },
        {
          "duration": 0.08333324999999903,
          "durationTicks": 96,
          "midi": 76,
          "name": "E5",
          "ticks": 34558,
          "time": 29.998233890625002,
          "velocity": 0.3228346456692913
        },
        {
          "duration": 0.16666649999999805,
          "durationTicks": 192,
          "midi": 29,
          "name": "F1",
          "ticks": 34558,
          "time": 29.998233890625002,
          "velocity": 0.3228346456692913
        },
        {
          "duration": 0.08333324999999903,
          "durationTicks": 96,
          "midi": 88,
          "name": "E6",
          "ticks": 34558,
          "time": 29.998233890625002,
          "velocity": 0.29133858267716534
        },
        {
          "duration": 0.04166662500000129,
          "durationTicks": 48,
          "midi": 63,
          "name": "D#4",
          "ticks": 34750,
          "time": 30.164900390625,
          "velocity": 0.2755905511811024
        },
        {
          "duration": 0.04166662500000129,
          "durationTicks": 48,
          "midi": 53,
          "name": "F3",
          "ticks": 34750,
          "time": 30.164900390625,
          "velocity": 0.2755905511811024
        },
        {
          "duration": 0.04166662500000129,
          "durationTicks": 48,
          "midi": 57,
          "name": "A3",
          "ticks": 34750,
          "time": 30.164900390625,
          "velocity": 0.2755905511811024
        },
        {
          "duration": 0.04166662500000129,
          "durationTicks": 48,
          "midi": 60,
          "name": "C4",
          "ticks": 34750,
          "time": 30.164900390625,
          "velocity": 0.2755905511811024
        },
        {
          "duration": 0.08333324999999903,
          "durationTicks": 96,
          "midi": 65,
          "name": "F4",
          "ticks": 34750,
          "time": 30.164900390625,
          "velocity": 0.3228346456692913
        },
        {
          "duration": 0.08333324999999903,
          "durationTicks": 96,
          "midi": 77,
          "name": "F5",
          "ticks": 34750,
          "time": 30.164900390625,
          "velocity": 0.3228346456692913
        },
        {
          "duration": 0.08333324999999903,
          "durationTicks": 96,
          "midi": 41,
          "name": "F2",
          "ticks": 34750,
          "time": 30.164900390625,
          "velocity": 0.2992125984251969
        },
        {
          "duration": 0.08333324999999903,
          "durationTicks": 96,
          "midi": 89,
          "name": "F6",
          "ticks": 34750,
          "time": 30.164900390625,
          "velocity": 0.29133858267716534
        },
        {
          "duration": 0.08333324999999903,
          "durationTicks": 96,
          "midi": 66,
          "name": "F#4",
          "ticks": 34942,
          "time": 30.331566890625,
          "velocity": 0.3228346456692913
        },
        {
          "duration": 0.08333324999999903,
          "durationTicks": 96,
          "midi": 78,
          "name": "F#5",
          "ticks": 34942,
          "time": 30.331566890625,
          "velocity": 0.3228346456692913
        },
        {
          "duration": 0.16666649999999805,
          "durationTicks": 192,
          "midi": 29,
          "name": "F1",
          "ticks": 34942,
          "time": 30.331566890625,
          "velocity": 0.3228346456692913
        },
        {
          "duration": 0.16666649999999805,
          "durationTicks": 192,
          "midi": 41,
          "name": "F2",
          "ticks": 34942,
          "time": 30.331566890625,
          "velocity": 0.29133858267716534
        },
        {
          "duration": 0.08333324999999903,
          "durationTicks": 96,
          "midi": 90,
          "name": "F#6",
          "ticks": 34942,
          "time": 30.331566890625,
          "velocity": 0.29133858267716534
        },
        {
          "duration": 0.04166662500000129,
          "durationTicks": 48,
          "midi": 57,
          "name": "A3",
          "ticks": 35134,
          "time": 30.498233390625,
          "velocity": 0.2755905511811024
        },
        {
          "duration": 0.04166662500000129,
          "durationTicks": 48,
          "midi": 60,
          "name": "C4",
          "ticks": 35134,
          "time": 30.498233390625,
          "velocity": 0.2755905511811024
        },
        {
          "duration": 0.04166662500000129,
          "durationTicks": 48,
          "midi": 53,
          "name": "F3",
          "ticks": 35134,
          "time": 30.498233390625,
          "velocity": 0.2755905511811024
        },
        {
          "duration": 0.04166662500000129,
          "durationTicks": 48,
          "midi": 63,
          "name": "D#4",
          "ticks": 35134,
          "time": 30.498233390625,
          "velocity": 0.2755905511811024
        },
        {
          "duration": 0.08333325000000258,
          "durationTicks": 96,
          "midi": 67,
          "name": "G4",
          "ticks": 35134,
          "time": 30.498233390625,
          "velocity": 0.3228346456692913
        },
        {
          "duration": 0.08333325000000258,
          "durationTicks": 96,
          "midi": 79,
          "name": "G5",
          "ticks": 35134,
          "time": 30.498233390625,
          "velocity": 0.3228346456692913
        },
        {
          "duration": 0.08333325000000258,
          "durationTicks": 96,
          "midi": 41,
          "name": "F2",
          "ticks": 35134,
          "time": 30.498233390625,
          "velocity": 0.2992125984251969
        },
        {
          "duration": 0.08333325000000258,
          "durationTicks": 96,
          "midi": 91,
          "name": "G6",
          "ticks": 35134,
          "time": 30.498233390625,
          "velocity": 0.29133858267716534
        },
        {
          "duration": 0.04166662499999774,
          "durationTicks": 48,
          "midi": 29,
          "name": "F1",
          "ticks": 35230,
          "time": 30.581566640625002,
          "velocity": 0.25196850393700787
        },
        {
          "duration": 0.08333324999999903,
          "durationTicks": 96,
          "midi": 68,
          "name": "G#4",
          "ticks": 35326,
          "time": 30.664899890625,
          "velocity": 0.3228346456692913
        },
        {
          "duration": 0.08333324999999903,
          "durationTicks": 96,
          "midi": 80,
          "name": "G#5",
          "ticks": 35326,
          "time": 30.664899890625,
          "velocity": 0.3228346456692913
        },
        {
          "duration": 0.16666649999999805,
          "durationTicks": 192,
          "midi": 28,
          "name": "E1",
          "ticks": 35326,
          "time": 30.664899890625,
          "velocity": 0.3228346456692913
        },
        {
          "duration": 0.08333324999999903,
          "durationTicks": 96,
          "midi": 92,
          "name": "G#6",
          "ticks": 35326,
          "time": 30.664899890625,
          "velocity": 0.29133858267716534
        },
        {
          "duration": 0.04166662500000129,
          "durationTicks": 48,
          "midi": 64,
          "name": "E4",
          "ticks": 35518,
          "time": 30.831566390625,
          "velocity": 0.2755905511811024
        },
        {
          "duration": 0.04166662500000129,
          "durationTicks": 48,
          "midi": 59,
          "name": "B3",
          "ticks": 35518,
          "time": 30.831566390625,
          "velocity": 0.2755905511811024
        },
        {
          "duration": 0.04166662500000129,
          "durationTicks": 48,
          "midi": 56,
          "name": "G#3",
          "ticks": 35518,
          "time": 30.831566390625,
          "velocity": 0.2755905511811024
        },
        {
          "duration": 0.08333325000000258,
          "durationTicks": 96,
          "midi": 68,
          "name": "G#4",
          "ticks": 35518,
          "time": 30.831566390625,
          "velocity": 0.3228346456692913
        },
        {
          "duration": 0.08333325000000258,
          "durationTicks": 96,
          "midi": 80,
          "name": "G#5",
          "ticks": 35518,
          "time": 30.831566390625,
          "velocity": 0.3228346456692913
        },
        {
          "duration": 0.08333325000000258,
          "durationTicks": 96,
          "midi": 40,
          "name": "E2",
          "ticks": 35518,
          "time": 30.831566390625,
          "velocity": 0.2992125984251969
        },
        {
          "duration": 0.08333325000000258,
          "durationTicks": 96,
          "midi": 92,
          "name": "G#6",
          "ticks": 35518,
          "time": 30.831566390625,
          "velocity": 0.29133858267716534
        },
        {
          "duration": 0.08333324999999903,
          "durationTicks": 96,
          "midi": 69,
          "name": "A4",
          "ticks": 35710,
          "time": 30.998232890625,
          "velocity": 0.3228346456692913
        },
        {
          "duration": 0.08333324999999903,
          "durationTicks": 96,
          "midi": 81,
          "name": "A5",
          "ticks": 35710,
          "time": 30.998232890625,
          "velocity": 0.3228346456692913
        },
        {
          "duration": 0.16666649999999805,
          "durationTicks": 192,
          "midi": 28,
          "name": "E1",
          "ticks": 35710,
          "time": 30.998232890625,
          "velocity": 0.3228346456692913
        },
        {
          "duration": 0.16666649999999805,
          "durationTicks": 192,
          "midi": 40,
          "name": "E2",
          "ticks": 35710,
          "time": 30.998232890625,
          "velocity": 0.29133858267716534
        },
        {
          "duration": 0.08333324999999903,
          "durationTicks": 96,
          "midi": 93,
          "name": "A6",
          "ticks": 35710,
          "time": 30.998232890625,
          "velocity": 0.29133858267716534
        },
        {
          "duration": 0.04166662500000129,
          "durationTicks": 48,
          "midi": 64,
          "name": "E4",
          "ticks": 35902,
          "time": 31.164899390625,
          "velocity": 0.2755905511811024
        },
        {
          "duration": 0.04166662500000129,
          "durationTicks": 48,
          "midi": 59,
          "name": "B3",
          "ticks": 35902,
          "time": 31.164899390625,
          "velocity": 0.2755905511811024
        },
        {
          "duration": 0.04166662500000129,
          "durationTicks": 48,
          "midi": 56,
          "name": "G#3",
          "ticks": 35902,
          "time": 31.164899390625,
          "velocity": 0.2755905511811024
        },
        {
          "duration": 0.08333325000000258,
          "durationTicks": 96,
          "midi": 69,
          "name": "A4",
          "ticks": 35902,
          "time": 31.164899390625,
          "velocity": 0.3228346456692913
        },
        {
          "duration": 0.08333325000000258,
          "durationTicks": 96,
          "midi": 81,
          "name": "A5",
          "ticks": 35902,
          "time": 31.164899390625,
          "velocity": 0.3228346456692913
        },
        {
          "duration": 0.08333325000000258,
          "durationTicks": 96,
          "midi": 40,
          "name": "E2",
          "ticks": 35902,
          "time": 31.164899390625,
          "velocity": 0.2992125984251969
        },
        {
          "duration": 0.08333325000000258,
          "durationTicks": 96,
          "midi": 93,
          "name": "A6",
          "ticks": 35902,
          "time": 31.164899390625,
          "velocity": 0.29133858267716534
        },
        {
          "duration": 0.04166662499999774,
          "durationTicks": 48,
          "midi": 28,
          "name": "E1",
          "ticks": 35998,
          "time": 31.248232640625,
          "velocity": 0.25196850393700787
        },
        {
          "duration": 0.33333299999999966,
          "durationTicks": 384,
          "midi": 71,
          "name": "B4",
          "ticks": 36094,
          "time": 31.331565890625,
          "velocity": 0.3228346456692913
        },
        {
          "duration": 0.33333299999999966,
          "durationTicks": 384,
          "midi": 83,
          "name": "B5",
          "ticks": 36094,
          "time": 31.331565890625,
          "velocity": 0.3228346456692913
        },
        {
          "duration": 0.1666665000000016,
          "durationTicks": 192,
          "midi": 28,
          "name": "E1",
          "ticks": 36094,
          "time": 31.331565890625,
          "velocity": 0.3228346456692913
        },
        {
          "duration": 0.33333299999999966,
          "durationTicks": 384,
          "midi": 95,
          "name": "B6",
          "ticks": 36094,
          "time": 31.331565890625,
          "velocity": 0.29133858267716534
        },
        {
          "duration": 0.04166662499999774,
          "durationTicks": 48,
          "midi": 56,
          "name": "G#3",
          "ticks": 36286,
          "time": 31.498232390625002,
          "velocity": 0.2755905511811024
        },
        {
          "duration": 0.04166662499999774,
          "durationTicks": 48,
          "midi": 52,
          "name": "E3",
          "ticks": 36286,
          "time": 31.498232390625002,
          "velocity": 0.2755905511811024
        },
        {
          "duration": 0.04166662499999774,
          "durationTicks": 48,
          "midi": 59,
          "name": "B3",
          "ticks": 36286,
          "time": 31.498232390625002,
          "velocity": 0.2755905511811024
        },
        {
          "duration": 0.04166662499999774,
          "durationTicks": 48,
          "midi": 64,
          "name": "E4",
          "ticks": 36286,
          "time": 31.498232390625002,
          "velocity": 0.2755905511811024
        },
        {
          "duration": 0.08333324999999903,
          "durationTicks": 96,
          "midi": 40,
          "name": "E2",
          "ticks": 36286,
          "time": 31.498232390625002,
          "velocity": 0.2992125984251969
        },
        {
          "duration": 0.04166662500000129,
          "durationTicks": 48,
          "midi": 54,
          "name": "F#3",
          "ticks": 36478,
          "time": 31.664898890625,
          "velocity": 0.2755905511811024
        },
        {
          "duration": 0.04166662500000129,
          "durationTicks": 48,
          "midi": 70,
          "name": "A#4",
          "ticks": 36478,
          "time": 31.664898890625,
          "velocity": 0.2992125984251969
        },
        {
          "duration": 0.04166662500000129,
          "durationTicks": 48,
          "midi": 82,
          "name": "A#5",
          "ticks": 36478,
          "time": 31.664898890625,
          "velocity": 0.2992125984251969
        },
        {
          "duration": 0.08333324999999903,
          "durationTicks": 96,
          "midi": 42,
          "name": "F#2",
          "ticks": 36478,
          "time": 31.664898890625,
          "velocity": 0.2992125984251969
        },
        {
          "duration": 0.1666665000000016,
          "durationTicks": 192,
          "midi": 28,
          "name": "E1",
          "ticks": 36478,
          "time": 31.664898890625,
          "velocity": 0.3228346456692913
        },
        {
          "duration": 0.1666665000000016,
          "durationTicks": 192,
          "midi": 40,
          "name": "E2",
          "ticks": 36478,
          "time": 31.664898890625,
          "velocity": 0.29133858267716534
        },
        {
          "duration": 0.04166662499999774,
          "durationTicks": 48,
          "midi": 69,
          "name": "A4",
          "ticks": 36526,
          "time": 31.706565515625,
          "velocity": 0.2755905511811024
        },
        {
          "duration": 0.04166662499999774,
          "durationTicks": 48,
          "midi": 81,
          "name": "A5",
          "ticks": 36526,
          "time": 31.706565515625,
          "velocity": 0.2755905511811024
        },
        {
          "duration": 0.04166662500000129,
          "durationTicks": 48,
          "midi": 68,
          "name": "G#4",
          "ticks": 36574,
          "time": 31.748232140625,
          "velocity": 0.25196850393700787
        },
        {
          "duration": 0.04166662500000129,
          "durationTicks": 48,
          "midi": 80,
          "name": "G#5",
          "ticks": 36574,
          "time": 31.748232140625,
          "velocity": 0.25196850393700787
        },
        {
          "duration": 0.04166662500000129,
          "durationTicks": 48,
          "midi": 67,
          "name": "G4",
          "ticks": 36622,
          "time": 31.789898765625,
          "velocity": 0.23622047244094488
        },
        {
          "duration": 0.04166662500000129,
          "durationTicks": 48,
          "midi": 79,
          "name": "G5",
          "ticks": 36622,
          "time": 31.789898765625,
          "velocity": 0.23622047244094488
        },
        {
          "duration": 0.04166662499999774,
          "durationTicks": 48,
          "midi": 59,
          "name": "B3",
          "ticks": 36670,
          "time": 31.831565390625002,
          "velocity": 0.2755905511811024
        },
        {
          "duration": 0.04166662499999774,
          "durationTicks": 48,
          "midi": 64,
          "name": "E4",
          "ticks": 36670,
          "time": 31.831565390625002,
          "velocity": 0.2755905511811024
        },
        {
          "duration": 0.04166662499999774,
          "durationTicks": 48,
          "midi": 56,
          "name": "G#3",
          "ticks": 36670,
          "time": 31.831565390625002,
          "velocity": 0.2755905511811024
        },
        {
          "duration": 0.04166662499999774,
          "durationTicks": 48,
          "midi": 66,
          "name": "F#4",
          "ticks": 36670,
          "time": 31.831565390625002,
          "velocity": 0.2125984251968504
        },
        {
          "duration": 0.04166662499999774,
          "durationTicks": 48,
          "midi": 78,
          "name": "F#5",
          "ticks": 36670,
          "time": 31.831565390625002,
          "velocity": 0.2125984251968504
        },
        {
          "duration": 0.08333324999999903,
          "durationTicks": 96,
          "midi": 44,
          "name": "G#2",
          "ticks": 36670,
          "time": 31.831565390625002,
          "velocity": 0.2992125984251969
        },
        {
          "duration": 0.04166662500000129,
          "durationTicks": 48,
          "midi": 65,
          "name": "F4",
          "ticks": 36718,
          "time": 31.873232015625,
          "velocity": 0.1889763779527559
        },
        {
          "duration": 0.04166662500000129,
          "durationTicks": 48,
          "midi": 77,
          "name": "F5",
          "ticks": 36718,
          "time": 31.873232015625,
          "velocity": 0.1889763779527559
        },
        {
          "duration": 0.04166662500000129,
          "durationTicks": 48,
          "midi": 64,
          "name": "E4",
          "ticks": 36766,
          "time": 31.914898640625,
          "velocity": 0.1732283464566929
        },
        {
          "duration": 0.04166662500000129,
          "durationTicks": 48,
          "midi": 76,
          "name": "E5",
          "ticks": 36766,
          "time": 31.914898640625,
          "velocity": 0.1732283464566929
        },
        {
          "duration": 0.04166662500000129,
          "durationTicks": 48,
          "midi": 28,
          "name": "E1",
          "ticks": 36766,
          "time": 31.914898640625,
          "velocity": 0.25196850393700787
        },
        {
          "duration": 0.04166662499999774,
          "durationTicks": 48,
          "midi": 63,
          "name": "D#4",
          "ticks": 36814,
          "time": 31.956565265625002,
          "velocity": 0.14960629921259844
        },
        {
          "duration": 0.04166662499999774,
          "durationTicks": 48,
          "midi": 75,
          "name": "D#5",
          "ticks": 36814,
          "time": 31.956565265625002,
          "velocity": 0.14960629921259844
        },
        {
          "duration": 0.16666649999999805,
          "durationTicks": 192,
          "midi": 76,
          "name": "E5",
          "ticks": 36862,
          "time": 31.998231890625,
          "velocity": 0.31496062992125984
        },
        {
          "duration": 0.16666649999999805,
          "durationTicks": 192,
          "midi": 76,
          "name": "E5",
          "ticks": 36862,
          "time": 31.998231890625,
          "velocity": 0.29133858267716534
        },
        {
          "duration": 0.16666649999999805,
          "durationTicks": 192,
          "midi": 26,
          "name": "D1",
          "ticks": 36862,
          "time": 31.998231890625,
          "velocity": 0.31496062992125984
        },
        {
          "duration": 0.16666649999999805,
          "durationTicks": 192,
          "midi": 88,
          "name": "E6",
          "ticks": 36862,
          "time": 31.998231890625,
          "velocity": 0.29133858267716534
        },
        {
          "duration": 0.08333325000000258,
          "durationTicks": 96,
          "midi": 81,
          "name": "A5",
          "ticks": 36862,
          "time": 31.998231890625,
          "velocity": 0.1732283464566929
        },
        {
          "duration": 0.04166662500000484,
          "durationTicks": 48,
          "midi": 53,
          "name": "F3",
          "ticks": 37054,
          "time": 32.164898390625,
          "velocity": 0.28346456692913385
        },
        {
          "duration": 0.04166662500000484,
          "durationTicks": 48,
          "midi": 57,
          "name": "A3",
          "ticks": 37054,
          "time": 32.164898390625,
          "velocity": 0.28346456692913385
        },
        {
          "duration": 0.04166662500000484,
          "durationTicks": 48,
          "midi": 60,
          "name": "C4",
          "ticks": 37054,
          "time": 32.164898390625,
          "velocity": 0.28346456692913385
        },
        {
          "duration": 0.04166662500000484,
          "durationTicks": 48,
          "midi": 50,
          "name": "D3",
          "ticks": 37054,
          "time": 32.164898390625,
          "velocity": 0.28346456692913385
        },
        {
          "duration": 0.08333325000000258,
          "durationTicks": 96,
          "midi": 75,
          "name": "D#5",
          "ticks": 37054,
          "time": 32.164898390625,
          "velocity": 0.31496062992125984
        },
        {
          "duration": 0.08333325000000258,
          "durationTicks": 96,
          "midi": 75,
          "name": "D#5",
          "ticks": 37054,
          "time": 32.164898390625,
          "velocity": 0.29133858267716534
        },
        {
          "duration": 0.08333325000000258,
          "durationTicks": 96,
          "midi": 38,
          "name": "D2",
          "ticks": 37054,
          "time": 32.164898390625,
          "velocity": 0.2992125984251969
        },
        {
          "duration": 0.08333325000000258,
          "durationTicks": 96,
          "midi": 87,
          "name": "D#6",
          "ticks": 37054,
          "time": 32.164898390625,
          "velocity": 0.29133858267716534
        },
        {
          "duration": 0.08333325000000258,
          "durationTicks": 96,
          "midi": 84,
          "name": "C6",
          "ticks": 37054,
          "time": 32.164898390625,
          "velocity": 0.1732283464566929
        },
        {
          "duration": 0.08333324999999547,
          "durationTicks": 96,
          "midi": 76,
          "name": "E5",
          "ticks": 37246,
          "time": 32.331564890625,
          "velocity": 0.31496062992125984
        },
        {
          "duration": 0.08333324999999547,
          "durationTicks": 96,
          "midi": 76,
          "name": "E5",
          "ticks": 37246,
          "time": 32.331564890625,
          "velocity": 0.29133858267716534
        },
        {
          "duration": 0.16666649999999805,
          "durationTicks": 192,
          "midi": 26,
          "name": "D1",
          "ticks": 37246,
          "time": 32.331564890625,
          "velocity": 0.31496062992125984
        },
        {
          "duration": 0.16666649999999805,
          "durationTicks": 192,
          "midi": 38,
          "name": "D2",
          "ticks": 37246,
          "time": 32.331564890625,
          "velocity": 0.29133858267716534
        },
        {
          "duration": 0.08333324999999547,
          "durationTicks": 96,
          "midi": 88,
          "name": "E6",
          "ticks": 37246,
          "time": 32.331564890625,
          "velocity": 0.29133858267716534
        },
        {
          "duration": 0.08333324999999547,
          "durationTicks": 96,
          "midi": 88,
          "name": "E6",
          "ticks": 37246,
          "time": 32.331564890625,
          "velocity": 0.1732283464566929
        },
        {
          "duration": 0.04166662499999774,
          "durationTicks": 48,
          "midi": 50,
          "name": "D3",
          "ticks": 37438,
          "time": 32.498231390625,
          "velocity": 0.28346456692913385
        },
        {
          "duration": 0.04166662499999774,
          "durationTicks": 48,
          "midi": 53,
          "name": "F3",
          "ticks": 37438,
          "time": 32.498231390625,
          "velocity": 0.28346456692913385
        },
        {
          "duration": 0.04166662499999774,
          "durationTicks": 48,
          "midi": 57,
          "name": "A3",
          "ticks": 37438,
          "time": 32.498231390625,
          "velocity": 0.28346456692913385
        },
        {
          "duration": 0.04166662499999774,
          "durationTicks": 48,
          "midi": 60,
          "name": "C4",
          "ticks": 37438,
          "time": 32.498231390625,
          "velocity": 0.28346456692913385
        },
        {
          "duration": 0.08333325000000258,
          "durationTicks": 96,
          "midi": 77,
          "name": "F5",
          "ticks": 37438,
          "time": 32.498231390625,
          "velocity": 0.31496062992125984
        },
        {
          "duration": 0.08333325000000258,
          "durationTicks": 96,
          "midi": 77,
          "name": "F5",
          "ticks": 37438,
          "time": 32.498231390625,
          "velocity": 0.29133858267716534
        },
        {
          "duration": 0.08333325000000258,
          "durationTicks": 96,
          "midi": 38,
          "name": "D2",
          "ticks": 37438,
          "time": 32.498231390625,
          "velocity": 0.2992125984251969
        },
        {
          "duration": 0.08333325000000258,
          "durationTicks": 96,
          "midi": 89,
          "name": "F6",
          "ticks": 37438,
          "time": 32.498231390625,
          "velocity": 0.29133858267716534
        },
        {
          "duration": 0.08333325000000258,
          "durationTicks": 96,
          "midi": 93,
          "name": "A6",
          "ticks": 37438,
          "time": 32.498231390625,
          "velocity": 0.1732283464566929
        },
        {
          "duration": 0.04166662499999774,
          "durationTicks": 48,
          "midi": 26,
          "name": "D1",
          "ticks": 37534,
          "time": 32.581564640625004,
          "velocity": 0.25196850393700787
        },
        {
          "duration": 0.08333325000000258,
          "durationTicks": 96,
          "midi": 76,
          "name": "E5",
          "ticks": 37630,
          "time": 32.664897890625,
          "velocity": 0.31496062992125984
        },
        {
          "duration": 0.08333325000000258,
          "durationTicks": 96,
          "midi": 76,
          "name": "E5",
          "ticks": 37630,
          "time": 32.664897890625,
          "velocity": 0.29133858267716534
        },
        {
          "duration": 0.16666649999999805,
          "durationTicks": 192,
          "midi": 26,
          "name": "D1",
          "ticks": 37630,
          "time": 32.664897890625,
          "velocity": 0.31496062992125984
        },
        {
          "duration": 0.08333325000000258,
          "durationTicks": 96,
          "midi": 88,
          "name": "E6",
          "ticks": 37630,
          "time": 32.664897890625,
          "velocity": 0.29133858267716534
        },
        {
          "duration": 0.08333325000000258,
          "durationTicks": 96,
          "midi": 92,
          "name": "G#6",
          "ticks": 37630,
          "time": 32.664897890625,
          "velocity": 0.1732283464566929
        },
        {
          "duration": 0.04166662500000484,
          "durationTicks": 48,
          "midi": 50,
          "name": "D3",
          "ticks": 37822,
          "time": 32.831564390625,
          "velocity": 0.28346456692913385
        },
        {
          "duration": 0.04166662500000484,
          "durationTicks": 48,
          "midi": 60,
          "name": "C4",
          "ticks": 37822,
          "time": 32.831564390625,
          "velocity": 0.28346456692913385
        },
        {
          "duration": 0.04166662500000484,
          "durationTicks": 48,
          "midi": 57,
          "name": "A3",
          "ticks": 37822,
          "time": 32.831564390625,
          "velocity": 0.28346456692913385
        },
        {
          "duration": 0.04166662500000484,
          "durationTicks": 48,
          "midi": 53,
          "name": "F3",
          "ticks": 37822,
          "time": 32.831564390625,
          "velocity": 0.28346456692913385
        },
        {
          "duration": 0.08333325000000258,
          "durationTicks": 96,
          "midi": 74,
          "name": "D5",
          "ticks": 37822,
          "time": 32.831564390625,
          "velocity": 0.31496062992125984
        },
        {
          "duration": 0.08333325000000258,
          "durationTicks": 96,
          "midi": 74,
          "name": "D5",
          "ticks": 37822,
          "time": 32.831564390625,
          "velocity": 0.29133858267716534
        },
        {
          "duration": 0.08333325000000258,
          "durationTicks": 96,
          "midi": 38,
          "name": "D2",
          "ticks": 37822,
          "time": 32.831564390625,
          "velocity": 0.2992125984251969
        },
        {
          "duration": 0.08333325000000258,
          "durationTicks": 96,
          "midi": 86,
          "name": "D6",
          "ticks": 37822,
          "time": 32.831564390625,
          "velocity": 0.29133858267716534
        },
        {
          "duration": 0.08333325000000258,
          "durationTicks": 96,
          "midi": 91,
          "name": "G6",
          "ticks": 37822,
          "time": 32.831564390625,
          "velocity": 0.1732283464566929
        },
        {
          "duration": 0.08333324999999547,
          "durationTicks": 96,
          "midi": 72,
          "name": "C5",
          "ticks": 38014,
          "time": 32.998230890625,
          "velocity": 0.31496062992125984
        },
        {
          "duration": 0.08333324999999547,
          "durationTicks": 96,
          "midi": 72,
          "name": "C5",
          "ticks": 38014,
          "time": 32.998230890625,
          "velocity": 0.29133858267716534
        },
        {
          "duration": 0.16666649999999805,
          "durationTicks": 192,
          "midi": 26,
          "name": "D1",
          "ticks": 38014,
          "time": 32.998230890625,
          "velocity": 0.31496062992125984
        },
        {
          "duration": 0.16666649999999805,
          "durationTicks": 192,
          "midi": 38,
          "name": "D2",
          "ticks": 38014,
          "time": 32.998230890625,
          "velocity": 0.29133858267716534
        },
        {
          "duration": 0.08333324999999547,
          "durationTicks": 96,
          "midi": 84,
          "name": "C6",
          "ticks": 38014,
          "time": 32.998230890625,
          "velocity": 0.29133858267716534
        },
        {
          "duration": 0.08333324999999547,
          "durationTicks": 96,
          "midi": 90,
          "name": "F#6",
          "ticks": 38014,
          "time": 32.998230890625,
          "velocity": 0.1732283464566929
        },
        {
          "duration": 0.04166662499999774,
          "durationTicks": 48,
          "midi": 50,
          "name": "D3",
          "ticks": 38206,
          "time": 33.164897390625,
          "velocity": 0.28346456692913385
        },
        {
          "duration": 0.04166662499999774,
          "durationTicks": 48,
          "midi": 60,
          "name": "C4",
          "ticks": 38206,
          "time": 33.164897390625,
          "velocity": 0.28346456692913385
        },
        {
          "duration": 0.04166662499999774,
          "durationTicks": 48,
          "midi": 53,
          "name": "F3",
          "ticks": 38206,
          "time": 33.164897390625,
          "velocity": 0.28346456692913385
        },
        {
          "duration": 0.04166662499999774,
          "durationTicks": 48,
          "midi": 57,
          "name": "A3",
          "ticks": 38206,
          "time": 33.164897390625,
          "velocity": 0.28346456692913385
        },
        {
          "duration": 0.08333325000000258,
          "durationTicks": 96,
          "midi": 74,
          "name": "D5",
          "ticks": 38206,
          "time": 33.164897390625,
          "velocity": 0.31496062992125984
        },
        {
          "duration": 0.08333325000000258,
          "durationTicks": 96,
          "midi": 74,
          "name": "D5",
          "ticks": 38206,
          "time": 33.164897390625,
          "velocity": 0.29133858267716534
        },
        {
          "duration": 0.08333325000000258,
          "durationTicks": 96,
          "midi": 38,
          "name": "D2",
          "ticks": 38206,
          "time": 33.164897390625,
          "velocity": 0.2992125984251969
        },
        {
          "duration": 0.08333325000000258,
          "durationTicks": 96,
          "midi": 86,
          "name": "D6",
          "ticks": 38206,
          "time": 33.164897390625,
          "velocity": 0.29133858267716534
        },
        {
          "duration": 0.08333325000000258,
          "durationTicks": 96,
          "midi": 89,
          "name": "F6",
          "ticks": 38206,
          "time": 33.164897390625,
          "velocity": 0.1732283464566929
        },
        {
          "duration": 0.04166662499999774,
          "durationTicks": 48,
          "midi": 26,
          "name": "D1",
          "ticks": 38302,
          "time": 33.248230640625,
          "velocity": 0.25196850393700787
        },
        {
          "duration": 0.16666650000000516,
          "durationTicks": 192,
          "midi": 76,
          "name": "E5",
          "ticks": 38398,
          "time": 33.331563890625,
          "velocity": 0.31496062992125984
        },
        {
          "duration": 0.16666650000000516,
          "durationTicks": 192,
          "midi": 76,
          "name": "E5",
          "ticks": 38398,
          "time": 33.331563890625,
          "velocity": 0.29133858267716534
        },
        {
          "duration": 0.16666650000000516,
          "durationTicks": 192,
          "midi": 28,
          "name": "E1",
          "ticks": 38398,
          "time": 33.331563890625,
          "velocity": 0.31496062992125984
        },
        {
          "duration": 0.08333325000000258,
          "durationTicks": 96,
          "midi": 88,
          "name": "E6",
          "ticks": 38398,
          "time": 33.331563890625,
          "velocity": 0.29133858267716534
        },
        {
          "duration": 0.16666650000000516,
          "durationTicks": 192,
          "midi": 88,
          "name": "E6",
          "ticks": 38398,
          "time": 33.331563890625,
          "velocity": 0.1732283464566929
        },
        {
          "duration": 0.04166662499999774,
          "durationTicks": 48,
          "midi": 56,
          "name": "G#3",
          "ticks": 38590,
          "time": 33.498230390625004,
          "velocity": 0.28346456692913385
        },
        {
          "duration": 0.04166662499999774,
          "durationTicks": 48,
          "midi": 59,
          "name": "B3",
          "ticks": 38590,
          "time": 33.498230390625004,
          "velocity": 0.28346456692913385
        },
        {
          "duration": 0.04166662499999774,
          "durationTicks": 48,
          "midi": 62,
          "name": "D4",
          "ticks": 38590,
          "time": 33.498230390625004,
          "velocity": 0.28346456692913385
        },
        {
          "duration": 0.04166662499999774,
          "durationTicks": 48,
          "midi": 52,
          "name": "E3",
          "ticks": 38590,
          "time": 33.498230390625004,
          "velocity": 0.28346456692913385
        },
        {
          "duration": 0.08333324999999547,
          "durationTicks": 96,
          "midi": 75,
          "name": "D#5",
          "ticks": 38590,
          "time": 33.498230390625004,
          "velocity": 0.31496062992125984
        },
        {
          "duration": 0.08333324999999547,
          "durationTicks": 96,
          "midi": 75,
          "name": "D#5",
          "ticks": 38590,
          "time": 33.498230390625004,
          "velocity": 0.29133858267716534
        },
        {
          "duration": 0.08333324999999547,
          "durationTicks": 96,
          "midi": 40,
          "name": "E2",
          "ticks": 38590,
          "time": 33.498230390625004,
          "velocity": 0.2992125984251969
        },
        {
          "duration": 0.08333324999999547,
          "durationTicks": 96,
          "midi": 87,
          "name": "D#6",
          "ticks": 38590,
          "time": 33.498230390625004,
          "velocity": 0.29133858267716534
        },
        {
          "duration": 0.08333324999999547,
          "durationTicks": 96,
          "midi": 87,
          "name": "D#6",
          "ticks": 38590,
          "time": 33.498230390625004,
          "velocity": 0.1732283464566929
        },
        {
          "duration": 0.08333324999999547,
          "durationTicks": 96,
          "midi": 76,
          "name": "E5",
          "ticks": 38782,
          "time": 33.664896890625,
          "velocity": 0.31496062992125984
        },
        {
          "duration": 0.08333324999999547,
          "durationTicks": 96,
          "midi": 76,
          "name": "E5",
          "ticks": 38782,
          "time": 33.664896890625,
          "velocity": 0.29133858267716534
        },
        {
          "duration": 0.16666649999999805,
          "durationTicks": 192,
          "midi": 28,
          "name": "E1",
          "ticks": 38782,
          "time": 33.664896890625,
          "velocity": 0.31496062992125984
        },
        {
          "duration": 0.16666649999999805,
          "durationTicks": 192,
          "midi": 40,
          "name": "E2",
          "ticks": 38782,
          "time": 33.664896890625,
          "velocity": 0.29133858267716534
        },
        {
          "duration": 0.08333324999999547,
          "durationTicks": 96,
          "midi": 88,
          "name": "E6",
          "ticks": 38782,
          "time": 33.664896890625,
          "velocity": 0.29133858267716534
        },
        {
          "duration": 0.08333324999999547,
          "durationTicks": 96,
          "midi": 86,
          "name": "D6",
          "ticks": 38782,
          "time": 33.664896890625,
          "velocity": 0.1732283464566929
        },
        {
          "duration": 0.04166662499999774,
          "durationTicks": 48,
          "midi": 56,
          "name": "G#3",
          "ticks": 38974,
          "time": 33.831563390625,
          "velocity": 0.28346456692913385
        },
        {
          "duration": 0.04166662499999774,
          "durationTicks": 48,
          "midi": 59,
          "name": "B3",
          "ticks": 38974,
          "time": 33.831563390625,
          "velocity": 0.28346456692913385
        },
        {
          "duration": 0.04166662499999774,
          "durationTicks": 48,
          "midi": 62,
          "name": "D4",
          "ticks": 38974,
          "time": 33.831563390625,
          "velocity": 0.28346456692913385
        },
        {
          "duration": 0.04166662499999774,
          "durationTicks": 48,
          "midi": 52,
          "name": "E3",
          "ticks": 38974,
          "time": 33.831563390625,
          "velocity": 0.28346456692913385
        },
        {
          "duration": 0.08333325000000258,
          "durationTicks": 96,
          "midi": 77,
          "name": "F5",
          "ticks": 38974,
          "time": 33.831563390625,
          "velocity": 0.31496062992125984
        },
        {
          "duration": 0.08333325000000258,
          "durationTicks": 96,
          "midi": 77,
          "name": "F5",
          "ticks": 38974,
          "time": 33.831563390625,
          "velocity": 0.29133858267716534
        },
        {
          "duration": 0.08333325000000258,
          "durationTicks": 96,
          "midi": 40,
          "name": "E2",
          "ticks": 38974,
          "time": 33.831563390625,
          "velocity": 0.2992125984251969
        },
        {
          "duration": 0.08333325000000258,
          "durationTicks": 96,
          "midi": 89,
          "name": "F6",
          "ticks": 38974,
          "time": 33.831563390625,
          "velocity": 0.29133858267716534
        },
        {
          "duration": 0.08333325000000258,
          "durationTicks": 96,
          "midi": 85,
          "name": "C#6",
          "ticks": 38974,
          "time": 33.831563390625,
          "velocity": 0.1732283464566929
        },
        {
          "duration": 0.04166662499999774,
          "durationTicks": 48,
          "midi": 28,
          "name": "E1",
          "ticks": 39070,
          "time": 33.914896640625,
          "velocity": 0.25196850393700787
        },
        {
          "duration": 0.08333325000000258,
          "durationTicks": 96,
          "midi": 76,
          "name": "E5",
          "ticks": 39166,
          "time": 33.998229890625,
          "velocity": 0.31496062992125984
        },
        {
          "duration": 0.08333325000000258,
          "durationTicks": 96,
          "midi": 76,
          "name": "E5",
          "ticks": 39166,
          "time": 33.998229890625,
          "velocity": 0.29133858267716534
        },
        {
          "duration": 0.16666650000000516,
          "durationTicks": 192,
          "midi": 28,
          "name": "E1",
          "ticks": 39166,
          "time": 33.998229890625,
          "velocity": 0.31496062992125984
        },
        {
          "duration": 0.08333325000000258,
          "durationTicks": 96,
          "midi": 88,
          "name": "E6",
          "ticks": 39166,
          "time": 33.998229890625,
          "velocity": 0.29133858267716534
        },
        {
          "duration": 0.08333325000000258,
          "durationTicks": 96,
          "midi": 84,
          "name": "C6",
          "ticks": 39166,
          "time": 33.998229890625,
          "velocity": 0.1732283464566929
        },
        {
          "duration": 0.04166662499999774,
          "durationTicks": 48,
          "midi": 56,
          "name": "G#3",
          "ticks": 39358,
          "time": 34.164896390625,
          "velocity": 0.28346456692913385
        },
        {
          "duration": 0.04166662499999774,
          "durationTicks": 48,
          "midi": 59,
          "name": "B3",
          "ticks": 39358,
          "time": 34.164896390625,
          "velocity": 0.28346456692913385
        },
        {
          "duration": 0.04166662499999774,
          "durationTicks": 48,
          "midi": 62,
          "name": "D4",
          "ticks": 39358,
          "time": 34.164896390625,
          "velocity": 0.28346456692913385
        },
        {
          "duration": 0.04166662499999774,
          "durationTicks": 48,
          "midi": 52,
          "name": "E3",
          "ticks": 39358,
          "time": 34.164896390625,
          "velocity": 0.28346456692913385
        },
        {
          "duration": 0.08333324999999547,
          "durationTicks": 96,
          "midi": 74,
          "name": "D5",
          "ticks": 39358,
          "time": 34.164896390625,
          "velocity": 0.31496062992125984
        },
        {
          "duration": 0.08333324999999547,
          "durationTicks": 96,
          "midi": 74,
          "name": "D5",
          "ticks": 39358,
          "time": 34.164896390625,
          "velocity": 0.29133858267716534
        },
        {
          "duration": 0.08333324999999547,
          "durationTicks": 96,
          "midi": 40,
          "name": "E2",
          "ticks": 39358,
          "time": 34.164896390625,
          "velocity": 0.2992125984251969
        },
        {
          "duration": 0.08333324999999547,
          "durationTicks": 96,
          "midi": 86,
          "name": "D6",
          "ticks": 39358,
          "time": 34.164896390625,
          "velocity": 0.29133858267716534
        },
        {
          "duration": 0.08333324999999547,
          "durationTicks": 96,
          "midi": 83,
          "name": "B5",
          "ticks": 39358,
          "time": 34.164896390625,
          "velocity": 0.1732283464566929
        },
        {
          "duration": 0.08333325000000258,
          "durationTicks": 96,
          "midi": 72,
          "name": "C5",
          "ticks": 39550,
          "time": 34.331562890625,
          "velocity": 0.31496062992125984
        },
        {
          "duration": 0.08333325000000258,
          "durationTicks": 96,
          "midi": 72,
          "name": "C5",
          "ticks": 39550,
          "time": 34.331562890625,
          "velocity": 0.29133858267716534
        },
        {
          "duration": 0.16666649999999805,
          "durationTicks": 192,
          "midi": 28,
          "name": "E1",
          "ticks": 39550,
          "time": 34.331562890625,
          "velocity": 0.31496062992125984
        },
        {
          "duration": 0.16666649999999805,
          "durationTicks": 192,
          "midi": 40,
          "name": "E2",
          "ticks": 39550,
          "time": 34.331562890625,
          "velocity": 0.29133858267716534
        },
        {
          "duration": 0.08333325000000258,
          "durationTicks": 96,
          "midi": 84,
          "name": "C6",
          "ticks": 39550,
          "time": 34.331562890625,
          "velocity": 0.29133858267716534
        },
        {
          "duration": 0.08333325000000258,
          "durationTicks": 96,
          "midi": 82,
          "name": "A#5",
          "ticks": 39550,
          "time": 34.331562890625,
          "velocity": 0.1732283464566929
        },
        {
          "duration": 0.04166662500000484,
          "durationTicks": 48,
          "midi": 52,
          "name": "E3",
          "ticks": 39742,
          "time": 34.498229390625,
          "velocity": 0.28346456692913385
        },
        {
          "duration": 0.04166662500000484,
          "durationTicks": 48,
          "midi": 62,
          "name": "D4",
          "ticks": 39742,
          "time": 34.498229390625,
          "velocity": 0.28346456692913385
        },
        {
          "duration": 0.04166662500000484,
          "durationTicks": 48,
          "midi": 59,
          "name": "B3",
          "ticks": 39742,
          "time": 34.498229390625,
          "velocity": 0.28346456692913385
        },
        {
          "duration": 0.04166662500000484,
          "durationTicks": 48,
          "midi": 56,
          "name": "G#3",
          "ticks": 39742,
          "time": 34.498229390625,
          "velocity": 0.28346456692913385
        },
        {
          "duration": 0.08333325000000258,
          "durationTicks": 96,
          "midi": 71,
          "name": "B4",
          "ticks": 39742,
          "time": 34.498229390625,
          "velocity": 0.31496062992125984
        },
        {
          "duration": 0.08333325000000258,
          "durationTicks": 96,
          "midi": 71,
          "name": "B4",
          "ticks": 39742,
          "time": 34.498229390625,
          "velocity": 0.29133858267716534
        },
        {
          "duration": 0.08333325000000258,
          "durationTicks": 96,
          "midi": 40,
          "name": "E2",
          "ticks": 39742,
          "time": 34.498229390625,
          "velocity": 0.2992125984251969
        },
        {
          "duration": 0.08333325000000258,
          "durationTicks": 96,
          "midi": 83,
          "name": "B5",
          "ticks": 39742,
          "time": 34.498229390625,
          "velocity": 0.29133858267716534
        },
        {
          "duration": 0.08333325000000258,
          "durationTicks": 96,
          "midi": 83,
          "name": "B5",
          "ticks": 39742,
          "time": 34.498229390625,
          "velocity": 0.1732283464566929
        },
        {
          "duration": 0.04166662499999774,
          "durationTicks": 48,
          "midi": 28,
          "name": "E1",
          "ticks": 39838,
          "time": 34.581562640625,
          "velocity": 0.25196850393700787
        },
        {
          "duration": 0.3333330000000032,
          "durationTicks": 384,
          "midi": 69,
          "name": "A4",
          "ticks": 39934,
          "time": 34.664895890625,
          "velocity": 0.31496062992125984
        },
        {
          "duration": 0.3333330000000032,
          "durationTicks": 384,
          "midi": 69,
          "name": "A4",
          "ticks": 39934,
          "time": 34.664895890625,
          "velocity": 0.29133858267716534
        },
        {
          "duration": 0.16666650000000516,
          "durationTicks": 192,
          "midi": 33,
          "name": "A1",
          "ticks": 39934,
          "time": 34.664895890625,
          "velocity": 0.31496062992125984
        },
        {
          "duration": 0.08333325000000258,
          "durationTicks": 96,
          "midi": 81,
          "name": "A5",
          "ticks": 39934,
          "time": 34.664895890625,
          "velocity": 0.29133858267716534
        },
        {
          "duration": 0.3333330000000032,
          "durationTicks": 384,
          "midi": 81,
          "name": "A5",
          "ticks": 39934,
          "time": 34.664895890625,
          "velocity": 0.1732283464566929
        },
        {
          "duration": 0.04166662499999774,
          "durationTicks": 48,
          "midi": 52,
          "name": "E3",
          "ticks": 40126,
          "time": 34.831562390625,
          "velocity": 0.28346456692913385
        },
        {
          "duration": 0.04166662499999774,
          "durationTicks": 48,
          "midi": 57,
          "name": "A3",
          "ticks": 40126,
          "time": 34.831562390625,
          "velocity": 0.28346456692913385
        },
        {
          "duration": 0.04166662499999774,
          "durationTicks": 48,
          "midi": 60,
          "name": "C4",
          "ticks": 40126,
          "time": 34.831562390625,
          "velocity": 0.28346456692913385
        },
        {
          "duration": 0.08333324999999547,
          "durationTicks": 96,
          "midi": 45,
          "name": "A2",
          "ticks": 40126,
          "time": 34.831562390625,
          "velocity": 0.2992125984251969
        },
        {
          "duration": 0.08333324999999547,
          "durationTicks": 96,
          "midi": 84,
          "name": "C6",
          "ticks": 40126,
          "time": 34.831562390625,
          "velocity": 0.1732283464566929
        },
        {
          "duration": 0.16666649999999805,
          "durationTicks": 192,
          "midi": 81,
          "name": "A5",
          "ticks": 40318,
          "time": 34.998228890625,
          "velocity": 0.31496062992125984
        },
        {
          "duration": 0.16666649999999805,
          "durationTicks": 192,
          "midi": 33,
          "name": "A1",
          "ticks": 40318,
          "time": 34.998228890625,
          "velocity": 0.31496062992125984
        },
        {
          "duration": 0.16666649999999805,
          "durationTicks": 192,
          "midi": 45,
          "name": "A2",
          "ticks": 40318,
          "time": 34.998228890625,
          "velocity": 0.29133858267716534
        },
        {
          "duration": 0.16666649999999805,
          "durationTicks": 192,
          "midi": 93,
          "name": "A6",
          "ticks": 40318,
          "time": 34.998228890625,
          "velocity": 0.29133858267716534
        },
        {
          "duration": 0.08333325000000258,
          "durationTicks": 96,
          "midi": 88,
          "name": "E6",
          "ticks": 40318,
          "time": 34.998228890625,
          "velocity": 0.1732283464566929
        },
        {
          "duration": 0.04166662500000484,
          "durationTicks": 48,
          "midi": 52,
          "name": "E3",
          "ticks": 40510,
          "time": 35.164895390625,
          "velocity": 0.28346456692913385
        },
        {
          "duration": 0.04166662500000484,
          "durationTicks": 48,
          "midi": 57,
          "name": "A3",
          "ticks": 40510,
          "time": 35.164895390625,
          "velocity": 0.28346456692913385
        },
        {
          "duration": 0.04166662500000484,
          "durationTicks": 48,
          "midi": 60,
          "name": "C4",
          "ticks": 40510,
          "time": 35.164895390625,
          "velocity": 0.28346456692913385
        },
        {
          "duration": 0.16666650000000516,
          "durationTicks": 192,
          "midi": 81,
          "name": "A5",
          "ticks": 40510,
          "time": 35.164895390625,
          "velocity": 0.25196850393700787
        },
        {
          "duration": 0.08333325000000258,
          "durationTicks": 96,
          "midi": 45,
          "name": "A2",
          "ticks": 40510,
          "time": 35.164895390625,
          "velocity": 0.2992125984251969
        },
        {
          "duration": 0.08333325000000258,
          "durationTicks": 96,
          "midi": 93,
          "name": "A6",
          "ticks": 40510,
          "time": 35.164895390625,
          "velocity": 0.1732283464566929
        },
        {
          "duration": 0.04166662499999774,
          "durationTicks": 48,
          "midi": 33,
          "name": "A1",
          "ticks": 40606,
          "time": 35.248228640625,
          "velocity": 0.25196850393700787
        },
        {
          "duration": 0.16666649999999805,
          "durationTicks": 192,
          "midi": 80,
          "name": "G#5",
          "ticks": 40702,
          "time": 35.331561890625004,
          "velocity": 0.31496062992125984
        },
        {
          "duration": 0.16666649999999805,
          "durationTicks": 192,
          "midi": 33,
          "name": "A1",
          "ticks": 40702,
          "time": 35.331561890625004,
          "velocity": 0.31496062992125984
        },
        {
          "duration": 0.08333324999999547,
          "durationTicks": 96,
          "midi": 92,
          "name": "G#6",
          "ticks": 40702,
          "time": 35.331561890625004,
          "velocity": 0.29133858267716534
        },
        {
          "duration": 0.16666649999999805,
          "durationTicks": 192,
          "midi": 92,
          "name": "G#6",
          "ticks": 40702,
          "time": 35.331561890625004,
          "velocity": 0.1732283464566929
        },
        {
          "duration": 0.04166662499999774,
          "durationTicks": 48,
          "midi": 57,
          "name": "A3",
          "ticks": 40894,
          "time": 35.498228390625,
          "velocity": 0.28346456692913385
        },
        {
          "duration": 0.04166662499999774,
          "durationTicks": 48,
          "midi": 60,
          "name": "C4",
          "ticks": 40894,
          "time": 35.498228390625,
          "velocity": 0.28346456692913385
        },
        {
          "duration": 0.04166662499999774,
          "durationTicks": 48,
          "midi": 52,
          "name": "E3",
          "ticks": 40894,
          "time": 35.498228390625,
          "velocity": 0.28346456692913385
        },
        {
          "duration": 0.16666649999999805,
          "durationTicks": 192,
          "midi": 80,
          "name": "G#5",
          "ticks": 40894,
          "time": 35.498228390625,
          "velocity": 0.25196850393700787
        },
        {
          "duration": 0.08333324999999547,
          "durationTicks": 96,
          "midi": 45,
          "name": "A2",
          "ticks": 40894,
          "time": 35.498228390625,
          "velocity": 0.2992125984251969
        },
        {
          "duration": 0.08333324999999547,
          "durationTicks": 96,
          "midi": 91,
          "name": "G6",
          "ticks": 40894,
          "time": 35.498228390625,
          "velocity": 0.1732283464566929
        },
        {
          "duration": 0.16666649999999805,
          "durationTicks": 192,
          "midi": 79,
          "name": "G5",
          "ticks": 41086,
          "time": 35.664894890625,
          "velocity": 0.31496062992125984
        },
        {
          "duration": 0.16666649999999805,
          "durationTicks": 192,
          "midi": 33,
          "name": "A1",
          "ticks": 41086,
          "time": 35.664894890625,
          "velocity": 0.31496062992125984
        },
        {
          "duration": 0.16666649999999805,
          "durationTicks": 192,
          "midi": 45,
          "name": "A2",
          "ticks": 41086,
          "time": 35.664894890625,
          "velocity": 0.29133858267716534
        },
        {
          "duration": 0.16666649999999805,
          "durationTicks": 192,
          "midi": 91,
          "name": "G6",
          "ticks": 41086,
          "time": 35.664894890625,
          "velocity": 0.29133858267716534
        },
        {
          "duration": 0.08333325000000258,
          "durationTicks": 96,
          "midi": 90,
          "name": "F#6",
          "ticks": 41086,
          "time": 35.664894890625,
          "velocity": 0.1732283464566929
        },
        {
          "duration": 0.04166662500000484,
          "durationTicks": 48,
          "midi": 57,
          "name": "A3",
          "ticks": 41278,
          "time": 35.831561390625,
          "velocity": 0.28346456692913385
        },
        {
          "duration": 0.04166662500000484,
          "durationTicks": 48,
          "midi": 60,
          "name": "C4",
          "ticks": 41278,
          "time": 35.831561390625,
          "velocity": 0.28346456692913385
        },
        {
          "duration": 0.04166662500000484,
          "durationTicks": 48,
          "midi": 52,
          "name": "E3",
          "ticks": 41278,
          "time": 35.831561390625,
          "velocity": 0.28346456692913385
        },
        {
          "duration": 0.16666650000000516,
          "durationTicks": 192,
          "midi": 79,
          "name": "G5",
          "ticks": 41278,
          "time": 35.831561390625,
          "velocity": 0.25196850393700787
        },
        {
          "duration": 0.08333325000000258,
          "durationTicks": 96,
          "midi": 45,
          "name": "A2",
          "ticks": 41278,
          "time": 35.831561390625,
          "velocity": 0.2992125984251969
        },
        {
          "duration": 0.08333325000000258,
          "durationTicks": 96,
          "midi": 89,
          "name": "F6",
          "ticks": 41278,
          "time": 35.831561390625,
          "velocity": 0.1732283464566929
        },
        {
          "duration": 0.04166662499999774,
          "durationTicks": 48,
          "midi": 33,
          "name": "A1",
          "ticks": 41374,
          "time": 35.914894640625,
          "velocity": 0.25196850393700787
        },
        {
          "duration": 0.16666649999999805,
          "durationTicks": 192,
          "midi": 78,
          "name": "F#5",
          "ticks": 41470,
          "time": 35.998227890625,
          "velocity": 0.31496062992125984
        },
        {
          "duration": 0.16666649999999805,
          "durationTicks": 192,
          "midi": 36,
          "name": "C2",
          "ticks": 41470,
          "time": 35.998227890625,
          "velocity": 0.31496062992125984
        },
        {
          "duration": 0.16666649999999805,
          "durationTicks": 192,
          "midi": 90,
          "name": "F#6",
          "ticks": 41470,
          "time": 35.998227890625,
          "velocity": 0.29133858267716534
        },
        {
          "duration": 0.08333324999999547,
          "durationTicks": 96,
          "midi": 88,
          "name": "E6",
          "ticks": 41470,
          "time": 35.998227890625,
          "velocity": 0.1732283464566929
        },
        {
          "duration": 0.04166662499999774,
          "durationTicks": 48,
          "midi": 62,
          "name": "D4",
          "ticks": 41662,
          "time": 36.164894390625,
          "velocity": 0.28346456692913385
        },
        {
          "duration": 0.04166662499999774,
          "durationTicks": 48,
          "midi": 54,
          "name": "F#3",
          "ticks": 41662,
          "time": 36.164894390625,
          "velocity": 0.28346456692913385
        },
        {
          "duration": 0.04166662499999774,
          "durationTicks": 48,
          "midi": 58,
          "name": "A#3",
          "ticks": 41662,
          "time": 36.164894390625,
          "velocity": 0.28346456692913385
        },
        {
          "duration": 0.04166662499999774,
          "durationTicks": 48,
          "midi": 60,
          "name": "C4",
          "ticks": 41662,
          "time": 36.164894390625,
          "velocity": 0.28346456692913385
        },
        {
          "duration": 0.16666649999999805,
          "durationTicks": 192,
          "midi": 78,
          "name": "F#5",
          "ticks": 41662,
          "time": 36.164894390625,
          "velocity": 0.25196850393700787
        },
        {
          "duration": 0.08333325000000258,
          "durationTicks": 96,
          "midi": 48,
          "name": "C3",
          "ticks": 41662,
          "time": 36.164894390625,
          "velocity": 0.2992125984251969
        },
        {
          "duration": 0.08333325000000258,
          "durationTicks": 96,
          "midi": 87,
          "name": "D#6",
          "ticks": 41662,
          "time": 36.164894390625,
          "velocity": 0.1732283464566929
        },
        {
          "duration": 0.16666649999999805,
          "durationTicks": 192,
          "midi": 77,
          "name": "F5",
          "ticks": 41854,
          "time": 36.331560890625,
          "velocity": 0.31496062992125984
        },
        {
          "duration": 0.16666649999999805,
          "durationTicks": 192,
          "midi": 36,
          "name": "C2",
          "ticks": 41854,
          "time": 36.331560890625,
          "velocity": 0.31496062992125984
        },
        {
          "duration": 0.16666649999999805,
          "durationTicks": 192,
          "midi": 48,
          "name": "C3",
          "ticks": 41854,
          "time": 36.331560890625,
          "velocity": 0.29133858267716534
        },
        {
          "duration": 0.16666649999999805,
          "durationTicks": 192,
          "midi": 89,
          "name": "F6",
          "ticks": 41854,
          "time": 36.331560890625,
          "velocity": 0.29133858267716534
        },
        {
          "duration": 0.08333325000000258,
          "durationTicks": 96,
          "midi": 86,
          "name": "D6",
          "ticks": 41854,
          "time": 36.331560890625,
          "velocity": 0.1732283464566929
        },
        {
          "duration": 0.04166662500000484,
          "durationTicks": 48,
          "midi": 60,
          "name": "C4",
          "ticks": 42046,
          "time": 36.498227390625,
          "velocity": 0.28346456692913385
        },
        {
          "duration": 0.04166662500000484,
          "durationTicks": 48,
          "midi": 62,
          "name": "D4",
          "ticks": 42046,
          "time": 36.498227390625,
          "velocity": 0.28346456692913385
        },
        {
          "duration": 0.04166662500000484,
          "durationTicks": 48,
          "midi": 54,
          "name": "F#3",
          "ticks": 42046,
          "time": 36.498227390625,
          "velocity": 0.28346456692913385
        },
        {
          "duration": 0.04166662500000484,
          "durationTicks": 48,
          "midi": 58,
          "name": "A#3",
          "ticks": 42046,
          "time": 36.498227390625,
          "velocity": 0.28346456692913385
        },
        {
          "duration": 0.16666650000000516,
          "durationTicks": 192,
          "midi": 77,
          "name": "F5",
          "ticks": 42046,
          "time": 36.498227390625,
          "velocity": 0.25196850393700787
        },
        {
          "duration": 0.08333325000000258,
          "durationTicks": 96,
          "midi": 48,
          "name": "C3",
          "ticks": 42046,
          "time": 36.498227390625,
          "velocity": 0.2992125984251969
        },
        {
          "duration": 0.08333325000000258,
          "durationTicks": 96,
          "midi": 85,
          "name": "C#6",
          "ticks": 42046,
          "time": 36.498227390625,
          "velocity": 0.1732283464566929
        },
        {
          "duration": 0.04166662499999774,
          "durationTicks": 48,
          "midi": 36,
          "name": "C2",
          "ticks": 42142,
          "time": 36.581560640625,
          "velocity": 0.25196850393700787
        },
        {
          "duration": 0.16666649999999805,
          "durationTicks": 192,
          "midi": 75,
          "name": "D#5",
          "ticks": 42238,
          "time": 36.664893890625,
          "velocity": 0.31496062992125984
        },
        {
          "duration": 0.16666649999999805,
          "durationTicks": 192,
          "midi": 36,
          "name": "C2",
          "ticks": 42238,
          "time": 36.664893890625,
          "velocity": 0.31496062992125984
        },
        {
          "duration": 0.16666649999999805,
          "durationTicks": 192,
          "midi": 87,
          "name": "D#6",
          "ticks": 42238,
          "time": 36.664893890625,
          "velocity": 0.29133858267716534
        },
        {
          "duration": 0.08333324999999547,
          "durationTicks": 96,
          "midi": 84,
          "name": "C6",
          "ticks": 42238,
          "time": 36.664893890625,
          "velocity": 0.1732283464566929
        },
        {
          "duration": 0.04166662499999774,
          "durationTicks": 48,
          "midi": 48,
          "name": "C3",
          "ticks": 42430,
          "time": 36.831560390625,
          "velocity": 0.2440944881889764
        },
        {
          "duration": 0.04166662499999774,
          "durationTicks": 48,
          "midi": 62,
          "name": "D4",
          "ticks": 42430,
          "time": 36.831560390625,
          "velocity": 0.28346456692913385
        },
        {
          "duration": 0.04166662499999774,
          "durationTicks": 48,
          "midi": 58,
          "name": "A#3",
          "ticks": 42430,
          "time": 36.831560390625,
          "velocity": 0.28346456692913385
        },
        {
          "duration": 0.04166662499999774,
          "durationTicks": 48,
          "midi": 54,
          "name": "F#3",
          "ticks": 42430,
          "time": 36.831560390625,
          "velocity": 0.28346456692913385
        },
        {
          "duration": 0.04166662499999774,
          "durationTicks": 48,
          "midi": 60,
          "name": "C4",
          "ticks": 42430,
          "time": 36.831560390625,
          "velocity": 0.28346456692913385
        },
        {
          "duration": 0.16666649999999805,
          "durationTicks": 192,
          "midi": 75,
          "name": "D#5",
          "ticks": 42430,
          "time": 36.831560390625,
          "velocity": 0.25196850393700787
        },
        {
          "duration": 0.08333325000000258,
          "durationTicks": 96,
          "midi": 48,
          "name": "C3",
          "ticks": 42430,
          "time": 36.831560390625,
          "velocity": 0.2992125984251969
        },
        {
          "duration": 0.08333325000000258,
          "durationTicks": 96,
          "midi": 83,
          "name": "B5",
          "ticks": 42430,
          "time": 36.831560390625,
          "velocity": 0.1732283464566929
        },
        {
          "duration": 0.04166662500000484,
          "durationTicks": 48,
          "midi": 50,
          "name": "D3",
          "ticks": 42622,
          "time": 36.998226890625,
          "velocity": 0.2440944881889764
        },
        {
          "duration": 0.16666650000000516,
          "durationTicks": 192,
          "midi": 76,
          "name": "E5",
          "ticks": 42622,
          "time": 36.998226890625,
          "velocity": 0.31496062992125984
        },
        {
          "duration": 0.16666650000000516,
          "durationTicks": 192,
          "midi": 36,
          "name": "C2",
          "ticks": 42622,
          "time": 36.998226890625,
          "velocity": 0.31496062992125984
        },
        {
          "duration": 0.16666650000000516,
          "durationTicks": 192,
          "midi": 48,
          "name": "C3",
          "ticks": 42622,
          "time": 36.998226890625,
          "velocity": 0.29133858267716534
        },
        {
          "duration": 0.16666650000000516,
          "durationTicks": 192,
          "midi": 88,
          "name": "E6",
          "ticks": 42622,
          "time": 36.998226890625,
          "velocity": 0.29133858267716534
        },
        {
          "duration": 0.08333325000000258,
          "durationTicks": 96,
          "midi": 82,
          "name": "A#5",
          "ticks": 42622,
          "time": 36.998226890625,
          "velocity": 0.1732283464566929
        },
        {
          "duration": 0.04166662499999774,
          "durationTicks": 48,
          "midi": 52,
          "name": "E3",
          "ticks": 42814,
          "time": 37.164893390625004,
          "velocity": 0.2440944881889764
        },
        {
          "duration": 0.04166662499999774,
          "durationTicks": 48,
          "midi": 62,
          "name": "D4",
          "ticks": 42814,
          "time": 37.164893390625004,
          "velocity": 0.28346456692913385
        },
        {
          "duration": 0.04166662499999774,
          "durationTicks": 48,
          "midi": 58,
          "name": "A#3",
          "ticks": 42814,
          "time": 37.164893390625004,
          "velocity": 0.28346456692913385
        },
        {
          "duration": 0.04166662499999774,
          "durationTicks": 48,
          "midi": 54,
          "name": "F#3",
          "ticks": 42814,
          "time": 37.164893390625004,
          "velocity": 0.28346456692913385
        },
        {
          "duration": 0.04166662499999774,
          "durationTicks": 48,
          "midi": 60,
          "name": "C4",
          "ticks": 42814,
          "time": 37.164893390625004,
          "velocity": 0.28346456692913385
        },
        {
          "duration": 0.16666649999999805,
          "durationTicks": 192,
          "midi": 76,
          "name": "E5",
          "ticks": 42814,
          "time": 37.164893390625004,
          "velocity": 0.25196850393700787
        },
        {
          "duration": 0.08333324999999547,
          "durationTicks": 96,
          "midi": 48,
          "name": "C3",
          "ticks": 42814,
          "time": 37.164893390625004,
          "velocity": 0.2992125984251969
        },
        {
          "duration": 0.08333324999999547,
          "durationTicks": 96,
          "midi": 83,
          "name": "B5",
          "ticks": 42814,
          "time": 37.164893390625004,
          "velocity": 0.1732283464566929
        },
        {
          "duration": 0.04166662500000484,
          "durationTicks": 48,
          "midi": 36,
          "name": "C2",
          "ticks": 42910,
          "time": 37.248226640625,
          "velocity": 0.25196850393700787
        },
        {
          "duration": 0.16666649999999805,
          "durationTicks": 192,
          "midi": 76,
          "name": "E5",
          "ticks": 43006,
          "time": 37.331559890625,
          "velocity": 0.31496062992125984
        },
        {
          "duration": 0.16666649999999805,
          "durationTicks": 192,
          "midi": 76,
          "name": "E5",
          "ticks": 43006,
          "time": 37.331559890625,
          "velocity": 0.29133858267716534
        },
        {
          "duration": 0.16666649999999805,
          "durationTicks": 192,
          "midi": 26,
          "name": "D1",
          "ticks": 43006,
          "time": 37.331559890625,
          "velocity": 0.31496062992125984
        },
        {
          "duration": 0.16666649999999805,
          "durationTicks": 192,
          "midi": 88,
          "name": "E6",
          "ticks": 43006,
          "time": 37.331559890625,
          "velocity": 0.29133858267716534
        },
        {
          "duration": 0.08333324999999547,
          "durationTicks": 96,
          "midi": 81,
          "name": "A5",
          "ticks": 43006,
          "time": 37.331559890625,
          "velocity": 0.1732283464566929
        },
        {
          "duration": 0.04166662499999774,
          "durationTicks": 48,
          "midi": 53,
          "name": "F3",
          "ticks": 43198,
          "time": 37.498226390625,
          "velocity": 0.28346456692913385
        },
        {
          "duration": 0.04166662499999774,
          "durationTicks": 48,
          "midi": 57,
          "name": "A3",
          "ticks": 43198,
          "time": 37.498226390625,
          "velocity": 0.28346456692913385
        },
        {
          "duration": 0.04166662499999774,
          "durationTicks": 48,
          "midi": 60,
          "name": "C4",
          "ticks": 43198,
          "time": 37.498226390625,
          "velocity": 0.28346456692913385
        },
        {
          "duration": 0.04166662499999774,
          "durationTicks": 48,
          "midi": 50,
          "name": "D3",
          "ticks": 43198,
          "time": 37.498226390625,
          "velocity": 0.28346456692913385
        },
        {
          "duration": 0.08333325000000258,
          "durationTicks": 96,
          "midi": 75,
          "name": "D#5",
          "ticks": 43198,
          "time": 37.498226390625,
          "velocity": 0.31496062992125984
        },
        {
          "duration": 0.08333325000000258,
          "durationTicks": 96,
          "midi": 75,
          "name": "D#5",
          "ticks": 43198,
          "time": 37.498226390625,
          "velocity": 0.29133858267716534
        },
        {
          "duration": 0.08333325000000258,
          "durationTicks": 96,
          "midi": 38,
          "name": "D2",
          "ticks": 43198,
          "time": 37.498226390625,
          "velocity": 0.2992125984251969
        },
        {
          "duration": 0.08333325000000258,
          "durationTicks": 96,
          "midi": 87,
          "name": "D#6",
          "ticks": 43198,
          "time": 37.498226390625,
          "velocity": 0.29133858267716534
        },
        {
          "duration": 0.08333325000000258,
          "durationTicks": 96,
          "midi": 84,
          "name": "C6",
          "ticks": 43198,
          "time": 37.498226390625,
          "velocity": 0.1732283464566929
        },
        {
          "duration": 0.08333325000000258,
          "durationTicks": 96,
          "midi": 76,
          "name": "E5",
          "ticks": 43390,
          "time": 37.664892890625,
          "velocity": 0.31496062992125984
        },
        {
          "duration": 0.08333325000000258,
          "durationTicks": 96,
          "midi": 76,
          "name": "E5",
          "ticks": 43390,
          "time": 37.664892890625,
          "velocity": 0.29133858267716534
        },
        {
          "duration": 0.16666650000000516,
          "durationTicks": 192,
          "midi": 26,
          "name": "D1",
          "ticks": 43390,
          "time": 37.664892890625,
          "velocity": 0.31496062992125984
        },
        {
          "duration": 0.16666650000000516,
          "durationTicks": 192,
          "midi": 38,
          "name": "D2",
          "ticks": 43390,
          "time": 37.664892890625,
          "velocity": 0.29133858267716534
        },
        {
          "duration": 0.08333325000000258,
          "durationTicks": 96,
          "midi": 88,
          "name": "E6",
          "ticks": 43390,
          "time": 37.664892890625,
          "velocity": 0.29133858267716534
        },
        {
          "duration": 0.08333325000000258,
          "durationTicks": 96,
          "midi": 88,
          "name": "E6",
          "ticks": 43390,
          "time": 37.664892890625,
          "velocity": 0.1732283464566929
        },
        {
          "duration": 0.04166662499999774,
          "durationTicks": 48,
          "midi": 53,
          "name": "F3",
          "ticks": 43582,
          "time": 37.831559390625,
          "velocity": 0.28346456692913385
        },
        {
          "duration": 0.04166662499999774,
          "durationTicks": 48,
          "midi": 57,
          "name": "A3",
          "ticks": 43582,
          "time": 37.831559390625,
          "velocity": 0.28346456692913385
        },
        {
          "duration": 0.04166662499999774,
          "durationTicks": 48,
          "midi": 60,
          "name": "C4",
          "ticks": 43582,
          "time": 37.831559390625,
          "velocity": 0.28346456692913385
        },
        {
          "duration": 0.04166662499999774,
          "durationTicks": 48,
          "midi": 50,
          "name": "D3",
          "ticks": 43582,
          "time": 37.831559390625,
          "velocity": 0.28346456692913385
        },
        {
          "duration": 0.08333324999999547,
          "durationTicks": 96,
          "midi": 77,
          "name": "F5",
          "ticks": 43582,
          "time": 37.831559390625,
          "velocity": 0.31496062992125984
        },
        {
          "duration": 0.08333324999999547,
          "durationTicks": 96,
          "midi": 77,
          "name": "F5",
          "ticks": 43582,
          "time": 37.831559390625,
          "velocity": 0.29133858267716534
        },
        {
          "duration": 0.08333324999999547,
          "durationTicks": 96,
          "midi": 38,
          "name": "D2",
          "ticks": 43582,
          "time": 37.831559390625,
          "velocity": 0.2992125984251969
        },
        {
          "duration": 0.08333324999999547,
          "durationTicks": 96,
          "midi": 89,
          "name": "F6",
          "ticks": 43582,
          "time": 37.831559390625,
          "velocity": 0.29133858267716534
        },
        {
          "duration": 0.08333324999999547,
          "durationTicks": 96,
          "midi": 93,
          "name": "A6",
          "ticks": 43582,
          "time": 37.831559390625,
          "velocity": 0.1732283464566929
        },
        {
          "duration": 0.04166662500000484,
          "durationTicks": 48,
          "midi": 26,
          "name": "D1",
          "ticks": 43678,
          "time": 37.914892640625,
          "velocity": 0.25196850393700787
        },
        {
          "duration": 0.08333325000000258,
          "durationTicks": 96,
          "midi": 76,
          "name": "E5",
          "ticks": 43774,
          "time": 37.998225890625,
          "velocity": 0.31496062992125984
        },
        {
          "duration": 0.08333325000000258,
          "durationTicks": 96,
          "midi": 76,
          "name": "E5",
          "ticks": 43774,
          "time": 37.998225890625,
          "velocity": 0.29133858267716534
        },
        {
          "duration": 0.16666649999999805,
          "durationTicks": 192,
          "midi": 26,
          "name": "D1",
          "ticks": 43774,
          "time": 37.998225890625,
          "velocity": 0.31496062992125984
        },
        {
          "duration": 0.08333325000000258,
          "durationTicks": 96,
          "midi": 88,
          "name": "E6",
          "ticks": 43774,
          "time": 37.998225890625,
          "velocity": 0.29133858267716534
        },
        {
          "duration": 0.08333325000000258,
          "durationTicks": 96,
          "midi": 92,
          "name": "G#6",
          "ticks": 43774,
          "time": 37.998225890625,
          "velocity": 0.1732283464566929
        },
        {
          "duration": 0.04166662500000484,
          "durationTicks": 48,
          "midi": 50,
          "name": "D3",
          "ticks": 43966,
          "time": 38.164892390625,
          "velocity": 0.28346456692913385
        },
        {
          "duration": 0.04166662500000484,
          "durationTicks": 48,
          "midi": 60,
          "name": "C4",
          "ticks": 43966,
          "time": 38.164892390625,
          "velocity": 0.28346456692913385
        },
        {
          "duration": 0.04166662500000484,
          "durationTicks": 48,
          "midi": 57,
          "name": "A3",
          "ticks": 43966,
          "time": 38.164892390625,
          "velocity": 0.28346456692913385
        },
        {
          "duration": 0.04166662500000484,
          "durationTicks": 48,
          "midi": 53,
          "name": "F3",
          "ticks": 43966,
          "time": 38.164892390625,
          "velocity": 0.28346456692913385
        },
        {
          "duration": 0.08333325000000258,
          "durationTicks": 96,
          "midi": 74,
          "name": "D5",
          "ticks": 43966,
          "time": 38.164892390625,
          "velocity": 0.31496062992125984
        },
        {
          "duration": 0.08333325000000258,
          "durationTicks": 96,
          "midi": 74,
          "name": "D5",
          "ticks": 43966,
          "time": 38.164892390625,
          "velocity": 0.29133858267716534
        },
        {
          "duration": 0.08333325000000258,
          "durationTicks": 96,
          "midi": 38,
          "name": "D2",
          "ticks": 43966,
          "time": 38.164892390625,
          "velocity": 0.2992125984251969
        },
        {
          "duration": 0.08333325000000258,
          "durationTicks": 96,
          "midi": 86,
          "name": "D6",
          "ticks": 43966,
          "time": 38.164892390625,
          "velocity": 0.29133858267716534
        },
        {
          "duration": 0.08333325000000258,
          "durationTicks": 96,
          "midi": 91,
          "name": "G6",
          "ticks": 43966,
          "time": 38.164892390625,
          "velocity": 0.1732283464566929
        },
        {
          "duration": 0.08333325000000258,
          "durationTicks": 96,
          "midi": 72,
          "name": "C5",
          "ticks": 44158,
          "time": 38.331558890625,
          "velocity": 0.31496062992125984
        },
        {
          "duration": 0.08333325000000258,
          "durationTicks": 96,
          "midi": 72,
          "name": "C5",
          "ticks": 44158,
          "time": 38.331558890625,
          "velocity": 0.29133858267716534
        },
        {
          "duration": 0.16666650000000516,
          "durationTicks": 192,
          "midi": 26,
          "name": "D1",
          "ticks": 44158,
          "time": 38.331558890625,
          "velocity": 0.31496062992125984
        },
        {
          "duration": 0.16666650000000516,
          "durationTicks": 192,
          "midi": 38,
          "name": "D2",
          "ticks": 44158,
          "time": 38.331558890625,
          "velocity": 0.29133858267716534
        },
        {
          "duration": 0.08333325000000258,
          "durationTicks": 96,
          "midi": 84,
          "name": "C6",
          "ticks": 44158,
          "time": 38.331558890625,
          "velocity": 0.29133858267716534
        },
        {
          "duration": 0.08333325000000258,
          "durationTicks": 96,
          "midi": 90,
          "name": "F#6",
          "ticks": 44158,
          "time": 38.331558890625,
          "velocity": 0.1732283464566929
        },
        {
          "duration": 0.04166662499999774,
          "durationTicks": 48,
          "midi": 53,
          "name": "F3",
          "ticks": 44350,
          "time": 38.498225390625,
          "velocity": 0.28346456692913385
        },
        {
          "duration": 0.04166662499999774,
          "durationTicks": 48,
          "midi": 57,
          "name": "A3",
          "ticks": 44350,
          "time": 38.498225390625,
          "velocity": 0.28346456692913385
        },
        {
          "duration": 0.04166662499999774,
          "durationTicks": 48,
          "midi": 60,
          "name": "C4",
          "ticks": 44350,
          "time": 38.498225390625,
          "velocity": 0.28346456692913385
        },
        {
          "duration": 0.04166662499999774,
          "durationTicks": 48,
          "midi": 50,
          "name": "D3",
          "ticks": 44350,
          "time": 38.498225390625,
          "velocity": 0.28346456692913385
        },
        {
          "duration": 0.08333324999999547,
          "durationTicks": 96,
          "midi": 74,
          "name": "D5",
          "ticks": 44350,
          "time": 38.498225390625,
          "velocity": 0.31496062992125984
        },
        {
          "duration": 0.08333324999999547,
          "durationTicks": 96,
          "midi": 74,
          "name": "D5",
          "ticks": 44350,
          "time": 38.498225390625,
          "velocity": 0.29133858267716534
        },
        {
          "duration": 0.08333324999999547,
          "durationTicks": 96,
          "midi": 38,
          "name": "D2",
          "ticks": 44350,
          "time": 38.498225390625,
          "velocity": 0.2992125984251969
        },
        {
          "duration": 0.08333324999999547,
          "durationTicks": 96,
          "midi": 86,
          "name": "D6",
          "ticks": 44350,
          "time": 38.498225390625,
          "velocity": 0.29133858267716534
        },
        {
          "duration": 0.08333324999999547,
          "durationTicks": 96,
          "midi": 89,
          "name": "F6",
          "ticks": 44350,
          "time": 38.498225390625,
          "velocity": 0.1732283464566929
        },
        {
          "duration": 0.04166662500000484,
          "durationTicks": 48,
          "midi": 26,
          "name": "D1",
          "ticks": 44446,
          "time": 38.581558640625,
          "velocity": 0.25196850393700787
        },
        {
          "duration": 0.16666649999999805,
          "durationTicks": 192,
          "midi": 76,
          "name": "E5",
          "ticks": 44542,
          "time": 38.664891890625,
          "velocity": 0.31496062992125984
        },
        {
          "duration": 0.16666649999999805,
          "durationTicks": 192,
          "midi": 76,
          "name": "E5",
          "ticks": 44542,
          "time": 38.664891890625,
          "velocity": 0.29133858267716534
        },
        {
          "duration": 0.16666649999999805,
          "durationTicks": 192,
          "midi": 28,
          "name": "E1",
          "ticks": 44542,
          "time": 38.664891890625,
          "velocity": 0.31496062992125984
        },
        {
          "duration": 0.08333325000000258,
          "durationTicks": 96,
          "midi": 88,
          "name": "E6",
          "ticks": 44542,
          "time": 38.664891890625,
          "velocity": 0.29133858267716534
        },
        {
          "duration": 0.16666649999999805,
          "durationTicks": 192,
          "midi": 88,
          "name": "E6",
          "ticks": 44542,
          "time": 38.664891890625,
          "velocity": 0.1732283464566929
        },
        {
          "duration": 0.04166662500000484,
          "durationTicks": 48,
          "midi": 56,
          "name": "G#3",
          "ticks": 44734,
          "time": 38.831558390625,
          "velocity": 0.28346456692913385
        },
        {
          "duration": 0.04166662500000484,
          "durationTicks": 48,
          "midi": 59,
          "name": "B3",
          "ticks": 44734,
          "time": 38.831558390625,
          "velocity": 0.28346456692913385
        },
        {
          "duration": 0.04166662500000484,
          "durationTicks": 48,
          "midi": 52,
          "name": "E3",
          "ticks": 44734,
          "time": 38.831558390625,
          "velocity": 0.28346456692913385
        },
        {
          "duration": 0.04166662500000484,
          "durationTicks": 48,
          "midi": 62,
          "name": "D4",
          "ticks": 44734,
          "time": 38.831558390625,
          "velocity": 0.28346456692913385
        },
        {
          "duration": 0.08333325000000258,
          "durationTicks": 96,
          "midi": 75,
          "name": "D#5",
          "ticks": 44734,
          "time": 38.831558390625,
          "velocity": 0.31496062992125984
        },
        {
          "duration": 0.08333325000000258,
          "durationTicks": 96,
          "midi": 75,
          "name": "D#5",
          "ticks": 44734,
          "time": 38.831558390625,
          "velocity": 0.29133858267716534
        },
        {
          "duration": 0.08333325000000258,
          "durationTicks": 96,
          "midi": 40,
          "name": "E2",
          "ticks": 44734,
          "time": 38.831558390625,
          "velocity": 0.2992125984251969
        },
        {
          "duration": 0.08333325000000258,
          "durationTicks": 96,
          "midi": 87,
          "name": "D#6",
          "ticks": 44734,
          "time": 38.831558390625,
          "velocity": 0.29133858267716534
        },
        {
          "duration": 0.08333325000000258,
          "durationTicks": 96,
          "midi": 87,
          "name": "D#6",
          "ticks": 44734,
          "time": 38.831558390625,
          "velocity": 0.1732283464566929
        },
        {
          "duration": 0.08333324999999547,
          "durationTicks": 96,
          "midi": 76,
          "name": "E5",
          "ticks": 44926,
          "time": 38.998224890625,
          "velocity": 0.31496062992125984
        },
        {
          "duration": 0.08333324999999547,
          "durationTicks": 96,
          "midi": 76,
          "name": "E5",
          "ticks": 44926,
          "time": 38.998224890625,
          "velocity": 0.29133858267716534
        },
        {
          "duration": 0.16666649999999805,
          "durationTicks": 192,
          "midi": 28,
          "name": "E1",
          "ticks": 44926,
          "time": 38.998224890625,
          "velocity": 0.31496062992125984
        },
        {
          "duration": 0.16666649999999805,
          "durationTicks": 192,
          "midi": 40,
          "name": "E2",
          "ticks": 44926,
          "time": 38.998224890625,
          "velocity": 0.29133858267716534
        },
        {
          "duration": 0.08333324999999547,
          "durationTicks": 96,
          "midi": 88,
          "name": "E6",
          "ticks": 44926,
          "time": 38.998224890625,
          "velocity": 0.29133858267716534
        },
        {
          "duration": 0.08333324999999547,
          "durationTicks": 96,
          "midi": 86,
          "name": "D6",
          "ticks": 44926,
          "time": 38.998224890625,
          "velocity": 0.1732283464566929
        },
        {
          "duration": 0.04166662499999774,
          "durationTicks": 48,
          "midi": 52,
          "name": "E3",
          "ticks": 45118,
          "time": 39.164891390625,
          "velocity": 0.28346456692913385
        },
        {
          "duration": 0.04166662499999774,
          "durationTicks": 48,
          "midi": 62,
          "name": "D4",
          "ticks": 45118,
          "time": 39.164891390625,
          "velocity": 0.28346456692913385
        },
        {
          "duration": 0.04166662499999774,
          "durationTicks": 48,
          "midi": 59,
          "name": "B3",
          "ticks": 45118,
          "time": 39.164891390625,
          "velocity": 0.28346456692913385
        },
        {
          "duration": 0.04166662499999774,
          "durationTicks": 48,
          "midi": 56,
          "name": "G#3",
          "ticks": 45118,
          "time": 39.164891390625,
          "velocity": 0.28346456692913385
        },
        {
          "duration": 0.08333324999999547,
          "durationTicks": 96,
          "midi": 77,
          "name": "F5",
          "ticks": 45118,
          "time": 39.164891390625,
          "velocity": 0.31496062992125984
        },
        {
          "duration": 0.08333324999999547,
          "durationTicks": 96,
          "midi": 77,
          "name": "F5",
          "ticks": 45118,
          "time": 39.164891390625,
          "velocity": 0.29133858267716534
        },
        {
          "duration": 0.08333324999999547,
          "durationTicks": 96,
          "midi": 40,
          "name": "E2",
          "ticks": 45118,
          "time": 39.164891390625,
          "velocity": 0.2992125984251969
        },
        {
          "duration": 0.08333324999999547,
          "durationTicks": 96,
          "midi": 89,
          "name": "F6",
          "ticks": 45118,
          "time": 39.164891390625,
          "velocity": 0.29133858267716534
        },
        {
          "duration": 0.08333324999999547,
          "durationTicks": 96,
          "midi": 85,
          "name": "C#6",
          "ticks": 45118,
          "time": 39.164891390625,
          "velocity": 0.1732283464566929
        },
        {
          "duration": 0.04166662500000484,
          "durationTicks": 48,
          "midi": 28,
          "name": "E1",
          "ticks": 45214,
          "time": 39.248224640625,
          "velocity": 0.25196850393700787
        },
        {
          "duration": 0.08333325000000258,
          "durationTicks": 96,
          "midi": 76,
          "name": "E5",
          "ticks": 45310,
          "time": 39.331557890625,
          "velocity": 0.31496062992125984
        },
        {
          "duration": 0.08333325000000258,
          "durationTicks": 96,
          "midi": 76,
          "name": "E5",
          "ticks": 45310,
          "time": 39.331557890625,
          "velocity": 0.29133858267716534
        },
        {
          "duration": 0.16666649999999805,
          "durationTicks": 192,
          "midi": 28,
          "name": "E1",
          "ticks": 45310,
          "time": 39.331557890625,
          "velocity": 0.31496062992125984
        },
        {
          "duration": 0.08333325000000258,
          "durationTicks": 96,
          "midi": 88,
          "name": "E6",
          "ticks": 45310,
          "time": 39.331557890625,
          "velocity": 0.29133858267716534
        },
        {
          "duration": 0.08333325000000258,
          "durationTicks": 96,
          "midi": 84,
          "name": "C6",
          "ticks": 45310,
          "time": 39.331557890625,
          "velocity": 0.1732283464566929
        },
        {
          "duration": 0.04166662500000484,
          "durationTicks": 48,
          "midi": 56,
          "name": "G#3",
          "ticks": 45502,
          "time": 39.498224390625,
          "velocity": 0.28346456692913385
        },
        {
          "duration": 0.04166662500000484,
          "durationTicks": 48,
          "midi": 59,
          "name": "B3",
          "ticks": 45502,
          "time": 39.498224390625,
          "velocity": 0.28346456692913385
        },
        {
          "duration": 0.04166662500000484,
          "durationTicks": 48,
          "midi": 62,
          "name": "D4",
          "ticks": 45502,
          "time": 39.498224390625,
          "velocity": 0.28346456692913385
        },
        {
          "duration": 0.04166662500000484,
          "durationTicks": 48,
          "midi": 52,
          "name": "E3",
          "ticks": 45502,
          "time": 39.498224390625,
          "velocity": 0.28346456692913385
        },
        {
          "duration": 0.08333325000000258,
          "durationTicks": 96,
          "midi": 74,
          "name": "D5",
          "ticks": 45502,
          "time": 39.498224390625,
          "velocity": 0.31496062992125984
        },
        {
          "duration": 0.08333325000000258,
          "durationTicks": 96,
          "midi": 74,
          "name": "D5",
          "ticks": 45502,
          "time": 39.498224390625,
          "velocity": 0.29133858267716534
        },
        {
          "duration": 0.08333325000000258,
          "durationTicks": 96,
          "midi": 40,
          "name": "E2",
          "ticks": 45502,
          "time": 39.498224390625,
          "velocity": 0.2992125984251969
        },
        {
          "duration": 0.08333325000000258,
          "durationTicks": 96,
          "midi": 86,
          "name": "D6",
          "ticks": 45502,
          "time": 39.498224390625,
          "velocity": 0.29133858267716534
        },
        {
          "duration": 0.08333325000000258,
          "durationTicks": 96,
          "midi": 83,
          "name": "B5",
          "ticks": 45502,
          "time": 39.498224390625,
          "velocity": 0.1732283464566929
        },
        {
          "duration": 0.08333324999999547,
          "durationTicks": 96,
          "midi": 72,
          "name": "C5",
          "ticks": 45694,
          "time": 39.664890890625,
          "velocity": 0.31496062992125984
        },
        {
          "duration": 0.08333324999999547,
          "durationTicks": 96,
          "midi": 72,
          "name": "C5",
          "ticks": 45694,
          "time": 39.664890890625,
          "velocity": 0.29133858267716534
        },
        {
          "duration": 0.16666649999999805,
          "durationTicks": 192,
          "midi": 28,
          "name": "E1",
          "ticks": 45694,
          "time": 39.664890890625,
          "velocity": 0.31496062992125984
        },
        {
          "duration": 0.16666649999999805,
          "durationTicks": 192,
          "midi": 40,
          "name": "E2",
          "ticks": 45694,
          "time": 39.664890890625,
          "velocity": 0.29133858267716534
        },
        {
          "duration": 0.08333324999999547,
          "durationTicks": 96,
          "midi": 84,
          "name": "C6",
          "ticks": 45694,
          "time": 39.664890890625,
          "velocity": 0.29133858267716534
        },
        {
          "duration": 0.08333324999999547,
          "durationTicks": 96,
          "midi": 82,
          "name": "A#5",
          "ticks": 45694,
          "time": 39.664890890625,
          "velocity": 0.1732283464566929
        },
        {
          "duration": 0.04166662499999774,
          "durationTicks": 48,
          "midi": 52,
          "name": "E3",
          "ticks": 45886,
          "time": 39.831557390625,
          "velocity": 0.28346456692913385
        },
        {
          "duration": 0.04166662499999774,
          "durationTicks": 48,
          "midi": 56,
          "name": "G#3",
          "ticks": 45886,
          "time": 39.831557390625,
          "velocity": 0.28346456692913385
        },
        {
          "duration": 0.04166662499999774,
          "durationTicks": 48,
          "midi": 59,
          "name": "B3",
          "ticks": 45886,
          "time": 39.831557390625,
          "velocity": 0.28346456692913385
        },
        {
          "duration": 0.04166662499999774,
          "durationTicks": 48,
          "midi": 62,
          "name": "D4",
          "ticks": 45886,
          "time": 39.831557390625,
          "velocity": 0.28346456692913385
        },
        {
          "duration": 0.08333325000000258,
          "durationTicks": 96,
          "midi": 74,
          "name": "D5",
          "ticks": 45886,
          "time": 39.831557390625,
          "velocity": 0.31496062992125984
        },
        {
          "duration": 0.08333325000000258,
          "durationTicks": 96,
          "midi": 74,
          "name": "D5",
          "ticks": 45886,
          "time": 39.831557390625,
          "velocity": 0.29133858267716534
        },
        {
          "duration": 0.08333325000000258,
          "durationTicks": 96,
          "midi": 40,
          "name": "E2",
          "ticks": 45886,
          "time": 39.831557390625,
          "velocity": 0.2992125984251969
        },
        {
          "duration": 0.08333325000000258,
          "durationTicks": 96,
          "midi": 86,
          "name": "D6",
          "ticks": 45886,
          "time": 39.831557390625,
          "velocity": 0.29133858267716534
        },
        {
          "duration": 0.08333325000000258,
          "durationTicks": 96,
          "midi": 83,
          "name": "B5",
          "ticks": 45886,
          "time": 39.831557390625,
          "velocity": 0.1732283464566929
        },
        {
          "duration": 0.04166662499999774,
          "durationTicks": 48,
          "midi": 28,
          "name": "E1",
          "ticks": 45982,
          "time": 39.914890640625,
          "velocity": 0.25196850393700787
        },
        {
          "duration": 0.3333330000000032,
          "durationTicks": 384,
          "midi": 76,
          "name": "E5",
          "ticks": 46078,
          "time": 39.998223890625,
          "velocity": 0.31496062992125984
        },
        {
          "duration": 0.3333330000000032,
          "durationTicks": 384,
          "midi": 76,
          "name": "E5",
          "ticks": 46078,
          "time": 39.998223890625,
          "velocity": 0.29133858267716534
        },
        {
          "duration": 0.16666649999999805,
          "durationTicks": 192,
          "midi": 33,
          "name": "A1",
          "ticks": 46078,
          "time": 39.998223890625,
          "velocity": 0.31496062992125984
        },
        {
          "duration": 0.3333330000000032,
          "durationTicks": 384,
          "midi": 88,
          "name": "E6",
          "ticks": 46078,
          "time": 39.998223890625,
          "velocity": 0.29133858267716534
        },
        {
          "duration": 0.08333325000000258,
          "durationTicks": 96,
          "midi": 81,
          "name": "A5",
          "ticks": 46078,
          "time": 39.998223890625,
          "velocity": 0.1732283464566929
        },
        {
          "duration": 0.04166662500000484,
          "durationTicks": 48,
          "midi": 52,
          "name": "E3",
          "ticks": 46270,
          "time": 40.164890390625,
          "velocity": 0.28346456692913385
        },
        {
          "duration": 0.04166662500000484,
          "durationTicks": 48,
          "midi": 60,
          "name": "C4",
          "ticks": 46270,
          "time": 40.164890390625,
          "velocity": 0.28346456692913385
        },
        {
          "duration": 0.04166662500000484,
          "durationTicks": 48,
          "midi": 57,
          "name": "A3",
          "ticks": 46270,
          "time": 40.164890390625,
          "velocity": 0.28346456692913385
        },
        {
          "duration": 0.08333325000000258,
          "durationTicks": 96,
          "midi": 45,
          "name": "A2",
          "ticks": 46270,
          "time": 40.164890390625,
          "velocity": 0.2992125984251969
        },
        {
          "duration": 0.08333325000000258,
          "durationTicks": 96,
          "midi": 84,
          "name": "C6",
          "ticks": 46270,
          "time": 40.164890390625,
          "velocity": 0.1732283464566929
        },
        {
          "duration": 0.16666649999999805,
          "durationTicks": 192,
          "midi": 69,
          "name": "A4",
          "ticks": 46462,
          "time": 40.331556890625,
          "velocity": 0.31496062992125984
        },
        {
          "duration": 0.16666649999999805,
          "durationTicks": 192,
          "midi": 33,
          "name": "A1",
          "ticks": 46462,
          "time": 40.331556890625,
          "velocity": 0.31496062992125984
        },
        {
          "duration": 0.16666649999999805,
          "durationTicks": 192,
          "midi": 45,
          "name": "A2",
          "ticks": 46462,
          "time": 40.331556890625,
          "velocity": 0.29133858267716534
        },
        {
          "duration": 0.16666649999999805,
          "durationTicks": 192,
          "midi": 81,
          "name": "A5",
          "ticks": 46462,
          "time": 40.331556890625,
          "velocity": 0.29133858267716534
        },
        {
          "duration": 0.08333324999999547,
          "durationTicks": 96,
          "midi": 88,
          "name": "E6",
          "ticks": 46462,
          "time": 40.331556890625,
          "velocity": 0.1732283464566929
        },
        {
          "duration": 0.04166662499999774,
          "durationTicks": 48,
          "midi": 52,
          "name": "E3",
          "ticks": 46654,
          "time": 40.498223390625,
          "velocity": 0.28346456692913385
        },
        {
          "duration": 0.04166662499999774,
          "durationTicks": 48,
          "midi": 57,
          "name": "A3",
          "ticks": 46654,
          "time": 40.498223390625,
          "velocity": 0.28346456692913385
        },
        {
          "duration": 0.04166662499999774,
          "durationTicks": 48,
          "midi": 60,
          "name": "C4",
          "ticks": 46654,
          "time": 40.498223390625,
          "velocity": 0.28346456692913385
        },
        {
          "duration": 0.16666649999999805,
          "durationTicks": 192,
          "midi": 69,
          "name": "A4",
          "ticks": 46654,
          "time": 40.498223390625,
          "velocity": 0.2440944881889764
        },
        {
          "duration": 0.08333325000000258,
          "durationTicks": 96,
          "midi": 45,
          "name": "A2",
          "ticks": 46654,
          "time": 40.498223390625,
          "velocity": 0.2992125984251969
        },
        {
          "duration": 0.08333325000000258,
          "durationTicks": 96,
          "midi": 93,
          "name": "A6",
          "ticks": 46654,
          "time": 40.498223390625,
          "velocity": 0.1732283464566929
        },
        {
          "duration": 0.04166662499999774,
          "durationTicks": 48,
          "midi": 33,
          "name": "A1",
          "ticks": 46750,
          "time": 40.581556640625,
          "velocity": 0.25196850393700787
        },
        {
          "duration": 0.16666650000000516,
          "durationTicks": 192,
          "midi": 71,
          "name": "B4",
          "ticks": 46846,
          "time": 40.664889890625,
          "velocity": 0.31496062992125984
        },
        {
          "duration": 0.16666650000000516,
          "durationTicks": 192,
          "midi": 33,
          "name": "A1",
          "ticks": 46846,
          "time": 40.664889890625,
          "velocity": 0.31496062992125984
        },
        {
          "duration": 0.16666650000000516,
          "durationTicks": 192,
          "midi": 83,
          "name": "B5",
          "ticks": 46846,
          "time": 40.664889890625,
          "velocity": 0.29133858267716534
        },
        {
          "duration": 0.08333325000000258,
          "durationTicks": 96,
          "midi": 92,
          "name": "G#6",
          "ticks": 46846,
          "time": 40.664889890625,
          "velocity": 0.1732283464566929
        },
        {
          "duration": 0.04166662499999774,
          "durationTicks": 48,
          "midi": 52,
          "name": "E3",
          "ticks": 47038,
          "time": 40.831556390625,
          "velocity": 0.28346456692913385
        },
        {
          "duration": 0.04166662499999774,
          "durationTicks": 48,
          "midi": 57,
          "name": "A3",
          "ticks": 47038,
          "time": 40.831556390625,
          "velocity": 0.28346456692913385
        },
        {
          "duration": 0.04166662499999774,
          "durationTicks": 48,
          "midi": 60,
          "name": "C4",
          "ticks": 47038,
          "time": 40.831556390625,
          "velocity": 0.28346456692913385
        },
        {
          "duration": 0.16666649999999805,
          "durationTicks": 192,
          "midi": 71,
          "name": "B4",
          "ticks": 47038,
          "time": 40.831556390625,
          "velocity": 0.2440944881889764
        },
        {
          "duration": 0.08333324999999547,
          "durationTicks": 96,
          "midi": 45,
          "name": "A2",
          "ticks": 47038,
          "time": 40.831556390625,
          "velocity": 0.2992125984251969
        },
        {
          "duration": 0.08333324999999547,
          "durationTicks": 96,
          "midi": 91,
          "name": "G6",
          "ticks": 47038,
          "time": 40.831556390625,
          "velocity": 0.1732283464566929
        },
        {
          "duration": 0.16666649999999805,
          "durationTicks": 192,
          "midi": 72,
          "name": "C5",
          "ticks": 47230,
          "time": 40.998222890625,
          "velocity": 0.31496062992125984
        },
        {
          "duration": 0.16666649999999805,
          "durationTicks": 192,
          "midi": 33,
          "name": "A1",
          "ticks": 47230,
          "time": 40.998222890625,
          "velocity": 0.31496062992125984
        },
        {
          "duration": 0.16666649999999805,
          "durationTicks": 192,
          "midi": 45,
          "name": "A2",
          "ticks": 47230,
          "time": 40.998222890625,
          "velocity": 0.29133858267716534
        },
        {
          "duration": 0.16666649999999805,
          "durationTicks": 192,
          "midi": 84,
          "name": "C6",
          "ticks": 47230,
          "time": 40.998222890625,
          "velocity": 0.29133858267716534
        },
        {
          "duration": 0.08333324999999547,
          "durationTicks": 96,
          "midi": 90,
          "name": "F#6",
          "ticks": 47230,
          "time": 40.998222890625,
          "velocity": 0.1732283464566929
        },
        {
          "duration": 0.04166662499999774,
          "durationTicks": 48,
          "midi": 57,
          "name": "A3",
          "ticks": 47422,
          "time": 41.164889390625,
          "velocity": 0.28346456692913385
        },
        {
          "duration": 0.04166662499999774,
          "durationTicks": 48,
          "midi": 60,
          "name": "C4",
          "ticks": 47422,
          "time": 41.164889390625,
          "velocity": 0.28346456692913385
        },
        {
          "duration": 0.04166662499999774,
          "durationTicks": 48,
          "midi": 52,
          "name": "E3",
          "ticks": 47422,
          "time": 41.164889390625,
          "velocity": 0.28346456692913385
        },
        {
          "duration": 0.16666649999999805,
          "durationTicks": 192,
          "midi": 72,
          "name": "C5",
          "ticks": 47422,
          "time": 41.164889390625,
          "velocity": 0.2440944881889764
        },
        {
          "duration": 0.08333325000000258,
          "durationTicks": 96,
          "midi": 45,
          "name": "A2",
          "ticks": 47422,
          "time": 41.164889390625,
          "velocity": 0.2992125984251969
        },
        {
          "duration": 0.08333325000000258,
          "durationTicks": 96,
          "midi": 89,
          "name": "F6",
          "ticks": 47422,
          "time": 41.164889390625,
          "velocity": 0.1732283464566929
        },
        {
          "duration": 0.04166662499999774,
          "durationTicks": 48,
          "midi": 33,
          "name": "A1",
          "ticks": 47518,
          "time": 41.248222640625,
          "velocity": 0.25196850393700787
        },
        {
          "duration": 0.16666650000000516,
          "durationTicks": 192,
          "midi": 73,
          "name": "C#5",
          "ticks": 47614,
          "time": 41.331555890625,
          "velocity": 0.31496062992125984
        },
        {
          "duration": 0.16666650000000516,
          "durationTicks": 192,
          "midi": 36,
          "name": "C2",
          "ticks": 47614,
          "time": 41.331555890625,
          "velocity": 0.31496062992125984
        },
        {
          "duration": 0.16666650000000516,
          "durationTicks": 192,
          "midi": 85,
          "name": "C#6",
          "ticks": 47614,
          "time": 41.331555890625,
          "velocity": 0.29133858267716534
        },
        {
          "duration": 0.08333325000000258,
          "durationTicks": 96,
          "midi": 88,
          "name": "E6",
          "ticks": 47614,
          "time": 41.331555890625,
          "velocity": 0.1732283464566929
        },
        {
          "duration": 0.04166662499999774,
          "durationTicks": 48,
          "midi": 58,
          "name": "A#3",
          "ticks": 47806,
          "time": 41.498222390625,
          "velocity": 0.28346456692913385
        },
        {
          "duration": 0.04166662499999774,
          "durationTicks": 48,
          "midi": 62,
          "name": "D4",
          "ticks": 47806,
          "time": 41.498222390625,
          "velocity": 0.28346456692913385
        },
        {
          "duration": 0.04166662499999774,
          "durationTicks": 48,
          "midi": 54,
          "name": "F#3",
          "ticks": 47806,
          "time": 41.498222390625,
          "velocity": 0.28346456692913385
        },
        {
          "duration": 0.16666649999999805,
          "durationTicks": 192,
          "midi": 73,
          "name": "C#5",
          "ticks": 47806,
          "time": 41.498222390625,
          "velocity": 0.2440944881889764
        },
        {
          "duration": 0.08333324999999547,
          "durationTicks": 96,
          "midi": 48,
          "name": "C3",
          "ticks": 47806,
          "time": 41.498222390625,
          "velocity": 0.2992125984251969
        },
        {
          "duration": 0.08333324999999547,
          "durationTicks": 96,
          "midi": 87,
          "name": "D#6",
          "ticks": 47806,
          "time": 41.498222390625,
          "velocity": 0.1732283464566929
        },
        {
          "duration": 0.16666649999999805,
          "durationTicks": 192,
          "midi": 74,
          "name": "D5",
          "ticks": 47998,
          "time": 41.664888890625,
          "velocity": 0.31496062992125984
        },
        {
          "duration": 0.16666649999999805,
          "durationTicks": 192,
          "midi": 36,
          "name": "C2",
          "ticks": 47998,
          "time": 41.664888890625,
          "velocity": 0.31496062992125984
        },
        {
          "duration": 0.16666649999999805,
          "durationTicks": 192,
          "midi": 48,
          "name": "C3",
          "ticks": 47998,
          "time": 41.664888890625,
          "velocity": 0.29133858267716534
        },
        {
          "duration": 0.08333325000000258,
          "durationTicks": 96,
          "midi": 86,
          "name": "D6",
          "ticks": 47998,
          "time": 41.664888890625,
          "velocity": 0.29133858267716534
        },
        {
          "duration": 0.16666649999999805,
          "durationTicks": 192,
          "midi": 86,
          "name": "D6",
          "ticks": 47998,
          "time": 41.664888890625,
          "velocity": 0.1732283464566929
        },
        {
          "duration": 0.04166662500000484,
          "durationTicks": 48,
          "midi": 58,
          "name": "A#3",
          "ticks": 48190,
          "time": 41.831555390625,
          "velocity": 0.28346456692913385
        },
        {
          "duration": 0.04166662500000484,
          "durationTicks": 48,
          "midi": 54,
          "name": "F#3",
          "ticks": 48190,
          "time": 41.831555390625,
          "velocity": 0.28346456692913385
        },
        {
          "duration": 0.04166662500000484,
          "durationTicks": 48,
          "midi": 62,
          "name": "D4",
          "ticks": 48190,
          "time": 41.831555390625,
          "velocity": 0.28346456692913385
        },
        {
          "duration": 0.16666649999999805,
          "durationTicks": 192,
          "midi": 74,
          "name": "D5",
          "ticks": 48190,
          "time": 41.831555390625,
          "velocity": 0.2440944881889764
        },
        {
          "duration": 0.08333325000000258,
          "durationTicks": 96,
          "midi": 48,
          "name": "C3",
          "ticks": 48190,
          "time": 41.831555390625,
          "velocity": 0.2992125984251969
        },
        {
          "duration": 0.08333325000000258,
          "durationTicks": 96,
          "midi": 85,
          "name": "C#6",
          "ticks": 48190,
          "time": 41.831555390625,
          "velocity": 0.1732283464566929
        },
        {
          "duration": 0.04166662499999774,
          "durationTicks": 48,
          "midi": 36,
          "name": "C2",
          "ticks": 48286,
          "time": 41.914888640625,
          "velocity": 0.25196850393700787
        },
        {
          "duration": 0.16666650000000516,
          "durationTicks": 192,
          "midi": 77,
          "name": "F5",
          "ticks": 48382,
          "time": 41.998221890625,
          "velocity": 0.31496062992125984
        },
        {
          "duration": 0.16666650000000516,
          "durationTicks": 192,
          "midi": 36,
          "name": "C2",
          "ticks": 48382,
          "time": 41.998221890625,
          "velocity": 0.31496062992125984
        },
        {
          "duration": 0.16666650000000516,
          "durationTicks": 192,
          "midi": 89,
          "name": "F6",
          "ticks": 48382,
          "time": 41.998221890625,
          "velocity": 0.29133858267716534
        },
        {
          "duration": 0.08333325000000258,
          "durationTicks": 96,
          "midi": 84,
          "name": "C6",
          "ticks": 48382,
          "time": 41.998221890625,
          "velocity": 0.1732283464566929
        },
        {
          "duration": 0.04166662499999774,
          "durationTicks": 48,
          "midi": 48,
          "name": "C3",
          "ticks": 48574,
          "time": 42.164888390625,
          "velocity": 0.2440944881889764
        },
        {
          "duration": 0.04166662499999774,
          "durationTicks": 48,
          "midi": 62,
          "name": "D4",
          "ticks": 48574,
          "time": 42.164888390625,
          "velocity": 0.28346456692913385
        },
        {
          "duration": 0.04166662499999774,
          "durationTicks": 48,
          "midi": 58,
          "name": "A#3",
          "ticks": 48574,
          "time": 42.164888390625,
          "velocity": 0.28346456692913385
        },
        {
          "duration": 0.04166662499999774,
          "durationTicks": 48,
          "midi": 54,
          "name": "F#3",
          "ticks": 48574,
          "time": 42.164888390625,
          "velocity": 0.28346456692913385
        },
        {
          "duration": 0.16666649999999805,
          "durationTicks": 192,
          "midi": 77,
          "name": "F5",
          "ticks": 48574,
          "time": 42.164888390625,
          "velocity": 0.2440944881889764
        },
        {
          "duration": 0.08333324999999547,
          "durationTicks": 96,
          "midi": 48,
          "name": "C3",
          "ticks": 48574,
          "time": 42.164888390625,
          "velocity": 0.2992125984251969
        },
        {
          "duration": 0.08333324999999547,
          "durationTicks": 96,
          "midi": 83,
          "name": "B5",
          "ticks": 48574,
          "time": 42.164888390625,
          "velocity": 0.1732283464566929
        },
        {
          "duration": 0.04166662499999774,
          "durationTicks": 48,
          "midi": 50,
          "name": "D3",
          "ticks": 48766,
          "time": 42.331554890625,
          "velocity": 0.2440944881889764
        },
        {
          "duration": 0.16666649999999805,
          "durationTicks": 192,
          "midi": 75,
          "name": "D#5",
          "ticks": 48766,
          "time": 42.331554890625,
          "velocity": 0.31496062992125984
        },
        {
          "duration": 0.16666649999999805,
          "durationTicks": 192,
          "midi": 36,
          "name": "C2",
          "ticks": 48766,
          "time": 42.331554890625,
          "velocity": 0.31496062992125984
        },
        {
          "duration": 0.16666649999999805,
          "durationTicks": 192,
          "midi": 48,
          "name": "C3",
          "ticks": 48766,
          "time": 42.331554890625,
          "velocity": 0.29133858267716534
        },
        {
          "duration": 0.16666649999999805,
          "durationTicks": 192,
          "midi": 87,
          "name": "D#6",
          "ticks": 48766,
          "time": 42.331554890625,
          "velocity": 0.29133858267716534
        },
        {
          "duration": 0.08333325000000258,
          "durationTicks": 96,
          "midi": 82,
          "name": "A#5",
          "ticks": 48766,
          "time": 42.331554890625,
          "velocity": 0.1732283464566929
        },
        {
          "duration": 0.04166662500000484,
          "durationTicks": 48,
          "midi": 58,
          "name": "A#3",
          "ticks": 48958,
          "time": 42.498221390625,
          "velocity": 0.28346456692913385
        },
        {
          "duration": 0.04166662500000484,
          "durationTicks": 48,
          "midi": 54,
          "name": "F#3",
          "ticks": 48958,
          "time": 42.498221390625,
          "velocity": 0.28346456692913385
        },
        {
          "duration": 0.04166662500000484,
          "durationTicks": 48,
          "midi": 52,
          "name": "E3",
          "ticks": 48958,
          "time": 42.498221390625,
          "velocity": 0.2440944881889764
        },
        {
          "duration": 0.04166662500000484,
          "durationTicks": 48,
          "midi": 62,
          "name": "D4",
          "ticks": 48958,
          "time": 42.498221390625,
          "velocity": 0.28346456692913385
        },
        {
          "duration": 0.16666650000000516,
          "durationTicks": 192,
          "midi": 75,
          "name": "D#5",
          "ticks": 48958,
          "time": 42.498221390625,
          "velocity": 0.2440944881889764
        },
        {
          "duration": 0.08333325000000258,
          "durationTicks": 96,
          "midi": 48,
          "name": "C3",
          "ticks": 48958,
          "time": 42.498221390625,
          "velocity": 0.2992125984251969
        },
        {
          "duration": 0.08333325000000258,
          "durationTicks": 96,
          "midi": 83,
          "name": "B5",
          "ticks": 48958,
          "time": 42.498221390625,
          "velocity": 0.1732283464566929
        },
        {
          "duration": 0.04166662499999774,
          "durationTicks": 48,
          "midi": 36,
          "name": "C2",
          "ticks": 49054,
          "time": 42.581554640625,
          "velocity": 0.25196850393700787
        },
        {
          "duration": 0.16666649999999095,
          "durationTicks": 192,
          "midi": 76,
          "name": "E5",
          "ticks": 49150,
          "time": 42.664887890625,
          "velocity": 0.31496062992125984
        },
        {
          "duration": 0.16666649999999095,
          "durationTicks": 192,
          "midi": 76,
          "name": "E5",
          "ticks": 49150,
          "time": 42.664887890625,
          "velocity": 0.29133858267716534
        },
        {
          "duration": 0.16666649999999095,
          "durationTicks": 192,
          "midi": 26,
          "name": "D1",
          "ticks": 49150,
          "time": 42.664887890625,
          "velocity": 0.31496062992125984
        },
        {
          "duration": 0.16666649999999095,
          "durationTicks": 192,
          "midi": 88,
          "name": "E6",
          "ticks": 49150,
          "time": 42.664887890625,
          "velocity": 0.29133858267716534
        },
        {
          "duration": 0.08333324999999547,
          "durationTicks": 96,
          "midi": 81,
          "name": "A5",
          "ticks": 49150,
          "time": 42.664887890625,
          "velocity": 0.1732283464566929
        },
        {
          "duration": 0.04166662500000484,
          "durationTicks": 48,
          "midi": 50,
          "name": "D3",
          "ticks": 49342,
          "time": 42.831554390624994,
          "velocity": 0.28346456692913385
        },
        {
          "duration": 0.04166662500000484,
          "durationTicks": 48,
          "midi": 53,
          "name": "F3",
          "ticks": 49342,
          "time": 42.831554390624994,
          "velocity": 0.28346456692913385
        },
        {
          "duration": 0.04166662500000484,
          "durationTicks": 48,
          "midi": 57,
          "name": "A3",
          "ticks": 49342,
          "time": 42.831554390624994,
          "velocity": 0.28346456692913385
        },
        {
          "duration": 0.04166662500000484,
          "durationTicks": 48,
          "midi": 60,
          "name": "C4",
          "ticks": 49342,
          "time": 42.831554390624994,
          "velocity": 0.28346456692913385
        },
        {
          "duration": 0.08333325000000258,
          "durationTicks": 96,
          "midi": 75,
          "name": "D#5",
          "ticks": 49342,
          "time": 42.831554390624994,
          "velocity": 0.31496062992125984
        },
        {
          "duration": 0.08333325000000258,
          "durationTicks": 96,
          "midi": 75,
          "name": "D#5",
          "ticks": 49342,
          "time": 42.831554390624994,
          "velocity": 0.29133858267716534
        },
        {
          "duration": 0.08333325000000258,
          "durationTicks": 96,
          "midi": 38,
          "name": "D2",
          "ticks": 49342,
          "time": 42.831554390624994,
          "velocity": 0.2992125984251969
        },
        {
          "duration": 0.08333325000000258,
          "durationTicks": 96,
          "midi": 87,
          "name": "D#6",
          "ticks": 49342,
          "time": 42.831554390624994,
          "velocity": 0.29133858267716534
        },
        {
          "duration": 0.08333325000000258,
          "durationTicks": 96,
          "midi": 84,
          "name": "C6",
          "ticks": 49342,
          "time": 42.831554390624994,
          "velocity": 0.1732283464566929
        },
        {
          "duration": 0.08333325000000258,
          "durationTicks": 96,
          "midi": 76,
          "name": "E5",
          "ticks": 49534,
          "time": 42.99822089062499,
          "velocity": 0.31496062992125984
        },
        {
          "duration": 0.08333325000000258,
          "durationTicks": 96,
          "midi": 76,
          "name": "E5",
          "ticks": 49534,
          "time": 42.99822089062499,
          "velocity": 0.29133858267716534
        },
        {
          "duration": 0.16666650000000516,
          "durationTicks": 192,
          "midi": 26,
          "name": "D1",
          "ticks": 49534,
          "time": 42.99822089062499,
          "velocity": 0.31496062992125984
        },
        {
          "duration": 0.16666650000000516,
          "durationTicks": 192,
          "midi": 38,
          "name": "D2",
          "ticks": 49534,
          "time": 42.99822089062499,
          "velocity": 0.29133858267716534
        },
        {
          "duration": 0.08333325000000258,
          "durationTicks": 96,
          "midi": 88,
          "name": "E6",
          "ticks": 49534,
          "time": 42.99822089062499,
          "velocity": 0.29133858267716534
        },
        {
          "duration": 0.08333325000000258,
          "durationTicks": 96,
          "midi": 88,
          "name": "E6",
          "ticks": 49534,
          "time": 42.99822089062499,
          "velocity": 0.1732283464566929
        },
        {
          "duration": 0.04166662499999774,
          "durationTicks": 48,
          "midi": 53,
          "name": "F3",
          "ticks": 49726,
          "time": 43.164887390625,
          "velocity": 0.28346456692913385
        },
        {
          "duration": 0.04166662499999774,
          "durationTicks": 48,
          "midi": 57,
          "name": "A3",
          "ticks": 49726,
          "time": 43.164887390625,
          "velocity": 0.28346456692913385
        },
        {
          "duration": 0.04166662499999774,
          "durationTicks": 48,
          "midi": 60,
          "name": "C4",
          "ticks": 49726,
          "time": 43.164887390625,
          "velocity": 0.28346456692913385
        },
        {
          "duration": 0.04166662499999774,
          "durationTicks": 48,
          "midi": 50,
          "name": "D3",
          "ticks": 49726,
          "time": 43.164887390625,
          "velocity": 0.28346456692913385
        },
        {
          "duration": 0.08333324999999547,
          "durationTicks": 96,
          "midi": 77,
          "name": "F5",
          "ticks": 49726,
          "time": 43.164887390625,
          "velocity": 0.31496062992125984
        },
        {
          "duration": 0.08333324999999547,
          "durationTicks": 96,
          "midi": 77,
          "name": "F5",
          "ticks": 49726,
          "time": 43.164887390625,
          "velocity": 0.29133858267716534
        },
        {
          "duration": 0.08333324999999547,
          "durationTicks": 96,
          "midi": 38,
          "name": "D2",
          "ticks": 49726,
          "time": 43.164887390625,
          "velocity": 0.2992125984251969
        },
        {
          "duration": 0.08333324999999547,
          "durationTicks": 96,
          "midi": 89,
          "name": "F6",
          "ticks": 49726,
          "time": 43.164887390625,
          "velocity": 0.29133858267716534
        },
        {
          "duration": 0.08333324999999547,
          "durationTicks": 96,
          "midi": 93,
          "name": "A6",
          "ticks": 49726,
          "time": 43.164887390625,
          "velocity": 0.1732283464566929
        },
        {
          "duration": 0.04166662500000484,
          "durationTicks": 48,
          "midi": 26,
          "name": "D1",
          "ticks": 49822,
          "time": 43.24822064062499,
          "velocity": 0.25196850393700787
        },
        {
          "duration": 0.08333325000000258,
          "durationTicks": 96,
          "midi": 76,
          "name": "E5",
          "ticks": 49918,
          "time": 43.331553890624996,
          "velocity": 0.31496062992125984
        },
        {
          "duration": 0.08333325000000258,
          "durationTicks": 96,
          "midi": 76,
          "name": "E5",
          "ticks": 49918,
          "time": 43.331553890624996,
          "velocity": 0.29133858267716534
        },
        {
          "duration": 0.16666649999999805,
          "durationTicks": 192,
          "midi": 26,
          "name": "D1",
          "ticks": 49918,
          "time": 43.331553890624996,
          "velocity": 0.31496062992125984
        },
        {
          "duration": 0.08333325000000258,
          "durationTicks": 96,
          "midi": 88,
          "name": "E6",
          "ticks": 49918,
          "time": 43.331553890624996,
          "velocity": 0.29133858267716534
        },
        {
          "duration": 0.08333325000000258,
          "durationTicks": 96,
          "midi": 92,
          "name": "G#6",
          "ticks": 49918,
          "time": 43.331553890624996,
          "velocity": 0.1732283464566929
        },
        {
          "duration": 0.04166662500000484,
          "durationTicks": 48,
          "midi": 50,
          "name": "D3",
          "ticks": 50110,
          "time": 43.498220390624994,
          "velocity": 0.28346456692913385
        },
        {
          "duration": 0.04166662500000484,
          "durationTicks": 48,
          "midi": 60,
          "name": "C4",
          "ticks": 50110,
          "time": 43.498220390624994,
          "velocity": 0.28346456692913385
        },
        {
          "duration": 0.04166662500000484,
          "durationTicks": 48,
          "midi": 57,
          "name": "A3",
          "ticks": 50110,
          "time": 43.498220390624994,
          "velocity": 0.28346456692913385
        },
        {
          "duration": 0.04166662500000484,
          "durationTicks": 48,
          "midi": 53,
          "name": "F3",
          "ticks": 50110,
          "time": 43.498220390624994,
          "velocity": 0.28346456692913385
        },
        {
          "duration": 0.08333325000000258,
          "durationTicks": 96,
          "midi": 74,
          "name": "D5",
          "ticks": 50110,
          "time": 43.498220390624994,
          "velocity": 0.31496062992125984
        },
        {
          "duration": 0.08333325000000258,
          "durationTicks": 96,
          "midi": 74,
          "name": "D5",
          "ticks": 50110,
          "time": 43.498220390624994,
          "velocity": 0.29133858267716534
        },
        {
          "duration": 0.08333325000000258,
          "durationTicks": 96,
          "midi": 38,
          "name": "D2",
          "ticks": 50110,
          "time": 43.498220390624994,
          "velocity": 0.2992125984251969
        },
        {
          "duration": 0.08333325000000258,
          "durationTicks": 96,
          "midi": 86,
          "name": "D6",
          "ticks": 50110,
          "time": 43.498220390624994,
          "velocity": 0.29133858267716534
        },
        {
          "duration": 0.08333325000000258,
          "durationTicks": 96,
          "midi": 91,
          "name": "G6",
          "ticks": 50110,
          "time": 43.498220390624994,
          "velocity": 0.1732283464566929
        },
        {
          "duration": 0.08333324999999547,
          "durationTicks": 96,
          "midi": 72,
          "name": "C5",
          "ticks": 50302,
          "time": 43.664886890625,
          "velocity": 0.31496062992125984
        },
        {
          "duration": 0.08333324999999547,
          "durationTicks": 96,
          "midi": 72,
          "name": "C5",
          "ticks": 50302,
          "time": 43.664886890625,
          "velocity": 0.29133858267716534
        },
        {
          "duration": 0.16666649999999805,
          "durationTicks": 192,
          "midi": 26,
          "name": "D1",
          "ticks": 50302,
          "time": 43.664886890625,
          "velocity": 0.31496062992125984
        },
        {
          "duration": 0.16666649999999805,
          "durationTicks": 192,
          "midi": 38,
          "name": "D2",
          "ticks": 50302,
          "time": 43.664886890625,
          "velocity": 0.29133858267716534
        },
        {
          "duration": 0.08333324999999547,
          "durationTicks": 96,
          "midi": 84,
          "name": "C6",
          "ticks": 50302,
          "time": 43.664886890625,
          "velocity": 0.29133858267716534
        },
        {
          "duration": 0.08333324999999547,
          "durationTicks": 96,
          "midi": 90,
          "name": "F#6",
          "ticks": 50302,
          "time": 43.664886890625,
          "velocity": 0.1732283464566929
        },
        {
          "duration": 0.04166662499999774,
          "durationTicks": 48,
          "midi": 50,
          "name": "D3",
          "ticks": 50494,
          "time": 43.831553390625,
          "velocity": 0.28346456692913385
        },
        {
          "duration": 0.04166662499999774,
          "durationTicks": 48,
          "midi": 60,
          "name": "C4",
          "ticks": 50494,
          "time": 43.831553390625,
          "velocity": 0.28346456692913385
        },
        {
          "duration": 0.04166662499999774,
          "durationTicks": 48,
          "midi": 57,
          "name": "A3",
          "ticks": 50494,
          "time": 43.831553390625,
          "velocity": 0.28346456692913385
        },
        {
          "duration": 0.04166662499999774,
          "durationTicks": 48,
          "midi": 53,
          "name": "F3",
          "ticks": 50494,
          "time": 43.831553390625,
          "velocity": 0.28346456692913385
        },
        {
          "duration": 0.08333324999999547,
          "durationTicks": 96,
          "midi": 74,
          "name": "D5",
          "ticks": 50494,
          "time": 43.831553390625,
          "velocity": 0.31496062992125984
        },
        {
          "duration": 0.08333324999999547,
          "durationTicks": 96,
          "midi": 74,
          "name": "D5",
          "ticks": 50494,
          "time": 43.831553390625,
          "velocity": 0.29133858267716534
        },
        {
          "duration": 0.08333324999999547,
          "durationTicks": 96,
          "midi": 38,
          "name": "D2",
          "ticks": 50494,
          "time": 43.831553390625,
          "velocity": 0.2992125984251969
        },
        {
          "duration": 0.08333324999999547,
          "durationTicks": 96,
          "midi": 86,
          "name": "D6",
          "ticks": 50494,
          "time": 43.831553390625,
          "velocity": 0.29133858267716534
        },
        {
          "duration": 0.08333324999999547,
          "durationTicks": 96,
          "midi": 89,
          "name": "F6",
          "ticks": 50494,
          "time": 43.831553390625,
          "velocity": 0.1732283464566929
        },
        {
          "duration": 0.04166662500000484,
          "durationTicks": 48,
          "midi": 26,
          "name": "D1",
          "ticks": 50590,
          "time": 43.91488664062499,
          "velocity": 0.25196850393700787
        },
        {
          "duration": 0.16666649999999805,
          "durationTicks": 192,
          "midi": 76,
          "name": "E5",
          "ticks": 50686,
          "time": 43.998219890624995,
          "velocity": 0.31496062992125984
        },
        {
          "duration": 0.16666649999999805,
          "durationTicks": 192,
          "midi": 76,
          "name": "E5",
          "ticks": 50686,
          "time": 43.998219890624995,
          "velocity": 0.29133858267716534
        },
        {
          "duration": 0.16666649999999805,
          "durationTicks": 192,
          "midi": 28,
          "name": "E1",
          "ticks": 50686,
          "time": 43.998219890624995,
          "velocity": 0.31496062992125984
        },
        {
          "duration": 0.08333325000000258,
          "durationTicks": 96,
          "midi": 88,
          "name": "E6",
          "ticks": 50686,
          "time": 43.998219890624995,
          "velocity": 0.29133858267716534
        },
        {
          "duration": 0.16666649999999805,
          "durationTicks": 192,
          "midi": 88,
          "name": "E6",
          "ticks": 50686,
          "time": 43.998219890624995,
          "velocity": 0.1732283464566929
        },
        {
          "duration": 0.04166662500000484,
          "durationTicks": 48,
          "midi": 52,
          "name": "E3",
          "ticks": 50878,
          "time": 44.16488639062499,
          "velocity": 0.28346456692913385
        },
        {
          "duration": 0.04166662500000484,
          "durationTicks": 48,
          "midi": 62,
          "name": "D4",
          "ticks": 50878,
          "time": 44.16488639062499,
          "velocity": 0.28346456692913385
        },
        {
          "duration": 0.04166662500000484,
          "durationTicks": 48,
          "midi": 56,
          "name": "G#3",
          "ticks": 50878,
          "time": 44.16488639062499,
          "velocity": 0.28346456692913385
        },
        {
          "duration": 0.04166662500000484,
          "durationTicks": 48,
          "midi": 59,
          "name": "B3",
          "ticks": 50878,
          "time": 44.16488639062499,
          "velocity": 0.28346456692913385
        },
        {
          "duration": 0.08333325000000258,
          "durationTicks": 96,
          "midi": 75,
          "name": "D#5",
          "ticks": 50878,
          "time": 44.16488639062499,
          "velocity": 0.31496062992125984
        },
        {
          "duration": 0.08333325000000258,
          "durationTicks": 96,
          "midi": 75,
          "name": "D#5",
          "ticks": 50878,
          "time": 44.16488639062499,
          "velocity": 0.29133858267716534
        },
        {
          "duration": 0.08333325000000258,
          "durationTicks": 96,
          "midi": 40,
          "name": "E2",
          "ticks": 50878,
          "time": 44.16488639062499,
          "velocity": 0.2992125984251969
        },
        {
          "duration": 0.08333325000000258,
          "durationTicks": 96,
          "midi": 87,
          "name": "D#6",
          "ticks": 50878,
          "time": 44.16488639062499,
          "velocity": 0.29133858267716534
        },
        {
          "duration": 0.08333325000000258,
          "durationTicks": 96,
          "midi": 87,
          "name": "D#6",
          "ticks": 50878,
          "time": 44.16488639062499,
          "velocity": 0.1732283464566929
        },
        {
          "duration": 0.08333324999999547,
          "durationTicks": 96,
          "midi": 76,
          "name": "E5",
          "ticks": 51070,
          "time": 44.331552890625,
          "velocity": 0.31496062992125984
        },
        {
          "duration": 0.08333324999999547,
          "durationTicks": 96,
          "midi": 76,
          "name": "E5",
          "ticks": 51070,
          "time": 44.331552890625,
          "velocity": 0.29133858267716534
        },
        {
          "duration": 0.16666649999999805,
          "durationTicks": 192,
          "midi": 28,
          "name": "E1",
          "ticks": 51070,
          "time": 44.331552890625,
          "velocity": 0.31496062992125984
        },
        {
          "duration": 0.16666649999999805,
          "durationTicks": 192,
          "midi": 40,
          "name": "E2",
          "ticks": 51070,
          "time": 44.331552890625,
          "velocity": 0.29133858267716534
        },
        {
          "duration": 0.08333324999999547,
          "durationTicks": 96,
          "midi": 88,
          "name": "E6",
          "ticks": 51070,
          "time": 44.331552890625,
          "velocity": 0.29133858267716534
        },
        {
          "duration": 0.08333324999999547,
          "durationTicks": 96,
          "midi": 86,
          "name": "D6",
          "ticks": 51070,
          "time": 44.331552890625,
          "velocity": 0.1732283464566929
        },
        {
          "duration": 0.04166662499999774,
          "durationTicks": 48,
          "midi": 56,
          "name": "G#3",
          "ticks": 51262,
          "time": 44.498219390624996,
          "velocity": 0.28346456692913385
        },
        {
          "duration": 0.04166662499999774,
          "durationTicks": 48,
          "midi": 59,
          "name": "B3",
          "ticks": 51262,
          "time": 44.498219390624996,
          "velocity": 0.28346456692913385
        },
        {
          "duration": 0.04166662499999774,
          "durationTicks": 48,
          "midi": 52,
          "name": "E3",
          "ticks": 51262,
          "time": 44.498219390624996,
          "velocity": 0.28346456692913385
        },
        {
          "duration": 0.04166662499999774,
          "durationTicks": 48,
          "midi": 62,
          "name": "D4",
          "ticks": 51262,
          "time": 44.498219390624996,
          "velocity": 0.28346456692913385
        },
        {
          "duration": 0.08333325000000258,
          "durationTicks": 96,
          "midi": 77,
          "name": "F5",
          "ticks": 51262,
          "time": 44.498219390624996,
          "velocity": 0.31496062992125984
        },
        {
          "duration": 0.08333325000000258,
          "durationTicks": 96,
          "midi": 77,
          "name": "F5",
          "ticks": 51262,
          "time": 44.498219390624996,
          "velocity": 0.29133858267716534
        },
        {
          "duration": 0.08333325000000258,
          "durationTicks": 96,
          "midi": 40,
          "name": "E2",
          "ticks": 51262,
          "time": 44.498219390624996,
          "velocity": 0.2992125984251969
        },
        {
          "duration": 0.08333325000000258,
          "durationTicks": 96,
          "midi": 89,
          "name": "F6",
          "ticks": 51262,
          "time": 44.498219390624996,
          "velocity": 0.29133858267716534
        },
        {
          "duration": 0.08333325000000258,
          "durationTicks": 96,
          "midi": 85,
          "name": "C#6",
          "ticks": 51262,
          "time": 44.498219390624996,
          "velocity": 0.1732283464566929
        },
        {
          "duration": 0.04166662499999774,
          "durationTicks": 48,
          "midi": 28,
          "name": "E1",
          "ticks": 51358,
          "time": 44.581552640625,
          "velocity": 0.25196850393700787
        },
        {
          "duration": 0.08333325000000258,
          "durationTicks": 96,
          "midi": 76,
          "name": "E5",
          "ticks": 51454,
          "time": 44.664885890624994,
          "velocity": 0.31496062992125984
        },
        {
          "duration": 0.08333325000000258,
          "durationTicks": 96,
          "midi": 76,
          "name": "E5",
          "ticks": 51454,
          "time": 44.664885890624994,
          "velocity": 0.29133858267716534
        },
        {
          "duration": 0.16666649999999805,
          "durationTicks": 192,
          "midi": 28,
          "name": "E1",
          "ticks": 51454,
          "time": 44.664885890624994,
          "velocity": 0.31496062992125984
        },
        {
          "duration": 0.08333325000000258,
          "durationTicks": 96,
          "midi": 88,
          "name": "E6",
          "ticks": 51454,
          "time": 44.664885890624994,
          "velocity": 0.29133858267716534
        },
        {
          "duration": 0.08333325000000258,
          "durationTicks": 96,
          "midi": 84,
          "name": "C6",
          "ticks": 51454,
          "time": 44.664885890624994,
          "velocity": 0.1732283464566929
        },
        {
          "duration": 0.04166662500000484,
          "durationTicks": 48,
          "midi": 52,
          "name": "E3",
          "ticks": 51646,
          "time": 44.83155239062499,
          "velocity": 0.28346456692913385
        },
        {
          "duration": 0.04166662500000484,
          "durationTicks": 48,
          "midi": 56,
          "name": "G#3",
          "ticks": 51646,
          "time": 44.83155239062499,
          "velocity": 0.28346456692913385
        },
        {
          "duration": 0.04166662500000484,
          "durationTicks": 48,
          "midi": 59,
          "name": "B3",
          "ticks": 51646,
          "time": 44.83155239062499,
          "velocity": 0.28346456692913385
        },
        {
          "duration": 0.04166662500000484,
          "durationTicks": 48,
          "midi": 62,
          "name": "D4",
          "ticks": 51646,
          "time": 44.83155239062499,
          "velocity": 0.28346456692913385
        },
        {
          "duration": 0.08333325000000258,
          "durationTicks": 96,
          "midi": 74,
          "name": "D5",
          "ticks": 51646,
          "time": 44.83155239062499,
          "velocity": 0.31496062992125984
        },
        {
          "duration": 0.08333325000000258,
          "durationTicks": 96,
          "midi": 74,
          "name": "D5",
          "ticks": 51646,
          "time": 44.83155239062499,
          "velocity": 0.29133858267716534
        },
        {
          "duration": 0.08333325000000258,
          "durationTicks": 96,
          "midi": 40,
          "name": "E2",
          "ticks": 51646,
          "time": 44.83155239062499,
          "velocity": 0.2992125984251969
        },
        {
          "duration": 0.08333325000000258,
          "durationTicks": 96,
          "midi": 86,
          "name": "D6",
          "ticks": 51646,
          "time": 44.83155239062499,
          "velocity": 0.29133858267716534
        },
        {
          "duration": 0.08333325000000258,
          "durationTicks": 96,
          "midi": 83,
          "name": "B5",
          "ticks": 51646,
          "time": 44.83155239062499,
          "velocity": 0.1732283464566929
        },
        {
          "duration": 0.08333324999999547,
          "durationTicks": 96,
          "midi": 72,
          "name": "C5",
          "ticks": 51838,
          "time": 44.998218890625,
          "velocity": 0.31496062992125984
        },
        {
          "duration": 0.08333324999999547,
          "durationTicks": 96,
          "midi": 72,
          "name": "C5",
          "ticks": 51838,
          "time": 44.998218890625,
          "velocity": 0.29133858267716534
        },
        {
          "duration": 0.16666649999999805,
          "durationTicks": 192,
          "midi": 28,
          "name": "E1",
          "ticks": 51838,
          "time": 44.998218890625,
          "velocity": 0.31496062992125984
        },
        {
          "duration": 0.16666649999999805,
          "durationTicks": 192,
          "midi": 40,
          "name": "E2",
          "ticks": 51838,
          "time": 44.998218890625,
          "velocity": 0.29133858267716534
        },
        {
          "duration": 0.08333324999999547,
          "durationTicks": 96,
          "midi": 84,
          "name": "C6",
          "ticks": 51838,
          "time": 44.998218890625,
          "velocity": 0.29133858267716534
        },
        {
          "duration": 0.08333324999999547,
          "durationTicks": 96,
          "midi": 82,
          "name": "A#5",
          "ticks": 51838,
          "time": 44.998218890625,
          "velocity": 0.1732283464566929
        },
        {
          "duration": 0.04166662499999774,
          "durationTicks": 48,
          "midi": 52,
          "name": "E3",
          "ticks": 52030,
          "time": 45.164885390624995,
          "velocity": 0.28346456692913385
        },
        {
          "duration": 0.04166662499999774,
          "durationTicks": 48,
          "midi": 56,
          "name": "G#3",
          "ticks": 52030,
          "time": 45.164885390624995,
          "velocity": 0.28346456692913385
        },
        {
          "duration": 0.04166662499999774,
          "durationTicks": 48,
          "midi": 59,
          "name": "B3",
          "ticks": 52030,
          "time": 45.164885390624995,
          "velocity": 0.28346456692913385
        },
        {
          "duration": 0.04166662499999774,
          "durationTicks": 48,
          "midi": 62,
          "name": "D4",
          "ticks": 52030,
          "time": 45.164885390624995,
          "velocity": 0.28346456692913385
        },
        {
          "duration": 0.08333325000000258,
          "durationTicks": 96,
          "midi": 71,
          "name": "B4",
          "ticks": 52030,
          "time": 45.164885390624995,
          "velocity": 0.31496062992125984
        },
        {
          "duration": 0.08333325000000258,
          "durationTicks": 96,
          "midi": 71,
          "name": "B4",
          "ticks": 52030,
          "time": 45.164885390624995,
          "velocity": 0.29133858267716534
        },
        {
          "duration": 0.08333325000000258,
          "durationTicks": 96,
          "midi": 40,
          "name": "E2",
          "ticks": 52030,
          "time": 45.164885390624995,
          "velocity": 0.2992125984251969
        },
        {
          "duration": 0.08333325000000258,
          "durationTicks": 96,
          "midi": 83,
          "name": "B5",
          "ticks": 52030,
          "time": 45.164885390624995,
          "velocity": 0.29133858267716534
        },
        {
          "duration": 0.08333325000000258,
          "durationTicks": 96,
          "midi": 83,
          "name": "B5",
          "ticks": 52030,
          "time": 45.164885390624995,
          "velocity": 0.1732283464566929
        },
        {
          "duration": 0.04166662499999774,
          "durationTicks": 48,
          "midi": 28,
          "name": "E1",
          "ticks": 52126,
          "time": 45.248218640625,
          "velocity": 0.25196850393700787
        },
        {
          "duration": 0.3333330000000032,
          "durationTicks": 384,
          "midi": 69,
          "name": "A4",
          "ticks": 52222,
          "time": 45.33155189062499,
          "velocity": 0.31496062992125984
        },
        {
          "duration": 0.3333330000000032,
          "durationTicks": 384,
          "midi": 69,
          "name": "A4",
          "ticks": 52222,
          "time": 45.33155189062499,
          "velocity": 0.29133858267716534
        },
        {
          "duration": 0.16666650000000516,
          "durationTicks": 192,
          "midi": 33,
          "name": "A1",
          "ticks": 52222,
          "time": 45.33155189062499,
          "velocity": 0.31496062992125984
        },
        {
          "duration": 0.08333325000000258,
          "durationTicks": 96,
          "midi": 81,
          "name": "A5",
          "ticks": 52222,
          "time": 45.33155189062499,
          "velocity": 0.29133858267716534
        },
        {
          "duration": 0.3333330000000032,
          "durationTicks": 384,
          "midi": 81,
          "name": "A5",
          "ticks": 52222,
          "time": 45.33155189062499,
          "velocity": 0.1732283464566929
        },
        {
          "duration": 0.04166662499999774,
          "durationTicks": 48,
          "midi": 52,
          "name": "E3",
          "ticks": 52414,
          "time": 45.498218390625,
          "velocity": 0.28346456692913385
        },
        {
          "duration": 0.04166662499999774,
          "durationTicks": 48,
          "midi": 57,
          "name": "A3",
          "ticks": 52414,
          "time": 45.498218390625,
          "velocity": 0.28346456692913385
        },
        {
          "duration": 0.04166662499999774,
          "durationTicks": 48,
          "midi": 60,
          "name": "C4",
          "ticks": 52414,
          "time": 45.498218390625,
          "velocity": 0.28346456692913385
        },
        {
          "duration": 0.08333324999999547,
          "durationTicks": 96,
          "midi": 45,
          "name": "A2",
          "ticks": 52414,
          "time": 45.498218390625,
          "velocity": 0.2992125984251969
        },
        {
          "duration": 0.08333324999999547,
          "durationTicks": 96,
          "midi": 84,
          "name": "C6",
          "ticks": 52414,
          "time": 45.498218390625,
          "velocity": 0.1732283464566929
        },
        {
          "duration": 0.16666649999999805,
          "durationTicks": 192,
          "midi": 81,
          "name": "A5",
          "ticks": 52606,
          "time": 45.664884890625,
          "velocity": 0.31496062992125984
        },
        {
          "duration": 0.16666649999999805,
          "durationTicks": 192,
          "midi": 33,
          "name": "A1",
          "ticks": 52606,
          "time": 45.664884890625,
          "velocity": 0.31496062992125984
        },
        {
          "duration": 0.16666649999999805,
          "durationTicks": 192,
          "midi": 45,
          "name": "A2",
          "ticks": 52606,
          "time": 45.664884890625,
          "velocity": 0.29133858267716534
        },
        {
          "duration": 0.16666649999999805,
          "durationTicks": 192,
          "midi": 93,
          "name": "A6",
          "ticks": 52606,
          "time": 45.664884890625,
          "velocity": 0.29133858267716534
        },
        {
          "duration": 0.08333324999999547,
          "durationTicks": 96,
          "midi": 88,
          "name": "E6",
          "ticks": 52606,
          "time": 45.664884890625,
          "velocity": 0.1732283464566929
        },
        {
          "duration": 0.04166662499999774,
          "durationTicks": 48,
          "midi": 57,
          "name": "A3",
          "ticks": 52798,
          "time": 45.831551390624995,
          "velocity": 0.28346456692913385
        },
        {
          "duration": 0.04166662499999774,
          "durationTicks": 48,
          "midi": 60,
          "name": "C4",
          "ticks": 52798,
          "time": 45.831551390624995,
          "velocity": 0.28346456692913385
        },
        {
          "duration": 0.04166662499999774,
          "durationTicks": 48,
          "midi": 52,
          "name": "E3",
          "ticks": 52798,
          "time": 45.831551390624995,
          "velocity": 0.28346456692913385
        },
        {
          "duration": 0.16666649999999805,
          "durationTicks": 192,
          "midi": 81,
          "name": "A5",
          "ticks": 52798,
          "time": 45.831551390624995,
          "velocity": 0.2440944881889764
        },
        {
          "duration": 0.08333325000000258,
          "durationTicks": 96,
          "midi": 45,
          "name": "A2",
          "ticks": 52798,
          "time": 45.831551390624995,
          "velocity": 0.2992125984251969
        },
        {
          "duration": 0.08333325000000258,
          "durationTicks": 96,
          "midi": 93,
          "name": "A6",
          "ticks": 52798,
          "time": 45.831551390624995,
          "velocity": 0.1732283464566929
        },
        {
          "duration": 0.04166662499999774,
          "durationTicks": 48,
          "midi": 33,
          "name": "A1",
          "ticks": 52894,
          "time": 45.914884640625,
          "velocity": 0.25196850393700787
        },
        {
          "duration": 0.16666650000000516,
          "durationTicks": 192,
          "midi": 80,
          "name": "G#5",
          "ticks": 52990,
          "time": 45.99821789062499,
          "velocity": 0.31496062992125984
        },
        {
          "duration": 0.16666650000000516,
          "durationTicks": 192,
          "midi": 33,
          "name": "A1",
          "ticks": 52990,
          "time": 45.99821789062499,
          "velocity": 0.31496062992125984
        },
        {
          "duration": 0.08333325000000258,
          "durationTicks": 96,
          "midi": 92,
          "name": "G#6",
          "ticks": 52990,
          "time": 45.99821789062499,
          "velocity": 0.29133858267716534
        },
        {
          "duration": 0.16666650000000516,
          "durationTicks": 192,
          "midi": 92,
          "name": "G#6",
          "ticks": 52990,
          "time": 45.99821789062499,
          "velocity": 0.1732283464566929
        },
        {
          "duration": 0.04166662499999774,
          "durationTicks": 48,
          "midi": 52,
          "name": "E3",
          "ticks": 53182,
          "time": 46.164884390625,
          "velocity": 0.28346456692913385
        },
        {
          "duration": 0.04166662499999774,
          "durationTicks": 48,
          "midi": 60,
          "name": "C4",
          "ticks": 53182,
          "time": 46.164884390625,
          "velocity": 0.28346456692913385
        },
        {
          "duration": 0.04166662499999774,
          "durationTicks": 48,
          "midi": 57,
          "name": "A3",
          "ticks": 53182,
          "time": 46.164884390625,
          "velocity": 0.28346456692913385
        },
        {
          "duration": 0.16666649999999805,
          "durationTicks": 192,
          "midi": 80,
          "name": "G#5",
          "ticks": 53182,
          "time": 46.164884390625,
          "velocity": 0.2440944881889764
        },
        {
          "duration": 0.08333324999999547,
          "durationTicks": 96,
          "midi": 45,
          "name": "A2",
          "ticks": 53182,
          "time": 46.164884390625,
          "velocity": 0.2992125984251969
        },
        {
          "duration": 0.08333324999999547,
          "durationTicks": 96,
          "midi": 91,
          "name": "G6",
          "ticks": 53182,
          "time": 46.164884390625,
          "velocity": 0.1732283464566929
        },
        {
          "duration": 0.16666649999999805,
          "durationTicks": 192,
          "midi": 79,
          "name": "G5",
          "ticks": 53374,
          "time": 46.331550890624996,
          "velocity": 0.31496062992125984
        },
        {
          "duration": 0.16666649999999805,
          "durationTicks": 192,
          "midi": 33,
          "name": "A1",
          "ticks": 53374,
          "time": 46.331550890624996,
          "velocity": 0.31496062992125984
        },
        {
          "duration": 0.16666649999999805,
          "durationTicks": 192,
          "midi": 45,
          "name": "A2",
          "ticks": 53374,
          "time": 46.331550890624996,
          "velocity": 0.29133858267716534
        },
        {
          "duration": 0.16666649999999805,
          "durationTicks": 192,
          "midi": 91,
          "name": "G6",
          "ticks": 53374,
          "time": 46.331550890624996,
          "velocity": 0.29133858267716534
        },
        {
          "duration": 0.08333325000000258,
          "durationTicks": 96,
          "midi": 90,
          "name": "F#6",
          "ticks": 53374,
          "time": 46.331550890624996,
          "velocity": 0.1732283464566929
        },
        {
          "duration": 0.04166662500000484,
          "durationTicks": 48,
          "midi": 52,
          "name": "E3",
          "ticks": 53566,
          "time": 46.498217390624994,
          "velocity": 0.28346456692913385
        },
        {
          "duration": 0.04166662500000484,
          "durationTicks": 48,
          "midi": 60,
          "name": "C4",
          "ticks": 53566,
          "time": 46.498217390624994,
          "velocity": 0.28346456692913385
        },
        {
          "duration": 0.04166662500000484,
          "durationTicks": 48,
          "midi": 57,
          "name": "A3",
          "ticks": 53566,
          "time": 46.498217390624994,
          "velocity": 0.28346456692913385
        },
        {
          "duration": 0.16666649999999805,
          "durationTicks": 192,
          "midi": 79,
          "name": "G5",
          "ticks": 53566,
          "time": 46.498217390624994,
          "velocity": 0.2440944881889764
        },
        {
          "duration": 0.08333325000000258,
          "durationTicks": 96,
          "midi": 45,
          "name": "A2",
          "ticks": 53566,
          "time": 46.498217390624994,
          "velocity": 0.2992125984251969
        },
        {
          "duration": 0.08333325000000258,
          "durationTicks": 96,
          "midi": 89,
          "name": "F6",
          "ticks": 53566,
          "time": 46.498217390624994,
          "velocity": 0.1732283464566929
        },
        {
          "duration": 0.04166662499999774,
          "durationTicks": 48,
          "midi": 33,
          "name": "A1",
          "ticks": 53662,
          "time": 46.581550640625,
          "velocity": 0.25196850393700787
        },
        {
          "duration": 0.16666650000000516,
          "durationTicks": 192,
          "midi": 78,
          "name": "F#5",
          "ticks": 53758,
          "time": 46.66488389062499,
          "velocity": 0.31496062992125984
        },
        {
          "duration": 0.16666650000000516,
          "durationTicks": 192,
          "midi": 36,
          "name": "C2",
          "ticks": 53758,
          "time": 46.66488389062499,
          "velocity": 0.31496062992125984
        },
        {
          "duration": 0.16666650000000516,
          "durationTicks": 192,
          "midi": 90,
          "name": "F#6",
          "ticks": 53758,
          "time": 46.66488389062499,
          "velocity": 0.29133858267716534
        },
        {
          "duration": 0.08333325000000258,
          "durationTicks": 96,
          "midi": 88,
          "name": "E6",
          "ticks": 53758,
          "time": 46.66488389062499,
          "velocity": 0.1732283464566929
        },
        {
          "duration": 0.04166662499999774,
          "durationTicks": 48,
          "midi": 62,
          "name": "D4",
          "ticks": 53950,
          "time": 46.831550390625,
          "velocity": 0.28346456692913385
        },
        {
          "duration": 0.04166662499999774,
          "durationTicks": 48,
          "midi": 58,
          "name": "A#3",
          "ticks": 53950,
          "time": 46.831550390625,
          "velocity": 0.28346456692913385
        },
        {
          "duration": 0.04166662499999774,
          "durationTicks": 48,
          "midi": 54,
          "name": "F#3",
          "ticks": 53950,
          "time": 46.831550390625,
          "velocity": 0.28346456692913385
        },
        {
          "duration": 0.16666649999999805,
          "durationTicks": 192,
          "midi": 78,
          "name": "F#5",
          "ticks": 53950,
          "time": 46.831550390625,
          "velocity": 0.2440944881889764
        },
        {
          "duration": 0.08333324999999547,
          "durationTicks": 96,
          "midi": 48,
          "name": "C3",
          "ticks": 53950,
          "time": 46.831550390625,
          "velocity": 0.2992125984251969
        },
        {
          "duration": 0.08333324999999547,
          "durationTicks": 96,
          "midi": 87,
          "name": "D#6",
          "ticks": 53950,
          "time": 46.831550390625,
          "velocity": 0.1732283464566929
        },
        {
          "duration": 0.16666649999999805,
          "durationTicks": 192,
          "midi": 77,
          "name": "F5",
          "ticks": 54142,
          "time": 46.998216890624995,
          "velocity": 0.31496062992125984
        },
        {
          "duration": 0.16666649999999805,
          "durationTicks": 192,
          "midi": 36,
          "name": "C2",
          "ticks": 54142,
          "time": 46.998216890624995,
          "velocity": 0.31496062992125984
        },
        {
          "duration": 0.16666649999999805,
          "durationTicks": 192,
          "midi": 48,
          "name": "C3",
          "ticks": 54142,
          "time": 46.998216890624995,
          "velocity": 0.29133858267716534
        },
        {
          "duration": 0.16666649999999805,
          "durationTicks": 192,
          "midi": 89,
          "name": "F6",
          "ticks": 54142,
          "time": 46.998216890624995,
          "velocity": 0.29133858267716534
        },
        {
          "duration": 0.08333325000000258,
          "durationTicks": 96,
          "midi": 86,
          "name": "D6",
          "ticks": 54142,
          "time": 46.998216890624995,
          "velocity": 0.1732283464566929
        },
        {
          "duration": 0.04166662500000484,
          "durationTicks": 48,
          "midi": 62,
          "name": "D4",
          "ticks": 54334,
          "time": 47.16488339062499,
          "velocity": 0.28346456692913385
        },
        {
          "duration": 0.04166662500000484,
          "durationTicks": 48,
          "midi": 54,
          "name": "F#3",
          "ticks": 54334,
          "time": 47.16488339062499,
          "velocity": 0.28346456692913385
        },
        {
          "duration": 0.04166662500000484,
          "durationTicks": 48,
          "midi": 58,
          "name": "A#3",
          "ticks": 54334,
          "time": 47.16488339062499,
          "velocity": 0.28346456692913385
        },
        {
          "duration": 0.16666650000000516,
          "durationTicks": 192,
          "midi": 77,
          "name": "F5",
          "ticks": 54334,
          "time": 47.16488339062499,
          "velocity": 0.2440944881889764
        },
        {
          "duration": 0.08333325000000258,
          "durationTicks": 96,
          "midi": 48,
          "name": "C3",
          "ticks": 54334,
          "time": 47.16488339062499,
          "velocity": 0.2992125984251969
        },
        {
          "duration": 0.08333325000000258,
          "durationTicks": 96,
          "midi": 85,
          "name": "C#6",
          "ticks": 54334,
          "time": 47.16488339062499,
          "velocity": 0.1732283464566929
        },
        {
          "duration": 0.04166662499999774,
          "durationTicks": 48,
          "midi": 36,
          "name": "C2",
          "ticks": 54430,
          "time": 47.248216640624996,
          "velocity": 0.25196850393700787
        },
        {
          "duration": 0.16666649999999805,
          "durationTicks": 192,
          "midi": 75,
          "name": "D#5",
          "ticks": 54526,
          "time": 47.331549890625,
          "velocity": 0.31496062992125984
        },
        {
          "duration": 0.16666649999999805,
          "durationTicks": 192,
          "midi": 36,
          "name": "C2",
          "ticks": 54526,
          "time": 47.331549890625,
          "velocity": 0.31496062992125984
        },
        {
          "duration": 0.16666649999999805,
          "durationTicks": 192,
          "midi": 87,
          "name": "D#6",
          "ticks": 54526,
          "time": 47.331549890625,
          "velocity": 0.29133858267716534
        },
        {
          "duration": 0.08333324999999547,
          "durationTicks": 96,
          "midi": 84,
          "name": "C6",
          "ticks": 54526,
          "time": 47.331549890625,
          "velocity": 0.1732283464566929
        },
        {
          "duration": 0.04166662499999774,
          "durationTicks": 48,
          "midi": 48,
          "name": "C3",
          "ticks": 54718,
          "time": 47.498216390625,
          "velocity": 0.2440944881889764
        },
        {
          "duration": 0.04166662499999774,
          "durationTicks": 48,
          "midi": 62,
          "name": "D4",
          "ticks": 54718,
          "time": 47.498216390625,
          "velocity": 0.28346456692913385
        },
        {
          "duration": 0.04166662499999774,
          "durationTicks": 48,
          "midi": 54,
          "name": "F#3",
          "ticks": 54718,
          "time": 47.498216390625,
          "velocity": 0.28346456692913385
        },
        {
          "duration": 0.04166662499999774,
          "durationTicks": 48,
          "midi": 58,
          "name": "A#3",
          "ticks": 54718,
          "time": 47.498216390625,
          "velocity": 0.28346456692913385
        },
        {
          "duration": 0.16666649999999805,
          "durationTicks": 192,
          "midi": 75,
          "name": "D#5",
          "ticks": 54718,
          "time": 47.498216390625,
          "velocity": 0.2440944881889764
        },
        {
          "duration": 0.08333324999999547,
          "durationTicks": 96,
          "midi": 48,
          "name": "C3",
          "ticks": 54718,
          "time": 47.498216390625,
          "velocity": 0.2992125984251969
        },
        {
          "duration": 0.08333324999999547,
          "durationTicks": 96,
          "midi": 83,
          "name": "B5",
          "ticks": 54718,
          "time": 47.498216390625,
          "velocity": 0.1732283464566929
        },
        {
          "duration": 0.04166662499999774,
          "durationTicks": 48,
          "midi": 50,
          "name": "D3",
          "ticks": 54910,
          "time": 47.664882890624995,
          "velocity": 0.2440944881889764
        },
        {
          "duration": 0.16666649999999805,
          "durationTicks": 192,
          "midi": 76,
          "name": "E5",
          "ticks": 54910,
          "time": 47.664882890624995,
          "velocity": 0.31496062992125984
        },
        {
          "duration": 0.16666649999999805,
          "durationTicks": 192,
          "midi": 36,
          "name": "C2",
          "ticks": 54910,
          "time": 47.664882890624995,
          "velocity": 0.31496062992125984
        },
        {
          "duration": 0.16666649999999805,
          "durationTicks": 192,
          "midi": 48,
          "name": "C3",
          "ticks": 54910,
          "time": 47.664882890624995,
          "velocity": 0.29133858267716534
        },
        {
          "duration": 0.16666649999999805,
          "durationTicks": 192,
          "midi": 88,
          "name": "E6",
          "ticks": 54910,
          "time": 47.664882890624995,
          "velocity": 0.29133858267716534
        },
        {
          "duration": 0.08333325000000258,
          "durationTicks": 96,
          "midi": 82,
          "name": "A#5",
          "ticks": 54910,
          "time": 47.664882890624995,
          "velocity": 0.1732283464566929
        },
        {
          "duration": 0.04166662500000484,
          "durationTicks": 48,
          "midi": 62,
          "name": "D4",
          "ticks": 55102,
          "time": 47.83154939062499,
          "velocity": 0.28346456692913385
        },
        {
          "duration": 0.04166662500000484,
          "durationTicks": 48,
          "midi": 54,
          "name": "F#3",
          "ticks": 55102,
          "time": 47.83154939062499,
          "velocity": 0.28346456692913385
        },
        {
          "duration": 0.04166662500000484,
          "durationTicks": 48,
          "midi": 58,
          "name": "A#3",
          "ticks": 55102,
          "time": 47.83154939062499,
          "velocity": 0.28346456692913385
        },
        {
          "duration": 0.04166662500000484,
          "durationTicks": 48,
          "midi": 52,
          "name": "E3",
          "ticks": 55102,
          "time": 47.83154939062499,
          "velocity": 0.2440944881889764
        },
        {
          "duration": 0.16666650000000516,
          "durationTicks": 192,
          "midi": 76,
          "name": "E5",
          "ticks": 55102,
          "time": 47.83154939062499,
          "velocity": 0.2440944881889764
        },
        {
          "duration": 0.08333325000000258,
          "durationTicks": 96,
          "midi": 48,
          "name": "C3",
          "ticks": 55102,
          "time": 47.83154939062499,
          "velocity": 0.2992125984251969
        },
        {
          "duration": 0.08333325000000258,
          "durationTicks": 96,
          "midi": 83,
          "name": "B5",
          "ticks": 55102,
          "time": 47.83154939062499,
          "velocity": 0.1732283464566929
        },
        {
          "duration": 0.04166662499999774,
          "durationTicks": 48,
          "midi": 36,
          "name": "C2",
          "ticks": 55198,
          "time": 47.914882640624995,
          "velocity": 0.25196850393700787
        },
        {
          "duration": 0.16666649999999805,
          "durationTicks": 192,
          "midi": 76,
          "name": "E5",
          "ticks": 55294,
          "time": 47.998215890625,
          "velocity": 0.31496062992125984
        },
        {
          "duration": 0.16666649999999805,
          "durationTicks": 192,
          "midi": 76,
          "name": "E5",
          "ticks": 55294,
          "time": 47.998215890625,
          "velocity": 0.29133858267716534
        },
        {
          "duration": 0.16666649999999805,
          "durationTicks": 192,
          "midi": 26,
          "name": "D1",
          "ticks": 55294,
          "time": 47.998215890625,
          "velocity": 0.31496062992125984
        },
        {
          "duration": 0.16666649999999805,
          "durationTicks": 192,
          "midi": 88,
          "name": "E6",
          "ticks": 55294,
          "time": 47.998215890625,
          "velocity": 0.29133858267716534
        },
        {
          "duration": 0.08333324999999547,
          "durationTicks": 96,
          "midi": 81,
          "name": "A5",
          "ticks": 55294,
          "time": 47.998215890625,
          "velocity": 0.1732283464566929
        },
        {
          "duration": 0.04166662499999774,
          "durationTicks": 48,
          "midi": 53,
          "name": "F3",
          "ticks": 55486,
          "time": 48.164882390624996,
          "velocity": 0.28346456692913385
        },
        {
          "duration": 0.04166662499999774,
          "durationTicks": 48,
          "midi": 57,
          "name": "A3",
          "ticks": 55486,
          "time": 48.164882390624996,
          "velocity": 0.28346456692913385
        },
        {
          "duration": 0.04166662499999774,
          "durationTicks": 48,
          "midi": 50,
          "name": "D3",
          "ticks": 55486,
          "time": 48.164882390624996,
          "velocity": 0.28346456692913385
        },
        {
          "duration": 0.04166662499999774,
          "durationTicks": 48,
          "midi": 60,
          "name": "C4",
          "ticks": 55486,
          "time": 48.164882390624996,
          "velocity": 0.28346456692913385
        },
        {
          "duration": 0.08333325000000258,
          "durationTicks": 96,
          "midi": 75,
          "name": "D#5",
          "ticks": 55486,
          "time": 48.164882390624996,
          "velocity": 0.31496062992125984
        },
        {
          "duration": 0.08333325000000258,
          "durationTicks": 96,
          "midi": 75,
          "name": "D#5",
          "ticks": 55486,
          "time": 48.164882390624996,
          "velocity": 0.29133858267716534
        },
        {
          "duration": 0.08333325000000258,
          "durationTicks": 96,
          "midi": 38,
          "name": "D2",
          "ticks": 55486,
          "time": 48.164882390624996,
          "velocity": 0.2992125984251969
        },
        {
          "duration": 0.08333325000000258,
          "durationTicks": 96,
          "midi": 87,
          "name": "D#6",
          "ticks": 55486,
          "time": 48.164882390624996,
          "velocity": 0.29133858267716534
        },
        {
          "duration": 0.08333325000000258,
          "durationTicks": 96,
          "midi": 84,
          "name": "C6",
          "ticks": 55486,
          "time": 48.164882390624996,
          "velocity": 0.1732283464566929
        },
        {
          "duration": 0.08333325000000258,
          "durationTicks": 96,
          "midi": 76,
          "name": "E5",
          "ticks": 55678,
          "time": 48.331548890624994,
          "velocity": 0.31496062992125984
        },
        {
          "duration": 0.08333325000000258,
          "durationTicks": 96,
          "midi": 76,
          "name": "E5",
          "ticks": 55678,
          "time": 48.331548890624994,
          "velocity": 0.29133858267716534
        },
        {
          "duration": 0.16666649999999805,
          "durationTicks": 192,
          "midi": 26,
          "name": "D1",
          "ticks": 55678,
          "time": 48.331548890624994,
          "velocity": 0.31496062992125984
        },
        {
          "duration": 0.16666649999999805,
          "durationTicks": 192,
          "midi": 38,
          "name": "D2",
          "ticks": 55678,
          "time": 48.331548890624994,
          "velocity": 0.29133858267716534
        },
        {
          "duration": 0.08333325000000258,
          "durationTicks": 96,
          "midi": 88,
          "name": "E6",
          "ticks": 55678,
          "time": 48.331548890624994,
          "velocity": 0.29133858267716534
        },
        {
          "duration": 0.08333325000000258,
          "durationTicks": 96,
          "midi": 88,
          "name": "E6",
          "ticks": 55678,
          "time": 48.331548890624994,
          "velocity": 0.1732283464566929
        },
        {
          "duration": 0.04166662500000484,
          "durationTicks": 48,
          "midi": 53,
          "name": "F3",
          "ticks": 55870,
          "time": 48.49821539062499,
          "velocity": 0.28346456692913385
        },
        {
          "duration": 0.04166662500000484,
          "durationTicks": 48,
          "midi": 50,
          "name": "D3",
          "ticks": 55870,
          "time": 48.49821539062499,
          "velocity": 0.28346456692913385
        },
        {
          "duration": 0.04166662500000484,
          "durationTicks": 48,
          "midi": 60,
          "name": "C4",
          "ticks": 55870,
          "time": 48.49821539062499,
          "velocity": 0.28346456692913385
        },
        {
          "duration": 0.04166662500000484,
          "durationTicks": 48,
          "midi": 57,
          "name": "A3",
          "ticks": 55870,
          "time": 48.49821539062499,
          "velocity": 0.28346456692913385
        },
        {
          "duration": 0.08333325000000258,
          "durationTicks": 96,
          "midi": 77,
          "name": "F5",
          "ticks": 55870,
          "time": 48.49821539062499,
          "velocity": 0.31496062992125984
        },
        {
          "duration": 0.08333325000000258,
          "durationTicks": 96,
          "midi": 77,
          "name": "F5",
          "ticks": 55870,
          "time": 48.49821539062499,
          "velocity": 0.29133858267716534
        },
        {
          "duration": 0.08333325000000258,
          "durationTicks": 96,
          "midi": 38,
          "name": "D2",
          "ticks": 55870,
          "time": 48.49821539062499,
          "velocity": 0.2992125984251969
        },
        {
          "duration": 0.08333325000000258,
          "durationTicks": 96,
          "midi": 89,
          "name": "F6",
          "ticks": 55870,
          "time": 48.49821539062499,
          "velocity": 0.29133858267716534
        },
        {
          "duration": 0.08333325000000258,
          "durationTicks": 96,
          "midi": 93,
          "name": "A6",
          "ticks": 55870,
          "time": 48.49821539062499,
          "velocity": 0.1732283464566929
        },
        {
          "duration": 0.04166662499999774,
          "durationTicks": 48,
          "midi": 26,
          "name": "D1",
          "ticks": 55966,
          "time": 48.581548640624995,
          "velocity": 0.25196850393700787
        },
        {
          "duration": 0.08333324999999547,
          "durationTicks": 96,
          "midi": 76,
          "name": "E5",
          "ticks": 56062,
          "time": 48.664881890625,
          "velocity": 0.31496062992125984
        },
        {
          "duration": 0.08333324999999547,
          "durationTicks": 96,
          "midi": 76,
          "name": "E5",
          "ticks": 56062,
          "time": 48.664881890625,
          "velocity": 0.29133858267716534
        },
        {
          "duration": 0.16666649999999805,
          "durationTicks": 192,
          "midi": 26,
          "name": "D1",
          "ticks": 56062,
          "time": 48.664881890625,
          "velocity": 0.31496062992125984
        },
        {
          "duration": 0.08333324999999547,
          "durationTicks": 96,
          "midi": 88,
          "name": "E6",
          "ticks": 56062,
          "time": 48.664881890625,
          "velocity": 0.29133858267716534
        },
        {
          "duration": 0.08333324999999547,
          "durationTicks": 96,
          "midi": 92,
          "name": "G#6",
          "ticks": 56062,
          "time": 48.664881890625,
          "velocity": 0.1732283464566929
        },
        {
          "duration": 0.04166662499999774,
          "durationTicks": 48,
          "midi": 50,
          "name": "D3",
          "ticks": 56254,
          "time": 48.831548390624995,
          "velocity": 0.28346456692913385
        },
        {
          "duration": 0.04166662499999774,
          "durationTicks": 48,
          "midi": 60,
          "name": "C4",
          "ticks": 56254,
          "time": 48.831548390624995,
          "velocity": 0.28346456692913385
        },
        {
          "duration": 0.04166662499999774,
          "durationTicks": 48,
          "midi": 57,
          "name": "A3",
          "ticks": 56254,
          "time": 48.831548390624995,
          "velocity": 0.28346456692913385
        },
        {
          "duration": 0.04166662499999774,
          "durationTicks": 48,
          "midi": 53,
          "name": "F3",
          "ticks": 56254,
          "time": 48.831548390624995,
          "velocity": 0.28346456692913385
        },
        {
          "duration": 0.08333325000000258,
          "durationTicks": 96,
          "midi": 74,
          "name": "D5",
          "ticks": 56254,
          "time": 48.831548390624995,
          "velocity": 0.31496062992125984
        },
        {
          "duration": 0.08333325000000258,
          "durationTicks": 96,
          "midi": 74,
          "name": "D5",
          "ticks": 56254,
          "time": 48.831548390624995,
          "velocity": 0.29133858267716534
        },
        {
          "duration": 0.08333325000000258,
          "durationTicks": 96,
          "midi": 38,
          "name": "D2",
          "ticks": 56254,
          "time": 48.831548390624995,
          "velocity": 0.2992125984251969
        },
        {
          "duration": 0.08333325000000258,
          "durationTicks": 96,
          "midi": 86,
          "name": "D6",
          "ticks": 56254,
          "time": 48.831548390624995,
          "velocity": 0.29133858267716534
        },
        {
          "duration": 0.08333325000000258,
          "durationTicks": 96,
          "midi": 91,
          "name": "G6",
          "ticks": 56254,
          "time": 48.831548390624995,
          "velocity": 0.1732283464566929
        },
        {
          "duration": 0.08333325000000258,
          "durationTicks": 96,
          "midi": 72,
          "name": "C5",
          "ticks": 56446,
          "time": 48.99821489062499,
          "velocity": 0.31496062992125984
        },
        {
          "duration": 0.08333325000000258,
          "durationTicks": 96,
          "midi": 72,
          "name": "C5",
          "ticks": 56446,
          "time": 48.99821489062499,
          "velocity": 0.29133858267716534
        },
        {
          "duration": 0.16666650000000516,
          "durationTicks": 192,
          "midi": 26,
          "name": "D1",
          "ticks": 56446,
          "time": 48.99821489062499,
          "velocity": 0.31496062992125984
        },
        {
          "duration": 0.16666650000000516,
          "durationTicks": 192,
          "midi": 38,
          "name": "D2",
          "ticks": 56446,
          "time": 48.99821489062499,
          "velocity": 0.29133858267716534
        },
        {
          "duration": 0.08333325000000258,
          "durationTicks": 96,
          "midi": 84,
          "name": "C6",
          "ticks": 56446,
          "time": 48.99821489062499,
          "velocity": 0.29133858267716534
        },
        {
          "duration": 0.08333325000000258,
          "durationTicks": 96,
          "midi": 90,
          "name": "F#6",
          "ticks": 56446,
          "time": 48.99821489062499,
          "velocity": 0.1732283464566929
        },
        {
          "duration": 0.04166662499999774,
          "durationTicks": 48,
          "midi": 50,
          "name": "D3",
          "ticks": 56638,
          "time": 49.164881390625,
          "velocity": 0.28346456692913385
        },
        {
          "duration": 0.04166662499999774,
          "durationTicks": 48,
          "midi": 60,
          "name": "C4",
          "ticks": 56638,
          "time": 49.164881390625,
          "velocity": 0.28346456692913385
        },
        {
          "duration": 0.04166662499999774,
          "durationTicks": 48,
          "midi": 57,
          "name": "A3",
          "ticks": 56638,
          "time": 49.164881390625,
          "velocity": 0.28346456692913385
        },
        {
          "duration": 0.04166662499999774,
          "durationTicks": 48,
          "midi": 53,
          "name": "F3",
          "ticks": 56638,
          "time": 49.164881390625,
          "velocity": 0.28346456692913385
        },
        {
          "duration": 0.08333324999999547,
          "durationTicks": 96,
          "midi": 74,
          "name": "D5",
          "ticks": 56638,
          "time": 49.164881390625,
          "velocity": 0.31496062992125984
        },
        {
          "duration": 0.08333324999999547,
          "durationTicks": 96,
          "midi": 74,
          "name": "D5",
          "ticks": 56638,
          "time": 49.164881390625,
          "velocity": 0.29133858267716534
        },
        {
          "duration": 0.08333324999999547,
          "durationTicks": 96,
          "midi": 38,
          "name": "D2",
          "ticks": 56638,
          "time": 49.164881390625,
          "velocity": 0.2992125984251969
        },
        {
          "duration": 0.08333324999999547,
          "durationTicks": 96,
          "midi": 86,
          "name": "D6",
          "ticks": 56638,
          "time": 49.164881390625,
          "velocity": 0.29133858267716534
        },
        {
          "duration": 0.08333324999999547,
          "durationTicks": 96,
          "midi": 89,
          "name": "F6",
          "ticks": 56638,
          "time": 49.164881390625,
          "velocity": 0.1732283464566929
        },
        {
          "duration": 0.04166662500000484,
          "durationTicks": 48,
          "midi": 26,
          "name": "D1",
          "ticks": 56734,
          "time": 49.248214640624994,
          "velocity": 0.25196850393700787
        },
        {
          "duration": 0.16666649999999805,
          "durationTicks": 192,
          "midi": 76,
          "name": "E5",
          "ticks": 56830,
          "time": 49.331547890625,
          "velocity": 0.31496062992125984
        },
        {
          "duration": 0.16666649999999805,
          "durationTicks": 192,
          "midi": 76,
          "name": "E5",
          "ticks": 56830,
          "time": 49.331547890625,
          "velocity": 0.29133858267716534
        },
        {
          "duration": 0.16666649999999805,
          "durationTicks": 192,
          "midi": 28,
          "name": "E1",
          "ticks": 56830,
          "time": 49.331547890625,
          "velocity": 0.31496062992125984
        },
        {
          "duration": 0.08333324999999547,
          "durationTicks": 96,
          "midi": 88,
          "name": "E6",
          "ticks": 56830,
          "time": 49.331547890625,
          "velocity": 0.29133858267716534
        },
        {
          "duration": 0.16666649999999805,
          "durationTicks": 192,
          "midi": 88,
          "name": "E6",
          "ticks": 56830,
          "time": 49.331547890625,
          "velocity": 0.1732283464566929
        },
        {
          "duration": 0.04166662499999774,
          "durationTicks": 48,
          "midi": 52,
          "name": "E3",
          "ticks": 57022,
          "time": 49.498214390624995,
          "velocity": 0.28346456692913385
        },
        {
          "duration": 0.04166662499999774,
          "durationTicks": 48,
          "midi": 62,
          "name": "D4",
          "ticks": 57022,
          "time": 49.498214390624995,
          "velocity": 0.28346456692913385
        },
        {
          "duration": 0.04166662499999774,
          "durationTicks": 48,
          "midi": 56,
          "name": "G#3",
          "ticks": 57022,
          "time": 49.498214390624995,
          "velocity": 0.28346456692913385
        },
        {
          "duration": 0.04166662499999774,
          "durationTicks": 48,
          "midi": 59,
          "name": "B3",
          "ticks": 57022,
          "time": 49.498214390624995,
          "velocity": 0.28346456692913385
        },
        {
          "duration": 0.08333325000000258,
          "durationTicks": 96,
          "midi": 75,
          "name": "D#5",
          "ticks": 57022,
          "time": 49.498214390624995,
          "velocity": 0.31496062992125984
        },
        {
          "duration": 0.08333325000000258,
          "durationTicks": 96,
          "midi": 75,
          "name": "D#5",
          "ticks": 57022,
          "time": 49.498214390624995,
          "velocity": 0.29133858267716534
        },
        {
          "duration": 0.08333325000000258,
          "durationTicks": 96,
          "midi": 40,
          "name": "E2",
          "ticks": 57022,
          "time": 49.498214390624995,
          "velocity": 0.2992125984251969
        },
        {
          "duration": 0.08333325000000258,
          "durationTicks": 96,
          "midi": 87,
          "name": "D#6",
          "ticks": 57022,
          "time": 49.498214390624995,
          "velocity": 0.29133858267716534
        },
        {
          "duration": 0.08333325000000258,
          "durationTicks": 96,
          "midi": 87,
          "name": "D#6",
          "ticks": 57022,
          "time": 49.498214390624995,
          "velocity": 0.1732283464566929
        },
        {
          "duration": 0.08333325000000258,
          "durationTicks": 96,
          "midi": 76,
          "name": "E5",
          "ticks": 57214,
          "time": 49.66488089062499,
          "velocity": 0.31496062992125984
        },
        {
          "duration": 0.08333325000000258,
          "durationTicks": 96,
          "midi": 76,
          "name": "E5",
          "ticks": 57214,
          "time": 49.66488089062499,
          "velocity": 0.29133858267716534
        },
        {
          "duration": 0.16666650000000516,
          "durationTicks": 192,
          "midi": 28,
          "name": "E1",
          "ticks": 57214,
          "time": 49.66488089062499,
          "velocity": 0.31496062992125984
        },
        {
          "duration": 0.16666650000000516,
          "durationTicks": 192,
          "midi": 40,
          "name": "E2",
          "ticks": 57214,
          "time": 49.66488089062499,
          "velocity": 0.29133858267716534
        },
        {
          "duration": 0.08333325000000258,
          "durationTicks": 96,
          "midi": 88,
          "name": "E6",
          "ticks": 57214,
          "time": 49.66488089062499,
          "velocity": 0.29133858267716534
        },
        {
          "duration": 0.08333325000000258,
          "durationTicks": 96,
          "midi": 86,
          "name": "D6",
          "ticks": 57214,
          "time": 49.66488089062499,
          "velocity": 0.1732283464566929
        },
        {
          "duration": 0.04166662499999774,
          "durationTicks": 48,
          "midi": 52,
          "name": "E3",
          "ticks": 57406,
          "time": 49.831547390625,
          "velocity": 0.28346456692913385
        },
        {
          "duration": 0.04166662499999774,
          "durationTicks": 48,
          "midi": 56,
          "name": "G#3",
          "ticks": 57406,
          "time": 49.831547390625,
          "velocity": 0.28346456692913385
        },
        {
          "duration": 0.04166662499999774,
          "durationTicks": 48,
          "midi": 59,
          "name": "B3",
          "ticks": 57406,
          "time": 49.831547390625,
          "velocity": 0.28346456692913385
        },
        {
          "duration": 0.04166662499999774,
          "durationTicks": 48,
          "midi": 62,
          "name": "D4",
          "ticks": 57406,
          "time": 49.831547390625,
          "velocity": 0.28346456692913385
        },
        {
          "duration": 0.08333324999999547,
          "durationTicks": 96,
          "midi": 77,
          "name": "F5",
          "ticks": 57406,
          "time": 49.831547390625,
          "velocity": 0.31496062992125984
        },
        {
          "duration": 0.08333324999999547,
          "durationTicks": 96,
          "midi": 77,
          "name": "F5",
          "ticks": 57406,
          "time": 49.831547390625,
          "velocity": 0.29133858267716534
        },
        {
          "duration": 0.08333324999999547,
          "durationTicks": 96,
          "midi": 40,
          "name": "E2",
          "ticks": 57406,
          "time": 49.831547390625,
          "velocity": 0.2992125984251969
        },
        {
          "duration": 0.08333324999999547,
          "durationTicks": 96,
          "midi": 89,
          "name": "F6",
          "ticks": 57406,
          "time": 49.831547390625,
          "velocity": 0.29133858267716534
        },
        {
          "duration": 0.08333324999999547,
          "durationTicks": 96,
          "midi": 85,
          "name": "C#6",
          "ticks": 57406,
          "time": 49.831547390625,
          "velocity": 0.1732283464566929
        },
        {
          "duration": 0.04166662500000484,
          "durationTicks": 48,
          "midi": 28,
          "name": "E1",
          "ticks": 57502,
          "time": 49.91488064062499,
          "velocity": 0.25196850393700787
        },
        {
          "duration": 0.08333325000000258,
          "durationTicks": 96,
          "midi": 76,
          "name": "E5",
          "ticks": 57598,
          "time": 49.998213890624996,
          "velocity": 0.31496062992125984
        },
        {
          "duration": 0.08333325000000258,
          "durationTicks": 96,
          "midi": 76,
          "name": "E5",
          "ticks": 57598,
          "time": 49.998213890624996,
          "velocity": 0.29133858267716534
        },
        {
          "duration": 0.16666649999999805,
          "durationTicks": 192,
          "midi": 28,
          "name": "E1",
          "ticks": 57598,
          "time": 49.998213890624996,
          "velocity": 0.31496062992125984
        },
        {
          "duration": 0.08333325000000258,
          "durationTicks": 96,
          "midi": 88,
          "name": "E6",
          "ticks": 57598,
          "time": 49.998213890624996,
          "velocity": 0.29133858267716534
        },
        {
          "duration": 0.08333325000000258,
          "durationTicks": 96,
          "midi": 84,
          "name": "C6",
          "ticks": 57598,
          "time": 49.998213890624996,
          "velocity": 0.1732283464566929
        },
        {
          "duration": 0.04166662500000484,
          "durationTicks": 48,
          "midi": 52,
          "name": "E3",
          "ticks": 57790,
          "time": 50.164880390624994,
          "velocity": 0.28346456692913385
        },
        {
          "duration": 0.04166662500000484,
          "durationTicks": 48,
          "midi": 62,
          "name": "D4",
          "ticks": 57790,
          "time": 50.164880390624994,
          "velocity": 0.28346456692913385
        },
        {
          "duration": 0.04166662500000484,
          "durationTicks": 48,
          "midi": 59,
          "name": "B3",
          "ticks": 57790,
          "time": 50.164880390624994,
          "velocity": 0.28346456692913385
        },
        {
          "duration": 0.04166662500000484,
          "durationTicks": 48,
          "midi": 56,
          "name": "G#3",
          "ticks": 57790,
          "time": 50.164880390624994,
          "velocity": 0.28346456692913385
        },
        {
          "duration": 0.08333325000000258,
          "durationTicks": 96,
          "midi": 74,
          "name": "D5",
          "ticks": 57790,
          "time": 50.164880390624994,
          "velocity": 0.31496062992125984
        },
        {
          "duration": 0.08333325000000258,
          "durationTicks": 96,
          "midi": 74,
          "name": "D5",
          "ticks": 57790,
          "time": 50.164880390624994,
          "velocity": 0.29133858267716534
        },
        {
          "duration": 0.08333325000000258,
          "durationTicks": 96,
          "midi": 40,
          "name": "E2",
          "ticks": 57790,
          "time": 50.164880390624994,
          "velocity": 0.2992125984251969
        },
        {
          "duration": 0.08333325000000258,
          "durationTicks": 96,
          "midi": 86,
          "name": "D6",
          "ticks": 57790,
          "time": 50.164880390624994,
          "velocity": 0.29133858267716534
        },
        {
          "duration": 0.08333325000000258,
          "durationTicks": 96,
          "midi": 83,
          "name": "B5",
          "ticks": 57790,
          "time": 50.164880390624994,
          "velocity": 0.1732283464566929
        },
        {
          "duration": 0.08333325000000258,
          "durationTicks": 96,
          "midi": 72,
          "name": "C5",
          "ticks": 57982,
          "time": 50.33154689062499,
          "velocity": 0.31496062992125984
        },
        {
          "duration": 0.08333325000000258,
          "durationTicks": 96,
          "midi": 72,
          "name": "C5",
          "ticks": 57982,
          "time": 50.33154689062499,
          "velocity": 0.29133858267716534
        },
        {
          "duration": 0.16666650000000516,
          "durationTicks": 192,
          "midi": 28,
          "name": "E1",
          "ticks": 57982,
          "time": 50.33154689062499,
          "velocity": 0.31496062992125984
        },
        {
          "duration": 0.16666650000000516,
          "durationTicks": 192,
          "midi": 40,
          "name": "E2",
          "ticks": 57982,
          "time": 50.33154689062499,
          "velocity": 0.29133858267716534
        },
        {
          "duration": 0.08333325000000258,
          "durationTicks": 96,
          "midi": 84,
          "name": "C6",
          "ticks": 57982,
          "time": 50.33154689062499,
          "velocity": 0.29133858267716534
        },
        {
          "duration": 0.08333325000000258,
          "durationTicks": 96,
          "midi": 82,
          "name": "A#5",
          "ticks": 57982,
          "time": 50.33154689062499,
          "velocity": 0.1732283464566929
        },
        {
          "duration": 0.04166662499999774,
          "durationTicks": 48,
          "midi": 52,
          "name": "E3",
          "ticks": 58174,
          "time": 50.498213390625,
          "velocity": 0.28346456692913385
        },
        {
          "duration": 0.04166662499999774,
          "durationTicks": 48,
          "midi": 62,
          "name": "D4",
          "ticks": 58174,
          "time": 50.498213390625,
          "velocity": 0.28346456692913385
        },
        {
          "duration": 0.04166662499999774,
          "durationTicks": 48,
          "midi": 59,
          "name": "B3",
          "ticks": 58174,
          "time": 50.498213390625,
          "velocity": 0.28346456692913385
        },
        {
          "duration": 0.04166662499999774,
          "durationTicks": 48,
          "midi": 56,
          "name": "G#3",
          "ticks": 58174,
          "time": 50.498213390625,
          "velocity": 0.28346456692913385
        },
        {
          "duration": 0.08333324999999547,
          "durationTicks": 96,
          "midi": 71,
          "name": "B4",
          "ticks": 58174,
          "time": 50.498213390625,
          "velocity": 0.31496062992125984
        },
        {
          "duration": 0.08333324999999547,
          "durationTicks": 96,
          "midi": 71,
          "name": "B4",
          "ticks": 58174,
          "time": 50.498213390625,
          "velocity": 0.29133858267716534
        },
        {
          "duration": 0.08333324999999547,
          "durationTicks": 96,
          "midi": 40,
          "name": "E2",
          "ticks": 58174,
          "time": 50.498213390625,
          "velocity": 0.2992125984251969
        },
        {
          "duration": 0.08333324999999547,
          "durationTicks": 96,
          "midi": 83,
          "name": "B5",
          "ticks": 58174,
          "time": 50.498213390625,
          "velocity": 0.29133858267716534
        },
        {
          "duration": 0.08333324999999547,
          "durationTicks": 96,
          "midi": 83,
          "name": "B5",
          "ticks": 58174,
          "time": 50.498213390625,
          "velocity": 0.1732283464566929
        },
        {
          "duration": 0.04166662500000484,
          "durationTicks": 48,
          "midi": 28,
          "name": "E1",
          "ticks": 58270,
          "time": 50.58154664062499,
          "velocity": 0.25196850393700787
        },
        {
          "duration": 0.16666649999999805,
          "durationTicks": 192,
          "midi": 57,
          "name": "A3",
          "ticks": 58366,
          "time": 50.664879890624995,
          "velocity": 0.28346456692913385
        },
        {
          "duration": 0.16666649999999805,
          "durationTicks": 192,
          "midi": 52,
          "name": "E3",
          "ticks": 58366,
          "time": 50.664879890624995,
          "velocity": 0.28346456692913385
        },
        {
          "duration": 0.3333330000000032,
          "durationTicks": 384,
          "midi": 69,
          "name": "A4",
          "ticks": 58366,
          "time": 50.664879890624995,
          "velocity": 0.31496062992125984
        },
        {
          "duration": 0.3333330000000032,
          "durationTicks": 384,
          "midi": 69,
          "name": "A4",
          "ticks": 58366,
          "time": 50.664879890624995,
          "velocity": 0.29133858267716534
        },
        {
          "duration": 0.08333325000000258,
          "durationTicks": 96,
          "midi": 45,
          "name": "A2",
          "ticks": 58366,
          "time": 50.664879890624995,
          "velocity": 0.2992125984251969
        },
        {
          "duration": 0.16666649999999805,
          "durationTicks": 192,
          "midi": 33,
          "name": "A1",
          "ticks": 58366,
          "time": 50.664879890624995,
          "velocity": 0.31496062992125984
        },
        {
          "duration": 0.3333330000000032,
          "durationTicks": 384,
          "midi": 81,
          "name": "A5",
          "ticks": 58366,
          "time": 50.664879890624995,
          "velocity": 0.29133858267716534
        },
        {
          "duration": 0.08333325000000258,
          "durationTicks": 96,
          "midi": 44,
          "name": "G#2",
          "ticks": 58414,
          "time": 50.70654651562499,
          "velocity": 0.2677165354330709
        },
        {
          "duration": 0.08333324999999547,
          "durationTicks": 96,
          "midi": 43,
          "name": "G2",
          "ticks": 58462,
          "time": 50.748213140625,
          "velocity": 0.2440944881889764
        },
        {
          "duration": 0.08333325000000258,
          "durationTicks": 96,
          "midi": 42,
          "name": "F#2",
          "ticks": 58510,
          "time": 50.789879765624995,
          "velocity": 0.2204724409448819
        },
        {
          "duration": 0.08333325000000258,
          "durationTicks": 96,
          "midi": 41,
          "name": "F2",
          "ticks": 58558,
          "time": 50.83154639062499,
          "velocity": 0.1968503937007874
        },
        {
          "duration": 0.08333324999999547,
          "durationTicks": 96,
          "midi": 40,
          "name": "E2",
          "ticks": 58606,
          "time": 50.873213015625,
          "velocity": 0.18110236220472442
        },
        {
          "duration": 0.08333325000000258,
          "durationTicks": 96,
          "midi": 39,
          "name": "D#2",
          "ticks": 58654,
          "time": 50.914879640624996,
          "velocity": 0.15748031496062992
        },
        {
          "duration": 0.08333325000000258,
          "durationTicks": 96,
          "midi": 38,
          "name": "D2",
          "ticks": 58702,
          "time": 50.95654626562499,
          "velocity": 0.13385826771653545
        },
        {
          "duration": 0.03472218750000167,
          "durationTicks": 40,
          "midi": 75,
          "name": "D#5",
          "ticks": 58750,
          "time": 50.998212890625,
          "velocity": 0.2992125984251969
        },
        {
          "duration": 0.08333324999999547,
          "durationTicks": 96,
          "midi": 81,
          "name": "A5",
          "ticks": 58750,
          "time": 50.998212890625,
          "velocity": 0.31496062992125984
        },
        {
          "duration": 0.08333324999999547,
          "durationTicks": 96,
          "midi": 37,
          "name": "C#2",
          "ticks": 58750,
          "time": 50.998212890625,
          "velocity": 0.11023622047244094
        },
        {
          "duration": 0.08333325000000258,
          "durationTicks": 96,
          "midi": 76,
          "name": "E5",
          "ticks": 58778,
          "time": 51.022518421875,
          "velocity": 0.2992125984251969
        },
        {
          "duration": 0.08333325000000258,
          "durationTicks": 96,
          "midi": 36,
          "name": "C2",
          "ticks": 58798,
          "time": 51.039879515624996,
          "velocity": 0.07874015748031496
        },
        {
          "duration": 0.08333325000000258,
          "durationTicks": 96,
          "midi": 35,
          "name": "B1",
          "ticks": 58846,
          "time": 51.081546140624994,
          "velocity": 0.06299212598425197
        },
        {
          "duration": 0.08333324999999547,
          "durationTicks": 96,
          "midi": 34,
          "name": "A#1",
          "ticks": 58894,
          "time": 51.123212765625,
          "velocity": 0.03937007874015748
        },
        {
          "duration": 0.08333324999999547,
          "durationTicks": 96,
          "midi": 72,
          "name": "C5",
          "ticks": 58942,
          "time": 51.164879390624996,
          "velocity": 0.2992125984251969
        },
        {
          "duration": 0.08333324999999547,
          "durationTicks": 96,
          "midi": 33,
          "name": "A1",
          "ticks": 58942,
          "time": 51.164879390624996,
          "velocity": 0.023622047244094488
        },
        {
          "duration": 0.16666649999999805,
          "durationTicks": 192,
          "midi": 45,
          "name": "A2",
          "ticks": 58942,
          "time": 51.164879390624996,
          "velocity": 0.29133858267716534
        },
        {
          "duration": 0.04166662499999774,
          "durationTicks": 48,
          "midi": 74,
          "name": "D5",
          "ticks": 59134,
          "time": 51.331545890624994,
          "velocity": 0.30708661417322836
        },
        {
          "duration": 0.08333325000000258,
          "durationTicks": 96,
          "midi": 81,
          "name": "A5",
          "ticks": 59134,
          "time": 51.331545890624994,
          "velocity": 0.30708661417322836
        },
        {
          "duration": 0.08333324999999547,
          "durationTicks": 96,
          "midi": 75,
          "name": "D#5",
          "ticks": 59174,
          "time": 51.366268078125,
          "velocity": 0.2992125984251969
        },
        {
          "duration": 0.08333325000000258,
          "durationTicks": 96,
          "midi": 72,
          "name": "C5",
          "ticks": 59326,
          "time": 51.49821239062499,
          "velocity": 0.30708661417322836
        },
        {
          "duration": 0.08333325000000258,
          "durationTicks": 96,
          "midi": 33,
          "name": "A1",
          "ticks": 59326,
          "time": 51.49821239062499,
          "velocity": 0.29133858267716534
        },
        {
          "duration": 0.04166662499999774,
          "durationTicks": 48,
          "midi": 67,
          "name": "G4",
          "ticks": 59518,
          "time": 51.664878890625,
          "velocity": 0.30708661417322836
        },
        {
          "duration": 0.08333324999999547,
          "durationTicks": 96,
          "midi": 45,
          "name": "A2",
          "ticks": 59518,
          "time": 51.664878890625,
          "velocity": 0.29133858267716534
        },
        {
          "duration": 0.04166662499999774,
          "durationTicks": 48,
          "midi": 68,
          "name": "G#4",
          "ticks": 59538,
          "time": 51.682239984375,
          "velocity": 0.2992125984251969
        },
        {
          "duration": 0.12499987500000032,
          "durationTicks": 144,
          "midi": 69,
          "name": "A4",
          "ticks": 59566,
          "time": 51.706545515624995,
          "velocity": 0.30708661417322836
        },
        {
          "duration": 0.08333325000000258,
          "durationTicks": 96,
          "midi": 72,
          "name": "C5",
          "ticks": 59710,
          "time": 51.831545390624996,
          "velocity": 0.2992125984251969
        },
        {
          "duration": 0.04166662499999774,
          "durationTicks": 48,
          "midi": 33,
          "name": "A1",
          "ticks": 59710,
          "time": 51.831545390624996,
          "velocity": 0.2440944881889764
        },
        {
          "duration": 0.08333324999999547,
          "durationTicks": 96,
          "midi": 45,
          "name": "A2",
          "ticks": 59806,
          "time": 51.914878640625,
          "velocity": 0.29133858267716534
        },
        {
          "duration": 0.03472218750000877,
          "durationTicks": 40,
          "midi": 75,
          "name": "D#5",
          "ticks": 59902,
          "time": 51.998211890624994,
          "velocity": 0.2992125984251969
        },
        {
          "duration": 0.08333325000000258,
          "durationTicks": 96,
          "midi": 81,
          "name": "A5",
          "ticks": 59902,
          "time": 51.998211890624994,
          "velocity": 0.2992125984251969
        },
        {
          "duration": 0.08333325000000258,
          "durationTicks": 96,
          "midi": 76,
          "name": "E5",
          "ticks": 59930,
          "time": 52.022517421875,
          "velocity": 0.30708661417322836
        },
        {
          "duration": 0.08333325000000258,
          "durationTicks": 96,
          "midi": 45,
          "name": "A2",
          "ticks": 59998,
          "time": 52.081545140624996,
          "velocity": 0.29133858267716534
        },
        {
          "duration": 0.08333324999999547,
          "durationTicks": 96,
          "midi": 72,
          "name": "C5",
          "ticks": 60094,
          "time": 52.164878390625,
          "velocity": 0.30708661417322836
        },
        {
          "duration": 0.04166662499999774,
          "durationTicks": 48,
          "midi": 33,
          "name": "A1",
          "ticks": 60094,
          "time": 52.164878390625,
          "velocity": 0.29133858267716534
        },
        {
          "duration": 0.04166662499999774,
          "durationTicks": 48,
          "midi": 74,
          "name": "D5",
          "ticks": 60286,
          "time": 52.331544890625,
          "velocity": 0.30708661417322836
        },
        {
          "duration": 0.08333324999999547,
          "durationTicks": 96,
          "midi": 81,
          "name": "A5",
          "ticks": 60286,
          "time": 52.331544890625,
          "velocity": 0.2992125984251969
        },
        {
          "duration": 0.04166662499999774,
          "durationTicks": 48,
          "midi": 33,
          "name": "A1",
          "ticks": 60286,
          "time": 52.331544890625,
          "velocity": 0.29133858267716534
        },
        {
          "duration": 0.08333324999999547,
          "durationTicks": 96,
          "midi": 75,
          "name": "D#5",
          "ticks": 60314,
          "time": 52.355850421875004,
          "velocity": 0.2992125984251969
        },
        {
          "duration": 0.12499987500000032,
          "durationTicks": 144,
          "midi": 72,
          "name": "C5",
          "ticks": 60478,
          "time": 52.498211390624995,
          "velocity": 0.2992125984251969
        },
        {
          "duration": 0.16666649999999805,
          "durationTicks": 192,
          "midi": 45,
          "name": "A2",
          "ticks": 60478,
          "time": 52.498211390624995,
          "velocity": 0.29133858267716534
        },
        {
          "duration": 0.04166662500000484,
          "durationTicks": 48,
          "midi": 45,
          "name": "A2",
          "ticks": 60670,
          "time": 52.66487789062499,
          "velocity": 0.25984251968503935
        },
        {
          "duration": 0.08333324999999547,
          "durationTicks": 96,
          "midi": 40,
          "name": "E2",
          "ticks": 60862,
          "time": 52.831544390625,
          "velocity": 0.2755905511811024
        },
        {
          "duration": 0.16666649999999805,
          "durationTicks": 192,
          "midi": 28,
          "name": "E1",
          "ticks": 60862,
          "time": 52.831544390625,
          "velocity": 0.29133858267716534
        },
        {
          "duration": 0.08333325000000258,
          "durationTicks": 96,
          "midi": 30,
          "name": "F#1",
          "ticks": 61054,
          "time": 52.998210890624996,
          "velocity": 0.2755905511811024
        },
        {
          "duration": 0.16666649999999805,
          "durationTicks": 192,
          "midi": 42,
          "name": "F#2",
          "ticks": 61054,
          "time": 52.998210890624996,
          "velocity": 0.29133858267716534
        },
        {
          "duration": 0.08333325000000258,
          "durationTicks": 96,
          "midi": 32,
          "name": "G#1",
          "ticks": 61246,
          "time": 53.164877390624994,
          "velocity": 0.2755905511811024
        },
        {
          "duration": 0.08333325000000258,
          "durationTicks": 96,
          "midi": 44,
          "name": "G#2",
          "ticks": 61246,
          "time": 53.164877390624994,
          "velocity": 0.2755905511811024
        },
        {
          "duration": 0.04166662500000484,
          "durationTicks": 48,
          "midi": 45,
          "name": "A2",
          "ticks": 61438,
          "time": 53.33154389062499,
          "velocity": 0.31496062992125984
        },
        {
          "duration": 0.16666650000000516,
          "durationTicks": 192,
          "midi": 57,
          "name": "A3",
          "ticks": 61438,
          "time": 53.33154389062499,
          "velocity": 0.30708661417322836
        },
        {
          "duration": 0.04166662500000484,
          "durationTicks": 48,
          "midi": 33,
          "name": "A1",
          "ticks": 61438,
          "time": 53.33154389062499,
          "velocity": 0.29133858267716534
        },
        {
          "duration": 0.16666650000000516,
          "durationTicks": 192,
          "midi": 81,
          "name": "A5",
          "ticks": 61438,
          "time": 53.33154389062499,
          "velocity": 0.2125984251968504
        },
        {
          "duration": 0.04166662499999774,
          "durationTicks": 48,
          "midi": 57,
          "name": "A3",
          "ticks": 61630,
          "time": 53.498210390625,
          "velocity": 0.2755905511811024
        },
        {
          "duration": 0.04166662499999774,
          "durationTicks": 48,
          "midi": 64,
          "name": "E4",
          "ticks": 61630,
          "time": 53.498210390625,
          "velocity": 0.2755905511811024
        },
        {
          "duration": 0.04166662499999774,
          "durationTicks": 48,
          "midi": 60,
          "name": "C4",
          "ticks": 61630,
          "time": 53.498210390625,
          "velocity": 0.2755905511811024
        },
        {
          "duration": 0.04166662499999774,
          "durationTicks": 48,
          "midi": 45,
          "name": "A2",
          "ticks": 61822,
          "time": 53.664876890624996,
          "velocity": 0.31496062992125984
        },
        {
          "duration": 0.16666649999999805,
          "durationTicks": 192,
          "midi": 60,
          "name": "C4",
          "ticks": 61822,
          "time": 53.664876890624996,
          "velocity": 0.30708661417322836
        },
        {
          "duration": 0.04166662499999774,
          "durationTicks": 48,
          "midi": 33,
          "name": "A1",
          "ticks": 61822,
          "time": 53.664876890624996,
          "velocity": 0.29133858267716534
        },
        {
          "duration": 0.16666649999999805,
          "durationTicks": 192,
          "midi": 84,
          "name": "C6",
          "ticks": 61822,
          "time": 53.664876890624996,
          "velocity": 0.2125984251968504
        },
        {
          "duration": 0.04166662500000484,
          "durationTicks": 48,
          "midi": 64,
          "name": "E4",
          "ticks": 62014,
          "time": 53.831543390624994,
          "velocity": 0.2755905511811024
        },
        {
          "duration": 0.04166662500000484,
          "durationTicks": 48,
          "midi": 60,
          "name": "C4",
          "ticks": 62014,
          "time": 53.831543390624994,
          "velocity": 0.2755905511811024
        },
        {
          "duration": 0.04166662500000484,
          "durationTicks": 48,
          "midi": 57,
          "name": "A3",
          "ticks": 62014,
          "time": 53.831543390624994,
          "velocity": 0.2755905511811024
        },
        {
          "duration": 0.04166662499999774,
          "durationTicks": 48,
          "midi": 45,
          "name": "A2",
          "ticks": 62206,
          "time": 53.998209890625,
          "velocity": 0.31496062992125984
        },
        {
          "duration": 0.24999974999999353,
          "durationTicks": 288,
          "midi": 63,
          "name": "D#4",
          "ticks": 62206,
          "time": 53.998209890625,
          "velocity": 0.30708661417322836
        },
        {
          "duration": 0.04166662499999774,
          "durationTicks": 48,
          "midi": 33,
          "name": "A1",
          "ticks": 62206,
          "time": 53.998209890625,
          "velocity": 0.29133858267716534
        },
        {
          "duration": 0.24999974999999353,
          "durationTicks": 288,
          "midi": 87,
          "name": "D#6",
          "ticks": 62206,
          "time": 53.998209890625,
          "velocity": 0.2125984251968504
        },
        {
          "duration": 0.04166662499999774,
          "durationTicks": 48,
          "midi": 60,
          "name": "C4",
          "ticks": 62398,
          "time": 54.164876390625,
          "velocity": 0.2755905511811024
        },
        {
          "duration": 0.04166662499999774,
          "durationTicks": 48,
          "midi": 64,
          "name": "E4",
          "ticks": 62398,
          "time": 54.164876390625,
          "velocity": 0.2755905511811024
        },
        {
          "duration": 0.04166662499999774,
          "durationTicks": 48,
          "midi": 57,
          "name": "A3",
          "ticks": 62398,
          "time": 54.164876390625,
          "velocity": 0.2755905511811024
        },
        {
          "duration": 0.08333325000000258,
          "durationTicks": 96,
          "midi": 64,
          "name": "E4",
          "ticks": 62494,
          "time": 54.24820964062499,
          "velocity": 0.30708661417322836
        },
        {
          "duration": 0.04166662500000484,
          "durationTicks": 48,
          "midi": 33,
          "name": "A1",
          "ticks": 62494,
          "time": 54.24820964062499,
          "velocity": 0.29133858267716534
        },
        {
          "duration": 0.08333325000000258,
          "durationTicks": 96,
          "midi": 88,
          "name": "E6",
          "ticks": 62494,
          "time": 54.24820964062499,
          "velocity": 0.2125984251968504
        },
        {
          "duration": 0.04166662499999774,
          "durationTicks": 48,
          "midi": 45,
          "name": "A2",
          "ticks": 62590,
          "time": 54.331542890624995,
          "velocity": 0.31496062992125984
        },
        {
          "duration": 0.04166662500000484,
          "durationTicks": 48,
          "midi": 64,
          "name": "E4",
          "ticks": 62782,
          "time": 54.49820939062499,
          "velocity": 0.2755905511811024
        },
        {
          "duration": 0.04166662500000484,
          "durationTicks": 48,
          "midi": 60,
          "name": "C4",
          "ticks": 62782,
          "time": 54.49820939062499,
          "velocity": 0.2755905511811024
        },
        {
          "duration": 0.04166662500000484,
          "durationTicks": 48,
          "midi": 57,
          "name": "A3",
          "ticks": 62782,
          "time": 54.49820939062499,
          "velocity": 0.2755905511811024
        },
        {
          "duration": 0.08333325000000258,
          "durationTicks": 96,
          "midi": 56,
          "name": "G#3",
          "ticks": 62782,
          "time": 54.49820939062499,
          "velocity": 0.30708661417322836
        },
        {
          "duration": 0.04166662500000484,
          "durationTicks": 48,
          "midi": 33,
          "name": "A1",
          "ticks": 62782,
          "time": 54.49820939062499,
          "velocity": 0.29133858267716534
        },
        {
          "duration": 0.08333325000000258,
          "durationTicks": 96,
          "midi": 80,
          "name": "G#5",
          "ticks": 62782,
          "time": 54.49820939062499,
          "velocity": 0.2125984251968504
        },
        {
          "duration": 0.04166662499999774,
          "durationTicks": 48,
          "midi": 48,
          "name": "C3",
          "ticks": 62974,
          "time": 54.664875890625,
          "velocity": 0.31496062992125984
        },
        {
          "duration": 0.08333324999999547,
          "durationTicks": 96,
          "midi": 57,
          "name": "A3",
          "ticks": 62974,
          "time": 54.664875890625,
          "velocity": 0.30708661417322836
        },
        {
          "duration": 0.04166662499999774,
          "durationTicks": 48,
          "midi": 36,
          "name": "C2",
          "ticks": 62974,
          "time": 54.664875890625,
          "velocity": 0.29133858267716534
        },
        {
          "duration": 0.08333324999999547,
          "durationTicks": 96,
          "midi": 81,
          "name": "A5",
          "ticks": 62974,
          "time": 54.664875890625,
          "velocity": 0.2125984251968504
        },
        {
          "duration": 0.04166662499999774,
          "durationTicks": 48,
          "midi": 64,
          "name": "E4",
          "ticks": 63166,
          "time": 54.831542390624996,
          "velocity": 0.2755905511811024
        },
        {
          "duration": 0.04166662499999774,
          "durationTicks": 48,
          "midi": 57,
          "name": "A3",
          "ticks": 63166,
          "time": 54.831542390624996,
          "velocity": 0.2755905511811024
        },
        {
          "duration": 0.04166662499999774,
          "durationTicks": 48,
          "midi": 55,
          "name": "G3",
          "ticks": 63166,
          "time": 54.831542390624996,
          "velocity": 0.2755905511811024
        },
        {
          "duration": 0.04166662499999774,
          "durationTicks": 48,
          "midi": 60,
          "name": "C4",
          "ticks": 63166,
          "time": 54.831542390624996,
          "velocity": 0.2755905511811024
        },
        {
          "duration": 0.08333325000000258,
          "durationTicks": 96,
          "midi": 60,
          "name": "C4",
          "ticks": 63166,
          "time": 54.831542390624996,
          "velocity": 0.30708661417322836
        },
        {
          "duration": 0.08333325000000258,
          "durationTicks": 96,
          "midi": 84,
          "name": "C6",
          "ticks": 63166,
          "time": 54.831542390624996,
          "velocity": 0.2125984251968504
        },
        {
          "duration": 0.04166662499999774,
          "durationTicks": 48,
          "midi": 48,
          "name": "C3",
          "ticks": 63358,
          "time": 54.998208890624994,
          "velocity": 0.31496062992125984
        },
        {
          "duration": 0.08333325000000258,
          "durationTicks": 96,
          "midi": 62,
          "name": "D4",
          "ticks": 63358,
          "time": 54.998208890624994,
          "velocity": 0.30708661417322836
        },
        {
          "duration": 0.04166662499999774,
          "durationTicks": 48,
          "midi": 36,
          "name": "C2",
          "ticks": 63358,
          "time": 54.998208890624994,
          "velocity": 0.29133858267716534
        },
        {
          "duration": 0.08333325000000258,
          "durationTicks": 96,
          "midi": 86,
          "name": "D6",
          "ticks": 63358,
          "time": 54.998208890624994,
          "velocity": 0.2125984251968504
        },
        {
          "duration": 0.04166662500000484,
          "durationTicks": 48,
          "midi": 60,
          "name": "C4",
          "ticks": 63550,
          "time": 55.16487539062499,
          "velocity": 0.2755905511811024
        },
        {
          "duration": 0.04166662500000484,
          "durationTicks": 48,
          "midi": 57,
          "name": "A3",
          "ticks": 63550,
          "time": 55.16487539062499,
          "velocity": 0.2755905511811024
        },
        {
          "duration": 0.04166662500000484,
          "durationTicks": 48,
          "midi": 64,
          "name": "E4",
          "ticks": 63550,
          "time": 55.16487539062499,
          "velocity": 0.2755905511811024
        },
        {
          "duration": 0.04166662500000484,
          "durationTicks": 48,
          "midi": 55,
          "name": "G3",
          "ticks": 63550,
          "time": 55.16487539062499,
          "velocity": 0.2755905511811024
        },
        {
          "duration": 0.08333325000000258,
          "durationTicks": 96,
          "midi": 60,
          "name": "C4",
          "ticks": 63550,
          "time": 55.16487539062499,
          "velocity": 0.30708661417322836
        },
        {
          "duration": 0.08333325000000258,
          "durationTicks": 96,
          "midi": 84,
          "name": "C6",
          "ticks": 63550,
          "time": 55.16487539062499,
          "velocity": 0.2125984251968504
        },
        {
          "duration": 0.04166662499999774,
          "durationTicks": 48,
          "midi": 48,
          "name": "C3",
          "ticks": 63742,
          "time": 55.331541890625,
          "velocity": 0.31496062992125984
        },
        {
          "duration": 0.08333324999999547,
          "durationTicks": 96,
          "midi": 63,
          "name": "D#4",
          "ticks": 63742,
          "time": 55.331541890625,
          "velocity": 0.30708661417322836
        },
        {
          "duration": 0.04166662499999774,
          "durationTicks": 48,
          "midi": 36,
          "name": "C2",
          "ticks": 63742,
          "time": 55.331541890625,
          "velocity": 0.29133858267716534
        },
        {
          "duration": 0.08333324999999547,
          "durationTicks": 96,
          "midi": 87,
          "name": "D#6",
          "ticks": 63742,
          "time": 55.331541890625,
          "velocity": 0.2125984251968504
        },
        {
          "duration": 0.04166662499999774,
          "durationTicks": 48,
          "midi": 60,
          "name": "C4",
          "ticks": 63934,
          "time": 55.498208390624995,
          "velocity": 0.2755905511811024
        },
        {
          "duration": 0.04166662499999774,
          "durationTicks": 48,
          "midi": 55,
          "name": "G3",
          "ticks": 63934,
          "time": 55.498208390624995,
          "velocity": 0.2755905511811024
        },
        {
          "duration": 0.04166662499999774,
          "durationTicks": 48,
          "midi": 57,
          "name": "A3",
          "ticks": 63934,
          "time": 55.498208390624995,
          "velocity": 0.2755905511811024
        },
        {
          "duration": 0.04166662499999774,
          "durationTicks": 48,
          "midi": 64,
          "name": "E4",
          "ticks": 63934,
          "time": 55.498208390624995,
          "velocity": 0.2755905511811024
        },
        {
          "duration": 0.08333325000000258,
          "durationTicks": 96,
          "midi": 63,
          "name": "D#4",
          "ticks": 63934,
          "time": 55.498208390624995,
          "velocity": 0.30708661417322836
        },
        {
          "duration": 0.08333325000000258,
          "durationTicks": 96,
          "midi": 87,
          "name": "D#6",
          "ticks": 63934,
          "time": 55.498208390624995,
          "velocity": 0.2125984251968504
        },
        {
          "duration": 0.16666649999999805,
          "durationTicks": 192,
          "midi": 64,
          "name": "E4",
          "ticks": 64030,
          "time": 55.581541640625,
          "velocity": 0.30708661417322836
        },
        {
          "duration": 0.04166662499999774,
          "durationTicks": 48,
          "midi": 36,
          "name": "C2",
          "ticks": 64030,
          "time": 55.581541640625,
          "velocity": 0.29133858267716534
        },
        {
          "duration": 0.16666649999999805,
          "durationTicks": 192,
          "midi": 88,
          "name": "E6",
          "ticks": 64030,
          "time": 55.581541640625,
          "velocity": 0.2125984251968504
        },
        {
          "duration": 0.3298607812500052,
          "durationTicks": 380,
          "midi": 64,
          "name": "E4",
          "ticks": 64126,
          "time": 55.66487489062499,
          "velocity": 0.30708661417322836
        },
        {
          "duration": 0.3298607812500052,
          "durationTicks": 380,
          "midi": 60,
          "name": "C4",
          "ticks": 64126,
          "time": 55.66487489062499,
          "velocity": 0.30708661417322836
        },
        {
          "duration": 0.3298607812500052,
          "durationTicks": 380,
          "midi": 48,
          "name": "C3",
          "ticks": 64126,
          "time": 55.66487489062499,
          "velocity": 0.30708661417322836
        },
        {
          "duration": 0.3298607812500052,
          "durationTicks": 380,
          "midi": 55,
          "name": "G3",
          "ticks": 64126,
          "time": 55.66487489062499,
          "velocity": 0.30708661417322836
        },
        {
          "duration": 0.3298607812500052,
          "durationTicks": 380,
          "midi": 57,
          "name": "A3",
          "ticks": 64126,
          "time": 55.66487489062499,
          "velocity": 0.30708661417322836
        },
        {
          "duration": 0.3333330000000032,
          "durationTicks": 384,
          "midi": 36,
          "name": "C2",
          "ticks": 64126,
          "time": 55.66487489062499,
          "velocity": 0.30708661417322836
        },
        {
          "duration": 0.04166662499999774,
          "durationTicks": 48,
          "midi": 41,
          "name": "F2",
          "ticks": 64510,
          "time": 55.998207890625,
          "velocity": 0.31496062992125984
        },
        {
          "duration": 0.08333324999999547,
          "durationTicks": 96,
          "midi": 67,
          "name": "G4",
          "ticks": 64510,
          "time": 55.998207890625,
          "velocity": 0.30708661417322836
        },
        {
          "duration": 0.04166662499999774,
          "durationTicks": 48,
          "midi": 29,
          "name": "F1",
          "ticks": 64510,
          "time": 55.998207890625,
          "velocity": 0.29133858267716534
        },
        {
          "duration": 0.08333324999999547,
          "durationTicks": 96,
          "midi": 91,
          "name": "G6",
          "ticks": 64510,
          "time": 55.998207890625,
          "velocity": 0.2125984251968504
        },
        {
          "duration": 0.04166662499999774,
          "durationTicks": 48,
          "midi": 60,
          "name": "C4",
          "ticks": 64702,
          "time": 56.164874390624995,
          "velocity": 0.2755905511811024
        },
        {
          "duration": 0.04166662499999774,
          "durationTicks": 48,
          "midi": 57,
          "name": "A3",
          "ticks": 64702,
          "time": 56.164874390624995,
          "velocity": 0.2755905511811024
        },
        {
          "duration": 0.04166662499999774,
          "durationTicks": 48,
          "midi": 53,
          "name": "F3",
          "ticks": 64702,
          "time": 56.164874390624995,
          "velocity": 0.2755905511811024
        },
        {
          "duration": 0.04166662499999774,
          "durationTicks": 48,
          "midi": 63,
          "name": "D#4",
          "ticks": 64702,
          "time": 56.164874390624995,
          "velocity": 0.2755905511811024
        },
        {
          "duration": 0.08333325000000258,
          "durationTicks": 96,
          "midi": 66,
          "name": "F#4",
          "ticks": 64702,
          "time": 56.164874390624995,
          "velocity": 0.30708661417322836
        },
        {
          "duration": 0.08333325000000258,
          "durationTicks": 96,
          "midi": 90,
          "name": "F#6",
          "ticks": 64702,
          "time": 56.164874390624995,
          "velocity": 0.2125984251968504
        },
        {
          "duration": 0.04166662500000484,
          "durationTicks": 48,
          "midi": 41,
          "name": "F2",
          "ticks": 64894,
          "time": 56.33154089062499,
          "velocity": 0.31496062992125984
        },
        {
          "duration": 0.08333325000000258,
          "durationTicks": 96,
          "midi": 65,
          "name": "F4",
          "ticks": 64894,
          "time": 56.33154089062499,
          "velocity": 0.30708661417322836
        },
        {
          "duration": 0.04166662500000484,
          "durationTicks": 48,
          "midi": 29,
          "name": "F1",
          "ticks": 64894,
          "time": 56.33154089062499,
          "velocity": 0.29133858267716534
        },
        {
          "duration": 0.08333325000000258,
          "durationTicks": 96,
          "midi": 89,
          "name": "F6",
          "ticks": 64894,
          "time": 56.33154089062499,
          "velocity": 0.2125984251968504
        },
        {
          "duration": 0.04166662499999774,
          "durationTicks": 48,
          "midi": 57,
          "name": "A3",
          "ticks": 65086,
          "time": 56.498207390625,
          "velocity": 0.2755905511811024
        },
        {
          "duration": 0.04166662499999774,
          "durationTicks": 48,
          "midi": 60,
          "name": "C4",
          "ticks": 65086,
          "time": 56.498207390625,
          "velocity": 0.2755905511811024
        },
        {
          "duration": 0.04166662499999774,
          "durationTicks": 48,
          "midi": 53,
          "name": "F3",
          "ticks": 65086,
          "time": 56.498207390625,
          "velocity": 0.2755905511811024
        },
        {
          "duration": 0.04166662499999774,
          "durationTicks": 48,
          "midi": 63,
          "name": "D#4",
          "ticks": 65086,
          "time": 56.498207390625,
          "velocity": 0.2755905511811024
        },
        {
          "duration": 0.08333324999999547,
          "durationTicks": 96,
          "midi": 63,
          "name": "D#4",
          "ticks": 65086,
          "time": 56.498207390625,
          "velocity": 0.30708661417322836
        },
        {
          "duration": 0.08333324999999547,
          "durationTicks": 96,
          "midi": 87,
          "name": "D#6",
          "ticks": 65086,
          "time": 56.498207390625,
          "velocity": 0.2125984251968504
        },
        {
          "duration": 0.04166662499999774,
          "durationTicks": 48,
          "midi": 41,
          "name": "F2",
          "ticks": 65278,
          "time": 56.664873890624996,
          "velocity": 0.31496062992125984
        },
        {
          "duration": 0.08333325000000258,
          "durationTicks": 96,
          "midi": 62,
          "name": "D4",
          "ticks": 65278,
          "time": 56.664873890624996,
          "velocity": 0.30708661417322836
        },
        {
          "duration": 0.04166662499999774,
          "durationTicks": 48,
          "midi": 29,
          "name": "F1",
          "ticks": 65278,
          "time": 56.664873890624996,
          "velocity": 0.29133858267716534
        },
        {
          "duration": 0.08333325000000258,
          "durationTicks": 96,
          "midi": 86,
          "name": "D6",
          "ticks": 65278,
          "time": 56.664873890624996,
          "velocity": 0.2125984251968504
        },
        {
          "duration": 0.04166662499999774,
          "durationTicks": 48,
          "midi": 63,
          "name": "D#4",
          "ticks": 65470,
          "time": 56.831540390624994,
          "velocity": 0.2755905511811024
        },
        {
          "duration": 0.04166662499999774,
          "durationTicks": 48,
          "midi": 53,
          "name": "F3",
          "ticks": 65470,
          "time": 56.831540390624994,
          "velocity": 0.2755905511811024
        },
        {
          "duration": 0.04166662499999774,
          "durationTicks": 48,
          "midi": 57,
          "name": "A3",
          "ticks": 65470,
          "time": 56.831540390624994,
          "velocity": 0.2755905511811024
        },
        {
          "duration": 0.04166662499999774,
          "durationTicks": 48,
          "midi": 60,
          "name": "C4",
          "ticks": 65470,
          "time": 56.831540390624994,
          "velocity": 0.2755905511811024
        },
        {
          "duration": 0.08333325000000258,
          "durationTicks": 96,
          "midi": 60,
          "name": "C4",
          "ticks": 65470,
          "time": 56.831540390624994,
          "velocity": 0.30708661417322836
        },
        {
          "duration": 0.08333325000000258,
          "durationTicks": 96,
          "midi": 84,
          "name": "C6",
          "ticks": 65470,
          "time": 56.831540390624994,
          "velocity": 0.2125984251968504
        },
        {
          "duration": 0.04166662499999774,
          "durationTicks": 48,
          "midi": 29,
          "name": "F1",
          "ticks": 65566,
          "time": 56.914873640625,
          "velocity": 0.29133858267716534
        },
        {
          "duration": 0.04166662500000484,
          "durationTicks": 48,
          "midi": 41,
          "name": "F2",
          "ticks": 65662,
          "time": 56.99820689062499,
          "velocity": 0.31496062992125984
        },
        {
          "duration": 0.08333325000000258,
          "durationTicks": 96,
          "midi": 59,
          "name": "B3",
          "ticks": 65662,
          "time": 56.99820689062499,
          "velocity": 0.30708661417322836
        },
        {
          "duration": 0.08333325000000258,
          "durationTicks": 96,
          "midi": 83,
          "name": "B5",
          "ticks": 65662,
          "time": 56.99820689062499,
          "velocity": 0.2125984251968504
        },
        {
          "duration": 0.04166662499999774,
          "durationTicks": 48,
          "midi": 57,
          "name": "A3",
          "ticks": 65854,
          "time": 57.164873390625,
          "velocity": 0.2755905511811024
        },
        {
          "duration": 0.04166662499999774,
          "durationTicks": 48,
          "midi": 60,
          "name": "C4",
          "ticks": 65854,
          "time": 57.164873390625,
          "velocity": 0.2755905511811024
        },
        {
          "duration": 0.04166662499999774,
          "durationTicks": 48,
          "midi": 53,
          "name": "F3",
          "ticks": 65854,
          "time": 57.164873390625,
          "velocity": 0.2755905511811024
        },
        {
          "duration": 0.04166662499999774,
          "durationTicks": 48,
          "midi": 63,
          "name": "D#4",
          "ticks": 65854,
          "time": 57.164873390625,
          "velocity": 0.2755905511811024
        },
        {
          "duration": 0.16666649999999805,
          "durationTicks": 192,
          "midi": 58,
          "name": "A#3",
          "ticks": 65854,
          "time": 57.164873390625,
          "velocity": 0.30708661417322836
        },
        {
          "duration": 0.04166662499999774,
          "durationTicks": 48,
          "midi": 29,
          "name": "F1",
          "ticks": 65854,
          "time": 57.164873390625,
          "velocity": 0.29133858267716534
        },
        {
          "duration": 0.16666649999999805,
          "durationTicks": 192,
          "midi": 82,
          "name": "A#5",
          "ticks": 65854,
          "time": 57.164873390625,
          "velocity": 0.2125984251968504
        },
        {
          "duration": 0.04166662499999774,
          "durationTicks": 48,
          "midi": 40,
          "name": "E2",
          "ticks": 66046,
          "time": 57.331539890624995,
          "velocity": 0.31496062992125984
        },
        {
          "duration": 0.08333325000000258,
          "durationTicks": 96,
          "midi": 59,
          "name": "B3",
          "ticks": 66046,
          "time": 57.331539890624995,
          "velocity": 0.30708661417322836
        },
        {
          "duration": 0.04166662499999774,
          "durationTicks": 48,
          "midi": 28,
          "name": "E1",
          "ticks": 66046,
          "time": 57.331539890624995,
          "velocity": 0.29133858267716534
        },
        {
          "duration": 0.08333325000000258,
          "durationTicks": 96,
          "midi": 83,
          "name": "B5",
          "ticks": 66046,
          "time": 57.331539890624995,
          "velocity": 0.2125984251968504
        },
        {
          "duration": 0.04166662500000484,
          "durationTicks": 48,
          "midi": 64,
          "name": "E4",
          "ticks": 66238,
          "time": 57.49820639062499,
          "velocity": 0.2755905511811024
        },
        {
          "duration": 0.04166662500000484,
          "durationTicks": 48,
          "midi": 59,
          "name": "B3",
          "ticks": 66238,
          "time": 57.49820639062499,
          "velocity": 0.2755905511811024
        },
        {
          "duration": 0.04166662500000484,
          "durationTicks": 48,
          "midi": 56,
          "name": "G#3",
          "ticks": 66238,
          "time": 57.49820639062499,
          "velocity": 0.2755905511811024
        },
        {
          "duration": 0.08333325000000258,
          "durationTicks": 96,
          "midi": 60,
          "name": "C4",
          "ticks": 66238,
          "time": 57.49820639062499,
          "velocity": 0.30708661417322836
        },
        {
          "duration": 0.08333325000000258,
          "durationTicks": 96,
          "midi": 84,
          "name": "C6",
          "ticks": 66238,
          "time": 57.49820639062499,
          "velocity": 0.2125984251968504
        },
        {
          "duration": 0.04166662499999774,
          "durationTicks": 48,
          "midi": 40,
          "name": "E2",
          "ticks": 66430,
          "time": 57.664872890625,
          "velocity": 0.31496062992125984
        },
        {
          "duration": 0.16666649999999805,
          "durationTicks": 192,
          "midi": 62,
          "name": "D4",
          "ticks": 66430,
          "time": 57.664872890625,
          "velocity": 0.30708661417322836
        },
        {
          "duration": 0.04166662499999774,
          "durationTicks": 48,
          "midi": 28,
          "name": "E1",
          "ticks": 66430,
          "time": 57.664872890625,
          "velocity": 0.29133858267716534
        },
        {
          "duration": 0.16666649999999805,
          "durationTicks": 192,
          "midi": 86,
          "name": "D6",
          "ticks": 66430,
          "time": 57.664872890625,
          "velocity": 0.2125984251968504
        },
        {
          "duration": 0.04166662499999774,
          "durationTicks": 48,
          "midi": 64,
          "name": "E4",
          "ticks": 66622,
          "time": 57.831539390625,
          "velocity": 0.2755905511811024
        },
        {
          "duration": 0.04166662499999774,
          "durationTicks": 48,
          "midi": 56,
          "name": "G#3",
          "ticks": 66622,
          "time": 57.831539390625,
          "velocity": 0.2755905511811024
        },
        {
          "duration": 0.04166662499999774,
          "durationTicks": 48,
          "midi": 59,
          "name": "B3",
          "ticks": 66622,
          "time": 57.831539390625,
          "velocity": 0.2755905511811024
        },
        {
          "duration": 0.08333324999999547,
          "durationTicks": 96,
          "midi": 63,
          "name": "D#4",
          "ticks": 66622,
          "time": 57.831539390625,
          "velocity": 0.30708661417322836
        },
        {
          "duration": 0.08333324999999547,
          "durationTicks": 96,
          "midi": 87,
          "name": "D#6",
          "ticks": 66622,
          "time": 57.831539390625,
          "velocity": 0.2125984251968504
        },
        {
          "duration": 0.04166662499999774,
          "durationTicks": 48,
          "midi": 40,
          "name": "E2",
          "ticks": 66814,
          "time": 57.998205890624995,
          "velocity": 0.31496062992125984
        },
        {
          "duration": 0.16666649999999805,
          "durationTicks": 192,
          "midi": 64,
          "name": "E4",
          "ticks": 66814,
          "time": 57.998205890624995,
          "velocity": 0.30708661417322836
        },
        {
          "duration": 0.04166662499999774,
          "durationTicks": 48,
          "midi": 28,
          "name": "E1",
          "ticks": 66814,
          "time": 57.998205890624995,
          "velocity": 0.29133858267716534
        },
        {
          "duration": 0.16666649999999805,
          "durationTicks": 192,
          "midi": 88,
          "name": "E6",
          "ticks": 66814,
          "time": 57.998205890624995,
          "velocity": 0.2125984251968504
        },
        {
          "duration": 0.04166662500000484,
          "durationTicks": 48,
          "midi": 64,
          "name": "E4",
          "ticks": 67006,
          "time": 58.16487239062499,
          "velocity": 0.2755905511811024
        },
        {
          "duration": 0.04166662500000484,
          "durationTicks": 48,
          "midi": 59,
          "name": "B3",
          "ticks": 67006,
          "time": 58.16487239062499,
          "velocity": 0.2755905511811024
        },
        {
          "duration": 0.04166662500000484,
          "durationTicks": 48,
          "midi": 56,
          "name": "G#3",
          "ticks": 67006,
          "time": 58.16487239062499,
          "velocity": 0.2755905511811024
        },
        {
          "duration": 0.04166662499999774,
          "durationTicks": 48,
          "midi": 28,
          "name": "E1",
          "ticks": 67102,
          "time": 58.248205640624995,
          "velocity": 0.29133858267716534
        },
        {
          "duration": 0.32986078124999807,
          "durationTicks": 380,
          "midi": 52,
          "name": "E3",
          "ticks": 67198,
          "time": 58.331538890625,
          "velocity": 0.30708661417322836
        },
        {
          "duration": 0.3333329999999961,
          "durationTicks": 384,
          "midi": 52,
          "name": "E3",
          "ticks": 67198,
          "time": 58.331538890625,
          "velocity": 0.30708661417322836
        },
        {
          "duration": 0.32986078124999807,
          "durationTicks": 380,
          "midi": 64,
          "name": "E4",
          "ticks": 67198,
          "time": 58.331538890625,
          "velocity": 0.30708661417322836
        },
        {
          "duration": 0.32986078124999807,
          "durationTicks": 380,
          "midi": 59,
          "name": "B3",
          "ticks": 67198,
          "time": 58.331538890625,
          "velocity": 0.30708661417322836
        },
        {
          "duration": 0.32986078124999807,
          "durationTicks": 380,
          "midi": 56,
          "name": "G#3",
          "ticks": 67198,
          "time": 58.331538890625,
          "velocity": 0.30708661417322836
        },
        {
          "duration": 0.3333329999999961,
          "durationTicks": 384,
          "midi": 28,
          "name": "E1",
          "ticks": 67198,
          "time": 58.331538890625,
          "velocity": 0.30708661417322836
        },
        {
          "duration": 0.3333329999999961,
          "durationTicks": 384,
          "midi": 40,
          "name": "E2",
          "ticks": 67198,
          "time": 58.331538890625,
          "velocity": 0.30708661417322836
        },
        {
          "duration": 0.04166662499999774,
          "durationTicks": 48,
          "midi": 45,
          "name": "A2",
          "ticks": 67582,
          "time": 58.664871890624994,
          "velocity": 0.31496062992125984
        },
        {
          "duration": 0.16666649999999805,
          "durationTicks": 192,
          "midi": 57,
          "name": "A3",
          "ticks": 67582,
          "time": 58.664871890624994,
          "velocity": 0.30708661417322836
        },
        {
          "duration": 0.04166662499999774,
          "durationTicks": 48,
          "midi": 33,
          "name": "A1",
          "ticks": 67582,
          "time": 58.664871890624994,
          "velocity": 0.29133858267716534
        },
        {
          "duration": 0.16666649999999805,
          "durationTicks": 192,
          "midi": 81,
          "name": "A5",
          "ticks": 67582,
          "time": 58.664871890624994,
          "velocity": 0.2125984251968504
        },
        {
          "duration": 0.04166662500000484,
          "durationTicks": 48,
          "midi": 57,
          "name": "A3",
          "ticks": 67774,
          "time": 58.83153839062499,
          "velocity": 0.2755905511811024
        },
        {
          "duration": 0.04166662500000484,
          "durationTicks": 48,
          "midi": 64,
          "name": "E4",
          "ticks": 67774,
          "time": 58.83153839062499,
          "velocity": 0.2755905511811024
        },
        {
          "duration": 0.04166662500000484,
          "durationTicks": 48,
          "midi": 60,
          "name": "C4",
          "ticks": 67774,
          "time": 58.83153839062499,
          "velocity": 0.2755905511811024
        },
        {
          "duration": 0.04166662499999774,
          "durationTicks": 48,
          "midi": 45,
          "name": "A2",
          "ticks": 67966,
          "time": 58.998204890625,
          "velocity": 0.31496062992125984
        },
        {
          "duration": 0.16666649999999805,
          "durationTicks": 192,
          "midi": 60,
          "name": "C4",
          "ticks": 67966,
          "time": 58.998204890625,
          "velocity": 0.30708661417322836
        },
        {
          "duration": 0.04166662499999774,
          "durationTicks": 48,
          "midi": 33,
          "name": "A1",
          "ticks": 67966,
          "time": 58.998204890625,
          "velocity": 0.29133858267716534
        },
        {
          "duration": 0.16666649999999805,
          "durationTicks": 192,
          "midi": 84,
          "name": "C6",
          "ticks": 67966,
          "time": 58.998204890625,
          "velocity": 0.2125984251968504
        },
        {
          "duration": 0.04166662499999774,
          "durationTicks": 48,
          "midi": 64,
          "name": "E4",
          "ticks": 68158,
          "time": 59.164871390624995,
          "velocity": 0.2755905511811024
        },
        {
          "duration": 0.04166662499999774,
          "durationTicks": 48,
          "midi": 60,
          "name": "C4",
          "ticks": 68158,
          "time": 59.164871390624995,
          "velocity": 0.2755905511811024
        },
        {
          "duration": 0.04166662499999774,
          "durationTicks": 48,
          "midi": 57,
          "name": "A3",
          "ticks": 68158,
          "time": 59.164871390624995,
          "velocity": 0.2755905511811024
        },
        {
          "duration": 0.04166662500000484,
          "durationTicks": 48,
          "midi": 45,
          "name": "A2",
          "ticks": 68350,
          "time": 59.33153789062499,
          "velocity": 0.31496062992125984
        },
        {
          "duration": 0.24999975000000063,
          "durationTicks": 288,
          "midi": 63,
          "name": "D#4",
          "ticks": 68350,
          "time": 59.33153789062499,
          "velocity": 0.30708661417322836
        },
        {
          "duration": 0.04166662500000484,
          "durationTicks": 48,
          "midi": 33,
          "name": "A1",
          "ticks": 68350,
          "time": 59.33153789062499,
          "velocity": 0.29133858267716534
        },
        {
          "duration": 0.24999975000000063,
          "durationTicks": 288,
          "midi": 87,
          "name": "D#6",
          "ticks": 68350,
          "time": 59.33153789062499,
          "velocity": 0.2125984251968504
        },
        {
          "duration": 0.04166662499999774,
          "durationTicks": 48,
          "midi": 60,
          "name": "C4",
          "ticks": 68542,
          "time": 59.498204390625,
          "velocity": 0.2755905511811024
        },
        {
          "duration": 0.04166662499999774,
          "durationTicks": 48,
          "midi": 64,
          "name": "E4",
          "ticks": 68542,
          "time": 59.498204390625,
          "velocity": 0.2755905511811024
        },
        {
          "duration": 0.04166662499999774,
          "durationTicks": 48,
          "midi": 57,
          "name": "A3",
          "ticks": 68542,
          "time": 59.498204390625,
          "velocity": 0.2755905511811024
        },
        {
          "duration": 0.08333325000000258,
          "durationTicks": 96,
          "midi": 64,
          "name": "E4",
          "ticks": 68638,
          "time": 59.581537640624994,
          "velocity": 0.30708661417322836
        },
        {
          "duration": 0.04166662499999774,
          "durationTicks": 48,
          "midi": 33,
          "name": "A1",
          "ticks": 68638,
          "time": 59.581537640624994,
          "velocity": 0.29133858267716534
        },
        {
          "duration": 0.08333325000000258,
          "durationTicks": 96,
          "midi": 88,
          "name": "E6",
          "ticks": 68638,
          "time": 59.581537640624994,
          "velocity": 0.2125984251968504
        },
        {
          "duration": 0.04166662499999774,
          "durationTicks": 48,
          "midi": 45,
          "name": "A2",
          "ticks": 68734,
          "time": 59.664870890625,
          "velocity": 0.31496062992125984
        },
        {
          "duration": 0.04166662499999774,
          "durationTicks": 48,
          "midi": 64,
          "name": "E4",
          "ticks": 68926,
          "time": 59.831537390624995,
          "velocity": 0.2755905511811024
        },
        {
          "duration": 0.04166662499999774,
          "durationTicks": 48,
          "midi": 60,
          "name": "C4",
          "ticks": 68926,
          "time": 59.831537390624995,
          "velocity": 0.2755905511811024
        },
        {
          "duration": 0.04166662499999774,
          "durationTicks": 48,
          "midi": 57,
          "name": "A3",
          "ticks": 68926,
          "time": 59.831537390624995,
          "velocity": 0.2755905511811024
        },
        {
          "duration": 0.08333325000000258,
          "durationTicks": 96,
          "midi": 56,
          "name": "G#3",
          "ticks": 68926,
          "time": 59.831537390624995,
          "velocity": 0.30708661417322836
        },
        {
          "duration": 0.04166662499999774,
          "durationTicks": 48,
          "midi": 33,
          "name": "A1",
          "ticks": 68926,
          "time": 59.831537390624995,
          "velocity": 0.29133858267716534
        },
        {
          "duration": 0.08333325000000258,
          "durationTicks": 96,
          "midi": 80,
          "name": "G#5",
          "ticks": 68926,
          "time": 59.831537390624995,
          "velocity": 0.2125984251968504
        },
        {
          "duration": 0.04166662500000484,
          "durationTicks": 48,
          "midi": 48,
          "name": "C3",
          "ticks": 69118,
          "time": 59.99820389062499,
          "velocity": 0.25984251968503935
        },
        {
          "duration": 0.08333325000000258,
          "durationTicks": 96,
          "midi": 57,
          "name": "A3",
          "ticks": 69118,
          "time": 59.99820389062499,
          "velocity": 0.30708661417322836
        },
        {
          "duration": 0.04166662500000484,
          "durationTicks": 48,
          "midi": 36,
          "name": "C2",
          "ticks": 69118,
          "time": 59.99820389062499,
          "velocity": 0.29133858267716534
        },
        {
          "duration": 0.08333325000000258,
          "durationTicks": 96,
          "midi": 81,
          "name": "A5",
          "ticks": 69118,
          "time": 59.99820389062499,
          "velocity": 0.2125984251968504
        },
        {
          "duration": 0.04166662499999774,
          "durationTicks": 48,
          "midi": 64,
          "name": "E4",
          "ticks": 69310,
          "time": 60.164870390625,
          "velocity": 0.2755905511811024
        },
        {
          "duration": 0.04166662499999774,
          "durationTicks": 48,
          "midi": 57,
          "name": "A3",
          "ticks": 69310,
          "time": 60.164870390625,
          "velocity": 0.2755905511811024
        },
        {
          "duration": 0.04166662499999774,
          "durationTicks": 48,
          "midi": 55,
          "name": "G3",
          "ticks": 69310,
          "time": 60.164870390625,
          "velocity": 0.2755905511811024
        },
        {
          "duration": 0.04166662499999774,
          "durationTicks": 48,
          "midi": 60,
          "name": "C4",
          "ticks": 69310,
          "time": 60.164870390625,
          "velocity": 0.2755905511811024
        },
        {
          "duration": 0.08333324999999547,
          "durationTicks": 96,
          "midi": 60,
          "name": "C4",
          "ticks": 69310,
          "time": 60.164870390625,
          "velocity": 0.30708661417322836
        },
        {
          "duration": 0.08333324999999547,
          "durationTicks": 96,
          "midi": 84,
          "name": "C6",
          "ticks": 69310,
          "time": 60.164870390625,
          "velocity": 0.2125984251968504
        },
        {
          "duration": 0.04166662499999774,
          "durationTicks": 48,
          "midi": 48,
          "name": "C3",
          "ticks": 69502,
          "time": 60.331536890624996,
          "velocity": 0.25984251968503935
        },
        {
          "duration": 0.08333325000000258,
          "durationTicks": 96,
          "midi": 62,
          "name": "D4",
          "ticks": 69502,
          "time": 60.331536890624996,
          "velocity": 0.30708661417322836
        },
        {
          "duration": 0.04166662499999774,
          "durationTicks": 48,
          "midi": 36,
          "name": "C2",
          "ticks": 69502,
          "time": 60.331536890624996,
          "velocity": 0.29133858267716534
        },
        {
          "duration": 0.08333325000000258,
          "durationTicks": 96,
          "midi": 86,
          "name": "D6",
          "ticks": 69502,
          "time": 60.331536890624996,
          "velocity": 0.2125984251968504
        },
        {
          "duration": 0.04166662499999774,
          "durationTicks": 48,
          "midi": 60,
          "name": "C4",
          "ticks": 69694,
          "time": 60.498203390624994,
          "velocity": 0.2755905511811024
        },
        {
          "duration": 0.04166662499999774,
          "durationTicks": 48,
          "midi": 57,
          "name": "A3",
          "ticks": 69694,
          "time": 60.498203390624994,
          "velocity": 0.2755905511811024
        },
        {
          "duration": 0.04166662499999774,
          "durationTicks": 48,
          "midi": 64,
          "name": "E4",
          "ticks": 69694,
          "time": 60.498203390624994,
          "velocity": 0.2755905511811024
        },
        {
          "duration": 0.04166662499999774,
          "durationTicks": 48,
          "midi": 55,
          "name": "G3",
          "ticks": 69694,
          "time": 60.498203390624994,
          "velocity": 0.2755905511811024
        },
        {
          "duration": 0.08333325000000258,
          "durationTicks": 96,
          "midi": 60,
          "name": "C4",
          "ticks": 69694,
          "time": 60.498203390624994,
          "velocity": 0.30708661417322836
        },
        {
          "duration": 0.08333325000000258,
          "durationTicks": 96,
          "midi": 84,
          "name": "C6",
          "ticks": 69694,
          "time": 60.498203390624994,
          "velocity": 0.2125984251968504
        },
        {
          "duration": 0.04166662500000484,
          "durationTicks": 48,
          "midi": 48,
          "name": "C3",
          "ticks": 69886,
          "time": 60.66486989062499,
          "velocity": 0.25984251968503935
        },
        {
          "duration": 0.08333325000000258,
          "durationTicks": 96,
          "midi": 63,
          "name": "D#4",
          "ticks": 69886,
          "time": 60.66486989062499,
          "velocity": 0.30708661417322836
        },
        {
          "duration": 0.04166662500000484,
          "durationTicks": 48,
          "midi": 36,
          "name": "C2",
          "ticks": 69886,
          "time": 60.66486989062499,
          "velocity": 0.29133858267716534
        },
        {
          "duration": 0.08333325000000258,
          "durationTicks": 96,
          "midi": 87,
          "name": "D#6",
          "ticks": 69886,
          "time": 60.66486989062499,
          "velocity": 0.2125984251968504
        },
        {
          "duration": 0.04166662499999774,
          "durationTicks": 48,
          "midi": 60,
          "name": "C4",
          "ticks": 70078,
          "time": 60.831536390625,
          "velocity": 0.2755905511811024
        },
        {
          "duration": 0.04166662499999774,
          "durationTicks": 48,
          "midi": 55,
          "name": "G3",
          "ticks": 70078,
          "time": 60.831536390625,
          "velocity": 0.2755905511811024
        },
        {
          "duration": 0.04166662499999774,
          "durationTicks": 48,
          "midi": 57,
          "name": "A3",
          "ticks": 70078,
          "time": 60.831536390625,
          "velocity": 0.2755905511811024
        },
        {
          "duration": 0.04166662499999774,
          "durationTicks": 48,
          "midi": 64,
          "name": "E4",
          "ticks": 70078,
          "time": 60.831536390625,
          "velocity": 0.2755905511811024
        },
        {
          "duration": 0.08333324999999547,
          "durationTicks": 96,
          "midi": 63,
          "name": "D#4",
          "ticks": 70078,
          "time": 60.831536390625,
          "velocity": 0.30708661417322836
        },
        {
          "duration": 0.08333324999999547,
          "durationTicks": 96,
          "midi": 87,
          "name": "D#6",
          "ticks": 70078,
          "time": 60.831536390625,
          "velocity": 0.2125984251968504
        },
        {
          "duration": 0.16666650000000516,
          "durationTicks": 192,
          "midi": 64,
          "name": "E4",
          "ticks": 70174,
          "time": 60.91486964062499,
          "velocity": 0.30708661417322836
        },
        {
          "duration": 0.04166662500000484,
          "durationTicks": 48,
          "midi": 36,
          "name": "C2",
          "ticks": 70174,
          "time": 60.91486964062499,
          "velocity": 0.29133858267716534
        },
        {
          "duration": 0.16666650000000516,
          "durationTicks": 192,
          "midi": 88,
          "name": "E6",
          "ticks": 70174,
          "time": 60.91486964062499,
          "velocity": 0.2125984251968504
        },
        {
          "duration": 0.3298607812500052,
          "durationTicks": 380,
          "midi": 64,
          "name": "E4",
          "ticks": 70270,
          "time": 60.998202890624995,
          "velocity": 0.30708661417322836
        },
        {
          "duration": 0.3298607812500052,
          "durationTicks": 380,
          "midi": 60,
          "name": "C4",
          "ticks": 70270,
          "time": 60.998202890624995,
          "velocity": 0.30708661417322836
        },
        {
          "duration": 0.3298607812500052,
          "durationTicks": 380,
          "midi": 48,
          "name": "C3",
          "ticks": 70270,
          "time": 60.998202890624995,
          "velocity": 0.30708661417322836
        },
        {
          "duration": 0.3298607812500052,
          "durationTicks": 380,
          "midi": 55,
          "name": "G3",
          "ticks": 70270,
          "time": 60.998202890624995,
          "velocity": 0.30708661417322836
        },
        {
          "duration": 0.3298607812500052,
          "durationTicks": 380,
          "midi": 57,
          "name": "A3",
          "ticks": 70270,
          "time": 60.998202890624995,
          "velocity": 0.30708661417322836
        },
        {
          "duration": 0.3333330000000032,
          "durationTicks": 384,
          "midi": 36,
          "name": "C2",
          "ticks": 70270,
          "time": 60.998202890624995,
          "velocity": 0.30708661417322836
        },
        {
          "duration": 0.04166662499999774,
          "durationTicks": 48,
          "midi": 41,
          "name": "F2",
          "ticks": 70654,
          "time": 61.331535890625,
          "velocity": 0.31496062992125984
        },
        {
          "duration": 0.08333324999999547,
          "durationTicks": 96,
          "midi": 67,
          "name": "G4",
          "ticks": 70654,
          "time": 61.331535890625,
          "velocity": 0.30708661417322836
        },
        {
          "duration": 0.04166662499999774,
          "durationTicks": 48,
          "midi": 29,
          "name": "F1",
          "ticks": 70654,
          "time": 61.331535890625,
          "velocity": 0.29133858267716534
        },
        {
          "duration": 0.08333324999999547,
          "durationTicks": 96,
          "midi": 91,
          "name": "G6",
          "ticks": 70654,
          "time": 61.331535890625,
          "velocity": 0.2125984251968504
        },
        {
          "duration": 0.04166662499999774,
          "durationTicks": 48,
          "midi": 63,
          "name": "D#4",
          "ticks": 70846,
          "time": 61.498202390624996,
          "velocity": 0.2755905511811024
        },
        {
          "duration": 0.04166662499999774,
          "durationTicks": 48,
          "midi": 53,
          "name": "F3",
          "ticks": 70846,
          "time": 61.498202390624996,
          "velocity": 0.2755905511811024
        },
        {
          "duration": 0.04166662499999774,
          "durationTicks": 48,
          "midi": 57,
          "name": "A3",
          "ticks": 70846,
          "time": 61.498202390624996,
          "velocity": 0.2755905511811024
        },
        {
          "duration": 0.04166662499999774,
          "durationTicks": 48,
          "midi": 60,
          "name": "C4",
          "ticks": 70846,
          "time": 61.498202390624996,
          "velocity": 0.2755905511811024
        },
        {
          "duration": 0.08333324999999547,
          "durationTicks": 96,
          "midi": 66,
          "name": "F#4",
          "ticks": 70846,
          "time": 61.498202390624996,
          "velocity": 0.30708661417322836
        },
        {
          "duration": 0.08333324999999547,
          "durationTicks": 96,
          "midi": 90,
          "name": "F#6",
          "ticks": 70846,
          "time": 61.498202390624996,
          "velocity": 0.2125984251968504
        },
        {
          "duration": 0.04166662499999774,
          "durationTicks": 48,
          "midi": 41,
          "name": "F2",
          "ticks": 71038,
          "time": 61.664868890624994,
          "velocity": 0.31496062992125984
        },
        {
          "duration": 0.08333325000000258,
          "durationTicks": 96,
          "midi": 65,
          "name": "F4",
          "ticks": 71038,
          "time": 61.664868890624994,
          "velocity": 0.30708661417322836
        },
        {
          "duration": 0.04166662499999774,
          "durationTicks": 48,
          "midi": 29,
          "name": "F1",
          "ticks": 71038,
          "time": 61.664868890624994,
          "velocity": 0.29133858267716534
        },
        {
          "duration": 0.08333325000000258,
          "durationTicks": 96,
          "midi": 89,
          "name": "F6",
          "ticks": 71038,
          "time": 61.664868890624994,
          "velocity": 0.2125984251968504
        },
        {
          "duration": 0.04166662500000484,
          "durationTicks": 48,
          "midi": 57,
          "name": "A3",
          "ticks": 71230,
          "time": 61.83153539062499,
          "velocity": 0.2755905511811024
        },
        {
          "duration": 0.04166662500000484,
          "durationTicks": 48,
          "midi": 60,
          "name": "C4",
          "ticks": 71230,
          "time": 61.83153539062499,
          "velocity": 0.2755905511811024
        },
        {
          "duration": 0.04166662500000484,
          "durationTicks": 48,
          "midi": 53,
          "name": "F3",
          "ticks": 71230,
          "time": 61.83153539062499,
          "velocity": 0.2755905511811024
        },
        {
          "duration": 0.04166662500000484,
          "durationTicks": 48,
          "midi": 63,
          "name": "D#4",
          "ticks": 71230,
          "time": 61.83153539062499,
          "velocity": 0.2755905511811024
        },
        {
          "duration": 0.08333325000000258,
          "durationTicks": 96,
          "midi": 63,
          "name": "D#4",
          "ticks": 71230,
          "time": 61.83153539062499,
          "velocity": 0.30708661417322836
        },
        {
          "duration": 0.08333325000000258,
          "durationTicks": 96,
          "midi": 87,
          "name": "D#6",
          "ticks": 71230,
          "time": 61.83153539062499,
          "velocity": 0.2125984251968504
        },
        {
          "duration": 0.04166662499999774,
          "durationTicks": 48,
          "midi": 41,
          "name": "F2",
          "ticks": 71422,
          "time": 61.998201890625,
          "velocity": 0.31496062992125984
        },
        {
          "duration": 0.08333324999999547,
          "durationTicks": 96,
          "midi": 64,
          "name": "E4",
          "ticks": 71422,
          "time": 61.998201890625,
          "velocity": 0.30708661417322836
        },
        {
          "duration": 0.04166662499999774,
          "durationTicks": 48,
          "midi": 29,
          "name": "F1",
          "ticks": 71422,
          "time": 61.998201890625,
          "velocity": 0.29133858267716534
        },
        {
          "duration": 0.08333324999999547,
          "durationTicks": 96,
          "midi": 88,
          "name": "E6",
          "ticks": 71422,
          "time": 61.998201890625,
          "velocity": 0.2125984251968504
        },
        {
          "duration": 0.04166662499999774,
          "durationTicks": 48,
          "midi": 63,
          "name": "D#4",
          "ticks": 71614,
          "time": 62.164868390624996,
          "velocity": 0.2755905511811024
        },
        {
          "duration": 0.04166662499999774,
          "durationTicks": 48,
          "midi": 53,
          "name": "F3",
          "ticks": 71614,
          "time": 62.164868390624996,
          "velocity": 0.2755905511811024
        },
        {
          "duration": 0.04166662499999774,
          "durationTicks": 48,
          "midi": 57,
          "name": "A3",
          "ticks": 71614,
          "time": 62.164868390624996,
          "velocity": 0.2755905511811024
        },
        {
          "duration": 0.04166662499999774,
          "durationTicks": 48,
          "midi": 60,
          "name": "C4",
          "ticks": 71614,
          "time": 62.164868390624996,
          "velocity": 0.2755905511811024
        },
        {
          "duration": 0.08333325000000258,
          "durationTicks": 96,
          "midi": 65,
          "name": "F4",
          "ticks": 71614,
          "time": 62.164868390624996,
          "velocity": 0.30708661417322836
        },
        {
          "duration": 0.08333325000000258,
          "durationTicks": 96,
          "midi": 89,
          "name": "F6",
          "ticks": 71614,
          "time": 62.164868390624996,
          "velocity": 0.2125984251968504
        },
        {
          "duration": 0.04166662499999774,
          "durationTicks": 48,
          "midi": 29,
          "name": "F1",
          "ticks": 71710,
          "time": 62.248201640625,
          "velocity": 0.29133858267716534
        },
        {
          "duration": 0.04166662500000484,
          "durationTicks": 48,
          "midi": 41,
          "name": "F2",
          "ticks": 71806,
          "time": 62.331534890624994,
          "velocity": 0.31496062992125984
        },
        {
          "duration": 0.08333325000000258,
          "durationTicks": 96,
          "midi": 66,
          "name": "F#4",
          "ticks": 71806,
          "time": 62.331534890624994,
          "velocity": 0.30708661417322836
        },
        {
          "duration": 0.08333325000000258,
          "durationTicks": 96,
          "midi": 90,
          "name": "F#6",
          "ticks": 71806,
          "time": 62.331534890624994,
          "velocity": 0.2125984251968504
        },
        {
          "duration": 0.04166662500000484,
          "durationTicks": 48,
          "midi": 57,
          "name": "A3",
          "ticks": 71998,
          "time": 62.49820139062499,
          "velocity": 0.2755905511811024
        },
        {
          "duration": 0.04166662500000484,
          "durationTicks": 48,
          "midi": 60,
          "name": "C4",
          "ticks": 71998,
          "time": 62.49820139062499,
          "velocity": 0.2755905511811024
        },
        {
          "duration": 0.04166662500000484,
          "durationTicks": 48,
          "midi": 53,
          "name": "F3",
          "ticks": 71998,
          "time": 62.49820139062499,
          "velocity": 0.2755905511811024
        },
        {
          "duration": 0.04166662500000484,
          "durationTicks": 48,
          "midi": 63,
          "name": "D#4",
          "ticks": 71998,
          "time": 62.49820139062499,
          "velocity": 0.2755905511811024
        },
        {
          "duration": 0.08333325000000258,
          "durationTicks": 96,
          "midi": 67,
          "name": "G4",
          "ticks": 71998,
          "time": 62.49820139062499,
          "velocity": 0.30708661417322836
        },
        {
          "duration": 0.04166662500000484,
          "durationTicks": 48,
          "midi": 29,
          "name": "F1",
          "ticks": 71998,
          "time": 62.49820139062499,
          "velocity": 0.29133858267716534
        },
        {
          "duration": 0.08333325000000258,
          "durationTicks": 96,
          "midi": 91,
          "name": "G6",
          "ticks": 71998,
          "time": 62.49820139062499,
          "velocity": 0.2125984251968504
        },
        {
          "duration": 0.04166662499999774,
          "durationTicks": 48,
          "midi": 40,
          "name": "E2",
          "ticks": 72190,
          "time": 62.664867890625,
          "velocity": 0.31496062992125984
        },
        {
          "duration": 0.08333324999999547,
          "durationTicks": 96,
          "midi": 68,
          "name": "G#4",
          "ticks": 72190,
          "time": 62.664867890625,
          "velocity": 0.30708661417322836
        },
        {
          "duration": 0.04166662499999774,
          "durationTicks": 48,
          "midi": 28,
          "name": "E1",
          "ticks": 72190,
          "time": 62.664867890625,
          "velocity": 0.29133858267716534
        },
        {
          "duration": 0.08333324999999547,
          "durationTicks": 96,
          "midi": 92,
          "name": "G#6",
          "ticks": 72190,
          "time": 62.664867890625,
          "velocity": 0.2125984251968504
        },
        {
          "duration": 0.04166662499999774,
          "durationTicks": 48,
          "midi": 56,
          "name": "G#3",
          "ticks": 72382,
          "time": 62.831534390624995,
          "velocity": 0.2755905511811024
        },
        {
          "duration": 0.04166662499999774,
          "durationTicks": 48,
          "midi": 59,
          "name": "B3",
          "ticks": 72382,
          "time": 62.831534390624995,
          "velocity": 0.2755905511811024
        },
        {
          "duration": 0.04166662499999774,
          "durationTicks": 48,
          "midi": 64,
          "name": "E4",
          "ticks": 72382,
          "time": 62.831534390624995,
          "velocity": 0.2755905511811024
        },
        {
          "duration": 0.08333325000000258,
          "durationTicks": 96,
          "midi": 68,
          "name": "G#4",
          "ticks": 72382,
          "time": 62.831534390624995,
          "velocity": 0.30708661417322836
        },
        {
          "duration": 0.08333325000000258,
          "durationTicks": 96,
          "midi": 92,
          "name": "G#6",
          "ticks": 72382,
          "time": 62.831534390624995,
          "velocity": 0.2125984251968504
        },
        {
          "duration": 0.04166662500000484,
          "durationTicks": 48,
          "midi": 40,
          "name": "E2",
          "ticks": 72574,
          "time": 62.99820089062499,
          "velocity": 0.31496062992125984
        },
        {
          "duration": 0.08333325000000258,
          "durationTicks": 96,
          "midi": 69,
          "name": "A4",
          "ticks": 72574,
          "time": 62.99820089062499,
          "velocity": 0.30708661417322836
        },
        {
          "duration": 0.04166662500000484,
          "durationTicks": 48,
          "midi": 28,
          "name": "E1",
          "ticks": 72574,
          "time": 62.99820089062499,
          "velocity": 0.29133858267716534
        },
        {
          "duration": 0.08333325000000258,
          "durationTicks": 96,
          "midi": 93,
          "name": "A6",
          "ticks": 72574,
          "time": 62.99820089062499,
          "velocity": 0.2125984251968504
        },
        {
          "duration": 0.04166662499999774,
          "durationTicks": 48,
          "midi": 56,
          "name": "G#3",
          "ticks": 72766,
          "time": 63.164867390625,
          "velocity": 0.2755905511811024
        },
        {
          "duration": 0.04166662499999774,
          "durationTicks": 48,
          "midi": 59,
          "name": "B3",
          "ticks": 72766,
          "time": 63.164867390625,
          "velocity": 0.2755905511811024
        },
        {
          "duration": 0.04166662499999774,
          "durationTicks": 48,
          "midi": 64,
          "name": "E4",
          "ticks": 72766,
          "time": 63.164867390625,
          "velocity": 0.2755905511811024
        },
        {
          "duration": 0.08333324999999547,
          "durationTicks": 96,
          "midi": 69,
          "name": "A4",
          "ticks": 72766,
          "time": 63.164867390625,
          "velocity": 0.30708661417322836
        },
        {
          "duration": 0.08333324999999547,
          "durationTicks": 96,
          "midi": 93,
          "name": "A6",
          "ticks": 72766,
          "time": 63.164867390625,
          "velocity": 0.2125984251968504
        },
        {
          "duration": 0.04166662499999774,
          "durationTicks": 48,
          "midi": 40,
          "name": "E2",
          "ticks": 72958,
          "time": 63.331533890624996,
          "velocity": 0.31496062992125984
        },
        {
          "duration": 0.3333329999999961,
          "durationTicks": 384,
          "midi": 71,
          "name": "B4",
          "ticks": 72958,
          "time": 63.331533890624996,
          "velocity": 0.30708661417322836
        },
        {
          "duration": 0.04166662499999774,
          "durationTicks": 48,
          "midi": 28,
          "name": "E1",
          "ticks": 72958,
          "time": 63.331533890624996,
          "velocity": 0.29133858267716534
        },
        {
          "duration": 0.3333329999999961,
          "durationTicks": 384,
          "midi": 95,
          "name": "B6",
          "ticks": 72958,
          "time": 63.331533890624996,
          "velocity": 0.2125984251968504
        },
        {
          "duration": 0.04166662499999774,
          "durationTicks": 48,
          "midi": 64,
          "name": "E4",
          "ticks": 73150,
          "time": 63.498200390624994,
          "velocity": 0.2755905511811024
        },
        {
          "duration": 0.04166662499999774,
          "durationTicks": 48,
          "midi": 59,
          "name": "B3",
          "ticks": 73150,
          "time": 63.498200390624994,
          "velocity": 0.2755905511811024
        },
        {
          "duration": 0.04166662499999774,
          "durationTicks": 48,
          "midi": 56,
          "name": "G#3",
          "ticks": 73150,
          "time": 63.498200390624994,
          "velocity": 0.2755905511811024
        },
        {
          "duration": 0.08333325000000258,
          "durationTicks": 96,
          "midi": 76,
          "name": "E5",
          "ticks": 73150,
          "time": 63.498200390624994,
          "velocity": 0.2992125984251969
        },
        {
          "duration": 0.08333325000000258,
          "durationTicks": 96,
          "midi": 64,
          "name": "E4",
          "ticks": 73150,
          "time": 63.498200390624994,
          "velocity": 0.2992125984251969
        },
        {
          "duration": 0.04166662499999774,
          "durationTicks": 48,
          "midi": 28,
          "name": "E1",
          "ticks": 73246,
          "time": 63.581533640625,
          "velocity": 0.29133858267716534
        },
        {
          "duration": 0.08333325000000258,
          "durationTicks": 96,
          "midi": 78,
          "name": "F#5",
          "ticks": 73342,
          "time": 63.66486689062499,
          "velocity": 0.2992125984251969
        },
        {
          "duration": 0.08333325000000258,
          "durationTicks": 96,
          "midi": 66,
          "name": "F#4",
          "ticks": 73342,
          "time": 63.66486689062499,
          "velocity": 0.2992125984251969
        },
        {
          "duration": 0.3298607812500052,
          "durationTicks": 380,
          "midi": 59,
          "name": "B3",
          "ticks": 73342,
          "time": 63.66486689062499,
          "velocity": 0.30708661417322836
        },
        {
          "duration": 0.3298607812500052,
          "durationTicks": 380,
          "midi": 56,
          "name": "G#3",
          "ticks": 73342,
          "time": 63.66486689062499,
          "velocity": 0.30708661417322836
        },
        {
          "duration": 0.3298607812500052,
          "durationTicks": 380,
          "midi": 52,
          "name": "E3",
          "ticks": 73342,
          "time": 63.66486689062499,
          "velocity": 0.30708661417322836
        },
        {
          "duration": 0.3298607812500052,
          "durationTicks": 380,
          "midi": 64,
          "name": "E4",
          "ticks": 73342,
          "time": 63.66486689062499,
          "velocity": 0.30708661417322836
        },
        {
          "duration": 0.3333330000000032,
          "durationTicks": 384,
          "midi": 28,
          "name": "E1",
          "ticks": 73342,
          "time": 63.66486689062499,
          "velocity": 0.30708661417322836
        },
        {
          "duration": 0.3333330000000032,
          "durationTicks": 384,
          "midi": 40,
          "name": "E2",
          "ticks": 73342,
          "time": 63.66486689062499,
          "velocity": 0.30708661417322836
        },
        {
          "duration": 0.08333324999999547,
          "durationTicks": 96,
          "midi": 80,
          "name": "G#5",
          "ticks": 73534,
          "time": 63.831533390625,
          "velocity": 0.2992125984251969
        },
        {
          "duration": 0.08333324999999547,
          "durationTicks": 96,
          "midi": 68,
          "name": "G#4",
          "ticks": 73534,
          "time": 63.831533390625,
          "velocity": 0.2992125984251969
        },
        {
          "duration": 0.16666649999999805,
          "durationTicks": 192,
          "midi": 69,
          "name": "A4",
          "ticks": 73726,
          "time": 63.998199890624996,
          "velocity": 0.30708661417322836
        },
        {
          "duration": 0.08333325000000258,
          "durationTicks": 96,
          "midi": 45,
          "name": "A2",
          "ticks": 73726,
          "time": 63.998199890624996,
          "velocity": 0.2992125984251969
        },
        {
          "duration": 0.16666649999999805,
          "durationTicks": 192,
          "midi": 33,
          "name": "A1",
          "ticks": 73726,
          "time": 63.998199890624996,
          "velocity": 0.3228346456692913
        },
        {
          "duration": 0.16666649999999805,
          "durationTicks": 192,
          "midi": 81,
          "name": "A5",
          "ticks": 73726,
          "time": 63.998199890624996,
          "velocity": 0.30708661417322836
        },
        {
          "duration": 0.04166662500000484,
          "durationTicks": 48,
          "midi": 60,
          "name": "C4",
          "ticks": 73918,
          "time": 64.164866390625,
          "velocity": 0.2755905511811024
        },
        {
          "duration": 0.04166662500000484,
          "durationTicks": 48,
          "midi": 64,
          "name": "E4",
          "ticks": 73918,
          "time": 64.164866390625,
          "velocity": 0.2755905511811024
        },
        {
          "duration": 0.04166662500000484,
          "durationTicks": 48,
          "midi": 57,
          "name": "A3",
          "ticks": 73918,
          "time": 64.164866390625,
          "velocity": 0.2755905511811024
        },
        {
          "duration": 0.16666649999999095,
          "durationTicks": 192,
          "midi": 72,
          "name": "C5",
          "ticks": 74110,
          "time": 64.331532890625,
          "velocity": 0.30708661417322836
        },
        {
          "duration": 0.08333324999999547,
          "durationTicks": 96,
          "midi": 45,
          "name": "A2",
          "ticks": 74110,
          "time": 64.331532890625,
          "velocity": 0.2992125984251969
        },
        {
          "duration": 0.16666649999999095,
          "durationTicks": 192,
          "midi": 33,
          "name": "A1",
          "ticks": 74110,
          "time": 64.331532890625,
          "velocity": 0.3228346456692913
        },
        {
          "duration": 0.16666649999999095,
          "durationTicks": 192,
          "midi": 84,
          "name": "C6",
          "ticks": 74110,
          "time": 64.331532890625,
          "velocity": 0.30708661417322836
        },
        {
          "duration": 0.04166662500000484,
          "durationTicks": 48,
          "midi": 64,
          "name": "E4",
          "ticks": 74302,
          "time": 64.49819939062499,
          "velocity": 0.2755905511811024
        },
        {
          "duration": 0.04166662500000484,
          "durationTicks": 48,
          "midi": 60,
          "name": "C4",
          "ticks": 74302,
          "time": 64.49819939062499,
          "velocity": 0.2755905511811024
        },
        {
          "duration": 0.04166662500000484,
          "durationTicks": 48,
          "midi": 57,
          "name": "A3",
          "ticks": 74302,
          "time": 64.49819939062499,
          "velocity": 0.2755905511811024
        },
        {
          "duration": 0.24999975000000063,
          "durationTicks": 288,
          "midi": 75,
          "name": "D#5",
          "ticks": 74494,
          "time": 64.664865890625,
          "velocity": 0.30708661417322836
        },
        {
          "duration": 0.08333324999999547,
          "durationTicks": 96,
          "midi": 45,
          "name": "A2",
          "ticks": 74494,
          "time": 64.664865890625,
          "velocity": 0.2992125984251969
        },
        {
          "duration": 0.16666650000000516,
          "durationTicks": 192,
          "midi": 33,
          "name": "A1",
          "ticks": 74494,
          "time": 64.664865890625,
          "velocity": 0.3228346456692913
        },
        {
          "duration": 0.24999975000000063,
          "durationTicks": 288,
          "midi": 87,
          "name": "D#6",
          "ticks": 74494,
          "time": 64.664865890625,
          "velocity": 0.30708661417322836
        },
        {
          "duration": 0.04166662499999063,
          "durationTicks": 48,
          "midi": 57,
          "name": "A3",
          "ticks": 74686,
          "time": 64.831532390625,
          "velocity": 0.2755905511811024
        },
        {
          "duration": 0.04166662499999063,
          "durationTicks": 48,
          "midi": 60,
          "name": "C4",
          "ticks": 74686,
          "time": 64.831532390625,
          "velocity": 0.2755905511811024
        },
        {
          "duration": 0.04166662499999063,
          "durationTicks": 48,
          "midi": 64,
          "name": "E4",
          "ticks": 74686,
          "time": 64.831532390625,
          "velocity": 0.2755905511811024
        },
        {
          "duration": 0.08333324999999547,
          "durationTicks": 96,
          "midi": 76,
          "name": "E5",
          "ticks": 74782,
          "time": 64.914865640625,
          "velocity": 0.30708661417322836
        },
        {
          "duration": 0.16666650000000516,
          "durationTicks": 192,
          "midi": 33,
          "name": "A1",
          "ticks": 74782,
          "time": 64.914865640625,
          "velocity": 0.3228346456692913
        },
        {
          "duration": 0.04166662500000484,
          "durationTicks": 48,
          "midi": 45,
          "name": "A2",
          "ticks": 74782,
          "time": 64.914865640625,
          "velocity": 0.29133858267716534
        },
        {
          "duration": 0.08333324999999547,
          "durationTicks": 96,
          "midi": 88,
          "name": "E6",
          "ticks": 74782,
          "time": 64.914865640625,
          "velocity": 0.30708661417322836
        },
        {
          "duration": 0.08333325000000968,
          "durationTicks": 96,
          "midi": 45,
          "name": "A2",
          "ticks": 74878,
          "time": 64.99819889062499,
          "velocity": 0.2992125984251969
        },
        {
          "duration": 0.04166662500000484,
          "durationTicks": 48,
          "midi": 64,
          "name": "E4",
          "ticks": 75070,
          "time": 65.164865390625,
          "velocity": 0.2755905511811024
        },
        {
          "duration": 0.04166662500000484,
          "durationTicks": 48,
          "midi": 60,
          "name": "C4",
          "ticks": 75070,
          "time": 65.164865390625,
          "velocity": 0.2755905511811024
        },
        {
          "duration": 0.04166662500000484,
          "durationTicks": 48,
          "midi": 57,
          "name": "A3",
          "ticks": 75070,
          "time": 65.164865390625,
          "velocity": 0.2755905511811024
        },
        {
          "duration": 0.08333324999999547,
          "durationTicks": 96,
          "midi": 68,
          "name": "G#4",
          "ticks": 75070,
          "time": 65.164865390625,
          "velocity": 0.30708661417322836
        },
        {
          "duration": 0.16666650000000516,
          "durationTicks": 192,
          "midi": 33,
          "name": "A1",
          "ticks": 75070,
          "time": 65.164865390625,
          "velocity": 0.3228346456692913
        },
        {
          "duration": 0.04166662500000484,
          "durationTicks": 48,
          "midi": 45,
          "name": "A2",
          "ticks": 75070,
          "time": 65.164865390625,
          "velocity": 0.29133858267716534
        },
        {
          "duration": 0.08333324999999547,
          "durationTicks": 96,
          "midi": 80,
          "name": "G#5",
          "ticks": 75070,
          "time": 65.164865390625,
          "velocity": 0.30708661417322836
        },
        {
          "duration": 0.08333324999999547,
          "durationTicks": 96,
          "midi": 69,
          "name": "A4",
          "ticks": 75262,
          "time": 65.331531890625,
          "velocity": 0.30708661417322836
        },
        {
          "duration": 0.08333324999999547,
          "durationTicks": 96,
          "midi": 48,
          "name": "C3",
          "ticks": 75262,
          "time": 65.331531890625,
          "velocity": 0.2992125984251969
        },
        {
          "duration": 0.16666649999999095,
          "durationTicks": 192,
          "midi": 36,
          "name": "C2",
          "ticks": 75262,
          "time": 65.331531890625,
          "velocity": 0.3228346456692913
        },
        {
          "duration": 0.08333324999999547,
          "durationTicks": 96,
          "midi": 81,
          "name": "A5",
          "ticks": 75262,
          "time": 65.331531890625,
          "velocity": 0.30708661417322836
        },
        {
          "duration": 0.04166662500000484,
          "durationTicks": 48,
          "midi": 60,
          "name": "C4",
          "ticks": 75454,
          "time": 65.49819839062499,
          "velocity": 0.2755905511811024
        },
        {
          "duration": 0.04166662500000484,
          "durationTicks": 48,
          "midi": 64,
          "name": "E4",
          "ticks": 75454,
          "time": 65.49819839062499,
          "velocity": 0.2755905511811024
        },
        {
          "duration": 0.04166662500000484,
          "durationTicks": 48,
          "midi": 57,
          "name": "A3",
          "ticks": 75454,
          "time": 65.49819839062499,
          "velocity": 0.2755905511811024
        },
        {
          "duration": 0.04166662500000484,
          "durationTicks": 48,
          "midi": 55,
          "name": "G3",
          "ticks": 75454,
          "time": 65.49819839062499,
          "velocity": 0.2755905511811024
        },
        {
          "duration": 0.08333325000000968,
          "durationTicks": 96,
          "midi": 72,
          "name": "C5",
          "ticks": 75454,
          "time": 65.49819839062499,
          "velocity": 0.30708661417322836
        },
        {
          "duration": 0.08333325000000968,
          "durationTicks": 96,
          "midi": 84,
          "name": "C6",
          "ticks": 75454,
          "time": 65.49819839062499,
          "velocity": 0.30708661417322836
        },
        {
          "duration": 0.08333324999999547,
          "durationTicks": 96,
          "midi": 74,
          "name": "D5",
          "ticks": 75646,
          "time": 65.664864890625,
          "velocity": 0.30708661417322836
        },
        {
          "duration": 0.08333324999999547,
          "durationTicks": 96,
          "midi": 48,
          "name": "C3",
          "ticks": 75646,
          "time": 65.664864890625,
          "velocity": 0.2992125984251969
        },
        {
          "duration": 0.16666649999999095,
          "durationTicks": 192,
          "midi": 36,
          "name": "C2",
          "ticks": 75646,
          "time": 65.664864890625,
          "velocity": 0.3228346456692913
        },
        {
          "duration": 0.08333324999999547,
          "durationTicks": 96,
          "midi": 86,
          "name": "D6",
          "ticks": 75646,
          "time": 65.664864890625,
          "velocity": 0.30708661417322836
        },
        {
          "duration": 0.04166662500000484,
          "durationTicks": 48,
          "midi": 55,
          "name": "G3",
          "ticks": 75838,
          "time": 65.83153139062499,
          "velocity": 0.2755905511811024
        },
        {
          "duration": 0.04166662500000484,
          "durationTicks": 48,
          "midi": 60,
          "name": "C4",
          "ticks": 75838,
          "time": 65.83153139062499,
          "velocity": 0.2755905511811024
        },
        {
          "duration": 0.04166662500000484,
          "durationTicks": 48,
          "midi": 57,
          "name": "A3",
          "ticks": 75838,
          "time": 65.83153139062499,
          "velocity": 0.2755905511811024
        },
        {
          "duration": 0.04166662500000484,
          "durationTicks": 48,
          "midi": 64,
          "name": "E4",
          "ticks": 75838,
          "time": 65.83153139062499,
          "velocity": 0.2755905511811024
        },
        {
          "duration": 0.08333325000000968,
          "durationTicks": 96,
          "midi": 72,
          "name": "C5",
          "ticks": 75838,
          "time": 65.83153139062499,
          "velocity": 0.30708661417322836
        },
        {
          "duration": 0.08333325000000968,
          "durationTicks": 96,
          "midi": 84,
          "name": "C6",
          "ticks": 75838,
          "time": 65.83153139062499,
          "velocity": 0.30708661417322836
        },
        {
          "duration": 0.08333324999999547,
          "durationTicks": 96,
          "midi": 75,
          "name": "D#5",
          "ticks": 76030,
          "time": 65.998197890625,
          "velocity": 0.30708661417322836
        },
        {
          "duration": 0.08333324999999547,
          "durationTicks": 96,
          "midi": 48,
          "name": "C3",
          "ticks": 76030,
          "time": 65.998197890625,
          "velocity": 0.2992125984251969
        },
        {
          "duration": 0.16666650000000516,
          "durationTicks": 192,
          "midi": 36,
          "name": "C2",
          "ticks": 76030,
          "time": 65.998197890625,
          "velocity": 0.3228346456692913
        },
        {
          "duration": 0.08333324999999547,
          "durationTicks": 96,
          "midi": 87,
          "name": "D#6",
          "ticks": 76030,
          "time": 65.998197890625,
          "velocity": 0.30708661417322836
        },
        {
          "duration": 0.04166662499999063,
          "durationTicks": 48,
          "midi": 64,
          "name": "E4",
          "ticks": 76222,
          "time": 66.164864390625,
          "velocity": 0.2755905511811024
        },
        {
          "duration": 0.04166662499999063,
          "durationTicks": 48,
          "midi": 60,
          "name": "C4",
          "ticks": 76222,
          "time": 66.164864390625,
          "velocity": 0.2755905511811024
        },
        {
          "duration": 0.04166662499999063,
          "durationTicks": 48,
          "midi": 55,
          "name": "G3",
          "ticks": 76222,
          "time": 66.164864390625,
          "velocity": 0.2755905511811024
        },
        {
          "duration": 0.04166662499999063,
          "durationTicks": 48,
          "midi": 57,
          "name": "A3",
          "ticks": 76222,
          "time": 66.164864390625,
          "velocity": 0.2755905511811024
        },
        {
          "duration": 0.08333324999999547,
          "durationTicks": 96,
          "midi": 75,
          "name": "D#5",
          "ticks": 76222,
          "time": 66.164864390625,
          "velocity": 0.30708661417322836
        },
        {
          "duration": 0.08333324999999547,
          "durationTicks": 96,
          "midi": 87,
          "name": "D#6",
          "ticks": 76222,
          "time": 66.164864390625,
          "velocity": 0.30708661417322836
        },
        {
          "duration": 0.16666650000000516,
          "durationTicks": 192,
          "midi": 76,
          "name": "E5",
          "ticks": 76318,
          "time": 66.248197640625,
          "velocity": 0.30708661417322836
        },
        {
          "duration": 0.16666650000000516,
          "durationTicks": 192,
          "midi": 36,
          "name": "C2",
          "ticks": 76318,
          "time": 66.248197640625,
          "velocity": 0.3228346456692913
        },
        {
          "duration": 0.04166662500000484,
          "durationTicks": 48,
          "midi": 48,
          "name": "C3",
          "ticks": 76318,
          "time": 66.248197640625,
          "velocity": 0.29133858267716534
        },
        {
          "duration": 0.16666650000000516,
          "durationTicks": 192,
          "midi": 88,
          "name": "E6",
          "ticks": 76318,
          "time": 66.248197640625,
          "velocity": 0.30708661417322836
        },
        {
          "duration": 0.08333325000000968,
          "durationTicks": 96,
          "midi": 48,
          "name": "C3",
          "ticks": 76414,
          "time": 66.33153089062499,
          "velocity": 0.2992125984251969
        },
        {
          "duration": 0.3298607812500052,
          "durationTicks": 380,
          "midi": 57,
          "name": "A3",
          "ticks": 76414,
          "time": 66.33153089062499,
          "velocity": 0.30708661417322836
        },
        {
          "duration": 0.3298607812500052,
          "durationTicks": 380,
          "midi": 64,
          "name": "E4",
          "ticks": 76414,
          "time": 66.33153089062499,
          "velocity": 0.30708661417322836
        },
        {
          "duration": 0.3298607812500052,
          "durationTicks": 380,
          "midi": 60,
          "name": "C4",
          "ticks": 76414,
          "time": 66.33153089062499,
          "velocity": 0.30708661417322836
        },
        {
          "duration": 0.20833312500001,
          "durationTicks": 240,
          "midi": 48,
          "name": "C3",
          "ticks": 76414,
          "time": 66.33153089062499,
          "velocity": 0.30708661417322836
        },
        {
          "duration": 0.3298607812500052,
          "durationTicks": 380,
          "midi": 55,
          "name": "G3",
          "ticks": 76414,
          "time": 66.33153089062499,
          "velocity": 0.30708661417322836
        },
        {
          "duration": 0.3333330000000103,
          "durationTicks": 384,
          "midi": 36,
          "name": "C2",
          "ticks": 76414,
          "time": 66.33153089062499,
          "velocity": 0.30708661417322836
        },
        {
          "duration": 0.16666650000000516,
          "durationTicks": 192,
          "midi": 36,
          "name": "C2",
          "ticks": 76606,
          "time": 66.498197390625,
          "velocity": 0.3228346456692913
        },
        {
          "duration": 0.16319428125000002,
          "durationTicks": 188,
          "midi": 48,
          "name": "C3",
          "ticks": 76606,
          "time": 66.498197390625,
          "velocity": 0.29133858267716534
        },
        {
          "duration": 0.08333324999999547,
          "durationTicks": 96,
          "midi": 79,
          "name": "G5",
          "ticks": 76798,
          "time": 66.664863890625,
          "velocity": 0.30708661417322836
        },
        {
          "duration": 0.08333324999999547,
          "durationTicks": 96,
          "midi": 41,
          "name": "F2",
          "ticks": 76798,
          "time": 66.664863890625,
          "velocity": 0.2992125984251969
        },
        {
          "duration": 0.16666649999999095,
          "durationTicks": 192,
          "midi": 29,
          "name": "F1",
          "ticks": 76798,
          "time": 66.664863890625,
          "velocity": 0.3228346456692913
        },
        {
          "duration": 0.08333324999999547,
          "durationTicks": 96,
          "midi": 91,
          "name": "G6",
          "ticks": 76798,
          "time": 66.664863890625,
          "velocity": 0.30708661417322836
        },
        {
          "duration": 0.04166662500000484,
          "durationTicks": 48,
          "midi": 60,
          "name": "C4",
          "ticks": 76990,
          "time": 66.83153039062499,
          "velocity": 0.2755905511811024
        },
        {
          "duration": 0.04166662500000484,
          "durationTicks": 48,
          "midi": 63,
          "name": "D#4",
          "ticks": 76990,
          "time": 66.83153039062499,
          "velocity": 0.2755905511811024
        },
        {
          "duration": 0.04166662500000484,
          "durationTicks": 48,
          "midi": 53,
          "name": "F3",
          "ticks": 76990,
          "time": 66.83153039062499,
          "velocity": 0.2755905511811024
        },
        {
          "duration": 0.04166662500000484,
          "durationTicks": 48,
          "midi": 57,
          "name": "A3",
          "ticks": 76990,
          "time": 66.83153039062499,
          "velocity": 0.2755905511811024
        },
        {
          "duration": 0.08333325000000968,
          "durationTicks": 96,
          "midi": 78,
          "name": "F#5",
          "ticks": 76990,
          "time": 66.83153039062499,
          "velocity": 0.30708661417322836
        },
        {
          "duration": 0.08333325000000968,
          "durationTicks": 96,
          "midi": 90,
          "name": "F#6",
          "ticks": 76990,
          "time": 66.83153039062499,
          "velocity": 0.30708661417322836
        },
        {
          "duration": 0.08333324999999547,
          "durationTicks": 96,
          "midi": 77,
          "name": "F5",
          "ticks": 77182,
          "time": 66.998196890625,
          "velocity": 0.30708661417322836
        },
        {
          "duration": 0.08333324999999547,
          "durationTicks": 96,
          "midi": 41,
          "name": "F2",
          "ticks": 77182,
          "time": 66.998196890625,
          "velocity": 0.2992125984251969
        },
        {
          "duration": 0.16666650000000516,
          "durationTicks": 192,
          "midi": 29,
          "name": "F1",
          "ticks": 77182,
          "time": 66.998196890625,
          "velocity": 0.3228346456692913
        },
        {
          "duration": 0.08333324999999547,
          "durationTicks": 96,
          "midi": 89,
          "name": "F6",
          "ticks": 77182,
          "time": 66.998196890625,
          "velocity": 0.30708661417322836
        },
        {
          "duration": 0.04166662499999063,
          "durationTicks": 48,
          "midi": 57,
          "name": "A3",
          "ticks": 77374,
          "time": 67.164863390625,
          "velocity": 0.2755905511811024
        },
        {
          "duration": 0.04166662499999063,
          "durationTicks": 48,
          "midi": 63,
          "name": "D#4",
          "ticks": 77374,
          "time": 67.164863390625,
          "velocity": 0.2755905511811024
        },
        {
          "duration": 0.04166662499999063,
          "durationTicks": 48,
          "midi": 53,
          "name": "F3",
          "ticks": 77374,
          "time": 67.164863390625,
          "velocity": 0.2755905511811024
        },
        {
          "duration": 0.04166662499999063,
          "durationTicks": 48,
          "midi": 60,
          "name": "C4",
          "ticks": 77374,
          "time": 67.164863390625,
          "velocity": 0.2755905511811024
        },
        {
          "duration": 0.08333324999999547,
          "durationTicks": 96,
          "midi": 75,
          "name": "D#5",
          "ticks": 77374,
          "time": 67.164863390625,
          "velocity": 0.30708661417322836
        },
        {
          "duration": 0.08333324999999547,
          "durationTicks": 96,
          "midi": 87,
          "name": "D#6",
          "ticks": 77374,
          "time": 67.164863390625,
          "velocity": 0.30708661417322836
        },
        {
          "duration": 0.08333325000000968,
          "durationTicks": 96,
          "midi": 74,
          "name": "D5",
          "ticks": 77566,
          "time": 67.33152989062499,
          "velocity": 0.30708661417322836
        },
        {
          "duration": 0.08333325000000968,
          "durationTicks": 96,
          "midi": 41,
          "name": "F2",
          "ticks": 77566,
          "time": 67.33152989062499,
          "velocity": 0.2992125984251969
        },
        {
          "duration": 0.16666650000000516,
          "durationTicks": 192,
          "midi": 29,
          "name": "F1",
          "ticks": 77566,
          "time": 67.33152989062499,
          "velocity": 0.3228346456692913
        },
        {
          "duration": 0.08333325000000968,
          "durationTicks": 96,
          "midi": 86,
          "name": "D6",
          "ticks": 77566,
          "time": 67.33152989062499,
          "velocity": 0.30708661417322836
        },
        {
          "duration": 0.04166662499999063,
          "durationTicks": 48,
          "midi": 63,
          "name": "D#4",
          "ticks": 77758,
          "time": 67.498196390625,
          "velocity": 0.2755905511811024
        },
        {
          "duration": 0.04166662499999063,
          "durationTicks": 48,
          "midi": 60,
          "name": "C4",
          "ticks": 77758,
          "time": 67.498196390625,
          "velocity": 0.2755905511811024
        },
        {
          "duration": 0.04166662499999063,
          "durationTicks": 48,
          "midi": 57,
          "name": "A3",
          "ticks": 77758,
          "time": 67.498196390625,
          "velocity": 0.2755905511811024
        },
        {
          "duration": 0.04166662499999063,
          "durationTicks": 48,
          "midi": 53,
          "name": "F3",
          "ticks": 77758,
          "time": 67.498196390625,
          "velocity": 0.2755905511811024
        },
        {
          "duration": 0.08333324999999547,
          "durationTicks": 96,
          "midi": 72,
          "name": "C5",
          "ticks": 77758,
          "time": 67.498196390625,
          "velocity": 0.30708661417322836
        },
        {
          "duration": 0.08333324999999547,
          "durationTicks": 96,
          "midi": 84,
          "name": "C6",
          "ticks": 77758,
          "time": 67.498196390625,
          "velocity": 0.30708661417322836
        },
        {
          "duration": 0.16666650000000516,
          "durationTicks": 192,
          "midi": 29,
          "name": "F1",
          "ticks": 77854,
          "time": 67.58152964062499,
          "velocity": 0.3228346456692913
        },
        {
          "duration": 0.04166662500000484,
          "durationTicks": 48,
          "midi": 41,
          "name": "F2",
          "ticks": 77854,
          "time": 67.58152964062499,
          "velocity": 0.29133858267716534
        },
        {
          "duration": 0.08333325000000968,
          "durationTicks": 96,
          "midi": 71,
          "name": "B4",
          "ticks": 77950,
          "time": 67.66486289062499,
          "velocity": 0.30708661417322836
        },
        {
          "duration": 0.08333325000000968,
          "durationTicks": 96,
          "midi": 41,
          "name": "F2",
          "ticks": 77950,
          "time": 67.66486289062499,
          "velocity": 0.2992125984251969
        },
        {
          "duration": 0.08333325000000968,
          "durationTicks": 96,
          "midi": 83,
          "name": "B5",
          "ticks": 77950,
          "time": 67.66486289062499,
          "velocity": 0.30708661417322836
        },
        {
          "duration": 0.04166662500000484,
          "durationTicks": 48,
          "midi": 63,
          "name": "D#4",
          "ticks": 78142,
          "time": 67.831529390625,
          "velocity": 0.2755905511811024
        },
        {
          "duration": 0.04166662500000484,
          "durationTicks": 48,
          "midi": 53,
          "name": "F3",
          "ticks": 78142,
          "time": 67.831529390625,
          "velocity": 0.2755905511811024
        },
        {
          "duration": 0.04166662500000484,
          "durationTicks": 48,
          "midi": 60,
          "name": "C4",
          "ticks": 78142,
          "time": 67.831529390625,
          "velocity": 0.2755905511811024
        },
        {
          "duration": 0.04166662500000484,
          "durationTicks": 48,
          "midi": 57,
          "name": "A3",
          "ticks": 78142,
          "time": 67.831529390625,
          "velocity": 0.2755905511811024
        },
        {
          "duration": 0.16666650000000516,
          "durationTicks": 192,
          "midi": 70,
          "name": "A#4",
          "ticks": 78142,
          "time": 67.831529390625,
          "velocity": 0.30708661417322836
        },
        {
          "duration": 0.16666650000000516,
          "durationTicks": 192,
          "midi": 29,
          "name": "F1",
          "ticks": 78142,
          "time": 67.831529390625,
          "velocity": 0.3228346456692913
        },
        {
          "duration": 0.04166662500000484,
          "durationTicks": 48,
          "midi": 41,
          "name": "F2",
          "ticks": 78142,
          "time": 67.831529390625,
          "velocity": 0.29133858267716534
        },
        {
          "duration": 0.16666650000000516,
          "durationTicks": 192,
          "midi": 82,
          "name": "A#5",
          "ticks": 78142,
          "time": 67.831529390625,
          "velocity": 0.30708661417322836
        },
        {
          "duration": 0.08333324999999547,
          "durationTicks": 96,
          "midi": 71,
          "name": "B4",
          "ticks": 78334,
          "time": 67.998195890625,
          "velocity": 0.30708661417322836
        },
        {
          "duration": 0.08333324999999547,
          "durationTicks": 96,
          "midi": 40,
          "name": "E2",
          "ticks": 78334,
          "time": 67.998195890625,
          "velocity": 0.2992125984251969
        },
        {
          "duration": 0.16666649999999095,
          "durationTicks": 192,
          "midi": 28,
          "name": "E1",
          "ticks": 78334,
          "time": 67.998195890625,
          "velocity": 0.3228346456692913
        },
        {
          "duration": 0.08333324999999547,
          "durationTicks": 96,
          "midi": 83,
          "name": "B5",
          "ticks": 78334,
          "time": 67.998195890625,
          "velocity": 0.30708661417322836
        },
        {
          "duration": 0.04166662500000484,
          "durationTicks": 48,
          "midi": 64,
          "name": "E4",
          "ticks": 78526,
          "time": 68.16486239062499,
          "velocity": 0.2755905511811024
        },
        {
          "duration": 0.04166662500000484,
          "durationTicks": 48,
          "midi": 56,
          "name": "G#3",
          "ticks": 78526,
          "time": 68.16486239062499,
          "velocity": 0.2755905511811024
        },
        {
          "duration": 0.04166662500000484,
          "durationTicks": 48,
          "midi": 59,
          "name": "B3",
          "ticks": 78526,
          "time": 68.16486239062499,
          "velocity": 0.2755905511811024
        },
        {
          "duration": 0.08333325000000968,
          "durationTicks": 96,
          "midi": 72,
          "name": "C5",
          "ticks": 78526,
          "time": 68.16486239062499,
          "velocity": 0.30708661417322836
        },
        {
          "duration": 0.08333325000000968,
          "durationTicks": 96,
          "midi": 84,
          "name": "C6",
          "ticks": 78526,
          "time": 68.16486239062499,
          "velocity": 0.30708661417322836
        },
        {
          "duration": 0.16666650000000516,
          "durationTicks": 192,
          "midi": 74,
          "name": "D5",
          "ticks": 78718,
          "time": 68.331528890625,
          "velocity": 0.30708661417322836
        },
        {
          "duration": 0.08333324999999547,
          "durationTicks": 96,
          "midi": 40,
          "name": "E2",
          "ticks": 78718,
          "time": 68.331528890625,
          "velocity": 0.2992125984251969
        },
        {
          "duration": 0.16666650000000516,
          "durationTicks": 192,
          "midi": 28,
          "name": "E1",
          "ticks": 78718,
          "time": 68.331528890625,
          "velocity": 0.3228346456692913
        },
        {
          "duration": 0.16666650000000516,
          "durationTicks": 192,
          "midi": 86,
          "name": "D6",
          "ticks": 78718,
          "time": 68.331528890625,
          "velocity": 0.30708661417322836
        },
        {
          "duration": 0.04166662499999063,
          "durationTicks": 48,
          "midi": 56,
          "name": "G#3",
          "ticks": 78910,
          "time": 68.498195390625,
          "velocity": 0.2755905511811024
        },
        {
          "duration": 0.04166662499999063,
          "durationTicks": 48,
          "midi": 59,
          "name": "B3",
          "ticks": 78910,
          "time": 68.498195390625,
          "velocity": 0.2755905511811024
        },
        {
          "duration": 0.04166662499999063,
          "durationTicks": 48,
          "midi": 64,
          "name": "E4",
          "ticks": 78910,
          "time": 68.498195390625,
          "velocity": 0.2755905511811024
        },
        {
          "duration": 0.08333324999999547,
          "durationTicks": 96,
          "midi": 75,
          "name": "D#5",
          "ticks": 78910,
          "time": 68.498195390625,
          "velocity": 0.30708661417322836
        },
        {
          "duration": 0.08333324999999547,
          "durationTicks": 96,
          "midi": 87,
          "name": "D#6",
          "ticks": 78910,
          "time": 68.498195390625,
          "velocity": 0.30708661417322836
        },
        {
          "duration": 0.16666650000000516,
          "durationTicks": 192,
          "midi": 76,
          "name": "E5",
          "ticks": 79102,
          "time": 68.66486189062499,
          "velocity": 0.30708661417322836
        },
        {
          "duration": 0.08333325000000968,
          "durationTicks": 96,
          "midi": 40,
          "name": "E2",
          "ticks": 79102,
          "time": 68.66486189062499,
          "velocity": 0.2992125984251969
        },
        {
          "duration": 0.16666650000000516,
          "durationTicks": 192,
          "midi": 28,
          "name": "E1",
          "ticks": 79102,
          "time": 68.66486189062499,
          "velocity": 0.3228346456692913
        },
        {
          "duration": 0.16666650000000516,
          "durationTicks": 192,
          "midi": 88,
          "name": "E6",
          "ticks": 79102,
          "time": 68.66486189062499,
          "velocity": 0.30708661417322836
        },
        {
          "duration": 0.04166662500000484,
          "durationTicks": 48,
          "midi": 56,
          "name": "G#3",
          "ticks": 79294,
          "time": 68.831528390625,
          "velocity": 0.2755905511811024
        },
        {
          "duration": 0.04166662500000484,
          "durationTicks": 48,
          "midi": 59,
          "name": "B3",
          "ticks": 79294,
          "time": 68.831528390625,
          "velocity": 0.2755905511811024
        },
        {
          "duration": 0.04166662500000484,
          "durationTicks": 48,
          "midi": 64,
          "name": "E4",
          "ticks": 79294,
          "time": 68.831528390625,
          "velocity": 0.2755905511811024
        },
        {
          "duration": 0.16666650000000516,
          "durationTicks": 192,
          "midi": 28,
          "name": "E1",
          "ticks": 79390,
          "time": 68.91486164062499,
          "velocity": 0.3228346456692913
        },
        {
          "duration": 0.04166662500000484,
          "durationTicks": 48,
          "midi": 40,
          "name": "E2",
          "ticks": 79390,
          "time": 68.91486164062499,
          "velocity": 0.29133858267716534
        },
        {
          "duration": 0.08333324999999547,
          "durationTicks": 96,
          "midi": 40,
          "name": "E2",
          "ticks": 79486,
          "time": 68.998194890625,
          "velocity": 0.2992125984251969
        },
        {
          "duration": 0.32986078124999096,
          "durationTicks": 380,
          "midi": 52,
          "name": "E3",
          "ticks": 79486,
          "time": 68.998194890625,
          "velocity": 0.30708661417322836
        },
        {
          "duration": 0.32986078124999096,
          "durationTicks": 380,
          "midi": 64,
          "name": "E4",
          "ticks": 79486,
          "time": 68.998194890625,
          "velocity": 0.30708661417322836
        },
        {
          "duration": 0.32986078124999096,
          "durationTicks": 380,
          "midi": 59,
          "name": "B3",
          "ticks": 79486,
          "time": 68.998194890625,
          "velocity": 0.30708661417322836
        },
        {
          "duration": 0.32986078124999096,
          "durationTicks": 380,
          "midi": 56,
          "name": "G#3",
          "ticks": 79486,
          "time": 68.998194890625,
          "velocity": 0.30708661417322836
        },
        {
          "duration": 0.2083331249999958,
          "durationTicks": 240,
          "midi": 40,
          "name": "E2",
          "ticks": 79486,
          "time": 68.998194890625,
          "velocity": 0.30708661417322836
        },
        {
          "duration": 0.3333329999999961,
          "durationTicks": 384,
          "midi": 28,
          "name": "E1",
          "ticks": 79486,
          "time": 68.998194890625,
          "velocity": 0.30708661417322836
        },
        {
          "duration": 0.16666650000000516,
          "durationTicks": 192,
          "midi": 28,
          "name": "E1",
          "ticks": 79678,
          "time": 69.16486139062499,
          "velocity": 0.3228346456692913
        },
        {
          "duration": 0.16666650000000516,
          "durationTicks": 192,
          "midi": 40,
          "name": "E2",
          "ticks": 79678,
          "time": 69.16486139062499,
          "velocity": 0.29133858267716534
        },
        {
          "duration": 0.16666649999999095,
          "durationTicks": 192,
          "midi": 69,
          "name": "A4",
          "ticks": 79870,
          "time": 69.331527890625,
          "velocity": 0.30708661417322836
        },
        {
          "duration": 0.08333324999999547,
          "durationTicks": 96,
          "midi": 45,
          "name": "A2",
          "ticks": 79870,
          "time": 69.331527890625,
          "velocity": 0.2992125984251969
        },
        {
          "duration": 0.16666649999999095,
          "durationTicks": 192,
          "midi": 33,
          "name": "A1",
          "ticks": 79870,
          "time": 69.331527890625,
          "velocity": 0.3228346456692913
        },
        {
          "duration": 0.16666649999999095,
          "durationTicks": 192,
          "midi": 81,
          "name": "A5",
          "ticks": 79870,
          "time": 69.331527890625,
          "velocity": 0.30708661417322836
        },
        {
          "duration": 0.04166662500000484,
          "durationTicks": 48,
          "midi": 57,
          "name": "A3",
          "ticks": 80062,
          "time": 69.49819439062499,
          "velocity": 0.2755905511811024
        },
        {
          "duration": 0.04166662500000484,
          "durationTicks": 48,
          "midi": 64,
          "name": "E4",
          "ticks": 80062,
          "time": 69.49819439062499,
          "velocity": 0.2755905511811024
        },
        {
          "duration": 0.04166662500000484,
          "durationTicks": 48,
          "midi": 60,
          "name": "C4",
          "ticks": 80062,
          "time": 69.49819439062499,
          "velocity": 0.2755905511811024
        },
        {
          "duration": 0.16666650000000516,
          "durationTicks": 192,
          "midi": 72,
          "name": "C5",
          "ticks": 80254,
          "time": 69.664860890625,
          "velocity": 0.30708661417322836
        },
        {
          "duration": 0.08333324999999547,
          "durationTicks": 96,
          "midi": 45,
          "name": "A2",
          "ticks": 80254,
          "time": 69.664860890625,
          "velocity": 0.2992125984251969
        },
        {
          "duration": 0.16666650000000516,
          "durationTicks": 192,
          "midi": 33,
          "name": "A1",
          "ticks": 80254,
          "time": 69.664860890625,
          "velocity": 0.3228346456692913
        },
        {
          "duration": 0.16666650000000516,
          "durationTicks": 192,
          "midi": 84,
          "name": "C6",
          "ticks": 80254,
          "time": 69.664860890625,
          "velocity": 0.30708661417322836
        },
        {
          "duration": 0.04166662499999063,
          "durationTicks": 48,
          "midi": 64,
          "name": "E4",
          "ticks": 80446,
          "time": 69.831527390625,
          "velocity": 0.2755905511811024
        },
        {
          "duration": 0.04166662499999063,
          "durationTicks": 48,
          "midi": 60,
          "name": "C4",
          "ticks": 80446,
          "time": 69.831527390625,
          "velocity": 0.2755905511811024
        },
        {
          "duration": 0.04166662499999063,
          "durationTicks": 48,
          "midi": 57,
          "name": "A3",
          "ticks": 80446,
          "time": 69.831527390625,
          "velocity": 0.2755905511811024
        },
        {
          "duration": 0.24999975000000063,
          "durationTicks": 288,
          "midi": 75,
          "name": "D#5",
          "ticks": 80638,
          "time": 69.99819389062499,
          "velocity": 0.30708661417322836
        },
        {
          "duration": 0.08333325000000968,
          "durationTicks": 96,
          "midi": 45,
          "name": "A2",
          "ticks": 80638,
          "time": 69.99819389062499,
          "velocity": 0.2992125984251969
        },
        {
          "duration": 0.16666650000000516,
          "durationTicks": 192,
          "midi": 33,
          "name": "A1",
          "ticks": 80638,
          "time": 69.99819389062499,
          "velocity": 0.3228346456692913
        },
        {
          "duration": 0.24999975000000063,
          "durationTicks": 288,
          "midi": 87,
          "name": "D#6",
          "ticks": 80638,
          "time": 69.99819389062499,
          "velocity": 0.30708661417322836
        },
        {
          "duration": 0.04166662500000484,
          "durationTicks": 48,
          "midi": 57,
          "name": "A3",
          "ticks": 80830,
          "time": 70.164860390625,
          "velocity": 0.2755905511811024
        },
        {
          "duration": 0.04166662500000484,
          "durationTicks": 48,
          "midi": 60,
          "name": "C4",
          "ticks": 80830,
          "time": 70.164860390625,
          "velocity": 0.2755905511811024
        },
        {
          "duration": 0.04166662500000484,
          "durationTicks": 48,
          "midi": 64,
          "name": "E4",
          "ticks": 80830,
          "time": 70.164860390625,
          "velocity": 0.2755905511811024
        },
        {
          "duration": 0.08333325000000968,
          "durationTicks": 96,
          "midi": 76,
          "name": "E5",
          "ticks": 80926,
          "time": 70.24819364062499,
          "velocity": 0.30708661417322836
        },
        {
          "duration": 0.16666650000000516,
          "durationTicks": 192,
          "midi": 33,
          "name": "A1",
          "ticks": 80926,
          "time": 70.24819364062499,
          "velocity": 0.3228346456692913
        },
        {
          "duration": 0.04166662500000484,
          "durationTicks": 48,
          "midi": 45,
          "name": "A2",
          "ticks": 80926,
          "time": 70.24819364062499,
          "velocity": 0.29133858267716534
        },
        {
          "duration": 0.08333325000000968,
          "durationTicks": 96,
          "midi": 88,
          "name": "E6",
          "ticks": 80926,
          "time": 70.24819364062499,
          "velocity": 0.30708661417322836
        },
        {
          "duration": 0.08333324999999547,
          "durationTicks": 96,
          "midi": 45,
          "name": "A2",
          "ticks": 81022,
          "time": 70.331526890625,
          "velocity": 0.2992125984251969
        },
        {
          "duration": 0.04166662500000484,
          "durationTicks": 48,
          "midi": 64,
          "name": "E4",
          "ticks": 81214,
          "time": 70.49819339062499,
          "velocity": 0.2755905511811024
        },
        {
          "duration": 0.04166662500000484,
          "durationTicks": 48,
          "midi": 60,
          "name": "C4",
          "ticks": 81214,
          "time": 70.49819339062499,
          "velocity": 0.2755905511811024
        },
        {
          "duration": 0.04166662500000484,
          "durationTicks": 48,
          "midi": 57,
          "name": "A3",
          "ticks": 81214,
          "time": 70.49819339062499,
          "velocity": 0.2755905511811024
        },
        {
          "duration": 0.08333325000000968,
          "durationTicks": 96,
          "midi": 68,
          "name": "G#4",
          "ticks": 81214,
          "time": 70.49819339062499,
          "velocity": 0.30708661417322836
        },
        {
          "duration": 0.16666650000000516,
          "durationTicks": 192,
          "midi": 33,
          "name": "A1",
          "ticks": 81214,
          "time": 70.49819339062499,
          "velocity": 0.3228346456692913
        },
        {
          "duration": 0.04166662500000484,
          "durationTicks": 48,
          "midi": 45,
          "name": "A2",
          "ticks": 81214,
          "time": 70.49819339062499,
          "velocity": 0.29133858267716534
        },
        {
          "duration": 0.08333325000000968,
          "durationTicks": 96,
          "midi": 80,
          "name": "G#5",
          "ticks": 81214,
          "time": 70.49819339062499,
          "velocity": 0.30708661417322836
        },
        {
          "duration": 0.08333324999999547,
          "durationTicks": 96,
          "midi": 69,
          "name": "A4",
          "ticks": 81406,
          "time": 70.664859890625,
          "velocity": 0.30708661417322836
        },
        {
          "duration": 0.08333324999999547,
          "durationTicks": 96,
          "midi": 48,
          "name": "C3",
          "ticks": 81406,
          "time": 70.664859890625,
          "velocity": 0.2992125984251969
        },
        {
          "duration": 0.16666650000000516,
          "durationTicks": 192,
          "midi": 36,
          "name": "C2",
          "ticks": 81406,
          "time": 70.664859890625,
          "velocity": 0.3228346456692913
        },
        {
          "duration": 0.08333324999999547,
          "durationTicks": 96,
          "midi": 81,
          "name": "A5",
          "ticks": 81406,
          "time": 70.664859890625,
          "velocity": 0.30708661417322836
        },
        {
          "duration": 0.04166662499999063,
          "durationTicks": 48,
          "midi": 60,
          "name": "C4",
          "ticks": 81598,
          "time": 70.831526390625,
          "velocity": 0.2755905511811024
        },
        {
          "duration": 0.04166662499999063,
          "durationTicks": 48,
          "midi": 64,
          "name": "E4",
          "ticks": 81598,
          "time": 70.831526390625,
          "velocity": 0.2755905511811024
        },
        {
          "duration": 0.04166662499999063,
          "durationTicks": 48,
          "midi": 57,
          "name": "A3",
          "ticks": 81598,
          "time": 70.831526390625,
          "velocity": 0.2755905511811024
        },
        {
          "duration": 0.04166662499999063,
          "durationTicks": 48,
          "midi": 55,
          "name": "G3",
          "ticks": 81598,
          "time": 70.831526390625,
          "velocity": 0.2755905511811024
        },
        {
          "duration": 0.08333324999999547,
          "durationTicks": 96,
          "midi": 72,
          "name": "C5",
          "ticks": 81598,
          "time": 70.831526390625,
          "velocity": 0.30708661417322836
        },
        {
          "duration": 0.08333324999999547,
          "durationTicks": 96,
          "midi": 84,
          "name": "C6",
          "ticks": 81598,
          "time": 70.831526390625,
          "velocity": 0.30708661417322836
        },
        {
          "duration": 0.08333325000000968,
          "durationTicks": 96,
          "midi": 74,
          "name": "D5",
          "ticks": 81790,
          "time": 70.99819289062499,
          "velocity": 0.30708661417322836
        },
        {
          "duration": 0.08333325000000968,
          "durationTicks": 96,
          "midi": 48,
          "name": "C3",
          "ticks": 81790,
          "time": 70.99819289062499,
          "velocity": 0.2992125984251969
        },
        {
          "duration": 0.16666650000000516,
          "durationTicks": 192,
          "midi": 36,
          "name": "C2",
          "ticks": 81790,
          "time": 70.99819289062499,
          "velocity": 0.3228346456692913
        },
        {
          "duration": 0.08333325000000968,
          "durationTicks": 96,
          "midi": 86,
          "name": "D6",
          "ticks": 81790,
          "time": 70.99819289062499,
          "velocity": 0.30708661417322836
        },
        {
          "duration": 0.04166662499999063,
          "durationTicks": 48,
          "midi": 55,
          "name": "G3",
          "ticks": 81982,
          "time": 71.164859390625,
          "velocity": 0.2755905511811024
        },
        {
          "duration": 0.04166662499999063,
          "durationTicks": 48,
          "midi": 60,
          "name": "C4",
          "ticks": 81982,
          "time": 71.164859390625,
          "velocity": 0.2755905511811024
        },
        {
          "duration": 0.04166662499999063,
          "durationTicks": 48,
          "midi": 57,
          "name": "A3",
          "ticks": 81982,
          "time": 71.164859390625,
          "velocity": 0.2755905511811024
        },
        {
          "duration": 0.04166662499999063,
          "durationTicks": 48,
          "midi": 64,
          "name": "E4",
          "ticks": 81982,
          "time": 71.164859390625,
          "velocity": 0.2755905511811024
        },
        {
          "duration": 0.08333324999999547,
          "durationTicks": 96,
          "midi": 72,
          "name": "C5",
          "ticks": 81982,
          "time": 71.164859390625,
          "velocity": 0.30708661417322836
        },
        {
          "duration": 0.08333324999999547,
          "durationTicks": 96,
          "midi": 84,
          "name": "C6",
          "ticks": 81982,
          "time": 71.164859390625,
          "velocity": 0.30708661417322836
        },
        {
          "duration": 0.08333325000000968,
          "durationTicks": 96,
          "midi": 75,
          "name": "D#5",
          "ticks": 82174,
          "time": 71.33152589062499,
          "velocity": 0.30708661417322836
        },
        {
          "duration": 0.08333325000000968,
          "durationTicks": 96,
          "midi": 48,
          "name": "C3",
          "ticks": 82174,
          "time": 71.33152589062499,
          "velocity": 0.2992125984251969
        },
        {
          "duration": 0.16666650000000516,
          "durationTicks": 192,
          "midi": 36,
          "name": "C2",
          "ticks": 82174,
          "time": 71.33152589062499,
          "velocity": 0.3228346456692913
        },
        {
          "duration": 0.08333325000000968,
          "durationTicks": 96,
          "midi": 87,
          "name": "D#6",
          "ticks": 82174,
          "time": 71.33152589062499,
          "velocity": 0.30708661417322836
        },
        {
          "duration": 0.04166662500000484,
          "durationTicks": 48,
          "midi": 64,
          "name": "E4",
          "ticks": 82366,
          "time": 71.498192390625,
          "velocity": 0.2755905511811024
        },
        {
          "duration": 0.04166662500000484,
          "durationTicks": 48,
          "midi": 60,
          "name": "C4",
          "ticks": 82366,
          "time": 71.498192390625,
          "velocity": 0.2755905511811024
        },
        {
          "duration": 0.04166662500000484,
          "durationTicks": 48,
          "midi": 55,
          "name": "G3",
          "ticks": 82366,
          "time": 71.498192390625,
          "velocity": 0.2755905511811024
        },
        {
          "duration": 0.04166662500000484,
          "durationTicks": 48,
          "midi": 57,
          "name": "A3",
          "ticks": 82366,
          "time": 71.498192390625,
          "velocity": 0.2755905511811024
        },
        {
          "duration": 0.08333324999999547,
          "durationTicks": 96,
          "midi": 75,
          "name": "D#5",
          "ticks": 82366,
          "time": 71.498192390625,
          "velocity": 0.30708661417322836
        },
        {
          "duration": 0.08333324999999547,
          "durationTicks": 96,
          "midi": 87,
          "name": "D#6",
          "ticks": 82366,
          "time": 71.498192390625,
          "velocity": 0.30708661417322836
        },
        {
          "duration": 0.16666650000000516,
          "durationTicks": 192,
          "midi": 76,
          "name": "E5",
          "ticks": 82462,
          "time": 71.58152564062499,
          "velocity": 0.30708661417322836
        },
        {
          "duration": 0.16666650000000516,
          "durationTicks": 192,
          "midi": 36,
          "name": "C2",
          "ticks": 82462,
          "time": 71.58152564062499,
          "velocity": 0.3228346456692913
        },
        {
          "duration": 0.04166662500000484,
          "durationTicks": 48,
          "midi": 48,
          "name": "C3",
          "ticks": 82462,
          "time": 71.58152564062499,
          "velocity": 0.29133858267716534
        },
        {
          "duration": 0.16666650000000516,
          "durationTicks": 192,
          "midi": 88,
          "name": "E6",
          "ticks": 82462,
          "time": 71.58152564062499,
          "velocity": 0.30708661417322836
        },
        {
          "duration": 0.08333324999999547,
          "durationTicks": 96,
          "midi": 48,
          "name": "C3",
          "ticks": 82558,
          "time": 71.664858890625,
          "velocity": 0.2992125984251969
        },
        {
          "duration": 0.3298607812500052,
          "durationTicks": 380,
          "midi": 57,
          "name": "A3",
          "ticks": 82558,
          "time": 71.664858890625,
          "velocity": 0.30708661417322836
        },
        {
          "duration": 0.3298607812500052,
          "durationTicks": 380,
          "midi": 64,
          "name": "E4",
          "ticks": 82558,
          "time": 71.664858890625,
          "velocity": 0.30708661417322836
        },
        {
          "duration": 0.3298607812500052,
          "durationTicks": 380,
          "midi": 60,
          "name": "C4",
          "ticks": 82558,
          "time": 71.664858890625,
          "velocity": 0.30708661417322836
        },
        {
          "duration": 0.2083331249999958,
          "durationTicks": 240,
          "midi": 48,
          "name": "C3",
          "ticks": 82558,
          "time": 71.664858890625,
          "velocity": 0.30708661417322836
        },
        {
          "duration": 0.3298607812500052,
          "durationTicks": 380,
          "midi": 55,
          "name": "G3",
          "ticks": 82558,
          "time": 71.664858890625,
          "velocity": 0.30708661417322836
        },
        {
          "duration": 0.3333329999999961,
          "durationTicks": 384,
          "midi": 36,
          "name": "C2",
          "ticks": 82558,
          "time": 71.664858890625,
          "velocity": 0.30708661417322836
        },
        {
          "duration": 0.16666650000000516,
          "durationTicks": 192,
          "midi": 36,
          "name": "C2",
          "ticks": 82750,
          "time": 71.83152539062499,
          "velocity": 0.3228346456692913
        },
        {
          "duration": 0.16319428125001423,
          "durationTicks": 188,
          "midi": 48,
          "name": "C3",
          "ticks": 82750,
          "time": 71.83152539062499,
          "velocity": 0.29133858267716534
        },
        {
          "duration": 0.08333324999999547,
          "durationTicks": 96,
          "midi": 79,
          "name": "G5",
          "ticks": 82942,
          "time": 71.998191890625,
          "velocity": 0.30708661417322836
        },
        {
          "duration": 0.08333324999999547,
          "durationTicks": 96,
          "midi": 41,
          "name": "F2",
          "ticks": 82942,
          "time": 71.998191890625,
          "velocity": 0.2992125984251969
        },
        {
          "duration": 0.12499987500000032,
          "durationTicks": 144,
          "midi": 29,
          "name": "F1",
          "ticks": 82942,
          "time": 71.998191890625,
          "velocity": 0.3228346456692913
        },
        {
          "duration": 0.08333324999999547,
          "durationTicks": 96,
          "midi": 91,
          "name": "G6",
          "ticks": 82942,
          "time": 71.998191890625,
          "velocity": 0.30708661417322836
        },
        {
          "duration": 0.08333325000000968,
          "durationTicks": 96,
          "midi": 29,
          "name": "F1",
          "ticks": 83038,
          "time": 72.08152514062499,
          "velocity": 0.2283464566929134
        },
        {
          "duration": 0.04166662499999063,
          "durationTicks": 48,
          "midi": 60,
          "name": "C4",
          "ticks": 83134,
          "time": 72.164858390625,
          "velocity": 0.2755905511811024
        },
        {
          "duration": 0.04166662499999063,
          "durationTicks": 48,
          "midi": 57,
          "name": "A3",
          "ticks": 83134,
          "time": 72.164858390625,
          "velocity": 0.2755905511811024
        },
        {
          "duration": 0.04166662499999063,
          "durationTicks": 48,
          "midi": 53,
          "name": "F3",
          "ticks": 83134,
          "time": 72.164858390625,
          "velocity": 0.2755905511811024
        },
        {
          "duration": 0.04166662499999063,
          "durationTicks": 48,
          "midi": 63,
          "name": "D#4",
          "ticks": 83134,
          "time": 72.164858390625,
          "velocity": 0.2755905511811024
        },
        {
          "duration": 0.08333324999999547,
          "durationTicks": 96,
          "midi": 78,
          "name": "F#5",
          "ticks": 83134,
          "time": 72.164858390625,
          "velocity": 0.30708661417322836
        },
        {
          "duration": 0.04166662499999063,
          "durationTicks": 48,
          "midi": 30,
          "name": "F#1",
          "ticks": 83134,
          "time": 72.164858390625,
          "velocity": 0.23622047244094488
        },
        {
          "duration": 0.08333324999999547,
          "durationTicks": 96,
          "midi": 90,
          "name": "F#6",
          "ticks": 83134,
          "time": 72.164858390625,
          "velocity": 0.30708661417322836
        },
        {
          "duration": 0.04166662500000484,
          "durationTicks": 48,
          "midi": 30,
          "name": "F#1",
          "ticks": 83230,
          "time": 72.248191640625,
          "velocity": 0.2440944881889764
        },
        {
          "duration": 0.08333325000000968,
          "durationTicks": 96,
          "midi": 77,
          "name": "F5",
          "ticks": 83326,
          "time": 72.33152489062499,
          "velocity": 0.30708661417322836
        },
        {
          "duration": 0.08333325000000968,
          "durationTicks": 96,
          "midi": 41,
          "name": "F2",
          "ticks": 83326,
          "time": 72.33152489062499,
          "velocity": 0.2992125984251969
        },
        {
          "duration": 0.16666650000000516,
          "durationTicks": 192,
          "midi": 29,
          "name": "F1",
          "ticks": 83326,
          "time": 72.33152489062499,
          "velocity": 0.3228346456692913
        },
        {
          "duration": 0.04166662500000484,
          "durationTicks": 48,
          "midi": 31,
          "name": "G1",
          "ticks": 83326,
          "time": 72.33152489062499,
          "velocity": 0.2440944881889764
        },
        {
          "duration": 0.08333325000000968,
          "durationTicks": 96,
          "midi": 89,
          "name": "F6",
          "ticks": 83326,
          "time": 72.33152489062499,
          "velocity": 0.30708661417322836
        },
        {
          "duration": 0.04166662499999063,
          "durationTicks": 48,
          "midi": 31,
          "name": "G1",
          "ticks": 83422,
          "time": 72.414858140625,
          "velocity": 0.25196850393700787
        },
        {
          "duration": 0.04166662500000484,
          "durationTicks": 48,
          "midi": 57,
          "name": "A3",
          "ticks": 83518,
          "time": 72.498191390625,
          "velocity": 0.2755905511811024
        },
        {
          "duration": 0.04166662500000484,
          "durationTicks": 48,
          "midi": 60,
          "name": "C4",
          "ticks": 83518,
          "time": 72.498191390625,
          "velocity": 0.2755905511811024
        },
        {
          "duration": 0.04166662500000484,
          "durationTicks": 48,
          "midi": 53,
          "name": "F3",
          "ticks": 83518,
          "time": 72.498191390625,
          "velocity": 0.2755905511811024
        },
        {
          "duration": 0.04166662500000484,
          "durationTicks": 48,
          "midi": 63,
          "name": "D#4",
          "ticks": 83518,
          "time": 72.498191390625,
          "velocity": 0.2755905511811024
        },
        {
          "duration": 0.08333324999999547,
          "durationTicks": 96,
          "midi": 75,
          "name": "D#5",
          "ticks": 83518,
          "time": 72.498191390625,
          "velocity": 0.30708661417322836
        },
        {
          "duration": 0.04166662500000484,
          "durationTicks": 48,
          "midi": 32,
          "name": "G#1",
          "ticks": 83518,
          "time": 72.498191390625,
          "velocity": 0.25196850393700787
        },
        {
          "duration": 0.08333324999999547,
          "durationTicks": 96,
          "midi": 87,
          "name": "D#6",
          "ticks": 83518,
          "time": 72.498191390625,
          "velocity": 0.30708661417322836
        },
        {
          "duration": 0.04166662500000484,
          "durationTicks": 48,
          "midi": 32,
          "name": "G#1",
          "ticks": 83614,
          "time": 72.58152464062499,
          "velocity": 0.25984251968503935
        },
        {
          "duration": 0.08333324999999547,
          "durationTicks": 96,
          "midi": 76,
          "name": "E5",
          "ticks": 83710,
          "time": 72.664857890625,
          "velocity": 0.30708661417322836
        },
        {
          "duration": 0.08333324999999547,
          "durationTicks": 96,
          "midi": 41,
          "name": "F2",
          "ticks": 83710,
          "time": 72.664857890625,
          "velocity": 0.2992125984251969
        },
        {
          "duration": 0.16666649999999095,
          "durationTicks": 192,
          "midi": 29,
          "name": "F1",
          "ticks": 83710,
          "time": 72.664857890625,
          "velocity": 0.3228346456692913
        },
        {
          "duration": 0.04166662499999063,
          "durationTicks": 48,
          "midi": 33,
          "name": "A1",
          "ticks": 83710,
          "time": 72.664857890625,
          "velocity": 0.25984251968503935
        },
        {
          "duration": 0.08333324999999547,
          "durationTicks": 96,
          "midi": 88,
          "name": "E6",
          "ticks": 83710,
          "time": 72.664857890625,
          "velocity": 0.30708661417322836
        },
        {
          "duration": 0.04166662500000484,
          "durationTicks": 48,
          "midi": 33,
          "name": "A1",
          "ticks": 83806,
          "time": 72.748191140625,
          "velocity": 0.2677165354330709
        },
        {
          "duration": 0.04166662500000484,
          "durationTicks": 48,
          "midi": 60,
          "name": "C4",
          "ticks": 83902,
          "time": 72.83152439062499,
          "velocity": 0.2755905511811024
        },
        {
          "duration": 0.04166662500000484,
          "durationTicks": 48,
          "midi": 57,
          "name": "A3",
          "ticks": 83902,
          "time": 72.83152439062499,
          "velocity": 0.2755905511811024
        },
        {
          "duration": 0.04166662500000484,
          "durationTicks": 48,
          "midi": 53,
          "name": "F3",
          "ticks": 83902,
          "time": 72.83152439062499,
          "velocity": 0.2755905511811024
        },
        {
          "duration": 0.04166662500000484,
          "durationTicks": 48,
          "midi": 63,
          "name": "D#4",
          "ticks": 83902,
          "time": 72.83152439062499,
          "velocity": 0.2755905511811024
        },
        {
          "duration": 0.08333325000000968,
          "durationTicks": 96,
          "midi": 77,
          "name": "F5",
          "ticks": 83902,
          "time": 72.83152439062499,
          "velocity": 0.30708661417322836
        },
        {
          "duration": 0.04166662500000484,
          "durationTicks": 48,
          "midi": 34,
          "name": "A#1",
          "ticks": 83902,
          "time": 72.83152439062499,
          "velocity": 0.2755905511811024
        },
        {
          "duration": 0.08333325000000968,
          "durationTicks": 96,
          "midi": 89,
          "name": "F6",
          "ticks": 83902,
          "time": 72.83152439062499,
          "velocity": 0.30708661417322836
        },
        {
          "duration": 0.16666649999999095,
          "durationTicks": 192,
          "midi": 29,
          "name": "F1",
          "ticks": 83998,
          "time": 72.914857640625,
          "velocity": 0.3228346456692913
        },
        {
          "duration": 0.04166662499999063,
          "durationTicks": 48,
          "midi": 34,
          "name": "A#1",
          "ticks": 83998,
          "time": 72.914857640625,
          "velocity": 0.2755905511811024
        },
        {
          "duration": 0.04166662499999063,
          "durationTicks": 48,
          "midi": 41,
          "name": "F2",
          "ticks": 83998,
          "time": 72.914857640625,
          "velocity": 0.29133858267716534
        },
        {
          "duration": 0.08333324999999547,
          "durationTicks": 96,
          "midi": 78,
          "name": "F#5",
          "ticks": 84094,
          "time": 72.998190890625,
          "velocity": 0.30708661417322836
        },
        {
          "duration": 0.08333324999999547,
          "durationTicks": 96,
          "midi": 41,
          "name": "F2",
          "ticks": 84094,
          "time": 72.998190890625,
          "velocity": 0.2992125984251969
        },
        {
          "duration": 0.04166662500000484,
          "durationTicks": 48,
          "midi": 35,
          "name": "B1",
          "ticks": 84094,
          "time": 72.998190890625,
          "velocity": 0.28346456692913385
        },
        {
          "duration": 0.08333324999999547,
          "durationTicks": 96,
          "midi": 90,
          "name": "F#6",
          "ticks": 84094,
          "time": 72.998190890625,
          "velocity": 0.30708661417322836
        },
        {
          "duration": 0.04166662500000484,
          "durationTicks": 48,
          "midi": 35,
          "name": "B1",
          "ticks": 84190,
          "time": 73.08152414062499,
          "velocity": 0.29133858267716534
        },
        {
          "duration": 0.04166662500000484,
          "durationTicks": 48,
          "midi": 57,
          "name": "A3",
          "ticks": 84286,
          "time": 73.16485739062499,
          "velocity": 0.2755905511811024
        },
        {
          "duration": 0.04166662500000484,
          "durationTicks": 48,
          "midi": 60,
          "name": "C4",
          "ticks": 84286,
          "time": 73.16485739062499,
          "velocity": 0.2755905511811024
        },
        {
          "duration": 0.04166662500000484,
          "durationTicks": 48,
          "midi": 53,
          "name": "F3",
          "ticks": 84286,
          "time": 73.16485739062499,
          "velocity": 0.2755905511811024
        },
        {
          "duration": 0.04166662500000484,
          "durationTicks": 48,
          "midi": 63,
          "name": "D#4",
          "ticks": 84286,
          "time": 73.16485739062499,
          "velocity": 0.2755905511811024
        },
        {
          "duration": 0.08333325000000968,
          "durationTicks": 96,
          "midi": 79,
          "name": "G5",
          "ticks": 84286,
          "time": 73.16485739062499,
          "velocity": 0.30708661417322836
        },
        {
          "duration": 0.16666650000000516,
          "durationTicks": 192,
          "midi": 29,
          "name": "F1",
          "ticks": 84286,
          "time": 73.16485739062499,
          "velocity": 0.3228346456692913
        },
        {
          "duration": 0.04166662500000484,
          "durationTicks": 48,
          "midi": 41,
          "name": "F2",
          "ticks": 84286,
          "time": 73.16485739062499,
          "velocity": 0.29133858267716534
        },
        {
          "duration": 0.04166662500000484,
          "durationTicks": 48,
          "midi": 36,
          "name": "C2",
          "ticks": 84286,
          "time": 73.16485739062499,
          "velocity": 0.29133858267716534
        },
        {
          "duration": 0.08333325000000968,
          "durationTicks": 96,
          "midi": 91,
          "name": "G6",
          "ticks": 84286,
          "time": 73.16485739062499,
          "velocity": 0.30708661417322836
        },
        {
          "duration": 0.04166662499999063,
          "durationTicks": 48,
          "midi": 36,
          "name": "C2",
          "ticks": 84382,
          "time": 73.248190640625,
          "velocity": 0.2992125984251969
        },
        {
          "duration": 0.08333324999999547,
          "durationTicks": 96,
          "midi": 80,
          "name": "G#5",
          "ticks": 84478,
          "time": 73.331523890625,
          "velocity": 0.30708661417322836
        },
        {
          "duration": 0.04166662500000484,
          "durationTicks": 48,
          "midi": 40,
          "name": "E2",
          "ticks": 84478,
          "time": 73.331523890625,
          "velocity": 0.2992125984251969
        },
        {
          "duration": 0.16666650000000516,
          "durationTicks": 192,
          "midi": 28,
          "name": "E1",
          "ticks": 84478,
          "time": 73.331523890625,
          "velocity": 0.3228346456692913
        },
        {
          "duration": 0.08333324999999547,
          "durationTicks": 96,
          "midi": 40,
          "name": "E2",
          "ticks": 84478,
          "time": 73.331523890625,
          "velocity": 0.2992125984251969
        },
        {
          "duration": 0.08333324999999547,
          "durationTicks": 96,
          "midi": 92,
          "name": "G#6",
          "ticks": 84478,
          "time": 73.331523890625,
          "velocity": 0.30708661417322836
        },
        {
          "duration": 0.04166662499999063,
          "durationTicks": 48,
          "midi": 56,
          "name": "G#3",
          "ticks": 84670,
          "time": 73.498190390625,
          "velocity": 0.2755905511811024
        },
        {
          "duration": 0.04166662499999063,
          "durationTicks": 48,
          "midi": 59,
          "name": "B3",
          "ticks": 84670,
          "time": 73.498190390625,
          "velocity": 0.2755905511811024
        },
        {
          "duration": 0.04166662499999063,
          "durationTicks": 48,
          "midi": 64,
          "name": "E4",
          "ticks": 84670,
          "time": 73.498190390625,
          "velocity": 0.2755905511811024
        },
        {
          "duration": 0.08333324999999547,
          "durationTicks": 96,
          "midi": 80,
          "name": "G#5",
          "ticks": 84670,
          "time": 73.498190390625,
          "velocity": 0.30708661417322836
        },
        {
          "duration": 0.04166662499999063,
          "durationTicks": 48,
          "midi": 39,
          "name": "D#2",
          "ticks": 84670,
          "time": 73.498190390625,
          "velocity": 0.29133858267716534
        },
        {
          "duration": 0.08333324999999547,
          "durationTicks": 96,
          "midi": 92,
          "name": "G#6",
          "ticks": 84670,
          "time": 73.498190390625,
          "velocity": 0.30708661417322836
        },
        {
          "duration": 0.08333325000000968,
          "durationTicks": 96,
          "midi": 81,
          "name": "A5",
          "ticks": 84862,
          "time": 73.66485689062499,
          "velocity": 0.30708661417322836
        },
        {
          "duration": 0.08333325000000968,
          "durationTicks": 96,
          "midi": 40,
          "name": "E2",
          "ticks": 84862,
          "time": 73.66485689062499,
          "velocity": 0.2992125984251969
        },
        {
          "duration": 0.16666650000000516,
          "durationTicks": 192,
          "midi": 28,
          "name": "E1",
          "ticks": 84862,
          "time": 73.66485689062499,
          "velocity": 0.3228346456692913
        },
        {
          "duration": 0.04166662500000484,
          "durationTicks": 48,
          "midi": 38,
          "name": "D2",
          "ticks": 84862,
          "time": 73.66485689062499,
          "velocity": 0.2755905511811024
        },
        {
          "duration": 0.08333325000000968,
          "durationTicks": 96,
          "midi": 93,
          "name": "A6",
          "ticks": 84862,
          "time": 73.66485689062499,
          "velocity": 0.30708661417322836
        },
        {
          "duration": 0.04166662500000484,
          "durationTicks": 48,
          "midi": 64,
          "name": "E4",
          "ticks": 85054,
          "time": 73.831523390625,
          "velocity": 0.2755905511811024
        },
        {
          "duration": 0.04166662500000484,
          "durationTicks": 48,
          "midi": 56,
          "name": "G#3",
          "ticks": 85054,
          "time": 73.831523390625,
          "velocity": 0.2755905511811024
        },
        {
          "duration": 0.04166662500000484,
          "durationTicks": 48,
          "midi": 59,
          "name": "B3",
          "ticks": 85054,
          "time": 73.831523390625,
          "velocity": 0.2755905511811024
        },
        {
          "duration": 0.08333324999999547,
          "durationTicks": 96,
          "midi": 81,
          "name": "A5",
          "ticks": 85054,
          "time": 73.831523390625,
          "velocity": 0.30708661417322836
        },
        {
          "duration": 0.04166662500000484,
          "durationTicks": 48,
          "midi": 37,
          "name": "C#2",
          "ticks": 85054,
          "time": 73.831523390625,
          "velocity": 0.2677165354330709
        },
        {
          "duration": 0.08333324999999547,
          "durationTicks": 96,
          "midi": 93,
          "name": "A6",
          "ticks": 85054,
          "time": 73.831523390625,
          "velocity": 0.30708661417322836
        },
        {
          "duration": 0.3333329999999961,
          "durationTicks": 384,
          "midi": 83,
          "name": "B5",
          "ticks": 85246,
          "time": 73.998189890625,
          "velocity": 0.30708661417322836
        },
        {
          "duration": 0.08333324999999547,
          "durationTicks": 96,
          "midi": 40,
          "name": "E2",
          "ticks": 85246,
          "time": 73.998189890625,
          "velocity": 0.2992125984251969
        },
        {
          "duration": 0.16666649999999095,
          "durationTicks": 192,
          "midi": 28,
          "name": "E1",
          "ticks": 85246,
          "time": 73.998189890625,
          "velocity": 0.3228346456692913
        },
        {
          "duration": 0.04166662499999063,
          "durationTicks": 48,
          "midi": 36,
          "name": "C2",
          "ticks": 85246,
          "time": 73.998189890625,
          "velocity": 0.25984251968503935
        },
        {
          "duration": 0.3333329999999961,
          "durationTicks": 384,
          "midi": 95,
          "name": "B6",
          "ticks": 85246,
          "time": 73.998189890625,
          "velocity": 0.30708661417322836
        },
        {
          "duration": 0.04166662500000484,
          "durationTicks": 48,
          "midi": 35,
          "name": "B1",
          "ticks": 85342,
          "time": 74.081523140625,
          "velocity": 0.25196850393700787
        },
        {
          "duration": 0.04166662500000484,
          "durationTicks": 48,
          "midi": 64,
          "name": "E4",
          "ticks": 85438,
          "time": 74.16485639062499,
          "velocity": 0.2755905511811024
        },
        {
          "duration": 0.04166662500000484,
          "durationTicks": 48,
          "midi": 56,
          "name": "G#3",
          "ticks": 85438,
          "time": 74.16485639062499,
          "velocity": 0.2755905511811024
        },
        {
          "duration": 0.04166662500000484,
          "durationTicks": 48,
          "midi": 59,
          "name": "B3",
          "ticks": 85438,
          "time": 74.16485639062499,
          "velocity": 0.2755905511811024
        },
        {
          "duration": 0.04166662500000484,
          "durationTicks": 48,
          "midi": 34,
          "name": "A#1",
          "ticks": 85438,
          "time": 74.16485639062499,
          "velocity": 0.2440944881889764
        },
        {
          "duration": 0.16666649999999095,
          "durationTicks": 192,
          "midi": 28,
          "name": "E1",
          "ticks": 85534,
          "time": 74.248189640625,
          "velocity": 0.3228346456692913
        },
        {
          "duration": 0.04166662499999063,
          "durationTicks": 48,
          "midi": 40,
          "name": "E2",
          "ticks": 85534,
          "time": 74.248189640625,
          "velocity": 0.29133858267716534
        },
        {
          "duration": 0.04166662499999063,
          "durationTicks": 48,
          "midi": 33,
          "name": "A1",
          "ticks": 85534,
          "time": 74.248189640625,
          "velocity": 0.2440944881889764
        },
        {
          "duration": 0.08333324999999547,
          "durationTicks": 96,
          "midi": 40,
          "name": "E2",
          "ticks": 85630,
          "time": 74.331522890625,
          "velocity": 0.2992125984251969
        },
        {
          "duration": 0.3298607812500052,
          "durationTicks": 380,
          "midi": 59,
          "name": "B3",
          "ticks": 85630,
          "time": 74.331522890625,
          "velocity": 0.30708661417322836
        },
        {
          "duration": 0.3298607812500052,
          "durationTicks": 380,
          "midi": 56,
          "name": "G#3",
          "ticks": 85630,
          "time": 74.331522890625,
          "velocity": 0.30708661417322836
        },
        {
          "duration": 0.3298607812500052,
          "durationTicks": 380,
          "midi": 52,
          "name": "E3",
          "ticks": 85630,
          "time": 74.331522890625,
          "velocity": 0.30708661417322836
        },
        {
          "duration": 0.3298607812500052,
          "durationTicks": 380,
          "midi": 64,
          "name": "E4",
          "ticks": 85630,
          "time": 74.331522890625,
          "velocity": 0.30708661417322836
        },
        {
          "duration": 0.3333329999999961,
          "durationTicks": 384,
          "midi": 28,
          "name": "E1",
          "ticks": 85630,
          "time": 74.331522890625,
          "velocity": 0.30708661417322836
        },
        {
          "duration": 0.2083331249999958,
          "durationTicks": 240,
          "midi": 40,
          "name": "E2",
          "ticks": 85630,
          "time": 74.331522890625,
          "velocity": 0.30708661417322836
        },
        {
          "duration": 0.16666649999999095,
          "durationTicks": 192,
          "midi": 28,
          "name": "E1",
          "ticks": 85822,
          "time": 74.498189390625,
          "velocity": 0.3228346456692913
        },
        {
          "duration": 0.16666649999999095,
          "durationTicks": 192,
          "midi": 40,
          "name": "E2",
          "ticks": 85822,
          "time": 74.498189390625,
          "velocity": 0.29133858267716534
        },
        {
          "duration": 0.08333325000000968,
          "durationTicks": 96,
          "midi": 81,
          "name": "A5",
          "ticks": 86014,
          "time": 74.66485589062499,
          "velocity": 0.3228346456692913
        },
        {
          "duration": 0.08333325000000968,
          "durationTicks": 96,
          "midi": 81,
          "name": "A5",
          "ticks": 86014,
          "time": 74.66485589062499,
          "velocity": 0.1732283464566929
        },
        {
          "duration": 0.16666650000000516,
          "durationTicks": 192,
          "midi": 33,
          "name": "A1",
          "ticks": 86014,
          "time": 74.66485589062499,
          "velocity": 0.3228346456692913
        },
        {
          "duration": 0.08333324999999547,
          "durationTicks": 96,
          "midi": 79,
          "name": "G5",
          "ticks": 86110,
          "time": 74.748189140625,
          "velocity": 0.3228346456692913
        },
        {
          "duration": 0.08333324999999547,
          "durationTicks": 96,
          "midi": 79,
          "name": "G5",
          "ticks": 86110,
          "time": 74.748189140625,
          "velocity": 0.1732283464566929
        },
        {
          "duration": 0.04166662500000484,
          "durationTicks": 48,
          "midi": 60,
          "name": "C4",
          "ticks": 86206,
          "time": 74.831522390625,
          "velocity": 0.2755905511811024
        },
        {
          "duration": 0.04166662500000484,
          "durationTicks": 48,
          "midi": 64,
          "name": "E4",
          "ticks": 86206,
          "time": 74.831522390625,
          "velocity": 0.2755905511811024
        },
        {
          "duration": 0.04166662500000484,
          "durationTicks": 48,
          "midi": 57,
          "name": "A3",
          "ticks": 86206,
          "time": 74.831522390625,
          "velocity": 0.2755905511811024
        },
        {
          "duration": 0.08333324999999547,
          "durationTicks": 96,
          "midi": 81,
          "name": "A5",
          "ticks": 86206,
          "time": 74.831522390625,
          "velocity": 0.3228346456692913
        },
        {
          "duration": 0.08333324999999547,
          "durationTicks": 96,
          "midi": 81,
          "name": "A5",
          "ticks": 86206,
          "time": 74.831522390625,
          "velocity": 0.1732283464566929
        },
        {
          "duration": 0.08333324999999547,
          "durationTicks": 96,
          "midi": 45,
          "name": "A2",
          "ticks": 86206,
          "time": 74.831522390625,
          "velocity": 0.2992125984251969
        },
        {
          "duration": 0.08333324999999547,
          "durationTicks": 96,
          "midi": 84,
          "name": "C6",
          "ticks": 86302,
          "time": 74.91485564062499,
          "velocity": 0.3228346456692913
        },
        {
          "duration": 0.08333324999999547,
          "durationTicks": 96,
          "midi": 84,
          "name": "C6",
          "ticks": 86302,
          "time": 74.91485564062499,
          "velocity": 0.1732283464566929
        },
        {
          "duration": 0.08333325000000968,
          "durationTicks": 96,
          "midi": 81,
          "name": "A5",
          "ticks": 86398,
          "time": 74.99818889062499,
          "velocity": 0.3228346456692913
        },
        {
          "duration": 0.08333325000000968,
          "durationTicks": 96,
          "midi": 81,
          "name": "A5",
          "ticks": 86398,
          "time": 74.99818889062499,
          "velocity": 0.1732283464566929
        },
        {
          "duration": 0.16666650000000516,
          "durationTicks": 192,
          "midi": 33,
          "name": "A1",
          "ticks": 86398,
          "time": 74.99818889062499,
          "velocity": 0.3228346456692913
        },
        {
          "duration": 0.16666650000000516,
          "durationTicks": 192,
          "midi": 45,
          "name": "A2",
          "ticks": 86398,
          "time": 74.99818889062499,
          "velocity": 0.29133858267716534
        },
        {
          "duration": 0.08333324999999547,
          "durationTicks": 96,
          "midi": 79,
          "name": "G5",
          "ticks": 86494,
          "time": 75.081522140625,
          "velocity": 0.3228346456692913
        },
        {
          "duration": 0.08333324999999547,
          "durationTicks": 96,
          "midi": 79,
          "name": "G5",
          "ticks": 86494,
          "time": 75.081522140625,
          "velocity": 0.1732283464566929
        },
        {
          "duration": 0.04166662500000484,
          "durationTicks": 48,
          "midi": 57,
          "name": "A3",
          "ticks": 86590,
          "time": 75.164855390625,
          "velocity": 0.2755905511811024
        },
        {
          "duration": 0.04166662500000484,
          "durationTicks": 48,
          "midi": 60,
          "name": "C4",
          "ticks": 86590,
          "time": 75.164855390625,
          "velocity": 0.2755905511811024
        },
        {
          "duration": 0.04166662500000484,
          "durationTicks": 48,
          "midi": 64,
          "name": "E4",
          "ticks": 86590,
          "time": 75.164855390625,
          "velocity": 0.2755905511811024
        },
        {
          "duration": 0.08333324999999547,
          "durationTicks": 96,
          "midi": 81,
          "name": "A5",
          "ticks": 86590,
          "time": 75.164855390625,
          "velocity": 0.3228346456692913
        },
        {
          "duration": 0.08333324999999547,
          "durationTicks": 96,
          "midi": 81,
          "name": "A5",
          "ticks": 86590,
          "time": 75.164855390625,
          "velocity": 0.1732283464566929
        },
        {
          "duration": 0.08333324999999547,
          "durationTicks": 96,
          "midi": 45,
          "name": "A2",
          "ticks": 86590,
          "time": 75.164855390625,
          "velocity": 0.2992125984251969
        },
        {
          "duration": 0.08333325000000968,
          "durationTicks": 96,
          "midi": 84,
          "name": "C6",
          "ticks": 86686,
          "time": 75.24818864062499,
          "velocity": 0.3228346456692913
        },
        {
          "duration": 0.08333325000000968,
          "durationTicks": 96,
          "midi": 84,
          "name": "C6",
          "ticks": 86686,
          "time": 75.24818864062499,
          "velocity": 0.1732283464566929
        },
        {
          "duration": 0.04166662500000484,
          "durationTicks": 48,
          "midi": 33,
          "name": "A1",
          "ticks": 86686,
          "time": 75.24818864062499,
          "velocity": 0.25196850393700787
        },
        {
          "duration": 0.08333324999999547,
          "durationTicks": 96,
          "midi": 81,
          "name": "A5",
          "ticks": 86782,
          "time": 75.331521890625,
          "velocity": 0.3228346456692913
        },
        {
          "duration": 0.08333324999999547,
          "durationTicks": 96,
          "midi": 81,
          "name": "A5",
          "ticks": 86782,
          "time": 75.331521890625,
          "velocity": 0.1732283464566929
        },
        {
          "duration": 0.16666649999999095,
          "durationTicks": 192,
          "midi": 33,
          "name": "A1",
          "ticks": 86782,
          "time": 75.331521890625,
          "velocity": 0.3228346456692913
        },
        {
          "duration": 0.08333324999999547,
          "durationTicks": 96,
          "midi": 79,
          "name": "G5",
          "ticks": 86878,
          "time": 75.414855140625,
          "velocity": 0.3228346456692913
        },
        {
          "duration": 0.08333324999999547,
          "durationTicks": 96,
          "midi": 79,
          "name": "G5",
          "ticks": 86878,
          "time": 75.414855140625,
          "velocity": 0.1732283464566929
        },
        {
          "duration": 0.04166662500000484,
          "durationTicks": 48,
          "midi": 60,
          "name": "C4",
          "ticks": 86974,
          "time": 75.49818839062499,
          "velocity": 0.2755905511811024
        },
        {
          "duration": 0.04166662500000484,
          "durationTicks": 48,
          "midi": 64,
          "name": "E4",
          "ticks": 86974,
          "time": 75.49818839062499,
          "velocity": 0.2755905511811024
        },
        {
          "duration": 0.04166662500000484,
          "durationTicks": 48,
          "midi": 57,
          "name": "A3",
          "ticks": 86974,
          "time": 75.49818839062499,
          "velocity": 0.2755905511811024
        },
        {
          "duration": 0.08333325000000968,
          "durationTicks": 96,
          "midi": 81,
          "name": "A5",
          "ticks": 86974,
          "time": 75.49818839062499,
          "velocity": 0.3228346456692913
        },
        {
          "duration": 0.08333325000000968,
          "durationTicks": 96,
          "midi": 81,
          "name": "A5",
          "ticks": 86974,
          "time": 75.49818839062499,
          "velocity": 0.1732283464566929
        },
        {
          "duration": 0.08333325000000968,
          "durationTicks": 96,
          "midi": 45,
          "name": "A2",
          "ticks": 86974,
          "time": 75.49818839062499,
          "velocity": 0.2992125984251969
        },
        {
          "duration": 0.08333324999999547,
          "durationTicks": 96,
          "midi": 84,
          "name": "C6",
          "ticks": 87070,
          "time": 75.581521640625,
          "velocity": 0.3228346456692913
        },
        {
          "duration": 0.08333324999999547,
          "durationTicks": 96,
          "midi": 84,
          "name": "C6",
          "ticks": 87070,
          "time": 75.581521640625,
          "velocity": 0.1732283464566929
        },
        {
          "duration": 0.08333324999999547,
          "durationTicks": 96,
          "midi": 81,
          "name": "A5",
          "ticks": 87166,
          "time": 75.664854890625,
          "velocity": 0.3228346456692913
        },
        {
          "duration": 0.08333324999999547,
          "durationTicks": 96,
          "midi": 81,
          "name": "A5",
          "ticks": 87166,
          "time": 75.664854890625,
          "velocity": 0.1732283464566929
        },
        {
          "duration": 0.16666650000000516,
          "durationTicks": 192,
          "midi": 33,
          "name": "A1",
          "ticks": 87166,
          "time": 75.664854890625,
          "velocity": 0.3228346456692913
        },
        {
          "duration": 0.16666650000000516,
          "durationTicks": 192,
          "midi": 45,
          "name": "A2",
          "ticks": 87166,
          "time": 75.664854890625,
          "velocity": 0.29133858267716534
        },
        {
          "duration": 0.08333325000000968,
          "durationTicks": 96,
          "midi": 79,
          "name": "G5",
          "ticks": 87262,
          "time": 75.74818814062499,
          "velocity": 0.3228346456692913
        },
        {
          "duration": 0.08333325000000968,
          "durationTicks": 96,
          "midi": 79,
          "name": "G5",
          "ticks": 87262,
          "time": 75.74818814062499,
          "velocity": 0.1732283464566929
        },
        {
          "duration": 0.04166662499999063,
          "durationTicks": 48,
          "midi": 64,
          "name": "E4",
          "ticks": 87358,
          "time": 75.831521390625,
          "velocity": 0.2755905511811024
        },
        {
          "duration": 0.04166662499999063,
          "durationTicks": 48,
          "midi": 60,
          "name": "C4",
          "ticks": 87358,
          "time": 75.831521390625,
          "velocity": 0.2755905511811024
        },
        {
          "duration": 0.04166662499999063,
          "durationTicks": 48,
          "midi": 57,
          "name": "A3",
          "ticks": 87358,
          "time": 75.831521390625,
          "velocity": 0.2755905511811024
        },
        {
          "duration": 0.08333324999999547,
          "durationTicks": 96,
          "midi": 81,
          "name": "A5",
          "ticks": 87358,
          "time": 75.831521390625,
          "velocity": 0.3228346456692913
        },
        {
          "duration": 0.08333324999999547,
          "durationTicks": 96,
          "midi": 81,
          "name": "A5",
          "ticks": 87358,
          "time": 75.831521390625,
          "velocity": 0.1732283464566929
        },
        {
          "duration": 0.08333324999999547,
          "durationTicks": 96,
          "midi": 45,
          "name": "A2",
          "ticks": 87358,
          "time": 75.831521390625,
          "velocity": 0.2992125984251969
        },
        {
          "duration": 0.08333324999999547,
          "durationTicks": 96,
          "midi": 84,
          "name": "C6",
          "ticks": 87454,
          "time": 75.914854640625,
          "velocity": 0.3228346456692913
        },
        {
          "duration": 0.08333324999999547,
          "durationTicks": 96,
          "midi": 84,
          "name": "C6",
          "ticks": 87454,
          "time": 75.914854640625,
          "velocity": 0.1732283464566929
        },
        {
          "duration": 0.04166662500000484,
          "durationTicks": 48,
          "midi": 33,
          "name": "A1",
          "ticks": 87454,
          "time": 75.914854640625,
          "velocity": 0.25196850393700787
        },
        {
          "duration": 0.08333325000000968,
          "durationTicks": 96,
          "midi": 81,
          "name": "A5",
          "ticks": 87550,
          "time": 75.99818789062499,
          "velocity": 0.3228346456692913
        },
        {
          "duration": 0.08333325000000968,
          "durationTicks": 96,
          "midi": 81,
          "name": "A5",
          "ticks": 87550,
          "time": 75.99818789062499,
          "velocity": 0.1732283464566929
        },
        {
          "duration": 0.16666650000000516,
          "durationTicks": 192,
          "midi": 36,
          "name": "C2",
          "ticks": 87550,
          "time": 75.99818789062499,
          "velocity": 0.3228346456692913
        },
        {
          "duration": 0.08333324999999547,
          "durationTicks": 96,
          "midi": 79,
          "name": "G5",
          "ticks": 87646,
          "time": 76.081521140625,
          "velocity": 0.3228346456692913
        },
        {
          "duration": 0.08333324999999547,
          "durationTicks": 96,
          "midi": 79,
          "name": "G5",
          "ticks": 87646,
          "time": 76.081521140625,
          "velocity": 0.1732283464566929
        },
        {
          "duration": 0.04166662500000484,
          "durationTicks": 48,
          "midi": 60,
          "name": "C4",
          "ticks": 87742,
          "time": 76.164854390625,
          "velocity": 0.2755905511811024
        },
        {
          "duration": 0.04166662500000484,
          "durationTicks": 48,
          "midi": 55,
          "name": "G3",
          "ticks": 87742,
          "time": 76.164854390625,
          "velocity": 0.2755905511811024
        },
        {
          "duration": 0.04166662500000484,
          "durationTicks": 48,
          "midi": 64,
          "name": "E4",
          "ticks": 87742,
          "time": 76.164854390625,
          "velocity": 0.2755905511811024
        },
        {
          "duration": 0.04166662500000484,
          "durationTicks": 48,
          "midi": 57,
          "name": "A3",
          "ticks": 87742,
          "time": 76.164854390625,
          "velocity": 0.2755905511811024
        },
        {
          "duration": 0.08333324999999547,
          "durationTicks": 96,
          "midi": 81,
          "name": "A5",
          "ticks": 87742,
          "time": 76.164854390625,
          "velocity": 0.3228346456692913
        },
        {
          "duration": 0.08333324999999547,
          "durationTicks": 96,
          "midi": 81,
          "name": "A5",
          "ticks": 87742,
          "time": 76.164854390625,
          "velocity": 0.1732283464566929
        },
        {
          "duration": 0.08333324999999547,
          "durationTicks": 96,
          "midi": 48,
          "name": "C3",
          "ticks": 87742,
          "time": 76.164854390625,
          "velocity": 0.2992125984251969
        },
        {
          "duration": 0.08333325000000968,
          "durationTicks": 96,
          "midi": 84,
          "name": "C6",
          "ticks": 87838,
          "time": 76.24818764062499,
          "velocity": 0.3228346456692913
        },
        {
          "duration": 0.08333325000000968,
          "durationTicks": 96,
          "midi": 84,
          "name": "C6",
          "ticks": 87838,
          "time": 76.24818764062499,
          "velocity": 0.1732283464566929
        },
        {
          "duration": 0.08333324999999547,
          "durationTicks": 96,
          "midi": 81,
          "name": "A5",
          "ticks": 87934,
          "time": 76.331520890625,
          "velocity": 0.3228346456692913
        },
        {
          "duration": 0.08333324999999547,
          "durationTicks": 96,
          "midi": 81,
          "name": "A5",
          "ticks": 87934,
          "time": 76.331520890625,
          "velocity": 0.1732283464566929
        },
        {
          "duration": 0.16666649999999095,
          "durationTicks": 192,
          "midi": 36,
          "name": "C2",
          "ticks": 87934,
          "time": 76.331520890625,
          "velocity": 0.3228346456692913
        },
        {
          "duration": 0.16666649999999095,
          "durationTicks": 192,
          "midi": 48,
          "name": "C3",
          "ticks": 87934,
          "time": 76.331520890625,
          "velocity": 0.29133858267716534
        },
        {
          "duration": 0.08333324999999547,
          "durationTicks": 96,
          "midi": 79,
          "name": "G5",
          "ticks": 88030,
          "time": 76.414854140625,
          "velocity": 0.3228346456692913
        },
        {
          "duration": 0.08333324999999547,
          "durationTicks": 96,
          "midi": 79,
          "name": "G5",
          "ticks": 88030,
          "time": 76.414854140625,
          "velocity": 0.1732283464566929
        },
        {
          "duration": 0.04166662500000484,
          "durationTicks": 48,
          "midi": 55,
          "name": "G3",
          "ticks": 88126,
          "time": 76.49818739062499,
          "velocity": 0.2755905511811024
        },
        {
          "duration": 0.04166662500000484,
          "durationTicks": 48,
          "midi": 60,
          "name": "C4",
          "ticks": 88126,
          "time": 76.49818739062499,
          "velocity": 0.2755905511811024
        },
        {
          "duration": 0.04166662500000484,
          "durationTicks": 48,
          "midi": 57,
          "name": "A3",
          "ticks": 88126,
          "time": 76.49818739062499,
          "velocity": 0.2755905511811024
        },
        {
          "duration": 0.04166662500000484,
          "durationTicks": 48,
          "midi": 64,
          "name": "E4",
          "ticks": 88126,
          "time": 76.49818739062499,
          "velocity": 0.2755905511811024
        },
        {
          "duration": 0.08333325000000968,
          "durationTicks": 96,
          "midi": 81,
          "name": "A5",
          "ticks": 88126,
          "time": 76.49818739062499,
          "velocity": 0.2125984251968504
        },
        {
          "duration": 0.08333325000000968,
          "durationTicks": 96,
          "midi": 76,
          "name": "E5",
          "ticks": 88126,
          "time": 76.49818739062499,
          "velocity": 0.3228346456692913
        },
        {
          "duration": 0.08333325000000968,
          "durationTicks": 96,
          "midi": 81,
          "name": "A5",
          "ticks": 88126,
          "time": 76.49818739062499,
          "velocity": 0.06299212598425197
        },
        {
          "duration": 0.08333325000000968,
          "durationTicks": 96,
          "midi": 76,
          "name": "E5",
          "ticks": 88126,
          "time": 76.49818739062499,
          "velocity": 0.1732283464566929
        },
        {
          "duration": 0.08333325000000968,
          "durationTicks": 96,
          "midi": 48,
          "name": "C3",
          "ticks": 88126,
          "time": 76.49818739062499,
          "velocity": 0.2992125984251969
        },
        {
          "duration": 0.08333324999999547,
          "durationTicks": 96,
          "midi": 84,
          "name": "C6",
          "ticks": 88222,
          "time": 76.581520640625,
          "velocity": 0.25196850393700787
        },
        {
          "duration": 0.08333324999999547,
          "durationTicks": 96,
          "midi": 75,
          "name": "D#5",
          "ticks": 88222,
          "time": 76.581520640625,
          "velocity": 0.3228346456692913
        },
        {
          "duration": 0.08333324999999547,
          "durationTicks": 96,
          "midi": 75,
          "name": "D#5",
          "ticks": 88222,
          "time": 76.581520640625,
          "velocity": 0.1732283464566929
        },
        {
          "duration": 0.08333324999999547,
          "durationTicks": 96,
          "midi": 84,
          "name": "C6",
          "ticks": 88222,
          "time": 76.581520640625,
          "velocity": 0.11023622047244094
        },
        {
          "duration": 0.04166662499999063,
          "durationTicks": 48,
          "midi": 36,
          "name": "C2",
          "ticks": 88222,
          "time": 76.581520640625,
          "velocity": 0.25196850393700787
        },
        {
          "duration": 0.08333324999999547,
          "durationTicks": 96,
          "midi": 74,
          "name": "D5",
          "ticks": 88318,
          "time": 76.664853890625,
          "velocity": 0.3228346456692913
        },
        {
          "duration": 0.08333324999999547,
          "durationTicks": 96,
          "midi": 74,
          "name": "D5",
          "ticks": 88318,
          "time": 76.664853890625,
          "velocity": 0.1732283464566929
        },
        {
          "duration": 0.16666649999999095,
          "durationTicks": 192,
          "midi": 36,
          "name": "C2",
          "ticks": 88318,
          "time": 76.664853890625,
          "velocity": 0.3228346456692913
        },
        {
          "duration": 0.08333324999999547,
          "durationTicks": 96,
          "midi": 72,
          "name": "C5",
          "ticks": 88414,
          "time": 76.74818714062499,
          "velocity": 0.3228346456692913
        },
        {
          "duration": 0.08333324999999547,
          "durationTicks": 96,
          "midi": 72,
          "name": "C5",
          "ticks": 88414,
          "time": 76.74818714062499,
          "velocity": 0.1732283464566929
        },
        {
          "duration": 0.04166662500000484,
          "durationTicks": 48,
          "midi": 60,
          "name": "C4",
          "ticks": 88510,
          "time": 76.83152039062499,
          "velocity": 0.2755905511811024
        },
        {
          "duration": 0.04166662500000484,
          "durationTicks": 48,
          "midi": 55,
          "name": "G3",
          "ticks": 88510,
          "time": 76.83152039062499,
          "velocity": 0.2755905511811024
        },
        {
          "duration": 0.04166662500000484,
          "durationTicks": 48,
          "midi": 64,
          "name": "E4",
          "ticks": 88510,
          "time": 76.83152039062499,
          "velocity": 0.2755905511811024
        },
        {
          "duration": 0.04166662500000484,
          "durationTicks": 48,
          "midi": 57,
          "name": "A3",
          "ticks": 88510,
          "time": 76.83152039062499,
          "velocity": 0.2755905511811024
        },
        {
          "duration": 0.08333325000000968,
          "durationTicks": 96,
          "midi": 69,
          "name": "A4",
          "ticks": 88510,
          "time": 76.83152039062499,
          "velocity": 0.3228346456692913
        },
        {
          "duration": 0.08333325000000968,
          "durationTicks": 96,
          "midi": 69,
          "name": "A4",
          "ticks": 88510,
          "time": 76.83152039062499,
          "velocity": 0.1732283464566929
        },
        {
          "duration": 0.08333325000000968,
          "durationTicks": 96,
          "midi": 48,
          "name": "C3",
          "ticks": 88510,
          "time": 76.83152039062499,
          "velocity": 0.2992125984251969
        },
        {
          "duration": 0.08333324999999547,
          "durationTicks": 96,
          "midi": 67,
          "name": "G4",
          "ticks": 88606,
          "time": 76.914853640625,
          "velocity": 0.3228346456692913
        },
        {
          "duration": 0.08333324999999547,
          "durationTicks": 96,
          "midi": 67,
          "name": "G4",
          "ticks": 88606,
          "time": 76.914853640625,
          "velocity": 0.1732283464566929
        },
        {
          "duration": 0.08333324999999547,
          "durationTicks": 96,
          "midi": 63,
          "name": "D#4",
          "ticks": 88702,
          "time": 76.99818689062499,
          "velocity": 0.3228346456692913
        },
        {
          "duration": 0.08333324999999547,
          "durationTicks": 96,
          "midi": 63,
          "name": "D#4",
          "ticks": 88702,
          "time": 76.99818689062499,
          "velocity": 0.1732283464566929
        },
        {
          "duration": 0.16666650000000516,
          "durationTicks": 192,
          "midi": 36,
          "name": "C2",
          "ticks": 88702,
          "time": 76.99818689062499,
          "velocity": 0.3228346456692913
        },
        {
          "duration": 0.16666650000000516,
          "durationTicks": 192,
          "midi": 48,
          "name": "C3",
          "ticks": 88702,
          "time": 76.99818689062499,
          "velocity": 0.29133858267716534
        },
        {
          "duration": 0.08333325000000968,
          "durationTicks": 96,
          "midi": 62,
          "name": "D4",
          "ticks": 88798,
          "time": 77.08152014062499,
          "velocity": 0.3228346456692913
        },
        {
          "duration": 0.08333325000000968,
          "durationTicks": 96,
          "midi": 62,
          "name": "D4",
          "ticks": 88798,
          "time": 77.08152014062499,
          "velocity": 0.1732283464566929
        },
        {
          "duration": 0.04166662499999063,
          "durationTicks": 48,
          "midi": 60,
          "name": "C4",
          "ticks": 88894,
          "time": 77.164853390625,
          "velocity": 0.2755905511811024
        },
        {
          "duration": 0.04166662499999063,
          "durationTicks": 48,
          "midi": 57,
          "name": "A3",
          "ticks": 88894,
          "time": 77.164853390625,
          "velocity": 0.2755905511811024
        },
        {
          "duration": 0.04166662499999063,
          "durationTicks": 48,
          "midi": 55,
          "name": "G3",
          "ticks": 88894,
          "time": 77.164853390625,
          "velocity": 0.2755905511811024
        },
        {
          "duration": 0.04166662499999063,
          "durationTicks": 48,
          "midi": 64,
          "name": "E4",
          "ticks": 88894,
          "time": 77.164853390625,
          "velocity": 0.2755905511811024
        },
        {
          "duration": 0.08333324999999547,
          "durationTicks": 96,
          "midi": 60,
          "name": "C4",
          "ticks": 88894,
          "time": 77.164853390625,
          "velocity": 0.3228346456692913
        },
        {
          "duration": 0.08333324999999547,
          "durationTicks": 96,
          "midi": 60,
          "name": "C4",
          "ticks": 88894,
          "time": 77.164853390625,
          "velocity": 0.1732283464566929
        },
        {
          "duration": 0.08333324999999547,
          "durationTicks": 96,
          "midi": 48,
          "name": "C3",
          "ticks": 88894,
          "time": 77.164853390625,
          "velocity": 0.2992125984251969
        },
        {
          "duration": 0.08333324999999547,
          "durationTicks": 96,
          "midi": 57,
          "name": "A3",
          "ticks": 88990,
          "time": 77.248186640625,
          "velocity": 0.3228346456692913
        },
        {
          "duration": 0.08333324999999547,
          "durationTicks": 96,
          "midi": 57,
          "name": "A3",
          "ticks": 88990,
          "time": 77.248186640625,
          "velocity": 0.1732283464566929
        },
        {
          "duration": 0.04166662500000484,
          "durationTicks": 48,
          "midi": 36,
          "name": "C2",
          "ticks": 88990,
          "time": 77.248186640625,
          "velocity": 0.25196850393700787
        },
        {
          "duration": 0.08333325000000968,
          "durationTicks": 96,
          "midi": 62,
          "name": "D4",
          "ticks": 89086,
          "time": 77.33151989062499,
          "velocity": 0.3228346456692913
        },
        {
          "duration": 0.08333325000000968,
          "durationTicks": 96,
          "midi": 62,
          "name": "D4",
          "ticks": 89086,
          "time": 77.33151989062499,
          "velocity": 0.1732283464566929
        },
        {
          "duration": 0.16666650000000516,
          "durationTicks": 192,
          "midi": 29,
          "name": "F1",
          "ticks": 89086,
          "time": 77.33151989062499,
          "velocity": 0.3228346456692913
        },
        {
          "duration": 0.08333324999999547,
          "durationTicks": 96,
          "midi": 63,
          "name": "D#4",
          "ticks": 89182,
          "time": 77.414853140625,
          "velocity": 0.3228346456692913
        },
        {
          "duration": 0.08333324999999547,
          "durationTicks": 96,
          "midi": 63,
          "name": "D#4",
          "ticks": 89182,
          "time": 77.414853140625,
          "velocity": 0.1732283464566929
        },
        {
          "duration": 0.04166662500000484,
          "durationTicks": 48,
          "midi": 60,
          "name": "C4",
          "ticks": 89278,
          "time": 77.498186390625,
          "velocity": 0.2755905511811024
        },
        {
          "duration": 0.04166662500000484,
          "durationTicks": 48,
          "midi": 63,
          "name": "D#4",
          "ticks": 89278,
          "time": 77.498186390625,
          "velocity": 0.2755905511811024
        },
        {
          "duration": 0.04166662500000484,
          "durationTicks": 48,
          "midi": 53,
          "name": "F3",
          "ticks": 89278,
          "time": 77.498186390625,
          "velocity": 0.2755905511811024
        },
        {
          "duration": 0.04166662500000484,
          "durationTicks": 48,
          "midi": 57,
          "name": "A3",
          "ticks": 89278,
          "time": 77.498186390625,
          "velocity": 0.2755905511811024
        },
        {
          "duration": 0.08333324999999547,
          "durationTicks": 96,
          "midi": 64,
          "name": "E4",
          "ticks": 89278,
          "time": 77.498186390625,
          "velocity": 0.3228346456692913
        },
        {
          "duration": 0.08333324999999547,
          "durationTicks": 96,
          "midi": 64,
          "name": "E4",
          "ticks": 89278,
          "time": 77.498186390625,
          "velocity": 0.1732283464566929
        },
        {
          "duration": 0.08333324999999547,
          "durationTicks": 96,
          "midi": 41,
          "name": "F2",
          "ticks": 89278,
          "time": 77.498186390625,
          "velocity": 0.2992125984251969
        },
        {
          "duration": 0.08333325000000968,
          "durationTicks": 96,
          "midi": 67,
          "name": "G4",
          "ticks": 89374,
          "time": 77.58151964062499,
          "velocity": 0.3228346456692913
        },
        {
          "duration": 0.08333325000000968,
          "durationTicks": 96,
          "midi": 67,
          "name": "G4",
          "ticks": 89374,
          "time": 77.58151964062499,
          "velocity": 0.1732283464566929
        },
        {
          "duration": 0.08333324999999547,
          "durationTicks": 96,
          "midi": 69,
          "name": "A4",
          "ticks": 89470,
          "time": 77.664852890625,
          "velocity": 0.3228346456692913
        },
        {
          "duration": 0.08333324999999547,
          "durationTicks": 96,
          "midi": 69,
          "name": "A4",
          "ticks": 89470,
          "time": 77.664852890625,
          "velocity": 0.1732283464566929
        },
        {
          "duration": 0.16666649999999095,
          "durationTicks": 192,
          "midi": 29,
          "name": "F1",
          "ticks": 89470,
          "time": 77.664852890625,
          "velocity": 0.3228346456692913
        },
        {
          "duration": 0.16666649999999095,
          "durationTicks": 192,
          "midi": 41,
          "name": "F2",
          "ticks": 89470,
          "time": 77.664852890625,
          "velocity": 0.29133858267716534
        },
        {
          "duration": 0.08333324999999547,
          "durationTicks": 96,
          "midi": 67,
          "name": "G4",
          "ticks": 89566,
          "time": 77.748186140625,
          "velocity": 0.3228346456692913
        },
        {
          "duration": 0.08333324999999547,
          "durationTicks": 96,
          "midi": 67,
          "name": "G4",
          "ticks": 89566,
          "time": 77.748186140625,
          "velocity": 0.1732283464566929
        },
        {
          "duration": 0.04166662500000484,
          "durationTicks": 48,
          "midi": 57,
          "name": "A3",
          "ticks": 89662,
          "time": 77.83151939062499,
          "velocity": 0.2755905511811024
        },
        {
          "duration": 0.04166662500000484,
          "durationTicks": 48,
          "midi": 60,
          "name": "C4",
          "ticks": 89662,
          "time": 77.83151939062499,
          "velocity": 0.2755905511811024
        },
        {
          "duration": 0.04166662500000484,
          "durationTicks": 48,
          "midi": 63,
          "name": "D#4",
          "ticks": 89662,
          "time": 77.83151939062499,
          "velocity": 0.2755905511811024
        },
        {
          "duration": 0.04166662500000484,
          "durationTicks": 48,
          "midi": 53,
          "name": "F3",
          "ticks": 89662,
          "time": 77.83151939062499,
          "velocity": 0.2755905511811024
        },
        {
          "duration": 0.08333325000000968,
          "durationTicks": 96,
          "midi": 69,
          "name": "A4",
          "ticks": 89662,
          "time": 77.83151939062499,
          "velocity": 0.3228346456692913
        },
        {
          "duration": 0.08333325000000968,
          "durationTicks": 96,
          "midi": 69,
          "name": "A4",
          "ticks": 89662,
          "time": 77.83151939062499,
          "velocity": 0.1732283464566929
        },
        {
          "duration": 0.08333325000000968,
          "durationTicks": 96,
          "midi": 41,
          "name": "F2",
          "ticks": 89662,
          "time": 77.83151939062499,
          "velocity": 0.2992125984251969
        },
        {
          "duration": 0.08333324999999547,
          "durationTicks": 96,
          "midi": 72,
          "name": "C5",
          "ticks": 89758,
          "time": 77.914852640625,
          "velocity": 0.3228346456692913
        },
        {
          "duration": 0.08333324999999547,
          "durationTicks": 96,
          "midi": 72,
          "name": "C5",
          "ticks": 89758,
          "time": 77.914852640625,
          "velocity": 0.1732283464566929
        },
        {
          "duration": 0.04166662499999063,
          "durationTicks": 48,
          "midi": 29,
          "name": "F1",
          "ticks": 89758,
          "time": 77.914852640625,
          "velocity": 0.25196850393700787
        },
        {
          "duration": 0.08333324999999547,
          "durationTicks": 96,
          "midi": 74,
          "name": "D5",
          "ticks": 89854,
          "time": 77.998185890625,
          "velocity": 0.3228346456692913
        },
        {
          "duration": 0.08333324999999547,
          "durationTicks": 96,
          "midi": 74,
          "name": "D5",
          "ticks": 89854,
          "time": 77.998185890625,
          "velocity": 0.1732283464566929
        },
        {
          "duration": 0.16666650000000516,
          "durationTicks": 192,
          "midi": 29,
          "name": "F1",
          "ticks": 89854,
          "time": 77.998185890625,
          "velocity": 0.3228346456692913
        },
        {
          "duration": 0.08333325000000968,
          "durationTicks": 96,
          "midi": 75,
          "name": "D#5",
          "ticks": 89950,
          "time": 78.08151914062499,
          "velocity": 0.3228346456692913
        },
        {
          "duration": 0.08333325000000968,
          "durationTicks": 96,
          "midi": 75,
          "name": "D#5",
          "ticks": 89950,
          "time": 78.08151914062499,
          "velocity": 0.1732283464566929
        },
        {
          "duration": 0.04166662499999063,
          "durationTicks": 48,
          "midi": 63,
          "name": "D#4",
          "ticks": 90046,
          "time": 78.164852390625,
          "velocity": 0.2755905511811024
        },
        {
          "duration": 0.04166662499999063,
          "durationTicks": 48,
          "midi": 60,
          "name": "C4",
          "ticks": 90046,
          "time": 78.164852390625,
          "velocity": 0.2755905511811024
        },
        {
          "duration": 0.04166662499999063,
          "durationTicks": 48,
          "midi": 57,
          "name": "A3",
          "ticks": 90046,
          "time": 78.164852390625,
          "velocity": 0.2755905511811024
        },
        {
          "duration": 0.04166662499999063,
          "durationTicks": 48,
          "midi": 53,
          "name": "F3",
          "ticks": 90046,
          "time": 78.164852390625,
          "velocity": 0.2755905511811024
        },
        {
          "duration": 0.08333324999999547,
          "durationTicks": 96,
          "midi": 77,
          "name": "F5",
          "ticks": 90046,
          "time": 78.164852390625,
          "velocity": 0.3228346456692913
        },
        {
          "duration": 0.08333324999999547,
          "durationTicks": 96,
          "midi": 77,
          "name": "F5",
          "ticks": 90046,
          "time": 78.164852390625,
          "velocity": 0.1732283464566929
        },
        {
          "duration": 0.08333324999999547,
          "durationTicks": 96,
          "midi": 41,
          "name": "F2",
          "ticks": 90046,
          "time": 78.164852390625,
          "velocity": 0.2992125984251969
        },
        {
          "duration": 0.08333324999999547,
          "durationTicks": 96,
          "midi": 79,
          "name": "G5",
          "ticks": 90142,
          "time": 78.248185640625,
          "velocity": 0.3228346456692913
        },
        {
          "duration": 0.08333324999999547,
          "durationTicks": 96,
          "midi": 79,
          "name": "G5",
          "ticks": 90142,
          "time": 78.248185640625,
          "velocity": 0.1732283464566929
        },
        {
          "duration": 0.08333325000000968,
          "durationTicks": 96,
          "midi": 81,
          "name": "A5",
          "ticks": 90238,
          "time": 78.33151889062499,
          "velocity": 0.3228346456692913
        },
        {
          "duration": 0.08333325000000968,
          "durationTicks": 96,
          "midi": 81,
          "name": "A5",
          "ticks": 90238,
          "time": 78.33151889062499,
          "velocity": 0.1732283464566929
        },
        {
          "duration": 0.16666650000000516,
          "durationTicks": 192,
          "midi": 29,
          "name": "F1",
          "ticks": 90238,
          "time": 78.33151889062499,
          "velocity": 0.3228346456692913
        },
        {
          "duration": 0.16666650000000516,
          "durationTicks": 192,
          "midi": 41,
          "name": "F2",
          "ticks": 90238,
          "time": 78.33151889062499,
          "velocity": 0.29133858267716534
        },
        {
          "duration": 0.08333324999999547,
          "durationTicks": 96,
          "midi": 84,
          "name": "C6",
          "ticks": 90334,
          "time": 78.414852140625,
          "velocity": 0.3228346456692913
        },
        {
          "duration": 0.08333324999999547,
          "durationTicks": 96,
          "midi": 84,
          "name": "C6",
          "ticks": 90334,
          "time": 78.414852140625,
          "velocity": 0.1732283464566929
        },
        {
          "duration": 0.04166662500000484,
          "durationTicks": 48,
          "midi": 57,
          "name": "A3",
          "ticks": 90430,
          "time": 78.498185390625,
          "velocity": 0.2755905511811024
        },
        {
          "duration": 0.04166662500000484,
          "durationTicks": 48,
          "midi": 60,
          "name": "C4",
          "ticks": 90430,
          "time": 78.498185390625,
          "velocity": 0.2755905511811024
        },
        {
          "duration": 0.04166662500000484,
          "durationTicks": 48,
          "midi": 53,
          "name": "F3",
          "ticks": 90430,
          "time": 78.498185390625,
          "velocity": 0.2755905511811024
        },
        {
          "duration": 0.04166662500000484,
          "durationTicks": 48,
          "midi": 63,
          "name": "D#4",
          "ticks": 90430,
          "time": 78.498185390625,
          "velocity": 0.2755905511811024
        },
        {
          "duration": 0.08333324999999547,
          "durationTicks": 96,
          "midi": 86,
          "name": "D6",
          "ticks": 90430,
          "time": 78.498185390625,
          "velocity": 0.3228346456692913
        },
        {
          "duration": 0.08333324999999547,
          "durationTicks": 96,
          "midi": 86,
          "name": "D6",
          "ticks": 90430,
          "time": 78.498185390625,
          "velocity": 0.1732283464566929
        },
        {
          "duration": 0.08333324999999547,
          "durationTicks": 96,
          "midi": 41,
          "name": "F2",
          "ticks": 90430,
          "time": 78.498185390625,
          "velocity": 0.2992125984251969
        },
        {
          "duration": 0.08333324999999547,
          "durationTicks": 96,
          "midi": 87,
          "name": "D#6",
          "ticks": 90526,
          "time": 78.58151864062499,
          "velocity": 0.3228346456692913
        },
        {
          "duration": 0.08333324999999547,
          "durationTicks": 96,
          "midi": 87,
          "name": "D#6",
          "ticks": 90526,
          "time": 78.58151864062499,
          "velocity": 0.1732283464566929
        },
        {
          "duration": 0.04166662500000484,
          "durationTicks": 48,
          "midi": 29,
          "name": "F1",
          "ticks": 90526,
          "time": 78.58151864062499,
          "velocity": 0.25196850393700787
        },
        {
          "duration": 0.15277762500001302,
          "durationTicks": 176,
          "midi": 87,
          "name": "D#6",
          "ticks": 90622,
          "time": 78.66485189062499,
          "velocity": 0.3228346456692913
        },
        {
          "duration": 0.15277762500001302,
          "durationTicks": 176,
          "midi": 87,
          "name": "D#6",
          "ticks": 90622,
          "time": 78.66485189062499,
          "velocity": 0.1732283464566929
        },
        {
          "duration": 0.16666650000000516,
          "durationTicks": 192,
          "midi": 28,
          "name": "E1",
          "ticks": 90622,
          "time": 78.66485189062499,
          "velocity": 0.3228346456692913
        },
        {
          "duration": 0.04166662500000484,
          "durationTicks": 48,
          "midi": 56,
          "name": "G#3",
          "ticks": 90814,
          "time": 78.83151839062499,
          "velocity": 0.2755905511811024
        },
        {
          "duration": 0.04166662500000484,
          "durationTicks": 48,
          "midi": 59,
          "name": "B3",
          "ticks": 90814,
          "time": 78.83151839062499,
          "velocity": 0.2755905511811024
        },
        {
          "duration": 0.04166662500000484,
          "durationTicks": 48,
          "midi": 64,
          "name": "E4",
          "ticks": 90814,
          "time": 78.83151839062499,
          "velocity": 0.2755905511811024
        },
        {
          "duration": 0,
          "durationTicks": 0,
          "midi": 88,
          "name": "E6",
          "ticks": 90814,
          "time": 78.83151839062499,
          "velocity": 0.12598425196850394
        },
        {
          "duration": 0.08333324999999547,
          "durationTicks": 96,
          "midi": 40,
          "name": "E2",
          "ticks": 90814,
          "time": 78.83151839062499,
          "velocity": 0.2992125984251969
        },
        {
          "duration": 0,
          "durationTicks": 0,
          "midi": 87,
          "name": "D#6",
          "ticks": 90878,
          "time": 78.887073890625,
          "velocity": 0.14173228346456693
        },
        {
          "duration": 0.05555549999999698,
          "durationTicks": 64,
          "midi": 88,
          "name": "E6",
          "ticks": 90942,
          "time": 78.942629390625,
          "velocity": 0.16535433070866143
        },
        {
          "duration": 0.05555549999999698,
          "durationTicks": 64,
          "midi": 88,
          "name": "E6",
          "ticks": 90942,
          "time": 78.942629390625,
          "velocity": 0.023622047244094488
        },
        {
          "duration": 0.05555549999999698,
          "durationTicks": 64,
          "midi": 87,
          "name": "D#6",
          "ticks": 91006,
          "time": 78.998184890625,
          "velocity": 0.1889763779527559
        },
        {
          "duration": 0.05555549999999698,
          "durationTicks": 64,
          "midi": 87,
          "name": "D#6",
          "ticks": 91006,
          "time": 78.998184890625,
          "velocity": 0.03937007874015748
        },
        {
          "duration": 0.16579844531250387,
          "durationTicks": 191,
          "midi": 28,
          "name": "E1",
          "ticks": 91006,
          "time": 78.998184890625,
          "velocity": 0.3228346456692913
        },
        {
          "duration": 0.16579844531250387,
          "durationTicks": 191,
          "midi": 40,
          "name": "E2",
          "ticks": 91006,
          "time": 78.998184890625,
          "velocity": 0.29133858267716534
        },
        {
          "duration": 0.05468744531250991,
          "durationTicks": 63,
          "midi": 88,
          "name": "E6",
          "ticks": 91070,
          "time": 79.053740390625,
          "velocity": 0.2125984251968504
        },
        {
          "duration": 0.05468744531250991,
          "durationTicks": 63,
          "midi": 88,
          "name": "E6",
          "ticks": 91070,
          "time": 79.053740390625,
          "velocity": 0.06299212598425197
        },
        {
          "duration": 0.05555549999999698,
          "durationTicks": 64,
          "midi": 87,
          "name": "D#6",
          "ticks": 91133,
          "time": 79.1084278359375,
          "velocity": 0.2283464566929134
        },
        {
          "duration": 0.05555549999999698,
          "durationTicks": 64,
          "midi": 87,
          "name": "D#6",
          "ticks": 91133,
          "time": 79.1084278359375,
          "velocity": 0.08661417322834646
        },
        {
          "duration": 0.04166662499999063,
          "durationTicks": 48,
          "midi": 56,
          "name": "G#3",
          "ticks": 91197,
          "time": 79.1639833359375,
          "velocity": 0.2755905511811024
        },
        {
          "duration": 0.04166662499999063,
          "durationTicks": 48,
          "midi": 59,
          "name": "B3",
          "ticks": 91197,
          "time": 79.1639833359375,
          "velocity": 0.2755905511811024
        },
        {
          "duration": 0.04166662499999063,
          "durationTicks": 48,
          "midi": 64,
          "name": "E4",
          "ticks": 91197,
          "time": 79.1639833359375,
          "velocity": 0.2755905511811024
        },
        {
          "duration": 0.05555549999999698,
          "durationTicks": 64,
          "midi": 88,
          "name": "E6",
          "ticks": 91197,
          "time": 79.1639833359375,
          "velocity": 0.25196850393700787
        },
        {
          "duration": 0.05555549999999698,
          "durationTicks": 64,
          "midi": 88,
          "name": "E6",
          "ticks": 91197,
          "time": 79.1639833359375,
          "velocity": 0.10236220472440945
        },
        {
          "duration": 0.08333324999999547,
          "durationTicks": 96,
          "midi": 40,
          "name": "E2",
          "ticks": 91197,
          "time": 79.1639833359375,
          "velocity": 0.2992125984251969
        },
        {
          "duration": 0.05555549999999698,
          "durationTicks": 64,
          "midi": 87,
          "name": "D#6",
          "ticks": 91261,
          "time": 79.2195388359375,
          "velocity": 0.2755905511811024
        },
        {
          "duration": 0.05555549999999698,
          "durationTicks": 64,
          "midi": 87,
          "name": "D#6",
          "ticks": 91261,
          "time": 79.2195388359375,
          "velocity": 0.12598425196850394
        },
        {
          "duration": 0.04166662500000484,
          "durationTicks": 48,
          "midi": 28,
          "name": "E1",
          "ticks": 91293,
          "time": 79.2473165859375,
          "velocity": 0.25196850393700787
        },
        {
          "duration": 0.05555549999999698,
          "durationTicks": 64,
          "midi": 88,
          "name": "E6",
          "ticks": 91325,
          "time": 79.2750943359375,
          "velocity": 0.29133858267716534
        },
        {
          "duration": 0.05555549999999698,
          "durationTicks": 64,
          "midi": 88,
          "name": "E6",
          "ticks": 91325,
          "time": 79.2750943359375,
          "velocity": 0.14960629921259844
        },
        {
          "duration": 0.05555549999999698,
          "durationTicks": 64,
          "midi": 88,
          "name": "E6",
          "ticks": 91389,
          "time": 79.33064983593749,
          "velocity": 0.31496062992125984
        },
        {
          "duration": 0.05555549999999698,
          "durationTicks": 64,
          "midi": 88,
          "name": "E6",
          "ticks": 91389,
          "time": 79.33064983593749,
          "velocity": 0.16535433070866143
        },
        {
          "duration": 0.16666650000000516,
          "durationTicks": 192,
          "midi": 28,
          "name": "E1",
          "ticks": 91389,
          "time": 79.33064983593749,
          "velocity": 0.31496062992125984
        },
        {
          "duration": 0.04166662500000484,
          "durationTicks": 48,
          "midi": 64,
          "name": "E4",
          "ticks": 91581,
          "time": 79.4973163359375,
          "velocity": 0.2755905511811024
        },
        {
          "duration": 0.04166662500000484,
          "durationTicks": 48,
          "midi": 56,
          "name": "G#3",
          "ticks": 91581,
          "time": 79.4973163359375,
          "velocity": 0.2755905511811024
        },
        {
          "duration": 0.04166662500000484,
          "durationTicks": 48,
          "midi": 59,
          "name": "B3",
          "ticks": 91581,
          "time": 79.4973163359375,
          "velocity": 0.2755905511811024
        },
        {
          "duration": 0.3333329999999961,
          "durationTicks": 384,
          "midi": 56,
          "name": "G#3",
          "ticks": 91773,
          "time": 79.6639828359375,
          "velocity": 0.2755905511811024
        },
        {
          "duration": 0.3333329999999961,
          "durationTicks": 384,
          "midi": 59,
          "name": "B3",
          "ticks": 91773,
          "time": 79.6639828359375,
          "velocity": 0.2755905511811024
        },
        {
          "duration": 0.3333329999999961,
          "durationTicks": 384,
          "midi": 52,
          "name": "E3",
          "ticks": 91773,
          "time": 79.6639828359375,
          "velocity": 0.2755905511811024
        },
        {
          "duration": 0.16666649999999095,
          "durationTicks": 192,
          "midi": 40,
          "name": "E2",
          "ticks": 91773,
          "time": 79.6639828359375,
          "velocity": 0.2992125984251969
        },
        {
          "duration": 0.16666649999999095,
          "durationTicks": 192,
          "midi": 28,
          "name": "E1",
          "ticks": 91773,
          "time": 79.6639828359375,
          "velocity": 0.31496062992125984
        },
        {
          "duration": 0.3333329999999961,
          "durationTicks": 384,
          "midi": 40,
          "name": "E2",
          "ticks": 91773,
          "time": 79.6639828359375,
          "velocity": 0.29133858267716534
        },
        {
          "duration": 0.08333325000000968,
          "durationTicks": 96,
          "midi": 93,
          "name": "A6",
          "ticks": 91965,
          "time": 79.8306493359375,
          "velocity": 0.3228346456692913
        },
        {
          "duration": 0.08333325000000968,
          "durationTicks": 96,
          "midi": 93,
          "name": "A6",
          "ticks": 91965,
          "time": 79.8306493359375,
          "velocity": 0.1732283464566929
        },
        {
          "duration": 0.08333324999999547,
          "durationTicks": 96,
          "midi": 91,
          "name": "G6",
          "ticks": 92061,
          "time": 79.9139825859375,
          "velocity": 0.3228346456692913
        },
        {
          "duration": 0.08333324999999547,
          "durationTicks": 96,
          "midi": 91,
          "name": "G6",
          "ticks": 92061,
          "time": 79.9139825859375,
          "velocity": 0.1732283464566929
        },
        {
          "duration": 0.04166662499999063,
          "durationTicks": 48,
          "midi": 28,
          "name": "E1",
          "ticks": 92061,
          "time": 79.9139825859375,
          "velocity": 0.25196850393700787
        },
        {
          "duration": 0.08333324999999547,
          "durationTicks": 96,
          "midi": 87,
          "name": "D#6",
          "ticks": 92157,
          "time": 79.9973158359375,
          "velocity": 0.3228346456692913
        },
        {
          "duration": 0.08333324999999547,
          "durationTicks": 96,
          "midi": 87,
          "name": "D#6",
          "ticks": 92157,
          "time": 79.9973158359375,
          "velocity": 0.1732283464566929
        },
        {
          "duration": 0.16666650000000516,
          "durationTicks": 192,
          "midi": 33,
          "name": "A1",
          "ticks": 92157,
          "time": 79.9973158359375,
          "velocity": 0.3228346456692913
        },
        {
          "duration": 0.08333325000000968,
          "durationTicks": 96,
          "midi": 86,
          "name": "D6",
          "ticks": 92253,
          "time": 80.0806490859375,
          "velocity": 0.3228346456692913
        },
        {
          "duration": 0.08333325000000968,
          "durationTicks": 96,
          "midi": 86,
          "name": "D6",
          "ticks": 92253,
          "time": 80.0806490859375,
          "velocity": 0.1732283464566929
        },
        {
          "duration": 0.04166662499999063,
          "durationTicks": 48,
          "midi": 60,
          "name": "C4",
          "ticks": 92349,
          "time": 80.1639823359375,
          "velocity": 0.2755905511811024
        },
        {
          "duration": 0.04166662499999063,
          "durationTicks": 48,
          "midi": 64,
          "name": "E4",
          "ticks": 92349,
          "time": 80.1639823359375,
          "velocity": 0.2755905511811024
        },
        {
          "duration": 0.04166662499999063,
          "durationTicks": 48,
          "midi": 57,
          "name": "A3",
          "ticks": 92349,
          "time": 80.1639823359375,
          "velocity": 0.2755905511811024
        },
        {
          "duration": 0.08333324999999547,
          "durationTicks": 96,
          "midi": 84,
          "name": "C6",
          "ticks": 92349,
          "time": 80.1639823359375,
          "velocity": 0.3228346456692913
        },
        {
          "duration": 0.08333324999999547,
          "durationTicks": 96,
          "midi": 84,
          "name": "C6",
          "ticks": 92349,
          "time": 80.1639823359375,
          "velocity": 0.1732283464566929
        },
        {
          "duration": 0.08333324999999547,
          "durationTicks": 96,
          "midi": 45,
          "name": "A2",
          "ticks": 92349,
          "time": 80.1639823359375,
          "velocity": 0.2992125984251969
        },
        {
          "duration": 0.08333324999999547,
          "durationTicks": 96,
          "midi": 81,
          "name": "A5",
          "ticks": 92445,
          "time": 80.2473155859375,
          "velocity": 0.2283464566929134
        },
        {
          "duration": 0.08333324999999547,
          "durationTicks": 96,
          "midi": 87,
          "name": "D#6",
          "ticks": 92445,
          "time": 80.2473155859375,
          "velocity": 0.3228346456692913
        },
        {
          "duration": 0.08333324999999547,
          "durationTicks": 96,
          "midi": 87,
          "name": "D#6",
          "ticks": 92445,
          "time": 80.2473155859375,
          "velocity": 0.1732283464566929
        },
        {
          "duration": 0.08333324999999547,
          "durationTicks": 96,
          "midi": 81,
          "name": "A5",
          "ticks": 92445,
          "time": 80.2473155859375,
          "velocity": 0.07874015748031496
        },
        {
          "duration": 0.08333324999999547,
          "durationTicks": 96,
          "midi": 86,
          "name": "D6",
          "ticks": 92541,
          "time": 80.3306488359375,
          "velocity": 0.3228346456692913
        },
        {
          "duration": 0.08333324999999547,
          "durationTicks": 96,
          "midi": 86,
          "name": "D6",
          "ticks": 92541,
          "time": 80.3306488359375,
          "velocity": 0.1732283464566929
        },
        {
          "duration": 0.16666650000000516,
          "durationTicks": 192,
          "midi": 33,
          "name": "A1",
          "ticks": 92541,
          "time": 80.3306488359375,
          "velocity": 0.3228346456692913
        },
        {
          "duration": 0.16666650000000516,
          "durationTicks": 192,
          "midi": 45,
          "name": "A2",
          "ticks": 92541,
          "time": 80.3306488359375,
          "velocity": 0.29133858267716534
        },
        {
          "duration": 0.08333325000000968,
          "durationTicks": 96,
          "midi": 84,
          "name": "C6",
          "ticks": 92637,
          "time": 80.41398208593749,
          "velocity": 0.3228346456692913
        },
        {
          "duration": 0.08333325000000968,
          "durationTicks": 96,
          "midi": 84,
          "name": "C6",
          "ticks": 92637,
          "time": 80.41398208593749,
          "velocity": 0.1732283464566929
        },
        {
          "duration": 0.04166662499999063,
          "durationTicks": 48,
          "midi": 60,
          "name": "C4",
          "ticks": 92733,
          "time": 80.4973153359375,
          "velocity": 0.2755905511811024
        },
        {
          "duration": 0.04166662499999063,
          "durationTicks": 48,
          "midi": 64,
          "name": "E4",
          "ticks": 92733,
          "time": 80.4973153359375,
          "velocity": 0.2755905511811024
        },
        {
          "duration": 0.04166662499999063,
          "durationTicks": 48,
          "midi": 57,
          "name": "A3",
          "ticks": 92733,
          "time": 80.4973153359375,
          "velocity": 0.2755905511811024
        },
        {
          "duration": 0.08333324999999547,
          "durationTicks": 96,
          "midi": 87,
          "name": "D#6",
          "ticks": 92733,
          "time": 80.4973153359375,
          "velocity": 0.3228346456692913
        },
        {
          "duration": 0.08333324999999547,
          "durationTicks": 96,
          "midi": 81,
          "name": "A5",
          "ticks": 92733,
          "time": 80.4973153359375,
          "velocity": 0.23622047244094488
        },
        {
          "duration": 0.08333324999999547,
          "durationTicks": 96,
          "midi": 87,
          "name": "D#6",
          "ticks": 92733,
          "time": 80.4973153359375,
          "velocity": 0.1732283464566929
        },
        {
          "duration": 0.08333324999999547,
          "durationTicks": 96,
          "midi": 81,
          "name": "A5",
          "ticks": 92733,
          "time": 80.4973153359375,
          "velocity": 0.09448818897637795
        },
        {
          "duration": 0.08333324999999547,
          "durationTicks": 96,
          "midi": 45,
          "name": "A2",
          "ticks": 92733,
          "time": 80.4973153359375,
          "velocity": 0.2992125984251969
        },
        {
          "duration": 0.08333324999999547,
          "durationTicks": 96,
          "midi": 86,
          "name": "D6",
          "ticks": 92829,
          "time": 80.5806485859375,
          "velocity": 0.3228346456692913
        },
        {
          "duration": 0.08333324999999547,
          "durationTicks": 96,
          "midi": 86,
          "name": "D6",
          "ticks": 92829,
          "time": 80.5806485859375,
          "velocity": 0.1732283464566929
        },
        {
          "duration": 0.04166662500000484,
          "durationTicks": 48,
          "midi": 33,
          "name": "A1",
          "ticks": 92829,
          "time": 80.5806485859375,
          "velocity": 0.25196850393700787
        },
        {
          "duration": 0.08333325000000968,
          "durationTicks": 96,
          "midi": 84,
          "name": "C6",
          "ticks": 92925,
          "time": 80.66398183593749,
          "velocity": 0.3228346456692913
        },
        {
          "duration": 0.08333325000000968,
          "durationTicks": 96,
          "midi": 84,
          "name": "C6",
          "ticks": 92925,
          "time": 80.66398183593749,
          "velocity": 0.1732283464566929
        },
        {
          "duration": 0.16666650000000516,
          "durationTicks": 192,
          "midi": 33,
          "name": "A1",
          "ticks": 92925,
          "time": 80.66398183593749,
          "velocity": 0.3228346456692913
        },
        {
          "duration": 0.08333324999999547,
          "durationTicks": 96,
          "midi": 87,
          "name": "D#6",
          "ticks": 93021,
          "time": 80.7473150859375,
          "velocity": 0.3228346456692913
        },
        {
          "duration": 0.08333324999999547,
          "durationTicks": 96,
          "midi": 81,
          "name": "A5",
          "ticks": 93021,
          "time": 80.7473150859375,
          "velocity": 0.25196850393700787
        },
        {
          "duration": 0.08333324999999547,
          "durationTicks": 96,
          "midi": 87,
          "name": "D#6",
          "ticks": 93021,
          "time": 80.7473150859375,
          "velocity": 0.1732283464566929
        },
        {
          "duration": 0.08333324999999547,
          "durationTicks": 96,
          "midi": 81,
          "name": "A5",
          "ticks": 93021,
          "time": 80.7473150859375,
          "velocity": 0.11023622047244094
        },
        {
          "duration": 0.04166662500000484,
          "durationTicks": 48,
          "midi": 60,
          "name": "C4",
          "ticks": 93117,
          "time": 80.8306483359375,
          "velocity": 0.2755905511811024
        },
        {
          "duration": 0.04166662500000484,
          "durationTicks": 48,
          "midi": 57,
          "name": "A3",
          "ticks": 93117,
          "time": 80.8306483359375,
          "velocity": 0.2755905511811024
        },
        {
          "duration": 0.04166662500000484,
          "durationTicks": 48,
          "midi": 64,
          "name": "E4",
          "ticks": 93117,
          "time": 80.8306483359375,
          "velocity": 0.2755905511811024
        },
        {
          "duration": 0.08333324999999547,
          "durationTicks": 96,
          "midi": 86,
          "name": "D6",
          "ticks": 93117,
          "time": 80.8306483359375,
          "velocity": 0.3228346456692913
        },
        {
          "duration": 0.08333324999999547,
          "durationTicks": 96,
          "midi": 86,
          "name": "D6",
          "ticks": 93117,
          "time": 80.8306483359375,
          "velocity": 0.1732283464566929
        },
        {
          "duration": 0.08333324999999547,
          "durationTicks": 96,
          "midi": 45,
          "name": "A2",
          "ticks": 93117,
          "time": 80.8306483359375,
          "velocity": 0.2992125984251969
        },
        {
          "duration": 0.08333325000000968,
          "durationTicks": 96,
          "midi": 84,
          "name": "C6",
          "ticks": 93213,
          "time": 80.91398158593749,
          "velocity": 0.3228346456692913
        },
        {
          "duration": 0.08333325000000968,
          "durationTicks": 96,
          "midi": 84,
          "name": "C6",
          "ticks": 93213,
          "time": 80.91398158593749,
          "velocity": 0.1732283464566929
        },
        {
          "duration": 0.08333324999999547,
          "durationTicks": 96,
          "midi": 81,
          "name": "A5",
          "ticks": 93309,
          "time": 80.9973148359375,
          "velocity": 0.2677165354330709
        },
        {
          "duration": 0.08333324999999547,
          "durationTicks": 96,
          "midi": 87,
          "name": "D#6",
          "ticks": 93309,
          "time": 80.9973148359375,
          "velocity": 0.3228346456692913
        },
        {
          "duration": 0.08333324999999547,
          "durationTicks": 96,
          "midi": 81,
          "name": "A5",
          "ticks": 93309,
          "time": 80.9973148359375,
          "velocity": 0.11811023622047244
        },
        {
          "duration": 0.08333324999999547,
          "durationTicks": 96,
          "midi": 87,
          "name": "D#6",
          "ticks": 93309,
          "time": 80.9973148359375,
          "velocity": 0.1732283464566929
        },
        {
          "duration": 0.16666649999999095,
          "durationTicks": 192,
          "midi": 33,
          "name": "A1",
          "ticks": 93309,
          "time": 80.9973148359375,
          "velocity": 0.3228346456692913
        },
        {
          "duration": 0.16666649999999095,
          "durationTicks": 192,
          "midi": 45,
          "name": "A2",
          "ticks": 93309,
          "time": 80.9973148359375,
          "velocity": 0.29133858267716534
        },
        {
          "duration": 0.08333324999999547,
          "durationTicks": 96,
          "midi": 86,
          "name": "D6",
          "ticks": 93405,
          "time": 81.0806480859375,
          "velocity": 0.3228346456692913
        },
        {
          "duration": 0.08333324999999547,
          "durationTicks": 96,
          "midi": 86,
          "name": "D6",
          "ticks": 93405,
          "time": 81.0806480859375,
          "velocity": 0.1732283464566929
        },
        {
          "duration": 0.04166662500000484,
          "durationTicks": 48,
          "midi": 64,
          "name": "E4",
          "ticks": 93501,
          "time": 81.16398133593749,
          "velocity": 0.2755905511811024
        },
        {
          "duration": 0.04166662500000484,
          "durationTicks": 48,
          "midi": 57,
          "name": "A3",
          "ticks": 93501,
          "time": 81.16398133593749,
          "velocity": 0.2755905511811024
        },
        {
          "duration": 0.04166662500000484,
          "durationTicks": 48,
          "midi": 60,
          "name": "C4",
          "ticks": 93501,
          "time": 81.16398133593749,
          "velocity": 0.2755905511811024
        },
        {
          "duration": 0.08333325000000968,
          "durationTicks": 96,
          "midi": 84,
          "name": "C6",
          "ticks": 93501,
          "time": 81.16398133593749,
          "velocity": 0.3228346456692913
        },
        {
          "duration": 0.08333325000000968,
          "durationTicks": 96,
          "midi": 84,
          "name": "C6",
          "ticks": 93501,
          "time": 81.16398133593749,
          "velocity": 0.1732283464566929
        },
        {
          "duration": 0.08333325000000968,
          "durationTicks": 96,
          "midi": 45,
          "name": "A2",
          "ticks": 93501,
          "time": 81.16398133593749,
          "velocity": 0.2992125984251969
        },
        {
          "duration": 0.08333324999999547,
          "durationTicks": 96,
          "midi": 81,
          "name": "A5",
          "ticks": 93597,
          "time": 81.2473145859375,
          "velocity": 0.3228346456692913
        },
        {
          "duration": 0.08333324999999547,
          "durationTicks": 96,
          "midi": 81,
          "name": "A5",
          "ticks": 93597,
          "time": 81.2473145859375,
          "velocity": 0.1732283464566929
        },
        {
          "duration": 0.04166662499999063,
          "durationTicks": 48,
          "midi": 33,
          "name": "A1",
          "ticks": 93597,
          "time": 81.2473145859375,
          "velocity": 0.25196850393700787
        },
        {
          "duration": 0.08333324999999547,
          "durationTicks": 96,
          "midi": 80,
          "name": "G#5",
          "ticks": 93693,
          "time": 81.3306478359375,
          "velocity": 0.3228346456692913
        },
        {
          "duration": 0.08333324999999547,
          "durationTicks": 96,
          "midi": 80,
          "name": "G#5",
          "ticks": 93693,
          "time": 81.3306478359375,
          "velocity": 0.1732283464566929
        },
        {
          "duration": 0.16666650000000516,
          "durationTicks": 192,
          "midi": 36,
          "name": "C2",
          "ticks": 93693,
          "time": 81.3306478359375,
          "velocity": 0.3228346456692913
        },
        {
          "duration": 0.08333325000000968,
          "durationTicks": 96,
          "midi": 81,
          "name": "A5",
          "ticks": 93789,
          "time": 81.4139810859375,
          "velocity": 0.3228346456692913
        },
        {
          "duration": 0.08333325000000968,
          "durationTicks": 96,
          "midi": 81,
          "name": "A5",
          "ticks": 93789,
          "time": 81.4139810859375,
          "velocity": 0.1732283464566929
        },
        {
          "duration": 0.04166662499999063,
          "durationTicks": 48,
          "midi": 64,
          "name": "E4",
          "ticks": 93885,
          "time": 81.4973143359375,
          "velocity": 0.2755905511811024
        },
        {
          "duration": 0.04166662499999063,
          "durationTicks": 48,
          "midi": 57,
          "name": "A3",
          "ticks": 93885,
          "time": 81.4973143359375,
          "velocity": 0.2755905511811024
        },
        {
          "duration": 0.04166662499999063,
          "durationTicks": 48,
          "midi": 55,
          "name": "G3",
          "ticks": 93885,
          "time": 81.4973143359375,
          "velocity": 0.2755905511811024
        },
        {
          "duration": 0.04166662499999063,
          "durationTicks": 48,
          "midi": 60,
          "name": "C4",
          "ticks": 93885,
          "time": 81.4973143359375,
          "velocity": 0.2755905511811024
        },
        {
          "duration": 0.05555549999999698,
          "durationTicks": 64,
          "midi": 75,
          "name": "D#5",
          "ticks": 93885,
          "time": 81.4973143359375,
          "velocity": 0.3228346456692913
        },
        {
          "duration": 0.05555549999999698,
          "durationTicks": 64,
          "midi": 75,
          "name": "D#5",
          "ticks": 93885,
          "time": 81.4973143359375,
          "velocity": 0.1732283464566929
        },
        {
          "duration": 0.08333324999999547,
          "durationTicks": 96,
          "midi": 48,
          "name": "C3",
          "ticks": 93885,
          "time": 81.4973143359375,
          "velocity": 0.2992125984251969
        },
        {
          "duration": 0.05555549999999698,
          "durationTicks": 64,
          "midi": 74,
          "name": "D5",
          "ticks": 93949,
          "time": 81.5528698359375,
          "velocity": 0.3228346456692913
        },
        {
          "duration": 0.05555549999999698,
          "durationTicks": 64,
          "midi": 74,
          "name": "D5",
          "ticks": 93949,
          "time": 81.5528698359375,
          "velocity": 0.1732283464566929
        },
        {
          "duration": 0.05555549999999698,
          "durationTicks": 64,
          "midi": 72,
          "name": "C5",
          "ticks": 94013,
          "time": 81.6084253359375,
          "velocity": 0.3228346456692913
        },
        {
          "duration": 0.05555549999999698,
          "durationTicks": 64,
          "midi": 72,
          "name": "C5",
          "ticks": 94013,
          "time": 81.6084253359375,
          "velocity": 0.1732283464566929
        },
        {
          "duration": 0.08333325000000968,
          "durationTicks": 96,
          "midi": 74,
          "name": "D5",
          "ticks": 94077,
          "time": 81.6639808359375,
          "velocity": 0.3228346456692913
        },
        {
          "duration": 0.08333325000000968,
          "durationTicks": 96,
          "midi": 74,
          "name": "D5",
          "ticks": 94077,
          "time": 81.6639808359375,
          "velocity": 0.1732283464566929
        },
        {
          "duration": 0.16666650000000516,
          "durationTicks": 192,
          "midi": 36,
          "name": "C2",
          "ticks": 94077,
          "time": 81.6639808359375,
          "velocity": 0.3228346456692913
        },
        {
          "duration": 0.16666650000000516,
          "durationTicks": 192,
          "midi": 48,
          "name": "C3",
          "ticks": 94077,
          "time": 81.6639808359375,
          "velocity": 0.29133858267716534
        },
        {
          "duration": 0.08333324999999547,
          "durationTicks": 96,
          "midi": 76,
          "name": "E5",
          "ticks": 94173,
          "time": 81.7473140859375,
          "velocity": 0.3228346456692913
        },
        {
          "duration": 0.08333324999999547,
          "durationTicks": 96,
          "midi": 76,
          "name": "E5",
          "ticks": 94173,
          "time": 81.7473140859375,
          "velocity": 0.1732283464566929
        },
        {
          "duration": 0.04166662500000484,
          "durationTicks": 48,
          "midi": 55,
          "name": "G3",
          "ticks": 94269,
          "time": 81.8306473359375,
          "velocity": 0.2755905511811024
        },
        {
          "duration": 0.04166662500000484,
          "durationTicks": 48,
          "midi": 64,
          "name": "E4",
          "ticks": 94269,
          "time": 81.8306473359375,
          "velocity": 0.2755905511811024
        },
        {
          "duration": 0.04166662500000484,
          "durationTicks": 48,
          "midi": 57,
          "name": "A3",
          "ticks": 94269,
          "time": 81.8306473359375,
          "velocity": 0.2755905511811024
        },
        {
          "duration": 0.04166662500000484,
          "durationTicks": 48,
          "midi": 60,
          "name": "C4",
          "ticks": 94269,
          "time": 81.8306473359375,
          "velocity": 0.2755905511811024
        },
        {
          "duration": 0.05555549999999698,
          "durationTicks": 64,
          "midi": 70,
          "name": "A#4",
          "ticks": 94269,
          "time": 81.8306473359375,
          "velocity": 0.3228346456692913
        },
        {
          "duration": 0.05555549999999698,
          "durationTicks": 64,
          "midi": 70,
          "name": "A#4",
          "ticks": 94269,
          "time": 81.8306473359375,
          "velocity": 0.1732283464566929
        },
        {
          "duration": 0.08333324999999547,
          "durationTicks": 96,
          "midi": 48,
          "name": "C3",
          "ticks": 94269,
          "time": 81.8306473359375,
          "velocity": 0.2992125984251969
        },
        {
          "duration": 0.05555550000001119,
          "durationTicks": 64,
          "midi": 69,
          "name": "A4",
          "ticks": 94333,
          "time": 81.8862028359375,
          "velocity": 0.3228346456692913
        },
        {
          "duration": 0.05555550000001119,
          "durationTicks": 64,
          "midi": 69,
          "name": "A4",
          "ticks": 94333,
          "time": 81.8862028359375,
          "velocity": 0.1732283464566929
        },
        {
          "duration": 0.04166662500000484,
          "durationTicks": 48,
          "midi": 36,
          "name": "C2",
          "ticks": 94365,
          "time": 81.9139805859375,
          "velocity": 0.25196850393700787
        },
        {
          "duration": 0.05555549999999698,
          "durationTicks": 64,
          "midi": 68,
          "name": "G#4",
          "ticks": 94397,
          "time": 81.94175833593751,
          "velocity": 0.3228346456692913
        },
        {
          "duration": 0.05555549999999698,
          "durationTicks": 64,
          "midi": 68,
          "name": "G#4",
          "ticks": 94397,
          "time": 81.94175833593751,
          "velocity": 0.1732283464566929
        },
        {
          "duration": 0.08333324999999547,
          "durationTicks": 96,
          "midi": 67,
          "name": "G4",
          "ticks": 94461,
          "time": 81.9973138359375,
          "velocity": 0.3228346456692913
        },
        {
          "duration": 0.08333324999999547,
          "durationTicks": 96,
          "midi": 67,
          "name": "G4",
          "ticks": 94461,
          "time": 81.9973138359375,
          "velocity": 0.1732283464566929
        },
        {
          "duration": 0.16666649999999095,
          "durationTicks": 192,
          "midi": 36,
          "name": "C2",
          "ticks": 94461,
          "time": 81.9973138359375,
          "velocity": 0.3228346456692913
        },
        {
          "duration": 0.08333324999999547,
          "durationTicks": 96,
          "midi": 69,
          "name": "A4",
          "ticks": 94557,
          "time": 82.0806470859375,
          "velocity": 0.3228346456692913
        },
        {
          "duration": 0.08333324999999547,
          "durationTicks": 96,
          "midi": 69,
          "name": "A4",
          "ticks": 94557,
          "time": 82.0806470859375,
          "velocity": 0.1732283464566929
        },
        {
          "duration": 0.04166662500000484,
          "durationTicks": 48,
          "midi": 64,
          "name": "E4",
          "ticks": 94653,
          "time": 82.1639803359375,
          "velocity": 0.2755905511811024
        },
        {
          "duration": 0.04166662500000484,
          "durationTicks": 48,
          "midi": 57,
          "name": "A3",
          "ticks": 94653,
          "time": 82.1639803359375,
          "velocity": 0.2755905511811024
        },
        {
          "duration": 0.04166662500000484,
          "durationTicks": 48,
          "midi": 55,
          "name": "G3",
          "ticks": 94653,
          "time": 82.1639803359375,
          "velocity": 0.2755905511811024
        },
        {
          "duration": 0.04166662500000484,
          "durationTicks": 48,
          "midi": 60,
          "name": "C4",
          "ticks": 94653,
          "time": 82.1639803359375,
          "velocity": 0.2755905511811024
        },
        {
          "duration": 0.05555549999999698,
          "durationTicks": 64,
          "midi": 64,
          "name": "E4",
          "ticks": 94653,
          "time": 82.1639803359375,
          "velocity": 0.3228346456692913
        },
        {
          "duration": 0.05555549999999698,
          "durationTicks": 64,
          "midi": 64,
          "name": "E4",
          "ticks": 94653,
          "time": 82.1639803359375,
          "velocity": 0.1732283464566929
        },
        {
          "duration": 0.08333324999999547,
          "durationTicks": 96,
          "midi": 48,
          "name": "C3",
          "ticks": 94653,
          "time": 82.1639803359375,
          "velocity": 0.2992125984251969
        },
        {
          "duration": 0.05555550000001119,
          "durationTicks": 64,
          "midi": 63,
          "name": "D#4",
          "ticks": 94717,
          "time": 82.21953583593749,
          "velocity": 0.3228346456692913
        },
        {
          "duration": 0.05555550000001119,
          "durationTicks": 64,
          "midi": 63,
          "name": "D#4",
          "ticks": 94717,
          "time": 82.21953583593749,
          "velocity": 0.1732283464566929
        },
        {
          "duration": 0.05555549999999698,
          "durationTicks": 64,
          "midi": 62,
          "name": "D4",
          "ticks": 94781,
          "time": 82.2750913359375,
          "velocity": 0.3228346456692913
        },
        {
          "duration": 0.05555549999999698,
          "durationTicks": 64,
          "midi": 62,
          "name": "D4",
          "ticks": 94781,
          "time": 82.2750913359375,
          "velocity": 0.1732283464566929
        },
        {
          "duration": 0.08333324999999547,
          "durationTicks": 96,
          "midi": 62,
          "name": "D4",
          "ticks": 94845,
          "time": 82.3306468359375,
          "velocity": 0.3228346456692913
        },
        {
          "duration": 0.08333324999999547,
          "durationTicks": 96,
          "midi": 62,
          "name": "D4",
          "ticks": 94845,
          "time": 82.3306468359375,
          "velocity": 0.1732283464566929
        },
        {
          "duration": 0.16666649999999095,
          "durationTicks": 192,
          "midi": 36,
          "name": "C2",
          "ticks": 94845,
          "time": 82.3306468359375,
          "velocity": 0.3228346456692913
        },
        {
          "duration": 0.16666649999999095,
          "durationTicks": 192,
          "midi": 48,
          "name": "C3",
          "ticks": 94845,
          "time": 82.3306468359375,
          "velocity": 0.29133858267716534
        },
        {
          "duration": 0.08333324999999547,
          "durationTicks": 96,
          "midi": 60,
          "name": "C4",
          "ticks": 94941,
          "time": 82.4139800859375,
          "velocity": 0.3228346456692913
        },
        {
          "duration": 0.08333324999999547,
          "durationTicks": 96,
          "midi": 60,
          "name": "C4",
          "ticks": 94941,
          "time": 82.4139800859375,
          "velocity": 0.1732283464566929
        },
        {
          "duration": 0.04166662500000484,
          "durationTicks": 48,
          "midi": 60,
          "name": "C4",
          "ticks": 95037,
          "time": 82.49731333593749,
          "velocity": 0.2755905511811024
        },
        {
          "duration": 0.04166662500000484,
          "durationTicks": 48,
          "midi": 57,
          "name": "A3",
          "ticks": 95037,
          "time": 82.49731333593749,
          "velocity": 0.2755905511811024
        },
        {
          "duration": 0.04166662500000484,
          "durationTicks": 48,
          "midi": 55,
          "name": "G3",
          "ticks": 95037,
          "time": 82.49731333593749,
          "velocity": 0.2755905511811024
        },
        {
          "duration": 0.04166662500000484,
          "durationTicks": 48,
          "midi": 64,
          "name": "E4",
          "ticks": 95037,
          "time": 82.49731333593749,
          "velocity": 0.2755905511811024
        },
        {
          "duration": 0.08333325000000968,
          "durationTicks": 96,
          "midi": 57,
          "name": "A3",
          "ticks": 95037,
          "time": 82.49731333593749,
          "velocity": 0.3228346456692913
        },
        {
          "duration": 0.08333325000000968,
          "durationTicks": 96,
          "midi": 57,
          "name": "A3",
          "ticks": 95037,
          "time": 82.49731333593749,
          "velocity": 0.1732283464566929
        },
        {
          "duration": 0.08333325000000968,
          "durationTicks": 96,
          "midi": 48,
          "name": "C3",
          "ticks": 95037,
          "time": 82.49731333593749,
          "velocity": 0.2992125984251969
        },
        {
          "duration": 0.08333324999999547,
          "durationTicks": 96,
          "midi": 55,
          "name": "G3",
          "ticks": 95133,
          "time": 82.5806465859375,
          "velocity": 0.3228346456692913
        },
        {
          "duration": 0.08333324999999547,
          "durationTicks": 96,
          "midi": 55,
          "name": "G3",
          "ticks": 95133,
          "time": 82.5806465859375,
          "velocity": 0.1732283464566929
        },
        {
          "duration": 0.04166662499999063,
          "durationTicks": 48,
          "midi": 36,
          "name": "C2",
          "ticks": 95133,
          "time": 82.5806465859375,
          "velocity": 0.25196850393700787
        },
        {
          "duration": 0.08333324999999547,
          "durationTicks": 96,
          "midi": 69,
          "name": "A4",
          "ticks": 95229,
          "time": 82.6639798359375,
          "velocity": 0.3228346456692913
        },
        {
          "duration": 0.08333324999999547,
          "durationTicks": 96,
          "midi": 69,
          "name": "A4",
          "ticks": 95229,
          "time": 82.6639798359375,
          "velocity": 0.1732283464566929
        },
        {
          "duration": 0.16666650000000516,
          "durationTicks": 192,
          "midi": 29,
          "name": "F1",
          "ticks": 95229,
          "time": 82.6639798359375,
          "velocity": 0.3228346456692913
        },
        {
          "duration": 0.08333325000000968,
          "durationTicks": 96,
          "midi": 57,
          "name": "A3",
          "ticks": 95325,
          "time": 82.74731308593749,
          "velocity": 0.2677165354330709
        },
        {
          "duration": 0.08333325000000968,
          "durationTicks": 96,
          "midi": 57,
          "name": "A3",
          "ticks": 95325,
          "time": 82.74731308593749,
          "velocity": 0.12598425196850394
        },
        {
          "duration": 0.04166662499999063,
          "durationTicks": 48,
          "midi": 60,
          "name": "C4",
          "ticks": 95421,
          "time": 82.8306463359375,
          "velocity": 0.2755905511811024
        },
        {
          "duration": 0.04166662499999063,
          "durationTicks": 48,
          "midi": 57,
          "name": "A3",
          "ticks": 95421,
          "time": 82.8306463359375,
          "velocity": 0.2755905511811024
        },
        {
          "duration": 0.04166662499999063,
          "durationTicks": 48,
          "midi": 53,
          "name": "F3",
          "ticks": 95421,
          "time": 82.8306463359375,
          "velocity": 0.2755905511811024
        },
        {
          "duration": 0.04166662499999063,
          "durationTicks": 48,
          "midi": 63,
          "name": "D#4",
          "ticks": 95421,
          "time": 82.8306463359375,
          "velocity": 0.2755905511811024
        },
        {
          "duration": 0.08333324999999547,
          "durationTicks": 96,
          "midi": 67,
          "name": "G4",
          "ticks": 95421,
          "time": 82.8306463359375,
          "velocity": 0.3228346456692913
        },
        {
          "duration": 0.08333324999999547,
          "durationTicks": 96,
          "midi": 67,
          "name": "G4",
          "ticks": 95421,
          "time": 82.8306463359375,
          "velocity": 0.1732283464566929
        },
        {
          "duration": 0.08333324999999547,
          "durationTicks": 96,
          "midi": 41,
          "name": "F2",
          "ticks": 95421,
          "time": 82.8306463359375,
          "velocity": 0.2992125984251969
        },
        {
          "duration": 0.08333324999999547,
          "durationTicks": 96,
          "midi": 55,
          "name": "G3",
          "ticks": 95517,
          "time": 82.9139795859375,
          "velocity": 0.2677165354330709
        },
        {
          "duration": 0.08333324999999547,
          "durationTicks": 96,
          "midi": 55,
          "name": "G3",
          "ticks": 95517,
          "time": 82.9139795859375,
          "velocity": 0.12598425196850394
        },
        {
          "duration": 0.08333325000000968,
          "durationTicks": 96,
          "midi": 72,
          "name": "C5",
          "ticks": 95613,
          "time": 82.99731283593749,
          "velocity": 0.3228346456692913
        },
        {
          "duration": 0.08333325000000968,
          "durationTicks": 96,
          "midi": 72,
          "name": "C5",
          "ticks": 95613,
          "time": 82.99731283593749,
          "velocity": 0.1732283464566929
        },
        {
          "duration": 0.16666650000000516,
          "durationTicks": 192,
          "midi": 29,
          "name": "F1",
          "ticks": 95613,
          "time": 82.99731283593749,
          "velocity": 0.3228346456692913
        },
        {
          "duration": 0.16666650000000516,
          "durationTicks": 192,
          "midi": 41,
          "name": "F2",
          "ticks": 95613,
          "time": 82.99731283593749,
          "velocity": 0.29133858267716534
        },
        {
          "duration": 0.08333324999999547,
          "durationTicks": 96,
          "midi": 60,
          "name": "C4",
          "ticks": 95709,
          "time": 83.0806460859375,
          "velocity": 0.2677165354330709
        },
        {
          "duration": 0.08333324999999547,
          "durationTicks": 96,
          "midi": 60,
          "name": "C4",
          "ticks": 95709,
          "time": 83.0806460859375,
          "velocity": 0.12598425196850394
        },
        {
          "duration": 0.04166662500000484,
          "durationTicks": 48,
          "midi": 63,
          "name": "D#4",
          "ticks": 95805,
          "time": 83.1639793359375,
          "velocity": 0.2755905511811024
        },
        {
          "duration": 0.04166662500000484,
          "durationTicks": 48,
          "midi": 53,
          "name": "F3",
          "ticks": 95805,
          "time": 83.1639793359375,
          "velocity": 0.2755905511811024
        },
        {
          "duration": 0.04166662500000484,
          "durationTicks": 48,
          "midi": 60,
          "name": "C4",
          "ticks": 95805,
          "time": 83.1639793359375,
          "velocity": 0.2755905511811024
        },
        {
          "duration": 0.04166662500000484,
          "durationTicks": 48,
          "midi": 57,
          "name": "A3",
          "ticks": 95805,
          "time": 83.1639793359375,
          "velocity": 0.2755905511811024
        },
        {
          "duration": 0.08333324999999547,
          "durationTicks": 96,
          "midi": 67,
          "name": "G4",
          "ticks": 95805,
          "time": 83.1639793359375,
          "velocity": 0.3228346456692913
        },
        {
          "duration": 0.08333324999999547,
          "durationTicks": 96,
          "midi": 67,
          "name": "G4",
          "ticks": 95805,
          "time": 83.1639793359375,
          "velocity": 0.1732283464566929
        },
        {
          "duration": 0.08333324999999547,
          "durationTicks": 96,
          "midi": 41,
          "name": "F2",
          "ticks": 95805,
          "time": 83.1639793359375,
          "velocity": 0.2992125984251969
        },
        {
          "duration": 0.08333325000000968,
          "durationTicks": 96,
          "midi": 55,
          "name": "G3",
          "ticks": 95901,
          "time": 83.2473125859375,
          "velocity": 0.2677165354330709
        },
        {
          "duration": 0.08333325000000968,
          "durationTicks": 96,
          "midi": 55,
          "name": "G3",
          "ticks": 95901,
          "time": 83.2473125859375,
          "velocity": 0.12598425196850394
        },
        {
          "duration": 0.04166662500000484,
          "durationTicks": 48,
          "midi": 29,
          "name": "F1",
          "ticks": 95901,
          "time": 83.2473125859375,
          "velocity": 0.25196850393700787
        },
        {
          "duration": 0.08333324999999547,
          "durationTicks": 96,
          "midi": 69,
          "name": "A4",
          "ticks": 95997,
          "time": 83.3306458359375,
          "velocity": 0.3228346456692913
        },
        {
          "duration": 0.08333324999999547,
          "durationTicks": 96,
          "midi": 69,
          "name": "A4",
          "ticks": 95997,
          "time": 83.3306458359375,
          "velocity": 0.1732283464566929
        },
        {
          "duration": 0.16666649999999095,
          "durationTicks": 192,
          "midi": 29,
          "name": "F1",
          "ticks": 95997,
          "time": 83.3306458359375,
          "velocity": 0.3228346456692913
        },
        {
          "duration": 0.08333324999999547,
          "durationTicks": 96,
          "midi": 57,
          "name": "A3",
          "ticks": 96093,
          "time": 83.4139790859375,
          "velocity": 0.2677165354330709
        },
        {
          "duration": 0.08333324999999547,
          "durationTicks": 96,
          "midi": 57,
          "name": "A3",
          "ticks": 96093,
          "time": 83.4139790859375,
          "velocity": 0.12598425196850394
        },
        {
          "duration": 0.04166662500000484,
          "durationTicks": 48,
          "midi": 63,
          "name": "D#4",
          "ticks": 96189,
          "time": 83.4973123359375,
          "velocity": 0.2755905511811024
        },
        {
          "duration": 0.04166662500000484,
          "durationTicks": 48,
          "midi": 60,
          "name": "C4",
          "ticks": 96189,
          "time": 83.4973123359375,
          "velocity": 0.2755905511811024
        },
        {
          "duration": 0.04166662500000484,
          "durationTicks": 48,
          "midi": 57,
          "name": "A3",
          "ticks": 96189,
          "time": 83.4973123359375,
          "velocity": 0.2755905511811024
        },
        {
          "duration": 0.04166662500000484,
          "durationTicks": 48,
          "midi": 53,
          "name": "F3",
          "ticks": 96189,
          "time": 83.4973123359375,
          "velocity": 0.2755905511811024
        },
        {
          "duration": 0.08333325000000968,
          "durationTicks": 96,
          "midi": 67,
          "name": "G4",
          "ticks": 96189,
          "time": 83.4973123359375,
          "velocity": 0.3228346456692913
        },
        {
          "duration": 0.08333325000000968,
          "durationTicks": 96,
          "midi": 67,
          "name": "G4",
          "ticks": 96189,
          "time": 83.4973123359375,
          "velocity": 0.1732283464566929
        },
        {
          "duration": 0.08333325000000968,
          "durationTicks": 96,
          "midi": 41,
          "name": "F2",
          "ticks": 96189,
          "time": 83.4973123359375,
          "velocity": 0.2992125984251969
        },
        {
          "duration": 0.08333324999999547,
          "durationTicks": 96,
          "midi": 55,
          "name": "G3",
          "ticks": 96285,
          "time": 83.5806455859375,
          "velocity": 0.2677165354330709
        },
        {
          "duration": 0.08333324999999547,
          "durationTicks": 96,
          "midi": 55,
          "name": "G3",
          "ticks": 96285,
          "time": 83.5806455859375,
          "velocity": 0.12598425196850394
        },
        {
          "duration": 0.08333324999999547,
          "durationTicks": 96,
          "midi": 72,
          "name": "C5",
          "ticks": 96381,
          "time": 83.6639788359375,
          "velocity": 0.3228346456692913
        },
        {
          "duration": 0.08333324999999547,
          "durationTicks": 96,
          "midi": 72,
          "name": "C5",
          "ticks": 96381,
          "time": 83.6639788359375,
          "velocity": 0.1732283464566929
        },
        {
          "duration": 0.16666650000000516,
          "durationTicks": 192,
          "midi": 29,
          "name": "F1",
          "ticks": 96381,
          "time": 83.6639788359375,
          "velocity": 0.3228346456692913
        },
        {
          "duration": 0.16666650000000516,
          "durationTicks": 192,
          "midi": 41,
          "name": "F2",
          "ticks": 96381,
          "time": 83.6639788359375,
          "velocity": 0.29133858267716534
        },
        {
          "duration": 0.08333325000000968,
          "durationTicks": 96,
          "midi": 60,
          "name": "C4",
          "ticks": 96477,
          "time": 83.7473120859375,
          "velocity": 0.2677165354330709
        },
        {
          "duration": 0.08333325000000968,
          "durationTicks": 96,
          "midi": 60,
          "name": "C4",
          "ticks": 96477,
          "time": 83.7473120859375,
          "velocity": 0.12598425196850394
        },
        {
          "duration": 0.04166662499999063,
          "durationTicks": 48,
          "midi": 63,
          "name": "D#4",
          "ticks": 96573,
          "time": 83.8306453359375,
          "velocity": 0.2755905511811024
        },
        {
          "duration": 0.04166662499999063,
          "durationTicks": 48,
          "midi": 53,
          "name": "F3",
          "ticks": 96573,
          "time": 83.8306453359375,
          "velocity": 0.2755905511811024
        },
        {
          "duration": 0.04166662499999063,
          "durationTicks": 48,
          "midi": 60,
          "name": "C4",
          "ticks": 96573,
          "time": 83.8306453359375,
          "velocity": 0.2755905511811024
        },
        {
          "duration": 0.04166662499999063,
          "durationTicks": 48,
          "midi": 57,
          "name": "A3",
          "ticks": 96573,
          "time": 83.8306453359375,
          "velocity": 0.2755905511811024
        },
        {
          "duration": 0.08333324999999547,
          "durationTicks": 96,
          "midi": 74,
          "name": "D5",
          "ticks": 96573,
          "time": 83.8306453359375,
          "velocity": 0.3228346456692913
        },
        {
          "duration": 0.08333324999999547,
          "durationTicks": 96,
          "midi": 74,
          "name": "D5",
          "ticks": 96573,
          "time": 83.8306453359375,
          "velocity": 0.1732283464566929
        },
        {
          "duration": 0.08333324999999547,
          "durationTicks": 96,
          "midi": 41,
          "name": "F2",
          "ticks": 96573,
          "time": 83.8306453359375,
          "velocity": 0.2992125984251969
        },
        {
          "duration": 0.08333324999999547,
          "durationTicks": 96,
          "midi": 62,
          "name": "D4",
          "ticks": 96669,
          "time": 83.9139785859375,
          "velocity": 0.2677165354330709
        },
        {
          "duration": 0.08333324999999547,
          "durationTicks": 96,
          "midi": 62,
          "name": "D4",
          "ticks": 96669,
          "time": 83.9139785859375,
          "velocity": 0.12598425196850394
        },
        {
          "duration": 0.04166662500000484,
          "durationTicks": 48,
          "midi": 29,
          "name": "F1",
          "ticks": 96669,
          "time": 83.9139785859375,
          "velocity": 0.25196850393700787
        },
        {
          "duration": 0.08333324999999547,
          "durationTicks": 96,
          "midi": 75,
          "name": "D#5",
          "ticks": 96765,
          "time": 83.9973118359375,
          "velocity": 0.3228346456692913
        },
        {
          "duration": 0.08333324999999547,
          "durationTicks": 96,
          "midi": 75,
          "name": "D#5",
          "ticks": 96765,
          "time": 83.9973118359375,
          "velocity": 0.1732283464566929
        },
        {
          "duration": 0.16666650000000516,
          "durationTicks": 192,
          "midi": 28,
          "name": "E1",
          "ticks": 96765,
          "time": 83.9973118359375,
          "velocity": 0.3228346456692913
        },
        {
          "duration": 0.08333325000000968,
          "durationTicks": 96,
          "midi": 63,
          "name": "D#4",
          "ticks": 96861,
          "time": 84.08064508593749,
          "velocity": 0.2677165354330709
        },
        {
          "duration": 0.08333325000000968,
          "durationTicks": 96,
          "midi": 63,
          "name": "D#4",
          "ticks": 96861,
          "time": 84.08064508593749,
          "velocity": 0.12598425196850394
        },
        {
          "duration": 0.04166662499999063,
          "durationTicks": 48,
          "midi": 64,
          "name": "E4",
          "ticks": 96957,
          "time": 84.1639783359375,
          "velocity": 0.2755905511811024
        },
        {
          "duration": 0.04166662499999063,
          "durationTicks": 48,
          "midi": 59,
          "name": "B3",
          "ticks": 96957,
          "time": 84.1639783359375,
          "velocity": 0.2755905511811024
        },
        {
          "duration": 0.04166662499999063,
          "durationTicks": 48,
          "midi": 56,
          "name": "G#3",
          "ticks": 96957,
          "time": 84.1639783359375,
          "velocity": 0.2755905511811024
        },
        {
          "duration": 0.08333324999999547,
          "durationTicks": 96,
          "midi": 72,
          "name": "C5",
          "ticks": 96957,
          "time": 84.1639783359375,
          "velocity": 0.3228346456692913
        },
        {
          "duration": 0.08333324999999547,
          "durationTicks": 96,
          "midi": 72,
          "name": "C5",
          "ticks": 96957,
          "time": 84.1639783359375,
          "velocity": 0.1732283464566929
        },
        {
          "duration": 0.08333324999999547,
          "durationTicks": 96,
          "midi": 40,
          "name": "E2",
          "ticks": 96957,
          "time": 84.1639783359375,
          "velocity": 0.2992125984251969
        },
        {
          "duration": 0.08333324999999547,
          "durationTicks": 96,
          "midi": 60,
          "name": "C4",
          "ticks": 97053,
          "time": 84.2473115859375,
          "velocity": 0.2677165354330709
        },
        {
          "duration": 0.08333324999999547,
          "durationTicks": 96,
          "midi": 60,
          "name": "C4",
          "ticks": 97053,
          "time": 84.2473115859375,
          "velocity": 0.12598425196850394
        },
        {
          "duration": 0.08333325000000968,
          "durationTicks": 96,
          "midi": 74,
          "name": "D5",
          "ticks": 97149,
          "time": 84.33064483593749,
          "velocity": 0.3228346456692913
        },
        {
          "duration": 0.08333325000000968,
          "durationTicks": 96,
          "midi": 74,
          "name": "D5",
          "ticks": 97149,
          "time": 84.33064483593749,
          "velocity": 0.1732283464566929
        },
        {
          "duration": 0.16666650000000516,
          "durationTicks": 192,
          "midi": 28,
          "name": "E1",
          "ticks": 97149,
          "time": 84.33064483593749,
          "velocity": 0.3228346456692913
        },
        {
          "duration": 0.16666650000000516,
          "durationTicks": 192,
          "midi": 40,
          "name": "E2",
          "ticks": 97149,
          "time": 84.33064483593749,
          "velocity": 0.29133858267716534
        },
        {
          "duration": 0.08333324999999547,
          "durationTicks": 96,
          "midi": 62,
          "name": "D4",
          "ticks": 97245,
          "time": 84.4139780859375,
          "velocity": 0.2677165354330709
        },
        {
          "duration": 0.08333324999999547,
          "durationTicks": 96,
          "midi": 62,
          "name": "D4",
          "ticks": 97245,
          "time": 84.4139780859375,
          "velocity": 0.12598425196850394
        },
        {
          "duration": 0.04166662500000484,
          "durationTicks": 48,
          "midi": 56,
          "name": "G#3",
          "ticks": 97341,
          "time": 84.4973113359375,
          "velocity": 0.2755905511811024
        },
        {
          "duration": 0.04166662500000484,
          "durationTicks": 48,
          "midi": 59,
          "name": "B3",
          "ticks": 97341,
          "time": 84.4973113359375,
          "velocity": 0.2755905511811024
        },
        {
          "duration": 0.04166662500000484,
          "durationTicks": 48,
          "midi": 64,
          "name": "E4",
          "ticks": 97341,
          "time": 84.4973113359375,
          "velocity": 0.2755905511811024
        },
        {
          "duration": 0.08333324999999547,
          "durationTicks": 96,
          "midi": 72,
          "name": "C5",
          "ticks": 97341,
          "time": 84.4973113359375,
          "velocity": 0.3228346456692913
        },
        {
          "duration": 0.08333324999999547,
          "durationTicks": 96,
          "midi": 72,
          "name": "C5",
          "ticks": 97341,
          "time": 84.4973113359375,
          "velocity": 0.1732283464566929
        },
        {
          "duration": 0.08333324999999547,
          "durationTicks": 96,
          "midi": 40,
          "name": "E2",
          "ticks": 97341,
          "time": 84.4973113359375,
          "velocity": 0.2992125984251969
        },
        {
          "duration": 0.08333325000000968,
          "durationTicks": 96,
          "midi": 60,
          "name": "C4",
          "ticks": 97437,
          "time": 84.58064458593749,
          "velocity": 0.2677165354330709
        },
        {
          "duration": 0.08333325000000968,
          "durationTicks": 96,
          "midi": 60,
          "name": "C4",
          "ticks": 97437,
          "time": 84.58064458593749,
          "velocity": 0.12598425196850394
        },
        {
          "duration": 0.04166662500000484,
          "durationTicks": 48,
          "midi": 28,
          "name": "E1",
          "ticks": 97437,
          "time": 84.58064458593749,
          "velocity": 0.25196850393700787
        },
        {
          "duration": 0.08333324999999547,
          "durationTicks": 96,
          "midi": 75,
          "name": "D#5",
          "ticks": 97533,
          "time": 84.6639778359375,
          "velocity": 0.3228346456692913
        },
        {
          "duration": 0.08333324999999547,
          "durationTicks": 96,
          "midi": 75,
          "name": "D#5",
          "ticks": 97533,
          "time": 84.6639778359375,
          "velocity": 0.1732283464566929
        },
        {
          "duration": 0.16666649999999095,
          "durationTicks": 192,
          "midi": 28,
          "name": "E1",
          "ticks": 97533,
          "time": 84.6639778359375,
          "velocity": 0.3228346456692913
        },
        {
          "duration": 0.08333324999999547,
          "durationTicks": 96,
          "midi": 63,
          "name": "D#4",
          "ticks": 97629,
          "time": 84.7473110859375,
          "velocity": 0.2677165354330709
        },
        {
          "duration": 0.08333324999999547,
          "durationTicks": 96,
          "midi": 63,
          "name": "D#4",
          "ticks": 97629,
          "time": 84.7473110859375,
          "velocity": 0.12598425196850394
        },
        {
          "duration": 0.04166662500000484,
          "durationTicks": 48,
          "midi": 56,
          "name": "G#3",
          "ticks": 97725,
          "time": 84.83064433593749,
          "velocity": 0.2755905511811024
        },
        {
          "duration": 0.04166662500000484,
          "durationTicks": 48,
          "midi": 52,
          "name": "E3",
          "ticks": 97725,
          "time": 84.83064433593749,
          "velocity": 0.2755905511811024
        },
        {
          "duration": 0.04166662500000484,
          "durationTicks": 48,
          "midi": 59,
          "name": "B3",
          "ticks": 97725,
          "time": 84.83064433593749,
          "velocity": 0.2755905511811024
        },
        {
          "duration": 0.04166662500000484,
          "durationTicks": 48,
          "midi": 64,
          "name": "E4",
          "ticks": 97725,
          "time": 84.83064433593749,
          "velocity": 0.2755905511811024
        },
        {
          "duration": 0.08333325000000968,
          "durationTicks": 96,
          "midi": 76,
          "name": "E5",
          "ticks": 97725,
          "time": 84.83064433593749,
          "velocity": 0.3228346456692913
        },
        {
          "duration": 0.08333325000000968,
          "durationTicks": 96,
          "midi": 76,
          "name": "E5",
          "ticks": 97725,
          "time": 84.83064433593749,
          "velocity": 0.1732283464566929
        },
        {
          "duration": 0.08333325000000968,
          "durationTicks": 96,
          "midi": 40,
          "name": "E2",
          "ticks": 97725,
          "time": 84.83064433593749,
          "velocity": 0.2992125984251969
        },
        {
          "duration": 0.08333324999999547,
          "durationTicks": 96,
          "midi": 64,
          "name": "E4",
          "ticks": 97821,
          "time": 84.9139775859375,
          "velocity": 0.2677165354330709
        },
        {
          "duration": 0.08333324999999547,
          "durationTicks": 96,
          "midi": 64,
          "name": "E4",
          "ticks": 97821,
          "time": 84.9139775859375,
          "velocity": 0.12598425196850394
        },
        {
          "duration": 0.04166662500000484,
          "durationTicks": 48,
          "midi": 54,
          "name": "F#3",
          "ticks": 97917,
          "time": 84.9973108359375,
          "velocity": 0.2755905511811024
        },
        {
          "duration": 0.08333324999999547,
          "durationTicks": 96,
          "midi": 77,
          "name": "F5",
          "ticks": 97917,
          "time": 84.9973108359375,
          "velocity": 0.3228346456692913
        },
        {
          "duration": 0.08333324999999547,
          "durationTicks": 96,
          "midi": 77,
          "name": "F5",
          "ticks": 97917,
          "time": 84.9973108359375,
          "velocity": 0.1732283464566929
        },
        {
          "duration": 0.08333324999999547,
          "durationTicks": 96,
          "midi": 42,
          "name": "F#2",
          "ticks": 97917,
          "time": 84.9973108359375,
          "velocity": 0.2992125984251969
        },
        {
          "duration": 0.16666650000000516,
          "durationTicks": 192,
          "midi": 28,
          "name": "E1",
          "ticks": 97917,
          "time": 84.9973108359375,
          "velocity": 0.3228346456692913
        },
        {
          "duration": 0.3333329999999961,
          "durationTicks": 384,
          "midi": 40,
          "name": "E2",
          "ticks": 97917,
          "time": 84.9973108359375,
          "velocity": 0.29133858267716534
        },
        {
          "duration": 0.08333325000000968,
          "durationTicks": 96,
          "midi": 65,
          "name": "F4",
          "ticks": 98013,
          "time": 85.0806440859375,
          "velocity": 0.2677165354330709
        },
        {
          "duration": 0.08333325000000968,
          "durationTicks": 96,
          "midi": 65,
          "name": "F4",
          "ticks": 98013,
          "time": 85.0806440859375,
          "velocity": 0.12598425196850394
        },
        {
          "duration": 0.04166662499999063,
          "durationTicks": 48,
          "midi": 59,
          "name": "B3",
          "ticks": 98109,
          "time": 85.1639773359375,
          "velocity": 0.2755905511811024
        },
        {
          "duration": 0.04166662499999063,
          "durationTicks": 48,
          "midi": 64,
          "name": "E4",
          "ticks": 98109,
          "time": 85.1639773359375,
          "velocity": 0.2755905511811024
        },
        {
          "duration": 0.04166662499999063,
          "durationTicks": 48,
          "midi": 56,
          "name": "G#3",
          "ticks": 98109,
          "time": 85.1639773359375,
          "velocity": 0.2755905511811024
        },
        {
          "duration": 0.08333324999999547,
          "durationTicks": 96,
          "midi": 75,
          "name": "D#5",
          "ticks": 98109,
          "time": 85.1639773359375,
          "velocity": 0.3228346456692913
        },
        {
          "duration": 0.08333324999999547,
          "durationTicks": 96,
          "midi": 75,
          "name": "D#5",
          "ticks": 98109,
          "time": 85.1639773359375,
          "velocity": 0.1732283464566929
        },
        {
          "duration": 0.08333324999999547,
          "durationTicks": 96,
          "midi": 44,
          "name": "G#2",
          "ticks": 98109,
          "time": 85.1639773359375,
          "velocity": 0.2992125984251969
        },
        {
          "duration": 0.08333324999999547,
          "durationTicks": 96,
          "midi": 63,
          "name": "D#4",
          "ticks": 98205,
          "time": 85.2473105859375,
          "velocity": 0.2677165354330709
        },
        {
          "duration": 0.08333324999999547,
          "durationTicks": 96,
          "midi": 63,
          "name": "D#4",
          "ticks": 98205,
          "time": 85.2473105859375,
          "velocity": 0.12598425196850394
        },
        {
          "duration": 0.04166662500000484,
          "durationTicks": 48,
          "midi": 28,
          "name": "E1",
          "ticks": 98205,
          "time": 85.2473105859375,
          "velocity": 0.25196850393700787
        },
        {
          "duration": 0.08333325000000968,
          "durationTicks": 96,
          "midi": 76,
          "name": "E5",
          "ticks": 98301,
          "time": 85.3306438359375,
          "velocity": 0.3228346456692913
        },
        {
          "duration": 0.08333325000000968,
          "durationTicks": 96,
          "midi": 76,
          "name": "E5",
          "ticks": 98301,
          "time": 85.3306438359375,
          "velocity": 0.1732283464566929
        },
        {
          "duration": 0.16666650000000516,
          "durationTicks": 192,
          "midi": 33,
          "name": "A1",
          "ticks": 98301,
          "time": 85.3306438359375,
          "velocity": 0.3228346456692913
        },
        {
          "duration": 0.08333324999999547,
          "durationTicks": 96,
          "midi": 69,
          "name": "A4",
          "ticks": 98397,
          "time": 85.4139770859375,
          "velocity": 0.3228346456692913
        },
        {
          "duration": 0.08333324999999547,
          "durationTicks": 96,
          "midi": 69,
          "name": "A4",
          "ticks": 98397,
          "time": 85.4139770859375,
          "velocity": 0.1732283464566929
        },
        {
          "duration": 0.04166662500000484,
          "durationTicks": 48,
          "midi": 60,
          "name": "C4",
          "ticks": 98493,
          "time": 85.4973103359375,
          "velocity": 0.2755905511811024
        },
        {
          "duration": 0.04166662500000484,
          "durationTicks": 48,
          "midi": 57,
          "name": "A3",
          "ticks": 98493,
          "time": 85.4973103359375,
          "velocity": 0.2755905511811024
        },
        {
          "duration": 0.04166662500000484,
          "durationTicks": 48,
          "midi": 64,
          "name": "E4",
          "ticks": 98493,
          "time": 85.4973103359375,
          "velocity": 0.2755905511811024
        },
        {
          "duration": 0.08333324999999547,
          "durationTicks": 96,
          "midi": 45,
          "name": "A2",
          "ticks": 98493,
          "time": 85.4973103359375,
          "velocity": 0.2992125984251969
        },
        {
          "duration": 0.08333325000000968,
          "durationTicks": 96,
          "midi": 69,
          "name": "A4",
          "ticks": 98589,
          "time": 85.5806435859375,
          "velocity": 0.3228346456692913
        },
        {
          "duration": 0.08333325000000968,
          "durationTicks": 96,
          "midi": 69,
          "name": "A4",
          "ticks": 98589,
          "time": 85.5806435859375,
          "velocity": 0.1732283464566929
        },
        {
          "duration": 0.08333324999999547,
          "durationTicks": 96,
          "midi": 71,
          "name": "B4",
          "ticks": 98685,
          "time": 85.6639768359375,
          "velocity": 0.3228346456692913
        },
        {
          "duration": 0.08333324999999547,
          "durationTicks": 96,
          "midi": 71,
          "name": "B4",
          "ticks": 98685,
          "time": 85.6639768359375,
          "velocity": 0.1732283464566929
        },
        {
          "duration": 0.16666649999999095,
          "durationTicks": 192,
          "midi": 33,
          "name": "A1",
          "ticks": 98685,
          "time": 85.6639768359375,
          "velocity": 0.3228346456692913
        },
        {
          "duration": 0.16666649999999095,
          "durationTicks": 192,
          "midi": 45,
          "name": "A2",
          "ticks": 98685,
          "time": 85.6639768359375,
          "velocity": 0.29133858267716534
        },
        {
          "duration": 0.04166662500000484,
          "durationTicks": 48,
          "midi": 64,
          "name": "E4",
          "ticks": 98877,
          "time": 85.8306433359375,
          "velocity": 0.2755905511811024
        },
        {
          "duration": 0.04166662500000484,
          "durationTicks": 48,
          "midi": 57,
          "name": "A3",
          "ticks": 98877,
          "time": 85.8306433359375,
          "velocity": 0.2755905511811024
        },
        {
          "duration": 0.04166662500000484,
          "durationTicks": 48,
          "midi": 60,
          "name": "C4",
          "ticks": 98877,
          "time": 85.8306433359375,
          "velocity": 0.2755905511811024
        },
        {
          "duration": 0.08333324999999547,
          "durationTicks": 96,
          "midi": 72,
          "name": "C5",
          "ticks": 98877,
          "time": 85.8306433359375,
          "velocity": 0.3228346456692913
        },
        {
          "duration": 0.08333324999999547,
          "durationTicks": 96,
          "midi": 72,
          "name": "C5",
          "ticks": 98877,
          "time": 85.8306433359375,
          "velocity": 0.1732283464566929
        },
        {
          "duration": 0.08333324999999547,
          "durationTicks": 96,
          "midi": 45,
          "name": "A2",
          "ticks": 98877,
          "time": 85.8306433359375,
          "velocity": 0.2992125984251969
        },
        {
          "duration": 0.04166662500000484,
          "durationTicks": 48,
          "midi": 33,
          "name": "A1",
          "ticks": 98973,
          "time": 85.91397658593749,
          "velocity": 0.25196850393700787
        },
        {
          "duration": 0.08333324999999547,
          "durationTicks": 96,
          "midi": 72,
          "name": "C5",
          "ticks": 99069,
          "time": 85.9973098359375,
          "velocity": 0.3228346456692913
        },
        {
          "duration": 0.08333324999999547,
          "durationTicks": 96,
          "midi": 72,
          "name": "C5",
          "ticks": 99069,
          "time": 85.9973098359375,
          "velocity": 0.1732283464566929
        },
        {
          "duration": 0.16666649999999095,
          "durationTicks": 192,
          "midi": 33,
          "name": "A1",
          "ticks": 99069,
          "time": 85.9973098359375,
          "velocity": 0.3228346456692913
        },
        {
          "duration": 0.08333324999999547,
          "durationTicks": 96,
          "midi": 60,
          "name": "C4",
          "ticks": 99165,
          "time": 86.0806430859375,
          "velocity": 0.3228346456692913
        },
        {
          "duration": 0.08333324999999547,
          "durationTicks": 96,
          "midi": 60,
          "name": "C4",
          "ticks": 99165,
          "time": 86.0806430859375,
          "velocity": 0.1732283464566929
        },
        {
          "duration": 0.04166662500000484,
          "durationTicks": 48,
          "midi": 64,
          "name": "E4",
          "ticks": 99261,
          "time": 86.16397633593749,
          "velocity": 0.2755905511811024
        },
        {
          "duration": 0.04166662500000484,
          "durationTicks": 48,
          "midi": 57,
          "name": "A3",
          "ticks": 99261,
          "time": 86.16397633593749,
          "velocity": 0.2755905511811024
        },
        {
          "duration": 0.04166662500000484,
          "durationTicks": 48,
          "midi": 60,
          "name": "C4",
          "ticks": 99261,
          "time": 86.16397633593749,
          "velocity": 0.2755905511811024
        },
        {
          "duration": 0.08333325000000968,
          "durationTicks": 96,
          "midi": 73,
          "name": "C#5",
          "ticks": 99261,
          "time": 86.16397633593749,
          "velocity": 0.3228346456692913
        },
        {
          "duration": 0.08333325000000968,
          "durationTicks": 96,
          "midi": 73,
          "name": "C#5",
          "ticks": 99261,
          "time": 86.16397633593749,
          "velocity": 0.1732283464566929
        },
        {
          "duration": 0.08333325000000968,
          "durationTicks": 96,
          "midi": 45,
          "name": "A2",
          "ticks": 99261,
          "time": 86.16397633593749,
          "velocity": 0.2992125984251969
        },
        {
          "duration": 0.08333324999999547,
          "durationTicks": 96,
          "midi": 61,
          "name": "C#4",
          "ticks": 99357,
          "time": 86.2473095859375,
          "velocity": 0.3228346456692913
        },
        {
          "duration": 0.08333324999999547,
          "durationTicks": 96,
          "midi": 61,
          "name": "C#4",
          "ticks": 99357,
          "time": 86.2473095859375,
          "velocity": 0.1732283464566929
        },
        {
          "duration": 0.08333324999999547,
          "durationTicks": 96,
          "midi": 74,
          "name": "D5",
          "ticks": 99453,
          "time": 86.3306428359375,
          "velocity": 0.3228346456692913
        },
        {
          "duration": 0.08333324999999547,
          "durationTicks": 96,
          "midi": 74,
          "name": "D5",
          "ticks": 99453,
          "time": 86.3306428359375,
          "velocity": 0.1732283464566929
        },
        {
          "duration": 0.16666650000000516,
          "durationTicks": 192,
          "midi": 33,
          "name": "A1",
          "ticks": 99453,
          "time": 86.3306428359375,
          "velocity": 0.3228346456692913
        },
        {
          "duration": 0.16666650000000516,
          "durationTicks": 192,
          "midi": 45,
          "name": "A2",
          "ticks": 99453,
          "time": 86.3306428359375,
          "velocity": 0.29133858267716534
        },
        {
          "duration": 0.08333325000000968,
          "durationTicks": 96,
          "midi": 62,
          "name": "D4",
          "ticks": 99549,
          "time": 86.41397608593749,
          "velocity": 0.3228346456692913
        },
        {
          "duration": 0.08333325000000968,
          "durationTicks": 96,
          "midi": 62,
          "name": "D4",
          "ticks": 99549,
          "time": 86.41397608593749,
          "velocity": 0.1732283464566929
        },
        {
          "duration": 0.04166662499999063,
          "durationTicks": 48,
          "midi": 60,
          "name": "C4",
          "ticks": 99645,
          "time": 86.4973093359375,
          "velocity": 0.2755905511811024
        },
        {
          "duration": 0.04166662499999063,
          "durationTicks": 48,
          "midi": 57,
          "name": "A3",
          "ticks": 99645,
          "time": 86.4973093359375,
          "velocity": 0.2755905511811024
        },
        {
          "duration": 0.04166662499999063,
          "durationTicks": 48,
          "midi": 64,
          "name": "E4",
          "ticks": 99645,
          "time": 86.4973093359375,
          "velocity": 0.2755905511811024
        },
        {
          "duration": 0.08333324999999547,
          "durationTicks": 96,
          "midi": 75,
          "name": "D#5",
          "ticks": 99645,
          "time": 86.4973093359375,
          "velocity": 0.3228346456692913
        },
        {
          "duration": 0.08333324999999547,
          "durationTicks": 96,
          "midi": 75,
          "name": "D#5",
          "ticks": 99645,
          "time": 86.4973093359375,
          "velocity": 0.1732283464566929
        },
        {
          "duration": 0.08333324999999547,
          "durationTicks": 96,
          "midi": 45,
          "name": "A2",
          "ticks": 99645,
          "time": 86.4973093359375,
          "velocity": 0.2992125984251969
        },
        {
          "duration": 0.08333324999999547,
          "durationTicks": 96,
          "midi": 63,
          "name": "D#4",
          "ticks": 99741,
          "time": 86.5806425859375,
          "velocity": 0.3228346456692913
        },
        {
          "duration": 0.08333324999999547,
          "durationTicks": 96,
          "midi": 63,
          "name": "D#4",
          "ticks": 99741,
          "time": 86.5806425859375,
          "velocity": 0.1732283464566929
        },
        {
          "duration": 0.04166662500000484,
          "durationTicks": 48,
          "midi": 33,
          "name": "A1",
          "ticks": 99741,
          "time": 86.5806425859375,
          "velocity": 0.25196850393700787
        },
        {
          "duration": 0.08333325000000968,
          "durationTicks": 96,
          "midi": 76,
          "name": "E5",
          "ticks": 99837,
          "time": 86.66397583593749,
          "velocity": 0.3228346456692913
        },
        {
          "duration": 0.08333325000000968,
          "durationTicks": 96,
          "midi": 76,
          "name": "E5",
          "ticks": 99837,
          "time": 86.66397583593749,
          "velocity": 0.1732283464566929
        },
        {
          "duration": 0.16666650000000516,
          "durationTicks": 192,
          "midi": 36,
          "name": "C2",
          "ticks": 99837,
          "time": 86.66397583593749,
          "velocity": 0.3228346456692913
        },
        {
          "duration": 0.04166662500000484,
          "durationTicks": 48,
          "midi": 64,
          "name": "E4",
          "ticks": 100029,
          "time": 86.8306423359375,
          "velocity": 0.2755905511811024
        },
        {
          "duration": 0.04166662500000484,
          "durationTicks": 48,
          "midi": 57,
          "name": "A3",
          "ticks": 100029,
          "time": 86.8306423359375,
          "velocity": 0.2755905511811024
        },
        {
          "duration": 0.04166662500000484,
          "durationTicks": 48,
          "midi": 55,
          "name": "G3",
          "ticks": 100029,
          "time": 86.8306423359375,
          "velocity": 0.2755905511811024
        },
        {
          "duration": 0.04166662500000484,
          "durationTicks": 48,
          "midi": 60,
          "name": "C4",
          "ticks": 100029,
          "time": 86.8306423359375,
          "velocity": 0.2755905511811024
        },
        {
          "duration": 0.08333324999999547,
          "durationTicks": 96,
          "midi": 81,
          "name": "A5",
          "ticks": 100029,
          "time": 86.8306423359375,
          "velocity": 0.3228346456692913
        },
        {
          "duration": 0.08333324999999547,
          "durationTicks": 96,
          "midi": 75,
          "name": "D#5",
          "ticks": 100029,
          "time": 86.8306423359375,
          "velocity": 0.3228346456692913
        },
        {
          "duration": 0.08333324999999547,
          "durationTicks": 96,
          "midi": 75,
          "name": "D#5",
          "ticks": 100029,
          "time": 86.8306423359375,
          "velocity": 0.1732283464566929
        },
        {
          "duration": 0.08333324999999547,
          "durationTicks": 96,
          "midi": 81,
          "name": "A5",
          "ticks": 100029,
          "time": 86.8306423359375,
          "velocity": 0.1732283464566929
        },
        {
          "duration": 0.08333324999999547,
          "durationTicks": 96,
          "midi": 48,
          "name": "C3",
          "ticks": 100029,
          "time": 86.8306423359375,
          "velocity": 0.2992125984251969
        },
        {
          "duration": 0.08333325000000968,
          "durationTicks": 96,
          "midi": 74,
          "name": "D5",
          "ticks": 100125,
          "time": 86.9139755859375,
          "velocity": 0.3228346456692913
        },
        {
          "duration": 0.08333325000000968,
          "durationTicks": 96,
          "midi": 74,
          "name": "D5",
          "ticks": 100125,
          "time": 86.9139755859375,
          "velocity": 0.1732283464566929
        },
        {
          "duration": 0.08333324999999547,
          "durationTicks": 96,
          "midi": 72,
          "name": "C5",
          "ticks": 100221,
          "time": 86.9973088359375,
          "velocity": 0.3228346456692913
        },
        {
          "duration": 0.08333324999999547,
          "durationTicks": 96,
          "midi": 72,
          "name": "C5",
          "ticks": 100221,
          "time": 86.9973088359375,
          "velocity": 0.1732283464566929
        },
        {
          "duration": 0.16666649999999095,
          "durationTicks": 192,
          "midi": 36,
          "name": "C2",
          "ticks": 100221,
          "time": 86.9973088359375,
          "velocity": 0.3228346456692913
        },
        {
          "duration": 0.16666649999999095,
          "durationTicks": 192,
          "midi": 48,
          "name": "C3",
          "ticks": 100221,
          "time": 86.9973088359375,
          "velocity": 0.29133858267716534
        },
        {
          "duration": 0.08333324999999547,
          "durationTicks": 96,
          "midi": 81,
          "name": "A5",
          "ticks": 100317,
          "time": 87.0806420859375,
          "velocity": 0.3228346456692913
        },
        {
          "duration": 0.08333324999999547,
          "durationTicks": 96,
          "midi": 75,
          "name": "D#5",
          "ticks": 100317,
          "time": 87.0806420859375,
          "velocity": 0.3228346456692913
        },
        {
          "duration": 0.08333324999999547,
          "durationTicks": 96,
          "midi": 81,
          "name": "A5",
          "ticks": 100317,
          "time": 87.0806420859375,
          "velocity": 0.1732283464566929
        },
        {
          "duration": 0.08333324999999547,
          "durationTicks": 96,
          "midi": 75,
          "name": "D#5",
          "ticks": 100317,
          "time": 87.0806420859375,
          "velocity": 0.1732283464566929
        },
        {
          "duration": 0.04166662500000484,
          "durationTicks": 48,
          "midi": 60,
          "name": "C4",
          "ticks": 100413,
          "time": 87.1639753359375,
          "velocity": 0.2755905511811024
        },
        {
          "duration": 0.04166662500000484,
          "durationTicks": 48,
          "midi": 57,
          "name": "A3",
          "ticks": 100413,
          "time": 87.1639753359375,
          "velocity": 0.2755905511811024
        },
        {
          "duration": 0.04166662500000484,
          "durationTicks": 48,
          "midi": 64,
          "name": "E4",
          "ticks": 100413,
          "time": 87.1639753359375,
          "velocity": 0.2755905511811024
        },
        {
          "duration": 0.04166662500000484,
          "durationTicks": 48,
          "midi": 55,
          "name": "G3",
          "ticks": 100413,
          "time": 87.1639753359375,
          "velocity": 0.2755905511811024
        },
        {
          "duration": 0.08333325000000968,
          "durationTicks": 96,
          "midi": 74,
          "name": "D5",
          "ticks": 100413,
          "time": 87.1639753359375,
          "velocity": 0.3228346456692913
        },
        {
          "duration": 0.08333325000000968,
          "durationTicks": 96,
          "midi": 74,
          "name": "D5",
          "ticks": 100413,
          "time": 87.1639753359375,
          "velocity": 0.1732283464566929
        },
        {
          "duration": 0.08333325000000968,
          "durationTicks": 96,
          "midi": 48,
          "name": "C3",
          "ticks": 100413,
          "time": 87.1639753359375,
          "velocity": 0.2992125984251969
        },
        {
          "duration": 0.08333324999999547,
          "durationTicks": 96,
          "midi": 72,
          "name": "C5",
          "ticks": 100509,
          "time": 87.2473085859375,
          "velocity": 0.3228346456692913
        },
        {
          "duration": 0.08333324999999547,
          "durationTicks": 96,
          "midi": 72,
          "name": "C5",
          "ticks": 100509,
          "time": 87.2473085859375,
          "velocity": 0.1732283464566929
        },
        {
          "duration": 0.04166662499999063,
          "durationTicks": 48,
          "midi": 36,
          "name": "C2",
          "ticks": 100509,
          "time": 87.2473085859375,
          "velocity": 0.25196850393700787
        },
        {
          "duration": 0.08333324999999547,
          "durationTicks": 96,
          "midi": 81,
          "name": "A5",
          "ticks": 100605,
          "time": 87.3306418359375,
          "velocity": 0.3228346456692913
        },
        {
          "duration": 0.08333324999999547,
          "durationTicks": 96,
          "midi": 75,
          "name": "D#5",
          "ticks": 100605,
          "time": 87.3306418359375,
          "velocity": 0.3228346456692913
        },
        {
          "duration": 0.08333324999999547,
          "durationTicks": 96,
          "midi": 81,
          "name": "A5",
          "ticks": 100605,
          "time": 87.3306418359375,
          "velocity": 0.1732283464566929
        },
        {
          "duration": 0.08333324999999547,
          "durationTicks": 96,
          "midi": 75,
          "name": "D#5",
          "ticks": 100605,
          "time": 87.3306418359375,
          "velocity": 0.1732283464566929
        },
        {
          "duration": 0.16666650000000516,
          "durationTicks": 192,
          "midi": 36,
          "name": "C2",
          "ticks": 100605,
          "time": 87.3306418359375,
          "velocity": 0.3228346456692913
        },
        {
          "duration": 0.08333325000000968,
          "durationTicks": 96,
          "midi": 74,
          "name": "D5",
          "ticks": 100701,
          "time": 87.4139750859375,
          "velocity": 0.3228346456692913
        },
        {
          "duration": 0.08333325000000968,
          "durationTicks": 96,
          "midi": 74,
          "name": "D5",
          "ticks": 100701,
          "time": 87.4139750859375,
          "velocity": 0.1732283464566929
        },
        {
          "duration": 0.04166662499999063,
          "durationTicks": 48,
          "midi": 64,
          "name": "E4",
          "ticks": 100797,
          "time": 87.4973083359375,
          "velocity": 0.2755905511811024
        },
        {
          "duration": 0.04166662499999063,
          "durationTicks": 48,
          "midi": 57,
          "name": "A3",
          "ticks": 100797,
          "time": 87.4973083359375,
          "velocity": 0.2755905511811024
        },
        {
          "duration": 0.04166662499999063,
          "durationTicks": 48,
          "midi": 55,
          "name": "G3",
          "ticks": 100797,
          "time": 87.4973083359375,
          "velocity": 0.2755905511811024
        },
        {
          "duration": 0.04166662499999063,
          "durationTicks": 48,
          "midi": 60,
          "name": "C4",
          "ticks": 100797,
          "time": 87.4973083359375,
          "velocity": 0.2755905511811024
        },
        {
          "duration": 0.08333324999999547,
          "durationTicks": 96,
          "midi": 72,
          "name": "C5",
          "ticks": 100797,
          "time": 87.4973083359375,
          "velocity": 0.3228346456692913
        },
        {
          "duration": 0.08333324999999547,
          "durationTicks": 96,
          "midi": 72,
          "name": "C5",
          "ticks": 100797,
          "time": 87.4973083359375,
          "velocity": 0.1732283464566929
        },
        {
          "duration": 0.08333324999999547,
          "durationTicks": 96,
          "midi": 48,
          "name": "C3",
          "ticks": 100797,
          "time": 87.4973083359375,
          "velocity": 0.2992125984251969
        },
        {
          "duration": 0.08333324999999547,
          "durationTicks": 96,
          "midi": 81,
          "name": "A5",
          "ticks": 100893,
          "time": 87.5806415859375,
          "velocity": 0.3228346456692913
        },
        {
          "duration": 0.08333324999999547,
          "durationTicks": 96,
          "midi": 75,
          "name": "D#5",
          "ticks": 100893,
          "time": 87.5806415859375,
          "velocity": 0.3228346456692913
        },
        {
          "duration": 0.08333324999999547,
          "durationTicks": 96,
          "midi": 75,
          "name": "D#5",
          "ticks": 100893,
          "time": 87.5806415859375,
          "velocity": 0.1732283464566929
        },
        {
          "duration": 0.08333324999999547,
          "durationTicks": 96,
          "midi": 81,
          "name": "A5",
          "ticks": 100893,
          "time": 87.5806415859375,
          "velocity": 0.1732283464566929
        },
        {
          "duration": 0.08333325000000968,
          "durationTicks": 96,
          "midi": 74,
          "name": "D5",
          "ticks": 100989,
          "time": 87.6639748359375,
          "velocity": 0.3228346456692913
        },
        {
          "duration": 0.08333325000000968,
          "durationTicks": 96,
          "midi": 74,
          "name": "D5",
          "ticks": 100989,
          "time": 87.6639748359375,
          "velocity": 0.1732283464566929
        },
        {
          "duration": 0.16666650000000516,
          "durationTicks": 192,
          "midi": 36,
          "name": "C2",
          "ticks": 100989,
          "time": 87.6639748359375,
          "velocity": 0.3228346456692913
        },
        {
          "duration": 0.16666650000000516,
          "durationTicks": 192,
          "midi": 48,
          "name": "C3",
          "ticks": 100989,
          "time": 87.6639748359375,
          "velocity": 0.29133858267716534
        },
        {
          "duration": 0.08333324999999547,
          "durationTicks": 96,
          "midi": 72,
          "name": "C5",
          "ticks": 101085,
          "time": 87.7473080859375,
          "velocity": 0.3228346456692913
        },
        {
          "duration": 0.08333324999999547,
          "durationTicks": 96,
          "midi": 72,
          "name": "C5",
          "ticks": 101085,
          "time": 87.7473080859375,
          "velocity": 0.1732283464566929
        },
        {
          "duration": 0.04166662499999063,
          "durationTicks": 48,
          "midi": 60,
          "name": "C4",
          "ticks": 101181,
          "time": 87.8306413359375,
          "velocity": 0.2755905511811024
        },
        {
          "duration": 0.04166662499999063,
          "durationTicks": 48,
          "midi": 57,
          "name": "A3",
          "ticks": 101181,
          "time": 87.8306413359375,
          "velocity": 0.2755905511811024
        },
        {
          "duration": 0.04166662499999063,
          "durationTicks": 48,
          "midi": 55,
          "name": "G3",
          "ticks": 101181,
          "time": 87.8306413359375,
          "velocity": 0.2755905511811024
        },
        {
          "duration": 0.04166662499999063,
          "durationTicks": 48,
          "midi": 64,
          "name": "E4",
          "ticks": 101181,
          "time": 87.8306413359375,
          "velocity": 0.2755905511811024
        },
        {
          "duration": 0.08333324999999547,
          "durationTicks": 96,
          "midi": 81,
          "name": "A5",
          "ticks": 101181,
          "time": 87.8306413359375,
          "velocity": 0.3228346456692913
        },
        {
          "duration": 0.08333324999999547,
          "durationTicks": 96,
          "midi": 81,
          "name": "A5",
          "ticks": 101181,
          "time": 87.8306413359375,
          "velocity": 0.1732283464566929
        },
        {
          "duration": 0.08333324999999547,
          "durationTicks": 96,
          "midi": 48,
          "name": "C3",
          "ticks": 101181,
          "time": 87.8306413359375,
          "velocity": 0.2992125984251969
        },
        {
          "duration": 0.08333324999999547,
          "durationTicks": 96,
          "midi": 72,
          "name": "C5",
          "ticks": 101277,
          "time": 87.9139745859375,
          "velocity": 0.3228346456692913
        },
        {
          "duration": 0.08333324999999547,
          "durationTicks": 96,
          "midi": 72,
          "name": "C5",
          "ticks": 101277,
          "time": 87.9139745859375,
          "velocity": 0.1732283464566929
        },
        {
          "duration": 0.04166662500000484,
          "durationTicks": 48,
          "midi": 36,
          "name": "C2",
          "ticks": 101277,
          "time": 87.9139745859375,
          "velocity": 0.25196850393700787
        },
        {
          "duration": 0.08333325000000968,
          "durationTicks": 96,
          "midi": 81,
          "name": "A5",
          "ticks": 101373,
          "time": 87.99730783593749,
          "velocity": 0.3228346456692913
        },
        {
          "duration": 0.08333325000000968,
          "durationTicks": 96,
          "midi": 81,
          "name": "A5",
          "ticks": 101373,
          "time": 87.99730783593749,
          "velocity": 0.1732283464566929
        },
        {
          "duration": 0.16666650000000516,
          "durationTicks": 192,
          "midi": 29,
          "name": "F1",
          "ticks": 101373,
          "time": 87.99730783593749,
          "velocity": 0.3228346456692913
        },
        {
          "duration": 0.08333324999999547,
          "durationTicks": 96,
          "midi": 83,
          "name": "B5",
          "ticks": 101469,
          "time": 88.0806410859375,
          "velocity": 0.3228346456692913
        },
        {
          "duration": 0.08333324999999547,
          "durationTicks": 96,
          "midi": 83,
          "name": "B5",
          "ticks": 101469,
          "time": 88.0806410859375,
          "velocity": 0.1732283464566929
        },
        {
          "duration": 0.04166662500000484,
          "durationTicks": 48,
          "midi": 60,
          "name": "C4",
          "ticks": 101565,
          "time": 88.1639743359375,
          "velocity": 0.2755905511811024
        },
        {
          "duration": 0.04166662500000484,
          "durationTicks": 48,
          "midi": 63,
          "name": "D#4",
          "ticks": 101565,
          "time": 88.1639743359375,
          "velocity": 0.2755905511811024
        },
        {
          "duration": 0.04166662500000484,
          "durationTicks": 48,
          "midi": 53,
          "name": "F3",
          "ticks": 101565,
          "time": 88.1639743359375,
          "velocity": 0.2755905511811024
        },
        {
          "duration": 0.04166662500000484,
          "durationTicks": 48,
          "midi": 57,
          "name": "A3",
          "ticks": 101565,
          "time": 88.1639743359375,
          "velocity": 0.2755905511811024
        },
        {
          "duration": 0.08333324999999547,
          "durationTicks": 96,
          "midi": 84,
          "name": "C6",
          "ticks": 101565,
          "time": 88.1639743359375,
          "velocity": 0.3228346456692913
        },
        {
          "duration": 0.08333324999999547,
          "durationTicks": 96,
          "midi": 84,
          "name": "C6",
          "ticks": 101565,
          "time": 88.1639743359375,
          "velocity": 0.1732283464566929
        },
        {
          "duration": 0.08333324999999547,
          "durationTicks": 96,
          "midi": 41,
          "name": "F2",
          "ticks": 101565,
          "time": 88.1639743359375,
          "velocity": 0.2992125984251969
        },
        {
          "duration": 0.08333325000000968,
          "durationTicks": 96,
          "midi": 80,
          "name": "G#5",
          "ticks": 101661,
          "time": 88.24730758593749,
          "velocity": 0.3228346456692913
        },
        {
          "duration": 0.08333325000000968,
          "durationTicks": 96,
          "midi": 80,
          "name": "G#5",
          "ticks": 101661,
          "time": 88.24730758593749,
          "velocity": 0.1732283464566929
        },
        {
          "duration": 0.08333324999999547,
          "durationTicks": 96,
          "midi": 81,
          "name": "A5",
          "ticks": 101757,
          "time": 88.3306408359375,
          "velocity": 0.3228346456692913
        },
        {
          "duration": 0.08333324999999547,
          "durationTicks": 96,
          "midi": 81,
          "name": "A5",
          "ticks": 101757,
          "time": 88.3306408359375,
          "velocity": 0.1732283464566929
        },
        {
          "duration": 0.16666649999999095,
          "durationTicks": 192,
          "midi": 29,
          "name": "F1",
          "ticks": 101757,
          "time": 88.3306408359375,
          "velocity": 0.3228346456692913
        },
        {
          "duration": 0.16666649999999095,
          "durationTicks": 192,
          "midi": 41,
          "name": "F2",
          "ticks": 101757,
          "time": 88.3306408359375,
          "velocity": 0.29133858267716534
        },
        {
          "duration": 0.08333324999999547,
          "durationTicks": 96,
          "midi": 75,
          "name": "D#5",
          "ticks": 101853,
          "time": 88.4139740859375,
          "velocity": 0.3228346456692913
        },
        {
          "duration": 0.08333324999999547,
          "durationTicks": 96,
          "midi": 75,
          "name": "D#5",
          "ticks": 101853,
          "time": 88.4139740859375,
          "velocity": 0.1732283464566929
        },
        {
          "duration": 0.04166662500000484,
          "durationTicks": 48,
          "midi": 57,
          "name": "A3",
          "ticks": 101949,
          "time": 88.49730733593749,
          "velocity": 0.2755905511811024
        },
        {
          "duration": 0.04166662500000484,
          "durationTicks": 48,
          "midi": 60,
          "name": "C4",
          "ticks": 101949,
          "time": 88.49730733593749,
          "velocity": 0.2755905511811024
        },
        {
          "duration": 0.04166662500000484,
          "durationTicks": 48,
          "midi": 63,
          "name": "D#4",
          "ticks": 101949,
          "time": 88.49730733593749,
          "velocity": 0.2755905511811024
        },
        {
          "duration": 0.04166662500000484,
          "durationTicks": 48,
          "midi": 53,
          "name": "F3",
          "ticks": 101949,
          "time": 88.49730733593749,
          "velocity": 0.2755905511811024
        },
        {
          "duration": 0.08333325000000968,
          "durationTicks": 96,
          "midi": 72,
          "name": "C5",
          "ticks": 101949,
          "time": 88.49730733593749,
          "velocity": 0.3228346456692913
        },
        {
          "duration": 0.08333325000000968,
          "durationTicks": 96,
          "midi": 72,
          "name": "C5",
          "ticks": 101949,
          "time": 88.49730733593749,
          "velocity": 0.1732283464566929
        },
        {
          "duration": 0.08333325000000968,
          "durationTicks": 96,
          "midi": 41,
          "name": "F2",
          "ticks": 101949,
          "time": 88.49730733593749,
          "velocity": 0.2992125984251969
        },
        {
          "duration": 0.08333324999999547,
          "durationTicks": 96,
          "midi": 68,
          "name": "G#4",
          "ticks": 102045,
          "time": 88.5806405859375,
          "velocity": 0.3228346456692913
        },
        {
          "duration": 0.08333324999999547,
          "durationTicks": 96,
          "midi": 68,
          "name": "G#4",
          "ticks": 102045,
          "time": 88.5806405859375,
          "velocity": 0.1732283464566929
        },
        {
          "duration": 0.04166662499999063,
          "durationTicks": 48,
          "midi": 29,
          "name": "F1",
          "ticks": 102045,
          "time": 88.5806405859375,
          "velocity": 0.25196850393700787
        },
        {
          "duration": 0.08333324999999547,
          "durationTicks": 96,
          "midi": 69,
          "name": "A4",
          "ticks": 102141,
          "time": 88.6639738359375,
          "velocity": 0.3228346456692913
        },
        {
          "duration": 0.08333324999999547,
          "durationTicks": 96,
          "midi": 69,
          "name": "A4",
          "ticks": 102141,
          "time": 88.6639738359375,
          "velocity": 0.1732283464566929
        },
        {
          "duration": 0.16666650000000516,
          "durationTicks": 192,
          "midi": 29,
          "name": "F1",
          "ticks": 102141,
          "time": 88.6639738359375,
          "velocity": 0.3228346456692913
        },
        {
          "duration": 0.08333325000000968,
          "durationTicks": 96,
          "midi": 71,
          "name": "B4",
          "ticks": 102237,
          "time": 88.74730708593749,
          "velocity": 0.3228346456692913
        },
        {
          "duration": 0.08333325000000968,
          "durationTicks": 96,
          "midi": 71,
          "name": "B4",
          "ticks": 102237,
          "time": 88.74730708593749,
          "velocity": 0.1732283464566929
        },
        {
          "duration": 0.04166662499999063,
          "durationTicks": 48,
          "midi": 60,
          "name": "C4",
          "ticks": 102333,
          "time": 88.8306403359375,
          "velocity": 0.2755905511811024
        },
        {
          "duration": 0.04166662499999063,
          "durationTicks": 48,
          "midi": 63,
          "name": "D#4",
          "ticks": 102333,
          "time": 88.8306403359375,
          "velocity": 0.2755905511811024
        },
        {
          "duration": 0.04166662499999063,
          "durationTicks": 48,
          "midi": 53,
          "name": "F3",
          "ticks": 102333,
          "time": 88.8306403359375,
          "velocity": 0.2755905511811024
        },
        {
          "duration": 0.04166662499999063,
          "durationTicks": 48,
          "midi": 57,
          "name": "A3",
          "ticks": 102333,
          "time": 88.8306403359375,
          "velocity": 0.2755905511811024
        },
        {
          "duration": 0.08333324999999547,
          "durationTicks": 96,
          "midi": 72,
          "name": "C5",
          "ticks": 102333,
          "time": 88.8306403359375,
          "velocity": 0.3228346456692913
        },
        {
          "duration": 0.08333324999999547,
          "durationTicks": 96,
          "midi": 72,
          "name": "C5",
          "ticks": 102333,
          "time": 88.8306403359375,
          "velocity": 0.1732283464566929
        },
        {
          "duration": 0.08333324999999547,
          "durationTicks": 96,
          "midi": 41,
          "name": "F2",
          "ticks": 102333,
          "time": 88.8306403359375,
          "velocity": 0.2992125984251969
        },
        {
          "duration": 0.08333324999999547,
          "durationTicks": 96,
          "midi": 73,
          "name": "C#5",
          "ticks": 102429,
          "time": 88.9139735859375,
          "velocity": 0.3228346456692913
        },
        {
          "duration": 0.08333324999999547,
          "durationTicks": 96,
          "midi": 73,
          "name": "C#5",
          "ticks": 102429,
          "time": 88.9139735859375,
          "velocity": 0.1732283464566929
        },
        {
          "duration": 0.08333325000000968,
          "durationTicks": 96,
          "midi": 74,
          "name": "D5",
          "ticks": 102525,
          "time": 88.9973068359375,
          "velocity": 0.3228346456692913
        },
        {
          "duration": 0.08333325000000968,
          "durationTicks": 96,
          "midi": 74,
          "name": "D5",
          "ticks": 102525,
          "time": 88.9973068359375,
          "velocity": 0.1732283464566929
        },
        {
          "duration": 0.16666650000000516,
          "durationTicks": 192,
          "midi": 29,
          "name": "F1",
          "ticks": 102525,
          "time": 88.9973068359375,
          "velocity": 0.3228346456692913
        },
        {
          "duration": 0.16666650000000516,
          "durationTicks": 192,
          "midi": 41,
          "name": "F2",
          "ticks": 102525,
          "time": 88.9973068359375,
          "velocity": 0.29133858267716534
        },
        {
          "duration": 0.08333324999999547,
          "durationTicks": 96,
          "midi": 75,
          "name": "D#5",
          "ticks": 102621,
          "time": 89.0806400859375,
          "velocity": 0.3228346456692913
        },
        {
          "duration": 0.08333324999999547,
          "durationTicks": 96,
          "midi": 75,
          "name": "D#5",
          "ticks": 102621,
          "time": 89.0806400859375,
          "velocity": 0.1732283464566929
        },
        {
          "duration": 0.04166662500000484,
          "durationTicks": 48,
          "midi": 57,
          "name": "A3",
          "ticks": 102717,
          "time": 89.1639733359375,
          "velocity": 0.2755905511811024
        },
        {
          "duration": 0.04166662500000484,
          "durationTicks": 48,
          "midi": 60,
          "name": "C4",
          "ticks": 102717,
          "time": 89.1639733359375,
          "velocity": 0.2755905511811024
        },
        {
          "duration": 0.04166662500000484,
          "durationTicks": 48,
          "midi": 63,
          "name": "D#4",
          "ticks": 102717,
          "time": 89.1639733359375,
          "velocity": 0.2755905511811024
        },
        {
          "duration": 0.04166662500000484,
          "durationTicks": 48,
          "midi": 53,
          "name": "F3",
          "ticks": 102717,
          "time": 89.1639733359375,
          "velocity": 0.2755905511811024
        },
        {
          "duration": 0.08333324999999547,
          "durationTicks": 96,
          "midi": 77,
          "name": "F5",
          "ticks": 102717,
          "time": 89.1639733359375,
          "velocity": 0.3228346456692913
        },
        {
          "duration": 0.08333324999999547,
          "durationTicks": 96,
          "midi": 77,
          "name": "F5",
          "ticks": 102717,
          "time": 89.1639733359375,
          "velocity": 0.1732283464566929
        },
        {
          "duration": 0.08333324999999547,
          "durationTicks": 96,
          "midi": 41,
          "name": "F2",
          "ticks": 102717,
          "time": 89.1639733359375,
          "velocity": 0.2992125984251969
        },
        {
          "duration": 0.08333325000000968,
          "durationTicks": 96,
          "midi": 75,
          "name": "D#5",
          "ticks": 102813,
          "time": 89.2473065859375,
          "velocity": 0.3228346456692913
        },
        {
          "duration": 0.08333325000000968,
          "durationTicks": 96,
          "midi": 75,
          "name": "D#5",
          "ticks": 102813,
          "time": 89.2473065859375,
          "velocity": 0.1732283464566929
        },
        {
          "duration": 0.04166662500000484,
          "durationTicks": 48,
          "midi": 29,
          "name": "F1",
          "ticks": 102813,
          "time": 89.2473065859375,
          "velocity": 0.25196850393700787
        },
        {
          "duration": 0.08333324999999547,
          "durationTicks": 96,
          "midi": 76,
          "name": "E5",
          "ticks": 102909,
          "time": 89.3306398359375,
          "velocity": 0.3228346456692913
        },
        {
          "duration": 0.08333324999999547,
          "durationTicks": 96,
          "midi": 76,
          "name": "E5",
          "ticks": 102909,
          "time": 89.3306398359375,
          "velocity": 0.1732283464566929
        },
        {
          "duration": 0.16666649999999095,
          "durationTicks": 192,
          "midi": 28,
          "name": "E1",
          "ticks": 102909,
          "time": 89.3306398359375,
          "velocity": 0.3228346456692913
        },
        {
          "duration": 0.08333324999999547,
          "durationTicks": 96,
          "midi": 77,
          "name": "F5",
          "ticks": 103005,
          "time": 89.4139730859375,
          "velocity": 0.3228346456692913
        },
        {
          "duration": 0.08333324999999547,
          "durationTicks": 96,
          "midi": 77,
          "name": "F5",
          "ticks": 103005,
          "time": 89.4139730859375,
          "velocity": 0.1732283464566929
        },
        {
          "duration": 0.04166662500000484,
          "durationTicks": 48,
          "midi": 56,
          "name": "G#3",
          "ticks": 103101,
          "time": 89.4973063359375,
          "velocity": 0.2755905511811024
        },
        {
          "duration": 0.04166662500000484,
          "durationTicks": 48,
          "midi": 64,
          "name": "E4",
          "ticks": 103101,
          "time": 89.4973063359375,
          "velocity": 0.2755905511811024
        },
        {
          "duration": 0.04166662500000484,
          "durationTicks": 48,
          "midi": 59,
          "name": "B3",
          "ticks": 103101,
          "time": 89.4973063359375,
          "velocity": 0.2755905511811024
        },
        {
          "duration": 0.08333325000000968,
          "durationTicks": 96,
          "midi": 80,
          "name": "G#5",
          "ticks": 103101,
          "time": 89.4973063359375,
          "velocity": 0.3228346456692913
        },
        {
          "duration": 0.08333325000000968,
          "durationTicks": 96,
          "midi": 80,
          "name": "G#5",
          "ticks": 103101,
          "time": 89.4973063359375,
          "velocity": 0.1732283464566929
        },
        {
          "duration": 0.08333325000000968,
          "durationTicks": 96,
          "midi": 40,
          "name": "E2",
          "ticks": 103101,
          "time": 89.4973063359375,
          "velocity": 0.2992125984251969
        },
        {
          "duration": 0.08333324999999547,
          "durationTicks": 96,
          "midi": 81,
          "name": "A5",
          "ticks": 103197,
          "time": 89.5806395859375,
          "velocity": 0.3228346456692913
        },
        {
          "duration": 0.08333324999999547,
          "durationTicks": 96,
          "midi": 81,
          "name": "A5",
          "ticks": 103197,
          "time": 89.5806395859375,
          "velocity": 0.1732283464566929
        },
        {
          "duration": 0.08333324999999547,
          "durationTicks": 96,
          "midi": 83,
          "name": "B5",
          "ticks": 103293,
          "time": 89.6639728359375,
          "velocity": 0.3228346456692913
        },
        {
          "duration": 0.08333324999999547,
          "durationTicks": 96,
          "midi": 83,
          "name": "B5",
          "ticks": 103293,
          "time": 89.6639728359375,
          "velocity": 0.1732283464566929
        },
        {
          "duration": 0.16666649999999095,
          "durationTicks": 192,
          "midi": 28,
          "name": "E1",
          "ticks": 103293,
          "time": 89.6639728359375,
          "velocity": 0.3228346456692913
        },
        {
          "duration": 0.16666649999999095,
          "durationTicks": 192,
          "midi": 40,
          "name": "E2",
          "ticks": 103293,
          "time": 89.6639728359375,
          "velocity": 0.29133858267716534
        },
        {
          "duration": 0.08333324999999547,
          "durationTicks": 96,
          "midi": 84,
          "name": "C6",
          "ticks": 103389,
          "time": 89.7473060859375,
          "velocity": 0.3228346456692913
        },
        {
          "duration": 0.08333324999999547,
          "durationTicks": 96,
          "midi": 84,
          "name": "C6",
          "ticks": 103389,
          "time": 89.7473060859375,
          "velocity": 0.1732283464566929
        },
        {
          "duration": 0.04166662500000484,
          "durationTicks": 48,
          "midi": 64,
          "name": "E4",
          "ticks": 103485,
          "time": 89.83063933593749,
          "velocity": 0.2755905511811024
        },
        {
          "duration": 0.04166662500000484,
          "durationTicks": 48,
          "midi": 59,
          "name": "B3",
          "ticks": 103485,
          "time": 89.83063933593749,
          "velocity": 0.2755905511811024
        },
        {
          "duration": 0.04166662500000484,
          "durationTicks": 48,
          "midi": 56,
          "name": "G#3",
          "ticks": 103485,
          "time": 89.83063933593749,
          "velocity": 0.2755905511811024
        },
        {
          "duration": 0.08333325000000968,
          "durationTicks": 96,
          "midi": 87,
          "name": "D#6",
          "ticks": 103485,
          "time": 89.83063933593749,
          "velocity": 0.3228346456692913
        },
        {
          "duration": 0.08333325000000968,
          "durationTicks": 96,
          "midi": 87,
          "name": "D#6",
          "ticks": 103485,
          "time": 89.83063933593749,
          "velocity": 0.1732283464566929
        },
        {
          "duration": 0.08333325000000968,
          "durationTicks": 96,
          "midi": 40,
          "name": "E2",
          "ticks": 103485,
          "time": 89.83063933593749,
          "velocity": 0.2992125984251969
        },
        {
          "duration": 0.08333324999999547,
          "durationTicks": 96,
          "midi": 88,
          "name": "E6",
          "ticks": 103581,
          "time": 89.9139725859375,
          "velocity": 0.3228346456692913
        },
        {
          "duration": 0.08333324999999547,
          "durationTicks": 96,
          "midi": 88,
          "name": "E6",
          "ticks": 103581,
          "time": 89.9139725859375,
          "velocity": 0.1732283464566929
        },
        {
          "duration": 0.04166662499999063,
          "durationTicks": 48,
          "midi": 28,
          "name": "E1",
          "ticks": 103581,
          "time": 89.9139725859375,
          "velocity": 0.25196850393700787
        },
        {
          "duration": 0.08333324999999547,
          "durationTicks": 96,
          "midi": 89,
          "name": "F6",
          "ticks": 103677,
          "time": 89.9973058359375,
          "velocity": 0.3228346456692913
        },
        {
          "duration": 0.08333324999999547,
          "durationTicks": 96,
          "midi": 89,
          "name": "F6",
          "ticks": 103677,
          "time": 89.9973058359375,
          "velocity": 0.1732283464566929
        },
        {
          "duration": 0.16666650000000516,
          "durationTicks": 192,
          "midi": 28,
          "name": "E1",
          "ticks": 103677,
          "time": 89.9973058359375,
          "velocity": 0.3228346456692913
        },
        {
          "duration": 0.08333325000000968,
          "durationTicks": 96,
          "midi": 88,
          "name": "E6",
          "ticks": 103773,
          "time": 90.08063908593749,
          "velocity": 0.3228346456692913
        },
        {
          "duration": 0.08333325000000968,
          "durationTicks": 96,
          "midi": 88,
          "name": "E6",
          "ticks": 103773,
          "time": 90.08063908593749,
          "velocity": 0.1732283464566929
        },
        {
          "duration": 0.04166662499999063,
          "durationTicks": 48,
          "midi": 64,
          "name": "E4",
          "ticks": 103869,
          "time": 90.1639723359375,
          "velocity": 0.2755905511811024
        },
        {
          "duration": 0.04166662499999063,
          "durationTicks": 48,
          "midi": 59,
          "name": "B3",
          "ticks": 103869,
          "time": 90.1639723359375,
          "velocity": 0.2755905511811024
        },
        {
          "duration": 0.04166662499999063,
          "durationTicks": 48,
          "midi": 56,
          "name": "G#3",
          "ticks": 103869,
          "time": 90.1639723359375,
          "velocity": 0.2755905511811024
        },
        {
          "duration": 0.08333324999999547,
          "durationTicks": 96,
          "midi": 87,
          "name": "D#6",
          "ticks": 103869,
          "time": 90.1639723359375,
          "velocity": 0.3228346456692913
        },
        {
          "duration": 0.08333324999999547,
          "durationTicks": 96,
          "midi": 87,
          "name": "D#6",
          "ticks": 103869,
          "time": 90.1639723359375,
          "velocity": 0.1732283464566929
        },
        {
          "duration": 0.08333324999999547,
          "durationTicks": 96,
          "midi": 88,
          "name": "E6",
          "ticks": 103965,
          "time": 90.2473055859375,
          "velocity": 0.3228346456692913
        },
        {
          "duration": 0.08333324999999547,
          "durationTicks": 96,
          "midi": 88,
          "name": "E6",
          "ticks": 103965,
          "time": 90.2473055859375,
          "velocity": 0.1732283464566929
        },
        {
          "duration": 0.3333330000000103,
          "durationTicks": 384,
          "midi": 56,
          "name": "G#3",
          "ticks": 104061,
          "time": 90.33063883593749,
          "velocity": 0.2755905511811024
        },
        {
          "duration": 0.3333330000000103,
          "durationTicks": 384,
          "midi": 59,
          "name": "B3",
          "ticks": 104061,
          "time": 90.33063883593749,
          "velocity": 0.2755905511811024
        },
        {
          "duration": 0.3333330000000103,
          "durationTicks": 384,
          "midi": 52,
          "name": "E3",
          "ticks": 104061,
          "time": 90.33063883593749,
          "velocity": 0.2755905511811024
        },
        {
          "duration": 0.08333325000000968,
          "durationTicks": 96,
          "midi": 83,
          "name": "B5",
          "ticks": 104061,
          "time": 90.33063883593749,
          "velocity": 0.3228346456692913
        },
        {
          "duration": 0.08333325000000968,
          "durationTicks": 96,
          "midi": 83,
          "name": "B5",
          "ticks": 104061,
          "time": 90.33063883593749,
          "velocity": 0.1732283464566929
        },
        {
          "duration": 0.16666650000000516,
          "durationTicks": 192,
          "midi": 40,
          "name": "E2",
          "ticks": 104061,
          "time": 90.33063883593749,
          "velocity": 0.2992125984251969
        },
        {
          "duration": 0.16666650000000516,
          "durationTicks": 192,
          "midi": 28,
          "name": "E1",
          "ticks": 104061,
          "time": 90.33063883593749,
          "velocity": 0.3228346456692913
        },
        {
          "duration": 0.3333330000000103,
          "durationTicks": 384,
          "midi": 40,
          "name": "E2",
          "ticks": 104061,
          "time": 90.33063883593749,
          "velocity": 0.29133858267716534
        },
        {
          "duration": 0.08333324999999547,
          "durationTicks": 96,
          "midi": 80,
          "name": "G#5",
          "ticks": 104157,
          "time": 90.4139720859375,
          "velocity": 0.3228346456692913
        },
        {
          "duration": 0.08333324999999547,
          "durationTicks": 96,
          "midi": 80,
          "name": "G#5",
          "ticks": 104157,
          "time": 90.4139720859375,
          "velocity": 0.1732283464566929
        },
        {
          "duration": 0.08333324999999547,
          "durationTicks": 96,
          "midi": 74,
          "name": "D5",
          "ticks": 104253,
          "time": 90.4973053359375,
          "velocity": 0.3228346456692913
        },
        {
          "duration": 0.08333324999999547,
          "durationTicks": 96,
          "midi": 74,
          "name": "D5",
          "ticks": 104253,
          "time": 90.4973053359375,
          "velocity": 0.1732283464566929
        },
        {
          "duration": 0.08333325000000968,
          "durationTicks": 96,
          "midi": 71,
          "name": "B4",
          "ticks": 104349,
          "time": 90.58063858593749,
          "velocity": 0.3228346456692913
        },
        {
          "duration": 0.08333325000000968,
          "durationTicks": 96,
          "midi": 71,
          "name": "B4",
          "ticks": 104349,
          "time": 90.58063858593749,
          "velocity": 0.1732283464566929
        },
        {
          "duration": 0.04166662500000484,
          "durationTicks": 48,
          "midi": 28,
          "name": "E1",
          "ticks": 104349,
          "time": 90.58063858593749,
          "velocity": 0.25196850393700787
        },
        {
          "duration": 0.08333324999999547,
          "durationTicks": 96,
          "midi": 72,
          "name": "C5",
          "ticks": 104445,
          "time": 90.6639718359375,
          "velocity": 0.3228346456692913
        },
        {
          "duration": 0.08333324999999547,
          "durationTicks": 96,
          "midi": 72,
          "name": "C5",
          "ticks": 104445,
          "time": 90.6639718359375,
          "velocity": 0.1732283464566929
        },
        {
          "duration": 0.16666649999999095,
          "durationTicks": 192,
          "midi": 33,
          "name": "A1",
          "ticks": 104445,
          "time": 90.6639718359375,
          "velocity": 0.3228346456692913
        },
        {
          "duration": 0.08333324999999547,
          "durationTicks": 96,
          "midi": 71,
          "name": "B4",
          "ticks": 104541,
          "time": 90.7473050859375,
          "velocity": 0.3228346456692913
        },
        {
          "duration": 0.08333324999999547,
          "durationTicks": 96,
          "midi": 71,
          "name": "B4",
          "ticks": 104541,
          "time": 90.7473050859375,
          "velocity": 0.1732283464566929
        },
        {
          "duration": 0.04166662500000484,
          "durationTicks": 48,
          "midi": 64,
          "name": "E4",
          "ticks": 104637,
          "time": 90.8306383359375,
          "velocity": 0.2755905511811024
        },
        {
          "duration": 0.04166662500000484,
          "durationTicks": 48,
          "midi": 60,
          "name": "C4",
          "ticks": 104637,
          "time": 90.8306383359375,
          "velocity": 0.2755905511811024
        },
        {
          "duration": 0.04166662500000484,
          "durationTicks": 48,
          "midi": 57,
          "name": "A3",
          "ticks": 104637,
          "time": 90.8306383359375,
          "velocity": 0.2755905511811024
        },
        {
          "duration": 0.08333325000000968,
          "durationTicks": 96,
          "midi": 69,
          "name": "A4",
          "ticks": 104637,
          "time": 90.8306383359375,
          "velocity": 0.3228346456692913
        },
        {
          "duration": 0.08333325000000968,
          "durationTicks": 96,
          "midi": 69,
          "name": "A4",
          "ticks": 104637,
          "time": 90.8306383359375,
          "velocity": 0.1732283464566929
        },
        {
          "duration": 0.08333325000000968,
          "durationTicks": 96,
          "midi": 45,
          "name": "A2",
          "ticks": 104637,
          "time": 90.8306383359375,
          "velocity": 0.2992125984251969
        },
        {
          "duration": 0.08333324999999547,
          "durationTicks": 96,
          "midi": 71,
          "name": "B4",
          "ticks": 104733,
          "time": 90.9139715859375,
          "velocity": 0.3228346456692913
        },
        {
          "duration": 0.08333324999999547,
          "durationTicks": 96,
          "midi": 71,
          "name": "B4",
          "ticks": 104733,
          "time": 90.9139715859375,
          "velocity": 0.1732283464566929
        },
        {
          "duration": 0.08333324999999547,
          "durationTicks": 96,
          "midi": 72,
          "name": "C5",
          "ticks": 104829,
          "time": 90.9973048359375,
          "velocity": 0.3228346456692913
        },
        {
          "duration": 0.08333324999999547,
          "durationTicks": 96,
          "midi": 72,
          "name": "C5",
          "ticks": 104829,
          "time": 90.9973048359375,
          "velocity": 0.1732283464566929
        },
        {
          "duration": 0.16666650000000516,
          "durationTicks": 192,
          "midi": 33,
          "name": "A1",
          "ticks": 104829,
          "time": 90.9973048359375,
          "velocity": 0.3228346456692913
        },
        {
          "duration": 0.16666650000000516,
          "durationTicks": 192,
          "midi": 45,
          "name": "A2",
          "ticks": 104829,
          "time": 90.9973048359375,
          "velocity": 0.29133858267716534
        },
        {
          "duration": 0.08333325000000968,
          "durationTicks": 96,
          "midi": 75,
          "name": "D#5",
          "ticks": 104925,
          "time": 91.0806380859375,
          "velocity": 0.3228346456692913
        },
        {
          "duration": 0.08333325000000968,
          "durationTicks": 96,
          "midi": 75,
          "name": "D#5",
          "ticks": 104925,
          "time": 91.0806380859375,
          "velocity": 0.1732283464566929
        },
        {
          "duration": 0.04166662499999063,
          "durationTicks": 48,
          "midi": 60,
          "name": "C4",
          "ticks": 105021,
          "time": 91.1639713359375,
          "velocity": 0.2755905511811024
        },
        {
          "duration": 0.04166662499999063,
          "durationTicks": 48,
          "midi": 57,
          "name": "A3",
          "ticks": 105021,
          "time": 91.1639713359375,
          "velocity": 0.2755905511811024
        },
        {
          "duration": 0.04166662499999063,
          "durationTicks": 48,
          "midi": 64,
          "name": "E4",
          "ticks": 105021,
          "time": 91.1639713359375,
          "velocity": 0.2755905511811024
        },
        {
          "duration": 0.08333324999999547,
          "durationTicks": 96,
          "midi": 76,
          "name": "E5",
          "ticks": 105021,
          "time": 91.1639713359375,
          "velocity": 0.3228346456692913
        },
        {
          "duration": 0.08333324999999547,
          "durationTicks": 96,
          "midi": 76,
          "name": "E5",
          "ticks": 105021,
          "time": 91.1639713359375,
          "velocity": 0.1732283464566929
        },
        {
          "duration": 0.08333324999999547,
          "durationTicks": 96,
          "midi": 45,
          "name": "A2",
          "ticks": 105021,
          "time": 91.1639713359375,
          "velocity": 0.2992125984251969
        },
        {
          "duration": 0.08333324999999547,
          "durationTicks": 96,
          "midi": 81,
          "name": "A5",
          "ticks": 105117,
          "time": 91.2473045859375,
          "velocity": 0.3228346456692913
        },
        {
          "duration": 0.08333324999999547,
          "durationTicks": 96,
          "midi": 81,
          "name": "A5",
          "ticks": 105117,
          "time": 91.2473045859375,
          "velocity": 0.1732283464566929
        },
        {
          "duration": 0.04166662500000484,
          "durationTicks": 48,
          "midi": 33,
          "name": "A1",
          "ticks": 105117,
          "time": 91.2473045859375,
          "velocity": 0.25196850393700787
        },
        {
          "duration": 0.08333325000000968,
          "durationTicks": 96,
          "midi": 84,
          "name": "C6",
          "ticks": 105213,
          "time": 91.3306378359375,
          "velocity": 0.3228346456692913
        },
        {
          "duration": 0.08333325000000968,
          "durationTicks": 96,
          "midi": 84,
          "name": "C6",
          "ticks": 105213,
          "time": 91.3306378359375,
          "velocity": 0.1732283464566929
        },
        {
          "duration": 0.16666650000000516,
          "durationTicks": 192,
          "midi": 33,
          "name": "A1",
          "ticks": 105213,
          "time": 91.3306378359375,
          "velocity": 0.3228346456692913
        },
        {
          "duration": 0.08333324999999547,
          "durationTicks": 96,
          "midi": 83,
          "name": "B5",
          "ticks": 105309,
          "time": 91.4139710859375,
          "velocity": 0.3228346456692913
        },
        {
          "duration": 0.08333324999999547,
          "durationTicks": 96,
          "midi": 83,
          "name": "B5",
          "ticks": 105309,
          "time": 91.4139710859375,
          "velocity": 0.1732283464566929
        },
        {
          "duration": 0.04166662499999063,
          "durationTicks": 48,
          "midi": 64,
          "name": "E4",
          "ticks": 105405,
          "time": 91.4973043359375,
          "velocity": 0.2755905511811024
        },
        {
          "duration": 0.04166662499999063,
          "durationTicks": 48,
          "midi": 60,
          "name": "C4",
          "ticks": 105405,
          "time": 91.4973043359375,
          "velocity": 0.2755905511811024
        },
        {
          "duration": 0.04166662499999063,
          "durationTicks": 48,
          "midi": 57,
          "name": "A3",
          "ticks": 105405,
          "time": 91.4973043359375,
          "velocity": 0.2755905511811024
        },
        {
          "duration": 0.08333324999999547,
          "durationTicks": 96,
          "midi": 80,
          "name": "G#5",
          "ticks": 105405,
          "time": 91.4973043359375,
          "velocity": 0.3228346456692913
        },
        {
          "duration": 0.08333324999999547,
          "durationTicks": 96,
          "midi": 80,
          "name": "G#5",
          "ticks": 105405,
          "time": 91.4973043359375,
          "velocity": 0.1732283464566929
        },
        {
          "duration": 0.08333324999999547,
          "durationTicks": 96,
          "midi": 45,
          "name": "A2",
          "ticks": 105405,
          "time": 91.4973043359375,
          "velocity": 0.2992125984251969
        },
        {
          "duration": 0.08333324999999547,
          "durationTicks": 96,
          "midi": 83,
          "name": "B5",
          "ticks": 105501,
          "time": 91.5806375859375,
          "velocity": 0.3228346456692913
        },
        {
          "duration": 0.08333324999999547,
          "durationTicks": 96,
          "midi": 83,
          "name": "B5",
          "ticks": 105501,
          "time": 91.5806375859375,
          "velocity": 0.1732283464566929
        },
        {
          "duration": 0.08333325000000968,
          "durationTicks": 96,
          "midi": 81,
          "name": "A5",
          "ticks": 105597,
          "time": 91.66397083593749,
          "velocity": 0.3228346456692913
        },
        {
          "duration": 0.08333325000000968,
          "durationTicks": 96,
          "midi": 81,
          "name": "A5",
          "ticks": 105597,
          "time": 91.66397083593749,
          "velocity": 0.1732283464566929
        },
        {
          "duration": 0.16666650000000516,
          "durationTicks": 192,
          "midi": 33,
          "name": "A1",
          "ticks": 105597,
          "time": 91.66397083593749,
          "velocity": 0.3228346456692913
        },
        {
          "duration": 0.16666650000000516,
          "durationTicks": 192,
          "midi": 45,
          "name": "A2",
          "ticks": 105597,
          "time": 91.66397083593749,
          "velocity": 0.29133858267716534
        },
        {
          "duration": 0.08333324999999547,
          "durationTicks": 96,
          "midi": 75,
          "name": "D#5",
          "ticks": 105693,
          "time": 91.7473040859375,
          "velocity": 0.3228346456692913
        },
        {
          "duration": 0.08333324999999547,
          "durationTicks": 96,
          "midi": 75,
          "name": "D#5",
          "ticks": 105693,
          "time": 91.7473040859375,
          "velocity": 0.1732283464566929
        },
        {
          "duration": 0.04166662500000484,
          "durationTicks": 48,
          "midi": 60,
          "name": "C4",
          "ticks": 105789,
          "time": 91.8306373359375,
          "velocity": 0.2755905511811024
        },
        {
          "duration": 0.04166662500000484,
          "durationTicks": 48,
          "midi": 57,
          "name": "A3",
          "ticks": 105789,
          "time": 91.8306373359375,
          "velocity": 0.2755905511811024
        },
        {
          "duration": 0.04166662500000484,
          "durationTicks": 48,
          "midi": 64,
          "name": "E4",
          "ticks": 105789,
          "time": 91.8306373359375,
          "velocity": 0.2755905511811024
        },
        {
          "duration": 0.08333324999999547,
          "durationTicks": 96,
          "midi": 74,
          "name": "D5",
          "ticks": 105789,
          "time": 91.8306373359375,
          "velocity": 0.3228346456692913
        },
        {
          "duration": 0.08333324999999547,
          "durationTicks": 96,
          "midi": 74,
          "name": "D5",
          "ticks": 105789,
          "time": 91.8306373359375,
          "velocity": 0.1732283464566929
        },
        {
          "duration": 0.08333324999999547,
          "durationTicks": 96,
          "midi": 45,
          "name": "A2",
          "ticks": 105789,
          "time": 91.8306373359375,
          "velocity": 0.2992125984251969
        },
        {
          "duration": 0.08333325000000968,
          "durationTicks": 96,
          "midi": 72,
          "name": "C5",
          "ticks": 105885,
          "time": 91.91397058593749,
          "velocity": 0.3228346456692913
        },
        {
          "duration": 0.08333325000000968,
          "durationTicks": 96,
          "midi": 72,
          "name": "C5",
          "ticks": 105885,
          "time": 91.91397058593749,
          "velocity": 0.1732283464566929
        },
        {
          "duration": 0.04166662500000484,
          "durationTicks": 48,
          "midi": 33,
          "name": "A1",
          "ticks": 105885,
          "time": 91.91397058593749,
          "velocity": 0.25196850393700787
        },
        {
          "duration": 0.08333324999999547,
          "durationTicks": 96,
          "midi": 74,
          "name": "D5",
          "ticks": 105981,
          "time": 91.9973038359375,
          "velocity": 0.3228346456692913
        },
        {
          "duration": 0.08333324999999547,
          "durationTicks": 96,
          "midi": 69,
          "name": "A4",
          "ticks": 105981,
          "time": 91.9973038359375,
          "velocity": 0.2992125984251969
        },
        {
          "duration": 0.08333324999999547,
          "durationTicks": 96,
          "midi": 74,
          "name": "D5",
          "ticks": 105981,
          "time": 91.9973038359375,
          "velocity": 0.1732283464566929
        },
        {
          "duration": 0.08333324999999547,
          "durationTicks": 96,
          "midi": 69,
          "name": "A4",
          "ticks": 105981,
          "time": 91.9973038359375,
          "velocity": 0.1732283464566929
        },
        {
          "duration": 0.16666649999999095,
          "durationTicks": 192,
          "midi": 36,
          "name": "C2",
          "ticks": 105981,
          "time": 91.9973038359375,
          "velocity": 0.3228346456692913
        },
        {
          "duration": 0.04166662500000484,
          "durationTicks": 48,
          "midi": 64,
          "name": "E4",
          "ticks": 106173,
          "time": 92.16397033593749,
          "velocity": 0.2755905511811024
        },
        {
          "duration": 0.04166662500000484,
          "durationTicks": 48,
          "midi": 60,
          "name": "C4",
          "ticks": 106173,
          "time": 92.16397033593749,
          "velocity": 0.2755905511811024
        },
        {
          "duration": 0.04166662500000484,
          "durationTicks": 48,
          "midi": 55,
          "name": "G3",
          "ticks": 106173,
          "time": 92.16397033593749,
          "velocity": 0.2755905511811024
        },
        {
          "duration": 0.04166662500000484,
          "durationTicks": 48,
          "midi": 57,
          "name": "A3",
          "ticks": 106173,
          "time": 92.16397033593749,
          "velocity": 0.2755905511811024
        },
        {
          "duration": 0.08333325000000968,
          "durationTicks": 96,
          "midi": 69,
          "name": "A4",
          "ticks": 106173,
          "time": 92.16397033593749,
          "velocity": 0.2992125984251969
        },
        {
          "duration": 0.08333325000000968,
          "durationTicks": 96,
          "midi": 74,
          "name": "D5",
          "ticks": 106173,
          "time": 92.16397033593749,
          "velocity": 0.3228346456692913
        },
        {
          "duration": 0.08333325000000968,
          "durationTicks": 96,
          "midi": 74,
          "name": "D5",
          "ticks": 106173,
          "time": 92.16397033593749,
          "velocity": 0.1732283464566929
        },
        {
          "duration": 0.08333325000000968,
          "durationTicks": 96,
          "midi": 69,
          "name": "A4",
          "ticks": 106173,
          "time": 92.16397033593749,
          "velocity": 0.1732283464566929
        },
        {
          "duration": 0.08333325000000968,
          "durationTicks": 96,
          "midi": 48,
          "name": "C3",
          "ticks": 106173,
          "time": 92.16397033593749,
          "velocity": 0.2992125984251969
        },
        {
          "duration": 0.08333324999999547,
          "durationTicks": 96,
          "midi": 72,
          "name": "C5",
          "ticks": 106269,
          "time": 92.2473035859375,
          "velocity": 0.3228346456692913
        },
        {
          "duration": 0.08333324999999547,
          "durationTicks": 96,
          "midi": 69,
          "name": "A4",
          "ticks": 106269,
          "time": 92.2473035859375,
          "velocity": 0.2992125984251969
        },
        {
          "duration": 0.08333324999999547,
          "durationTicks": 96,
          "midi": 72,
          "name": "C5",
          "ticks": 106269,
          "time": 92.2473035859375,
          "velocity": 0.1732283464566929
        },
        {
          "duration": 0.08333324999999547,
          "durationTicks": 96,
          "midi": 69,
          "name": "A4",
          "ticks": 106269,
          "time": 92.2473035859375,
          "velocity": 0.1732283464566929
        },
        {
          "duration": 0.08333324999999547,
          "durationTicks": 96,
          "midi": 74,
          "name": "D5",
          "ticks": 106365,
          "time": 92.3306368359375,
          "velocity": 0.3228346456692913
        },
        {
          "duration": 0.08333324999999547,
          "durationTicks": 96,
          "midi": 69,
          "name": "A4",
          "ticks": 106365,
          "time": 92.3306368359375,
          "velocity": 0.2992125984251969
        },
        {
          "duration": 0.08333324999999547,
          "durationTicks": 96,
          "midi": 69,
          "name": "A4",
          "ticks": 106365,
          "time": 92.3306368359375,
          "velocity": 0.1732283464566929
        },
        {
          "duration": 0.08333324999999547,
          "durationTicks": 96,
          "midi": 74,
          "name": "D5",
          "ticks": 106365,
          "time": 92.3306368359375,
          "velocity": 0.1732283464566929
        },
        {
          "duration": 0.16666650000000516,
          "durationTicks": 192,
          "midi": 36,
          "name": "C2",
          "ticks": 106365,
          "time": 92.3306368359375,
          "velocity": 0.3228346456692913
        },
        {
          "duration": 0.16666650000000516,
          "durationTicks": 192,
          "midi": 48,
          "name": "C3",
          "ticks": 106365,
          "time": 92.3306368359375,
          "velocity": 0.29133858267716534
        },
        {
          "duration": 0.04166662499999063,
          "durationTicks": 48,
          "midi": 60,
          "name": "C4",
          "ticks": 106557,
          "time": 92.4973033359375,
          "velocity": 0.2755905511811024
        },
        {
          "duration": 0.04166662499999063,
          "durationTicks": 48,
          "midi": 55,
          "name": "G3",
          "ticks": 106557,
          "time": 92.4973033359375,
          "velocity": 0.2755905511811024
        },
        {
          "duration": 0.04166662499999063,
          "durationTicks": 48,
          "midi": 64,
          "name": "E4",
          "ticks": 106557,
          "time": 92.4973033359375,
          "velocity": 0.2755905511811024
        },
        {
          "duration": 0.04166662499999063,
          "durationTicks": 48,
          "midi": 57,
          "name": "A3",
          "ticks": 106557,
          "time": 92.4973033359375,
          "velocity": 0.2755905511811024
        },
        {
          "duration": 0.08333324999999547,
          "durationTicks": 96,
          "midi": 74,
          "name": "D5",
          "ticks": 106557,
          "time": 92.4973033359375,
          "velocity": 0.3228346456692913
        },
        {
          "duration": 0.08333324999999547,
          "durationTicks": 96,
          "midi": 69,
          "name": "A4",
          "ticks": 106557,
          "time": 92.4973033359375,
          "velocity": 0.2992125984251969
        },
        {
          "duration": 0.08333324999999547,
          "durationTicks": 96,
          "midi": 69,
          "name": "A4",
          "ticks": 106557,
          "time": 92.4973033359375,
          "velocity": 0.1732283464566929
        },
        {
          "duration": 0.08333324999999547,
          "durationTicks": 96,
          "midi": 74,
          "name": "D5",
          "ticks": 106557,
          "time": 92.4973033359375,
          "velocity": 0.1732283464566929
        },
        {
          "duration": 0.08333324999999547,
          "durationTicks": 96,
          "midi": 48,
          "name": "C3",
          "ticks": 106557,
          "time": 92.4973033359375,
          "velocity": 0.2992125984251969
        },
        {
          "duration": 0.08333324999999547,
          "durationTicks": 96,
          "midi": 69,
          "name": "A4",
          "ticks": 106653,
          "time": 92.5806365859375,
          "velocity": 0.2992125984251969
        },
        {
          "duration": 0.08333324999999547,
          "durationTicks": 96,
          "midi": 72,
          "name": "C5",
          "ticks": 106653,
          "time": 92.5806365859375,
          "velocity": 0.3228346456692913
        },
        {
          "duration": 0.08333324999999547,
          "durationTicks": 96,
          "midi": 72,
          "name": "C5",
          "ticks": 106653,
          "time": 92.5806365859375,
          "velocity": 0.1732283464566929
        },
        {
          "duration": 0.08333324999999547,
          "durationTicks": 96,
          "midi": 69,
          "name": "A4",
          "ticks": 106653,
          "time": 92.5806365859375,
          "velocity": 0.1732283464566929
        },
        {
          "duration": 0.04166662500000484,
          "durationTicks": 48,
          "midi": 36,
          "name": "C2",
          "ticks": 106653,
          "time": 92.5806365859375,
          "velocity": 0.25196850393700787
        },
        {
          "duration": 0.16666650000000516,
          "durationTicks": 192,
          "midi": 74,
          "name": "D5",
          "ticks": 106749,
          "time": 92.6639698359375,
          "velocity": 0.3228346456692913
        },
        {
          "duration": 0.16666650000000516,
          "durationTicks": 192,
          "midi": 74,
          "name": "D5",
          "ticks": 106749,
          "time": 92.6639698359375,
          "velocity": 0.1732283464566929
        },
        {
          "duration": 0.16666650000000516,
          "durationTicks": 192,
          "midi": 36,
          "name": "C2",
          "ticks": 106749,
          "time": 92.6639698359375,
          "velocity": 0.3228346456692913
        },
        {
          "duration": 0.04166662500000484,
          "durationTicks": 48,
          "midi": 60,
          "name": "C4",
          "ticks": 106941,
          "time": 92.8306363359375,
          "velocity": 0.2755905511811024
        },
        {
          "duration": 0.04166662500000484,
          "durationTicks": 48,
          "midi": 64,
          "name": "E4",
          "ticks": 106941,
          "time": 92.8306363359375,
          "velocity": 0.2755905511811024
        },
        {
          "duration": 0.04166662500000484,
          "durationTicks": 48,
          "midi": 57,
          "name": "A3",
          "ticks": 106941,
          "time": 92.8306363359375,
          "velocity": 0.2755905511811024
        },
        {
          "duration": 0.04166662500000484,
          "durationTicks": 48,
          "midi": 55,
          "name": "G3",
          "ticks": 106941,
          "time": 92.8306363359375,
          "velocity": 0.2755905511811024
        },
        {
          "duration": 0.16666650000000516,
          "durationTicks": 192,
          "midi": 76,
          "name": "E5",
          "ticks": 106941,
          "time": 92.8306363359375,
          "velocity": 0.3228346456692913
        },
        {
          "duration": 0.16666650000000516,
          "durationTicks": 192,
          "midi": 76,
          "name": "E5",
          "ticks": 106941,
          "time": 92.8306363359375,
          "velocity": 0.1732283464566929
        },
        {
          "duration": 0.08333324999999547,
          "durationTicks": 96,
          "midi": 48,
          "name": "C3",
          "ticks": 106941,
          "time": 92.8306363359375,
          "velocity": 0.2992125984251969
        },
        {
          "duration": 0.16666649999999095,
          "durationTicks": 192,
          "midi": 69,
          "name": "A4",
          "ticks": 107133,
          "time": 92.9973028359375,
          "velocity": 0.3228346456692913
        },
        {
          "duration": 0.16666649999999095,
          "durationTicks": 192,
          "midi": 69,
          "name": "A4",
          "ticks": 107133,
          "time": 92.9973028359375,
          "velocity": 0.1732283464566929
        },
        {
          "duration": 0.16666649999999095,
          "durationTicks": 192,
          "midi": 36,
          "name": "C2",
          "ticks": 107133,
          "time": 92.9973028359375,
          "velocity": 0.3228346456692913
        },
        {
          "duration": 0.16666649999999095,
          "durationTicks": 192,
          "midi": 48,
          "name": "C3",
          "ticks": 107133,
          "time": 92.9973028359375,
          "velocity": 0.29133858267716534
        },
        {
          "duration": 0.04166662500000484,
          "durationTicks": 48,
          "midi": 55,
          "name": "G3",
          "ticks": 107325,
          "time": 93.1639693359375,
          "velocity": 0.2755905511811024
        },
        {
          "duration": 0.04166662500000484,
          "durationTicks": 48,
          "midi": 64,
          "name": "E4",
          "ticks": 107325,
          "time": 93.1639693359375,
          "velocity": 0.2755905511811024
        },
        {
          "duration": 0.04166662500000484,
          "durationTicks": 48,
          "midi": 60,
          "name": "C4",
          "ticks": 107325,
          "time": 93.1639693359375,
          "velocity": 0.2755905511811024
        },
        {
          "duration": 0.04166662500000484,
          "durationTicks": 48,
          "midi": 57,
          "name": "A3",
          "ticks": 107325,
          "time": 93.1639693359375,
          "velocity": 0.2755905511811024
        },
        {
          "duration": 0.16666650000000516,
          "durationTicks": 192,
          "midi": 72,
          "name": "C5",
          "ticks": 107325,
          "time": 93.1639693359375,
          "velocity": 0.3228346456692913
        },
        {
          "duration": 0.16666650000000516,
          "durationTicks": 192,
          "midi": 72,
          "name": "C5",
          "ticks": 107325,
          "time": 93.1639693359375,
          "velocity": 0.1732283464566929
        },
        {
          "duration": 0.08333325000000968,
          "durationTicks": 96,
          "midi": 48,
          "name": "C3",
          "ticks": 107325,
          "time": 93.1639693359375,
          "velocity": 0.2992125984251969
        },
        {
          "duration": 0.04166662499999063,
          "durationTicks": 48,
          "midi": 36,
          "name": "C2",
          "ticks": 107421,
          "time": 93.2473025859375,
          "velocity": 0.25196850393700787
        },
        {
          "duration": 0.08333324999999547,
          "durationTicks": 96,
          "midi": 75,
          "name": "D#5",
          "ticks": 107517,
          "time": 93.3306358359375,
          "velocity": 0.3228346456692913
        },
        {
          "duration": 0.08333324999999547,
          "durationTicks": 96,
          "midi": 75,
          "name": "D#5",
          "ticks": 107517,
          "time": 93.3306358359375,
          "velocity": 0.1732283464566929
        },
        {
          "duration": 0.16666649999999095,
          "durationTicks": 192,
          "midi": 29,
          "name": "F1",
          "ticks": 107517,
          "time": 93.3306358359375,
          "velocity": 0.3228346456692913
        },
        {
          "duration": 0.04166662500000484,
          "durationTicks": 48,
          "midi": 63,
          "name": "D#4",
          "ticks": 107709,
          "time": 93.49730233593749,
          "velocity": 0.2755905511811024
        },
        {
          "duration": 0.04166662500000484,
          "durationTicks": 48,
          "midi": 53,
          "name": "F3",
          "ticks": 107709,
          "time": 93.49730233593749,
          "velocity": 0.2755905511811024
        },
        {
          "duration": 0.04166662500000484,
          "durationTicks": 48,
          "midi": 57,
          "name": "A3",
          "ticks": 107709,
          "time": 93.49730233593749,
          "velocity": 0.2755905511811024
        },
        {
          "duration": 0.04166662500000484,
          "durationTicks": 48,
          "midi": 60,
          "name": "C4",
          "ticks": 107709,
          "time": 93.49730233593749,
          "velocity": 0.2755905511811024
        },
        {
          "duration": 0.08333325000000968,
          "durationTicks": 96,
          "midi": 77,
          "name": "F5",
          "ticks": 107709,
          "time": 93.49730233593749,
          "velocity": 0.3228346456692913
        },
        {
          "duration": 0.08333325000000968,
          "durationTicks": 96,
          "midi": 77,
          "name": "F5",
          "ticks": 107709,
          "time": 93.49730233593749,
          "velocity": 0.1732283464566929
        },
        {
          "duration": 0.08333325000000968,
          "durationTicks": 96,
          "midi": 41,
          "name": "F2",
          "ticks": 107709,
          "time": 93.49730233593749,
          "velocity": 0.2992125984251969
        },
        {
          "duration": 0.08333324999999547,
          "durationTicks": 96,
          "midi": 79,
          "name": "G5",
          "ticks": 107901,
          "time": 93.6639688359375,
          "velocity": 0.3228346456692913
        },
        {
          "duration": 0.08333324999999547,
          "durationTicks": 96,
          "midi": 79,
          "name": "G5",
          "ticks": 107901,
          "time": 93.6639688359375,
          "velocity": 0.1732283464566929
        },
        {
          "duration": 0.16666650000000516,
          "durationTicks": 192,
          "midi": 29,
          "name": "F1",
          "ticks": 107901,
          "time": 93.6639688359375,
          "velocity": 0.3228346456692913
        },
        {
          "duration": 0.16666650000000516,
          "durationTicks": 192,
          "midi": 41,
          "name": "F2",
          "ticks": 107901,
          "time": 93.6639688359375,
          "velocity": 0.29133858267716534
        },
        {
          "duration": 0.04166662499999063,
          "durationTicks": 48,
          "midi": 57,
          "name": "A3",
          "ticks": 108093,
          "time": 93.8306353359375,
          "velocity": 0.2755905511811024
        },
        {
          "duration": 0.04166662499999063,
          "durationTicks": 48,
          "midi": 60,
          "name": "C4",
          "ticks": 108093,
          "time": 93.8306353359375,
          "velocity": 0.2755905511811024
        },
        {
          "duration": 0.04166662499999063,
          "durationTicks": 48,
          "midi": 53,
          "name": "F3",
          "ticks": 108093,
          "time": 93.8306353359375,
          "velocity": 0.2755905511811024
        },
        {
          "duration": 0.04166662499999063,
          "durationTicks": 48,
          "midi": 63,
          "name": "D#4",
          "ticks": 108093,
          "time": 93.8306353359375,
          "velocity": 0.2755905511811024
        },
        {
          "duration": 0.08333324999999547,
          "durationTicks": 96,
          "midi": 81,
          "name": "A5",
          "ticks": 108093,
          "time": 93.8306353359375,
          "velocity": 0.3228346456692913
        },
        {
          "duration": 0.08333324999999547,
          "durationTicks": 96,
          "midi": 81,
          "name": "A5",
          "ticks": 108093,
          "time": 93.8306353359375,
          "velocity": 0.1732283464566929
        },
        {
          "duration": 0.08333324999999547,
          "durationTicks": 96,
          "midi": 41,
          "name": "F2",
          "ticks": 108093,
          "time": 93.8306353359375,
          "velocity": 0.2992125984251969
        },
        {
          "duration": 0.04166662500000484,
          "durationTicks": 48,
          "midi": 29,
          "name": "F1",
          "ticks": 108189,
          "time": 93.9139685859375,
          "velocity": 0.25196850393700787
        },
        {
          "duration": 0.08333325000000968,
          "durationTicks": 96,
          "midi": 83,
          "name": "B5",
          "ticks": 108285,
          "time": 93.99730183593749,
          "velocity": 0.3228346456692913
        },
        {
          "duration": 0.08333325000000968,
          "durationTicks": 96,
          "midi": 83,
          "name": "B5",
          "ticks": 108285,
          "time": 93.99730183593749,
          "velocity": 0.1732283464566929
        },
        {
          "duration": 0.16666650000000516,
          "durationTicks": 192,
          "midi": 29,
          "name": "F1",
          "ticks": 108285,
          "time": 93.99730183593749,
          "velocity": 0.3228346456692913
        },
        {
          "duration": 0.04166662500000484,
          "durationTicks": 48,
          "midi": 63,
          "name": "D#4",
          "ticks": 108477,
          "time": 94.1639683359375,
          "velocity": 0.2755905511811024
        },
        {
          "duration": 0.04166662500000484,
          "durationTicks": 48,
          "midi": 53,
          "name": "F3",
          "ticks": 108477,
          "time": 94.1639683359375,
          "velocity": 0.2755905511811024
        },
        {
          "duration": 0.04166662500000484,
          "durationTicks": 48,
          "midi": 57,
          "name": "A3",
          "ticks": 108477,
          "time": 94.1639683359375,
          "velocity": 0.2755905511811024
        },
        {
          "duration": 0.04166662500000484,
          "durationTicks": 48,
          "midi": 60,
          "name": "C4",
          "ticks": 108477,
          "time": 94.1639683359375,
          "velocity": 0.2755905511811024
        },
        {
          "duration": 0.08333324999999547,
          "durationTicks": 96,
          "midi": 84,
          "name": "C6",
          "ticks": 108477,
          "time": 94.1639683359375,
          "velocity": 0.3228346456692913
        },
        {
          "duration": 0.08333324999999547,
          "durationTicks": 96,
          "midi": 84,
          "name": "C6",
          "ticks": 108477,
          "time": 94.1639683359375,
          "velocity": 0.1732283464566929
        },
        {
          "duration": 0.08333324999999547,
          "durationTicks": 96,
          "midi": 41,
          "name": "F2",
          "ticks": 108477,
          "time": 94.1639683359375,
          "velocity": 0.2992125984251969
        },
        {
          "duration": 0.08333324999999547,
          "durationTicks": 96,
          "midi": 86,
          "name": "D6",
          "ticks": 108669,
          "time": 94.3306348359375,
          "velocity": 0.3228346456692913
        },
        {
          "duration": 0.08333324999999547,
          "durationTicks": 96,
          "midi": 86,
          "name": "D6",
          "ticks": 108669,
          "time": 94.3306348359375,
          "velocity": 0.1732283464566929
        },
        {
          "duration": 0.16666649999999095,
          "durationTicks": 192,
          "midi": 29,
          "name": "F1",
          "ticks": 108669,
          "time": 94.3306348359375,
          "velocity": 0.3228346456692913
        },
        {
          "duration": 0.16666649999999095,
          "durationTicks": 192,
          "midi": 41,
          "name": "F2",
          "ticks": 108669,
          "time": 94.3306348359375,
          "velocity": 0.29133858267716534
        },
        {
          "duration": 0.04166662500000484,
          "durationTicks": 48,
          "midi": 57,
          "name": "A3",
          "ticks": 108861,
          "time": 94.4973013359375,
          "velocity": 0.2755905511811024
        },
        {
          "duration": 0.04166662500000484,
          "durationTicks": 48,
          "midi": 60,
          "name": "C4",
          "ticks": 108861,
          "time": 94.4973013359375,
          "velocity": 0.2755905511811024
        },
        {
          "duration": 0.04166662500000484,
          "durationTicks": 48,
          "midi": 53,
          "name": "F3",
          "ticks": 108861,
          "time": 94.4973013359375,
          "velocity": 0.2755905511811024
        },
        {
          "duration": 0.04166662500000484,
          "durationTicks": 48,
          "midi": 63,
          "name": "D#4",
          "ticks": 108861,
          "time": 94.4973013359375,
          "velocity": 0.2755905511811024
        },
        {
          "duration": 0.08333325000000968,
          "durationTicks": 96,
          "midi": 87,
          "name": "D#6",
          "ticks": 108861,
          "time": 94.4973013359375,
          "velocity": 0.3228346456692913
        },
        {
          "duration": 0.08333325000000968,
          "durationTicks": 96,
          "midi": 87,
          "name": "D#6",
          "ticks": 108861,
          "time": 94.4973013359375,
          "velocity": 0.1732283464566929
        },
        {
          "duration": 0.08333325000000968,
          "durationTicks": 96,
          "midi": 41,
          "name": "F2",
          "ticks": 108861,
          "time": 94.4973013359375,
          "velocity": 0.2992125984251969
        },
        {
          "duration": 0.04166662499999063,
          "durationTicks": 48,
          "midi": 29,
          "name": "F1",
          "ticks": 108957,
          "time": 94.5806345859375,
          "velocity": 0.25196850393700787
        },
        {
          "duration": 0.08333324999999547,
          "durationTicks": 96,
          "midi": 88,
          "name": "E6",
          "ticks": 109053,
          "time": 94.6639678359375,
          "velocity": 0.3228346456692913
        },
        {
          "duration": 0.08333324999999547,
          "durationTicks": 96,
          "midi": 88,
          "name": "E6",
          "ticks": 109053,
          "time": 94.6639678359375,
          "velocity": 0.1732283464566929
        },
        {
          "duration": 0.16666650000000516,
          "durationTicks": 192,
          "midi": 28,
          "name": "E1",
          "ticks": 109053,
          "time": 94.6639678359375,
          "velocity": 0.3228346456692913
        },
        {
          "duration": 0.04166662499999063,
          "durationTicks": 48,
          "midi": 64,
          "name": "E4",
          "ticks": 109245,
          "time": 94.8306343359375,
          "velocity": 0.2755905511811024
        },
        {
          "duration": 0.04166662499999063,
          "durationTicks": 48,
          "midi": 59,
          "name": "B3",
          "ticks": 109245,
          "time": 94.8306343359375,
          "velocity": 0.2755905511811024
        },
        {
          "duration": 0.04166662499999063,
          "durationTicks": 48,
          "midi": 56,
          "name": "G#3",
          "ticks": 109245,
          "time": 94.8306343359375,
          "velocity": 0.2755905511811024
        },
        {
          "duration": 0.08333324999999547,
          "durationTicks": 96,
          "midi": 88,
          "name": "E6",
          "ticks": 109245,
          "time": 94.8306343359375,
          "velocity": 0.3228346456692913
        },
        {
          "duration": 0.08333324999999547,
          "durationTicks": 96,
          "midi": 88,
          "name": "E6",
          "ticks": 109245,
          "time": 94.8306343359375,
          "velocity": 0.1732283464566929
        },
        {
          "duration": 0.08333324999999547,
          "durationTicks": 96,
          "midi": 40,
          "name": "E2",
          "ticks": 109245,
          "time": 94.8306343359375,
          "velocity": 0.2992125984251969
        },
        {
          "duration": 0.08333325000000968,
          "durationTicks": 96,
          "midi": 88,
          "name": "E6",
          "ticks": 109437,
          "time": 94.9973008359375,
          "velocity": 0.3228346456692913
        },
        {
          "duration": 0.08333325000000968,
          "durationTicks": 96,
          "midi": 76,
          "name": "E5",
          "ticks": 109437,
          "time": 94.9973008359375,
          "velocity": 0.3228346456692913
        },
        {
          "duration": 0.08333325000000968,
          "durationTicks": 96,
          "midi": 88,
          "name": "E6",
          "ticks": 109437,
          "time": 94.9973008359375,
          "velocity": 0.1732283464566929
        },
        {
          "duration": 0.08333325000000968,
          "durationTicks": 96,
          "midi": 76,
          "name": "E5",
          "ticks": 109437,
          "time": 94.9973008359375,
          "velocity": 0.1732283464566929
        },
        {
          "duration": 0.16666650000000516,
          "durationTicks": 192,
          "midi": 28,
          "name": "E1",
          "ticks": 109437,
          "time": 94.9973008359375,
          "velocity": 0.3228346456692913
        },
        {
          "duration": 0.16666650000000516,
          "durationTicks": 192,
          "midi": 40,
          "name": "E2",
          "ticks": 109437,
          "time": 94.9973008359375,
          "velocity": 0.29133858267716534
        },
        {
          "duration": 0.04166662499999063,
          "durationTicks": 48,
          "midi": 64,
          "name": "E4",
          "ticks": 109629,
          "time": 95.1639673359375,
          "velocity": 0.2755905511811024
        },
        {
          "duration": 0.04166662499999063,
          "durationTicks": 48,
          "midi": 59,
          "name": "B3",
          "ticks": 109629,
          "time": 95.1639673359375,
          "velocity": 0.2755905511811024
        },
        {
          "duration": 0.04166662499999063,
          "durationTicks": 48,
          "midi": 56,
          "name": "G#3",
          "ticks": 109629,
          "time": 95.1639673359375,
          "velocity": 0.2755905511811024
        },
        {
          "duration": 0.08333324999999547,
          "durationTicks": 96,
          "midi": 88,
          "name": "E6",
          "ticks": 109629,
          "time": 95.1639673359375,
          "velocity": 0.3228346456692913
        },
        {
          "duration": 0.08333324999999547,
          "durationTicks": 96,
          "midi": 76,
          "name": "E5",
          "ticks": 109629,
          "time": 95.1639673359375,
          "velocity": 0.3228346456692913
        },
        {
          "duration": 0.08333324999999547,
          "durationTicks": 96,
          "midi": 88,
          "name": "E6",
          "ticks": 109629,
          "time": 95.1639673359375,
          "velocity": 0.1732283464566929
        },
        {
          "duration": 0.08333324999999547,
          "durationTicks": 96,
          "midi": 76,
          "name": "E5",
          "ticks": 109629,
          "time": 95.1639673359375,
          "velocity": 0.1732283464566929
        },
        {
          "duration": 0.08333324999999547,
          "durationTicks": 96,
          "midi": 40,
          "name": "E2",
          "ticks": 109629,
          "time": 95.1639673359375,
          "velocity": 0.2992125984251969
        },
        {
          "duration": 0.04166662500000484,
          "durationTicks": 48,
          "midi": 28,
          "name": "E1",
          "ticks": 109725,
          "time": 95.2473005859375,
          "velocity": 0.25196850393700787
        },
        {
          "duration": 0.6666660000000064,
          "durationTicks": 768,
          "midi": 76,
          "name": "E5",
          "ticks": 109821,
          "time": 95.33063383593749,
          "velocity": 0.3228346456692913
        },
        {
          "duration": 0.6666660000000064,
          "durationTicks": 768,
          "midi": 88,
          "name": "E6",
          "ticks": 109821,
          "time": 95.33063383593749,
          "velocity": 0.3228346456692913
        },
        {
          "duration": 0.6666660000000064,
          "durationTicks": 768,
          "midi": 88,
          "name": "E6",
          "ticks": 109821,
          "time": 95.33063383593749,
          "velocity": 0.1732283464566929
        },
        {
          "duration": 0.6666660000000064,
          "durationTicks": 768,
          "midi": 76,
          "name": "E5",
          "ticks": 109821,
          "time": 95.33063383593749,
          "velocity": 0.1732283464566929
        },
        {
          "duration": 0.16666650000000516,
          "durationTicks": 192,
          "midi": 28,
          "name": "E1",
          "ticks": 109821,
          "time": 95.33063383593749,
          "velocity": 0.3228346456692913
        },
        {
          "duration": 0.04166662500000484,
          "durationTicks": 48,
          "midi": 56,
          "name": "G#3",
          "ticks": 110013,
          "time": 95.4973003359375,
          "velocity": 0.2755905511811024
        },
        {
          "duration": 0.04166662500000484,
          "durationTicks": 48,
          "midi": 64,
          "name": "E4",
          "ticks": 110013,
          "time": 95.4973003359375,
          "velocity": 0.2755905511811024
        },
        {
          "duration": 0.04166662500000484,
          "durationTicks": 48,
          "midi": 59,
          "name": "B3",
          "ticks": 110013,
          "time": 95.4973003359375,
          "velocity": 0.2755905511811024
        },
        {
          "duration": 0.04166662500000484,
          "durationTicks": 48,
          "midi": 52,
          "name": "E3",
          "ticks": 110013,
          "time": 95.4973003359375,
          "velocity": 0.2755905511811024
        },
        {
          "duration": 0.08333324999999547,
          "durationTicks": 96,
          "midi": 40,
          "name": "E2",
          "ticks": 110013,
          "time": 95.4973003359375,
          "velocity": 0.2992125984251969
        },
        {
          "duration": 0.04166662499999063,
          "durationTicks": 48,
          "midi": 54,
          "name": "F#3",
          "ticks": 110205,
          "time": 95.6639668359375,
          "velocity": 0.2755905511811024
        },
        {
          "duration": 0.08333324999999547,
          "durationTicks": 96,
          "midi": 42,
          "name": "F#2",
          "ticks": 110205,
          "time": 95.6639668359375,
          "velocity": 0.2992125984251969
        },
        {
          "duration": 0.16666649999999095,
          "durationTicks": 192,
          "midi": 28,
          "name": "E1",
          "ticks": 110205,
          "time": 95.6639668359375,
          "velocity": 0.3228346456692913
        },
        {
          "duration": 0.16666649999999095,
          "durationTicks": 192,
          "midi": 40,
          "name": "E2",
          "ticks": 110205,
          "time": 95.6639668359375,
          "velocity": 0.29133858267716534
        },
        {
          "duration": 0.04166662500000484,
          "durationTicks": 48,
          "midi": 56,
          "name": "G#3",
          "ticks": 110397,
          "time": 95.83063333593749,
          "velocity": 0.2755905511811024
        },
        {
          "duration": 0.04166662500000484,
          "durationTicks": 48,
          "midi": 64,
          "name": "E4",
          "ticks": 110397,
          "time": 95.83063333593749,
          "velocity": 0.2755905511811024
        },
        {
          "duration": 0.04166662500000484,
          "durationTicks": 48,
          "midi": 59,
          "name": "B3",
          "ticks": 110397,
          "time": 95.83063333593749,
          "velocity": 0.2755905511811024
        },
        {
          "duration": 0.08333325000000968,
          "durationTicks": 96,
          "midi": 44,
          "name": "G#2",
          "ticks": 110397,
          "time": 95.83063333593749,
          "velocity": 0.2992125984251969
        },
        {
          "duration": 0.04166662499999063,
          "durationTicks": 48,
          "midi": 28,
          "name": "E1",
          "ticks": 110493,
          "time": 95.9139665859375,
          "velocity": 0.25196850393700787
        },
        {
          "duration": 0.16666650000000516,
          "durationTicks": 192,
          "midi": 76,
          "name": "E5",
          "ticks": 110589,
          "time": 95.9972998359375,
          "velocity": 0.31496062992125984
        },
        {
          "duration": 0.16666650000000516,
          "durationTicks": 192,
          "midi": 76,
          "name": "E5",
          "ticks": 110589,
          "time": 95.9972998359375,
          "velocity": 0.29133858267716534
        },
        {
          "duration": 0.16666650000000516,
          "durationTicks": 192,
          "midi": 26,
          "name": "D1",
          "ticks": 110589,
          "time": 95.9972998359375,
          "velocity": 0.31496062992125984
        },
        {
          "duration": 0.16666650000000516,
          "durationTicks": 192,
          "midi": 88,
          "name": "E6",
          "ticks": 110589,
          "time": 95.9972998359375,
          "velocity": 0.29133858267716534
        },
        {
          "duration": 0.08333324999999547,
          "durationTicks": 96,
          "midi": 81,
          "name": "A5",
          "ticks": 110589,
          "time": 95.9972998359375,
          "velocity": 0.1732283464566929
        },
        {
          "duration": 0.04166662499999063,
          "durationTicks": 48,
          "midi": 50,
          "name": "D3",
          "ticks": 110781,
          "time": 96.1639663359375,
          "velocity": 0.28346456692913385
        },
        {
          "duration": 0.04166662499999063,
          "durationTicks": 48,
          "midi": 60,
          "name": "C4",
          "ticks": 110781,
          "time": 96.1639663359375,
          "velocity": 0.28346456692913385
        },
        {
          "duration": 0.04166662499999063,
          "durationTicks": 48,
          "midi": 53,
          "name": "F3",
          "ticks": 110781,
          "time": 96.1639663359375,
          "velocity": 0.28346456692913385
        },
        {
          "duration": 0.04166662499999063,
          "durationTicks": 48,
          "midi": 57,
          "name": "A3",
          "ticks": 110781,
          "time": 96.1639663359375,
          "velocity": 0.28346456692913385
        },
        {
          "duration": 0.08333324999999547,
          "durationTicks": 96,
          "midi": 75,
          "name": "D#5",
          "ticks": 110781,
          "time": 96.1639663359375,
          "velocity": 0.31496062992125984
        },
        {
          "duration": 0.08333324999999547,
          "durationTicks": 96,
          "midi": 75,
          "name": "D#5",
          "ticks": 110781,
          "time": 96.1639663359375,
          "velocity": 0.29133858267716534
        },
        {
          "duration": 0.08333324999999547,
          "durationTicks": 96,
          "midi": 38,
          "name": "D2",
          "ticks": 110781,
          "time": 96.1639663359375,
          "velocity": 0.2992125984251969
        },
        {
          "duration": 0.08333324999999547,
          "durationTicks": 96,
          "midi": 87,
          "name": "D#6",
          "ticks": 110781,
          "time": 96.1639663359375,
          "velocity": 0.29133858267716534
        },
        {
          "duration": 0.08333324999999547,
          "durationTicks": 96,
          "midi": 84,
          "name": "C6",
          "ticks": 110781,
          "time": 96.1639663359375,
          "velocity": 0.1732283464566929
        },
        {
          "duration": 0.08333325000000968,
          "durationTicks": 96,
          "midi": 76,
          "name": "E5",
          "ticks": 110973,
          "time": 96.3306328359375,
          "velocity": 0.31496062992125984
        },
        {
          "duration": 0.08333325000000968,
          "durationTicks": 96,
          "midi": 76,
          "name": "E5",
          "ticks": 110973,
          "time": 96.3306328359375,
          "velocity": 0.29133858267716534
        },
        {
          "duration": 0.16666650000000516,
          "durationTicks": 192,
          "midi": 26,
          "name": "D1",
          "ticks": 110973,
          "time": 96.3306328359375,
          "velocity": 0.31496062992125984
        },
        {
          "duration": 0.16666650000000516,
          "durationTicks": 192,
          "midi": 38,
          "name": "D2",
          "ticks": 110973,
          "time": 96.3306328359375,
          "velocity": 0.29133858267716534
        },
        {
          "duration": 0.08333325000000968,
          "durationTicks": 96,
          "midi": 88,
          "name": "E6",
          "ticks": 110973,
          "time": 96.3306328359375,
          "velocity": 0.29133858267716534
        },
        {
          "duration": 0.08333325000000968,
          "durationTicks": 96,
          "midi": 88,
          "name": "E6",
          "ticks": 110973,
          "time": 96.3306328359375,
          "velocity": 0.1732283464566929
        },
        {
          "duration": 0.04166662500000484,
          "durationTicks": 48,
          "midi": 50,
          "name": "D3",
          "ticks": 111165,
          "time": 96.4972993359375,
          "velocity": 0.28346456692913385
        },
        {
          "duration": 0.04166662500000484,
          "durationTicks": 48,
          "midi": 60,
          "name": "C4",
          "ticks": 111165,
          "time": 96.4972993359375,
          "velocity": 0.28346456692913385
        },
        {
          "duration": 0.04166662500000484,
          "durationTicks": 48,
          "midi": 57,
          "name": "A3",
          "ticks": 111165,
          "time": 96.4972993359375,
          "velocity": 0.28346456692913385
        },
        {
          "duration": 0.04166662500000484,
          "durationTicks": 48,
          "midi": 53,
          "name": "F3",
          "ticks": 111165,
          "time": 96.4972993359375,
          "velocity": 0.28346456692913385
        },
        {
          "duration": 0.08333324999999547,
          "durationTicks": 96,
          "midi": 77,
          "name": "F5",
          "ticks": 111165,
          "time": 96.4972993359375,
          "velocity": 0.31496062992125984
        },
        {
          "duration": 0.08333324999999547,
          "durationTicks": 96,
          "midi": 77,
          "name": "F5",
          "ticks": 111165,
          "time": 96.4972993359375,
          "velocity": 0.29133858267716534
        },
        {
          "duration": 0.08333324999999547,
          "durationTicks": 96,
          "midi": 38,
          "name": "D2",
          "ticks": 111165,
          "time": 96.4972993359375,
          "velocity": 0.2992125984251969
        },
        {
          "duration": 0.08333324999999547,
          "durationTicks": 96,
          "midi": 89,
          "name": "F6",
          "ticks": 111165,
          "time": 96.4972993359375,
          "velocity": 0.29133858267716534
        },
        {
          "duration": 0.08333324999999547,
          "durationTicks": 96,
          "midi": 93,
          "name": "A6",
          "ticks": 111165,
          "time": 96.4972993359375,
          "velocity": 0.1732283464566929
        },
        {
          "duration": 0.04166662500000484,
          "durationTicks": 48,
          "midi": 26,
          "name": "D1",
          "ticks": 111261,
          "time": 96.5806325859375,
          "velocity": 0.25196850393700787
        },
        {
          "duration": 0.08333324999999547,
          "durationTicks": 96,
          "midi": 76,
          "name": "E5",
          "ticks": 111357,
          "time": 96.6639658359375,
          "velocity": 0.31496062992125984
        },
        {
          "duration": 0.08333324999999547,
          "durationTicks": 96,
          "midi": 76,
          "name": "E5",
          "ticks": 111357,
          "time": 96.6639658359375,
          "velocity": 0.29133858267716534
        },
        {
          "duration": 0.16666649999999095,
          "durationTicks": 192,
          "midi": 26,
          "name": "D1",
          "ticks": 111357,
          "time": 96.6639658359375,
          "velocity": 0.31496062992125984
        },
        {
          "duration": 0.08333324999999547,
          "durationTicks": 96,
          "midi": 88,
          "name": "E6",
          "ticks": 111357,
          "time": 96.6639658359375,
          "velocity": 0.29133858267716534
        },
        {
          "duration": 0.08333324999999547,
          "durationTicks": 96,
          "midi": 92,
          "name": "G#6",
          "ticks": 111357,
          "time": 96.6639658359375,
          "velocity": 0.1732283464566929
        },
        {
          "duration": 0.04166662500000484,
          "durationTicks": 48,
          "midi": 53,
          "name": "F3",
          "ticks": 111549,
          "time": 96.8306323359375,
          "velocity": 0.28346456692913385
        },
        {
          "duration": 0.04166662500000484,
          "durationTicks": 48,
          "midi": 57,
          "name": "A3",
          "ticks": 111549,
          "time": 96.8306323359375,
          "velocity": 0.28346456692913385
        },
        {
          "duration": 0.04166662500000484,
          "durationTicks": 48,
          "midi": 60,
          "name": "C4",
          "ticks": 111549,
          "time": 96.8306323359375,
          "velocity": 0.28346456692913385
        },
        {
          "duration": 0.04166662500000484,
          "durationTicks": 48,
          "midi": 50,
          "name": "D3",
          "ticks": 111549,
          "time": 96.8306323359375,
          "velocity": 0.28346456692913385
        },
        {
          "duration": 0.08333325000000968,
          "durationTicks": 96,
          "midi": 74,
          "name": "D5",
          "ticks": 111549,
          "time": 96.8306323359375,
          "velocity": 0.31496062992125984
        },
        {
          "duration": 0.08333325000000968,
          "durationTicks": 96,
          "midi": 74,
          "name": "D5",
          "ticks": 111549,
          "time": 96.8306323359375,
          "velocity": 0.29133858267716534
        },
        {
          "duration": 0.08333325000000968,
          "durationTicks": 96,
          "midi": 38,
          "name": "D2",
          "ticks": 111549,
          "time": 96.8306323359375,
          "velocity": 0.2992125984251969
        },
        {
          "duration": 0.08333325000000968,
          "durationTicks": 96,
          "midi": 86,
          "name": "D6",
          "ticks": 111549,
          "time": 96.8306323359375,
          "velocity": 0.29133858267716534
        },
        {
          "duration": 0.08333325000000968,
          "durationTicks": 96,
          "midi": 91,
          "name": "G6",
          "ticks": 111549,
          "time": 96.8306323359375,
          "velocity": 0.1732283464566929
        },
        {
          "duration": 0.08333324999999547,
          "durationTicks": 96,
          "midi": 72,
          "name": "C5",
          "ticks": 111741,
          "time": 96.9972988359375,
          "velocity": 0.31496062992125984
        },
        {
          "duration": 0.08333324999999547,
          "durationTicks": 96,
          "midi": 72,
          "name": "C5",
          "ticks": 111741,
          "time": 96.9972988359375,
          "velocity": 0.29133858267716534
        },
        {
          "duration": 0.16666649999999095,
          "durationTicks": 192,
          "midi": 26,
          "name": "D1",
          "ticks": 111741,
          "time": 96.9972988359375,
          "velocity": 0.31496062992125984
        },
        {
          "duration": 0.16666649999999095,
          "durationTicks": 192,
          "midi": 38,
          "name": "D2",
          "ticks": 111741,
          "time": 96.9972988359375,
          "velocity": 0.29133858267716534
        },
        {
          "duration": 0.08333324999999547,
          "durationTicks": 96,
          "midi": 84,
          "name": "C6",
          "ticks": 111741,
          "time": 96.9972988359375,
          "velocity": 0.29133858267716534
        },
        {
          "duration": 0.08333324999999547,
          "durationTicks": 96,
          "midi": 90,
          "name": "F#6",
          "ticks": 111741,
          "time": 96.9972988359375,
          "velocity": 0.1732283464566929
        },
        {
          "duration": 0.04166662500000484,
          "durationTicks": 48,
          "midi": 50,
          "name": "D3",
          "ticks": 111933,
          "time": 97.16396533593749,
          "velocity": 0.28346456692913385
        },
        {
          "duration": 0.04166662500000484,
          "durationTicks": 48,
          "midi": 60,
          "name": "C4",
          "ticks": 111933,
          "time": 97.16396533593749,
          "velocity": 0.28346456692913385
        },
        {
          "duration": 0.04166662500000484,
          "durationTicks": 48,
          "midi": 57,
          "name": "A3",
          "ticks": 111933,
          "time": 97.16396533593749,
          "velocity": 0.28346456692913385
        },
        {
          "duration": 0.04166662500000484,
          "durationTicks": 48,
          "midi": 53,
          "name": "F3",
          "ticks": 111933,
          "time": 97.16396533593749,
          "velocity": 0.28346456692913385
        },
        {
          "duration": 0.08333325000000968,
          "durationTicks": 96,
          "midi": 74,
          "name": "D5",
          "ticks": 111933,
          "time": 97.16396533593749,
          "velocity": 0.31496062992125984
        },
        {
          "duration": 0.08333325000000968,
          "durationTicks": 96,
          "midi": 74,
          "name": "D5",
          "ticks": 111933,
          "time": 97.16396533593749,
          "velocity": 0.29133858267716534
        },
        {
          "duration": 0.08333325000000968,
          "durationTicks": 96,
          "midi": 38,
          "name": "D2",
          "ticks": 111933,
          "time": 97.16396533593749,
          "velocity": 0.2992125984251969
        },
        {
          "duration": 0.08333325000000968,
          "durationTicks": 96,
          "midi": 86,
          "name": "D6",
          "ticks": 111933,
          "time": 97.16396533593749,
          "velocity": 0.29133858267716534
        },
        {
          "duration": 0.08333325000000968,
          "durationTicks": 96,
          "midi": 89,
          "name": "F6",
          "ticks": 111933,
          "time": 97.16396533593749,
          "velocity": 0.1732283464566929
        },
        {
          "duration": 0.04166662499999063,
          "durationTicks": 48,
          "midi": 26,
          "name": "D1",
          "ticks": 112029,
          "time": 97.2472985859375,
          "velocity": 0.25196850393700787
        },
        {
          "duration": 0.16666650000000516,
          "durationTicks": 192,
          "midi": 76,
          "name": "E5",
          "ticks": 112125,
          "time": 97.3306318359375,
          "velocity": 0.31496062992125984
        },
        {
          "duration": 0.16666650000000516,
          "durationTicks": 192,
          "midi": 76,
          "name": "E5",
          "ticks": 112125,
          "time": 97.3306318359375,
          "velocity": 0.29133858267716534
        },
        {
          "duration": 0.16666650000000516,
          "durationTicks": 192,
          "midi": 28,
          "name": "E1",
          "ticks": 112125,
          "time": 97.3306318359375,
          "velocity": 0.31496062992125984
        },
        {
          "duration": 0.08333324999999547,
          "durationTicks": 96,
          "midi": 88,
          "name": "E6",
          "ticks": 112125,
          "time": 97.3306318359375,
          "velocity": 0.29133858267716534
        },
        {
          "duration": 0.16666650000000516,
          "durationTicks": 192,
          "midi": 88,
          "name": "E6",
          "ticks": 112125,
          "time": 97.3306318359375,
          "velocity": 0.1732283464566929
        },
        {
          "duration": 0.04166662499999063,
          "durationTicks": 48,
          "midi": 52,
          "name": "E3",
          "ticks": 112317,
          "time": 97.4972983359375,
          "velocity": 0.28346456692913385
        },
        {
          "duration": 0.04166662499999063,
          "durationTicks": 48,
          "midi": 62,
          "name": "D4",
          "ticks": 112317,
          "time": 97.4972983359375,
          "velocity": 0.28346456692913385
        },
        {
          "duration": 0.04166662499999063,
          "durationTicks": 48,
          "midi": 56,
          "name": "G#3",
          "ticks": 112317,
          "time": 97.4972983359375,
          "velocity": 0.28346456692913385
        },
        {
          "duration": 0.04166662499999063,
          "durationTicks": 48,
          "midi": 59,
          "name": "B3",
          "ticks": 112317,
          "time": 97.4972983359375,
          "velocity": 0.28346456692913385
        },
        {
          "duration": 0.08333324999999547,
          "durationTicks": 96,
          "midi": 75,
          "name": "D#5",
          "ticks": 112317,
          "time": 97.4972983359375,
          "velocity": 0.31496062992125984
        },
        {
          "duration": 0.08333324999999547,
          "durationTicks": 96,
          "midi": 75,
          "name": "D#5",
          "ticks": 112317,
          "time": 97.4972983359375,
          "velocity": 0.29133858267716534
        },
        {
          "duration": 0.08333324999999547,
          "durationTicks": 96,
          "midi": 40,
          "name": "E2",
          "ticks": 112317,
          "time": 97.4972983359375,
          "velocity": 0.2992125984251969
        },
        {
          "duration": 0.08333324999999547,
          "durationTicks": 96,
          "midi": 87,
          "name": "D#6",
          "ticks": 112317,
          "time": 97.4972983359375,
          "velocity": 0.29133858267716534
        },
        {
          "duration": 0.08333324999999547,
          "durationTicks": 96,
          "midi": 87,
          "name": "D#6",
          "ticks": 112317,
          "time": 97.4972983359375,
          "velocity": 0.1732283464566929
        },
        {
          "duration": 0.08333325000000968,
          "durationTicks": 96,
          "midi": 76,
          "name": "E5",
          "ticks": 112509,
          "time": 97.66396483593749,
          "velocity": 0.31496062992125984
        },
        {
          "duration": 0.08333325000000968,
          "durationTicks": 96,
          "midi": 76,
          "name": "E5",
          "ticks": 112509,
          "time": 97.66396483593749,
          "velocity": 0.29133858267716534
        },
        {
          "duration": 0.16666650000000516,
          "durationTicks": 192,
          "midi": 28,
          "name": "E1",
          "ticks": 112509,
          "time": 97.66396483593749,
          "velocity": 0.31496062992125984
        },
        {
          "duration": 0.16666650000000516,
          "durationTicks": 192,
          "midi": 40,
          "name": "E2",
          "ticks": 112509,
          "time": 97.66396483593749,
          "velocity": 0.29133858267716534
        },
        {
          "duration": 0.08333325000000968,
          "durationTicks": 96,
          "midi": 88,
          "name": "E6",
          "ticks": 112509,
          "time": 97.66396483593749,
          "velocity": 0.29133858267716534
        },
        {
          "duration": 0.08333325000000968,
          "durationTicks": 96,
          "midi": 86,
          "name": "D6",
          "ticks": 112509,
          "time": 97.66396483593749,
          "velocity": 0.1732283464566929
        },
        {
          "duration": 0.04166662500000484,
          "durationTicks": 48,
          "midi": 52,
          "name": "E3",
          "ticks": 112701,
          "time": 97.8306313359375,
          "velocity": 0.28346456692913385
        },
        {
          "duration": 0.04166662500000484,
          "durationTicks": 48,
          "midi": 62,
          "name": "D4",
          "ticks": 112701,
          "time": 97.8306313359375,
          "velocity": 0.28346456692913385
        },
        {
          "duration": 0.04166662500000484,
          "durationTicks": 48,
          "midi": 59,
          "name": "B3",
          "ticks": 112701,
          "time": 97.8306313359375,
          "velocity": 0.28346456692913385
        },
        {
          "duration": 0.04166662500000484,
          "durationTicks": 48,
          "midi": 56,
          "name": "G#3",
          "ticks": 112701,
          "time": 97.8306313359375,
          "velocity": 0.28346456692913385
        },
        {
          "duration": 0.08333324999999547,
          "durationTicks": 96,
          "midi": 77,
          "name": "F5",
          "ticks": 112701,
          "time": 97.8306313359375,
          "velocity": 0.31496062992125984
        },
        {
          "duration": 0.08333324999999547,
          "durationTicks": 96,
          "midi": 77,
          "name": "F5",
          "ticks": 112701,
          "time": 97.8306313359375,
          "velocity": 0.29133858267716534
        },
        {
          "duration": 0.08333324999999547,
          "durationTicks": 96,
          "midi": 40,
          "name": "E2",
          "ticks": 112701,
          "time": 97.8306313359375,
          "velocity": 0.2992125984251969
        },
        {
          "duration": 0.08333324999999547,
          "durationTicks": 96,
          "midi": 89,
          "name": "F6",
          "ticks": 112701,
          "time": 97.8306313359375,
          "velocity": 0.29133858267716534
        },
        {
          "duration": 0.08333324999999547,
          "durationTicks": 96,
          "midi": 85,
          "name": "C#6",
          "ticks": 112701,
          "time": 97.8306313359375,
          "velocity": 0.1732283464566929
        },
        {
          "duration": 0.04166662500000484,
          "durationTicks": 48,
          "midi": 28,
          "name": "E1",
          "ticks": 112797,
          "time": 97.91396458593749,
          "velocity": 0.25196850393700787
        },
        {
          "duration": 0.08333324999999547,
          "durationTicks": 96,
          "midi": 76,
          "name": "E5",
          "ticks": 112893,
          "time": 97.9972978359375,
          "velocity": 0.31496062992125984
        },
        {
          "duration": 0.08333324999999547,
          "durationTicks": 96,
          "midi": 76,
          "name": "E5",
          "ticks": 112893,
          "time": 97.9972978359375,
          "velocity": 0.29133858267716534
        },
        {
          "duration": 0.16666649999999095,
          "durationTicks": 192,
          "midi": 28,
          "name": "E1",
          "ticks": 112893,
          "time": 97.9972978359375,
          "velocity": 0.31496062992125984
        },
        {
          "duration": 0.08333324999999547,
          "durationTicks": 96,
          "midi": 88,
          "name": "E6",
          "ticks": 112893,
          "time": 97.9972978359375,
          "velocity": 0.29133858267716534
        },
        {
          "duration": 0.08333324999999547,
          "durationTicks": 96,
          "midi": 84,
          "name": "C6",
          "ticks": 112893,
          "time": 97.9972978359375,
          "velocity": 0.1732283464566929
        },
        {
          "duration": 0.04166662500000484,
          "durationTicks": 48,
          "midi": 52,
          "name": "E3",
          "ticks": 113085,
          "time": 98.1639643359375,
          "velocity": 0.28346456692913385
        },
        {
          "duration": 0.04166662500000484,
          "durationTicks": 48,
          "midi": 62,
          "name": "D4",
          "ticks": 113085,
          "time": 98.1639643359375,
          "velocity": 0.28346456692913385
        },
        {
          "duration": 0.04166662500000484,
          "durationTicks": 48,
          "midi": 59,
          "name": "B3",
          "ticks": 113085,
          "time": 98.1639643359375,
          "velocity": 0.28346456692913385
        },
        {
          "duration": 0.04166662500000484,
          "durationTicks": 48,
          "midi": 56,
          "name": "G#3",
          "ticks": 113085,
          "time": 98.1639643359375,
          "velocity": 0.28346456692913385
        },
        {
          "duration": 0.08333325000000968,
          "durationTicks": 96,
          "midi": 74,
          "name": "D5",
          "ticks": 113085,
          "time": 98.1639643359375,
          "velocity": 0.31496062992125984
        },
        {
          "duration": 0.08333325000000968,
          "durationTicks": 96,
          "midi": 74,
          "name": "D5",
          "ticks": 113085,
          "time": 98.1639643359375,
          "velocity": 0.29133858267716534
        },
        {
          "duration": 0.08333325000000968,
          "durationTicks": 96,
          "midi": 40,
          "name": "E2",
          "ticks": 113085,
          "time": 98.1639643359375,
          "velocity": 0.2992125984251969
        },
        {
          "duration": 0.08333325000000968,
          "durationTicks": 96,
          "midi": 86,
          "name": "D6",
          "ticks": 113085,
          "time": 98.1639643359375,
          "velocity": 0.29133858267716534
        },
        {
          "duration": 0.08333325000000968,
          "durationTicks": 96,
          "midi": 83,
          "name": "B5",
          "ticks": 113085,
          "time": 98.1639643359375,
          "velocity": 0.1732283464566929
        },
        {
          "duration": 0.08333324999999547,
          "durationTicks": 96,
          "midi": 72,
          "name": "C5",
          "ticks": 113277,
          "time": 98.3306308359375,
          "velocity": 0.31496062992125984
        },
        {
          "duration": 0.08333324999999547,
          "durationTicks": 96,
          "midi": 72,
          "name": "C5",
          "ticks": 113277,
          "time": 98.3306308359375,
          "velocity": 0.29133858267716534
        },
        {
          "duration": 0.16666650000000516,
          "durationTicks": 192,
          "midi": 28,
          "name": "E1",
          "ticks": 113277,
          "time": 98.3306308359375,
          "velocity": 0.31496062992125984
        },
        {
          "duration": 0.16666650000000516,
          "durationTicks": 192,
          "midi": 40,
          "name": "E2",
          "ticks": 113277,
          "time": 98.3306308359375,
          "velocity": 0.29133858267716534
        },
        {
          "duration": 0.08333324999999547,
          "durationTicks": 96,
          "midi": 84,
          "name": "C6",
          "ticks": 113277,
          "time": 98.3306308359375,
          "velocity": 0.29133858267716534
        },
        {
          "duration": 0.08333324999999547,
          "durationTicks": 96,
          "midi": 82,
          "name": "A#5",
          "ticks": 113277,
          "time": 98.3306308359375,
          "velocity": 0.1732283464566929
        },
        {
          "duration": 0.04166662499999063,
          "durationTicks": 48,
          "midi": 56,
          "name": "G#3",
          "ticks": 113469,
          "time": 98.4972973359375,
          "velocity": 0.28346456692913385
        },
        {
          "duration": 0.04166662499999063,
          "durationTicks": 48,
          "midi": 59,
          "name": "B3",
          "ticks": 113469,
          "time": 98.4972973359375,
          "velocity": 0.28346456692913385
        },
        {
          "duration": 0.04166662499999063,
          "durationTicks": 48,
          "midi": 62,
          "name": "D4",
          "ticks": 113469,
          "time": 98.4972973359375,
          "velocity": 0.28346456692913385
        },
        {
          "duration": 0.04166662499999063,
          "durationTicks": 48,
          "midi": 52,
          "name": "E3",
          "ticks": 113469,
          "time": 98.4972973359375,
          "velocity": 0.28346456692913385
        },
        {
          "duration": 0.08333324999999547,
          "durationTicks": 96,
          "midi": 71,
          "name": "B4",
          "ticks": 113469,
          "time": 98.4972973359375,
          "velocity": 0.31496062992125984
        },
        {
          "duration": 0.08333324999999547,
          "durationTicks": 96,
          "midi": 71,
          "name": "B4",
          "ticks": 113469,
          "time": 98.4972973359375,
          "velocity": 0.29133858267716534
        },
        {
          "duration": 0.08333324999999547,
          "durationTicks": 96,
          "midi": 40,
          "name": "E2",
          "ticks": 113469,
          "time": 98.4972973359375,
          "velocity": 0.2992125984251969
        },
        {
          "duration": 0.08333324999999547,
          "durationTicks": 96,
          "midi": 83,
          "name": "B5",
          "ticks": 113469,
          "time": 98.4972973359375,
          "velocity": 0.29133858267716534
        },
        {
          "duration": 0.08333324999999547,
          "durationTicks": 96,
          "midi": 83,
          "name": "B5",
          "ticks": 113469,
          "time": 98.4972973359375,
          "velocity": 0.1732283464566929
        },
        {
          "duration": 0.04166662500000484,
          "durationTicks": 48,
          "midi": 28,
          "name": "E1",
          "ticks": 113565,
          "time": 98.5806305859375,
          "velocity": 0.25196850393700787
        },
        {
          "duration": 0.3333329999999961,
          "durationTicks": 384,
          "midi": 69,
          "name": "A4",
          "ticks": 113661,
          "time": 98.6639638359375,
          "velocity": 0.31496062992125984
        },
        {
          "duration": 0.3333329999999961,
          "durationTicks": 384,
          "midi": 69,
          "name": "A4",
          "ticks": 113661,
          "time": 98.6639638359375,
          "velocity": 0.29133858267716534
        },
        {
          "duration": 0.16666650000000516,
          "durationTicks": 192,
          "midi": 33,
          "name": "A1",
          "ticks": 113661,
          "time": 98.6639638359375,
          "velocity": 0.31496062992125984
        },
        {
          "duration": 0.08333325000000968,
          "durationTicks": 96,
          "midi": 81,
          "name": "A5",
          "ticks": 113661,
          "time": 98.6639638359375,
          "velocity": 0.29133858267716534
        },
        {
          "duration": 0.3333329999999961,
          "durationTicks": 384,
          "midi": 81,
          "name": "A5",
          "ticks": 113661,
          "time": 98.6639638359375,
          "velocity": 0.1732283464566929
        },
        {
          "duration": 0.04166662500000484,
          "durationTicks": 48,
          "midi": 52,
          "name": "E3",
          "ticks": 113853,
          "time": 98.8306303359375,
          "velocity": 0.28346456692913385
        },
        {
          "duration": 0.04166662500000484,
          "durationTicks": 48,
          "midi": 60,
          "name": "C4",
          "ticks": 113853,
          "time": 98.8306303359375,
          "velocity": 0.28346456692913385
        },
        {
          "duration": 0.04166662500000484,
          "durationTicks": 48,
          "midi": 57,
          "name": "A3",
          "ticks": 113853,
          "time": 98.8306303359375,
          "velocity": 0.28346456692913385
        },
        {
          "duration": 0.08333324999999547,
          "durationTicks": 96,
          "midi": 45,
          "name": "A2",
          "ticks": 113853,
          "time": 98.8306303359375,
          "velocity": 0.2992125984251969
        },
        {
          "duration": 0.08333324999999547,
          "durationTicks": 96,
          "midi": 84,
          "name": "C6",
          "ticks": 113853,
          "time": 98.8306303359375,
          "velocity": 0.1732283464566929
        },
        {
          "duration": 0.16666650000000516,
          "durationTicks": 192,
          "midi": 81,
          "name": "A5",
          "ticks": 114045,
          "time": 98.99729683593749,
          "velocity": 0.31496062992125984
        },
        {
          "duration": 0.16666650000000516,
          "durationTicks": 192,
          "midi": 33,
          "name": "A1",
          "ticks": 114045,
          "time": 98.99729683593749,
          "velocity": 0.31496062992125984
        },
        {
          "duration": 0.16666650000000516,
          "durationTicks": 192,
          "midi": 45,
          "name": "A2",
          "ticks": 114045,
          "time": 98.99729683593749,
          "velocity": 0.29133858267716534
        },
        {
          "duration": 0.16666650000000516,
          "durationTicks": 192,
          "midi": 93,
          "name": "A6",
          "ticks": 114045,
          "time": 98.99729683593749,
          "velocity": 0.29133858267716534
        },
        {
          "duration": 0.08333325000000968,
          "durationTicks": 96,
          "midi": 88,
          "name": "E6",
          "ticks": 114045,
          "time": 98.99729683593749,
          "velocity": 0.1732283464566929
        },
        {
          "duration": 0.04166662500000484,
          "durationTicks": 48,
          "midi": 57,
          "name": "A3",
          "ticks": 114237,
          "time": 99.1639633359375,
          "velocity": 0.28346456692913385
        },
        {
          "duration": 0.04166662500000484,
          "durationTicks": 48,
          "midi": 60,
          "name": "C4",
          "ticks": 114237,
          "time": 99.1639633359375,
          "velocity": 0.28346456692913385
        },
        {
          "duration": 0.04166662500000484,
          "durationTicks": 48,
          "midi": 52,
          "name": "E3",
          "ticks": 114237,
          "time": 99.1639633359375,
          "velocity": 0.28346456692913385
        },
        {
          "duration": 0.16666650000000516,
          "durationTicks": 192,
          "midi": 81,
          "name": "A5",
          "ticks": 114237,
          "time": 99.1639633359375,
          "velocity": 0.25196850393700787
        },
        {
          "duration": 0.08333324999999547,
          "durationTicks": 96,
          "midi": 45,
          "name": "A2",
          "ticks": 114237,
          "time": 99.1639633359375,
          "velocity": 0.2992125984251969
        },
        {
          "duration": 0.08333324999999547,
          "durationTicks": 96,
          "midi": 93,
          "name": "A6",
          "ticks": 114237,
          "time": 99.1639633359375,
          "velocity": 0.1732283464566929
        },
        {
          "duration": 0.04166662500000484,
          "durationTicks": 48,
          "midi": 33,
          "name": "A1",
          "ticks": 114333,
          "time": 99.24729658593749,
          "velocity": 0.25196850393700787
        },
        {
          "duration": 0.16666649999999095,
          "durationTicks": 192,
          "midi": 80,
          "name": "G#5",
          "ticks": 114429,
          "time": 99.3306298359375,
          "velocity": 0.31496062992125984
        },
        {
          "duration": 0.16666649999999095,
          "durationTicks": 192,
          "midi": 33,
          "name": "A1",
          "ticks": 114429,
          "time": 99.3306298359375,
          "velocity": 0.31496062992125984
        },
        {
          "duration": 0.08333324999999547,
          "durationTicks": 96,
          "midi": 92,
          "name": "G#6",
          "ticks": 114429,
          "time": 99.3306298359375,
          "velocity": 0.29133858267716534
        },
        {
          "duration": 0.16666649999999095,
          "durationTicks": 192,
          "midi": 92,
          "name": "G#6",
          "ticks": 114429,
          "time": 99.3306298359375,
          "velocity": 0.1732283464566929
        },
        {
          "duration": 0.04166662500000484,
          "durationTicks": 48,
          "midi": 57,
          "name": "A3",
          "ticks": 114621,
          "time": 99.49729633593749,
          "velocity": 0.28346456692913385
        },
        {
          "duration": 0.04166662500000484,
          "durationTicks": 48,
          "midi": 60,
          "name": "C4",
          "ticks": 114621,
          "time": 99.49729633593749,
          "velocity": 0.28346456692913385
        },
        {
          "duration": 0.04166662500000484,
          "durationTicks": 48,
          "midi": 52,
          "name": "E3",
          "ticks": 114621,
          "time": 99.49729633593749,
          "velocity": 0.28346456692913385
        },
        {
          "duration": 0.16666650000000516,
          "durationTicks": 192,
          "midi": 80,
          "name": "G#5",
          "ticks": 114621,
          "time": 99.49729633593749,
          "velocity": 0.25196850393700787
        },
        {
          "duration": 0.08333325000000968,
          "durationTicks": 96,
          "midi": 45,
          "name": "A2",
          "ticks": 114621,
          "time": 99.49729633593749,
          "velocity": 0.2992125984251969
        },
        {
          "duration": 0.08333325000000968,
          "durationTicks": 96,
          "midi": 91,
          "name": "G6",
          "ticks": 114621,
          "time": 99.49729633593749,
          "velocity": 0.1732283464566929
        },
        {
          "duration": 0.16666650000000516,
          "durationTicks": 192,
          "midi": 79,
          "name": "G5",
          "ticks": 114813,
          "time": 99.6639628359375,
          "velocity": 0.31496062992125984
        },
        {
          "duration": 0.16666650000000516,
          "durationTicks": 192,
          "midi": 33,
          "name": "A1",
          "ticks": 114813,
          "time": 99.6639628359375,
          "velocity": 0.31496062992125984
        },
        {
          "duration": 0.16666650000000516,
          "durationTicks": 192,
          "midi": 45,
          "name": "A2",
          "ticks": 114813,
          "time": 99.6639628359375,
          "velocity": 0.29133858267716534
        },
        {
          "duration": 0.16666650000000516,
          "durationTicks": 192,
          "midi": 91,
          "name": "G6",
          "ticks": 114813,
          "time": 99.6639628359375,
          "velocity": 0.29133858267716534
        },
        {
          "duration": 0.08333324999999547,
          "durationTicks": 96,
          "midi": 90,
          "name": "F#6",
          "ticks": 114813,
          "time": 99.6639628359375,
          "velocity": 0.1732283464566929
        },
        {
          "duration": 0.04166662499999063,
          "durationTicks": 48,
          "midi": 52,
          "name": "E3",
          "ticks": 115005,
          "time": 99.8306293359375,
          "velocity": 0.28346456692913385
        },
        {
          "duration": 0.04166662499999063,
          "durationTicks": 48,
          "midi": 60,
          "name": "C4",
          "ticks": 115005,
          "time": 99.8306293359375,
          "velocity": 0.28346456692913385
        },
        {
          "duration": 0.04166662499999063,
          "durationTicks": 48,
          "midi": 57,
          "name": "A3",
          "ticks": 115005,
          "time": 99.8306293359375,
          "velocity": 0.28346456692913385
        },
        {
          "duration": 0.16666649999999095,
          "durationTicks": 192,
          "midi": 79,
          "name": "G5",
          "ticks": 115005,
          "time": 99.8306293359375,
          "velocity": 0.25196850393700787
        },
        {
          "duration": 0.08333324999999547,
          "durationTicks": 96,
          "midi": 45,
          "name": "A2",
          "ticks": 115005,
          "time": 99.8306293359375,
          "velocity": 0.2992125984251969
        },
        {
          "duration": 0.08333324999999547,
          "durationTicks": 96,
          "midi": 89,
          "name": "F6",
          "ticks": 115005,
          "time": 99.8306293359375,
          "velocity": 0.1732283464566929
        },
        {
          "duration": 0.04166662500000484,
          "durationTicks": 48,
          "midi": 33,
          "name": "A1",
          "ticks": 115101,
          "time": 99.9139625859375,
          "velocity": 0.25196850393700787
        },
        {
          "duration": 0.16666650000000516,
          "durationTicks": 192,
          "midi": 78,
          "name": "F#5",
          "ticks": 115197,
          "time": 99.99729583593749,
          "velocity": 0.31496062992125984
        },
        {
          "duration": 0.16666650000000516,
          "durationTicks": 192,
          "midi": 36,
          "name": "C2",
          "ticks": 115197,
          "time": 99.99729583593749,
          "velocity": 0.31496062992125984
        },
        {
          "duration": 0.16666650000000516,
          "durationTicks": 192,
          "midi": 90,
          "name": "F#6",
          "ticks": 115197,
          "time": 99.99729583593749,
          "velocity": 0.29133858267716534
        },
        {
          "duration": 0.08333325000000968,
          "durationTicks": 96,
          "midi": 88,
          "name": "E6",
          "ticks": 115197,
          "time": 99.99729583593749,
          "velocity": 0.1732283464566929
        },
        {
          "duration": 0.04166662500000484,
          "durationTicks": 48,
          "midi": 62,
          "name": "D4",
          "ticks": 115389,
          "time": 100.1639623359375,
          "velocity": 0.28346456692913385
        },
        {
          "duration": 0.04166662500000484,
          "durationTicks": 48,
          "midi": 54,
          "name": "F#3",
          "ticks": 115389,
          "time": 100.1639623359375,
          "velocity": 0.28346456692913385
        },
        {
          "duration": 0.04166662500000484,
          "durationTicks": 48,
          "midi": 60,
          "name": "C4",
          "ticks": 115389,
          "time": 100.1639623359375,
          "velocity": 0.28346456692913385
        },
        {
          "duration": 0.04166662500000484,
          "durationTicks": 48,
          "midi": 58,
          "name": "A#3",
          "ticks": 115389,
          "time": 100.1639623359375,
          "velocity": 0.28346456692913385
        },
        {
          "duration": 0.16666650000000516,
          "durationTicks": 192,
          "midi": 78,
          "name": "F#5",
          "ticks": 115389,
          "time": 100.1639623359375,
          "velocity": 0.25196850393700787
        },
        {
          "duration": 0.08333324999999547,
          "durationTicks": 96,
          "midi": 48,
          "name": "C3",
          "ticks": 115389,
          "time": 100.1639623359375,
          "velocity": 0.2992125984251969
        },
        {
          "duration": 0.08333324999999547,
          "durationTicks": 96,
          "midi": 87,
          "name": "D#6",
          "ticks": 115389,
          "time": 100.1639623359375,
          "velocity": 0.1732283464566929
        },
        {
          "duration": 0.16666649999999095,
          "durationTicks": 192,
          "midi": 77,
          "name": "F5",
          "ticks": 115581,
          "time": 100.3306288359375,
          "velocity": 0.31496062992125984
        },
        {
          "duration": 0.16666649999999095,
          "durationTicks": 192,
          "midi": 36,
          "name": "C2",
          "ticks": 115581,
          "time": 100.3306288359375,
          "velocity": 0.31496062992125984
        },
        {
          "duration": 0.16666649999999095,
          "durationTicks": 192,
          "midi": 48,
          "name": "C3",
          "ticks": 115581,
          "time": 100.3306288359375,
          "velocity": 0.29133858267716534
        },
        {
          "duration": 0.16666649999999095,
          "durationTicks": 192,
          "midi": 89,
          "name": "F6",
          "ticks": 115581,
          "time": 100.3306288359375,
          "velocity": 0.29133858267716534
        },
        {
          "duration": 0.08333324999999547,
          "durationTicks": 96,
          "midi": 86,
          "name": "D6",
          "ticks": 115581,
          "time": 100.3306288359375,
          "velocity": 0.1732283464566929
        },
        {
          "duration": 0.04166662500000484,
          "durationTicks": 48,
          "midi": 62,
          "name": "D4",
          "ticks": 115773,
          "time": 100.4972953359375,
          "velocity": 0.28346456692913385
        },
        {
          "duration": 0.04166662500000484,
          "durationTicks": 48,
          "midi": 54,
          "name": "F#3",
          "ticks": 115773,
          "time": 100.4972953359375,
          "velocity": 0.28346456692913385
        },
        {
          "duration": 0.04166662500000484,
          "durationTicks": 48,
          "midi": 58,
          "name": "A#3",
          "ticks": 115773,
          "time": 100.4972953359375,
          "velocity": 0.28346456692913385
        },
        {
          "duration": 0.04166662500000484,
          "durationTicks": 48,
          "midi": 60,
          "name": "C4",
          "ticks": 115773,
          "time": 100.4972953359375,
          "velocity": 0.28346456692913385
        },
        {
          "duration": 0.16666650000000516,
          "durationTicks": 192,
          "midi": 77,
          "name": "F5",
          "ticks": 115773,
          "time": 100.4972953359375,
          "velocity": 0.25196850393700787
        },
        {
          "duration": 0.08333325000000968,
          "durationTicks": 96,
          "midi": 48,
          "name": "C3",
          "ticks": 115773,
          "time": 100.4972953359375,
          "velocity": 0.2992125984251969
        },
        {
          "duration": 0.08333325000000968,
          "durationTicks": 96,
          "midi": 85,
          "name": "C#6",
          "ticks": 115773,
          "time": 100.4972953359375,
          "velocity": 0.1732283464566929
        },
        {
          "duration": 0.04166662499999063,
          "durationTicks": 48,
          "midi": 36,
          "name": "C2",
          "ticks": 115869,
          "time": 100.5806285859375,
          "velocity": 0.25196850393700787
        },
        {
          "duration": 0.16666649999999095,
          "durationTicks": 192,
          "midi": 75,
          "name": "D#5",
          "ticks": 115965,
          "time": 100.6639618359375,
          "velocity": 0.31496062992125984
        },
        {
          "duration": 0.16666649999999095,
          "durationTicks": 192,
          "midi": 36,
          "name": "C2",
          "ticks": 115965,
          "time": 100.6639618359375,
          "velocity": 0.31496062992125984
        },
        {
          "duration": 0.16666649999999095,
          "durationTicks": 192,
          "midi": 87,
          "name": "D#6",
          "ticks": 115965,
          "time": 100.6639618359375,
          "velocity": 0.29133858267716534
        },
        {
          "duration": 0.08333324999999547,
          "durationTicks": 96,
          "midi": 84,
          "name": "C6",
          "ticks": 115965,
          "time": 100.6639618359375,
          "velocity": 0.1732283464566929
        },
        {
          "duration": 0.04166662500000484,
          "durationTicks": 48,
          "midi": 58,
          "name": "A#3",
          "ticks": 116157,
          "time": 100.83062833593749,
          "velocity": 0.28346456692913385
        },
        {
          "duration": 0.04166662500000484,
          "durationTicks": 48,
          "midi": 54,
          "name": "F#3",
          "ticks": 116157,
          "time": 100.83062833593749,
          "velocity": 0.28346456692913385
        },
        {
          "duration": 0.04166662500000484,
          "durationTicks": 48,
          "midi": 48,
          "name": "C3",
          "ticks": 116157,
          "time": 100.83062833593749,
          "velocity": 0.2440944881889764
        },
        {
          "duration": 0.04166662500000484,
          "durationTicks": 48,
          "midi": 62,
          "name": "D4",
          "ticks": 116157,
          "time": 100.83062833593749,
          "velocity": 0.28346456692913385
        },
        {
          "duration": 0.04166662500000484,
          "durationTicks": 48,
          "midi": 60,
          "name": "C4",
          "ticks": 116157,
          "time": 100.83062833593749,
          "velocity": 0.28346456692913385
        },
        {
          "duration": 0.16666650000000516,
          "durationTicks": 192,
          "midi": 75,
          "name": "D#5",
          "ticks": 116157,
          "time": 100.83062833593749,
          "velocity": 0.25196850393700787
        },
        {
          "duration": 0.08333325000000968,
          "durationTicks": 96,
          "midi": 48,
          "name": "C3",
          "ticks": 116157,
          "time": 100.83062833593749,
          "velocity": 0.2992125984251969
        },
        {
          "duration": 0.08333325000000968,
          "durationTicks": 96,
          "midi": 83,
          "name": "B5",
          "ticks": 116157,
          "time": 100.83062833593749,
          "velocity": 0.1732283464566929
        },
        {
          "duration": 0.04166662500000484,
          "durationTicks": 48,
          "midi": 50,
          "name": "D3",
          "ticks": 116349,
          "time": 100.9972948359375,
          "velocity": 0.2440944881889764
        },
        {
          "duration": 0.16666650000000516,
          "durationTicks": 192,
          "midi": 76,
          "name": "E5",
          "ticks": 116349,
          "time": 100.9972948359375,
          "velocity": 0.31496062992125984
        },
        {
          "duration": 0.16666650000000516,
          "durationTicks": 192,
          "midi": 36,
          "name": "C2",
          "ticks": 116349,
          "time": 100.9972948359375,
          "velocity": 0.31496062992125984
        },
        {
          "duration": 0.16666650000000516,
          "durationTicks": 192,
          "midi": 48,
          "name": "C3",
          "ticks": 116349,
          "time": 100.9972948359375,
          "velocity": 0.29133858267716534
        },
        {
          "duration": 0.16666650000000516,
          "durationTicks": 192,
          "midi": 88,
          "name": "E6",
          "ticks": 116349,
          "time": 100.9972948359375,
          "velocity": 0.29133858267716534
        },
        {
          "duration": 0.08333324999999547,
          "durationTicks": 96,
          "midi": 82,
          "name": "A#5",
          "ticks": 116349,
          "time": 100.9972948359375,
          "velocity": 0.1732283464566929
        },
        {
          "duration": 0.04166662499999063,
          "durationTicks": 48,
          "midi": 58,
          "name": "A#3",
          "ticks": 116541,
          "time": 101.1639613359375,
          "velocity": 0.28346456692913385
        },
        {
          "duration": 0.04166662499999063,
          "durationTicks": 48,
          "midi": 54,
          "name": "F#3",
          "ticks": 116541,
          "time": 101.1639613359375,
          "velocity": 0.28346456692913385
        },
        {
          "duration": 0.04166662499999063,
          "durationTicks": 48,
          "midi": 60,
          "name": "C4",
          "ticks": 116541,
          "time": 101.1639613359375,
          "velocity": 0.28346456692913385
        },
        {
          "duration": 0.04166662499999063,
          "durationTicks": 48,
          "midi": 52,
          "name": "E3",
          "ticks": 116541,
          "time": 101.1639613359375,
          "velocity": 0.2440944881889764
        },
        {
          "duration": 0.04166662499999063,
          "durationTicks": 48,
          "midi": 62,
          "name": "D4",
          "ticks": 116541,
          "time": 101.1639613359375,
          "velocity": 0.28346456692913385
        },
        {
          "duration": 0.16666649999999095,
          "durationTicks": 192,
          "midi": 76,
          "name": "E5",
          "ticks": 116541,
          "time": 101.1639613359375,
          "velocity": 0.25196850393700787
        },
        {
          "duration": 0.08333324999999547,
          "durationTicks": 96,
          "midi": 48,
          "name": "C3",
          "ticks": 116541,
          "time": 101.1639613359375,
          "velocity": 0.2992125984251969
        },
        {
          "duration": 0.08333324999999547,
          "durationTicks": 96,
          "midi": 83,
          "name": "B5",
          "ticks": 116541,
          "time": 101.1639613359375,
          "velocity": 0.1732283464566929
        },
        {
          "duration": 0.04166662500000484,
          "durationTicks": 48,
          "midi": 36,
          "name": "C2",
          "ticks": 116637,
          "time": 101.2472945859375,
          "velocity": 0.25196850393700787
        },
        {
          "duration": 0.16666650000000516,
          "durationTicks": 192,
          "midi": 76,
          "name": "E5",
          "ticks": 116733,
          "time": 101.33062783593749,
          "velocity": 0.31496062992125984
        },
        {
          "duration": 0.16666650000000516,
          "durationTicks": 192,
          "midi": 76,
          "name": "E5",
          "ticks": 116733,
          "time": 101.33062783593749,
          "velocity": 0.29133858267716534
        },
        {
          "duration": 0.16666650000000516,
          "durationTicks": 192,
          "midi": 26,
          "name": "D1",
          "ticks": 116733,
          "time": 101.33062783593749,
          "velocity": 0.31496062992125984
        },
        {
          "duration": 0.16666650000000516,
          "durationTicks": 192,
          "midi": 88,
          "name": "E6",
          "ticks": 116733,
          "time": 101.33062783593749,
          "velocity": 0.29133858267716534
        },
        {
          "duration": 0.08333325000000968,
          "durationTicks": 96,
          "midi": 81,
          "name": "A5",
          "ticks": 116733,
          "time": 101.33062783593749,
          "velocity": 0.1732283464566929
        },
        {
          "duration": 0.04166662500000484,
          "durationTicks": 48,
          "midi": 50,
          "name": "D3",
          "ticks": 116925,
          "time": 101.4972943359375,
          "velocity": 0.28346456692913385
        },
        {
          "duration": 0.04166662500000484,
          "durationTicks": 48,
          "midi": 60,
          "name": "C4",
          "ticks": 116925,
          "time": 101.4972943359375,
          "velocity": 0.28346456692913385
        },
        {
          "duration": 0.04166662500000484,
          "durationTicks": 48,
          "midi": 53,
          "name": "F3",
          "ticks": 116925,
          "time": 101.4972943359375,
          "velocity": 0.28346456692913385
        },
        {
          "duration": 0.04166662500000484,
          "durationTicks": 48,
          "midi": 57,
          "name": "A3",
          "ticks": 116925,
          "time": 101.4972943359375,
          "velocity": 0.28346456692913385
        },
        {
          "duration": 0.08333324999999547,
          "durationTicks": 96,
          "midi": 75,
          "name": "D#5",
          "ticks": 116925,
          "time": 101.4972943359375,
          "velocity": 0.31496062992125984
        },
        {
          "duration": 0.08333324999999547,
          "durationTicks": 96,
          "midi": 75,
          "name": "D#5",
          "ticks": 116925,
          "time": 101.4972943359375,
          "velocity": 0.29133858267716534
        },
        {
          "duration": 0.08333324999999547,
          "durationTicks": 96,
          "midi": 38,
          "name": "D2",
          "ticks": 116925,
          "time": 101.4972943359375,
          "velocity": 0.2992125984251969
        },
        {
          "duration": 0.08333324999999547,
          "durationTicks": 96,
          "midi": 87,
          "name": "D#6",
          "ticks": 116925,
          "time": 101.4972943359375,
          "velocity": 0.29133858267716534
        },
        {
          "duration": 0.08333324999999547,
          "durationTicks": 96,
          "midi": 84,
          "name": "C6",
          "ticks": 116925,
          "time": 101.4972943359375,
          "velocity": 0.1732283464566929
        },
        {
          "duration": 0.08333324999999547,
          "durationTicks": 96,
          "midi": 76,
          "name": "E5",
          "ticks": 117117,
          "time": 101.6639608359375,
          "velocity": 0.31496062992125984
        },
        {
          "duration": 0.08333324999999547,
          "durationTicks": 96,
          "midi": 76,
          "name": "E5",
          "ticks": 117117,
          "time": 101.6639608359375,
          "velocity": 0.29133858267716534
        },
        {
          "duration": 0.16666649999999095,
          "durationTicks": 192,
          "midi": 26,
          "name": "D1",
          "ticks": 117117,
          "time": 101.6639608359375,
          "velocity": 0.31496062992125984
        },
        {
          "duration": 0.16666649999999095,
          "durationTicks": 192,
          "midi": 38,
          "name": "D2",
          "ticks": 117117,
          "time": 101.6639608359375,
          "velocity": 0.29133858267716534
        },
        {
          "duration": 0.08333324999999547,
          "durationTicks": 96,
          "midi": 88,
          "name": "E6",
          "ticks": 117117,
          "time": 101.6639608359375,
          "velocity": 0.29133858267716534
        },
        {
          "duration": 0.08333324999999547,
          "durationTicks": 96,
          "midi": 88,
          "name": "E6",
          "ticks": 117117,
          "time": 101.6639608359375,
          "velocity": 0.1732283464566929
        },
        {
          "duration": 0.04166662500000484,
          "durationTicks": 48,
          "midi": 50,
          "name": "D3",
          "ticks": 117309,
          "time": 101.83062733593749,
          "velocity": 0.28346456692913385
        },
        {
          "duration": 0.04166662500000484,
          "durationTicks": 48,
          "midi": 60,
          "name": "C4",
          "ticks": 117309,
          "time": 101.83062733593749,
          "velocity": 0.28346456692913385
        },
        {
          "duration": 0.04166662500000484,
          "durationTicks": 48,
          "midi": 57,
          "name": "A3",
          "ticks": 117309,
          "time": 101.83062733593749,
          "velocity": 0.28346456692913385
        },
        {
          "duration": 0.04166662500000484,
          "durationTicks": 48,
          "midi": 53,
          "name": "F3",
          "ticks": 117309,
          "time": 101.83062733593749,
          "velocity": 0.28346456692913385
        },
        {
          "duration": 0.08333325000000968,
          "durationTicks": 96,
          "midi": 77,
          "name": "F5",
          "ticks": 117309,
          "time": 101.83062733593749,
          "velocity": 0.31496062992125984
        },
        {
          "duration": 0.08333325000000968,
          "durationTicks": 96,
          "midi": 77,
          "name": "F5",
          "ticks": 117309,
          "time": 101.83062733593749,
          "velocity": 0.29133858267716534
        },
        {
          "duration": 0.08333325000000968,
          "durationTicks": 96,
          "midi": 38,
          "name": "D2",
          "ticks": 117309,
          "time": 101.83062733593749,
          "velocity": 0.2992125984251969
        },
        {
          "duration": 0.08333325000000968,
          "durationTicks": 96,
          "midi": 89,
          "name": "F6",
          "ticks": 117309,
          "time": 101.83062733593749,
          "velocity": 0.29133858267716534
        },
        {
          "duration": 0.08333325000000968,
          "durationTicks": 96,
          "midi": 93,
          "name": "A6",
          "ticks": 117309,
          "time": 101.83062733593749,
          "velocity": 0.1732283464566929
        },
        {
          "duration": 0.04166662499999063,
          "durationTicks": 48,
          "midi": 26,
          "name": "D1",
          "ticks": 117405,
          "time": 101.9139605859375,
          "velocity": 0.25196850393700787
        },
        {
          "duration": 0.08333324999999547,
          "durationTicks": 96,
          "midi": 76,
          "name": "E5",
          "ticks": 117501,
          "time": 101.9972938359375,
          "velocity": 0.31496062992125984
        },
        {
          "duration": 0.08333324999999547,
          "durationTicks": 96,
          "midi": 76,
          "name": "E5",
          "ticks": 117501,
          "time": 101.9972938359375,
          "velocity": 0.29133858267716534
        },
        {
          "duration": 0.16666650000000516,
          "durationTicks": 192,
          "midi": 26,
          "name": "D1",
          "ticks": 117501,
          "time": 101.9972938359375,
          "velocity": 0.31496062992125984
        },
        {
          "duration": 0.08333324999999547,
          "durationTicks": 96,
          "midi": 88,
          "name": "E6",
          "ticks": 117501,
          "time": 101.9972938359375,
          "velocity": 0.29133858267716534
        },
        {
          "duration": 0.08333324999999547,
          "durationTicks": 96,
          "midi": 92,
          "name": "G#6",
          "ticks": 117501,
          "time": 101.9972938359375,
          "velocity": 0.1732283464566929
        },
        {
          "duration": 0.04166662499999063,
          "durationTicks": 48,
          "midi": 53,
          "name": "F3",
          "ticks": 117693,
          "time": 102.1639603359375,
          "velocity": 0.28346456692913385
        },
        {
          "duration": 0.04166662499999063,
          "durationTicks": 48,
          "midi": 57,
          "name": "A3",
          "ticks": 117693,
          "time": 102.1639603359375,
          "velocity": 0.28346456692913385
        },
        {
          "duration": 0.04166662499999063,
          "durationTicks": 48,
          "midi": 60,
          "name": "C4",
          "ticks": 117693,
          "time": 102.1639603359375,
          "velocity": 0.28346456692913385
        },
        {
          "duration": 0.04166662499999063,
          "durationTicks": 48,
          "midi": 50,
          "name": "D3",
          "ticks": 117693,
          "time": 102.1639603359375,
          "velocity": 0.28346456692913385
        },
        {
          "duration": 0.08333324999999547,
          "durationTicks": 96,
          "midi": 74,
          "name": "D5",
          "ticks": 117693,
          "time": 102.1639603359375,
          "velocity": 0.31496062992125984
        },
        {
          "duration": 0.08333324999999547,
          "durationTicks": 96,
          "midi": 74,
          "name": "D5",
          "ticks": 117693,
          "time": 102.1639603359375,
          "velocity": 0.29133858267716534
        },
        {
          "duration": 0.08333324999999547,
          "durationTicks": 96,
          "midi": 38,
          "name": "D2",
          "ticks": 117693,
          "time": 102.1639603359375,
          "velocity": 0.2992125984251969
        },
        {
          "duration": 0.08333324999999547,
          "durationTicks": 96,
          "midi": 86,
          "name": "D6",
          "ticks": 117693,
          "time": 102.1639603359375,
          "velocity": 0.29133858267716534
        },
        {
          "duration": 0.08333324999999547,
          "durationTicks": 96,
          "midi": 91,
          "name": "G6",
          "ticks": 117693,
          "time": 102.1639603359375,
          "velocity": 0.1732283464566929
        },
        {
          "duration": 0.08333325000000968,
          "durationTicks": 96,
          "midi": 72,
          "name": "C5",
          "ticks": 117885,
          "time": 102.3306268359375,
          "velocity": 0.31496062992125984
        },
        {
          "duration": 0.08333325000000968,
          "durationTicks": 96,
          "midi": 72,
          "name": "C5",
          "ticks": 117885,
          "time": 102.3306268359375,
          "velocity": 0.29133858267716534
        },
        {
          "duration": 0.16666650000000516,
          "durationTicks": 192,
          "midi": 26,
          "name": "D1",
          "ticks": 117885,
          "time": 102.3306268359375,
          "velocity": 0.31496062992125984
        },
        {
          "duration": 0.16666650000000516,
          "durationTicks": 192,
          "midi": 38,
          "name": "D2",
          "ticks": 117885,
          "time": 102.3306268359375,
          "velocity": 0.29133858267716534
        },
        {
          "duration": 0.08333325000000968,
          "durationTicks": 96,
          "midi": 84,
          "name": "C6",
          "ticks": 117885,
          "time": 102.3306268359375,
          "velocity": 0.29133858267716534
        },
        {
          "duration": 0.08333325000000968,
          "durationTicks": 96,
          "midi": 90,
          "name": "F#6",
          "ticks": 117885,
          "time": 102.3306268359375,
          "velocity": 0.1732283464566929
        },
        {
          "duration": 0.04166662500000484,
          "durationTicks": 48,
          "midi": 50,
          "name": "D3",
          "ticks": 118077,
          "time": 102.4972933359375,
          "velocity": 0.28346456692913385
        },
        {
          "duration": 0.04166662500000484,
          "durationTicks": 48,
          "midi": 60,
          "name": "C4",
          "ticks": 118077,
          "time": 102.4972933359375,
          "velocity": 0.28346456692913385
        },
        {
          "duration": 0.04166662500000484,
          "durationTicks": 48,
          "midi": 57,
          "name": "A3",
          "ticks": 118077,
          "time": 102.4972933359375,
          "velocity": 0.28346456692913385
        },
        {
          "duration": 0.04166662500000484,
          "durationTicks": 48,
          "midi": 53,
          "name": "F3",
          "ticks": 118077,
          "time": 102.4972933359375,
          "velocity": 0.28346456692913385
        },
        {
          "duration": 0.08333324999999547,
          "durationTicks": 96,
          "midi": 74,
          "name": "D5",
          "ticks": 118077,
          "time": 102.4972933359375,
          "velocity": 0.31496062992125984
        },
        {
          "duration": 0.08333324999999547,
          "durationTicks": 96,
          "midi": 74,
          "name": "D5",
          "ticks": 118077,
          "time": 102.4972933359375,
          "velocity": 0.29133858267716534
        },
        {
          "duration": 0.08333324999999547,
          "durationTicks": 96,
          "midi": 38,
          "name": "D2",
          "ticks": 118077,
          "time": 102.4972933359375,
          "velocity": 0.2992125984251969
        },
        {
          "duration": 0.08333324999999547,
          "durationTicks": 96,
          "midi": 86,
          "name": "D6",
          "ticks": 118077,
          "time": 102.4972933359375,
          "velocity": 0.29133858267716534
        },
        {
          "duration": 0.08333324999999547,
          "durationTicks": 96,
          "midi": 89,
          "name": "F6",
          "ticks": 118077,
          "time": 102.4972933359375,
          "velocity": 0.1732283464566929
        },
        {
          "duration": 0.04166662500000484,
          "durationTicks": 48,
          "midi": 26,
          "name": "D1",
          "ticks": 118173,
          "time": 102.5806265859375,
          "velocity": 0.25196850393700787
        },
        {
          "duration": 0.16666650000000516,
          "durationTicks": 192,
          "midi": 76,
          "name": "E5",
          "ticks": 118269,
          "time": 102.66395983593749,
          "velocity": 0.31496062992125984
        },
        {
          "duration": 0.16666650000000516,
          "durationTicks": 192,
          "midi": 76,
          "name": "E5",
          "ticks": 118269,
          "time": 102.66395983593749,
          "velocity": 0.29133858267716534
        },
        {
          "duration": 0.16666650000000516,
          "durationTicks": 192,
          "midi": 28,
          "name": "E1",
          "ticks": 118269,
          "time": 102.66395983593749,
          "velocity": 0.31496062992125984
        },
        {
          "duration": 0.08333325000000968,
          "durationTicks": 96,
          "midi": 88,
          "name": "E6",
          "ticks": 118269,
          "time": 102.66395983593749,
          "velocity": 0.29133858267716534
        },
        {
          "duration": 0.16666650000000516,
          "durationTicks": 192,
          "midi": 88,
          "name": "E6",
          "ticks": 118269,
          "time": 102.66395983593749,
          "velocity": 0.1732283464566929
        },
        {
          "duration": 0.04166662500000484,
          "durationTicks": 48,
          "midi": 52,
          "name": "E3",
          "ticks": 118461,
          "time": 102.8306263359375,
          "velocity": 0.28346456692913385
        },
        {
          "duration": 0.04166662500000484,
          "durationTicks": 48,
          "midi": 62,
          "name": "D4",
          "ticks": 118461,
          "time": 102.8306263359375,
          "velocity": 0.28346456692913385
        },
        {
          "duration": 0.04166662500000484,
          "durationTicks": 48,
          "midi": 56,
          "name": "G#3",
          "ticks": 118461,
          "time": 102.8306263359375,
          "velocity": 0.28346456692913385
        },
        {
          "duration": 0.04166662500000484,
          "durationTicks": 48,
          "midi": 59,
          "name": "B3",
          "ticks": 118461,
          "time": 102.8306263359375,
          "velocity": 0.28346456692913385
        },
        {
          "duration": 0.08333324999999547,
          "durationTicks": 96,
          "midi": 75,
          "name": "D#5",
          "ticks": 118461,
          "time": 102.8306263359375,
          "velocity": 0.31496062992125984
        },
        {
          "duration": 0.08333324999999547,
          "durationTicks": 96,
          "midi": 75,
          "name": "D#5",
          "ticks": 118461,
          "time": 102.8306263359375,
          "velocity": 0.29133858267716534
        },
        {
          "duration": 0.08333324999999547,
          "durationTicks": 96,
          "midi": 40,
          "name": "E2",
          "ticks": 118461,
          "time": 102.8306263359375,
          "velocity": 0.2992125984251969
        },
        {
          "duration": 0.08333324999999547,
          "durationTicks": 96,
          "midi": 87,
          "name": "D#6",
          "ticks": 118461,
          "time": 102.8306263359375,
          "velocity": 0.29133858267716534
        },
        {
          "duration": 0.08333324999999547,
          "durationTicks": 96,
          "midi": 87,
          "name": "D#6",
          "ticks": 118461,
          "time": 102.8306263359375,
          "velocity": 0.1732283464566929
        },
        {
          "duration": 0.08333324999999547,
          "durationTicks": 96,
          "midi": 76,
          "name": "E5",
          "ticks": 118653,
          "time": 102.9972928359375,
          "velocity": 0.31496062992125984
        },
        {
          "duration": 0.08333324999999547,
          "durationTicks": 96,
          "midi": 76,
          "name": "E5",
          "ticks": 118653,
          "time": 102.9972928359375,
          "velocity": 0.29133858267716534
        },
        {
          "duration": 0.16666649999999095,
          "durationTicks": 192,
          "midi": 28,
          "name": "E1",
          "ticks": 118653,
          "time": 102.9972928359375,
          "velocity": 0.31496062992125984
        },
        {
          "duration": 0.16666649999999095,
          "durationTicks": 192,
          "midi": 40,
          "name": "E2",
          "ticks": 118653,
          "time": 102.9972928359375,
          "velocity": 0.29133858267716534
        },
        {
          "duration": 0.08333324999999547,
          "durationTicks": 96,
          "midi": 88,
          "name": "E6",
          "ticks": 118653,
          "time": 102.9972928359375,
          "velocity": 0.29133858267716534
        },
        {
          "duration": 0.08333324999999547,
          "durationTicks": 96,
          "midi": 86,
          "name": "D6",
          "ticks": 118653,
          "time": 102.9972928359375,
          "velocity": 0.1732283464566929
        },
        {
          "duration": 0.04166662500000484,
          "durationTicks": 48,
          "midi": 56,
          "name": "G#3",
          "ticks": 118845,
          "time": 103.16395933593749,
          "velocity": 0.28346456692913385
        },
        {
          "duration": 0.04166662500000484,
          "durationTicks": 48,
          "midi": 59,
          "name": "B3",
          "ticks": 118845,
          "time": 103.16395933593749,
          "velocity": 0.28346456692913385
        },
        {
          "duration": 0.04166662500000484,
          "durationTicks": 48,
          "midi": 62,
          "name": "D4",
          "ticks": 118845,
          "time": 103.16395933593749,
          "velocity": 0.28346456692913385
        },
        {
          "duration": 0.04166662500000484,
          "durationTicks": 48,
          "midi": 52,
          "name": "E3",
          "ticks": 118845,
          "time": 103.16395933593749,
          "velocity": 0.28346456692913385
        },
        {
          "duration": 0.08333325000000968,
          "durationTicks": 96,
          "midi": 77,
          "name": "F5",
          "ticks": 118845,
          "time": 103.16395933593749,
          "velocity": 0.31496062992125984
        },
        {
          "duration": 0.08333325000000968,
          "durationTicks": 96,
          "midi": 77,
          "name": "F5",
          "ticks": 118845,
          "time": 103.16395933593749,
          "velocity": 0.29133858267716534
        },
        {
          "duration": 0.08333325000000968,
          "durationTicks": 96,
          "midi": 40,
          "name": "E2",
          "ticks": 118845,
          "time": 103.16395933593749,
          "velocity": 0.2992125984251969
        },
        {
          "duration": 0.08333325000000968,
          "durationTicks": 96,
          "midi": 89,
          "name": "F6",
          "ticks": 118845,
          "time": 103.16395933593749,
          "velocity": 0.29133858267716534
        },
        {
          "duration": 0.08333325000000968,
          "durationTicks": 96,
          "midi": 85,
          "name": "C#6",
          "ticks": 118845,
          "time": 103.16395933593749,
          "velocity": 0.1732283464566929
        },
        {
          "duration": 0.04166662499999063,
          "durationTicks": 48,
          "midi": 28,
          "name": "E1",
          "ticks": 118941,
          "time": 103.2472925859375,
          "velocity": 0.25196850393700787
        },
        {
          "duration": 0.08333324999999547,
          "durationTicks": 96,
          "midi": 76,
          "name": "E5",
          "ticks": 119037,
          "time": 103.3306258359375,
          "velocity": 0.31496062992125984
        },
        {
          "duration": 0.08333324999999547,
          "durationTicks": 96,
          "midi": 76,
          "name": "E5",
          "ticks": 119037,
          "time": 103.3306258359375,
          "velocity": 0.29133858267716534
        },
        {
          "duration": 0.16666650000000516,
          "durationTicks": 192,
          "midi": 28,
          "name": "E1",
          "ticks": 119037,
          "time": 103.3306258359375,
          "velocity": 0.31496062992125984
        },
        {
          "duration": 0.08333324999999547,
          "durationTicks": 96,
          "midi": 88,
          "name": "E6",
          "ticks": 119037,
          "time": 103.3306258359375,
          "velocity": 0.29133858267716534
        },
        {
          "duration": 0.08333324999999547,
          "durationTicks": 96,
          "midi": 84,
          "name": "C6",
          "ticks": 119037,
          "time": 103.3306258359375,
          "velocity": 0.1732283464566929
        },
        {
          "duration": 0.04166662499999063,
          "durationTicks": 48,
          "midi": 52,
          "name": "E3",
          "ticks": 119229,
          "time": 103.4972923359375,
          "velocity": 0.28346456692913385
        },
        {
          "duration": 0.04166662499999063,
          "durationTicks": 48,
          "midi": 62,
          "name": "D4",
          "ticks": 119229,
          "time": 103.4972923359375,
          "velocity": 0.28346456692913385
        },
        {
          "duration": 0.04166662499999063,
          "durationTicks": 48,
          "midi": 59,
          "name": "B3",
          "ticks": 119229,
          "time": 103.4972923359375,
          "velocity": 0.28346456692913385
        },
        {
          "duration": 0.04166662499999063,
          "durationTicks": 48,
          "midi": 56,
          "name": "G#3",
          "ticks": 119229,
          "time": 103.4972923359375,
          "velocity": 0.28346456692913385
        },
        {
          "duration": 0.08333324999999547,
          "durationTicks": 96,
          "midi": 74,
          "name": "D5",
          "ticks": 119229,
          "time": 103.4972923359375,
          "velocity": 0.31496062992125984
        },
        {
          "duration": 0.08333324999999547,
          "durationTicks": 96,
          "midi": 74,
          "name": "D5",
          "ticks": 119229,
          "time": 103.4972923359375,
          "velocity": 0.29133858267716534
        },
        {
          "duration": 0.08333324999999547,
          "durationTicks": 96,
          "midi": 40,
          "name": "E2",
          "ticks": 119229,
          "time": 103.4972923359375,
          "velocity": 0.2992125984251969
        },
        {
          "duration": 0.08333324999999547,
          "durationTicks": 96,
          "midi": 86,
          "name": "D6",
          "ticks": 119229,
          "time": 103.4972923359375,
          "velocity": 0.29133858267716534
        },
        {
          "duration": 0.08333324999999547,
          "durationTicks": 96,
          "midi": 83,
          "name": "B5",
          "ticks": 119229,
          "time": 103.4972923359375,
          "velocity": 0.1732283464566929
        },
        {
          "duration": 0.08333325000000968,
          "durationTicks": 96,
          "midi": 72,
          "name": "C5",
          "ticks": 119421,
          "time": 103.66395883593749,
          "velocity": 0.31496062992125984
        },
        {
          "duration": 0.08333325000000968,
          "durationTicks": 96,
          "midi": 72,
          "name": "C5",
          "ticks": 119421,
          "time": 103.66395883593749,
          "velocity": 0.29133858267716534
        },
        {
          "duration": 0.16666650000000516,
          "durationTicks": 192,
          "midi": 28,
          "name": "E1",
          "ticks": 119421,
          "time": 103.66395883593749,
          "velocity": 0.31496062992125984
        },
        {
          "duration": 0.16666650000000516,
          "durationTicks": 192,
          "midi": 40,
          "name": "E2",
          "ticks": 119421,
          "time": 103.66395883593749,
          "velocity": 0.29133858267716534
        },
        {
          "duration": 0.08333325000000968,
          "durationTicks": 96,
          "midi": 84,
          "name": "C6",
          "ticks": 119421,
          "time": 103.66395883593749,
          "velocity": 0.29133858267716534
        },
        {
          "duration": 0.08333325000000968,
          "durationTicks": 96,
          "midi": 82,
          "name": "A#5",
          "ticks": 119421,
          "time": 103.66395883593749,
          "velocity": 0.1732283464566929
        },
        {
          "duration": 0.04166662500000484,
          "durationTicks": 48,
          "midi": 52,
          "name": "E3",
          "ticks": 119613,
          "time": 103.8306253359375,
          "velocity": 0.28346456692913385
        },
        {
          "duration": 0.04166662500000484,
          "durationTicks": 48,
          "midi": 62,
          "name": "D4",
          "ticks": 119613,
          "time": 103.8306253359375,
          "velocity": 0.28346456692913385
        },
        {
          "duration": 0.04166662500000484,
          "durationTicks": 48,
          "midi": 59,
          "name": "B3",
          "ticks": 119613,
          "time": 103.8306253359375,
          "velocity": 0.28346456692913385
        },
        {
          "duration": 0.04166662500000484,
          "durationTicks": 48,
          "midi": 56,
          "name": "G#3",
          "ticks": 119613,
          "time": 103.8306253359375,
          "velocity": 0.28346456692913385
        },
        {
          "duration": 0.08333324999999547,
          "durationTicks": 96,
          "midi": 74,
          "name": "D5",
          "ticks": 119613,
          "time": 103.8306253359375,
          "velocity": 0.31496062992125984
        },
        {
          "duration": 0.08333324999999547,
          "durationTicks": 96,
          "midi": 74,
          "name": "D5",
          "ticks": 119613,
          "time": 103.8306253359375,
          "velocity": 0.29133858267716534
        },
        {
          "duration": 0.08333324999999547,
          "durationTicks": 96,
          "midi": 40,
          "name": "E2",
          "ticks": 119613,
          "time": 103.8306253359375,
          "velocity": 0.2992125984251969
        },
        {
          "duration": 0.08333324999999547,
          "durationTicks": 96,
          "midi": 86,
          "name": "D6",
          "ticks": 119613,
          "time": 103.8306253359375,
          "velocity": 0.29133858267716534
        },
        {
          "duration": 0.08333324999999547,
          "durationTicks": 96,
          "midi": 83,
          "name": "B5",
          "ticks": 119613,
          "time": 103.8306253359375,
          "velocity": 0.1732283464566929
        },
        {
          "duration": 0.04166662500000484,
          "durationTicks": 48,
          "midi": 28,
          "name": "E1",
          "ticks": 119709,
          "time": 103.9139585859375,
          "velocity": 0.25196850393700787
        },
        {
          "duration": 0.3333329999999961,
          "durationTicks": 384,
          "midi": 76,
          "name": "E5",
          "ticks": 119805,
          "time": 103.9972918359375,
          "velocity": 0.31496062992125984
        },
        {
          "duration": 0.3333329999999961,
          "durationTicks": 384,
          "midi": 76,
          "name": "E5",
          "ticks": 119805,
          "time": 103.9972918359375,
          "velocity": 0.29133858267716534
        },
        {
          "duration": 0.16666649999999095,
          "durationTicks": 192,
          "midi": 33,
          "name": "A1",
          "ticks": 119805,
          "time": 103.9972918359375,
          "velocity": 0.31496062992125984
        },
        {
          "duration": 0.3333329999999961,
          "durationTicks": 384,
          "midi": 88,
          "name": "E6",
          "ticks": 119805,
          "time": 103.9972918359375,
          "velocity": 0.29133858267716534
        },
        {
          "duration": 0.08333324999999547,
          "durationTicks": 96,
          "midi": 81,
          "name": "A5",
          "ticks": 119805,
          "time": 103.9972918359375,
          "velocity": 0.1732283464566929
        },
        {
          "duration": 0.04166662500000484,
          "durationTicks": 48,
          "midi": 57,
          "name": "A3",
          "ticks": 119997,
          "time": 104.1639583359375,
          "velocity": 0.28346456692913385
        },
        {
          "duration": 0.04166662500000484,
          "durationTicks": 48,
          "midi": 60,
          "name": "C4",
          "ticks": 119997,
          "time": 104.1639583359375,
          "velocity": 0.28346456692913385
        },
        {
          "duration": 0.04166662500000484,
          "durationTicks": 48,
          "midi": 52,
          "name": "E3",
          "ticks": 119997,
          "time": 104.1639583359375,
          "velocity": 0.28346456692913385
        },
        {
          "duration": 0.08333325000000968,
          "durationTicks": 96,
          "midi": 45,
          "name": "A2",
          "ticks": 119997,
          "time": 104.1639583359375,
          "velocity": 0.2992125984251969
        },
        {
          "duration": 0.08333325000000968,
          "durationTicks": 96,
          "midi": 84,
          "name": "C6",
          "ticks": 119997,
          "time": 104.1639583359375,
          "velocity": 0.1732283464566929
        },
        {
          "duration": 0.16666649999999095,
          "durationTicks": 192,
          "midi": 69,
          "name": "A4",
          "ticks": 120189,
          "time": 104.3306248359375,
          "velocity": 0.31496062992125984
        },
        {
          "duration": 0.16666649999999095,
          "durationTicks": 192,
          "midi": 33,
          "name": "A1",
          "ticks": 120189,
          "time": 104.3306248359375,
          "velocity": 0.31496062992125984
        },
        {
          "duration": 0.16666649999999095,
          "durationTicks": 192,
          "midi": 45,
          "name": "A2",
          "ticks": 120189,
          "time": 104.3306248359375,
          "velocity": 0.29133858267716534
        },
        {
          "duration": 0.16666649999999095,
          "durationTicks": 192,
          "midi": 81,
          "name": "A5",
          "ticks": 120189,
          "time": 104.3306248359375,
          "velocity": 0.29133858267716534
        },
        {
          "duration": 0.08333324999999547,
          "durationTicks": 96,
          "midi": 88,
          "name": "E6",
          "ticks": 120189,
          "time": 104.3306248359375,
          "velocity": 0.1732283464566929
        },
        {
          "duration": 0.04166662500000484,
          "durationTicks": 48,
          "midi": 57,
          "name": "A3",
          "ticks": 120381,
          "time": 104.49729133593749,
          "velocity": 0.28346456692913385
        },
        {
          "duration": 0.04166662500000484,
          "durationTicks": 48,
          "midi": 60,
          "name": "C4",
          "ticks": 120381,
          "time": 104.49729133593749,
          "velocity": 0.28346456692913385
        },
        {
          "duration": 0.04166662500000484,
          "durationTicks": 48,
          "midi": 52,
          "name": "E3",
          "ticks": 120381,
          "time": 104.49729133593749,
          "velocity": 0.28346456692913385
        },
        {
          "duration": 0.16666650000000516,
          "durationTicks": 192,
          "midi": 69,
          "name": "A4",
          "ticks": 120381,
          "time": 104.49729133593749,
          "velocity": 0.2440944881889764
        },
        {
          "duration": 0.08333325000000968,
          "durationTicks": 96,
          "midi": 45,
          "name": "A2",
          "ticks": 120381,
          "time": 104.49729133593749,
          "velocity": 0.2992125984251969
        },
        {
          "duration": 0.08333325000000968,
          "durationTicks": 96,
          "midi": 93,
          "name": "A6",
          "ticks": 120381,
          "time": 104.49729133593749,
          "velocity": 0.1732283464566929
        },
        {
          "duration": 0.04166662499999063,
          "durationTicks": 48,
          "midi": 33,
          "name": "A1",
          "ticks": 120477,
          "time": 104.5806245859375,
          "velocity": 0.25196850393700787
        },
        {
          "duration": 0.16666650000000516,
          "durationTicks": 192,
          "midi": 71,
          "name": "B4",
          "ticks": 120573,
          "time": 104.6639578359375,
          "velocity": 0.31496062992125984
        },
        {
          "duration": 0.16666650000000516,
          "durationTicks": 192,
          "midi": 33,
          "name": "A1",
          "ticks": 120573,
          "time": 104.6639578359375,
          "velocity": 0.31496062992125984
        },
        {
          "duration": 0.16666650000000516,
          "durationTicks": 192,
          "midi": 83,
          "name": "B5",
          "ticks": 120573,
          "time": 104.6639578359375,
          "velocity": 0.29133858267716534
        },
        {
          "duration": 0.08333324999999547,
          "durationTicks": 96,
          "midi": 92,
          "name": "G#6",
          "ticks": 120573,
          "time": 104.6639578359375,
          "velocity": 0.1732283464566929
        },
        {
          "duration": 0.04166662499999063,
          "durationTicks": 48,
          "midi": 57,
          "name": "A3",
          "ticks": 120765,
          "time": 104.8306243359375,
          "velocity": 0.28346456692913385
        },
        {
          "duration": 0.04166662499999063,
          "durationTicks": 48,
          "midi": 60,
          "name": "C4",
          "ticks": 120765,
          "time": 104.8306243359375,
          "velocity": 0.28346456692913385
        },
        {
          "duration": 0.04166662499999063,
          "durationTicks": 48,
          "midi": 52,
          "name": "E3",
          "ticks": 120765,
          "time": 104.8306243359375,
          "velocity": 0.28346456692913385
        },
        {
          "duration": 0.16666649999999095,
          "durationTicks": 192,
          "midi": 71,
          "name": "B4",
          "ticks": 120765,
          "time": 104.8306243359375,
          "velocity": 0.2440944881889764
        },
        {
          "duration": 0.08333324999999547,
          "durationTicks": 96,
          "midi": 45,
          "name": "A2",
          "ticks": 120765,
          "time": 104.8306243359375,
          "velocity": 0.2992125984251969
        },
        {
          "duration": 0.08333324999999547,
          "durationTicks": 96,
          "midi": 91,
          "name": "G6",
          "ticks": 120765,
          "time": 104.8306243359375,
          "velocity": 0.1732283464566929
        },
        {
          "duration": 0.16666650000000516,
          "durationTicks": 192,
          "midi": 72,
          "name": "C5",
          "ticks": 120957,
          "time": 104.99729083593749,
          "velocity": 0.31496062992125984
        },
        {
          "duration": 0.16666650000000516,
          "durationTicks": 192,
          "midi": 33,
          "name": "A1",
          "ticks": 120957,
          "time": 104.99729083593749,
          "velocity": 0.31496062992125984
        },
        {
          "duration": 0.16666650000000516,
          "durationTicks": 192,
          "midi": 45,
          "name": "A2",
          "ticks": 120957,
          "time": 104.99729083593749,
          "velocity": 0.29133858267716534
        },
        {
          "duration": 0.16666650000000516,
          "durationTicks": 192,
          "midi": 84,
          "name": "C6",
          "ticks": 120957,
          "time": 104.99729083593749,
          "velocity": 0.29133858267716534
        },
        {
          "duration": 0.08333325000000968,
          "durationTicks": 96,
          "midi": 90,
          "name": "F#6",
          "ticks": 120957,
          "time": 104.99729083593749,
          "velocity": 0.1732283464566929
        },
        {
          "duration": 0.04166662500000484,
          "durationTicks": 48,
          "midi": 52,
          "name": "E3",
          "ticks": 121149,
          "time": 105.1639573359375,
          "velocity": 0.28346456692913385
        },
        {
          "duration": 0.04166662500000484,
          "durationTicks": 48,
          "midi": 60,
          "name": "C4",
          "ticks": 121149,
          "time": 105.1639573359375,
          "velocity": 0.28346456692913385
        },
        {
          "duration": 0.04166662500000484,
          "durationTicks": 48,
          "midi": 57,
          "name": "A3",
          "ticks": 121149,
          "time": 105.1639573359375,
          "velocity": 0.28346456692913385
        },
        {
          "duration": 0.16666650000000516,
          "durationTicks": 192,
          "midi": 72,
          "name": "C5",
          "ticks": 121149,
          "time": 105.1639573359375,
          "velocity": 0.2440944881889764
        },
        {
          "duration": 0.08333324999999547,
          "durationTicks": 96,
          "midi": 45,
          "name": "A2",
          "ticks": 121149,
          "time": 105.1639573359375,
          "velocity": 0.2992125984251969
        },
        {
          "duration": 0.08333324999999547,
          "durationTicks": 96,
          "midi": 89,
          "name": "F6",
          "ticks": 121149,
          "time": 105.1639573359375,
          "velocity": 0.1732283464566929
        },
        {
          "duration": 0.04166662500000484,
          "durationTicks": 48,
          "midi": 33,
          "name": "A1",
          "ticks": 121245,
          "time": 105.24729058593749,
          "velocity": 0.25196850393700787
        },
        {
          "duration": 0.16666649999999095,
          "durationTicks": 192,
          "midi": 73,
          "name": "C#5",
          "ticks": 121341,
          "time": 105.3306238359375,
          "velocity": 0.31496062992125984
        },
        {
          "duration": 0.16666649999999095,
          "durationTicks": 192,
          "midi": 36,
          "name": "C2",
          "ticks": 121341,
          "time": 105.3306238359375,
          "velocity": 0.31496062992125984
        },
        {
          "duration": 0.16666649999999095,
          "durationTicks": 192,
          "midi": 85,
          "name": "C#6",
          "ticks": 121341,
          "time": 105.3306238359375,
          "velocity": 0.29133858267716534
        },
        {
          "duration": 0.08333324999999547,
          "durationTicks": 96,
          "midi": 88,
          "name": "E6",
          "ticks": 121341,
          "time": 105.3306238359375,
          "velocity": 0.1732283464566929
        },
        {
          "duration": 0.04166662500000484,
          "durationTicks": 48,
          "midi": 62,
          "name": "D4",
          "ticks": 121533,
          "time": 105.49729033593749,
          "velocity": 0.28346456692913385
        },
        {
          "duration": 0.04166662500000484,
          "durationTicks": 48,
          "midi": 54,
          "name": "F#3",
          "ticks": 121533,
          "time": 105.49729033593749,
          "velocity": 0.28346456692913385
        },
        {
          "duration": 0.04166662500000484,
          "durationTicks": 48,
          "midi": 58,
          "name": "A#3",
          "ticks": 121533,
          "time": 105.49729033593749,
          "velocity": 0.28346456692913385
        },
        {
          "duration": 0.16666650000000516,
          "durationTicks": 192,
          "midi": 73,
          "name": "C#5",
          "ticks": 121533,
          "time": 105.49729033593749,
          "velocity": 0.2440944881889764
        },
        {
          "duration": 0.08333325000000968,
          "durationTicks": 96,
          "midi": 48,
          "name": "C3",
          "ticks": 121533,
          "time": 105.49729033593749,
          "velocity": 0.2992125984251969
        },
        {
          "duration": 0.08333325000000968,
          "durationTicks": 96,
          "midi": 87,
          "name": "D#6",
          "ticks": 121533,
          "time": 105.49729033593749,
          "velocity": 0.1732283464566929
        },
        {
          "duration": 0.16666650000000516,
          "durationTicks": 192,
          "midi": 74,
          "name": "D5",
          "ticks": 121725,
          "time": 105.6639568359375,
          "velocity": 0.31496062992125984
        },
        {
          "duration": 0.16666650000000516,
          "durationTicks": 192,
          "midi": 36,
          "name": "C2",
          "ticks": 121725,
          "time": 105.6639568359375,
          "velocity": 0.31496062992125984
        },
        {
          "duration": 0.16666650000000516,
          "durationTicks": 192,
          "midi": 48,
          "name": "C3",
          "ticks": 121725,
          "time": 105.6639568359375,
          "velocity": 0.29133858267716534
        },
        {
          "duration": 0.08333324999999547,
          "durationTicks": 96,
          "midi": 86,
          "name": "D6",
          "ticks": 121725,
          "time": 105.6639568359375,
          "velocity": 0.29133858267716534
        },
        {
          "duration": 0.16666650000000516,
          "durationTicks": 192,
          "midi": 86,
          "name": "D6",
          "ticks": 121725,
          "time": 105.6639568359375,
          "velocity": 0.1732283464566929
        },
        {
          "duration": 0.04166662499999063,
          "durationTicks": 48,
          "midi": 62,
          "name": "D4",
          "ticks": 121917,
          "time": 105.8306233359375,
          "velocity": 0.28346456692913385
        },
        {
          "duration": 0.04166662499999063,
          "durationTicks": 48,
          "midi": 54,
          "name": "F#3",
          "ticks": 121917,
          "time": 105.8306233359375,
          "velocity": 0.28346456692913385
        },
        {
          "duration": 0.04166662499999063,
          "durationTicks": 48,
          "midi": 58,
          "name": "A#3",
          "ticks": 121917,
          "time": 105.8306233359375,
          "velocity": 0.28346456692913385
        },
        {
          "duration": 0.16666649999999095,
          "durationTicks": 192,
          "midi": 74,
          "name": "D5",
          "ticks": 121917,
          "time": 105.8306233359375,
          "velocity": 0.2440944881889764
        },
        {
          "duration": 0.08333324999999547,
          "durationTicks": 96,
          "midi": 48,
          "name": "C3",
          "ticks": 121917,
          "time": 105.8306233359375,
          "velocity": 0.2992125984251969
        },
        {
          "duration": 0.08333324999999547,
          "durationTicks": 96,
          "midi": 85,
          "name": "C#6",
          "ticks": 121917,
          "time": 105.8306233359375,
          "velocity": 0.1732283464566929
        },
        {
          "duration": 0.04166662500000484,
          "durationTicks": 48,
          "midi": 36,
          "name": "C2",
          "ticks": 122013,
          "time": 105.9139565859375,
          "velocity": 0.25196850393700787
        },
        {
          "duration": 0.16666650000000516,
          "durationTicks": 192,
          "midi": 77,
          "name": "F5",
          "ticks": 122109,
          "time": 105.9972898359375,
          "velocity": 0.31496062992125984
        },
        {
          "duration": 0.16666650000000516,
          "durationTicks": 192,
          "midi": 36,
          "name": "C2",
          "ticks": 122109,
          "time": 105.9972898359375,
          "velocity": 0.31496062992125984
        },
        {
          "duration": 0.16666650000000516,
          "durationTicks": 192,
          "midi": 89,
          "name": "F6",
          "ticks": 122109,
          "time": 105.9972898359375,
          "velocity": 0.29133858267716534
        },
        {
          "duration": 0.08333325000000968,
          "durationTicks": 96,
          "midi": 84,
          "name": "C6",
          "ticks": 122109,
          "time": 105.9972898359375,
          "velocity": 0.1732283464566929
        },
        {
          "duration": 0.04166662500000484,
          "durationTicks": 48,
          "midi": 58,
          "name": "A#3",
          "ticks": 122301,
          "time": 106.1639563359375,
          "velocity": 0.28346456692913385
        },
        {
          "duration": 0.04166662500000484,
          "durationTicks": 48,
          "midi": 54,
          "name": "F#3",
          "ticks": 122301,
          "time": 106.1639563359375,
          "velocity": 0.28346456692913385
        },
        {
          "duration": 0.04166662500000484,
          "durationTicks": 48,
          "midi": 48,
          "name": "C3",
          "ticks": 122301,
          "time": 106.1639563359375,
          "velocity": 0.2440944881889764
        },
        {
          "duration": 0.04166662500000484,
          "durationTicks": 48,
          "midi": 62,
          "name": "D4",
          "ticks": 122301,
          "time": 106.1639563359375,
          "velocity": 0.28346456692913385
        },
        {
          "duration": 0.16666649999999095,
          "durationTicks": 192,
          "midi": 77,
          "name": "F5",
          "ticks": 122301,
          "time": 106.1639563359375,
          "velocity": 0.2440944881889764
        },
        {
          "duration": 0.08333324999999547,
          "durationTicks": 96,
          "midi": 48,
          "name": "C3",
          "ticks": 122301,
          "time": 106.1639563359375,
          "velocity": 0.2992125984251969
        },
        {
          "duration": 0.08333324999999547,
          "durationTicks": 96,
          "midi": 83,
          "name": "B5",
          "ticks": 122301,
          "time": 106.1639563359375,
          "velocity": 0.1732283464566929
        },
        {
          "duration": 0.04166662500000484,
          "durationTicks": 48,
          "midi": 50,
          "name": "D3",
          "ticks": 122493,
          "time": 106.33062283593749,
          "velocity": 0.2440944881889764
        },
        {
          "duration": 0.16666650000000516,
          "durationTicks": 192,
          "midi": 75,
          "name": "D#5",
          "ticks": 122493,
          "time": 106.33062283593749,
          "velocity": 0.31496062992125984
        },
        {
          "duration": 0.16666650000000516,
          "durationTicks": 192,
          "midi": 36,
          "name": "C2",
          "ticks": 122493,
          "time": 106.33062283593749,
          "velocity": 0.31496062992125984
        },
        {
          "duration": 0.16666650000000516,
          "durationTicks": 192,
          "midi": 48,
          "name": "C3",
          "ticks": 122493,
          "time": 106.33062283593749,
          "velocity": 0.29133858267716534
        },
        {
          "duration": 0.16666650000000516,
          "durationTicks": 192,
          "midi": 87,
          "name": "D#6",
          "ticks": 122493,
          "time": 106.33062283593749,
          "velocity": 0.29133858267716534
        },
        {
          "duration": 0.08333325000000968,
          "durationTicks": 96,
          "midi": 82,
          "name": "A#5",
          "ticks": 122493,
          "time": 106.33062283593749,
          "velocity": 0.1732283464566929
        },
        {
          "duration": 0.04166662500000484,
          "durationTicks": 48,
          "midi": 52,
          "name": "E3",
          "ticks": 122685,
          "time": 106.4972893359375,
          "velocity": 0.2440944881889764
        },
        {
          "duration": 0.04166662500000484,
          "durationTicks": 48,
          "midi": 62,
          "name": "D4",
          "ticks": 122685,
          "time": 106.4972893359375,
          "velocity": 0.28346456692913385
        },
        {
          "duration": 0.04166662500000484,
          "durationTicks": 48,
          "midi": 54,
          "name": "F#3",
          "ticks": 122685,
          "time": 106.4972893359375,
          "velocity": 0.28346456692913385
        },
        {
          "duration": 0.04166662500000484,
          "durationTicks": 48,
          "midi": 58,
          "name": "A#3",
          "ticks": 122685,
          "time": 106.4972893359375,
          "velocity": 0.28346456692913385
        },
        {
          "duration": 0.16666650000000516,
          "durationTicks": 192,
          "midi": 75,
          "name": "D#5",
          "ticks": 122685,
          "time": 106.4972893359375,
          "velocity": 0.2440944881889764
        },
        {
          "duration": 0.08333324999999547,
          "durationTicks": 96,
          "midi": 48,
          "name": "C3",
          "ticks": 122685,
          "time": 106.4972893359375,
          "velocity": 0.2992125984251969
        },
        {
          "duration": 0.08333324999999547,
          "durationTicks": 96,
          "midi": 83,
          "name": "B5",
          "ticks": 122685,
          "time": 106.4972893359375,
          "velocity": 0.1732283464566929
        },
        {
          "duration": 0.04166662500000484,
          "durationTicks": 48,
          "midi": 36,
          "name": "C2",
          "ticks": 122781,
          "time": 106.58062258593749,
          "velocity": 0.25196850393700787
        },
        {
          "duration": 0.16666649999999095,
          "durationTicks": 192,
          "midi": 76,
          "name": "E5",
          "ticks": 122877,
          "time": 106.6639558359375,
          "velocity": 0.31496062992125984
        },
        {
          "duration": 0.16666649999999095,
          "durationTicks": 192,
          "midi": 76,
          "name": "E5",
          "ticks": 122877,
          "time": 106.6639558359375,
          "velocity": 0.29133858267716534
        },
        {
          "duration": 0.16666649999999095,
          "durationTicks": 192,
          "midi": 26,
          "name": "D1",
          "ticks": 122877,
          "time": 106.6639558359375,
          "velocity": 0.31496062992125984
        },
        {
          "duration": 0.16666649999999095,
          "durationTicks": 192,
          "midi": 88,
          "name": "E6",
          "ticks": 122877,
          "time": 106.6639558359375,
          "velocity": 0.29133858267716534
        },
        {
          "duration": 0.08333324999999547,
          "durationTicks": 96,
          "midi": 81,
          "name": "A5",
          "ticks": 122877,
          "time": 106.6639558359375,
          "velocity": 0.1732283464566929
        },
        {
          "duration": 0.04166662500000484,
          "durationTicks": 48,
          "midi": 53,
          "name": "F3",
          "ticks": 123069,
          "time": 106.83062233593749,
          "velocity": 0.28346456692913385
        },
        {
          "duration": 0.04166662500000484,
          "durationTicks": 48,
          "midi": 57,
          "name": "A3",
          "ticks": 123069,
          "time": 106.83062233593749,
          "velocity": 0.28346456692913385
        },
        {
          "duration": 0.04166662500000484,
          "durationTicks": 48,
          "midi": 50,
          "name": "D3",
          "ticks": 123069,
          "time": 106.83062233593749,
          "velocity": 0.28346456692913385
        },
        {
          "duration": 0.04166662500000484,
          "durationTicks": 48,
          "midi": 60,
          "name": "C4",
          "ticks": 123069,
          "time": 106.83062233593749,
          "velocity": 0.28346456692913385
        },
        {
          "duration": 0.08333325000000968,
          "durationTicks": 96,
          "midi": 75,
          "name": "D#5",
          "ticks": 123069,
          "time": 106.83062233593749,
          "velocity": 0.31496062992125984
        },
        {
          "duration": 0.08333325000000968,
          "durationTicks": 96,
          "midi": 75,
          "name": "D#5",
          "ticks": 123069,
          "time": 106.83062233593749,
          "velocity": 0.29133858267716534
        },
        {
          "duration": 0.08333325000000968,
          "durationTicks": 96,
          "midi": 38,
          "name": "D2",
          "ticks": 123069,
          "time": 106.83062233593749,
          "velocity": 0.2992125984251969
        },
        {
          "duration": 0.08333325000000968,
          "durationTicks": 96,
          "midi": 87,
          "name": "D#6",
          "ticks": 123069,
          "time": 106.83062233593749,
          "velocity": 0.29133858267716534
        },
        {
          "duration": 0.08333325000000968,
          "durationTicks": 96,
          "midi": 84,
          "name": "C6",
          "ticks": 123069,
          "time": 106.83062233593749,
          "velocity": 0.1732283464566929
        },
        {
          "duration": 0.08333324999999547,
          "durationTicks": 96,
          "midi": 76,
          "name": "E5",
          "ticks": 123261,
          "time": 106.9972888359375,
          "velocity": 0.31496062992125984
        },
        {
          "duration": 0.08333324999999547,
          "durationTicks": 96,
          "midi": 76,
          "name": "E5",
          "ticks": 123261,
          "time": 106.9972888359375,
          "velocity": 0.29133858267716534
        },
        {
          "duration": 0.16666650000000516,
          "durationTicks": 192,
          "midi": 26,
          "name": "D1",
          "ticks": 123261,
          "time": 106.9972888359375,
          "velocity": 0.31496062992125984
        },
        {
          "duration": 0.16666650000000516,
          "durationTicks": 192,
          "midi": 38,
          "name": "D2",
          "ticks": 123261,
          "time": 106.9972888359375,
          "velocity": 0.29133858267716534
        },
        {
          "duration": 0.08333324999999547,
          "durationTicks": 96,
          "midi": 88,
          "name": "E6",
          "ticks": 123261,
          "time": 106.9972888359375,
          "velocity": 0.29133858267716534
        },
        {
          "duration": 0.08333324999999547,
          "durationTicks": 96,
          "midi": 88,
          "name": "E6",
          "ticks": 123261,
          "time": 106.9972888359375,
          "velocity": 0.1732283464566929
        },
        {
          "duration": 0.04166662499999063,
          "durationTicks": 48,
          "midi": 50,
          "name": "D3",
          "ticks": 123453,
          "time": 107.1639553359375,
          "velocity": 0.28346456692913385
        },
        {
          "duration": 0.04166662499999063,
          "durationTicks": 48,
          "midi": 60,
          "name": "C4",
          "ticks": 123453,
          "time": 107.1639553359375,
          "velocity": 0.28346456692913385
        },
        {
          "duration": 0.04166662499999063,
          "durationTicks": 48,
          "midi": 57,
          "name": "A3",
          "ticks": 123453,
          "time": 107.1639553359375,
          "velocity": 0.28346456692913385
        },
        {
          "duration": 0.04166662499999063,
          "durationTicks": 48,
          "midi": 53,
          "name": "F3",
          "ticks": 123453,
          "time": 107.1639553359375,
          "velocity": 0.28346456692913385
        },
        {
          "duration": 0.08333324999999547,
          "durationTicks": 96,
          "midi": 77,
          "name": "F5",
          "ticks": 123453,
          "time": 107.1639553359375,
          "velocity": 0.31496062992125984
        },
        {
          "duration": 0.08333324999999547,
          "durationTicks": 96,
          "midi": 77,
          "name": "F5",
          "ticks": 123453,
          "time": 107.1639553359375,
          "velocity": 0.29133858267716534
        },
        {
          "duration": 0.08333324999999547,
          "durationTicks": 96,
          "midi": 38,
          "name": "D2",
          "ticks": 123453,
          "time": 107.1639553359375,
          "velocity": 0.2992125984251969
        },
        {
          "duration": 0.08333324999999547,
          "durationTicks": 96,
          "midi": 89,
          "name": "F6",
          "ticks": 123453,
          "time": 107.1639553359375,
          "velocity": 0.29133858267716534
        },
        {
          "duration": 0.08333324999999547,
          "durationTicks": 96,
          "midi": 93,
          "name": "A6",
          "ticks": 123453,
          "time": 107.1639553359375,
          "velocity": 0.1732283464566929
        },
        {
          "duration": 0.04166662500000484,
          "durationTicks": 48,
          "midi": 26,
          "name": "D1",
          "ticks": 123549,
          "time": 107.2472885859375,
          "velocity": 0.25196850393700787
        },
        {
          "duration": 0.08333325000000968,
          "durationTicks": 96,
          "midi": 76,
          "name": "E5",
          "ticks": 123645,
          "time": 107.33062183593749,
          "velocity": 0.31496062992125984
        },
        {
          "duration": 0.08333325000000968,
          "durationTicks": 96,
          "midi": 76,
          "name": "E5",
          "ticks": 123645,
          "time": 107.33062183593749,
          "velocity": 0.29133858267716534
        },
        {
          "duration": 0.16666650000000516,
          "durationTicks": 192,
          "midi": 26,
          "name": "D1",
          "ticks": 123645,
          "time": 107.33062183593749,
          "velocity": 0.31496062992125984
        },
        {
          "duration": 0.08333325000000968,
          "durationTicks": 96,
          "midi": 88,
          "name": "E6",
          "ticks": 123645,
          "time": 107.33062183593749,
          "velocity": 0.29133858267716534
        },
        {
          "duration": 0.08333325000000968,
          "durationTicks": 96,
          "midi": 92,
          "name": "G#6",
          "ticks": 123645,
          "time": 107.33062183593749,
          "velocity": 0.1732283464566929
        },
        {
          "duration": 0.04166662500000484,
          "durationTicks": 48,
          "midi": 53,
          "name": "F3",
          "ticks": 123837,
          "time": 107.4972883359375,
          "velocity": 0.28346456692913385
        },
        {
          "duration": 0.04166662500000484,
          "durationTicks": 48,
          "midi": 57,
          "name": "A3",
          "ticks": 123837,
          "time": 107.4972883359375,
          "velocity": 0.28346456692913385
        },
        {
          "duration": 0.04166662500000484,
          "durationTicks": 48,
          "midi": 60,
          "name": "C4",
          "ticks": 123837,
          "time": 107.4972883359375,
          "velocity": 0.28346456692913385
        },
        {
          "duration": 0.04166662500000484,
          "durationTicks": 48,
          "midi": 50,
          "name": "D3",
          "ticks": 123837,
          "time": 107.4972883359375,
          "velocity": 0.28346456692913385
        },
        {
          "duration": 0.08333324999999547,
          "durationTicks": 96,
          "midi": 74,
          "name": "D5",
          "ticks": 123837,
          "time": 107.4972883359375,
          "velocity": 0.31496062992125984
        },
        {
          "duration": 0.08333324999999547,
          "durationTicks": 96,
          "midi": 74,
          "name": "D5",
          "ticks": 123837,
          "time": 107.4972883359375,
          "velocity": 0.29133858267716534
        },
        {
          "duration": 0.08333324999999547,
          "durationTicks": 96,
          "midi": 38,
          "name": "D2",
          "ticks": 123837,
          "time": 107.4972883359375,
          "velocity": 0.2992125984251969
        },
        {
          "duration": 0.08333324999999547,
          "durationTicks": 96,
          "midi": 86,
          "name": "D6",
          "ticks": 123837,
          "time": 107.4972883359375,
          "velocity": 0.29133858267716534
        },
        {
          "duration": 0.08333324999999547,
          "durationTicks": 96,
          "midi": 91,
          "name": "G6",
          "ticks": 123837,
          "time": 107.4972883359375,
          "velocity": 0.1732283464566929
        },
        {
          "duration": 0.08333324999999547,
          "durationTicks": 96,
          "midi": 72,
          "name": "C5",
          "ticks": 124029,
          "time": 107.6639548359375,
          "velocity": 0.31496062992125984
        },
        {
          "duration": 0.08333324999999547,
          "durationTicks": 96,
          "midi": 72,
          "name": "C5",
          "ticks": 124029,
          "time": 107.6639548359375,
          "velocity": 0.29133858267716534
        },
        {
          "duration": 0.16666649999999095,
          "durationTicks": 192,
          "midi": 26,
          "name": "D1",
          "ticks": 124029,
          "time": 107.6639548359375,
          "velocity": 0.31496062992125984
        },
        {
          "duration": 0.16666649999999095,
          "durationTicks": 192,
          "midi": 38,
          "name": "D2",
          "ticks": 124029,
          "time": 107.6639548359375,
          "velocity": 0.29133858267716534
        },
        {
          "duration": 0.08333324999999547,
          "durationTicks": 96,
          "midi": 84,
          "name": "C6",
          "ticks": 124029,
          "time": 107.6639548359375,
          "velocity": 0.29133858267716534
        },
        {
          "duration": 0.08333324999999547,
          "durationTicks": 96,
          "midi": 90,
          "name": "F#6",
          "ticks": 124029,
          "time": 107.6639548359375,
          "velocity": 0.1732283464566929
        },
        {
          "duration": 0.04166662500000484,
          "durationTicks": 48,
          "midi": 53,
          "name": "F3",
          "ticks": 124221,
          "time": 107.8306213359375,
          "velocity": 0.28346456692913385
        },
        {
          "duration": 0.04166662500000484,
          "durationTicks": 48,
          "midi": 57,
          "name": "A3",
          "ticks": 124221,
          "time": 107.8306213359375,
          "velocity": 0.28346456692913385
        },
        {
          "duration": 0.04166662500000484,
          "durationTicks": 48,
          "midi": 60,
          "name": "C4",
          "ticks": 124221,
          "time": 107.8306213359375,
          "velocity": 0.28346456692913385
        },
        {
          "duration": 0.04166662500000484,
          "durationTicks": 48,
          "midi": 50,
          "name": "D3",
          "ticks": 124221,
          "time": 107.8306213359375,
          "velocity": 0.28346456692913385
        },
        {
          "duration": 0.08333325000000968,
          "durationTicks": 96,
          "midi": 74,
          "name": "D5",
          "ticks": 124221,
          "time": 107.8306213359375,
          "velocity": 0.31496062992125984
        },
        {
          "duration": 0.08333325000000968,
          "durationTicks": 96,
          "midi": 74,
          "name": "D5",
          "ticks": 124221,
          "time": 107.8306213359375,
          "velocity": 0.29133858267716534
        },
        {
          "duration": 0.08333325000000968,
          "durationTicks": 96,
          "midi": 38,
          "name": "D2",
          "ticks": 124221,
          "time": 107.8306213359375,
          "velocity": 0.2992125984251969
        },
        {
          "duration": 0.08333325000000968,
          "durationTicks": 96,
          "midi": 86,
          "name": "D6",
          "ticks": 124221,
          "time": 107.8306213359375,
          "velocity": 0.29133858267716534
        },
        {
          "duration": 0.08333325000000968,
          "durationTicks": 96,
          "midi": 89,
          "name": "F6",
          "ticks": 124221,
          "time": 107.8306213359375,
          "velocity": 0.1732283464566929
        },
        {
          "duration": 0.04166662499999063,
          "durationTicks": 48,
          "midi": 26,
          "name": "D1",
          "ticks": 124317,
          "time": 107.9139545859375,
          "velocity": 0.25196850393700787
        },
        {
          "duration": 0.16666650000000516,
          "durationTicks": 192,
          "midi": 76,
          "name": "E5",
          "ticks": 124413,
          "time": 107.9972878359375,
          "velocity": 0.31496062992125984
        },
        {
          "duration": 0.16666650000000516,
          "durationTicks": 192,
          "midi": 76,
          "name": "E5",
          "ticks": 124413,
          "time": 107.9972878359375,
          "velocity": 0.29133858267716534
        },
        {
          "duration": 0.16666650000000516,
          "durationTicks": 192,
          "midi": 28,
          "name": "E1",
          "ticks": 124413,
          "time": 107.9972878359375,
          "velocity": 0.31496062992125984
        },
        {
          "duration": 0.08333324999999547,
          "durationTicks": 96,
          "midi": 88,
          "name": "E6",
          "ticks": 124413,
          "time": 107.9972878359375,
          "velocity": 0.29133858267716534
        },
        {
          "duration": 0.16666650000000516,
          "durationTicks": 192,
          "midi": 88,
          "name": "E6",
          "ticks": 124413,
          "time": 107.9972878359375,
          "velocity": 0.1732283464566929
        },
        {
          "duration": 0.04166662499999063,
          "durationTicks": 48,
          "midi": 56,
          "name": "G#3",
          "ticks": 124605,
          "time": 108.1639543359375,
          "velocity": 0.28346456692913385
        },
        {
          "duration": 0.04166662499999063,
          "durationTicks": 48,
          "midi": 59,
          "name": "B3",
          "ticks": 124605,
          "time": 108.1639543359375,
          "velocity": 0.28346456692913385
        },
        {
          "duration": 0.04166662499999063,
          "durationTicks": 48,
          "midi": 52,
          "name": "E3",
          "ticks": 124605,
          "time": 108.1639543359375,
          "velocity": 0.28346456692913385
        },
        {
          "duration": 0.04166662499999063,
          "durationTicks": 48,
          "midi": 62,
          "name": "D4",
          "ticks": 124605,
          "time": 108.1639543359375,
          "velocity": 0.28346456692913385
        },
        {
          "duration": 0.08333324999999547,
          "durationTicks": 96,
          "midi": 75,
          "name": "D#5",
          "ticks": 124605,
          "time": 108.1639543359375,
          "velocity": 0.31496062992125984
        },
        {
          "duration": 0.08333324999999547,
          "durationTicks": 96,
          "midi": 75,
          "name": "D#5",
          "ticks": 124605,
          "time": 108.1639543359375,
          "velocity": 0.29133858267716534
        },
        {
          "duration": 0.08333324999999547,
          "durationTicks": 96,
          "midi": 40,
          "name": "E2",
          "ticks": 124605,
          "time": 108.1639543359375,
          "velocity": 0.2992125984251969
        },
        {
          "duration": 0.08333324999999547,
          "durationTicks": 96,
          "midi": 87,
          "name": "D#6",
          "ticks": 124605,
          "time": 108.1639543359375,
          "velocity": 0.29133858267716534
        },
        {
          "duration": 0.08333324999999547,
          "durationTicks": 96,
          "midi": 87,
          "name": "D#6",
          "ticks": 124605,
          "time": 108.1639543359375,
          "velocity": 0.1732283464566929
        },
        {
          "duration": 0.08333324999999547,
          "durationTicks": 96,
          "midi": 76,
          "name": "E5",
          "ticks": 124797,
          "time": 108.3306208359375,
          "velocity": 0.31496062992125984
        },
        {
          "duration": 0.08333324999999547,
          "durationTicks": 96,
          "midi": 76,
          "name": "E5",
          "ticks": 124797,
          "time": 108.3306208359375,
          "velocity": 0.29133858267716534
        },
        {
          "duration": 0.16666650000000516,
          "durationTicks": 192,
          "midi": 28,
          "name": "E1",
          "ticks": 124797,
          "time": 108.3306208359375,
          "velocity": 0.31496062992125984
        },
        {
          "duration": 0.16666650000000516,
          "durationTicks": 192,
          "midi": 40,
          "name": "E2",
          "ticks": 124797,
          "time": 108.3306208359375,
          "velocity": 0.29133858267716534
        },
        {
          "duration": 0.08333324999999547,
          "durationTicks": 96,
          "midi": 88,
          "name": "E6",
          "ticks": 124797,
          "time": 108.3306208359375,
          "velocity": 0.29133858267716534
        },
        {
          "duration": 0.08333324999999547,
          "durationTicks": 96,
          "midi": 86,
          "name": "D6",
          "ticks": 124797,
          "time": 108.3306208359375,
          "velocity": 0.1732283464566929
        },
        {
          "duration": 0.04166662499999063,
          "durationTicks": 48,
          "midi": 56,
          "name": "G#3",
          "ticks": 124989,
          "time": 108.4972873359375,
          "velocity": 0.28346456692913385
        },
        {
          "duration": 0.04166662499999063,
          "durationTicks": 48,
          "midi": 59,
          "name": "B3",
          "ticks": 124989,
          "time": 108.4972873359375,
          "velocity": 0.28346456692913385
        },
        {
          "duration": 0.04166662499999063,
          "durationTicks": 48,
          "midi": 62,
          "name": "D4",
          "ticks": 124989,
          "time": 108.4972873359375,
          "velocity": 0.28346456692913385
        },
        {
          "duration": 0.04166662499999063,
          "durationTicks": 48,
          "midi": 52,
          "name": "E3",
          "ticks": 124989,
          "time": 108.4972873359375,
          "velocity": 0.28346456692913385
        },
        {
          "duration": 0.08333324999999547,
          "durationTicks": 96,
          "midi": 77,
          "name": "F5",
          "ticks": 124989,
          "time": 108.4972873359375,
          "velocity": 0.31496062992125984
        },
        {
          "duration": 0.08333324999999547,
          "durationTicks": 96,
          "midi": 77,
          "name": "F5",
          "ticks": 124989,
          "time": 108.4972873359375,
          "velocity": 0.29133858267716534
        },
        {
          "duration": 0.08333324999999547,
          "durationTicks": 96,
          "midi": 40,
          "name": "E2",
          "ticks": 124989,
          "time": 108.4972873359375,
          "velocity": 0.2992125984251969
        },
        {
          "duration": 0.08333324999999547,
          "durationTicks": 96,
          "midi": 89,
          "name": "F6",
          "ticks": 124989,
          "time": 108.4972873359375,
          "velocity": 0.29133858267716534
        },
        {
          "duration": 0.08333324999999547,
          "durationTicks": 96,
          "midi": 85,
          "name": "C#6",
          "ticks": 124989,
          "time": 108.4972873359375,
          "velocity": 0.1732283464566929
        },
        {
          "duration": 0.04166662500000484,
          "durationTicks": 48,
          "midi": 28,
          "name": "E1",
          "ticks": 125085,
          "time": 108.5806205859375,
          "velocity": 0.25196850393700787
        },
        {
          "duration": 0.08333325000000968,
          "durationTicks": 96,
          "midi": 76,
          "name": "E5",
          "ticks": 125181,
          "time": 108.66395383593749,
          "velocity": 0.31496062992125984
        },
        {
          "duration": 0.08333325000000968,
          "durationTicks": 96,
          "midi": 76,
          "name": "E5",
          "ticks": 125181,
          "time": 108.66395383593749,
          "velocity": 0.29133858267716534
        },
        {
          "duration": 0.16666650000000516,
          "durationTicks": 192,
          "midi": 28,
          "name": "E1",
          "ticks": 125181,
          "time": 108.66395383593749,
          "velocity": 0.31496062992125984
        },
        {
          "duration": 0.08333325000000968,
          "durationTicks": 96,
          "midi": 88,
          "name": "E6",
          "ticks": 125181,
          "time": 108.66395383593749,
          "velocity": 0.29133858267716534
        },
        {
          "duration": 0.08333325000000968,
          "durationTicks": 96,
          "midi": 84,
          "name": "C6",
          "ticks": 125181,
          "time": 108.66395383593749,
          "velocity": 0.1732283464566929
        },
        {
          "duration": 0.04166662500000484,
          "durationTicks": 48,
          "midi": 52,
          "name": "E3",
          "ticks": 125373,
          "time": 108.8306203359375,
          "velocity": 0.28346456692913385
        },
        {
          "duration": 0.04166662500000484,
          "durationTicks": 48,
          "midi": 62,
          "name": "D4",
          "ticks": 125373,
          "time": 108.8306203359375,
          "velocity": 0.28346456692913385
        },
        {
          "duration": 0.04166662500000484,
          "durationTicks": 48,
          "midi": 59,
          "name": "B3",
          "ticks": 125373,
          "time": 108.8306203359375,
          "velocity": 0.28346456692913385
        },
        {
          "duration": 0.04166662500000484,
          "durationTicks": 48,
          "midi": 56,
          "name": "G#3",
          "ticks": 125373,
          "time": 108.8306203359375,
          "velocity": 0.28346456692913385
        },
        {
          "duration": 0.08333324999999547,
          "durationTicks": 96,
          "midi": 74,
          "name": "D5",
          "ticks": 125373,
          "time": 108.8306203359375,
          "velocity": 0.31496062992125984
        },
        {
          "duration": 0.08333324999999547,
          "durationTicks": 96,
          "midi": 74,
          "name": "D5",
          "ticks": 125373,
          "time": 108.8306203359375,
          "velocity": 0.29133858267716534
        },
        {
          "duration": 0.08333324999999547,
          "durationTicks": 96,
          "midi": 40,
          "name": "E2",
          "ticks": 125373,
          "time": 108.8306203359375,
          "velocity": 0.2992125984251969
        },
        {
          "duration": 0.08333324999999547,
          "durationTicks": 96,
          "midi": 86,
          "name": "D6",
          "ticks": 125373,
          "time": 108.8306203359375,
          "velocity": 0.29133858267716534
        },
        {
          "duration": 0.08333324999999547,
          "durationTicks": 96,
          "midi": 83,
          "name": "B5",
          "ticks": 125373,
          "time": 108.8306203359375,
          "velocity": 0.1732283464566929
        },
        {
          "duration": 0.08333324999999547,
          "durationTicks": 96,
          "midi": 72,
          "name": "C5",
          "ticks": 125565,
          "time": 108.9972868359375,
          "velocity": 0.31496062992125984
        },
        {
          "duration": 0.08333324999999547,
          "durationTicks": 96,
          "midi": 72,
          "name": "C5",
          "ticks": 125565,
          "time": 108.9972868359375,
          "velocity": 0.29133858267716534
        },
        {
          "duration": 0.16666649999999095,
          "durationTicks": 192,
          "midi": 28,
          "name": "E1",
          "ticks": 125565,
          "time": 108.9972868359375,
          "velocity": 0.31496062992125984
        },
        {
          "duration": 0.16666649999999095,
          "durationTicks": 192,
          "midi": 40,
          "name": "E2",
          "ticks": 125565,
          "time": 108.9972868359375,
          "velocity": 0.29133858267716534
        },
        {
          "duration": 0.08333324999999547,
          "durationTicks": 96,
          "midi": 84,
          "name": "C6",
          "ticks": 125565,
          "time": 108.9972868359375,
          "velocity": 0.29133858267716534
        },
        {
          "duration": 0.08333324999999547,
          "durationTicks": 96,
          "midi": 82,
          "name": "A#5",
          "ticks": 125565,
          "time": 108.9972868359375,
          "velocity": 0.1732283464566929
        },
        {
          "duration": 0.04166662500000484,
          "durationTicks": 48,
          "midi": 52,
          "name": "E3",
          "ticks": 125757,
          "time": 109.16395333593749,
          "velocity": 0.28346456692913385
        },
        {
          "duration": 0.04166662500000484,
          "durationTicks": 48,
          "midi": 62,
          "name": "D4",
          "ticks": 125757,
          "time": 109.16395333593749,
          "velocity": 0.28346456692913385
        },
        {
          "duration": 0.04166662500000484,
          "durationTicks": 48,
          "midi": 59,
          "name": "B3",
          "ticks": 125757,
          "time": 109.16395333593749,
          "velocity": 0.28346456692913385
        },
        {
          "duration": 0.04166662500000484,
          "durationTicks": 48,
          "midi": 56,
          "name": "G#3",
          "ticks": 125757,
          "time": 109.16395333593749,
          "velocity": 0.28346456692913385
        },
        {
          "duration": 0.08333325000000968,
          "durationTicks": 96,
          "midi": 71,
          "name": "B4",
          "ticks": 125757,
          "time": 109.16395333593749,
          "velocity": 0.31496062992125984
        },
        {
          "duration": 0.08333325000000968,
          "durationTicks": 96,
          "midi": 71,
          "name": "B4",
          "ticks": 125757,
          "time": 109.16395333593749,
          "velocity": 0.29133858267716534
        },
        {
          "duration": 0.08333325000000968,
          "durationTicks": 96,
          "midi": 40,
          "name": "E2",
          "ticks": 125757,
          "time": 109.16395333593749,
          "velocity": 0.2992125984251969
        },
        {
          "duration": 0.08333325000000968,
          "durationTicks": 96,
          "midi": 83,
          "name": "B5",
          "ticks": 125757,
          "time": 109.16395333593749,
          "velocity": 0.29133858267716534
        },
        {
          "duration": 0.08333325000000968,
          "durationTicks": 96,
          "midi": 83,
          "name": "B5",
          "ticks": 125757,
          "time": 109.16395333593749,
          "velocity": 0.1732283464566929
        },
        {
          "duration": 0.04166662499999063,
          "durationTicks": 48,
          "midi": 28,
          "name": "E1",
          "ticks": 125853,
          "time": 109.2472865859375,
          "velocity": 0.25196850393700787
        },
        {
          "duration": 0.3333329999999961,
          "durationTicks": 384,
          "midi": 69,
          "name": "A4",
          "ticks": 125949,
          "time": 109.3306198359375,
          "velocity": 0.31496062992125984
        },
        {
          "duration": 0.3333329999999961,
          "durationTicks": 384,
          "midi": 69,
          "name": "A4",
          "ticks": 125949,
          "time": 109.3306198359375,
          "velocity": 0.29133858267716534
        },
        {
          "duration": 0.16666650000000516,
          "durationTicks": 192,
          "midi": 33,
          "name": "A1",
          "ticks": 125949,
          "time": 109.3306198359375,
          "velocity": 0.31496062992125984
        },
        {
          "duration": 0.08333324999999547,
          "durationTicks": 96,
          "midi": 81,
          "name": "A5",
          "ticks": 125949,
          "time": 109.3306198359375,
          "velocity": 0.29133858267716534
        },
        {
          "duration": 0.3333329999999961,
          "durationTicks": 384,
          "midi": 81,
          "name": "A5",
          "ticks": 125949,
          "time": 109.3306198359375,
          "velocity": 0.1732283464566929
        },
        {
          "duration": 0.04166662499999063,
          "durationTicks": 48,
          "midi": 52,
          "name": "E3",
          "ticks": 126141,
          "time": 109.4972863359375,
          "velocity": 0.28346456692913385
        },
        {
          "duration": 0.04166662499999063,
          "durationTicks": 48,
          "midi": 60,
          "name": "C4",
          "ticks": 126141,
          "time": 109.4972863359375,
          "velocity": 0.28346456692913385
        },
        {
          "duration": 0.04166662499999063,
          "durationTicks": 48,
          "midi": 57,
          "name": "A3",
          "ticks": 126141,
          "time": 109.4972863359375,
          "velocity": 0.28346456692913385
        },
        {
          "duration": 0.08333324999999547,
          "durationTicks": 96,
          "midi": 45,
          "name": "A2",
          "ticks": 126141,
          "time": 109.4972863359375,
          "velocity": 0.2992125984251969
        },
        {
          "duration": 0.08333324999999547,
          "durationTicks": 96,
          "midi": 84,
          "name": "C6",
          "ticks": 126141,
          "time": 109.4972863359375,
          "velocity": 0.1732283464566929
        },
        {
          "duration": 0.16666650000000516,
          "durationTicks": 192,
          "midi": 81,
          "name": "A5",
          "ticks": 126333,
          "time": 109.6639528359375,
          "velocity": 0.31496062992125984
        },
        {
          "duration": 0.16666650000000516,
          "durationTicks": 192,
          "midi": 33,
          "name": "A1",
          "ticks": 126333,
          "time": 109.6639528359375,
          "velocity": 0.31496062992125984
        },
        {
          "duration": 0.16666650000000516,
          "durationTicks": 192,
          "midi": 45,
          "name": "A2",
          "ticks": 126333,
          "time": 109.6639528359375,
          "velocity": 0.29133858267716534
        },
        {
          "duration": 0.16666650000000516,
          "durationTicks": 192,
          "midi": 93,
          "name": "A6",
          "ticks": 126333,
          "time": 109.6639528359375,
          "velocity": 0.29133858267716534
        },
        {
          "duration": 0.08333325000000968,
          "durationTicks": 96,
          "midi": 88,
          "name": "E6",
          "ticks": 126333,
          "time": 109.6639528359375,
          "velocity": 0.1732283464566929
        },
        {
          "duration": 0.04166662500000484,
          "durationTicks": 48,
          "midi": 52,
          "name": "E3",
          "ticks": 126525,
          "time": 109.8306193359375,
          "velocity": 0.28346456692913385
        },
        {
          "duration": 0.04166662500000484,
          "durationTicks": 48,
          "midi": 60,
          "name": "C4",
          "ticks": 126525,
          "time": 109.8306193359375,
          "velocity": 0.28346456692913385
        },
        {
          "duration": 0.04166662500000484,
          "durationTicks": 48,
          "midi": 57,
          "name": "A3",
          "ticks": 126525,
          "time": 109.8306193359375,
          "velocity": 0.28346456692913385
        },
        {
          "duration": 0.16666650000000516,
          "durationTicks": 192,
          "midi": 81,
          "name": "A5",
          "ticks": 126525,
          "time": 109.8306193359375,
          "velocity": 0.2440944881889764
        },
        {
          "duration": 0.08333324999999547,
          "durationTicks": 96,
          "midi": 45,
          "name": "A2",
          "ticks": 126525,
          "time": 109.8306193359375,
          "velocity": 0.2992125984251969
        },
        {
          "duration": 0.08333324999999547,
          "durationTicks": 96,
          "midi": 93,
          "name": "A6",
          "ticks": 126525,
          "time": 109.8306193359375,
          "velocity": 0.1732283464566929
        },
        {
          "duration": 0.04166662500000484,
          "durationTicks": 48,
          "midi": 33,
          "name": "A1",
          "ticks": 126621,
          "time": 109.9139525859375,
          "velocity": 0.25196850393700787
        },
        {
          "duration": 0.16666649999999095,
          "durationTicks": 192,
          "midi": 80,
          "name": "G#5",
          "ticks": 126717,
          "time": 109.9972858359375,
          "velocity": 0.31496062992125984
        },
        {
          "duration": 0.16666649999999095,
          "durationTicks": 192,
          "midi": 33,
          "name": "A1",
          "ticks": 126717,
          "time": 109.9972858359375,
          "velocity": 0.31496062992125984
        },
        {
          "duration": 0.08333324999999547,
          "durationTicks": 96,
          "midi": 92,
          "name": "G#6",
          "ticks": 126717,
          "time": 109.9972858359375,
          "velocity": 0.29133858267716534
        },
        {
          "duration": 0.16666649999999095,
          "durationTicks": 192,
          "midi": 92,
          "name": "G#6",
          "ticks": 126717,
          "time": 109.9972858359375,
          "velocity": 0.1732283464566929
        },
        {
          "duration": 0.04166662500000484,
          "durationTicks": 48,
          "midi": 52,
          "name": "E3",
          "ticks": 126909,
          "time": 110.1639523359375,
          "velocity": 0.28346456692913385
        },
        {
          "duration": 0.04166662500000484,
          "durationTicks": 48,
          "midi": 60,
          "name": "C4",
          "ticks": 126909,
          "time": 110.1639523359375,
          "velocity": 0.28346456692913385
        },
        {
          "duration": 0.04166662500000484,
          "durationTicks": 48,
          "midi": 57,
          "name": "A3",
          "ticks": 126909,
          "time": 110.1639523359375,
          "velocity": 0.28346456692913385
        },
        {
          "duration": 0.16666650000000516,
          "durationTicks": 192,
          "midi": 80,
          "name": "G#5",
          "ticks": 126909,
          "time": 110.1639523359375,
          "velocity": 0.2440944881889764
        },
        {
          "duration": 0.08333324999999547,
          "durationTicks": 96,
          "midi": 45,
          "name": "A2",
          "ticks": 126909,
          "time": 110.1639523359375,
          "velocity": 0.2992125984251969
        },
        {
          "duration": 0.08333324999999547,
          "durationTicks": 96,
          "midi": 91,
          "name": "G6",
          "ticks": 126909,
          "time": 110.1639523359375,
          "velocity": 0.1732283464566929
        },
        {
          "duration": 0.16666649999999095,
          "durationTicks": 192,
          "midi": 79,
          "name": "G5",
          "ticks": 127101,
          "time": 110.3306188359375,
          "velocity": 0.31496062992125984
        },
        {
          "duration": 0.16666649999999095,
          "durationTicks": 192,
          "midi": 33,
          "name": "A1",
          "ticks": 127101,
          "time": 110.3306188359375,
          "velocity": 0.31496062992125984
        },
        {
          "duration": 0.16666649999999095,
          "durationTicks": 192,
          "midi": 45,
          "name": "A2",
          "ticks": 127101,
          "time": 110.3306188359375,
          "velocity": 0.29133858267716534
        },
        {
          "duration": 0.16666649999999095,
          "durationTicks": 192,
          "midi": 91,
          "name": "G6",
          "ticks": 127101,
          "time": 110.3306188359375,
          "velocity": 0.29133858267716534
        },
        {
          "duration": 0.08333324999999547,
          "durationTicks": 96,
          "midi": 90,
          "name": "F#6",
          "ticks": 127101,
          "time": 110.3306188359375,
          "velocity": 0.1732283464566929
        },
        {
          "duration": 0.04166662500000484,
          "durationTicks": 48,
          "midi": 57,
          "name": "A3",
          "ticks": 127293,
          "time": 110.49728533593749,
          "velocity": 0.28346456692913385
        },
        {
          "duration": 0.04166662500000484,
          "durationTicks": 48,
          "midi": 60,
          "name": "C4",
          "ticks": 127293,
          "time": 110.49728533593749,
          "velocity": 0.28346456692913385
        },
        {
          "duration": 0.04166662500000484,
          "durationTicks": 48,
          "midi": 52,
          "name": "E3",
          "ticks": 127293,
          "time": 110.49728533593749,
          "velocity": 0.28346456692913385
        },
        {
          "duration": 0.16666650000000516,
          "durationTicks": 192,
          "midi": 79,
          "name": "G5",
          "ticks": 127293,
          "time": 110.49728533593749,
          "velocity": 0.2440944881889764
        },
        {
          "duration": 0.08333325000000968,
          "durationTicks": 96,
          "midi": 45,
          "name": "A2",
          "ticks": 127293,
          "time": 110.49728533593749,
          "velocity": 0.2992125984251969
        },
        {
          "duration": 0.08333325000000968,
          "durationTicks": 96,
          "midi": 89,
          "name": "F6",
          "ticks": 127293,
          "time": 110.49728533593749,
          "velocity": 0.1732283464566929
        },
        {
          "duration": 0.04166662499999063,
          "durationTicks": 48,
          "midi": 33,
          "name": "A1",
          "ticks": 127389,
          "time": 110.5806185859375,
          "velocity": 0.25196850393700787
        },
        {
          "duration": 0.16666650000000516,
          "durationTicks": 192,
          "midi": 78,
          "name": "F#5",
          "ticks": 127485,
          "time": 110.6639518359375,
          "velocity": 0.31496062992125984
        },
        {
          "duration": 0.16666650000000516,
          "durationTicks": 192,
          "midi": 36,
          "name": "C2",
          "ticks": 127485,
          "time": 110.6639518359375,
          "velocity": 0.31496062992125984
        },
        {
          "duration": 0.16666650000000516,
          "durationTicks": 192,
          "midi": 90,
          "name": "F#6",
          "ticks": 127485,
          "time": 110.6639518359375,
          "velocity": 0.29133858267716534
        },
        {
          "duration": 0.08333324999999547,
          "durationTicks": 96,
          "midi": 88,
          "name": "E6",
          "ticks": 127485,
          "time": 110.6639518359375,
          "velocity": 0.1732283464566929
        },
        {
          "duration": 0.04166662499999063,
          "durationTicks": 48,
          "midi": 58,
          "name": "A#3",
          "ticks": 127677,
          "time": 110.8306183359375,
          "velocity": 0.28346456692913385
        },
        {
          "duration": 0.04166662499999063,
          "durationTicks": 48,
          "midi": 54,
          "name": "F#3",
          "ticks": 127677,
          "time": 110.8306183359375,
          "velocity": 0.28346456692913385
        },
        {
          "duration": 0.04166662499999063,
          "durationTicks": 48,
          "midi": 62,
          "name": "D4",
          "ticks": 127677,
          "time": 110.8306183359375,
          "velocity": 0.28346456692913385
        },
        {
          "duration": 0.16666649999999095,
          "durationTicks": 192,
          "midi": 78,
          "name": "F#5",
          "ticks": 127677,
          "time": 110.8306183359375,
          "velocity": 0.2440944881889764
        },
        {
          "duration": 0.08333324999999547,
          "durationTicks": 96,
          "midi": 48,
          "name": "C3",
          "ticks": 127677,
          "time": 110.8306183359375,
          "velocity": 0.2992125984251969
        },
        {
          "duration": 0.08333324999999547,
          "durationTicks": 96,
          "midi": 87,
          "name": "D#6",
          "ticks": 127677,
          "time": 110.8306183359375,
          "velocity": 0.1732283464566929
        },
        {
          "duration": 0.16666650000000516,
          "durationTicks": 192,
          "midi": 77,
          "name": "F5",
          "ticks": 127869,
          "time": 110.99728483593749,
          "velocity": 0.31496062992125984
        },
        {
          "duration": 0.16666650000000516,
          "durationTicks": 192,
          "midi": 36,
          "name": "C2",
          "ticks": 127869,
          "time": 110.99728483593749,
          "velocity": 0.31496062992125984
        },
        {
          "duration": 0.16666650000000516,
          "durationTicks": 192,
          "midi": 48,
          "name": "C3",
          "ticks": 127869,
          "time": 110.99728483593749,
          "velocity": 0.29133858267716534
        },
        {
          "duration": 0.16666650000000516,
          "durationTicks": 192,
          "midi": 89,
          "name": "F6",
          "ticks": 127869,
          "time": 110.99728483593749,
          "velocity": 0.29133858267716534
        },
        {
          "duration": 0.08333325000000968,
          "durationTicks": 96,
          "midi": 86,
          "name": "D6",
          "ticks": 127869,
          "time": 110.99728483593749,
          "velocity": 0.1732283464566929
        },
        {
          "duration": 0.04166662500000484,
          "durationTicks": 48,
          "midi": 58,
          "name": "A#3",
          "ticks": 128061,
          "time": 111.1639513359375,
          "velocity": 0.28346456692913385
        },
        {
          "duration": 0.04166662500000484,
          "durationTicks": 48,
          "midi": 54,
          "name": "F#3",
          "ticks": 128061,
          "time": 111.1639513359375,
          "velocity": 0.28346456692913385
        },
        {
          "duration": 0.04166662500000484,
          "durationTicks": 48,
          "midi": 62,
          "name": "D4",
          "ticks": 128061,
          "time": 111.1639513359375,
          "velocity": 0.28346456692913385
        },
        {
          "duration": 0.16666650000000516,
          "durationTicks": 192,
          "midi": 77,
          "name": "F5",
          "ticks": 128061,
          "time": 111.1639513359375,
          "velocity": 0.2440944881889764
        },
        {
          "duration": 0.08333324999999547,
          "durationTicks": 96,
          "midi": 48,
          "name": "C3",
          "ticks": 128061,
          "time": 111.1639513359375,
          "velocity": 0.2992125984251969
        },
        {
          "duration": 0.08333324999999547,
          "durationTicks": 96,
          "midi": 85,
          "name": "C#6",
          "ticks": 128061,
          "time": 111.1639513359375,
          "velocity": 0.1732283464566929
        },
        {
          "duration": 0.04166662500000484,
          "durationTicks": 48,
          "midi": 36,
          "name": "C2",
          "ticks": 128157,
          "time": 111.24728458593749,
          "velocity": 0.25196850393700787
        },
        {
          "duration": 0.16666649999999095,
          "durationTicks": 192,
          "midi": 75,
          "name": "D#5",
          "ticks": 128253,
          "time": 111.3306178359375,
          "velocity": 0.31496062992125984
        },
        {
          "duration": 0.16666649999999095,
          "durationTicks": 192,
          "midi": 36,
          "name": "C2",
          "ticks": 128253,
          "time": 111.3306178359375,
          "velocity": 0.31496062992125984
        },
        {
          "duration": 0.16666649999999095,
          "durationTicks": 192,
          "midi": 87,
          "name": "D#6",
          "ticks": 128253,
          "time": 111.3306178359375,
          "velocity": 0.29133858267716534
        },
        {
          "duration": 0.08333324999999547,
          "durationTicks": 96,
          "midi": 84,
          "name": "C6",
          "ticks": 128253,
          "time": 111.3306178359375,
          "velocity": 0.1732283464566929
        },
        {
          "duration": 0.04166662500000484,
          "durationTicks": 48,
          "midi": 48,
          "name": "C3",
          "ticks": 128445,
          "time": 111.4972843359375,
          "velocity": 0.2440944881889764
        },
        {
          "duration": 0.04166662500000484,
          "durationTicks": 48,
          "midi": 62,
          "name": "D4",
          "ticks": 128445,
          "time": 111.4972843359375,
          "velocity": 0.28346456692913385
        },
        {
          "duration": 0.04166662500000484,
          "durationTicks": 48,
          "midi": 58,
          "name": "A#3",
          "ticks": 128445,
          "time": 111.4972843359375,
          "velocity": 0.28346456692913385
        },
        {
          "duration": 0.04166662500000484,
          "durationTicks": 48,
          "midi": 54,
          "name": "F#3",
          "ticks": 128445,
          "time": 111.4972843359375,
          "velocity": 0.28346456692913385
        },
        {
          "duration": 0.16666650000000516,
          "durationTicks": 192,
          "midi": 75,
          "name": "D#5",
          "ticks": 128445,
          "time": 111.4972843359375,
          "velocity": 0.2440944881889764
        },
        {
          "duration": 0.08333325000000968,
          "durationTicks": 96,
          "midi": 48,
          "name": "C3",
          "ticks": 128445,
          "time": 111.4972843359375,
          "velocity": 0.2992125984251969
        },
        {
          "duration": 0.08333325000000968,
          "durationTicks": 96,
          "midi": 83,
          "name": "B5",
          "ticks": 128445,
          "time": 111.4972843359375,
          "velocity": 0.1732283464566929
        },
        {
          "duration": 0.04166662500000484,
          "durationTicks": 48,
          "midi": 50,
          "name": "D3",
          "ticks": 128637,
          "time": 111.6639508359375,
          "velocity": 0.2440944881889764
        },
        {
          "duration": 0.16666650000000516,
          "durationTicks": 192,
          "midi": 76,
          "name": "E5",
          "ticks": 128637,
          "time": 111.6639508359375,
          "velocity": 0.31496062992125984
        },
        {
          "duration": 0.16666650000000516,
          "durationTicks": 192,
          "midi": 36,
          "name": "C2",
          "ticks": 128637,
          "time": 111.6639508359375,
          "velocity": 0.31496062992125984
        },
        {
          "duration": 0.16666650000000516,
          "durationTicks": 192,
          "midi": 48,
          "name": "C3",
          "ticks": 128637,
          "time": 111.6639508359375,
          "velocity": 0.29133858267716534
        },
        {
          "duration": 0.16666650000000516,
          "durationTicks": 192,
          "midi": 88,
          "name": "E6",
          "ticks": 128637,
          "time": 111.6639508359375,
          "velocity": 0.29133858267716534
        },
        {
          "duration": 0.08333324999999547,
          "durationTicks": 96,
          "midi": 82,
          "name": "A#5",
          "ticks": 128637,
          "time": 111.6639508359375,
          "velocity": 0.1732283464566929
        },
        {
          "duration": 0.04166662499999063,
          "durationTicks": 48,
          "midi": 62,
          "name": "D4",
          "ticks": 128829,
          "time": 111.8306173359375,
          "velocity": 0.28346456692913385
        },
        {
          "duration": 0.04166662499999063,
          "durationTicks": 48,
          "midi": 54,
          "name": "F#3",
          "ticks": 128829,
          "time": 111.8306173359375,
          "velocity": 0.28346456692913385
        },
        {
          "duration": 0.04166662499999063,
          "durationTicks": 48,
          "midi": 58,
          "name": "A#3",
          "ticks": 128829,
          "time": 111.8306173359375,
          "velocity": 0.28346456692913385
        },
        {
          "duration": 0.04166662499999063,
          "durationTicks": 48,
          "midi": 52,
          "name": "E3",
          "ticks": 128829,
          "time": 111.8306173359375,
          "velocity": 0.2440944881889764
        },
        {
          "duration": 0.16666649999999095,
          "durationTicks": 192,
          "midi": 76,
          "name": "E5",
          "ticks": 128829,
          "time": 111.8306173359375,
          "velocity": 0.2440944881889764
        },
        {
          "duration": 0.08333324999999547,
          "durationTicks": 96,
          "midi": 48,
          "name": "C3",
          "ticks": 128829,
          "time": 111.8306173359375,
          "velocity": 0.2992125984251969
        },
        {
          "duration": 0.08333324999999547,
          "durationTicks": 96,
          "midi": 83,
          "name": "B5",
          "ticks": 128829,
          "time": 111.8306173359375,
          "velocity": 0.1732283464566929
        },
        {
          "duration": 0.04166662499999063,
          "durationTicks": 48,
          "midi": 36,
          "name": "C2",
          "ticks": 128925,
          "time": 111.9139505859375,
          "velocity": 0.25196850393700787
        },
        {
          "duration": 0.16666650000000516,
          "durationTicks": 192,
          "midi": 76,
          "name": "E5",
          "ticks": 129021,
          "time": 111.9972838359375,
          "velocity": 0.31496062992125984
        },
        {
          "duration": 0.16666650000000516,
          "durationTicks": 192,
          "midi": 76,
          "name": "E5",
          "ticks": 129021,
          "time": 111.9972838359375,
          "velocity": 0.29133858267716534
        },
        {
          "duration": 0.16666650000000516,
          "durationTicks": 192,
          "midi": 26,
          "name": "D1",
          "ticks": 129021,
          "time": 111.9972838359375,
          "velocity": 0.31496062992125984
        },
        {
          "duration": 0.16666650000000516,
          "durationTicks": 192,
          "midi": 88,
          "name": "E6",
          "ticks": 129021,
          "time": 111.9972838359375,
          "velocity": 0.29133858267716534
        },
        {
          "duration": 0.08333324999999547,
          "durationTicks": 96,
          "midi": 81,
          "name": "A5",
          "ticks": 129021,
          "time": 111.9972838359375,
          "velocity": 0.1732283464566929
        },
        {
          "duration": 0.04166662499999063,
          "durationTicks": 48,
          "midi": 50,
          "name": "D3",
          "ticks": 129213,
          "time": 112.1639503359375,
          "velocity": 0.28346456692913385
        },
        {
          "duration": 0.04166662499999063,
          "durationTicks": 48,
          "midi": 60,
          "name": "C4",
          "ticks": 129213,
          "time": 112.1639503359375,
          "velocity": 0.28346456692913385
        },
        {
          "duration": 0.04166662499999063,
          "durationTicks": 48,
          "midi": 53,
          "name": "F3",
          "ticks": 129213,
          "time": 112.1639503359375,
          "velocity": 0.28346456692913385
        },
        {
          "duration": 0.04166662499999063,
          "durationTicks": 48,
          "midi": 57,
          "name": "A3",
          "ticks": 129213,
          "time": 112.1639503359375,
          "velocity": 0.28346456692913385
        },
        {
          "duration": 0.08333324999999547,
          "durationTicks": 96,
          "midi": 75,
          "name": "D#5",
          "ticks": 129213,
          "time": 112.1639503359375,
          "velocity": 0.31496062992125984
        },
        {
          "duration": 0.08333324999999547,
          "durationTicks": 96,
          "midi": 75,
          "name": "D#5",
          "ticks": 129213,
          "time": 112.1639503359375,
          "velocity": 0.29133858267716534
        },
        {
          "duration": 0.08333324999999547,
          "durationTicks": 96,
          "midi": 38,
          "name": "D2",
          "ticks": 129213,
          "time": 112.1639503359375,
          "velocity": 0.2992125984251969
        },
        {
          "duration": 0.08333324999999547,
          "durationTicks": 96,
          "midi": 87,
          "name": "D#6",
          "ticks": 129213,
          "time": 112.1639503359375,
          "velocity": 0.29133858267716534
        },
        {
          "duration": 0.08333324999999547,
          "durationTicks": 96,
          "midi": 84,
          "name": "C6",
          "ticks": 129213,
          "time": 112.1639503359375,
          "velocity": 0.1732283464566929
        },
        {
          "duration": 0.08333325000000968,
          "durationTicks": 96,
          "midi": 76,
          "name": "E5",
          "ticks": 129405,
          "time": 112.33061683593749,
          "velocity": 0.31496062992125984
        },
        {
          "duration": 0.08333325000000968,
          "durationTicks": 96,
          "midi": 76,
          "name": "E5",
          "ticks": 129405,
          "time": 112.33061683593749,
          "velocity": 0.29133858267716534
        },
        {
          "duration": 0.16666650000000516,
          "durationTicks": 192,
          "midi": 26,
          "name": "D1",
          "ticks": 129405,
          "time": 112.33061683593749,
          "velocity": 0.31496062992125984
        },
        {
          "duration": 0.16666650000000516,
          "durationTicks": 192,
          "midi": 38,
          "name": "D2",
          "ticks": 129405,
          "time": 112.33061683593749,
          "velocity": 0.29133858267716534
        },
        {
          "duration": 0.08333325000000968,
          "durationTicks": 96,
          "midi": 88,
          "name": "E6",
          "ticks": 129405,
          "time": 112.33061683593749,
          "velocity": 0.29133858267716534
        },
        {
          "duration": 0.08333325000000968,
          "durationTicks": 96,
          "midi": 88,
          "name": "E6",
          "ticks": 129405,
          "time": 112.33061683593749,
          "velocity": 0.1732283464566929
        },
        {
          "duration": 0.04166662500000484,
          "durationTicks": 48,
          "midi": 53,
          "name": "F3",
          "ticks": 129597,
          "time": 112.4972833359375,
          "velocity": 0.28346456692913385
        },
        {
          "duration": 0.04166662500000484,
          "durationTicks": 48,
          "midi": 57,
          "name": "A3",
          "ticks": 129597,
          "time": 112.4972833359375,
          "velocity": 0.28346456692913385
        },
        {
          "duration": 0.04166662500000484,
          "durationTicks": 48,
          "midi": 60,
          "name": "C4",
          "ticks": 129597,
          "time": 112.4972833359375,
          "velocity": 0.28346456692913385
        },
        {
          "duration": 0.04166662500000484,
          "durationTicks": 48,
          "midi": 50,
          "name": "D3",
          "ticks": 129597,
          "time": 112.4972833359375,
          "velocity": 0.28346456692913385
        },
        {
          "duration": 0.08333324999999547,
          "durationTicks": 96,
          "midi": 77,
          "name": "F5",
          "ticks": 129597,
          "time": 112.4972833359375,
          "velocity": 0.31496062992125984
        },
        {
          "duration": 0.08333324999999547,
          "durationTicks": 96,
          "midi": 77,
          "name": "F5",
          "ticks": 129597,
          "time": 112.4972833359375,
          "velocity": 0.29133858267716534
        },
        {
          "duration": 0.08333324999999547,
          "durationTicks": 96,
          "midi": 38,
          "name": "D2",
          "ticks": 129597,
          "time": 112.4972833359375,
          "velocity": 0.2992125984251969
        },
        {
          "duration": 0.08333324999999547,
          "durationTicks": 96,
          "midi": 89,
          "name": "F6",
          "ticks": 129597,
          "time": 112.4972833359375,
          "velocity": 0.29133858267716534
        },
        {
          "duration": 0.08333324999999547,
          "durationTicks": 96,
          "midi": 93,
          "name": "A6",
          "ticks": 129597,
          "time": 112.4972833359375,
          "velocity": 0.1732283464566929
        },
        {
          "duration": 0.04166662500000484,
          "durationTicks": 48,
          "midi": 26,
          "name": "D1",
          "ticks": 129693,
          "time": 112.58061658593749,
          "velocity": 0.25196850393700787
        },
        {
          "duration": 0.08333324999999547,
          "durationTicks": 96,
          "midi": 76,
          "name": "E5",
          "ticks": 129789,
          "time": 112.6639498359375,
          "velocity": 0.31496062992125984
        },
        {
          "duration": 0.08333324999999547,
          "durationTicks": 96,
          "midi": 76,
          "name": "E5",
          "ticks": 129789,
          "time": 112.6639498359375,
          "velocity": 0.29133858267716534
        },
        {
          "duration": 0.16666649999999095,
          "durationTicks": 192,
          "midi": 26,
          "name": "D1",
          "ticks": 129789,
          "time": 112.6639498359375,
          "velocity": 0.31496062992125984
        },
        {
          "duration": 0.08333324999999547,
          "durationTicks": 96,
          "midi": 88,
          "name": "E6",
          "ticks": 129789,
          "time": 112.6639498359375,
          "velocity": 0.29133858267716534
        },
        {
          "duration": 0.08333324999999547,
          "durationTicks": 96,
          "midi": 92,
          "name": "G#6",
          "ticks": 129789,
          "time": 112.6639498359375,
          "velocity": 0.1732283464566929
        },
        {
          "duration": 0.04166662500000484,
          "durationTicks": 48,
          "midi": 53,
          "name": "F3",
          "ticks": 129981,
          "time": 112.83061633593749,
          "velocity": 0.28346456692913385
        },
        {
          "duration": 0.04166662500000484,
          "durationTicks": 48,
          "midi": 57,
          "name": "A3",
          "ticks": 129981,
          "time": 112.83061633593749,
          "velocity": 0.28346456692913385
        },
        {
          "duration": 0.04166662500000484,
          "durationTicks": 48,
          "midi": 60,
          "name": "C4",
          "ticks": 129981,
          "time": 112.83061633593749,
          "velocity": 0.28346456692913385
        },
        {
          "duration": 0.04166662500000484,
          "durationTicks": 48,
          "midi": 50,
          "name": "D3",
          "ticks": 129981,
          "time": 112.83061633593749,
          "velocity": 0.28346456692913385
        },
        {
          "duration": 0.08333325000000968,
          "durationTicks": 96,
          "midi": 74,
          "name": "D5",
          "ticks": 129981,
          "time": 112.83061633593749,
          "velocity": 0.31496062992125984
        },
        {
          "duration": 0.08333325000000968,
          "durationTicks": 96,
          "midi": 74,
          "name": "D5",
          "ticks": 129981,
          "time": 112.83061633593749,
          "velocity": 0.29133858267716534
        },
        {
          "duration": 0.08333325000000968,
          "durationTicks": 96,
          "midi": 38,
          "name": "D2",
          "ticks": 129981,
          "time": 112.83061633593749,
          "velocity": 0.2992125984251969
        },
        {
          "duration": 0.08333325000000968,
          "durationTicks": 96,
          "midi": 86,
          "name": "D6",
          "ticks": 129981,
          "time": 112.83061633593749,
          "velocity": 0.29133858267716534
        },
        {
          "duration": 0.08333325000000968,
          "durationTicks": 96,
          "midi": 91,
          "name": "G6",
          "ticks": 129981,
          "time": 112.83061633593749,
          "velocity": 0.1732283464566929
        },
        {
          "duration": 0.08333324999999547,
          "durationTicks": 96,
          "midi": 72,
          "name": "C5",
          "ticks": 130173,
          "time": 112.9972828359375,
          "velocity": 0.31496062992125984
        },
        {
          "duration": 0.08333324999999547,
          "durationTicks": 96,
          "midi": 72,
          "name": "C5",
          "ticks": 130173,
          "time": 112.9972828359375,
          "velocity": 0.29133858267716534
        },
        {
          "duration": 0.16666650000000516,
          "durationTicks": 192,
          "midi": 26,
          "name": "D1",
          "ticks": 130173,
          "time": 112.9972828359375,
          "velocity": 0.31496062992125984
        },
        {
          "duration": 0.16666650000000516,
          "durationTicks": 192,
          "midi": 38,
          "name": "D2",
          "ticks": 130173,
          "time": 112.9972828359375,
          "velocity": 0.29133858267716534
        },
        {
          "duration": 0.08333324999999547,
          "durationTicks": 96,
          "midi": 84,
          "name": "C6",
          "ticks": 130173,
          "time": 112.9972828359375,
          "velocity": 0.29133858267716534
        },
        {
          "duration": 0.08333324999999547,
          "durationTicks": 96,
          "midi": 90,
          "name": "F#6",
          "ticks": 130173,
          "time": 112.9972828359375,
          "velocity": 0.1732283464566929
        },
        {
          "duration": 0.04166662499999063,
          "durationTicks": 48,
          "midi": 53,
          "name": "F3",
          "ticks": 130365,
          "time": 113.1639493359375,
          "velocity": 0.28346456692913385
        },
        {
          "duration": 0.04166662499999063,
          "durationTicks": 48,
          "midi": 57,
          "name": "A3",
          "ticks": 130365,
          "time": 113.1639493359375,
          "velocity": 0.28346456692913385
        },
        {
          "duration": 0.04166662499999063,
          "durationTicks": 48,
          "midi": 60,
          "name": "C4",
          "ticks": 130365,
          "time": 113.1639493359375,
          "velocity": 0.28346456692913385
        },
        {
          "duration": 0.04166662499999063,
          "durationTicks": 48,
          "midi": 50,
          "name": "D3",
          "ticks": 130365,
          "time": 113.1639493359375,
          "velocity": 0.28346456692913385
        },
        {
          "duration": 0.08333324999999547,
          "durationTicks": 96,
          "midi": 74,
          "name": "D5",
          "ticks": 130365,
          "time": 113.1639493359375,
          "velocity": 0.31496062992125984
        },
        {
          "duration": 0.08333324999999547,
          "durationTicks": 96,
          "midi": 74,
          "name": "D5",
          "ticks": 130365,
          "time": 113.1639493359375,
          "velocity": 0.29133858267716534
        },
        {
          "duration": 0.08333324999999547,
          "durationTicks": 96,
          "midi": 38,
          "name": "D2",
          "ticks": 130365,
          "time": 113.1639493359375,
          "velocity": 0.2992125984251969
        },
        {
          "duration": 0.08333324999999547,
          "durationTicks": 96,
          "midi": 86,
          "name": "D6",
          "ticks": 130365,
          "time": 113.1639493359375,
          "velocity": 0.29133858267716534
        },
        {
          "duration": 0.08333324999999547,
          "durationTicks": 96,
          "midi": 89,
          "name": "F6",
          "ticks": 130365,
          "time": 113.1639493359375,
          "velocity": 0.1732283464566929
        },
        {
          "duration": 0.04166662500000484,
          "durationTicks": 48,
          "midi": 26,
          "name": "D1",
          "ticks": 130461,
          "time": 113.2472825859375,
          "velocity": 0.25196850393700787
        },
        {
          "duration": 0.16666650000000516,
          "durationTicks": 192,
          "midi": 76,
          "name": "E5",
          "ticks": 130557,
          "time": 113.3306158359375,
          "velocity": 0.31496062992125984
        },
        {
          "duration": 0.16666650000000516,
          "durationTicks": 192,
          "midi": 76,
          "name": "E5",
          "ticks": 130557,
          "time": 113.3306158359375,
          "velocity": 0.29133858267716534
        },
        {
          "duration": 0.16666650000000516,
          "durationTicks": 192,
          "midi": 28,
          "name": "E1",
          "ticks": 130557,
          "time": 113.3306158359375,
          "velocity": 0.31496062992125984
        },
        {
          "duration": 0.08333325000000968,
          "durationTicks": 96,
          "midi": 88,
          "name": "E6",
          "ticks": 130557,
          "time": 113.3306158359375,
          "velocity": 0.29133858267716534
        },
        {
          "duration": 0.16666650000000516,
          "durationTicks": 192,
          "midi": 88,
          "name": "E6",
          "ticks": 130557,
          "time": 113.3306158359375,
          "velocity": 0.1732283464566929
        },
        {
          "duration": 0.04166662500000484,
          "durationTicks": 48,
          "midi": 52,
          "name": "E3",
          "ticks": 130749,
          "time": 113.4972823359375,
          "velocity": 0.28346456692913385
        },
        {
          "duration": 0.04166662500000484,
          "durationTicks": 48,
          "midi": 62,
          "name": "D4",
          "ticks": 130749,
          "time": 113.4972823359375,
          "velocity": 0.28346456692913385
        },
        {
          "duration": 0.04166662500000484,
          "durationTicks": 48,
          "midi": 56,
          "name": "G#3",
          "ticks": 130749,
          "time": 113.4972823359375,
          "velocity": 0.28346456692913385
        },
        {
          "duration": 0.04166662500000484,
          "durationTicks": 48,
          "midi": 59,
          "name": "B3",
          "ticks": 130749,
          "time": 113.4972823359375,
          "velocity": 0.28346456692913385
        },
        {
          "duration": 0.08333324999999547,
          "durationTicks": 96,
          "midi": 75,
          "name": "D#5",
          "ticks": 130749,
          "time": 113.4972823359375,
          "velocity": 0.31496062992125984
        },
        {
          "duration": 0.08333324999999547,
          "durationTicks": 96,
          "midi": 75,
          "name": "D#5",
          "ticks": 130749,
          "time": 113.4972823359375,
          "velocity": 0.29133858267716534
        },
        {
          "duration": 0.08333324999999547,
          "durationTicks": 96,
          "midi": 40,
          "name": "E2",
          "ticks": 130749,
          "time": 113.4972823359375,
          "velocity": 0.2992125984251969
        },
        {
          "duration": 0.08333324999999547,
          "durationTicks": 96,
          "midi": 87,
          "name": "D#6",
          "ticks": 130749,
          "time": 113.4972823359375,
          "velocity": 0.29133858267716534
        },
        {
          "duration": 0.08333324999999547,
          "durationTicks": 96,
          "midi": 87,
          "name": "D#6",
          "ticks": 130749,
          "time": 113.4972823359375,
          "velocity": 0.1732283464566929
        },
        {
          "duration": 0.08333324999999547,
          "durationTicks": 96,
          "midi": 76,
          "name": "E5",
          "ticks": 130941,
          "time": 113.6639488359375,
          "velocity": 0.31496062992125984
        },
        {
          "duration": 0.08333324999999547,
          "durationTicks": 96,
          "midi": 76,
          "name": "E5",
          "ticks": 130941,
          "time": 113.6639488359375,
          "velocity": 0.29133858267716534
        },
        {
          "duration": 0.16666649999999095,
          "durationTicks": 192,
          "midi": 28,
          "name": "E1",
          "ticks": 130941,
          "time": 113.6639488359375,
          "velocity": 0.31496062992125984
        },
        {
          "duration": 0.16666649999999095,
          "durationTicks": 192,
          "midi": 40,
          "name": "E2",
          "ticks": 130941,
          "time": 113.6639488359375,
          "velocity": 0.29133858267716534
        },
        {
          "duration": 0.08333324999999547,
          "durationTicks": 96,
          "midi": 88,
          "name": "E6",
          "ticks": 130941,
          "time": 113.6639488359375,
          "velocity": 0.29133858267716534
        },
        {
          "duration": 0.08333324999999547,
          "durationTicks": 96,
          "midi": 86,
          "name": "D6",
          "ticks": 130941,
          "time": 113.6639488359375,
          "velocity": 0.1732283464566929
        },
        {
          "duration": 0.04166662500000484,
          "durationTicks": 48,
          "midi": 52,
          "name": "E3",
          "ticks": 131133,
          "time": 113.8306153359375,
          "velocity": 0.28346456692913385
        },
        {
          "duration": 0.04166662500000484,
          "durationTicks": 48,
          "midi": 62,
          "name": "D4",
          "ticks": 131133,
          "time": 113.8306153359375,
          "velocity": 0.28346456692913385
        },
        {
          "duration": 0.04166662500000484,
          "durationTicks": 48,
          "midi": 59,
          "name": "B3",
          "ticks": 131133,
          "time": 113.8306153359375,
          "velocity": 0.28346456692913385
        },
        {
          "duration": 0.04166662500000484,
          "durationTicks": 48,
          "midi": 56,
          "name": "G#3",
          "ticks": 131133,
          "time": 113.8306153359375,
          "velocity": 0.28346456692913385
        },
        {
          "duration": 0.08333324999999547,
          "durationTicks": 96,
          "midi": 77,
          "name": "F5",
          "ticks": 131133,
          "time": 113.8306153359375,
          "velocity": 0.31496062992125984
        },
        {
          "duration": 0.08333324999999547,
          "durationTicks": 96,
          "midi": 77,
          "name": "F5",
          "ticks": 131133,
          "time": 113.8306153359375,
          "velocity": 0.29133858267716534
        },
        {
          "duration": 0.08333324999999547,
          "durationTicks": 96,
          "midi": 40,
          "name": "E2",
          "ticks": 131133,
          "time": 113.8306153359375,
          "velocity": 0.2992125984251969
        },
        {
          "duration": 0.08333324999999547,
          "durationTicks": 96,
          "midi": 89,
          "name": "F6",
          "ticks": 131133,
          "time": 113.8306153359375,
          "velocity": 0.29133858267716534
        },
        {
          "duration": 0.08333324999999547,
          "durationTicks": 96,
          "midi": 85,
          "name": "C#6",
          "ticks": 131133,
          "time": 113.8306153359375,
          "velocity": 0.1732283464566929
        },
        {
          "duration": 0.04166662500000484,
          "durationTicks": 48,
          "midi": 28,
          "name": "E1",
          "ticks": 131229,
          "time": 113.91394858593749,
          "velocity": 0.25196850393700787
        },
        {
          "duration": 0.08333324999999547,
          "durationTicks": 96,
          "midi": 76,
          "name": "E5",
          "ticks": 131325,
          "time": 113.9972818359375,
          "velocity": 0.31496062992125984
        },
        {
          "duration": 0.08333324999999547,
          "durationTicks": 96,
          "midi": 76,
          "name": "E5",
          "ticks": 131325,
          "time": 113.9972818359375,
          "velocity": 0.29133858267716534
        },
        {
          "duration": 0.16666649999999095,
          "durationTicks": 192,
          "midi": 28,
          "name": "E1",
          "ticks": 131325,
          "time": 113.9972818359375,
          "velocity": 0.31496062992125984
        },
        {
          "duration": 0.08333324999999547,
          "durationTicks": 96,
          "midi": 88,
          "name": "E6",
          "ticks": 131325,
          "time": 113.9972818359375,
          "velocity": 0.29133858267716534
        },
        {
          "duration": 0.08333324999999547,
          "durationTicks": 96,
          "midi": 84,
          "name": "C6",
          "ticks": 131325,
          "time": 113.9972818359375,
          "velocity": 0.1732283464566929
        },
        {
          "duration": 0.04166662500000484,
          "durationTicks": 48,
          "midi": 52,
          "name": "E3",
          "ticks": 131517,
          "time": 114.16394833593749,
          "velocity": 0.28346456692913385
        },
        {
          "duration": 0.04166662500000484,
          "durationTicks": 48,
          "midi": 62,
          "name": "D4",
          "ticks": 131517,
          "time": 114.16394833593749,
          "velocity": 0.28346456692913385
        },
        {
          "duration": 0.04166662500000484,
          "durationTicks": 48,
          "midi": 59,
          "name": "B3",
          "ticks": 131517,
          "time": 114.16394833593749,
          "velocity": 0.28346456692913385
        },
        {
          "duration": 0.04166662500000484,
          "durationTicks": 48,
          "midi": 56,
          "name": "G#3",
          "ticks": 131517,
          "time": 114.16394833593749,
          "velocity": 0.28346456692913385
        },
        {
          "duration": 0.08333325000000968,
          "durationTicks": 96,
          "midi": 74,
          "name": "D5",
          "ticks": 131517,
          "time": 114.16394833593749,
          "velocity": 0.31496062992125984
        },
        {
          "duration": 0.08333325000000968,
          "durationTicks": 96,
          "midi": 74,
          "name": "D5",
          "ticks": 131517,
          "time": 114.16394833593749,
          "velocity": 0.29133858267716534
        },
        {
          "duration": 0.08333325000000968,
          "durationTicks": 96,
          "midi": 40,
          "name": "E2",
          "ticks": 131517,
          "time": 114.16394833593749,
          "velocity": 0.2992125984251969
        },
        {
          "duration": 0.08333325000000968,
          "durationTicks": 96,
          "midi": 86,
          "name": "D6",
          "ticks": 131517,
          "time": 114.16394833593749,
          "velocity": 0.29133858267716534
        },
        {
          "duration": 0.08333325000000968,
          "durationTicks": 96,
          "midi": 83,
          "name": "B5",
          "ticks": 131517,
          "time": 114.16394833593749,
          "velocity": 0.1732283464566929
        },
        {
          "duration": 0.08333324999999547,
          "durationTicks": 96,
          "midi": 72,
          "name": "C5",
          "ticks": 131709,
          "time": 114.3306148359375,
          "velocity": 0.31496062992125984
        },
        {
          "duration": 0.08333324999999547,
          "durationTicks": 96,
          "midi": 72,
          "name": "C5",
          "ticks": 131709,
          "time": 114.3306148359375,
          "velocity": 0.29133858267716534
        },
        {
          "duration": 0.16666650000000516,
          "durationTicks": 192,
          "midi": 28,
          "name": "E1",
          "ticks": 131709,
          "time": 114.3306148359375,
          "velocity": 0.31496062992125984
        },
        {
          "duration": 0.16666650000000516,
          "durationTicks": 192,
          "midi": 40,
          "name": "E2",
          "ticks": 131709,
          "time": 114.3306148359375,
          "velocity": 0.29133858267716534
        },
        {
          "duration": 0.08333324999999547,
          "durationTicks": 96,
          "midi": 84,
          "name": "C6",
          "ticks": 131709,
          "time": 114.3306148359375,
          "velocity": 0.29133858267716534
        },
        {
          "duration": 0.08333324999999547,
          "durationTicks": 96,
          "midi": 82,
          "name": "A#5",
          "ticks": 131709,
          "time": 114.3306148359375,
          "velocity": 0.1732283464566929
        },
        {
          "duration": 0.04166662499999063,
          "durationTicks": 48,
          "midi": 52,
          "name": "E3",
          "ticks": 131901,
          "time": 114.4972813359375,
          "velocity": 0.28346456692913385
        },
        {
          "duration": 0.04166662499999063,
          "durationTicks": 48,
          "midi": 62,
          "name": "D4",
          "ticks": 131901,
          "time": 114.4972813359375,
          "velocity": 0.28346456692913385
        },
        {
          "duration": 0.04166662499999063,
          "durationTicks": 48,
          "midi": 59,
          "name": "B3",
          "ticks": 131901,
          "time": 114.4972813359375,
          "velocity": 0.28346456692913385
        },
        {
          "duration": 0.04166662499999063,
          "durationTicks": 48,
          "midi": 56,
          "name": "G#3",
          "ticks": 131901,
          "time": 114.4972813359375,
          "velocity": 0.28346456692913385
        },
        {
          "duration": 0.08333324999999547,
          "durationTicks": 96,
          "midi": 71,
          "name": "B4",
          "ticks": 131901,
          "time": 114.4972813359375,
          "velocity": 0.31496062992125984
        },
        {
          "duration": 0.08333324999999547,
          "durationTicks": 96,
          "midi": 71,
          "name": "B4",
          "ticks": 131901,
          "time": 114.4972813359375,
          "velocity": 0.29133858267716534
        },
        {
          "duration": 0.08333324999999547,
          "durationTicks": 96,
          "midi": 40,
          "name": "E2",
          "ticks": 131901,
          "time": 114.4972813359375,
          "velocity": 0.2992125984251969
        },
        {
          "duration": 0.08333324999999547,
          "durationTicks": 96,
          "midi": 83,
          "name": "B5",
          "ticks": 131901,
          "time": 114.4972813359375,
          "velocity": 0.29133858267716534
        },
        {
          "duration": 0.08333324999999547,
          "durationTicks": 96,
          "midi": 83,
          "name": "B5",
          "ticks": 131901,
          "time": 114.4972813359375,
          "velocity": 0.1732283464566929
        },
        {
          "duration": 0.04166662500000484,
          "durationTicks": 48,
          "midi": 28,
          "name": "E1",
          "ticks": 131997,
          "time": 114.5806145859375,
          "velocity": 0.25196850393700787
        },
        {
          "duration": 0.16666650000000516,
          "durationTicks": 192,
          "midi": 52,
          "name": "E3",
          "ticks": 132093,
          "time": 114.66394783593749,
          "velocity": 0.28346456692913385
        },
        {
          "duration": 0.16666650000000516,
          "durationTicks": 192,
          "midi": 57,
          "name": "A3",
          "ticks": 132093,
          "time": 114.66394783593749,
          "velocity": 0.28346456692913385
        },
        {
          "duration": 0.3333330000000103,
          "durationTicks": 384,
          "midi": 69,
          "name": "A4",
          "ticks": 132093,
          "time": 114.66394783593749,
          "velocity": 0.31496062992125984
        },
        {
          "duration": 0.3333330000000103,
          "durationTicks": 384,
          "midi": 69,
          "name": "A4",
          "ticks": 132093,
          "time": 114.66394783593749,
          "velocity": 0.29133858267716534
        },
        {
          "duration": 0.08333325000000968,
          "durationTicks": 96,
          "midi": 45,
          "name": "A2",
          "ticks": 132093,
          "time": 114.66394783593749,
          "velocity": 0.2992125984251969
        },
        {
          "duration": 0.16666650000000516,
          "durationTicks": 192,
          "midi": 33,
          "name": "A1",
          "ticks": 132093,
          "time": 114.66394783593749,
          "velocity": 0.31496062992125984
        },
        {
          "duration": 0.3333330000000103,
          "durationTicks": 384,
          "midi": 81,
          "name": "A5",
          "ticks": 132093,
          "time": 114.66394783593749,
          "velocity": 0.29133858267716534
        },
        {
          "duration": 0.08333324999999547,
          "durationTicks": 96,
          "midi": 44,
          "name": "G#2",
          "ticks": 132141,
          "time": 114.7056144609375,
          "velocity": 0.2677165354330709
        },
        {
          "duration": 0.08333324999999547,
          "durationTicks": 96,
          "midi": 43,
          "name": "G2",
          "ticks": 132189,
          "time": 114.7472810859375,
          "velocity": 0.2440944881889764
        },
        {
          "duration": 0.08333325000000968,
          "durationTicks": 96,
          "midi": 42,
          "name": "F#2",
          "ticks": 132237,
          "time": 114.78894771093749,
          "velocity": 0.2204724409448819
        },
        {
          "duration": 0.08333324999999547,
          "durationTicks": 96,
          "midi": 41,
          "name": "F2",
          "ticks": 132285,
          "time": 114.8306143359375,
          "velocity": 0.1968503937007874
        },
        {
          "duration": 0.08333324999999547,
          "durationTicks": 96,
          "midi": 40,
          "name": "E2",
          "ticks": 132333,
          "time": 114.8722809609375,
          "velocity": 0.18110236220472442
        },
        {
          "duration": 0.08333325000000968,
          "durationTicks": 96,
          "midi": 39,
          "name": "D#2",
          "ticks": 132381,
          "time": 114.91394758593749,
          "velocity": 0.15748031496062992
        },
        {
          "duration": 0.08333324999999547,
          "durationTicks": 96,
          "midi": 38,
          "name": "D2",
          "ticks": 132429,
          "time": 114.9556142109375,
          "velocity": 0.13385826771653545
        },
        {
          "duration": 0.03472218749999456,
          "durationTicks": 40,
          "midi": 75,
          "name": "D#5",
          "ticks": 132477,
          "time": 114.9972808359375,
          "velocity": 0.2992125984251969
        },
        {
          "duration": 0.08333324999999547,
          "durationTicks": 96,
          "midi": 81,
          "name": "A5",
          "ticks": 132477,
          "time": 114.9972808359375,
          "velocity": 0.30708661417322836
        },
        {
          "duration": 0.08333324999999547,
          "durationTicks": 96,
          "midi": 37,
          "name": "C#2",
          "ticks": 132477,
          "time": 114.9972808359375,
          "velocity": 0.11023622047244094
        },
        {
          "duration": 0.08333324999999547,
          "durationTicks": 96,
          "midi": 76,
          "name": "E5",
          "ticks": 132505,
          "time": 115.02158636718751,
          "velocity": 0.2992125984251969
        },
        {
          "duration": 0.08333325000000968,
          "durationTicks": 96,
          "midi": 36,
          "name": "C2",
          "ticks": 132525,
          "time": 115.0389474609375,
          "velocity": 0.07874015748031496
        },
        {
          "duration": 0.08333324999999547,
          "durationTicks": 96,
          "midi": 35,
          "name": "B1",
          "ticks": 132573,
          "time": 115.0806140859375,
          "velocity": 0.06299212598425197
        },
        {
          "duration": 0.08333324999999547,
          "durationTicks": 96,
          "midi": 34,
          "name": "A#1",
          "ticks": 132621,
          "time": 115.1222807109375,
          "velocity": 0.03937007874015748
        },
        {
          "duration": 0.08333325000000968,
          "durationTicks": 96,
          "midi": 72,
          "name": "C5",
          "ticks": 132669,
          "time": 115.1639473359375,
          "velocity": 0.2992125984251969
        },
        {
          "duration": 0.08333325000000968,
          "durationTicks": 96,
          "midi": 33,
          "name": "A1",
          "ticks": 132669,
          "time": 115.1639473359375,
          "velocity": 0.023622047244094488
        },
        {
          "duration": 0.16666650000000516,
          "durationTicks": 192,
          "midi": 45,
          "name": "A2",
          "ticks": 132669,
          "time": 115.1639473359375,
          "velocity": 0.29133858267716534
        },
        {
          "duration": 0.16666650000000516,
          "durationTicks": 192,
          "midi": 45,
          "name": "A2",
          "ticks": 132669,
          "time": 115.1639473359375,
          "velocity": 0.29133858267716534
        },
        {
          "duration": 0.04166662500000484,
          "durationTicks": 48,
          "midi": 74,
          "name": "D5",
          "ticks": 132861,
          "time": 115.3306138359375,
          "velocity": 0.2992125984251969
        },
        {
          "duration": 0.08333324999999547,
          "durationTicks": 96,
          "midi": 81,
          "name": "A5",
          "ticks": 132861,
          "time": 115.3306138359375,
          "velocity": 0.30708661417322836
        },
        {
          "duration": 0.08333324999999547,
          "durationTicks": 96,
          "midi": 75,
          "name": "D#5",
          "ticks": 132901,
          "time": 115.36533602343751,
          "velocity": 0.2992125984251969
        },
        {
          "duration": 0.08333324999999547,
          "durationTicks": 96,
          "midi": 72,
          "name": "C5",
          "ticks": 133053,
          "time": 115.4972803359375,
          "velocity": 0.2992125984251969
        },
        {
          "duration": 0.08333324999999547,
          "durationTicks": 96,
          "midi": 33,
          "name": "A1",
          "ticks": 133053,
          "time": 115.4972803359375,
          "velocity": 0.29133858267716534
        },
        {
          "duration": 0.08333324999999547,
          "durationTicks": 96,
          "midi": 33,
          "name": "A1",
          "ticks": 133053,
          "time": 115.4972803359375,
          "velocity": 0.29133858267716534
        },
        {
          "duration": 0.04166662500000484,
          "durationTicks": 48,
          "midi": 67,
          "name": "G4",
          "ticks": 133245,
          "time": 115.6639468359375,
          "velocity": 0.2992125984251969
        },
        {
          "duration": 0.08333324999999547,
          "durationTicks": 96,
          "midi": 45,
          "name": "A2",
          "ticks": 133245,
          "time": 115.6639468359375,
          "velocity": 0.29133858267716534
        },
        {
          "duration": 0.08333324999999547,
          "durationTicks": 96,
          "midi": 45,
          "name": "A2",
          "ticks": 133245,
          "time": 115.6639468359375,
          "velocity": 0.29133858267716534
        },
        {
          "duration": 0.04166662500000484,
          "durationTicks": 48,
          "midi": 68,
          "name": "G#4",
          "ticks": 133265,
          "time": 115.68130792968749,
          "velocity": 0.2992125984251969
        },
        {
          "duration": 0.12499987500000032,
          "durationTicks": 144,
          "midi": 69,
          "name": "A4",
          "ticks": 133293,
          "time": 115.7056134609375,
          "velocity": 0.2992125984251969
        },
        {
          "duration": 0.08333324999999547,
          "durationTicks": 96,
          "midi": 72,
          "name": "C5",
          "ticks": 133437,
          "time": 115.8306133359375,
          "velocity": 0.2992125984251969
        },
        {
          "duration": 0.04166662499999063,
          "durationTicks": 48,
          "midi": 33,
          "name": "A1",
          "ticks": 133437,
          "time": 115.8306133359375,
          "velocity": 0.2440944881889764
        },
        {
          "duration": 0.04166662499999063,
          "durationTicks": 48,
          "midi": 33,
          "name": "A1",
          "ticks": 133437,
          "time": 115.8306133359375,
          "velocity": 0.2440944881889764
        },
        {
          "duration": 0.08333324999999547,
          "durationTicks": 96,
          "midi": 45,
          "name": "A2",
          "ticks": 133533,
          "time": 115.9139465859375,
          "velocity": 0.29133858267716534
        },
        {
          "duration": 0.08333324999999547,
          "durationTicks": 96,
          "midi": 45,
          "name": "A2",
          "ticks": 133533,
          "time": 115.9139465859375,
          "velocity": 0.29133858267716534
        },
        {
          "duration": 0.03472218750000877,
          "durationTicks": 40,
          "midi": 75,
          "name": "D#5",
          "ticks": 133629,
          "time": 115.99727983593749,
          "velocity": 0.2992125984251969
        },
        {
          "duration": 0.08333325000000968,
          "durationTicks": 96,
          "midi": 81,
          "name": "A5",
          "ticks": 133629,
          "time": 115.99727983593749,
          "velocity": 0.30708661417322836
        },
        {
          "duration": 0.08333325000000968,
          "durationTicks": 96,
          "midi": 76,
          "name": "E5",
          "ticks": 133657,
          "time": 116.0215853671875,
          "velocity": 0.2992125984251969
        },
        {
          "duration": 0.08333324999999547,
          "durationTicks": 96,
          "midi": 45,
          "name": "A2",
          "ticks": 133725,
          "time": 116.0806130859375,
          "velocity": 0.29133858267716534
        },
        {
          "duration": 0.08333324999999547,
          "durationTicks": 96,
          "midi": 45,
          "name": "A2",
          "ticks": 133725,
          "time": 116.0806130859375,
          "velocity": 0.29133858267716534
        },
        {
          "duration": 0.08333324999999547,
          "durationTicks": 96,
          "midi": 72,
          "name": "C5",
          "ticks": 133821,
          "time": 116.1639463359375,
          "velocity": 0.2992125984251969
        },
        {
          "duration": 0.04166662500000484,
          "durationTicks": 48,
          "midi": 33,
          "name": "A1",
          "ticks": 133821,
          "time": 116.1639463359375,
          "velocity": 0.29133858267716534
        },
        {
          "duration": 0.04166662500000484,
          "durationTicks": 48,
          "midi": 33,
          "name": "A1",
          "ticks": 133821,
          "time": 116.1639463359375,
          "velocity": 0.29133858267716534
        },
        {
          "duration": 0.04166662499999063,
          "durationTicks": 48,
          "midi": 74,
          "name": "D5",
          "ticks": 134013,
          "time": 116.3306128359375,
          "velocity": 0.2992125984251969
        },
        {
          "duration": 0.08333324999999547,
          "durationTicks": 96,
          "midi": 81,
          "name": "A5",
          "ticks": 134013,
          "time": 116.3306128359375,
          "velocity": 0.30708661417322836
        },
        {
          "duration": 0.04166662499999063,
          "durationTicks": 48,
          "midi": 33,
          "name": "A1",
          "ticks": 134013,
          "time": 116.3306128359375,
          "velocity": 0.29133858267716534
        },
        {
          "duration": 0.04166662499999063,
          "durationTicks": 48,
          "midi": 33,
          "name": "A1",
          "ticks": 134013,
          "time": 116.3306128359375,
          "velocity": 0.29133858267716534
        },
        {
          "duration": 0.08333324999999547,
          "durationTicks": 96,
          "midi": 75,
          "name": "D#5",
          "ticks": 134041,
          "time": 116.35491836718751,
          "velocity": 0.2992125984251969
        },
        {
          "duration": 0.12499987500000032,
          "durationTicks": 144,
          "midi": 72,
          "name": "C5",
          "ticks": 134205,
          "time": 116.49727933593749,
          "velocity": 0.2992125984251969
        },
        {
          "duration": 0.16666650000000516,
          "durationTicks": 192,
          "midi": 45,
          "name": "A2",
          "ticks": 134205,
          "time": 116.49727933593749,
          "velocity": 0.29133858267716534
        },
        {
          "duration": 0.16666650000000516,
          "durationTicks": 192,
          "midi": 45,
          "name": "A2",
          "ticks": 134205,
          "time": 116.49727933593749,
          "velocity": 0.29133858267716534
        },
        {
          "duration": 0.04166662500000484,
          "durationTicks": 48,
          "midi": 45,
          "name": "A2",
          "ticks": 134397,
          "time": 116.6639458359375,
          "velocity": 0.25984251968503935
        },
        {
          "duration": 0.04166662500000484,
          "durationTicks": 48,
          "midi": 45,
          "name": "A2",
          "ticks": 134397,
          "time": 116.6639458359375,
          "velocity": 0.25984251968503935
        },
        {
          "duration": 0.08333324999999547,
          "durationTicks": 96,
          "midi": 33,
          "name": "A1",
          "ticks": 134589,
          "time": 116.8306123359375,
          "velocity": 0.29133858267716534
        },
        {
          "duration": 0.16666649999999095,
          "durationTicks": 192,
          "midi": 28,
          "name": "E1",
          "ticks": 134589,
          "time": 116.8306123359375,
          "velocity": 0.29133858267716534
        },
        {
          "duration": 0.3333330000000103,
          "durationTicks": 384,
          "midi": 28,
          "name": "E1",
          "ticks": 134781,
          "time": 116.9972788359375,
          "velocity": 0.33070866141732286
        },
        {
          "duration": 0.3333330000000103,
          "durationTicks": 384,
          "midi": 40,
          "name": "E2",
          "ticks": 134781,
          "time": 116.9972788359375,
          "velocity": 0.33070866141732286
        },
        {
          "duration": 0.2083331249999958,
          "durationTicks": 240,
          "midi": 33,
          "name": "A1",
          "ticks": 135165,
          "time": 117.3306118359375,
          "velocity": 0.33858267716535434
        },
        {
          "duration": 0.2083331249999958,
          "durationTicks": 240,
          "midi": 45,
          "name": "A2",
          "ticks": 135165,
          "time": 117.3306118359375,
          "velocity": 0.33858267716535434
        },
        {
          "duration": 0.03472218750000877,
          "durationTicks": 40,
          "midi": 75,
          "name": "D#5",
          "ticks": 135549,
          "time": 117.6639448359375,
          "velocity": 0.2992125984251969
        },
        {
          "duration": 0.08333324999999547,
          "durationTicks": 96,
          "midi": 81,
          "name": "A5",
          "ticks": 135549,
          "time": 117.6639448359375,
          "velocity": 0.30708661417322836
        },
        {
          "duration": 0.08333324999999547,
          "durationTicks": 96,
          "midi": 76,
          "name": "E5",
          "ticks": 135577,
          "time": 117.6882503671875,
          "velocity": 0.2992125984251969
        },
        {
          "duration": 0.08333325000000968,
          "durationTicks": 96,
          "midi": 72,
          "name": "C5",
          "ticks": 135741,
          "time": 117.83061133593749,
          "velocity": 0.2992125984251969
        },
        {
          "duration": 0.04166662500000484,
          "durationTicks": 48,
          "midi": 74,
          "name": "D5",
          "ticks": 135933,
          "time": 117.9972778359375,
          "velocity": 0.2992125984251969
        },
        {
          "duration": 0.08333324999999547,
          "durationTicks": 96,
          "midi": 81,
          "name": "A5",
          "ticks": 135933,
          "time": 117.9972778359375,
          "velocity": 0.30708661417322836
        },
        {
          "duration": 0.08333324999999547,
          "durationTicks": 96,
          "midi": 75,
          "name": "D#5",
          "ticks": 135973,
          "time": 118.0320000234375,
          "velocity": 0.2992125984251969
        },
        {
          "duration": 0.08333324999999547,
          "durationTicks": 96,
          "midi": 72,
          "name": "C5",
          "ticks": 136125,
          "time": 118.1639443359375,
          "velocity": 0.2992125984251969
        },
        {
          "duration": 0.04166662500000484,
          "durationTicks": 48,
          "midi": 67,
          "name": "G4",
          "ticks": 136317,
          "time": 118.33061083593749,
          "velocity": 0.2992125984251969
        },
        {
          "duration": 0.04166662500000484,
          "durationTicks": 48,
          "midi": 68,
          "name": "G#4",
          "ticks": 136337,
          "time": 118.34797192968749,
          "velocity": 0.2992125984251969
        },
        {
          "duration": 0.12499987500000032,
          "durationTicks": 144,
          "midi": 69,
          "name": "A4",
          "ticks": 136365,
          "time": 118.3722774609375,
          "velocity": 0.2992125984251969
        },
        {
          "duration": 0.08333324999999547,
          "durationTicks": 96,
          "midi": 72,
          "name": "C5",
          "ticks": 136509,
          "time": 118.4972773359375,
          "velocity": 0.2992125984251969
        },
        {
          "duration": 0.03472218749999456,
          "durationTicks": 40,
          "midi": 75,
          "name": "D#5",
          "ticks": 136701,
          "time": 118.6639438359375,
          "velocity": 0.2992125984251969
        },
        {
          "duration": 0.08333324999999547,
          "durationTicks": 96,
          "midi": 81,
          "name": "A5",
          "ticks": 136701,
          "time": 118.6639438359375,
          "velocity": 0.30708661417322836
        },
        {
          "duration": 0.08333324999999547,
          "durationTicks": 96,
          "midi": 76,
          "name": "E5",
          "ticks": 136729,
          "time": 118.68824936718751,
          "velocity": 0.2992125984251969
        },
        {
          "duration": 0.08333325000000968,
          "durationTicks": 96,
          "midi": 72,
          "name": "C5",
          "ticks": 136893,
          "time": 118.8306103359375,
          "velocity": 0.2992125984251969
        },
        {
          "duration": 0.04166662500000484,
          "durationTicks": 48,
          "midi": 74,
          "name": "D5",
          "ticks": 137085,
          "time": 118.9972768359375,
          "velocity": 0.2992125984251969
        },
        {
          "duration": 0.08333324999999547,
          "durationTicks": 96,
          "midi": 81,
          "name": "A5",
          "ticks": 137085,
          "time": 118.9972768359375,
          "velocity": 0.30708661417322836
        },
        {
          "duration": 0.08333324999999547,
          "durationTicks": 96,
          "midi": 75,
          "name": "D#5",
          "ticks": 137113,
          "time": 119.0215823671875,
          "velocity": 0.2992125984251969
        },
        {
          "duration": 0.12499987500000032,
          "durationTicks": 144,
          "midi": 72,
          "name": "C5",
          "ticks": 137277,
          "time": 119.1639433359375,
          "velocity": 0.2992125984251969
        }
      ],
      "endOfTrackTicks": 137421
    }
  ]
}