{"header":{"keySignatures":[],"meta":[],"name":"YO-KAI DISCO","ppq":960,"tempos":[{"bpm":500,"ticks":0},{"bpm":140.00014000014,"ticks":3840},{"bpm":150,"ticks":11520}],"timeSignatures":[]},"tracks":[{"channel":0,"controlChanges":{"10":[{"number":10,"ticks":960,"time":0.12,"value":0.7559055118110236}]},"pitchBends":[{"ticks":0,"time":0,"value":0}],"instrument":{"family":"piano","number":0,"name":"acoustic grand piano"},"name":"YO-KAI DISCO","notes":[],"endOfTrackTicks":426240},{"channel":0,"controlChanges":{"10":[{"number":10,"ticks":960,"time":0.12,"value":0.6299212598425197}]},"pitchBends":[],"instrument":{"family":"piano","number":0,"name":"acoustic grand piano"},"name":"","notes":[]},{"channel":0,"controlChanges":{"7":[{"number":7,"ticks":1920,"time":0.24,"value":0.7874015748031497}],"10":[{"number":10,"ticks":0,"time":0,"value":0.3779527559055118}]},"pitchBends":[],"instrument":{"family":"piano","number":0,"name":"acoustic grand piano"},"name":"","notes":[]},{"channel":0,"controlChanges":{"10":[{"number":10,"ticks":960,"time":0.12,"value":0.6299212598425197}]},"pitchBends":[],"instrument":{"family":"piano","number":0,"name":"acoustic grand piano"},"name":"","notes":[]},{"channel":0,"controlChanges":{"10":[{"number":10,"ticks":960,"time":0.12,"value":0.3779527559055118}]},"pitchBends":[],"instrument":{"family":"piano","number":0,"name":"acoustic grand piano"},"name":"","notes":[]},{"channel":0,"controlChanges":{"10":[{"number":10,"ticks":960,"time":0.12,"value":0.3779527559055118}]},"pitchBends":[],"instrument":{"family":"piano","number":0,"name":"acoustic grand piano"},"name":"","notes":[]},{"channel":9,"controlChanges":{"0":[{"number":0,"ticks":1920,"time":0.24,"value":1}],"7":[{"number":7,"ticks":2880,"time":0.36,"value":0.7874015748031497}],"10":[{"number":10,"ticks":960,"time":0.12,"value":0.25196850393700787}],"32":[{"number":32,"ticks":1920,"time":0.24,"value":1}]},"pitchBends":[],"instrument":{"family":"drums","number":0,"name":"standard kit"},"name":"","notes":[{"duration":0.21428550000000002,"durationTicks":480,"midi":36,"name":"C2","ticks":3840,"time":0.48,"velocity":0.7874015748031497},{"duration":0.21428550000000002,"durationTicks":480,"midi":40,"name":"E2","ticks":3840,"time":0.48,"velocity":0.7874015748031497},{"duration":0.2142854999999999,"durationTicks":480,"midi":36,"name":"C2","ticks":5760,"time":1.337142,"velocity":0.7874015748031497},{"duration":0.2142854999999999,"durationTicks":480,"midi":40,"name":"E2","ticks":5760,"time":1.337142,"velocity":0.7874015748031497},{"duration":0.19999999999999973,"durationTicks":480,"midi":36,"name":"C2","ticks":11520,"time":3.9085680000000003,"velocity":0.7874015748031497},{"duration":0.19999999999999973,"durationTicks":480,"midi":49,"name":"C#3","ticks":11520,"time":3.9085680000000003,"velocity":0.7874015748031497},{"duration":0.20000000000000018,"durationTicks":480,"midi":44,"name":"G#2","ticks":12000,"time":4.108568,"velocity":0.7874015748031497},{"duration":0.20000000000000018,"durationTicks":480,"midi":40,"name":"E2","ticks":12480,"time":4.308568,"velocity":0.7874015748031497},{"duration":0.20000000000000018,"durationTicks":480,"midi":46,"name":"A#2","ticks":12480,"time":4.308568,"velocity":0.7874015748031497},{"duration":0.10000000000000053,"durationTicks":240,"midi":69,"name":"A4","ticks":12480,"time":4.308568,"velocity":0.7874015748031497},{"duration":0.09999999999999964,"durationTicks":240,"midi":44,"name":"G#2","ticks":12960,"time":4.508568,"velocity":0.7874015748031497},{"duration":0.10000000000000053,"durationTicks":240,"midi":44,"name":"G#2","ticks":13200,"time":4.608568,"velocity":0.7874015748031497},{"duration":0.20000000000000018,"durationTicks":480,"midi":36,"name":"C2","ticks":13440,"time":4.7085680000000005,"velocity":0.7874015748031497},{"duration":0.1999999999999993,"durationTicks":480,"midi":44,"name":"G#2","ticks":13920,"time":4.908568000000001,"velocity":0.7874015748031497},{"duration":0.10000000000000053,"durationTicks":240,"midi":69,"name":"A4","ticks":14400,"time":5.108568,"velocity":0.7874015748031497},{"duration":0.20000000000000018,"durationTicks":480,"midi":40,"name":"E2","ticks":14400,"time":5.108568,"velocity":0.7874015748031497},{"duration":0.20000000000000018,"durationTicks":480,"midi":46,"name":"A#2","ticks":14400,"time":5.108568,"velocity":0.7874015748031497},{"duration":0.10000000000000053,"durationTicks":240,"midi":44,"name":"G#2","ticks":14880,"time":5.308568,"velocity":0.7874015748031497},{"duration":0.09999999999999964,"durationTicks":240,"midi":44,"name":"G#2","ticks":15120,"time":5.408568000000001,"velocity":0.7874015748031497},{"duration":0.20000000000000018,"durationTicks":480,"midi":36,"name":"C2","ticks":15360,"time":5.508568,"velocity":0.7874015748031497},{"duration":0.20000000000000018,"durationTicks":480,"midi":44,"name":"G#2","ticks":15840,"time":5.7085680000000005,"velocity":0.7874015748031497},{"duration":0.1999999999999993,"durationTicks":480,"midi":40,"name":"E2","ticks":16320,"time":5.908568000000001,"velocity":0.7874015748031497},{"duration":0.1999999999999993,"durationTicks":480,"midi":46,"name":"A#2","ticks":16320,"time":5.908568000000001,"velocity":0.7874015748031497},{"duration":0.09999999999999964,"durationTicks":240,"midi":69,"name":"A4","ticks":16320,"time":5.908568000000001,"velocity":0.7874015748031497},{"duration":0.10000000000000053,"durationTicks":240,"midi":44,"name":"G#2","ticks":16800,"time":6.108568,"velocity":0.7874015748031497},{"duration":0.10000000000000053,"durationTicks":240,"midi":44,"name":"G#2","ticks":17040,"time":6.2085680000000005,"velocity":0.7874015748031497},{"duration":0.1999999999999993,"durationTicks":480,"midi":36,"name":"C2","ticks":17280,"time":6.308568000000001,"velocity":0.7874015748031497},{"duration":0.20000000000000018,"durationTicks":480,"midi":44,"name":"G#2","ticks":17760,"time":6.508568,"velocity":0.7874015748031497},{"duration":0.20000000000000018,"durationTicks":480,"midi":55,"name":"G3","ticks":17760,"time":6.508568,"velocity":0.7874015748031497},{"duration":0.20000000000000018,"durationTicks":480,"midi":40,"name":"E2","ticks":18240,"time":6.7085680000000005,"velocity":0.7874015748031497},{"duration":0.20000000000000018,"durationTicks":480,"midi":46,"name":"A#2","ticks":18240,"time":6.7085680000000005,"velocity":0.7874015748031497},{"duration":0.10000000000000053,"durationTicks":240,"midi":69,"name":"A4","ticks":18240,"time":6.7085680000000005,"velocity":0.7874015748031497},{"duration":0.09999999999999964,"durationTicks":240,"midi":44,"name":"G#2","ticks":18720,"time":6.908568000000001,"velocity":0.7874015748031497},{"duration":0.09999999999999964,"durationTicks":240,"midi":44,"name":"G#2","ticks":18960,"time":7.008568,"velocity":0.7874015748031497},{"duration":0.20000000000000107,"durationTicks":480,"midi":36,"name":"C2","ticks":19200,"time":7.108568,"velocity":0.7874015748031497},{"duration":0.20000000000000107,"durationTicks":480,"midi":49,"name":"C#3","ticks":19200,"time":7.108568,"velocity":0.7874015748031497},{"duration":0.1999999999999993,"durationTicks":480,"midi":44,"name":"G#2","ticks":19680,"time":7.308568000000001,"velocity":0.7874015748031497},{"duration":0.20000000000000018,"durationTicks":480,"midi":40,"name":"E2","ticks":20160,"time":7.508568,"velocity":0.7874015748031497},{"duration":0.20000000000000018,"durationTicks":480,"midi":46,"name":"A#2","ticks":20160,"time":7.508568,"velocity":0.7874015748031497},{"duration":0.09999999999999964,"durationTicks":240,"midi":69,"name":"A4","ticks":20160,"time":7.508568,"velocity":0.7874015748031497},{"duration":0.10000000000000053,"durationTicks":240,"midi":44,"name":"G#2","ticks":20640,"time":7.7085680000000005,"velocity":0.7874015748031497},{"duration":0.09999999999999964,"durationTicks":240,"midi":44,"name":"G#2","ticks":20880,"time":7.808568000000001,"velocity":0.7874015748031497},{"duration":0.1999999999999993,"durationTicks":480,"midi":36,"name":"C2","ticks":21120,"time":7.908568000000001,"velocity":0.7874015748031497},{"duration":0.20000000000000107,"durationTicks":480,"midi":44,"name":"G#2","ticks":21600,"time":8.108568,"velocity":0.7874015748031497},{"duration":0.09999999999999964,"durationTicks":240,"midi":69,"name":"A4","ticks":22080,"time":8.308568000000001,"velocity":0.7874015748031497},{"duration":0.1999999999999993,"durationTicks":480,"midi":40,"name":"E2","ticks":22080,"time":8.308568000000001,"velocity":0.7874015748031497},{"duration":0.1999999999999993,"durationTicks":480,"midi":46,"name":"A#2","ticks":22080,"time":8.308568000000001,"velocity":0.7874015748031497},{"duration":0.09999999999999964,"durationTicks":240,"midi":44,"name":"G#2","ticks":22560,"time":8.508568,"velocity":0.7874015748031497},{"duration":0.10000000000000142,"durationTicks":240,"midi":44,"name":"G#2","ticks":22800,"time":8.608568,"velocity":0.7874015748031497},{"duration":0.1999999999999993,"durationTicks":480,"midi":36,"name":"C2","ticks":23040,"time":8.708568000000001,"velocity":0.7874015748031497},{"duration":0.1999999999999993,"durationTicks":480,"midi":44,"name":"G#2","ticks":23520,"time":8.908568,"velocity":0.7874015748031497},{"duration":0.20000000000000107,"durationTicks":480,"midi":40,"name":"E2","ticks":24000,"time":9.108568,"velocity":0.7874015748031497},{"duration":0.20000000000000107,"durationTicks":480,"midi":46,"name":"A#2","ticks":24000,"time":9.108568,"velocity":0.7874015748031497},{"duration":0.10000000000000142,"durationTicks":240,"midi":69,"name":"A4","ticks":24000,"time":9.108568,"velocity":0.7874015748031497},{"duration":0.09999999999999964,"durationTicks":240,"midi":44,"name":"G#2","ticks":24480,"time":9.308568000000001,"velocity":0.7874015748031497},{"duration":0.09999999999999964,"durationTicks":240,"midi":44,"name":"G#2","ticks":24720,"time":9.408568,"velocity":0.7874015748031497},{"duration":0.20000000000000107,"durationTicks":480,"midi":36,"name":"C2","ticks":24960,"time":9.508568,"velocity":0.7874015748031497},{"duration":0.1999999999999993,"durationTicks":480,"midi":44,"name":"G#2","ticks":25440,"time":9.708568000000001,"velocity":0.7874015748031497},{"duration":0.1999999999999993,"durationTicks":480,"midi":55,"name":"G3","ticks":25440,"time":9.708568000000001,"velocity":0.7874015748031497},{"duration":0.1999999999999993,"durationTicks":480,"midi":40,"name":"E2","ticks":25920,"time":9.908568,"velocity":0.7874015748031497},{"duration":0.1999999999999993,"durationTicks":480,"midi":46,"name":"A#2","ticks":25920,"time":9.908568,"velocity":0.7874015748031497},{"duration":0.09999999999999964,"durationTicks":240,"midi":69,"name":"A4","ticks":25920,"time":9.908568,"velocity":0.7874015748031497},{"duration":0.10000000000000142,"durationTicks":240,"midi":44,"name":"G#2","ticks":26400,"time":10.108568,"velocity":0.7874015748031497},{"duration":0.09999999999999964,"durationTicks":240,"midi":44,"name":"G#2","ticks":26640,"time":10.208568000000001,"velocity":0.7874015748031497},{"duration":0.1999999999999993,"durationTicks":480,"midi":36,"name":"C2","ticks":26880,"time":10.308568000000001,"velocity":0.7874015748031497},{"duration":0.1999999999999993,"durationTicks":480,"midi":49,"name":"C#3","ticks":26880,"time":10.308568000000001,"velocity":0.7874015748031497},{"duration":0.20000000000000107,"durationTicks":480,"midi":44,"name":"G#2","ticks":27360,"time":10.508568,"velocity":0.7874015748031497},{"duration":0.1999999999999993,"durationTicks":480,"midi":40,"name":"E2","ticks":27840,"time":10.708568000000001,"velocity":0.7874015748031497},{"duration":0.1999999999999993,"durationTicks":480,"midi":46,"name":"A#2","ticks":27840,"time":10.708568000000001,"velocity":0.7874015748031497},{"duration":0.09999999999999964,"durationTicks":240,"midi":69,"name":"A4","ticks":27840,"time":10.708568000000001,"velocity":0.7874015748031497},{"duration":0.09999999999999964,"durationTicks":240,"midi":44,"name":"G#2","ticks":28320,"time":10.908568,"velocity":0.7874015748031497},{"duration":0.09999999999999964,"durationTicks":240,"midi":44,"name":"G#2","ticks":28560,"time":11.008568,"velocity":0.7874015748031497},{"duration":0.20000000000000107,"durationTicks":480,"midi":36,"name":"C2","ticks":28800,"time":11.108568,"velocity":0.7874015748031497},{"duration":0.1999999999999993,"durationTicks":480,"midi":44,"name":"G#2","ticks":29280,"time":11.308568000000001,"velocity":0.7874015748031497},{"duration":0.09999999999999964,"durationTicks":240,"midi":69,"name":"A4","ticks":29760,"time":11.508568,"velocity":0.7874015748031497},{"duration":0.20000000000000107,"durationTicks":480,"midi":40,"name":"E2","ticks":29760,"time":11.508568,"velocity":0.7874015748031497},{"duration":0.20000000000000107,"durationTicks":480,"midi":46,"name":"A#2","ticks":29760,"time":11.508568,"velocity":0.7874015748031497},{"duration":0.09999999999999964,"durationTicks":240,"midi":44,"name":"G#2","ticks":30240,"time":11.708568000000001,"velocity":0.7874015748031497},{"duration":0.09999999999999964,"durationTicks":240,"midi":44,"name":"G#2","ticks":30480,"time":11.808568000000001,"velocity":0.7874015748031497},{"duration":0.20000000000000107,"durationTicks":480,"midi":36,"name":"C2","ticks":30720,"time":11.908568,"velocity":0.7874015748031497},{"duration":0.1999999999999993,"durationTicks":480,"midi":44,"name":"G#2","ticks":31200,"time":12.108568000000002,"velocity":0.7874015748031497},{"duration":0.1999999999999993,"durationTicks":480,"midi":40,"name":"E2","ticks":31680,"time":12.308568000000001,"velocity":0.7874015748031497},{"duration":0.1999999999999993,"durationTicks":480,"midi":46,"name":"A#2","ticks":31680,"time":12.308568000000001,"velocity":0.7874015748031497},{"duration":0.09999999999999964,"durationTicks":240,"midi":69,"name":"A4","ticks":31680,"time":12.308568000000001,"velocity":0.7874015748031497},{"duration":0.10000000000000142,"durationTicks":240,"midi":44,"name":"G#2","ticks":32160,"time":12.508568,"velocity":0.7874015748031497},{"duration":0.09999999999999964,"durationTicks":240,"midi":44,"name":"G#2","ticks":32400,"time":12.608568000000002,"velocity":0.7874015748031497},{"duration":0.1999999999999993,"durationTicks":480,"midi":36,"name":"C2","ticks":32640,"time":12.708568000000001,"velocity":0.7874015748031497},{"duration":0.20000000000000107,"durationTicks":480,"midi":44,"name":"G#2","ticks":33120,"time":12.908568,"velocity":0.7874015748031497},{"duration":0.20000000000000107,"durationTicks":480,"midi":55,"name":"G3","ticks":33120,"time":12.908568,"velocity":0.7874015748031497},{"duration":0.1999999999999993,"durationTicks":480,"midi":40,"name":"E2","ticks":33600,"time":13.108568000000002,"velocity":0.7874015748031497},{"duration":0.1999999999999993,"durationTicks":480,"midi":46,"name":"A#2","ticks":33600,"time":13.108568000000002,"velocity":0.7874015748031497},{"duration":0.09999999999999964,"durationTicks":240,"midi":69,"name":"A4","ticks":33600,"time":13.108568000000002,"velocity":0.7874015748031497},{"duration":0.09999999999999964,"durationTicks":240,"midi":44,"name":"G#2","ticks":34080,"time":13.308568000000001,"velocity":0.7874015748031497},{"duration":0.10000000000000142,"durationTicks":240,"midi":44,"name":"G#2","ticks":34320,"time":13.408568,"velocity":0.7874015748031497},{"duration":0.1999999999999993,"durationTicks":480,"midi":36,"name":"C2","ticks":34560,"time":13.508568000000002,"velocity":0.7874015748031497},{"duration":0.1999999999999993,"durationTicks":480,"midi":49,"name":"C#3","ticks":34560,"time":13.508568000000002,"velocity":0.7874015748031497},{"duration":0.1999999999999993,"durationTicks":480,"midi":44,"name":"G#2","ticks":35040,"time":13.708568000000001,"velocity":0.7874015748031497},{"duration":0.20000000000000107,"durationTicks":480,"midi":40,"name":"E2","ticks":35520,"time":13.908568,"velocity":0.7874015748031497},{"duration":0.20000000000000107,"durationTicks":480,"midi":46,"name":"A#2","ticks":35520,"time":13.908568,"velocity":0.7874015748031497},{"duration":0.10000000000000142,"durationTicks":240,"midi":69,"name":"A4","ticks":35520,"time":13.908568,"velocity":0.7874015748031497},{"duration":0.09999999999999964,"durationTicks":240,"midi":44,"name":"G#2","ticks":36000,"time":14.108568000000002,"velocity":0.7874015748031497},{"duration":0.09999999999999964,"durationTicks":240,"midi":44,"name":"G#2","ticks":36240,"time":14.208568000000001,"velocity":0.7874015748031497},{"duration":0.20000000000000107,"durationTicks":480,"midi":36,"name":"C2","ticks":36480,"time":14.308568000000001,"velocity":0.7874015748031497},{"duration":0.1999999999999993,"durationTicks":480,"midi":44,"name":"G#2","ticks":36960,"time":14.508568000000002,"velocity":0.7874015748031497},{"duration":0.09999999999999964,"durationTicks":240,"midi":69,"name":"A4","ticks":37440,"time":14.708568000000001,"velocity":0.7874015748031497},{"duration":0.1999999999999993,"durationTicks":480,"midi":40,"name":"E2","ticks":37440,"time":14.708568000000001,"velocity":0.7874015748031497},{"duration":0.1999999999999993,"durationTicks":480,"midi":46,"name":"A#2","ticks":37440,"time":14.708568000000001,"velocity":0.7874015748031497},{"duration":0.10000000000000142,"durationTicks":240,"midi":44,"name":"G#2","ticks":37920,"time":14.908568,"velocity":0.7874015748031497},{"duration":0.09999999999999964,"durationTicks":240,"midi":44,"name":"G#2","ticks":38160,"time":15.008568000000002,"velocity":0.7874015748031497},{"duration":0.1999999999999993,"durationTicks":480,"midi":36,"name":"C2","ticks":38400,"time":15.108568000000002,"velocity":0.7874015748031497},{"duration":0.20000000000000107,"durationTicks":480,"midi":44,"name":"G#2","ticks":38880,"time":15.308568000000001,"velocity":0.7874015748031497},{"duration":0.1999999999999993,"durationTicks":480,"midi":40,"name":"E2","ticks":39360,"time":15.508568000000002,"velocity":0.7874015748031497},{"duration":0.1999999999999993,"durationTicks":480,"midi":46,"name":"A#2","ticks":39360,"time":15.508568000000002,"velocity":0.7874015748031497},{"duration":0.09999999999999964,"durationTicks":240,"midi":69,"name":"A4","ticks":39360,"time":15.508568000000002,"velocity":0.7874015748031497},{"duration":0.09999999999999964,"durationTicks":240,"midi":44,"name":"G#2","ticks":39840,"time":15.708568000000001,"velocity":0.7874015748031497},{"duration":0.09999999999999964,"durationTicks":240,"midi":44,"name":"G#2","ticks":40080,"time":15.808568000000001,"velocity":0.7874015748031497},{"duration":0.20000000000000107,"durationTicks":480,"midi":36,"name":"C2","ticks":40320,"time":15.908568,"velocity":0.7874015748031497},{"duration":0.1999999999999993,"durationTicks":480,"midi":44,"name":"G#2","ticks":40800,"time":16.108568,"velocity":0.7874015748031497},{"duration":0.1999999999999993,"durationTicks":480,"midi":55,"name":"G3","ticks":40800,"time":16.108568,"velocity":0.7874015748031497},{"duration":0.1999999999999993,"durationTicks":480,"midi":40,"name":"E2","ticks":41280,"time":16.308568,"velocity":0.7874015748031497},{"duration":0.1999999999999993,"durationTicks":480,"midi":46,"name":"A#2","ticks":41280,"time":16.308568,"velocity":0.7874015748031497},{"duration":0.09999999999999787,"durationTicks":240,"midi":69,"name":"A4","ticks":41280,"time":16.308568,"velocity":0.7874015748031497},{"duration":0.10000000000000142,"durationTicks":240,"midi":44,"name":"G#2","ticks":41760,"time":16.508568,"velocity":0.7874015748031497},{"duration":0.09999999999999787,"durationTicks":240,"midi":44,"name":"G#2","ticks":42000,"time":16.608568,"velocity":0.7874015748031497},{"duration":0.1999999999999993,"durationTicks":480,"midi":36,"name":"C2","ticks":42240,"time":16.708568,"velocity":0.7874015748031497},{"duration":0.1999999999999993,"durationTicks":480,"midi":49,"name":"C#3","ticks":42240,"time":16.708568,"velocity":0.7874015748031497},{"duration":0.20000000000000284,"durationTicks":480,"midi":44,"name":"G#2","ticks":42720,"time":16.908568,"velocity":0.7874015748031497},{"duration":0.1999999999999993,"durationTicks":480,"midi":40,"name":"E2","ticks":43200,"time":17.108568,"velocity":0.7874015748031497},{"duration":0.1999999999999993,"durationTicks":480,"midi":46,"name":"A#2","ticks":43200,"time":17.108568,"velocity":0.7874015748031497},{"duration":0.09999999999999787,"durationTicks":240,"midi":69,"name":"A4","ticks":43200,"time":17.108568,"velocity":0.7874015748031497},{"duration":0.09999999999999787,"durationTicks":240,"midi":44,"name":"G#2","ticks":43680,"time":17.308568,"velocity":0.7874015748031497},{"duration":0.10000000000000142,"durationTicks":240,"midi":44,"name":"G#2","ticks":43920,"time":17.408568,"velocity":0.7874015748031497},{"duration":0.1999999999999993,"durationTicks":480,"midi":36,"name":"C2","ticks":44160,"time":17.508568,"velocity":0.7874015748031497},{"duration":0.1999999999999993,"durationTicks":480,"midi":44,"name":"G#2","ticks":44640,"time":17.708568,"velocity":0.7874015748031497},{"duration":0.10000000000000142,"durationTicks":240,"midi":69,"name":"A4","ticks":45120,"time":17.908568,"velocity":0.7874015748031497},{"duration":0.20000000000000284,"durationTicks":480,"midi":40,"name":"E2","ticks":45120,"time":17.908568,"velocity":0.7874015748031497},{"duration":0.20000000000000284,"durationTicks":480,"midi":46,"name":"A#2","ticks":45120,"time":17.908568,"velocity":0.7874015748031497},{"duration":0.09999999999999787,"durationTicks":240,"midi":44,"name":"G#2","ticks":45600,"time":18.108568,"velocity":0.7874015748031497},{"duration":0.10000000000000142,"durationTicks":240,"midi":44,"name":"G#2","ticks":45840,"time":18.208568,"velocity":0.7874015748031497},{"duration":0.1999999999999993,"durationTicks":480,"midi":36,"name":"C2","ticks":46080,"time":18.308568,"velocity":0.7874015748031497},{"duration":0.1999999999999993,"durationTicks":480,"midi":44,"name":"G#2","ticks":46560,"time":18.508568,"velocity":0.7874015748031497},{"duration":0.1999999999999993,"durationTicks":480,"midi":40,"name":"E2","ticks":47040,"time":18.708568,"velocity":0.7874015748031497},{"duration":0.1999999999999993,"durationTicks":480,"midi":46,"name":"A#2","ticks":47040,"time":18.708568,"velocity":0.7874015748031497},{"duration":0.10000000000000142,"durationTicks":240,"midi":69,"name":"A4","ticks":47040,"time":18.708568,"velocity":0.7874015748031497},{"duration":0.10000000000000142,"durationTicks":240,"midi":44,"name":"G#2","ticks":47520,"time":18.908568,"velocity":0.7874015748031497},{"duration":0.10000000000000142,"durationTicks":240,"midi":44,"name":"G#2","ticks":47760,"time":19.008568,"velocity":0.7874015748031497},{"duration":0.1999999999999993,"durationTicks":480,"midi":36,"name":"C2","ticks":48000,"time":19.108568,"velocity":0.7874015748031497},{"duration":0.1999999999999993,"durationTicks":480,"midi":44,"name":"G#2","ticks":48480,"time":19.308568,"velocity":0.7874015748031497},{"duration":0.1999999999999993,"durationTicks":480,"midi":55,"name":"G3","ticks":48480,"time":19.308568,"velocity":0.7874015748031497},{"duration":0.1999999999999993,"durationTicks":480,"midi":40,"name":"E2","ticks":48960,"time":19.508568,"velocity":0.7874015748031497},{"duration":0.1999999999999993,"durationTicks":480,"midi":46,"name":"A#2","ticks":48960,"time":19.508568,"velocity":0.7874015748031497},{"duration":0.10000000000000142,"durationTicks":240,"midi":69,"name":"A4","ticks":48960,"time":19.508568,"velocity":0.7874015748031497},{"duration":0.10000000000000142,"durationTicks":240,"midi":44,"name":"G#2","ticks":49440,"time":19.708568,"velocity":0.7874015748031497},{"duration":0.09999999999999787,"durationTicks":240,"midi":44,"name":"G#2","ticks":49680,"time":19.808568,"velocity":0.7874015748031497},{"duration":0.1999999999999993,"durationTicks":480,"midi":36,"name":"C2","ticks":49920,"time":19.908568,"velocity":0.7874015748031497},{"duration":0.1999999999999993,"durationTicks":480,"midi":49,"name":"C#3","ticks":49920,"time":19.908568,"velocity":0.7874015748031497},{"duration":0.20000000000000284,"durationTicks":480,"midi":44,"name":"G#2","ticks":50400,"time":20.108567999999998,"velocity":0.7874015748031497},{"duration":0.1999999999999993,"durationTicks":480,"midi":40,"name":"E2","ticks":50880,"time":20.308568,"velocity":0.7874015748031497},{"duration":0.1999999999999993,"durationTicks":480,"midi":46,"name":"A#2","ticks":50880,"time":20.308568,"velocity":0.7874015748031497},{"duration":0.09999999999999787,"durationTicks":240,"midi":69,"name":"A4","ticks":50880,"time":20.308568,"velocity":0.7874015748031497},{"duration":0.09999999999999787,"durationTicks":240,"midi":44,"name":"G#2","ticks":51360,"time":20.508568,"velocity":0.7874015748031497},{"duration":0.10000000000000142,"durationTicks":240,"midi":44,"name":"G#2","ticks":51600,"time":20.608567999999998,"velocity":0.7874015748031497},{"duration":0.1999999999999993,"durationTicks":480,"midi":36,"name":"C2","ticks":51840,"time":20.708568,"velocity":0.7874015748031497},{"duration":0.1999999999999993,"durationTicks":480,"midi":44,"name":"G#2","ticks":52320,"time":20.908568,"velocity":0.7874015748031497},{"duration":0.10000000000000142,"durationTicks":240,"midi":69,"name":"A4","ticks":52800,"time":21.108567999999998,"velocity":0.7874015748031497},{"duration":0.20000000000000284,"durationTicks":480,"midi":40,"name":"E2","ticks":52800,"time":21.108567999999998,"velocity":0.7874015748031497},{"duration":0.20000000000000284,"durationTicks":480,"midi":46,"name":"A#2","ticks":52800,"time":21.108567999999998,"velocity":0.7874015748031497},{"duration":0.09999999999999787,"durationTicks":240,"midi":44,"name":"G#2","ticks":53280,"time":21.308568,"velocity":0.7874015748031497},{"duration":0.10000000000000142,"durationTicks":240,"midi":44,"name":"G#2","ticks":53520,"time":21.408568,"velocity":0.7874015748031497},{"duration":0.1999999999999993,"durationTicks":480,"midi":36,"name":"C2","ticks":53760,"time":21.508568,"velocity":0.7874015748031497},{"duration":0.1999999999999993,"durationTicks":480,"midi":44,"name":"G#2","ticks":54240,"time":21.708568,"velocity":0.7874015748031497},{"duration":0.1999999999999993,"durationTicks":480,"midi":40,"name":"E2","ticks":54720,"time":21.908568,"velocity":0.7874015748031497},{"duration":0.1999999999999993,"durationTicks":480,"midi":46,"name":"A#2","ticks":54720,"time":21.908568,"velocity":0.7874015748031497},{"duration":0.10000000000000142,"durationTicks":240,"midi":69,"name":"A4","ticks":54720,"time":21.908568,"velocity":0.7874015748031497},{"duration":0.10000000000000142,"durationTicks":240,"midi":44,"name":"G#2","ticks":55200,"time":22.108567999999998,"velocity":0.7874015748031497},{"duration":0.10000000000000142,"durationTicks":240,"midi":44,"name":"G#2","ticks":55440,"time":22.208568,"velocity":0.7874015748031497},{"duration":0.1999999999999993,"durationTicks":480,"midi":36,"name":"C2","ticks":55680,"time":22.308568,"velocity":0.7874015748031497},{"duration":0.1999999999999993,"durationTicks":480,"midi":44,"name":"G#2","ticks":56160,"time":22.508568,"velocity":0.7874015748031497},{"duration":0.1999999999999993,"durationTicks":480,"midi":55,"name":"G3","ticks":56160,"time":22.508568,"velocity":0.7874015748031497},{"duration":0.1999999999999993,"durationTicks":480,"midi":40,"name":"E2","ticks":56640,"time":22.708568,"velocity":0.7874015748031497},{"duration":0.1999999999999993,"durationTicks":480,"midi":46,"name":"A#2","ticks":56640,"time":22.708568,"velocity":0.7874015748031497},{"duration":0.10000000000000142,"durationTicks":240,"midi":69,"name":"A4","ticks":56640,"time":22.708568,"velocity":0.7874015748031497},{"duration":0.10000000000000142,"durationTicks":240,"midi":44,"name":"G#2","ticks":57120,"time":22.908568,"velocity":0.7874015748031497},{"duration":0.10000000000000142,"durationTicks":240,"midi":44,"name":"G#2","ticks":57360,"time":23.008568,"velocity":0.7874015748031497},{"duration":0.1999999999999993,"durationTicks":480,"midi":36,"name":"C2","ticks":57600,"time":23.108568,"velocity":0.7874015748031497},{"duration":0.1999999999999993,"durationTicks":480,"midi":49,"name":"C#3","ticks":57600,"time":23.108568,"velocity":0.7874015748031497},{"duration":0.1999999999999993,"durationTicks":480,"midi":44,"name":"G#2","ticks":58080,"time":23.308568,"velocity":0.7874015748031497},{"duration":0.1999999999999993,"durationTicks":480,"midi":40,"name":"E2","ticks":58560,"time":23.508568,"velocity":0.7874015748031497},{"duration":0.1999999999999993,"durationTicks":480,"midi":46,"name":"A#2","ticks":58560,"time":23.508568,"velocity":0.7874015748031497},{"duration":0.10000000000000142,"durationTicks":240,"midi":69,"name":"A4","ticks":58560,"time":23.508568,"velocity":0.7874015748031497},{"duration":0.10000000000000142,"durationTicks":240,"midi":44,"name":"G#2","ticks":59040,"time":23.708568,"velocity":0.7874015748031497},{"duration":0.09999999999999787,"durationTicks":240,"midi":44,"name":"G#2","ticks":59280,"time":23.808568,"velocity":0.7874015748031497},{"duration":0.20000000000000284,"durationTicks":480,"midi":36,"name":"C2","ticks":59520,"time":23.908568,"velocity":0.7874015748031497},{"duration":0.1999999999999993,"durationTicks":480,"midi":44,"name":"G#2","ticks":60000,"time":24.108568,"velocity":0.7874015748031497},{"duration":0.09999999999999787,"durationTicks":240,"midi":69,"name":"A4","ticks":60480,"time":24.308568,"velocity":0.7874015748031497},{"duration":0.1999999999999993,"durationTicks":480,"midi":40,"name":"E2","ticks":60480,"time":24.308568,"velocity":0.7874015748031497},{"duration":0.1999999999999993,"durationTicks":480,"midi":46,"name":"A#2","ticks":60480,"time":24.308568,"velocity":0.7874015748031497},{"duration":0.10000000000000142,"durationTicks":240,"midi":44,"name":"G#2","ticks":60960,"time":24.508568,"velocity":0.7874015748031497},{"duration":0.09999999999999787,"durationTicks":240,"midi":44,"name":"G#2","ticks":61200,"time":24.608568,"velocity":0.7874015748031497},{"duration":0.1999999999999993,"durationTicks":480,"midi":36,"name":"C2","ticks":61440,"time":24.708568,"velocity":0.7874015748031497},{"duration":0.20000000000000284,"durationTicks":480,"midi":44,"name":"G#2","ticks":61920,"time":24.908568,"velocity":0.7874015748031497},{"duration":0.1999999999999993,"durationTicks":480,"midi":40,"name":"E2","ticks":62400,"time":25.108568,"velocity":0.7874015748031497},{"duration":0.1999999999999993,"durationTicks":480,"midi":46,"name":"A#2","ticks":62400,"time":25.108568,"velocity":0.7874015748031497},{"duration":0.09999999999999787,"durationTicks":240,"midi":69,"name":"A4","ticks":62400,"time":25.108568,"velocity":0.7874015748031497},{"duration":0.09999999999999787,"durationTicks":240,"midi":44,"name":"G#2","ticks":62880,"time":25.308568,"velocity":0.7874015748031497},{"duration":0.10000000000000142,"durationTicks":240,"midi":44,"name":"G#2","ticks":63120,"time":25.408568,"velocity":0.7874015748031497},{"duration":0.1999999999999993,"durationTicks":480,"midi":36,"name":"C2","ticks":63360,"time":25.508568,"velocity":0.7874015748031497},{"duration":0.1999999999999993,"durationTicks":480,"midi":44,"name":"G#2","ticks":63840,"time":25.708568,"velocity":0.7874015748031497},{"duration":0.1999999999999993,"durationTicks":480,"midi":55,"name":"G3","ticks":63840,"time":25.708568,"velocity":0.7874015748031497},{"duration":0.20000000000000284,"durationTicks":480,"midi":40,"name":"E2","ticks":64320,"time":25.908568,"velocity":0.7874015748031497},{"duration":0.20000000000000284,"durationTicks":480,"midi":46,"name":"A#2","ticks":64320,"time":25.908568,"velocity":0.7874015748031497},{"duration":0.10000000000000142,"durationTicks":240,"midi":69,"name":"A4","ticks":64320,"time":25.908568,"velocity":0.7874015748031497},{"duration":0.09999999999999787,"durationTicks":240,"midi":44,"name":"G#2","ticks":64800,"time":26.108568,"velocity":0.7874015748031497},{"duration":0.10000000000000142,"durationTicks":240,"midi":44,"name":"G#2","ticks":65040,"time":26.208568,"velocity":0.7874015748031497},{"duration":0.1999999999999993,"durationTicks":480,"midi":36,"name":"C2","ticks":65280,"time":26.308568,"velocity":0.7874015748031497},{"duration":0.1999999999999993,"durationTicks":480,"midi":49,"name":"C#3","ticks":65280,"time":26.308568,"velocity":0.7874015748031497},{"duration":0.1999999999999993,"durationTicks":480,"midi":44,"name":"G#2","ticks":65760,"time":26.508568,"velocity":0.7874015748031497},{"duration":0.1999999999999993,"durationTicks":480,"midi":40,"name":"E2","ticks":66240,"time":26.708568,"velocity":0.7874015748031497},{"duration":0.1999999999999993,"durationTicks":480,"midi":46,"name":"A#2","ticks":66240,"time":26.708568,"velocity":0.7874015748031497},{"duration":0.10000000000000142,"durationTicks":240,"midi":69,"name":"A4","ticks":66240,"time":26.708568,"velocity":0.7874015748031497},{"duration":0.10000000000000142,"durationTicks":240,"midi":44,"name":"G#2","ticks":66720,"time":26.908568,"velocity":0.7874015748031497},{"duration":0.10000000000000142,"durationTicks":240,"midi":44,"name":"G#2","ticks":66960,"time":27.008568,"velocity":0.7874015748031497},{"duration":0.1999999999999993,"durationTicks":480,"midi":36,"name":"C2","ticks":67200,"time":27.108568,"velocity":0.7874015748031497},{"duration":0.1999999999999993,"durationTicks":480,"midi":44,"name":"G#2","ticks":67680,"time":27.308568,"velocity":0.7874015748031497},{"duration":0.10000000000000142,"durationTicks":240,"midi":69,"name":"A4","ticks":68160,"time":27.508568,"velocity":0.7874015748031497},{"duration":0.1999999999999993,"durationTicks":480,"midi":40,"name":"E2","ticks":68160,"time":27.508568,"velocity":0.7874015748031497},{"duration":0.1999999999999993,"durationTicks":480,"midi":46,"name":"A#2","ticks":68160,"time":27.508568,"velocity":0.7874015748031497},{"duration":0.10000000000000142,"durationTicks":240,"midi":44,"name":"G#2","ticks":68640,"time":27.708568,"velocity":0.7874015748031497},{"duration":0.09999999999999787,"durationTicks":240,"midi":44,"name":"G#2","ticks":68880,"time":27.808568,"velocity":0.7874015748031497},{"duration":0.20000000000000284,"durationTicks":480,"midi":36,"name":"C2","ticks":69120,"time":27.908568,"velocity":0.7874015748031497},{"duration":0.1999999999999993,"durationTicks":480,"midi":44,"name":"G#2","ticks":69600,"time":28.108568,"velocity":0.7874015748031497},{"duration":0.1999999999999993,"durationTicks":480,"midi":40,"name":"E2","ticks":70080,"time":28.308568,"velocity":0.7874015748031497},{"duration":0.1999999999999993,"durationTicks":480,"midi":46,"name":"A#2","ticks":70080,"time":28.308568,"velocity":0.7874015748031497},{"duration":0.09999999999999787,"durationTicks":240,"midi":69,"name":"A4","ticks":70080,"time":28.308568,"velocity":0.7874015748031497},{"duration":0.10000000000000142,"durationTicks":240,"midi":44,"name":"G#2","ticks":70560,"time":28.508568,"velocity":0.7874015748031497},{"duration":0.09999999999999787,"durationTicks":240,"midi":44,"name":"G#2","ticks":70800,"time":28.608568,"velocity":0.7874015748031497},{"duration":0.1999999999999993,"durationTicks":480,"midi":36,"name":"C2","ticks":71040,"time":28.708568,"velocity":0.7874015748031497},{"duration":0.20000000000000284,"durationTicks":480,"midi":44,"name":"G#2","ticks":71520,"time":28.908568,"velocity":0.7874015748031497},{"duration":0.20000000000000284,"durationTicks":480,"midi":55,"name":"G3","ticks":71520,"time":28.908568,"velocity":0.7874015748031497},{"duration":0.1999999999999993,"durationTicks":480,"midi":40,"name":"E2","ticks":72000,"time":29.108568,"velocity":0.7874015748031497},{"duration":0.1999999999999993,"durationTicks":480,"midi":46,"name":"A#2","ticks":72000,"time":29.108568,"velocity":0.7874015748031497},{"duration":0.09999999999999787,"durationTicks":240,"midi":69,"name":"A4","ticks":72000,"time":29.108568,"velocity":0.7874015748031497},{"duration":0.09999999999999787,"durationTicks":240,"midi":44,"name":"G#2","ticks":72480,"time":29.308568,"velocity":0.7874015748031497},{"duration":0.10000000000000142,"durationTicks":240,"midi":44,"name":"G#2","ticks":72720,"time":29.408568,"velocity":0.7874015748031497},{"duration":0.1999999999999993,"durationTicks":480,"midi":36,"name":"C2","ticks":72960,"time":29.508568,"velocity":0.7874015748031497},{"duration":0.1999999999999993,"durationTicks":480,"midi":49,"name":"C#3","ticks":72960,"time":29.508568,"velocity":0.7874015748031497},{"duration":0.1999999999999993,"durationTicks":480,"midi":44,"name":"G#2","ticks":73440,"time":29.708568,"velocity":0.7874015748031497},{"duration":0.20000000000000284,"durationTicks":480,"midi":40,"name":"E2","ticks":73920,"time":29.908568,"velocity":0.7874015748031497},{"duration":0.20000000000000284,"durationTicks":480,"midi":46,"name":"A#2","ticks":73920,"time":29.908568,"velocity":0.7874015748031497},{"duration":0.10000000000000142,"durationTicks":240,"midi":69,"name":"A4","ticks":73920,"time":29.908568,"velocity":0.7874015748031497},{"duration":0.09999999999999787,"durationTicks":240,"midi":44,"name":"G#2","ticks":74400,"time":30.108568,"velocity":0.7874015748031497},{"duration":0.10000000000000142,"durationTicks":240,"midi":44,"name":"G#2","ticks":74640,"time":30.208568,"velocity":0.7874015748031497},{"duration":0.1999999999999993,"durationTicks":480,"midi":36,"name":"C2","ticks":74880,"time":30.308568,"velocity":0.7874015748031497},{"duration":0.1999999999999993,"durationTicks":480,"midi":44,"name":"G#2","ticks":75360,"time":30.508568,"velocity":0.7874015748031497},{"duration":0.10000000000000142,"durationTicks":240,"midi":69,"name":"A4","ticks":75840,"time":30.708568,"velocity":0.7874015748031497},{"duration":0.1999999999999993,"durationTicks":480,"midi":40,"name":"E2","ticks":75840,"time":30.708568,"velocity":0.7874015748031497},{"duration":0.1999999999999993,"durationTicks":480,"midi":46,"name":"A#2","ticks":75840,"time":30.708568,"velocity":0.7874015748031497},{"duration":0.10000000000000142,"durationTicks":240,"midi":44,"name":"G#2","ticks":76320,"time":30.908568,"velocity":0.7874015748031497},{"duration":0.10000000000000142,"durationTicks":240,"midi":44,"name":"G#2","ticks":76560,"time":31.008568,"velocity":0.7874015748031497},{"duration":0.1999999999999993,"durationTicks":480,"midi":36,"name":"C2","ticks":76800,"time":31.108568,"velocity":0.7874015748031497},{"duration":0.1999999999999993,"durationTicks":480,"midi":44,"name":"G#2","ticks":77280,"time":31.308568,"velocity":0.7874015748031497},{"duration":0.1999999999999993,"durationTicks":480,"midi":40,"name":"E2","ticks":77760,"time":31.508568,"velocity":0.7874015748031497},{"duration":0.1999999999999993,"durationTicks":480,"midi":46,"name":"A#2","ticks":77760,"time":31.508568,"velocity":0.7874015748031497},{"duration":0.10000000000000142,"durationTicks":240,"midi":69,"name":"A4","ticks":77760,"time":31.508568,"velocity":0.7874015748031497},{"duration":0.10000000000000142,"durationTicks":240,"midi":44,"name":"G#2","ticks":78240,"time":31.708568,"velocity":0.7874015748031497},{"duration":0.09999999999999787,"durationTicks":240,"midi":44,"name":"G#2","ticks":78480,"time":31.808568,"velocity":0.7874015748031497},{"duration":0.2000000000000064,"durationTicks":480,"midi":36,"name":"C2","ticks":78720,"time":31.908568,"velocity":0.7874015748031497},{"duration":0.19999999999999574,"durationTicks":480,"midi":44,"name":"G#2","ticks":79200,"time":32.108568000000005,"velocity":0.7874015748031497},{"duration":0.19999999999999574,"durationTicks":480,"midi":55,"name":"G3","ticks":79200,"time":32.108568000000005,"velocity":0.7874015748031497},{"duration":0.20000000000000284,"durationTicks":480,"midi":40,"name":"E2","ticks":79680,"time":32.308568,"velocity":0.7874015748031497},{"duration":0.20000000000000284,"durationTicks":480,"midi":46,"name":"A#2","ticks":79680,"time":32.308568,"velocity":0.7874015748031497},{"duration":0.10000000000000142,"durationTicks":240,"midi":69,"name":"A4","ticks":79680,"time":32.308568,"velocity":0.7874015748031497},{"duration":0.10000000000000142,"durationTicks":240,"midi":44,"name":"G#2","ticks":80160,"time":32.508568000000004,"velocity":0.7874015748031497},{"duration":0.09999999999999432,"durationTicks":240,"midi":44,"name":"G#2","ticks":80400,"time":32.608568000000005,"velocity":0.7874015748031497},{"duration":0.20000000000000284,"durationTicks":480,"midi":36,"name":"C2","ticks":80640,"time":32.708568,"velocity":0.7874015748031497},{"duration":0.20000000000000284,"durationTicks":480,"midi":49,"name":"C#3","ticks":80640,"time":32.708568,"velocity":0.7874015748031497},{"duration":0.20000000000000284,"durationTicks":480,"midi":44,"name":"G#2","ticks":81120,"time":32.908568,"velocity":0.7874015748031497},{"duration":0.19999999999999574,"durationTicks":480,"midi":40,"name":"E2","ticks":81600,"time":33.108568000000005,"velocity":0.7874015748031497},{"duration":0.19999999999999574,"durationTicks":480,"midi":46,"name":"A#2","ticks":81600,"time":33.108568000000005,"velocity":0.7874015748031497},{"duration":0.09999999999999432,"durationTicks":240,"midi":69,"name":"A4","ticks":81600,"time":33.108568000000005,"velocity":0.7874015748031497},{"duration":0.10000000000000142,"durationTicks":240,"midi":44,"name":"G#2","ticks":82080,"time":33.308568,"velocity":0.7874015748031497},{"duration":0.10000000000000142,"durationTicks":240,"midi":44,"name":"G#2","ticks":82320,"time":33.408568,"velocity":0.7874015748031497},{"duration":0.19999999999999574,"durationTicks":480,"midi":36,"name":"C2","ticks":82560,"time":33.508568000000004,"velocity":0.7874015748031497},{"duration":0.20000000000000284,"durationTicks":480,"midi":44,"name":"G#2","ticks":83040,"time":33.708568,"velocity":0.7874015748031497},{"duration":0.10000000000000142,"durationTicks":240,"midi":69,"name":"A4","ticks":83520,"time":33.908568,"velocity":0.7874015748031497},{"duration":0.20000000000000284,"durationTicks":480,"midi":40,"name":"E2","ticks":83520,"time":33.908568,"velocity":0.7874015748031497},{"duration":0.20000000000000284,"durationTicks":480,"midi":46,"name":"A#2","ticks":83520,"time":33.908568,"velocity":0.7874015748031497},{"duration":0.09999999999999432,"durationTicks":240,"midi":44,"name":"G#2","ticks":84000,"time":34.108568000000005,"velocity":0.7874015748031497},{"duration":0.10000000000000142,"durationTicks":240,"midi":44,"name":"G#2","ticks":84240,"time":34.208568,"velocity":0.7874015748031497},{"duration":0.20000000000000284,"durationTicks":480,"midi":36,"name":"C2","ticks":84480,"time":34.308568,"velocity":0.7874015748031497},{"duration":0.19999999999999574,"durationTicks":480,"midi":44,"name":"G#2","ticks":84960,"time":34.508568000000004,"velocity":0.7874015748031497},{"duration":0.20000000000000284,"durationTicks":480,"midi":40,"name":"E2","ticks":85440,"time":34.708568,"velocity":0.7874015748031497},{"duration":0.20000000000000284,"durationTicks":480,"midi":46,"name":"A#2","ticks":85440,"time":34.708568,"velocity":0.7874015748031497},{"duration":0.10000000000000142,"durationTicks":240,"midi":69,"name":"A4","ticks":85440,"time":34.708568,"velocity":0.7874015748031497},{"duration":0.10000000000000142,"durationTicks":240,"midi":44,"name":"G#2","ticks":85920,"time":34.908568,"velocity":0.7874015748031497},{"duration":0.10000000000000142,"durationTicks":240,"midi":44,"name":"G#2","ticks":86160,"time":35.008568000000004,"velocity":0.7874015748031497},{"duration":0.19999999999999574,"durationTicks":480,"midi":36,"name":"C2","ticks":86400,"time":35.108568000000005,"velocity":0.7874015748031497},{"duration":0.20000000000000284,"durationTicks":480,"midi":44,"name":"G#2","ticks":86880,"time":35.308568,"velocity":0.7874015748031497},{"duration":0.20000000000000284,"durationTicks":480,"midi":55,"name":"G3","ticks":86880,"time":35.308568,"velocity":0.7874015748031497},{"duration":0.19999999999999574,"durationTicks":480,"midi":40,"name":"E2","ticks":87360,"time":35.508568000000004,"velocity":0.7874015748031497},{"duration":0.19999999999999574,"durationTicks":480,"midi":46,"name":"A#2","ticks":87360,"time":35.508568000000004,"velocity":0.7874015748031497},{"duration":0.10000000000000142,"durationTicks":240,"midi":69,"name":"A4","ticks":87360,"time":35.508568000000004,"velocity":0.7874015748031497},{"duration":0.10000000000000142,"durationTicks":240,"midi":44,"name":"G#2","ticks":87840,"time":35.708568,"velocity":0.7874015748031497},{"duration":0.10000000000000142,"durationTicks":240,"midi":44,"name":"G#2","ticks":88080,"time":35.808568,"velocity":0.7874015748031497},{"duration":0.20000000000000284,"durationTicks":480,"midi":36,"name":"C2","ticks":88320,"time":35.908568,"velocity":0.7874015748031497},{"duration":0.20000000000000284,"durationTicks":480,"midi":49,"name":"C#3","ticks":88320,"time":35.908568,"velocity":0.7874015748031497},{"duration":0.20000000000000284,"durationTicks":480,"midi":40,"name":"E2","ticks":89280,"time":36.308568,"velocity":0.6535433070866141},{"duration":0.20000000000000284,"durationTicks":480,"midi":46,"name":"A#2","ticks":89280,"time":36.308568,"velocity":0.6535433070866141},{"duration":0.10000000000000142,"durationTicks":240,"midi":69,"name":"A4","ticks":89280,"time":36.308568,"velocity":0.6535433070866141},{"duration":0.19999999999999574,"durationTicks":480,"midi":36,"name":"C2","ticks":90240,"time":36.70856800000001,"velocity":0.7874015748031497},{"duration":0.10000000000000142,"durationTicks":240,"midi":69,"name":"A4","ticks":91200,"time":37.108568000000005,"velocity":0.6692913385826772},{"duration":0.19999999999999574,"durationTicks":480,"midi":40,"name":"E2","ticks":91200,"time":37.108568000000005,"velocity":0.6692913385826772},{"duration":0.19999999999999574,"durationTicks":480,"midi":46,"name":"A#2","ticks":91200,"time":37.108568000000005,"velocity":0.6692913385826772},{"duration":0.20000000000000284,"durationTicks":480,"midi":36,"name":"C2","ticks":92160,"time":37.508568000000004,"velocity":0.7874015748031497},{"duration":0.20000000000000284,"durationTicks":480,"midi":40,"name":"E2","ticks":93120,"time":37.908568,"velocity":0.6771653543307087},{"duration":0.20000000000000284,"durationTicks":480,"midi":46,"name":"A#2","ticks":93120,"time":37.908568,"velocity":0.6771653543307087},{"duration":0.10000000000000142,"durationTicks":240,"midi":69,"name":"A4","ticks":93120,"time":37.908568,"velocity":0.6771653543307087},{"duration":0.20000000000000284,"durationTicks":480,"midi":36,"name":"C2","ticks":94080,"time":38.308568,"velocity":0.7874015748031497},{"duration":0.19999999999999574,"durationTicks":480,"midi":40,"name":"E2","ticks":95040,"time":38.70856800000001,"velocity":0.6614173228346457},{"duration":0.19999999999999574,"durationTicks":480,"midi":46,"name":"A#2","ticks":95040,"time":38.70856800000001,"velocity":0.6614173228346457},{"duration":0.09999999999999432,"durationTicks":240,"midi":69,"name":"A4","ticks":95040,"time":38.70856800000001,"velocity":0.6614173228346457},{"duration":0.19999999999999574,"durationTicks":480,"midi":36,"name":"C2","ticks":96000,"time":39.108568000000005,"velocity":0.7874015748031497},{"duration":0.19999999999999574,"durationTicks":480,"midi":49,"name":"C#3","ticks":96000,"time":39.108568000000005,"velocity":0.7874015748031497},{"duration":0.20000000000000284,"durationTicks":480,"midi":40,"name":"E2","ticks":96960,"time":39.508568000000004,"velocity":0.6535433070866141},{"duration":0.20000000000000284,"durationTicks":480,"midi":46,"name":"A#2","ticks":96960,"time":39.508568000000004,"velocity":0.6535433070866141},{"duration":0.10000000000000142,"durationTicks":240,"midi":69,"name":"A4","ticks":96960,"time":39.508568000000004,"velocity":0.6535433070866141},{"duration":0.20000000000000284,"durationTicks":480,"midi":36,"name":"C2","ticks":97920,"time":39.908568,"velocity":0.7874015748031497},{"duration":0.10000000000000142,"durationTicks":240,"midi":69,"name":"A4","ticks":98880,"time":40.308568,"velocity":0.6535433070866141},{"duration":0.20000000000000284,"durationTicks":480,"midi":40,"name":"E2","ticks":98880,"time":40.308568,"velocity":0.6535433070866141},{"duration":0.20000000000000284,"durationTicks":480,"midi":46,"name":"A#2","ticks":98880,"time":40.308568,"velocity":0.6535433070866141},{"duration":0.19999999999999574,"durationTicks":480,"midi":36,"name":"C2","ticks":99840,"time":40.70856800000001,"velocity":0.7874015748031497},{"duration":0.19999999999999574,"durationTicks":480,"midi":40,"name":"E2","ticks":100800,"time":41.108568000000005,"velocity":0.6535433070866141},{"duration":0.19999999999999574,"durationTicks":480,"midi":46,"name":"A#2","ticks":100800,"time":41.108568000000005,"velocity":0.6535433070866141},{"duration":0.10000000000000142,"durationTicks":240,"midi":69,"name":"A4","ticks":100800,"time":41.108568000000005,"velocity":0.6535433070866141},{"duration":0.20000000000000284,"durationTicks":480,"midi":36,"name":"C2","ticks":101760,"time":41.508568000000004,"velocity":0.7874015748031497},{"duration":0.20000000000000284,"durationTicks":480,"midi":40,"name":"E2","ticks":102720,"time":41.908568,"velocity":0.6614173228346457},{"duration":0.20000000000000284,"durationTicks":480,"midi":46,"name":"A#2","ticks":102720,"time":41.908568,"velocity":0.6614173228346457},{"duration":0.10000000000000142,"durationTicks":240,"midi":69,"name":"A4","ticks":102720,"time":41.908568,"velocity":0.6614173228346457},{"duration":0.19999999999999574,"durationTicks":480,"midi":36,"name":"C2","ticks":103680,"time":42.30856800000001,"velocity":0.7874015748031497},{"duration":0.19999999999999574,"durationTicks":480,"midi":49,"name":"C#3","ticks":103680,"time":42.30856800000001,"velocity":0.7874015748031497},{"duration":0.19999999999999574,"durationTicks":480,"midi":40,"name":"E2","ticks":104640,"time":42.70856800000001,"velocity":0.6535433070866141},{"duration":0.19999999999999574,"durationTicks":480,"midi":46,"name":"A#2","ticks":104640,"time":42.70856800000001,"velocity":0.6535433070866141},{"duration":0.10000000000000142,"durationTicks":240,"midi":69,"name":"A4","ticks":104640,"time":42.70856800000001,"velocity":0.6535433070866141},{"duration":0.20000000000000284,"durationTicks":480,"midi":36,"name":"C2","ticks":105600,"time":43.108568000000005,"velocity":0.7874015748031497},{"duration":0.10000000000000142,"durationTicks":240,"midi":69,"name":"A4","ticks":106560,"time":43.508568000000004,"velocity":0.6692913385826772},{"duration":0.20000000000000284,"durationTicks":480,"midi":40,"name":"E2","ticks":106560,"time":43.508568000000004,"velocity":0.6692913385826772},{"duration":0.20000000000000284,"durationTicks":480,"midi":46,"name":"A#2","ticks":106560,"time":43.508568000000004,"velocity":0.6692913385826772},{"duration":0.20000000000000284,"durationTicks":480,"midi":36,"name":"C2","ticks":107520,"time":43.908568,"velocity":0.7874015748031497},{"duration":0.19999999999999574,"durationTicks":480,"midi":40,"name":"E2","ticks":108480,"time":44.30856800000001,"velocity":0.6771653543307087},{"duration":0.19999999999999574,"durationTicks":480,"midi":46,"name":"A#2","ticks":108480,"time":44.30856800000001,"velocity":0.6771653543307087},{"duration":0.09999999999999432,"durationTicks":240,"midi":69,"name":"A4","ticks":108480,"time":44.30856800000001,"velocity":0.6771653543307087},{"duration":0.19999999999999574,"durationTicks":480,"midi":36,"name":"C2","ticks":109440,"time":44.70856800000001,"velocity":0.7874015748031497},{"duration":0.20000000000000284,"durationTicks":480,"midi":40,"name":"E2","ticks":110400,"time":45.108568000000005,"velocity":0.6614173228346457},{"duration":0.20000000000000284,"durationTicks":480,"midi":46,"name":"A#2","ticks":110400,"time":45.108568000000005,"velocity":0.6614173228346457},{"duration":0.10000000000000142,"durationTicks":240,"midi":69,"name":"A4","ticks":110400,"time":45.108568000000005,"velocity":0.6614173228346457},{"duration":0.20000000000000284,"durationTicks":480,"midi":36,"name":"C2","ticks":111360,"time":45.508568000000004,"velocity":0.7874015748031497},{"duration":0.20000000000000284,"durationTicks":480,"midi":49,"name":"C#3","ticks":111360,"time":45.508568000000004,"velocity":0.7874015748031497},{"duration":0.20000000000000284,"durationTicks":480,"midi":40,"name":"E2","ticks":112320,"time":45.908568,"velocity":0.6535433070866141},{"duration":0.20000000000000284,"durationTicks":480,"midi":46,"name":"A#2","ticks":112320,"time":45.908568,"velocity":0.6535433070866141},{"duration":0.10000000000000142,"durationTicks":240,"midi":69,"name":"A4","ticks":112320,"time":45.908568,"velocity":0.6535433070866141},{"duration":0.19999999999999574,"durationTicks":480,"midi":36,"name":"C2","ticks":113280,"time":46.30856800000001,"velocity":0.7874015748031497},{"duration":0.10000000000000142,"durationTicks":240,"midi":69,"name":"A4","ticks":114240,"time":46.70856800000001,"velocity":0.6535433070866141},{"duration":0.19999999999999574,"durationTicks":480,"midi":40,"name":"E2","ticks":114240,"time":46.70856800000001,"velocity":0.6535433070866141},{"duration":0.19999999999999574,"durationTicks":480,"midi":46,"name":"A#2","ticks":114240,"time":46.70856800000001,"velocity":0.6535433070866141},{"duration":0.20000000000000284,"durationTicks":480,"midi":36,"name":"C2","ticks":115200,"time":47.108568000000005,"velocity":0.7874015748031497},{"duration":0.20000000000000284,"durationTicks":480,"midi":40,"name":"E2","ticks":116160,"time":47.508568000000004,"velocity":0.6535433070866141},{"duration":0.20000000000000284,"durationTicks":480,"midi":46,"name":"A#2","ticks":116160,"time":47.508568000000004,"velocity":0.6535433070866141},{"duration":0.10000000000000142,"durationTicks":240,"midi":69,"name":"A4","ticks":116160,"time":47.508568000000004,"velocity":0.6535433070866141},{"duration":0.20000000000000284,"durationTicks":480,"midi":36,"name":"C2","ticks":117120,"time":47.908568,"velocity":0.7874015748031497},{"duration":0.19999999999999574,"durationTicks":480,"midi":40,"name":"E2","ticks":118080,"time":48.30856800000001,"velocity":0.6614173228346457},{"duration":0.19999999999999574,"durationTicks":480,"midi":46,"name":"A#2","ticks":118080,"time":48.30856800000001,"velocity":0.6614173228346457},{"duration":0.09999999999999432,"durationTicks":240,"midi":69,"name":"A4","ticks":118080,"time":48.30856800000001,"velocity":0.6614173228346457},{"duration":0.19999999999999574,"durationTicks":480,"midi":36,"name":"C2","ticks":119040,"time":48.70856800000001,"velocity":0.7874015748031497},{"duration":0.19999999999999574,"durationTicks":480,"midi":49,"name":"C#3","ticks":119040,"time":48.70856800000001,"velocity":0.7874015748031497},{"duration":0.20000000000000284,"durationTicks":480,"midi":44,"name":"G#2","ticks":119520,"time":48.908568,"velocity":0.7874015748031497},{"duration":0.20000000000000284,"durationTicks":480,"midi":40,"name":"E2","ticks":120000,"time":49.108568000000005,"velocity":0.7874015748031497},{"duration":0.20000000000000284,"durationTicks":480,"midi":46,"name":"A#2","ticks":120000,"time":49.108568000000005,"velocity":0.7874015748031497},{"duration":0.10000000000000142,"durationTicks":240,"midi":69,"name":"A4","ticks":120000,"time":49.108568000000005,"velocity":0.7874015748031497},{"duration":0.09999999999999432,"durationTicks":240,"midi":44,"name":"G#2","ticks":120480,"time":49.30856800000001,"velocity":0.7874015748031497},{"duration":0.10000000000000142,"durationTicks":240,"midi":44,"name":"G#2","ticks":120720,"time":49.408568,"velocity":0.7874015748031497},{"duration":0.20000000000000284,"durationTicks":480,"midi":36,"name":"C2","ticks":120960,"time":49.508568000000004,"velocity":0.7874015748031497},{"duration":0.19999999999999574,"durationTicks":480,"midi":44,"name":"G#2","ticks":121440,"time":49.70856800000001,"velocity":0.7874015748031497},{"duration":0.10000000000000142,"durationTicks":240,"midi":69,"name":"A4","ticks":121920,"time":49.908568,"velocity":0.7874015748031497},{"duration":0.20000000000000284,"durationTicks":480,"midi":40,"name":"E2","ticks":121920,"time":49.908568,"velocity":0.7874015748031497},{"duration":0.20000000000000284,"durationTicks":480,"midi":46,"name":"A#2","ticks":121920,"time":49.908568,"velocity":0.7874015748031497},{"duration":0.10000000000000142,"durationTicks":240,"midi":44,"name":"G#2","ticks":122400,"time":50.108568000000005,"velocity":0.7874015748031497},{"duration":0.10000000000000142,"durationTicks":240,"midi":44,"name":"G#2","ticks":122640,"time":50.20856800000001,"velocity":0.7874015748031497},{"duration":0.19999999999999574,"durationTicks":480,"midi":36,"name":"C2","ticks":122880,"time":50.30856800000001,"velocity":0.7874015748031497},{"duration":0.20000000000000284,"durationTicks":480,"midi":44,"name":"G#2","ticks":123360,"time":50.508568000000004,"velocity":0.7874015748031497},{"duration":0.19999999999999574,"durationTicks":480,"midi":40,"name":"E2","ticks":123840,"time":50.70856800000001,"velocity":0.7874015748031497},{"duration":0.19999999999999574,"durationTicks":480,"midi":46,"name":"A#2","ticks":123840,"time":50.70856800000001,"velocity":0.7874015748031497},{"duration":0.10000000000000142,"durationTicks":240,"midi":69,"name":"A4","ticks":123840,"time":50.70856800000001,"velocity":0.7874015748031497},{"duration":0.10000000000000142,"durationTicks":240,"midi":44,"name":"G#2","ticks":124320,"time":50.908568,"velocity":0.7874015748031497},{"duration":0.10000000000000142,"durationTicks":240,"midi":44,"name":"G#2","ticks":124560,"time":51.008568000000004,"velocity":0.7874015748031497},{"duration":0.20000000000000284,"durationTicks":480,"midi":36,"name":"C2","ticks":124800,"time":51.108568000000005,"velocity":0.7874015748031497},{"duration":0.19999999999999574,"durationTicks":480,"midi":44,"name":"G#2","ticks":125280,"time":51.30856800000001,"velocity":0.7874015748031497},{"duration":0.19999999999999574,"durationTicks":480,"midi":55,"name":"G3","ticks":125280,"time":51.30856800000001,"velocity":0.7874015748031497},{"duration":0.20000000000000284,"durationTicks":480,"midi":40,"name":"E2","ticks":125760,"time":51.508568000000004,"velocity":0.7874015748031497},{"duration":0.20000000000000284,"durationTicks":480,"midi":46,"name":"A#2","ticks":125760,"time":51.508568000000004,"velocity":0.7874015748031497},{"duration":0.10000000000000142,"durationTicks":240,"midi":69,"name":"A4","ticks":125760,"time":51.508568000000004,"velocity":0.7874015748031497},{"duration":0.10000000000000142,"durationTicks":240,"midi":44,"name":"G#2","ticks":126240,"time":51.70856800000001,"velocity":0.7874015748031497},{"duration":0.09999999999999432,"durationTicks":240,"midi":44,"name":"G#2","ticks":126480,"time":51.80856800000001,"velocity":0.7874015748031497},{"duration":0.20000000000000284,"durationTicks":480,"midi":36,"name":"C2","ticks":126720,"time":51.908568,"velocity":0.7874015748031497},{"duration":0.20000000000000284,"durationTicks":480,"midi":49,"name":"C#3","ticks":126720,"time":51.908568,"velocity":0.7874015748031497},{"duration":0.20000000000000284,"durationTicks":480,"midi":44,"name":"G#2","ticks":127200,"time":52.108568000000005,"velocity":0.7874015748031497},{"duration":0.19999999999999574,"durationTicks":480,"midi":40,"name":"E2","ticks":127680,"time":52.30856800000001,"velocity":0.7874015748031497},{"duration":0.19999999999999574,"durationTicks":480,"midi":46,"name":"A#2","ticks":127680,"time":52.30856800000001,"velocity":0.7874015748031497},{"duration":0.09999999999999432,"durationTicks":240,"midi":69,"name":"A4","ticks":127680,"time":52.30856800000001,"velocity":0.7874015748031497},{"duration":0.10000000000000142,"durationTicks":240,"midi":44,"name":"G#2","ticks":128160,"time":52.508568000000004,"velocity":0.7874015748031497},{"duration":0.10000000000000142,"durationTicks":240,"midi":44,"name":"G#2","ticks":128400,"time":52.608568000000005,"velocity":0.7874015748031497},{"duration":0.19999999999999574,"durationTicks":480,"midi":36,"name":"C2","ticks":128640,"time":52.70856800000001,"velocity":0.7874015748031497},{"duration":0.20000000000000284,"durationTicks":480,"midi":44,"name":"G#2","ticks":129120,"time":52.908568,"velocity":0.7874015748031497},{"duration":0.10000000000000142,"durationTicks":240,"midi":69,"name":"A4","ticks":129600,"time":53.108568000000005,"velocity":0.7874015748031497},{"duration":0.20000000000000284,"durationTicks":480,"midi":40,"name":"E2","ticks":129600,"time":53.108568000000005,"velocity":0.7874015748031497},{"duration":0.20000000000000284,"durationTicks":480,"midi":46,"name":"A#2","ticks":129600,"time":53.108568000000005,"velocity":0.7874015748031497},{"duration":0.09999999999999432,"durationTicks":240,"midi":44,"name":"G#2","ticks":130080,"time":53.30856800000001,"velocity":0.7874015748031497},{"duration":0.10000000000000142,"durationTicks":240,"midi":44,"name":"G#2","ticks":130320,"time":53.408568,"velocity":0.7874015748031497},{"duration":0.20000000000000284,"durationTicks":480,"midi":36,"name":"C2","ticks":130560,"time":53.508568000000004,"velocity":0.7874015748031497},{"duration":0.19999999999999574,"durationTicks":480,"midi":44,"name":"G#2","ticks":131040,"time":53.70856800000001,"velocity":0.7874015748031497},{"duration":0.20000000000000284,"durationTicks":480,"midi":40,"name":"E2","ticks":131520,"time":53.908568,"velocity":0.7874015748031497},{"duration":0.20000000000000284,"durationTicks":480,"midi":46,"name":"A#2","ticks":131520,"time":53.908568,"velocity":0.7874015748031497},{"duration":0.10000000000000142,"durationTicks":240,"midi":69,"name":"A4","ticks":131520,"time":53.908568,"velocity":0.7874015748031497},{"duration":0.10000000000000142,"durationTicks":240,"midi":44,"name":"G#2","ticks":132000,"time":54.108568000000005,"velocity":0.7874015748031497},{"duration":0.10000000000000142,"durationTicks":240,"midi":44,"name":"G#2","ticks":132240,"time":54.20856800000001,"velocity":0.7874015748031497},{"duration":0.19999999999999574,"durationTicks":480,"midi":36,"name":"C2","ticks":132480,"time":54.30856800000001,"velocity":0.7874015748031497},{"duration":0.20000000000000284,"durationTicks":480,"midi":44,"name":"G#2","ticks":132960,"time":54.508568000000004,"velocity":0.7874015748031497},{"duration":0.20000000000000284,"durationTicks":480,"midi":55,"name":"G3","ticks":132960,"time":54.508568000000004,"velocity":0.7874015748031497},{"duration":0.19999999999999574,"durationTicks":480,"midi":40,"name":"E2","ticks":133440,"time":54.70856800000001,"velocity":0.7874015748031497},{"duration":0.19999999999999574,"durationTicks":480,"midi":46,"name":"A#2","ticks":133440,"time":54.70856800000001,"velocity":0.7874015748031497},{"duration":0.10000000000000142,"durationTicks":240,"midi":69,"name":"A4","ticks":133440,"time":54.70856800000001,"velocity":0.7874015748031497},{"duration":0.10000000000000142,"durationTicks":240,"midi":44,"name":"G#2","ticks":133920,"time":54.908568,"velocity":0.7874015748031497},{"duration":0.10000000000000142,"durationTicks":240,"midi":44,"name":"G#2","ticks":134160,"time":55.008568000000004,"velocity":0.7874015748031497},{"duration":0.20000000000000284,"durationTicks":480,"midi":36,"name":"C2","ticks":134400,"time":55.108568000000005,"velocity":0.7874015748031497},{"duration":0.20000000000000284,"durationTicks":480,"midi":49,"name":"C#3","ticks":134400,"time":55.108568000000005,"velocity":0.7874015748031497},{"duration":0.19999999999999574,"durationTicks":480,"midi":44,"name":"G#2","ticks":134880,"time":55.30856800000001,"velocity":0.7874015748031497},{"duration":0.20000000000000284,"durationTicks":480,"midi":40,"name":"E2","ticks":135360,"time":55.508568000000004,"velocity":0.7874015748031497},{"duration":0.20000000000000284,"durationTicks":480,"midi":46,"name":"A#2","ticks":135360,"time":55.508568000000004,"velocity":0.7874015748031497},{"duration":0.10000000000000142,"durationTicks":240,"midi":69,"name":"A4","ticks":135360,"time":55.508568000000004,"velocity":0.7874015748031497},{"duration":0.10000000000000142,"durationTicks":240,"midi":44,"name":"G#2","ticks":135840,"time":55.70856800000001,"velocity":0.7874015748031497},{"duration":0.09999999999999432,"durationTicks":240,"midi":44,"name":"G#2","ticks":136080,"time":55.80856800000001,"velocity":0.7874015748031497},{"duration":0.20000000000000284,"durationTicks":480,"midi":36,"name":"C2","ticks":136320,"time":55.908568,"velocity":0.7874015748031497},{"duration":0.20000000000000284,"durationTicks":480,"midi":44,"name":"G#2","ticks":136800,"time":56.108568000000005,"velocity":0.7874015748031497},{"duration":0.09999999999999432,"durationTicks":240,"midi":69,"name":"A4","ticks":137280,"time":56.30856800000001,"velocity":0.7874015748031497},{"duration":0.19999999999999574,"durationTicks":480,"midi":40,"name":"E2","ticks":137280,"time":56.30856800000001,"velocity":0.7874015748031497},{"duration":0.19999999999999574,"durationTicks":480,"midi":46,"name":"A#2","ticks":137280,"time":56.30856800000001,"velocity":0.7874015748031497},{"duration":0.10000000000000142,"durationTicks":240,"midi":44,"name":"G#2","ticks":137760,"time":56.508568000000004,"velocity":0.7874015748031497},{"duration":0.10000000000000142,"durationTicks":240,"midi":44,"name":"G#2","ticks":138000,"time":56.608568000000005,"velocity":0.7874015748031497},{"duration":0.19999999999999574,"durationTicks":480,"midi":36,"name":"C2","ticks":138240,"time":56.70856800000001,"velocity":0.7874015748031497},{"duration":0.20000000000000284,"durationTicks":480,"midi":44,"name":"G#2","ticks":138720,"time":56.908568,"velocity":0.7874015748031497},{"duration":0.20000000000000284,"durationTicks":480,"midi":40,"name":"E2","ticks":139200,"time":57.108568000000005,"velocity":0.7874015748031497},{"duration":0.20000000000000284,"durationTicks":480,"midi":46,"name":"A#2","ticks":139200,"time":57.108568000000005,"velocity":0.7874015748031497},{"duration":0.10000000000000142,"durationTicks":240,"midi":69,"name":"A4","ticks":139200,"time":57.108568000000005,"velocity":0.7874015748031497},{"duration":0.09999999999999432,"durationTicks":240,"midi":44,"name":"G#2","ticks":139680,"time":57.30856800000001,"velocity":0.7874015748031497},{"duration":0.10000000000000142,"durationTicks":240,"midi":44,"name":"G#2","ticks":139920,"time":57.408568,"velocity":0.7874015748031497},{"duration":0.20000000000000284,"durationTicks":480,"midi":36,"name":"C2","ticks":140160,"time":57.508568000000004,"velocity":0.7874015748031497},{"duration":0.19999999999999574,"durationTicks":480,"midi":44,"name":"G#2","ticks":140640,"time":57.70856800000001,"velocity":0.7874015748031497},{"duration":0.19999999999999574,"durationTicks":480,"midi":55,"name":"G3","ticks":140640,"time":57.70856800000001,"velocity":0.7874015748031497},{"duration":0.20000000000000284,"durationTicks":480,"midi":40,"name":"E2","ticks":141120,"time":57.908568,"velocity":0.7874015748031497},{"duration":0.20000000000000284,"durationTicks":480,"midi":46,"name":"A#2","ticks":141120,"time":57.908568,"velocity":0.7874015748031497},{"duration":0.10000000000000142,"durationTicks":240,"midi":69,"name":"A4","ticks":141120,"time":57.908568,"velocity":0.7874015748031497},{"duration":0.10000000000000142,"durationTicks":240,"midi":44,"name":"G#2","ticks":141600,"time":58.108568000000005,"velocity":0.7874015748031497},{"duration":0.10000000000000142,"durationTicks":240,"midi":44,"name":"G#2","ticks":141840,"time":58.20856800000001,"velocity":0.7874015748031497},{"duration":0.19999999999999574,"durationTicks":480,"midi":36,"name":"C2","ticks":142080,"time":58.30856800000001,"velocity":0.7874015748031497},{"duration":0.19999999999999574,"durationTicks":480,"midi":49,"name":"C#3","ticks":142080,"time":58.30856800000001,"velocity":0.7874015748031497},{"duration":0.20000000000000284,"durationTicks":480,"midi":44,"name":"G#2","ticks":142560,"time":58.508568000000004,"velocity":0.7874015748031497},{"duration":0.19999999999999574,"durationTicks":480,"midi":40,"name":"E2","ticks":143040,"time":58.70856800000001,"velocity":0.7874015748031497},{"duration":0.19999999999999574,"durationTicks":480,"midi":46,"name":"A#2","ticks":143040,"time":58.70856800000001,"velocity":0.7874015748031497},{"duration":0.10000000000000142,"durationTicks":240,"midi":69,"name":"A4","ticks":143040,"time":58.70856800000001,"velocity":0.7874015748031497},{"duration":0.10000000000000142,"durationTicks":240,"midi":44,"name":"G#2","ticks":143520,"time":58.908568,"velocity":0.7874015748031497},{"duration":0.10000000000000142,"durationTicks":240,"midi":44,"name":"G#2","ticks":143760,"time":59.008568000000004,"velocity":0.7874015748031497},{"duration":0.20000000000000284,"durationTicks":480,"midi":36,"name":"C2","ticks":144000,"time":59.108568000000005,"velocity":0.7874015748031497},{"duration":0.19999999999999574,"durationTicks":480,"midi":44,"name":"G#2","ticks":144480,"time":59.30856800000001,"velocity":0.7874015748031497},{"duration":0.10000000000000142,"durationTicks":240,"midi":69,"name":"A4","ticks":144960,"time":59.508568000000004,"velocity":0.7874015748031497},{"duration":0.20000000000000284,"durationTicks":480,"midi":40,"name":"E2","ticks":144960,"time":59.508568000000004,"velocity":0.7874015748031497},{"duration":0.20000000000000284,"durationTicks":480,"midi":46,"name":"A#2","ticks":144960,"time":59.508568000000004,"velocity":0.7874015748031497},{"duration":0.10000000000000142,"durationTicks":240,"midi":44,"name":"G#2","ticks":145440,"time":59.70856800000001,"velocity":0.7874015748031497},{"duration":0.09999999999999432,"durationTicks":240,"midi":44,"name":"G#2","ticks":145680,"time":59.80856800000001,"velocity":0.7874015748031497},{"duration":0.20000000000000284,"durationTicks":480,"midi":36,"name":"C2","ticks":145920,"time":59.908568,"velocity":0.7874015748031497},{"duration":0.10000000000000142,"durationTicks":240,"midi":40,"name":"E2","ticks":145920,"time":59.908568,"velocity":0.7874015748031497},{"duration":0.10000000000000142,"durationTicks":240,"midi":40,"name":"E2","ticks":146160,"time":60.008568000000004,"velocity":0.7874015748031497},{"duration":0.20000000000000284,"durationTicks":480,"midi":44,"name":"G#2","ticks":146400,"time":60.108568000000005,"velocity":0.7874015748031497},{"duration":0.10000000000000142,"durationTicks":240,"midi":40,"name":"E2","ticks":146400,"time":60.108568000000005,"velocity":0.7874015748031497},{"duration":0.19999999999999574,"durationTicks":480,"midi":40,"name":"E2","ticks":146880,"time":60.30856800000001,"velocity":0.7874015748031497},{"duration":0.19999999999999574,"durationTicks":480,"midi":46,"name":"A#2","ticks":146880,"time":60.30856800000001,"velocity":0.7874015748031497},{"duration":0.09999999999999432,"durationTicks":240,"midi":69,"name":"A4","ticks":146880,"time":60.30856800000001,"velocity":0.7874015748031497},{"duration":0.10000000000000142,"durationTicks":240,"midi":44,"name":"G#2","ticks":147360,"time":60.508568000000004,"velocity":0.7874015748031497},{"duration":0.10000000000000142,"durationTicks":240,"midi":40,"name":"E2","ticks":147360,"time":60.508568000000004,"velocity":0.7874015748031497},{"duration":0.10000000000000142,"durationTicks":240,"midi":44,"name":"G#2","ticks":147600,"time":60.608568000000005,"velocity":0.7874015748031497},{"duration":0.10000000000000142,"durationTicks":240,"midi":40,"name":"E2","ticks":147600,"time":60.608568000000005,"velocity":0.7874015748031497},{"duration":0.19999999999999574,"durationTicks":480,"midi":36,"name":"C2","ticks":147840,"time":60.70856800000001,"velocity":0.7874015748031497},{"duration":0.20000000000000284,"durationTicks":480,"midi":44,"name":"G#2","ticks":148320,"time":60.908568,"velocity":0.7874015748031497},{"duration":0.20000000000000284,"durationTicks":480,"midi":55,"name":"G3","ticks":148320,"time":60.908568,"velocity":0.7874015748031497},{"duration":0.20000000000000284,"durationTicks":480,"midi":40,"name":"E2","ticks":148800,"time":61.108568000000005,"velocity":0.7874015748031497},{"duration":0.20000000000000284,"durationTicks":480,"midi":46,"name":"A#2","ticks":148800,"time":61.108568000000005,"velocity":0.7874015748031497},{"duration":0.10000000000000142,"durationTicks":240,"midi":69,"name":"A4","ticks":148800,"time":61.108568000000005,"velocity":0.7874015748031497},{"duration":0.09999999999999432,"durationTicks":240,"midi":44,"name":"G#2","ticks":149280,"time":61.30856800000001,"velocity":0.7874015748031497},{"duration":0.10000000000000142,"durationTicks":240,"midi":44,"name":"G#2","ticks":149520,"time":61.408568,"velocity":0.7874015748031497},{"duration":0.20000000000000284,"durationTicks":480,"midi":36,"name":"C2","ticks":149760,"time":61.508568000000004,"velocity":0.7874015748031497},{"duration":0.20000000000000284,"durationTicks":480,"midi":49,"name":"C#3","ticks":149760,"time":61.508568000000004,"velocity":0.7874015748031497},{"duration":0.19999999999999574,"durationTicks":480,"midi":44,"name":"G#2","ticks":150240,"time":61.70856800000001,"velocity":0.7874015748031497},{"duration":0.20000000000000284,"durationTicks":480,"midi":40,"name":"E2","ticks":150720,"time":61.908568,"velocity":0.7874015748031497},{"duration":0.20000000000000284,"durationTicks":480,"midi":46,"name":"A#2","ticks":150720,"time":61.908568,"velocity":0.7874015748031497},{"duration":0.10000000000000142,"durationTicks":240,"midi":69,"name":"A4","ticks":150720,"time":61.908568,"velocity":0.7874015748031497},{"duration":0.10000000000000142,"durationTicks":240,"midi":44,"name":"G#2","ticks":151200,"time":62.108568000000005,"velocity":0.7874015748031497},{"duration":0.10000000000000142,"durationTicks":240,"midi":44,"name":"G#2","ticks":151440,"time":62.20856800000001,"velocity":0.7874015748031497},{"duration":0.19999999999999574,"durationTicks":480,"midi":36,"name":"C2","ticks":151680,"time":62.30856800000001,"velocity":0.7874015748031497},{"duration":0.20000000000000284,"durationTicks":480,"midi":44,"name":"G#2","ticks":152160,"time":62.508568000000004,"velocity":0.7874015748031497},{"duration":0.10000000000000142,"durationTicks":240,"midi":69,"name":"A4","ticks":152640,"time":62.70856800000001,"velocity":0.7874015748031497},{"duration":0.19999999999999574,"durationTicks":480,"midi":40,"name":"E2","ticks":152640,"time":62.70856800000001,"velocity":0.7874015748031497},{"duration":0.19999999999999574,"durationTicks":480,"midi":46,"name":"A#2","ticks":152640,"time":62.70856800000001,"velocity":0.7874015748031497},{"duration":0.10000000000000142,"durationTicks":240,"midi":44,"name":"G#2","ticks":153120,"time":62.908568,"velocity":0.7874015748031497},{"duration":0.10000000000000142,"durationTicks":240,"midi":44,"name":"G#2","ticks":153360,"time":63.008568000000004,"velocity":0.7874015748031497},{"duration":0.20000000000000284,"durationTicks":480,"midi":36,"name":"C2","ticks":153600,"time":63.108568000000005,"velocity":0.7874015748031497},{"duration":0.19999999999999574,"durationTicks":480,"midi":44,"name":"G#2","ticks":154080,"time":63.30856800000001,"velocity":0.7874015748031497},{"duration":0.20000000000000284,"durationTicks":480,"midi":40,"name":"E2","ticks":154560,"time":63.508568000000004,"velocity":0.7874015748031497},{"duration":0.20000000000000284,"durationTicks":480,"midi":46,"name":"A#2","ticks":154560,"time":63.508568000000004,"velocity":0.7874015748031497},{"duration":0.10000000000000142,"durationTicks":240,"midi":69,"name":"A4","ticks":154560,"time":63.508568000000004,"velocity":0.7874015748031497},{"duration":0.10000000000000142,"durationTicks":240,"midi":44,"name":"G#2","ticks":155040,"time":63.70856800000001,"velocity":0.7874015748031497},{"duration":0.09999999999999432,"durationTicks":240,"midi":44,"name":"G#2","ticks":155280,"time":63.80856800000001,"velocity":0.7874015748031497},{"duration":0.20000000000000284,"durationTicks":480,"midi":36,"name":"C2","ticks":155520,"time":63.908568,"velocity":0.7874015748031497},{"duration":0.20000000000000284,"durationTicks":480,"midi":44,"name":"G#2","ticks":156000,"time":64.108568,"velocity":0.7874015748031497},{"duration":0.20000000000000284,"durationTicks":480,"midi":55,"name":"G3","ticks":156000,"time":64.108568,"velocity":0.7874015748031497},{"duration":0.19999999999998863,"durationTicks":480,"midi":40,"name":"E2","ticks":156480,"time":64.30856800000001,"velocity":0.7874015748031497},{"duration":0.19999999999998863,"durationTicks":480,"midi":46,"name":"A#2","ticks":156480,"time":64.30856800000001,"velocity":0.7874015748031497},{"duration":0.09999999999999432,"durationTicks":240,"midi":69,"name":"A4","ticks":156480,"time":64.30856800000001,"velocity":0.7874015748031497},{"duration":0.10000000000000853,"durationTicks":240,"midi":44,"name":"G#2","ticks":156960,"time":64.508568,"velocity":0.7874015748031497},{"duration":0.09999999999999432,"durationTicks":240,"midi":44,"name":"G#2","ticks":157200,"time":64.608568,"velocity":0.7874015748031497},{"duration":0.20000000000000284,"durationTicks":480,"midi":36,"name":"C2","ticks":157440,"time":64.708568,"velocity":0.7874015748031497},{"duration":0.20000000000000284,"durationTicks":480,"midi":49,"name":"C#3","ticks":157440,"time":64.708568,"velocity":0.7874015748031497},{"duration":0.20000000000000284,"durationTicks":480,"midi":44,"name":"G#2","ticks":157920,"time":64.908568,"velocity":0.7874015748031497},{"duration":0.20000000000000284,"durationTicks":480,"midi":40,"name":"E2","ticks":158400,"time":65.108568,"velocity":0.7874015748031497},{"duration":0.20000000000000284,"durationTicks":480,"midi":46,"name":"A#2","ticks":158400,"time":65.108568,"velocity":0.7874015748031497},{"duration":0.09999999999999432,"durationTicks":240,"midi":69,"name":"A4","ticks":158400,"time":65.108568,"velocity":0.7874015748031497},{"duration":0.09999999999999432,"durationTicks":240,"midi":44,"name":"G#2","ticks":158880,"time":65.30856800000001,"velocity":0.7874015748031497},{"duration":0.09999999999999432,"durationTicks":240,"midi":44,"name":"G#2","ticks":159120,"time":65.408568,"velocity":0.7874015748031497},{"duration":0.20000000000000284,"durationTicks":480,"midi":36,"name":"C2","ticks":159360,"time":65.508568,"velocity":0.7874015748031497},{"duration":0.20000000000000284,"durationTicks":480,"midi":44,"name":"G#2","ticks":159840,"time":65.708568,"velocity":0.7874015748031497},{"duration":0.09999999999999432,"durationTicks":240,"midi":69,"name":"A4","ticks":160320,"time":65.908568,"velocity":0.7874015748031497},{"duration":0.20000000000000284,"durationTicks":480,"midi":40,"name":"E2","ticks":160320,"time":65.908568,"velocity":0.7874015748031497},{"duration":0.20000000000000284,"durationTicks":480,"midi":46,"name":"A#2","ticks":160320,"time":65.908568,"velocity":0.7874015748031497},{"duration":0.09999999999999432,"durationTicks":240,"midi":44,"name":"G#2","ticks":160800,"time":66.108568,"velocity":0.7874015748031497},{"duration":0.10000000000000853,"durationTicks":240,"midi":44,"name":"G#2","ticks":161040,"time":66.208568,"velocity":0.7874015748031497},{"duration":0.19999999999998863,"durationTicks":480,"midi":36,"name":"C2","ticks":161280,"time":66.30856800000001,"velocity":0.7874015748031497},{"duration":0.20000000000000284,"durationTicks":480,"midi":44,"name":"G#2","ticks":161760,"time":66.508568,"velocity":0.7874015748031497},{"duration":0.20000000000000284,"durationTicks":480,"midi":40,"name":"E2","ticks":162240,"time":66.708568,"velocity":0.7874015748031497},{"duration":0.20000000000000284,"durationTicks":480,"midi":46,"name":"A#2","ticks":162240,"time":66.708568,"velocity":0.7874015748031497},{"duration":0.10000000000000853,"durationTicks":240,"midi":69,"name":"A4","ticks":162240,"time":66.708568,"velocity":0.7874015748031497},{"duration":0.09999999999999432,"durationTicks":240,"midi":44,"name":"G#2","ticks":162720,"time":66.908568,"velocity":0.7874015748031497},{"duration":0.10000000000000853,"durationTicks":240,"midi":44,"name":"G#2","ticks":162960,"time":67.008568,"velocity":0.7874015748031497},{"duration":0.20000000000000284,"durationTicks":480,"midi":36,"name":"C2","ticks":163200,"time":67.108568,"velocity":0.7874015748031497},{"duration":0.19999999999998863,"durationTicks":480,"midi":44,"name":"G#2","ticks":163680,"time":67.30856800000001,"velocity":0.7874015748031497},{"duration":0.19999999999998863,"durationTicks":480,"midi":55,"name":"G3","ticks":163680,"time":67.30856800000001,"velocity":0.7874015748031497},{"duration":0.20000000000000284,"durationTicks":480,"midi":40,"name":"E2","ticks":164160,"time":67.508568,"velocity":0.7874015748031497},{"duration":0.20000000000000284,"durationTicks":480,"midi":46,"name":"A#2","ticks":164160,"time":67.508568,"velocity":0.7874015748031497},{"duration":0.10000000000000853,"durationTicks":240,"midi":69,"name":"A4","ticks":164160,"time":67.508568,"velocity":0.7874015748031497},{"duration":0.10000000000000853,"durationTicks":240,"midi":44,"name":"G#2","ticks":164640,"time":67.708568,"velocity":0.7874015748031497},{"duration":0.09999999999999432,"durationTicks":240,"midi":44,"name":"G#2","ticks":164880,"time":67.80856800000001,"velocity":0.7874015748031497},{"duration":0.20000000000000284,"durationTicks":480,"midi":36,"name":"C2","ticks":165120,"time":67.908568,"velocity":0.7874015748031497},{"duration":0.20000000000000284,"durationTicks":480,"midi":49,"name":"C#3","ticks":165120,"time":67.908568,"velocity":0.7874015748031497},{"duration":0.20000000000000284,"durationTicks":480,"midi":44,"name":"G#2","ticks":165600,"time":68.108568,"velocity":0.7874015748031497},{"duration":0.20000000000000284,"durationTicks":480,"midi":40,"name":"E2","ticks":166080,"time":68.30856800000001,"velocity":0.7874015748031497},{"duration":0.20000000000000284,"durationTicks":480,"midi":46,"name":"A#2","ticks":166080,"time":68.30856800000001,"velocity":0.7874015748031497},{"duration":0.09999999999999432,"durationTicks":240,"midi":69,"name":"A4","ticks":166080,"time":68.30856800000001,"velocity":0.7874015748031497},{"duration":0.09999999999999432,"durationTicks":240,"midi":44,"name":"G#2","ticks":166560,"time":68.50856800000001,"velocity":0.7874015748031497},{"duration":0.09999999999999432,"durationTicks":240,"midi":44,"name":"G#2","ticks":166800,"time":68.608568,"velocity":0.7874015748031497},{"duration":0.20000000000000284,"durationTicks":480,"midi":36,"name":"C2","ticks":167040,"time":68.708568,"velocity":0.7874015748031497},{"duration":0.20000000000000284,"durationTicks":480,"midi":44,"name":"G#2","ticks":167520,"time":68.908568,"velocity":0.7874015748031497},{"duration":0.09999999999999432,"durationTicks":240,"midi":69,"name":"A4","ticks":168000,"time":69.108568,"velocity":0.7874015748031497},{"duration":0.20000000000000284,"durationTicks":480,"midi":40,"name":"E2","ticks":168000,"time":69.108568,"velocity":0.7874015748031497},{"duration":0.20000000000000284,"durationTicks":480,"midi":46,"name":"A#2","ticks":168000,"time":69.108568,"velocity":0.7874015748031497},{"duration":0.09999999999999432,"durationTicks":240,"midi":44,"name":"G#2","ticks":168480,"time":69.30856800000001,"velocity":0.7874015748031497},{"duration":0.10000000000000853,"durationTicks":240,"midi":44,"name":"G#2","ticks":168720,"time":69.408568,"velocity":0.7874015748031497},{"duration":0.19999999999998863,"durationTicks":480,"midi":36,"name":"C2","ticks":168960,"time":69.50856800000001,"velocity":0.7874015748031497},{"duration":0.20000000000000284,"durationTicks":480,"midi":44,"name":"G#2","ticks":169440,"time":69.708568,"velocity":0.7874015748031497},{"duration":0.20000000000000284,"durationTicks":480,"midi":40,"name":"E2","ticks":169920,"time":69.908568,"velocity":0.7874015748031497},{"duration":0.20000000000000284,"durationTicks":480,"midi":46,"name":"A#2","ticks":169920,"time":69.908568,"velocity":0.7874015748031497},{"duration":0.10000000000000853,"durationTicks":240,"midi":69,"name":"A4","ticks":169920,"time":69.908568,"velocity":0.7874015748031497},{"duration":0.09999999999999432,"durationTicks":240,"midi":44,"name":"G#2","ticks":170400,"time":70.108568,"velocity":0.7874015748031497},{"duration":0.10000000000000853,"durationTicks":240,"midi":44,"name":"G#2","ticks":170640,"time":70.208568,"velocity":0.7874015748031497},{"duration":0.20000000000000284,"durationTicks":480,"midi":36,"name":"C2","ticks":170880,"time":70.30856800000001,"velocity":0.7874015748031497},{"duration":0.19999999999998863,"durationTicks":480,"midi":44,"name":"G#2","ticks":171360,"time":70.50856800000001,"velocity":0.7874015748031497},{"duration":0.19999999999998863,"durationTicks":480,"midi":55,"name":"G3","ticks":171360,"time":70.50856800000001,"velocity":0.7874015748031497},{"duration":0.20000000000000284,"durationTicks":480,"midi":40,"name":"E2","ticks":171840,"time":70.708568,"velocity":0.7874015748031497},{"duration":0.20000000000000284,"durationTicks":480,"midi":46,"name":"A#2","ticks":171840,"time":70.708568,"velocity":0.7874015748031497},{"duration":0.10000000000000853,"durationTicks":240,"midi":69,"name":"A4","ticks":171840,"time":70.708568,"velocity":0.7874015748031497},{"duration":0.10000000000000853,"durationTicks":240,"midi":44,"name":"G#2","ticks":172320,"time":70.908568,"velocity":0.7874015748031497},{"duration":0.09999999999999432,"durationTicks":240,"midi":44,"name":"G#2","ticks":172560,"time":71.00856800000001,"velocity":0.7874015748031497},{"duration":0.20000000000000284,"durationTicks":480,"midi":36,"name":"C2","ticks":172800,"time":71.108568,"velocity":0.7874015748031497},{"duration":0.20000000000000284,"durationTicks":480,"midi":49,"name":"C#3","ticks":172800,"time":71.108568,"velocity":0.7874015748031497},{"duration":0.20000000000000284,"durationTicks":480,"midi":44,"name":"G#2","ticks":173280,"time":71.30856800000001,"velocity":0.7874015748031497},{"duration":0.19999999999998863,"durationTicks":480,"midi":40,"name":"E2","ticks":173760,"time":71.50856800000001,"velocity":0.7874015748031497},{"duration":0.19999999999998863,"durationTicks":480,"midi":46,"name":"A#2","ticks":173760,"time":71.50856800000001,"velocity":0.7874015748031497},{"duration":0.09999999999999432,"durationTicks":240,"midi":69,"name":"A4","ticks":173760,"time":71.50856800000001,"velocity":0.7874015748031497},{"duration":0.10000000000000853,"durationTicks":240,"midi":44,"name":"G#2","ticks":174240,"time":71.708568,"velocity":0.7874015748031497},{"duration":0.09999999999999432,"durationTicks":240,"midi":44,"name":"G#2","ticks":174480,"time":71.80856800000001,"velocity":0.7874015748031497},{"duration":0.20000000000000284,"durationTicks":480,"midi":36,"name":"C2","ticks":174720,"time":71.908568,"velocity":0.7874015748031497},{"duration":0.20000000000000284,"durationTicks":480,"midi":44,"name":"G#2","ticks":175200,"time":72.108568,"velocity":0.7874015748031497},{"duration":0.09999999999999432,"durationTicks":240,"midi":69,"name":"A4","ticks":175680,"time":72.30856800000001,"velocity":0.7874015748031497},{"duration":0.20000000000000284,"durationTicks":480,"midi":40,"name":"E2","ticks":175680,"time":72.30856800000001,"velocity":0.7874015748031497},{"duration":0.20000000000000284,"durationTicks":480,"midi":46,"name":"A#2","ticks":175680,"time":72.30856800000001,"velocity":0.7874015748031497},{"duration":0.09999999999999432,"durationTicks":240,"midi":44,"name":"G#2","ticks":176160,"time":72.50856800000001,"velocity":0.7874015748031497},{"duration":0.09999999999999432,"durationTicks":240,"midi":44,"name":"G#2","ticks":176400,"time":72.608568,"velocity":0.7874015748031497},{"duration":0.20000000000000284,"durationTicks":480,"midi":36,"name":"C2","ticks":176640,"time":72.708568,"velocity":0.7874015748031497},{"duration":0.20000000000000284,"durationTicks":480,"midi":44,"name":"G#2","ticks":177120,"time":72.908568,"velocity":0.7874015748031497},{"duration":0.20000000000000284,"durationTicks":480,"midi":40,"name":"E2","ticks":177600,"time":73.108568,"velocity":0.7874015748031497},{"duration":0.20000000000000284,"durationTicks":480,"midi":46,"name":"A#2","ticks":177600,"time":73.108568,"velocity":0.7874015748031497},{"duration":0.09999999999999432,"durationTicks":240,"midi":69,"name":"A4","ticks":177600,"time":73.108568,"velocity":0.7874015748031497},{"duration":0.09999999999999432,"durationTicks":240,"midi":44,"name":"G#2","ticks":178080,"time":73.30856800000001,"velocity":0.7874015748031497},{"duration":0.10000000000000853,"durationTicks":240,"midi":44,"name":"G#2","ticks":178320,"time":73.408568,"velocity":0.7874015748031497},{"duration":0.19999999999998863,"durationTicks":480,"midi":36,"name":"C2","ticks":178560,"time":73.50856800000001,"velocity":0.7874015748031497},{"duration":0.20000000000000284,"durationTicks":480,"midi":44,"name":"G#2","ticks":179040,"time":73.708568,"velocity":0.7874015748031497},{"duration":0.20000000000000284,"durationTicks":480,"midi":55,"name":"G3","ticks":179040,"time":73.708568,"velocity":0.7874015748031497},{"duration":0.20000000000000284,"durationTicks":480,"midi":40,"name":"E2","ticks":179520,"time":73.908568,"velocity":0.7874015748031497},{"duration":0.20000000000000284,"durationTicks":480,"midi":46,"name":"A#2","ticks":179520,"time":73.908568,"velocity":0.7874015748031497},{"duration":0.10000000000000853,"durationTicks":240,"midi":69,"name":"A4","ticks":179520,"time":73.908568,"velocity":0.7874015748031497},{"duration":0.09999999999999432,"durationTicks":240,"midi":44,"name":"G#2","ticks":180000,"time":74.108568,"velocity":0.7874015748031497},{"duration":0.10000000000000853,"durationTicks":240,"midi":44,"name":"G#2","ticks":180240,"time":74.208568,"velocity":0.7874015748031497},{"duration":0.20000000000000284,"durationTicks":480,"midi":36,"name":"C2","ticks":180480,"time":74.30856800000001,"velocity":0.7874015748031497},{"duration":0.20000000000000284,"durationTicks":480,"midi":49,"name":"C#3","ticks":180480,"time":74.30856800000001,"velocity":0.7874015748031497},{"duration":0.19999999999998863,"durationTicks":480,"midi":44,"name":"G#2","ticks":180960,"time":74.50856800000001,"velocity":0.7874015748031497},{"duration":0.20000000000000284,"durationTicks":480,"midi":40,"name":"E2","ticks":181440,"time":74.708568,"velocity":0.7874015748031497},{"duration":0.20000000000000284,"durationTicks":480,"midi":46,"name":"A#2","ticks":181440,"time":74.708568,"velocity":0.7874015748031497},{"duration":0.10000000000000853,"durationTicks":240,"midi":69,"name":"A4","ticks":181440,"time":74.708568,"velocity":0.7874015748031497},{"duration":0.10000000000000853,"durationTicks":240,"midi":44,"name":"G#2","ticks":181920,"time":74.908568,"velocity":0.7874015748031497},{"duration":0.09999999999999432,"durationTicks":240,"midi":44,"name":"G#2","ticks":182160,"time":75.00856800000001,"velocity":0.7874015748031497},{"duration":0.20000000000000284,"durationTicks":480,"midi":36,"name":"C2","ticks":182400,"time":75.108568,"velocity":0.7874015748031497},{"duration":0.20000000000000284,"durationTicks":480,"midi":44,"name":"G#2","ticks":182880,"time":75.30856800000001,"velocity":0.7874015748031497},{"duration":0.09999999999999432,"durationTicks":240,"midi":69,"name":"A4","ticks":183360,"time":75.50856800000001,"velocity":0.7874015748031497},{"duration":0.19999999999998863,"durationTicks":480,"midi":40,"name":"E2","ticks":183360,"time":75.50856800000001,"velocity":0.7874015748031497},{"duration":0.19999999999998863,"durationTicks":480,"midi":46,"name":"A#2","ticks":183360,"time":75.50856800000001,"velocity":0.7874015748031497},{"duration":0.10000000000000853,"durationTicks":240,"midi":44,"name":"G#2","ticks":183840,"time":75.708568,"velocity":0.7874015748031497},{"duration":0.09999999999999432,"durationTicks":240,"midi":44,"name":"G#2","ticks":184080,"time":75.80856800000001,"velocity":0.7874015748031497},{"duration":0.20000000000000284,"durationTicks":480,"midi":36,"name":"C2","ticks":184320,"time":75.908568,"velocity":0.7874015748031497},{"duration":0.20000000000000284,"durationTicks":480,"midi":44,"name":"G#2","ticks":184800,"time":76.108568,"velocity":0.7874015748031497},{"duration":0.20000000000000284,"durationTicks":480,"midi":40,"name":"E2","ticks":185280,"time":76.30856800000001,"velocity":0.7874015748031497},{"duration":0.20000000000000284,"durationTicks":480,"midi":46,"name":"A#2","ticks":185280,"time":76.30856800000001,"velocity":0.7874015748031497},{"duration":0.09999999999999432,"durationTicks":240,"midi":69,"name":"A4","ticks":185280,"time":76.30856800000001,"velocity":0.7874015748031497},{"duration":0.09999999999999432,"durationTicks":240,"midi":44,"name":"G#2","ticks":185760,"time":76.50856800000001,"velocity":0.7874015748031497},{"duration":0.09999999999999432,"durationTicks":240,"midi":44,"name":"G#2","ticks":186000,"time":76.608568,"velocity":0.7874015748031497},{"duration":0.20000000000000284,"durationTicks":480,"midi":36,"name":"C2","ticks":186240,"time":76.708568,"velocity":0.7874015748031497},{"duration":0.20000000000000284,"durationTicks":480,"midi":44,"name":"G#2","ticks":186720,"time":76.908568,"velocity":0.7874015748031497},{"duration":0.20000000000000284,"durationTicks":480,"midi":55,"name":"G3","ticks":186720,"time":76.908568,"velocity":0.7874015748031497},{"duration":0.20000000000000284,"durationTicks":480,"midi":40,"name":"E2","ticks":187200,"time":77.108568,"velocity":0.7874015748031497},{"duration":0.20000000000000284,"durationTicks":480,"midi":46,"name":"A#2","ticks":187200,"time":77.108568,"velocity":0.7874015748031497},{"duration":0.09999999999999432,"durationTicks":240,"midi":69,"name":"A4","ticks":187200,"time":77.108568,"velocity":0.7874015748031497},{"duration":0.09999999999999432,"durationTicks":240,"midi":44,"name":"G#2","ticks":187680,"time":77.30856800000001,"velocity":0.7874015748031497},{"duration":0.10000000000000853,"durationTicks":240,"midi":44,"name":"G#2","ticks":187920,"time":77.408568,"velocity":0.7874015748031497},{"duration":0.19999999999998863,"durationTicks":480,"midi":36,"name":"C2","ticks":188160,"time":77.50856800000001,"velocity":0.7874015748031497},{"duration":0.19999999999998863,"durationTicks":480,"midi":49,"name":"C#3","ticks":188160,"time":77.50856800000001,"velocity":0.7874015748031497},{"duration":0.20000000000000284,"durationTicks":480,"midi":44,"name":"G#2","ticks":188640,"time":77.708568,"velocity":0.7874015748031497},{"duration":0.20000000000000284,"durationTicks":480,"midi":40,"name":"E2","ticks":189120,"time":77.908568,"velocity":0.7874015748031497},{"duration":0.20000000000000284,"durationTicks":480,"midi":46,"name":"A#2","ticks":189120,"time":77.908568,"velocity":0.7874015748031497},{"duration":0.10000000000000853,"durationTicks":240,"midi":69,"name":"A4","ticks":189120,"time":77.908568,"velocity":0.7874015748031497},{"duration":0.09999999999999432,"durationTicks":240,"midi":44,"name":"G#2","ticks":189600,"time":78.108568,"velocity":0.7874015748031497},{"duration":0.10000000000000853,"durationTicks":240,"midi":44,"name":"G#2","ticks":189840,"time":78.208568,"velocity":0.7874015748031497},{"duration":0.20000000000000284,"durationTicks":480,"midi":36,"name":"C2","ticks":190080,"time":78.30856800000001,"velocity":0.7874015748031497},{"duration":0.19999999999998863,"durationTicks":480,"midi":44,"name":"G#2","ticks":190560,"time":78.50856800000001,"velocity":0.7874015748031497},{"duration":0.10000000000000853,"durationTicks":240,"midi":69,"name":"A4","ticks":191040,"time":78.708568,"velocity":0.7874015748031497},{"duration":0.20000000000000284,"durationTicks":480,"midi":40,"name":"E2","ticks":191040,"time":78.708568,"velocity":0.7874015748031497},{"duration":0.20000000000000284,"durationTicks":480,"midi":46,"name":"A#2","ticks":191040,"time":78.708568,"velocity":0.7874015748031497},{"duration":0.10000000000000853,"durationTicks":240,"midi":44,"name":"G#2","ticks":191520,"time":78.908568,"velocity":0.7874015748031497},{"duration":0.09999999999999432,"durationTicks":240,"midi":44,"name":"G#2","ticks":191760,"time":79.00856800000001,"velocity":0.7874015748031497},{"duration":0.20000000000000284,"durationTicks":480,"midi":36,"name":"C2","ticks":192000,"time":79.108568,"velocity":0.7874015748031497},{"duration":0.20000000000000284,"durationTicks":480,"midi":44,"name":"G#2","ticks":192480,"time":79.30856800000001,"velocity":0.7874015748031497},{"duration":0.19999999999998863,"durationTicks":480,"midi":40,"name":"E2","ticks":192960,"time":79.50856800000001,"velocity":0.7874015748031497},{"duration":0.19999999999998863,"durationTicks":480,"midi":46,"name":"A#2","ticks":192960,"time":79.50856800000001,"velocity":0.7874015748031497},{"duration":0.09999999999999432,"durationTicks":240,"midi":69,"name":"A4","ticks":192960,"time":79.50856800000001,"velocity":0.7874015748031497},{"duration":0.10000000000000853,"durationTicks":240,"midi":44,"name":"G#2","ticks":193440,"time":79.708568,"velocity":0.7874015748031497},{"duration":0.09999999999999432,"durationTicks":240,"midi":44,"name":"G#2","ticks":193680,"time":79.80856800000001,"velocity":0.7874015748031497},{"duration":0.20000000000000284,"durationTicks":480,"midi":36,"name":"C2","ticks":193920,"time":79.908568,"velocity":0.7874015748031497},{"duration":0.20000000000000284,"durationTicks":480,"midi":44,"name":"G#2","ticks":194400,"time":80.108568,"velocity":0.7874015748031497},{"duration":0.20000000000000284,"durationTicks":480,"midi":55,"name":"G3","ticks":194400,"time":80.108568,"velocity":0.7874015748031497},{"duration":0.20000000000000284,"durationTicks":480,"midi":40,"name":"E2","ticks":194880,"time":80.30856800000001,"velocity":0.7874015748031497},{"duration":0.20000000000000284,"durationTicks":480,"midi":46,"name":"A#2","ticks":194880,"time":80.30856800000001,"velocity":0.7874015748031497},{"duration":0.09999999999999432,"durationTicks":240,"midi":69,"name":"A4","ticks":194880,"time":80.30856800000001,"velocity":0.7874015748031497},{"duration":0.09999999999999432,"durationTicks":240,"midi":44,"name":"G#2","ticks":195360,"time":80.50856800000001,"velocity":0.7874015748031497},{"duration":0.10000000000000853,"durationTicks":240,"midi":44,"name":"G#2","ticks":195600,"time":80.608568,"velocity":0.7874015748031497},{"duration":0.19999999999998863,"durationTicks":480,"midi":36,"name":"C2","ticks":195840,"time":80.70856800000001,"velocity":0.7874015748031497},{"duration":0.19999999999998863,"durationTicks":480,"midi":49,"name":"C#3","ticks":195840,"time":80.70856800000001,"velocity":0.7874015748031497},{"duration":0.20000000000000284,"durationTicks":480,"midi":44,"name":"G#2","ticks":196320,"time":80.908568,"velocity":0.7874015748031497},{"duration":0.20000000000000284,"durationTicks":480,"midi":40,"name":"E2","ticks":196800,"time":81.108568,"velocity":0.7874015748031497},{"duration":0.20000000000000284,"durationTicks":480,"midi":46,"name":"A#2","ticks":196800,"time":81.108568,"velocity":0.7874015748031497},{"duration":0.10000000000000853,"durationTicks":240,"midi":69,"name":"A4","ticks":196800,"time":81.108568,"velocity":0.7874015748031497},{"duration":0.09999999999999432,"durationTicks":240,"midi":44,"name":"G#2","ticks":197280,"time":81.30856800000001,"velocity":0.7874015748031497},{"duration":0.10000000000000853,"durationTicks":240,"midi":44,"name":"G#2","ticks":197520,"time":81.408568,"velocity":0.7874015748031497},{"duration":0.20000000000000284,"durationTicks":480,"midi":36,"name":"C2","ticks":197760,"time":81.50856800000001,"velocity":0.7874015748031497},{"duration":0.19999999999998863,"durationTicks":480,"midi":44,"name":"G#2","ticks":198240,"time":81.70856800000001,"velocity":0.7874015748031497},{"duration":0.10000000000000853,"durationTicks":240,"midi":69,"name":"A4","ticks":198720,"time":81.908568,"velocity":0.7874015748031497},{"duration":0.20000000000000284,"durationTicks":480,"midi":40,"name":"E2","ticks":198720,"time":81.908568,"velocity":0.7874015748031497},{"duration":0.20000000000000284,"durationTicks":480,"midi":46,"name":"A#2","ticks":198720,"time":81.908568,"velocity":0.7874015748031497},{"duration":0.10000000000000853,"durationTicks":240,"midi":44,"name":"G#2","ticks":199200,"time":82.108568,"velocity":0.7874015748031497},{"duration":0.09999999999999432,"durationTicks":240,"midi":44,"name":"G#2","ticks":199440,"time":82.20856800000001,"velocity":0.7874015748031497},{"duration":0.20000000000000284,"durationTicks":480,"midi":36,"name":"C2","ticks":199680,"time":82.30856800000001,"velocity":0.7874015748031497},{"duration":0.20000000000000284,"durationTicks":480,"midi":44,"name":"G#2","ticks":200160,"time":82.50856800000001,"velocity":0.7874015748031497},{"duration":0.19999999999998863,"durationTicks":480,"midi":40,"name":"E2","ticks":200640,"time":82.70856800000001,"velocity":0.7874015748031497},{"duration":0.19999999999998863,"durationTicks":480,"midi":46,"name":"A#2","ticks":200640,"time":82.70856800000001,"velocity":0.7874015748031497},{"duration":0.09999999999999432,"durationTicks":240,"midi":69,"name":"A4","ticks":200640,"time":82.70856800000001,"velocity":0.7874015748031497},{"duration":0.10000000000000853,"durationTicks":240,"midi":44,"name":"G#2","ticks":201120,"time":82.908568,"velocity":0.7874015748031497},{"duration":0.09999999999999432,"durationTicks":240,"midi":44,"name":"G#2","ticks":201360,"time":83.00856800000001,"velocity":0.7874015748031497},{"duration":0.20000000000000284,"durationTicks":480,"midi":36,"name":"C2","ticks":201600,"time":83.108568,"velocity":0.7874015748031497},{"duration":0.20000000000000284,"durationTicks":480,"midi":44,"name":"G#2","ticks":202080,"time":83.30856800000001,"velocity":0.7874015748031497},{"duration":0.20000000000000284,"durationTicks":480,"midi":55,"name":"G3","ticks":202080,"time":83.30856800000001,"velocity":0.7874015748031497},{"duration":0.20000000000000284,"durationTicks":480,"midi":40,"name":"E2","ticks":202560,"time":83.50856800000001,"velocity":0.7874015748031497},{"duration":0.20000000000000284,"durationTicks":480,"midi":46,"name":"A#2","ticks":202560,"time":83.50856800000001,"velocity":0.7874015748031497},{"duration":0.09999999999999432,"durationTicks":240,"midi":69,"name":"A4","ticks":202560,"time":83.50856800000001,"velocity":0.7874015748031497},{"duration":0.09999999999999432,"durationTicks":240,"midi":44,"name":"G#2","ticks":203040,"time":83.70856800000001,"velocity":0.7874015748031497},{"duration":0.09999999999999432,"durationTicks":240,"midi":44,"name":"G#2","ticks":203280,"time":83.80856800000001,"velocity":0.7874015748031497},{"duration":0.20000000000000284,"durationTicks":480,"midi":36,"name":"C2","ticks":203520,"time":83.908568,"velocity":0.7874015748031497},{"duration":0.20000000000000284,"durationTicks":480,"midi":49,"name":"C#3","ticks":203520,"time":83.908568,"velocity":0.7874015748031497},{"duration":0.20000000000000284,"durationTicks":480,"midi":44,"name":"G#2","ticks":204000,"time":84.108568,"velocity":0.7874015748031497},{"duration":0.20000000000000284,"durationTicks":480,"midi":40,"name":"E2","ticks":204480,"time":84.30856800000001,"velocity":0.7874015748031497},{"duration":0.20000000000000284,"durationTicks":480,"midi":46,"name":"A#2","ticks":204480,"time":84.30856800000001,"velocity":0.7874015748031497},{"duration":0.09999999999999432,"durationTicks":240,"midi":69,"name":"A4","ticks":204480,"time":84.30856800000001,"velocity":0.7874015748031497},{"duration":0.09999999999999432,"durationTicks":240,"midi":44,"name":"G#2","ticks":204960,"time":84.50856800000001,"velocity":0.7874015748031497},{"duration":0.10000000000000853,"durationTicks":240,"midi":44,"name":"G#2","ticks":205200,"time":84.608568,"velocity":0.7874015748031497},{"duration":0.19999999999998863,"durationTicks":480,"midi":36,"name":"C2","ticks":205440,"time":84.70856800000001,"velocity":0.7874015748031497},{"duration":0.20000000000000284,"durationTicks":480,"midi":44,"name":"G#2","ticks":205920,"time":84.908568,"velocity":0.7874015748031497},{"duration":0.10000000000000853,"durationTicks":240,"midi":69,"name":"A4","ticks":206400,"time":85.108568,"velocity":0.7874015748031497},{"duration":0.20000000000000284,"durationTicks":480,"midi":40,"name":"E2","ticks":206400,"time":85.108568,"velocity":0.7874015748031497},{"duration":0.20000000000000284,"durationTicks":480,"midi":46,"name":"A#2","ticks":206400,"time":85.108568,"velocity":0.7874015748031497},{"duration":0.09999999999999432,"durationTicks":240,"midi":44,"name":"G#2","ticks":206880,"time":85.30856800000001,"velocity":0.7874015748031497},{"duration":0.10000000000000853,"durationTicks":240,"midi":44,"name":"G#2","ticks":207120,"time":85.408568,"velocity":0.7874015748031497},{"duration":0.20000000000000284,"durationTicks":480,"midi":36,"name":"C2","ticks":207360,"time":85.50856800000001,"velocity":0.7874015748031497},{"duration":0.19999999999998863,"durationTicks":480,"midi":44,"name":"G#2","ticks":207840,"time":85.70856800000001,"velocity":0.7874015748031497},{"duration":0.20000000000000284,"durationTicks":480,"midi":40,"name":"E2","ticks":208320,"time":85.908568,"velocity":0.7874015748031497},{"duration":0.20000000000000284,"durationTicks":480,"midi":46,"name":"A#2","ticks":208320,"time":85.908568,"velocity":0.7874015748031497},{"duration":0.10000000000000853,"durationTicks":240,"midi":69,"name":"A4","ticks":208320,"time":85.908568,"velocity":0.7874015748031497},{"duration":0.10000000000000853,"durationTicks":240,"midi":44,"name":"G#2","ticks":208800,"time":86.108568,"velocity":0.7874015748031497},{"duration":0.09999999999999432,"durationTicks":240,"midi":44,"name":"G#2","ticks":209040,"time":86.20856800000001,"velocity":0.7874015748031497},{"duration":0.20000000000000284,"durationTicks":480,"midi":36,"name":"C2","ticks":209280,"time":86.30856800000001,"velocity":0.7874015748031497},{"duration":0.20000000000000284,"durationTicks":480,"midi":44,"name":"G#2","ticks":209760,"time":86.50856800000001,"velocity":0.7874015748031497},{"duration":0.20000000000000284,"durationTicks":480,"midi":55,"name":"G3","ticks":209760,"time":86.50856800000001,"velocity":0.7874015748031497},{"duration":0.09999999999999432,"durationTicks":240,"midi":40,"name":"E2","ticks":210240,"time":86.70856800000001,"velocity":0.7874015748031497},{"duration":0.19999999999998863,"durationTicks":480,"midi":46,"name":"A#2","ticks":210240,"time":86.70856800000001,"velocity":0.7874015748031497},{"duration":0.09999999999999432,"durationTicks":240,"midi":69,"name":"A4","ticks":210240,"time":86.70856800000001,"velocity":0.7874015748031497},{"duration":0.09999999999999432,"durationTicks":240,"midi":40,"name":"E2","ticks":210480,"time":86.80856800000001,"velocity":0.7874015748031497},{"duration":0.10000000000000853,"durationTicks":240,"midi":44,"name":"G#2","ticks":210720,"time":86.908568,"velocity":0.7874015748031497},{"duration":0.10000000000000853,"durationTicks":240,"midi":40,"name":"E2","ticks":210720,"time":86.908568,"velocity":0.7874015748031497},{"duration":0.09999999999999432,"durationTicks":240,"midi":44,"name":"G#2","ticks":210960,"time":87.00856800000001,"velocity":0.7874015748031497},{"duration":0.20000000000000284,"durationTicks":480,"midi":36,"name":"C2","ticks":211200,"time":87.108568,"velocity":0.7874015748031497},{"duration":0.20000000000000284,"durationTicks":480,"midi":49,"name":"C#3","ticks":211200,"time":87.108568,"velocity":0.7874015748031497},{"duration":0.20000000000000284,"durationTicks":480,"midi":44,"name":"G#2","ticks":211680,"time":87.30856800000001,"velocity":0.7874015748031497},{"duration":0.20000000000000284,"durationTicks":480,"midi":40,"name":"E2","ticks":212160,"time":87.50856800000001,"velocity":0.7874015748031497},{"duration":0.20000000000000284,"durationTicks":480,"midi":46,"name":"A#2","ticks":212160,"time":87.50856800000001,"velocity":0.7874015748031497},{"duration":0.09999999999999432,"durationTicks":240,"midi":69,"name":"A4","ticks":212160,"time":87.50856800000001,"velocity":0.7874015748031497},{"duration":0.09999999999999432,"durationTicks":240,"midi":44,"name":"G#2","ticks":212640,"time":87.70856800000001,"velocity":0.7874015748031497},{"duration":0.09999999999999432,"durationTicks":240,"midi":44,"name":"G#2","ticks":212880,"time":87.80856800000001,"velocity":0.7874015748031497},{"duration":0.20000000000000284,"durationTicks":480,"midi":36,"name":"C2","ticks":213120,"time":87.908568,"velocity":0.7874015748031497},{"duration":0.20000000000000284,"durationTicks":480,"midi":44,"name":"G#2","ticks":213600,"time":88.108568,"velocity":0.7874015748031497},{"duration":0.09999999999999432,"durationTicks":240,"midi":69,"name":"A4","ticks":214080,"time":88.30856800000001,"velocity":0.7874015748031497},{"duration":0.20000000000000284,"durationTicks":480,"midi":40,"name":"E2","ticks":214080,"time":88.30856800000001,"velocity":0.7874015748031497},{"duration":0.20000000000000284,"durationTicks":480,"midi":46,"name":"A#2","ticks":214080,"time":88.30856800000001,"velocity":0.7874015748031497},{"duration":0.09999999999999432,"durationTicks":240,"midi":44,"name":"G#2","ticks":214560,"time":88.50856800000001,"velocity":0.7874015748031497},{"duration":0.10000000000000853,"durationTicks":240,"midi":44,"name":"G#2","ticks":214800,"time":88.608568,"velocity":0.7874015748031497},{"duration":0.19999999999998863,"durationTicks":480,"midi":36,"name":"C2","ticks":215040,"time":88.70856800000001,"velocity":0.7874015748031497},{"duration":0.20000000000000284,"durationTicks":480,"midi":44,"name":"G#2","ticks":215520,"time":88.908568,"velocity":0.7874015748031497},{"duration":0.20000000000000284,"durationTicks":480,"midi":40,"name":"E2","ticks":216000,"time":89.108568,"velocity":0.7874015748031497},{"duration":0.20000000000000284,"durationTicks":480,"midi":46,"name":"A#2","ticks":216000,"time":89.108568,"velocity":0.7874015748031497},{"duration":0.10000000000000853,"durationTicks":240,"midi":69,"name":"A4","ticks":216000,"time":89.108568,"velocity":0.7874015748031497},{"duration":0.09999999999999432,"durationTicks":240,"midi":44,"name":"G#2","ticks":216480,"time":89.30856800000001,"velocity":0.7874015748031497},{"duration":0.10000000000000853,"durationTicks":240,"midi":44,"name":"G#2","ticks":216720,"time":89.408568,"velocity":0.7874015748031497},{"duration":0.20000000000000284,"durationTicks":480,"midi":36,"name":"C2","ticks":216960,"time":89.50856800000001,"velocity":0.7874015748031497},{"duration":0.19999999999998863,"durationTicks":480,"midi":44,"name":"G#2","ticks":217440,"time":89.70856800000001,"velocity":0.7874015748031497},{"duration":0.19999999999998863,"durationTicks":480,"midi":55,"name":"G3","ticks":217440,"time":89.70856800000001,"velocity":0.7874015748031497},{"duration":0.20000000000000284,"durationTicks":480,"midi":40,"name":"E2","ticks":217920,"time":89.908568,"velocity":0.7874015748031497},{"duration":0.20000000000000284,"durationTicks":480,"midi":46,"name":"A#2","ticks":217920,"time":89.908568,"velocity":0.7874015748031497},{"duration":0.10000000000000853,"durationTicks":240,"midi":69,"name":"A4","ticks":217920,"time":89.908568,"velocity":0.7874015748031497},{"duration":0.10000000000000853,"durationTicks":240,"midi":44,"name":"G#2","ticks":218400,"time":90.108568,"velocity":0.7874015748031497},{"duration":0.09999999999999432,"durationTicks":240,"midi":44,"name":"G#2","ticks":218640,"time":90.20856800000001,"velocity":0.7874015748031497},{"duration":0.20000000000000284,"durationTicks":480,"midi":36,"name":"C2","ticks":218880,"time":90.30856800000001,"velocity":0.7874015748031497},{"duration":0.20000000000000284,"durationTicks":480,"midi":49,"name":"C#3","ticks":218880,"time":90.30856800000001,"velocity":0.7874015748031497},{"duration":0.20000000000000284,"durationTicks":480,"midi":44,"name":"G#2","ticks":219360,"time":90.50856800000001,"velocity":0.7874015748031497},{"duration":0.19999999999998863,"durationTicks":480,"midi":40,"name":"E2","ticks":219840,"time":90.70856800000001,"velocity":0.7874015748031497},{"duration":0.19999999999998863,"durationTicks":480,"midi":46,"name":"A#2","ticks":219840,"time":90.70856800000001,"velocity":0.7874015748031497},{"duration":0.09999999999999432,"durationTicks":240,"midi":69,"name":"A4","ticks":219840,"time":90.70856800000001,"velocity":0.7874015748031497},{"duration":0.10000000000000853,"durationTicks":240,"midi":44,"name":"G#2","ticks":220320,"time":90.908568,"velocity":0.7874015748031497},{"duration":0.09999999999999432,"durationTicks":240,"midi":44,"name":"G#2","ticks":220560,"time":91.00856800000001,"velocity":0.7874015748031497},{"duration":0.20000000000000284,"durationTicks":480,"midi":36,"name":"C2","ticks":220800,"time":91.108568,"velocity":0.7874015748031497},{"duration":0.20000000000000284,"durationTicks":480,"midi":44,"name":"G#2","ticks":221280,"time":91.30856800000001,"velocity":0.7874015748031497},{"duration":0.09999999999999432,"durationTicks":240,"midi":69,"name":"A4","ticks":221760,"time":91.50856800000001,"velocity":0.7874015748031497},{"duration":0.20000000000000284,"durationTicks":480,"midi":40,"name":"E2","ticks":221760,"time":91.50856800000001,"velocity":0.7874015748031497},{"duration":0.20000000000000284,"durationTicks":480,"midi":46,"name":"A#2","ticks":221760,"time":91.50856800000001,"velocity":0.7874015748031497},{"duration":0.09999999999999432,"durationTicks":240,"midi":44,"name":"G#2","ticks":222240,"time":91.70856800000001,"velocity":0.7874015748031497},{"duration":0.09999999999999432,"durationTicks":240,"midi":44,"name":"G#2","ticks":222480,"time":91.80856800000001,"velocity":0.7874015748031497},{"duration":0.20000000000000284,"durationTicks":480,"midi":36,"name":"C2","ticks":222720,"time":91.908568,"velocity":0.7874015748031497},{"duration":0.20000000000000284,"durationTicks":480,"midi":44,"name":"G#2","ticks":223200,"time":92.108568,"velocity":0.7874015748031497},{"duration":0.20000000000000284,"durationTicks":480,"midi":40,"name":"E2","ticks":223680,"time":92.30856800000001,"velocity":0.7874015748031497},{"duration":0.20000000000000284,"durationTicks":480,"midi":46,"name":"A#2","ticks":223680,"time":92.30856800000001,"velocity":0.7874015748031497},{"duration":0.09999999999999432,"durationTicks":240,"midi":69,"name":"A4","ticks":223680,"time":92.30856800000001,"velocity":0.7874015748031497},{"duration":0.09999999999999432,"durationTicks":240,"midi":44,"name":"G#2","ticks":224160,"time":92.50856800000001,"velocity":0.7874015748031497},{"duration":0.10000000000000853,"durationTicks":240,"midi":44,"name":"G#2","ticks":224400,"time":92.608568,"velocity":0.7874015748031497},{"duration":0.19999999999998863,"durationTicks":480,"midi":36,"name":"C2","ticks":224640,"time":92.70856800000001,"velocity":0.7874015748031497},{"duration":0.20000000000000284,"durationTicks":480,"midi":44,"name":"G#2","ticks":225120,"time":92.908568,"velocity":0.7874015748031497},{"duration":0.20000000000000284,"durationTicks":480,"midi":55,"name":"G3","ticks":225120,"time":92.908568,"velocity":0.7874015748031497},{"duration":0.20000000000000284,"durationTicks":480,"midi":40,"name":"E2","ticks":225600,"time":93.108568,"velocity":0.7874015748031497},{"duration":0.20000000000000284,"durationTicks":480,"midi":46,"name":"A#2","ticks":225600,"time":93.108568,"velocity":0.7874015748031497},{"duration":0.10000000000000853,"durationTicks":240,"midi":69,"name":"A4","ticks":225600,"time":93.108568,"velocity":0.7874015748031497},{"duration":0.09999999999999432,"durationTicks":240,"midi":44,"name":"G#2","ticks":226080,"time":93.30856800000001,"velocity":0.7874015748031497},{"duration":0.10000000000000853,"durationTicks":240,"midi":44,"name":"G#2","ticks":226320,"time":93.408568,"velocity":0.7874015748031497},{"duration":0.20000000000000284,"durationTicks":480,"midi":36,"name":"C2","ticks":226560,"time":93.50856800000001,"velocity":0.7874015748031497},{"duration":0.20000000000000284,"durationTicks":480,"midi":49,"name":"C#3","ticks":226560,"time":93.50856800000001,"velocity":0.7874015748031497},{"duration":0.19999999999998863,"durationTicks":480,"midi":44,"name":"G#2","ticks":227040,"time":93.70856800000001,"velocity":0.7874015748031497},{"duration":0.20000000000000284,"durationTicks":480,"midi":40,"name":"E2","ticks":227520,"time":93.908568,"velocity":0.7874015748031497},{"duration":0.20000000000000284,"durationTicks":480,"midi":46,"name":"A#2","ticks":227520,"time":93.908568,"velocity":0.7874015748031497},{"duration":0.10000000000000853,"durationTicks":240,"midi":69,"name":"A4","ticks":227520,"time":93.908568,"velocity":0.7874015748031497},{"duration":0.10000000000000853,"durationTicks":240,"midi":44,"name":"G#2","ticks":228000,"time":94.108568,"velocity":0.7874015748031497},{"duration":0.09999999999999432,"durationTicks":240,"midi":44,"name":"G#2","ticks":228240,"time":94.20856800000001,"velocity":0.7874015748031497},{"duration":0.20000000000000284,"durationTicks":480,"midi":36,"name":"C2","ticks":228480,"time":94.30856800000001,"velocity":0.7874015748031497},{"duration":0.20000000000000284,"durationTicks":480,"midi":44,"name":"G#2","ticks":228960,"time":94.50856800000001,"velocity":0.7874015748031497},{"duration":0.09999999999999432,"durationTicks":240,"midi":69,"name":"A4","ticks":229440,"time":94.70856800000001,"velocity":0.7874015748031497},{"duration":0.19999999999998863,"durationTicks":480,"midi":40,"name":"E2","ticks":229440,"time":94.70856800000001,"velocity":0.7874015748031497},{"duration":0.19999999999998863,"durationTicks":480,"midi":46,"name":"A#2","ticks":229440,"time":94.70856800000001,"velocity":0.7874015748031497},{"duration":0.10000000000000853,"durationTicks":240,"midi":44,"name":"G#2","ticks":229920,"time":94.908568,"velocity":0.7874015748031497},{"duration":0.09999999999999432,"durationTicks":240,"midi":44,"name":"G#2","ticks":230160,"time":95.00856800000001,"velocity":0.7874015748031497},{"duration":0.20000000000000284,"durationTicks":480,"midi":36,"name":"C2","ticks":230400,"time":95.108568,"velocity":0.7874015748031497},{"duration":0.20000000000000284,"durationTicks":480,"midi":44,"name":"G#2","ticks":230880,"time":95.30856800000001,"velocity":0.7874015748031497},{"duration":0.20000000000000284,"durationTicks":480,"midi":40,"name":"E2","ticks":231360,"time":95.50856800000001,"velocity":0.7874015748031497},{"duration":0.20000000000000284,"durationTicks":480,"midi":46,"name":"A#2","ticks":231360,"time":95.50856800000001,"velocity":0.7874015748031497},{"duration":0.09999999999999432,"durationTicks":240,"midi":69,"name":"A4","ticks":231360,"time":95.50856800000001,"velocity":0.7874015748031497},{"duration":0.09999999999999432,"durationTicks":240,"midi":44,"name":"G#2","ticks":231840,"time":95.70856800000001,"velocity":0.7874015748031497},{"duration":0.09999999999999432,"durationTicks":240,"midi":44,"name":"G#2","ticks":232080,"time":95.80856800000001,"velocity":0.7874015748031497},{"duration":0.20000000000000284,"durationTicks":480,"midi":36,"name":"C2","ticks":232320,"time":95.908568,"velocity":0.7874015748031497},{"duration":0.20000000000000284,"durationTicks":480,"midi":44,"name":"G#2","ticks":232800,"time":96.108568,"velocity":0.7874015748031497},{"duration":0.20000000000000284,"durationTicks":480,"midi":55,"name":"G3","ticks":232800,"time":96.108568,"velocity":0.7874015748031497},{"duration":0.20000000000000284,"durationTicks":480,"midi":40,"name":"E2","ticks":233280,"time":96.30856800000001,"velocity":0.7874015748031497},{"duration":0.20000000000000284,"durationTicks":480,"midi":46,"name":"A#2","ticks":233280,"time":96.30856800000001,"velocity":0.7874015748031497},{"duration":0.09999999999999432,"durationTicks":240,"midi":69,"name":"A4","ticks":233280,"time":96.30856800000001,"velocity":0.7874015748031497},{"duration":0.09999999999999432,"durationTicks":240,"midi":44,"name":"G#2","ticks":233760,"time":96.50856800000001,"velocity":0.7874015748031497},{"duration":0.10000000000000853,"durationTicks":240,"midi":44,"name":"G#2","ticks":234000,"time":96.608568,"velocity":0.7874015748031497},{"duration":0.19999999999998863,"durationTicks":480,"midi":36,"name":"C2","ticks":234240,"time":96.70856800000001,"velocity":0.7874015748031497},{"duration":0.19999999999998863,"durationTicks":480,"midi":49,"name":"C#3","ticks":234240,"time":96.70856800000001,"velocity":0.7874015748031497},{"duration":0.20000000000000284,"durationTicks":480,"midi":44,"name":"G#2","ticks":234720,"time":96.908568,"velocity":0.7874015748031497},{"duration":0.20000000000000284,"durationTicks":480,"midi":40,"name":"E2","ticks":235200,"time":97.108568,"velocity":0.7874015748031497},{"duration":0.20000000000000284,"durationTicks":480,"midi":46,"name":"A#2","ticks":235200,"time":97.108568,"velocity":0.7874015748031497},{"duration":0.10000000000000853,"durationTicks":240,"midi":69,"name":"A4","ticks":235200,"time":97.108568,"velocity":0.7874015748031497},{"duration":0.09999999999999432,"durationTicks":240,"midi":44,"name":"G#2","ticks":235680,"time":97.30856800000001,"velocity":0.7874015748031497},{"duration":0.10000000000000853,"durationTicks":240,"midi":44,"name":"G#2","ticks":235920,"time":97.408568,"velocity":0.7874015748031497},{"duration":0.20000000000000284,"durationTicks":480,"midi":36,"name":"C2","ticks":236160,"time":97.50856800000001,"velocity":0.7874015748031497},{"duration":0.19999999999998863,"durationTicks":480,"midi":44,"name":"G#2","ticks":236640,"time":97.70856800000001,"velocity":0.7874015748031497},{"duration":0.10000000000000853,"durationTicks":240,"midi":69,"name":"A4","ticks":237120,"time":97.908568,"velocity":0.7874015748031497},{"duration":0.20000000000000284,"durationTicks":480,"midi":40,"name":"E2","ticks":237120,"time":97.908568,"velocity":0.7874015748031497},{"duration":0.20000000000000284,"durationTicks":480,"midi":46,"name":"A#2","ticks":237120,"time":97.908568,"velocity":0.7874015748031497},{"duration":0.10000000000000853,"durationTicks":240,"midi":44,"name":"G#2","ticks":237600,"time":98.108568,"velocity":0.7874015748031497},{"duration":0.09999999999999432,"durationTicks":240,"midi":44,"name":"G#2","ticks":237840,"time":98.20856800000001,"velocity":0.7874015748031497},{"duration":0.20000000000000284,"durationTicks":480,"midi":36,"name":"C2","ticks":238080,"time":98.30856800000001,"velocity":0.7874015748031497},{"duration":0.20000000000000284,"durationTicks":480,"midi":44,"name":"G#2","ticks":238560,"time":98.50856800000001,"velocity":0.7874015748031497},{"duration":0.19999999999998863,"durationTicks":480,"midi":40,"name":"E2","ticks":239040,"time":98.70856800000001,"velocity":0.7874015748031497},{"duration":0.19999999999998863,"durationTicks":480,"midi":46,"name":"A#2","ticks":239040,"time":98.70856800000001,"velocity":0.7874015748031497},{"duration":0.09999999999999432,"durationTicks":240,"midi":69,"name":"A4","ticks":239040,"time":98.70856800000001,"velocity":0.7874015748031497},{"duration":0.10000000000000853,"durationTicks":240,"midi":44,"name":"G#2","ticks":239520,"time":98.908568,"velocity":0.7874015748031497},{"duration":0.09999999999999432,"durationTicks":240,"midi":44,"name":"G#2","ticks":239760,"time":99.00856800000001,"velocity":0.7874015748031497},{"duration":0.20000000000000284,"durationTicks":480,"midi":36,"name":"C2","ticks":240000,"time":99.108568,"velocity":0.7874015748031497},{"duration":0.20000000000000284,"durationTicks":480,"midi":44,"name":"G#2","ticks":240480,"time":99.30856800000001,"velocity":0.7874015748031497},{"duration":0.20000000000000284,"durationTicks":480,"midi":55,"name":"G3","ticks":240480,"time":99.30856800000001,"velocity":0.7874015748031497},{"duration":0.20000000000000284,"durationTicks":480,"midi":40,"name":"E2","ticks":240960,"time":99.50856800000001,"velocity":0.7874015748031497},{"duration":0.20000000000000284,"durationTicks":480,"midi":46,"name":"A#2","ticks":240960,"time":99.50856800000001,"velocity":0.7874015748031497},{"duration":0.09999999999999432,"durationTicks":240,"midi":69,"name":"A4","ticks":240960,"time":99.50856800000001,"velocity":0.7874015748031497},{"duration":0.09999999999999432,"durationTicks":240,"midi":44,"name":"G#2","ticks":241440,"time":99.70856800000001,"velocity":0.7874015748031497},{"duration":0.09999999999999432,"durationTicks":240,"midi":44,"name":"G#2","ticks":241680,"time":99.80856800000001,"velocity":0.7874015748031497},{"duration":0.20000000000000284,"durationTicks":480,"midi":36,"name":"C2","ticks":241920,"time":99.908568,"velocity":0.7874015748031497},{"duration":0.20000000000000284,"durationTicks":480,"midi":49,"name":"C#3","ticks":241920,"time":99.908568,"velocity":0.7874015748031497},{"duration":0.20000000000000284,"durationTicks":480,"midi":44,"name":"G#2","ticks":242400,"time":100.108568,"velocity":0.7874015748031497},{"duration":0.20000000000000284,"durationTicks":480,"midi":40,"name":"E2","ticks":242880,"time":100.30856800000001,"velocity":0.7874015748031497},{"duration":0.20000000000000284,"durationTicks":480,"midi":46,"name":"A#2","ticks":242880,"time":100.30856800000001,"velocity":0.7874015748031497},{"duration":0.09999999999999432,"durationTicks":240,"midi":69,"name":"A4","ticks":242880,"time":100.30856800000001,"velocity":0.7874015748031497},{"duration":0.09999999999999432,"durationTicks":240,"midi":44,"name":"G#2","ticks":243360,"time":100.50856800000001,"velocity":0.7874015748031497},{"duration":0.10000000000000853,"durationTicks":240,"midi":44,"name":"G#2","ticks":243600,"time":100.608568,"velocity":0.7874015748031497},{"duration":0.19999999999998863,"durationTicks":480,"midi":36,"name":"C2","ticks":243840,"time":100.70856800000001,"velocity":0.7874015748031497},{"duration":0.20000000000000284,"durationTicks":480,"midi":44,"name":"G#2","ticks":244320,"time":100.908568,"velocity":0.7874015748031497},{"duration":0.10000000000000853,"durationTicks":240,"midi":69,"name":"A4","ticks":244800,"time":101.108568,"velocity":0.7874015748031497},{"duration":0.20000000000000284,"durationTicks":480,"midi":40,"name":"E2","ticks":244800,"time":101.108568,"velocity":0.7874015748031497},{"duration":0.20000000000000284,"durationTicks":480,"midi":46,"name":"A#2","ticks":244800,"time":101.108568,"velocity":0.7874015748031497},{"duration":0.09999999999999432,"durationTicks":240,"midi":44,"name":"G#2","ticks":245280,"time":101.30856800000001,"velocity":0.7874015748031497},{"duration":0.10000000000000853,"durationTicks":240,"midi":44,"name":"G#2","ticks":245520,"time":101.408568,"velocity":0.7874015748031497},{"duration":0.20000000000000284,"durationTicks":480,"midi":36,"name":"C2","ticks":245760,"time":101.50856800000001,"velocity":0.7874015748031497},{"duration":0.19999999999998863,"durationTicks":480,"midi":44,"name":"G#2","ticks":246240,"time":101.70856800000001,"velocity":0.7874015748031497},{"duration":0.20000000000000284,"durationTicks":480,"midi":40,"name":"E2","ticks":246720,"time":101.908568,"velocity":0.7874015748031497},{"duration":0.20000000000000284,"durationTicks":480,"midi":46,"name":"A#2","ticks":246720,"time":101.908568,"velocity":0.7874015748031497},{"duration":0.10000000000000853,"durationTicks":240,"midi":69,"name":"A4","ticks":246720,"time":101.908568,"velocity":0.7874015748031497},{"duration":0.10000000000000853,"durationTicks":240,"midi":44,"name":"G#2","ticks":247200,"time":102.108568,"velocity":0.7874015748031497},{"duration":0.09999999999999432,"durationTicks":240,"midi":44,"name":"G#2","ticks":247440,"time":102.20856800000001,"velocity":0.7874015748031497},{"duration":0.20000000000000284,"durationTicks":480,"midi":36,"name":"C2","ticks":247680,"time":102.30856800000001,"velocity":0.7874015748031497},{"duration":0.20000000000000284,"durationTicks":480,"midi":44,"name":"G#2","ticks":248160,"time":102.50856800000001,"velocity":0.7874015748031497},{"duration":0.20000000000000284,"durationTicks":480,"midi":55,"name":"G3","ticks":248160,"time":102.50856800000001,"velocity":0.7874015748031497},{"duration":0.19999999999998863,"durationTicks":480,"midi":40,"name":"E2","ticks":248640,"time":102.70856800000001,"velocity":0.7874015748031497},{"duration":0.19999999999998863,"durationTicks":480,"midi":46,"name":"A#2","ticks":248640,"time":102.70856800000001,"velocity":0.7874015748031497},{"duration":0.09999999999999432,"durationTicks":240,"midi":69,"name":"A4","ticks":248640,"time":102.70856800000001,"velocity":0.7874015748031497},{"duration":0.10000000000000853,"durationTicks":240,"midi":44,"name":"G#2","ticks":249120,"time":102.908568,"velocity":0.7874015748031497},{"duration":0.09999999999999432,"durationTicks":240,"midi":44,"name":"G#2","ticks":249360,"time":103.00856800000001,"velocity":0.7874015748031497},{"duration":0.20000000000000284,"durationTicks":480,"midi":36,"name":"C2","ticks":249600,"time":103.108568,"velocity":0.7874015748031497},{"duration":0.20000000000000284,"durationTicks":480,"midi":49,"name":"C#3","ticks":249600,"time":103.108568,"velocity":0.7874015748031497},{"duration":0.20000000000000284,"durationTicks":480,"midi":44,"name":"G#2","ticks":250080,"time":103.30856800000001,"velocity":0.7874015748031497},{"duration":0.20000000000000284,"durationTicks":480,"midi":40,"name":"E2","ticks":250560,"time":103.50856800000001,"velocity":0.7874015748031497},{"duration":0.20000000000000284,"durationTicks":480,"midi":46,"name":"A#2","ticks":250560,"time":103.50856800000001,"velocity":0.7874015748031497},{"duration":0.09999999999999432,"durationTicks":240,"midi":69,"name":"A4","ticks":250560,"time":103.50856800000001,"velocity":0.7874015748031497},{"duration":0.09999999999999432,"durationTicks":240,"midi":44,"name":"G#2","ticks":251040,"time":103.70856800000001,"velocity":0.7874015748031497},{"duration":0.09999999999999432,"durationTicks":240,"midi":44,"name":"G#2","ticks":251280,"time":103.80856800000001,"velocity":0.7874015748031497},{"duration":0.20000000000000284,"durationTicks":480,"midi":36,"name":"C2","ticks":251520,"time":103.908568,"velocity":0.7874015748031497},{"duration":0.20000000000000284,"durationTicks":480,"midi":44,"name":"G#2","ticks":252000,"time":104.108568,"velocity":0.7874015748031497},{"duration":0.09999999999999432,"durationTicks":240,"midi":69,"name":"A4","ticks":252480,"time":104.30856800000001,"velocity":0.7874015748031497},{"duration":0.20000000000000284,"durationTicks":480,"midi":40,"name":"E2","ticks":252480,"time":104.30856800000001,"velocity":0.7874015748031497},{"duration":0.20000000000000284,"durationTicks":480,"midi":46,"name":"A#2","ticks":252480,"time":104.30856800000001,"velocity":0.7874015748031497},{"duration":0.09999999999999432,"durationTicks":240,"midi":44,"name":"G#2","ticks":252960,"time":104.50856800000001,"velocity":0.7874015748031497},{"duration":0.10000000000000853,"durationTicks":240,"midi":44,"name":"G#2","ticks":253200,"time":104.608568,"velocity":0.7874015748031497},{"duration":0.19999999999998863,"durationTicks":480,"midi":36,"name":"C2","ticks":253440,"time":104.70856800000001,"velocity":0.7874015748031497},{"duration":0.20000000000000284,"durationTicks":480,"midi":44,"name":"G#2","ticks":253920,"time":104.908568,"velocity":0.7874015748031497},{"duration":0.20000000000000284,"durationTicks":480,"midi":40,"name":"E2","ticks":254400,"time":105.108568,"velocity":0.7874015748031497},{"duration":0.20000000000000284,"durationTicks":480,"midi":46,"name":"A#2","ticks":254400,"time":105.108568,"velocity":0.7874015748031497},{"duration":0.10000000000000853,"durationTicks":240,"midi":69,"name":"A4","ticks":254400,"time":105.108568,"velocity":0.7874015748031497},{"duration":0.09999999999999432,"durationTicks":240,"midi":44,"name":"G#2","ticks":254880,"time":105.30856800000001,"velocity":0.7874015748031497},{"duration":0.10000000000000853,"durationTicks":240,"midi":44,"name":"G#2","ticks":255120,"time":105.408568,"velocity":0.7874015748031497},{"duration":0.20000000000000284,"durationTicks":480,"midi":36,"name":"C2","ticks":255360,"time":105.50856800000001,"velocity":0.7874015748031497},{"duration":0.19999999999998863,"durationTicks":480,"midi":44,"name":"G#2","ticks":255840,"time":105.70856800000001,"velocity":0.7874015748031497},{"duration":0.19999999999998863,"durationTicks":480,"midi":55,"name":"G3","ticks":255840,"time":105.70856800000001,"velocity":0.7874015748031497},{"duration":0.20000000000000284,"durationTicks":480,"midi":40,"name":"E2","ticks":256320,"time":105.908568,"velocity":0.7874015748031497},{"duration":0.20000000000000284,"durationTicks":480,"midi":46,"name":"A#2","ticks":256320,"time":105.908568,"velocity":0.7874015748031497},{"duration":0.10000000000000853,"durationTicks":240,"midi":69,"name":"A4","ticks":256320,"time":105.908568,"velocity":0.7874015748031497},{"duration":0.10000000000000853,"durationTicks":240,"midi":44,"name":"G#2","ticks":256800,"time":106.108568,"velocity":0.7874015748031497},{"duration":0.09999999999999432,"durationTicks":240,"midi":44,"name":"G#2","ticks":257040,"time":106.20856800000001,"velocity":0.7874015748031497},{"duration":0.20000000000000284,"durationTicks":480,"midi":36,"name":"C2","ticks":257280,"time":106.30856800000001,"velocity":0.7874015748031497},{"duration":0.20000000000000284,"durationTicks":480,"midi":49,"name":"C#3","ticks":257280,"time":106.30856800000001,"velocity":0.7874015748031497},{"duration":0.20000000000000284,"durationTicks":480,"midi":44,"name":"G#2","ticks":257760,"time":106.50856800000001,"velocity":0.7874015748031497},{"duration":0.19999999999998863,"durationTicks":480,"midi":40,"name":"E2","ticks":258240,"time":106.70856800000001,"velocity":0.7874015748031497},{"duration":0.19999999999998863,"durationTicks":480,"midi":46,"name":"A#2","ticks":258240,"time":106.70856800000001,"velocity":0.7874015748031497},{"duration":0.09999999999999432,"durationTicks":240,"midi":69,"name":"A4","ticks":258240,"time":106.70856800000001,"velocity":0.7874015748031497},{"duration":0.10000000000000853,"durationTicks":240,"midi":44,"name":"G#2","ticks":258720,"time":106.908568,"velocity":0.7874015748031497},{"duration":0.09999999999999432,"durationTicks":240,"midi":44,"name":"G#2","ticks":258960,"time":107.00856800000001,"velocity":0.7874015748031497},{"duration":0.20000000000000284,"durationTicks":480,"midi":36,"name":"C2","ticks":259200,"time":107.108568,"velocity":0.7874015748031497},{"duration":0.20000000000000284,"durationTicks":480,"midi":44,"name":"G#2","ticks":259680,"time":107.30856800000001,"velocity":0.7874015748031497},{"duration":0.09999999999999432,"durationTicks":240,"midi":69,"name":"A4","ticks":260160,"time":107.50856800000001,"velocity":0.7874015748031497},{"duration":0.20000000000000284,"durationTicks":480,"midi":40,"name":"E2","ticks":260160,"time":107.50856800000001,"velocity":0.7874015748031497},{"duration":0.20000000000000284,"durationTicks":480,"midi":46,"name":"A#2","ticks":260160,"time":107.50856800000001,"velocity":0.7874015748031497},{"duration":0.09999999999999432,"durationTicks":240,"midi":44,"name":"G#2","ticks":260640,"time":107.70856800000001,"velocity":0.7874015748031497},{"duration":0.09999999999999432,"durationTicks":240,"midi":44,"name":"G#2","ticks":260880,"time":107.80856800000001,"velocity":0.7874015748031497},{"duration":0.20000000000000284,"durationTicks":480,"midi":36,"name":"C2","ticks":261120,"time":107.908568,"velocity":0.7874015748031497},{"duration":0.20000000000000284,"durationTicks":480,"midi":44,"name":"G#2","ticks":261600,"time":108.108568,"velocity":0.7874015748031497},{"duration":0.20000000000000284,"durationTicks":480,"midi":40,"name":"E2","ticks":262080,"time":108.30856800000001,"velocity":0.7874015748031497},{"duration":0.20000000000000284,"durationTicks":480,"midi":46,"name":"A#2","ticks":262080,"time":108.30856800000001,"velocity":0.7874015748031497},{"duration":0.09999999999999432,"durationTicks":240,"midi":69,"name":"A4","ticks":262080,"time":108.30856800000001,"velocity":0.7874015748031497},{"duration":0.09999999999999432,"durationTicks":240,"midi":44,"name":"G#2","ticks":262560,"time":108.50856800000001,"velocity":0.7874015748031497},{"duration":0.10000000000000853,"durationTicks":240,"midi":44,"name":"G#2","ticks":262800,"time":108.608568,"velocity":0.7874015748031497},{"duration":0.19999999999998863,"durationTicks":480,"midi":36,"name":"C2","ticks":263040,"time":108.70856800000001,"velocity":0.7874015748031497},{"duration":0.20000000000000284,"durationTicks":480,"midi":44,"name":"G#2","ticks":263520,"time":108.908568,"velocity":0.7874015748031497},{"duration":0.20000000000000284,"durationTicks":480,"midi":55,"name":"G3","ticks":263520,"time":108.908568,"velocity":0.7874015748031497},{"duration":0.20000000000000284,"durationTicks":480,"midi":40,"name":"E2","ticks":264000,"time":109.108568,"velocity":0.7874015748031497},{"duration":0.20000000000000284,"durationTicks":480,"midi":46,"name":"A#2","ticks":264000,"time":109.108568,"velocity":0.7874015748031497},{"duration":0.10000000000000853,"durationTicks":240,"midi":69,"name":"A4","ticks":264000,"time":109.108568,"velocity":0.7874015748031497},{"duration":0.09999999999999432,"durationTicks":240,"midi":44,"name":"G#2","ticks":264480,"time":109.30856800000001,"velocity":0.7874015748031497},{"duration":0.10000000000000853,"durationTicks":240,"midi":44,"name":"G#2","ticks":264720,"time":109.408568,"velocity":0.7874015748031497},{"duration":0.20000000000000284,"durationTicks":480,"midi":36,"name":"C2","ticks":264960,"time":109.50856800000001,"velocity":0.7874015748031497},{"duration":0.20000000000000284,"durationTicks":480,"midi":49,"name":"C#3","ticks":264960,"time":109.50856800000001,"velocity":0.7874015748031497},{"duration":0.19999999999998863,"durationTicks":480,"midi":44,"name":"G#2","ticks":265440,"time":109.70856800000001,"velocity":0.7874015748031497},{"duration":0.20000000000000284,"durationTicks":480,"midi":40,"name":"E2","ticks":265920,"time":109.908568,"velocity":0.7874015748031497},{"duration":0.20000000000000284,"durationTicks":480,"midi":46,"name":"A#2","ticks":265920,"time":109.908568,"velocity":0.7874015748031497},{"duration":0.10000000000000853,"durationTicks":240,"midi":69,"name":"A4","ticks":265920,"time":109.908568,"velocity":0.7874015748031497},{"duration":0.10000000000000853,"durationTicks":240,"midi":44,"name":"G#2","ticks":266400,"time":110.108568,"velocity":0.7874015748031497},{"duration":0.09999999999999432,"durationTicks":240,"midi":44,"name":"G#2","ticks":266640,"time":110.20856800000001,"velocity":0.7874015748031497},{"duration":0.20000000000000284,"durationTicks":480,"midi":36,"name":"C2","ticks":266880,"time":110.30856800000001,"velocity":0.7874015748031497},{"duration":0.20000000000000284,"durationTicks":480,"midi":44,"name":"G#2","ticks":267360,"time":110.50856800000001,"velocity":0.7874015748031497},{"duration":0.09999999999999432,"durationTicks":240,"midi":69,"name":"A4","ticks":267840,"time":110.70856800000001,"velocity":0.7874015748031497},{"duration":0.19999999999998863,"durationTicks":480,"midi":40,"name":"E2","ticks":267840,"time":110.70856800000001,"velocity":0.7874015748031497},{"duration":0.19999999999998863,"durationTicks":480,"midi":46,"name":"A#2","ticks":267840,"time":110.70856800000001,"velocity":0.7874015748031497},{"duration":0.10000000000000853,"durationTicks":240,"midi":44,"name":"G#2","ticks":268320,"time":110.908568,"velocity":0.7874015748031497},{"duration":0.09999999999999432,"durationTicks":240,"midi":44,"name":"G#2","ticks":268560,"time":111.00856800000001,"velocity":0.7874015748031497},{"duration":0.20000000000000284,"durationTicks":480,"midi":36,"name":"C2","ticks":268800,"time":111.108568,"velocity":0.7874015748031497},{"duration":0.20000000000000284,"durationTicks":480,"midi":44,"name":"G#2","ticks":269280,"time":111.30856800000001,"velocity":0.7874015748031497},{"duration":0.20000000000000284,"durationTicks":480,"midi":40,"name":"E2","ticks":269760,"time":111.50856800000001,"velocity":0.7874015748031497},{"duration":0.20000000000000284,"durationTicks":480,"midi":46,"name":"A#2","ticks":269760,"time":111.50856800000001,"velocity":0.7874015748031497},{"duration":0.09999999999999432,"durationTicks":240,"midi":69,"name":"A4","ticks":269760,"time":111.50856800000001,"velocity":0.7874015748031497},{"duration":0.09999999999999432,"durationTicks":240,"midi":44,"name":"G#2","ticks":270240,"time":111.70856800000001,"velocity":0.7874015748031497},{"duration":0.09999999999999432,"durationTicks":240,"midi":44,"name":"G#2","ticks":270480,"time":111.80856800000001,"velocity":0.7874015748031497},{"duration":0.20000000000000284,"durationTicks":480,"midi":36,"name":"C2","ticks":270720,"time":111.908568,"velocity":0.7874015748031497},{"duration":0.20000000000000284,"durationTicks":480,"midi":44,"name":"G#2","ticks":271200,"time":112.108568,"velocity":0.7874015748031497},{"duration":0.20000000000000284,"durationTicks":480,"midi":55,"name":"G3","ticks":271200,"time":112.108568,"velocity":0.7874015748031497},{"duration":0.20000000000000284,"durationTicks":480,"midi":40,"name":"E2","ticks":271680,"time":112.30856800000001,"velocity":0.7874015748031497},{"duration":0.20000000000000284,"durationTicks":480,"midi":46,"name":"A#2","ticks":271680,"time":112.30856800000001,"velocity":0.7874015748031497},{"duration":0.09999999999999432,"durationTicks":240,"midi":69,"name":"A4","ticks":271680,"time":112.30856800000001,"velocity":0.7874015748031497},{"duration":0.09999999999999432,"durationTicks":240,"midi":44,"name":"G#2","ticks":272160,"time":112.50856800000001,"velocity":0.7874015748031497},{"duration":0.10000000000000853,"durationTicks":240,"midi":44,"name":"G#2","ticks":272400,"time":112.608568,"velocity":0.7874015748031497},{"duration":0.19999999999998863,"durationTicks":480,"midi":36,"name":"C2","ticks":272640,"time":112.70856800000001,"velocity":0.7874015748031497},{"duration":0.19999999999998863,"durationTicks":480,"midi":49,"name":"C#3","ticks":272640,"time":112.70856800000001,"velocity":0.7874015748031497},{"duration":0.20000000000000284,"durationTicks":480,"midi":44,"name":"G#2","ticks":273120,"time":112.908568,"velocity":0.7874015748031497},{"duration":0.20000000000000284,"durationTicks":480,"midi":40,"name":"E2","ticks":273600,"time":113.108568,"velocity":0.7874015748031497},{"duration":0.20000000000000284,"durationTicks":480,"midi":46,"name":"A#2","ticks":273600,"time":113.108568,"velocity":0.7874015748031497},{"duration":0.10000000000000853,"durationTicks":240,"midi":69,"name":"A4","ticks":273600,"time":113.108568,"velocity":0.7874015748031497},{"duration":0.09999999999999432,"durationTicks":240,"midi":44,"name":"G#2","ticks":274080,"time":113.30856800000001,"velocity":0.7874015748031497},{"duration":0.10000000000000853,"durationTicks":240,"midi":44,"name":"G#2","ticks":274320,"time":113.408568,"velocity":0.7874015748031497},{"duration":0.20000000000000284,"durationTicks":480,"midi":36,"name":"C2","ticks":274560,"time":113.50856800000001,"velocity":0.7874015748031497},{"duration":0.19999999999998863,"durationTicks":480,"midi":44,"name":"G#2","ticks":275040,"time":113.70856800000001,"velocity":0.7874015748031497},{"duration":0.10000000000000853,"durationTicks":240,"midi":69,"name":"A4","ticks":275520,"time":113.908568,"velocity":0.7874015748031497},{"duration":0.20000000000000284,"durationTicks":480,"midi":40,"name":"E2","ticks":275520,"time":113.908568,"velocity":0.7874015748031497},{"duration":0.20000000000000284,"durationTicks":480,"midi":46,"name":"A#2","ticks":275520,"time":113.908568,"velocity":0.7874015748031497},{"duration":0.10000000000000853,"durationTicks":240,"midi":44,"name":"G#2","ticks":276000,"time":114.108568,"velocity":0.7874015748031497},{"duration":0.09999999999999432,"durationTicks":240,"midi":44,"name":"G#2","ticks":276240,"time":114.20856800000001,"velocity":0.7874015748031497},{"duration":0.20000000000000284,"durationTicks":480,"midi":36,"name":"C2","ticks":276480,"time":114.30856800000001,"velocity":0.7874015748031497},{"duration":0.20000000000000284,"durationTicks":480,"midi":44,"name":"G#2","ticks":276960,"time":114.50856800000001,"velocity":0.7874015748031497},{"duration":0.19999999999998863,"durationTicks":480,"midi":40,"name":"E2","ticks":277440,"time":114.70856800000001,"velocity":0.7874015748031497},{"duration":0.19999999999998863,"durationTicks":480,"midi":46,"name":"A#2","ticks":277440,"time":114.70856800000001,"velocity":0.7874015748031497},{"duration":0.09999999999999432,"durationTicks":240,"midi":69,"name":"A4","ticks":277440,"time":114.70856800000001,"velocity":0.7874015748031497},{"duration":0.10000000000000853,"durationTicks":240,"midi":44,"name":"G#2","ticks":277920,"time":114.908568,"velocity":0.7874015748031497},{"duration":0.09999999999999432,"durationTicks":240,"midi":44,"name":"G#2","ticks":278160,"time":115.00856800000001,"velocity":0.7874015748031497},{"duration":0.20000000000000284,"durationTicks":480,"midi":36,"name":"C2","ticks":278400,"time":115.108568,"velocity":0.7874015748031497},{"duration":0.20000000000000284,"durationTicks":480,"midi":44,"name":"G#2","ticks":278880,"time":115.30856800000001,"velocity":0.7874015748031497},{"duration":0.20000000000000284,"durationTicks":480,"midi":55,"name":"G3","ticks":278880,"time":115.30856800000001,"velocity":0.7874015748031497},{"duration":0.20000000000000284,"durationTicks":480,"midi":40,"name":"E2","ticks":279360,"time":115.50856800000001,"velocity":0.7874015748031497},{"duration":0.20000000000000284,"durationTicks":480,"midi":46,"name":"A#2","ticks":279360,"time":115.50856800000001,"velocity":0.7874015748031497},{"duration":0.09999999999999432,"durationTicks":240,"midi":69,"name":"A4","ticks":279360,"time":115.50856800000001,"velocity":0.7874015748031497},{"duration":0.09999999999999432,"durationTicks":240,"midi":44,"name":"G#2","ticks":279840,"time":115.70856800000001,"velocity":0.7874015748031497},{"duration":0.09999999999999432,"durationTicks":240,"midi":44,"name":"G#2","ticks":280080,"time":115.80856800000001,"velocity":0.7874015748031497},{"duration":0.20000000000000284,"durationTicks":480,"midi":36,"name":"C2","ticks":280320,"time":115.908568,"velocity":0.7874015748031497},{"duration":0.20000000000000284,"durationTicks":480,"midi":49,"name":"C#3","ticks":280320,"time":115.908568,"velocity":0.7874015748031497},{"duration":0.20000000000000284,"durationTicks":480,"midi":44,"name":"G#2","ticks":280800,"time":116.108568,"velocity":0.7874015748031497},{"duration":0.20000000000000284,"durationTicks":480,"midi":40,"name":"E2","ticks":281280,"time":116.30856800000001,"velocity":0.7874015748031497},{"duration":0.20000000000000284,"durationTicks":480,"midi":46,"name":"A#2","ticks":281280,"time":116.30856800000001,"velocity":0.7874015748031497},{"duration":0.09999999999999432,"durationTicks":240,"midi":69,"name":"A4","ticks":281280,"time":116.30856800000001,"velocity":0.7874015748031497},{"duration":0.09999999999999432,"durationTicks":240,"midi":44,"name":"G#2","ticks":281760,"time":116.50856800000001,"velocity":0.7874015748031497},{"duration":0.10000000000000853,"durationTicks":240,"midi":44,"name":"G#2","ticks":282000,"time":116.608568,"velocity":0.7874015748031497},{"duration":0.19999999999998863,"durationTicks":480,"midi":36,"name":"C2","ticks":282240,"time":116.70856800000001,"velocity":0.7874015748031497},{"duration":0.20000000000000284,"durationTicks":480,"midi":44,"name":"G#2","ticks":282720,"time":116.908568,"velocity":0.7874015748031497},{"duration":0.10000000000000853,"durationTicks":240,"midi":69,"name":"A4","ticks":283200,"time":117.108568,"velocity":0.7874015748031497},{"duration":0.20000000000000284,"durationTicks":480,"midi":40,"name":"E2","ticks":283200,"time":117.108568,"velocity":0.7874015748031497},{"duration":0.20000000000000284,"durationTicks":480,"midi":46,"name":"A#2","ticks":283200,"time":117.108568,"velocity":0.7874015748031497},{"duration":0.09999999999999432,"durationTicks":240,"midi":44,"name":"G#2","ticks":283680,"time":117.30856800000001,"velocity":0.7874015748031497},{"duration":0.10000000000000853,"durationTicks":240,"midi":44,"name":"G#2","ticks":283920,"time":117.408568,"velocity":0.7874015748031497},{"duration":0.20000000000000284,"durationTicks":480,"midi":36,"name":"C2","ticks":284160,"time":117.50856800000001,"velocity":0.7874015748031497},{"duration":0.19999999999998863,"durationTicks":480,"midi":44,"name":"G#2","ticks":284640,"time":117.70856800000001,"velocity":0.7874015748031497},{"duration":0.20000000000000284,"durationTicks":480,"midi":40,"name":"E2","ticks":285120,"time":117.908568,"velocity":0.7874015748031497},{"duration":0.20000000000000284,"durationTicks":480,"midi":46,"name":"A#2","ticks":285120,"time":117.908568,"velocity":0.7874015748031497},{"duration":0.10000000000000853,"durationTicks":240,"midi":69,"name":"A4","ticks":285120,"time":117.908568,"velocity":0.7874015748031497},{"duration":0.10000000000000853,"durationTicks":240,"midi":44,"name":"G#2","ticks":285600,"time":118.108568,"velocity":0.7874015748031497},{"duration":0.09999999999999432,"durationTicks":240,"midi":44,"name":"G#2","ticks":285840,"time":118.20856800000001,"velocity":0.7874015748031497},{"duration":0.20000000000000284,"durationTicks":480,"midi":36,"name":"C2","ticks":286080,"time":118.30856800000001,"velocity":0.7874015748031497},{"duration":0.20000000000000284,"durationTicks":480,"midi":44,"name":"G#2","ticks":286560,"time":118.50856800000001,"velocity":0.7874015748031497},{"duration":0.20000000000000284,"durationTicks":480,"midi":55,"name":"G3","ticks":286560,"time":118.50856800000001,"velocity":0.7874015748031497},{"duration":0.19999999999998863,"durationTicks":480,"midi":40,"name":"E2","ticks":287040,"time":118.70856800000001,"velocity":0.7874015748031497},{"duration":0.19999999999998863,"durationTicks":480,"midi":46,"name":"A#2","ticks":287040,"time":118.70856800000001,"velocity":0.7874015748031497},{"duration":0.09999999999999432,"durationTicks":240,"midi":69,"name":"A4","ticks":287040,"time":118.70856800000001,"velocity":0.7874015748031497},{"duration":0.10000000000000853,"durationTicks":240,"midi":44,"name":"G#2","ticks":287520,"time":118.908568,"velocity":0.7874015748031497},{"duration":0.09999999999999432,"durationTicks":240,"midi":44,"name":"G#2","ticks":287760,"time":119.00856800000001,"velocity":0.7874015748031497},{"duration":0.20000000000000284,"durationTicks":480,"midi":36,"name":"C2","ticks":288000,"time":119.108568,"velocity":0.7874015748031497},{"duration":0.20000000000000284,"durationTicks":480,"midi":49,"name":"C#3","ticks":288000,"time":119.108568,"velocity":0.7874015748031497},{"duration":0.20000000000000284,"durationTicks":480,"midi":40,"name":"E2","ticks":288960,"time":119.50856800000001,"velocity":0.6535433070866141},{"duration":0.20000000000000284,"durationTicks":480,"midi":46,"name":"A#2","ticks":288960,"time":119.50856800000001,"velocity":0.6535433070866141},{"duration":0.09999999999999432,"durationTicks":240,"midi":69,"name":"A4","ticks":288960,"time":119.50856800000001,"velocity":0.6535433070866141},{"duration":0.20000000000000284,"durationTicks":480,"midi":36,"name":"C2","ticks":289920,"time":119.908568,"velocity":0.7874015748031497},{"duration":0.09999999999999432,"durationTicks":240,"midi":69,"name":"A4","ticks":290880,"time":120.30856800000001,"velocity":0.6692913385826772},{"duration":0.20000000000000284,"durationTicks":480,"midi":40,"name":"E2","ticks":290880,"time":120.30856800000001,"velocity":0.6692913385826772},{"duration":0.20000000000000284,"durationTicks":480,"midi":46,"name":"A#2","ticks":290880,"time":120.30856800000001,"velocity":0.6692913385826772},{"duration":0.19999999999998863,"durationTicks":480,"midi":36,"name":"C2","ticks":291840,"time":120.70856800000001,"velocity":0.7874015748031497},{"duration":0.20000000000000284,"durationTicks":480,"midi":40,"name":"E2","ticks":292800,"time":121.108568,"velocity":0.6771653543307087},{"duration":0.20000000000000284,"durationTicks":480,"midi":46,"name":"A#2","ticks":292800,"time":121.108568,"velocity":0.6771653543307087},{"duration":0.10000000000000853,"durationTicks":240,"midi":69,"name":"A4","ticks":292800,"time":121.108568,"velocity":0.6771653543307087},{"duration":0.20000000000000284,"durationTicks":480,"midi":36,"name":"C2","ticks":293760,"time":121.50856800000001,"velocity":0.7874015748031497},{"duration":0.20000000000000284,"durationTicks":480,"midi":40,"name":"E2","ticks":294720,"time":121.908568,"velocity":0.6614173228346457},{"duration":0.20000000000000284,"durationTicks":480,"midi":46,"name":"A#2","ticks":294720,"time":121.908568,"velocity":0.6614173228346457},{"duration":0.10000000000000853,"durationTicks":240,"midi":69,"name":"A4","ticks":294720,"time":121.908568,"velocity":0.6614173228346457},{"duration":0.20000000000000284,"durationTicks":480,"midi":36,"name":"C2","ticks":295680,"time":122.30856800000001,"velocity":0.7874015748031497},{"duration":0.20000000000000284,"durationTicks":480,"midi":49,"name":"C#3","ticks":295680,"time":122.30856800000001,"velocity":0.7874015748031497},{"duration":0.19999999999998863,"durationTicks":480,"midi":40,"name":"E2","ticks":296640,"time":122.70856800000001,"velocity":0.6535433070866141},{"duration":0.19999999999998863,"durationTicks":480,"midi":46,"name":"A#2","ticks":296640,"time":122.70856800000001,"velocity":0.6535433070866141},{"duration":0.09999999999999432,"durationTicks":240,"midi":69,"name":"A4","ticks":296640,"time":122.70856800000001,"velocity":0.6535433070866141},{"duration":0.20000000000000284,"durationTicks":480,"midi":36,"name":"C2","ticks":297600,"time":123.108568,"velocity":0.7874015748031497},{"duration":0.09999999999999432,"durationTicks":240,"midi":69,"name":"A4","ticks":298560,"time":123.50856800000001,"velocity":0.6535433070866141},{"duration":0.20000000000000284,"durationTicks":480,"midi":40,"name":"E2","ticks":298560,"time":123.50856800000001,"velocity":0.6535433070866141},{"duration":0.20000000000000284,"durationTicks":480,"midi":46,"name":"A#2","ticks":298560,"time":123.50856800000001,"velocity":0.6535433070866141},{"duration":0.20000000000000284,"durationTicks":480,"midi":36,"name":"C2","ticks":299520,"time":123.908568,"velocity":0.7874015748031497},{"duration":0.20000000000000284,"durationTicks":480,"midi":40,"name":"E2","ticks":300480,"time":124.30856800000001,"velocity":0.6535433070866141},{"duration":0.20000000000000284,"durationTicks":480,"midi":46,"name":"A#2","ticks":300480,"time":124.30856800000001,"velocity":0.6535433070866141},{"duration":0.09999999999999432,"durationTicks":240,"midi":69,"name":"A4","ticks":300480,"time":124.30856800000001,"velocity":0.6535433070866141},{"duration":0.19999999999998863,"durationTicks":480,"midi":36,"name":"C2","ticks":301440,"time":124.70856800000001,"velocity":0.7874015748031497},{"duration":0.20000000000000284,"durationTicks":480,"midi":40,"name":"E2","ticks":302400,"time":125.108568,"velocity":0.6614173228346457},{"duration":0.20000000000000284,"durationTicks":480,"midi":46,"name":"A#2","ticks":302400,"time":125.108568,"velocity":0.6614173228346457},{"duration":0.10000000000000853,"durationTicks":240,"midi":69,"name":"A4","ticks":302400,"time":125.108568,"velocity":0.6614173228346457},{"duration":0.20000000000000284,"durationTicks":480,"midi":36,"name":"C2","ticks":303360,"time":125.50856800000001,"velocity":0.7874015748031497},{"duration":0.20000000000000284,"durationTicks":480,"midi":49,"name":"C#3","ticks":303360,"time":125.50856800000001,"velocity":0.7874015748031497},{"duration":0.20000000000000284,"durationTicks":480,"midi":40,"name":"E2","ticks":304320,"time":125.908568,"velocity":0.6535433070866141},{"duration":0.20000000000000284,"durationTicks":480,"midi":46,"name":"A#2","ticks":304320,"time":125.908568,"velocity":0.6535433070866141},{"duration":0.10000000000000853,"durationTicks":240,"midi":69,"name":"A4","ticks":304320,"time":125.908568,"velocity":0.6535433070866141},{"duration":0.20000000000000284,"durationTicks":480,"midi":36,"name":"C2","ticks":305280,"time":126.30856800000001,"velocity":0.7874015748031497},{"duration":0.09999999999999432,"durationTicks":240,"midi":69,"name":"A4","ticks":306240,"time":126.70856800000001,"velocity":0.6692913385826772},{"duration":0.19999999999998863,"durationTicks":480,"midi":40,"name":"E2","ticks":306240,"time":126.70856800000001,"velocity":0.6692913385826772},{"duration":0.19999999999998863,"durationTicks":480,"midi":46,"name":"A#2","ticks":306240,"time":126.70856800000001,"velocity":0.6692913385826772},{"duration":0.20000000000000284,"durationTicks":480,"midi":36,"name":"C2","ticks":307200,"time":127.108568,"velocity":0.7874015748031497},{"duration":0.20000000000000284,"durationTicks":480,"midi":40,"name":"E2","ticks":308160,"time":127.50856800000001,"velocity":0.6771653543307087},{"duration":0.20000000000000284,"durationTicks":480,"midi":46,"name":"A#2","ticks":308160,"time":127.50856800000001,"velocity":0.6771653543307087},{"duration":0.09999999999999432,"durationTicks":240,"midi":69,"name":"A4","ticks":308160,"time":127.50856800000001,"velocity":0.6771653543307087},{"duration":0.19999999999998863,"durationTicks":480,"midi":36,"name":"C2","ticks":309120,"time":127.908568,"velocity":0.7874015748031497},{"duration":0.19999999999998863,"durationTicks":480,"midi":40,"name":"E2","ticks":310080,"time":128.308568,"velocity":0.6614173228346457},{"duration":0.19999999999998863,"durationTicks":480,"midi":46,"name":"A#2","ticks":310080,"time":128.308568,"velocity":0.6614173228346457},{"duration":0.09999999999999432,"durationTicks":240,"midi":69,"name":"A4","ticks":310080,"time":128.308568,"velocity":0.6614173228346457},{"duration":0.19999999999998863,"durationTicks":480,"midi":36,"name":"C2","ticks":311040,"time":128.708568,"velocity":0.7874015748031497},{"duration":0.19999999999998863,"durationTicks":480,"midi":49,"name":"C#3","ticks":311040,"time":128.708568,"velocity":0.7874015748031497},{"duration":0.20000000000001705,"durationTicks":480,"midi":40,"name":"E2","ticks":312000,"time":129.108568,"velocity":0.6535433070866141},{"duration":0.20000000000001705,"durationTicks":480,"midi":46,"name":"A#2","ticks":312000,"time":129.108568,"velocity":0.6535433070866141},{"duration":0.10000000000002274,"durationTicks":240,"midi":69,"name":"A4","ticks":312000,"time":129.108568,"velocity":0.6535433070866141},{"duration":0.20000000000001705,"durationTicks":480,"midi":36,"name":"C2","ticks":312960,"time":129.508568,"velocity":0.7874015748031497},{"duration":0.09999999999999432,"durationTicks":240,"midi":69,"name":"A4","ticks":313920,"time":129.908568,"velocity":0.6535433070866141},{"duration":0.19999999999998863,"durationTicks":480,"midi":40,"name":"E2","ticks":313920,"time":129.908568,"velocity":0.6535433070866141},{"duration":0.19999999999998863,"durationTicks":480,"midi":46,"name":"A#2","ticks":313920,"time":129.908568,"velocity":0.6535433070866141},{"duration":0.19999999999998863,"durationTicks":480,"midi":36,"name":"C2","ticks":314880,"time":130.308568,"velocity":0.7874015748031497},{"duration":0.19999999999998863,"durationTicks":480,"midi":40,"name":"E2","ticks":315840,"time":130.708568,"velocity":0.6535433070866141},{"duration":0.19999999999998863,"durationTicks":480,"midi":46,"name":"A#2","ticks":315840,"time":130.708568,"velocity":0.6535433070866141},{"duration":0.09999999999999432,"durationTicks":240,"midi":69,"name":"A4","ticks":315840,"time":130.708568,"velocity":0.6535433070866141},{"duration":0.20000000000001705,"durationTicks":480,"midi":36,"name":"C2","ticks":316800,"time":131.108568,"velocity":0.7874015748031497},{"duration":0.20000000000001705,"durationTicks":480,"midi":40,"name":"E2","ticks":317760,"time":131.508568,"velocity":0.6614173228346457},{"duration":0.20000000000001705,"durationTicks":480,"midi":46,"name":"A#2","ticks":317760,"time":131.508568,"velocity":0.6614173228346457},{"duration":0.09999999999999432,"durationTicks":240,"midi":69,"name":"A4","ticks":317760,"time":131.508568,"velocity":0.6614173228346457},{"duration":0.20000000000001705,"durationTicks":480,"midi":36,"name":"C2","ticks":318720,"time":131.908568,"velocity":0.7874015748031497},{"duration":0.20000000000001705,"durationTicks":480,"midi":49,"name":"C#3","ticks":318720,"time":131.908568,"velocity":0.7874015748031497},{"duration":0.19999999999998863,"durationTicks":480,"midi":44,"name":"G#2","ticks":319200,"time":132.10856800000002,"velocity":0.7874015748031497},{"duration":0.19999999999998863,"durationTicks":480,"midi":40,"name":"E2","ticks":319680,"time":132.308568,"velocity":0.7874015748031497},{"duration":0.19999999999998863,"durationTicks":480,"midi":46,"name":"A#2","ticks":319680,"time":132.308568,"velocity":0.7874015748031497},{"duration":0.09999999999999432,"durationTicks":240,"midi":69,"name":"A4","ticks":319680,"time":132.308568,"velocity":0.7874015748031497},{"duration":0.10000000000002274,"durationTicks":240,"midi":44,"name":"G#2","ticks":320160,"time":132.508568,"velocity":0.7874015748031497},{"duration":0.09999999999999432,"durationTicks":240,"midi":44,"name":"G#2","ticks":320400,"time":132.60856800000002,"velocity":0.7874015748031497},{"duration":0.19999999999998863,"durationTicks":480,"midi":36,"name":"C2","ticks":320640,"time":132.708568,"velocity":0.7874015748031497},{"duration":0.20000000000001705,"durationTicks":480,"midi":44,"name":"G#2","ticks":321120,"time":132.908568,"velocity":0.7874015748031497},{"duration":0.09999999999999432,"durationTicks":240,"midi":69,"name":"A4","ticks":321600,"time":133.10856800000002,"velocity":0.7874015748031497},{"duration":0.19999999999998863,"durationTicks":480,"midi":40,"name":"E2","ticks":321600,"time":133.10856800000002,"velocity":0.7874015748031497},{"duration":0.19999999999998863,"durationTicks":480,"midi":46,"name":"A#2","ticks":321600,"time":133.10856800000002,"velocity":0.7874015748031497},{"duration":0.09999999999999432,"durationTicks":240,"midi":44,"name":"G#2","ticks":322080,"time":133.308568,"velocity":0.7874015748031497},{"duration":0.09999999999999432,"durationTicks":240,"midi":44,"name":"G#2","ticks":322320,"time":133.408568,"velocity":0.7874015748031497},{"duration":0.20000000000001705,"durationTicks":480,"midi":36,"name":"C2","ticks":322560,"time":133.508568,"velocity":0.7874015748031497},{"duration":0.19999999999998863,"durationTicks":480,"midi":44,"name":"G#2","ticks":323040,"time":133.708568,"velocity":0.7874015748031497},{"duration":0.20000000000001705,"durationTicks":480,"midi":40,"name":"E2","ticks":323520,"time":133.908568,"velocity":0.7874015748031497},{"duration":0.20000000000001705,"durationTicks":480,"midi":46,"name":"A#2","ticks":323520,"time":133.908568,"velocity":0.7874015748031497},{"duration":0.09999999999999432,"durationTicks":240,"midi":69,"name":"A4","ticks":323520,"time":133.908568,"velocity":0.7874015748031497},{"duration":0.09999999999999432,"durationTicks":240,"midi":44,"name":"G#2","ticks":324000,"time":134.10856800000002,"velocity":0.7874015748031497},{"duration":0.09999999999999432,"durationTicks":240,"midi":44,"name":"G#2","ticks":324240,"time":134.208568,"velocity":0.7874015748031497},{"duration":0.19999999999998863,"durationTicks":480,"midi":36,"name":"C2","ticks":324480,"time":134.308568,"velocity":0.7874015748031497},{"duration":0.20000000000001705,"durationTicks":480,"midi":44,"name":"G#2","ticks":324960,"time":134.508568,"velocity":0.7874015748031497},{"duration":0.20000000000001705,"durationTicks":480,"midi":55,"name":"G3","ticks":324960,"time":134.508568,"velocity":0.7874015748031497},{"duration":0.19999999999998863,"durationTicks":480,"midi":40,"name":"E2","ticks":325440,"time":134.708568,"velocity":0.7874015748031497},{"duration":0.19999999999998863,"durationTicks":480,"midi":46,"name":"A#2","ticks":325440,"time":134.708568,"velocity":0.7874015748031497},{"duration":0.09999999999999432,"durationTicks":240,"midi":69,"name":"A4","ticks":325440,"time":134.708568,"velocity":0.7874015748031497},{"duration":0.09999999999999432,"durationTicks":240,"midi":44,"name":"G#2","ticks":325920,"time":134.908568,"velocity":0.7874015748031497},{"duration":0.10000000000002274,"durationTicks":240,"midi":44,"name":"G#2","ticks":326160,"time":135.008568,"velocity":0.7874015748031497},{"duration":0.19999999999998863,"durationTicks":480,"midi":36,"name":"C2","ticks":326400,"time":135.10856800000002,"velocity":0.7874015748031497},{"duration":0.19999999999998863,"durationTicks":480,"midi":49,"name":"C#3","ticks":326400,"time":135.10856800000002,"velocity":0.7874015748031497},{"duration":0.19999999999998863,"durationTicks":480,"midi":44,"name":"G#2","ticks":326880,"time":135.308568,"velocity":0.7874015748031497},{"duration":0.20000000000001705,"durationTicks":480,"midi":40,"name":"E2","ticks":327360,"time":135.508568,"velocity":0.7874015748031497},{"duration":0.20000000000001705,"durationTicks":480,"midi":46,"name":"A#2","ticks":327360,"time":135.508568,"velocity":0.7874015748031497},{"duration":0.10000000000002274,"durationTicks":240,"midi":69,"name":"A4","ticks":327360,"time":135.508568,"velocity":0.7874015748031497},{"duration":0.09999999999999432,"durationTicks":240,"midi":44,"name":"G#2","ticks":327840,"time":135.708568,"velocity":0.7874015748031497},{"duration":0.09999999999999432,"durationTicks":240,"midi":44,"name":"G#2","ticks":328080,"time":135.808568,"velocity":0.7874015748031497},{"duration":0.20000000000001705,"durationTicks":480,"midi":36,"name":"C2","ticks":328320,"time":135.908568,"velocity":0.7874015748031497},{"duration":0.19999999999998863,"durationTicks":480,"midi":44,"name":"G#2","ticks":328800,"time":136.10856800000002,"velocity":0.7874015748031497},{"duration":0.09999999999999432,"durationTicks":240,"midi":69,"name":"A4","ticks":329280,"time":136.308568,"velocity":0.7874015748031497},{"duration":0.19999999999998863,"durationTicks":480,"midi":40,"name":"E2","ticks":329280,"time":136.308568,"velocity":0.7874015748031497},{"duration":0.19999999999998863,"durationTicks":480,"midi":46,"name":"A#2","ticks":329280,"time":136.308568,"velocity":0.7874015748031497},{"duration":0.10000000000002274,"durationTicks":240,"midi":44,"name":"G#2","ticks":329760,"time":136.508568,"velocity":0.7874015748031497},{"duration":0.09999999999999432,"durationTicks":240,"midi":44,"name":"G#2","ticks":330000,"time":136.60856800000002,"velocity":0.7874015748031497},{"duration":0.19999999999998863,"durationTicks":480,"midi":36,"name":"C2","ticks":330240,"time":136.708568,"velocity":0.7874015748031497},{"duration":0.20000000000001705,"durationTicks":480,"midi":44,"name":"G#2","ticks":330720,"time":136.908568,"velocity":0.7874015748031497},{"duration":0.19999999999998863,"durationTicks":480,"midi":40,"name":"E2","ticks":331200,"time":137.10856800000002,"velocity":0.7874015748031497},{"duration":0.19999999999998863,"durationTicks":480,"midi":46,"name":"A#2","ticks":331200,"time":137.10856800000002,"velocity":0.7874015748031497},{"duration":0.09999999999999432,"durationTicks":240,"midi":69,"name":"A4","ticks":331200,"time":137.10856800000002,"velocity":0.7874015748031497},{"duration":0.09999999999999432,"durationTicks":240,"midi":44,"name":"G#2","ticks":331680,"time":137.308568,"velocity":0.7874015748031497},{"duration":0.09999999999999432,"durationTicks":240,"midi":44,"name":"G#2","ticks":331920,"time":137.408568,"velocity":0.7874015748031497},{"duration":0.20000000000001705,"durationTicks":480,"midi":36,"name":"C2","ticks":332160,"time":137.508568,"velocity":0.7874015748031497},{"duration":0.19999999999998863,"durationTicks":480,"midi":44,"name":"G#2","ticks":332640,"time":137.708568,"velocity":0.7874015748031497},{"duration":0.19999999999998863,"durationTicks":480,"midi":55,"name":"G3","ticks":332640,"time":137.708568,"velocity":0.7874015748031497},{"duration":0.20000000000001705,"durationTicks":480,"midi":40,"name":"E2","ticks":333120,"time":137.908568,"velocity":0.7874015748031497},{"duration":0.20000000000001705,"durationTicks":480,"midi":46,"name":"A#2","ticks":333120,"time":137.908568,"velocity":0.7874015748031497},{"duration":0.09999999999999432,"durationTicks":240,"midi":69,"name":"A4","ticks":333120,"time":137.908568,"velocity":0.7874015748031497},{"duration":0.09999999999999432,"durationTicks":240,"midi":44,"name":"G#2","ticks":333600,"time":138.10856800000002,"velocity":0.7874015748031497},{"duration":0.09999999999999432,"durationTicks":240,"midi":44,"name":"G#2","ticks":333840,"time":138.208568,"velocity":0.7874015748031497},{"duration":0.19999999999998863,"durationTicks":480,"midi":36,"name":"C2","ticks":334080,"time":138.308568,"velocity":0.7874015748031497},{"duration":0.19999999999998863,"durationTicks":480,"midi":49,"name":"C#3","ticks":334080,"time":138.308568,"velocity":0.7874015748031497},{"duration":0.20000000000001705,"durationTicks":480,"midi":44,"name":"G#2","ticks":334560,"time":138.508568,"velocity":0.7874015748031497},{"duration":0.19999999999998863,"durationTicks":480,"midi":40,"name":"E2","ticks":335040,"time":138.708568,"velocity":0.7874015748031497},{"duration":0.19999999999998863,"durationTicks":480,"midi":46,"name":"A#2","ticks":335040,"time":138.708568,"velocity":0.7874015748031497},{"duration":0.09999999999999432,"durationTicks":240,"midi":69,"name":"A4","ticks":335040,"time":138.708568,"velocity":0.7874015748031497},{"duration":0.09999999999999432,"durationTicks":240,"midi":44,"name":"G#2","ticks":335520,"time":138.908568,"velocity":0.7874015748031497},{"duration":0.10000000000002274,"durationTicks":240,"midi":44,"name":"G#2","ticks":335760,"time":139.008568,"velocity":0.7874015748031497},{"duration":0.19999999999998863,"durationTicks":480,"midi":36,"name":"C2","ticks":336000,"time":139.10856800000002,"velocity":0.7874015748031497},{"duration":0.19999999999998863,"durationTicks":480,"midi":44,"name":"G#2","ticks":336480,"time":139.308568,"velocity":0.7874015748031497},{"duration":0.10000000000002274,"durationTicks":240,"midi":69,"name":"A4","ticks":336960,"time":139.508568,"velocity":0.7874015748031497},{"duration":0.20000000000001705,"durationTicks":480,"midi":40,"name":"E2","ticks":336960,"time":139.508568,"velocity":0.7874015748031497},{"duration":0.20000000000001705,"durationTicks":480,"midi":46,"name":"A#2","ticks":336960,"time":139.508568,"velocity":0.7874015748031497},{"duration":0.09999999999999432,"durationTicks":240,"midi":44,"name":"G#2","ticks":337440,"time":139.708568,"velocity":0.7874015748031497},{"duration":0.09999999999999432,"durationTicks":240,"midi":44,"name":"G#2","ticks":337680,"time":139.808568,"velocity":0.7874015748031497},{"duration":0.20000000000001705,"durationTicks":480,"midi":36,"name":"C2","ticks":337920,"time":139.908568,"velocity":0.7874015748031497},{"duration":0.19999999999998863,"durationTicks":480,"midi":44,"name":"G#2","ticks":338400,"time":140.10856800000002,"velocity":0.7874015748031497},{"duration":0.19999999999998863,"durationTicks":480,"midi":40,"name":"E2","ticks":338880,"time":140.308568,"velocity":0.7874015748031497},{"duration":0.19999999999998863,"durationTicks":480,"midi":46,"name":"A#2","ticks":338880,"time":140.308568,"velocity":0.7874015748031497},{"duration":0.09999999999999432,"durationTicks":240,"midi":69,"name":"A4","ticks":338880,"time":140.308568,"velocity":0.7874015748031497},{"duration":0.10000000000002274,"durationTicks":240,"midi":44,"name":"G#2","ticks":339360,"time":140.508568,"velocity":0.7874015748031497},{"duration":0.09999999999999432,"durationTicks":240,"midi":44,"name":"G#2","ticks":339600,"time":140.60856800000002,"velocity":0.7874015748031497},{"duration":0.19999999999998863,"durationTicks":480,"midi":36,"name":"C2","ticks":339840,"time":140.708568,"velocity":0.7874015748031497},{"duration":0.20000000000001705,"durationTicks":480,"midi":44,"name":"G#2","ticks":340320,"time":140.908568,"velocity":0.7874015748031497},{"duration":0.20000000000001705,"durationTicks":480,"midi":55,"name":"G3","ticks":340320,"time":140.908568,"velocity":0.7874015748031497},{"duration":0.19999999999998863,"durationTicks":480,"midi":40,"name":"E2","ticks":340800,"time":141.10856800000002,"velocity":0.7874015748031497},{"duration":0.19999999999998863,"durationTicks":480,"midi":46,"name":"A#2","ticks":340800,"time":141.10856800000002,"velocity":0.7874015748031497},{"duration":0.09999999999999432,"durationTicks":240,"midi":69,"name":"A4","ticks":340800,"time":141.10856800000002,"velocity":0.7874015748031497},{"duration":0.09999999999999432,"durationTicks":240,"midi":44,"name":"G#2","ticks":341280,"time":141.308568,"velocity":0.7874015748031497},{"duration":0.09999999999999432,"durationTicks":240,"midi":44,"name":"G#2","ticks":341520,"time":141.408568,"velocity":0.7874015748031497},{"duration":0.20000000000001705,"durationTicks":480,"midi":36,"name":"C2","ticks":341760,"time":141.508568,"velocity":0.7874015748031497},{"duration":0.20000000000001705,"durationTicks":480,"midi":49,"name":"C#3","ticks":341760,"time":141.508568,"velocity":0.7874015748031497},{"duration":0.19999999999998863,"durationTicks":480,"midi":44,"name":"G#2","ticks":342240,"time":141.708568,"velocity":0.7874015748031497},{"duration":0.20000000000001705,"durationTicks":480,"midi":40,"name":"E2","ticks":342720,"time":141.908568,"velocity":0.7874015748031497},{"duration":0.20000000000001705,"durationTicks":480,"midi":46,"name":"A#2","ticks":342720,"time":141.908568,"velocity":0.7874015748031497},{"duration":0.09999999999999432,"durationTicks":240,"midi":69,"name":"A4","ticks":342720,"time":141.908568,"velocity":0.7874015748031497},{"duration":0.09999999999999432,"durationTicks":240,"midi":44,"name":"G#2","ticks":343200,"time":142.10856800000002,"velocity":0.7874015748031497},{"duration":0.09999999999999432,"durationTicks":240,"midi":44,"name":"G#2","ticks":343440,"time":142.208568,"velocity":0.7874015748031497},{"duration":0.19999999999998863,"durationTicks":480,"midi":36,"name":"C2","ticks":343680,"time":142.308568,"velocity":0.7874015748031497},{"duration":0.20000000000001705,"durationTicks":480,"midi":44,"name":"G#2","ticks":344160,"time":142.508568,"velocity":0.7874015748031497},{"duration":0.09999999999999432,"durationTicks":240,"midi":69,"name":"A4","ticks":344640,"time":142.708568,"velocity":0.7874015748031497},{"duration":0.19999999999998863,"durationTicks":480,"midi":40,"name":"E2","ticks":344640,"time":142.708568,"velocity":0.7874015748031497},{"duration":0.19999999999998863,"durationTicks":480,"midi":46,"name":"A#2","ticks":344640,"time":142.708568,"velocity":0.7874015748031497},{"duration":0.09999999999999432,"durationTicks":240,"midi":44,"name":"G#2","ticks":345120,"time":142.908568,"velocity":0.7874015748031497},{"duration":0.10000000000002274,"durationTicks":240,"midi":44,"name":"G#2","ticks":345360,"time":143.008568,"velocity":0.7874015748031497},{"duration":0.19999999999998863,"durationTicks":480,"midi":36,"name":"C2","ticks":345600,"time":143.10856800000002,"velocity":0.7874015748031497},{"duration":0.09999999999999432,"durationTicks":240,"midi":40,"name":"E2","ticks":345600,"time":143.10856800000002,"velocity":0.7874015748031497},{"duration":0.09999999999999432,"durationTicks":240,"midi":40,"name":"E2","ticks":345840,"time":143.208568,"velocity":0.7874015748031497},{"duration":0.19999999999998863,"durationTicks":480,"midi":44,"name":"G#2","ticks":346080,"time":143.308568,"velocity":0.7874015748031497},{"duration":0.09999999999999432,"durationTicks":240,"midi":40,"name":"E2","ticks":346080,"time":143.308568,"velocity":0.7874015748031497},{"duration":0.20000000000001705,"durationTicks":480,"midi":40,"name":"E2","ticks":346560,"time":143.508568,"velocity":0.7874015748031497},{"duration":0.20000000000001705,"durationTicks":480,"midi":46,"name":"A#2","ticks":346560,"time":143.508568,"velocity":0.7874015748031497},{"duration":0.10000000000002274,"durationTicks":240,"midi":69,"name":"A4","ticks":346560,"time":143.508568,"velocity":0.7874015748031497},{"duration":0.09999999999999432,"durationTicks":240,"midi":44,"name":"G#2","ticks":347040,"time":143.708568,"velocity":0.7874015748031497},{"duration":0.09999999999999432,"durationTicks":240,"midi":40,"name":"E2","ticks":347040,"time":143.708568,"velocity":0.7874015748031497},{"duration":0.09999999999999432,"durationTicks":240,"midi":44,"name":"G#2","ticks":347280,"time":143.808568,"velocity":0.7874015748031497},{"duration":0.09999999999999432,"durationTicks":240,"midi":40,"name":"E2","ticks":347280,"time":143.808568,"velocity":0.7874015748031497},{"duration":0.20000000000001705,"durationTicks":480,"midi":36,"name":"C2","ticks":347520,"time":143.908568,"velocity":0.7874015748031497},{"duration":0.19999999999998863,"durationTicks":480,"midi":44,"name":"G#2","ticks":348000,"time":144.10856800000002,"velocity":0.7874015748031497},{"duration":0.19999999999998863,"durationTicks":480,"midi":55,"name":"G3","ticks":348000,"time":144.10856800000002,"velocity":0.7874015748031497},{"duration":0.19999999999998863,"durationTicks":480,"midi":40,"name":"E2","ticks":348480,"time":144.308568,"velocity":0.7874015748031497},{"duration":0.19999999999998863,"durationTicks":480,"midi":46,"name":"A#2","ticks":348480,"time":144.308568,"velocity":0.7874015748031497},{"duration":0.09999999999999432,"durationTicks":240,"midi":69,"name":"A4","ticks":348480,"time":144.308568,"velocity":0.7874015748031497},{"duration":0.10000000000002274,"durationTicks":240,"midi":44,"name":"G#2","ticks":348960,"time":144.508568,"velocity":0.7874015748031497},{"duration":0.09999999999999432,"durationTicks":240,"midi":44,"name":"G#2","ticks":349200,"time":144.60856800000002,"velocity":0.7874015748031497},{"duration":0.19999999999998863,"durationTicks":480,"midi":36,"name":"C2","ticks":349440,"time":144.708568,"velocity":0.7874015748031497},{"duration":0.19999999999998863,"durationTicks":480,"midi":49,"name":"C#3","ticks":349440,"time":144.708568,"velocity":0.7874015748031497},{"duration":0.20000000000001705,"durationTicks":480,"midi":44,"name":"G#2","ticks":349920,"time":144.908568,"velocity":0.7874015748031497},{"duration":0.19999999999998863,"durationTicks":480,"midi":40,"name":"E2","ticks":350400,"time":145.10856800000002,"velocity":0.7874015748031497},{"duration":0.19999999999998863,"durationTicks":480,"midi":46,"name":"A#2","ticks":350400,"time":145.10856800000002,"velocity":0.7874015748031497},{"duration":0.09999999999999432,"durationTicks":240,"midi":69,"name":"A4","ticks":350400,"time":145.10856800000002,"velocity":0.7874015748031497},{"duration":0.09999999999999432,"durationTicks":240,"midi":44,"name":"G#2","ticks":350880,"time":145.308568,"velocity":0.7874015748031497},{"duration":0.09999999999999432,"durationTicks":240,"midi":44,"name":"G#2","ticks":351120,"time":145.408568,"velocity":0.7874015748031497},{"duration":0.20000000000001705,"durationTicks":480,"midi":36,"name":"C2","ticks":351360,"time":145.508568,"velocity":0.7874015748031497},{"duration":0.19999999999998863,"durationTicks":480,"midi":44,"name":"G#2","ticks":351840,"time":145.708568,"velocity":0.7874015748031497},{"duration":0.09999999999999432,"durationTicks":240,"midi":69,"name":"A4","ticks":352320,"time":145.908568,"velocity":0.7874015748031497},{"duration":0.20000000000001705,"durationTicks":480,"midi":40,"name":"E2","ticks":352320,"time":145.908568,"velocity":0.7874015748031497},{"duration":0.20000000000001705,"durationTicks":480,"midi":46,"name":"A#2","ticks":352320,"time":145.908568,"velocity":0.7874015748031497},{"duration":0.09999999999999432,"durationTicks":240,"midi":44,"name":"G#2","ticks":352800,"time":146.10856800000002,"velocity":0.7874015748031497},{"duration":0.09999999999999432,"durationTicks":240,"midi":44,"name":"G#2","ticks":353040,"time":146.208568,"velocity":0.7874015748031497},{"duration":0.19999999999998863,"durationTicks":480,"midi":36,"name":"C2","ticks":353280,"time":146.308568,"velocity":0.7874015748031497},{"duration":0.20000000000001705,"durationTicks":480,"midi":44,"name":"G#2","ticks":353760,"time":146.508568,"velocity":0.7874015748031497},{"duration":0.19999999999998863,"durationTicks":480,"midi":40,"name":"E2","ticks":354240,"time":146.708568,"velocity":0.7874015748031497},{"duration":0.19999999999998863,"durationTicks":480,"midi":46,"name":"A#2","ticks":354240,"time":146.708568,"velocity":0.7874015748031497},{"duration":0.09999999999999432,"durationTicks":240,"midi":69,"name":"A4","ticks":354240,"time":146.708568,"velocity":0.7874015748031497},{"duration":0.09999999999999432,"durationTicks":240,"midi":44,"name":"G#2","ticks":354720,"time":146.908568,"velocity":0.7874015748031497},{"duration":0.10000000000002274,"durationTicks":240,"midi":44,"name":"G#2","ticks":354960,"time":147.008568,"velocity":0.7874015748031497},{"duration":0.19999999999998863,"durationTicks":480,"midi":36,"name":"C2","ticks":355200,"time":147.10856800000002,"velocity":0.7874015748031497},{"duration":0.19999999999998863,"durationTicks":480,"midi":44,"name":"G#2","ticks":355680,"time":147.308568,"velocity":0.7874015748031497},{"duration":0.19999999999998863,"durationTicks":480,"midi":55,"name":"G3","ticks":355680,"time":147.308568,"velocity":0.7874015748031497},{"duration":0.20000000000001705,"durationTicks":480,"midi":40,"name":"E2","ticks":356160,"time":147.508568,"velocity":0.7874015748031497},{"duration":0.20000000000001705,"durationTicks":480,"midi":46,"name":"A#2","ticks":356160,"time":147.508568,"velocity":0.7874015748031497},{"duration":0.10000000000002274,"durationTicks":240,"midi":69,"name":"A4","ticks":356160,"time":147.508568,"velocity":0.7874015748031497},{"duration":0.09999999999999432,"durationTicks":240,"midi":44,"name":"G#2","ticks":356640,"time":147.708568,"velocity":0.7874015748031497},{"duration":0.09999999999999432,"durationTicks":240,"midi":44,"name":"G#2","ticks":356880,"time":147.808568,"velocity":0.7874015748031497},{"duration":0.20000000000001705,"durationTicks":480,"midi":36,"name":"C2","ticks":357120,"time":147.908568,"velocity":0.7874015748031497},{"duration":0.20000000000001705,"durationTicks":480,"midi":49,"name":"C#3","ticks":357120,"time":147.908568,"velocity":0.7874015748031497},{"duration":0.19999999999998863,"durationTicks":480,"midi":44,"name":"G#2","ticks":357600,"time":148.10856800000002,"velocity":0.7874015748031497},{"duration":0.19999999999998863,"durationTicks":480,"midi":40,"name":"E2","ticks":358080,"time":148.308568,"velocity":0.7874015748031497},{"duration":0.19999999999998863,"durationTicks":480,"midi":46,"name":"A#2","ticks":358080,"time":148.308568,"velocity":0.7874015748031497},{"duration":0.09999999999999432,"durationTicks":240,"midi":69,"name":"A4","ticks":358080,"time":148.308568,"velocity":0.7874015748031497},{"duration":0.10000000000002274,"durationTicks":240,"midi":44,"name":"G#2","ticks":358560,"time":148.508568,"velocity":0.7874015748031497},{"duration":0.09999999999999432,"durationTicks":240,"midi":44,"name":"G#2","ticks":358800,"time":148.60856800000002,"velocity":0.7874015748031497},{"duration":0.19999999999998863,"durationTicks":480,"midi":36,"name":"C2","ticks":359040,"time":148.708568,"velocity":0.7874015748031497},{"duration":0.20000000000001705,"durationTicks":480,"midi":44,"name":"G#2","ticks":359520,"time":148.908568,"velocity":0.7874015748031497},{"duration":0.09999999999999432,"durationTicks":240,"midi":69,"name":"A4","ticks":360000,"time":149.10856800000002,"velocity":0.7874015748031497},{"duration":0.19999999999998863,"durationTicks":480,"midi":40,"name":"E2","ticks":360000,"time":149.10856800000002,"velocity":0.7874015748031497},{"duration":0.19999999999998863,"durationTicks":480,"midi":46,"name":"A#2","ticks":360000,"time":149.10856800000002,"velocity":0.7874015748031497},{"duration":0.09999999999999432,"durationTicks":240,"midi":44,"name":"G#2","ticks":360480,"time":149.308568,"velocity":0.7874015748031497},{"duration":0.09999999999999432,"durationTicks":240,"midi":44,"name":"G#2","ticks":360720,"time":149.408568,"velocity":0.7874015748031497},{"duration":0.20000000000001705,"durationTicks":480,"midi":36,"name":"C2","ticks":360960,"time":149.508568,"velocity":0.7874015748031497},{"duration":0.19999999999998863,"durationTicks":480,"midi":44,"name":"G#2","ticks":361440,"time":149.708568,"velocity":0.7874015748031497},{"duration":0.20000000000001705,"durationTicks":480,"midi":40,"name":"E2","ticks":361920,"time":149.908568,"velocity":0.7874015748031497},{"duration":0.20000000000001705,"durationTicks":480,"midi":46,"name":"A#2","ticks":361920,"time":149.908568,"velocity":0.7874015748031497},{"duration":0.09999999999999432,"durationTicks":240,"midi":69,"name":"A4","ticks":361920,"time":149.908568,"velocity":0.7874015748031497},{"duration":0.09999999999999432,"durationTicks":240,"midi":44,"name":"G#2","ticks":362400,"time":150.10856800000002,"velocity":0.7874015748031497},{"duration":0.09999999999999432,"durationTicks":240,"midi":44,"name":"G#2","ticks":362640,"time":150.208568,"velocity":0.7874015748031497},{"duration":0.19999999999998863,"durationTicks":480,"midi":36,"name":"C2","ticks":362880,"time":150.308568,"velocity":0.7874015748031497},{"duration":0.20000000000001705,"durationTicks":480,"midi":44,"name":"G#2","ticks":363360,"time":150.508568,"velocity":0.7874015748031497},{"duration":0.20000000000001705,"durationTicks":480,"midi":55,"name":"G3","ticks":363360,"time":150.508568,"velocity":0.7874015748031497},{"duration":0.19999999999998863,"durationTicks":480,"midi":40,"name":"E2","ticks":363840,"time":150.708568,"velocity":0.7874015748031497},{"duration":0.19999999999998863,"durationTicks":480,"midi":46,"name":"A#2","ticks":363840,"time":150.708568,"velocity":0.7874015748031497},{"duration":0.09999999999999432,"durationTicks":240,"midi":69,"name":"A4","ticks":363840,"time":150.708568,"velocity":0.7874015748031497},{"duration":0.09999999999999432,"durationTicks":240,"midi":44,"name":"G#2","ticks":364320,"time":150.908568,"velocity":0.7874015748031497},{"duration":0.10000000000002274,"durationTicks":240,"midi":44,"name":"G#2","ticks":364560,"time":151.008568,"velocity":0.7874015748031497},{"duration":0.19999999999998863,"durationTicks":480,"midi":36,"name":"C2","ticks":364800,"time":151.10856800000002,"velocity":0.7874015748031497},{"duration":0.19999999999998863,"durationTicks":480,"midi":49,"name":"C#3","ticks":364800,"time":151.10856800000002,"velocity":0.7874015748031497},{"duration":0.19999999999998863,"durationTicks":480,"midi":44,"name":"G#2","ticks":365280,"time":151.308568,"velocity":0.7874015748031497},{"duration":0.20000000000001705,"durationTicks":480,"midi":40,"name":"E2","ticks":365760,"time":151.508568,"velocity":0.7874015748031497},{"duration":0.20000000000001705,"durationTicks":480,"midi":46,"name":"A#2","ticks":365760,"time":151.508568,"velocity":0.7874015748031497},{"duration":0.10000000000002274,"durationTicks":240,"midi":69,"name":"A4","ticks":365760,"time":151.508568,"velocity":0.7874015748031497},{"duration":0.09999999999999432,"durationTicks":240,"midi":44,"name":"G#2","ticks":366240,"time":151.708568,"velocity":0.7874015748031497},{"duration":0.09999999999999432,"durationTicks":240,"midi":44,"name":"G#2","ticks":366480,"time":151.808568,"velocity":0.7874015748031497},{"duration":0.20000000000001705,"durationTicks":480,"midi":36,"name":"C2","ticks":366720,"time":151.908568,"velocity":0.7874015748031497},{"duration":0.19999999999998863,"durationTicks":480,"midi":44,"name":"G#2","ticks":367200,"time":152.10856800000002,"velocity":0.7874015748031497},{"duration":0.09999999999999432,"durationTicks":240,"midi":69,"name":"A4","ticks":367680,"time":152.308568,"velocity":0.7874015748031497},{"duration":0.19999999999998863,"durationTicks":480,"midi":40,"name":"E2","ticks":367680,"time":152.308568,"velocity":0.7874015748031497},{"duration":0.19999999999998863,"durationTicks":480,"midi":46,"name":"A#2","ticks":367680,"time":152.308568,"velocity":0.7874015748031497},{"duration":0.10000000000002274,"durationTicks":240,"midi":44,"name":"G#2","ticks":368160,"time":152.508568,"velocity":0.7874015748031497},{"duration":0.09999999999999432,"durationTicks":240,"midi":44,"name":"G#2","ticks":368400,"time":152.60856800000002,"velocity":0.7874015748031497},{"duration":0.19999999999998863,"durationTicks":480,"midi":36,"name":"C2","ticks":368640,"time":152.708568,"velocity":0.7874015748031497},{"duration":0.20000000000001705,"durationTicks":480,"midi":44,"name":"G#2","ticks":369120,"time":152.908568,"velocity":0.7874015748031497},{"duration":0.19999999999998863,"durationTicks":480,"midi":40,"name":"E2","ticks":369600,"time":153.10856800000002,"velocity":0.7874015748031497},{"duration":0.19999999999998863,"durationTicks":480,"midi":46,"name":"A#2","ticks":369600,"time":153.10856800000002,"velocity":0.7874015748031497},{"duration":0.09999999999999432,"durationTicks":240,"midi":69,"name":"A4","ticks":369600,"time":153.10856800000002,"velocity":0.7874015748031497},{"duration":0.09999999999999432,"durationTicks":240,"midi":44,"name":"G#2","ticks":370080,"time":153.308568,"velocity":0.7874015748031497},{"duration":0.09999999999999432,"durationTicks":240,"midi":44,"name":"G#2","ticks":370320,"time":153.408568,"velocity":0.7874015748031497},{"duration":0.20000000000001705,"durationTicks":480,"midi":36,"name":"C2","ticks":370560,"time":153.508568,"velocity":0.7874015748031497},{"duration":0.19999999999998863,"durationTicks":480,"midi":44,"name":"G#2","ticks":371040,"time":153.708568,"velocity":0.7874015748031497},{"duration":0.19999999999998863,"durationTicks":480,"midi":55,"name":"G3","ticks":371040,"time":153.708568,"velocity":0.7874015748031497},{"duration":0.20000000000001705,"durationTicks":480,"midi":40,"name":"E2","ticks":371520,"time":153.908568,"velocity":0.7874015748031497},{"duration":0.20000000000001705,"durationTicks":480,"midi":46,"name":"A#2","ticks":371520,"time":153.908568,"velocity":0.7874015748031497},{"duration":0.09999999999999432,"durationTicks":240,"midi":69,"name":"A4","ticks":371520,"time":153.908568,"velocity":0.7874015748031497},{"duration":0.09999999999999432,"durationTicks":240,"midi":44,"name":"G#2","ticks":372000,"time":154.10856800000002,"velocity":0.7874015748031497},{"duration":0.09999999999999432,"durationTicks":240,"midi":44,"name":"G#2","ticks":372240,"time":154.208568,"velocity":0.7874015748031497},{"duration":0.19999999999998863,"durationTicks":480,"midi":36,"name":"C2","ticks":372480,"time":154.308568,"velocity":0.7874015748031497},{"duration":0.19999999999998863,"durationTicks":480,"midi":49,"name":"C#3","ticks":372480,"time":154.308568,"velocity":0.7874015748031497},{"duration":0.20000000000001705,"durationTicks":480,"midi":44,"name":"G#2","ticks":372960,"time":154.508568,"velocity":0.7874015748031497},{"duration":0.19999999999998863,"durationTicks":480,"midi":40,"name":"E2","ticks":373440,"time":154.708568,"velocity":0.7874015748031497},{"duration":0.19999999999998863,"durationTicks":480,"midi":46,"name":"A#2","ticks":373440,"time":154.708568,"velocity":0.7874015748031497},{"duration":0.09999999999999432,"durationTicks":240,"midi":69,"name":"A4","ticks":373440,"time":154.708568,"velocity":0.7874015748031497},{"duration":0.09999999999999432,"durationTicks":240,"midi":44,"name":"G#2","ticks":373920,"time":154.908568,"velocity":0.7874015748031497},{"duration":0.10000000000002274,"durationTicks":240,"midi":44,"name":"G#2","ticks":374160,"time":155.008568,"velocity":0.7874015748031497},{"duration":0.19999999999998863,"durationTicks":480,"midi":36,"name":"C2","ticks":374400,"time":155.10856800000002,"velocity":0.7874015748031497},{"duration":0.19999999999998863,"durationTicks":480,"midi":44,"name":"G#2","ticks":374880,"time":155.308568,"velocity":0.7874015748031497},{"duration":0.10000000000002274,"durationTicks":240,"midi":69,"name":"A4","ticks":375360,"time":155.508568,"velocity":0.7874015748031497},{"duration":0.20000000000001705,"durationTicks":480,"midi":40,"name":"E2","ticks":375360,"time":155.508568,"velocity":0.7874015748031497},{"duration":0.20000000000001705,"durationTicks":480,"midi":46,"name":"A#2","ticks":375360,"time":155.508568,"velocity":0.7874015748031497},{"duration":0.09999999999999432,"durationTicks":240,"midi":44,"name":"G#2","ticks":375840,"time":155.708568,"velocity":0.7874015748031497},{"duration":0.09999999999999432,"durationTicks":240,"midi":44,"name":"G#2","ticks":376080,"time":155.808568,"velocity":0.7874015748031497},{"duration":0.20000000000001705,"durationTicks":480,"midi":36,"name":"C2","ticks":376320,"time":155.908568,"velocity":0.7874015748031497},{"duration":0.19999999999998863,"durationTicks":480,"midi":44,"name":"G#2","ticks":376800,"time":156.10856800000002,"velocity":0.7874015748031497},{"duration":0.19999999999998863,"durationTicks":480,"midi":40,"name":"E2","ticks":377280,"time":156.308568,"velocity":0.7874015748031497},{"duration":0.19999999999998863,"durationTicks":480,"midi":46,"name":"A#2","ticks":377280,"time":156.308568,"velocity":0.7874015748031497},{"duration":0.09999999999999432,"durationTicks":240,"midi":69,"name":"A4","ticks":377280,"time":156.308568,"velocity":0.7874015748031497},{"duration":0.10000000000002274,"durationTicks":240,"midi":44,"name":"G#2","ticks":377760,"time":156.508568,"velocity":0.7874015748031497},{"duration":0.09999999999999432,"durationTicks":240,"midi":44,"name":"G#2","ticks":378000,"time":156.60856800000002,"velocity":0.7874015748031497},{"duration":0.19999999999998863,"durationTicks":480,"midi":36,"name":"C2","ticks":378240,"time":156.708568,"velocity":0.7874015748031497},{"duration":0.20000000000001705,"durationTicks":480,"midi":44,"name":"G#2","ticks":378720,"time":156.908568,"velocity":0.7874015748031497},{"duration":0.20000000000001705,"durationTicks":480,"midi":55,"name":"G3","ticks":378720,"time":156.908568,"velocity":0.7874015748031497},{"duration":0.19999999999998863,"durationTicks":480,"midi":40,"name":"E2","ticks":379200,"time":157.10856800000002,"velocity":0.7874015748031497},{"duration":0.19999999999998863,"durationTicks":480,"midi":46,"name":"A#2","ticks":379200,"time":157.10856800000002,"velocity":0.7874015748031497},{"duration":0.09999999999999432,"durationTicks":240,"midi":69,"name":"A4","ticks":379200,"time":157.10856800000002,"velocity":0.7874015748031497},{"duration":0.09999999999999432,"durationTicks":240,"midi":44,"name":"G#2","ticks":379680,"time":157.308568,"velocity":0.7874015748031497},{"duration":0.10000000000002274,"durationTicks":240,"midi":44,"name":"G#2","ticks":379920,"time":157.408568,"velocity":0.7874015748031497},{"duration":0.19999999999998863,"durationTicks":480,"midi":36,"name":"C2","ticks":380160,"time":157.50856800000003,"velocity":0.7874015748031497},{"duration":0.19999999999998863,"durationTicks":480,"midi":49,"name":"C#3","ticks":380160,"time":157.50856800000003,"velocity":0.7874015748031497},{"duration":0.19999999999998863,"durationTicks":480,"midi":44,"name":"G#2","ticks":380640,"time":157.708568,"velocity":0.7874015748031497},{"duration":0.20000000000001705,"durationTicks":480,"midi":40,"name":"E2","ticks":381120,"time":157.908568,"velocity":0.7874015748031497},{"duration":0.20000000000001705,"durationTicks":480,"midi":46,"name":"A#2","ticks":381120,"time":157.908568,"velocity":0.7874015748031497},{"duration":0.10000000000002274,"durationTicks":240,"midi":69,"name":"A4","ticks":381120,"time":157.908568,"velocity":0.7874015748031497},{"duration":0.09999999999999432,"durationTicks":240,"midi":44,"name":"G#2","ticks":381600,"time":158.10856800000002,"velocity":0.7874015748031497},{"duration":0.09999999999999432,"durationTicks":240,"midi":44,"name":"G#2","ticks":381840,"time":158.208568,"velocity":0.7874015748031497},{"duration":0.20000000000001705,"durationTicks":480,"midi":36,"name":"C2","ticks":382080,"time":158.308568,"velocity":0.7874015748031497},{"duration":0.19999999999998863,"durationTicks":480,"midi":44,"name":"G#2","ticks":382560,"time":158.50856800000003,"velocity":0.7874015748031497},{"duration":0.09999999999999432,"durationTicks":240,"midi":69,"name":"A4","ticks":383040,"time":158.708568,"velocity":0.7874015748031497},{"duration":0.19999999999998863,"durationTicks":480,"midi":40,"name":"E2","ticks":383040,"time":158.708568,"velocity":0.7874015748031497},{"duration":0.19999999999998863,"durationTicks":480,"midi":46,"name":"A#2","ticks":383040,"time":158.708568,"velocity":0.7874015748031497},{"duration":0.10000000000002274,"durationTicks":240,"midi":44,"name":"G#2","ticks":383520,"time":158.908568,"velocity":0.7874015748031497},{"duration":0.09999999999999432,"durationTicks":240,"midi":44,"name":"G#2","ticks":383760,"time":159.00856800000003,"velocity":0.7874015748031497},{"duration":0.19999999999998863,"durationTicks":480,"midi":36,"name":"C2","ticks":384000,"time":159.10856800000002,"velocity":0.7874015748031497},{"duration":0.20000000000001705,"durationTicks":480,"midi":44,"name":"G#2","ticks":384480,"time":159.308568,"velocity":0.7874015748031497},{"duration":0.19999999999998863,"durationTicks":480,"midi":40,"name":"E2","ticks":384960,"time":159.50856800000003,"velocity":0.7874015748031497},{"duration":0.19999999999998863,"durationTicks":480,"midi":46,"name":"A#2","ticks":384960,"time":159.50856800000003,"velocity":0.7874015748031497},{"duration":0.09999999999999432,"durationTicks":240,"midi":69,"name":"A4","ticks":384960,"time":159.50856800000003,"velocity":0.7874015748031497},{"duration":0.09999999999999432,"durationTicks":240,"midi":44,"name":"G#2","ticks":385440,"time":159.708568,"velocity":0.7874015748031497},{"duration":0.09999999999999432,"durationTicks":240,"midi":44,"name":"G#2","ticks":385680,"time":159.808568,"velocity":0.7874015748031497},{"duration":0.20000000000001705,"durationTicks":480,"midi":36,"name":"C2","ticks":385920,"time":159.908568,"velocity":0.7874015748031497},{"duration":0.19999999999998863,"durationTicks":480,"midi":44,"name":"G#2","ticks":386400,"time":160.10856800000002,"velocity":0.7874015748031497},{"duration":0.19999999999998863,"durationTicks":480,"midi":55,"name":"G3","ticks":386400,"time":160.10856800000002,"velocity":0.7874015748031497},{"duration":0.20000000000001705,"durationTicks":480,"midi":40,"name":"E2","ticks":386880,"time":160.308568,"velocity":0.7874015748031497},{"duration":0.20000000000001705,"durationTicks":480,"midi":46,"name":"A#2","ticks":386880,"time":160.308568,"velocity":0.7874015748031497},{"duration":0.09999999999999432,"durationTicks":240,"midi":69,"name":"A4","ticks":386880,"time":160.308568,"velocity":0.7874015748031497},{"duration":0.09999999999999432,"durationTicks":240,"midi":44,"name":"G#2","ticks":387360,"time":160.50856800000003,"velocity":0.7874015748031497},{"duration":0.09999999999999432,"durationTicks":240,"midi":44,"name":"G#2","ticks":387600,"time":160.60856800000002,"velocity":0.7874015748031497},{"duration":0.19999999999998863,"durationTicks":480,"midi":36,"name":"C2","ticks":387840,"time":160.708568,"velocity":0.7874015748031497},{"duration":0.19999999999998863,"durationTicks":480,"midi":49,"name":"C#3","ticks":387840,"time":160.708568,"velocity":0.7874015748031497},{"duration":0.20000000000001705,"durationTicks":480,"midi":44,"name":"G#2","ticks":388320,"time":160.908568,"velocity":0.7874015748031497},{"duration":0.19999999999998863,"durationTicks":480,"midi":40,"name":"E2","ticks":388800,"time":161.10856800000002,"velocity":0.7874015748031497},{"duration":0.19999999999998863,"durationTicks":480,"midi":46,"name":"A#2","ticks":388800,"time":161.10856800000002,"velocity":0.7874015748031497},{"duration":0.09999999999999432,"durationTicks":240,"midi":69,"name":"A4","ticks":388800,"time":161.10856800000002,"velocity":0.7874015748031497},{"duration":0.09999999999999432,"durationTicks":240,"midi":44,"name":"G#2","ticks":389280,"time":161.308568,"velocity":0.7874015748031497},{"duration":0.10000000000002274,"durationTicks":240,"midi":44,"name":"G#2","ticks":389520,"time":161.408568,"velocity":0.7874015748031497},{"duration":0.19999999999998863,"durationTicks":480,"midi":36,"name":"C2","ticks":389760,"time":161.50856800000003,"velocity":0.7874015748031497},{"duration":0.19999999999998863,"durationTicks":480,"midi":44,"name":"G#2","ticks":390240,"time":161.708568,"velocity":0.7874015748031497},{"duration":0.10000000000002274,"durationTicks":240,"midi":69,"name":"A4","ticks":390720,"time":161.908568,"velocity":0.7874015748031497},{"duration":0.20000000000001705,"durationTicks":480,"midi":40,"name":"E2","ticks":390720,"time":161.908568,"velocity":0.7874015748031497},{"duration":0.20000000000001705,"durationTicks":480,"midi":46,"name":"A#2","ticks":390720,"time":161.908568,"velocity":0.7874015748031497},{"duration":0.09999999999999432,"durationTicks":240,"midi":44,"name":"G#2","ticks":391200,"time":162.10856800000002,"velocity":0.7874015748031497},{"duration":0.09999999999999432,"durationTicks":240,"midi":44,"name":"G#2","ticks":391440,"time":162.208568,"velocity":0.7874015748031497},{"duration":0.20000000000001705,"durationTicks":480,"midi":36,"name":"C2","ticks":391680,"time":162.308568,"velocity":0.7874015748031497},{"duration":0.19999999999998863,"durationTicks":480,"midi":44,"name":"G#2","ticks":392160,"time":162.50856800000003,"velocity":0.7874015748031497},{"duration":0.19999999999998863,"durationTicks":480,"midi":40,"name":"E2","ticks":392640,"time":162.708568,"velocity":0.7874015748031497},{"duration":0.19999999999998863,"durationTicks":480,"midi":46,"name":"A#2","ticks":392640,"time":162.708568,"velocity":0.7874015748031497},{"duration":0.09999999999999432,"durationTicks":240,"midi":69,"name":"A4","ticks":392640,"time":162.708568,"velocity":0.7874015748031497},{"duration":0.10000000000002274,"durationTicks":240,"midi":44,"name":"G#2","ticks":393120,"time":162.908568,"velocity":0.7874015748031497},{"duration":0.09999999999999432,"durationTicks":240,"midi":44,"name":"G#2","ticks":393360,"time":163.00856800000003,"velocity":0.7874015748031497},{"duration":0.19999999999998863,"durationTicks":480,"midi":36,"name":"C2","ticks":393600,"time":163.10856800000002,"velocity":0.7874015748031497},{"duration":0.20000000000001705,"durationTicks":480,"midi":44,"name":"G#2","ticks":394080,"time":163.308568,"velocity":0.7874015748031497},{"duration":0.20000000000001705,"durationTicks":480,"midi":55,"name":"G3","ticks":394080,"time":163.308568,"velocity":0.7874015748031497},{"duration":0.19999999999998863,"durationTicks":480,"midi":40,"name":"E2","ticks":394560,"time":163.50856800000003,"velocity":0.7874015748031497},{"duration":0.19999999999998863,"durationTicks":480,"midi":46,"name":"A#2","ticks":394560,"time":163.50856800000003,"velocity":0.7874015748031497},{"duration":0.09999999999999432,"durationTicks":240,"midi":69,"name":"A4","ticks":394560,"time":163.50856800000003,"velocity":0.7874015748031497},{"duration":0.09999999999999432,"durationTicks":240,"midi":44,"name":"G#2","ticks":395040,"time":163.708568,"velocity":0.7874015748031497},{"duration":0.09999999999999432,"durationTicks":240,"midi":44,"name":"G#2","ticks":395280,"time":163.808568,"velocity":0.7874015748031497},{"duration":0.20000000000001705,"durationTicks":480,"midi":36,"name":"C2","ticks":395520,"time":163.908568,"velocity":0.7874015748031497},{"duration":0.20000000000001705,"durationTicks":480,"midi":49,"name":"C#3","ticks":395520,"time":163.908568,"velocity":0.7874015748031497},{"duration":0.19999999999998863,"durationTicks":480,"midi":44,"name":"G#2","ticks":396000,"time":164.10856800000002,"velocity":0.7874015748031497},{"duration":0.20000000000001705,"durationTicks":480,"midi":40,"name":"E2","ticks":396480,"time":164.308568,"velocity":0.7874015748031497},{"duration":0.20000000000001705,"durationTicks":480,"midi":46,"name":"A#2","ticks":396480,"time":164.308568,"velocity":0.7874015748031497},{"duration":0.09999999999999432,"durationTicks":240,"midi":69,"name":"A4","ticks":396480,"time":164.308568,"velocity":0.7874015748031497},{"duration":0.09999999999999432,"durationTicks":240,"midi":44,"name":"G#2","ticks":396960,"time":164.50856800000003,"velocity":0.7874015748031497},{"duration":0.09999999999999432,"durationTicks":240,"midi":44,"name":"G#2","ticks":397200,"time":164.60856800000002,"velocity":0.7874015748031497},{"duration":0.19999999999998863,"durationTicks":480,"midi":36,"name":"C2","ticks":397440,"time":164.708568,"velocity":0.7874015748031497},{"duration":0.20000000000001705,"durationTicks":480,"midi":44,"name":"G#2","ticks":397920,"time":164.908568,"velocity":0.7874015748031497},{"duration":0.09999999999999432,"durationTicks":240,"midi":69,"name":"A4","ticks":398400,"time":165.10856800000002,"velocity":0.7874015748031497},{"duration":0.19999999999998863,"durationTicks":480,"midi":40,"name":"E2","ticks":398400,"time":165.10856800000002,"velocity":0.7874015748031497},{"duration":0.19999999999998863,"durationTicks":480,"midi":46,"name":"A#2","ticks":398400,"time":165.10856800000002,"velocity":0.7874015748031497},{"duration":0.09999999999999432,"durationTicks":240,"midi":44,"name":"G#2","ticks":398880,"time":165.308568,"velocity":0.7874015748031497},{"duration":0.10000000000002274,"durationTicks":240,"midi":44,"name":"G#2","ticks":399120,"time":165.408568,"velocity":0.7874015748031497},{"duration":0.19999999999998863,"durationTicks":480,"midi":36,"name":"C2","ticks":399360,"time":165.50856800000003,"velocity":0.7874015748031497},{"duration":0.19999999999998863,"durationTicks":480,"midi":44,"name":"G#2","ticks":399840,"time":165.708568,"velocity":0.7874015748031497},{"duration":0.20000000000001705,"durationTicks":480,"midi":40,"name":"E2","ticks":400320,"time":165.908568,"velocity":0.7874015748031497},{"duration":0.20000000000001705,"durationTicks":480,"midi":46,"name":"A#2","ticks":400320,"time":165.908568,"velocity":0.7874015748031497},{"duration":0.10000000000002274,"durationTicks":240,"midi":69,"name":"A4","ticks":400320,"time":165.908568,"velocity":0.7874015748031497},{"duration":0.09999999999999432,"durationTicks":240,"midi":44,"name":"G#2","ticks":400800,"time":166.10856800000002,"velocity":0.7874015748031497},{"duration":0.09999999999999432,"durationTicks":240,"midi":44,"name":"G#2","ticks":401040,"time":166.208568,"velocity":0.7874015748031497},{"duration":0.20000000000001705,"durationTicks":480,"midi":36,"name":"C2","ticks":401280,"time":166.308568,"velocity":0.7874015748031497},{"duration":0.19999999999998863,"durationTicks":480,"midi":44,"name":"G#2","ticks":401760,"time":166.50856800000003,"velocity":0.7874015748031497},{"duration":0.19999999999998863,"durationTicks":480,"midi":55,"name":"G3","ticks":401760,"time":166.50856800000003,"velocity":0.7874015748031497},{"duration":0.19999999999998863,"durationTicks":480,"midi":40,"name":"E2","ticks":402240,"time":166.708568,"velocity":0.7874015748031497},{"duration":0.19999999999998863,"durationTicks":480,"midi":46,"name":"A#2","ticks":402240,"time":166.708568,"velocity":0.7874015748031497},{"duration":0.09999999999999432,"durationTicks":240,"midi":69,"name":"A4","ticks":402240,"time":166.708568,"velocity":0.7874015748031497},{"duration":0.10000000000002274,"durationTicks":240,"midi":44,"name":"G#2","ticks":402720,"time":166.908568,"velocity":0.7874015748031497},{"duration":0.09999999999999432,"durationTicks":240,"midi":44,"name":"G#2","ticks":402960,"time":167.00856800000003,"velocity":0.7874015748031497},{"duration":0.19999999999998863,"durationTicks":480,"midi":36,"name":"C2","ticks":403200,"time":167.10856800000002,"velocity":0.7874015748031497},{"duration":0.19999999999998863,"durationTicks":480,"midi":49,"name":"C#3","ticks":403200,"time":167.10856800000002,"velocity":0.7874015748031497},{"duration":0.20000000000001705,"durationTicks":480,"midi":44,"name":"G#2","ticks":403680,"time":167.308568,"velocity":0.7874015748031497},{"duration":0.19999999999998863,"durationTicks":480,"midi":40,"name":"E2","ticks":404160,"time":167.50856800000003,"velocity":0.7874015748031497},{"duration":0.19999999999998863,"durationTicks":480,"midi":46,"name":"A#2","ticks":404160,"time":167.50856800000003,"velocity":0.7874015748031497},{"duration":0.09999999999999432,"durationTicks":240,"midi":69,"name":"A4","ticks":404160,"time":167.50856800000003,"velocity":0.7874015748031497},{"duration":0.09999999999999432,"durationTicks":240,"midi":44,"name":"G#2","ticks":404640,"time":167.708568,"velocity":0.7874015748031497},{"duration":0.09999999999999432,"durationTicks":240,"midi":44,"name":"G#2","ticks":404880,"time":167.808568,"velocity":0.7874015748031497},{"duration":0.20000000000001705,"durationTicks":480,"midi":36,"name":"C2","ticks":405120,"time":167.908568,"velocity":0.7874015748031497},{"duration":0.19999999999998863,"durationTicks":480,"midi":44,"name":"G#2","ticks":405600,"time":168.10856800000002,"velocity":0.7874015748031497},{"duration":0.09999999999999432,"durationTicks":240,"midi":69,"name":"A4","ticks":406080,"time":168.308568,"velocity":0.7874015748031497},{"duration":0.20000000000001705,"durationTicks":480,"midi":40,"name":"E2","ticks":406080,"time":168.308568,"velocity":0.7874015748031497},{"duration":0.20000000000001705,"durationTicks":480,"midi":46,"name":"A#2","ticks":406080,"time":168.308568,"velocity":0.7874015748031497},{"duration":0.09999999999999432,"durationTicks":240,"midi":44,"name":"G#2","ticks":406560,"time":168.50856800000003,"velocity":0.7874015748031497},{"duration":0.09999999999999432,"durationTicks":240,"midi":44,"name":"G#2","ticks":406800,"time":168.60856800000002,"velocity":0.7874015748031497},{"duration":0.19999999999998863,"durationTicks":480,"midi":36,"name":"C2","ticks":407040,"time":168.708568,"velocity":0.7874015748031497},{"duration":0.20000000000001705,"durationTicks":480,"midi":44,"name":"G#2","ticks":407520,"time":168.908568,"velocity":0.7874015748031497},{"duration":0.19999999999998863,"durationTicks":480,"midi":40,"name":"E2","ticks":408000,"time":169.10856800000002,"velocity":0.7874015748031497},{"duration":0.19999999999998863,"durationTicks":480,"midi":46,"name":"A#2","ticks":408000,"time":169.10856800000002,"velocity":0.7874015748031497},{"duration":0.09999999999999432,"durationTicks":240,"midi":69,"name":"A4","ticks":408000,"time":169.10856800000002,"velocity":0.7874015748031497},{"duration":0.09999999999999432,"durationTicks":240,"midi":44,"name":"G#2","ticks":408480,"time":169.308568,"velocity":0.7874015748031497},{"duration":0.10000000000002274,"durationTicks":240,"midi":44,"name":"G#2","ticks":408720,"time":169.408568,"velocity":0.7874015748031497},{"duration":0.19999999999998863,"durationTicks":480,"midi":36,"name":"C2","ticks":408960,"time":169.50856800000003,"velocity":0.7874015748031497},{"duration":0.19999999999998863,"durationTicks":480,"midi":44,"name":"G#2","ticks":409440,"time":169.708568,"velocity":0.7874015748031497},{"duration":0.19999999999998863,"durationTicks":480,"midi":55,"name":"G3","ticks":409440,"time":169.708568,"velocity":0.7874015748031497},{"duration":0.10000000000002274,"durationTicks":240,"midi":40,"name":"E2","ticks":409920,"time":169.908568,"velocity":0.7874015748031497},{"duration":0.20000000000001705,"durationTicks":480,"midi":46,"name":"A#2","ticks":409920,"time":169.908568,"velocity":0.7874015748031497},{"duration":0.10000000000002274,"durationTicks":240,"midi":69,"name":"A4","ticks":409920,"time":169.908568,"velocity":0.7874015748031497},{"duration":0.09999999999999432,"durationTicks":240,"midi":40,"name":"E2","ticks":410160,"time":170.00856800000003,"velocity":0.7874015748031497},{"duration":0.09999999999999432,"durationTicks":240,"midi":44,"name":"G#2","ticks":410400,"time":170.10856800000002,"velocity":0.7874015748031497},{"duration":0.09999999999999432,"durationTicks":240,"midi":40,"name":"E2","ticks":410400,"time":170.10856800000002,"velocity":0.7874015748031497},{"duration":0.09999999999999432,"durationTicks":240,"midi":44,"name":"G#2","ticks":410640,"time":170.208568,"velocity":0.7874015748031497},{"duration":0.20000000000001705,"durationTicks":480,"midi":36,"name":"C2","ticks":410880,"time":170.308568,"velocity":0.7874015748031497},{"duration":0.20000000000001705,"durationTicks":480,"midi":49,"name":"C#3","ticks":410880,"time":170.308568,"velocity":0.7874015748031497},{"duration":0.19999999999998863,"durationTicks":480,"midi":44,"name":"G#2","ticks":411360,"time":170.50856800000003,"velocity":0.7637795275590551},{"duration":0.19999999999998863,"durationTicks":480,"midi":40,"name":"E2","ticks":411840,"time":170.708568,"velocity":0.7401574803149606},{"duration":0.19999999999998863,"durationTicks":480,"midi":46,"name":"A#2","ticks":411840,"time":170.708568,"velocity":0.7401574803149606},{"duration":0.09999999999999432,"durationTicks":240,"midi":69,"name":"A4","ticks":411840,"time":170.708568,"velocity":0.7401574803149606},{"duration":0.10000000000002274,"durationTicks":240,"midi":44,"name":"G#2","ticks":412320,"time":170.908568,"velocity":0.7165354330708661},{"duration":0.09999999999999432,"durationTicks":240,"midi":44,"name":"G#2","ticks":412560,"time":171.00856800000003,"velocity":0.7086614173228346},{"duration":0.19999999999998863,"durationTicks":480,"midi":36,"name":"C2","ticks":412800,"time":171.10856800000002,"velocity":0.6929133858267716},{"duration":0.20000000000001705,"durationTicks":480,"midi":44,"name":"G#2","ticks":413280,"time":171.308568,"velocity":0.6692913385826772},{"duration":0.09999999999999432,"durationTicks":240,"midi":69,"name":"A4","ticks":413760,"time":171.50856800000003,"velocity":0.6456692913385826},{"duration":0.19999999999998863,"durationTicks":480,"midi":40,"name":"E2","ticks":413760,"time":171.50856800000003,"velocity":0.6456692913385826},{"duration":0.19999999999998863,"durationTicks":480,"midi":46,"name":"A#2","ticks":413760,"time":171.50856800000003,"velocity":0.6456692913385826},{"duration":0.09999999999999432,"durationTicks":240,"midi":44,"name":"G#2","ticks":414240,"time":171.708568,"velocity":0.6220472440944882},{"duration":0.09999999999999432,"durationTicks":240,"midi":44,"name":"G#2","ticks":414480,"time":171.808568,"velocity":0.6062992125984252},{"duration":0.20000000000001705,"durationTicks":480,"midi":36,"name":"C2","ticks":414720,"time":171.908568,"velocity":0.5905511811023622},{"duration":0.19999999999998863,"durationTicks":480,"midi":44,"name":"G#2","ticks":415200,"time":172.10856800000002,"velocity":0.5669291338582677},{"duration":0.20000000000001705,"durationTicks":480,"midi":40,"name":"E2","ticks":415680,"time":172.308568,"velocity":0.5433070866141733},{"duration":0.20000000000001705,"durationTicks":480,"midi":46,"name":"A#2","ticks":415680,"time":172.308568,"velocity":0.5433070866141733},{"duration":0.09999999999999432,"durationTicks":240,"midi":69,"name":"A4","ticks":415680,"time":172.308568,"velocity":0.5433070866141733},{"duration":0.09999999999999432,"durationTicks":240,"midi":44,"name":"G#2","ticks":416160,"time":172.50856800000003,"velocity":0.5196850393700787},{"duration":0.09999999999999432,"durationTicks":240,"midi":44,"name":"G#2","ticks":416400,"time":172.60856800000002,"velocity":0.5118110236220472},{"duration":0.19999999999998863,"durationTicks":480,"midi":36,"name":"C2","ticks":416640,"time":172.708568,"velocity":0.49606299212598426},{"duration":0.20000000000001705,"durationTicks":480,"midi":44,"name":"G#2","ticks":417120,"time":172.908568,"velocity":0.47244094488188976},{"duration":0.20000000000001705,"durationTicks":480,"midi":55,"name":"G3","ticks":417120,"time":172.908568,"velocity":0.47244094488188976},{"duration":0.19999999999998863,"durationTicks":480,"midi":40,"name":"E2","ticks":417600,"time":173.10856800000002,"velocity":0.44881889763779526},{"duration":0.19999999999998863,"durationTicks":480,"midi":46,"name":"A#2","ticks":417600,"time":173.10856800000002,"velocity":0.44881889763779526},{"duration":0.09999999999999432,"durationTicks":240,"midi":69,"name":"A4","ticks":417600,"time":173.10856800000002,"velocity":0.44881889763779526},{"duration":0.09999999999999432,"durationTicks":240,"midi":44,"name":"G#2","ticks":418080,"time":173.308568,"velocity":0.4251968503937008},{"duration":0.10000000000002274,"durationTicks":240,"midi":44,"name":"G#2","ticks":418320,"time":173.408568,"velocity":0.4094488188976378},{"duration":0.19999999999998863,"durationTicks":480,"midi":36,"name":"C2","ticks":418560,"time":173.50856800000003,"velocity":0.3937007874015748},{"duration":0.19999999999998863,"durationTicks":480,"midi":49,"name":"C#3","ticks":418560,"time":173.50856800000003,"velocity":0.3937007874015748},{"duration":0.19999999999998863,"durationTicks":480,"midi":44,"name":"G#2","ticks":419040,"time":173.708568,"velocity":0.3700787401574803},{"duration":0.20000000000001705,"durationTicks":480,"midi":40,"name":"E2","ticks":419520,"time":173.908568,"velocity":0.3464566929133858},{"duration":0.20000000000001705,"durationTicks":480,"midi":46,"name":"A#2","ticks":419520,"time":173.908568,"velocity":0.3464566929133858},{"duration":0.10000000000002274,"durationTicks":240,"midi":69,"name":"A4","ticks":419520,"time":173.908568,"velocity":0.3464566929133858},{"duration":0.09999999999999432,"durationTicks":240,"midi":44,"name":"G#2","ticks":420000,"time":174.10856800000002,"velocity":0.3228346456692913},{"duration":0.09999999999999432,"durationTicks":240,"midi":44,"name":"G#2","ticks":420240,"time":174.208568,"velocity":0.31496062992125984},{"duration":0.20000000000001705,"durationTicks":480,"midi":36,"name":"C2","ticks":420480,"time":174.308568,"velocity":0.2992125984251969},{"duration":0.19999999999998863,"durationTicks":480,"midi":44,"name":"G#2","ticks":420960,"time":174.50856800000003,"velocity":0.2755905511811024},{"duration":0.09999999999999432,"durationTicks":240,"midi":69,"name":"A4","ticks":421440,"time":174.708568,"velocity":0.25196850393700787},{"duration":0.19999999999998863,"durationTicks":480,"midi":40,"name":"E2","ticks":421440,"time":174.708568,"velocity":0.25196850393700787},{"duration":0.19999999999998863,"durationTicks":480,"midi":46,"name":"A#2","ticks":421440,"time":174.708568,"velocity":0.25196850393700787},{"duration":0.10000000000002274,"durationTicks":240,"midi":44,"name":"G#2","ticks":421920,"time":174.908568,"velocity":0.2283464566929134},{"duration":0.09999999999999432,"durationTicks":240,"midi":44,"name":"G#2","ticks":422160,"time":175.00856800000003,"velocity":0.2125984251968504},{"duration":0.19999999999998863,"durationTicks":480,"midi":36,"name":"C2","ticks":422400,"time":175.10856800000002,"velocity":0.1968503937007874},{"duration":0.20000000000001705,"durationTicks":480,"midi":44,"name":"G#2","ticks":422880,"time":175.308568,"velocity":0.1732283464566929},{"duration":0.19999999999998863,"durationTicks":480,"midi":40,"name":"E2","ticks":423360,"time":175.50856800000003,"velocity":0.14960629921259844},{"duration":0.19999999999998863,"durationTicks":480,"midi":46,"name":"A#2","ticks":423360,"time":175.50856800000003,"velocity":0.14960629921259844},{"duration":0.09999999999999432,"durationTicks":240,"midi":69,"name":"A4","ticks":423360,"time":175.50856800000003,"velocity":0.14960629921259844},{"duration":0.09999999999999432,"durationTicks":240,"midi":44,"name":"G#2","ticks":423840,"time":175.708568,"velocity":0.12598425196850394},{"duration":0.09999999999999432,"durationTicks":240,"midi":44,"name":"G#2","ticks":424080,"time":175.808568,"velocity":0.11811023622047244},{"duration":0.20000000000001705,"durationTicks":480,"midi":36,"name":"C2","ticks":424320,"time":175.908568,"velocity":0.10236220472440945},{"duration":0.19999999999998863,"durationTicks":480,"midi":44,"name":"G#2","ticks":424800,"time":176.10856800000002,"velocity":0.07874015748031496},{"duration":0.19999999999998863,"durationTicks":480,"midi":55,"name":"G3","ticks":424800,"time":176.10856800000002,"velocity":0.07874015748031496},{"duration":0.20000000000001705,"durationTicks":480,"midi":40,"name":"E2","ticks":425280,"time":176.308568,"velocity":0.05511811023622047},{"duration":0.20000000000001705,"durationTicks":480,"midi":46,"name":"A#2","ticks":425280,"time":176.308568,"velocity":0.05511811023622047},{"duration":0.09999999999999432,"durationTicks":240,"midi":69,"name":"A4","ticks":425280,"time":176.308568,"velocity":0.05511811023622047},{"duration":0.09999999999999432,"durationTicks":240,"midi":44,"name":"G#2","ticks":425760,"time":176.50856800000003,"velocity":0.031496062992125984},{"duration":0.09999999999999432,"durationTicks":240,"midi":44,"name":"G#2","ticks":426000,"time":176.60856800000002,"velocity":0.015748031496062992}]},{"channel":0,"controlChanges":{"10":[{"number":10,"ticks":960,"time":0.12,"value":0.7559055118110236}]},"pitchBends":[],"instrument":{"family":"piano","number":0,"name":"acoustic grand piano"},"name":"","notes":[]},{"channel":1,"controlChanges":{},"pitchBends":[{"ticks":1920,"time":0.24,"value":0},{"ticks":10560,"time":3.4799970000000005,"value":0},{"ticks":10575,"time":3.486693421875,"value":-0.015625},{"ticks":10590,"time":3.49338984375,"value":-0.03125},{"ticks":10620,"time":3.5067826875000003,"value":-0.046875},{"ticks":10635,"time":3.5134791093750004,"value":-0.0625},{"ticks":10650,"time":3.52017553125,"value":-0.078125},{"ticks":10665,"time":3.526871953125,"value":-0.09375},{"ticks":10680,"time":3.533568375,"value":-0.109375},{"ticks":10695,"time":3.5402647968750003,"value":-0.125},{"ticks":10710,"time":3.5469612187500004,"value":-0.140625},{"ticks":10725,"time":3.5536576406250004,"value":-0.15625},{"ticks":10740,"time":3.5603540625,"value":-0.171875},{"ticks":10755,"time":3.567050484375,"value":-0.1875},{"ticks":10770,"time":3.5737469062500002,"value":-0.21875},{"ticks":10785,"time":3.5804433281250003,"value":-0.234375},{"ticks":10800,"time":3.5871397500000004,"value":-0.25},{"ticks":10815,"time":3.593836171875,"value":-0.265625},{"ticks":10845,"time":3.607229015625,"value":-0.28125},{"ticks":10860,"time":3.6139254375000003,"value":-0.296875},{"ticks":10875,"time":3.6206218593750004,"value":-0.3125},{"ticks":10890,"time":3.6273182812500004,"value":-0.328125},{"ticks":10905,"time":3.634014703125,"value":-0.34375},{"ticks":10920,"time":3.640711125,"value":-0.359375},{"ticks":10935,"time":3.6474075468750002,"value":-0.375},{"ticks":10950,"time":3.6541039687500003,"value":-0.390625},{"ticks":10965,"time":3.6608003906250004,"value":-0.40625},{"ticks":10980,"time":3.6674968125,"value":-0.421875},{"ticks":10995,"time":3.674193234375,"value":-0.4375},{"ticks":11010,"time":3.68088965625,"value":-0.453125},{"ticks":11025,"time":3.6875860781250003,"value":-0.46875},{"ticks":11040,"time":3.6942825000000004,"value":-0.484375},{"ticks":11055,"time":3.7009789218750004,"value":-0.5},{"ticks":11070,"time":3.70767534375,"value":-0.515625},{"ticks":11085,"time":3.714371765625,"value":-0.53125},{"ticks":11100,"time":3.7210681875000002,"value":-0.546875},{"ticks":11115,"time":3.7277646093750003,"value":-0.5625},{"ticks":11130,"time":3.7344610312500004,"value":-0.578125},{"ticks":11145,"time":3.741157453125,"value":-0.59375},{"ticks":11160,"time":3.747853875,"value":-0.609375},{"ticks":11175,"time":3.754550296875,"value":-0.625},{"ticks":11190,"time":3.7612467187500003,"value":-0.640625},{"ticks":11205,"time":3.7679431406250004,"value":-0.65625},{"ticks":11235,"time":3.781335984375,"value":-0.671875},{"ticks":11250,"time":3.78803240625,"value":-0.6875},{"ticks":11265,"time":3.7947288281250002,"value":-0.703125},{"ticks":11280,"time":3.8014252500000003,"value":-0.71875},{"ticks":11295,"time":3.8081216718750004,"value":-0.734375},{"ticks":11310,"time":3.8148180937500005,"value":-0.75},{"ticks":11325,"time":3.821514515625,"value":-0.765625},{"ticks":11340,"time":3.8282109375,"value":-0.78125},{"ticks":11355,"time":3.8349073593750003,"value":-0.796875},{"ticks":11370,"time":3.8416037812500003,"value":-0.828125},{"ticks":11385,"time":3.8483002031250004,"value":-0.84375},{"ticks":11400,"time":3.854996625,"value":-0.859375},{"ticks":11430,"time":3.8683894687500002,"value":-0.875},{"ticks":11460,"time":3.8817823125000004,"value":-0.890625},{"ticks":11475,"time":3.8884787343750005,"value":-0.90625},{"ticks":11490,"time":3.89517515625,"value":-0.921875},{"ticks":11505,"time":3.901871578125,"value":-1},{"ticks":11520,"time":3.9085680000000003,"value":0},{"ticks":12000,"time":4.108568,"value":-1},{"ticks":12010,"time":4.112734666666667,"value":-0.90625},{"ticks":12020,"time":4.116901333333334,"value":-0.875},{"ticks":12030,"time":4.121068,"value":-0.84375},{"ticks":12040,"time":4.125234666666667,"value":-0.78125},{"ticks":12050,"time":4.129401333333334,"value":-0.734375},{"ticks":12060,"time":4.133568,"value":-0.5625},{"ticks":12070,"time":4.137734666666667,"value":-0.328125},{"ticks":12080,"time":4.141901333333333,"value":-0.15625},{"ticks":12090,"time":4.1460680000000005,"value":-0.09375},{"ticks":12100,"time":4.150234666666667,"value":0},{"ticks":14160,"time":5.008568,"value":0},{"ticks":14170,"time":5.012734666666667,"value":-0.28125},{"ticks":14180,"time":5.016901333333333,"value":-0.328125},{"ticks":14190,"time":5.0210680000000005,"value":-0.4375},{"ticks":14200,"time":5.025234666666667,"value":-0.46875},{"ticks":14210,"time":5.029401333333333,"value":-0.515625},{"ticks":14220,"time":5.033568000000001,"value":-0.546875},{"ticks":14230,"time":5.037734666666667,"value":-0.578125},{"ticks":14240,"time":5.041901333333334,"value":-0.640625},{"ticks":14250,"time":5.046068,"value":-0.6875},{"ticks":14260,"time":5.050234666666666,"value":-0.71875},{"ticks":14270,"time":5.054401333333334,"value":-0.734375},{"ticks":14280,"time":5.058568,"value":-0.78125},{"ticks":14290,"time":5.062734666666667,"value":-0.828125},{"ticks":14300,"time":5.066901333333334,"value":-0.875},{"ticks":14310,"time":5.071068,"value":-0.90625},{"ticks":14320,"time":5.075234666666667,"value":-1},{"ticks":14400,"time":5.108568,"value":0},{"ticks":15840,"time":5.7085680000000005,"value":-1},{"ticks":15850,"time":5.712734666666667,"value":-0.78125},{"ticks":15860,"time":5.716901333333333,"value":-0.734375},{"ticks":15870,"time":5.721068000000001,"value":-0.671875},{"ticks":15880,"time":5.725234666666667,"value":-0.625},{"ticks":15890,"time":5.729401333333334,"value":-0.578125},{"ticks":15900,"time":5.733568,"value":-0.53125},{"ticks":15910,"time":5.737734666666667,"value":-0.421875},{"ticks":15920,"time":5.741901333333334,"value":-0.359375},{"ticks":15930,"time":5.746068,"value":-0.3125},{"ticks":15940,"time":5.7502346666666675,"value":-0.28125},{"ticks":15950,"time":5.754401333333334,"value":-0.21875},{"ticks":15960,"time":5.758568,"value":-0.15625},{"ticks":15970,"time":5.762734666666667,"value":-0.125},{"ticks":15980,"time":5.766901333333333,"value":-0.09375},{"ticks":15990,"time":5.7710680000000005,"value":-0.0625},{"ticks":16000,"time":5.775234666666667,"value":-0.046875},{"ticks":16010,"time":5.779401333333333,"value":-0.015625},{"ticks":16040,"time":5.791901333333334,"value":0},{"ticks":18720,"time":6.908568000000001,"value":-1},{"ticks":18730,"time":6.912734666666667,"value":-0.953125},{"ticks":18740,"time":6.916901333333334,"value":-0.90625},{"ticks":18750,"time":6.921068,"value":-0.84375},{"ticks":18760,"time":6.925234666666667,"value":-0.75},{"ticks":18770,"time":6.929401333333334,"value":-0.6875},{"ticks":18780,"time":6.933568000000001,"value":-0.640625},{"ticks":18790,"time":6.9377346666666675,"value":-0.515625},{"ticks":18800,"time":6.941901333333334,"value":-0.203125},{"ticks":18810,"time":6.946068,"value":-0.15625},{"ticks":18820,"time":6.950234666666667,"value":-0.109375},{"ticks":18830,"time":6.954401333333333,"value":-0.03125},{"ticks":18840,"time":6.9585680000000005,"value":-0.015625},{"ticks":18940,"time":7.0002346666666675,"value":0},{"ticks":19200,"time":7.108568,"value":0},{"ticks":19680,"time":7.308568000000001,"value":-1},{"ticks":19690,"time":7.3127346666666675,"value":-0.90625},{"ticks":19700,"time":7.316901333333334,"value":-0.875},{"ticks":19710,"time":7.321068,"value":-0.84375},{"ticks":19720,"time":7.325234666666667,"value":-0.78125},{"ticks":19730,"time":7.329401333333334,"value":-0.734375},{"ticks":19740,"time":7.3335680000000005,"value":-0.5625},{"ticks":19750,"time":7.337734666666667,"value":-0.328125},{"ticks":19760,"time":7.341901333333334,"value":-0.15625},{"ticks":19770,"time":7.346068000000001,"value":-0.09375},{"ticks":19780,"time":7.350234666666667,"value":0},{"ticks":21840,"time":8.208568,"value":0},{"ticks":21850,"time":8.212734666666666,"value":-0.28125},{"ticks":21860,"time":8.216901333333334,"value":-0.328125},{"ticks":21870,"time":8.221068,"value":-0.4375},{"ticks":21880,"time":8.225234666666667,"value":-0.46875},{"ticks":21890,"time":8.229401333333334,"value":-0.515625},{"ticks":21900,"time":8.233568,"value":-0.546875},{"ticks":21910,"time":8.237734666666666,"value":-0.578125},{"ticks":21920,"time":8.241901333333335,"value":-0.640625},{"ticks":21930,"time":8.246068000000001,"value":-0.6875},{"ticks":21940,"time":8.250234666666667,"value":-0.71875},{"ticks":21950,"time":8.254401333333334,"value":-0.734375},{"ticks":21960,"time":8.258568,"value":-0.78125},{"ticks":21970,"time":8.262734666666667,"value":-0.828125},{"ticks":21980,"time":8.266901333333333,"value":-0.875},{"ticks":21990,"time":8.271068,"value":-0.90625},{"ticks":22000,"time":8.275234666666666,"value":-1},{"ticks":22080,"time":8.308568000000001,"value":0},{"ticks":23520,"time":8.908568,"value":-1},{"ticks":23530,"time":8.912734666666667,"value":-0.78125},{"ticks":23540,"time":8.916901333333334,"value":-0.734375},{"ticks":23550,"time":8.921068,"value":-0.671875},{"ticks":23560,"time":8.925234666666666,"value":-0.625},{"ticks":23570,"time":8.929401333333335,"value":-0.578125},{"ticks":23580,"time":8.933568000000001,"value":-0.53125},{"ticks":23590,"time":8.937734666666667,"value":-0.421875},{"ticks":23600,"time":8.941901333333334,"value":-0.359375},{"ticks":23610,"time":8.946068,"value":-0.3125},{"ticks":23620,"time":8.950234666666667,"value":-0.28125},{"ticks":23630,"time":8.954401333333335,"value":-0.21875},{"ticks":23640,"time":8.958568000000001,"value":-0.15625},{"ticks":23650,"time":8.962734666666668,"value":-0.125},{"ticks":23660,"time":8.966901333333334,"value":-0.09375},{"ticks":23670,"time":8.971068,"value":-0.0625},{"ticks":23680,"time":8.975234666666667,"value":-0.046875},{"ticks":23690,"time":8.979401333333334,"value":-0.015625},{"ticks":23720,"time":8.991901333333335,"value":0},{"ticks":26400,"time":10.108568,"value":-1},{"ticks":26410,"time":10.112734666666666,"value":-0.953125},{"ticks":26420,"time":10.116901333333335,"value":-0.90625},{"ticks":26430,"time":10.121068000000001,"value":-0.84375},{"ticks":26440,"time":10.125234666666667,"value":-0.75},{"ticks":26450,"time":10.129401333333334,"value":-0.6875},{"ticks":26460,"time":10.133568,"value":-0.640625},{"ticks":26470,"time":10.137734666666667,"value":-0.515625},{"ticks":26480,"time":10.141901333333335,"value":-0.203125},{"ticks":26490,"time":10.146068000000001,"value":-0.15625},{"ticks":26500,"time":10.150234666666668,"value":-0.109375},{"ticks":26510,"time":10.154401333333334,"value":-0.03125},{"ticks":26520,"time":10.158568,"value":-0.015625},{"ticks":26620,"time":10.200234666666667,"value":0},{"ticks":26880,"time":10.308568000000001,"value":0},{"ticks":27360,"time":10.508568,"value":-1},{"ticks":27370,"time":10.512734666666669,"value":-0.90625},{"ticks":27380,"time":10.516901333333333,"value":-0.875},{"ticks":27390,"time":10.521068000000001,"value":-0.84375},{"ticks":27400,"time":10.525234666666668,"value":-0.78125},{"ticks":27410,"time":10.529401333333334,"value":-0.734375},{"ticks":27420,"time":10.533568,"value":-0.5625},{"ticks":27430,"time":10.537734666666667,"value":-0.328125},{"ticks":27440,"time":10.541901333333334,"value":-0.15625},{"ticks":27450,"time":10.546068,"value":-0.09375},{"ticks":27460,"time":10.550234666666668,"value":0},{"ticks":28560,"time":11.008568,"value":0},{"ticks":28575,"time":11.014818,"value":-0.03125},{"ticks":28590,"time":11.021068000000001,"value":-0.046875},{"ticks":28605,"time":11.027318000000001,"value":-0.09375},{"ticks":28620,"time":11.033568,"value":-0.125},{"ticks":28635,"time":11.039818,"value":-0.1875},{"ticks":28650,"time":11.046068,"value":-0.28125},{"ticks":28665,"time":11.052318000000001,"value":-0.5625},{"ticks":28680,"time":11.058568000000001,"value":-0.640625},{"ticks":28695,"time":11.064818,"value":-0.703125},{"ticks":28710,"time":11.071068,"value":-0.765625},{"ticks":28725,"time":11.077318,"value":-0.90625},{"ticks":28740,"time":11.083568000000001,"value":-0.921875},{"ticks":28800,"time":11.108568,"value":0},{"ticks":29520,"time":11.408568,"value":0},{"ticks":29530,"time":11.412734666666667,"value":-0.28125},{"ticks":29540,"time":11.416901333333334,"value":-0.328125},{"ticks":29550,"time":11.421068,"value":-0.4375},{"ticks":29560,"time":11.425234666666668,"value":-0.46875},{"ticks":29570,"time":11.429401333333333,"value":-0.515625},{"ticks":29580,"time":11.433568000000001,"value":-0.546875},{"ticks":29590,"time":11.437734666666667,"value":-0.578125},{"ticks":29600,"time":11.441901333333334,"value":-0.640625},{"ticks":29610,"time":11.446068,"value":-0.6875},{"ticks":29620,"time":11.450234666666669,"value":-0.71875},{"ticks":29630,"time":11.454401333333333,"value":-0.734375},{"ticks":29640,"time":11.458568000000001,"value":-0.78125},{"ticks":29650,"time":11.462734666666668,"value":-0.828125},{"ticks":29660,"time":11.466901333333334,"value":-0.875},{"ticks":29670,"time":11.471068,"value":-0.90625},{"ticks":29680,"time":11.475234666666667,"value":-1},{"ticks":29760,"time":11.508568,"value":0},{"ticks":31200,"time":12.108568000000002,"value":-1},{"ticks":31210,"time":12.112734666666668,"value":-0.78125},{"ticks":31220,"time":12.116901333333335,"value":-0.734375},{"ticks":31230,"time":12.121068000000001,"value":-0.671875},{"ticks":31240,"time":12.125234666666667,"value":-0.625},{"ticks":31250,"time":12.129401333333334,"value":-0.578125},{"ticks":31260,"time":12.133568,"value":-0.53125},{"ticks":31270,"time":12.137734666666669,"value":-0.421875},{"ticks":31280,"time":12.141901333333333,"value":-0.359375},{"ticks":31290,"time":12.146068000000001,"value":-0.3125},{"ticks":31300,"time":12.150234666666668,"value":-0.28125},{"ticks":31310,"time":12.154401333333334,"value":-0.21875},{"ticks":31320,"time":12.158568,"value":-0.15625},{"ticks":31330,"time":12.162734666666669,"value":-0.125},{"ticks":31340,"time":12.166901333333334,"value":-0.09375},{"ticks":31350,"time":12.171068000000002,"value":-0.0625},{"ticks":31360,"time":12.175234666666668,"value":-0.046875},{"ticks":31370,"time":12.179401333333335,"value":-0.015625},{"ticks":31400,"time":12.191901333333334,"value":0},{"ticks":34080,"time":13.308568000000001,"value":-1},{"ticks":34090,"time":13.312734666666667,"value":-0.953125},{"ticks":34100,"time":13.316901333333334,"value":-0.90625},{"ticks":34110,"time":13.321068,"value":-0.84375},{"ticks":34120,"time":13.325234666666669,"value":-0.75},{"ticks":34130,"time":13.329401333333333,"value":-0.6875},{"ticks":34140,"time":13.333568000000001,"value":-0.640625},{"ticks":34150,"time":13.337734666666668,"value":-0.515625},{"ticks":34160,"time":13.341901333333334,"value":-0.203125},{"ticks":34170,"time":13.346068,"value":-0.15625},{"ticks":34180,"time":13.350234666666669,"value":-0.109375},{"ticks":34190,"time":13.354401333333334,"value":-0.03125},{"ticks":34200,"time":13.358568000000002,"value":-0.015625},{"ticks":34300,"time":13.400234666666668,"value":0},{"ticks":34560,"time":13.508568000000002,"value":0},{"ticks":35040,"time":13.708568000000001,"value":-1},{"ticks":35050,"time":13.712734666666668,"value":-0.90625},{"ticks":35060,"time":13.716901333333334,"value":-0.875},{"ticks":35070,"time":13.721068,"value":-0.84375},{"ticks":35080,"time":13.725234666666669,"value":-0.78125},{"ticks":35090,"time":13.729401333333334,"value":-0.734375},{"ticks":35100,"time":13.733568000000002,"value":-0.5625},{"ticks":35110,"time":13.737734666666668,"value":-0.328125},{"ticks":35120,"time":13.741901333333335,"value":-0.15625},{"ticks":35130,"time":13.746068000000001,"value":-0.09375},{"ticks":35140,"time":13.75023466666667,"value":0},{"ticks":36240,"time":14.208568000000001,"value":0},{"ticks":36255,"time":14.214818000000001,"value":-0.03125},{"ticks":36270,"time":14.221068,"value":-0.046875},{"ticks":36285,"time":14.227318000000002,"value":-0.09375},{"ticks":36300,"time":14.233568000000002,"value":-0.125},{"ticks":36315,"time":14.239818000000001,"value":-0.1875},{"ticks":36330,"time":14.246068000000001,"value":-0.28125},{"ticks":36345,"time":14.252318,"value":-0.5625},{"ticks":36360,"time":14.258568000000002,"value":-0.640625},{"ticks":36375,"time":14.264818000000002,"value":-0.703125},{"ticks":36390,"time":14.271068000000001,"value":-0.765625},{"ticks":36405,"time":14.277318000000001,"value":-0.90625},{"ticks":36420,"time":14.283568,"value":-0.921875},{"ticks":36480,"time":14.308568000000001,"value":0},{"ticks":37200,"time":14.608568000000002,"value":0},{"ticks":37210,"time":14.612734666666668,"value":-0.28125},{"ticks":37220,"time":14.616901333333335,"value":-0.328125},{"ticks":37230,"time":14.621068000000001,"value":-0.4375},{"ticks":37240,"time":14.62523466666667,"value":-0.46875},{"ticks":37250,"time":14.629401333333334,"value":-0.515625},{"ticks":37260,"time":14.633568000000002,"value":-0.546875},{"ticks":37270,"time":14.637734666666669,"value":-0.578125},{"ticks":37280,"time":14.641901333333335,"value":-0.640625},{"ticks":37290,"time":14.646068000000001,"value":-0.6875},{"ticks":37300,"time":14.650234666666668,"value":-0.71875},{"ticks":37310,"time":14.654401333333334,"value":-0.734375},{"ticks":37320,"time":14.658568,"value":-0.78125},{"ticks":37330,"time":14.662734666666669,"value":-0.828125},{"ticks":37340,"time":14.666901333333334,"value":-0.875},{"ticks":37350,"time":14.671068000000002,"value":-0.90625},{"ticks":37360,"time":14.675234666666668,"value":-1},{"ticks":37440,"time":14.708568000000001,"value":0},{"ticks":38880,"time":15.308568000000001,"value":-1},{"ticks":38890,"time":15.31273466666667,"value":-0.78125},{"ticks":38900,"time":15.316901333333334,"value":-0.734375},{"ticks":38910,"time":15.321068000000002,"value":-0.671875},{"ticks":38920,"time":15.325234666666669,"value":-0.625},{"ticks":38930,"time":15.329401333333335,"value":-0.578125},{"ticks":38940,"time":15.333568000000001,"value":-0.53125},{"ticks":38950,"time":15.337734666666668,"value":-0.421875},{"ticks":38960,"time":15.341901333333334,"value":-0.359375},{"ticks":38970,"time":15.346068,"value":-0.3125},{"ticks":38980,"time":15.350234666666669,"value":-0.28125},{"ticks":38990,"time":15.354401333333334,"value":-0.21875},{"ticks":39000,"time":15.358568000000002,"value":-0.15625},{"ticks":39010,"time":15.362734666666668,"value":-0.125},{"ticks":39020,"time":15.366901333333335,"value":-0.09375},{"ticks":39030,"time":15.371068000000001,"value":-0.0625},{"ticks":39040,"time":15.37523466666667,"value":-0.046875},{"ticks":39050,"time":15.379401333333334,"value":-0.015625},{"ticks":39080,"time":15.391901333333335,"value":0},{"ticks":41280,"time":16.308568,"value":-1},{"ticks":41355,"time":16.339818,"value":-0.984375},{"ticks":41370,"time":16.346068,"value":-0.96875},{"ticks":41385,"time":16.352318,"value":-0.921875},{"ticks":41400,"time":16.358568,"value":-0.90625},{"ticks":41415,"time":16.364818,"value":-0.875},{"ticks":41430,"time":16.371068,"value":-0.859375},{"ticks":41445,"time":16.377318,"value":-0.8125},{"ticks":41460,"time":16.383568,"value":-0.78125},{"ticks":41475,"time":16.389818,"value":-0.75},{"ticks":41490,"time":16.396068,"value":-0.71875},{"ticks":41505,"time":16.402318,"value":-0.6875},{"ticks":41520,"time":16.408568,"value":-0.65625},{"ticks":41535,"time":16.414818,"value":-0.640625},{"ticks":41550,"time":16.421068,"value":-0.609375},{"ticks":41565,"time":16.427318,"value":-0.578125},{"ticks":41580,"time":16.433568,"value":-0.53125},{"ticks":41595,"time":16.439818,"value":-0.46875},{"ticks":41610,"time":16.446068,"value":-0.390625},{"ticks":41625,"time":16.452318,"value":-0.34375},{"ticks":41640,"time":16.458568,"value":-0.265625},{"ticks":41655,"time":16.464818,"value":-0.171875},{"ticks":41670,"time":16.471068,"value":-0.09375},{"ticks":41685,"time":16.477318,"value":-0.046875},{"ticks":41700,"time":16.483568,"value":-0.015625},{"ticks":41715,"time":16.489818,"value":0.015625},{"ticks":41730,"time":16.496068,"value":0.046875},{"ticks":41745,"time":16.502318,"value":0.078125},{"ticks":41760,"time":16.508568,"value":0.125},{"ticks":41775,"time":16.514818,"value":0.15625},{"ticks":41790,"time":16.521068,"value":0.203125},{"ticks":41805,"time":16.527318,"value":0.21875},{"ticks":41820,"time":16.533568,"value":0.265625},{"ticks":41835,"time":16.539818,"value":0.28125},{"ticks":41850,"time":16.546068,"value":0.3125},{"ticks":41865,"time":16.552318,"value":0.359375},{"ticks":41880,"time":16.558568,"value":0.390625},{"ticks":41895,"time":16.564818,"value":0.4375},{"ticks":41910,"time":16.571068,"value":0.515625},{"ticks":41925,"time":16.577318,"value":0.546875},{"ticks":41940,"time":16.583568,"value":0.59375},{"ticks":41955,"time":16.589818,"value":0.640625},{"ticks":41970,"time":16.596068,"value":0.671875},{"ticks":41985,"time":16.602318,"value":0.703125},{"ticks":42000,"time":16.608568,"value":0.765625},{"ticks":42015,"time":16.614818,"value":0.78125},{"ticks":42030,"time":16.621068,"value":0.796875},{"ticks":42045,"time":16.627318,"value":0.828125},{"ticks":42060,"time":16.633568,"value":0.84375},{"ticks":42075,"time":16.639818,"value":0.859375},{"ticks":42090,"time":16.646068,"value":0.875},{"ticks":42105,"time":16.652318,"value":0.890625},{"ticks":42120,"time":16.658568,"value":0.921875},{"ticks":42135,"time":16.664818,"value":0.9375},{"ticks":42150,"time":16.671068,"value":0.953125},{"ticks":42165,"time":16.677318,"value":0.96875},{"ticks":42180,"time":16.683568,"value":0.984375},{"ticks":42240,"time":16.708568,"value":0},{"ticks":42720,"time":16.908568,"value":-1},{"ticks":42730,"time":16.912734666666665,"value":-0.90625},{"ticks":42740,"time":16.916901333333335,"value":-0.875},{"ticks":42750,"time":16.921068,"value":-0.84375},{"ticks":42760,"time":16.925234666666665,"value":-0.78125},{"ticks":42770,"time":16.929401333333335,"value":-0.734375},{"ticks":42780,"time":16.933568,"value":-0.5625},{"ticks":42790,"time":16.937734666666667,"value":-0.328125},{"ticks":42800,"time":16.941901333333334,"value":-0.15625},{"ticks":42810,"time":16.946068,"value":-0.09375},{"ticks":42820,"time":16.950234666666667,"value":0},{"ticks":43920,"time":17.408568,"value":0},{"ticks":43935,"time":17.414818,"value":-0.03125},{"ticks":43950,"time":17.421068,"value":-0.046875},{"ticks":43965,"time":17.427318,"value":-0.09375},{"ticks":43980,"time":17.433568,"value":-0.125},{"ticks":43995,"time":17.439818,"value":-0.1875},{"ticks":44010,"time":17.446068,"value":-0.28125},{"ticks":44025,"time":17.452318,"value":-0.5625},{"ticks":44040,"time":17.458568,"value":-0.640625},{"ticks":44055,"time":17.464818,"value":-0.703125},{"ticks":44070,"time":17.471068,"value":-0.765625},{"ticks":44085,"time":17.477318,"value":-0.90625},{"ticks":44100,"time":17.483568,"value":-0.921875},{"ticks":44160,"time":17.508568,"value":0},{"ticks":44880,"time":17.808568,"value":0},{"ticks":44890,"time":17.812734666666667,"value":-0.28125},{"ticks":44900,"time":17.816901333333334,"value":-0.328125},{"ticks":44910,"time":17.821068,"value":-0.4375},{"ticks":44920,"time":17.825234666666667,"value":-0.46875},{"ticks":44930,"time":17.829401333333333,"value":-0.515625},{"ticks":44940,"time":17.833568,"value":-0.546875},{"ticks":44950,"time":17.837734666666666,"value":-0.578125},{"ticks":44960,"time":17.841901333333336,"value":-0.640625},{"ticks":44970,"time":17.846068,"value":-0.6875},{"ticks":44980,"time":17.850234666666665,"value":-0.71875},{"ticks":44990,"time":17.854401333333335,"value":-0.734375},{"ticks":45000,"time":17.858568,"value":-0.78125},{"ticks":45010,"time":17.862734666666665,"value":-0.828125},{"ticks":45020,"time":17.866901333333335,"value":-0.875},{"ticks":45030,"time":17.871068,"value":-0.90625},{"ticks":45040,"time":17.875234666666667,"value":-1},{"ticks":45120,"time":17.908568,"value":0},{"ticks":46560,"time":18.508568,"value":-1},{"ticks":46570,"time":18.512734666666667,"value":-0.78125},{"ticks":46580,"time":18.516901333333333,"value":-0.734375},{"ticks":46590,"time":18.521068,"value":-0.671875},{"ticks":46600,"time":18.525234666666666,"value":-0.625},{"ticks":46610,"time":18.529401333333336,"value":-0.578125},{"ticks":46620,"time":18.533568,"value":-0.53125},{"ticks":46630,"time":18.537734666666665,"value":-0.421875},{"ticks":46640,"time":18.541901333333335,"value":-0.359375},{"ticks":46650,"time":18.546068,"value":-0.3125},{"ticks":46660,"time":18.550234666666665,"value":-0.28125},{"ticks":46670,"time":18.554401333333335,"value":-0.21875},{"ticks":46680,"time":18.558568,"value":-0.15625},{"ticks":46690,"time":18.562734666666667,"value":-0.125},{"ticks":46700,"time":18.566901333333334,"value":-0.09375},{"ticks":46710,"time":18.571068,"value":-0.0625},{"ticks":46720,"time":18.575234666666667,"value":-0.046875},{"ticks":46730,"time":18.579401333333333,"value":-0.015625},{"ticks":46760,"time":18.591901333333336,"value":0},{"ticks":49440,"time":19.708568,"value":0.9998779296875},{"ticks":49470,"time":19.721068,"value":0.9375},{"ticks":49480,"time":19.725234666666665,"value":0.921875},{"ticks":49490,"time":19.729401333333335,"value":0.90625},{"ticks":49500,"time":19.733568,"value":0.859375},{"ticks":49510,"time":19.737734666666665,"value":0.828125},{"ticks":49520,"time":19.741901333333335,"value":0.8125},{"ticks":49530,"time":19.746068,"value":0.78125},{"ticks":49540,"time":19.750234666666667,"value":0.703125},{"ticks":49550,"time":19.754401333333334,"value":0.65625},{"ticks":49560,"time":19.758568,"value":0.53125},{"ticks":49570,"time":19.762734666666667,"value":0.484375},{"ticks":49580,"time":19.766901333333333,"value":0.46875},{"ticks":49590,"time":19.771068,"value":0.4375},{"ticks":49600,"time":19.775234666666666,"value":0.390625},{"ticks":49610,"time":19.779401333333336,"value":0.34375},{"ticks":49620,"time":19.783568,"value":0.296875},{"ticks":49630,"time":19.787734666666665,"value":0.25},{"ticks":49640,"time":19.791901333333335,"value":0.1875},{"ticks":49650,"time":19.796068,"value":0.125},{"ticks":49660,"time":19.800234666666665,"value":0.09375},{"ticks":49670,"time":19.804401333333335,"value":0.015625},{"ticks":49680,"time":19.808568,"value":-0.0625},{"ticks":49690,"time":19.812734666666667,"value":-0.203125},{"ticks":49700,"time":19.816901333333334,"value":-0.28125},{"ticks":49710,"time":19.821068,"value":-0.40625},{"ticks":49720,"time":19.825234666666667,"value":-0.46875},{"ticks":49730,"time":19.829401333333333,"value":-0.625},{"ticks":49740,"time":19.833568,"value":-0.71875},{"ticks":49750,"time":19.837734666666666,"value":-1},{"ticks":49920,"time":19.908568,"value":0},{"ticks":50400,"time":20.108567999999998,"value":-1},{"ticks":50410,"time":20.112734666666665,"value":-0.90625},{"ticks":50420,"time":20.116901333333335,"value":-0.875},{"ticks":50430,"time":20.121068,"value":-0.84375},{"ticks":50440,"time":20.125234666666664,"value":-0.78125},{"ticks":50450,"time":20.129401333333334,"value":-0.734375},{"ticks":50460,"time":20.133568,"value":-0.5625},{"ticks":50470,"time":20.137734666666667,"value":-0.328125},{"ticks":50480,"time":20.141901333333333,"value":-0.15625},{"ticks":50490,"time":20.146068,"value":-0.09375},{"ticks":50500,"time":20.150234666666666,"value":0},{"ticks":52560,"time":21.008568,"value":0},{"ticks":52570,"time":21.012734666666667,"value":-0.28125},{"ticks":52580,"time":21.016901333333333,"value":-0.328125},{"ticks":52590,"time":21.021068,"value":-0.4375},{"ticks":52600,"time":21.025234666666666,"value":-0.46875},{"ticks":52610,"time":21.029401333333333,"value":-0.515625},{"ticks":52620,"time":21.033568,"value":-0.546875},{"ticks":52630,"time":21.037734666666665,"value":-0.578125},{"ticks":52640,"time":21.041901333333335,"value":-0.640625},{"ticks":52650,"time":21.046067999999998,"value":-0.6875},{"ticks":52660,"time":21.050234666666665,"value":-0.71875},{"ticks":52670,"time":21.054401333333335,"value":-0.734375},{"ticks":52680,"time":21.058568,"value":-0.78125},{"ticks":52690,"time":21.062734666666664,"value":-0.828125},{"ticks":52700,"time":21.066901333333334,"value":-0.875},{"ticks":52710,"time":21.071068,"value":-0.90625},{"ticks":52720,"time":21.075234666666667,"value":-1},{"ticks":52800,"time":21.108567999999998,"value":0},{"ticks":54240,"time":21.708568,"value":-1},{"ticks":54250,"time":21.712734666666666,"value":-0.78125},{"ticks":54260,"time":21.716901333333333,"value":-0.734375},{"ticks":54270,"time":21.721068,"value":-0.671875},{"ticks":54280,"time":21.725234666666665,"value":-0.625},{"ticks":54290,"time":21.729401333333335,"value":-0.578125},{"ticks":54300,"time":21.733567999999998,"value":-0.53125},{"ticks":54310,"time":21.737734666666665,"value":-0.421875},{"ticks":54320,"time":21.741901333333335,"value":-0.359375},{"ticks":54330,"time":21.746068,"value":-0.3125},{"ticks":54340,"time":21.750234666666664,"value":-0.28125},{"ticks":54350,"time":21.754401333333334,"value":-0.21875},{"ticks":54360,"time":21.758568,"value":-0.15625},{"ticks":54370,"time":21.762734666666667,"value":-0.125},{"ticks":54380,"time":21.766901333333333,"value":-0.09375},{"ticks":54390,"time":21.771068,"value":-0.0625},{"ticks":54400,"time":21.775234666666666,"value":-0.046875},{"ticks":54410,"time":21.779401333333333,"value":-0.015625},{"ticks":54440,"time":21.791901333333335,"value":0},{"ticks":57640,"time":23.125234666666667,"value":0},{"ticks":58120,"time":23.325234666666667,"value":-1},{"ticks":58130,"time":23.329401333333333,"value":-0.90625},{"ticks":58140,"time":23.333568,"value":-0.875},{"ticks":58150,"time":23.337734666666666,"value":-0.84375},{"ticks":58160,"time":23.341901333333336,"value":-0.78125},{"ticks":58170,"time":23.346068,"value":-0.734375},{"ticks":58180,"time":23.350234666666665,"value":-0.5625},{"ticks":58190,"time":23.354401333333335,"value":-0.328125},{"ticks":58200,"time":23.358568,"value":-0.15625},{"ticks":58210,"time":23.362734666666665,"value":-0.09375},{"ticks":58220,"time":23.366901333333335,"value":0},{"ticks":59320,"time":23.825234666666667,"value":0},{"ticks":59335,"time":23.831484666666665,"value":-0.03125},{"ticks":59350,"time":23.837734666666666,"value":-0.046875},{"ticks":59365,"time":23.843984666666667,"value":-0.09375},{"ticks":59380,"time":23.850234666666665,"value":-0.125},{"ticks":59395,"time":23.856484666666667,"value":-0.1875},{"ticks":59410,"time":23.862734666666665,"value":-0.28125},{"ticks":59425,"time":23.868984666666666,"value":-0.5625},{"ticks":59440,"time":23.875234666666667,"value":-0.640625},{"ticks":59455,"time":23.881484666666665,"value":-0.703125},{"ticks":59470,"time":23.887734666666667,"value":-0.765625},{"ticks":59485,"time":23.893984666666665,"value":-0.90625},{"ticks":59500,"time":23.900234666666666,"value":-0.921875},{"ticks":59560,"time":23.925234666666665,"value":0},{"ticks":60280,"time":24.225234666666665,"value":0},{"ticks":60290,"time":24.229401333333335,"value":-0.28125},{"ticks":60300,"time":24.233568,"value":-0.328125},{"ticks":60310,"time":24.237734666666665,"value":-0.4375},{"ticks":60320,"time":24.241901333333335,"value":-0.46875},{"ticks":60330,"time":24.246068,"value":-0.515625},{"ticks":60340,"time":24.250234666666667,"value":-0.546875},{"ticks":60350,"time":24.254401333333334,"value":-0.578125},{"ticks":60360,"time":24.258568,"value":-0.640625},{"ticks":60370,"time":24.262734666666667,"value":-0.6875},{"ticks":60380,"time":24.266901333333333,"value":-0.71875},{"ticks":60390,"time":24.271068,"value":-0.734375},{"ticks":60400,"time":24.275234666666666,"value":-0.78125},{"ticks":60410,"time":24.279401333333336,"value":-0.828125},{"ticks":60420,"time":24.283568,"value":-0.875},{"ticks":60430,"time":24.287734666666665,"value":-0.90625},{"ticks":60440,"time":24.291901333333335,"value":-1},{"ticks":60520,"time":24.325234666666667,"value":0},{"ticks":61960,"time":24.925234666666665,"value":-1},{"ticks":61970,"time":24.929401333333335,"value":-0.78125},{"ticks":61980,"time":24.933568,"value":-0.734375},{"ticks":61990,"time":24.937734666666667,"value":-0.671875},{"ticks":62000,"time":24.941901333333334,"value":-0.625},{"ticks":62010,"time":24.946068,"value":-0.578125},{"ticks":62020,"time":24.950234666666667,"value":-0.53125},{"ticks":62030,"time":24.954401333333333,"value":-0.421875},{"ticks":62040,"time":24.958568,"value":-0.359375},{"ticks":62050,"time":24.962734666666666,"value":-0.3125},{"ticks":62060,"time":24.966901333333336,"value":-0.28125},{"ticks":62070,"time":24.971068,"value":-0.21875},{"ticks":62080,"time":24.975234666666665,"value":-0.15625},{"ticks":62090,"time":24.979401333333335,"value":-0.125},{"ticks":62100,"time":24.983568,"value":-0.09375},{"ticks":62110,"time":24.987734666666665,"value":-0.0625},{"ticks":62120,"time":24.991901333333335,"value":-0.046875},{"ticks":62130,"time":24.996068,"value":-0.015625},{"ticks":62160,"time":25.008568,"value":0},{"ticks":64840,"time":26.125234666666667,"value":-1},{"ticks":64850,"time":26.129401333333334,"value":-0.953125},{"ticks":64860,"time":26.133568,"value":-0.90625},{"ticks":64870,"time":26.137734666666667,"value":-0.84375},{"ticks":64880,"time":26.141901333333333,"value":-0.75},{"ticks":64890,"time":26.146068,"value":-0.6875},{"ticks":64900,"time":26.150234666666666,"value":-0.640625},{"ticks":64910,"time":26.154401333333336,"value":-0.515625},{"ticks":64920,"time":26.158568,"value":-0.203125},{"ticks":64930,"time":26.162734666666665,"value":-0.15625},{"ticks":64940,"time":26.166901333333335,"value":-0.109375},{"ticks":64950,"time":26.171068,"value":-0.03125},{"ticks":64960,"time":26.175234666666665,"value":-0.015625},{"ticks":65060,"time":26.216901333333336,"value":0},{"ticks":65320,"time":26.325234666666667,"value":0},{"ticks":65800,"time":26.525234666666666,"value":-1},{"ticks":65810,"time":26.529401333333336,"value":-0.90625},{"ticks":65820,"time":26.533568,"value":-0.875},{"ticks":65830,"time":26.537734666666665,"value":-0.84375},{"ticks":65840,"time":26.541901333333335,"value":-0.78125},{"ticks":65850,"time":26.546068,"value":-0.734375},{"ticks":65860,"time":26.550234666666665,"value":-0.5625},{"ticks":65870,"time":26.554401333333335,"value":-0.328125},{"ticks":65880,"time":26.558568,"value":-0.15625},{"ticks":65890,"time":26.562734666666667,"value":-0.09375},{"ticks":65900,"time":26.566901333333334,"value":0},{"ticks":67000,"time":27.025234666666666,"value":0},{"ticks":67015,"time":27.031484666666667,"value":-0.03125},{"ticks":67030,"time":27.037734666666665,"value":-0.046875},{"ticks":67045,"time":27.043984666666667,"value":-0.09375},{"ticks":67060,"time":27.050234666666665,"value":-0.125},{"ticks":67075,"time":27.056484666666666,"value":-0.1875},{"ticks":67090,"time":27.062734666666667,"value":-0.28125},{"ticks":67105,"time":27.068984666666665,"value":-0.5625},{"ticks":67120,"time":27.075234666666667,"value":-0.640625},{"ticks":67135,"time":27.081484666666665,"value":-0.703125},{"ticks":67150,"time":27.087734666666666,"value":-0.765625},{"ticks":67165,"time":27.093984666666667,"value":-0.90625},{"ticks":67180,"time":27.100234666666665,"value":-0.921875},{"ticks":67240,"time":27.125234666666667,"value":0},{"ticks":67960,"time":27.425234666666665,"value":0},{"ticks":67970,"time":27.429401333333335,"value":-0.28125},{"ticks":67980,"time":27.433568,"value":-0.328125},{"ticks":67990,"time":27.437734666666667,"value":-0.4375},{"ticks":68000,"time":27.441901333333334,"value":-0.46875},{"ticks":68010,"time":27.446068,"value":-0.515625},{"ticks":68020,"time":27.450234666666667,"value":-0.546875},{"ticks":68030,"time":27.454401333333333,"value":-0.578125},{"ticks":68040,"time":27.458568,"value":-0.640625},{"ticks":68050,"time":27.462734666666666,"value":-0.6875},{"ticks":68060,"time":27.466901333333336,"value":-0.71875},{"ticks":68070,"time":27.471068,"value":-0.734375},{"ticks":68080,"time":27.475234666666665,"value":-0.78125},{"ticks":68090,"time":27.479401333333335,"value":-0.828125},{"ticks":68100,"time":27.483568,"value":-0.875},{"ticks":68110,"time":27.487734666666665,"value":-0.90625},{"ticks":68120,"time":27.491901333333335,"value":-1},{"ticks":68200,"time":27.525234666666666,"value":0},{"ticks":69640,"time":28.125234666666667,"value":-1},{"ticks":69650,"time":28.129401333333334,"value":-0.78125},{"ticks":69660,"time":28.133568,"value":-0.734375},{"ticks":69670,"time":28.137734666666667,"value":-0.671875},{"ticks":69680,"time":28.141901333333333,"value":-0.625},{"ticks":69690,"time":28.146068,"value":-0.578125},{"ticks":69700,"time":28.150234666666666,"value":-0.53125},{"ticks":69710,"time":28.154401333333336,"value":-0.421875},{"ticks":69720,"time":28.158568,"value":-0.359375},{"ticks":69730,"time":28.162734666666665,"value":-0.3125},{"ticks":69740,"time":28.166901333333335,"value":-0.28125},{"ticks":69750,"time":28.171068,"value":-0.21875},{"ticks":69760,"time":28.175234666666665,"value":-0.15625},{"ticks":69770,"time":28.179401333333335,"value":-0.125},{"ticks":69780,"time":28.183568,"value":-0.09375},{"ticks":69790,"time":28.187734666666667,"value":-0.0625},{"ticks":69800,"time":28.191901333333334,"value":-0.046875},{"ticks":69810,"time":28.196068,"value":-0.015625},{"ticks":69840,"time":28.208568,"value":0},{"ticks":72040,"time":29.125234666666667,"value":-1},{"ticks":72115,"time":29.156484666666667,"value":-0.984375},{"ticks":72130,"time":29.162734666666665,"value":-0.96875},{"ticks":72145,"time":29.168984666666667,"value":-0.921875},{"ticks":72160,"time":29.175234666666665,"value":-0.90625},{"ticks":72175,"time":29.181484666666666,"value":-0.875},{"ticks":72190,"time":29.187734666666667,"value":-0.859375},{"ticks":72205,"time":29.193984666666665,"value":-0.8125},{"ticks":72220,"time":29.200234666666667,"value":-0.78125},{"ticks":72235,"time":29.206484666666665,"value":-0.75},{"ticks":72250,"time":29.212734666666666,"value":-0.71875},{"ticks":72265,"time":29.218984666666667,"value":-0.6875},{"ticks":72280,"time":29.225234666666665,"value":-0.65625},{"ticks":72295,"time":29.231484666666667,"value":-0.640625},{"ticks":72310,"time":29.237734666666665,"value":-0.609375},{"ticks":72325,"time":29.243984666666666,"value":-0.578125},{"ticks":72340,"time":29.250234666666667,"value":-0.53125},{"ticks":72355,"time":29.256484666666665,"value":-0.46875},{"ticks":72370,"time":29.262734666666667,"value":-0.390625},{"ticks":72385,"time":29.268984666666665,"value":-0.34375},{"ticks":72400,"time":29.275234666666666,"value":-0.265625},{"ticks":72415,"time":29.281484666666667,"value":-0.171875},{"ticks":72430,"time":29.287734666666665,"value":-0.09375},{"ticks":72445,"time":29.293984666666667,"value":-0.046875},{"ticks":72460,"time":29.300234666666665,"value":-0.015625},{"ticks":72475,"time":29.306484666666666,"value":0.015625},{"ticks":72490,"time":29.312734666666667,"value":0.046875},{"ticks":72505,"time":29.318984666666665,"value":0.078125},{"ticks":72520,"time":29.325234666666667,"value":0.125},{"ticks":72535,"time":29.331484666666665,"value":0.15625},{"ticks":72550,"time":29.337734666666666,"value":0.203125},{"ticks":72565,"time":29.343984666666667,"value":0.21875},{"ticks":72580,"time":29.350234666666665,"value":0.265625},{"ticks":72595,"time":29.356484666666667,"value":0.28125},{"ticks":72610,"time":29.362734666666665,"value":0.3125},{"ticks":72625,"time":29.368984666666666,"value":0.359375},{"ticks":72640,"time":29.375234666666667,"value":0.390625},{"ticks":72655,"time":29.381484666666665,"value":0.4375},{"ticks":72670,"time":29.387734666666667,"value":0.515625},{"ticks":72685,"time":29.393984666666665,"value":0.546875},{"ticks":72700,"time":29.400234666666666,"value":0.59375},{"ticks":72715,"time":29.406484666666667,"value":0.640625},{"ticks":72730,"time":29.412734666666665,"value":0.671875},{"ticks":72745,"time":29.418984666666667,"value":0.703125},{"ticks":72760,"time":29.425234666666665,"value":0.765625},{"ticks":72775,"time":29.431484666666666,"value":0.78125},{"ticks":72790,"time":29.437734666666667,"value":0.796875},{"ticks":72805,"time":29.443984666666665,"value":0.828125},{"ticks":72820,"time":29.450234666666667,"value":0.84375},{"ticks":72835,"time":29.456484666666665,"value":0.859375},{"ticks":72850,"time":29.462734666666666,"value":0.875},{"ticks":72865,"time":29.468984666666667,"value":0.890625},{"ticks":72880,"time":29.475234666666665,"value":0.921875},{"ticks":72895,"time":29.481484666666667,"value":0.9375},{"ticks":72910,"time":29.487734666666665,"value":0.953125},{"ticks":72925,"time":29.493984666666666,"value":0.96875},{"ticks":72940,"time":29.500234666666667,"value":0.984375},{"ticks":73000,"time":29.52523466666667,"value":0},{"ticks":73480,"time":29.72523466666667,"value":-1},{"ticks":73490,"time":29.729401333333332,"value":-0.90625},{"ticks":73500,"time":29.733568,"value":-0.875},{"ticks":73510,"time":29.737734666666668,"value":-0.84375},{"ticks":73520,"time":29.74190133333333,"value":-0.78125},{"ticks":73530,"time":29.746068,"value":-0.734375},{"ticks":73540,"time":29.750234666666667,"value":-0.5625},{"ticks":73550,"time":29.75440133333333,"value":-0.328125},{"ticks":73560,"time":29.758568,"value":-0.15625},{"ticks":73570,"time":29.76273466666667,"value":-0.09375},{"ticks":73580,"time":29.766901333333333,"value":0},{"ticks":74680,"time":30.22523466666667,"value":0},{"ticks":74695,"time":30.23148466666667,"value":-0.03125},{"ticks":74710,"time":30.237734666666668,"value":-0.046875},{"ticks":74725,"time":30.24398466666667,"value":-0.09375},{"ticks":74740,"time":30.250234666666667,"value":-0.125},{"ticks":74755,"time":30.25648466666667,"value":-0.1875},{"ticks":74770,"time":30.26273466666667,"value":-0.28125},{"ticks":74785,"time":30.268984666666668,"value":-0.5625},{"ticks":74800,"time":30.27523466666667,"value":-0.640625},{"ticks":74815,"time":30.281484666666667,"value":-0.703125},{"ticks":74830,"time":30.28773466666667,"value":-0.765625},{"ticks":74845,"time":30.29398466666667,"value":-0.90625},{"ticks":74860,"time":30.300234666666668,"value":-0.921875},{"ticks":74920,"time":30.32523466666667,"value":0},{"ticks":75640,"time":30.625234666666667,"value":0},{"ticks":75650,"time":30.62940133333333,"value":-0.28125},{"ticks":75660,"time":30.633568,"value":-0.328125},{"ticks":75670,"time":30.63773466666667,"value":-0.4375},{"ticks":75680,"time":30.641901333333333,"value":-0.46875},{"ticks":75690,"time":30.646068,"value":-0.515625},{"ticks":75700,"time":30.65023466666667,"value":-0.546875},{"ticks":75710,"time":30.654401333333333,"value":-0.578125},{"ticks":75720,"time":30.658568,"value":-0.640625},{"ticks":75730,"time":30.66273466666667,"value":-0.6875},{"ticks":75740,"time":30.666901333333332,"value":-0.71875},{"ticks":75750,"time":30.671068,"value":-0.734375},{"ticks":75760,"time":30.675234666666668,"value":-0.78125},{"ticks":75770,"time":30.67940133333333,"value":-0.828125},{"ticks":75780,"time":30.683568,"value":-0.875},{"ticks":75790,"time":30.687734666666667,"value":-0.90625},{"ticks":75800,"time":30.69190133333333,"value":-1},{"ticks":75880,"time":30.72523466666667,"value":0},{"ticks":77320,"time":31.32523466666667,"value":-1},{"ticks":77330,"time":31.329401333333333,"value":-0.78125},{"ticks":77340,"time":31.333568,"value":-0.734375},{"ticks":77350,"time":31.33773466666667,"value":-0.671875},{"ticks":77360,"time":31.341901333333333,"value":-0.625},{"ticks":77370,"time":31.346068,"value":-0.578125},{"ticks":77380,"time":31.35023466666667,"value":-0.53125},{"ticks":77390,"time":31.354401333333332,"value":-0.421875},{"ticks":77400,"time":31.358568,"value":-0.359375},{"ticks":77410,"time":31.362734666666668,"value":-0.3125},{"ticks":77420,"time":31.36690133333333,"value":-0.28125},{"ticks":77430,"time":31.371068,"value":-0.21875},{"ticks":77440,"time":31.375234666666667,"value":-0.15625},{"ticks":77450,"time":31.37940133333333,"value":-0.125},{"ticks":77460,"time":31.383568,"value":-0.09375},{"ticks":77470,"time":31.38773466666667,"value":-0.0625},{"ticks":77480,"time":31.391901333333333,"value":-0.046875},{"ticks":77490,"time":31.396068,"value":-0.015625},{"ticks":77520,"time":31.408568,"value":0},{"ticks":80680,"time":32.72523466666667,"value":0},{"ticks":81160,"time":32.92523466666667,"value":-1},{"ticks":81170,"time":32.92940133333333,"value":-0.90625},{"ticks":81180,"time":32.933568,"value":-0.875},{"ticks":81190,"time":32.93773466666667,"value":-0.84375},{"ticks":81200,"time":32.941901333333334,"value":-0.78125},{"ticks":81210,"time":32.946068000000004,"value":-0.734375},{"ticks":81220,"time":32.950234666666674,"value":-0.5625},{"ticks":81230,"time":32.95440133333334,"value":-0.328125},{"ticks":81240,"time":32.958568,"value":-0.15625},{"ticks":81250,"time":32.96273466666667,"value":-0.09375},{"ticks":81260,"time":32.96690133333333,"value":0},{"ticks":83320,"time":33.825234666666674,"value":0},{"ticks":83330,"time":33.82940133333334,"value":-0.28125},{"ticks":83340,"time":33.833568,"value":-0.328125},{"ticks":83350,"time":33.83773466666667,"value":-0.4375},{"ticks":83360,"time":33.84190133333333,"value":-0.46875},{"ticks":83370,"time":33.846068,"value":-0.515625},{"ticks":83380,"time":33.85023466666667,"value":-0.546875},{"ticks":83390,"time":33.854401333333335,"value":-0.578125},{"ticks":83400,"time":33.858568000000005,"value":-0.640625},{"ticks":83410,"time":33.86273466666667,"value":-0.6875},{"ticks":83420,"time":33.86690133333333,"value":-0.71875},{"ticks":83430,"time":33.871068,"value":-0.734375},{"ticks":83440,"time":33.87523466666667,"value":-0.78125},{"ticks":83450,"time":33.879401333333334,"value":-0.828125},{"ticks":83460,"time":33.883568000000004,"value":-0.875},{"ticks":83470,"time":33.887734666666674,"value":-0.90625},{"ticks":83480,"time":33.89190133333334,"value":-1},{"ticks":83560,"time":33.92523466666667,"value":0},{"ticks":85000,"time":34.52523466666667,"value":-1},{"ticks":85010,"time":34.52940133333333,"value":-0.78125},{"ticks":85020,"time":34.533568,"value":-0.734375},{"ticks":85030,"time":34.53773466666667,"value":-0.671875},{"ticks":85040,"time":34.541901333333335,"value":-0.625},{"ticks":85050,"time":34.546068000000005,"value":-0.578125},{"ticks":85060,"time":34.55023466666667,"value":-0.53125},{"ticks":85070,"time":34.55440133333333,"value":-0.421875},{"ticks":85080,"time":34.558568,"value":-0.359375},{"ticks":85090,"time":34.56273466666667,"value":-0.3125},{"ticks":85100,"time":34.566901333333334,"value":-0.28125},{"ticks":85110,"time":34.571068000000004,"value":-0.21875},{"ticks":85120,"time":34.575234666666674,"value":-0.15625},{"ticks":85130,"time":34.57940133333334,"value":-0.125},{"ticks":85140,"time":34.583568,"value":-0.09375},{"ticks":85150,"time":34.58773466666667,"value":-0.0625},{"ticks":85160,"time":34.59190133333333,"value":-0.046875},{"ticks":85170,"time":34.596068,"value":-0.015625},{"ticks":85200,"time":34.608568000000005,"value":0},{"ticks":149760,"time":61.508568000000004,"value":0},{"ticks":150240,"time":61.70856800000001,"value":-1},{"ticks":150250,"time":61.71273466666667,"value":-0.90625},{"ticks":150260,"time":61.71690133333334,"value":-0.875},{"ticks":150270,"time":61.721068,"value":-0.84375},{"ticks":150280,"time":61.725234666666665,"value":-0.78125},{"ticks":150290,"time":61.72940133333334,"value":-0.734375},{"ticks":150300,"time":61.733568000000005,"value":-0.5625},{"ticks":150310,"time":61.73773466666667,"value":-0.328125},{"ticks":150320,"time":61.741901333333345,"value":-0.15625},{"ticks":150330,"time":61.74606800000001,"value":-0.09375},{"ticks":150340,"time":61.75023466666667,"value":0},{"ticks":152400,"time":62.608568000000005,"value":0},{"ticks":152410,"time":62.61273466666667,"value":-0.28125},{"ticks":152420,"time":62.616901333333345,"value":-0.328125},{"ticks":152430,"time":62.62106800000001,"value":-0.4375},{"ticks":152440,"time":62.62523466666667,"value":-0.46875},{"ticks":152450,"time":62.62940133333334,"value":-0.515625},{"ticks":152460,"time":62.633568000000004,"value":-0.546875},{"ticks":152470,"time":62.63773466666667,"value":-0.578125},{"ticks":152480,"time":62.641901333333344,"value":-0.640625},{"ticks":152490,"time":62.64606800000001,"value":-0.6875},{"ticks":152500,"time":62.65023466666667,"value":-0.71875},{"ticks":152510,"time":62.65440133333334,"value":-0.734375},{"ticks":152520,"time":62.658568,"value":-0.78125},{"ticks":152530,"time":62.662734666666665,"value":-0.828125},{"ticks":152540,"time":62.66690133333334,"value":-0.875},{"ticks":152550,"time":62.671068000000005,"value":-0.90625},{"ticks":152560,"time":62.67523466666667,"value":-1},{"ticks":152640,"time":62.70856800000001,"value":0},{"ticks":154080,"time":63.30856800000001,"value":-1},{"ticks":154090,"time":63.31273466666667,"value":-0.78125},{"ticks":154100,"time":63.31690133333334,"value":-0.734375},{"ticks":154110,"time":63.321068000000004,"value":-0.671875},{"ticks":154120,"time":63.32523466666667,"value":-0.625},{"ticks":154130,"time":63.329401333333344,"value":-0.578125},{"ticks":154140,"time":63.33356800000001,"value":-0.53125},{"ticks":154150,"time":63.33773466666667,"value":-0.421875},{"ticks":154160,"time":63.34190133333334,"value":-0.359375},{"ticks":154170,"time":63.346068,"value":-0.3125},{"ticks":154180,"time":63.350234666666665,"value":-0.28125},{"ticks":154190,"time":63.35440133333334,"value":-0.21875},{"ticks":154200,"time":63.358568000000005,"value":-0.15625},{"ticks":154210,"time":63.36273466666667,"value":-0.125},{"ticks":154220,"time":63.366901333333345,"value":-0.09375},{"ticks":154230,"time":63.37106800000001,"value":-0.0625},{"ticks":154240,"time":63.37523466666667,"value":-0.046875},{"ticks":154250,"time":63.37940133333334,"value":-0.015625},{"ticks":154280,"time":63.391901333333344,"value":0},{"ticks":156960,"time":64.508568,"value":-1},{"ticks":156970,"time":64.51273466666666,"value":-0.953125},{"ticks":156980,"time":64.51690133333334,"value":-0.90625},{"ticks":156990,"time":64.521068,"value":-0.84375},{"ticks":157000,"time":64.52523466666666,"value":-0.75},{"ticks":157010,"time":64.52940133333334,"value":-0.6875},{"ticks":157020,"time":64.533568,"value":-0.640625},{"ticks":157030,"time":64.53773466666667,"value":-0.515625},{"ticks":157040,"time":64.54190133333334,"value":-0.203125},{"ticks":157050,"time":64.546068,"value":-0.15625},{"ticks":157060,"time":64.55023466666667,"value":-0.109375},{"ticks":157070,"time":64.55440133333335,"value":-0.03125},{"ticks":157080,"time":64.55856800000001,"value":-0.015625},{"ticks":157180,"time":64.60023466666667,"value":0},{"ticks":157440,"time":64.708568,"value":0},{"ticks":157920,"time":64.908568,"value":-1},{"ticks":157930,"time":64.91273466666667,"value":-0.90625},{"ticks":157940,"time":64.91690133333334,"value":-0.875},{"ticks":157950,"time":64.921068,"value":-0.84375},{"ticks":157960,"time":64.92523466666667,"value":-0.78125},{"ticks":157970,"time":64.92940133333335,"value":-0.734375},{"ticks":157980,"time":64.93356800000001,"value":-0.5625},{"ticks":157990,"time":64.93773466666667,"value":-0.328125},{"ticks":158000,"time":64.94190133333333,"value":-0.15625},{"ticks":158010,"time":64.946068,"value":-0.09375},{"ticks":158020,"time":64.95023466666666,"value":0},{"ticks":160080,"time":65.80856800000001,"value":0},{"ticks":160090,"time":65.81273466666667,"value":-0.28125},{"ticks":160100,"time":65.81690133333333,"value":-0.328125},{"ticks":160110,"time":65.821068,"value":-0.4375},{"ticks":160120,"time":65.82523466666666,"value":-0.46875},{"ticks":160130,"time":65.82940133333334,"value":-0.515625},{"ticks":160140,"time":65.833568,"value":-0.546875},{"ticks":160150,"time":65.83773466666666,"value":-0.578125},{"ticks":160160,"time":65.84190133333334,"value":-0.640625},{"ticks":160170,"time":65.846068,"value":-0.6875},{"ticks":160180,"time":65.85023466666667,"value":-0.71875},{"ticks":160190,"time":65.85440133333334,"value":-0.734375},{"ticks":160200,"time":65.858568,"value":-0.78125},{"ticks":160210,"time":65.86273466666667,"value":-0.828125},{"ticks":160220,"time":65.86690133333335,"value":-0.875},{"ticks":160230,"time":65.87106800000001,"value":-0.90625},{"ticks":160240,"time":65.87523466666667,"value":-1},{"ticks":160320,"time":65.908568,"value":0},{"ticks":161760,"time":66.508568,"value":-1},{"ticks":161770,"time":66.51273466666666,"value":-0.78125},{"ticks":161780,"time":66.51690133333334,"value":-0.734375},{"ticks":161790,"time":66.521068,"value":-0.671875},{"ticks":161800,"time":66.52523466666666,"value":-0.625},{"ticks":161810,"time":66.52940133333334,"value":-0.578125},{"ticks":161820,"time":66.533568,"value":-0.53125},{"ticks":161830,"time":66.53773466666667,"value":-0.421875},{"ticks":161840,"time":66.54190133333334,"value":-0.359375},{"ticks":161850,"time":66.546068,"value":-0.3125},{"ticks":161860,"time":66.55023466666667,"value":-0.28125},{"ticks":161870,"time":66.55440133333335,"value":-0.21875},{"ticks":161880,"time":66.55856800000001,"value":-0.15625},{"ticks":161890,"time":66.56273466666667,"value":-0.125},{"ticks":161900,"time":66.56690133333333,"value":-0.09375},{"ticks":161910,"time":66.571068,"value":-0.0625},{"ticks":161920,"time":66.57523466666666,"value":-0.046875},{"ticks":161930,"time":66.57940133333334,"value":-0.015625},{"ticks":161960,"time":66.59190133333334,"value":0},{"ticks":164640,"time":67.708568,"value":-1},{"ticks":164650,"time":67.71273466666666,"value":-0.953125},{"ticks":164660,"time":67.71690133333334,"value":-0.90625},{"ticks":164670,"time":67.721068,"value":-0.84375},{"ticks":164680,"time":67.72523466666667,"value":-0.75},{"ticks":164690,"time":67.72940133333334,"value":-0.6875},{"ticks":164700,"time":67.733568,"value":-0.640625},{"ticks":164710,"time":67.73773466666667,"value":-0.515625},{"ticks":164720,"time":67.74190133333335,"value":-0.203125},{"ticks":164730,"time":67.74606800000001,"value":-0.15625},{"ticks":164740,"time":67.75023466666667,"value":-0.109375},{"ticks":164750,"time":67.75440133333333,"value":-0.03125},{"ticks":164760,"time":67.758568,"value":-0.015625},{"ticks":164860,"time":67.80023466666667,"value":0},{"ticks":165120,"time":67.908568,"value":0},{"ticks":165600,"time":68.108568,"value":-1},{"ticks":165610,"time":68.11273466666667,"value":-0.90625},{"ticks":165620,"time":68.11690133333335,"value":-0.875},{"ticks":165630,"time":68.12106800000001,"value":-0.84375},{"ticks":165640,"time":68.12523466666667,"value":-0.78125},{"ticks":165650,"time":68.12940133333335,"value":-0.734375},{"ticks":165660,"time":68.13356800000001,"value":-0.5625},{"ticks":165670,"time":68.13773466666667,"value":-0.328125},{"ticks":165680,"time":68.14190133333334,"value":-0.15625},{"ticks":165690,"time":68.146068,"value":-0.09375},{"ticks":165700,"time":68.15023466666666,"value":0},{"ticks":167760,"time":69.00856800000001,"value":0},{"ticks":167770,"time":69.01273466666667,"value":-0.28125},{"ticks":167780,"time":69.01690133333334,"value":-0.328125},{"ticks":167790,"time":69.021068,"value":-0.4375},{"ticks":167800,"time":69.02523466666666,"value":-0.46875},{"ticks":167810,"time":69.02940133333334,"value":-0.515625},{"ticks":167820,"time":69.033568,"value":-0.546875},{"ticks":167830,"time":69.03773466666667,"value":-0.578125},{"ticks":167840,"time":69.04190133333334,"value":-0.640625},{"ticks":167850,"time":69.046068,"value":-0.6875},{"ticks":167860,"time":69.05023466666667,"value":-0.71875},{"ticks":167870,"time":69.05440133333335,"value":-0.734375},{"ticks":167880,"time":69.05856800000001,"value":-0.78125},{"ticks":167890,"time":69.06273466666667,"value":-0.828125},{"ticks":167900,"time":69.06690133333335,"value":-0.875},{"ticks":167910,"time":69.07106800000001,"value":-0.90625},{"ticks":167920,"time":69.07523466666667,"value":-1},{"ticks":168000,"time":69.108568,"value":0},{"ticks":169440,"time":69.708568,"value":-1},{"ticks":169450,"time":69.71273466666666,"value":-0.78125},{"ticks":169460,"time":69.71690133333334,"value":-0.734375},{"ticks":169470,"time":69.721068,"value":-0.671875},{"ticks":169480,"time":69.72523466666667,"value":-0.625},{"ticks":169490,"time":69.72940133333334,"value":-0.578125},{"ticks":169500,"time":69.733568,"value":-0.53125},{"ticks":169510,"time":69.73773466666667,"value":-0.421875},{"ticks":169520,"time":69.74190133333335,"value":-0.359375},{"ticks":169530,"time":69.74606800000001,"value":-0.3125},{"ticks":169540,"time":69.75023466666667,"value":-0.28125},{"ticks":169550,"time":69.75440133333335,"value":-0.21875},{"ticks":169560,"time":69.75856800000001,"value":-0.15625},{"ticks":169570,"time":69.76273466666667,"value":-0.125},{"ticks":169580,"time":69.76690133333334,"value":-0.09375},{"ticks":169590,"time":69.771068,"value":-0.0625},{"ticks":169600,"time":69.77523466666666,"value":-0.046875},{"ticks":169610,"time":69.77940133333334,"value":-0.015625},{"ticks":169640,"time":69.79190133333334,"value":0},{"ticks":172320,"time":70.908568,"value":-1},{"ticks":172330,"time":70.91273466666667,"value":-0.953125},{"ticks":172340,"time":70.91690133333334,"value":-0.90625},{"ticks":172350,"time":70.921068,"value":-0.84375},{"ticks":172360,"time":70.92523466666667,"value":-0.75},{"ticks":172370,"time":70.92940133333335,"value":-0.6875},{"ticks":172380,"time":70.93356800000001,"value":-0.640625},{"ticks":172390,"time":70.93773466666667,"value":-0.515625},{"ticks":172400,"time":70.94190133333335,"value":-0.203125},{"ticks":172410,"time":70.94606800000001,"value":-0.15625},{"ticks":172420,"time":70.95023466666667,"value":-0.109375},{"ticks":172430,"time":70.95440133333334,"value":-0.03125},{"ticks":172440,"time":70.958568,"value":-0.015625},{"ticks":172540,"time":71.00023466666667,"value":0},{"ticks":172800,"time":71.108568,"value":0},{"ticks":173280,"time":71.30856800000001,"value":-1},{"ticks":173290,"time":71.31273466666667,"value":-0.90625},{"ticks":173300,"time":71.31690133333335,"value":-0.875},{"ticks":173310,"time":71.32106800000001,"value":-0.84375},{"ticks":173320,"time":71.32523466666667,"value":-0.78125},{"ticks":173330,"time":71.32940133333334,"value":-0.734375},{"ticks":173340,"time":71.333568,"value":-0.5625},{"ticks":173350,"time":71.33773466666666,"value":-0.328125},{"ticks":173360,"time":71.34190133333334,"value":-0.15625},{"ticks":173370,"time":71.346068,"value":-0.09375},{"ticks":173380,"time":71.35023466666667,"value":0},{"ticks":175440,"time":72.208568,"value":0},{"ticks":175450,"time":72.21273466666666,"value":-0.28125},{"ticks":175460,"time":72.21690133333334,"value":-0.328125},{"ticks":175470,"time":72.221068,"value":-0.4375},{"ticks":175480,"time":72.22523466666667,"value":-0.46875},{"ticks":175490,"time":72.22940133333334,"value":-0.515625},{"ticks":175500,"time":72.233568,"value":-0.546875},{"ticks":175510,"time":72.23773466666667,"value":-0.578125},{"ticks":175520,"time":72.24190133333335,"value":-0.640625},{"ticks":175530,"time":72.24606800000001,"value":-0.6875},{"ticks":175540,"time":72.25023466666667,"value":-0.71875},{"ticks":175550,"time":72.25440133333335,"value":-0.734375},{"ticks":175560,"time":72.25856800000001,"value":-0.78125},{"ticks":175570,"time":72.26273466666667,"value":-0.828125},{"ticks":175580,"time":72.26690133333334,"value":-0.875},{"ticks":175590,"time":72.271068,"value":-0.90625},{"ticks":175600,"time":72.27523466666666,"value":-1},{"ticks":175680,"time":72.30856800000001,"value":0},{"ticks":176640,"time":72.708568,"value":0},{"ticks":177120,"time":72.908568,"value":-1},{"ticks":177130,"time":72.91273466666667,"value":-0.90625},{"ticks":177140,"time":72.91690133333334,"value":-0.875},{"ticks":177150,"time":72.921068,"value":-0.84375},{"ticks":177160,"time":72.92523466666667,"value":-0.78125},{"ticks":177170,"time":72.92940133333335,"value":-0.734375},{"ticks":177180,"time":72.93356800000001,"value":-0.5625},{"ticks":177190,"time":72.93773466666667,"value":-0.328125},{"ticks":177200,"time":72.94190133333335,"value":-0.15625},{"ticks":177210,"time":72.94606800000001,"value":-0.09375},{"ticks":177220,"time":72.95023466666667,"value":0},{"ticks":179520,"time":73.908568,"value":0},{"ticks":179760,"time":74.00856800000001,"value":0},{"ticks":179775,"time":74.014818,"value":0.09375},{"ticks":179790,"time":74.021068,"value":0.296875},{"ticks":179805,"time":74.02731800000001,"value":0.34375},{"ticks":179820,"time":74.033568,"value":0.453125},{"ticks":179835,"time":74.03981800000001,"value":0.53125},{"ticks":179850,"time":74.046068,"value":0.59375},{"ticks":179865,"time":74.052318,"value":0.609375},{"ticks":179880,"time":74.05856800000001,"value":0.625},{"ticks":179895,"time":74.064818,"value":0.65625},{"ticks":179910,"time":74.07106800000001,"value":0.703125},{"ticks":179925,"time":74.077318,"value":0.71875},{"ticks":179940,"time":74.083568,"value":0.765625},{"ticks":179955,"time":74.08981800000001,"value":0.828125},{"ticks":179970,"time":74.096068,"value":0.90625},{"ticks":179985,"time":74.10231800000001,"value":0.9375},{"ticks":179999,"time":74.10815133333334,"value":0},{"ticks":180480,"time":74.30856800000001,"value":0},{"ticks":180960,"time":74.50856800000001,"value":-1},{"ticks":180970,"time":74.51273466666667,"value":-0.90625},{"ticks":180980,"time":74.51690133333334,"value":-0.875},{"ticks":180990,"time":74.521068,"value":-0.84375},{"ticks":181000,"time":74.52523466666666,"value":-0.78125},{"ticks":181010,"time":74.52940133333334,"value":-0.734375},{"ticks":181020,"time":74.533568,"value":-0.5625},{"ticks":181030,"time":74.53773466666667,"value":-0.328125},{"ticks":181040,"time":74.54190133333334,"value":-0.15625},{"ticks":181050,"time":74.546068,"value":-0.09375},{"ticks":181060,"time":74.55023466666667,"value":0},{"ticks":183120,"time":75.408568,"value":0},{"ticks":183130,"time":75.41273466666667,"value":-0.28125},{"ticks":183140,"time":75.41690133333334,"value":-0.328125},{"ticks":183150,"time":75.421068,"value":-0.4375},{"ticks":183160,"time":75.42523466666667,"value":-0.46875},{"ticks":183170,"time":75.42940133333335,"value":-0.515625},{"ticks":183180,"time":75.43356800000001,"value":-0.546875},{"ticks":183190,"time":75.43773466666667,"value":-0.578125},{"ticks":183200,"time":75.44190133333335,"value":-0.640625},{"ticks":183210,"time":75.44606800000001,"value":-0.6875},{"ticks":183220,"time":75.45023466666667,"value":-0.71875},{"ticks":183230,"time":75.45440133333334,"value":-0.734375},{"ticks":183240,"time":75.458568,"value":-0.78125},{"ticks":183250,"time":75.46273466666666,"value":-0.828125},{"ticks":183260,"time":75.46690133333334,"value":-0.875},{"ticks":183270,"time":75.471068,"value":-0.90625},{"ticks":183280,"time":75.47523466666667,"value":-1},{"ticks":183360,"time":75.50856800000001,"value":0},{"ticks":184800,"time":76.108568,"value":-1},{"ticks":184810,"time":76.11273466666667,"value":-0.78125},{"ticks":184820,"time":76.11690133333335,"value":-0.734375},{"ticks":184830,"time":76.12106800000001,"value":-0.671875},{"ticks":184840,"time":76.12523466666667,"value":-0.625},{"ticks":184850,"time":76.12940133333335,"value":-0.578125},{"ticks":184860,"time":76.13356800000001,"value":-0.53125},{"ticks":184870,"time":76.13773466666667,"value":-0.421875},{"ticks":184880,"time":76.14190133333334,"value":-0.359375},{"ticks":184890,"time":76.146068,"value":-0.3125},{"ticks":184900,"time":76.15023466666666,"value":-0.28125},{"ticks":184910,"time":76.15440133333334,"value":-0.21875},{"ticks":184920,"time":76.158568,"value":-0.15625},{"ticks":184930,"time":76.16273466666667,"value":-0.125},{"ticks":184940,"time":76.16690133333334,"value":-0.09375},{"ticks":184950,"time":76.171068,"value":-0.0625},{"ticks":184960,"time":76.17523466666667,"value":-0.046875},{"ticks":184970,"time":76.17940133333335,"value":-0.015625},{"ticks":185000,"time":76.19190133333335,"value":0},{"ticks":187680,"time":77.30856800000001,"value":-1},{"ticks":187690,"time":77.31273466666667,"value":-0.953125},{"ticks":187700,"time":77.31690133333335,"value":-0.90625},{"ticks":187710,"time":77.32106800000001,"value":-0.84375},{"ticks":187720,"time":77.32523466666667,"value":-0.75},{"ticks":187730,"time":77.32940133333334,"value":-0.6875},{"ticks":187740,"time":77.333568,"value":-0.640625},{"ticks":187750,"time":77.33773466666666,"value":-0.515625},{"ticks":187760,"time":77.34190133333334,"value":-0.203125},{"ticks":187770,"time":77.346068,"value":-0.15625},{"ticks":187780,"time":77.35023466666667,"value":-0.109375},{"ticks":187790,"time":77.35440133333334,"value":-0.03125},{"ticks":187800,"time":77.358568,"value":-0.015625},{"ticks":187900,"time":77.40023466666666,"value":0},{"ticks":188160,"time":77.50856800000001,"value":0},{"ticks":188640,"time":77.708568,"value":-1},{"ticks":188650,"time":77.71273466666666,"value":-0.90625},{"ticks":188660,"time":77.71690133333334,"value":-0.875},{"ticks":188670,"time":77.721068,"value":-0.84375},{"ticks":188680,"time":77.72523466666667,"value":-0.78125},{"ticks":188690,"time":77.72940133333334,"value":-0.734375},{"ticks":188700,"time":77.733568,"value":-0.5625},{"ticks":188710,"time":77.73773466666667,"value":-0.328125},{"ticks":188720,"time":77.74190133333335,"value":-0.15625},{"ticks":188730,"time":77.74606800000001,"value":-0.09375},{"ticks":188740,"time":77.75023466666667,"value":0},{"ticks":190800,"time":78.608568,"value":0},{"ticks":190810,"time":78.61273466666667,"value":-0.28125},{"ticks":190820,"time":78.61690133333335,"value":-0.328125},{"ticks":190830,"time":78.62106800000001,"value":-0.4375},{"ticks":190840,"time":78.62523466666667,"value":-0.46875},{"ticks":190850,"time":78.62940133333335,"value":-0.515625},{"ticks":190860,"time":78.63356800000001,"value":-0.546875},{"ticks":190870,"time":78.63773466666667,"value":-0.578125},{"ticks":190880,"time":78.64190133333334,"value":-0.640625},{"ticks":190890,"time":78.646068,"value":-0.6875},{"ticks":190900,"time":78.65023466666666,"value":-0.71875},{"ticks":190910,"time":78.65440133333334,"value":-0.734375},{"ticks":190920,"time":78.658568,"value":-0.78125},{"ticks":190930,"time":78.66273466666667,"value":-0.828125},{"ticks":190940,"time":78.66690133333334,"value":-0.875},{"ticks":190950,"time":78.671068,"value":-0.90625},{"ticks":190960,"time":78.67523466666667,"value":-1},{"ticks":191040,"time":78.708568,"value":0},{"ticks":192480,"time":79.30856800000001,"value":-1},{"ticks":192490,"time":79.31273466666667,"value":-0.78125},{"ticks":192500,"time":79.31690133333335,"value":-0.734375},{"ticks":192510,"time":79.32106800000001,"value":-0.671875},{"ticks":192520,"time":79.32523466666667,"value":-0.625},{"ticks":192530,"time":79.32940133333334,"value":-0.578125},{"ticks":192540,"time":79.333568,"value":-0.53125},{"ticks":192550,"time":79.33773466666666,"value":-0.421875},{"ticks":192560,"time":79.34190133333334,"value":-0.359375},{"ticks":192570,"time":79.346068,"value":-0.3125},{"ticks":192580,"time":79.35023466666667,"value":-0.28125},{"ticks":192590,"time":79.35440133333334,"value":-0.21875},{"ticks":192600,"time":79.358568,"value":-0.15625},{"ticks":192610,"time":79.36273466666667,"value":-0.125},{"ticks":192620,"time":79.36690133333335,"value":-0.09375},{"ticks":192630,"time":79.37106800000001,"value":-0.0625},{"ticks":192640,"time":79.37523466666667,"value":-0.046875},{"ticks":192650,"time":79.37940133333335,"value":-0.015625},{"ticks":192680,"time":79.39190133333334,"value":0},{"ticks":195360,"time":80.50856800000001,"value":-1},{"ticks":195370,"time":80.51273466666667,"value":-0.953125},{"ticks":195380,"time":80.51690133333334,"value":-0.90625},{"ticks":195390,"time":80.521068,"value":-0.84375},{"ticks":195400,"time":80.52523466666666,"value":-0.75},{"ticks":195410,"time":80.52940133333334,"value":-0.6875},{"ticks":195420,"time":80.533568,"value":-0.640625},{"ticks":195430,"time":80.53773466666667,"value":-0.515625},{"ticks":195440,"time":80.54190133333334,"value":-0.203125},{"ticks":195450,"time":80.546068,"value":-0.15625},{"ticks":195460,"time":80.55023466666667,"value":-0.109375},{"ticks":195470,"time":80.55440133333335,"value":-0.03125},{"ticks":195480,"time":80.55856800000001,"value":-0.015625},{"ticks":195580,"time":80.60023466666667,"value":0},{"ticks":195840,"time":80.70856800000001,"value":0},{"ticks":196320,"time":80.908568,"value":-1},{"ticks":196330,"time":80.91273466666667,"value":-0.90625},{"ticks":196340,"time":80.91690133333334,"value":-0.875},{"ticks":196350,"time":80.921068,"value":-0.84375},{"ticks":196360,"time":80.92523466666667,"value":-0.78125},{"ticks":196370,"time":80.92940133333335,"value":-0.734375},{"ticks":196380,"time":80.93356800000001,"value":-0.5625},{"ticks":196390,"time":80.93773466666667,"value":-0.328125},{"ticks":196400,"time":80.94190133333335,"value":-0.15625},{"ticks":196410,"time":80.94606800000001,"value":-0.09375},{"ticks":196420,"time":80.95023466666667,"value":0},{"ticks":198480,"time":81.80856800000001,"value":0},{"ticks":198490,"time":81.81273466666667,"value":-0.28125},{"ticks":198500,"time":81.81690133333335,"value":-0.328125},{"ticks":198510,"time":81.82106800000001,"value":-0.4375},{"ticks":198520,"time":81.82523466666667,"value":-0.46875},{"ticks":198530,"time":81.82940133333335,"value":-0.515625},{"ticks":198540,"time":81.83356800000001,"value":-0.546875},{"ticks":198550,"time":81.83773466666668,"value":-0.578125},{"ticks":198560,"time":81.84190133333334,"value":-0.640625},{"ticks":198570,"time":81.846068,"value":-0.6875},{"ticks":198580,"time":81.85023466666667,"value":-0.71875},{"ticks":198590,"time":81.85440133333334,"value":-0.734375},{"ticks":198600,"time":81.858568,"value":-0.78125},{"ticks":198610,"time":81.86273466666667,"value":-0.828125},{"ticks":198620,"time":81.86690133333335,"value":-0.875},{"ticks":198630,"time":81.87106800000001,"value":-0.90625},{"ticks":198640,"time":81.87523466666667,"value":-1},{"ticks":198720,"time":81.908568,"value":0},{"ticks":200160,"time":82.50856800000001,"value":-1},{"ticks":200170,"time":82.51273466666667,"value":-0.78125},{"ticks":200180,"time":82.51690133333335,"value":-0.734375},{"ticks":200190,"time":82.52106800000001,"value":-0.671875},{"ticks":200200,"time":82.52523466666668,"value":-0.625},{"ticks":200210,"time":82.52940133333334,"value":-0.578125},{"ticks":200220,"time":82.533568,"value":-0.53125},{"ticks":200230,"time":82.53773466666667,"value":-0.421875},{"ticks":200240,"time":82.54190133333334,"value":-0.359375},{"ticks":200250,"time":82.546068,"value":-0.3125},{"ticks":200260,"time":82.55023466666667,"value":-0.28125},{"ticks":200270,"time":82.55440133333335,"value":-0.21875},{"ticks":200280,"time":82.55856800000001,"value":-0.15625},{"ticks":200290,"time":82.56273466666667,"value":-0.125},{"ticks":200300,"time":82.56690133333335,"value":-0.09375},{"ticks":200310,"time":82.57106800000001,"value":-0.0625},{"ticks":200320,"time":82.57523466666667,"value":-0.046875},{"ticks":200330,"time":82.57940133333335,"value":-0.015625},{"ticks":200360,"time":82.59190133333334,"value":0},{"ticks":203040,"time":83.70856800000001,"value":-1},{"ticks":203050,"time":83.71273466666668,"value":-0.953125},{"ticks":203060,"time":83.71690133333334,"value":-0.90625},{"ticks":203070,"time":83.721068,"value":-0.84375},{"ticks":203080,"time":83.72523466666667,"value":-0.75},{"ticks":203090,"time":83.72940133333334,"value":-0.6875},{"ticks":203100,"time":83.733568,"value":-0.640625},{"ticks":203110,"time":83.73773466666667,"value":-0.515625},{"ticks":203120,"time":83.74190133333335,"value":-0.203125},{"ticks":203130,"time":83.74606800000001,"value":-0.15625},{"ticks":203140,"time":83.75023466666667,"value":-0.109375},{"ticks":203150,"time":83.75440133333335,"value":-0.03125},{"ticks":203160,"time":83.75856800000001,"value":-0.015625},{"ticks":203260,"time":83.80023466666667,"value":0},{"ticks":203520,"time":83.908568,"value":0},{"ticks":204000,"time":84.108568,"value":-1},{"ticks":204010,"time":84.11273466666667,"value":-0.90625},{"ticks":204020,"time":84.11690133333335,"value":-0.875},{"ticks":204030,"time":84.12106800000001,"value":-0.84375},{"ticks":204040,"time":84.12523466666667,"value":-0.78125},{"ticks":204050,"time":84.12940133333335,"value":-0.734375},{"ticks":204060,"time":84.13356800000001,"value":-0.5625},{"ticks":204070,"time":84.13773466666667,"value":-0.328125},{"ticks":204080,"time":84.14190133333335,"value":-0.15625},{"ticks":204090,"time":84.14606800000001,"value":-0.09375},{"ticks":204100,"time":84.15023466666668,"value":0},{"ticks":206160,"time":85.00856800000001,"value":0},{"ticks":206170,"time":85.01273466666667,"value":-0.28125},{"ticks":206180,"time":85.01690133333335,"value":-0.328125},{"ticks":206190,"time":85.02106800000001,"value":-0.4375},{"ticks":206200,"time":85.02523466666668,"value":-0.46875},{"ticks":206210,"time":85.02940133333334,"value":-0.515625},{"ticks":206220,"time":85.033568,"value":-0.546875},{"ticks":206230,"time":85.03773466666667,"value":-0.578125},{"ticks":206240,"time":85.04190133333334,"value":-0.640625},{"ticks":206250,"time":85.046068,"value":-0.6875},{"ticks":206260,"time":85.05023466666667,"value":-0.71875},{"ticks":206270,"time":85.05440133333335,"value":-0.734375},{"ticks":206280,"time":85.05856800000001,"value":-0.78125},{"ticks":206290,"time":85.06273466666667,"value":-0.828125},{"ticks":206300,"time":85.06690133333335,"value":-0.875},{"ticks":206310,"time":85.07106800000001,"value":-0.90625},{"ticks":206320,"time":85.07523466666667,"value":-1},{"ticks":206400,"time":85.108568,"value":0},{"ticks":207360,"time":85.50856800000001,"value":0},{"ticks":207840,"time":85.70856800000001,"value":-1},{"ticks":207850,"time":85.71273466666668,"value":-0.90625},{"ticks":207860,"time":85.71690133333334,"value":-0.875},{"ticks":207870,"time":85.721068,"value":-0.84375},{"ticks":207880,"time":85.72523466666667,"value":-0.78125},{"ticks":207890,"time":85.72940133333334,"value":-0.734375},{"ticks":207900,"time":85.733568,"value":-0.5625},{"ticks":207910,"time":85.73773466666667,"value":-0.328125},{"ticks":207920,"time":85.74190133333335,"value":-0.15625},{"ticks":207930,"time":85.74606800000001,"value":-0.09375},{"ticks":207940,"time":85.75023466666667,"value":0},{"ticks":210240,"time":86.70856800000001,"value":0},{"ticks":210480,"time":86.80856800000001,"value":0},{"ticks":210495,"time":86.814818,"value":0.09375},{"ticks":210510,"time":86.82106800000001,"value":0.296875},{"ticks":210525,"time":86.827318,"value":0.34375},{"ticks":210540,"time":86.83356800000001,"value":0.453125},{"ticks":210555,"time":86.83981800000001,"value":0.53125},{"ticks":210570,"time":86.846068,"value":0.59375},{"ticks":210585,"time":86.85231800000001,"value":0.609375},{"ticks":210600,"time":86.858568,"value":0.625},{"ticks":210615,"time":86.86481800000001,"value":0.65625},{"ticks":210630,"time":86.87106800000001,"value":0.703125},{"ticks":210645,"time":86.877318,"value":0.71875},{"ticks":210660,"time":86.88356800000001,"value":0.765625},{"ticks":210675,"time":86.889818,"value":0.828125},{"ticks":210690,"time":86.89606800000001,"value":0.90625},{"ticks":210705,"time":86.90231800000001,"value":0.9375},{"ticks":210719,"time":86.90815133333334,"value":0},{"ticks":211200,"time":87.108568,"value":0},{"ticks":211680,"time":87.30856800000001,"value":-1},{"ticks":211690,"time":87.31273466666667,"value":-0.90625},{"ticks":211700,"time":87.31690133333335,"value":-0.875},{"ticks":211710,"time":87.32106800000001,"value":-0.84375},{"ticks":211720,"time":87.32523466666667,"value":-0.78125},{"ticks":211730,"time":87.32940133333335,"value":-0.734375},{"ticks":211740,"time":87.33356800000001,"value":-0.5625},{"ticks":211750,"time":87.33773466666668,"value":-0.328125},{"ticks":211760,"time":87.34190133333334,"value":-0.15625},{"ticks":211770,"time":87.346068,"value":-0.09375},{"ticks":211780,"time":87.35023466666667,"value":0},{"ticks":213840,"time":88.20856800000001,"value":0},{"ticks":213850,"time":88.21273466666668,"value":-0.28125},{"ticks":213860,"time":88.21690133333334,"value":-0.328125},{"ticks":213870,"time":88.221068,"value":-0.4375},{"ticks":213880,"time":88.22523466666667,"value":-0.46875},{"ticks":213890,"time":88.22940133333334,"value":-0.515625},{"ticks":213900,"time":88.233568,"value":-0.546875},{"ticks":213910,"time":88.23773466666667,"value":-0.578125},{"ticks":213920,"time":88.24190133333335,"value":-0.640625},{"ticks":213930,"time":88.24606800000001,"value":-0.6875},{"ticks":213940,"time":88.25023466666667,"value":-0.71875},{"ticks":213950,"time":88.25440133333335,"value":-0.734375},{"ticks":213960,"time":88.25856800000001,"value":-0.78125},{"ticks":213970,"time":88.26273466666667,"value":-0.828125},{"ticks":213980,"time":88.26690133333335,"value":-0.875},{"ticks":213990,"time":88.27106800000001,"value":-0.90625},{"ticks":214000,"time":88.27523466666668,"value":-1},{"ticks":214080,"time":88.30856800000001,"value":0},{"ticks":215520,"time":88.908568,"value":-1},{"ticks":215530,"time":88.91273466666667,"value":-0.78125},{"ticks":215540,"time":88.91690133333334,"value":-0.734375},{"ticks":215550,"time":88.921068,"value":-0.671875},{"ticks":215560,"time":88.92523466666667,"value":-0.625},{"ticks":215570,"time":88.92940133333335,"value":-0.578125},{"ticks":215580,"time":88.93356800000001,"value":-0.53125},{"ticks":215590,"time":88.93773466666667,"value":-0.421875},{"ticks":215600,"time":88.94190133333335,"value":-0.359375},{"ticks":215610,"time":88.94606800000001,"value":-0.3125},{"ticks":215620,"time":88.95023466666667,"value":-0.28125},{"ticks":215630,"time":88.95440133333335,"value":-0.21875},{"ticks":215640,"time":88.95856800000001,"value":-0.15625},{"ticks":215650,"time":88.96273466666668,"value":-0.125},{"ticks":215660,"time":88.96690133333334,"value":-0.09375},{"ticks":215670,"time":88.971068,"value":-0.0625},{"ticks":215680,"time":88.97523466666667,"value":-0.046875},{"ticks":215690,"time":88.97940133333334,"value":-0.015625},{"ticks":215720,"time":88.99190133333335,"value":0},{"ticks":218400,"time":90.108568,"value":-1},{"ticks":218410,"time":90.11273466666667,"value":-0.953125},{"ticks":218420,"time":90.11690133333335,"value":-0.90625},{"ticks":218430,"time":90.12106800000001,"value":-0.84375},{"ticks":218440,"time":90.12523466666667,"value":-0.75},{"ticks":218450,"time":90.12940133333335,"value":-0.6875},{"ticks":218460,"time":90.13356800000001,"value":-0.640625},{"ticks":218470,"time":90.13773466666667,"value":-0.515625},{"ticks":218480,"time":90.14190133333335,"value":-0.203125},{"ticks":218490,"time":90.14606800000001,"value":-0.15625},{"ticks":218500,"time":90.15023466666668,"value":-0.109375},{"ticks":218510,"time":90.15440133333334,"value":-0.03125},{"ticks":218520,"time":90.158568,"value":-0.015625},{"ticks":218620,"time":90.20023466666667,"value":0},{"ticks":218880,"time":90.30856800000001,"value":0},{"ticks":219360,"time":90.50856800000001,"value":-1},{"ticks":219370,"time":90.51273466666667,"value":-0.90625},{"ticks":219380,"time":90.51690133333335,"value":-0.875},{"ticks":219390,"time":90.52106800000001,"value":-0.84375},{"ticks":219400,"time":90.52523466666668,"value":-0.78125},{"ticks":219410,"time":90.52940133333334,"value":-0.734375},{"ticks":219420,"time":90.533568,"value":-0.5625},{"ticks":219430,"time":90.53773466666667,"value":-0.328125},{"ticks":219440,"time":90.54190133333334,"value":-0.15625},{"ticks":219450,"time":90.546068,"value":-0.09375},{"ticks":219460,"time":90.55023466666667,"value":0},{"ticks":221520,"time":91.408568,"value":0},{"ticks":221530,"time":91.41273466666667,"value":-0.28125},{"ticks":221540,"time":91.41690133333334,"value":-0.328125},{"ticks":221550,"time":91.421068,"value":-0.4375},{"ticks":221560,"time":91.42523466666667,"value":-0.46875},{"ticks":221570,"time":91.42940133333335,"value":-0.515625},{"ticks":221580,"time":91.43356800000001,"value":-0.546875},{"ticks":221590,"time":91.43773466666667,"value":-0.578125},{"ticks":221600,"time":91.44190133333335,"value":-0.640625},{"ticks":221610,"time":91.44606800000001,"value":-0.6875},{"ticks":221620,"time":91.45023466666667,"value":-0.71875},{"ticks":221630,"time":91.45440133333335,"value":-0.734375},{"ticks":221640,"time":91.45856800000001,"value":-0.78125},{"ticks":221650,"time":91.46273466666668,"value":-0.828125},{"ticks":221660,"time":91.46690133333334,"value":-0.875},{"ticks":221670,"time":91.471068,"value":-0.90625},{"ticks":221680,"time":91.47523466666667,"value":-1},{"ticks":221760,"time":91.50856800000001,"value":0},{"ticks":223200,"time":92.108568,"value":-1},{"ticks":223210,"time":92.11273466666667,"value":-0.78125},{"ticks":223220,"time":92.11690133333335,"value":-0.734375},{"ticks":223230,"time":92.12106800000001,"value":-0.671875},{"ticks":223240,"time":92.12523466666667,"value":-0.625},{"ticks":223250,"time":92.12940133333335,"value":-0.578125},{"ticks":223260,"time":92.13356800000001,"value":-0.53125},{"ticks":223270,"time":92.13773466666667,"value":-0.421875},{"ticks":223280,"time":92.14190133333335,"value":-0.359375},{"ticks":223290,"time":92.14606800000001,"value":-0.3125},{"ticks":223300,"time":92.15023466666668,"value":-0.28125},{"ticks":223310,"time":92.15440133333334,"value":-0.21875},{"ticks":223320,"time":92.158568,"value":-0.15625},{"ticks":223330,"time":92.16273466666667,"value":-0.125},{"ticks":223340,"time":92.16690133333334,"value":-0.09375},{"ticks":223350,"time":92.171068,"value":-0.0625},{"ticks":223360,"time":92.17523466666667,"value":-0.046875},{"ticks":223370,"time":92.17940133333335,"value":-0.015625},{"ticks":223400,"time":92.19190133333335,"value":0},{"ticks":226080,"time":93.30856800000001,"value":-1},{"ticks":226090,"time":93.31273466666667,"value":-0.953125},{"ticks":226100,"time":93.31690133333335,"value":-0.90625},{"ticks":226110,"time":93.32106800000001,"value":-0.84375},{"ticks":226120,"time":93.32523466666667,"value":-0.75},{"ticks":226130,"time":93.32940133333335,"value":-0.6875},{"ticks":226140,"time":93.33356800000001,"value":-0.640625},{"ticks":226150,"time":93.33773466666668,"value":-0.515625},{"ticks":226160,"time":93.34190133333334,"value":-0.203125},{"ticks":226170,"time":93.346068,"value":-0.15625},{"ticks":226180,"time":93.35023466666667,"value":-0.109375},{"ticks":226190,"time":93.35440133333334,"value":-0.03125},{"ticks":226200,"time":93.358568,"value":-0.015625},{"ticks":226300,"time":93.40023466666668,"value":0},{"ticks":226560,"time":93.50856800000001,"value":0},{"ticks":227040,"time":93.70856800000001,"value":-1},{"ticks":227050,"time":93.71273466666668,"value":-0.90625},{"ticks":227060,"time":93.71690133333334,"value":-0.875},{"ticks":227070,"time":93.721068,"value":-0.84375},{"ticks":227080,"time":93.72523466666667,"value":-0.78125},{"ticks":227090,"time":93.72940133333334,"value":-0.734375},{"ticks":227100,"time":93.733568,"value":-0.5625},{"ticks":227110,"time":93.73773466666667,"value":-0.328125},{"ticks":227120,"time":93.74190133333335,"value":-0.15625},{"ticks":227130,"time":93.74606800000001,"value":-0.09375},{"ticks":227140,"time":93.75023466666667,"value":0},{"ticks":228240,"time":94.20856800000001,"value":0},{"ticks":228255,"time":94.21481800000001,"value":-0.03125},{"ticks":228270,"time":94.221068,"value":-0.046875},{"ticks":228285,"time":94.22731800000001,"value":-0.09375},{"ticks":228300,"time":94.233568,"value":-0.125},{"ticks":228315,"time":94.23981800000001,"value":-0.1875},{"ticks":228330,"time":94.24606800000001,"value":-0.28125},{"ticks":228345,"time":94.252318,"value":-0.5625},{"ticks":228360,"time":94.25856800000001,"value":-0.640625},{"ticks":228375,"time":94.264818,"value":-0.703125},{"ticks":228390,"time":94.27106800000001,"value":-0.765625},{"ticks":228405,"time":94.27731800000001,"value":-0.90625},{"ticks":228420,"time":94.283568,"value":-0.921875},{"ticks":228480,"time":94.30856800000001,"value":0},{"ticks":229200,"time":94.608568,"value":0},{"ticks":229210,"time":94.61273466666667,"value":-0.28125},{"ticks":229220,"time":94.61690133333335,"value":-0.328125},{"ticks":229230,"time":94.62106800000001,"value":-0.4375},{"ticks":229240,"time":94.62523466666667,"value":-0.46875},{"ticks":229250,"time":94.62940133333335,"value":-0.515625},{"ticks":229260,"time":94.63356800000001,"value":-0.546875},{"ticks":229270,"time":94.63773466666667,"value":-0.578125},{"ticks":229280,"time":94.64190133333335,"value":-0.640625},{"ticks":229290,"time":94.64606800000001,"value":-0.6875},{"ticks":229300,"time":94.65023466666668,"value":-0.71875},{"ticks":229310,"time":94.65440133333334,"value":-0.734375},{"ticks":229320,"time":94.658568,"value":-0.78125},{"ticks":229330,"time":94.66273466666667,"value":-0.828125},{"ticks":229340,"time":94.66690133333334,"value":-0.875},{"ticks":229350,"time":94.671068,"value":-0.90625},{"ticks":229360,"time":94.67523466666667,"value":-1},{"ticks":229440,"time":94.70856800000001,"value":0},{"ticks":230880,"time":95.30856800000001,"value":-1},{"ticks":230890,"time":95.31273466666667,"value":-0.78125},{"ticks":230900,"time":95.31690133333335,"value":-0.734375},{"ticks":230910,"time":95.32106800000001,"value":-0.671875},{"ticks":230920,"time":95.32523466666667,"value":-0.625},{"ticks":230930,"time":95.32940133333335,"value":-0.578125},{"ticks":230940,"time":95.33356800000001,"value":-0.53125},{"ticks":230950,"time":95.33773466666668,"value":-0.421875},{"ticks":230960,"time":95.34190133333334,"value":-0.359375},{"ticks":230970,"time":95.346068,"value":-0.3125},{"ticks":230980,"time":95.35023466666667,"value":-0.28125},{"ticks":230990,"time":95.35440133333334,"value":-0.21875},{"ticks":231000,"time":95.358568,"value":-0.15625},{"ticks":231010,"time":95.36273466666667,"value":-0.125},{"ticks":231020,"time":95.36690133333335,"value":-0.09375},{"ticks":231030,"time":95.37106800000001,"value":-0.0625},{"ticks":231040,"time":95.37523466666667,"value":-0.046875},{"ticks":231050,"time":95.37940133333335,"value":-0.015625},{"ticks":231080,"time":95.39190133333335,"value":0},{"ticks":233760,"time":96.50856800000001,"value":-1},{"ticks":233770,"time":96.51273466666667,"value":-0.953125},{"ticks":233780,"time":96.51690133333335,"value":-0.90625},{"ticks":233790,"time":96.52106800000001,"value":-0.84375},{"ticks":233800,"time":96.52523466666668,"value":-0.75},{"ticks":233810,"time":96.52940133333334,"value":-0.6875},{"ticks":233820,"time":96.533568,"value":-0.640625},{"ticks":233830,"time":96.53773466666667,"value":-0.515625},{"ticks":233840,"time":96.54190133333334,"value":-0.203125},{"ticks":233850,"time":96.546068,"value":-0.15625},{"ticks":233860,"time":96.55023466666667,"value":-0.109375},{"ticks":233870,"time":96.55440133333335,"value":-0.03125},{"ticks":233880,"time":96.55856800000001,"value":-0.015625},{"ticks":233980,"time":96.60023466666667,"value":0},{"ticks":234240,"time":96.70856800000001,"value":0},{"ticks":234720,"time":96.908568,"value":-1},{"ticks":234730,"time":96.91273466666667,"value":-0.90625},{"ticks":234740,"time":96.91690133333334,"value":-0.875},{"ticks":234750,"time":96.921068,"value":-0.84375},{"ticks":234760,"time":96.92523466666667,"value":-0.78125},{"ticks":234770,"time":96.92940133333335,"value":-0.734375},{"ticks":234780,"time":96.93356800000001,"value":-0.5625},{"ticks":234790,"time":96.93773466666667,"value":-0.328125},{"ticks":234800,"time":96.94190133333335,"value":-0.15625},{"ticks":234810,"time":96.94606800000001,"value":-0.09375},{"ticks":234820,"time":96.95023466666667,"value":0},{"ticks":235920,"time":97.408568,"value":0},{"ticks":235935,"time":97.41481800000001,"value":-0.03125},{"ticks":235950,"time":97.421068,"value":-0.046875},{"ticks":235965,"time":97.42731800000001,"value":-0.09375},{"ticks":235980,"time":97.43356800000001,"value":-0.125},{"ticks":235995,"time":97.439818,"value":-0.1875},{"ticks":236010,"time":97.44606800000001,"value":-0.28125},{"ticks":236025,"time":97.452318,"value":-0.5625},{"ticks":236040,"time":97.45856800000001,"value":-0.640625},{"ticks":236055,"time":97.46481800000001,"value":-0.703125},{"ticks":236070,"time":97.471068,"value":-0.765625},{"ticks":236085,"time":97.47731800000001,"value":-0.90625},{"ticks":236100,"time":97.483568,"value":-0.921875},{"ticks":236160,"time":97.50856800000001,"value":0},{"ticks":236880,"time":97.80856800000001,"value":0},{"ticks":236890,"time":97.81273466666667,"value":-0.28125},{"ticks":236900,"time":97.81690133333335,"value":-0.328125},{"ticks":236910,"time":97.82106800000001,"value":-0.4375},{"ticks":236920,"time":97.82523466666667,"value":-0.46875},{"ticks":236930,"time":97.82940133333335,"value":-0.515625},{"ticks":236940,"time":97.83356800000001,"value":-0.546875},{"ticks":236950,"time":97.83773466666668,"value":-0.578125},{"ticks":236960,"time":97.84190133333334,"value":-0.640625},{"ticks":236970,"time":97.846068,"value":-0.6875},{"ticks":236980,"time":97.85023466666667,"value":-0.71875},{"ticks":236990,"time":97.85440133333334,"value":-0.734375},{"ticks":237000,"time":97.858568,"value":-0.78125},{"ticks":237010,"time":97.86273466666667,"value":-0.828125},{"ticks":237020,"time":97.86690133333335,"value":-0.875},{"ticks":237030,"time":97.87106800000001,"value":-0.90625},{"ticks":237040,"time":97.87523466666667,"value":-1},{"ticks":237120,"time":97.908568,"value":0},{"ticks":238560,"time":98.50856800000001,"value":-1},{"ticks":238570,"time":98.51273466666667,"value":-0.78125},{"ticks":238580,"time":98.51690133333335,"value":-0.734375},{"ticks":238590,"time":98.52106800000001,"value":-0.671875},{"ticks":238600,"time":98.52523466666668,"value":-0.625},{"ticks":238610,"time":98.52940133333334,"value":-0.578125},{"ticks":238620,"time":98.533568,"value":-0.53125},{"ticks":238630,"time":98.53773466666667,"value":-0.421875},{"ticks":238640,"time":98.54190133333334,"value":-0.359375},{"ticks":238650,"time":98.546068,"value":-0.3125},{"ticks":238660,"time":98.55023466666667,"value":-0.28125},{"ticks":238670,"time":98.55440133333335,"value":-0.21875},{"ticks":238680,"time":98.55856800000001,"value":-0.15625},{"ticks":238690,"time":98.56273466666667,"value":-0.125},{"ticks":238700,"time":98.56690133333335,"value":-0.09375},{"ticks":238710,"time":98.57106800000001,"value":-0.0625},{"ticks":238720,"time":98.57523466666667,"value":-0.046875},{"ticks":238730,"time":98.57940133333335,"value":-0.015625},{"ticks":238760,"time":98.59190133333334,"value":0},{"ticks":240960,"time":99.50856800000001,"value":-1},{"ticks":241035,"time":99.53981800000001,"value":-0.984375},{"ticks":241050,"time":99.546068,"value":-0.96875},{"ticks":241065,"time":99.55231800000001,"value":-0.921875},{"ticks":241080,"time":99.55856800000001,"value":-0.90625},{"ticks":241095,"time":99.564818,"value":-0.875},{"ticks":241110,"time":99.57106800000001,"value":-0.859375},{"ticks":241125,"time":99.577318,"value":-0.8125},{"ticks":241140,"time":99.58356800000001,"value":-0.78125},{"ticks":241155,"time":99.58981800000001,"value":-0.75},{"ticks":241170,"time":99.596068,"value":-0.71875},{"ticks":241185,"time":99.60231800000001,"value":-0.6875},{"ticks":241200,"time":99.608568,"value":-0.65625},{"ticks":241215,"time":99.61481800000001,"value":-0.640625},{"ticks":241230,"time":99.62106800000001,"value":-0.609375},{"ticks":241245,"time":99.627318,"value":-0.578125},{"ticks":241260,"time":99.63356800000001,"value":-0.53125},{"ticks":241275,"time":99.639818,"value":-0.46875},{"ticks":241290,"time":99.64606800000001,"value":-0.390625},{"ticks":241305,"time":99.65231800000001,"value":-0.34375},{"ticks":241320,"time":99.658568,"value":-0.265625},{"ticks":241335,"time":99.66481800000001,"value":-0.171875},{"ticks":241350,"time":99.671068,"value":-0.09375},{"ticks":241365,"time":99.67731800000001,"value":-0.046875},{"ticks":241380,"time":99.68356800000001,"value":-0.015625},{"ticks":241395,"time":99.689818,"value":0.015625},{"ticks":241410,"time":99.69606800000001,"value":0.046875},{"ticks":241425,"time":99.702318,"value":0.078125},{"ticks":241440,"time":99.70856800000001,"value":0.125},{"ticks":241455,"time":99.71481800000001,"value":0.15625},{"ticks":241470,"time":99.721068,"value":0.203125},{"ticks":241485,"time":99.72731800000001,"value":0.21875},{"ticks":241500,"time":99.733568,"value":0.265625},{"ticks":241515,"time":99.73981800000001,"value":0.28125},{"ticks":241530,"time":99.74606800000001,"value":0.3125},{"ticks":241545,"time":99.752318,"value":0.359375},{"ticks":241560,"time":99.75856800000001,"value":0.390625},{"ticks":241575,"time":99.764818,"value":0.4375},{"ticks":241590,"time":99.77106800000001,"value":0.515625},{"ticks":241605,"time":99.77731800000001,"value":0.546875},{"ticks":241620,"time":99.783568,"value":0.59375},{"ticks":241635,"time":99.78981800000001,"value":0.640625},{"ticks":241650,"time":99.796068,"value":0.671875},{"ticks":241665,"time":99.80231800000001,"value":0.703125},{"ticks":241680,"time":99.80856800000001,"value":0.765625},{"ticks":241695,"time":99.814818,"value":0.78125},{"ticks":241710,"time":99.82106800000001,"value":0.796875},{"ticks":241725,"time":99.827318,"value":0.828125},{"ticks":241740,"time":99.83356800000001,"value":0.84375},{"ticks":241755,"time":99.83981800000001,"value":0.859375},{"ticks":241770,"time":99.846068,"value":0.875},{"ticks":241785,"time":99.85231800000001,"value":0.890625},{"ticks":241800,"time":99.858568,"value":0.921875},{"ticks":241815,"time":99.86481800000001,"value":0.9375},{"ticks":241830,"time":99.87106800000001,"value":0.953125},{"ticks":241845,"time":99.877318,"value":0.96875},{"ticks":241860,"time":99.88356800000001,"value":0.984375},{"ticks":241920,"time":99.908568,"value":0},{"ticks":242400,"time":100.108568,"value":-1},{"ticks":242410,"time":100.11273466666667,"value":-0.90625},{"ticks":242420,"time":100.11690133333335,"value":-0.875},{"ticks":242430,"time":100.12106800000001,"value":-0.84375},{"ticks":242440,"time":100.12523466666667,"value":-0.78125},{"ticks":242450,"time":100.12940133333335,"value":-0.734375},{"ticks":242460,"time":100.13356800000001,"value":-0.5625},{"ticks":242470,"time":100.13773466666667,"value":-0.328125},{"ticks":242480,"time":100.14190133333335,"value":-0.15625},{"ticks":242490,"time":100.14606800000001,"value":-0.09375},{"ticks":242500,"time":100.15023466666668,"value":0},{"ticks":243600,"time":100.608568,"value":0},{"ticks":243615,"time":100.61481800000001,"value":-0.03125},{"ticks":243630,"time":100.62106800000001,"value":-0.046875},{"ticks":243645,"time":100.627318,"value":-0.09375},{"ticks":243660,"time":100.63356800000001,"value":-0.125},{"ticks":243675,"time":100.639818,"value":-0.1875},{"ticks":243690,"time":100.64606800000001,"value":-0.28125},{"ticks":243705,"time":100.65231800000001,"value":-0.5625},{"ticks":243720,"time":100.658568,"value":-0.640625},{"ticks":243735,"time":100.66481800000001,"value":-0.703125},{"ticks":243750,"time":100.671068,"value":-0.765625},{"ticks":243765,"time":100.67731800000001,"value":-0.90625},{"ticks":243780,"time":100.68356800000001,"value":-0.921875},{"ticks":243840,"time":100.70856800000001,"value":0},{"ticks":244560,"time":101.00856800000001,"value":0},{"ticks":244570,"time":101.01273466666667,"value":-0.28125},{"ticks":244580,"time":101.01690133333335,"value":-0.328125},{"ticks":244590,"time":101.02106800000001,"value":-0.4375},{"ticks":244600,"time":101.02523466666668,"value":-0.46875},{"ticks":244610,"time":101.02940133333334,"value":-0.515625},{"ticks":244620,"time":101.033568,"value":-0.546875},{"ticks":244630,"time":101.03773466666667,"value":-0.578125},{"ticks":244640,"time":101.04190133333334,"value":-0.640625},{"ticks":244650,"time":101.046068,"value":-0.6875},{"ticks":244660,"time":101.05023466666667,"value":-0.71875},{"ticks":244670,"time":101.05440133333335,"value":-0.734375},{"ticks":244680,"time":101.05856800000001,"value":-0.78125},{"ticks":244690,"time":101.06273466666667,"value":-0.828125},{"ticks":244700,"time":101.06690133333335,"value":-0.875},{"ticks":244710,"time":101.07106800000001,"value":-0.90625},{"ticks":244720,"time":101.07523466666667,"value":-1},{"ticks":244800,"time":101.108568,"value":0},{"ticks":246240,"time":101.70856800000001,"value":-1},{"ticks":246250,"time":101.71273466666668,"value":-0.78125},{"ticks":246260,"time":101.71690133333334,"value":-0.734375},{"ticks":246270,"time":101.721068,"value":-0.671875},{"ticks":246280,"time":101.72523466666667,"value":-0.625},{"ticks":246290,"time":101.72940133333334,"value":-0.578125},{"ticks":246300,"time":101.733568,"value":-0.53125},{"ticks":246310,"time":101.73773466666667,"value":-0.421875},{"ticks":246320,"time":101.74190133333335,"value":-0.359375},{"ticks":246330,"time":101.74606800000001,"value":-0.3125},{"ticks":246340,"time":101.75023466666667,"value":-0.28125},{"ticks":246350,"time":101.75440133333335,"value":-0.21875},{"ticks":246360,"time":101.75856800000001,"value":-0.15625},{"ticks":246370,"time":101.76273466666667,"value":-0.125},{"ticks":246380,"time":101.76690133333335,"value":-0.09375},{"ticks":246390,"time":101.77106800000001,"value":-0.0625},{"ticks":246400,"time":101.77523466666668,"value":-0.046875},{"ticks":246410,"time":101.77940133333334,"value":-0.015625},{"ticks":246440,"time":101.79190133333334,"value":0},{"ticks":249120,"time":102.908568,"value":0.9998779296875},{"ticks":249150,"time":102.921068,"value":0.9375},{"ticks":249160,"time":102.92523466666667,"value":0.921875},{"ticks":249170,"time":102.92940133333335,"value":0.90625},{"ticks":249180,"time":102.93356800000001,"value":0.859375},{"ticks":249190,"time":102.93773466666667,"value":0.828125},{"ticks":249200,"time":102.94190133333335,"value":0.8125},{"ticks":249210,"time":102.94606800000001,"value":0.78125},{"ticks":249220,"time":102.95023466666667,"value":0.703125},{"ticks":249230,"time":102.95440133333335,"value":0.65625},{"ticks":249240,"time":102.95856800000001,"value":0.53125},{"ticks":249250,"time":102.96273466666668,"value":0.484375},{"ticks":249260,"time":102.96690133333334,"value":0.46875},{"ticks":249270,"time":102.971068,"value":0.4375},{"ticks":249280,"time":102.97523466666667,"value":0.390625},{"ticks":249290,"time":102.97940133333334,"value":0.34375},{"ticks":249300,"time":102.983568,"value":0.296875},{"ticks":249310,"time":102.98773466666667,"value":0.25},{"ticks":249320,"time":102.99190133333335,"value":0.1875},{"ticks":249330,"time":102.99606800000001,"value":0.125},{"ticks":249340,"time":103.00023466666667,"value":0.09375},{"ticks":249350,"time":103.00440133333335,"value":0.015625},{"ticks":249360,"time":103.00856800000001,"value":-0.0625},{"ticks":249370,"time":103.01273466666667,"value":-0.203125},{"ticks":249380,"time":103.01690133333335,"value":-0.28125},{"ticks":249390,"time":103.02106800000001,"value":-0.40625},{"ticks":249400,"time":103.02523466666668,"value":-0.46875},{"ticks":249410,"time":103.02940133333334,"value":-0.625},{"ticks":249420,"time":103.033568,"value":-0.71875},{"ticks":249430,"time":103.03773466666667,"value":-1},{"ticks":249600,"time":103.108568,"value":0},{"ticks":250080,"time":103.30856800000001,"value":-1},{"ticks":250090,"time":103.31273466666667,"value":-0.90625},{"ticks":250100,"time":103.31690133333335,"value":-0.875},{"ticks":250110,"time":103.32106800000001,"value":-0.84375},{"ticks":250120,"time":103.32523466666667,"value":-0.78125},{"ticks":250130,"time":103.32940133333335,"value":-0.734375},{"ticks":250140,"time":103.33356800000001,"value":-0.5625},{"ticks":250150,"time":103.33773466666668,"value":-0.328125},{"ticks":250160,"time":103.34190133333334,"value":-0.15625},{"ticks":250170,"time":103.346068,"value":-0.09375},{"ticks":250180,"time":103.35023466666667,"value":0},{"ticks":252240,"time":104.20856800000001,"value":0},{"ticks":252250,"time":104.21273466666668,"value":-0.28125},{"ticks":252260,"time":104.21690133333334,"value":-0.328125},{"ticks":252270,"time":104.221068,"value":-0.4375},{"ticks":252280,"time":104.22523466666667,"value":-0.46875},{"ticks":252290,"time":104.22940133333334,"value":-0.515625},{"ticks":252300,"time":104.233568,"value":-0.546875},{"ticks":252310,"time":104.23773466666667,"value":-0.578125},{"ticks":252320,"time":104.24190133333335,"value":-0.640625},{"ticks":252330,"time":104.24606800000001,"value":-0.6875},{"ticks":252340,"time":104.25023466666667,"value":-0.71875},{"ticks":252350,"time":104.25440133333335,"value":-0.734375},{"ticks":252360,"time":104.25856800000001,"value":-0.78125},{"ticks":252370,"time":104.26273466666667,"value":-0.828125},{"ticks":252380,"time":104.26690133333335,"value":-0.875},{"ticks":252390,"time":104.27106800000001,"value":-0.90625},{"ticks":252400,"time":104.27523466666668,"value":-1},{"ticks":252480,"time":104.30856800000001,"value":0},{"ticks":253920,"time":104.908568,"value":-1},{"ticks":253930,"time":104.91273466666667,"value":-0.78125},{"ticks":253940,"time":104.91690133333334,"value":-0.734375},{"ticks":253950,"time":104.921068,"value":-0.671875},{"ticks":253960,"time":104.92523466666667,"value":-0.625},{"ticks":253970,"time":104.92940133333335,"value":-0.578125},{"ticks":253980,"time":104.93356800000001,"value":-0.53125},{"ticks":253990,"time":104.93773466666667,"value":-0.421875},{"ticks":254000,"time":104.94190133333335,"value":-0.359375},{"ticks":254010,"time":104.94606800000001,"value":-0.3125},{"ticks":254020,"time":104.95023466666667,"value":-0.28125},{"ticks":254030,"time":104.95440133333335,"value":-0.21875},{"ticks":254040,"time":104.95856800000001,"value":-0.15625},{"ticks":254050,"time":104.96273466666668,"value":-0.125},{"ticks":254060,"time":104.96690133333334,"value":-0.09375},{"ticks":254070,"time":104.971068,"value":-0.0625},{"ticks":254080,"time":104.97523466666667,"value":-0.046875},{"ticks":254090,"time":104.97940133333334,"value":-0.015625},{"ticks":254120,"time":104.99190133333335,"value":0},{"ticks":257320,"time":106.32523466666669,"value":0},{"ticks":257800,"time":106.52523466666668,"value":-1},{"ticks":257810,"time":106.52940133333334,"value":-0.90625},{"ticks":257820,"time":106.533568,"value":-0.875},{"ticks":257830,"time":106.53773466666668,"value":-0.84375},{"ticks":257840,"time":106.54190133333333,"value":-0.78125},{"ticks":257850,"time":106.546068,"value":-0.734375},{"ticks":257860,"time":106.55023466666668,"value":-0.5625},{"ticks":257870,"time":106.55440133333333,"value":-0.328125},{"ticks":257880,"time":106.55856800000001,"value":-0.15625},{"ticks":257890,"time":106.56273466666669,"value":-0.09375},{"ticks":257900,"time":106.56690133333333,"value":0},{"ticks":259000,"time":107.02523466666668,"value":0},{"ticks":259015,"time":107.03148466666669,"value":-0.03125},{"ticks":259030,"time":107.03773466666668,"value":-0.046875},{"ticks":259045,"time":107.04398466666669,"value":-0.09375},{"ticks":259060,"time":107.05023466666668,"value":-0.125},{"ticks":259075,"time":107.05648466666668,"value":-0.1875},{"ticks":259090,"time":107.06273466666669,"value":-0.28125},{"ticks":259105,"time":107.06898466666668,"value":-0.5625},{"ticks":259120,"time":107.07523466666669,"value":-0.640625},{"ticks":259135,"time":107.08148466666668,"value":-0.703125},{"ticks":259150,"time":107.08773466666668,"value":-0.765625},{"ticks":259165,"time":107.09398466666669,"value":-0.90625},{"ticks":259180,"time":107.10023466666668,"value":-0.921875},{"ticks":259240,"time":107.12523466666669,"value":0},{"ticks":259960,"time":107.42523466666668,"value":0},{"ticks":259970,"time":107.42940133333333,"value":-0.28125},{"ticks":259980,"time":107.43356800000001,"value":-0.328125},{"ticks":259990,"time":107.43773466666669,"value":-0.4375},{"ticks":260000,"time":107.44190133333333,"value":-0.46875},{"ticks":260010,"time":107.44606800000001,"value":-0.515625},{"ticks":260020,"time":107.45023466666669,"value":-0.546875},{"ticks":260030,"time":107.45440133333334,"value":-0.578125},{"ticks":260040,"time":107.45856800000001,"value":-0.640625},{"ticks":260050,"time":107.46273466666668,"value":-0.6875},{"ticks":260060,"time":107.46690133333334,"value":-0.71875},{"ticks":260070,"time":107.471068,"value":-0.734375},{"ticks":260080,"time":107.47523466666668,"value":-0.78125},{"ticks":260090,"time":107.47940133333333,"value":-0.828125},{"ticks":260100,"time":107.483568,"value":-0.875},{"ticks":260110,"time":107.48773466666668,"value":-0.90625},{"ticks":260120,"time":107.49190133333333,"value":-1},{"ticks":260200,"time":107.52523466666668,"value":0},{"ticks":261640,"time":108.12523466666669,"value":-1},{"ticks":261650,"time":108.12940133333333,"value":-0.78125},{"ticks":261660,"time":108.13356800000001,"value":-0.734375},{"ticks":261670,"time":108.13773466666669,"value":-0.671875},{"ticks":261680,"time":108.14190133333334,"value":-0.625},{"ticks":261690,"time":108.14606800000001,"value":-0.578125},{"ticks":261700,"time":108.15023466666668,"value":-0.53125},{"ticks":261710,"time":108.15440133333334,"value":-0.421875},{"ticks":261720,"time":108.158568,"value":-0.359375},{"ticks":261730,"time":108.16273466666668,"value":-0.3125},{"ticks":261740,"time":108.16690133333333,"value":-0.28125},{"ticks":261750,"time":108.171068,"value":-0.21875},{"ticks":261760,"time":108.17523466666668,"value":-0.15625},{"ticks":261770,"time":108.17940133333333,"value":-0.125},{"ticks":261780,"time":108.18356800000001,"value":-0.09375},{"ticks":261790,"time":108.18773466666669,"value":-0.0625},{"ticks":261800,"time":108.19190133333333,"value":-0.046875},{"ticks":261810,"time":108.19606800000001,"value":-0.015625},{"ticks":261840,"time":108.20856800000001,"value":0},{"ticks":264520,"time":109.32523466666669,"value":-1},{"ticks":264530,"time":109.32940133333334,"value":-0.953125},{"ticks":264540,"time":109.33356800000001,"value":-0.90625},{"ticks":264550,"time":109.33773466666668,"value":-0.84375},{"ticks":264560,"time":109.34190133333334,"value":-0.75},{"ticks":264570,"time":109.346068,"value":-0.6875},{"ticks":264580,"time":109.35023466666668,"value":-0.640625},{"ticks":264590,"time":109.35440133333333,"value":-0.515625},{"ticks":264600,"time":109.358568,"value":-0.203125},{"ticks":264610,"time":109.36273466666668,"value":-0.15625},{"ticks":264620,"time":109.36690133333333,"value":-0.109375},{"ticks":264630,"time":109.37106800000001,"value":-0.03125},{"ticks":264640,"time":109.37523466666669,"value":-0.015625},{"ticks":264740,"time":109.41690133333333,"value":0},{"ticks":265000,"time":109.52523466666668,"value":0},{"ticks":265480,"time":109.72523466666668,"value":-1},{"ticks":265490,"time":109.72940133333333,"value":-0.90625},{"ticks":265500,"time":109.733568,"value":-0.875},{"ticks":265510,"time":109.73773466666668,"value":-0.84375},{"ticks":265520,"time":109.74190133333333,"value":-0.78125},{"ticks":265530,"time":109.74606800000001,"value":-0.734375},{"ticks":265540,"time":109.75023466666669,"value":-0.5625},{"ticks":265550,"time":109.75440133333333,"value":-0.328125},{"ticks":265560,"time":109.75856800000001,"value":-0.15625},{"ticks":265570,"time":109.76273466666669,"value":-0.09375},{"ticks":265580,"time":109.76690133333334,"value":0},{"ticks":266680,"time":110.22523466666668,"value":0},{"ticks":266695,"time":110.23148466666669,"value":-0.03125},{"ticks":266710,"time":110.23773466666668,"value":-0.046875},{"ticks":266725,"time":110.24398466666668,"value":-0.09375},{"ticks":266740,"time":110.25023466666669,"value":-0.125},{"ticks":266755,"time":110.25648466666668,"value":-0.1875},{"ticks":266770,"time":110.26273466666669,"value":-0.28125},{"ticks":266785,"time":110.26898466666668,"value":-0.5625},{"ticks":266800,"time":110.27523466666668,"value":-0.640625},{"ticks":266815,"time":110.28148466666669,"value":-0.703125},{"ticks":266830,"time":110.28773466666668,"value":-0.765625},{"ticks":266845,"time":110.29398466666669,"value":-0.90625},{"ticks":266860,"time":110.30023466666668,"value":-0.921875},{"ticks":266920,"time":110.32523466666669,"value":0},{"ticks":267640,"time":110.62523466666669,"value":0},{"ticks":267650,"time":110.62940133333333,"value":-0.28125},{"ticks":267660,"time":110.63356800000001,"value":-0.328125},{"ticks":267670,"time":110.63773466666669,"value":-0.4375},{"ticks":267680,"time":110.64190133333334,"value":-0.46875},{"ticks":267690,"time":110.64606800000001,"value":-0.515625},{"ticks":267700,"time":110.65023466666668,"value":-0.546875},{"ticks":267710,"time":110.65440133333334,"value":-0.578125},{"ticks":267720,"time":110.658568,"value":-0.640625},{"ticks":267730,"time":110.66273466666668,"value":-0.6875},{"ticks":267740,"time":110.66690133333333,"value":-0.71875},{"ticks":267750,"time":110.671068,"value":-0.734375},{"ticks":267760,"time":110.67523466666668,"value":-0.78125},{"ticks":267770,"time":110.67940133333333,"value":-0.828125},{"ticks":267780,"time":110.68356800000001,"value":-0.875},{"ticks":267790,"time":110.68773466666669,"value":-0.90625},{"ticks":267800,"time":110.69190133333333,"value":-1},{"ticks":267880,"time":110.72523466666668,"value":0},{"ticks":269320,"time":111.32523466666669,"value":-1},{"ticks":269330,"time":111.32940133333334,"value":-0.78125},{"ticks":269340,"time":111.33356800000001,"value":-0.734375},{"ticks":269350,"time":111.33773466666668,"value":-0.671875},{"ticks":269360,"time":111.34190133333334,"value":-0.625},{"ticks":269370,"time":111.346068,"value":-0.578125},{"ticks":269380,"time":111.35023466666668,"value":-0.53125},{"ticks":269390,"time":111.35440133333333,"value":-0.421875},{"ticks":269400,"time":111.358568,"value":-0.359375},{"ticks":269410,"time":111.36273466666668,"value":-0.3125},{"ticks":269420,"time":111.36690133333333,"value":-0.28125},{"ticks":269430,"time":111.37106800000001,"value":-0.21875},{"ticks":269440,"time":111.37523466666669,"value":-0.15625},{"ticks":269450,"time":111.37940133333333,"value":-0.125},{"ticks":269460,"time":111.38356800000001,"value":-0.09375},{"ticks":269470,"time":111.38773466666669,"value":-0.0625},{"ticks":269480,"time":111.39190133333334,"value":-0.046875},{"ticks":269490,"time":111.39606800000001,"value":-0.015625},{"ticks":269520,"time":111.408568,"value":0},{"ticks":271720,"time":112.32523466666669,"value":-1},{"ticks":271795,"time":112.35648466666669,"value":-0.984375},{"ticks":271810,"time":112.36273466666668,"value":-0.96875},{"ticks":271825,"time":112.36898466666668,"value":-0.921875},{"ticks":271840,"time":112.37523466666669,"value":-0.90625},{"ticks":271855,"time":112.38148466666668,"value":-0.875},{"ticks":271870,"time":112.38773466666669,"value":-0.859375},{"ticks":271885,"time":112.39398466666668,"value":-0.8125},{"ticks":271900,"time":112.40023466666668,"value":-0.78125},{"ticks":271915,"time":112.40648466666669,"value":-0.75},{"ticks":271930,"time":112.41273466666668,"value":-0.71875},{"ticks":271945,"time":112.41898466666669,"value":-0.6875},{"ticks":271960,"time":112.42523466666668,"value":-0.65625},{"ticks":271975,"time":112.43148466666668,"value":-0.640625},{"ticks":271990,"time":112.43773466666669,"value":-0.609375},{"ticks":272005,"time":112.44398466666668,"value":-0.578125},{"ticks":272020,"time":112.45023466666669,"value":-0.53125},{"ticks":272035,"time":112.45648466666668,"value":-0.46875},{"ticks":272050,"time":112.46273466666668,"value":-0.390625},{"ticks":272065,"time":112.46898466666669,"value":-0.34375},{"ticks":272080,"time":112.47523466666668,"value":-0.265625},{"ticks":272095,"time":112.48148466666669,"value":-0.171875},{"ticks":272110,"time":112.48773466666668,"value":-0.09375},{"ticks":272125,"time":112.49398466666668,"value":-0.046875},{"ticks":272140,"time":112.50023466666669,"value":-0.015625},{"ticks":272155,"time":112.50648466666668,"value":0.015625},{"ticks":272170,"time":112.51273466666669,"value":0.046875},{"ticks":272185,"time":112.51898466666668,"value":0.078125},{"ticks":272200,"time":112.52523466666668,"value":0.125},{"ticks":272215,"time":112.53148466666669,"value":0.15625},{"ticks":272230,"time":112.53773466666668,"value":0.203125},{"ticks":272245,"time":112.54398466666669,"value":0.21875},{"ticks":272260,"time":112.55023466666668,"value":0.265625},{"ticks":272275,"time":112.55648466666668,"value":0.28125},{"ticks":272290,"time":112.56273466666669,"value":0.3125},{"ticks":272305,"time":112.56898466666668,"value":0.359375},{"ticks":272320,"time":112.57523466666669,"value":0.390625},{"ticks":272335,"time":112.58148466666668,"value":0.4375},{"ticks":272350,"time":112.58773466666668,"value":0.515625},{"ticks":272365,"time":112.59398466666669,"value":0.546875},{"ticks":272380,"time":112.60023466666668,"value":0.59375},{"ticks":272395,"time":112.60648466666669,"value":0.640625},{"ticks":272410,"time":112.61273466666668,"value":0.671875},{"ticks":272425,"time":112.61898466666668,"value":0.703125},{"ticks":272440,"time":112.62523466666669,"value":0.765625},{"ticks":272455,"time":112.63148466666668,"value":0.78125},{"ticks":272470,"time":112.63773466666669,"value":0.796875},{"ticks":272485,"time":112.64398466666668,"value":0.828125},{"ticks":272500,"time":112.65023466666668,"value":0.84375},{"ticks":272515,"time":112.65648466666669,"value":0.859375},{"ticks":272530,"time":112.66273466666668,"value":0.875},{"ticks":272545,"time":112.66898466666669,"value":0.890625},{"ticks":272560,"time":112.67523466666668,"value":0.921875},{"ticks":272575,"time":112.68148466666668,"value":0.9375},{"ticks":272590,"time":112.68773466666669,"value":0.953125},{"ticks":272605,"time":112.69398466666668,"value":0.96875},{"ticks":272620,"time":112.70023466666669,"value":0.984375},{"ticks":272680,"time":112.72523466666668,"value":0},{"ticks":273160,"time":112.92523466666668,"value":-1},{"ticks":273170,"time":112.92940133333333,"value":-0.90625},{"ticks":273180,"time":112.93356800000001,"value":-0.875},{"ticks":273190,"time":112.93773466666669,"value":-0.84375},{"ticks":273200,"time":112.94190133333333,"value":-0.78125},{"ticks":273210,"time":112.94606800000001,"value":-0.734375},{"ticks":273220,"time":112.95023466666669,"value":-0.5625},{"ticks":273230,"time":112.95440133333334,"value":-0.328125},{"ticks":273240,"time":112.95856800000001,"value":-0.15625},{"ticks":273250,"time":112.96273466666668,"value":-0.09375},{"ticks":273260,"time":112.96690133333334,"value":0},{"ticks":274360,"time":113.42523466666668,"value":0},{"ticks":274375,"time":113.43148466666668,"value":-0.03125},{"ticks":274390,"time":113.43773466666669,"value":-0.046875},{"ticks":274405,"time":113.44398466666668,"value":-0.09375},{"ticks":274420,"time":113.45023466666669,"value":-0.125},{"ticks":274435,"time":113.45648466666668,"value":-0.1875},{"ticks":274450,"time":113.46273466666668,"value":-0.28125},{"ticks":274465,"time":113.46898466666669,"value":-0.5625},{"ticks":274480,"time":113.47523466666668,"value":-0.640625},{"ticks":274495,"time":113.48148466666669,"value":-0.703125},{"ticks":274510,"time":113.48773466666668,"value":-0.765625},{"ticks":274525,"time":113.49398466666668,"value":-0.90625},{"ticks":274540,"time":113.50023466666669,"value":-0.921875},{"ticks":274600,"time":113.52523466666668,"value":0},{"ticks":275320,"time":113.82523466666669,"value":0},{"ticks":275330,"time":113.82940133333334,"value":-0.28125},{"ticks":275340,"time":113.83356800000001,"value":-0.328125},{"ticks":275350,"time":113.83773466666668,"value":-0.4375},{"ticks":275360,"time":113.84190133333334,"value":-0.46875},{"ticks":275370,"time":113.846068,"value":-0.515625},{"ticks":275380,"time":113.85023466666668,"value":-0.546875},{"ticks":275390,"time":113.85440133333333,"value":-0.578125},{"ticks":275400,"time":113.858568,"value":-0.640625},{"ticks":275410,"time":113.86273466666668,"value":-0.6875},{"ticks":275420,"time":113.86690133333333,"value":-0.71875},{"ticks":275430,"time":113.87106800000001,"value":-0.734375},{"ticks":275440,"time":113.87523466666669,"value":-0.78125},{"ticks":275450,"time":113.87940133333333,"value":-0.828125},{"ticks":275460,"time":113.88356800000001,"value":-0.875},{"ticks":275470,"time":113.88773466666669,"value":-0.90625},{"ticks":275480,"time":113.89190133333334,"value":-1},{"ticks":275560,"time":113.92523466666668,"value":0},{"ticks":277000,"time":114.52523466666668,"value":-1},{"ticks":277010,"time":114.52940133333334,"value":-0.78125},{"ticks":277020,"time":114.533568,"value":-0.734375},{"ticks":277030,"time":114.53773466666668,"value":-0.671875},{"ticks":277040,"time":114.54190133333333,"value":-0.625},{"ticks":277050,"time":114.546068,"value":-0.578125},{"ticks":277060,"time":114.55023466666668,"value":-0.53125},{"ticks":277070,"time":114.55440133333333,"value":-0.421875},{"ticks":277080,"time":114.55856800000001,"value":-0.359375},{"ticks":277090,"time":114.56273466666669,"value":-0.3125},{"ticks":277100,"time":114.56690133333333,"value":-0.28125},{"ticks":277110,"time":114.57106800000001,"value":-0.21875},{"ticks":277120,"time":114.57523466666669,"value":-0.15625},{"ticks":277130,"time":114.57940133333334,"value":-0.125},{"ticks":277140,"time":114.58356800000001,"value":-0.09375},{"ticks":277150,"time":114.58773466666668,"value":-0.0625},{"ticks":277160,"time":114.59190133333334,"value":-0.046875},{"ticks":277170,"time":114.596068,"value":-0.015625},{"ticks":277200,"time":114.608568,"value":0},{"ticks":280360,"time":115.92523466666668,"value":0},{"ticks":280840,"time":116.12523466666669,"value":-1},{"ticks":280850,"time":116.12940133333333,"value":-0.90625},{"ticks":280860,"time":116.13356800000001,"value":-0.875},{"ticks":280870,"time":116.13773466666669,"value":-0.84375},{"ticks":280880,"time":116.14190133333334,"value":-0.78125},{"ticks":280890,"time":116.14606800000001,"value":-0.734375},{"ticks":280900,"time":116.15023466666668,"value":-0.5625},{"ticks":280910,"time":116.15440133333334,"value":-0.328125},{"ticks":280920,"time":116.158568,"value":-0.15625},{"ticks":280930,"time":116.16273466666668,"value":-0.09375},{"ticks":280940,"time":116.16690133333333,"value":0},{"ticks":283000,"time":117.02523466666668,"value":0},{"ticks":283010,"time":117.02940133333334,"value":-0.28125},{"ticks":283020,"time":117.033568,"value":-0.328125},{"ticks":283030,"time":117.03773466666668,"value":-0.4375},{"ticks":283040,"time":117.04190133333333,"value":-0.46875},{"ticks":283050,"time":117.046068,"value":-0.515625},{"ticks":283060,"time":117.05023466666668,"value":-0.546875},{"ticks":283070,"time":117.05440133333333,"value":-0.578125},{"ticks":283080,"time":117.05856800000001,"value":-0.640625},{"ticks":283090,"time":117.06273466666669,"value":-0.6875},{"ticks":283100,"time":117.06690133333333,"value":-0.71875},{"ticks":283110,"time":117.07106800000001,"value":-0.734375},{"ticks":283120,"time":117.07523466666669,"value":-0.78125},{"ticks":283130,"time":117.07940133333334,"value":-0.828125},{"ticks":283140,"time":117.08356800000001,"value":-0.875},{"ticks":283150,"time":117.08773466666668,"value":-0.90625},{"ticks":283160,"time":117.09190133333334,"value":-1},{"ticks":283240,"time":117.12523466666669,"value":0},{"ticks":284680,"time":117.72523466666668,"value":-1},{"ticks":284690,"time":117.72940133333333,"value":-0.78125},{"ticks":284700,"time":117.733568,"value":-0.734375},{"ticks":284710,"time":117.73773466666668,"value":-0.671875},{"ticks":284720,"time":117.74190133333333,"value":-0.625},{"ticks":284730,"time":117.74606800000001,"value":-0.578125},{"ticks":284740,"time":117.75023466666669,"value":-0.53125},{"ticks":284750,"time":117.75440133333333,"value":-0.421875},{"ticks":284760,"time":117.75856800000001,"value":-0.359375},{"ticks":284770,"time":117.76273466666669,"value":-0.3125},{"ticks":284780,"time":117.76690133333334,"value":-0.28125},{"ticks":284790,"time":117.77106800000001,"value":-0.21875},{"ticks":284800,"time":117.77523466666668,"value":-0.15625},{"ticks":284810,"time":117.77940133333334,"value":-0.125},{"ticks":284820,"time":117.783568,"value":-0.09375},{"ticks":284830,"time":117.78773466666668,"value":-0.0625},{"ticks":284840,"time":117.79190133333333,"value":-0.046875},{"ticks":284850,"time":117.796068,"value":-0.015625},{"ticks":284880,"time":117.80856800000001,"value":0},{"ticks":349440,"time":144.708568,"value":0},{"ticks":349920,"time":144.908568,"value":-1},{"ticks":349930,"time":144.9127346666667,"value":-0.90625},{"ticks":349940,"time":144.91690133333333,"value":-0.875},{"ticks":349950,"time":144.92106800000002,"value":-0.84375},{"ticks":349960,"time":144.92523466666668,"value":-0.78125},{"ticks":349970,"time":144.92940133333335,"value":-0.734375},{"ticks":349980,"time":144.933568,"value":-0.5625},{"ticks":349990,"time":144.93773466666667,"value":-0.328125},{"ticks":350000,"time":144.94190133333333,"value":-0.15625},{"ticks":350010,"time":144.946068,"value":-0.09375},{"ticks":350020,"time":144.9502346666667,"value":0},{"ticks":352080,"time":145.808568,"value":0},{"ticks":352090,"time":145.81273466666667,"value":-0.28125},{"ticks":352100,"time":145.81690133333333,"value":-0.328125},{"ticks":352110,"time":145.821068,"value":-0.4375},{"ticks":352120,"time":145.8252346666667,"value":-0.46875},{"ticks":352130,"time":145.82940133333332,"value":-0.515625},{"ticks":352140,"time":145.833568,"value":-0.546875},{"ticks":352150,"time":145.83773466666668,"value":-0.578125},{"ticks":352160,"time":145.84190133333334,"value":-0.640625},{"ticks":352170,"time":145.846068,"value":-0.6875},{"ticks":352180,"time":145.8502346666667,"value":-0.71875},{"ticks":352190,"time":145.85440133333333,"value":-0.734375},{"ticks":352200,"time":145.85856800000002,"value":-0.78125},{"ticks":352210,"time":145.86273466666668,"value":-0.828125},{"ticks":352220,"time":145.86690133333335,"value":-0.875},{"ticks":352230,"time":145.871068,"value":-0.90625},{"ticks":352240,"time":145.87523466666667,"value":-1},{"ticks":352320,"time":145.908568,"value":0},{"ticks":353760,"time":146.508568,"value":-1},{"ticks":353770,"time":146.5127346666667,"value":-0.78125},{"ticks":353780,"time":146.51690133333332,"value":-0.734375},{"ticks":353790,"time":146.521068,"value":-0.671875},{"ticks":353800,"time":146.52523466666668,"value":-0.625},{"ticks":353810,"time":146.52940133333334,"value":-0.578125},{"ticks":353820,"time":146.533568,"value":-0.53125},{"ticks":353830,"time":146.5377346666667,"value":-0.421875},{"ticks":353840,"time":146.54190133333333,"value":-0.359375},{"ticks":353850,"time":146.54606800000002,"value":-0.3125},{"ticks":353860,"time":146.55023466666668,"value":-0.28125},{"ticks":353870,"time":146.55440133333335,"value":-0.21875},{"ticks":353880,"time":146.558568,"value":-0.15625},{"ticks":353890,"time":146.56273466666667,"value":-0.125},{"ticks":353900,"time":146.56690133333333,"value":-0.09375},{"ticks":353910,"time":146.571068,"value":-0.0625},{"ticks":353920,"time":146.5752346666667,"value":-0.046875},{"ticks":353930,"time":146.57940133333332,"value":-0.015625},{"ticks":353960,"time":146.59190133333334,"value":0},{"ticks":356640,"time":147.708568,"value":-1},{"ticks":356650,"time":147.71273466666668,"value":-0.953125},{"ticks":356660,"time":147.71690133333334,"value":-0.90625},{"ticks":356670,"time":147.721068,"value":-0.84375},{"ticks":356680,"time":147.7252346666667,"value":-0.75},{"ticks":356690,"time":147.72940133333333,"value":-0.6875},{"ticks":356700,"time":147.73356800000002,"value":-0.640625},{"ticks":356710,"time":147.73773466666668,"value":-0.515625},{"ticks":356720,"time":147.74190133333335,"value":-0.203125},{"ticks":356730,"time":147.746068,"value":-0.15625},{"ticks":356740,"time":147.75023466666667,"value":-0.109375},{"ticks":356750,"time":147.75440133333333,"value":-0.03125},{"ticks":356760,"time":147.758568,"value":-0.015625},{"ticks":356860,"time":147.80023466666668,"value":0},{"ticks":357120,"time":147.908568,"value":0},{"ticks":357600,"time":148.10856800000002,"value":-1},{"ticks":357610,"time":148.11273466666668,"value":-0.90625},{"ticks":357620,"time":148.11690133333335,"value":-0.875},{"ticks":357630,"time":148.121068,"value":-0.84375},{"ticks":357640,"time":148.12523466666667,"value":-0.78125},{"ticks":357650,"time":148.12940133333333,"value":-0.734375},{"ticks":357660,"time":148.133568,"value":-0.5625},{"ticks":357670,"time":148.1377346666667,"value":-0.328125},{"ticks":357680,"time":148.14190133333332,"value":-0.15625},{"ticks":357690,"time":148.146068,"value":-0.09375},{"ticks":357700,"time":148.15023466666668,"value":0},{"ticks":359760,"time":149.008568,"value":0},{"ticks":359770,"time":149.0127346666667,"value":-0.28125},{"ticks":359780,"time":149.01690133333332,"value":-0.328125},{"ticks":359790,"time":149.021068,"value":-0.4375},{"ticks":359800,"time":149.02523466666668,"value":-0.46875},{"ticks":359810,"time":149.02940133333334,"value":-0.515625},{"ticks":359820,"time":149.033568,"value":-0.546875},{"ticks":359830,"time":149.0377346666667,"value":-0.578125},{"ticks":359840,"time":149.04190133333333,"value":-0.640625},{"ticks":359850,"time":149.04606800000002,"value":-0.6875},{"ticks":359860,"time":149.05023466666668,"value":-0.71875},{"ticks":359870,"time":149.05440133333335,"value":-0.734375},{"ticks":359880,"time":149.058568,"value":-0.78125},{"ticks":359890,"time":149.06273466666667,"value":-0.828125},{"ticks":359900,"time":149.06690133333333,"value":-0.875},{"ticks":359910,"time":149.071068,"value":-0.90625},{"ticks":359920,"time":149.0752346666667,"value":-1},{"ticks":360000,"time":149.10856800000002,"value":0},{"ticks":361440,"time":149.708568,"value":-1},{"ticks":361450,"time":149.71273466666668,"value":-0.78125},{"ticks":361460,"time":149.71690133333334,"value":-0.734375},{"ticks":361470,"time":149.721068,"value":-0.671875},{"ticks":361480,"time":149.7252346666667,"value":-0.625},{"ticks":361490,"time":149.72940133333333,"value":-0.578125},{"ticks":361500,"time":149.73356800000002,"value":-0.53125},{"ticks":361510,"time":149.73773466666668,"value":-0.421875},{"ticks":361520,"time":149.74190133333335,"value":-0.359375},{"ticks":361530,"time":149.746068,"value":-0.3125},{"ticks":361540,"time":149.75023466666667,"value":-0.28125},{"ticks":361550,"time":149.75440133333333,"value":-0.21875},{"ticks":361560,"time":149.758568,"value":-0.15625},{"ticks":361570,"time":149.7627346666667,"value":-0.125},{"ticks":361580,"time":149.76690133333332,"value":-0.09375},{"ticks":361590,"time":149.771068,"value":-0.0625},{"ticks":361600,"time":149.77523466666668,"value":-0.046875},{"ticks":361610,"time":149.77940133333334,"value":-0.015625},{"ticks":361640,"time":149.79190133333333,"value":0},{"ticks":364320,"time":150.908568,"value":-1},{"ticks":364330,"time":150.9127346666667,"value":-0.953125},{"ticks":364340,"time":150.91690133333333,"value":-0.90625},{"ticks":364350,"time":150.92106800000002,"value":-0.84375},{"ticks":364360,"time":150.92523466666668,"value":-0.75},{"ticks":364370,"time":150.92940133333335,"value":-0.6875},{"ticks":364380,"time":150.933568,"value":-0.640625},{"ticks":364390,"time":150.93773466666667,"value":-0.515625},{"ticks":364400,"time":150.94190133333333,"value":-0.203125},{"ticks":364410,"time":150.946068,"value":-0.15625},{"ticks":364420,"time":150.9502346666667,"value":-0.109375},{"ticks":364430,"time":150.95440133333332,"value":-0.03125},{"ticks":364440,"time":150.958568,"value":-0.015625},{"ticks":364540,"time":151.00023466666667,"value":0},{"ticks":364800,"time":151.10856800000002,"value":0},{"ticks":365280,"time":151.308568,"value":-1},{"ticks":365290,"time":151.31273466666667,"value":-0.90625},{"ticks":365300,"time":151.31690133333333,"value":-0.875},{"ticks":365310,"time":151.321068,"value":-0.84375},{"ticks":365320,"time":151.3252346666667,"value":-0.78125},{"ticks":365330,"time":151.32940133333332,"value":-0.734375},{"ticks":365340,"time":151.333568,"value":-0.5625},{"ticks":365350,"time":151.33773466666668,"value":-0.328125},{"ticks":365360,"time":151.34190133333334,"value":-0.15625},{"ticks":365370,"time":151.346068,"value":-0.09375},{"ticks":365380,"time":151.3502346666667,"value":0},{"ticks":367440,"time":152.208568,"value":0},{"ticks":367450,"time":152.21273466666668,"value":-0.28125},{"ticks":367460,"time":152.21690133333334,"value":-0.328125},{"ticks":367470,"time":152.221068,"value":-0.4375},{"ticks":367480,"time":152.2252346666667,"value":-0.46875},{"ticks":367490,"time":152.22940133333333,"value":-0.515625},{"ticks":367500,"time":152.23356800000002,"value":-0.546875},{"ticks":367510,"time":152.23773466666668,"value":-0.578125},{"ticks":367520,"time":152.24190133333335,"value":-0.640625},{"ticks":367530,"time":152.246068,"value":-0.6875},{"ticks":367540,"time":152.25023466666667,"value":-0.71875},{"ticks":367550,"time":152.25440133333333,"value":-0.734375},{"ticks":367560,"time":152.258568,"value":-0.78125},{"ticks":367570,"time":152.2627346666667,"value":-0.828125},{"ticks":367580,"time":152.26690133333332,"value":-0.875},{"ticks":367590,"time":152.271068,"value":-0.90625},{"ticks":367600,"time":152.27523466666668,"value":-1},{"ticks":367680,"time":152.308568,"value":0},{"ticks":369120,"time":152.908568,"value":-1},{"ticks":369130,"time":152.9127346666667,"value":-0.78125},{"ticks":369140,"time":152.91690133333333,"value":-0.734375},{"ticks":369150,"time":152.92106800000002,"value":-0.671875},{"ticks":369160,"time":152.92523466666668,"value":-0.625},{"ticks":369170,"time":152.92940133333335,"value":-0.578125},{"ticks":369180,"time":152.933568,"value":-0.53125},{"ticks":369190,"time":152.93773466666667,"value":-0.421875},{"ticks":369200,"time":152.94190133333333,"value":-0.359375},{"ticks":369210,"time":152.946068,"value":-0.3125},{"ticks":369220,"time":152.9502346666667,"value":-0.28125},{"ticks":369230,"time":152.95440133333332,"value":-0.21875},{"ticks":369240,"time":152.958568,"value":-0.15625},{"ticks":369250,"time":152.96273466666668,"value":-0.125},{"ticks":369260,"time":152.96690133333334,"value":-0.09375},{"ticks":369270,"time":152.971068,"value":-0.0625},{"ticks":369280,"time":152.9752346666667,"value":-0.046875},{"ticks":369290,"time":152.97940133333333,"value":-0.015625},{"ticks":369320,"time":152.99190133333335,"value":0},{"ticks":372000,"time":154.10856800000002,"value":-1},{"ticks":372010,"time":154.11273466666668,"value":-0.953125},{"ticks":372020,"time":154.11690133333335,"value":-0.90625},{"ticks":372030,"time":154.121068,"value":-0.84375},{"ticks":372040,"time":154.12523466666667,"value":-0.75},{"ticks":372050,"time":154.12940133333333,"value":-0.6875},{"ticks":372060,"time":154.133568,"value":-0.640625},{"ticks":372070,"time":154.1377346666667,"value":-0.515625},{"ticks":372080,"time":154.14190133333332,"value":-0.203125},{"ticks":372090,"time":154.146068,"value":-0.15625},{"ticks":372100,"time":154.15023466666668,"value":-0.109375},{"ticks":372110,"time":154.15440133333334,"value":-0.03125},{"ticks":372120,"time":154.158568,"value":-0.015625},{"ticks":372220,"time":154.2002346666667,"value":0},{"ticks":372480,"time":154.308568,"value":0},{"ticks":372960,"time":154.508568,"value":-1},{"ticks":372970,"time":154.5127346666667,"value":-0.90625},{"ticks":372980,"time":154.51690133333332,"value":-0.875},{"ticks":372990,"time":154.521068,"value":-0.84375},{"ticks":373000,"time":154.52523466666668,"value":-0.78125},{"ticks":373010,"time":154.52940133333334,"value":-0.734375},{"ticks":373020,"time":154.533568,"value":-0.5625},{"ticks":373030,"time":154.5377346666667,"value":-0.328125},{"ticks":373040,"time":154.54190133333333,"value":-0.15625},{"ticks":373050,"time":154.54606800000002,"value":-0.09375},{"ticks":373060,"time":154.55023466666668,"value":0},{"ticks":375120,"time":155.408568,"value":0},{"ticks":375130,"time":155.4127346666667,"value":-0.28125},{"ticks":375140,"time":155.41690133333333,"value":-0.328125},{"ticks":375150,"time":155.42106800000002,"value":-0.4375},{"ticks":375160,"time":155.42523466666668,"value":-0.46875},{"ticks":375170,"time":155.42940133333335,"value":-0.515625},{"ticks":375180,"time":155.433568,"value":-0.546875},{"ticks":375190,"time":155.43773466666667,"value":-0.578125},{"ticks":375200,"time":155.44190133333333,"value":-0.640625},{"ticks":375210,"time":155.446068,"value":-0.6875},{"ticks":375220,"time":155.4502346666667,"value":-0.71875},{"ticks":375230,"time":155.45440133333332,"value":-0.734375},{"ticks":375240,"time":155.458568,"value":-0.78125},{"ticks":375250,"time":155.46273466666668,"value":-0.828125},{"ticks":375260,"time":155.46690133333334,"value":-0.875},{"ticks":375270,"time":155.471068,"value":-0.90625},{"ticks":375280,"time":155.4752346666667,"value":-1},{"ticks":375360,"time":155.508568,"value":0},{"ticks":376320,"time":155.908568,"value":0},{"ticks":376800,"time":156.10856800000002,"value":-1},{"ticks":376810,"time":156.11273466666668,"value":-0.90625},{"ticks":376820,"time":156.11690133333335,"value":-0.875},{"ticks":376830,"time":156.121068,"value":-0.84375},{"ticks":376840,"time":156.12523466666667,"value":-0.78125},{"ticks":376850,"time":156.12940133333333,"value":-0.734375},{"ticks":376860,"time":156.133568,"value":-0.5625},{"ticks":376870,"time":156.1377346666667,"value":-0.328125},{"ticks":376880,"time":156.14190133333332,"value":-0.15625},{"ticks":376890,"time":156.146068,"value":-0.09375},{"ticks":376900,"time":156.15023466666668,"value":0},{"ticks":379200,"time":157.10856800000002,"value":0},{"ticks":379440,"time":157.208568,"value":0},{"ticks":379455,"time":157.214818,"value":0.09375},{"ticks":379470,"time":157.221068,"value":0.296875},{"ticks":379485,"time":157.227318,"value":0.34375},{"ticks":379500,"time":157.23356800000002,"value":0.453125},{"ticks":379515,"time":157.239818,"value":0.53125},{"ticks":379530,"time":157.246068,"value":0.59375},{"ticks":379545,"time":157.252318,"value":0.609375},{"ticks":379560,"time":157.258568,"value":0.625},{"ticks":379575,"time":157.26481800000002,"value":0.65625},{"ticks":379590,"time":157.271068,"value":0.703125},{"ticks":379605,"time":157.277318,"value":0.71875},{"ticks":379620,"time":157.283568,"value":0.765625},{"ticks":379635,"time":157.289818,"value":0.828125},{"ticks":379650,"time":157.29606800000002,"value":0.90625},{"ticks":379665,"time":157.302318,"value":0.9375},{"ticks":379679,"time":157.30815133333334,"value":0},{"ticks":380160,"time":157.50856800000003,"value":0},{"ticks":380640,"time":157.708568,"value":-1},{"ticks":380650,"time":157.71273466666668,"value":-0.90625},{"ticks":380660,"time":157.71690133333334,"value":-0.875},{"ticks":380670,"time":157.721068,"value":-0.84375},{"ticks":380680,"time":157.7252346666667,"value":-0.78125},{"ticks":380690,"time":157.72940133333333,"value":-0.734375},{"ticks":380700,"time":157.73356800000002,"value":-0.5625},{"ticks":380710,"time":157.73773466666668,"value":-0.328125},{"ticks":380720,"time":157.74190133333335,"value":-0.15625},{"ticks":380730,"time":157.746068,"value":-0.09375},{"ticks":380740,"time":157.7502346666667,"value":0},{"ticks":382800,"time":158.60856800000002,"value":0},{"ticks":382810,"time":158.61273466666668,"value":-0.28125},{"ticks":382820,"time":158.61690133333335,"value":-0.328125},{"ticks":382830,"time":158.621068,"value":-0.4375},{"ticks":382840,"time":158.6252346666667,"value":-0.46875},{"ticks":382850,"time":158.62940133333333,"value":-0.515625},{"ticks":382860,"time":158.63356800000003,"value":-0.546875},{"ticks":382870,"time":158.6377346666667,"value":-0.578125},{"ticks":382880,"time":158.64190133333335,"value":-0.640625},{"ticks":382890,"time":158.646068,"value":-0.6875},{"ticks":382900,"time":158.65023466666668,"value":-0.71875},{"ticks":382910,"time":158.65440133333334,"value":-0.734375},{"ticks":382920,"time":158.658568,"value":-0.78125},{"ticks":382930,"time":158.6627346666667,"value":-0.828125},{"ticks":382940,"time":158.66690133333333,"value":-0.875},{"ticks":382950,"time":158.67106800000002,"value":-0.90625},{"ticks":382960,"time":158.67523466666668,"value":-1},{"ticks":383040,"time":158.708568,"value":0},{"ticks":384480,"time":159.308568,"value":-1},{"ticks":384490,"time":159.3127346666667,"value":-0.78125},{"ticks":384500,"time":159.31690133333333,"value":-0.734375},{"ticks":384510,"time":159.32106800000003,"value":-0.671875},{"ticks":384520,"time":159.3252346666667,"value":-0.625},{"ticks":384530,"time":159.32940133333335,"value":-0.578125},{"ticks":384540,"time":159.333568,"value":-0.53125},{"ticks":384550,"time":159.33773466666668,"value":-0.421875},{"ticks":384560,"time":159.34190133333334,"value":-0.359375},{"ticks":384570,"time":159.346068,"value":-0.3125},{"ticks":384580,"time":159.3502346666667,"value":-0.28125},{"ticks":384590,"time":159.35440133333333,"value":-0.21875},{"ticks":384600,"time":159.35856800000002,"value":-0.15625},{"ticks":384610,"time":159.36273466666668,"value":-0.125},{"ticks":384620,"time":159.36690133333335,"value":-0.09375},{"ticks":384630,"time":159.371068,"value":-0.0625},{"ticks":384640,"time":159.3752346666667,"value":-0.046875},{"ticks":384650,"time":159.37940133333333,"value":-0.015625},{"ticks":384680,"time":159.39190133333335,"value":0},{"ticks":387360,"time":160.50856800000003,"value":-1},{"ticks":387370,"time":160.5127346666667,"value":-0.953125},{"ticks":387380,"time":160.51690133333335,"value":-0.90625},{"ticks":387390,"time":160.521068,"value":-0.84375},{"ticks":387400,"time":160.52523466666668,"value":-0.75},{"ticks":387410,"time":160.52940133333334,"value":-0.6875},{"ticks":387420,"time":160.533568,"value":-0.640625},{"ticks":387430,"time":160.5377346666667,"value":-0.515625},{"ticks":387440,"time":160.54190133333333,"value":-0.203125},{"ticks":387450,"time":160.54606800000002,"value":-0.15625},{"ticks":387460,"time":160.55023466666668,"value":-0.109375},{"ticks":387470,"time":160.55440133333335,"value":-0.03125},{"ticks":387480,"time":160.558568,"value":-0.015625},{"ticks":387580,"time":160.6002346666667,"value":0},{"ticks":387840,"time":160.708568,"value":0},{"ticks":388320,"time":160.908568,"value":-1},{"ticks":388330,"time":160.9127346666667,"value":-0.90625},{"ticks":388340,"time":160.91690133333333,"value":-0.875},{"ticks":388350,"time":160.92106800000002,"value":-0.84375},{"ticks":388360,"time":160.92523466666668,"value":-0.78125},{"ticks":388370,"time":160.92940133333335,"value":-0.734375},{"ticks":388380,"time":160.933568,"value":-0.5625},{"ticks":388390,"time":160.9377346666667,"value":-0.328125},{"ticks":388400,"time":160.94190133333333,"value":-0.15625},{"ticks":388410,"time":160.94606800000003,"value":-0.09375},{"ticks":388420,"time":160.9502346666667,"value":0},{"ticks":390480,"time":161.808568,"value":0},{"ticks":390490,"time":161.8127346666667,"value":-0.28125},{"ticks":390500,"time":161.81690133333333,"value":-0.328125},{"ticks":390510,"time":161.82106800000003,"value":-0.4375},{"ticks":390520,"time":161.8252346666667,"value":-0.46875},{"ticks":390530,"time":161.82940133333335,"value":-0.515625},{"ticks":390540,"time":161.833568,"value":-0.546875},{"ticks":390550,"time":161.83773466666668,"value":-0.578125},{"ticks":390560,"time":161.84190133333334,"value":-0.640625},{"ticks":390570,"time":161.846068,"value":-0.6875},{"ticks":390580,"time":161.8502346666667,"value":-0.71875},{"ticks":390590,"time":161.85440133333333,"value":-0.734375},{"ticks":390600,"time":161.85856800000002,"value":-0.78125},{"ticks":390610,"time":161.86273466666668,"value":-0.828125},{"ticks":390620,"time":161.86690133333335,"value":-0.875},{"ticks":390630,"time":161.871068,"value":-0.90625},{"ticks":390640,"time":161.8752346666667,"value":-1},{"ticks":390720,"time":161.908568,"value":0},{"ticks":392160,"time":162.50856800000003,"value":-1},{"ticks":392170,"time":162.5127346666667,"value":-0.78125},{"ticks":392180,"time":162.51690133333335,"value":-0.734375},{"ticks":392190,"time":162.521068,"value":-0.671875},{"ticks":392200,"time":162.52523466666668,"value":-0.625},{"ticks":392210,"time":162.52940133333334,"value":-0.578125},{"ticks":392220,"time":162.533568,"value":-0.53125},{"ticks":392230,"time":162.5377346666667,"value":-0.421875},{"ticks":392240,"time":162.54190133333333,"value":-0.359375},{"ticks":392250,"time":162.54606800000002,"value":-0.3125},{"ticks":392260,"time":162.55023466666668,"value":-0.28125},{"ticks":392270,"time":162.55440133333335,"value":-0.21875},{"ticks":392280,"time":162.558568,"value":-0.15625},{"ticks":392290,"time":162.5627346666667,"value":-0.125},{"ticks":392300,"time":162.56690133333333,"value":-0.09375},{"ticks":392310,"time":162.57106800000003,"value":-0.0625},{"ticks":392320,"time":162.5752346666667,"value":-0.046875},{"ticks":392330,"time":162.57940133333335,"value":-0.015625},{"ticks":392360,"time":162.59190133333334,"value":0},{"ticks":395040,"time":163.708568,"value":-1},{"ticks":395050,"time":163.71273466666668,"value":-0.953125},{"ticks":395060,"time":163.71690133333334,"value":-0.90625},{"ticks":395070,"time":163.721068,"value":-0.84375},{"ticks":395080,"time":163.7252346666667,"value":-0.75},{"ticks":395090,"time":163.72940133333333,"value":-0.6875},{"ticks":395100,"time":163.73356800000002,"value":-0.640625},{"ticks":395110,"time":163.73773466666668,"value":-0.515625},{"ticks":395120,"time":163.74190133333335,"value":-0.203125},{"ticks":395130,"time":163.746068,"value":-0.15625},{"ticks":395140,"time":163.7502346666667,"value":-0.109375},{"ticks":395150,"time":163.75440133333333,"value":-0.03125},{"ticks":395160,"time":163.75856800000003,"value":-0.015625},{"ticks":395260,"time":163.80023466666668,"value":0},{"ticks":395520,"time":163.908568,"value":0},{"ticks":396000,"time":164.10856800000002,"value":-1},{"ticks":396010,"time":164.11273466666668,"value":-0.90625},{"ticks":396020,"time":164.11690133333335,"value":-0.875},{"ticks":396030,"time":164.121068,"value":-0.84375},{"ticks":396040,"time":164.1252346666667,"value":-0.78125},{"ticks":396050,"time":164.12940133333333,"value":-0.734375},{"ticks":396060,"time":164.13356800000003,"value":-0.5625},{"ticks":396070,"time":164.1377346666667,"value":-0.328125},{"ticks":396080,"time":164.14190133333335,"value":-0.15625},{"ticks":396090,"time":164.146068,"value":-0.09375},{"ticks":396100,"time":164.15023466666668,"value":0},{"ticks":398160,"time":165.00856800000003,"value":0},{"ticks":398170,"time":165.0127346666667,"value":-0.28125},{"ticks":398180,"time":165.01690133333335,"value":-0.328125},{"ticks":398190,"time":165.021068,"value":-0.4375},{"ticks":398200,"time":165.02523466666668,"value":-0.46875},{"ticks":398210,"time":165.02940133333334,"value":-0.515625},{"ticks":398220,"time":165.033568,"value":-0.546875},{"ticks":398230,"time":165.0377346666667,"value":-0.578125},{"ticks":398240,"time":165.04190133333333,"value":-0.640625},{"ticks":398250,"time":165.04606800000002,"value":-0.6875},{"ticks":398260,"time":165.05023466666668,"value":-0.71875},{"ticks":398270,"time":165.05440133333335,"value":-0.734375},{"ticks":398280,"time":165.058568,"value":-0.78125},{"ticks":398290,"time":165.0627346666667,"value":-0.828125},{"ticks":398300,"time":165.06690133333333,"value":-0.875},{"ticks":398310,"time":165.07106800000003,"value":-0.90625},{"ticks":398320,"time":165.0752346666667,"value":-1},{"ticks":398400,"time":165.10856800000002,"value":0},{"ticks":399840,"time":165.708568,"value":-1},{"ticks":399850,"time":165.71273466666668,"value":-0.78125},{"ticks":399860,"time":165.71690133333334,"value":-0.734375},{"ticks":399870,"time":165.721068,"value":-0.671875},{"ticks":399880,"time":165.7252346666667,"value":-0.625},{"ticks":399890,"time":165.72940133333333,"value":-0.578125},{"ticks":399900,"time":165.73356800000002,"value":-0.53125},{"ticks":399910,"time":165.73773466666668,"value":-0.421875},{"ticks":399920,"time":165.74190133333335,"value":-0.359375},{"ticks":399930,"time":165.746068,"value":-0.3125},{"ticks":399940,"time":165.7502346666667,"value":-0.28125},{"ticks":399950,"time":165.75440133333333,"value":-0.21875},{"ticks":399960,"time":165.75856800000003,"value":-0.15625},{"ticks":399970,"time":165.7627346666667,"value":-0.125},{"ticks":399980,"time":165.76690133333335,"value":-0.09375},{"ticks":399990,"time":165.771068,"value":-0.0625},{"ticks":400000,"time":165.77523466666668,"value":-0.046875},{"ticks":400010,"time":165.77940133333334,"value":-0.015625},{"ticks":400040,"time":165.79190133333333,"value":0},{"ticks":402720,"time":166.908568,"value":-1},{"ticks":402730,"time":166.9127346666667,"value":-0.953125},{"ticks":402740,"time":166.91690133333333,"value":-0.90625},{"ticks":402750,"time":166.92106800000002,"value":-0.84375},{"ticks":402760,"time":166.92523466666668,"value":-0.75},{"ticks":402770,"time":166.92940133333335,"value":-0.6875},{"ticks":402780,"time":166.933568,"value":-0.640625},{"ticks":402790,"time":166.9377346666667,"value":-0.515625},{"ticks":402800,"time":166.94190133333333,"value":-0.203125},{"ticks":402810,"time":166.94606800000003,"value":-0.15625},{"ticks":402820,"time":166.9502346666667,"value":-0.109375},{"ticks":402830,"time":166.95440133333335,"value":-0.03125},{"ticks":402840,"time":166.958568,"value":-0.015625},{"ticks":402940,"time":167.0002346666667,"value":0},{"ticks":403200,"time":167.10856800000002,"value":0},{"ticks":403680,"time":167.308568,"value":-1},{"ticks":403690,"time":167.3127346666667,"value":-0.90625},{"ticks":403700,"time":167.31690133333333,"value":-0.875},{"ticks":403710,"time":167.32106800000003,"value":-0.84375},{"ticks":403720,"time":167.3252346666667,"value":-0.78125},{"ticks":403730,"time":167.32940133333335,"value":-0.734375},{"ticks":403740,"time":167.333568,"value":-0.5625},{"ticks":403750,"time":167.33773466666668,"value":-0.328125},{"ticks":403760,"time":167.34190133333334,"value":-0.15625},{"ticks":403770,"time":167.346068,"value":-0.09375},{"ticks":403780,"time":167.3502346666667,"value":0},{"ticks":405840,"time":168.208568,"value":0},{"ticks":405850,"time":168.21273466666668,"value":-0.28125},{"ticks":405860,"time":168.21690133333334,"value":-0.328125},{"ticks":405870,"time":168.221068,"value":-0.4375},{"ticks":405880,"time":168.2252346666667,"value":-0.46875},{"ticks":405890,"time":168.22940133333333,"value":-0.515625},{"ticks":405900,"time":168.23356800000002,"value":-0.546875},{"ticks":405910,"time":168.23773466666668,"value":-0.578125},{"ticks":405920,"time":168.24190133333335,"value":-0.640625},{"ticks":405930,"time":168.246068,"value":-0.6875},{"ticks":405940,"time":168.2502346666667,"value":-0.71875},{"ticks":405950,"time":168.25440133333333,"value":-0.734375},{"ticks":405960,"time":168.25856800000003,"value":-0.78125},{"ticks":405970,"time":168.2627346666667,"value":-0.828125},{"ticks":405980,"time":168.26690133333335,"value":-0.875},{"ticks":405990,"time":168.271068,"value":-0.90625},{"ticks":406000,"time":168.27523466666668,"value":-1},{"ticks":406080,"time":168.308568,"value":0},{"ticks":407040,"time":168.708568,"value":0},{"ticks":407520,"time":168.908568,"value":-1},{"ticks":407530,"time":168.9127346666667,"value":-0.90625},{"ticks":407540,"time":168.91690133333333,"value":-0.875},{"ticks":407550,"time":168.92106800000002,"value":-0.84375},{"ticks":407560,"time":168.92523466666668,"value":-0.78125},{"ticks":407570,"time":168.92940133333335,"value":-0.734375},{"ticks":407580,"time":168.933568,"value":-0.5625},{"ticks":407590,"time":168.9377346666667,"value":-0.328125},{"ticks":407600,"time":168.94190133333333,"value":-0.15625},{"ticks":407610,"time":168.94606800000003,"value":-0.09375},{"ticks":407620,"time":168.9502346666667,"value":0},{"ticks":409920,"time":169.908568,"value":0},{"ticks":410160,"time":170.00856800000003,"value":0},{"ticks":410175,"time":170.01481800000002,"value":0.09375},{"ticks":410190,"time":170.021068,"value":0.296875},{"ticks":410205,"time":170.027318,"value":0.34375},{"ticks":410220,"time":170.033568,"value":0.453125},{"ticks":410235,"time":170.03981800000003,"value":0.53125},{"ticks":410250,"time":170.04606800000002,"value":0.59375},{"ticks":410265,"time":170.052318,"value":0.609375},{"ticks":410280,"time":170.058568,"value":0.625},{"ticks":410295,"time":170.064818,"value":0.65625},{"ticks":410310,"time":170.07106800000003,"value":0.703125},{"ticks":410325,"time":170.07731800000002,"value":0.71875},{"ticks":410340,"time":170.083568,"value":0.765625},{"ticks":410355,"time":170.089818,"value":0.828125},{"ticks":410370,"time":170.096068,"value":0.90625},{"ticks":410385,"time":170.10231800000003,"value":0.9375},{"ticks":410399,"time":170.10815133333335,"value":0},{"ticks":410880,"time":170.308568,"value":0},{"ticks":411360,"time":170.50856800000003,"value":-1},{"ticks":411370,"time":170.5127346666667,"value":-0.90625},{"ticks":411380,"time":170.51690133333335,"value":-0.875},{"ticks":411390,"time":170.521068,"value":-0.84375},{"ticks":411400,"time":170.52523466666668,"value":-0.78125},{"ticks":411410,"time":170.52940133333334,"value":-0.734375},{"ticks":411420,"time":170.533568,"value":-0.5625},{"ticks":411430,"time":170.5377346666667,"value":-0.328125},{"ticks":411440,"time":170.54190133333333,"value":-0.15625},{"ticks":411450,"time":170.54606800000002,"value":-0.09375},{"ticks":411460,"time":170.55023466666668,"value":0},{"ticks":413520,"time":171.408568,"value":0},{"ticks":413530,"time":171.4127346666667,"value":-0.28125},{"ticks":413540,"time":171.41690133333333,"value":-0.328125},{"ticks":413550,"time":171.42106800000002,"value":-0.4375},{"ticks":413560,"time":171.42523466666668,"value":-0.46875},{"ticks":413570,"time":171.42940133333335,"value":-0.515625},{"ticks":413580,"time":171.433568,"value":-0.546875},{"ticks":413590,"time":171.4377346666667,"value":-0.578125},{"ticks":413600,"time":171.44190133333333,"value":-0.640625},{"ticks":413610,"time":171.44606800000003,"value":-0.6875},{"ticks":413620,"time":171.4502346666667,"value":-0.71875},{"ticks":413630,"time":171.45440133333335,"value":-0.734375},{"ticks":413640,"time":171.458568,"value":-0.78125},{"ticks":413650,"time":171.46273466666668,"value":-0.828125},{"ticks":413660,"time":171.46690133333334,"value":-0.875},{"ticks":413670,"time":171.471068,"value":-0.90625},{"ticks":413680,"time":171.4752346666667,"value":-1},{"ticks":413760,"time":171.50856800000003,"value":0},{"ticks":415200,"time":172.10856800000002,"value":-1},{"ticks":415210,"time":172.11273466666668,"value":-0.78125},{"ticks":415220,"time":172.11690133333335,"value":-0.734375},{"ticks":415230,"time":172.121068,"value":-0.671875},{"ticks":415240,"time":172.1252346666667,"value":-0.625},{"ticks":415250,"time":172.12940133333333,"value":-0.578125},{"ticks":415260,"time":172.13356800000003,"value":-0.53125},{"ticks":415270,"time":172.1377346666667,"value":-0.421875},{"ticks":415280,"time":172.14190133333335,"value":-0.359375},{"ticks":415290,"time":172.146068,"value":-0.3125},{"ticks":415300,"time":172.15023466666668,"value":-0.28125},{"ticks":415310,"time":172.15440133333334,"value":-0.21875},{"ticks":415320,"time":172.158568,"value":-0.15625},{"ticks":415330,"time":172.1627346666667,"value":-0.125},{"ticks":415340,"time":172.16690133333333,"value":-0.09375},{"ticks":415350,"time":172.17106800000002,"value":-0.0625},{"ticks":415360,"time":172.17523466666668,"value":-0.046875},{"ticks":415370,"time":172.17940133333335,"value":-0.015625},{"ticks":415400,"time":172.19190133333333,"value":0},{"ticks":418080,"time":173.308568,"value":-1},{"ticks":418090,"time":173.3127346666667,"value":-0.953125},{"ticks":418100,"time":173.31690133333333,"value":-0.90625},{"ticks":418110,"time":173.32106800000003,"value":-0.84375},{"ticks":418120,"time":173.3252346666667,"value":-0.75},{"ticks":418130,"time":173.32940133333335,"value":-0.6875},{"ticks":418140,"time":173.333568,"value":-0.640625},{"ticks":418150,"time":173.33773466666668,"value":-0.515625},{"ticks":418160,"time":173.34190133333334,"value":-0.203125},{"ticks":418170,"time":173.346068,"value":-0.15625},{"ticks":418180,"time":173.3502346666667,"value":-0.109375},{"ticks":418190,"time":173.35440133333333,"value":-0.03125},{"ticks":418200,"time":173.35856800000002,"value":-0.015625},{"ticks":418300,"time":173.40023466666668,"value":0},{"ticks":418560,"time":173.50856800000003,"value":0},{"ticks":419040,"time":173.708568,"value":-1},{"ticks":419050,"time":173.71273466666668,"value":-0.90625},{"ticks":419060,"time":173.71690133333334,"value":-0.875},{"ticks":419070,"time":173.721068,"value":-0.84375},{"ticks":419080,"time":173.7252346666667,"value":-0.78125},{"ticks":419090,"time":173.72940133333333,"value":-0.734375},{"ticks":419100,"time":173.73356800000002,"value":-0.5625},{"ticks":419110,"time":173.73773466666668,"value":-0.328125},{"ticks":419120,"time":173.74190133333335,"value":-0.15625},{"ticks":419130,"time":173.746068,"value":-0.09375},{"ticks":419140,"time":173.7502346666667,"value":0},{"ticks":421200,"time":174.60856800000002,"value":0},{"ticks":421210,"time":174.61273466666668,"value":-0.28125},{"ticks":421220,"time":174.61690133333335,"value":-0.328125},{"ticks":421230,"time":174.621068,"value":-0.4375},{"ticks":421240,"time":174.6252346666667,"value":-0.46875},{"ticks":421250,"time":174.62940133333333,"value":-0.515625},{"ticks":421260,"time":174.63356800000003,"value":-0.546875},{"ticks":421270,"time":174.6377346666667,"value":-0.578125},{"ticks":421280,"time":174.64190133333335,"value":-0.640625},{"ticks":421290,"time":174.646068,"value":-0.6875},{"ticks":421300,"time":174.65023466666668,"value":-0.71875},{"ticks":421310,"time":174.65440133333334,"value":-0.734375},{"ticks":421320,"time":174.658568,"value":-0.78125},{"ticks":421330,"time":174.6627346666667,"value":-0.828125},{"ticks":421340,"time":174.66690133333333,"value":-0.875},{"ticks":421350,"time":174.67106800000002,"value":-0.90625},{"ticks":421360,"time":174.67523466666668,"value":-1},{"ticks":421440,"time":174.708568,"value":0},{"ticks":422880,"time":175.308568,"value":-1},{"ticks":422890,"time":175.3127346666667,"value":-0.78125},{"ticks":422900,"time":175.31690133333333,"value":-0.734375},{"ticks":422910,"time":175.32106800000003,"value":-0.671875},{"ticks":422920,"time":175.3252346666667,"value":-0.625},{"ticks":422930,"time":175.32940133333335,"value":-0.578125},{"ticks":422940,"time":175.333568,"value":-0.53125},{"ticks":422950,"time":175.33773466666668,"value":-0.421875},{"ticks":422960,"time":175.34190133333334,"value":-0.359375},{"ticks":422970,"time":175.346068,"value":-0.3125},{"ticks":422980,"time":175.3502346666667,"value":-0.28125},{"ticks":422990,"time":175.35440133333333,"value":-0.21875},{"ticks":423000,"time":175.35856800000002,"value":-0.15625},{"ticks":423010,"time":175.36273466666668,"value":-0.125},{"ticks":423020,"time":175.36690133333335,"value":-0.09375},{"ticks":423030,"time":175.371068,"value":-0.0625},{"ticks":423040,"time":175.3752346666667,"value":-0.046875},{"ticks":423050,"time":175.37940133333333,"value":-0.015625},{"ticks":423080,"time":175.39190133333335,"value":0},{"ticks":425760,"time":176.50856800000003,"value":-1},{"ticks":425770,"time":176.5127346666667,"value":-0.953125},{"ticks":425780,"time":176.51690133333335,"value":-0.90625},{"ticks":425790,"time":176.521068,"value":-0.84375},{"ticks":425800,"time":176.52523466666668,"value":-0.75},{"ticks":425810,"time":176.52940133333334,"value":-0.6875},{"ticks":425820,"time":176.533568,"value":-0.640625},{"ticks":425830,"time":176.5377346666667,"value":-0.515625},{"ticks":425840,"time":176.54190133333333,"value":-0.203125},{"ticks":425850,"time":176.54606800000002,"value":-0.15625},{"ticks":425860,"time":176.55023466666668,"value":-0.109375},{"ticks":425870,"time":176.55440133333335,"value":-0.03125},{"ticks":425880,"time":176.558568,"value":-0.015625},{"ticks":425980,"time":176.6002346666667,"value":0}],"instrument":{"family":"bass","number":32,"name":"acoustic bass"},"name":"","notes":[{"duration":0.8571420000000001,"durationTicks":1920,"midi":45,"name":"A2","ticks":3840,"time":0.48,"velocity":0.7874015748031497},{"duration":0.8571420000000001,"durationTicks":1920,"midi":33,"name":"A1","ticks":3840,"time":0.48,"velocity":0.7874015748031497},{"duration":0.8571420000000001,"durationTicks":1920,"midi":47,"name":"B2","ticks":5760,"time":1.337142,"velocity":0.7874015748031497},{"duration":0.8571420000000001,"durationTicks":1920,"midi":35,"name":"B1","ticks":5760,"time":1.337142,"velocity":0.7874015748031497},{"duration":1.7142840000000001,"durationTicks":3840,"midi":41,"name":"F2","ticks":7680,"time":2.194284,"velocity":0.7874015748031497},{"duration":1.7142840000000001,"durationTicks":3840,"midi":29,"name":"F1","ticks":7680,"time":2.194284,"velocity":0.7874015748031497},{"duration":0.15833333333333366,"durationTicks":380,"midi":28,"name":"E1","ticks":11520,"time":3.9085680000000003,"velocity":0.7874015748031497},{"duration":0.13333333333333375,"durationTicks":320,"midi":40,"name":"E2","ticks":11580,"time":3.933568,"velocity":0.7874015748031497},{"duration":0.15833333333333321,"durationTicks":380,"midi":40,"name":"E2","ticks":12000,"time":4.108568,"velocity":0.7874015748031497},{"duration":0.13333333333333286,"durationTicks":320,"midi":52,"name":"E3","ticks":12060,"time":4.133568,"velocity":0.7874015748031497},{"duration":0.15833333333333321,"durationTicks":380,"midi":28,"name":"E1","ticks":12480,"time":4.308568,"velocity":0.7874015748031497},{"duration":0.13333333333333286,"durationTicks":320,"midi":40,"name":"E2","ticks":12540,"time":4.3335680000000005,"velocity":0.7874015748031497},{"duration":0.05833333333333357,"durationTicks":140,"midi":40,"name":"E2","ticks":12960,"time":4.508568,"velocity":0.7874015748031497},{"duration":0.033333333333333215,"durationTicks":80,"midi":52,"name":"E3","ticks":13020,"time":4.533568000000001,"velocity":0.7874015748031497},{"duration":0.05833333333333357,"durationTicks":140,"midi":28,"name":"E1","ticks":13200,"time":4.608568,"velocity":0.7874015748031497},{"duration":0.033333333333333215,"durationTicks":80,"midi":40,"name":"E2","ticks":13260,"time":4.633568,"velocity":0.7874015748031497},{"duration":0.05833333333333268,"durationTicks":140,"midi":16,"name":"E0","ticks":13440,"time":4.7085680000000005,"velocity":0.7874015748031497},{"duration":0.033333333333333215,"durationTicks":80,"midi":28,"name":"E1","ticks":13500,"time":4.733568,"velocity":0.7874015748031497},{"duration":0.08333333333333304,"durationTicks":200,"midi":40,"name":"E2","ticks":13680,"time":4.808568,"velocity":0.7874015748031497},{"duration":0.05833333333333268,"durationTicks":140,"midi":52,"name":"E3","ticks":13740,"time":4.8335680000000005,"velocity":0.7874015748031497},{"duration":0.15833333333333321,"durationTicks":380,"midi":16,"name":"E0","ticks":13920,"time":4.908568000000001,"velocity":0.7874015748031497},{"duration":0.13333333333333375,"durationTicks":320,"midi":28,"name":"E1","ticks":13980,"time":4.933568,"velocity":0.7874015748031497},{"duration":0.15833333333333321,"durationTicks":380,"midi":40,"name":"E2","ticks":14400,"time":5.108568,"velocity":0.7874015748031497},{"duration":0.13333333333333286,"durationTicks":320,"midi":52,"name":"E3","ticks":14460,"time":5.133568,"velocity":0.7874015748031497},{"duration":0.1583333333333341,"durationTicks":380,"midi":28,"name":"E1","ticks":14880,"time":5.308568,"velocity":0.7874015748031497},{"duration":0.13333333333333375,"durationTicks":320,"midi":40,"name":"E2","ticks":14940,"time":5.3335680000000005,"velocity":0.7874015748031497},{"duration":0.15833333333333321,"durationTicks":380,"midi":28,"name":"E1","ticks":15360,"time":5.508568,"velocity":0.7874015748031497},{"duration":0.13333333333333286,"durationTicks":320,"midi":40,"name":"E2","ticks":15420,"time":5.533568000000001,"velocity":0.7874015748031497},{"duration":0.15833333333333321,"durationTicks":380,"midi":40,"name":"E2","ticks":15840,"time":5.7085680000000005,"velocity":0.7874015748031497},{"duration":0.13333333333333375,"durationTicks":320,"midi":52,"name":"E3","ticks":15900,"time":5.733568,"velocity":0.7874015748031497},{"duration":0.15833333333333321,"durationTicks":380,"midi":16,"name":"E0","ticks":16320,"time":5.908568000000001,"velocity":0.7874015748031497},{"duration":0.13333333333333375,"durationTicks":320,"midi":28,"name":"E1","ticks":16380,"time":5.933568,"velocity":0.7874015748031497},{"duration":0.05833333333333357,"durationTicks":140,"midi":40,"name":"E2","ticks":16800,"time":6.108568,"velocity":0.7874015748031497},{"duration":0.033333333333333215,"durationTicks":80,"midi":52,"name":"E3","ticks":16860,"time":6.133568,"velocity":0.7874015748031497},{"duration":0.05833333333333268,"durationTicks":140,"midi":23,"name":"B0","ticks":17040,"time":6.2085680000000005,"velocity":0.7874015748031497},{"duration":0.033333333333333215,"durationTicks":80,"midi":35,"name":"B1","ticks":17100,"time":6.233568,"velocity":0.7874015748031497},{"duration":0.15833333333333321,"durationTicks":380,"midi":31,"name":"G1","ticks":17280,"time":6.308568000000001,"velocity":0.7874015748031497},{"duration":0.13333333333333375,"durationTicks":320,"midi":43,"name":"G2","ticks":17340,"time":6.3335680000000005,"velocity":0.7874015748031497},{"duration":0.08333333333333393,"durationTicks":200,"midi":43,"name":"G2","ticks":17760,"time":6.508568,"velocity":0.7874015748031497},{"duration":0.05833333333333357,"durationTicks":140,"midi":55,"name":"G3","ticks":17820,"time":6.533568000000001,"velocity":0.7874015748031497},{"duration":0.15833333333333321,"durationTicks":380,"midi":33,"name":"A1","ticks":18240,"time":6.7085680000000005,"velocity":0.7874015748031497},{"duration":0.13333333333333375,"durationTicks":320,"midi":45,"name":"A2","ticks":18300,"time":6.733568,"velocity":0.7874015748031497},{"duration":0.13333333333333286,"durationTicks":320,"midi":45,"name":"A2","ticks":18720,"time":6.908568000000001,"velocity":0.7874015748031497},{"duration":0.1083333333333325,"durationTicks":260,"midi":57,"name":"A3","ticks":18780,"time":6.933568000000001,"velocity":0.7874015748031497},{"duration":0.1583333333333341,"durationTicks":380,"midi":28,"name":"E1","ticks":19200,"time":7.108568,"velocity":0.7874015748031497},{"duration":0.13333333333333375,"durationTicks":320,"midi":40,"name":"E2","ticks":19260,"time":7.133568,"velocity":0.7874015748031497},{"duration":0.15833333333333321,"durationTicks":380,"midi":40,"name":"E2","ticks":19680,"time":7.308568000000001,"velocity":0.7874015748031497},{"duration":0.13333333333333375,"durationTicks":320,"midi":52,"name":"E3","ticks":19740,"time":7.3335680000000005,"velocity":0.7874015748031497},{"duration":0.15833333333333321,"durationTicks":380,"midi":28,"name":"E1","ticks":20160,"time":7.508568,"velocity":0.7874015748031497},{"duration":0.13333333333333286,"durationTicks":320,"midi":40,"name":"E2","ticks":20220,"time":7.533568000000001,"velocity":0.7874015748031497},{"duration":0.05833333333333357,"durationTicks":140,"midi":40,"name":"E2","ticks":20640,"time":7.7085680000000005,"velocity":0.7874015748031497},{"duration":0.0333333333333341,"durationTicks":80,"midi":52,"name":"E3","ticks":20700,"time":7.733568,"velocity":0.7874015748031497},{"duration":0.05833333333333357,"durationTicks":140,"midi":28,"name":"E1","ticks":20880,"time":7.808568000000001,"velocity":0.7874015748031497},{"duration":0.0333333333333341,"durationTicks":80,"midi":40,"name":"E2","ticks":20940,"time":7.8335680000000005,"velocity":0.7874015748031497},{"duration":0.05833333333333357,"durationTicks":140,"midi":16,"name":"E0","ticks":21120,"time":7.908568000000001,"velocity":0.7874015748031497},{"duration":0.033333333333333215,"durationTicks":80,"midi":28,"name":"E1","ticks":21180,"time":7.933568000000001,"velocity":0.7874015748031497},{"duration":0.08333333333333393,"durationTicks":200,"midi":40,"name":"E2","ticks":21360,"time":8.008568,"velocity":0.7874015748031497},{"duration":0.05833333333333357,"durationTicks":140,"midi":52,"name":"E3","ticks":21420,"time":8.033568,"velocity":0.7874015748031497},{"duration":0.15833333333333321,"durationTicks":380,"midi":16,"name":"E0","ticks":21600,"time":8.108568,"velocity":0.7874015748031497},{"duration":0.13333333333333286,"durationTicks":320,"midi":28,"name":"E1","ticks":21660,"time":8.133568,"velocity":0.7874015748031497},{"duration":0.15833333333333321,"durationTicks":380,"midi":40,"name":"E2","ticks":22080,"time":8.308568000000001,"velocity":0.7874015748031497},{"duration":0.13333333333333464,"durationTicks":320,"midi":52,"name":"E3","ticks":22140,"time":8.333568,"velocity":0.7874015748031497},{"duration":0.15833333333333321,"durationTicks":380,"midi":28,"name":"E1","ticks":22560,"time":8.508568,"velocity":0.7874015748031497},{"duration":0.13333333333333286,"durationTicks":320,"midi":40,"name":"E2","ticks":22620,"time":8.533568,"velocity":0.7874015748031497},{"duration":0.15833333333333321,"durationTicks":380,"midi":33,"name":"A1","ticks":23040,"time":8.708568000000001,"velocity":0.7874015748031497},{"duration":0.13333333333333464,"durationTicks":320,"midi":45,"name":"A2","ticks":23100,"time":8.733568,"velocity":0.7874015748031497},{"duration":0.15833333333333321,"durationTicks":380,"midi":45,"name":"A2","ticks":23520,"time":8.908568,"velocity":0.7874015748031497},{"duration":0.13333333333333286,"durationTicks":320,"midi":57,"name":"A3","ticks":23580,"time":8.933568000000001,"velocity":0.7874015748031497},{"duration":0.158333333333335,"durationTicks":380,"midi":21,"name":"A0","ticks":24000,"time":9.108568,"velocity":0.7874015748031497},{"duration":0.13333333333333464,"durationTicks":320,"midi":33,"name":"A1","ticks":24060,"time":9.133568,"velocity":0.7874015748031497},{"duration":0.05833333333333357,"durationTicks":140,"midi":45,"name":"A2","ticks":24480,"time":9.308568000000001,"velocity":0.7874015748031497},{"duration":0.033333333333333215,"durationTicks":80,"midi":57,"name":"A3","ticks":24540,"time":9.333568000000001,"velocity":0.7874015748031497},{"duration":0.05833333333333357,"durationTicks":140,"midi":21,"name":"A0","ticks":24720,"time":9.408568,"velocity":0.7874015748031497},{"duration":0.033333333333333215,"durationTicks":80,"midi":33,"name":"A1","ticks":24780,"time":9.433568000000001,"velocity":0.7874015748031497},{"duration":0.15833333333333321,"durationTicks":380,"midi":35,"name":"B1","ticks":24960,"time":9.508568,"velocity":0.7874015748031497},{"duration":0.13333333333333286,"durationTicks":320,"midi":47,"name":"B2","ticks":25020,"time":9.533568,"velocity":0.7874015748031497},{"duration":0.08333333333333215,"durationTicks":200,"midi":47,"name":"B2","ticks":25440,"time":9.708568000000001,"velocity":0.7874015748031497},{"duration":0.05833333333333357,"durationTicks":140,"midi":59,"name":"B3","ticks":25500,"time":9.733568,"velocity":0.7874015748031497},{"duration":0.15833333333333321,"durationTicks":380,"midi":35,"name":"B1","ticks":25920,"time":9.908568,"velocity":0.7874015748031497},{"duration":0.13333333333333286,"durationTicks":320,"midi":47,"name":"B2","ticks":25980,"time":9.933568000000001,"velocity":0.7874015748031497},{"duration":0.18333333333333357,"durationTicks":440,"midi":47,"name":"B2","ticks":26400,"time":10.108568,"velocity":0.7874015748031497},{"duration":0.15833333333333321,"durationTicks":380,"midi":59,"name":"B3","ticks":26460,"time":10.133568,"velocity":0.7874015748031497},{"duration":0.15833333333333321,"durationTicks":380,"midi":28,"name":"E1","ticks":26880,"time":10.308568000000001,"velocity":0.7874015748031497},{"duration":0.13333333333333286,"durationTicks":320,"midi":40,"name":"E2","ticks":26940,"time":10.333568000000001,"velocity":0.7874015748031497},{"duration":0.15833333333333321,"durationTicks":380,"midi":40,"name":"E2","ticks":27360,"time":10.508568,"velocity":0.7874015748031497},{"duration":0.13333333333333286,"durationTicks":320,"midi":52,"name":"E3","ticks":27420,"time":10.533568,"velocity":0.7874015748031497},{"duration":0.15833333333333144,"durationTicks":380,"midi":28,"name":"E1","ticks":27840,"time":10.708568000000001,"velocity":0.7874015748031497},{"duration":0.13333333333333286,"durationTicks":320,"midi":40,"name":"E2","ticks":27900,"time":10.733568,"velocity":0.7874015748031497},{"duration":0.15833333333333321,"durationTicks":380,"midi":40,"name":"E2","ticks":28320,"time":10.908568,"velocity":0.7874015748031497},{"duration":0.13333333333333286,"durationTicks":320,"midi":52,"name":"E3","ticks":28380,"time":10.933568000000001,"velocity":0.7874015748031497},{"duration":0.05833333333333357,"durationTicks":140,"midi":26,"name":"D1","ticks":28800,"time":11.108568,"velocity":0.7874015748031497},{"duration":0.033333333333333215,"durationTicks":80,"midi":38,"name":"D2","ticks":28860,"time":11.133568,"velocity":0.7874015748031497},{"duration":0.08333333333333215,"durationTicks":200,"midi":40,"name":"E2","ticks":29040,"time":11.208568000000001,"velocity":0.7874015748031497},{"duration":0.05833333333333357,"durationTicks":140,"midi":52,"name":"E3","ticks":29100,"time":11.233568,"velocity":0.7874015748031497},{"duration":0.15833333333333321,"durationTicks":380,"midi":16,"name":"E0","ticks":29280,"time":11.308568000000001,"velocity":0.7874015748031497},{"duration":0.13333333333333286,"durationTicks":320,"midi":28,"name":"E1","ticks":29340,"time":11.333568000000001,"velocity":0.7874015748031497},{"duration":0.15833333333333321,"durationTicks":380,"midi":40,"name":"E2","ticks":29760,"time":11.508568,"velocity":0.7874015748031497},{"duration":0.13333333333333286,"durationTicks":320,"midi":52,"name":"E3","ticks":29820,"time":11.533568,"velocity":0.7874015748031497},{"duration":0.15833333333333144,"durationTicks":380,"midi":28,"name":"E1","ticks":30240,"time":11.708568000000001,"velocity":0.7874015748031497},{"duration":0.13333333333333286,"durationTicks":320,"midi":40,"name":"E2","ticks":30300,"time":11.733568,"velocity":0.7874015748031497},{"duration":0.15833333333333321,"durationTicks":380,"midi":28,"name":"E1","ticks":30720,"time":11.908568,"velocity":0.7874015748031497},{"duration":0.13333333333333286,"durationTicks":320,"midi":40,"name":"E2","ticks":30780,"time":11.933568000000001,"velocity":0.7874015748031497},{"duration":0.15833333333333144,"durationTicks":380,"midi":40,"name":"E2","ticks":31200,"time":12.108568000000002,"velocity":0.7874015748031497},{"duration":0.13333333333333286,"durationTicks":320,"midi":52,"name":"E3","ticks":31260,"time":12.133568,"velocity":0.7874015748031497},{"duration":0.15833333333333321,"durationTicks":380,"midi":16,"name":"E0","ticks":31680,"time":12.308568000000001,"velocity":0.7874015748031497},{"duration":0.13333333333333286,"durationTicks":320,"midi":28,"name":"E1","ticks":31740,"time":12.333568000000001,"velocity":0.7874015748031497},{"duration":0.05833333333333357,"durationTicks":140,"midi":40,"name":"E2","ticks":32160,"time":12.508568,"velocity":0.7874015748031497},{"duration":0.033333333333333215,"durationTicks":80,"midi":52,"name":"E3","ticks":32220,"time":12.533568,"velocity":0.7874015748031497},{"duration":0.058333333333331794,"durationTicks":140,"midi":23,"name":"B0","ticks":32400,"time":12.608568000000002,"velocity":0.7874015748031497},{"duration":0.033333333333333215,"durationTicks":80,"midi":35,"name":"B1","ticks":32460,"time":12.633568,"velocity":0.7874015748031497},{"duration":0.15833333333333321,"durationTicks":380,"midi":28,"name":"E1","ticks":32640,"time":12.708568000000001,"velocity":0.7874015748031497},{"duration":0.13333333333333286,"durationTicks":320,"midi":40,"name":"E2","ticks":32700,"time":12.733568000000002,"velocity":0.7874015748031497},{"duration":0.08333333333333393,"durationTicks":200,"midi":40,"name":"E2","ticks":33120,"time":12.908568,"velocity":0.7874015748031497},{"duration":0.05833333333333357,"durationTicks":140,"midi":52,"name":"E3","ticks":33180,"time":12.933568000000001,"velocity":0.7874015748031497},{"duration":0.15833333333333144,"durationTicks":380,"midi":26,"name":"D1","ticks":33600,"time":13.108568000000002,"velocity":0.7874015748031497},{"duration":0.13333333333333286,"durationTicks":320,"midi":38,"name":"D2","ticks":33660,"time":13.133568,"velocity":0.7874015748031497},{"duration":0.13333333333333286,"durationTicks":320,"midi":39,"name":"D#2","ticks":34080,"time":13.308568000000001,"velocity":0.7874015748031497},{"duration":0.1083333333333325,"durationTicks":260,"midi":51,"name":"D#3","ticks":34140,"time":13.333568000000001,"velocity":0.7874015748031497},{"duration":0.15833333333333144,"durationTicks":380,"midi":28,"name":"E1","ticks":34560,"time":13.508568000000002,"velocity":0.7874015748031497},{"duration":0.13333333333333286,"durationTicks":320,"midi":40,"name":"E2","ticks":34620,"time":13.533568,"velocity":0.7874015748031497},{"duration":0.15833333333333321,"durationTicks":380,"midi":40,"name":"E2","ticks":35040,"time":13.708568000000001,"velocity":0.7874015748031497},{"duration":0.13333333333333286,"durationTicks":320,"midi":52,"name":"E3","ticks":35100,"time":13.733568000000002,"velocity":0.7874015748031497},{"duration":0.15833333333333321,"durationTicks":380,"midi":28,"name":"E1","ticks":35520,"time":13.908568,"velocity":0.7874015748031497},{"duration":0.13333333333333286,"durationTicks":320,"midi":40,"name":"E2","ticks":35580,"time":13.933568000000001,"velocity":0.7874015748031497},{"duration":0.15833333333333321,"durationTicks":380,"midi":40,"name":"E2","ticks":36000,"time":14.108568000000002,"velocity":0.7874015748031497},{"duration":0.13333333333333286,"durationTicks":320,"midi":52,"name":"E3","ticks":36060,"time":14.133568000000002,"velocity":0.7874015748031497},{"duration":0.05833333333333357,"durationTicks":140,"midi":26,"name":"D1","ticks":36480,"time":14.308568000000001,"velocity":0.7874015748031497},{"duration":0.033333333333333215,"durationTicks":80,"midi":38,"name":"D2","ticks":36540,"time":14.333568000000001,"velocity":0.7874015748031497},{"duration":0.08333333333333393,"durationTicks":200,"midi":40,"name":"E2","ticks":36720,"time":14.408568,"velocity":0.7874015748031497},{"duration":0.05833333333333357,"durationTicks":140,"midi":52,"name":"E3","ticks":36780,"time":14.433568000000001,"velocity":0.7874015748031497},{"duration":0.15833333333333144,"durationTicks":380,"midi":16,"name":"E0","ticks":36960,"time":14.508568000000002,"velocity":0.7874015748031497},{"duration":0.13333333333333286,"durationTicks":320,"midi":28,"name":"E1","ticks":37020,"time":14.533568,"velocity":0.7874015748031497},{"duration":0.15833333333333321,"durationTicks":380,"midi":38,"name":"D2","ticks":37440,"time":14.708568000000001,"velocity":0.7874015748031497},{"duration":0.13333333333333286,"durationTicks":320,"midi":50,"name":"D3","ticks":37500,"time":14.733568000000002,"velocity":0.7874015748031497},{"duration":0.15833333333333321,"durationTicks":380,"midi":21,"name":"A0","ticks":37920,"time":14.908568,"velocity":0.7874015748031497},{"duration":0.13333333333333286,"durationTicks":320,"midi":33,"name":"A1","ticks":37980,"time":14.933568000000001,"velocity":0.7874015748031497},{"duration":0.15833333333333321,"durationTicks":380,"midi":23,"name":"B0","ticks":38400,"time":15.108568000000002,"velocity":0.7874015748031497},{"duration":0.13333333333333286,"durationTicks":320,"midi":35,"name":"B1","ticks":38460,"time":15.133568000000002,"velocity":0.7874015748031497},{"duration":0.15833333333333321,"durationTicks":380,"midi":35,"name":"B1","ticks":38880,"time":15.308568000000001,"velocity":0.7874015748031497},{"duration":0.13333333333333286,"durationTicks":320,"midi":47,"name":"B2","ticks":38940,"time":15.333568000000001,"velocity":0.7874015748031497},{"duration":0.15833333333333144,"durationTicks":380,"midi":11,"name":"B-1","ticks":39360,"time":15.508568000000002,"velocity":0.7874015748031497},{"duration":0.13333333333333286,"durationTicks":320,"midi":23,"name":"B0","ticks":39420,"time":15.533568,"velocity":0.7874015748031497},{"duration":0.05833333333333357,"durationTicks":140,"midi":35,"name":"B1","ticks":39840,"time":15.708568000000001,"velocity":0.7874015748031497},{"duration":0.033333333333333215,"durationTicks":80,"midi":47,"name":"B2","ticks":39900,"time":15.733568000000002,"velocity":0.7874015748031497},{"duration":0.05833333333333357,"durationTicks":140,"midi":18,"name":"F#0","ticks":40080,"time":15.808568000000001,"velocity":0.7874015748031497},{"duration":0.033333333333333215,"durationTicks":80,"midi":30,"name":"F#1","ticks":40140,"time":15.833568000000001,"velocity":0.7874015748031497},{"duration":0.15833333333333321,"durationTicks":380,"midi":19,"name":"G0","ticks":40320,"time":15.908568,"velocity":0.7874015748031497},{"duration":0.13333333333333286,"durationTicks":320,"midi":31,"name":"G1","ticks":40380,"time":15.933568000000001,"velocity":0.7874015748031497},{"duration":0.08333333333333215,"durationTicks":200,"midi":31,"name":"G1","ticks":40800,"time":16.108568,"velocity":0.7874015748031497},{"duration":0.05833333333333357,"durationTicks":140,"midi":43,"name":"G2","ticks":40860,"time":16.133568,"velocity":0.7874015748031497},{"duration":0.35833333333333073,"durationTicks":860,"midi":22,"name":"A#0","ticks":41280,"time":16.308568,"velocity":0.7874015748031497},{"duration":0.33333333333333215,"durationTicks":800,"midi":34,"name":"A#1","ticks":41340,"time":16.333568,"velocity":0.7874015748031497},{"duration":0.158333333333335,"durationTicks":380,"midi":24,"name":"C1","ticks":42240,"time":16.708568,"velocity":0.7874015748031497},{"duration":0.13333333333333286,"durationTicks":320,"midi":36,"name":"C2","ticks":42300,"time":16.733568,"velocity":0.7874015748031497},{"duration":0.158333333333335,"durationTicks":380,"midi":36,"name":"C2","ticks":42720,"time":16.908568,"velocity":0.7874015748031497},{"duration":0.13333333333333286,"durationTicks":320,"midi":48,"name":"C3","ticks":42780,"time":16.933568,"velocity":0.7874015748031497},{"duration":0.15833333333333144,"durationTicks":380,"midi":24,"name":"C1","ticks":43200,"time":17.108568,"velocity":0.7874015748031497},{"duration":0.13333333333333286,"durationTicks":320,"midi":36,"name":"C2","ticks":43260,"time":17.133568,"velocity":0.7874015748031497},{"duration":0.158333333333335,"durationTicks":380,"midi":36,"name":"C2","ticks":43680,"time":17.308568,"velocity":0.7874015748031497},{"duration":0.1333333333333364,"durationTicks":320,"midi":48,"name":"C3","ticks":43740,"time":17.333568,"velocity":0.7874015748031497},{"duration":0.05833333333333357,"durationTicks":140,"midi":22,"name":"A#0","ticks":44160,"time":17.508568,"velocity":0.7874015748031497},{"duration":0.03333333333333499,"durationTicks":80,"midi":34,"name":"A#1","ticks":44220,"time":17.533568,"velocity":0.7874015748031497},{"duration":0.08333333333333215,"durationTicks":200,"midi":36,"name":"C2","ticks":44400,"time":17.608568,"velocity":0.7874015748031497},{"duration":0.05833333333333357,"durationTicks":140,"midi":48,"name":"C3","ticks":44460,"time":17.633568,"velocity":0.7874015748031497},{"duration":0.158333333333335,"durationTicks":380,"midi":19,"name":"G0","ticks":44640,"time":17.708568,"velocity":0.7874015748031497},{"duration":0.13333333333333286,"durationTicks":320,"midi":31,"name":"G1","ticks":44700,"time":17.733568,"velocity":0.7874015748031497},{"duration":0.158333333333335,"durationTicks":380,"midi":36,"name":"C2","ticks":45120,"time":17.908568,"velocity":0.7874015748031497},{"duration":0.13333333333333286,"durationTicks":320,"midi":48,"name":"C3","ticks":45180,"time":17.933568,"velocity":0.7874015748031497},{"duration":0.15833333333333144,"durationTicks":380,"midi":24,"name":"C1","ticks":45600,"time":18.108568,"velocity":0.7874015748031497},{"duration":0.13333333333333286,"durationTicks":320,"midi":36,"name":"C2","ticks":45660,"time":18.133568,"velocity":0.7874015748031497},{"duration":0.158333333333335,"durationTicks":380,"midi":23,"name":"B0","ticks":46080,"time":18.308568,"velocity":0.7874015748031497},{"duration":0.1333333333333364,"durationTicks":320,"midi":35,"name":"B1","ticks":46140,"time":18.333568,"velocity":0.7874015748031497},{"duration":0.158333333333335,"durationTicks":380,"midi":35,"name":"B1","ticks":46560,"time":18.508568,"velocity":0.7874015748031497},{"duration":0.1333333333333364,"durationTicks":320,"midi":47,"name":"B2","ticks":46620,"time":18.533568,"velocity":0.7874015748031497},{"duration":0.158333333333335,"durationTicks":380,"midi":11,"name":"B-1","ticks":47040,"time":18.708568,"velocity":0.7874015748031497},{"duration":0.13333333333333286,"durationTicks":320,"midi":23,"name":"B0","ticks":47100,"time":18.733568,"velocity":0.7874015748031497},{"duration":0.05833333333333712,"durationTicks":140,"midi":35,"name":"B1","ticks":47520,"time":18.908568,"velocity":0.7874015748031497},{"duration":0.03333333333333499,"durationTicks":80,"midi":47,"name":"B2","ticks":47580,"time":18.933568,"velocity":0.7874015748031497},{"duration":0.05833333333333357,"durationTicks":140,"midi":18,"name":"F#0","ticks":47760,"time":19.008568,"velocity":0.7874015748031497},{"duration":0.03333333333333499,"durationTicks":80,"midi":30,"name":"F#1","ticks":47820,"time":19.033568,"velocity":0.7874015748031497},{"duration":0.15833333333333144,"durationTicks":380,"midi":19,"name":"G0","ticks":48000,"time":19.108568,"velocity":0.7874015748031497},{"duration":0.13333333333333286,"durationTicks":320,"midi":31,"name":"G1","ticks":48060,"time":19.133568,"velocity":0.7874015748031497},{"duration":0.08333333333333215,"durationTicks":200,"midi":31,"name":"G1","ticks":48480,"time":19.308568,"velocity":0.7874015748031497},{"duration":0.05833333333333357,"durationTicks":140,"midi":43,"name":"G2","ticks":48540,"time":19.333568,"velocity":0.7874015748031497},{"duration":0.158333333333335,"durationTicks":380,"midi":19,"name":"G0","ticks":48960,"time":19.508568,"velocity":0.7874015748031497},{"duration":0.1333333333333364,"durationTicks":320,"midi":31,"name":"G1","ticks":49020,"time":19.533568,"velocity":0.7874015748031497},{"duration":0.1333333333333364,"durationTicks":320,"midi":30,"name":"F#1","ticks":49440,"time":19.708568,"velocity":0.7874015748031497},{"duration":0.10833333333333428,"durationTicks":260,"midi":42,"name":"F#2","ticks":49500,"time":19.733568,"velocity":0.7874015748031497},{"duration":0.158333333333335,"durationTicks":380,"midi":33,"name":"A1","ticks":49920,"time":19.908568,"velocity":0.7874015748031497},{"duration":0.13333333333333286,"durationTicks":320,"midi":45,"name":"A2","ticks":49980,"time":19.933568,"velocity":0.7874015748031497},{"duration":0.158333333333335,"durationTicks":380,"midi":45,"name":"A2","ticks":50400,"time":20.108567999999998,"velocity":0.7874015748031497},{"duration":0.13333333333333286,"durationTicks":320,"midi":57,"name":"A3","ticks":50460,"time":20.133568,"velocity":0.7874015748031497},{"duration":0.15833333333333144,"durationTicks":380,"midi":33,"name":"A1","ticks":50880,"time":20.308568,"velocity":0.7874015748031497},{"duration":0.13333333333333286,"durationTicks":320,"midi":45,"name":"A2","ticks":50940,"time":20.333568,"velocity":0.7874015748031497},{"duration":0.05833333333333357,"durationTicks":140,"midi":45,"name":"A2","ticks":51360,"time":20.508568,"velocity":0.7874015748031497},{"duration":0.03333333333333499,"durationTicks":80,"midi":57,"name":"A3","ticks":51420,"time":20.533568,"velocity":0.7874015748031497},{"duration":0.05833333333333712,"durationTicks":140,"midi":21,"name":"A0","ticks":51600,"time":20.608567999999998,"velocity":0.7874015748031497},{"duration":0.03333333333333499,"durationTicks":80,"midi":33,"name":"A1","ticks":51660,"time":20.633568,"velocity":0.7874015748031497},{"duration":0.158333333333335,"durationTicks":380,"midi":23,"name":"B0","ticks":51840,"time":20.708568,"velocity":0.7874015748031497},{"duration":0.1333333333333364,"durationTicks":320,"midi":35,"name":"B1","ticks":51900,"time":20.733567999999998,"velocity":0.7874015748031497},{"duration":0.158333333333335,"durationTicks":380,"midi":47,"name":"B2","ticks":52320,"time":20.908568,"velocity":0.7874015748031497},{"duration":0.13333333333333286,"durationTicks":320,"midi":59,"name":"B3","ticks":52380,"time":20.933568,"velocity":0.7874015748031497},{"duration":0.158333333333335,"durationTicks":380,"midi":35,"name":"B1","ticks":52800,"time":21.108567999999998,"velocity":0.7874015748031497},{"duration":0.13333333333333286,"durationTicks":320,"midi":47,"name":"B2","ticks":52860,"time":21.133568,"velocity":0.7874015748031497},{"duration":0.15833333333333144,"durationTicks":380,"midi":36,"name":"C2","ticks":53280,"time":21.308568,"velocity":0.7874015748031497},{"duration":0.13333333333333286,"durationTicks":320,"midi":48,"name":"C3","ticks":53340,"time":21.333568,"velocity":0.7874015748031497},{"duration":0.158333333333335,"durationTicks":380,"midi":36,"name":"C2","ticks":53760,"time":21.508568,"velocity":0.7874015748031497},{"duration":0.1333333333333364,"durationTicks":320,"midi":48,"name":"C3","ticks":53820,"time":21.533568,"velocity":0.7874015748031497},{"duration":0.158333333333335,"durationTicks":380,"midi":48,"name":"C3","ticks":54240,"time":21.708568,"velocity":0.7874015748031497},{"duration":0.1333333333333364,"durationTicks":320,"midi":60,"name":"C4","ticks":54300,"time":21.733567999999998,"velocity":0.7874015748031497},{"duration":0.158333333333335,"durationTicks":380,"midi":24,"name":"C1","ticks":54720,"time":21.908568,"velocity":0.7874015748031497},{"duration":0.13333333333333286,"durationTicks":320,"midi":36,"name":"C2","ticks":54780,"time":21.933568,"velocity":0.7874015748031497},{"duration":0.05833333333333712,"durationTicks":140,"midi":48,"name":"C3","ticks":55200,"time":22.108567999999998,"velocity":0.7874015748031497},{"duration":0.03333333333333499,"durationTicks":80,"midi":60,"name":"C4","ticks":55260,"time":22.133568,"velocity":0.7874015748031497},{"duration":0.05833333333333357,"durationTicks":140,"midi":31,"name":"G1","ticks":55440,"time":22.208568,"velocity":0.7874015748031497},{"duration":0.03333333333333499,"durationTicks":80,"midi":43,"name":"G2","ticks":55500,"time":22.233567999999998,"velocity":0.7874015748031497},{"duration":0.18333333333333357,"durationTicks":440,"midi":50,"name":"D3","ticks":55680,"time":22.308568,"velocity":0.7874015748031497},{"duration":0.15833333333333144,"durationTicks":380,"midi":38,"name":"D2","ticks":55680,"time":22.308568,"velocity":0.7874015748031497},{"duration":0.13333333333333286,"durationTicks":320,"midi":62,"name":"D4","ticks":55740,"time":22.333568,"velocity":0.6062992125984252},{"duration":0.25833333333333286,"durationTicks":620,"midi":38,"name":"D2","ticks":56640,"time":22.708568,"velocity":0.7874015748031497},{"duration":0.18333333333333357,"durationTicks":440,"midi":50,"name":"D3","ticks":56640,"time":22.708568,"velocity":0.7874015748031497},{"duration":0.23333333333333428,"durationTicks":560,"midi":62,"name":"D4","ticks":56700,"time":22.733567999999998,"velocity":0.6141732283464567},{"duration":0.14166666666666572,"durationTicks":340,"midi":28,"name":"E1","ticks":57640,"time":23.125234666666667,"velocity":0.7874015748031497},{"duration":0.11666666666666714,"durationTicks":280,"midi":40,"name":"E2","ticks":57700,"time":23.150234666666666,"velocity":0.7874015748031497},{"duration":0.14166666666666927,"durationTicks":340,"midi":40,"name":"E2","ticks":58120,"time":23.325234666666667,"velocity":0.7874015748031497},{"duration":0.1166666666666707,"durationTicks":280,"midi":52,"name":"E3","ticks":58180,"time":23.350234666666665,"velocity":0.7874015748031497},{"duration":0.14166666666666927,"durationTicks":340,"midi":28,"name":"E1","ticks":58600,"time":23.525234666666666,"velocity":0.7874015748031497},{"duration":0.1166666666666707,"durationTicks":280,"midi":40,"name":"E2","ticks":58660,"time":23.550234666666665,"velocity":0.7874015748031497},{"duration":0.14166666666666927,"durationTicks":340,"midi":40,"name":"E2","ticks":59080,"time":23.725234666666665,"velocity":0.7874015748031497},{"duration":0.11666666666666714,"durationTicks":280,"midi":52,"name":"E3","ticks":59140,"time":23.750234666666667,"velocity":0.7874015748031497},{"duration":0.041666666666671404,"durationTicks":100,"midi":26,"name":"D1","ticks":59560,"time":23.925234666666665,"velocity":0.7874015748031497},{"duration":0.016666666666669272,"durationTicks":40,"midi":38,"name":"D2","ticks":59620,"time":23.950234666666667,"velocity":0.7874015748031497},{"duration":0.06666666666666998,"durationTicks":160,"midi":40,"name":"E2","ticks":59800,"time":24.025234666666666,"velocity":0.7874015748031497},{"duration":0.041666666666671404,"durationTicks":100,"midi":52,"name":"E3","ticks":59860,"time":24.050234666666665,"velocity":0.7874015748031497},{"duration":0.14166666666666572,"durationTicks":340,"midi":16,"name":"E0","ticks":60040,"time":24.125234666666667,"velocity":0.7874015748031497},{"duration":0.11666666666666714,"durationTicks":280,"midi":28,"name":"E1","ticks":60100,"time":24.150234666666666,"velocity":0.7874015748031497},{"duration":0.14166666666666927,"durationTicks":340,"midi":40,"name":"E2","ticks":60520,"time":24.325234666666667,"velocity":0.7874015748031497},{"duration":0.1166666666666707,"durationTicks":280,"midi":52,"name":"E3","ticks":60580,"time":24.350234666666665,"velocity":0.7874015748031497},{"duration":0.14166666666666927,"durationTicks":340,"midi":28,"name":"E1","ticks":61000,"time":24.525234666666666,"velocity":0.7874015748031497},{"duration":0.1166666666666707,"durationTicks":280,"midi":40,"name":"E2","ticks":61060,"time":24.550234666666665,"velocity":0.7874015748031497},{"duration":0.14166666666666927,"durationTicks":340,"midi":28,"name":"E1","ticks":61480,"time":24.725234666666665,"velocity":0.7874015748031497},{"duration":0.11666666666666714,"durationTicks":280,"midi":40,"name":"E2","ticks":61540,"time":24.750234666666667,"velocity":0.7874015748031497},{"duration":0.14166666666666927,"durationTicks":340,"midi":40,"name":"E2","ticks":61960,"time":24.925234666666665,"velocity":0.7874015748031497},{"duration":0.11666666666666714,"durationTicks":280,"midi":52,"name":"E3","ticks":62020,"time":24.950234666666667,"velocity":0.7874015748031497},{"duration":0.14166666666666572,"durationTicks":340,"midi":16,"name":"E0","ticks":62440,"time":25.125234666666667,"velocity":0.7874015748031497},{"duration":0.11666666666666714,"durationTicks":280,"midi":28,"name":"E1","ticks":62500,"time":25.150234666666666,"velocity":0.7874015748031497},{"duration":0.04166666666666785,"durationTicks":100,"midi":40,"name":"E2","ticks":62920,"time":25.325234666666667,"velocity":0.7874015748031497},{"duration":0.016666666666669272,"durationTicks":40,"midi":52,"name":"E3","ticks":62980,"time":25.350234666666665,"velocity":0.7874015748031497},{"duration":0.041666666666671404,"durationTicks":100,"midi":23,"name":"B0","ticks":63160,"time":25.425234666666665,"velocity":0.7874015748031497},{"duration":0.016666666666669272,"durationTicks":40,"midi":35,"name":"B1","ticks":63220,"time":25.450234666666667,"velocity":0.7874015748031497},{"duration":0.14166666666666927,"durationTicks":340,"midi":28,"name":"E1","ticks":63400,"time":25.525234666666666,"velocity":0.7874015748031497},{"duration":0.1166666666666707,"durationTicks":280,"midi":40,"name":"E2","ticks":63460,"time":25.550234666666665,"velocity":0.7874015748031497},{"duration":0.06666666666666998,"durationTicks":160,"midi":40,"name":"E2","ticks":63880,"time":25.725234666666665,"velocity":0.7874015748031497},{"duration":0.04166666666666785,"durationTicks":100,"midi":52,"name":"E3","ticks":63940,"time":25.750234666666667,"velocity":0.7874015748031497},{"duration":0.14166666666666927,"durationTicks":340,"midi":26,"name":"D1","ticks":64360,"time":25.925234666666665,"velocity":0.7874015748031497},{"duration":0.11666666666666714,"durationTicks":280,"midi":38,"name":"D2","ticks":64420,"time":25.950234666666667,"velocity":0.7874015748031497},{"duration":0.11666666666666714,"durationTicks":280,"midi":39,"name":"D#2","ticks":64840,"time":26.125234666666667,"velocity":0.7874015748031497},{"duration":0.09166666666666856,"durationTicks":220,"midi":51,"name":"D#3","ticks":64900,"time":26.150234666666666,"velocity":0.7874015748031497},{"duration":0.14166666666666927,"durationTicks":340,"midi":28,"name":"E1","ticks":65320,"time":26.325234666666667,"velocity":0.7874015748031497},{"duration":0.1166666666666707,"durationTicks":280,"midi":40,"name":"E2","ticks":65380,"time":26.350234666666665,"velocity":0.7874015748031497},{"duration":0.14166666666666927,"durationTicks":340,"midi":40,"name":"E2","ticks":65800,"time":26.525234666666666,"velocity":0.7874015748031497},{"duration":0.1166666666666707,"durationTicks":280,"midi":52,"name":"E3","ticks":65860,"time":26.550234666666665,"velocity":0.7874015748031497},{"duration":0.14166666666666927,"durationTicks":340,"midi":28,"name":"E1","ticks":66280,"time":26.725234666666665,"velocity":0.7874015748031497},{"duration":0.11666666666666714,"durationTicks":280,"midi":40,"name":"E2","ticks":66340,"time":26.750234666666667,"velocity":0.7874015748031497},{"duration":0.14166666666666927,"durationTicks":340,"midi":40,"name":"E2","ticks":66760,"time":26.925234666666665,"velocity":0.7874015748031497},{"duration":0.11666666666666714,"durationTicks":280,"midi":52,"name":"E3","ticks":66820,"time":26.950234666666667,"velocity":0.7874015748031497},{"duration":0.04166666666666785,"durationTicks":100,"midi":26,"name":"D1","ticks":67240,"time":27.125234666666667,"velocity":0.7874015748031497},{"duration":0.016666666666669272,"durationTicks":40,"midi":38,"name":"D2","ticks":67300,"time":27.150234666666666,"velocity":0.7874015748031497},{"duration":0.06666666666666998,"durationTicks":160,"midi":40,"name":"E2","ticks":67480,"time":27.225234666666665,"velocity":0.7874015748031497},{"duration":0.04166666666666785,"durationTicks":100,"midi":52,"name":"E3","ticks":67540,"time":27.250234666666667,"velocity":0.7874015748031497},{"duration":0.14166666666666927,"durationTicks":340,"midi":16,"name":"E0","ticks":67720,"time":27.325234666666667,"velocity":0.7874015748031497},{"duration":0.1166666666666707,"durationTicks":280,"midi":28,"name":"E1","ticks":67780,"time":27.350234666666665,"velocity":0.7874015748031497},{"duration":0.14166666666666927,"durationTicks":340,"midi":38,"name":"D2","ticks":68200,"time":27.525234666666666,"velocity":0.7874015748031497},{"duration":0.1166666666666707,"durationTicks":280,"midi":50,"name":"D3","ticks":68260,"time":27.550234666666665,"velocity":0.7874015748031497},{"duration":0.14166666666666927,"durationTicks":340,"midi":21,"name":"A0","ticks":68680,"time":27.725234666666665,"velocity":0.7874015748031497},{"duration":0.11666666666666714,"durationTicks":280,"midi":33,"name":"A1","ticks":68740,"time":27.750234666666667,"velocity":0.7874015748031497},{"duration":0.14166666666666927,"durationTicks":340,"midi":23,"name":"B0","ticks":69160,"time":27.925234666666665,"velocity":0.7874015748031497},{"duration":0.11666666666666714,"durationTicks":280,"midi":35,"name":"B1","ticks":69220,"time":27.950234666666667,"velocity":0.7874015748031497},{"duration":0.14166666666666572,"durationTicks":340,"midi":35,"name":"B1","ticks":69640,"time":28.125234666666667,"velocity":0.7874015748031497},{"duration":0.11666666666666714,"durationTicks":280,"midi":47,"name":"B2","ticks":69700,"time":28.150234666666666,"velocity":0.7874015748031497},{"duration":0.14166666666666927,"durationTicks":340,"midi":12,"name":"C0","ticks":70120,"time":28.325234666666667,"velocity":0.7874015748031497},{"duration":0.1166666666666707,"durationTicks":280,"midi":23,"name":"B0","ticks":70180,"time":28.350234666666665,"velocity":0.7874015748031497},{"duration":0.04166666666666785,"durationTicks":100,"midi":35,"name":"B1","ticks":70600,"time":28.525234666666666,"velocity":0.7874015748031497},{"duration":0.016666666666669272,"durationTicks":40,"midi":47,"name":"B2","ticks":70660,"time":28.550234666666665,"velocity":0.7874015748031497},{"duration":0.04166666666666785,"durationTicks":100,"midi":18,"name":"F#0","ticks":70840,"time":28.625234666666667,"velocity":0.7874015748031497},{"duration":0.016666666666669272,"durationTicks":40,"midi":30,"name":"F#1","ticks":70900,"time":28.650234666666666,"velocity":0.7874015748031497},{"duration":0.14166666666666927,"durationTicks":340,"midi":19,"name":"G0","ticks":71080,"time":28.725234666666665,"velocity":0.7874015748031497},{"duration":0.11666666666666714,"durationTicks":280,"midi":31,"name":"G1","ticks":71140,"time":28.750234666666667,"velocity":0.7874015748031497},{"duration":0.06666666666666998,"durationTicks":160,"midi":31,"name":"G1","ticks":71560,"time":28.925234666666665,"velocity":0.7874015748031497},{"duration":0.04166666666666785,"durationTicks":100,"midi":43,"name":"G2","ticks":71620,"time":28.950234666666667,"velocity":0.7874015748031497},{"duration":0.34166666666666856,"durationTicks":820,"midi":22,"name":"A#0","ticks":72040,"time":29.125234666666667,"velocity":0.7874015748031497},{"duration":0.31666666666667,"durationTicks":760,"midi":34,"name":"A#1","ticks":72100,"time":29.150234666666666,"velocity":0.7874015748031497},{"duration":0.14166666666666217,"durationTicks":340,"midi":24,"name":"C1","ticks":73000,"time":29.52523466666667,"velocity":0.7874015748031497},{"duration":0.11666666666666359,"durationTicks":280,"midi":36,"name":"C2","ticks":73060,"time":29.550234666666668,"velocity":0.7874015748031497},{"duration":0.14166666666666217,"durationTicks":340,"midi":36,"name":"C2","ticks":73480,"time":29.72523466666667,"velocity":0.7874015748031497},{"duration":0.11666666666666359,"durationTicks":280,"midi":48,"name":"C3","ticks":73540,"time":29.750234666666667,"velocity":0.7874015748031497},{"duration":0.14166666666666217,"durationTicks":340,"midi":24,"name":"C1","ticks":73960,"time":29.925234666666668,"velocity":0.7874015748031497},{"duration":0.11666666666666003,"durationTicks":280,"midi":36,"name":"C2","ticks":74020,"time":29.95023466666667,"velocity":0.7874015748031497},{"duration":0.14166666666666572,"durationTicks":340,"midi":36,"name":"C2","ticks":74440,"time":30.125234666666667,"velocity":0.7874015748031497},{"duration":0.11666666666666359,"durationTicks":280,"midi":48,"name":"C3","ticks":74500,"time":30.15023466666667,"velocity":0.7874015748031497},{"duration":0.041666666666660745,"durationTicks":100,"midi":22,"name":"A#0","ticks":74920,"time":30.32523466666667,"velocity":0.7874015748031497},{"duration":0.016666666666662167,"durationTicks":40,"midi":34,"name":"A#1","ticks":74980,"time":30.35023466666667,"velocity":0.7874015748031497},{"duration":0.06666666666666288,"durationTicks":160,"midi":36,"name":"C2","ticks":75160,"time":30.425234666666668,"velocity":0.7874015748031497},{"duration":0.041666666666660745,"durationTicks":100,"midi":48,"name":"C3","ticks":75220,"time":30.45023466666667,"velocity":0.7874015748031497},{"duration":0.14166666666666217,"durationTicks":340,"midi":19,"name":"G0","ticks":75400,"time":30.52523466666667,"velocity":0.7874015748031497},{"duration":0.11666666666666359,"durationTicks":280,"midi":31,"name":"G1","ticks":75460,"time":30.550234666666668,"velocity":0.7874015748031497},{"duration":0.14166666666666217,"durationTicks":340,"midi":36,"name":"C2","ticks":75880,"time":30.72523466666667,"velocity":0.7874015748031497},{"duration":0.11666666666666359,"durationTicks":280,"midi":48,"name":"C3","ticks":75940,"time":30.750234666666667,"velocity":0.7874015748031497},{"duration":0.14166666666666217,"durationTicks":340,"midi":24,"name":"C1","ticks":76360,"time":30.925234666666668,"velocity":0.7874015748031497},{"duration":0.11666666666666003,"durationTicks":280,"midi":36,"name":"C2","ticks":76420,"time":30.95023466666667,"velocity":0.7874015748031497},{"duration":0.14166666666666572,"durationTicks":340,"midi":26,"name":"D1","ticks":76840,"time":31.125234666666667,"velocity":0.7874015748031497},{"duration":0.11666666666666359,"durationTicks":280,"midi":38,"name":"D2","ticks":76900,"time":31.15023466666667,"velocity":0.7874015748031497},{"duration":0.14166666666666217,"durationTicks":340,"midi":38,"name":"D2","ticks":77320,"time":31.32523466666667,"velocity":0.7874015748031497},{"duration":0.11666666666666359,"durationTicks":280,"midi":50,"name":"D3","ticks":77380,"time":31.35023466666667,"velocity":0.7874015748031497},{"duration":0.14166666666666217,"durationTicks":340,"midi":14,"name":"D0","ticks":77800,"time":31.52523466666667,"velocity":0.7874015748031497},{"duration":0.11666666666666359,"durationTicks":280,"midi":26,"name":"D1","ticks":77860,"time":31.550234666666668,"velocity":0.7874015748031497},{"duration":0.0416666666666643,"durationTicks":100,"midi":38,"name":"D2","ticks":78280,"time":31.72523466666667,"velocity":0.7874015748031497},{"duration":0.01666666666666572,"durationTicks":40,"midi":50,"name":"D3","ticks":78340,"time":31.750234666666667,"velocity":0.7874015748031497},{"duration":0.041666666666660745,"durationTicks":100,"midi":21,"name":"A0","ticks":78520,"time":31.82523466666667,"velocity":0.7874015748031497},{"duration":0.016666666666662167,"durationTicks":40,"midi":33,"name":"A1","ticks":78580,"time":31.85023466666667,"velocity":0.7874015748031497},{"duration":0.14166666666666572,"durationTicks":340,"midi":25,"name":"C#1","ticks":78760,"time":31.925234666666668,"velocity":0.7874015748031497},{"duration":0.11666666666666359,"durationTicks":280,"midi":37,"name":"C#2","ticks":78820,"time":31.95023466666667,"velocity":0.7874015748031497},{"duration":0.06666666666666288,"durationTicks":160,"midi":37,"name":"C#2","ticks":79240,"time":32.12523466666667,"velocity":0.7874015748031497},{"duration":0.0416666666666643,"durationTicks":100,"midi":49,"name":"C#3","ticks":79300,"time":32.15023466666667,"velocity":0.7874015748031497},{"duration":0.1416666666666586,"durationTicks":340,"midi":25,"name":"C#1","ticks":79720,"time":32.325234666666674,"velocity":0.7874015748031497},{"duration":0.11666666666666003,"durationTicks":280,"midi":37,"name":"C#2","ticks":79780,"time":32.35023466666667,"velocity":0.7874015748031497},{"duration":0.14166666666666572,"durationTicks":340,"midi":37,"name":"C#2","ticks":80200,"time":32.52523466666667,"velocity":0.7874015748031497},{"duration":0.11666666666666714,"durationTicks":280,"midi":49,"name":"C#3","ticks":80260,"time":32.55023466666667,"velocity":0.7874015748031497},{"duration":0.1416666666666586,"durationTicks":340,"midi":30,"name":"F#1","ticks":80680,"time":32.72523466666667,"velocity":0.7874015748031497},{"duration":0.11666666666666003,"durationTicks":280,"midi":42,"name":"F#2","ticks":80740,"time":32.75023466666667,"velocity":0.7874015748031497},{"duration":0.14166666666666572,"durationTicks":340,"midi":42,"name":"F#2","ticks":81160,"time":32.92523466666667,"velocity":0.7874015748031497},{"duration":0.11666666666666003,"durationTicks":280,"midi":54,"name":"F#3","ticks":81220,"time":32.950234666666674,"velocity":0.7874015748031497},{"duration":0.14166666666666572,"durationTicks":340,"midi":30,"name":"F#1","ticks":81640,"time":33.12523466666667,"velocity":0.7874015748031497},{"duration":0.11666666666666714,"durationTicks":280,"midi":42,"name":"F#2","ticks":81700,"time":33.15023466666667,"velocity":0.7874015748031497},{"duration":0.04166666666665719,"durationTicks":100,"midi":42,"name":"F#2","ticks":82120,"time":33.325234666666674,"velocity":0.7874015748031497},{"duration":0.016666666666658614,"durationTicks":40,"midi":54,"name":"F#3","ticks":82180,"time":33.35023466666667,"velocity":0.7874015748031497},{"duration":0.0416666666666643,"durationTicks":100,"midi":18,"name":"F#0","ticks":82360,"time":33.42523466666667,"velocity":0.7874015748031497},{"duration":0.016666666666658614,"durationTicks":40,"midi":30,"name":"F#1","ticks":82420,"time":33.450234666666674,"velocity":0.7874015748031497},{"duration":0.14166666666666572,"durationTicks":340,"midi":20,"name":"G#0","ticks":82600,"time":33.52523466666667,"velocity":0.7874015748031497},{"duration":0.11666666666666714,"durationTicks":280,"midi":32,"name":"G#1","ticks":82660,"time":33.55023466666667,"velocity":0.7874015748031497},{"duration":0.1416666666666586,"durationTicks":340,"midi":44,"name":"G#2","ticks":83080,"time":33.72523466666667,"velocity":0.7874015748031497},{"duration":0.11666666666666003,"durationTicks":280,"midi":56,"name":"G#3","ticks":83140,"time":33.75023466666667,"velocity":0.7874015748031497},{"duration":0.14166666666666572,"durationTicks":340,"midi":32,"name":"G#1","ticks":83560,"time":33.92523466666667,"velocity":0.7874015748031497},{"duration":0.11666666666666003,"durationTicks":280,"midi":44,"name":"G#2","ticks":83620,"time":33.950234666666674,"velocity":0.7874015748031497},{"duration":0.14166666666666572,"durationTicks":340,"midi":33,"name":"A1","ticks":84040,"time":34.12523466666667,"velocity":0.7874015748031497},{"duration":0.11666666666666714,"durationTicks":280,"midi":45,"name":"A2","ticks":84100,"time":34.15023466666667,"velocity":0.7874015748031497},{"duration":0.1416666666666586,"durationTicks":340,"midi":33,"name":"A1","ticks":84520,"time":34.325234666666674,"velocity":0.7874015748031497},{"duration":0.11666666666666003,"durationTicks":280,"midi":45,"name":"A2","ticks":84580,"time":34.35023466666667,"velocity":0.7874015748031497},{"duration":0.14166666666666572,"durationTicks":340,"midi":45,"name":"A2","ticks":85000,"time":34.52523466666667,"velocity":0.7874015748031497},{"duration":0.11666666666666714,"durationTicks":280,"midi":57,"name":"A3","ticks":85060,"time":34.55023466666667,"velocity":0.7874015748031497},{"duration":0.1416666666666586,"durationTicks":340,"midi":21,"name":"A0","ticks":85480,"time":34.72523466666667,"velocity":0.7874015748031497},{"duration":0.11666666666666003,"durationTicks":280,"midi":33,"name":"A1","ticks":85540,"time":34.75023466666667,"velocity":0.7874015748031497},{"duration":0.0416666666666643,"durationTicks":100,"midi":45,"name":"A2","ticks":85960,"time":34.92523466666667,"velocity":0.7874015748031497},{"duration":0.016666666666658614,"durationTicks":40,"midi":57,"name":"A3","ticks":86020,"time":34.950234666666674,"velocity":0.7874015748031497},{"duration":0.0416666666666643,"durationTicks":100,"midi":28,"name":"E1","ticks":86200,"time":35.02523466666667,"velocity":0.7874015748031497},{"duration":0.01666666666666572,"durationTicks":40,"midi":40,"name":"E2","ticks":86260,"time":35.05023466666667,"velocity":0.7874015748031497},{"duration":0.1666666666666643,"durationTicks":400,"midi":47,"name":"B2","ticks":86440,"time":35.12523466666667,"velocity":0.7874015748031497},{"duration":0.14166666666666572,"durationTicks":340,"midi":35,"name":"B1","ticks":86440,"time":35.12523466666667,"velocity":0.7874015748031497},{"duration":0.11666666666666714,"durationTicks":280,"midi":59,"name":"B3","ticks":86500,"time":35.15023466666667,"velocity":0.6062992125984252},{"duration":0.24166666666666714,"durationTicks":580,"midi":35,"name":"B1","ticks":87400,"time":35.52523466666667,"velocity":0.7874015748031497},{"duration":0.1666666666666643,"durationTicks":400,"midi":47,"name":"B2","ticks":87400,"time":35.52523466666667,"velocity":0.7874015748031497},{"duration":0.21666666666666856,"durationTicks":520,"midi":59,"name":"B3","ticks":87460,"time":35.55023466666667,"velocity":0.6141732283464567},{"duration":0.15833333333333854,"durationTicks":380,"midi":40,"name":"E2","ticks":149760,"time":61.508568000000004,"velocity":0.7874015748031497},{"duration":0.13333333333333997,"durationTicks":320,"midi":52,"name":"E3","ticks":149820,"time":61.533568,"velocity":0.7874015748031497},{"duration":0.15833333333333854,"durationTicks":380,"midi":52,"name":"E3","ticks":150240,"time":61.70856800000001,"velocity":0.7874015748031497},{"duration":0.13333333333333997,"durationTicks":320,"midi":64,"name":"E4","ticks":150300,"time":61.733568000000005,"velocity":0.7874015748031497},{"duration":0.15833333333333854,"durationTicks":380,"midi":40,"name":"E2","ticks":150720,"time":61.908568,"velocity":0.7874015748031497},{"duration":0.13333333333333286,"durationTicks":320,"midi":52,"name":"E3","ticks":150780,"time":61.93356800000001,"velocity":0.7874015748031497},{"duration":0.05833333333333712,"durationTicks":140,"midi":52,"name":"E3","ticks":151200,"time":62.108568000000005,"velocity":0.7874015748031497},{"duration":0.033333333333338544,"durationTicks":80,"midi":64,"name":"E4","ticks":151260,"time":62.133568000000004,"velocity":0.7874015748031497},{"duration":0.05833333333333712,"durationTicks":140,"midi":40,"name":"E2","ticks":151440,"time":62.20856800000001,"velocity":0.7874015748031497},{"duration":0.033333333333338544,"durationTicks":80,"midi":52,"name":"E3","ticks":151500,"time":62.233568000000005,"velocity":0.7874015748031497},{"duration":0.05833333333333712,"durationTicks":140,"midi":21,"name":"A0","ticks":151680,"time":62.30856800000001,"velocity":0.7874015748031497},{"duration":0.033333333333338544,"durationTicks":80,"midi":33,"name":"A1","ticks":151740,"time":62.33356800000001,"velocity":0.7874015748031497},{"duration":0.08333333333334281,"durationTicks":200,"midi":45,"name":"A2","ticks":151920,"time":62.408568,"velocity":0.7874015748031497},{"duration":0.05833333333333712,"durationTicks":140,"midi":57,"name":"A3","ticks":151980,"time":62.43356800000001,"velocity":0.7874015748031497},{"duration":0.15833333333333854,"durationTicks":380,"midi":21,"name":"A0","ticks":152160,"time":62.508568000000004,"velocity":0.7874015748031497},{"duration":0.13333333333333997,"durationTicks":320,"midi":33,"name":"A1","ticks":152220,"time":62.533568,"velocity":0.7874015748031497},{"duration":0.15833333333333854,"durationTicks":380,"midi":45,"name":"A2","ticks":152640,"time":62.70856800000001,"velocity":0.7874015748031497},{"duration":0.13333333333333997,"durationTicks":320,"midi":57,"name":"A3","ticks":152700,"time":62.733568000000005,"velocity":0.7874015748031497},{"duration":0.15833333333333854,"durationTicks":380,"midi":33,"name":"A1","ticks":153120,"time":62.908568,"velocity":0.7874015748031497},{"duration":0.13333333333333286,"durationTicks":320,"midi":45,"name":"A2","ticks":153180,"time":62.93356800000001,"velocity":0.7874015748031497},{"duration":0.15833333333333854,"durationTicks":380,"midi":38,"name":"D2","ticks":153600,"time":63.108568000000005,"velocity":0.7874015748031497},{"duration":0.13333333333333997,"durationTicks":320,"midi":50,"name":"D3","ticks":153660,"time":63.133568000000004,"velocity":0.7874015748031497},{"duration":0.15833333333333144,"durationTicks":380,"midi":50,"name":"D3","ticks":154080,"time":63.30856800000001,"velocity":0.7874015748031497},{"duration":0.13333333333333286,"durationTicks":320,"midi":62,"name":"D4","ticks":154140,"time":63.33356800000001,"velocity":0.7874015748031497},{"duration":0.15833333333333854,"durationTicks":380,"midi":26,"name":"D1","ticks":154560,"time":63.508568000000004,"velocity":0.7874015748031497},{"duration":0.13333333333333997,"durationTicks":320,"midi":38,"name":"D2","ticks":154620,"time":63.533568,"velocity":0.7874015748031497},{"duration":0.05833333333333712,"durationTicks":140,"midi":50,"name":"D3","ticks":155040,"time":63.70856800000001,"velocity":0.7874015748031497},{"duration":0.033333333333338544,"durationTicks":80,"midi":62,"name":"D4","ticks":155100,"time":63.733568000000005,"velocity":0.7874015748031497},{"duration":0.05833333333333712,"durationTicks":140,"midi":33,"name":"A1","ticks":155280,"time":63.80856800000001,"velocity":0.7874015748031497},{"duration":0.033333333333338544,"durationTicks":80,"midi":45,"name":"A2","ticks":155340,"time":63.83356800000001,"velocity":0.7874015748031497},{"duration":0.15833333333333144,"durationTicks":380,"midi":31,"name":"G1","ticks":155520,"time":63.908568,"velocity":0.7874015748031497},{"duration":0.13333333333332575,"durationTicks":320,"midi":43,"name":"G2","ticks":155580,"time":63.93356800000001,"velocity":0.7874015748031497},{"duration":0.0833333333333286,"durationTicks":200,"midi":43,"name":"G2","ticks":156000,"time":64.108568,"velocity":0.7874015748031497},{"duration":0.05833333333333712,"durationTicks":140,"midi":55,"name":"G3","ticks":156060,"time":64.133568,"velocity":0.7874015748031497},{"duration":0.15833333333333144,"durationTicks":380,"midi":31,"name":"G1","ticks":156480,"time":64.30856800000001,"velocity":0.7874015748031497},{"duration":0.13333333333333997,"durationTicks":320,"midi":43,"name":"G2","ticks":156540,"time":64.333568,"velocity":0.7874015748031497},{"duration":0.13333333333333997,"durationTicks":320,"midi":43,"name":"G2","ticks":156960,"time":64.508568,"velocity":0.7874015748031497},{"duration":0.10833333333333428,"durationTicks":260,"midi":55,"name":"G3","ticks":157020,"time":64.533568,"velocity":0.7874015748031497},{"duration":0.15833333333334565,"durationTicks":380,"midi":30,"name":"F#1","ticks":157440,"time":64.708568,"velocity":0.7874015748031497},{"duration":0.13333333333333997,"durationTicks":320,"midi":42,"name":"F#2","ticks":157500,"time":64.733568,"velocity":0.7874015748031497},{"duration":0.15833333333333144,"durationTicks":380,"midi":42,"name":"F#2","ticks":157920,"time":64.908568,"velocity":0.7874015748031497},{"duration":0.13333333333332575,"durationTicks":320,"midi":54,"name":"F#3","ticks":157980,"time":64.93356800000001,"velocity":0.7874015748031497},{"duration":0.15833333333333144,"durationTicks":380,"midi":30,"name":"F#1","ticks":158400,"time":65.108568,"velocity":0.7874015748031497},{"duration":0.13333333333333997,"durationTicks":320,"midi":42,"name":"F#2","ticks":158460,"time":65.133568,"velocity":0.7874015748031497},{"duration":0.05833333333333712,"durationTicks":140,"midi":42,"name":"F#2","ticks":158880,"time":65.30856800000001,"velocity":0.7874015748031497},{"duration":0.03333333333334565,"durationTicks":80,"midi":54,"name":"F#3","ticks":158940,"time":65.333568,"velocity":0.7874015748031497},{"duration":0.05833333333333712,"durationTicks":140,"midi":30,"name":"F#1","ticks":159120,"time":65.408568,"velocity":0.7874015748031497},{"duration":0.03333333333333144,"durationTicks":80,"midi":42,"name":"F#2","ticks":159180,"time":65.43356800000001,"velocity":0.7874015748031497},{"duration":0.05833333333333712,"durationTicks":140,"midi":20,"name":"G#0","ticks":159360,"time":65.508568,"velocity":0.7874015748031497},{"duration":0.03333333333333144,"durationTicks":80,"midi":32,"name":"G#1","ticks":159420,"time":65.533568,"velocity":0.7874015748031497},{"duration":0.0833333333333286,"durationTicks":200,"midi":44,"name":"G#2","ticks":159600,"time":65.608568,"velocity":0.7874015748031497},{"duration":0.05833333333333712,"durationTicks":140,"midi":56,"name":"G#3","ticks":159660,"time":65.633568,"velocity":0.7874015748031497},{"duration":0.15833333333334565,"durationTicks":380,"midi":20,"name":"G#0","ticks":159840,"time":65.708568,"velocity":0.7874015748031497},{"duration":0.13333333333333997,"durationTicks":320,"midi":32,"name":"G#1","ticks":159900,"time":65.733568,"velocity":0.7874015748031497},{"duration":0.15833333333333144,"durationTicks":380,"midi":44,"name":"G#2","ticks":160320,"time":65.908568,"velocity":0.7874015748031497},{"duration":0.13333333333332575,"durationTicks":320,"midi":56,"name":"G#3","ticks":160380,"time":65.93356800000001,"velocity":0.7874015748031497},{"duration":0.15833333333333144,"durationTicks":380,"midi":32,"name":"G#1","ticks":160800,"time":66.108568,"velocity":0.7874015748031497},{"duration":0.13333333333333997,"durationTicks":320,"midi":44,"name":"G#2","ticks":160860,"time":66.133568,"velocity":0.7874015748031497},{"duration":0.15833333333333144,"durationTicks":380,"midi":33,"name":"A1","ticks":161280,"time":66.30856800000001,"velocity":0.7874015748031497},{"duration":0.13333333333333997,"durationTicks":320,"midi":45,"name":"A2","ticks":161340,"time":66.333568,"velocity":0.7874015748031497},{"duration":0.15833333333334565,"durationTicks":380,"midi":45,"name":"A2","ticks":161760,"time":66.508568,"velocity":0.7874015748031497},{"duration":0.13333333333333997,"durationTicks":320,"midi":57,"name":"A3","ticks":161820,"time":66.533568,"velocity":0.7874015748031497},{"duration":0.15833333333334565,"durationTicks":380,"midi":21,"name":"A0","ticks":162240,"time":66.708568,"velocity":0.7874015748031497},{"duration":0.13333333333333997,"durationTicks":320,"midi":33,"name":"A1","ticks":162300,"time":66.733568,"velocity":0.7874015748031497},{"duration":0.05833333333333712,"durationTicks":140,"midi":45,"name":"A2","ticks":162720,"time":66.908568,"velocity":0.7874015748031497},{"duration":0.03333333333333144,"durationTicks":80,"midi":57,"name":"A3","ticks":162780,"time":66.93356800000001,"velocity":0.7874015748031497},{"duration":0.05833333333333712,"durationTicks":140,"midi":28,"name":"E1","ticks":162960,"time":67.008568,"velocity":0.7874015748031497},{"duration":0.03333333333333144,"durationTicks":80,"midi":40,"name":"E2","ticks":163020,"time":67.033568,"velocity":0.7874015748031497},{"duration":0.15833333333333144,"durationTicks":380,"midi":38,"name":"D2","ticks":163200,"time":67.108568,"velocity":0.7874015748031497},{"duration":0.13333333333333997,"durationTicks":320,"midi":50,"name":"D3","ticks":163260,"time":67.133568,"velocity":0.7874015748031497},{"duration":0.0833333333333286,"durationTicks":200,"midi":50,"name":"D3","ticks":163680,"time":67.30856800000001,"velocity":0.7874015748031497},{"duration":0.05833333333333712,"durationTicks":140,"midi":62,"name":"D4","ticks":163740,"time":67.333568,"velocity":0.7874015748031497},{"duration":0.15833333333334565,"durationTicks":380,"midi":38,"name":"D2","ticks":164160,"time":67.508568,"velocity":0.7874015748031497},{"duration":0.13333333333333997,"durationTicks":320,"midi":50,"name":"D3","ticks":164220,"time":67.533568,"velocity":0.7874015748031497},{"duration":0.13333333333333997,"durationTicks":320,"midi":50,"name":"D3","ticks":164640,"time":67.708568,"velocity":0.7874015748031497},{"duration":0.10833333333333428,"durationTicks":260,"midi":62,"name":"D4","ticks":164700,"time":67.733568,"velocity":0.7874015748031497},{"duration":0.15833333333334565,"durationTicks":380,"midi":40,"name":"E2","ticks":165120,"time":67.908568,"velocity":0.7874015748031497},{"duration":0.13333333333333997,"durationTicks":320,"midi":52,"name":"E3","ticks":165180,"time":67.93356800000001,"velocity":0.7874015748031497},{"duration":0.15833333333333144,"durationTicks":380,"midi":52,"name":"E3","ticks":165600,"time":68.108568,"velocity":0.7874015748031497},{"duration":0.13333333333332575,"durationTicks":320,"midi":64,"name":"E4","ticks":165660,"time":68.13356800000001,"velocity":0.7874015748031497},{"duration":0.15833333333333144,"durationTicks":380,"midi":40,"name":"E2","ticks":166080,"time":68.30856800000001,"velocity":0.7874015748031497},{"duration":0.13333333333333997,"durationTicks":320,"midi":52,"name":"E3","ticks":166140,"time":68.333568,"velocity":0.7874015748031497},{"duration":0.05833333333333712,"durationTicks":140,"midi":52,"name":"E3","ticks":166560,"time":68.50856800000001,"velocity":0.7874015748031497},{"duration":0.03333333333334565,"durationTicks":80,"midi":64,"name":"E4","ticks":166620,"time":68.533568,"velocity":0.7874015748031497},{"duration":0.05833333333333712,"durationTicks":140,"midi":40,"name":"E2","ticks":166800,"time":68.608568,"velocity":0.7874015748031497},{"duration":0.03333333333333144,"durationTicks":80,"midi":52,"name":"E3","ticks":166860,"time":68.63356800000001,"velocity":0.7874015748031497},{"duration":0.05833333333333712,"durationTicks":140,"midi":21,"name":"A0","ticks":167040,"time":68.708568,"velocity":0.7874015748031497},{"duration":0.03333333333333144,"durationTicks":80,"midi":33,"name":"A1","ticks":167100,"time":68.733568,"velocity":0.7874015748031497},{"duration":0.0833333333333286,"durationTicks":200,"midi":45,"name":"A2","ticks":167280,"time":68.80856800000001,"velocity":0.7874015748031497},{"duration":0.05833333333333712,"durationTicks":140,"midi":57,"name":"A3","ticks":167340,"time":68.833568,"velocity":0.7874015748031497},{"duration":0.15833333333334565,"durationTicks":380,"midi":21,"name":"A0","ticks":167520,"time":68.908568,"velocity":0.7874015748031497},{"duration":0.13333333333333997,"durationTicks":320,"midi":33,"name":"A1","ticks":167580,"time":68.93356800000001,"velocity":0.7874015748031497},{"duration":0.15833333333333144,"durationTicks":380,"midi":45,"name":"A2","ticks":168000,"time":69.108568,"velocity":0.7874015748031497},{"duration":0.13333333333332575,"durationTicks":320,"midi":57,"name":"A3","ticks":168060,"time":69.13356800000001,"velocity":0.7874015748031497},{"duration":0.15833333333333144,"durationTicks":380,"midi":33,"name":"A1","ticks":168480,"time":69.30856800000001,"velocity":0.7874015748031497},{"duration":0.13333333333333997,"durationTicks":320,"midi":45,"name":"A2","ticks":168540,"time":69.333568,"velocity":0.7874015748031497},{"duration":0.15833333333333144,"durationTicks":380,"midi":38,"name":"D2","ticks":168960,"time":69.50856800000001,"velocity":0.7874015748031497},{"duration":0.13333333333333997,"durationTicks":320,"midi":50,"name":"D3","ticks":169020,"time":69.533568,"velocity":0.7874015748031497},{"duration":0.15833333333334565,"durationTicks":380,"midi":50,"name":"D3","ticks":169440,"time":69.708568,"velocity":0.7874015748031497},{"duration":0.13333333333333997,"durationTicks":320,"midi":62,"name":"D4","ticks":169500,"time":69.733568,"velocity":0.7874015748031497},{"duration":0.15833333333334565,"durationTicks":380,"midi":26,"name":"D1","ticks":169920,"time":69.908568,"velocity":0.7874015748031497},{"duration":0.13333333333333997,"durationTicks":320,"midi":38,"name":"D2","ticks":169980,"time":69.93356800000001,"velocity":0.7874015748031497},{"duration":0.05833333333333712,"durationTicks":140,"midi":50,"name":"D3","ticks":170400,"time":70.108568,"velocity":0.7874015748031497},{"duration":0.03333333333333144,"durationTicks":80,"midi":62,"name":"D4","ticks":170460,"time":70.13356800000001,"velocity":0.7874015748031497},{"duration":0.05833333333333712,"durationTicks":140,"midi":33,"name":"A1","ticks":170640,"time":70.208568,"velocity":0.7874015748031497},{"duration":0.03333333333333144,"durationTicks":80,"midi":45,"name":"A2","ticks":170700,"time":70.233568,"velocity":0.7874015748031497},{"duration":0.15833333333333144,"durationTicks":380,"midi":31,"name":"G1","ticks":170880,"time":70.30856800000001,"velocity":0.7874015748031497},{"duration":0.13333333333333997,"durationTicks":320,"midi":43,"name":"G2","ticks":170940,"time":70.333568,"velocity":0.7874015748031497},{"duration":0.0833333333333286,"durationTicks":200,"midi":43,"name":"G2","ticks":171360,"time":70.50856800000001,"velocity":0.7874015748031497},{"duration":0.05833333333333712,"durationTicks":140,"midi":55,"name":"G3","ticks":171420,"time":70.533568,"velocity":0.7874015748031497},{"duration":0.15833333333334565,"durationTicks":380,"midi":31,"name":"G1","ticks":171840,"time":70.708568,"velocity":0.7874015748031497},{"duration":0.13333333333333997,"durationTicks":320,"midi":43,"name":"G2","ticks":171900,"time":70.733568,"velocity":0.7874015748031497},{"duration":0.13333333333333997,"durationTicks":320,"midi":43,"name":"G2","ticks":172320,"time":70.908568,"velocity":0.7874015748031497},{"duration":0.10833333333333428,"durationTicks":260,"midi":55,"name":"G3","ticks":172380,"time":70.93356800000001,"velocity":0.7874015748031497},{"duration":0.15833333333333144,"durationTicks":380,"midi":36,"name":"C2","ticks":172800,"time":71.108568,"velocity":0.7874015748031497},{"duration":0.13333333333332575,"durationTicks":320,"midi":48,"name":"C3","ticks":172860,"time":71.13356800000001,"velocity":0.7874015748031497},{"duration":0.15833333333333144,"durationTicks":380,"midi":48,"name":"C3","ticks":173280,"time":71.30856800000001,"velocity":0.7874015748031497},{"duration":0.13333333333333997,"durationTicks":320,"midi":60,"name":"C4","ticks":173340,"time":71.333568,"velocity":0.7874015748031497},{"duration":0.15833333333333144,"durationTicks":380,"midi":36,"name":"C2","ticks":173760,"time":71.50856800000001,"velocity":0.7874015748031497},{"duration":0.13333333333333997,"durationTicks":320,"midi":48,"name":"C3","ticks":173820,"time":71.533568,"velocity":0.7874015748031497},{"duration":0.05833333333333712,"durationTicks":140,"midi":48,"name":"C3","ticks":174240,"time":71.708568,"velocity":0.7874015748031497},{"duration":0.03333333333333144,"durationTicks":80,"midi":60,"name":"C4","ticks":174300,"time":71.733568,"velocity":0.7874015748031497},{"duration":0.05833333333333712,"durationTicks":140,"midi":36,"name":"C2","ticks":174480,"time":71.80856800000001,"velocity":0.7874015748031497},{"duration":0.03333333333334565,"durationTicks":80,"midi":48,"name":"C3","ticks":174540,"time":71.833568,"velocity":0.7874015748031497},{"duration":0.05833333333333712,"durationTicks":140,"midi":26,"name":"D1","ticks":174720,"time":71.908568,"velocity":0.7874015748031497},{"duration":0.03333333333333144,"durationTicks":80,"midi":38,"name":"D2","ticks":174780,"time":71.93356800000001,"velocity":0.7874015748031497},{"duration":0.0833333333333286,"durationTicks":200,"midi":50,"name":"D3","ticks":174960,"time":72.00856800000001,"velocity":0.7874015748031497},{"duration":0.05833333333333712,"durationTicks":140,"midi":62,"name":"D4","ticks":175020,"time":72.033568,"velocity":0.7874015748031497},{"duration":0.15833333333333144,"durationTicks":380,"midi":26,"name":"D1","ticks":175200,"time":72.108568,"velocity":0.7874015748031497},{"duration":0.13333333333332575,"durationTicks":320,"midi":38,"name":"D2","ticks":175260,"time":72.13356800000001,"velocity":0.7874015748031497},{"duration":0.15833333333333144,"durationTicks":380,"midi":50,"name":"D3","ticks":175680,"time":72.30856800000001,"velocity":0.7874015748031497},{"duration":0.13333333333333997,"durationTicks":320,"midi":62,"name":"D4","ticks":175740,"time":72.333568,"velocity":0.7874015748031497},{"duration":0.15833333333333144,"durationTicks":380,"midi":38,"name":"D2","ticks":176160,"time":72.50856800000001,"velocity":0.7874015748031497},{"duration":0.13333333333333997,"durationTicks":320,"midi":50,"name":"D3","ticks":176220,"time":72.533568,"velocity":0.7874015748031497},{"duration":0.15833333333334565,"durationTicks":380,"midi":35,"name":"B1","ticks":176640,"time":72.708568,"velocity":0.7874015748031497},{"duration":0.13333333333333997,"durationTicks":320,"midi":47,"name":"B2","ticks":176700,"time":72.733568,"velocity":0.7874015748031497},{"duration":0.15833333333334565,"durationTicks":380,"midi":47,"name":"B2","ticks":177120,"time":72.908568,"velocity":0.7874015748031497},{"duration":0.13333333333333997,"durationTicks":320,"midi":59,"name":"B3","ticks":177180,"time":72.93356800000001,"velocity":0.7874015748031497},{"duration":0.15833333333333144,"durationTicks":380,"midi":35,"name":"B1","ticks":177600,"time":73.108568,"velocity":0.7874015748031497},{"duration":0.13333333333332575,"durationTicks":320,"midi":47,"name":"B2","ticks":177660,"time":73.13356800000001,"velocity":0.7874015748031497},{"duration":0.05833333333333712,"durationTicks":140,"midi":47,"name":"B2","ticks":178080,"time":73.30856800000001,"velocity":0.7874015748031497},{"duration":0.03333333333334565,"durationTicks":80,"midi":59,"name":"B3","ticks":178140,"time":73.333568,"velocity":0.7874015748031497},{"duration":0.05833333333333712,"durationTicks":140,"midi":35,"name":"B1","ticks":178320,"time":73.408568,"velocity":0.7874015748031497},{"duration":0.03333333333333144,"durationTicks":80,"midi":47,"name":"B2","ticks":178380,"time":73.43356800000001,"velocity":0.7874015748031497},{"duration":0.05833333333333712,"durationTicks":140,"midi":28,"name":"E1","ticks":178560,"time":73.50856800000001,"velocity":0.7874015748031497},{"duration":0.03333333333334565,"durationTicks":80,"midi":40,"name":"E2","ticks":178620,"time":73.533568,"velocity":0.7874015748031497},{"duration":0.08333333333334281,"durationTicks":200,"midi":52,"name":"E3","ticks":178800,"time":73.608568,"velocity":0.7874015748031497},{"duration":0.05833333333333712,"durationTicks":140,"midi":64,"name":"E4","ticks":178860,"time":73.63356800000001,"velocity":0.7874015748031497},{"duration":0.20000000000000284,"durationTicks":480,"midi":40,"name":"E2","ticks":179040,"time":73.708568,"velocity":0.7874015748031497},{"duration":0.14999999999999147,"durationTicks":360,"midi":52,"name":"E3","ticks":179160,"time":73.75856800000001,"velocity":0.7874015748031497},{"duration":0.15833333333334565,"durationTicks":380,"midi":28,"name":"E1","ticks":179520,"time":73.908568,"velocity":0.7874015748031497},{"duration":0.13333333333333997,"durationTicks":320,"midi":52,"name":"E3","ticks":179580,"time":73.93356800000001,"velocity":0.7874015748031497},{"duration":0.15833333333333144,"durationTicks":380,"midi":40,"name":"E2","ticks":180000,"time":74.108568,"velocity":0.7874015748031497},{"duration":0.13333333333332575,"durationTicks":320,"midi":64,"name":"E4","ticks":180060,"time":74.13356800000001,"velocity":0.7874015748031497},{"duration":0.15833333333333144,"durationTicks":380,"midi":40,"name":"E2","ticks":180480,"time":74.30856800000001,"velocity":0.7874015748031497},{"duration":0.13333333333333997,"durationTicks":320,"midi":52,"name":"E3","ticks":180540,"time":74.333568,"velocity":0.7874015748031497},{"duration":0.15833333333333144,"durationTicks":380,"midi":52,"name":"E3","ticks":180960,"time":74.50856800000001,"velocity":0.7874015748031497},{"duration":0.13333333333333997,"durationTicks":320,"midi":64,"name":"E4","ticks":181020,"time":74.533568,"velocity":0.7874015748031497},{"duration":0.15833333333334565,"durationTicks":380,"midi":40,"name":"E2","ticks":181440,"time":74.708568,"velocity":0.7874015748031497},{"duration":0.13333333333333997,"durationTicks":320,"midi":52,"name":"E3","ticks":181500,"time":74.733568,"velocity":0.7874015748031497},{"duration":0.05833333333333712,"durationTicks":140,"midi":52,"name":"E3","ticks":181920,"time":74.908568,"velocity":0.7874015748031497},{"duration":0.03333333333333144,"durationTicks":80,"midi":64,"name":"E4","ticks":181980,"time":74.93356800000001,"velocity":0.7874015748031497},{"duration":0.05833333333333712,"durationTicks":140,"midi":40,"name":"E2","ticks":182160,"time":75.00856800000001,"velocity":0.7874015748031497},{"duration":0.03333333333334565,"durationTicks":80,"midi":52,"name":"E3","ticks":182220,"time":75.033568,"velocity":0.7874015748031497},{"duration":0.05833333333333712,"durationTicks":140,"midi":21,"name":"A0","ticks":182400,"time":75.108568,"velocity":0.7874015748031497},{"duration":0.03333333333333144,"durationTicks":80,"midi":33,"name":"A1","ticks":182460,"time":75.13356800000001,"velocity":0.7874015748031497},{"duration":0.08333333333334281,"durationTicks":200,"midi":45,"name":"A2","ticks":182640,"time":75.208568,"velocity":0.7874015748031497},{"duration":0.05833333333333712,"durationTicks":140,"midi":57,"name":"A3","ticks":182700,"time":75.233568,"velocity":0.7874015748031497},{"duration":0.15833333333333144,"durationTicks":380,"midi":21,"name":"A0","ticks":182880,"time":75.30856800000001,"velocity":0.7874015748031497},{"duration":0.13333333333333997,"durationTicks":320,"midi":33,"name":"A1","ticks":182940,"time":75.333568,"velocity":0.7874015748031497},{"duration":0.15833333333333144,"durationTicks":380,"midi":45,"name":"A2","ticks":183360,"time":75.50856800000001,"velocity":0.7874015748031497},{"duration":0.13333333333333997,"durationTicks":320,"midi":57,"name":"A3","ticks":183420,"time":75.533568,"velocity":0.7874015748031497},{"duration":0.15833333333334565,"durationTicks":380,"midi":33,"name":"A1","ticks":183840,"time":75.708568,"velocity":0.7874015748031497},{"duration":0.13333333333333997,"durationTicks":320,"midi":45,"name":"A2","ticks":183900,"time":75.733568,"velocity":0.7874015748031497},{"duration":0.15833333333334565,"durationTicks":380,"midi":38,"name":"D2","ticks":184320,"time":75.908568,"velocity":0.7874015748031497},{"duration":0.13333333333333997,"durationTicks":320,"midi":50,"name":"D3","ticks":184380,"time":75.93356800000001,"velocity":0.7874015748031497},{"duration":0.15833333333333144,"durationTicks":380,"midi":50,"name":"D3","ticks":184800,"time":76.108568,"velocity":0.7874015748031497},{"duration":0.13333333333332575,"durationTicks":320,"midi":62,"name":"D4","ticks":184860,"time":76.13356800000001,"velocity":0.7874015748031497},{"duration":0.15833333333333144,"durationTicks":380,"midi":26,"name":"D1","ticks":185280,"time":76.30856800000001,"velocity":0.7874015748031497},{"duration":0.13333333333333997,"durationTicks":320,"midi":38,"name":"D2","ticks":185340,"time":76.333568,"velocity":0.7874015748031497},{"duration":0.05833333333333712,"durationTicks":140,"midi":50,"name":"D3","ticks":185760,"time":76.50856800000001,"velocity":0.7874015748031497},{"duration":0.03333333333334565,"durationTicks":80,"midi":62,"name":"D4","ticks":185820,"time":76.533568,"velocity":0.7874015748031497},{"duration":0.05833333333333712,"durationTicks":140,"midi":33,"name":"A1","ticks":186000,"time":76.608568,"velocity":0.7874015748031497},{"duration":0.03333333333333144,"durationTicks":80,"midi":45,"name":"A2","ticks":186060,"time":76.63356800000001,"velocity":0.7874015748031497},{"duration":0.15833333333334565,"durationTicks":380,"midi":31,"name":"G1","ticks":186240,"time":76.708568,"velocity":0.7874015748031497},{"duration":0.13333333333333997,"durationTicks":320,"midi":43,"name":"G2","ticks":186300,"time":76.733568,"velocity":0.7874015748031497},{"duration":0.08333333333334281,"durationTicks":200,"midi":43,"name":"G2","ticks":186720,"time":76.908568,"velocity":0.7874015748031497},{"duration":0.05833333333333712,"durationTicks":140,"midi":55,"name":"G3","ticks":186780,"time":76.93356800000001,"velocity":0.7874015748031497},{"duration":0.15833333333333144,"durationTicks":380,"midi":31,"name":"G1","ticks":187200,"time":77.108568,"velocity":0.7874015748031497},{"duration":0.13333333333332575,"durationTicks":320,"midi":43,"name":"G2","ticks":187260,"time":77.13356800000001,"velocity":0.7874015748031497},{"duration":0.13333333333333997,"durationTicks":320,"midi":43,"name":"G2","ticks":187680,"time":77.30856800000001,"velocity":0.7874015748031497},{"duration":0.10833333333334849,"durationTicks":260,"midi":55,"name":"G3","ticks":187740,"time":77.333568,"velocity":0.7874015748031497},{"duration":0.15833333333333144,"durationTicks":380,"midi":30,"name":"F#1","ticks":188160,"time":77.50856800000001,"velocity":0.7874015748031497},{"duration":0.13333333333333997,"durationTicks":320,"midi":42,"name":"F#2","ticks":188220,"time":77.533568,"velocity":0.7874015748031497},{"duration":0.15833333333334565,"durationTicks":380,"midi":42,"name":"F#2","ticks":188640,"time":77.708568,"velocity":0.7874015748031497},{"duration":0.13333333333333997,"durationTicks":320,"midi":54,"name":"F#3","ticks":188700,"time":77.733568,"velocity":0.7874015748031497},{"duration":0.15833333333334565,"durationTicks":380,"midi":30,"name":"F#1","ticks":189120,"time":77.908568,"velocity":0.7874015748031497},{"duration":0.13333333333333997,"durationTicks":320,"midi":42,"name":"F#2","ticks":189180,"time":77.93356800000001,"velocity":0.7874015748031497},{"duration":0.05833333333333712,"durationTicks":140,"midi":42,"name":"F#2","ticks":189600,"time":78.108568,"velocity":0.7874015748031497},{"duration":0.03333333333333144,"durationTicks":80,"midi":54,"name":"F#3","ticks":189660,"time":78.13356800000001,"velocity":0.7874015748031497},{"duration":0.05833333333333712,"durationTicks":140,"midi":30,"name":"F#1","ticks":189840,"time":78.208568,"velocity":0.7874015748031497},{"duration":0.03333333333333144,"durationTicks":80,"midi":42,"name":"F#2","ticks":189900,"time":78.233568,"velocity":0.7874015748031497},{"duration":0.05833333333333712,"durationTicks":140,"midi":20,"name":"G#0","ticks":190080,"time":78.30856800000001,"velocity":0.7874015748031497},{"duration":0.03333333333334565,"durationTicks":80,"midi":32,"name":"G#1","ticks":190140,"time":78.333568,"velocity":0.7874015748031497},{"duration":0.08333333333334281,"durationTicks":200,"midi":44,"name":"G#2","ticks":190320,"time":78.408568,"velocity":0.7874015748031497},{"duration":0.05833333333333712,"durationTicks":140,"midi":56,"name":"G#3","ticks":190380,"time":78.43356800000001,"velocity":0.7874015748031497},{"duration":0.15833333333333144,"durationTicks":380,"midi":20,"name":"G#0","ticks":190560,"time":78.50856800000001,"velocity":0.7874015748031497},{"duration":0.13333333333333997,"durationTicks":320,"midi":32,"name":"G#1","ticks":190620,"time":78.533568,"velocity":0.7874015748031497},{"duration":0.15833333333334565,"durationTicks":380,"midi":44,"name":"G#2","ticks":191040,"time":78.708568,"velocity":0.7874015748031497},{"duration":0.13333333333333997,"durationTicks":320,"midi":56,"name":"G#3","ticks":191100,"time":78.733568,"velocity":0.7874015748031497},{"duration":0.15833333333334565,"durationTicks":380,"midi":32,"name":"G#1","ticks":191520,"time":78.908568,"velocity":0.7874015748031497},{"duration":0.13333333333333997,"durationTicks":320,"midi":44,"name":"G#2","ticks":191580,"time":78.93356800000001,"velocity":0.7874015748031497},{"duration":0.15833333333333144,"durationTicks":380,"midi":33,"name":"A1","ticks":192000,"time":79.108568,"velocity":0.7874015748031497},{"duration":0.13333333333332575,"durationTicks":320,"midi":45,"name":"A2","ticks":192060,"time":79.13356800000001,"velocity":0.7874015748031497},{"duration":0.15833333333333144,"durationTicks":380,"midi":45,"name":"A2","ticks":192480,"time":79.30856800000001,"velocity":0.7874015748031497},{"duration":0.13333333333333997,"durationTicks":320,"midi":57,"name":"A3","ticks":192540,"time":79.333568,"velocity":0.7874015748031497},{"duration":0.15833333333333144,"durationTicks":380,"midi":21,"name":"A0","ticks":192960,"time":79.50856800000001,"velocity":0.7874015748031497},{"duration":0.13333333333333997,"durationTicks":320,"midi":33,"name":"A1","ticks":193020,"time":79.533568,"velocity":0.7874015748031497},{"duration":0.05833333333333712,"durationTicks":140,"midi":45,"name":"A2","ticks":193440,"time":79.708568,"velocity":0.7874015748031497},{"duration":0.03333333333333144,"durationTicks":80,"midi":57,"name":"A3","ticks":193500,"time":79.733568,"velocity":0.7874015748031497},{"duration":0.05833333333333712,"durationTicks":140,"midi":28,"name":"E1","ticks":193680,"time":79.80856800000001,"velocity":0.7874015748031497},{"duration":0.03333333333334565,"durationTicks":80,"midi":40,"name":"E2","ticks":193740,"time":79.833568,"velocity":0.7874015748031497},{"duration":0.15833333333334565,"durationTicks":380,"midi":38,"name":"D2","ticks":193920,"time":79.908568,"velocity":0.7874015748031497},{"duration":0.13333333333333997,"durationTicks":320,"midi":50,"name":"D3","ticks":193980,"time":79.93356800000001,"velocity":0.7874015748031497},{"duration":0.08333333333334281,"durationTicks":200,"midi":50,"name":"D3","ticks":194400,"time":80.108568,"velocity":0.7874015748031497},{"duration":0.05833333333333712,"durationTicks":140,"midi":62,"name":"D4","ticks":194460,"time":80.13356800000001,"velocity":0.7874015748031497},{"duration":0.15833333333333144,"durationTicks":380,"midi":38,"name":"D2","ticks":194880,"time":80.30856800000001,"velocity":0.7874015748031497},{"duration":0.13333333333333997,"durationTicks":320,"midi":50,"name":"D3","ticks":194940,"time":80.333568,"velocity":0.7874015748031497},{"duration":0.13333333333332575,"durationTicks":320,"midi":50,"name":"D3","ticks":195360,"time":80.50856800000001,"velocity":0.7874015748031497},{"duration":0.10833333333333428,"durationTicks":260,"midi":62,"name":"D4","ticks":195420,"time":80.533568,"velocity":0.7874015748031497},{"duration":0.15833333333333144,"durationTicks":380,"midi":40,"name":"E2","ticks":195840,"time":80.70856800000001,"velocity":0.7874015748031497},{"duration":0.13333333333333997,"durationTicks":320,"midi":52,"name":"E3","ticks":195900,"time":80.733568,"velocity":0.7874015748031497},{"duration":0.15833333333334565,"durationTicks":380,"midi":52,"name":"E3","ticks":196320,"time":80.908568,"velocity":0.7874015748031497},{"duration":0.13333333333333997,"durationTicks":320,"midi":64,"name":"E4","ticks":196380,"time":80.93356800000001,"velocity":0.7874015748031497},{"duration":0.15833333333334565,"durationTicks":380,"midi":40,"name":"E2","ticks":196800,"time":81.108568,"velocity":0.7874015748031497},{"duration":0.13333333333333997,"durationTicks":320,"midi":52,"name":"E3","ticks":196860,"time":81.13356800000001,"velocity":0.7874015748031497},{"duration":0.05833333333333712,"durationTicks":140,"midi":52,"name":"E3","ticks":197280,"time":81.30856800000001,"velocity":0.7874015748031497},{"duration":0.03333333333333144,"durationTicks":80,"midi":64,"name":"E4","ticks":197340,"time":81.33356800000001,"velocity":0.7874015748031497},{"duration":0.05833333333333712,"durationTicks":140,"midi":40,"name":"E2","ticks":197520,"time":81.408568,"velocity":0.7874015748031497},{"duration":0.03333333333333144,"durationTicks":80,"midi":52,"name":"E3","ticks":197580,"time":81.43356800000001,"velocity":0.7874015748031497},{"duration":0.05833333333333712,"durationTicks":140,"midi":21,"name":"A0","ticks":197760,"time":81.50856800000001,"velocity":0.7874015748031497},{"duration":0.03333333333334565,"durationTicks":80,"midi":33,"name":"A1","ticks":197820,"time":81.533568,"velocity":0.7874015748031497},{"duration":0.08333333333334281,"durationTicks":200,"midi":45,"name":"A2","ticks":198000,"time":81.608568,"velocity":0.7874015748031497},{"duration":0.05833333333333712,"durationTicks":140,"midi":57,"name":"A3","ticks":198060,"time":81.63356800000001,"velocity":0.7874015748031497},{"duration":0.15833333333333144,"durationTicks":380,"midi":21,"name":"A0","ticks":198240,"time":81.70856800000001,"velocity":0.7874015748031497},{"duration":0.13333333333333997,"durationTicks":320,"midi":33,"name":"A1","ticks":198300,"time":81.733568,"velocity":0.7874015748031497},{"duration":0.15833333333334565,"durationTicks":380,"midi":45,"name":"A2","ticks":198720,"time":81.908568,"velocity":0.7874015748031497},{"duration":0.13333333333333997,"durationTicks":320,"midi":57,"name":"A3","ticks":198780,"time":81.93356800000001,"velocity":0.7874015748031497},{"duration":0.15833333333334565,"durationTicks":380,"midi":33,"name":"A1","ticks":199200,"time":82.108568,"velocity":0.7874015748031497},{"duration":0.13333333333333997,"durationTicks":320,"midi":45,"name":"A2","ticks":199260,"time":82.13356800000001,"velocity":0.7874015748031497},{"duration":0.15833333333333144,"durationTicks":380,"midi":38,"name":"D2","ticks":199680,"time":82.30856800000001,"velocity":0.7874015748031497},{"duration":0.13333333333332575,"durationTicks":320,"midi":50,"name":"D3","ticks":199740,"time":82.33356800000001,"velocity":0.7874015748031497},{"duration":0.15833333333333144,"durationTicks":380,"midi":50,"name":"D3","ticks":200160,"time":82.50856800000001,"velocity":0.7874015748031497},{"duration":0.13333333333333997,"durationTicks":320,"midi":62,"name":"D4","ticks":200220,"time":82.533568,"velocity":0.7874015748031497},{"duration":0.15833333333333144,"durationTicks":380,"midi":26,"name":"D1","ticks":200640,"time":82.70856800000001,"velocity":0.7874015748031497},{"duration":0.13333333333333997,"durationTicks":320,"midi":38,"name":"D2","ticks":200700,"time":82.733568,"velocity":0.7874015748031497},{"duration":0.05833333333333712,"durationTicks":140,"midi":50,"name":"D3","ticks":201120,"time":82.908568,"velocity":0.7874015748031497},{"duration":0.03333333333333144,"durationTicks":80,"midi":62,"name":"D4","ticks":201180,"time":82.93356800000001,"velocity":0.7874015748031497},{"duration":0.05833333333333712,"durationTicks":140,"midi":33,"name":"A1","ticks":201360,"time":83.00856800000001,"velocity":0.7874015748031497},{"duration":0.03333333333334565,"durationTicks":80,"midi":45,"name":"A2","ticks":201420,"time":83.033568,"velocity":0.7874015748031497},{"duration":0.15833333333334565,"durationTicks":380,"midi":31,"name":"G1","ticks":201600,"time":83.108568,"velocity":0.7874015748031497},{"duration":0.13333333333333997,"durationTicks":320,"midi":43,"name":"G2","ticks":201660,"time":83.13356800000001,"velocity":0.7874015748031497},{"duration":0.08333333333334281,"durationTicks":200,"midi":43,"name":"G2","ticks":202080,"time":83.30856800000001,"velocity":0.7874015748031497},{"duration":0.05833333333333712,"durationTicks":140,"midi":55,"name":"G3","ticks":202140,"time":83.33356800000001,"velocity":0.7874015748031497},{"duration":0.15833333333333144,"durationTicks":380,"midi":31,"name":"G1","ticks":202560,"time":83.50856800000001,"velocity":0.7874015748031497},{"duration":0.13333333333333997,"durationTicks":320,"midi":43,"name":"G2","ticks":202620,"time":83.533568,"velocity":0.7874015748031497},{"duration":0.13333333333332575,"durationTicks":320,"midi":43,"name":"G2","ticks":203040,"time":83.70856800000001,"velocity":0.7874015748031497},{"duration":0.10833333333333428,"durationTicks":260,"midi":55,"name":"G3","ticks":203100,"time":83.733568,"velocity":0.7874015748031497},{"duration":0.15833333333334565,"durationTicks":380,"midi":33,"name":"A1","ticks":203520,"time":83.908568,"velocity":0.7874015748031497},{"duration":0.13333333333333997,"durationTicks":320,"midi":45,"name":"A2","ticks":203580,"time":83.93356800000001,"velocity":0.7874015748031497},{"duration":0.15833333333334565,"durationTicks":380,"midi":45,"name":"A2","ticks":204000,"time":84.108568,"velocity":0.7874015748031497},{"duration":0.13333333333333997,"durationTicks":320,"midi":57,"name":"A3","ticks":204060,"time":84.13356800000001,"velocity":0.7874015748031497},{"duration":0.15833333333333144,"durationTicks":380,"midi":33,"name":"A1","ticks":204480,"time":84.30856800000001,"velocity":0.7874015748031497},{"duration":0.13333333333332575,"durationTicks":320,"midi":45,"name":"A2","ticks":204540,"time":84.33356800000001,"velocity":0.7874015748031497},{"duration":0.05833333333333712,"durationTicks":140,"midi":45,"name":"A2","ticks":204960,"time":84.50856800000001,"velocity":0.7874015748031497},{"duration":0.03333333333334565,"durationTicks":80,"midi":57,"name":"A3","ticks":205020,"time":84.533568,"velocity":0.7874015748031497},{"duration":0.05833333333333712,"durationTicks":140,"midi":33,"name":"A1","ticks":205200,"time":84.608568,"velocity":0.7874015748031497},{"duration":0.03333333333333144,"durationTicks":80,"midi":45,"name":"A2","ticks":205260,"time":84.63356800000001,"velocity":0.7874015748031497},{"duration":0.05833333333333712,"durationTicks":140,"midi":23,"name":"B0","ticks":205440,"time":84.70856800000001,"velocity":0.7874015748031497},{"duration":0.03333333333334565,"durationTicks":80,"midi":35,"name":"B1","ticks":205500,"time":84.733568,"velocity":0.7874015748031497},{"duration":0.08333333333334281,"durationTicks":200,"midi":47,"name":"B2","ticks":205680,"time":84.80856800000001,"velocity":0.7874015748031497},{"duration":0.05833333333333712,"durationTicks":140,"midi":59,"name":"B3","ticks":205740,"time":84.83356800000001,"velocity":0.7874015748031497},{"duration":0.15833333333334565,"durationTicks":380,"midi":23,"name":"B0","ticks":205920,"time":84.908568,"velocity":0.7874015748031497},{"duration":0.13333333333333997,"durationTicks":320,"midi":35,"name":"B1","ticks":205980,"time":84.93356800000001,"velocity":0.7874015748031497},{"duration":0.15833333333334565,"durationTicks":380,"midi":47,"name":"B2","ticks":206400,"time":85.108568,"velocity":0.7874015748031497},{"duration":0.13333333333333997,"durationTicks":320,"midi":59,"name":"B3","ticks":206460,"time":85.13356800000001,"velocity":0.7874015748031497},{"duration":0.15833333333333144,"durationTicks":380,"midi":35,"name":"B1","ticks":206880,"time":85.30856800000001,"velocity":0.7874015748031497},{"duration":0.13333333333332575,"durationTicks":320,"midi":47,"name":"B2","ticks":206940,"time":85.33356800000001,"velocity":0.7874015748031497},{"duration":0.15833333333333144,"durationTicks":380,"midi":29,"name":"F1","ticks":207360,"time":85.50856800000001,"velocity":0.7874015748031497},{"duration":0.13333333333333997,"durationTicks":320,"midi":41,"name":"F2","ticks":207420,"time":85.533568,"velocity":0.7874015748031497},{"duration":0.15833333333333144,"durationTicks":380,"midi":41,"name":"F2","ticks":207840,"time":85.70856800000001,"velocity":0.7874015748031497},{"duration":0.13333333333333997,"durationTicks":320,"midi":53,"name":"F3","ticks":207900,"time":85.733568,"velocity":0.7874015748031497},{"duration":0.15833333333334565,"durationTicks":380,"midi":29,"name":"F1","ticks":208320,"time":85.908568,"velocity":0.7874015748031497},{"duration":0.13333333333333997,"durationTicks":320,"midi":41,"name":"F2","ticks":208380,"time":85.93356800000001,"velocity":0.7874015748031497},{"duration":0.05833333333333712,"durationTicks":140,"midi":41,"name":"F2","ticks":208800,"time":86.108568,"velocity":0.7874015748031497},{"duration":0.03333333333333144,"durationTicks":80,"midi":53,"name":"F3","ticks":208860,"time":86.13356800000001,"velocity":0.7874015748031497},{"duration":0.05833333333333712,"durationTicks":140,"midi":29,"name":"F1","ticks":209040,"time":86.20856800000001,"velocity":0.7874015748031497},{"duration":0.03333333333334565,"durationTicks":80,"midi":41,"name":"F2","ticks":209100,"time":86.233568,"velocity":0.7874015748031497},{"duration":0.05833333333333712,"durationTicks":140,"midi":17,"name":"F0","ticks":209280,"time":86.30856800000001,"velocity":0.7874015748031497},{"duration":0.03333333333333144,"durationTicks":80,"midi":29,"name":"F1","ticks":209340,"time":86.33356800000001,"velocity":0.7874015748031497},{"duration":0.08333333333334281,"durationTicks":200,"midi":41,"name":"F2","ticks":209520,"time":86.408568,"velocity":0.7874015748031497},{"duration":0.05833333333333712,"durationTicks":140,"midi":53,"name":"F3","ticks":209580,"time":86.43356800000001,"velocity":0.7874015748031497},{"duration":0.20000000000000284,"durationTicks":480,"midi":29,"name":"F1","ticks":209760,"time":86.50856800000001,"velocity":0.7874015748031497},{"duration":0.15000000000000568,"durationTicks":360,"midi":41,"name":"F2","ticks":209880,"time":86.55856800000001,"velocity":0.7874015748031497},{"duration":0.15833333333333144,"durationTicks":380,"midi":17,"name":"F0","ticks":210240,"time":86.70856800000001,"velocity":0.7874015748031497},{"duration":0.13333333333333997,"durationTicks":320,"midi":41,"name":"F2","ticks":210300,"time":86.733568,"velocity":0.7874015748031497},{"duration":0.15833333333334565,"durationTicks":380,"midi":29,"name":"F1","ticks":210720,"time":86.908568,"velocity":0.7874015748031497},{"duration":0.13333333333333997,"durationTicks":320,"midi":53,"name":"F3","ticks":210780,"time":86.93356800000001,"velocity":0.7874015748031497},{"duration":0.15833333333334565,"durationTicks":380,"midi":28,"name":"E1","ticks":211200,"time":87.108568,"velocity":0.7874015748031497},{"duration":0.13333333333333997,"durationTicks":320,"midi":40,"name":"E2","ticks":211260,"time":87.13356800000001,"velocity":0.7874015748031497},{"duration":0.15833333333333144,"durationTicks":380,"midi":40,"name":"E2","ticks":211680,"time":87.30856800000001,"velocity":0.7874015748031497},{"duration":0.13333333333332575,"durationTicks":320,"midi":52,"name":"E3","ticks":211740,"time":87.33356800000001,"velocity":0.7874015748031497},{"duration":0.15833333333333144,"durationTicks":380,"midi":28,"name":"E1","ticks":212160,"time":87.50856800000001,"velocity":0.7874015748031497},{"duration":0.13333333333333997,"durationTicks":320,"midi":40,"name":"E2","ticks":212220,"time":87.533568,"velocity":0.7874015748031497},{"duration":0.05833333333333712,"durationTicks":140,"midi":40,"name":"E2","ticks":212640,"time":87.70856800000001,"velocity":0.7874015748031497},{"duration":0.03333333333334565,"durationTicks":80,"midi":52,"name":"E3","ticks":212700,"time":87.733568,"velocity":0.7874015748031497},{"duration":0.05833333333333712,"durationTicks":140,"midi":28,"name":"E1","ticks":212880,"time":87.80856800000001,"velocity":0.7874015748031497},{"duration":0.03333333333333144,"durationTicks":80,"midi":40,"name":"E2","ticks":212940,"time":87.83356800000001,"velocity":0.7874015748031497},{"duration":0.05833333333333712,"durationTicks":140,"midi":16,"name":"E0","ticks":213120,"time":87.908568,"velocity":0.7874015748031497},{"duration":0.03333333333333144,"durationTicks":80,"midi":28,"name":"E1","ticks":213180,"time":87.93356800000001,"velocity":0.7874015748031497},{"duration":0.0833333333333286,"durationTicks":200,"midi":40,"name":"E2","ticks":213360,"time":88.00856800000001,"velocity":0.7874015748031497},{"duration":0.05833333333333712,"durationTicks":140,"midi":52,"name":"E3","ticks":213420,"time":88.033568,"velocity":0.7874015748031497},{"duration":0.15833333333334565,"durationTicks":380,"midi":16,"name":"E0","ticks":213600,"time":88.108568,"velocity":0.7874015748031497},{"duration":0.13333333333333997,"durationTicks":320,"midi":28,"name":"E1","ticks":213660,"time":88.13356800000001,"velocity":0.7874015748031497},{"duration":0.15833333333333144,"durationTicks":380,"midi":40,"name":"E2","ticks":214080,"time":88.30856800000001,"velocity":0.7874015748031497},{"duration":0.13333333333332575,"durationTicks":320,"midi":52,"name":"E3","ticks":214140,"time":88.33356800000001,"velocity":0.7874015748031497},{"duration":0.15833333333333144,"durationTicks":380,"midi":28,"name":"E1","ticks":214560,"time":88.50856800000001,"velocity":0.7874015748031497},{"duration":0.13333333333333997,"durationTicks":320,"midi":40,"name":"E2","ticks":214620,"time":88.533568,"velocity":0.7874015748031497},{"duration":0.15833333333333144,"durationTicks":380,"midi":28,"name":"E1","ticks":215040,"time":88.70856800000001,"velocity":0.7874015748031497},{"duration":0.13333333333333997,"durationTicks":320,"midi":40,"name":"E2","ticks":215100,"time":88.733568,"velocity":0.7874015748031497},{"duration":0.15833333333334565,"durationTicks":380,"midi":40,"name":"E2","ticks":215520,"time":88.908568,"velocity":0.7874015748031497},{"duration":0.13333333333333997,"durationTicks":320,"midi":52,"name":"E3","ticks":215580,"time":88.93356800000001,"velocity":0.7874015748031497},{"duration":0.15833333333334565,"durationTicks":380,"midi":16,"name":"E0","ticks":216000,"time":89.108568,"velocity":0.7874015748031497},{"duration":0.13333333333333997,"durationTicks":320,"midi":28,"name":"E1","ticks":216060,"time":89.13356800000001,"velocity":0.7874015748031497},{"duration":0.05833333333333712,"durationTicks":140,"midi":40,"name":"E2","ticks":216480,"time":89.30856800000001,"velocity":0.7874015748031497},{"duration":0.03333333333333144,"durationTicks":80,"midi":52,"name":"E3","ticks":216540,"time":89.33356800000001,"velocity":0.7874015748031497},{"duration":0.05833333333333712,"durationTicks":140,"midi":23,"name":"B0","ticks":216720,"time":89.408568,"velocity":0.7874015748031497},{"duration":0.03333333333333144,"durationTicks":80,"midi":35,"name":"B1","ticks":216780,"time":89.43356800000001,"velocity":0.7874015748031497},{"duration":0.15833333333333144,"durationTicks":380,"midi":31,"name":"G1","ticks":216960,"time":89.50856800000001,"velocity":0.7874015748031497},{"duration":0.13333333333333997,"durationTicks":320,"midi":43,"name":"G2","ticks":217020,"time":89.533568,"velocity":0.7874015748031497},{"duration":0.0833333333333286,"durationTicks":200,"midi":43,"name":"G2","ticks":217440,"time":89.70856800000001,"velocity":0.7874015748031497},{"duration":0.05833333333333712,"durationTicks":140,"midi":55,"name":"G3","ticks":217500,"time":89.733568,"velocity":0.7874015748031497},{"duration":0.15833333333334565,"durationTicks":380,"midi":33,"name":"A1","ticks":217920,"time":89.908568,"velocity":0.7874015748031497},{"duration":0.13333333333333997,"durationTicks":320,"midi":45,"name":"A2","ticks":217980,"time":89.93356800000001,"velocity":0.7874015748031497},{"duration":0.13333333333333997,"durationTicks":320,"midi":45,"name":"A2","ticks":218400,"time":90.108568,"velocity":0.7874015748031497},{"duration":0.10833333333333428,"durationTicks":260,"midi":57,"name":"A3","ticks":218460,"time":90.13356800000001,"velocity":0.7874015748031497},{"duration":0.15833333333333144,"durationTicks":380,"midi":28,"name":"E1","ticks":218880,"time":90.30856800000001,"velocity":0.7874015748031497},{"duration":0.13333333333332575,"durationTicks":320,"midi":40,"name":"E2","ticks":218940,"time":90.33356800000001,"velocity":0.7874015748031497},{"duration":0.15833333333333144,"durationTicks":380,"midi":40,"name":"E2","ticks":219360,"time":90.50856800000001,"velocity":0.7874015748031497},{"duration":0.13333333333333997,"durationTicks":320,"midi":52,"name":"E3","ticks":219420,"time":90.533568,"velocity":0.7874015748031497},{"duration":0.15833333333333144,"durationTicks":380,"midi":28,"name":"E1","ticks":219840,"time":90.70856800000001,"velocity":0.7874015748031497},{"duration":0.13333333333333997,"durationTicks":320,"midi":40,"name":"E2","ticks":219900,"time":90.733568,"velocity":0.7874015748031497},{"duration":0.05833333333333712,"durationTicks":140,"midi":40,"name":"E2","ticks":220320,"time":90.908568,"velocity":0.7874015748031497},{"duration":0.03333333333333144,"durationTicks":80,"midi":52,"name":"E3","ticks":220380,"time":90.93356800000001,"velocity":0.7874015748031497},{"duration":0.05833333333333712,"durationTicks":140,"midi":28,"name":"E1","ticks":220560,"time":91.00856800000001,"velocity":0.7874015748031497},{"duration":0.03333333333334565,"durationTicks":80,"midi":40,"name":"E2","ticks":220620,"time":91.033568,"velocity":0.7874015748031497},{"duration":0.05833333333333712,"durationTicks":140,"midi":16,"name":"E0","ticks":220800,"time":91.108568,"velocity":0.7874015748031497},{"duration":0.03333333333333144,"durationTicks":80,"midi":28,"name":"E1","ticks":220860,"time":91.13356800000001,"velocity":0.7874015748031497},{"duration":0.0833333333333286,"durationTicks":200,"midi":40,"name":"E2","ticks":221040,"time":91.20856800000001,"velocity":0.7874015748031497},{"duration":0.05833333333333712,"durationTicks":140,"midi":52,"name":"E3","ticks":221100,"time":91.233568,"velocity":0.7874015748031497},{"duration":0.15833333333333144,"durationTicks":380,"midi":16,"name":"E0","ticks":221280,"time":91.30856800000001,"velocity":0.7874015748031497},{"duration":0.13333333333332575,"durationTicks":320,"midi":28,"name":"E1","ticks":221340,"time":91.33356800000001,"velocity":0.7874015748031497},{"duration":0.15833333333333144,"durationTicks":380,"midi":40,"name":"E2","ticks":221760,"time":91.50856800000001,"velocity":0.7874015748031497},{"duration":0.13333333333333997,"durationTicks":320,"midi":52,"name":"E3","ticks":221820,"time":91.533568,"velocity":0.7874015748031497},{"duration":0.15833333333333144,"durationTicks":380,"midi":28,"name":"E1","ticks":222240,"time":91.70856800000001,"velocity":0.7874015748031497},{"duration":0.13333333333333997,"durationTicks":320,"midi":40,"name":"E2","ticks":222300,"time":91.733568,"velocity":0.7874015748031497},{"duration":0.15833333333334565,"durationTicks":380,"midi":33,"name":"A1","ticks":222720,"time":91.908568,"velocity":0.7874015748031497},{"duration":0.13333333333333997,"durationTicks":320,"midi":45,"name":"A2","ticks":222780,"time":91.93356800000001,"velocity":0.7874015748031497},{"duration":0.15833333333334565,"durationTicks":380,"midi":45,"name":"A2","ticks":223200,"time":92.108568,"velocity":0.7874015748031497},{"duration":0.13333333333333997,"durationTicks":320,"midi":57,"name":"A3","ticks":223260,"time":92.13356800000001,"velocity":0.7874015748031497},{"duration":0.15833333333333144,"durationTicks":380,"midi":21,"name":"A0","ticks":223680,"time":92.30856800000001,"velocity":0.7874015748031497},{"duration":0.13333333333332575,"durationTicks":320,"midi":33,"name":"A1","ticks":223740,"time":92.33356800000001,"velocity":0.7874015748031497},{"duration":0.05833333333333712,"durationTicks":140,"midi":45,"name":"A2","ticks":224160,"time":92.50856800000001,"velocity":0.7874015748031497},{"duration":0.03333333333334565,"durationTicks":80,"midi":57,"name":"A3","ticks":224220,"time":92.533568,"velocity":0.7874015748031497},{"duration":0.05833333333333712,"durationTicks":140,"midi":21,"name":"A0","ticks":224400,"time":92.608568,"velocity":0.7874015748031497},{"duration":0.03333333333333144,"durationTicks":80,"midi":33,"name":"A1","ticks":224460,"time":92.63356800000001,"velocity":0.7874015748031497},{"duration":0.15833333333333144,"durationTicks":380,"midi":35,"name":"B1","ticks":224640,"time":92.70856800000001,"velocity":0.7874015748031497},{"duration":0.13333333333333997,"durationTicks":320,"midi":47,"name":"B2","ticks":224700,"time":92.733568,"velocity":0.7874015748031497},{"duration":0.08333333333334281,"durationTicks":200,"midi":47,"name":"B2","ticks":225120,"time":92.908568,"velocity":0.7874015748031497},{"duration":0.05833333333333712,"durationTicks":140,"midi":59,"name":"B3","ticks":225180,"time":92.93356800000001,"velocity":0.7874015748031497},{"duration":0.15833333333334565,"durationTicks":380,"midi":35,"name":"B1","ticks":225600,"time":93.108568,"velocity":0.7874015748031497},{"duration":0.13333333333333997,"durationTicks":320,"midi":47,"name":"B2","ticks":225660,"time":93.13356800000001,"velocity":0.7874015748031497},{"duration":0.18333333333333712,"durationTicks":440,"midi":47,"name":"B2","ticks":226080,"time":93.30856800000001,"velocity":0.7874015748031497},{"duration":0.15833333333333144,"durationTicks":380,"midi":59,"name":"B3","ticks":226140,"time":93.33356800000001,"velocity":0.7874015748031497},{"duration":0.15833333333333144,"durationTicks":380,"midi":28,"name":"E1","ticks":226560,"time":93.50856800000001,"velocity":0.7874015748031497},{"duration":0.13333333333333997,"durationTicks":320,"midi":40,"name":"E2","ticks":226620,"time":93.533568,"velocity":0.7874015748031497},{"duration":0.15833333333333144,"durationTicks":380,"midi":40,"name":"E2","ticks":227040,"time":93.70856800000001,"velocity":0.7874015748031497},{"duration":0.13333333333333997,"durationTicks":320,"midi":52,"name":"E3","ticks":227100,"time":93.733568,"velocity":0.7874015748031497},{"duration":0.15833333333334565,"durationTicks":380,"midi":28,"name":"E1","ticks":227520,"time":93.908568,"velocity":0.7874015748031497},{"duration":0.13333333333333997,"durationTicks":320,"midi":40,"name":"E2","ticks":227580,"time":93.93356800000001,"velocity":0.7874015748031497},{"duration":0.15833333333334565,"durationTicks":380,"midi":40,"name":"E2","ticks":228000,"time":94.108568,"velocity":0.7874015748031497},{"duration":0.13333333333333997,"durationTicks":320,"midi":52,"name":"E3","ticks":228060,"time":94.13356800000001,"velocity":0.7874015748031497},{"duration":0.05833333333333712,"durationTicks":140,"midi":26,"name":"D1","ticks":228480,"time":94.30856800000001,"velocity":0.7874015748031497},{"duration":0.03333333333333144,"durationTicks":80,"midi":38,"name":"D2","ticks":228540,"time":94.33356800000001,"velocity":0.7874015748031497},{"duration":0.08333333333334281,"durationTicks":200,"midi":40,"name":"E2","ticks":228720,"time":94.408568,"velocity":0.7874015748031497},{"duration":0.05833333333333712,"durationTicks":140,"midi":52,"name":"E3","ticks":228780,"time":94.43356800000001,"velocity":0.7874015748031497},{"duration":0.15833333333333144,"durationTicks":380,"midi":16,"name":"E0","ticks":228960,"time":94.50856800000001,"velocity":0.7874015748031497},{"duration":0.13333333333333997,"durationTicks":320,"midi":28,"name":"E1","ticks":229020,"time":94.533568,"velocity":0.7874015748031497},{"duration":0.15833333333333144,"durationTicks":380,"midi":40,"name":"E2","ticks":229440,"time":94.70856800000001,"velocity":0.7874015748031497},{"duration":0.13333333333333997,"durationTicks":320,"midi":52,"name":"E3","ticks":229500,"time":94.733568,"velocity":0.7874015748031497},{"duration":0.15833333333334565,"durationTicks":380,"midi":28,"name":"E1","ticks":229920,"time":94.908568,"velocity":0.7874015748031497},{"duration":0.13333333333333997,"durationTicks":320,"midi":40,"name":"E2","ticks":229980,"time":94.93356800000001,"velocity":0.7874015748031497},{"duration":0.15833333333334565,"durationTicks":380,"midi":28,"name":"E1","ticks":230400,"time":95.108568,"velocity":0.7874015748031497},{"duration":0.13333333333333997,"durationTicks":320,"midi":40,"name":"E2","ticks":230460,"time":95.13356800000001,"velocity":0.7874015748031497},{"duration":0.15833333333333144,"durationTicks":380,"midi":40,"name":"E2","ticks":230880,"time":95.30856800000001,"velocity":0.7874015748031497},{"duration":0.13333333333332575,"durationTicks":320,"midi":52,"name":"E3","ticks":230940,"time":95.33356800000001,"velocity":0.7874015748031497},{"duration":0.15833333333333144,"durationTicks":380,"midi":16,"name":"E0","ticks":231360,"time":95.50856800000001,"velocity":0.7874015748031497},{"duration":0.13333333333333997,"durationTicks":320,"midi":28,"name":"E1","ticks":231420,"time":95.533568,"velocity":0.7874015748031497},{"duration":0.05833333333333712,"durationTicks":140,"midi":40,"name":"E2","ticks":231840,"time":95.70856800000001,"velocity":0.7874015748031497},{"duration":0.03333333333334565,"durationTicks":80,"midi":52,"name":"E3","ticks":231900,"time":95.733568,"velocity":0.7874015748031497},{"duration":0.05833333333333712,"durationTicks":140,"midi":23,"name":"B0","ticks":232080,"time":95.80856800000001,"velocity":0.7874015748031497},{"duration":0.03333333333333144,"durationTicks":80,"midi":35,"name":"B1","ticks":232140,"time":95.83356800000001,"velocity":0.7874015748031497},{"duration":0.15833333333334565,"durationTicks":380,"midi":28,"name":"E1","ticks":232320,"time":95.908568,"velocity":0.7874015748031497},{"duration":0.13333333333333997,"durationTicks":320,"midi":40,"name":"E2","ticks":232380,"time":95.93356800000001,"velocity":0.7874015748031497},{"duration":0.08333333333334281,"durationTicks":200,"midi":40,"name":"E2","ticks":232800,"time":96.108568,"velocity":0.7874015748031497},{"duration":0.05833333333333712,"durationTicks":140,"midi":52,"name":"E3","ticks":232860,"time":96.13356800000001,"velocity":0.7874015748031497},{"duration":0.15833333333333144,"durationTicks":380,"midi":26,"name":"D1","ticks":233280,"time":96.30856800000001,"velocity":0.7874015748031497},{"duration":0.13333333333332575,"durationTicks":320,"midi":38,"name":"D2","ticks":233340,"time":96.33356800000001,"velocity":0.7874015748031497},{"duration":0.13333333333333997,"durationTicks":320,"midi":39,"name":"D#2","ticks":233760,"time":96.50856800000001,"velocity":0.7874015748031497},{"duration":0.10833333333334849,"durationTicks":260,"midi":51,"name":"D#3","ticks":233820,"time":96.533568,"velocity":0.7874015748031497},{"duration":0.15833333333333144,"durationTicks":380,"midi":28,"name":"E1","ticks":234240,"time":96.70856800000001,"velocity":0.7874015748031497},{"duration":0.13333333333333997,"durationTicks":320,"midi":40,"name":"E2","ticks":234300,"time":96.733568,"velocity":0.7874015748031497},{"duration":0.15833333333334565,"durationTicks":380,"midi":40,"name":"E2","ticks":234720,"time":96.908568,"velocity":0.7874015748031497},{"duration":0.13333333333333997,"durationTicks":320,"midi":52,"name":"E3","ticks":234780,"time":96.93356800000001,"velocity":0.7874015748031497},{"duration":0.15833333333334565,"durationTicks":380,"midi":28,"name":"E1","ticks":235200,"time":97.108568,"velocity":0.7874015748031497},{"duration":0.13333333333333997,"durationTicks":320,"midi":40,"name":"E2","ticks":235260,"time":97.13356800000001,"velocity":0.7874015748031497},{"duration":0.15833333333333144,"durationTicks":380,"midi":40,"name":"E2","ticks":235680,"time":97.30856800000001,"velocity":0.7874015748031497},{"duration":0.13333333333332575,"durationTicks":320,"midi":52,"name":"E3","ticks":235740,"time":97.33356800000001,"velocity":0.7874015748031497},{"duration":0.05833333333333712,"durationTicks":140,"midi":26,"name":"D1","ticks":236160,"time":97.50856800000001,"velocity":0.7874015748031497},{"duration":0.03333333333334565,"durationTicks":80,"midi":38,"name":"D2","ticks":236220,"time":97.533568,"velocity":0.7874015748031497},{"duration":0.08333333333334281,"durationTicks":200,"midi":40,"name":"E2","ticks":236400,"time":97.608568,"velocity":0.7874015748031497},{"duration":0.05833333333333712,"durationTicks":140,"midi":52,"name":"E3","ticks":236460,"time":97.63356800000001,"velocity":0.7874015748031497},{"duration":0.15833333333333144,"durationTicks":380,"midi":16,"name":"E0","ticks":236640,"time":97.70856800000001,"velocity":0.7874015748031497},{"duration":0.13333333333333997,"durationTicks":320,"midi":28,"name":"E1","ticks":236700,"time":97.733568,"velocity":0.7874015748031497},{"duration":0.15833333333334565,"durationTicks":380,"midi":38,"name":"D2","ticks":237120,"time":97.908568,"velocity":0.7874015748031497},{"duration":0.13333333333333997,"durationTicks":320,"midi":50,"name":"D3","ticks":237180,"time":97.93356800000001,"velocity":0.7874015748031497},{"duration":0.15833333333334565,"durationTicks":380,"midi":21,"name":"A0","ticks":237600,"time":98.108568,"velocity":0.7874015748031497},{"duration":0.13333333333333997,"durationTicks":320,"midi":33,"name":"A1","ticks":237660,"time":98.13356800000001,"velocity":0.7874015748031497},{"duration":0.15833333333333144,"durationTicks":380,"midi":23,"name":"B0","ticks":238080,"time":98.30856800000001,"velocity":0.7874015748031497},{"duration":0.13333333333332575,"durationTicks":320,"midi":35,"name":"B1","ticks":238140,"time":98.33356800000001,"velocity":0.7874015748031497},{"duration":0.15833333333333144,"durationTicks":380,"midi":35,"name":"B1","ticks":238560,"time":98.50856800000001,"velocity":0.7874015748031497},{"duration":0.13333333333333997,"durationTicks":320,"midi":47,"name":"B2","ticks":238620,"time":98.533568,"velocity":0.7874015748031497},{"duration":0.15833333333333144,"durationTicks":380,"midi":11,"name":"B-1","ticks":239040,"time":98.70856800000001,"velocity":0.7874015748031497},{"duration":0.13333333333333997,"durationTicks":320,"midi":23,"name":"B0","ticks":239100,"time":98.733568,"velocity":0.7874015748031497},{"duration":0.05833333333333712,"durationTicks":140,"midi":35,"name":"B1","ticks":239520,"time":98.908568,"velocity":0.7874015748031497},{"duration":0.03333333333333144,"durationTicks":80,"midi":47,"name":"B2","ticks":239580,"time":98.93356800000001,"velocity":0.7874015748031497},{"duration":0.05833333333333712,"durationTicks":140,"midi":18,"name":"F#0","ticks":239760,"time":99.00856800000001,"velocity":0.7874015748031497},{"duration":0.03333333333334565,"durationTicks":80,"midi":30,"name":"F#1","ticks":239820,"time":99.033568,"velocity":0.7874015748031497},{"duration":0.15833333333334565,"durationTicks":380,"midi":19,"name":"G0","ticks":240000,"time":99.108568,"velocity":0.7874015748031497},{"duration":0.13333333333333997,"durationTicks":320,"midi":31,"name":"G1","ticks":240060,"time":99.13356800000001,"velocity":0.7874015748031497},{"duration":0.08333333333334281,"durationTicks":200,"midi":31,"name":"G1","ticks":240480,"time":99.30856800000001,"velocity":0.7874015748031497},{"duration":0.05833333333333712,"durationTicks":140,"midi":43,"name":"G2","ticks":240540,"time":99.33356800000001,"velocity":0.7874015748031497},{"duration":0.3583333333333343,"durationTicks":860,"midi":22,"name":"A#0","ticks":240960,"time":99.50856800000001,"velocity":0.7874015748031497},{"duration":0.3333333333333428,"durationTicks":800,"midi":34,"name":"A#1","ticks":241020,"time":99.533568,"velocity":0.7874015748031497},{"duration":0.15833333333334565,"durationTicks":380,"midi":24,"name":"C1","ticks":241920,"time":99.908568,"velocity":0.7874015748031497},{"duration":0.13333333333333997,"durationTicks":320,"midi":36,"name":"C2","ticks":241980,"time":99.93356800000001,"velocity":0.7874015748031497},{"duration":0.15833333333334565,"durationTicks":380,"midi":36,"name":"C2","ticks":242400,"time":100.108568,"velocity":0.7874015748031497},{"duration":0.13333333333333997,"durationTicks":320,"midi":48,"name":"C3","ticks":242460,"time":100.13356800000001,"velocity":0.7874015748031497},{"duration":0.15833333333333144,"durationTicks":380,"midi":24,"name":"C1","ticks":242880,"time":100.30856800000001,"velocity":0.7874015748031497},{"duration":0.13333333333332575,"durationTicks":320,"midi":36,"name":"C2","ticks":242940,"time":100.33356800000001,"velocity":0.7874015748031497},{"duration":0.15833333333333144,"durationTicks":380,"midi":36,"name":"C2","ticks":243360,"time":100.50856800000001,"velocity":0.7874015748031497},{"duration":0.13333333333333997,"durationTicks":320,"midi":48,"name":"C3","ticks":243420,"time":100.533568,"velocity":0.7874015748031497},{"duration":0.05833333333333712,"durationTicks":140,"midi":22,"name":"A#0","ticks":243840,"time":100.70856800000001,"velocity":0.7874015748031497},{"duration":0.03333333333334565,"durationTicks":80,"midi":34,"name":"A#1","ticks":243900,"time":100.733568,"velocity":0.7874015748031497},{"duration":0.08333333333334281,"durationTicks":200,"midi":36,"name":"C2","ticks":244080,"time":100.80856800000001,"velocity":0.7874015748031497},{"duration":0.05833333333333712,"durationTicks":140,"midi":48,"name":"C3","ticks":244140,"time":100.83356800000001,"velocity":0.7874015748031497},{"duration":0.15833333333334565,"durationTicks":380,"midi":19,"name":"G0","ticks":244320,"time":100.908568,"velocity":0.7874015748031497},{"duration":0.13333333333333997,"durationTicks":320,"midi":31,"name":"G1","ticks":244380,"time":100.93356800000001,"velocity":0.7874015748031497},{"duration":0.15833333333334565,"durationTicks":380,"midi":36,"name":"C2","ticks":244800,"time":101.108568,"velocity":0.7874015748031497},{"duration":0.13333333333333997,"durationTicks":320,"midi":48,"name":"C3","ticks":244860,"time":101.13356800000001,"velocity":0.7874015748031497},{"duration":0.15833333333333144,"durationTicks":380,"midi":24,"name":"C1","ticks":245280,"time":101.30856800000001,"velocity":0.7874015748031497},{"duration":0.13333333333332575,"durationTicks":320,"midi":36,"name":"C2","ticks":245340,"time":101.33356800000001,"velocity":0.7874015748031497},{"duration":0.15833333333333144,"durationTicks":380,"midi":23,"name":"B0","ticks":245760,"time":101.50856800000001,"velocity":0.7874015748031497},{"duration":0.13333333333333997,"durationTicks":320,"midi":35,"name":"B1","ticks":245820,"time":101.533568,"velocity":0.7874015748031497},{"duration":0.15833333333333144,"durationTicks":380,"midi":35,"name":"B1","ticks":246240,"time":101.70856800000001,"velocity":0.7874015748031497},{"duration":0.13333333333333997,"durationTicks":320,"midi":47,"name":"B2","ticks":246300,"time":101.733568,"velocity":0.7874015748031497},{"duration":0.15833333333334565,"durationTicks":380,"midi":11,"name":"B-1","ticks":246720,"time":101.908568,"velocity":0.7874015748031497},{"duration":0.13333333333333997,"durationTicks":320,"midi":23,"name":"B0","ticks":246780,"time":101.93356800000001,"velocity":0.7874015748031497},{"duration":0.05833333333333712,"durationTicks":140,"midi":35,"name":"B1","ticks":247200,"time":102.108568,"velocity":0.7874015748031497},{"duration":0.03333333333333144,"durationTicks":80,"midi":47,"name":"B2","ticks":247260,"time":102.13356800000001,"velocity":0.7874015748031497},{"duration":0.05833333333333712,"durationTicks":140,"midi":18,"name":"F#0","ticks":247440,"time":102.20856800000001,"velocity":0.7874015748031497},{"duration":0.03333333333334565,"durationTicks":80,"midi":30,"name":"F#1","ticks":247500,"time":102.233568,"velocity":0.7874015748031497},{"duration":0.15833333333333144,"durationTicks":380,"midi":19,"name":"G0","ticks":247680,"time":102.30856800000001,"velocity":0.7874015748031497},{"duration":0.13333333333332575,"durationTicks":320,"midi":31,"name":"G1","ticks":247740,"time":102.33356800000001,"velocity":0.7874015748031497},{"duration":0.0833333333333286,"durationTicks":200,"midi":31,"name":"G1","ticks":248160,"time":102.50856800000001,"velocity":0.7874015748031497},{"duration":0.05833333333333712,"durationTicks":140,"midi":43,"name":"G2","ticks":248220,"time":102.533568,"velocity":0.7874015748031497},{"duration":0.15833333333333144,"durationTicks":380,"midi":19,"name":"G0","ticks":248640,"time":102.70856800000001,"velocity":0.7874015748031497},{"duration":0.13333333333333997,"durationTicks":320,"midi":31,"name":"G1","ticks":248700,"time":102.733568,"velocity":0.7874015748031497},{"duration":0.13333333333333997,"durationTicks":320,"midi":30,"name":"F#1","ticks":249120,"time":102.908568,"velocity":0.7874015748031497},{"duration":0.10833333333333428,"durationTicks":260,"midi":42,"name":"F#2","ticks":249180,"time":102.93356800000001,"velocity":0.7874015748031497},{"duration":0.15833333333334565,"durationTicks":380,"midi":33,"name":"A1","ticks":249600,"time":103.108568,"velocity":0.7874015748031497},{"duration":0.13333333333333997,"durationTicks":320,"midi":45,"name":"A2","ticks":249660,"time":103.13356800000001,"velocity":0.7874015748031497},{"duration":0.15833333333333144,"durationTicks":380,"midi":45,"name":"A2","ticks":250080,"time":103.30856800000001,"velocity":0.7874015748031497},{"duration":0.13333333333332575,"durationTicks":320,"midi":57,"name":"A3","ticks":250140,"time":103.33356800000001,"velocity":0.7874015748031497},{"duration":0.15833333333333144,"durationTicks":380,"midi":33,"name":"A1","ticks":250560,"time":103.50856800000001,"velocity":0.7874015748031497},{"duration":0.13333333333333997,"durationTicks":320,"midi":45,"name":"A2","ticks":250620,"time":103.533568,"velocity":0.7874015748031497},{"duration":0.05833333333333712,"durationTicks":140,"midi":45,"name":"A2","ticks":251040,"time":103.70856800000001,"velocity":0.7874015748031497},{"duration":0.03333333333334565,"durationTicks":80,"midi":57,"name":"A3","ticks":251100,"time":103.733568,"velocity":0.7874015748031497},{"duration":0.05833333333333712,"durationTicks":140,"midi":21,"name":"A0","ticks":251280,"time":103.80856800000001,"velocity":0.7874015748031497},{"duration":0.03333333333333144,"durationTicks":80,"midi":33,"name":"A1","ticks":251340,"time":103.83356800000001,"velocity":0.7874015748031497},{"duration":0.15833333333334565,"durationTicks":380,"midi":23,"name":"B0","ticks":251520,"time":103.908568,"velocity":0.7874015748031497},{"duration":0.13333333333333997,"durationTicks":320,"midi":35,"name":"B1","ticks":251580,"time":103.93356800000001,"velocity":0.7874015748031497},{"duration":0.15833333333334565,"durationTicks":380,"midi":47,"name":"B2","ticks":252000,"time":104.108568,"velocity":0.7874015748031497},{"duration":0.13333333333333997,"durationTicks":320,"midi":59,"name":"B3","ticks":252060,"time":104.13356800000001,"velocity":0.7874015748031497},{"duration":0.15833333333333144,"durationTicks":380,"midi":35,"name":"B1","ticks":252480,"time":104.30856800000001,"velocity":0.7874015748031497},{"duration":0.13333333333332575,"durationTicks":320,"midi":47,"name":"B2","ticks":252540,"time":104.33356800000001,"velocity":0.7874015748031497},{"duration":0.15833333333333144,"durationTicks":380,"midi":36,"name":"C2","ticks":252960,"time":104.50856800000001,"velocity":0.7874015748031497},{"duration":0.13333333333333997,"durationTicks":320,"midi":48,"name":"C3","ticks":253020,"time":104.533568,"velocity":0.7874015748031497},{"duration":0.15833333333333144,"durationTicks":380,"midi":36,"name":"C2","ticks":253440,"time":104.70856800000001,"velocity":0.7874015748031497},{"duration":0.13333333333333997,"durationTicks":320,"midi":48,"name":"C3","ticks":253500,"time":104.733568,"velocity":0.7874015748031497},{"duration":0.15833333333334565,"durationTicks":380,"midi":48,"name":"C3","ticks":253920,"time":104.908568,"velocity":0.7874015748031497},{"duration":0.13333333333333997,"durationTicks":320,"midi":60,"name":"C4","ticks":253980,"time":104.93356800000001,"velocity":0.7874015748031497},{"duration":0.15833333333334565,"durationTicks":380,"midi":24,"name":"C1","ticks":254400,"time":105.108568,"velocity":0.7874015748031497},{"duration":0.13333333333333997,"durationTicks":320,"midi":36,"name":"C2","ticks":254460,"time":105.13356800000001,"velocity":0.7874015748031497},{"duration":0.05833333333333712,"durationTicks":140,"midi":48,"name":"C3","ticks":254880,"time":105.30856800000001,"velocity":0.7874015748031497},{"duration":0.03333333333333144,"durationTicks":80,"midi":60,"name":"C4","ticks":254940,"time":105.33356800000001,"velocity":0.7874015748031497},{"duration":0.05833333333333712,"durationTicks":140,"midi":31,"name":"G1","ticks":255120,"time":105.408568,"velocity":0.7874015748031497},{"duration":0.03333333333333144,"durationTicks":80,"midi":43,"name":"G2","ticks":255180,"time":105.43356800000001,"velocity":0.7874015748031497},{"duration":0.18333333333333712,"durationTicks":440,"midi":50,"name":"D3","ticks":255360,"time":105.50856800000001,"velocity":0.7874015748031497},{"duration":0.15833333333333144,"durationTicks":380,"midi":38,"name":"D2","ticks":255360,"time":105.50856800000001,"velocity":0.7874015748031497},{"duration":0.13333333333333997,"durationTicks":320,"midi":62,"name":"D4","ticks":255420,"time":105.533568,"velocity":0.6062992125984252},{"duration":0.25833333333333997,"durationTicks":620,"midi":38,"name":"D2","ticks":256320,"time":105.908568,"velocity":0.7874015748031497},{"duration":0.18333333333333712,"durationTicks":440,"midi":50,"name":"D3","ticks":256320,"time":105.908568,"velocity":0.7874015748031497},{"duration":0.23333333333333428,"durationTicks":560,"midi":62,"name":"D4","ticks":256380,"time":105.93356800000001,"velocity":0.6141732283464567},{"duration":0.1416666666666515,"durationTicks":340,"midi":28,"name":"E1","ticks":257320,"time":106.32523466666669,"velocity":0.7874015748031497},{"duration":0.11666666666666003,"durationTicks":280,"midi":40,"name":"E2","ticks":257380,"time":106.35023466666668,"velocity":0.7874015748031497},{"duration":0.1416666666666515,"durationTicks":340,"midi":40,"name":"E2","ticks":257800,"time":106.52523466666668,"velocity":0.7874015748031497},{"duration":0.11666666666664582,"durationTicks":280,"midi":52,"name":"E3","ticks":257860,"time":106.55023466666668,"velocity":0.7874015748031497},{"duration":0.1416666666666515,"durationTicks":340,"midi":28,"name":"E1","ticks":258280,"time":106.72523466666668,"velocity":0.7874015748031497},{"duration":0.11666666666664582,"durationTicks":280,"midi":40,"name":"E2","ticks":258340,"time":106.75023466666669,"velocity":0.7874015748031497},{"duration":0.1416666666666515,"durationTicks":340,"midi":40,"name":"E2","ticks":258760,"time":106.92523466666668,"velocity":0.7874015748031497},{"duration":0.11666666666664582,"durationTicks":280,"midi":52,"name":"E3","ticks":258820,"time":106.95023466666669,"velocity":0.7874015748031497},{"duration":0.04166666666664298,"durationTicks":100,"midi":26,"name":"D1","ticks":259240,"time":107.12523466666669,"velocity":0.7874015748031497},{"duration":0.01666666666665151,"durationTicks":40,"midi":38,"name":"D2","ticks":259300,"time":107.15023466666668,"velocity":0.7874015748031497},{"duration":0.06666666666664867,"durationTicks":160,"midi":40,"name":"E2","ticks":259480,"time":107.22523466666668,"velocity":0.7874015748031497},{"duration":0.04166666666664298,"durationTicks":100,"midi":52,"name":"E3","ticks":259540,"time":107.25023466666669,"velocity":0.7874015748031497},{"duration":0.1416666666666515,"durationTicks":340,"midi":16,"name":"E0","ticks":259720,"time":107.32523466666669,"velocity":0.7874015748031497},{"duration":0.11666666666666003,"durationTicks":280,"midi":28,"name":"E1","ticks":259780,"time":107.35023466666668,"velocity":0.7874015748031497},{"duration":0.1416666666666515,"durationTicks":340,"midi":40,"name":"E2","ticks":260200,"time":107.52523466666668,"velocity":0.7874015748031497},{"duration":0.11666666666664582,"durationTicks":280,"midi":52,"name":"E3","ticks":260260,"time":107.55023466666668,"velocity":0.7874015748031497},{"duration":0.1416666666666515,"durationTicks":340,"midi":28,"name":"E1","ticks":260680,"time":107.72523466666668,"velocity":0.7874015748031497},{"duration":0.11666666666664582,"durationTicks":280,"midi":40,"name":"E2","ticks":260740,"time":107.75023466666669,"velocity":0.7874015748031497},{"duration":0.1416666666666515,"durationTicks":340,"midi":28,"name":"E1","ticks":261160,"time":107.92523466666668,"velocity":0.7874015748031497},{"duration":0.11666666666664582,"durationTicks":280,"midi":40,"name":"E2","ticks":261220,"time":107.95023466666669,"velocity":0.7874015748031497},{"duration":0.1416666666666515,"durationTicks":340,"midi":40,"name":"E2","ticks":261640,"time":108.12523466666669,"velocity":0.7874015748031497},{"duration":0.11666666666666003,"durationTicks":280,"midi":52,"name":"E3","ticks":261700,"time":108.15023466666668,"velocity":0.7874015748031497},{"duration":0.1416666666666515,"durationTicks":340,"midi":16,"name":"E0","ticks":262120,"time":108.32523466666669,"velocity":0.7874015748031497},{"duration":0.11666666666666003,"durationTicks":280,"midi":28,"name":"E1","ticks":262180,"time":108.35023466666668,"velocity":0.7874015748031497},{"duration":0.04166666666665719,"durationTicks":100,"midi":40,"name":"E2","ticks":262600,"time":108.52523466666668,"velocity":0.7874015748031497},{"duration":0.01666666666665151,"durationTicks":40,"midi":52,"name":"E3","ticks":262660,"time":108.55023466666668,"velocity":0.7874015748031497},{"duration":0.04166666666664298,"durationTicks":100,"midi":23,"name":"B0","ticks":262840,"time":108.62523466666669,"velocity":0.7874015748031497},{"duration":0.01666666666665151,"durationTicks":40,"midi":35,"name":"B1","ticks":262900,"time":108.65023466666668,"velocity":0.7874015748031497},{"duration":0.1416666666666515,"durationTicks":340,"midi":28,"name":"E1","ticks":263080,"time":108.72523466666668,"velocity":0.7874015748031497},{"duration":0.11666666666664582,"durationTicks":280,"midi":40,"name":"E2","ticks":263140,"time":108.75023466666669,"velocity":0.7874015748031497},{"duration":0.06666666666664867,"durationTicks":160,"midi":40,"name":"E2","ticks":263560,"time":108.92523466666668,"velocity":0.7874015748031497},{"duration":0.04166666666664298,"durationTicks":100,"midi":52,"name":"E3","ticks":263620,"time":108.95023466666669,"velocity":0.7874015748031497},{"duration":0.1416666666666515,"durationTicks":340,"midi":26,"name":"D1","ticks":264040,"time":109.12523466666669,"velocity":0.7874015748031497},{"duration":0.11666666666666003,"durationTicks":280,"midi":38,"name":"D2","ticks":264100,"time":109.15023466666668,"velocity":0.7874015748031497},{"duration":0.11666666666664582,"durationTicks":280,"midi":39,"name":"D#2","ticks":264520,"time":109.32523466666669,"velocity":0.7874015748031497},{"duration":0.09166666666665435,"durationTicks":220,"midi":51,"name":"D#3","ticks":264580,"time":109.35023466666668,"velocity":0.7874015748031497},{"duration":0.1416666666666515,"durationTicks":340,"midi":28,"name":"E1","ticks":265000,"time":109.52523466666668,"velocity":0.7874015748031497},{"duration":0.11666666666664582,"durationTicks":280,"midi":40,"name":"E2","ticks":265060,"time":109.55023466666668,"velocity":0.7874015748031497},{"duration":0.1416666666666515,"durationTicks":340,"midi":40,"name":"E2","ticks":265480,"time":109.72523466666668,"velocity":0.7874015748031497},{"duration":0.11666666666664582,"durationTicks":280,"midi":52,"name":"E3","ticks":265540,"time":109.75023466666669,"velocity":0.7874015748031497},{"duration":0.1416666666666515,"durationTicks":340,"midi":28,"name":"E1","ticks":265960,"time":109.92523466666668,"velocity":0.7874015748031497},{"duration":0.11666666666664582,"durationTicks":280,"midi":40,"name":"E2","ticks":266020,"time":109.95023466666669,"velocity":0.7874015748031497},{"duration":0.1416666666666515,"durationTicks":340,"midi":40,"name":"E2","ticks":266440,"time":110.12523466666669,"velocity":0.7874015748031497},{"duration":0.11666666666666003,"durationTicks":280,"midi":52,"name":"E3","ticks":266500,"time":110.15023466666668,"velocity":0.7874015748031497},{"duration":0.04166666666664298,"durationTicks":100,"midi":26,"name":"D1","ticks":266920,"time":110.32523466666669,"velocity":0.7874015748031497},{"duration":0.01666666666665151,"durationTicks":40,"midi":38,"name":"D2","ticks":266980,"time":110.35023466666668,"velocity":0.7874015748031497},{"duration":0.06666666666664867,"durationTicks":160,"midi":40,"name":"E2","ticks":267160,"time":110.42523466666668,"velocity":0.7874015748031497},{"duration":0.04166666666664298,"durationTicks":100,"midi":52,"name":"E3","ticks":267220,"time":110.45023466666669,"velocity":0.7874015748031497},{"duration":0.1416666666666515,"durationTicks":340,"midi":16,"name":"E0","ticks":267400,"time":110.52523466666668,"velocity":0.7874015748031497},{"duration":0.11666666666664582,"durationTicks":280,"midi":28,"name":"E1","ticks":267460,"time":110.55023466666668,"velocity":0.7874015748031497},{"duration":0.1416666666666515,"durationTicks":340,"midi":38,"name":"D2","ticks":267880,"time":110.72523466666668,"velocity":0.7874015748031497},{"duration":0.11666666666664582,"durationTicks":280,"midi":50,"name":"D3","ticks":267940,"time":110.75023466666669,"velocity":0.7874015748031497},{"duration":0.1416666666666515,"durationTicks":340,"midi":21,"name":"A0","ticks":268360,"time":110.92523466666668,"velocity":0.7874015748031497},{"duration":0.11666666666664582,"durationTicks":280,"midi":33,"name":"A1","ticks":268420,"time":110.95023466666669,"velocity":0.7874015748031497},{"duration":0.1416666666666515,"durationTicks":340,"midi":23,"name":"B0","ticks":268840,"time":111.12523466666669,"velocity":0.7874015748031497},{"duration":0.11666666666666003,"durationTicks":280,"midi":35,"name":"B1","ticks":268900,"time":111.15023466666668,"velocity":0.7874015748031497},{"duration":0.1416666666666515,"durationTicks":340,"midi":35,"name":"B1","ticks":269320,"time":111.32523466666669,"velocity":0.7874015748031497},{"duration":0.11666666666666003,"durationTicks":280,"midi":47,"name":"B2","ticks":269380,"time":111.35023466666668,"velocity":0.7874015748031497},{"duration":0.1416666666666515,"durationTicks":340,"midi":12,"name":"C0","ticks":269800,"time":111.52523466666668,"velocity":0.7874015748031497},{"duration":0.11666666666664582,"durationTicks":280,"midi":23,"name":"B0","ticks":269860,"time":111.55023466666668,"velocity":0.7874015748031497},{"duration":0.04166666666665719,"durationTicks":100,"midi":35,"name":"B1","ticks":270280,"time":111.72523466666668,"velocity":0.7874015748031497},{"duration":0.01666666666665151,"durationTicks":40,"midi":47,"name":"B2","ticks":270340,"time":111.75023466666669,"velocity":0.7874015748031497},{"duration":0.04166666666664298,"durationTicks":100,"midi":18,"name":"F#0","ticks":270520,"time":111.82523466666669,"velocity":0.7874015748031497},{"duration":0.01666666666665151,"durationTicks":40,"midi":30,"name":"F#1","ticks":270580,"time":111.85023466666668,"velocity":0.7874015748031497},{"duration":0.1416666666666515,"durationTicks":340,"midi":19,"name":"G0","ticks":270760,"time":111.92523466666668,"velocity":0.7874015748031497},{"duration":0.11666666666664582,"durationTicks":280,"midi":31,"name":"G1","ticks":270820,"time":111.95023466666669,"velocity":0.7874015748031497},{"duration":0.06666666666664867,"durationTicks":160,"midi":31,"name":"G1","ticks":271240,"time":112.12523466666669,"velocity":0.7874015748031497},{"duration":0.04166666666665719,"durationTicks":100,"midi":43,"name":"G2","ticks":271300,"time":112.15023466666668,"velocity":0.7874015748031497},{"duration":0.34166666666664014,"durationTicks":820,"midi":22,"name":"A#0","ticks":271720,"time":112.32523466666669,"velocity":0.7874015748031497},{"duration":0.31666666666664867,"durationTicks":760,"midi":34,"name":"A#1","ticks":271780,"time":112.35023466666668,"velocity":0.7874015748031497},{"duration":0.1416666666666515,"durationTicks":340,"midi":24,"name":"C1","ticks":272680,"time":112.72523466666668,"velocity":0.7874015748031497},{"duration":0.11666666666664582,"durationTicks":280,"midi":36,"name":"C2","ticks":272740,"time":112.75023466666669,"velocity":0.7874015748031497},{"duration":0.1416666666666515,"durationTicks":340,"midi":36,"name":"C2","ticks":273160,"time":112.92523466666668,"velocity":0.7874015748031497},{"duration":0.11666666666664582,"durationTicks":280,"midi":48,"name":"C3","ticks":273220,"time":112.95023466666669,"velocity":0.7874015748031497},{"duration":0.1416666666666515,"durationTicks":340,"midi":24,"name":"C1","ticks":273640,"time":113.12523466666669,"velocity":0.7874015748031497},{"duration":0.11666666666666003,"durationTicks":280,"midi":36,"name":"C2","ticks":273700,"time":113.15023466666668,"velocity":0.7874015748031497},{"duration":0.1416666666666515,"durationTicks":340,"midi":36,"name":"C2","ticks":274120,"time":113.32523466666669,"velocity":0.7874015748031497},{"duration":0.11666666666666003,"durationTicks":280,"midi":48,"name":"C3","ticks":274180,"time":113.35023466666668,"velocity":0.7874015748031497},{"duration":0.04166666666665719,"durationTicks":100,"midi":22,"name":"A#0","ticks":274600,"time":113.52523466666668,"velocity":0.7874015748031497},{"duration":0.01666666666665151,"durationTicks":40,"midi":34,"name":"A#1","ticks":274660,"time":113.55023466666668,"velocity":0.7874015748031497},{"duration":0.06666666666664867,"durationTicks":160,"midi":36,"name":"C2","ticks":274840,"time":113.62523466666669,"velocity":0.7874015748031497},{"duration":0.04166666666665719,"durationTicks":100,"midi":48,"name":"C3","ticks":274900,"time":113.65023466666668,"velocity":0.7874015748031497},{"duration":0.1416666666666515,"durationTicks":340,"midi":19,"name":"G0","ticks":275080,"time":113.72523466666668,"velocity":0.7874015748031497},{"duration":0.11666666666664582,"durationTicks":280,"midi":31,"name":"G1","ticks":275140,"time":113.75023466666669,"velocity":0.7874015748031497},{"duration":0.1416666666666515,"durationTicks":340,"midi":36,"name":"C2","ticks":275560,"time":113.92523466666668,"velocity":0.7874015748031497},{"duration":0.11666666666664582,"durationTicks":280,"midi":48,"name":"C3","ticks":275620,"time":113.95023466666669,"velocity":0.7874015748031497},{"duration":0.1416666666666515,"durationTicks":340,"midi":24,"name":"C1","ticks":276040,"time":114.12523466666669,"velocity":0.7874015748031497},{"duration":0.11666666666666003,"durationTicks":280,"midi":36,"name":"C2","ticks":276100,"time":114.15023466666668,"velocity":0.7874015748031497},{"duration":0.1416666666666515,"durationTicks":340,"midi":26,"name":"D1","ticks":276520,"time":114.32523466666669,"velocity":0.7874015748031497},{"duration":0.11666666666666003,"durationTicks":280,"midi":38,"name":"D2","ticks":276580,"time":114.35023466666668,"velocity":0.7874015748031497},{"duration":0.1416666666666515,"durationTicks":340,"midi":38,"name":"D2","ticks":277000,"time":114.52523466666668,"velocity":0.7874015748031497},{"duration":0.11666666666664582,"durationTicks":280,"midi":50,"name":"D3","ticks":277060,"time":114.55023466666668,"velocity":0.7874015748031497},{"duration":0.1416666666666515,"durationTicks":340,"midi":14,"name":"D0","ticks":277480,"time":114.72523466666668,"velocity":0.7874015748031497},{"duration":0.11666666666664582,"durationTicks":280,"midi":26,"name":"D1","ticks":277540,"time":114.75023466666669,"velocity":0.7874015748031497},{"duration":0.04166666666665719,"durationTicks":100,"midi":38,"name":"D2","ticks":277960,"time":114.92523466666668,"velocity":0.7874015748031497},{"duration":0.01666666666665151,"durationTicks":40,"midi":50,"name":"D3","ticks":278020,"time":114.95023466666669,"velocity":0.7874015748031497},{"duration":0.04166666666665719,"durationTicks":100,"midi":21,"name":"A0","ticks":278200,"time":115.02523466666668,"velocity":0.7874015748031497},{"duration":0.01666666666665151,"durationTicks":40,"midi":33,"name":"A1","ticks":278260,"time":115.05023466666668,"velocity":0.7874015748031497},{"duration":0.1416666666666515,"durationTicks":340,"midi":25,"name":"C#1","ticks":278440,"time":115.12523466666669,"velocity":0.7874015748031497},{"duration":0.11666666666666003,"durationTicks":280,"midi":37,"name":"C#2","ticks":278500,"time":115.15023466666668,"velocity":0.7874015748031497},{"duration":0.06666666666664867,"durationTicks":160,"midi":37,"name":"C#2","ticks":278920,"time":115.32523466666669,"velocity":0.7874015748031497},{"duration":0.04166666666665719,"durationTicks":100,"midi":49,"name":"C#3","ticks":278980,"time":115.35023466666668,"velocity":0.7874015748031497},{"duration":0.1416666666666515,"durationTicks":340,"midi":25,"name":"C#1","ticks":279400,"time":115.52523466666668,"velocity":0.7874015748031497},{"duration":0.11666666666664582,"durationTicks":280,"midi":37,"name":"C#2","ticks":279460,"time":115.55023466666668,"velocity":0.7874015748031497},{"duration":0.1416666666666515,"durationTicks":340,"midi":37,"name":"C#2","ticks":279880,"time":115.72523466666668,"velocity":0.7874015748031497},{"duration":0.11666666666664582,"durationTicks":280,"midi":49,"name":"C#3","ticks":279940,"time":115.75023466666669,"velocity":0.7874015748031497},{"duration":0.1416666666666515,"durationTicks":340,"midi":30,"name":"F#1","ticks":280360,"time":115.92523466666668,"velocity":0.7874015748031497},{"duration":0.11666666666664582,"durationTicks":280,"midi":42,"name":"F#2","ticks":280420,"time":115.95023466666669,"velocity":0.7874015748031497},{"duration":0.1416666666666515,"durationTicks":340,"midi":42,"name":"F#2","ticks":280840,"time":116.12523466666669,"velocity":0.7874015748031497},{"duration":0.11666666666666003,"durationTicks":280,"midi":54,"name":"F#3","ticks":280900,"time":116.15023466666668,"velocity":0.7874015748031497},{"duration":0.1416666666666515,"durationTicks":340,"midi":30,"name":"F#1","ticks":281320,"time":116.32523466666669,"velocity":0.7874015748031497},{"duration":0.11666666666666003,"durationTicks":280,"midi":42,"name":"F#2","ticks":281380,"time":116.35023466666668,"velocity":0.7874015748031497},{"duration":0.04166666666665719,"durationTicks":100,"midi":42,"name":"F#2","ticks":281800,"time":116.52523466666668,"velocity":0.7874015748031497},{"duration":0.01666666666665151,"durationTicks":40,"midi":54,"name":"F#3","ticks":281860,"time":116.55023466666668,"velocity":0.7874015748031497},{"duration":0.04166666666664298,"durationTicks":100,"midi":18,"name":"F#0","ticks":282040,"time":116.62523466666669,"velocity":0.7874015748031497},{"duration":0.01666666666665151,"durationTicks":40,"midi":30,"name":"F#1","ticks":282100,"time":116.65023466666668,"velocity":0.7874015748031497},{"duration":0.1416666666666515,"durationTicks":340,"midi":20,"name":"G#0","ticks":282280,"time":116.72523466666668,"velocity":0.7874015748031497},{"duration":0.11666666666664582,"durationTicks":280,"midi":32,"name":"G#1","ticks":282340,"time":116.75023466666669,"velocity":0.7874015748031497},{"duration":0.1416666666666515,"durationTicks":340,"midi":44,"name":"G#2","ticks":282760,"time":116.92523466666668,"velocity":0.7874015748031497},{"duration":0.11666666666664582,"durationTicks":280,"midi":56,"name":"G#3","ticks":282820,"time":116.95023466666669,"velocity":0.7874015748031497},{"duration":0.1416666666666515,"durationTicks":340,"midi":32,"name":"G#1","ticks":283240,"time":117.12523466666669,"velocity":0.7874015748031497},{"duration":0.11666666666666003,"durationTicks":280,"midi":44,"name":"G#2","ticks":283300,"time":117.15023466666668,"velocity":0.7874015748031497},{"duration":0.1416666666666515,"durationTicks":340,"midi":33,"name":"A1","ticks":283720,"time":117.32523466666669,"velocity":0.7874015748031497},{"duration":0.11666666666666003,"durationTicks":280,"midi":45,"name":"A2","ticks":283780,"time":117.35023466666668,"velocity":0.7874015748031497},{"duration":0.1416666666666515,"durationTicks":340,"midi":33,"name":"A1","ticks":284200,"time":117.52523466666668,"velocity":0.7874015748031497},{"duration":0.11666666666664582,"durationTicks":280,"midi":45,"name":"A2","ticks":284260,"time":117.55023466666668,"velocity":0.7874015748031497},{"duration":0.1416666666666515,"durationTicks":340,"midi":45,"name":"A2","ticks":284680,"time":117.72523466666668,"velocity":0.7874015748031497},{"duration":0.11666666666664582,"durationTicks":280,"midi":57,"name":"A3","ticks":284740,"time":117.75023466666669,"velocity":0.7874015748031497},{"duration":0.1416666666666515,"durationTicks":340,"midi":21,"name":"A0","ticks":285160,"time":117.92523466666668,"velocity":0.7874015748031497},{"duration":0.11666666666664582,"durationTicks":280,"midi":33,"name":"A1","ticks":285220,"time":117.95023466666669,"velocity":0.7874015748031497},{"duration":0.04166666666664298,"durationTicks":100,"midi":45,"name":"A2","ticks":285640,"time":118.12523466666669,"velocity":0.7874015748031497},{"duration":0.01666666666665151,"durationTicks":40,"midi":57,"name":"A3","ticks":285700,"time":118.15023466666668,"velocity":0.7874015748031497},{"duration":0.04166666666665719,"durationTicks":100,"midi":28,"name":"E1","ticks":285880,"time":118.22523466666668,"velocity":0.7874015748031497},{"duration":0.01666666666665151,"durationTicks":40,"midi":40,"name":"E2","ticks":285940,"time":118.25023466666669,"velocity":0.7874015748031497},{"duration":0.16666666666664298,"durationTicks":400,"midi":47,"name":"B2","ticks":286120,"time":118.32523466666669,"velocity":0.7874015748031497},{"duration":0.1416666666666515,"durationTicks":340,"midi":35,"name":"B1","ticks":286120,"time":118.32523466666669,"velocity":0.7874015748031497},{"duration":0.11666666666666003,"durationTicks":280,"midi":59,"name":"B3","ticks":286180,"time":118.35023466666668,"velocity":0.6062992125984252},{"duration":0.24166666666666003,"durationTicks":580,"midi":35,"name":"B1","ticks":287080,"time":118.72523466666668,"velocity":0.7874015748031497},{"duration":0.1666666666666572,"durationTicks":400,"midi":47,"name":"B2","ticks":287080,"time":118.72523466666668,"velocity":0.7874015748031497},{"duration":0.21666666666665435,"durationTicks":520,"midi":59,"name":"B3","ticks":287140,"time":118.75023466666669,"velocity":0.6141732283464567},{"duration":0.15833333333333144,"durationTicks":380,"midi":40,"name":"E2","ticks":349440,"time":144.708568,"velocity":0.7874015748031497},{"duration":0.13333333333332575,"durationTicks":320,"midi":52,"name":"E3","ticks":349500,"time":144.73356800000002,"velocity":0.7874015748031497},{"duration":0.15833333333333144,"durationTicks":380,"midi":52,"name":"E3","ticks":349920,"time":144.908568,"velocity":0.7874015748031497},{"duration":0.13333333333332575,"durationTicks":320,"midi":64,"name":"E4","ticks":349980,"time":144.933568,"velocity":0.7874015748031497},{"duration":0.15833333333330302,"durationTicks":380,"midi":40,"name":"E2","ticks":350400,"time":145.10856800000002,"velocity":0.7874015748031497},{"duration":0.13333333333332575,"durationTicks":320,"midi":52,"name":"E3","ticks":350460,"time":145.133568,"velocity":0.7874015748031497},{"duration":0.05833333333333712,"durationTicks":140,"midi":52,"name":"E3","ticks":350880,"time":145.308568,"velocity":0.7874015748031497},{"duration":0.03333333333333144,"durationTicks":80,"midi":64,"name":"E4","ticks":350940,"time":145.333568,"velocity":0.7874015748031497},{"duration":0.05833333333333712,"durationTicks":140,"midi":40,"name":"E2","ticks":351120,"time":145.408568,"velocity":0.7874015748031497},{"duration":0.03333333333333144,"durationTicks":80,"midi":52,"name":"E3","ticks":351180,"time":145.433568,"velocity":0.7874015748031497},{"duration":0.05833333333333712,"durationTicks":140,"midi":21,"name":"A0","ticks":351360,"time":145.508568,"velocity":0.7874015748031497},{"duration":0.03333333333333144,"durationTicks":80,"midi":33,"name":"A1","ticks":351420,"time":145.533568,"velocity":0.7874015748031497},{"duration":0.08333333333331439,"durationTicks":200,"midi":45,"name":"A2","ticks":351600,"time":145.60856800000002,"velocity":0.7874015748031497},{"duration":0.05833333333333712,"durationTicks":140,"midi":57,"name":"A3","ticks":351660,"time":145.633568,"velocity":0.7874015748031497},{"duration":0.15833333333333144,"durationTicks":380,"midi":21,"name":"A0","ticks":351840,"time":145.708568,"velocity":0.7874015748031497},{"duration":0.13333333333332575,"durationTicks":320,"midi":33,"name":"A1","ticks":351900,"time":145.73356800000002,"velocity":0.7874015748031497},{"duration":0.15833333333333144,"durationTicks":380,"midi":45,"name":"A2","ticks":352320,"time":145.908568,"velocity":0.7874015748031497},{"duration":0.13333333333332575,"durationTicks":320,"midi":57,"name":"A3","ticks":352380,"time":145.933568,"velocity":0.7874015748031497},{"duration":0.15833333333330302,"durationTicks":380,"midi":33,"name":"A1","ticks":352800,"time":146.10856800000002,"velocity":0.7874015748031497},{"duration":0.13333333333332575,"durationTicks":320,"midi":45,"name":"A2","ticks":352860,"time":146.133568,"velocity":0.7874015748031497},{"duration":0.15833333333333144,"durationTicks":380,"midi":38,"name":"D2","ticks":353280,"time":146.308568,"velocity":0.7874015748031497},{"duration":0.13333333333332575,"durationTicks":320,"midi":50,"name":"D3","ticks":353340,"time":146.333568,"velocity":0.7874015748031497},{"duration":0.15833333333333144,"durationTicks":380,"midi":50,"name":"D3","ticks":353760,"time":146.508568,"velocity":0.7874015748031497},{"duration":0.13333333333332575,"durationTicks":320,"midi":62,"name":"D4","ticks":353820,"time":146.533568,"velocity":0.7874015748031497},{"duration":0.15833333333333144,"durationTicks":380,"midi":26,"name":"D1","ticks":354240,"time":146.708568,"velocity":0.7874015748031497},{"duration":0.13333333333332575,"durationTicks":320,"midi":38,"name":"D2","ticks":354300,"time":146.73356800000002,"velocity":0.7874015748031497},{"duration":0.05833333333333712,"durationTicks":140,"midi":50,"name":"D3","ticks":354720,"time":146.908568,"velocity":0.7874015748031497},{"duration":0.03333333333333144,"durationTicks":80,"midi":62,"name":"D4","ticks":354780,"time":146.933568,"velocity":0.7874015748031497},{"duration":0.05833333333333712,"durationTicks":140,"midi":33,"name":"A1","ticks":354960,"time":147.008568,"velocity":0.7874015748031497},{"duration":0.03333333333333144,"durationTicks":80,"midi":45,"name":"A2","ticks":355020,"time":147.033568,"velocity":0.7874015748031497},{"duration":0.15833333333330302,"durationTicks":380,"midi":31,"name":"G1","ticks":355200,"time":147.10856800000002,"velocity":0.7874015748031497},{"duration":0.13333333333332575,"durationTicks":320,"midi":43,"name":"G2","ticks":355260,"time":147.133568,"velocity":0.7874015748031497},{"duration":0.08333333333331439,"durationTicks":200,"midi":43,"name":"G2","ticks":355680,"time":147.308568,"velocity":0.7874015748031497},{"duration":0.0583333333333087,"durationTicks":140,"midi":55,"name":"G3","ticks":355740,"time":147.333568,"velocity":0.7874015748031497},{"duration":0.15833333333333144,"durationTicks":380,"midi":31,"name":"G1","ticks":356160,"time":147.508568,"velocity":0.7874015748031497},{"duration":0.13333333333332575,"durationTicks":320,"midi":43,"name":"G2","ticks":356220,"time":147.533568,"velocity":0.7874015748031497},{"duration":0.13333333333332575,"durationTicks":320,"midi":43,"name":"G2","ticks":356640,"time":147.708568,"velocity":0.7874015748031497},{"duration":0.10833333333332007,"durationTicks":260,"midi":55,"name":"G3","ticks":356700,"time":147.73356800000002,"velocity":0.7874015748031497},{"duration":0.15833333333333144,"durationTicks":380,"midi":30,"name":"F#1","ticks":357120,"time":147.908568,"velocity":0.7874015748031497},{"duration":0.13333333333332575,"durationTicks":320,"midi":42,"name":"F#2","ticks":357180,"time":147.933568,"velocity":0.7874015748031497},{"duration":0.15833333333330302,"durationTicks":380,"midi":42,"name":"F#2","ticks":357600,"time":148.10856800000002,"velocity":0.7874015748031497},{"duration":0.13333333333332575,"durationTicks":320,"midi":54,"name":"F#3","ticks":357660,"time":148.133568,"velocity":0.7874015748031497},{"duration":0.15833333333333144,"durationTicks":380,"midi":30,"name":"F#1","ticks":358080,"time":148.308568,"velocity":0.7874015748031497},{"duration":0.13333333333332575,"durationTicks":320,"midi":42,"name":"F#2","ticks":358140,"time":148.333568,"velocity":0.7874015748031497},{"duration":0.05833333333333712,"durationTicks":140,"midi":42,"name":"F#2","ticks":358560,"time":148.508568,"velocity":0.7874015748031497},{"duration":0.03333333333333144,"durationTicks":80,"midi":54,"name":"F#3","ticks":358620,"time":148.533568,"velocity":0.7874015748031497},{"duration":0.0583333333333087,"durationTicks":140,"midi":30,"name":"F#1","ticks":358800,"time":148.60856800000002,"velocity":0.7874015748031497},{"duration":0.03333333333333144,"durationTicks":80,"midi":42,"name":"F#2","ticks":358860,"time":148.633568,"velocity":0.7874015748031497},{"duration":0.0583333333333087,"durationTicks":140,"midi":20,"name":"G#0","ticks":359040,"time":148.708568,"velocity":0.7874015748031497},{"duration":0.03333333333330302,"durationTicks":80,"midi":32,"name":"G#1","ticks":359100,"time":148.73356800000002,"velocity":0.7874015748031497},{"duration":0.08333333333331439,"durationTicks":200,"midi":44,"name":"G#2","ticks":359280,"time":148.808568,"velocity":0.7874015748031497},{"duration":0.0583333333333087,"durationTicks":140,"midi":56,"name":"G#3","ticks":359340,"time":148.833568,"velocity":0.7874015748031497},{"duration":0.15833333333333144,"durationTicks":380,"midi":20,"name":"G#0","ticks":359520,"time":148.908568,"velocity":0.7874015748031497},{"duration":0.13333333333332575,"durationTicks":320,"midi":32,"name":"G#1","ticks":359580,"time":148.933568,"velocity":0.7874015748031497},{"duration":0.15833333333330302,"durationTicks":380,"midi":44,"name":"G#2","ticks":360000,"time":149.10856800000002,"velocity":0.7874015748031497},{"duration":0.13333333333332575,"durationTicks":320,"midi":56,"name":"G#3","ticks":360060,"time":149.133568,"velocity":0.7874015748031497},{"duration":0.15833333333333144,"durationTicks":380,"midi":32,"name":"G#1","ticks":360480,"time":149.308568,"velocity":0.7874015748031497},{"duration":0.13333333333332575,"durationTicks":320,"midi":44,"name":"G#2","ticks":360540,"time":149.333568,"velocity":0.7874015748031497},{"duration":0.15833333333333144,"durationTicks":380,"midi":33,"name":"A1","ticks":360960,"time":149.508568,"velocity":0.7874015748031497},{"duration":0.13333333333332575,"durationTicks":320,"midi":45,"name":"A2","ticks":361020,"time":149.533568,"velocity":0.7874015748031497},{"duration":0.15833333333333144,"durationTicks":380,"midi":45,"name":"A2","ticks":361440,"time":149.708568,"velocity":0.7874015748031497},{"duration":0.13333333333332575,"durationTicks":320,"midi":57,"name":"A3","ticks":361500,"time":149.73356800000002,"velocity":0.7874015748031497},{"duration":0.15833333333333144,"durationTicks":380,"midi":21,"name":"A0","ticks":361920,"time":149.908568,"velocity":0.7874015748031497},{"duration":0.13333333333332575,"durationTicks":320,"midi":33,"name":"A1","ticks":361980,"time":149.933568,"velocity":0.7874015748031497},{"duration":0.0583333333333087,"durationTicks":140,"midi":45,"name":"A2","ticks":362400,"time":150.10856800000002,"velocity":0.7874015748031497},{"duration":0.03333333333333144,"durationTicks":80,"midi":57,"name":"A3","ticks":362460,"time":150.133568,"velocity":0.7874015748031497},{"duration":0.0583333333333087,"durationTicks":140,"midi":28,"name":"E1","ticks":362640,"time":150.208568,"velocity":0.7874015748031497},{"duration":0.03333333333330302,"durationTicks":80,"midi":40,"name":"E2","ticks":362700,"time":150.23356800000002,"velocity":0.7874015748031497},{"duration":0.15833333333333144,"durationTicks":380,"midi":38,"name":"D2","ticks":362880,"time":150.308568,"velocity":0.7874015748031497},{"duration":0.13333333333332575,"durationTicks":320,"midi":50,"name":"D3","ticks":362940,"time":150.333568,"velocity":0.7874015748031497},{"duration":0.08333333333334281,"durationTicks":200,"midi":50,"name":"D3","ticks":363360,"time":150.508568,"velocity":0.7874015748031497},{"duration":0.05833333333333712,"durationTicks":140,"midi":62,"name":"D4","ticks":363420,"time":150.533568,"velocity":0.7874015748031497},{"duration":0.15833333333333144,"durationTicks":380,"midi":38,"name":"D2","ticks":363840,"time":150.708568,"velocity":0.7874015748031497},{"duration":0.13333333333332575,"durationTicks":320,"midi":50,"name":"D3","ticks":363900,"time":150.73356800000002,"velocity":0.7874015748031497},{"duration":0.13333333333332575,"durationTicks":320,"midi":50,"name":"D3","ticks":364320,"time":150.908568,"velocity":0.7874015748031497},{"duration":0.10833333333332007,"durationTicks":260,"midi":62,"name":"D4","ticks":364380,"time":150.933568,"velocity":0.7874015748031497},{"duration":0.15833333333330302,"durationTicks":380,"midi":40,"name":"E2","ticks":364800,"time":151.10856800000002,"velocity":0.7874015748031497},{"duration":0.13333333333332575,"durationTicks":320,"midi":52,"name":"E3","ticks":364860,"time":151.133568,"velocity":0.7874015748031497},{"duration":0.15833333333333144,"durationTicks":380,"midi":52,"name":"E3","ticks":365280,"time":151.308568,"velocity":0.7874015748031497},{"duration":0.13333333333332575,"durationTicks":320,"midi":64,"name":"E4","ticks":365340,"time":151.333568,"velocity":0.7874015748031497},{"duration":0.15833333333333144,"durationTicks":380,"midi":40,"name":"E2","ticks":365760,"time":151.508568,"velocity":0.7874015748031497},{"duration":0.13333333333332575,"durationTicks":320,"midi":52,"name":"E3","ticks":365820,"time":151.533568,"velocity":0.7874015748031497},{"duration":0.0583333333333087,"durationTicks":140,"midi":52,"name":"E3","ticks":366240,"time":151.708568,"velocity":0.7874015748031497},{"duration":0.03333333333330302,"durationTicks":80,"midi":64,"name":"E4","ticks":366300,"time":151.73356800000002,"velocity":0.7874015748031497},{"duration":0.05833333333333712,"durationTicks":140,"midi":40,"name":"E2","ticks":366480,"time":151.808568,"velocity":0.7874015748031497},{"duration":0.03333333333333144,"durationTicks":80,"midi":52,"name":"E3","ticks":366540,"time":151.833568,"velocity":0.7874015748031497},{"duration":0.05833333333333712,"durationTicks":140,"midi":21,"name":"A0","ticks":366720,"time":151.908568,"velocity":0.7874015748031497},{"duration":0.03333333333333144,"durationTicks":80,"midi":33,"name":"A1","ticks":366780,"time":151.933568,"velocity":0.7874015748031497},{"duration":0.08333333333334281,"durationTicks":200,"midi":45,"name":"A2","ticks":366960,"time":152.008568,"velocity":0.7874015748031497},{"duration":0.05833333333333712,"durationTicks":140,"midi":57,"name":"A3","ticks":367020,"time":152.033568,"velocity":0.7874015748031497},{"duration":0.15833333333330302,"durationTicks":380,"midi":21,"name":"A0","ticks":367200,"time":152.10856800000002,"velocity":0.7874015748031497},{"duration":0.13333333333332575,"durationTicks":320,"midi":33,"name":"A1","ticks":367260,"time":152.133568,"velocity":0.7874015748031497},{"duration":0.15833333333333144,"durationTicks":380,"midi":45,"name":"A2","ticks":367680,"time":152.308568,"velocity":0.7874015748031497},{"duration":0.13333333333332575,"durationTicks":320,"midi":57,"name":"A3","ticks":367740,"time":152.333568,"velocity":0.7874015748031497},{"duration":0.15833333333333144,"durationTicks":380,"midi":33,"name":"A1","ticks":368160,"time":152.508568,"velocity":0.7874015748031497},{"duration":0.13333333333332575,"durationTicks":320,"midi":45,"name":"A2","ticks":368220,"time":152.533568,"velocity":0.7874015748031497},{"duration":0.15833333333333144,"durationTicks":380,"midi":38,"name":"D2","ticks":368640,"time":152.708568,"velocity":0.7874015748031497},{"duration":0.13333333333332575,"durationTicks":320,"midi":50,"name":"D3","ticks":368700,"time":152.73356800000002,"velocity":0.7874015748031497},{"duration":0.15833333333333144,"durationTicks":380,"midi":50,"name":"D3","ticks":369120,"time":152.908568,"velocity":0.7874015748031497},{"duration":0.13333333333332575,"durationTicks":320,"midi":62,"name":"D4","ticks":369180,"time":152.933568,"velocity":0.7874015748031497},{"duration":0.15833333333330302,"durationTicks":380,"midi":26,"name":"D1","ticks":369600,"time":153.10856800000002,"velocity":0.7874015748031497},{"duration":0.13333333333332575,"durationTicks":320,"midi":38,"name":"D2","ticks":369660,"time":153.133568,"velocity":0.7874015748031497},{"duration":0.05833333333333712,"durationTicks":140,"midi":50,"name":"D3","ticks":370080,"time":153.308568,"velocity":0.7874015748031497},{"duration":0.03333333333333144,"durationTicks":80,"midi":62,"name":"D4","ticks":370140,"time":153.333568,"velocity":0.7874015748031497},{"duration":0.05833333333333712,"durationTicks":140,"midi":33,"name":"A1","ticks":370320,"time":153.408568,"velocity":0.7874015748031497},{"duration":0.03333333333333144,"durationTicks":80,"midi":45,"name":"A2","ticks":370380,"time":153.433568,"velocity":0.7874015748031497},{"duration":0.15833333333333144,"durationTicks":380,"midi":31,"name":"G1","ticks":370560,"time":153.508568,"velocity":0.7874015748031497},{"duration":0.13333333333332575,"durationTicks":320,"midi":43,"name":"G2","ticks":370620,"time":153.533568,"velocity":0.7874015748031497},{"duration":0.08333333333331439,"durationTicks":200,"midi":43,"name":"G2","ticks":371040,"time":153.708568,"velocity":0.7874015748031497},{"duration":0.0583333333333087,"durationTicks":140,"midi":55,"name":"G3","ticks":371100,"time":153.73356800000002,"velocity":0.7874015748031497},{"duration":0.15833333333333144,"durationTicks":380,"midi":31,"name":"G1","ticks":371520,"time":153.908568,"velocity":0.7874015748031497},{"duration":0.13333333333332575,"durationTicks":320,"midi":43,"name":"G2","ticks":371580,"time":153.933568,"velocity":0.7874015748031497},{"duration":0.13333333333332575,"durationTicks":320,"midi":43,"name":"G2","ticks":372000,"time":154.10856800000002,"velocity":0.7874015748031497},{"duration":0.10833333333334849,"durationTicks":260,"midi":55,"name":"G3","ticks":372060,"time":154.133568,"velocity":0.7874015748031497},{"duration":0.15833333333333144,"durationTicks":380,"midi":36,"name":"C2","ticks":372480,"time":154.308568,"velocity":0.7874015748031497},{"duration":0.13333333333332575,"durationTicks":320,"midi":48,"name":"C3","ticks":372540,"time":154.333568,"velocity":0.7874015748031497},{"duration":0.15833333333333144,"durationTicks":380,"midi":48,"name":"C3","ticks":372960,"time":154.508568,"velocity":0.7874015748031497},{"duration":0.13333333333332575,"durationTicks":320,"midi":60,"name":"C4","ticks":373020,"time":154.533568,"velocity":0.7874015748031497},{"duration":0.15833333333333144,"durationTicks":380,"midi":36,"name":"C2","ticks":373440,"time":154.708568,"velocity":0.7874015748031497},{"duration":0.13333333333332575,"durationTicks":320,"midi":48,"name":"C3","ticks":373500,"time":154.73356800000002,"velocity":0.7874015748031497},{"duration":0.05833333333333712,"durationTicks":140,"midi":48,"name":"C3","ticks":373920,"time":154.908568,"velocity":0.7874015748031497},{"duration":0.03333333333333144,"durationTicks":80,"midi":60,"name":"C4","ticks":373980,"time":154.933568,"velocity":0.7874015748031497},{"duration":0.05833333333333712,"durationTicks":140,"midi":36,"name":"C2","ticks":374160,"time":155.008568,"velocity":0.7874015748031497},{"duration":0.03333333333333144,"durationTicks":80,"midi":48,"name":"C3","ticks":374220,"time":155.033568,"velocity":0.7874015748031497},{"duration":0.0583333333333087,"durationTicks":140,"midi":26,"name":"D1","ticks":374400,"time":155.10856800000002,"velocity":0.7874015748031497},{"duration":0.03333333333333144,"durationTicks":80,"midi":38,"name":"D2","ticks":374460,"time":155.133568,"velocity":0.7874015748031497},{"duration":0.08333333333331439,"durationTicks":200,"midi":50,"name":"D3","ticks":374640,"time":155.208568,"velocity":0.7874015748031497},{"duration":0.0583333333333087,"durationTicks":140,"midi":62,"name":"D4","ticks":374700,"time":155.23356800000002,"velocity":0.7874015748031497},{"duration":0.15833333333333144,"durationTicks":380,"midi":26,"name":"D1","ticks":374880,"time":155.308568,"velocity":0.7874015748031497},{"duration":0.13333333333332575,"durationTicks":320,"midi":38,"name":"D2","ticks":374940,"time":155.333568,"velocity":0.7874015748031497},{"duration":0.15833333333333144,"durationTicks":380,"midi":50,"name":"D3","ticks":375360,"time":155.508568,"velocity":0.7874015748031497},{"duration":0.13333333333332575,"durationTicks":320,"midi":62,"name":"D4","ticks":375420,"time":155.533568,"velocity":0.7874015748031497},{"duration":0.15833333333333144,"durationTicks":380,"midi":38,"name":"D2","ticks":375840,"time":155.708568,"velocity":0.7874015748031497},{"duration":0.13333333333332575,"durationTicks":320,"midi":50,"name":"D3","ticks":375900,"time":155.73356800000002,"velocity":0.7874015748031497},{"duration":0.15833333333333144,"durationTicks":380,"midi":35,"name":"B1","ticks":376320,"time":155.908568,"velocity":0.7874015748031497},{"duration":0.13333333333332575,"durationTicks":320,"midi":47,"name":"B2","ticks":376380,"time":155.933568,"velocity":0.7874015748031497},{"duration":0.15833333333330302,"durationTicks":380,"midi":47,"name":"B2","ticks":376800,"time":156.10856800000002,"velocity":0.7874015748031497},{"duration":0.13333333333332575,"durationTicks":320,"midi":59,"name":"B3","ticks":376860,"time":156.133568,"velocity":0.7874015748031497},{"duration":0.15833333333333144,"durationTicks":380,"midi":35,"name":"B1","ticks":377280,"time":156.308568,"velocity":0.7874015748031497},{"duration":0.13333333333332575,"durationTicks":320,"midi":47,"name":"B2","ticks":377340,"time":156.333568,"velocity":0.7874015748031497},{"duration":0.05833333333333712,"durationTicks":140,"midi":47,"name":"B2","ticks":377760,"time":156.508568,"velocity":0.7874015748031497},{"duration":0.03333333333333144,"durationTicks":80,"midi":59,"name":"B3","ticks":377820,"time":156.533568,"velocity":0.7874015748031497},{"duration":0.0583333333333087,"durationTicks":140,"midi":35,"name":"B1","ticks":378000,"time":156.60856800000002,"velocity":0.7874015748031497},{"duration":0.03333333333333144,"durationTicks":80,"midi":47,"name":"B2","ticks":378060,"time":156.633568,"velocity":0.7874015748031497},{"duration":0.0583333333333087,"durationTicks":140,"midi":28,"name":"E1","ticks":378240,"time":156.708568,"velocity":0.7874015748031497},{"duration":0.03333333333330302,"durationTicks":80,"midi":40,"name":"E2","ticks":378300,"time":156.73356800000002,"velocity":0.7874015748031497},{"duration":0.08333333333331439,"durationTicks":200,"midi":52,"name":"E3","ticks":378480,"time":156.808568,"velocity":0.7874015748031497},{"duration":0.0583333333333087,"durationTicks":140,"midi":64,"name":"E4","ticks":378540,"time":156.833568,"velocity":0.7874015748031497},{"duration":0.20000000000001705,"durationTicks":480,"midi":40,"name":"E2","ticks":378720,"time":156.908568,"velocity":0.7874015748031497},{"duration":0.15000000000000568,"durationTicks":360,"midi":52,"name":"E3","ticks":378840,"time":156.958568,"velocity":0.7874015748031497},{"duration":0.15833333333330302,"durationTicks":380,"midi":28,"name":"E1","ticks":379200,"time":157.10856800000002,"velocity":0.7874015748031497},{"duration":0.13333333333332575,"durationTicks":320,"midi":52,"name":"E3","ticks":379260,"time":157.133568,"velocity":0.7874015748031497},{"duration":0.15833333333333144,"durationTicks":380,"midi":40,"name":"E2","ticks":379680,"time":157.308568,"velocity":0.7874015748031497},{"duration":0.13333333333332575,"durationTicks":320,"midi":64,"name":"E4","ticks":379740,"time":157.333568,"velocity":0.7874015748031497},{"duration":0.15833333333330302,"durationTicks":380,"midi":40,"name":"E2","ticks":380160,"time":157.50856800000003,"velocity":0.7874015748031497},{"duration":0.13333333333332575,"durationTicks":320,"midi":52,"name":"E3","ticks":380220,"time":157.533568,"velocity":0.7874015748031497},{"duration":0.15833333333333144,"durationTicks":380,"midi":52,"name":"E3","ticks":380640,"time":157.708568,"velocity":0.7874015748031497},{"duration":0.13333333333332575,"durationTicks":320,"midi":64,"name":"E4","ticks":380700,"time":157.73356800000002,"velocity":0.7874015748031497},{"duration":0.15833333333333144,"durationTicks":380,"midi":40,"name":"E2","ticks":381120,"time":157.908568,"velocity":0.7874015748031497},{"duration":0.13333333333332575,"durationTicks":320,"midi":52,"name":"E3","ticks":381180,"time":157.933568,"velocity":0.7874015748031497},{"duration":0.0583333333333087,"durationTicks":140,"midi":52,"name":"E3","ticks":381600,"time":158.10856800000002,"velocity":0.7874015748031497},{"duration":0.03333333333330302,"durationTicks":80,"midi":64,"name":"E4","ticks":381660,"time":158.13356800000003,"velocity":0.7874015748031497},{"duration":0.05833333333333712,"durationTicks":140,"midi":40,"name":"E2","ticks":381840,"time":158.208568,"velocity":0.7874015748031497},{"duration":0.03333333333333144,"durationTicks":80,"midi":52,"name":"E3","ticks":381900,"time":158.23356800000002,"velocity":0.7874015748031497},{"duration":0.05833333333333712,"durationTicks":140,"midi":21,"name":"A0","ticks":382080,"time":158.308568,"velocity":0.7874015748031497},{"duration":0.03333333333333144,"durationTicks":80,"midi":33,"name":"A1","ticks":382140,"time":158.333568,"velocity":0.7874015748031497},{"duration":0.08333333333334281,"durationTicks":200,"midi":45,"name":"A2","ticks":382320,"time":158.408568,"velocity":0.7874015748031497},{"duration":0.05833333333333712,"durationTicks":140,"midi":57,"name":"A3","ticks":382380,"time":158.433568,"velocity":0.7874015748031497},{"duration":0.15833333333330302,"durationTicks":380,"midi":21,"name":"A0","ticks":382560,"time":158.50856800000003,"velocity":0.7874015748031497},{"duration":0.13333333333332575,"durationTicks":320,"midi":33,"name":"A1","ticks":382620,"time":158.533568,"velocity":0.7874015748031497},{"duration":0.15833333333333144,"durationTicks":380,"midi":45,"name":"A2","ticks":383040,"time":158.708568,"velocity":0.7874015748031497},{"duration":0.13333333333332575,"durationTicks":320,"midi":57,"name":"A3","ticks":383100,"time":158.73356800000002,"velocity":0.7874015748031497},{"duration":0.15833333333333144,"durationTicks":380,"midi":33,"name":"A1","ticks":383520,"time":158.908568,"velocity":0.7874015748031497},{"duration":0.13333333333332575,"durationTicks":320,"midi":45,"name":"A2","ticks":383580,"time":158.933568,"velocity":0.7874015748031497},{"duration":0.15833333333333144,"durationTicks":380,"midi":38,"name":"D2","ticks":384000,"time":159.10856800000002,"velocity":0.7874015748031497},{"duration":0.13333333333332575,"durationTicks":320,"midi":50,"name":"D3","ticks":384060,"time":159.13356800000003,"velocity":0.7874015748031497},{"duration":0.15833333333333144,"durationTicks":380,"midi":50,"name":"D3","ticks":384480,"time":159.308568,"velocity":0.7874015748031497},{"duration":0.13333333333332575,"durationTicks":320,"midi":62,"name":"D4","ticks":384540,"time":159.333568,"velocity":0.7874015748031497},{"duration":0.15833333333330302,"durationTicks":380,"midi":26,"name":"D1","ticks":384960,"time":159.50856800000003,"velocity":0.7874015748031497},{"duration":0.13333333333332575,"durationTicks":320,"midi":38,"name":"D2","ticks":385020,"time":159.533568,"velocity":0.7874015748031497},{"duration":0.05833333333333712,"durationTicks":140,"midi":50,"name":"D3","ticks":385440,"time":159.708568,"velocity":0.7874015748031497},{"duration":0.03333333333333144,"durationTicks":80,"midi":62,"name":"D4","ticks":385500,"time":159.73356800000002,"velocity":0.7874015748031497},{"duration":0.05833333333333712,"durationTicks":140,"midi":33,"name":"A1","ticks":385680,"time":159.808568,"velocity":0.7874015748031497},{"duration":0.03333333333333144,"durationTicks":80,"midi":45,"name":"A2","ticks":385740,"time":159.833568,"velocity":0.7874015748031497},{"duration":0.15833333333333144,"durationTicks":380,"midi":31,"name":"G1","ticks":385920,"time":159.908568,"velocity":0.7874015748031497},{"duration":0.13333333333332575,"durationTicks":320,"midi":43,"name":"G2","ticks":385980,"time":159.933568,"velocity":0.7874015748031497},{"duration":0.08333333333331439,"durationTicks":200,"midi":43,"name":"G2","ticks":386400,"time":160.10856800000002,"velocity":0.7874015748031497},{"duration":0.0583333333333087,"durationTicks":140,"midi":55,"name":"G3","ticks":386460,"time":160.13356800000003,"velocity":0.7874015748031497},{"duration":0.15833333333333144,"durationTicks":380,"midi":31,"name":"G1","ticks":386880,"time":160.308568,"velocity":0.7874015748031497},{"duration":0.13333333333332575,"durationTicks":320,"midi":43,"name":"G2","ticks":386940,"time":160.333568,"velocity":0.7874015748031497},{"duration":0.13333333333332575,"durationTicks":320,"midi":43,"name":"G2","ticks":387360,"time":160.50856800000003,"velocity":0.7874015748031497},{"duration":0.10833333333334849,"durationTicks":260,"midi":55,"name":"G3","ticks":387420,"time":160.533568,"velocity":0.7874015748031497},{"duration":0.15833333333333144,"durationTicks":380,"midi":30,"name":"F#1","ticks":387840,"time":160.708568,"velocity":0.7874015748031497},{"duration":0.13333333333332575,"durationTicks":320,"midi":42,"name":"F#2","ticks":387900,"time":160.73356800000002,"velocity":0.7874015748031497},{"duration":0.15833333333333144,"durationTicks":380,"midi":42,"name":"F#2","ticks":388320,"time":160.908568,"velocity":0.7874015748031497},{"duration":0.13333333333332575,"durationTicks":320,"midi":54,"name":"F#3","ticks":388380,"time":160.933568,"velocity":0.7874015748031497},{"duration":0.15833333333333144,"durationTicks":380,"midi":30,"name":"F#1","ticks":388800,"time":161.10856800000002,"velocity":0.7874015748031497},{"duration":0.13333333333332575,"durationTicks":320,"midi":42,"name":"F#2","ticks":388860,"time":161.13356800000003,"velocity":0.7874015748031497},{"duration":0.05833333333333712,"durationTicks":140,"midi":42,"name":"F#2","ticks":389280,"time":161.308568,"velocity":0.7874015748031497},{"duration":0.03333333333333144,"durationTicks":80,"midi":54,"name":"F#3","ticks":389340,"time":161.333568,"velocity":0.7874015748031497},{"duration":0.05833333333333712,"durationTicks":140,"midi":30,"name":"F#1","ticks":389520,"time":161.408568,"velocity":0.7874015748031497},{"duration":0.03333333333333144,"durationTicks":80,"midi":42,"name":"F#2","ticks":389580,"time":161.433568,"velocity":0.7874015748031497},{"duration":0.0583333333333087,"durationTicks":140,"midi":20,"name":"G#0","ticks":389760,"time":161.50856800000003,"velocity":0.7874015748031497},{"duration":0.03333333333333144,"durationTicks":80,"midi":32,"name":"G#1","ticks":389820,"time":161.533568,"velocity":0.7874015748031497},{"duration":0.08333333333331439,"durationTicks":200,"midi":44,"name":"G#2","ticks":390000,"time":161.60856800000002,"velocity":0.7874015748031497},{"duration":0.0583333333333087,"durationTicks":140,"midi":56,"name":"G#3","ticks":390060,"time":161.63356800000003,"velocity":0.7874015748031497},{"duration":0.15833333333333144,"durationTicks":380,"midi":20,"name":"G#0","ticks":390240,"time":161.708568,"velocity":0.7874015748031497},{"duration":0.13333333333332575,"durationTicks":320,"midi":32,"name":"G#1","ticks":390300,"time":161.73356800000002,"velocity":0.7874015748031497},{"duration":0.15833333333333144,"durationTicks":380,"midi":44,"name":"G#2","ticks":390720,"time":161.908568,"velocity":0.7874015748031497},{"duration":0.13333333333332575,"durationTicks":320,"midi":56,"name":"G#3","ticks":390780,"time":161.933568,"velocity":0.7874015748031497},{"duration":0.15833333333333144,"durationTicks":380,"midi":32,"name":"G#1","ticks":391200,"time":162.10856800000002,"velocity":0.7874015748031497},{"duration":0.13333333333332575,"durationTicks":320,"midi":44,"name":"G#2","ticks":391260,"time":162.13356800000003,"velocity":0.7874015748031497},{"duration":0.15833333333333144,"durationTicks":380,"midi":33,"name":"A1","ticks":391680,"time":162.308568,"velocity":0.7874015748031497},{"duration":0.13333333333332575,"durationTicks":320,"midi":45,"name":"A2","ticks":391740,"time":162.333568,"velocity":0.7874015748031497},{"duration":0.15833333333330302,"durationTicks":380,"midi":45,"name":"A2","ticks":392160,"time":162.50856800000003,"velocity":0.7874015748031497},{"duration":0.13333333333332575,"durationTicks":320,"midi":57,"name":"A3","ticks":392220,"time":162.533568,"velocity":0.7874015748031497},{"duration":0.15833333333333144,"durationTicks":380,"midi":21,"name":"A0","ticks":392640,"time":162.708568,"velocity":0.7874015748031497},{"duration":0.13333333333332575,"durationTicks":320,"midi":33,"name":"A1","ticks":392700,"time":162.73356800000002,"velocity":0.7874015748031497},{"duration":0.05833333333333712,"durationTicks":140,"midi":45,"name":"A2","ticks":393120,"time":162.908568,"velocity":0.7874015748031497},{"duration":0.03333333333333144,"durationTicks":80,"midi":57,"name":"A3","ticks":393180,"time":162.933568,"velocity":0.7874015748031497},{"duration":0.0583333333333087,"durationTicks":140,"midi":28,"name":"E1","ticks":393360,"time":163.00856800000003,"velocity":0.7874015748031497},{"duration":0.03333333333333144,"durationTicks":80,"midi":40,"name":"E2","ticks":393420,"time":163.033568,"velocity":0.7874015748031497},{"duration":0.15833333333333144,"durationTicks":380,"midi":38,"name":"D2","ticks":393600,"time":163.10856800000002,"velocity":0.7874015748031497},{"duration":0.13333333333332575,"durationTicks":320,"midi":50,"name":"D3","ticks":393660,"time":163.13356800000003,"velocity":0.7874015748031497},{"duration":0.08333333333334281,"durationTicks":200,"midi":50,"name":"D3","ticks":394080,"time":163.308568,"velocity":0.7874015748031497},{"duration":0.05833333333333712,"durationTicks":140,"midi":62,"name":"D4","ticks":394140,"time":163.333568,"velocity":0.7874015748031497},{"duration":0.15833333333330302,"durationTicks":380,"midi":38,"name":"D2","ticks":394560,"time":163.50856800000003,"velocity":0.7874015748031497},{"duration":0.13333333333332575,"durationTicks":320,"midi":50,"name":"D3","ticks":394620,"time":163.533568,"velocity":0.7874015748031497},{"duration":0.13333333333332575,"durationTicks":320,"midi":50,"name":"D3","ticks":395040,"time":163.708568,"velocity":0.7874015748031497},{"duration":0.10833333333332007,"durationTicks":260,"midi":62,"name":"D4","ticks":395100,"time":163.73356800000002,"velocity":0.7874015748031497},{"duration":0.15833333333333144,"durationTicks":380,"midi":40,"name":"E2","ticks":395520,"time":163.908568,"velocity":0.7874015748031497},{"duration":0.13333333333332575,"durationTicks":320,"midi":52,"name":"E3","ticks":395580,"time":163.933568,"velocity":0.7874015748031497},{"duration":0.15833333333333144,"durationTicks":380,"midi":52,"name":"E3","ticks":396000,"time":164.10856800000002,"velocity":0.7874015748031497},{"duration":0.13333333333332575,"durationTicks":320,"midi":64,"name":"E4","ticks":396060,"time":164.13356800000003,"velocity":0.7874015748031497},{"duration":0.15833333333333144,"durationTicks":380,"midi":40,"name":"E2","ticks":396480,"time":164.308568,"velocity":0.7874015748031497},{"duration":0.13333333333332575,"durationTicks":320,"midi":52,"name":"E3","ticks":396540,"time":164.333568,"velocity":0.7874015748031497},{"duration":0.0583333333333087,"durationTicks":140,"midi":52,"name":"E3","ticks":396960,"time":164.50856800000003,"velocity":0.7874015748031497},{"duration":0.03333333333333144,"durationTicks":80,"midi":64,"name":"E4","ticks":397020,"time":164.533568,"velocity":0.7874015748031497},{"duration":0.0583333333333087,"durationTicks":140,"midi":40,"name":"E2","ticks":397200,"time":164.60856800000002,"velocity":0.7874015748031497},{"duration":0.03333333333330302,"durationTicks":80,"midi":52,"name":"E3","ticks":397260,"time":164.63356800000003,"velocity":0.7874015748031497},{"duration":0.05833333333333712,"durationTicks":140,"midi":21,"name":"A0","ticks":397440,"time":164.708568,"velocity":0.7874015748031497},{"duration":0.03333333333333144,"durationTicks":80,"midi":33,"name":"A1","ticks":397500,"time":164.73356800000002,"velocity":0.7874015748031497},{"duration":0.08333333333334281,"durationTicks":200,"midi":45,"name":"A2","ticks":397680,"time":164.808568,"velocity":0.7874015748031497},{"duration":0.05833333333333712,"durationTicks":140,"midi":57,"name":"A3","ticks":397740,"time":164.833568,"velocity":0.7874015748031497},{"duration":0.15833333333333144,"durationTicks":380,"midi":21,"name":"A0","ticks":397920,"time":164.908568,"velocity":0.7874015748031497},{"duration":0.13333333333332575,"durationTicks":320,"midi":33,"name":"A1","ticks":397980,"time":164.933568,"velocity":0.7874015748031497},{"duration":0.15833333333333144,"durationTicks":380,"midi":45,"name":"A2","ticks":398400,"time":165.10856800000002,"velocity":0.7874015748031497},{"duration":0.13333333333332575,"durationTicks":320,"midi":57,"name":"A3","ticks":398460,"time":165.13356800000003,"velocity":0.7874015748031497},{"duration":0.15833333333333144,"durationTicks":380,"midi":33,"name":"A1","ticks":398880,"time":165.308568,"velocity":0.7874015748031497},{"duration":0.13333333333332575,"durationTicks":320,"midi":45,"name":"A2","ticks":398940,"time":165.333568,"velocity":0.7874015748031497},{"duration":0.15833333333330302,"durationTicks":380,"midi":38,"name":"D2","ticks":399360,"time":165.50856800000003,"velocity":0.7874015748031497},{"duration":0.13333333333332575,"durationTicks":320,"midi":50,"name":"D3","ticks":399420,"time":165.533568,"velocity":0.7874015748031497},{"duration":0.15833333333333144,"durationTicks":380,"midi":50,"name":"D3","ticks":399840,"time":165.708568,"velocity":0.7874015748031497},{"duration":0.13333333333332575,"durationTicks":320,"midi":62,"name":"D4","ticks":399900,"time":165.73356800000002,"velocity":0.7874015748031497},{"duration":0.15833333333333144,"durationTicks":380,"midi":26,"name":"D1","ticks":400320,"time":165.908568,"velocity":0.7874015748031497},{"duration":0.13333333333332575,"durationTicks":320,"midi":38,"name":"D2","ticks":400380,"time":165.933568,"velocity":0.7874015748031497},{"duration":0.0583333333333087,"durationTicks":140,"midi":50,"name":"D3","ticks":400800,"time":166.10856800000002,"velocity":0.7874015748031497},{"duration":0.03333333333330302,"durationTicks":80,"midi":62,"name":"D4","ticks":400860,"time":166.13356800000003,"velocity":0.7874015748031497},{"duration":0.05833333333333712,"durationTicks":140,"midi":33,"name":"A1","ticks":401040,"time":166.208568,"velocity":0.7874015748031497},{"duration":0.03333333333333144,"durationTicks":80,"midi":45,"name":"A2","ticks":401100,"time":166.23356800000002,"velocity":0.7874015748031497},{"duration":0.15833333333333144,"durationTicks":380,"midi":31,"name":"G1","ticks":401280,"time":166.308568,"velocity":0.7874015748031497},{"duration":0.13333333333332575,"durationTicks":320,"midi":43,"name":"G2","ticks":401340,"time":166.333568,"velocity":0.7874015748031497},{"duration":0.08333333333331439,"durationTicks":200,"midi":43,"name":"G2","ticks":401760,"time":166.50856800000003,"velocity":0.7874015748031497},{"duration":0.05833333333333712,"durationTicks":140,"midi":55,"name":"G3","ticks":401820,"time":166.533568,"velocity":0.7874015748031497},{"duration":0.15833333333333144,"durationTicks":380,"midi":31,"name":"G1","ticks":402240,"time":166.708568,"velocity":0.7874015748031497},{"duration":0.13333333333332575,"durationTicks":320,"midi":43,"name":"G2","ticks":402300,"time":166.73356800000002,"velocity":0.7874015748031497},{"duration":0.13333333333332575,"durationTicks":320,"midi":43,"name":"G2","ticks":402720,"time":166.908568,"velocity":0.7874015748031497},{"duration":0.10833333333332007,"durationTicks":260,"midi":55,"name":"G3","ticks":402780,"time":166.933568,"velocity":0.7874015748031497},{"duration":0.15833333333333144,"durationTicks":380,"midi":33,"name":"A1","ticks":403200,"time":167.10856800000002,"velocity":0.7874015748031497},{"duration":0.13333333333332575,"durationTicks":320,"midi":45,"name":"A2","ticks":403260,"time":167.13356800000003,"velocity":0.7874015748031497},{"duration":0.15833333333333144,"durationTicks":380,"midi":45,"name":"A2","ticks":403680,"time":167.308568,"velocity":0.7874015748031497},{"duration":0.13333333333332575,"durationTicks":320,"midi":57,"name":"A3","ticks":403740,"time":167.333568,"velocity":0.7874015748031497},{"duration":0.15833333333330302,"durationTicks":380,"midi":33,"name":"A1","ticks":404160,"time":167.50856800000003,"velocity":0.7874015748031497},{"duration":0.13333333333332575,"durationTicks":320,"midi":45,"name":"A2","ticks":404220,"time":167.533568,"velocity":0.7874015748031497},{"duration":0.05833333333333712,"durationTicks":140,"midi":45,"name":"A2","ticks":404640,"time":167.708568,"velocity":0.7874015748031497},{"duration":0.03333333333333144,"durationTicks":80,"midi":57,"name":"A3","ticks":404700,"time":167.73356800000002,"velocity":0.7874015748031497},{"duration":0.05833333333333712,"durationTicks":140,"midi":33,"name":"A1","ticks":404880,"time":167.808568,"velocity":0.7874015748031497},{"duration":0.03333333333333144,"durationTicks":80,"midi":45,"name":"A2","ticks":404940,"time":167.833568,"velocity":0.7874015748031497},{"duration":0.05833333333333712,"durationTicks":140,"midi":23,"name":"B0","ticks":405120,"time":167.908568,"velocity":0.7874015748031497},{"duration":0.03333333333333144,"durationTicks":80,"midi":35,"name":"B1","ticks":405180,"time":167.933568,"velocity":0.7874015748031497},{"duration":0.08333333333331439,"durationTicks":200,"midi":47,"name":"B2","ticks":405360,"time":168.00856800000003,"velocity":0.7874015748031497},{"duration":0.05833333333333712,"durationTicks":140,"midi":59,"name":"B3","ticks":405420,"time":168.033568,"velocity":0.7874015748031497},{"duration":0.15833333333333144,"durationTicks":380,"midi":23,"name":"B0","ticks":405600,"time":168.10856800000002,"velocity":0.7874015748031497},{"duration":0.13333333333332575,"durationTicks":320,"midi":35,"name":"B1","ticks":405660,"time":168.13356800000003,"velocity":0.7874015748031497},{"duration":0.15833333333333144,"durationTicks":380,"midi":47,"name":"B2","ticks":406080,"time":168.308568,"velocity":0.7874015748031497},{"duration":0.13333333333332575,"durationTicks":320,"midi":59,"name":"B3","ticks":406140,"time":168.333568,"velocity":0.7874015748031497},{"duration":0.15833333333330302,"durationTicks":380,"midi":35,"name":"B1","ticks":406560,"time":168.50856800000003,"velocity":0.7874015748031497},{"duration":0.13333333333332575,"durationTicks":320,"midi":47,"name":"B2","ticks":406620,"time":168.533568,"velocity":0.7874015748031497},{"duration":0.15833333333333144,"durationTicks":380,"midi":29,"name":"F1","ticks":407040,"time":168.708568,"velocity":0.7874015748031497},{"duration":0.13333333333332575,"durationTicks":320,"midi":41,"name":"F2","ticks":407100,"time":168.73356800000002,"velocity":0.7874015748031497},{"duration":0.15833333333333144,"durationTicks":380,"midi":41,"name":"F2","ticks":407520,"time":168.908568,"velocity":0.7874015748031497},{"duration":0.13333333333332575,"durationTicks":320,"midi":53,"name":"F3","ticks":407580,"time":168.933568,"velocity":0.7874015748031497},{"duration":0.15833333333333144,"durationTicks":380,"midi":29,"name":"F1","ticks":408000,"time":169.10856800000002,"velocity":0.7874015748031497},{"duration":0.13333333333332575,"durationTicks":320,"midi":41,"name":"F2","ticks":408060,"time":169.13356800000003,"velocity":0.7874015748031497},{"duration":0.05833333333333712,"durationTicks":140,"midi":41,"name":"F2","ticks":408480,"time":169.308568,"velocity":0.7874015748031497},{"duration":0.03333333333333144,"durationTicks":80,"midi":53,"name":"F3","ticks":408540,"time":169.333568,"velocity":0.7874015748031497},{"duration":0.05833333333333712,"durationTicks":140,"midi":29,"name":"F1","ticks":408720,"time":169.408568,"velocity":0.7874015748031497},{"duration":0.03333333333333144,"durationTicks":80,"midi":41,"name":"F2","ticks":408780,"time":169.433568,"velocity":0.7874015748031497},{"duration":0.0583333333333087,"durationTicks":140,"midi":17,"name":"F0","ticks":408960,"time":169.50856800000003,"velocity":0.7874015748031497},{"duration":0.03333333333333144,"durationTicks":80,"midi":29,"name":"F1","ticks":409020,"time":169.533568,"velocity":0.7874015748031497},{"duration":0.08333333333331439,"durationTicks":200,"midi":41,"name":"F2","ticks":409200,"time":169.60856800000002,"velocity":0.7874015748031497},{"duration":0.0583333333333087,"durationTicks":140,"midi":53,"name":"F3","ticks":409260,"time":169.63356800000003,"velocity":0.7874015748031497},{"duration":0.19999999999998863,"durationTicks":480,"midi":29,"name":"F1","ticks":409440,"time":169.708568,"velocity":0.7874015748031497},{"duration":0.14999999999997726,"durationTicks":360,"midi":41,"name":"F2","ticks":409560,"time":169.75856800000003,"velocity":0.7874015748031497},{"duration":0.15833333333333144,"durationTicks":380,"midi":17,"name":"F0","ticks":409920,"time":169.908568,"velocity":0.7874015748031497},{"duration":0.13333333333332575,"durationTicks":320,"midi":41,"name":"F2","ticks":409980,"time":169.933568,"velocity":0.7874015748031497},{"duration":0.15833333333333144,"durationTicks":380,"midi":29,"name":"F1","ticks":410400,"time":170.10856800000002,"velocity":0.7874015748031497},{"duration":0.13333333333332575,"durationTicks":320,"midi":53,"name":"F3","ticks":410460,"time":170.13356800000003,"velocity":0.7874015748031497},{"duration":0.15833333333333144,"durationTicks":380,"midi":28,"name":"E1","ticks":410880,"time":170.308568,"velocity":0.7874015748031497},{"duration":0.13333333333332575,"durationTicks":320,"midi":40,"name":"E2","ticks":410940,"time":170.333568,"velocity":0.7874015748031497},{"duration":0.15833333333330302,"durationTicks":380,"midi":40,"name":"E2","ticks":411360,"time":170.50856800000003,"velocity":0.7637795275590551},{"duration":0.13333333333332575,"durationTicks":320,"midi":52,"name":"E3","ticks":411420,"time":170.533568,"velocity":0.7637795275590551},{"duration":0.15833333333333144,"durationTicks":380,"midi":28,"name":"E1","ticks":411840,"time":170.708568,"velocity":0.7401574803149606},{"duration":0.13333333333332575,"durationTicks":320,"midi":40,"name":"E2","ticks":411900,"time":170.73356800000002,"velocity":0.7401574803149606},{"duration":0.05833333333333712,"durationTicks":140,"midi":40,"name":"E2","ticks":412320,"time":170.908568,"velocity":0.7165354330708661},{"duration":0.03333333333333144,"durationTicks":80,"midi":52,"name":"E3","ticks":412380,"time":170.933568,"velocity":0.7165354330708661},{"duration":0.0583333333333087,"durationTicks":140,"midi":28,"name":"E1","ticks":412560,"time":171.00856800000003,"velocity":0.7086614173228346},{"duration":0.03333333333333144,"durationTicks":80,"midi":40,"name":"E2","ticks":412620,"time":171.033568,"velocity":0.7007874015748031},{"duration":0.0583333333333087,"durationTicks":140,"midi":16,"name":"E0","ticks":412800,"time":171.10856800000002,"velocity":0.6929133858267716},{"duration":0.03333333333330302,"durationTicks":80,"midi":28,"name":"E1","ticks":412860,"time":171.13356800000003,"velocity":0.6929133858267716},{"duration":0.08333333333331439,"durationTicks":200,"midi":40,"name":"E2","ticks":413040,"time":171.208568,"velocity":0.6771653543307087},{"duration":0.0583333333333087,"durationTicks":140,"midi":52,"name":"E3","ticks":413100,"time":171.23356800000002,"velocity":0.6771653543307087},{"duration":0.15833333333333144,"durationTicks":380,"midi":16,"name":"E0","ticks":413280,"time":171.308568,"velocity":0.6692913385826772},{"duration":0.13333333333332575,"durationTicks":320,"midi":28,"name":"E1","ticks":413340,"time":171.333568,"velocity":0.6614173228346457},{"duration":0.15833333333330302,"durationTicks":380,"midi":40,"name":"E2","ticks":413760,"time":171.50856800000003,"velocity":0.6456692913385826},{"duration":0.13333333333332575,"durationTicks":320,"midi":52,"name":"E3","ticks":413820,"time":171.533568,"velocity":0.6377952755905512},{"duration":0.15833333333333144,"durationTicks":380,"midi":28,"name":"E1","ticks":414240,"time":171.708568,"velocity":0.6220472440944882},{"duration":0.13333333333332575,"durationTicks":320,"midi":40,"name":"E2","ticks":414300,"time":171.73356800000002,"velocity":0.6141732283464567},{"duration":0.15833333333333144,"durationTicks":380,"midi":28,"name":"E1","ticks":414720,"time":171.908568,"velocity":0.5905511811023622},{"duration":0.13333333333332575,"durationTicks":320,"midi":40,"name":"E2","ticks":414780,"time":171.933568,"velocity":0.5905511811023622},{"duration":0.15833333333333144,"durationTicks":380,"midi":40,"name":"E2","ticks":415200,"time":172.10856800000002,"velocity":0.5669291338582677},{"duration":0.13333333333332575,"durationTicks":320,"midi":52,"name":"E3","ticks":415260,"time":172.13356800000003,"velocity":0.5669291338582677},{"duration":0.15833333333333144,"durationTicks":380,"midi":16,"name":"E0","ticks":415680,"time":172.308568,"velocity":0.5433070866141733},{"duration":0.13333333333332575,"durationTicks":320,"midi":28,"name":"E1","ticks":415740,"time":172.333568,"velocity":0.5433070866141733},{"duration":0.0583333333333087,"durationTicks":140,"midi":40,"name":"E2","ticks":416160,"time":172.50856800000003,"velocity":0.5196850393700787},{"duration":0.03333333333333144,"durationTicks":80,"midi":52,"name":"E3","ticks":416220,"time":172.533568,"velocity":0.5196850393700787},{"duration":0.0583333333333087,"durationTicks":140,"midi":23,"name":"B0","ticks":416400,"time":172.60856800000002,"velocity":0.5118110236220472},{"duration":0.03333333333330302,"durationTicks":80,"midi":35,"name":"B1","ticks":416460,"time":172.63356800000003,"velocity":0.5039370078740157},{"duration":0.15833333333333144,"durationTicks":380,"midi":31,"name":"G1","ticks":416640,"time":172.708568,"velocity":0.49606299212598426},{"duration":0.13333333333332575,"durationTicks":320,"midi":43,"name":"G2","ticks":416700,"time":172.73356800000002,"velocity":0.49606299212598426},{"duration":0.08333333333334281,"durationTicks":200,"midi":43,"name":"G2","ticks":417120,"time":172.908568,"velocity":0.47244094488188976},{"duration":0.05833333333333712,"durationTicks":140,"midi":55,"name":"G3","ticks":417180,"time":172.933568,"velocity":0.4645669291338583},{"duration":0.15833333333333144,"durationTicks":380,"midi":33,"name":"A1","ticks":417600,"time":173.10856800000002,"velocity":0.44881889763779526},{"duration":0.13333333333332575,"durationTicks":320,"midi":45,"name":"A2","ticks":417660,"time":173.13356800000003,"velocity":0.4409448818897638},{"duration":0.13333333333332575,"durationTicks":320,"midi":45,"name":"A2","ticks":418080,"time":173.308568,"velocity":0.4251968503937008},{"duration":0.10833333333332007,"durationTicks":260,"midi":57,"name":"A3","ticks":418140,"time":173.333568,"velocity":0.41732283464566927},{"duration":0.15833333333330302,"durationTicks":380,"midi":28,"name":"E1","ticks":418560,"time":173.50856800000003,"velocity":0.3937007874015748},{"duration":0.13333333333332575,"durationTicks":320,"midi":40,"name":"E2","ticks":418620,"time":173.533568,"velocity":0.3937007874015748},{"duration":0.15833333333333144,"durationTicks":380,"midi":40,"name":"E2","ticks":419040,"time":173.708568,"velocity":0.3700787401574803},{"duration":0.13333333333332575,"durationTicks":320,"midi":52,"name":"E3","ticks":419100,"time":173.73356800000002,"velocity":0.3700787401574803},{"duration":0.15833333333333144,"durationTicks":380,"midi":28,"name":"E1","ticks":419520,"time":173.908568,"velocity":0.3464566929133858},{"duration":0.13333333333332575,"durationTicks":320,"midi":40,"name":"E2","ticks":419580,"time":173.933568,"velocity":0.3464566929133858},{"duration":0.0583333333333087,"durationTicks":140,"midi":40,"name":"E2","ticks":420000,"time":174.10856800000002,"velocity":0.3228346456692913},{"duration":0.03333333333330302,"durationTicks":80,"midi":52,"name":"E3","ticks":420060,"time":174.13356800000003,"velocity":0.3228346456692913},{"duration":0.05833333333333712,"durationTicks":140,"midi":28,"name":"E1","ticks":420240,"time":174.208568,"velocity":0.31496062992125984},{"duration":0.03333333333333144,"durationTicks":80,"midi":40,"name":"E2","ticks":420300,"time":174.23356800000002,"velocity":0.30708661417322836},{"duration":0.05833333333333712,"durationTicks":140,"midi":16,"name":"E0","ticks":420480,"time":174.308568,"velocity":0.2992125984251969},{"duration":0.03333333333333144,"durationTicks":80,"midi":28,"name":"E1","ticks":420540,"time":174.333568,"velocity":0.2992125984251969},{"duration":0.08333333333334281,"durationTicks":200,"midi":40,"name":"E2","ticks":420720,"time":174.408568,"velocity":0.28346456692913385},{"duration":0.05833333333333712,"durationTicks":140,"midi":52,"name":"E3","ticks":420780,"time":174.433568,"velocity":0.28346456692913385},{"duration":0.15833333333330302,"durationTicks":380,"midi":16,"name":"E0","ticks":420960,"time":174.50856800000003,"velocity":0.2755905511811024},{"duration":0.13333333333332575,"durationTicks":320,"midi":28,"name":"E1","ticks":421020,"time":174.533568,"velocity":0.2677165354330709},{"duration":0.15833333333333144,"durationTicks":380,"midi":40,"name":"E2","ticks":421440,"time":174.708568,"velocity":0.25196850393700787},{"duration":0.13333333333332575,"durationTicks":320,"midi":52,"name":"E3","ticks":421500,"time":174.73356800000002,"velocity":0.2440944881889764},{"duration":0.15833333333333144,"durationTicks":380,"midi":28,"name":"E1","ticks":421920,"time":174.908568,"velocity":0.2283464566929134},{"duration":0.13333333333332575,"durationTicks":320,"midi":40,"name":"E2","ticks":421980,"time":174.933568,"velocity":0.2204724409448819},{"duration":0.15833333333333144,"durationTicks":380,"midi":33,"name":"A1","ticks":422400,"time":175.10856800000002,"velocity":0.1968503937007874},{"duration":0.13333333333332575,"durationTicks":320,"midi":45,"name":"A2","ticks":422460,"time":175.13356800000003,"velocity":0.1968503937007874},{"duration":0.15833333333333144,"durationTicks":380,"midi":45,"name":"A2","ticks":422880,"time":175.308568,"velocity":0.1732283464566929},{"duration":0.13333333333332575,"durationTicks":320,"midi":57,"name":"A3","ticks":422940,"time":175.333568,"velocity":0.1732283464566929},{"duration":0.15833333333330302,"durationTicks":380,"midi":21,"name":"A0","ticks":423360,"time":175.50856800000003,"velocity":0.14960629921259844},{"duration":0.13333333333332575,"durationTicks":320,"midi":33,"name":"A1","ticks":423420,"time":175.533568,"velocity":0.14960629921259844},{"duration":0.05833333333333712,"durationTicks":140,"midi":45,"name":"A2","ticks":423840,"time":175.708568,"velocity":0.12598425196850394},{"duration":0.03333333333333144,"durationTicks":80,"midi":57,"name":"A3","ticks":423900,"time":175.73356800000002,"velocity":0.12598425196850394},{"duration":0.05833333333333712,"durationTicks":140,"midi":21,"name":"A0","ticks":424080,"time":175.808568,"velocity":0.11811023622047244},{"duration":0.03333333333333144,"durationTicks":80,"midi":33,"name":"A1","ticks":424140,"time":175.833568,"velocity":0.11023622047244094},{"duration":0.15833333333333144,"durationTicks":380,"midi":35,"name":"B1","ticks":424320,"time":175.908568,"velocity":0.10236220472440945},{"duration":0.13333333333332575,"durationTicks":320,"midi":47,"name":"B2","ticks":424380,"time":175.933568,"velocity":0.10236220472440945},{"duration":0.08333333333331439,"durationTicks":200,"midi":47,"name":"B2","ticks":424800,"time":176.10856800000002,"velocity":0.07874015748031496},{"duration":0.0583333333333087,"durationTicks":140,"midi":59,"name":"B3","ticks":424860,"time":176.13356800000003,"velocity":0.07086614173228346},{"duration":0.15833333333333144,"durationTicks":380,"midi":35,"name":"B1","ticks":425280,"time":176.308568,"velocity":0.05511811023622047},{"duration":0.13333333333332575,"durationTicks":320,"midi":47,"name":"B2","ticks":425340,"time":176.333568,"velocity":0.047244094488188976},{"duration":0.1833333333333087,"durationTicks":440,"midi":47,"name":"B2","ticks":425760,"time":176.50856800000003,"velocity":0.031496062992125984},{"duration":0.15833333333333144,"durationTicks":380,"midi":59,"name":"B3","ticks":425820,"time":176.533568,"velocity":0.023622047244094488}]},{"channel":2,"controlChanges":{"7":[{"number":7,"ticks":2880,"time":0.36,"value":0.7874015748031497}]},"pitchBends":[],"instrument":{"family":"synth pad","number":90,"name":"pad 3 (polysynth)"},"name":"","notes":[{"duration":0.142857,"durationTicks":320,"midi":69,"name":"A4","ticks":3840,"time":0.48,"velocity":0.7874015748031497},{"duration":0.142857,"durationTicks":320,"midi":74,"name":"D5","ticks":4160,"time":0.622857,"velocity":0.7874015748031497},{"duration":0.0714285,"durationTicks":160,"midi":76,"name":"E5","ticks":4480,"time":0.765714,"velocity":0.7874015748031497},{"duration":0.0714285,"durationTicks":160,"midi":79,"name":"G5","ticks":4640,"time":0.8371425,"velocity":0.7874015748031497},{"duration":0.07142850000000012,"durationTicks":160,"midi":86,"name":"D6","ticks":4800,"time":0.908571,"velocity":0.7874015748031497},{"duration":0.0714284999999999,"durationTicks":160,"midi":91,"name":"G6","ticks":4960,"time":0.9799995000000001,"velocity":0.7874015748031497},{"duration":0.07142850000000012,"durationTicks":160,"midi":93,"name":"A6","ticks":5120,"time":1.051428,"velocity":0.7874015748031497},{"duration":0.0714284999999999,"durationTicks":160,"midi":98,"name":"D7","ticks":5280,"time":1.1228565000000001,"velocity":0.7874015748031497},{"duration":0.0714284999999999,"durationTicks":160,"midi":100,"name":"E7","ticks":5440,"time":1.194285,"velocity":0.7874015748031497},{"duration":0.07142850000000012,"durationTicks":160,"midi":105,"name":"A7","ticks":5600,"time":1.2657135,"velocity":0.7874015748031497},{"duration":0.0714284999999999,"durationTicks":160,"midi":69,"name":"A4","ticks":5760,"time":1.337142,"velocity":0.7874015748031497},{"duration":0.07142850000000034,"durationTicks":160,"midi":74,"name":"D5","ticks":5920,"time":1.4085705,"velocity":0.7874015748031497},{"duration":0.07142849999999967,"durationTicks":160,"midi":76,"name":"E5","ticks":6080,"time":1.4799990000000003,"velocity":0.7874015748031497},{"duration":0.07142850000000012,"durationTicks":160,"midi":79,"name":"G5","ticks":6240,"time":1.5514275,"velocity":0.7874015748031497},{"duration":0.07142850000000012,"durationTicks":160,"midi":81,"name":"A5","ticks":6400,"time":1.622856,"velocity":0.7874015748031497},{"duration":0.0714284999999999,"durationTicks":160,"midi":86,"name":"D6","ticks":6560,"time":1.6942845000000002,"velocity":0.7874015748031497},{"duration":0.0714284999999999,"durationTicks":160,"midi":88,"name":"E6","ticks":6720,"time":1.765713,"velocity":0.7874015748031497},{"duration":0.07142850000000012,"durationTicks":160,"midi":91,"name":"G6","ticks":6880,"time":1.8371415,"velocity":0.7874015748031497},{"duration":0.07142850000000012,"durationTicks":160,"midi":93,"name":"A6","ticks":7040,"time":1.90857,"velocity":0.7874015748031497},{"duration":0.07142850000000012,"durationTicks":160,"midi":98,"name":"D7","ticks":7200,"time":1.9799985000000002,"velocity":0.7874015748031497},{"duration":0.07142849999999967,"durationTicks":160,"midi":100,"name":"E7","ticks":7360,"time":2.0514270000000003,"velocity":0.7874015748031497},{"duration":0.07142850000000012,"durationTicks":160,"midi":105,"name":"A7","ticks":7520,"time":2.1228555,"velocity":0.7874015748031497},{"duration":0.07142850000000012,"durationTicks":160,"midi":64,"name":"E4","ticks":7680,"time":2.194284,"velocity":0.7874015748031497},{"duration":0.07142849999999967,"durationTicks":160,"midi":69,"name":"A4","ticks":7840,"time":2.2657125000000002,"velocity":0.7874015748031497},{"duration":0.07142850000000012,"durationTicks":160,"midi":71,"name":"B4","ticks":8000,"time":2.337141,"velocity":0.7874015748031497},{"duration":0.07142850000000012,"durationTicks":160,"midi":74,"name":"D5","ticks":8160,"time":2.4085695,"velocity":0.7874015748031497},{"duration":0.07142849999999967,"durationTicks":160,"midi":76,"name":"E5","ticks":8320,"time":2.479998,"velocity":0.7874015748031497},{"duration":0.07142850000000012,"durationTicks":160,"midi":81,"name":"A5","ticks":8480,"time":2.5514265,"velocity":0.7874015748031497},{"duration":0.07142850000000056,"durationTicks":160,"midi":83,"name":"B5","ticks":8640,"time":2.622855,"velocity":0.7874015748031497},{"duration":0.07142849999999967,"durationTicks":160,"midi":86,"name":"D6","ticks":8800,"time":2.6942835000000005,"velocity":0.7874015748031497},{"duration":0.07142850000000012,"durationTicks":160,"midi":88,"name":"E6","ticks":8960,"time":2.765712,"velocity":0.7874015748031497},{"duration":0.07142850000000012,"durationTicks":160,"midi":93,"name":"A6","ticks":9120,"time":2.8371405000000003,"velocity":0.7874015748031497},{"duration":0.07142849999999967,"durationTicks":160,"midi":95,"name":"B6","ticks":9280,"time":2.9085690000000004,"velocity":0.7874015748031497},{"duration":0.07142850000000012,"durationTicks":160,"midi":100,"name":"E7","ticks":9440,"time":2.9799975,"velocity":0.7874015748031497},{"duration":0.07142850000000012,"durationTicks":160,"midi":105,"name":"A7","ticks":9600,"time":3.051426,"velocity":0.7874015748031497},{"duration":0.07142849999999967,"durationTicks":160,"midi":100,"name":"E7","ticks":9760,"time":3.1228545000000003,"velocity":0.7874015748031497},{"duration":0.07142850000000012,"durationTicks":160,"midi":95,"name":"B6","ticks":9920,"time":3.194283,"velocity":0.7874015748031497},{"duration":0.07142850000000012,"durationTicks":160,"midi":93,"name":"A6","ticks":10080,"time":3.2657115,"velocity":0.7874015748031497},{"duration":0.07142849999999967,"durationTicks":160,"midi":88,"name":"E6","ticks":10240,"time":3.33714,"velocity":0.7874015748031497},{"duration":0.07142850000000056,"durationTicks":160,"midi":86,"name":"D6","ticks":10400,"time":3.4085685,"velocity":0.7874015748031497},{"duration":0.07142850000000012,"durationTicks":160,"midi":83,"name":"B5","ticks":10560,"time":3.4799970000000005,"velocity":0.7874015748031497},{"duration":0.07142849999999967,"durationTicks":160,"midi":81,"name":"A5","ticks":10720,"time":3.5514255000000006,"velocity":0.7874015748031497},{"duration":0.07142850000000012,"durationTicks":160,"midi":76,"name":"E5","ticks":10880,"time":3.6228540000000002,"velocity":0.7874015748031497},{"duration":0.07142850000000012,"durationTicks":160,"midi":74,"name":"D5","ticks":11040,"time":3.6942825000000004,"velocity":0.7874015748031497},{"duration":0.07142849999999967,"durationTicks":160,"midi":69,"name":"A4","ticks":11200,"time":3.7657110000000005,"velocity":0.7874015748031497},{"duration":0.07142850000000012,"durationTicks":160,"midi":64,"name":"E4","ticks":11360,"time":3.8371395,"velocity":0.7874015748031497},{"duration":0.04999999999999982,"durationTicks":120,"midi":88,"name":"E6","ticks":13440,"time":4.7085680000000005,"velocity":0.5039370078740157},{"duration":0.04999999999999982,"durationTicks":120,"midi":88,"name":"E6","ticks":13680,"time":4.808568,"velocity":0.4645669291338583},{"duration":0.04999999999999982,"durationTicks":120,"midi":76,"name":"E5","ticks":13920,"time":4.908568000000001,"velocity":0.4251968503937008},{"duration":0.04999999999999982,"durationTicks":120,"midi":76,"name":"E5","ticks":14160,"time":5.008568,"velocity":0.3779527559055118},{"duration":0.05000000000000071,"durationTicks":120,"midi":88,"name":"E6","ticks":14400,"time":5.108568,"velocity":0.33070866141732286},{"duration":0.04999999999999982,"durationTicks":120,"midi":88,"name":"E6","ticks":14640,"time":5.2085680000000005,"velocity":0.2755905511811024},{"duration":0.04999999999999982,"durationTicks":120,"midi":76,"name":"E5","ticks":14880,"time":5.308568,"velocity":0.2283464566929134},{"duration":0.04999999999999982,"durationTicks":120,"midi":76,"name":"E5","ticks":15120,"time":5.408568000000001,"velocity":0.18110236220472442},{"duration":0.049999999999998934,"durationTicks":120,"midi":88,"name":"E6","ticks":17280,"time":6.308568000000001,"velocity":0.25196850393700787},{"duration":0.04999999999999982,"durationTicks":120,"midi":88,"name":"E6","ticks":17520,"time":6.408568000000001,"velocity":0.2283464566929134},{"duration":0.05000000000000071,"durationTicks":120,"midi":76,"name":"E5","ticks":17760,"time":6.508568,"velocity":0.1889763779527559},{"duration":0.05000000000000071,"durationTicks":120,"midi":76,"name":"E5","ticks":18000,"time":6.608568,"velocity":0.14960629921259844},{"duration":0.04999999999999982,"durationTicks":120,"midi":88,"name":"E6","ticks":18240,"time":6.7085680000000005,"velocity":0.11023622047244094},{"duration":0.049999999999998934,"durationTicks":120,"midi":88,"name":"E6","ticks":18480,"time":6.808568000000001,"velocity":0.08661417322834646},{"duration":0.04999999999999982,"durationTicks":120,"midi":76,"name":"E5","ticks":18720,"time":6.908568000000001,"velocity":0.06299212598425197},{"duration":0.05000000000000071,"durationTicks":120,"midi":76,"name":"E5","ticks":18960,"time":7.008568,"velocity":0.06299212598425197},{"duration":0.05000000000000071,"durationTicks":120,"midi":88,"name":"E6","ticks":20160,"time":7.508568,"velocity":0.5039370078740157},{"duration":0.05000000000000071,"durationTicks":120,"midi":88,"name":"E6","ticks":20400,"time":7.608568,"velocity":0.47244094488188976},{"duration":0.04999999999999982,"durationTicks":120,"midi":76,"name":"E5","ticks":20640,"time":7.7085680000000005,"velocity":0.4251968503937008},{"duration":0.049999999999998934,"durationTicks":120,"midi":76,"name":"E5","ticks":20880,"time":7.808568000000001,"velocity":0.4015748031496063},{"duration":0.049999999999998934,"durationTicks":120,"midi":88,"name":"E6","ticks":21120,"time":7.908568000000001,"velocity":0.3464566929133858},{"duration":0.05000000000000071,"durationTicks":120,"midi":88,"name":"E6","ticks":21360,"time":8.008568,"velocity":0.3228346456692913},{"duration":0.05000000000000071,"durationTicks":120,"midi":76,"name":"E5","ticks":21600,"time":8.108568,"velocity":0.29133858267716534},{"duration":0.05000000000000071,"durationTicks":120,"midi":76,"name":"E5","ticks":21840,"time":8.208568,"velocity":0.2677165354330709},{"duration":0.049999999999998934,"durationTicks":120,"midi":88,"name":"E6","ticks":22080,"time":8.308568000000001,"velocity":0.23622047244094488},{"duration":0.049999999999998934,"durationTicks":120,"midi":88,"name":"E6","ticks":22320,"time":8.408568,"velocity":0.2047244094488189},{"duration":0.05000000000000071,"durationTicks":120,"midi":76,"name":"E5","ticks":22560,"time":8.508568,"velocity":0.1732283464566929},{"duration":0.05000000000000071,"durationTicks":120,"midi":76,"name":"E5","ticks":22800,"time":8.608568,"velocity":0.14960629921259844},{"duration":0.05000000000000071,"durationTicks":120,"midi":88,"name":"E6","ticks":28800,"time":11.108568,"velocity":0.5039370078740157},{"duration":0.049999999999998934,"durationTicks":120,"midi":88,"name":"E6","ticks":29040,"time":11.208568000000001,"velocity":0.4645669291338583},{"duration":0.049999999999998934,"durationTicks":120,"midi":76,"name":"E5","ticks":29280,"time":11.308568000000001,"velocity":0.4251968503937008},{"duration":0.05000000000000071,"durationTicks":120,"midi":76,"name":"E5","ticks":29520,"time":11.408568,"velocity":0.3779527559055118},{"duration":0.05000000000000071,"durationTicks":120,"midi":88,"name":"E6","ticks":29760,"time":11.508568,"velocity":0.33070866141732286},{"duration":0.05000000000000071,"durationTicks":120,"midi":88,"name":"E6","ticks":30000,"time":11.608568,"velocity":0.2755905511811024},{"duration":0.049999999999998934,"durationTicks":120,"midi":76,"name":"E5","ticks":30240,"time":11.708568000000001,"velocity":0.2283464566929134},{"duration":0.049999999999998934,"durationTicks":120,"midi":76,"name":"E5","ticks":30480,"time":11.808568000000001,"velocity":0.18110236220472442},{"duration":0.049999999999998934,"durationTicks":120,"midi":88,"name":"E6","ticks":32640,"time":12.708568000000001,"velocity":0.25196850393700787},{"duration":0.05000000000000071,"durationTicks":120,"midi":88,"name":"E6","ticks":32880,"time":12.808568000000001,"velocity":0.2283464566929134},{"duration":0.05000000000000071,"durationTicks":120,"midi":76,"name":"E5","ticks":33120,"time":12.908568,"velocity":0.1889763779527559},{"duration":0.05000000000000071,"durationTicks":120,"midi":76,"name":"E5","ticks":33360,"time":13.008568,"velocity":0.14960629921259844},{"duration":0.049999999999998934,"durationTicks":120,"midi":88,"name":"E6","ticks":33600,"time":13.108568000000002,"velocity":0.11023622047244094},{"duration":0.049999999999998934,"durationTicks":120,"midi":88,"name":"E6","ticks":33840,"time":13.208568000000001,"velocity":0.08661417322834646},{"duration":0.05000000000000071,"durationTicks":120,"midi":76,"name":"E5","ticks":34080,"time":13.308568000000001,"velocity":0.06299212598425197},{"duration":0.05000000000000071,"durationTicks":120,"midi":76,"name":"E5","ticks":34320,"time":13.408568,"velocity":0.06299212598425197},{"duration":0.05000000000000071,"durationTicks":120,"midi":88,"name":"E6","ticks":35520,"time":13.908568,"velocity":0.5039370078740157},{"duration":0.049999999999998934,"durationTicks":120,"midi":88,"name":"E6","ticks":35760,"time":14.008568000000002,"velocity":0.47244094488188976},{"duration":0.049999999999998934,"durationTicks":120,"midi":76,"name":"E5","ticks":36000,"time":14.108568000000002,"velocity":0.4251968503937008},{"duration":0.05000000000000071,"durationTicks":120,"midi":76,"name":"E5","ticks":36240,"time":14.208568000000001,"velocity":0.4015748031496063},{"duration":0.05000000000000071,"durationTicks":120,"midi":88,"name":"E6","ticks":36480,"time":14.308568000000001,"velocity":0.3464566929133858},{"duration":0.05000000000000071,"durationTicks":120,"midi":88,"name":"E6","ticks":36720,"time":14.408568,"velocity":0.3228346456692913},{"duration":0.049999999999998934,"durationTicks":120,"midi":76,"name":"E5","ticks":36960,"time":14.508568000000002,"velocity":0.29133858267716534},{"duration":0.049999999999998934,"durationTicks":120,"midi":76,"name":"E5","ticks":37200,"time":14.608568000000002,"velocity":0.2677165354330709},{"duration":0.05000000000000071,"durationTicks":120,"midi":88,"name":"E6","ticks":37440,"time":14.708568000000001,"velocity":0.23622047244094488},{"duration":0.05000000000000071,"durationTicks":120,"midi":88,"name":"E6","ticks":37680,"time":14.808568000000001,"velocity":0.2047244094488189},{"duration":0.05000000000000071,"durationTicks":120,"midi":76,"name":"E5","ticks":37920,"time":14.908568,"velocity":0.1732283464566929},{"duration":0.049999999999998934,"durationTicks":120,"midi":76,"name":"E5","ticks":38160,"time":15.008568000000002,"velocity":0.14960629921259844},{"duration":0.05000000000000071,"durationTicks":120,"midi":88,"name":"E6","ticks":40320,"time":15.908568,"velocity":0.25196850393700787},{"duration":0.05000000000000071,"durationTicks":120,"midi":88,"name":"E6","ticks":40560,"time":16.008568,"velocity":0.2283464566929134},{"duration":0.04999999999999716,"durationTicks":120,"midi":76,"name":"E5","ticks":40800,"time":16.108568,"velocity":0.1889763779527559},{"duration":0.05000000000000071,"durationTicks":120,"midi":76,"name":"E5","ticks":41040,"time":16.208568,"velocity":0.14960629921259844},{"duration":0.05000000000000071,"durationTicks":120,"midi":88,"name":"E6","ticks":41280,"time":16.308568,"velocity":0.11023622047244094},{"duration":0.05000000000000071,"durationTicks":120,"midi":88,"name":"E6","ticks":41520,"time":16.408568,"velocity":0.08661417322834646},{"duration":0.05000000000000071,"durationTicks":120,"midi":76,"name":"E5","ticks":41760,"time":16.508568,"velocity":0.06299212598425197},{"duration":0.04999999999999716,"durationTicks":120,"midi":76,"name":"E5","ticks":42000,"time":16.608568,"velocity":0.06299212598425197},{"duration":0.05000000000000071,"durationTicks":120,"midi":88,"name":"E6","ticks":44160,"time":17.508568,"velocity":0.5039370078740157},{"duration":0.04999999999999716,"durationTicks":120,"midi":88,"name":"E6","ticks":44400,"time":17.608568,"velocity":0.4645669291338583},{"duration":0.05000000000000071,"durationTicks":120,"midi":76,"name":"E5","ticks":44640,"time":17.708568,"velocity":0.4251968503937008},{"duration":0.05000000000000071,"durationTicks":120,"midi":76,"name":"E5","ticks":44880,"time":17.808568,"velocity":0.3779527559055118},{"duration":0.05000000000000071,"durationTicks":120,"midi":88,"name":"E6","ticks":45120,"time":17.908568,"velocity":0.33070866141732286},{"duration":0.05000000000000071,"durationTicks":120,"midi":88,"name":"E6","ticks":45360,"time":18.008568,"velocity":0.2755905511811024},{"duration":0.04999999999999716,"durationTicks":120,"midi":76,"name":"E5","ticks":45600,"time":18.108568,"velocity":0.2283464566929134},{"duration":0.05000000000000071,"durationTicks":120,"midi":76,"name":"E5","ticks":45840,"time":18.208568,"velocity":0.18110236220472442},{"duration":0.04999999999999716,"durationTicks":120,"midi":88,"name":"E6","ticks":48000,"time":19.108568,"velocity":0.25196850393700787},{"duration":0.05000000000000071,"durationTicks":120,"midi":88,"name":"E6","ticks":48240,"time":19.208568,"velocity":0.2283464566929134},{"duration":0.05000000000000071,"durationTicks":120,"midi":76,"name":"E5","ticks":48480,"time":19.308568,"velocity":0.1889763779527559},{"duration":0.05000000000000071,"durationTicks":120,"midi":76,"name":"E5","ticks":48720,"time":19.408568,"velocity":0.14960629921259844},{"duration":0.05000000000000071,"durationTicks":120,"midi":88,"name":"E6","ticks":48960,"time":19.508568,"velocity":0.11023622047244094},{"duration":0.04999999999999716,"durationTicks":120,"midi":88,"name":"E6","ticks":49200,"time":19.608568,"velocity":0.08661417322834646},{"duration":0.05000000000000071,"durationTicks":120,"midi":76,"name":"E5","ticks":49440,"time":19.708568,"velocity":0.06299212598425197},{"duration":0.05000000000000071,"durationTicks":120,"midi":76,"name":"E5","ticks":49680,"time":19.808568,"velocity":0.06299212598425197},{"duration":0.04999999999999716,"durationTicks":120,"midi":88,"name":"E6","ticks":50880,"time":20.308568,"velocity":0.5039370078740157},{"duration":0.05000000000000071,"durationTicks":120,"midi":88,"name":"E6","ticks":51120,"time":20.408568,"velocity":0.47244094488188976},{"duration":0.05000000000000071,"durationTicks":120,"midi":76,"name":"E5","ticks":51360,"time":20.508568,"velocity":0.4251968503937008},{"duration":0.05000000000000071,"durationTicks":120,"midi":76,"name":"E5","ticks":51600,"time":20.608567999999998,"velocity":0.4015748031496063},{"duration":0.05000000000000071,"durationTicks":120,"midi":88,"name":"E6","ticks":51840,"time":20.708568,"velocity":0.3464566929133858},{"duration":0.04999999999999716,"durationTicks":120,"midi":88,"name":"E6","ticks":52080,"time":20.808568,"velocity":0.3228346456692913},{"duration":0.05000000000000071,"durationTicks":120,"midi":76,"name":"E5","ticks":52320,"time":20.908568,"velocity":0.29133858267716534},{"duration":0.05000000000000071,"durationTicks":120,"midi":76,"name":"E5","ticks":52560,"time":21.008568,"velocity":0.2677165354330709},{"duration":0.05000000000000071,"durationTicks":120,"midi":88,"name":"E6","ticks":52800,"time":21.108567999999998,"velocity":0.23622047244094488},{"duration":0.05000000000000071,"durationTicks":120,"midi":88,"name":"E6","ticks":53040,"time":21.208568,"velocity":0.2047244094488189},{"duration":0.04999999999999716,"durationTicks":120,"midi":76,"name":"E5","ticks":53280,"time":21.308568,"velocity":0.1732283464566929},{"duration":0.05000000000000071,"durationTicks":120,"midi":76,"name":"E5","ticks":53520,"time":21.408568,"velocity":0.14960629921259844},{"duration":0.04999999999999716,"durationTicks":120,"midi":88,"name":"E6","ticks":55680,"time":22.308568,"velocity":0.25196850393700787},{"duration":0.05000000000000071,"durationTicks":120,"midi":88,"name":"E6","ticks":55920,"time":22.408568,"velocity":0.2283464566929134},{"duration":0.05000000000000071,"durationTicks":120,"midi":76,"name":"E5","ticks":56160,"time":22.508568,"velocity":0.1889763779527559},{"duration":0.05000000000000071,"durationTicks":120,"midi":76,"name":"E5","ticks":56400,"time":22.608567999999998,"velocity":0.14960629921259844},{"duration":0.05000000000000071,"durationTicks":120,"midi":88,"name":"E6","ticks":56640,"time":22.708568,"velocity":0.11023622047244094},{"duration":0.04999999999999716,"durationTicks":120,"midi":88,"name":"E6","ticks":56880,"time":22.808568,"velocity":0.08661417322834646},{"duration":0.05000000000000071,"durationTicks":120,"midi":76,"name":"E5","ticks":57120,"time":22.908568,"velocity":0.06299212598425197},{"duration":0.05000000000000071,"durationTicks":120,"midi":76,"name":"E5","ticks":57360,"time":23.008568,"velocity":0.06299212598425197},{"duration":0.05000000000000071,"durationTicks":120,"midi":88,"name":"E6","ticks":59520,"time":23.908568,"velocity":0.5039370078740157},{"duration":0.05000000000000071,"durationTicks":120,"midi":88,"name":"E6","ticks":59760,"time":24.008568,"velocity":0.4645669291338583},{"duration":0.04999999999999716,"durationTicks":120,"midi":76,"name":"E5","ticks":60000,"time":24.108568,"velocity":0.4251968503937008},{"duration":0.05000000000000071,"durationTicks":120,"midi":76,"name":"E5","ticks":60240,"time":24.208568,"velocity":0.3779527559055118},{"duration":0.05000000000000071,"durationTicks":120,"midi":88,"name":"E6","ticks":60480,"time":24.308568,"velocity":0.33070866141732286},{"duration":0.05000000000000071,"durationTicks":120,"midi":88,"name":"E6","ticks":60720,"time":24.408568,"velocity":0.2755905511811024},{"duration":0.05000000000000071,"durationTicks":120,"midi":76,"name":"E5","ticks":60960,"time":24.508568,"velocity":0.2283464566929134},{"duration":0.04999999999999716,"durationTicks":120,"midi":76,"name":"E5","ticks":61200,"time":24.608568,"velocity":0.18110236220472442},{"duration":0.05000000000000071,"durationTicks":120,"midi":88,"name":"E6","ticks":63360,"time":25.508568,"velocity":0.25196850393700787},{"duration":0.04999999999999716,"durationTicks":120,"midi":88,"name":"E6","ticks":63600,"time":25.608568,"velocity":0.2283464566929134},{"duration":0.05000000000000071,"durationTicks":120,"midi":76,"name":"E5","ticks":63840,"time":25.708568,"velocity":0.1889763779527559},{"duration":0.05000000000000071,"durationTicks":120,"midi":76,"name":"E5","ticks":64080,"time":25.808568,"velocity":0.14960629921259844},{"duration":0.05000000000000071,"durationTicks":120,"midi":88,"name":"E6","ticks":64320,"time":25.908568,"velocity":0.11023622047244094},{"duration":0.05000000000000071,"durationTicks":120,"midi":88,"name":"E6","ticks":64560,"time":26.008568,"velocity":0.08661417322834646},{"duration":0.04999999999999716,"durationTicks":120,"midi":76,"name":"E5","ticks":64800,"time":26.108568,"velocity":0.06299212598425197},{"duration":0.05000000000000071,"durationTicks":120,"midi":76,"name":"E5","ticks":65040,"time":26.208568,"velocity":0.06299212598425197},{"duration":0.05000000000000071,"durationTicks":120,"midi":88,"name":"E6","ticks":66240,"time":26.708568,"velocity":0.5039370078740157},{"duration":0.05000000000000071,"durationTicks":120,"midi":88,"name":"E6","ticks":66480,"time":26.808568,"velocity":0.47244094488188976},{"duration":0.05000000000000071,"durationTicks":120,"midi":76,"name":"E5","ticks":66720,"time":26.908568,"velocity":0.4251968503937008},{"duration":0.05000000000000071,"durationTicks":120,"midi":76,"name":"E5","ticks":66960,"time":27.008568,"velocity":0.4015748031496063},{"duration":0.04999999999999716,"durationTicks":120,"midi":88,"name":"E6","ticks":67200,"time":27.108568,"velocity":0.3464566929133858},{"duration":0.05000000000000071,"durationTicks":120,"midi":88,"name":"E6","ticks":67440,"time":27.208568,"velocity":0.3228346456692913},{"duration":0.05000000000000071,"durationTicks":120,"midi":76,"name":"E5","ticks":67680,"time":27.308568,"velocity":0.29133858267716534},{"duration":0.05000000000000071,"durationTicks":120,"midi":76,"name":"E5","ticks":67920,"time":27.408568,"velocity":0.2677165354330709},{"duration":0.05000000000000071,"durationTicks":120,"midi":88,"name":"E6","ticks":68160,"time":27.508568,"velocity":0.23622047244094488},{"duration":0.04999999999999716,"durationTicks":120,"midi":88,"name":"E6","ticks":68400,"time":27.608568,"velocity":0.2047244094488189},{"duration":0.05000000000000071,"durationTicks":120,"midi":76,"name":"E5","ticks":68640,"time":27.708568,"velocity":0.1732283464566929},{"duration":0.05000000000000071,"durationTicks":120,"midi":76,"name":"E5","ticks":68880,"time":27.808568,"velocity":0.14960629921259844},{"duration":0.05000000000000071,"durationTicks":120,"midi":88,"name":"E6","ticks":71040,"time":28.708568,"velocity":0.25196850393700787},{"duration":0.05000000000000071,"durationTicks":120,"midi":88,"name":"E6","ticks":71280,"time":28.808568,"velocity":0.2283464566929134},{"duration":0.05000000000000071,"durationTicks":120,"midi":76,"name":"E5","ticks":71520,"time":28.908568,"velocity":0.1889763779527559},{"duration":0.05000000000000071,"durationTicks":120,"midi":76,"name":"E5","ticks":71760,"time":29.008568,"velocity":0.14960629921259844},{"duration":0.04999999999999716,"durationTicks":120,"midi":88,"name":"E6","ticks":72000,"time":29.108568,"velocity":0.11023622047244094},{"duration":0.05000000000000071,"durationTicks":120,"midi":88,"name":"E6","ticks":72240,"time":29.208568,"velocity":0.08661417322834646},{"duration":0.05000000000000071,"durationTicks":120,"midi":76,"name":"E5","ticks":72480,"time":29.308568,"velocity":0.06299212598425197},{"duration":0.05000000000000071,"durationTicks":120,"midi":76,"name":"E5","ticks":72720,"time":29.408568,"velocity":0.06299212598425197},{"duration":0.05000000000000071,"durationTicks":120,"midi":88,"name":"E6","ticks":74880,"time":30.308568,"velocity":0.5039370078740157},{"duration":0.05000000000000071,"durationTicks":120,"midi":88,"name":"E6","ticks":75120,"time":30.408568,"velocity":0.4645669291338583},{"duration":0.05000000000000071,"durationTicks":120,"midi":76,"name":"E5","ticks":75360,"time":30.508568,"velocity":0.4251968503937008},{"duration":0.04999999999999716,"durationTicks":120,"midi":76,"name":"E5","ticks":75600,"time":30.608568,"velocity":0.3779527559055118},{"duration":0.05000000000000071,"durationTicks":120,"midi":88,"name":"E6","ticks":75840,"time":30.708568,"velocity":0.33070866141732286},{"duration":0.05000000000000071,"durationTicks":120,"midi":88,"name":"E6","ticks":76080,"time":30.808568,"velocity":0.2755905511811024},{"duration":0.05000000000000071,"durationTicks":120,"midi":76,"name":"E5","ticks":76320,"time":30.908568,"velocity":0.2283464566929134},{"duration":0.05000000000000071,"durationTicks":120,"midi":76,"name":"E5","ticks":76560,"time":31.008568,"velocity":0.18110236220472442},{"duration":0.05000000000000071,"durationTicks":120,"midi":88,"name":"E6","ticks":78720,"time":31.908568,"velocity":0.25196850393700787},{"duration":0.04999999999999716,"durationTicks":120,"midi":88,"name":"E6","ticks":78960,"time":32.008568000000004,"velocity":0.2283464566929134},{"duration":0.04999999999999716,"durationTicks":120,"midi":76,"name":"E5","ticks":79200,"time":32.108568000000005,"velocity":0.1889763779527559},{"duration":0.05000000000000426,"durationTicks":120,"midi":76,"name":"E5","ticks":79440,"time":32.208568,"velocity":0.14960629921259844},{"duration":0.05000000000000426,"durationTicks":120,"midi":88,"name":"E6","ticks":79680,"time":32.308568,"velocity":0.11023622047244094},{"duration":0.04999999999999716,"durationTicks":120,"midi":88,"name":"E6","ticks":79920,"time":32.408568,"velocity":0.08661417322834646},{"duration":0.04999999999999716,"durationTicks":120,"midi":76,"name":"E5","ticks":80160,"time":32.508568000000004,"velocity":0.06299212598425197},{"duration":0.04999999999999716,"durationTicks":120,"midi":76,"name":"E5","ticks":80400,"time":32.608568000000005,"velocity":0.06299212598425197},{"duration":0.04999999999999716,"durationTicks":120,"midi":88,"name":"E6","ticks":81600,"time":33.108568000000005,"velocity":0.5039370078740157},{"duration":0.05000000000000426,"durationTicks":120,"midi":88,"name":"E6","ticks":81840,"time":33.208568,"velocity":0.47244094488188976},{"duration":0.05000000000000426,"durationTicks":120,"midi":76,"name":"E5","ticks":82080,"time":33.308568,"velocity":0.4251968503937008},{"duration":0.04999999999999716,"durationTicks":120,"midi":76,"name":"E5","ticks":82320,"time":33.408568,"velocity":0.4015748031496063},{"duration":0.04999999999999716,"durationTicks":120,"midi":88,"name":"E6","ticks":82560,"time":33.508568000000004,"velocity":0.3464566929133858},{"duration":0.04999999999999716,"durationTicks":120,"midi":88,"name":"E6","ticks":82800,"time":33.608568000000005,"velocity":0.3228346456692913},{"duration":0.05000000000000426,"durationTicks":120,"midi":76,"name":"E5","ticks":83040,"time":33.708568,"velocity":0.29133858267716534},{"duration":0.05000000000000426,"durationTicks":120,"midi":76,"name":"E5","ticks":83280,"time":33.808568,"velocity":0.2677165354330709},{"duration":0.04999999999999716,"durationTicks":120,"midi":88,"name":"E6","ticks":83520,"time":33.908568,"velocity":0.23622047244094488},{"duration":0.04999999999999716,"durationTicks":120,"midi":88,"name":"E6","ticks":83760,"time":34.008568000000004,"velocity":0.2047244094488189},{"duration":0.04999999999999716,"durationTicks":120,"midi":76,"name":"E5","ticks":84000,"time":34.108568000000005,"velocity":0.1732283464566929},{"duration":0.05000000000000426,"durationTicks":120,"midi":76,"name":"E5","ticks":84240,"time":34.208568,"velocity":0.14960629921259844},{"duration":0.04999999999999716,"durationTicks":120,"midi":88,"name":"E6","ticks":86400,"time":35.108568000000005,"velocity":0.25196850393700787},{"duration":0.05000000000000426,"durationTicks":120,"midi":88,"name":"E6","ticks":86640,"time":35.208568,"velocity":0.2283464566929134},{"duration":0.05000000000000426,"durationTicks":120,"midi":76,"name":"E5","ticks":86880,"time":35.308568,"velocity":0.1889763779527559},{"duration":0.04999999999999716,"durationTicks":120,"midi":76,"name":"E5","ticks":87120,"time":35.408568,"velocity":0.14960629921259844},{"duration":0.04999999999999716,"durationTicks":120,"midi":88,"name":"E6","ticks":87360,"time":35.508568000000004,"velocity":0.11023622047244094},{"duration":0.04999999999999716,"durationTicks":120,"midi":88,"name":"E6","ticks":87600,"time":35.608568000000005,"velocity":0.08661417322834646},{"duration":0.05000000000000426,"durationTicks":120,"midi":76,"name":"E5","ticks":87840,"time":35.708568,"velocity":0.06299212598425197},{"duration":0.05000000000000426,"durationTicks":120,"midi":76,"name":"E5","ticks":88080,"time":35.808568,"velocity":0.06299212598425197},{"duration":0.05000000000001137,"durationTicks":120,"midi":88,"name":"E6","ticks":213120,"time":87.908568,"velocity":0.5039370078740157},{"duration":0.04999999999999716,"durationTicks":120,"midi":88,"name":"E6","ticks":213360,"time":88.00856800000001,"velocity":0.4645669291338583},{"duration":0.04999999999999716,"durationTicks":120,"midi":76,"name":"E5","ticks":213600,"time":88.108568,"velocity":0.4251968503937008},{"duration":0.04999999999999716,"durationTicks":120,"midi":76,"name":"E5","ticks":213840,"time":88.20856800000001,"velocity":0.3779527559055118},{"duration":0.04999999999999716,"durationTicks":120,"midi":88,"name":"E6","ticks":214080,"time":88.30856800000001,"velocity":0.33070866141732286},{"duration":0.05000000000001137,"durationTicks":120,"midi":88,"name":"E6","ticks":214320,"time":88.408568,"velocity":0.2755905511811024},{"duration":0.04999999999999716,"durationTicks":120,"midi":76,"name":"E5","ticks":214560,"time":88.50856800000001,"velocity":0.2283464566929134},{"duration":0.04999999999999716,"durationTicks":120,"midi":76,"name":"E5","ticks":214800,"time":88.608568,"velocity":0.18110236220472442},{"duration":0.04999999999999716,"durationTicks":120,"midi":88,"name":"E6","ticks":216960,"time":89.50856800000001,"velocity":0.25196850393700787},{"duration":0.04999999999999716,"durationTicks":120,"midi":88,"name":"E6","ticks":217200,"time":89.608568,"velocity":0.2283464566929134},{"duration":0.04999999999999716,"durationTicks":120,"midi":76,"name":"E5","ticks":217440,"time":89.70856800000001,"velocity":0.1889763779527559},{"duration":0.04999999999999716,"durationTicks":120,"midi":76,"name":"E5","ticks":217680,"time":89.80856800000001,"velocity":0.14960629921259844},{"duration":0.05000000000001137,"durationTicks":120,"midi":88,"name":"E6","ticks":217920,"time":89.908568,"velocity":0.11023622047244094},{"duration":0.04999999999999716,"durationTicks":120,"midi":88,"name":"E6","ticks":218160,"time":90.00856800000001,"velocity":0.08661417322834646},{"duration":0.04999999999999716,"durationTicks":120,"midi":76,"name":"E5","ticks":218400,"time":90.108568,"velocity":0.06299212598425197},{"duration":0.04999999999999716,"durationTicks":120,"midi":76,"name":"E5","ticks":218640,"time":90.20856800000001,"velocity":0.06299212598425197},{"duration":0.04999999999999716,"durationTicks":120,"midi":88,"name":"E6","ticks":219840,"time":90.70856800000001,"velocity":0.5039370078740157},{"duration":0.04999999999999716,"durationTicks":120,"midi":88,"name":"E6","ticks":220080,"time":90.80856800000001,"velocity":0.47244094488188976},{"duration":0.05000000000001137,"durationTicks":120,"midi":76,"name":"E5","ticks":220320,"time":90.908568,"velocity":0.4251968503937008},{"duration":0.04999999999999716,"durationTicks":120,"midi":76,"name":"E5","ticks":220560,"time":91.00856800000001,"velocity":0.4015748031496063},{"duration":0.04999999999999716,"durationTicks":120,"midi":88,"name":"E6","ticks":220800,"time":91.108568,"velocity":0.3464566929133858},{"duration":0.04999999999999716,"durationTicks":120,"midi":88,"name":"E6","ticks":221040,"time":91.20856800000001,"velocity":0.3228346456692913},{"duration":0.04999999999999716,"durationTicks":120,"midi":76,"name":"E5","ticks":221280,"time":91.30856800000001,"velocity":0.29133858267716534},{"duration":0.05000000000001137,"durationTicks":120,"midi":76,"name":"E5","ticks":221520,"time":91.408568,"velocity":0.2677165354330709},{"duration":0.04999999999999716,"durationTicks":120,"midi":88,"name":"E6","ticks":221760,"time":91.50856800000001,"velocity":0.23622047244094488},{"duration":0.04999999999999716,"durationTicks":120,"midi":88,"name":"E6","ticks":222000,"time":91.608568,"velocity":0.2047244094488189},{"duration":0.04999999999999716,"durationTicks":120,"midi":76,"name":"E5","ticks":222240,"time":91.70856800000001,"velocity":0.1732283464566929},{"duration":0.04999999999999716,"durationTicks":120,"midi":76,"name":"E5","ticks":222480,"time":91.80856800000001,"velocity":0.14960629921259844},{"duration":0.04999999999999716,"durationTicks":120,"midi":88,"name":"E6","ticks":228480,"time":94.30856800000001,"velocity":0.5039370078740157},{"duration":0.05000000000001137,"durationTicks":120,"midi":88,"name":"E6","ticks":228720,"time":94.408568,"velocity":0.4645669291338583},{"duration":0.04999999999999716,"durationTicks":120,"midi":76,"name":"E5","ticks":228960,"time":94.50856800000001,"velocity":0.4251968503937008},{"duration":0.04999999999999716,"durationTicks":120,"midi":76,"name":"E5","ticks":229200,"time":94.608568,"velocity":0.3779527559055118},{"duration":0.04999999999999716,"durationTicks":120,"midi":88,"name":"E6","ticks":229440,"time":94.70856800000001,"velocity":0.33070866141732286},{"duration":0.04999999999999716,"durationTicks":120,"midi":88,"name":"E6","ticks":229680,"time":94.80856800000001,"velocity":0.2755905511811024},{"duration":0.05000000000001137,"durationTicks":120,"midi":76,"name":"E5","ticks":229920,"time":94.908568,"velocity":0.2283464566929134},{"duration":0.04999999999999716,"durationTicks":120,"midi":76,"name":"E5","ticks":230160,"time":95.00856800000001,"velocity":0.18110236220472442},{"duration":0.05000000000001137,"durationTicks":120,"midi":88,"name":"E6","ticks":232320,"time":95.908568,"velocity":0.25196850393700787},{"duration":0.04999999999999716,"durationTicks":120,"midi":88,"name":"E6","ticks":232560,"time":96.00856800000001,"velocity":0.2283464566929134},{"duration":0.04999999999999716,"durationTicks":120,"midi":76,"name":"E5","ticks":232800,"time":96.108568,"velocity":0.1889763779527559},{"duration":0.04999999999999716,"durationTicks":120,"midi":76,"name":"E5","ticks":233040,"time":96.20856800000001,"velocity":0.14960629921259844},{"duration":0.04999999999999716,"durationTicks":120,"midi":88,"name":"E6","ticks":233280,"time":96.30856800000001,"velocity":0.11023622047244094},{"duration":0.05000000000001137,"durationTicks":120,"midi":88,"name":"E6","ticks":233520,"time":96.408568,"velocity":0.08661417322834646},{"duration":0.04999999999999716,"durationTicks":120,"midi":76,"name":"E5","ticks":233760,"time":96.50856800000001,"velocity":0.06299212598425197},{"duration":0.04999999999999716,"durationTicks":120,"midi":76,"name":"E5","ticks":234000,"time":96.608568,"velocity":0.06299212598425197},{"duration":0.04999999999999716,"durationTicks":120,"midi":88,"name":"E6","ticks":235200,"time":97.108568,"velocity":0.5039370078740157},{"duration":0.04999999999999716,"durationTicks":120,"midi":88,"name":"E6","ticks":235440,"time":97.20856800000001,"velocity":0.47244094488188976},{"duration":0.04999999999999716,"durationTicks":120,"midi":76,"name":"E5","ticks":235680,"time":97.30856800000001,"velocity":0.4251968503937008},{"duration":0.05000000000001137,"durationTicks":120,"midi":76,"name":"E5","ticks":235920,"time":97.408568,"velocity":0.4015748031496063},{"duration":0.04999999999999716,"durationTicks":120,"midi":88,"name":"E6","ticks":236160,"time":97.50856800000001,"velocity":0.3464566929133858},{"duration":0.04999999999999716,"durationTicks":120,"midi":88,"name":"E6","ticks":236400,"time":97.608568,"velocity":0.3228346456692913},{"duration":0.04999999999999716,"durationTicks":120,"midi":76,"name":"E5","ticks":236640,"time":97.70856800000001,"velocity":0.29133858267716534},{"duration":0.04999999999999716,"durationTicks":120,"midi":76,"name":"E5","ticks":236880,"time":97.80856800000001,"velocity":0.2677165354330709},{"duration":0.05000000000001137,"durationTicks":120,"midi":88,"name":"E6","ticks":237120,"time":97.908568,"velocity":0.23622047244094488},{"duration":0.04999999999999716,"durationTicks":120,"midi":88,"name":"E6","ticks":237360,"time":98.00856800000001,"velocity":0.2047244094488189},{"duration":0.04999999999999716,"durationTicks":120,"midi":76,"name":"E5","ticks":237600,"time":98.108568,"velocity":0.1732283464566929},{"duration":0.04999999999999716,"durationTicks":120,"midi":76,"name":"E5","ticks":237840,"time":98.20856800000001,"velocity":0.14960629921259844},{"duration":0.04999999999999716,"durationTicks":120,"midi":88,"name":"E6","ticks":240000,"time":99.108568,"velocity":0.25196850393700787},{"duration":0.04999999999999716,"durationTicks":120,"midi":88,"name":"E6","ticks":240240,"time":99.20856800000001,"velocity":0.2283464566929134},{"duration":0.04999999999999716,"durationTicks":120,"midi":76,"name":"E5","ticks":240480,"time":99.30856800000001,"velocity":0.1889763779527559},{"duration":0.05000000000001137,"durationTicks":120,"midi":76,"name":"E5","ticks":240720,"time":99.408568,"velocity":0.14960629921259844},{"duration":0.04999999999999716,"durationTicks":120,"midi":88,"name":"E6","ticks":240960,"time":99.50856800000001,"velocity":0.11023622047244094},{"duration":0.04999999999999716,"durationTicks":120,"midi":88,"name":"E6","ticks":241200,"time":99.608568,"velocity":0.08661417322834646},{"duration":0.04999999999999716,"durationTicks":120,"midi":76,"name":"E5","ticks":241440,"time":99.70856800000001,"velocity":0.06299212598425197},{"duration":0.04999999999999716,"durationTicks":120,"midi":76,"name":"E5","ticks":241680,"time":99.80856800000001,"velocity":0.06299212598425197},{"duration":0.04999999999999716,"durationTicks":120,"midi":88,"name":"E6","ticks":243840,"time":100.70856800000001,"velocity":0.5039370078740157},{"duration":0.04999999999999716,"durationTicks":120,"midi":88,"name":"E6","ticks":244080,"time":100.80856800000001,"velocity":0.4645669291338583},{"duration":0.05000000000001137,"durationTicks":120,"midi":76,"name":"E5","ticks":244320,"time":100.908568,"velocity":0.4251968503937008},{"duration":0.04999999999999716,"durationTicks":120,"midi":76,"name":"E5","ticks":244560,"time":101.00856800000001,"velocity":0.3779527559055118},{"duration":0.04999999999999716,"durationTicks":120,"midi":88,"name":"E6","ticks":244800,"time":101.108568,"velocity":0.33070866141732286},{"duration":0.04999999999999716,"durationTicks":120,"midi":88,"name":"E6","ticks":245040,"time":101.20856800000001,"velocity":0.2755905511811024},{"duration":0.04999999999999716,"durationTicks":120,"midi":76,"name":"E5","ticks":245280,"time":101.30856800000001,"velocity":0.2283464566929134},{"duration":0.05000000000001137,"durationTicks":120,"midi":76,"name":"E5","ticks":245520,"time":101.408568,"velocity":0.18110236220472442},{"duration":0.04999999999999716,"durationTicks":120,"midi":88,"name":"E6","ticks":247680,"time":102.30856800000001,"velocity":0.25196850393700787},{"duration":0.05000000000001137,"durationTicks":120,"midi":88,"name":"E6","ticks":247920,"time":102.408568,"velocity":0.2283464566929134},{"duration":0.04999999999999716,"durationTicks":120,"midi":76,"name":"E5","ticks":248160,"time":102.50856800000001,"velocity":0.1889763779527559},{"duration":0.04999999999999716,"durationTicks":120,"midi":76,"name":"E5","ticks":248400,"time":102.608568,"velocity":0.14960629921259844},{"duration":0.04999999999999716,"durationTicks":120,"midi":88,"name":"E6","ticks":248640,"time":102.70856800000001,"velocity":0.11023622047244094},{"duration":0.04999999999999716,"durationTicks":120,"midi":88,"name":"E6","ticks":248880,"time":102.80856800000001,"velocity":0.08661417322834646},{"duration":0.05000000000001137,"durationTicks":120,"midi":76,"name":"E5","ticks":249120,"time":102.908568,"velocity":0.06299212598425197},{"duration":0.04999999999999716,"durationTicks":120,"midi":76,"name":"E5","ticks":249360,"time":103.00856800000001,"velocity":0.06299212598425197},{"duration":0.04999999999999716,"durationTicks":120,"midi":88,"name":"E6","ticks":250560,"time":103.50856800000001,"velocity":0.5039370078740157},{"duration":0.04999999999999716,"durationTicks":120,"midi":88,"name":"E6","ticks":250800,"time":103.608568,"velocity":0.47244094488188976},{"duration":0.04999999999999716,"durationTicks":120,"midi":76,"name":"E5","ticks":251040,"time":103.70856800000001,"velocity":0.4251968503937008},{"duration":0.04999999999999716,"durationTicks":120,"midi":76,"name":"E5","ticks":251280,"time":103.80856800000001,"velocity":0.4015748031496063},{"duration":0.05000000000001137,"durationTicks":120,"midi":88,"name":"E6","ticks":251520,"time":103.908568,"velocity":0.3464566929133858},{"duration":0.04999999999999716,"durationTicks":120,"midi":88,"name":"E6","ticks":251760,"time":104.00856800000001,"velocity":0.3228346456692913},{"duration":0.04999999999999716,"durationTicks":120,"midi":76,"name":"E5","ticks":252000,"time":104.108568,"velocity":0.29133858267716534},{"duration":0.04999999999999716,"durationTicks":120,"midi":76,"name":"E5","ticks":252240,"time":104.20856800000001,"velocity":0.2677165354330709},{"duration":0.04999999999999716,"durationTicks":120,"midi":88,"name":"E6","ticks":252480,"time":104.30856800000001,"velocity":0.23622047244094488},{"duration":0.05000000000001137,"durationTicks":120,"midi":88,"name":"E6","ticks":252720,"time":104.408568,"velocity":0.2047244094488189},{"duration":0.04999999999999716,"durationTicks":120,"midi":76,"name":"E5","ticks":252960,"time":104.50856800000001,"velocity":0.1732283464566929},{"duration":0.04999999999999716,"durationTicks":120,"midi":76,"name":"E5","ticks":253200,"time":104.608568,"velocity":0.14960629921259844},{"duration":0.04999999999999716,"durationTicks":120,"midi":88,"name":"E6","ticks":255360,"time":105.50856800000001,"velocity":0.25196850393700787},{"duration":0.04999999999999716,"durationTicks":120,"midi":88,"name":"E6","ticks":255600,"time":105.608568,"velocity":0.2283464566929134},{"duration":0.04999999999999716,"durationTicks":120,"midi":76,"name":"E5","ticks":255840,"time":105.70856800000001,"velocity":0.1889763779527559},{"duration":0.04999999999999716,"durationTicks":120,"midi":76,"name":"E5","ticks":256080,"time":105.80856800000001,"velocity":0.14960629921259844},{"duration":0.05000000000001137,"durationTicks":120,"midi":88,"name":"E6","ticks":256320,"time":105.908568,"velocity":0.11023622047244094},{"duration":0.04999999999999716,"durationTicks":120,"midi":88,"name":"E6","ticks":256560,"time":106.00856800000001,"velocity":0.08661417322834646},{"duration":0.04999999999999716,"durationTicks":120,"midi":76,"name":"E5","ticks":256800,"time":106.108568,"velocity":0.06299212598425197},{"duration":0.04999999999999716,"durationTicks":120,"midi":76,"name":"E5","ticks":257040,"time":106.20856800000001,"velocity":0.06299212598425197},{"duration":0.04999999999999716,"durationTicks":120,"midi":88,"name":"E6","ticks":259200,"time":107.108568,"velocity":0.5039370078740157},{"duration":0.04999999999999716,"durationTicks":120,"midi":88,"name":"E6","ticks":259440,"time":107.20856800000001,"velocity":0.4645669291338583},{"duration":0.04999999999999716,"durationTicks":120,"midi":76,"name":"E5","ticks":259680,"time":107.30856800000001,"velocity":0.4251968503937008},{"duration":0.05000000000001137,"durationTicks":120,"midi":76,"name":"E5","ticks":259920,"time":107.408568,"velocity":0.3779527559055118},{"duration":0.04999999999999716,"durationTicks":120,"midi":88,"name":"E6","ticks":260160,"time":107.50856800000001,"velocity":0.33070866141732286},{"duration":0.04999999999999716,"durationTicks":120,"midi":88,"name":"E6","ticks":260400,"time":107.608568,"velocity":0.2755905511811024},{"duration":0.04999999999999716,"durationTicks":120,"midi":76,"name":"E5","ticks":260640,"time":107.70856800000001,"velocity":0.2283464566929134},{"duration":0.04999999999999716,"durationTicks":120,"midi":76,"name":"E5","ticks":260880,"time":107.80856800000001,"velocity":0.18110236220472442},{"duration":0.04999999999999716,"durationTicks":120,"midi":88,"name":"E6","ticks":263040,"time":108.70856800000001,"velocity":0.25196850393700787},{"duration":0.04999999999999716,"durationTicks":120,"midi":88,"name":"E6","ticks":263280,"time":108.80856800000001,"velocity":0.2283464566929134},{"duration":0.05000000000001137,"durationTicks":120,"midi":76,"name":"E5","ticks":263520,"time":108.908568,"velocity":0.1889763779527559},{"duration":0.04999999999999716,"durationTicks":120,"midi":76,"name":"E5","ticks":263760,"time":109.00856800000001,"velocity":0.14960629921259844},{"duration":0.04999999999999716,"durationTicks":120,"midi":88,"name":"E6","ticks":264000,"time":109.108568,"velocity":0.11023622047244094},{"duration":0.04999999999999716,"durationTicks":120,"midi":88,"name":"E6","ticks":264240,"time":109.20856800000001,"velocity":0.08661417322834646},{"duration":0.04999999999999716,"durationTicks":120,"midi":76,"name":"E5","ticks":264480,"time":109.30856800000001,"velocity":0.06299212598425197},{"duration":0.05000000000001137,"durationTicks":120,"midi":76,"name":"E5","ticks":264720,"time":109.408568,"velocity":0.06299212598425197},{"duration":0.05000000000001137,"durationTicks":120,"midi":88,"name":"E6","ticks":265920,"time":109.908568,"velocity":0.5039370078740157},{"duration":0.04999999999999716,"durationTicks":120,"midi":88,"name":"E6","ticks":266160,"time":110.00856800000001,"velocity":0.47244094488188976},{"duration":0.04999999999999716,"durationTicks":120,"midi":76,"name":"E5","ticks":266400,"time":110.108568,"velocity":0.4251968503937008},{"duration":0.04999999999999716,"durationTicks":120,"midi":76,"name":"E5","ticks":266640,"time":110.20856800000001,"velocity":0.4015748031496063},{"duration":0.04999999999999716,"durationTicks":120,"midi":88,"name":"E6","ticks":266880,"time":110.30856800000001,"velocity":0.3464566929133858},{"duration":0.05000000000001137,"durationTicks":120,"midi":88,"name":"E6","ticks":267120,"time":110.408568,"velocity":0.3228346456692913},{"duration":0.04999999999999716,"durationTicks":120,"midi":76,"name":"E5","ticks":267360,"time":110.50856800000001,"velocity":0.29133858267716534},{"duration":0.04999999999999716,"durationTicks":120,"midi":76,"name":"E5","ticks":267600,"time":110.608568,"velocity":0.2677165354330709},{"duration":0.04999999999999716,"durationTicks":120,"midi":88,"name":"E6","ticks":267840,"time":110.70856800000001,"velocity":0.23622047244094488},{"duration":0.04999999999999716,"durationTicks":120,"midi":88,"name":"E6","ticks":268080,"time":110.80856800000001,"velocity":0.2047244094488189},{"duration":0.05000000000001137,"durationTicks":120,"midi":76,"name":"E5","ticks":268320,"time":110.908568,"velocity":0.1732283464566929},{"duration":0.04999999999999716,"durationTicks":120,"midi":76,"name":"E5","ticks":268560,"time":111.00856800000001,"velocity":0.14960629921259844},{"duration":0.05000000000001137,"durationTicks":120,"midi":88,"name":"E6","ticks":270720,"time":111.908568,"velocity":0.25196850393700787},{"duration":0.04999999999999716,"durationTicks":120,"midi":88,"name":"E6","ticks":270960,"time":112.00856800000001,"velocity":0.2283464566929134},{"duration":0.04999999999999716,"durationTicks":120,"midi":76,"name":"E5","ticks":271200,"time":112.108568,"velocity":0.1889763779527559},{"duration":0.04999999999999716,"durationTicks":120,"midi":76,"name":"E5","ticks":271440,"time":112.20856800000001,"velocity":0.14960629921259844},{"duration":0.04999999999999716,"durationTicks":120,"midi":88,"name":"E6","ticks":271680,"time":112.30856800000001,"velocity":0.11023622047244094},{"duration":0.05000000000001137,"durationTicks":120,"midi":88,"name":"E6","ticks":271920,"time":112.408568,"velocity":0.08661417322834646},{"duration":0.04999999999999716,"durationTicks":120,"midi":76,"name":"E5","ticks":272160,"time":112.50856800000001,"velocity":0.06299212598425197},{"duration":0.04999999999999716,"durationTicks":120,"midi":76,"name":"E5","ticks":272400,"time":112.608568,"velocity":0.06299212598425197},{"duration":0.04999999999999716,"durationTicks":120,"midi":88,"name":"E6","ticks":274560,"time":113.50856800000001,"velocity":0.5039370078740157},{"duration":0.04999999999999716,"durationTicks":120,"midi":88,"name":"E6","ticks":274800,"time":113.608568,"velocity":0.4645669291338583},{"duration":0.04999999999999716,"durationTicks":120,"midi":76,"name":"E5","ticks":275040,"time":113.70856800000001,"velocity":0.4251968503937008},{"duration":0.04999999999999716,"durationTicks":120,"midi":76,"name":"E5","ticks":275280,"time":113.80856800000001,"velocity":0.3779527559055118},{"duration":0.05000000000001137,"durationTicks":120,"midi":88,"name":"E6","ticks":275520,"time":113.908568,"velocity":0.33070866141732286},{"duration":0.04999999999999716,"durationTicks":120,"midi":88,"name":"E6","ticks":275760,"time":114.00856800000001,"velocity":0.2755905511811024},{"duration":0.04999999999999716,"durationTicks":120,"midi":76,"name":"E5","ticks":276000,"time":114.108568,"velocity":0.2283464566929134},{"duration":0.04999999999999716,"durationTicks":120,"midi":76,"name":"E5","ticks":276240,"time":114.20856800000001,"velocity":0.18110236220472442},{"duration":0.04999999999999716,"durationTicks":120,"midi":88,"name":"E6","ticks":278400,"time":115.108568,"velocity":0.25196850393700787},{"duration":0.04999999999999716,"durationTicks":120,"midi":88,"name":"E6","ticks":278640,"time":115.20856800000001,"velocity":0.2283464566929134},{"duration":0.04999999999999716,"durationTicks":120,"midi":76,"name":"E5","ticks":278880,"time":115.30856800000001,"velocity":0.1889763779527559},{"duration":0.05000000000001137,"durationTicks":120,"midi":76,"name":"E5","ticks":279120,"time":115.408568,"velocity":0.14960629921259844},{"duration":0.04999999999999716,"durationTicks":120,"midi":88,"name":"E6","ticks":279360,"time":115.50856800000001,"velocity":0.11023622047244094},{"duration":0.04999999999999716,"durationTicks":120,"midi":88,"name":"E6","ticks":279600,"time":115.608568,"velocity":0.08661417322834646},{"duration":0.04999999999999716,"durationTicks":120,"midi":76,"name":"E5","ticks":279840,"time":115.70856800000001,"velocity":0.06299212598425197},{"duration":0.04999999999999716,"durationTicks":120,"midi":76,"name":"E5","ticks":280080,"time":115.80856800000001,"velocity":0.06299212598425197},{"duration":0.04999999999999716,"durationTicks":120,"midi":88,"name":"E6","ticks":281280,"time":116.30856800000001,"velocity":0.5039370078740157},{"duration":0.05000000000001137,"durationTicks":120,"midi":88,"name":"E6","ticks":281520,"time":116.408568,"velocity":0.47244094488188976},{"duration":0.04999999999999716,"durationTicks":120,"midi":76,"name":"E5","ticks":281760,"time":116.50856800000001,"velocity":0.4251968503937008},{"duration":0.04999999999999716,"durationTicks":120,"midi":76,"name":"E5","ticks":282000,"time":116.608568,"velocity":0.4015748031496063},{"duration":0.04999999999999716,"durationTicks":120,"midi":88,"name":"E6","ticks":282240,"time":116.70856800000001,"velocity":0.3464566929133858},{"duration":0.04999999999999716,"durationTicks":120,"midi":88,"name":"E6","ticks":282480,"time":116.80856800000001,"velocity":0.3228346456692913},{"duration":0.05000000000001137,"durationTicks":120,"midi":76,"name":"E5","ticks":282720,"time":116.908568,"velocity":0.29133858267716534},{"duration":0.04999999999999716,"durationTicks":120,"midi":76,"name":"E5","ticks":282960,"time":117.00856800000001,"velocity":0.2677165354330709},{"duration":0.04999999999999716,"durationTicks":120,"midi":88,"name":"E6","ticks":283200,"time":117.108568,"velocity":0.23622047244094488},{"duration":0.04999999999999716,"durationTicks":120,"midi":88,"name":"E6","ticks":283440,"time":117.20856800000001,"velocity":0.2047244094488189},{"duration":0.04999999999999716,"durationTicks":120,"midi":76,"name":"E5","ticks":283680,"time":117.30856800000001,"velocity":0.1732283464566929},{"duration":0.05000000000001137,"durationTicks":120,"midi":76,"name":"E5","ticks":283920,"time":117.408568,"velocity":0.14960629921259844},{"duration":0.04999999999999716,"durationTicks":120,"midi":88,"name":"E6","ticks":286080,"time":118.30856800000001,"velocity":0.25196850393700787},{"duration":0.05000000000001137,"durationTicks":120,"midi":88,"name":"E6","ticks":286320,"time":118.408568,"velocity":0.2283464566929134},{"duration":0.04999999999999716,"durationTicks":120,"midi":76,"name":"E5","ticks":286560,"time":118.50856800000001,"velocity":0.1889763779527559},{"duration":0.04999999999999716,"durationTicks":120,"midi":76,"name":"E5","ticks":286800,"time":118.608568,"velocity":0.14960629921259844},{"duration":0.04999999999999716,"durationTicks":120,"midi":88,"name":"E6","ticks":287040,"time":118.70856800000001,"velocity":0.11023622047244094},{"duration":0.04999999999999716,"durationTicks":120,"midi":88,"name":"E6","ticks":287280,"time":118.80856800000001,"velocity":0.08661417322834646},{"duration":0.05000000000001137,"durationTicks":120,"midi":76,"name":"E5","ticks":287520,"time":118.908568,"velocity":0.06299212598425197},{"duration":0.04999999999999716,"durationTicks":120,"midi":76,"name":"E5","ticks":287760,"time":119.00856800000001,"velocity":0.06299212598425197},{"duration":0.04999999999998295,"durationTicks":120,"midi":88,"name":"E6","ticks":412800,"time":171.10856800000002,"velocity":0.3228346456692913},{"duration":0.05000000000001137,"durationTicks":120,"midi":88,"name":"E6","ticks":413040,"time":171.208568,"velocity":0.31496062992125984},{"duration":0.05000000000001137,"durationTicks":120,"midi":76,"name":"E5","ticks":413280,"time":171.308568,"velocity":0.30708661417322836},{"duration":0.05000000000001137,"durationTicks":120,"midi":76,"name":"E5","ticks":413520,"time":171.408568,"velocity":0.2992125984251969},{"duration":0.04999999999998295,"durationTicks":120,"midi":88,"name":"E6","ticks":413760,"time":171.50856800000003,"velocity":0.29133858267716534},{"duration":0.04999999999998295,"durationTicks":120,"midi":88,"name":"E6","ticks":414000,"time":171.60856800000002,"velocity":0.28346456692913385},{"duration":0.05000000000001137,"durationTicks":120,"midi":76,"name":"E5","ticks":414240,"time":171.708568,"velocity":0.2755905511811024},{"duration":0.05000000000001137,"durationTicks":120,"midi":76,"name":"E5","ticks":414480,"time":171.808568,"velocity":0.2677165354330709},{"duration":0.05000000000001137,"durationTicks":120,"midi":88,"name":"E6","ticks":416640,"time":172.708568,"velocity":0.2755905511811024},{"duration":0.05000000000001137,"durationTicks":120,"midi":88,"name":"E6","ticks":416880,"time":172.808568,"velocity":0.25196850393700787},{"duration":0.05000000000001137,"durationTicks":120,"midi":76,"name":"E5","ticks":417120,"time":172.908568,"velocity":0.23622047244094488},{"duration":0.04999999999998295,"durationTicks":120,"midi":76,"name":"E5","ticks":417360,"time":173.00856800000003,"velocity":0.2204724409448819},{"duration":0.04999999999998295,"durationTicks":120,"midi":88,"name":"E6","ticks":417600,"time":173.10856800000002,"velocity":0.2047244094488189},{"duration":0.05000000000001137,"durationTicks":120,"midi":88,"name":"E6","ticks":417840,"time":173.208568,"velocity":0.1889763779527559},{"duration":0.05000000000001137,"durationTicks":120,"midi":76,"name":"E5","ticks":418080,"time":173.308568,"velocity":0.16535433070866143},{"duration":0.05000000000001137,"durationTicks":120,"midi":76,"name":"E5","ticks":418320,"time":173.408568,"velocity":0.14960629921259844},{"duration":0.05000000000001137,"durationTicks":120,"midi":88,"name":"E6","ticks":419520,"time":173.908568,"velocity":0.2125984251968504},{"duration":0.04999999999998295,"durationTicks":120,"midi":88,"name":"E6","ticks":419760,"time":174.00856800000003,"velocity":0.1968503937007874},{"duration":0.04999999999998295,"durationTicks":120,"midi":76,"name":"E5","ticks":420000,"time":174.10856800000002,"velocity":0.18110236220472442},{"duration":0.05000000000001137,"durationTicks":120,"midi":76,"name":"E5","ticks":420240,"time":174.208568,"velocity":0.16535433070866143},{"duration":0.05000000000001137,"durationTicks":120,"midi":88,"name":"E6","ticks":420480,"time":174.308568,"velocity":0.14960629921259844},{"duration":0.05000000000001137,"durationTicks":120,"midi":88,"name":"E6","ticks":420720,"time":174.408568,"velocity":0.12598425196850394},{"duration":0.04999999999998295,"durationTicks":120,"midi":76,"name":"E5","ticks":420960,"time":174.50856800000003,"velocity":0.11023622047244094},{"duration":0.04999999999998295,"durationTicks":120,"midi":76,"name":"E5","ticks":421200,"time":174.60856800000002,"velocity":0.09448818897637795},{"duration":0.05000000000001137,"durationTicks":120,"midi":88,"name":"E6","ticks":421440,"time":174.708568,"velocity":0.07874015748031496},{"duration":0.05000000000001137,"durationTicks":120,"midi":88,"name":"E6","ticks":421680,"time":174.808568,"velocity":0.06299212598425197},{"duration":0.05000000000001137,"durationTicks":120,"midi":76,"name":"E5","ticks":421920,"time":174.908568,"velocity":0.047244094488188976},{"duration":0.04999999999998295,"durationTicks":120,"midi":76,"name":"E5","ticks":422160,"time":175.00856800000003,"velocity":0.031496062992125984}]},{"channel":0,"controlChanges":{"1":[{"number":1,"ticks":2880,"time":0.36,"value":0},{"number":1,"ticks":7755,"time":2.227766109375,"value":0.007874015748031496},{"number":1,"ticks":7770,"time":2.23446253125,"value":0.015748031496062992},{"number":1,"ticks":7800,"time":2.2478553750000003,"value":0.023622047244094488},{"number":1,"ticks":7815,"time":2.254551796875,"value":0.031496062992125984},{"number":1,"ticks":7860,"time":2.2746410625,"value":0.03937007874015748},{"number":1,"ticks":7875,"time":2.2813374843750003,"value":0.047244094488188976},{"number":1,"ticks":7890,"time":2.28803390625,"value":0.05511811023622047},{"number":1,"ticks":7905,"time":2.2947303281250004,"value":0.06299212598425197},{"number":1,"ticks":7920,"time":2.30142675,"value":0.07086614173228346},{"number":1,"ticks":7935,"time":2.308123171875,"value":0.07874015748031496},{"number":1,"ticks":7950,"time":2.3148195937500002,"value":0.08661417322834646},{"number":1,"ticks":7980,"time":2.3282124375000004,"value":0.09448818897637795},{"number":1,"ticks":7995,"time":2.334908859375,"value":0.10236220472440945},{"number":1,"ticks":8025,"time":2.348301703125,"value":0.11023622047244094},{"number":1,"ticks":8040,"time":2.354998125,"value":0.11811023622047244},{"number":1,"ticks":8055,"time":2.3616945468750004,"value":0.12598425196850394},{"number":1,"ticks":8085,"time":2.375087390625,"value":0.13385826771653545},{"number":1,"ticks":8100,"time":2.3817838125,"value":0.14173228346456693},{"number":1,"ticks":8115,"time":2.3884802343750002,"value":0.14960629921259844},{"number":1,"ticks":8130,"time":2.3951766562500003,"value":0.15748031496062992},{"number":1,"ticks":8145,"time":2.401873078125,"value":0.16535433070866143},{"number":1,"ticks":8160,"time":2.4085695,"value":0.1732283464566929},{"number":1,"ticks":8175,"time":2.415265921875,"value":0.18110236220472442},{"number":1,"ticks":8190,"time":2.42196234375,"value":0.1889763779527559},{"number":1,"ticks":8205,"time":2.4286587656250003,"value":0.1968503937007874},{"number":1,"ticks":8220,"time":2.4353551875,"value":0.2047244094488189},{"number":1,"ticks":8235,"time":2.4420516093750004,"value":0.2125984251968504},{"number":1,"ticks":8250,"time":2.44874803125,"value":0.2204724409448819},{"number":1,"ticks":8265,"time":2.455444453125,"value":0.2283464566929134},{"number":1,"ticks":8325,"time":2.482230140625,"value":0.2440944881889764},{"number":1,"ticks":8340,"time":2.4889265625,"value":0.25196850393700787},{"number":1,"ticks":8370,"time":2.5023194062500003,"value":0.25984251968503935},{"number":1,"ticks":8385,"time":2.5090158281250003,"value":0.2677165354330709},{"number":1,"ticks":8400,"time":2.51571225,"value":0.2755905511811024},{"number":1,"ticks":8445,"time":2.5358015156250002,"value":0.28346456692913385},{"number":1,"ticks":8460,"time":2.5424979375000003,"value":0.29133858267716534},{"number":1,"ticks":8475,"time":2.549194359375,"value":0.2992125984251969},{"number":1,"ticks":8490,"time":2.55589078125,"value":0.30708661417322836},{"number":1,"ticks":8505,"time":2.562587203125,"value":0.31496062992125984},{"number":1,"ticks":8565,"time":2.589372890625,"value":0.33858267716535434},{"number":1,"ticks":8610,"time":2.60946215625,"value":0.3543307086614173},{"number":1,"ticks":8655,"time":2.629551421875,"value":0.36220472440944884},{"number":1,"ticks":8670,"time":2.63624784375,"value":0.3700787401574803},{"number":1,"ticks":8685,"time":2.642944265625,"value":0.3779527559055118},{"number":1,"ticks":8715,"time":2.6563371093750003,"value":0.3858267716535433},{"number":1,"ticks":8730,"time":2.66303353125,"value":0.3937007874015748},{"number":1,"ticks":8760,"time":2.676426375,"value":0.4015748031496063},{"number":1,"ticks":8775,"time":2.683122796875,"value":0.4094488188976378},{"number":1,"ticks":8790,"time":2.6898192187500003,"value":0.41732283464566927},{"number":1,"ticks":8805,"time":2.6965156406250004,"value":0.4251968503937008},{"number":1,"ticks":8835,"time":2.709908484375,"value":0.4330708661417323},{"number":1,"ticks":8850,"time":2.71660490625,"value":0.4409448818897638},{"number":1,"ticks":8865,"time":2.7233013281250003,"value":0.4566929133858268},{"number":1,"ticks":8895,"time":2.736694171875,"value":0.47244094488188976},{"number":1,"ticks":8925,"time":2.750087015625,"value":0.48031496062992124},{"number":1,"ticks":8940,"time":2.7567834375,"value":0.4881889763779528},{"number":1,"ticks":8955,"time":2.7634798593750003,"value":0.49606299212598426},{"number":1,"ticks":8985,"time":2.776872703125,"value":0.5118110236220472},{"number":1,"ticks":9000,"time":2.783569125,"value":0.5196850393700787},{"number":1,"ticks":9030,"time":2.7969619687500002,"value":0.5354330708661418},{"number":1,"ticks":9045,"time":2.8036583906250003,"value":0.5433070866141733},{"number":1,"ticks":9075,"time":2.817051234375,"value":0.5511811023622047},{"number":1,"ticks":9090,"time":2.82374765625,"value":0.5669291338582677},{"number":1,"ticks":9120,"time":2.8371405000000003,"value":0.5826771653543307},{"number":1,"ticks":9165,"time":2.857229765625,"value":0.5905511811023622},{"number":1,"ticks":9180,"time":2.8639261875,"value":0.6062992125984252},{"number":1,"ticks":9210,"time":2.8773190312500003,"value":0.6220472440944882},{"number":1,"ticks":9240,"time":2.890711875,"value":0.6456692913385826},{"number":1,"ticks":9285,"time":2.9108011406250003,"value":0.6535433070866141},{"number":1,"ticks":9315,"time":2.924193984375,"value":0.6692913385826772},{"number":1,"ticks":9345,"time":2.937586828125,"value":0.6771653543307087},{"number":1,"ticks":9360,"time":2.9442832500000002,"value":0.6929133858267716},{"number":1,"ticks":9405,"time":2.964372515625,"value":0.7007874015748031},{"number":1,"ticks":9435,"time":2.977765359375,"value":0.7244094488188977},{"number":1,"ticks":9450,"time":2.9844617812500003,"value":0.7322834645669292},{"number":1,"ticks":9480,"time":2.997854625,"value":0.7480314960629921},{"number":1,"ticks":9510,"time":3.01124746875,"value":0.7559055118110236},{"number":1,"ticks":9525,"time":3.0179438906250002,"value":0.7637795275590551},{"number":1,"ticks":9555,"time":3.0313367343750004,"value":0.7716535433070866},{"number":1,"ticks":9570,"time":3.03803315625,"value":0.7795275590551181},{"number":1,"ticks":9600,"time":3.051426,"value":0.7952755905511811},{"number":1,"ticks":9630,"time":3.0648188437500004,"value":0.8031496062992126},{"number":1,"ticks":9645,"time":3.071515265625,"value":0.8110236220472441},{"number":1,"ticks":9675,"time":3.084908109375,"value":0.8188976377952756},{"number":1,"ticks":9690,"time":3.0916045312500002,"value":0.8267716535433071},{"number":1,"ticks":9720,"time":3.1049973750000004,"value":0.84251968503937},{"number":1,"ticks":9735,"time":3.111693796875,"value":0.8503937007874016},{"number":1,"ticks":9765,"time":3.125086640625,"value":0.8582677165354331},{"number":1,"ticks":9810,"time":3.14517590625,"value":0.8661417322834646},{"number":1,"ticks":9825,"time":3.151872328125,"value":0.8818897637795275},{"number":1,"ticks":9855,"time":3.1652651718750002,"value":0.889763779527559},{"number":1,"ticks":9885,"time":3.1786580156250004,"value":0.9133858267716536},{"number":1,"ticks":9930,"time":3.19874728125,"value":0.9291338582677166},{"number":1,"ticks":9960,"time":3.2121401250000003,"value":0.937007874015748},{"number":1,"ticks":9975,"time":3.2188365468750004,"value":0.9448818897637795},{"number":1,"ticks":9990,"time":3.22553296875,"value":0.952755905511811},{"number":1,"ticks":10020,"time":3.2389258125000002,"value":0.9606299212598425},{"number":1,"ticks":10035,"time":3.2456222343750003,"value":0.968503937007874},{"number":1,"ticks":10050,"time":3.2523186562500004,"value":0.9763779527559056},{"number":1,"ticks":10065,"time":3.259015078125,"value":0.984251968503937},{"number":1,"ticks":10080,"time":3.2657115,"value":0.9921259842519685},{"number":1,"ticks":10110,"time":3.2791043437500003,"value":1},{"number":1,"ticks":11520,"time":3.9085680000000003,"value":0},{"number":1,"ticks":25920,"time":9.908568,"value":1},{"number":1,"ticks":26640,"time":10.208568000000001,"value":0},{"number":1,"ticks":56640,"time":22.708568,"value":1},{"number":1,"ticks":57360,"time":23.008568,"value":0},{"number":1,"ticks":87360,"time":35.508568000000004,"value":1},{"number":1,"ticks":88080,"time":35.808568,"value":0},{"number":1,"ticks":225600,"time":93.108568,"value":1},{"number":1,"ticks":226320,"time":93.408568,"value":0},{"number":1,"ticks":256320,"time":105.908568,"value":1},{"number":1,"ticks":257040,"time":106.20856800000001,"value":0},{"number":1,"ticks":287040,"time":118.70856800000001,"value":1},{"number":1,"ticks":287760,"time":119.00856800000001,"value":0},{"number":1,"ticks":425280,"time":176.308568,"value":1},{"number":1,"ticks":426000,"time":176.60856800000002,"value":0}],"7":[{"number":7,"ticks":1935,"time":0.24187499999999998,"value":0.7086614173228346}]},"pitchBends":[{"ticks":2880,"time":0.36,"value":0},{"ticks":24495,"time":9.314818,"value":0},{"ticks":24510,"time":9.321068,"value":0.046875},{"ticks":24525,"time":9.327318,"value":0.078125},{"ticks":24540,"time":9.333568000000001,"value":0.125},{"ticks":24555,"time":9.339818000000001,"value":0.171875},{"ticks":24570,"time":9.346068,"value":0.203125},{"ticks":24585,"time":9.352318,"value":0.25},{"ticks":24600,"time":9.358568,"value":0.28125},{"ticks":24615,"time":9.364818000000001,"value":0.34375},{"ticks":24630,"time":9.371068000000001,"value":0.359375},{"ticks":24645,"time":9.377318,"value":0.40625},{"ticks":24660,"time":9.383568,"value":0.453125},{"ticks":24675,"time":9.389818,"value":0.484375},{"ticks":24690,"time":9.396068000000001,"value":0.53125},{"ticks":24705,"time":9.402318000000001,"value":0.5625},{"ticks":24720,"time":9.408568,"value":0.65625},{"ticks":24735,"time":9.414818,"value":0.6875},{"ticks":24750,"time":9.421068,"value":0.734375},{"ticks":24765,"time":9.427318000000001,"value":0.765625},{"ticks":24780,"time":9.433568000000001,"value":0.796875},{"ticks":24795,"time":9.439818,"value":0.8125},{"ticks":24810,"time":9.446068,"value":0.828125},{"ticks":24825,"time":9.452318,"value":0.859375},{"ticks":24855,"time":9.464818000000001,"value":0.890625},{"ticks":24870,"time":9.471068,"value":0.90625},{"ticks":24885,"time":9.477318,"value":0.921875},{"ticks":24900,"time":9.483568,"value":0.953125},{"ticks":24915,"time":9.489818000000001,"value":0.984375},{"ticks":24960,"time":9.508568,"value":0},{"ticks":224175,"time":92.514818,"value":0},{"ticks":224190,"time":92.52106800000001,"value":0.046875},{"ticks":224205,"time":92.52731800000001,"value":0.078125},{"ticks":224220,"time":92.533568,"value":0.125},{"ticks":224235,"time":92.53981800000001,"value":0.171875},{"ticks":224250,"time":92.546068,"value":0.203125},{"ticks":224265,"time":92.55231800000001,"value":0.25},{"ticks":224280,"time":92.55856800000001,"value":0.28125},{"ticks":224295,"time":92.564818,"value":0.34375},{"ticks":224310,"time":92.57106800000001,"value":0.359375},{"ticks":224325,"time":92.577318,"value":0.40625},{"ticks":224340,"time":92.58356800000001,"value":0.453125},{"ticks":224355,"time":92.58981800000001,"value":0.484375},{"ticks":224370,"time":92.596068,"value":0.53125},{"ticks":224385,"time":92.60231800000001,"value":0.5625},{"ticks":224400,"time":92.608568,"value":0.65625},{"ticks":224415,"time":92.61481800000001,"value":0.6875},{"ticks":224430,"time":92.62106800000001,"value":0.734375},{"ticks":224445,"time":92.627318,"value":0.765625},{"ticks":224460,"time":92.63356800000001,"value":0.796875},{"ticks":224475,"time":92.639818,"value":0.8125},{"ticks":224490,"time":92.64606800000001,"value":0.828125},{"ticks":224505,"time":92.65231800000001,"value":0.859375},{"ticks":224535,"time":92.66481800000001,"value":0.890625},{"ticks":224550,"time":92.671068,"value":0.90625},{"ticks":224565,"time":92.67731800000001,"value":0.921875},{"ticks":224580,"time":92.68356800000001,"value":0.953125},{"ticks":224595,"time":92.689818,"value":0.984375},{"ticks":224640,"time":92.70856800000001,"value":0},{"ticks":423855,"time":175.714818,"value":0},{"ticks":423870,"time":175.721068,"value":0.046875},{"ticks":423885,"time":175.72731800000003,"value":0.078125},{"ticks":423900,"time":175.73356800000002,"value":0.125},{"ticks":423915,"time":175.739818,"value":0.171875},{"ticks":423930,"time":175.746068,"value":0.203125},{"ticks":423945,"time":175.752318,"value":0.25},{"ticks":423960,"time":175.75856800000003,"value":0.28125},{"ticks":423975,"time":175.76481800000002,"value":0.34375},{"ticks":423990,"time":175.771068,"value":0.359375},{"ticks":424005,"time":175.777318,"value":0.40625},{"ticks":424020,"time":175.783568,"value":0.453125},{"ticks":424035,"time":175.78981800000003,"value":0.484375},{"ticks":424050,"time":175.79606800000002,"value":0.53125},{"ticks":424065,"time":175.802318,"value":0.5625},{"ticks":424080,"time":175.808568,"value":0.65625},{"ticks":424095,"time":175.814818,"value":0.6875},{"ticks":424110,"time":175.82106800000003,"value":0.734375},{"ticks":424125,"time":175.82731800000002,"value":0.765625},{"ticks":424140,"time":175.833568,"value":0.796875},{"ticks":424155,"time":175.839818,"value":0.8125},{"ticks":424170,"time":175.846068,"value":0.828125},{"ticks":424185,"time":175.85231800000003,"value":0.859375},{"ticks":424215,"time":175.864818,"value":0.890625},{"ticks":424230,"time":175.871068,"value":0.90625},{"ticks":424245,"time":175.877318,"value":0.921875},{"ticks":424260,"time":175.88356800000003,"value":0.953125},{"ticks":424275,"time":175.88981800000002,"value":0.984375},{"ticks":424320,"time":175.908568,"value":0}],"instrument":{"family":"synth lead","number":80,"name":"lead 1 (square)"},"name":"","notes":[{"duration":0.6428565000000002,"durationTicks":1440,"midi":69,"name":"A4","ticks":3840,"time":0.48,"velocity":0.6299212598425197},{"duration":0.6428565000000002,"durationTicks":1440,"midi":81,"name":"A5","ticks":3840,"time":0.48,"velocity":0.7874015748031497},{"duration":0.10714274999999995,"durationTicks":240,"midi":64,"name":"E4","ticks":5280,"time":1.1228565000000001,"velocity":0.6299212598425197},{"duration":0.10714274999999995,"durationTicks":240,"midi":76,"name":"E5","ticks":5280,"time":1.1228565000000001,"velocity":0.7874015748031497},{"duration":0.10714274999999995,"durationTicks":240,"midi":67,"name":"G4","ticks":5520,"time":1.22999925,"velocity":0.6299212598425197},{"duration":0.10714274999999995,"durationTicks":240,"midi":79,"name":"G5","ticks":5520,"time":1.22999925,"velocity":0.7874015748031497},{"duration":0.2142854999999999,"durationTicks":480,"midi":69,"name":"A4","ticks":5760,"time":1.337142,"velocity":0.6299212598425197},{"duration":0.2142854999999999,"durationTicks":480,"midi":81,"name":"A5","ticks":5760,"time":1.337142,"velocity":0.7874015748031497},{"duration":0.21428550000000013,"durationTicks":480,"midi":71,"name":"B4","ticks":6240,"time":1.5514275,"velocity":0.6299212598425197},{"duration":0.21428550000000013,"durationTicks":480,"midi":83,"name":"B5","ticks":6240,"time":1.5514275,"velocity":0.7874015748031497},{"duration":0.21428550000000013,"durationTicks":480,"midi":74,"name":"D5","ticks":6720,"time":1.765713,"velocity":0.6299212598425197},{"duration":0.21428550000000013,"durationTicks":480,"midi":86,"name":"D6","ticks":6720,"time":1.765713,"velocity":0.7874015748031497},{"duration":0.10714274999999995,"durationTicks":240,"midi":71,"name":"B4","ticks":7200,"time":1.9799985000000002,"velocity":0.6299212598425197},{"duration":0.10714274999999995,"durationTicks":240,"midi":83,"name":"B5","ticks":7200,"time":1.9799985000000002,"velocity":0.7874015748031497},{"duration":0.10714274999999995,"durationTicks":240,"midi":74,"name":"D5","ticks":7440,"time":2.08714125,"velocity":0.6299212598425197},{"duration":0.10714274999999995,"durationTicks":240,"midi":86,"name":"D6","ticks":7440,"time":2.08714125,"velocity":0.7874015748031497},{"duration":1.7142840000000001,"durationTicks":3840,"midi":76,"name":"E5","ticks":7680,"time":2.194284,"velocity":0.6299212598425197},{"duration":1.660712625,"durationTicks":3720,"midi":88,"name":"E6","ticks":7680,"time":2.194284,"velocity":0.7874015748031497},{"duration":0.19999999999999973,"durationTicks":480,"midi":62,"name":"D4","ticks":11520,"time":3.9085680000000003,"velocity":0.7874015748031497},{"duration":0.20000000000000018,"durationTicks":480,"midi":62,"name":"D4","ticks":12480,"time":4.308568,"velocity":0.7874015748031497},{"duration":0.1999999999999993,"durationTicks":480,"midi":62,"name":"D4","ticks":13920,"time":4.908568000000001,"velocity":0.7874015748031497},{"duration":0.40000000000000036,"durationTicks":960,"midi":62,"name":"D4","ticks":14880,"time":5.308568,"velocity":0.7874015748031497},{"duration":0.20000000000000018,"durationTicks":480,"midi":61,"name":"C#4","ticks":15840,"time":5.7085680000000005,"velocity":0.7874015748031497},{"duration":0.40000000000000036,"durationTicks":960,"midi":61,"name":"C#4","ticks":16320,"time":5.908568000000001,"velocity":0.7874015748031497},{"duration":0.1999999999999993,"durationTicks":480,"midi":61,"name":"C#4","ticks":17280,"time":6.308568000000001,"velocity":0.7874015748031497},{"duration":0.20000000000000018,"durationTicks":480,"midi":61,"name":"C#4","ticks":18240,"time":6.7085680000000005,"velocity":0.7874015748031497},{"duration":0.20000000000000107,"durationTicks":480,"midi":62,"name":"D4","ticks":19200,"time":7.108568,"velocity":0.7874015748031497},{"duration":0.20000000000000018,"durationTicks":480,"midi":62,"name":"D4","ticks":20160,"time":7.508568,"velocity":0.7874015748031497},{"duration":0.20000000000000107,"durationTicks":480,"midi":62,"name":"D4","ticks":21600,"time":8.108568,"velocity":0.7874015748031497},{"duration":0.40000000000000036,"durationTicks":960,"midi":62,"name":"D4","ticks":22560,"time":8.508568,"velocity":0.7874015748031497},{"duration":0.1999999999999993,"durationTicks":480,"midi":60,"name":"C4","ticks":23520,"time":8.908568,"velocity":0.7874015748031497},{"duration":0.40000000000000036,"durationTicks":960,"midi":60,"name":"C4","ticks":24000,"time":9.108568,"velocity":0.7874015748031497},{"duration":0.20000000000000107,"durationTicks":480,"midi":83,"name":"B5","ticks":24960,"time":9.508568,"velocity":0.7874015748031497},{"duration":0.20000000000000107,"durationTicks":480,"midi":86,"name":"D6","ticks":24960,"time":9.508568,"velocity":0.7874015748031497},{"duration":0.3000000000000007,"durationTicks":720,"midi":83,"name":"B5","ticks":25920,"time":9.908568,"velocity":0.7874015748031497},{"duration":0.3000000000000007,"durationTicks":720,"midi":86,"name":"D6","ticks":25920,"time":9.908568,"velocity":0.7874015748031497},{"duration":0.1999999999999993,"durationTicks":480,"midi":62,"name":"D4","ticks":26880,"time":10.308568000000001,"velocity":0.7874015748031497},{"duration":0.1999999999999993,"durationTicks":480,"midi":62,"name":"D4","ticks":27840,"time":10.708568000000001,"velocity":0.7874015748031497},{"duration":0.1999999999999993,"durationTicks":480,"midi":62,"name":"D4","ticks":29280,"time":11.308568000000001,"velocity":0.7874015748031497},{"duration":0.40000000000000036,"durationTicks":960,"midi":62,"name":"D4","ticks":30240,"time":11.708568000000001,"velocity":0.7874015748031497},{"duration":0.1999999999999993,"durationTicks":480,"midi":61,"name":"C#4","ticks":31200,"time":12.108568000000002,"velocity":0.7874015748031497},{"duration":0.40000000000000036,"durationTicks":960,"midi":61,"name":"C#4","ticks":31680,"time":12.308568000000001,"velocity":0.7874015748031497},{"duration":0.1999999999999993,"durationTicks":480,"midi":61,"name":"C#4","ticks":32640,"time":12.708568000000001,"velocity":0.7874015748031497},{"duration":0.1999999999999993,"durationTicks":480,"midi":61,"name":"C#4","ticks":33600,"time":13.108568000000002,"velocity":0.7874015748031497},{"duration":0.1999999999999993,"durationTicks":480,"midi":62,"name":"D4","ticks":34560,"time":13.508568000000002,"velocity":0.7874015748031497},{"duration":0.20000000000000107,"durationTicks":480,"midi":62,"name":"D4","ticks":35520,"time":13.908568,"velocity":0.7874015748031497},{"duration":0.1999999999999993,"durationTicks":480,"midi":62,"name":"D4","ticks":36960,"time":14.508568000000002,"velocity":0.7874015748031497},{"duration":0.40000000000000036,"durationTicks":960,"midi":62,"name":"D4","ticks":37920,"time":14.908568,"velocity":0.7874015748031497},{"duration":0.20000000000000107,"durationTicks":480,"midi":60,"name":"C4","ticks":38880,"time":15.308568000000001,"velocity":0.7874015748031497},{"duration":0.3999999999999986,"durationTicks":960,"midi":60,"name":"C4","ticks":39360,"time":15.508568000000002,"velocity":0.7874015748031497},{"duration":0.2333333333333325,"durationTicks":560,"midi":59,"name":"B3","ticks":40320,"time":15.908568,"velocity":0.7874015748031497},{"duration":0.3999999999999986,"durationTicks":960,"midi":59,"name":"B3","ticks":41280,"time":16.308568,"velocity":0.7874015748031497},{"duration":0.1999999999999993,"durationTicks":480,"midi":60,"name":"C4","ticks":42240,"time":16.708568,"velocity":0.7874015748031497},{"duration":0.1999999999999993,"durationTicks":480,"midi":60,"name":"C4","ticks":43200,"time":17.108568,"velocity":0.7874015748031497},{"duration":0.1999999999999993,"durationTicks":480,"midi":60,"name":"C4","ticks":44640,"time":17.708568,"velocity":0.7874015748031497},{"duration":0.3999999999999986,"durationTicks":960,"midi":60,"name":"C4","ticks":45600,"time":18.108568,"velocity":0.7874015748031497},{"duration":0.1999999999999993,"durationTicks":480,"midi":59,"name":"B3","ticks":46560,"time":18.508568,"velocity":0.7874015748031497},{"duration":0.40000000000000213,"durationTicks":960,"midi":59,"name":"B3","ticks":47040,"time":18.708568,"velocity":0.7874015748031497},{"duration":0.23333333333333428,"durationTicks":560,"midi":64,"name":"E4","ticks":48000,"time":19.108568,"velocity":0.7874015748031497},{"duration":0.3999999999999986,"durationTicks":960,"midi":64,"name":"E4","ticks":48960,"time":19.508568,"velocity":0.7874015748031497},{"duration":0.1999999999999993,"durationTicks":480,"midi":60,"name":"C4","ticks":49920,"time":19.908568,"velocity":0.7874015748031497},{"duration":0.1999999999999993,"durationTicks":480,"midi":60,"name":"C4","ticks":50880,"time":20.308568,"velocity":0.7874015748031497},{"duration":0.14999999999999858,"durationTicks":360,"midi":62,"name":"D4","ticks":51840,"time":20.708568,"velocity":0.7874015748031497},{"duration":0.25,"durationTicks":600,"midi":62,"name":"D4","ticks":52320,"time":20.908568,"velocity":0.7874015748031497},{"duration":0.34999999999999787,"durationTicks":840,"midi":64,"name":"E4","ticks":53280,"time":21.308568,"velocity":0.7874015748031497},{"duration":0.14999999999999858,"durationTicks":360,"midi":64,"name":"E4","ticks":54240,"time":21.708568,"velocity":0.7874015748031497},{"duration":0.3500000000000014,"durationTicks":840,"midi":64,"name":"E4","ticks":54720,"time":21.908568,"velocity":0.7874015748031497},{"duration":0.1999999999999993,"durationTicks":480,"midi":83,"name":"B5","ticks":55680,"time":22.308568,"velocity":0.7874015748031497},{"duration":0.1999999999999993,"durationTicks":480,"midi":86,"name":"D6","ticks":55680,"time":22.308568,"velocity":0.7874015748031497},{"duration":0.3000000000000007,"durationTicks":720,"midi":83,"name":"B5","ticks":56640,"time":22.708568,"velocity":0.7874015748031497},{"duration":0.3000000000000007,"durationTicks":720,"midi":86,"name":"D6","ticks":56640,"time":22.708568,"velocity":0.7874015748031497},{"duration":0.1999999999999993,"durationTicks":480,"midi":62,"name":"D4","ticks":57600,"time":23.108568,"velocity":0.7874015748031497},{"duration":0.1999999999999993,"durationTicks":480,"midi":62,"name":"D4","ticks":58560,"time":23.508568,"velocity":0.7874015748031497},{"duration":0.1999999999999993,"durationTicks":480,"midi":62,"name":"D4","ticks":60000,"time":24.108568,"velocity":0.7874015748031497},{"duration":0.3999999999999986,"durationTicks":960,"midi":62,"name":"D4","ticks":60960,"time":24.508568,"velocity":0.7874015748031497},{"duration":0.20000000000000284,"durationTicks":480,"midi":61,"name":"C#4","ticks":61920,"time":24.908568,"velocity":0.7874015748031497},{"duration":0.3999999999999986,"durationTicks":960,"midi":61,"name":"C#4","ticks":62400,"time":25.108568,"velocity":0.7874015748031497},{"duration":0.1999999999999993,"durationTicks":480,"midi":61,"name":"C#4","ticks":63360,"time":25.508568,"velocity":0.7874015748031497},{"duration":0.20000000000000284,"durationTicks":480,"midi":61,"name":"C#4","ticks":64320,"time":25.908568,"velocity":0.7874015748031497},{"duration":0.1999999999999993,"durationTicks":480,"midi":62,"name":"D4","ticks":65280,"time":26.308568,"velocity":0.7874015748031497},{"duration":0.1999999999999993,"durationTicks":480,"midi":62,"name":"D4","ticks":66240,"time":26.708568,"velocity":0.7874015748031497},{"duration":0.1999999999999993,"durationTicks":480,"midi":62,"name":"D4","ticks":67680,"time":27.308568,"velocity":0.7874015748031497},{"duration":0.40000000000000213,"durationTicks":960,"midi":62,"name":"D4","ticks":68640,"time":27.708568,"velocity":0.7874015748031497},{"duration":0.1999999999999993,"durationTicks":480,"midi":60,"name":"C4","ticks":69600,"time":28.108568,"velocity":0.7874015748031497},{"duration":0.3999999999999986,"durationTicks":960,"midi":60,"name":"C4","ticks":70080,"time":28.308568,"velocity":0.7874015748031497},{"duration":0.23333333333333428,"durationTicks":560,"midi":59,"name":"B3","ticks":71040,"time":28.708568,"velocity":0.7874015748031497},{"duration":0.3999999999999986,"durationTicks":960,"midi":59,"name":"B3","ticks":72000,"time":29.108568,"velocity":0.7874015748031497},{"duration":0.1999999999999993,"durationTicks":480,"midi":60,"name":"C4","ticks":72960,"time":29.508568,"velocity":0.7874015748031497},{"duration":0.20000000000000284,"durationTicks":480,"midi":60,"name":"C4","ticks":73920,"time":29.908568,"velocity":0.7874015748031497},{"duration":0.1999999999999993,"durationTicks":480,"midi":60,"name":"C4","ticks":75360,"time":30.508568,"velocity":0.7874015748031497},{"duration":0.40000000000000213,"durationTicks":960,"midi":60,"name":"C4","ticks":76320,"time":30.908568,"velocity":0.7874015748031497},{"duration":0.1999999999999993,"durationTicks":480,"midi":59,"name":"B3","ticks":77280,"time":31.308568,"velocity":0.7874015748031497},{"duration":0.3999999999999986,"durationTicks":960,"midi":59,"name":"B3","ticks":77760,"time":31.508568,"velocity":0.7874015748031497},{"duration":0.23333333333333783,"durationTicks":560,"midi":64,"name":"E4","ticks":78720,"time":31.908568,"velocity":0.7874015748031497},{"duration":0.3999999999999986,"durationTicks":960,"midi":64,"name":"E4","ticks":79680,"time":32.308568,"velocity":0.7874015748031497},{"duration":0.20000000000000284,"durationTicks":480,"midi":61,"name":"C#4","ticks":80640,"time":32.708568,"velocity":0.7874015748031497},{"duration":0.19999999999999574,"durationTicks":480,"midi":61,"name":"C#4","ticks":81600,"time":33.108568000000005,"velocity":0.7874015748031497},{"duration":0.14999999999999858,"durationTicks":360,"midi":63,"name":"D#4","ticks":82560,"time":33.508568000000004,"velocity":0.7874015748031497},{"duration":0.25,"durationTicks":600,"midi":63,"name":"D#4","ticks":83040,"time":33.708568,"velocity":0.7874015748031497},{"duration":0.3499999999999943,"durationTicks":840,"midi":64,"name":"E4","ticks":84000,"time":34.108568000000005,"velocity":0.7874015748031497},{"duration":0.14999999999999858,"durationTicks":360,"midi":64,"name":"E4","ticks":84960,"time":34.508568000000004,"velocity":0.7874015748031497},{"duration":0.3500000000000014,"durationTicks":840,"midi":64,"name":"E4","ticks":85440,"time":34.708568,"velocity":0.7874015748031497},{"duration":0.11666666666666714,"durationTicks":280,"midi":73,"name":"C#5","ticks":86400,"time":35.108568000000005,"velocity":0.7401574803149606},{"duration":0.11666666666666714,"durationTicks":280,"midi":76,"name":"E5","ticks":86400,"time":35.108568000000005,"velocity":0.7401574803149606},{"duration":0.11666666666667425,"durationTicks":280,"midi":76,"name":"E5","ticks":86720,"time":35.24190133333333,"velocity":0.6141732283464567},{"duration":0.11666666666667425,"durationTicks":280,"midi":73,"name":"C#5","ticks":86720,"time":35.24190133333333,"velocity":0.6141732283464567},{"duration":0.11666666666666003,"durationTicks":280,"midi":76,"name":"E5","ticks":87040,"time":35.37523466666667,"velocity":0.49606299212598426},{"duration":0.11666666666666003,"durationTicks":280,"midi":73,"name":"C#5","ticks":87040,"time":35.37523466666667,"velocity":0.49606299212598426},{"duration":0.11666666666666714,"durationTicks":280,"midi":75,"name":"D#5","ticks":87360,"time":35.508568000000004,"velocity":0.7559055118110236},{"duration":0.11666666666666714,"durationTicks":280,"midi":78,"name":"F#5","ticks":87360,"time":35.508568000000004,"velocity":0.7559055118110236},{"duration":0.11666666666666714,"durationTicks":280,"midi":78,"name":"F#5","ticks":87680,"time":35.64190133333334,"velocity":0.6299212598425197},{"duration":0.11666666666666714,"durationTicks":280,"midi":75,"name":"D#5","ticks":87680,"time":35.64190133333334,"velocity":0.6299212598425197},{"duration":0.11666666666666714,"durationTicks":280,"midi":78,"name":"F#5","ticks":88000,"time":35.77523466666667,"velocity":0.49606299212598426},{"duration":0.11666666666666714,"durationTicks":280,"midi":75,"name":"D#5","ticks":88000,"time":35.77523466666667,"velocity":0.49606299212598426},{"duration":0.07500000000000284,"durationTicks":180,"midi":76,"name":"E5","ticks":101280,"time":41.308568,"velocity":0.5275590551181102},{"duration":0.07500000000000284,"durationTicks":180,"midi":73,"name":"C#5","ticks":101280,"time":41.308568,"velocity":0.5275590551181102},{"duration":0.07500000000000284,"durationTicks":180,"midi":78,"name":"F#5","ticks":101520,"time":41.408568,"velocity":0.5275590551181102},{"duration":0.07500000000000284,"durationTicks":180,"midi":75,"name":"D#5","ticks":101520,"time":41.408568,"velocity":0.5275590551181102},{"duration":0.10000000000000142,"durationTicks":240,"midi":80,"name":"G#5","ticks":101760,"time":41.508568000000004,"velocity":0.5275590551181102},{"duration":0.10000000000000142,"durationTicks":240,"midi":76,"name":"E5","ticks":101760,"time":41.508568000000004,"velocity":0.5275590551181102},{"duration":0.125,"durationTicks":300,"midi":76,"name":"E5","ticks":102240,"time":41.70856800000001,"velocity":0.5275590551181102},{"duration":0.125,"durationTicks":300,"midi":71,"name":"B4","ticks":102240,"time":41.70856800000001,"velocity":0.5275590551181102},{"duration":0.07500000000000284,"durationTicks":180,"midi":83,"name":"B5","ticks":102720,"time":41.908568,"velocity":0.5275590551181102},{"duration":0.07500000000000284,"durationTicks":180,"midi":80,"name":"G#5","ticks":102720,"time":41.908568,"velocity":0.5275590551181102},{"duration":0.14999999999999858,"durationTicks":360,"midi":76,"name":"E5","ticks":103200,"time":42.108568000000005,"velocity":0.5275590551181102},{"duration":0.14999999999999858,"durationTicks":360,"midi":80,"name":"G#5","ticks":103200,"time":42.108568000000005,"velocity":0.5275590551181102},{"duration":0.20000000000000284,"durationTicks":480,"midi":62,"name":"D4","ticks":211200,"time":87.108568,"velocity":0.7874015748031497},{"duration":0.20000000000000284,"durationTicks":480,"midi":62,"name":"D4","ticks":212160,"time":87.50856800000001,"velocity":0.7874015748031497},{"duration":0.20000000000000284,"durationTicks":480,"midi":62,"name":"D4","ticks":213600,"time":88.108568,"velocity":0.7874015748031497},{"duration":0.3999999999999915,"durationTicks":960,"midi":62,"name":"D4","ticks":214560,"time":88.50856800000001,"velocity":0.7874015748031497},{"duration":0.20000000000000284,"durationTicks":480,"midi":61,"name":"C#4","ticks":215520,"time":88.908568,"velocity":0.7874015748031497},{"duration":0.4000000000000057,"durationTicks":960,"midi":61,"name":"C#4","ticks":216000,"time":89.108568,"velocity":0.7874015748031497},{"duration":0.20000000000000284,"durationTicks":480,"midi":61,"name":"C#4","ticks":216960,"time":89.50856800000001,"velocity":0.7874015748031497},{"duration":0.20000000000000284,"durationTicks":480,"midi":61,"name":"C#4","ticks":217920,"time":89.908568,"velocity":0.7874015748031497},{"duration":0.20000000000000284,"durationTicks":480,"midi":62,"name":"D4","ticks":218880,"time":90.30856800000001,"velocity":0.7874015748031497},{"duration":0.19999999999998863,"durationTicks":480,"midi":62,"name":"D4","ticks":219840,"time":90.70856800000001,"velocity":0.7874015748031497},{"duration":0.20000000000000284,"durationTicks":480,"midi":62,"name":"D4","ticks":221280,"time":91.30856800000001,"velocity":0.7874015748031497},{"duration":0.3999999999999915,"durationTicks":960,"midi":62,"name":"D4","ticks":222240,"time":91.70856800000001,"velocity":0.7874015748031497},{"duration":0.20000000000000284,"durationTicks":480,"midi":60,"name":"C4","ticks":223200,"time":92.108568,"velocity":0.7874015748031497},{"duration":0.4000000000000057,"durationTicks":960,"midi":60,"name":"C4","ticks":223680,"time":92.30856800000001,"velocity":0.7874015748031497},{"duration":0.19999999999998863,"durationTicks":480,"midi":83,"name":"B5","ticks":224640,"time":92.70856800000001,"velocity":0.7874015748031497},{"duration":0.19999999999998863,"durationTicks":480,"midi":86,"name":"D6","ticks":224640,"time":92.70856800000001,"velocity":0.7874015748031497},{"duration":0.29999999999999716,"durationTicks":720,"midi":83,"name":"B5","ticks":225600,"time":93.108568,"velocity":0.7874015748031497},{"duration":0.29999999999999716,"durationTicks":720,"midi":86,"name":"D6","ticks":225600,"time":93.108568,"velocity":0.7874015748031497},{"duration":0.20000000000000284,"durationTicks":480,"midi":62,"name":"D4","ticks":226560,"time":93.50856800000001,"velocity":0.7874015748031497},{"duration":0.20000000000000284,"durationTicks":480,"midi":62,"name":"D4","ticks":227520,"time":93.908568,"velocity":0.7874015748031497},{"duration":0.20000000000000284,"durationTicks":480,"midi":62,"name":"D4","ticks":228960,"time":94.50856800000001,"velocity":0.7874015748031497},{"duration":0.4000000000000057,"durationTicks":960,"midi":62,"name":"D4","ticks":229920,"time":94.908568,"velocity":0.7874015748031497},{"duration":0.20000000000000284,"durationTicks":480,"midi":61,"name":"C#4","ticks":230880,"time":95.30856800000001,"velocity":0.7874015748031497},{"duration":0.3999999999999915,"durationTicks":960,"midi":61,"name":"C#4","ticks":231360,"time":95.50856800000001,"velocity":0.7874015748031497},{"duration":0.20000000000000284,"durationTicks":480,"midi":61,"name":"C#4","ticks":232320,"time":95.908568,"velocity":0.7874015748031497},{"duration":0.20000000000000284,"durationTicks":480,"midi":61,"name":"C#4","ticks":233280,"time":96.30856800000001,"velocity":0.7874015748031497},{"duration":0.19999999999998863,"durationTicks":480,"midi":62,"name":"D4","ticks":234240,"time":96.70856800000001,"velocity":0.7874015748031497},{"duration":0.20000000000000284,"durationTicks":480,"midi":62,"name":"D4","ticks":235200,"time":97.108568,"velocity":0.7874015748031497},{"duration":0.19999999999998863,"durationTicks":480,"midi":62,"name":"D4","ticks":236640,"time":97.70856800000001,"velocity":0.7874015748031497},{"duration":0.4000000000000057,"durationTicks":960,"midi":62,"name":"D4","ticks":237600,"time":98.108568,"velocity":0.7874015748031497},{"duration":0.20000000000000284,"durationTicks":480,"midi":60,"name":"C4","ticks":238560,"time":98.50856800000001,"velocity":0.7874015748031497},{"duration":0.3999999999999915,"durationTicks":960,"midi":60,"name":"C4","ticks":239040,"time":98.70856800000001,"velocity":0.7874015748031497},{"duration":0.23333333333333428,"durationTicks":560,"midi":59,"name":"B3","ticks":240000,"time":99.108568,"velocity":0.7874015748031497},{"duration":0.3999999999999915,"durationTicks":960,"midi":59,"name":"B3","ticks":240960,"time":99.50856800000001,"velocity":0.7874015748031497},{"duration":0.20000000000000284,"durationTicks":480,"midi":60,"name":"C4","ticks":241920,"time":99.908568,"velocity":0.7874015748031497},{"duration":0.20000000000000284,"durationTicks":480,"midi":60,"name":"C4","ticks":242880,"time":100.30856800000001,"velocity":0.7874015748031497},{"duration":0.20000000000000284,"durationTicks":480,"midi":60,"name":"C4","ticks":244320,"time":100.908568,"velocity":0.7874015748031497},{"duration":0.4000000000000057,"durationTicks":960,"midi":60,"name":"C4","ticks":245280,"time":101.30856800000001,"velocity":0.7874015748031497},{"duration":0.19999999999998863,"durationTicks":480,"midi":59,"name":"B3","ticks":246240,"time":101.70856800000001,"velocity":0.7874015748031497},{"duration":0.4000000000000057,"durationTicks":960,"midi":59,"name":"B3","ticks":246720,"time":101.908568,"velocity":0.7874015748031497},{"duration":0.23333333333333428,"durationTicks":560,"midi":64,"name":"E4","ticks":247680,"time":102.30856800000001,"velocity":0.7874015748031497},{"duration":0.3999999999999915,"durationTicks":960,"midi":64,"name":"E4","ticks":248640,"time":102.70856800000001,"velocity":0.7874015748031497},{"duration":0.20000000000000284,"durationTicks":480,"midi":60,"name":"C4","ticks":249600,"time":103.108568,"velocity":0.7874015748031497},{"duration":0.20000000000000284,"durationTicks":480,"midi":60,"name":"C4","ticks":250560,"time":103.50856800000001,"velocity":0.7874015748031497},{"duration":0.15000000000000568,"durationTicks":360,"midi":62,"name":"D4","ticks":251520,"time":103.908568,"velocity":0.7874015748031497},{"duration":0.25,"durationTicks":600,"midi":62,"name":"D4","ticks":252000,"time":104.108568,"velocity":0.7874015748031497},{"duration":0.3499999999999943,"durationTicks":840,"midi":64,"name":"E4","ticks":252960,"time":104.50856800000001,"velocity":0.7874015748031497},{"duration":0.15000000000000568,"durationTicks":360,"midi":64,"name":"E4","ticks":253920,"time":104.908568,"velocity":0.7874015748031497},{"duration":0.3500000000000085,"durationTicks":840,"midi":64,"name":"E4","ticks":254400,"time":105.108568,"velocity":0.7874015748031497},{"duration":0.20000000000000284,"durationTicks":480,"midi":83,"name":"B5","ticks":255360,"time":105.50856800000001,"velocity":0.7874015748031497},{"duration":0.20000000000000284,"durationTicks":480,"midi":86,"name":"D6","ticks":255360,"time":105.50856800000001,"velocity":0.7874015748031497},{"duration":0.30000000000001137,"durationTicks":720,"midi":83,"name":"B5","ticks":256320,"time":105.908568,"velocity":0.7874015748031497},{"duration":0.30000000000001137,"durationTicks":720,"midi":86,"name":"D6","ticks":256320,"time":105.908568,"velocity":0.7874015748031497},{"duration":0.20000000000000284,"durationTicks":480,"midi":62,"name":"D4","ticks":257280,"time":106.30856800000001,"velocity":0.7874015748031497},{"duration":0.19999999999998863,"durationTicks":480,"midi":62,"name":"D4","ticks":258240,"time":106.70856800000001,"velocity":0.7874015748031497},{"duration":0.20000000000000284,"durationTicks":480,"midi":62,"name":"D4","ticks":259680,"time":107.30856800000001,"velocity":0.7874015748031497},{"duration":0.3999999999999915,"durationTicks":960,"midi":62,"name":"D4","ticks":260640,"time":107.70856800000001,"velocity":0.7874015748031497},{"duration":0.20000000000000284,"durationTicks":480,"midi":61,"name":"C#4","ticks":261600,"time":108.108568,"velocity":0.7874015748031497},{"duration":0.4000000000000057,"durationTicks":960,"midi":61,"name":"C#4","ticks":262080,"time":108.30856800000001,"velocity":0.7874015748031497},{"duration":0.19999999999998863,"durationTicks":480,"midi":61,"name":"C#4","ticks":263040,"time":108.70856800000001,"velocity":0.7874015748031497},{"duration":0.20000000000000284,"durationTicks":480,"midi":61,"name":"C#4","ticks":264000,"time":109.108568,"velocity":0.7874015748031497},{"duration":0.20000000000000284,"durationTicks":480,"midi":62,"name":"D4","ticks":264960,"time":109.50856800000001,"velocity":0.7874015748031497},{"duration":0.20000000000000284,"durationTicks":480,"midi":62,"name":"D4","ticks":265920,"time":109.908568,"velocity":0.7874015748031497},{"duration":0.20000000000000284,"durationTicks":480,"midi":62,"name":"D4","ticks":267360,"time":110.50856800000001,"velocity":0.7874015748031497},{"duration":0.4000000000000057,"durationTicks":960,"midi":62,"name":"D4","ticks":268320,"time":110.908568,"velocity":0.7874015748031497},{"duration":0.20000000000000284,"durationTicks":480,"midi":60,"name":"C4","ticks":269280,"time":111.30856800000001,"velocity":0.7874015748031497},{"duration":0.3999999999999915,"durationTicks":960,"midi":60,"name":"C4","ticks":269760,"time":111.50856800000001,"velocity":0.7874015748031497},{"duration":0.23333333333333428,"durationTicks":560,"midi":59,"name":"B3","ticks":270720,"time":111.908568,"velocity":0.7874015748031497},{"duration":0.4000000000000057,"durationTicks":960,"midi":59,"name":"B3","ticks":271680,"time":112.30856800000001,"velocity":0.7874015748031497},{"duration":0.19999999999998863,"durationTicks":480,"midi":60,"name":"C4","ticks":272640,"time":112.70856800000001,"velocity":0.7874015748031497},{"duration":0.20000000000000284,"durationTicks":480,"midi":60,"name":"C4","ticks":273600,"time":113.108568,"velocity":0.7874015748031497},{"duration":0.19999999999998863,"durationTicks":480,"midi":60,"name":"C4","ticks":275040,"time":113.70856800000001,"velocity":0.7874015748031497},{"duration":0.4000000000000057,"durationTicks":960,"midi":60,"name":"C4","ticks":276000,"time":114.108568,"velocity":0.7874015748031497},{"duration":0.20000000000000284,"durationTicks":480,"midi":59,"name":"B3","ticks":276960,"time":114.50856800000001,"velocity":0.7874015748031497},{"duration":0.3999999999999915,"durationTicks":960,"midi":59,"name":"B3","ticks":277440,"time":114.70856800000001,"velocity":0.7874015748031497},{"duration":0.23333333333333428,"durationTicks":560,"midi":64,"name":"E4","ticks":278400,"time":115.108568,"velocity":0.7874015748031497},{"duration":0.3999999999999915,"durationTicks":960,"midi":64,"name":"E4","ticks":279360,"time":115.50856800000001,"velocity":0.7874015748031497},{"duration":0.20000000000000284,"durationTicks":480,"midi":61,"name":"C#4","ticks":280320,"time":115.908568,"velocity":0.7874015748031497},{"duration":0.20000000000000284,"durationTicks":480,"midi":61,"name":"C#4","ticks":281280,"time":116.30856800000001,"velocity":0.7874015748031497},{"duration":0.14999999999999147,"durationTicks":360,"midi":63,"name":"D#4","ticks":282240,"time":116.70856800000001,"velocity":0.7874015748031497},{"duration":0.25,"durationTicks":600,"midi":63,"name":"D#4","ticks":282720,"time":116.908568,"velocity":0.7874015748031497},{"duration":0.3499999999999943,"durationTicks":840,"midi":64,"name":"E4","ticks":283680,"time":117.30856800000001,"velocity":0.7874015748031497},{"duration":0.14999999999999147,"durationTicks":360,"midi":64,"name":"E4","ticks":284640,"time":117.70856800000001,"velocity":0.7874015748031497},{"duration":0.3500000000000085,"durationTicks":840,"midi":64,"name":"E4","ticks":285120,"time":117.908568,"velocity":0.7874015748031497},{"duration":0.11666666666667425,"durationTicks":280,"midi":73,"name":"C#5","ticks":286080,"time":118.30856800000001,"velocity":0.7401574803149606},{"duration":0.11666666666667425,"durationTicks":280,"midi":76,"name":"E5","ticks":286080,"time":118.30856800000001,"velocity":0.7401574803149606},{"duration":0.11666666666667425,"durationTicks":280,"midi":76,"name":"E5","ticks":286400,"time":118.44190133333333,"velocity":0.6141732283464567},{"duration":0.11666666666667425,"durationTicks":280,"midi":73,"name":"C#5","ticks":286400,"time":118.44190133333333,"velocity":0.6141732283464567},{"duration":0.11666666666664582,"durationTicks":280,"midi":76,"name":"E5","ticks":286720,"time":118.57523466666669,"velocity":0.49606299212598426},{"duration":0.11666666666664582,"durationTicks":280,"midi":73,"name":"C#5","ticks":286720,"time":118.57523466666669,"velocity":0.49606299212598426},{"duration":0.11666666666667425,"durationTicks":280,"midi":75,"name":"D#5","ticks":287040,"time":118.70856800000001,"velocity":0.7559055118110236},{"duration":0.11666666666667425,"durationTicks":280,"midi":78,"name":"F#5","ticks":287040,"time":118.70856800000001,"velocity":0.7559055118110236},{"duration":0.11666666666667425,"durationTicks":280,"midi":78,"name":"F#5","ticks":287360,"time":118.84190133333334,"velocity":0.6299212598425197},{"duration":0.11666666666667425,"durationTicks":280,"midi":75,"name":"D#5","ticks":287360,"time":118.84190133333334,"velocity":0.6299212598425197},{"duration":0.11666666666666003,"durationTicks":280,"midi":78,"name":"F#5","ticks":287680,"time":118.97523466666668,"velocity":0.49606299212598426},{"duration":0.11666666666666003,"durationTicks":280,"midi":75,"name":"D#5","ticks":287680,"time":118.97523466666668,"velocity":0.49606299212598426},{"duration":0.07500000000000284,"durationTicks":180,"midi":76,"name":"E5","ticks":300960,"time":124.50856800000001,"velocity":0.5275590551181102},{"duration":0.07500000000000284,"durationTicks":180,"midi":73,"name":"C#5","ticks":300960,"time":124.50856800000001,"velocity":0.5275590551181102},{"duration":0.07500000000000284,"durationTicks":180,"midi":78,"name":"F#5","ticks":301200,"time":124.608568,"velocity":0.5275590551181102},{"duration":0.07500000000000284,"durationTicks":180,"midi":75,"name":"D#5","ticks":301200,"time":124.608568,"velocity":0.5275590551181102},{"duration":0.09999999999999432,"durationTicks":240,"midi":80,"name":"G#5","ticks":301440,"time":124.70856800000001,"velocity":0.5275590551181102},{"duration":0.09999999999999432,"durationTicks":240,"midi":76,"name":"E5","ticks":301440,"time":124.70856800000001,"velocity":0.5275590551181102},{"duration":0.125,"durationTicks":300,"midi":76,"name":"E5","ticks":301920,"time":124.908568,"velocity":0.5275590551181102},{"duration":0.125,"durationTicks":300,"midi":71,"name":"B4","ticks":301920,"time":124.908568,"velocity":0.5275590551181102},{"duration":0.07500000000000284,"durationTicks":180,"midi":83,"name":"B5","ticks":302400,"time":125.108568,"velocity":0.5275590551181102},{"duration":0.07500000000000284,"durationTicks":180,"midi":80,"name":"G#5","ticks":302400,"time":125.108568,"velocity":0.5275590551181102},{"duration":0.15000000000000568,"durationTicks":360,"midi":76,"name":"E5","ticks":302880,"time":125.30856800000001,"velocity":0.5275590551181102},{"duration":0.15000000000000568,"durationTicks":360,"midi":80,"name":"G#5","ticks":302880,"time":125.30856800000001,"velocity":0.5275590551181102},{"duration":0.20000000000001705,"durationTicks":480,"midi":62,"name":"D4","ticks":410880,"time":170.308568,"velocity":0.7874015748031497},{"duration":0.19999999999998863,"durationTicks":480,"midi":62,"name":"D4","ticks":411840,"time":170.708568,"velocity":0.7401574803149606},{"duration":0.20000000000001705,"durationTicks":480,"midi":62,"name":"D4","ticks":413280,"time":171.308568,"velocity":0.6692913385826772},{"duration":0.4000000000000057,"durationTicks":960,"midi":62,"name":"D4","ticks":414240,"time":171.708568,"velocity":0.6220472440944882},{"duration":0.19999999999998863,"durationTicks":480,"midi":61,"name":"C#4","ticks":415200,"time":172.10856800000002,"velocity":0.5669291338582677},{"duration":0.4000000000000057,"durationTicks":960,"midi":61,"name":"C#4","ticks":415680,"time":172.308568,"velocity":0.5433070866141733},{"duration":0.19999999999998863,"durationTicks":480,"midi":61,"name":"C#4","ticks":416640,"time":172.708568,"velocity":0.49606299212598426},{"duration":0.19999999999998863,"durationTicks":480,"midi":61,"name":"C#4","ticks":417600,"time":173.10856800000002,"velocity":0.44881889763779526},{"duration":0.19999999999998863,"durationTicks":480,"midi":62,"name":"D4","ticks":418560,"time":173.50856800000003,"velocity":0.3937007874015748},{"duration":0.20000000000001705,"durationTicks":480,"midi":62,"name":"D4","ticks":419520,"time":173.908568,"velocity":0.3464566929133858},{"duration":0.19999999999998863,"durationTicks":480,"midi":62,"name":"D4","ticks":420960,"time":174.50856800000003,"velocity":0.2755905511811024},{"duration":0.4000000000000057,"durationTicks":960,"midi":62,"name":"D4","ticks":421920,"time":174.908568,"velocity":0.2283464566929134},{"duration":0.20000000000001705,"durationTicks":480,"midi":60,"name":"C4","ticks":422880,"time":175.308568,"velocity":0.1732283464566929},{"duration":0.39999999999997726,"durationTicks":960,"midi":60,"name":"C4","ticks":423360,"time":175.50856800000003,"velocity":0.14960629921259844},{"duration":0.20000000000001705,"durationTicks":480,"midi":83,"name":"B5","ticks":424320,"time":175.908568,"velocity":0.10236220472440945},{"duration":0.20000000000001705,"durationTicks":480,"midi":86,"name":"D6","ticks":424320,"time":175.908568,"velocity":0.10236220472440945},{"duration":0.30000000000001137,"durationTicks":720,"midi":83,"name":"B5","ticks":425280,"time":176.308568,"velocity":0.05511811023622047},{"duration":0.30000000000001137,"durationTicks":720,"midi":86,"name":"D6","ticks":425280,"time":176.308568,"velocity":0.05511811023622047}]},{"channel":3,"controlChanges":{"1":[{"number":1,"ticks":3840,"time":0.48,"value":0},{"number":1,"ticks":7680,"time":2.194284,"value":0},{"number":1,"ticks":7755,"time":2.227766109375,"value":0.007874015748031496},{"number":1,"ticks":7785,"time":2.241158953125,"value":0.015748031496062992},{"number":1,"ticks":7815,"time":2.254551796875,"value":0.023622047244094488},{"number":1,"ticks":7845,"time":2.267944640625,"value":0.031496062992125984},{"number":1,"ticks":7860,"time":2.2746410625,"value":0.03937007874015748},{"number":1,"ticks":7875,"time":2.2813374843750003,"value":0.047244094488188976},{"number":1,"ticks":7905,"time":2.2947303281250004,"value":0.05511811023622047},{"number":1,"ticks":7920,"time":2.30142675,"value":0.06299212598425197},{"number":1,"ticks":7965,"time":2.321516015625,"value":0.07086614173228346},{"number":1,"ticks":7995,"time":2.334908859375,"value":0.08661417322834646},{"number":1,"ticks":8010,"time":2.34160528125,"value":0.09448818897637795},{"number":1,"ticks":8040,"time":2.354998125,"value":0.10236220472440945},{"number":1,"ticks":8055,"time":2.3616945468750004,"value":0.11023622047244094},{"number":1,"ticks":8085,"time":2.375087390625,"value":0.11811023622047244},{"number":1,"ticks":8100,"time":2.3817838125,"value":0.12598425196850394},{"number":1,"ticks":8115,"time":2.3884802343750002,"value":0.13385826771653545},{"number":1,"ticks":8130,"time":2.3951766562500003,"value":0.14173228346456693},{"number":1,"ticks":8145,"time":2.401873078125,"value":0.14960629921259844},{"number":1,"ticks":8175,"time":2.415265921875,"value":0.15748031496062992},{"number":1,"ticks":8205,"time":2.4286587656250003,"value":0.16535433070866143},{"number":1,"ticks":8220,"time":2.4353551875,"value":0.1732283464566929},{"number":1,"ticks":8235,"time":2.4420516093750004,"value":0.18110236220472442},{"number":1,"ticks":8250,"time":2.44874803125,"value":0.1889763779527559},{"number":1,"ticks":8280,"time":2.4621408750000002,"value":0.1968503937007874},{"number":1,"ticks":8295,"time":2.468837296875,"value":0.2125984251968504},{"number":1,"ticks":8325,"time":2.482230140625,"value":0.2204724409448819},{"number":1,"ticks":8340,"time":2.4889265625,"value":0.2283464566929134},{"number":1,"ticks":8370,"time":2.5023194062500003,"value":0.23622047244094488},{"number":1,"ticks":8385,"time":2.5090158281250003,"value":0.25196850393700787},{"number":1,"ticks":8415,"time":2.522408671875,"value":0.25984251968503935},{"number":1,"ticks":8430,"time":2.52910509375,"value":0.2677165354330709},{"number":1,"ticks":8445,"time":2.5358015156250002,"value":0.2755905511811024},{"number":1,"ticks":8475,"time":2.549194359375,"value":0.28346456692913385},{"number":1,"ticks":8505,"time":2.562587203125,"value":0.2992125984251969},{"number":1,"ticks":8520,"time":2.569283625,"value":0.31496062992125984},{"number":1,"ticks":8550,"time":2.5826764687500003,"value":0.3228346456692913},{"number":1,"ticks":8565,"time":2.589372890625,"value":0.33070866141732286},{"number":1,"ticks":8580,"time":2.5960693125,"value":0.33858267716535434},{"number":1,"ticks":8595,"time":2.602765734375,"value":0.3464566929133858},{"number":1,"ticks":8625,"time":2.6161585781250003,"value":0.36220472440944884},{"number":1,"ticks":8670,"time":2.63624784375,"value":0.3700787401574803},{"number":1,"ticks":8700,"time":2.6496406875000003,"value":0.3937007874015748},{"number":1,"ticks":8730,"time":2.66303353125,"value":0.4015748031496063},{"number":1,"ticks":8760,"time":2.676426375,"value":0.41732283464566927},{"number":1,"ticks":8805,"time":2.6965156406250004,"value":0.4330708661417323},{"number":1,"ticks":8835,"time":2.709908484375,"value":0.4566929133858268},{"number":1,"ticks":8850,"time":2.71660490625,"value":0.4645669291338583},{"number":1,"ticks":8865,"time":2.7233013281250003,"value":0.48031496062992124},{"number":1,"ticks":8895,"time":2.736694171875,"value":0.4881889763779528},{"number":1,"ticks":8940,"time":2.7567834375,"value":0.5039370078740157},{"number":1,"ticks":8970,"time":2.7701762812500004,"value":0.5275590551181102},{"number":1,"ticks":8985,"time":2.776872703125,"value":0.5433070866141733},{"number":1,"ticks":9015,"time":2.790265546875,"value":0.5511811023622047},{"number":1,"ticks":9030,"time":2.7969619687500002,"value":0.5669291338582677},{"number":1,"ticks":9045,"time":2.8036583906250003,"value":0.5748031496062992},{"number":1,"ticks":9075,"time":2.817051234375,"value":0.5905511811023622},{"number":1,"ticks":9090,"time":2.82374765625,"value":0.5984251968503937},{"number":1,"ticks":9135,"time":2.8438369218750004,"value":0.6141732283464567},{"number":1,"ticks":9165,"time":2.857229765625,"value":0.6377952755905512},{"number":1,"ticks":9195,"time":2.8706226093750002,"value":0.6535433070866141},{"number":1,"ticks":9225,"time":2.884015453125,"value":0.6614173228346457},{"number":1,"ticks":9270,"time":2.90410471875,"value":0.6771653543307087},{"number":1,"ticks":9315,"time":2.924193984375,"value":0.7007874015748031},{"number":1,"ticks":9360,"time":2.9442832500000002,"value":0.7165354330708661},{"number":1,"ticks":9390,"time":2.9576760937500004,"value":0.7322834645669292},{"number":1,"ticks":9405,"time":2.964372515625,"value":0.7559055118110236},{"number":1,"ticks":9435,"time":2.977765359375,"value":0.7637795275590551},{"number":1,"ticks":9450,"time":2.9844617812500003,"value":0.7716535433070866},{"number":1,"ticks":9465,"time":2.9911582031250004,"value":0.7795275590551181},{"number":1,"ticks":9480,"time":2.997854625,"value":0.7874015748031497},{"number":1,"ticks":9495,"time":3.004551046875,"value":0.7952755905511811},{"number":1,"ticks":9525,"time":3.0179438906250002,"value":0.8031496062992126},{"number":1,"ticks":9540,"time":3.0246403125000003,"value":0.8188976377952756},{"number":1,"ticks":9585,"time":3.044729578125,"value":0.8267716535433071},{"number":1,"ticks":9600,"time":3.051426,"value":0.8346456692913385},{"number":1,"ticks":9630,"time":3.0648188437500004,"value":0.84251968503937},{"number":1,"ticks":9660,"time":3.0782116875,"value":0.8582677165354331},{"number":1,"ticks":9690,"time":3.0916045312500002,"value":0.8661417322834646},{"number":1,"ticks":9705,"time":3.0983009531250003,"value":0.889763779527559},{"number":1,"ticks":9750,"time":3.11839021875,"value":0.8976377952755905},{"number":1,"ticks":9780,"time":3.1317830625000003,"value":0.905511811023622},{"number":1,"ticks":9795,"time":3.1384794843750004,"value":0.9133858267716536},{"number":1,"ticks":9825,"time":3.151872328125,"value":0.9291338582677166},{"number":1,"ticks":9855,"time":3.1652651718750002,"value":0.937007874015748},{"number":1,"ticks":9870,"time":3.1719615937500003,"value":0.9448818897637795},{"number":1,"ticks":9900,"time":3.1853544375,"value":0.9606299212598425},{"number":1,"ticks":9915,"time":3.192050859375,"value":0.968503937007874},{"number":1,"ticks":9960,"time":3.2121401250000003,"value":0.9763779527559056},{"number":1,"ticks":9975,"time":3.2188365468750004,"value":0.984251968503937},{"number":1,"ticks":10020,"time":3.2389258125000002,"value":0.9921259842519685},{"number":1,"ticks":10035,"time":3.2456222343750003,"value":1},{"number":1,"ticks":11520,"time":3.9085680000000003,"value":0},{"number":1,"ticks":19200,"time":7.108568,"value":0},{"number":1,"ticks":26880,"time":10.308568000000001,"value":0},{"number":1,"ticks":210720,"time":86.908568,"value":0.8346456692913385},{"number":1,"ticks":210750,"time":86.921068,"value":0.84251968503937},{"number":1,"ticks":210780,"time":86.93356800000001,"value":0.8582677165354331},{"number":1,"ticks":210810,"time":86.94606800000001,"value":0.8661417322834646},{"number":1,"ticks":210825,"time":86.952318,"value":0.889763779527559},{"number":1,"ticks":210870,"time":86.971068,"value":0.8976377952755905},{"number":1,"ticks":210900,"time":86.983568,"value":0.905511811023622},{"number":1,"ticks":210915,"time":86.98981800000001,"value":0.9133858267716536},{"number":1,"ticks":210945,"time":87.002318,"value":0.9291338582677166},{"number":1,"ticks":210975,"time":87.014818,"value":0.937007874015748},{"number":1,"ticks":210990,"time":87.02106800000001,"value":0.9448818897637795},{"number":1,"ticks":211020,"time":87.033568,"value":0.9606299212598425},{"number":1,"ticks":211035,"time":87.03981800000001,"value":0.968503937007874},{"number":1,"ticks":211080,"time":87.05856800000001,"value":0.9763779527559056},{"number":1,"ticks":211095,"time":87.064818,"value":0.984251968503937},{"number":1,"ticks":211140,"time":87.08356800000001,"value":0.9921259842519685},{"number":1,"ticks":211155,"time":87.08981800000001,"value":1},{"number":1,"ticks":211200,"time":87.108568,"value":0},{"number":1,"ticks":218880,"time":90.30856800000001,"value":0},{"number":1,"ticks":226560,"time":93.50856800000001,"value":0},{"number":1,"ticks":410400,"time":170.10856800000002,"value":0.8346456692913385},{"number":1,"ticks":410430,"time":170.121068,"value":0.84251968503937},{"number":1,"ticks":410460,"time":170.13356800000003,"value":0.8582677165354331},{"number":1,"ticks":410490,"time":170.146068,"value":0.8661417322834646},{"number":1,"ticks":410505,"time":170.152318,"value":0.889763779527559},{"number":1,"ticks":410550,"time":170.17106800000002,"value":0.8976377952755905},{"number":1,"ticks":410580,"time":170.183568,"value":0.905511811023622},{"number":1,"ticks":410595,"time":170.189818,"value":0.9133858267716536},{"number":1,"ticks":410625,"time":170.20231800000002,"value":0.9291338582677166},{"number":1,"ticks":410655,"time":170.214818,"value":0.937007874015748},{"number":1,"ticks":410670,"time":170.221068,"value":0.9448818897637795},{"number":1,"ticks":410700,"time":170.23356800000002,"value":0.9606299212598425},{"number":1,"ticks":410715,"time":170.239818,"value":0.968503937007874},{"number":1,"ticks":410760,"time":170.25856800000003,"value":0.9763779527559056},{"number":1,"ticks":410775,"time":170.26481800000002,"value":0.984251968503937},{"number":1,"ticks":410820,"time":170.283568,"value":0.9921259842519685},{"number":1,"ticks":410835,"time":170.28981800000003,"value":1},{"number":1,"ticks":410880,"time":170.308568,"value":0},{"number":1,"ticks":418560,"time":173.50856800000003,"value":0}],"7":[{"number":7,"ticks":1920,"time":0.24,"value":0.7874015748031497},{"number":7,"ticks":26880,"time":10.308568000000001,"value":0.6692913385826772},{"number":7,"ticks":149760,"time":61.508568000000004,"value":0.7322834645669292},{"number":7,"ticks":226560,"time":93.50856800000001,"value":0.6692913385826772},{"number":7,"ticks":349440,"time":144.708568,"value":0.7322834645669292}]},"pitchBends":[{"ticks":3840,"time":0.48,"value":-0.453125},{"ticks":3855,"time":0.486696421875,"value":-0.421875},{"ticks":3870,"time":0.49339284375,"value":-0.359375},{"ticks":3885,"time":0.500089265625,"value":-0.34375},{"ticks":3900,"time":0.5067856875,"value":-0.3125},{"ticks":3915,"time":0.5134821093749999,"value":-0.28125},{"ticks":3930,"time":0.52017853125,"value":-0.21875},{"ticks":3945,"time":0.526874953125,"value":-0.203125},{"ticks":3960,"time":0.533571375,"value":-0.15625},{"ticks":3975,"time":0.540267796875,"value":-0.140625},{"ticks":4005,"time":0.553660640625,"value":-0.125},{"ticks":4020,"time":0.5603570625,"value":-0.109375},{"ticks":4050,"time":0.57374990625,"value":-0.09375},{"ticks":4065,"time":0.580446328125,"value":-0.078125},{"ticks":4080,"time":0.5871427499999999,"value":-0.0625},{"ticks":4095,"time":0.593839171875,"value":-0.046875},{"ticks":4110,"time":0.60053559375,"value":-0.03125},{"ticks":4140,"time":0.6139284375,"value":-0.015625},{"ticks":4155,"time":0.620624859375,"value":0},{"ticks":4200,"time":0.640714125,"value":0},{"ticks":5760,"time":1.337142,"value":-0.390625},{"ticks":5775,"time":1.3438384218750001,"value":-0.34375},{"ticks":5790,"time":1.3505348437500002,"value":-0.328125},{"ticks":5805,"time":1.357231265625,"value":-0.296875},{"ticks":5820,"time":1.3639276875,"value":-0.28125},{"ticks":5835,"time":1.370624109375,"value":-0.265625},{"ticks":5850,"time":1.37732053125,"value":-0.25},{"ticks":5865,"time":1.3840169531250002,"value":-0.234375},{"ticks":5880,"time":1.390713375,"value":-0.21875},{"ticks":5895,"time":1.397409796875,"value":-0.203125},{"ticks":5910,"time":1.40410621875,"value":-0.1875},{"ticks":5925,"time":1.410802640625,"value":-0.171875},{"ticks":5940,"time":1.4174990625000001,"value":-0.15625},{"ticks":5955,"time":1.4241954843750002,"value":-0.140625},{"ticks":5970,"time":1.43089190625,"value":-0.125},{"ticks":5985,"time":1.437588328125,"value":-0.109375},{"ticks":6000,"time":1.44428475,"value":-0.09375},{"ticks":6030,"time":1.4576775937500002,"value":-0.078125},{"ticks":6060,"time":1.4710704375,"value":-0.0625},{"ticks":6075,"time":1.477766859375,"value":-0.046875},{"ticks":6090,"time":1.48446328125,"value":-0.03125},{"ticks":6120,"time":1.497856125,"value":-0.015625},{"ticks":6135,"time":1.504552546875,"value":0},{"ticks":7680,"time":2.194284,"value":-1},{"ticks":7710,"time":2.20767684375,"value":-0.984375},{"ticks":7755,"time":2.227766109375,"value":-0.96875},{"ticks":7770,"time":2.23446253125,"value":-0.953125},{"ticks":7800,"time":2.2478553750000003,"value":-0.9375},{"ticks":7815,"time":2.254551796875,"value":-0.921875},{"ticks":7830,"time":2.26124821875,"value":-0.90625},{"ticks":7845,"time":2.267944640625,"value":-0.890625},{"ticks":7860,"time":2.2746410625,"value":-0.875},{"ticks":7875,"time":2.2813374843750003,"value":-0.859375},{"ticks":7890,"time":2.28803390625,"value":-0.84375},{"ticks":7905,"time":2.2947303281250004,"value":-0.828125},{"ticks":7920,"time":2.30142675,"value":-0.8125},{"ticks":7935,"time":2.308123171875,"value":-0.796875},{"ticks":7950,"time":2.3148195937500002,"value":-0.765625},{"ticks":7980,"time":2.3282124375000004,"value":-0.75},{"ticks":8010,"time":2.34160528125,"value":-0.734375},{"ticks":8025,"time":2.348301703125,"value":-0.71875},{"ticks":8040,"time":2.354998125,"value":-0.703125},{"ticks":8055,"time":2.3616945468750004,"value":-0.6875},{"ticks":8085,"time":2.375087390625,"value":-0.671875},{"ticks":8100,"time":2.3817838125,"value":-0.65625},{"ticks":8130,"time":2.3951766562500003,"value":-0.640625},{"ticks":8145,"time":2.401873078125,"value":-0.625},{"ticks":8160,"time":2.4085695,"value":-0.609375},{"ticks":8175,"time":2.415265921875,"value":-0.59375},{"ticks":8190,"time":2.42196234375,"value":-0.578125},{"ticks":8205,"time":2.4286587656250003,"value":-0.5625},{"ticks":8235,"time":2.4420516093750004,"value":-0.546875},{"ticks":8265,"time":2.455444453125,"value":-0.53125},{"ticks":8280,"time":2.4621408750000002,"value":-0.515625},{"ticks":8295,"time":2.468837296875,"value":-0.5},{"ticks":8310,"time":2.4755337187500004,"value":-0.484375},{"ticks":8325,"time":2.482230140625,"value":-0.46875},{"ticks":8340,"time":2.4889265625,"value":-0.453125},{"ticks":8355,"time":2.495622984375,"value":-0.40625},{"ticks":8370,"time":2.5023194062500003,"value":-0.359375},{"ticks":8385,"time":2.5090158281250003,"value":-0.34375},{"ticks":8400,"time":2.51571225,"value":-0.328125},{"ticks":8415,"time":2.522408671875,"value":-0.3125},{"ticks":8430,"time":2.52910509375,"value":-0.296875},{"ticks":8445,"time":2.5358015156250002,"value":-0.28125},{"ticks":8460,"time":2.5424979375000003,"value":-0.25},{"ticks":8475,"time":2.549194359375,"value":-0.234375},{"ticks":8490,"time":2.55589078125,"value":-0.21875},{"ticks":8505,"time":2.562587203125,"value":-0.1875},{"ticks":8520,"time":2.569283625,"value":-0.171875},{"ticks":8535,"time":2.5759800468750003,"value":-0.15625},{"ticks":8550,"time":2.5826764687500003,"value":-0.140625},{"ticks":8565,"time":2.589372890625,"value":-0.125},{"ticks":8580,"time":2.5960693125,"value":-0.09375},{"ticks":8595,"time":2.602765734375,"value":-0.078125},{"ticks":8640,"time":2.622855,"value":-0.0625},{"ticks":8655,"time":2.629551421875,"value":-0.046875},{"ticks":8685,"time":2.642944265625,"value":0},{"ticks":8700,"time":2.6496406875000003,"value":0},{"ticks":8715,"time":2.6563371093750003,"value":0},{"ticks":24495,"time":9.314818,"value":0},{"ticks":24510,"time":9.321068,"value":0.03125},{"ticks":24525,"time":9.327318,"value":0.046875},{"ticks":24540,"time":9.333568000000001,"value":0.0625},{"ticks":24555,"time":9.339818000000001,"value":0.078125},{"ticks":24570,"time":9.346068,"value":0.125},{"ticks":24585,"time":9.352318,"value":0.171875},{"ticks":24600,"time":9.358568,"value":0.25},{"ticks":24615,"time":9.364818000000001,"value":0.28125},{"ticks":24630,"time":9.371068000000001,"value":0.3125},{"ticks":24645,"time":9.377318,"value":0.34375},{"ticks":24660,"time":9.383568,"value":0.4375},{"ticks":24675,"time":9.389818,"value":0.484375},{"ticks":24690,"time":9.396068000000001,"value":0.515625},{"ticks":24705,"time":9.402318000000001,"value":0.53125},{"ticks":24720,"time":9.408568,"value":0.5625},{"ticks":24735,"time":9.414818,"value":0.59375},{"ticks":24750,"time":9.421068,"value":0.609375},{"ticks":24765,"time":9.427318000000001,"value":0.625},{"ticks":24780,"time":9.433568000000001,"value":0.703125},{"ticks":24795,"time":9.439818,"value":0.71875},{"ticks":24810,"time":9.446068,"value":0.765625},{"ticks":24825,"time":9.452318,"value":0.78125},{"ticks":24840,"time":9.458568000000001,"value":0.828125},{"ticks":24855,"time":9.464818000000001,"value":0.875},{"ticks":24870,"time":9.471068,"value":0.890625},{"ticks":24885,"time":9.477318,"value":0.9375},{"ticks":24900,"time":9.483568,"value":0.96875},{"ticks":24915,"time":9.489818000000001,"value":0.984375},{"ticks":24960,"time":9.508568,"value":0},{"ticks":208800,"time":86.108568,"value":-1},{"ticks":208905,"time":86.15231800000001,"value":-0.984375},{"ticks":208920,"time":86.158568,"value":-0.96875},{"ticks":208935,"time":86.16481800000001,"value":-0.953125},{"ticks":208950,"time":86.171068,"value":-0.921875},{"ticks":208965,"time":86.17731800000001,"value":-0.875},{"ticks":208980,"time":86.18356800000001,"value":-0.828125},{"ticks":208995,"time":86.189818,"value":-0.75},{"ticks":209010,"time":86.19606800000001,"value":-0.6875},{"ticks":209025,"time":86.202318,"value":-0.65625},{"ticks":209040,"time":86.20856800000001,"value":-0.625},{"ticks":209055,"time":86.21481800000001,"value":-0.5625},{"ticks":209070,"time":86.221068,"value":-0.53125},{"ticks":209085,"time":86.22731800000001,"value":-0.5},{"ticks":209100,"time":86.233568,"value":-0.46875},{"ticks":209115,"time":86.23981800000001,"value":-0.421875},{"ticks":209130,"time":86.24606800000001,"value":-0.390625},{"ticks":209145,"time":86.252318,"value":-0.328125},{"ticks":209160,"time":86.25856800000001,"value":-0.3125},{"ticks":209175,"time":86.264818,"value":-0.265625},{"ticks":209190,"time":86.27106800000001,"value":-0.203125},{"ticks":209205,"time":86.27731800000001,"value":-0.140625},{"ticks":209220,"time":86.283568,"value":-0.109375},{"ticks":209235,"time":86.28981800000001,"value":-0.046875},{"ticks":209250,"time":86.296068,"value":-0.015625},{"ticks":209265,"time":86.30231800000001,"value":0.046875},{"ticks":209280,"time":86.30856800000001,"value":0.0625},{"ticks":209295,"time":86.314818,"value":0.125},{"ticks":209310,"time":86.32106800000001,"value":0.203125},{"ticks":209325,"time":86.327318,"value":0.21875},{"ticks":209340,"time":86.33356800000001,"value":0.265625},{"ticks":209355,"time":86.33981800000001,"value":0.3125},{"ticks":209370,"time":86.346068,"value":0.34375},{"ticks":209385,"time":86.35231800000001,"value":0.359375},{"ticks":209400,"time":86.358568,"value":0.390625},{"ticks":209415,"time":86.36481800000001,"value":0.421875},{"ticks":209430,"time":86.37106800000001,"value":0.453125},{"ticks":209445,"time":86.377318,"value":0.46875},{"ticks":209460,"time":86.38356800000001,"value":0.5},{"ticks":209475,"time":86.389818,"value":0.546875},{"ticks":209490,"time":86.39606800000001,"value":0.578125},{"ticks":209505,"time":86.40231800000001,"value":0.59375},{"ticks":209520,"time":86.408568,"value":0.609375},{"ticks":209535,"time":86.41481800000001,"value":0.65625},{"ticks":209550,"time":86.421068,"value":0.671875},{"ticks":209565,"time":86.42731800000001,"value":0.6875},{"ticks":209580,"time":86.43356800000001,"value":0.71875},{"ticks":209595,"time":86.439818,"value":0.75},{"ticks":209625,"time":86.452318,"value":0.78125},{"ticks":209640,"time":86.45856800000001,"value":0.796875},{"ticks":209655,"time":86.46481800000001,"value":0.828125},{"ticks":209670,"time":86.471068,"value":0.84375},{"ticks":209685,"time":86.47731800000001,"value":0.875},{"ticks":209700,"time":86.483568,"value":0.890625},{"ticks":209715,"time":86.48981800000001,"value":0.921875},{"ticks":209730,"time":86.49606800000001,"value":0.9375},{"ticks":209745,"time":86.502318,"value":0.96875},{"ticks":209760,"time":86.50856800000001,"value":0.984375},{"ticks":211200,"time":87.108568,"value":0},{"ticks":224175,"time":92.514818,"value":0},{"ticks":224190,"time":92.52106800000001,"value":0.03125},{"ticks":224205,"time":92.52731800000001,"value":0.046875},{"ticks":224220,"time":92.533568,"value":0.0625},{"ticks":224235,"time":92.53981800000001,"value":0.078125},{"ticks":224250,"time":92.546068,"value":0.125},{"ticks":224265,"time":92.55231800000001,"value":0.171875},{"ticks":224280,"time":92.55856800000001,"value":0.25},{"ticks":224295,"time":92.564818,"value":0.28125},{"ticks":224310,"time":92.57106800000001,"value":0.3125},{"ticks":224325,"time":92.577318,"value":0.34375},{"ticks":224340,"time":92.58356800000001,"value":0.4375},{"ticks":224355,"time":92.58981800000001,"value":0.484375},{"ticks":224370,"time":92.596068,"value":0.515625},{"ticks":224385,"time":92.60231800000001,"value":0.53125},{"ticks":224400,"time":92.608568,"value":0.5625},{"ticks":224415,"time":92.61481800000001,"value":0.59375},{"ticks":224430,"time":92.62106800000001,"value":0.609375},{"ticks":224445,"time":92.627318,"value":0.625},{"ticks":224460,"time":92.63356800000001,"value":0.703125},{"ticks":224475,"time":92.639818,"value":0.71875},{"ticks":224490,"time":92.64606800000001,"value":0.765625},{"ticks":224505,"time":92.65231800000001,"value":0.78125},{"ticks":224520,"time":92.658568,"value":0.828125},{"ticks":224535,"time":92.66481800000001,"value":0.875},{"ticks":224550,"time":92.671068,"value":0.890625},{"ticks":224565,"time":92.67731800000001,"value":0.9375},{"ticks":224580,"time":92.68356800000001,"value":0.96875},{"ticks":224595,"time":92.689818,"value":0.984375},{"ticks":224640,"time":92.70856800000001,"value":0},{"ticks":408480,"time":169.308568,"value":-1},{"ticks":408585,"time":169.35231800000003,"value":-0.984375},{"ticks":408600,"time":169.35856800000002,"value":-0.96875},{"ticks":408615,"time":169.364818,"value":-0.953125},{"ticks":408630,"time":169.371068,"value":-0.921875},{"ticks":408645,"time":169.377318,"value":-0.875},{"ticks":408660,"time":169.38356800000003,"value":-0.828125},{"ticks":408675,"time":169.38981800000002,"value":-0.75},{"ticks":408690,"time":169.396068,"value":-0.6875},{"ticks":408705,"time":169.402318,"value":-0.65625},{"ticks":408720,"time":169.408568,"value":-0.625},{"ticks":408735,"time":169.41481800000003,"value":-0.5625},{"ticks":408750,"time":169.42106800000002,"value":-0.53125},{"ticks":408765,"time":169.427318,"value":-0.5},{"ticks":408780,"time":169.433568,"value":-0.46875},{"ticks":408795,"time":169.439818,"value":-0.421875},{"ticks":408810,"time":169.44606800000003,"value":-0.390625},{"ticks":408825,"time":169.45231800000002,"value":-0.328125},{"ticks":408840,"time":169.458568,"value":-0.3125},{"ticks":408855,"time":169.464818,"value":-0.265625},{"ticks":408870,"time":169.471068,"value":-0.203125},{"ticks":408885,"time":169.47731800000003,"value":-0.140625},{"ticks":408900,"time":169.48356800000002,"value":-0.109375},{"ticks":408915,"time":169.489818,"value":-0.046875},{"ticks":408930,"time":169.496068,"value":-0.015625},{"ticks":408945,"time":169.502318,"value":0.046875},{"ticks":408960,"time":169.50856800000003,"value":0.0625},{"ticks":408975,"time":169.51481800000002,"value":0.125},{"ticks":408990,"time":169.521068,"value":0.203125},{"ticks":409005,"time":169.527318,"value":0.21875},{"ticks":409020,"time":169.533568,"value":0.265625},{"ticks":409035,"time":169.53981800000003,"value":0.3125},{"ticks":409050,"time":169.54606800000002,"value":0.34375},{"ticks":409065,"time":169.552318,"value":0.359375},{"ticks":409080,"time":169.558568,"value":0.390625},{"ticks":409095,"time":169.564818,"value":0.421875},{"ticks":409110,"time":169.57106800000003,"value":0.453125},{"ticks":409125,"time":169.57731800000002,"value":0.46875},{"ticks":409140,"time":169.583568,"value":0.5},{"ticks":409155,"time":169.589818,"value":0.546875},{"ticks":409170,"time":169.596068,"value":0.578125},{"ticks":409185,"time":169.60231800000003,"value":0.59375},{"ticks":409200,"time":169.60856800000002,"value":0.609375},{"ticks":409215,"time":169.614818,"value":0.65625},{"ticks":409230,"time":169.621068,"value":0.671875},{"ticks":409245,"time":169.627318,"value":0.6875},{"ticks":409260,"time":169.63356800000003,"value":0.71875},{"ticks":409275,"time":169.63981800000002,"value":0.75},{"ticks":409305,"time":169.652318,"value":0.78125},{"ticks":409320,"time":169.658568,"value":0.796875},{"ticks":409335,"time":169.66481800000003,"value":0.828125},{"ticks":409350,"time":169.67106800000002,"value":0.84375},{"ticks":409365,"time":169.677318,"value":0.875},{"ticks":409380,"time":169.683568,"value":0.890625},{"ticks":409395,"time":169.689818,"value":0.921875},{"ticks":409410,"time":169.69606800000003,"value":0.9375},{"ticks":409425,"time":169.70231800000002,"value":0.96875},{"ticks":409440,"time":169.708568,"value":0.984375},{"ticks":410880,"time":170.308568,"value":0},{"ticks":423855,"time":175.714818,"value":0},{"ticks":423870,"time":175.721068,"value":0.03125},{"ticks":423885,"time":175.72731800000003,"value":0.046875},{"ticks":423900,"time":175.73356800000002,"value":0.0625},{"ticks":423915,"time":175.739818,"value":0.078125},{"ticks":423930,"time":175.746068,"value":0.125},{"ticks":423945,"time":175.752318,"value":0.171875},{"ticks":423960,"time":175.75856800000003,"value":0.25},{"ticks":423975,"time":175.76481800000002,"value":0.28125},{"ticks":423990,"time":175.771068,"value":0.3125},{"ticks":424005,"time":175.777318,"value":0.34375},{"ticks":424020,"time":175.783568,"value":0.4375},{"ticks":424035,"time":175.78981800000003,"value":0.484375},{"ticks":424050,"time":175.79606800000002,"value":0.515625},{"ticks":424065,"time":175.802318,"value":0.53125},{"ticks":424080,"time":175.808568,"value":0.5625},{"ticks":424095,"time":175.814818,"value":0.59375},{"ticks":424110,"time":175.82106800000003,"value":0.609375},{"ticks":424125,"time":175.82731800000002,"value":0.625},{"ticks":424140,"time":175.833568,"value":0.703125},{"ticks":424155,"time":175.839818,"value":0.71875},{"ticks":424170,"time":175.846068,"value":0.765625},{"ticks":424185,"time":175.85231800000003,"value":0.78125},{"ticks":424200,"time":175.85856800000002,"value":0.828125},{"ticks":424215,"time":175.864818,"value":0.875},{"ticks":424230,"time":175.871068,"value":0.890625},{"ticks":424245,"time":175.877318,"value":0.9375},{"ticks":424260,"time":175.88356800000003,"value":0.96875},{"ticks":424275,"time":175.88981800000002,"value":0.984375},{"ticks":424320,"time":175.908568,"value":0}],"instrument":{"family":"synth lead","number":81,"name":"lead 2 (sawtooth)"},"name":"","notes":[{"duration":0.8571420000000001,"durationTicks":1920,"midi":67,"name":"G4","ticks":3840,"time":0.48,"velocity":0.7874015748031497},{"duration":0.8571420000000001,"durationTicks":1920,"midi":57,"name":"A3","ticks":3840,"time":0.48,"velocity":0.7874015748031497},{"duration":0.8571420000000001,"durationTicks":1920,"midi":62,"name":"D4","ticks":3840,"time":0.48,"velocity":0.7874015748031497},{"duration":0.8571420000000001,"durationTicks":1920,"midi":69,"name":"A4","ticks":5760,"time":1.337142,"velocity":0.7874015748031497},{"duration":0.8571420000000001,"durationTicks":1920,"midi":59,"name":"B3","ticks":5760,"time":1.337142,"velocity":0.7874015748031497},{"duration":0.8571420000000001,"durationTicks":1920,"midi":64,"name":"E4","ticks":5760,"time":1.337142,"velocity":0.7874015748031497},{"duration":1.7142840000000001,"durationTicks":3840,"midi":71,"name":"B4","ticks":7680,"time":2.194284,"velocity":0.7874015748031497},{"duration":1.7142840000000001,"durationTicks":3840,"midi":64,"name":"E4","ticks":7680,"time":2.194284,"velocity":0.7874015748031497},{"duration":1.7142840000000001,"durationTicks":3840,"midi":69,"name":"A4","ticks":7680,"time":2.194284,"velocity":0.7874015748031497},{"duration":0.19999999999999973,"durationTicks":480,"midi":62,"name":"D4","ticks":11520,"time":3.9085680000000003,"velocity":0.7874015748031497},{"duration":0.19999999999999973,"durationTicks":480,"midi":71,"name":"B4","ticks":11520,"time":3.9085680000000003,"velocity":0.7874015748031497},{"duration":0.19999999999999973,"durationTicks":480,"midi":67,"name":"G4","ticks":11520,"time":3.9085680000000003,"velocity":0.7874015748031497},{"duration":0.20000000000000018,"durationTicks":480,"midi":62,"name":"D4","ticks":12480,"time":4.308568,"velocity":0.7874015748031497},{"duration":0.20000000000000018,"durationTicks":480,"midi":71,"name":"B4","ticks":12480,"time":4.308568,"velocity":0.7874015748031497},{"duration":0.20000000000000018,"durationTicks":480,"midi":67,"name":"G4","ticks":12480,"time":4.308568,"velocity":0.7874015748031497},{"duration":0.1999999999999993,"durationTicks":480,"midi":62,"name":"D4","ticks":13920,"time":4.908568000000001,"velocity":0.7874015748031497},{"duration":0.1999999999999993,"durationTicks":480,"midi":71,"name":"B4","ticks":13920,"time":4.908568000000001,"velocity":0.7874015748031497},{"duration":0.1999999999999993,"durationTicks":480,"midi":67,"name":"G4","ticks":13920,"time":4.908568000000001,"velocity":0.7874015748031497},{"duration":0.40000000000000036,"durationTicks":960,"midi":62,"name":"D4","ticks":14880,"time":5.308568,"velocity":0.7874015748031497},{"duration":0.40000000000000036,"durationTicks":960,"midi":71,"name":"B4","ticks":14880,"time":5.308568,"velocity":0.7874015748031497},{"duration":0.40000000000000036,"durationTicks":960,"midi":67,"name":"G4","ticks":14880,"time":5.308568,"velocity":0.7874015748031497},{"duration":0.20000000000000018,"durationTicks":480,"midi":61,"name":"C#4","ticks":15840,"time":5.7085680000000005,"velocity":0.7874015748031497},{"duration":0.20000000000000018,"durationTicks":480,"midi":71,"name":"B4","ticks":15840,"time":5.7085680000000005,"velocity":0.7874015748031497},{"duration":0.20000000000000018,"durationTicks":480,"midi":67,"name":"G4","ticks":15840,"time":5.7085680000000005,"velocity":0.7874015748031497},{"duration":0.40000000000000036,"durationTicks":960,"midi":61,"name":"C#4","ticks":16320,"time":5.908568000000001,"velocity":0.7874015748031497},{"duration":0.40000000000000036,"durationTicks":960,"midi":71,"name":"B4","ticks":16320,"time":5.908568000000001,"velocity":0.7874015748031497},{"duration":0.40000000000000036,"durationTicks":960,"midi":67,"name":"G4","ticks":16320,"time":5.908568000000001,"velocity":0.7874015748031497},{"duration":0.1999999999999993,"durationTicks":480,"midi":61,"name":"C#4","ticks":17280,"time":6.308568000000001,"velocity":0.7874015748031497},{"duration":0.1999999999999993,"durationTicks":480,"midi":71,"name":"B4","ticks":17280,"time":6.308568000000001,"velocity":0.7874015748031497},{"duration":0.1999999999999993,"durationTicks":480,"midi":67,"name":"G4","ticks":17280,"time":6.308568000000001,"velocity":0.7874015748031497},{"duration":0.20000000000000018,"durationTicks":480,"midi":61,"name":"C#4","ticks":18240,"time":6.7085680000000005,"velocity":0.7874015748031497},{"duration":0.20000000000000018,"durationTicks":480,"midi":71,"name":"B4","ticks":18240,"time":6.7085680000000005,"velocity":0.7874015748031497},{"duration":0.20000000000000018,"durationTicks":480,"midi":67,"name":"G4","ticks":18240,"time":6.7085680000000005,"velocity":0.7874015748031497},{"duration":0.20000000000000107,"durationTicks":480,"midi":62,"name":"D4","ticks":19200,"time":7.108568,"velocity":0.7874015748031497},{"duration":0.20000000000000107,"durationTicks":480,"midi":71,"name":"B4","ticks":19200,"time":7.108568,"velocity":0.7874015748031497},{"duration":0.20000000000000107,"durationTicks":480,"midi":67,"name":"G4","ticks":19200,"time":7.108568,"velocity":0.7874015748031497},{"duration":0.20000000000000018,"durationTicks":480,"midi":62,"name":"D4","ticks":20160,"time":7.508568,"velocity":0.7874015748031497},{"duration":0.20000000000000018,"durationTicks":480,"midi":71,"name":"B4","ticks":20160,"time":7.508568,"velocity":0.7874015748031497},{"duration":0.20000000000000018,"durationTicks":480,"midi":67,"name":"G4","ticks":20160,"time":7.508568,"velocity":0.7874015748031497},{"duration":0.20000000000000107,"durationTicks":480,"midi":62,"name":"D4","ticks":21600,"time":8.108568,"velocity":0.7874015748031497},{"duration":0.20000000000000107,"durationTicks":480,"midi":71,"name":"B4","ticks":21600,"time":8.108568,"velocity":0.7874015748031497},{"duration":0.20000000000000107,"durationTicks":480,"midi":67,"name":"G4","ticks":21600,"time":8.108568,"velocity":0.7874015748031497},{"duration":0.40000000000000036,"durationTicks":960,"midi":62,"name":"D4","ticks":22560,"time":8.508568,"velocity":0.7874015748031497},{"duration":0.40000000000000036,"durationTicks":960,"midi":71,"name":"B4","ticks":22560,"time":8.508568,"velocity":0.7874015748031497},{"duration":0.40000000000000036,"durationTicks":960,"midi":67,"name":"G4","ticks":22560,"time":8.508568,"velocity":0.7874015748031497},{"duration":0.1999999999999993,"durationTicks":480,"midi":60,"name":"C4","ticks":23520,"time":8.908568,"velocity":0.7874015748031497},{"duration":0.1999999999999993,"durationTicks":480,"midi":71,"name":"B4","ticks":23520,"time":8.908568,"velocity":0.7874015748031497},{"duration":0.1999999999999993,"durationTicks":480,"midi":67,"name":"G4","ticks":23520,"time":8.908568,"velocity":0.7874015748031497},{"duration":0.40000000000000036,"durationTicks":960,"midi":60,"name":"C4","ticks":24000,"time":9.108568,"velocity":0.7874015748031497},{"duration":0.40000000000000036,"durationTicks":960,"midi":71,"name":"B4","ticks":24000,"time":9.108568,"velocity":0.7874015748031497},{"duration":0.40000000000000036,"durationTicks":960,"midi":67,"name":"G4","ticks":24000,"time":9.108568,"velocity":0.7874015748031497},{"duration":0.13333333333333464,"durationTicks":320,"midi":74,"name":"D5","ticks":24960,"time":9.508568,"velocity":0.7874015748031497},{"duration":0.13333333333333464,"durationTicks":320,"midi":71,"name":"B4","ticks":24960,"time":9.508568,"velocity":0.7874015748031497},{"duration":0.40000000000000036,"durationTicks":960,"midi":74,"name":"D5","ticks":25920,"time":9.908568,"velocity":0.7874015748031497},{"duration":0.40000000000000036,"durationTicks":960,"midi":71,"name":"B4","ticks":25920,"time":9.908568,"velocity":0.7874015748031497},{"duration":0.1999999999999993,"durationTicks":480,"midi":62,"name":"D4","ticks":26880,"time":10.308568000000001,"velocity":0.7874015748031497},{"duration":0.1999999999999993,"durationTicks":480,"midi":71,"name":"B4","ticks":26880,"time":10.308568000000001,"velocity":0.7874015748031497},{"duration":0.1999999999999993,"durationTicks":480,"midi":67,"name":"G4","ticks":26880,"time":10.308568000000001,"velocity":0.7874015748031497},{"duration":0.1999999999999993,"durationTicks":480,"midi":62,"name":"D4","ticks":27840,"time":10.708568000000001,"velocity":0.7874015748031497},{"duration":0.1999999999999993,"durationTicks":480,"midi":71,"name":"B4","ticks":27840,"time":10.708568000000001,"velocity":0.7874015748031497},{"duration":0.1999999999999993,"durationTicks":480,"midi":67,"name":"G4","ticks":27840,"time":10.708568000000001,"velocity":0.7874015748031497},{"duration":0.2333333333333325,"durationTicks":560,"midi":62,"name":"D4","ticks":29280,"time":11.308568000000001,"velocity":0.7874015748031497},{"duration":0.2333333333333325,"durationTicks":560,"midi":71,"name":"B4","ticks":29280,"time":11.308568000000001,"velocity":0.7874015748031497},{"duration":0.2333333333333325,"durationTicks":560,"midi":67,"name":"G4","ticks":29280,"time":11.308568000000001,"velocity":0.7874015748031497},{"duration":0.40000000000000036,"durationTicks":960,"midi":62,"name":"D4","ticks":30240,"time":11.708568000000001,"velocity":0.7874015748031497},{"duration":0.40000000000000036,"durationTicks":960,"midi":71,"name":"B4","ticks":30240,"time":11.708568000000001,"velocity":0.7874015748031497},{"duration":0.40000000000000036,"durationTicks":960,"midi":67,"name":"G4","ticks":30240,"time":11.708568000000001,"velocity":0.7874015748031497},{"duration":0.1999999999999993,"durationTicks":480,"midi":61,"name":"C#4","ticks":31200,"time":12.108568000000002,"velocity":0.7874015748031497},{"duration":0.1999999999999993,"durationTicks":480,"midi":71,"name":"B4","ticks":31200,"time":12.108568000000002,"velocity":0.7874015748031497},{"duration":0.1999999999999993,"durationTicks":480,"midi":67,"name":"G4","ticks":31200,"time":12.108568000000002,"velocity":0.7874015748031497},{"duration":0.40000000000000036,"durationTicks":960,"midi":61,"name":"C#4","ticks":31680,"time":12.308568000000001,"velocity":0.7874015748031497},{"duration":0.40000000000000036,"durationTicks":960,"midi":71,"name":"B4","ticks":31680,"time":12.308568000000001,"velocity":0.7874015748031497},{"duration":0.40000000000000036,"durationTicks":960,"midi":67,"name":"G4","ticks":31680,"time":12.308568000000001,"velocity":0.7874015748031497},{"duration":0.1999999999999993,"durationTicks":480,"midi":61,"name":"C#4","ticks":32640,"time":12.708568000000001,"velocity":0.7874015748031497},{"duration":0.1999999999999993,"durationTicks":480,"midi":71,"name":"B4","ticks":32640,"time":12.708568000000001,"velocity":0.7874015748031497},{"duration":0.1999999999999993,"durationTicks":480,"midi":67,"name":"G4","ticks":32640,"time":12.708568000000001,"velocity":0.7874015748031497},{"duration":0.1999999999999993,"durationTicks":480,"midi":61,"name":"C#4","ticks":33600,"time":13.108568000000002,"velocity":0.7874015748031497},{"duration":0.1999999999999993,"durationTicks":480,"midi":71,"name":"B4","ticks":33600,"time":13.108568000000002,"velocity":0.7874015748031497},{"duration":0.1999999999999993,"durationTicks":480,"midi":67,"name":"G4","ticks":33600,"time":13.108568000000002,"velocity":0.7874015748031497},{"duration":0.1999999999999993,"durationTicks":480,"midi":62,"name":"D4","ticks":34560,"time":13.508568000000002,"velocity":0.7874015748031497},{"duration":0.1999999999999993,"durationTicks":480,"midi":71,"name":"B4","ticks":34560,"time":13.508568000000002,"velocity":0.7874015748031497},{"duration":0.1999999999999993,"durationTicks":480,"midi":67,"name":"G4","ticks":34560,"time":13.508568000000002,"velocity":0.7874015748031497},{"duration":0.20000000000000107,"durationTicks":480,"midi":62,"name":"D4","ticks":35520,"time":13.908568,"velocity":0.7874015748031497},{"duration":0.20000000000000107,"durationTicks":480,"midi":71,"name":"B4","ticks":35520,"time":13.908568,"velocity":0.7874015748031497},{"duration":0.20000000000000107,"durationTicks":480,"midi":67,"name":"G4","ticks":35520,"time":13.908568,"velocity":0.7874015748031497},{"duration":0.1999999999999993,"durationTicks":480,"midi":62,"name":"D4","ticks":36960,"time":14.508568000000002,"velocity":0.7874015748031497},{"duration":0.1999999999999993,"durationTicks":480,"midi":71,"name":"B4","ticks":36960,"time":14.508568000000002,"velocity":0.7874015748031497},{"duration":0.1999999999999993,"durationTicks":480,"midi":67,"name":"G4","ticks":36960,"time":14.508568000000002,"velocity":0.7874015748031497},{"duration":0.40000000000000036,"durationTicks":960,"midi":62,"name":"D4","ticks":37920,"time":14.908568,"velocity":0.7874015748031497},{"duration":0.40000000000000036,"durationTicks":960,"midi":71,"name":"B4","ticks":37920,"time":14.908568,"velocity":0.7874015748031497},{"duration":0.40000000000000036,"durationTicks":960,"midi":67,"name":"G4","ticks":37920,"time":14.908568,"velocity":0.7874015748031497},{"duration":0.20000000000000107,"durationTicks":480,"midi":60,"name":"C4","ticks":38880,"time":15.308568000000001,"velocity":0.7874015748031497},{"duration":0.20000000000000107,"durationTicks":480,"midi":71,"name":"B4","ticks":38880,"time":15.308568000000001,"velocity":0.7874015748031497},{"duration":0.20000000000000107,"durationTicks":480,"midi":67,"name":"G4","ticks":38880,"time":15.308568000000001,"velocity":0.7874015748031497},{"duration":0.3999999999999986,"durationTicks":960,"midi":60,"name":"C4","ticks":39360,"time":15.508568000000002,"velocity":0.7874015748031497},{"duration":0.3999999999999986,"durationTicks":960,"midi":71,"name":"B4","ticks":39360,"time":15.508568000000002,"velocity":0.7874015748031497},{"duration":0.3999999999999986,"durationTicks":960,"midi":67,"name":"G4","ticks":39360,"time":15.508568000000002,"velocity":0.7874015748031497},{"duration":0.2333333333333325,"durationTicks":560,"midi":59,"name":"B3","ticks":40320,"time":15.908568,"velocity":0.7874015748031497},{"duration":0.2333333333333325,"durationTicks":560,"midi":67,"name":"G4","ticks":40320,"time":15.908568,"velocity":0.7874015748031497},{"duration":0.2333333333333325,"durationTicks":560,"midi":71,"name":"B4","ticks":40320,"time":15.908568,"velocity":0.7874015748031497},{"duration":0.3999999999999986,"durationTicks":960,"midi":59,"name":"B3","ticks":41280,"time":16.308568,"velocity":0.7874015748031497},{"duration":0.3999999999999986,"durationTicks":960,"midi":67,"name":"G4","ticks":41280,"time":16.308568,"velocity":0.7874015748031497},{"duration":0.3999999999999986,"durationTicks":960,"midi":71,"name":"B4","ticks":41280,"time":16.308568,"velocity":0.7874015748031497},{"duration":0.1999999999999993,"durationTicks":480,"midi":60,"name":"C4","ticks":42240,"time":16.708568,"velocity":0.7874015748031497},{"duration":0.1999999999999993,"durationTicks":480,"midi":71,"name":"B4","ticks":42240,"time":16.708568,"velocity":0.7874015748031497},{"duration":0.1999999999999993,"durationTicks":480,"midi":67,"name":"G4","ticks":42240,"time":16.708568,"velocity":0.7874015748031497},{"duration":0.1999999999999993,"durationTicks":480,"midi":60,"name":"C4","ticks":43200,"time":17.108568,"velocity":0.7874015748031497},{"duration":0.1999999999999993,"durationTicks":480,"midi":71,"name":"B4","ticks":43200,"time":17.108568,"velocity":0.7874015748031497},{"duration":0.1999999999999993,"durationTicks":480,"midi":67,"name":"G4","ticks":43200,"time":17.108568,"velocity":0.7874015748031497},{"duration":0.23333333333333428,"durationTicks":560,"midi":60,"name":"C4","ticks":44640,"time":17.708568,"velocity":0.7874015748031497},{"duration":0.23333333333333428,"durationTicks":560,"midi":71,"name":"B4","ticks":44640,"time":17.708568,"velocity":0.7874015748031497},{"duration":0.23333333333333428,"durationTicks":560,"midi":67,"name":"G4","ticks":44640,"time":17.708568,"velocity":0.7874015748031497},{"duration":0.3999999999999986,"durationTicks":960,"midi":60,"name":"C4","ticks":45600,"time":18.108568,"velocity":0.7874015748031497},{"duration":0.3999999999999986,"durationTicks":960,"midi":71,"name":"B4","ticks":45600,"time":18.108568,"velocity":0.7874015748031497},{"duration":0.3999999999999986,"durationTicks":960,"midi":67,"name":"G4","ticks":45600,"time":18.108568,"velocity":0.7874015748031497},{"duration":0.1999999999999993,"durationTicks":480,"midi":59,"name":"B3","ticks":46560,"time":18.508568,"velocity":0.7874015748031497},{"duration":0.1999999999999993,"durationTicks":480,"midi":71,"name":"B4","ticks":46560,"time":18.508568,"velocity":0.7874015748031497},{"duration":0.1999999999999993,"durationTicks":480,"midi":67,"name":"G4","ticks":46560,"time":18.508568,"velocity":0.7874015748031497},{"duration":0.40000000000000213,"durationTicks":960,"midi":59,"name":"B3","ticks":47040,"time":18.708568,"velocity":0.7874015748031497},{"duration":0.40000000000000213,"durationTicks":960,"midi":71,"name":"B4","ticks":47040,"time":18.708568,"velocity":0.7874015748031497},{"duration":0.40000000000000213,"durationTicks":960,"midi":67,"name":"G4","ticks":47040,"time":18.708568,"velocity":0.7874015748031497},{"duration":0.1999999999999993,"durationTicks":480,"midi":64,"name":"E4","ticks":48000,"time":19.108568,"velocity":0.7874015748031497},{"duration":0.1999999999999993,"durationTicks":480,"midi":71,"name":"B4","ticks":48000,"time":19.108568,"velocity":0.7874015748031497},{"duration":0.1999999999999993,"durationTicks":480,"midi":67,"name":"G4","ticks":48000,"time":19.108568,"velocity":0.7874015748031497},{"duration":0.1999999999999993,"durationTicks":480,"midi":64,"name":"E4","ticks":48960,"time":19.508568,"velocity":0.7874015748031497},{"duration":0.3999999999999986,"durationTicks":960,"midi":71,"name":"B4","ticks":48960,"time":19.508568,"velocity":0.7874015748031497},{"duration":0.3999999999999986,"durationTicks":960,"midi":67,"name":"G4","ticks":48960,"time":19.508568,"velocity":0.7874015748031497},{"duration":0.1999999999999993,"durationTicks":480,"midi":60,"name":"C4","ticks":49920,"time":19.908568,"velocity":0.7874015748031497},{"duration":0.1999999999999993,"durationTicks":480,"midi":72,"name":"C5","ticks":49920,"time":19.908568,"velocity":0.7874015748031497},{"duration":0.1999999999999993,"durationTicks":480,"midi":67,"name":"G4","ticks":49920,"time":19.908568,"velocity":0.7874015748031497},{"duration":0.1999999999999993,"durationTicks":480,"midi":60,"name":"C4","ticks":50880,"time":20.308568,"velocity":0.7874015748031497},{"duration":0.1999999999999993,"durationTicks":480,"midi":72,"name":"C5","ticks":50880,"time":20.308568,"velocity":0.7874015748031497},{"duration":0.1999999999999993,"durationTicks":480,"midi":67,"name":"G4","ticks":50880,"time":20.308568,"velocity":0.7874015748031497},{"duration":0.14999999999999858,"durationTicks":360,"midi":74,"name":"D5","ticks":51840,"time":20.708568,"velocity":0.7874015748031497},{"duration":0.14999999999999858,"durationTicks":360,"midi":69,"name":"A4","ticks":51840,"time":20.708568,"velocity":0.7874015748031497},{"duration":0.14999999999999858,"durationTicks":360,"midi":62,"name":"D4","ticks":51840,"time":20.708568,"velocity":0.7874015748031497},{"duration":0.23333333333333428,"durationTicks":560,"midi":62,"name":"D4","ticks":52320,"time":20.908568,"velocity":0.7874015748031497},{"duration":0.23333333333333428,"durationTicks":560,"midi":74,"name":"D5","ticks":52320,"time":20.908568,"velocity":0.7874015748031497},{"duration":0.23333333333333428,"durationTicks":560,"midi":69,"name":"A4","ticks":52320,"time":20.908568,"velocity":0.7874015748031497},{"duration":0.34999999999999787,"durationTicks":840,"midi":64,"name":"E4","ticks":53280,"time":21.308568,"velocity":0.7874015748031497},{"duration":0.34999999999999787,"durationTicks":840,"midi":76,"name":"E5","ticks":53280,"time":21.308568,"velocity":0.7874015748031497},{"duration":0.34999999999999787,"durationTicks":840,"midi":71,"name":"B4","ticks":53280,"time":21.308568,"velocity":0.7874015748031497},{"duration":0.14999999999999858,"durationTicks":360,"midi":64,"name":"E4","ticks":54240,"time":21.708568,"velocity":0.7874015748031497},{"duration":0.14999999999999858,"durationTicks":360,"midi":76,"name":"E5","ticks":54240,"time":21.708568,"velocity":0.7874015748031497},{"duration":0.14999999999999858,"durationTicks":360,"midi":71,"name":"B4","ticks":54240,"time":21.708568,"velocity":0.7874015748031497},{"duration":0.3500000000000014,"durationTicks":840,"midi":64,"name":"E4","ticks":54720,"time":21.908568,"velocity":0.7874015748031497},{"duration":0.3500000000000014,"durationTicks":840,"midi":76,"name":"E5","ticks":54720,"time":21.908568,"velocity":0.7874015748031497},{"duration":0.3500000000000014,"durationTicks":840,"midi":71,"name":"B4","ticks":54720,"time":21.908568,"velocity":0.7874015748031497},{"duration":0.1999999999999993,"durationTicks":480,"midi":71,"name":"B4","ticks":55680,"time":22.308568,"velocity":0.7874015748031497},{"duration":0.1999999999999993,"durationTicks":480,"midi":74,"name":"D5","ticks":55680,"time":22.308568,"velocity":0.6299212598425197},{"duration":0.1999999999999993,"durationTicks":480,"midi":62,"name":"D4","ticks":55680,"time":22.308568,"velocity":0.7874015748031497},{"duration":0.40000000000000213,"durationTicks":960,"midi":71,"name":"B4","ticks":56640,"time":22.708568,"velocity":0.7874015748031497},{"duration":0.3000000000000007,"durationTicks":720,"midi":74,"name":"D5","ticks":56640,"time":22.708568,"velocity":0.6299212598425197},{"duration":0.40000000000000213,"durationTicks":960,"midi":62,"name":"D4","ticks":56640,"time":22.708568,"velocity":0.7874015748031497},{"duration":0.1999999999999993,"durationTicks":480,"midi":62,"name":"D4","ticks":57600,"time":23.108568,"velocity":0.7874015748031497},{"duration":0.1999999999999993,"durationTicks":480,"midi":71,"name":"B4","ticks":57600,"time":23.108568,"velocity":0.7874015748031497},{"duration":0.1999999999999993,"durationTicks":480,"midi":67,"name":"G4","ticks":57600,"time":23.108568,"velocity":0.7874015748031497},{"duration":0.1999999999999993,"durationTicks":480,"midi":62,"name":"D4","ticks":58560,"time":23.508568,"velocity":0.7874015748031497},{"duration":0.1999999999999993,"durationTicks":480,"midi":71,"name":"B4","ticks":58560,"time":23.508568,"velocity":0.7874015748031497},{"duration":0.1999999999999993,"durationTicks":480,"midi":67,"name":"G4","ticks":58560,"time":23.508568,"velocity":0.7874015748031497},{"duration":0.23333333333333428,"durationTicks":560,"midi":62,"name":"D4","ticks":60000,"time":24.108568,"velocity":0.7874015748031497},{"duration":0.23333333333333428,"durationTicks":560,"midi":71,"name":"B4","ticks":60000,"time":24.108568,"velocity":0.7874015748031497},{"duration":0.23333333333333428,"durationTicks":560,"midi":67,"name":"G4","ticks":60000,"time":24.108568,"velocity":0.7874015748031497},{"duration":0.3999999999999986,"durationTicks":960,"midi":62,"name":"D4","ticks":60960,"time":24.508568,"velocity":0.7874015748031497},{"duration":0.3999999999999986,"durationTicks":960,"midi":71,"name":"B4","ticks":60960,"time":24.508568,"velocity":0.7874015748031497},{"duration":0.3999999999999986,"durationTicks":960,"midi":67,"name":"G4","ticks":60960,"time":24.508568,"velocity":0.7874015748031497},{"duration":0.20000000000000284,"durationTicks":480,"midi":61,"name":"C#4","ticks":61920,"time":24.908568,"velocity":0.7874015748031497},{"duration":0.20000000000000284,"durationTicks":480,"midi":71,"name":"B4","ticks":61920,"time":24.908568,"velocity":0.7874015748031497},{"duration":0.20000000000000284,"durationTicks":480,"midi":67,"name":"G4","ticks":61920,"time":24.908568,"velocity":0.7874015748031497},{"duration":0.3999999999999986,"durationTicks":960,"midi":61,"name":"C#4","ticks":62400,"time":25.108568,"velocity":0.7874015748031497},{"duration":0.3999999999999986,"durationTicks":960,"midi":71,"name":"B4","ticks":62400,"time":25.108568,"velocity":0.7874015748031497},{"duration":0.3999999999999986,"durationTicks":960,"midi":67,"name":"G4","ticks":62400,"time":25.108568,"velocity":0.7874015748031497},{"duration":0.1999999999999993,"durationTicks":480,"midi":61,"name":"C#4","ticks":63360,"time":25.508568,"velocity":0.7874015748031497},{"duration":0.1999999999999993,"durationTicks":480,"midi":71,"name":"B4","ticks":63360,"time":25.508568,"velocity":0.7874015748031497},{"duration":0.1999999999999993,"durationTicks":480,"midi":67,"name":"G4","ticks":63360,"time":25.508568,"velocity":0.7874015748031497},{"duration":0.20000000000000284,"durationTicks":480,"midi":61,"name":"C#4","ticks":64320,"time":25.908568,"velocity":0.7874015748031497},{"duration":0.20000000000000284,"durationTicks":480,"midi":71,"name":"B4","ticks":64320,"time":25.908568,"velocity":0.7874015748031497},{"duration":0.20000000000000284,"durationTicks":480,"midi":67,"name":"G4","ticks":64320,"time":25.908568,"velocity":0.7874015748031497},{"duration":0.1999999999999993,"durationTicks":480,"midi":62,"name":"D4","ticks":65280,"time":26.308568,"velocity":0.7874015748031497},{"duration":0.1999999999999993,"durationTicks":480,"midi":71,"name":"B4","ticks":65280,"time":26.308568,"velocity":0.7874015748031497},{"duration":0.1999999999999993,"durationTicks":480,"midi":67,"name":"G4","ticks":65280,"time":26.308568,"velocity":0.7874015748031497},{"duration":0.1999999999999993,"durationTicks":480,"midi":62,"name":"D4","ticks":66240,"time":26.708568,"velocity":0.7874015748031497},{"duration":0.1999999999999993,"durationTicks":480,"midi":71,"name":"B4","ticks":66240,"time":26.708568,"velocity":0.7874015748031497},{"duration":0.1999999999999993,"durationTicks":480,"midi":67,"name":"G4","ticks":66240,"time":26.708568,"velocity":0.7874015748031497},{"duration":0.1999999999999993,"durationTicks":480,"midi":62,"name":"D4","ticks":67680,"time":27.308568,"velocity":0.7874015748031497},{"duration":0.1999999999999993,"durationTicks":480,"midi":71,"name":"B4","ticks":67680,"time":27.308568,"velocity":0.7874015748031497},{"duration":0.1999999999999993,"durationTicks":480,"midi":67,"name":"G4","ticks":67680,"time":27.308568,"velocity":0.7874015748031497},{"duration":0.40000000000000213,"durationTicks":960,"midi":62,"name":"D4","ticks":68640,"time":27.708568,"velocity":0.7874015748031497},{"duration":0.40000000000000213,"durationTicks":960,"midi":71,"name":"B4","ticks":68640,"time":27.708568,"velocity":0.7874015748031497},{"duration":0.40000000000000213,"durationTicks":960,"midi":67,"name":"G4","ticks":68640,"time":27.708568,"velocity":0.7874015748031497},{"duration":0.1999999999999993,"durationTicks":480,"midi":60,"name":"C4","ticks":69600,"time":28.108568,"velocity":0.7874015748031497},{"duration":0.1999999999999993,"durationTicks":480,"midi":71,"name":"B4","ticks":69600,"time":28.108568,"velocity":0.7874015748031497},{"duration":0.1999999999999993,"durationTicks":480,"midi":67,"name":"G4","ticks":69600,"time":28.108568,"velocity":0.7874015748031497},{"duration":0.3999999999999986,"durationTicks":960,"midi":60,"name":"C4","ticks":70080,"time":28.308568,"velocity":0.7874015748031497},{"duration":0.3999999999999986,"durationTicks":960,"midi":71,"name":"B4","ticks":70080,"time":28.308568,"velocity":0.7874015748031497},{"duration":0.3999999999999986,"durationTicks":960,"midi":67,"name":"G4","ticks":70080,"time":28.308568,"velocity":0.7874015748031497},{"duration":0.23333333333333428,"durationTicks":560,"midi":59,"name":"B3","ticks":71040,"time":28.708568,"velocity":0.7874015748031497},{"duration":0.23333333333333428,"durationTicks":560,"midi":67,"name":"G4","ticks":71040,"time":28.708568,"velocity":0.7874015748031497},{"duration":0.23333333333333428,"durationTicks":560,"midi":71,"name":"B4","ticks":71040,"time":28.708568,"velocity":0.7874015748031497},{"duration":0.3999999999999986,"durationTicks":960,"midi":59,"name":"B3","ticks":72000,"time":29.108568,"velocity":0.7874015748031497},{"duration":0.3999999999999986,"durationTicks":960,"midi":67,"name":"G4","ticks":72000,"time":29.108568,"velocity":0.7874015748031497},{"duration":0.3999999999999986,"durationTicks":960,"midi":71,"name":"B4","ticks":72000,"time":29.108568,"velocity":0.7874015748031497},{"duration":0.1999999999999993,"durationTicks":480,"midi":60,"name":"C4","ticks":72960,"time":29.508568,"velocity":0.7874015748031497},{"duration":0.1999999999999993,"durationTicks":480,"midi":71,"name":"B4","ticks":72960,"time":29.508568,"velocity":0.7874015748031497},{"duration":0.1999999999999993,"durationTicks":480,"midi":67,"name":"G4","ticks":72960,"time":29.508568,"velocity":0.7874015748031497},{"duration":0.20000000000000284,"durationTicks":480,"midi":60,"name":"C4","ticks":73920,"time":29.908568,"velocity":0.7874015748031497},{"duration":0.20000000000000284,"durationTicks":480,"midi":71,"name":"B4","ticks":73920,"time":29.908568,"velocity":0.7874015748031497},{"duration":0.20000000000000284,"durationTicks":480,"midi":67,"name":"G4","ticks":73920,"time":29.908568,"velocity":0.7874015748031497},{"duration":0.23333333333333073,"durationTicks":560,"midi":60,"name":"C4","ticks":75360,"time":30.508568,"velocity":0.7874015748031497},{"duration":0.23333333333333073,"durationTicks":560,"midi":71,"name":"B4","ticks":75360,"time":30.508568,"velocity":0.7874015748031497},{"duration":0.23333333333333073,"durationTicks":560,"midi":67,"name":"G4","ticks":75360,"time":30.508568,"velocity":0.7874015748031497},{"duration":0.40000000000000213,"durationTicks":960,"midi":60,"name":"C4","ticks":76320,"time":30.908568,"velocity":0.7874015748031497},{"duration":0.40000000000000213,"durationTicks":960,"midi":71,"name":"B4","ticks":76320,"time":30.908568,"velocity":0.7874015748031497},{"duration":0.40000000000000213,"durationTicks":960,"midi":67,"name":"G4","ticks":76320,"time":30.908568,"velocity":0.7874015748031497},{"duration":0.1999999999999993,"durationTicks":480,"midi":59,"name":"B3","ticks":77280,"time":31.308568,"velocity":0.7874015748031497},{"duration":0.1999999999999993,"durationTicks":480,"midi":71,"name":"B4","ticks":77280,"time":31.308568,"velocity":0.7874015748031497},{"duration":0.1999999999999993,"durationTicks":480,"midi":67,"name":"G4","ticks":77280,"time":31.308568,"velocity":0.7874015748031497},{"duration":0.3999999999999986,"durationTicks":960,"midi":59,"name":"B3","ticks":77760,"time":31.508568,"velocity":0.7874015748031497},{"duration":0.3999999999999986,"durationTicks":960,"midi":71,"name":"B4","ticks":77760,"time":31.508568,"velocity":0.7874015748031497},{"duration":0.3999999999999986,"durationTicks":960,"midi":67,"name":"G4","ticks":77760,"time":31.508568,"velocity":0.7874015748031497},{"duration":0.2000000000000064,"durationTicks":480,"midi":64,"name":"E4","ticks":78720,"time":31.908568,"velocity":0.7874015748031497},{"duration":0.2000000000000064,"durationTicks":480,"midi":71,"name":"B4","ticks":78720,"time":31.908568,"velocity":0.7874015748031497},{"duration":0.2000000000000064,"durationTicks":480,"midi":67,"name":"G4","ticks":78720,"time":31.908568,"velocity":0.7874015748031497},{"duration":0.20000000000000284,"durationTicks":480,"midi":64,"name":"E4","ticks":79680,"time":32.308568,"velocity":0.7874015748031497},{"duration":0.3999999999999986,"durationTicks":960,"midi":71,"name":"B4","ticks":79680,"time":32.308568,"velocity":0.7874015748031497},{"duration":0.3999999999999986,"durationTicks":960,"midi":67,"name":"G4","ticks":79680,"time":32.308568,"velocity":0.7874015748031497},{"duration":0.30000000000000426,"durationTicks":720,"midi":66,"name":"F#4","ticks":80640,"time":32.708568,"velocity":0.7874015748031497},{"duration":0.30000000000000426,"durationTicks":720,"midi":61,"name":"C#4","ticks":80640,"time":32.708568,"velocity":0.7874015748031497},{"duration":0.30000000000000426,"durationTicks":720,"midi":69,"name":"A4","ticks":80640,"time":32.708568,"velocity":0.7874015748031497},{"duration":0.29999999999999716,"durationTicks":720,"midi":66,"name":"F#4","ticks":81600,"time":33.108568000000005,"velocity":0.7874015748031497},{"duration":0.29999999999999716,"durationTicks":720,"midi":61,"name":"C#4","ticks":81600,"time":33.108568000000005,"velocity":0.7874015748031497},{"duration":0.29999999999999716,"durationTicks":720,"midi":69,"name":"A4","ticks":81600,"time":33.108568000000005,"velocity":0.7874015748031497},{"duration":0.14999999999999858,"durationTicks":360,"midi":71,"name":"B4","ticks":82560,"time":33.508568000000004,"velocity":0.7874015748031497},{"duration":0.14999999999999858,"durationTicks":360,"midi":68,"name":"G#4","ticks":82560,"time":33.508568000000004,"velocity":0.7874015748031497},{"duration":0.14999999999999858,"durationTicks":360,"midi":63,"name":"D#4","ticks":82560,"time":33.508568000000004,"velocity":0.7874015748031497},{"duration":0.23333333333333428,"durationTicks":560,"midi":63,"name":"D#4","ticks":83040,"time":33.708568,"velocity":0.7874015748031497},{"duration":0.23333333333333428,"durationTicks":560,"midi":71,"name":"B4","ticks":83040,"time":33.708568,"velocity":0.7874015748031497},{"duration":0.23333333333333428,"durationTicks":560,"midi":68,"name":"G#4","ticks":83040,"time":33.708568,"velocity":0.7874015748031497},{"duration":0.3499999999999943,"durationTicks":840,"midi":69,"name":"A4","ticks":84000,"time":34.108568000000005,"velocity":0.7874015748031497},{"duration":0.3499999999999943,"durationTicks":840,"midi":64,"name":"E4","ticks":84000,"time":34.108568000000005,"velocity":0.7874015748031497},{"duration":0.3499999999999943,"durationTicks":840,"midi":73,"name":"C#5","ticks":84000,"time":34.108568000000005,"velocity":0.7874015748031497},{"duration":0.14999999999999858,"durationTicks":360,"midi":69,"name":"A4","ticks":84960,"time":34.508568000000004,"velocity":0.7874015748031497},{"duration":0.14999999999999858,"durationTicks":360,"midi":64,"name":"E4","ticks":84960,"time":34.508568000000004,"velocity":0.7874015748031497},{"duration":0.14999999999999858,"durationTicks":360,"midi":73,"name":"C#5","ticks":84960,"time":34.508568000000004,"velocity":0.7874015748031497},{"duration":0.3500000000000014,"durationTicks":840,"midi":69,"name":"A4","ticks":85440,"time":34.708568,"velocity":0.7874015748031497},{"duration":0.3500000000000014,"durationTicks":840,"midi":64,"name":"E4","ticks":85440,"time":34.708568,"velocity":0.7874015748031497},{"duration":0.3500000000000014,"durationTicks":840,"midi":73,"name":"C#5","ticks":85440,"time":34.708568,"velocity":0.7874015748031497},{"duration":0.29999999999999716,"durationTicks":720,"midi":69,"name":"A4","ticks":86400,"time":35.108568000000005,"velocity":0.7874015748031497},{"duration":0.29999999999999716,"durationTicks":720,"midi":73,"name":"C#5","ticks":86400,"time":35.108568000000005,"velocity":0.7874015748031497},{"duration":0.29999999999999716,"durationTicks":720,"midi":66,"name":"F#4","ticks":86400,"time":35.108568000000005,"velocity":0.7874015748031497},{"duration":0.29999999999999716,"durationTicks":720,"midi":69,"name":"A4","ticks":87360,"time":35.508568000000004,"velocity":0.7874015748031497},{"duration":0.29999999999999716,"durationTicks":720,"midi":73,"name":"C#5","ticks":87360,"time":35.508568000000004,"velocity":0.7874015748031497},{"duration":0.29999999999999716,"durationTicks":720,"midi":66,"name":"F#4","ticks":87360,"time":35.508568000000004,"velocity":0.7874015748031497},{"duration":0.06666666666666288,"durationTicks":160,"midi":64,"name":"E4","ticks":150240,"time":61.70856800000001,"velocity":0.7874015748031497},{"duration":0.06666666666666288,"durationTicks":160,"midi":67,"name":"G4","ticks":150240,"time":61.70856800000001,"velocity":0.7874015748031497},{"duration":0.06666666666666288,"durationTicks":160,"midi":71,"name":"B4","ticks":150240,"time":61.70856800000001,"velocity":0.7874015748031497},{"duration":0.06666666666666288,"durationTicks":160,"midi":71,"name":"B4","ticks":151200,"time":62.108568000000005,"velocity":0.7874015748031497},{"duration":0.06666666666666288,"durationTicks":160,"midi":67,"name":"G4","ticks":151200,"time":62.108568000000005,"velocity":0.7874015748031497},{"duration":0.06666666666666288,"durationTicks":160,"midi":64,"name":"E4","ticks":151200,"time":62.108568000000005,"velocity":0.7874015748031497},{"duration":0.06666666666666288,"durationTicks":160,"midi":64,"name":"E4","ticks":152160,"time":62.508568000000004,"velocity":0.7874015748031497},{"duration":0.06666666666666288,"durationTicks":160,"midi":67,"name":"G4","ticks":152160,"time":62.508568000000004,"velocity":0.7874015748031497},{"duration":0.06666666666666288,"durationTicks":160,"midi":72,"name":"C5","ticks":152160,"time":62.508568000000004,"velocity":0.7874015748031497},{"duration":0.06666666666666288,"durationTicks":160,"midi":64,"name":"E4","ticks":153120,"time":62.908568,"velocity":0.7874015748031497},{"duration":0.06666666666666288,"durationTicks":160,"midi":67,"name":"G4","ticks":153120,"time":62.908568,"velocity":0.7874015748031497},{"duration":0.06666666666666288,"durationTicks":160,"midi":72,"name":"C5","ticks":153120,"time":62.908568,"velocity":0.7874015748031497},{"duration":0.06666666666666288,"durationTicks":160,"midi":64,"name":"E4","ticks":154080,"time":63.30856800000001,"velocity":0.7874015748031497},{"duration":0.06666666666666288,"durationTicks":160,"midi":72,"name":"C5","ticks":154080,"time":63.30856800000001,"velocity":0.7874015748031497},{"duration":0.06666666666666288,"durationTicks":160,"midi":69,"name":"A4","ticks":154080,"time":63.30856800000001,"velocity":0.7874015748031497},{"duration":0.06666666666666288,"durationTicks":160,"midi":64,"name":"E4","ticks":155040,"time":63.70856800000001,"velocity":0.7874015748031497},{"duration":0.06666666666666288,"durationTicks":160,"midi":69,"name":"A4","ticks":155040,"time":63.70856800000001,"velocity":0.7874015748031497},{"duration":0.06666666666666288,"durationTicks":160,"midi":72,"name":"C5","ticks":155040,"time":63.70856800000001,"velocity":0.7874015748031497},{"duration":0.06666666666666288,"durationTicks":160,"midi":64,"name":"E4","ticks":156000,"time":64.108568,"velocity":0.7874015748031497},{"duration":0.06666666666666288,"durationTicks":160,"midi":67,"name":"G4","ticks":156000,"time":64.108568,"velocity":0.7874015748031497},{"duration":0.06666666666666288,"durationTicks":160,"midi":71,"name":"B4","ticks":156000,"time":64.108568,"velocity":0.7874015748031497},{"duration":0.06666666666666288,"durationTicks":160,"midi":64,"name":"E4","ticks":156960,"time":64.508568,"velocity":0.7874015748031497},{"duration":0.06666666666666288,"durationTicks":160,"midi":67,"name":"G4","ticks":156960,"time":64.508568,"velocity":0.7874015748031497},{"duration":0.06666666666666288,"durationTicks":160,"midi":71,"name":"B4","ticks":156960,"time":64.508568,"velocity":0.7874015748031497},{"duration":0.06666666666666288,"durationTicks":160,"midi":64,"name":"E4","ticks":157920,"time":64.908568,"velocity":0.7874015748031497},{"duration":0.06666666666666288,"durationTicks":160,"midi":68,"name":"G#4","ticks":157920,"time":64.908568,"velocity":0.7874015748031497},{"duration":0.06666666666666288,"durationTicks":160,"midi":61,"name":"C#4","ticks":157920,"time":64.908568,"velocity":0.7874015748031497},{"duration":0.06666666666666288,"durationTicks":160,"midi":61,"name":"C#4","ticks":158880,"time":65.30856800000001,"velocity":0.7874015748031497},{"duration":0.06666666666666288,"durationTicks":160,"midi":64,"name":"E4","ticks":158880,"time":65.30856800000001,"velocity":0.7874015748031497},{"duration":0.06666666666666288,"durationTicks":160,"midi":68,"name":"G#4","ticks":158880,"time":65.30856800000001,"velocity":0.7874015748031497},{"duration":0.06666666666666288,"durationTicks":160,"midi":64,"name":"E4","ticks":159840,"time":65.708568,"velocity":0.7874015748031497},{"duration":0.06666666666666288,"durationTicks":160,"midi":68,"name":"G#4","ticks":159840,"time":65.708568,"velocity":0.7874015748031497},{"duration":0.06666666666666288,"durationTicks":160,"midi":73,"name":"C#5","ticks":159840,"time":65.708568,"velocity":0.7874015748031497},{"duration":0.06666666666666288,"durationTicks":160,"midi":64,"name":"E4","ticks":160800,"time":66.108568,"velocity":0.7874015748031497},{"duration":0.06666666666666288,"durationTicks":160,"midi":68,"name":"G#4","ticks":160800,"time":66.108568,"velocity":0.7874015748031497},{"duration":0.06666666666666288,"durationTicks":160,"midi":73,"name":"C#5","ticks":160800,"time":66.108568,"velocity":0.7874015748031497},{"duration":0.06666666666666288,"durationTicks":160,"midi":64,"name":"E4","ticks":161760,"time":66.508568,"velocity":0.7874015748031497},{"duration":0.06666666666666288,"durationTicks":160,"midi":67,"name":"G4","ticks":161760,"time":66.508568,"velocity":0.7874015748031497},{"duration":0.06666666666666288,"durationTicks":160,"midi":71,"name":"B4","ticks":161760,"time":66.508568,"velocity":0.7874015748031497},{"duration":0.06666666666666288,"durationTicks":160,"midi":64,"name":"E4","ticks":162720,"time":66.908568,"velocity":0.7874015748031497},{"duration":0.06666666666666288,"durationTicks":160,"midi":67,"name":"G4","ticks":162720,"time":66.908568,"velocity":0.7874015748031497},{"duration":0.06666666666666288,"durationTicks":160,"midi":71,"name":"B4","ticks":162720,"time":66.908568,"velocity":0.7874015748031497},{"duration":0.06666666666666288,"durationTicks":160,"midi":69,"name":"A4","ticks":163680,"time":67.30856800000001,"velocity":0.7874015748031497},{"duration":0.06666666666666288,"durationTicks":160,"midi":66,"name":"F#4","ticks":163680,"time":67.30856800000001,"velocity":0.7874015748031497},{"duration":0.06666666666666288,"durationTicks":160,"midi":62,"name":"D4","ticks":163680,"time":67.30856800000001,"velocity":0.7874015748031497},{"duration":0.06666666666666288,"durationTicks":160,"midi":69,"name":"A4","ticks":164640,"time":67.708568,"velocity":0.7874015748031497},{"duration":0.06666666666666288,"durationTicks":160,"midi":66,"name":"F#4","ticks":164640,"time":67.708568,"velocity":0.7874015748031497},{"duration":0.06666666666666288,"durationTicks":160,"midi":62,"name":"D4","ticks":164640,"time":67.708568,"velocity":0.7874015748031497},{"duration":0.06666666666666288,"durationTicks":160,"midi":64,"name":"E4","ticks":165600,"time":68.108568,"velocity":0.7874015748031497},{"duration":0.06666666666666288,"durationTicks":160,"midi":67,"name":"G4","ticks":165600,"time":68.108568,"velocity":0.7874015748031497},{"duration":0.06666666666666288,"durationTicks":160,"midi":71,"name":"B4","ticks":165600,"time":68.108568,"velocity":0.7874015748031497},{"duration":0.06666666666666288,"durationTicks":160,"midi":71,"name":"B4","ticks":166560,"time":68.50856800000001,"velocity":0.7874015748031497},{"duration":0.06666666666666288,"durationTicks":160,"midi":67,"name":"G4","ticks":166560,"time":68.50856800000001,"velocity":0.7874015748031497},{"duration":0.06666666666666288,"durationTicks":160,"midi":64,"name":"E4","ticks":166560,"time":68.50856800000001,"velocity":0.7874015748031497},{"duration":0.06666666666666288,"durationTicks":160,"midi":64,"name":"E4","ticks":167520,"time":68.908568,"velocity":0.7874015748031497},{"duration":0.06666666666666288,"durationTicks":160,"midi":67,"name":"G4","ticks":167520,"time":68.908568,"velocity":0.7874015748031497},{"duration":0.06666666666666288,"durationTicks":160,"midi":72,"name":"C5","ticks":167520,"time":68.908568,"velocity":0.7874015748031497},{"duration":0.06666666666666288,"durationTicks":160,"midi":64,"name":"E4","ticks":168480,"time":69.30856800000001,"velocity":0.7874015748031497},{"duration":0.06666666666666288,"durationTicks":160,"midi":67,"name":"G4","ticks":168480,"time":69.30856800000001,"velocity":0.7874015748031497},{"duration":0.06666666666666288,"durationTicks":160,"midi":72,"name":"C5","ticks":168480,"time":69.30856800000001,"velocity":0.7874015748031497},{"duration":0.06666666666666288,"durationTicks":160,"midi":64,"name":"E4","ticks":169440,"time":69.708568,"velocity":0.7874015748031497},{"duration":0.06666666666666288,"durationTicks":160,"midi":72,"name":"C5","ticks":169440,"time":69.708568,"velocity":0.7874015748031497},{"duration":0.06666666666666288,"durationTicks":160,"midi":69,"name":"A4","ticks":169440,"time":69.708568,"velocity":0.7874015748031497},{"duration":0.06666666666666288,"durationTicks":160,"midi":64,"name":"E4","ticks":170400,"time":70.108568,"velocity":0.7874015748031497},{"duration":0.06666666666666288,"durationTicks":160,"midi":69,"name":"A4","ticks":170400,"time":70.108568,"velocity":0.7874015748031497},{"duration":0.06666666666666288,"durationTicks":160,"midi":72,"name":"C5","ticks":170400,"time":70.108568,"velocity":0.7874015748031497},{"duration":0.06666666666666288,"durationTicks":160,"midi":64,"name":"E4","ticks":171360,"time":70.50856800000001,"velocity":0.7874015748031497},{"duration":0.06666666666666288,"durationTicks":160,"midi":67,"name":"G4","ticks":171360,"time":70.50856800000001,"velocity":0.7874015748031497},{"duration":0.06666666666666288,"durationTicks":160,"midi":71,"name":"B4","ticks":171360,"time":70.50856800000001,"velocity":0.7874015748031497},{"duration":0.06666666666666288,"durationTicks":160,"midi":64,"name":"E4","ticks":172320,"time":70.908568,"velocity":0.7874015748031497},{"duration":0.06666666666666288,"durationTicks":160,"midi":67,"name":"G4","ticks":172320,"time":70.908568,"velocity":0.7874015748031497},{"duration":0.06666666666666288,"durationTicks":160,"midi":71,"name":"B4","ticks":172320,"time":70.908568,"velocity":0.7874015748031497},{"duration":0.06666666666666288,"durationTicks":160,"midi":67,"name":"G4","ticks":173280,"time":71.30856800000001,"velocity":0.7874015748031497},{"duration":0.06666666666666288,"durationTicks":160,"midi":64,"name":"E4","ticks":173280,"time":71.30856800000001,"velocity":0.7874015748031497},{"duration":0.06666666666666288,"durationTicks":160,"midi":71,"name":"B4","ticks":173280,"time":71.30856800000001,"velocity":0.7874015748031497},{"duration":0.06666666666666288,"durationTicks":160,"midi":67,"name":"G4","ticks":174240,"time":71.708568,"velocity":0.7874015748031497},{"duration":0.06666666666666288,"durationTicks":160,"midi":71,"name":"B4","ticks":174240,"time":71.708568,"velocity":0.7874015748031497},{"duration":0.06666666666666288,"durationTicks":160,"midi":64,"name":"E4","ticks":174240,"time":71.708568,"velocity":0.7874015748031497},{"duration":0.06666666666666288,"durationTicks":160,"midi":62,"name":"D4","ticks":175200,"time":72.108568,"velocity":0.7874015748031497},{"duration":0.06666666666666288,"durationTicks":160,"midi":69,"name":"A4","ticks":175200,"time":72.108568,"velocity":0.7874015748031497},{"duration":0.06666666666666288,"durationTicks":160,"midi":66,"name":"F#4","ticks":175200,"time":72.108568,"velocity":0.7874015748031497},{"duration":0.06666666666666288,"durationTicks":160,"midi":69,"name":"A4","ticks":176160,"time":72.50856800000001,"velocity":0.7874015748031497},{"duration":0.06666666666666288,"durationTicks":160,"midi":62,"name":"D4","ticks":176160,"time":72.50856800000001,"velocity":0.7874015748031497},{"duration":0.06666666666666288,"durationTicks":160,"midi":66,"name":"F#4","ticks":176160,"time":72.50856800000001,"velocity":0.7874015748031497},{"duration":0.06666666666666288,"durationTicks":160,"midi":66,"name":"F#4","ticks":177120,"time":72.908568,"velocity":0.7874015748031497},{"duration":0.06666666666666288,"durationTicks":160,"midi":62,"name":"D4","ticks":177120,"time":72.908568,"velocity":0.7874015748031497},{"duration":0.06666666666666288,"durationTicks":160,"midi":71,"name":"B4","ticks":177120,"time":72.908568,"velocity":0.7874015748031497},{"duration":0.06666666666666288,"durationTicks":160,"midi":66,"name":"F#4","ticks":178080,"time":73.30856800000001,"velocity":0.7874015748031497},{"duration":0.06666666666666288,"durationTicks":160,"midi":62,"name":"D4","ticks":178080,"time":73.30856800000001,"velocity":0.7874015748031497},{"duration":0.06666666666666288,"durationTicks":160,"midi":69,"name":"A4","ticks":178080,"time":73.30856800000001,"velocity":0.7874015748031497},{"duration":0.06666666666666288,"durationTicks":160,"midi":68,"name":"G#4","ticks":179040,"time":73.708568,"velocity":0.7874015748031497},{"duration":0.06666666666666288,"durationTicks":160,"midi":64,"name":"E4","ticks":179040,"time":73.708568,"velocity":0.7874015748031497},{"duration":0.06666666666666288,"durationTicks":160,"midi":71,"name":"B4","ticks":179040,"time":73.708568,"velocity":0.7874015748031497},{"duration":0.06666666666666288,"durationTicks":160,"midi":68,"name":"G#4","ticks":180000,"time":74.108568,"velocity":0.7874015748031497},{"duration":0.06666666666666288,"durationTicks":160,"midi":64,"name":"E4","ticks":180000,"time":74.108568,"velocity":0.7874015748031497},{"duration":0.06666666666666288,"durationTicks":160,"midi":71,"name":"B4","ticks":180000,"time":74.108568,"velocity":0.7874015748031497},{"duration":0.06666666666666288,"durationTicks":160,"midi":64,"name":"E4","ticks":180960,"time":74.50856800000001,"velocity":0.7874015748031497},{"duration":0.06666666666666288,"durationTicks":160,"midi":67,"name":"G4","ticks":180960,"time":74.50856800000001,"velocity":0.7874015748031497},{"duration":0.06666666666666288,"durationTicks":160,"midi":71,"name":"B4","ticks":180960,"time":74.50856800000001,"velocity":0.7874015748031497},{"duration":0.06666666666666288,"durationTicks":160,"midi":71,"name":"B4","ticks":181920,"time":74.908568,"velocity":0.7874015748031497},{"duration":0.06666666666666288,"durationTicks":160,"midi":67,"name":"G4","ticks":181920,"time":74.908568,"velocity":0.7874015748031497},{"duration":0.06666666666666288,"durationTicks":160,"midi":64,"name":"E4","ticks":181920,"time":74.908568,"velocity":0.7874015748031497},{"duration":0.06666666666666288,"durationTicks":160,"midi":64,"name":"E4","ticks":182880,"time":75.30856800000001,"velocity":0.7874015748031497},{"duration":0.06666666666666288,"durationTicks":160,"midi":67,"name":"G4","ticks":182880,"time":75.30856800000001,"velocity":0.7874015748031497},{"duration":0.06666666666666288,"durationTicks":160,"midi":72,"name":"C5","ticks":182880,"time":75.30856800000001,"velocity":0.7874015748031497},{"duration":0.06666666666666288,"durationTicks":160,"midi":64,"name":"E4","ticks":183840,"time":75.708568,"velocity":0.7874015748031497},{"duration":0.06666666666666288,"durationTicks":160,"midi":67,"name":"G4","ticks":183840,"time":75.708568,"velocity":0.7874015748031497},{"duration":0.06666666666666288,"durationTicks":160,"midi":72,"name":"C5","ticks":183840,"time":75.708568,"velocity":0.7874015748031497},{"duration":0.06666666666666288,"durationTicks":160,"midi":64,"name":"E4","ticks":184800,"time":76.108568,"velocity":0.7874015748031497},{"duration":0.06666666666666288,"durationTicks":160,"midi":72,"name":"C5","ticks":184800,"time":76.108568,"velocity":0.7874015748031497},{"duration":0.06666666666666288,"durationTicks":160,"midi":69,"name":"A4","ticks":184800,"time":76.108568,"velocity":0.7874015748031497},{"duration":0.06666666666666288,"durationTicks":160,"midi":64,"name":"E4","ticks":185760,"time":76.50856800000001,"velocity":0.7874015748031497},{"duration":0.06666666666666288,"durationTicks":160,"midi":69,"name":"A4","ticks":185760,"time":76.50856800000001,"velocity":0.7874015748031497},{"duration":0.06666666666666288,"durationTicks":160,"midi":72,"name":"C5","ticks":185760,"time":76.50856800000001,"velocity":0.7874015748031497},{"duration":0.06666666666666288,"durationTicks":160,"midi":64,"name":"E4","ticks":186720,"time":76.908568,"velocity":0.7874015748031497},{"duration":0.06666666666666288,"durationTicks":160,"midi":67,"name":"G4","ticks":186720,"time":76.908568,"velocity":0.7874015748031497},{"duration":0.06666666666666288,"durationTicks":160,"midi":71,"name":"B4","ticks":186720,"time":76.908568,"velocity":0.7874015748031497},{"duration":0.06666666666666288,"durationTicks":160,"midi":64,"name":"E4","ticks":187680,"time":77.30856800000001,"velocity":0.7874015748031497},{"duration":0.06666666666666288,"durationTicks":160,"midi":67,"name":"G4","ticks":187680,"time":77.30856800000001,"velocity":0.7874015748031497},{"duration":0.06666666666666288,"durationTicks":160,"midi":71,"name":"B4","ticks":187680,"time":77.30856800000001,"velocity":0.7874015748031497},{"duration":0.06666666666666288,"durationTicks":160,"midi":64,"name":"E4","ticks":188640,"time":77.708568,"velocity":0.7874015748031497},{"duration":0.06666666666666288,"durationTicks":160,"midi":68,"name":"G#4","ticks":188640,"time":77.708568,"velocity":0.7874015748031497},{"duration":0.06666666666666288,"durationTicks":160,"midi":61,"name":"C#4","ticks":188640,"time":77.708568,"velocity":0.7874015748031497},{"duration":0.06666666666666288,"durationTicks":160,"midi":61,"name":"C#4","ticks":189600,"time":78.108568,"velocity":0.7874015748031497},{"duration":0.06666666666666288,"durationTicks":160,"midi":64,"name":"E4","ticks":189600,"time":78.108568,"velocity":0.7874015748031497},{"duration":0.06666666666666288,"durationTicks":160,"midi":68,"name":"G#4","ticks":189600,"time":78.108568,"velocity":0.7874015748031497},{"duration":0.06666666666666288,"durationTicks":160,"midi":64,"name":"E4","ticks":190560,"time":78.50856800000001,"velocity":0.7874015748031497},{"duration":0.06666666666666288,"durationTicks":160,"midi":68,"name":"G#4","ticks":190560,"time":78.50856800000001,"velocity":0.7874015748031497},{"duration":0.06666666666666288,"durationTicks":160,"midi":73,"name":"C#5","ticks":190560,"time":78.50856800000001,"velocity":0.7874015748031497},{"duration":0.06666666666666288,"durationTicks":160,"midi":64,"name":"E4","ticks":191520,"time":78.908568,"velocity":0.7874015748031497},{"duration":0.06666666666666288,"durationTicks":160,"midi":68,"name":"G#4","ticks":191520,"time":78.908568,"velocity":0.7874015748031497},{"duration":0.06666666666666288,"durationTicks":160,"midi":73,"name":"C#5","ticks":191520,"time":78.908568,"velocity":0.7874015748031497},{"duration":0.06666666666666288,"durationTicks":160,"midi":64,"name":"E4","ticks":192480,"time":79.30856800000001,"velocity":0.7874015748031497},{"duration":0.06666666666666288,"durationTicks":160,"midi":67,"name":"G4","ticks":192480,"time":79.30856800000001,"velocity":0.7874015748031497},{"duration":0.06666666666666288,"durationTicks":160,"midi":71,"name":"B4","ticks":192480,"time":79.30856800000001,"velocity":0.7874015748031497},{"duration":0.06666666666666288,"durationTicks":160,"midi":64,"name":"E4","ticks":193440,"time":79.708568,"velocity":0.7874015748031497},{"duration":0.06666666666666288,"durationTicks":160,"midi":67,"name":"G4","ticks":193440,"time":79.708568,"velocity":0.7874015748031497},{"duration":0.06666666666666288,"durationTicks":160,"midi":71,"name":"B4","ticks":193440,"time":79.708568,"velocity":0.7874015748031497},{"duration":0.06666666666666288,"durationTicks":160,"midi":69,"name":"A4","ticks":194400,"time":80.108568,"velocity":0.7874015748031497},{"duration":0.06666666666666288,"durationTicks":160,"midi":66,"name":"F#4","ticks":194400,"time":80.108568,"velocity":0.7874015748031497},{"duration":0.06666666666666288,"durationTicks":160,"midi":62,"name":"D4","ticks":194400,"time":80.108568,"velocity":0.7874015748031497},{"duration":0.06666666666666288,"durationTicks":160,"midi":69,"name":"A4","ticks":195360,"time":80.50856800000001,"velocity":0.7874015748031497},{"duration":0.06666666666666288,"durationTicks":160,"midi":66,"name":"F#4","ticks":195360,"time":80.50856800000001,"velocity":0.7874015748031497},{"duration":0.06666666666666288,"durationTicks":160,"midi":62,"name":"D4","ticks":195360,"time":80.50856800000001,"velocity":0.7874015748031497},{"duration":0.06666666666666288,"durationTicks":160,"midi":64,"name":"E4","ticks":196320,"time":80.908568,"velocity":0.7874015748031497},{"duration":0.06666666666666288,"durationTicks":160,"midi":67,"name":"G4","ticks":196320,"time":80.908568,"velocity":0.7874015748031497},{"duration":0.06666666666666288,"durationTicks":160,"midi":71,"name":"B4","ticks":196320,"time":80.908568,"velocity":0.7874015748031497},{"duration":0.06666666666666288,"durationTicks":160,"midi":71,"name":"B4","ticks":197280,"time":81.30856800000001,"velocity":0.7874015748031497},{"duration":0.06666666666666288,"durationTicks":160,"midi":67,"name":"G4","ticks":197280,"time":81.30856800000001,"velocity":0.7874015748031497},{"duration":0.06666666666666288,"durationTicks":160,"midi":64,"name":"E4","ticks":197280,"time":81.30856800000001,"velocity":0.7874015748031497},{"duration":0.06666666666666288,"durationTicks":160,"midi":64,"name":"E4","ticks":198240,"time":81.70856800000001,"velocity":0.7874015748031497},{"duration":0.06666666666666288,"durationTicks":160,"midi":67,"name":"G4","ticks":198240,"time":81.70856800000001,"velocity":0.7874015748031497},{"duration":0.06666666666666288,"durationTicks":160,"midi":72,"name":"C5","ticks":198240,"time":81.70856800000001,"velocity":0.7874015748031497},{"duration":0.06666666666666288,"durationTicks":160,"midi":64,"name":"E4","ticks":199200,"time":82.108568,"velocity":0.7874015748031497},{"duration":0.06666666666666288,"durationTicks":160,"midi":67,"name":"G4","ticks":199200,"time":82.108568,"velocity":0.7874015748031497},{"duration":0.06666666666666288,"durationTicks":160,"midi":72,"name":"C5","ticks":199200,"time":82.108568,"velocity":0.7874015748031497},{"duration":0.06666666666666288,"durationTicks":160,"midi":64,"name":"E4","ticks":200160,"time":82.50856800000001,"velocity":0.7795275590551181},{"duration":0.06666666666666288,"durationTicks":160,"midi":72,"name":"C5","ticks":200160,"time":82.50856800000001,"velocity":0.7795275590551181},{"duration":0.06666666666666288,"durationTicks":160,"midi":69,"name":"A4","ticks":200160,"time":82.50856800000001,"velocity":0.7795275590551181},{"duration":0.06666666666666288,"durationTicks":160,"midi":64,"name":"E4","ticks":201120,"time":82.908568,"velocity":0.7007874015748031},{"duration":0.06666666666666288,"durationTicks":160,"midi":69,"name":"A4","ticks":201120,"time":82.908568,"velocity":0.7007874015748031},{"duration":0.06666666666666288,"durationTicks":160,"midi":72,"name":"C5","ticks":201120,"time":82.908568,"velocity":0.7007874015748031},{"duration":0.06666666666666288,"durationTicks":160,"midi":64,"name":"E4","ticks":202080,"time":83.30856800000001,"velocity":0.6220472440944882},{"duration":0.06666666666666288,"durationTicks":160,"midi":67,"name":"G4","ticks":202080,"time":83.30856800000001,"velocity":0.6220472440944882},{"duration":0.06666666666666288,"durationTicks":160,"midi":71,"name":"B4","ticks":202080,"time":83.30856800000001,"velocity":0.6220472440944882},{"duration":0.06666666666666288,"durationTicks":160,"midi":64,"name":"E4","ticks":203040,"time":83.70856800000001,"velocity":0.5354330708661418},{"duration":0.06666666666666288,"durationTicks":160,"midi":67,"name":"G4","ticks":203040,"time":83.70856800000001,"velocity":0.5354330708661418},{"duration":0.06666666666666288,"durationTicks":160,"midi":71,"name":"B4","ticks":203040,"time":83.70856800000001,"velocity":0.5354330708661418},{"duration":0.06666666666666288,"durationTicks":160,"midi":67,"name":"G4","ticks":204000,"time":84.108568,"velocity":0.4566929133858268},{"duration":0.06666666666666288,"durationTicks":160,"midi":64,"name":"E4","ticks":204000,"time":84.108568,"velocity":0.4566929133858268},{"duration":0.06666666666666288,"durationTicks":160,"midi":71,"name":"B4","ticks":204000,"time":84.108568,"velocity":0.4566929133858268},{"duration":0.06666666666666288,"durationTicks":160,"midi":67,"name":"G4","ticks":204960,"time":84.50856800000001,"velocity":0.3700787401574803},{"duration":0.06666666666666288,"durationTicks":160,"midi":71,"name":"B4","ticks":204960,"time":84.50856800000001,"velocity":0.3700787401574803},{"duration":0.06666666666666288,"durationTicks":160,"midi":64,"name":"E4","ticks":204960,"time":84.50856800000001,"velocity":0.3700787401574803},{"duration":0.06666666666666288,"durationTicks":160,"midi":62,"name":"D4","ticks":205920,"time":84.908568,"velocity":0.29133858267716534},{"duration":0.06666666666666288,"durationTicks":160,"midi":69,"name":"A4","ticks":205920,"time":84.908568,"velocity":0.29133858267716534},{"duration":0.06666666666666288,"durationTicks":160,"midi":66,"name":"F#4","ticks":205920,"time":84.908568,"velocity":0.29133858267716534},{"duration":0.06666666666666288,"durationTicks":160,"midi":69,"name":"A4","ticks":206880,"time":85.30856800000001,"velocity":0.2047244094488189},{"duration":0.06666666666666288,"durationTicks":160,"midi":62,"name":"D4","ticks":206880,"time":85.30856800000001,"velocity":0.2047244094488189},{"duration":0.06666666666666288,"durationTicks":160,"midi":66,"name":"F#4","ticks":206880,"time":85.30856800000001,"velocity":0.2047244094488189},{"duration":1,"durationTicks":2400,"midi":70,"name":"A#4","ticks":208800,"time":86.108568,"velocity":0.9448818897637795},{"duration":1,"durationTicks":2400,"midi":67,"name":"G4","ticks":208800,"time":86.108568,"velocity":0.9448818897637795},{"duration":1,"durationTicks":2400,"midi":62,"name":"D4","ticks":208800,"time":86.108568,"velocity":0.9448818897637795},{"duration":0.20000000000000284,"durationTicks":480,"midi":62,"name":"D4","ticks":211200,"time":87.108568,"velocity":0.7874015748031497},{"duration":0.20000000000000284,"durationTicks":480,"midi":71,"name":"B4","ticks":211200,"time":87.108568,"velocity":0.7874015748031497},{"duration":0.20000000000000284,"durationTicks":480,"midi":67,"name":"G4","ticks":211200,"time":87.108568,"velocity":0.7874015748031497},{"duration":0.20000000000000284,"durationTicks":480,"midi":62,"name":"D4","ticks":212160,"time":87.50856800000001,"velocity":0.7874015748031497},{"duration":0.20000000000000284,"durationTicks":480,"midi":71,"name":"B4","ticks":212160,"time":87.50856800000001,"velocity":0.7874015748031497},{"duration":0.20000000000000284,"durationTicks":480,"midi":67,"name":"G4","ticks":212160,"time":87.50856800000001,"velocity":0.7874015748031497},{"duration":0.20000000000000284,"durationTicks":480,"midi":62,"name":"D4","ticks":213600,"time":88.108568,"velocity":0.7874015748031497},{"duration":0.20000000000000284,"durationTicks":480,"midi":71,"name":"B4","ticks":213600,"time":88.108568,"velocity":0.7874015748031497},{"duration":0.20000000000000284,"durationTicks":480,"midi":67,"name":"G4","ticks":213600,"time":88.108568,"velocity":0.7874015748031497},{"duration":0.3999999999999915,"durationTicks":960,"midi":62,"name":"D4","ticks":214560,"time":88.50856800000001,"velocity":0.7874015748031497},{"duration":0.3999999999999915,"durationTicks":960,"midi":71,"name":"B4","ticks":214560,"time":88.50856800000001,"velocity":0.7874015748031497},{"duration":0.3999999999999915,"durationTicks":960,"midi":67,"name":"G4","ticks":214560,"time":88.50856800000001,"velocity":0.7874015748031497},{"duration":0.20000000000000284,"durationTicks":480,"midi":61,"name":"C#4","ticks":215520,"time":88.908568,"velocity":0.7874015748031497},{"duration":0.20000000000000284,"durationTicks":480,"midi":71,"name":"B4","ticks":215520,"time":88.908568,"velocity":0.7874015748031497},{"duration":0.20000000000000284,"durationTicks":480,"midi":67,"name":"G4","ticks":215520,"time":88.908568,"velocity":0.7874015748031497},{"duration":0.4000000000000057,"durationTicks":960,"midi":61,"name":"C#4","ticks":216000,"time":89.108568,"velocity":0.7874015748031497},{"duration":0.4000000000000057,"durationTicks":960,"midi":71,"name":"B4","ticks":216000,"time":89.108568,"velocity":0.7874015748031497},{"duration":0.4000000000000057,"durationTicks":960,"midi":67,"name":"G4","ticks":216000,"time":89.108568,"velocity":0.7874015748031497},{"duration":0.20000000000000284,"durationTicks":480,"midi":61,"name":"C#4","ticks":216960,"time":89.50856800000001,"velocity":0.7874015748031497},{"duration":0.20000000000000284,"durationTicks":480,"midi":71,"name":"B4","ticks":216960,"time":89.50856800000001,"velocity":0.7874015748031497},{"duration":0.20000000000000284,"durationTicks":480,"midi":67,"name":"G4","ticks":216960,"time":89.50856800000001,"velocity":0.7874015748031497},{"duration":0.20000000000000284,"durationTicks":480,"midi":61,"name":"C#4","ticks":217920,"time":89.908568,"velocity":0.7874015748031497},{"duration":0.20000000000000284,"durationTicks":480,"midi":71,"name":"B4","ticks":217920,"time":89.908568,"velocity":0.7874015748031497},{"duration":0.20000000000000284,"durationTicks":480,"midi":67,"name":"G4","ticks":217920,"time":89.908568,"velocity":0.7874015748031497},{"duration":0.20000000000000284,"durationTicks":480,"midi":62,"name":"D4","ticks":218880,"time":90.30856800000001,"velocity":0.7874015748031497},{"duration":0.20000000000000284,"durationTicks":480,"midi":71,"name":"B4","ticks":218880,"time":90.30856800000001,"velocity":0.7874015748031497},{"duration":0.20000000000000284,"durationTicks":480,"midi":67,"name":"G4","ticks":218880,"time":90.30856800000001,"velocity":0.7874015748031497},{"duration":0.19999999999998863,"durationTicks":480,"midi":62,"name":"D4","ticks":219840,"time":90.70856800000001,"velocity":0.7874015748031497},{"duration":0.19999999999998863,"durationTicks":480,"midi":71,"name":"B4","ticks":219840,"time":90.70856800000001,"velocity":0.7874015748031497},{"duration":0.19999999999998863,"durationTicks":480,"midi":67,"name":"G4","ticks":219840,"time":90.70856800000001,"velocity":0.7874015748031497},{"duration":0.20000000000000284,"durationTicks":480,"midi":62,"name":"D4","ticks":221280,"time":91.30856800000001,"velocity":0.7874015748031497},{"duration":0.20000000000000284,"durationTicks":480,"midi":71,"name":"B4","ticks":221280,"time":91.30856800000001,"velocity":0.7874015748031497},{"duration":0.20000000000000284,"durationTicks":480,"midi":67,"name":"G4","ticks":221280,"time":91.30856800000001,"velocity":0.7874015748031497},{"duration":0.3999999999999915,"durationTicks":960,"midi":62,"name":"D4","ticks":222240,"time":91.70856800000001,"velocity":0.7874015748031497},{"duration":0.3999999999999915,"durationTicks":960,"midi":71,"name":"B4","ticks":222240,"time":91.70856800000001,"velocity":0.7874015748031497},{"duration":0.3999999999999915,"durationTicks":960,"midi":67,"name":"G4","ticks":222240,"time":91.70856800000001,"velocity":0.7874015748031497},{"duration":0.20000000000000284,"durationTicks":480,"midi":60,"name":"C4","ticks":223200,"time":92.108568,"velocity":0.7874015748031497},{"duration":0.20000000000000284,"durationTicks":480,"midi":71,"name":"B4","ticks":223200,"time":92.108568,"velocity":0.7874015748031497},{"duration":0.20000000000000284,"durationTicks":480,"midi":67,"name":"G4","ticks":223200,"time":92.108568,"velocity":0.7874015748031497},{"duration":0.4000000000000057,"durationTicks":960,"midi":60,"name":"C4","ticks":223680,"time":92.30856800000001,"velocity":0.7874015748031497},{"duration":0.4000000000000057,"durationTicks":960,"midi":71,"name":"B4","ticks":223680,"time":92.30856800000001,"velocity":0.7874015748031497},{"duration":0.4000000000000057,"durationTicks":960,"midi":67,"name":"G4","ticks":223680,"time":92.30856800000001,"velocity":0.7874015748031497},{"duration":0.13333333333332575,"durationTicks":320,"midi":74,"name":"D5","ticks":224640,"time":92.70856800000001,"velocity":0.7874015748031497},{"duration":0.13333333333332575,"durationTicks":320,"midi":71,"name":"B4","ticks":224640,"time":92.70856800000001,"velocity":0.7874015748031497},{"duration":0.4000000000000057,"durationTicks":960,"midi":74,"name":"D5","ticks":225600,"time":93.108568,"velocity":0.7874015748031497},{"duration":0.4000000000000057,"durationTicks":960,"midi":71,"name":"B4","ticks":225600,"time":93.108568,"velocity":0.7874015748031497},{"duration":0.20000000000000284,"durationTicks":480,"midi":62,"name":"D4","ticks":226560,"time":93.50856800000001,"velocity":0.7874015748031497},{"duration":0.20000000000000284,"durationTicks":480,"midi":71,"name":"B4","ticks":226560,"time":93.50856800000001,"velocity":0.7874015748031497},{"duration":0.20000000000000284,"durationTicks":480,"midi":67,"name":"G4","ticks":226560,"time":93.50856800000001,"velocity":0.7874015748031497},{"duration":0.20000000000000284,"durationTicks":480,"midi":62,"name":"D4","ticks":227520,"time":93.908568,"velocity":0.7874015748031497},{"duration":0.20000000000000284,"durationTicks":480,"midi":71,"name":"B4","ticks":227520,"time":93.908568,"velocity":0.7874015748031497},{"duration":0.20000000000000284,"durationTicks":480,"midi":67,"name":"G4","ticks":227520,"time":93.908568,"velocity":0.7874015748031497},{"duration":0.23333333333333428,"durationTicks":560,"midi":62,"name":"D4","ticks":228960,"time":94.50856800000001,"velocity":0.7874015748031497},{"duration":0.23333333333333428,"durationTicks":560,"midi":71,"name":"B4","ticks":228960,"time":94.50856800000001,"velocity":0.7874015748031497},{"duration":0.23333333333333428,"durationTicks":560,"midi":67,"name":"G4","ticks":228960,"time":94.50856800000001,"velocity":0.7874015748031497},{"duration":0.4000000000000057,"durationTicks":960,"midi":62,"name":"D4","ticks":229920,"time":94.908568,"velocity":0.7874015748031497},{"duration":0.4000000000000057,"durationTicks":960,"midi":71,"name":"B4","ticks":229920,"time":94.908568,"velocity":0.7874015748031497},{"duration":0.4000000000000057,"durationTicks":960,"midi":67,"name":"G4","ticks":229920,"time":94.908568,"velocity":0.7874015748031497},{"duration":0.20000000000000284,"durationTicks":480,"midi":61,"name":"C#4","ticks":230880,"time":95.30856800000001,"velocity":0.7874015748031497},{"duration":0.20000000000000284,"durationTicks":480,"midi":71,"name":"B4","ticks":230880,"time":95.30856800000001,"velocity":0.7874015748031497},{"duration":0.20000000000000284,"durationTicks":480,"midi":67,"name":"G4","ticks":230880,"time":95.30856800000001,"velocity":0.7874015748031497},{"duration":0.3999999999999915,"durationTicks":960,"midi":61,"name":"C#4","ticks":231360,"time":95.50856800000001,"velocity":0.7874015748031497},{"duration":0.3999999999999915,"durationTicks":960,"midi":71,"name":"B4","ticks":231360,"time":95.50856800000001,"velocity":0.7874015748031497},{"duration":0.3999999999999915,"durationTicks":960,"midi":67,"name":"G4","ticks":231360,"time":95.50856800000001,"velocity":0.7874015748031497},{"duration":0.20000000000000284,"durationTicks":480,"midi":61,"name":"C#4","ticks":232320,"time":95.908568,"velocity":0.7874015748031497},{"duration":0.20000000000000284,"durationTicks":480,"midi":71,"name":"B4","ticks":232320,"time":95.908568,"velocity":0.7874015748031497},{"duration":0.20000000000000284,"durationTicks":480,"midi":67,"name":"G4","ticks":232320,"time":95.908568,"velocity":0.7874015748031497},{"duration":0.20000000000000284,"durationTicks":480,"midi":61,"name":"C#4","ticks":233280,"time":96.30856800000001,"velocity":0.7874015748031497},{"duration":0.20000000000000284,"durationTicks":480,"midi":71,"name":"B4","ticks":233280,"time":96.30856800000001,"velocity":0.7874015748031497},{"duration":0.20000000000000284,"durationTicks":480,"midi":67,"name":"G4","ticks":233280,"time":96.30856800000001,"velocity":0.7874015748031497},{"duration":0.19999999999998863,"durationTicks":480,"midi":62,"name":"D4","ticks":234240,"time":96.70856800000001,"velocity":0.7874015748031497},{"duration":0.19999999999998863,"durationTicks":480,"midi":71,"name":"B4","ticks":234240,"time":96.70856800000001,"velocity":0.7874015748031497},{"duration":0.19999999999998863,"durationTicks":480,"midi":67,"name":"G4","ticks":234240,"time":96.70856800000001,"velocity":0.7874015748031497},{"duration":0.20000000000000284,"durationTicks":480,"midi":62,"name":"D4","ticks":235200,"time":97.108568,"velocity":0.7874015748031497},{"duration":0.20000000000000284,"durationTicks":480,"midi":71,"name":"B4","ticks":235200,"time":97.108568,"velocity":0.7874015748031497},{"duration":0.20000000000000284,"durationTicks":480,"midi":67,"name":"G4","ticks":235200,"time":97.108568,"velocity":0.7874015748031497},{"duration":0.19999999999998863,"durationTicks":480,"midi":62,"name":"D4","ticks":236640,"time":97.70856800000001,"velocity":0.7874015748031497},{"duration":0.19999999999998863,"durationTicks":480,"midi":71,"name":"B4","ticks":236640,"time":97.70856800000001,"velocity":0.7874015748031497},{"duration":0.19999999999998863,"durationTicks":480,"midi":67,"name":"G4","ticks":236640,"time":97.70856800000001,"velocity":0.7874015748031497},{"duration":0.4000000000000057,"durationTicks":960,"midi":62,"name":"D4","ticks":237600,"time":98.108568,"velocity":0.7874015748031497},{"duration":0.4000000000000057,"durationTicks":960,"midi":71,"name":"B4","ticks":237600,"time":98.108568,"velocity":0.7874015748031497},{"duration":0.4000000000000057,"durationTicks":960,"midi":67,"name":"G4","ticks":237600,"time":98.108568,"velocity":0.7874015748031497},{"duration":0.20000000000000284,"durationTicks":480,"midi":60,"name":"C4","ticks":238560,"time":98.50856800000001,"velocity":0.7874015748031497},{"duration":0.20000000000000284,"durationTicks":480,"midi":71,"name":"B4","ticks":238560,"time":98.50856800000001,"velocity":0.7874015748031497},{"duration":0.20000000000000284,"durationTicks":480,"midi":67,"name":"G4","ticks":238560,"time":98.50856800000001,"velocity":0.7874015748031497},{"duration":0.3999999999999915,"durationTicks":960,"midi":60,"name":"C4","ticks":239040,"time":98.70856800000001,"velocity":0.7874015748031497},{"duration":0.3999999999999915,"durationTicks":960,"midi":71,"name":"B4","ticks":239040,"time":98.70856800000001,"velocity":0.7874015748031497},{"duration":0.3999999999999915,"durationTicks":960,"midi":67,"name":"G4","ticks":239040,"time":98.70856800000001,"velocity":0.7874015748031497},{"duration":0.23333333333333428,"durationTicks":560,"midi":59,"name":"B3","ticks":240000,"time":99.108568,"velocity":0.7874015748031497},{"duration":0.23333333333333428,"durationTicks":560,"midi":67,"name":"G4","ticks":240000,"time":99.108568,"velocity":0.7874015748031497},{"duration":0.23333333333333428,"durationTicks":560,"midi":71,"name":"B4","ticks":240000,"time":99.108568,"velocity":0.7874015748031497},{"duration":0.3999999999999915,"durationTicks":960,"midi":59,"name":"B3","ticks":240960,"time":99.50856800000001,"velocity":0.7874015748031497},{"duration":0.3999999999999915,"durationTicks":960,"midi":67,"name":"G4","ticks":240960,"time":99.50856800000001,"velocity":0.7874015748031497},{"duration":0.3999999999999915,"durationTicks":960,"midi":71,"name":"B4","ticks":240960,"time":99.50856800000001,"velocity":0.7874015748031497},{"duration":0.20000000000000284,"durationTicks":480,"midi":60,"name":"C4","ticks":241920,"time":99.908568,"velocity":0.7874015748031497},{"duration":0.20000000000000284,"durationTicks":480,"midi":71,"name":"B4","ticks":241920,"time":99.908568,"velocity":0.7874015748031497},{"duration":0.20000000000000284,"durationTicks":480,"midi":67,"name":"G4","ticks":241920,"time":99.908568,"velocity":0.7874015748031497},{"duration":0.20000000000000284,"durationTicks":480,"midi":60,"name":"C4","ticks":242880,"time":100.30856800000001,"velocity":0.7874015748031497},{"duration":0.20000000000000284,"durationTicks":480,"midi":71,"name":"B4","ticks":242880,"time":100.30856800000001,"velocity":0.7874015748031497},{"duration":0.20000000000000284,"durationTicks":480,"midi":67,"name":"G4","ticks":242880,"time":100.30856800000001,"velocity":0.7874015748031497},{"duration":0.2333333333333485,"durationTicks":560,"midi":60,"name":"C4","ticks":244320,"time":100.908568,"velocity":0.7874015748031497},{"duration":0.2333333333333485,"durationTicks":560,"midi":71,"name":"B4","ticks":244320,"time":100.908568,"velocity":0.7874015748031497},{"duration":0.2333333333333485,"durationTicks":560,"midi":67,"name":"G4","ticks":244320,"time":100.908568,"velocity":0.7874015748031497},{"duration":0.4000000000000057,"durationTicks":960,"midi":60,"name":"C4","ticks":245280,"time":101.30856800000001,"velocity":0.7874015748031497},{"duration":0.4000000000000057,"durationTicks":960,"midi":71,"name":"B4","ticks":245280,"time":101.30856800000001,"velocity":0.7874015748031497},{"duration":0.4000000000000057,"durationTicks":960,"midi":67,"name":"G4","ticks":245280,"time":101.30856800000001,"velocity":0.7874015748031497},{"duration":0.19999999999998863,"durationTicks":480,"midi":59,"name":"B3","ticks":246240,"time":101.70856800000001,"velocity":0.7874015748031497},{"duration":0.19999999999998863,"durationTicks":480,"midi":71,"name":"B4","ticks":246240,"time":101.70856800000001,"velocity":0.7874015748031497},{"duration":0.19999999999998863,"durationTicks":480,"midi":67,"name":"G4","ticks":246240,"time":101.70856800000001,"velocity":0.7874015748031497},{"duration":0.4000000000000057,"durationTicks":960,"midi":59,"name":"B3","ticks":246720,"time":101.908568,"velocity":0.7874015748031497},{"duration":0.4000000000000057,"durationTicks":960,"midi":71,"name":"B4","ticks":246720,"time":101.908568,"velocity":0.7874015748031497},{"duration":0.4000000000000057,"durationTicks":960,"midi":67,"name":"G4","ticks":246720,"time":101.908568,"velocity":0.7874015748031497},{"duration":0.20000000000000284,"durationTicks":480,"midi":64,"name":"E4","ticks":247680,"time":102.30856800000001,"velocity":0.7874015748031497},{"duration":0.20000000000000284,"durationTicks":480,"midi":71,"name":"B4","ticks":247680,"time":102.30856800000001,"velocity":0.7874015748031497},{"duration":0.20000000000000284,"durationTicks":480,"midi":67,"name":"G4","ticks":247680,"time":102.30856800000001,"velocity":0.7874015748031497},{"duration":0.19999999999998863,"durationTicks":480,"midi":64,"name":"E4","ticks":248640,"time":102.70856800000001,"velocity":0.7874015748031497},{"duration":0.3999999999999915,"durationTicks":960,"midi":71,"name":"B4","ticks":248640,"time":102.70856800000001,"velocity":0.7874015748031497},{"duration":0.3999999999999915,"durationTicks":960,"midi":67,"name":"G4","ticks":248640,"time":102.70856800000001,"velocity":0.7874015748031497},{"duration":0.20000000000000284,"durationTicks":480,"midi":60,"name":"C4","ticks":249600,"time":103.108568,"velocity":0.7874015748031497},{"duration":0.20000000000000284,"durationTicks":480,"midi":72,"name":"C5","ticks":249600,"time":103.108568,"velocity":0.7874015748031497},{"duration":0.20000000000000284,"durationTicks":480,"midi":67,"name":"G4","ticks":249600,"time":103.108568,"velocity":0.7874015748031497},{"duration":0.20000000000000284,"durationTicks":480,"midi":60,"name":"C4","ticks":250560,"time":103.50856800000001,"velocity":0.7874015748031497},{"duration":0.20000000000000284,"durationTicks":480,"midi":72,"name":"C5","ticks":250560,"time":103.50856800000001,"velocity":0.7874015748031497},{"duration":0.20000000000000284,"durationTicks":480,"midi":67,"name":"G4","ticks":250560,"time":103.50856800000001,"velocity":0.7874015748031497},{"duration":0.15000000000000568,"durationTicks":360,"midi":74,"name":"D5","ticks":251520,"time":103.908568,"velocity":0.7874015748031497},{"duration":0.15000000000000568,"durationTicks":360,"midi":69,"name":"A4","ticks":251520,"time":103.908568,"velocity":0.7874015748031497},{"duration":0.15000000000000568,"durationTicks":360,"midi":62,"name":"D4","ticks":251520,"time":103.908568,"velocity":0.7874015748031497},{"duration":0.23333333333333428,"durationTicks":560,"midi":62,"name":"D4","ticks":252000,"time":104.108568,"velocity":0.7874015748031497},{"duration":0.23333333333333428,"durationTicks":560,"midi":74,"name":"D5","ticks":252000,"time":104.108568,"velocity":0.7874015748031497},{"duration":0.23333333333333428,"durationTicks":560,"midi":69,"name":"A4","ticks":252000,"time":104.108568,"velocity":0.7874015748031497},{"duration":0.3499999999999943,"durationTicks":840,"midi":64,"name":"E4","ticks":252960,"time":104.50856800000001,"velocity":0.7874015748031497},{"duration":0.3499999999999943,"durationTicks":840,"midi":76,"name":"E5","ticks":252960,"time":104.50856800000001,"velocity":0.7874015748031497},{"duration":0.3499999999999943,"durationTicks":840,"midi":71,"name":"B4","ticks":252960,"time":104.50856800000001,"velocity":0.7874015748031497},{"duration":0.15000000000000568,"durationTicks":360,"midi":64,"name":"E4","ticks":253920,"time":104.908568,"velocity":0.7874015748031497},{"duration":0.15000000000000568,"durationTicks":360,"midi":76,"name":"E5","ticks":253920,"time":104.908568,"velocity":0.7874015748031497},{"duration":0.15000000000000568,"durationTicks":360,"midi":71,"name":"B4","ticks":253920,"time":104.908568,"velocity":0.7874015748031497},{"duration":0.3500000000000085,"durationTicks":840,"midi":64,"name":"E4","ticks":254400,"time":105.108568,"velocity":0.7874015748031497},{"duration":0.3500000000000085,"durationTicks":840,"midi":76,"name":"E5","ticks":254400,"time":105.108568,"velocity":0.7874015748031497},{"duration":0.3500000000000085,"durationTicks":840,"midi":71,"name":"B4","ticks":254400,"time":105.108568,"velocity":0.7874015748031497},{"duration":0.20000000000000284,"durationTicks":480,"midi":71,"name":"B4","ticks":255360,"time":105.50856800000001,"velocity":0.7874015748031497},{"duration":0.20000000000000284,"durationTicks":480,"midi":74,"name":"D5","ticks":255360,"time":105.50856800000001,"velocity":0.6299212598425197},{"duration":0.20000000000000284,"durationTicks":480,"midi":62,"name":"D4","ticks":255360,"time":105.50856800000001,"velocity":0.7874015748031497},{"duration":0.4000000000000057,"durationTicks":960,"midi":71,"name":"B4","ticks":256320,"time":105.908568,"velocity":0.7874015748031497},{"duration":0.30000000000001137,"durationTicks":720,"midi":74,"name":"D5","ticks":256320,"time":105.908568,"velocity":0.6299212598425197},{"duration":0.4000000000000057,"durationTicks":960,"midi":62,"name":"D4","ticks":256320,"time":105.908568,"velocity":0.7874015748031497},{"duration":0.20000000000000284,"durationTicks":480,"midi":62,"name":"D4","ticks":257280,"time":106.30856800000001,"velocity":0.7874015748031497},{"duration":0.20000000000000284,"durationTicks":480,"midi":71,"name":"B4","ticks":257280,"time":106.30856800000001,"velocity":0.7874015748031497},{"duration":0.20000000000000284,"durationTicks":480,"midi":67,"name":"G4","ticks":257280,"time":106.30856800000001,"velocity":0.7874015748031497},{"duration":0.19999999999998863,"durationTicks":480,"midi":62,"name":"D4","ticks":258240,"time":106.70856800000001,"velocity":0.7874015748031497},{"duration":0.19999999999998863,"durationTicks":480,"midi":71,"name":"B4","ticks":258240,"time":106.70856800000001,"velocity":0.7874015748031497},{"duration":0.19999999999998863,"durationTicks":480,"midi":67,"name":"G4","ticks":258240,"time":106.70856800000001,"velocity":0.7874015748031497},{"duration":0.23333333333332007,"durationTicks":560,"midi":62,"name":"D4","ticks":259680,"time":107.30856800000001,"velocity":0.7874015748031497},{"duration":0.23333333333332007,"durationTicks":560,"midi":71,"name":"B4","ticks":259680,"time":107.30856800000001,"velocity":0.7874015748031497},{"duration":0.23333333333332007,"durationTicks":560,"midi":67,"name":"G4","ticks":259680,"time":107.30856800000001,"velocity":0.7874015748031497},{"duration":0.3999999999999915,"durationTicks":960,"midi":62,"name":"D4","ticks":260640,"time":107.70856800000001,"velocity":0.7874015748031497},{"duration":0.3999999999999915,"durationTicks":960,"midi":71,"name":"B4","ticks":260640,"time":107.70856800000001,"velocity":0.7874015748031497},{"duration":0.3999999999999915,"durationTicks":960,"midi":67,"name":"G4","ticks":260640,"time":107.70856800000001,"velocity":0.7874015748031497},{"duration":0.20000000000000284,"durationTicks":480,"midi":61,"name":"C#4","ticks":261600,"time":108.108568,"velocity":0.7874015748031497},{"duration":0.20000000000000284,"durationTicks":480,"midi":71,"name":"B4","ticks":261600,"time":108.108568,"velocity":0.7874015748031497},{"duration":0.20000000000000284,"durationTicks":480,"midi":67,"name":"G4","ticks":261600,"time":108.108568,"velocity":0.7874015748031497},{"duration":0.4000000000000057,"durationTicks":960,"midi":61,"name":"C#4","ticks":262080,"time":108.30856800000001,"velocity":0.7874015748031497},{"duration":0.4000000000000057,"durationTicks":960,"midi":71,"name":"B4","ticks":262080,"time":108.30856800000001,"velocity":0.7874015748031497},{"duration":0.4000000000000057,"durationTicks":960,"midi":67,"name":"G4","ticks":262080,"time":108.30856800000001,"velocity":0.7874015748031497},{"duration":0.19999999999998863,"durationTicks":480,"midi":61,"name":"C#4","ticks":263040,"time":108.70856800000001,"velocity":0.7874015748031497},{"duration":0.19999999999998863,"durationTicks":480,"midi":71,"name":"B4","ticks":263040,"time":108.70856800000001,"velocity":0.7874015748031497},{"duration":0.19999999999998863,"durationTicks":480,"midi":67,"name":"G4","ticks":263040,"time":108.70856800000001,"velocity":0.7874015748031497},{"duration":0.20000000000000284,"durationTicks":480,"midi":61,"name":"C#4","ticks":264000,"time":109.108568,"velocity":0.7874015748031497},{"duration":0.20000000000000284,"durationTicks":480,"midi":71,"name":"B4","ticks":264000,"time":109.108568,"velocity":0.7874015748031497},{"duration":0.20000000000000284,"durationTicks":480,"midi":67,"name":"G4","ticks":264000,"time":109.108568,"velocity":0.7874015748031497},{"duration":0.20000000000000284,"durationTicks":480,"midi":62,"name":"D4","ticks":264960,"time":109.50856800000001,"velocity":0.7874015748031497},{"duration":0.20000000000000284,"durationTicks":480,"midi":71,"name":"B4","ticks":264960,"time":109.50856800000001,"velocity":0.7874015748031497},{"duration":0.20000000000000284,"durationTicks":480,"midi":67,"name":"G4","ticks":264960,"time":109.50856800000001,"velocity":0.7874015748031497},{"duration":0.20000000000000284,"durationTicks":480,"midi":62,"name":"D4","ticks":265920,"time":109.908568,"velocity":0.7874015748031497},{"duration":0.20000000000000284,"durationTicks":480,"midi":71,"name":"B4","ticks":265920,"time":109.908568,"velocity":0.7874015748031497},{"duration":0.20000000000000284,"durationTicks":480,"midi":67,"name":"G4","ticks":265920,"time":109.908568,"velocity":0.7874015748031497},{"duration":0.20000000000000284,"durationTicks":480,"midi":62,"name":"D4","ticks":267360,"time":110.50856800000001,"velocity":0.7874015748031497},{"duration":0.20000000000000284,"durationTicks":480,"midi":71,"name":"B4","ticks":267360,"time":110.50856800000001,"velocity":0.7874015748031497},{"duration":0.20000000000000284,"durationTicks":480,"midi":67,"name":"G4","ticks":267360,"time":110.50856800000001,"velocity":0.7874015748031497},{"duration":0.4000000000000057,"durationTicks":960,"midi":62,"name":"D4","ticks":268320,"time":110.908568,"velocity":0.7874015748031497},{"duration":0.4000000000000057,"durationTicks":960,"midi":71,"name":"B4","ticks":268320,"time":110.908568,"velocity":0.7874015748031497},{"duration":0.4000000000000057,"durationTicks":960,"midi":67,"name":"G4","ticks":268320,"time":110.908568,"velocity":0.7874015748031497},{"duration":0.20000000000000284,"durationTicks":480,"midi":60,"name":"C4","ticks":269280,"time":111.30856800000001,"velocity":0.7874015748031497},{"duration":0.20000000000000284,"durationTicks":480,"midi":71,"name":"B4","ticks":269280,"time":111.30856800000001,"velocity":0.7874015748031497},{"duration":0.20000000000000284,"durationTicks":480,"midi":67,"name":"G4","ticks":269280,"time":111.30856800000001,"velocity":0.7874015748031497},{"duration":0.3999999999999915,"durationTicks":960,"midi":60,"name":"C4","ticks":269760,"time":111.50856800000001,"velocity":0.7874015748031497},{"duration":0.3999999999999915,"durationTicks":960,"midi":71,"name":"B4","ticks":269760,"time":111.50856800000001,"velocity":0.7874015748031497},{"duration":0.3999999999999915,"durationTicks":960,"midi":67,"name":"G4","ticks":269760,"time":111.50856800000001,"velocity":0.7874015748031497},{"duration":0.23333333333333428,"durationTicks":560,"midi":59,"name":"B3","ticks":270720,"time":111.908568,"velocity":0.7874015748031497},{"duration":0.23333333333333428,"durationTicks":560,"midi":67,"name":"G4","ticks":270720,"time":111.908568,"velocity":0.7874015748031497},{"duration":0.23333333333333428,"durationTicks":560,"midi":71,"name":"B4","ticks":270720,"time":111.908568,"velocity":0.7874015748031497},{"duration":0.4000000000000057,"durationTicks":960,"midi":59,"name":"B3","ticks":271680,"time":112.30856800000001,"velocity":0.7874015748031497},{"duration":0.4000000000000057,"durationTicks":960,"midi":67,"name":"G4","ticks":271680,"time":112.30856800000001,"velocity":0.7874015748031497},{"duration":0.4000000000000057,"durationTicks":960,"midi":71,"name":"B4","ticks":271680,"time":112.30856800000001,"velocity":0.7874015748031497},{"duration":0.19999999999998863,"durationTicks":480,"midi":60,"name":"C4","ticks":272640,"time":112.70856800000001,"velocity":0.7874015748031497},{"duration":0.19999999999998863,"durationTicks":480,"midi":71,"name":"B4","ticks":272640,"time":112.70856800000001,"velocity":0.7874015748031497},{"duration":0.19999999999998863,"durationTicks":480,"midi":67,"name":"G4","ticks":272640,"time":112.70856800000001,"velocity":0.7874015748031497},{"duration":0.20000000000000284,"durationTicks":480,"midi":60,"name":"C4","ticks":273600,"time":113.108568,"velocity":0.7874015748031497},{"duration":0.20000000000000284,"durationTicks":480,"midi":71,"name":"B4","ticks":273600,"time":113.108568,"velocity":0.7874015748031497},{"duration":0.20000000000000284,"durationTicks":480,"midi":67,"name":"G4","ticks":273600,"time":113.108568,"velocity":0.7874015748031497},{"duration":0.23333333333332007,"durationTicks":560,"midi":60,"name":"C4","ticks":275040,"time":113.70856800000001,"velocity":0.7874015748031497},{"duration":0.23333333333332007,"durationTicks":560,"midi":71,"name":"B4","ticks":275040,"time":113.70856800000001,"velocity":0.7874015748031497},{"duration":0.23333333333332007,"durationTicks":560,"midi":67,"name":"G4","ticks":275040,"time":113.70856800000001,"velocity":0.7874015748031497},{"duration":0.4000000000000057,"durationTicks":960,"midi":60,"name":"C4","ticks":276000,"time":114.108568,"velocity":0.7874015748031497},{"duration":0.4000000000000057,"durationTicks":960,"midi":71,"name":"B4","ticks":276000,"time":114.108568,"velocity":0.7874015748031497},{"duration":0.4000000000000057,"durationTicks":960,"midi":67,"name":"G4","ticks":276000,"time":114.108568,"velocity":0.7874015748031497},{"duration":0.20000000000000284,"durationTicks":480,"midi":59,"name":"B3","ticks":276960,"time":114.50856800000001,"velocity":0.7874015748031497},{"duration":0.20000000000000284,"durationTicks":480,"midi":71,"name":"B4","ticks":276960,"time":114.50856800000001,"velocity":0.7874015748031497},{"duration":0.20000000000000284,"durationTicks":480,"midi":67,"name":"G4","ticks":276960,"time":114.50856800000001,"velocity":0.7874015748031497},{"duration":0.3999999999999915,"durationTicks":960,"midi":59,"name":"B3","ticks":277440,"time":114.70856800000001,"velocity":0.7874015748031497},{"duration":0.3999999999999915,"durationTicks":960,"midi":71,"name":"B4","ticks":277440,"time":114.70856800000001,"velocity":0.7874015748031497},{"duration":0.3999999999999915,"durationTicks":960,"midi":67,"name":"G4","ticks":277440,"time":114.70856800000001,"velocity":0.7874015748031497},{"duration":0.20000000000000284,"durationTicks":480,"midi":64,"name":"E4","ticks":278400,"time":115.108568,"velocity":0.7874015748031497},{"duration":0.20000000000000284,"durationTicks":480,"midi":71,"name":"B4","ticks":278400,"time":115.108568,"velocity":0.7874015748031497},{"duration":0.20000000000000284,"durationTicks":480,"midi":67,"name":"G4","ticks":278400,"time":115.108568,"velocity":0.7874015748031497},{"duration":0.20000000000000284,"durationTicks":480,"midi":64,"name":"E4","ticks":279360,"time":115.50856800000001,"velocity":0.7874015748031497},{"duration":0.3999999999999915,"durationTicks":960,"midi":71,"name":"B4","ticks":279360,"time":115.50856800000001,"velocity":0.7874015748031497},{"duration":0.3999999999999915,"durationTicks":960,"midi":67,"name":"G4","ticks":279360,"time":115.50856800000001,"velocity":0.7874015748031497},{"duration":0.30000000000001137,"durationTicks":720,"midi":66,"name":"F#4","ticks":280320,"time":115.908568,"velocity":0.7874015748031497},{"duration":0.30000000000001137,"durationTicks":720,"midi":61,"name":"C#4","ticks":280320,"time":115.908568,"velocity":0.7874015748031497},{"duration":0.30000000000001137,"durationTicks":720,"midi":69,"name":"A4","ticks":280320,"time":115.908568,"velocity":0.7874015748031497},{"duration":0.29999999999999716,"durationTicks":720,"midi":66,"name":"F#4","ticks":281280,"time":116.30856800000001,"velocity":0.7874015748031497},{"duration":0.29999999999999716,"durationTicks":720,"midi":61,"name":"C#4","ticks":281280,"time":116.30856800000001,"velocity":0.7874015748031497},{"duration":0.29999999999999716,"durationTicks":720,"midi":69,"name":"A4","ticks":281280,"time":116.30856800000001,"velocity":0.7874015748031497},{"duration":0.14999999999999147,"durationTicks":360,"midi":71,"name":"B4","ticks":282240,"time":116.70856800000001,"velocity":0.7874015748031497},{"duration":0.14999999999999147,"durationTicks":360,"midi":68,"name":"G#4","ticks":282240,"time":116.70856800000001,"velocity":0.7874015748031497},{"duration":0.14999999999999147,"durationTicks":360,"midi":63,"name":"D#4","ticks":282240,"time":116.70856800000001,"velocity":0.7874015748031497},{"duration":0.23333333333333428,"durationTicks":560,"midi":63,"name":"D#4","ticks":282720,"time":116.908568,"velocity":0.7874015748031497},{"duration":0.23333333333333428,"durationTicks":560,"midi":71,"name":"B4","ticks":282720,"time":116.908568,"velocity":0.7874015748031497},{"duration":0.23333333333333428,"durationTicks":560,"midi":68,"name":"G#4","ticks":282720,"time":116.908568,"velocity":0.7874015748031497},{"duration":0.3499999999999943,"durationTicks":840,"midi":69,"name":"A4","ticks":283680,"time":117.30856800000001,"velocity":0.7874015748031497},{"duration":0.3499999999999943,"durationTicks":840,"midi":64,"name":"E4","ticks":283680,"time":117.30856800000001,"velocity":0.7874015748031497},{"duration":0.3499999999999943,"durationTicks":840,"midi":73,"name":"C#5","ticks":283680,"time":117.30856800000001,"velocity":0.7874015748031497},{"duration":0.14999999999999147,"durationTicks":360,"midi":69,"name":"A4","ticks":284640,"time":117.70856800000001,"velocity":0.7874015748031497},{"duration":0.14999999999999147,"durationTicks":360,"midi":64,"name":"E4","ticks":284640,"time":117.70856800000001,"velocity":0.7874015748031497},{"duration":0.14999999999999147,"durationTicks":360,"midi":73,"name":"C#5","ticks":284640,"time":117.70856800000001,"velocity":0.7874015748031497},{"duration":0.3500000000000085,"durationTicks":840,"midi":69,"name":"A4","ticks":285120,"time":117.908568,"velocity":0.7874015748031497},{"duration":0.3500000000000085,"durationTicks":840,"midi":64,"name":"E4","ticks":285120,"time":117.908568,"velocity":0.7874015748031497},{"duration":0.3500000000000085,"durationTicks":840,"midi":73,"name":"C#5","ticks":285120,"time":117.908568,"velocity":0.7874015748031497},{"duration":0.29999999999999716,"durationTicks":720,"midi":69,"name":"A4","ticks":286080,"time":118.30856800000001,"velocity":0.7874015748031497},{"duration":0.29999999999999716,"durationTicks":720,"midi":73,"name":"C#5","ticks":286080,"time":118.30856800000001,"velocity":0.7874015748031497},{"duration":0.29999999999999716,"durationTicks":720,"midi":66,"name":"F#4","ticks":286080,"time":118.30856800000001,"velocity":0.7874015748031497},{"duration":0.29999999999999716,"durationTicks":720,"midi":69,"name":"A4","ticks":287040,"time":118.70856800000001,"velocity":0.7874015748031497},{"duration":0.29999999999999716,"durationTicks":720,"midi":73,"name":"C#5","ticks":287040,"time":118.70856800000001,"velocity":0.7874015748031497},{"duration":0.29999999999999716,"durationTicks":720,"midi":66,"name":"F#4","ticks":287040,"time":118.70856800000001,"velocity":0.7874015748031497},{"duration":0.0666666666666913,"durationTicks":160,"midi":64,"name":"E4","ticks":349920,"time":144.908568,"velocity":0.7874015748031497},{"duration":0.0666666666666913,"durationTicks":160,"midi":67,"name":"G4","ticks":349920,"time":144.908568,"velocity":0.7874015748031497},{"duration":0.0666666666666913,"durationTicks":160,"midi":71,"name":"B4","ticks":349920,"time":144.908568,"velocity":0.7874015748031497},{"duration":0.06666666666666288,"durationTicks":160,"midi":71,"name":"B4","ticks":350880,"time":145.308568,"velocity":0.7874015748031497},{"duration":0.06666666666666288,"durationTicks":160,"midi":67,"name":"G4","ticks":350880,"time":145.308568,"velocity":0.7874015748031497},{"duration":0.06666666666666288,"durationTicks":160,"midi":64,"name":"E4","ticks":350880,"time":145.308568,"velocity":0.7874015748031497},{"duration":0.06666666666666288,"durationTicks":160,"midi":64,"name":"E4","ticks":351840,"time":145.708568,"velocity":0.7874015748031497},{"duration":0.06666666666666288,"durationTicks":160,"midi":67,"name":"G4","ticks":351840,"time":145.708568,"velocity":0.7874015748031497},{"duration":0.06666666666666288,"durationTicks":160,"midi":72,"name":"C5","ticks":351840,"time":145.708568,"velocity":0.7874015748031497},{"duration":0.06666666666666288,"durationTicks":160,"midi":64,"name":"E4","ticks":352800,"time":146.10856800000002,"velocity":0.7874015748031497},{"duration":0.06666666666666288,"durationTicks":160,"midi":67,"name":"G4","ticks":352800,"time":146.10856800000002,"velocity":0.7874015748031497},{"duration":0.06666666666666288,"durationTicks":160,"midi":72,"name":"C5","ticks":352800,"time":146.10856800000002,"velocity":0.7874015748031497},{"duration":0.0666666666666913,"durationTicks":160,"midi":64,"name":"E4","ticks":353760,"time":146.508568,"velocity":0.7874015748031497},{"duration":0.0666666666666913,"durationTicks":160,"midi":72,"name":"C5","ticks":353760,"time":146.508568,"velocity":0.7874015748031497},{"duration":0.0666666666666913,"durationTicks":160,"midi":69,"name":"A4","ticks":353760,"time":146.508568,"velocity":0.7874015748031497},{"duration":0.0666666666666913,"durationTicks":160,"midi":64,"name":"E4","ticks":354720,"time":146.908568,"velocity":0.7874015748031497},{"duration":0.0666666666666913,"durationTicks":160,"midi":69,"name":"A4","ticks":354720,"time":146.908568,"velocity":0.7874015748031497},{"duration":0.0666666666666913,"durationTicks":160,"midi":72,"name":"C5","ticks":354720,"time":146.908568,"velocity":0.7874015748031497},{"duration":0.06666666666666288,"durationTicks":160,"midi":64,"name":"E4","ticks":355680,"time":147.308568,"velocity":0.7874015748031497},{"duration":0.06666666666666288,"durationTicks":160,"midi":67,"name":"G4","ticks":355680,"time":147.308568,"velocity":0.7874015748031497},{"duration":0.06666666666666288,"durationTicks":160,"midi":71,"name":"B4","ticks":355680,"time":147.308568,"velocity":0.7874015748031497},{"duration":0.06666666666666288,"durationTicks":160,"midi":64,"name":"E4","ticks":356640,"time":147.708568,"velocity":0.7874015748031497},{"duration":0.06666666666666288,"durationTicks":160,"midi":67,"name":"G4","ticks":356640,"time":147.708568,"velocity":0.7874015748031497},{"duration":0.06666666666666288,"durationTicks":160,"midi":71,"name":"B4","ticks":356640,"time":147.708568,"velocity":0.7874015748031497},{"duration":0.06666666666666288,"durationTicks":160,"midi":64,"name":"E4","ticks":357600,"time":148.10856800000002,"velocity":0.7874015748031497},{"duration":0.06666666666666288,"durationTicks":160,"midi":68,"name":"G#4","ticks":357600,"time":148.10856800000002,"velocity":0.7874015748031497},{"duration":0.06666666666666288,"durationTicks":160,"midi":61,"name":"C#4","ticks":357600,"time":148.10856800000002,"velocity":0.7874015748031497},{"duration":0.0666666666666913,"durationTicks":160,"midi":61,"name":"C#4","ticks":358560,"time":148.508568,"velocity":0.7874015748031497},{"duration":0.0666666666666913,"durationTicks":160,"midi":64,"name":"E4","ticks":358560,"time":148.508568,"velocity":0.7874015748031497},{"duration":0.0666666666666913,"durationTicks":160,"midi":68,"name":"G#4","ticks":358560,"time":148.508568,"velocity":0.7874015748031497},{"duration":0.0666666666666913,"durationTicks":160,"midi":64,"name":"E4","ticks":359520,"time":148.908568,"velocity":0.7874015748031497},{"duration":0.0666666666666913,"durationTicks":160,"midi":68,"name":"G#4","ticks":359520,"time":148.908568,"velocity":0.7874015748031497},{"duration":0.0666666666666913,"durationTicks":160,"midi":73,"name":"C#5","ticks":359520,"time":148.908568,"velocity":0.7874015748031497},{"duration":0.06666666666666288,"durationTicks":160,"midi":64,"name":"E4","ticks":360480,"time":149.308568,"velocity":0.7874015748031497},{"duration":0.06666666666666288,"durationTicks":160,"midi":68,"name":"G#4","ticks":360480,"time":149.308568,"velocity":0.7874015748031497},{"duration":0.06666666666666288,"durationTicks":160,"midi":73,"name":"C#5","ticks":360480,"time":149.308568,"velocity":0.7874015748031497},{"duration":0.06666666666666288,"durationTicks":160,"midi":64,"name":"E4","ticks":361440,"time":149.708568,"velocity":0.7874015748031497},{"duration":0.06666666666666288,"durationTicks":160,"midi":67,"name":"G4","ticks":361440,"time":149.708568,"velocity":0.7874015748031497},{"duration":0.06666666666666288,"durationTicks":160,"midi":71,"name":"B4","ticks":361440,"time":149.708568,"velocity":0.7874015748031497},{"duration":0.06666666666666288,"durationTicks":160,"midi":64,"name":"E4","ticks":362400,"time":150.10856800000002,"velocity":0.7874015748031497},{"duration":0.06666666666666288,"durationTicks":160,"midi":67,"name":"G4","ticks":362400,"time":150.10856800000002,"velocity":0.7874015748031497},{"duration":0.06666666666666288,"durationTicks":160,"midi":71,"name":"B4","ticks":362400,"time":150.10856800000002,"velocity":0.7874015748031497},{"duration":0.0666666666666913,"durationTicks":160,"midi":69,"name":"A4","ticks":363360,"time":150.508568,"velocity":0.7874015748031497},{"duration":0.0666666666666913,"durationTicks":160,"midi":66,"name":"F#4","ticks":363360,"time":150.508568,"velocity":0.7874015748031497},{"duration":0.0666666666666913,"durationTicks":160,"midi":62,"name":"D4","ticks":363360,"time":150.508568,"velocity":0.7874015748031497},{"duration":0.0666666666666913,"durationTicks":160,"midi":69,"name":"A4","ticks":364320,"time":150.908568,"velocity":0.7874015748031497},{"duration":0.0666666666666913,"durationTicks":160,"midi":66,"name":"F#4","ticks":364320,"time":150.908568,"velocity":0.7874015748031497},{"duration":0.0666666666666913,"durationTicks":160,"midi":62,"name":"D4","ticks":364320,"time":150.908568,"velocity":0.7874015748031497},{"duration":0.06666666666666288,"durationTicks":160,"midi":64,"name":"E4","ticks":365280,"time":151.308568,"velocity":0.7874015748031497},{"duration":0.06666666666666288,"durationTicks":160,"midi":67,"name":"G4","ticks":365280,"time":151.308568,"velocity":0.7874015748031497},{"duration":0.06666666666666288,"durationTicks":160,"midi":71,"name":"B4","ticks":365280,"time":151.308568,"velocity":0.7874015748031497},{"duration":0.06666666666666288,"durationTicks":160,"midi":71,"name":"B4","ticks":366240,"time":151.708568,"velocity":0.7874015748031497},{"duration":0.06666666666666288,"durationTicks":160,"midi":67,"name":"G4","ticks":366240,"time":151.708568,"velocity":0.7874015748031497},{"duration":0.06666666666666288,"durationTicks":160,"midi":64,"name":"E4","ticks":366240,"time":151.708568,"velocity":0.7874015748031497},{"duration":0.06666666666666288,"durationTicks":160,"midi":64,"name":"E4","ticks":367200,"time":152.10856800000002,"velocity":0.7874015748031497},{"duration":0.06666666666666288,"durationTicks":160,"midi":67,"name":"G4","ticks":367200,"time":152.10856800000002,"velocity":0.7874015748031497},{"duration":0.06666666666666288,"durationTicks":160,"midi":72,"name":"C5","ticks":367200,"time":152.10856800000002,"velocity":0.7874015748031497},{"duration":0.0666666666666913,"durationTicks":160,"midi":64,"name":"E4","ticks":368160,"time":152.508568,"velocity":0.7874015748031497},{"duration":0.0666666666666913,"durationTicks":160,"midi":67,"name":"G4","ticks":368160,"time":152.508568,"velocity":0.7874015748031497},{"duration":0.0666666666666913,"durationTicks":160,"midi":72,"name":"C5","ticks":368160,"time":152.508568,"velocity":0.7874015748031497},{"duration":0.0666666666666913,"durationTicks":160,"midi":64,"name":"E4","ticks":369120,"time":152.908568,"velocity":0.7874015748031497},{"duration":0.0666666666666913,"durationTicks":160,"midi":72,"name":"C5","ticks":369120,"time":152.908568,"velocity":0.7874015748031497},{"duration":0.0666666666666913,"durationTicks":160,"midi":69,"name":"A4","ticks":369120,"time":152.908568,"velocity":0.7874015748031497},{"duration":0.06666666666666288,"durationTicks":160,"midi":64,"name":"E4","ticks":370080,"time":153.308568,"velocity":0.7874015748031497},{"duration":0.06666666666666288,"durationTicks":160,"midi":69,"name":"A4","ticks":370080,"time":153.308568,"velocity":0.7874015748031497},{"duration":0.06666666666666288,"durationTicks":160,"midi":72,"name":"C5","ticks":370080,"time":153.308568,"velocity":0.7874015748031497},{"duration":0.06666666666666288,"durationTicks":160,"midi":64,"name":"E4","ticks":371040,"time":153.708568,"velocity":0.7874015748031497},{"duration":0.06666666666666288,"durationTicks":160,"midi":67,"name":"G4","ticks":371040,"time":153.708568,"velocity":0.7874015748031497},{"duration":0.06666666666666288,"durationTicks":160,"midi":71,"name":"B4","ticks":371040,"time":153.708568,"velocity":0.7874015748031497},{"duration":0.06666666666666288,"durationTicks":160,"midi":64,"name":"E4","ticks":372000,"time":154.10856800000002,"velocity":0.7874015748031497},{"duration":0.06666666666666288,"durationTicks":160,"midi":67,"name":"G4","ticks":372000,"time":154.10856800000002,"velocity":0.7874015748031497},{"duration":0.06666666666666288,"durationTicks":160,"midi":71,"name":"B4","ticks":372000,"time":154.10856800000002,"velocity":0.7874015748031497},{"duration":0.0666666666666913,"durationTicks":160,"midi":67,"name":"G4","ticks":372960,"time":154.508568,"velocity":0.7874015748031497},{"duration":0.0666666666666913,"durationTicks":160,"midi":64,"name":"E4","ticks":372960,"time":154.508568,"velocity":0.7874015748031497},{"duration":0.0666666666666913,"durationTicks":160,"midi":71,"name":"B4","ticks":372960,"time":154.508568,"velocity":0.7874015748031497},{"duration":0.0666666666666913,"durationTicks":160,"midi":67,"name":"G4","ticks":373920,"time":154.908568,"velocity":0.7874015748031497},{"duration":0.0666666666666913,"durationTicks":160,"midi":71,"name":"B4","ticks":373920,"time":154.908568,"velocity":0.7874015748031497},{"duration":0.0666666666666913,"durationTicks":160,"midi":64,"name":"E4","ticks":373920,"time":154.908568,"velocity":0.7874015748031497},{"duration":0.06666666666666288,"durationTicks":160,"midi":62,"name":"D4","ticks":374880,"time":155.308568,"velocity":0.7874015748031497},{"duration":0.06666666666666288,"durationTicks":160,"midi":69,"name":"A4","ticks":374880,"time":155.308568,"velocity":0.7874015748031497},{"duration":0.06666666666666288,"durationTicks":160,"midi":66,"name":"F#4","ticks":374880,"time":155.308568,"velocity":0.7874015748031497},{"duration":0.06666666666666288,"durationTicks":160,"midi":69,"name":"A4","ticks":375840,"time":155.708568,"velocity":0.7874015748031497},{"duration":0.06666666666666288,"durationTicks":160,"midi":62,"name":"D4","ticks":375840,"time":155.708568,"velocity":0.7874015748031497},{"duration":0.06666666666666288,"durationTicks":160,"midi":66,"name":"F#4","ticks":375840,"time":155.708568,"velocity":0.7874015748031497},{"duration":0.06666666666666288,"durationTicks":160,"midi":66,"name":"F#4","ticks":376800,"time":156.10856800000002,"velocity":0.7874015748031497},{"duration":0.06666666666666288,"durationTicks":160,"midi":62,"name":"D4","ticks":376800,"time":156.10856800000002,"velocity":0.7874015748031497},{"duration":0.06666666666666288,"durationTicks":160,"midi":71,"name":"B4","ticks":376800,"time":156.10856800000002,"velocity":0.7874015748031497},{"duration":0.0666666666666913,"durationTicks":160,"midi":66,"name":"F#4","ticks":377760,"time":156.508568,"velocity":0.7874015748031497},{"duration":0.0666666666666913,"durationTicks":160,"midi":62,"name":"D4","ticks":377760,"time":156.508568,"velocity":0.7874015748031497},{"duration":0.0666666666666913,"durationTicks":160,"midi":69,"name":"A4","ticks":377760,"time":156.508568,"velocity":0.7874015748031497},{"duration":0.0666666666666913,"durationTicks":160,"midi":68,"name":"G#4","ticks":378720,"time":156.908568,"velocity":0.7874015748031497},{"duration":0.0666666666666913,"durationTicks":160,"midi":64,"name":"E4","ticks":378720,"time":156.908568,"velocity":0.7874015748031497},{"duration":0.0666666666666913,"durationTicks":160,"midi":71,"name":"B4","ticks":378720,"time":156.908568,"velocity":0.7874015748031497},{"duration":0.06666666666666288,"durationTicks":160,"midi":68,"name":"G#4","ticks":379680,"time":157.308568,"velocity":0.7874015748031497},{"duration":0.06666666666666288,"durationTicks":160,"midi":64,"name":"E4","ticks":379680,"time":157.308568,"velocity":0.7874015748031497},{"duration":0.06666666666666288,"durationTicks":160,"midi":71,"name":"B4","ticks":379680,"time":157.308568,"velocity":0.7874015748031497},{"duration":0.06666666666666288,"durationTicks":160,"midi":64,"name":"E4","ticks":380640,"time":157.708568,"velocity":0.7874015748031497},{"duration":0.06666666666666288,"durationTicks":160,"midi":67,"name":"G4","ticks":380640,"time":157.708568,"velocity":0.7874015748031497},{"duration":0.06666666666666288,"durationTicks":160,"midi":71,"name":"B4","ticks":380640,"time":157.708568,"velocity":0.7874015748031497},{"duration":0.06666666666666288,"durationTicks":160,"midi":71,"name":"B4","ticks":381600,"time":158.10856800000002,"velocity":0.7874015748031497},{"duration":0.06666666666666288,"durationTicks":160,"midi":67,"name":"G4","ticks":381600,"time":158.10856800000002,"velocity":0.7874015748031497},{"duration":0.06666666666666288,"durationTicks":160,"midi":64,"name":"E4","ticks":381600,"time":158.10856800000002,"velocity":0.7874015748031497},{"duration":0.06666666666666288,"durationTicks":160,"midi":64,"name":"E4","ticks":382560,"time":158.50856800000003,"velocity":0.7874015748031497},{"duration":0.06666666666666288,"durationTicks":160,"midi":67,"name":"G4","ticks":382560,"time":158.50856800000003,"velocity":0.7874015748031497},{"duration":0.06666666666666288,"durationTicks":160,"midi":72,"name":"C5","ticks":382560,"time":158.50856800000003,"velocity":0.7874015748031497},{"duration":0.0666666666666913,"durationTicks":160,"midi":64,"name":"E4","ticks":383520,"time":158.908568,"velocity":0.7874015748031497},{"duration":0.0666666666666913,"durationTicks":160,"midi":67,"name":"G4","ticks":383520,"time":158.908568,"velocity":0.7874015748031497},{"duration":0.0666666666666913,"durationTicks":160,"midi":72,"name":"C5","ticks":383520,"time":158.908568,"velocity":0.7874015748031497},{"duration":0.0666666666666913,"durationTicks":160,"midi":64,"name":"E4","ticks":384480,"time":159.308568,"velocity":0.7874015748031497},{"duration":0.0666666666666913,"durationTicks":160,"midi":72,"name":"C5","ticks":384480,"time":159.308568,"velocity":0.7874015748031497},{"duration":0.0666666666666913,"durationTicks":160,"midi":69,"name":"A4","ticks":384480,"time":159.308568,"velocity":0.7874015748031497},{"duration":0.06666666666666288,"durationTicks":160,"midi":64,"name":"E4","ticks":385440,"time":159.708568,"velocity":0.7874015748031497},{"duration":0.06666666666666288,"durationTicks":160,"midi":69,"name":"A4","ticks":385440,"time":159.708568,"velocity":0.7874015748031497},{"duration":0.06666666666666288,"durationTicks":160,"midi":72,"name":"C5","ticks":385440,"time":159.708568,"velocity":0.7874015748031497},{"duration":0.06666666666666288,"durationTicks":160,"midi":64,"name":"E4","ticks":386400,"time":160.10856800000002,"velocity":0.7874015748031497},{"duration":0.06666666666666288,"durationTicks":160,"midi":67,"name":"G4","ticks":386400,"time":160.10856800000002,"velocity":0.7874015748031497},{"duration":0.06666666666666288,"durationTicks":160,"midi":71,"name":"B4","ticks":386400,"time":160.10856800000002,"velocity":0.7874015748031497},{"duration":0.06666666666666288,"durationTicks":160,"midi":64,"name":"E4","ticks":387360,"time":160.50856800000003,"velocity":0.7874015748031497},{"duration":0.06666666666666288,"durationTicks":160,"midi":67,"name":"G4","ticks":387360,"time":160.50856800000003,"velocity":0.7874015748031497},{"duration":0.06666666666666288,"durationTicks":160,"midi":71,"name":"B4","ticks":387360,"time":160.50856800000003,"velocity":0.7874015748031497},{"duration":0.0666666666666913,"durationTicks":160,"midi":64,"name":"E4","ticks":388320,"time":160.908568,"velocity":0.7874015748031497},{"duration":0.0666666666666913,"durationTicks":160,"midi":68,"name":"G#4","ticks":388320,"time":160.908568,"velocity":0.7874015748031497},{"duration":0.0666666666666913,"durationTicks":160,"midi":61,"name":"C#4","ticks":388320,"time":160.908568,"velocity":0.7874015748031497},{"duration":0.0666666666666913,"durationTicks":160,"midi":61,"name":"C#4","ticks":389280,"time":161.308568,"velocity":0.7874015748031497},{"duration":0.0666666666666913,"durationTicks":160,"midi":64,"name":"E4","ticks":389280,"time":161.308568,"velocity":0.7874015748031497},{"duration":0.0666666666666913,"durationTicks":160,"midi":68,"name":"G#4","ticks":389280,"time":161.308568,"velocity":0.7874015748031497},{"duration":0.06666666666666288,"durationTicks":160,"midi":64,"name":"E4","ticks":390240,"time":161.708568,"velocity":0.7874015748031497},{"duration":0.06666666666666288,"durationTicks":160,"midi":68,"name":"G#4","ticks":390240,"time":161.708568,"velocity":0.7874015748031497},{"duration":0.06666666666666288,"durationTicks":160,"midi":73,"name":"C#5","ticks":390240,"time":161.708568,"velocity":0.7874015748031497},{"duration":0.06666666666666288,"durationTicks":160,"midi":64,"name":"E4","ticks":391200,"time":162.10856800000002,"velocity":0.7874015748031497},{"duration":0.06666666666666288,"durationTicks":160,"midi":68,"name":"G#4","ticks":391200,"time":162.10856800000002,"velocity":0.7874015748031497},{"duration":0.06666666666666288,"durationTicks":160,"midi":73,"name":"C#5","ticks":391200,"time":162.10856800000002,"velocity":0.7874015748031497},{"duration":0.06666666666666288,"durationTicks":160,"midi":64,"name":"E4","ticks":392160,"time":162.50856800000003,"velocity":0.7874015748031497},{"duration":0.06666666666666288,"durationTicks":160,"midi":67,"name":"G4","ticks":392160,"time":162.50856800000003,"velocity":0.7874015748031497},{"duration":0.06666666666666288,"durationTicks":160,"midi":71,"name":"B4","ticks":392160,"time":162.50856800000003,"velocity":0.7874015748031497},{"duration":0.0666666666666913,"durationTicks":160,"midi":64,"name":"E4","ticks":393120,"time":162.908568,"velocity":0.7874015748031497},{"duration":0.0666666666666913,"durationTicks":160,"midi":67,"name":"G4","ticks":393120,"time":162.908568,"velocity":0.7874015748031497},{"duration":0.0666666666666913,"durationTicks":160,"midi":71,"name":"B4","ticks":393120,"time":162.908568,"velocity":0.7874015748031497},{"duration":0.0666666666666913,"durationTicks":160,"midi":69,"name":"A4","ticks":394080,"time":163.308568,"velocity":0.7874015748031497},{"duration":0.0666666666666913,"durationTicks":160,"midi":66,"name":"F#4","ticks":394080,"time":163.308568,"velocity":0.7874015748031497},{"duration":0.0666666666666913,"durationTicks":160,"midi":62,"name":"D4","ticks":394080,"time":163.308568,"velocity":0.7874015748031497},{"duration":0.06666666666666288,"durationTicks":160,"midi":69,"name":"A4","ticks":395040,"time":163.708568,"velocity":0.7874015748031497},{"duration":0.06666666666666288,"durationTicks":160,"midi":66,"name":"F#4","ticks":395040,"time":163.708568,"velocity":0.7874015748031497},{"duration":0.06666666666666288,"durationTicks":160,"midi":62,"name":"D4","ticks":395040,"time":163.708568,"velocity":0.7874015748031497},{"duration":0.06666666666666288,"durationTicks":160,"midi":64,"name":"E4","ticks":396000,"time":164.10856800000002,"velocity":0.7874015748031497},{"duration":0.06666666666666288,"durationTicks":160,"midi":67,"name":"G4","ticks":396000,"time":164.10856800000002,"velocity":0.7874015748031497},{"duration":0.06666666666666288,"durationTicks":160,"midi":71,"name":"B4","ticks":396000,"time":164.10856800000002,"velocity":0.7874015748031497},{"duration":0.06666666666666288,"durationTicks":160,"midi":71,"name":"B4","ticks":396960,"time":164.50856800000003,"velocity":0.7874015748031497},{"duration":0.06666666666666288,"durationTicks":160,"midi":67,"name":"G4","ticks":396960,"time":164.50856800000003,"velocity":0.7874015748031497},{"duration":0.06666666666666288,"durationTicks":160,"midi":64,"name":"E4","ticks":396960,"time":164.50856800000003,"velocity":0.7874015748031497},{"duration":0.0666666666666913,"durationTicks":160,"midi":64,"name":"E4","ticks":397920,"time":164.908568,"velocity":0.7874015748031497},{"duration":0.0666666666666913,"durationTicks":160,"midi":67,"name":"G4","ticks":397920,"time":164.908568,"velocity":0.7874015748031497},{"duration":0.0666666666666913,"durationTicks":160,"midi":72,"name":"C5","ticks":397920,"time":164.908568,"velocity":0.7874015748031497},{"duration":0.0666666666666913,"durationTicks":160,"midi":64,"name":"E4","ticks":398880,"time":165.308568,"velocity":0.7874015748031497},{"duration":0.0666666666666913,"durationTicks":160,"midi":67,"name":"G4","ticks":398880,"time":165.308568,"velocity":0.7874015748031497},{"duration":0.0666666666666913,"durationTicks":160,"midi":72,"name":"C5","ticks":398880,"time":165.308568,"velocity":0.7874015748031497},{"duration":0.06666666666666288,"durationTicks":160,"midi":64,"name":"E4","ticks":399840,"time":165.708568,"velocity":0.7401574803149606},{"duration":0.06666666666666288,"durationTicks":160,"midi":72,"name":"C5","ticks":399840,"time":165.708568,"velocity":0.7401574803149606},{"duration":0.06666666666666288,"durationTicks":160,"midi":69,"name":"A4","ticks":399840,"time":165.708568,"velocity":0.7401574803149606},{"duration":0.06666666666666288,"durationTicks":160,"midi":64,"name":"E4","ticks":400800,"time":166.10856800000002,"velocity":0.6614173228346457},{"duration":0.06666666666666288,"durationTicks":160,"midi":69,"name":"A4","ticks":400800,"time":166.10856800000002,"velocity":0.6614173228346457},{"duration":0.06666666666666288,"durationTicks":160,"midi":72,"name":"C5","ticks":400800,"time":166.10856800000002,"velocity":0.6614173228346457},{"duration":0.06666666666666288,"durationTicks":160,"midi":64,"name":"E4","ticks":401760,"time":166.50856800000003,"velocity":0.5905511811023622},{"duration":0.06666666666666288,"durationTicks":160,"midi":67,"name":"G4","ticks":401760,"time":166.50856800000003,"velocity":0.5905511811023622},{"duration":0.06666666666666288,"durationTicks":160,"midi":71,"name":"B4","ticks":401760,"time":166.50856800000003,"velocity":0.5905511811023622},{"duration":0.0666666666666913,"durationTicks":160,"midi":64,"name":"E4","ticks":402720,"time":166.908568,"velocity":0.5433070866141733},{"duration":0.0666666666666913,"durationTicks":160,"midi":67,"name":"G4","ticks":402720,"time":166.908568,"velocity":0.5433070866141733},{"duration":0.0666666666666913,"durationTicks":160,"midi":71,"name":"B4","ticks":402720,"time":166.908568,"velocity":0.5433070866141733},{"duration":0.0666666666666913,"durationTicks":160,"midi":67,"name":"G4","ticks":403680,"time":167.308568,"velocity":0.5039370078740157},{"duration":0.0666666666666913,"durationTicks":160,"midi":64,"name":"E4","ticks":403680,"time":167.308568,"velocity":0.5039370078740157},{"duration":0.0666666666666913,"durationTicks":160,"midi":71,"name":"B4","ticks":403680,"time":167.308568,"velocity":0.5039370078740157},{"duration":0.06666666666666288,"durationTicks":160,"midi":67,"name":"G4","ticks":404640,"time":167.708568,"velocity":0.4409448818897638},{"duration":0.06666666666666288,"durationTicks":160,"midi":71,"name":"B4","ticks":404640,"time":167.708568,"velocity":0.4409448818897638},{"duration":0.06666666666666288,"durationTicks":160,"midi":64,"name":"E4","ticks":404640,"time":167.708568,"velocity":0.4409448818897638},{"duration":0.06666666666666288,"durationTicks":160,"midi":62,"name":"D4","ticks":405600,"time":168.10856800000002,"velocity":0.3858267716535433},{"duration":0.06666666666666288,"durationTicks":160,"midi":69,"name":"A4","ticks":405600,"time":168.10856800000002,"velocity":0.3858267716535433},{"duration":0.06666666666666288,"durationTicks":160,"midi":66,"name":"F#4","ticks":405600,"time":168.10856800000002,"velocity":0.3858267716535433},{"duration":0.06666666666666288,"durationTicks":160,"midi":69,"name":"A4","ticks":406560,"time":168.50856800000003,"velocity":0.3464566929133858},{"duration":0.06666666666666288,"durationTicks":160,"midi":62,"name":"D4","ticks":406560,"time":168.50856800000003,"velocity":0.3464566929133858},{"duration":0.06666666666666288,"durationTicks":160,"midi":66,"name":"F#4","ticks":406560,"time":168.50856800000003,"velocity":0.3464566929133858},{"duration":1,"durationTicks":2400,"midi":70,"name":"A#4","ticks":408480,"time":169.308568,"velocity":0.9448818897637795},{"duration":1,"durationTicks":2400,"midi":67,"name":"G4","ticks":408480,"time":169.308568,"velocity":0.9448818897637795},{"duration":1,"durationTicks":2400,"midi":62,"name":"D4","ticks":408480,"time":169.308568,"velocity":0.9448818897637795},{"duration":0.20000000000001705,"durationTicks":480,"midi":62,"name":"D4","ticks":410880,"time":170.308568,"velocity":0.7874015748031497},{"duration":0.20000000000001705,"durationTicks":480,"midi":71,"name":"B4","ticks":410880,"time":170.308568,"velocity":0.7874015748031497},{"duration":0.20000000000001705,"durationTicks":480,"midi":67,"name":"G4","ticks":410880,"time":170.308568,"velocity":0.7874015748031497},{"duration":0.19999999999998863,"durationTicks":480,"midi":62,"name":"D4","ticks":411840,"time":170.708568,"velocity":0.7401574803149606},{"duration":0.19999999999998863,"durationTicks":480,"midi":71,"name":"B4","ticks":411840,"time":170.708568,"velocity":0.7401574803149606},{"duration":0.19999999999998863,"durationTicks":480,"midi":67,"name":"G4","ticks":411840,"time":170.708568,"velocity":0.7401574803149606},{"duration":0.20000000000001705,"durationTicks":480,"midi":62,"name":"D4","ticks":413280,"time":171.308568,"velocity":0.6692913385826772},{"duration":0.20000000000001705,"durationTicks":480,"midi":71,"name":"B4","ticks":413280,"time":171.308568,"velocity":0.6692913385826772},{"duration":0.20000000000001705,"durationTicks":480,"midi":67,"name":"G4","ticks":413280,"time":171.308568,"velocity":0.6692913385826772},{"duration":0.4000000000000057,"durationTicks":960,"midi":62,"name":"D4","ticks":414240,"time":171.708568,"velocity":0.6220472440944882},{"duration":0.4000000000000057,"durationTicks":960,"midi":71,"name":"B4","ticks":414240,"time":171.708568,"velocity":0.6220472440944882},{"duration":0.4000000000000057,"durationTicks":960,"midi":67,"name":"G4","ticks":414240,"time":171.708568,"velocity":0.6220472440944882},{"duration":0.19999999999998863,"durationTicks":480,"midi":61,"name":"C#4","ticks":415200,"time":172.10856800000002,"velocity":0.5669291338582677},{"duration":0.19999999999998863,"durationTicks":480,"midi":71,"name":"B4","ticks":415200,"time":172.10856800000002,"velocity":0.5669291338582677},{"duration":0.19999999999998863,"durationTicks":480,"midi":67,"name":"G4","ticks":415200,"time":172.10856800000002,"velocity":0.5669291338582677},{"duration":0.4000000000000057,"durationTicks":960,"midi":61,"name":"C#4","ticks":415680,"time":172.308568,"velocity":0.5433070866141733},{"duration":0.4000000000000057,"durationTicks":960,"midi":71,"name":"B4","ticks":415680,"time":172.308568,"velocity":0.5433070866141733},{"duration":0.4000000000000057,"durationTicks":960,"midi":67,"name":"G4","ticks":415680,"time":172.308568,"velocity":0.5433070866141733},{"duration":0.19999999999998863,"durationTicks":480,"midi":61,"name":"C#4","ticks":416640,"time":172.708568,"velocity":0.49606299212598426},{"duration":0.19999999999998863,"durationTicks":480,"midi":71,"name":"B4","ticks":416640,"time":172.708568,"velocity":0.49606299212598426},{"duration":0.19999999999998863,"durationTicks":480,"midi":67,"name":"G4","ticks":416640,"time":172.708568,"velocity":0.49606299212598426},{"duration":0.19999999999998863,"durationTicks":480,"midi":61,"name":"C#4","ticks":417600,"time":173.10856800000002,"velocity":0.44881889763779526},{"duration":0.19999999999998863,"durationTicks":480,"midi":71,"name":"B4","ticks":417600,"time":173.10856800000002,"velocity":0.44881889763779526},{"duration":0.19999999999998863,"durationTicks":480,"midi":67,"name":"G4","ticks":417600,"time":173.10856800000002,"velocity":0.44881889763779526},{"duration":0.19999999999998863,"durationTicks":480,"midi":62,"name":"D4","ticks":418560,"time":173.50856800000003,"velocity":0.3937007874015748},{"duration":0.19999999999998863,"durationTicks":480,"midi":71,"name":"B4","ticks":418560,"time":173.50856800000003,"velocity":0.3937007874015748},{"duration":0.19999999999998863,"durationTicks":480,"midi":67,"name":"G4","ticks":418560,"time":173.50856800000003,"velocity":0.3937007874015748},{"duration":0.20000000000001705,"durationTicks":480,"midi":62,"name":"D4","ticks":419520,"time":173.908568,"velocity":0.3464566929133858},{"duration":0.20000000000001705,"durationTicks":480,"midi":71,"name":"B4","ticks":419520,"time":173.908568,"velocity":0.3464566929133858},{"duration":0.20000000000001705,"durationTicks":480,"midi":67,"name":"G4","ticks":419520,"time":173.908568,"velocity":0.3464566929133858},{"duration":0.19999999999998863,"durationTicks":480,"midi":62,"name":"D4","ticks":420960,"time":174.50856800000003,"velocity":0.2755905511811024},{"duration":0.19999999999998863,"durationTicks":480,"midi":71,"name":"B4","ticks":420960,"time":174.50856800000003,"velocity":0.2755905511811024},{"duration":0.19999999999998863,"durationTicks":480,"midi":67,"name":"G4","ticks":420960,"time":174.50856800000003,"velocity":0.2755905511811024},{"duration":0.4000000000000057,"durationTicks":960,"midi":62,"name":"D4","ticks":421920,"time":174.908568,"velocity":0.2283464566929134},{"duration":0.4000000000000057,"durationTicks":960,"midi":71,"name":"B4","ticks":421920,"time":174.908568,"velocity":0.2283464566929134},{"duration":0.4000000000000057,"durationTicks":960,"midi":67,"name":"G4","ticks":421920,"time":174.908568,"velocity":0.2283464566929134},{"duration":0.20000000000001705,"durationTicks":480,"midi":60,"name":"C4","ticks":422880,"time":175.308568,"velocity":0.1732283464566929},{"duration":0.20000000000001705,"durationTicks":480,"midi":71,"name":"B4","ticks":422880,"time":175.308568,"velocity":0.1732283464566929},{"duration":0.20000000000001705,"durationTicks":480,"midi":67,"name":"G4","ticks":422880,"time":175.308568,"velocity":0.1732283464566929},{"duration":0.39999999999997726,"durationTicks":960,"midi":60,"name":"C4","ticks":423360,"time":175.50856800000003,"velocity":0.14960629921259844},{"duration":0.39999999999997726,"durationTicks":960,"midi":71,"name":"B4","ticks":423360,"time":175.50856800000003,"velocity":0.14960629921259844},{"duration":0.39999999999997726,"durationTicks":960,"midi":67,"name":"G4","ticks":423360,"time":175.50856800000003,"velocity":0.14960629921259844},{"duration":0.13333333333332575,"durationTicks":320,"midi":74,"name":"D5","ticks":424320,"time":175.908568,"velocity":0.10236220472440945},{"duration":0.13333333333332575,"durationTicks":320,"midi":71,"name":"B4","ticks":424320,"time":175.908568,"velocity":0.10236220472440945},{"duration":0.4000000000000057,"durationTicks":960,"midi":74,"name":"D5","ticks":425280,"time":176.308568,"velocity":0.05511811023622047},{"duration":0.4000000000000057,"durationTicks":960,"midi":71,"name":"B4","ticks":425280,"time":176.308568,"velocity":0.05511811023622047}]},{"channel":7,"controlChanges":{"7":[{"number":7,"ticks":1920,"time":0.24,"value":0.7874015748031497}]},"pitchBends":[],"instrument":{"family":"strings","number":47,"name":"timpani"},"name":"","notes":[{"duration":0.21428550000000002,"durationTicks":480,"midi":48,"name":"C3","ticks":3840,"time":0.48,"velocity":0.7874015748031497},{"duration":0.2142854999999999,"durationTicks":480,"midi":48,"name":"C3","ticks":5760,"time":1.337142,"velocity":0.7874015748031497},{"duration":0.1071427500000004,"durationTicks":240,"midi":53,"name":"F3","ticks":10320,"time":3.37285425,"velocity":0.7874015748031497},{"duration":0.10714274999999995,"durationTicks":240,"midi":53,"name":"F3","ticks":10560,"time":3.4799970000000005,"velocity":0.7874015748031497},{"duration":0.10714274999999995,"durationTicks":240,"midi":50,"name":"D3","ticks":11040,"time":3.6942825000000004,"velocity":0.7874015748031497},{"duration":0.10000000000000009,"durationTicks":240,"midi":53,"name":"F3","ticks":11520,"time":3.9085680000000003,"velocity":0.7874015748031497},{"duration":0.10000000000000053,"durationTicks":240,"midi":53,"name":"F3","ticks":12480,"time":4.308568,"velocity":0.7874015748031497},{"duration":0.09999999999999964,"durationTicks":240,"midi":53,"name":"F3","ticks":12960,"time":4.508568,"velocity":0.7874015748031497},{"duration":0.10000000000000053,"durationTicks":240,"midi":53,"name":"F3","ticks":13200,"time":4.608568,"velocity":0.7874015748031497},{"duration":0.09999999999999964,"durationTicks":240,"midi":53,"name":"F3","ticks":13440,"time":4.7085680000000005,"velocity":0.7874015748031497},{"duration":0.10000000000000053,"durationTicks":240,"midi":53,"name":"F3","ticks":14400,"time":5.108568,"velocity":0.7874015748031497},{"duration":0.09999999999999964,"durationTicks":240,"midi":53,"name":"F3","ticks":15120,"time":5.408568000000001,"velocity":0.7874015748031497},{"duration":0.09999999999999964,"durationTicks":240,"midi":53,"name":"F3","ticks":15360,"time":5.508568,"velocity":0.7874015748031497},{"duration":0.09999999999999964,"durationTicks":240,"midi":53,"name":"F3","ticks":16320,"time":5.908568000000001,"velocity":0.7874015748031497},{"duration":0.10000000000000053,"durationTicks":240,"midi":53,"name":"F3","ticks":16800,"time":6.108568,"velocity":0.7874015748031497},{"duration":0.10000000000000053,"durationTicks":240,"midi":53,"name":"F3","ticks":17040,"time":6.2085680000000005,"velocity":0.7874015748031497},{"duration":0.09999999999999964,"durationTicks":240,"midi":53,"name":"F3","ticks":17280,"time":6.308568000000001,"velocity":0.7874015748031497},{"duration":0.10000000000000053,"durationTicks":240,"midi":53,"name":"F3","ticks":18240,"time":6.7085680000000005,"velocity":0.7874015748031497},{"duration":0.09999999999999964,"durationTicks":240,"midi":53,"name":"F3","ticks":18960,"time":7.008568,"velocity":0.7874015748031497},{"duration":0.10000000000000053,"durationTicks":240,"midi":53,"name":"F3","ticks":19200,"time":7.108568,"velocity":0.7874015748031497},{"duration":0.09999999999999964,"durationTicks":240,"midi":53,"name":"F3","ticks":20160,"time":7.508568,"velocity":0.7874015748031497},{"duration":0.10000000000000053,"durationTicks":240,"midi":53,"name":"F3","ticks":20640,"time":7.7085680000000005,"velocity":0.7874015748031497},{"duration":0.09999999999999964,"durationTicks":240,"midi":53,"name":"F3","ticks":20880,"time":7.808568000000001,"velocity":0.7874015748031497},{"duration":0.09999999999999964,"durationTicks":240,"midi":53,"name":"F3","ticks":21120,"time":7.908568000000001,"velocity":0.7874015748031497},{"duration":0.09999999999999964,"durationTicks":240,"midi":53,"name":"F3","ticks":22080,"time":8.308568000000001,"velocity":0.7874015748031497},{"duration":0.10000000000000142,"durationTicks":240,"midi":53,"name":"F3","ticks":22800,"time":8.608568,"velocity":0.7874015748031497},{"duration":0.09999999999999964,"durationTicks":240,"midi":53,"name":"F3","ticks":23040,"time":8.708568000000001,"velocity":0.7874015748031497},{"duration":0.10000000000000142,"durationTicks":240,"midi":53,"name":"F3","ticks":24000,"time":9.108568,"velocity":0.7874015748031497},{"duration":0.09999999999999964,"durationTicks":240,"midi":53,"name":"F3","ticks":24480,"time":9.308568000000001,"velocity":0.7874015748031497},{"duration":0.09999999999999964,"durationTicks":240,"midi":53,"name":"F3","ticks":24720,"time":9.408568,"velocity":0.7874015748031497},{"duration":0.09999999999999964,"durationTicks":240,"midi":53,"name":"F3","ticks":24960,"time":9.508568,"velocity":0.7874015748031497},{"duration":0.09999999999999964,"durationTicks":240,"midi":53,"name":"F3","ticks":25920,"time":9.908568,"velocity":0.7874015748031497},{"duration":0.09999999999999964,"durationTicks":240,"midi":53,"name":"F3","ticks":26640,"time":10.208568000000001,"velocity":0.7874015748031497},{"duration":0.09999999999999964,"durationTicks":240,"midi":53,"name":"F3","ticks":26880,"time":10.308568000000001,"velocity":0.7874015748031497},{"duration":0.09999999999999964,"durationTicks":240,"midi":53,"name":"F3","ticks":27840,"time":10.708568000000001,"velocity":0.7874015748031497},{"duration":0.09999999999999964,"durationTicks":240,"midi":53,"name":"F3","ticks":28320,"time":10.908568,"velocity":0.7874015748031497},{"duration":0.09999999999999964,"durationTicks":240,"midi":53,"name":"F3","ticks":28560,"time":11.008568,"velocity":0.7874015748031497},{"duration":0.10000000000000142,"durationTicks":240,"midi":53,"name":"F3","ticks":28800,"time":11.108568,"velocity":0.7874015748031497},{"duration":0.09999999999999964,"durationTicks":240,"midi":53,"name":"F3","ticks":29760,"time":11.508568,"velocity":0.7874015748031497},{"duration":0.09999999999999964,"durationTicks":240,"midi":53,"name":"F3","ticks":30480,"time":11.808568000000001,"velocity":0.7874015748031497},{"duration":0.09999999999999964,"durationTicks":240,"midi":53,"name":"F3","ticks":30720,"time":11.908568,"velocity":0.7874015748031497},{"duration":0.09999999999999964,"durationTicks":240,"midi":53,"name":"F3","ticks":31680,"time":12.308568000000001,"velocity":0.7874015748031497},{"duration":0.10000000000000142,"durationTicks":240,"midi":53,"name":"F3","ticks":32160,"time":12.508568,"velocity":0.7874015748031497},{"duration":0.09999999999999964,"durationTicks":240,"midi":53,"name":"F3","ticks":32400,"time":12.608568000000002,"velocity":0.7874015748031497},{"duration":0.09999999999999964,"durationTicks":240,"midi":53,"name":"F3","ticks":32640,"time":12.708568000000001,"velocity":0.7874015748031497},{"duration":0.09999999999999964,"durationTicks":240,"midi":53,"name":"F3","ticks":33600,"time":13.108568000000002,"velocity":0.7874015748031497},{"duration":0.10000000000000142,"durationTicks":240,"midi":53,"name":"F3","ticks":34320,"time":13.408568,"velocity":0.7874015748031497},{"duration":0.09999999999999964,"durationTicks":240,"midi":53,"name":"F3","ticks":34560,"time":13.508568000000002,"velocity":0.7874015748031497},{"duration":0.10000000000000142,"durationTicks":240,"midi":53,"name":"F3","ticks":35520,"time":13.908568,"velocity":0.7874015748031497},{"duration":0.09999999999999964,"durationTicks":240,"midi":53,"name":"F3","ticks":36000,"time":14.108568000000002,"velocity":0.7874015748031497},{"duration":0.09999999999999964,"durationTicks":240,"midi":53,"name":"F3","ticks":36240,"time":14.208568000000001,"velocity":0.7874015748031497},{"duration":0.09999999999999964,"durationTicks":240,"midi":53,"name":"F3","ticks":36480,"time":14.308568000000001,"velocity":0.7874015748031497},{"duration":0.09999999999999964,"durationTicks":240,"midi":53,"name":"F3","ticks":37440,"time":14.708568000000001,"velocity":0.7874015748031497},{"duration":0.09999999999999964,"durationTicks":240,"midi":53,"name":"F3","ticks":38160,"time":15.008568000000002,"velocity":0.7874015748031497},{"duration":0.09999999999999964,"durationTicks":240,"midi":53,"name":"F3","ticks":38400,"time":15.108568000000002,"velocity":0.7874015748031497},{"duration":0.09999999999999964,"durationTicks":240,"midi":53,"name":"F3","ticks":39360,"time":15.508568000000002,"velocity":0.7874015748031497},{"duration":0.09999999999999964,"durationTicks":240,"midi":53,"name":"F3","ticks":39840,"time":15.708568000000001,"velocity":0.7874015748031497},{"duration":0.09999999999999964,"durationTicks":240,"midi":53,"name":"F3","ticks":40080,"time":15.808568000000001,"velocity":0.7874015748031497},{"duration":0.09999999999999964,"durationTicks":240,"midi":53,"name":"F3","ticks":40320,"time":15.908568,"velocity":0.7874015748031497},{"duration":0.09999999999999787,"durationTicks":240,"midi":53,"name":"F3","ticks":41280,"time":16.308568,"velocity":0.7874015748031497},{"duration":0.09999999999999787,"durationTicks":240,"midi":53,"name":"F3","ticks":42000,"time":16.608568,"velocity":0.7874015748031497},{"duration":0.10000000000000142,"durationTicks":240,"midi":53,"name":"F3","ticks":42240,"time":16.708568,"velocity":0.7874015748031497},{"duration":0.09999999999999787,"durationTicks":240,"midi":53,"name":"F3","ticks":43200,"time":17.108568,"velocity":0.7874015748031497},{"duration":0.09999999999999787,"durationTicks":240,"midi":53,"name":"F3","ticks":43680,"time":17.308568,"velocity":0.7874015748031497},{"duration":0.10000000000000142,"durationTicks":240,"midi":53,"name":"F3","ticks":43920,"time":17.408568,"velocity":0.7874015748031497},{"duration":0.10000000000000142,"durationTicks":240,"midi":53,"name":"F3","ticks":44160,"time":17.508568,"velocity":0.7874015748031497},{"duration":0.10000000000000142,"durationTicks":240,"midi":53,"name":"F3","ticks":45120,"time":17.908568,"velocity":0.7874015748031497},{"duration":0.10000000000000142,"durationTicks":240,"midi":53,"name":"F3","ticks":45840,"time":18.208568,"velocity":0.7874015748031497},{"duration":0.09999999999999787,"durationTicks":240,"midi":53,"name":"F3","ticks":46080,"time":18.308568,"velocity":0.7874015748031497},{"duration":0.10000000000000142,"durationTicks":240,"midi":53,"name":"F3","ticks":47040,"time":18.708568,"velocity":0.7874015748031497},{"duration":0.10000000000000142,"durationTicks":240,"midi":53,"name":"F3","ticks":47520,"time":18.908568,"velocity":0.7874015748031497},{"duration":0.10000000000000142,"durationTicks":240,"midi":53,"name":"F3","ticks":47760,"time":19.008568,"velocity":0.7874015748031497},{"duration":0.09999999999999787,"durationTicks":240,"midi":53,"name":"F3","ticks":48000,"time":19.108568,"velocity":0.7874015748031497},{"duration":0.10000000000000142,"durationTicks":240,"midi":53,"name":"F3","ticks":48960,"time":19.508568,"velocity":0.7874015748031497},{"duration":0.09999999999999787,"durationTicks":240,"midi":53,"name":"F3","ticks":49680,"time":19.808568,"velocity":0.7874015748031497},{"duration":0.10000000000000142,"durationTicks":240,"midi":53,"name":"F3","ticks":49920,"time":19.908568,"velocity":0.7874015748031497},{"duration":0.09999999999999787,"durationTicks":240,"midi":53,"name":"F3","ticks":50880,"time":20.308568,"velocity":0.7874015748031497},{"duration":0.09999999999999787,"durationTicks":240,"midi":53,"name":"F3","ticks":51360,"time":20.508568,"velocity":0.7874015748031497},{"duration":0.10000000000000142,"durationTicks":240,"midi":53,"name":"F3","ticks":51600,"time":20.608567999999998,"velocity":0.7874015748031497},{"duration":0.10000000000000142,"durationTicks":240,"midi":53,"name":"F3","ticks":51840,"time":20.708568,"velocity":0.7874015748031497},{"duration":0.10000000000000142,"durationTicks":240,"midi":53,"name":"F3","ticks":52800,"time":21.108567999999998,"velocity":0.7874015748031497},{"duration":0.10000000000000142,"durationTicks":240,"midi":53,"name":"F3","ticks":53520,"time":21.408568,"velocity":0.7874015748031497},{"duration":0.09999999999999787,"durationTicks":240,"midi":53,"name":"F3","ticks":53760,"time":21.508568,"velocity":0.7874015748031497},{"duration":0.10000000000000142,"durationTicks":240,"midi":53,"name":"F3","ticks":54720,"time":21.908568,"velocity":0.7874015748031497},{"duration":0.10000000000000142,"durationTicks":240,"midi":53,"name":"F3","ticks":55200,"time":22.108567999999998,"velocity":0.7874015748031497},{"duration":0.10000000000000142,"durationTicks":240,"midi":53,"name":"F3","ticks":55440,"time":22.208568,"velocity":0.7874015748031497},{"duration":0.09999999999999787,"durationTicks":240,"midi":53,"name":"F3","ticks":55680,"time":22.308568,"velocity":0.7874015748031497},{"duration":0.10000000000000142,"durationTicks":240,"midi":53,"name":"F3","ticks":56640,"time":22.708568,"velocity":0.7874015748031497},{"duration":0.10000000000000142,"durationTicks":240,"midi":53,"name":"F3","ticks":57360,"time":23.008568,"velocity":0.7874015748031497},{"duration":0.09999999999999787,"durationTicks":240,"midi":53,"name":"F3","ticks":57600,"time":23.108568,"velocity":0.7874015748031497},{"duration":0.10000000000000142,"durationTicks":240,"midi":53,"name":"F3","ticks":58560,"time":23.508568,"velocity":0.7874015748031497},{"duration":0.10000000000000142,"durationTicks":240,"midi":53,"name":"F3","ticks":59040,"time":23.708568,"velocity":0.7874015748031497},{"duration":0.09999999999999787,"durationTicks":240,"midi":53,"name":"F3","ticks":59280,"time":23.808568,"velocity":0.7874015748031497},{"duration":0.10000000000000142,"durationTicks":240,"midi":53,"name":"F3","ticks":59520,"time":23.908568,"velocity":0.7874015748031497},{"duration":0.09999999999999787,"durationTicks":240,"midi":53,"name":"F3","ticks":60480,"time":24.308568,"velocity":0.7874015748031497},{"duration":0.09999999999999787,"durationTicks":240,"midi":53,"name":"F3","ticks":61200,"time":24.608568,"velocity":0.7874015748031497},{"duration":0.10000000000000142,"durationTicks":240,"midi":53,"name":"F3","ticks":61440,"time":24.708568,"velocity":0.7874015748031497},{"duration":0.09999999999999787,"durationTicks":240,"midi":53,"name":"F3","ticks":62400,"time":25.108568,"velocity":0.7874015748031497},{"duration":0.09999999999999787,"durationTicks":240,"midi":53,"name":"F3","ticks":62880,"time":25.308568,"velocity":0.7874015748031497},{"duration":0.10000000000000142,"durationTicks":240,"midi":53,"name":"F3","ticks":63120,"time":25.408568,"velocity":0.7874015748031497},{"duration":0.10000000000000142,"durationTicks":240,"midi":53,"name":"F3","ticks":63360,"time":25.508568,"velocity":0.7874015748031497},{"duration":0.10000000000000142,"durationTicks":240,"midi":53,"name":"F3","ticks":64320,"time":25.908568,"velocity":0.7874015748031497},{"duration":0.10000000000000142,"durationTicks":240,"midi":53,"name":"F3","ticks":65040,"time":26.208568,"velocity":0.7874015748031497},{"duration":0.09999999999999787,"durationTicks":240,"midi":53,"name":"F3","ticks":65280,"time":26.308568,"velocity":0.7874015748031497},{"duration":0.10000000000000142,"durationTicks":240,"midi":53,"name":"F3","ticks":66240,"time":26.708568,"velocity":0.7874015748031497},{"duration":0.10000000000000142,"durationTicks":240,"midi":53,"name":"F3","ticks":66720,"time":26.908568,"velocity":0.7874015748031497},{"duration":0.10000000000000142,"durationTicks":240,"midi":53,"name":"F3","ticks":66960,"time":27.008568,"velocity":0.7874015748031497},{"duration":0.09999999999999787,"durationTicks":240,"midi":53,"name":"F3","ticks":67200,"time":27.108568,"velocity":0.7874015748031497},{"duration":0.10000000000000142,"durationTicks":240,"midi":53,"name":"F3","ticks":68160,"time":27.508568,"velocity":0.7874015748031497},{"duration":0.09999999999999787,"durationTicks":240,"midi":53,"name":"F3","ticks":68880,"time":27.808568,"velocity":0.7874015748031497},{"duration":0.10000000000000142,"durationTicks":240,"midi":53,"name":"F3","ticks":69120,"time":27.908568,"velocity":0.7874015748031497},{"duration":0.09999999999999787,"durationTicks":240,"midi":53,"name":"F3","ticks":70080,"time":28.308568,"velocity":0.7874015748031497},{"duration":0.10000000000000142,"durationTicks":240,"midi":53,"name":"F3","ticks":70560,"time":28.508568,"velocity":0.7874015748031497},{"duration":0.09999999999999787,"durationTicks":240,"midi":53,"name":"F3","ticks":70800,"time":28.608568,"velocity":0.7874015748031497},{"duration":0.10000000000000142,"durationTicks":240,"midi":53,"name":"F3","ticks":71040,"time":28.708568,"velocity":0.7874015748031497},{"duration":0.09999999999999787,"durationTicks":240,"midi":53,"name":"F3","ticks":72000,"time":29.108568,"velocity":0.7874015748031497},{"duration":0.10000000000000142,"durationTicks":240,"midi":53,"name":"F3","ticks":72720,"time":29.408568,"velocity":0.7874015748031497},{"duration":0.10000000000000142,"durationTicks":240,"midi":53,"name":"F3","ticks":72960,"time":29.508568,"velocity":0.7874015748031497},{"duration":0.10000000000000142,"durationTicks":240,"midi":53,"name":"F3","ticks":73920,"time":29.908568,"velocity":0.7874015748031497},{"duration":0.09999999999999787,"durationTicks":240,"midi":53,"name":"F3","ticks":74400,"time":30.108568,"velocity":0.7874015748031497},{"duration":0.10000000000000142,"durationTicks":240,"midi":53,"name":"F3","ticks":74640,"time":30.208568,"velocity":0.7874015748031497},{"duration":0.09999999999999787,"durationTicks":240,"midi":53,"name":"F3","ticks":74880,"time":30.308568,"velocity":0.7874015748031497},{"duration":0.10000000000000142,"durationTicks":240,"midi":53,"name":"F3","ticks":75840,"time":30.708568,"velocity":0.7874015748031497},{"duration":0.10000000000000142,"durationTicks":240,"midi":53,"name":"F3","ticks":76560,"time":31.008568,"velocity":0.7874015748031497},{"duration":0.09999999999999787,"durationTicks":240,"midi":53,"name":"F3","ticks":76800,"time":31.108568,"velocity":0.7874015748031497},{"duration":0.10000000000000142,"durationTicks":240,"midi":53,"name":"F3","ticks":77760,"time":31.508568,"velocity":0.7874015748031497},{"duration":0.10000000000000142,"durationTicks":240,"midi":53,"name":"F3","ticks":78240,"time":31.708568,"velocity":0.7874015748031497},{"duration":0.09999999999999787,"durationTicks":240,"midi":53,"name":"F3","ticks":78480,"time":31.808568,"velocity":0.7874015748031497},{"duration":0.10000000000000497,"durationTicks":240,"midi":53,"name":"F3","ticks":78720,"time":31.908568,"velocity":0.7874015748031497},{"duration":0.10000000000000142,"durationTicks":240,"midi":53,"name":"F3","ticks":79680,"time":32.308568,"velocity":0.7874015748031497},{"duration":0.09999999999999432,"durationTicks":240,"midi":53,"name":"F3","ticks":80400,"time":32.608568000000005,"velocity":0.7874015748031497},{"duration":0.10000000000000142,"durationTicks":240,"midi":53,"name":"F3","ticks":80640,"time":32.708568,"velocity":0.7874015748031497},{"duration":0.09999999999999432,"durationTicks":240,"midi":53,"name":"F3","ticks":81600,"time":33.108568000000005,"velocity":0.7874015748031497},{"duration":0.10000000000000142,"durationTicks":240,"midi":53,"name":"F3","ticks":82080,"time":33.308568,"velocity":0.7874015748031497},{"duration":0.10000000000000142,"durationTicks":240,"midi":53,"name":"F3","ticks":82320,"time":33.408568,"velocity":0.7874015748031497},{"duration":0.10000000000000142,"durationTicks":240,"midi":53,"name":"F3","ticks":82560,"time":33.508568000000004,"velocity":0.7874015748031497},{"duration":0.10000000000000142,"durationTicks":240,"midi":53,"name":"F3","ticks":83520,"time":33.908568,"velocity":0.7874015748031497},{"duration":0.10000000000000142,"durationTicks":240,"midi":53,"name":"F3","ticks":84240,"time":34.208568,"velocity":0.7874015748031497},{"duration":0.10000000000000142,"durationTicks":240,"midi":53,"name":"F3","ticks":84480,"time":34.308568,"velocity":0.7874015748031497},{"duration":0.10000000000000142,"durationTicks":240,"midi":53,"name":"F3","ticks":85440,"time":34.708568,"velocity":0.7874015748031497},{"duration":0.10000000000000142,"durationTicks":240,"midi":53,"name":"F3","ticks":85920,"time":34.908568,"velocity":0.7874015748031497},{"duration":0.10000000000000142,"durationTicks":240,"midi":53,"name":"F3","ticks":86160,"time":35.008568000000004,"velocity":0.7874015748031497},{"duration":0.09999999999999432,"durationTicks":240,"midi":53,"name":"F3","ticks":86400,"time":35.108568000000005,"velocity":0.7874015748031497},{"duration":0.10000000000000142,"durationTicks":240,"midi":53,"name":"F3","ticks":87360,"time":35.508568000000004,"velocity":0.7874015748031497},{"duration":0.10000000000000142,"durationTicks":240,"midi":53,"name":"F3","ticks":88080,"time":35.808568,"velocity":0.7874015748031497},{"duration":0.10000000000000142,"durationTicks":240,"midi":48,"name":"C3","ticks":88320,"time":35.908568,"velocity":0.7874015748031497},{"duration":0.09999999999999432,"durationTicks":240,"midi":48,"name":"C3","ticks":90240,"time":36.70856800000001,"velocity":0.7874015748031497},{"duration":0.10000000000000142,"durationTicks":240,"midi":48,"name":"C3","ticks":92160,"time":37.508568000000004,"velocity":0.7874015748031497},{"duration":0.10000000000000142,"durationTicks":240,"midi":48,"name":"C3","ticks":93120,"time":37.908568,"velocity":0.7874015748031497},{"duration":0.10000000000000142,"durationTicks":240,"midi":48,"name":"C3","ticks":94080,"time":38.308568,"velocity":0.7874015748031497},{"duration":0.09999999999999432,"durationTicks":240,"midi":48,"name":"C3","ticks":95040,"time":38.70856800000001,"velocity":0.7874015748031497},{"duration":0.10000000000000142,"durationTicks":240,"midi":48,"name":"C3","ticks":96000,"time":39.108568000000005,"velocity":0.7874015748031497},{"duration":0.10000000000000142,"durationTicks":240,"midi":48,"name":"C3","ticks":97920,"time":39.908568,"velocity":0.7874015748031497},{"duration":0.09999999999999432,"durationTicks":240,"midi":48,"name":"C3","ticks":99840,"time":40.70856800000001,"velocity":0.7874015748031497},{"duration":0.10000000000000142,"durationTicks":240,"midi":48,"name":"C3","ticks":100800,"time":41.108568000000005,"velocity":0.7874015748031497},{"duration":0.10000000000000142,"durationTicks":240,"midi":48,"name":"C3","ticks":101520,"time":41.408568,"velocity":0.7874015748031497},{"duration":0.10000000000000142,"durationTicks":240,"midi":48,"name":"C3","ticks":101760,"time":41.508568000000004,"velocity":0.7874015748031497},{"duration":0.09999999999999432,"durationTicks":240,"midi":48,"name":"C3","ticks":102240,"time":41.70856800000001,"velocity":0.7874015748031497},{"duration":0.10000000000000142,"durationTicks":240,"midi":48,"name":"C3","ticks":102720,"time":41.908568,"velocity":0.7874015748031497},{"duration":0.10000000000000142,"durationTicks":240,"midi":48,"name":"C3","ticks":103200,"time":42.108568000000005,"velocity":0.7874015748031497},{"duration":0.09999999999999432,"durationTicks":240,"midi":48,"name":"C3","ticks":103680,"time":42.30856800000001,"velocity":0.7874015748031497},{"duration":0.10000000000000142,"durationTicks":240,"midi":48,"name":"C3","ticks":104640,"time":42.70856800000001,"velocity":0.7874015748031497},{"duration":0.10000000000000142,"durationTicks":240,"midi":48,"name":"C3","ticks":105600,"time":43.108568000000005,"velocity":0.7874015748031497},{"duration":0.10000000000000142,"durationTicks":240,"midi":48,"name":"C3","ticks":106560,"time":43.508568000000004,"velocity":0.7874015748031497},{"duration":0.10000000000000142,"durationTicks":240,"midi":48,"name":"C3","ticks":107520,"time":43.908568,"velocity":0.7874015748031497},{"duration":0.09999999999999432,"durationTicks":240,"midi":48,"name":"C3","ticks":108480,"time":44.30856800000001,"velocity":0.7874015748031497},{"duration":0.10000000000000142,"durationTicks":240,"midi":48,"name":"C3","ticks":109440,"time":44.70856800000001,"velocity":0.7874015748031497},{"duration":0.10000000000000142,"durationTicks":240,"midi":48,"name":"C3","ticks":110400,"time":45.108568000000005,"velocity":0.7874015748031497},{"duration":0.10000000000000142,"durationTicks":240,"midi":48,"name":"C3","ticks":111360,"time":45.508568000000004,"velocity":0.7874015748031497},{"duration":0.10000000000000142,"durationTicks":240,"midi":48,"name":"C3","ticks":112320,"time":45.908568,"velocity":0.7874015748031497},{"duration":0.09999999999999432,"durationTicks":240,"midi":48,"name":"C3","ticks":113280,"time":46.30856800000001,"velocity":0.7874015748031497},{"duration":0.10000000000000142,"durationTicks":240,"midi":48,"name":"C3","ticks":114240,"time":46.70856800000001,"velocity":0.7874015748031497},{"duration":0.10000000000000142,"durationTicks":240,"midi":48,"name":"C3","ticks":115200,"time":47.108568000000005,"velocity":0.7874015748031497},{"duration":0.10000000000000142,"durationTicks":240,"midi":48,"name":"C3","ticks":116160,"time":47.508568000000004,"velocity":0.7874015748031497},{"duration":0.10000000000000142,"durationTicks":240,"midi":48,"name":"C3","ticks":117120,"time":47.908568,"velocity":0.7874015748031497},{"duration":0.10000000000000142,"durationTicks":240,"midi":72,"name":"C5","ticks":117120,"time":47.908568,"velocity":0.7874015748031497},{"duration":0.10000000000000142,"durationTicks":240,"midi":71,"name":"B4","ticks":117120,"time":47.908568,"velocity":0.6377952755905512},{"duration":0.10000000000000142,"durationTicks":240,"midi":48,"name":"C3","ticks":117360,"time":48.008568000000004,"velocity":0.7874015748031497},{"duration":0.10000000000000142,"durationTicks":240,"midi":72,"name":"C5","ticks":117360,"time":48.008568000000004,"velocity":0.7874015748031497},{"duration":0.10000000000000142,"durationTicks":240,"midi":71,"name":"B4","ticks":117360,"time":48.008568000000004,"velocity":0.6299212598425197},{"duration":0.10000000000000142,"durationTicks":240,"midi":48,"name":"C3","ticks":117600,"time":48.108568000000005,"velocity":0.7874015748031497},{"duration":0.10000000000000142,"durationTicks":240,"midi":64,"name":"E4","ticks":117840,"time":48.20856800000001,"velocity":0.7874015748031497},{"duration":0.10000000000000142,"durationTicks":240,"midi":63,"name":"D#4","ticks":117840,"time":48.20856800000001,"velocity":0.6299212598425197},{"duration":0.09999999999999432,"durationTicks":240,"midi":48,"name":"C3","ticks":118080,"time":48.30856800000001,"velocity":0.7874015748031497},{"duration":0.10000000000000142,"durationTicks":240,"midi":56,"name":"G#3","ticks":118320,"time":48.408568,"velocity":0.7874015748031497},{"duration":0.10000000000000142,"durationTicks":240,"midi":55,"name":"G3","ticks":118320,"time":48.408568,"velocity":0.6377952755905512},{"duration":0.10000000000000142,"durationTicks":240,"midi":48,"name":"C3","ticks":118560,"time":48.508568000000004,"velocity":0.7874015748031497},{"duration":0.10000000000000142,"durationTicks":240,"midi":56,"name":"G#3","ticks":118560,"time":48.508568000000004,"velocity":0.7874015748031497},{"duration":0.10000000000000142,"durationTicks":240,"midi":55,"name":"G3","ticks":118560,"time":48.508568000000004,"velocity":0.6377952755905512},{"duration":0.10000000000000142,"durationTicks":240,"midi":53,"name":"F3","ticks":119040,"time":48.70856800000001,"velocity":0.7874015748031497},{"duration":0.10000000000000142,"durationTicks":240,"midi":53,"name":"F3","ticks":120000,"time":49.108568000000005,"velocity":0.7874015748031497},{"duration":0.09999999999999432,"durationTicks":240,"midi":53,"name":"F3","ticks":120480,"time":49.30856800000001,"velocity":0.7874015748031497},{"duration":0.10000000000000142,"durationTicks":240,"midi":53,"name":"F3","ticks":120720,"time":49.408568,"velocity":0.7874015748031497},{"duration":0.10000000000000142,"durationTicks":240,"midi":53,"name":"F3","ticks":120960,"time":49.508568000000004,"velocity":0.7874015748031497},{"duration":0.10000000000000142,"durationTicks":240,"midi":53,"name":"F3","ticks":121920,"time":49.908568,"velocity":0.7874015748031497},{"duration":0.10000000000000142,"durationTicks":240,"midi":53,"name":"F3","ticks":122640,"time":50.20856800000001,"velocity":0.7874015748031497},{"duration":0.09999999999999432,"durationTicks":240,"midi":53,"name":"F3","ticks":122880,"time":50.30856800000001,"velocity":0.7874015748031497},{"duration":0.10000000000000142,"durationTicks":240,"midi":53,"name":"F3","ticks":123840,"time":50.70856800000001,"velocity":0.7874015748031497},{"duration":0.10000000000000142,"durationTicks":240,"midi":53,"name":"F3","ticks":124320,"time":50.908568,"velocity":0.7874015748031497},{"duration":0.10000000000000142,"durationTicks":240,"midi":53,"name":"F3","ticks":124560,"time":51.008568000000004,"velocity":0.7874015748031497},{"duration":0.10000000000000142,"durationTicks":240,"midi":53,"name":"F3","ticks":124800,"time":51.108568000000005,"velocity":0.7874015748031497},{"duration":0.10000000000000142,"durationTicks":240,"midi":53,"name":"F3","ticks":125760,"time":51.508568000000004,"velocity":0.7874015748031497},{"duration":0.09999999999999432,"durationTicks":240,"midi":53,"name":"F3","ticks":126480,"time":51.80856800000001,"velocity":0.7874015748031497},{"duration":0.10000000000000142,"durationTicks":240,"midi":53,"name":"F3","ticks":126720,"time":51.908568,"velocity":0.7874015748031497},{"duration":0.09999999999999432,"durationTicks":240,"midi":53,"name":"F3","ticks":127680,"time":52.30856800000001,"velocity":0.7874015748031497},{"duration":0.10000000000000142,"durationTicks":240,"midi":53,"name":"F3","ticks":128160,"time":52.508568000000004,"velocity":0.7874015748031497},{"duration":0.10000000000000142,"durationTicks":240,"midi":53,"name":"F3","ticks":128400,"time":52.608568000000005,"velocity":0.7874015748031497},{"duration":0.10000000000000142,"durationTicks":240,"midi":53,"name":"F3","ticks":128640,"time":52.70856800000001,"velocity":0.7874015748031497},{"duration":0.10000000000000142,"durationTicks":240,"midi":53,"name":"F3","ticks":129600,"time":53.108568000000005,"velocity":0.7874015748031497},{"duration":0.10000000000000142,"durationTicks":240,"midi":53,"name":"F3","ticks":130320,"time":53.408568,"velocity":0.7874015748031497},{"duration":0.10000000000000142,"durationTicks":240,"midi":53,"name":"F3","ticks":130560,"time":53.508568000000004,"velocity":0.7874015748031497},{"duration":0.10000000000000142,"durationTicks":240,"midi":53,"name":"F3","ticks":131520,"time":53.908568,"velocity":0.7874015748031497},{"duration":0.10000000000000142,"durationTicks":240,"midi":53,"name":"F3","ticks":132000,"time":54.108568000000005,"velocity":0.7874015748031497},{"duration":0.10000000000000142,"durationTicks":240,"midi":53,"name":"F3","ticks":132240,"time":54.20856800000001,"velocity":0.7874015748031497},{"duration":0.09999999999999432,"durationTicks":240,"midi":53,"name":"F3","ticks":132480,"time":54.30856800000001,"velocity":0.7874015748031497},{"duration":0.10000000000000142,"durationTicks":240,"midi":53,"name":"F3","ticks":133440,"time":54.70856800000001,"velocity":0.7874015748031497},{"duration":0.10000000000000142,"durationTicks":240,"midi":53,"name":"F3","ticks":134160,"time":55.008568000000004,"velocity":0.7874015748031497},{"duration":0.10000000000000142,"durationTicks":240,"midi":53,"name":"F3","ticks":134400,"time":55.108568000000005,"velocity":0.7874015748031497},{"duration":0.10000000000000142,"durationTicks":240,"midi":53,"name":"F3","ticks":135360,"time":55.508568000000004,"velocity":0.7874015748031497},{"duration":0.10000000000000142,"durationTicks":240,"midi":53,"name":"F3","ticks":135840,"time":55.70856800000001,"velocity":0.7874015748031497},{"duration":0.09999999999999432,"durationTicks":240,"midi":53,"name":"F3","ticks":136080,"time":55.80856800000001,"velocity":0.7874015748031497},{"duration":0.10000000000000142,"durationTicks":240,"midi":53,"name":"F3","ticks":136320,"time":55.908568,"velocity":0.7874015748031497},{"duration":0.09999999999999432,"durationTicks":240,"midi":53,"name":"F3","ticks":137280,"time":56.30856800000001,"velocity":0.7874015748031497},{"duration":0.10000000000000142,"durationTicks":240,"midi":53,"name":"F3","ticks":138000,"time":56.608568000000005,"velocity":0.7874015748031497},{"duration":0.10000000000000142,"durationTicks":240,"midi":53,"name":"F3","ticks":138240,"time":56.70856800000001,"velocity":0.7874015748031497},{"duration":0.10000000000000142,"durationTicks":240,"midi":53,"name":"F3","ticks":139200,"time":57.108568000000005,"velocity":0.7874015748031497},{"duration":0.09999999999999432,"durationTicks":240,"midi":53,"name":"F3","ticks":139680,"time":57.30856800000001,"velocity":0.7874015748031497},{"duration":0.10000000000000142,"durationTicks":240,"midi":53,"name":"F3","ticks":139920,"time":57.408568,"velocity":0.7874015748031497},{"duration":0.10000000000000142,"durationTicks":240,"midi":53,"name":"F3","ticks":140160,"time":57.508568000000004,"velocity":0.7874015748031497},{"duration":0.10000000000000142,"durationTicks":240,"midi":53,"name":"F3","ticks":141120,"time":57.908568,"velocity":0.7874015748031497},{"duration":0.10000000000000142,"durationTicks":240,"midi":53,"name":"F3","ticks":141840,"time":58.20856800000001,"velocity":0.7874015748031497},{"duration":0.09999999999999432,"durationTicks":240,"midi":53,"name":"F3","ticks":142080,"time":58.30856800000001,"velocity":0.7874015748031497},{"duration":0.10000000000000142,"durationTicks":240,"midi":53,"name":"F3","ticks":143040,"time":58.70856800000001,"velocity":0.7874015748031497},{"duration":0.10000000000000142,"durationTicks":240,"midi":53,"name":"F3","ticks":143520,"time":58.908568,"velocity":0.7874015748031497},{"duration":0.10000000000000142,"durationTicks":240,"midi":53,"name":"F3","ticks":143760,"time":59.008568000000004,"velocity":0.7874015748031497},{"duration":0.10000000000000142,"durationTicks":240,"midi":53,"name":"F3","ticks":144000,"time":59.108568000000005,"velocity":0.7874015748031497},{"duration":0.10000000000000142,"durationTicks":240,"midi":53,"name":"F3","ticks":144960,"time":59.508568000000004,"velocity":0.7874015748031497},{"duration":0.09999999999999432,"durationTicks":240,"midi":53,"name":"F3","ticks":145680,"time":59.80856800000001,"velocity":0.7874015748031497},{"duration":0.10000000000000142,"durationTicks":240,"midi":53,"name":"F3","ticks":145920,"time":59.908568,"velocity":0.7874015748031497},{"duration":0.09999999999999432,"durationTicks":240,"midi":53,"name":"F3","ticks":146880,"time":60.30856800000001,"velocity":0.7874015748031497},{"duration":0.10000000000000142,"durationTicks":240,"midi":53,"name":"F3","ticks":147360,"time":60.508568000000004,"velocity":0.7874015748031497},{"duration":0.10000000000000142,"durationTicks":240,"midi":53,"name":"F3","ticks":147600,"time":60.608568000000005,"velocity":0.7874015748031497},{"duration":0.10000000000000142,"durationTicks":240,"midi":53,"name":"F3","ticks":147840,"time":60.70856800000001,"velocity":0.7874015748031497},{"duration":0.10000000000000142,"durationTicks":240,"midi":48,"name":"C3","ticks":147840,"time":60.70856800000001,"velocity":0.7874015748031497},{"duration":0.10000000000000142,"durationTicks":240,"midi":60,"name":"C4","ticks":147840,"time":60.70856800000001,"velocity":0.7874015748031497},{"duration":0.10000000000000142,"durationTicks":240,"midi":48,"name":"C3","ticks":148320,"time":60.908568,"velocity":0.7874015748031497},{"duration":0.10000000000000142,"durationTicks":240,"midi":58,"name":"A#3","ticks":148320,"time":60.908568,"velocity":0.7874015748031497},{"duration":0.10000000000000142,"durationTicks":240,"midi":53,"name":"F3","ticks":148800,"time":61.108568000000005,"velocity":0.7874015748031497},{"duration":0.10000000000000142,"durationTicks":240,"midi":48,"name":"C3","ticks":148800,"time":61.108568000000005,"velocity":0.7874015748031497},{"duration":0.10000000000000142,"durationTicks":240,"midi":56,"name":"G#3","ticks":148800,"time":61.108568000000005,"velocity":0.7874015748031497},{"duration":0.10000000000000142,"durationTicks":240,"midi":48,"name":"C3","ticks":149040,"time":61.20856800000001,"velocity":0.7874015748031497},{"duration":0.10000000000000142,"durationTicks":240,"midi":54,"name":"F#3","ticks":149040,"time":61.20856800000001,"velocity":0.7874015748031497},{"duration":0.09999999999999432,"durationTicks":240,"midi":48,"name":"C3","ticks":149280,"time":61.30856800000001,"velocity":0.7874015748031497},{"duration":0.09999999999999432,"durationTicks":240,"midi":52,"name":"E3","ticks":149280,"time":61.30856800000001,"velocity":0.7874015748031497},{"duration":0.10000000000000142,"durationTicks":240,"midi":53,"name":"F3","ticks":149520,"time":61.408568,"velocity":0.7874015748031497},{"duration":0.10000000000000142,"durationTicks":240,"midi":53,"name":"F3","ticks":149760,"time":61.508568000000004,"velocity":0.7874015748031497},{"duration":0.10000000000000142,"durationTicks":240,"midi":53,"name":"F3","ticks":150720,"time":61.908568,"velocity":0.7874015748031497},{"duration":0.10000000000000142,"durationTicks":240,"midi":53,"name":"F3","ticks":151200,"time":62.108568000000005,"velocity":0.7874015748031497},{"duration":0.10000000000000142,"durationTicks":240,"midi":53,"name":"F3","ticks":151440,"time":62.20856800000001,"velocity":0.7874015748031497},{"duration":0.09999999999999432,"durationTicks":240,"midi":53,"name":"F3","ticks":151680,"time":62.30856800000001,"velocity":0.7874015748031497},{"duration":0.10000000000000142,"durationTicks":240,"midi":53,"name":"F3","ticks":152640,"time":62.70856800000001,"velocity":0.7874015748031497},{"duration":0.10000000000000142,"durationTicks":240,"midi":53,"name":"F3","ticks":153360,"time":63.008568000000004,"velocity":0.7874015748031497},{"duration":0.10000000000000142,"durationTicks":240,"midi":53,"name":"F3","ticks":153600,"time":63.108568000000005,"velocity":0.7874015748031497},{"duration":0.10000000000000142,"durationTicks":240,"midi":53,"name":"F3","ticks":154560,"time":63.508568000000004,"velocity":0.7874015748031497},{"duration":0.10000000000000142,"durationTicks":240,"midi":53,"name":"F3","ticks":155040,"time":63.70856800000001,"velocity":0.7874015748031497},{"duration":0.09999999999999432,"durationTicks":240,"midi":53,"name":"F3","ticks":155280,"time":63.80856800000001,"velocity":0.7874015748031497},{"duration":0.09999999999999432,"durationTicks":240,"midi":53,"name":"F3","ticks":155520,"time":63.908568,"velocity":0.7874015748031497},{"duration":0.09999999999999432,"durationTicks":240,"midi":53,"name":"F3","ticks":156480,"time":64.30856800000001,"velocity":0.7874015748031497},{"duration":0.09999999999999432,"durationTicks":240,"midi":53,"name":"F3","ticks":157200,"time":64.608568,"velocity":0.7874015748031497},{"duration":0.10000000000000853,"durationTicks":240,"midi":53,"name":"F3","ticks":157440,"time":64.708568,"velocity":0.7874015748031497},{"duration":0.09999999999999432,"durationTicks":240,"midi":53,"name":"F3","ticks":158400,"time":65.108568,"velocity":0.7874015748031497},{"duration":0.09999999999999432,"durationTicks":240,"midi":53,"name":"F3","ticks":158880,"time":65.30856800000001,"velocity":0.7874015748031497},{"duration":0.09999999999999432,"durationTicks":240,"midi":53,"name":"F3","ticks":159120,"time":65.408568,"velocity":0.7874015748031497},{"duration":0.10000000000000853,"durationTicks":240,"midi":53,"name":"F3","ticks":159360,"time":65.508568,"velocity":0.7874015748031497},{"duration":0.09999999999999432,"durationTicks":240,"midi":53,"name":"F3","ticks":160320,"time":65.908568,"velocity":0.7874015748031497},{"duration":0.10000000000000853,"durationTicks":240,"midi":53,"name":"F3","ticks":161040,"time":66.208568,"velocity":0.7874015748031497},{"duration":0.09999999999999432,"durationTicks":240,"midi":53,"name":"F3","ticks":161280,"time":66.30856800000001,"velocity":0.7874015748031497},{"duration":0.10000000000000853,"durationTicks":240,"midi":53,"name":"F3","ticks":162240,"time":66.708568,"velocity":0.7874015748031497},{"duration":0.09999999999999432,"durationTicks":240,"midi":53,"name":"F3","ticks":162720,"time":66.908568,"velocity":0.7874015748031497},{"duration":0.10000000000000853,"durationTicks":240,"midi":53,"name":"F3","ticks":162960,"time":67.008568,"velocity":0.7874015748031497},{"duration":0.09999999999999432,"durationTicks":240,"midi":53,"name":"F3","ticks":163200,"time":67.108568,"velocity":0.7874015748031497},{"duration":0.10000000000000853,"durationTicks":240,"midi":53,"name":"F3","ticks":164160,"time":67.508568,"velocity":0.7874015748031497},{"duration":0.09999999999999432,"durationTicks":240,"midi":53,"name":"F3","ticks":164880,"time":67.80856800000001,"velocity":0.7874015748031497},{"duration":0.10000000000000853,"durationTicks":240,"midi":53,"name":"F3","ticks":165120,"time":67.908568,"velocity":0.7874015748031497},{"duration":0.09999999999999432,"durationTicks":240,"midi":53,"name":"F3","ticks":166080,"time":68.30856800000001,"velocity":0.7874015748031497},{"duration":0.09999999999999432,"durationTicks":240,"midi":53,"name":"F3","ticks":166560,"time":68.50856800000001,"velocity":0.7874015748031497},{"duration":0.09999999999999432,"durationTicks":240,"midi":53,"name":"F3","ticks":166800,"time":68.608568,"velocity":0.7874015748031497},{"duration":0.10000000000000853,"durationTicks":240,"midi":53,"name":"F3","ticks":167040,"time":68.708568,"velocity":0.7874015748031497},{"duration":0.09999999999999432,"durationTicks":240,"midi":53,"name":"F3","ticks":168000,"time":69.108568,"velocity":0.7874015748031497},{"duration":0.10000000000000853,"durationTicks":240,"midi":53,"name":"F3","ticks":168720,"time":69.408568,"velocity":0.7874015748031497},{"duration":0.09999999999999432,"durationTicks":240,"midi":53,"name":"F3","ticks":168960,"time":69.50856800000001,"velocity":0.7874015748031497},{"duration":0.10000000000000853,"durationTicks":240,"midi":53,"name":"F3","ticks":169920,"time":69.908568,"velocity":0.7874015748031497},{"duration":0.09999999999999432,"durationTicks":240,"midi":53,"name":"F3","ticks":170400,"time":70.108568,"velocity":0.7874015748031497},{"duration":0.10000000000000853,"durationTicks":240,"midi":53,"name":"F3","ticks":170640,"time":70.208568,"velocity":0.7874015748031497},{"duration":0.09999999999999432,"durationTicks":240,"midi":53,"name":"F3","ticks":170880,"time":70.30856800000001,"velocity":0.7874015748031497},{"duration":0.10000000000000853,"durationTicks":240,"midi":53,"name":"F3","ticks":171840,"time":70.708568,"velocity":0.7874015748031497},{"duration":0.09999999999999432,"durationTicks":240,"midi":53,"name":"F3","ticks":172560,"time":71.00856800000001,"velocity":0.7874015748031497},{"duration":0.09999999999999432,"durationTicks":240,"midi":53,"name":"F3","ticks":172800,"time":71.108568,"velocity":0.7874015748031497},{"duration":0.09999999999999432,"durationTicks":240,"midi":53,"name":"F3","ticks":173760,"time":71.50856800000001,"velocity":0.7874015748031497},{"duration":0.10000000000000853,"durationTicks":240,"midi":53,"name":"F3","ticks":174240,"time":71.708568,"velocity":0.7874015748031497},{"duration":0.09999999999999432,"durationTicks":240,"midi":53,"name":"F3","ticks":174480,"time":71.80856800000001,"velocity":0.7874015748031497},{"duration":0.10000000000000853,"durationTicks":240,"midi":53,"name":"F3","ticks":174720,"time":71.908568,"velocity":0.7874015748031497},{"duration":0.09999999999999432,"durationTicks":240,"midi":53,"name":"F3","ticks":175680,"time":72.30856800000001,"velocity":0.7874015748031497},{"duration":0.09999999999999432,"durationTicks":240,"midi":53,"name":"F3","ticks":176400,"time":72.608568,"velocity":0.7874015748031497},{"duration":0.10000000000000853,"durationTicks":240,"midi":53,"name":"F3","ticks":176640,"time":72.708568,"velocity":0.7874015748031497},{"duration":0.09999999999999432,"durationTicks":240,"midi":53,"name":"F3","ticks":177600,"time":73.108568,"velocity":0.7874015748031497},{"duration":0.09999999999999432,"durationTicks":240,"midi":53,"name":"F3","ticks":178080,"time":73.30856800000001,"velocity":0.7874015748031497},{"duration":0.10000000000000853,"durationTicks":240,"midi":53,"name":"F3","ticks":178320,"time":73.408568,"velocity":0.7874015748031497},{"duration":0.09999999999999432,"durationTicks":240,"midi":53,"name":"F3","ticks":178560,"time":73.50856800000001,"velocity":0.7874015748031497},{"duration":0.10000000000000853,"durationTicks":240,"midi":53,"name":"F3","ticks":179520,"time":73.908568,"velocity":0.7874015748031497},{"duration":0.10000000000000853,"durationTicks":240,"midi":53,"name":"F3","ticks":180240,"time":74.208568,"velocity":0.7874015748031497},{"duration":0.09999999999999432,"durationTicks":240,"midi":53,"name":"F3","ticks":180480,"time":74.30856800000001,"velocity":0.7874015748031497},{"duration":0.10000000000000853,"durationTicks":240,"midi":53,"name":"F3","ticks":181440,"time":74.708568,"velocity":0.7874015748031497},{"duration":0.10000000000000853,"durationTicks":240,"midi":53,"name":"F3","ticks":181920,"time":74.908568,"velocity":0.7874015748031497},{"duration":0.09999999999999432,"durationTicks":240,"midi":53,"name":"F3","ticks":182160,"time":75.00856800000001,"velocity":0.7874015748031497},{"duration":0.09999999999999432,"durationTicks":240,"midi":53,"name":"F3","ticks":182400,"time":75.108568,"velocity":0.7874015748031497},{"duration":0.09999999999999432,"durationTicks":240,"midi":53,"name":"F3","ticks":183360,"time":75.50856800000001,"velocity":0.7874015748031497},{"duration":0.09999999999999432,"durationTicks":240,"midi":53,"name":"F3","ticks":184080,"time":75.80856800000001,"velocity":0.7874015748031497},{"duration":0.10000000000000853,"durationTicks":240,"midi":53,"name":"F3","ticks":184320,"time":75.908568,"velocity":0.7874015748031497},{"duration":0.09999999999999432,"durationTicks":240,"midi":53,"name":"F3","ticks":185280,"time":76.30856800000001,"velocity":0.7874015748031497},{"duration":0.09999999999999432,"durationTicks":240,"midi":53,"name":"F3","ticks":185760,"time":76.50856800000001,"velocity":0.7874015748031497},{"duration":0.09999999999999432,"durationTicks":240,"midi":53,"name":"F3","ticks":186000,"time":76.608568,"velocity":0.7874015748031497},{"duration":0.10000000000000853,"durationTicks":240,"midi":53,"name":"F3","ticks":186240,"time":76.708568,"velocity":0.7874015748031497},{"duration":0.09999999999999432,"durationTicks":240,"midi":53,"name":"F3","ticks":187200,"time":77.108568,"velocity":0.7874015748031497},{"duration":0.10000000000000853,"durationTicks":240,"midi":53,"name":"F3","ticks":187920,"time":77.408568,"velocity":0.7874015748031497},{"duration":0.09999999999999432,"durationTicks":240,"midi":53,"name":"F3","ticks":188160,"time":77.50856800000001,"velocity":0.7874015748031497},{"duration":0.10000000000000853,"durationTicks":240,"midi":53,"name":"F3","ticks":189120,"time":77.908568,"velocity":0.7874015748031497},{"duration":0.09999999999999432,"durationTicks":240,"midi":53,"name":"F3","ticks":189600,"time":78.108568,"velocity":0.7874015748031497},{"duration":0.10000000000000853,"durationTicks":240,"midi":53,"name":"F3","ticks":189840,"time":78.208568,"velocity":0.7874015748031497},{"duration":0.09999999999999432,"durationTicks":240,"midi":53,"name":"F3","ticks":190080,"time":78.30856800000001,"velocity":0.7874015748031497},{"duration":0.10000000000000853,"durationTicks":240,"midi":53,"name":"F3","ticks":191040,"time":78.708568,"velocity":0.7874015748031497},{"duration":0.09999999999999432,"durationTicks":240,"midi":53,"name":"F3","ticks":191760,"time":79.00856800000001,"velocity":0.7874015748031497},{"duration":0.09999999999999432,"durationTicks":240,"midi":53,"name":"F3","ticks":192000,"time":79.108568,"velocity":0.7874015748031497},{"duration":0.09999999999999432,"durationTicks":240,"midi":53,"name":"F3","ticks":192960,"time":79.50856800000001,"velocity":0.7874015748031497},{"duration":0.10000000000000853,"durationTicks":240,"midi":53,"name":"F3","ticks":193440,"time":79.708568,"velocity":0.7874015748031497},{"duration":0.09999999999999432,"durationTicks":240,"midi":53,"name":"F3","ticks":193680,"time":79.80856800000001,"velocity":0.7874015748031497},{"duration":0.10000000000000853,"durationTicks":240,"midi":53,"name":"F3","ticks":193920,"time":79.908568,"velocity":0.7874015748031497},{"duration":0.09999999999999432,"durationTicks":240,"midi":53,"name":"F3","ticks":194880,"time":80.30856800000001,"velocity":0.7874015748031497},{"duration":0.10000000000000853,"durationTicks":240,"midi":53,"name":"F3","ticks":195600,"time":80.608568,"velocity":0.7874015748031497},{"duration":0.09999999999999432,"durationTicks":240,"midi":53,"name":"F3","ticks":195840,"time":80.70856800000001,"velocity":0.7874015748031497},{"duration":0.10000000000000853,"durationTicks":240,"midi":53,"name":"F3","ticks":196800,"time":81.108568,"velocity":0.7874015748031497},{"duration":0.09999999999999432,"durationTicks":240,"midi":53,"name":"F3","ticks":197280,"time":81.30856800000001,"velocity":0.7874015748031497},{"duration":0.10000000000000853,"durationTicks":240,"midi":53,"name":"F3","ticks":197520,"time":81.408568,"velocity":0.7874015748031497},{"duration":0.09999999999999432,"durationTicks":240,"midi":53,"name":"F3","ticks":197760,"time":81.50856800000001,"velocity":0.7874015748031497},{"duration":0.10000000000000853,"durationTicks":240,"midi":53,"name":"F3","ticks":198720,"time":81.908568,"velocity":0.7874015748031497},{"duration":0.09999999999999432,"durationTicks":240,"midi":53,"name":"F3","ticks":199440,"time":82.20856800000001,"velocity":0.7874015748031497},{"duration":0.09999999999999432,"durationTicks":240,"midi":53,"name":"F3","ticks":199680,"time":82.30856800000001,"velocity":0.7874015748031497},{"duration":0.09999999999999432,"durationTicks":240,"midi":53,"name":"F3","ticks":200640,"time":82.70856800000001,"velocity":0.7874015748031497},{"duration":0.10000000000000853,"durationTicks":240,"midi":53,"name":"F3","ticks":201120,"time":82.908568,"velocity":0.7874015748031497},{"duration":0.09999999999999432,"durationTicks":240,"midi":53,"name":"F3","ticks":201360,"time":83.00856800000001,"velocity":0.7874015748031497},{"duration":0.10000000000000853,"durationTicks":240,"midi":53,"name":"F3","ticks":201600,"time":83.108568,"velocity":0.7874015748031497},{"duration":0.09999999999999432,"durationTicks":240,"midi":53,"name":"F3","ticks":202560,"time":83.50856800000001,"velocity":0.7874015748031497},{"duration":0.09999999999999432,"durationTicks":240,"midi":53,"name":"F3","ticks":203280,"time":83.80856800000001,"velocity":0.7874015748031497},{"duration":0.10000000000000853,"durationTicks":240,"midi":53,"name":"F3","ticks":203520,"time":83.908568,"velocity":0.7874015748031497},{"duration":0.09999999999999432,"durationTicks":240,"midi":53,"name":"F3","ticks":204480,"time":84.30856800000001,"velocity":0.7874015748031497},{"duration":0.09999999999999432,"durationTicks":240,"midi":53,"name":"F3","ticks":204960,"time":84.50856800000001,"velocity":0.7874015748031497},{"duration":0.10000000000000853,"durationTicks":240,"midi":53,"name":"F3","ticks":205200,"time":84.608568,"velocity":0.7874015748031497},{"duration":0.09999999999999432,"durationTicks":240,"midi":53,"name":"F3","ticks":205440,"time":84.70856800000001,"velocity":0.7874015748031497},{"duration":0.10000000000000853,"durationTicks":240,"midi":53,"name":"F3","ticks":206400,"time":85.108568,"velocity":0.7874015748031497},{"duration":0.10000000000000853,"durationTicks":240,"midi":53,"name":"F3","ticks":207120,"time":85.408568,"velocity":0.7874015748031497},{"duration":0.09999999999999432,"durationTicks":240,"midi":53,"name":"F3","ticks":207360,"time":85.50856800000001,"velocity":0.7874015748031497},{"duration":0.10000000000000853,"durationTicks":240,"midi":53,"name":"F3","ticks":208320,"time":85.908568,"velocity":0.7874015748031497},{"duration":0.10000000000000853,"durationTicks":240,"midi":53,"name":"F3","ticks":208800,"time":86.108568,"velocity":0.7874015748031497},{"duration":0.09999999999999432,"durationTicks":240,"midi":53,"name":"F3","ticks":209040,"time":86.20856800000001,"velocity":0.7874015748031497},{"duration":0.09999999999999432,"durationTicks":240,"midi":53,"name":"F3","ticks":209280,"time":86.30856800000001,"velocity":0.7874015748031497},{"duration":0.09999999999999432,"durationTicks":240,"midi":53,"name":"F3","ticks":210240,"time":86.70856800000001,"velocity":1},{"duration":0.09999999999999432,"durationTicks":240,"midi":53,"name":"F3","ticks":210480,"time":86.80856800000001,"velocity":1},{"duration":0.10000000000000853,"durationTicks":240,"midi":53,"name":"F3","ticks":210720,"time":86.908568,"velocity":1},{"duration":0.09999999999999432,"durationTicks":240,"midi":53,"name":"F3","ticks":210960,"time":87.00856800000001,"velocity":0.7874015748031497},{"duration":0.10000000000000853,"durationTicks":240,"midi":53,"name":"F3","ticks":211200,"time":87.108568,"velocity":0.7874015748031497},{"duration":0.09999999999999432,"durationTicks":240,"midi":53,"name":"F3","ticks":212160,"time":87.50856800000001,"velocity":0.7874015748031497},{"duration":0.09999999999999432,"durationTicks":240,"midi":53,"name":"F3","ticks":212640,"time":87.70856800000001,"velocity":0.7874015748031497},{"duration":0.09999999999999432,"durationTicks":240,"midi":53,"name":"F3","ticks":212880,"time":87.80856800000001,"velocity":0.7874015748031497},{"duration":0.10000000000000853,"durationTicks":240,"midi":53,"name":"F3","ticks":213120,"time":87.908568,"velocity":0.7874015748031497},{"duration":0.09999999999999432,"durationTicks":240,"midi":53,"name":"F3","ticks":214080,"time":88.30856800000001,"velocity":0.7874015748031497},{"duration":0.10000000000000853,"durationTicks":240,"midi":53,"name":"F3","ticks":214800,"time":88.608568,"velocity":0.7874015748031497},{"duration":0.09999999999999432,"durationTicks":240,"midi":53,"name":"F3","ticks":215040,"time":88.70856800000001,"velocity":0.7874015748031497},{"duration":0.10000000000000853,"durationTicks":240,"midi":53,"name":"F3","ticks":216000,"time":89.108568,"velocity":0.7874015748031497},{"duration":0.09999999999999432,"durationTicks":240,"midi":53,"name":"F3","ticks":216480,"time":89.30856800000001,"velocity":0.7874015748031497},{"duration":0.10000000000000853,"durationTicks":240,"midi":53,"name":"F3","ticks":216720,"time":89.408568,"velocity":0.7874015748031497},{"duration":0.09999999999999432,"durationTicks":240,"midi":53,"name":"F3","ticks":216960,"time":89.50856800000001,"velocity":0.7874015748031497},{"duration":0.10000000000000853,"durationTicks":240,"midi":53,"name":"F3","ticks":217920,"time":89.908568,"velocity":0.7874015748031497},{"duration":0.09999999999999432,"durationTicks":240,"midi":53,"name":"F3","ticks":218640,"time":90.20856800000001,"velocity":0.7874015748031497},{"duration":0.09999999999999432,"durationTicks":240,"midi":53,"name":"F3","ticks":218880,"time":90.30856800000001,"velocity":0.7874015748031497},{"duration":0.09999999999999432,"durationTicks":240,"midi":53,"name":"F3","ticks":219840,"time":90.70856800000001,"velocity":0.7874015748031497},{"duration":0.10000000000000853,"durationTicks":240,"midi":53,"name":"F3","ticks":220320,"time":90.908568,"velocity":0.7874015748031497},{"duration":0.09999999999999432,"durationTicks":240,"midi":53,"name":"F3","ticks":220560,"time":91.00856800000001,"velocity":0.7874015748031497},{"duration":0.10000000000000853,"durationTicks":240,"midi":53,"name":"F3","ticks":220800,"time":91.108568,"velocity":0.7874015748031497},{"duration":0.09999999999999432,"durationTicks":240,"midi":53,"name":"F3","ticks":221760,"time":91.50856800000001,"velocity":0.7874015748031497},{"duration":0.09999999999999432,"durationTicks":240,"midi":53,"name":"F3","ticks":222480,"time":91.80856800000001,"velocity":0.7874015748031497},{"duration":0.10000000000000853,"durationTicks":240,"midi":53,"name":"F3","ticks":222720,"time":91.908568,"velocity":0.7874015748031497},{"duration":0.09999999999999432,"durationTicks":240,"midi":53,"name":"F3","ticks":223680,"time":92.30856800000001,"velocity":0.7874015748031497},{"duration":0.09999999999999432,"durationTicks":240,"midi":53,"name":"F3","ticks":224160,"time":92.50856800000001,"velocity":0.7874015748031497},{"duration":0.10000000000000853,"durationTicks":240,"midi":53,"name":"F3","ticks":224400,"time":92.608568,"velocity":0.7874015748031497},{"duration":0.09999999999999432,"durationTicks":240,"midi":53,"name":"F3","ticks":224640,"time":92.70856800000001,"velocity":0.7874015748031497},{"duration":0.10000000000000853,"durationTicks":240,"midi":53,"name":"F3","ticks":225600,"time":93.108568,"velocity":0.7874015748031497},{"duration":0.10000000000000853,"durationTicks":240,"midi":53,"name":"F3","ticks":226320,"time":93.408568,"velocity":0.7874015748031497},{"duration":0.09999999999999432,"durationTicks":240,"midi":53,"name":"F3","ticks":226560,"time":93.50856800000001,"velocity":0.7874015748031497},{"duration":0.10000000000000853,"durationTicks":240,"midi":53,"name":"F3","ticks":227520,"time":93.908568,"velocity":0.7874015748031497},{"duration":0.10000000000000853,"durationTicks":240,"midi":53,"name":"F3","ticks":228000,"time":94.108568,"velocity":0.7874015748031497},{"duration":0.09999999999999432,"durationTicks":240,"midi":53,"name":"F3","ticks":228240,"time":94.20856800000001,"velocity":0.7874015748031497},{"duration":0.09999999999999432,"durationTicks":240,"midi":53,"name":"F3","ticks":228480,"time":94.30856800000001,"velocity":0.7874015748031497},{"duration":0.09999999999999432,"durationTicks":240,"midi":53,"name":"F3","ticks":229440,"time":94.70856800000001,"velocity":0.7874015748031497},{"duration":0.09999999999999432,"durationTicks":240,"midi":53,"name":"F3","ticks":230160,"time":95.00856800000001,"velocity":0.7874015748031497},{"duration":0.10000000000000853,"durationTicks":240,"midi":53,"name":"F3","ticks":230400,"time":95.108568,"velocity":0.7874015748031497},{"duration":0.09999999999999432,"durationTicks":240,"midi":53,"name":"F3","ticks":231360,"time":95.50856800000001,"velocity":0.7874015748031497},{"duration":0.09999999999999432,"durationTicks":240,"midi":53,"name":"F3","ticks":231840,"time":95.70856800000001,"velocity":0.7874015748031497},{"duration":0.09999999999999432,"durationTicks":240,"midi":53,"name":"F3","ticks":232080,"time":95.80856800000001,"velocity":0.7874015748031497},{"duration":0.10000000000000853,"durationTicks":240,"midi":53,"name":"F3","ticks":232320,"time":95.908568,"velocity":0.7874015748031497},{"duration":0.09999999999999432,"durationTicks":240,"midi":53,"name":"F3","ticks":233280,"time":96.30856800000001,"velocity":0.7874015748031497},{"duration":0.10000000000000853,"durationTicks":240,"midi":53,"name":"F3","ticks":234000,"time":96.608568,"velocity":0.7874015748031497},{"duration":0.09999999999999432,"durationTicks":240,"midi":53,"name":"F3","ticks":234240,"time":96.70856800000001,"velocity":0.7874015748031497},{"duration":0.10000000000000853,"durationTicks":240,"midi":53,"name":"F3","ticks":235200,"time":97.108568,"velocity":0.7874015748031497},{"duration":0.09999999999999432,"durationTicks":240,"midi":53,"name":"F3","ticks":235680,"time":97.30856800000001,"velocity":0.7874015748031497},{"duration":0.10000000000000853,"durationTicks":240,"midi":53,"name":"F3","ticks":235920,"time":97.408568,"velocity":0.7874015748031497},{"duration":0.09999999999999432,"durationTicks":240,"midi":53,"name":"F3","ticks":236160,"time":97.50856800000001,"velocity":0.7874015748031497},{"duration":0.10000000000000853,"durationTicks":240,"midi":53,"name":"F3","ticks":237120,"time":97.908568,"velocity":0.7874015748031497},{"duration":0.09999999999999432,"durationTicks":240,"midi":53,"name":"F3","ticks":237840,"time":98.20856800000001,"velocity":0.7874015748031497},{"duration":0.09999999999999432,"durationTicks":240,"midi":53,"name":"F3","ticks":238080,"time":98.30856800000001,"velocity":0.7874015748031497},{"duration":0.09999999999999432,"durationTicks":240,"midi":53,"name":"F3","ticks":239040,"time":98.70856800000001,"velocity":0.7874015748031497},{"duration":0.10000000000000853,"durationTicks":240,"midi":53,"name":"F3","ticks":239520,"time":98.908568,"velocity":0.7874015748031497},{"duration":0.09999999999999432,"durationTicks":240,"midi":53,"name":"F3","ticks":239760,"time":99.00856800000001,"velocity":0.7874015748031497},{"duration":0.10000000000000853,"durationTicks":240,"midi":53,"name":"F3","ticks":240000,"time":99.108568,"velocity":0.7874015748031497},{"duration":0.09999999999999432,"durationTicks":240,"midi":53,"name":"F3","ticks":240960,"time":99.50856800000001,"velocity":0.7874015748031497},{"duration":0.09999999999999432,"durationTicks":240,"midi":53,"name":"F3","ticks":241680,"time":99.80856800000001,"velocity":0.7874015748031497},{"duration":0.10000000000000853,"durationTicks":240,"midi":53,"name":"F3","ticks":241920,"time":99.908568,"velocity":0.7874015748031497},{"duration":0.09999999999999432,"durationTicks":240,"midi":53,"name":"F3","ticks":242880,"time":100.30856800000001,"velocity":0.7874015748031497},{"duration":0.09999999999999432,"durationTicks":240,"midi":53,"name":"F3","ticks":243360,"time":100.50856800000001,"velocity":0.7874015748031497},{"duration":0.10000000000000853,"durationTicks":240,"midi":53,"name":"F3","ticks":243600,"time":100.608568,"velocity":0.7874015748031497},{"duration":0.09999999999999432,"durationTicks":240,"midi":53,"name":"F3","ticks":243840,"time":100.70856800000001,"velocity":0.7874015748031497},{"duration":0.10000000000000853,"durationTicks":240,"midi":53,"name":"F3","ticks":244800,"time":101.108568,"velocity":0.7874015748031497},{"duration":0.10000000000000853,"durationTicks":240,"midi":53,"name":"F3","ticks":245520,"time":101.408568,"velocity":0.7874015748031497},{"duration":0.09999999999999432,"durationTicks":240,"midi":53,"name":"F3","ticks":245760,"time":101.50856800000001,"velocity":0.7874015748031497},{"duration":0.10000000000000853,"durationTicks":240,"midi":53,"name":"F3","ticks":246720,"time":101.908568,"velocity":0.7874015748031497},{"duration":0.10000000000000853,"durationTicks":240,"midi":53,"name":"F3","ticks":247200,"time":102.108568,"velocity":0.7874015748031497},{"duration":0.09999999999999432,"durationTicks":240,"midi":53,"name":"F3","ticks":247440,"time":102.20856800000001,"velocity":0.7874015748031497},{"duration":0.09999999999999432,"durationTicks":240,"midi":53,"name":"F3","ticks":247680,"time":102.30856800000001,"velocity":0.7874015748031497},{"duration":0.09999999999999432,"durationTicks":240,"midi":53,"name":"F3","ticks":248640,"time":102.70856800000001,"velocity":0.7874015748031497},{"duration":0.09999999999999432,"durationTicks":240,"midi":53,"name":"F3","ticks":249360,"time":103.00856800000001,"velocity":0.7874015748031497},{"duration":0.10000000000000853,"durationTicks":240,"midi":53,"name":"F3","ticks":249600,"time":103.108568,"velocity":0.7874015748031497},{"duration":0.09999999999999432,"durationTicks":240,"midi":53,"name":"F3","ticks":250560,"time":103.50856800000001,"velocity":0.7874015748031497},{"duration":0.09999999999999432,"durationTicks":240,"midi":53,"name":"F3","ticks":251040,"time":103.70856800000001,"velocity":0.7874015748031497},{"duration":0.09999999999999432,"durationTicks":240,"midi":53,"name":"F3","ticks":251280,"time":103.80856800000001,"velocity":0.7874015748031497},{"duration":0.10000000000000853,"durationTicks":240,"midi":53,"name":"F3","ticks":251520,"time":103.908568,"velocity":0.7874015748031497},{"duration":0.09999999999999432,"durationTicks":240,"midi":53,"name":"F3","ticks":252480,"time":104.30856800000001,"velocity":0.7874015748031497},{"duration":0.10000000000000853,"durationTicks":240,"midi":53,"name":"F3","ticks":253200,"time":104.608568,"velocity":0.7874015748031497},{"duration":0.09999999999999432,"durationTicks":240,"midi":53,"name":"F3","ticks":253440,"time":104.70856800000001,"velocity":0.7874015748031497},{"duration":0.10000000000000853,"durationTicks":240,"midi":53,"name":"F3","ticks":254400,"time":105.108568,"velocity":0.7874015748031497},{"duration":0.09999999999999432,"durationTicks":240,"midi":53,"name":"F3","ticks":254880,"time":105.30856800000001,"velocity":0.7874015748031497},{"duration":0.10000000000000853,"durationTicks":240,"midi":53,"name":"F3","ticks":255120,"time":105.408568,"velocity":0.7874015748031497},{"duration":0.09999999999999432,"durationTicks":240,"midi":53,"name":"F3","ticks":255360,"time":105.50856800000001,"velocity":0.7874015748031497},{"duration":0.10000000000000853,"durationTicks":240,"midi":53,"name":"F3","ticks":256320,"time":105.908568,"velocity":0.7874015748031497},{"duration":0.09999999999999432,"durationTicks":240,"midi":53,"name":"F3","ticks":257040,"time":106.20856800000001,"velocity":0.7874015748031497},{"duration":0.09999999999999432,"durationTicks":240,"midi":53,"name":"F3","ticks":257280,"time":106.30856800000001,"velocity":0.7874015748031497},{"duration":0.09999999999999432,"durationTicks":240,"midi":53,"name":"F3","ticks":258240,"time":106.70856800000001,"velocity":0.7874015748031497},{"duration":0.10000000000000853,"durationTicks":240,"midi":53,"name":"F3","ticks":258720,"time":106.908568,"velocity":0.7874015748031497},{"duration":0.09999999999999432,"durationTicks":240,"midi":53,"name":"F3","ticks":258960,"time":107.00856800000001,"velocity":0.7874015748031497},{"duration":0.10000000000000853,"durationTicks":240,"midi":53,"name":"F3","ticks":259200,"time":107.108568,"velocity":0.7874015748031497},{"duration":0.09999999999999432,"durationTicks":240,"midi":53,"name":"F3","ticks":260160,"time":107.50856800000001,"velocity":0.7874015748031497},{"duration":0.09999999999999432,"durationTicks":240,"midi":53,"name":"F3","ticks":260880,"time":107.80856800000001,"velocity":0.7874015748031497},{"duration":0.10000000000000853,"durationTicks":240,"midi":53,"name":"F3","ticks":261120,"time":107.908568,"velocity":0.7874015748031497},{"duration":0.09999999999999432,"durationTicks":240,"midi":53,"name":"F3","ticks":262080,"time":108.30856800000001,"velocity":0.7874015748031497},{"duration":0.09999999999999432,"durationTicks":240,"midi":53,"name":"F3","ticks":262560,"time":108.50856800000001,"velocity":0.7874015748031497},{"duration":0.10000000000000853,"durationTicks":240,"midi":53,"name":"F3","ticks":262800,"time":108.608568,"velocity":0.7874015748031497},{"duration":0.09999999999999432,"durationTicks":240,"midi":53,"name":"F3","ticks":263040,"time":108.70856800000001,"velocity":0.7874015748031497},{"duration":0.10000000000000853,"durationTicks":240,"midi":53,"name":"F3","ticks":264000,"time":109.108568,"velocity":0.7874015748031497},{"duration":0.10000000000000853,"durationTicks":240,"midi":53,"name":"F3","ticks":264720,"time":109.408568,"velocity":0.7874015748031497},{"duration":0.09999999999999432,"durationTicks":240,"midi":53,"name":"F3","ticks":264960,"time":109.50856800000001,"velocity":0.7874015748031497},{"duration":0.10000000000000853,"durationTicks":240,"midi":53,"name":"F3","ticks":265920,"time":109.908568,"velocity":0.7874015748031497},{"duration":0.10000000000000853,"durationTicks":240,"midi":53,"name":"F3","ticks":266400,"time":110.108568,"velocity":0.7874015748031497},{"duration":0.09999999999999432,"durationTicks":240,"midi":53,"name":"F3","ticks":266640,"time":110.20856800000001,"velocity":0.7874015748031497},{"duration":0.09999999999999432,"durationTicks":240,"midi":53,"name":"F3","ticks":266880,"time":110.30856800000001,"velocity":0.7874015748031497},{"duration":0.09999999999999432,"durationTicks":240,"midi":53,"name":"F3","ticks":267840,"time":110.70856800000001,"velocity":0.7874015748031497},{"duration":0.09999999999999432,"durationTicks":240,"midi":53,"name":"F3","ticks":268560,"time":111.00856800000001,"velocity":0.7874015748031497},{"duration":0.10000000000000853,"durationTicks":240,"midi":53,"name":"F3","ticks":268800,"time":111.108568,"velocity":0.7874015748031497},{"duration":0.09999999999999432,"durationTicks":240,"midi":53,"name":"F3","ticks":269760,"time":111.50856800000001,"velocity":0.7874015748031497},{"duration":0.09999999999999432,"durationTicks":240,"midi":53,"name":"F3","ticks":270240,"time":111.70856800000001,"velocity":0.7874015748031497},{"duration":0.09999999999999432,"durationTicks":240,"midi":53,"name":"F3","ticks":270480,"time":111.80856800000001,"velocity":0.7874015748031497},{"duration":0.10000000000000853,"durationTicks":240,"midi":53,"name":"F3","ticks":270720,"time":111.908568,"velocity":0.7874015748031497},{"duration":0.09999999999999432,"durationTicks":240,"midi":53,"name":"F3","ticks":271680,"time":112.30856800000001,"velocity":0.7874015748031497},{"duration":0.10000000000000853,"durationTicks":240,"midi":53,"name":"F3","ticks":272400,"time":112.608568,"velocity":0.7874015748031497},{"duration":0.09999999999999432,"durationTicks":240,"midi":53,"name":"F3","ticks":272640,"time":112.70856800000001,"velocity":0.7874015748031497},{"duration":0.10000000000000853,"durationTicks":240,"midi":53,"name":"F3","ticks":273600,"time":113.108568,"velocity":0.7874015748031497},{"duration":0.09999999999999432,"durationTicks":240,"midi":53,"name":"F3","ticks":274080,"time":113.30856800000001,"velocity":0.7874015748031497},{"duration":0.10000000000000853,"durationTicks":240,"midi":53,"name":"F3","ticks":274320,"time":113.408568,"velocity":0.7874015748031497},{"duration":0.09999999999999432,"durationTicks":240,"midi":53,"name":"F3","ticks":274560,"time":113.50856800000001,"velocity":0.7874015748031497},{"duration":0.10000000000000853,"durationTicks":240,"midi":53,"name":"F3","ticks":275520,"time":113.908568,"velocity":0.7874015748031497},{"duration":0.09999999999999432,"durationTicks":240,"midi":53,"name":"F3","ticks":276240,"time":114.20856800000001,"velocity":0.7874015748031497},{"duration":0.09999999999999432,"durationTicks":240,"midi":53,"name":"F3","ticks":276480,"time":114.30856800000001,"velocity":0.7874015748031497},{"duration":0.09999999999999432,"durationTicks":240,"midi":53,"name":"F3","ticks":277440,"time":114.70856800000001,"velocity":0.7874015748031497},{"duration":0.10000000000000853,"durationTicks":240,"midi":53,"name":"F3","ticks":277920,"time":114.908568,"velocity":0.7874015748031497},{"duration":0.09999999999999432,"durationTicks":240,"midi":53,"name":"F3","ticks":278160,"time":115.00856800000001,"velocity":0.7874015748031497},{"duration":0.10000000000000853,"durationTicks":240,"midi":53,"name":"F3","ticks":278400,"time":115.108568,"velocity":0.7874015748031497},{"duration":0.09999999999999432,"durationTicks":240,"midi":53,"name":"F3","ticks":279360,"time":115.50856800000001,"velocity":0.7874015748031497},{"duration":0.09999999999999432,"durationTicks":240,"midi":53,"name":"F3","ticks":280080,"time":115.80856800000001,"velocity":0.7874015748031497},{"duration":0.10000000000000853,"durationTicks":240,"midi":53,"name":"F3","ticks":280320,"time":115.908568,"velocity":0.7874015748031497},{"duration":0.09999999999999432,"durationTicks":240,"midi":53,"name":"F3","ticks":281280,"time":116.30856800000001,"velocity":0.7874015748031497},{"duration":0.09999999999999432,"durationTicks":240,"midi":53,"name":"F3","ticks":281760,"time":116.50856800000001,"velocity":0.7874015748031497},{"duration":0.10000000000000853,"durationTicks":240,"midi":53,"name":"F3","ticks":282000,"time":116.608568,"velocity":0.7874015748031497},{"duration":0.09999999999999432,"durationTicks":240,"midi":53,"name":"F3","ticks":282240,"time":116.70856800000001,"velocity":0.7874015748031497},{"duration":0.10000000000000853,"durationTicks":240,"midi":53,"name":"F3","ticks":283200,"time":117.108568,"velocity":0.7874015748031497},{"duration":0.10000000000000853,"durationTicks":240,"midi":53,"name":"F3","ticks":283920,"time":117.408568,"velocity":0.7874015748031497},{"duration":0.09999999999999432,"durationTicks":240,"midi":53,"name":"F3","ticks":284160,"time":117.50856800000001,"velocity":0.7874015748031497},{"duration":0.10000000000000853,"durationTicks":240,"midi":53,"name":"F3","ticks":285120,"time":117.908568,"velocity":0.7874015748031497},{"duration":0.10000000000000853,"durationTicks":240,"midi":53,"name":"F3","ticks":285600,"time":118.108568,"velocity":0.7874015748031497},{"duration":0.09999999999999432,"durationTicks":240,"midi":53,"name":"F3","ticks":285840,"time":118.20856800000001,"velocity":0.7874015748031497},{"duration":0.09999999999999432,"durationTicks":240,"midi":53,"name":"F3","ticks":286080,"time":118.30856800000001,"velocity":0.7874015748031497},{"duration":0.09999999999999432,"durationTicks":240,"midi":53,"name":"F3","ticks":287040,"time":118.70856800000001,"velocity":0.7874015748031497},{"duration":0.09999999999999432,"durationTicks":240,"midi":53,"name":"F3","ticks":287760,"time":119.00856800000001,"velocity":0.7874015748031497},{"duration":0.10000000000000853,"durationTicks":240,"midi":48,"name":"C3","ticks":288000,"time":119.108568,"velocity":0.7874015748031497},{"duration":0.10000000000000853,"durationTicks":240,"midi":48,"name":"C3","ticks":289920,"time":119.908568,"velocity":0.7874015748031497},{"duration":0.09999999999999432,"durationTicks":240,"midi":48,"name":"C3","ticks":291840,"time":120.70856800000001,"velocity":0.7874015748031497},{"duration":0.10000000000000853,"durationTicks":240,"midi":48,"name":"C3","ticks":292800,"time":121.108568,"velocity":0.7874015748031497},{"duration":0.09999999999999432,"durationTicks":240,"midi":48,"name":"C3","ticks":293760,"time":121.50856800000001,"velocity":0.7874015748031497},{"duration":0.10000000000000853,"durationTicks":240,"midi":48,"name":"C3","ticks":294720,"time":121.908568,"velocity":0.7874015748031497},{"duration":0.09999999999999432,"durationTicks":240,"midi":48,"name":"C3","ticks":295680,"time":122.30856800000001,"velocity":0.7874015748031497},{"duration":0.10000000000000853,"durationTicks":240,"midi":48,"name":"C3","ticks":297600,"time":123.108568,"velocity":0.7874015748031497},{"duration":0.10000000000000853,"durationTicks":240,"midi":48,"name":"C3","ticks":299520,"time":123.908568,"velocity":0.7874015748031497},{"duration":0.09999999999999432,"durationTicks":240,"midi":48,"name":"C3","ticks":300480,"time":124.30856800000001,"velocity":0.7874015748031497},{"duration":0.10000000000000853,"durationTicks":240,"midi":48,"name":"C3","ticks":301200,"time":124.608568,"velocity":0.7874015748031497},{"duration":0.09999999999999432,"durationTicks":240,"midi":48,"name":"C3","ticks":301440,"time":124.70856800000001,"velocity":0.7874015748031497},{"duration":0.10000000000000853,"durationTicks":240,"midi":48,"name":"C3","ticks":301920,"time":124.908568,"velocity":0.7874015748031497},{"duration":0.10000000000000853,"durationTicks":240,"midi":48,"name":"C3","ticks":302400,"time":125.108568,"velocity":0.7874015748031497},{"duration":0.09999999999999432,"durationTicks":240,"midi":48,"name":"C3","ticks":302880,"time":125.30856800000001,"velocity":0.7874015748031497},{"duration":0.09999999999999432,"durationTicks":240,"midi":48,"name":"C3","ticks":303360,"time":125.50856800000001,"velocity":0.7874015748031497},{"duration":0.10000000000000853,"durationTicks":240,"midi":48,"name":"C3","ticks":304320,"time":125.908568,"velocity":0.7874015748031497},{"duration":0.09999999999999432,"durationTicks":240,"midi":48,"name":"C3","ticks":305280,"time":126.30856800000001,"velocity":0.7874015748031497},{"duration":0.09999999999999432,"durationTicks":240,"midi":48,"name":"C3","ticks":306240,"time":126.70856800000001,"velocity":0.7874015748031497},{"duration":0.10000000000000853,"durationTicks":240,"midi":48,"name":"C3","ticks":307200,"time":127.108568,"velocity":0.7874015748031497},{"duration":0.09999999999999432,"durationTicks":240,"midi":48,"name":"C3","ticks":308160,"time":127.50856800000001,"velocity":0.7874015748031497},{"duration":0.09999999999999432,"durationTicks":240,"midi":48,"name":"C3","ticks":309120,"time":127.908568,"velocity":0.7874015748031497},{"duration":0.09999999999999432,"durationTicks":240,"midi":48,"name":"C3","ticks":310080,"time":128.308568,"velocity":0.7874015748031497},{"duration":0.09999999999999432,"durationTicks":240,"midi":48,"name":"C3","ticks":311040,"time":128.708568,"velocity":0.7874015748031497},{"duration":0.10000000000002274,"durationTicks":240,"midi":48,"name":"C3","ticks":312000,"time":129.108568,"velocity":0.7874015748031497},{"duration":0.09999999999999432,"durationTicks":240,"midi":48,"name":"C3","ticks":312960,"time":129.508568,"velocity":0.7874015748031497},{"duration":0.09999999999999432,"durationTicks":240,"midi":48,"name":"C3","ticks":313920,"time":129.908568,"velocity":0.7874015748031497},{"duration":0.09999999999999432,"durationTicks":240,"midi":48,"name":"C3","ticks":314880,"time":130.308568,"velocity":0.7874015748031497},{"duration":0.09999999999999432,"durationTicks":240,"midi":48,"name":"C3","ticks":315840,"time":130.708568,"velocity":0.7874015748031497},{"duration":0.10000000000002274,"durationTicks":240,"midi":48,"name":"C3","ticks":316800,"time":131.108568,"velocity":0.7874015748031497},{"duration":0.10000000000002274,"durationTicks":240,"midi":72,"name":"C5","ticks":316800,"time":131.108568,"velocity":0.7874015748031497},{"duration":0.10000000000002274,"durationTicks":240,"midi":71,"name":"B4","ticks":316800,"time":131.108568,"velocity":0.6377952755905512},{"duration":0.09999999999999432,"durationTicks":240,"midi":48,"name":"C3","ticks":317040,"time":131.208568,"velocity":0.7874015748031497},{"duration":0.09999999999999432,"durationTicks":240,"midi":72,"name":"C5","ticks":317040,"time":131.208568,"velocity":0.7874015748031497},{"duration":0.09999999999999432,"durationTicks":240,"midi":71,"name":"B4","ticks":317040,"time":131.208568,"velocity":0.6299212598425197},{"duration":0.09999999999999432,"durationTicks":240,"midi":48,"name":"C3","ticks":317280,"time":131.308568,"velocity":0.7874015748031497},{"duration":0.09999999999999432,"durationTicks":240,"midi":64,"name":"E4","ticks":317520,"time":131.408568,"velocity":0.7874015748031497},{"duration":0.09999999999999432,"durationTicks":240,"midi":63,"name":"D#4","ticks":317520,"time":131.408568,"velocity":0.6299212598425197},{"duration":0.09999999999999432,"durationTicks":240,"midi":48,"name":"C3","ticks":317760,"time":131.508568,"velocity":0.7874015748031497},{"duration":0.10000000000002274,"durationTicks":240,"midi":56,"name":"G#3","ticks":318000,"time":131.608568,"velocity":0.7874015748031497},{"duration":0.10000000000002274,"durationTicks":240,"midi":55,"name":"G3","ticks":318000,"time":131.608568,"velocity":0.6377952755905512},{"duration":0.09999999999999432,"durationTicks":240,"midi":48,"name":"C3","ticks":318240,"time":131.708568,"velocity":0.7874015748031497},{"duration":0.09999999999999432,"durationTicks":240,"midi":56,"name":"G#3","ticks":318240,"time":131.708568,"velocity":0.7874015748031497},{"duration":0.09999999999999432,"durationTicks":240,"midi":55,"name":"G3","ticks":318240,"time":131.708568,"velocity":0.6377952755905512},{"duration":0.09999999999999432,"durationTicks":240,"midi":53,"name":"F3","ticks":318720,"time":131.908568,"velocity":0.7874015748031497},{"duration":0.09999999999999432,"durationTicks":240,"midi":53,"name":"F3","ticks":319680,"time":132.308568,"velocity":0.7874015748031497},{"duration":0.10000000000002274,"durationTicks":240,"midi":53,"name":"F3","ticks":320160,"time":132.508568,"velocity":0.7874015748031497},{"duration":0.09999999999999432,"durationTicks":240,"midi":53,"name":"F3","ticks":320400,"time":132.60856800000002,"velocity":0.7874015748031497},{"duration":0.09999999999999432,"durationTicks":240,"midi":53,"name":"F3","ticks":320640,"time":132.708568,"velocity":0.7874015748031497},{"duration":0.09999999999999432,"durationTicks":240,"midi":53,"name":"F3","ticks":321600,"time":133.10856800000002,"velocity":0.7874015748031497},{"duration":0.09999999999999432,"durationTicks":240,"midi":53,"name":"F3","ticks":322320,"time":133.408568,"velocity":0.7874015748031497},{"duration":0.10000000000002274,"durationTicks":240,"midi":53,"name":"F3","ticks":322560,"time":133.508568,"velocity":0.7874015748031497},{"duration":0.09999999999999432,"durationTicks":240,"midi":53,"name":"F3","ticks":323520,"time":133.908568,"velocity":0.7874015748031497},{"duration":0.09999999999999432,"durationTicks":240,"midi":53,"name":"F3","ticks":324000,"time":134.10856800000002,"velocity":0.7874015748031497},{"duration":0.09999999999999432,"durationTicks":240,"midi":53,"name":"F3","ticks":324240,"time":134.208568,"velocity":0.7874015748031497},{"duration":0.09999999999999432,"durationTicks":240,"midi":53,"name":"F3","ticks":324480,"time":134.308568,"velocity":0.7874015748031497},{"duration":0.09999999999999432,"durationTicks":240,"midi":53,"name":"F3","ticks":325440,"time":134.708568,"velocity":0.7874015748031497},{"duration":0.10000000000002274,"durationTicks":240,"midi":53,"name":"F3","ticks":326160,"time":135.008568,"velocity":0.7874015748031497},{"duration":0.09999999999999432,"durationTicks":240,"midi":53,"name":"F3","ticks":326400,"time":135.10856800000002,"velocity":0.7874015748031497},{"duration":0.10000000000002274,"durationTicks":240,"midi":53,"name":"F3","ticks":327360,"time":135.508568,"velocity":0.7874015748031497},{"duration":0.09999999999999432,"durationTicks":240,"midi":53,"name":"F3","ticks":327840,"time":135.708568,"velocity":0.7874015748031497},{"duration":0.09999999999999432,"durationTicks":240,"midi":53,"name":"F3","ticks":328080,"time":135.808568,"velocity":0.7874015748031497},{"duration":0.09999999999999432,"durationTicks":240,"midi":53,"name":"F3","ticks":328320,"time":135.908568,"velocity":0.7874015748031497},{"duration":0.09999999999999432,"durationTicks":240,"midi":53,"name":"F3","ticks":329280,"time":136.308568,"velocity":0.7874015748031497},{"duration":0.09999999999999432,"durationTicks":240,"midi":53,"name":"F3","ticks":330000,"time":136.60856800000002,"velocity":0.7874015748031497},{"duration":0.09999999999999432,"durationTicks":240,"midi":53,"name":"F3","ticks":330240,"time":136.708568,"velocity":0.7874015748031497},{"duration":0.09999999999999432,"durationTicks":240,"midi":53,"name":"F3","ticks":331200,"time":137.10856800000002,"velocity":0.7874015748031497},{"duration":0.09999999999999432,"durationTicks":240,"midi":53,"name":"F3","ticks":331680,"time":137.308568,"velocity":0.7874015748031497},{"duration":0.09999999999999432,"durationTicks":240,"midi":53,"name":"F3","ticks":331920,"time":137.408568,"velocity":0.7874015748031497},{"duration":0.10000000000002274,"durationTicks":240,"midi":53,"name":"F3","ticks":332160,"time":137.508568,"velocity":0.7874015748031497},{"duration":0.09999999999999432,"durationTicks":240,"midi":53,"name":"F3","ticks":333120,"time":137.908568,"velocity":0.7874015748031497},{"duration":0.09999999999999432,"durationTicks":240,"midi":53,"name":"F3","ticks":333840,"time":138.208568,"velocity":0.7874015748031497},{"duration":0.09999999999999432,"durationTicks":240,"midi":53,"name":"F3","ticks":334080,"time":138.308568,"velocity":0.7874015748031497},{"duration":0.09999999999999432,"durationTicks":240,"midi":53,"name":"F3","ticks":335040,"time":138.708568,"velocity":0.7874015748031497},{"duration":0.09999999999999432,"durationTicks":240,"midi":53,"name":"F3","ticks":335520,"time":138.908568,"velocity":0.7874015748031497},{"duration":0.10000000000002274,"durationTicks":240,"midi":53,"name":"F3","ticks":335760,"time":139.008568,"velocity":0.7874015748031497},{"duration":0.09999999999999432,"durationTicks":240,"midi":53,"name":"F3","ticks":336000,"time":139.10856800000002,"velocity":0.7874015748031497},{"duration":0.10000000000002274,"durationTicks":240,"midi":53,"name":"F3","ticks":336960,"time":139.508568,"velocity":0.7874015748031497},{"duration":0.09999999999999432,"durationTicks":240,"midi":53,"name":"F3","ticks":337680,"time":139.808568,"velocity":0.7874015748031497},{"duration":0.09999999999999432,"durationTicks":240,"midi":53,"name":"F3","ticks":337920,"time":139.908568,"velocity":0.7874015748031497},{"duration":0.09999999999999432,"durationTicks":240,"midi":53,"name":"F3","ticks":338880,"time":140.308568,"velocity":0.7874015748031497},{"duration":0.10000000000002274,"durationTicks":240,"midi":53,"name":"F3","ticks":339360,"time":140.508568,"velocity":0.7874015748031497},{"duration":0.09999999999999432,"durationTicks":240,"midi":53,"name":"F3","ticks":339600,"time":140.60856800000002,"velocity":0.7874015748031497},{"duration":0.09999999999999432,"durationTicks":240,"midi":53,"name":"F3","ticks":339840,"time":140.708568,"velocity":0.7874015748031497},{"duration":0.09999999999999432,"durationTicks":240,"midi":53,"name":"F3","ticks":340800,"time":141.10856800000002,"velocity":0.7874015748031497},{"duration":0.09999999999999432,"durationTicks":240,"midi":53,"name":"F3","ticks":341520,"time":141.408568,"velocity":0.7874015748031497},{"duration":0.10000000000002274,"durationTicks":240,"midi":53,"name":"F3","ticks":341760,"time":141.508568,"velocity":0.7874015748031497},{"duration":0.09999999999999432,"durationTicks":240,"midi":53,"name":"F3","ticks":342720,"time":141.908568,"velocity":0.7874015748031497},{"duration":0.09999999999999432,"durationTicks":240,"midi":53,"name":"F3","ticks":343200,"time":142.10856800000002,"velocity":0.7874015748031497},{"duration":0.09999999999999432,"durationTicks":240,"midi":53,"name":"F3","ticks":343440,"time":142.208568,"velocity":0.7874015748031497},{"duration":0.09999999999999432,"durationTicks":240,"midi":53,"name":"F3","ticks":343680,"time":142.308568,"velocity":0.7874015748031497},{"duration":0.09999999999999432,"durationTicks":240,"midi":53,"name":"F3","ticks":344640,"time":142.708568,"velocity":0.7874015748031497},{"duration":0.10000000000002274,"durationTicks":240,"midi":53,"name":"F3","ticks":345360,"time":143.008568,"velocity":0.7874015748031497},{"duration":0.09999999999999432,"durationTicks":240,"midi":53,"name":"F3","ticks":345600,"time":143.10856800000002,"velocity":0.7874015748031497},{"duration":0.10000000000002274,"durationTicks":240,"midi":53,"name":"F3","ticks":346560,"time":143.508568,"velocity":0.7874015748031497},{"duration":0.09999999999999432,"durationTicks":240,"midi":53,"name":"F3","ticks":347040,"time":143.708568,"velocity":0.7874015748031497},{"duration":0.09999999999999432,"durationTicks":240,"midi":53,"name":"F3","ticks":347280,"time":143.808568,"velocity":0.7874015748031497},{"duration":0.09999999999999432,"durationTicks":240,"midi":53,"name":"F3","ticks":347520,"time":143.908568,"velocity":0.7874015748031497},{"duration":0.09999999999999432,"durationTicks":240,"midi":48,"name":"C3","ticks":347520,"time":143.908568,"velocity":0.7874015748031497},{"duration":0.09999999999999432,"durationTicks":240,"midi":60,"name":"C4","ticks":347520,"time":143.908568,"velocity":0.7874015748031497},{"duration":0.09999999999999432,"durationTicks":240,"midi":48,"name":"C3","ticks":348000,"time":144.10856800000002,"velocity":0.7874015748031497},{"duration":0.09999999999999432,"durationTicks":240,"midi":58,"name":"A#3","ticks":348000,"time":144.10856800000002,"velocity":0.7874015748031497},{"duration":0.09999999999999432,"durationTicks":240,"midi":53,"name":"F3","ticks":348480,"time":144.308568,"velocity":0.7874015748031497},{"duration":0.09999999999999432,"durationTicks":240,"midi":48,"name":"C3","ticks":348480,"time":144.308568,"velocity":0.7874015748031497},{"duration":0.09999999999999432,"durationTicks":240,"midi":56,"name":"G#3","ticks":348480,"time":144.308568,"velocity":0.7874015748031497},{"duration":0.09999999999999432,"durationTicks":240,"midi":48,"name":"C3","ticks":348720,"time":144.408568,"velocity":0.7874015748031497},{"duration":0.09999999999999432,"durationTicks":240,"midi":54,"name":"F#3","ticks":348720,"time":144.408568,"velocity":0.7874015748031497},{"duration":0.10000000000002274,"durationTicks":240,"midi":48,"name":"C3","ticks":348960,"time":144.508568,"velocity":0.7874015748031497},{"duration":0.10000000000002274,"durationTicks":240,"midi":52,"name":"E3","ticks":348960,"time":144.508568,"velocity":0.7874015748031497},{"duration":0.09999999999999432,"durationTicks":240,"midi":53,"name":"F3","ticks":349200,"time":144.60856800000002,"velocity":0.7874015748031497},{"duration":0.09999999999999432,"durationTicks":240,"midi":53,"name":"F3","ticks":349440,"time":144.708568,"velocity":0.7874015748031497},{"duration":0.09999999999999432,"durationTicks":240,"midi":53,"name":"F3","ticks":350400,"time":145.10856800000002,"velocity":0.7874015748031497},{"duration":0.09999999999999432,"durationTicks":240,"midi":53,"name":"F3","ticks":350880,"time":145.308568,"velocity":0.7874015748031497},{"duration":0.09999999999999432,"durationTicks":240,"midi":53,"name":"F3","ticks":351120,"time":145.408568,"velocity":0.7874015748031497},{"duration":0.10000000000002274,"durationTicks":240,"midi":53,"name":"F3","ticks":351360,"time":145.508568,"velocity":0.7874015748031497},{"duration":0.09999999999999432,"durationTicks":240,"midi":53,"name":"F3","ticks":352320,"time":145.908568,"velocity":0.7874015748031497},{"duration":0.09999999999999432,"durationTicks":240,"midi":53,"name":"F3","ticks":353040,"time":146.208568,"velocity":0.7874015748031497},{"duration":0.09999999999999432,"durationTicks":240,"midi":53,"name":"F3","ticks":353280,"time":146.308568,"velocity":0.7874015748031497},{"duration":0.09999999999999432,"durationTicks":240,"midi":53,"name":"F3","ticks":354240,"time":146.708568,"velocity":0.7874015748031497},{"duration":0.09999999999999432,"durationTicks":240,"midi":53,"name":"F3","ticks":354720,"time":146.908568,"velocity":0.7874015748031497},{"duration":0.10000000000002274,"durationTicks":240,"midi":53,"name":"F3","ticks":354960,"time":147.008568,"velocity":0.7874015748031497},{"duration":0.09999999999999432,"durationTicks":240,"midi":53,"name":"F3","ticks":355200,"time":147.10856800000002,"velocity":0.7874015748031497},{"duration":0.10000000000002274,"durationTicks":240,"midi":53,"name":"F3","ticks":356160,"time":147.508568,"velocity":0.7874015748031497},{"duration":0.09999999999999432,"durationTicks":240,"midi":53,"name":"F3","ticks":356880,"time":147.808568,"velocity":0.7874015748031497},{"duration":0.09999999999999432,"durationTicks":240,"midi":53,"name":"F3","ticks":357120,"time":147.908568,"velocity":0.7874015748031497},{"duration":0.09999999999999432,"durationTicks":240,"midi":53,"name":"F3","ticks":358080,"time":148.308568,"velocity":0.7874015748031497},{"duration":0.10000000000002274,"durationTicks":240,"midi":53,"name":"F3","ticks":358560,"time":148.508568,"velocity":0.7874015748031497},{"duration":0.09999999999999432,"durationTicks":240,"midi":53,"name":"F3","ticks":358800,"time":148.60856800000002,"velocity":0.7874015748031497},{"duration":0.09999999999999432,"durationTicks":240,"midi":53,"name":"F3","ticks":359040,"time":148.708568,"velocity":0.7874015748031497},{"duration":0.09999999999999432,"durationTicks":240,"midi":53,"name":"F3","ticks":360000,"time":149.10856800000002,"velocity":0.7874015748031497},{"duration":0.09999999999999432,"durationTicks":240,"midi":53,"name":"F3","ticks":360720,"time":149.408568,"velocity":0.7874015748031497},{"duration":0.10000000000002274,"durationTicks":240,"midi":53,"name":"F3","ticks":360960,"time":149.508568,"velocity":0.7874015748031497},{"duration":0.09999999999999432,"durationTicks":240,"midi":53,"name":"F3","ticks":361920,"time":149.908568,"velocity":0.7874015748031497},{"duration":0.09999999999999432,"durationTicks":240,"midi":53,"name":"F3","ticks":362400,"time":150.10856800000002,"velocity":0.7874015748031497},{"duration":0.09999999999999432,"durationTicks":240,"midi":53,"name":"F3","ticks":362640,"time":150.208568,"velocity":0.7874015748031497},{"duration":0.09999999999999432,"durationTicks":240,"midi":53,"name":"F3","ticks":362880,"time":150.308568,"velocity":0.7874015748031497},{"duration":0.09999999999999432,"durationTicks":240,"midi":53,"name":"F3","ticks":363840,"time":150.708568,"velocity":0.7874015748031497},{"duration":0.10000000000002274,"durationTicks":240,"midi":53,"name":"F3","ticks":364560,"time":151.008568,"velocity":0.7874015748031497},{"duration":0.09999999999999432,"durationTicks":240,"midi":53,"name":"F3","ticks":364800,"time":151.10856800000002,"velocity":0.7874015748031497},{"duration":0.10000000000002274,"durationTicks":240,"midi":53,"name":"F3","ticks":365760,"time":151.508568,"velocity":0.7874015748031497},{"duration":0.09999999999999432,"durationTicks":240,"midi":53,"name":"F3","ticks":366240,"time":151.708568,"velocity":0.7874015748031497},{"duration":0.09999999999999432,"durationTicks":240,"midi":53,"name":"F3","ticks":366480,"time":151.808568,"velocity":0.7874015748031497},{"duration":0.09999999999999432,"durationTicks":240,"midi":53,"name":"F3","ticks":366720,"time":151.908568,"velocity":0.7874015748031497},{"duration":0.09999999999999432,"durationTicks":240,"midi":53,"name":"F3","ticks":367680,"time":152.308568,"velocity":0.7874015748031497},{"duration":0.09999999999999432,"durationTicks":240,"midi":53,"name":"F3","ticks":368400,"time":152.60856800000002,"velocity":0.7874015748031497},{"duration":0.09999999999999432,"durationTicks":240,"midi":53,"name":"F3","ticks":368640,"time":152.708568,"velocity":0.7874015748031497},{"duration":0.09999999999999432,"durationTicks":240,"midi":53,"name":"F3","ticks":369600,"time":153.10856800000002,"velocity":0.7874015748031497},{"duration":0.09999999999999432,"durationTicks":240,"midi":53,"name":"F3","ticks":370080,"time":153.308568,"velocity":0.7874015748031497},{"duration":0.09999999999999432,"durationTicks":240,"midi":53,"name":"F3","ticks":370320,"time":153.408568,"velocity":0.7874015748031497},{"duration":0.10000000000002274,"durationTicks":240,"midi":53,"name":"F3","ticks":370560,"time":153.508568,"velocity":0.7874015748031497},{"duration":0.09999999999999432,"durationTicks":240,"midi":53,"name":"F3","ticks":371520,"time":153.908568,"velocity":0.7874015748031497},{"duration":0.09999999999999432,"durationTicks":240,"midi":53,"name":"F3","ticks":372240,"time":154.208568,"velocity":0.7874015748031497},{"duration":0.09999999999999432,"durationTicks":240,"midi":53,"name":"F3","ticks":372480,"time":154.308568,"velocity":0.7874015748031497},{"duration":0.09999999999999432,"durationTicks":240,"midi":53,"name":"F3","ticks":373440,"time":154.708568,"velocity":0.7874015748031497},{"duration":0.09999999999999432,"durationTicks":240,"midi":53,"name":"F3","ticks":373920,"time":154.908568,"velocity":0.7874015748031497},{"duration":0.10000000000002274,"durationTicks":240,"midi":53,"name":"F3","ticks":374160,"time":155.008568,"velocity":0.7874015748031497},{"duration":0.09999999999999432,"durationTicks":240,"midi":53,"name":"F3","ticks":374400,"time":155.10856800000002,"velocity":0.7874015748031497},{"duration":0.10000000000002274,"durationTicks":240,"midi":53,"name":"F3","ticks":375360,"time":155.508568,"velocity":0.7874015748031497},{"duration":0.09999999999999432,"durationTicks":240,"midi":53,"name":"F3","ticks":376080,"time":155.808568,"velocity":0.7874015748031497},{"duration":0.09999999999999432,"durationTicks":240,"midi":53,"name":"F3","ticks":376320,"time":155.908568,"velocity":0.7874015748031497},{"duration":0.09999999999999432,"durationTicks":240,"midi":53,"name":"F3","ticks":377280,"time":156.308568,"velocity":0.7874015748031497},{"duration":0.10000000000002274,"durationTicks":240,"midi":53,"name":"F3","ticks":377760,"time":156.508568,"velocity":0.7874015748031497},{"duration":0.09999999999999432,"durationTicks":240,"midi":53,"name":"F3","ticks":378000,"time":156.60856800000002,"velocity":0.7874015748031497},{"duration":0.09999999999999432,"durationTicks":240,"midi":53,"name":"F3","ticks":378240,"time":156.708568,"velocity":0.7874015748031497},{"duration":0.09999999999999432,"durationTicks":240,"midi":53,"name":"F3","ticks":379200,"time":157.10856800000002,"velocity":0.7874015748031497},{"duration":0.10000000000002274,"durationTicks":240,"midi":53,"name":"F3","ticks":379920,"time":157.408568,"velocity":0.7874015748031497},{"duration":0.09999999999999432,"durationTicks":240,"midi":53,"name":"F3","ticks":380160,"time":157.50856800000003,"velocity":0.7874015748031497},{"duration":0.10000000000002274,"durationTicks":240,"midi":53,"name":"F3","ticks":381120,"time":157.908568,"velocity":0.7874015748031497},{"duration":0.09999999999999432,"durationTicks":240,"midi":53,"name":"F3","ticks":381600,"time":158.10856800000002,"velocity":0.7874015748031497},{"duration":0.09999999999999432,"durationTicks":240,"midi":53,"name":"F3","ticks":381840,"time":158.208568,"velocity":0.7874015748031497},{"duration":0.09999999999999432,"durationTicks":240,"midi":53,"name":"F3","ticks":382080,"time":158.308568,"velocity":0.7874015748031497},{"duration":0.09999999999999432,"durationTicks":240,"midi":53,"name":"F3","ticks":383040,"time":158.708568,"velocity":0.7874015748031497},{"duration":0.09999999999999432,"durationTicks":240,"midi":53,"name":"F3","ticks":383760,"time":159.00856800000003,"velocity":0.7874015748031497},{"duration":0.09999999999999432,"durationTicks":240,"midi":53,"name":"F3","ticks":384000,"time":159.10856800000002,"velocity":0.7874015748031497},{"duration":0.09999999999999432,"durationTicks":240,"midi":53,"name":"F3","ticks":384960,"time":159.50856800000003,"velocity":0.7874015748031497},{"duration":0.09999999999999432,"durationTicks":240,"midi":53,"name":"F3","ticks":385440,"time":159.708568,"velocity":0.7874015748031497},{"duration":0.09999999999999432,"durationTicks":240,"midi":53,"name":"F3","ticks":385680,"time":159.808568,"velocity":0.7874015748031497},{"duration":0.10000000000002274,"durationTicks":240,"midi":53,"name":"F3","ticks":385920,"time":159.908568,"velocity":0.7874015748031497},{"duration":0.09999999999999432,"durationTicks":240,"midi":53,"name":"F3","ticks":386880,"time":160.308568,"velocity":0.7874015748031497},{"duration":0.09999999999999432,"durationTicks":240,"midi":53,"name":"F3","ticks":387600,"time":160.60856800000002,"velocity":0.7874015748031497},{"duration":0.09999999999999432,"durationTicks":240,"midi":53,"name":"F3","ticks":387840,"time":160.708568,"velocity":0.7874015748031497},{"duration":0.09999999999999432,"durationTicks":240,"midi":53,"name":"F3","ticks":388800,"time":161.10856800000002,"velocity":0.7874015748031497},{"duration":0.09999999999999432,"durationTicks":240,"midi":53,"name":"F3","ticks":389280,"time":161.308568,"velocity":0.7874015748031497},{"duration":0.10000000000002274,"durationTicks":240,"midi":53,"name":"F3","ticks":389520,"time":161.408568,"velocity":0.7874015748031497},{"duration":0.09999999999999432,"durationTicks":240,"midi":53,"name":"F3","ticks":389760,"time":161.50856800000003,"velocity":0.7874015748031497},{"duration":0.10000000000002274,"durationTicks":240,"midi":53,"name":"F3","ticks":390720,"time":161.908568,"velocity":0.7874015748031497},{"duration":0.09999999999999432,"durationTicks":240,"midi":53,"name":"F3","ticks":391440,"time":162.208568,"velocity":0.7874015748031497},{"duration":0.09999999999999432,"durationTicks":240,"midi":53,"name":"F3","ticks":391680,"time":162.308568,"velocity":0.7874015748031497},{"duration":0.09999999999999432,"durationTicks":240,"midi":53,"name":"F3","ticks":392640,"time":162.708568,"velocity":0.7874015748031497},{"duration":0.10000000000002274,"durationTicks":240,"midi":53,"name":"F3","ticks":393120,"time":162.908568,"velocity":0.7874015748031497},{"duration":0.09999999999999432,"durationTicks":240,"midi":53,"name":"F3","ticks":393360,"time":163.00856800000003,"velocity":0.7874015748031497},{"duration":0.09999999999999432,"durationTicks":240,"midi":53,"name":"F3","ticks":393600,"time":163.10856800000002,"velocity":0.7874015748031497},{"duration":0.09999999999999432,"durationTicks":240,"midi":53,"name":"F3","ticks":394560,"time":163.50856800000003,"velocity":0.7874015748031497},{"duration":0.09999999999999432,"durationTicks":240,"midi":53,"name":"F3","ticks":395280,"time":163.808568,"velocity":0.7874015748031497},{"duration":0.10000000000002274,"durationTicks":240,"midi":53,"name":"F3","ticks":395520,"time":163.908568,"velocity":0.7874015748031497},{"duration":0.09999999999999432,"durationTicks":240,"midi":53,"name":"F3","ticks":396480,"time":164.308568,"velocity":0.7874015748031497},{"duration":0.09999999999999432,"durationTicks":240,"midi":53,"name":"F3","ticks":396960,"time":164.50856800000003,"velocity":0.7874015748031497},{"duration":0.09999999999999432,"durationTicks":240,"midi":53,"name":"F3","ticks":397200,"time":164.60856800000002,"velocity":0.7874015748031497},{"duration":0.09999999999999432,"durationTicks":240,"midi":53,"name":"F3","ticks":397440,"time":164.708568,"velocity":0.7874015748031497},{"duration":0.09999999999999432,"durationTicks":240,"midi":53,"name":"F3","ticks":398400,"time":165.10856800000002,"velocity":0.7874015748031497},{"duration":0.10000000000002274,"durationTicks":240,"midi":53,"name":"F3","ticks":399120,"time":165.408568,"velocity":0.7874015748031497},{"duration":0.09999999999999432,"durationTicks":240,"midi":53,"name":"F3","ticks":399360,"time":165.50856800000003,"velocity":0.7874015748031497},{"duration":0.10000000000002274,"durationTicks":240,"midi":53,"name":"F3","ticks":400320,"time":165.908568,"velocity":0.7874015748031497},{"duration":0.09999999999999432,"durationTicks":240,"midi":53,"name":"F3","ticks":400800,"time":166.10856800000002,"velocity":0.7874015748031497},{"duration":0.09999999999999432,"durationTicks":240,"midi":53,"name":"F3","ticks":401040,"time":166.208568,"velocity":0.7874015748031497},{"duration":0.09999999999999432,"durationTicks":240,"midi":53,"name":"F3","ticks":401280,"time":166.308568,"velocity":0.7874015748031497},{"duration":0.09999999999999432,"durationTicks":240,"midi":53,"name":"F3","ticks":402240,"time":166.708568,"velocity":0.7874015748031497},{"duration":0.09999999999999432,"durationTicks":240,"midi":53,"name":"F3","ticks":402960,"time":167.00856800000003,"velocity":0.7874015748031497},{"duration":0.09999999999999432,"durationTicks":240,"midi":53,"name":"F3","ticks":403200,"time":167.10856800000002,"velocity":0.7874015748031497},{"duration":0.09999999999999432,"durationTicks":240,"midi":53,"name":"F3","ticks":404160,"time":167.50856800000003,"velocity":0.7874015748031497},{"duration":0.09999999999999432,"durationTicks":240,"midi":53,"name":"F3","ticks":404640,"time":167.708568,"velocity":0.7874015748031497},{"duration":0.09999999999999432,"durationTicks":240,"midi":53,"name":"F3","ticks":404880,"time":167.808568,"velocity":0.7874015748031497},{"duration":0.10000000000002274,"durationTicks":240,"midi":53,"name":"F3","ticks":405120,"time":167.908568,"velocity":0.7874015748031497},{"duration":0.09999999999999432,"durationTicks":240,"midi":53,"name":"F3","ticks":406080,"time":168.308568,"velocity":0.7874015748031497},{"duration":0.09999999999999432,"durationTicks":240,"midi":53,"name":"F3","ticks":406800,"time":168.60856800000002,"velocity":0.7874015748031497},{"duration":0.09999999999999432,"durationTicks":240,"midi":53,"name":"F3","ticks":407040,"time":168.708568,"velocity":0.7874015748031497},{"duration":0.09999999999999432,"durationTicks":240,"midi":53,"name":"F3","ticks":408000,"time":169.10856800000002,"velocity":0.7874015748031497},{"duration":0.09999999999999432,"durationTicks":240,"midi":53,"name":"F3","ticks":408480,"time":169.308568,"velocity":0.7874015748031497},{"duration":0.10000000000002274,"durationTicks":240,"midi":53,"name":"F3","ticks":408720,"time":169.408568,"velocity":0.7874015748031497},{"duration":0.09999999999999432,"durationTicks":240,"midi":53,"name":"F3","ticks":408960,"time":169.50856800000003,"velocity":0.7874015748031497},{"duration":0.10000000000002274,"durationTicks":240,"midi":53,"name":"F3","ticks":409920,"time":169.908568,"velocity":1},{"duration":0.09999999999999432,"durationTicks":240,"midi":53,"name":"F3","ticks":410160,"time":170.00856800000003,"velocity":1},{"duration":0.09999999999999432,"durationTicks":240,"midi":53,"name":"F3","ticks":410400,"time":170.10856800000002,"velocity":1},{"duration":0.09999999999999432,"durationTicks":240,"midi":53,"name":"F3","ticks":410640,"time":170.208568,"velocity":0.7874015748031497},{"duration":0.09999999999999432,"durationTicks":240,"midi":53,"name":"F3","ticks":410880,"time":170.308568,"velocity":0.7874015748031497},{"duration":0.09999999999999432,"durationTicks":240,"midi":53,"name":"F3","ticks":411840,"time":170.708568,"velocity":0.7401574803149606},{"duration":0.10000000000002274,"durationTicks":240,"midi":53,"name":"F3","ticks":412320,"time":170.908568,"velocity":0.7165354330708661},{"duration":0.09999999999999432,"durationTicks":240,"midi":53,"name":"F3","ticks":412560,"time":171.00856800000003,"velocity":0.7086614173228346},{"duration":0.09999999999999432,"durationTicks":240,"midi":53,"name":"F3","ticks":412800,"time":171.10856800000002,"velocity":0.6929133858267716},{"duration":0.09999999999999432,"durationTicks":240,"midi":53,"name":"F3","ticks":413760,"time":171.50856800000003,"velocity":0.6456692913385826},{"duration":0.09999999999999432,"durationTicks":240,"midi":53,"name":"F3","ticks":414480,"time":171.808568,"velocity":0.6062992125984252},{"duration":0.10000000000002274,"durationTicks":240,"midi":53,"name":"F3","ticks":414720,"time":171.908568,"velocity":0.5905511811023622},{"duration":0.09999999999999432,"durationTicks":240,"midi":53,"name":"F3","ticks":415680,"time":172.308568,"velocity":0.5433070866141733},{"duration":0.09999999999999432,"durationTicks":240,"midi":53,"name":"F3","ticks":416160,"time":172.50856800000003,"velocity":0.5196850393700787},{"duration":0.09999999999999432,"durationTicks":240,"midi":53,"name":"F3","ticks":416400,"time":172.60856800000002,"velocity":0.5118110236220472},{"duration":0.09999999999999432,"durationTicks":240,"midi":53,"name":"F3","ticks":416640,"time":172.708568,"velocity":0.49606299212598426},{"duration":0.09999999999999432,"durationTicks":240,"midi":53,"name":"F3","ticks":417600,"time":173.10856800000002,"velocity":0.44881889763779526},{"duration":0.10000000000002274,"durationTicks":240,"midi":53,"name":"F3","ticks":418320,"time":173.408568,"velocity":0.4094488188976378},{"duration":0.09999999999999432,"durationTicks":240,"midi":53,"name":"F3","ticks":418560,"time":173.50856800000003,"velocity":0.3937007874015748},{"duration":0.10000000000002274,"durationTicks":240,"midi":53,"name":"F3","ticks":419520,"time":173.908568,"velocity":0.3464566929133858},{"duration":0.09999999999999432,"durationTicks":240,"midi":53,"name":"F3","ticks":420000,"time":174.10856800000002,"velocity":0.3228346456692913},{"duration":0.09999999999999432,"durationTicks":240,"midi":53,"name":"F3","ticks":420240,"time":174.208568,"velocity":0.31496062992125984},{"duration":0.09999999999999432,"durationTicks":240,"midi":53,"name":"F3","ticks":420480,"time":174.308568,"velocity":0.2992125984251969},{"duration":0.09999999999999432,"durationTicks":240,"midi":53,"name":"F3","ticks":421440,"time":174.708568,"velocity":0.25196850393700787},{"duration":0.09999999999999432,"durationTicks":240,"midi":53,"name":"F3","ticks":422160,"time":175.00856800000003,"velocity":0.2125984251968504},{"duration":0.09999999999999432,"durationTicks":240,"midi":53,"name":"F3","ticks":422400,"time":175.10856800000002,"velocity":0.1968503937007874},{"duration":0.09999999999999432,"durationTicks":240,"midi":53,"name":"F3","ticks":423360,"time":175.50856800000003,"velocity":0.14960629921259844},{"duration":0.09999999999999432,"durationTicks":240,"midi":53,"name":"F3","ticks":423840,"time":175.708568,"velocity":0.12598425196850394},{"duration":0.09999999999999432,"durationTicks":240,"midi":53,"name":"F3","ticks":424080,"time":175.808568,"velocity":0.11811023622047244},{"duration":0.10000000000002274,"durationTicks":240,"midi":53,"name":"F3","ticks":424320,"time":175.908568,"velocity":0.10236220472440945},{"duration":0.09999999999999432,"durationTicks":240,"midi":53,"name":"F3","ticks":425280,"time":176.308568,"velocity":0.05511811023622047},{"duration":0.09999999999999432,"durationTicks":240,"midi":53,"name":"F3","ticks":426000,"time":176.60856800000002,"velocity":0.015748031496062992}]},{"channel":8,"controlChanges":{},"pitchBends":[],"instrument":{"family":"sound effects","number":122,"name":"seashore"},"name":"","notes":[{"duration":0.42857100000000004,"durationTicks":960,"midi":73,"name":"C#5","ticks":3840,"time":0.48,"velocity":0.6456692913385826},{"duration":0.42857100000000004,"durationTicks":960,"midi":67,"name":"G4","ticks":3840,"time":0.48,"velocity":0.6456692913385826},{"duration":0.8035706250000001,"durationTicks":1800,"midi":72,"name":"C5","ticks":3960,"time":0.533571375,"velocity":0.6456692913385826},{"duration":0.42857100000000004,"durationTicks":960,"midi":73,"name":"C#5","ticks":5760,"time":1.337142,"velocity":0.6456692913385826},{"duration":0.42857100000000004,"durationTicks":960,"midi":67,"name":"G4","ticks":5760,"time":1.337142,"velocity":0.6456692913385826},{"duration":0.8035706250000001,"durationTicks":1800,"midi":72,"name":"C5","ticks":5880,"time":1.390713375,"velocity":0.6456692913385826},{"duration":0.0535713750000002,"durationTicks":120,"midi":50,"name":"D3","ticks":7680,"time":2.194284,"velocity":0.7874015748031497},{"duration":0.0535713750000002,"durationTicks":120,"midi":55,"name":"G3","ticks":7680,"time":2.194284,"velocity":0.7874015748031497},{"duration":0.053571374999999755,"durationTicks":120,"midi":51,"name":"D#3","ticks":7800,"time":2.2478553750000003,"velocity":0.7874015748031497},{"duration":0.053571374999999755,"durationTicks":120,"midi":56,"name":"G#3","ticks":7800,"time":2.2478553750000003,"velocity":0.7874015748031497},{"duration":0.053571374999999755,"durationTicks":120,"midi":52,"name":"E3","ticks":7920,"time":2.30142675,"velocity":0.7874015748031497},{"duration":0.053571374999999755,"durationTicks":120,"midi":57,"name":"A3","ticks":7920,"time":2.30142675,"velocity":0.7874015748031497},{"duration":0.0535713750000002,"durationTicks":120,"midi":53,"name":"F3","ticks":8040,"time":2.354998125,"velocity":0.7874015748031497},{"duration":0.0535713750000002,"durationTicks":120,"midi":58,"name":"A#3","ticks":8040,"time":2.354998125,"velocity":0.7874015748031497},{"duration":0.0535713750000002,"durationTicks":120,"midi":54,"name":"F#3","ticks":8160,"time":2.4085695,"velocity":0.7874015748031497},{"duration":0.0535713750000002,"durationTicks":120,"midi":59,"name":"B3","ticks":8160,"time":2.4085695,"velocity":0.7874015748031497},{"duration":0.053571374999999755,"durationTicks":120,"midi":55,"name":"G3","ticks":8280,"time":2.4621408750000002,"velocity":0.7874015748031497},{"duration":0.053571374999999755,"durationTicks":120,"midi":60,"name":"C4","ticks":8280,"time":2.4621408750000002,"velocity":0.7874015748031497},{"duration":0.0535713750000002,"durationTicks":120,"midi":56,"name":"G#3","ticks":8400,"time":2.51571225,"velocity":0.7874015748031497},{"duration":0.0535713750000002,"durationTicks":120,"midi":61,"name":"C#4","ticks":8400,"time":2.51571225,"velocity":0.7874015748031497},{"duration":0.053571374999999755,"durationTicks":120,"midi":57,"name":"A3","ticks":8520,"time":2.569283625,"velocity":0.7874015748031497},{"duration":0.053571374999999755,"durationTicks":120,"midi":62,"name":"D4","ticks":8520,"time":2.569283625,"velocity":0.7874015748031497},{"duration":0.0535713750000002,"durationTicks":120,"midi":58,"name":"A#3","ticks":8640,"time":2.622855,"velocity":0.7874015748031497},{"duration":0.0535713750000002,"durationTicks":120,"midi":63,"name":"D#4","ticks":8640,"time":2.622855,"velocity":0.7874015748031497},{"duration":0.0535713750000002,"durationTicks":120,"midi":59,"name":"B3","ticks":8760,"time":2.676426375,"velocity":0.7874015748031497},{"duration":0.0535713750000002,"durationTicks":120,"midi":64,"name":"E4","ticks":8760,"time":2.676426375,"velocity":0.7874015748031497},{"duration":0.053571374999999755,"durationTicks":120,"midi":60,"name":"C4","ticks":8880,"time":2.7299977500000003,"velocity":0.7874015748031497},{"duration":0.053571374999999755,"durationTicks":120,"midi":65,"name":"F4","ticks":8880,"time":2.7299977500000003,"velocity":0.7874015748031497},{"duration":0.0535713750000002,"durationTicks":120,"midi":61,"name":"C#4","ticks":9000,"time":2.783569125,"velocity":0.7874015748031497},{"duration":0.0535713750000002,"durationTicks":120,"midi":66,"name":"F#4","ticks":9000,"time":2.783569125,"velocity":0.7874015748031497},{"duration":0.053571374999999755,"durationTicks":120,"midi":62,"name":"D4","ticks":9120,"time":2.8371405000000003,"velocity":0.7874015748031497},{"duration":0.053571374999999755,"durationTicks":120,"midi":67,"name":"G4","ticks":9120,"time":2.8371405000000003,"velocity":0.7874015748031497},{"duration":0.0535713750000002,"durationTicks":120,"midi":63,"name":"D#4","ticks":9240,"time":2.890711875,"velocity":0.7874015748031497},{"duration":0.0535713750000002,"durationTicks":120,"midi":68,"name":"G#4","ticks":9240,"time":2.890711875,"velocity":0.7874015748031497},{"duration":0.053571374999999755,"durationTicks":120,"midi":64,"name":"E4","ticks":9360,"time":2.9442832500000002,"velocity":0.7874015748031497},{"duration":0.053571374999999755,"durationTicks":120,"midi":69,"name":"A4","ticks":9360,"time":2.9442832500000002,"velocity":0.7874015748031497},{"duration":0.0535713750000002,"durationTicks":120,"midi":65,"name":"F4","ticks":9480,"time":2.997854625,"velocity":0.7874015748031497},{"duration":0.0535713750000002,"durationTicks":120,"midi":70,"name":"A#4","ticks":9480,"time":2.997854625,"velocity":0.7874015748031497},{"duration":0.0535713750000002,"durationTicks":120,"midi":66,"name":"F#4","ticks":9600,"time":3.051426,"velocity":0.7874015748031497},{"duration":0.0535713750000002,"durationTicks":120,"midi":71,"name":"B4","ticks":9600,"time":3.051426,"velocity":0.7874015748031497},{"duration":0.053571374999999755,"durationTicks":120,"midi":67,"name":"G4","ticks":9720,"time":3.1049973750000004,"velocity":0.7874015748031497},{"duration":0.053571374999999755,"durationTicks":120,"midi":72,"name":"C5","ticks":9720,"time":3.1049973750000004,"velocity":0.7874015748031497},{"duration":0.0535713750000002,"durationTicks":120,"midi":68,"name":"G#4","ticks":9840,"time":3.15856875,"velocity":0.7874015748031497},{"duration":0.0535713750000002,"durationTicks":120,"midi":73,"name":"C#5","ticks":9840,"time":3.15856875,"velocity":0.7874015748031497},{"duration":0.053571374999999755,"durationTicks":120,"midi":69,"name":"A4","ticks":9960,"time":3.2121401250000003,"velocity":0.7874015748031497},{"duration":0.053571374999999755,"durationTicks":120,"midi":74,"name":"D5","ticks":9960,"time":3.2121401250000003,"velocity":0.7874015748031497},{"duration":0.0535713750000002,"durationTicks":120,"midi":70,"name":"A#4","ticks":10080,"time":3.2657115,"velocity":0.7874015748031497},{"duration":0.0535713750000002,"durationTicks":120,"midi":75,"name":"D#5","ticks":10080,"time":3.2657115,"velocity":0.7874015748031497},{"duration":0.053571374999999755,"durationTicks":120,"midi":71,"name":"B4","ticks":10200,"time":3.3192828750000003,"velocity":0.7874015748031497},{"duration":0.053571374999999755,"durationTicks":120,"midi":76,"name":"E5","ticks":10200,"time":3.3192828750000003,"velocity":0.7874015748031497},{"duration":0.0535713750000002,"durationTicks":120,"midi":72,"name":"C5","ticks":10320,"time":3.37285425,"velocity":0.7874015748031497},{"duration":0.0535713750000002,"durationTicks":120,"midi":77,"name":"F5","ticks":10320,"time":3.37285425,"velocity":0.7874015748031497},{"duration":0.0535713750000002,"durationTicks":120,"midi":73,"name":"C#5","ticks":10440,"time":3.4264256250000003,"velocity":0.7874015748031497},{"duration":0.0535713750000002,"durationTicks":120,"midi":78,"name":"F#5","ticks":10440,"time":3.4264256250000003,"velocity":0.7874015748031497},{"duration":0.053571374999999755,"durationTicks":120,"midi":74,"name":"D5","ticks":10560,"time":3.4799970000000005,"velocity":0.7874015748031497},{"duration":0.053571374999999755,"durationTicks":120,"midi":79,"name":"G5","ticks":10560,"time":3.4799970000000005,"velocity":0.7874015748031497},{"duration":0.0535713750000002,"durationTicks":120,"midi":75,"name":"D#5","ticks":10680,"time":3.533568375,"velocity":0.7874015748031497},{"duration":0.0535713750000002,"durationTicks":120,"midi":80,"name":"G#5","ticks":10680,"time":3.533568375,"velocity":0.7874015748031497},{"duration":0.053571374999999755,"durationTicks":120,"midi":76,"name":"E5","ticks":10800,"time":3.5871397500000004,"velocity":0.7874015748031497},{"duration":0.053571374999999755,"durationTicks":120,"midi":81,"name":"A5","ticks":10800,"time":3.5871397500000004,"velocity":0.7874015748031497},{"duration":0.0535713750000002,"durationTicks":120,"midi":77,"name":"F5","ticks":10920,"time":3.640711125,"velocity":0.7874015748031497},{"duration":0.0535713750000002,"durationTicks":120,"midi":82,"name":"A#5","ticks":10920,"time":3.640711125,"velocity":0.7874015748031497},{"duration":0.053571374999999755,"durationTicks":120,"midi":78,"name":"F#5","ticks":11040,"time":3.6942825000000004,"velocity":0.7874015748031497},{"duration":0.053571374999999755,"durationTicks":120,"midi":83,"name":"B5","ticks":11040,"time":3.6942825000000004,"velocity":0.7874015748031497},{"duration":0.0535713750000002,"durationTicks":120,"midi":79,"name":"G5","ticks":11160,"time":3.747853875,"velocity":0.7874015748031497},{"duration":0.0535713750000002,"durationTicks":120,"midi":84,"name":"C6","ticks":11160,"time":3.747853875,"velocity":0.7874015748031497},{"duration":0.053571374999999755,"durationTicks":120,"midi":80,"name":"G#5","ticks":11280,"time":3.8014252500000003,"velocity":0.7874015748031497},{"duration":0.053571374999999755,"durationTicks":120,"midi":85,"name":"C#6","ticks":11280,"time":3.8014252500000003,"velocity":0.7874015748031497},{"duration":0.0535713750000002,"durationTicks":120,"midi":81,"name":"A5","ticks":11400,"time":3.854996625,"velocity":0.7874015748031497},{"duration":0.0535713750000002,"durationTicks":120,"midi":86,"name":"D6","ticks":11400,"time":3.854996625,"velocity":0.7874015748031497},{"duration":0.04999999999999982,"durationTicks":120,"midi":77,"name":"F5","ticks":12480,"time":4.308568,"velocity":0.7874015748031497},{"duration":0.04999999999999982,"durationTicks":120,"midi":67,"name":"G4","ticks":12480,"time":4.308568,"velocity":0.7874015748031497},{"duration":0.05000000000000071,"durationTicks":120,"midi":77,"name":"F5","ticks":14400,"time":5.108568,"velocity":0.7874015748031497},{"duration":0.05000000000000071,"durationTicks":120,"midi":67,"name":"G4","ticks":14400,"time":5.108568,"velocity":0.7874015748031497},{"duration":0.04999999999999982,"durationTicks":120,"midi":77,"name":"F5","ticks":16320,"time":5.908568000000001,"velocity":0.7874015748031497},{"duration":0.04999999999999982,"durationTicks":120,"midi":67,"name":"G4","ticks":16320,"time":5.908568000000001,"velocity":0.7874015748031497},{"duration":0.05000000000000071,"durationTicks":120,"midi":60,"name":"C4","ticks":17760,"time":6.508568,"velocity":0.7874015748031497},{"duration":0.04999999999999982,"durationTicks":120,"midi":77,"name":"F5","ticks":18240,"time":6.7085680000000005,"velocity":0.7874015748031497},{"duration":0.04999999999999982,"durationTicks":120,"midi":67,"name":"G4","ticks":18240,"time":6.7085680000000005,"velocity":0.7874015748031497},{"duration":0.05000000000000071,"durationTicks":120,"midi":77,"name":"F5","ticks":20160,"time":7.508568,"velocity":0.7874015748031497},{"duration":0.05000000000000071,"durationTicks":120,"midi":67,"name":"G4","ticks":20160,"time":7.508568,"velocity":0.7874015748031497},{"duration":0.049999999999998934,"durationTicks":120,"midi":77,"name":"F5","ticks":22080,"time":8.308568000000001,"velocity":0.7874015748031497},{"duration":0.049999999999998934,"durationTicks":120,"midi":67,"name":"G4","ticks":22080,"time":8.308568000000001,"velocity":0.7874015748031497},{"duration":0.05000000000000071,"durationTicks":120,"midi":77,"name":"F5","ticks":24000,"time":9.108568,"velocity":0.7874015748031497},{"duration":0.05000000000000071,"durationTicks":120,"midi":67,"name":"G4","ticks":24000,"time":9.108568,"velocity":0.7874015748031497},{"duration":0.05000000000000071,"durationTicks":120,"midi":77,"name":"F5","ticks":24960,"time":9.508568,"velocity":0.7874015748031497},{"duration":0.05000000000000071,"durationTicks":120,"midi":67,"name":"G4","ticks":24960,"time":9.508568,"velocity":0.7874015748031497},{"duration":0.049999999999998934,"durationTicks":120,"midi":60,"name":"C4","ticks":25440,"time":9.708568000000001,"velocity":0.7874015748031497},{"duration":0.05000000000000071,"durationTicks":120,"midi":77,"name":"F5","ticks":25920,"time":9.908568,"velocity":0.7874015748031497},{"duration":0.05000000000000071,"durationTicks":120,"midi":67,"name":"G4","ticks":25920,"time":9.908568,"velocity":0.7874015748031497},{"duration":0.049999999999998934,"durationTicks":120,"midi":77,"name":"F5","ticks":27840,"time":10.708568000000001,"velocity":0.7874015748031497},{"duration":0.049999999999998934,"durationTicks":120,"midi":67,"name":"G4","ticks":27840,"time":10.708568000000001,"velocity":0.7874015748031497},{"duration":0.05000000000000071,"durationTicks":120,"midi":77,"name":"F5","ticks":29760,"time":11.508568,"velocity":0.7874015748031497},{"duration":0.05000000000000071,"durationTicks":120,"midi":67,"name":"G4","ticks":29760,"time":11.508568,"velocity":0.7874015748031497},{"duration":0.05000000000000071,"durationTicks":120,"midi":77,"name":"F5","ticks":31680,"time":12.308568000000001,"velocity":0.7874015748031497},{"duration":0.05000000000000071,"durationTicks":120,"midi":67,"name":"G4","ticks":31680,"time":12.308568000000001,"velocity":0.7874015748031497},{"duration":0.05000000000000071,"durationTicks":120,"midi":60,"name":"C4","ticks":33120,"time":12.908568,"velocity":0.7874015748031497},{"duration":0.049999999999998934,"durationTicks":120,"midi":77,"name":"F5","ticks":33600,"time":13.108568000000002,"velocity":0.7874015748031497},{"duration":0.049999999999998934,"durationTicks":120,"midi":67,"name":"G4","ticks":33600,"time":13.108568000000002,"velocity":0.7874015748031497},{"duration":0.05000000000000071,"durationTicks":120,"midi":77,"name":"F5","ticks":35520,"time":13.908568,"velocity":0.7874015748031497},{"duration":0.05000000000000071,"durationTicks":120,"midi":67,"name":"G4","ticks":35520,"time":13.908568,"velocity":0.7874015748031497},{"duration":0.05000000000000071,"durationTicks":120,"midi":77,"name":"F5","ticks":37440,"time":14.708568000000001,"velocity":0.7874015748031497},{"duration":0.05000000000000071,"durationTicks":120,"midi":67,"name":"G4","ticks":37440,"time":14.708568000000001,"velocity":0.7874015748031497},{"duration":0.049999999999998934,"durationTicks":120,"midi":77,"name":"F5","ticks":39360,"time":15.508568000000002,"velocity":0.7874015748031497},{"duration":0.049999999999998934,"durationTicks":120,"midi":67,"name":"G4","ticks":39360,"time":15.508568000000002,"velocity":0.7874015748031497},{"duration":0.04999999999999716,"durationTicks":120,"midi":60,"name":"C4","ticks":40800,"time":16.108568,"velocity":0.7874015748031497},{"duration":0.05000000000000071,"durationTicks":120,"midi":77,"name":"F5","ticks":41280,"time":16.308568,"velocity":0.7874015748031497},{"duration":0.05000000000000071,"durationTicks":120,"midi":67,"name":"G4","ticks":41280,"time":16.308568,"velocity":0.7874015748031497},{"duration":0.04999999999999716,"durationTicks":120,"midi":77,"name":"F5","ticks":43200,"time":17.108568,"velocity":0.7874015748031497},{"duration":0.04999999999999716,"durationTicks":120,"midi":67,"name":"G4","ticks":43200,"time":17.108568,"velocity":0.7874015748031497},{"duration":0.05000000000000071,"durationTicks":120,"midi":77,"name":"F5","ticks":45120,"time":17.908568,"velocity":0.7874015748031497},{"duration":0.05000000000000071,"durationTicks":120,"midi":67,"name":"G4","ticks":45120,"time":17.908568,"velocity":0.7874015748031497},{"duration":0.05000000000000071,"durationTicks":120,"midi":77,"name":"F5","ticks":47040,"time":18.708568,"velocity":0.7874015748031497},{"duration":0.05000000000000071,"durationTicks":120,"midi":67,"name":"G4","ticks":47040,"time":18.708568,"velocity":0.7874015748031497},{"duration":0.05000000000000071,"durationTicks":120,"midi":60,"name":"C4","ticks":48480,"time":19.308568,"velocity":0.7874015748031497},{"duration":0.05000000000000071,"durationTicks":120,"midi":77,"name":"F5","ticks":48960,"time":19.508568,"velocity":0.7874015748031497},{"duration":0.05000000000000071,"durationTicks":120,"midi":67,"name":"G4","ticks":48960,"time":19.508568,"velocity":0.7874015748031497},{"duration":0.10000000000000142,"durationTicks":240,"midi":90,"name":"F#6","ticks":49920,"time":19.908568,"velocity":0.7874015748031497},{"duration":0.10000000000000142,"durationTicks":240,"midi":84,"name":"C6","ticks":49920,"time":19.908568,"velocity":0.7874015748031497},{"duration":0.04999999999999716,"durationTicks":120,"midi":67,"name":"G4","ticks":50880,"time":20.308568,"velocity":0.7874015748031497},{"duration":0.10000000000000142,"durationTicks":240,"midi":88,"name":"E6","ticks":51840,"time":20.708568,"velocity":0.7874015748031497},{"duration":0.10000000000000142,"durationTicks":240,"midi":81,"name":"A5","ticks":51840,"time":20.708568,"velocity":0.7874015748031497},{"duration":0.05000000000000071,"durationTicks":120,"midi":67,"name":"G4","ticks":52800,"time":21.108567999999998,"velocity":0.7874015748031497},{"duration":0.09999999999999787,"durationTicks":240,"midi":90,"name":"F#6","ticks":53280,"time":21.308568,"velocity":0.7874015748031497},{"duration":0.09999999999999787,"durationTicks":240,"midi":84,"name":"C6","ticks":53280,"time":21.308568,"velocity":0.7874015748031497},{"duration":0.05000000000000071,"durationTicks":120,"midi":77,"name":"F5","ticks":54720,"time":21.908568,"velocity":0.7874015748031497},{"duration":0.05000000000000071,"durationTicks":120,"midi":67,"name":"G4","ticks":54720,"time":21.908568,"velocity":0.7874015748031497},{"duration":0.09999999999999787,"durationTicks":240,"midi":90,"name":"F#6","ticks":55680,"time":22.308568,"velocity":0.7874015748031497},{"duration":0.09999999999999787,"durationTicks":240,"midi":84,"name":"C6","ticks":55680,"time":22.308568,"velocity":0.7874015748031497},{"duration":0.05000000000000071,"durationTicks":120,"midi":60,"name":"C4","ticks":56160,"time":22.508568,"velocity":0.7874015748031497},{"duration":0.05000000000000071,"durationTicks":120,"midi":77,"name":"F5","ticks":56640,"time":22.708568,"velocity":0.7874015748031497},{"duration":0.05000000000000071,"durationTicks":120,"midi":67,"name":"G4","ticks":56640,"time":22.708568,"velocity":0.7874015748031497},{"duration":0.10000000000000142,"durationTicks":240,"midi":90,"name":"F#6","ticks":56640,"time":22.708568,"velocity":0.7874015748031497},{"duration":0.10000000000000142,"durationTicks":240,"midi":84,"name":"C6","ticks":56640,"time":22.708568,"velocity":0.7874015748031497},{"duration":0.05000000000000071,"durationTicks":120,"midi":77,"name":"F5","ticks":58560,"time":23.508568,"velocity":0.7874015748031497},{"duration":0.05000000000000071,"durationTicks":120,"midi":67,"name":"G4","ticks":58560,"time":23.508568,"velocity":0.7874015748031497},{"duration":0.05000000000000071,"durationTicks":120,"midi":77,"name":"F5","ticks":60480,"time":24.308568,"velocity":0.7874015748031497},{"duration":0.05000000000000071,"durationTicks":120,"midi":67,"name":"G4","ticks":60480,"time":24.308568,"velocity":0.7874015748031497},{"duration":0.04999999999999716,"durationTicks":120,"midi":77,"name":"F5","ticks":62400,"time":25.108568,"velocity":0.7874015748031497},{"duration":0.04999999999999716,"durationTicks":120,"midi":67,"name":"G4","ticks":62400,"time":25.108568,"velocity":0.7874015748031497},{"duration":0.05000000000000071,"durationTicks":120,"midi":60,"name":"C4","ticks":63840,"time":25.708568,"velocity":0.7874015748031497},{"duration":0.05000000000000071,"durationTicks":120,"midi":77,"name":"F5","ticks":64320,"time":25.908568,"velocity":0.7874015748031497},{"duration":0.05000000000000071,"durationTicks":120,"midi":67,"name":"G4","ticks":64320,"time":25.908568,"velocity":0.7874015748031497},{"duration":0.05000000000000071,"durationTicks":120,"midi":77,"name":"F5","ticks":66240,"time":26.708568,"velocity":0.7874015748031497},{"duration":0.05000000000000071,"durationTicks":120,"midi":67,"name":"G4","ticks":66240,"time":26.708568,"velocity":0.7874015748031497},{"duration":0.05000000000000071,"durationTicks":120,"midi":77,"name":"F5","ticks":68160,"time":27.508568,"velocity":0.7874015748031497},{"duration":0.05000000000000071,"durationTicks":120,"midi":67,"name":"G4","ticks":68160,"time":27.508568,"velocity":0.7874015748031497},{"duration":0.05000000000000071,"durationTicks":120,"midi":77,"name":"F5","ticks":70080,"time":28.308568,"velocity":0.7874015748031497},{"duration":0.05000000000000071,"durationTicks":120,"midi":67,"name":"G4","ticks":70080,"time":28.308568,"velocity":0.7874015748031497},{"duration":0.05000000000000071,"durationTicks":120,"midi":60,"name":"C4","ticks":71520,"time":28.908568,"velocity":0.7874015748031497},{"duration":0.04999999999999716,"durationTicks":120,"midi":77,"name":"F5","ticks":72000,"time":29.108568,"velocity":0.7874015748031497},{"duration":0.04999999999999716,"durationTicks":120,"midi":67,"name":"G4","ticks":72000,"time":29.108568,"velocity":0.7874015748031497},{"duration":0.05000000000000071,"durationTicks":120,"midi":77,"name":"F5","ticks":73920,"time":29.908568,"velocity":0.7874015748031497},{"duration":0.05000000000000071,"durationTicks":120,"midi":67,"name":"G4","ticks":73920,"time":29.908568,"velocity":0.7874015748031497},{"duration":0.05000000000000071,"durationTicks":120,"midi":77,"name":"F5","ticks":75840,"time":30.708568,"velocity":0.7874015748031497},{"duration":0.05000000000000071,"durationTicks":120,"midi":67,"name":"G4","ticks":75840,"time":30.708568,"velocity":0.7874015748031497},{"duration":0.09999999999999787,"durationTicks":240,"midi":84,"name":"C6","ticks":76800,"time":31.108568,"velocity":0.7874015748031497},{"duration":0.09999999999999787,"durationTicks":240,"midi":90,"name":"F#6","ticks":76800,"time":31.108568,"velocity":0.7874015748031497},{"duration":0.05000000000000071,"durationTicks":120,"midi":77,"name":"F5","ticks":77760,"time":31.508568,"velocity":0.7874015748031497},{"duration":0.05000000000000071,"durationTicks":120,"midi":67,"name":"G4","ticks":77760,"time":31.508568,"velocity":0.7874015748031497},{"duration":0.10000000000000497,"durationTicks":240,"midi":84,"name":"C6","ticks":78720,"time":31.908568,"velocity":0.7874015748031497},{"duration":0.10000000000000497,"durationTicks":240,"midi":90,"name":"F#6","ticks":78720,"time":31.908568,"velocity":0.7874015748031497},{"duration":0.04999999999999716,"durationTicks":120,"midi":60,"name":"C4","ticks":79200,"time":32.108568000000005,"velocity":0.7874015748031497},{"duration":0.05000000000000426,"durationTicks":120,"midi":77,"name":"F5","ticks":79680,"time":32.308568,"velocity":0.7874015748031497},{"duration":0.05000000000000426,"durationTicks":120,"midi":67,"name":"G4","ticks":79680,"time":32.308568,"velocity":0.7874015748031497},{"duration":0.10000000000000142,"durationTicks":240,"midi":84,"name":"C6","ticks":80640,"time":32.708568,"velocity":0.7874015748031497},{"duration":0.10000000000000142,"durationTicks":240,"midi":90,"name":"F#6","ticks":80640,"time":32.708568,"velocity":0.7874015748031497},{"duration":0.04999999999999716,"durationTicks":120,"midi":77,"name":"F5","ticks":81600,"time":33.108568000000005,"velocity":0.7874015748031497},{"duration":0.04999999999999716,"durationTicks":120,"midi":67,"name":"G4","ticks":81600,"time":33.108568000000005,"velocity":0.7874015748031497},{"duration":0.10000000000000142,"durationTicks":240,"midi":88,"name":"E6","ticks":82560,"time":33.508568000000004,"velocity":0.7874015748031497},{"duration":0.10000000000000142,"durationTicks":240,"midi":81,"name":"A5","ticks":82560,"time":33.508568000000004,"velocity":0.7874015748031497},{"duration":0.04999999999999716,"durationTicks":120,"midi":77,"name":"F5","ticks":83520,"time":33.908568,"velocity":0.7874015748031497},{"duration":0.04999999999999716,"durationTicks":120,"midi":67,"name":"G4","ticks":83520,"time":33.908568,"velocity":0.7874015748031497},{"duration":0.09999999999999432,"durationTicks":240,"midi":84,"name":"C6","ticks":84000,"time":34.108568000000005,"velocity":0.7874015748031497},{"duration":0.09999999999999432,"durationTicks":240,"midi":90,"name":"F#6","ticks":84000,"time":34.108568000000005,"velocity":0.7874015748031497},{"duration":0.04999999999999716,"durationTicks":120,"midi":60,"name":"C4","ticks":84960,"time":34.508568000000004,"velocity":0.7874015748031497},{"duration":0.04999999999999716,"durationTicks":120,"midi":67,"name":"G4","ticks":84960,"time":34.508568000000004,"velocity":0.7874015748031497},{"duration":0.05000000000000426,"durationTicks":120,"midi":77,"name":"F5","ticks":85440,"time":34.708568,"velocity":0.7874015748031497},{"duration":0.05000000000000426,"durationTicks":120,"midi":67,"name":"G4","ticks":85440,"time":34.708568,"velocity":0.7874015748031497},{"duration":0.09999999999999432,"durationTicks":240,"midi":84,"name":"C6","ticks":86400,"time":35.108568000000005,"velocity":0.7874015748031497},{"duration":0.09999999999999432,"durationTicks":240,"midi":90,"name":"F#6","ticks":86400,"time":35.108568000000005,"velocity":0.7874015748031497},{"duration":0.05000000000000426,"durationTicks":120,"midi":60,"name":"C4","ticks":86880,"time":35.308568,"velocity":0.7874015748031497},{"duration":0.04999999999999716,"durationTicks":120,"midi":77,"name":"F5","ticks":87360,"time":35.508568000000004,"velocity":0.7874015748031497},{"duration":0.04999999999999716,"durationTicks":120,"midi":67,"name":"G4","ticks":87360,"time":35.508568000000004,"velocity":0.7874015748031497},{"duration":0.10000000000000142,"durationTicks":240,"midi":86,"name":"D6","ticks":87360,"time":35.508568000000004,"velocity":0.7874015748031497},{"duration":0.10000000000000142,"durationTicks":240,"midi":92,"name":"G#6","ticks":87360,"time":35.508568000000004,"velocity":0.7874015748031497},{"duration":0.04999999999999716,"durationTicks":120,"midi":77,"name":"F5","ticks":120000,"time":49.108568000000005,"velocity":0.7874015748031497},{"duration":0.04999999999999716,"durationTicks":120,"midi":67,"name":"G4","ticks":120000,"time":49.108568000000005,"velocity":0.7874015748031497},{"duration":0.05000000000000426,"durationTicks":120,"midi":77,"name":"F5","ticks":121920,"time":49.908568,"velocity":0.7874015748031497},{"duration":0.05000000000000426,"durationTicks":120,"midi":67,"name":"G4","ticks":121920,"time":49.908568,"velocity":0.7874015748031497},{"duration":0.04999999999999716,"durationTicks":120,"midi":77,"name":"F5","ticks":123840,"time":50.70856800000001,"velocity":0.7874015748031497},{"duration":0.04999999999999716,"durationTicks":120,"midi":67,"name":"G4","ticks":123840,"time":50.70856800000001,"velocity":0.7874015748031497},{"duration":0.04999999999999716,"durationTicks":120,"midi":60,"name":"C4","ticks":125280,"time":51.30856800000001,"velocity":0.7874015748031497},{"duration":0.05000000000000426,"durationTicks":120,"midi":77,"name":"F5","ticks":125760,"time":51.508568000000004,"velocity":0.7874015748031497},{"duration":0.05000000000000426,"durationTicks":120,"midi":67,"name":"G4","ticks":125760,"time":51.508568000000004,"velocity":0.7874015748031497},{"duration":0.04999999999999716,"durationTicks":120,"midi":77,"name":"F5","ticks":127680,"time":52.30856800000001,"velocity":0.7874015748031497},{"duration":0.04999999999999716,"durationTicks":120,"midi":67,"name":"G4","ticks":127680,"time":52.30856800000001,"velocity":0.7874015748031497},{"duration":0.04999999999999716,"durationTicks":120,"midi":77,"name":"F5","ticks":129600,"time":53.108568000000005,"velocity":0.7874015748031497},{"duration":0.04999999999999716,"durationTicks":120,"midi":67,"name":"G4","ticks":129600,"time":53.108568000000005,"velocity":0.7874015748031497},{"duration":0.05000000000000426,"durationTicks":120,"midi":77,"name":"F5","ticks":131520,"time":53.908568,"velocity":0.7874015748031497},{"duration":0.05000000000000426,"durationTicks":120,"midi":67,"name":"G4","ticks":131520,"time":53.908568,"velocity":0.7874015748031497},{"duration":0.05000000000000426,"durationTicks":120,"midi":60,"name":"C4","ticks":132960,"time":54.508568000000004,"velocity":0.7874015748031497},{"duration":0.04999999999999716,"durationTicks":120,"midi":77,"name":"F5","ticks":133440,"time":54.70856800000001,"velocity":0.7874015748031497},{"duration":0.04999999999999716,"durationTicks":120,"midi":67,"name":"G4","ticks":133440,"time":54.70856800000001,"velocity":0.7874015748031497},{"duration":0.05000000000000426,"durationTicks":120,"midi":77,"name":"F5","ticks":135360,"time":55.508568000000004,"velocity":0.7874015748031497},{"duration":0.05000000000000426,"durationTicks":120,"midi":67,"name":"G4","ticks":135360,"time":55.508568000000004,"velocity":0.7874015748031497},{"duration":0.04999999999999716,"durationTicks":120,"midi":77,"name":"F5","ticks":137280,"time":56.30856800000001,"velocity":0.7874015748031497},{"duration":0.04999999999999716,"durationTicks":120,"midi":67,"name":"G4","ticks":137280,"time":56.30856800000001,"velocity":0.7874015748031497},{"duration":0.04999999999999716,"durationTicks":120,"midi":77,"name":"F5","ticks":139200,"time":57.108568000000005,"velocity":0.7874015748031497},{"duration":0.04999999999999716,"durationTicks":120,"midi":67,"name":"G4","ticks":139200,"time":57.108568000000005,"velocity":0.7874015748031497},{"duration":0.04999999999999716,"durationTicks":120,"midi":60,"name":"C4","ticks":140640,"time":57.70856800000001,"velocity":0.7874015748031497},{"duration":0.05000000000000426,"durationTicks":120,"midi":77,"name":"F5","ticks":141120,"time":57.908568,"velocity":0.7874015748031497},{"duration":0.05000000000000426,"durationTicks":120,"midi":67,"name":"G4","ticks":141120,"time":57.908568,"velocity":0.7874015748031497},{"duration":0.09999999999999432,"durationTicks":240,"midi":84,"name":"C6","ticks":142080,"time":58.30856800000001,"velocity":0.7874015748031497},{"duration":0.09999999999999432,"durationTicks":240,"midi":90,"name":"F#6","ticks":142080,"time":58.30856800000001,"velocity":0.7874015748031497},{"duration":0.04999999999999716,"durationTicks":120,"midi":77,"name":"F5","ticks":143040,"time":58.70856800000001,"velocity":0.7874015748031497},{"duration":0.04999999999999716,"durationTicks":120,"midi":67,"name":"G4","ticks":143040,"time":58.70856800000001,"velocity":0.7874015748031497},{"duration":0.10000000000000142,"durationTicks":240,"midi":84,"name":"C6","ticks":144000,"time":59.108568000000005,"velocity":0.7874015748031497},{"duration":0.10000000000000142,"durationTicks":240,"midi":90,"name":"F#6","ticks":144000,"time":59.108568000000005,"velocity":0.7874015748031497},{"duration":0.05000000000000426,"durationTicks":120,"midi":77,"name":"F5","ticks":144960,"time":59.508568000000004,"velocity":0.7874015748031497},{"duration":0.05000000000000426,"durationTicks":120,"midi":67,"name":"G4","ticks":144960,"time":59.508568000000004,"velocity":0.7874015748031497},{"duration":0.10000000000000142,"durationTicks":240,"midi":51,"name":"D#3","ticks":145920,"time":59.908568,"velocity":0.7874015748031497},{"duration":0.10000000000000142,"durationTicks":240,"midi":58,"name":"A#3","ticks":145920,"time":59.908568,"velocity":0.7874015748031497},{"duration":0.10000000000000142,"durationTicks":240,"midi":84,"name":"C6","ticks":145920,"time":59.908568,"velocity":0.7874015748031497},{"duration":0.10000000000000142,"durationTicks":240,"midi":90,"name":"F#6","ticks":145920,"time":59.908568,"velocity":0.7874015748031497},{"duration":0.10000000000000142,"durationTicks":240,"midi":52,"name":"E3","ticks":146160,"time":60.008568000000004,"velocity":0.7874015748031497},{"duration":0.10000000000000142,"durationTicks":240,"midi":60,"name":"C4","ticks":146160,"time":60.008568000000004,"velocity":0.7874015748031497},{"duration":0.10000000000000142,"durationTicks":240,"midi":53,"name":"F3","ticks":146400,"time":60.108568000000005,"velocity":0.7874015748031497},{"duration":0.10000000000000142,"durationTicks":240,"midi":62,"name":"D4","ticks":146400,"time":60.108568000000005,"velocity":0.7874015748031497},{"duration":0.10000000000000142,"durationTicks":240,"midi":54,"name":"F#3","ticks":146640,"time":60.20856800000001,"velocity":0.7874015748031497},{"duration":0.10000000000000142,"durationTicks":240,"midi":64,"name":"E4","ticks":146640,"time":60.20856800000001,"velocity":0.7874015748031497},{"duration":0.04999999999999716,"durationTicks":120,"midi":77,"name":"F5","ticks":146880,"time":60.30856800000001,"velocity":0.7874015748031497},{"duration":0.04999999999999716,"durationTicks":120,"midi":67,"name":"G4","ticks":146880,"time":60.30856800000001,"velocity":0.7874015748031497},{"duration":0.09999999999999432,"durationTicks":240,"midi":55,"name":"G3","ticks":146880,"time":60.30856800000001,"velocity":0.7874015748031497},{"duration":0.09999999999999432,"durationTicks":240,"midi":66,"name":"F#4","ticks":146880,"time":60.30856800000001,"velocity":0.7874015748031497},{"duration":0.09999999999999432,"durationTicks":240,"midi":84,"name":"C6","ticks":146880,"time":60.30856800000001,"velocity":0.7874015748031497},{"duration":0.04999999999999716,"durationTicks":120,"midi":90,"name":"F#6","ticks":146880,"time":60.30856800000001,"velocity":0.7874015748031497},{"duration":0.10000000000000142,"durationTicks":240,"midi":56,"name":"G#3","ticks":147120,"time":60.408568,"velocity":0.7874015748031497},{"duration":0.10000000000000142,"durationTicks":240,"midi":68,"name":"G#4","ticks":147120,"time":60.408568,"velocity":0.7874015748031497},{"duration":0.10000000000000142,"durationTicks":240,"midi":57,"name":"A3","ticks":147360,"time":60.508568000000004,"velocity":0.7874015748031497},{"duration":0.10000000000000142,"durationTicks":240,"midi":70,"name":"A#4","ticks":147360,"time":60.508568000000004,"velocity":0.7874015748031497},{"duration":0.10000000000000142,"durationTicks":240,"midi":58,"name":"A#3","ticks":147600,"time":60.608568000000005,"velocity":0.7874015748031497},{"duration":0.10000000000000142,"durationTicks":240,"midi":72,"name":"C5","ticks":147600,"time":60.608568000000005,"velocity":0.7874015748031497},{"duration":0.10000000000000142,"durationTicks":240,"midi":59,"name":"B3","ticks":147840,"time":60.70856800000001,"velocity":0.7874015748031497},{"duration":0.10000000000000142,"durationTicks":240,"midi":74,"name":"D5","ticks":147840,"time":60.70856800000001,"velocity":0.7874015748031497},{"duration":0.10000000000000142,"durationTicks":240,"midi":84,"name":"C6","ticks":147840,"time":60.70856800000001,"velocity":0.7874015748031497},{"duration":0.04999999999999716,"durationTicks":120,"midi":90,"name":"F#6","ticks":147840,"time":60.70856800000001,"velocity":0.7874015748031497},{"duration":0.09999999999999432,"durationTicks":240,"midi":60,"name":"C4","ticks":148080,"time":60.80856800000001,"velocity":0.7874015748031497},{"duration":0.09999999999999432,"durationTicks":240,"midi":76,"name":"E5","ticks":148080,"time":60.80856800000001,"velocity":0.7874015748031497},{"duration":0.05000000000000426,"durationTicks":120,"midi":60,"name":"C4","ticks":148320,"time":60.908568,"velocity":0.7874015748031497},{"duration":0.10000000000000142,"durationTicks":240,"midi":61,"name":"C#4","ticks":148320,"time":60.908568,"velocity":0.7874015748031497},{"duration":0.10000000000000142,"durationTicks":240,"midi":78,"name":"F#5","ticks":148320,"time":60.908568,"velocity":0.7874015748031497},{"duration":0.10000000000000142,"durationTicks":240,"midi":62,"name":"D4","ticks":148560,"time":61.008568000000004,"velocity":0.7874015748031497},{"duration":0.10000000000000142,"durationTicks":240,"midi":80,"name":"G#5","ticks":148560,"time":61.008568000000004,"velocity":0.7874015748031497},{"duration":0.04999999999999716,"durationTicks":120,"midi":77,"name":"F5","ticks":148800,"time":61.108568000000005,"velocity":0.7874015748031497},{"duration":0.04999999999999716,"durationTicks":120,"midi":67,"name":"G4","ticks":148800,"time":61.108568000000005,"velocity":0.7874015748031497},{"duration":0.10000000000000142,"durationTicks":240,"midi":63,"name":"D#4","ticks":148800,"time":61.108568000000005,"velocity":0.7874015748031497},{"duration":0.10000000000000142,"durationTicks":240,"midi":82,"name":"A#5","ticks":148800,"time":61.108568000000005,"velocity":0.7874015748031497},{"duration":0.10000000000000142,"durationTicks":240,"midi":84,"name":"C6","ticks":148800,"time":61.108568000000005,"velocity":0.7874015748031497},{"duration":0.04999999999999716,"durationTicks":120,"midi":90,"name":"F#6","ticks":148800,"time":61.108568000000005,"velocity":0.7874015748031497},{"duration":0.10000000000000142,"durationTicks":240,"midi":64,"name":"E4","ticks":149040,"time":61.20856800000001,"velocity":0.7874015748031497},{"duration":0.10000000000000142,"durationTicks":240,"midi":84,"name":"C6","ticks":149040,"time":61.20856800000001,"velocity":0.7874015748031497},{"duration":0.09999999999999432,"durationTicks":240,"midi":65,"name":"F4","ticks":149280,"time":61.30856800000001,"velocity":0.7874015748031497},{"duration":0.09999999999999432,"durationTicks":240,"midi":86,"name":"D6","ticks":149280,"time":61.30856800000001,"velocity":0.7874015748031497},{"duration":0.10000000000000142,"durationTicks":240,"midi":66,"name":"F#4","ticks":149520,"time":61.408568,"velocity":0.7874015748031497},{"duration":0.10000000000000142,"durationTicks":240,"midi":88,"name":"E6","ticks":149520,"time":61.408568,"velocity":0.7874015748031497},{"duration":0.10000000000000142,"durationTicks":240,"midi":84,"name":"C6","ticks":149760,"time":61.508568000000004,"velocity":0.7874015748031497},{"duration":0.10000000000000142,"durationTicks":240,"midi":90,"name":"F#6","ticks":149760,"time":61.508568000000004,"velocity":0.7874015748031497},{"duration":0.05000000000000426,"durationTicks":120,"midi":77,"name":"F5","ticks":150720,"time":61.908568,"velocity":0.7874015748031497},{"duration":0.05000000000000426,"durationTicks":120,"midi":67,"name":"G4","ticks":150720,"time":61.908568,"velocity":0.7874015748031497},{"duration":0.04999999999999716,"durationTicks":120,"midi":77,"name":"F5","ticks":152640,"time":62.70856800000001,"velocity":0.7874015748031497},{"duration":0.04999999999999716,"durationTicks":120,"midi":67,"name":"G4","ticks":152640,"time":62.70856800000001,"velocity":0.7874015748031497},{"duration":0.05000000000000426,"durationTicks":120,"midi":77,"name":"F5","ticks":154560,"time":63.508568000000004,"velocity":0.7874015748031497},{"duration":0.05000000000000426,"durationTicks":120,"midi":67,"name":"G4","ticks":154560,"time":63.508568000000004,"velocity":0.7874015748031497},{"duration":0.04999999999999716,"durationTicks":120,"midi":60,"name":"C4","ticks":156000,"time":64.108568,"velocity":0.7874015748031497},{"duration":0.04999999999999716,"durationTicks":120,"midi":77,"name":"F5","ticks":156480,"time":64.30856800000001,"velocity":0.7874015748031497},{"duration":0.04999999999999716,"durationTicks":120,"midi":67,"name":"G4","ticks":156480,"time":64.30856800000001,"velocity":0.7874015748031497},{"duration":0.04999999999999716,"durationTicks":120,"midi":77,"name":"F5","ticks":158400,"time":65.108568,"velocity":0.7874015748031497},{"duration":0.04999999999999716,"durationTicks":120,"midi":67,"name":"G4","ticks":158400,"time":65.108568,"velocity":0.7874015748031497},{"duration":0.04999999999999716,"durationTicks":120,"midi":77,"name":"F5","ticks":160320,"time":65.908568,"velocity":0.7874015748031497},{"duration":0.04999999999999716,"durationTicks":120,"midi":67,"name":"G4","ticks":160320,"time":65.908568,"velocity":0.7874015748031497},{"duration":0.04999999999999716,"durationTicks":120,"midi":77,"name":"F5","ticks":162240,"time":66.708568,"velocity":0.7874015748031497},{"duration":0.04999999999999716,"durationTicks":120,"midi":67,"name":"G4","ticks":162240,"time":66.708568,"velocity":0.7874015748031497},{"duration":0.04999999999999716,"durationTicks":120,"midi":60,"name":"C4","ticks":163680,"time":67.30856800000001,"velocity":0.7874015748031497},{"duration":0.05000000000001137,"durationTicks":120,"midi":77,"name":"F5","ticks":164160,"time":67.508568,"velocity":0.7874015748031497},{"duration":0.05000000000001137,"durationTicks":120,"midi":67,"name":"G4","ticks":164160,"time":67.508568,"velocity":0.7874015748031497},{"duration":0.04999999999999716,"durationTicks":120,"midi":77,"name":"F5","ticks":166080,"time":68.30856800000001,"velocity":0.7874015748031497},{"duration":0.04999999999999716,"durationTicks":120,"midi":67,"name":"G4","ticks":166080,"time":68.30856800000001,"velocity":0.7874015748031497},{"duration":0.04999999999999716,"durationTicks":120,"midi":77,"name":"F5","ticks":168000,"time":69.108568,"velocity":0.7874015748031497},{"duration":0.04999999999999716,"durationTicks":120,"midi":67,"name":"G4","ticks":168000,"time":69.108568,"velocity":0.7874015748031497},{"duration":0.04999999999999716,"durationTicks":120,"midi":77,"name":"F5","ticks":169920,"time":69.908568,"velocity":0.7874015748031497},{"duration":0.04999999999999716,"durationTicks":120,"midi":67,"name":"G4","ticks":169920,"time":69.908568,"velocity":0.7874015748031497},{"duration":0.04999999999999716,"durationTicks":120,"midi":60,"name":"C4","ticks":171360,"time":70.50856800000001,"velocity":0.7874015748031497},{"duration":0.05000000000001137,"durationTicks":120,"midi":77,"name":"F5","ticks":171840,"time":70.708568,"velocity":0.7874015748031497},{"duration":0.05000000000001137,"durationTicks":120,"midi":67,"name":"G4","ticks":171840,"time":70.708568,"velocity":0.7874015748031497},{"duration":0.09999999999999432,"durationTicks":240,"midi":84,"name":"C6","ticks":172800,"time":71.108568,"velocity":0.7874015748031497},{"duration":0.09999999999999432,"durationTicks":240,"midi":90,"name":"F#6","ticks":172800,"time":71.108568,"velocity":0.7874015748031497},{"duration":0.04999999999999716,"durationTicks":120,"midi":77,"name":"F5","ticks":173760,"time":71.50856800000001,"velocity":0.7874015748031497},{"duration":0.04999999999999716,"durationTicks":120,"midi":67,"name":"G4","ticks":173760,"time":71.50856800000001,"velocity":0.7874015748031497},{"duration":0.10000000000000853,"durationTicks":240,"midi":84,"name":"C6","ticks":174720,"time":71.908568,"velocity":0.7874015748031497},{"duration":0.10000000000000853,"durationTicks":240,"midi":90,"name":"F#6","ticks":174720,"time":71.908568,"velocity":0.7874015748031497},{"duration":0.04999999999999716,"durationTicks":120,"midi":77,"name":"F5","ticks":175680,"time":72.30856800000001,"velocity":0.7874015748031497},{"duration":0.04999999999999716,"durationTicks":120,"midi":67,"name":"G4","ticks":175680,"time":72.30856800000001,"velocity":0.7874015748031497},{"duration":0.10000000000000853,"durationTicks":240,"midi":84,"name":"C6","ticks":176640,"time":72.708568,"velocity":0.7874015748031497},{"duration":0.10000000000000853,"durationTicks":240,"midi":90,"name":"F#6","ticks":176640,"time":72.708568,"velocity":0.7874015748031497},{"duration":0.04999999999999716,"durationTicks":120,"midi":77,"name":"F5","ticks":177600,"time":73.108568,"velocity":0.7874015748031497},{"duration":0.04999999999999716,"durationTicks":120,"midi":67,"name":"G4","ticks":177600,"time":73.108568,"velocity":0.7874015748031497},{"duration":0.09999999999999432,"durationTicks":240,"midi":84,"name":"C6","ticks":177600,"time":73.108568,"velocity":0.7874015748031497},{"duration":0.09999999999999432,"durationTicks":240,"midi":90,"name":"F#6","ticks":177600,"time":73.108568,"velocity":0.7874015748031497},{"duration":0.09999999999999432,"durationTicks":240,"midi":80,"name":"G#5","ticks":178560,"time":73.50856800000001,"velocity":0.7874015748031497},{"duration":0.09999999999999432,"durationTicks":240,"midi":87,"name":"D#6","ticks":178560,"time":73.50856800000001,"velocity":0.7874015748031497},{"duration":0.05000000000001137,"durationTicks":120,"midi":60,"name":"C4","ticks":179040,"time":73.708568,"velocity":0.7874015748031497},{"duration":0.09999999999999432,"durationTicks":240,"midi":80,"name":"G#5","ticks":179280,"time":73.80856800000001,"velocity":0.7874015748031497},{"duration":0.09999999999999432,"durationTicks":240,"midi":87,"name":"D#6","ticks":179280,"time":73.80856800000001,"velocity":0.7874015748031497},{"duration":0.04999999999999716,"durationTicks":120,"midi":77,"name":"F5","ticks":179520,"time":73.908568,"velocity":0.7874015748031497},{"duration":0.04999999999999716,"durationTicks":120,"midi":67,"name":"G4","ticks":179520,"time":73.908568,"velocity":0.7874015748031497},{"duration":0.09999999999999432,"durationTicks":240,"midi":71,"name":"B4","ticks":180000,"time":74.108568,"velocity":0.7874015748031497},{"duration":0.09999999999999432,"durationTicks":240,"midi":80,"name":"G#5","ticks":180000,"time":74.108568,"velocity":0.7874015748031497},{"duration":0.09999999999999432,"durationTicks":240,"midi":84,"name":"C6","ticks":180480,"time":74.30856800000001,"velocity":0.7874015748031497},{"duration":0.09999999999999432,"durationTicks":240,"midi":90,"name":"F#6","ticks":180480,"time":74.30856800000001,"velocity":0.7874015748031497},{"duration":0.05000000000001137,"durationTicks":120,"midi":77,"name":"F5","ticks":181440,"time":74.708568,"velocity":0.7874015748031497},{"duration":0.05000000000001137,"durationTicks":120,"midi":67,"name":"G4","ticks":181440,"time":74.708568,"velocity":0.7874015748031497},{"duration":0.04999999999999716,"durationTicks":120,"midi":77,"name":"F5","ticks":183360,"time":75.50856800000001,"velocity":0.7874015748031497},{"duration":0.04999999999999716,"durationTicks":120,"midi":67,"name":"G4","ticks":183360,"time":75.50856800000001,"velocity":0.7874015748031497},{"duration":0.04999999999999716,"durationTicks":120,"midi":77,"name":"F5","ticks":185280,"time":76.30856800000001,"velocity":0.7874015748031497},{"duration":0.04999999999999716,"durationTicks":120,"midi":67,"name":"G4","ticks":185280,"time":76.30856800000001,"velocity":0.7874015748031497},{"duration":0.04999999999999716,"durationTicks":120,"midi":60,"name":"C4","ticks":186720,"time":76.908568,"velocity":0.7874015748031497},{"duration":0.04999999999999716,"durationTicks":120,"midi":77,"name":"F5","ticks":187200,"time":77.108568,"velocity":0.7874015748031497},{"duration":0.04999999999999716,"durationTicks":120,"midi":67,"name":"G4","ticks":187200,"time":77.108568,"velocity":0.7874015748031497},{"duration":0.04999999999999716,"durationTicks":120,"midi":77,"name":"F5","ticks":189120,"time":77.908568,"velocity":0.7874015748031497},{"duration":0.04999999999999716,"durationTicks":120,"midi":67,"name":"G4","ticks":189120,"time":77.908568,"velocity":0.7874015748031497},{"duration":0.05000000000001137,"durationTicks":120,"midi":77,"name":"F5","ticks":191040,"time":78.708568,"velocity":0.7874015748031497},{"duration":0.05000000000001137,"durationTicks":120,"midi":67,"name":"G4","ticks":191040,"time":78.708568,"velocity":0.7874015748031497},{"duration":0.04999999999999716,"durationTicks":120,"midi":77,"name":"F5","ticks":192960,"time":79.50856800000001,"velocity":0.7874015748031497},{"duration":0.04999999999999716,"durationTicks":120,"midi":67,"name":"G4","ticks":192960,"time":79.50856800000001,"velocity":0.7874015748031497},{"duration":0.04999999999999716,"durationTicks":120,"midi":60,"name":"C4","ticks":194400,"time":80.108568,"velocity":0.7874015748031497},{"duration":0.04999999999999716,"durationTicks":120,"midi":77,"name":"F5","ticks":194880,"time":80.30856800000001,"velocity":0.7874015748031497},{"duration":0.04999999999999716,"durationTicks":120,"midi":67,"name":"G4","ticks":194880,"time":80.30856800000001,"velocity":0.7874015748031497},{"duration":0.04999999999999716,"durationTicks":120,"midi":77,"name":"F5","ticks":196800,"time":81.108568,"velocity":0.7874015748031497},{"duration":0.04999999999999716,"durationTicks":120,"midi":67,"name":"G4","ticks":196800,"time":81.108568,"velocity":0.7874015748031497},{"duration":0.05000000000001137,"durationTicks":120,"midi":77,"name":"F5","ticks":198720,"time":81.908568,"velocity":0.7874015748031497},{"duration":0.05000000000001137,"durationTicks":120,"midi":67,"name":"G4","ticks":198720,"time":81.908568,"velocity":0.7874015748031497},{"duration":0.04999999999999716,"durationTicks":120,"midi":77,"name":"F5","ticks":200640,"time":82.70856800000001,"velocity":0.7874015748031497},{"duration":0.04999999999999716,"durationTicks":120,"midi":67,"name":"G4","ticks":200640,"time":82.70856800000001,"velocity":0.7874015748031497},{"duration":0.04999999999999716,"durationTicks":120,"midi":60,"name":"C4","ticks":202080,"time":83.30856800000001,"velocity":0.7874015748031497},{"duration":0.04999999999999716,"durationTicks":120,"midi":77,"name":"F5","ticks":202560,"time":83.50856800000001,"velocity":0.7874015748031497},{"duration":0.04999999999999716,"durationTicks":120,"midi":67,"name":"G4","ticks":202560,"time":83.50856800000001,"velocity":0.7874015748031497},{"duration":0.10000000000000853,"durationTicks":240,"midi":84,"name":"C6","ticks":203520,"time":83.908568,"velocity":0.7874015748031497},{"duration":0.10000000000000853,"durationTicks":240,"midi":90,"name":"F#6","ticks":203520,"time":83.908568,"velocity":0.7874015748031497},{"duration":0.04999999999999716,"durationTicks":120,"midi":77,"name":"F5","ticks":204480,"time":84.30856800000001,"velocity":0.7874015748031497},{"duration":0.04999999999999716,"durationTicks":120,"midi":67,"name":"G4","ticks":204480,"time":84.30856800000001,"velocity":0.7874015748031497},{"duration":0.09999999999999432,"durationTicks":240,"midi":84,"name":"C6","ticks":205440,"time":84.70856800000001,"velocity":0.7874015748031497},{"duration":0.09999999999999432,"durationTicks":240,"midi":90,"name":"F#6","ticks":205440,"time":84.70856800000001,"velocity":0.7874015748031497},{"duration":0.04999999999999716,"durationTicks":120,"midi":77,"name":"F5","ticks":206400,"time":85.108568,"velocity":0.7874015748031497},{"duration":0.04999999999999716,"durationTicks":120,"midi":67,"name":"G4","ticks":206400,"time":85.108568,"velocity":0.7874015748031497},{"duration":0.09999999999999432,"durationTicks":240,"midi":84,"name":"C6","ticks":206880,"time":85.30856800000001,"velocity":0.7874015748031497},{"duration":0.04999999999999716,"durationTicks":120,"midi":50,"name":"D3","ticks":207360,"time":85.50856800000001,"velocity":0.7874015748031497},{"duration":0.04999999999999716,"durationTicks":120,"midi":55,"name":"G3","ticks":207360,"time":85.50856800000001,"velocity":0.7874015748031497},{"duration":0.04999999999999716,"durationTicks":120,"midi":51,"name":"D#3","ticks":207480,"time":85.55856800000001,"velocity":0.7874015748031497},{"duration":0.04999999999999716,"durationTicks":120,"midi":56,"name":"G#3","ticks":207480,"time":85.55856800000001,"velocity":0.7874015748031497},{"duration":0.04999999999999716,"durationTicks":120,"midi":52,"name":"E3","ticks":207600,"time":85.608568,"velocity":0.7874015748031497},{"duration":0.04999999999999716,"durationTicks":120,"midi":57,"name":"A3","ticks":207600,"time":85.608568,"velocity":0.7874015748031497},{"duration":0.05000000000001137,"durationTicks":120,"midi":53,"name":"F3","ticks":207720,"time":85.658568,"velocity":0.7874015748031497},{"duration":0.05000000000001137,"durationTicks":120,"midi":58,"name":"A#3","ticks":207720,"time":85.658568,"velocity":0.7874015748031497},{"duration":0.04999999999999716,"durationTicks":120,"midi":54,"name":"F#3","ticks":207840,"time":85.70856800000001,"velocity":0.7874015748031497},{"duration":0.04999999999999716,"durationTicks":120,"midi":59,"name":"B3","ticks":207840,"time":85.70856800000001,"velocity":0.7874015748031497},{"duration":0.04999999999999716,"durationTicks":120,"midi":55,"name":"G3","ticks":207960,"time":85.75856800000001,"velocity":0.7874015748031497},{"duration":0.04999999999999716,"durationTicks":120,"midi":60,"name":"C4","ticks":207960,"time":85.75856800000001,"velocity":0.7874015748031497},{"duration":0.04999999999999716,"durationTicks":120,"midi":56,"name":"G#3","ticks":208080,"time":85.80856800000001,"velocity":0.7874015748031497},{"duration":0.04999999999999716,"durationTicks":120,"midi":61,"name":"C#4","ticks":208080,"time":85.80856800000001,"velocity":0.7874015748031497},{"duration":0.04999999999999716,"durationTicks":120,"midi":57,"name":"A3","ticks":208200,"time":85.858568,"velocity":0.7874015748031497},{"duration":0.04999999999999716,"durationTicks":120,"midi":62,"name":"D4","ticks":208200,"time":85.858568,"velocity":0.7874015748031497},{"duration":0.05000000000001137,"durationTicks":120,"midi":58,"name":"A#3","ticks":208320,"time":85.908568,"velocity":0.7874015748031497},{"duration":0.05000000000001137,"durationTicks":120,"midi":63,"name":"D#4","ticks":208320,"time":85.908568,"velocity":0.7874015748031497},{"duration":0.04999999999999716,"durationTicks":120,"midi":59,"name":"B3","ticks":208440,"time":85.95856800000001,"velocity":0.7874015748031497},{"duration":0.04999999999999716,"durationTicks":120,"midi":64,"name":"E4","ticks":208440,"time":85.95856800000001,"velocity":0.7874015748031497},{"duration":0.04999999999999716,"durationTicks":120,"midi":60,"name":"C4","ticks":208560,"time":86.00856800000001,"velocity":0.7874015748031497},{"duration":0.04999999999999716,"durationTicks":120,"midi":65,"name":"F4","ticks":208560,"time":86.00856800000001,"velocity":0.7874015748031497},{"duration":0.04999999999999716,"durationTicks":120,"midi":61,"name":"C#4","ticks":208680,"time":86.05856800000001,"velocity":0.7874015748031497},{"duration":0.04999999999999716,"durationTicks":120,"midi":66,"name":"F#4","ticks":208680,"time":86.05856800000001,"velocity":0.7874015748031497},{"duration":0.04999999999999716,"durationTicks":120,"midi":62,"name":"D4","ticks":208800,"time":86.108568,"velocity":0.7874015748031497},{"duration":0.04999999999999716,"durationTicks":120,"midi":67,"name":"G4","ticks":208800,"time":86.108568,"velocity":0.7874015748031497},{"duration":0.05000000000001137,"durationTicks":120,"midi":63,"name":"D#4","ticks":208920,"time":86.158568,"velocity":0.7874015748031497},{"duration":0.05000000000001137,"durationTicks":120,"midi":68,"name":"G#4","ticks":208920,"time":86.158568,"velocity":0.7874015748031497},{"duration":0.04999999999999716,"durationTicks":120,"midi":64,"name":"E4","ticks":209040,"time":86.20856800000001,"velocity":0.7874015748031497},{"duration":0.04999999999999716,"durationTicks":120,"midi":69,"name":"A4","ticks":209040,"time":86.20856800000001,"velocity":0.7874015748031497},{"duration":0.04999999999999716,"durationTicks":120,"midi":65,"name":"F4","ticks":209160,"time":86.25856800000001,"velocity":0.7874015748031497},{"duration":0.04999999999999716,"durationTicks":120,"midi":70,"name":"A#4","ticks":209160,"time":86.25856800000001,"velocity":0.7874015748031497},{"duration":0.04999999999999716,"durationTicks":120,"midi":66,"name":"F#4","ticks":209280,"time":86.30856800000001,"velocity":0.7874015748031497},{"duration":0.04999999999999716,"durationTicks":120,"midi":71,"name":"B4","ticks":209280,"time":86.30856800000001,"velocity":0.7874015748031497},{"duration":0.04999999999999716,"durationTicks":120,"midi":67,"name":"G4","ticks":209400,"time":86.358568,"velocity":0.7874015748031497},{"duration":0.04999999999999716,"durationTicks":120,"midi":72,"name":"C5","ticks":209400,"time":86.358568,"velocity":0.7874015748031497},{"duration":0.05000000000001137,"durationTicks":120,"midi":68,"name":"G#4","ticks":209520,"time":86.408568,"velocity":0.7874015748031497},{"duration":0.05000000000001137,"durationTicks":120,"midi":73,"name":"C#5","ticks":209520,"time":86.408568,"velocity":0.7874015748031497},{"duration":0.04999999999999716,"durationTicks":120,"midi":69,"name":"A4","ticks":209640,"time":86.45856800000001,"velocity":0.7874015748031497},{"duration":0.04999999999999716,"durationTicks":120,"midi":74,"name":"D5","ticks":209640,"time":86.45856800000001,"velocity":0.7874015748031497},{"duration":0.04999999999999716,"durationTicks":120,"midi":70,"name":"A#4","ticks":209760,"time":86.50856800000001,"velocity":0.7874015748031497},{"duration":0.04999999999999716,"durationTicks":120,"midi":75,"name":"D#5","ticks":209760,"time":86.50856800000001,"velocity":0.7874015748031497},{"duration":0.04999999999999716,"durationTicks":120,"midi":71,"name":"B4","ticks":209880,"time":86.55856800000001,"velocity":0.7874015748031497},{"duration":0.04999999999999716,"durationTicks":120,"midi":76,"name":"E5","ticks":209880,"time":86.55856800000001,"velocity":0.7874015748031497},{"duration":0.04999999999999716,"durationTicks":120,"midi":72,"name":"C5","ticks":210000,"time":86.608568,"velocity":0.7874015748031497},{"duration":0.04999999999999716,"durationTicks":120,"midi":77,"name":"F5","ticks":210000,"time":86.608568,"velocity":0.7874015748031497},{"duration":0.05000000000001137,"durationTicks":120,"midi":73,"name":"C#5","ticks":210120,"time":86.658568,"velocity":0.7874015748031497},{"duration":0.05000000000001137,"durationTicks":120,"midi":78,"name":"F#5","ticks":210120,"time":86.658568,"velocity":0.7874015748031497},{"duration":0.04999999999999716,"durationTicks":120,"midi":74,"name":"D5","ticks":210240,"time":86.70856800000001,"velocity":0.7874015748031497},{"duration":0.04999999999999716,"durationTicks":120,"midi":79,"name":"G5","ticks":210240,"time":86.70856800000001,"velocity":0.7874015748031497},{"duration":0.04999999999999716,"durationTicks":120,"midi":75,"name":"D#5","ticks":210360,"time":86.75856800000001,"velocity":0.7874015748031497},{"duration":0.04999999999999716,"durationTicks":120,"midi":80,"name":"G#5","ticks":210360,"time":86.75856800000001,"velocity":0.7874015748031497},{"duration":0.04999999999999716,"durationTicks":120,"midi":76,"name":"E5","ticks":210480,"time":86.80856800000001,"velocity":0.7874015748031497},{"duration":0.04999999999999716,"durationTicks":120,"midi":81,"name":"A5","ticks":210480,"time":86.80856800000001,"velocity":0.7874015748031497},{"duration":0.04999999999999716,"durationTicks":120,"midi":77,"name":"F5","ticks":210600,"time":86.858568,"velocity":0.7874015748031497},{"duration":0.04999999999999716,"durationTicks":120,"midi":82,"name":"A#5","ticks":210600,"time":86.858568,"velocity":0.7874015748031497},{"duration":0.05000000000001137,"durationTicks":120,"midi":78,"name":"F#5","ticks":210720,"time":86.908568,"velocity":0.7874015748031497},{"duration":0.05000000000001137,"durationTicks":120,"midi":83,"name":"B5","ticks":210720,"time":86.908568,"velocity":0.7874015748031497},{"duration":0.04999999999999716,"durationTicks":120,"midi":79,"name":"G5","ticks":210840,"time":86.95856800000001,"velocity":0.7874015748031497},{"duration":0.04999999999999716,"durationTicks":120,"midi":84,"name":"C6","ticks":210840,"time":86.95856800000001,"velocity":0.7874015748031497},{"duration":0.04999999999999716,"durationTicks":120,"midi":80,"name":"G#5","ticks":210960,"time":87.00856800000001,"velocity":0.7874015748031497},{"duration":0.04999999999999716,"durationTicks":120,"midi":85,"name":"C#6","ticks":210960,"time":87.00856800000001,"velocity":0.7874015748031497},{"duration":0.04999999999999716,"durationTicks":120,"midi":81,"name":"A5","ticks":211080,"time":87.05856800000001,"velocity":0.7874015748031497},{"duration":0.04999999999999716,"durationTicks":120,"midi":86,"name":"D6","ticks":211080,"time":87.05856800000001,"velocity":0.7874015748031497},{"duration":0.04999999999999716,"durationTicks":120,"midi":77,"name":"F5","ticks":212160,"time":87.50856800000001,"velocity":0.7874015748031497},{"duration":0.04999999999999716,"durationTicks":120,"midi":67,"name":"G4","ticks":212160,"time":87.50856800000001,"velocity":0.7874015748031497},{"duration":0.04999999999999716,"durationTicks":120,"midi":77,"name":"F5","ticks":214080,"time":88.30856800000001,"velocity":0.7874015748031497},{"duration":0.04999999999999716,"durationTicks":120,"midi":67,"name":"G4","ticks":214080,"time":88.30856800000001,"velocity":0.7874015748031497},{"duration":0.04999999999999716,"durationTicks":120,"midi":77,"name":"F5","ticks":216000,"time":89.108568,"velocity":0.7874015748031497},{"duration":0.04999999999999716,"durationTicks":120,"midi":67,"name":"G4","ticks":216000,"time":89.108568,"velocity":0.7874015748031497},{"duration":0.04999999999999716,"durationTicks":120,"midi":60,"name":"C4","ticks":217440,"time":89.70856800000001,"velocity":0.7874015748031497},{"duration":0.05000000000001137,"durationTicks":120,"midi":77,"name":"F5","ticks":217920,"time":89.908568,"velocity":0.7874015748031497},{"duration":0.05000000000001137,"durationTicks":120,"midi":67,"name":"G4","ticks":217920,"time":89.908568,"velocity":0.7874015748031497},{"duration":0.04999999999999716,"durationTicks":120,"midi":77,"name":"F5","ticks":219840,"time":90.70856800000001,"velocity":0.7874015748031497},{"duration":0.04999999999999716,"durationTicks":120,"midi":67,"name":"G4","ticks":219840,"time":90.70856800000001,"velocity":0.7874015748031497},{"duration":0.04999999999999716,"durationTicks":120,"midi":77,"name":"F5","ticks":221760,"time":91.50856800000001,"velocity":0.7874015748031497},{"duration":0.04999999999999716,"durationTicks":120,"midi":67,"name":"G4","ticks":221760,"time":91.50856800000001,"velocity":0.7874015748031497},{"duration":0.04999999999999716,"durationTicks":120,"midi":77,"name":"F5","ticks":223680,"time":92.30856800000001,"velocity":0.7874015748031497},{"duration":0.04999999999999716,"durationTicks":120,"midi":67,"name":"G4","ticks":223680,"time":92.30856800000001,"velocity":0.7874015748031497},{"duration":0.04999999999999716,"durationTicks":120,"midi":77,"name":"F5","ticks":224640,"time":92.70856800000001,"velocity":0.7874015748031497},{"duration":0.04999999999999716,"durationTicks":120,"midi":67,"name":"G4","ticks":224640,"time":92.70856800000001,"velocity":0.7874015748031497},{"duration":0.05000000000001137,"durationTicks":120,"midi":60,"name":"C4","ticks":225120,"time":92.908568,"velocity":0.7874015748031497},{"duration":0.04999999999999716,"durationTicks":120,"midi":77,"name":"F5","ticks":225600,"time":93.108568,"velocity":0.7874015748031497},{"duration":0.04999999999999716,"durationTicks":120,"midi":67,"name":"G4","ticks":225600,"time":93.108568,"velocity":0.7874015748031497},{"duration":0.05000000000001137,"durationTicks":120,"midi":77,"name":"F5","ticks":227520,"time":93.908568,"velocity":0.7874015748031497},{"duration":0.05000000000001137,"durationTicks":120,"midi":67,"name":"G4","ticks":227520,"time":93.908568,"velocity":0.7874015748031497},{"duration":0.04999999999999716,"durationTicks":120,"midi":77,"name":"F5","ticks":229440,"time":94.70856800000001,"velocity":0.7874015748031497},{"duration":0.04999999999999716,"durationTicks":120,"midi":67,"name":"G4","ticks":229440,"time":94.70856800000001,"velocity":0.7874015748031497},{"duration":0.04999999999999716,"durationTicks":120,"midi":77,"name":"F5","ticks":231360,"time":95.50856800000001,"velocity":0.7874015748031497},{"duration":0.04999999999999716,"durationTicks":120,"midi":67,"name":"G4","ticks":231360,"time":95.50856800000001,"velocity":0.7874015748031497},{"duration":0.04999999999999716,"durationTicks":120,"midi":60,"name":"C4","ticks":232800,"time":96.108568,"velocity":0.7874015748031497},{"duration":0.04999999999999716,"durationTicks":120,"midi":77,"name":"F5","ticks":233280,"time":96.30856800000001,"velocity":0.7874015748031497},{"duration":0.04999999999999716,"durationTicks":120,"midi":67,"name":"G4","ticks":233280,"time":96.30856800000001,"velocity":0.7874015748031497},{"duration":0.04999999999999716,"durationTicks":120,"midi":77,"name":"F5","ticks":235200,"time":97.108568,"velocity":0.7874015748031497},{"duration":0.04999999999999716,"durationTicks":120,"midi":67,"name":"G4","ticks":235200,"time":97.108568,"velocity":0.7874015748031497},{"duration":0.05000000000001137,"durationTicks":120,"midi":77,"name":"F5","ticks":237120,"time":97.908568,"velocity":0.7874015748031497},{"duration":0.05000000000001137,"durationTicks":120,"midi":67,"name":"G4","ticks":237120,"time":97.908568,"velocity":0.7874015748031497},{"duration":0.04999999999999716,"durationTicks":120,"midi":77,"name":"F5","ticks":239040,"time":98.70856800000001,"velocity":0.7874015748031497},{"duration":0.04999999999999716,"durationTicks":120,"midi":67,"name":"G4","ticks":239040,"time":98.70856800000001,"velocity":0.7874015748031497},{"duration":0.04999999999999716,"durationTicks":120,"midi":60,"name":"C4","ticks":240480,"time":99.30856800000001,"velocity":0.7874015748031497},{"duration":0.04999999999999716,"durationTicks":120,"midi":77,"name":"F5","ticks":240960,"time":99.50856800000001,"velocity":0.7874015748031497},{"duration":0.04999999999999716,"durationTicks":120,"midi":67,"name":"G4","ticks":240960,"time":99.50856800000001,"velocity":0.7874015748031497},{"duration":0.04999999999999716,"durationTicks":120,"midi":77,"name":"F5","ticks":242880,"time":100.30856800000001,"velocity":0.7874015748031497},{"duration":0.04999999999999716,"durationTicks":120,"midi":67,"name":"G4","ticks":242880,"time":100.30856800000001,"velocity":0.7874015748031497},{"duration":0.04999999999999716,"durationTicks":120,"midi":77,"name":"F5","ticks":244800,"time":101.108568,"velocity":0.7874015748031497},{"duration":0.04999999999999716,"durationTicks":120,"midi":67,"name":"G4","ticks":244800,"time":101.108568,"velocity":0.7874015748031497},{"duration":0.05000000000001137,"durationTicks":120,"midi":77,"name":"F5","ticks":246720,"time":101.908568,"velocity":0.7874015748031497},{"duration":0.05000000000001137,"durationTicks":120,"midi":67,"name":"G4","ticks":246720,"time":101.908568,"velocity":0.7874015748031497},{"duration":0.04999999999999716,"durationTicks":120,"midi":60,"name":"C4","ticks":248160,"time":102.50856800000001,"velocity":0.7874015748031497},{"duration":0.04999999999999716,"durationTicks":120,"midi":77,"name":"F5","ticks":248640,"time":102.70856800000001,"velocity":0.7874015748031497},{"duration":0.04999999999999716,"durationTicks":120,"midi":67,"name":"G4","ticks":248640,"time":102.70856800000001,"velocity":0.7874015748031497},{"duration":0.10000000000000853,"durationTicks":240,"midi":90,"name":"F#6","ticks":249600,"time":103.108568,"velocity":0.7874015748031497},{"duration":0.10000000000000853,"durationTicks":240,"midi":84,"name":"C6","ticks":249600,"time":103.108568,"velocity":0.7874015748031497},{"duration":0.04999999999999716,"durationTicks":120,"midi":67,"name":"G4","ticks":250560,"time":103.50856800000001,"velocity":0.7874015748031497},{"duration":0.10000000000000853,"durationTicks":240,"midi":88,"name":"E6","ticks":251520,"time":103.908568,"velocity":0.7874015748031497},{"duration":0.10000000000000853,"durationTicks":240,"midi":81,"name":"A5","ticks":251520,"time":103.908568,"velocity":0.7874015748031497},{"duration":0.04999999999999716,"durationTicks":120,"midi":67,"name":"G4","ticks":252480,"time":104.30856800000001,"velocity":0.7874015748031497},{"duration":0.09999999999999432,"durationTicks":240,"midi":90,"name":"F#6","ticks":252960,"time":104.50856800000001,"velocity":0.7874015748031497},{"duration":0.09999999999999432,"durationTicks":240,"midi":84,"name":"C6","ticks":252960,"time":104.50856800000001,"velocity":0.7874015748031497},{"duration":0.04999999999999716,"durationTicks":120,"midi":77,"name":"F5","ticks":254400,"time":105.108568,"velocity":0.7874015748031497},{"duration":0.04999999999999716,"durationTicks":120,"midi":67,"name":"G4","ticks":254400,"time":105.108568,"velocity":0.7874015748031497},{"duration":0.09999999999999432,"durationTicks":240,"midi":90,"name":"F#6","ticks":255360,"time":105.50856800000001,"velocity":0.7874015748031497},{"duration":0.09999999999999432,"durationTicks":240,"midi":84,"name":"C6","ticks":255360,"time":105.50856800000001,"velocity":0.7874015748031497},{"duration":0.04999999999999716,"durationTicks":120,"midi":60,"name":"C4","ticks":255840,"time":105.70856800000001,"velocity":0.7874015748031497},{"duration":0.05000000000001137,"durationTicks":120,"midi":77,"name":"F5","ticks":256320,"time":105.908568,"velocity":0.7874015748031497},{"duration":0.05000000000001137,"durationTicks":120,"midi":67,"name":"G4","ticks":256320,"time":105.908568,"velocity":0.7874015748031497},{"duration":0.10000000000000853,"durationTicks":240,"midi":90,"name":"F#6","ticks":256320,"time":105.908568,"velocity":0.7874015748031497},{"duration":0.10000000000000853,"durationTicks":240,"midi":84,"name":"C6","ticks":256320,"time":105.908568,"velocity":0.7874015748031497},{"duration":0.04999999999999716,"durationTicks":120,"midi":77,"name":"F5","ticks":258240,"time":106.70856800000001,"velocity":0.7874015748031497},{"duration":0.04999999999999716,"durationTicks":120,"midi":67,"name":"G4","ticks":258240,"time":106.70856800000001,"velocity":0.7874015748031497},{"duration":0.04999999999999716,"durationTicks":120,"midi":77,"name":"F5","ticks":260160,"time":107.50856800000001,"velocity":0.7874015748031497},{"duration":0.04999999999999716,"durationTicks":120,"midi":67,"name":"G4","ticks":260160,"time":107.50856800000001,"velocity":0.7874015748031497},{"duration":0.04999999999999716,"durationTicks":120,"midi":77,"name":"F5","ticks":262080,"time":108.30856800000001,"velocity":0.7874015748031497},{"duration":0.04999999999999716,"durationTicks":120,"midi":67,"name":"G4","ticks":262080,"time":108.30856800000001,"velocity":0.7874015748031497},{"duration":0.05000000000001137,"durationTicks":120,"midi":60,"name":"C4","ticks":263520,"time":108.908568,"velocity":0.7874015748031497},{"duration":0.04999999999999716,"durationTicks":120,"midi":77,"name":"F5","ticks":264000,"time":109.108568,"velocity":0.7874015748031497},{"duration":0.04999999999999716,"durationTicks":120,"midi":67,"name":"G4","ticks":264000,"time":109.108568,"velocity":0.7874015748031497},{"duration":0.05000000000001137,"durationTicks":120,"midi":77,"name":"F5","ticks":265920,"time":109.908568,"velocity":0.7874015748031497},{"duration":0.05000000000001137,"durationTicks":120,"midi":67,"name":"G4","ticks":265920,"time":109.908568,"velocity":0.7874015748031497},{"duration":0.04999999999999716,"durationTicks":120,"midi":77,"name":"F5","ticks":267840,"time":110.70856800000001,"velocity":0.7874015748031497},{"duration":0.04999999999999716,"durationTicks":120,"midi":67,"name":"G4","ticks":267840,"time":110.70856800000001,"velocity":0.7874015748031497},{"duration":0.04999999999999716,"durationTicks":120,"midi":77,"name":"F5","ticks":269760,"time":111.50856800000001,"velocity":0.7874015748031497},{"duration":0.04999999999999716,"durationTicks":120,"midi":67,"name":"G4","ticks":269760,"time":111.50856800000001,"velocity":0.7874015748031497},{"duration":0.04999999999999716,"durationTicks":120,"midi":60,"name":"C4","ticks":271200,"time":112.108568,"velocity":0.7874015748031497},{"duration":0.04999999999999716,"durationTicks":120,"midi":77,"name":"F5","ticks":271680,"time":112.30856800000001,"velocity":0.7874015748031497},{"duration":0.04999999999999716,"durationTicks":120,"midi":67,"name":"G4","ticks":271680,"time":112.30856800000001,"velocity":0.7874015748031497},{"duration":0.04999999999999716,"durationTicks":120,"midi":77,"name":"F5","ticks":273600,"time":113.108568,"velocity":0.7874015748031497},{"duration":0.04999999999999716,"durationTicks":120,"midi":67,"name":"G4","ticks":273600,"time":113.108568,"velocity":0.7874015748031497},{"duration":0.05000000000001137,"durationTicks":120,"midi":77,"name":"F5","ticks":275520,"time":113.908568,"velocity":0.7874015748031497},{"duration":0.05000000000001137,"durationTicks":120,"midi":67,"name":"G4","ticks":275520,"time":113.908568,"velocity":0.7874015748031497},{"duration":0.09999999999999432,"durationTicks":240,"midi":84,"name":"C6","ticks":276480,"time":114.30856800000001,"velocity":0.7874015748031497},{"duration":0.09999999999999432,"durationTicks":240,"midi":90,"name":"F#6","ticks":276480,"time":114.30856800000001,"velocity":0.7874015748031497},{"duration":0.04999999999999716,"durationTicks":120,"midi":77,"name":"F5","ticks":277440,"time":114.70856800000001,"velocity":0.7874015748031497},{"duration":0.04999999999999716,"durationTicks":120,"midi":67,"name":"G4","ticks":277440,"time":114.70856800000001,"velocity":0.7874015748031497},{"duration":0.10000000000000853,"durationTicks":240,"midi":84,"name":"C6","ticks":278400,"time":115.108568,"velocity":0.7874015748031497},{"duration":0.10000000000000853,"durationTicks":240,"midi":90,"name":"F#6","ticks":278400,"time":115.108568,"velocity":0.7874015748031497},{"duration":0.04999999999999716,"durationTicks":120,"midi":60,"name":"C4","ticks":278880,"time":115.30856800000001,"velocity":0.7874015748031497},{"duration":0.04999999999999716,"durationTicks":120,"midi":77,"name":"F5","ticks":279360,"time":115.50856800000001,"velocity":0.7874015748031497},{"duration":0.04999999999999716,"durationTicks":120,"midi":67,"name":"G4","ticks":279360,"time":115.50856800000001,"velocity":0.7874015748031497},{"duration":0.10000000000000853,"durationTicks":240,"midi":84,"name":"C6","ticks":280320,"time":115.908568,"velocity":0.7874015748031497},{"duration":0.10000000000000853,"durationTicks":240,"midi":90,"name":"F#6","ticks":280320,"time":115.908568,"velocity":0.7874015748031497},{"duration":0.04999999999999716,"durationTicks":120,"midi":77,"name":"F5","ticks":281280,"time":116.30856800000001,"velocity":0.7874015748031497},{"duration":0.04999999999999716,"durationTicks":120,"midi":67,"name":"G4","ticks":281280,"time":116.30856800000001,"velocity":0.7874015748031497},{"duration":0.09999999999999432,"durationTicks":240,"midi":88,"name":"E6","ticks":282240,"time":116.70856800000001,"velocity":0.7874015748031497},{"duration":0.09999999999999432,"durationTicks":240,"midi":81,"name":"A5","ticks":282240,"time":116.70856800000001,"velocity":0.7874015748031497},{"duration":0.04999999999999716,"durationTicks":120,"midi":77,"name":"F5","ticks":283200,"time":117.108568,"velocity":0.7874015748031497},{"duration":0.04999999999999716,"durationTicks":120,"midi":67,"name":"G4","ticks":283200,"time":117.108568,"velocity":0.7874015748031497},{"duration":0.09999999999999432,"durationTicks":240,"midi":84,"name":"C6","ticks":283680,"time":117.30856800000001,"velocity":0.7874015748031497},{"duration":0.09999999999999432,"durationTicks":240,"midi":90,"name":"F#6","ticks":283680,"time":117.30856800000001,"velocity":0.7874015748031497},{"duration":0.04999999999999716,"durationTicks":120,"midi":60,"name":"C4","ticks":284640,"time":117.70856800000001,"velocity":0.7874015748031497},{"duration":0.04999999999999716,"durationTicks":120,"midi":67,"name":"G4","ticks":284640,"time":117.70856800000001,"velocity":0.7874015748031497},{"duration":0.05000000000001137,"durationTicks":120,"midi":77,"name":"F5","ticks":285120,"time":117.908568,"velocity":0.7874015748031497},{"duration":0.05000000000001137,"durationTicks":120,"midi":67,"name":"G4","ticks":285120,"time":117.908568,"velocity":0.7874015748031497},{"duration":0.09999999999999432,"durationTicks":240,"midi":84,"name":"C6","ticks":286080,"time":118.30856800000001,"velocity":0.7874015748031497},{"duration":0.09999999999999432,"durationTicks":240,"midi":90,"name":"F#6","ticks":286080,"time":118.30856800000001,"velocity":0.7874015748031497},{"duration":0.04999999999999716,"durationTicks":120,"midi":60,"name":"C4","ticks":286560,"time":118.50856800000001,"velocity":0.7874015748031497},{"duration":0.04999999999999716,"durationTicks":120,"midi":77,"name":"F5","ticks":287040,"time":118.70856800000001,"velocity":0.7874015748031497},{"duration":0.04999999999999716,"durationTicks":120,"midi":67,"name":"G4","ticks":287040,"time":118.70856800000001,"velocity":0.7874015748031497},{"duration":0.09999999999999432,"durationTicks":240,"midi":86,"name":"D6","ticks":287040,"time":118.70856800000001,"velocity":0.7874015748031497},{"duration":0.09999999999999432,"durationTicks":240,"midi":92,"name":"G#6","ticks":287040,"time":118.70856800000001,"velocity":0.7874015748031497},{"duration":0.05000000000001137,"durationTicks":120,"midi":77,"name":"F5","ticks":319680,"time":132.308568,"velocity":0.7874015748031497},{"duration":0.05000000000001137,"durationTicks":120,"midi":67,"name":"G4","ticks":319680,"time":132.308568,"velocity":0.7874015748031497},{"duration":0.04999999999998295,"durationTicks":120,"midi":77,"name":"F5","ticks":321600,"time":133.10856800000002,"velocity":0.7874015748031497},{"duration":0.04999999999998295,"durationTicks":120,"midi":67,"name":"G4","ticks":321600,"time":133.10856800000002,"velocity":0.7874015748031497},{"duration":0.05000000000001137,"durationTicks":120,"midi":77,"name":"F5","ticks":323520,"time":133.908568,"velocity":0.7874015748031497},{"duration":0.05000000000001137,"durationTicks":120,"midi":67,"name":"G4","ticks":323520,"time":133.908568,"velocity":0.7874015748031497},{"duration":0.05000000000001137,"durationTicks":120,"midi":60,"name":"C4","ticks":324960,"time":134.508568,"velocity":0.7874015748031497},{"duration":0.04999999999998295,"durationTicks":120,"midi":77,"name":"F5","ticks":325440,"time":134.708568,"velocity":0.7874015748031497},{"duration":0.04999999999998295,"durationTicks":120,"midi":67,"name":"G4","ticks":325440,"time":134.708568,"velocity":0.7874015748031497},{"duration":0.05000000000001137,"durationTicks":120,"midi":77,"name":"F5","ticks":327360,"time":135.508568,"velocity":0.7874015748031497},{"duration":0.05000000000001137,"durationTicks":120,"midi":67,"name":"G4","ticks":327360,"time":135.508568,"velocity":0.7874015748031497},{"duration":0.05000000000001137,"durationTicks":120,"midi":77,"name":"F5","ticks":329280,"time":136.308568,"velocity":0.7874015748031497},{"duration":0.05000000000001137,"durationTicks":120,"midi":67,"name":"G4","ticks":329280,"time":136.308568,"velocity":0.7874015748031497},{"duration":0.04999999999998295,"durationTicks":120,"midi":77,"name":"F5","ticks":331200,"time":137.10856800000002,"velocity":0.7874015748031497},{"duration":0.04999999999998295,"durationTicks":120,"midi":67,"name":"G4","ticks":331200,"time":137.10856800000002,"velocity":0.7874015748031497},{"duration":0.04999999999998295,"durationTicks":120,"midi":60,"name":"C4","ticks":332640,"time":137.708568,"velocity":0.7874015748031497},{"duration":0.05000000000001137,"durationTicks":120,"midi":77,"name":"F5","ticks":333120,"time":137.908568,"velocity":0.7874015748031497},{"duration":0.05000000000001137,"durationTicks":120,"midi":67,"name":"G4","ticks":333120,"time":137.908568,"velocity":0.7874015748031497},{"duration":0.04999999999998295,"durationTicks":120,"midi":77,"name":"F5","ticks":335040,"time":138.708568,"velocity":0.7874015748031497},{"duration":0.04999999999998295,"durationTicks":120,"midi":67,"name":"G4","ticks":335040,"time":138.708568,"velocity":0.7874015748031497},{"duration":0.05000000000001137,"durationTicks":120,"midi":77,"name":"F5","ticks":336960,"time":139.508568,"velocity":0.7874015748031497},{"duration":0.05000000000001137,"durationTicks":120,"midi":67,"name":"G4","ticks":336960,"time":139.508568,"velocity":0.7874015748031497},{"duration":0.05000000000001137,"durationTicks":120,"midi":77,"name":"F5","ticks":338880,"time":140.308568,"velocity":0.7874015748031497},{"duration":0.05000000000001137,"durationTicks":120,"midi":67,"name":"G4","ticks":338880,"time":140.308568,"velocity":0.7874015748031497},{"duration":0.05000000000001137,"durationTicks":120,"midi":60,"name":"C4","ticks":340320,"time":140.908568,"velocity":0.7874015748031497},{"duration":0.04999999999998295,"durationTicks":120,"midi":77,"name":"F5","ticks":340800,"time":141.10856800000002,"velocity":0.7874015748031497},{"duration":0.04999999999998295,"durationTicks":120,"midi":67,"name":"G4","ticks":340800,"time":141.10856800000002,"velocity":0.7874015748031497},{"duration":0.10000000000002274,"durationTicks":240,"midi":84,"name":"C6","ticks":341760,"time":141.508568,"velocity":0.7874015748031497},{"duration":0.10000000000002274,"durationTicks":240,"midi":90,"name":"F#6","ticks":341760,"time":141.508568,"velocity":0.7874015748031497},{"duration":0.05000000000001137,"durationTicks":120,"midi":77,"name":"F5","ticks":342720,"time":141.908568,"velocity":0.7874015748031497},{"duration":0.05000000000001137,"durationTicks":120,"midi":67,"name":"G4","ticks":342720,"time":141.908568,"velocity":0.7874015748031497},{"duration":0.09999999999999432,"durationTicks":240,"midi":84,"name":"C6","ticks":343680,"time":142.308568,"velocity":0.7874015748031497},{"duration":0.09999999999999432,"durationTicks":240,"midi":90,"name":"F#6","ticks":343680,"time":142.308568,"velocity":0.7874015748031497},{"duration":0.04999999999998295,"durationTicks":120,"midi":77,"name":"F5","ticks":344640,"time":142.708568,"velocity":0.7874015748031497},{"duration":0.04999999999998295,"durationTicks":120,"midi":67,"name":"G4","ticks":344640,"time":142.708568,"velocity":0.7874015748031497},{"duration":0.09999999999999432,"durationTicks":240,"midi":51,"name":"D#3","ticks":345600,"time":143.10856800000002,"velocity":0.7874015748031497},{"duration":0.09999999999999432,"durationTicks":240,"midi":58,"name":"A#3","ticks":345600,"time":143.10856800000002,"velocity":0.7874015748031497},{"duration":0.09999999999999432,"durationTicks":240,"midi":84,"name":"C6","ticks":345600,"time":143.10856800000002,"velocity":0.7874015748031497},{"duration":0.09999999999999432,"durationTicks":240,"midi":90,"name":"F#6","ticks":345600,"time":143.10856800000002,"velocity":0.7874015748031497},{"duration":0.09999999999999432,"durationTicks":240,"midi":52,"name":"E3","ticks":345840,"time":143.208568,"velocity":0.7874015748031497},{"duration":0.09999999999999432,"durationTicks":240,"midi":60,"name":"C4","ticks":345840,"time":143.208568,"velocity":0.7874015748031497},{"duration":0.09999999999999432,"durationTicks":240,"midi":53,"name":"F3","ticks":346080,"time":143.308568,"velocity":0.7874015748031497},{"duration":0.09999999999999432,"durationTicks":240,"midi":62,"name":"D4","ticks":346080,"time":143.308568,"velocity":0.7874015748031497},{"duration":0.09999999999999432,"durationTicks":240,"midi":54,"name":"F#3","ticks":346320,"time":143.408568,"velocity":0.7874015748031497},{"duration":0.09999999999999432,"durationTicks":240,"midi":64,"name":"E4","ticks":346320,"time":143.408568,"velocity":0.7874015748031497},{"duration":0.05000000000001137,"durationTicks":120,"midi":77,"name":"F5","ticks":346560,"time":143.508568,"velocity":0.7874015748031497},{"duration":0.05000000000001137,"durationTicks":120,"midi":67,"name":"G4","ticks":346560,"time":143.508568,"velocity":0.7874015748031497},{"duration":0.10000000000002274,"durationTicks":240,"midi":55,"name":"G3","ticks":346560,"time":143.508568,"velocity":0.7874015748031497},{"duration":0.10000000000002274,"durationTicks":240,"midi":66,"name":"F#4","ticks":346560,"time":143.508568,"velocity":0.7874015748031497},{"duration":0.10000000000002274,"durationTicks":240,"midi":84,"name":"C6","ticks":346560,"time":143.508568,"velocity":0.7874015748031497},{"duration":0.05000000000001137,"durationTicks":120,"midi":90,"name":"F#6","ticks":346560,"time":143.508568,"velocity":0.7874015748031497},{"duration":0.09999999999999432,"durationTicks":240,"midi":56,"name":"G#3","ticks":346800,"time":143.60856800000002,"velocity":0.7874015748031497},{"duration":0.09999999999999432,"durationTicks":240,"midi":68,"name":"G#4","ticks":346800,"time":143.60856800000002,"velocity":0.7874015748031497},{"duration":0.09999999999999432,"durationTicks":240,"midi":57,"name":"A3","ticks":347040,"time":143.708568,"velocity":0.7874015748031497},{"duration":0.09999999999999432,"durationTicks":240,"midi":70,"name":"A#4","ticks":347040,"time":143.708568,"velocity":0.7874015748031497},{"duration":0.09999999999999432,"durationTicks":240,"midi":58,"name":"A#3","ticks":347280,"time":143.808568,"velocity":0.7874015748031497},{"duration":0.09999999999999432,"durationTicks":240,"midi":72,"name":"C5","ticks":347280,"time":143.808568,"velocity":0.7874015748031497},{"duration":0.09999999999999432,"durationTicks":240,"midi":59,"name":"B3","ticks":347520,"time":143.908568,"velocity":0.7874015748031497},{"duration":0.09999999999999432,"durationTicks":240,"midi":74,"name":"D5","ticks":347520,"time":143.908568,"velocity":0.7874015748031497},{"duration":0.09999999999999432,"durationTicks":240,"midi":84,"name":"C6","ticks":347520,"time":143.908568,"velocity":0.7874015748031497},{"duration":0.05000000000001137,"durationTicks":120,"midi":90,"name":"F#6","ticks":347520,"time":143.908568,"velocity":0.7874015748031497},{"duration":0.10000000000002274,"durationTicks":240,"midi":60,"name":"C4","ticks":347760,"time":144.008568,"velocity":0.7874015748031497},{"duration":0.10000000000002274,"durationTicks":240,"midi":76,"name":"E5","ticks":347760,"time":144.008568,"velocity":0.7874015748031497},{"duration":0.04999999999998295,"durationTicks":120,"midi":60,"name":"C4","ticks":348000,"time":144.10856800000002,"velocity":0.7874015748031497},{"duration":0.09999999999999432,"durationTicks":240,"midi":61,"name":"C#4","ticks":348000,"time":144.10856800000002,"velocity":0.7874015748031497},{"duration":0.09999999999999432,"durationTicks":240,"midi":78,"name":"F#5","ticks":348000,"time":144.10856800000002,"velocity":0.7874015748031497},{"duration":0.09999999999999432,"durationTicks":240,"midi":62,"name":"D4","ticks":348240,"time":144.208568,"velocity":0.7874015748031497},{"duration":0.09999999999999432,"durationTicks":240,"midi":80,"name":"G#5","ticks":348240,"time":144.208568,"velocity":0.7874015748031497},{"duration":0.05000000000001137,"durationTicks":120,"midi":77,"name":"F5","ticks":348480,"time":144.308568,"velocity":0.7874015748031497},{"duration":0.05000000000001137,"durationTicks":120,"midi":67,"name":"G4","ticks":348480,"time":144.308568,"velocity":0.7874015748031497},{"duration":0.09999999999999432,"durationTicks":240,"midi":63,"name":"D#4","ticks":348480,"time":144.308568,"velocity":0.7874015748031497},{"duration":0.09999999999999432,"durationTicks":240,"midi":82,"name":"A#5","ticks":348480,"time":144.308568,"velocity":0.7874015748031497},{"duration":0.09999999999999432,"durationTicks":240,"midi":84,"name":"C6","ticks":348480,"time":144.308568,"velocity":0.7874015748031497},{"duration":0.05000000000001137,"durationTicks":120,"midi":90,"name":"F#6","ticks":348480,"time":144.308568,"velocity":0.7874015748031497},{"duration":0.09999999999999432,"durationTicks":240,"midi":64,"name":"E4","ticks":348720,"time":144.408568,"velocity":0.7874015748031497},{"duration":0.09999999999999432,"durationTicks":240,"midi":84,"name":"C6","ticks":348720,"time":144.408568,"velocity":0.7874015748031497},{"duration":0.10000000000002274,"durationTicks":240,"midi":65,"name":"F4","ticks":348960,"time":144.508568,"velocity":0.7874015748031497},{"duration":0.10000000000002274,"durationTicks":240,"midi":86,"name":"D6","ticks":348960,"time":144.508568,"velocity":0.7874015748031497},{"duration":0.09999999999999432,"durationTicks":240,"midi":66,"name":"F#4","ticks":349200,"time":144.60856800000002,"velocity":0.7874015748031497},{"duration":0.09999999999999432,"durationTicks":240,"midi":88,"name":"E6","ticks":349200,"time":144.60856800000002,"velocity":0.7874015748031497},{"duration":0.09999999999999432,"durationTicks":240,"midi":84,"name":"C6","ticks":349440,"time":144.708568,"velocity":0.7874015748031497},{"duration":0.09999999999999432,"durationTicks":240,"midi":90,"name":"F#6","ticks":349440,"time":144.708568,"velocity":0.7874015748031497},{"duration":0.04999999999998295,"durationTicks":120,"midi":77,"name":"F5","ticks":350400,"time":145.10856800000002,"velocity":0.7874015748031497},{"duration":0.04999999999998295,"durationTicks":120,"midi":67,"name":"G4","ticks":350400,"time":145.10856800000002,"velocity":0.7874015748031497},{"duration":0.05000000000001137,"durationTicks":120,"midi":77,"name":"F5","ticks":352320,"time":145.908568,"velocity":0.7874015748031497},{"duration":0.05000000000001137,"durationTicks":120,"midi":67,"name":"G4","ticks":352320,"time":145.908568,"velocity":0.7874015748031497},{"duration":0.04999999999998295,"durationTicks":120,"midi":77,"name":"F5","ticks":354240,"time":146.708568,"velocity":0.7874015748031497},{"duration":0.04999999999998295,"durationTicks":120,"midi":67,"name":"G4","ticks":354240,"time":146.708568,"velocity":0.7874015748031497},{"duration":0.05000000000001137,"durationTicks":120,"midi":60,"name":"C4","ticks":355680,"time":147.308568,"velocity":0.7874015748031497},{"duration":0.05000000000001137,"durationTicks":120,"midi":77,"name":"F5","ticks":356160,"time":147.508568,"velocity":0.7874015748031497},{"duration":0.05000000000001137,"durationTicks":120,"midi":67,"name":"G4","ticks":356160,"time":147.508568,"velocity":0.7874015748031497},{"duration":0.05000000000001137,"durationTicks":120,"midi":77,"name":"F5","ticks":358080,"time":148.308568,"velocity":0.7874015748031497},{"duration":0.05000000000001137,"durationTicks":120,"midi":67,"name":"G4","ticks":358080,"time":148.308568,"velocity":0.7874015748031497},{"duration":0.04999999999998295,"durationTicks":120,"midi":77,"name":"F5","ticks":360000,"time":149.10856800000002,"velocity":0.7874015748031497},{"duration":0.04999999999998295,"durationTicks":120,"midi":67,"name":"G4","ticks":360000,"time":149.10856800000002,"velocity":0.7874015748031497},{"duration":0.05000000000001137,"durationTicks":120,"midi":77,"name":"F5","ticks":361920,"time":149.908568,"velocity":0.7874015748031497},{"duration":0.05000000000001137,"durationTicks":120,"midi":67,"name":"G4","ticks":361920,"time":149.908568,"velocity":0.7874015748031497},{"duration":0.05000000000001137,"durationTicks":120,"midi":60,"name":"C4","ticks":363360,"time":150.508568,"velocity":0.7874015748031497},{"duration":0.04999999999998295,"durationTicks":120,"midi":77,"name":"F5","ticks":363840,"time":150.708568,"velocity":0.7874015748031497},{"duration":0.04999999999998295,"durationTicks":120,"midi":67,"name":"G4","ticks":363840,"time":150.708568,"velocity":0.7874015748031497},{"duration":0.05000000000001137,"durationTicks":120,"midi":77,"name":"F5","ticks":365760,"time":151.508568,"velocity":0.7874015748031497},{"duration":0.05000000000001137,"durationTicks":120,"midi":67,"name":"G4","ticks":365760,"time":151.508568,"velocity":0.7874015748031497},{"duration":0.05000000000001137,"durationTicks":120,"midi":77,"name":"F5","ticks":367680,"time":152.308568,"velocity":0.7874015748031497},{"duration":0.05000000000001137,"durationTicks":120,"midi":67,"name":"G4","ticks":367680,"time":152.308568,"velocity":0.7874015748031497},{"duration":0.04999999999998295,"durationTicks":120,"midi":77,"name":"F5","ticks":369600,"time":153.10856800000002,"velocity":0.7874015748031497},{"duration":0.04999999999998295,"durationTicks":120,"midi":67,"name":"G4","ticks":369600,"time":153.10856800000002,"velocity":0.7874015748031497},{"duration":0.04999999999998295,"durationTicks":120,"midi":60,"name":"C4","ticks":371040,"time":153.708568,"velocity":0.7874015748031497},{"duration":0.05000000000001137,"durationTicks":120,"midi":77,"name":"F5","ticks":371520,"time":153.908568,"velocity":0.7874015748031497},{"duration":0.05000000000001137,"durationTicks":120,"midi":67,"name":"G4","ticks":371520,"time":153.908568,"velocity":0.7874015748031497},{"duration":0.09999999999999432,"durationTicks":240,"midi":84,"name":"C6","ticks":372480,"time":154.308568,"velocity":0.7874015748031497},{"duration":0.09999999999999432,"durationTicks":240,"midi":90,"name":"F#6","ticks":372480,"time":154.308568,"velocity":0.7874015748031497},{"duration":0.04999999999998295,"durationTicks":120,"midi":77,"name":"F5","ticks":373440,"time":154.708568,"velocity":0.7874015748031497},{"duration":0.04999999999998295,"durationTicks":120,"midi":67,"name":"G4","ticks":373440,"time":154.708568,"velocity":0.7874015748031497},{"duration":0.09999999999999432,"durationTicks":240,"midi":84,"name":"C6","ticks":374400,"time":155.10856800000002,"velocity":0.7874015748031497},{"duration":0.09999999999999432,"durationTicks":240,"midi":90,"name":"F#6","ticks":374400,"time":155.10856800000002,"velocity":0.7874015748031497},{"duration":0.05000000000001137,"durationTicks":120,"midi":77,"name":"F5","ticks":375360,"time":155.508568,"velocity":0.7874015748031497},{"duration":0.05000000000001137,"durationTicks":120,"midi":67,"name":"G4","ticks":375360,"time":155.508568,"velocity":0.7874015748031497},{"duration":0.09999999999999432,"durationTicks":240,"midi":84,"name":"C6","ticks":376320,"time":155.908568,"velocity":0.7874015748031497},{"duration":0.09999999999999432,"durationTicks":240,"midi":90,"name":"F#6","ticks":376320,"time":155.908568,"velocity":0.7874015748031497},{"duration":0.05000000000001137,"durationTicks":120,"midi":77,"name":"F5","ticks":377280,"time":156.308568,"velocity":0.7874015748031497},{"duration":0.05000000000001137,"durationTicks":120,"midi":67,"name":"G4","ticks":377280,"time":156.308568,"velocity":0.7874015748031497},{"duration":0.09999999999999432,"durationTicks":240,"midi":84,"name":"C6","ticks":377280,"time":156.308568,"velocity":0.7874015748031497},{"duration":0.09999999999999432,"durationTicks":240,"midi":90,"name":"F#6","ticks":377280,"time":156.308568,"velocity":0.7874015748031497},{"duration":0.09999999999999432,"durationTicks":240,"midi":80,"name":"G#5","ticks":378240,"time":156.708568,"velocity":0.7874015748031497},{"duration":0.09999999999999432,"durationTicks":240,"midi":87,"name":"D#6","ticks":378240,"time":156.708568,"velocity":0.7874015748031497},{"duration":0.05000000000001137,"durationTicks":120,"midi":60,"name":"C4","ticks":378720,"time":156.908568,"velocity":0.7874015748031497},{"duration":0.10000000000002274,"durationTicks":240,"midi":80,"name":"G#5","ticks":378960,"time":157.008568,"velocity":0.7874015748031497},{"duration":0.10000000000002274,"durationTicks":240,"midi":87,"name":"D#6","ticks":378960,"time":157.008568,"velocity":0.7874015748031497},{"duration":0.04999999999998295,"durationTicks":120,"midi":77,"name":"F5","ticks":379200,"time":157.10856800000002,"velocity":0.7874015748031497},{"duration":0.04999999999998295,"durationTicks":120,"midi":67,"name":"G4","ticks":379200,"time":157.10856800000002,"velocity":0.7874015748031497},{"duration":0.09999999999999432,"durationTicks":240,"midi":71,"name":"B4","ticks":379680,"time":157.308568,"velocity":0.7874015748031497},{"duration":0.09999999999999432,"durationTicks":240,"midi":80,"name":"G#5","ticks":379680,"time":157.308568,"velocity":0.7874015748031497},{"duration":0.09999999999999432,"durationTicks":240,"midi":84,"name":"C6","ticks":380160,"time":157.50856800000003,"velocity":0.7874015748031497},{"duration":0.09999999999999432,"durationTicks":240,"midi":90,"name":"F#6","ticks":380160,"time":157.50856800000003,"velocity":0.7874015748031497},{"duration":0.05000000000001137,"durationTicks":120,"midi":77,"name":"F5","ticks":381120,"time":157.908568,"velocity":0.7874015748031497},{"duration":0.05000000000001137,"durationTicks":120,"midi":67,"name":"G4","ticks":381120,"time":157.908568,"velocity":0.7874015748031497},{"duration":0.05000000000001137,"durationTicks":120,"midi":77,"name":"F5","ticks":383040,"time":158.708568,"velocity":0.7874015748031497},{"duration":0.05000000000001137,"durationTicks":120,"midi":67,"name":"G4","ticks":383040,"time":158.708568,"velocity":0.7874015748031497},{"duration":0.04999999999998295,"durationTicks":120,"midi":77,"name":"F5","ticks":384960,"time":159.50856800000003,"velocity":0.7874015748031497},{"duration":0.04999999999998295,"durationTicks":120,"midi":67,"name":"G4","ticks":384960,"time":159.50856800000003,"velocity":0.7874015748031497},{"duration":0.04999999999998295,"durationTicks":120,"midi":60,"name":"C4","ticks":386400,"time":160.10856800000002,"velocity":0.7874015748031497},{"duration":0.05000000000001137,"durationTicks":120,"midi":77,"name":"F5","ticks":386880,"time":160.308568,"velocity":0.7874015748031497},{"duration":0.05000000000001137,"durationTicks":120,"midi":67,"name":"G4","ticks":386880,"time":160.308568,"velocity":0.7874015748031497},{"duration":0.04999999999998295,"durationTicks":120,"midi":77,"name":"F5","ticks":388800,"time":161.10856800000002,"velocity":0.7874015748031497},{"duration":0.04999999999998295,"durationTicks":120,"midi":67,"name":"G4","ticks":388800,"time":161.10856800000002,"velocity":0.7874015748031497},{"duration":0.05000000000001137,"durationTicks":120,"midi":77,"name":"F5","ticks":390720,"time":161.908568,"velocity":0.7874015748031497},{"duration":0.05000000000001137,"durationTicks":120,"midi":67,"name":"G4","ticks":390720,"time":161.908568,"velocity":0.7874015748031497},{"duration":0.05000000000001137,"durationTicks":120,"midi":77,"name":"F5","ticks":392640,"time":162.708568,"velocity":0.7874015748031497},{"duration":0.05000000000001137,"durationTicks":120,"midi":67,"name":"G4","ticks":392640,"time":162.708568,"velocity":0.7874015748031497},{"duration":0.05000000000001137,"durationTicks":120,"midi":60,"name":"C4","ticks":394080,"time":163.308568,"velocity":0.7874015748031497},{"duration":0.04999999999998295,"durationTicks":120,"midi":77,"name":"F5","ticks":394560,"time":163.50856800000003,"velocity":0.7874015748031497},{"duration":0.04999999999998295,"durationTicks":120,"midi":67,"name":"G4","ticks":394560,"time":163.50856800000003,"velocity":0.7874015748031497},{"duration":0.05000000000001137,"durationTicks":120,"midi":77,"name":"F5","ticks":396480,"time":164.308568,"velocity":0.7874015748031497},{"duration":0.05000000000001137,"durationTicks":120,"midi":67,"name":"G4","ticks":396480,"time":164.308568,"velocity":0.7874015748031497},{"duration":0.04999999999998295,"durationTicks":120,"midi":77,"name":"F5","ticks":398400,"time":165.10856800000002,"velocity":0.7874015748031497},{"duration":0.04999999999998295,"durationTicks":120,"midi":67,"name":"G4","ticks":398400,"time":165.10856800000002,"velocity":0.7874015748031497},{"duration":0.05000000000001137,"durationTicks":120,"midi":77,"name":"F5","ticks":400320,"time":165.908568,"velocity":0.7874015748031497},{"duration":0.05000000000001137,"durationTicks":120,"midi":67,"name":"G4","ticks":400320,"time":165.908568,"velocity":0.7874015748031497},{"duration":0.04999999999998295,"durationTicks":120,"midi":60,"name":"C4","ticks":401760,"time":166.50856800000003,"velocity":0.7874015748031497},{"duration":0.05000000000001137,"durationTicks":120,"midi":77,"name":"F5","ticks":402240,"time":166.708568,"velocity":0.7874015748031497},{"duration":0.05000000000001137,"durationTicks":120,"midi":67,"name":"G4","ticks":402240,"time":166.708568,"velocity":0.7874015748031497},{"duration":0.09999999999999432,"durationTicks":240,"midi":84,"name":"C6","ticks":403200,"time":167.10856800000002,"velocity":0.7874015748031497},{"duration":0.09999999999999432,"durationTicks":240,"midi":90,"name":"F#6","ticks":403200,"time":167.10856800000002,"velocity":0.7874015748031497},{"duration":0.04999999999998295,"durationTicks":120,"midi":77,"name":"F5","ticks":404160,"time":167.50856800000003,"velocity":0.7874015748031497},{"duration":0.04999999999998295,"durationTicks":120,"midi":67,"name":"G4","ticks":404160,"time":167.50856800000003,"velocity":0.7874015748031497},{"duration":0.10000000000002274,"durationTicks":240,"midi":84,"name":"C6","ticks":405120,"time":167.908568,"velocity":0.7874015748031497},{"duration":0.10000000000002274,"durationTicks":240,"midi":90,"name":"F#6","ticks":405120,"time":167.908568,"velocity":0.7874015748031497},{"duration":0.05000000000001137,"durationTicks":120,"midi":77,"name":"F5","ticks":406080,"time":168.308568,"velocity":0.7874015748031497},{"duration":0.05000000000001137,"durationTicks":120,"midi":67,"name":"G4","ticks":406080,"time":168.308568,"velocity":0.7874015748031497},{"duration":0.09999999999999432,"durationTicks":240,"midi":84,"name":"C6","ticks":406560,"time":168.50856800000003,"velocity":0.7874015748031497},{"duration":0.05000000000001137,"durationTicks":120,"midi":50,"name":"D3","ticks":407040,"time":168.708568,"velocity":0.7874015748031497},{"duration":0.05000000000001137,"durationTicks":120,"midi":55,"name":"G3","ticks":407040,"time":168.708568,"velocity":0.7874015748031497},{"duration":0.04999999999998295,"durationTicks":120,"midi":51,"name":"D#3","ticks":407160,"time":168.75856800000003,"velocity":0.7874015748031497},{"duration":0.04999999999998295,"durationTicks":120,"midi":56,"name":"G#3","ticks":407160,"time":168.75856800000003,"velocity":0.7874015748031497},{"duration":0.05000000000001137,"durationTicks":120,"midi":52,"name":"E3","ticks":407280,"time":168.808568,"velocity":0.7874015748031497},{"duration":0.05000000000001137,"durationTicks":120,"midi":57,"name":"A3","ticks":407280,"time":168.808568,"velocity":0.7874015748031497},{"duration":0.04999999999998295,"durationTicks":120,"midi":53,"name":"F3","ticks":407400,"time":168.85856800000002,"velocity":0.7874015748031497},{"duration":0.04999999999998295,"durationTicks":120,"midi":58,"name":"A#3","ticks":407400,"time":168.85856800000002,"velocity":0.7874015748031497},{"duration":0.05000000000001137,"durationTicks":120,"midi":54,"name":"F#3","ticks":407520,"time":168.908568,"velocity":0.7874015748031497},{"duration":0.05000000000001137,"durationTicks":120,"midi":59,"name":"B3","ticks":407520,"time":168.908568,"velocity":0.7874015748031497},{"duration":0.05000000000001137,"durationTicks":120,"midi":55,"name":"G3","ticks":407640,"time":168.958568,"velocity":0.7874015748031497},{"duration":0.05000000000001137,"durationTicks":120,"midi":60,"name":"C4","ticks":407640,"time":168.958568,"velocity":0.7874015748031497},{"duration":0.04999999999998295,"durationTicks":120,"midi":56,"name":"G#3","ticks":407760,"time":169.00856800000003,"velocity":0.7874015748031497},{"duration":0.04999999999998295,"durationTicks":120,"midi":61,"name":"C#4","ticks":407760,"time":169.00856800000003,"velocity":0.7874015748031497},{"duration":0.05000000000001137,"durationTicks":120,"midi":57,"name":"A3","ticks":407880,"time":169.058568,"velocity":0.7874015748031497},{"duration":0.05000000000001137,"durationTicks":120,"midi":62,"name":"D4","ticks":407880,"time":169.058568,"velocity":0.7874015748031497},{"duration":0.04999999999998295,"durationTicks":120,"midi":58,"name":"A#3","ticks":408000,"time":169.10856800000002,"velocity":0.7874015748031497},{"duration":0.04999999999998295,"durationTicks":120,"midi":63,"name":"D#4","ticks":408000,"time":169.10856800000002,"velocity":0.7874015748031497},{"duration":0.05000000000001137,"durationTicks":120,"midi":59,"name":"B3","ticks":408120,"time":169.158568,"velocity":0.7874015748031497},{"duration":0.05000000000001137,"durationTicks":120,"midi":64,"name":"E4","ticks":408120,"time":169.158568,"velocity":0.7874015748031497},{"duration":0.05000000000001137,"durationTicks":120,"midi":60,"name":"C4","ticks":408240,"time":169.208568,"velocity":0.7874015748031497},{"duration":0.05000000000001137,"durationTicks":120,"midi":65,"name":"F4","ticks":408240,"time":169.208568,"velocity":0.7874015748031497},{"duration":0.04999999999998295,"durationTicks":120,"midi":61,"name":"C#4","ticks":408360,"time":169.25856800000003,"velocity":0.7874015748031497},{"duration":0.04999999999998295,"durationTicks":120,"midi":66,"name":"F#4","ticks":408360,"time":169.25856800000003,"velocity":0.7874015748031497},{"duration":0.05000000000001137,"durationTicks":120,"midi":62,"name":"D4","ticks":408480,"time":169.308568,"velocity":0.7874015748031497},{"duration":0.05000000000001137,"durationTicks":120,"midi":67,"name":"G4","ticks":408480,"time":169.308568,"velocity":0.7874015748031497},{"duration":0.04999999999998295,"durationTicks":120,"midi":63,"name":"D#4","ticks":408600,"time":169.35856800000002,"velocity":0.7874015748031497},{"duration":0.04999999999998295,"durationTicks":120,"midi":68,"name":"G#4","ticks":408600,"time":169.35856800000002,"velocity":0.7874015748031497},{"duration":0.05000000000001137,"durationTicks":120,"midi":64,"name":"E4","ticks":408720,"time":169.408568,"velocity":0.7874015748031497},{"duration":0.05000000000001137,"durationTicks":120,"midi":69,"name":"A4","ticks":408720,"time":169.408568,"velocity":0.7874015748031497},{"duration":0.05000000000001137,"durationTicks":120,"midi":65,"name":"F4","ticks":408840,"time":169.458568,"velocity":0.7874015748031497},{"duration":0.05000000000001137,"durationTicks":120,"midi":70,"name":"A#4","ticks":408840,"time":169.458568,"velocity":0.7874015748031497},{"duration":0.04999999999998295,"durationTicks":120,"midi":66,"name":"F#4","ticks":408960,"time":169.50856800000003,"velocity":0.7874015748031497},{"duration":0.04999999999998295,"durationTicks":120,"midi":71,"name":"B4","ticks":408960,"time":169.50856800000003,"velocity":0.7874015748031497},{"duration":0.05000000000001137,"durationTicks":120,"midi":67,"name":"G4","ticks":409080,"time":169.558568,"velocity":0.7874015748031497},{"duration":0.05000000000001137,"durationTicks":120,"midi":72,"name":"C5","ticks":409080,"time":169.558568,"velocity":0.7874015748031497},{"duration":0.04999999999998295,"durationTicks":120,"midi":68,"name":"G#4","ticks":409200,"time":169.60856800000002,"velocity":0.7874015748031497},{"duration":0.04999999999998295,"durationTicks":120,"midi":73,"name":"C#5","ticks":409200,"time":169.60856800000002,"velocity":0.7874015748031497},{"duration":0.05000000000001137,"durationTicks":120,"midi":69,"name":"A4","ticks":409320,"time":169.658568,"velocity":0.7874015748031497},{"duration":0.05000000000001137,"durationTicks":120,"midi":74,"name":"D5","ticks":409320,"time":169.658568,"velocity":0.7874015748031497},{"duration":0.05000000000001137,"durationTicks":120,"midi":70,"name":"A#4","ticks":409440,"time":169.708568,"velocity":0.7874015748031497},{"duration":0.05000000000001137,"durationTicks":120,"midi":75,"name":"D#5","ticks":409440,"time":169.708568,"velocity":0.7874015748031497},{"duration":0.04999999999998295,"durationTicks":120,"midi":71,"name":"B4","ticks":409560,"time":169.75856800000003,"velocity":0.7874015748031497},{"duration":0.04999999999998295,"durationTicks":120,"midi":76,"name":"E5","ticks":409560,"time":169.75856800000003,"velocity":0.7874015748031497},{"duration":0.05000000000001137,"durationTicks":120,"midi":72,"name":"C5","ticks":409680,"time":169.808568,"velocity":0.7874015748031497},{"duration":0.05000000000001137,"durationTicks":120,"midi":77,"name":"F5","ticks":409680,"time":169.808568,"velocity":0.7874015748031497},{"duration":0.04999999999998295,"durationTicks":120,"midi":73,"name":"C#5","ticks":409800,"time":169.85856800000002,"velocity":0.7874015748031497},{"duration":0.04999999999998295,"durationTicks":120,"midi":78,"name":"F#5","ticks":409800,"time":169.85856800000002,"velocity":0.7874015748031497},{"duration":0.05000000000001137,"durationTicks":120,"midi":74,"name":"D5","ticks":409920,"time":169.908568,"velocity":0.7874015748031497},{"duration":0.05000000000001137,"durationTicks":120,"midi":79,"name":"G5","ticks":409920,"time":169.908568,"velocity":0.7874015748031497},{"duration":0.05000000000001137,"durationTicks":120,"midi":75,"name":"D#5","ticks":410040,"time":169.958568,"velocity":0.7874015748031497},{"duration":0.05000000000001137,"durationTicks":120,"midi":80,"name":"G#5","ticks":410040,"time":169.958568,"velocity":0.7874015748031497},{"duration":0.04999999999998295,"durationTicks":120,"midi":76,"name":"E5","ticks":410160,"time":170.00856800000003,"velocity":0.7874015748031497},{"duration":0.04999999999998295,"durationTicks":120,"midi":81,"name":"A5","ticks":410160,"time":170.00856800000003,"velocity":0.7874015748031497},{"duration":0.05000000000001137,"durationTicks":120,"midi":77,"name":"F5","ticks":410280,"time":170.058568,"velocity":0.7874015748031497},{"duration":0.05000000000001137,"durationTicks":120,"midi":82,"name":"A#5","ticks":410280,"time":170.058568,"velocity":0.7874015748031497},{"duration":0.04999999999998295,"durationTicks":120,"midi":78,"name":"F#5","ticks":410400,"time":170.10856800000002,"velocity":0.7874015748031497},{"duration":0.04999999999998295,"durationTicks":120,"midi":83,"name":"B5","ticks":410400,"time":170.10856800000002,"velocity":0.7874015748031497},{"duration":0.05000000000001137,"durationTicks":120,"midi":79,"name":"G5","ticks":410520,"time":170.158568,"velocity":0.7874015748031497},{"duration":0.05000000000001137,"durationTicks":120,"midi":84,"name":"C6","ticks":410520,"time":170.158568,"velocity":0.7874015748031497},{"duration":0.05000000000001137,"durationTicks":120,"midi":80,"name":"G#5","ticks":410640,"time":170.208568,"velocity":0.7874015748031497},{"duration":0.05000000000001137,"durationTicks":120,"midi":85,"name":"C#6","ticks":410640,"time":170.208568,"velocity":0.7874015748031497},{"duration":0.04999999999998295,"durationTicks":120,"midi":81,"name":"A5","ticks":410760,"time":170.25856800000003,"velocity":0.7874015748031497},{"duration":0.04999999999998295,"durationTicks":120,"midi":86,"name":"D6","ticks":410760,"time":170.25856800000003,"velocity":0.7874015748031497},{"duration":0.05000000000001137,"durationTicks":120,"midi":77,"name":"F5","ticks":411840,"time":170.708568,"velocity":0.7401574803149606},{"duration":0.05000000000001137,"durationTicks":120,"midi":67,"name":"G4","ticks":411840,"time":170.708568,"velocity":0.7401574803149606},{"duration":0.04999999999998295,"durationTicks":120,"midi":77,"name":"F5","ticks":413760,"time":171.50856800000003,"velocity":0.6456692913385826},{"duration":0.04999999999998295,"durationTicks":120,"midi":67,"name":"G4","ticks":413760,"time":171.50856800000003,"velocity":0.6456692913385826},{"duration":0.05000000000001137,"durationTicks":120,"midi":77,"name":"F5","ticks":415680,"time":172.308568,"velocity":0.5433070866141733},{"duration":0.05000000000001137,"durationTicks":120,"midi":67,"name":"G4","ticks":415680,"time":172.308568,"velocity":0.5433070866141733},{"duration":0.05000000000001137,"durationTicks":120,"midi":60,"name":"C4","ticks":417120,"time":172.908568,"velocity":0.47244094488188976},{"duration":0.04999999999998295,"durationTicks":120,"midi":77,"name":"F5","ticks":417600,"time":173.10856800000002,"velocity":0.44881889763779526},{"duration":0.04999999999998295,"durationTicks":120,"midi":67,"name":"G4","ticks":417600,"time":173.10856800000002,"velocity":0.44881889763779526},{"duration":0.05000000000001137,"durationTicks":120,"midi":77,"name":"F5","ticks":419520,"time":173.908568,"velocity":0.3464566929133858},{"duration":0.05000000000001137,"durationTicks":120,"midi":67,"name":"G4","ticks":419520,"time":173.908568,"velocity":0.3464566929133858},{"duration":0.05000000000001137,"durationTicks":120,"midi":77,"name":"F5","ticks":421440,"time":174.708568,"velocity":0.25196850393700787},{"duration":0.05000000000001137,"durationTicks":120,"midi":67,"name":"G4","ticks":421440,"time":174.708568,"velocity":0.25196850393700787},{"duration":0.04999999999998295,"durationTicks":120,"midi":77,"name":"F5","ticks":423360,"time":175.50856800000003,"velocity":0.14960629921259844},{"duration":0.04999999999998295,"durationTicks":120,"midi":67,"name":"G4","ticks":423360,"time":175.50856800000003,"velocity":0.14960629921259844},{"duration":0.05000000000001137,"durationTicks":120,"midi":77,"name":"F5","ticks":424320,"time":175.908568,"velocity":0.10236220472440945},{"duration":0.05000000000001137,"durationTicks":120,"midi":67,"name":"G4","ticks":424320,"time":175.908568,"velocity":0.10236220472440945},{"duration":0.04999999999998295,"durationTicks":120,"midi":60,"name":"C4","ticks":424800,"time":176.10856800000002,"velocity":0.07874015748031496},{"duration":0.05000000000001137,"durationTicks":120,"midi":77,"name":"F5","ticks":425280,"time":176.308568,"velocity":0.05511811023622047},{"duration":0.05000000000001137,"durationTicks":120,"midi":67,"name":"G4","ticks":425280,"time":176.308568,"velocity":0.05511811023622047}]},{"channel":0,"controlChanges":{"7":[{"number":7,"ticks":1920,"time":0.24,"value":0.6299212598425197}],"10":[{"number":10,"ticks":1920,"time":0.24,"value":0.6299212598425197}]},"pitchBends":[],"instrument":{"family":"piano","number":0,"name":"acoustic grand piano"},"name":"","notes":[]},{"channel":4,"controlChanges":{"1":[{"number":1,"ticks":3840,"time":0.48,"value":1},{"number":1,"ticks":11520,"time":3.9085680000000003,"value":0},{"number":1,"ticks":26880,"time":10.308568000000001,"value":0.5039370078740157},{"number":1,"ticks":28080,"time":10.808568000000001,"value":0},{"number":1,"ticks":30885,"time":11.977318,"value":0},{"number":1,"ticks":30930,"time":11.996068000000001,"value":0.007874015748031496},{"number":1,"ticks":30945,"time":12.002318,"value":0.047244094488188976},{"number":1,"ticks":30960,"time":12.008568,"value":0.07086614173228346},{"number":1,"ticks":30975,"time":12.014818000000002,"value":0.09448818897637795},{"number":1,"ticks":30990,"time":12.021068000000001,"value":0.11811023622047244},{"number":1,"ticks":31005,"time":12.027318000000001,"value":0.14173228346456693},{"number":1,"ticks":31020,"time":12.033568,"value":0.18110236220472442},{"number":1,"ticks":31035,"time":12.039818,"value":0.2125984251968504},{"number":1,"ticks":31050,"time":12.046068000000002,"value":0.28346456692913385},{"number":1,"ticks":31065,"time":12.052318000000001,"value":0.3700787401574803},{"number":1,"ticks":31080,"time":12.058568000000001,"value":0.41732283464566927},{"number":1,"ticks":31095,"time":12.064818,"value":0.44881889763779526},{"number":1,"ticks":31110,"time":12.071068,"value":0.48031496062992124},{"number":1,"ticks":31125,"time":12.077318000000002,"value":0.49606299212598426},{"number":1,"ticks":31140,"time":12.083568000000001,"value":0.5118110236220472},{"number":1,"ticks":31155,"time":12.089818000000001,"value":0.5354330708661418},{"number":1,"ticks":31170,"time":12.096068,"value":0.5511811023622047},{"number":1,"ticks":31185,"time":12.102318,"value":0.5748031496062992},{"number":1,"ticks":31200,"time":12.108568000000002,"value":0.5984251968503937},{"number":1,"ticks":31215,"time":12.114818000000001,"value":0.6377952755905512},{"number":1,"ticks":31230,"time":12.121068000000001,"value":0.6850393700787402},{"number":1,"ticks":31245,"time":12.127318,"value":0.7322834645669292},{"number":1,"ticks":31260,"time":12.133568,"value":0.7559055118110236},{"number":1,"ticks":31275,"time":12.139818000000002,"value":0.7952755905511811},{"number":1,"ticks":31290,"time":12.146068000000001,"value":0.8346456692913385},{"number":1,"ticks":31305,"time":12.152318000000001,"value":0.8661417322834646},{"number":1,"ticks":31320,"time":12.158568,"value":0.8976377952755905},{"number":1,"ticks":31335,"time":12.164818,"value":0.9291338582677166},{"number":1,"ticks":31350,"time":12.171068000000002,"value":0.9606299212598425},{"number":1,"ticks":31365,"time":12.177318000000001,"value":0.9921259842519685},{"number":1,"ticks":31380,"time":12.183568000000001,"value":1},{"number":1,"ticks":33840,"time":13.208568000000001,"value":0},{"number":1,"ticks":34560,"time":13.508568000000002,"value":0.5039370078740157},{"number":1,"ticks":35760,"time":14.008568000000002,"value":0},{"number":1,"ticks":38565,"time":15.177318000000001,"value":0},{"number":1,"ticks":38610,"time":15.196068000000002,"value":0.007874015748031496},{"number":1,"ticks":38625,"time":15.202318000000002,"value":0.047244094488188976},{"number":1,"ticks":38640,"time":15.208568000000001,"value":0.07086614173228346},{"number":1,"ticks":38655,"time":15.214818000000001,"value":0.09448818897637795},{"number":1,"ticks":38670,"time":15.221068,"value":0.11811023622047244},{"number":1,"ticks":38685,"time":15.227318000000002,"value":0.14173228346456693},{"number":1,"ticks":38700,"time":15.233568000000002,"value":0.18110236220472442},{"number":1,"ticks":38715,"time":15.239818000000001,"value":0.2125984251968504},{"number":1,"ticks":38730,"time":15.246068000000001,"value":0.28346456692913385},{"number":1,"ticks":38745,"time":15.252318,"value":0.3700787401574803},{"number":1,"ticks":38760,"time":15.258568000000002,"value":0.41732283464566927},{"number":1,"ticks":38775,"time":15.264818000000002,"value":0.44881889763779526},{"number":1,"ticks":38790,"time":15.271068000000001,"value":0.48031496062992124},{"number":1,"ticks":38805,"time":15.277318000000001,"value":0.49606299212598426},{"number":1,"ticks":38820,"time":15.283568,"value":0.5118110236220472},{"number":1,"ticks":38835,"time":15.289818000000002,"value":0.5354330708661418},{"number":1,"ticks":38850,"time":15.296068000000002,"value":0.5511811023622047},{"number":1,"ticks":38865,"time":15.302318000000001,"value":0.5748031496062992},{"number":1,"ticks":38880,"time":15.308568000000001,"value":0.5984251968503937},{"number":1,"ticks":38895,"time":15.314818,"value":0.6377952755905512},{"number":1,"ticks":38910,"time":15.321068000000002,"value":0.6850393700787402},{"number":1,"ticks":38925,"time":15.327318000000002,"value":0.7322834645669292},{"number":1,"ticks":38940,"time":15.333568000000001,"value":0.7559055118110236},{"number":1,"ticks":38955,"time":15.339818000000001,"value":0.7952755905511811},{"number":1,"ticks":38970,"time":15.346068,"value":0.8346456692913385},{"number":1,"ticks":38985,"time":15.352318000000002,"value":0.8661417322834646},{"number":1,"ticks":39000,"time":15.358568000000002,"value":0.8976377952755905},{"number":1,"ticks":39015,"time":15.364818000000001,"value":0.9291338582677166},{"number":1,"ticks":39030,"time":15.371068000000001,"value":0.9606299212598425},{"number":1,"ticks":39045,"time":15.377318,"value":0.9921259842519685},{"number":1,"ticks":39060,"time":15.383568000000002,"value":1},{"number":1,"ticks":41760,"time":16.508568,"value":0},{"number":1,"ticks":42240,"time":16.708568,"value":1},{"number":1,"ticks":43680,"time":17.308568,"value":0},{"number":1,"ticks":48000,"time":19.108568,"value":1},{"number":1,"ticks":49440,"time":19.708568,"value":0},{"number":1,"ticks":54240,"time":21.708568,"value":0},{"number":1,"ticks":54315,"time":21.739818,"value":0.007874015748031496},{"number":1,"ticks":54330,"time":21.746068,"value":0.015748031496062992},{"number":1,"ticks":54345,"time":21.752318,"value":0.023622047244094488},{"number":1,"ticks":54360,"time":21.758568,"value":0.031496062992125984},{"number":1,"ticks":54375,"time":21.764817999999998,"value":0.047244094488188976},{"number":1,"ticks":54390,"time":21.771068,"value":0.06299212598425197},{"number":1,"ticks":54405,"time":21.777318,"value":0.07086614173228346},{"number":1,"ticks":54420,"time":21.783568,"value":0.09448818897637795},{"number":1,"ticks":54435,"time":21.789818,"value":0.11023622047244094},{"number":1,"ticks":54450,"time":21.796067999999998,"value":0.11811023622047244},{"number":1,"ticks":54465,"time":21.802318,"value":0.13385826771653545},{"number":1,"ticks":54480,"time":21.808568,"value":0.1732283464566929},{"number":1,"ticks":54495,"time":21.814818,"value":0.1889763779527559},{"number":1,"ticks":54510,"time":21.821068,"value":0.2047244094488189},{"number":1,"ticks":54525,"time":21.827317999999998,"value":0.2204724409448819},{"number":1,"ticks":54540,"time":21.833568,"value":0.25196850393700787},{"number":1,"ticks":54570,"time":21.846068,"value":0.2677165354330709},{"number":1,"ticks":54585,"time":21.852318,"value":0.29133858267716534},{"number":1,"ticks":54600,"time":21.858567999999998,"value":0.30708661417322836},{"number":1,"ticks":54615,"time":21.864818,"value":0.3228346456692913},{"number":1,"ticks":54630,"time":21.871068,"value":0.33858267716535434},{"number":1,"ticks":54645,"time":21.877318,"value":0.36220472440944884},{"number":1,"ticks":54660,"time":21.883568,"value":0.3858267716535433},{"number":1,"ticks":54675,"time":21.889817999999998,"value":0.4015748031496063},{"number":1,"ticks":54705,"time":21.902318,"value":0.4330708661417323},{"number":1,"ticks":54720,"time":21.908568,"value":0.44881889763779526},{"number":1,"ticks":54750,"time":21.921067999999998,"value":0.48031496062992124},{"number":1,"ticks":54765,"time":21.927318,"value":0.49606299212598426},{"number":1,"ticks":54780,"time":21.933568,"value":0.5118110236220472},{"number":1,"ticks":54810,"time":21.946068,"value":0.5433070866141733},{"number":1,"ticks":54825,"time":21.952317999999998,"value":0.5748031496062992},{"number":1,"ticks":54840,"time":21.958568,"value":0.5905511811023622},{"number":1,"ticks":54855,"time":21.964818,"value":0.6141732283464567},{"number":1,"ticks":54870,"time":21.971068,"value":0.6456692913385826},{"number":1,"ticks":54900,"time":21.983567999999998,"value":0.6614173228346457},{"number":1,"ticks":54915,"time":21.989818,"value":0.6929133858267716},{"number":1,"ticks":54930,"time":21.996068,"value":0.7165354330708661},{"number":1,"ticks":54945,"time":22.002318,"value":0.7401574803149606},{"number":1,"ticks":54960,"time":22.008568,"value":0.7559055118110236},{"number":1,"ticks":54975,"time":22.014817999999998,"value":0.7716535433070866},{"number":1,"ticks":54990,"time":22.021068,"value":0.7874015748031497},{"number":1,"ticks":55020,"time":22.033568,"value":0.8110236220472441},{"number":1,"ticks":55035,"time":22.039818,"value":0.84251968503937},{"number":1,"ticks":55050,"time":22.046067999999998,"value":0.8582677165354331},{"number":1,"ticks":55065,"time":22.052318,"value":0.8818897637795275},{"number":1,"ticks":55080,"time":22.058568,"value":0.889763779527559},{"number":1,"ticks":55095,"time":22.064818,"value":0.905511811023622},{"number":1,"ticks":55110,"time":22.071068,"value":0.9212598425196851},{"number":1,"ticks":55125,"time":22.077317999999998,"value":0.937007874015748},{"number":1,"ticks":55140,"time":22.083568,"value":0.952755905511811},{"number":1,"ticks":55155,"time":22.089818,"value":0.9606299212598425},{"number":1,"ticks":55170,"time":22.096068,"value":0.968503937007874},{"number":1,"ticks":55185,"time":22.102318,"value":0.984251968503937},{"number":1,"ticks":55200,"time":22.108567999999998,"value":1},{"number":1,"ticks":56640,"time":22.708568,"value":0},{"number":1,"ticks":57600,"time":23.108568,"value":0.5039370078740157},{"number":1,"ticks":58800,"time":23.608568,"value":0},{"number":1,"ticks":61605,"time":24.777318,"value":0},{"number":1,"ticks":61650,"time":24.796068,"value":0.007874015748031496},{"number":1,"ticks":61665,"time":24.802318,"value":0.047244094488188976},{"number":1,"ticks":61680,"time":24.808568,"value":0.07086614173228346},{"number":1,"ticks":61695,"time":24.814818,"value":0.09448818897637795},{"number":1,"ticks":61710,"time":24.821068,"value":0.11811023622047244},{"number":1,"ticks":61725,"time":24.827318,"value":0.14173228346456693},{"number":1,"ticks":61740,"time":24.833568,"value":0.18110236220472442},{"number":1,"ticks":61755,"time":24.839818,"value":0.2125984251968504},{"number":1,"ticks":61770,"time":24.846068,"value":0.28346456692913385},{"number":1,"ticks":61785,"time":24.852318,"value":0.3700787401574803},{"number":1,"ticks":61800,"time":24.858568,"value":0.41732283464566927},{"number":1,"ticks":61815,"time":24.864818,"value":0.44881889763779526},{"number":1,"ticks":61830,"time":24.871068,"value":0.48031496062992124},{"number":1,"ticks":61845,"time":24.877318,"value":0.49606299212598426},{"number":1,"ticks":61860,"time":24.883568,"value":0.5118110236220472},{"number":1,"ticks":61875,"time":24.889818,"value":0.5354330708661418},{"number":1,"ticks":61890,"time":24.896068,"value":0.5511811023622047},{"number":1,"ticks":61905,"time":24.902318,"value":0.5748031496062992},{"number":1,"ticks":61920,"time":24.908568,"value":0.5984251968503937},{"number":1,"ticks":61935,"time":24.914818,"value":0.6377952755905512},{"number":1,"ticks":61950,"time":24.921068,"value":0.6850393700787402},{"number":1,"ticks":61965,"time":24.927318,"value":0.7322834645669292},{"number":1,"ticks":61980,"time":24.933568,"value":0.7559055118110236},{"number":1,"ticks":61995,"time":24.939818,"value":0.7952755905511811},{"number":1,"ticks":62010,"time":24.946068,"value":0.8346456692913385},{"number":1,"ticks":62025,"time":24.952318,"value":0.8661417322834646},{"number":1,"ticks":62040,"time":24.958568,"value":0.8976377952755905},{"number":1,"ticks":62055,"time":24.964818,"value":0.9291338582677166},{"number":1,"ticks":62070,"time":24.971068,"value":0.9606299212598425},{"number":1,"ticks":62085,"time":24.977318,"value":0.9921259842519685},{"number":1,"ticks":62100,"time":24.983568,"value":1},{"number":1,"ticks":64560,"time":26.008568,"value":0},{"number":1,"ticks":65280,"time":26.308568,"value":0.5039370078740157},{"number":1,"ticks":66480,"time":26.808568,"value":0},{"number":1,"ticks":69285,"time":27.977318,"value":0},{"number":1,"ticks":69330,"time":27.996068,"value":0.007874015748031496},{"number":1,"ticks":69345,"time":28.002318,"value":0.047244094488188976},{"number":1,"ticks":69360,"time":28.008568,"value":0.07086614173228346},{"number":1,"ticks":69375,"time":28.014818,"value":0.09448818897637795},{"number":1,"ticks":69390,"time":28.021068,"value":0.11811023622047244},{"number":1,"ticks":69405,"time":28.027318,"value":0.14173228346456693},{"number":1,"ticks":69420,"time":28.033568,"value":0.18110236220472442},{"number":1,"ticks":69435,"time":28.039818,"value":0.2125984251968504},{"number":1,"ticks":69450,"time":28.046068,"value":0.28346456692913385},{"number":1,"ticks":69465,"time":28.052318,"value":0.3700787401574803},{"number":1,"ticks":69480,"time":28.058568,"value":0.41732283464566927},{"number":1,"ticks":69495,"time":28.064818,"value":0.44881889763779526},{"number":1,"ticks":69510,"time":28.071068,"value":0.48031496062992124},{"number":1,"ticks":69525,"time":28.077318,"value":0.49606299212598426},{"number":1,"ticks":69540,"time":28.083568,"value":0.5118110236220472},{"number":1,"ticks":69555,"time":28.089818,"value":0.5354330708661418},{"number":1,"ticks":69570,"time":28.096068,"value":0.5511811023622047},{"number":1,"ticks":69585,"time":28.102318,"value":0.5748031496062992},{"number":1,"ticks":69600,"time":28.108568,"value":0.5984251968503937},{"number":1,"ticks":69615,"time":28.114818,"value":0.6377952755905512},{"number":1,"ticks":69630,"time":28.121068,"value":0.6850393700787402},{"number":1,"ticks":69645,"time":28.127318,"value":0.7322834645669292},{"number":1,"ticks":69660,"time":28.133568,"value":0.7559055118110236},{"number":1,"ticks":69675,"time":28.139818,"value":0.7952755905511811},{"number":1,"ticks":69690,"time":28.146068,"value":0.8346456692913385},{"number":1,"ticks":69705,"time":28.152318,"value":0.8661417322834646},{"number":1,"ticks":69720,"time":28.158568,"value":0.8976377952755905},{"number":1,"ticks":69735,"time":28.164818,"value":0.9291338582677166},{"number":1,"ticks":69750,"time":28.171068,"value":0.9606299212598425},{"number":1,"ticks":69765,"time":28.177318,"value":0.9921259842519685},{"number":1,"ticks":69780,"time":28.183568,"value":1},{"number":1,"ticks":72480,"time":29.308568,"value":0},{"number":1,"ticks":72960,"time":29.508568,"value":1},{"number":1,"ticks":74400,"time":30.108568,"value":0},{"number":1,"ticks":78720,"time":31.908568,"value":1},{"number":1,"ticks":80160,"time":32.508568000000004,"value":0},{"number":1,"ticks":84000,"time":34.108568000000005,"value":0},{"number":1,"ticks":84060,"time":34.133568000000004,"value":0.007874015748031496},{"number":1,"ticks":84075,"time":34.139818000000005,"value":0.015748031496062992},{"number":1,"ticks":84090,"time":34.146068,"value":0.023622047244094488},{"number":1,"ticks":84105,"time":34.152318,"value":0.031496062992125984},{"number":1,"ticks":84120,"time":34.158568,"value":0.05511811023622047},{"number":1,"ticks":84135,"time":34.164818000000004,"value":0.07086614173228346},{"number":1,"ticks":84150,"time":34.171068000000005,"value":0.07874015748031496},{"number":1,"ticks":84165,"time":34.177318,"value":0.09448818897637795},{"number":1,"ticks":84180,"time":34.183568,"value":0.11023622047244094},{"number":1,"ticks":84195,"time":34.189818,"value":0.12598425196850394},{"number":1,"ticks":84210,"time":34.196068000000004,"value":0.14960629921259844},{"number":1,"ticks":84225,"time":34.202318000000005,"value":0.16535433070866143},{"number":1,"ticks":84240,"time":34.208568,"value":0.18110236220472442},{"number":1,"ticks":84255,"time":34.214818,"value":0.1968503937007874},{"number":1,"ticks":84270,"time":34.221068,"value":0.2047244094488189},{"number":1,"ticks":84285,"time":34.227318000000004,"value":0.2283464566929134},{"number":1,"ticks":84300,"time":34.233568000000005,"value":0.23622047244094488},{"number":1,"ticks":84315,"time":34.239818,"value":0.25984251968503935},{"number":1,"ticks":84330,"time":34.246068,"value":0.2677165354330709},{"number":1,"ticks":84345,"time":34.252318,"value":0.28346456692913385},{"number":1,"ticks":84360,"time":34.258568000000004,"value":0.29133858267716534},{"number":1,"ticks":84375,"time":34.264818000000005,"value":0.30708661417322836},{"number":1,"ticks":84390,"time":34.271068,"value":0.3228346456692913},{"number":1,"ticks":84405,"time":34.277318,"value":0.33070866141732286},{"number":1,"ticks":84420,"time":34.283568,"value":0.3464566929133858},{"number":1,"ticks":84435,"time":34.289818000000004,"value":0.3543307086614173},{"number":1,"ticks":84450,"time":34.296068000000005,"value":0.3700787401574803},{"number":1,"ticks":84465,"time":34.302318,"value":0.3858267716535433},{"number":1,"ticks":84480,"time":34.308568,"value":0.3937007874015748},{"number":1,"ticks":84495,"time":34.314818,"value":0.4094488188976378},{"number":1,"ticks":84510,"time":34.321068000000004,"value":0.41732283464566927},{"number":1,"ticks":84525,"time":34.327318000000005,"value":0.4330708661417323},{"number":1,"ticks":84540,"time":34.333568,"value":0.4409448818897638},{"number":1,"ticks":84570,"time":34.346068,"value":0.44881889763779526},{"number":1,"ticks":84585,"time":34.352318000000004,"value":0.4645669291338583},{"number":1,"ticks":84600,"time":34.358568000000005,"value":0.48031496062992124},{"number":1,"ticks":84615,"time":34.364818,"value":0.4881889763779528},{"number":1,"ticks":84630,"time":34.371068,"value":0.5039370078740157},{"number":1,"ticks":84645,"time":34.377318,"value":0.5118110236220472},{"number":1,"ticks":84660,"time":34.383568000000004,"value":0.5275590551181102},{"number":1,"ticks":84690,"time":34.396068,"value":0.5511811023622047},{"number":1,"ticks":84705,"time":34.402318,"value":0.5590551181102362},{"number":1,"ticks":84720,"time":34.408568,"value":0.5748031496062992},{"number":1,"ticks":84735,"time":34.414818000000004,"value":0.5826771653543307},{"number":1,"ticks":84750,"time":34.421068000000005,"value":0.5984251968503937},{"number":1,"ticks":84765,"time":34.427318,"value":0.6062992125984252},{"number":1,"ticks":84780,"time":34.433568,"value":0.6141732283464567},{"number":1,"ticks":84810,"time":34.446068000000004,"value":0.6299212598425197},{"number":1,"ticks":84825,"time":34.452318000000005,"value":0.6377952755905512},{"number":1,"ticks":84840,"time":34.458568,"value":0.6535433070866141},{"number":1,"ticks":84885,"time":34.477318000000004,"value":0.6614173228346457},{"number":1,"ticks":84900,"time":34.483568000000005,"value":0.6771653543307087},{"number":1,"ticks":84915,"time":34.489818,"value":0.6929133858267716},{"number":1,"ticks":84945,"time":34.502318,"value":0.7165354330708661},{"number":1,"ticks":84960,"time":34.508568000000004,"value":0.7244094488188977},{"number":1,"ticks":84990,"time":34.521068,"value":0.7401574803149606},{"number":1,"ticks":85005,"time":34.527318,"value":0.7559055118110236},{"number":1,"ticks":85035,"time":34.539818000000004,"value":0.7637795275590551},{"number":1,"ticks":85065,"time":34.552318,"value":0.7795275590551181},{"number":1,"ticks":85080,"time":34.558568,"value":0.7874015748031497},{"number":1,"ticks":85110,"time":34.571068000000004,"value":0.8031496062992126},{"number":1,"ticks":85125,"time":34.577318000000005,"value":0.8110236220472441},{"number":1,"ticks":85155,"time":34.589818,"value":0.8267716535433071},{"number":1,"ticks":85170,"time":34.596068,"value":0.8346456692913385},{"number":1,"ticks":85185,"time":34.602318000000004,"value":0.84251968503937},{"number":1,"ticks":85215,"time":34.614818,"value":0.8582677165354331},{"number":1,"ticks":85230,"time":34.621068,"value":0.8661417322834646},{"number":1,"ticks":85245,"time":34.627318,"value":0.8818897637795275},{"number":1,"ticks":85260,"time":34.633568000000004,"value":0.889763779527559},{"number":1,"ticks":85275,"time":34.639818000000005,"value":0.8976377952755905},{"number":1,"ticks":85290,"time":34.646068,"value":0.905511811023622},{"number":1,"ticks":85305,"time":34.652318,"value":0.9133858267716536},{"number":1,"ticks":85320,"time":34.658568,"value":0.9212598425196851},{"number":1,"ticks":85335,"time":34.664818000000004,"value":0.9291338582677166},{"number":1,"ticks":85365,"time":34.677318,"value":0.937007874015748},{"number":1,"ticks":85380,"time":34.683568,"value":0.9448818897637795},{"number":1,"ticks":85425,"time":34.702318000000005,"value":0.952755905511811},{"number":1,"ticks":85440,"time":34.708568,"value":0.9606299212598425},{"number":1,"ticks":85470,"time":34.721068,"value":0.968503937007874},{"number":1,"ticks":85485,"time":34.727318000000004,"value":0.9763779527559056},{"number":1,"ticks":85500,"time":34.733568000000005,"value":0.984251968503937},{"number":1,"ticks":85515,"time":34.739818,"value":0.9921259842519685},{"number":1,"ticks":85530,"time":34.746068,"value":1},{"number":1,"ticks":87360,"time":35.508568000000004,"value":0.5039370078740157},{"number":1,"ticks":149760,"time":61.508568000000004,"value":1},{"number":1,"ticks":150720,"time":61.908568,"value":0},{"number":1,"ticks":151680,"time":62.30856800000001,"value":1},{"number":1,"ticks":152460,"time":62.633568000000004,"value":0},{"number":1,"ticks":157440,"time":64.708568,"value":1},{"number":1,"ticks":158400,"time":65.108568,"value":0},{"number":1,"ticks":159360,"time":65.508568,"value":1},{"number":1,"ticks":160080,"time":65.80856800000001,"value":0},{"number":1,"ticks":165120,"time":67.908568,"value":1},{"number":1,"ticks":166080,"time":68.30856800000001,"value":0},{"number":1,"ticks":167040,"time":68.708568,"value":1},{"number":1,"ticks":167820,"time":69.033568,"value":0},{"number":1,"ticks":180480,"time":74.30856800000001,"value":1},{"number":1,"ticks":181440,"time":74.708568,"value":0},{"number":1,"ticks":182400,"time":75.108568,"value":1},{"number":1,"ticks":183180,"time":75.43356800000001,"value":0},{"number":1,"ticks":188160,"time":77.50856800000001,"value":1},{"number":1,"ticks":189120,"time":77.908568,"value":0},{"number":1,"ticks":190080,"time":78.30856800000001,"value":1},{"number":1,"ticks":190800,"time":78.608568,"value":0},{"number":1,"ticks":195840,"time":80.70856800000001,"value":1},{"number":1,"ticks":196800,"time":81.108568,"value":0},{"number":1,"ticks":197760,"time":81.50856800000001,"value":1},{"number":1,"ticks":198540,"time":81.83356800000001,"value":0},{"number":1,"ticks":211200,"time":87.108568,"value":0},{"number":1,"ticks":226560,"time":93.50856800000001,"value":0.5039370078740157},{"number":1,"ticks":227760,"time":94.00856800000001,"value":0},{"number":1,"ticks":230565,"time":95.17731800000001,"value":0},{"number":1,"ticks":230610,"time":95.19606800000001,"value":0.007874015748031496},{"number":1,"ticks":230625,"time":95.202318,"value":0.047244094488188976},{"number":1,"ticks":230640,"time":95.20856800000001,"value":0.07086614173228346},{"number":1,"ticks":230655,"time":95.21481800000001,"value":0.09448818897637795},{"number":1,"ticks":230670,"time":95.221068,"value":0.11811023622047244},{"number":1,"ticks":230685,"time":95.22731800000001,"value":0.14173228346456693},{"number":1,"ticks":230700,"time":95.233568,"value":0.18110236220472442},{"number":1,"ticks":230715,"time":95.23981800000001,"value":0.2125984251968504},{"number":1,"ticks":230730,"time":95.24606800000001,"value":0.28346456692913385},{"number":1,"ticks":230745,"time":95.252318,"value":0.3700787401574803},{"number":1,"ticks":230760,"time":95.25856800000001,"value":0.41732283464566927},{"number":1,"ticks":230775,"time":95.264818,"value":0.44881889763779526},{"number":1,"ticks":230790,"time":95.27106800000001,"value":0.48031496062992124},{"number":1,"ticks":230805,"time":95.27731800000001,"value":0.49606299212598426},{"number":1,"ticks":230820,"time":95.283568,"value":0.5118110236220472},{"number":1,"ticks":230835,"time":95.28981800000001,"value":0.5354330708661418},{"number":1,"ticks":230850,"time":95.296068,"value":0.5511811023622047},{"number":1,"ticks":230865,"time":95.30231800000001,"value":0.5748031496062992},{"number":1,"ticks":230880,"time":95.30856800000001,"value":0.5984251968503937},{"number":1,"ticks":230895,"time":95.314818,"value":0.6377952755905512},{"number":1,"ticks":230910,"time":95.32106800000001,"value":0.6850393700787402},{"number":1,"ticks":230925,"time":95.327318,"value":0.7322834645669292},{"number":1,"ticks":230940,"time":95.33356800000001,"value":0.7559055118110236},{"number":1,"ticks":230955,"time":95.33981800000001,"value":0.7952755905511811},{"number":1,"ticks":230970,"time":95.346068,"value":0.8346456692913385},{"number":1,"ticks":230985,"time":95.35231800000001,"value":0.8661417322834646},{"number":1,"ticks":231000,"time":95.358568,"value":0.8976377952755905},{"number":1,"ticks":231015,"time":95.36481800000001,"value":0.9291338582677166},{"number":1,"ticks":231030,"time":95.37106800000001,"value":0.9606299212598425},{"number":1,"ticks":231045,"time":95.377318,"value":0.9921259842519685},{"number":1,"ticks":231060,"time":95.38356800000001,"value":1},{"number":1,"ticks":233520,"time":96.408568,"value":0},{"number":1,"ticks":234240,"time":96.70856800000001,"value":0.5039370078740157},{"number":1,"ticks":235440,"time":97.20856800000001,"value":0},{"number":1,"ticks":238245,"time":98.377318,"value":0},{"number":1,"ticks":238290,"time":98.39606800000001,"value":0.007874015748031496},{"number":1,"ticks":238305,"time":98.40231800000001,"value":0.047244094488188976},{"number":1,"ticks":238320,"time":98.408568,"value":0.07086614173228346},{"number":1,"ticks":238335,"time":98.41481800000001,"value":0.09448818897637795},{"number":1,"ticks":238350,"time":98.421068,"value":0.11811023622047244},{"number":1,"ticks":238365,"time":98.42731800000001,"value":0.14173228346456693},{"number":1,"ticks":238380,"time":98.43356800000001,"value":0.18110236220472442},{"number":1,"ticks":238395,"time":98.439818,"value":0.2125984251968504},{"number":1,"ticks":238410,"time":98.44606800000001,"value":0.28346456692913385},{"number":1,"ticks":238425,"time":98.452318,"value":0.3700787401574803},{"number":1,"ticks":238440,"time":98.45856800000001,"value":0.41732283464566927},{"number":1,"ticks":238455,"time":98.46481800000001,"value":0.44881889763779526},{"number":1,"ticks":238470,"time":98.471068,"value":0.48031496062992124},{"number":1,"ticks":238485,"time":98.47731800000001,"value":0.49606299212598426},{"number":1,"ticks":238500,"time":98.483568,"value":0.5118110236220472},{"number":1,"ticks":238515,"time":98.48981800000001,"value":0.5354330708661418},{"number":1,"ticks":238530,"time":98.49606800000001,"value":0.5511811023622047},{"number":1,"ticks":238545,"time":98.502318,"value":0.5748031496062992},{"number":1,"ticks":238560,"time":98.50856800000001,"value":0.5984251968503937},{"number":1,"ticks":238575,"time":98.514818,"value":0.6377952755905512},{"number":1,"ticks":238590,"time":98.52106800000001,"value":0.6850393700787402},{"number":1,"ticks":238605,"time":98.52731800000001,"value":0.7322834645669292},{"number":1,"ticks":238620,"time":98.533568,"value":0.7559055118110236},{"number":1,"ticks":238635,"time":98.53981800000001,"value":0.7952755905511811},{"number":1,"ticks":238650,"time":98.546068,"value":0.8346456692913385},{"number":1,"ticks":238665,"time":98.55231800000001,"value":0.8661417322834646},{"number":1,"ticks":238680,"time":98.55856800000001,"value":0.8976377952755905},{"number":1,"ticks":238695,"time":98.564818,"value":0.9291338582677166},{"number":1,"ticks":238710,"time":98.57106800000001,"value":0.9606299212598425},{"number":1,"ticks":238725,"time":98.577318,"value":0.9921259842519685},{"number":1,"ticks":238740,"time":98.58356800000001,"value":1},{"number":1,"ticks":241440,"time":99.70856800000001,"value":0},{"number":1,"ticks":241920,"time":99.908568,"value":1},{"number":1,"ticks":243360,"time":100.50856800000001,"value":0},{"number":1,"ticks":247680,"time":102.30856800000001,"value":1},{"number":1,"ticks":249120,"time":102.908568,"value":0},{"number":1,"ticks":253920,"time":104.908568,"value":0},{"number":1,"ticks":253995,"time":104.939818,"value":0.007874015748031496},{"number":1,"ticks":254010,"time":104.94606800000001,"value":0.015748031496062992},{"number":1,"ticks":254025,"time":104.952318,"value":0.023622047244094488},{"number":1,"ticks":254040,"time":104.95856800000001,"value":0.031496062992125984},{"number":1,"ticks":254055,"time":104.96481800000001,"value":0.047244094488188976},{"number":1,"ticks":254070,"time":104.971068,"value":0.06299212598425197},{"number":1,"ticks":254085,"time":104.97731800000001,"value":0.07086614173228346},{"number":1,"ticks":254100,"time":104.983568,"value":0.09448818897637795},{"number":1,"ticks":254115,"time":104.98981800000001,"value":0.11023622047244094},{"number":1,"ticks":254130,"time":104.99606800000001,"value":0.11811023622047244},{"number":1,"ticks":254145,"time":105.002318,"value":0.13385826771653545},{"number":1,"ticks":254160,"time":105.00856800000001,"value":0.1732283464566929},{"number":1,"ticks":254175,"time":105.014818,"value":0.1889763779527559},{"number":1,"ticks":254190,"time":105.02106800000001,"value":0.2047244094488189},{"number":1,"ticks":254205,"time":105.02731800000001,"value":0.2204724409448819},{"number":1,"ticks":254220,"time":105.033568,"value":0.25196850393700787},{"number":1,"ticks":254250,"time":105.046068,"value":0.2677165354330709},{"number":1,"ticks":254265,"time":105.05231800000001,"value":0.29133858267716534},{"number":1,"ticks":254280,"time":105.05856800000001,"value":0.30708661417322836},{"number":1,"ticks":254295,"time":105.064818,"value":0.3228346456692913},{"number":1,"ticks":254310,"time":105.07106800000001,"value":0.33858267716535434},{"number":1,"ticks":254325,"time":105.077318,"value":0.36220472440944884},{"number":1,"ticks":254340,"time":105.08356800000001,"value":0.3858267716535433},{"number":1,"ticks":254355,"time":105.08981800000001,"value":0.4015748031496063},{"number":1,"ticks":254385,"time":105.10231800000001,"value":0.4330708661417323},{"number":1,"ticks":254400,"time":105.108568,"value":0.44881889763779526},{"number":1,"ticks":254430,"time":105.12106800000001,"value":0.48031496062992124},{"number":1,"ticks":254445,"time":105.127318,"value":0.49606299212598426},{"number":1,"ticks":254460,"time":105.13356800000001,"value":0.5118110236220472},{"number":1,"ticks":254490,"time":105.14606800000001,"value":0.5433070866141733},{"number":1,"ticks":254505,"time":105.15231800000001,"value":0.5748031496062992},{"number":1,"ticks":254520,"time":105.158568,"value":0.5905511811023622},{"number":1,"ticks":254535,"time":105.16481800000001,"value":0.6141732283464567},{"number":1,"ticks":254550,"time":105.171068,"value":0.6456692913385826},{"number":1,"ticks":254580,"time":105.18356800000001,"value":0.6614173228346457},{"number":1,"ticks":254595,"time":105.189818,"value":0.6929133858267716},{"number":1,"ticks":254610,"time":105.19606800000001,"value":0.7165354330708661},{"number":1,"ticks":254625,"time":105.202318,"value":0.7401574803149606},{"number":1,"ticks":254640,"time":105.20856800000001,"value":0.7559055118110236},{"number":1,"ticks":254655,"time":105.21481800000001,"value":0.7716535433070866},{"number":1,"ticks":254670,"time":105.221068,"value":0.7874015748031497},{"number":1,"ticks":254700,"time":105.233568,"value":0.8110236220472441},{"number":1,"ticks":254715,"time":105.23981800000001,"value":0.84251968503937},{"number":1,"ticks":254730,"time":105.24606800000001,"value":0.8582677165354331},{"number":1,"ticks":254745,"time":105.252318,"value":0.8818897637795275},{"number":1,"ticks":254760,"time":105.25856800000001,"value":0.889763779527559},{"number":1,"ticks":254775,"time":105.264818,"value":0.905511811023622},{"number":1,"ticks":254790,"time":105.27106800000001,"value":0.9212598425196851},{"number":1,"ticks":254805,"time":105.27731800000001,"value":0.937007874015748},{"number":1,"ticks":254820,"time":105.283568,"value":0.952755905511811},{"number":1,"ticks":254835,"time":105.28981800000001,"value":0.9606299212598425},{"number":1,"ticks":254850,"time":105.296068,"value":0.968503937007874},{"number":1,"ticks":254865,"time":105.30231800000001,"value":0.984251968503937},{"number":1,"ticks":254880,"time":105.30856800000001,"value":1},{"number":1,"ticks":256320,"time":105.908568,"value":0},{"number":1,"ticks":257280,"time":106.30856800000001,"value":0.5039370078740157},{"number":1,"ticks":258480,"time":106.80856800000001,"value":0},{"number":1,"ticks":261285,"time":107.97731800000001,"value":0},{"number":1,"ticks":261330,"time":107.99606800000001,"value":0.007874015748031496},{"number":1,"ticks":261345,"time":108.002318,"value":0.047244094488188976},{"number":1,"ticks":261360,"time":108.00856800000001,"value":0.07086614173228346},{"number":1,"ticks":261375,"time":108.014818,"value":0.09448818897637795},{"number":1,"ticks":261390,"time":108.02106800000001,"value":0.11811023622047244},{"number":1,"ticks":261405,"time":108.02731800000001,"value":0.14173228346456693},{"number":1,"ticks":261420,"time":108.033568,"value":0.18110236220472442},{"number":1,"ticks":261435,"time":108.03981800000001,"value":0.2125984251968504},{"number":1,"ticks":261450,"time":108.046068,"value":0.28346456692913385},{"number":1,"ticks":261465,"time":108.05231800000001,"value":0.3700787401574803},{"number":1,"ticks":261480,"time":108.05856800000001,"value":0.41732283464566927},{"number":1,"ticks":261495,"time":108.064818,"value":0.44881889763779526},{"number":1,"ticks":261510,"time":108.07106800000001,"value":0.48031496062992124},{"number":1,"ticks":261525,"time":108.077318,"value":0.49606299212598426},{"number":1,"ticks":261540,"time":108.08356800000001,"value":0.5118110236220472},{"number":1,"ticks":261555,"time":108.08981800000001,"value":0.5354330708661418},{"number":1,"ticks":261570,"time":108.096068,"value":0.5511811023622047},{"number":1,"ticks":261585,"time":108.10231800000001,"value":0.5748031496062992},{"number":1,"ticks":261600,"time":108.108568,"value":0.5984251968503937},{"number":1,"ticks":261615,"time":108.11481800000001,"value":0.6377952755905512},{"number":1,"ticks":261630,"time":108.12106800000001,"value":0.6850393700787402},{"number":1,"ticks":261645,"time":108.127318,"value":0.7322834645669292},{"number":1,"ticks":261660,"time":108.13356800000001,"value":0.7559055118110236},{"number":1,"ticks":261675,"time":108.139818,"value":0.7952755905511811},{"number":1,"ticks":261690,"time":108.14606800000001,"value":0.8346456692913385},{"number":1,"ticks":261705,"time":108.15231800000001,"value":0.8661417322834646},{"number":1,"ticks":261720,"time":108.158568,"value":0.8976377952755905},{"number":1,"ticks":261735,"time":108.16481800000001,"value":0.9291338582677166},{"number":1,"ticks":261750,"time":108.171068,"value":0.9606299212598425},{"number":1,"ticks":261765,"time":108.17731800000001,"value":0.9921259842519685},{"number":1,"ticks":261780,"time":108.18356800000001,"value":1},{"number":1,"ticks":264240,"time":109.20856800000001,"value":0},{"number":1,"ticks":264960,"time":109.50856800000001,"value":0.5039370078740157},{"number":1,"ticks":266160,"time":110.00856800000001,"value":0},{"number":1,"ticks":268965,"time":111.17731800000001,"value":0},{"number":1,"ticks":269010,"time":111.19606800000001,"value":0.007874015748031496},{"number":1,"ticks":269025,"time":111.202318,"value":0.047244094488188976},{"number":1,"ticks":269040,"time":111.20856800000001,"value":0.07086614173228346},{"number":1,"ticks":269055,"time":111.21481800000001,"value":0.09448818897637795},{"number":1,"ticks":269070,"time":111.221068,"value":0.11811023622047244},{"number":1,"ticks":269085,"time":111.22731800000001,"value":0.14173228346456693},{"number":1,"ticks":269100,"time":111.233568,"value":0.18110236220472442},{"number":1,"ticks":269115,"time":111.23981800000001,"value":0.2125984251968504},{"number":1,"ticks":269130,"time":111.24606800000001,"value":0.28346456692913385},{"number":1,"ticks":269145,"time":111.252318,"value":0.3700787401574803},{"number":1,"ticks":269160,"time":111.25856800000001,"value":0.41732283464566927},{"number":1,"ticks":269175,"time":111.264818,"value":0.44881889763779526},{"number":1,"ticks":269190,"time":111.27106800000001,"value":0.48031496062992124},{"number":1,"ticks":269205,"time":111.27731800000001,"value":0.49606299212598426},{"number":1,"ticks":269220,"time":111.283568,"value":0.5118110236220472},{"number":1,"ticks":269235,"time":111.28981800000001,"value":0.5354330708661418},{"number":1,"ticks":269250,"time":111.296068,"value":0.5511811023622047},{"number":1,"ticks":269265,"time":111.30231800000001,"value":0.5748031496062992},{"number":1,"ticks":269280,"time":111.30856800000001,"value":0.5984251968503937},{"number":1,"ticks":269295,"time":111.314818,"value":0.6377952755905512},{"number":1,"ticks":269310,"time":111.32106800000001,"value":0.6850393700787402},{"number":1,"ticks":269325,"time":111.327318,"value":0.7322834645669292},{"number":1,"ticks":269340,"time":111.33356800000001,"value":0.7559055118110236},{"number":1,"ticks":269355,"time":111.33981800000001,"value":0.7952755905511811},{"number":1,"ticks":269370,"time":111.346068,"value":0.8346456692913385},{"number":1,"ticks":269385,"time":111.35231800000001,"value":0.8661417322834646},{"number":1,"ticks":269400,"time":111.358568,"value":0.8976377952755905},{"number":1,"ticks":269415,"time":111.36481800000001,"value":0.9291338582677166},{"number":1,"ticks":269430,"time":111.37106800000001,"value":0.9606299212598425},{"number":1,"ticks":269445,"time":111.377318,"value":0.9921259842519685},{"number":1,"ticks":269460,"time":111.38356800000001,"value":1},{"number":1,"ticks":272160,"time":112.50856800000001,"value":0},{"number":1,"ticks":272640,"time":112.70856800000001,"value":1},{"number":1,"ticks":274080,"time":113.30856800000001,"value":0},{"number":1,"ticks":278400,"time":115.108568,"value":1},{"number":1,"ticks":279840,"time":115.70856800000001,"value":0},{"number":1,"ticks":283680,"time":117.30856800000001,"value":0},{"number":1,"ticks":283740,"time":117.33356800000001,"value":0.007874015748031496},{"number":1,"ticks":283755,"time":117.33981800000001,"value":0.015748031496062992},{"number":1,"ticks":283770,"time":117.346068,"value":0.023622047244094488},{"number":1,"ticks":283785,"time":117.35231800000001,"value":0.031496062992125984},{"number":1,"ticks":283800,"time":117.358568,"value":0.05511811023622047},{"number":1,"ticks":283815,"time":117.36481800000001,"value":0.07086614173228346},{"number":1,"ticks":283830,"time":117.37106800000001,"value":0.07874015748031496},{"number":1,"ticks":283845,"time":117.377318,"value":0.09448818897637795},{"number":1,"ticks":283860,"time":117.38356800000001,"value":0.11023622047244094},{"number":1,"ticks":283875,"time":117.389818,"value":0.12598425196850394},{"number":1,"ticks":283890,"time":117.39606800000001,"value":0.14960629921259844},{"number":1,"ticks":283905,"time":117.40231800000001,"value":0.16535433070866143},{"number":1,"ticks":283920,"time":117.408568,"value":0.18110236220472442},{"number":1,"ticks":283935,"time":117.41481800000001,"value":0.1968503937007874},{"number":1,"ticks":283950,"time":117.421068,"value":0.2047244094488189},{"number":1,"ticks":283965,"time":117.42731800000001,"value":0.2283464566929134},{"number":1,"ticks":283980,"time":117.43356800000001,"value":0.23622047244094488},{"number":1,"ticks":283995,"time":117.439818,"value":0.25984251968503935},{"number":1,"ticks":284010,"time":117.44606800000001,"value":0.2677165354330709},{"number":1,"ticks":284025,"time":117.452318,"value":0.28346456692913385},{"number":1,"ticks":284040,"time":117.45856800000001,"value":0.29133858267716534},{"number":1,"ticks":284055,"time":117.46481800000001,"value":0.30708661417322836},{"number":1,"ticks":284070,"time":117.471068,"value":0.3228346456692913},{"number":1,"ticks":284085,"time":117.47731800000001,"value":0.33070866141732286},{"number":1,"ticks":284100,"time":117.483568,"value":0.3464566929133858},{"number":1,"ticks":284115,"time":117.48981800000001,"value":0.3543307086614173},{"number":1,"ticks":284130,"time":117.49606800000001,"value":0.3700787401574803},{"number":1,"ticks":284145,"time":117.502318,"value":0.3858267716535433},{"number":1,"ticks":284160,"time":117.50856800000001,"value":0.3937007874015748},{"number":1,"ticks":284175,"time":117.514818,"value":0.4094488188976378},{"number":1,"ticks":284190,"time":117.52106800000001,"value":0.41732283464566927},{"number":1,"ticks":284205,"time":117.52731800000001,"value":0.4330708661417323},{"number":1,"ticks":284220,"time":117.533568,"value":0.4409448818897638},{"number":1,"ticks":284250,"time":117.546068,"value":0.44881889763779526},{"number":1,"ticks":284265,"time":117.55231800000001,"value":0.4645669291338583},{"number":1,"ticks":284280,"time":117.55856800000001,"value":0.48031496062992124},{"number":1,"ticks":284295,"time":117.564818,"value":0.4881889763779528},{"number":1,"ticks":284310,"time":117.57106800000001,"value":0.5039370078740157},{"number":1,"ticks":284325,"time":117.577318,"value":0.5118110236220472},{"number":1,"ticks":284340,"time":117.58356800000001,"value":0.5275590551181102},{"number":1,"ticks":284370,"time":117.596068,"value":0.5511811023622047},{"number":1,"ticks":284385,"time":117.60231800000001,"value":0.5590551181102362},{"number":1,"ticks":284400,"time":117.608568,"value":0.5748031496062992},{"number":1,"ticks":284415,"time":117.61481800000001,"value":0.5826771653543307},{"number":1,"ticks":284430,"time":117.62106800000001,"value":0.5984251968503937},{"number":1,"ticks":284445,"time":117.627318,"value":0.6062992125984252},{"number":1,"ticks":284460,"time":117.63356800000001,"value":0.6141732283464567},{"number":1,"ticks":284490,"time":117.64606800000001,"value":0.6299212598425197},{"number":1,"ticks":284505,"time":117.65231800000001,"value":0.6377952755905512},{"number":1,"ticks":284520,"time":117.658568,"value":0.6535433070866141},{"number":1,"ticks":284565,"time":117.67731800000001,"value":0.6614173228346457},{"number":1,"ticks":284580,"time":117.68356800000001,"value":0.6771653543307087},{"number":1,"ticks":284595,"time":117.689818,"value":0.6929133858267716},{"number":1,"ticks":284625,"time":117.702318,"value":0.7165354330708661},{"number":1,"ticks":284640,"time":117.70856800000001,"value":0.7244094488188977},{"number":1,"ticks":284670,"time":117.721068,"value":0.7401574803149606},{"number":1,"ticks":284685,"time":117.72731800000001,"value":0.7559055118110236},{"number":1,"ticks":284715,"time":117.73981800000001,"value":0.7637795275590551},{"number":1,"ticks":284745,"time":117.752318,"value":0.7795275590551181},{"number":1,"ticks":284760,"time":117.75856800000001,"value":0.7874015748031497},{"number":1,"ticks":284790,"time":117.77106800000001,"value":0.8031496062992126},{"number":1,"ticks":284805,"time":117.77731800000001,"value":0.8110236220472441},{"number":1,"ticks":284835,"time":117.78981800000001,"value":0.8267716535433071},{"number":1,"ticks":284850,"time":117.796068,"value":0.8346456692913385},{"number":1,"ticks":284865,"time":117.80231800000001,"value":0.84251968503937},{"number":1,"ticks":284895,"time":117.814818,"value":0.8582677165354331},{"number":1,"ticks":284910,"time":117.82106800000001,"value":0.8661417322834646},{"number":1,"ticks":284925,"time":117.827318,"value":0.8818897637795275},{"number":1,"ticks":284940,"time":117.83356800000001,"value":0.889763779527559},{"number":1,"ticks":284955,"time":117.83981800000001,"value":0.8976377952755905},{"number":1,"ticks":284970,"time":117.846068,"value":0.905511811023622},{"number":1,"ticks":284985,"time":117.85231800000001,"value":0.9133858267716536},{"number":1,"ticks":285000,"time":117.858568,"value":0.9212598425196851},{"number":1,"ticks":285015,"time":117.86481800000001,"value":0.9291338582677166},{"number":1,"ticks":285045,"time":117.877318,"value":0.937007874015748},{"number":1,"ticks":285060,"time":117.88356800000001,"value":0.9448818897637795},{"number":1,"ticks":285105,"time":117.90231800000001,"value":0.952755905511811},{"number":1,"ticks":285120,"time":117.908568,"value":0.9606299212598425},{"number":1,"ticks":285150,"time":117.921068,"value":0.968503937007874},{"number":1,"ticks":285165,"time":117.92731800000001,"value":0.9763779527559056},{"number":1,"ticks":285180,"time":117.93356800000001,"value":0.984251968503937},{"number":1,"ticks":285195,"time":117.939818,"value":0.9921259842519685},{"number":1,"ticks":285210,"time":117.94606800000001,"value":1},{"number":1,"ticks":287040,"time":118.70856800000001,"value":0.5039370078740157},{"number":1,"ticks":349440,"time":144.708568,"value":1},{"number":1,"ticks":350400,"time":145.10856800000002,"value":0},{"number":1,"ticks":351360,"time":145.508568,"value":1},{"number":1,"ticks":352140,"time":145.833568,"value":0},{"number":1,"ticks":357120,"time":147.908568,"value":1},{"number":1,"ticks":358080,"time":148.308568,"value":0},{"number":1,"ticks":359040,"time":148.708568,"value":1},{"number":1,"ticks":359760,"time":149.008568,"value":0},{"number":1,"ticks":364800,"time":151.10856800000002,"value":1},{"number":1,"ticks":365760,"time":151.508568,"value":0},{"number":1,"ticks":366720,"time":151.908568,"value":1},{"number":1,"ticks":367500,"time":152.23356800000002,"value":0},{"number":1,"ticks":380160,"time":157.50856800000003,"value":1},{"number":1,"ticks":381120,"time":157.908568,"value":0},{"number":1,"ticks":382080,"time":158.308568,"value":1},{"number":1,"ticks":382860,"time":158.63356800000003,"value":0},{"number":1,"ticks":387840,"time":160.708568,"value":1},{"number":1,"ticks":388800,"time":161.10856800000002,"value":0},{"number":1,"ticks":389760,"time":161.50856800000003,"value":1},{"number":1,"ticks":390480,"time":161.808568,"value":0},{"number":1,"ticks":395520,"time":163.908568,"value":1},{"number":1,"ticks":396480,"time":164.308568,"value":0},{"number":1,"ticks":397440,"time":164.708568,"value":1},{"number":1,"ticks":398220,"time":165.033568,"value":0},{"number":1,"ticks":410880,"time":170.308568,"value":0}],"7":[{"number":7,"ticks":149640,"time":61.45856800000001,"value":0.7874015748031497},{"number":7,"ticks":349320,"time":144.658568,"value":0.7874015748031497}]},"pitchBends":[{"ticks":3840,"time":0.48,"value":0.078125},{"ticks":11520,"time":3.9085680000000003,"value":0},{"ticks":76790,"time":31.104401333333332,"value":0},{"ticks":76800,"time":31.108568,"value":-1},{"ticks":77385,"time":31.352318,"value":-1},{"ticks":77415,"time":31.364818,"value":-0.984375},{"ticks":77430,"time":31.371068,"value":-0.703125},{"ticks":77445,"time":31.377318,"value":-0.625},{"ticks":77460,"time":31.383568,"value":-0.578125},{"ticks":77475,"time":31.389818,"value":-0.484375},{"ticks":77490,"time":31.396068,"value":-0.234375},{"ticks":77505,"time":31.402318,"value":-0.109375},{"ticks":77520,"time":31.408568,"value":-0.09375},{"ticks":77535,"time":31.414818,"value":-0.03125},{"ticks":77550,"time":31.421068,"value":0.015625},{"ticks":77565,"time":31.427318,"value":0.078125},{"ticks":77580,"time":31.433568,"value":0.109375},{"ticks":77595,"time":31.439818,"value":0.21875},{"ticks":77610,"time":31.446068,"value":0.28125},{"ticks":77625,"time":31.452318,"value":0.34375},{"ticks":77640,"time":31.458568,"value":0.390625},{"ticks":77655,"time":31.464818,"value":0.484375},{"ticks":77670,"time":31.471068,"value":0.609375},{"ticks":77685,"time":31.477318,"value":0.78125},{"ticks":77700,"time":31.483568,"value":0.84375},{"ticks":77715,"time":31.489818,"value":0.92041015625},{"ticks":77730,"time":31.496068,"value":0.9765625},{"ticks":77750,"time":31.50440133333333,"value":0.999755859375},{"ticks":77755,"time":31.50648466666667,"value":0},{"ticks":149760,"time":61.508568000000004,"value":0},{"ticks":211200,"time":87.108568,"value":0},{"ticks":276470,"time":114.30440133333333,"value":0},{"ticks":276480,"time":114.30856800000001,"value":-1},{"ticks":277065,"time":114.55231800000001,"value":-1},{"ticks":277095,"time":114.564818,"value":-0.984375},{"ticks":277110,"time":114.57106800000001,"value":-0.703125},{"ticks":277125,"time":114.577318,"value":-0.625},{"ticks":277140,"time":114.58356800000001,"value":-0.578125},{"ticks":277155,"time":114.58981800000001,"value":-0.484375},{"ticks":277170,"time":114.596068,"value":-0.234375},{"ticks":277185,"time":114.60231800000001,"value":-0.109375},{"ticks":277200,"time":114.608568,"value":-0.09375},{"ticks":277215,"time":114.61481800000001,"value":-0.03125},{"ticks":277230,"time":114.62106800000001,"value":0.015625},{"ticks":277245,"time":114.627318,"value":0.078125},{"ticks":277260,"time":114.63356800000001,"value":0.109375},{"ticks":277275,"time":114.639818,"value":0.21875},{"ticks":277290,"time":114.64606800000001,"value":0.28125},{"ticks":277305,"time":114.65231800000001,"value":0.34375},{"ticks":277320,"time":114.658568,"value":0.390625},{"ticks":277335,"time":114.66481800000001,"value":0.484375},{"ticks":277350,"time":114.671068,"value":0.609375},{"ticks":277365,"time":114.67731800000001,"value":0.78125},{"ticks":277380,"time":114.68356800000001,"value":0.84375},{"ticks":277395,"time":114.689818,"value":0.92041015625},{"ticks":277410,"time":114.69606800000001,"value":0.9765625},{"ticks":277430,"time":114.70440133333334,"value":0.9998779296875},{"ticks":277435,"time":114.70648466666668,"value":0},{"ticks":349440,"time":144.708568,"value":0},{"ticks":410880,"time":170.308568,"value":0}],"instrument":{"family":"synth pad","number":93,"name":"pad 6 (metallic)"},"name":"","notes":[{"duration":0.6428565000000002,"durationTicks":1440,"midi":81,"name":"A5","ticks":3840,"time":0.48,"velocity":0.7874015748031497},{"duration":0.10714274999999995,"durationTicks":240,"midi":76,"name":"E5","ticks":5280,"time":1.1228565000000001,"velocity":0.7874015748031497},{"duration":0.10714274999999995,"durationTicks":240,"midi":79,"name":"G5","ticks":5520,"time":1.22999925,"velocity":0.7874015748031497},{"duration":0.2142854999999999,"durationTicks":480,"midi":81,"name":"A5","ticks":5760,"time":1.337142,"velocity":0.7874015748031497},{"duration":0.21428550000000013,"durationTicks":480,"midi":83,"name":"B5","ticks":6240,"time":1.5514275,"velocity":0.7874015748031497},{"duration":0.21428550000000013,"durationTicks":480,"midi":86,"name":"D6","ticks":6720,"time":1.765713,"velocity":0.7874015748031497},{"duration":0.10714274999999995,"durationTicks":240,"midi":83,"name":"B5","ticks":7200,"time":1.9799985000000002,"velocity":0.7874015748031497},{"duration":0.10714274999999995,"durationTicks":240,"midi":86,"name":"D6","ticks":7440,"time":2.08714125,"velocity":0.7874015748031497},{"duration":1.6071412500000002,"durationTicks":3600,"midi":88,"name":"E6","ticks":7680,"time":2.194284,"velocity":0.7874015748031497},{"duration":0.10000000000000142,"durationTicks":240,"midi":59,"name":"B3","ticks":26400,"time":10.108568,"velocity":0.7874015748031497},{"duration":0.09999999999999964,"durationTicks":240,"midi":62,"name":"D4","ticks":26640,"time":10.208568000000001,"velocity":0.7874015748031497},{"duration":0.5166666666666675,"durationTicks":1240,"midi":64,"name":"E4","ticks":26880,"time":10.308568000000001,"velocity":0.7874015748031497},{"duration":0.09999999999999964,"durationTicks":240,"midi":64,"name":"E4","ticks":28320,"time":10.908568,"velocity":0.7874015748031497},{"duration":0.09999999999999964,"durationTicks":240,"midi":67,"name":"G4","ticks":28560,"time":11.008568,"velocity":0.7874015748031497},{"duration":0.20000000000000107,"durationTicks":480,"midi":69,"name":"A4","ticks":28800,"time":11.108568,"velocity":0.7874015748031497},{"duration":0.033333333333333215,"durationTicks":80,"midi":69,"name":"A4","ticks":29280,"time":11.308568000000001,"velocity":0.7874015748031497},{"duration":0.09999999999999964,"durationTicks":240,"midi":71,"name":"B4","ticks":29360,"time":11.341901333333334,"velocity":0.7874015748031497},{"duration":0.033333333333333215,"durationTicks":80,"midi":65,"name":"F4","ticks":29760,"time":11.508568,"velocity":0.7874015748031497},{"duration":0.16666666666666785,"durationTicks":400,"midi":66,"name":"F#4","ticks":29840,"time":11.541901333333334,"velocity":0.7874015748031497},{"duration":0.1999999999999993,"durationTicks":480,"midi":62,"name":"D4","ticks":30240,"time":11.708568000000001,"velocity":0.7874015748031497},{"duration":1.3000000000000007,"durationTicks":3120,"midi":59,"name":"B3","ticks":30720,"time":11.908568,"velocity":0.7874015748031497},{"duration":0.09999999999999964,"durationTicks":240,"midi":59,"name":"B3","ticks":34080,"time":13.308568000000001,"velocity":0.7874015748031497},{"duration":0.10000000000000142,"durationTicks":240,"midi":62,"name":"D4","ticks":34320,"time":13.408568,"velocity":0.7874015748031497},{"duration":0.5166666666666657,"durationTicks":1240,"midi":64,"name":"E4","ticks":34560,"time":13.508568000000002,"velocity":0.7874015748031497},{"duration":0.09999999999999964,"durationTicks":240,"midi":64,"name":"E4","ticks":36000,"time":14.108568000000002,"velocity":0.7874015748031497},{"duration":0.09999999999999964,"durationTicks":240,"midi":67,"name":"G4","ticks":36240,"time":14.208568000000001,"velocity":0.7874015748031497},{"duration":0.20000000000000107,"durationTicks":480,"midi":69,"name":"A4","ticks":36480,"time":14.308568000000001,"velocity":0.7874015748031497},{"duration":0.03333333333333144,"durationTicks":80,"midi":69,"name":"A4","ticks":36960,"time":14.508568000000002,"velocity":0.7874015748031497},{"duration":0.10000000000000142,"durationTicks":240,"midi":71,"name":"B4","ticks":37040,"time":14.541901333333334,"velocity":0.7874015748031497},{"duration":0.033333333333333215,"durationTicks":80,"midi":73,"name":"C#5","ticks":37440,"time":14.708568000000001,"velocity":0.7874015748031497},{"duration":0.16666666666666607,"durationTicks":400,"midi":74,"name":"D5","ticks":37520,"time":14.741901333333335,"velocity":0.7874015748031497},{"duration":0.20000000000000107,"durationTicks":480,"midi":76,"name":"E5","ticks":37920,"time":14.908568,"velocity":0.7874015748031497},{"duration":1.2999999999999972,"durationTicks":3120,"midi":71,"name":"B4","ticks":38400,"time":15.108568000000002,"velocity":0.7874015748031497},{"duration":0.10000000000000142,"durationTicks":240,"midi":71,"name":"B4","ticks":41760,"time":16.508568,"velocity":0.7874015748031497},{"duration":0.09999999999999787,"durationTicks":240,"midi":74,"name":"D5","ticks":42000,"time":16.608568,"velocity":0.7874015748031497},{"duration":0.6000000000000014,"durationTicks":1440,"midi":76,"name":"E5","ticks":42240,"time":16.708568,"velocity":0.7874015748031497},{"duration":0.03333333333333499,"durationTicks":80,"midi":78,"name":"F#5","ticks":43680,"time":17.308568,"velocity":0.7874015748031497},{"duration":0.1666666666666643,"durationTicks":400,"midi":79,"name":"G5","ticks":43760,"time":17.341901333333336,"velocity":0.7874015748031497},{"duration":0.1999999999999993,"durationTicks":480,"midi":78,"name":"F#5","ticks":44160,"time":17.508568,"velocity":0.7874015748031497},{"duration":0.10000000000000142,"durationTicks":240,"midi":76,"name":"E5","ticks":44640,"time":17.708568,"velocity":0.7874015748031497},{"duration":0.20000000000000284,"durationTicks":480,"midi":74,"name":"D5","ticks":45120,"time":17.908568,"velocity":0.7874015748031497},{"duration":0.1999999999999993,"durationTicks":480,"midi":67,"name":"G4","ticks":45600,"time":18.108568,"velocity":0.7874015748031497},{"duration":0.1999999999999993,"durationTicks":480,"midi":69,"name":"A4","ticks":46080,"time":18.308568,"velocity":0.7874015748031497},{"duration":0.06666666666666643,"durationTicks":160,"midi":69,"name":"A4","ticks":46560,"time":18.508568,"velocity":0.7874015748031497},{"duration":0.06666666666666643,"durationTicks":160,"midi":71,"name":"B4","ticks":46720,"time":18.575234666666667,"velocity":0.7874015748031497},{"duration":0.06666666666666643,"durationTicks":160,"midi":69,"name":"A4","ticks":46880,"time":18.641901333333333,"velocity":0.7874015748031497},{"duration":0.1999999999999993,"durationTicks":480,"midi":67,"name":"G4","ticks":47040,"time":18.708568,"velocity":0.7874015748031497},{"duration":0.20000000000000284,"durationTicks":480,"midi":69,"name":"A4","ticks":47520,"time":18.908568,"velocity":0.7874015748031497},{"duration":0.5999999999999979,"durationTicks":1440,"midi":71,"name":"B4","ticks":48000,"time":19.108568,"velocity":0.7874015748031497},{"duration":0.01666666666666572,"durationTicks":40,"midi":65,"name":"F4","ticks":49520,"time":19.741901333333335,"velocity":0.7874015748031497},{"duration":0.14999999999999858,"durationTicks":360,"midi":64,"name":"E4","ticks":49560,"time":19.758568,"velocity":0.7874015748031497},{"duration":0.40000000000000213,"durationTicks":960,"midi":67,"name":"G4","ticks":49920,"time":19.908568,"velocity":0.7874015748031497},{"duration":0.18333333333333357,"durationTicks":440,"midi":69,"name":"A4","ticks":50880,"time":20.308568,"velocity":0.7874015748031497},{"duration":0.18333333333333357,"durationTicks":440,"midi":71,"name":"B4","ticks":51360,"time":20.508568,"velocity":0.7874015748031497},{"duration":0.1999999999999993,"durationTicks":480,"midi":66,"name":"F#4","ticks":51840,"time":20.708568,"velocity":0.7874015748031497},{"duration":0.01666666666666572,"durationTicks":40,"midi":66,"name":"F#4","ticks":52320,"time":20.908568,"velocity":0.7874015748031497},{"duration":0.18333333333333357,"durationTicks":440,"midi":67,"name":"G4","ticks":52360,"time":20.925234666666665,"velocity":0.7874015748031497},{"duration":0.20000000000000284,"durationTicks":480,"midi":69,"name":"A4","ticks":52800,"time":21.108567999999998,"velocity":0.7874015748031497},{"duration":0.1999999999999993,"durationTicks":480,"midi":62,"name":"D4","ticks":53280,"time":21.308568,"velocity":0.7874015748031497},{"duration":0.09999999999999787,"durationTicks":240,"midi":64,"name":"E4","ticks":53760,"time":21.508568,"velocity":0.7874015748031497},{"duration":0.10000000000000142,"durationTicks":240,"midi":67,"name":"G4","ticks":54000,"time":21.608567999999998,"velocity":0.7874015748031497},{"duration":1,"durationTicks":2400,"midi":64,"name":"E4","ticks":54240,"time":21.708568,"velocity":0.7874015748031497},{"duration":0.10000000000000142,"durationTicks":240,"midi":59,"name":"B3","ticks":57120,"time":22.908568,"velocity":0.7874015748031497},{"duration":0.10000000000000142,"durationTicks":240,"midi":62,"name":"D4","ticks":57360,"time":23.008568,"velocity":0.7874015748031497},{"duration":0.5166666666666657,"durationTicks":1240,"midi":64,"name":"E4","ticks":57600,"time":23.108568,"velocity":0.7874015748031497},{"duration":0.10000000000000142,"durationTicks":240,"midi":64,"name":"E4","ticks":59040,"time":23.708568,"velocity":0.7874015748031497},{"duration":0.09999999999999787,"durationTicks":240,"midi":67,"name":"G4","ticks":59280,"time":23.808568,"velocity":0.7874015748031497},{"duration":0.20000000000000284,"durationTicks":480,"midi":69,"name":"A4","ticks":59520,"time":23.908568,"velocity":0.7874015748031497},{"duration":0.03333333333333144,"durationTicks":80,"midi":69,"name":"A4","ticks":60000,"time":24.108568,"velocity":0.7874015748031497},{"duration":0.10000000000000142,"durationTicks":240,"midi":71,"name":"B4","ticks":60080,"time":24.141901333333333,"velocity":0.7874015748031497},{"duration":0.03333333333333499,"durationTicks":80,"midi":65,"name":"F4","ticks":60480,"time":24.308568,"velocity":0.7874015748031497},{"duration":0.1666666666666643,"durationTicks":400,"midi":66,"name":"F#4","ticks":60560,"time":24.341901333333336,"velocity":0.7874015748031497},{"duration":0.1999999999999993,"durationTicks":480,"midi":62,"name":"D4","ticks":60960,"time":24.508568,"velocity":0.7874015748031497},{"duration":1.3000000000000007,"durationTicks":3120,"midi":59,"name":"B3","ticks":61440,"time":24.708568,"velocity":0.7874015748031497},{"duration":0.09999999999999787,"durationTicks":240,"midi":59,"name":"B3","ticks":64800,"time":26.108568,"velocity":0.7874015748031497},{"duration":0.10000000000000142,"durationTicks":240,"midi":62,"name":"D4","ticks":65040,"time":26.208568,"velocity":0.7874015748031497},{"duration":0.5166666666666657,"durationTicks":1240,"midi":64,"name":"E4","ticks":65280,"time":26.308568,"velocity":0.7874015748031497},{"duration":0.10000000000000142,"durationTicks":240,"midi":64,"name":"E4","ticks":66720,"time":26.908568,"velocity":0.7874015748031497},{"duration":0.10000000000000142,"durationTicks":240,"midi":67,"name":"G4","ticks":66960,"time":27.008568,"velocity":0.7874015748031497},{"duration":0.1999999999999993,"durationTicks":480,"midi":69,"name":"A4","ticks":67200,"time":27.108568,"velocity":0.7874015748031497},{"duration":0.03333333333333499,"durationTicks":80,"midi":69,"name":"A4","ticks":67680,"time":27.308568,"velocity":0.7874015748031497},{"duration":0.09999999999999787,"durationTicks":240,"midi":71,"name":"B4","ticks":67760,"time":27.341901333333336,"velocity":0.7874015748031497},{"duration":0.03333333333333499,"durationTicks":80,"midi":73,"name":"C#5","ticks":68160,"time":27.508568,"velocity":0.7874015748031497},{"duration":0.1666666666666643,"durationTicks":400,"midi":74,"name":"D5","ticks":68240,"time":27.541901333333335,"velocity":0.7874015748031497},{"duration":0.1999999999999993,"durationTicks":480,"midi":76,"name":"E5","ticks":68640,"time":27.708568,"velocity":0.7874015748031497},{"duration":1.3000000000000007,"durationTicks":3120,"midi":71,"name":"B4","ticks":69120,"time":27.908568,"velocity":0.7874015748031497},{"duration":0.09999999999999787,"durationTicks":240,"midi":71,"name":"B4","ticks":72480,"time":29.308568,"velocity":0.7874015748031497},{"duration":0.10000000000000142,"durationTicks":240,"midi":74,"name":"D5","ticks":72720,"time":29.408568,"velocity":0.7874015748031497},{"duration":0.6000000000000014,"durationTicks":1440,"midi":76,"name":"E5","ticks":72960,"time":29.508568,"velocity":0.7874015748031497},{"duration":0.03333333333333144,"durationTicks":80,"midi":78,"name":"F#5","ticks":74400,"time":30.108568,"velocity":0.7874015748031497},{"duration":0.16666666666666785,"durationTicks":400,"midi":79,"name":"G5","ticks":74480,"time":30.141901333333333,"velocity":0.7874015748031497},{"duration":0.1999999999999993,"durationTicks":480,"midi":78,"name":"F#5","ticks":74880,"time":30.308568,"velocity":0.7874015748031497},{"duration":0.10000000000000142,"durationTicks":240,"midi":76,"name":"E5","ticks":75360,"time":30.508568,"velocity":0.7874015748031497},{"duration":0.1999999999999993,"durationTicks":480,"midi":74,"name":"D5","ticks":75840,"time":30.708568,"velocity":0.7874015748031497},{"duration":0.18333333333333357,"durationTicks":440,"midi":67,"name":"G4","ticks":76320,"time":30.908568,"velocity":0.7874015748031497},{"duration":0.3958333333333286,"durationTicks":950,"midi":71,"name":"B4","ticks":76800,"time":31.108568,"velocity":0.7874015748031497},{"duration":0.3999999999999986,"durationTicks":960,"midi":78,"name":"F#5","ticks":77760,"time":31.508568,"velocity":0.7874015748031497},{"duration":0.600000000000005,"durationTicks":1440,"midi":76,"name":"E5","ticks":78720,"time":31.908568,"velocity":0.7874015748031497},{"duration":0.10000000000000142,"durationTicks":240,"midi":68,"name":"G#4","ticks":80160,"time":32.508568000000004,"velocity":0.7874015748031497},{"duration":0.09999999999999432,"durationTicks":240,"midi":71,"name":"B4","ticks":80400,"time":32.608568000000005,"velocity":0.7874015748031497},{"duration":0.4000000000000057,"durationTicks":960,"midi":73,"name":"C#5","ticks":80640,"time":32.708568,"velocity":0.7874015748031497},{"duration":0.18333333333333002,"durationTicks":440,"midi":76,"name":"E5","ticks":81600,"time":33.108568000000005,"velocity":0.7874015748031497},{"duration":0.01666666666666572,"durationTicks":40,"midi":79,"name":"G5","ticks":82040,"time":33.291901333333335,"velocity":0.7874015748031497},{"duration":0.18333333333333002,"durationTicks":440,"midi":80,"name":"G#5","ticks":82080,"time":33.308568,"velocity":0.7874015748031497},{"duration":0.19999999999999574,"durationTicks":480,"midi":78,"name":"F#5","ticks":82560,"time":33.508568000000004,"velocity":0.7874015748031497},{"duration":0.18333333333333002,"durationTicks":440,"midi":76,"name":"E5","ticks":83080,"time":33.72523466666667,"velocity":0.7874015748031497},{"duration":0.20000000000000284,"durationTicks":480,"midi":75,"name":"D#5","ticks":83520,"time":33.908568,"velocity":0.7874015748031497},{"duration":1.3999999999999986,"durationTicks":3360,"midi":73,"name":"C#5","ticks":84000,"time":34.108568000000005,"velocity":0.7874015748031497},{"duration":0.3999999999999986,"durationTicks":960,"midi":71,"name":"B4","ticks":149760,"time":61.508568000000004,"velocity":0.7874015748031497},{"duration":0.20000000000000284,"durationTicks":480,"midi":69,"name":"A4","ticks":150720,"time":61.908568,"velocity":0.7874015748031497},{"duration":0.20000000000000284,"durationTicks":480,"midi":71,"name":"B4","ticks":151200,"time":62.108568000000005,"velocity":0.7874015748031497},{"duration":0.3333333333333357,"durationTicks":800,"midi":74,"name":"D5","ticks":151680,"time":62.30856800000001,"velocity":0.7874015748031497},{"duration":0.19999999999999574,"durationTicks":480,"midi":76,"name":"E5","ticks":152640,"time":62.70856800000001,"velocity":0.7874015748031497},{"duration":0.06666666666666288,"durationTicks":160,"midi":74,"name":"D5","ticks":153120,"time":62.908568,"velocity":0.7874015748031497},{"duration":0.06666666666667709,"durationTicks":160,"midi":76,"name":"E5","ticks":153280,"time":62.975234666666665,"velocity":0.7874015748031497},{"duration":0.06666666666666288,"durationTicks":160,"midi":74,"name":"D5","ticks":153440,"time":63.04190133333334,"velocity":0.7874015748031497},{"duration":0.20000000000000284,"durationTicks":480,"midi":67,"name":"G4","ticks":153600,"time":63.108568000000005,"velocity":0.7874015748031497},{"duration":0.20000000000000284,"durationTicks":480,"midi":69,"name":"A4","ticks":154560,"time":63.508568000000004,"velocity":0.7874015748031497},{"duration":0.20000000000000284,"durationTicks":480,"midi":71,"name":"B4","ticks":155520,"time":63.908568,"velocity":0.7874015748031497},{"duration":0.10000000000000853,"durationTicks":240,"midi":64,"name":"E4","ticks":156960,"time":64.508568,"velocity":0.7874015748031497},{"duration":0.09999999999999432,"durationTicks":240,"midi":66,"name":"F#4","ticks":157200,"time":64.608568,"velocity":0.7874015748031497},{"duration":0.4000000000000057,"durationTicks":960,"midi":68,"name":"G#4","ticks":157440,"time":64.708568,"velocity":0.7874015748031497},{"duration":0.20000000000000284,"durationTicks":480,"midi":69,"name":"A4","ticks":158400,"time":65.108568,"velocity":0.7874015748031497},{"duration":0.19999999999998863,"durationTicks":480,"midi":71,"name":"B4","ticks":158880,"time":65.30856800000001,"velocity":0.7874015748031497},{"duration":0.30000000000001137,"durationTicks":720,"midi":64,"name":"E4","ticks":159360,"time":65.508568,"velocity":0.7874015748031497},{"duration":0.20000000000000284,"durationTicks":480,"midi":61,"name":"C#4","ticks":160320,"time":65.908568,"velocity":0.7874015748031497},{"duration":0.20000000000000284,"durationTicks":480,"midi":64,"name":"E4","ticks":160800,"time":66.108568,"velocity":0.7874015748031497},{"duration":0.19999999999998863,"durationTicks":480,"midi":71,"name":"B4","ticks":161280,"time":66.30856800000001,"velocity":0.7874015748031497},{"duration":0.20000000000000284,"durationTicks":480,"midi":67,"name":"G4","ticks":162240,"time":66.708568,"velocity":0.7874015748031497},{"duration":0.20000000000000284,"durationTicks":480,"midi":69,"name":"A4","ticks":163200,"time":67.108568,"velocity":0.7874015748031497},{"duration":0.10000000000000853,"durationTicks":240,"midi":67,"name":"G4","ticks":164640,"time":67.708568,"velocity":0.7874015748031497},{"duration":0.09999999999999432,"durationTicks":240,"midi":69,"name":"A4","ticks":164880,"time":67.80856800000001,"velocity":0.7874015748031497},{"duration":0.4000000000000057,"durationTicks":960,"midi":71,"name":"B4","ticks":165120,"time":67.908568,"velocity":0.7874015748031497},{"duration":0.20000000000000284,"durationTicks":480,"midi":69,"name":"A4","ticks":166080,"time":68.30856800000001,"velocity":0.7874015748031497},{"duration":0.19999999999998863,"durationTicks":480,"midi":71,"name":"B4","ticks":166560,"time":68.50856800000001,"velocity":0.7874015748031497},{"duration":0.3333333333333428,"durationTicks":800,"midi":74,"name":"D5","ticks":167040,"time":68.708568,"velocity":0.7874015748031497},{"duration":0.20000000000000284,"durationTicks":480,"midi":76,"name":"E5","ticks":168000,"time":69.108568,"velocity":0.7874015748031497},{"duration":0.06666666666666288,"durationTicks":160,"midi":74,"name":"D5","ticks":168480,"time":69.30856800000001,"velocity":0.7874015748031497},{"duration":0.06666666666667709,"durationTicks":160,"midi":76,"name":"E5","ticks":168640,"time":69.37523466666667,"velocity":0.7874015748031497},{"duration":0.06666666666666288,"durationTicks":160,"midi":74,"name":"D5","ticks":168800,"time":69.44190133333335,"velocity":0.7874015748031497},{"duration":0.19999999999998863,"durationTicks":480,"midi":67,"name":"G4","ticks":168960,"time":69.50856800000001,"velocity":0.7874015748031497},{"duration":0.20000000000000284,"durationTicks":480,"midi":69,"name":"A4","ticks":169920,"time":69.908568,"velocity":0.7874015748031497},{"duration":0.20000000000000284,"durationTicks":480,"midi":71,"name":"B4","ticks":170880,"time":70.30856800000001,"velocity":0.7874015748031497},{"duration":0.10000000000000853,"durationTicks":240,"midi":71,"name":"B4","ticks":172320,"time":70.908568,"velocity":0.7874015748031497},{"duration":0.09999999999999432,"durationTicks":240,"midi":74,"name":"D5","ticks":172560,"time":71.00856800000001,"velocity":0.7874015748031497},{"duration":0.4000000000000057,"durationTicks":960,"midi":76,"name":"E5","ticks":172800,"time":71.108568,"velocity":0.7874015748031497},{"duration":0.19999999999998863,"durationTicks":480,"midi":74,"name":"D5","ticks":173760,"time":71.50856800000001,"velocity":0.7874015748031497},{"duration":0.20000000000000284,"durationTicks":480,"midi":76,"name":"E5","ticks":174240,"time":71.708568,"velocity":0.7874015748031497},{"duration":0.17499999999999716,"durationTicks":420,"midi":78,"name":"F#5","ticks":174720,"time":71.908568,"velocity":0.7874015748031497},{"duration":0.17499999999999716,"durationTicks":420,"midi":79,"name":"G5","ticks":175200,"time":72.108568,"velocity":0.7874015748031497},{"duration":0.17499999999999716,"durationTicks":420,"midi":78,"name":"F#5","ticks":175680,"time":72.30856800000001,"velocity":0.7874015748031497},{"duration":0.17499999999999716,"durationTicks":420,"midi":74,"name":"D5","ticks":176160,"time":72.50856800000001,"velocity":0.7874015748031497},{"duration":0.4000000000000057,"durationTicks":960,"midi":71,"name":"B4","ticks":176640,"time":72.708568,"velocity":0.7874015748031497},{"duration":0.4000000000000057,"durationTicks":960,"midi":78,"name":"F#5","ticks":177600,"time":73.108568,"velocity":0.7874015748031497},{"duration":0.7999999999999972,"durationTicks":1920,"midi":76,"name":"E5","ticks":178560,"time":73.50856800000001,"velocity":0.7874015748031497},{"duration":0.3999999999999915,"durationTicks":960,"midi":71,"name":"B4","ticks":180480,"time":74.30856800000001,"velocity":0.7874015748031497},{"duration":0.20000000000000284,"durationTicks":480,"midi":69,"name":"A4","ticks":181440,"time":74.708568,"velocity":0.7874015748031497},{"duration":0.20000000000000284,"durationTicks":480,"midi":71,"name":"B4","ticks":181920,"time":74.908568,"velocity":0.7874015748031497},{"duration":0.3333333333333428,"durationTicks":800,"midi":74,"name":"D5","ticks":182400,"time":75.108568,"velocity":0.7874015748031497},{"duration":0.19999999999998863,"durationTicks":480,"midi":76,"name":"E5","ticks":183360,"time":75.50856800000001,"velocity":0.7874015748031497},{"duration":0.06666666666666288,"durationTicks":160,"midi":74,"name":"D5","ticks":183840,"time":75.708568,"velocity":0.7874015748031497},{"duration":0.06666666666667709,"durationTicks":160,"midi":76,"name":"E5","ticks":184000,"time":75.77523466666666,"velocity":0.7874015748031497},{"duration":0.06666666666666288,"durationTicks":160,"midi":74,"name":"D5","ticks":184160,"time":75.84190133333334,"velocity":0.7874015748031497},{"duration":0.20000000000000284,"durationTicks":480,"midi":67,"name":"G4","ticks":184320,"time":75.908568,"velocity":0.7874015748031497},{"duration":0.20000000000000284,"durationTicks":480,"midi":69,"name":"A4","ticks":185280,"time":76.30856800000001,"velocity":0.7874015748031497},{"duration":0.20000000000000284,"durationTicks":480,"midi":71,"name":"B4","ticks":186240,"time":76.708568,"velocity":0.7874015748031497},{"duration":0.09999999999999432,"durationTicks":240,"midi":64,"name":"E4","ticks":187680,"time":77.30856800000001,"velocity":0.7874015748031497},{"duration":0.10000000000000853,"durationTicks":240,"midi":66,"name":"F#4","ticks":187920,"time":77.408568,"velocity":0.7874015748031497},{"duration":0.3999999999999915,"durationTicks":960,"midi":68,"name":"G#4","ticks":188160,"time":77.50856800000001,"velocity":0.7874015748031497},{"duration":0.20000000000000284,"durationTicks":480,"midi":69,"name":"A4","ticks":189120,"time":77.908568,"velocity":0.7874015748031497},{"duration":0.20000000000000284,"durationTicks":480,"midi":71,"name":"B4","ticks":189600,"time":78.108568,"velocity":0.7874015748031497},{"duration":0.29999999999999716,"durationTicks":720,"midi":64,"name":"E4","ticks":190080,"time":78.30856800000001,"velocity":0.7874015748031497},{"duration":0.20000000000000284,"durationTicks":480,"midi":61,"name":"C#4","ticks":191040,"time":78.708568,"velocity":0.7874015748031497},{"duration":0.20000000000000284,"durationTicks":480,"midi":64,"name":"E4","ticks":191520,"time":78.908568,"velocity":0.7874015748031497},{"duration":0.20000000000000284,"durationTicks":480,"midi":71,"name":"B4","ticks":192000,"time":79.108568,"velocity":0.7874015748031497},{"duration":0.19999999999998863,"durationTicks":480,"midi":67,"name":"G4","ticks":192960,"time":79.50856800000001,"velocity":0.7874015748031497},{"duration":0.20000000000000284,"durationTicks":480,"midi":69,"name":"A4","ticks":193920,"time":79.908568,"velocity":0.7874015748031497},{"duration":0.09999999999999432,"durationTicks":240,"midi":67,"name":"G4","ticks":195360,"time":80.50856800000001,"velocity":0.7874015748031497},{"duration":0.10000000000000853,"durationTicks":240,"midi":69,"name":"A4","ticks":195600,"time":80.608568,"velocity":0.7874015748031497},{"duration":0.3999999999999915,"durationTicks":960,"midi":71,"name":"B4","ticks":195840,"time":80.70856800000001,"velocity":0.7874015748031497},{"duration":0.20000000000000284,"durationTicks":480,"midi":69,"name":"A4","ticks":196800,"time":81.108568,"velocity":0.7874015748031497},{"duration":0.20000000000000284,"durationTicks":480,"midi":71,"name":"B4","ticks":197280,"time":81.30856800000001,"velocity":0.7874015748031497},{"duration":0.3333333333333286,"durationTicks":800,"midi":74,"name":"D5","ticks":197760,"time":81.50856800000001,"velocity":0.7874015748031497},{"duration":0.20000000000000284,"durationTicks":480,"midi":76,"name":"E5","ticks":198720,"time":81.908568,"velocity":0.7874015748031497},{"duration":0.06666666666666288,"durationTicks":160,"midi":74,"name":"D5","ticks":199200,"time":82.108568,"velocity":0.7874015748031497},{"duration":0.06666666666667709,"durationTicks":160,"midi":76,"name":"E5","ticks":199360,"time":82.17523466666667,"velocity":0.7874015748031497},{"duration":0.06666666666666288,"durationTicks":160,"midi":74,"name":"D5","ticks":199520,"time":82.24190133333335,"velocity":0.7874015748031497},{"duration":0.20000000000000284,"durationTicks":480,"midi":67,"name":"G4","ticks":199680,"time":82.30856800000001,"velocity":0.7874015748031497},{"duration":0.19999999999998863,"durationTicks":480,"midi":69,"name":"A4","ticks":200640,"time":82.70856800000001,"velocity":0.7874015748031497},{"duration":0.20000000000000284,"durationTicks":480,"midi":71,"name":"B4","ticks":201600,"time":83.108568,"velocity":0.7874015748031497},{"duration":0.09999999999999432,"durationTicks":240,"midi":71,"name":"B4","ticks":203040,"time":83.70856800000001,"velocity":0.7874015748031497},{"duration":0.09999999999999432,"durationTicks":240,"midi":74,"name":"D5","ticks":203280,"time":83.80856800000001,"velocity":0.7874015748031497},{"duration":0.4000000000000057,"durationTicks":960,"midi":76,"name":"E5","ticks":203520,"time":83.908568,"velocity":0.7874015748031497},{"duration":0.20000000000000284,"durationTicks":480,"midi":78,"name":"F#5","ticks":204480,"time":84.30856800000001,"velocity":0.7874015748031497},{"duration":0.20000000000000284,"durationTicks":480,"midi":79,"name":"G5","ticks":204960,"time":84.50856800000001,"velocity":0.7874015748031497},{"duration":0.17499999999999716,"durationTicks":420,"midi":78,"name":"F#5","ticks":205440,"time":84.70856800000001,"velocity":0.7874015748031497},{"duration":0.17500000000001137,"durationTicks":420,"midi":74,"name":"D5","ticks":205920,"time":84.908568,"velocity":0.7874015748031497},{"duration":0.17499999999999716,"durationTicks":420,"midi":71,"name":"B4","ticks":206400,"time":85.108568,"velocity":0.7874015748031497},{"duration":0.17499999999999716,"durationTicks":420,"midi":78,"name":"F#5","ticks":206880,"time":85.30856800000001,"velocity":0.7874015748031497},{"duration":1.5999999999999943,"durationTicks":3840,"midi":76,"name":"E5","ticks":207360,"time":85.50856800000001,"velocity":0.7874015748031497},{"duration":0.09999999999999432,"durationTicks":240,"midi":59,"name":"B3","ticks":226080,"time":93.30856800000001,"velocity":0.7874015748031497},{"duration":0.10000000000000853,"durationTicks":240,"midi":62,"name":"D4","ticks":226320,"time":93.408568,"velocity":0.7874015748031497},{"duration":0.5166666666666657,"durationTicks":1240,"midi":64,"name":"E4","ticks":226560,"time":93.50856800000001,"velocity":0.7874015748031497},{"duration":0.10000000000000853,"durationTicks":240,"midi":64,"name":"E4","ticks":228000,"time":94.108568,"velocity":0.7874015748031497},{"duration":0.09999999999999432,"durationTicks":240,"midi":67,"name":"G4","ticks":228240,"time":94.20856800000001,"velocity":0.7874015748031497},{"duration":0.20000000000000284,"durationTicks":480,"midi":69,"name":"A4","ticks":228480,"time":94.30856800000001,"velocity":0.7874015748031497},{"duration":0.03333333333333144,"durationTicks":80,"midi":69,"name":"A4","ticks":228960,"time":94.50856800000001,"velocity":0.7874015748031497},{"duration":0.10000000000000853,"durationTicks":240,"midi":71,"name":"B4","ticks":229040,"time":94.54190133333334,"velocity":0.7874015748031497},{"duration":0.03333333333333144,"durationTicks":80,"midi":65,"name":"F4","ticks":229440,"time":94.70856800000001,"velocity":0.7874015748031497},{"duration":0.1666666666666572,"durationTicks":400,"midi":66,"name":"F#4","ticks":229520,"time":94.74190133333335,"velocity":0.7874015748031497},{"duration":0.20000000000000284,"durationTicks":480,"midi":62,"name":"D4","ticks":229920,"time":94.908568,"velocity":0.7874015748031497},{"duration":1.2999999999999972,"durationTicks":3120,"midi":59,"name":"B3","ticks":230400,"time":95.108568,"velocity":0.7874015748031497},{"duration":0.09999999999999432,"durationTicks":240,"midi":59,"name":"B3","ticks":233760,"time":96.50856800000001,"velocity":0.7874015748031497},{"duration":0.10000000000000853,"durationTicks":240,"midi":62,"name":"D4","ticks":234000,"time":96.608568,"velocity":0.7874015748031497},{"duration":0.5166666666666515,"durationTicks":1240,"midi":64,"name":"E4","ticks":234240,"time":96.70856800000001,"velocity":0.7874015748031497},{"duration":0.09999999999999432,"durationTicks":240,"midi":64,"name":"E4","ticks":235680,"time":97.30856800000001,"velocity":0.7874015748031497},{"duration":0.10000000000000853,"durationTicks":240,"midi":67,"name":"G4","ticks":235920,"time":97.408568,"velocity":0.7874015748031497},{"duration":0.20000000000000284,"durationTicks":480,"midi":69,"name":"A4","ticks":236160,"time":97.50856800000001,"velocity":0.7874015748031497},{"duration":0.03333333333333144,"durationTicks":80,"midi":69,"name":"A4","ticks":236640,"time":97.70856800000001,"velocity":0.7874015748031497},{"duration":0.09999999999999432,"durationTicks":240,"midi":71,"name":"B4","ticks":236720,"time":97.74190133333335,"velocity":0.7874015748031497},{"duration":0.03333333333334565,"durationTicks":80,"midi":73,"name":"C#5","ticks":237120,"time":97.908568,"velocity":0.7874015748031497},{"duration":0.1666666666666572,"durationTicks":400,"midi":74,"name":"D5","ticks":237200,"time":97.94190133333335,"velocity":0.7874015748031497},{"duration":0.20000000000000284,"durationTicks":480,"midi":76,"name":"E5","ticks":237600,"time":98.108568,"velocity":0.7874015748031497},{"duration":1.2999999999999972,"durationTicks":3120,"midi":71,"name":"B4","ticks":238080,"time":98.30856800000001,"velocity":0.7874015748031497},{"duration":0.09999999999999432,"durationTicks":240,"midi":71,"name":"B4","ticks":241440,"time":99.70856800000001,"velocity":0.7874015748031497},{"duration":0.09999999999999432,"durationTicks":240,"midi":74,"name":"D5","ticks":241680,"time":99.80856800000001,"velocity":0.7874015748031497},{"duration":0.6000000000000085,"durationTicks":1440,"midi":76,"name":"E5","ticks":241920,"time":99.908568,"velocity":0.7874015748031497},{"duration":0.03333333333333144,"durationTicks":80,"midi":78,"name":"F#5","ticks":243360,"time":100.50856800000001,"velocity":0.7874015748031497},{"duration":0.1666666666666714,"durationTicks":400,"midi":79,"name":"G5","ticks":243440,"time":100.54190133333334,"velocity":0.7874015748031497},{"duration":0.19999999999998863,"durationTicks":480,"midi":78,"name":"F#5","ticks":243840,"time":100.70856800000001,"velocity":0.7874015748031497},{"duration":0.10000000000000853,"durationTicks":240,"midi":76,"name":"E5","ticks":244320,"time":100.908568,"velocity":0.7874015748031497},{"duration":0.20000000000000284,"durationTicks":480,"midi":74,"name":"D5","ticks":244800,"time":101.108568,"velocity":0.7874015748031497},{"duration":0.20000000000000284,"durationTicks":480,"midi":67,"name":"G4","ticks":245280,"time":101.30856800000001,"velocity":0.7874015748031497},{"duration":0.20000000000000284,"durationTicks":480,"midi":69,"name":"A4","ticks":245760,"time":101.50856800000001,"velocity":0.7874015748031497},{"duration":0.06666666666666288,"durationTicks":160,"midi":69,"name":"A4","ticks":246240,"time":101.70856800000001,"velocity":0.7874015748031497},{"duration":0.06666666666666288,"durationTicks":160,"midi":71,"name":"B4","ticks":246400,"time":101.77523466666668,"velocity":0.7874015748031497},{"duration":0.06666666666666288,"durationTicks":160,"midi":69,"name":"A4","ticks":246560,"time":101.84190133333334,"velocity":0.7874015748031497},{"duration":0.20000000000000284,"durationTicks":480,"midi":67,"name":"G4","ticks":246720,"time":101.908568,"velocity":0.7874015748031497},{"duration":0.20000000000000284,"durationTicks":480,"midi":69,"name":"A4","ticks":247200,"time":102.108568,"velocity":0.7874015748031497},{"duration":0.5999999999999943,"durationTicks":1440,"midi":71,"name":"B4","ticks":247680,"time":102.30856800000001,"velocity":0.7874015748031497},{"duration":0.01666666666666572,"durationTicks":40,"midi":65,"name":"F4","ticks":249200,"time":102.94190133333335,"velocity":0.7874015748031497},{"duration":0.14999999999999147,"durationTicks":360,"midi":64,"name":"E4","ticks":249240,"time":102.95856800000001,"velocity":0.7874015748031497},{"duration":0.4000000000000057,"durationTicks":960,"midi":67,"name":"G4","ticks":249600,"time":103.108568,"velocity":0.7874015748031497},{"duration":0.18333333333333712,"durationTicks":440,"midi":69,"name":"A4","ticks":250560,"time":103.50856800000001,"velocity":0.7874015748031497},{"duration":0.18333333333333712,"durationTicks":440,"midi":71,"name":"B4","ticks":251040,"time":103.70856800000001,"velocity":0.7874015748031497},{"duration":0.20000000000000284,"durationTicks":480,"midi":66,"name":"F#4","ticks":251520,"time":103.908568,"velocity":0.7874015748031497},{"duration":0.01666666666666572,"durationTicks":40,"midi":66,"name":"F#4","ticks":252000,"time":104.108568,"velocity":0.7874015748031497},{"duration":0.18333333333333712,"durationTicks":440,"midi":67,"name":"G4","ticks":252040,"time":104.12523466666667,"velocity":0.7874015748031497},{"duration":0.20000000000000284,"durationTicks":480,"midi":69,"name":"A4","ticks":252480,"time":104.30856800000001,"velocity":0.7874015748031497},{"duration":0.20000000000000284,"durationTicks":480,"midi":62,"name":"D4","ticks":252960,"time":104.50856800000001,"velocity":0.7874015748031497},{"duration":0.09999999999999432,"durationTicks":240,"midi":64,"name":"E4","ticks":253440,"time":104.70856800000001,"velocity":0.7874015748031497},{"duration":0.09999999999999432,"durationTicks":240,"midi":67,"name":"G4","ticks":253680,"time":104.80856800000001,"velocity":0.7874015748031497},{"duration":1,"durationTicks":2400,"midi":64,"name":"E4","ticks":253920,"time":104.908568,"velocity":0.7874015748031497},{"duration":0.10000000000000853,"durationTicks":240,"midi":59,"name":"B3","ticks":256800,"time":106.108568,"velocity":0.7874015748031497},{"duration":0.09999999999999432,"durationTicks":240,"midi":62,"name":"D4","ticks":257040,"time":106.20856800000001,"velocity":0.7874015748031497},{"duration":0.5166666666666799,"durationTicks":1240,"midi":64,"name":"E4","ticks":257280,"time":106.30856800000001,"velocity":0.7874015748031497},{"duration":0.10000000000000853,"durationTicks":240,"midi":64,"name":"E4","ticks":258720,"time":106.908568,"velocity":0.7874015748031497},{"duration":0.09999999999999432,"durationTicks":240,"midi":67,"name":"G4","ticks":258960,"time":107.00856800000001,"velocity":0.7874015748031497},{"duration":0.20000000000000284,"durationTicks":480,"midi":69,"name":"A4","ticks":259200,"time":107.108568,"velocity":0.7874015748031497},{"duration":0.03333333333333144,"durationTicks":80,"midi":69,"name":"A4","ticks":259680,"time":107.30856800000001,"velocity":0.7874015748031497},{"duration":0.09999999999999432,"durationTicks":240,"midi":71,"name":"B4","ticks":259760,"time":107.34190133333334,"velocity":0.7874015748031497},{"duration":0.03333333333331723,"durationTicks":80,"midi":65,"name":"F4","ticks":260160,"time":107.50856800000001,"velocity":0.7874015748031497},{"duration":0.16666666666668561,"durationTicks":400,"midi":66,"name":"F#4","ticks":260240,"time":107.54190133333333,"velocity":0.7874015748031497},{"duration":0.19999999999998863,"durationTicks":480,"midi":62,"name":"D4","ticks":260640,"time":107.70856800000001,"velocity":0.7874015748031497},{"duration":1.3000000000000114,"durationTicks":3120,"midi":59,"name":"B3","ticks":261120,"time":107.908568,"velocity":0.7874015748031497},{"duration":0.09999999999999432,"durationTicks":240,"midi":59,"name":"B3","ticks":264480,"time":109.30856800000001,"velocity":0.7874015748031497},{"duration":0.10000000000000853,"durationTicks":240,"midi":62,"name":"D4","ticks":264720,"time":109.408568,"velocity":0.7874015748031497},{"duration":0.5166666666666657,"durationTicks":1240,"midi":64,"name":"E4","ticks":264960,"time":109.50856800000001,"velocity":0.7874015748031497},{"duration":0.10000000000000853,"durationTicks":240,"midi":64,"name":"E4","ticks":266400,"time":110.108568,"velocity":0.7874015748031497},{"duration":0.09999999999999432,"durationTicks":240,"midi":67,"name":"G4","ticks":266640,"time":110.20856800000001,"velocity":0.7874015748031497},{"duration":0.20000000000000284,"durationTicks":480,"midi":69,"name":"A4","ticks":266880,"time":110.30856800000001,"velocity":0.7874015748031497},{"duration":0.03333333333331723,"durationTicks":80,"midi":69,"name":"A4","ticks":267360,"time":110.50856800000001,"velocity":0.7874015748031497},{"duration":0.10000000000000853,"durationTicks":240,"midi":71,"name":"B4","ticks":267440,"time":110.54190133333333,"velocity":0.7874015748031497},{"duration":0.03333333333331723,"durationTicks":80,"midi":73,"name":"C#5","ticks":267840,"time":110.70856800000001,"velocity":0.7874015748031497},{"duration":0.1666666666666714,"durationTicks":400,"midi":74,"name":"D5","ticks":267920,"time":110.74190133333333,"velocity":0.7874015748031497},{"duration":0.20000000000000284,"durationTicks":480,"midi":76,"name":"E5","ticks":268320,"time":110.908568,"velocity":0.7874015748031497},{"duration":1.2999999999999972,"durationTicks":3120,"midi":71,"name":"B4","ticks":268800,"time":111.108568,"velocity":0.7874015748031497},{"duration":0.09999999999999432,"durationTicks":240,"midi":71,"name":"B4","ticks":272160,"time":112.50856800000001,"velocity":0.7874015748031497},{"duration":0.10000000000000853,"durationTicks":240,"midi":74,"name":"D5","ticks":272400,"time":112.608568,"velocity":0.7874015748031497},{"duration":0.5999999999999943,"durationTicks":1440,"midi":76,"name":"E5","ticks":272640,"time":112.70856800000001,"velocity":0.7874015748031497},{"duration":0.03333333333333144,"durationTicks":80,"midi":78,"name":"F#5","ticks":274080,"time":113.30856800000001,"velocity":0.7874015748031497},{"duration":0.1666666666666714,"durationTicks":400,"midi":79,"name":"G5","ticks":274160,"time":113.34190133333334,"velocity":0.7874015748031497},{"duration":0.20000000000000284,"durationTicks":480,"midi":78,"name":"F#5","ticks":274560,"time":113.50856800000001,"velocity":0.7874015748031497},{"duration":0.09999999999999432,"durationTicks":240,"midi":76,"name":"E5","ticks":275040,"time":113.70856800000001,"velocity":0.7874015748031497},{"duration":0.20000000000000284,"durationTicks":480,"midi":74,"name":"D5","ticks":275520,"time":113.908568,"velocity":0.7874015748031497},{"duration":0.1833333333333229,"durationTicks":440,"midi":67,"name":"G4","ticks":276000,"time":114.108568,"velocity":0.7874015748031497},{"duration":0.3958333333333286,"durationTicks":950,"midi":71,"name":"B4","ticks":276480,"time":114.30856800000001,"velocity":0.7874015748031497},{"duration":0.3999999999999915,"durationTicks":960,"midi":78,"name":"F#5","ticks":277440,"time":114.70856800000001,"velocity":0.7874015748031497},{"duration":0.6000000000000085,"durationTicks":1440,"midi":76,"name":"E5","ticks":278400,"time":115.108568,"velocity":0.7874015748031497},{"duration":0.09999999999999432,"durationTicks":240,"midi":68,"name":"G#4","ticks":279840,"time":115.70856800000001,"velocity":0.7874015748031497},{"duration":0.09999999999999432,"durationTicks":240,"midi":71,"name":"B4","ticks":280080,"time":115.80856800000001,"velocity":0.7874015748031497},{"duration":0.4000000000000057,"durationTicks":960,"midi":73,"name":"C#5","ticks":280320,"time":115.908568,"velocity":0.7874015748031497},{"duration":0.1833333333333229,"durationTicks":440,"midi":76,"name":"E5","ticks":281280,"time":116.30856800000001,"velocity":0.7874015748031497},{"duration":0.01666666666667993,"durationTicks":40,"midi":79,"name":"G5","ticks":281720,"time":116.49190133333333,"velocity":0.7874015748031497},{"duration":0.1833333333333229,"durationTicks":440,"midi":80,"name":"G#5","ticks":281760,"time":116.50856800000001,"velocity":0.7874015748031497},{"duration":0.19999999999998863,"durationTicks":480,"midi":78,"name":"F#5","ticks":282240,"time":116.70856800000001,"velocity":0.7874015748031497},{"duration":0.1833333333333229,"durationTicks":440,"midi":76,"name":"E5","ticks":282760,"time":116.92523466666668,"velocity":0.7874015748031497},{"duration":0.20000000000000284,"durationTicks":480,"midi":75,"name":"D#5","ticks":283200,"time":117.108568,"velocity":0.7874015748031497},{"duration":1.4000000000000057,"durationTicks":3360,"midi":73,"name":"C#5","ticks":283680,"time":117.30856800000001,"velocity":0.7874015748031497},{"duration":0.4000000000000057,"durationTicks":960,"midi":71,"name":"B4","ticks":349440,"time":144.708568,"velocity":0.7874015748031497},{"duration":0.19999999999998863,"durationTicks":480,"midi":69,"name":"A4","ticks":350400,"time":145.10856800000002,"velocity":0.7874015748031497},{"duration":0.19999999999998863,"durationTicks":480,"midi":71,"name":"B4","ticks":350880,"time":145.308568,"velocity":0.7874015748031497},{"duration":0.3333333333333428,"durationTicks":800,"midi":74,"name":"D5","ticks":351360,"time":145.508568,"velocity":0.7874015748031497},{"duration":0.20000000000001705,"durationTicks":480,"midi":76,"name":"E5","ticks":352320,"time":145.908568,"velocity":0.7874015748031497},{"duration":0.06666666666666288,"durationTicks":160,"midi":74,"name":"D5","ticks":352800,"time":146.10856800000002,"velocity":0.7874015748031497},{"duration":0.06666666666666288,"durationTicks":160,"midi":76,"name":"E5","ticks":352960,"time":146.17523466666668,"velocity":0.7874015748031497},{"duration":0.06666666666666288,"durationTicks":160,"midi":74,"name":"D5","ticks":353120,"time":146.24190133333335,"velocity":0.7874015748031497},{"duration":0.19999999999998863,"durationTicks":480,"midi":67,"name":"G4","ticks":353280,"time":146.308568,"velocity":0.7874015748031497},{"duration":0.19999999999998863,"durationTicks":480,"midi":69,"name":"A4","ticks":354240,"time":146.708568,"velocity":0.7874015748031497},{"duration":0.19999999999998863,"durationTicks":480,"midi":71,"name":"B4","ticks":355200,"time":147.10856800000002,"velocity":0.7874015748031497},{"duration":0.09999999999999432,"durationTicks":240,"midi":64,"name":"E4","ticks":356640,"time":147.708568,"velocity":0.7874015748031497},{"duration":0.09999999999999432,"durationTicks":240,"midi":66,"name":"F#4","ticks":356880,"time":147.808568,"velocity":0.7874015748031497},{"duration":0.4000000000000057,"durationTicks":960,"midi":68,"name":"G#4","ticks":357120,"time":147.908568,"velocity":0.7874015748031497},{"duration":0.19999999999998863,"durationTicks":480,"midi":69,"name":"A4","ticks":358080,"time":148.308568,"velocity":0.7874015748031497},{"duration":0.20000000000001705,"durationTicks":480,"midi":71,"name":"B4","ticks":358560,"time":148.508568,"velocity":0.7874015748031497},{"duration":0.29999999999998295,"durationTicks":720,"midi":64,"name":"E4","ticks":359040,"time":148.708568,"velocity":0.7874015748031497},{"duration":0.19999999999998863,"durationTicks":480,"midi":61,"name":"C#4","ticks":360000,"time":149.10856800000002,"velocity":0.7874015748031497},{"duration":0.19999999999998863,"durationTicks":480,"midi":64,"name":"E4","ticks":360480,"time":149.308568,"velocity":0.7874015748031497},{"duration":0.20000000000001705,"durationTicks":480,"midi":71,"name":"B4","ticks":360960,"time":149.508568,"velocity":0.7874015748031497},{"duration":0.20000000000001705,"durationTicks":480,"midi":67,"name":"G4","ticks":361920,"time":149.908568,"velocity":0.7874015748031497},{"duration":0.19999999999998863,"durationTicks":480,"midi":69,"name":"A4","ticks":362880,"time":150.308568,"velocity":0.7874015748031497},{"duration":0.09999999999999432,"durationTicks":240,"midi":67,"name":"G4","ticks":364320,"time":150.908568,"velocity":0.7874015748031497},{"duration":0.10000000000002274,"durationTicks":240,"midi":69,"name":"A4","ticks":364560,"time":151.008568,"velocity":0.7874015748031497},{"duration":0.39999999999997726,"durationTicks":960,"midi":71,"name":"B4","ticks":364800,"time":151.10856800000002,"velocity":0.7874015748031497},{"duration":0.20000000000001705,"durationTicks":480,"midi":69,"name":"A4","ticks":365760,"time":151.508568,"velocity":0.7874015748031497},{"duration":0.19999999999998863,"durationTicks":480,"midi":71,"name":"B4","ticks":366240,"time":151.708568,"velocity":0.7874015748031497},{"duration":0.3333333333333428,"durationTicks":800,"midi":74,"name":"D5","ticks":366720,"time":151.908568,"velocity":0.7874015748031497},{"duration":0.19999999999998863,"durationTicks":480,"midi":76,"name":"E5","ticks":367680,"time":152.308568,"velocity":0.7874015748031497},{"duration":0.0666666666666913,"durationTicks":160,"midi":74,"name":"D5","ticks":368160,"time":152.508568,"velocity":0.7874015748031497},{"duration":0.06666666666663446,"durationTicks":160,"midi":76,"name":"E5","ticks":368320,"time":152.5752346666667,"velocity":0.7874015748031497},{"duration":0.0666666666666913,"durationTicks":160,"midi":74,"name":"D5","ticks":368480,"time":152.64190133333332,"velocity":0.7874015748031497},{"duration":0.19999999999998863,"durationTicks":480,"midi":67,"name":"G4","ticks":368640,"time":152.708568,"velocity":0.7874015748031497},{"duration":0.19999999999998863,"durationTicks":480,"midi":69,"name":"A4","ticks":369600,"time":153.10856800000002,"velocity":0.7874015748031497},{"duration":0.20000000000001705,"durationTicks":480,"midi":71,"name":"B4","ticks":370560,"time":153.508568,"velocity":0.7874015748031497},{"duration":0.09999999999999432,"durationTicks":240,"midi":71,"name":"B4","ticks":372000,"time":154.10856800000002,"velocity":0.7874015748031497},{"duration":0.09999999999999432,"durationTicks":240,"midi":74,"name":"D5","ticks":372240,"time":154.208568,"velocity":0.7874015748031497},{"duration":0.4000000000000057,"durationTicks":960,"midi":76,"name":"E5","ticks":372480,"time":154.308568,"velocity":0.7874015748031497},{"duration":0.19999999999998863,"durationTicks":480,"midi":74,"name":"D5","ticks":373440,"time":154.708568,"velocity":0.7874015748031497},{"duration":0.20000000000001705,"durationTicks":480,"midi":76,"name":"E5","ticks":373920,"time":154.908568,"velocity":0.7874015748031497},{"duration":0.17499999999998295,"durationTicks":420,"midi":78,"name":"F#5","ticks":374400,"time":155.10856800000002,"velocity":0.7874015748031497},{"duration":0.17500000000001137,"durationTicks":420,"midi":79,"name":"G5","ticks":374880,"time":155.308568,"velocity":0.7874015748031497},{"duration":0.17500000000001137,"durationTicks":420,"midi":78,"name":"F#5","ticks":375360,"time":155.508568,"velocity":0.7874015748031497},{"duration":0.17499999999998295,"durationTicks":420,"midi":74,"name":"D5","ticks":375840,"time":155.708568,"velocity":0.7874015748031497},{"duration":0.4000000000000057,"durationTicks":960,"midi":71,"name":"B4","ticks":376320,"time":155.908568,"velocity":0.7874015748031497},{"duration":0.4000000000000057,"durationTicks":960,"midi":78,"name":"F#5","ticks":377280,"time":156.308568,"velocity":0.7874015748031497},{"duration":0.8000000000000114,"durationTicks":1920,"midi":76,"name":"E5","ticks":378240,"time":156.708568,"velocity":0.7874015748031497},{"duration":0.39999999999997726,"durationTicks":960,"midi":71,"name":"B4","ticks":380160,"time":157.50856800000003,"velocity":0.7874015748031497},{"duration":0.20000000000001705,"durationTicks":480,"midi":69,"name":"A4","ticks":381120,"time":157.908568,"velocity":0.7874015748031497},{"duration":0.19999999999998863,"durationTicks":480,"midi":71,"name":"B4","ticks":381600,"time":158.10856800000002,"velocity":0.7874015748031497},{"duration":0.3333333333333428,"durationTicks":800,"midi":74,"name":"D5","ticks":382080,"time":158.308568,"velocity":0.7874015748031497},{"duration":0.19999999999998863,"durationTicks":480,"midi":76,"name":"E5","ticks":383040,"time":158.708568,"velocity":0.7874015748031497},{"duration":0.0666666666666913,"durationTicks":160,"midi":74,"name":"D5","ticks":383520,"time":158.908568,"velocity":0.7874015748031497},{"duration":0.06666666666663446,"durationTicks":160,"midi":76,"name":"E5","ticks":383680,"time":158.9752346666667,"velocity":0.7874015748031497},{"duration":0.0666666666666913,"durationTicks":160,"midi":74,"name":"D5","ticks":383840,"time":159.04190133333333,"velocity":0.7874015748031497},{"duration":0.19999999999998863,"durationTicks":480,"midi":67,"name":"G4","ticks":384000,"time":159.10856800000002,"velocity":0.7874015748031497},{"duration":0.19999999999998863,"durationTicks":480,"midi":69,"name":"A4","ticks":384960,"time":159.50856800000003,"velocity":0.7874015748031497},{"duration":0.20000000000001705,"durationTicks":480,"midi":71,"name":"B4","ticks":385920,"time":159.908568,"velocity":0.7874015748031497},{"duration":0.09999999999999432,"durationTicks":240,"midi":64,"name":"E4","ticks":387360,"time":160.50856800000003,"velocity":0.7874015748031497},{"duration":0.09999999999999432,"durationTicks":240,"midi":66,"name":"F#4","ticks":387600,"time":160.60856800000002,"velocity":0.7874015748031497},{"duration":0.4000000000000057,"durationTicks":960,"midi":68,"name":"G#4","ticks":387840,"time":160.708568,"velocity":0.7874015748031497},{"duration":0.19999999999998863,"durationTicks":480,"midi":69,"name":"A4","ticks":388800,"time":161.10856800000002,"velocity":0.7874015748031497},{"duration":0.20000000000001705,"durationTicks":480,"midi":71,"name":"B4","ticks":389280,"time":161.308568,"velocity":0.7874015748031497},{"duration":0.29999999999998295,"durationTicks":720,"midi":64,"name":"E4","ticks":389760,"time":161.50856800000003,"velocity":0.7874015748031497},{"duration":0.20000000000001705,"durationTicks":480,"midi":61,"name":"C#4","ticks":390720,"time":161.908568,"velocity":0.7874015748031497},{"duration":0.19999999999998863,"durationTicks":480,"midi":64,"name":"E4","ticks":391200,"time":162.10856800000002,"velocity":0.7874015748031497},{"duration":0.20000000000001705,"durationTicks":480,"midi":71,"name":"B4","ticks":391680,"time":162.308568,"velocity":0.7874015748031497},{"duration":0.19999999999998863,"durationTicks":480,"midi":67,"name":"G4","ticks":392640,"time":162.708568,"velocity":0.7874015748031497},{"duration":0.19999999999998863,"durationTicks":480,"midi":69,"name":"A4","ticks":393600,"time":163.10856800000002,"velocity":0.7874015748031497},{"duration":0.09999999999999432,"durationTicks":240,"midi":67,"name":"G4","ticks":395040,"time":163.708568,"velocity":0.7874015748031497},{"duration":0.09999999999999432,"durationTicks":240,"midi":69,"name":"A4","ticks":395280,"time":163.808568,"velocity":0.7874015748031497},{"duration":0.4000000000000057,"durationTicks":960,"midi":71,"name":"B4","ticks":395520,"time":163.908568,"velocity":0.7874015748031497},{"duration":0.20000000000001705,"durationTicks":480,"midi":69,"name":"A4","ticks":396480,"time":164.308568,"velocity":0.7874015748031497},{"duration":0.19999999999998863,"durationTicks":480,"midi":71,"name":"B4","ticks":396960,"time":164.50856800000003,"velocity":0.7874015748031497},{"duration":0.3333333333333144,"durationTicks":800,"midi":74,"name":"D5","ticks":397440,"time":164.708568,"velocity":0.7874015748031497},{"duration":0.19999999999998863,"durationTicks":480,"midi":76,"name":"E5","ticks":398400,"time":165.10856800000002,"velocity":0.7874015748031497},{"duration":0.0666666666666913,"durationTicks":160,"midi":74,"name":"D5","ticks":398880,"time":165.308568,"velocity":0.7874015748031497},{"duration":0.06666666666663446,"durationTicks":160,"midi":76,"name":"E5","ticks":399040,"time":165.3752346666667,"velocity":0.7874015748031497},{"duration":0.0666666666666913,"durationTicks":160,"midi":74,"name":"D5","ticks":399200,"time":165.44190133333333,"velocity":0.7874015748031497},{"duration":0.19999999999998863,"durationTicks":480,"midi":67,"name":"G4","ticks":399360,"time":165.50856800000003,"velocity":0.7874015748031497},{"duration":0.20000000000001705,"durationTicks":480,"midi":69,"name":"A4","ticks":400320,"time":165.908568,"velocity":0.7874015748031497},{"duration":0.20000000000001705,"durationTicks":480,"midi":71,"name":"B4","ticks":401280,"time":166.308568,"velocity":0.7874015748031497},{"duration":0.10000000000002274,"durationTicks":240,"midi":71,"name":"B4","ticks":402720,"time":166.908568,"velocity":0.7874015748031497},{"duration":0.09999999999999432,"durationTicks":240,"midi":74,"name":"D5","ticks":402960,"time":167.00856800000003,"velocity":0.7874015748031497},{"duration":0.4000000000000057,"durationTicks":960,"midi":76,"name":"E5","ticks":403200,"time":167.10856800000002,"velocity":0.7874015748031497},{"duration":0.19999999999998863,"durationTicks":480,"midi":78,"name":"F#5","ticks":404160,"time":167.50856800000003,"velocity":0.7874015748031497},{"duration":0.19999999999998863,"durationTicks":480,"midi":79,"name":"G5","ticks":404640,"time":167.708568,"velocity":0.7874015748031497},{"duration":0.17500000000001137,"durationTicks":420,"midi":78,"name":"F#5","ticks":405120,"time":167.908568,"velocity":0.7874015748031497},{"duration":0.17499999999998295,"durationTicks":420,"midi":74,"name":"D5","ticks":405600,"time":168.10856800000002,"velocity":0.7874015748031497},{"duration":0.17500000000001137,"durationTicks":420,"midi":71,"name":"B4","ticks":406080,"time":168.308568,"velocity":0.7874015748031497},{"duration":0.17499999999998295,"durationTicks":420,"midi":78,"name":"F#5","ticks":406560,"time":168.50856800000003,"velocity":0.7874015748031497},{"duration":1.5999999999999943,"durationTicks":3840,"midi":76,"name":"E5","ticks":407040,"time":168.708568,"velocity":0.7874015748031497},{"duration":0.09999999999999432,"durationTicks":240,"midi":59,"name":"B3","ticks":425760,"time":176.50856800000003,"velocity":0.031496062992125984},{"duration":0.09999999999999432,"durationTicks":240,"midi":62,"name":"D4","ticks":426000,"time":176.60856800000002,"velocity":0.015748031496062992}]},{"channel":5,"controlChanges":{},"pitchBends":[],"instrument":{"family":"synth pad","number":90,"name":"pad 3 (polysynth)"},"name":"","notes":[{"duration":0.08333333333333215,"durationTicks":200,"midi":83,"name":"B5","ticks":53760,"time":21.508568,"velocity":0.3937007874015748},{"duration":0.0833333333333357,"durationTicks":200,"midi":88,"name":"E6","ticks":54000,"time":21.608567999999998,"velocity":0.4409448818897638},{"duration":0.0833333333333357,"durationTicks":200,"midi":83,"name":"B5","ticks":54240,"time":21.708568,"velocity":0.4881889763779528},{"duration":0.08333333333333215,"durationTicks":200,"midi":79,"name":"G5","ticks":54480,"time":21.808568,"velocity":0.5354330708661418},{"duration":0.0833333333333357,"durationTicks":200,"midi":83,"name":"B5","ticks":54720,"time":21.908568,"velocity":0.5905511811023622},{"duration":0.08333333333333215,"durationTicks":200,"midi":88,"name":"E6","ticks":54960,"time":22.008568,"velocity":0.6377952755905512},{"duration":0.0833333333333357,"durationTicks":200,"midi":91,"name":"G6","ticks":55200,"time":22.108567999999998,"velocity":0.6850393700787402},{"duration":0.0833333333333357,"durationTicks":200,"midi":95,"name":"B6","ticks":55440,"time":22.208568,"velocity":0.7322834645669292},{"duration":0.08333333333333215,"durationTicks":200,"midi":100,"name":"E7","ticks":55680,"time":22.308568,"velocity":0.7874015748031497},{"duration":0.0833333333333357,"durationTicks":200,"midi":95,"name":"B6","ticks":55920,"time":22.408568,"velocity":0.7401574803149606},{"duration":0.08333333333333215,"durationTicks":200,"midi":91,"name":"G6","ticks":56160,"time":22.508568,"velocity":0.6929133858267716},{"duration":0.0833333333333357,"durationTicks":200,"midi":88,"name":"E6","ticks":56400,"time":22.608567999999998,"velocity":0.6456692913385826},{"duration":0.0833333333333357,"durationTicks":200,"midi":83,"name":"B5","ticks":56640,"time":22.708568,"velocity":0.5905511811023622},{"duration":0.08333333333333215,"durationTicks":200,"midi":79,"name":"G5","ticks":56880,"time":22.808568,"velocity":0.5433070866141733},{"duration":0.0833333333333357,"durationTicks":200,"midi":76,"name":"E5","ticks":57120,"time":22.908568,"velocity":0.49606299212598426},{"duration":0.08333333333333215,"durationTicks":200,"midi":71,"name":"B4","ticks":57360,"time":23.008568,"velocity":0.44881889763779526},{"duration":0.0833333333333286,"durationTicks":200,"midi":83,"name":"B5","ticks":253440,"time":104.70856800000001,"velocity":0.3937007874015748},{"duration":0.08333333333334281,"durationTicks":200,"midi":88,"name":"E6","ticks":253680,"time":104.80856800000001,"velocity":0.4409448818897638},{"duration":0.08333333333334281,"durationTicks":200,"midi":83,"name":"B5","ticks":253920,"time":104.908568,"velocity":0.4881889763779528},{"duration":0.0833333333333286,"durationTicks":200,"midi":79,"name":"G5","ticks":254160,"time":105.00856800000001,"velocity":0.5354330708661418},{"duration":0.08333333333334281,"durationTicks":200,"midi":83,"name":"B5","ticks":254400,"time":105.108568,"velocity":0.5905511811023622},{"duration":0.0833333333333286,"durationTicks":200,"midi":88,"name":"E6","ticks":254640,"time":105.20856800000001,"velocity":0.6377952755905512},{"duration":0.08333333333334281,"durationTicks":200,"midi":91,"name":"G6","ticks":254880,"time":105.30856800000001,"velocity":0.6850393700787402},{"duration":0.08333333333334281,"durationTicks":200,"midi":95,"name":"B6","ticks":255120,"time":105.408568,"velocity":0.7322834645669292},{"duration":0.0833333333333286,"durationTicks":200,"midi":100,"name":"E7","ticks":255360,"time":105.50856800000001,"velocity":0.7874015748031497},{"duration":0.08333333333334281,"durationTicks":200,"midi":95,"name":"B6","ticks":255600,"time":105.608568,"velocity":0.7401574803149606},{"duration":0.0833333333333286,"durationTicks":200,"midi":91,"name":"G6","ticks":255840,"time":105.70856800000001,"velocity":0.6929133858267716},{"duration":0.08333333333334281,"durationTicks":200,"midi":88,"name":"E6","ticks":256080,"time":105.80856800000001,"velocity":0.6456692913385826},{"duration":0.08333333333334281,"durationTicks":200,"midi":83,"name":"B5","ticks":256320,"time":105.908568,"velocity":0.5905511811023622},{"duration":0.0833333333333286,"durationTicks":200,"midi":79,"name":"G5","ticks":256560,"time":106.00856800000001,"velocity":0.5433070866141733},{"duration":0.08333333333334281,"durationTicks":200,"midi":76,"name":"E5","ticks":256800,"time":106.108568,"velocity":0.49606299212598426},{"duration":0.0833333333333286,"durationTicks":200,"midi":71,"name":"B4","ticks":257040,"time":106.20856800000001,"velocity":0.44881889763779526}]},{"channel":5,"controlChanges":{},"pitchBends":[],"instrument":{"family":"pipe","number":72,"name":"piccolo"},"name":"","notes":[{"duration":0.03333333333333144,"durationTicks":80,"midi":90,"name":"F#6","ticks":62400,"time":25.108568,"velocity":0.7874015748031497},{"duration":0.36666666666666714,"durationTicks":880,"midi":91,"name":"G6","ticks":62480,"time":25.141901333333333,"velocity":0.7874015748031497},{"duration":0.3999999999999986,"durationTicks":960,"midi":88,"name":"E6","ticks":63360,"time":25.508568,"velocity":0.7874015748031497},{"duration":0.03333333333333499,"durationTicks":80,"midi":99,"name":"D#7","ticks":64320,"time":25.908568,"velocity":0.7874015748031497},{"duration":0.36666666666666714,"durationTicks":880,"midi":100,"name":"E7","ticks":64400,"time":25.941901333333334,"velocity":0.7874015748031497},{"duration":0.03333333333333499,"durationTicks":80,"midi":94,"name":"A#6","ticks":65280,"time":26.308568,"velocity":0.7874015748031497},{"duration":1.5666666666666629,"durationTicks":3760,"midi":95,"name":"B6","ticks":65360,"time":26.341901333333336,"velocity":0.7874015748031497},{"duration":0.03333333333333499,"durationTicks":80,"midi":94,"name":"A#6","ticks":70080,"time":28.308568,"velocity":0.6692913385826772},{"duration":0.3666666666666636,"durationTicks":880,"midi":95,"name":"B6","ticks":70160,"time":28.341901333333336,"velocity":0.6692913385826772},{"duration":0.40000000000000213,"durationTicks":960,"midi":91,"name":"G6","ticks":71040,"time":28.708568,"velocity":0.6692913385826772},{"duration":0.03333333333333144,"durationTicks":80,"midi":97,"name":"C#7","ticks":72000,"time":29.108568,"velocity":0.6692913385826772},{"duration":0.36666666666666714,"durationTicks":880,"midi":98,"name":"D7","ticks":72080,"time":29.141901333333333,"velocity":0.6692913385826772},{"duration":1.6000000000000014,"durationTicks":3840,"midi":100,"name":"E7","ticks":72960,"time":29.508568,"velocity":0.6692913385826772},{"duration":0.03333333333333144,"durationTicks":80,"midi":90,"name":"F#6","ticks":262080,"time":108.30856800000001,"velocity":0.7874015748031497},{"duration":0.36666666666667425,"durationTicks":880,"midi":91,"name":"G6","ticks":262160,"time":108.34190133333334,"velocity":0.7874015748031497},{"duration":0.3999999999999915,"durationTicks":960,"midi":88,"name":"E6","ticks":263040,"time":108.70856800000001,"velocity":0.7874015748031497},{"duration":0.03333333333333144,"durationTicks":80,"midi":99,"name":"D#7","ticks":264000,"time":109.108568,"velocity":0.7874015748031497},{"duration":0.36666666666667425,"durationTicks":880,"midi":100,"name":"E7","ticks":264080,"time":109.14190133333334,"velocity":0.7874015748031497},{"duration":0.03333333333331723,"durationTicks":80,"midi":94,"name":"A#6","ticks":264960,"time":109.50856800000001,"velocity":0.7874015748031497},{"duration":1.566666666666677,"durationTicks":3760,"midi":95,"name":"B6","ticks":265040,"time":109.54190133333333,"velocity":0.7874015748031497},{"duration":0.03333333333331723,"durationTicks":80,"midi":94,"name":"A#6","ticks":269760,"time":111.50856800000001,"velocity":0.7874015748031497},{"duration":0.36666666666667425,"durationTicks":880,"midi":95,"name":"B6","ticks":269840,"time":111.54190133333333,"velocity":0.7874015748031497},{"duration":0.4000000000000057,"durationTicks":960,"midi":91,"name":"G6","ticks":270720,"time":111.908568,"velocity":0.7874015748031497},{"duration":0.03333333333333144,"durationTicks":80,"midi":97,"name":"C#7","ticks":271680,"time":112.30856800000001,"velocity":0.7874015748031497},{"duration":0.36666666666667425,"durationTicks":880,"midi":98,"name":"D7","ticks":271760,"time":112.34190133333334,"velocity":0.7874015748031497},{"duration":1.5999999999999943,"durationTicks":3840,"midi":100,"name":"E7","ticks":272640,"time":112.70856800000001,"velocity":0.7874015748031497}]},{"channel":0,"controlChanges":{"1":[{"number":1,"ticks":69120,"time":27.908568,"value":0.5039370078740157}],"10":[{"number":10,"ticks":69360,"time":28.008568,"value":0.6299212598425197}]},"pitchBends":[],"instrument":{"family":"piano","number":0,"name":"acoustic grand piano"},"name":"","notes":[]},{"channel":6,"controlChanges":{"7":[{"number":7,"ticks":69600,"time":28.108568,"value":0.6299212598425197}]},"pitchBends":[{"ticks":70160,"time":28.341901333333336,"value":0.078125},{"ticks":76890,"time":31.146068,"value":0},{"ticks":269840,"time":111.54190133333333,"value":0.078125},{"ticks":276570,"time":114.346068,"value":0}],"instrument":{"family":"pipe","number":72,"name":"piccolo"},"name":"","notes":[{"duration":0.03333333333333144,"durationTicks":80,"midi":94,"name":"A#6","ticks":70160,"time":28.341901333333336,"velocity":0.3937007874015748},{"duration":0.36666666666666714,"durationTicks":880,"midi":95,"name":"B6","ticks":70240,"time":28.375234666666667,"velocity":0.3937007874015748},{"duration":0.3999999999999986,"durationTicks":960,"midi":91,"name":"G6","ticks":71120,"time":28.741901333333335,"velocity":0.3937007874015748},{"duration":0.03333333333333144,"durationTicks":80,"midi":97,"name":"C#7","ticks":72080,"time":29.141901333333333,"velocity":0.3937007874015748},{"duration":0.36666666666666714,"durationTicks":880,"midi":98,"name":"D7","ticks":72160,"time":29.175234666666665,"velocity":0.3937007874015748},{"duration":1.6000000000000014,"durationTicks":3840,"midi":100,"name":"E7","ticks":73040,"time":29.541901333333332,"velocity":0.3937007874015748},{"duration":0.03333333333335986,"durationTicks":80,"midi":94,"name":"A#6","ticks":269840,"time":111.54190133333333,"velocity":0.3937007874015748},{"duration":0.3666666666666458,"durationTicks":880,"midi":95,"name":"B6","ticks":269920,"time":111.57523466666669,"velocity":0.3937007874015748},{"duration":0.4000000000000057,"durationTicks":960,"midi":91,"name":"G6","ticks":270800,"time":111.94190133333333,"velocity":0.3937007874015748},{"duration":0.03333333333334565,"durationTicks":80,"midi":97,"name":"C#7","ticks":271760,"time":112.34190133333334,"velocity":0.3937007874015748},{"duration":0.3666666666666458,"durationTicks":880,"midi":98,"name":"D7","ticks":271840,"time":112.37523466666669,"velocity":0.3937007874015748},{"duration":1.6000000000000085,"durationTicks":3840,"midi":100,"name":"E7","ticks":272720,"time":112.74190133333333,"velocity":0.3937007874015748}]},{"channel":6,"controlChanges":{"10":[{"number":10,"ticks":87360,"time":35.508568000000004,"value":0.3779527559055118}]},"pitchBends":[],"instrument":{"family":"synth lead","number":80,"name":"lead 1 (square)"},"name":"","notes":[{"duration":0.10000000000000142,"durationTicks":240,"midi":76,"name":"E5","ticks":87840,"time":35.708568,"velocity":0.7874015748031497},{"duration":0.10000000000000142,"durationTicks":240,"midi":78,"name":"F#5","ticks":88080,"time":35.808568,"velocity":0.7874015748031497},{"duration":0.6000000000000014,"durationTicks":1440,"midi":80,"name":"G#5","ticks":88320,"time":35.908568,"velocity":0.7874015748031497},{"duration":0.20000000000000284,"durationTicks":480,"midi":78,"name":"F#5","ticks":89760,"time":36.508568000000004,"velocity":0.7874015748031497},{"duration":0.5999999999999943,"durationTicks":1440,"midi":83,"name":"B5","ticks":90240,"time":36.70856800000001,"velocity":0.7874015748031497},{"duration":0.20000000000000284,"durationTicks":480,"midi":80,"name":"G#5","ticks":91680,"time":37.308568,"velocity":0.7874015748031497},{"duration":0.20000000000000284,"durationTicks":480,"midi":78,"name":"F#5","ticks":92160,"time":37.508568000000004,"velocity":0.7874015748031497},{"duration":0.19999999999999574,"durationTicks":480,"midi":80,"name":"G#5","ticks":92640,"time":37.70856800000001,"velocity":0.7874015748031497},{"duration":0.8000000000000043,"durationTicks":1920,"midi":73,"name":"C#5","ticks":93120,"time":37.908568,"velocity":0.7874015748031497},{"duration":0.3999999999999986,"durationTicks":960,"midi":76,"name":"E5","ticks":95040,"time":38.70856800000001,"velocity":0.7874015748031497},{"duration":0.6000000000000014,"durationTicks":1440,"midi":75,"name":"D#5","ticks":96000,"time":39.108568000000005,"velocity":0.7874015748031497},{"duration":0.19999999999999574,"durationTicks":480,"midi":71,"name":"B4","ticks":97440,"time":39.70856800000001,"velocity":0.7874015748031497},{"duration":0.3999999999999986,"durationTicks":960,"midi":78,"name":"F#5","ticks":97920,"time":39.908568,"velocity":0.7874015748031497},{"duration":0.4000000000000057,"durationTicks":960,"midi":76,"name":"E5","ticks":98880,"time":40.308568,"velocity":0.7874015748031497},{"duration":0.18333333333333002,"durationTicks":440,"midi":75,"name":"D#5","ticks":99840,"time":40.70856800000001,"velocity":0.7874015748031497},{"duration":0.06666666666666998,"durationTicks":160,"midi":75,"name":"D#5","ticks":100320,"time":40.908568,"velocity":0.7874015748031497},{"duration":0.06666666666666288,"durationTicks":160,"midi":76,"name":"E5","ticks":100480,"time":40.97523466666667,"velocity":0.7874015748031497},{"duration":0.06666666666666998,"durationTicks":160,"midi":75,"name":"D#5","ticks":100640,"time":41.041901333333335,"velocity":0.7874015748031497},{"duration":0.7999999999999972,"durationTicks":1920,"midi":73,"name":"C#5","ticks":100800,"time":41.108568000000005,"velocity":0.7874015748031497},{"duration":0.20000000000000284,"durationTicks":480,"midi":76,"name":"E5","ticks":102720,"time":41.908568,"velocity":0.7874015748031497},{"duration":0.20000000000000284,"durationTicks":480,"midi":78,"name":"F#5","ticks":103200,"time":42.108568000000005,"velocity":0.7874015748031497},{"duration":0.5999999999999943,"durationTicks":1440,"midi":80,"name":"G#5","ticks":103680,"time":42.30856800000001,"velocity":0.7874015748031497},{"duration":0.20000000000000284,"durationTicks":480,"midi":78,"name":"F#5","ticks":105120,"time":42.908568,"velocity":0.7874015748031497},{"duration":0.6000000000000014,"durationTicks":1440,"midi":83,"name":"B5","ticks":105600,"time":43.108568000000005,"velocity":0.7874015748031497},{"duration":0.19999999999999574,"durationTicks":480,"midi":85,"name":"C#6","ticks":107040,"time":43.70856800000001,"velocity":0.7874015748031497},{"duration":0.20000000000000284,"durationTicks":480,"midi":80,"name":"G#5","ticks":107520,"time":43.908568,"velocity":0.7874015748031497},{"duration":0.20000000000000284,"durationTicks":480,"midi":83,"name":"B5","ticks":108000,"time":44.108568000000005,"velocity":0.7874015748031497},{"duration":0.7999999999999972,"durationTicks":1920,"midi":78,"name":"F#5","ticks":108480,"time":44.30856800000001,"velocity":0.7874015748031497},{"duration":0.20000000000000284,"durationTicks":480,"midi":76,"name":"E5","ticks":110400,"time":45.108568000000005,"velocity":0.7874015748031497},{"duration":0.19999999999999574,"durationTicks":480,"midi":83,"name":"B5","ticks":110880,"time":45.30856800000001,"velocity":0.7874015748031497},{"duration":2.3999999999999986,"durationTicks":5760,"midi":80,"name":"G#5","ticks":111360,"time":45.508568000000004,"velocity":0.7874015748031497},{"duration":0.3999999999999986,"durationTicks":960,"midi":68,"name":"G#4","ticks":118080,"time":48.30856800000001,"velocity":0.7874015748031497},{"duration":0.6000000000000014,"durationTicks":1440,"midi":80,"name":"G#5","ticks":119040,"time":48.70856800000001,"velocity":0.7874015748031497},{"duration":0.19999999999999574,"durationTicks":480,"midi":78,"name":"F#5","ticks":120480,"time":49.30856800000001,"velocity":0.7874015748031497},{"duration":0.6000000000000014,"durationTicks":1440,"midi":83,"name":"B5","ticks":120960,"time":49.508568000000004,"velocity":0.7874015748031497},{"duration":0.20000000000000284,"durationTicks":480,"midi":80,"name":"G#5","ticks":122400,"time":50.108568000000005,"velocity":0.7874015748031497},{"duration":0.18333333333333002,"durationTicks":440,"midi":78,"name":"F#5","ticks":122880,"time":50.30856800000001,"velocity":0.7874015748031497},{"duration":0.0833333333333357,"durationTicks":200,"midi":78,"name":"F#5","ticks":123360,"time":50.508568000000004,"velocity":0.7874015748031497},{"duration":0.0833333333333286,"durationTicks":200,"midi":80,"name":"G#5","ticks":123600,"time":50.608568000000005,"velocity":0.7874015748031497},{"duration":0.7999999999999972,"durationTicks":1920,"midi":71,"name":"B4","ticks":123840,"time":50.70856800000001,"velocity":0.7874015748031497},{"duration":0.3999999999999986,"durationTicks":960,"midi":73,"name":"C#5","ticks":125760,"time":51.508568000000004,"velocity":0.7874015748031497},{"duration":0.6000000000000014,"durationTicks":1440,"midi":75,"name":"D#5","ticks":126720,"time":51.908568,"velocity":0.7874015748031497},{"duration":0.20000000000000284,"durationTicks":480,"midi":71,"name":"B4","ticks":128160,"time":52.508568000000004,"velocity":0.7874015748031497},{"duration":0.29999999999999716,"durationTicks":720,"midi":78,"name":"F#5","ticks":128640,"time":52.70856800000001,"velocity":0.7874015748031497},{"duration":0.30000000000000426,"durationTicks":720,"midi":76,"name":"E5","ticks":129360,"time":53.008568000000004,"velocity":0.7874015748031497},{"duration":0.18333333333333002,"durationTicks":440,"midi":75,"name":"D#5","ticks":130080,"time":53.30856800000001,"velocity":0.7874015748031497},{"duration":0.18333333333333002,"durationTicks":440,"midi":75,"name":"D#5","ticks":130560,"time":53.508568000000004,"velocity":0.7874015748031497},{"duration":0.06666666666666998,"durationTicks":160,"midi":75,"name":"D#5","ticks":131040,"time":53.70856800000001,"velocity":0.7874015748031497},{"duration":0.06666666666666288,"durationTicks":160,"midi":76,"name":"E5","ticks":131200,"time":53.77523466666668,"velocity":0.7874015748031497},{"duration":0.06666666666666288,"durationTicks":160,"midi":75,"name":"D#5","ticks":131360,"time":53.84190133333334,"velocity":0.7874015748031497},{"duration":0.9000000000000057,"durationTicks":2160,"midi":73,"name":"C#5","ticks":131520,"time":53.908568,"velocity":0.7874015748031497},{"duration":0.20000000000000284,"durationTicks":480,"midi":68,"name":"G#4","ticks":133920,"time":54.908568,"velocity":0.7874015748031497},{"duration":0.18333333333333712,"durationTicks":440,"midi":69,"name":"A4","ticks":134400,"time":55.108568000000005,"velocity":0.7874015748031497},{"duration":0.18333333333333712,"durationTicks":440,"midi":73,"name":"C#5","ticks":134880,"time":55.30856800000001,"velocity":0.7874015748031497},{"duration":0.18333333333333712,"durationTicks":440,"midi":80,"name":"G#5","ticks":135360,"time":55.508568000000004,"velocity":0.7874015748031497},{"duration":0.38333333333333286,"durationTicks":920,"midi":78,"name":"F#5","ticks":135840,"time":55.70856800000001,"velocity":0.7874015748031497},{"duration":0.38333333333333997,"durationTicks":920,"midi":83,"name":"B5","ticks":136800,"time":56.108568000000005,"velocity":0.7874015748031497},{"duration":0.18333333333333712,"durationTicks":440,"midi":76,"name":"E5","ticks":137760,"time":56.508568000000004,"velocity":0.7874015748031497},{"duration":0.19999999999999574,"durationTicks":480,"midi":75,"name":"D#5","ticks":138240,"time":56.70856800000001,"velocity":0.7874015748031497},{"duration":0.20000000000000284,"durationTicks":480,"midi":71,"name":"B4","ticks":138720,"time":56.908568,"velocity":0.7874015748031497},{"duration":0.20000000000000284,"durationTicks":480,"midi":78,"name":"F#5","ticks":139200,"time":57.108568000000005,"velocity":0.7874015748031497},{"duration":0.6999999999999957,"durationTicks":1680,"midi":76,"name":"E5","ticks":139680,"time":57.30856800000001,"velocity":0.7874015748031497},{"duration":0.10000000000000142,"durationTicks":240,"midi":76,"name":"E5","ticks":141600,"time":58.108568000000005,"velocity":0.7874015748031497},{"duration":0.10000000000000142,"durationTicks":240,"midi":78,"name":"F#5","ticks":141840,"time":58.20856800000001,"velocity":0.7874015748031497},{"duration":0.5999999999999943,"durationTicks":1440,"midi":80,"name":"G#5","ticks":142080,"time":58.30856800000001,"velocity":0.7874015748031497},{"duration":0.10000000000000142,"durationTicks":240,"midi":76,"name":"E5","ticks":143520,"time":58.908568,"velocity":0.7874015748031497},{"duration":0.10000000000000142,"durationTicks":240,"midi":78,"name":"F#5","ticks":143760,"time":59.008568000000004,"velocity":0.7874015748031497},{"duration":0.29999999999999716,"durationTicks":720,"midi":80,"name":"G#5","ticks":144000,"time":59.108568000000005,"velocity":0.7874015748031497},{"duration":0.30000000000000426,"durationTicks":720,"midi":76,"name":"E5","ticks":144720,"time":59.408568,"velocity":0.7874015748031497},{"duration":0.033333333333338544,"durationTicks":80,"midi":82,"name":"A#5","ticks":145440,"time":59.70856800000001,"velocity":0.7874015748031497},{"duration":0.1666666666666572,"durationTicks":400,"midi":83,"name":"B5","ticks":145520,"time":59.741901333333345,"velocity":0.7874015748031497},{"duration":1.4000000000000057,"durationTicks":3360,"midi":80,"name":"G#5","ticks":145920,"time":59.908568,"velocity":0.7874015748031497},{"duration":0.10000000000000853,"durationTicks":240,"midi":76,"name":"E5","ticks":287520,"time":118.908568,"velocity":0.7874015748031497},{"duration":0.09999999999999432,"durationTicks":240,"midi":78,"name":"F#5","ticks":287760,"time":119.00856800000001,"velocity":0.7874015748031497},{"duration":0.6000000000000085,"durationTicks":1440,"midi":80,"name":"G#5","ticks":288000,"time":119.108568,"velocity":0.7874015748031497},{"duration":0.19999999999998863,"durationTicks":480,"midi":78,"name":"F#5","ticks":289440,"time":119.70856800000001,"velocity":0.7874015748031497},{"duration":0.6000000000000085,"durationTicks":1440,"midi":83,"name":"B5","ticks":289920,"time":119.908568,"velocity":0.7874015748031497},{"duration":0.20000000000000284,"durationTicks":480,"midi":80,"name":"G#5","ticks":291360,"time":120.50856800000001,"velocity":0.7874015748031497},{"duration":0.19999999999998863,"durationTicks":480,"midi":78,"name":"F#5","ticks":291840,"time":120.70856800000001,"velocity":0.7874015748031497},{"duration":0.20000000000000284,"durationTicks":480,"midi":80,"name":"G#5","ticks":292320,"time":120.908568,"velocity":0.7874015748031497},{"duration":0.7999999999999972,"durationTicks":1920,"midi":73,"name":"C#5","ticks":292800,"time":121.108568,"velocity":0.7874015748031497},{"duration":0.4000000000000057,"durationTicks":960,"midi":76,"name":"E5","ticks":294720,"time":121.908568,"velocity":0.7874015748031497},{"duration":0.5999999999999943,"durationTicks":1440,"midi":75,"name":"D#5","ticks":295680,"time":122.30856800000001,"velocity":0.7874015748031497},{"duration":0.20000000000000284,"durationTicks":480,"midi":71,"name":"B4","ticks":297120,"time":122.908568,"velocity":0.7874015748031497},{"duration":0.4000000000000057,"durationTicks":960,"midi":78,"name":"F#5","ticks":297600,"time":123.108568,"velocity":0.7874015748031497},{"duration":0.3999999999999915,"durationTicks":960,"midi":76,"name":"E5","ticks":298560,"time":123.50856800000001,"velocity":0.7874015748031497},{"duration":0.18333333333333712,"durationTicks":440,"midi":75,"name":"D#5","ticks":299520,"time":123.908568,"velocity":0.7874015748031497},{"duration":0.06666666666667709,"durationTicks":160,"midi":75,"name":"D#5","ticks":300000,"time":124.108568,"velocity":0.7874015748031497},{"duration":0.06666666666664867,"durationTicks":160,"midi":76,"name":"E5","ticks":300160,"time":124.17523466666668,"velocity":0.7874015748031497},{"duration":0.06666666666667709,"durationTicks":160,"midi":75,"name":"D#5","ticks":300320,"time":124.24190133333333,"velocity":0.7874015748031497},{"duration":0.7999999999999972,"durationTicks":1920,"midi":73,"name":"C#5","ticks":300480,"time":124.30856800000001,"velocity":0.7874015748031497},{"duration":0.20000000000000284,"durationTicks":480,"midi":76,"name":"E5","ticks":302400,"time":125.108568,"velocity":0.7874015748031497},{"duration":0.20000000000000284,"durationTicks":480,"midi":78,"name":"F#5","ticks":302880,"time":125.30856800000001,"velocity":0.7874015748031497},{"duration":0.5999999999999943,"durationTicks":1440,"midi":80,"name":"G#5","ticks":303360,"time":125.50856800000001,"velocity":0.7874015748031497},{"duration":0.20000000000000284,"durationTicks":480,"midi":78,"name":"F#5","ticks":304800,"time":126.108568,"velocity":0.7874015748031497},{"duration":0.5999999999999943,"durationTicks":1440,"midi":83,"name":"B5","ticks":305280,"time":126.30856800000001,"velocity":0.7874015748031497},{"duration":0.20000000000000284,"durationTicks":480,"midi":85,"name":"C#6","ticks":306720,"time":126.908568,"velocity":0.7874015748031497},{"duration":0.20000000000000284,"durationTicks":480,"midi":80,"name":"G#5","ticks":307200,"time":127.108568,"velocity":0.7874015748031497},{"duration":0.20000000000000284,"durationTicks":480,"midi":83,"name":"B5","ticks":307680,"time":127.30856800000001,"velocity":0.7874015748031497},{"duration":0.7999999999999972,"durationTicks":1920,"midi":78,"name":"F#5","ticks":308160,"time":127.50856800000001,"velocity":0.7874015748031497},{"duration":0.19999999999998863,"durationTicks":480,"midi":76,"name":"E5","ticks":310080,"time":128.308568,"velocity":0.7874015748031497},{"duration":0.20000000000001705,"durationTicks":480,"midi":83,"name":"B5","ticks":310560,"time":128.508568,"velocity":0.7874015748031497},{"duration":2.3999999999999773,"durationTicks":5760,"midi":80,"name":"G#5","ticks":311040,"time":128.708568,"velocity":0.7874015748031497},{"duration":0.4000000000000057,"durationTicks":960,"midi":68,"name":"G#4","ticks":317760,"time":131.508568,"velocity":0.7874015748031497},{"duration":0.5999999999999943,"durationTicks":1440,"midi":80,"name":"G#5","ticks":318720,"time":131.908568,"velocity":0.7874015748031497},{"duration":0.20000000000001705,"durationTicks":480,"midi":78,"name":"F#5","ticks":320160,"time":132.508568,"velocity":0.7874015748031497},{"duration":0.5999999999999943,"durationTicks":1440,"midi":83,"name":"B5","ticks":320640,"time":132.708568,"velocity":0.7874015748031497},{"duration":0.19999999999998863,"durationTicks":480,"midi":80,"name":"G#5","ticks":322080,"time":133.308568,"velocity":0.7874015748031497},{"duration":0.18333333333333712,"durationTicks":440,"midi":78,"name":"F#5","ticks":322560,"time":133.508568,"velocity":0.7874015748031497},{"duration":0.08333333333331439,"durationTicks":200,"midi":78,"name":"F#5","ticks":323040,"time":133.708568,"velocity":0.7874015748031497},{"duration":0.08333333333331439,"durationTicks":200,"midi":80,"name":"G#5","ticks":323280,"time":133.808568,"velocity":0.7874015748031497},{"duration":0.8000000000000114,"durationTicks":1920,"midi":71,"name":"B4","ticks":323520,"time":133.908568,"velocity":0.7874015748031497},{"duration":0.4000000000000057,"durationTicks":960,"midi":73,"name":"C#5","ticks":325440,"time":134.708568,"velocity":0.7874015748031497},{"duration":0.5999999999999943,"durationTicks":1440,"midi":75,"name":"D#5","ticks":326400,"time":135.10856800000002,"velocity":0.7874015748031497},{"duration":0.19999999999998863,"durationTicks":480,"midi":71,"name":"B4","ticks":327840,"time":135.708568,"velocity":0.7874015748031497},{"duration":0.30000000000001137,"durationTicks":720,"midi":78,"name":"F#5","ticks":328320,"time":135.908568,"velocity":0.7874015748031497},{"duration":0.29999999999998295,"durationTicks":720,"midi":76,"name":"E5","ticks":329040,"time":136.208568,"velocity":0.7874015748031497},{"duration":0.18333333333333712,"durationTicks":440,"midi":75,"name":"D#5","ticks":329760,"time":136.508568,"velocity":0.7874015748031497},{"duration":0.1833333333333087,"durationTicks":440,"midi":75,"name":"D#5","ticks":330240,"time":136.708568,"velocity":0.7874015748031497},{"duration":0.0666666666666913,"durationTicks":160,"midi":75,"name":"D#5","ticks":330720,"time":136.908568,"velocity":0.7874015748031497},{"duration":0.06666666666663446,"durationTicks":160,"midi":76,"name":"E5","ticks":330880,"time":136.9752346666667,"velocity":0.7874015748031497},{"duration":0.0666666666666913,"durationTicks":160,"midi":75,"name":"D#5","ticks":331040,"time":137.04190133333333,"velocity":0.7874015748031497},{"duration":0.8999999999999773,"durationTicks":2160,"midi":73,"name":"C#5","ticks":331200,"time":137.10856800000002,"velocity":0.7874015748031497},{"duration":0.19999999999998863,"durationTicks":480,"midi":68,"name":"G#4","ticks":333600,"time":138.10856800000002,"velocity":0.7874015748031497},{"duration":0.18333333333333712,"durationTicks":440,"midi":69,"name":"A4","ticks":334080,"time":138.308568,"velocity":0.7874015748031497},{"duration":0.18333333333333712,"durationTicks":440,"midi":73,"name":"C#5","ticks":334560,"time":138.508568,"velocity":0.7874015748031497},{"duration":0.1833333333333087,"durationTicks":440,"midi":80,"name":"G#5","ticks":335040,"time":138.708568,"velocity":0.7874015748031497},{"duration":0.38333333333332575,"durationTicks":920,"midi":78,"name":"F#5","ticks":335520,"time":138.908568,"velocity":0.7874015748031497},{"duration":0.38333333333332575,"durationTicks":920,"midi":83,"name":"B5","ticks":336480,"time":139.308568,"velocity":0.7874015748031497},{"duration":0.1833333333333087,"durationTicks":440,"midi":76,"name":"E5","ticks":337440,"time":139.708568,"velocity":0.7874015748031497},{"duration":0.20000000000001705,"durationTicks":480,"midi":75,"name":"D#5","ticks":337920,"time":139.908568,"velocity":0.7874015748031497},{"duration":0.19999999999998863,"durationTicks":480,"midi":71,"name":"B4","ticks":338400,"time":140.10856800000002,"velocity":0.7874015748031497},{"duration":0.19999999999998863,"durationTicks":480,"midi":78,"name":"F#5","ticks":338880,"time":140.308568,"velocity":0.7874015748031497},{"duration":0.700000000000017,"durationTicks":1680,"midi":76,"name":"E5","ticks":339360,"time":140.508568,"velocity":0.7874015748031497},{"duration":0.09999999999999432,"durationTicks":240,"midi":76,"name":"E5","ticks":341280,"time":141.308568,"velocity":0.7874015748031497},{"duration":0.09999999999999432,"durationTicks":240,"midi":78,"name":"F#5","ticks":341520,"time":141.408568,"velocity":0.7874015748031497},{"duration":0.6000000000000227,"durationTicks":1440,"midi":80,"name":"G#5","ticks":341760,"time":141.508568,"velocity":0.7874015748031497},{"duration":0.09999999999999432,"durationTicks":240,"midi":76,"name":"E5","ticks":343200,"time":142.10856800000002,"velocity":0.7874015748031497},{"duration":0.09999999999999432,"durationTicks":240,"midi":78,"name":"F#5","ticks":343440,"time":142.208568,"velocity":0.7874015748031497},{"duration":0.30000000000001137,"durationTicks":720,"midi":80,"name":"G#5","ticks":343680,"time":142.308568,"velocity":0.7874015748031497},{"duration":0.29999999999998295,"durationTicks":720,"midi":76,"name":"E5","ticks":344400,"time":142.60856800000002,"velocity":0.7874015748031497},{"duration":0.03333333333333144,"durationTicks":80,"midi":82,"name":"A#5","ticks":345120,"time":142.908568,"velocity":0.7874015748031497},{"duration":0.16666666666668561,"durationTicks":400,"midi":83,"name":"B5","ticks":345200,"time":142.94190133333333,"velocity":0.7874015748031497},{"duration":1.3999999999999773,"durationTicks":3360,"midi":80,"name":"G#5","ticks":345600,"time":143.10856800000002,"velocity":0.7874015748031497}]},{"channel":4,"controlChanges":{"7":[{"number":7,"ticks":87840,"time":35.708568,"value":0.6299212598425197},{"number":7,"ticks":118560,"time":48.508568000000004,"value":0.6299212598425197},{"number":7,"ticks":287520,"time":118.908568,"value":0.6299212598425197},{"number":7,"ticks":318240,"time":131.708568,"value":0.6299212598425197}],"10":[{"number":10,"ticks":87840,"time":35.708568,"value":0.44881889763779526},{"number":10,"ticks":118560,"time":48.508568000000004,"value":0.44881889763779526},{"number":10,"ticks":149340,"time":61.33356800000001,"value":0.3779527559055118},{"number":10,"ticks":287520,"time":118.908568,"value":0.44881889763779526},{"number":10,"ticks":318240,"time":131.708568,"value":0.44881889763779526},{"number":10,"ticks":349020,"time":144.533568,"value":0.3779527559055118}]},"pitchBends":[{"ticks":87840,"time":35.708568,"value":0.048828125},{"ticks":118560,"time":48.508568000000004,"value":0.048828125},{"ticks":287520,"time":118.908568,"value":0.048828125},{"ticks":318240,"time":131.708568,"value":0.048828125}],"instrument":{"family":"synth lead","number":80,"name":"lead 1 (square)"},"name":"","notes":[{"duration":0.09999999999999432,"durationTicks":240,"midi":76,"name":"E5","ticks":87900,"time":35.733568000000005,"velocity":0.7874015748031497},{"duration":0.10000000000000142,"durationTicks":240,"midi":78,"name":"F#5","ticks":88140,"time":35.833568,"velocity":0.7874015748031497},{"duration":0.6000000000000014,"durationTicks":1440,"midi":80,"name":"G#5","ticks":88380,"time":35.933568,"velocity":0.7874015748031497},{"duration":0.20000000000000284,"durationTicks":480,"midi":78,"name":"F#5","ticks":89820,"time":36.533568,"velocity":0.7874015748031497},{"duration":0.6000000000000014,"durationTicks":1440,"midi":83,"name":"B5","ticks":90300,"time":36.733568000000005,"velocity":0.7874015748031497},{"duration":0.19999999999999574,"durationTicks":480,"midi":80,"name":"G#5","ticks":91740,"time":37.33356800000001,"velocity":0.7874015748031497},{"duration":0.20000000000000284,"durationTicks":480,"midi":78,"name":"F#5","ticks":92220,"time":37.533568,"velocity":0.7874015748031497},{"duration":0.19999999999999574,"durationTicks":480,"midi":80,"name":"G#5","ticks":92700,"time":37.733568000000005,"velocity":0.7874015748031497},{"duration":0.8000000000000043,"durationTicks":1920,"midi":73,"name":"C#5","ticks":93180,"time":37.933568,"velocity":0.7874015748031497},{"duration":0.3999999999999986,"durationTicks":960,"midi":76,"name":"E5","ticks":95100,"time":38.733568000000005,"velocity":0.7874015748031497},{"duration":0.6000000000000014,"durationTicks":1440,"midi":75,"name":"D#5","ticks":96060,"time":39.133568000000004,"velocity":0.7874015748031497},{"duration":0.19999999999999574,"durationTicks":480,"midi":71,"name":"B4","ticks":97500,"time":39.733568000000005,"velocity":0.7874015748031497},{"duration":0.4000000000000057,"durationTicks":960,"midi":78,"name":"F#5","ticks":97980,"time":39.933568,"velocity":0.7874015748031497},{"duration":0.3999999999999986,"durationTicks":960,"midi":76,"name":"E5","ticks":98940,"time":40.33356800000001,"velocity":0.7874015748031497},{"duration":0.19999999999999574,"durationTicks":480,"midi":75,"name":"D#5","ticks":99900,"time":40.733568000000005,"velocity":0.7874015748031497},{"duration":0.06666666666666998,"durationTicks":160,"midi":75,"name":"D#5","ticks":100380,"time":40.933568,"velocity":0.7874015748031497},{"duration":0.06666666666666288,"durationTicks":160,"midi":76,"name":"E5","ticks":100540,"time":41.00023466666667,"velocity":0.7874015748031497},{"duration":0.06666666666666998,"durationTicks":160,"midi":75,"name":"D#5","ticks":100700,"time":41.066901333333334,"velocity":0.7874015748031497},{"duration":0.7999999999999972,"durationTicks":1920,"midi":73,"name":"C#5","ticks":100860,"time":41.133568000000004,"velocity":0.7874015748031497},{"duration":0.20000000000000284,"durationTicks":480,"midi":76,"name":"E5","ticks":102780,"time":41.933568,"velocity":0.7874015748031497},{"duration":0.20000000000000284,"durationTicks":480,"midi":78,"name":"F#5","ticks":103260,"time":42.133568000000004,"velocity":0.7874015748031497},{"duration":0.6000000000000014,"durationTicks":1440,"midi":80,"name":"G#5","ticks":103740,"time":42.33356800000001,"velocity":0.7874015748031497},{"duration":0.19999999999999574,"durationTicks":480,"midi":78,"name":"F#5","ticks":105180,"time":42.93356800000001,"velocity":0.7874015748031497},{"duration":0.6000000000000014,"durationTicks":1440,"midi":83,"name":"B5","ticks":105660,"time":43.133568000000004,"velocity":0.7874015748031497},{"duration":0.20000000000000284,"durationTicks":480,"midi":85,"name":"C#6","ticks":107100,"time":43.733568000000005,"velocity":0.7874015748031497},{"duration":0.19999999999999574,"durationTicks":480,"midi":80,"name":"G#5","ticks":107580,"time":43.93356800000001,"velocity":0.7874015748031497},{"duration":0.20000000000000284,"durationTicks":480,"midi":83,"name":"B5","ticks":108060,"time":44.133568000000004,"velocity":0.7874015748031497},{"duration":0.7999999999999972,"durationTicks":1920,"midi":78,"name":"F#5","ticks":108540,"time":44.33356800000001,"velocity":0.7874015748031497},{"duration":0.20000000000000284,"durationTicks":480,"midi":76,"name":"E5","ticks":110460,"time":45.133568000000004,"velocity":0.7874015748031497},{"duration":0.19999999999999574,"durationTicks":480,"midi":83,"name":"B5","ticks":110940,"time":45.33356800000001,"velocity":0.7874015748031497},{"duration":2.4000000000000057,"durationTicks":5760,"midi":80,"name":"G#5","ticks":111420,"time":45.533568,"velocity":0.7874015748031497},{"duration":0.3999999999999986,"durationTicks":960,"midi":68,"name":"G#4","ticks":118140,"time":48.33356800000001,"velocity":0.7874015748031497},{"duration":0.6000000000000014,"durationTicks":1440,"midi":80,"name":"G#5","ticks":119100,"time":48.733568000000005,"velocity":0.7874015748031497},{"duration":0.19999999999999574,"durationTicks":480,"midi":78,"name":"F#5","ticks":120540,"time":49.33356800000001,"velocity":0.7874015748031497},{"duration":0.6000000000000014,"durationTicks":1440,"midi":83,"name":"B5","ticks":121020,"time":49.533568,"velocity":0.7874015748031497},{"duration":0.20000000000000284,"durationTicks":480,"midi":80,"name":"G#5","ticks":122460,"time":50.133568000000004,"velocity":0.7874015748031497},{"duration":0.17499999999999716,"durationTicks":420,"midi":78,"name":"F#5","ticks":122940,"time":50.33356800000001,"velocity":0.7874015748031497},{"duration":0.07500000000000284,"durationTicks":180,"midi":78,"name":"F#5","ticks":123420,"time":50.533568,"velocity":0.7874015748031497},{"duration":0.07500000000000284,"durationTicks":180,"midi":80,"name":"G#5","ticks":123660,"time":50.633568000000004,"velocity":0.7874015748031497},{"duration":0.7999999999999972,"durationTicks":1920,"midi":71,"name":"B4","ticks":123900,"time":50.733568000000005,"velocity":0.7874015748031497},{"duration":0.4000000000000057,"durationTicks":960,"midi":73,"name":"C#5","ticks":125820,"time":51.533568,"velocity":0.7874015748031497},{"duration":0.5999999999999943,"durationTicks":1440,"midi":75,"name":"D#5","ticks":126780,"time":51.93356800000001,"velocity":0.7874015748031497},{"duration":0.20000000000000284,"durationTicks":480,"midi":71,"name":"B4","ticks":128220,"time":52.533568,"velocity":0.7874015748031497},{"duration":0.29999999999999716,"durationTicks":720,"midi":78,"name":"F#5","ticks":128700,"time":52.733568000000005,"velocity":0.7874015748031497},{"duration":0.30000000000000426,"durationTicks":720,"midi":76,"name":"E5","ticks":129420,"time":53.033568,"velocity":0.7874015748031497},{"duration":0.18333333333333002,"durationTicks":440,"midi":75,"name":"D#5","ticks":130140,"time":53.33356800000001,"velocity":0.7874015748031497},{"duration":0.18333333333333712,"durationTicks":440,"midi":75,"name":"D#5","ticks":130620,"time":53.533568,"velocity":0.7874015748031497},{"duration":0.06666666666666998,"durationTicks":160,"midi":75,"name":"D#5","ticks":131100,"time":53.733568000000005,"velocity":0.7874015748031497},{"duration":0.06666666666666288,"durationTicks":160,"midi":76,"name":"E5","ticks":131260,"time":53.800234666666675,"velocity":0.7874015748031497},{"duration":0.06666666666666998,"durationTicks":160,"midi":75,"name":"D#5","ticks":131420,"time":53.86690133333334,"velocity":0.7874015748031497},{"duration":0.8999999999999986,"durationTicks":2160,"midi":73,"name":"C#5","ticks":131580,"time":53.93356800000001,"velocity":0.7874015748031497},{"duration":0.19999999999999574,"durationTicks":480,"midi":68,"name":"G#4","ticks":133980,"time":54.93356800000001,"velocity":0.7874015748031497},{"duration":0.18333333333333712,"durationTicks":440,"midi":69,"name":"A4","ticks":134460,"time":55.133568000000004,"velocity":0.7874015748031497},{"duration":0.18333333333333712,"durationTicks":440,"midi":73,"name":"C#5","ticks":134940,"time":55.33356800000001,"velocity":0.7874015748031497},{"duration":0.18333333333333712,"durationTicks":440,"midi":80,"name":"G#5","ticks":135420,"time":55.533568,"velocity":0.7874015748031497},{"duration":0.38333333333333997,"durationTicks":920,"midi":78,"name":"F#5","ticks":135900,"time":55.733568000000005,"velocity":0.7874015748031497},{"duration":0.38333333333333997,"durationTicks":920,"midi":83,"name":"B5","ticks":136860,"time":56.133568000000004,"velocity":0.7874015748031497},{"duration":0.18333333333333712,"durationTicks":440,"midi":76,"name":"E5","ticks":137820,"time":56.533568,"velocity":0.7874015748031497},{"duration":0.20000000000000284,"durationTicks":480,"midi":75,"name":"D#5","ticks":138300,"time":56.733568000000005,"velocity":0.7874015748031497},{"duration":0.19999999999999574,"durationTicks":480,"midi":71,"name":"B4","ticks":138780,"time":56.93356800000001,"velocity":0.7874015748031497},{"duration":0.20000000000000284,"durationTicks":480,"midi":78,"name":"F#5","ticks":139260,"time":57.133568000000004,"velocity":0.7874015748031497},{"duration":0.6999999999999957,"durationTicks":1680,"midi":76,"name":"E5","ticks":139740,"time":57.33356800000001,"velocity":0.7874015748031497},{"duration":0.10000000000000142,"durationTicks":240,"midi":76,"name":"E5","ticks":141660,"time":58.133568000000004,"velocity":0.7874015748031497},{"duration":0.10000000000000142,"durationTicks":240,"midi":78,"name":"F#5","ticks":141900,"time":58.233568000000005,"velocity":0.7874015748031497},{"duration":0.6000000000000014,"durationTicks":1440,"midi":80,"name":"G#5","ticks":142140,"time":58.33356800000001,"velocity":0.7874015748031497},{"duration":0.09999999999999432,"durationTicks":240,"midi":76,"name":"E5","ticks":143580,"time":58.93356800000001,"velocity":0.7874015748031497},{"duration":0.10000000000000142,"durationTicks":240,"midi":78,"name":"F#5","ticks":143820,"time":59.033568,"velocity":0.7874015748031497},{"duration":0.30000000000000426,"durationTicks":720,"midi":80,"name":"G#5","ticks":144060,"time":59.133568000000004,"velocity":0.7874015748031497},{"duration":0.29999999999999716,"durationTicks":720,"midi":76,"name":"E5","ticks":144780,"time":59.43356800000001,"velocity":0.7874015748031497},{"duration":0.033333333333338544,"durationTicks":80,"midi":82,"name":"A#5","ticks":145500,"time":59.733568000000005,"velocity":0.7874015748031497},{"duration":0.1666666666666643,"durationTicks":400,"midi":83,"name":"B5","ticks":145580,"time":59.766901333333344,"velocity":0.7874015748031497},{"duration":1.3999999999999986,"durationTicks":3360,"midi":80,"name":"G#5","ticks":145980,"time":59.93356800000001,"velocity":0.7874015748031497},{"duration":0.09999999999999432,"durationTicks":240,"midi":76,"name":"E5","ticks":287580,"time":118.93356800000001,"velocity":0.7874015748031497},{"duration":0.10000000000000853,"durationTicks":240,"midi":78,"name":"F#5","ticks":287820,"time":119.033568,"velocity":0.7874015748031497},{"duration":0.5999999999999943,"durationTicks":1440,"midi":80,"name":"G#5","ticks":288060,"time":119.13356800000001,"velocity":0.7874015748031497},{"duration":0.20000000000000284,"durationTicks":480,"midi":78,"name":"F#5","ticks":289500,"time":119.733568,"velocity":0.7874015748031497},{"duration":0.5999999999999943,"durationTicks":1440,"midi":83,"name":"B5","ticks":289980,"time":119.93356800000001,"velocity":0.7874015748031497},{"duration":0.20000000000000284,"durationTicks":480,"midi":80,"name":"G#5","ticks":291420,"time":120.533568,"velocity":0.7874015748031497},{"duration":0.20000000000000284,"durationTicks":480,"midi":78,"name":"F#5","ticks":291900,"time":120.733568,"velocity":0.7874015748031497},{"duration":0.20000000000000284,"durationTicks":480,"midi":80,"name":"G#5","ticks":292380,"time":120.93356800000001,"velocity":0.7874015748031497},{"duration":0.7999999999999972,"durationTicks":1920,"midi":73,"name":"C#5","ticks":292860,"time":121.13356800000001,"velocity":0.7874015748031497},{"duration":0.4000000000000057,"durationTicks":960,"midi":76,"name":"E5","ticks":294780,"time":121.93356800000001,"velocity":0.7874015748031497},{"duration":0.5999999999999943,"durationTicks":1440,"midi":75,"name":"D#5","ticks":295740,"time":122.33356800000001,"velocity":0.7874015748031497},{"duration":0.20000000000000284,"durationTicks":480,"midi":71,"name":"B4","ticks":297180,"time":122.93356800000001,"velocity":0.7874015748031497},{"duration":0.3999999999999915,"durationTicks":960,"midi":78,"name":"F#5","ticks":297660,"time":123.13356800000001,"velocity":0.7874015748031497},{"duration":0.4000000000000057,"durationTicks":960,"midi":76,"name":"E5","ticks":298620,"time":123.533568,"velocity":0.7874015748031497},{"duration":0.20000000000000284,"durationTicks":480,"midi":75,"name":"D#5","ticks":299580,"time":123.93356800000001,"velocity":0.7874015748031497},{"duration":0.06666666666667709,"durationTicks":160,"midi":75,"name":"D#5","ticks":300060,"time":124.13356800000001,"velocity":0.7874015748031497},{"duration":0.06666666666664867,"durationTicks":160,"midi":76,"name":"E5","ticks":300220,"time":124.20023466666669,"velocity":0.7874015748031497},{"duration":0.06666666666667709,"durationTicks":160,"midi":75,"name":"D#5","ticks":300380,"time":124.26690133333334,"velocity":0.7874015748031497},{"duration":0.7999999999999972,"durationTicks":1920,"midi":73,"name":"C#5","ticks":300540,"time":124.33356800000001,"velocity":0.7874015748031497},{"duration":0.20000000000000284,"durationTicks":480,"midi":76,"name":"E5","ticks":302460,"time":125.13356800000001,"velocity":0.7874015748031497},{"duration":0.19999999999998863,"durationTicks":480,"midi":78,"name":"F#5","ticks":302940,"time":125.33356800000001,"velocity":0.7874015748031497},{"duration":0.6000000000000085,"durationTicks":1440,"midi":80,"name":"G#5","ticks":303420,"time":125.533568,"velocity":0.7874015748031497},{"duration":0.20000000000000284,"durationTicks":480,"midi":78,"name":"F#5","ticks":304860,"time":126.13356800000001,"velocity":0.7874015748031497},{"duration":0.5999999999999943,"durationTicks":1440,"midi":83,"name":"B5","ticks":305340,"time":126.33356800000001,"velocity":0.7874015748031497},{"duration":0.20000000000000284,"durationTicks":480,"midi":85,"name":"C#6","ticks":306780,"time":126.93356800000001,"velocity":0.7874015748031497},{"duration":0.20000000000000284,"durationTicks":480,"midi":80,"name":"G#5","ticks":307260,"time":127.13356800000001,"velocity":0.7874015748031497},{"duration":0.19999999999998863,"durationTicks":480,"midi":83,"name":"B5","ticks":307740,"time":127.33356800000001,"velocity":0.7874015748031497},{"duration":0.8000000000000114,"durationTicks":1920,"midi":78,"name":"F#5","ticks":308220,"time":127.533568,"velocity":0.7874015748031497},{"duration":0.19999999999998863,"durationTicks":480,"midi":76,"name":"E5","ticks":310140,"time":128.333568,"velocity":0.7874015748031497},{"duration":0.19999999999998863,"durationTicks":480,"midi":83,"name":"B5","ticks":310620,"time":128.533568,"velocity":0.7874015748031497},{"duration":2.4000000000000057,"durationTicks":5760,"midi":80,"name":"G#5","ticks":311100,"time":128.733568,"velocity":0.7874015748031497},{"duration":0.4000000000000057,"durationTicks":960,"midi":68,"name":"G#4","ticks":317820,"time":131.533568,"velocity":0.7874015748031497},{"duration":0.5999999999999943,"durationTicks":1440,"midi":80,"name":"G#5","ticks":318780,"time":131.933568,"velocity":0.7874015748031497},{"duration":0.20000000000001705,"durationTicks":480,"midi":78,"name":"F#5","ticks":320220,"time":132.533568,"velocity":0.7874015748031497},{"duration":0.5999999999999943,"durationTicks":1440,"midi":83,"name":"B5","ticks":320700,"time":132.73356800000002,"velocity":0.7874015748031497},{"duration":0.19999999999998863,"durationTicks":480,"midi":80,"name":"G#5","ticks":322140,"time":133.333568,"velocity":0.7874015748031497},{"duration":0.17500000000001137,"durationTicks":420,"midi":78,"name":"F#5","ticks":322620,"time":133.533568,"velocity":0.7874015748031497},{"duration":0.07499999999998863,"durationTicks":180,"midi":78,"name":"F#5","ticks":323100,"time":133.73356800000002,"velocity":0.7874015748031497},{"duration":0.07499999999998863,"durationTicks":180,"midi":80,"name":"G#5","ticks":323340,"time":133.833568,"velocity":0.7874015748031497},{"duration":0.8000000000000114,"durationTicks":1920,"midi":71,"name":"B4","ticks":323580,"time":133.933568,"velocity":0.7874015748031497},{"duration":0.39999999999997726,"durationTicks":960,"midi":73,"name":"C#5","ticks":325500,"time":134.73356800000002,"velocity":0.7874015748031497},{"duration":0.6000000000000227,"durationTicks":1440,"midi":75,"name":"D#5","ticks":326460,"time":135.133568,"velocity":0.7874015748031497},{"duration":0.19999999999998863,"durationTicks":480,"midi":71,"name":"B4","ticks":327900,"time":135.73356800000002,"velocity":0.7874015748031497},{"duration":0.30000000000001137,"durationTicks":720,"midi":78,"name":"F#5","ticks":328380,"time":135.933568,"velocity":0.7874015748031497},{"duration":0.29999999999998295,"durationTicks":720,"midi":76,"name":"E5","ticks":329100,"time":136.23356800000002,"velocity":0.7874015748031497},{"duration":0.18333333333333712,"durationTicks":440,"midi":75,"name":"D#5","ticks":329820,"time":136.533568,"velocity":0.7874015748031497},{"duration":0.1833333333333087,"durationTicks":440,"midi":75,"name":"D#5","ticks":330300,"time":136.73356800000002,"velocity":0.7874015748031497},{"duration":0.06666666666666288,"durationTicks":160,"midi":75,"name":"D#5","ticks":330780,"time":136.933568,"velocity":0.7874015748031497},{"duration":0.06666666666666288,"durationTicks":160,"midi":76,"name":"E5","ticks":330940,"time":137.00023466666667,"velocity":0.7874015748031497},{"duration":0.06666666666666288,"durationTicks":160,"midi":75,"name":"D#5","ticks":331100,"time":137.06690133333333,"velocity":0.7874015748031497},{"duration":0.9000000000000057,"durationTicks":2160,"midi":73,"name":"C#5","ticks":331260,"time":137.133568,"velocity":0.7874015748031497},{"duration":0.20000000000001705,"durationTicks":480,"midi":68,"name":"G#4","ticks":333660,"time":138.133568,"velocity":0.7874015748031497},{"duration":0.1833333333333087,"durationTicks":440,"midi":69,"name":"A4","ticks":334140,"time":138.333568,"velocity":0.7874015748031497},{"duration":0.18333333333333712,"durationTicks":440,"midi":73,"name":"C#5","ticks":334620,"time":138.533568,"velocity":0.7874015748031497},{"duration":0.1833333333333087,"durationTicks":440,"midi":80,"name":"G#5","ticks":335100,"time":138.73356800000002,"velocity":0.7874015748031497},{"duration":0.38333333333332575,"durationTicks":920,"midi":78,"name":"F#5","ticks":335580,"time":138.933568,"velocity":0.7874015748031497},{"duration":0.38333333333332575,"durationTicks":920,"midi":83,"name":"B5","ticks":336540,"time":139.333568,"velocity":0.7874015748031497},{"duration":0.1833333333333087,"durationTicks":440,"midi":76,"name":"E5","ticks":337500,"time":139.73356800000002,"velocity":0.7874015748031497},{"duration":0.19999999999998863,"durationTicks":480,"midi":75,"name":"D#5","ticks":337980,"time":139.933568,"velocity":0.7874015748031497},{"duration":0.20000000000001705,"durationTicks":480,"midi":71,"name":"B4","ticks":338460,"time":140.133568,"velocity":0.7874015748031497},{"duration":0.19999999999998863,"durationTicks":480,"midi":78,"name":"F#5","ticks":338940,"time":140.333568,"velocity":0.7874015748031497},{"duration":0.700000000000017,"durationTicks":1680,"midi":76,"name":"E5","ticks":339420,"time":140.533568,"velocity":0.7874015748031497},{"duration":0.09999999999999432,"durationTicks":240,"midi":76,"name":"E5","ticks":341340,"time":141.333568,"velocity":0.7874015748031497},{"duration":0.09999999999999432,"durationTicks":240,"midi":78,"name":"F#5","ticks":341580,"time":141.433568,"velocity":0.7874015748031497},{"duration":0.5999999999999943,"durationTicks":1440,"midi":80,"name":"G#5","ticks":341820,"time":141.533568,"velocity":0.7874015748031497},{"duration":0.10000000000002274,"durationTicks":240,"midi":76,"name":"E5","ticks":343260,"time":142.133568,"velocity":0.7874015748031497},{"duration":0.09999999999999432,"durationTicks":240,"midi":78,"name":"F#5","ticks":343500,"time":142.23356800000002,"velocity":0.7874015748031497},{"duration":0.29999999999998295,"durationTicks":720,"midi":80,"name":"G#5","ticks":343740,"time":142.333568,"velocity":0.7874015748031497},{"duration":0.30000000000001137,"durationTicks":720,"midi":76,"name":"E5","ticks":344460,"time":142.633568,"velocity":0.7874015748031497},{"duration":0.03333333333333144,"durationTicks":80,"midi":82,"name":"A#5","ticks":345180,"time":142.933568,"velocity":0.7874015748031497},{"duration":0.1666666666666572,"durationTicks":400,"midi":83,"name":"B5","ticks":345260,"time":142.96690133333334,"velocity":0.7874015748031497},{"duration":1.4000000000000057,"durationTicks":3360,"midi":80,"name":"G#5","ticks":345660,"time":143.133568,"velocity":0.7874015748031497}]},{"channel":1,"controlChanges":{},"pitchBends":[],"instrument":{"family":"chromatic percussion","number":14,"name":"tubular bells"},"name":"","notes":[{"duration":0.10000000000000142,"durationTicks":240,"midi":30,"name":"F#1","ticks":88320,"time":35.908568,"velocity":0.7874015748031497},{"duration":0.10000000000000142,"durationTicks":240,"midi":42,"name":"F#2","ticks":88320,"time":35.908568,"velocity":0.7874015748031497},{"duration":0.10000000000000142,"durationTicks":240,"midi":42,"name":"F#2","ticks":88800,"time":36.108568000000005,"velocity":0.7874015748031497},{"duration":0.10000000000000142,"durationTicks":240,"midi":54,"name":"F#3","ticks":88800,"time":36.108568000000005,"velocity":0.7874015748031497},{"duration":0.10000000000000142,"durationTicks":240,"midi":30,"name":"F#1","ticks":89280,"time":36.308568,"velocity":0.7874015748031497},{"duration":0.10000000000000142,"durationTicks":240,"midi":42,"name":"F#2","ticks":89280,"time":36.308568,"velocity":0.7874015748031497},{"duration":0.0833333333333286,"durationTicks":200,"midi":42,"name":"F#2","ticks":89760,"time":36.508568000000004,"velocity":0.7874015748031497},{"duration":0.0833333333333286,"durationTicks":200,"midi":54,"name":"F#3","ticks":89760,"time":36.508568000000004,"velocity":0.7874015748031497},{"duration":0.0833333333333286,"durationTicks":200,"midi":42,"name":"F#2","ticks":90000,"time":36.608568000000005,"velocity":0.7874015748031497},{"duration":0.0833333333333286,"durationTicks":200,"midi":54,"name":"F#3","ticks":90000,"time":36.608568000000005,"velocity":0.7874015748031497},{"duration":0.09999999999999432,"durationTicks":240,"midi":30,"name":"F#1","ticks":90240,"time":36.70856800000001,"velocity":0.7874015748031497},{"duration":0.09999999999999432,"durationTicks":240,"midi":42,"name":"F#2","ticks":90240,"time":36.70856800000001,"velocity":0.7874015748031497},{"duration":0.10000000000000142,"durationTicks":240,"midi":42,"name":"F#2","ticks":90720,"time":36.908568,"velocity":0.7874015748031497},{"duration":0.10000000000000142,"durationTicks":240,"midi":54,"name":"F#3","ticks":90720,"time":36.908568,"velocity":0.7874015748031497},{"duration":0.10000000000000142,"durationTicks":240,"midi":30,"name":"F#1","ticks":91200,"time":37.108568000000005,"velocity":0.7874015748031497},{"duration":0.10000000000000142,"durationTicks":240,"midi":42,"name":"F#2","ticks":91200,"time":37.108568000000005,"velocity":0.7874015748031497},{"duration":0.0833333333333357,"durationTicks":200,"midi":42,"name":"F#2","ticks":91680,"time":37.308568,"velocity":0.7874015748031497},{"duration":0.0833333333333357,"durationTicks":200,"midi":54,"name":"F#3","ticks":91680,"time":37.308568,"velocity":0.7874015748031497},{"duration":0.0833333333333357,"durationTicks":200,"midi":42,"name":"F#2","ticks":91920,"time":37.408568,"velocity":0.7874015748031497},{"duration":0.0833333333333357,"durationTicks":200,"midi":54,"name":"F#3","ticks":91920,"time":37.408568,"velocity":0.7874015748031497},{"duration":0.10000000000000142,"durationTicks":240,"midi":30,"name":"F#1","ticks":92160,"time":37.508568000000004,"velocity":0.7874015748031497},{"duration":0.10000000000000142,"durationTicks":240,"midi":42,"name":"F#2","ticks":92160,"time":37.508568000000004,"velocity":0.7874015748031497},{"duration":0.09999999999999432,"durationTicks":240,"midi":42,"name":"F#2","ticks":92640,"time":37.70856800000001,"velocity":0.7874015748031497},{"duration":0.09999999999999432,"durationTicks":240,"midi":54,"name":"F#3","ticks":92640,"time":37.70856800000001,"velocity":0.7874015748031497},{"duration":0.10000000000000142,"durationTicks":240,"midi":30,"name":"F#1","ticks":93120,"time":37.908568,"velocity":0.7874015748031497},{"duration":0.10000000000000142,"durationTicks":240,"midi":42,"name":"F#2","ticks":93120,"time":37.908568,"velocity":0.7874015748031497},{"duration":0.0833333333333286,"durationTicks":200,"midi":42,"name":"F#2","ticks":93600,"time":38.108568000000005,"velocity":0.7874015748031497},{"duration":0.0833333333333286,"durationTicks":200,"midi":54,"name":"F#3","ticks":93600,"time":38.108568000000005,"velocity":0.7874015748031497},{"duration":0.0833333333333286,"durationTicks":200,"midi":42,"name":"F#2","ticks":93840,"time":38.20856800000001,"velocity":0.7874015748031497},{"duration":0.0833333333333286,"durationTicks":200,"midi":54,"name":"F#3","ticks":93840,"time":38.20856800000001,"velocity":0.7874015748031497},{"duration":0.10000000000000142,"durationTicks":240,"midi":30,"name":"F#1","ticks":94080,"time":38.308568,"velocity":0.7874015748031497},{"duration":0.10000000000000142,"durationTicks":240,"midi":42,"name":"F#2","ticks":94080,"time":38.308568,"velocity":0.7874015748031497},{"duration":0.10000000000000142,"durationTicks":240,"midi":42,"name":"F#2","ticks":94560,"time":38.508568000000004,"velocity":0.7874015748031497},{"duration":0.10000000000000142,"durationTicks":240,"midi":54,"name":"F#3","ticks":94560,"time":38.508568000000004,"velocity":0.7874015748031497},{"duration":0.09999999999999432,"durationTicks":240,"midi":30,"name":"F#1","ticks":95040,"time":38.70856800000001,"velocity":0.7874015748031497},{"duration":0.09999999999999432,"durationTicks":240,"midi":42,"name":"F#2","ticks":95040,"time":38.70856800000001,"velocity":0.7874015748031497},{"duration":0.0833333333333357,"durationTicks":200,"midi":42,"name":"F#2","ticks":95520,"time":38.908568,"velocity":0.7874015748031497},{"duration":0.0833333333333357,"durationTicks":200,"midi":54,"name":"F#3","ticks":95520,"time":38.908568,"velocity":0.7874015748031497},{"duration":0.0833333333333286,"durationTicks":200,"midi":42,"name":"F#2","ticks":95760,"time":39.008568000000004,"velocity":0.7874015748031497},{"duration":0.0833333333333286,"durationTicks":200,"midi":54,"name":"F#3","ticks":95760,"time":39.008568000000004,"velocity":0.7874015748031497},{"duration":0.10000000000000142,"durationTicks":240,"midi":32,"name":"G#1","ticks":96000,"time":39.108568000000005,"velocity":0.7874015748031497},{"duration":0.10000000000000142,"durationTicks":240,"midi":44,"name":"G#2","ticks":96000,"time":39.108568000000005,"velocity":0.7874015748031497},{"duration":0.10000000000000142,"durationTicks":240,"midi":44,"name":"G#2","ticks":96480,"time":39.308568,"velocity":0.7874015748031497},{"duration":0.10000000000000142,"durationTicks":240,"midi":56,"name":"G#3","ticks":96480,"time":39.308568,"velocity":0.7874015748031497},{"duration":0.10000000000000142,"durationTicks":240,"midi":32,"name":"G#1","ticks":96960,"time":39.508568000000004,"velocity":0.7874015748031497},{"duration":0.10000000000000142,"durationTicks":240,"midi":44,"name":"G#2","ticks":96960,"time":39.508568000000004,"velocity":0.7874015748031497},{"duration":0.0833333333333286,"durationTicks":200,"midi":44,"name":"G#2","ticks":97440,"time":39.70856800000001,"velocity":0.7874015748031497},{"duration":0.0833333333333286,"durationTicks":200,"midi":56,"name":"G#3","ticks":97440,"time":39.70856800000001,"velocity":0.7874015748031497},{"duration":0.0833333333333357,"durationTicks":200,"midi":44,"name":"G#2","ticks":97680,"time":39.808568,"velocity":0.7874015748031497},{"duration":0.0833333333333357,"durationTicks":200,"midi":56,"name":"G#3","ticks":97680,"time":39.808568,"velocity":0.7874015748031497},{"duration":0.10000000000000142,"durationTicks":240,"midi":32,"name":"G#1","ticks":97920,"time":39.908568,"velocity":0.7874015748031497},{"duration":0.10000000000000142,"durationTicks":240,"midi":44,"name":"G#2","ticks":97920,"time":39.908568,"velocity":0.7874015748031497},{"duration":0.10000000000000142,"durationTicks":240,"midi":44,"name":"G#2","ticks":98400,"time":40.108568000000005,"velocity":0.7874015748031497},{"duration":0.10000000000000142,"durationTicks":240,"midi":56,"name":"G#3","ticks":98400,"time":40.108568000000005,"velocity":0.7874015748031497},{"duration":0.10000000000000142,"durationTicks":240,"midi":32,"name":"G#1","ticks":98880,"time":40.308568,"velocity":0.7874015748031497},{"duration":0.10000000000000142,"durationTicks":240,"midi":44,"name":"G#2","ticks":98880,"time":40.308568,"velocity":0.7874015748031497},{"duration":0.0833333333333286,"durationTicks":200,"midi":44,"name":"G#2","ticks":99360,"time":40.508568000000004,"velocity":0.7874015748031497},{"duration":0.0833333333333286,"durationTicks":200,"midi":56,"name":"G#3","ticks":99360,"time":40.508568000000004,"velocity":0.7874015748031497},{"duration":0.0833333333333286,"durationTicks":200,"midi":44,"name":"G#2","ticks":99600,"time":40.608568000000005,"velocity":0.7874015748031497},{"duration":0.0833333333333286,"durationTicks":200,"midi":56,"name":"G#3","ticks":99600,"time":40.608568000000005,"velocity":0.7874015748031497},{"duration":0.09999999999999432,"durationTicks":240,"midi":37,"name":"C#2","ticks":99840,"time":40.70856800000001,"velocity":0.7874015748031497},{"duration":0.09999999999999432,"durationTicks":240,"midi":49,"name":"C#3","ticks":99840,"time":40.70856800000001,"velocity":0.7874015748031497},{"duration":0.10000000000000142,"durationTicks":240,"midi":49,"name":"C#3","ticks":100320,"time":40.908568,"velocity":0.7874015748031497},{"duration":0.10000000000000142,"durationTicks":240,"midi":61,"name":"C#4","ticks":100320,"time":40.908568,"velocity":0.7874015748031497},{"duration":0.10000000000000142,"durationTicks":240,"midi":37,"name":"C#2","ticks":100800,"time":41.108568000000005,"velocity":0.7874015748031497},{"duration":0.10000000000000142,"durationTicks":240,"midi":49,"name":"C#3","ticks":100800,"time":41.108568000000005,"velocity":0.7874015748031497},{"duration":0.0833333333333357,"durationTicks":200,"midi":49,"name":"C#3","ticks":101280,"time":41.308568,"velocity":0.7874015748031497},{"duration":0.0833333333333357,"durationTicks":200,"midi":61,"name":"C#4","ticks":101280,"time":41.308568,"velocity":0.7874015748031497},{"duration":0.0833333333333357,"durationTicks":200,"midi":49,"name":"C#3","ticks":101520,"time":41.408568,"velocity":0.7874015748031497},{"duration":0.0833333333333357,"durationTicks":200,"midi":61,"name":"C#4","ticks":101520,"time":41.408568,"velocity":0.7874015748031497},{"duration":0.10000000000000142,"durationTicks":240,"midi":37,"name":"C#2","ticks":101760,"time":41.508568000000004,"velocity":0.7874015748031497},{"duration":0.10000000000000142,"durationTicks":240,"midi":49,"name":"C#3","ticks":101760,"time":41.508568000000004,"velocity":0.7874015748031497},{"duration":0.09999999999999432,"durationTicks":240,"midi":49,"name":"C#3","ticks":102240,"time":41.70856800000001,"velocity":0.7874015748031497},{"duration":0.09999999999999432,"durationTicks":240,"midi":61,"name":"C#4","ticks":102240,"time":41.70856800000001,"velocity":0.7874015748031497},{"duration":0.10000000000000142,"durationTicks":240,"midi":37,"name":"C#2","ticks":102720,"time":41.908568,"velocity":0.7874015748031497},{"duration":0.10000000000000142,"durationTicks":240,"midi":49,"name":"C#3","ticks":102720,"time":41.908568,"velocity":0.7874015748031497},{"duration":0.0833333333333286,"durationTicks":200,"midi":49,"name":"C#3","ticks":103200,"time":42.108568000000005,"velocity":0.7874015748031497},{"duration":0.0833333333333286,"durationTicks":200,"midi":61,"name":"C#4","ticks":103200,"time":42.108568000000005,"velocity":0.7874015748031497},{"duration":0.0833333333333286,"durationTicks":200,"midi":49,"name":"C#3","ticks":103440,"time":42.20856800000001,"velocity":0.7874015748031497},{"duration":0.0833333333333286,"durationTicks":200,"midi":61,"name":"C#4","ticks":103440,"time":42.20856800000001,"velocity":0.7874015748031497},{"duration":0.09999999999999432,"durationTicks":240,"midi":30,"name":"F#1","ticks":103680,"time":42.30856800000001,"velocity":0.7874015748031497},{"duration":0.09999999999999432,"durationTicks":240,"midi":42,"name":"F#2","ticks":103680,"time":42.30856800000001,"velocity":0.7874015748031497},{"duration":0.10000000000000142,"durationTicks":240,"midi":42,"name":"F#2","ticks":104160,"time":42.508568000000004,"velocity":0.7874015748031497},{"duration":0.10000000000000142,"durationTicks":240,"midi":54,"name":"F#3","ticks":104160,"time":42.508568000000004,"velocity":0.7874015748031497},{"duration":0.10000000000000142,"durationTicks":240,"midi":30,"name":"F#1","ticks":104640,"time":42.70856800000001,"velocity":0.7874015748031497},{"duration":0.10000000000000142,"durationTicks":240,"midi":42,"name":"F#2","ticks":104640,"time":42.70856800000001,"velocity":0.7874015748031497},{"duration":0.0833333333333357,"durationTicks":200,"midi":42,"name":"F#2","ticks":105120,"time":42.908568,"velocity":0.7874015748031497},{"duration":0.0833333333333357,"durationTicks":200,"midi":54,"name":"F#3","ticks":105120,"time":42.908568,"velocity":0.7874015748031497},{"duration":0.0833333333333357,"durationTicks":200,"midi":42,"name":"F#2","ticks":105360,"time":43.008568000000004,"velocity":0.7874015748031497},{"duration":0.0833333333333357,"durationTicks":200,"midi":54,"name":"F#3","ticks":105360,"time":43.008568000000004,"velocity":0.7874015748031497},{"duration":0.10000000000000142,"durationTicks":240,"midi":30,"name":"F#1","ticks":105600,"time":43.108568000000005,"velocity":0.7874015748031497},{"duration":0.10000000000000142,"durationTicks":240,"midi":42,"name":"F#2","ticks":105600,"time":43.108568000000005,"velocity":0.7874015748031497},{"duration":0.09999999999999432,"durationTicks":240,"midi":42,"name":"F#2","ticks":106080,"time":43.30856800000001,"velocity":0.7874015748031497},{"duration":0.09999999999999432,"durationTicks":240,"midi":54,"name":"F#3","ticks":106080,"time":43.30856800000001,"velocity":0.7874015748031497},{"duration":0.10000000000000142,"durationTicks":240,"midi":30,"name":"F#1","ticks":106560,"time":43.508568000000004,"velocity":0.7874015748031497},{"duration":0.10000000000000142,"durationTicks":240,"midi":42,"name":"F#2","ticks":106560,"time":43.508568000000004,"velocity":0.7874015748031497},{"duration":0.0833333333333286,"durationTicks":200,"midi":42,"name":"F#2","ticks":107040,"time":43.70856800000001,"velocity":0.7874015748031497},{"duration":0.0833333333333286,"durationTicks":200,"midi":54,"name":"F#3","ticks":107040,"time":43.70856800000001,"velocity":0.7874015748031497},{"duration":0.0833333333333286,"durationTicks":200,"midi":42,"name":"F#2","ticks":107280,"time":43.80856800000001,"velocity":0.7874015748031497},{"duration":0.0833333333333286,"durationTicks":200,"midi":54,"name":"F#3","ticks":107280,"time":43.80856800000001,"velocity":0.7874015748031497},{"duration":0.10000000000000142,"durationTicks":240,"midi":32,"name":"G#1","ticks":107520,"time":43.908568,"velocity":0.7874015748031497},{"duration":0.10000000000000142,"durationTicks":240,"midi":44,"name":"G#2","ticks":107520,"time":43.908568,"velocity":0.7874015748031497},{"duration":0.10000000000000142,"durationTicks":240,"midi":44,"name":"G#2","ticks":108000,"time":44.108568000000005,"velocity":0.7874015748031497},{"duration":0.10000000000000142,"durationTicks":240,"midi":56,"name":"G#3","ticks":108000,"time":44.108568000000005,"velocity":0.7874015748031497},{"duration":0.09999999999999432,"durationTicks":240,"midi":32,"name":"G#1","ticks":108480,"time":44.30856800000001,"velocity":0.7874015748031497},{"duration":0.09999999999999432,"durationTicks":240,"midi":44,"name":"G#2","ticks":108480,"time":44.30856800000001,"velocity":0.7874015748031497},{"duration":0.0833333333333357,"durationTicks":200,"midi":44,"name":"G#2","ticks":108960,"time":44.508568000000004,"velocity":0.7874015748031497},{"duration":0.0833333333333357,"durationTicks":200,"midi":56,"name":"G#3","ticks":108960,"time":44.508568000000004,"velocity":0.7874015748031497},{"duration":0.0833333333333286,"durationTicks":200,"midi":44,"name":"G#2","ticks":109200,"time":44.608568000000005,"velocity":0.7874015748031497},{"duration":0.0833333333333286,"durationTicks":200,"midi":56,"name":"G#3","ticks":109200,"time":44.608568000000005,"velocity":0.7874015748031497},{"duration":0.10000000000000142,"durationTicks":240,"midi":32,"name":"G#1","ticks":109440,"time":44.70856800000001,"velocity":0.7874015748031497},{"duration":0.10000000000000142,"durationTicks":240,"midi":44,"name":"G#2","ticks":109440,"time":44.70856800000001,"velocity":0.7874015748031497},{"duration":0.10000000000000142,"durationTicks":240,"midi":44,"name":"G#2","ticks":109920,"time":44.908568,"velocity":0.7874015748031497},{"duration":0.10000000000000142,"durationTicks":240,"midi":56,"name":"G#3","ticks":109920,"time":44.908568,"velocity":0.7874015748031497},{"duration":0.10000000000000142,"durationTicks":240,"midi":32,"name":"G#1","ticks":110400,"time":45.108568000000005,"velocity":0.7874015748031497},{"duration":0.10000000000000142,"durationTicks":240,"midi":44,"name":"G#2","ticks":110400,"time":45.108568000000005,"velocity":0.7874015748031497},{"duration":0.0833333333333286,"durationTicks":200,"midi":44,"name":"G#2","ticks":110880,"time":45.30856800000001,"velocity":0.7874015748031497},{"duration":0.0833333333333286,"durationTicks":200,"midi":56,"name":"G#3","ticks":110880,"time":45.30856800000001,"velocity":0.7874015748031497},{"duration":0.0833333333333357,"durationTicks":200,"midi":44,"name":"G#2","ticks":111120,"time":45.408568,"velocity":0.7874015748031497},{"duration":0.0833333333333357,"durationTicks":200,"midi":56,"name":"G#3","ticks":111120,"time":45.408568,"velocity":0.7874015748031497},{"duration":0.10000000000000142,"durationTicks":240,"midi":37,"name":"C#2","ticks":111360,"time":45.508568000000004,"velocity":0.7874015748031497},{"duration":0.10000000000000142,"durationTicks":240,"midi":49,"name":"C#3","ticks":111360,"time":45.508568000000004,"velocity":0.7874015748031497},{"duration":0.10000000000000142,"durationTicks":240,"midi":49,"name":"C#3","ticks":111840,"time":45.70856800000001,"velocity":0.7874015748031497},{"duration":0.10000000000000142,"durationTicks":240,"midi":61,"name":"C#4","ticks":111840,"time":45.70856800000001,"velocity":0.7874015748031497},{"duration":0.10000000000000142,"durationTicks":240,"midi":37,"name":"C#2","ticks":112320,"time":45.908568,"velocity":0.7874015748031497},{"duration":0.10000000000000142,"durationTicks":240,"midi":49,"name":"C#3","ticks":112320,"time":45.908568,"velocity":0.7874015748031497},{"duration":0.0833333333333286,"durationTicks":200,"midi":49,"name":"C#3","ticks":112800,"time":46.108568000000005,"velocity":0.7874015748031497},{"duration":0.0833333333333286,"durationTicks":200,"midi":61,"name":"C#4","ticks":112800,"time":46.108568000000005,"velocity":0.7874015748031497},{"duration":0.0833333333333286,"durationTicks":200,"midi":49,"name":"C#3","ticks":113040,"time":46.20856800000001,"velocity":0.7874015748031497},{"duration":0.0833333333333286,"durationTicks":200,"midi":61,"name":"C#4","ticks":113040,"time":46.20856800000001,"velocity":0.7874015748031497},{"duration":0.09999999999999432,"durationTicks":240,"midi":37,"name":"C#2","ticks":113280,"time":46.30856800000001,"velocity":0.7874015748031497},{"duration":0.09999999999999432,"durationTicks":240,"midi":49,"name":"C#3","ticks":113280,"time":46.30856800000001,"velocity":0.7874015748031497},{"duration":0.10000000000000142,"durationTicks":240,"midi":49,"name":"C#3","ticks":113760,"time":46.508568000000004,"velocity":0.7874015748031497},{"duration":0.10000000000000142,"durationTicks":240,"midi":61,"name":"C#4","ticks":113760,"time":46.508568000000004,"velocity":0.7874015748031497},{"duration":0.10000000000000142,"durationTicks":240,"midi":37,"name":"C#2","ticks":114240,"time":46.70856800000001,"velocity":0.7874015748031497},{"duration":0.10000000000000142,"durationTicks":240,"midi":49,"name":"C#3","ticks":114240,"time":46.70856800000001,"velocity":0.7874015748031497},{"duration":0.0833333333333357,"durationTicks":200,"midi":49,"name":"C#3","ticks":114720,"time":46.908568,"velocity":0.7874015748031497},{"duration":0.0833333333333357,"durationTicks":200,"midi":61,"name":"C#4","ticks":114720,"time":46.908568,"velocity":0.7874015748031497},{"duration":0.0833333333333357,"durationTicks":200,"midi":49,"name":"C#3","ticks":114960,"time":47.008568000000004,"velocity":0.7874015748031497},{"duration":0.0833333333333357,"durationTicks":200,"midi":61,"name":"C#4","ticks":114960,"time":47.008568000000004,"velocity":0.7874015748031497},{"duration":0.10000000000000142,"durationTicks":240,"midi":35,"name":"B1","ticks":115200,"time":47.108568000000005,"velocity":0.7874015748031497},{"duration":0.10000000000000142,"durationTicks":240,"midi":47,"name":"B2","ticks":115200,"time":47.108568000000005,"velocity":0.7874015748031497},{"duration":0.09999999999999432,"durationTicks":240,"midi":47,"name":"B2","ticks":115680,"time":47.30856800000001,"velocity":0.7874015748031497},{"duration":0.09999999999999432,"durationTicks":240,"midi":59,"name":"B3","ticks":115680,"time":47.30856800000001,"velocity":0.7874015748031497},{"duration":0.10000000000000142,"durationTicks":240,"midi":35,"name":"B1","ticks":116160,"time":47.508568000000004,"velocity":0.7874015748031497},{"duration":0.10000000000000142,"durationTicks":240,"midi":47,"name":"B2","ticks":116160,"time":47.508568000000004,"velocity":0.7874015748031497},{"duration":0.0833333333333286,"durationTicks":200,"midi":47,"name":"B2","ticks":116640,"time":47.70856800000001,"velocity":0.7874015748031497},{"duration":0.0833333333333286,"durationTicks":200,"midi":59,"name":"B3","ticks":116640,"time":47.70856800000001,"velocity":0.7874015748031497},{"duration":0.0833333333333286,"durationTicks":200,"midi":47,"name":"B2","ticks":116880,"time":47.80856800000001,"velocity":0.7874015748031497},{"duration":0.0833333333333286,"durationTicks":200,"midi":59,"name":"B3","ticks":116880,"time":47.80856800000001,"velocity":0.7874015748031497},{"duration":0.10000000000000142,"durationTicks":240,"midi":35,"name":"B1","ticks":117120,"time":47.908568,"velocity":0.7874015748031497},{"duration":0.10000000000000142,"durationTicks":240,"midi":47,"name":"B2","ticks":117120,"time":47.908568,"velocity":0.7874015748031497},{"duration":0.10000000000000142,"durationTicks":240,"midi":47,"name":"B2","ticks":117600,"time":48.108568000000005,"velocity":0.7874015748031497},{"duration":0.10000000000000142,"durationTicks":240,"midi":59,"name":"B3","ticks":117600,"time":48.108568000000005,"velocity":0.7874015748031497},{"duration":0.09999999999999432,"durationTicks":240,"midi":35,"name":"B1","ticks":118080,"time":48.30856800000001,"velocity":0.7874015748031497},{"duration":0.09999999999999432,"durationTicks":240,"midi":47,"name":"B2","ticks":118080,"time":48.30856800000001,"velocity":0.7874015748031497},{"duration":0.0833333333333357,"durationTicks":200,"midi":47,"name":"B2","ticks":118560,"time":48.508568000000004,"velocity":0.7874015748031497},{"duration":0.0833333333333357,"durationTicks":200,"midi":59,"name":"B3","ticks":118560,"time":48.508568000000004,"velocity":0.7874015748031497},{"duration":0.0833333333333286,"durationTicks":200,"midi":47,"name":"B2","ticks":118800,"time":48.608568000000005,"velocity":0.7874015748031497},{"duration":0.0833333333333286,"durationTicks":200,"midi":59,"name":"B3","ticks":118800,"time":48.608568000000005,"velocity":0.7874015748031497},{"duration":0.10000000000000142,"durationTicks":240,"midi":33,"name":"A1","ticks":119040,"time":48.70856800000001,"velocity":0.7874015748031497},{"duration":0.10000000000000142,"durationTicks":240,"midi":45,"name":"A2","ticks":119040,"time":48.70856800000001,"velocity":0.7874015748031497},{"duration":0.10000000000000142,"durationTicks":240,"midi":45,"name":"A2","ticks":119520,"time":48.908568,"velocity":0.7874015748031497},{"duration":0.10000000000000142,"durationTicks":240,"midi":57,"name":"A3","ticks":119520,"time":48.908568,"velocity":0.7874015748031497},{"duration":0.10000000000000142,"durationTicks":240,"midi":33,"name":"A1","ticks":120000,"time":49.108568000000005,"velocity":0.7874015748031497},{"duration":0.10000000000000142,"durationTicks":240,"midi":45,"name":"A2","ticks":120000,"time":49.108568000000005,"velocity":0.7874015748031497},{"duration":0.0833333333333286,"durationTicks":200,"midi":45,"name":"A2","ticks":120480,"time":49.30856800000001,"velocity":0.7874015748031497},{"duration":0.0833333333333286,"durationTicks":200,"midi":57,"name":"A3","ticks":120480,"time":49.30856800000001,"velocity":0.7874015748031497},{"duration":0.0833333333333357,"durationTicks":200,"midi":45,"name":"A2","ticks":120720,"time":49.408568,"velocity":0.7874015748031497},{"duration":0.0833333333333357,"durationTicks":200,"midi":57,"name":"A3","ticks":120720,"time":49.408568,"velocity":0.7874015748031497},{"duration":0.10000000000000142,"durationTicks":240,"midi":33,"name":"A1","ticks":120960,"time":49.508568000000004,"velocity":0.7874015748031497},{"duration":0.10000000000000142,"durationTicks":240,"midi":45,"name":"A2","ticks":120960,"time":49.508568000000004,"velocity":0.7874015748031497},{"duration":0.10000000000000142,"durationTicks":240,"midi":45,"name":"A2","ticks":121440,"time":49.70856800000001,"velocity":0.7874015748031497},{"duration":0.10000000000000142,"durationTicks":240,"midi":57,"name":"A3","ticks":121440,"time":49.70856800000001,"velocity":0.7874015748031497},{"duration":0.10000000000000142,"durationTicks":240,"midi":33,"name":"A1","ticks":121920,"time":49.908568,"velocity":0.7874015748031497},{"duration":0.10000000000000142,"durationTicks":240,"midi":45,"name":"A2","ticks":121920,"time":49.908568,"velocity":0.7874015748031497},{"duration":0.0833333333333286,"durationTicks":200,"midi":45,"name":"A2","ticks":122400,"time":50.108568000000005,"velocity":0.7874015748031497},{"duration":0.0833333333333286,"durationTicks":200,"midi":57,"name":"A3","ticks":122400,"time":50.108568000000005,"velocity":0.7874015748031497},{"duration":0.0833333333333286,"durationTicks":200,"midi":45,"name":"A2","ticks":122640,"time":50.20856800000001,"velocity":0.7874015748031497},{"duration":0.0833333333333286,"durationTicks":200,"midi":57,"name":"A3","ticks":122640,"time":50.20856800000001,"velocity":0.7874015748031497},{"duration":0.09999999999999432,"durationTicks":240,"midi":35,"name":"B1","ticks":122880,"time":50.30856800000001,"velocity":0.7874015748031497},{"duration":0.09999999999999432,"durationTicks":240,"midi":47,"name":"B2","ticks":122880,"time":50.30856800000001,"velocity":0.7874015748031497},{"duration":0.10000000000000142,"durationTicks":240,"midi":47,"name":"B2","ticks":123360,"time":50.508568000000004,"velocity":0.7874015748031497},{"duration":0.10000000000000142,"durationTicks":240,"midi":59,"name":"B3","ticks":123360,"time":50.508568000000004,"velocity":0.7874015748031497},{"duration":0.10000000000000142,"durationTicks":240,"midi":35,"name":"B1","ticks":123840,"time":50.70856800000001,"velocity":0.7874015748031497},{"duration":0.10000000000000142,"durationTicks":240,"midi":47,"name":"B2","ticks":123840,"time":50.70856800000001,"velocity":0.7874015748031497},{"duration":0.0833333333333357,"durationTicks":200,"midi":47,"name":"B2","ticks":124320,"time":50.908568,"velocity":0.7874015748031497},{"duration":0.0833333333333357,"durationTicks":200,"midi":59,"name":"B3","ticks":124320,"time":50.908568,"velocity":0.7874015748031497},{"duration":0.0833333333333357,"durationTicks":200,"midi":47,"name":"B2","ticks":124560,"time":51.008568000000004,"velocity":0.7874015748031497},{"duration":0.0833333333333357,"durationTicks":200,"midi":59,"name":"B3","ticks":124560,"time":51.008568000000004,"velocity":0.7874015748031497},{"duration":0.10000000000000142,"durationTicks":240,"midi":35,"name":"B1","ticks":124800,"time":51.108568000000005,"velocity":0.7874015748031497},{"duration":0.10000000000000142,"durationTicks":240,"midi":47,"name":"B2","ticks":124800,"time":51.108568000000005,"velocity":0.7874015748031497},{"duration":0.09999999999999432,"durationTicks":240,"midi":47,"name":"B2","ticks":125280,"time":51.30856800000001,"velocity":0.7874015748031497},{"duration":0.09999999999999432,"durationTicks":240,"midi":59,"name":"B3","ticks":125280,"time":51.30856800000001,"velocity":0.7874015748031497},{"duration":0.10000000000000142,"durationTicks":240,"midi":35,"name":"B1","ticks":125760,"time":51.508568000000004,"velocity":0.7874015748031497},{"duration":0.10000000000000142,"durationTicks":240,"midi":47,"name":"B2","ticks":125760,"time":51.508568000000004,"velocity":0.7874015748031497},{"duration":0.0833333333333286,"durationTicks":200,"midi":47,"name":"B2","ticks":126240,"time":51.70856800000001,"velocity":0.7874015748031497},{"duration":0.0833333333333286,"durationTicks":200,"midi":59,"name":"B3","ticks":126240,"time":51.70856800000001,"velocity":0.7874015748031497},{"duration":0.0833333333333286,"durationTicks":200,"midi":47,"name":"B2","ticks":126480,"time":51.80856800000001,"velocity":0.7874015748031497},{"duration":0.0833333333333286,"durationTicks":200,"midi":59,"name":"B3","ticks":126480,"time":51.80856800000001,"velocity":0.7874015748031497},{"duration":0.10000000000000142,"durationTicks":240,"midi":32,"name":"G#1","ticks":126720,"time":51.908568,"velocity":0.7874015748031497},{"duration":0.10000000000000142,"durationTicks":240,"midi":44,"name":"G#2","ticks":126720,"time":51.908568,"velocity":0.7874015748031497},{"duration":0.10000000000000142,"durationTicks":240,"midi":44,"name":"G#2","ticks":127200,"time":52.108568000000005,"velocity":0.7874015748031497},{"duration":0.10000000000000142,"durationTicks":240,"midi":56,"name":"G#3","ticks":127200,"time":52.108568000000005,"velocity":0.7874015748031497},{"duration":0.09999999999999432,"durationTicks":240,"midi":32,"name":"G#1","ticks":127680,"time":52.30856800000001,"velocity":0.7874015748031497},{"duration":0.09999999999999432,"durationTicks":240,"midi":44,"name":"G#2","ticks":127680,"time":52.30856800000001,"velocity":0.7874015748031497},{"duration":0.0833333333333357,"durationTicks":200,"midi":44,"name":"G#2","ticks":128160,"time":52.508568000000004,"velocity":0.7874015748031497},{"duration":0.0833333333333357,"durationTicks":200,"midi":56,"name":"G#3","ticks":128160,"time":52.508568000000004,"velocity":0.7874015748031497},{"duration":0.0833333333333286,"durationTicks":200,"midi":44,"name":"G#2","ticks":128400,"time":52.608568000000005,"velocity":0.7874015748031497},{"duration":0.0833333333333286,"durationTicks":200,"midi":56,"name":"G#3","ticks":128400,"time":52.608568000000005,"velocity":0.7874015748031497},{"duration":0.10000000000000142,"durationTicks":240,"midi":32,"name":"G#1","ticks":128640,"time":52.70856800000001,"velocity":0.7874015748031497},{"duration":0.10000000000000142,"durationTicks":240,"midi":44,"name":"G#2","ticks":128640,"time":52.70856800000001,"velocity":0.7874015748031497},{"duration":0.10000000000000142,"durationTicks":240,"midi":44,"name":"G#2","ticks":129120,"time":52.908568,"velocity":0.7874015748031497},{"duration":0.10000000000000142,"durationTicks":240,"midi":56,"name":"G#3","ticks":129120,"time":52.908568,"velocity":0.7874015748031497},{"duration":0.10000000000000142,"durationTicks":240,"midi":32,"name":"G#1","ticks":129600,"time":53.108568000000005,"velocity":0.7874015748031497},{"duration":0.10000000000000142,"durationTicks":240,"midi":44,"name":"G#2","ticks":129600,"time":53.108568000000005,"velocity":0.7874015748031497},{"duration":0.0833333333333286,"durationTicks":200,"midi":44,"name":"G#2","ticks":130080,"time":53.30856800000001,"velocity":0.7874015748031497},{"duration":0.0833333333333286,"durationTicks":200,"midi":56,"name":"G#3","ticks":130080,"time":53.30856800000001,"velocity":0.7874015748031497},{"duration":0.0833333333333357,"durationTicks":200,"midi":44,"name":"G#2","ticks":130320,"time":53.408568,"velocity":0.7874015748031497},{"duration":0.0833333333333357,"durationTicks":200,"midi":56,"name":"G#3","ticks":130320,"time":53.408568,"velocity":0.7874015748031497},{"duration":0.10000000000000142,"durationTicks":240,"midi":37,"name":"C#2","ticks":130560,"time":53.508568000000004,"velocity":0.7874015748031497},{"duration":0.10000000000000142,"durationTicks":240,"midi":49,"name":"C#3","ticks":130560,"time":53.508568000000004,"velocity":0.7874015748031497},{"duration":0.10000000000000142,"durationTicks":240,"midi":49,"name":"C#3","ticks":131040,"time":53.70856800000001,"velocity":0.7874015748031497},{"duration":0.10000000000000142,"durationTicks":240,"midi":61,"name":"C#4","ticks":131040,"time":53.70856800000001,"velocity":0.7874015748031497},{"duration":0.10000000000000142,"durationTicks":240,"midi":37,"name":"C#2","ticks":131520,"time":53.908568,"velocity":0.7874015748031497},{"duration":0.10000000000000142,"durationTicks":240,"midi":49,"name":"C#3","ticks":131520,"time":53.908568,"velocity":0.7874015748031497},{"duration":0.0833333333333286,"durationTicks":200,"midi":49,"name":"C#3","ticks":132000,"time":54.108568000000005,"velocity":0.7874015748031497},{"duration":0.0833333333333286,"durationTicks":200,"midi":61,"name":"C#4","ticks":132000,"time":54.108568000000005,"velocity":0.7874015748031497},{"duration":0.0833333333333286,"durationTicks":200,"midi":49,"name":"C#3","ticks":132240,"time":54.20856800000001,"velocity":0.7874015748031497},{"duration":0.0833333333333286,"durationTicks":200,"midi":61,"name":"C#4","ticks":132240,"time":54.20856800000001,"velocity":0.7874015748031497},{"duration":0.09999999999999432,"durationTicks":240,"midi":37,"name":"C#2","ticks":132480,"time":54.30856800000001,"velocity":0.7874015748031497},{"duration":0.09999999999999432,"durationTicks":240,"midi":49,"name":"C#3","ticks":132480,"time":54.30856800000001,"velocity":0.7874015748031497},{"duration":0.10000000000000142,"durationTicks":240,"midi":49,"name":"C#3","ticks":132960,"time":54.508568000000004,"velocity":0.7874015748031497},{"duration":0.10000000000000142,"durationTicks":240,"midi":61,"name":"C#4","ticks":132960,"time":54.508568000000004,"velocity":0.7874015748031497},{"duration":0.10000000000000142,"durationTicks":240,"midi":37,"name":"C#2","ticks":133440,"time":54.70856800000001,"velocity":0.7874015748031497},{"duration":0.10000000000000142,"durationTicks":240,"midi":49,"name":"C#3","ticks":133440,"time":54.70856800000001,"velocity":0.7874015748031497},{"duration":0.0833333333333357,"durationTicks":200,"midi":49,"name":"C#3","ticks":133920,"time":54.908568,"velocity":0.7874015748031497},{"duration":0.0833333333333357,"durationTicks":200,"midi":61,"name":"C#4","ticks":133920,"time":54.908568,"velocity":0.7874015748031497},{"duration":0.0833333333333357,"durationTicks":200,"midi":49,"name":"C#3","ticks":134160,"time":55.008568000000004,"velocity":0.7874015748031497},{"duration":0.0833333333333357,"durationTicks":200,"midi":61,"name":"C#4","ticks":134160,"time":55.008568000000004,"velocity":0.7874015748031497},{"duration":0.10000000000000142,"durationTicks":240,"midi":30,"name":"F#1","ticks":134400,"time":55.108568000000005,"velocity":0.7874015748031497},{"duration":0.10000000000000142,"durationTicks":240,"midi":42,"name":"F#2","ticks":134400,"time":55.108568000000005,"velocity":0.7874015748031497},{"duration":0.09999999999999432,"durationTicks":240,"midi":42,"name":"F#2","ticks":134880,"time":55.30856800000001,"velocity":0.7874015748031497},{"duration":0.09999999999999432,"durationTicks":240,"midi":54,"name":"F#3","ticks":134880,"time":55.30856800000001,"velocity":0.7874015748031497},{"duration":0.10000000000000142,"durationTicks":240,"midi":30,"name":"F#1","ticks":135360,"time":55.508568000000004,"velocity":0.7874015748031497},{"duration":0.10000000000000142,"durationTicks":240,"midi":42,"name":"F#2","ticks":135360,"time":55.508568000000004,"velocity":0.7874015748031497},{"duration":0.0833333333333357,"durationTicks":200,"midi":42,"name":"F#2","ticks":135840,"time":55.70856800000001,"velocity":0.7874015748031497},{"duration":0.0833333333333357,"durationTicks":200,"midi":54,"name":"F#3","ticks":135840,"time":55.70856800000001,"velocity":0.7874015748031497},{"duration":0.0833333333333357,"durationTicks":200,"midi":42,"name":"F#2","ticks":136080,"time":55.80856800000001,"velocity":0.7874015748031497},{"duration":0.0833333333333357,"durationTicks":200,"midi":54,"name":"F#3","ticks":136080,"time":55.80856800000001,"velocity":0.7874015748031497},{"duration":0.10000000000000142,"durationTicks":240,"midi":30,"name":"F#1","ticks":136320,"time":55.908568,"velocity":0.7874015748031497},{"duration":0.10000000000000142,"durationTicks":240,"midi":42,"name":"F#2","ticks":136320,"time":55.908568,"velocity":0.7874015748031497},{"duration":0.10000000000000142,"durationTicks":240,"midi":42,"name":"F#2","ticks":136800,"time":56.108568000000005,"velocity":0.7874015748031497},{"duration":0.10000000000000142,"durationTicks":240,"midi":54,"name":"F#3","ticks":136800,"time":56.108568000000005,"velocity":0.7874015748031497},{"duration":0.09999999999999432,"durationTicks":240,"midi":30,"name":"F#1","ticks":137280,"time":56.30856800000001,"velocity":0.7874015748031497},{"duration":0.09999999999999432,"durationTicks":240,"midi":42,"name":"F#2","ticks":137280,"time":56.30856800000001,"velocity":0.7874015748031497},{"duration":0.0833333333333357,"durationTicks":200,"midi":42,"name":"F#2","ticks":137760,"time":56.508568000000004,"velocity":0.7874015748031497},{"duration":0.0833333333333357,"durationTicks":200,"midi":54,"name":"F#3","ticks":137760,"time":56.508568000000004,"velocity":0.7874015748031497},{"duration":0.0833333333333357,"durationTicks":200,"midi":42,"name":"F#2","ticks":138000,"time":56.608568000000005,"velocity":0.7874015748031497},{"duration":0.0833333333333357,"durationTicks":200,"midi":54,"name":"F#3","ticks":138000,"time":56.608568000000005,"velocity":0.7874015748031497},{"duration":0.10000000000000142,"durationTicks":240,"midi":32,"name":"G#1","ticks":138240,"time":56.70856800000001,"velocity":0.7874015748031497},{"duration":0.10000000000000142,"durationTicks":240,"midi":44,"name":"G#2","ticks":138240,"time":56.70856800000001,"velocity":0.7874015748031497},{"duration":0.10000000000000142,"durationTicks":240,"midi":44,"name":"G#2","ticks":138720,"time":56.908568,"velocity":0.7874015748031497},{"duration":0.10000000000000142,"durationTicks":240,"midi":56,"name":"G#3","ticks":138720,"time":56.908568,"velocity":0.7874015748031497},{"duration":0.10000000000000142,"durationTicks":240,"midi":32,"name":"G#1","ticks":139200,"time":57.108568000000005,"velocity":0.7874015748031497},{"duration":0.10000000000000142,"durationTicks":240,"midi":44,"name":"G#2","ticks":139200,"time":57.108568000000005,"velocity":0.7874015748031497},{"duration":0.0833333333333357,"durationTicks":200,"midi":44,"name":"G#2","ticks":139680,"time":57.30856800000001,"velocity":0.7874015748031497},{"duration":0.0833333333333357,"durationTicks":200,"midi":56,"name":"G#3","ticks":139680,"time":57.30856800000001,"velocity":0.7874015748031497},{"duration":0.08333333333334281,"durationTicks":200,"midi":44,"name":"G#2","ticks":139920,"time":57.408568,"velocity":0.7874015748031497},{"duration":0.08333333333334281,"durationTicks":200,"midi":56,"name":"G#3","ticks":139920,"time":57.408568,"velocity":0.7874015748031497},{"duration":0.10000000000000142,"durationTicks":240,"midi":37,"name":"C#2","ticks":140160,"time":57.508568000000004,"velocity":0.7874015748031497},{"duration":0.10000000000000142,"durationTicks":240,"midi":49,"name":"C#3","ticks":140160,"time":57.508568000000004,"velocity":0.7874015748031497},{"duration":0.10000000000000142,"durationTicks":240,"midi":49,"name":"C#3","ticks":140640,"time":57.70856800000001,"velocity":0.7874015748031497},{"duration":0.10000000000000142,"durationTicks":240,"midi":61,"name":"C#4","ticks":140640,"time":57.70856800000001,"velocity":0.7874015748031497},{"duration":0.10000000000000142,"durationTicks":240,"midi":37,"name":"C#2","ticks":141120,"time":57.908568,"velocity":0.7874015748031497},{"duration":0.10000000000000142,"durationTicks":240,"midi":49,"name":"C#3","ticks":141120,"time":57.908568,"velocity":0.7874015748031497},{"duration":0.0833333333333357,"durationTicks":200,"midi":49,"name":"C#3","ticks":141600,"time":58.108568000000005,"velocity":0.7874015748031497},{"duration":0.0833333333333357,"durationTicks":200,"midi":61,"name":"C#4","ticks":141600,"time":58.108568000000005,"velocity":0.7874015748031497},{"duration":0.0833333333333357,"durationTicks":200,"midi":49,"name":"C#3","ticks":141840,"time":58.20856800000001,"velocity":0.7874015748031497},{"duration":0.0833333333333357,"durationTicks":200,"midi":61,"name":"C#4","ticks":141840,"time":58.20856800000001,"velocity":0.7874015748031497},{"duration":0.09999999999999432,"durationTicks":240,"midi":30,"name":"F#1","ticks":142080,"time":58.30856800000001,"velocity":0.7874015748031497},{"duration":0.09999999999999432,"durationTicks":240,"midi":42,"name":"F#2","ticks":142080,"time":58.30856800000001,"velocity":0.7874015748031497},{"duration":0.10000000000000142,"durationTicks":240,"midi":42,"name":"F#2","ticks":142560,"time":58.508568000000004,"velocity":0.7874015748031497},{"duration":0.10000000000000142,"durationTicks":240,"midi":54,"name":"F#3","ticks":142560,"time":58.508568000000004,"velocity":0.7874015748031497},{"duration":0.10000000000000142,"durationTicks":240,"midi":30,"name":"F#1","ticks":143040,"time":58.70856800000001,"velocity":0.7874015748031497},{"duration":0.10000000000000142,"durationTicks":240,"midi":42,"name":"F#2","ticks":143040,"time":58.70856800000001,"velocity":0.7874015748031497},{"duration":0.08333333333334281,"durationTicks":200,"midi":42,"name":"F#2","ticks":143520,"time":58.908568,"velocity":0.7874015748031497},{"duration":0.08333333333334281,"durationTicks":200,"midi":54,"name":"F#3","ticks":143520,"time":58.908568,"velocity":0.7874015748031497},{"duration":0.0833333333333357,"durationTicks":200,"midi":42,"name":"F#2","ticks":143760,"time":59.008568000000004,"velocity":0.7874015748031497},{"duration":0.0833333333333357,"durationTicks":200,"midi":54,"name":"F#3","ticks":143760,"time":59.008568000000004,"velocity":0.7874015748031497},{"duration":0.10000000000000142,"durationTicks":240,"midi":32,"name":"G#1","ticks":144000,"time":59.108568000000005,"velocity":0.7874015748031497},{"duration":0.10000000000000142,"durationTicks":240,"midi":44,"name":"G#2","ticks":144000,"time":59.108568000000005,"velocity":0.7874015748031497},{"duration":0.09999999999999432,"durationTicks":240,"midi":44,"name":"G#2","ticks":144480,"time":59.30856800000001,"velocity":0.7874015748031497},{"duration":0.09999999999999432,"durationTicks":240,"midi":56,"name":"G#3","ticks":144480,"time":59.30856800000001,"velocity":0.7874015748031497},{"duration":0.10000000000000142,"durationTicks":240,"midi":32,"name":"G#1","ticks":144960,"time":59.508568000000004,"velocity":0.7874015748031497},{"duration":0.10000000000000142,"durationTicks":240,"midi":44,"name":"G#2","ticks":144960,"time":59.508568000000004,"velocity":0.7874015748031497},{"duration":0.0833333333333357,"durationTicks":200,"midi":44,"name":"G#2","ticks":145440,"time":59.70856800000001,"velocity":0.7874015748031497},{"duration":0.0833333333333357,"durationTicks":200,"midi":56,"name":"G#3","ticks":145440,"time":59.70856800000001,"velocity":0.7874015748031497},{"duration":0.0833333333333357,"durationTicks":200,"midi":44,"name":"G#2","ticks":145680,"time":59.80856800000001,"velocity":0.7874015748031497},{"duration":0.0833333333333357,"durationTicks":200,"midi":56,"name":"G#3","ticks":145680,"time":59.80856800000001,"velocity":0.7874015748031497},{"duration":0.10000000000000142,"durationTicks":240,"midi":39,"name":"D#2","ticks":145920,"time":59.908568,"velocity":0.7874015748031497},{"duration":0.10000000000000142,"durationTicks":240,"midi":51,"name":"D#3","ticks":145920,"time":59.908568,"velocity":0.7874015748031497},{"duration":0.10000000000000142,"durationTicks":240,"midi":51,"name":"D#3","ticks":146400,"time":60.108568000000005,"velocity":0.7874015748031497},{"duration":0.10000000000000142,"durationTicks":240,"midi":63,"name":"D#4","ticks":146400,"time":60.108568000000005,"velocity":0.7874015748031497},{"duration":0.09999999999999432,"durationTicks":240,"midi":39,"name":"D#2","ticks":146880,"time":60.30856800000001,"velocity":0.7874015748031497},{"duration":0.09999999999999432,"durationTicks":240,"midi":51,"name":"D#3","ticks":146880,"time":60.30856800000001,"velocity":0.7874015748031497},{"duration":0.0833333333333357,"durationTicks":200,"midi":51,"name":"D#3","ticks":147360,"time":60.508568000000004,"velocity":0.7874015748031497},{"duration":0.0833333333333357,"durationTicks":200,"midi":63,"name":"D#4","ticks":147360,"time":60.508568000000004,"velocity":0.7874015748031497},{"duration":0.0833333333333357,"durationTicks":200,"midi":51,"name":"D#3","ticks":147600,"time":60.608568000000005,"velocity":0.7874015748031497},{"duration":0.0833333333333357,"durationTicks":200,"midi":63,"name":"D#4","ticks":147600,"time":60.608568000000005,"velocity":0.7874015748031497},{"duration":0.10000000000000142,"durationTicks":240,"midi":32,"name":"G#1","ticks":147840,"time":60.70856800000001,"velocity":0.7874015748031497},{"duration":0.10000000000000142,"durationTicks":240,"midi":44,"name":"G#2","ticks":147840,"time":60.70856800000001,"velocity":0.7874015748031497},{"duration":0.10000000000000142,"durationTicks":240,"midi":44,"name":"G#2","ticks":148320,"time":60.908568,"velocity":0.7874015748031497},{"duration":0.10000000000000142,"durationTicks":240,"midi":56,"name":"G#3","ticks":148320,"time":60.908568,"velocity":0.7874015748031497},{"duration":0.10000000000000142,"durationTicks":240,"midi":32,"name":"G#1","ticks":148800,"time":61.108568000000005,"velocity":0.7874015748031497},{"duration":0.10000000000000142,"durationTicks":240,"midi":44,"name":"G#2","ticks":148800,"time":61.108568000000005,"velocity":0.7874015748031497},{"duration":0.0833333333333357,"durationTicks":200,"midi":44,"name":"G#2","ticks":149280,"time":61.30856800000001,"velocity":0.7874015748031497},{"duration":0.0833333333333357,"durationTicks":200,"midi":56,"name":"G#3","ticks":149280,"time":61.30856800000001,"velocity":0.7874015748031497},{"duration":0.08333333333334281,"durationTicks":200,"midi":44,"name":"G#2","ticks":149520,"time":61.408568,"velocity":0.7874015748031497},{"duration":0.08333333333334281,"durationTicks":200,"midi":56,"name":"G#3","ticks":149520,"time":61.408568,"velocity":0.7874015748031497},{"duration":0.10000000000000853,"durationTicks":240,"midi":30,"name":"F#1","ticks":288000,"time":119.108568,"velocity":0.7874015748031497},{"duration":0.10000000000000853,"durationTicks":240,"midi":42,"name":"F#2","ticks":288000,"time":119.108568,"velocity":0.7874015748031497},{"duration":0.09999999999999432,"durationTicks":240,"midi":42,"name":"F#2","ticks":288480,"time":119.30856800000001,"velocity":0.7874015748031497},{"duration":0.09999999999999432,"durationTicks":240,"midi":54,"name":"F#3","ticks":288480,"time":119.30856800000001,"velocity":0.7874015748031497},{"duration":0.09999999999999432,"durationTicks":240,"midi":30,"name":"F#1","ticks":288960,"time":119.50856800000001,"velocity":0.7874015748031497},{"duration":0.09999999999999432,"durationTicks":240,"midi":42,"name":"F#2","ticks":288960,"time":119.50856800000001,"velocity":0.7874015748031497},{"duration":0.08333333333331439,"durationTicks":200,"midi":42,"name":"F#2","ticks":289440,"time":119.70856800000001,"velocity":0.7874015748031497},{"duration":0.08333333333331439,"durationTicks":200,"midi":54,"name":"F#3","ticks":289440,"time":119.70856800000001,"velocity":0.7874015748031497},{"duration":0.0833333333333286,"durationTicks":200,"midi":42,"name":"F#2","ticks":289680,"time":119.80856800000001,"velocity":0.7874015748031497},{"duration":0.0833333333333286,"durationTicks":200,"midi":54,"name":"F#3","ticks":289680,"time":119.80856800000001,"velocity":0.7874015748031497},{"duration":0.10000000000000853,"durationTicks":240,"midi":30,"name":"F#1","ticks":289920,"time":119.908568,"velocity":0.7874015748031497},{"duration":0.10000000000000853,"durationTicks":240,"midi":42,"name":"F#2","ticks":289920,"time":119.908568,"velocity":0.7874015748031497},{"duration":0.10000000000000853,"durationTicks":240,"midi":42,"name":"F#2","ticks":290400,"time":120.108568,"velocity":0.7874015748031497},{"duration":0.10000000000000853,"durationTicks":240,"midi":54,"name":"F#3","ticks":290400,"time":120.108568,"velocity":0.7874015748031497},{"duration":0.09999999999999432,"durationTicks":240,"midi":30,"name":"F#1","ticks":290880,"time":120.30856800000001,"velocity":0.7874015748031497},{"duration":0.09999999999999432,"durationTicks":240,"midi":42,"name":"F#2","ticks":290880,"time":120.30856800000001,"velocity":0.7874015748031497},{"duration":0.0833333333333286,"durationTicks":200,"midi":42,"name":"F#2","ticks":291360,"time":120.50856800000001,"velocity":0.7874015748031497},{"duration":0.0833333333333286,"durationTicks":200,"midi":54,"name":"F#3","ticks":291360,"time":120.50856800000001,"velocity":0.7874015748031497},{"duration":0.0833333333333286,"durationTicks":200,"midi":42,"name":"F#2","ticks":291600,"time":120.608568,"velocity":0.7874015748031497},{"duration":0.0833333333333286,"durationTicks":200,"midi":54,"name":"F#3","ticks":291600,"time":120.608568,"velocity":0.7874015748031497},{"duration":0.09999999999999432,"durationTicks":240,"midi":30,"name":"F#1","ticks":291840,"time":120.70856800000001,"velocity":0.7874015748031497},{"duration":0.09999999999999432,"durationTicks":240,"midi":42,"name":"F#2","ticks":291840,"time":120.70856800000001,"velocity":0.7874015748031497},{"duration":0.10000000000000853,"durationTicks":240,"midi":42,"name":"F#2","ticks":292320,"time":120.908568,"velocity":0.7874015748031497},{"duration":0.10000000000000853,"durationTicks":240,"midi":54,"name":"F#3","ticks":292320,"time":120.908568,"velocity":0.7874015748031497},{"duration":0.10000000000000853,"durationTicks":240,"midi":30,"name":"F#1","ticks":292800,"time":121.108568,"velocity":0.7874015748031497},{"duration":0.10000000000000853,"durationTicks":240,"midi":42,"name":"F#2","ticks":292800,"time":121.108568,"velocity":0.7874015748031497},{"duration":0.0833333333333286,"durationTicks":200,"midi":42,"name":"F#2","ticks":293280,"time":121.30856800000001,"velocity":0.7874015748031497},{"duration":0.0833333333333286,"durationTicks":200,"midi":54,"name":"F#3","ticks":293280,"time":121.30856800000001,"velocity":0.7874015748031497},{"duration":0.0833333333333286,"durationTicks":200,"midi":42,"name":"F#2","ticks":293520,"time":121.408568,"velocity":0.7874015748031497},{"duration":0.0833333333333286,"durationTicks":200,"midi":54,"name":"F#3","ticks":293520,"time":121.408568,"velocity":0.7874015748031497},{"duration":0.09999999999999432,"durationTicks":240,"midi":30,"name":"F#1","ticks":293760,"time":121.50856800000001,"velocity":0.7874015748031497},{"duration":0.09999999999999432,"durationTicks":240,"midi":42,"name":"F#2","ticks":293760,"time":121.50856800000001,"velocity":0.7874015748031497},{"duration":0.09999999999999432,"durationTicks":240,"midi":42,"name":"F#2","ticks":294240,"time":121.70856800000001,"velocity":0.7874015748031497},{"duration":0.09999999999999432,"durationTicks":240,"midi":54,"name":"F#3","ticks":294240,"time":121.70856800000001,"velocity":0.7874015748031497},{"duration":0.10000000000000853,"durationTicks":240,"midi":30,"name":"F#1","ticks":294720,"time":121.908568,"velocity":0.7874015748031497},{"duration":0.10000000000000853,"durationTicks":240,"midi":42,"name":"F#2","ticks":294720,"time":121.908568,"velocity":0.7874015748031497},{"duration":0.0833333333333286,"durationTicks":200,"midi":42,"name":"F#2","ticks":295200,"time":122.108568,"velocity":0.7874015748031497},{"duration":0.0833333333333286,"durationTicks":200,"midi":54,"name":"F#3","ticks":295200,"time":122.108568,"velocity":0.7874015748031497},{"duration":0.08333333333331439,"durationTicks":200,"midi":42,"name":"F#2","ticks":295440,"time":122.20856800000001,"velocity":0.7874015748031497},{"duration":0.08333333333331439,"durationTicks":200,"midi":54,"name":"F#3","ticks":295440,"time":122.20856800000001,"velocity":0.7874015748031497},{"duration":0.09999999999999432,"durationTicks":240,"midi":32,"name":"G#1","ticks":295680,"time":122.30856800000001,"velocity":0.7874015748031497},{"duration":0.09999999999999432,"durationTicks":240,"midi":44,"name":"G#2","ticks":295680,"time":122.30856800000001,"velocity":0.7874015748031497},{"duration":0.09999999999999432,"durationTicks":240,"midi":44,"name":"G#2","ticks":296160,"time":122.50856800000001,"velocity":0.7874015748031497},{"duration":0.09999999999999432,"durationTicks":240,"midi":56,"name":"G#3","ticks":296160,"time":122.50856800000001,"velocity":0.7874015748031497},{"duration":0.09999999999999432,"durationTicks":240,"midi":32,"name":"G#1","ticks":296640,"time":122.70856800000001,"velocity":0.7874015748031497},{"duration":0.09999999999999432,"durationTicks":240,"midi":44,"name":"G#2","ticks":296640,"time":122.70856800000001,"velocity":0.7874015748031497},{"duration":0.0833333333333286,"durationTicks":200,"midi":44,"name":"G#2","ticks":297120,"time":122.908568,"velocity":0.7874015748031497},{"duration":0.0833333333333286,"durationTicks":200,"midi":56,"name":"G#3","ticks":297120,"time":122.908568,"velocity":0.7874015748031497},{"duration":0.0833333333333286,"durationTicks":200,"midi":44,"name":"G#2","ticks":297360,"time":123.00856800000001,"velocity":0.7874015748031497},{"duration":0.0833333333333286,"durationTicks":200,"midi":56,"name":"G#3","ticks":297360,"time":123.00856800000001,"velocity":0.7874015748031497},{"duration":0.10000000000000853,"durationTicks":240,"midi":32,"name":"G#1","ticks":297600,"time":123.108568,"velocity":0.7874015748031497},{"duration":0.10000000000000853,"durationTicks":240,"midi":44,"name":"G#2","ticks":297600,"time":123.108568,"velocity":0.7874015748031497},{"duration":0.09999999999999432,"durationTicks":240,"midi":44,"name":"G#2","ticks":298080,"time":123.30856800000001,"velocity":0.7874015748031497},{"duration":0.09999999999999432,"durationTicks":240,"midi":56,"name":"G#3","ticks":298080,"time":123.30856800000001,"velocity":0.7874015748031497},{"duration":0.09999999999999432,"durationTicks":240,"midi":32,"name":"G#1","ticks":298560,"time":123.50856800000001,"velocity":0.7874015748031497},{"duration":0.09999999999999432,"durationTicks":240,"midi":44,"name":"G#2","ticks":298560,"time":123.50856800000001,"velocity":0.7874015748031497},{"duration":0.08333333333331439,"durationTicks":200,"midi":44,"name":"G#2","ticks":299040,"time":123.70856800000001,"velocity":0.7874015748031497},{"duration":0.08333333333331439,"durationTicks":200,"midi":56,"name":"G#3","ticks":299040,"time":123.70856800000001,"velocity":0.7874015748031497},{"duration":0.0833333333333286,"durationTicks":200,"midi":44,"name":"G#2","ticks":299280,"time":123.80856800000001,"velocity":0.7874015748031497},{"duration":0.0833333333333286,"durationTicks":200,"midi":56,"name":"G#3","ticks":299280,"time":123.80856800000001,"velocity":0.7874015748031497},{"duration":0.10000000000000853,"durationTicks":240,"midi":37,"name":"C#2","ticks":299520,"time":123.908568,"velocity":0.7874015748031497},{"duration":0.10000000000000853,"durationTicks":240,"midi":49,"name":"C#3","ticks":299520,"time":123.908568,"velocity":0.7874015748031497},{"duration":0.10000000000000853,"durationTicks":240,"midi":49,"name":"C#3","ticks":300000,"time":124.108568,"velocity":0.7874015748031497},{"duration":0.10000000000000853,"durationTicks":240,"midi":61,"name":"C#4","ticks":300000,"time":124.108568,"velocity":0.7874015748031497},{"duration":0.09999999999999432,"durationTicks":240,"midi":37,"name":"C#2","ticks":300480,"time":124.30856800000001,"velocity":0.7874015748031497},{"duration":0.09999999999999432,"durationTicks":240,"midi":49,"name":"C#3","ticks":300480,"time":124.30856800000001,"velocity":0.7874015748031497},{"duration":0.0833333333333286,"durationTicks":200,"midi":49,"name":"C#3","ticks":300960,"time":124.50856800000001,"velocity":0.7874015748031497},{"duration":0.0833333333333286,"durationTicks":200,"midi":61,"name":"C#4","ticks":300960,"time":124.50856800000001,"velocity":0.7874015748031497},{"duration":0.0833333333333286,"durationTicks":200,"midi":49,"name":"C#3","ticks":301200,"time":124.608568,"velocity":0.7874015748031497},{"duration":0.0833333333333286,"durationTicks":200,"midi":61,"name":"C#4","ticks":301200,"time":124.608568,"velocity":0.7874015748031497},{"duration":0.09999999999999432,"durationTicks":240,"midi":37,"name":"C#2","ticks":301440,"time":124.70856800000001,"velocity":0.7874015748031497},{"duration":0.09999999999999432,"durationTicks":240,"midi":49,"name":"C#3","ticks":301440,"time":124.70856800000001,"velocity":0.7874015748031497},{"duration":0.10000000000000853,"durationTicks":240,"midi":49,"name":"C#3","ticks":301920,"time":124.908568,"velocity":0.7874015748031497},{"duration":0.10000000000000853,"durationTicks":240,"midi":61,"name":"C#4","ticks":301920,"time":124.908568,"velocity":0.7874015748031497},{"duration":0.10000000000000853,"durationTicks":240,"midi":37,"name":"C#2","ticks":302400,"time":125.108568,"velocity":0.7874015748031497},{"duration":0.10000000000000853,"durationTicks":240,"midi":49,"name":"C#3","ticks":302400,"time":125.108568,"velocity":0.7874015748031497},{"duration":0.0833333333333286,"durationTicks":200,"midi":49,"name":"C#3","ticks":302880,"time":125.30856800000001,"velocity":0.7874015748031497},{"duration":0.0833333333333286,"durationTicks":200,"midi":61,"name":"C#4","ticks":302880,"time":125.30856800000001,"velocity":0.7874015748031497},{"duration":0.0833333333333286,"durationTicks":200,"midi":49,"name":"C#3","ticks":303120,"time":125.408568,"velocity":0.7874015748031497},{"duration":0.0833333333333286,"durationTicks":200,"midi":61,"name":"C#4","ticks":303120,"time":125.408568,"velocity":0.7874015748031497},{"duration":0.09999999999999432,"durationTicks":240,"midi":30,"name":"F#1","ticks":303360,"time":125.50856800000001,"velocity":0.7874015748031497},{"duration":0.09999999999999432,"durationTicks":240,"midi":42,"name":"F#2","ticks":303360,"time":125.50856800000001,"velocity":0.7874015748031497},{"duration":0.09999999999999432,"durationTicks":240,"midi":42,"name":"F#2","ticks":303840,"time":125.70856800000001,"velocity":0.7874015748031497},{"duration":0.09999999999999432,"durationTicks":240,"midi":54,"name":"F#3","ticks":303840,"time":125.70856800000001,"velocity":0.7874015748031497},{"duration":0.10000000000000853,"durationTicks":240,"midi":30,"name":"F#1","ticks":304320,"time":125.908568,"velocity":0.7874015748031497},{"duration":0.10000000000000853,"durationTicks":240,"midi":42,"name":"F#2","ticks":304320,"time":125.908568,"velocity":0.7874015748031497},{"duration":0.0833333333333286,"durationTicks":200,"midi":42,"name":"F#2","ticks":304800,"time":126.108568,"velocity":0.7874015748031497},{"duration":0.0833333333333286,"durationTicks":200,"midi":54,"name":"F#3","ticks":304800,"time":126.108568,"velocity":0.7874015748031497},{"duration":0.08333333333331439,"durationTicks":200,"midi":42,"name":"F#2","ticks":305040,"time":126.20856800000001,"velocity":0.7874015748031497},{"duration":0.08333333333331439,"durationTicks":200,"midi":54,"name":"F#3","ticks":305040,"time":126.20856800000001,"velocity":0.7874015748031497},{"duration":0.09999999999999432,"durationTicks":240,"midi":30,"name":"F#1","ticks":305280,"time":126.30856800000001,"velocity":0.7874015748031497},{"duration":0.09999999999999432,"durationTicks":240,"midi":42,"name":"F#2","ticks":305280,"time":126.30856800000001,"velocity":0.7874015748031497},{"duration":0.09999999999999432,"durationTicks":240,"midi":42,"name":"F#2","ticks":305760,"time":126.50856800000001,"velocity":0.7874015748031497},{"duration":0.09999999999999432,"durationTicks":240,"midi":54,"name":"F#3","ticks":305760,"time":126.50856800000001,"velocity":0.7874015748031497},{"duration":0.09999999999999432,"durationTicks":240,"midi":30,"name":"F#1","ticks":306240,"time":126.70856800000001,"velocity":0.7874015748031497},{"duration":0.09999999999999432,"durationTicks":240,"midi":42,"name":"F#2","ticks":306240,"time":126.70856800000001,"velocity":0.7874015748031497},{"duration":0.0833333333333286,"durationTicks":200,"midi":42,"name":"F#2","ticks":306720,"time":126.908568,"velocity":0.7874015748031497},{"duration":0.0833333333333286,"durationTicks":200,"midi":54,"name":"F#3","ticks":306720,"time":126.908568,"velocity":0.7874015748031497},{"duration":0.0833333333333286,"durationTicks":200,"midi":42,"name":"F#2","ticks":306960,"time":127.00856800000001,"velocity":0.7874015748031497},{"duration":0.0833333333333286,"durationTicks":200,"midi":54,"name":"F#3","ticks":306960,"time":127.00856800000001,"velocity":0.7874015748031497},{"duration":0.10000000000000853,"durationTicks":240,"midi":32,"name":"G#1","ticks":307200,"time":127.108568,"velocity":0.7874015748031497},{"duration":0.10000000000000853,"durationTicks":240,"midi":44,"name":"G#2","ticks":307200,"time":127.108568,"velocity":0.7874015748031497},{"duration":0.09999999999999432,"durationTicks":240,"midi":44,"name":"G#2","ticks":307680,"time":127.30856800000001,"velocity":0.7874015748031497},{"duration":0.09999999999999432,"durationTicks":240,"midi":56,"name":"G#3","ticks":307680,"time":127.30856800000001,"velocity":0.7874015748031497},{"duration":0.09999999999999432,"durationTicks":240,"midi":32,"name":"G#1","ticks":308160,"time":127.50856800000001,"velocity":0.7874015748031497},{"duration":0.09999999999999432,"durationTicks":240,"midi":44,"name":"G#2","ticks":308160,"time":127.50856800000001,"velocity":0.7874015748031497},{"duration":0.08333333333331439,"durationTicks":200,"midi":44,"name":"G#2","ticks":308640,"time":127.70856800000001,"velocity":0.7874015748031497},{"duration":0.08333333333331439,"durationTicks":200,"midi":56,"name":"G#3","ticks":308640,"time":127.70856800000001,"velocity":0.7874015748031497},{"duration":0.0833333333333286,"durationTicks":200,"midi":44,"name":"G#2","ticks":308880,"time":127.80856800000001,"velocity":0.7874015748031497},{"duration":0.0833333333333286,"durationTicks":200,"midi":56,"name":"G#3","ticks":308880,"time":127.80856800000001,"velocity":0.7874015748031497},{"duration":0.09999999999999432,"durationTicks":240,"midi":32,"name":"G#1","ticks":309120,"time":127.908568,"velocity":0.7874015748031497},{"duration":0.09999999999999432,"durationTicks":240,"midi":44,"name":"G#2","ticks":309120,"time":127.908568,"velocity":0.7874015748031497},{"duration":0.10000000000002274,"durationTicks":240,"midi":44,"name":"G#2","ticks":309600,"time":128.108568,"velocity":0.7874015748031497},{"duration":0.10000000000002274,"durationTicks":240,"midi":56,"name":"G#3","ticks":309600,"time":128.108568,"velocity":0.7874015748031497},{"duration":0.09999999999999432,"durationTicks":240,"midi":32,"name":"G#1","ticks":310080,"time":128.308568,"velocity":0.7874015748031497},{"duration":0.09999999999999432,"durationTicks":240,"midi":44,"name":"G#2","ticks":310080,"time":128.308568,"velocity":0.7874015748031497},{"duration":0.08333333333334281,"durationTicks":200,"midi":44,"name":"G#2","ticks":310560,"time":128.508568,"velocity":0.7874015748031497},{"duration":0.08333333333334281,"durationTicks":200,"midi":56,"name":"G#3","ticks":310560,"time":128.508568,"velocity":0.7874015748031497},{"duration":0.08333333333334281,"durationTicks":200,"midi":44,"name":"G#2","ticks":310800,"time":128.608568,"velocity":0.7874015748031497},{"duration":0.08333333333334281,"durationTicks":200,"midi":56,"name":"G#3","ticks":310800,"time":128.608568,"velocity":0.7874015748031497},{"duration":0.09999999999999432,"durationTicks":240,"midi":37,"name":"C#2","ticks":311040,"time":128.708568,"velocity":0.7874015748031497},{"duration":0.09999999999999432,"durationTicks":240,"midi":49,"name":"C#3","ticks":311040,"time":128.708568,"velocity":0.7874015748031497},{"duration":0.09999999999999432,"durationTicks":240,"midi":49,"name":"C#3","ticks":311520,"time":128.908568,"velocity":0.7874015748031497},{"duration":0.09999999999999432,"durationTicks":240,"midi":61,"name":"C#4","ticks":311520,"time":128.908568,"velocity":0.7874015748031497},{"duration":0.10000000000002274,"durationTicks":240,"midi":37,"name":"C#2","ticks":312000,"time":129.108568,"velocity":0.7874015748031497},{"duration":0.10000000000002274,"durationTicks":240,"midi":49,"name":"C#3","ticks":312000,"time":129.108568,"velocity":0.7874015748031497},{"duration":0.08333333333331439,"durationTicks":200,"midi":49,"name":"C#3","ticks":312480,"time":129.308568,"velocity":0.7874015748031497},{"duration":0.08333333333331439,"durationTicks":200,"midi":61,"name":"C#4","ticks":312480,"time":129.308568,"velocity":0.7874015748031497},{"duration":0.08333333333331439,"durationTicks":200,"midi":49,"name":"C#3","ticks":312720,"time":129.408568,"velocity":0.7874015748031497},{"duration":0.08333333333331439,"durationTicks":200,"midi":61,"name":"C#4","ticks":312720,"time":129.408568,"velocity":0.7874015748031497},{"duration":0.09999999999999432,"durationTicks":240,"midi":37,"name":"C#2","ticks":312960,"time":129.508568,"velocity":0.7874015748031497},{"duration":0.09999999999999432,"durationTicks":240,"midi":49,"name":"C#3","ticks":312960,"time":129.508568,"velocity":0.7874015748031497},{"duration":0.09999999999999432,"durationTicks":240,"midi":49,"name":"C#3","ticks":313440,"time":129.708568,"velocity":0.7874015748031497},{"duration":0.09999999999999432,"durationTicks":240,"midi":61,"name":"C#4","ticks":313440,"time":129.708568,"velocity":0.7874015748031497},{"duration":0.09999999999999432,"durationTicks":240,"midi":37,"name":"C#2","ticks":313920,"time":129.908568,"velocity":0.7874015748031497},{"duration":0.09999999999999432,"durationTicks":240,"midi":49,"name":"C#3","ticks":313920,"time":129.908568,"velocity":0.7874015748031497},{"duration":0.08333333333334281,"durationTicks":200,"midi":49,"name":"C#3","ticks":314400,"time":130.108568,"velocity":0.7874015748031497},{"duration":0.08333333333334281,"durationTicks":200,"midi":61,"name":"C#4","ticks":314400,"time":130.108568,"velocity":0.7874015748031497},{"duration":0.08333333333331439,"durationTicks":200,"midi":49,"name":"C#3","ticks":314640,"time":130.208568,"velocity":0.7874015748031497},{"duration":0.08333333333331439,"durationTicks":200,"midi":61,"name":"C#4","ticks":314640,"time":130.208568,"velocity":0.7874015748031497},{"duration":0.09999999999999432,"durationTicks":240,"midi":35,"name":"B1","ticks":314880,"time":130.308568,"velocity":0.7874015748031497},{"duration":0.09999999999999432,"durationTicks":240,"midi":47,"name":"B2","ticks":314880,"time":130.308568,"velocity":0.7874015748031497},{"duration":0.09999999999999432,"durationTicks":240,"midi":47,"name":"B2","ticks":315360,"time":130.508568,"velocity":0.7874015748031497},{"duration":0.09999999999999432,"durationTicks":240,"midi":59,"name":"B3","ticks":315360,"time":130.508568,"velocity":0.7874015748031497},{"duration":0.09999999999999432,"durationTicks":240,"midi":35,"name":"B1","ticks":315840,"time":130.708568,"velocity":0.7874015748031497},{"duration":0.09999999999999432,"durationTicks":240,"midi":47,"name":"B2","ticks":315840,"time":130.708568,"velocity":0.7874015748031497},{"duration":0.08333333333331439,"durationTicks":200,"midi":47,"name":"B2","ticks":316320,"time":130.908568,"velocity":0.7874015748031497},{"duration":0.08333333333331439,"durationTicks":200,"midi":59,"name":"B3","ticks":316320,"time":130.908568,"velocity":0.7874015748031497},{"duration":0.08333333333334281,"durationTicks":200,"midi":47,"name":"B2","ticks":316560,"time":131.008568,"velocity":0.7874015748031497},{"duration":0.08333333333334281,"durationTicks":200,"midi":59,"name":"B3","ticks":316560,"time":131.008568,"velocity":0.7874015748031497},{"duration":0.10000000000002274,"durationTicks":240,"midi":35,"name":"B1","ticks":316800,"time":131.108568,"velocity":0.7874015748031497},{"duration":0.10000000000002274,"durationTicks":240,"midi":47,"name":"B2","ticks":316800,"time":131.108568,"velocity":0.7874015748031497},{"duration":0.09999999999999432,"durationTicks":240,"midi":47,"name":"B2","ticks":317280,"time":131.308568,"velocity":0.7874015748031497},{"duration":0.09999999999999432,"durationTicks":240,"midi":59,"name":"B3","ticks":317280,"time":131.308568,"velocity":0.7874015748031497},{"duration":0.09999999999999432,"durationTicks":240,"midi":35,"name":"B1","ticks":317760,"time":131.508568,"velocity":0.7874015748031497},{"duration":0.09999999999999432,"durationTicks":240,"midi":47,"name":"B2","ticks":317760,"time":131.508568,"velocity":0.7874015748031497},{"duration":0.08333333333331439,"durationTicks":200,"midi":47,"name":"B2","ticks":318240,"time":131.708568,"velocity":0.7874015748031497},{"duration":0.08333333333331439,"durationTicks":200,"midi":59,"name":"B3","ticks":318240,"time":131.708568,"velocity":0.7874015748031497},{"duration":0.08333333333331439,"durationTicks":200,"midi":47,"name":"B2","ticks":318480,"time":131.808568,"velocity":0.7874015748031497},{"duration":0.08333333333331439,"durationTicks":200,"midi":59,"name":"B3","ticks":318480,"time":131.808568,"velocity":0.7874015748031497},{"duration":0.09999999999999432,"durationTicks":240,"midi":33,"name":"A1","ticks":318720,"time":131.908568,"velocity":0.7874015748031497},{"duration":0.09999999999999432,"durationTicks":240,"midi":45,"name":"A2","ticks":318720,"time":131.908568,"velocity":0.7874015748031497},{"duration":0.09999999999999432,"durationTicks":240,"midi":45,"name":"A2","ticks":319200,"time":132.10856800000002,"velocity":0.7874015748031497},{"duration":0.09999999999999432,"durationTicks":240,"midi":57,"name":"A3","ticks":319200,"time":132.10856800000002,"velocity":0.7874015748031497},{"duration":0.09999999999999432,"durationTicks":240,"midi":33,"name":"A1","ticks":319680,"time":132.308568,"velocity":0.7874015748031497},{"duration":0.09999999999999432,"durationTicks":240,"midi":45,"name":"A2","ticks":319680,"time":132.308568,"velocity":0.7874015748031497},{"duration":0.08333333333334281,"durationTicks":200,"midi":45,"name":"A2","ticks":320160,"time":132.508568,"velocity":0.7874015748031497},{"duration":0.08333333333334281,"durationTicks":200,"midi":57,"name":"A3","ticks":320160,"time":132.508568,"velocity":0.7874015748031497},{"duration":0.08333333333331439,"durationTicks":200,"midi":45,"name":"A2","ticks":320400,"time":132.60856800000002,"velocity":0.7874015748031497},{"duration":0.08333333333331439,"durationTicks":200,"midi":57,"name":"A3","ticks":320400,"time":132.60856800000002,"velocity":0.7874015748031497},{"duration":0.09999999999999432,"durationTicks":240,"midi":33,"name":"A1","ticks":320640,"time":132.708568,"velocity":0.7874015748031497},{"duration":0.09999999999999432,"durationTicks":240,"midi":45,"name":"A2","ticks":320640,"time":132.708568,"velocity":0.7874015748031497},{"duration":0.09999999999999432,"durationTicks":240,"midi":45,"name":"A2","ticks":321120,"time":132.908568,"velocity":0.7874015748031497},{"duration":0.09999999999999432,"durationTicks":240,"midi":57,"name":"A3","ticks":321120,"time":132.908568,"velocity":0.7874015748031497},{"duration":0.09999999999999432,"durationTicks":240,"midi":33,"name":"A1","ticks":321600,"time":133.10856800000002,"velocity":0.7874015748031497},{"duration":0.09999999999999432,"durationTicks":240,"midi":45,"name":"A2","ticks":321600,"time":133.10856800000002,"velocity":0.7874015748031497},{"duration":0.08333333333331439,"durationTicks":200,"midi":45,"name":"A2","ticks":322080,"time":133.308568,"velocity":0.7874015748031497},{"duration":0.08333333333331439,"durationTicks":200,"midi":57,"name":"A3","ticks":322080,"time":133.308568,"velocity":0.7874015748031497},{"duration":0.08333333333334281,"durationTicks":200,"midi":45,"name":"A2","ticks":322320,"time":133.408568,"velocity":0.7874015748031497},{"duration":0.08333333333334281,"durationTicks":200,"midi":57,"name":"A3","ticks":322320,"time":133.408568,"velocity":0.7874015748031497},{"duration":0.10000000000002274,"durationTicks":240,"midi":35,"name":"B1","ticks":322560,"time":133.508568,"velocity":0.7874015748031497},{"duration":0.10000000000002274,"durationTicks":240,"midi":47,"name":"B2","ticks":322560,"time":133.508568,"velocity":0.7874015748031497},{"duration":0.09999999999999432,"durationTicks":240,"midi":47,"name":"B2","ticks":323040,"time":133.708568,"velocity":0.7874015748031497},{"duration":0.09999999999999432,"durationTicks":240,"midi":59,"name":"B3","ticks":323040,"time":133.708568,"velocity":0.7874015748031497},{"duration":0.09999999999999432,"durationTicks":240,"midi":35,"name":"B1","ticks":323520,"time":133.908568,"velocity":0.7874015748031497},{"duration":0.09999999999999432,"durationTicks":240,"midi":47,"name":"B2","ticks":323520,"time":133.908568,"velocity":0.7874015748031497},{"duration":0.08333333333331439,"durationTicks":200,"midi":47,"name":"B2","ticks":324000,"time":134.10856800000002,"velocity":0.7874015748031497},{"duration":0.08333333333331439,"durationTicks":200,"midi":59,"name":"B3","ticks":324000,"time":134.10856800000002,"velocity":0.7874015748031497},{"duration":0.08333333333331439,"durationTicks":200,"midi":47,"name":"B2","ticks":324240,"time":134.208568,"velocity":0.7874015748031497},{"duration":0.08333333333331439,"durationTicks":200,"midi":59,"name":"B3","ticks":324240,"time":134.208568,"velocity":0.7874015748031497},{"duration":0.09999999999999432,"durationTicks":240,"midi":35,"name":"B1","ticks":324480,"time":134.308568,"velocity":0.7874015748031497},{"duration":0.09999999999999432,"durationTicks":240,"midi":47,"name":"B2","ticks":324480,"time":134.308568,"velocity":0.7874015748031497},{"duration":0.10000000000002274,"durationTicks":240,"midi":47,"name":"B2","ticks":324960,"time":134.508568,"velocity":0.7874015748031497},{"duration":0.10000000000002274,"durationTicks":240,"midi":59,"name":"B3","ticks":324960,"time":134.508568,"velocity":0.7874015748031497},{"duration":0.09999999999999432,"durationTicks":240,"midi":35,"name":"B1","ticks":325440,"time":134.708568,"velocity":0.7874015748031497},{"duration":0.09999999999999432,"durationTicks":240,"midi":47,"name":"B2","ticks":325440,"time":134.708568,"velocity":0.7874015748031497},{"duration":0.08333333333334281,"durationTicks":200,"midi":47,"name":"B2","ticks":325920,"time":134.908568,"velocity":0.7874015748031497},{"duration":0.08333333333334281,"durationTicks":200,"midi":59,"name":"B3","ticks":325920,"time":134.908568,"velocity":0.7874015748031497},{"duration":0.08333333333334281,"durationTicks":200,"midi":47,"name":"B2","ticks":326160,"time":135.008568,"velocity":0.7874015748031497},{"duration":0.08333333333334281,"durationTicks":200,"midi":59,"name":"B3","ticks":326160,"time":135.008568,"velocity":0.7874015748031497},{"duration":0.09999999999999432,"durationTicks":240,"midi":32,"name":"G#1","ticks":326400,"time":135.10856800000002,"velocity":0.7874015748031497},{"duration":0.09999999999999432,"durationTicks":240,"midi":44,"name":"G#2","ticks":326400,"time":135.10856800000002,"velocity":0.7874015748031497},{"duration":0.09999999999999432,"durationTicks":240,"midi":44,"name":"G#2","ticks":326880,"time":135.308568,"velocity":0.7874015748031497},{"duration":0.09999999999999432,"durationTicks":240,"midi":56,"name":"G#3","ticks":326880,"time":135.308568,"velocity":0.7874015748031497},{"duration":0.10000000000002274,"durationTicks":240,"midi":32,"name":"G#1","ticks":327360,"time":135.508568,"velocity":0.7874015748031497},{"duration":0.10000000000002274,"durationTicks":240,"midi":44,"name":"G#2","ticks":327360,"time":135.508568,"velocity":0.7874015748031497},{"duration":0.08333333333331439,"durationTicks":200,"midi":44,"name":"G#2","ticks":327840,"time":135.708568,"velocity":0.7874015748031497},{"duration":0.08333333333331439,"durationTicks":200,"midi":56,"name":"G#3","ticks":327840,"time":135.708568,"velocity":0.7874015748031497},{"duration":0.08333333333331439,"durationTicks":200,"midi":44,"name":"G#2","ticks":328080,"time":135.808568,"velocity":0.7874015748031497},{"duration":0.08333333333331439,"durationTicks":200,"midi":56,"name":"G#3","ticks":328080,"time":135.808568,"velocity":0.7874015748031497},{"duration":0.09999999999999432,"durationTicks":240,"midi":32,"name":"G#1","ticks":328320,"time":135.908568,"velocity":0.7874015748031497},{"duration":0.09999999999999432,"durationTicks":240,"midi":44,"name":"G#2","ticks":328320,"time":135.908568,"velocity":0.7874015748031497},{"duration":0.09999999999999432,"durationTicks":240,"midi":44,"name":"G#2","ticks":328800,"time":136.10856800000002,"velocity":0.7874015748031497},{"duration":0.09999999999999432,"durationTicks":240,"midi":56,"name":"G#3","ticks":328800,"time":136.10856800000002,"velocity":0.7874015748031497},{"duration":0.09999999999999432,"durationTicks":240,"midi":32,"name":"G#1","ticks":329280,"time":136.308568,"velocity":0.7874015748031497},{"duration":0.09999999999999432,"durationTicks":240,"midi":44,"name":"G#2","ticks":329280,"time":136.308568,"velocity":0.7874015748031497},{"duration":0.08333333333334281,"durationTicks":200,"midi":44,"name":"G#2","ticks":329760,"time":136.508568,"velocity":0.7874015748031497},{"duration":0.08333333333334281,"durationTicks":200,"midi":56,"name":"G#3","ticks":329760,"time":136.508568,"velocity":0.7874015748031497},{"duration":0.08333333333331439,"durationTicks":200,"midi":44,"name":"G#2","ticks":330000,"time":136.60856800000002,"velocity":0.7874015748031497},{"duration":0.08333333333331439,"durationTicks":200,"midi":56,"name":"G#3","ticks":330000,"time":136.60856800000002,"velocity":0.7874015748031497},{"duration":0.09999999999999432,"durationTicks":240,"midi":37,"name":"C#2","ticks":330240,"time":136.708568,"velocity":0.7874015748031497},{"duration":0.09999999999999432,"durationTicks":240,"midi":49,"name":"C#3","ticks":330240,"time":136.708568,"velocity":0.7874015748031497},{"duration":0.09999999999999432,"durationTicks":240,"midi":49,"name":"C#3","ticks":330720,"time":136.908568,"velocity":0.7874015748031497},{"duration":0.09999999999999432,"durationTicks":240,"midi":61,"name":"C#4","ticks":330720,"time":136.908568,"velocity":0.7874015748031497},{"duration":0.09999999999999432,"durationTicks":240,"midi":37,"name":"C#2","ticks":331200,"time":137.10856800000002,"velocity":0.7874015748031497},{"duration":0.09999999999999432,"durationTicks":240,"midi":49,"name":"C#3","ticks":331200,"time":137.10856800000002,"velocity":0.7874015748031497},{"duration":0.08333333333331439,"durationTicks":200,"midi":49,"name":"C#3","ticks":331680,"time":137.308568,"velocity":0.7874015748031497},{"duration":0.08333333333331439,"durationTicks":200,"midi":61,"name":"C#4","ticks":331680,"time":137.308568,"velocity":0.7874015748031497},{"duration":0.08333333333334281,"durationTicks":200,"midi":49,"name":"C#3","ticks":331920,"time":137.408568,"velocity":0.7874015748031497},{"duration":0.08333333333334281,"durationTicks":200,"midi":61,"name":"C#4","ticks":331920,"time":137.408568,"velocity":0.7874015748031497},{"duration":0.10000000000002274,"durationTicks":240,"midi":37,"name":"C#2","ticks":332160,"time":137.508568,"velocity":0.7874015748031497},{"duration":0.10000000000002274,"durationTicks":240,"midi":49,"name":"C#3","ticks":332160,"time":137.508568,"velocity":0.7874015748031497},{"duration":0.09999999999999432,"durationTicks":240,"midi":49,"name":"C#3","ticks":332640,"time":137.708568,"velocity":0.7874015748031497},{"duration":0.09999999999999432,"durationTicks":240,"midi":61,"name":"C#4","ticks":332640,"time":137.708568,"velocity":0.7874015748031497},{"duration":0.09999999999999432,"durationTicks":240,"midi":37,"name":"C#2","ticks":333120,"time":137.908568,"velocity":0.7874015748031497},{"duration":0.09999999999999432,"durationTicks":240,"midi":49,"name":"C#3","ticks":333120,"time":137.908568,"velocity":0.7874015748031497},{"duration":0.08333333333331439,"durationTicks":200,"midi":49,"name":"C#3","ticks":333600,"time":138.10856800000002,"velocity":0.7874015748031497},{"duration":0.08333333333331439,"durationTicks":200,"midi":61,"name":"C#4","ticks":333600,"time":138.10856800000002,"velocity":0.7874015748031497},{"duration":0.08333333333331439,"durationTicks":200,"midi":49,"name":"C#3","ticks":333840,"time":138.208568,"velocity":0.7874015748031497},{"duration":0.08333333333331439,"durationTicks":200,"midi":61,"name":"C#4","ticks":333840,"time":138.208568,"velocity":0.7874015748031497},{"duration":0.09999999999999432,"durationTicks":240,"midi":30,"name":"F#1","ticks":334080,"time":138.308568,"velocity":0.7874015748031497},{"duration":0.09999999999999432,"durationTicks":240,"midi":42,"name":"F#2","ticks":334080,"time":138.308568,"velocity":0.7874015748031497},{"duration":0.10000000000002274,"durationTicks":240,"midi":42,"name":"F#2","ticks":334560,"time":138.508568,"velocity":0.7874015748031497},{"duration":0.10000000000002274,"durationTicks":240,"midi":54,"name":"F#3","ticks":334560,"time":138.508568,"velocity":0.7874015748031497},{"duration":0.09999999999999432,"durationTicks":240,"midi":30,"name":"F#1","ticks":335040,"time":138.708568,"velocity":0.7874015748031497},{"duration":0.09999999999999432,"durationTicks":240,"midi":42,"name":"F#2","ticks":335040,"time":138.708568,"velocity":0.7874015748031497},{"duration":0.08333333333334281,"durationTicks":200,"midi":42,"name":"F#2","ticks":335520,"time":138.908568,"velocity":0.7874015748031497},{"duration":0.08333333333334281,"durationTicks":200,"midi":54,"name":"F#3","ticks":335520,"time":138.908568,"velocity":0.7874015748031497},{"duration":0.08333333333334281,"durationTicks":200,"midi":42,"name":"F#2","ticks":335760,"time":139.008568,"velocity":0.7874015748031497},{"duration":0.08333333333334281,"durationTicks":200,"midi":54,"name":"F#3","ticks":335760,"time":139.008568,"velocity":0.7874015748031497},{"duration":0.09999999999999432,"durationTicks":240,"midi":30,"name":"F#1","ticks":336000,"time":139.10856800000002,"velocity":0.7874015748031497},{"duration":0.09999999999999432,"durationTicks":240,"midi":42,"name":"F#2","ticks":336000,"time":139.10856800000002,"velocity":0.7874015748031497},{"duration":0.09999999999999432,"durationTicks":240,"midi":42,"name":"F#2","ticks":336480,"time":139.308568,"velocity":0.7874015748031497},{"duration":0.09999999999999432,"durationTicks":240,"midi":54,"name":"F#3","ticks":336480,"time":139.308568,"velocity":0.7874015748031497},{"duration":0.10000000000002274,"durationTicks":240,"midi":30,"name":"F#1","ticks":336960,"time":139.508568,"velocity":0.7874015748031497},{"duration":0.10000000000002274,"durationTicks":240,"midi":42,"name":"F#2","ticks":336960,"time":139.508568,"velocity":0.7874015748031497},{"duration":0.08333333333331439,"durationTicks":200,"midi":42,"name":"F#2","ticks":337440,"time":139.708568,"velocity":0.7874015748031497},{"duration":0.08333333333331439,"durationTicks":200,"midi":54,"name":"F#3","ticks":337440,"time":139.708568,"velocity":0.7874015748031497},{"duration":0.08333333333331439,"durationTicks":200,"midi":42,"name":"F#2","ticks":337680,"time":139.808568,"velocity":0.7874015748031497},{"duration":0.08333333333331439,"durationTicks":200,"midi":54,"name":"F#3","ticks":337680,"time":139.808568,"velocity":0.7874015748031497},{"duration":0.09999999999999432,"durationTicks":240,"midi":32,"name":"G#1","ticks":337920,"time":139.908568,"velocity":0.7874015748031497},{"duration":0.09999999999999432,"durationTicks":240,"midi":44,"name":"G#2","ticks":337920,"time":139.908568,"velocity":0.7874015748031497},{"duration":0.09999999999999432,"durationTicks":240,"midi":44,"name":"G#2","ticks":338400,"time":140.10856800000002,"velocity":0.7874015748031497},{"duration":0.09999999999999432,"durationTicks":240,"midi":56,"name":"G#3","ticks":338400,"time":140.10856800000002,"velocity":0.7874015748031497},{"duration":0.09999999999999432,"durationTicks":240,"midi":32,"name":"G#1","ticks":338880,"time":140.308568,"velocity":0.7874015748031497},{"duration":0.09999999999999432,"durationTicks":240,"midi":44,"name":"G#2","ticks":338880,"time":140.308568,"velocity":0.7874015748031497},{"duration":0.08333333333334281,"durationTicks":200,"midi":44,"name":"G#2","ticks":339360,"time":140.508568,"velocity":0.7874015748031497},{"duration":0.08333333333334281,"durationTicks":200,"midi":56,"name":"G#3","ticks":339360,"time":140.508568,"velocity":0.7874015748031497},{"duration":0.08333333333331439,"durationTicks":200,"midi":44,"name":"G#2","ticks":339600,"time":140.60856800000002,"velocity":0.7874015748031497},{"duration":0.08333333333331439,"durationTicks":200,"midi":56,"name":"G#3","ticks":339600,"time":140.60856800000002,"velocity":0.7874015748031497},{"duration":0.09999999999999432,"durationTicks":240,"midi":37,"name":"C#2","ticks":339840,"time":140.708568,"velocity":0.7874015748031497},{"duration":0.09999999999999432,"durationTicks":240,"midi":49,"name":"C#3","ticks":339840,"time":140.708568,"velocity":0.7874015748031497},{"duration":0.09999999999999432,"durationTicks":240,"midi":49,"name":"C#3","ticks":340320,"time":140.908568,"velocity":0.7874015748031497},{"duration":0.09999999999999432,"durationTicks":240,"midi":61,"name":"C#4","ticks":340320,"time":140.908568,"velocity":0.7874015748031497},{"duration":0.09999999999999432,"durationTicks":240,"midi":37,"name":"C#2","ticks":340800,"time":141.10856800000002,"velocity":0.7874015748031497},{"duration":0.09999999999999432,"durationTicks":240,"midi":49,"name":"C#3","ticks":340800,"time":141.10856800000002,"velocity":0.7874015748031497},{"duration":0.08333333333331439,"durationTicks":200,"midi":49,"name":"C#3","ticks":341280,"time":141.308568,"velocity":0.7874015748031497},{"duration":0.08333333333331439,"durationTicks":200,"midi":61,"name":"C#4","ticks":341280,"time":141.308568,"velocity":0.7874015748031497},{"duration":0.08333333333334281,"durationTicks":200,"midi":49,"name":"C#3","ticks":341520,"time":141.408568,"velocity":0.7874015748031497},{"duration":0.08333333333334281,"durationTicks":200,"midi":61,"name":"C#4","ticks":341520,"time":141.408568,"velocity":0.7874015748031497},{"duration":0.10000000000002274,"durationTicks":240,"midi":30,"name":"F#1","ticks":341760,"time":141.508568,"velocity":0.7874015748031497},{"duration":0.10000000000002274,"durationTicks":240,"midi":42,"name":"F#2","ticks":341760,"time":141.508568,"velocity":0.7874015748031497},{"duration":0.09999999999999432,"durationTicks":240,"midi":42,"name":"F#2","ticks":342240,"time":141.708568,"velocity":0.7874015748031497},{"duration":0.09999999999999432,"durationTicks":240,"midi":54,"name":"F#3","ticks":342240,"time":141.708568,"velocity":0.7874015748031497},{"duration":0.09999999999999432,"durationTicks":240,"midi":30,"name":"F#1","ticks":342720,"time":141.908568,"velocity":0.7874015748031497},{"duration":0.09999999999999432,"durationTicks":240,"midi":42,"name":"F#2","ticks":342720,"time":141.908568,"velocity":0.7874015748031497},{"duration":0.08333333333331439,"durationTicks":200,"midi":42,"name":"F#2","ticks":343200,"time":142.10856800000002,"velocity":0.7874015748031497},{"duration":0.08333333333331439,"durationTicks":200,"midi":54,"name":"F#3","ticks":343200,"time":142.10856800000002,"velocity":0.7874015748031497},{"duration":0.08333333333331439,"durationTicks":200,"midi":42,"name":"F#2","ticks":343440,"time":142.208568,"velocity":0.7874015748031497},{"duration":0.08333333333331439,"durationTicks":200,"midi":54,"name":"F#3","ticks":343440,"time":142.208568,"velocity":0.7874015748031497},{"duration":0.09999999999999432,"durationTicks":240,"midi":32,"name":"G#1","ticks":343680,"time":142.308568,"velocity":0.7874015748031497},{"duration":0.09999999999999432,"durationTicks":240,"midi":44,"name":"G#2","ticks":343680,"time":142.308568,"velocity":0.7874015748031497},{"duration":0.10000000000002274,"durationTicks":240,"midi":44,"name":"G#2","ticks":344160,"time":142.508568,"velocity":0.7874015748031497},{"duration":0.10000000000002274,"durationTicks":240,"midi":56,"name":"G#3","ticks":344160,"time":142.508568,"velocity":0.7874015748031497},{"duration":0.09999999999999432,"durationTicks":240,"midi":32,"name":"G#1","ticks":344640,"time":142.708568,"velocity":0.7874015748031497},{"duration":0.09999999999999432,"durationTicks":240,"midi":44,"name":"G#2","ticks":344640,"time":142.708568,"velocity":0.7874015748031497},{"duration":0.08333333333334281,"durationTicks":200,"midi":44,"name":"G#2","ticks":345120,"time":142.908568,"velocity":0.7874015748031497},{"duration":0.08333333333334281,"durationTicks":200,"midi":56,"name":"G#3","ticks":345120,"time":142.908568,"velocity":0.7874015748031497},{"duration":0.08333333333334281,"durationTicks":200,"midi":44,"name":"G#2","ticks":345360,"time":143.008568,"velocity":0.7874015748031497},{"duration":0.08333333333334281,"durationTicks":200,"midi":56,"name":"G#3","ticks":345360,"time":143.008568,"velocity":0.7874015748031497},{"duration":0.09999999999999432,"durationTicks":240,"midi":39,"name":"D#2","ticks":345600,"time":143.10856800000002,"velocity":0.7874015748031497},{"duration":0.09999999999999432,"durationTicks":240,"midi":51,"name":"D#3","ticks":345600,"time":143.10856800000002,"velocity":0.7874015748031497},{"duration":0.09999999999999432,"durationTicks":240,"midi":51,"name":"D#3","ticks":346080,"time":143.308568,"velocity":0.7874015748031497},{"duration":0.09999999999999432,"durationTicks":240,"midi":63,"name":"D#4","ticks":346080,"time":143.308568,"velocity":0.7874015748031497},{"duration":0.10000000000002274,"durationTicks":240,"midi":39,"name":"D#2","ticks":346560,"time":143.508568,"velocity":0.7874015748031497},{"duration":0.10000000000002274,"durationTicks":240,"midi":51,"name":"D#3","ticks":346560,"time":143.508568,"velocity":0.7874015748031497},{"duration":0.08333333333331439,"durationTicks":200,"midi":51,"name":"D#3","ticks":347040,"time":143.708568,"velocity":0.7874015748031497},{"duration":0.08333333333331439,"durationTicks":200,"midi":63,"name":"D#4","ticks":347040,"time":143.708568,"velocity":0.7874015748031497},{"duration":0.08333333333331439,"durationTicks":200,"midi":51,"name":"D#3","ticks":347280,"time":143.808568,"velocity":0.7874015748031497},{"duration":0.08333333333331439,"durationTicks":200,"midi":63,"name":"D#4","ticks":347280,"time":143.808568,"velocity":0.7874015748031497},{"duration":0.09999999999999432,"durationTicks":240,"midi":32,"name":"G#1","ticks":347520,"time":143.908568,"velocity":0.7874015748031497},{"duration":0.09999999999999432,"durationTicks":240,"midi":44,"name":"G#2","ticks":347520,"time":143.908568,"velocity":0.7874015748031497},{"duration":0.09999999999999432,"durationTicks":240,"midi":44,"name":"G#2","ticks":348000,"time":144.10856800000002,"velocity":0.7874015748031497},{"duration":0.09999999999999432,"durationTicks":240,"midi":56,"name":"G#3","ticks":348000,"time":144.10856800000002,"velocity":0.7874015748031497},{"duration":0.09999999999999432,"durationTicks":240,"midi":32,"name":"G#1","ticks":348480,"time":144.308568,"velocity":0.7874015748031497},{"duration":0.09999999999999432,"durationTicks":240,"midi":44,"name":"G#2","ticks":348480,"time":144.308568,"velocity":0.7874015748031497},{"duration":0.08333333333334281,"durationTicks":200,"midi":44,"name":"G#2","ticks":348960,"time":144.508568,"velocity":0.7874015748031497},{"duration":0.08333333333334281,"durationTicks":200,"midi":56,"name":"G#3","ticks":348960,"time":144.508568,"velocity":0.7874015748031497},{"duration":0.08333333333331439,"durationTicks":200,"midi":44,"name":"G#2","ticks":349200,"time":144.60856800000002,"velocity":0.7874015748031497},{"duration":0.08333333333331439,"durationTicks":200,"midi":56,"name":"G#3","ticks":349200,"time":144.60856800000002,"velocity":0.7874015748031497}]},{"channel":3,"controlChanges":{},"pitchBends":[],"instrument":{"family":"synth effects","number":100,"name":"fx 5 (brightness)"},"name":"","notes":[{"duration":0.06666666666666998,"durationTicks":160,"midi":69,"name":"A4","ticks":88800,"time":36.108568000000005,"velocity":0.7874015748031497},{"duration":0.06666666666666998,"durationTicks":160,"midi":66,"name":"F#4","ticks":88800,"time":36.108568000000005,"velocity":0.7874015748031497},{"duration":0.06666666666666998,"durationTicks":160,"midi":73,"name":"C#5","ticks":88800,"time":36.108568000000005,"velocity":0.7874015748031497},{"duration":0.06666666666666998,"durationTicks":160,"midi":69,"name":"A4","ticks":89760,"time":36.508568000000004,"velocity":0.7874015748031497},{"duration":0.06666666666666998,"durationTicks":160,"midi":66,"name":"F#4","ticks":89760,"time":36.508568000000004,"velocity":0.7874015748031497},{"duration":0.06666666666666998,"durationTicks":160,"midi":73,"name":"C#5","ticks":89760,"time":36.508568000000004,"velocity":0.7874015748031497},{"duration":0.06666666666666998,"durationTicks":160,"midi":69,"name":"A4","ticks":90720,"time":36.908568,"velocity":0.7874015748031497},{"duration":0.06666666666666998,"durationTicks":160,"midi":66,"name":"F#4","ticks":90720,"time":36.908568,"velocity":0.7874015748031497},{"duration":0.06666666666666998,"durationTicks":160,"midi":73,"name":"C#5","ticks":90720,"time":36.908568,"velocity":0.7874015748031497},{"duration":0.06666666666666998,"durationTicks":160,"midi":69,"name":"A4","ticks":91680,"time":37.308568,"velocity":0.7874015748031497},{"duration":0.06666666666666998,"durationTicks":160,"midi":66,"name":"F#4","ticks":91680,"time":37.308568,"velocity":0.7874015748031497},{"duration":0.06666666666666998,"durationTicks":160,"midi":73,"name":"C#5","ticks":91680,"time":37.308568,"velocity":0.7874015748031497},{"duration":0.06666666666666288,"durationTicks":160,"midi":71,"name":"B4","ticks":92640,"time":37.70856800000001,"velocity":0.7874015748031497},{"duration":0.06666666666666288,"durationTicks":160,"midi":66,"name":"F#4","ticks":92640,"time":37.70856800000001,"velocity":0.7874015748031497},{"duration":0.06666666666666288,"durationTicks":160,"midi":75,"name":"D#5","ticks":92640,"time":37.70856800000001,"velocity":0.7874015748031497},{"duration":0.06666666666666998,"durationTicks":160,"midi":71,"name":"B4","ticks":93600,"time":38.108568000000005,"velocity":0.7874015748031497},{"duration":0.06666666666666998,"durationTicks":160,"midi":66,"name":"F#4","ticks":93600,"time":38.108568000000005,"velocity":0.7874015748031497},{"duration":0.06666666666666998,"durationTicks":160,"midi":75,"name":"D#5","ticks":93600,"time":38.108568000000005,"velocity":0.7874015748031497},{"duration":0.06666666666666998,"durationTicks":160,"midi":71,"name":"B4","ticks":94560,"time":38.508568000000004,"velocity":0.7874015748031497},{"duration":0.06666666666666998,"durationTicks":160,"midi":66,"name":"F#4","ticks":94560,"time":38.508568000000004,"velocity":0.7874015748031497},{"duration":0.06666666666666998,"durationTicks":160,"midi":75,"name":"D#5","ticks":94560,"time":38.508568000000004,"velocity":0.7874015748031497},{"duration":0.06666666666666998,"durationTicks":160,"midi":71,"name":"B4","ticks":95520,"time":38.908568,"velocity":0.7874015748031497},{"duration":0.06666666666666998,"durationTicks":160,"midi":66,"name":"F#4","ticks":95520,"time":38.908568,"velocity":0.7874015748031497},{"duration":0.06666666666666998,"durationTicks":160,"midi":75,"name":"D#5","ticks":95520,"time":38.908568,"velocity":0.7874015748031497},{"duration":0.06666666666666998,"durationTicks":160,"midi":71,"name":"B4","ticks":96480,"time":39.308568,"velocity":0.7874015748031497},{"duration":0.06666666666666998,"durationTicks":160,"midi":68,"name":"G#4","ticks":96480,"time":39.308568,"velocity":0.7874015748031497},{"duration":0.06666666666666998,"durationTicks":160,"midi":75,"name":"D#5","ticks":96480,"time":39.308568,"velocity":0.7874015748031497},{"duration":0.06666666666666288,"durationTicks":160,"midi":71,"name":"B4","ticks":97440,"time":39.70856800000001,"velocity":0.7874015748031497},{"duration":0.06666666666666288,"durationTicks":160,"midi":68,"name":"G#4","ticks":97440,"time":39.70856800000001,"velocity":0.7874015748031497},{"duration":0.06666666666666288,"durationTicks":160,"midi":75,"name":"D#5","ticks":97440,"time":39.70856800000001,"velocity":0.7874015748031497},{"duration":0.06666666666666998,"durationTicks":160,"midi":71,"name":"B4","ticks":98400,"time":40.108568000000005,"velocity":0.7874015748031497},{"duration":0.06666666666666998,"durationTicks":160,"midi":68,"name":"G#4","ticks":98400,"time":40.108568000000005,"velocity":0.7874015748031497},{"duration":0.06666666666666998,"durationTicks":160,"midi":75,"name":"D#5","ticks":98400,"time":40.108568000000005,"velocity":0.7874015748031497},{"duration":0.06666666666666998,"durationTicks":160,"midi":71,"name":"B4","ticks":99360,"time":40.508568000000004,"velocity":0.7874015748031497},{"duration":0.06666666666666998,"durationTicks":160,"midi":68,"name":"G#4","ticks":99360,"time":40.508568000000004,"velocity":0.7874015748031497},{"duration":0.06666666666666998,"durationTicks":160,"midi":75,"name":"D#5","ticks":99360,"time":40.508568000000004,"velocity":0.7874015748031497},{"duration":0.06666666666666998,"durationTicks":160,"midi":68,"name":"G#4","ticks":100320,"time":40.908568,"velocity":0.7874015748031497},{"duration":0.06666666666666998,"durationTicks":160,"midi":73,"name":"C#5","ticks":100320,"time":40.908568,"velocity":0.7874015748031497},{"duration":0.06666666666666998,"durationTicks":160,"midi":76,"name":"E5","ticks":100320,"time":40.908568,"velocity":0.7874015748031497},{"duration":0.06666666666666998,"durationTicks":160,"midi":73,"name":"C#5","ticks":101280,"time":41.308568,"velocity":0.7874015748031497},{"duration":0.06666666666666998,"durationTicks":160,"midi":68,"name":"G#4","ticks":101280,"time":41.308568,"velocity":0.7874015748031497},{"duration":0.06666666666666998,"durationTicks":160,"midi":76,"name":"E5","ticks":101280,"time":41.308568,"velocity":0.7874015748031497},{"duration":0.06666666666666288,"durationTicks":160,"midi":73,"name":"C#5","ticks":102240,"time":41.70856800000001,"velocity":0.7874015748031497},{"duration":0.06666666666666288,"durationTicks":160,"midi":68,"name":"G#4","ticks":102240,"time":41.70856800000001,"velocity":0.7874015748031497},{"duration":0.06666666666666288,"durationTicks":160,"midi":76,"name":"E5","ticks":102240,"time":41.70856800000001,"velocity":0.7874015748031497},{"duration":0.06666666666666998,"durationTicks":160,"midi":73,"name":"C#5","ticks":103200,"time":42.108568000000005,"velocity":0.7874015748031497},{"duration":0.06666666666666998,"durationTicks":160,"midi":68,"name":"G#4","ticks":103200,"time":42.108568000000005,"velocity":0.7874015748031497},{"duration":0.06666666666666998,"durationTicks":160,"midi":76,"name":"E5","ticks":103200,"time":42.108568000000005,"velocity":0.7874015748031497},{"duration":0.06666666666666998,"durationTicks":160,"midi":69,"name":"A4","ticks":104160,"time":42.508568000000004,"velocity":0.7874015748031497},{"duration":0.06666666666666998,"durationTicks":160,"midi":66,"name":"F#4","ticks":104160,"time":42.508568000000004,"velocity":0.7874015748031497},{"duration":0.06666666666666998,"durationTicks":160,"midi":73,"name":"C#5","ticks":104160,"time":42.508568000000004,"velocity":0.7874015748031497},{"duration":0.06666666666666998,"durationTicks":160,"midi":69,"name":"A4","ticks":105120,"time":42.908568,"velocity":0.7874015748031497},{"duration":0.06666666666666998,"durationTicks":160,"midi":66,"name":"F#4","ticks":105120,"time":42.908568,"velocity":0.7874015748031497},{"duration":0.06666666666666998,"durationTicks":160,"midi":73,"name":"C#5","ticks":105120,"time":42.908568,"velocity":0.7874015748031497},{"duration":0.06666666666666288,"durationTicks":160,"midi":69,"name":"A4","ticks":106080,"time":43.30856800000001,"velocity":0.7874015748031497},{"duration":0.06666666666666288,"durationTicks":160,"midi":66,"name":"F#4","ticks":106080,"time":43.30856800000001,"velocity":0.7874015748031497},{"duration":0.06666666666666288,"durationTicks":160,"midi":73,"name":"C#5","ticks":106080,"time":43.30856800000001,"velocity":0.7874015748031497},{"duration":0.06666666666666998,"durationTicks":160,"midi":69,"name":"A4","ticks":107040,"time":43.70856800000001,"velocity":0.7874015748031497},{"duration":0.06666666666666998,"durationTicks":160,"midi":66,"name":"F#4","ticks":107040,"time":43.70856800000001,"velocity":0.7874015748031497},{"duration":0.06666666666666998,"durationTicks":160,"midi":73,"name":"C#5","ticks":107040,"time":43.70856800000001,"velocity":0.7874015748031497},{"duration":0.06666666666666998,"durationTicks":160,"midi":71,"name":"B4","ticks":108000,"time":44.108568000000005,"velocity":0.7874015748031497},{"duration":0.06666666666666998,"durationTicks":160,"midi":68,"name":"G#4","ticks":108000,"time":44.108568000000005,"velocity":0.7874015748031497},{"duration":0.06666666666666998,"durationTicks":160,"midi":75,"name":"D#5","ticks":108000,"time":44.108568000000005,"velocity":0.7874015748031497},{"duration":0.06666666666666998,"durationTicks":160,"midi":71,"name":"B4","ticks":108960,"time":44.508568000000004,"velocity":0.7874015748031497},{"duration":0.06666666666666998,"durationTicks":160,"midi":68,"name":"G#4","ticks":108960,"time":44.508568000000004,"velocity":0.7874015748031497},{"duration":0.06666666666666998,"durationTicks":160,"midi":75,"name":"D#5","ticks":108960,"time":44.508568000000004,"velocity":0.7874015748031497},{"duration":0.06666666666666998,"durationTicks":160,"midi":71,"name":"B4","ticks":109920,"time":44.908568,"velocity":0.7874015748031497},{"duration":0.06666666666666998,"durationTicks":160,"midi":68,"name":"G#4","ticks":109920,"time":44.908568,"velocity":0.7874015748031497},{"duration":0.06666666666666998,"durationTicks":160,"midi":75,"name":"D#5","ticks":109920,"time":44.908568,"velocity":0.7874015748031497},{"duration":0.06666666666666288,"durationTicks":160,"midi":71,"name":"B4","ticks":110880,"time":45.30856800000001,"velocity":0.7874015748031497},{"duration":0.06666666666666288,"durationTicks":160,"midi":68,"name":"G#4","ticks":110880,"time":45.30856800000001,"velocity":0.7874015748031497},{"duration":0.06666666666666288,"durationTicks":160,"midi":75,"name":"D#5","ticks":110880,"time":45.30856800000001,"velocity":0.7874015748031497},{"duration":0.06666666666666998,"durationTicks":160,"midi":68,"name":"G#4","ticks":111840,"time":45.70856800000001,"velocity":0.7874015748031497},{"duration":0.06666666666666998,"durationTicks":160,"midi":73,"name":"C#5","ticks":111840,"time":45.70856800000001,"velocity":0.7874015748031497},{"duration":0.06666666666666998,"durationTicks":160,"midi":76,"name":"E5","ticks":111840,"time":45.70856800000001,"velocity":0.7874015748031497},{"duration":0.06666666666666998,"durationTicks":160,"midi":73,"name":"C#5","ticks":112800,"time":46.108568000000005,"velocity":0.7874015748031497},{"duration":0.06666666666666998,"durationTicks":160,"midi":68,"name":"G#4","ticks":112800,"time":46.108568000000005,"velocity":0.7874015748031497},{"duration":0.06666666666666998,"durationTicks":160,"midi":76,"name":"E5","ticks":112800,"time":46.108568000000005,"velocity":0.7874015748031497},{"duration":0.06666666666666998,"durationTicks":160,"midi":73,"name":"C#5","ticks":113760,"time":46.508568000000004,"velocity":0.7874015748031497},{"duration":0.06666666666666998,"durationTicks":160,"midi":68,"name":"G#4","ticks":113760,"time":46.508568000000004,"velocity":0.7874015748031497},{"duration":0.06666666666666998,"durationTicks":160,"midi":76,"name":"E5","ticks":113760,"time":46.508568000000004,"velocity":0.7874015748031497},{"duration":0.06666666666666998,"durationTicks":160,"midi":73,"name":"C#5","ticks":114720,"time":46.908568,"velocity":0.7874015748031497},{"duration":0.06666666666666998,"durationTicks":160,"midi":68,"name":"G#4","ticks":114720,"time":46.908568,"velocity":0.7874015748031497},{"duration":0.06666666666666998,"durationTicks":160,"midi":76,"name":"E5","ticks":114720,"time":46.908568,"velocity":0.7874015748031497},{"duration":0.06666666666666288,"durationTicks":160,"midi":71,"name":"B4","ticks":115680,"time":47.30856800000001,"velocity":0.7874015748031497},{"duration":0.06666666666666288,"durationTicks":160,"midi":66,"name":"F#4","ticks":115680,"time":47.30856800000001,"velocity":0.7874015748031497},{"duration":0.06666666666666288,"durationTicks":160,"midi":75,"name":"D#5","ticks":115680,"time":47.30856800000001,"velocity":0.7874015748031497},{"duration":0.06666666666666998,"durationTicks":160,"midi":71,"name":"B4","ticks":116640,"time":47.70856800000001,"velocity":0.7874015748031497},{"duration":0.06666666666666998,"durationTicks":160,"midi":66,"name":"F#4","ticks":116640,"time":47.70856800000001,"velocity":0.7874015748031497},{"duration":0.06666666666666998,"durationTicks":160,"midi":75,"name":"D#5","ticks":116640,"time":47.70856800000001,"velocity":0.7874015748031497},{"duration":0.06666666666666998,"durationTicks":160,"midi":71,"name":"B4","ticks":117600,"time":48.108568000000005,"velocity":0.7874015748031497},{"duration":0.06666666666666998,"durationTicks":160,"midi":66,"name":"F#4","ticks":117600,"time":48.108568000000005,"velocity":0.7874015748031497},{"duration":0.06666666666666998,"durationTicks":160,"midi":75,"name":"D#5","ticks":117600,"time":48.108568000000005,"velocity":0.7874015748031497},{"duration":0.06666666666666998,"durationTicks":160,"midi":71,"name":"B4","ticks":118560,"time":48.508568000000004,"velocity":0.7874015748031497},{"duration":0.06666666666666998,"durationTicks":160,"midi":66,"name":"F#4","ticks":118560,"time":48.508568000000004,"velocity":0.7874015748031497},{"duration":0.06666666666666998,"durationTicks":160,"midi":75,"name":"D#5","ticks":118560,"time":48.508568000000004,"velocity":0.7874015748031497},{"duration":0.06666666666666998,"durationTicks":160,"midi":69,"name":"A4","ticks":119520,"time":48.908568,"velocity":0.7874015748031497},{"duration":0.06666666666666998,"durationTicks":160,"midi":66,"name":"F#4","ticks":119520,"time":48.908568,"velocity":0.7874015748031497},{"duration":0.06666666666666998,"durationTicks":160,"midi":73,"name":"C#5","ticks":119520,"time":48.908568,"velocity":0.7874015748031497},{"duration":0.06666666666666288,"durationTicks":160,"midi":69,"name":"A4","ticks":120480,"time":49.30856800000001,"velocity":0.7874015748031497},{"duration":0.06666666666666288,"durationTicks":160,"midi":66,"name":"F#4","ticks":120480,"time":49.30856800000001,"velocity":0.7874015748031497},{"duration":0.06666666666666288,"durationTicks":160,"midi":73,"name":"C#5","ticks":120480,"time":49.30856800000001,"velocity":0.7874015748031497},{"duration":0.06666666666666998,"durationTicks":160,"midi":69,"name":"A4","ticks":121440,"time":49.70856800000001,"velocity":0.7874015748031497},{"duration":0.06666666666666998,"durationTicks":160,"midi":66,"name":"F#4","ticks":121440,"time":49.70856800000001,"velocity":0.7874015748031497},{"duration":0.06666666666666998,"durationTicks":160,"midi":73,"name":"C#5","ticks":121440,"time":49.70856800000001,"velocity":0.7874015748031497},{"duration":0.06666666666666998,"durationTicks":160,"midi":69,"name":"A4","ticks":122400,"time":50.108568000000005,"velocity":0.7874015748031497},{"duration":0.06666666666666998,"durationTicks":160,"midi":66,"name":"F#4","ticks":122400,"time":50.108568000000005,"velocity":0.7874015748031497},{"duration":0.06666666666666998,"durationTicks":160,"midi":73,"name":"C#5","ticks":122400,"time":50.108568000000005,"velocity":0.7874015748031497},{"duration":0.06666666666666998,"durationTicks":160,"midi":71,"name":"B4","ticks":123360,"time":50.508568000000004,"velocity":0.7874015748031497},{"duration":0.06666666666666998,"durationTicks":160,"midi":66,"name":"F#4","ticks":123360,"time":50.508568000000004,"velocity":0.7874015748031497},{"duration":0.06666666666666998,"durationTicks":160,"midi":75,"name":"D#5","ticks":123360,"time":50.508568000000004,"velocity":0.7874015748031497},{"duration":0.06666666666666998,"durationTicks":160,"midi":71,"name":"B4","ticks":124320,"time":50.908568,"velocity":0.7874015748031497},{"duration":0.06666666666666998,"durationTicks":160,"midi":66,"name":"F#4","ticks":124320,"time":50.908568,"velocity":0.7874015748031497},{"duration":0.06666666666666998,"durationTicks":160,"midi":75,"name":"D#5","ticks":124320,"time":50.908568,"velocity":0.7874015748031497},{"duration":0.06666666666666288,"durationTicks":160,"midi":71,"name":"B4","ticks":125280,"time":51.30856800000001,"velocity":0.7874015748031497},{"duration":0.06666666666666288,"durationTicks":160,"midi":66,"name":"F#4","ticks":125280,"time":51.30856800000001,"velocity":0.7874015748031497},{"duration":0.06666666666666288,"durationTicks":160,"midi":75,"name":"D#5","ticks":125280,"time":51.30856800000001,"velocity":0.7874015748031497},{"duration":0.06666666666666998,"durationTicks":160,"midi":71,"name":"B4","ticks":126240,"time":51.70856800000001,"velocity":0.7874015748031497},{"duration":0.06666666666666998,"durationTicks":160,"midi":66,"name":"F#4","ticks":126240,"time":51.70856800000001,"velocity":0.7874015748031497},{"duration":0.06666666666666998,"durationTicks":160,"midi":75,"name":"D#5","ticks":126240,"time":51.70856800000001,"velocity":0.7874015748031497},{"duration":0.06666666666666998,"durationTicks":160,"midi":71,"name":"B4","ticks":127200,"time":52.108568000000005,"velocity":0.7874015748031497},{"duration":0.06666666666666998,"durationTicks":160,"midi":68,"name":"G#4","ticks":127200,"time":52.108568000000005,"velocity":0.7874015748031497},{"duration":0.06666666666666998,"durationTicks":160,"midi":75,"name":"D#5","ticks":127200,"time":52.108568000000005,"velocity":0.7874015748031497},{"duration":0.06666666666666998,"durationTicks":160,"midi":71,"name":"B4","ticks":128160,"time":52.508568000000004,"velocity":0.7874015748031497},{"duration":0.06666666666666998,"durationTicks":160,"midi":68,"name":"G#4","ticks":128160,"time":52.508568000000004,"velocity":0.7874015748031497},{"duration":0.06666666666666998,"durationTicks":160,"midi":75,"name":"D#5","ticks":128160,"time":52.508568000000004,"velocity":0.7874015748031497},{"duration":0.06666666666666998,"durationTicks":160,"midi":71,"name":"B4","ticks":129120,"time":52.908568,"velocity":0.7874015748031497},{"duration":0.06666666666666998,"durationTicks":160,"midi":68,"name":"G#4","ticks":129120,"time":52.908568,"velocity":0.7874015748031497},{"duration":0.06666666666666998,"durationTicks":160,"midi":75,"name":"D#5","ticks":129120,"time":52.908568,"velocity":0.7874015748031497},{"duration":0.06666666666666288,"durationTicks":160,"midi":71,"name":"B4","ticks":130080,"time":53.30856800000001,"velocity":0.7874015748031497},{"duration":0.06666666666666288,"durationTicks":160,"midi":68,"name":"G#4","ticks":130080,"time":53.30856800000001,"velocity":0.7874015748031497},{"duration":0.06666666666666288,"durationTicks":160,"midi":75,"name":"D#5","ticks":130080,"time":53.30856800000001,"velocity":0.7874015748031497},{"duration":0.06666666666666998,"durationTicks":160,"midi":68,"name":"G#4","ticks":131040,"time":53.70856800000001,"velocity":0.7874015748031497},{"duration":0.06666666666666998,"durationTicks":160,"midi":73,"name":"C#5","ticks":131040,"time":53.70856800000001,"velocity":0.7874015748031497},{"duration":0.06666666666666998,"durationTicks":160,"midi":76,"name":"E5","ticks":131040,"time":53.70856800000001,"velocity":0.7874015748031497},{"duration":0.06666666666666998,"durationTicks":160,"midi":73,"name":"C#5","ticks":132000,"time":54.108568000000005,"velocity":0.7874015748031497},{"duration":0.06666666666666998,"durationTicks":160,"midi":68,"name":"G#4","ticks":132000,"time":54.108568000000005,"velocity":0.7874015748031497},{"duration":0.06666666666666998,"durationTicks":160,"midi":76,"name":"E5","ticks":132000,"time":54.108568000000005,"velocity":0.7874015748031497},{"duration":0.06666666666666998,"durationTicks":160,"midi":73,"name":"C#5","ticks":132960,"time":54.508568000000004,"velocity":0.7874015748031497},{"duration":0.06666666666666998,"durationTicks":160,"midi":68,"name":"G#4","ticks":132960,"time":54.508568000000004,"velocity":0.7874015748031497},{"duration":0.06666666666666998,"durationTicks":160,"midi":76,"name":"E5","ticks":132960,"time":54.508568000000004,"velocity":0.7874015748031497},{"duration":0.06666666666666998,"durationTicks":160,"midi":73,"name":"C#5","ticks":133920,"time":54.908568,"velocity":0.7874015748031497},{"duration":0.06666666666666998,"durationTicks":160,"midi":68,"name":"G#4","ticks":133920,"time":54.908568,"velocity":0.7874015748031497},{"duration":0.06666666666666998,"durationTicks":160,"midi":76,"name":"E5","ticks":133920,"time":54.908568,"velocity":0.7874015748031497},{"duration":0.06666666666666288,"durationTicks":160,"midi":69,"name":"A4","ticks":134880,"time":55.30856800000001,"velocity":0.7874015748031497},{"duration":0.06666666666666288,"durationTicks":160,"midi":66,"name":"F#4","ticks":134880,"time":55.30856800000001,"velocity":0.7874015748031497},{"duration":0.06666666666666288,"durationTicks":160,"midi":73,"name":"C#5","ticks":134880,"time":55.30856800000001,"velocity":0.7874015748031497},{"duration":0.06666666666666288,"durationTicks":160,"midi":69,"name":"A4","ticks":135840,"time":55.70856800000001,"velocity":0.7874015748031497},{"duration":0.06666666666666288,"durationTicks":160,"midi":66,"name":"F#4","ticks":135840,"time":55.70856800000001,"velocity":0.7874015748031497},{"duration":0.06666666666666288,"durationTicks":160,"midi":73,"name":"C#5","ticks":135840,"time":55.70856800000001,"velocity":0.7874015748031497},{"duration":0.06666666666666288,"durationTicks":160,"midi":69,"name":"A4","ticks":136800,"time":56.108568000000005,"velocity":0.7874015748031497},{"duration":0.06666666666666288,"durationTicks":160,"midi":66,"name":"F#4","ticks":136800,"time":56.108568000000005,"velocity":0.7874015748031497},{"duration":0.06666666666666288,"durationTicks":160,"midi":73,"name":"C#5","ticks":136800,"time":56.108568000000005,"velocity":0.7874015748031497},{"duration":0.06666666666666288,"durationTicks":160,"midi":69,"name":"A4","ticks":137760,"time":56.508568000000004,"velocity":0.7874015748031497},{"duration":0.06666666666666288,"durationTicks":160,"midi":66,"name":"F#4","ticks":137760,"time":56.508568000000004,"velocity":0.7874015748031497},{"duration":0.06666666666666288,"durationTicks":160,"midi":73,"name":"C#5","ticks":137760,"time":56.508568000000004,"velocity":0.7874015748031497},{"duration":0.06666666666666288,"durationTicks":160,"midi":71,"name":"B4","ticks":138720,"time":56.908568,"velocity":0.7874015748031497},{"duration":0.06666666666666288,"durationTicks":160,"midi":68,"name":"G#4","ticks":138720,"time":56.908568,"velocity":0.7874015748031497},{"duration":0.06666666666666288,"durationTicks":160,"midi":75,"name":"D#5","ticks":138720,"time":56.908568,"velocity":0.7874015748031497},{"duration":0.06666666666666288,"durationTicks":160,"midi":71,"name":"B4","ticks":139680,"time":57.30856800000001,"velocity":0.7874015748031497},{"duration":0.06666666666666288,"durationTicks":160,"midi":68,"name":"G#4","ticks":139680,"time":57.30856800000001,"velocity":0.7874015748031497},{"duration":0.06666666666666288,"durationTicks":160,"midi":75,"name":"D#5","ticks":139680,"time":57.30856800000001,"velocity":0.7874015748031497},{"duration":0.06666666666666288,"durationTicks":160,"midi":68,"name":"G#4","ticks":140640,"time":57.70856800000001,"velocity":0.7874015748031497},{"duration":0.06666666666666288,"durationTicks":160,"midi":73,"name":"C#5","ticks":140640,"time":57.70856800000001,"velocity":0.7874015748031497},{"duration":0.06666666666666288,"durationTicks":160,"midi":76,"name":"E5","ticks":140640,"time":57.70856800000001,"velocity":0.7874015748031497},{"duration":0.06666666666666288,"durationTicks":160,"midi":73,"name":"C#5","ticks":141600,"time":58.108568000000005,"velocity":0.7874015748031497},{"duration":0.06666666666666288,"durationTicks":160,"midi":68,"name":"G#4","ticks":141600,"time":58.108568000000005,"velocity":0.7874015748031497},{"duration":0.06666666666666288,"durationTicks":160,"midi":76,"name":"E5","ticks":141600,"time":58.108568000000005,"velocity":0.7874015748031497},{"duration":0.06666666666666288,"durationTicks":160,"midi":68,"name":"G#4","ticks":142560,"time":58.508568000000004,"velocity":0.7874015748031497},{"duration":0.06666666666666288,"durationTicks":160,"midi":73,"name":"C#5","ticks":142560,"time":58.508568000000004,"velocity":0.7874015748031497},{"duration":0.06666666666666288,"durationTicks":160,"midi":76,"name":"E5","ticks":142560,"time":58.508568000000004,"velocity":0.7874015748031497},{"duration":0.06666666666666288,"durationTicks":160,"midi":73,"name":"C#5","ticks":143520,"time":58.908568,"velocity":0.7874015748031497},{"duration":0.06666666666666288,"durationTicks":160,"midi":68,"name":"G#4","ticks":143520,"time":58.908568,"velocity":0.7874015748031497},{"duration":0.06666666666666288,"durationTicks":160,"midi":76,"name":"E5","ticks":143520,"time":58.908568,"velocity":0.7874015748031497},{"duration":0.06666666666666288,"durationTicks":160,"midi":69,"name":"A4","ticks":144480,"time":59.30856800000001,"velocity":0.7874015748031497},{"duration":0.06666666666666288,"durationTicks":160,"midi":66,"name":"F#4","ticks":144480,"time":59.30856800000001,"velocity":0.7874015748031497},{"duration":0.06666666666666288,"durationTicks":160,"midi":73,"name":"C#5","ticks":144480,"time":59.30856800000001,"velocity":0.7874015748031497},{"duration":0.06666666666666288,"durationTicks":160,"midi":69,"name":"A4","ticks":145440,"time":59.70856800000001,"velocity":0.7874015748031497},{"duration":0.06666666666666288,"durationTicks":160,"midi":66,"name":"F#4","ticks":145440,"time":59.70856800000001,"velocity":0.7874015748031497},{"duration":0.06666666666666288,"durationTicks":160,"midi":73,"name":"C#5","ticks":145440,"time":59.70856800000001,"velocity":0.7874015748031497},{"duration":0.06666666666666288,"durationTicks":160,"midi":68,"name":"G#4","ticks":146400,"time":60.108568000000005,"velocity":0.7874015748031497},{"duration":0.06666666666666288,"durationTicks":160,"midi":73,"name":"C#5","ticks":146400,"time":60.108568000000005,"velocity":0.7874015748031497},{"duration":0.06666666666666288,"durationTicks":160,"midi":76,"name":"E5","ticks":146400,"time":60.108568000000005,"velocity":0.7874015748031497},{"duration":0.06666666666666288,"durationTicks":160,"midi":73,"name":"C#5","ticks":147360,"time":60.508568000000004,"velocity":0.7874015748031497},{"duration":0.06666666666666288,"durationTicks":160,"midi":68,"name":"G#4","ticks":147360,"time":60.508568000000004,"velocity":0.7874015748031497},{"duration":0.06666666666666288,"durationTicks":160,"midi":76,"name":"E5","ticks":147360,"time":60.508568000000004,"velocity":0.7874015748031497},{"duration":0.06666666666666288,"durationTicks":160,"midi":71,"name":"B4","ticks":148320,"time":60.908568,"velocity":0.7874015748031497},{"duration":0.06666666666666288,"durationTicks":160,"midi":68,"name":"G#4","ticks":148320,"time":60.908568,"velocity":0.7874015748031497},{"duration":0.06666666666666288,"durationTicks":160,"midi":75,"name":"D#5","ticks":148320,"time":60.908568,"velocity":0.7874015748031497},{"duration":0.06666666666666288,"durationTicks":160,"midi":71,"name":"B4","ticks":149280,"time":61.30856800000001,"velocity":0.7874015748031497},{"duration":0.06666666666666288,"durationTicks":160,"midi":68,"name":"G#4","ticks":149280,"time":61.30856800000001,"velocity":0.7874015748031497},{"duration":0.06666666666666288,"durationTicks":160,"midi":75,"name":"D#5","ticks":149280,"time":61.30856800000001,"velocity":0.7874015748031497},{"duration":0.06666666666667709,"durationTicks":160,"midi":69,"name":"A4","ticks":288480,"time":119.30856800000001,"velocity":0.7874015748031497},{"duration":0.06666666666667709,"durationTicks":160,"midi":66,"name":"F#4","ticks":288480,"time":119.30856800000001,"velocity":0.7874015748031497},{"duration":0.06666666666667709,"durationTicks":160,"midi":73,"name":"C#5","ticks":288480,"time":119.30856800000001,"velocity":0.7874015748031497},{"duration":0.06666666666666288,"durationTicks":160,"midi":69,"name":"A4","ticks":289440,"time":119.70856800000001,"velocity":0.7874015748031497},{"duration":0.06666666666666288,"durationTicks":160,"midi":66,"name":"F#4","ticks":289440,"time":119.70856800000001,"velocity":0.7874015748031497},{"duration":0.06666666666666288,"durationTicks":160,"midi":73,"name":"C#5","ticks":289440,"time":119.70856800000001,"velocity":0.7874015748031497},{"duration":0.06666666666667709,"durationTicks":160,"midi":69,"name":"A4","ticks":290400,"time":120.108568,"velocity":0.7874015748031497},{"duration":0.06666666666667709,"durationTicks":160,"midi":66,"name":"F#4","ticks":290400,"time":120.108568,"velocity":0.7874015748031497},{"duration":0.06666666666667709,"durationTicks":160,"midi":73,"name":"C#5","ticks":290400,"time":120.108568,"velocity":0.7874015748031497},{"duration":0.06666666666667709,"durationTicks":160,"midi":69,"name":"A4","ticks":291360,"time":120.50856800000001,"velocity":0.7874015748031497},{"duration":0.06666666666667709,"durationTicks":160,"midi":66,"name":"F#4","ticks":291360,"time":120.50856800000001,"velocity":0.7874015748031497},{"duration":0.06666666666667709,"durationTicks":160,"midi":73,"name":"C#5","ticks":291360,"time":120.50856800000001,"velocity":0.7874015748031497},{"duration":0.06666666666667709,"durationTicks":160,"midi":71,"name":"B4","ticks":292320,"time":120.908568,"velocity":0.7874015748031497},{"duration":0.06666666666667709,"durationTicks":160,"midi":66,"name":"F#4","ticks":292320,"time":120.908568,"velocity":0.7874015748031497},{"duration":0.06666666666667709,"durationTicks":160,"midi":75,"name":"D#5","ticks":292320,"time":120.908568,"velocity":0.7874015748031497},{"duration":0.06666666666667709,"durationTicks":160,"midi":71,"name":"B4","ticks":293280,"time":121.30856800000001,"velocity":0.7874015748031497},{"duration":0.06666666666667709,"durationTicks":160,"midi":66,"name":"F#4","ticks":293280,"time":121.30856800000001,"velocity":0.7874015748031497},{"duration":0.06666666666667709,"durationTicks":160,"midi":75,"name":"D#5","ticks":293280,"time":121.30856800000001,"velocity":0.7874015748031497},{"duration":0.06666666666666288,"durationTicks":160,"midi":71,"name":"B4","ticks":294240,"time":121.70856800000001,"velocity":0.7874015748031497},{"duration":0.06666666666666288,"durationTicks":160,"midi":66,"name":"F#4","ticks":294240,"time":121.70856800000001,"velocity":0.7874015748031497},{"duration":0.06666666666666288,"durationTicks":160,"midi":75,"name":"D#5","ticks":294240,"time":121.70856800000001,"velocity":0.7874015748031497},{"duration":0.06666666666667709,"durationTicks":160,"midi":71,"name":"B4","ticks":295200,"time":122.108568,"velocity":0.7874015748031497},{"duration":0.06666666666667709,"durationTicks":160,"midi":66,"name":"F#4","ticks":295200,"time":122.108568,"velocity":0.7874015748031497},{"duration":0.06666666666667709,"durationTicks":160,"midi":75,"name":"D#5","ticks":295200,"time":122.108568,"velocity":0.7874015748031497},{"duration":0.06666666666667709,"durationTicks":160,"midi":71,"name":"B4","ticks":296160,"time":122.50856800000001,"velocity":0.7874015748031497},{"duration":0.06666666666667709,"durationTicks":160,"midi":68,"name":"G#4","ticks":296160,"time":122.50856800000001,"velocity":0.7874015748031497},{"duration":0.06666666666667709,"durationTicks":160,"midi":75,"name":"D#5","ticks":296160,"time":122.50856800000001,"velocity":0.7874015748031497},{"duration":0.06666666666667709,"durationTicks":160,"midi":71,"name":"B4","ticks":297120,"time":122.908568,"velocity":0.7874015748031497},{"duration":0.06666666666667709,"durationTicks":160,"midi":68,"name":"G#4","ticks":297120,"time":122.908568,"velocity":0.7874015748031497},{"duration":0.06666666666667709,"durationTicks":160,"midi":75,"name":"D#5","ticks":297120,"time":122.908568,"velocity":0.7874015748031497},{"duration":0.06666666666667709,"durationTicks":160,"midi":71,"name":"B4","ticks":298080,"time":123.30856800000001,"velocity":0.7874015748031497},{"duration":0.06666666666667709,"durationTicks":160,"midi":68,"name":"G#4","ticks":298080,"time":123.30856800000001,"velocity":0.7874015748031497},{"duration":0.06666666666667709,"durationTicks":160,"midi":75,"name":"D#5","ticks":298080,"time":123.30856800000001,"velocity":0.7874015748031497},{"duration":0.06666666666666288,"durationTicks":160,"midi":71,"name":"B4","ticks":299040,"time":123.70856800000001,"velocity":0.7874015748031497},{"duration":0.06666666666666288,"durationTicks":160,"midi":68,"name":"G#4","ticks":299040,"time":123.70856800000001,"velocity":0.7874015748031497},{"duration":0.06666666666666288,"durationTicks":160,"midi":75,"name":"D#5","ticks":299040,"time":123.70856800000001,"velocity":0.7874015748031497},{"duration":0.06666666666667709,"durationTicks":160,"midi":68,"name":"G#4","ticks":300000,"time":124.108568,"velocity":0.7874015748031497},{"duration":0.06666666666667709,"durationTicks":160,"midi":73,"name":"C#5","ticks":300000,"time":124.108568,"velocity":0.7874015748031497},{"duration":0.06666666666667709,"durationTicks":160,"midi":76,"name":"E5","ticks":300000,"time":124.108568,"velocity":0.7874015748031497},{"duration":0.06666666666667709,"durationTicks":160,"midi":73,"name":"C#5","ticks":300960,"time":124.50856800000001,"velocity":0.7874015748031497},{"duration":0.06666666666667709,"durationTicks":160,"midi":68,"name":"G#4","ticks":300960,"time":124.50856800000001,"velocity":0.7874015748031497},{"duration":0.06666666666667709,"durationTicks":160,"midi":76,"name":"E5","ticks":300960,"time":124.50856800000001,"velocity":0.7874015748031497},{"duration":0.06666666666667709,"durationTicks":160,"midi":73,"name":"C#5","ticks":301920,"time":124.908568,"velocity":0.7874015748031497},{"duration":0.06666666666667709,"durationTicks":160,"midi":68,"name":"G#4","ticks":301920,"time":124.908568,"velocity":0.7874015748031497},{"duration":0.06666666666667709,"durationTicks":160,"midi":76,"name":"E5","ticks":301920,"time":124.908568,"velocity":0.7874015748031497},{"duration":0.06666666666667709,"durationTicks":160,"midi":73,"name":"C#5","ticks":302880,"time":125.30856800000001,"velocity":0.7874015748031497},{"duration":0.06666666666667709,"durationTicks":160,"midi":68,"name":"G#4","ticks":302880,"time":125.30856800000001,"velocity":0.7874015748031497},{"duration":0.06666666666667709,"durationTicks":160,"midi":76,"name":"E5","ticks":302880,"time":125.30856800000001,"velocity":0.7874015748031497},{"duration":0.06666666666666288,"durationTicks":160,"midi":69,"name":"A4","ticks":303840,"time":125.70856800000001,"velocity":0.7874015748031497},{"duration":0.06666666666666288,"durationTicks":160,"midi":66,"name":"F#4","ticks":303840,"time":125.70856800000001,"velocity":0.7874015748031497},{"duration":0.06666666666666288,"durationTicks":160,"midi":73,"name":"C#5","ticks":303840,"time":125.70856800000001,"velocity":0.7874015748031497},{"duration":0.06666666666667709,"durationTicks":160,"midi":69,"name":"A4","ticks":304800,"time":126.108568,"velocity":0.7874015748031497},{"duration":0.06666666666667709,"durationTicks":160,"midi":66,"name":"F#4","ticks":304800,"time":126.108568,"velocity":0.7874015748031497},{"duration":0.06666666666667709,"durationTicks":160,"midi":73,"name":"C#5","ticks":304800,"time":126.108568,"velocity":0.7874015748031497},{"duration":0.06666666666667709,"durationTicks":160,"midi":69,"name":"A4","ticks":305760,"time":126.50856800000001,"velocity":0.7874015748031497},{"duration":0.06666666666667709,"durationTicks":160,"midi":66,"name":"F#4","ticks":305760,"time":126.50856800000001,"velocity":0.7874015748031497},{"duration":0.06666666666667709,"durationTicks":160,"midi":73,"name":"C#5","ticks":305760,"time":126.50856800000001,"velocity":0.7874015748031497},{"duration":0.06666666666667709,"durationTicks":160,"midi":69,"name":"A4","ticks":306720,"time":126.908568,"velocity":0.7874015748031497},{"duration":0.06666666666667709,"durationTicks":160,"midi":66,"name":"F#4","ticks":306720,"time":126.908568,"velocity":0.7874015748031497},{"duration":0.06666666666667709,"durationTicks":160,"midi":73,"name":"C#5","ticks":306720,"time":126.908568,"velocity":0.7874015748031497},{"duration":0.06666666666667709,"durationTicks":160,"midi":71,"name":"B4","ticks":307680,"time":127.30856800000001,"velocity":0.7874015748031497},{"duration":0.06666666666667709,"durationTicks":160,"midi":68,"name":"G#4","ticks":307680,"time":127.30856800000001,"velocity":0.7874015748031497},{"duration":0.06666666666667709,"durationTicks":160,"midi":75,"name":"D#5","ticks":307680,"time":127.30856800000001,"velocity":0.7874015748031497},{"duration":0.06666666666666288,"durationTicks":160,"midi":71,"name":"B4","ticks":308640,"time":127.70856800000001,"velocity":0.7874015748031497},{"duration":0.06666666666666288,"durationTicks":160,"midi":68,"name":"G#4","ticks":308640,"time":127.70856800000001,"velocity":0.7874015748031497},{"duration":0.06666666666666288,"durationTicks":160,"midi":75,"name":"D#5","ticks":308640,"time":127.70856800000001,"velocity":0.7874015748031497},{"duration":0.0666666666666913,"durationTicks":160,"midi":71,"name":"B4","ticks":309600,"time":128.108568,"velocity":0.7874015748031497},{"duration":0.0666666666666913,"durationTicks":160,"midi":68,"name":"G#4","ticks":309600,"time":128.108568,"velocity":0.7874015748031497},{"duration":0.0666666666666913,"durationTicks":160,"midi":75,"name":"D#5","ticks":309600,"time":128.108568,"velocity":0.7874015748031497},{"duration":0.0666666666666913,"durationTicks":160,"midi":71,"name":"B4","ticks":310560,"time":128.508568,"velocity":0.7874015748031497},{"duration":0.0666666666666913,"durationTicks":160,"midi":68,"name":"G#4","ticks":310560,"time":128.508568,"velocity":0.7874015748031497},{"duration":0.0666666666666913,"durationTicks":160,"midi":75,"name":"D#5","ticks":310560,"time":128.508568,"velocity":0.7874015748031497},{"duration":0.06666666666666288,"durationTicks":160,"midi":68,"name":"G#4","ticks":311520,"time":128.908568,"velocity":0.7874015748031497},{"duration":0.06666666666666288,"durationTicks":160,"midi":73,"name":"C#5","ticks":311520,"time":128.908568,"velocity":0.7874015748031497},{"duration":0.06666666666666288,"durationTicks":160,"midi":76,"name":"E5","ticks":311520,"time":128.908568,"velocity":0.7874015748031497},{"duration":0.06666666666666288,"durationTicks":160,"midi":73,"name":"C#5","ticks":312480,"time":129.308568,"velocity":0.7874015748031497},{"duration":0.06666666666666288,"durationTicks":160,"midi":68,"name":"G#4","ticks":312480,"time":129.308568,"velocity":0.7874015748031497},{"duration":0.06666666666666288,"durationTicks":160,"midi":76,"name":"E5","ticks":312480,"time":129.308568,"velocity":0.7874015748031497},{"duration":0.06666666666666288,"durationTicks":160,"midi":73,"name":"C#5","ticks":313440,"time":129.708568,"velocity":0.7874015748031497},{"duration":0.06666666666666288,"durationTicks":160,"midi":68,"name":"G#4","ticks":313440,"time":129.708568,"velocity":0.7874015748031497},{"duration":0.06666666666666288,"durationTicks":160,"midi":76,"name":"E5","ticks":313440,"time":129.708568,"velocity":0.7874015748031497},{"duration":0.0666666666666913,"durationTicks":160,"midi":73,"name":"C#5","ticks":314400,"time":130.108568,"velocity":0.7874015748031497},{"duration":0.0666666666666913,"durationTicks":160,"midi":68,"name":"G#4","ticks":314400,"time":130.108568,"velocity":0.7874015748031497},{"duration":0.0666666666666913,"durationTicks":160,"midi":76,"name":"E5","ticks":314400,"time":130.108568,"velocity":0.7874015748031497},{"duration":0.0666666666666913,"durationTicks":160,"midi":71,"name":"B4","ticks":315360,"time":130.508568,"velocity":0.7874015748031497},{"duration":0.0666666666666913,"durationTicks":160,"midi":66,"name":"F#4","ticks":315360,"time":130.508568,"velocity":0.7874015748031497},{"duration":0.0666666666666913,"durationTicks":160,"midi":75,"name":"D#5","ticks":315360,"time":130.508568,"velocity":0.7874015748031497},{"duration":0.06666666666666288,"durationTicks":160,"midi":71,"name":"B4","ticks":316320,"time":130.908568,"velocity":0.7874015748031497},{"duration":0.06666666666666288,"durationTicks":160,"midi":66,"name":"F#4","ticks":316320,"time":130.908568,"velocity":0.7874015748031497},{"duration":0.06666666666666288,"durationTicks":160,"midi":75,"name":"D#5","ticks":316320,"time":130.908568,"velocity":0.7874015748031497},{"duration":0.06666666666666288,"durationTicks":160,"midi":71,"name":"B4","ticks":317280,"time":131.308568,"velocity":0.7874015748031497},{"duration":0.06666666666666288,"durationTicks":160,"midi":66,"name":"F#4","ticks":317280,"time":131.308568,"velocity":0.7874015748031497},{"duration":0.06666666666666288,"durationTicks":160,"midi":75,"name":"D#5","ticks":317280,"time":131.308568,"velocity":0.7874015748031497},{"duration":0.06666666666666288,"durationTicks":160,"midi":71,"name":"B4","ticks":318240,"time":131.708568,"velocity":0.7874015748031497},{"duration":0.06666666666666288,"durationTicks":160,"midi":66,"name":"F#4","ticks":318240,"time":131.708568,"velocity":0.7874015748031497},{"duration":0.06666666666666288,"durationTicks":160,"midi":75,"name":"D#5","ticks":318240,"time":131.708568,"velocity":0.7874015748031497},{"duration":0.06666666666666288,"durationTicks":160,"midi":69,"name":"A4","ticks":319200,"time":132.10856800000002,"velocity":0.7874015748031497},{"duration":0.06666666666666288,"durationTicks":160,"midi":66,"name":"F#4","ticks":319200,"time":132.10856800000002,"velocity":0.7874015748031497},{"duration":0.06666666666666288,"durationTicks":160,"midi":73,"name":"C#5","ticks":319200,"time":132.10856800000002,"velocity":0.7874015748031497},{"duration":0.0666666666666913,"durationTicks":160,"midi":69,"name":"A4","ticks":320160,"time":132.508568,"velocity":0.7874015748031497},{"duration":0.0666666666666913,"durationTicks":160,"midi":66,"name":"F#4","ticks":320160,"time":132.508568,"velocity":0.7874015748031497},{"duration":0.0666666666666913,"durationTicks":160,"midi":73,"name":"C#5","ticks":320160,"time":132.508568,"velocity":0.7874015748031497},{"duration":0.0666666666666913,"durationTicks":160,"midi":69,"name":"A4","ticks":321120,"time":132.908568,"velocity":0.7874015748031497},{"duration":0.0666666666666913,"durationTicks":160,"midi":66,"name":"F#4","ticks":321120,"time":132.908568,"velocity":0.7874015748031497},{"duration":0.0666666666666913,"durationTicks":160,"midi":73,"name":"C#5","ticks":321120,"time":132.908568,"velocity":0.7874015748031497},{"duration":0.06666666666666288,"durationTicks":160,"midi":69,"name":"A4","ticks":322080,"time":133.308568,"velocity":0.7874015748031497},{"duration":0.06666666666666288,"durationTicks":160,"midi":66,"name":"F#4","ticks":322080,"time":133.308568,"velocity":0.7874015748031497},{"duration":0.06666666666666288,"durationTicks":160,"midi":73,"name":"C#5","ticks":322080,"time":133.308568,"velocity":0.7874015748031497},{"duration":0.06666666666666288,"durationTicks":160,"midi":71,"name":"B4","ticks":323040,"time":133.708568,"velocity":0.7874015748031497},{"duration":0.06666666666666288,"durationTicks":160,"midi":66,"name":"F#4","ticks":323040,"time":133.708568,"velocity":0.7874015748031497},{"duration":0.06666666666666288,"durationTicks":160,"midi":75,"name":"D#5","ticks":323040,"time":133.708568,"velocity":0.7874015748031497},{"duration":0.06666666666666288,"durationTicks":160,"midi":71,"name":"B4","ticks":324000,"time":134.10856800000002,"velocity":0.7874015748031497},{"duration":0.06666666666666288,"durationTicks":160,"midi":66,"name":"F#4","ticks":324000,"time":134.10856800000002,"velocity":0.7874015748031497},{"duration":0.06666666666666288,"durationTicks":160,"midi":75,"name":"D#5","ticks":324000,"time":134.10856800000002,"velocity":0.7874015748031497},{"duration":0.0666666666666913,"durationTicks":160,"midi":71,"name":"B4","ticks":324960,"time":134.508568,"velocity":0.7874015748031497},{"duration":0.0666666666666913,"durationTicks":160,"midi":66,"name":"F#4","ticks":324960,"time":134.508568,"velocity":0.7874015748031497},{"duration":0.0666666666666913,"durationTicks":160,"midi":75,"name":"D#5","ticks":324960,"time":134.508568,"velocity":0.7874015748031497},{"duration":0.0666666666666913,"durationTicks":160,"midi":71,"name":"B4","ticks":325920,"time":134.908568,"velocity":0.7874015748031497},{"duration":0.0666666666666913,"durationTicks":160,"midi":66,"name":"F#4","ticks":325920,"time":134.908568,"velocity":0.7874015748031497},{"duration":0.0666666666666913,"durationTicks":160,"midi":75,"name":"D#5","ticks":325920,"time":134.908568,"velocity":0.7874015748031497},{"duration":0.06666666666666288,"durationTicks":160,"midi":71,"name":"B4","ticks":326880,"time":135.308568,"velocity":0.7874015748031497},{"duration":0.06666666666666288,"durationTicks":160,"midi":68,"name":"G#4","ticks":326880,"time":135.308568,"velocity":0.7874015748031497},{"duration":0.06666666666666288,"durationTicks":160,"midi":75,"name":"D#5","ticks":326880,"time":135.308568,"velocity":0.7874015748031497},{"duration":0.06666666666666288,"durationTicks":160,"midi":71,"name":"B4","ticks":327840,"time":135.708568,"velocity":0.7874015748031497},{"duration":0.06666666666666288,"durationTicks":160,"midi":68,"name":"G#4","ticks":327840,"time":135.708568,"velocity":0.7874015748031497},{"duration":0.06666666666666288,"durationTicks":160,"midi":75,"name":"D#5","ticks":327840,"time":135.708568,"velocity":0.7874015748031497},{"duration":0.06666666666666288,"durationTicks":160,"midi":71,"name":"B4","ticks":328800,"time":136.10856800000002,"velocity":0.7874015748031497},{"duration":0.06666666666666288,"durationTicks":160,"midi":68,"name":"G#4","ticks":328800,"time":136.10856800000002,"velocity":0.7874015748031497},{"duration":0.06666666666666288,"durationTicks":160,"midi":75,"name":"D#5","ticks":328800,"time":136.10856800000002,"velocity":0.7874015748031497},{"duration":0.0666666666666913,"durationTicks":160,"midi":71,"name":"B4","ticks":329760,"time":136.508568,"velocity":0.7874015748031497},{"duration":0.0666666666666913,"durationTicks":160,"midi":68,"name":"G#4","ticks":329760,"time":136.508568,"velocity":0.7874015748031497},{"duration":0.0666666666666913,"durationTicks":160,"midi":75,"name":"D#5","ticks":329760,"time":136.508568,"velocity":0.7874015748031497},{"duration":0.0666666666666913,"durationTicks":160,"midi":68,"name":"G#4","ticks":330720,"time":136.908568,"velocity":0.7874015748031497},{"duration":0.0666666666666913,"durationTicks":160,"midi":73,"name":"C#5","ticks":330720,"time":136.908568,"velocity":0.7874015748031497},{"duration":0.0666666666666913,"durationTicks":160,"midi":76,"name":"E5","ticks":330720,"time":136.908568,"velocity":0.7874015748031497},{"duration":0.06666666666666288,"durationTicks":160,"midi":73,"name":"C#5","ticks":331680,"time":137.308568,"velocity":0.7874015748031497},{"duration":0.06666666666666288,"durationTicks":160,"midi":68,"name":"G#4","ticks":331680,"time":137.308568,"velocity":0.7874015748031497},{"duration":0.06666666666666288,"durationTicks":160,"midi":76,"name":"E5","ticks":331680,"time":137.308568,"velocity":0.7874015748031497},{"duration":0.06666666666666288,"durationTicks":160,"midi":73,"name":"C#5","ticks":332640,"time":137.708568,"velocity":0.7874015748031497},{"duration":0.06666666666666288,"durationTicks":160,"midi":68,"name":"G#4","ticks":332640,"time":137.708568,"velocity":0.7874015748031497},{"duration":0.06666666666666288,"durationTicks":160,"midi":76,"name":"E5","ticks":332640,"time":137.708568,"velocity":0.7874015748031497},{"duration":0.06666666666666288,"durationTicks":160,"midi":73,"name":"C#5","ticks":333600,"time":138.10856800000002,"velocity":0.7874015748031497},{"duration":0.06666666666666288,"durationTicks":160,"midi":68,"name":"G#4","ticks":333600,"time":138.10856800000002,"velocity":0.7874015748031497},{"duration":0.06666666666666288,"durationTicks":160,"midi":76,"name":"E5","ticks":333600,"time":138.10856800000002,"velocity":0.7874015748031497},{"duration":0.0666666666666913,"durationTicks":160,"midi":69,"name":"A4","ticks":334560,"time":138.508568,"velocity":0.7874015748031497},{"duration":0.0666666666666913,"durationTicks":160,"midi":66,"name":"F#4","ticks":334560,"time":138.508568,"velocity":0.7874015748031497},{"duration":0.0666666666666913,"durationTicks":160,"midi":73,"name":"C#5","ticks":334560,"time":138.508568,"velocity":0.7874015748031497},{"duration":0.0666666666666913,"durationTicks":160,"midi":69,"name":"A4","ticks":335520,"time":138.908568,"velocity":0.7874015748031497},{"duration":0.0666666666666913,"durationTicks":160,"midi":66,"name":"F#4","ticks":335520,"time":138.908568,"velocity":0.7874015748031497},{"duration":0.0666666666666913,"durationTicks":160,"midi":73,"name":"C#5","ticks":335520,"time":138.908568,"velocity":0.7874015748031497},{"duration":0.06666666666666288,"durationTicks":160,"midi":69,"name":"A4","ticks":336480,"time":139.308568,"velocity":0.7874015748031497},{"duration":0.06666666666666288,"durationTicks":160,"midi":66,"name":"F#4","ticks":336480,"time":139.308568,"velocity":0.7874015748031497},{"duration":0.06666666666666288,"durationTicks":160,"midi":73,"name":"C#5","ticks":336480,"time":139.308568,"velocity":0.7874015748031497},{"duration":0.06666666666666288,"durationTicks":160,"midi":69,"name":"A4","ticks":337440,"time":139.708568,"velocity":0.7874015748031497},{"duration":0.06666666666666288,"durationTicks":160,"midi":66,"name":"F#4","ticks":337440,"time":139.708568,"velocity":0.7874015748031497},{"duration":0.06666666666666288,"durationTicks":160,"midi":73,"name":"C#5","ticks":337440,"time":139.708568,"velocity":0.7874015748031497},{"duration":0.06666666666666288,"durationTicks":160,"midi":71,"name":"B4","ticks":338400,"time":140.10856800000002,"velocity":0.7874015748031497},{"duration":0.06666666666666288,"durationTicks":160,"midi":68,"name":"G#4","ticks":338400,"time":140.10856800000002,"velocity":0.7874015748031497},{"duration":0.06666666666666288,"durationTicks":160,"midi":75,"name":"D#5","ticks":338400,"time":140.10856800000002,"velocity":0.7874015748031497},{"duration":0.0666666666666913,"durationTicks":160,"midi":71,"name":"B4","ticks":339360,"time":140.508568,"velocity":0.7874015748031497},{"duration":0.0666666666666913,"durationTicks":160,"midi":68,"name":"G#4","ticks":339360,"time":140.508568,"velocity":0.7874015748031497},{"duration":0.0666666666666913,"durationTicks":160,"midi":75,"name":"D#5","ticks":339360,"time":140.508568,"velocity":0.7874015748031497},{"duration":0.0666666666666913,"durationTicks":160,"midi":68,"name":"G#4","ticks":340320,"time":140.908568,"velocity":0.7874015748031497},{"duration":0.0666666666666913,"durationTicks":160,"midi":73,"name":"C#5","ticks":340320,"time":140.908568,"velocity":0.7874015748031497},{"duration":0.0666666666666913,"durationTicks":160,"midi":76,"name":"E5","ticks":340320,"time":140.908568,"velocity":0.7874015748031497},{"duration":0.06666666666666288,"durationTicks":160,"midi":73,"name":"C#5","ticks":341280,"time":141.308568,"velocity":0.7874015748031497},{"duration":0.06666666666666288,"durationTicks":160,"midi":68,"name":"G#4","ticks":341280,"time":141.308568,"velocity":0.7874015748031497},{"duration":0.06666666666666288,"durationTicks":160,"midi":76,"name":"E5","ticks":341280,"time":141.308568,"velocity":0.7874015748031497},{"duration":0.06666666666666288,"durationTicks":160,"midi":68,"name":"G#4","ticks":342240,"time":141.708568,"velocity":0.7874015748031497},{"duration":0.06666666666666288,"durationTicks":160,"midi":73,"name":"C#5","ticks":342240,"time":141.708568,"velocity":0.7874015748031497},{"duration":0.06666666666666288,"durationTicks":160,"midi":76,"name":"E5","ticks":342240,"time":141.708568,"velocity":0.7874015748031497},{"duration":0.06666666666666288,"durationTicks":160,"midi":73,"name":"C#5","ticks":343200,"time":142.10856800000002,"velocity":0.7874015748031497},{"duration":0.06666666666666288,"durationTicks":160,"midi":68,"name":"G#4","ticks":343200,"time":142.10856800000002,"velocity":0.7874015748031497},{"duration":0.06666666666666288,"durationTicks":160,"midi":76,"name":"E5","ticks":343200,"time":142.10856800000002,"velocity":0.7874015748031497},{"duration":0.0666666666666913,"durationTicks":160,"midi":69,"name":"A4","ticks":344160,"time":142.508568,"velocity":0.7874015748031497},{"duration":0.0666666666666913,"durationTicks":160,"midi":66,"name":"F#4","ticks":344160,"time":142.508568,"velocity":0.7874015748031497},{"duration":0.0666666666666913,"durationTicks":160,"midi":73,"name":"C#5","ticks":344160,"time":142.508568,"velocity":0.7874015748031497},{"duration":0.0666666666666913,"durationTicks":160,"midi":69,"name":"A4","ticks":345120,"time":142.908568,"velocity":0.7874015748031497},{"duration":0.0666666666666913,"durationTicks":160,"midi":66,"name":"F#4","ticks":345120,"time":142.908568,"velocity":0.7874015748031497},{"duration":0.0666666666666913,"durationTicks":160,"midi":73,"name":"C#5","ticks":345120,"time":142.908568,"velocity":0.7874015748031497},{"duration":0.06666666666666288,"durationTicks":160,"midi":68,"name":"G#4","ticks":346080,"time":143.308568,"velocity":0.7874015748031497},{"duration":0.06666666666666288,"durationTicks":160,"midi":73,"name":"C#5","ticks":346080,"time":143.308568,"velocity":0.7874015748031497},{"duration":0.06666666666666288,"durationTicks":160,"midi":76,"name":"E5","ticks":346080,"time":143.308568,"velocity":0.7874015748031497},{"duration":0.06666666666666288,"durationTicks":160,"midi":73,"name":"C#5","ticks":347040,"time":143.708568,"velocity":0.7874015748031497},{"duration":0.06666666666666288,"durationTicks":160,"midi":68,"name":"G#4","ticks":347040,"time":143.708568,"velocity":0.7874015748031497},{"duration":0.06666666666666288,"durationTicks":160,"midi":76,"name":"E5","ticks":347040,"time":143.708568,"velocity":0.7874015748031497},{"duration":0.06666666666666288,"durationTicks":160,"midi":71,"name":"B4","ticks":348000,"time":144.10856800000002,"velocity":0.7874015748031497},{"duration":0.06666666666666288,"durationTicks":160,"midi":68,"name":"G#4","ticks":348000,"time":144.10856800000002,"velocity":0.7874015748031497},{"duration":0.06666666666666288,"durationTicks":160,"midi":75,"name":"D#5","ticks":348000,"time":144.10856800000002,"velocity":0.7874015748031497},{"duration":0.0666666666666913,"durationTicks":160,"midi":71,"name":"B4","ticks":348960,"time":144.508568,"velocity":0.7874015748031497},{"duration":0.0666666666666913,"durationTicks":160,"midi":68,"name":"G#4","ticks":348960,"time":144.508568,"velocity":0.7874015748031497},{"duration":0.0666666666666913,"durationTicks":160,"midi":75,"name":"D#5","ticks":348960,"time":144.508568,"velocity":0.7874015748031497}]},{"channel":5,"controlChanges":{"1":[{"number":1,"ticks":111360,"time":45.508568000000004,"value":1}],"7":[{"number":7,"ticks":111360,"time":45.508568000000004,"value":0.7480314960629921}]},"pitchBends":[],"instrument":{"family":"synth lead","number":82,"name":"lead 3 (calliope)"},"name":"","notes":[{"duration":0.4000000000000057,"durationTicks":960,"midi":71,"name":"B4","ticks":112320,"time":45.908568,"velocity":0.7874015748031497},{"duration":0.3999999999999986,"durationTicks":960,"midi":75,"name":"D#5","ticks":113280,"time":46.30856800000001,"velocity":0.7874015748031497},{"duration":0.3999999999999986,"durationTicks":960,"midi":76,"name":"E5","ticks":114240,"time":46.70856800000001,"velocity":0.7874015748031497},{"duration":0.7999999999999972,"durationTicks":1920,"midi":78,"name":"F#5","ticks":115200,"time":47.108568000000005,"velocity":0.7874015748031497},{"duration":0.8000000000000043,"durationTicks":1920,"midi":80,"name":"G#5","ticks":117120,"time":47.908568,"velocity":0.7874015748031497},{"duration":1.6000000000000014,"durationTicks":3840,"midi":73,"name":"C#5","ticks":119040,"time":48.70856800000001,"velocity":0.7874015748031497},{"duration":1.6000000000000014,"durationTicks":3840,"midi":69,"name":"A4","ticks":119040,"time":48.70856800000001,"velocity":0.7874015748031497},{"duration":1.1999999999999957,"durationTicks":2880,"midi":75,"name":"D#5","ticks":122880,"time":50.30856800000001,"velocity":0.7874015748031497},{"duration":1.1999999999999957,"durationTicks":2880,"midi":71,"name":"B4","ticks":122880,"time":50.30856800000001,"velocity":0.7874015748031497},{"duration":0.3999999999999986,"durationTicks":960,"midi":76,"name":"E5","ticks":125760,"time":51.508568000000004,"velocity":0.7874015748031497},{"duration":0.3999999999999986,"durationTicks":960,"midi":69,"name":"A4","ticks":125760,"time":51.508568000000004,"velocity":0.7874015748031497},{"duration":0.8000000000000043,"durationTicks":1920,"midi":78,"name":"F#5","ticks":126720,"time":51.908568,"velocity":0.7874015748031497},{"duration":0.8000000000000043,"durationTicks":1920,"midi":68,"name":"G#4","ticks":126720,"time":51.908568,"velocity":0.7874015748031497},{"duration":0.7999999999999972,"durationTicks":1920,"midi":83,"name":"B5","ticks":128640,"time":52.70856800000001,"velocity":0.7874015748031497},{"duration":0.7999999999999972,"durationTicks":1920,"midi":75,"name":"D#5","ticks":128640,"time":52.70856800000001,"velocity":0.7874015748031497},{"duration":0.8000000000000043,"durationTicks":1920,"midi":80,"name":"G#5","ticks":130560,"time":53.508568000000004,"velocity":0.7874015748031497},{"duration":0.8000000000000043,"durationTicks":1920,"midi":71,"name":"B4","ticks":130560,"time":53.508568000000004,"velocity":0.7874015748031497},{"duration":0.7999999999999972,"durationTicks":1920,"midi":85,"name":"C#6","ticks":132480,"time":54.30856800000001,"velocity":0.7874015748031497},{"duration":0.7999999999999972,"durationTicks":1920,"midi":76,"name":"E5","ticks":132480,"time":54.30856800000001,"velocity":0.7874015748031497},{"duration":1.6000000000000014,"durationTicks":3840,"midi":81,"name":"A5","ticks":134400,"time":55.108568000000005,"velocity":0.7874015748031497},{"duration":1.6000000000000014,"durationTicks":3840,"midi":73,"name":"C#5","ticks":134400,"time":55.108568000000005,"velocity":0.7874015748031497},{"duration":1.6000000000000014,"durationTicks":3840,"midi":78,"name":"F#5","ticks":134400,"time":55.108568000000005,"velocity":0.7874015748031497},{"duration":0.7999999999999972,"durationTicks":1920,"midi":75,"name":"D#5","ticks":138240,"time":56.70856800000001,"velocity":0.7874015748031497},{"duration":0.7999999999999972,"durationTicks":1920,"midi":83,"name":"B5","ticks":138240,"time":56.70856800000001,"velocity":0.7874015748031497},{"duration":0.7999999999999972,"durationTicks":1920,"midi":80,"name":"G#5","ticks":138240,"time":56.70856800000001,"velocity":0.7874015748031497},{"duration":0.8000000000000043,"durationTicks":1920,"midi":85,"name":"C#6","ticks":140160,"time":57.508568000000004,"velocity":0.7874015748031497},{"duration":0.8000000000000043,"durationTicks":1920,"midi":76,"name":"E5","ticks":140160,"time":57.508568000000004,"velocity":0.7874015748031497},{"duration":0.8000000000000043,"durationTicks":1920,"midi":80,"name":"G#5","ticks":140160,"time":57.508568000000004,"velocity":0.7874015748031497},{"duration":1.5999999999999943,"durationTicks":3840,"midi":81,"name":"A5","ticks":142080,"time":58.30856800000001,"velocity":0.7874015748031497},{"duration":1.5999999999999943,"durationTicks":3840,"midi":73,"name":"C#5","ticks":142080,"time":58.30856800000001,"velocity":0.7874015748031497},{"duration":1.5999999999999943,"durationTicks":3840,"midi":78,"name":"F#5","ticks":142080,"time":58.30856800000001,"velocity":0.7874015748031497},{"duration":0.8000000000000043,"durationTicks":1920,"midi":85,"name":"C#6","ticks":145920,"time":59.908568,"velocity":0.7874015748031497},{"duration":0.8000000000000043,"durationTicks":1920,"midi":76,"name":"E5","ticks":145920,"time":59.908568,"velocity":0.7874015748031497},{"duration":0.8000000000000043,"durationTicks":1920,"midi":80,"name":"G#5","ticks":145920,"time":59.908568,"velocity":0.7874015748031497},{"duration":0.7833333333333385,"durationTicks":1880,"midi":84,"name":"C6","ticks":147840,"time":60.70856800000001,"velocity":0.7874015748031497},{"duration":0.7833333333333385,"durationTicks":1880,"midi":75,"name":"D#5","ticks":147840,"time":60.70856800000001,"velocity":0.7874015748031497},{"duration":0.7833333333333385,"durationTicks":1880,"midi":80,"name":"G#5","ticks":147840,"time":60.70856800000001,"velocity":0.7874015748031497},{"duration":0.4000000000000057,"durationTicks":960,"midi":71,"name":"B4","ticks":312000,"time":129.108568,"velocity":0.7874015748031497},{"duration":0.4000000000000057,"durationTicks":960,"midi":75,"name":"D#5","ticks":312960,"time":129.508568,"velocity":0.7874015748031497},{"duration":0.4000000000000057,"durationTicks":960,"midi":76,"name":"E5","ticks":313920,"time":129.908568,"velocity":0.7874015748031497},{"duration":0.799999999999983,"durationTicks":1920,"midi":78,"name":"F#5","ticks":314880,"time":130.308568,"velocity":0.7874015748031497},{"duration":0.8000000000000114,"durationTicks":1920,"midi":80,"name":"G#5","ticks":316800,"time":131.108568,"velocity":0.7874015748031497},{"duration":1.5999999999999943,"durationTicks":3840,"midi":73,"name":"C#5","ticks":318720,"time":131.908568,"velocity":0.7874015748031497},{"duration":1.5999999999999943,"durationTicks":3840,"midi":69,"name":"A4","ticks":318720,"time":131.908568,"velocity":0.7874015748031497},{"duration":1.200000000000017,"durationTicks":2880,"midi":75,"name":"D#5","ticks":322560,"time":133.508568,"velocity":0.7874015748031497},{"duration":1.200000000000017,"durationTicks":2880,"midi":71,"name":"B4","ticks":322560,"time":133.508568,"velocity":0.7874015748031497},{"duration":0.4000000000000057,"durationTicks":960,"midi":76,"name":"E5","ticks":325440,"time":134.708568,"velocity":0.7874015748031497},{"duration":0.4000000000000057,"durationTicks":960,"midi":69,"name":"A4","ticks":325440,"time":134.708568,"velocity":0.7874015748031497},{"duration":0.799999999999983,"durationTicks":1920,"midi":78,"name":"F#5","ticks":326400,"time":135.10856800000002,"velocity":0.7874015748031497},{"duration":0.799999999999983,"durationTicks":1920,"midi":68,"name":"G#4","ticks":326400,"time":135.10856800000002,"velocity":0.7874015748031497},{"duration":0.8000000000000114,"durationTicks":1920,"midi":83,"name":"B5","ticks":328320,"time":135.908568,"velocity":0.7874015748031497},{"duration":0.8000000000000114,"durationTicks":1920,"midi":75,"name":"D#5","ticks":328320,"time":135.908568,"velocity":0.7874015748031497},{"duration":0.799999999999983,"durationTicks":1920,"midi":80,"name":"G#5","ticks":330240,"time":136.708568,"velocity":0.7874015748031497},{"duration":0.799999999999983,"durationTicks":1920,"midi":71,"name":"B4","ticks":330240,"time":136.708568,"velocity":0.7874015748031497},{"duration":0.8000000000000114,"durationTicks":1920,"midi":85,"name":"C#6","ticks":332160,"time":137.508568,"velocity":0.7874015748031497},{"duration":0.8000000000000114,"durationTicks":1920,"midi":76,"name":"E5","ticks":332160,"time":137.508568,"velocity":0.7874015748031497},{"duration":1.5999999999999943,"durationTicks":3840,"midi":81,"name":"A5","ticks":334080,"time":138.308568,"velocity":0.7874015748031497},{"duration":1.5999999999999943,"durationTicks":3840,"midi":73,"name":"C#5","ticks":334080,"time":138.308568,"velocity":0.7874015748031497},{"duration":1.5999999999999943,"durationTicks":3840,"midi":78,"name":"F#5","ticks":334080,"time":138.308568,"velocity":0.7874015748031497},{"duration":0.8000000000000114,"durationTicks":1920,"midi":75,"name":"D#5","ticks":337920,"time":139.908568,"velocity":0.7874015748031497},{"duration":0.8000000000000114,"durationTicks":1920,"midi":83,"name":"B5","ticks":337920,"time":139.908568,"velocity":0.7874015748031497},{"duration":0.8000000000000114,"durationTicks":1920,"midi":80,"name":"G#5","ticks":337920,"time":139.908568,"velocity":0.7874015748031497},{"duration":0.799999999999983,"durationTicks":1920,"midi":85,"name":"C#6","ticks":339840,"time":140.708568,"velocity":0.7874015748031497},{"duration":0.799999999999983,"durationTicks":1920,"midi":76,"name":"E5","ticks":339840,"time":140.708568,"velocity":0.7874015748031497},{"duration":0.799999999999983,"durationTicks":1920,"midi":80,"name":"G#5","ticks":339840,"time":140.708568,"velocity":0.7874015748031497},{"duration":1.6000000000000227,"durationTicks":3840,"midi":81,"name":"A5","ticks":341760,"time":141.508568,"velocity":0.7874015748031497},{"duration":1.6000000000000227,"durationTicks":3840,"midi":73,"name":"C#5","ticks":341760,"time":141.508568,"velocity":0.7874015748031497},{"duration":1.6000000000000227,"durationTicks":3840,"midi":78,"name":"F#5","ticks":341760,"time":141.508568,"velocity":0.7874015748031497},{"duration":0.799999999999983,"durationTicks":1920,"midi":85,"name":"C#6","ticks":345600,"time":143.10856800000002,"velocity":0.7874015748031497},{"duration":0.799999999999983,"durationTicks":1920,"midi":76,"name":"E5","ticks":345600,"time":143.10856800000002,"velocity":0.7874015748031497},{"duration":0.799999999999983,"durationTicks":1920,"midi":80,"name":"G#5","ticks":345600,"time":143.10856800000002,"velocity":0.7874015748031497},{"duration":0.7833333333333314,"durationTicks":1880,"midi":84,"name":"C6","ticks":347520,"time":143.908568,"velocity":0.7874015748031497},{"duration":0.7833333333333314,"durationTicks":1880,"midi":75,"name":"D#5","ticks":347520,"time":143.908568,"velocity":0.7874015748031497},{"duration":0.7833333333333314,"durationTicks":1880,"midi":80,"name":"G#5","ticks":347520,"time":143.908568,"velocity":0.7874015748031497}]},{"channel":5,"controlChanges":{},"pitchBends":[],"instrument":{"family":"brass","number":62,"name":"synthbrass 1"},"name":"","notes":[{"duration":0.8000000000000043,"durationTicks":1920,"midi":83,"name":"B5","ticks":149760,"time":61.508568000000004,"velocity":0.7874015748031497},{"duration":0.8000000000000043,"durationTicks":1920,"midi":79,"name":"G5","ticks":149760,"time":61.508568000000004,"velocity":0.7874015748031497},{"duration":0.8000000000000043,"durationTicks":1920,"midi":76,"name":"E5","ticks":149760,"time":61.508568000000004,"velocity":0.7874015748031497},{"duration":0.7999999999999972,"durationTicks":1920,"midi":84,"name":"C6","ticks":151680,"time":62.30856800000001,"velocity":0.7874015748031497},{"duration":0.7999999999999972,"durationTicks":1920,"midi":79,"name":"G5","ticks":151680,"time":62.30856800000001,"velocity":0.7874015748031497},{"duration":0.7999999999999972,"durationTicks":1920,"midi":76,"name":"E5","ticks":151680,"time":62.30856800000001,"velocity":0.7874015748031497},{"duration":0.7999999999999972,"durationTicks":1920,"midi":76,"name":"E5","ticks":153600,"time":63.108568000000005,"velocity":0.7874015748031497},{"duration":0.7999999999999972,"durationTicks":1920,"midi":81,"name":"A5","ticks":153600,"time":63.108568000000005,"velocity":0.7874015748031497},{"duration":0.7999999999999972,"durationTicks":1920,"midi":84,"name":"C6","ticks":153600,"time":63.108568000000005,"velocity":0.7874015748031497},{"duration":0.7999999999999972,"durationTicks":1920,"midi":83,"name":"B5","ticks":155520,"time":63.908568,"velocity":0.7874015748031497},{"duration":0.7999999999999972,"durationTicks":1920,"midi":76,"name":"E5","ticks":155520,"time":63.908568,"velocity":0.7874015748031497},{"duration":0.7999999999999972,"durationTicks":1920,"midi":79,"name":"G5","ticks":155520,"time":63.908568,"velocity":0.7874015748031497},{"duration":0.7999999999999972,"durationTicks":1920,"midi":80,"name":"G#5","ticks":157440,"time":64.708568,"velocity":0.7874015748031497},{"duration":0.7999999999999972,"durationTicks":1920,"midi":76,"name":"E5","ticks":157440,"time":64.708568,"velocity":0.7874015748031497},{"duration":0.7999999999999972,"durationTicks":1920,"midi":73,"name":"C#5","ticks":157440,"time":64.708568,"velocity":0.7874015748031497},{"duration":0.8000000000000114,"durationTicks":1920,"midi":76,"name":"E5","ticks":159360,"time":65.508568,"velocity":0.7874015748031497},{"duration":0.8000000000000114,"durationTicks":1920,"midi":80,"name":"G#5","ticks":159360,"time":65.508568,"velocity":0.7874015748031497},{"duration":0.8000000000000114,"durationTicks":1920,"midi":73,"name":"C#5","ticks":159360,"time":65.508568,"velocity":0.7874015748031497},{"duration":0.7999999999999972,"durationTicks":1920,"midi":83,"name":"B5","ticks":161280,"time":66.30856800000001,"velocity":0.7874015748031497},{"duration":0.7999999999999972,"durationTicks":1920,"midi":79,"name":"G5","ticks":161280,"time":66.30856800000001,"velocity":0.7874015748031497},{"duration":0.7999999999999972,"durationTicks":1920,"midi":76,"name":"E5","ticks":161280,"time":66.30856800000001,"velocity":0.7874015748031497},{"duration":0.7999999999999972,"durationTicks":1920,"midi":81,"name":"A5","ticks":163200,"time":67.108568,"velocity":0.7874015748031497},{"duration":0.7999999999999972,"durationTicks":1920,"midi":78,"name":"F#5","ticks":163200,"time":67.108568,"velocity":0.7874015748031497},{"duration":0.7999999999999972,"durationTicks":1920,"midi":74,"name":"D5","ticks":163200,"time":67.108568,"velocity":0.7874015748031497},{"duration":0.7999999999999972,"durationTicks":1920,"midi":83,"name":"B5","ticks":165120,"time":67.908568,"velocity":0.7874015748031497},{"duration":0.7999999999999972,"durationTicks":1920,"midi":79,"name":"G5","ticks":165120,"time":67.908568,"velocity":0.7874015748031497},{"duration":0.7999999999999972,"durationTicks":1920,"midi":76,"name":"E5","ticks":165120,"time":67.908568,"velocity":0.7874015748031497},{"duration":0.8000000000000114,"durationTicks":1920,"midi":76,"name":"E5","ticks":167040,"time":68.708568,"velocity":0.7874015748031497},{"duration":0.8000000000000114,"durationTicks":1920,"midi":79,"name":"G5","ticks":167040,"time":68.708568,"velocity":0.7874015748031497},{"duration":0.8000000000000114,"durationTicks":1920,"midi":84,"name":"C6","ticks":167040,"time":68.708568,"velocity":0.7874015748031497},{"duration":0.7999999999999972,"durationTicks":1920,"midi":76,"name":"E5","ticks":168960,"time":69.50856800000001,"velocity":0.7874015748031497},{"duration":0.7999999999999972,"durationTicks":1920,"midi":81,"name":"A5","ticks":168960,"time":69.50856800000001,"velocity":0.7874015748031497},{"duration":0.7999999999999972,"durationTicks":1920,"midi":84,"name":"C6","ticks":168960,"time":69.50856800000001,"velocity":0.7874015748031497},{"duration":0.7999999999999972,"durationTicks":1920,"midi":83,"name":"B5","ticks":170880,"time":70.30856800000001,"velocity":0.7874015748031497},{"duration":0.7999999999999972,"durationTicks":1920,"midi":79,"name":"G5","ticks":170880,"time":70.30856800000001,"velocity":0.7874015748031497},{"duration":0.7999999999999972,"durationTicks":1920,"midi":76,"name":"E5","ticks":170880,"time":70.30856800000001,"velocity":0.7874015748031497},{"duration":0.7999999999999972,"durationTicks":1920,"midi":76,"name":"E5","ticks":172800,"time":71.108568,"velocity":0.7874015748031497},{"duration":0.7999999999999972,"durationTicks":1920,"midi":79,"name":"G5","ticks":172800,"time":71.108568,"velocity":0.7874015748031497},{"duration":0.7999999999999972,"durationTicks":1920,"midi":83,"name":"B5","ticks":172800,"time":71.108568,"velocity":0.7874015748031497},{"duration":0.7999999999999972,"durationTicks":1920,"midi":86,"name":"D6","ticks":174720,"time":71.908568,"velocity":0.7874015748031497},{"duration":0.7999999999999972,"durationTicks":1920,"midi":78,"name":"F#5","ticks":174720,"time":71.908568,"velocity":0.7874015748031497},{"duration":0.7999999999999972,"durationTicks":1920,"midi":81,"name":"A5","ticks":174720,"time":71.908568,"velocity":0.7874015748031497},{"duration":0.4000000000000057,"durationTicks":960,"midi":83,"name":"B5","ticks":176640,"time":72.708568,"velocity":0.7874015748031497},{"duration":0.4000000000000057,"durationTicks":960,"midi":74,"name":"D5","ticks":176640,"time":72.708568,"velocity":0.7874015748031497},{"duration":0.4000000000000057,"durationTicks":960,"midi":78,"name":"F#5","ticks":176640,"time":72.708568,"velocity":0.7874015748031497},{"duration":0.4000000000000057,"durationTicks":960,"midi":81,"name":"A5","ticks":177600,"time":73.108568,"velocity":0.7874015748031497},{"duration":0.4000000000000057,"durationTicks":960,"midi":86,"name":"D6","ticks":177600,"time":73.108568,"velocity":0.7874015748031497},{"duration":0.4000000000000057,"durationTicks":960,"midi":78,"name":"F#5","ticks":177600,"time":73.108568,"velocity":0.7874015748031497},{"duration":0.7999999999999972,"durationTicks":1920,"midi":83,"name":"B5","ticks":178560,"time":73.50856800000001,"velocity":0.7874015748031497},{"duration":0.7999999999999972,"durationTicks":1920,"midi":76,"name":"E5","ticks":178560,"time":73.50856800000001,"velocity":0.7874015748031497},{"duration":0.7999999999999972,"durationTicks":1920,"midi":80,"name":"G#5","ticks":178560,"time":73.50856800000001,"velocity":0.7874015748031497},{"duration":0.7999999999999972,"durationTicks":1920,"midi":83,"name":"B5","ticks":180480,"time":74.30856800000001,"velocity":0.7874015748031497},{"duration":0.7999999999999972,"durationTicks":1920,"midi":79,"name":"G5","ticks":180480,"time":74.30856800000001,"velocity":0.7874015748031497},{"duration":0.7999999999999972,"durationTicks":1920,"midi":76,"name":"E5","ticks":180480,"time":74.30856800000001,"velocity":0.7874015748031497},{"duration":0.7999999999999972,"durationTicks":1920,"midi":84,"name":"C6","ticks":182400,"time":75.108568,"velocity":0.7874015748031497},{"duration":0.7999999999999972,"durationTicks":1920,"midi":79,"name":"G5","ticks":182400,"time":75.108568,"velocity":0.7874015748031497},{"duration":0.7999999999999972,"durationTicks":1920,"midi":76,"name":"E5","ticks":182400,"time":75.108568,"velocity":0.7874015748031497},{"duration":0.7999999999999972,"durationTicks":1920,"midi":76,"name":"E5","ticks":184320,"time":75.908568,"velocity":0.7874015748031497},{"duration":0.7999999999999972,"durationTicks":1920,"midi":81,"name":"A5","ticks":184320,"time":75.908568,"velocity":0.7874015748031497},{"duration":0.7999999999999972,"durationTicks":1920,"midi":84,"name":"C6","ticks":184320,"time":75.908568,"velocity":0.7874015748031497},{"duration":0.8000000000000114,"durationTicks":1920,"midi":83,"name":"B5","ticks":186240,"time":76.708568,"velocity":0.7874015748031497},{"duration":0.8000000000000114,"durationTicks":1920,"midi":76,"name":"E5","ticks":186240,"time":76.708568,"velocity":0.7874015748031497},{"duration":0.8000000000000114,"durationTicks":1920,"midi":79,"name":"G5","ticks":186240,"time":76.708568,"velocity":0.7874015748031497},{"duration":0.7999999999999972,"durationTicks":1920,"midi":80,"name":"G#5","ticks":188160,"time":77.50856800000001,"velocity":0.7874015748031497},{"duration":0.7999999999999972,"durationTicks":1920,"midi":76,"name":"E5","ticks":188160,"time":77.50856800000001,"velocity":0.7874015748031497},{"duration":0.7999999999999972,"durationTicks":1920,"midi":73,"name":"C#5","ticks":188160,"time":77.50856800000001,"velocity":0.7874015748031497},{"duration":0.7999999999999972,"durationTicks":1920,"midi":76,"name":"E5","ticks":190080,"time":78.30856800000001,"velocity":0.7874015748031497},{"duration":0.7999999999999972,"durationTicks":1920,"midi":80,"name":"G#5","ticks":190080,"time":78.30856800000001,"velocity":0.7874015748031497},{"duration":0.7999999999999972,"durationTicks":1920,"midi":73,"name":"C#5","ticks":190080,"time":78.30856800000001,"velocity":0.7874015748031497},{"duration":0.7999999999999972,"durationTicks":1920,"midi":83,"name":"B5","ticks":192000,"time":79.108568,"velocity":0.7874015748031497},{"duration":0.7999999999999972,"durationTicks":1920,"midi":79,"name":"G5","ticks":192000,"time":79.108568,"velocity":0.7874015748031497},{"duration":0.7999999999999972,"durationTicks":1920,"midi":76,"name":"E5","ticks":192000,"time":79.108568,"velocity":0.7874015748031497},{"duration":0.8000000000000114,"durationTicks":1920,"midi":81,"name":"A5","ticks":193920,"time":79.908568,"velocity":0.7874015748031497},{"duration":0.8000000000000114,"durationTicks":1920,"midi":78,"name":"F#5","ticks":193920,"time":79.908568,"velocity":0.7874015748031497},{"duration":0.8000000000000114,"durationTicks":1920,"midi":74,"name":"D5","ticks":193920,"time":79.908568,"velocity":0.7874015748031497},{"duration":0.7999999999999972,"durationTicks":1920,"midi":83,"name":"B5","ticks":195840,"time":80.70856800000001,"velocity":0.7874015748031497},{"duration":0.7999999999999972,"durationTicks":1920,"midi":79,"name":"G5","ticks":195840,"time":80.70856800000001,"velocity":0.7874015748031497},{"duration":0.7999999999999972,"durationTicks":1920,"midi":76,"name":"E5","ticks":195840,"time":80.70856800000001,"velocity":0.7874015748031497},{"duration":0.7999999999999972,"durationTicks":1920,"midi":76,"name":"E5","ticks":197760,"time":81.50856800000001,"velocity":0.7874015748031497},{"duration":0.7999999999999972,"durationTicks":1920,"midi":79,"name":"G5","ticks":197760,"time":81.50856800000001,"velocity":0.7874015748031497},{"duration":0.7999999999999972,"durationTicks":1920,"midi":84,"name":"C6","ticks":197760,"time":81.50856800000001,"velocity":0.7874015748031497},{"duration":0.7999999999999972,"durationTicks":1920,"midi":76,"name":"E5","ticks":199680,"time":82.30856800000001,"velocity":0.7874015748031497},{"duration":0.7999999999999972,"durationTicks":1920,"midi":81,"name":"A5","ticks":199680,"time":82.30856800000001,"velocity":0.7874015748031497},{"duration":0.7999999999999972,"durationTicks":1920,"midi":84,"name":"C6","ticks":199680,"time":82.30856800000001,"velocity":0.7874015748031497},{"duration":0.7999999999999972,"durationTicks":1920,"midi":83,"name":"B5","ticks":201600,"time":83.108568,"velocity":0.7874015748031497},{"duration":0.7999999999999972,"durationTicks":1920,"midi":78,"name":"F#5","ticks":201600,"time":83.108568,"velocity":0.7874015748031497},{"duration":0.7999999999999972,"durationTicks":1920,"midi":74,"name":"D5","ticks":201600,"time":83.108568,"velocity":0.7874015748031497},{"duration":0.8000000000000114,"durationTicks":1920,"midi":79,"name":"G5","ticks":203520,"time":83.908568,"velocity":0.7874015748031497},{"duration":0.8000000000000114,"durationTicks":1920,"midi":83,"name":"B5","ticks":203520,"time":83.908568,"velocity":0.7874015748031497},{"duration":0.8000000000000114,"durationTicks":1920,"midi":76,"name":"E5","ticks":203520,"time":83.908568,"velocity":0.7874015748031497},{"duration":0.7999999999999972,"durationTicks":1920,"midi":81,"name":"A5","ticks":205440,"time":84.70856800000001,"velocity":0.7874015748031497},{"duration":0.7999999999999972,"durationTicks":1920,"midi":86,"name":"D6","ticks":205440,"time":84.70856800000001,"velocity":0.7874015748031497},{"duration":0.7999999999999972,"durationTicks":1920,"midi":78,"name":"F#5","ticks":205440,"time":84.70856800000001,"velocity":0.7874015748031497},{"duration":1.5999999999999943,"durationTicks":3840,"midi":76,"name":"E5","ticks":207360,"time":85.50856800000001,"velocity":0.7874015748031497},{"duration":1.5999999999999943,"durationTicks":3840,"midi":81,"name":"A5","ticks":207360,"time":85.50856800000001,"velocity":0.7874015748031497},{"duration":1.5999999999999943,"durationTicks":3840,"midi":84,"name":"C6","ticks":207360,"time":85.50856800000001,"velocity":0.7874015748031497},{"duration":0.799999999999983,"durationTicks":1920,"midi":83,"name":"B5","ticks":349440,"time":144.708568,"velocity":0.7874015748031497},{"duration":0.799999999999983,"durationTicks":1920,"midi":79,"name":"G5","ticks":349440,"time":144.708568,"velocity":0.7874015748031497},{"duration":0.799999999999983,"durationTicks":1920,"midi":76,"name":"E5","ticks":349440,"time":144.708568,"velocity":0.7874015748031497},{"duration":0.8000000000000114,"durationTicks":1920,"midi":84,"name":"C6","ticks":351360,"time":145.508568,"velocity":0.7874015748031497},{"duration":0.8000000000000114,"durationTicks":1920,"midi":79,"name":"G5","ticks":351360,"time":145.508568,"velocity":0.7874015748031497},{"duration":0.8000000000000114,"durationTicks":1920,"midi":76,"name":"E5","ticks":351360,"time":145.508568,"velocity":0.7874015748031497},{"duration":0.8000000000000114,"durationTicks":1920,"midi":76,"name":"E5","ticks":353280,"time":146.308568,"velocity":0.7874015748031497},{"duration":0.8000000000000114,"durationTicks":1920,"midi":81,"name":"A5","ticks":353280,"time":146.308568,"velocity":0.7874015748031497},{"duration":0.8000000000000114,"durationTicks":1920,"midi":84,"name":"C6","ticks":353280,"time":146.308568,"velocity":0.7874015748031497},{"duration":0.799999999999983,"durationTicks":1920,"midi":83,"name":"B5","ticks":355200,"time":147.10856800000002,"velocity":0.7874015748031497},{"duration":0.799999999999983,"durationTicks":1920,"midi":76,"name":"E5","ticks":355200,"time":147.10856800000002,"velocity":0.7874015748031497},{"duration":0.799999999999983,"durationTicks":1920,"midi":79,"name":"G5","ticks":355200,"time":147.10856800000002,"velocity":0.7874015748031497},{"duration":0.8000000000000114,"durationTicks":1920,"midi":80,"name":"G#5","ticks":357120,"time":147.908568,"velocity":0.7874015748031497},{"duration":0.8000000000000114,"durationTicks":1920,"midi":76,"name":"E5","ticks":357120,"time":147.908568,"velocity":0.7874015748031497},{"duration":0.8000000000000114,"durationTicks":1920,"midi":73,"name":"C#5","ticks":357120,"time":147.908568,"velocity":0.7874015748031497},{"duration":0.799999999999983,"durationTicks":1920,"midi":76,"name":"E5","ticks":359040,"time":148.708568,"velocity":0.7874015748031497},{"duration":0.799999999999983,"durationTicks":1920,"midi":80,"name":"G#5","ticks":359040,"time":148.708568,"velocity":0.7874015748031497},{"duration":0.799999999999983,"durationTicks":1920,"midi":73,"name":"C#5","ticks":359040,"time":148.708568,"velocity":0.7874015748031497},{"duration":0.8000000000000114,"durationTicks":1920,"midi":83,"name":"B5","ticks":360960,"time":149.508568,"velocity":0.7874015748031497},{"duration":0.8000000000000114,"durationTicks":1920,"midi":79,"name":"G5","ticks":360960,"time":149.508568,"velocity":0.7874015748031497},{"duration":0.8000000000000114,"durationTicks":1920,"midi":76,"name":"E5","ticks":360960,"time":149.508568,"velocity":0.7874015748031497},{"duration":0.8000000000000114,"durationTicks":1920,"midi":81,"name":"A5","ticks":362880,"time":150.308568,"velocity":0.7874015748031497},{"duration":0.8000000000000114,"durationTicks":1920,"midi":78,"name":"F#5","ticks":362880,"time":150.308568,"velocity":0.7874015748031497},{"duration":0.8000000000000114,"durationTicks":1920,"midi":74,"name":"D5","ticks":362880,"time":150.308568,"velocity":0.7874015748031497},{"duration":0.799999999999983,"durationTicks":1920,"midi":83,"name":"B5","ticks":364800,"time":151.10856800000002,"velocity":0.7874015748031497},{"duration":0.799999999999983,"durationTicks":1920,"midi":79,"name":"G5","ticks":364800,"time":151.10856800000002,"velocity":0.7874015748031497},{"duration":0.799999999999983,"durationTicks":1920,"midi":76,"name":"E5","ticks":364800,"time":151.10856800000002,"velocity":0.7874015748031497},{"duration":0.8000000000000114,"durationTicks":1920,"midi":76,"name":"E5","ticks":366720,"time":151.908568,"velocity":0.7874015748031497},{"duration":0.8000000000000114,"durationTicks":1920,"midi":79,"name":"G5","ticks":366720,"time":151.908568,"velocity":0.7874015748031497},{"duration":0.8000000000000114,"durationTicks":1920,"midi":84,"name":"C6","ticks":366720,"time":151.908568,"velocity":0.7874015748031497},{"duration":0.799999999999983,"durationTicks":1920,"midi":76,"name":"E5","ticks":368640,"time":152.708568,"velocity":0.7874015748031497},{"duration":0.799999999999983,"durationTicks":1920,"midi":81,"name":"A5","ticks":368640,"time":152.708568,"velocity":0.7874015748031497},{"duration":0.799999999999983,"durationTicks":1920,"midi":84,"name":"C6","ticks":368640,"time":152.708568,"velocity":0.7874015748031497},{"duration":0.8000000000000114,"durationTicks":1920,"midi":83,"name":"B5","ticks":370560,"time":153.508568,"velocity":0.7874015748031497},{"duration":0.8000000000000114,"durationTicks":1920,"midi":79,"name":"G5","ticks":370560,"time":153.508568,"velocity":0.7874015748031497},{"duration":0.8000000000000114,"durationTicks":1920,"midi":76,"name":"E5","ticks":370560,"time":153.508568,"velocity":0.7874015748031497},{"duration":0.8000000000000114,"durationTicks":1920,"midi":76,"name":"E5","ticks":372480,"time":154.308568,"velocity":0.7874015748031497},{"duration":0.8000000000000114,"durationTicks":1920,"midi":79,"name":"G5","ticks":372480,"time":154.308568,"velocity":0.7874015748031497},{"duration":0.8000000000000114,"durationTicks":1920,"midi":83,"name":"B5","ticks":372480,"time":154.308568,"velocity":0.7874015748031497},{"duration":0.799999999999983,"durationTicks":1920,"midi":86,"name":"D6","ticks":374400,"time":155.10856800000002,"velocity":0.7874015748031497},{"duration":0.799999999999983,"durationTicks":1920,"midi":78,"name":"F#5","ticks":374400,"time":155.10856800000002,"velocity":0.7874015748031497},{"duration":0.799999999999983,"durationTicks":1920,"midi":81,"name":"A5","ticks":374400,"time":155.10856800000002,"velocity":0.7874015748031497},{"duration":0.4000000000000057,"durationTicks":960,"midi":83,"name":"B5","ticks":376320,"time":155.908568,"velocity":0.7874015748031497},{"duration":0.4000000000000057,"durationTicks":960,"midi":74,"name":"D5","ticks":376320,"time":155.908568,"velocity":0.7874015748031497},{"duration":0.4000000000000057,"durationTicks":960,"midi":78,"name":"F#5","ticks":376320,"time":155.908568,"velocity":0.7874015748031497},{"duration":0.4000000000000057,"durationTicks":960,"midi":81,"name":"A5","ticks":377280,"time":156.308568,"velocity":0.7874015748031497},{"duration":0.4000000000000057,"durationTicks":960,"midi":86,"name":"D6","ticks":377280,"time":156.308568,"velocity":0.7874015748031497},{"duration":0.4000000000000057,"durationTicks":960,"midi":78,"name":"F#5","ticks":377280,"time":156.308568,"velocity":0.7874015748031497},{"duration":0.8000000000000114,"durationTicks":1920,"midi":83,"name":"B5","ticks":378240,"time":156.708568,"velocity":0.7874015748031497},{"duration":0.8000000000000114,"durationTicks":1920,"midi":76,"name":"E5","ticks":378240,"time":156.708568,"velocity":0.7874015748031497},{"duration":0.8000000000000114,"durationTicks":1920,"midi":80,"name":"G#5","ticks":378240,"time":156.708568,"velocity":0.7874015748031497},{"duration":0.799999999999983,"durationTicks":1920,"midi":83,"name":"B5","ticks":380160,"time":157.50856800000003,"velocity":0.7874015748031497},{"duration":0.799999999999983,"durationTicks":1920,"midi":79,"name":"G5","ticks":380160,"time":157.50856800000003,"velocity":0.7874015748031497},{"duration":0.799999999999983,"durationTicks":1920,"midi":76,"name":"E5","ticks":380160,"time":157.50856800000003,"velocity":0.7874015748031497},{"duration":0.8000000000000114,"durationTicks":1920,"midi":84,"name":"C6","ticks":382080,"time":158.308568,"velocity":0.7874015748031497},{"duration":0.8000000000000114,"durationTicks":1920,"midi":79,"name":"G5","ticks":382080,"time":158.308568,"velocity":0.7874015748031497},{"duration":0.8000000000000114,"durationTicks":1920,"midi":76,"name":"E5","ticks":382080,"time":158.308568,"velocity":0.7874015748031497},{"duration":0.799999999999983,"durationTicks":1920,"midi":76,"name":"E5","ticks":384000,"time":159.10856800000002,"velocity":0.7874015748031497},{"duration":0.799999999999983,"durationTicks":1920,"midi":81,"name":"A5","ticks":384000,"time":159.10856800000002,"velocity":0.7874015748031497},{"duration":0.799999999999983,"durationTicks":1920,"midi":84,"name":"C6","ticks":384000,"time":159.10856800000002,"velocity":0.7874015748031497},{"duration":0.8000000000000114,"durationTicks":1920,"midi":83,"name":"B5","ticks":385920,"time":159.908568,"velocity":0.7874015748031497},{"duration":0.8000000000000114,"durationTicks":1920,"midi":76,"name":"E5","ticks":385920,"time":159.908568,"velocity":0.7874015748031497},{"duration":0.8000000000000114,"durationTicks":1920,"midi":79,"name":"G5","ticks":385920,"time":159.908568,"velocity":0.7874015748031497},{"duration":0.8000000000000114,"durationTicks":1920,"midi":80,"name":"G#5","ticks":387840,"time":160.708568,"velocity":0.7874015748031497},{"duration":0.8000000000000114,"durationTicks":1920,"midi":76,"name":"E5","ticks":387840,"time":160.708568,"velocity":0.7874015748031497},{"duration":0.8000000000000114,"durationTicks":1920,"midi":73,"name":"C#5","ticks":387840,"time":160.708568,"velocity":0.7874015748031497},{"duration":0.799999999999983,"durationTicks":1920,"midi":76,"name":"E5","ticks":389760,"time":161.50856800000003,"velocity":0.7874015748031497},{"duration":0.799999999999983,"durationTicks":1920,"midi":80,"name":"G#5","ticks":389760,"time":161.50856800000003,"velocity":0.7874015748031497},{"duration":0.799999999999983,"durationTicks":1920,"midi":73,"name":"C#5","ticks":389760,"time":161.50856800000003,"velocity":0.7874015748031497},{"duration":0.8000000000000114,"durationTicks":1920,"midi":83,"name":"B5","ticks":391680,"time":162.308568,"velocity":0.7874015748031497},{"duration":0.8000000000000114,"durationTicks":1920,"midi":79,"name":"G5","ticks":391680,"time":162.308568,"velocity":0.7874015748031497},{"duration":0.8000000000000114,"durationTicks":1920,"midi":76,"name":"E5","ticks":391680,"time":162.308568,"velocity":0.7874015748031497},{"duration":0.799999999999983,"durationTicks":1920,"midi":81,"name":"A5","ticks":393600,"time":163.10856800000002,"velocity":0.7874015748031497},{"duration":0.799999999999983,"durationTicks":1920,"midi":78,"name":"F#5","ticks":393600,"time":163.10856800000002,"velocity":0.7874015748031497},{"duration":0.799999999999983,"durationTicks":1920,"midi":74,"name":"D5","ticks":393600,"time":163.10856800000002,"velocity":0.7874015748031497},{"duration":0.8000000000000114,"durationTicks":1920,"midi":83,"name":"B5","ticks":395520,"time":163.908568,"velocity":0.7874015748031497},{"duration":0.8000000000000114,"durationTicks":1920,"midi":79,"name":"G5","ticks":395520,"time":163.908568,"velocity":0.7874015748031497},{"duration":0.8000000000000114,"durationTicks":1920,"midi":76,"name":"E5","ticks":395520,"time":163.908568,"velocity":0.7874015748031497},{"duration":0.8000000000000114,"durationTicks":1920,"midi":76,"name":"E5","ticks":397440,"time":164.708568,"velocity":0.7874015748031497},{"duration":0.8000000000000114,"durationTicks":1920,"midi":79,"name":"G5","ticks":397440,"time":164.708568,"velocity":0.7874015748031497},{"duration":0.8000000000000114,"durationTicks":1920,"midi":84,"name":"C6","ticks":397440,"time":164.708568,"velocity":0.7874015748031497},{"duration":0.799999999999983,"durationTicks":1920,"midi":76,"name":"E5","ticks":399360,"time":165.50856800000003,"velocity":0.7874015748031497},{"duration":0.799999999999983,"durationTicks":1920,"midi":81,"name":"A5","ticks":399360,"time":165.50856800000003,"velocity":0.7874015748031497},{"duration":0.799999999999983,"durationTicks":1920,"midi":84,"name":"C6","ticks":399360,"time":165.50856800000003,"velocity":0.7874015748031497},{"duration":0.8000000000000114,"durationTicks":1920,"midi":83,"name":"B5","ticks":401280,"time":166.308568,"velocity":0.7874015748031497},{"duration":0.8000000000000114,"durationTicks":1920,"midi":78,"name":"F#5","ticks":401280,"time":166.308568,"velocity":0.7874015748031497},{"duration":0.8000000000000114,"durationTicks":1920,"midi":74,"name":"D5","ticks":401280,"time":166.308568,"velocity":0.7874015748031497},{"duration":0.799999999999983,"durationTicks":1920,"midi":79,"name":"G5","ticks":403200,"time":167.10856800000002,"velocity":0.7874015748031497},{"duration":0.799999999999983,"durationTicks":1920,"midi":83,"name":"B5","ticks":403200,"time":167.10856800000002,"velocity":0.7874015748031497},{"duration":0.799999999999983,"durationTicks":1920,"midi":76,"name":"E5","ticks":403200,"time":167.10856800000002,"velocity":0.7874015748031497},{"duration":0.8000000000000114,"durationTicks":1920,"midi":81,"name":"A5","ticks":405120,"time":167.908568,"velocity":0.7874015748031497},{"duration":0.8000000000000114,"durationTicks":1920,"midi":86,"name":"D6","ticks":405120,"time":167.908568,"velocity":0.7874015748031497},{"duration":0.8000000000000114,"durationTicks":1920,"midi":78,"name":"F#5","ticks":405120,"time":167.908568,"velocity":0.7874015748031497},{"duration":1.5999999999999943,"durationTicks":3840,"midi":76,"name":"E5","ticks":407040,"time":168.708568,"velocity":0.7874015748031497},{"duration":1.5999999999999943,"durationTicks":3840,"midi":81,"name":"A5","ticks":407040,"time":168.708568,"velocity":0.7874015748031497},{"duration":1.5999999999999943,"durationTicks":3840,"midi":84,"name":"C6","ticks":407040,"time":168.708568,"velocity":0.7874015748031497}]}]}