{
  "header": {
    "keySignatures": [],
    "meta": [
      {
        "text": "yTCg¼z URL",
        "ticks": 0,
        "type": "text"
      },
      {
        "text": "Setup",
        "ticks": 0,
        "type": "marker"
      },
      {
        "text": "Start",
        "ticks": 240,
        "type": "marker"
      }
    ],
    "name": "",
    "ppq": 480,
    "tempos": [
      {
        "bpm": 60,
        "ticks": 0
      },
      {
        "bpm": 180.00072000288,
        "ticks": 240
      }
    ],
    "timeSignatures": [
      {
        "ticks": 0,
        "timeSignature": [
          1,
          8
        ],
        "measures": 0
      },
      {
        "ticks": 240,
        "timeSignature": [
          4,
          4
        ],
        "measures": 0.25
      }
    ]
  },
  "tracks": [
    {
      "channel": 0,
      "controlChanges": {
        "0": [
          {
            "number": 0,
            "ticks": 240,
            "time": 0.5,
            "value": 0
          }
        ],
        "32": [
          {
            "number": 32,
            "ticks": 240,
            "time": 0.5,
            "value": 0
          }
        ]
      },
      "pitchBends": [],
      "instrument": {
        "family": "piano",
        "number": 0,
        "name": "acoustic grand piano"
      },
      "name": "",
      "notes": [
        {
          "duration": 0.16666599999999998,
          "durationTicks": 240,
          "midi": 50,
          "name": "D3",
          "ticks": 240,
          "time": 0.5,
          "velocity": 0.7874015748031497
        },
        {
          "duration": 5.333312,
          "durationTicks": 7680,
          "midi": 38,
          "name": "D2",
          "ticks": 240,
          "time": 0.5,
          "velocity": 0.7874015748031497
        },
        {
          "duration": 5.333312,
          "durationTicks": 7680,
          "midi": 26,
          "name": "D1",
          "ticks": 240,
          "time": 0.5,
          "velocity": 0.7874015748031497
        },
        {
          "duration": 0.16666599999999998,
          "durationTicks": 240,
          "midi": 57,
          "name": "A3",
          "ticks": 480,
          "time": 0.666666,
          "velocity": 0.7874015748031497
        },
        {
          "duration": 0.0833330000000001,
          "durationTicks": 120,
          "midi": 55,
          "name": "G3",
          "ticks": 720,
          "time": 0.833332,
          "velocity": 0.7874015748031497
        },
        {
          "duration": 0.16666599999999998,
          "durationTicks": 240,
          "midi": 57,
          "name": "A3",
          "ticks": 840,
          "time": 0.9166650000000001,
          "velocity": 0.7874015748031497
        },
        {
          "duration": 0.16666599999999998,
          "durationTicks": 240,
          "midi": 52,
          "name": "E3",
          "ticks": 1080,
          "time": 1.083331,
          "velocity": 0.7874015748031497
        },
        {
          "duration": 0.16666599999999998,
          "durationTicks": 240,
          "midi": 53,
          "name": "F3",
          "ticks": 1320,
          "time": 1.249997,
          "velocity": 0.7874015748031497
        },
        {
          "duration": 0.0833330000000001,
          "durationTicks": 120,
          "midi": 57,
          "name": "A3",
          "ticks": 1560,
          "time": 1.416663,
          "velocity": 0.7874015748031497
        },
        {
          "duration": 0.08333299999999988,
          "durationTicks": 120,
          "midi": 55,
          "name": "G3",
          "ticks": 1680,
          "time": 1.499996,
          "velocity": 0.7874015748031497
        },
        {
          "duration": 0.0833330000000001,
          "durationTicks": 120,
          "midi": 53,
          "name": "F3",
          "ticks": 1800,
          "time": 1.583329,
          "velocity": 0.7874015748031497
        },
        {
          "duration": 0.08333299999999988,
          "durationTicks": 120,
          "midi": 52,
          "name": "E3",
          "ticks": 1920,
          "time": 1.666662,
          "velocity": 0.7874015748031497
        },
        {
          "duration": 0.1666660000000002,
          "durationTicks": 240,
          "midi": 50,
          "name": "D3",
          "ticks": 2040,
          "time": 1.749995,
          "velocity": 0.7874015748031497
        },
        {
          "duration": 0.08333299999999988,
          "durationTicks": 120,
          "midi": 50,
          "name": "D3",
          "ticks": 2280,
          "time": 1.9166610000000002,
          "velocity": 0.7874015748031497
        },
        {
          "duration": 0.1666660000000002,
          "durationTicks": 240,
          "midi": 57,
          "name": "A3",
          "ticks": 2400,
          "time": 1.999994,
          "velocity": 0.7874015748031497
        },
        {
          "duration": 0.08333299999999966,
          "durationTicks": 120,
          "midi": 55,
          "name": "G3",
          "ticks": 2640,
          "time": 2.1666600000000003,
          "velocity": 0.7874015748031497
        },
        {
          "duration": 0.1666660000000002,
          "durationTicks": 240,
          "midi": 57,
          "name": "A3",
          "ticks": 2760,
          "time": 2.249993,
          "velocity": 0.7874015748031497
        },
        {
          "duration": 0.1666660000000002,
          "durationTicks": 240,
          "midi": 52,
          "name": "E3",
          "ticks": 3000,
          "time": 2.416659,
          "velocity": 0.7874015748031497
        },
        {
          "duration": 0.16666599999999976,
          "durationTicks": 240,
          "midi": 53,
          "name": "F3",
          "ticks": 3240,
          "time": 2.5833250000000003,
          "velocity": 0.7874015748031497
        },
        {
          "duration": 0.1666660000000002,
          "durationTicks": 240,
          "midi": 57,
          "name": "A3",
          "ticks": 3480,
          "time": 2.749991,
          "velocity": 0.7874015748031497
        },
        {
          "duration": 0.16666599999999976,
          "durationTicks": 240,
          "midi": 48,
          "name": "C3",
          "ticks": 3600,
          "time": 2.833324,
          "velocity": 0.7874015748031497
        },
        {
          "duration": 0.1666660000000002,
          "durationTicks": 240,
          "midi": 49,
          "name": "C#3",
          "ticks": 3840,
          "time": 2.99999,
          "velocity": 0.7874015748031497
        },
        {
          "duration": 0.1666660000000002,
          "durationTicks": 240,
          "midi": 50,
          "name": "D3",
          "ticks": 4080,
          "time": 3.166656,
          "velocity": 0.7874015748031497
        },
        {
          "duration": 0.16666599999999976,
          "durationTicks": 240,
          "midi": 57,
          "name": "A3",
          "ticks": 4320,
          "time": 3.3333220000000003,
          "velocity": 0.7874015748031497
        },
        {
          "duration": 0.0833330000000001,
          "durationTicks": 120,
          "midi": 55,
          "name": "G3",
          "ticks": 4560,
          "time": 3.499988,
          "velocity": 0.7874015748031497
        },
        {
          "duration": 0.16666599999999976,
          "durationTicks": 240,
          "midi": 57,
          "name": "A3",
          "ticks": 4680,
          "time": 3.583321,
          "velocity": 0.7874015748031497
        },
        {
          "duration": 0.1666660000000002,
          "durationTicks": 240,
          "midi": 52,
          "name": "E3",
          "ticks": 4920,
          "time": 3.749987,
          "velocity": 0.7874015748031497
        },
        {
          "duration": 0.1666660000000002,
          "durationTicks": 240,
          "midi": 53,
          "name": "F3",
          "ticks": 5160,
          "time": 3.916653,
          "velocity": 0.7874015748031497
        },
        {
          "duration": 0.08333299999999966,
          "durationTicks": 120,
          "midi": 57,
          "name": "A3",
          "ticks": 5400,
          "time": 4.083319,
          "velocity": 0.7874015748031497
        },
        {
          "duration": 0.08333300000000055,
          "durationTicks": 120,
          "midi": 55,
          "name": "G3",
          "ticks": 5520,
          "time": 4.166652,
          "velocity": 0.7874015748031497
        },
        {
          "duration": 0.08333299999999966,
          "durationTicks": 120,
          "midi": 53,
          "name": "F3",
          "ticks": 5640,
          "time": 4.249985000000001,
          "velocity": 0.7874015748031497
        },
        {
          "duration": 0.08333299999999966,
          "durationTicks": 120,
          "midi": 52,
          "name": "E3",
          "ticks": 5760,
          "time": 4.333318,
          "velocity": 0.7874015748031497
        },
        {
          "duration": 0.1666660000000002,
          "durationTicks": 240,
          "midi": 50,
          "name": "D3",
          "ticks": 5880,
          "time": 4.416651,
          "velocity": 0.7874015748031497
        },
        {
          "duration": 0.08333300000000055,
          "durationTicks": 120,
          "midi": 50,
          "name": "D3",
          "ticks": 6120,
          "time": 4.583317,
          "velocity": 0.7874015748031497
        },
        {
          "duration": 0.16666599999999931,
          "durationTicks": 240,
          "midi": 57,
          "name": "A3",
          "ticks": 6240,
          "time": 4.666650000000001,
          "velocity": 0.7874015748031497
        },
        {
          "duration": 0.08333300000000055,
          "durationTicks": 120,
          "midi": 55,
          "name": "G3",
          "ticks": 6480,
          "time": 4.833316,
          "velocity": 0.7874015748031497
        },
        {
          "duration": 0.16666599999999931,
          "durationTicks": 240,
          "midi": 57,
          "name": "A3",
          "ticks": 6600,
          "time": 4.9166490000000005,
          "velocity": 0.7874015748031497
        },
        {
          "duration": 0.1666660000000002,
          "durationTicks": 240,
          "midi": 52,
          "name": "E3",
          "ticks": 6840,
          "time": 5.083315,
          "velocity": 0.7874015748031497
        },
        {
          "duration": 0.1666660000000002,
          "durationTicks": 240,
          "midi": 53,
          "name": "F3",
          "ticks": 7080,
          "time": 5.249981,
          "velocity": 0.7874015748031497
        },
        {
          "duration": 0.1666660000000002,
          "durationTicks": 240,
          "midi": 57,
          "name": "A3",
          "ticks": 7320,
          "time": 5.416647,
          "velocity": 0.7874015748031497
        },
        {
          "duration": 0.1666660000000002,
          "durationTicks": 240,
          "midi": 48,
          "name": "C3",
          "ticks": 7440,
          "time": 5.49998,
          "velocity": 0.7874015748031497
        },
        {
          "duration": 0.1666660000000002,
          "durationTicks": 240,
          "midi": 49,
          "name": "C#3",
          "ticks": 7680,
          "time": 5.666646,
          "velocity": 0.7874015748031497
        },
        {
          "duration": 0.1666660000000002,
          "durationTicks": 240,
          "midi": 50,
          "name": "D3",
          "ticks": 7920,
          "time": 5.833312,
          "velocity": 0.7874015748031497
        },
        {
          "duration": 1.3333279999999998,
          "durationTicks": 1920,
          "midi": 38,
          "name": "D2",
          "ticks": 7920,
          "time": 5.833312,
          "velocity": 0.7874015748031497
        },
        {
          "duration": 1.3333279999999998,
          "durationTicks": 1920,
          "midi": 26,
          "name": "D1",
          "ticks": 7920,
          "time": 5.833312,
          "velocity": 0.7874015748031497
        },
        {
          "duration": 0.1666660000000002,
          "durationTicks": 240,
          "midi": 57,
          "name": "A3",
          "ticks": 8160,
          "time": 5.9999780000000005,
          "velocity": 0.7874015748031497
        },
        {
          "duration": 0.08333299999999966,
          "durationTicks": 120,
          "midi": 55,
          "name": "G3",
          "ticks": 8400,
          "time": 6.166644000000001,
          "velocity": 0.7874015748031497
        },
        {
          "duration": 0.1666660000000002,
          "durationTicks": 240,
          "midi": 57,
          "name": "A3",
          "ticks": 8520,
          "time": 6.249977,
          "velocity": 0.7874015748031497
        },
        {
          "duration": 0.1666660000000002,
          "durationTicks": 240,
          "midi": 52,
          "name": "E3",
          "ticks": 8760,
          "time": 6.4166430000000005,
          "velocity": 0.7874015748031497
        },
        {
          "duration": 0.16666599999999931,
          "durationTicks": 240,
          "midi": 53,
          "name": "F3",
          "ticks": 9000,
          "time": 6.583309000000001,
          "velocity": 0.7874015748031497
        },
        {
          "duration": 0.08333300000000055,
          "durationTicks": 120,
          "midi": 57,
          "name": "A3",
          "ticks": 9240,
          "time": 6.749975,
          "velocity": 0.7874015748031497
        },
        {
          "duration": 0.08333299999999966,
          "durationTicks": 120,
          "midi": 55,
          "name": "G3",
          "ticks": 9360,
          "time": 6.833308000000001,
          "velocity": 0.7874015748031497
        },
        {
          "duration": 0.08333299999999966,
          "durationTicks": 120,
          "midi": 53,
          "name": "F3",
          "ticks": 9480,
          "time": 6.916641,
          "velocity": 0.7874015748031497
        },
        {
          "duration": 0.08333300000000055,
          "durationTicks": 120,
          "midi": 52,
          "name": "E3",
          "ticks": 9600,
          "time": 6.999974,
          "velocity": 0.7874015748031497
        },
        {
          "duration": 0.1666660000000002,
          "durationTicks": 240,
          "midi": 50,
          "name": "D3",
          "ticks": 9720,
          "time": 7.0833070000000005,
          "velocity": 0.7874015748031497
        },
        {
          "duration": 1.3333280000000007,
          "durationTicks": 1920,
          "midi": 38,
          "name": "D2",
          "ticks": 9840,
          "time": 7.16664,
          "velocity": 0.7874015748031497
        },
        {
          "duration": 1.3333280000000007,
          "durationTicks": 1920,
          "midi": 26,
          "name": "D1",
          "ticks": 9840,
          "time": 7.16664,
          "velocity": 0.7874015748031497
        },
        {
          "duration": 0.08333299999999966,
          "durationTicks": 120,
          "midi": 50,
          "name": "D3",
          "ticks": 9960,
          "time": 7.249973000000001,
          "velocity": 0.7874015748031497
        },
        {
          "duration": 0.1666660000000002,
          "durationTicks": 240,
          "midi": 57,
          "name": "A3",
          "ticks": 10080,
          "time": 7.333306,
          "velocity": 0.7874015748031497
        },
        {
          "duration": 0.08333299999999966,
          "durationTicks": 120,
          "midi": 55,
          "name": "G3",
          "ticks": 10320,
          "time": 7.4999720000000005,
          "velocity": 0.7874015748031497
        },
        {
          "duration": 0.1666660000000002,
          "durationTicks": 240,
          "midi": 57,
          "name": "A3",
          "ticks": 10440,
          "time": 7.583305,
          "velocity": 0.7874015748031497
        },
        {
          "duration": 0.1666660000000002,
          "durationTicks": 240,
          "midi": 52,
          "name": "E3",
          "ticks": 10680,
          "time": 7.749971,
          "velocity": 0.7874015748031497
        },
        {
          "duration": 0.1666660000000002,
          "durationTicks": 240,
          "midi": 53,
          "name": "F3",
          "ticks": 10920,
          "time": 7.916637000000001,
          "velocity": 0.7874015748031497
        },
        {
          "duration": 0.16666599999999931,
          "durationTicks": 240,
          "midi": 57,
          "name": "A3",
          "ticks": 11160,
          "time": 8.083303,
          "velocity": 0.7874015748031497
        },
        {
          "duration": 0.16666599999999931,
          "durationTicks": 240,
          "midi": 48,
          "name": "C3",
          "ticks": 11280,
          "time": 8.166636,
          "velocity": 0.7874015748031497
        },
        {
          "duration": 0.1666660000000011,
          "durationTicks": 240,
          "midi": 49,
          "name": "C#3",
          "ticks": 11520,
          "time": 8.333302,
          "velocity": 0.7874015748031497
        },
        {
          "duration": 0.16666599999999931,
          "durationTicks": 240,
          "midi": 50,
          "name": "D3",
          "ticks": 11760,
          "time": 8.499968,
          "velocity": 0.7874015748031497
        },
        {
          "duration": 0.666663999999999,
          "durationTicks": 960,
          "midi": 38,
          "name": "D2",
          "ticks": 11760,
          "time": 8.499968,
          "velocity": 0.7874015748031497
        },
        {
          "duration": 0.666663999999999,
          "durationTicks": 960,
          "midi": 26,
          "name": "D1",
          "ticks": 11760,
          "time": 8.499968,
          "velocity": 0.7874015748031497
        },
        {
          "duration": 0.1666660000000011,
          "durationTicks": 240,
          "midi": 57,
          "name": "A3",
          "ticks": 12000,
          "time": 8.666634,
          "velocity": 0.7874015748031497
        },
        {
          "duration": 0.08333299999999966,
          "durationTicks": 120,
          "midi": 55,
          "name": "G3",
          "ticks": 12240,
          "time": 8.833300000000001,
          "velocity": 0.7874015748031497
        },
        {
          "duration": 0.16666599999999931,
          "durationTicks": 240,
          "midi": 57,
          "name": "A3",
          "ticks": 12360,
          "time": 8.916633000000001,
          "velocity": 0.7874015748031497
        },
        {
          "duration": 0.1666660000000011,
          "durationTicks": 240,
          "midi": 52,
          "name": "E3",
          "ticks": 12600,
          "time": 9.083299,
          "velocity": 0.7874015748031497
        },
        {
          "duration": 0.6666640000000008,
          "durationTicks": 960,
          "midi": 38,
          "name": "D2",
          "ticks": 12720,
          "time": 9.166632,
          "velocity": 0.7874015748031497
        },
        {
          "duration": 0.6666640000000008,
          "durationTicks": 960,
          "midi": 26,
          "name": "D1",
          "ticks": 12720,
          "time": 9.166632,
          "velocity": 0.7874015748031497
        },
        {
          "duration": 0.16666599999999931,
          "durationTicks": 240,
          "midi": 53,
          "name": "F3",
          "ticks": 12840,
          "time": 9.249965000000001,
          "velocity": 0.7874015748031497
        },
        {
          "duration": 0.08333299999999966,
          "durationTicks": 120,
          "midi": 57,
          "name": "A3",
          "ticks": 13080,
          "time": 9.416631,
          "velocity": 0.7874015748031497
        },
        {
          "duration": 0.08333299999999966,
          "durationTicks": 120,
          "midi": 55,
          "name": "G3",
          "ticks": 13200,
          "time": 9.499964,
          "velocity": 0.7874015748031497
        },
        {
          "duration": 0.08333299999999966,
          "durationTicks": 120,
          "midi": 53,
          "name": "F3",
          "ticks": 13320,
          "time": 9.583297,
          "velocity": 0.7874015748031497
        },
        {
          "duration": 0.08333300000000143,
          "durationTicks": 120,
          "midi": 52,
          "name": "E3",
          "ticks": 13440,
          "time": 9.66663,
          "velocity": 0.7874015748031497
        },
        {
          "duration": 0.16666599999999931,
          "durationTicks": 240,
          "midi": 50,
          "name": "D3",
          "ticks": 13560,
          "time": 9.749963000000001,
          "velocity": 0.7874015748031497
        },
        {
          "duration": 0.3333320000000004,
          "durationTicks": 480,
          "midi": 38,
          "name": "D2",
          "ticks": 13680,
          "time": 9.833296,
          "velocity": 0.7874015748031497
        },
        {
          "duration": 0.3333320000000004,
          "durationTicks": 480,
          "midi": 26,
          "name": "D1",
          "ticks": 13680,
          "time": 9.833296,
          "velocity": 0.7874015748031497
        },
        {
          "duration": 0.08333299999999966,
          "durationTicks": 120,
          "midi": 50,
          "name": "D3",
          "ticks": 13800,
          "time": 9.916629,
          "velocity": 0.7874015748031497
        },
        {
          "duration": 0.1666660000000011,
          "durationTicks": 240,
          "midi": 57,
          "name": "A3",
          "ticks": 13920,
          "time": 9.999962,
          "velocity": 0.7874015748031497
        },
        {
          "duration": 0.08333299999999966,
          "durationTicks": 120,
          "midi": 55,
          "name": "G3",
          "ticks": 14160,
          "time": 10.166628000000001,
          "velocity": 0.7874015748031497
        },
        {
          "duration": 0.33333199999999863,
          "durationTicks": 480,
          "midi": 38,
          "name": "D2",
          "ticks": 14160,
          "time": 10.166628000000001,
          "velocity": 0.7874015748031497
        },
        {
          "duration": 0.33333199999999863,
          "durationTicks": 480,
          "midi": 26,
          "name": "D1",
          "ticks": 14160,
          "time": 10.166628000000001,
          "velocity": 0.7874015748031497
        },
        {
          "duration": 0.16666599999999931,
          "durationTicks": 240,
          "midi": 57,
          "name": "A3",
          "ticks": 14280,
          "time": 10.249961,
          "velocity": 0.7874015748031497
        },
        {
          "duration": 0.1666660000000011,
          "durationTicks": 240,
          "midi": 60,
          "name": "C4",
          "ticks": 14520,
          "time": 10.416627,
          "velocity": 0.7874015748031497
        },
        {
          "duration": 0.3333320000000004,
          "durationTicks": 480,
          "midi": 38,
          "name": "D2",
          "ticks": 14640,
          "time": 10.49996,
          "velocity": 0.7874015748031497
        },
        {
          "duration": 0.3333320000000004,
          "durationTicks": 480,
          "midi": 26,
          "name": "D1",
          "ticks": 14640,
          "time": 10.49996,
          "velocity": 0.7874015748031497
        },
        {
          "duration": 0.08333299999999966,
          "durationTicks": 120,
          "midi": 60,
          "name": "C4",
          "ticks": 14760,
          "time": 10.583293000000001,
          "velocity": 0.7874015748031497
        },
        {
          "duration": 0.16666599999999931,
          "durationTicks": 240,
          "midi": 57,
          "name": "A3",
          "ticks": 14880,
          "time": 10.666626,
          "velocity": 0.7874015748031497
        },
        {
          "duration": 0.1666660000000011,
          "durationTicks": 240,
          "midi": 64,
          "name": "E4",
          "ticks": 15120,
          "time": 10.833292,
          "velocity": 0.7874015748031497
        },
        {
          "duration": 0.3333320000000004,
          "durationTicks": 480,
          "midi": 38,
          "name": "D2",
          "ticks": 15120,
          "time": 10.833292,
          "velocity": 0.7874015748031497
        },
        {
          "duration": 0.3333320000000004,
          "durationTicks": 480,
          "midi": 26,
          "name": "D1",
          "ticks": 15120,
          "time": 10.833292,
          "velocity": 0.7874015748031497
        },
        {
          "duration": 0.08333299999999966,
          "durationTicks": 120,
          "midi": 60,
          "name": "C4",
          "ticks": 15360,
          "time": 10.999958000000001,
          "velocity": 0.7874015748031497
        },
        {
          "duration": 0.08333299999999966,
          "durationTicks": 120,
          "midi": 61,
          "name": "C#4",
          "ticks": 15480,
          "time": 11.083291000000001,
          "velocity": 0.7874015748031497
        },
        {
          "duration": 0.16666599999999931,
          "durationTicks": 240,
          "midi": 62,
          "name": "D4",
          "ticks": 15600,
          "time": 11.166624,
          "velocity": 0.7874015748031497
        },
        {
          "duration": 0.16666599999999931,
          "durationTicks": 240,
          "midi": 38,
          "name": "D2",
          "ticks": 15600,
          "time": 11.166624,
          "velocity": 0.7874015748031497
        },
        {
          "duration": 0.1666660000000011,
          "durationTicks": 240,
          "midi": 69,
          "name": "A4",
          "ticks": 15840,
          "time": 11.33329,
          "velocity": 0.7874015748031497
        },
        {
          "duration": 0.1666660000000011,
          "durationTicks": 240,
          "midi": 50,
          "name": "D3",
          "ticks": 15840,
          "time": 11.33329,
          "velocity": 0.7874015748031497
        },
        {
          "duration": 0.08333299999999966,
          "durationTicks": 120,
          "midi": 67,
          "name": "G4",
          "ticks": 16080,
          "time": 11.499956000000001,
          "velocity": 0.7874015748031497
        },
        {
          "duration": 0.16666599999999931,
          "durationTicks": 240,
          "midi": 38,
          "name": "D2",
          "ticks": 16080,
          "time": 11.499956000000001,
          "velocity": 0.7874015748031497
        },
        {
          "duration": 0.16666599999999931,
          "durationTicks": 240,
          "midi": 69,
          "name": "A4",
          "ticks": 16200,
          "time": 11.583289,
          "velocity": 0.7874015748031497
        },
        {
          "duration": 0.1666660000000011,
          "durationTicks": 240,
          "midi": 50,
          "name": "D3",
          "ticks": 16320,
          "time": 11.666622,
          "velocity": 0.7874015748031497
        },
        {
          "duration": 0.1666660000000011,
          "durationTicks": 240,
          "midi": 64,
          "name": "E4",
          "ticks": 16440,
          "time": 11.749955,
          "velocity": 0.7874015748031497
        },
        {
          "duration": 0.16666599999999931,
          "durationTicks": 240,
          "midi": 38,
          "name": "D2",
          "ticks": 16560,
          "time": 11.833288000000001,
          "velocity": 0.7874015748031497
        },
        {
          "duration": 0.16666599999999931,
          "durationTicks": 240,
          "midi": 65,
          "name": "F4",
          "ticks": 16680,
          "time": 11.916621000000001,
          "velocity": 0.7874015748031497
        },
        {
          "duration": 0.16666599999999931,
          "durationTicks": 240,
          "midi": 50,
          "name": "D3",
          "ticks": 16800,
          "time": 11.999954,
          "velocity": 0.7874015748031497
        },
        {
          "duration": 0.08333299999999966,
          "durationTicks": 120,
          "midi": 69,
          "name": "A4",
          "ticks": 16920,
          "time": 12.083287,
          "velocity": 0.7874015748031497
        },
        {
          "duration": 0.08333300000000143,
          "durationTicks": 120,
          "midi": 67,
          "name": "G4",
          "ticks": 17040,
          "time": 12.16662,
          "velocity": 0.7874015748031497
        },
        {
          "duration": 0.1666660000000011,
          "durationTicks": 240,
          "midi": 38,
          "name": "D2",
          "ticks": 17040,
          "time": 12.16662,
          "velocity": 0.7874015748031497
        },
        {
          "duration": 0.08333299999999966,
          "durationTicks": 120,
          "midi": 65,
          "name": "F4",
          "ticks": 17160,
          "time": 12.249953000000001,
          "velocity": 0.7874015748031497
        },
        {
          "duration": 0.08333299999999966,
          "durationTicks": 120,
          "midi": 64,
          "name": "E4",
          "ticks": 17280,
          "time": 12.333286000000001,
          "velocity": 0.7874015748031497
        },
        {
          "duration": 0.16666599999999931,
          "durationTicks": 240,
          "midi": 50,
          "name": "D3",
          "ticks": 17280,
          "time": 12.333286000000001,
          "velocity": 0.7874015748031497
        },
        {
          "duration": 0.16666599999999931,
          "durationTicks": 240,
          "midi": 62,
          "name": "D4",
          "ticks": 17400,
          "time": 12.416619,
          "velocity": 0.7874015748031497
        },
        {
          "duration": 0.1666660000000011,
          "durationTicks": 240,
          "midi": 38,
          "name": "D2",
          "ticks": 17520,
          "time": 12.499952,
          "velocity": 0.7874015748031497
        },
        {
          "duration": 0.08333300000000143,
          "durationTicks": 120,
          "midi": 62,
          "name": "D4",
          "ticks": 17640,
          "time": 12.583285,
          "velocity": 0.7874015748031497
        },
        {
          "duration": 0.16666599999999931,
          "durationTicks": 240,
          "midi": 69,
          "name": "A4",
          "ticks": 17760,
          "time": 12.666618000000001,
          "velocity": 0.7874015748031497
        },
        {
          "duration": 0.16666599999999931,
          "durationTicks": 240,
          "midi": 50,
          "name": "D3",
          "ticks": 17760,
          "time": 12.666618000000001,
          "velocity": 0.7874015748031497
        },
        {
          "duration": 0.08333299999999966,
          "durationTicks": 120,
          "midi": 67,
          "name": "G4",
          "ticks": 18000,
          "time": 12.833284,
          "velocity": 0.7874015748031497
        },
        {
          "duration": 0.16666599999999931,
          "durationTicks": 240,
          "midi": 38,
          "name": "D2",
          "ticks": 18000,
          "time": 12.833284,
          "velocity": 0.7874015748031497
        },
        {
          "duration": 0.16666599999999931,
          "durationTicks": 240,
          "midi": 69,
          "name": "A4",
          "ticks": 18120,
          "time": 12.916617,
          "velocity": 0.7874015748031497
        },
        {
          "duration": 0.1666660000000011,
          "durationTicks": 240,
          "midi": 50,
          "name": "D3",
          "ticks": 18240,
          "time": 12.99995,
          "velocity": 0.7874015748031497
        },
        {
          "duration": 0.1666660000000011,
          "durationTicks": 240,
          "midi": 64,
          "name": "E4",
          "ticks": 18360,
          "time": 13.083283,
          "velocity": 0.7874015748031497
        },
        {
          "duration": 0.16666599999999931,
          "durationTicks": 240,
          "midi": 38,
          "name": "D2",
          "ticks": 18480,
          "time": 13.166616000000001,
          "velocity": 0.7874015748031497
        },
        {
          "duration": 0.16666599999999931,
          "durationTicks": 240,
          "midi": 65,
          "name": "F4",
          "ticks": 18600,
          "time": 13.249949,
          "velocity": 0.7874015748031497
        },
        {
          "duration": 0.16666599999999931,
          "durationTicks": 240,
          "midi": 50,
          "name": "D3",
          "ticks": 18720,
          "time": 13.333282,
          "velocity": 0.7874015748031497
        },
        {
          "duration": 0.08333299999999966,
          "durationTicks": 120,
          "midi": 69,
          "name": "A4",
          "ticks": 18840,
          "time": 13.416615,
          "velocity": 0.7874015748031497
        },
        {
          "duration": 0.1666660000000011,
          "durationTicks": 240,
          "midi": 60,
          "name": "C4",
          "ticks": 18960,
          "time": 13.499948,
          "velocity": 0.7874015748031497
        },
        {
          "duration": 0.1666660000000011,
          "durationTicks": 240,
          "midi": 38,
          "name": "D2",
          "ticks": 18960,
          "time": 13.499948,
          "velocity": 0.7874015748031497
        },
        {
          "duration": 0.16666599999999931,
          "durationTicks": 240,
          "midi": 61,
          "name": "C#4",
          "ticks": 19200,
          "time": 13.666614000000001,
          "velocity": 0.7874015748031497
        },
        {
          "duration": 0.16666599999999931,
          "durationTicks": 240,
          "midi": 50,
          "name": "D3",
          "ticks": 19200,
          "time": 13.666614000000001,
          "velocity": 0.7874015748031497
        },
        {
          "duration": 0.1666660000000011,
          "durationTicks": 240,
          "midi": 62,
          "name": "D4",
          "ticks": 19440,
          "time": 13.83328,
          "velocity": 0.7874015748031497
        },
        {
          "duration": 0.1666660000000011,
          "durationTicks": 240,
          "midi": 38,
          "name": "D2",
          "ticks": 19440,
          "time": 13.83328,
          "velocity": 0.7874015748031497
        },
        {
          "duration": 0.16666599999999931,
          "durationTicks": 240,
          "midi": 69,
          "name": "A4",
          "ticks": 19680,
          "time": 13.999946000000001,
          "velocity": 0.7874015748031497
        },
        {
          "duration": 0.16666599999999931,
          "durationTicks": 240,
          "midi": 50,
          "name": "D3",
          "ticks": 19680,
          "time": 13.999946000000001,
          "velocity": 0.7874015748031497
        },
        {
          "duration": 0.08333299999999966,
          "durationTicks": 120,
          "midi": 67,
          "name": "G4",
          "ticks": 19920,
          "time": 14.166612,
          "velocity": 0.7874015748031497
        },
        {
          "duration": 0.16666599999999931,
          "durationTicks": 240,
          "midi": 38,
          "name": "D2",
          "ticks": 19920,
          "time": 14.166612,
          "velocity": 0.7874015748031497
        },
        {
          "duration": 0.1666660000000011,
          "durationTicks": 240,
          "midi": 69,
          "name": "A4",
          "ticks": 20040,
          "time": 14.249945,
          "velocity": 0.7874015748031497
        },
        {
          "duration": 0.1666660000000011,
          "durationTicks": 240,
          "midi": 50,
          "name": "D3",
          "ticks": 20160,
          "time": 14.333278,
          "velocity": 0.7874015748031497
        },
        {
          "duration": 0.16666599999999931,
          "durationTicks": 240,
          "midi": 64,
          "name": "E4",
          "ticks": 20280,
          "time": 14.416611000000001,
          "velocity": 0.7874015748031497
        },
        {
          "duration": 0.16666599999999931,
          "durationTicks": 240,
          "midi": 38,
          "name": "D2",
          "ticks": 20400,
          "time": 14.499944000000001,
          "velocity": 0.7874015748031497
        },
        {
          "duration": 0.16666599999999931,
          "durationTicks": 240,
          "midi": 65,
          "name": "F4",
          "ticks": 20520,
          "time": 14.583277,
          "velocity": 0.7874015748031497
        },
        {
          "duration": 0.1666660000000011,
          "durationTicks": 240,
          "midi": 50,
          "name": "D3",
          "ticks": 20640,
          "time": 14.66661,
          "velocity": 0.7874015748031497
        },
        {
          "duration": 0.08333300000000143,
          "durationTicks": 120,
          "midi": 69,
          "name": "A4",
          "ticks": 20760,
          "time": 14.749943,
          "velocity": 0.7874015748031497
        },
        {
          "duration": 0.08333299999999966,
          "durationTicks": 120,
          "midi": 67,
          "name": "G4",
          "ticks": 20880,
          "time": 14.833276000000001,
          "velocity": 0.7874015748031497
        },
        {
          "duration": 0.16666599999999931,
          "durationTicks": 240,
          "midi": 38,
          "name": "D2",
          "ticks": 20880,
          "time": 14.833276000000001,
          "velocity": 0.7874015748031497
        },
        {
          "duration": 0.08333299999999966,
          "durationTicks": 120,
          "midi": 65,
          "name": "F4",
          "ticks": 21000,
          "time": 14.916609000000001,
          "velocity": 0.7874015748031497
        },
        {
          "duration": 0.08333299999999966,
          "durationTicks": 120,
          "midi": 64,
          "name": "E4",
          "ticks": 21120,
          "time": 14.999942,
          "velocity": 0.7874015748031497
        },
        {
          "duration": 0.16666599999999931,
          "durationTicks": 240,
          "midi": 50,
          "name": "D3",
          "ticks": 21120,
          "time": 14.999942,
          "velocity": 0.7874015748031497
        },
        {
          "duration": 0.1666660000000011,
          "durationTicks": 240,
          "midi": 62,
          "name": "D4",
          "ticks": 21240,
          "time": 15.083275,
          "velocity": 0.7874015748031497
        },
        {
          "duration": 0.1666660000000011,
          "durationTicks": 240,
          "midi": 38,
          "name": "D2",
          "ticks": 21360,
          "time": 15.166608,
          "velocity": 0.7874015748031497
        },
        {
          "duration": 0.08333299999999966,
          "durationTicks": 120,
          "midi": 62,
          "name": "D4",
          "ticks": 21480,
          "time": 15.249941000000002,
          "velocity": 0.7874015748031497
        },
        {
          "duration": 0.16666599999999931,
          "durationTicks": 240,
          "midi": 69,
          "name": "A4",
          "ticks": 21600,
          "time": 15.333274000000001,
          "velocity": 0.7874015748031497
        },
        {
          "duration": 0.16666599999999931,
          "durationTicks": 240,
          "midi": 50,
          "name": "D3",
          "ticks": 21600,
          "time": 15.333274000000001,
          "velocity": 0.7874015748031497
        },
        {
          "duration": 0.08333299999999966,
          "durationTicks": 120,
          "midi": 67,
          "name": "G4",
          "ticks": 21840,
          "time": 15.49994,
          "velocity": 0.7874015748031497
        },
        {
          "duration": 0.1666660000000011,
          "durationTicks": 240,
          "midi": 38,
          "name": "D2",
          "ticks": 21840,
          "time": 15.49994,
          "velocity": 0.7874015748031497
        },
        {
          "duration": 0.1666660000000011,
          "durationTicks": 240,
          "midi": 69,
          "name": "A4",
          "ticks": 21960,
          "time": 15.583273,
          "velocity": 0.7874015748031497
        },
        {
          "duration": 0.16666599999999931,
          "durationTicks": 240,
          "midi": 50,
          "name": "D3",
          "ticks": 22080,
          "time": 15.666606000000002,
          "velocity": 0.7874015748031497
        },
        {
          "duration": 0.16666599999999931,
          "durationTicks": 240,
          "midi": 64,
          "name": "E4",
          "ticks": 22200,
          "time": 15.749939000000001,
          "velocity": 0.7874015748031497
        },
        {
          "duration": 0.16666599999999931,
          "durationTicks": 240,
          "midi": 38,
          "name": "D2",
          "ticks": 22320,
          "time": 15.833272000000001,
          "velocity": 0.7874015748031497
        },
        {
          "duration": 0.16666600000000287,
          "durationTicks": 240,
          "midi": 65,
          "name": "F4",
          "ticks": 22440,
          "time": 15.916605,
          "velocity": 0.7874015748031497
        },
        {
          "duration": 0.16666599999999931,
          "durationTicks": 240,
          "midi": 50,
          "name": "D3",
          "ticks": 22560,
          "time": 15.999938,
          "velocity": 0.7874015748031497
        },
        {
          "duration": 0.0833329999999961,
          "durationTicks": 120,
          "midi": 69,
          "name": "A4",
          "ticks": 22680,
          "time": 16.083271000000003,
          "velocity": 0.7874015748031497
        },
        {
          "duration": 0.16666599999999931,
          "durationTicks": 240,
          "midi": 60,
          "name": "C4",
          "ticks": 22800,
          "time": 16.166604,
          "velocity": 0.7874015748031497
        },
        {
          "duration": 0.16666599999999931,
          "durationTicks": 240,
          "midi": 38,
          "name": "D2",
          "ticks": 22800,
          "time": 16.166604,
          "velocity": 0.7874015748031497
        },
        {
          "duration": 0.16666600000000287,
          "durationTicks": 240,
          "midi": 61,
          "name": "C#4",
          "ticks": 23040,
          "time": 16.33327,
          "velocity": 0.7874015748031497
        },
        {
          "duration": 0.16666600000000287,
          "durationTicks": 240,
          "midi": 50,
          "name": "D3",
          "ticks": 23040,
          "time": 16.33327,
          "velocity": 0.7874015748031497
        },
        {
          "duration": 0.16666599999999931,
          "durationTicks": 240,
          "midi": 62,
          "name": "D4",
          "ticks": 23280,
          "time": 16.499936,
          "velocity": 0.7874015748031497
        },
        {
          "duration": 0.16666599999999931,
          "durationTicks": 240,
          "midi": 38,
          "name": "D2",
          "ticks": 23280,
          "time": 16.499936,
          "velocity": 0.7874015748031497
        },
        {
          "duration": 0.16666599999999931,
          "durationTicks": 240,
          "midi": 69,
          "name": "A4",
          "ticks": 23520,
          "time": 16.666602,
          "velocity": 0.7874015748031497
        },
        {
          "duration": 0.16666599999999931,
          "durationTicks": 240,
          "midi": 50,
          "name": "D3",
          "ticks": 23520,
          "time": 16.666602,
          "velocity": 0.7874015748031497
        },
        {
          "duration": 0.08333299999999966,
          "durationTicks": 120,
          "midi": 67,
          "name": "G4",
          "ticks": 23760,
          "time": 16.833268,
          "velocity": 0.7874015748031497
        },
        {
          "duration": 0.16666599999999931,
          "durationTicks": 240,
          "midi": 38,
          "name": "D2",
          "ticks": 23760,
          "time": 16.833268,
          "velocity": 0.7874015748031497
        },
        {
          "duration": 0.16666599999999931,
          "durationTicks": 240,
          "midi": 69,
          "name": "A4",
          "ticks": 23880,
          "time": 16.916601,
          "velocity": 0.7874015748031497
        },
        {
          "duration": 0.16666600000000287,
          "durationTicks": 240,
          "midi": 50,
          "name": "D3",
          "ticks": 24000,
          "time": 16.999934,
          "velocity": 0.7874015748031497
        },
        {
          "duration": 0.16666600000000287,
          "durationTicks": 240,
          "midi": 64,
          "name": "E4",
          "ticks": 24120,
          "time": 17.083267,
          "velocity": 0.7874015748031497
        },
        {
          "duration": 0.16666599999999931,
          "durationTicks": 240,
          "midi": 38,
          "name": "D2",
          "ticks": 24240,
          "time": 17.166600000000003,
          "velocity": 0.7874015748031497
        },
        {
          "duration": 0.16666599999999931,
          "durationTicks": 240,
          "midi": 65,
          "name": "F4",
          "ticks": 24360,
          "time": 17.249933000000002,
          "velocity": 0.7874015748031497
        },
        {
          "duration": 0.16666599999999931,
          "durationTicks": 240,
          "midi": 50,
          "name": "D3",
          "ticks": 24480,
          "time": 17.333266000000002,
          "velocity": 0.7874015748031497
        },
        {
          "duration": 0.08333299999999966,
          "durationTicks": 120,
          "midi": 69,
          "name": "A4",
          "ticks": 24600,
          "time": 17.416599,
          "velocity": 0.7874015748031497
        },
        {
          "duration": 0.08333299999999966,
          "durationTicks": 120,
          "midi": 67,
          "name": "G4",
          "ticks": 24720,
          "time": 17.499932,
          "velocity": 0.7874015748031497
        },
        {
          "duration": 0.16666599999999931,
          "durationTicks": 240,
          "midi": 38,
          "name": "D2",
          "ticks": 24720,
          "time": 17.499932,
          "velocity": 0.7874015748031497
        },
        {
          "duration": 0.08333299999999966,
          "durationTicks": 120,
          "midi": 65,
          "name": "F4",
          "ticks": 24840,
          "time": 17.583265,
          "velocity": 0.7874015748031497
        },
        {
          "duration": 0.08333299999999966,
          "durationTicks": 120,
          "midi": 64,
          "name": "E4",
          "ticks": 24960,
          "time": 17.666598,
          "velocity": 0.7874015748031497
        },
        {
          "duration": 0.16666599999999931,
          "durationTicks": 240,
          "midi": 50,
          "name": "D3",
          "ticks": 24960,
          "time": 17.666598,
          "velocity": 0.7874015748031497
        },
        {
          "duration": 0.16666599999999931,
          "durationTicks": 240,
          "midi": 62,
          "name": "D4",
          "ticks": 25080,
          "time": 17.749931,
          "velocity": 0.7874015748031497
        },
        {
          "duration": 0.16666600000000287,
          "durationTicks": 240,
          "midi": 38,
          "name": "D2",
          "ticks": 25200,
          "time": 17.833264,
          "velocity": 0.7874015748031497
        },
        {
          "duration": 0.08333300000000321,
          "durationTicks": 120,
          "midi": 62,
          "name": "D4",
          "ticks": 25320,
          "time": 17.916597,
          "velocity": 0.7874015748031497
        },
        {
          "duration": 0.16666599999999931,
          "durationTicks": 240,
          "midi": 69,
          "name": "A4",
          "ticks": 25440,
          "time": 17.999930000000003,
          "velocity": 0.7874015748031497
        },
        {
          "duration": 0.16666599999999931,
          "durationTicks": 240,
          "midi": 50,
          "name": "D3",
          "ticks": 25440,
          "time": 17.999930000000003,
          "velocity": 0.7874015748031497
        },
        {
          "duration": 0.08333299999999966,
          "durationTicks": 120,
          "midi": 67,
          "name": "G4",
          "ticks": 25680,
          "time": 18.166596000000002,
          "velocity": 0.7874015748031497
        },
        {
          "duration": 0.16666599999999931,
          "durationTicks": 240,
          "midi": 38,
          "name": "D2",
          "ticks": 25680,
          "time": 18.166596000000002,
          "velocity": 0.7874015748031497
        },
        {
          "duration": 0.16666599999999931,
          "durationTicks": 240,
          "midi": 69,
          "name": "A4",
          "ticks": 25800,
          "time": 18.249929,
          "velocity": 0.7874015748031497
        },
        {
          "duration": 0.16666599999999931,
          "durationTicks": 240,
          "midi": 50,
          "name": "D3",
          "ticks": 25920,
          "time": 18.333262,
          "velocity": 0.7874015748031497
        },
        {
          "duration": 0.16666599999999931,
          "durationTicks": 240,
          "midi": 64,
          "name": "E4",
          "ticks": 26040,
          "time": 18.416595,
          "velocity": 0.7874015748031497
        },
        {
          "duration": 0.16666599999999931,
          "durationTicks": 240,
          "midi": 38,
          "name": "D2",
          "ticks": 26160,
          "time": 18.499928,
          "velocity": 0.7874015748031497
        },
        {
          "duration": 0.16666599999999931,
          "durationTicks": 240,
          "midi": 65,
          "name": "F4",
          "ticks": 26280,
          "time": 18.583261,
          "velocity": 0.7874015748031497
        },
        {
          "duration": 0.16666599999999931,
          "durationTicks": 240,
          "midi": 50,
          "name": "D3",
          "ticks": 26400,
          "time": 18.666594,
          "velocity": 0.7874015748031497
        },
        {
          "duration": 0.08333299999999966,
          "durationTicks": 120,
          "midi": 69,
          "name": "A4",
          "ticks": 26520,
          "time": 18.749927,
          "velocity": 0.7874015748031497
        },
        {
          "duration": 0.16666600000000287,
          "durationTicks": 240,
          "midi": 60,
          "name": "C4",
          "ticks": 26640,
          "time": 18.83326,
          "velocity": 0.7874015748031497
        },
        {
          "duration": 0.16666600000000287,
          "durationTicks": 240,
          "midi": 38,
          "name": "D2",
          "ticks": 26640,
          "time": 18.83326,
          "velocity": 0.7874015748031497
        },
        {
          "duration": 0.16666599999999931,
          "durationTicks": 240,
          "midi": 61,
          "name": "C#4",
          "ticks": 26880,
          "time": 18.999926000000002,
          "velocity": 0.7874015748031497
        },
        {
          "duration": 0.16666599999999931,
          "durationTicks": 240,
          "midi": 50,
          "name": "D3",
          "ticks": 26880,
          "time": 18.999926000000002,
          "velocity": 0.7874015748031497
        },
        {
          "duration": 0.16666599999999931,
          "durationTicks": 240,
          "midi": 62,
          "name": "D4",
          "ticks": 27120,
          "time": 19.166592,
          "velocity": 0.7874015748031497
        },
        {
          "duration": 0.16666599999999931,
          "durationTicks": 240,
          "midi": 38,
          "name": "D2",
          "ticks": 27120,
          "time": 19.166592,
          "velocity": 0.7874015748031497
        },
        {
          "duration": 0.16666599999999931,
          "durationTicks": 240,
          "midi": 69,
          "name": "A4",
          "ticks": 27360,
          "time": 19.333258,
          "velocity": 0.7874015748031497
        },
        {
          "duration": 0.16666599999999931,
          "durationTicks": 240,
          "midi": 50,
          "name": "D3",
          "ticks": 27360,
          "time": 19.333258,
          "velocity": 0.7874015748031497
        },
        {
          "duration": 0.08333299999999966,
          "durationTicks": 120,
          "midi": 67,
          "name": "G4",
          "ticks": 27600,
          "time": 19.499924,
          "velocity": 0.7874015748031497
        },
        {
          "duration": 0.16666599999999931,
          "durationTicks": 240,
          "midi": 38,
          "name": "D2",
          "ticks": 27600,
          "time": 19.499924,
          "velocity": 0.7874015748031497
        },
        {
          "duration": 0.16666600000000287,
          "durationTicks": 240,
          "midi": 69,
          "name": "A4",
          "ticks": 27720,
          "time": 19.583257,
          "velocity": 0.7874015748031497
        },
        {
          "duration": 0.16666600000000287,
          "durationTicks": 240,
          "midi": 50,
          "name": "D3",
          "ticks": 27840,
          "time": 19.66659,
          "velocity": 0.7874015748031497
        },
        {
          "duration": 0.16666599999999931,
          "durationTicks": 240,
          "midi": 64,
          "name": "E4",
          "ticks": 27960,
          "time": 19.749923000000003,
          "velocity": 0.7874015748031497
        },
        {
          "duration": 0.16666599999999931,
          "durationTicks": 240,
          "midi": 40,
          "name": "E2",
          "ticks": 28080,
          "time": 19.833256000000002,
          "velocity": 0.7874015748031497
        },
        {
          "duration": 0.16666599999999931,
          "durationTicks": 240,
          "midi": 65,
          "name": "F4",
          "ticks": 28200,
          "time": 19.916589000000002,
          "velocity": 0.7874015748031497
        },
        {
          "duration": 0.16666599999999931,
          "durationTicks": 240,
          "midi": 52,
          "name": "E3",
          "ticks": 28320,
          "time": 19.999922,
          "velocity": 0.7874015748031497
        },
        {
          "duration": 0.08333299999999966,
          "durationTicks": 120,
          "midi": 69,
          "name": "A4",
          "ticks": 28440,
          "time": 20.083255,
          "velocity": 0.7874015748031497
        },
        {
          "duration": 0.08333299999999966,
          "durationTicks": 120,
          "midi": 67,
          "name": "G4",
          "ticks": 28560,
          "time": 20.166588,
          "velocity": 0.7874015748031497
        },
        {
          "duration": 0.16666599999999931,
          "durationTicks": 240,
          "midi": 40,
          "name": "E2",
          "ticks": 28560,
          "time": 20.166588,
          "velocity": 0.7874015748031497
        },
        {
          "duration": 0.08333299999999966,
          "durationTicks": 120,
          "midi": 65,
          "name": "F4",
          "ticks": 28680,
          "time": 20.249921,
          "velocity": 0.7874015748031497
        },
        {
          "duration": 0.08333299999999966,
          "durationTicks": 120,
          "midi": 64,
          "name": "E4",
          "ticks": 28800,
          "time": 20.333254,
          "velocity": 0.7874015748031497
        },
        {
          "duration": 0.16666599999999931,
          "durationTicks": 240,
          "midi": 52,
          "name": "E3",
          "ticks": 28800,
          "time": 20.333254,
          "velocity": 0.7874015748031497
        },
        {
          "duration": 0.16666600000000287,
          "durationTicks": 240,
          "midi": 62,
          "name": "D4",
          "ticks": 28920,
          "time": 20.416587,
          "velocity": 0.7874015748031497
        },
        {
          "duration": 0.16666600000000287,
          "durationTicks": 240,
          "midi": 41,
          "name": "F2",
          "ticks": 29040,
          "time": 20.49992,
          "velocity": 0.7874015748031497
        },
        {
          "duration": 0.08333299999999966,
          "durationTicks": 120,
          "midi": 62,
          "name": "D4",
          "ticks": 29160,
          "time": 20.583253000000003,
          "velocity": 0.7874015748031497
        },
        {
          "duration": 0.16666599999999931,
          "durationTicks": 240,
          "midi": 69,
          "name": "A4",
          "ticks": 29280,
          "time": 20.666586000000002,
          "velocity": 0.7874015748031497
        },
        {
          "duration": 0.16666599999999931,
          "durationTicks": 240,
          "midi": 53,
          "name": "F3",
          "ticks": 29280,
          "time": 20.666586000000002,
          "velocity": 0.7874015748031497
        },
        {
          "duration": 0.08333299999999966,
          "durationTicks": 120,
          "midi": 67,
          "name": "G4",
          "ticks": 29520,
          "time": 20.833252,
          "velocity": 0.7874015748031497
        },
        {
          "duration": 0.16666599999999931,
          "durationTicks": 240,
          "midi": 43,
          "name": "G2",
          "ticks": 29520,
          "time": 20.833252,
          "velocity": 0.7874015748031497
        },
        {
          "duration": 0.16666599999999931,
          "durationTicks": 240,
          "midi": 69,
          "name": "A4",
          "ticks": 29640,
          "time": 20.916585,
          "velocity": 0.7874015748031497
        },
        {
          "duration": 0.16666599999999931,
          "durationTicks": 240,
          "midi": 55,
          "name": "G3",
          "ticks": 29760,
          "time": 20.999918,
          "velocity": 0.7874015748031497
        },
        {
          "duration": 0.16666599999999931,
          "durationTicks": 240,
          "midi": 72,
          "name": "C5",
          "ticks": 29880,
          "time": 21.083251,
          "velocity": 0.7874015748031497
        },
        {
          "duration": 0.16666599999999931,
          "durationTicks": 240,
          "midi": 45,
          "name": "A2",
          "ticks": 30000,
          "time": 21.166584,
          "velocity": 0.7874015748031497
        },
        {
          "duration": 0.16666600000000287,
          "durationTicks": 240,
          "midi": 74,
          "name": "D5",
          "ticks": 30120,
          "time": 21.249917,
          "velocity": 0.7874015748031497
        },
        {
          "duration": 0.16666600000000287,
          "durationTicks": 240,
          "midi": 57,
          "name": "A3",
          "ticks": 30240,
          "time": 21.33325,
          "velocity": 0.7874015748031497
        },
        {
          "duration": 0.08333299999999966,
          "durationTicks": 120,
          "midi": 77,
          "name": "F5",
          "ticks": 30360,
          "time": 21.416583000000003,
          "velocity": 0.7874015748031497
        },
        {
          "duration": 0.08333299999999966,
          "durationTicks": 120,
          "midi": 76,
          "name": "E5",
          "ticks": 30480,
          "time": 21.499916000000002,
          "velocity": 0.7874015748031497
        },
        {
          "duration": 0.16666599999999931,
          "durationTicks": 240,
          "midi": 48,
          "name": "C3",
          "ticks": 30480,
          "time": 21.499916000000002,
          "velocity": 0.7874015748031497
        },
        {
          "duration": 0.08333299999999966,
          "durationTicks": 120,
          "midi": 74,
          "name": "D5",
          "ticks": 30600,
          "time": 21.583249000000002,
          "velocity": 0.7874015748031497
        },
        {
          "duration": 0.16666599999999931,
          "durationTicks": 240,
          "midi": 72,
          "name": "C5",
          "ticks": 30720,
          "time": 21.666582000000002,
          "velocity": 0.7874015748031497
        },
        {
          "duration": 0.16666599999999931,
          "durationTicks": 240,
          "midi": 60,
          "name": "C4",
          "ticks": 30720,
          "time": 21.666582000000002,
          "velocity": 0.7874015748031497
        },
        {
          "duration": 0.16666599999999931,
          "durationTicks": 240,
          "midi": 57,
          "name": "A3",
          "ticks": 30960,
          "time": 21.833248,
          "velocity": 0.7874015748031497
        },
        {
          "duration": 0.16666599999999931,
          "durationTicks": 240,
          "midi": 34,
          "name": "A#1",
          "ticks": 30960,
          "time": 21.833248,
          "velocity": 0.7874015748031497
        },
        {
          "duration": 0.16666599999999931,
          "durationTicks": 240,
          "midi": 65,
          "name": "F4",
          "ticks": 31200,
          "time": 21.999914,
          "velocity": 0.7874015748031497
        },
        {
          "duration": 0.16666599999999931,
          "durationTicks": 240,
          "midi": 46,
          "name": "A#2",
          "ticks": 31200,
          "time": 21.999914,
          "velocity": 0.7874015748031497
        },
        {
          "duration": 0.08333299999999966,
          "durationTicks": 120,
          "midi": 64,
          "name": "E4",
          "ticks": 31440,
          "time": 22.16658,
          "velocity": 0.7874015748031497
        },
        {
          "duration": 0.16666600000000287,
          "durationTicks": 240,
          "midi": 34,
          "name": "A#1",
          "ticks": 31440,
          "time": 22.16658,
          "velocity": 0.7874015748031497
        },
        {
          "duration": 0.08333300000000321,
          "durationTicks": 120,
          "midi": 65,
          "name": "F4",
          "ticks": 31560,
          "time": 22.249913,
          "velocity": 0.7874015748031497
        },
        {
          "duration": 0.16666599999999931,
          "durationTicks": 240,
          "midi": 64,
          "name": "E4",
          "ticks": 31680,
          "time": 22.333246000000003,
          "velocity": 0.7874015748031497
        },
        {
          "duration": 0.16666599999999931,
          "durationTicks": 240,
          "midi": 46,
          "name": "A#2",
          "ticks": 31680,
          "time": 22.333246000000003,
          "velocity": 0.7874015748031497
        },
        {
          "duration": 0.16666599999999931,
          "durationTicks": 240,
          "midi": 67,
          "name": "G4",
          "ticks": 31920,
          "time": 22.499912000000002,
          "velocity": 0.7874015748031497
        },
        {
          "duration": 0.16666599999999931,
          "durationTicks": 240,
          "midi": 36,
          "name": "C2",
          "ticks": 31920,
          "time": 22.499912000000002,
          "velocity": 0.7874015748031497
        },
        {
          "duration": 0.16666599999999931,
          "durationTicks": 240,
          "midi": 65,
          "name": "F4",
          "ticks": 32160,
          "time": 22.666578,
          "velocity": 0.7874015748031497
        },
        {
          "duration": 0.16666599999999931,
          "durationTicks": 240,
          "midi": 48,
          "name": "C3",
          "ticks": 32160,
          "time": 22.666578,
          "velocity": 0.7874015748031497
        },
        {
          "duration": 0.08333299999999966,
          "durationTicks": 120,
          "midi": 64,
          "name": "E4",
          "ticks": 32400,
          "time": 22.833244,
          "velocity": 0.7874015748031497
        },
        {
          "duration": 0.16666599999999931,
          "durationTicks": 240,
          "midi": 36,
          "name": "C2",
          "ticks": 32400,
          "time": 22.833244,
          "velocity": 0.7874015748031497
        },
        {
          "duration": 0.08333299999999966,
          "durationTicks": 120,
          "midi": 65,
          "name": "F4",
          "ticks": 32520,
          "time": 22.916577,
          "velocity": 0.7874015748031497
        },
        {
          "duration": 0.08333299999999966,
          "durationTicks": 120,
          "midi": 64,
          "name": "E4",
          "ticks": 32640,
          "time": 22.99991,
          "velocity": 0.7874015748031497
        },
        {
          "duration": 0.16666600000000287,
          "durationTicks": 240,
          "midi": 48,
          "name": "C3",
          "ticks": 32640,
          "time": 22.99991,
          "velocity": 0.7874015748031497
        },
        {
          "duration": 0.08333300000000321,
          "durationTicks": 120,
          "midi": 60,
          "name": "C4",
          "ticks": 32760,
          "time": 23.083243,
          "velocity": 0.7874015748031497
        },
        {
          "duration": 0.16666599999999931,
          "durationTicks": 240,
          "midi": 62,
          "name": "D4",
          "ticks": 32880,
          "time": 23.166576000000003,
          "velocity": 0.7874015748031497
        },
        {
          "duration": 0.16666599999999931,
          "durationTicks": 240,
          "midi": 38,
          "name": "D2",
          "ticks": 32880,
          "time": 23.166576000000003,
          "velocity": 0.7874015748031497
        },
        {
          "duration": 0.16666599999999931,
          "durationTicks": 240,
          "midi": 69,
          "name": "A4",
          "ticks": 33120,
          "time": 23.333242000000002,
          "velocity": 0.7874015748031497
        },
        {
          "duration": 0.16666599999999931,
          "durationTicks": 240,
          "midi": 50,
          "name": "D3",
          "ticks": 33120,
          "time": 23.333242000000002,
          "velocity": 0.7874015748031497
        },
        {
          "duration": 0.08333299999999966,
          "durationTicks": 120,
          "midi": 67,
          "name": "G4",
          "ticks": 33360,
          "time": 23.499908,
          "velocity": 0.7874015748031497
        },
        {
          "duration": 0.16666599999999931,
          "durationTicks": 240,
          "midi": 38,
          "name": "D2",
          "ticks": 33360,
          "time": 23.499908,
          "velocity": 0.7874015748031497
        },
        {
          "duration": 0.08333299999999966,
          "durationTicks": 120,
          "midi": 69,
          "name": "A4",
          "ticks": 33480,
          "time": 23.583241,
          "velocity": 0.7874015748031497
        },
        {
          "duration": 0.08333299999999966,
          "durationTicks": 120,
          "midi": 67,
          "name": "G4",
          "ticks": 33600,
          "time": 23.666574,
          "velocity": 0.7874015748031497
        },
        {
          "duration": 0.16666599999999931,
          "durationTicks": 240,
          "midi": 50,
          "name": "D3",
          "ticks": 33600,
          "time": 23.666574,
          "velocity": 0.7874015748031497
        },
        {
          "duration": 0.08333299999999966,
          "durationTicks": 120,
          "midi": 69,
          "name": "A4",
          "ticks": 33720,
          "time": 23.749907,
          "velocity": 0.7874015748031497
        },
        {
          "duration": 0.16666600000000287,
          "durationTicks": 240,
          "midi": 72,
          "name": "C5",
          "ticks": 33840,
          "time": 23.83324,
          "velocity": 0.7874015748031497
        },
        {
          "duration": 0.16666600000000287,
          "durationTicks": 240,
          "midi": 38,
          "name": "D2",
          "ticks": 33840,
          "time": 23.83324,
          "velocity": 0.7874015748031497
        },
        {
          "duration": 0.16666599999999931,
          "durationTicks": 240,
          "midi": 69,
          "name": "A4",
          "ticks": 34080,
          "time": 23.999906000000003,
          "velocity": 0.7874015748031497
        },
        {
          "duration": 0.16666599999999931,
          "durationTicks": 240,
          "midi": 50,
          "name": "D3",
          "ticks": 34080,
          "time": 23.999906000000003,
          "velocity": 0.7874015748031497
        },
        {
          "duration": 0.16666599999999931,
          "durationTicks": 240,
          "midi": 67,
          "name": "G4",
          "ticks": 34320,
          "time": 24.166572000000002,
          "velocity": 0.7874015748031497
        },
        {
          "duration": 0.16666599999999931,
          "durationTicks": 240,
          "midi": 36,
          "name": "C2",
          "ticks": 34320,
          "time": 24.166572000000002,
          "velocity": 0.7874015748031497
        },
        {
          "duration": 0.16666599999999931,
          "durationTicks": 240,
          "midi": 69,
          "name": "A4",
          "ticks": 34560,
          "time": 24.333238,
          "velocity": 0.7874015748031497
        },
        {
          "duration": 0.16666599999999931,
          "durationTicks": 240,
          "midi": 48,
          "name": "C3",
          "ticks": 34560,
          "time": 24.333238,
          "velocity": 0.7874015748031497
        },
        {
          "duration": 0.16666599999999931,
          "durationTicks": 240,
          "midi": 57,
          "name": "A3",
          "ticks": 34800,
          "time": 24.499904,
          "velocity": 0.7874015748031497
        },
        {
          "duration": 0.16666599999999931,
          "durationTicks": 240,
          "midi": 34,
          "name": "A#1",
          "ticks": 34800,
          "time": 24.499904,
          "velocity": 0.7874015748031497
        },
        {
          "duration": 0.16666600000000287,
          "durationTicks": 240,
          "midi": 65,
          "name": "F4",
          "ticks": 35040,
          "time": 24.66657,
          "velocity": 0.7874015748031497
        },
        {
          "duration": 0.16666600000000287,
          "durationTicks": 240,
          "midi": 46,
          "name": "A#2",
          "ticks": 35040,
          "time": 24.66657,
          "velocity": 0.7874015748031497
        },
        {
          "duration": 0.08333299999999966,
          "durationTicks": 120,
          "midi": 64,
          "name": "E4",
          "ticks": 35280,
          "time": 24.833236000000003,
          "velocity": 0.7874015748031497
        },
        {
          "duration": 0.16666599999999931,
          "durationTicks": 240,
          "midi": 34,
          "name": "A#1",
          "ticks": 35280,
          "time": 24.833236000000003,
          "velocity": 0.7874015748031497
        },
        {
          "duration": 0.08333299999999966,
          "durationTicks": 120,
          "midi": 65,
          "name": "F4",
          "ticks": 35400,
          "time": 24.916569000000003,
          "velocity": 0.7874015748031497
        },
        {
          "duration": 0.16666599999999931,
          "durationTicks": 240,
          "midi": 64,
          "name": "E4",
          "ticks": 35520,
          "time": 24.999902000000002,
          "velocity": 0.7874015748031497
        },
        {
          "duration": 0.16666599999999931,
          "durationTicks": 240,
          "midi": 46,
          "name": "A#2",
          "ticks": 35520,
          "time": 24.999902000000002,
          "velocity": 0.7874015748031497
        },
        {
          "duration": 0.16666599999999931,
          "durationTicks": 240,
          "midi": 67,
          "name": "G4",
          "ticks": 35760,
          "time": 25.166568,
          "velocity": 0.7874015748031497
        },
        {
          "duration": 0.16666599999999931,
          "durationTicks": 240,
          "midi": 36,
          "name": "C2",
          "ticks": 35760,
          "time": 25.166568,
          "velocity": 0.7874015748031497
        },
        {
          "duration": 0.16666599999999931,
          "durationTicks": 240,
          "midi": 65,
          "name": "F4",
          "ticks": 36000,
          "time": 25.333234,
          "velocity": 0.7874015748031497
        },
        {
          "duration": 0.16666599999999931,
          "durationTicks": 240,
          "midi": 48,
          "name": "C3",
          "ticks": 36000,
          "time": 25.333234,
          "velocity": 0.7874015748031497
        },
        {
          "duration": 0.08333299999999966,
          "durationTicks": 120,
          "midi": 64,
          "name": "E4",
          "ticks": 36240,
          "time": 25.4999,
          "velocity": 0.7874015748031497
        },
        {
          "duration": 0.16666599999999931,
          "durationTicks": 240,
          "midi": 36,
          "name": "C2",
          "ticks": 36240,
          "time": 25.4999,
          "velocity": 0.7874015748031497
        },
        {
          "duration": 0.08333299999999966,
          "durationTicks": 120,
          "midi": 65,
          "name": "F4",
          "ticks": 36360,
          "time": 25.583233,
          "velocity": 0.7874015748031497
        },
        {
          "duration": 0.08333300000000321,
          "durationTicks": 120,
          "midi": 64,
          "name": "E4",
          "ticks": 36480,
          "time": 25.666566,
          "velocity": 0.7874015748031497
        },
        {
          "duration": 0.16666600000000287,
          "durationTicks": 240,
          "midi": 48,
          "name": "C3",
          "ticks": 36480,
          "time": 25.666566,
          "velocity": 0.7874015748031497
        },
        {
          "duration": 0.08333299999999966,
          "durationTicks": 120,
          "midi": 60,
          "name": "C4",
          "ticks": 36600,
          "time": 25.749899000000003,
          "velocity": 0.7874015748031497
        },
        {
          "duration": 0.16666599999999931,
          "durationTicks": 240,
          "midi": 62,
          "name": "D4",
          "ticks": 36720,
          "time": 25.833232000000002,
          "velocity": 0.7874015748031497
        },
        {
          "duration": 0.16666599999999931,
          "durationTicks": 240,
          "midi": 38,
          "name": "D2",
          "ticks": 36720,
          "time": 25.833232000000002,
          "velocity": 0.7874015748031497
        },
        {
          "duration": 0.16666599999999931,
          "durationTicks": 240,
          "midi": 69,
          "name": "A4",
          "ticks": 36960,
          "time": 25.999898,
          "velocity": 0.7874015748031497
        },
        {
          "duration": 0.16666599999999931,
          "durationTicks": 240,
          "midi": 50,
          "name": "D3",
          "ticks": 36960,
          "time": 25.999898,
          "velocity": 0.7874015748031497
        },
        {
          "duration": 0.08333299999999966,
          "durationTicks": 120,
          "midi": 67,
          "name": "G4",
          "ticks": 37200,
          "time": 26.166564,
          "velocity": 0.7874015748031497
        },
        {
          "duration": 0.16666599999999931,
          "durationTicks": 240,
          "midi": 40,
          "name": "E2",
          "ticks": 37200,
          "time": 26.166564,
          "velocity": 0.7874015748031497
        },
        {
          "duration": 0.08333299999999966,
          "durationTicks": 120,
          "midi": 69,
          "name": "A4",
          "ticks": 37320,
          "time": 26.249897,
          "velocity": 0.7874015748031497
        },
        {
          "duration": 0.08333299999999966,
          "durationTicks": 120,
          "midi": 67,
          "name": "G4",
          "ticks": 37440,
          "time": 26.33323,
          "velocity": 0.7874015748031497
        },
        {
          "duration": 0.16666599999999931,
          "durationTicks": 240,
          "midi": 52,
          "name": "E3",
          "ticks": 37440,
          "time": 26.33323,
          "velocity": 0.7874015748031497
        },
        {
          "duration": 0.08333299999999966,
          "durationTicks": 120,
          "midi": 69,
          "name": "A4",
          "ticks": 37560,
          "time": 26.416563,
          "velocity": 0.7874015748031497
        },
        {
          "duration": 0.16666600000000287,
          "durationTicks": 240,
          "midi": 73,
          "name": "C#5",
          "ticks": 37680,
          "time": 26.499896,
          "velocity": 0.7874015748031497
        },
        {
          "duration": 0.16666600000000287,
          "durationTicks": 240,
          "midi": 41,
          "name": "F2",
          "ticks": 37680,
          "time": 26.499896,
          "velocity": 0.7874015748031497
        },
        {
          "duration": 0.16666599999999931,
          "durationTicks": 240,
          "midi": 69,
          "name": "A4",
          "ticks": 37920,
          "time": 26.666562000000003,
          "velocity": 0.7874015748031497
        },
        {
          "duration": 0.16666599999999931,
          "durationTicks": 240,
          "midi": 53,
          "name": "F3",
          "ticks": 37920,
          "time": 26.666562000000003,
          "velocity": 0.7874015748031497
        },
        {
          "duration": 0.16666599999999931,
          "durationTicks": 240,
          "midi": 67,
          "name": "G4",
          "ticks": 38160,
          "time": 26.833228000000002,
          "velocity": 0.7874015748031497
        },
        {
          "duration": 0.16666599999999931,
          "durationTicks": 240,
          "midi": 43,
          "name": "G2",
          "ticks": 38160,
          "time": 26.833228000000002,
          "velocity": 0.7874015748031497
        },
        {
          "duration": 0.16666599999999931,
          "durationTicks": 240,
          "midi": 69,
          "name": "A4",
          "ticks": 38400,
          "time": 26.999894,
          "velocity": 0.7874015748031497
        },
        {
          "duration": 0.16666599999999931,
          "durationTicks": 240,
          "midi": 55,
          "name": "G3",
          "ticks": 38400,
          "time": 26.999894,
          "velocity": 0.7874015748031497
        },
        {
          "duration": 0.16666599999999931,
          "durationTicks": 240,
          "midi": 57,
          "name": "A3",
          "ticks": 38640,
          "time": 27.16656,
          "velocity": 0.7874015748031497
        },
        {
          "duration": 0.16666599999999931,
          "durationTicks": 240,
          "midi": 34,
          "name": "A#1",
          "ticks": 38640,
          "time": 27.16656,
          "velocity": 0.7874015748031497
        },
        {
          "duration": 0.16666600000000287,
          "durationTicks": 240,
          "midi": 65,
          "name": "F4",
          "ticks": 38880,
          "time": 27.333226,
          "velocity": 0.7874015748031497
        },
        {
          "duration": 0.16666600000000287,
          "durationTicks": 240,
          "midi": 46,
          "name": "A#2",
          "ticks": 38880,
          "time": 27.333226,
          "velocity": 0.7874015748031497
        },
        {
          "duration": 0.08333299999999966,
          "durationTicks": 120,
          "midi": 64,
          "name": "E4",
          "ticks": 39120,
          "time": 27.499892000000003,
          "velocity": 0.7874015748031497
        },
        {
          "duration": 0.16666599999999931,
          "durationTicks": 240,
          "midi": 34,
          "name": "A#1",
          "ticks": 39120,
          "time": 27.499892000000003,
          "velocity": 0.7874015748031497
        },
        {
          "duration": 0.08333299999999966,
          "durationTicks": 120,
          "midi": 65,
          "name": "F4",
          "ticks": 39240,
          "time": 27.583225000000002,
          "velocity": 0.7874015748031497
        },
        {
          "duration": 0.16666599999999931,
          "durationTicks": 240,
          "midi": 64,
          "name": "E4",
          "ticks": 39360,
          "time": 27.666558000000002,
          "velocity": 0.7874015748031497
        },
        {
          "duration": 0.16666599999999931,
          "durationTicks": 240,
          "midi": 46,
          "name": "A#2",
          "ticks": 39360,
          "time": 27.666558000000002,
          "velocity": 0.7874015748031497
        },
        {
          "duration": 0.16666599999999931,
          "durationTicks": 240,
          "midi": 67,
          "name": "G4",
          "ticks": 39600,
          "time": 27.833224,
          "velocity": 0.7874015748031497
        },
        {
          "duration": 0.16666599999999931,
          "durationTicks": 240,
          "midi": 36,
          "name": "C2",
          "ticks": 39600,
          "time": 27.833224,
          "velocity": 0.7874015748031497
        },
        {
          "duration": 0.16666599999999931,
          "durationTicks": 240,
          "midi": 65,
          "name": "F4",
          "ticks": 39840,
          "time": 27.99989,
          "velocity": 0.7874015748031497
        },
        {
          "duration": 0.16666599999999931,
          "durationTicks": 240,
          "midi": 48,
          "name": "C3",
          "ticks": 39840,
          "time": 27.99989,
          "velocity": 0.7874015748031497
        },
        {
          "duration": 0.08333300000000321,
          "durationTicks": 120,
          "midi": 64,
          "name": "E4",
          "ticks": 40080,
          "time": 28.166556,
          "velocity": 0.7874015748031497
        },
        {
          "duration": 0.16666600000000287,
          "durationTicks": 240,
          "midi": 36,
          "name": "C2",
          "ticks": 40080,
          "time": 28.166556,
          "velocity": 0.7874015748031497
        },
        {
          "duration": 0.08333299999999966,
          "durationTicks": 120,
          "midi": 65,
          "name": "F4",
          "ticks": 40200,
          "time": 28.249889000000003,
          "velocity": 0.7874015748031497
        },
        {
          "duration": 0.08333299999999966,
          "durationTicks": 120,
          "midi": 64,
          "name": "E4",
          "ticks": 40320,
          "time": 28.333222000000003,
          "velocity": 0.7874015748031497
        },
        {
          "duration": 0.16666599999999931,
          "durationTicks": 240,
          "midi": 48,
          "name": "C3",
          "ticks": 40320,
          "time": 28.333222000000003,
          "velocity": 0.7874015748031497
        },
        {
          "duration": 0.08333299999999966,
          "durationTicks": 120,
          "midi": 60,
          "name": "C4",
          "ticks": 40440,
          "time": 28.416555000000002,
          "velocity": 0.7874015748031497
        },
        {
          "duration": 0.16666599999999931,
          "durationTicks": 240,
          "midi": 62,
          "name": "D4",
          "ticks": 40560,
          "time": 28.499888000000002,
          "velocity": 0.7874015748031497
        },
        {
          "duration": 0.16666599999999931,
          "durationTicks": 240,
          "midi": 38,
          "name": "D2",
          "ticks": 40560,
          "time": 28.499888000000002,
          "velocity": 0.7874015748031497
        },
        {
          "duration": 0.16666599999999931,
          "durationTicks": 240,
          "midi": 69,
          "name": "A4",
          "ticks": 40800,
          "time": 28.666554,
          "velocity": 0.7874015748031497
        },
        {
          "duration": 0.16666599999999931,
          "durationTicks": 240,
          "midi": 50,
          "name": "D3",
          "ticks": 40800,
          "time": 28.666554,
          "velocity": 0.7874015748031497
        },
        {
          "duration": 0.08333299999999966,
          "durationTicks": 120,
          "midi": 67,
          "name": "G4",
          "ticks": 41040,
          "time": 28.83322,
          "velocity": 0.7874015748031497
        },
        {
          "duration": 0.16666599999999931,
          "durationTicks": 240,
          "midi": 38,
          "name": "D2",
          "ticks": 41040,
          "time": 28.83322,
          "velocity": 0.7874015748031497
        },
        {
          "duration": 0.08333299999999966,
          "durationTicks": 120,
          "midi": 69,
          "name": "A4",
          "ticks": 41160,
          "time": 28.916553,
          "velocity": 0.7874015748031497
        },
        {
          "duration": 0.08333299999999966,
          "durationTicks": 120,
          "midi": 67,
          "name": "G4",
          "ticks": 41280,
          "time": 28.999886,
          "velocity": 0.7874015748031497
        },
        {
          "duration": 0.16666600000000287,
          "durationTicks": 240,
          "midi": 50,
          "name": "D3",
          "ticks": 41280,
          "time": 28.999886,
          "velocity": 0.7874015748031497
        },
        {
          "duration": 0.08333300000000321,
          "durationTicks": 120,
          "midi": 69,
          "name": "A4",
          "ticks": 41400,
          "time": 29.083219,
          "velocity": 0.7874015748031497
        },
        {
          "duration": 0.16666599999999931,
          "durationTicks": 240,
          "midi": 72,
          "name": "C5",
          "ticks": 41520,
          "time": 29.166552000000003,
          "velocity": 0.7874015748031497
        },
        {
          "duration": 0.16666599999999931,
          "durationTicks": 240,
          "midi": 38,
          "name": "D2",
          "ticks": 41520,
          "time": 29.166552000000003,
          "velocity": 0.7874015748031497
        },
        {
          "duration": 0.16666599999999931,
          "durationTicks": 240,
          "midi": 69,
          "name": "A4",
          "ticks": 41760,
          "time": 29.333218000000002,
          "velocity": 0.7874015748031497
        },
        {
          "duration": 0.16666599999999931,
          "durationTicks": 240,
          "midi": 50,
          "name": "D3",
          "ticks": 41760,
          "time": 29.333218000000002,
          "velocity": 0.7874015748031497
        },
        {
          "duration": 0.16666599999999931,
          "durationTicks": 240,
          "midi": 65,
          "name": "F4",
          "ticks": 42000,
          "time": 29.499884,
          "velocity": 0.7874015748031497
        },
        {
          "duration": 0.16666599999999931,
          "durationTicks": 240,
          "midi": 36,
          "name": "C2",
          "ticks": 42000,
          "time": 29.499884,
          "velocity": 0.7874015748031497
        },
        {
          "duration": 0.16666599999999931,
          "durationTicks": 240,
          "midi": 66,
          "name": "F#4",
          "ticks": 42240,
          "time": 29.66655,
          "velocity": 0.7874015748031497
        },
        {
          "duration": 0.16666599999999931,
          "durationTicks": 240,
          "midi": 48,
          "name": "C3",
          "ticks": 42240,
          "time": 29.66655,
          "velocity": 0.7874015748031497
        },
        {
          "duration": 0.16666600000000287,
          "durationTicks": 240,
          "midi": 67,
          "name": "G4",
          "ticks": 42480,
          "time": 29.833216,
          "velocity": 0.7874015748031497
        },
        {
          "duration": 0.16666600000000287,
          "durationTicks": 240,
          "midi": 31,
          "name": "G1",
          "ticks": 42480,
          "time": 29.833216,
          "velocity": 0.7874015748031497
        },
        {
          "duration": 0.08333299999999966,
          "durationTicks": 120,
          "midi": 58,
          "name": "A#3",
          "ticks": 42720,
          "time": 29.999882000000003,
          "velocity": 0.7874015748031497
        },
        {
          "duration": 0.16666599999999931,
          "durationTicks": 240,
          "midi": 43,
          "name": "G2",
          "ticks": 42720,
          "time": 29.999882000000003,
          "velocity": 0.7874015748031497
        },
        {
          "duration": 0.08333299999999966,
          "durationTicks": 120,
          "midi": 67,
          "name": "G4",
          "ticks": 42840,
          "time": 30.083215000000003,
          "velocity": 0.7874015748031497
        },
        {
          "duration": 0.16666599999999931,
          "durationTicks": 240,
          "midi": 58,
          "name": "A#3",
          "ticks": 42960,
          "time": 30.166548000000002,
          "velocity": 0.7874015748031497
        },
        {
          "duration": 0.16666599999999931,
          "durationTicks": 240,
          "midi": 31,
          "name": "G1",
          "ticks": 42960,
          "time": 30.166548000000002,
          "velocity": 0.7874015748031497
        },
        {
          "duration": 0.16666599999999931,
          "durationTicks": 240,
          "midi": 67,
          "name": "G4",
          "ticks": 43200,
          "time": 30.333214,
          "velocity": 0.7874015748031497
        },
        {
          "duration": 0.16666599999999931,
          "durationTicks": 240,
          "midi": 43,
          "name": "G2",
          "ticks": 43200,
          "time": 30.333214,
          "velocity": 0.7874015748031497
        },
        {
          "duration": 0.16666599999999931,
          "durationTicks": 240,
          "midi": 69,
          "name": "A4",
          "ticks": 43440,
          "time": 30.49988,
          "velocity": 0.7874015748031497
        },
        {
          "duration": 0.16666599999999931,
          "durationTicks": 240,
          "midi": 33,
          "name": "A1",
          "ticks": 43440,
          "time": 30.49988,
          "velocity": 0.7874015748031497
        },
        {
          "duration": 0.08333299999999966,
          "durationTicks": 120,
          "midi": 60,
          "name": "C4",
          "ticks": 43680,
          "time": 30.666546,
          "velocity": 0.7874015748031497
        },
        {
          "duration": 0.16666600000000287,
          "durationTicks": 240,
          "midi": 45,
          "name": "A2",
          "ticks": 43680,
          "time": 30.666546,
          "velocity": 0.7874015748031497
        },
        {
          "duration": 0.08333300000000321,
          "durationTicks": 120,
          "midi": 69,
          "name": "A4",
          "ticks": 43800,
          "time": 30.749879,
          "velocity": 0.7874015748031497
        },
        {
          "duration": 0.16666599999999931,
          "durationTicks": 240,
          "midi": 60,
          "name": "C4",
          "ticks": 43920,
          "time": 30.833212000000003,
          "velocity": 0.7874015748031497
        },
        {
          "duration": 0.16666599999999931,
          "durationTicks": 240,
          "midi": 33,
          "name": "A1",
          "ticks": 43920,
          "time": 30.833212000000003,
          "velocity": 0.7874015748031497
        },
        {
          "duration": 0.16666599999999931,
          "durationTicks": 240,
          "midi": 69,
          "name": "A4",
          "ticks": 44160,
          "time": 30.999878000000002,
          "velocity": 0.7874015748031497
        },
        {
          "duration": 0.16666599999999931,
          "durationTicks": 240,
          "midi": 45,
          "name": "A2",
          "ticks": 44160,
          "time": 30.999878000000002,
          "velocity": 0.7874015748031497
        },
        {
          "duration": 0.16666599999999931,
          "durationTicks": 240,
          "midi": 70,
          "name": "A#4",
          "ticks": 44400,
          "time": 31.166544000000002,
          "velocity": 0.7874015748031497
        },
        {
          "duration": 0.16666599999999931,
          "durationTicks": 240,
          "midi": 34,
          "name": "A#1",
          "ticks": 44400,
          "time": 31.166544000000002,
          "velocity": 0.7874015748031497
        },
        {
          "duration": 0.08333299999999966,
          "durationTicks": 120,
          "midi": 70,
          "name": "A#4",
          "ticks": 44640,
          "time": 31.33321,
          "velocity": 0.7874015748031497
        },
        {
          "duration": 0.16666599999999931,
          "durationTicks": 240,
          "midi": 46,
          "name": "A#2",
          "ticks": 44640,
          "time": 31.33321,
          "velocity": 0.7874015748031497
        },
        {
          "duration": 0.08333299999999966,
          "durationTicks": 120,
          "midi": 70,
          "name": "A#4",
          "ticks": 44760,
          "time": 31.416543,
          "velocity": 0.7874015748031497
        },
        {
          "duration": 0.16666600000000287,
          "durationTicks": 240,
          "midi": 70,
          "name": "A#4",
          "ticks": 44880,
          "time": 31.499876,
          "velocity": 0.7874015748031497
        },
        {
          "duration": 0.16666600000000287,
          "durationTicks": 240,
          "midi": 35,
          "name": "B1",
          "ticks": 44880,
          "time": 31.499876,
          "velocity": 0.7874015748031497
        },
        {
          "duration": 0.16666599999999931,
          "durationTicks": 240,
          "midi": 71,
          "name": "B4",
          "ticks": 45120,
          "time": 31.666542000000003,
          "velocity": 0.7874015748031497
        },
        {
          "duration": 0.16666599999999931,
          "durationTicks": 240,
          "midi": 47,
          "name": "B2",
          "ticks": 45120,
          "time": 31.666542000000003,
          "velocity": 0.7874015748031497
        },
        {
          "duration": 0.6666640000000008,
          "durationTicks": 960,
          "midi": 72,
          "name": "C5",
          "ticks": 45360,
          "time": 31.833208000000003,
          "velocity": 0.7874015748031497
        },
        {
          "duration": 0.16666599999999931,
          "durationTicks": 240,
          "midi": 36,
          "name": "C2",
          "ticks": 45360,
          "time": 31.833208000000003,
          "velocity": 0.7874015748031497
        },
        {
          "duration": 0.16666599999999576,
          "durationTicks": 240,
          "midi": 48,
          "name": "C3",
          "ticks": 45600,
          "time": 31.999874000000002,
          "velocity": 0.7874015748031497
        },
        {
          "duration": 0.16666600000000642,
          "durationTicks": 240,
          "midi": 36,
          "name": "C2",
          "ticks": 45840,
          "time": 32.16654,
          "velocity": 0.7874015748031497
        },
        {
          "duration": 0.16666599999999931,
          "durationTicks": 240,
          "midi": 48,
          "name": "C3",
          "ticks": 46080,
          "time": 32.333206000000004,
          "velocity": 0.7874015748031497
        },
        {
          "duration": 0.16666599999999931,
          "durationTicks": 240,
          "midi": 57,
          "name": "A3",
          "ticks": 46320,
          "time": 32.499872,
          "velocity": 0.7874015748031497
        },
        {
          "duration": 0.16666599999999931,
          "durationTicks": 240,
          "midi": 34,
          "name": "A#1",
          "ticks": 46320,
          "time": 32.499872,
          "velocity": 0.7874015748031497
        },
        {
          "duration": 0.16666599999999931,
          "durationTicks": 240,
          "midi": 65,
          "name": "F4",
          "ticks": 46560,
          "time": 32.666538,
          "velocity": 0.7874015748031497
        },
        {
          "duration": 0.16666599999999931,
          "durationTicks": 240,
          "midi": 46,
          "name": "A#2",
          "ticks": 46560,
          "time": 32.666538,
          "velocity": 0.7874015748031497
        },
        {
          "duration": 0.0833329999999961,
          "durationTicks": 120,
          "midi": 64,
          "name": "E4",
          "ticks": 46800,
          "time": 32.833204,
          "velocity": 0.7874015748031497
        },
        {
          "duration": 0.16666599999999931,
          "durationTicks": 240,
          "midi": 34,
          "name": "A#1",
          "ticks": 46800,
          "time": 32.833204,
          "velocity": 0.7874015748031497
        },
        {
          "duration": 0.08333300000000321,
          "durationTicks": 120,
          "midi": 65,
          "name": "F4",
          "ticks": 46920,
          "time": 32.916537,
          "velocity": 0.7874015748031497
        },
        {
          "duration": 0.16666599999999931,
          "durationTicks": 240,
          "midi": 64,
          "name": "E4",
          "ticks": 47040,
          "time": 32.99987,
          "velocity": 0.7874015748031497
        },
        {
          "duration": 0.16666599999999931,
          "durationTicks": 240,
          "midi": 46,
          "name": "A#2",
          "ticks": 47040,
          "time": 32.99987,
          "velocity": 0.7874015748031497
        },
        {
          "duration": 0.16666599999999931,
          "durationTicks": 240,
          "midi": 67,
          "name": "G4",
          "ticks": 47280,
          "time": 33.166536,
          "velocity": 0.7874015748031497
        },
        {
          "duration": 0.16666599999999931,
          "durationTicks": 240,
          "midi": 36,
          "name": "C2",
          "ticks": 47280,
          "time": 33.166536,
          "velocity": 0.7874015748031497
        },
        {
          "duration": 0.16666599999999931,
          "durationTicks": 240,
          "midi": 65,
          "name": "F4",
          "ticks": 47520,
          "time": 33.333202,
          "velocity": 0.7874015748031497
        },
        {
          "duration": 0.16666599999999931,
          "durationTicks": 240,
          "midi": 48,
          "name": "C3",
          "ticks": 47520,
          "time": 33.333202,
          "velocity": 0.7874015748031497
        },
        {
          "duration": 0.08333300000000321,
          "durationTicks": 120,
          "midi": 64,
          "name": "E4",
          "ticks": 47760,
          "time": 33.499868,
          "velocity": 0.7874015748031497
        },
        {
          "duration": 0.16666599999999931,
          "durationTicks": 240,
          "midi": 36,
          "name": "C2",
          "ticks": 47760,
          "time": 33.499868,
          "velocity": 0.7874015748031497
        },
        {
          "duration": 0.0833329999999961,
          "durationTicks": 120,
          "midi": 65,
          "name": "F4",
          "ticks": 47880,
          "time": 33.583201,
          "velocity": 0.7874015748031497
        },
        {
          "duration": 0.08333300000000321,
          "durationTicks": 120,
          "midi": 64,
          "name": "E4",
          "ticks": 48000,
          "time": 33.666534,
          "velocity": 0.7874015748031497
        },
        {
          "duration": 0.16666600000000642,
          "durationTicks": 240,
          "midi": 48,
          "name": "C3",
          "ticks": 48000,
          "time": 33.666534,
          "velocity": 0.7874015748031497
        },
        {
          "duration": 0.08333300000000321,
          "durationTicks": 120,
          "midi": 60,
          "name": "C4",
          "ticks": 48120,
          "time": 33.749867,
          "velocity": 0.7874015748031497
        },
        {
          "duration": 0.16666599999999931,
          "durationTicks": 240,
          "midi": 62,
          "name": "D4",
          "ticks": 48240,
          "time": 33.833200000000005,
          "velocity": 0.7874015748031497
        },
        {
          "duration": 0.16666599999999931,
          "durationTicks": 240,
          "midi": 38,
          "name": "D2",
          "ticks": 48240,
          "time": 33.833200000000005,
          "velocity": 0.7874015748031497
        },
        {
          "duration": 0.16666599999999931,
          "durationTicks": 240,
          "midi": 69,
          "name": "A4",
          "ticks": 48480,
          "time": 33.999866000000004,
          "velocity": 0.7874015748031497
        },
        {
          "duration": 0.16666599999999931,
          "durationTicks": 240,
          "midi": 50,
          "name": "D3",
          "ticks": 48480,
          "time": 33.999866000000004,
          "velocity": 0.7874015748031497
        },
        {
          "duration": 0.0833329999999961,
          "durationTicks": 120,
          "midi": 67,
          "name": "G4",
          "ticks": 48720,
          "time": 34.166532000000004,
          "velocity": 0.7874015748031497
        },
        {
          "duration": 0.16666599999999931,
          "durationTicks": 240,
          "midi": 38,
          "name": "D2",
          "ticks": 48720,
          "time": 34.166532000000004,
          "velocity": 0.7874015748031497
        },
        {
          "duration": 0.08333300000000321,
          "durationTicks": 120,
          "midi": 69,
          "name": "A4",
          "ticks": 48840,
          "time": 34.249865,
          "velocity": 0.7874015748031497
        },
        {
          "duration": 0.0833329999999961,
          "durationTicks": 120,
          "midi": 67,
          "name": "G4",
          "ticks": 48960,
          "time": 34.333198,
          "velocity": 0.7874015748031497
        },
        {
          "duration": 0.16666599999999931,
          "durationTicks": 240,
          "midi": 50,
          "name": "D3",
          "ticks": 48960,
          "time": 34.333198,
          "velocity": 0.7874015748031497
        },
        {
          "duration": 0.08333300000000321,
          "durationTicks": 120,
          "midi": 69,
          "name": "A4",
          "ticks": 49080,
          "time": 34.416531,
          "velocity": 0.7874015748031497
        },
        {
          "duration": 0.16666599999999931,
          "durationTicks": 240,
          "midi": 72,
          "name": "C5",
          "ticks": 49200,
          "time": 34.499864,
          "velocity": 0.7874015748031497
        },
        {
          "duration": 0.16666599999999931,
          "durationTicks": 240,
          "midi": 38,
          "name": "D2",
          "ticks": 49200,
          "time": 34.499864,
          "velocity": 0.7874015748031497
        },
        {
          "duration": 0.16666599999999931,
          "durationTicks": 240,
          "midi": 69,
          "name": "A4",
          "ticks": 49440,
          "time": 34.66653,
          "velocity": 0.7874015748031497
        },
        {
          "duration": 0.16666599999999931,
          "durationTicks": 240,
          "midi": 50,
          "name": "D3",
          "ticks": 49440,
          "time": 34.66653,
          "velocity": 0.7874015748031497
        },
        {
          "duration": 0.16666599999999931,
          "durationTicks": 240,
          "midi": 67,
          "name": "G4",
          "ticks": 49680,
          "time": 34.833196,
          "velocity": 0.7874015748031497
        },
        {
          "duration": 0.16666599999999931,
          "durationTicks": 240,
          "midi": 36,
          "name": "C2",
          "ticks": 49680,
          "time": 34.833196,
          "velocity": 0.7874015748031497
        },
        {
          "duration": 0.16666599999999931,
          "durationTicks": 240,
          "midi": 69,
          "name": "A4",
          "ticks": 49920,
          "time": 34.999862,
          "velocity": 0.7874015748031497
        },
        {
          "duration": 0.16666599999999931,
          "durationTicks": 240,
          "midi": 48,
          "name": "C3",
          "ticks": 49920,
          "time": 34.999862,
          "velocity": 0.7874015748031497
        },
        {
          "duration": 0.16666599999999931,
          "durationTicks": 240,
          "midi": 57,
          "name": "A3",
          "ticks": 50160,
          "time": 35.166528,
          "velocity": 0.7874015748031497
        },
        {
          "duration": 0.16666599999999931,
          "durationTicks": 240,
          "midi": 34,
          "name": "A#1",
          "ticks": 50160,
          "time": 35.166528,
          "velocity": 0.7874015748031497
        },
        {
          "duration": 0.16666600000000642,
          "durationTicks": 240,
          "midi": 65,
          "name": "F4",
          "ticks": 50400,
          "time": 35.333194,
          "velocity": 0.7874015748031497
        },
        {
          "duration": 0.16666600000000642,
          "durationTicks": 240,
          "midi": 46,
          "name": "A#2",
          "ticks": 50400,
          "time": 35.333194,
          "velocity": 0.7874015748031497
        },
        {
          "duration": 0.0833329999999961,
          "durationTicks": 120,
          "midi": 64,
          "name": "E4",
          "ticks": 50640,
          "time": 35.499860000000005,
          "velocity": 0.7874015748031497
        },
        {
          "duration": 0.16666599999999931,
          "durationTicks": 240,
          "midi": 34,
          "name": "A#1",
          "ticks": 50640,
          "time": 35.499860000000005,
          "velocity": 0.7874015748031497
        },
        {
          "duration": 0.08333300000000321,
          "durationTicks": 120,
          "midi": 65,
          "name": "F4",
          "ticks": 50760,
          "time": 35.583193,
          "velocity": 0.7874015748031497
        },
        {
          "duration": 0.16666599999999931,
          "durationTicks": 240,
          "midi": 64,
          "name": "E4",
          "ticks": 50880,
          "time": 35.666526000000005,
          "velocity": 0.7874015748031497
        },
        {
          "duration": 0.16666599999999931,
          "durationTicks": 240,
          "midi": 46,
          "name": "A#2",
          "ticks": 50880,
          "time": 35.666526000000005,
          "velocity": 0.7874015748031497
        },
        {
          "duration": 0.16666599999999931,
          "durationTicks": 240,
          "midi": 67,
          "name": "G4",
          "ticks": 51120,
          "time": 35.833192000000004,
          "velocity": 0.7874015748031497
        },
        {
          "duration": 0.16666599999999931,
          "durationTicks": 240,
          "midi": 36,
          "name": "C2",
          "ticks": 51120,
          "time": 35.833192000000004,
          "velocity": 0.7874015748031497
        },
        {
          "duration": 0.16666599999999931,
          "durationTicks": 240,
          "midi": 65,
          "name": "F4",
          "ticks": 51360,
          "time": 35.999858,
          "velocity": 0.7874015748031497
        },
        {
          "duration": 0.16666599999999931,
          "durationTicks": 240,
          "midi": 48,
          "name": "C3",
          "ticks": 51360,
          "time": 35.999858,
          "velocity": 0.7874015748031497
        },
        {
          "duration": 0.0833329999999961,
          "durationTicks": 120,
          "midi": 64,
          "name": "E4",
          "ticks": 51600,
          "time": 36.166524,
          "velocity": 0.7874015748031497
        },
        {
          "duration": 0.16666599999999931,
          "durationTicks": 240,
          "midi": 36,
          "name": "C2",
          "ticks": 51600,
          "time": 36.166524,
          "velocity": 0.7874015748031497
        },
        {
          "duration": 0.08333300000000321,
          "durationTicks": 120,
          "midi": 65,
          "name": "F4",
          "ticks": 51720,
          "time": 36.249857,
          "velocity": 0.7874015748031497
        },
        {
          "duration": 0.08333300000000321,
          "durationTicks": 120,
          "midi": 64,
          "name": "E4",
          "ticks": 51840,
          "time": 36.33319,
          "velocity": 0.7874015748031497
        },
        {
          "duration": 0.16666599999999931,
          "durationTicks": 240,
          "midi": 48,
          "name": "C3",
          "ticks": 51840,
          "time": 36.33319,
          "velocity": 0.7874015748031497
        },
        {
          "duration": 0.0833329999999961,
          "durationTicks": 120,
          "midi": 60,
          "name": "C4",
          "ticks": 51960,
          "time": 36.416523000000005,
          "velocity": 0.7874015748031497
        },
        {
          "duration": 0.16666599999999931,
          "durationTicks": 240,
          "midi": 62,
          "name": "D4",
          "ticks": 52080,
          "time": 36.499856,
          "velocity": 0.7874015748031497
        },
        {
          "duration": 0.16666599999999931,
          "durationTicks": 240,
          "midi": 38,
          "name": "D2",
          "ticks": 52080,
          "time": 36.499856,
          "velocity": 0.7874015748031497
        },
        {
          "duration": 0.16666599999999931,
          "durationTicks": 240,
          "midi": 69,
          "name": "A4",
          "ticks": 52320,
          "time": 36.666522,
          "velocity": 0.7874015748031497
        },
        {
          "duration": 0.16666599999999931,
          "durationTicks": 240,
          "midi": 50,
          "name": "D3",
          "ticks": 52320,
          "time": 36.666522,
          "velocity": 0.7874015748031497
        },
        {
          "duration": 0.08333300000000321,
          "durationTicks": 120,
          "midi": 67,
          "name": "G4",
          "ticks": 52560,
          "time": 36.833188,
          "velocity": 0.7874015748031497
        },
        {
          "duration": 0.16666599999999931,
          "durationTicks": 240,
          "midi": 40,
          "name": "E2",
          "ticks": 52560,
          "time": 36.833188,
          "velocity": 0.7874015748031497
        },
        {
          "duration": 0.0833329999999961,
          "durationTicks": 120,
          "midi": 69,
          "name": "A4",
          "ticks": 52680,
          "time": 36.916521,
          "velocity": 0.7874015748031497
        },
        {
          "duration": 0.08333300000000321,
          "durationTicks": 120,
          "midi": 67,
          "name": "G4",
          "ticks": 52800,
          "time": 36.999854,
          "velocity": 0.7874015748031497
        },
        {
          "duration": 0.16666599999999931,
          "durationTicks": 240,
          "midi": 52,
          "name": "E3",
          "ticks": 52800,
          "time": 36.999854,
          "velocity": 0.7874015748031497
        },
        {
          "duration": 0.0833329999999961,
          "durationTicks": 120,
          "midi": 69,
          "name": "A4",
          "ticks": 52920,
          "time": 37.083187,
          "velocity": 0.7874015748031497
        },
        {
          "duration": 0.16666600000000642,
          "durationTicks": 240,
          "midi": 73,
          "name": "C#5",
          "ticks": 53040,
          "time": 37.16652,
          "velocity": 0.7874015748031497
        },
        {
          "duration": 0.16666600000000642,
          "durationTicks": 240,
          "midi": 41,
          "name": "F2",
          "ticks": 53040,
          "time": 37.16652,
          "velocity": 0.7874015748031497
        },
        {
          "duration": 0.16666599999999931,
          "durationTicks": 240,
          "midi": 69,
          "name": "A4",
          "ticks": 53280,
          "time": 37.333186000000005,
          "velocity": 0.7874015748031497
        },
        {
          "duration": 0.16666599999999931,
          "durationTicks": 240,
          "midi": 53,
          "name": "F3",
          "ticks": 53280,
          "time": 37.333186000000005,
          "velocity": 0.7874015748031497
        },
        {
          "duration": 0.16666599999999931,
          "durationTicks": 240,
          "midi": 67,
          "name": "G4",
          "ticks": 53520,
          "time": 37.499852000000004,
          "velocity": 0.7874015748031497
        },
        {
          "duration": 0.16666599999999931,
          "durationTicks": 240,
          "midi": 43,
          "name": "G2",
          "ticks": 53520,
          "time": 37.499852000000004,
          "velocity": 0.7874015748031497
        },
        {
          "duration": 0.16666599999999931,
          "durationTicks": 240,
          "midi": 69,
          "name": "A4",
          "ticks": 53760,
          "time": 37.666518,
          "velocity": 0.7874015748031497
        },
        {
          "duration": 0.16666599999999931,
          "durationTicks": 240,
          "midi": 55,
          "name": "G3",
          "ticks": 53760,
          "time": 37.666518,
          "velocity": 0.7874015748031497
        },
        {
          "duration": 0.16666599999999931,
          "durationTicks": 240,
          "midi": 57,
          "name": "A3",
          "ticks": 54000,
          "time": 37.833184,
          "velocity": 0.7874015748031497
        },
        {
          "duration": 0.16666599999999931,
          "durationTicks": 240,
          "midi": 34,
          "name": "A#1",
          "ticks": 54000,
          "time": 37.833184,
          "velocity": 0.7874015748031497
        },
        {
          "duration": 0.16666599999999931,
          "durationTicks": 240,
          "midi": 65,
          "name": "F4",
          "ticks": 54240,
          "time": 37.99985,
          "velocity": 0.7874015748031497
        },
        {
          "duration": 0.16666599999999931,
          "durationTicks": 240,
          "midi": 46,
          "name": "A#2",
          "ticks": 54240,
          "time": 37.99985,
          "velocity": 0.7874015748031497
        },
        {
          "duration": 0.08333300000000321,
          "durationTicks": 120,
          "midi": 64,
          "name": "E4",
          "ticks": 54480,
          "time": 38.166516,
          "velocity": 0.7874015748031497
        },
        {
          "duration": 0.16666599999999931,
          "durationTicks": 240,
          "midi": 34,
          "name": "A#1",
          "ticks": 54480,
          "time": 38.166516,
          "velocity": 0.7874015748031497
        },
        {
          "duration": 0.0833329999999961,
          "durationTicks": 120,
          "midi": 65,
          "name": "F4",
          "ticks": 54600,
          "time": 38.249849000000005,
          "velocity": 0.7874015748031497
        },
        {
          "duration": 0.16666599999999931,
          "durationTicks": 240,
          "midi": 64,
          "name": "E4",
          "ticks": 54720,
          "time": 38.333182,
          "velocity": 0.7874015748031497
        },
        {
          "duration": 0.16666599999999931,
          "durationTicks": 240,
          "midi": 46,
          "name": "A#2",
          "ticks": 54720,
          "time": 38.333182,
          "velocity": 0.7874015748031497
        },
        {
          "duration": 0.16666599999999931,
          "durationTicks": 240,
          "midi": 67,
          "name": "G4",
          "ticks": 54960,
          "time": 38.499848,
          "velocity": 0.7874015748031497
        },
        {
          "duration": 0.16666599999999931,
          "durationTicks": 240,
          "midi": 36,
          "name": "C2",
          "ticks": 54960,
          "time": 38.499848,
          "velocity": 0.7874015748031497
        },
        {
          "duration": 0.16666599999999931,
          "durationTicks": 240,
          "midi": 65,
          "name": "F4",
          "ticks": 55200,
          "time": 38.666514,
          "velocity": 0.7874015748031497
        },
        {
          "duration": 0.16666599999999931,
          "durationTicks": 240,
          "midi": 48,
          "name": "C3",
          "ticks": 55200,
          "time": 38.666514,
          "velocity": 0.7874015748031497
        },
        {
          "duration": 0.08333300000000321,
          "durationTicks": 120,
          "midi": 64,
          "name": "E4",
          "ticks": 55440,
          "time": 38.83318,
          "velocity": 0.7874015748031497
        },
        {
          "duration": 0.16666600000000642,
          "durationTicks": 240,
          "midi": 36,
          "name": "C2",
          "ticks": 55440,
          "time": 38.83318,
          "velocity": 0.7874015748031497
        },
        {
          "duration": 0.08333300000000321,
          "durationTicks": 120,
          "midi": 65,
          "name": "F4",
          "ticks": 55560,
          "time": 38.916513,
          "velocity": 0.7874015748031497
        },
        {
          "duration": 0.0833329999999961,
          "durationTicks": 120,
          "midi": 64,
          "name": "E4",
          "ticks": 55680,
          "time": 38.999846000000005,
          "velocity": 0.7874015748031497
        },
        {
          "duration": 0.16666599999999931,
          "durationTicks": 240,
          "midi": 48,
          "name": "C3",
          "ticks": 55680,
          "time": 38.999846000000005,
          "velocity": 0.7874015748031497
        },
        {
          "duration": 0.08333300000000321,
          "durationTicks": 120,
          "midi": 60,
          "name": "C4",
          "ticks": 55800,
          "time": 39.083179,
          "velocity": 0.7874015748031497
        },
        {
          "duration": 0.16666599999999931,
          "durationTicks": 240,
          "midi": 62,
          "name": "D4",
          "ticks": 55920,
          "time": 39.166512000000004,
          "velocity": 0.7874015748031497
        },
        {
          "duration": 0.16666599999999931,
          "durationTicks": 240,
          "midi": 38,
          "name": "D2",
          "ticks": 55920,
          "time": 39.166512000000004,
          "velocity": 0.7874015748031497
        },
        {
          "duration": 0.16666599999999931,
          "durationTicks": 240,
          "midi": 69,
          "name": "A4",
          "ticks": 56160,
          "time": 39.333178000000004,
          "velocity": 0.7874015748031497
        },
        {
          "duration": 0.16666599999999931,
          "durationTicks": 240,
          "midi": 50,
          "name": "D3",
          "ticks": 56160,
          "time": 39.333178000000004,
          "velocity": 0.7874015748031497
        },
        {
          "duration": 0.0833329999999961,
          "durationTicks": 120,
          "midi": 67,
          "name": "G4",
          "ticks": 56400,
          "time": 39.499844,
          "velocity": 0.7874015748031497
        },
        {
          "duration": 0.16666599999999931,
          "durationTicks": 240,
          "midi": 38,
          "name": "D2",
          "ticks": 56400,
          "time": 39.499844,
          "velocity": 0.7874015748031497
        },
        {
          "duration": 0.08333300000000321,
          "durationTicks": 120,
          "midi": 69,
          "name": "A4",
          "ticks": 56520,
          "time": 39.583177,
          "velocity": 0.7874015748031497
        },
        {
          "duration": 0.0833329999999961,
          "durationTicks": 120,
          "midi": 67,
          "name": "G4",
          "ticks": 56640,
          "time": 39.66651,
          "velocity": 0.7874015748031497
        },
        {
          "duration": 0.16666599999999931,
          "durationTicks": 240,
          "midi": 50,
          "name": "D3",
          "ticks": 56640,
          "time": 39.66651,
          "velocity": 0.7874015748031497
        },
        {
          "duration": 0.08333300000000321,
          "durationTicks": 120,
          "midi": 69,
          "name": "A4",
          "ticks": 56760,
          "time": 39.749843,
          "velocity": 0.7874015748031497
        },
        {
          "duration": 0.16666599999999931,
          "durationTicks": 240,
          "midi": 72,
          "name": "C5",
          "ticks": 56880,
          "time": 39.833176,
          "velocity": 0.7874015748031497
        },
        {
          "duration": 0.16666599999999931,
          "durationTicks": 240,
          "midi": 38,
          "name": "D2",
          "ticks": 56880,
          "time": 39.833176,
          "velocity": 0.7874015748031497
        },
        {
          "duration": 0.16666599999999931,
          "durationTicks": 240,
          "midi": 69,
          "name": "A4",
          "ticks": 57120,
          "time": 39.999842,
          "velocity": 0.7874015748031497
        },
        {
          "duration": 0.16666599999999931,
          "durationTicks": 240,
          "midi": 50,
          "name": "D3",
          "ticks": 57120,
          "time": 39.999842,
          "velocity": 0.7874015748031497
        },
        {
          "duration": 0.16666599999999931,
          "durationTicks": 240,
          "midi": 65,
          "name": "F4",
          "ticks": 57360,
          "time": 40.166508,
          "velocity": 0.7874015748031497
        },
        {
          "duration": 0.16666599999999931,
          "durationTicks": 240,
          "midi": 36,
          "name": "C2",
          "ticks": 57360,
          "time": 40.166508,
          "velocity": 0.7874015748031497
        },
        {
          "duration": 0.16666599999999931,
          "durationTicks": 240,
          "midi": 66,
          "name": "F#4",
          "ticks": 57600,
          "time": 40.333174,
          "velocity": 0.7874015748031497
        },
        {
          "duration": 0.16666599999999931,
          "durationTicks": 240,
          "midi": 48,
          "name": "C3",
          "ticks": 57600,
          "time": 40.333174,
          "velocity": 0.7874015748031497
        },
        {
          "duration": 0.16666600000000642,
          "durationTicks": 240,
          "midi": 67,
          "name": "G4",
          "ticks": 57840,
          "time": 40.49984,
          "velocity": 0.7874015748031497
        },
        {
          "duration": 0.16666600000000642,
          "durationTicks": 240,
          "midi": 31,
          "name": "G1",
          "ticks": 57840,
          "time": 40.49984,
          "velocity": 0.7874015748031497
        },
        {
          "duration": 0.0833329999999961,
          "durationTicks": 120,
          "midi": 58,
          "name": "A#3",
          "ticks": 58080,
          "time": 40.666506000000005,
          "velocity": 0.7874015748031497
        },
        {
          "duration": 0.16666599999999931,
          "durationTicks": 240,
          "midi": 43,
          "name": "G2",
          "ticks": 58080,
          "time": 40.666506000000005,
          "velocity": 0.7874015748031497
        },
        {
          "duration": 0.08333300000000321,
          "durationTicks": 120,
          "midi": 67,
          "name": "G4",
          "ticks": 58200,
          "time": 40.749839,
          "velocity": 0.7874015748031497
        },
        {
          "duration": 0.16666599999999931,
          "durationTicks": 240,
          "midi": 58,
          "name": "A#3",
          "ticks": 58320,
          "time": 40.833172000000005,
          "velocity": 0.7874015748031497
        },
        {
          "duration": 0.16666599999999931,
          "durationTicks": 240,
          "midi": 31,
          "name": "G1",
          "ticks": 58320,
          "time": 40.833172000000005,
          "velocity": 0.7874015748031497
        },
        {
          "duration": 0.16666599999999931,
          "durationTicks": 240,
          "midi": 67,
          "name": "G4",
          "ticks": 58560,
          "time": 40.999838000000004,
          "velocity": 0.7874015748031497
        },
        {
          "duration": 0.16666599999999931,
          "durationTicks": 240,
          "midi": 43,
          "name": "G2",
          "ticks": 58560,
          "time": 40.999838000000004,
          "velocity": 0.7874015748031497
        },
        {
          "duration": 0.16666599999999931,
          "durationTicks": 240,
          "midi": 69,
          "name": "A4",
          "ticks": 58800,
          "time": 41.166504,
          "velocity": 0.7874015748031497
        },
        {
          "duration": 0.16666599999999931,
          "durationTicks": 240,
          "midi": 33,
          "name": "A1",
          "ticks": 58800,
          "time": 41.166504,
          "velocity": 0.7874015748031497
        },
        {
          "duration": 0.16666599999999931,
          "durationTicks": 240,
          "midi": 67,
          "name": "G4",
          "ticks": 59040,
          "time": 41.33317,
          "velocity": 0.7874015748031497
        },
        {
          "duration": 0.16666599999999931,
          "durationTicks": 240,
          "midi": 45,
          "name": "A2",
          "ticks": 59040,
          "time": 41.33317,
          "velocity": 0.7874015748031497
        },
        {
          "duration": 0.16666599999999931,
          "durationTicks": 240,
          "midi": 65,
          "name": "F4",
          "ticks": 59280,
          "time": 41.499836,
          "velocity": 0.7874015748031497
        },
        {
          "duration": 0.16666599999999931,
          "durationTicks": 240,
          "midi": 33,
          "name": "A1",
          "ticks": 59280,
          "time": 41.499836,
          "velocity": 0.7874015748031497
        },
        {
          "duration": 0.16666599999999931,
          "durationTicks": 240,
          "midi": 64,
          "name": "E4",
          "ticks": 59520,
          "time": 41.666502,
          "velocity": 0.7874015748031497
        },
        {
          "duration": 0.16666599999999931,
          "durationTicks": 240,
          "midi": 45,
          "name": "A2",
          "ticks": 59520,
          "time": 41.666502,
          "velocity": 0.7874015748031497
        },
        {
          "duration": 1.3333280000000016,
          "durationTicks": 1920,
          "midi": 62,
          "name": "D4",
          "ticks": 59760,
          "time": 41.833168,
          "velocity": 0.7874015748031497
        },
        {
          "duration": 0.16666599999999931,
          "durationTicks": 240,
          "midi": 38,
          "name": "D2",
          "ticks": 59760,
          "time": 41.833168,
          "velocity": 0.7874015748031497
        },
        {
          "duration": 0.16666599999999931,
          "durationTicks": 240,
          "midi": 50,
          "name": "D3",
          "ticks": 60000,
          "time": 41.999834,
          "velocity": 0.7874015748031497
        },
        {
          "duration": 0.16666600000000642,
          "durationTicks": 240,
          "midi": 40,
          "name": "E2",
          "ticks": 60240,
          "time": 42.1665,
          "velocity": 0.7874015748031497
        },
        {
          "duration": 0.16666599999999931,
          "durationTicks": 240,
          "midi": 52,
          "name": "E3",
          "ticks": 60480,
          "time": 42.333166000000006,
          "velocity": 0.7874015748031497
        },
        {
          "duration": 0.16666599999999931,
          "durationTicks": 240,
          "midi": 41,
          "name": "F2",
          "ticks": 60720,
          "time": 42.499832000000005,
          "velocity": 0.7874015748031497
        },
        {
          "duration": 0.16666599999999931,
          "durationTicks": 240,
          "midi": 53,
          "name": "F3",
          "ticks": 60960,
          "time": 42.666498000000004,
          "velocity": 0.7874015748031497
        },
        {
          "duration": 0.16666599999999931,
          "durationTicks": 240,
          "midi": 43,
          "name": "G2",
          "ticks": 61200,
          "time": 42.833164000000004,
          "velocity": 0.7874015748031497
        },
        {
          "duration": 0.16666599999999931,
          "durationTicks": 240,
          "midi": 55,
          "name": "G3",
          "ticks": 61440,
          "time": 42.99983,
          "velocity": 0.7874015748031497
        },
        {
          "duration": 0.16666599999999931,
          "durationTicks": 240,
          "midi": 57,
          "name": "A3",
          "ticks": 61680,
          "time": 43.166496,
          "velocity": 0.7874015748031497
        },
        {
          "duration": 0.16666599999999931,
          "durationTicks": 240,
          "midi": 38,
          "name": "D2",
          "ticks": 61680,
          "time": 43.166496,
          "velocity": 0.7874015748031497
        },
        {
          "duration": 0.16666599999999931,
          "durationTicks": 240,
          "midi": 65,
          "name": "F4",
          "ticks": 61920,
          "time": 43.333162,
          "velocity": 0.7874015748031497
        },
        {
          "duration": 0.16666599999999931,
          "durationTicks": 240,
          "midi": 50,
          "name": "D3",
          "ticks": 61920,
          "time": 43.333162,
          "velocity": 0.7874015748031497
        },
        {
          "duration": 0.08333300000000321,
          "durationTicks": 120,
          "midi": 64,
          "name": "E4",
          "ticks": 62160,
          "time": 43.499828,
          "velocity": 0.7874015748031497
        },
        {
          "duration": 0.16666599999999931,
          "durationTicks": 240,
          "midi": 38,
          "name": "D2",
          "ticks": 62160,
          "time": 43.499828,
          "velocity": 0.7874015748031497
        },
        {
          "duration": 0.0833329999999961,
          "durationTicks": 120,
          "midi": 65,
          "name": "F4",
          "ticks": 62280,
          "time": 43.583161000000004,
          "velocity": 0.7874015748031497
        },
        {
          "duration": 0.16666599999999931,
          "durationTicks": 240,
          "midi": 64,
          "name": "E4",
          "ticks": 62400,
          "time": 43.666494,
          "velocity": 0.7874015748031497
        },
        {
          "duration": 0.16666599999999931,
          "durationTicks": 240,
          "midi": 50,
          "name": "D3",
          "ticks": 62400,
          "time": 43.666494,
          "velocity": 0.7874015748031497
        },
        {
          "duration": 0.16666599999999931,
          "durationTicks": 240,
          "midi": 67,
          "name": "G4",
          "ticks": 62640,
          "time": 43.83316,
          "velocity": 0.7874015748031497
        },
        {
          "duration": 0.16666599999999931,
          "durationTicks": 240,
          "midi": 38,
          "name": "D2",
          "ticks": 62640,
          "time": 43.83316,
          "velocity": 0.7874015748031497
        },
        {
          "duration": 0.16666600000000642,
          "durationTicks": 240,
          "midi": 65,
          "name": "F4",
          "ticks": 62880,
          "time": 43.999826,
          "velocity": 0.7874015748031497
        },
        {
          "duration": 0.16666600000000642,
          "durationTicks": 240,
          "midi": 50,
          "name": "D3",
          "ticks": 62880,
          "time": 43.999826,
          "velocity": 0.7874015748031497
        },
        {
          "duration": 0.0833329999999961,
          "durationTicks": 120,
          "midi": 64,
          "name": "E4",
          "ticks": 63120,
          "time": 44.166492000000005,
          "velocity": 0.7874015748031497
        },
        {
          "duration": 0.16666599999999931,
          "durationTicks": 240,
          "midi": 38,
          "name": "D2",
          "ticks": 63120,
          "time": 44.166492000000005,
          "velocity": 0.7874015748031497
        },
        {
          "duration": 0.08333300000000321,
          "durationTicks": 120,
          "midi": 65,
          "name": "F4",
          "ticks": 63240,
          "time": 44.249825,
          "velocity": 0.7874015748031497
        },
        {
          "duration": 0.0833329999999961,
          "durationTicks": 120,
          "midi": 64,
          "name": "E4",
          "ticks": 63360,
          "time": 44.333158000000005,
          "velocity": 0.7874015748031497
        },
        {
          "duration": 0.16666599999999931,
          "durationTicks": 240,
          "midi": 50,
          "name": "D3",
          "ticks": 63360,
          "time": 44.333158000000005,
          "velocity": 0.7874015748031497
        },
        {
          "duration": 0.08333300000000321,
          "durationTicks": 120,
          "midi": 60,
          "name": "C4",
          "ticks": 63480,
          "time": 44.416491,
          "velocity": 0.7874015748031497
        },
        {
          "duration": 0.16666599999999931,
          "durationTicks": 240,
          "midi": 62,
          "name": "D4",
          "ticks": 63600,
          "time": 44.499824000000004,
          "velocity": 0.7874015748031497
        },
        {
          "duration": 0.16666599999999931,
          "durationTicks": 240,
          "midi": 38,
          "name": "D2",
          "ticks": 63600,
          "time": 44.499824000000004,
          "velocity": 0.7874015748031497
        },
        {
          "duration": 0.16666599999999931,
          "durationTicks": 240,
          "midi": 69,
          "name": "A4",
          "ticks": 63840,
          "time": 44.66649,
          "velocity": 0.7874015748031497
        },
        {
          "duration": 0.16666599999999931,
          "durationTicks": 240,
          "midi": 50,
          "name": "D3",
          "ticks": 63840,
          "time": 44.66649,
          "velocity": 0.7874015748031497
        },
        {
          "duration": 0.08333300000000321,
          "durationTicks": 120,
          "midi": 67,
          "name": "G4",
          "ticks": 64080,
          "time": 44.833156,
          "velocity": 0.7874015748031497
        },
        {
          "duration": 0.16666599999999931,
          "durationTicks": 240,
          "midi": 38,
          "name": "D2",
          "ticks": 64080,
          "time": 44.833156,
          "velocity": 0.7874015748031497
        },
        {
          "duration": 0.0833329999999961,
          "durationTicks": 120,
          "midi": 69,
          "name": "A4",
          "ticks": 64200,
          "time": 44.916489000000006,
          "velocity": 0.7874015748031497
        },
        {
          "duration": 0.08333300000000321,
          "durationTicks": 120,
          "midi": 67,
          "name": "G4",
          "ticks": 64320,
          "time": 44.999822,
          "velocity": 0.7874015748031497
        },
        {
          "duration": 0.16666599999999931,
          "durationTicks": 240,
          "midi": 50,
          "name": "D3",
          "ticks": 64320,
          "time": 44.999822,
          "velocity": 0.7874015748031497
        },
        {
          "duration": 0.0833329999999961,
          "durationTicks": 120,
          "midi": 69,
          "name": "A4",
          "ticks": 64440,
          "time": 45.083155000000005,
          "velocity": 0.7874015748031497
        },
        {
          "duration": 0.16666599999999931,
          "durationTicks": 240,
          "midi": 72,
          "name": "C5",
          "ticks": 64560,
          "time": 45.166488,
          "velocity": 0.7874015748031497
        },
        {
          "duration": 0.16666599999999931,
          "durationTicks": 240,
          "midi": 38,
          "name": "D2",
          "ticks": 64560,
          "time": 45.166488,
          "velocity": 0.7874015748031497
        },
        {
          "duration": 0.16666599999999931,
          "durationTicks": 240,
          "midi": 69,
          "name": "A4",
          "ticks": 64800,
          "time": 45.333154,
          "velocity": 0.7874015748031497
        },
        {
          "duration": 0.16666599999999931,
          "durationTicks": 240,
          "midi": 50,
          "name": "D3",
          "ticks": 64800,
          "time": 45.333154,
          "velocity": 0.7874015748031497
        },
        {
          "duration": 0.16666599999999931,
          "durationTicks": 240,
          "midi": 67,
          "name": "G4",
          "ticks": 65040,
          "time": 45.49982,
          "velocity": 0.7874015748031497
        },
        {
          "duration": 0.16666599999999931,
          "durationTicks": 240,
          "midi": 36,
          "name": "C2",
          "ticks": 65040,
          "time": 45.49982,
          "velocity": 0.7874015748031497
        },
        {
          "duration": 0.16666600000000642,
          "durationTicks": 240,
          "midi": 69,
          "name": "A4",
          "ticks": 65280,
          "time": 45.666486,
          "velocity": 0.7874015748031497
        },
        {
          "duration": 0.16666600000000642,
          "durationTicks": 240,
          "midi": 48,
          "name": "C3",
          "ticks": 65280,
          "time": 45.666486,
          "velocity": 0.7874015748031497
        },
        {
          "duration": 0.16666599999999931,
          "durationTicks": 240,
          "midi": 57,
          "name": "A3",
          "ticks": 65520,
          "time": 45.833152000000005,
          "velocity": 0.7874015748031497
        },
        {
          "duration": 0.16666599999999931,
          "durationTicks": 240,
          "midi": 34,
          "name": "A#1",
          "ticks": 65520,
          "time": 45.833152000000005,
          "velocity": 0.7874015748031497
        },
        {
          "duration": 0.16666599999999931,
          "durationTicks": 240,
          "midi": 65,
          "name": "F4",
          "ticks": 65760,
          "time": 45.999818000000005,
          "velocity": 0.7874015748031497
        },
        {
          "duration": 0.16666599999999931,
          "durationTicks": 240,
          "midi": 46,
          "name": "A#2",
          "ticks": 65760,
          "time": 45.999818000000005,
          "velocity": 0.7874015748031497
        },
        {
          "duration": 0.0833329999999961,
          "durationTicks": 120,
          "midi": 64,
          "name": "E4",
          "ticks": 66000,
          "time": 46.166484000000004,
          "velocity": 0.7874015748031497
        },
        {
          "duration": 0.16666599999999931,
          "durationTicks": 240,
          "midi": 34,
          "name": "A#1",
          "ticks": 66000,
          "time": 46.166484000000004,
          "velocity": 0.7874015748031497
        },
        {
          "duration": 0.08333300000000321,
          "durationTicks": 120,
          "midi": 65,
          "name": "F4",
          "ticks": 66120,
          "time": 46.249817,
          "velocity": 0.7874015748031497
        },
        {
          "duration": 0.16666599999999931,
          "durationTicks": 240,
          "midi": 64,
          "name": "E4",
          "ticks": 66240,
          "time": 46.33315,
          "velocity": 0.7874015748031497
        },
        {
          "duration": 0.16666599999999931,
          "durationTicks": 240,
          "midi": 46,
          "name": "A#2",
          "ticks": 66240,
          "time": 46.33315,
          "velocity": 0.7874015748031497
        },
        {
          "duration": 0.16666599999999931,
          "durationTicks": 240,
          "midi": 67,
          "name": "G4",
          "ticks": 66480,
          "time": 46.499816,
          "velocity": 0.7874015748031497
        },
        {
          "duration": 0.16666599999999931,
          "durationTicks": 240,
          "midi": 34,
          "name": "A#1",
          "ticks": 66480,
          "time": 46.499816,
          "velocity": 0.7874015748031497
        },
        {
          "duration": 0.16666599999999931,
          "durationTicks": 240,
          "midi": 65,
          "name": "F4",
          "ticks": 66720,
          "time": 46.666482,
          "velocity": 0.7874015748031497
        },
        {
          "duration": 0.16666599999999931,
          "durationTicks": 240,
          "midi": 46,
          "name": "A#2",
          "ticks": 66720,
          "time": 46.666482,
          "velocity": 0.7874015748031497
        },
        {
          "duration": 0.08333300000000321,
          "durationTicks": 120,
          "midi": 64,
          "name": "E4",
          "ticks": 66960,
          "time": 46.833148,
          "velocity": 0.7874015748031497
        },
        {
          "duration": 0.16666599999999931,
          "durationTicks": 240,
          "midi": 34,
          "name": "A#1",
          "ticks": 66960,
          "time": 46.833148,
          "velocity": 0.7874015748031497
        },
        {
          "duration": 0.0833329999999961,
          "durationTicks": 120,
          "midi": 65,
          "name": "F4",
          "ticks": 67080,
          "time": 46.916481000000005,
          "velocity": 0.7874015748031497
        },
        {
          "duration": 0.08333300000000321,
          "durationTicks": 120,
          "midi": 64,
          "name": "E4",
          "ticks": 67200,
          "time": 46.999814,
          "velocity": 0.7874015748031497
        },
        {
          "duration": 0.16666599999999931,
          "durationTicks": 240,
          "midi": 46,
          "name": "A#2",
          "ticks": 67200,
          "time": 46.999814,
          "velocity": 0.7874015748031497
        },
        {
          "duration": 0.0833329999999961,
          "durationTicks": 120,
          "midi": 60,
          "name": "C4",
          "ticks": 67320,
          "time": 47.083147000000004,
          "velocity": 0.7874015748031497
        },
        {
          "duration": 0.16666599999999931,
          "durationTicks": 240,
          "midi": 62,
          "name": "D4",
          "ticks": 67440,
          "time": 47.16648,
          "velocity": 0.7874015748031497
        },
        {
          "duration": 0.16666599999999931,
          "durationTicks": 240,
          "midi": 34,
          "name": "A#1",
          "ticks": 67440,
          "time": 47.16648,
          "velocity": 0.7874015748031497
        },
        {
          "duration": 0.16666600000000642,
          "durationTicks": 240,
          "midi": 69,
          "name": "A4",
          "ticks": 67680,
          "time": 47.333146,
          "velocity": 0.7874015748031497
        },
        {
          "duration": 0.16666600000000642,
          "durationTicks": 240,
          "midi": 46,
          "name": "A#2",
          "ticks": 67680,
          "time": 47.333146,
          "velocity": 0.7874015748031497
        },
        {
          "duration": 0.0833329999999961,
          "durationTicks": 120,
          "midi": 67,
          "name": "G4",
          "ticks": 67920,
          "time": 47.499812000000006,
          "velocity": 0.7874015748031497
        },
        {
          "duration": 0.16666599999999931,
          "durationTicks": 240,
          "midi": 34,
          "name": "A#1",
          "ticks": 67920,
          "time": 47.499812000000006,
          "velocity": 0.7874015748031497
        },
        {
          "duration": 0.08333300000000321,
          "durationTicks": 120,
          "midi": 69,
          "name": "A4",
          "ticks": 68040,
          "time": 47.583145,
          "velocity": 0.7874015748031497
        },
        {
          "duration": 0.0833329999999961,
          "durationTicks": 120,
          "midi": 67,
          "name": "G4",
          "ticks": 68160,
          "time": 47.666478000000005,
          "velocity": 0.7874015748031497
        },
        {
          "duration": 0.16666599999999931,
          "durationTicks": 240,
          "midi": 46,
          "name": "A#2",
          "ticks": 68160,
          "time": 47.666478000000005,
          "velocity": 0.7874015748031497
        },
        {
          "duration": 0.08333300000000321,
          "durationTicks": 120,
          "midi": 69,
          "name": "A4",
          "ticks": 68280,
          "time": 47.749811,
          "velocity": 0.7874015748031497
        },
        {
          "duration": 0.16666599999999931,
          "durationTicks": 240,
          "midi": 72,
          "name": "C5",
          "ticks": 68400,
          "time": 47.833144000000004,
          "velocity": 0.7874015748031497
        },
        {
          "duration": 0.16666599999999931,
          "durationTicks": 240,
          "midi": 34,
          "name": "A#1",
          "ticks": 68400,
          "time": 47.833144000000004,
          "velocity": 0.7874015748031497
        },
        {
          "duration": 0.16666599999999931,
          "durationTicks": 240,
          "midi": 69,
          "name": "A4",
          "ticks": 68640,
          "time": 47.999810000000004,
          "velocity": 0.7874015748031497
        },
        {
          "duration": 0.16666599999999931,
          "durationTicks": 240,
          "midi": 46,
          "name": "A#2",
          "ticks": 68640,
          "time": 47.999810000000004,
          "velocity": 0.7874015748031497
        },
        {
          "duration": 0.16666599999999931,
          "durationTicks": 240,
          "midi": 67,
          "name": "G4",
          "ticks": 68880,
          "time": 48.166476,
          "velocity": 0.7874015748031497
        },
        {
          "duration": 0.16666599999999931,
          "durationTicks": 240,
          "midi": 33,
          "name": "A1",
          "ticks": 68880,
          "time": 48.166476,
          "velocity": 0.7874015748031497
        },
        {
          "duration": 0.16666599999999931,
          "durationTicks": 240,
          "midi": 64,
          "name": "E4",
          "ticks": 69120,
          "time": 48.333142,
          "velocity": 0.7874015748031497
        },
        {
          "duration": 0.16666599999999931,
          "durationTicks": 240,
          "midi": 45,
          "name": "A2",
          "ticks": 69120,
          "time": 48.333142,
          "velocity": 0.7874015748031497
        },
        {
          "duration": 0.16666599999999931,
          "durationTicks": 240,
          "midi": 65,
          "name": "F4",
          "ticks": 69360,
          "time": 48.499808,
          "velocity": 0.7874015748031497
        },
        {
          "duration": 0.16666599999999931,
          "durationTicks": 240,
          "midi": 31,
          "name": "G1",
          "ticks": 69360,
          "time": 48.499808,
          "velocity": 0.7874015748031497
        },
        {
          "duration": 0.08333300000000321,
          "durationTicks": 120,
          "midi": 64,
          "name": "E4",
          "ticks": 69600,
          "time": 48.666474,
          "velocity": 0.7874015748031497
        },
        {
          "duration": 0.16666599999999931,
          "durationTicks": 240,
          "midi": 43,
          "name": "G2",
          "ticks": 69600,
          "time": 48.666474,
          "velocity": 0.7874015748031497
        },
        {
          "duration": 0.0833329999999961,
          "durationTicks": 120,
          "midi": 65,
          "name": "F4",
          "ticks": 69720,
          "time": 48.749807000000004,
          "velocity": 0.7874015748031497
        },
        {
          "duration": 0.16666599999999931,
          "durationTicks": 240,
          "midi": 64,
          "name": "E4",
          "ticks": 69840,
          "time": 48.83314,
          "velocity": 0.7874015748031497
        },
        {
          "duration": 0.16666599999999931,
          "durationTicks": 240,
          "midi": 31,
          "name": "G1",
          "ticks": 69840,
          "time": 48.83314,
          "velocity": 0.7874015748031497
        },
        {
          "duration": 0.16666600000000642,
          "durationTicks": 240,
          "midi": 60,
          "name": "C4",
          "ticks": 70080,
          "time": 48.999806,
          "velocity": 0.7874015748031497
        },
        {
          "duration": 0.16666600000000642,
          "durationTicks": 240,
          "midi": 43,
          "name": "G2",
          "ticks": 70080,
          "time": 48.999806,
          "velocity": 0.7874015748031497
        },
        {
          "duration": 0.0833329999999961,
          "durationTicks": 120,
          "midi": 62,
          "name": "D4",
          "ticks": 70320,
          "time": 49.166472000000006,
          "velocity": 0.7874015748031497
        },
        {
          "duration": 0.16666599999999931,
          "durationTicks": 240,
          "midi": 31,
          "name": "G1",
          "ticks": 70320,
          "time": 49.166472000000006,
          "velocity": 0.7874015748031497
        },
        {
          "duration": 0.08333300000000321,
          "durationTicks": 120,
          "midi": 57,
          "name": "A3",
          "ticks": 70440,
          "time": 49.249805,
          "velocity": 0.7874015748031497
        },
        {
          "duration": 0.16666599999999931,
          "durationTicks": 240,
          "midi": 60,
          "name": "C4",
          "ticks": 70560,
          "time": 49.333138000000005,
          "velocity": 0.7874015748031497
        },
        {
          "duration": 0.16666599999999931,
          "durationTicks": 240,
          "midi": 43,
          "name": "G2",
          "ticks": 70560,
          "time": 49.333138000000005,
          "velocity": 0.7874015748031497
        },
        {
          "duration": 0.16666599999999931,
          "durationTicks": 240,
          "midi": 55,
          "name": "G3",
          "ticks": 70800,
          "time": 49.499804000000005,
          "velocity": 0.7874015748031497
        },
        {
          "duration": 0.16666599999999931,
          "durationTicks": 240,
          "midi": 31,
          "name": "G1",
          "ticks": 70800,
          "time": 49.499804000000005,
          "velocity": 0.7874015748031497
        },
        {
          "duration": 0.16666599999999931,
          "durationTicks": 240,
          "midi": 52,
          "name": "E3",
          "ticks": 71040,
          "time": 49.666470000000004,
          "velocity": 0.7874015748031497
        },
        {
          "duration": 0.16666599999999931,
          "durationTicks": 240,
          "midi": 43,
          "name": "G2",
          "ticks": 71040,
          "time": 49.666470000000004,
          "velocity": 0.7874015748031497
        },
        {
          "duration": 0.16666599999999931,
          "durationTicks": 240,
          "midi": 50,
          "name": "D3",
          "ticks": 71280,
          "time": 49.833136,
          "velocity": 0.7874015748031497
        },
        {
          "duration": 0.16666599999999931,
          "durationTicks": 240,
          "midi": 32,
          "name": "G#1",
          "ticks": 71280,
          "time": 49.833136,
          "velocity": 0.7874015748031497
        },
        {
          "duration": 0.16666599999999931,
          "durationTicks": 240,
          "midi": 52,
          "name": "E3",
          "ticks": 71520,
          "time": 49.999802,
          "velocity": 0.7874015748031497
        },
        {
          "duration": 0.16666599999999931,
          "durationTicks": 240,
          "midi": 44,
          "name": "G#2",
          "ticks": 71520,
          "time": 49.999802,
          "velocity": 0.7874015748031497
        },
        {
          "duration": 0.16666599999999931,
          "durationTicks": 240,
          "midi": 53,
          "name": "F3",
          "ticks": 71760,
          "time": 50.166468,
          "velocity": 0.7874015748031497
        },
        {
          "duration": 0.16666599999999931,
          "durationTicks": 240,
          "midi": 32,
          "name": "G#1",
          "ticks": 71760,
          "time": 50.166468,
          "velocity": 0.7874015748031497
        },
        {
          "duration": 0.16666599999999931,
          "durationTicks": 240,
          "midi": 55,
          "name": "G3",
          "ticks": 72000,
          "time": 50.333134,
          "velocity": 0.7874015748031497
        },
        {
          "duration": 0.16666599999999931,
          "durationTicks": 240,
          "midi": 44,
          "name": "G#2",
          "ticks": 72000,
          "time": 50.333134,
          "velocity": 0.7874015748031497
        },
        {
          "duration": 0.16666599999999931,
          "durationTicks": 240,
          "midi": 57,
          "name": "A3",
          "ticks": 72240,
          "time": 50.4998,
          "velocity": 0.7874015748031497
        },
        {
          "duration": 0.16666599999999931,
          "durationTicks": 240,
          "midi": 32,
          "name": "G#1",
          "ticks": 72240,
          "time": 50.4998,
          "velocity": 0.7874015748031497
        },
        {
          "duration": 0.16666599999999931,
          "durationTicks": 240,
          "midi": 61,
          "name": "C#4",
          "ticks": 72480,
          "time": 50.666466,
          "velocity": 0.7874015748031497
        },
        {
          "duration": 0.16666599999999931,
          "durationTicks": 240,
          "midi": 44,
          "name": "G#2",
          "ticks": 72480,
          "time": 50.666466,
          "velocity": 0.7874015748031497
        },
        {
          "duration": 0.16666600000000642,
          "durationTicks": 240,
          "midi": 62,
          "name": "D4",
          "ticks": 72720,
          "time": 50.833132,
          "velocity": 0.7874015748031497
        },
        {
          "duration": 0.16666600000000642,
          "durationTicks": 240,
          "midi": 32,
          "name": "G#1",
          "ticks": 72720,
          "time": 50.833132,
          "velocity": 0.7874015748031497
        },
        {
          "duration": 0.16666599999999931,
          "durationTicks": 240,
          "midi": 64,
          "name": "E4",
          "ticks": 72960,
          "time": 50.999798000000006,
          "velocity": 0.7874015748031497
        },
        {
          "duration": 0.16666599999999931,
          "durationTicks": 240,
          "midi": 44,
          "name": "G#2",
          "ticks": 72960,
          "time": 50.999798000000006,
          "velocity": 0.7874015748031497
        },
        {
          "duration": 0.16666599999999931,
          "durationTicks": 240,
          "midi": 61,
          "name": "C#4",
          "ticks": 73200,
          "time": 51.166464000000005,
          "velocity": 0.7874015748031497
        },
        {
          "duration": 0.16666599999999931,
          "durationTicks": 240,
          "midi": 33,
          "name": "A1",
          "ticks": 73200,
          "time": 51.166464000000005,
          "velocity": 0.7874015748031497
        },
        {
          "duration": 0.16666599999999931,
          "durationTicks": 240,
          "midi": 69,
          "name": "A4",
          "ticks": 73440,
          "time": 51.333130000000004,
          "velocity": 0.7874015748031497
        },
        {
          "duration": 0.16666599999999931,
          "durationTicks": 240,
          "midi": 45,
          "name": "A2",
          "ticks": 73440,
          "time": 51.333130000000004,
          "velocity": 0.7874015748031497
        },
        {
          "duration": 0.0833329999999961,
          "durationTicks": 120,
          "midi": 67,
          "name": "G4",
          "ticks": 73680,
          "time": 51.499796,
          "velocity": 0.7874015748031497
        },
        {
          "duration": 0.16666599999999931,
          "durationTicks": 240,
          "midi": 33,
          "name": "A1",
          "ticks": 73680,
          "time": 51.499796,
          "velocity": 0.7874015748031497
        },
        {
          "duration": 0.08333300000000321,
          "durationTicks": 120,
          "midi": 69,
          "name": "A4",
          "ticks": 73800,
          "time": 51.583129,
          "velocity": 0.7874015748031497
        },
        {
          "duration": 0.16666599999999931,
          "durationTicks": 240,
          "midi": 67,
          "name": "G4",
          "ticks": 73920,
          "time": 51.666462,
          "velocity": 0.7874015748031497
        },
        {
          "duration": 0.16666599999999931,
          "durationTicks": 240,
          "midi": 45,
          "name": "A2",
          "ticks": 73920,
          "time": 51.666462,
          "velocity": 0.7874015748031497
        },
        {
          "duration": 0.16666599999999931,
          "durationTicks": 240,
          "midi": 73,
          "name": "C#5",
          "ticks": 74160,
          "time": 51.833128,
          "velocity": 0.7874015748031497
        },
        {
          "duration": 0.16666599999999931,
          "durationTicks": 240,
          "midi": 33,
          "name": "A1",
          "ticks": 74160,
          "time": 51.833128,
          "velocity": 0.7874015748031497
        },
        {
          "duration": 0.16666599999999931,
          "durationTicks": 240,
          "midi": 69,
          "name": "A4",
          "ticks": 74400,
          "time": 51.999794,
          "velocity": 0.7874015748031497
        },
        {
          "duration": 0.16666599999999931,
          "durationTicks": 240,
          "midi": 45,
          "name": "A2",
          "ticks": 74400,
          "time": 51.999794,
          "velocity": 0.7874015748031497
        },
        {
          "duration": 0.08333300000000321,
          "durationTicks": 120,
          "midi": 67,
          "name": "G4",
          "ticks": 74640,
          "time": 52.16646,
          "velocity": 0.7874015748031497
        },
        {
          "duration": 0.16666599999999931,
          "durationTicks": 240,
          "midi": 33,
          "name": "A1",
          "ticks": 74640,
          "time": 52.16646,
          "velocity": 0.7874015748031497
        },
        {
          "duration": 0.0833329999999961,
          "durationTicks": 120,
          "midi": 69,
          "name": "A4",
          "ticks": 74760,
          "time": 52.249793000000004,
          "velocity": 0.7874015748031497
        },
        {
          "duration": 0.08333300000000321,
          "durationTicks": 120,
          "midi": 67,
          "name": "G4",
          "ticks": 74880,
          "time": 52.333126,
          "velocity": 0.7874015748031497
        },
        {
          "duration": 0.16666599999999931,
          "durationTicks": 240,
          "midi": 45,
          "name": "A2",
          "ticks": 74880,
          "time": 52.333126,
          "velocity": 0.7874015748031497
        },
        {
          "duration": 0.0833329999999961,
          "durationTicks": 120,
          "midi": 64,
          "name": "E4",
          "ticks": 75000,
          "time": 52.416459,
          "velocity": 0.7874015748031497
        },
        {
          "duration": 0.16666600000000642,
          "durationTicks": 240,
          "midi": 61,
          "name": "C#4",
          "ticks": 75120,
          "time": 52.499792,
          "velocity": 0.7874015748031497
        },
        {
          "duration": 0.16666600000000642,
          "durationTicks": 240,
          "midi": 33,
          "name": "A1",
          "ticks": 75120,
          "time": 52.499792,
          "velocity": 0.7874015748031497
        },
        {
          "duration": 0.16666599999999931,
          "durationTicks": 240,
          "midi": 73,
          "name": "C#5",
          "ticks": 75360,
          "time": 52.666458000000006,
          "velocity": 0.7874015748031497
        },
        {
          "duration": 0.16666599999999931,
          "durationTicks": 240,
          "midi": 45,
          "name": "A2",
          "ticks": 75360,
          "time": 52.666458000000006,
          "velocity": 0.7874015748031497
        },
        {
          "duration": 0.0833329999999961,
          "durationTicks": 120,
          "midi": 69,
          "name": "A4",
          "ticks": 75600,
          "time": 52.833124000000005,
          "velocity": 0.7874015748031497
        },
        {
          "duration": 0.16666599999999931,
          "durationTicks": 240,
          "midi": 33,
          "name": "A1",
          "ticks": 75600,
          "time": 52.833124000000005,
          "velocity": 0.7874015748031497
        },
        {
          "duration": 0.08333300000000321,
          "durationTicks": 120,
          "midi": 73,
          "name": "C#5",
          "ticks": 75720,
          "time": 52.916457,
          "velocity": 0.7874015748031497
        },
        {
          "duration": 0.0833329999999961,
          "durationTicks": 120,
          "midi": 69,
          "name": "A4",
          "ticks": 75840,
          "time": 52.999790000000004,
          "velocity": 0.7874015748031497
        },
        {
          "duration": 0.16666599999999931,
          "durationTicks": 240,
          "midi": 45,
          "name": "A2",
          "ticks": 75840,
          "time": 52.999790000000004,
          "velocity": 0.7874015748031497
        },
        {
          "duration": 0.08333300000000321,
          "durationTicks": 120,
          "midi": 73,
          "name": "C#5",
          "ticks": 75960,
          "time": 53.083123,
          "velocity": 0.7874015748031497
        },
        {
          "duration": 0.16666599999999931,
          "durationTicks": 240,
          "midi": 76,
          "name": "E5",
          "ticks": 76080,
          "time": 53.166456000000004,
          "velocity": 0.7874015748031497
        },
        {
          "duration": 0.16666599999999931,
          "durationTicks": 240,
          "midi": 33,
          "name": "A1",
          "ticks": 76080,
          "time": 53.166456000000004,
          "velocity": 0.7874015748031497
        },
        {
          "duration": 0.16666599999999931,
          "durationTicks": 240,
          "midi": 73,
          "name": "C#5",
          "ticks": 76320,
          "time": 53.333122,
          "velocity": 0.7874015748031497
        },
        {
          "duration": 0.16666599999999931,
          "durationTicks": 240,
          "midi": 45,
          "name": "A2",
          "ticks": 76320,
          "time": 53.333122,
          "velocity": 0.7874015748031497
        },
        {
          "duration": 0.16666599999999931,
          "durationTicks": 240,
          "midi": 65,
          "name": "F4",
          "ticks": 76560,
          "time": 53.499788,
          "velocity": 0.7874015748031497
        },
        {
          "duration": 0.16666599999999931,
          "durationTicks": 240,
          "midi": 33,
          "name": "A1",
          "ticks": 76560,
          "time": 53.499788,
          "velocity": 0.7874015748031497
        },
        {
          "duration": 0.16666599999999931,
          "durationTicks": 240,
          "midi": 64,
          "name": "E4",
          "ticks": 76800,
          "time": 53.666454,
          "velocity": 0.7874015748031497
        },
        {
          "duration": 0.16666599999999931,
          "durationTicks": 240,
          "midi": 45,
          "name": "A2",
          "ticks": 76800,
          "time": 53.666454,
          "velocity": 0.7874015748031497
        },
        {
          "duration": 0.16666599999999931,
          "durationTicks": 240,
          "midi": 57,
          "name": "A3",
          "ticks": 77040,
          "time": 53.83312,
          "velocity": 0.7874015748031497
        },
        {
          "duration": 0.16666599999999931,
          "durationTicks": 240,
          "midi": 38,
          "name": "D2",
          "ticks": 77040,
          "time": 53.83312,
          "velocity": 0.7874015748031497
        },
        {
          "duration": 0.16666599999999931,
          "durationTicks": 240,
          "midi": 65,
          "name": "F4",
          "ticks": 77280,
          "time": 53.999786,
          "velocity": 0.7874015748031497
        },
        {
          "duration": 0.16666599999999931,
          "durationTicks": 240,
          "midi": 50,
          "name": "D3",
          "ticks": 77280,
          "time": 53.999786,
          "velocity": 0.7874015748031497
        },
        {
          "duration": 0.08333300000000321,
          "durationTicks": 120,
          "midi": 64,
          "name": "E4",
          "ticks": 77520,
          "time": 54.166452,
          "velocity": 0.7874015748031497
        },
        {
          "duration": 0.16666600000000642,
          "durationTicks": 240,
          "midi": 38,
          "name": "D2",
          "ticks": 77520,
          "time": 54.166452,
          "velocity": 0.7874015748031497
        },
        {
          "duration": 0.08333300000000321,
          "durationTicks": 120,
          "midi": 65,
          "name": "F4",
          "ticks": 77640,
          "time": 54.249785,
          "velocity": 0.7874015748031497
        },
        {
          "duration": 0.16666599999999931,
          "durationTicks": 240,
          "midi": 64,
          "name": "E4",
          "ticks": 77760,
          "time": 54.333118000000006,
          "velocity": 0.7874015748031497
        },
        {
          "duration": 0.16666599999999931,
          "durationTicks": 240,
          "midi": 50,
          "name": "D3",
          "ticks": 77760,
          "time": 54.333118000000006,
          "velocity": 0.7874015748031497
        },
        {
          "duration": 0.16666599999999931,
          "durationTicks": 240,
          "midi": 67,
          "name": "G4",
          "ticks": 78000,
          "time": 54.499784000000005,
          "velocity": 0.7874015748031497
        },
        {
          "duration": 0.16666599999999931,
          "durationTicks": 240,
          "midi": 38,
          "name": "D2",
          "ticks": 78000,
          "time": 54.499784000000005,
          "velocity": 0.7874015748031497
        },
        {
          "duration": 0.16666599999999931,
          "durationTicks": 240,
          "midi": 65,
          "name": "F4",
          "ticks": 78240,
          "time": 54.666450000000005,
          "velocity": 0.7874015748031497
        },
        {
          "duration": 0.16666599999999931,
          "durationTicks": 240,
          "midi": 50,
          "name": "D3",
          "ticks": 78240,
          "time": 54.666450000000005,
          "velocity": 0.7874015748031497
        },
        {
          "duration": 0.0833329999999961,
          "durationTicks": 120,
          "midi": 64,
          "name": "E4",
          "ticks": 78480,
          "time": 54.833116000000004,
          "velocity": 0.7874015748031497
        },
        {
          "duration": 0.16666599999999931,
          "durationTicks": 240,
          "midi": 38,
          "name": "D2",
          "ticks": 78480,
          "time": 54.833116000000004,
          "velocity": 0.7874015748031497
        },
        {
          "duration": 0.08333300000000321,
          "durationTicks": 120,
          "midi": 65,
          "name": "F4",
          "ticks": 78600,
          "time": 54.916449,
          "velocity": 0.7874015748031497
        },
        {
          "duration": 0.0833329999999961,
          "durationTicks": 120,
          "midi": 64,
          "name": "E4",
          "ticks": 78720,
          "time": 54.999782,
          "velocity": 0.7874015748031497
        },
        {
          "duration": 0.16666599999999931,
          "durationTicks": 240,
          "midi": 50,
          "name": "D3",
          "ticks": 78720,
          "time": 54.999782,
          "velocity": 0.7874015748031497
        },
        {
          "duration": 0.08333300000000321,
          "durationTicks": 120,
          "midi": 60,
          "name": "C4",
          "ticks": 78840,
          "time": 55.083115,
          "velocity": 0.7874015748031497
        },
        {
          "duration": 0.16666599999999931,
          "durationTicks": 240,
          "midi": 62,
          "name": "D4",
          "ticks": 78960,
          "time": 55.166448,
          "velocity": 0.7874015748031497
        },
        {
          "duration": 0.16666599999999931,
          "durationTicks": 240,
          "midi": 38,
          "name": "D2",
          "ticks": 78960,
          "time": 55.166448,
          "velocity": 0.7874015748031497
        },
        {
          "duration": 0.16666599999999931,
          "durationTicks": 240,
          "midi": 69,
          "name": "A4",
          "ticks": 79200,
          "time": 55.333114,
          "velocity": 0.7874015748031497
        },
        {
          "duration": 0.16666599999999931,
          "durationTicks": 240,
          "midi": 50,
          "name": "D3",
          "ticks": 79200,
          "time": 55.333114,
          "velocity": 0.7874015748031497
        },
        {
          "duration": 0.08333300000000321,
          "durationTicks": 120,
          "midi": 67,
          "name": "G4",
          "ticks": 79440,
          "time": 55.49978,
          "velocity": 0.7874015748031497
        },
        {
          "duration": 0.16666599999999931,
          "durationTicks": 240,
          "midi": 38,
          "name": "D2",
          "ticks": 79440,
          "time": 55.49978,
          "velocity": 0.7874015748031497
        },
        {
          "duration": 0.0833329999999961,
          "durationTicks": 120,
          "midi": 69,
          "name": "A4",
          "ticks": 79560,
          "time": 55.583113000000004,
          "velocity": 0.7874015748031497
        },
        {
          "duration": 0.08333300000000321,
          "durationTicks": 120,
          "midi": 67,
          "name": "G4",
          "ticks": 79680,
          "time": 55.666446,
          "velocity": 0.7874015748031497
        },
        {
          "duration": 0.16666599999999931,
          "durationTicks": 240,
          "midi": 50,
          "name": "D3",
          "ticks": 79680,
          "time": 55.666446,
          "velocity": 0.7874015748031497
        },
        {
          "duration": 0.0833329999999961,
          "durationTicks": 120,
          "midi": 69,
          "name": "A4",
          "ticks": 79800,
          "time": 55.749779000000004,
          "velocity": 0.7874015748031497
        },
        {
          "duration": 0.16666600000000642,
          "durationTicks": 240,
          "midi": 72,
          "name": "C5",
          "ticks": 79920,
          "time": 55.833112,
          "velocity": 0.7874015748031497
        },
        {
          "duration": 0.16666600000000642,
          "durationTicks": 240,
          "midi": 38,
          "name": "D2",
          "ticks": 79920,
          "time": 55.833112,
          "velocity": 0.7874015748031497
        },
        {
          "duration": 0.16666599999999931,
          "durationTicks": 240,
          "midi": 69,
          "name": "A4",
          "ticks": 80160,
          "time": 55.999778000000006,
          "velocity": 0.7874015748031497
        },
        {
          "duration": 0.16666599999999931,
          "durationTicks": 240,
          "midi": 50,
          "name": "D3",
          "ticks": 80160,
          "time": 55.999778000000006,
          "velocity": 0.7874015748031497
        },
        {
          "duration": 0.16666599999999931,
          "durationTicks": 240,
          "midi": 67,
          "name": "G4",
          "ticks": 80400,
          "time": 56.166444000000006,
          "velocity": 0.7874015748031497
        },
        {
          "duration": 0.16666599999999931,
          "durationTicks": 240,
          "midi": 36,
          "name": "C2",
          "ticks": 80400,
          "time": 56.166444000000006,
          "velocity": 0.7874015748031497
        },
        {
          "duration": 0.16666599999999931,
          "durationTicks": 240,
          "midi": 69,
          "name": "A4",
          "ticks": 80640,
          "time": 56.333110000000005,
          "velocity": 0.7874015748031497
        },
        {
          "duration": 0.16666599999999931,
          "durationTicks": 240,
          "midi": 48,
          "name": "C3",
          "ticks": 80640,
          "time": 56.333110000000005,
          "velocity": 0.7874015748031497
        },
        {
          "duration": 0.16666599999999931,
          "durationTicks": 240,
          "midi": 57,
          "name": "A3",
          "ticks": 80880,
          "time": 56.499776000000004,
          "velocity": 0.7874015748031497
        },
        {
          "duration": 0.16666599999999931,
          "durationTicks": 240,
          "midi": 34,
          "name": "A#1",
          "ticks": 80880,
          "time": 56.499776000000004,
          "velocity": 0.7874015748031497
        },
        {
          "duration": 0.16666599999999931,
          "durationTicks": 240,
          "midi": 65,
          "name": "F4",
          "ticks": 81120,
          "time": 56.666442,
          "velocity": 0.7874015748031497
        },
        {
          "duration": 0.16666599999999931,
          "durationTicks": 240,
          "midi": 46,
          "name": "A#2",
          "ticks": 81120,
          "time": 56.666442,
          "velocity": 0.7874015748031497
        },
        {
          "duration": 0.08333300000000321,
          "durationTicks": 120,
          "midi": 64,
          "name": "E4",
          "ticks": 81360,
          "time": 56.833108,
          "velocity": 0.7874015748031497
        },
        {
          "duration": 0.16666599999999931,
          "durationTicks": 240,
          "midi": 34,
          "name": "A#1",
          "ticks": 81360,
          "time": 56.833108,
          "velocity": 0.7874015748031497
        },
        {
          "duration": 0.0833329999999961,
          "durationTicks": 120,
          "midi": 65,
          "name": "F4",
          "ticks": 81480,
          "time": 56.916441000000006,
          "velocity": 0.7874015748031497
        },
        {
          "duration": 0.16666599999999931,
          "durationTicks": 240,
          "midi": 64,
          "name": "E4",
          "ticks": 81600,
          "time": 56.999774,
          "velocity": 0.7874015748031497
        },
        {
          "duration": 0.16666599999999931,
          "durationTicks": 240,
          "midi": 46,
          "name": "A#2",
          "ticks": 81600,
          "time": 56.999774,
          "velocity": 0.7874015748031497
        },
        {
          "duration": 0.16666599999999931,
          "durationTicks": 240,
          "midi": 67,
          "name": "G4",
          "ticks": 81840,
          "time": 57.16644,
          "velocity": 0.7874015748031497
        },
        {
          "duration": 0.16666599999999931,
          "durationTicks": 240,
          "midi": 34,
          "name": "A#1",
          "ticks": 81840,
          "time": 57.16644,
          "velocity": 0.7874015748031497
        },
        {
          "duration": 0.16666599999999931,
          "durationTicks": 240,
          "midi": 65,
          "name": "F4",
          "ticks": 82080,
          "time": 57.333106,
          "velocity": 0.7874015748031497
        },
        {
          "duration": 0.16666599999999931,
          "durationTicks": 240,
          "midi": 46,
          "name": "A#2",
          "ticks": 82080,
          "time": 57.333106,
          "velocity": 0.7874015748031497
        },
        {
          "duration": 0.08333300000000321,
          "durationTicks": 120,
          "midi": 64,
          "name": "E4",
          "ticks": 82320,
          "time": 57.499772,
          "velocity": 0.7874015748031497
        },
        {
          "duration": 0.16666599999999931,
          "durationTicks": 240,
          "midi": 34,
          "name": "A#1",
          "ticks": 82320,
          "time": 57.499772,
          "velocity": 0.7874015748031497
        },
        {
          "duration": 0.0833329999999961,
          "durationTicks": 120,
          "midi": 65,
          "name": "F4",
          "ticks": 82440,
          "time": 57.583105,
          "velocity": 0.7874015748031497
        },
        {
          "duration": 0.08333300000000321,
          "durationTicks": 120,
          "midi": 64,
          "name": "E4",
          "ticks": 82560,
          "time": 57.666438,
          "velocity": 0.7874015748031497
        },
        {
          "duration": 0.16666600000000642,
          "durationTicks": 240,
          "midi": 46,
          "name": "A#2",
          "ticks": 82560,
          "time": 57.666438,
          "velocity": 0.7874015748031497
        },
        {
          "duration": 0.08333300000000321,
          "durationTicks": 120,
          "midi": 60,
          "name": "C4",
          "ticks": 82680,
          "time": 57.749771,
          "velocity": 0.7874015748031497
        },
        {
          "duration": 0.16666599999999931,
          "durationTicks": 240,
          "midi": 62,
          "name": "D4",
          "ticks": 82800,
          "time": 57.833104000000006,
          "velocity": 0.7874015748031497
        },
        {
          "duration": 0.16666599999999931,
          "durationTicks": 240,
          "midi": 34,
          "name": "A#1",
          "ticks": 82800,
          "time": 57.833104000000006,
          "velocity": 0.7874015748031497
        },
        {
          "duration": 0.16666599999999931,
          "durationTicks": 240,
          "midi": 69,
          "name": "A4",
          "ticks": 83040,
          "time": 57.999770000000005,
          "velocity": 0.7874015748031497
        },
        {
          "duration": 0.16666599999999931,
          "durationTicks": 240,
          "midi": 46,
          "name": "A#2",
          "ticks": 83040,
          "time": 57.999770000000005,
          "velocity": 0.7874015748031497
        },
        {
          "duration": 0.0833329999999961,
          "durationTicks": 120,
          "midi": 67,
          "name": "G4",
          "ticks": 83280,
          "time": 58.166436000000004,
          "velocity": 0.7874015748031497
        },
        {
          "duration": 0.16666599999999931,
          "durationTicks": 240,
          "midi": 34,
          "name": "A#1",
          "ticks": 83280,
          "time": 58.166436000000004,
          "velocity": 0.7874015748031497
        },
        {
          "duration": 0.08333300000000321,
          "durationTicks": 120,
          "midi": 69,
          "name": "A4",
          "ticks": 83400,
          "time": 58.249769,
          "velocity": 0.7874015748031497
        },
        {
          "duration": 0.0833329999999961,
          "durationTicks": 120,
          "midi": 67,
          "name": "G4",
          "ticks": 83520,
          "time": 58.333102000000004,
          "velocity": 0.7874015748031497
        },
        {
          "duration": 0.16666599999999931,
          "durationTicks": 240,
          "midi": 46,
          "name": "A#2",
          "ticks": 83520,
          "time": 58.333102000000004,
          "velocity": 0.7874015748031497
        },
        {
          "duration": 0.08333300000000321,
          "durationTicks": 120,
          "midi": 69,
          "name": "A4",
          "ticks": 83640,
          "time": 58.416435,
          "velocity": 0.7874015748031497
        },
        {
          "duration": 0.16666599999999931,
          "durationTicks": 240,
          "midi": 72,
          "name": "C5",
          "ticks": 83760,
          "time": 58.499768,
          "velocity": 0.7874015748031497
        },
        {
          "duration": 0.16666599999999931,
          "durationTicks": 240,
          "midi": 34,
          "name": "A#1",
          "ticks": 83760,
          "time": 58.499768,
          "velocity": 0.7874015748031497
        },
        {
          "duration": 0.16666599999999931,
          "durationTicks": 240,
          "midi": 69,
          "name": "A4",
          "ticks": 84000,
          "time": 58.666434,
          "velocity": 0.7874015748031497
        },
        {
          "duration": 0.16666599999999931,
          "durationTicks": 240,
          "midi": 46,
          "name": "A#2",
          "ticks": 84000,
          "time": 58.666434,
          "velocity": 0.7874015748031497
        },
        {
          "duration": 0.16666599999999931,
          "durationTicks": 240,
          "midi": 67,
          "name": "G4",
          "ticks": 84240,
          "time": 58.8331,
          "velocity": 0.7874015748031497
        },
        {
          "duration": 0.16666599999999931,
          "durationTicks": 240,
          "midi": 33,
          "name": "A1",
          "ticks": 84240,
          "time": 58.8331,
          "velocity": 0.7874015748031497
        },
        {
          "duration": 0.16666599999999931,
          "durationTicks": 240,
          "midi": 64,
          "name": "E4",
          "ticks": 84480,
          "time": 58.999766,
          "velocity": 0.7874015748031497
        },
        {
          "duration": 0.16666599999999931,
          "durationTicks": 240,
          "midi": 45,
          "name": "A2",
          "ticks": 84480,
          "time": 58.999766,
          "velocity": 0.7874015748031497
        },
        {
          "duration": 0.16666599999999931,
          "durationTicks": 240,
          "midi": 65,
          "name": "F4",
          "ticks": 84720,
          "time": 59.166432,
          "velocity": 0.7874015748031497
        },
        {
          "duration": 0.16666599999999931,
          "durationTicks": 240,
          "midi": 31,
          "name": "G1",
          "ticks": 84720,
          "time": 59.166432,
          "velocity": 0.7874015748031497
        },
        {
          "duration": 0.08333300000000321,
          "durationTicks": 120,
          "midi": 64,
          "name": "E4",
          "ticks": 84960,
          "time": 59.333098,
          "velocity": 0.7874015748031497
        },
        {
          "duration": 0.16666600000000642,
          "durationTicks": 240,
          "midi": 43,
          "name": "G2",
          "ticks": 84960,
          "time": 59.333098,
          "velocity": 0.7874015748031497
        },
        {
          "duration": 0.08333300000000321,
          "durationTicks": 120,
          "midi": 65,
          "name": "F4",
          "ticks": 85080,
          "time": 59.416431,
          "velocity": 0.7874015748031497
        },
        {
          "duration": 0.16666599999999931,
          "durationTicks": 240,
          "midi": 64,
          "name": "E4",
          "ticks": 85200,
          "time": 59.499764000000006,
          "velocity": 0.7874015748031497
        },
        {
          "duration": 0.16666599999999931,
          "durationTicks": 240,
          "midi": 31,
          "name": "G1",
          "ticks": 85200,
          "time": 59.499764000000006,
          "velocity": 0.7874015748031497
        },
        {
          "duration": 0.16666599999999931,
          "durationTicks": 240,
          "midi": 60,
          "name": "C4",
          "ticks": 85440,
          "time": 59.666430000000005,
          "velocity": 0.7874015748031497
        },
        {
          "duration": 0.16666599999999931,
          "durationTicks": 240,
          "midi": 43,
          "name": "G2",
          "ticks": 85440,
          "time": 59.666430000000005,
          "velocity": 0.7874015748031497
        },
        {
          "duration": 0.0833329999999961,
          "durationTicks": 120,
          "midi": 62,
          "name": "D4",
          "ticks": 85680,
          "time": 59.833096000000005,
          "velocity": 0.7874015748031497
        },
        {
          "duration": 0.16666599999999931,
          "durationTicks": 240,
          "midi": 31,
          "name": "G1",
          "ticks": 85680,
          "time": 59.833096000000005,
          "velocity": 0.7874015748031497
        },
        {
          "duration": 0.08333300000000321,
          "durationTicks": 120,
          "midi": 57,
          "name": "A3",
          "ticks": 85800,
          "time": 59.916429,
          "velocity": 0.7874015748031497
        },
        {
          "duration": 0.16666599999999931,
          "durationTicks": 240,
          "midi": 60,
          "name": "C4",
          "ticks": 85920,
          "time": 59.999762000000004,
          "velocity": 0.7874015748031497
        },
        {
          "duration": 0.16666599999999931,
          "durationTicks": 240,
          "midi": 43,
          "name": "G2",
          "ticks": 85920,
          "time": 59.999762000000004,
          "velocity": 0.7874015748031497
        },
        {
          "duration": 0.16666599999999931,
          "durationTicks": 240,
          "midi": 55,
          "name": "G3",
          "ticks": 86160,
          "time": 60.166428,
          "velocity": 0.7874015748031497
        },
        {
          "duration": 0.16666599999999931,
          "durationTicks": 240,
          "midi": 31,
          "name": "G1",
          "ticks": 86160,
          "time": 60.166428,
          "velocity": 0.7874015748031497
        },
        {
          "duration": 0.16666599999999931,
          "durationTicks": 240,
          "midi": 52,
          "name": "E3",
          "ticks": 86400,
          "time": 60.333094,
          "velocity": 0.7874015748031497
        },
        {
          "duration": 0.16666599999999931,
          "durationTicks": 240,
          "midi": 43,
          "name": "G2",
          "ticks": 86400,
          "time": 60.333094,
          "velocity": 0.7874015748031497
        },
        {
          "duration": 0.16666599999999931,
          "durationTicks": 240,
          "midi": 50,
          "name": "D3",
          "ticks": 86640,
          "time": 60.49976,
          "velocity": 0.7874015748031497
        },
        {
          "duration": 0.16666599999999931,
          "durationTicks": 240,
          "midi": 32,
          "name": "G#1",
          "ticks": 86640,
          "time": 60.49976,
          "velocity": 0.7874015748031497
        },
        {
          "duration": 0.16666599999999931,
          "durationTicks": 240,
          "midi": 52,
          "name": "E3",
          "ticks": 86880,
          "time": 60.666426,
          "velocity": 0.7874015748031497
        },
        {
          "duration": 0.16666599999999931,
          "durationTicks": 240,
          "midi": 44,
          "name": "G#2",
          "ticks": 86880,
          "time": 60.666426,
          "velocity": 0.7874015748031497
        },
        {
          "duration": 0.16666599999999931,
          "durationTicks": 240,
          "midi": 53,
          "name": "F3",
          "ticks": 87120,
          "time": 60.833092,
          "velocity": 0.7874015748031497
        },
        {
          "duration": 0.16666599999999931,
          "durationTicks": 240,
          "midi": 32,
          "name": "G#1",
          "ticks": 87120,
          "time": 60.833092,
          "velocity": 0.7874015748031497
        },
        {
          "duration": 0.16666600000000642,
          "durationTicks": 240,
          "midi": 55,
          "name": "G3",
          "ticks": 87360,
          "time": 60.999758,
          "velocity": 0.7874015748031497
        },
        {
          "duration": 0.16666600000000642,
          "durationTicks": 240,
          "midi": 44,
          "name": "G#2",
          "ticks": 87360,
          "time": 60.999758,
          "velocity": 0.7874015748031497
        },
        {
          "duration": 0.16666599999999931,
          "durationTicks": 240,
          "midi": 57,
          "name": "A3",
          "ticks": 87600,
          "time": 61.166424000000006,
          "velocity": 0.7874015748031497
        },
        {
          "duration": 0.16666599999999931,
          "durationTicks": 240,
          "midi": 32,
          "name": "G#1",
          "ticks": 87600,
          "time": 61.166424000000006,
          "velocity": 0.7874015748031497
        },
        {
          "duration": 0.16666599999999931,
          "durationTicks": 240,
          "midi": 61,
          "name": "C#4",
          "ticks": 87840,
          "time": 61.333090000000006,
          "velocity": 0.7874015748031497
        },
        {
          "duration": 0.16666599999999931,
          "durationTicks": 240,
          "midi": 44,
          "name": "G#2",
          "ticks": 87840,
          "time": 61.333090000000006,
          "velocity": 0.7874015748031497
        },
        {
          "duration": 0.16666599999999931,
          "durationTicks": 240,
          "midi": 62,
          "name": "D4",
          "ticks": 88080,
          "time": 61.499756000000005,
          "velocity": 0.7874015748031497
        },
        {
          "duration": 0.16666599999999931,
          "durationTicks": 240,
          "midi": 32,
          "name": "G#1",
          "ticks": 88080,
          "time": 61.499756000000005,
          "velocity": 0.7874015748031497
        },
        {
          "duration": 0.16666599999999931,
          "durationTicks": 240,
          "midi": 64,
          "name": "E4",
          "ticks": 88320,
          "time": 61.666422000000004,
          "velocity": 0.7874015748031497
        },
        {
          "duration": 0.16666599999999931,
          "durationTicks": 240,
          "midi": 44,
          "name": "G#2",
          "ticks": 88320,
          "time": 61.666422000000004,
          "velocity": 0.7874015748031497
        },
        {
          "duration": 0.16666599999999931,
          "durationTicks": 240,
          "midi": 61,
          "name": "C#4",
          "ticks": 88560,
          "time": 61.833088000000004,
          "velocity": 0.7874015748031497
        },
        {
          "duration": 0.16666599999999931,
          "durationTicks": 240,
          "midi": 33,
          "name": "A1",
          "ticks": 88560,
          "time": 61.833088000000004,
          "velocity": 0.7874015748031497
        },
        {
          "duration": 0.16666599999999931,
          "durationTicks": 240,
          "midi": 69,
          "name": "A4",
          "ticks": 88800,
          "time": 61.999754,
          "velocity": 0.7874015748031497
        },
        {
          "duration": 0.16666599999999931,
          "durationTicks": 240,
          "midi": 45,
          "name": "A2",
          "ticks": 88800,
          "time": 61.999754,
          "velocity": 0.7874015748031497
        },
        {
          "duration": 0.08333300000000321,
          "durationTicks": 120,
          "midi": 67,
          "name": "G4",
          "ticks": 89040,
          "time": 62.16642,
          "velocity": 0.7874015748031497
        },
        {
          "duration": 0.16666599999999931,
          "durationTicks": 240,
          "midi": 33,
          "name": "A1",
          "ticks": 89040,
          "time": 62.16642,
          "velocity": 0.7874015748031497
        },
        {
          "duration": 0.0833329999999961,
          "durationTicks": 120,
          "midi": 69,
          "name": "A4",
          "ticks": 89160,
          "time": 62.249753000000005,
          "velocity": 0.7874015748031497
        },
        {
          "duration": 0.16666599999999931,
          "durationTicks": 240,
          "midi": 67,
          "name": "G4",
          "ticks": 89280,
          "time": 62.333086,
          "velocity": 0.7874015748031497
        },
        {
          "duration": 0.16666599999999931,
          "durationTicks": 240,
          "midi": 45,
          "name": "A2",
          "ticks": 89280,
          "time": 62.333086,
          "velocity": 0.7874015748031497
        },
        {
          "duration": 0.16666599999999931,
          "durationTicks": 240,
          "midi": 73,
          "name": "C#5",
          "ticks": 89520,
          "time": 62.499752,
          "velocity": 0.7874015748031497
        },
        {
          "duration": 0.16666599999999931,
          "durationTicks": 240,
          "midi": 33,
          "name": "A1",
          "ticks": 89520,
          "time": 62.499752,
          "velocity": 0.7874015748031497
        },
        {
          "duration": 0.16666600000000642,
          "durationTicks": 240,
          "midi": 69,
          "name": "A4",
          "ticks": 89760,
          "time": 62.666418,
          "velocity": 0.7874015748031497
        },
        {
          "duration": 0.16666600000000642,
          "durationTicks": 240,
          "midi": 45,
          "name": "A2",
          "ticks": 89760,
          "time": 62.666418,
          "velocity": 0.7874015748031497
        },
        {
          "duration": 0.0833329999999961,
          "durationTicks": 120,
          "midi": 67,
          "name": "G4",
          "ticks": 90000,
          "time": 62.83308400000001,
          "velocity": 0.7874015748031497
        },
        {
          "duration": 0.16666599999999931,
          "durationTicks": 240,
          "midi": 33,
          "name": "A1",
          "ticks": 90000,
          "time": 62.83308400000001,
          "velocity": 0.7874015748031497
        },
        {
          "duration": 0.08333300000000321,
          "durationTicks": 120,
          "midi": 69,
          "name": "A4",
          "ticks": 90120,
          "time": 62.916417,
          "velocity": 0.7874015748031497
        },
        {
          "duration": 0.0833329999999961,
          "durationTicks": 120,
          "midi": 67,
          "name": "G4",
          "ticks": 90240,
          "time": 62.999750000000006,
          "velocity": 0.7874015748031497
        },
        {
          "duration": 0.16666599999999931,
          "durationTicks": 240,
          "midi": 45,
          "name": "A2",
          "ticks": 90240,
          "time": 62.999750000000006,
          "velocity": 0.7874015748031497
        },
        {
          "duration": 0.08333300000000321,
          "durationTicks": 120,
          "midi": 64,
          "name": "E4",
          "ticks": 90360,
          "time": 63.083083,
          "velocity": 0.7874015748031497
        },
        {
          "duration": 0.16666599999999931,
          "durationTicks": 240,
          "midi": 61,
          "name": "C#4",
          "ticks": 90480,
          "time": 63.166416000000005,
          "velocity": 0.7874015748031497
        },
        {
          "duration": 0.16666599999999931,
          "durationTicks": 240,
          "midi": 33,
          "name": "A1",
          "ticks": 90480,
          "time": 63.166416000000005,
          "velocity": 0.7874015748031497
        },
        {
          "duration": 0.16666599999999931,
          "durationTicks": 240,
          "midi": 73,
          "name": "C#5",
          "ticks": 90720,
          "time": 63.333082000000005,
          "velocity": 0.7874015748031497
        },
        {
          "duration": 0.16666599999999931,
          "durationTicks": 240,
          "midi": 45,
          "name": "A2",
          "ticks": 90720,
          "time": 63.333082000000005,
          "velocity": 0.7874015748031497
        },
        {
          "duration": 0.0833329999999961,
          "durationTicks": 120,
          "midi": 69,
          "name": "A4",
          "ticks": 90960,
          "time": 63.499748000000004,
          "velocity": 0.7874015748031497
        },
        {
          "duration": 0.16666599999999931,
          "durationTicks": 240,
          "midi": 33,
          "name": "A1",
          "ticks": 90960,
          "time": 63.499748000000004,
          "velocity": 0.7874015748031497
        },
        {
          "duration": 0.08333300000000321,
          "durationTicks": 120,
          "midi": 73,
          "name": "C#5",
          "ticks": 91080,
          "time": 63.583081,
          "velocity": 0.7874015748031497
        },
        {
          "duration": 0.08333300000000321,
          "durationTicks": 120,
          "midi": 69,
          "name": "A4",
          "ticks": 91200,
          "time": 63.666414,
          "velocity": 0.7874015748031497
        },
        {
          "duration": 0.16666599999999931,
          "durationTicks": 240,
          "midi": 45,
          "name": "A2",
          "ticks": 91200,
          "time": 63.666414,
          "velocity": 0.7874015748031497
        },
        {
          "duration": 0.0833329999999961,
          "durationTicks": 120,
          "midi": 73,
          "name": "C#5",
          "ticks": 91320,
          "time": 63.749747000000006,
          "velocity": 0.7874015748031497
        },
        {
          "duration": 0.16666599999999931,
          "durationTicks": 240,
          "midi": 76,
          "name": "E5",
          "ticks": 91440,
          "time": 63.83308,
          "velocity": 0.7874015748031497
        },
        {
          "duration": 0.16666599999999931,
          "durationTicks": 240,
          "midi": 33,
          "name": "A1",
          "ticks": 91440,
          "time": 63.83308,
          "velocity": 0.7874015748031497
        },
        {
          "duration": 0.16666600000000642,
          "durationTicks": 240,
          "midi": 73,
          "name": "C#5",
          "ticks": 91680,
          "time": 63.999746,
          "velocity": 0.7874015748031497
        },
        {
          "duration": 0.16666600000000642,
          "durationTicks": 240,
          "midi": 45,
          "name": "A2",
          "ticks": 91680,
          "time": 63.999746,
          "velocity": 0.7874015748031497
        },
        {
          "duration": 0.33333199999999863,
          "durationTicks": 480,
          "midi": 81,
          "name": "A5",
          "ticks": 91920,
          "time": 64.16641200000001,
          "velocity": 0.7874015748031497
        },
        {
          "duration": 0.1666659999999922,
          "durationTicks": 240,
          "midi": 33,
          "name": "A1",
          "ticks": 91920,
          "time": 64.16641200000001,
          "velocity": 0.7874015748031497
        },
        {
          "duration": 0.16666600000000642,
          "durationTicks": 240,
          "midi": 45,
          "name": "A2",
          "ticks": 92160,
          "time": 64.333078,
          "velocity": 0.7874015748031497
        },
        {
          "duration": 0.33333199999999863,
          "durationTicks": 480,
          "midi": 74,
          "name": "D5",
          "ticks": 92400,
          "time": 64.499744,
          "velocity": 0.7874015748031497
        },
        {
          "duration": 0.1666659999999922,
          "durationTicks": 240,
          "midi": 34,
          "name": "A#1",
          "ticks": 92400,
          "time": 64.499744,
          "velocity": 0.7874015748031497
        },
        {
          "duration": 0.16666600000000642,
          "durationTicks": 240,
          "midi": 46,
          "name": "A#2",
          "ticks": 92640,
          "time": 64.66641,
          "velocity": 0.7874015748031497
        },
        {
          "duration": 0.33333199999999863,
          "durationTicks": 480,
          "midi": 77,
          "name": "F5",
          "ticks": 92880,
          "time": 64.833076,
          "velocity": 0.7874015748031497
        },
        {
          "duration": 0.1666659999999922,
          "durationTicks": 240,
          "midi": 34,
          "name": "A#1",
          "ticks": 92880,
          "time": 64.833076,
          "velocity": 0.7874015748031497
        },
        {
          "duration": 0.16666600000000642,
          "durationTicks": 240,
          "midi": 46,
          "name": "A#2",
          "ticks": 93120,
          "time": 64.999742,
          "velocity": 0.7874015748031497
        },
        {
          "duration": 0.33333199999999863,
          "durationTicks": 480,
          "midi": 76,
          "name": "E5",
          "ticks": 93360,
          "time": 65.166408,
          "velocity": 0.7874015748031497
        },
        {
          "duration": 0.1666659999999922,
          "durationTicks": 240,
          "midi": 34,
          "name": "A#1",
          "ticks": 93360,
          "time": 65.166408,
          "velocity": 0.7874015748031497
        },
        {
          "duration": 0.16666600000000642,
          "durationTicks": 240,
          "midi": 46,
          "name": "A#2",
          "ticks": 93600,
          "time": 65.333074,
          "velocity": 0.7874015748031497
        },
        {
          "duration": 0.16666600000000642,
          "durationTicks": 240,
          "midi": 74,
          "name": "D5",
          "ticks": 93840,
          "time": 65.49974,
          "velocity": 0.7874015748031497
        },
        {
          "duration": 0.16666600000000642,
          "durationTicks": 240,
          "midi": 34,
          "name": "A#1",
          "ticks": 93840,
          "time": 65.49974,
          "velocity": 0.7874015748031497
        },
        {
          "duration": 0.49999799999999084,
          "durationTicks": 720,
          "midi": 72,
          "name": "C5",
          "ticks": 94080,
          "time": 65.66640600000001,
          "velocity": 0.7874015748031497
        },
        {
          "duration": 0.1666659999999922,
          "durationTicks": 240,
          "midi": 46,
          "name": "A#2",
          "ticks": 94080,
          "time": 65.66640600000001,
          "velocity": 0.7874015748031497
        },
        {
          "duration": 0.16666600000000642,
          "durationTicks": 240,
          "midi": 36,
          "name": "C2",
          "ticks": 94320,
          "time": 65.833072,
          "velocity": 0.7874015748031497
        },
        {
          "duration": 0.1666659999999922,
          "durationTicks": 240,
          "midi": 48,
          "name": "C3",
          "ticks": 94560,
          "time": 65.99973800000001,
          "velocity": 0.7874015748031497
        },
        {
          "duration": 0.33333199999999863,
          "durationTicks": 480,
          "midi": 81,
          "name": "A5",
          "ticks": 94800,
          "time": 66.166404,
          "velocity": 0.7874015748031497
        },
        {
          "duration": 0.16666600000000642,
          "durationTicks": 240,
          "midi": 36,
          "name": "C2",
          "ticks": 94800,
          "time": 66.166404,
          "velocity": 0.7874015748031497
        },
        {
          "duration": 0.1666659999999922,
          "durationTicks": 240,
          "midi": 48,
          "name": "C3",
          "ticks": 95040,
          "time": 66.33307,
          "velocity": 0.7874015748031497
        },
        {
          "duration": 0.33333199999999863,
          "durationTicks": 480,
          "midi": 76,
          "name": "E5",
          "ticks": 95280,
          "time": 66.499736,
          "velocity": 0.7874015748031497
        },
        {
          "duration": 0.16666600000000642,
          "durationTicks": 240,
          "midi": 36,
          "name": "C2",
          "ticks": 95280,
          "time": 66.499736,
          "velocity": 0.7874015748031497
        },
        {
          "duration": 0.1666659999999922,
          "durationTicks": 240,
          "midi": 48,
          "name": "C3",
          "ticks": 95520,
          "time": 66.666402,
          "velocity": 0.7874015748031497
        },
        {
          "duration": 0.33333200000001284,
          "durationTicks": 480,
          "midi": 72,
          "name": "C5",
          "ticks": 95760,
          "time": 66.833068,
          "velocity": 0.7874015748031497
        },
        {
          "duration": 0.16666600000000642,
          "durationTicks": 240,
          "midi": 36,
          "name": "C2",
          "ticks": 95760,
          "time": 66.833068,
          "velocity": 0.7874015748031497
        },
        {
          "duration": 0.16666600000000642,
          "durationTicks": 240,
          "midi": 48,
          "name": "C3",
          "ticks": 96000,
          "time": 66.999734,
          "velocity": 0.7874015748031497
        },
        {
          "duration": 0.33333199999999863,
          "durationTicks": 480,
          "midi": 74,
          "name": "D5",
          "ticks": 96240,
          "time": 67.16640000000001,
          "velocity": 0.7874015748031497
        },
        {
          "duration": 0.1666659999999922,
          "durationTicks": 240,
          "midi": 38,
          "name": "D2",
          "ticks": 96240,
          "time": 67.16640000000001,
          "velocity": 0.7874015748031497
        },
        {
          "duration": 0.16666600000000642,
          "durationTicks": 240,
          "midi": 50,
          "name": "D3",
          "ticks": 96480,
          "time": 67.333066,
          "velocity": 0.7874015748031497
        },
        {
          "duration": 0.33333199999999863,
          "durationTicks": 480,
          "midi": 77,
          "name": "F5",
          "ticks": 96720,
          "time": 67.49973200000001,
          "velocity": 0.7874015748031497
        },
        {
          "duration": 0.1666659999999922,
          "durationTicks": 240,
          "midi": 38,
          "name": "D2",
          "ticks": 96720,
          "time": 67.49973200000001,
          "velocity": 0.7874015748031497
        },
        {
          "duration": 0.16666600000000642,
          "durationTicks": 240,
          "midi": 50,
          "name": "D3",
          "ticks": 96960,
          "time": 67.666398,
          "velocity": 0.7874015748031497
        },
        {
          "duration": 0.33333199999999863,
          "durationTicks": 480,
          "midi": 76,
          "name": "E5",
          "ticks": 97200,
          "time": 67.83306400000001,
          "velocity": 0.7874015748031497
        },
        {
          "duration": 0.1666659999999922,
          "durationTicks": 240,
          "midi": 38,
          "name": "D2",
          "ticks": 97200,
          "time": 67.83306400000001,
          "velocity": 0.7874015748031497
        },
        {
          "duration": 0.16666600000000642,
          "durationTicks": 240,
          "midi": 50,
          "name": "D3",
          "ticks": 97440,
          "time": 67.99973,
          "velocity": 0.7874015748031497
        },
        {
          "duration": 0.1666659999999922,
          "durationTicks": 240,
          "midi": 74,
          "name": "D5",
          "ticks": 97680,
          "time": 68.166396,
          "velocity": 0.7874015748031497
        },
        {
          "duration": 0.1666659999999922,
          "durationTicks": 240,
          "midi": 38,
          "name": "D2",
          "ticks": 97680,
          "time": 68.166396,
          "velocity": 0.7874015748031497
        },
        {
          "duration": 0.49999800000000505,
          "durationTicks": 720,
          "midi": 72,
          "name": "C5",
          "ticks": 97920,
          "time": 68.333062,
          "velocity": 0.7874015748031497
        },
        {
          "duration": 0.16666600000000642,
          "durationTicks": 240,
          "midi": 50,
          "name": "D3",
          "ticks": 97920,
          "time": 68.333062,
          "velocity": 0.7874015748031497
        },
        {
          "duration": 0.1666659999999922,
          "durationTicks": 240,
          "midi": 38,
          "name": "D2",
          "ticks": 98160,
          "time": 68.499728,
          "velocity": 0.7874015748031497
        },
        {
          "duration": 0.16666600000000642,
          "durationTicks": 240,
          "midi": 50,
          "name": "D3",
          "ticks": 98400,
          "time": 68.666394,
          "velocity": 0.7874015748031497
        },
        {
          "duration": 0.33333199999999863,
          "durationTicks": 480,
          "midi": 81,
          "name": "A5",
          "ticks": 98640,
          "time": 68.83306,
          "velocity": 0.7874015748031497
        },
        {
          "duration": 0.16666600000000642,
          "durationTicks": 240,
          "midi": 38,
          "name": "D2",
          "ticks": 98640,
          "time": 68.83306,
          "velocity": 0.7874015748031497
        },
        {
          "duration": 0.1666659999999922,
          "durationTicks": 240,
          "midi": 50,
          "name": "D3",
          "ticks": 98880,
          "time": 68.99972600000001,
          "velocity": 0.7874015748031497
        },
        {
          "duration": 0.33333199999999863,
          "durationTicks": 480,
          "midi": 76,
          "name": "E5",
          "ticks": 99120,
          "time": 69.166392,
          "velocity": 0.7874015748031497
        },
        {
          "duration": 0.16666600000000642,
          "durationTicks": 240,
          "midi": 38,
          "name": "D2",
          "ticks": 99120,
          "time": 69.166392,
          "velocity": 0.7874015748031497
        },
        {
          "duration": 0.1666659999999922,
          "durationTicks": 240,
          "midi": 50,
          "name": "D3",
          "ticks": 99360,
          "time": 69.33305800000001,
          "velocity": 0.7874015748031497
        },
        {
          "duration": 0.16666600000000642,
          "durationTicks": 240,
          "midi": 72,
          "name": "C5",
          "ticks": 99600,
          "time": 69.499724,
          "velocity": 0.7874015748031497
        },
        {
          "duration": 0.16666600000000642,
          "durationTicks": 240,
          "midi": 36,
          "name": "C2",
          "ticks": 99600,
          "time": 69.499724,
          "velocity": 0.7874015748031497
        },
        {
          "duration": 0.1666659999999922,
          "durationTicks": 240,
          "midi": 73,
          "name": "C#5",
          "ticks": 99840,
          "time": 69.66639,
          "velocity": 0.7874015748031497
        },
        {
          "duration": 0.1666659999999922,
          "durationTicks": 240,
          "midi": 48,
          "name": "C3",
          "ticks": 99840,
          "time": 69.66639,
          "velocity": 0.7874015748031497
        },
        {
          "duration": 0.33333199999999863,
          "durationTicks": 480,
          "midi": 74,
          "name": "D5",
          "ticks": 100080,
          "time": 69.833056,
          "velocity": 0.7874015748031497
        },
        {
          "duration": 0.16666600000000642,
          "durationTicks": 240,
          "midi": 34,
          "name": "A#1",
          "ticks": 100080,
          "time": 69.833056,
          "velocity": 0.7874015748031497
        },
        {
          "duration": 0.1666659999999922,
          "durationTicks": 240,
          "midi": 46,
          "name": "A#2",
          "ticks": 100320,
          "time": 69.999722,
          "velocity": 0.7874015748031497
        },
        {
          "duration": 0.33333200000001284,
          "durationTicks": 480,
          "midi": 77,
          "name": "F5",
          "ticks": 100560,
          "time": 70.166388,
          "velocity": 0.7874015748031497
        },
        {
          "duration": 0.16666600000000642,
          "durationTicks": 240,
          "midi": 34,
          "name": "A#1",
          "ticks": 100560,
          "time": 70.166388,
          "velocity": 0.7874015748031497
        },
        {
          "duration": 0.16666600000000642,
          "durationTicks": 240,
          "midi": 46,
          "name": "A#2",
          "ticks": 100800,
          "time": 70.333054,
          "velocity": 0.7874015748031497
        },
        {
          "duration": 0.33333199999999863,
          "durationTicks": 480,
          "midi": 76,
          "name": "E5",
          "ticks": 101040,
          "time": 70.49972000000001,
          "velocity": 0.7874015748031497
        },
        {
          "duration": 0.1666659999999922,
          "durationTicks": 240,
          "midi": 34,
          "name": "A#1",
          "ticks": 101040,
          "time": 70.49972000000001,
          "velocity": 0.7874015748031497
        },
        {
          "duration": 0.16666600000000642,
          "durationTicks": 240,
          "midi": 46,
          "name": "A#2",
          "ticks": 101280,
          "time": 70.666386,
          "velocity": 0.7874015748031497
        },
        {
          "duration": 0.1666659999999922,
          "durationTicks": 240,
          "midi": 74,
          "name": "D5",
          "ticks": 101520,
          "time": 70.83305200000001,
          "velocity": 0.7874015748031497
        },
        {
          "duration": 0.1666659999999922,
          "durationTicks": 240,
          "midi": 34,
          "name": "A#1",
          "ticks": 101520,
          "time": 70.83305200000001,
          "velocity": 0.7874015748031497
        },
        {
          "duration": 0.49999800000000505,
          "durationTicks": 720,
          "midi": 72,
          "name": "C5",
          "ticks": 101760,
          "time": 70.999718,
          "velocity": 0.7874015748031497
        },
        {
          "duration": 0.16666600000000642,
          "durationTicks": 240,
          "midi": 46,
          "name": "A#2",
          "ticks": 101760,
          "time": 70.999718,
          "velocity": 0.7874015748031497
        },
        {
          "duration": 0.1666659999999922,
          "durationTicks": 240,
          "midi": 36,
          "name": "C2",
          "ticks": 102000,
          "time": 71.16638400000001,
          "velocity": 0.7874015748031497
        },
        {
          "duration": 0.16666600000000642,
          "durationTicks": 240,
          "midi": 48,
          "name": "C3",
          "ticks": 102240,
          "time": 71.33305,
          "velocity": 0.7874015748031497
        },
        {
          "duration": 0.33333199999999863,
          "durationTicks": 480,
          "midi": 81,
          "name": "A5",
          "ticks": 102480,
          "time": 71.499716,
          "velocity": 0.7874015748031497
        },
        {
          "duration": 0.1666659999999922,
          "durationTicks": 240,
          "midi": 36,
          "name": "C2",
          "ticks": 102480,
          "time": 71.499716,
          "velocity": 0.7874015748031497
        },
        {
          "duration": 0.16666600000000642,
          "durationTicks": 240,
          "midi": 48,
          "name": "C3",
          "ticks": 102720,
          "time": 71.666382,
          "velocity": 0.7874015748031497
        },
        {
          "duration": 0.33333199999999863,
          "durationTicks": 480,
          "midi": 76,
          "name": "E5",
          "ticks": 102960,
          "time": 71.833048,
          "velocity": 0.7874015748031497
        },
        {
          "duration": 0.1666659999999922,
          "durationTicks": 240,
          "midi": 36,
          "name": "C2",
          "ticks": 102960,
          "time": 71.833048,
          "velocity": 0.7874015748031497
        },
        {
          "duration": 0.16666600000000642,
          "durationTicks": 240,
          "midi": 48,
          "name": "C3",
          "ticks": 103200,
          "time": 71.999714,
          "velocity": 0.7874015748031497
        },
        {
          "duration": 0.33333199999999863,
          "durationTicks": 480,
          "midi": 72,
          "name": "C5",
          "ticks": 103440,
          "time": 72.16638,
          "velocity": 0.7874015748031497
        },
        {
          "duration": 0.16666600000000642,
          "durationTicks": 240,
          "midi": 36,
          "name": "C2",
          "ticks": 103440,
          "time": 72.16638,
          "velocity": 0.7874015748031497
        },
        {
          "duration": 0.1666659999999922,
          "durationTicks": 240,
          "midi": 48,
          "name": "C3",
          "ticks": 103680,
          "time": 72.33304600000001,
          "velocity": 0.7874015748031497
        },
        {
          "duration": 0.33333199999999863,
          "durationTicks": 480,
          "midi": 74,
          "name": "D5",
          "ticks": 103920,
          "time": 72.499712,
          "velocity": 0.7874015748031497
        },
        {
          "duration": 0.16666600000000642,
          "durationTicks": 240,
          "midi": 38,
          "name": "D2",
          "ticks": 103920,
          "time": 72.499712,
          "velocity": 0.7874015748031497
        },
        {
          "duration": 0.1666659999999922,
          "durationTicks": 240,
          "midi": 50,
          "name": "D3",
          "ticks": 104160,
          "time": 72.66637800000001,
          "velocity": 0.7874015748031497
        },
        {
          "duration": 0.33333199999999863,
          "durationTicks": 480,
          "midi": 77,
          "name": "F5",
          "ticks": 104400,
          "time": 72.833044,
          "velocity": 0.7874015748031497
        },
        {
          "duration": 0.16666600000000642,
          "durationTicks": 240,
          "midi": 38,
          "name": "D2",
          "ticks": 104400,
          "time": 72.833044,
          "velocity": 0.7874015748031497
        },
        {
          "duration": 0.1666659999999922,
          "durationTicks": 240,
          "midi": 50,
          "name": "D3",
          "ticks": 104640,
          "time": 72.99971000000001,
          "velocity": 0.7874015748031497
        },
        {
          "duration": 0.33333199999999863,
          "durationTicks": 480,
          "midi": 76,
          "name": "E5",
          "ticks": 104880,
          "time": 73.166376,
          "velocity": 0.7874015748031497
        },
        {
          "duration": 0.16666600000000642,
          "durationTicks": 240,
          "midi": 38,
          "name": "D2",
          "ticks": 104880,
          "time": 73.166376,
          "velocity": 0.7874015748031497
        },
        {
          "duration": 0.1666659999999922,
          "durationTicks": 240,
          "midi": 50,
          "name": "D3",
          "ticks": 105120,
          "time": 73.333042,
          "velocity": 0.7874015748031497
        },
        {
          "duration": 0.16666600000000642,
          "durationTicks": 240,
          "midi": 77,
          "name": "F5",
          "ticks": 105360,
          "time": 73.499708,
          "velocity": 0.7874015748031497
        },
        {
          "duration": 0.16666600000000642,
          "durationTicks": 240,
          "midi": 38,
          "name": "D2",
          "ticks": 105360,
          "time": 73.499708,
          "velocity": 0.7874015748031497
        },
        {
          "duration": 0.49999800000000505,
          "durationTicks": 720,
          "midi": 79,
          "name": "G5",
          "ticks": 105600,
          "time": 73.666374,
          "velocity": 0.7874015748031497
        },
        {
          "duration": 0.1666659999999922,
          "durationTicks": 240,
          "midi": 50,
          "name": "D3",
          "ticks": 105600,
          "time": 73.666374,
          "velocity": 0.7874015748031497
        },
        {
          "duration": 0.16666600000000642,
          "durationTicks": 240,
          "midi": 38,
          "name": "D2",
          "ticks": 105840,
          "time": 73.83304,
          "velocity": 0.7874015748031497
        },
        {
          "duration": 0.16666600000000642,
          "durationTicks": 240,
          "midi": 50,
          "name": "D3",
          "ticks": 106080,
          "time": 73.999706,
          "velocity": 0.7874015748031497
        },
        {
          "duration": 0.33333199999999863,
          "durationTicks": 480,
          "midi": 77,
          "name": "F5",
          "ticks": 106320,
          "time": 74.16637200000001,
          "velocity": 0.7874015748031497
        },
        {
          "duration": 0.1666659999999922,
          "durationTicks": 240,
          "midi": 40,
          "name": "E2",
          "ticks": 106320,
          "time": 74.16637200000001,
          "velocity": 0.7874015748031497
        },
        {
          "duration": 0.16666600000000642,
          "durationTicks": 240,
          "midi": 52,
          "name": "E3",
          "ticks": 106560,
          "time": 74.333038,
          "velocity": 0.7874015748031497
        },
        {
          "duration": 0.33333199999999863,
          "durationTicks": 480,
          "midi": 76,
          "name": "E5",
          "ticks": 106800,
          "time": 74.49970400000001,
          "velocity": 0.7874015748031497
        },
        {
          "duration": 0.1666659999999922,
          "durationTicks": 240,
          "midi": 41,
          "name": "F2",
          "ticks": 106800,
          "time": 74.49970400000001,
          "velocity": 0.7874015748031497
        },
        {
          "duration": 0.16666600000000642,
          "durationTicks": 240,
          "midi": 53,
          "name": "F3",
          "ticks": 107040,
          "time": 74.66637,
          "velocity": 0.7874015748031497
        },
        {
          "duration": 0.1666659999999922,
          "durationTicks": 240,
          "midi": 72,
          "name": "C5",
          "ticks": 107280,
          "time": 74.833036,
          "velocity": 0.7874015748031497
        },
        {
          "duration": 0.1666659999999922,
          "durationTicks": 240,
          "midi": 36,
          "name": "C2",
          "ticks": 107280,
          "time": 74.833036,
          "velocity": 0.7874015748031497
        },
        {
          "duration": 0.16666600000000642,
          "durationTicks": 240,
          "midi": 73,
          "name": "C#5",
          "ticks": 107520,
          "time": 74.999702,
          "velocity": 0.7874015748031497
        },
        {
          "duration": 0.16666600000000642,
          "durationTicks": 240,
          "midi": 48,
          "name": "C3",
          "ticks": 107520,
          "time": 74.999702,
          "velocity": 0.7874015748031497
        },
        {
          "duration": 0.33333199999999863,
          "durationTicks": 480,
          "midi": 77,
          "name": "F5",
          "ticks": 107760,
          "time": 75.166368,
          "velocity": 0.7874015748031497
        },
        {
          "duration": 0.33333199999999863,
          "durationTicks": 480,
          "midi": 74,
          "name": "D5",
          "ticks": 107760,
          "time": 75.166368,
          "velocity": 0.7874015748031497
        },
        {
          "duration": 0.1666659999999922,
          "durationTicks": 240,
          "midi": 34,
          "name": "A#1",
          "ticks": 107760,
          "time": 75.166368,
          "velocity": 0.7874015748031497
        },
        {
          "duration": 0.16666600000000642,
          "durationTicks": 240,
          "midi": 46,
          "name": "A#2",
          "ticks": 108000,
          "time": 75.333034,
          "velocity": 0.7874015748031497
        },
        {
          "duration": 0.33333199999999863,
          "durationTicks": 480,
          "midi": 81,
          "name": "A5",
          "ticks": 108240,
          "time": 75.4997,
          "velocity": 0.7874015748031497
        },
        {
          "duration": 0.33333199999999863,
          "durationTicks": 480,
          "midi": 77,
          "name": "F5",
          "ticks": 108240,
          "time": 75.4997,
          "velocity": 0.7874015748031497
        },
        {
          "duration": 0.16666600000000642,
          "durationTicks": 240,
          "midi": 34,
          "name": "A#1",
          "ticks": 108240,
          "time": 75.4997,
          "velocity": 0.7874015748031497
        },
        {
          "duration": 0.1666659999999922,
          "durationTicks": 240,
          "midi": 46,
          "name": "A#2",
          "ticks": 108480,
          "time": 75.66636600000001,
          "velocity": 0.7874015748031497
        },
        {
          "duration": 0.33333199999999863,
          "durationTicks": 480,
          "midi": 79,
          "name": "G5",
          "ticks": 108720,
          "time": 75.833032,
          "velocity": 0.7874015748031497
        },
        {
          "duration": 0.33333199999999863,
          "durationTicks": 480,
          "midi": 76,
          "name": "E5",
          "ticks": 108720,
          "time": 75.833032,
          "velocity": 0.7874015748031497
        },
        {
          "duration": 0.16666600000000642,
          "durationTicks": 240,
          "midi": 34,
          "name": "A#1",
          "ticks": 108720,
          "time": 75.833032,
          "velocity": 0.7874015748031497
        },
        {
          "duration": 0.1666659999999922,
          "durationTicks": 240,
          "midi": 46,
          "name": "A#2",
          "ticks": 108960,
          "time": 75.99969800000001,
          "velocity": 0.7874015748031497
        },
        {
          "duration": 0.16666600000000642,
          "durationTicks": 240,
          "midi": 77,
          "name": "F5",
          "ticks": 109200,
          "time": 76.166364,
          "velocity": 0.7874015748031497
        },
        {
          "duration": 0.16666600000000642,
          "durationTicks": 240,
          "midi": 74,
          "name": "D5",
          "ticks": 109200,
          "time": 76.166364,
          "velocity": 0.7874015748031497
        },
        {
          "duration": 0.16666600000000642,
          "durationTicks": 240,
          "midi": 34,
          "name": "A#1",
          "ticks": 109200,
          "time": 76.166364,
          "velocity": 0.7874015748031497
        },
        {
          "duration": 0.49999799999999084,
          "durationTicks": 720,
          "midi": 76,
          "name": "E5",
          "ticks": 109440,
          "time": 76.33303000000001,
          "velocity": 0.7874015748031497
        },
        {
          "duration": 0.49999799999999084,
          "durationTicks": 720,
          "midi": 72,
          "name": "C5",
          "ticks": 109440,
          "time": 76.33303000000001,
          "velocity": 0.7874015748031497
        },
        {
          "duration": 0.1666659999999922,
          "durationTicks": 240,
          "midi": 46,
          "name": "A#2",
          "ticks": 109440,
          "time": 76.33303000000001,
          "velocity": 0.7874015748031497
        },
        {
          "duration": 0.16666600000000642,
          "durationTicks": 240,
          "midi": 36,
          "name": "C2",
          "ticks": 109680,
          "time": 76.499696,
          "velocity": 0.7874015748031497
        },
        {
          "duration": 0.1666659999999922,
          "durationTicks": 240,
          "midi": 48,
          "name": "C3",
          "ticks": 109920,
          "time": 76.666362,
          "velocity": 0.7874015748031497
        },
        {
          "duration": 0.33333199999999863,
          "durationTicks": 480,
          "midi": 84,
          "name": "C6",
          "ticks": 110160,
          "time": 76.833028,
          "velocity": 0.7874015748031497
        },
        {
          "duration": 0.33333199999999863,
          "durationTicks": 480,
          "midi": 79,
          "name": "G5",
          "ticks": 110160,
          "time": 76.833028,
          "velocity": 0.7874015748031497
        },
        {
          "duration": 0.16666600000000642,
          "durationTicks": 240,
          "midi": 36,
          "name": "C2",
          "ticks": 110160,
          "time": 76.833028,
          "velocity": 0.7874015748031497
        },
        {
          "duration": 0.1666659999999922,
          "durationTicks": 240,
          "midi": 48,
          "name": "C3",
          "ticks": 110400,
          "time": 76.999694,
          "velocity": 0.7874015748031497
        },
        {
          "duration": 0.33333200000001284,
          "durationTicks": 480,
          "midi": 79,
          "name": "G5",
          "ticks": 110640,
          "time": 77.16636,
          "velocity": 0.7874015748031497
        },
        {
          "duration": 0.33333200000001284,
          "durationTicks": 480,
          "midi": 76,
          "name": "E5",
          "ticks": 110640,
          "time": 77.16636,
          "velocity": 0.7874015748031497
        },
        {
          "duration": 0.16666600000000642,
          "durationTicks": 240,
          "midi": 36,
          "name": "C2",
          "ticks": 110640,
          "time": 77.16636,
          "velocity": 0.7874015748031497
        },
        {
          "duration": 0.16666600000000642,
          "durationTicks": 240,
          "midi": 48,
          "name": "C3",
          "ticks": 110880,
          "time": 77.333026,
          "velocity": 0.7874015748031497
        },
        {
          "duration": 0.33333199999999863,
          "durationTicks": 480,
          "midi": 76,
          "name": "E5",
          "ticks": 111120,
          "time": 77.49969200000001,
          "velocity": 0.7874015748031497
        },
        {
          "duration": 0.33333199999999863,
          "durationTicks": 480,
          "midi": 72,
          "name": "C5",
          "ticks": 111120,
          "time": 77.49969200000001,
          "velocity": 0.7874015748031497
        },
        {
          "duration": 0.1666659999999922,
          "durationTicks": 240,
          "midi": 36,
          "name": "C2",
          "ticks": 111120,
          "time": 77.49969200000001,
          "velocity": 0.7874015748031497
        },
        {
          "duration": 0.16666600000000642,
          "durationTicks": 240,
          "midi": 48,
          "name": "C3",
          "ticks": 111360,
          "time": 77.666358,
          "velocity": 0.7874015748031497
        },
        {
          "duration": 0.33333199999999863,
          "durationTicks": 480,
          "midi": 77,
          "name": "F5",
          "ticks": 111600,
          "time": 77.83302400000001,
          "velocity": 0.7874015748031497
        },
        {
          "duration": 0.33333199999999863,
          "durationTicks": 480,
          "midi": 74,
          "name": "D5",
          "ticks": 111600,
          "time": 77.83302400000001,
          "velocity": 0.7874015748031497
        },
        {
          "duration": 0.1666659999999922,
          "durationTicks": 240,
          "midi": 38,
          "name": "D2",
          "ticks": 111600,
          "time": 77.83302400000001,
          "velocity": 0.7874015748031497
        },
        {
          "duration": 0.16666600000000642,
          "durationTicks": 240,
          "midi": 50,
          "name": "D3",
          "ticks": 111840,
          "time": 77.99969,
          "velocity": 0.7874015748031497
        },
        {
          "duration": 0.33333199999999863,
          "durationTicks": 480,
          "midi": 81,
          "name": "A5",
          "ticks": 112080,
          "time": 78.16635600000001,
          "velocity": 0.7874015748031497
        },
        {
          "duration": 0.33333199999999863,
          "durationTicks": 480,
          "midi": 77,
          "name": "F5",
          "ticks": 112080,
          "time": 78.16635600000001,
          "velocity": 0.7874015748031497
        },
        {
          "duration": 0.1666659999999922,
          "durationTicks": 240,
          "midi": 38,
          "name": "D2",
          "ticks": 112080,
          "time": 78.16635600000001,
          "velocity": 0.7874015748031497
        },
        {
          "duration": 0.16666600000000642,
          "durationTicks": 240,
          "midi": 50,
          "name": "D3",
          "ticks": 112320,
          "time": 78.333022,
          "velocity": 0.7874015748031497
        },
        {
          "duration": 0.33333199999999863,
          "durationTicks": 480,
          "midi": 79,
          "name": "G5",
          "ticks": 112560,
          "time": 78.499688,
          "velocity": 0.7874015748031497
        },
        {
          "duration": 0.33333199999999863,
          "durationTicks": 480,
          "midi": 76,
          "name": "E5",
          "ticks": 112560,
          "time": 78.499688,
          "velocity": 0.7874015748031497
        },
        {
          "duration": 0.1666659999999922,
          "durationTicks": 240,
          "midi": 38,
          "name": "D2",
          "ticks": 112560,
          "time": 78.499688,
          "velocity": 0.7874015748031497
        },
        {
          "duration": 0.16666600000000642,
          "durationTicks": 240,
          "midi": 50,
          "name": "D3",
          "ticks": 112800,
          "time": 78.666354,
          "velocity": 0.7874015748031497
        },
        {
          "duration": 0.1666659999999922,
          "durationTicks": 240,
          "midi": 81,
          "name": "A5",
          "ticks": 113040,
          "time": 78.83302,
          "velocity": 0.7874015748031497
        },
        {
          "duration": 0.1666659999999922,
          "durationTicks": 240,
          "midi": 77,
          "name": "F5",
          "ticks": 113040,
          "time": 78.83302,
          "velocity": 0.7874015748031497
        },
        {
          "duration": 0.1666659999999922,
          "durationTicks": 240,
          "midi": 38,
          "name": "D2",
          "ticks": 113040,
          "time": 78.83302,
          "velocity": 0.7874015748031497
        },
        {
          "duration": 0.49999800000000505,
          "durationTicks": 720,
          "midi": 82,
          "name": "A#5",
          "ticks": 113280,
          "time": 78.999686,
          "velocity": 0.7874015748031497
        },
        {
          "duration": 0.49999800000000505,
          "durationTicks": 720,
          "midi": 79,
          "name": "G5",
          "ticks": 113280,
          "time": 78.999686,
          "velocity": 0.7874015748031497
        },
        {
          "duration": 0.16666600000000642,
          "durationTicks": 240,
          "midi": 50,
          "name": "D3",
          "ticks": 113280,
          "time": 78.999686,
          "velocity": 0.7874015748031497
        },
        {
          "duration": 0.16666600000000642,
          "durationTicks": 240,
          "midi": 38,
          "name": "D2",
          "ticks": 113520,
          "time": 79.166352,
          "velocity": 0.7874015748031497
        },
        {
          "duration": 0.1666659999999922,
          "durationTicks": 240,
          "midi": 50,
          "name": "D3",
          "ticks": 113760,
          "time": 79.33301800000001,
          "velocity": 0.7874015748031497
        },
        {
          "duration": 0.33333199999999863,
          "durationTicks": 480,
          "midi": 81,
          "name": "A5",
          "ticks": 114000,
          "time": 79.499684,
          "velocity": 0.7874015748031497
        },
        {
          "duration": 0.33333199999999863,
          "durationTicks": 480,
          "midi": 77,
          "name": "F5",
          "ticks": 114000,
          "time": 79.499684,
          "velocity": 0.7874015748031497
        },
        {
          "duration": 0.16666600000000642,
          "durationTicks": 240,
          "midi": 38,
          "name": "D2",
          "ticks": 114000,
          "time": 79.499684,
          "velocity": 0.7874015748031497
        },
        {
          "duration": 0.1666659999999922,
          "durationTicks": 240,
          "midi": 50,
          "name": "D3",
          "ticks": 114240,
          "time": 79.66635000000001,
          "velocity": 0.7874015748031497
        },
        {
          "duration": 0.33333199999999863,
          "durationTicks": 480,
          "midi": 79,
          "name": "G5",
          "ticks": 114480,
          "time": 79.833016,
          "velocity": 0.7874015748031497
        },
        {
          "duration": 0.33333199999999863,
          "durationTicks": 480,
          "midi": 76,
          "name": "E5",
          "ticks": 114480,
          "time": 79.833016,
          "velocity": 0.7874015748031497
        },
        {
          "duration": 0.16666600000000642,
          "durationTicks": 240,
          "midi": 38,
          "name": "D2",
          "ticks": 114480,
          "time": 79.833016,
          "velocity": 0.7874015748031497
        },
        {
          "duration": 0.1666659999999922,
          "durationTicks": 240,
          "midi": 50,
          "name": "D3",
          "ticks": 114720,
          "time": 79.999682,
          "velocity": 0.7874015748031497
        },
        {
          "duration": 0.33333199999999863,
          "durationTicks": 480,
          "midi": 76,
          "name": "E5",
          "ticks": 114960,
          "time": 80.166348,
          "velocity": 0.7874015748031497
        },
        {
          "duration": 0.33333199999999863,
          "durationTicks": 480,
          "midi": 72,
          "name": "C5",
          "ticks": 114960,
          "time": 80.166348,
          "velocity": 0.7874015748031497
        },
        {
          "duration": 0.16666600000000642,
          "durationTicks": 240,
          "midi": 36,
          "name": "C2",
          "ticks": 114960,
          "time": 80.166348,
          "velocity": 0.7874015748031497
        },
        {
          "duration": 0.1666659999999922,
          "durationTicks": 240,
          "midi": 48,
          "name": "C3",
          "ticks": 115200,
          "time": 80.333014,
          "velocity": 0.7874015748031497
        },
        {
          "duration": 0.33333200000001284,
          "durationTicks": 480,
          "midi": 74,
          "name": "D5",
          "ticks": 115440,
          "time": 80.49968,
          "velocity": 0.7874015748031497
        },
        {
          "duration": 0.33333200000001284,
          "durationTicks": 480,
          "midi": 70,
          "name": "A#4",
          "ticks": 115440,
          "time": 80.49968,
          "velocity": 0.7874015748031497
        },
        {
          "duration": 0.16666600000000642,
          "durationTicks": 240,
          "midi": 34,
          "name": "A#1",
          "ticks": 115440,
          "time": 80.49968,
          "velocity": 0.7874015748031497
        },
        {
          "duration": 0.16666600000000642,
          "durationTicks": 240,
          "midi": 46,
          "name": "A#2",
          "ticks": 115680,
          "time": 80.666346,
          "velocity": 0.7874015748031497
        },
        {
          "duration": 0.33333199999999863,
          "durationTicks": 480,
          "midi": 77,
          "name": "F5",
          "ticks": 115920,
          "time": 80.83301200000001,
          "velocity": 0.7874015748031497
        },
        {
          "duration": 0.33333199999999863,
          "durationTicks": 480,
          "midi": 74,
          "name": "D5",
          "ticks": 115920,
          "time": 80.83301200000001,
          "velocity": 0.7874015748031497
        },
        {
          "duration": 0.1666659999999922,
          "durationTicks": 240,
          "midi": 34,
          "name": "A#1",
          "ticks": 115920,
          "time": 80.83301200000001,
          "velocity": 0.7874015748031497
        },
        {
          "duration": 0.16666600000000642,
          "durationTicks": 240,
          "midi": 46,
          "name": "A#2",
          "ticks": 116160,
          "time": 80.999678,
          "velocity": 0.7874015748031497
        },
        {
          "duration": 0.33333199999999863,
          "durationTicks": 480,
          "midi": 76,
          "name": "E5",
          "ticks": 116400,
          "time": 81.16634400000001,
          "velocity": 0.7874015748031497
        },
        {
          "duration": 0.33333199999999863,
          "durationTicks": 480,
          "midi": 72,
          "name": "C5",
          "ticks": 116400,
          "time": 81.16634400000001,
          "velocity": 0.7874015748031497
        },
        {
          "duration": 0.1666659999999922,
          "durationTicks": 240,
          "midi": 34,
          "name": "A#1",
          "ticks": 116400,
          "time": 81.16634400000001,
          "velocity": 0.7874015748031497
        },
        {
          "duration": 0.16666600000000642,
          "durationTicks": 240,
          "midi": 46,
          "name": "A#2",
          "ticks": 116640,
          "time": 81.33301,
          "velocity": 0.7874015748031497
        },
        {
          "duration": 0.1666659999999922,
          "durationTicks": 240,
          "midi": 74,
          "name": "D5",
          "ticks": 116880,
          "time": 81.49967600000001,
          "velocity": 0.7874015748031497
        },
        {
          "duration": 0.1666659999999922,
          "durationTicks": 240,
          "midi": 70,
          "name": "A#4",
          "ticks": 116880,
          "time": 81.49967600000001,
          "velocity": 0.7874015748031497
        },
        {
          "duration": 0.1666659999999922,
          "durationTicks": 240,
          "midi": 34,
          "name": "A#1",
          "ticks": 116880,
          "time": 81.49967600000001,
          "velocity": 0.7874015748031497
        },
        {
          "duration": 0.16666600000000642,
          "durationTicks": 240,
          "midi": 74,
          "name": "D5",
          "ticks": 117120,
          "time": 81.666342,
          "velocity": 0.7874015748031497
        },
        {
          "duration": 0.16666600000000642,
          "durationTicks": 240,
          "midi": 70,
          "name": "A#4",
          "ticks": 117120,
          "time": 81.666342,
          "velocity": 0.7874015748031497
        },
        {
          "duration": 0.16666600000000642,
          "durationTicks": 240,
          "midi": 46,
          "name": "A#2",
          "ticks": 117120,
          "time": 81.666342,
          "velocity": 0.7874015748031497
        },
        {
          "duration": 0.33333199999999863,
          "durationTicks": 480,
          "midi": 74,
          "name": "D5",
          "ticks": 117360,
          "time": 81.833008,
          "velocity": 0.7874015748031497
        },
        {
          "duration": 0.33333199999999863,
          "durationTicks": 480,
          "midi": 70,
          "name": "A#4",
          "ticks": 117360,
          "time": 81.833008,
          "velocity": 0.7874015748031497
        },
        {
          "duration": 0.1666659999999922,
          "durationTicks": 240,
          "midi": 34,
          "name": "A#1",
          "ticks": 117360,
          "time": 81.833008,
          "velocity": 0.7874015748031497
        },
        {
          "duration": 0.16666600000000642,
          "durationTicks": 240,
          "midi": 46,
          "name": "A#2",
          "ticks": 117600,
          "time": 81.999674,
          "velocity": 0.7874015748031497
        },
        {
          "duration": 0.33333199999999863,
          "durationTicks": 480,
          "midi": 82,
          "name": "A#5",
          "ticks": 117840,
          "time": 82.16634,
          "velocity": 0.7874015748031497
        },
        {
          "duration": 0.33333199999999863,
          "durationTicks": 480,
          "midi": 77,
          "name": "F5",
          "ticks": 117840,
          "time": 82.16634,
          "velocity": 0.7874015748031497
        },
        {
          "duration": 0.1666659999999922,
          "durationTicks": 240,
          "midi": 34,
          "name": "A#1",
          "ticks": 117840,
          "time": 82.16634,
          "velocity": 0.7874015748031497
        },
        {
          "duration": 0.16666600000000642,
          "durationTicks": 240,
          "midi": 46,
          "name": "A#2",
          "ticks": 118080,
          "time": 82.333006,
          "velocity": 0.7874015748031497
        },
        {
          "duration": 0.33333199999999863,
          "durationTicks": 480,
          "midi": 81,
          "name": "A5",
          "ticks": 118320,
          "time": 82.499672,
          "velocity": 0.7874015748031497
        },
        {
          "duration": 0.33333199999999863,
          "durationTicks": 480,
          "midi": 76,
          "name": "E5",
          "ticks": 118320,
          "time": 82.499672,
          "velocity": 0.7874015748031497
        },
        {
          "duration": 0.16666600000000642,
          "durationTicks": 240,
          "midi": 34,
          "name": "A#1",
          "ticks": 118320,
          "time": 82.499672,
          "velocity": 0.7874015748031497
        },
        {
          "duration": 0.1666659999999922,
          "durationTicks": 240,
          "midi": 46,
          "name": "A#2",
          "ticks": 118560,
          "time": 82.66633800000001,
          "velocity": 0.7874015748031497
        },
        {
          "duration": 0.16666600000000642,
          "durationTicks": 240,
          "midi": 79,
          "name": "G5",
          "ticks": 118800,
          "time": 82.833004,
          "velocity": 0.7874015748031497
        },
        {
          "duration": 0.16666600000000642,
          "durationTicks": 240,
          "midi": 74,
          "name": "D5",
          "ticks": 118800,
          "time": 82.833004,
          "velocity": 0.7874015748031497
        },
        {
          "duration": 0.16666600000000642,
          "durationTicks": 240,
          "midi": 34,
          "name": "A#1",
          "ticks": 118800,
          "time": 82.833004,
          "velocity": 0.7874015748031497
        },
        {
          "duration": 0.1666659999999922,
          "durationTicks": 240,
          "midi": 80,
          "name": "G#5",
          "ticks": 119040,
          "time": 82.99967000000001,
          "velocity": 0.7874015748031497
        },
        {
          "duration": 0.1666659999999922,
          "durationTicks": 240,
          "midi": 74,
          "name": "D5",
          "ticks": 119040,
          "time": 82.99967000000001,
          "velocity": 0.7874015748031497
        },
        {
          "duration": 0.1666659999999922,
          "durationTicks": 240,
          "midi": 46,
          "name": "A#2",
          "ticks": 119040,
          "time": 82.99967000000001,
          "velocity": 0.7874015748031497
        },
        {
          "duration": 0.16666600000000642,
          "durationTicks": 240,
          "midi": 81,
          "name": "A5",
          "ticks": 119280,
          "time": 83.166336,
          "velocity": 0.7874015748031497
        },
        {
          "duration": 0.16666600000000642,
          "durationTicks": 240,
          "midi": 73,
          "name": "C#5",
          "ticks": 119280,
          "time": 83.166336,
          "velocity": 0.7874015748031497
        },
        {
          "duration": 0.16666600000000642,
          "durationTicks": 240,
          "midi": 33,
          "name": "A1",
          "ticks": 119280,
          "time": 83.166336,
          "velocity": 0.7874015748031497
        },
        {
          "duration": 0.1666659999999922,
          "durationTicks": 240,
          "midi": 76,
          "name": "E5",
          "ticks": 119520,
          "time": 83.33300200000001,
          "velocity": 0.7874015748031497
        },
        {
          "duration": 0.1666659999999922,
          "durationTicks": 240,
          "midi": 45,
          "name": "A2",
          "ticks": 119520,
          "time": 83.33300200000001,
          "velocity": 0.7874015748031497
        },
        {
          "duration": 0.16666600000000642,
          "durationTicks": 240,
          "midi": 69,
          "name": "A4",
          "ticks": 119760,
          "time": 83.499668,
          "velocity": 0.7874015748031497
        },
        {
          "duration": 0.16666600000000642,
          "durationTicks": 240,
          "midi": 33,
          "name": "A1",
          "ticks": 119760,
          "time": 83.499668,
          "velocity": 0.7874015748031497
        },
        {
          "duration": 0.1666659999999922,
          "durationTicks": 240,
          "midi": 81,
          "name": "A5",
          "ticks": 120000,
          "time": 83.666334,
          "velocity": 0.7874015748031497
        },
        {
          "duration": 0.1666659999999922,
          "durationTicks": 240,
          "midi": 73,
          "name": "C#5",
          "ticks": 120000,
          "time": 83.666334,
          "velocity": 0.7874015748031497
        },
        {
          "duration": 0.1666659999999922,
          "durationTicks": 240,
          "midi": 45,
          "name": "A2",
          "ticks": 120000,
          "time": 83.666334,
          "velocity": 0.7874015748031497
        },
        {
          "duration": 0.16666600000000642,
          "durationTicks": 240,
          "midi": 83,
          "name": "B5",
          "ticks": 120240,
          "time": 83.833,
          "velocity": 0.7874015748031497
        },
        {
          "duration": 0.16666600000000642,
          "durationTicks": 240,
          "midi": 74,
          "name": "D5",
          "ticks": 120240,
          "time": 83.833,
          "velocity": 0.7874015748031497
        },
        {
          "duration": 0.16666600000000642,
          "durationTicks": 240,
          "midi": 33,
          "name": "A1",
          "ticks": 120240,
          "time": 83.833,
          "velocity": 0.7874015748031497
        },
        {
          "duration": 0.16666600000000642,
          "durationTicks": 240,
          "midi": 74,
          "name": "D5",
          "ticks": 120480,
          "time": 83.999666,
          "velocity": 0.7874015748031497
        },
        {
          "duration": 0.16666600000000642,
          "durationTicks": 240,
          "midi": 45,
          "name": "A2",
          "ticks": 120480,
          "time": 83.999666,
          "velocity": 0.7874015748031497
        },
        {
          "duration": 0.1666659999999922,
          "durationTicks": 240,
          "midi": 83,
          "name": "B5",
          "ticks": 120720,
          "time": 84.16633200000001,
          "velocity": 0.7874015748031497
        },
        {
          "duration": 0.1666659999999922,
          "durationTicks": 240,
          "midi": 74,
          "name": "D5",
          "ticks": 120720,
          "time": 84.16633200000001,
          "velocity": 0.7874015748031497
        },
        {
          "duration": 0.1666659999999922,
          "durationTicks": 240,
          "midi": 33,
          "name": "A1",
          "ticks": 120720,
          "time": 84.16633200000001,
          "velocity": 0.7874015748031497
        },
        {
          "duration": 0.33333199999999863,
          "durationTicks": 480,
          "midi": 85,
          "name": "C#6",
          "ticks": 120960,
          "time": 84.332998,
          "velocity": 0.7874015748031497
        },
        {
          "duration": 0.33333199999999863,
          "durationTicks": 480,
          "midi": 76,
          "name": "E5",
          "ticks": 120960,
          "time": 84.332998,
          "velocity": 0.7874015748031497
        },
        {
          "duration": 0.16666600000000642,
          "durationTicks": 240,
          "midi": 45,
          "name": "A2",
          "ticks": 120960,
          "time": 84.332998,
          "velocity": 0.7874015748031497
        },
        {
          "duration": 0.1666659999999922,
          "durationTicks": 240,
          "midi": 33,
          "name": "A1",
          "ticks": 121200,
          "time": 84.49966400000001,
          "velocity": 0.7874015748031497
        },
        {
          "duration": 0.16666600000000642,
          "durationTicks": 240,
          "midi": 76,
          "name": "E5",
          "ticks": 121440,
          "time": 84.66633,
          "velocity": 0.7874015748031497
        },
        {
          "duration": 0.16666600000000642,
          "durationTicks": 240,
          "midi": 45,
          "name": "A2",
          "ticks": 121440,
          "time": 84.66633,
          "velocity": 0.7874015748031497
        },
        {
          "duration": 0.1666659999999922,
          "durationTicks": 240,
          "midi": 85,
          "name": "C#6",
          "ticks": 121680,
          "time": 84.83299600000001,
          "velocity": 0.7874015748031497
        },
        {
          "duration": 0.1666659999999922,
          "durationTicks": 240,
          "midi": 81,
          "name": "A5",
          "ticks": 121680,
          "time": 84.83299600000001,
          "velocity": 0.7874015748031497
        },
        {
          "duration": 0.1666659999999922,
          "durationTicks": 240,
          "midi": 35,
          "name": "B1",
          "ticks": 121680,
          "time": 84.83299600000001,
          "velocity": 0.7874015748031497
        },
        {
          "duration": 0.16666600000000642,
          "durationTicks": 240,
          "midi": 86,
          "name": "D6",
          "ticks": 121920,
          "time": 84.999662,
          "velocity": 0.7874015748031497
        },
        {
          "duration": 0.16666600000000642,
          "durationTicks": 240,
          "midi": 83,
          "name": "B5",
          "ticks": 121920,
          "time": 84.999662,
          "velocity": 0.7874015748031497
        },
        {
          "duration": 0.16666600000000642,
          "durationTicks": 240,
          "midi": 47,
          "name": "B2",
          "ticks": 121920,
          "time": 84.999662,
          "velocity": 0.7874015748031497
        },
        {
          "duration": 0.6666639999999973,
          "durationTicks": 960,
          "midi": 88,
          "name": "E6",
          "ticks": 122160,
          "time": 85.16632800000001,
          "velocity": 0.7874015748031497
        },
        {
          "duration": 0.6666639999999973,
          "durationTicks": 960,
          "midi": 85,
          "name": "C#6",
          "ticks": 122160,
          "time": 85.16632800000001,
          "velocity": 0.7874015748031497
        },
        {
          "duration": 0.1666659999999922,
          "durationTicks": 240,
          "midi": 37,
          "name": "C#2",
          "ticks": 122160,
          "time": 85.16632800000001,
          "velocity": 0.7874015748031497
        },
        {
          "duration": 0.16666600000000642,
          "durationTicks": 240,
          "midi": 49,
          "name": "C#3",
          "ticks": 122400,
          "time": 85.332994,
          "velocity": 0.7874015748031497
        },
        {
          "duration": 0.1666659999999922,
          "durationTicks": 240,
          "midi": 33,
          "name": "A1",
          "ticks": 122640,
          "time": 85.49966,
          "velocity": 0.7874015748031497
        },
        {
          "duration": 0.16666600000000642,
          "durationTicks": 240,
          "midi": 45,
          "name": "A2",
          "ticks": 122880,
          "time": 85.666326,
          "velocity": 0.7874015748031497
        },
        {
          "duration": 0.16666600000000642,
          "durationTicks": 240,
          "midi": 57,
          "name": "A3",
          "ticks": 123120,
          "time": 85.832992,
          "velocity": 0.7874015748031497
        },
        {
          "duration": 0.16666600000000642,
          "durationTicks": 240,
          "midi": 34,
          "name": "A#1",
          "ticks": 123120,
          "time": 85.832992,
          "velocity": 0.7874015748031497
        },
        {
          "duration": 0.1666659999999922,
          "durationTicks": 240,
          "midi": 65,
          "name": "F4",
          "ticks": 123360,
          "time": 85.99965800000001,
          "velocity": 0.7874015748031497
        },
        {
          "duration": 0.1666659999999922,
          "durationTicks": 240,
          "midi": 46,
          "name": "A#2",
          "ticks": 123360,
          "time": 85.99965800000001,
          "velocity": 0.7874015748031497
        },
        {
          "duration": 0.0833329999999961,
          "durationTicks": 120,
          "midi": 64,
          "name": "E4",
          "ticks": 123600,
          "time": 86.166324,
          "velocity": 0.7874015748031497
        },
        {
          "duration": 0.16666600000000642,
          "durationTicks": 240,
          "midi": 34,
          "name": "A#1",
          "ticks": 123600,
          "time": 86.166324,
          "velocity": 0.7874015748031497
        },
        {
          "duration": 0.08333300000001032,
          "durationTicks": 120,
          "midi": 65,
          "name": "F4",
          "ticks": 123720,
          "time": 86.249657,
          "velocity": 0.7874015748031497
        },
        {
          "duration": 0.1666659999999922,
          "durationTicks": 240,
          "midi": 64,
          "name": "E4",
          "ticks": 123840,
          "time": 86.33299000000001,
          "velocity": 0.7874015748031497
        },
        {
          "duration": 0.1666659999999922,
          "durationTicks": 240,
          "midi": 46,
          "name": "A#2",
          "ticks": 123840,
          "time": 86.33299000000001,
          "velocity": 0.7874015748031497
        },
        {
          "duration": 0.16666600000000642,
          "durationTicks": 240,
          "midi": 67,
          "name": "G4",
          "ticks": 124080,
          "time": 86.499656,
          "velocity": 0.7874015748031497
        },
        {
          "duration": 0.16666600000000642,
          "durationTicks": 240,
          "midi": 36,
          "name": "C2",
          "ticks": 124080,
          "time": 86.499656,
          "velocity": 0.7874015748031497
        },
        {
          "duration": 0.1666659999999922,
          "durationTicks": 240,
          "midi": 65,
          "name": "F4",
          "ticks": 124320,
          "time": 86.66632200000001,
          "velocity": 0.7874015748031497
        },
        {
          "duration": 0.1666659999999922,
          "durationTicks": 240,
          "midi": 48,
          "name": "C3",
          "ticks": 124320,
          "time": 86.66632200000001,
          "velocity": 0.7874015748031497
        },
        {
          "duration": 0.08333300000001032,
          "durationTicks": 120,
          "midi": 64,
          "name": "E4",
          "ticks": 124560,
          "time": 86.832988,
          "velocity": 0.7874015748031497
        },
        {
          "duration": 0.16666600000000642,
          "durationTicks": 240,
          "midi": 36,
          "name": "C2",
          "ticks": 124560,
          "time": 86.832988,
          "velocity": 0.7874015748031497
        },
        {
          "duration": 0.0833329999999961,
          "durationTicks": 120,
          "midi": 65,
          "name": "F4",
          "ticks": 124680,
          "time": 86.91632100000001,
          "velocity": 0.7874015748031497
        },
        {
          "duration": 0.0833329999999961,
          "durationTicks": 120,
          "midi": 64,
          "name": "E4",
          "ticks": 124800,
          "time": 86.999654,
          "velocity": 0.7874015748031497
        },
        {
          "duration": 0.1666659999999922,
          "durationTicks": 240,
          "midi": 48,
          "name": "C3",
          "ticks": 124800,
          "time": 86.999654,
          "velocity": 0.7874015748031497
        },
        {
          "duration": 0.0833329999999961,
          "durationTicks": 120,
          "midi": 60,
          "name": "C4",
          "ticks": 124920,
          "time": 87.082987,
          "velocity": 0.7874015748031497
        },
        {
          "duration": 0.16666600000000642,
          "durationTicks": 240,
          "midi": 62,
          "name": "D4",
          "ticks": 125040,
          "time": 87.16632,
          "velocity": 0.7874015748031497
        },
        {
          "duration": 0.16666600000000642,
          "durationTicks": 240,
          "midi": 38,
          "name": "D2",
          "ticks": 125040,
          "time": 87.16632,
          "velocity": 0.7874015748031497
        },
        {
          "duration": 0.1666659999999922,
          "durationTicks": 240,
          "midi": 69,
          "name": "A4",
          "ticks": 125280,
          "time": 87.332986,
          "velocity": 0.7874015748031497
        },
        {
          "duration": 0.1666659999999922,
          "durationTicks": 240,
          "midi": 50,
          "name": "D3",
          "ticks": 125280,
          "time": 87.332986,
          "velocity": 0.7874015748031497
        },
        {
          "duration": 0.08333300000001032,
          "durationTicks": 120,
          "midi": 67,
          "name": "G4",
          "ticks": 125520,
          "time": 87.499652,
          "velocity": 0.7874015748031497
        },
        {
          "duration": 0.16666600000000642,
          "durationTicks": 240,
          "midi": 38,
          "name": "D2",
          "ticks": 125520,
          "time": 87.499652,
          "velocity": 0.7874015748031497
        },
        {
          "duration": 0.0833329999999961,
          "durationTicks": 120,
          "midi": 69,
          "name": "A4",
          "ticks": 125640,
          "time": 87.58298500000001,
          "velocity": 0.7874015748031497
        },
        {
          "duration": 0.0833329999999961,
          "durationTicks": 120,
          "midi": 67,
          "name": "G4",
          "ticks": 125760,
          "time": 87.666318,
          "velocity": 0.7874015748031497
        },
        {
          "duration": 0.16666600000000642,
          "durationTicks": 240,
          "midi": 50,
          "name": "D3",
          "ticks": 125760,
          "time": 87.666318,
          "velocity": 0.7874015748031497
        },
        {
          "duration": 0.08333300000001032,
          "durationTicks": 120,
          "midi": 69,
          "name": "A4",
          "ticks": 125880,
          "time": 87.749651,
          "velocity": 0.7874015748031497
        },
        {
          "duration": 0.1666659999999922,
          "durationTicks": 240,
          "midi": 72,
          "name": "C5",
          "ticks": 126000,
          "time": 87.83298400000001,
          "velocity": 0.7874015748031497
        },
        {
          "duration": 0.1666659999999922,
          "durationTicks": 240,
          "midi": 38,
          "name": "D2",
          "ticks": 126000,
          "time": 87.83298400000001,
          "velocity": 0.7874015748031497
        },
        {
          "duration": 0.16666600000000642,
          "durationTicks": 240,
          "midi": 69,
          "name": "A4",
          "ticks": 126240,
          "time": 87.99965,
          "velocity": 0.7874015748031497
        },
        {
          "duration": 0.16666600000000642,
          "durationTicks": 240,
          "midi": 50,
          "name": "D3",
          "ticks": 126240,
          "time": 87.99965,
          "velocity": 0.7874015748031497
        },
        {
          "duration": 0.1666659999999922,
          "durationTicks": 240,
          "midi": 67,
          "name": "G4",
          "ticks": 126480,
          "time": 88.16631600000001,
          "velocity": 0.7874015748031497
        },
        {
          "duration": 0.1666659999999922,
          "durationTicks": 240,
          "midi": 36,
          "name": "C2",
          "ticks": 126480,
          "time": 88.16631600000001,
          "velocity": 0.7874015748031497
        },
        {
          "duration": 0.16666600000000642,
          "durationTicks": 240,
          "midi": 69,
          "name": "A4",
          "ticks": 126720,
          "time": 88.332982,
          "velocity": 0.7874015748031497
        },
        {
          "duration": 0.16666600000000642,
          "durationTicks": 240,
          "midi": 48,
          "name": "C3",
          "ticks": 126720,
          "time": 88.332982,
          "velocity": 0.7874015748031497
        },
        {
          "duration": 0.1666659999999922,
          "durationTicks": 240,
          "midi": 57,
          "name": "A3",
          "ticks": 126960,
          "time": 88.49964800000001,
          "velocity": 0.7874015748031497
        },
        {
          "duration": 0.1666659999999922,
          "durationTicks": 240,
          "midi": 34,
          "name": "A#1",
          "ticks": 126960,
          "time": 88.49964800000001,
          "velocity": 0.7874015748031497
        },
        {
          "duration": 0.16666600000000642,
          "durationTicks": 240,
          "midi": 65,
          "name": "F4",
          "ticks": 127200,
          "time": 88.666314,
          "velocity": 0.7874015748031497
        },
        {
          "duration": 0.16666600000000642,
          "durationTicks": 240,
          "midi": 46,
          "name": "A#2",
          "ticks": 127200,
          "time": 88.666314,
          "velocity": 0.7874015748031497
        },
        {
          "duration": 0.0833329999999961,
          "durationTicks": 120,
          "midi": 64,
          "name": "E4",
          "ticks": 127440,
          "time": 88.83298,
          "velocity": 0.7874015748031497
        },
        {
          "duration": 0.1666659999999922,
          "durationTicks": 240,
          "midi": 34,
          "name": "A#1",
          "ticks": 127440,
          "time": 88.83298,
          "velocity": 0.7874015748031497
        },
        {
          "duration": 0.0833329999999961,
          "durationTicks": 120,
          "midi": 65,
          "name": "F4",
          "ticks": 127560,
          "time": 88.916313,
          "velocity": 0.7874015748031497
        },
        {
          "duration": 0.16666600000000642,
          "durationTicks": 240,
          "midi": 64,
          "name": "E4",
          "ticks": 127680,
          "time": 88.999646,
          "velocity": 0.7874015748031497
        },
        {
          "duration": 0.16666600000000642,
          "durationTicks": 240,
          "midi": 46,
          "name": "A#2",
          "ticks": 127680,
          "time": 88.999646,
          "velocity": 0.7874015748031497
        },
        {
          "duration": 0.16666600000000642,
          "durationTicks": 240,
          "midi": 67,
          "name": "G4",
          "ticks": 127920,
          "time": 89.166312,
          "velocity": 0.7874015748031497
        },
        {
          "duration": 0.16666600000000642,
          "durationTicks": 240,
          "midi": 36,
          "name": "C2",
          "ticks": 127920,
          "time": 89.166312,
          "velocity": 0.7874015748031497
        },
        {
          "duration": 0.1666659999999922,
          "durationTicks": 240,
          "midi": 65,
          "name": "F4",
          "ticks": 128160,
          "time": 89.33297800000001,
          "velocity": 0.7874015748031497
        },
        {
          "duration": 0.1666659999999922,
          "durationTicks": 240,
          "midi": 48,
          "name": "C3",
          "ticks": 128160,
          "time": 89.33297800000001,
          "velocity": 0.7874015748031497
        },
        {
          "duration": 0.0833329999999961,
          "durationTicks": 120,
          "midi": 64,
          "name": "E4",
          "ticks": 128400,
          "time": 89.499644,
          "velocity": 0.7874015748031497
        },
        {
          "duration": 0.16666600000000642,
          "durationTicks": 240,
          "midi": 36,
          "name": "C2",
          "ticks": 128400,
          "time": 89.499644,
          "velocity": 0.7874015748031497
        },
        {
          "duration": 0.08333300000001032,
          "durationTicks": 120,
          "midi": 65,
          "name": "F4",
          "ticks": 128520,
          "time": 89.582977,
          "velocity": 0.7874015748031497
        },
        {
          "duration": 0.0833329999999961,
          "durationTicks": 120,
          "midi": 64,
          "name": "E4",
          "ticks": 128640,
          "time": 89.66631000000001,
          "velocity": 0.7874015748031497
        },
        {
          "duration": 0.1666659999999922,
          "durationTicks": 240,
          "midi": 48,
          "name": "C3",
          "ticks": 128640,
          "time": 89.66631000000001,
          "velocity": 0.7874015748031497
        },
        {
          "duration": 0.0833329999999961,
          "durationTicks": 120,
          "midi": 60,
          "name": "C4",
          "ticks": 128760,
          "time": 89.749643,
          "velocity": 0.7874015748031497
        },
        {
          "duration": 0.16666600000000642,
          "durationTicks": 240,
          "midi": 62,
          "name": "D4",
          "ticks": 128880,
          "time": 89.832976,
          "velocity": 0.7874015748031497
        },
        {
          "duration": 0.16666600000000642,
          "durationTicks": 240,
          "midi": 38,
          "name": "D2",
          "ticks": 128880,
          "time": 89.832976,
          "velocity": 0.7874015748031497
        },
        {
          "duration": 0.1666659999999922,
          "durationTicks": 240,
          "midi": 69,
          "name": "A4",
          "ticks": 129120,
          "time": 89.99964200000001,
          "velocity": 0.7874015748031497
        },
        {
          "duration": 0.1666659999999922,
          "durationTicks": 240,
          "midi": 50,
          "name": "D3",
          "ticks": 129120,
          "time": 89.99964200000001,
          "velocity": 0.7874015748031497
        },
        {
          "duration": 0.08333300000001032,
          "durationTicks": 120,
          "midi": 67,
          "name": "G4",
          "ticks": 129360,
          "time": 90.166308,
          "velocity": 0.7874015748031497
        },
        {
          "duration": 0.16666600000000642,
          "durationTicks": 240,
          "midi": 40,
          "name": "E2",
          "ticks": 129360,
          "time": 90.166308,
          "velocity": 0.7874015748031497
        },
        {
          "duration": 0.0833329999999961,
          "durationTicks": 120,
          "midi": 69,
          "name": "A4",
          "ticks": 129480,
          "time": 90.24964100000001,
          "velocity": 0.7874015748031497
        },
        {
          "duration": 0.0833329999999961,
          "durationTicks": 120,
          "midi": 67,
          "name": "G4",
          "ticks": 129600,
          "time": 90.33297400000001,
          "velocity": 0.7874015748031497
        },
        {
          "duration": 0.1666659999999922,
          "durationTicks": 240,
          "midi": 52,
          "name": "E3",
          "ticks": 129600,
          "time": 90.33297400000001,
          "velocity": 0.7874015748031497
        },
        {
          "duration": 0.0833329999999961,
          "durationTicks": 120,
          "midi": 69,
          "name": "A4",
          "ticks": 129720,
          "time": 90.416307,
          "velocity": 0.7874015748031497
        },
        {
          "duration": 0.16666600000000642,
          "durationTicks": 240,
          "midi": 73,
          "name": "C#5",
          "ticks": 129840,
          "time": 90.49964,
          "velocity": 0.7874015748031497
        },
        {
          "duration": 0.16666600000000642,
          "durationTicks": 240,
          "midi": 41,
          "name": "F2",
          "ticks": 129840,
          "time": 90.49964,
          "velocity": 0.7874015748031497
        },
        {
          "duration": 0.1666659999999922,
          "durationTicks": 240,
          "midi": 69,
          "name": "A4",
          "ticks": 130080,
          "time": 90.666306,
          "velocity": 0.7874015748031497
        },
        {
          "duration": 0.1666659999999922,
          "durationTicks": 240,
          "midi": 53,
          "name": "F3",
          "ticks": 130080,
          "time": 90.666306,
          "velocity": 0.7874015748031497
        },
        {
          "duration": 0.16666600000000642,
          "durationTicks": 240,
          "midi": 67,
          "name": "G4",
          "ticks": 130320,
          "time": 90.832972,
          "velocity": 0.7874015748031497
        },
        {
          "duration": 0.16666600000000642,
          "durationTicks": 240,
          "midi": 43,
          "name": "G2",
          "ticks": 130320,
          "time": 90.832972,
          "velocity": 0.7874015748031497
        },
        {
          "duration": 0.16666600000000642,
          "durationTicks": 240,
          "midi": 69,
          "name": "A4",
          "ticks": 130560,
          "time": 90.999638,
          "velocity": 0.7874015748031497
        },
        {
          "duration": 0.16666600000000642,
          "durationTicks": 240,
          "midi": 55,
          "name": "G3",
          "ticks": 130560,
          "time": 90.999638,
          "velocity": 0.7874015748031497
        },
        {
          "duration": 0.1666659999999922,
          "durationTicks": 240,
          "midi": 57,
          "name": "A3",
          "ticks": 130800,
          "time": 91.16630400000001,
          "velocity": 0.7874015748031497
        },
        {
          "duration": 0.1666659999999922,
          "durationTicks": 240,
          "midi": 34,
          "name": "A#1",
          "ticks": 130800,
          "time": 91.16630400000001,
          "velocity": 0.7874015748031497
        },
        {
          "duration": 0.16666600000000642,
          "durationTicks": 240,
          "midi": 65,
          "name": "F4",
          "ticks": 131040,
          "time": 91.33297,
          "velocity": 0.7874015748031497
        },
        {
          "duration": 0.16666600000000642,
          "durationTicks": 240,
          "midi": 46,
          "name": "A#2",
          "ticks": 131040,
          "time": 91.33297,
          "velocity": 0.7874015748031497
        },
        {
          "duration": 0.0833329999999961,
          "durationTicks": 120,
          "midi": 64,
          "name": "E4",
          "ticks": 131280,
          "time": 91.49963600000001,
          "velocity": 0.7874015748031497
        },
        {
          "duration": 0.1666659999999922,
          "durationTicks": 240,
          "midi": 34,
          "name": "A#1",
          "ticks": 131280,
          "time": 91.49963600000001,
          "velocity": 0.7874015748031497
        },
        {
          "duration": 0.0833329999999961,
          "durationTicks": 120,
          "midi": 65,
          "name": "F4",
          "ticks": 131400,
          "time": 91.582969,
          "velocity": 0.7874015748031497
        },
        {
          "duration": 0.16666600000000642,
          "durationTicks": 240,
          "midi": 64,
          "name": "E4",
          "ticks": 131520,
          "time": 91.666302,
          "velocity": 0.7874015748031497
        },
        {
          "duration": 0.16666600000000642,
          "durationTicks": 240,
          "midi": 46,
          "name": "A#2",
          "ticks": 131520,
          "time": 91.666302,
          "velocity": 0.7874015748031497
        },
        {
          "duration": 0.1666659999999922,
          "durationTicks": 240,
          "midi": 67,
          "name": "G4",
          "ticks": 131760,
          "time": 91.83296800000001,
          "velocity": 0.7874015748031497
        },
        {
          "duration": 0.1666659999999922,
          "durationTicks": 240,
          "midi": 36,
          "name": "C2",
          "ticks": 131760,
          "time": 91.83296800000001,
          "velocity": 0.7874015748031497
        },
        {
          "duration": 0.16666600000000642,
          "durationTicks": 240,
          "midi": 65,
          "name": "F4",
          "ticks": 132000,
          "time": 91.999634,
          "velocity": 0.7874015748031497
        },
        {
          "duration": 0.16666600000000642,
          "durationTicks": 240,
          "midi": 48,
          "name": "C3",
          "ticks": 132000,
          "time": 91.999634,
          "velocity": 0.7874015748031497
        },
        {
          "duration": 0.0833329999999961,
          "durationTicks": 120,
          "midi": 64,
          "name": "E4",
          "ticks": 132240,
          "time": 92.1663,
          "velocity": 0.7874015748031497
        },
        {
          "duration": 0.1666659999999922,
          "durationTicks": 240,
          "midi": 36,
          "name": "C2",
          "ticks": 132240,
          "time": 92.1663,
          "velocity": 0.7874015748031497
        },
        {
          "duration": 0.0833329999999961,
          "durationTicks": 120,
          "midi": 65,
          "name": "F4",
          "ticks": 132360,
          "time": 92.249633,
          "velocity": 0.7874015748031497
        },
        {
          "duration": 0.08333300000001032,
          "durationTicks": 120,
          "midi": 64,
          "name": "E4",
          "ticks": 132480,
          "time": 92.332966,
          "velocity": 0.7874015748031497
        },
        {
          "duration": 0.16666600000000642,
          "durationTicks": 240,
          "midi": 48,
          "name": "C3",
          "ticks": 132480,
          "time": 92.332966,
          "velocity": 0.7874015748031497
        },
        {
          "duration": 0.0833329999999961,
          "durationTicks": 120,
          "midi": 60,
          "name": "C4",
          "ticks": 132600,
          "time": 92.41629900000001,
          "velocity": 0.7874015748031497
        },
        {
          "duration": 0.16666600000000642,
          "durationTicks": 240,
          "midi": 62,
          "name": "D4",
          "ticks": 132720,
          "time": 92.499632,
          "velocity": 0.7874015748031497
        },
        {
          "duration": 0.16666600000000642,
          "durationTicks": 240,
          "midi": 38,
          "name": "D2",
          "ticks": 132720,
          "time": 92.499632,
          "velocity": 0.7874015748031497
        },
        {
          "duration": 0.1666659999999922,
          "durationTicks": 240,
          "midi": 69,
          "name": "A4",
          "ticks": 132960,
          "time": 92.66629800000001,
          "velocity": 0.7874015748031497
        },
        {
          "duration": 0.1666659999999922,
          "durationTicks": 240,
          "midi": 50,
          "name": "D3",
          "ticks": 132960,
          "time": 92.66629800000001,
          "velocity": 0.7874015748031497
        },
        {
          "duration": 0.0833329999999961,
          "durationTicks": 120,
          "midi": 67,
          "name": "G4",
          "ticks": 133200,
          "time": 92.832964,
          "velocity": 0.7874015748031497
        },
        {
          "duration": 0.16666600000000642,
          "durationTicks": 240,
          "midi": 38,
          "name": "D2",
          "ticks": 133200,
          "time": 92.832964,
          "velocity": 0.7874015748031497
        },
        {
          "duration": 0.08333300000001032,
          "durationTicks": 120,
          "midi": 69,
          "name": "A4",
          "ticks": 133320,
          "time": 92.916297,
          "velocity": 0.7874015748031497
        },
        {
          "duration": 0.0833329999999961,
          "durationTicks": 120,
          "midi": 67,
          "name": "G4",
          "ticks": 133440,
          "time": 92.99963000000001,
          "velocity": 0.7874015748031497
        },
        {
          "duration": 0.1666659999999922,
          "durationTicks": 240,
          "midi": 50,
          "name": "D3",
          "ticks": 133440,
          "time": 92.99963000000001,
          "velocity": 0.7874015748031497
        },
        {
          "duration": 0.0833329999999961,
          "durationTicks": 120,
          "midi": 69,
          "name": "A4",
          "ticks": 133560,
          "time": 93.082963,
          "velocity": 0.7874015748031497
        },
        {
          "duration": 0.16666600000000642,
          "durationTicks": 240,
          "midi": 72,
          "name": "C5",
          "ticks": 133680,
          "time": 93.166296,
          "velocity": 0.7874015748031497
        },
        {
          "duration": 0.16666600000000642,
          "durationTicks": 240,
          "midi": 38,
          "name": "D2",
          "ticks": 133680,
          "time": 93.166296,
          "velocity": 0.7874015748031497
        },
        {
          "duration": 0.1666659999999922,
          "durationTicks": 240,
          "midi": 69,
          "name": "A4",
          "ticks": 133920,
          "time": 93.33296200000001,
          "velocity": 0.7874015748031497
        },
        {
          "duration": 0.1666659999999922,
          "durationTicks": 240,
          "midi": 50,
          "name": "D3",
          "ticks": 133920,
          "time": 93.33296200000001,
          "velocity": 0.7874015748031497
        },
        {
          "duration": 0.16666600000000642,
          "durationTicks": 240,
          "midi": 65,
          "name": "F4",
          "ticks": 134160,
          "time": 93.499628,
          "velocity": 0.7874015748031497
        },
        {
          "duration": 0.16666600000000642,
          "durationTicks": 240,
          "midi": 36,
          "name": "C2",
          "ticks": 134160,
          "time": 93.499628,
          "velocity": 0.7874015748031497
        },
        {
          "duration": 0.1666659999999922,
          "durationTicks": 240,
          "midi": 66,
          "name": "F#4",
          "ticks": 134400,
          "time": 93.66629400000001,
          "velocity": 0.7874015748031497
        },
        {
          "duration": 0.1666659999999922,
          "durationTicks": 240,
          "midi": 48,
          "name": "C3",
          "ticks": 134400,
          "time": 93.66629400000001,
          "velocity": 0.7874015748031497
        },
        {
          "duration": 0.16666600000000642,
          "durationTicks": 240,
          "midi": 67,
          "name": "G4",
          "ticks": 134640,
          "time": 93.83296,
          "velocity": 0.7874015748031497
        },
        {
          "duration": 0.16666600000000642,
          "durationTicks": 240,
          "midi": 31,
          "name": "G1",
          "ticks": 134640,
          "time": 93.83296,
          "velocity": 0.7874015748031497
        },
        {
          "duration": 0.0833329999999961,
          "durationTicks": 120,
          "midi": 58,
          "name": "A#3",
          "ticks": 134880,
          "time": 93.999626,
          "velocity": 0.7874015748031497
        },
        {
          "duration": 0.1666659999999922,
          "durationTicks": 240,
          "midi": 43,
          "name": "G2",
          "ticks": 134880,
          "time": 93.999626,
          "velocity": 0.7874015748031497
        },
        {
          "duration": 0.0833329999999961,
          "durationTicks": 120,
          "midi": 67,
          "name": "G4",
          "ticks": 135000,
          "time": 94.082959,
          "velocity": 0.7874015748031497
        },
        {
          "duration": 0.16666600000000642,
          "durationTicks": 240,
          "midi": 58,
          "name": "A#3",
          "ticks": 135120,
          "time": 94.166292,
          "velocity": 0.7874015748031497
        },
        {
          "duration": 0.16666600000000642,
          "durationTicks": 240,
          "midi": 31,
          "name": "G1",
          "ticks": 135120,
          "time": 94.166292,
          "velocity": 0.7874015748031497
        },
        {
          "duration": 0.16666600000000642,
          "durationTicks": 240,
          "midi": 67,
          "name": "G4",
          "ticks": 135360,
          "time": 94.332958,
          "velocity": 0.7874015748031497
        },
        {
          "duration": 0.16666600000000642,
          "durationTicks": 240,
          "midi": 43,
          "name": "G2",
          "ticks": 135360,
          "time": 94.332958,
          "velocity": 0.7874015748031497
        },
        {
          "duration": 0.1666659999999922,
          "durationTicks": 240,
          "midi": 69,
          "name": "A4",
          "ticks": 135600,
          "time": 94.49962400000001,
          "velocity": 0.7874015748031497
        },
        {
          "duration": 0.1666659999999922,
          "durationTicks": 240,
          "midi": 33,
          "name": "A1",
          "ticks": 135600,
          "time": 94.49962400000001,
          "velocity": 0.7874015748031497
        },
        {
          "duration": 0.0833329999999961,
          "durationTicks": 120,
          "midi": 60,
          "name": "C4",
          "ticks": 135840,
          "time": 94.66629,
          "velocity": 0.7874015748031497
        },
        {
          "duration": 0.16666600000000642,
          "durationTicks": 240,
          "midi": 45,
          "name": "A2",
          "ticks": 135840,
          "time": 94.66629,
          "velocity": 0.7874015748031497
        },
        {
          "duration": 0.08333300000001032,
          "durationTicks": 120,
          "midi": 69,
          "name": "A4",
          "ticks": 135960,
          "time": 94.749623,
          "velocity": 0.7874015748031497
        },
        {
          "duration": 0.1666659999999922,
          "durationTicks": 240,
          "midi": 60,
          "name": "C4",
          "ticks": 136080,
          "time": 94.83295600000001,
          "velocity": 0.7874015748031497
        },
        {
          "duration": 0.1666659999999922,
          "durationTicks": 240,
          "midi": 33,
          "name": "A1",
          "ticks": 136080,
          "time": 94.83295600000001,
          "velocity": 0.7874015748031497
        },
        {
          "duration": 0.16666600000000642,
          "durationTicks": 240,
          "midi": 69,
          "name": "A4",
          "ticks": 136320,
          "time": 94.999622,
          "velocity": 0.7874015748031497
        },
        {
          "duration": 0.16666600000000642,
          "durationTicks": 240,
          "midi": 45,
          "name": "A2",
          "ticks": 136320,
          "time": 94.999622,
          "velocity": 0.7874015748031497
        },
        {
          "duration": 0.1666659999999922,
          "durationTicks": 240,
          "midi": 70,
          "name": "A#4",
          "ticks": 136560,
          "time": 95.16628800000001,
          "velocity": 0.7874015748031497
        },
        {
          "duration": 0.1666659999999922,
          "durationTicks": 240,
          "midi": 34,
          "name": "A#1",
          "ticks": 136560,
          "time": 95.16628800000001,
          "velocity": 0.7874015748031497
        },
        {
          "duration": 0.08333300000001032,
          "durationTicks": 120,
          "midi": 70,
          "name": "A#4",
          "ticks": 136800,
          "time": 95.332954,
          "velocity": 0.7874015748031497
        },
        {
          "duration": 0.16666600000000642,
          "durationTicks": 240,
          "midi": 46,
          "name": "A#2",
          "ticks": 136800,
          "time": 95.332954,
          "velocity": 0.7874015748031497
        },
        {
          "duration": 0.0833329999999961,
          "durationTicks": 120,
          "midi": 70,
          "name": "A#4",
          "ticks": 136920,
          "time": 95.41628700000001,
          "velocity": 0.7874015748031497
        },
        {
          "duration": 0.1666659999999922,
          "durationTicks": 240,
          "midi": 70,
          "name": "A#4",
          "ticks": 137040,
          "time": 95.49962000000001,
          "velocity": 0.7874015748031497
        },
        {
          "duration": 0.1666659999999922,
          "durationTicks": 240,
          "midi": 35,
          "name": "B1",
          "ticks": 137040,
          "time": 95.49962000000001,
          "velocity": 0.7874015748031497
        },
        {
          "duration": 0.16666600000000642,
          "durationTicks": 240,
          "midi": 71,
          "name": "B4",
          "ticks": 137280,
          "time": 95.666286,
          "velocity": 0.7874015748031497
        },
        {
          "duration": 0.16666600000000642,
          "durationTicks": 240,
          "midi": 47,
          "name": "B2",
          "ticks": 137280,
          "time": 95.666286,
          "velocity": 0.7874015748031497
        },
        {
          "duration": 0.6666639999999973,
          "durationTicks": 960,
          "midi": 72,
          "name": "C5",
          "ticks": 137520,
          "time": 95.832952,
          "velocity": 0.7874015748031497
        },
        {
          "duration": 0.1666659999999922,
          "durationTicks": 240,
          "midi": 36,
          "name": "C2",
          "ticks": 137520,
          "time": 95.832952,
          "velocity": 0.7874015748031497
        },
        {
          "duration": 0.16666600000000642,
          "durationTicks": 240,
          "midi": 48,
          "name": "C3",
          "ticks": 137760,
          "time": 95.999618,
          "velocity": 0.7874015748031497
        },
        {
          "duration": 0.16666600000000642,
          "durationTicks": 240,
          "midi": 36,
          "name": "C2",
          "ticks": 138000,
          "time": 96.166284,
          "velocity": 0.7874015748031497
        },
        {
          "duration": 0.1666659999999922,
          "durationTicks": 240,
          "midi": 48,
          "name": "C3",
          "ticks": 138240,
          "time": 96.33295000000001,
          "velocity": 0.7874015748031497
        },
        {
          "duration": 0.16666600000000642,
          "durationTicks": 240,
          "midi": 57,
          "name": "A3",
          "ticks": 138480,
          "time": 96.499616,
          "velocity": 0.7874015748031497
        },
        {
          "duration": 0.16666600000000642,
          "durationTicks": 240,
          "midi": 34,
          "name": "A#1",
          "ticks": 138480,
          "time": 96.499616,
          "velocity": 0.7874015748031497
        },
        {
          "duration": 0.1666659999999922,
          "durationTicks": 240,
          "midi": 65,
          "name": "F4",
          "ticks": 138720,
          "time": 96.66628200000001,
          "velocity": 0.7874015748031497
        },
        {
          "duration": 0.1666659999999922,
          "durationTicks": 240,
          "midi": 46,
          "name": "A#2",
          "ticks": 138720,
          "time": 96.66628200000001,
          "velocity": 0.7874015748031497
        },
        {
          "duration": 0.0833329999999961,
          "durationTicks": 120,
          "midi": 64,
          "name": "E4",
          "ticks": 138960,
          "time": 96.832948,
          "velocity": 0.7874015748031497
        },
        {
          "duration": 0.16666600000000642,
          "durationTicks": 240,
          "midi": 34,
          "name": "A#1",
          "ticks": 138960,
          "time": 96.832948,
          "velocity": 0.7874015748031497
        },
        {
          "duration": 0.08333300000001032,
          "durationTicks": 120,
          "midi": 65,
          "name": "F4",
          "ticks": 139080,
          "time": 96.916281,
          "velocity": 0.7874015748031497
        },
        {
          "duration": 0.1666659999999922,
          "durationTicks": 240,
          "midi": 64,
          "name": "E4",
          "ticks": 139200,
          "time": 96.99961400000001,
          "velocity": 0.7874015748031497
        },
        {
          "duration": 0.1666659999999922,
          "durationTicks": 240,
          "midi": 46,
          "name": "A#2",
          "ticks": 139200,
          "time": 96.99961400000001,
          "velocity": 0.7874015748031497
        },
        {
          "duration": 0.16666600000000642,
          "durationTicks": 240,
          "midi": 67,
          "name": "G4",
          "ticks": 139440,
          "time": 97.16628,
          "velocity": 0.7874015748031497
        },
        {
          "duration": 0.16666600000000642,
          "durationTicks": 240,
          "midi": 36,
          "name": "C2",
          "ticks": 139440,
          "time": 97.16628,
          "velocity": 0.7874015748031497
        },
        {
          "duration": 0.1666659999999922,
          "durationTicks": 240,
          "midi": 65,
          "name": "F4",
          "ticks": 139680,
          "time": 97.332946,
          "velocity": 0.7874015748031497
        },
        {
          "duration": 0.1666659999999922,
          "durationTicks": 240,
          "midi": 48,
          "name": "C3",
          "ticks": 139680,
          "time": 97.332946,
          "velocity": 0.7874015748031497
        },
        {
          "duration": 0.08333300000001032,
          "durationTicks": 120,
          "midi": 64,
          "name": "E4",
          "ticks": 139920,
          "time": 97.499612,
          "velocity": 0.7874015748031497
        },
        {
          "duration": 0.16666600000000642,
          "durationTicks": 240,
          "midi": 36,
          "name": "C2",
          "ticks": 139920,
          "time": 97.499612,
          "velocity": 0.7874015748031497
        },
        {
          "duration": 0.0833329999999961,
          "durationTicks": 120,
          "midi": 65,
          "name": "F4",
          "ticks": 140040,
          "time": 97.58294500000001,
          "velocity": 0.7874015748031497
        },
        {
          "duration": 0.0833329999999961,
          "durationTicks": 120,
          "midi": 64,
          "name": "E4",
          "ticks": 140160,
          "time": 97.666278,
          "velocity": 0.7874015748031497
        },
        {
          "duration": 0.16666600000000642,
          "durationTicks": 240,
          "midi": 48,
          "name": "C3",
          "ticks": 140160,
          "time": 97.666278,
          "velocity": 0.7874015748031497
        },
        {
          "duration": 0.08333300000001032,
          "durationTicks": 120,
          "midi": 60,
          "name": "C4",
          "ticks": 140280,
          "time": 97.749611,
          "velocity": 0.7874015748031497
        },
        {
          "duration": 0.1666659999999922,
          "durationTicks": 240,
          "midi": 62,
          "name": "D4",
          "ticks": 140400,
          "time": 97.83294400000001,
          "velocity": 0.7874015748031497
        },
        {
          "duration": 0.1666659999999922,
          "durationTicks": 240,
          "midi": 38,
          "name": "D2",
          "ticks": 140400,
          "time": 97.83294400000001,
          "velocity": 0.7874015748031497
        },
        {
          "duration": 0.16666600000000642,
          "durationTicks": 240,
          "midi": 69,
          "name": "A4",
          "ticks": 140640,
          "time": 97.99961,
          "velocity": 0.7874015748031497
        },
        {
          "duration": 0.16666600000000642,
          "durationTicks": 240,
          "midi": 50,
          "name": "D3",
          "ticks": 140640,
          "time": 97.99961,
          "velocity": 0.7874015748031497
        },
        {
          "duration": 0.0833329999999961,
          "durationTicks": 120,
          "midi": 67,
          "name": "G4",
          "ticks": 140880,
          "time": 98.16627600000001,
          "velocity": 0.7874015748031497
        },
        {
          "duration": 0.1666659999999922,
          "durationTicks": 240,
          "midi": 38,
          "name": "D2",
          "ticks": 140880,
          "time": 98.16627600000001,
          "velocity": 0.7874015748031497
        },
        {
          "duration": 0.0833329999999961,
          "durationTicks": 120,
          "midi": 69,
          "name": "A4",
          "ticks": 141000,
          "time": 98.249609,
          "velocity": 0.7874015748031497
        },
        {
          "duration": 0.0833329999999961,
          "durationTicks": 120,
          "midi": 67,
          "name": "G4",
          "ticks": 141120,
          "time": 98.332942,
          "velocity": 0.7874015748031497
        },
        {
          "duration": 0.16666600000000642,
          "durationTicks": 240,
          "midi": 50,
          "name": "D3",
          "ticks": 141120,
          "time": 98.332942,
          "velocity": 0.7874015748031497
        },
        {
          "duration": 0.08333300000001032,
          "durationTicks": 120,
          "midi": 69,
          "name": "A4",
          "ticks": 141240,
          "time": 98.416275,
          "velocity": 0.7874015748031497
        },
        {
          "duration": 0.1666659999999922,
          "durationTicks": 240,
          "midi": 72,
          "name": "C5",
          "ticks": 141360,
          "time": 98.49960800000001,
          "velocity": 0.7874015748031497
        },
        {
          "duration": 0.1666659999999922,
          "durationTicks": 240,
          "midi": 38,
          "name": "D2",
          "ticks": 141360,
          "time": 98.49960800000001,
          "velocity": 0.7874015748031497
        },
        {
          "duration": 0.16666600000000642,
          "durationTicks": 240,
          "midi": 69,
          "name": "A4",
          "ticks": 141600,
          "time": 98.666274,
          "velocity": 0.7874015748031497
        },
        {
          "duration": 0.16666600000000642,
          "durationTicks": 240,
          "midi": 50,
          "name": "D3",
          "ticks": 141600,
          "time": 98.666274,
          "velocity": 0.7874015748031497
        },
        {
          "duration": 0.1666659999999922,
          "durationTicks": 240,
          "midi": 67,
          "name": "G4",
          "ticks": 141840,
          "time": 98.83294000000001,
          "velocity": 0.7874015748031497
        },
        {
          "duration": 0.1666659999999922,
          "durationTicks": 240,
          "midi": 36,
          "name": "C2",
          "ticks": 141840,
          "time": 98.83294000000001,
          "velocity": 0.7874015748031497
        },
        {
          "duration": 0.16666600000000642,
          "durationTicks": 240,
          "midi": 69,
          "name": "A4",
          "ticks": 142080,
          "time": 98.999606,
          "velocity": 0.7874015748031497
        },
        {
          "duration": 0.16666600000000642,
          "durationTicks": 240,
          "midi": 48,
          "name": "C3",
          "ticks": 142080,
          "time": 98.999606,
          "velocity": 0.7874015748031497
        },
        {
          "duration": 0.1666659999999922,
          "durationTicks": 240,
          "midi": 57,
          "name": "A3",
          "ticks": 142320,
          "time": 99.166272,
          "velocity": 0.7874015748031497
        },
        {
          "duration": 0.1666659999999922,
          "durationTicks": 240,
          "midi": 34,
          "name": "A#1",
          "ticks": 142320,
          "time": 99.166272,
          "velocity": 0.7874015748031497
        },
        {
          "duration": 0.16666600000000642,
          "durationTicks": 240,
          "midi": 65,
          "name": "F4",
          "ticks": 142560,
          "time": 99.332938,
          "velocity": 0.7874015748031497
        },
        {
          "duration": 0.16666600000000642,
          "durationTicks": 240,
          "midi": 46,
          "name": "A#2",
          "ticks": 142560,
          "time": 99.332938,
          "velocity": 0.7874015748031497
        },
        {
          "duration": 0.0833329999999961,
          "durationTicks": 120,
          "midi": 64,
          "name": "E4",
          "ticks": 142800,
          "time": 99.499604,
          "velocity": 0.7874015748031497
        },
        {
          "duration": 0.16666600000000642,
          "durationTicks": 240,
          "midi": 34,
          "name": "A#1",
          "ticks": 142800,
          "time": 99.499604,
          "velocity": 0.7874015748031497
        },
        {
          "duration": 0.08333300000001032,
          "durationTicks": 120,
          "midi": 65,
          "name": "F4",
          "ticks": 142920,
          "time": 99.582937,
          "velocity": 0.7874015748031497
        },
        {
          "duration": 0.1666659999999922,
          "durationTicks": 240,
          "midi": 64,
          "name": "E4",
          "ticks": 143040,
          "time": 99.66627000000001,
          "velocity": 0.7874015748031497
        },
        {
          "duration": 0.1666659999999922,
          "durationTicks": 240,
          "midi": 46,
          "name": "A#2",
          "ticks": 143040,
          "time": 99.66627000000001,
          "velocity": 0.7874015748031497
        },
        {
          "duration": 0.16666600000000642,
          "durationTicks": 240,
          "midi": 67,
          "name": "G4",
          "ticks": 143280,
          "time": 99.832936,
          "velocity": 0.7874015748031497
        },
        {
          "duration": 0.16666600000000642,
          "durationTicks": 240,
          "midi": 36,
          "name": "C2",
          "ticks": 143280,
          "time": 99.832936,
          "velocity": 0.7874015748031497
        },
        {
          "duration": 0.1666659999999922,
          "durationTicks": 240,
          "midi": 65,
          "name": "F4",
          "ticks": 143520,
          "time": 99.99960200000001,
          "velocity": 0.7874015748031497
        },
        {
          "duration": 0.1666659999999922,
          "durationTicks": 240,
          "midi": 48,
          "name": "C3",
          "ticks": 143520,
          "time": 99.99960200000001,
          "velocity": 0.7874015748031497
        },
        {
          "duration": 0.0833329999999961,
          "durationTicks": 120,
          "midi": 64,
          "name": "E4",
          "ticks": 143760,
          "time": 100.166268,
          "velocity": 0.7874015748031497
        },
        {
          "duration": 0.16666600000000642,
          "durationTicks": 240,
          "midi": 36,
          "name": "C2",
          "ticks": 143760,
          "time": 100.166268,
          "velocity": 0.7874015748031497
        },
        {
          "duration": 0.08333300000001032,
          "durationTicks": 120,
          "midi": 65,
          "name": "F4",
          "ticks": 143880,
          "time": 100.249601,
          "velocity": 0.7874015748031497
        },
        {
          "duration": 0.0833329999999961,
          "durationTicks": 120,
          "midi": 64,
          "name": "E4",
          "ticks": 144000,
          "time": 100.33293400000001,
          "velocity": 0.7874015748031497
        },
        {
          "duration": 0.1666659999999922,
          "durationTicks": 240,
          "midi": 48,
          "name": "C3",
          "ticks": 144000,
          "time": 100.33293400000001,
          "velocity": 0.7874015748031497
        },
        {
          "duration": 0.0833329999999961,
          "durationTicks": 120,
          "midi": 60,
          "name": "C4",
          "ticks": 144120,
          "time": 100.416267,
          "velocity": 0.7874015748031497
        },
        {
          "duration": 0.16666600000000642,
          "durationTicks": 240,
          "midi": 62,
          "name": "D4",
          "ticks": 144240,
          "time": 100.4996,
          "velocity": 0.7874015748031497
        },
        {
          "duration": 0.16666600000000642,
          "durationTicks": 240,
          "midi": 38,
          "name": "D2",
          "ticks": 144240,
          "time": 100.4996,
          "velocity": 0.7874015748031497
        },
        {
          "duration": 0.1666659999999922,
          "durationTicks": 240,
          "midi": 69,
          "name": "A4",
          "ticks": 144480,
          "time": 100.66626600000001,
          "velocity": 0.7874015748031497
        },
        {
          "duration": 0.1666659999999922,
          "durationTicks": 240,
          "midi": 50,
          "name": "D3",
          "ticks": 144480,
          "time": 100.66626600000001,
          "velocity": 0.7874015748031497
        },
        {
          "duration": 0.08333300000001032,
          "durationTicks": 120,
          "midi": 67,
          "name": "G4",
          "ticks": 144720,
          "time": 100.832932,
          "velocity": 0.7874015748031497
        },
        {
          "duration": 0.16666600000000642,
          "durationTicks": 240,
          "midi": 40,
          "name": "E2",
          "ticks": 144720,
          "time": 100.832932,
          "velocity": 0.7874015748031497
        },
        {
          "duration": 0.0833329999999961,
          "durationTicks": 120,
          "midi": 69,
          "name": "A4",
          "ticks": 144840,
          "time": 100.91626500000001,
          "velocity": 0.7874015748031497
        },
        {
          "duration": 0.0833329999999961,
          "durationTicks": 120,
          "midi": 67,
          "name": "G4",
          "ticks": 144960,
          "time": 100.999598,
          "velocity": 0.7874015748031497
        },
        {
          "duration": 0.1666659999999922,
          "durationTicks": 240,
          "midi": 52,
          "name": "E3",
          "ticks": 144960,
          "time": 100.999598,
          "velocity": 0.7874015748031497
        },
        {
          "duration": 0.0833329999999961,
          "durationTicks": 120,
          "midi": 69,
          "name": "A4",
          "ticks": 145080,
          "time": 101.082931,
          "velocity": 0.7874015748031497
        },
        {
          "duration": 0.16666600000000642,
          "durationTicks": 240,
          "midi": 73,
          "name": "C#5",
          "ticks": 145200,
          "time": 101.166264,
          "velocity": 0.7874015748031497
        },
        {
          "duration": 0.16666600000000642,
          "durationTicks": 240,
          "midi": 41,
          "name": "F2",
          "ticks": 145200,
          "time": 101.166264,
          "velocity": 0.7874015748031497
        },
        {
          "duration": 0.16666600000000642,
          "durationTicks": 240,
          "midi": 69,
          "name": "A4",
          "ticks": 145440,
          "time": 101.33293,
          "velocity": 0.7874015748031497
        },
        {
          "duration": 0.16666600000000642,
          "durationTicks": 240,
          "midi": 53,
          "name": "F3",
          "ticks": 145440,
          "time": 101.33293,
          "velocity": 0.7874015748031497
        },
        {
          "duration": 0.1666659999999922,
          "durationTicks": 240,
          "midi": 67,
          "name": "G4",
          "ticks": 145680,
          "time": 101.49959600000001,
          "velocity": 0.7874015748031497
        },
        {
          "duration": 0.1666659999999922,
          "durationTicks": 240,
          "midi": 43,
          "name": "G2",
          "ticks": 145680,
          "time": 101.49959600000001,
          "velocity": 0.7874015748031497
        },
        {
          "duration": 0.16666600000000642,
          "durationTicks": 240,
          "midi": 69,
          "name": "A4",
          "ticks": 145920,
          "time": 101.666262,
          "velocity": 0.7874015748031497
        },
        {
          "duration": 0.16666600000000642,
          "durationTicks": 240,
          "midi": 55,
          "name": "G3",
          "ticks": 145920,
          "time": 101.666262,
          "velocity": 0.7874015748031497
        },
        {
          "duration": 0.1666659999999922,
          "durationTicks": 240,
          "midi": 57,
          "name": "A3",
          "ticks": 146160,
          "time": 101.83292800000001,
          "velocity": 0.7874015748031497
        },
        {
          "duration": 0.1666659999999922,
          "durationTicks": 240,
          "midi": 34,
          "name": "A#1",
          "ticks": 146160,
          "time": 101.83292800000001,
          "velocity": 0.7874015748031497
        },
        {
          "duration": 0.16666600000000642,
          "durationTicks": 240,
          "midi": 65,
          "name": "F4",
          "ticks": 146400,
          "time": 101.999594,
          "velocity": 0.7874015748031497
        },
        {
          "duration": 0.16666600000000642,
          "durationTicks": 240,
          "midi": 46,
          "name": "A#2",
          "ticks": 146400,
          "time": 101.999594,
          "velocity": 0.7874015748031497
        },
        {
          "duration": 0.0833329999999961,
          "durationTicks": 120,
          "midi": 64,
          "name": "E4",
          "ticks": 146640,
          "time": 102.16626000000001,
          "velocity": 0.7874015748031497
        },
        {
          "duration": 0.1666659999999922,
          "durationTicks": 240,
          "midi": 34,
          "name": "A#1",
          "ticks": 146640,
          "time": 102.16626000000001,
          "velocity": 0.7874015748031497
        },
        {
          "duration": 0.0833329999999961,
          "durationTicks": 120,
          "midi": 65,
          "name": "F4",
          "ticks": 146760,
          "time": 102.249593,
          "velocity": 0.7874015748031497
        },
        {
          "duration": 0.16666600000000642,
          "durationTicks": 240,
          "midi": 64,
          "name": "E4",
          "ticks": 146880,
          "time": 102.332926,
          "velocity": 0.7874015748031497
        },
        {
          "duration": 0.16666600000000642,
          "durationTicks": 240,
          "midi": 46,
          "name": "A#2",
          "ticks": 146880,
          "time": 102.332926,
          "velocity": 0.7874015748031497
        },
        {
          "duration": 0.1666659999999922,
          "durationTicks": 240,
          "midi": 67,
          "name": "G4",
          "ticks": 147120,
          "time": 102.499592,
          "velocity": 0.7874015748031497
        },
        {
          "duration": 0.1666659999999922,
          "durationTicks": 240,
          "midi": 36,
          "name": "C2",
          "ticks": 147120,
          "time": 102.499592,
          "velocity": 0.7874015748031497
        },
        {
          "duration": 0.16666600000000642,
          "durationTicks": 240,
          "midi": 65,
          "name": "F4",
          "ticks": 147360,
          "time": 102.666258,
          "velocity": 0.7874015748031497
        },
        {
          "duration": 0.16666600000000642,
          "durationTicks": 240,
          "midi": 48,
          "name": "C3",
          "ticks": 147360,
          "time": 102.666258,
          "velocity": 0.7874015748031497
        },
        {
          "duration": 0.0833329999999961,
          "durationTicks": 120,
          "midi": 64,
          "name": "E4",
          "ticks": 147600,
          "time": 102.832924,
          "velocity": 0.7874015748031497
        },
        {
          "duration": 0.16666600000000642,
          "durationTicks": 240,
          "midi": 36,
          "name": "C2",
          "ticks": 147600,
          "time": 102.832924,
          "velocity": 0.7874015748031497
        },
        {
          "duration": 0.08333300000001032,
          "durationTicks": 120,
          "midi": 65,
          "name": "F4",
          "ticks": 147720,
          "time": 102.916257,
          "velocity": 0.7874015748031497
        },
        {
          "duration": 0.0833329999999961,
          "durationTicks": 120,
          "midi": 64,
          "name": "E4",
          "ticks": 147840,
          "time": 102.99959000000001,
          "velocity": 0.7874015748031497
        },
        {
          "duration": 0.1666659999999922,
          "durationTicks": 240,
          "midi": 48,
          "name": "C3",
          "ticks": 147840,
          "time": 102.99959000000001,
          "velocity": 0.7874015748031497
        },
        {
          "duration": 0.0833329999999961,
          "durationTicks": 120,
          "midi": 60,
          "name": "C4",
          "ticks": 147960,
          "time": 103.08292300000001,
          "velocity": 0.7874015748031497
        },
        {
          "duration": 0.16666600000000642,
          "durationTicks": 240,
          "midi": 62,
          "name": "D4",
          "ticks": 148080,
          "time": 103.166256,
          "velocity": 0.7874015748031497
        },
        {
          "duration": 0.16666600000000642,
          "durationTicks": 240,
          "midi": 38,
          "name": "D2",
          "ticks": 148080,
          "time": 103.166256,
          "velocity": 0.7874015748031497
        },
        {
          "duration": 0.1666659999999922,
          "durationTicks": 240,
          "midi": 69,
          "name": "A4",
          "ticks": 148320,
          "time": 103.33292200000001,
          "velocity": 0.7874015748031497
        },
        {
          "duration": 0.1666659999999922,
          "durationTicks": 240,
          "midi": 50,
          "name": "D3",
          "ticks": 148320,
          "time": 103.33292200000001,
          "velocity": 0.7874015748031497
        },
        {
          "duration": 0.0833329999999961,
          "durationTicks": 120,
          "midi": 67,
          "name": "G4",
          "ticks": 148560,
          "time": 103.499588,
          "velocity": 0.7874015748031497
        },
        {
          "duration": 0.16666600000000642,
          "durationTicks": 240,
          "midi": 38,
          "name": "D2",
          "ticks": 148560,
          "time": 103.499588,
          "velocity": 0.7874015748031497
        },
        {
          "duration": 0.08333300000001032,
          "durationTicks": 120,
          "midi": 69,
          "name": "A4",
          "ticks": 148680,
          "time": 103.582921,
          "velocity": 0.7874015748031497
        },
        {
          "duration": 0.0833329999999961,
          "durationTicks": 120,
          "midi": 67,
          "name": "G4",
          "ticks": 148800,
          "time": 103.66625400000001,
          "velocity": 0.7874015748031497
        },
        {
          "duration": 0.1666659999999922,
          "durationTicks": 240,
          "midi": 50,
          "name": "D3",
          "ticks": 148800,
          "time": 103.66625400000001,
          "velocity": 0.7874015748031497
        },
        {
          "duration": 0.0833329999999961,
          "durationTicks": 120,
          "midi": 69,
          "name": "A4",
          "ticks": 148920,
          "time": 103.749587,
          "velocity": 0.7874015748031497
        },
        {
          "duration": 0.16666600000000642,
          "durationTicks": 240,
          "midi": 72,
          "name": "C5",
          "ticks": 149040,
          "time": 103.83292,
          "velocity": 0.7874015748031497
        },
        {
          "duration": 0.16666600000000642,
          "durationTicks": 240,
          "midi": 38,
          "name": "D2",
          "ticks": 149040,
          "time": 103.83292,
          "velocity": 0.7874015748031497
        },
        {
          "duration": 0.1666659999999922,
          "durationTicks": 240,
          "midi": 69,
          "name": "A4",
          "ticks": 149280,
          "time": 103.99958600000001,
          "velocity": 0.7874015748031497
        },
        {
          "duration": 0.1666659999999922,
          "durationTicks": 240,
          "midi": 50,
          "name": "D3",
          "ticks": 149280,
          "time": 103.99958600000001,
          "velocity": 0.7874015748031497
        },
        {
          "duration": 0.16666600000000642,
          "durationTicks": 240,
          "midi": 65,
          "name": "F4",
          "ticks": 149520,
          "time": 104.166252,
          "velocity": 0.7874015748031497
        },
        {
          "duration": 0.16666600000000642,
          "durationTicks": 240,
          "midi": 36,
          "name": "C2",
          "ticks": 149520,
          "time": 104.166252,
          "velocity": 0.7874015748031497
        },
        {
          "duration": 0.1666659999999922,
          "durationTicks": 240,
          "midi": 66,
          "name": "F#4",
          "ticks": 149760,
          "time": 104.332918,
          "velocity": 0.7874015748031497
        },
        {
          "duration": 0.1666659999999922,
          "durationTicks": 240,
          "midi": 48,
          "name": "C3",
          "ticks": 149760,
          "time": 104.332918,
          "velocity": 0.7874015748031497
        },
        {
          "duration": 0.16666600000000642,
          "durationTicks": 240,
          "midi": 67,
          "name": "G4",
          "ticks": 150000,
          "time": 104.499584,
          "velocity": 0.7874015748031497
        },
        {
          "duration": 0.16666600000000642,
          "durationTicks": 240,
          "midi": 31,
          "name": "G1",
          "ticks": 150000,
          "time": 104.499584,
          "velocity": 0.7874015748031497
        },
        {
          "duration": 0.0833329999999961,
          "durationTicks": 120,
          "midi": 58,
          "name": "A#3",
          "ticks": 150240,
          "time": 104.66625,
          "velocity": 0.7874015748031497
        },
        {
          "duration": 0.16666600000000642,
          "durationTicks": 240,
          "midi": 43,
          "name": "G2",
          "ticks": 150240,
          "time": 104.66625,
          "velocity": 0.7874015748031497
        },
        {
          "duration": 0.08333300000001032,
          "durationTicks": 120,
          "midi": 67,
          "name": "G4",
          "ticks": 150360,
          "time": 104.749583,
          "velocity": 0.7874015748031497
        },
        {
          "duration": 0.1666659999999922,
          "durationTicks": 240,
          "midi": 58,
          "name": "A#3",
          "ticks": 150480,
          "time": 104.83291600000001,
          "velocity": 0.7874015748031497
        },
        {
          "duration": 0.1666659999999922,
          "durationTicks": 240,
          "midi": 31,
          "name": "G1",
          "ticks": 150480,
          "time": 104.83291600000001,
          "velocity": 0.7874015748031497
        },
        {
          "duration": 0.16666600000000642,
          "durationTicks": 240,
          "midi": 67,
          "name": "G4",
          "ticks": 150720,
          "time": 104.999582,
          "velocity": 0.7874015748031497
        },
        {
          "duration": 0.16666600000000642,
          "durationTicks": 240,
          "midi": 43,
          "name": "G2",
          "ticks": 150720,
          "time": 104.999582,
          "velocity": 0.7874015748031497
        },
        {
          "duration": 0.1666659999999922,
          "durationTicks": 240,
          "midi": 69,
          "name": "A4",
          "ticks": 150960,
          "time": 105.16624800000001,
          "velocity": 0.7874015748031497
        },
        {
          "duration": 0.1666659999999922,
          "durationTicks": 240,
          "midi": 33,
          "name": "A1",
          "ticks": 150960,
          "time": 105.16624800000001,
          "velocity": 0.7874015748031497
        },
        {
          "duration": 0.16666600000000642,
          "durationTicks": 240,
          "midi": 67,
          "name": "G4",
          "ticks": 151200,
          "time": 105.332914,
          "velocity": 0.7874015748031497
        },
        {
          "duration": 0.16666600000000642,
          "durationTicks": 240,
          "midi": 45,
          "name": "A2",
          "ticks": 151200,
          "time": 105.332914,
          "velocity": 0.7874015748031497
        },
        {
          "duration": 0.1666659999999922,
          "durationTicks": 240,
          "midi": 65,
          "name": "F4",
          "ticks": 151440,
          "time": 105.49958000000001,
          "velocity": 0.7874015748031497
        },
        {
          "duration": 0.1666659999999922,
          "durationTicks": 240,
          "midi": 33,
          "name": "A1",
          "ticks": 151440,
          "time": 105.49958000000001,
          "velocity": 0.7874015748031497
        },
        {
          "duration": 0.16666600000000642,
          "durationTicks": 240,
          "midi": 64,
          "name": "E4",
          "ticks": 151680,
          "time": 105.666246,
          "velocity": 0.7874015748031497
        },
        {
          "duration": 0.16666600000000642,
          "durationTicks": 240,
          "midi": 45,
          "name": "A2",
          "ticks": 151680,
          "time": 105.666246,
          "velocity": 0.7874015748031497
        },
        {
          "duration": 1.3333279999999945,
          "durationTicks": 1920,
          "midi": 62,
          "name": "D4",
          "ticks": 151920,
          "time": 105.83291200000001,
          "velocity": 0.7874015748031497
        },
        {
          "duration": 0.1666659999999922,
          "durationTicks": 240,
          "midi": 38,
          "name": "D2",
          "ticks": 151920,
          "time": 105.83291200000001,
          "velocity": 0.7874015748031497
        },
        {
          "duration": 0.16666600000000642,
          "durationTicks": 240,
          "midi": 50,
          "name": "D3",
          "ticks": 152160,
          "time": 105.999578,
          "velocity": 0.7874015748031497
        },
        {
          "duration": 0.16666600000000642,
          "durationTicks": 240,
          "midi": 40,
          "name": "E2",
          "ticks": 152400,
          "time": 106.166244,
          "velocity": 0.7874015748031497
        },
        {
          "duration": 0.1666659999999922,
          "durationTicks": 240,
          "midi": 52,
          "name": "E3",
          "ticks": 152640,
          "time": 106.33291000000001,
          "velocity": 0.7874015748031497
        },
        {
          "duration": 0.16666600000000642,
          "durationTicks": 240,
          "midi": 41,
          "name": "F2",
          "ticks": 152880,
          "time": 106.499576,
          "velocity": 0.7874015748031497
        },
        {
          "duration": 0.1666659999999922,
          "durationTicks": 240,
          "midi": 53,
          "name": "F3",
          "ticks": 153120,
          "time": 106.66624200000001,
          "velocity": 0.7874015748031497
        },
        {
          "duration": 0.16666600000000642,
          "durationTicks": 240,
          "midi": 43,
          "name": "G2",
          "ticks": 153360,
          "time": 106.832908,
          "velocity": 0.7874015748031497
        },
        {
          "duration": 0.1666659999999922,
          "durationTicks": 240,
          "midi": 55,
          "name": "G3",
          "ticks": 153600,
          "time": 106.99957400000001,
          "velocity": 0.7874015748031497
        },
        {
          "duration": 0.16666600000000642,
          "durationTicks": 240,
          "midi": 50,
          "name": "D3",
          "ticks": 153840,
          "time": 107.16624,
          "velocity": 0.7874015748031497
        },
        {
          "duration": 0.16666600000000642,
          "durationTicks": 240,
          "midi": 26,
          "name": "D1",
          "ticks": 153840,
          "time": 107.16624,
          "velocity": 0.7874015748031497
        },
        {
          "duration": 0.1666659999999922,
          "durationTicks": 240,
          "midi": 57,
          "name": "A3",
          "ticks": 154080,
          "time": 107.33290600000001,
          "velocity": 0.7874015748031497
        },
        {
          "duration": 0.1666659999999922,
          "durationTicks": 240,
          "midi": 38,
          "name": "D2",
          "ticks": 154080,
          "time": 107.33290600000001,
          "velocity": 0.7874015748031497
        },
        {
          "duration": 0.08333300000001032,
          "durationTicks": 120,
          "midi": 55,
          "name": "G3",
          "ticks": 154320,
          "time": 107.499572,
          "velocity": 0.7874015748031497
        },
        {
          "duration": 0.16666600000000642,
          "durationTicks": 240,
          "midi": 26,
          "name": "D1",
          "ticks": 154320,
          "time": 107.499572,
          "velocity": 0.7874015748031497
        },
        {
          "duration": 0.1666659999999922,
          "durationTicks": 240,
          "midi": 57,
          "name": "A3",
          "ticks": 154440,
          "time": 107.58290500000001,
          "velocity": 0.7874015748031497
        },
        {
          "duration": 0.1666659999999922,
          "durationTicks": 240,
          "midi": 38,
          "name": "D2",
          "ticks": 154560,
          "time": 107.666238,
          "velocity": 0.7874015748031497
        },
        {
          "duration": 0.16666600000000642,
          "durationTicks": 240,
          "midi": 52,
          "name": "E3",
          "ticks": 154680,
          "time": 107.749571,
          "velocity": 0.7874015748031497
        },
        {
          "duration": 0.16666600000000642,
          "durationTicks": 240,
          "midi": 26,
          "name": "D1",
          "ticks": 154800,
          "time": 107.832904,
          "velocity": 0.7874015748031497
        },
        {
          "duration": 0.1666659999999922,
          "durationTicks": 240,
          "midi": 53,
          "name": "F3",
          "ticks": 154920,
          "time": 107.91623700000001,
          "velocity": 0.7874015748031497
        },
        {
          "duration": 0.16666600000000642,
          "durationTicks": 240,
          "midi": 38,
          "name": "D2",
          "ticks": 155040,
          "time": 107.99957,
          "velocity": 0.7874015748031497
        },
        {
          "duration": 0.08333300000001032,
          "durationTicks": 120,
          "midi": 57,
          "name": "A3",
          "ticks": 155160,
          "time": 108.082903,
          "velocity": 0.7874015748031497
        },
        {
          "duration": 0.0833329999999961,
          "durationTicks": 120,
          "midi": 55,
          "name": "G3",
          "ticks": 155280,
          "time": 108.16623600000001,
          "velocity": 0.7874015748031497
        },
        {
          "duration": 0.1666659999999922,
          "durationTicks": 240,
          "midi": 26,
          "name": "D1",
          "ticks": 155280,
          "time": 108.16623600000001,
          "velocity": 0.7874015748031497
        },
        {
          "duration": 0.0833329999999961,
          "durationTicks": 120,
          "midi": 53,
          "name": "F3",
          "ticks": 155400,
          "time": 108.24956900000001,
          "velocity": 0.7874015748031497
        },
        {
          "duration": 0.0833329999999961,
          "durationTicks": 120,
          "midi": 52,
          "name": "E3",
          "ticks": 155520,
          "time": 108.332902,
          "velocity": 0.7874015748031497
        },
        {
          "duration": 0.16666600000000642,
          "durationTicks": 240,
          "midi": 38,
          "name": "D2",
          "ticks": 155520,
          "time": 108.332902,
          "velocity": 0.7874015748031497
        },
        {
          "duration": 0.16666600000000642,
          "durationTicks": 240,
          "midi": 50,
          "name": "D3",
          "ticks": 155640,
          "time": 108.416235,
          "velocity": 0.7874015748031497
        },
        {
          "duration": 0.1666659999999922,
          "durationTicks": 240,
          "midi": 26,
          "name": "D1",
          "ticks": 155760,
          "time": 108.49956800000001,
          "velocity": 0.7874015748031497
        },
        {
          "duration": 0.0833329999999961,
          "durationTicks": 120,
          "midi": 50,
          "name": "D3",
          "ticks": 155880,
          "time": 108.582901,
          "velocity": 0.7874015748031497
        },
        {
          "duration": 0.16666600000000642,
          "durationTicks": 240,
          "midi": 57,
          "name": "A3",
          "ticks": 156000,
          "time": 108.666234,
          "velocity": 0.7874015748031497
        },
        {
          "duration": 0.16666600000000642,
          "durationTicks": 240,
          "midi": 38,
          "name": "D2",
          "ticks": 156000,
          "time": 108.666234,
          "velocity": 0.7874015748031497
        },
        {
          "duration": 0.0833329999999961,
          "durationTicks": 120,
          "midi": 55,
          "name": "G3",
          "ticks": 156240,
          "time": 108.83290000000001,
          "velocity": 0.7874015748031497
        },
        {
          "duration": 0.1666659999999922,
          "durationTicks": 240,
          "midi": 26,
          "name": "D1",
          "ticks": 156240,
          "time": 108.83290000000001,
          "velocity": 0.7874015748031497
        },
        {
          "duration": 0.16666600000000642,
          "durationTicks": 240,
          "midi": 57,
          "name": "A3",
          "ticks": 156360,
          "time": 108.916233,
          "velocity": 0.7874015748031497
        },
        {
          "duration": 0.16666600000000642,
          "durationTicks": 240,
          "midi": 38,
          "name": "D2",
          "ticks": 156480,
          "time": 108.999566,
          "velocity": 0.7874015748031497
        },
        {
          "duration": 0.1666659999999922,
          "durationTicks": 240,
          "midi": 52,
          "name": "E3",
          "ticks": 156600,
          "time": 109.08289900000001,
          "velocity": 0.7874015748031497
        },
        {
          "duration": 0.1666659999999922,
          "durationTicks": 240,
          "midi": 26,
          "name": "D1",
          "ticks": 156720,
          "time": 109.16623200000001,
          "velocity": 0.7874015748031497
        },
        {
          "duration": 0.16666600000000642,
          "durationTicks": 240,
          "midi": 53,
          "name": "F3",
          "ticks": 156840,
          "time": 109.249565,
          "velocity": 0.7874015748031497
        },
        {
          "duration": 0.16666600000000642,
          "durationTicks": 240,
          "midi": 38,
          "name": "D2",
          "ticks": 156960,
          "time": 109.332898,
          "velocity": 0.7874015748031497
        },
        {
          "duration": 0.1666659999999922,
          "durationTicks": 240,
          "midi": 57,
          "name": "A3",
          "ticks": 157080,
          "time": 109.41623100000001,
          "velocity": 0.7874015748031497
        },
        {
          "duration": 0.1666659999999922,
          "durationTicks": 240,
          "midi": 48,
          "name": "C3",
          "ticks": 157200,
          "time": 109.499564,
          "velocity": 0.7874015748031497
        },
        {
          "duration": 0.1666659999999922,
          "durationTicks": 240,
          "midi": 26,
          "name": "D1",
          "ticks": 157200,
          "time": 109.499564,
          "velocity": 0.7874015748031497
        },
        {
          "duration": 0.16666600000000642,
          "durationTicks": 240,
          "midi": 49,
          "name": "C#3",
          "ticks": 157440,
          "time": 109.66623,
          "velocity": 0.7874015748031497
        },
        {
          "duration": 0.16666600000000642,
          "durationTicks": 240,
          "midi": 38,
          "name": "D2",
          "ticks": 157440,
          "time": 109.66623,
          "velocity": 0.7874015748031497
        },
        {
          "duration": 0.16666600000000642,
          "durationTicks": 240,
          "midi": 50,
          "name": "D3",
          "ticks": 157680,
          "time": 109.832896,
          "velocity": 0.7874015748031497
        },
        {
          "duration": 0.16666600000000642,
          "durationTicks": 240,
          "midi": 26,
          "name": "D1",
          "ticks": 157680,
          "time": 109.832896,
          "velocity": 0.7874015748031497
        },
        {
          "duration": 0.1666659999999922,
          "durationTicks": 240,
          "midi": 57,
          "name": "A3",
          "ticks": 157920,
          "time": 109.99956200000001,
          "velocity": 0.7874015748031497
        },
        {
          "duration": 0.1666659999999922,
          "durationTicks": 240,
          "midi": 38,
          "name": "D2",
          "ticks": 157920,
          "time": 109.99956200000001,
          "velocity": 0.7874015748031497
        },
        {
          "duration": 0.0833329999999961,
          "durationTicks": 120,
          "midi": 55,
          "name": "G3",
          "ticks": 158160,
          "time": 110.166228,
          "velocity": 0.7874015748031497
        },
        {
          "duration": 0.16666600000000642,
          "durationTicks": 240,
          "midi": 26,
          "name": "D1",
          "ticks": 158160,
          "time": 110.166228,
          "velocity": 0.7874015748031497
        },
        {
          "duration": 0.16666600000000642,
          "durationTicks": 240,
          "midi": 57,
          "name": "A3",
          "ticks": 158280,
          "time": 110.249561,
          "velocity": 0.7874015748031497
        },
        {
          "duration": 0.1666659999999922,
          "durationTicks": 240,
          "midi": 38,
          "name": "D2",
          "ticks": 158400,
          "time": 110.33289400000001,
          "velocity": 0.7874015748031497
        },
        {
          "duration": 0.16666600000000642,
          "durationTicks": 240,
          "midi": 52,
          "name": "E3",
          "ticks": 158520,
          "time": 110.416227,
          "velocity": 0.7874015748031497
        },
        {
          "duration": 0.16666600000000642,
          "durationTicks": 240,
          "midi": 26,
          "name": "D1",
          "ticks": 158640,
          "time": 110.49956,
          "velocity": 0.7874015748031497
        },
        {
          "duration": 0.1666659999999922,
          "durationTicks": 240,
          "midi": 53,
          "name": "F3",
          "ticks": 158760,
          "time": 110.58289300000001,
          "velocity": 0.7874015748031497
        },
        {
          "duration": 0.1666659999999922,
          "durationTicks": 240,
          "midi": 38,
          "name": "D2",
          "ticks": 158880,
          "time": 110.66622600000001,
          "velocity": 0.7874015748031497
        },
        {
          "duration": 0.0833329999999961,
          "durationTicks": 120,
          "midi": 57,
          "name": "A3",
          "ticks": 159000,
          "time": 110.749559,
          "velocity": 0.7874015748031497
        },
        {
          "duration": 0.08333300000001032,
          "durationTicks": 120,
          "midi": 55,
          "name": "G3",
          "ticks": 159120,
          "time": 110.832892,
          "velocity": 0.7874015748031497
        },
        {
          "duration": 0.16666600000000642,
          "durationTicks": 240,
          "midi": 26,
          "name": "D1",
          "ticks": 159120,
          "time": 110.832892,
          "velocity": 0.7874015748031497
        },
        {
          "duration": 0.0833329999999961,
          "durationTicks": 120,
          "midi": 53,
          "name": "F3",
          "ticks": 159240,
          "time": 110.91622500000001,
          "velocity": 0.7874015748031497
        },
        {
          "duration": 0.0833329999999961,
          "durationTicks": 120,
          "midi": 52,
          "name": "E3",
          "ticks": 159360,
          "time": 110.99955800000001,
          "velocity": 0.7874015748031497
        },
        {
          "duration": 0.1666659999999922,
          "durationTicks": 240,
          "midi": 38,
          "name": "D2",
          "ticks": 159360,
          "time": 110.99955800000001,
          "velocity": 0.7874015748031497
        },
        {
          "duration": 0.16666600000000642,
          "durationTicks": 240,
          "midi": 50,
          "name": "D3",
          "ticks": 159480,
          "time": 111.082891,
          "velocity": 0.7874015748031497
        },
        {
          "duration": 0.16666600000000642,
          "durationTicks": 240,
          "midi": 26,
          "name": "D1",
          "ticks": 159600,
          "time": 111.166224,
          "velocity": 0.7874015748031497
        },
        {
          "duration": 0.0833329999999961,
          "durationTicks": 120,
          "midi": 50,
          "name": "D3",
          "ticks": 159720,
          "time": 111.24955700000001,
          "velocity": 0.7874015748031497
        },
        {
          "duration": 0.16666600000000642,
          "durationTicks": 240,
          "midi": 57,
          "name": "A3",
          "ticks": 159840,
          "time": 111.33289,
          "velocity": 0.7874015748031497
        },
        {
          "duration": 0.16666600000000642,
          "durationTicks": 240,
          "midi": 38,
          "name": "D2",
          "ticks": 159840,
          "time": 111.33289,
          "velocity": 0.7874015748031497
        },
        {
          "duration": 0.0833329999999961,
          "durationTicks": 120,
          "midi": 55,
          "name": "G3",
          "ticks": 160080,
          "time": 111.49955600000001,
          "velocity": 0.7874015748031497
        },
        {
          "duration": 0.1666659999999922,
          "durationTicks": 240,
          "midi": 26,
          "name": "D1",
          "ticks": 160080,
          "time": 111.49955600000001,
          "velocity": 0.7874015748031497
        },
        {
          "duration": 0.1666659999999922,
          "durationTicks": 240,
          "midi": 57,
          "name": "A3",
          "ticks": 160200,
          "time": 111.58288900000001,
          "velocity": 0.7874015748031497
        },
        {
          "duration": 0.16666600000000642,
          "durationTicks": 240,
          "midi": 38,
          "name": "D2",
          "ticks": 160320,
          "time": 111.666222,
          "velocity": 0.7874015748031497
        },
        {
          "duration": 0.16666600000000642,
          "durationTicks": 240,
          "midi": 52,
          "name": "E3",
          "ticks": 160440,
          "time": 111.749555,
          "velocity": 0.7874015748031497
        },
        {
          "duration": 0.1666659999999922,
          "durationTicks": 240,
          "midi": 26,
          "name": "D1",
          "ticks": 160560,
          "time": 111.83288800000001,
          "velocity": 0.7874015748031497
        },
        {
          "duration": 0.1666659999999922,
          "durationTicks": 240,
          "midi": 53,
          "name": "F3",
          "ticks": 160680,
          "time": 111.91622100000001,
          "velocity": 0.7874015748031497
        },
        {
          "duration": 0.16666600000000642,
          "durationTicks": 240,
          "midi": 38,
          "name": "D2",
          "ticks": 160800,
          "time": 111.999554,
          "velocity": 0.7874015748031497
        },
        {
          "duration": 0.16666600000000642,
          "durationTicks": 240,
          "midi": 57,
          "name": "A3",
          "ticks": 160920,
          "time": 112.082887,
          "velocity": 0.7874015748031497
        },
        {
          "duration": 0.1666659999999922,
          "durationTicks": 240,
          "midi": 48,
          "name": "C3",
          "ticks": 161040,
          "time": 112.16622000000001,
          "velocity": 0.7874015748031497
        },
        {
          "duration": 0.1666659999999922,
          "durationTicks": 240,
          "midi": 26,
          "name": "D1",
          "ticks": 161040,
          "time": 112.16622000000001,
          "velocity": 0.7874015748031497
        },
        {
          "duration": 0.16666600000000642,
          "durationTicks": 240,
          "midi": 49,
          "name": "C#3",
          "ticks": 161280,
          "time": 112.332886,
          "velocity": 0.7874015748031497
        },
        {
          "duration": 0.16666600000000642,
          "durationTicks": 240,
          "midi": 38,
          "name": "D2",
          "ticks": 161280,
          "time": 112.332886,
          "velocity": 0.7874015748031497
        },
        {
          "duration": 0.1666659999999922,
          "durationTicks": 240,
          "midi": 50,
          "name": "D3",
          "ticks": 161520,
          "time": 112.49955200000001,
          "velocity": 0.7874015748031497
        },
        {
          "duration": 0.1666659999999922,
          "durationTicks": 240,
          "midi": 26,
          "name": "D1",
          "ticks": 161520,
          "time": 112.49955200000001,
          "velocity": 0.7874015748031497
        },
        {
          "duration": 0.16666600000000642,
          "durationTicks": 240,
          "midi": 57,
          "name": "A3",
          "ticks": 161760,
          "time": 112.666218,
          "velocity": 0.7874015748031497
        },
        {
          "duration": 0.16666600000000642,
          "durationTicks": 240,
          "midi": 38,
          "name": "D2",
          "ticks": 161760,
          "time": 112.666218,
          "velocity": 0.7874015748031497
        },
        {
          "duration": 0.0833329999999961,
          "durationTicks": 120,
          "midi": 55,
          "name": "G3",
          "ticks": 162000,
          "time": 112.832884,
          "velocity": 0.7874015748031497
        },
        {
          "duration": 0.1666659999999922,
          "durationTicks": 240,
          "midi": 26,
          "name": "D1",
          "ticks": 162000,
          "time": 112.832884,
          "velocity": 0.7874015748031497
        },
        {
          "duration": 0.16666600000000642,
          "durationTicks": 240,
          "midi": 57,
          "name": "A3",
          "ticks": 162120,
          "time": 112.916217,
          "velocity": 0.7874015748031497
        },
        {
          "duration": 0.16666600000000642,
          "durationTicks": 240,
          "midi": 38,
          "name": "D2",
          "ticks": 162240,
          "time": 112.99955,
          "velocity": 0.7874015748031497
        },
        {
          "duration": 0.1666659999999922,
          "durationTicks": 240,
          "midi": 52,
          "name": "E3",
          "ticks": 162360,
          "time": 113.08288300000001,
          "velocity": 0.7874015748031497
        },
        {
          "duration": 0.16666600000000642,
          "durationTicks": 240,
          "midi": 26,
          "name": "D1",
          "ticks": 162480,
          "time": 113.166216,
          "velocity": 0.7874015748031497
        },
        {
          "duration": 0.16666600000000642,
          "durationTicks": 240,
          "midi": 53,
          "name": "F3",
          "ticks": 162600,
          "time": 113.249549,
          "velocity": 0.7874015748031497
        },
        {
          "duration": 0.1666659999999922,
          "durationTicks": 240,
          "midi": 38,
          "name": "D2",
          "ticks": 162720,
          "time": 113.33288200000001,
          "velocity": 0.7874015748031497
        },
        {
          "duration": 0.0833329999999961,
          "durationTicks": 120,
          "midi": 57,
          "name": "A3",
          "ticks": 162840,
          "time": 113.41621500000001,
          "velocity": 0.7874015748031497
        },
        {
          "duration": 0.0833329999999961,
          "durationTicks": 120,
          "midi": 55,
          "name": "G3",
          "ticks": 162960,
          "time": 113.499548,
          "velocity": 0.7874015748031497
        },
        {
          "duration": 0.16666600000000642,
          "durationTicks": 240,
          "midi": 26,
          "name": "D1",
          "ticks": 162960,
          "time": 113.499548,
          "velocity": 0.7874015748031497
        },
        {
          "duration": 0.08333300000001032,
          "durationTicks": 120,
          "midi": 53,
          "name": "F3",
          "ticks": 163080,
          "time": 113.582881,
          "velocity": 0.7874015748031497
        },
        {
          "duration": 0.0833329999999961,
          "durationTicks": 120,
          "midi": 52,
          "name": "E3",
          "ticks": 163200,
          "time": 113.66621400000001,
          "velocity": 0.7874015748031497
        },
        {
          "duration": 0.1666659999999922,
          "durationTicks": 240,
          "midi": 38,
          "name": "D2",
          "ticks": 163200,
          "time": 113.66621400000001,
          "velocity": 0.7874015748031497
        },
        {
          "duration": 0.1666659999999922,
          "durationTicks": 240,
          "midi": 50,
          "name": "D3",
          "ticks": 163320,
          "time": 113.749547,
          "velocity": 0.7874015748031497
        },
        {
          "duration": 0.16666600000000642,
          "durationTicks": 240,
          "midi": 26,
          "name": "D1",
          "ticks": 163440,
          "time": 113.83288,
          "velocity": 0.7874015748031497
        },
        {
          "duration": 0.08333300000001032,
          "durationTicks": 120,
          "midi": 50,
          "name": "D3",
          "ticks": 163560,
          "time": 113.916213,
          "velocity": 0.7874015748031497
        },
        {
          "duration": 0.1666659999999922,
          "durationTicks": 240,
          "midi": 57,
          "name": "A3",
          "ticks": 163680,
          "time": 113.99954600000001,
          "velocity": 0.7874015748031497
        },
        {
          "duration": 0.1666659999999922,
          "durationTicks": 240,
          "midi": 38,
          "name": "D2",
          "ticks": 163680,
          "time": 113.99954600000001,
          "velocity": 0.7874015748031497
        },
        {
          "duration": 0.08333300000001032,
          "durationTicks": 120,
          "midi": 55,
          "name": "G3",
          "ticks": 163920,
          "time": 114.166212,
          "velocity": 0.7874015748031497
        },
        {
          "duration": 0.16666600000000642,
          "durationTicks": 240,
          "midi": 26,
          "name": "D1",
          "ticks": 163920,
          "time": 114.166212,
          "velocity": 0.7874015748031497
        },
        {
          "duration": 0.1666659999999922,
          "durationTicks": 240,
          "midi": 57,
          "name": "A3",
          "ticks": 164040,
          "time": 114.24954500000001,
          "velocity": 0.7874015748031497
        },
        {
          "duration": 0.1666659999999922,
          "durationTicks": 240,
          "midi": 38,
          "name": "D2",
          "ticks": 164160,
          "time": 114.33287800000001,
          "velocity": 0.7874015748031497
        },
        {
          "duration": 0.16666600000000642,
          "durationTicks": 240,
          "midi": 52,
          "name": "E3",
          "ticks": 164280,
          "time": 114.416211,
          "velocity": 0.7874015748031497
        },
        {
          "duration": 0.16666600000000642,
          "durationTicks": 240,
          "midi": 26,
          "name": "D1",
          "ticks": 164400,
          "time": 114.499544,
          "velocity": 0.7874015748031497
        },
        {
          "duration": 0.1666659999999922,
          "durationTicks": 240,
          "midi": 53,
          "name": "F3",
          "ticks": 164520,
          "time": 114.58287700000001,
          "velocity": 0.7874015748031497
        },
        {
          "duration": 0.1666659999999922,
          "durationTicks": 240,
          "midi": 38,
          "name": "D2",
          "ticks": 164640,
          "time": 114.66621,
          "velocity": 0.7874015748031497
        },
        {
          "duration": 0.16666600000000642,
          "durationTicks": 240,
          "midi": 57,
          "name": "A3",
          "ticks": 164760,
          "time": 114.749543,
          "velocity": 0.7874015748031497
        },
        {
          "duration": 0.16666600000000642,
          "durationTicks": 240,
          "midi": 48,
          "name": "C3",
          "ticks": 164880,
          "time": 114.832876,
          "velocity": 0.7874015748031497
        },
        {
          "duration": 0.16666600000000642,
          "durationTicks": 240,
          "midi": 26,
          "name": "D1",
          "ticks": 164880,
          "time": 114.832876,
          "velocity": 0.7874015748031497
        },
        {
          "duration": 0.16666600000000642,
          "durationTicks": 240,
          "midi": 49,
          "name": "C#3",
          "ticks": 165120,
          "time": 114.999542,
          "velocity": 0.7874015748031497
        },
        {
          "duration": 0.16666600000000642,
          "durationTicks": 240,
          "midi": 38,
          "name": "D2",
          "ticks": 165120,
          "time": 114.999542,
          "velocity": 0.7874015748031497
        },
        {
          "duration": 0.1666659999999922,
          "durationTicks": 240,
          "midi": 50,
          "name": "D3",
          "ticks": 165360,
          "time": 115.16620800000001,
          "velocity": 0.7874015748031497
        },
        {
          "duration": 0.1666659999999922,
          "durationTicks": 240,
          "midi": 26,
          "name": "D1",
          "ticks": 165360,
          "time": 115.16620800000001,
          "velocity": 0.7874015748031497
        },
        {
          "duration": 0.16666600000000642,
          "durationTicks": 240,
          "midi": 57,
          "name": "A3",
          "ticks": 165600,
          "time": 115.332874,
          "velocity": 0.7874015748031497
        },
        {
          "duration": 0.16666600000000642,
          "durationTicks": 240,
          "midi": 38,
          "name": "D2",
          "ticks": 165600,
          "time": 115.332874,
          "velocity": 0.7874015748031497
        },
        {
          "duration": 0.0833329999999961,
          "durationTicks": 120,
          "midi": 55,
          "name": "G3",
          "ticks": 165840,
          "time": 115.49954000000001,
          "velocity": 0.7874015748031497
        },
        {
          "duration": 0.1666659999999922,
          "durationTicks": 240,
          "midi": 26,
          "name": "D1",
          "ticks": 165840,
          "time": 115.49954000000001,
          "velocity": 0.7874015748031497
        },
        {
          "duration": 0.16666600000000642,
          "durationTicks": 240,
          "midi": 57,
          "name": "A3",
          "ticks": 165960,
          "time": 115.582873,
          "velocity": 0.7874015748031497
        },
        {
          "duration": 0.16666600000000642,
          "durationTicks": 240,
          "midi": 38,
          "name": "D2",
          "ticks": 166080,
          "time": 115.666206,
          "velocity": 0.7874015748031497
        },
        {
          "duration": 0.1666659999999922,
          "durationTicks": 240,
          "midi": 52,
          "name": "E3",
          "ticks": 166200,
          "time": 115.74953900000001,
          "velocity": 0.7874015748031497
        },
        {
          "duration": 0.1666659999999922,
          "durationTicks": 240,
          "midi": 26,
          "name": "D1",
          "ticks": 166320,
          "time": 115.83287200000001,
          "velocity": 0.7874015748031497
        },
        {
          "duration": 0.16666600000000642,
          "durationTicks": 240,
          "midi": 53,
          "name": "F3",
          "ticks": 166440,
          "time": 115.916205,
          "velocity": 0.7874015748031497
        },
        {
          "duration": 0.16666600000000642,
          "durationTicks": 240,
          "midi": 38,
          "name": "D2",
          "ticks": 166560,
          "time": 115.999538,
          "velocity": 0.7874015748031497
        },
        {
          "duration": 0.0833329999999961,
          "durationTicks": 120,
          "midi": 57,
          "name": "A3",
          "ticks": 166680,
          "time": 116.08287100000001,
          "velocity": 0.7874015748031497
        },
        {
          "duration": 0.0833329999999961,
          "durationTicks": 120,
          "midi": 55,
          "name": "G3",
          "ticks": 166800,
          "time": 116.16620400000001,
          "velocity": 0.7874015748031497
        },
        {
          "duration": 0.1666659999999922,
          "durationTicks": 240,
          "midi": 26,
          "name": "D1",
          "ticks": 166800,
          "time": 116.16620400000001,
          "velocity": 0.7874015748031497
        },
        {
          "duration": 0.0833329999999961,
          "durationTicks": 120,
          "midi": 53,
          "name": "F3",
          "ticks": 166920,
          "time": 116.249537,
          "velocity": 0.7874015748031497
        },
        {
          "duration": 0.08333300000001032,
          "durationTicks": 120,
          "midi": 52,
          "name": "E3",
          "ticks": 167040,
          "time": 116.33287,
          "velocity": 0.7874015748031497
        },
        {
          "duration": 0.16666600000000642,
          "durationTicks": 240,
          "midi": 38,
          "name": "D2",
          "ticks": 167040,
          "time": 116.33287,
          "velocity": 0.7874015748031497
        },
        {
          "duration": 0.1666659999999922,
          "durationTicks": 240,
          "midi": 50,
          "name": "D3",
          "ticks": 167160,
          "time": 116.41620300000001,
          "velocity": 0.7874015748031497
        },
        {
          "duration": 0.16666600000000642,
          "durationTicks": 240,
          "midi": 26,
          "name": "D1",
          "ticks": 167280,
          "time": 116.499536,
          "velocity": 0.7874015748031497
        },
        {
          "duration": 0.08333300000001032,
          "durationTicks": 120,
          "midi": 50,
          "name": "D3",
          "ticks": 167400,
          "time": 116.582869,
          "velocity": 0.7874015748031497
        },
        {
          "duration": 0.1666659999999922,
          "durationTicks": 240,
          "midi": 57,
          "name": "A3",
          "ticks": 167520,
          "time": 116.66620200000001,
          "velocity": 0.7874015748031497
        },
        {
          "duration": 0.1666659999999922,
          "durationTicks": 240,
          "midi": 38,
          "name": "D2",
          "ticks": 167520,
          "time": 116.66620200000001,
          "velocity": 0.7874015748031497
        },
        {
          "duration": 0.0833329999999961,
          "durationTicks": 120,
          "midi": 55,
          "name": "G3",
          "ticks": 167760,
          "time": 116.832868,
          "velocity": 0.7874015748031497
        },
        {
          "duration": 0.16666600000000642,
          "durationTicks": 240,
          "midi": 26,
          "name": "D1",
          "ticks": 167760,
          "time": 116.832868,
          "velocity": 0.7874015748031497
        },
        {
          "duration": 0.16666600000000642,
          "durationTicks": 240,
          "midi": 57,
          "name": "A3",
          "ticks": 167880,
          "time": 116.916201,
          "velocity": 0.7874015748031497
        },
        {
          "duration": 0.1666659999999922,
          "durationTicks": 240,
          "midi": 38,
          "name": "D2",
          "ticks": 168000,
          "time": 116.99953400000001,
          "velocity": 0.7874015748031497
        },
        {
          "duration": 0.1666659999999922,
          "durationTicks": 240,
          "midi": 60,
          "name": "C4",
          "ticks": 168120,
          "time": 117.08286700000001,
          "velocity": 0.7874015748031497
        },
        {
          "duration": 0.16666600000000642,
          "durationTicks": 240,
          "midi": 26,
          "name": "D1",
          "ticks": 168240,
          "time": 117.1662,
          "velocity": 0.7874015748031497
        },
        {
          "duration": 0.08333300000001032,
          "durationTicks": 120,
          "midi": 60,
          "name": "C4",
          "ticks": 168360,
          "time": 117.249533,
          "velocity": 0.7874015748031497
        },
        {
          "duration": 0.1666659999999922,
          "durationTicks": 240,
          "midi": 57,
          "name": "A3",
          "ticks": 168480,
          "time": 117.33286600000001,
          "velocity": 0.7874015748031497
        },
        {
          "duration": 0.1666659999999922,
          "durationTicks": 240,
          "midi": 38,
          "name": "D2",
          "ticks": 168480,
          "time": 117.33286600000001,
          "velocity": 0.7874015748031497
        },
        {
          "duration": 0.16666600000000642,
          "durationTicks": 240,
          "midi": 64,
          "name": "E4",
          "ticks": 168720,
          "time": 117.499532,
          "velocity": 0.7874015748031497
        },
        {
          "duration": 0.16666600000000642,
          "durationTicks": 240,
          "midi": 26,
          "name": "D1",
          "ticks": 168720,
          "time": 117.499532,
          "velocity": 0.7874015748031497
        },
        {
          "duration": 0.0833329999999961,
          "durationTicks": 120,
          "midi": 60,
          "name": "C4",
          "ticks": 168960,
          "time": 117.66619800000001,
          "velocity": 0.7874015748031497
        },
        {
          "duration": 0.1666659999999922,
          "durationTicks": 240,
          "midi": 38,
          "name": "D2",
          "ticks": 168960,
          "time": 117.66619800000001,
          "velocity": 0.7874015748031497
        },
        {
          "duration": 0.0833329999999961,
          "durationTicks": 120,
          "midi": 61,
          "name": "C#4",
          "ticks": 169080,
          "time": 117.749531,
          "velocity": 0.7874015748031497
        },
        {
          "duration": 0.16666600000000642,
          "durationTicks": 240,
          "midi": 62,
          "name": "D4",
          "ticks": 169200,
          "time": 117.832864,
          "velocity": 0.7874015748031497
        },
        {
          "duration": 0.16666600000000642,
          "durationTicks": 240,
          "midi": 38,
          "name": "D2",
          "ticks": 169200,
          "time": 117.832864,
          "velocity": 0.7874015748031497
        },
        {
          "duration": 0.1666659999999922,
          "durationTicks": 240,
          "midi": 69,
          "name": "A4",
          "ticks": 169440,
          "time": 117.99953000000001,
          "velocity": 0.7874015748031497
        },
        {
          "duration": 0.1666659999999922,
          "durationTicks": 240,
          "midi": 50,
          "name": "D3",
          "ticks": 169440,
          "time": 117.99953000000001,
          "velocity": 0.7874015748031497
        },
        {
          "duration": 0.08333300000001032,
          "durationTicks": 120,
          "midi": 67,
          "name": "G4",
          "ticks": 169680,
          "time": 118.166196,
          "velocity": 0.7874015748031497
        },
        {
          "duration": 0.16666600000000642,
          "durationTicks": 240,
          "midi": 38,
          "name": "D2",
          "ticks": 169680,
          "time": 118.166196,
          "velocity": 0.7874015748031497
        },
        {
          "duration": 0.1666659999999922,
          "durationTicks": 240,
          "midi": 69,
          "name": "A4",
          "ticks": 169800,
          "time": 118.24952900000001,
          "velocity": 0.7874015748031497
        },
        {
          "duration": 0.16666600000000642,
          "durationTicks": 240,
          "midi": 50,
          "name": "D3",
          "ticks": 169920,
          "time": 118.332862,
          "velocity": 0.7874015748031497
        },
        {
          "duration": 0.16666600000000642,
          "durationTicks": 240,
          "midi": 64,
          "name": "E4",
          "ticks": 170040,
          "time": 118.416195,
          "velocity": 0.7874015748031497
        },
        {
          "duration": 0.1666659999999922,
          "durationTicks": 240,
          "midi": 38,
          "name": "D2",
          "ticks": 170160,
          "time": 118.49952800000001,
          "velocity": 0.7874015748031497
        },
        {
          "duration": 0.1666659999999922,
          "durationTicks": 240,
          "midi": 65,
          "name": "F4",
          "ticks": 170280,
          "time": 118.58286100000001,
          "velocity": 0.7874015748031497
        },
        {
          "duration": 0.16666600000000642,
          "durationTicks": 240,
          "midi": 50,
          "name": "D3",
          "ticks": 170400,
          "time": 118.666194,
          "velocity": 0.7874015748031497
        },
        {
          "duration": 0.08333300000001032,
          "durationTicks": 120,
          "midi": 69,
          "name": "A4",
          "ticks": 170520,
          "time": 118.749527,
          "velocity": 0.7874015748031497
        },
        {
          "duration": 0.0833329999999961,
          "durationTicks": 120,
          "midi": 67,
          "name": "G4",
          "ticks": 170640,
          "time": 118.83286000000001,
          "velocity": 0.7874015748031497
        },
        {
          "duration": 0.1666659999999922,
          "durationTicks": 240,
          "midi": 38,
          "name": "D2",
          "ticks": 170640,
          "time": 118.83286000000001,
          "velocity": 0.7874015748031497
        },
        {
          "duration": 0.0833329999999961,
          "durationTicks": 120,
          "midi": 65,
          "name": "F4",
          "ticks": 170760,
          "time": 118.916193,
          "velocity": 0.7874015748031497
        },
        {
          "duration": 0.0833329999999961,
          "durationTicks": 120,
          "midi": 64,
          "name": "E4",
          "ticks": 170880,
          "time": 118.999526,
          "velocity": 0.7874015748031497
        },
        {
          "duration": 0.16666600000000642,
          "durationTicks": 240,
          "midi": 50,
          "name": "D3",
          "ticks": 170880,
          "time": 118.999526,
          "velocity": 0.7874015748031497
        },
        {
          "duration": 0.16666600000000642,
          "durationTicks": 240,
          "midi": 62,
          "name": "D4",
          "ticks": 171000,
          "time": 119.082859,
          "velocity": 0.7874015748031497
        },
        {
          "duration": 0.1666659999999922,
          "durationTicks": 240,
          "midi": 38,
          "name": "D2",
          "ticks": 171120,
          "time": 119.16619200000001,
          "velocity": 0.7874015748031497
        },
        {
          "duration": 0.0833329999999961,
          "durationTicks": 120,
          "midi": 62,
          "name": "D4",
          "ticks": 171240,
          "time": 119.249525,
          "velocity": 0.7874015748031497
        },
        {
          "duration": 0.16666600000000642,
          "durationTicks": 240,
          "midi": 69,
          "name": "A4",
          "ticks": 171360,
          "time": 119.332858,
          "velocity": 0.7874015748031497
        },
        {
          "duration": 0.16666600000000642,
          "durationTicks": 240,
          "midi": 50,
          "name": "D3",
          "ticks": 171360,
          "time": 119.332858,
          "velocity": 0.7874015748031497
        },
        {
          "duration": 0.0833329999999961,
          "durationTicks": 120,
          "midi": 67,
          "name": "G4",
          "ticks": 171600,
          "time": 119.49952400000001,
          "velocity": 0.7874015748031497
        },
        {
          "duration": 0.1666659999999922,
          "durationTicks": 240,
          "midi": 38,
          "name": "D2",
          "ticks": 171600,
          "time": 119.49952400000001,
          "velocity": 0.7874015748031497
        },
        {
          "duration": 0.16666600000000642,
          "durationTicks": 240,
          "midi": 69,
          "name": "A4",
          "ticks": 171720,
          "time": 119.582857,
          "velocity": 0.7874015748031497
        },
        {
          "duration": 0.16666600000000642,
          "durationTicks": 240,
          "midi": 50,
          "name": "D3",
          "ticks": 171840,
          "time": 119.66619,
          "velocity": 0.7874015748031497
        },
        {
          "duration": 0.1666659999999922,
          "durationTicks": 240,
          "midi": 64,
          "name": "E4",
          "ticks": 171960,
          "time": 119.74952300000001,
          "velocity": 0.7874015748031497
        },
        {
          "duration": 0.16666600000000642,
          "durationTicks": 240,
          "midi": 38,
          "name": "D2",
          "ticks": 172080,
          "time": 119.832856,
          "velocity": 0.7874015748031497
        },
        {
          "duration": 0.16666600000000642,
          "durationTicks": 240,
          "midi": 65,
          "name": "F4",
          "ticks": 172200,
          "time": 119.916189,
          "velocity": 0.7874015748031497
        },
        {
          "duration": 0.1666659999999922,
          "durationTicks": 240,
          "midi": 50,
          "name": "D3",
          "ticks": 172320,
          "time": 119.99952200000001,
          "velocity": 0.7874015748031497
        },
        {
          "duration": 0.0833329999999961,
          "durationTicks": 120,
          "midi": 69,
          "name": "A4",
          "ticks": 172440,
          "time": 120.08285500000001,
          "velocity": 0.7874015748031497
        },
        {
          "duration": 0.16666600000000642,
          "durationTicks": 240,
          "midi": 60,
          "name": "C4",
          "ticks": 172560,
          "time": 120.166188,
          "velocity": 0.7874015748031497
        },
        {
          "duration": 0.16666600000000642,
          "durationTicks": 240,
          "midi": 38,
          "name": "D2",
          "ticks": 172560,
          "time": 120.166188,
          "velocity": 0.7874015748031497
        },
        {
          "duration": 0.1666659999999922,
          "durationTicks": 240,
          "midi": 61,
          "name": "C#4",
          "ticks": 172800,
          "time": 120.33285400000001,
          "velocity": 0.7874015748031497
        },
        {
          "duration": 0.1666659999999922,
          "durationTicks": 240,
          "midi": 50,
          "name": "D3",
          "ticks": 172800,
          "time": 120.33285400000001,
          "velocity": 0.7874015748031497
        },
        {
          "duration": 0.16666600000000642,
          "durationTicks": 240,
          "midi": 62,
          "name": "D4",
          "ticks": 173040,
          "time": 120.49952,
          "velocity": 0.7874015748031497
        },
        {
          "duration": 0.16666600000000642,
          "durationTicks": 240,
          "midi": 38,
          "name": "D2",
          "ticks": 173040,
          "time": 120.49952,
          "velocity": 0.7874015748031497
        },
        {
          "duration": 0.1666659999999922,
          "durationTicks": 240,
          "midi": 69,
          "name": "A4",
          "ticks": 173280,
          "time": 120.66618600000001,
          "velocity": 0.7874015748031497
        },
        {
          "duration": 0.1666659999999922,
          "durationTicks": 240,
          "midi": 50,
          "name": "D3",
          "ticks": 173280,
          "time": 120.66618600000001,
          "velocity": 0.7874015748031497
        },
        {
          "duration": 0.08333300000001032,
          "durationTicks": 120,
          "midi": 67,
          "name": "G4",
          "ticks": 173520,
          "time": 120.832852,
          "velocity": 0.7874015748031497
        },
        {
          "duration": 0.16666600000000642,
          "durationTicks": 240,
          "midi": 38,
          "name": "D2",
          "ticks": 173520,
          "time": 120.832852,
          "velocity": 0.7874015748031497
        },
        {
          "duration": 0.1666659999999922,
          "durationTicks": 240,
          "midi": 69,
          "name": "A4",
          "ticks": 173640,
          "time": 120.91618500000001,
          "velocity": 0.7874015748031497
        },
        {
          "duration": 0.1666659999999922,
          "durationTicks": 240,
          "midi": 50,
          "name": "D3",
          "ticks": 173760,
          "time": 120.99951800000001,
          "velocity": 0.7874015748031497
        },
        {
          "duration": 0.16666600000000642,
          "durationTicks": 240,
          "midi": 64,
          "name": "E4",
          "ticks": 173880,
          "time": 121.082851,
          "velocity": 0.7874015748031497
        },
        {
          "duration": 0.16666600000000642,
          "durationTicks": 240,
          "midi": 38,
          "name": "D2",
          "ticks": 174000,
          "time": 121.166184,
          "velocity": 0.7874015748031497
        },
        {
          "duration": 0.1666659999999922,
          "durationTicks": 240,
          "midi": 65,
          "name": "F4",
          "ticks": 174120,
          "time": 121.24951700000001,
          "velocity": 0.7874015748031497
        },
        {
          "duration": 0.1666659999999922,
          "durationTicks": 240,
          "midi": 50,
          "name": "D3",
          "ticks": 174240,
          "time": 121.33285000000001,
          "velocity": 0.7874015748031497
        },
        {
          "duration": 0.0833329999999961,
          "durationTicks": 120,
          "midi": 69,
          "name": "A4",
          "ticks": 174360,
          "time": 121.416183,
          "velocity": 0.7874015748031497
        },
        {
          "duration": 0.08333300000001032,
          "durationTicks": 120,
          "midi": 67,
          "name": "G4",
          "ticks": 174480,
          "time": 121.499516,
          "velocity": 0.7874015748031497
        },
        {
          "duration": 0.16666600000000642,
          "durationTicks": 240,
          "midi": 38,
          "name": "D2",
          "ticks": 174480,
          "time": 121.499516,
          "velocity": 0.7874015748031497
        },
        {
          "duration": 0.0833329999999961,
          "durationTicks": 120,
          "midi": 65,
          "name": "F4",
          "ticks": 174600,
          "time": 121.58284900000001,
          "velocity": 0.7874015748031497
        },
        {
          "duration": 0.0833329999999961,
          "durationTicks": 120,
          "midi": 64,
          "name": "E4",
          "ticks": 174720,
          "time": 121.666182,
          "velocity": 0.7874015748031497
        },
        {
          "duration": 0.16666600000000642,
          "durationTicks": 240,
          "midi": 50,
          "name": "D3",
          "ticks": 174720,
          "time": 121.666182,
          "velocity": 0.7874015748031497
        },
        {
          "duration": 0.16666600000000642,
          "durationTicks": 240,
          "midi": 62,
          "name": "D4",
          "ticks": 174840,
          "time": 121.749515,
          "velocity": 0.7874015748031497
        },
        {
          "duration": 0.1666659999999922,
          "durationTicks": 240,
          "midi": 38,
          "name": "D2",
          "ticks": 174960,
          "time": 121.83284800000001,
          "velocity": 0.7874015748031497
        },
        {
          "duration": 0.0833329999999961,
          "durationTicks": 120,
          "midi": 62,
          "name": "D4",
          "ticks": 175080,
          "time": 121.91618100000001,
          "velocity": 0.7874015748031497
        },
        {
          "duration": 0.16666600000000642,
          "durationTicks": 240,
          "midi": 69,
          "name": "A4",
          "ticks": 175200,
          "time": 121.999514,
          "velocity": 0.7874015748031497
        },
        {
          "duration": 0.16666600000000642,
          "durationTicks": 240,
          "midi": 50,
          "name": "D3",
          "ticks": 175200,
          "time": 121.999514,
          "velocity": 0.7874015748031497
        },
        {
          "duration": 0.0833329999999961,
          "durationTicks": 120,
          "midi": 67,
          "name": "G4",
          "ticks": 175440,
          "time": 122.16618000000001,
          "velocity": 0.7874015748031497
        },
        {
          "duration": 0.1666659999999922,
          "durationTicks": 240,
          "midi": 38,
          "name": "D2",
          "ticks": 175440,
          "time": 122.16618000000001,
          "velocity": 0.7874015748031497
        },
        {
          "duration": 0.1666659999999922,
          "durationTicks": 240,
          "midi": 69,
          "name": "A4",
          "ticks": 175560,
          "time": 122.24951300000001,
          "velocity": 0.7874015748031497
        },
        {
          "duration": 0.16666600000000642,
          "durationTicks": 240,
          "midi": 50,
          "name": "D3",
          "ticks": 175680,
          "time": 122.332846,
          "velocity": 0.7874015748031497
        },
        {
          "duration": 0.16666600000000642,
          "durationTicks": 240,
          "midi": 64,
          "name": "E4",
          "ticks": 175800,
          "time": 122.416179,
          "velocity": 0.7874015748031497
        },
        {
          "duration": 0.1666659999999922,
          "durationTicks": 240,
          "midi": 38,
          "name": "D2",
          "ticks": 175920,
          "time": 122.49951200000001,
          "velocity": 0.7874015748031497
        },
        {
          "duration": 0.16666600000000642,
          "durationTicks": 240,
          "midi": 65,
          "name": "F4",
          "ticks": 176040,
          "time": 122.582845,
          "velocity": 0.7874015748031497
        },
        {
          "duration": 0.16666600000000642,
          "durationTicks": 240,
          "midi": 50,
          "name": "D3",
          "ticks": 176160,
          "time": 122.666178,
          "velocity": 0.7874015748031497
        },
        {
          "duration": 0.0833329999999961,
          "durationTicks": 120,
          "midi": 69,
          "name": "A4",
          "ticks": 176280,
          "time": 122.74951100000001,
          "velocity": 0.7874015748031497
        },
        {
          "duration": 0.1666659999999922,
          "durationTicks": 240,
          "midi": 60,
          "name": "C4",
          "ticks": 176400,
          "time": 122.83284400000001,
          "velocity": 0.7874015748031497
        },
        {
          "duration": 0.1666659999999922,
          "durationTicks": 240,
          "midi": 38,
          "name": "D2",
          "ticks": 176400,
          "time": 122.83284400000001,
          "velocity": 0.7874015748031497
        },
        {
          "duration": 0.16666600000000642,
          "durationTicks": 240,
          "midi": 61,
          "name": "C#4",
          "ticks": 176640,
          "time": 122.99951,
          "velocity": 0.7874015748031497
        },
        {
          "duration": 0.16666600000000642,
          "durationTicks": 240,
          "midi": 50,
          "name": "D3",
          "ticks": 176640,
          "time": 122.99951,
          "velocity": 0.7874015748031497
        },
        {
          "duration": 0.1666659999999922,
          "durationTicks": 240,
          "midi": 62,
          "name": "D4",
          "ticks": 176880,
          "time": 123.16617600000001,
          "velocity": 0.7874015748031497
        },
        {
          "duration": 0.1666659999999922,
          "durationTicks": 240,
          "midi": 38,
          "name": "D2",
          "ticks": 176880,
          "time": 123.16617600000001,
          "velocity": 0.7874015748031497
        },
        {
          "duration": 0.16666600000000642,
          "durationTicks": 240,
          "midi": 69,
          "name": "A4",
          "ticks": 177120,
          "time": 123.332842,
          "velocity": 0.7874015748031497
        },
        {
          "duration": 0.16666600000000642,
          "durationTicks": 240,
          "midi": 50,
          "name": "D3",
          "ticks": 177120,
          "time": 123.332842,
          "velocity": 0.7874015748031497
        },
        {
          "duration": 0.0833329999999961,
          "durationTicks": 120,
          "midi": 67,
          "name": "G4",
          "ticks": 177360,
          "time": 123.499508,
          "velocity": 0.7874015748031497
        },
        {
          "duration": 0.16666600000000642,
          "durationTicks": 240,
          "midi": 38,
          "name": "D2",
          "ticks": 177360,
          "time": 123.499508,
          "velocity": 0.7874015748031497
        },
        {
          "duration": 0.16666600000000642,
          "durationTicks": 240,
          "midi": 69,
          "name": "A4",
          "ticks": 177480,
          "time": 123.582841,
          "velocity": 0.7874015748031497
        },
        {
          "duration": 0.1666659999999922,
          "durationTicks": 240,
          "midi": 50,
          "name": "D3",
          "ticks": 177600,
          "time": 123.66617400000001,
          "velocity": 0.7874015748031497
        },
        {
          "duration": 0.1666659999999922,
          "durationTicks": 240,
          "midi": 64,
          "name": "E4",
          "ticks": 177720,
          "time": 123.74950700000001,
          "velocity": 0.7874015748031497
        },
        {
          "duration": 0.16666600000000642,
          "durationTicks": 240,
          "midi": 38,
          "name": "D2",
          "ticks": 177840,
          "time": 123.83284,
          "velocity": 0.7874015748031497
        },
        {
          "duration": 0.16666600000000642,
          "durationTicks": 240,
          "midi": 65,
          "name": "F4",
          "ticks": 177960,
          "time": 123.916173,
          "velocity": 0.7874015748031497
        },
        {
          "duration": 0.1666659999999922,
          "durationTicks": 240,
          "midi": 50,
          "name": "D3",
          "ticks": 178080,
          "time": 123.99950600000001,
          "velocity": 0.7874015748031497
        },
        {
          "duration": 0.0833329999999961,
          "durationTicks": 120,
          "midi": 69,
          "name": "A4",
          "ticks": 178200,
          "time": 124.082839,
          "velocity": 0.7874015748031497
        },
        {
          "duration": 0.08333300000001032,
          "durationTicks": 120,
          "midi": 67,
          "name": "G4",
          "ticks": 178320,
          "time": 124.166172,
          "velocity": 0.7874015748031497
        },
        {
          "duration": 0.16666600000000642,
          "durationTicks": 240,
          "midi": 38,
          "name": "D2",
          "ticks": 178320,
          "time": 124.166172,
          "velocity": 0.7874015748031497
        },
        {
          "duration": 0.0833329999999961,
          "durationTicks": 120,
          "midi": 65,
          "name": "F4",
          "ticks": 178440,
          "time": 124.24950500000001,
          "velocity": 0.7874015748031497
        },
        {
          "duration": 0.0833329999999961,
          "durationTicks": 120,
          "midi": 64,
          "name": "E4",
          "ticks": 178560,
          "time": 124.33283800000001,
          "velocity": 0.7874015748031497
        },
        {
          "duration": 0.1666659999999922,
          "durationTicks": 240,
          "midi": 50,
          "name": "D3",
          "ticks": 178560,
          "time": 124.33283800000001,
          "velocity": 0.7874015748031497
        },
        {
          "duration": 0.16666600000000642,
          "durationTicks": 240,
          "midi": 62,
          "name": "D4",
          "ticks": 178680,
          "time": 124.416171,
          "velocity": 0.7874015748031497
        },
        {
          "duration": 0.16666600000000642,
          "durationTicks": 240,
          "midi": 38,
          "name": "D2",
          "ticks": 178800,
          "time": 124.499504,
          "velocity": 0.7874015748031497
        },
        {
          "duration": 0.0833329999999961,
          "durationTicks": 120,
          "midi": 62,
          "name": "D4",
          "ticks": 178920,
          "time": 124.58283700000001,
          "velocity": 0.7874015748031497
        },
        {
          "duration": 0.1666659999999922,
          "durationTicks": 240,
          "midi": 69,
          "name": "A4",
          "ticks": 179040,
          "time": 124.66617000000001,
          "velocity": 0.7874015748031497
        },
        {
          "duration": 0.1666659999999922,
          "durationTicks": 240,
          "midi": 50,
          "name": "D3",
          "ticks": 179040,
          "time": 124.66617000000001,
          "velocity": 0.7874015748031497
        },
        {
          "duration": 0.08333300000001032,
          "durationTicks": 120,
          "midi": 67,
          "name": "G4",
          "ticks": 179280,
          "time": 124.832836,
          "velocity": 0.7874015748031497
        },
        {
          "duration": 0.16666600000000642,
          "durationTicks": 240,
          "midi": 38,
          "name": "D2",
          "ticks": 179280,
          "time": 124.832836,
          "velocity": 0.7874015748031497
        },
        {
          "duration": 0.1666659999999922,
          "durationTicks": 240,
          "midi": 69,
          "name": "A4",
          "ticks": 179400,
          "time": 124.91616900000001,
          "velocity": 0.7874015748031497
        },
        {
          "duration": 0.16666600000000642,
          "durationTicks": 240,
          "midi": 50,
          "name": "D3",
          "ticks": 179520,
          "time": 124.999502,
          "velocity": 0.7874015748031497
        },
        {
          "duration": 0.16666600000000642,
          "durationTicks": 240,
          "midi": 64,
          "name": "E4",
          "ticks": 179640,
          "time": 125.082835,
          "velocity": 0.7874015748031497
        },
        {
          "duration": 0.1666659999999922,
          "durationTicks": 240,
          "midi": 38,
          "name": "D2",
          "ticks": 179760,
          "time": 125.16616800000001,
          "velocity": 0.7874015748031497
        },
        {
          "duration": 0.1666659999999922,
          "durationTicks": 240,
          "midi": 65,
          "name": "F4",
          "ticks": 179880,
          "time": 125.24950100000001,
          "velocity": 0.7874015748031497
        },
        {
          "duration": 0.16666600000000642,
          "durationTicks": 240,
          "midi": 50,
          "name": "D3",
          "ticks": 180000,
          "time": 125.332834,
          "velocity": 0.7874015748031497
        },
        {
          "duration": 0.08333300000001032,
          "durationTicks": 120,
          "midi": 69,
          "name": "A4",
          "ticks": 180120,
          "time": 125.416167,
          "velocity": 0.7874015748031497
        },
        {
          "duration": 0.1666659999999922,
          "durationTicks": 240,
          "midi": 60,
          "name": "C4",
          "ticks": 180240,
          "time": 125.49950000000001,
          "velocity": 0.7874015748031497
        },
        {
          "duration": 0.1666659999999922,
          "durationTicks": 240,
          "midi": 38,
          "name": "D2",
          "ticks": 180240,
          "time": 125.49950000000001,
          "velocity": 0.7874015748031497
        },
        {
          "duration": 0.16666600000000642,
          "durationTicks": 240,
          "midi": 61,
          "name": "C#4",
          "ticks": 180480,
          "time": 125.666166,
          "velocity": 0.7874015748031497
        },
        {
          "duration": 0.16666600000000642,
          "durationTicks": 240,
          "midi": 50,
          "name": "D3",
          "ticks": 180480,
          "time": 125.666166,
          "velocity": 0.7874015748031497
        },
        {
          "duration": 0.1666659999999922,
          "durationTicks": 240,
          "midi": 62,
          "name": "D4",
          "ticks": 180720,
          "time": 125.83283200000001,
          "velocity": 0.7874015748031497
        },
        {
          "duration": 0.1666659999999922,
          "durationTicks": 240,
          "midi": 38,
          "name": "D2",
          "ticks": 180720,
          "time": 125.83283200000001,
          "velocity": 0.7874015748031497
        },
        {
          "duration": 0.16666600000000642,
          "durationTicks": 240,
          "midi": 69,
          "name": "A4",
          "ticks": 180960,
          "time": 125.999498,
          "velocity": 0.7874015748031497
        },
        {
          "duration": 0.16666600000000642,
          "durationTicks": 240,
          "midi": 50,
          "name": "D3",
          "ticks": 180960,
          "time": 125.999498,
          "velocity": 0.7874015748031497
        },
        {
          "duration": 0.0833329999999961,
          "durationTicks": 120,
          "midi": 67,
          "name": "G4",
          "ticks": 181200,
          "time": 126.16616400000001,
          "velocity": 0.7874015748031497
        },
        {
          "duration": 0.1666659999999922,
          "durationTicks": 240,
          "midi": 38,
          "name": "D2",
          "ticks": 181200,
          "time": 126.16616400000001,
          "velocity": 0.7874015748031497
        },
        {
          "duration": 0.16666600000000642,
          "durationTicks": 240,
          "midi": 69,
          "name": "A4",
          "ticks": 181320,
          "time": 126.249497,
          "velocity": 0.7874015748031497
        },
        {
          "duration": 0.16666600000000642,
          "durationTicks": 240,
          "midi": 50,
          "name": "D3",
          "ticks": 181440,
          "time": 126.33283,
          "velocity": 0.7874015748031497
        },
        {
          "duration": 0.1666659999999922,
          "durationTicks": 240,
          "midi": 64,
          "name": "E4",
          "ticks": 181560,
          "time": 126.41616300000001,
          "velocity": 0.7874015748031497
        },
        {
          "duration": 0.1666659999999922,
          "durationTicks": 240,
          "midi": 40,
          "name": "E2",
          "ticks": 181680,
          "time": 126.49949600000001,
          "velocity": 0.7874015748031497
        },
        {
          "duration": 0.16666600000000642,
          "durationTicks": 240,
          "midi": 65,
          "name": "F4",
          "ticks": 181800,
          "time": 126.582829,
          "velocity": 0.7874015748031497
        },
        {
          "duration": 0.16666600000000642,
          "durationTicks": 240,
          "midi": 52,
          "name": "E3",
          "ticks": 181920,
          "time": 126.666162,
          "velocity": 0.7874015748031497
        },
        {
          "duration": 0.0833329999999961,
          "durationTicks": 120,
          "midi": 69,
          "name": "A4",
          "ticks": 182040,
          "time": 126.74949500000001,
          "velocity": 0.7874015748031497
        },
        {
          "duration": 0.0833329999999961,
          "durationTicks": 120,
          "midi": 67,
          "name": "G4",
          "ticks": 182160,
          "time": 126.832828,
          "velocity": 0.7874015748031497
        },
        {
          "duration": 0.16666600000000642,
          "durationTicks": 240,
          "midi": 40,
          "name": "E2",
          "ticks": 182160,
          "time": 126.832828,
          "velocity": 0.7874015748031497
        },
        {
          "duration": 0.08333300000001032,
          "durationTicks": 120,
          "midi": 65,
          "name": "F4",
          "ticks": 182280,
          "time": 126.916161,
          "velocity": 0.7874015748031497
        },
        {
          "duration": 0.0833329999999961,
          "durationTicks": 120,
          "midi": 64,
          "name": "E4",
          "ticks": 182400,
          "time": 126.99949400000001,
          "velocity": 0.7874015748031497
        },
        {
          "duration": 0.1666659999999922,
          "durationTicks": 240,
          "midi": 52,
          "name": "E3",
          "ticks": 182400,
          "time": 126.99949400000001,
          "velocity": 0.7874015748031497
        },
        {
          "duration": 0.1666659999999922,
          "durationTicks": 240,
          "midi": 62,
          "name": "D4",
          "ticks": 182520,
          "time": 127.08282700000001,
          "velocity": 0.7874015748031497
        },
        {
          "duration": 0.16666600000000642,
          "durationTicks": 240,
          "midi": 41,
          "name": "F2",
          "ticks": 182640,
          "time": 127.16616,
          "velocity": 0.7874015748031497
        },
        {
          "duration": 0.08333300000001032,
          "durationTicks": 120,
          "midi": 62,
          "name": "D4",
          "ticks": 182760,
          "time": 127.249493,
          "velocity": 0.7874015748031497
        },
        {
          "duration": 0.1666659999999922,
          "durationTicks": 240,
          "midi": 69,
          "name": "A4",
          "ticks": 182880,
          "time": 127.33282600000001,
          "velocity": 0.7874015748031497
        },
        {
          "duration": 0.1666659999999922,
          "durationTicks": 240,
          "midi": 53,
          "name": "F3",
          "ticks": 182880,
          "time": 127.33282600000001,
          "velocity": 0.7874015748031497
        },
        {
          "duration": 0.0833329999999961,
          "durationTicks": 120,
          "midi": 67,
          "name": "G4",
          "ticks": 183120,
          "time": 127.499492,
          "velocity": 0.7874015748031497
        },
        {
          "duration": 0.16666600000000642,
          "durationTicks": 240,
          "midi": 43,
          "name": "G2",
          "ticks": 183120,
          "time": 127.499492,
          "velocity": 0.7874015748031497
        },
        {
          "duration": 0.16666600000000642,
          "durationTicks": 240,
          "midi": 69,
          "name": "A4",
          "ticks": 183240,
          "time": 127.582825,
          "velocity": 0.7874015748031497
        },
        {
          "duration": 0.1666659999999922,
          "durationTicks": 240,
          "midi": 55,
          "name": "G3",
          "ticks": 183360,
          "time": 127.66615800000001,
          "velocity": 0.7874015748031497
        },
        {
          "duration": 0.16666600000000642,
          "durationTicks": 240,
          "midi": 72,
          "name": "C5",
          "ticks": 183480,
          "time": 127.749491,
          "velocity": 0.7874015748031497
        },
        {
          "duration": 0.16666600000000642,
          "durationTicks": 240,
          "midi": 45,
          "name": "A2",
          "ticks": 183600,
          "time": 127.832824,
          "velocity": 0.7874015748031497
        },
        {
          "duration": 0.16666600000000642,
          "durationTicks": 240,
          "midi": 74,
          "name": "D5",
          "ticks": 183720,
          "time": 127.91615700000001,
          "velocity": 0.7874015748031497
        },
        {
          "duration": 0.1666659999999922,
          "durationTicks": 240,
          "midi": 57,
          "name": "A3",
          "ticks": 183840,
          "time": 127.99949000000001,
          "velocity": 0.7874015748031497
        },
        {
          "duration": 0.0833329999999819,
          "durationTicks": 120,
          "midi": 77,
          "name": "F5",
          "ticks": 183960,
          "time": 128.08282300000002,
          "velocity": 0.7874015748031497
        },
        {
          "duration": 0.08333300000001032,
          "durationTicks": 120,
          "midi": 76,
          "name": "E5",
          "ticks": 184080,
          "time": 128.166156,
          "velocity": 0.7874015748031497
        },
        {
          "duration": 0.16666600000002063,
          "durationTicks": 240,
          "midi": 48,
          "name": "C3",
          "ticks": 184080,
          "time": 128.166156,
          "velocity": 0.7874015748031497
        },
        {
          "duration": 0.08333300000001032,
          "durationTicks": 120,
          "midi": 74,
          "name": "D5",
          "ticks": 184200,
          "time": 128.249489,
          "velocity": 0.7874015748031497
        },
        {
          "duration": 0.1666659999999922,
          "durationTicks": 240,
          "midi": 72,
          "name": "C5",
          "ticks": 184320,
          "time": 128.33282200000002,
          "velocity": 0.7874015748031497
        },
        {
          "duration": 0.1666659999999922,
          "durationTicks": 240,
          "midi": 60,
          "name": "C4",
          "ticks": 184320,
          "time": 128.33282200000002,
          "velocity": 0.7874015748031497
        },
        {
          "duration": 0.1666659999999922,
          "durationTicks": 240,
          "midi": 57,
          "name": "A3",
          "ticks": 184560,
          "time": 128.499488,
          "velocity": 0.7874015748031497
        },
        {
          "duration": 0.1666659999999922,
          "durationTicks": 240,
          "midi": 34,
          "name": "A#1",
          "ticks": 184560,
          "time": 128.499488,
          "velocity": 0.7874015748031497
        },
        {
          "duration": 0.1666659999999922,
          "durationTicks": 240,
          "midi": 65,
          "name": "F4",
          "ticks": 184800,
          "time": 128.666154,
          "velocity": 0.7874015748031497
        },
        {
          "duration": 0.1666659999999922,
          "durationTicks": 240,
          "midi": 46,
          "name": "A#2",
          "ticks": 184800,
          "time": 128.666154,
          "velocity": 0.7874015748031497
        },
        {
          "duration": 0.08333300000001032,
          "durationTicks": 120,
          "midi": 64,
          "name": "E4",
          "ticks": 185040,
          "time": 128.83282,
          "velocity": 0.7874015748031497
        },
        {
          "duration": 0.16666600000002063,
          "durationTicks": 240,
          "midi": 34,
          "name": "A#1",
          "ticks": 185040,
          "time": 128.83282,
          "velocity": 0.7874015748031497
        },
        {
          "duration": 0.08333300000001032,
          "durationTicks": 120,
          "midi": 65,
          "name": "F4",
          "ticks": 185160,
          "time": 128.916153,
          "velocity": 0.7874015748031497
        },
        {
          "duration": 0.1666659999999922,
          "durationTicks": 240,
          "midi": 64,
          "name": "E4",
          "ticks": 185280,
          "time": 128.99948600000002,
          "velocity": 0.7874015748031497
        },
        {
          "duration": 0.1666659999999922,
          "durationTicks": 240,
          "midi": 46,
          "name": "A#2",
          "ticks": 185280,
          "time": 128.99948600000002,
          "velocity": 0.7874015748031497
        },
        {
          "duration": 0.1666659999999922,
          "durationTicks": 240,
          "midi": 67,
          "name": "G4",
          "ticks": 185520,
          "time": 129.166152,
          "velocity": 0.7874015748031497
        },
        {
          "duration": 0.1666659999999922,
          "durationTicks": 240,
          "midi": 36,
          "name": "C2",
          "ticks": 185520,
          "time": 129.166152,
          "velocity": 0.7874015748031497
        },
        {
          "duration": 0.1666659999999922,
          "durationTicks": 240,
          "midi": 65,
          "name": "F4",
          "ticks": 185760,
          "time": 129.332818,
          "velocity": 0.7874015748031497
        },
        {
          "duration": 0.1666659999999922,
          "durationTicks": 240,
          "midi": 48,
          "name": "C3",
          "ticks": 185760,
          "time": 129.332818,
          "velocity": 0.7874015748031497
        },
        {
          "duration": 0.08333300000001032,
          "durationTicks": 120,
          "midi": 64,
          "name": "E4",
          "ticks": 186000,
          "time": 129.499484,
          "velocity": 0.7874015748031497
        },
        {
          "duration": 0.16666600000002063,
          "durationTicks": 240,
          "midi": 36,
          "name": "C2",
          "ticks": 186000,
          "time": 129.499484,
          "velocity": 0.7874015748031497
        },
        {
          "duration": 0.08333300000001032,
          "durationTicks": 120,
          "midi": 65,
          "name": "F4",
          "ticks": 186120,
          "time": 129.582817,
          "velocity": 0.7874015748031497
        },
        {
          "duration": 0.0833329999999819,
          "durationTicks": 120,
          "midi": 64,
          "name": "E4",
          "ticks": 186240,
          "time": 129.66615000000002,
          "velocity": 0.7874015748031497
        },
        {
          "duration": 0.1666659999999922,
          "durationTicks": 240,
          "midi": 48,
          "name": "C3",
          "ticks": 186240,
          "time": 129.66615000000002,
          "velocity": 0.7874015748031497
        },
        {
          "duration": 0.08333300000001032,
          "durationTicks": 120,
          "midi": 60,
          "name": "C4",
          "ticks": 186360,
          "time": 129.749483,
          "velocity": 0.7874015748031497
        },
        {
          "duration": 0.1666659999999922,
          "durationTicks": 240,
          "midi": 62,
          "name": "D4",
          "ticks": 186480,
          "time": 129.832816,
          "velocity": 0.7874015748031497
        },
        {
          "duration": 0.1666659999999922,
          "durationTicks": 240,
          "midi": 38,
          "name": "D2",
          "ticks": 186480,
          "time": 129.832816,
          "velocity": 0.7874015748031497
        },
        {
          "duration": 0.1666659999999922,
          "durationTicks": 240,
          "midi": 69,
          "name": "A4",
          "ticks": 186720,
          "time": 129.999482,
          "velocity": 0.7874015748031497
        },
        {
          "duration": 0.1666659999999922,
          "durationTicks": 240,
          "midi": 50,
          "name": "D3",
          "ticks": 186720,
          "time": 129.999482,
          "velocity": 0.7874015748031497
        },
        {
          "duration": 0.08333300000001032,
          "durationTicks": 120,
          "midi": 67,
          "name": "G4",
          "ticks": 186960,
          "time": 130.166148,
          "velocity": 0.7874015748031497
        },
        {
          "duration": 0.16666600000002063,
          "durationTicks": 240,
          "midi": 38,
          "name": "D2",
          "ticks": 186960,
          "time": 130.166148,
          "velocity": 0.7874015748031497
        },
        {
          "duration": 0.08333300000001032,
          "durationTicks": 120,
          "midi": 69,
          "name": "A4",
          "ticks": 187080,
          "time": 130.249481,
          "velocity": 0.7874015748031497
        },
        {
          "duration": 0.0833329999999819,
          "durationTicks": 120,
          "midi": 67,
          "name": "G4",
          "ticks": 187200,
          "time": 130.332814,
          "velocity": 0.7874015748031497
        },
        {
          "duration": 0.1666659999999922,
          "durationTicks": 240,
          "midi": 50,
          "name": "D3",
          "ticks": 187200,
          "time": 130.332814,
          "velocity": 0.7874015748031497
        },
        {
          "duration": 0.08333300000001032,
          "durationTicks": 120,
          "midi": 69,
          "name": "A4",
          "ticks": 187320,
          "time": 130.416147,
          "velocity": 0.7874015748031497
        },
        {
          "duration": 0.1666659999999922,
          "durationTicks": 240,
          "midi": 72,
          "name": "C5",
          "ticks": 187440,
          "time": 130.49948,
          "velocity": 0.7874015748031497
        },
        {
          "duration": 0.1666659999999922,
          "durationTicks": 240,
          "midi": 38,
          "name": "D2",
          "ticks": 187440,
          "time": 130.49948,
          "velocity": 0.7874015748031497
        },
        {
          "duration": 0.16666600000002063,
          "durationTicks": 240,
          "midi": 69,
          "name": "A4",
          "ticks": 187680,
          "time": 130.666146,
          "velocity": 0.7874015748031497
        },
        {
          "duration": 0.16666600000002063,
          "durationTicks": 240,
          "midi": 50,
          "name": "D3",
          "ticks": 187680,
          "time": 130.666146,
          "velocity": 0.7874015748031497
        },
        {
          "duration": 0.1666659999999922,
          "durationTicks": 240,
          "midi": 67,
          "name": "G4",
          "ticks": 187920,
          "time": 130.83281200000002,
          "velocity": 0.7874015748031497
        },
        {
          "duration": 0.1666659999999922,
          "durationTicks": 240,
          "midi": 36,
          "name": "C2",
          "ticks": 187920,
          "time": 130.83281200000002,
          "velocity": 0.7874015748031497
        },
        {
          "duration": 0.1666659999999922,
          "durationTicks": 240,
          "midi": 69,
          "name": "A4",
          "ticks": 188160,
          "time": 130.999478,
          "velocity": 0.7874015748031497
        },
        {
          "duration": 0.1666659999999922,
          "durationTicks": 240,
          "midi": 48,
          "name": "C3",
          "ticks": 188160,
          "time": 130.999478,
          "velocity": 0.7874015748031497
        },
        {
          "duration": 0.1666659999999922,
          "durationTicks": 240,
          "midi": 57,
          "name": "A3",
          "ticks": 188400,
          "time": 131.166144,
          "velocity": 0.7874015748031497
        },
        {
          "duration": 0.1666659999999922,
          "durationTicks": 240,
          "midi": 34,
          "name": "A#1",
          "ticks": 188400,
          "time": 131.166144,
          "velocity": 0.7874015748031497
        },
        {
          "duration": 0.16666600000002063,
          "durationTicks": 240,
          "midi": 65,
          "name": "F4",
          "ticks": 188640,
          "time": 131.33281,
          "velocity": 0.7874015748031497
        },
        {
          "duration": 0.16666600000002063,
          "durationTicks": 240,
          "midi": 46,
          "name": "A#2",
          "ticks": 188640,
          "time": 131.33281,
          "velocity": 0.7874015748031497
        },
        {
          "duration": 0.0833329999999819,
          "durationTicks": 120,
          "midi": 64,
          "name": "E4",
          "ticks": 188880,
          "time": 131.49947600000002,
          "velocity": 0.7874015748031497
        },
        {
          "duration": 0.1666659999999922,
          "durationTicks": 240,
          "midi": 34,
          "name": "A#1",
          "ticks": 188880,
          "time": 131.49947600000002,
          "velocity": 0.7874015748031497
        },
        {
          "duration": 0.08333300000001032,
          "durationTicks": 120,
          "midi": 65,
          "name": "F4",
          "ticks": 189000,
          "time": 131.582809,
          "velocity": 0.7874015748031497
        },
        {
          "duration": 0.1666659999999922,
          "durationTicks": 240,
          "midi": 64,
          "name": "E4",
          "ticks": 189120,
          "time": 131.666142,
          "velocity": 0.7874015748031497
        },
        {
          "duration": 0.1666659999999922,
          "durationTicks": 240,
          "midi": 46,
          "name": "A#2",
          "ticks": 189120,
          "time": 131.666142,
          "velocity": 0.7874015748031497
        },
        {
          "duration": 0.16666600000002063,
          "durationTicks": 240,
          "midi": 67,
          "name": "G4",
          "ticks": 189360,
          "time": 131.832808,
          "velocity": 0.7874015748031497
        },
        {
          "duration": 0.16666600000002063,
          "durationTicks": 240,
          "midi": 36,
          "name": "C2",
          "ticks": 189360,
          "time": 131.832808,
          "velocity": 0.7874015748031497
        },
        {
          "duration": 0.1666659999999922,
          "durationTicks": 240,
          "midi": 65,
          "name": "F4",
          "ticks": 189600,
          "time": 131.99947400000002,
          "velocity": 0.7874015748031497
        },
        {
          "duration": 0.1666659999999922,
          "durationTicks": 240,
          "midi": 48,
          "name": "C3",
          "ticks": 189600,
          "time": 131.99947400000002,
          "velocity": 0.7874015748031497
        },
        {
          "duration": 0.0833329999999819,
          "durationTicks": 120,
          "midi": 64,
          "name": "E4",
          "ticks": 189840,
          "time": 132.16614,
          "velocity": 0.7874015748031497
        },
        {
          "duration": 0.1666659999999922,
          "durationTicks": 240,
          "midi": 36,
          "name": "C2",
          "ticks": 189840,
          "time": 132.16614,
          "velocity": 0.7874015748031497
        },
        {
          "duration": 0.08333300000001032,
          "durationTicks": 120,
          "midi": 65,
          "name": "F4",
          "ticks": 189960,
          "time": 132.249473,
          "velocity": 0.7874015748031497
        },
        {
          "duration": 0.08333300000001032,
          "durationTicks": 120,
          "midi": 64,
          "name": "E4",
          "ticks": 190080,
          "time": 132.332806,
          "velocity": 0.7874015748031497
        },
        {
          "duration": 0.1666659999999922,
          "durationTicks": 240,
          "midi": 48,
          "name": "C3",
          "ticks": 190080,
          "time": 132.332806,
          "velocity": 0.7874015748031497
        },
        {
          "duration": 0.0833329999999819,
          "durationTicks": 120,
          "midi": 60,
          "name": "C4",
          "ticks": 190200,
          "time": 132.41613900000002,
          "velocity": 0.7874015748031497
        },
        {
          "duration": 0.16666600000002063,
          "durationTicks": 240,
          "midi": 62,
          "name": "D4",
          "ticks": 190320,
          "time": 132.499472,
          "velocity": 0.7874015748031497
        },
        {
          "duration": 0.16666600000002063,
          "durationTicks": 240,
          "midi": 38,
          "name": "D2",
          "ticks": 190320,
          "time": 132.499472,
          "velocity": 0.7874015748031497
        },
        {
          "duration": 0.1666659999999922,
          "durationTicks": 240,
          "midi": 69,
          "name": "A4",
          "ticks": 190560,
          "time": 132.66613800000002,
          "velocity": 0.7874015748031497
        },
        {
          "duration": 0.1666659999999922,
          "durationTicks": 240,
          "midi": 50,
          "name": "D3",
          "ticks": 190560,
          "time": 132.66613800000002,
          "velocity": 0.7874015748031497
        },
        {
          "duration": 0.08333300000001032,
          "durationTicks": 120,
          "midi": 67,
          "name": "G4",
          "ticks": 190800,
          "time": 132.832804,
          "velocity": 0.7874015748031497
        },
        {
          "duration": 0.1666659999999922,
          "durationTicks": 240,
          "midi": 40,
          "name": "E2",
          "ticks": 190800,
          "time": 132.832804,
          "velocity": 0.7874015748031497
        },
        {
          "duration": 0.0833329999999819,
          "durationTicks": 120,
          "midi": 69,
          "name": "A4",
          "ticks": 190920,
          "time": 132.91613700000002,
          "velocity": 0.7874015748031497
        },
        {
          "duration": 0.08333300000001032,
          "durationTicks": 120,
          "midi": 67,
          "name": "G4",
          "ticks": 191040,
          "time": 132.99947,
          "velocity": 0.7874015748031497
        },
        {
          "duration": 0.1666659999999922,
          "durationTicks": 240,
          "midi": 52,
          "name": "E3",
          "ticks": 191040,
          "time": 132.99947,
          "velocity": 0.7874015748031497
        },
        {
          "duration": 0.0833329999999819,
          "durationTicks": 120,
          "midi": 69,
          "name": "A4",
          "ticks": 191160,
          "time": 133.082803,
          "velocity": 0.7874015748031497
        },
        {
          "duration": 0.16666600000002063,
          "durationTicks": 240,
          "midi": 73,
          "name": "C#5",
          "ticks": 191280,
          "time": 133.166136,
          "velocity": 0.7874015748031497
        },
        {
          "duration": 0.16666600000002063,
          "durationTicks": 240,
          "midi": 41,
          "name": "F2",
          "ticks": 191280,
          "time": 133.166136,
          "velocity": 0.7874015748031497
        },
        {
          "duration": 0.1666659999999922,
          "durationTicks": 240,
          "midi": 69,
          "name": "A4",
          "ticks": 191520,
          "time": 133.33280200000002,
          "velocity": 0.7874015748031497
        },
        {
          "duration": 0.1666659999999922,
          "durationTicks": 240,
          "midi": 53,
          "name": "F3",
          "ticks": 191520,
          "time": 133.33280200000002,
          "velocity": 0.7874015748031497
        },
        {
          "duration": 0.1666659999999922,
          "durationTicks": 240,
          "midi": 67,
          "name": "G4",
          "ticks": 191760,
          "time": 133.499468,
          "velocity": 0.7874015748031497
        },
        {
          "duration": 0.1666659999999922,
          "durationTicks": 240,
          "midi": 43,
          "name": "G2",
          "ticks": 191760,
          "time": 133.499468,
          "velocity": 0.7874015748031497
        },
        {
          "duration": 0.16666600000002063,
          "durationTicks": 240,
          "midi": 69,
          "name": "A4",
          "ticks": 192000,
          "time": 133.666134,
          "velocity": 0.7874015748031497
        },
        {
          "duration": 0.16666600000002063,
          "durationTicks": 240,
          "midi": 55,
          "name": "G3",
          "ticks": 192000,
          "time": 133.666134,
          "velocity": 0.7874015748031497
        },
        {
          "duration": 0.1666659999999922,
          "durationTicks": 240,
          "midi": 57,
          "name": "A3",
          "ticks": 192240,
          "time": 133.83280000000002,
          "velocity": 0.7874015748031497
        },
        {
          "duration": 0.1666659999999922,
          "durationTicks": 240,
          "midi": 34,
          "name": "A#1",
          "ticks": 192240,
          "time": 133.83280000000002,
          "velocity": 0.7874015748031497
        },
        {
          "duration": 0.1666659999999922,
          "durationTicks": 240,
          "midi": 65,
          "name": "F4",
          "ticks": 192480,
          "time": 133.999466,
          "velocity": 0.7874015748031497
        },
        {
          "duration": 0.1666659999999922,
          "durationTicks": 240,
          "midi": 46,
          "name": "A#2",
          "ticks": 192480,
          "time": 133.999466,
          "velocity": 0.7874015748031497
        },
        {
          "duration": 0.08333300000001032,
          "durationTicks": 120,
          "midi": 64,
          "name": "E4",
          "ticks": 192720,
          "time": 134.166132,
          "velocity": 0.7874015748031497
        },
        {
          "duration": 0.1666659999999922,
          "durationTicks": 240,
          "midi": 34,
          "name": "A#1",
          "ticks": 192720,
          "time": 134.166132,
          "velocity": 0.7874015748031497
        },
        {
          "duration": 0.0833329999999819,
          "durationTicks": 120,
          "midi": 65,
          "name": "F4",
          "ticks": 192840,
          "time": 134.24946500000001,
          "velocity": 0.7874015748031497
        },
        {
          "duration": 0.16666600000002063,
          "durationTicks": 240,
          "midi": 64,
          "name": "E4",
          "ticks": 192960,
          "time": 134.332798,
          "velocity": 0.7874015748031497
        },
        {
          "duration": 0.16666600000002063,
          "durationTicks": 240,
          "midi": 46,
          "name": "A#2",
          "ticks": 192960,
          "time": 134.332798,
          "velocity": 0.7874015748031497
        },
        {
          "duration": 0.1666659999999922,
          "durationTicks": 240,
          "midi": 67,
          "name": "G4",
          "ticks": 193200,
          "time": 134.49946400000002,
          "velocity": 0.7874015748031497
        },
        {
          "duration": 0.1666659999999922,
          "durationTicks": 240,
          "midi": 36,
          "name": "C2",
          "ticks": 193200,
          "time": 134.49946400000002,
          "velocity": 0.7874015748031497
        },
        {
          "duration": 0.1666659999999922,
          "durationTicks": 240,
          "midi": 65,
          "name": "F4",
          "ticks": 193440,
          "time": 134.66613,
          "velocity": 0.7874015748031497
        },
        {
          "duration": 0.1666659999999922,
          "durationTicks": 240,
          "midi": 48,
          "name": "C3",
          "ticks": 193440,
          "time": 134.66613,
          "velocity": 0.7874015748031497
        },
        {
          "duration": 0.08333300000001032,
          "durationTicks": 120,
          "midi": 64,
          "name": "E4",
          "ticks": 193680,
          "time": 134.832796,
          "velocity": 0.7874015748031497
        },
        {
          "duration": 0.1666659999999922,
          "durationTicks": 240,
          "midi": 36,
          "name": "C2",
          "ticks": 193680,
          "time": 134.832796,
          "velocity": 0.7874015748031497
        },
        {
          "duration": 0.0833329999999819,
          "durationTicks": 120,
          "midi": 65,
          "name": "F4",
          "ticks": 193800,
          "time": 134.916129,
          "velocity": 0.7874015748031497
        },
        {
          "duration": 0.08333300000001032,
          "durationTicks": 120,
          "midi": 64,
          "name": "E4",
          "ticks": 193920,
          "time": 134.999462,
          "velocity": 0.7874015748031497
        },
        {
          "duration": 0.16666600000002063,
          "durationTicks": 240,
          "midi": 48,
          "name": "C3",
          "ticks": 193920,
          "time": 134.999462,
          "velocity": 0.7874015748031497
        },
        {
          "duration": 0.08333300000001032,
          "durationTicks": 120,
          "midi": 60,
          "name": "C4",
          "ticks": 194040,
          "time": 135.082795,
          "velocity": 0.7874015748031497
        },
        {
          "duration": 0.1666659999999922,
          "durationTicks": 240,
          "midi": 62,
          "name": "D4",
          "ticks": 194160,
          "time": 135.16612800000001,
          "velocity": 0.7874015748031497
        },
        {
          "duration": 0.1666659999999922,
          "durationTicks": 240,
          "midi": 38,
          "name": "D2",
          "ticks": 194160,
          "time": 135.16612800000001,
          "velocity": 0.7874015748031497
        },
        {
          "duration": 0.1666659999999922,
          "durationTicks": 240,
          "midi": 69,
          "name": "A4",
          "ticks": 194400,
          "time": 135.332794,
          "velocity": 0.7874015748031497
        },
        {
          "duration": 0.1666659999999922,
          "durationTicks": 240,
          "midi": 50,
          "name": "D3",
          "ticks": 194400,
          "time": 135.332794,
          "velocity": 0.7874015748031497
        },
        {
          "duration": 0.08333300000001032,
          "durationTicks": 120,
          "midi": 67,
          "name": "G4",
          "ticks": 194640,
          "time": 135.49946,
          "velocity": 0.7874015748031497
        },
        {
          "duration": 0.16666600000002063,
          "durationTicks": 240,
          "midi": 38,
          "name": "D2",
          "ticks": 194640,
          "time": 135.49946,
          "velocity": 0.7874015748031497
        },
        {
          "duration": 0.08333300000001032,
          "durationTicks": 120,
          "midi": 69,
          "name": "A4",
          "ticks": 194760,
          "time": 135.582793,
          "velocity": 0.7874015748031497
        },
        {
          "duration": 0.0833329999999819,
          "durationTicks": 120,
          "midi": 67,
          "name": "G4",
          "ticks": 194880,
          "time": 135.66612600000002,
          "velocity": 0.7874015748031497
        },
        {
          "duration": 0.1666659999999922,
          "durationTicks": 240,
          "midi": 50,
          "name": "D3",
          "ticks": 194880,
          "time": 135.66612600000002,
          "velocity": 0.7874015748031497
        },
        {
          "duration": 0.08333300000001032,
          "durationTicks": 120,
          "midi": 69,
          "name": "A4",
          "ticks": 195000,
          "time": 135.749459,
          "velocity": 0.7874015748031497
        },
        {
          "duration": 0.1666659999999922,
          "durationTicks": 240,
          "midi": 72,
          "name": "C5",
          "ticks": 195120,
          "time": 135.832792,
          "velocity": 0.7874015748031497
        },
        {
          "duration": 0.1666659999999922,
          "durationTicks": 240,
          "midi": 38,
          "name": "D2",
          "ticks": 195120,
          "time": 135.832792,
          "velocity": 0.7874015748031497
        },
        {
          "duration": 0.1666659999999922,
          "durationTicks": 240,
          "midi": 69,
          "name": "A4",
          "ticks": 195360,
          "time": 135.999458,
          "velocity": 0.7874015748031497
        },
        {
          "duration": 0.1666659999999922,
          "durationTicks": 240,
          "midi": 50,
          "name": "D3",
          "ticks": 195360,
          "time": 135.999458,
          "velocity": 0.7874015748031497
        },
        {
          "duration": 0.16666600000002063,
          "durationTicks": 240,
          "midi": 65,
          "name": "F4",
          "ticks": 195600,
          "time": 136.166124,
          "velocity": 0.7874015748031497
        },
        {
          "duration": 0.16666600000002063,
          "durationTicks": 240,
          "midi": 36,
          "name": "C2",
          "ticks": 195600,
          "time": 136.166124,
          "velocity": 0.7874015748031497
        },
        {
          "duration": 0.1666659999999922,
          "durationTicks": 240,
          "midi": 66,
          "name": "F#4",
          "ticks": 195840,
          "time": 136.33279000000002,
          "velocity": 0.7874015748031497
        },
        {
          "duration": 0.1666659999999922,
          "durationTicks": 240,
          "midi": 48,
          "name": "C3",
          "ticks": 195840,
          "time": 136.33279000000002,
          "velocity": 0.7874015748031497
        },
        {
          "duration": 0.1666659999999922,
          "durationTicks": 240,
          "midi": 67,
          "name": "G4",
          "ticks": 196080,
          "time": 136.499456,
          "velocity": 0.7874015748031497
        },
        {
          "duration": 0.1666659999999922,
          "durationTicks": 240,
          "midi": 31,
          "name": "G1",
          "ticks": 196080,
          "time": 136.499456,
          "velocity": 0.7874015748031497
        },
        {
          "duration": 0.08333300000001032,
          "durationTicks": 120,
          "midi": 58,
          "name": "A#3",
          "ticks": 196320,
          "time": 136.666122,
          "velocity": 0.7874015748031497
        },
        {
          "duration": 0.1666659999999922,
          "durationTicks": 240,
          "midi": 43,
          "name": "G2",
          "ticks": 196320,
          "time": 136.666122,
          "velocity": 0.7874015748031497
        },
        {
          "duration": 0.0833329999999819,
          "durationTicks": 120,
          "midi": 67,
          "name": "G4",
          "ticks": 196440,
          "time": 136.749455,
          "velocity": 0.7874015748031497
        },
        {
          "duration": 0.16666600000002063,
          "durationTicks": 240,
          "midi": 58,
          "name": "A#3",
          "ticks": 196560,
          "time": 136.832788,
          "velocity": 0.7874015748031497
        },
        {
          "duration": 0.16666600000002063,
          "durationTicks": 240,
          "midi": 31,
          "name": "G1",
          "ticks": 196560,
          "time": 136.832788,
          "velocity": 0.7874015748031497
        },
        {
          "duration": 0.1666659999999922,
          "durationTicks": 240,
          "midi": 67,
          "name": "G4",
          "ticks": 196800,
          "time": 136.99945400000001,
          "velocity": 0.7874015748031497
        },
        {
          "duration": 0.1666659999999922,
          "durationTicks": 240,
          "midi": 43,
          "name": "G2",
          "ticks": 196800,
          "time": 136.99945400000001,
          "velocity": 0.7874015748031497
        },
        {
          "duration": 0.1666659999999922,
          "durationTicks": 240,
          "midi": 69,
          "name": "A4",
          "ticks": 197040,
          "time": 137.16612,
          "velocity": 0.7874015748031497
        },
        {
          "duration": 0.1666659999999922,
          "durationTicks": 240,
          "midi": 33,
          "name": "A1",
          "ticks": 197040,
          "time": 137.16612,
          "velocity": 0.7874015748031497
        },
        {
          "duration": 0.08333300000001032,
          "durationTicks": 120,
          "midi": 60,
          "name": "C4",
          "ticks": 197280,
          "time": 137.332786,
          "velocity": 0.7874015748031497
        },
        {
          "duration": 0.16666600000002063,
          "durationTicks": 240,
          "midi": 45,
          "name": "A2",
          "ticks": 197280,
          "time": 137.332786,
          "velocity": 0.7874015748031497
        },
        {
          "duration": 0.08333300000001032,
          "durationTicks": 120,
          "midi": 69,
          "name": "A4",
          "ticks": 197400,
          "time": 137.416119,
          "velocity": 0.7874015748031497
        },
        {
          "duration": 0.1666659999999922,
          "durationTicks": 240,
          "midi": 60,
          "name": "C4",
          "ticks": 197520,
          "time": 137.49945200000002,
          "velocity": 0.7874015748031497
        },
        {
          "duration": 0.1666659999999922,
          "durationTicks": 240,
          "midi": 33,
          "name": "A1",
          "ticks": 197520,
          "time": 137.49945200000002,
          "velocity": 0.7874015748031497
        },
        {
          "duration": 0.1666659999999922,
          "durationTicks": 240,
          "midi": 69,
          "name": "A4",
          "ticks": 197760,
          "time": 137.666118,
          "velocity": 0.7874015748031497
        },
        {
          "duration": 0.1666659999999922,
          "durationTicks": 240,
          "midi": 45,
          "name": "A2",
          "ticks": 197760,
          "time": 137.666118,
          "velocity": 0.7874015748031497
        },
        {
          "duration": 0.1666659999999922,
          "durationTicks": 240,
          "midi": 70,
          "name": "A#4",
          "ticks": 198000,
          "time": 137.832784,
          "velocity": 0.7874015748031497
        },
        {
          "duration": 0.1666659999999922,
          "durationTicks": 240,
          "midi": 34,
          "name": "A#1",
          "ticks": 198000,
          "time": 137.832784,
          "velocity": 0.7874015748031497
        },
        {
          "duration": 0.08333300000001032,
          "durationTicks": 120,
          "midi": 70,
          "name": "A#4",
          "ticks": 198240,
          "time": 137.99945,
          "velocity": 0.7874015748031497
        },
        {
          "duration": 0.16666600000002063,
          "durationTicks": 240,
          "midi": 46,
          "name": "A#2",
          "ticks": 198240,
          "time": 137.99945,
          "velocity": 0.7874015748031497
        },
        {
          "duration": 0.08333300000001032,
          "durationTicks": 120,
          "midi": 70,
          "name": "A#4",
          "ticks": 198360,
          "time": 138.082783,
          "velocity": 0.7874015748031497
        },
        {
          "duration": 0.1666659999999922,
          "durationTicks": 240,
          "midi": 70,
          "name": "A#4",
          "ticks": 198480,
          "time": 138.16611600000002,
          "velocity": 0.7874015748031497
        },
        {
          "duration": 0.1666659999999922,
          "durationTicks": 240,
          "midi": 35,
          "name": "B1",
          "ticks": 198480,
          "time": 138.16611600000002,
          "velocity": 0.7874015748031497
        },
        {
          "duration": 0.1666659999999922,
          "durationTicks": 240,
          "midi": 71,
          "name": "B4",
          "ticks": 198720,
          "time": 138.332782,
          "velocity": 0.7874015748031497
        },
        {
          "duration": 0.1666659999999922,
          "durationTicks": 240,
          "midi": 47,
          "name": "B2",
          "ticks": 198720,
          "time": 138.332782,
          "velocity": 0.7874015748031497
        },
        {
          "duration": 0.6666639999999973,
          "durationTicks": 960,
          "midi": 72,
          "name": "C5",
          "ticks": 198960,
          "time": 138.499448,
          "velocity": 0.7874015748031497
        },
        {
          "duration": 0.1666659999999922,
          "durationTicks": 240,
          "midi": 36,
          "name": "C2",
          "ticks": 198960,
          "time": 138.499448,
          "velocity": 0.7874015748031497
        },
        {
          "duration": 0.16666600000002063,
          "durationTicks": 240,
          "midi": 48,
          "name": "C3",
          "ticks": 199200,
          "time": 138.666114,
          "velocity": 0.7874015748031497
        },
        {
          "duration": 0.1666659999999922,
          "durationTicks": 240,
          "midi": 36,
          "name": "C2",
          "ticks": 199440,
          "time": 138.83278,
          "velocity": 0.7874015748031497
        },
        {
          "duration": 0.1666659999999922,
          "durationTicks": 240,
          "midi": 48,
          "name": "C3",
          "ticks": 199680,
          "time": 138.999446,
          "velocity": 0.7874015748031497
        },
        {
          "duration": 0.16666600000002063,
          "durationTicks": 240,
          "midi": 57,
          "name": "A3",
          "ticks": 199920,
          "time": 139.166112,
          "velocity": 0.7874015748031497
        },
        {
          "duration": 0.16666600000002063,
          "durationTicks": 240,
          "midi": 34,
          "name": "A#1",
          "ticks": 199920,
          "time": 139.166112,
          "velocity": 0.7874015748031497
        },
        {
          "duration": 0.1666659999999922,
          "durationTicks": 240,
          "midi": 65,
          "name": "F4",
          "ticks": 200160,
          "time": 139.33277800000002,
          "velocity": 0.7874015748031497
        },
        {
          "duration": 0.1666659999999922,
          "durationTicks": 240,
          "midi": 46,
          "name": "A#2",
          "ticks": 200160,
          "time": 139.33277800000002,
          "velocity": 0.7874015748031497
        },
        {
          "duration": 0.0833329999999819,
          "durationTicks": 120,
          "midi": 64,
          "name": "E4",
          "ticks": 200400,
          "time": 139.499444,
          "velocity": 0.7874015748031497
        },
        {
          "duration": 0.1666659999999922,
          "durationTicks": 240,
          "midi": 34,
          "name": "A#1",
          "ticks": 200400,
          "time": 139.499444,
          "velocity": 0.7874015748031497
        },
        {
          "duration": 0.08333300000001032,
          "durationTicks": 120,
          "midi": 65,
          "name": "F4",
          "ticks": 200520,
          "time": 139.582777,
          "velocity": 0.7874015748031497
        },
        {
          "duration": 0.1666659999999922,
          "durationTicks": 240,
          "midi": 64,
          "name": "E4",
          "ticks": 200640,
          "time": 139.66611,
          "velocity": 0.7874015748031497
        },
        {
          "duration": 0.1666659999999922,
          "durationTicks": 240,
          "midi": 46,
          "name": "A#2",
          "ticks": 200640,
          "time": 139.66611,
          "velocity": 0.7874015748031497
        },
        {
          "duration": 0.16666600000002063,
          "durationTicks": 240,
          "midi": 67,
          "name": "G4",
          "ticks": 200880,
          "time": 139.832776,
          "velocity": 0.7874015748031497
        },
        {
          "duration": 0.16666600000002063,
          "durationTicks": 240,
          "midi": 36,
          "name": "C2",
          "ticks": 200880,
          "time": 139.832776,
          "velocity": 0.7874015748031497
        },
        {
          "duration": 0.1666659999999922,
          "durationTicks": 240,
          "midi": 65,
          "name": "F4",
          "ticks": 201120,
          "time": 139.99944200000002,
          "velocity": 0.7874015748031497
        },
        {
          "duration": 0.1666659999999922,
          "durationTicks": 240,
          "midi": 48,
          "name": "C3",
          "ticks": 201120,
          "time": 139.99944200000002,
          "velocity": 0.7874015748031497
        },
        {
          "duration": 0.08333300000001032,
          "durationTicks": 120,
          "midi": 64,
          "name": "E4",
          "ticks": 201360,
          "time": 140.166108,
          "velocity": 0.7874015748031497
        },
        {
          "duration": 0.1666659999999922,
          "durationTicks": 240,
          "midi": 36,
          "name": "C2",
          "ticks": 201360,
          "time": 140.166108,
          "velocity": 0.7874015748031497
        },
        {
          "duration": 0.0833329999999819,
          "durationTicks": 120,
          "midi": 65,
          "name": "F4",
          "ticks": 201480,
          "time": 140.24944100000002,
          "velocity": 0.7874015748031497
        },
        {
          "duration": 0.08333300000001032,
          "durationTicks": 120,
          "midi": 64,
          "name": "E4",
          "ticks": 201600,
          "time": 140.332774,
          "velocity": 0.7874015748031497
        },
        {
          "duration": 0.16666600000002063,
          "durationTicks": 240,
          "midi": 48,
          "name": "C3",
          "ticks": 201600,
          "time": 140.332774,
          "velocity": 0.7874015748031497
        },
        {
          "duration": 0.08333300000001032,
          "durationTicks": 120,
          "midi": 60,
          "name": "C4",
          "ticks": 201720,
          "time": 140.416107,
          "velocity": 0.7874015748031497
        },
        {
          "duration": 0.1666659999999922,
          "durationTicks": 240,
          "midi": 62,
          "name": "D4",
          "ticks": 201840,
          "time": 140.49944000000002,
          "velocity": 0.7874015748031497
        },
        {
          "duration": 0.1666659999999922,
          "durationTicks": 240,
          "midi": 38,
          "name": "D2",
          "ticks": 201840,
          "time": 140.49944000000002,
          "velocity": 0.7874015748031497
        },
        {
          "duration": 0.1666659999999922,
          "durationTicks": 240,
          "midi": 69,
          "name": "A4",
          "ticks": 202080,
          "time": 140.666106,
          "velocity": 0.7874015748031497
        },
        {
          "duration": 0.1666659999999922,
          "durationTicks": 240,
          "midi": 50,
          "name": "D3",
          "ticks": 202080,
          "time": 140.666106,
          "velocity": 0.7874015748031497
        },
        {
          "duration": 0.08333300000001032,
          "durationTicks": 120,
          "midi": 67,
          "name": "G4",
          "ticks": 202320,
          "time": 140.832772,
          "velocity": 0.7874015748031497
        },
        {
          "duration": 0.1666659999999922,
          "durationTicks": 240,
          "midi": 38,
          "name": "D2",
          "ticks": 202320,
          "time": 140.832772,
          "velocity": 0.7874015748031497
        },
        {
          "duration": 0.0833329999999819,
          "durationTicks": 120,
          "midi": 69,
          "name": "A4",
          "ticks": 202440,
          "time": 140.91610500000002,
          "velocity": 0.7874015748031497
        },
        {
          "duration": 0.08333300000001032,
          "durationTicks": 120,
          "midi": 67,
          "name": "G4",
          "ticks": 202560,
          "time": 140.999438,
          "velocity": 0.7874015748031497
        },
        {
          "duration": 0.16666600000002063,
          "durationTicks": 240,
          "midi": 50,
          "name": "D3",
          "ticks": 202560,
          "time": 140.999438,
          "velocity": 0.7874015748031497
        },
        {
          "duration": 0.08333300000001032,
          "durationTicks": 120,
          "midi": 69,
          "name": "A4",
          "ticks": 202680,
          "time": 141.082771,
          "velocity": 0.7874015748031497
        },
        {
          "duration": 0.1666659999999922,
          "durationTicks": 240,
          "midi": 72,
          "name": "C5",
          "ticks": 202800,
          "time": 141.16610400000002,
          "velocity": 0.7874015748031497
        },
        {
          "duration": 0.1666659999999922,
          "durationTicks": 240,
          "midi": 38,
          "name": "D2",
          "ticks": 202800,
          "time": 141.16610400000002,
          "velocity": 0.7874015748031497
        },
        {
          "duration": 0.1666659999999922,
          "durationTicks": 240,
          "midi": 69,
          "name": "A4",
          "ticks": 203040,
          "time": 141.33277,
          "velocity": 0.7874015748031497
        },
        {
          "duration": 0.1666659999999922,
          "durationTicks": 240,
          "midi": 50,
          "name": "D3",
          "ticks": 203040,
          "time": 141.33277,
          "velocity": 0.7874015748031497
        },
        {
          "duration": 0.1666659999999922,
          "durationTicks": 240,
          "midi": 67,
          "name": "G4",
          "ticks": 203280,
          "time": 141.499436,
          "velocity": 0.7874015748031497
        },
        {
          "duration": 0.1666659999999922,
          "durationTicks": 240,
          "midi": 36,
          "name": "C2",
          "ticks": 203280,
          "time": 141.499436,
          "velocity": 0.7874015748031497
        },
        {
          "duration": 0.16666600000002063,
          "durationTicks": 240,
          "midi": 69,
          "name": "A4",
          "ticks": 203520,
          "time": 141.666102,
          "velocity": 0.7874015748031497
        },
        {
          "duration": 0.16666600000002063,
          "durationTicks": 240,
          "midi": 48,
          "name": "C3",
          "ticks": 203520,
          "time": 141.666102,
          "velocity": 0.7874015748031497
        },
        {
          "duration": 0.1666659999999922,
          "durationTicks": 240,
          "midi": 57,
          "name": "A3",
          "ticks": 203760,
          "time": 141.83276800000002,
          "velocity": 0.7874015748031497
        },
        {
          "duration": 0.1666659999999922,
          "durationTicks": 240,
          "midi": 34,
          "name": "A#1",
          "ticks": 203760,
          "time": 141.83276800000002,
          "velocity": 0.7874015748031497
        },
        {
          "duration": 0.1666659999999922,
          "durationTicks": 240,
          "midi": 65,
          "name": "F4",
          "ticks": 204000,
          "time": 141.999434,
          "velocity": 0.7874015748031497
        },
        {
          "duration": 0.1666659999999922,
          "durationTicks": 240,
          "midi": 46,
          "name": "A#2",
          "ticks": 204000,
          "time": 141.999434,
          "velocity": 0.7874015748031497
        },
        {
          "duration": 0.08333300000001032,
          "durationTicks": 120,
          "midi": 64,
          "name": "E4",
          "ticks": 204240,
          "time": 142.1661,
          "velocity": 0.7874015748031497
        },
        {
          "duration": 0.16666600000002063,
          "durationTicks": 240,
          "midi": 34,
          "name": "A#1",
          "ticks": 204240,
          "time": 142.1661,
          "velocity": 0.7874015748031497
        },
        {
          "duration": 0.08333300000001032,
          "durationTicks": 120,
          "midi": 65,
          "name": "F4",
          "ticks": 204360,
          "time": 142.249433,
          "velocity": 0.7874015748031497
        },
        {
          "duration": 0.1666659999999922,
          "durationTicks": 240,
          "midi": 64,
          "name": "E4",
          "ticks": 204480,
          "time": 142.33276600000002,
          "velocity": 0.7874015748031497
        },
        {
          "duration": 0.1666659999999922,
          "durationTicks": 240,
          "midi": 46,
          "name": "A#2",
          "ticks": 204480,
          "time": 142.33276600000002,
          "velocity": 0.7874015748031497
        },
        {
          "duration": 0.1666659999999922,
          "durationTicks": 240,
          "midi": 67,
          "name": "G4",
          "ticks": 204720,
          "time": 142.499432,
          "velocity": 0.7874015748031497
        },
        {
          "duration": 0.1666659999999922,
          "durationTicks": 240,
          "midi": 36,
          "name": "C2",
          "ticks": 204720,
          "time": 142.499432,
          "velocity": 0.7874015748031497
        },
        {
          "duration": 0.1666659999999922,
          "durationTicks": 240,
          "midi": 65,
          "name": "F4",
          "ticks": 204960,
          "time": 142.666098,
          "velocity": 0.7874015748031497
        },
        {
          "duration": 0.1666659999999922,
          "durationTicks": 240,
          "midi": 48,
          "name": "C3",
          "ticks": 204960,
          "time": 142.666098,
          "velocity": 0.7874015748031497
        },
        {
          "duration": 0.08333300000001032,
          "durationTicks": 120,
          "midi": 64,
          "name": "E4",
          "ticks": 205200,
          "time": 142.832764,
          "velocity": 0.7874015748031497
        },
        {
          "duration": 0.16666600000002063,
          "durationTicks": 240,
          "midi": 36,
          "name": "C2",
          "ticks": 205200,
          "time": 142.832764,
          "velocity": 0.7874015748031497
        },
        {
          "duration": 0.08333300000001032,
          "durationTicks": 120,
          "midi": 65,
          "name": "F4",
          "ticks": 205320,
          "time": 142.916097,
          "velocity": 0.7874015748031497
        },
        {
          "duration": 0.0833329999999819,
          "durationTicks": 120,
          "midi": 64,
          "name": "E4",
          "ticks": 205440,
          "time": 142.99943000000002,
          "velocity": 0.7874015748031497
        },
        {
          "duration": 0.1666659999999922,
          "durationTicks": 240,
          "midi": 48,
          "name": "C3",
          "ticks": 205440,
          "time": 142.99943000000002,
          "velocity": 0.7874015748031497
        },
        {
          "duration": 0.08333300000001032,
          "durationTicks": 120,
          "midi": 60,
          "name": "C4",
          "ticks": 205560,
          "time": 143.082763,
          "velocity": 0.7874015748031497
        },
        {
          "duration": 0.1666659999999922,
          "durationTicks": 240,
          "midi": 62,
          "name": "D4",
          "ticks": 205680,
          "time": 143.166096,
          "velocity": 0.7874015748031497
        },
        {
          "duration": 0.1666659999999922,
          "durationTicks": 240,
          "midi": 38,
          "name": "D2",
          "ticks": 205680,
          "time": 143.166096,
          "velocity": 0.7874015748031497
        },
        {
          "duration": 0.1666659999999922,
          "durationTicks": 240,
          "midi": 69,
          "name": "A4",
          "ticks": 205920,
          "time": 143.332762,
          "velocity": 0.7874015748031497
        },
        {
          "duration": 0.1666659999999922,
          "durationTicks": 240,
          "midi": 50,
          "name": "D3",
          "ticks": 205920,
          "time": 143.332762,
          "velocity": 0.7874015748031497
        },
        {
          "duration": 0.08333300000001032,
          "durationTicks": 120,
          "midi": 67,
          "name": "G4",
          "ticks": 206160,
          "time": 143.499428,
          "velocity": 0.7874015748031497
        },
        {
          "duration": 0.16666600000002063,
          "durationTicks": 240,
          "midi": 40,
          "name": "E2",
          "ticks": 206160,
          "time": 143.499428,
          "velocity": 0.7874015748031497
        },
        {
          "duration": 0.08333300000001032,
          "durationTicks": 120,
          "midi": 69,
          "name": "A4",
          "ticks": 206280,
          "time": 143.582761,
          "velocity": 0.7874015748031497
        },
        {
          "duration": 0.0833329999999819,
          "durationTicks": 120,
          "midi": 67,
          "name": "G4",
          "ticks": 206400,
          "time": 143.66609400000002,
          "velocity": 0.7874015748031497
        },
        {
          "duration": 0.1666659999999922,
          "durationTicks": 240,
          "midi": 52,
          "name": "E3",
          "ticks": 206400,
          "time": 143.66609400000002,
          "velocity": 0.7874015748031497
        },
        {
          "duration": 0.08333300000001032,
          "durationTicks": 120,
          "midi": 69,
          "name": "A4",
          "ticks": 206520,
          "time": 143.749427,
          "velocity": 0.7874015748031497
        },
        {
          "duration": 0.1666659999999922,
          "durationTicks": 240,
          "midi": 73,
          "name": "C#5",
          "ticks": 206640,
          "time": 143.83276,
          "velocity": 0.7874015748031497
        },
        {
          "duration": 0.1666659999999922,
          "durationTicks": 240,
          "midi": 41,
          "name": "F2",
          "ticks": 206640,
          "time": 143.83276,
          "velocity": 0.7874015748031497
        },
        {
          "duration": 0.16666600000002063,
          "durationTicks": 240,
          "midi": 69,
          "name": "A4",
          "ticks": 206880,
          "time": 143.999426,
          "velocity": 0.7874015748031497
        },
        {
          "duration": 0.16666600000002063,
          "durationTicks": 240,
          "midi": 53,
          "name": "F3",
          "ticks": 206880,
          "time": 143.999426,
          "velocity": 0.7874015748031497
        },
        {
          "duration": 0.1666659999999922,
          "durationTicks": 240,
          "midi": 67,
          "name": "G4",
          "ticks": 207120,
          "time": 144.16609200000002,
          "velocity": 0.7874015748031497
        },
        {
          "duration": 0.1666659999999922,
          "durationTicks": 240,
          "midi": 43,
          "name": "G2",
          "ticks": 207120,
          "time": 144.16609200000002,
          "velocity": 0.7874015748031497
        },
        {
          "duration": 0.1666659999999922,
          "durationTicks": 240,
          "midi": 69,
          "name": "A4",
          "ticks": 207360,
          "time": 144.332758,
          "velocity": 0.7874015748031497
        },
        {
          "duration": 0.1666659999999922,
          "durationTicks": 240,
          "midi": 55,
          "name": "G3",
          "ticks": 207360,
          "time": 144.332758,
          "velocity": 0.7874015748031497
        },
        {
          "duration": 0.1666659999999922,
          "durationTicks": 240,
          "midi": 57,
          "name": "A3",
          "ticks": 207600,
          "time": 144.499424,
          "velocity": 0.7874015748031497
        },
        {
          "duration": 0.1666659999999922,
          "durationTicks": 240,
          "midi": 34,
          "name": "A#1",
          "ticks": 207600,
          "time": 144.499424,
          "velocity": 0.7874015748031497
        },
        {
          "duration": 0.16666600000002063,
          "durationTicks": 240,
          "midi": 65,
          "name": "F4",
          "ticks": 207840,
          "time": 144.66609,
          "velocity": 0.7874015748031497
        },
        {
          "duration": 0.16666600000002063,
          "durationTicks": 240,
          "midi": 46,
          "name": "A#2",
          "ticks": 207840,
          "time": 144.66609,
          "velocity": 0.7874015748031497
        },
        {
          "duration": 0.0833329999999819,
          "durationTicks": 120,
          "midi": 64,
          "name": "E4",
          "ticks": 208080,
          "time": 144.83275600000002,
          "velocity": 0.7874015748031497
        },
        {
          "duration": 0.1666659999999922,
          "durationTicks": 240,
          "midi": 34,
          "name": "A#1",
          "ticks": 208080,
          "time": 144.83275600000002,
          "velocity": 0.7874015748031497
        },
        {
          "duration": 0.08333300000001032,
          "durationTicks": 120,
          "midi": 65,
          "name": "F4",
          "ticks": 208200,
          "time": 144.916089,
          "velocity": 0.7874015748031497
        },
        {
          "duration": 0.1666659999999922,
          "durationTicks": 240,
          "midi": 64,
          "name": "E4",
          "ticks": 208320,
          "time": 144.999422,
          "velocity": 0.7874015748031497
        },
        {
          "duration": 0.1666659999999922,
          "durationTicks": 240,
          "midi": 46,
          "name": "A#2",
          "ticks": 208320,
          "time": 144.999422,
          "velocity": 0.7874015748031497
        },
        {
          "duration": 0.1666659999999922,
          "durationTicks": 240,
          "midi": 67,
          "name": "G4",
          "ticks": 208560,
          "time": 145.166088,
          "velocity": 0.7874015748031497
        },
        {
          "duration": 0.1666659999999922,
          "durationTicks": 240,
          "midi": 36,
          "name": "C2",
          "ticks": 208560,
          "time": 145.166088,
          "velocity": 0.7874015748031497
        },
        {
          "duration": 0.16666600000002063,
          "durationTicks": 240,
          "midi": 65,
          "name": "F4",
          "ticks": 208800,
          "time": 145.332754,
          "velocity": 0.7874015748031497
        },
        {
          "duration": 0.16666600000002063,
          "durationTicks": 240,
          "midi": 48,
          "name": "C3",
          "ticks": 208800,
          "time": 145.332754,
          "velocity": 0.7874015748031497
        },
        {
          "duration": 0.0833329999999819,
          "durationTicks": 120,
          "midi": 64,
          "name": "E4",
          "ticks": 209040,
          "time": 145.49942000000001,
          "velocity": 0.7874015748031497
        },
        {
          "duration": 0.1666659999999922,
          "durationTicks": 240,
          "midi": 36,
          "name": "C2",
          "ticks": 209040,
          "time": 145.49942000000001,
          "velocity": 0.7874015748031497
        },
        {
          "duration": 0.08333300000001032,
          "durationTicks": 120,
          "midi": 65,
          "name": "F4",
          "ticks": 209160,
          "time": 145.582753,
          "velocity": 0.7874015748031497
        },
        {
          "duration": 0.08333300000001032,
          "durationTicks": 120,
          "midi": 64,
          "name": "E4",
          "ticks": 209280,
          "time": 145.666086,
          "velocity": 0.7874015748031497
        },
        {
          "duration": 0.1666659999999922,
          "durationTicks": 240,
          "midi": 48,
          "name": "C3",
          "ticks": 209280,
          "time": 145.666086,
          "velocity": 0.7874015748031497
        },
        {
          "duration": 0.0833329999999819,
          "durationTicks": 120,
          "midi": 60,
          "name": "C4",
          "ticks": 209400,
          "time": 145.74941900000002,
          "velocity": 0.7874015748031497
        },
        {
          "duration": 0.16666600000002063,
          "durationTicks": 240,
          "midi": 62,
          "name": "D4",
          "ticks": 209520,
          "time": 145.832752,
          "velocity": 0.7874015748031497
        },
        {
          "duration": 0.16666600000002063,
          "durationTicks": 240,
          "midi": 38,
          "name": "D2",
          "ticks": 209520,
          "time": 145.832752,
          "velocity": 0.7874015748031497
        },
        {
          "duration": 0.1666659999999922,
          "durationTicks": 240,
          "midi": 69,
          "name": "A4",
          "ticks": 209760,
          "time": 145.99941800000002,
          "velocity": 0.7874015748031497
        },
        {
          "duration": 0.1666659999999922,
          "durationTicks": 240,
          "midi": 50,
          "name": "D3",
          "ticks": 209760,
          "time": 145.99941800000002,
          "velocity": 0.7874015748031497
        },
        {
          "duration": 0.0833329999999819,
          "durationTicks": 120,
          "midi": 67,
          "name": "G4",
          "ticks": 210000,
          "time": 146.166084,
          "velocity": 0.7874015748031497
        },
        {
          "duration": 0.1666659999999922,
          "durationTicks": 240,
          "midi": 38,
          "name": "D2",
          "ticks": 210000,
          "time": 146.166084,
          "velocity": 0.7874015748031497
        },
        {
          "duration": 0.08333300000001032,
          "durationTicks": 120,
          "midi": 69,
          "name": "A4",
          "ticks": 210120,
          "time": 146.249417,
          "velocity": 0.7874015748031497
        },
        {
          "duration": 0.08333300000001032,
          "durationTicks": 120,
          "midi": 67,
          "name": "G4",
          "ticks": 210240,
          "time": 146.33275,
          "velocity": 0.7874015748031497
        },
        {
          "duration": 0.1666659999999922,
          "durationTicks": 240,
          "midi": 50,
          "name": "D3",
          "ticks": 210240,
          "time": 146.33275,
          "velocity": 0.7874015748031497
        },
        {
          "duration": 0.0833329999999819,
          "durationTicks": 120,
          "midi": 69,
          "name": "A4",
          "ticks": 210360,
          "time": 146.41608300000001,
          "velocity": 0.7874015748031497
        },
        {
          "duration": 0.16666600000002063,
          "durationTicks": 240,
          "midi": 72,
          "name": "C5",
          "ticks": 210480,
          "time": 146.499416,
          "velocity": 0.7874015748031497
        },
        {
          "duration": 0.16666600000002063,
          "durationTicks": 240,
          "midi": 38,
          "name": "D2",
          "ticks": 210480,
          "time": 146.499416,
          "velocity": 0.7874015748031497
        },
        {
          "duration": 0.1666659999999922,
          "durationTicks": 240,
          "midi": 69,
          "name": "A4",
          "ticks": 210720,
          "time": 146.66608200000002,
          "velocity": 0.7874015748031497
        },
        {
          "duration": 0.1666659999999922,
          "durationTicks": 240,
          "midi": 50,
          "name": "D3",
          "ticks": 210720,
          "time": 146.66608200000002,
          "velocity": 0.7874015748031497
        },
        {
          "duration": 0.1666659999999922,
          "durationTicks": 240,
          "midi": 65,
          "name": "F4",
          "ticks": 210960,
          "time": 146.832748,
          "velocity": 0.7874015748031497
        },
        {
          "duration": 0.1666659999999922,
          "durationTicks": 240,
          "midi": 36,
          "name": "C2",
          "ticks": 210960,
          "time": 146.832748,
          "velocity": 0.7874015748031497
        },
        {
          "duration": 0.1666659999999922,
          "durationTicks": 240,
          "midi": 66,
          "name": "F#4",
          "ticks": 211200,
          "time": 146.999414,
          "velocity": 0.7874015748031497
        },
        {
          "duration": 0.1666659999999922,
          "durationTicks": 240,
          "midi": 48,
          "name": "C3",
          "ticks": 211200,
          "time": 146.999414,
          "velocity": 0.7874015748031497
        },
        {
          "duration": 0.16666600000002063,
          "durationTicks": 240,
          "midi": 67,
          "name": "G4",
          "ticks": 211440,
          "time": 147.16608,
          "velocity": 0.7874015748031497
        },
        {
          "duration": 0.16666600000002063,
          "durationTicks": 240,
          "midi": 31,
          "name": "G1",
          "ticks": 211440,
          "time": 147.16608,
          "velocity": 0.7874015748031497
        },
        {
          "duration": 0.0833329999999819,
          "durationTicks": 120,
          "midi": 58,
          "name": "A#3",
          "ticks": 211680,
          "time": 147.33274600000001,
          "velocity": 0.7874015748031497
        },
        {
          "duration": 0.1666659999999922,
          "durationTicks": 240,
          "midi": 43,
          "name": "G2",
          "ticks": 211680,
          "time": 147.33274600000001,
          "velocity": 0.7874015748031497
        },
        {
          "duration": 0.08333300000001032,
          "durationTicks": 120,
          "midi": 67,
          "name": "G4",
          "ticks": 211800,
          "time": 147.416079,
          "velocity": 0.7874015748031497
        },
        {
          "duration": 0.1666659999999922,
          "durationTicks": 240,
          "midi": 58,
          "name": "A#3",
          "ticks": 211920,
          "time": 147.499412,
          "velocity": 0.7874015748031497
        },
        {
          "duration": 0.1666659999999922,
          "durationTicks": 240,
          "midi": 31,
          "name": "G1",
          "ticks": 211920,
          "time": 147.499412,
          "velocity": 0.7874015748031497
        },
        {
          "duration": 0.16666600000002063,
          "durationTicks": 240,
          "midi": 67,
          "name": "G4",
          "ticks": 212160,
          "time": 147.666078,
          "velocity": 0.7874015748031497
        },
        {
          "duration": 0.16666600000002063,
          "durationTicks": 240,
          "midi": 43,
          "name": "G2",
          "ticks": 212160,
          "time": 147.666078,
          "velocity": 0.7874015748031497
        },
        {
          "duration": 0.1666659999999922,
          "durationTicks": 240,
          "midi": 69,
          "name": "A4",
          "ticks": 212400,
          "time": 147.83274400000002,
          "velocity": 0.7874015748031497
        },
        {
          "duration": 0.1666659999999922,
          "durationTicks": 240,
          "midi": 33,
          "name": "A1",
          "ticks": 212400,
          "time": 147.83274400000002,
          "velocity": 0.7874015748031497
        },
        {
          "duration": 0.0833329999999819,
          "durationTicks": 120,
          "midi": 60,
          "name": "C4",
          "ticks": 212640,
          "time": 147.99941,
          "velocity": 0.7874015748031497
        },
        {
          "duration": 0.1666659999999922,
          "durationTicks": 240,
          "midi": 45,
          "name": "A2",
          "ticks": 212640,
          "time": 147.99941,
          "velocity": 0.7874015748031497
        },
        {
          "duration": 0.08333300000001032,
          "durationTicks": 120,
          "midi": 69,
          "name": "A4",
          "ticks": 212760,
          "time": 148.082743,
          "velocity": 0.7874015748031497
        },
        {
          "duration": 0.1666659999999922,
          "durationTicks": 240,
          "midi": 60,
          "name": "C4",
          "ticks": 212880,
          "time": 148.166076,
          "velocity": 0.7874015748031497
        },
        {
          "duration": 0.1666659999999922,
          "durationTicks": 240,
          "midi": 33,
          "name": "A1",
          "ticks": 212880,
          "time": 148.166076,
          "velocity": 0.7874015748031497
        },
        {
          "duration": 0.16666600000002063,
          "durationTicks": 240,
          "midi": 69,
          "name": "A4",
          "ticks": 213120,
          "time": 148.332742,
          "velocity": 0.7874015748031497
        },
        {
          "duration": 0.33333200000001284,
          "durationTicks": 480,
          "midi": 34,
          "name": "A#1",
          "ticks": 213120,
          "time": 148.332742,
          "velocity": 0.7874015748031497
        },
        {
          "duration": 0.33333200000001284,
          "durationTicks": 480,
          "midi": 46,
          "name": "A#2",
          "ticks": 213120,
          "time": 148.332742,
          "velocity": 0.7874015748031497
        },
        {
          "duration": 0.1666659999999922,
          "durationTicks": 240,
          "midi": 70,
          "name": "A#4",
          "ticks": 213360,
          "time": 148.49940800000002,
          "velocity": 0.7874015748031497
        },
        {
          "duration": 0.08333300000001032,
          "durationTicks": 120,
          "midi": 77,
          "name": "F5",
          "ticks": 213600,
          "time": 148.666074,
          "velocity": 0.7874015748031497
        },
        {
          "duration": 0.1666659999999922,
          "durationTicks": 240,
          "midi": 46,
          "name": "A#2",
          "ticks": 213600,
          "time": 148.666074,
          "velocity": 0.7874015748031497
        },
        {
          "duration": 0.1666659999999922,
          "durationTicks": 240,
          "midi": 34,
          "name": "A#1",
          "ticks": 213600,
          "time": 148.666074,
          "velocity": 0.7874015748031497
        },
        {
          "duration": 0.0833329999999819,
          "durationTicks": 120,
          "midi": 77,
          "name": "F5",
          "ticks": 213720,
          "time": 148.74940700000002,
          "velocity": 0.7874015748031497
        },
        {
          "duration": 0.16666600000002063,
          "durationTicks": 240,
          "midi": 76,
          "name": "E5",
          "ticks": 213840,
          "time": 148.83274,
          "velocity": 0.7874015748031497
        },
        {
          "duration": 0.16666600000002063,
          "durationTicks": 240,
          "midi": 35,
          "name": "B1",
          "ticks": 213840,
          "time": 148.83274,
          "velocity": 0.7874015748031497
        },
        {
          "duration": 0.16666600000002063,
          "durationTicks": 240,
          "midi": 47,
          "name": "B2",
          "ticks": 213840,
          "time": 148.83274,
          "velocity": 0.7874015748031497
        },
        {
          "duration": 0.1666659999999922,
          "durationTicks": 240,
          "midi": 74,
          "name": "D5",
          "ticks": 214080,
          "time": 148.99940600000002,
          "velocity": 0.7874015748031497
        },
        {
          "duration": 0.1666659999999922,
          "durationTicks": 240,
          "midi": 47,
          "name": "B2",
          "ticks": 214080,
          "time": 148.99940600000002,
          "velocity": 0.7874015748031497
        },
        {
          "duration": 0.1666659999999922,
          "durationTicks": 240,
          "midi": 35,
          "name": "B1",
          "ticks": 214080,
          "time": 148.99940600000002,
          "velocity": 0.7874015748031497
        },
        {
          "duration": 0.6666639999999973,
          "durationTicks": 960,
          "midi": 76,
          "name": "E5",
          "ticks": 214320,
          "time": 149.166072,
          "velocity": 0.7874015748031497
        },
        {
          "duration": 0.6666639999999973,
          "durationTicks": 960,
          "midi": 36,
          "name": "C2",
          "ticks": 214320,
          "time": 149.166072,
          "velocity": 0.7874015748031497
        },
        {
          "duration": 0.6666639999999973,
          "durationTicks": 960,
          "midi": 48,
          "name": "C3",
          "ticks": 214320,
          "time": 149.166072,
          "velocity": 0.7874015748031497
        },
        {
          "duration": 0.1666659999999922,
          "durationTicks": 240,
          "midi": 58,
          "name": "A#3",
          "ticks": 215280,
          "time": 149.832736,
          "velocity": 0.7874015748031497
        },
        {
          "duration": 0.1666659999999922,
          "durationTicks": 240,
          "midi": 35,
          "name": "B1",
          "ticks": 215280,
          "time": 149.832736,
          "velocity": 0.7874015748031497
        },
        {
          "duration": 0.1666659999999922,
          "durationTicks": 240,
          "midi": 66,
          "name": "F#4",
          "ticks": 215520,
          "time": 149.999402,
          "velocity": 0.7874015748031497
        },
        {
          "duration": 0.1666659999999922,
          "durationTicks": 240,
          "midi": 47,
          "name": "B2",
          "ticks": 215520,
          "time": 149.999402,
          "velocity": 0.7874015748031497
        },
        {
          "duration": 0.08333300000001032,
          "durationTicks": 120,
          "midi": 65,
          "name": "F4",
          "ticks": 215760,
          "time": 150.166068,
          "velocity": 0.7874015748031497
        },
        {
          "duration": 0.16666600000002063,
          "durationTicks": 240,
          "midi": 35,
          "name": "B1",
          "ticks": 215760,
          "time": 150.166068,
          "velocity": 0.7874015748031497
        },
        {
          "duration": 0.08333300000001032,
          "durationTicks": 120,
          "midi": 66,
          "name": "F#4",
          "ticks": 215880,
          "time": 150.249401,
          "velocity": 0.7874015748031497
        },
        {
          "duration": 0.1666659999999922,
          "durationTicks": 240,
          "midi": 65,
          "name": "F4",
          "ticks": 216000,
          "time": 150.33273400000002,
          "velocity": 0.7874015748031497
        },
        {
          "duration": 0.1666659999999922,
          "durationTicks": 240,
          "midi": 47,
          "name": "B2",
          "ticks": 216000,
          "time": 150.33273400000002,
          "velocity": 0.7874015748031497
        },
        {
          "duration": 0.1666659999999922,
          "durationTicks": 240,
          "midi": 68,
          "name": "G#4",
          "ticks": 216240,
          "time": 150.4994,
          "velocity": 0.7874015748031497
        },
        {
          "duration": 0.1666659999999922,
          "durationTicks": 240,
          "midi": 37,
          "name": "C#2",
          "ticks": 216240,
          "time": 150.4994,
          "velocity": 0.7874015748031497
        },
        {
          "duration": 0.16666600000002063,
          "durationTicks": 240,
          "midi": 66,
          "name": "F#4",
          "ticks": 216480,
          "time": 150.666066,
          "velocity": 0.7874015748031497
        },
        {
          "duration": 0.16666600000002063,
          "durationTicks": 240,
          "midi": 49,
          "name": "C#3",
          "ticks": 216480,
          "time": 150.666066,
          "velocity": 0.7874015748031497
        },
        {
          "duration": 0.0833329999999819,
          "durationTicks": 120,
          "midi": 65,
          "name": "F4",
          "ticks": 216720,
          "time": 150.83273200000002,
          "velocity": 0.7874015748031497
        },
        {
          "duration": 0.1666659999999922,
          "durationTicks": 240,
          "midi": 37,
          "name": "C#2",
          "ticks": 216720,
          "time": 150.83273200000002,
          "velocity": 0.7874015748031497
        },
        {
          "duration": 0.08333300000001032,
          "durationTicks": 120,
          "midi": 66,
          "name": "F#4",
          "ticks": 216840,
          "time": 150.916065,
          "velocity": 0.7874015748031497
        },
        {
          "duration": 0.0833329999999819,
          "durationTicks": 120,
          "midi": 65,
          "name": "F4",
          "ticks": 216960,
          "time": 150.999398,
          "velocity": 0.7874015748031497
        },
        {
          "duration": 0.1666659999999922,
          "durationTicks": 240,
          "midi": 49,
          "name": "C#3",
          "ticks": 216960,
          "time": 150.999398,
          "velocity": 0.7874015748031497
        },
        {
          "duration": 0.08333300000001032,
          "durationTicks": 120,
          "midi": 61,
          "name": "C#4",
          "ticks": 217080,
          "time": 151.082731,
          "velocity": 0.7874015748031497
        },
        {
          "duration": 0.1666659999999922,
          "durationTicks": 240,
          "midi": 63,
          "name": "D#4",
          "ticks": 217200,
          "time": 151.166064,
          "velocity": 0.7874015748031497
        },
        {
          "duration": 0.1666659999999922,
          "durationTicks": 240,
          "midi": 39,
          "name": "D#2",
          "ticks": 217200,
          "time": 151.166064,
          "velocity": 0.7874015748031497
        },
        {
          "duration": 0.16666600000002063,
          "durationTicks": 240,
          "midi": 70,
          "name": "A#4",
          "ticks": 217440,
          "time": 151.33273,
          "velocity": 0.7874015748031497
        },
        {
          "duration": 0.16666600000002063,
          "durationTicks": 240,
          "midi": 51,
          "name": "D#3",
          "ticks": 217440,
          "time": 151.33273,
          "velocity": 0.7874015748031497
        },
        {
          "duration": 0.0833329999999819,
          "durationTicks": 120,
          "midi": 68,
          "name": "G#4",
          "ticks": 217680,
          "time": 151.49939600000002,
          "velocity": 0.7874015748031497
        },
        {
          "duration": 0.1666659999999922,
          "durationTicks": 240,
          "midi": 39,
          "name": "D#2",
          "ticks": 217680,
          "time": 151.49939600000002,
          "velocity": 0.7874015748031497
        },
        {
          "duration": 0.08333300000001032,
          "durationTicks": 120,
          "midi": 70,
          "name": "A#4",
          "ticks": 217800,
          "time": 151.582729,
          "velocity": 0.7874015748031497
        },
        {
          "duration": 0.08333300000001032,
          "durationTicks": 120,
          "midi": 68,
          "name": "G#4",
          "ticks": 217920,
          "time": 151.666062,
          "velocity": 0.7874015748031497
        },
        {
          "duration": 0.1666659999999922,
          "durationTicks": 240,
          "midi": 51,
          "name": "D#3",
          "ticks": 217920,
          "time": 151.666062,
          "velocity": 0.7874015748031497
        },
        {
          "duration": 0.0833329999999819,
          "durationTicks": 120,
          "midi": 70,
          "name": "A#4",
          "ticks": 218040,
          "time": 151.74939500000002,
          "velocity": 0.7874015748031497
        },
        {
          "duration": 0.1666659999999922,
          "durationTicks": 240,
          "midi": 73,
          "name": "C#5",
          "ticks": 218160,
          "time": 151.832728,
          "velocity": 0.7874015748031497
        },
        {
          "duration": 0.1666659999999922,
          "durationTicks": 240,
          "midi": 39,
          "name": "D#2",
          "ticks": 218160,
          "time": 151.832728,
          "velocity": 0.7874015748031497
        },
        {
          "duration": 0.16666600000002063,
          "durationTicks": 240,
          "midi": 70,
          "name": "A#4",
          "ticks": 218400,
          "time": 151.999394,
          "velocity": 0.7874015748031497
        },
        {
          "duration": 0.16666600000002063,
          "durationTicks": 240,
          "midi": 51,
          "name": "D#3",
          "ticks": 218400,
          "time": 151.999394,
          "velocity": 0.7874015748031497
        },
        {
          "duration": 0.1666659999999922,
          "durationTicks": 240,
          "midi": 68,
          "name": "G#4",
          "ticks": 218640,
          "time": 152.16606000000002,
          "velocity": 0.7874015748031497
        },
        {
          "duration": 0.1666659999999922,
          "durationTicks": 240,
          "midi": 37,
          "name": "C#2",
          "ticks": 218640,
          "time": 152.16606000000002,
          "velocity": 0.7874015748031497
        },
        {
          "duration": 0.1666659999999922,
          "durationTicks": 240,
          "midi": 70,
          "name": "A#4",
          "ticks": 218880,
          "time": 152.332726,
          "velocity": 0.7874015748031497
        },
        {
          "duration": 0.1666659999999922,
          "durationTicks": 240,
          "midi": 49,
          "name": "C#3",
          "ticks": 218880,
          "time": 152.332726,
          "velocity": 0.7874015748031497
        },
        {
          "duration": 0.16666600000002063,
          "durationTicks": 240,
          "midi": 58,
          "name": "A#3",
          "ticks": 219120,
          "time": 152.499392,
          "velocity": 0.7874015748031497
        },
        {
          "duration": 0.16666600000002063,
          "durationTicks": 240,
          "midi": 35,
          "name": "B1",
          "ticks": 219120,
          "time": 152.499392,
          "velocity": 0.7874015748031497
        },
        {
          "duration": 0.1666659999999922,
          "durationTicks": 240,
          "midi": 66,
          "name": "F#4",
          "ticks": 219360,
          "time": 152.66605800000002,
          "velocity": 0.7874015748031497
        },
        {
          "duration": 0.1666659999999922,
          "durationTicks": 240,
          "midi": 47,
          "name": "B2",
          "ticks": 219360,
          "time": 152.66605800000002,
          "velocity": 0.7874015748031497
        },
        {
          "duration": 0.0833329999999819,
          "durationTicks": 120,
          "midi": 65,
          "name": "F4",
          "ticks": 219600,
          "time": 152.832724,
          "velocity": 0.7874015748031497
        },
        {
          "duration": 0.1666659999999922,
          "durationTicks": 240,
          "midi": 35,
          "name": "B1",
          "ticks": 219600,
          "time": 152.832724,
          "velocity": 0.7874015748031497
        },
        {
          "duration": 0.08333300000001032,
          "durationTicks": 120,
          "midi": 66,
          "name": "F#4",
          "ticks": 219720,
          "time": 152.916057,
          "velocity": 0.7874015748031497
        },
        {
          "duration": 0.1666659999999922,
          "durationTicks": 240,
          "midi": 65,
          "name": "F4",
          "ticks": 219840,
          "time": 152.99939,
          "velocity": 0.7874015748031497
        },
        {
          "duration": 0.1666659999999922,
          "durationTicks": 240,
          "midi": 47,
          "name": "B2",
          "ticks": 219840,
          "time": 152.99939,
          "velocity": 0.7874015748031497
        },
        {
          "duration": 0.16666600000002063,
          "durationTicks": 240,
          "midi": 68,
          "name": "G#4",
          "ticks": 220080,
          "time": 153.166056,
          "velocity": 0.7874015748031497
        },
        {
          "duration": 0.16666600000002063,
          "durationTicks": 240,
          "midi": 37,
          "name": "C#2",
          "ticks": 220080,
          "time": 153.166056,
          "velocity": 0.7874015748031497
        },
        {
          "duration": 0.1666659999999922,
          "durationTicks": 240,
          "midi": 66,
          "name": "F#4",
          "ticks": 220320,
          "time": 153.33272200000002,
          "velocity": 0.7874015748031497
        },
        {
          "duration": 0.1666659999999922,
          "durationTicks": 240,
          "midi": 49,
          "name": "C#3",
          "ticks": 220320,
          "time": 153.33272200000002,
          "velocity": 0.7874015748031497
        },
        {
          "duration": 0.08333300000001032,
          "durationTicks": 120,
          "midi": 65,
          "name": "F4",
          "ticks": 220560,
          "time": 153.499388,
          "velocity": 0.7874015748031497
        },
        {
          "duration": 0.1666659999999922,
          "durationTicks": 240,
          "midi": 37,
          "name": "C#2",
          "ticks": 220560,
          "time": 153.499388,
          "velocity": 0.7874015748031497
        },
        {
          "duration": 0.0833329999999819,
          "durationTicks": 120,
          "midi": 66,
          "name": "F#4",
          "ticks": 220680,
          "time": 153.58272100000002,
          "velocity": 0.7874015748031497
        },
        {
          "duration": 0.08333300000001032,
          "durationTicks": 120,
          "midi": 65,
          "name": "F4",
          "ticks": 220800,
          "time": 153.666054,
          "velocity": 0.7874015748031497
        },
        {
          "duration": 0.1666659999999922,
          "durationTicks": 240,
          "midi": 49,
          "name": "C#3",
          "ticks": 220800,
          "time": 153.666054,
          "velocity": 0.7874015748031497
        },
        {
          "duration": 0.0833329999999819,
          "durationTicks": 120,
          "midi": 61,
          "name": "C#4",
          "ticks": 220920,
          "time": 153.749387,
          "velocity": 0.7874015748031497
        },
        {
          "duration": 0.16666600000002063,
          "durationTicks": 240,
          "midi": 63,
          "name": "D#4",
          "ticks": 221040,
          "time": 153.83272,
          "velocity": 0.7874015748031497
        },
        {
          "duration": 0.16666600000002063,
          "durationTicks": 240,
          "midi": 39,
          "name": "D#2",
          "ticks": 221040,
          "time": 153.83272,
          "velocity": 0.7874015748031497
        },
        {
          "duration": 0.1666659999999922,
          "durationTicks": 240,
          "midi": 70,
          "name": "A#4",
          "ticks": 221280,
          "time": 153.99938600000002,
          "velocity": 0.7874015748031497
        },
        {
          "duration": 0.1666659999999922,
          "durationTicks": 240,
          "midi": 51,
          "name": "D#3",
          "ticks": 221280,
          "time": 153.99938600000002,
          "velocity": 0.7874015748031497
        },
        {
          "duration": 0.08333300000001032,
          "durationTicks": 120,
          "midi": 68,
          "name": "G#4",
          "ticks": 221520,
          "time": 154.166052,
          "velocity": 0.7874015748031497
        },
        {
          "duration": 0.1666659999999922,
          "durationTicks": 240,
          "midi": 41,
          "name": "F2",
          "ticks": 221520,
          "time": 154.166052,
          "velocity": 0.7874015748031497
        },
        {
          "duration": 0.0833329999999819,
          "durationTicks": 120,
          "midi": 70,
          "name": "A#4",
          "ticks": 221640,
          "time": 154.24938500000002,
          "velocity": 0.7874015748031497
        },
        {
          "duration": 0.08333300000001032,
          "durationTicks": 120,
          "midi": 68,
          "name": "G#4",
          "ticks": 221760,
          "time": 154.332718,
          "velocity": 0.7874015748031497
        },
        {
          "duration": 0.16666600000002063,
          "durationTicks": 240,
          "midi": 53,
          "name": "F3",
          "ticks": 221760,
          "time": 154.332718,
          "velocity": 0.7874015748031497
        },
        {
          "duration": 0.08333300000001032,
          "durationTicks": 120,
          "midi": 70,
          "name": "A#4",
          "ticks": 221880,
          "time": 154.416051,
          "velocity": 0.7874015748031497
        },
        {
          "duration": 0.1666659999999922,
          "durationTicks": 240,
          "midi": 74,
          "name": "D5",
          "ticks": 222000,
          "time": 154.49938400000002,
          "velocity": 0.7874015748031497
        },
        {
          "duration": 0.1666659999999922,
          "durationTicks": 240,
          "midi": 42,
          "name": "F#2",
          "ticks": 222000,
          "time": 154.49938400000002,
          "velocity": 0.7874015748031497
        },
        {
          "duration": 0.1666659999999922,
          "durationTicks": 240,
          "midi": 70,
          "name": "A#4",
          "ticks": 222240,
          "time": 154.66605,
          "velocity": 0.7874015748031497
        },
        {
          "duration": 0.1666659999999922,
          "durationTicks": 240,
          "midi": 54,
          "name": "F#3",
          "ticks": 222240,
          "time": 154.66605,
          "velocity": 0.7874015748031497
        },
        {
          "duration": 0.1666659999999922,
          "durationTicks": 240,
          "midi": 68,
          "name": "G#4",
          "ticks": 222480,
          "time": 154.832716,
          "velocity": 0.7874015748031497
        },
        {
          "duration": 0.1666659999999922,
          "durationTicks": 240,
          "midi": 44,
          "name": "G#2",
          "ticks": 222480,
          "time": 154.832716,
          "velocity": 0.7874015748031497
        },
        {
          "duration": 0.16666600000002063,
          "durationTicks": 240,
          "midi": 70,
          "name": "A#4",
          "ticks": 222720,
          "time": 154.999382,
          "velocity": 0.7874015748031497
        },
        {
          "duration": 0.16666600000002063,
          "durationTicks": 240,
          "midi": 56,
          "name": "G#3",
          "ticks": 222720,
          "time": 154.999382,
          "velocity": 0.7874015748031497
        },
        {
          "duration": 0.1666659999999922,
          "durationTicks": 240,
          "midi": 58,
          "name": "A#3",
          "ticks": 222960,
          "time": 155.16604800000002,
          "velocity": 0.7874015748031497
        },
        {
          "duration": 0.1666659999999922,
          "durationTicks": 240,
          "midi": 35,
          "name": "B1",
          "ticks": 222960,
          "time": 155.16604800000002,
          "velocity": 0.7874015748031497
        },
        {
          "duration": 0.1666659999999922,
          "durationTicks": 240,
          "midi": 66,
          "name": "F#4",
          "ticks": 223200,
          "time": 155.332714,
          "velocity": 0.7874015748031497
        },
        {
          "duration": 0.1666659999999922,
          "durationTicks": 240,
          "midi": 47,
          "name": "B2",
          "ticks": 223200,
          "time": 155.332714,
          "velocity": 0.7874015748031497
        },
        {
          "duration": 0.08333300000001032,
          "durationTicks": 120,
          "midi": 65,
          "name": "F4",
          "ticks": 223440,
          "time": 155.49938,
          "velocity": 0.7874015748031497
        },
        {
          "duration": 0.1666659999999922,
          "durationTicks": 240,
          "midi": 35,
          "name": "B1",
          "ticks": 223440,
          "time": 155.49938,
          "velocity": 0.7874015748031497
        },
        {
          "duration": 0.0833329999999819,
          "durationTicks": 120,
          "midi": 66,
          "name": "F#4",
          "ticks": 223560,
          "time": 155.582713,
          "velocity": 0.7874015748031497
        },
        {
          "duration": 0.16666600000002063,
          "durationTicks": 240,
          "midi": 65,
          "name": "F4",
          "ticks": 223680,
          "time": 155.666046,
          "velocity": 0.7874015748031497
        },
        {
          "duration": 0.16666600000002063,
          "durationTicks": 240,
          "midi": 47,
          "name": "B2",
          "ticks": 223680,
          "time": 155.666046,
          "velocity": 0.7874015748031497
        },
        {
          "duration": 0.1666659999999922,
          "durationTicks": 240,
          "midi": 68,
          "name": "G#4",
          "ticks": 223920,
          "time": 155.83271200000001,
          "velocity": 0.7874015748031497
        },
        {
          "duration": 0.1666659999999922,
          "durationTicks": 240,
          "midi": 37,
          "name": "C#2",
          "ticks": 223920,
          "time": 155.83271200000001,
          "velocity": 0.7874015748031497
        },
        {
          "duration": 0.1666659999999922,
          "durationTicks": 240,
          "midi": 66,
          "name": "F#4",
          "ticks": 224160,
          "time": 155.999378,
          "velocity": 0.7874015748031497
        },
        {
          "duration": 0.1666659999999922,
          "durationTicks": 240,
          "midi": 49,
          "name": "C#3",
          "ticks": 224160,
          "time": 155.999378,
          "velocity": 0.7874015748031497
        },
        {
          "duration": 0.08333300000001032,
          "durationTicks": 120,
          "midi": 65,
          "name": "F4",
          "ticks": 224400,
          "time": 156.166044,
          "velocity": 0.7874015748031497
        },
        {
          "duration": 0.16666600000002063,
          "durationTicks": 240,
          "midi": 37,
          "name": "C#2",
          "ticks": 224400,
          "time": 156.166044,
          "velocity": 0.7874015748031497
        },
        {
          "duration": 0.08333300000001032,
          "durationTicks": 120,
          "midi": 66,
          "name": "F#4",
          "ticks": 224520,
          "time": 156.249377,
          "velocity": 0.7874015748031497
        },
        {
          "duration": 0.0833329999999819,
          "durationTicks": 120,
          "midi": 65,
          "name": "F4",
          "ticks": 224640,
          "time": 156.33271000000002,
          "velocity": 0.7874015748031497
        },
        {
          "duration": 0.1666659999999922,
          "durationTicks": 240,
          "midi": 49,
          "name": "C#3",
          "ticks": 224640,
          "time": 156.33271000000002,
          "velocity": 0.7874015748031497
        },
        {
          "duration": 0.08333300000001032,
          "durationTicks": 120,
          "midi": 61,
          "name": "C#4",
          "ticks": 224760,
          "time": 156.416043,
          "velocity": 0.7874015748031497
        },
        {
          "duration": 0.1666659999999922,
          "durationTicks": 240,
          "midi": 63,
          "name": "D#4",
          "ticks": 224880,
          "time": 156.499376,
          "velocity": 0.7874015748031497
        },
        {
          "duration": 0.1666659999999922,
          "durationTicks": 240,
          "midi": 39,
          "name": "D#2",
          "ticks": 224880,
          "time": 156.499376,
          "velocity": 0.7874015748031497
        },
        {
          "duration": 0.1666659999999922,
          "durationTicks": 240,
          "midi": 70,
          "name": "A#4",
          "ticks": 225120,
          "time": 156.666042,
          "velocity": 0.7874015748031497
        },
        {
          "duration": 0.1666659999999922,
          "durationTicks": 240,
          "midi": 51,
          "name": "D#3",
          "ticks": 225120,
          "time": 156.666042,
          "velocity": 0.7874015748031497
        },
        {
          "duration": 0.08333300000001032,
          "durationTicks": 120,
          "midi": 68,
          "name": "G#4",
          "ticks": 225360,
          "time": 156.832708,
          "velocity": 0.7874015748031497
        },
        {
          "duration": 0.16666600000002063,
          "durationTicks": 240,
          "midi": 39,
          "name": "D#2",
          "ticks": 225360,
          "time": 156.832708,
          "velocity": 0.7874015748031497
        },
        {
          "duration": 0.08333300000001032,
          "durationTicks": 120,
          "midi": 70,
          "name": "A#4",
          "ticks": 225480,
          "time": 156.916041,
          "velocity": 0.7874015748031497
        },
        {
          "duration": 0.0833329999999819,
          "durationTicks": 120,
          "midi": 68,
          "name": "G#4",
          "ticks": 225600,
          "time": 156.99937400000002,
          "velocity": 0.7874015748031497
        },
        {
          "duration": 0.1666659999999922,
          "durationTicks": 240,
          "midi": 51,
          "name": "D#3",
          "ticks": 225600,
          "time": 156.99937400000002,
          "velocity": 0.7874015748031497
        },
        {
          "duration": 0.08333300000001032,
          "durationTicks": 120,
          "midi": 70,
          "name": "A#4",
          "ticks": 225720,
          "time": 157.082707,
          "velocity": 0.7874015748031497
        },
        {
          "duration": 0.1666659999999922,
          "durationTicks": 240,
          "midi": 73,
          "name": "C#5",
          "ticks": 225840,
          "time": 157.16604,
          "velocity": 0.7874015748031497
        },
        {
          "duration": 0.1666659999999922,
          "durationTicks": 240,
          "midi": 39,
          "name": "D#2",
          "ticks": 225840,
          "time": 157.16604,
          "velocity": 0.7874015748031497
        },
        {
          "duration": 0.1666659999999922,
          "durationTicks": 240,
          "midi": 70,
          "name": "A#4",
          "ticks": 226080,
          "time": 157.332706,
          "velocity": 0.7874015748031497
        },
        {
          "duration": 0.1666659999999922,
          "durationTicks": 240,
          "midi": 51,
          "name": "D#3",
          "ticks": 226080,
          "time": 157.332706,
          "velocity": 0.7874015748031497
        },
        {
          "duration": 0.16666600000002063,
          "durationTicks": 240,
          "midi": 66,
          "name": "F#4",
          "ticks": 226320,
          "time": 157.499372,
          "velocity": 0.7874015748031497
        },
        {
          "duration": 0.16666600000002063,
          "durationTicks": 240,
          "midi": 37,
          "name": "C#2",
          "ticks": 226320,
          "time": 157.499372,
          "velocity": 0.7874015748031497
        },
        {
          "duration": 0.1666659999999922,
          "durationTicks": 240,
          "midi": 67,
          "name": "G4",
          "ticks": 226560,
          "time": 157.66603800000001,
          "velocity": 0.7874015748031497
        },
        {
          "duration": 0.1666659999999922,
          "durationTicks": 240,
          "midi": 49,
          "name": "C#3",
          "ticks": 226560,
          "time": 157.66603800000001,
          "velocity": 0.7874015748031497
        },
        {
          "duration": 0.1666659999999922,
          "durationTicks": 240,
          "midi": 68,
          "name": "G#4",
          "ticks": 226800,
          "time": 157.832704,
          "velocity": 0.7874015748031497
        },
        {
          "duration": 0.1666659999999922,
          "durationTicks": 240,
          "midi": 32,
          "name": "G#1",
          "ticks": 226800,
          "time": 157.832704,
          "velocity": 0.7874015748031497
        },
        {
          "duration": 0.08333300000001032,
          "durationTicks": 120,
          "midi": 59,
          "name": "B3",
          "ticks": 227040,
          "time": 157.99937,
          "velocity": 0.7874015748031497
        },
        {
          "duration": 0.16666600000002063,
          "durationTicks": 240,
          "midi": 44,
          "name": "G#2",
          "ticks": 227040,
          "time": 157.99937,
          "velocity": 0.7874015748031497
        },
        {
          "duration": 0.08333300000001032,
          "durationTicks": 120,
          "midi": 68,
          "name": "G#4",
          "ticks": 227160,
          "time": 158.082703,
          "velocity": 0.7874015748031497
        },
        {
          "duration": 0.1666659999999922,
          "durationTicks": 240,
          "midi": 59,
          "name": "B3",
          "ticks": 227280,
          "time": 158.16603600000002,
          "velocity": 0.7874015748031497
        },
        {
          "duration": 0.1666659999999922,
          "durationTicks": 240,
          "midi": 32,
          "name": "G#1",
          "ticks": 227280,
          "time": 158.16603600000002,
          "velocity": 0.7874015748031497
        },
        {
          "duration": 0.1666659999999922,
          "durationTicks": 240,
          "midi": 68,
          "name": "G#4",
          "ticks": 227520,
          "time": 158.332702,
          "velocity": 0.7874015748031497
        },
        {
          "duration": 0.1666659999999922,
          "durationTicks": 240,
          "midi": 44,
          "name": "G#2",
          "ticks": 227520,
          "time": 158.332702,
          "velocity": 0.7874015748031497
        },
        {
          "duration": 0.1666659999999922,
          "durationTicks": 240,
          "midi": 70,
          "name": "A#4",
          "ticks": 227760,
          "time": 158.499368,
          "velocity": 0.7874015748031497
        },
        {
          "duration": 0.1666659999999922,
          "durationTicks": 240,
          "midi": 34,
          "name": "A#1",
          "ticks": 227760,
          "time": 158.499368,
          "velocity": 0.7874015748031497
        },
        {
          "duration": 0.08333300000001032,
          "durationTicks": 120,
          "midi": 61,
          "name": "C#4",
          "ticks": 228000,
          "time": 158.666034,
          "velocity": 0.7874015748031497
        },
        {
          "duration": 0.16666600000002063,
          "durationTicks": 240,
          "midi": 46,
          "name": "A#2",
          "ticks": 228000,
          "time": 158.666034,
          "velocity": 0.7874015748031497
        },
        {
          "duration": 0.08333300000001032,
          "durationTicks": 120,
          "midi": 70,
          "name": "A#4",
          "ticks": 228120,
          "time": 158.749367,
          "velocity": 0.7874015748031497
        },
        {
          "duration": 0.1666659999999922,
          "durationTicks": 240,
          "midi": 61,
          "name": "C#4",
          "ticks": 228240,
          "time": 158.83270000000002,
          "velocity": 0.7874015748031497
        },
        {
          "duration": 0.1666659999999922,
          "durationTicks": 240,
          "midi": 34,
          "name": "A#1",
          "ticks": 228240,
          "time": 158.83270000000002,
          "velocity": 0.7874015748031497
        },
        {
          "duration": 0.1666659999999922,
          "durationTicks": 240,
          "midi": 70,
          "name": "A#4",
          "ticks": 228480,
          "time": 158.999366,
          "velocity": 0.7874015748031497
        },
        {
          "duration": 0.1666659999999922,
          "durationTicks": 240,
          "midi": 46,
          "name": "A#2",
          "ticks": 228480,
          "time": 158.999366,
          "velocity": 0.7874015748031497
        },
        {
          "duration": 0.16666600000002063,
          "durationTicks": 240,
          "midi": 71,
          "name": "B4",
          "ticks": 228720,
          "time": 159.166032,
          "velocity": 0.7874015748031497
        },
        {
          "duration": 0.16666600000002063,
          "durationTicks": 240,
          "midi": 35,
          "name": "B1",
          "ticks": 228720,
          "time": 159.166032,
          "velocity": 0.7874015748031497
        },
        {
          "duration": 0.0833329999999819,
          "durationTicks": 120,
          "midi": 71,
          "name": "B4",
          "ticks": 228960,
          "time": 159.33269800000002,
          "velocity": 0.7874015748031497
        },
        {
          "duration": 0.1666659999999922,
          "durationTicks": 240,
          "midi": 47,
          "name": "B2",
          "ticks": 228960,
          "time": 159.33269800000002,
          "velocity": 0.7874015748031497
        },
        {
          "duration": 0.08333300000001032,
          "durationTicks": 120,
          "midi": 71,
          "name": "B4",
          "ticks": 229080,
          "time": 159.416031,
          "velocity": 0.7874015748031497
        },
        {
          "duration": 0.1666659999999922,
          "durationTicks": 240,
          "midi": 71,
          "name": "B4",
          "ticks": 229200,
          "time": 159.499364,
          "velocity": 0.7874015748031497
        },
        {
          "duration": 0.1666659999999922,
          "durationTicks": 240,
          "midi": 36,
          "name": "C2",
          "ticks": 229200,
          "time": 159.499364,
          "velocity": 0.7874015748031497
        },
        {
          "duration": 0.1666659999999922,
          "durationTicks": 240,
          "midi": 72,
          "name": "C5",
          "ticks": 229440,
          "time": 159.66603,
          "velocity": 0.7874015748031497
        },
        {
          "duration": 0.1666659999999922,
          "durationTicks": 240,
          "midi": 48,
          "name": "C3",
          "ticks": 229440,
          "time": 159.66603,
          "velocity": 0.7874015748031497
        },
        {
          "duration": 0.6666639999999973,
          "durationTicks": 960,
          "midi": 73,
          "name": "C#5",
          "ticks": 229680,
          "time": 159.832696,
          "velocity": 0.7874015748031497
        },
        {
          "duration": 0.16666600000002063,
          "durationTicks": 240,
          "midi": 37,
          "name": "C#2",
          "ticks": 229680,
          "time": 159.832696,
          "velocity": 0.7874015748031497
        },
        {
          "duration": 0.1666659999999922,
          "durationTicks": 240,
          "midi": 49,
          "name": "C#3",
          "ticks": 229920,
          "time": 159.99936200000002,
          "velocity": 0.7874015748031497
        },
        {
          "duration": 0.1666659999999922,
          "durationTicks": 240,
          "midi": 37,
          "name": "C#2",
          "ticks": 230160,
          "time": 160.166028,
          "velocity": 0.7874015748031497
        },
        {
          "duration": 0.1666659999999922,
          "durationTicks": 240,
          "midi": 49,
          "name": "C#3",
          "ticks": 230400,
          "time": 160.332694,
          "velocity": 0.7874015748031497
        },
        {
          "duration": 0.16666600000002063,
          "durationTicks": 240,
          "midi": 58,
          "name": "A#3",
          "ticks": 230640,
          "time": 160.49936,
          "velocity": 0.7874015748031497
        },
        {
          "duration": 0.16666600000002063,
          "durationTicks": 240,
          "midi": 35,
          "name": "B1",
          "ticks": 230640,
          "time": 160.49936,
          "velocity": 0.7874015748031497
        },
        {
          "duration": 0.1666659999999922,
          "durationTicks": 240,
          "midi": 66,
          "name": "F#4",
          "ticks": 230880,
          "time": 160.66602600000002,
          "velocity": 0.7874015748031497
        },
        {
          "duration": 0.1666659999999922,
          "durationTicks": 240,
          "midi": 47,
          "name": "B2",
          "ticks": 230880,
          "time": 160.66602600000002,
          "velocity": 0.7874015748031497
        },
        {
          "duration": 0.08333300000001032,
          "durationTicks": 120,
          "midi": 65,
          "name": "F4",
          "ticks": 231120,
          "time": 160.832692,
          "velocity": 0.7874015748031497
        },
        {
          "duration": 0.1666659999999922,
          "durationTicks": 240,
          "midi": 35,
          "name": "B1",
          "ticks": 231120,
          "time": 160.832692,
          "velocity": 0.7874015748031497
        },
        {
          "duration": 0.0833329999999819,
          "durationTicks": 120,
          "midi": 66,
          "name": "F#4",
          "ticks": 231240,
          "time": 160.91602500000002,
          "velocity": 0.7874015748031497
        },
        {
          "duration": 0.16666600000002063,
          "durationTicks": 240,
          "midi": 65,
          "name": "F4",
          "ticks": 231360,
          "time": 160.999358,
          "velocity": 0.7874015748031497
        },
        {
          "duration": 0.16666600000002063,
          "durationTicks": 240,
          "midi": 47,
          "name": "B2",
          "ticks": 231360,
          "time": 160.999358,
          "velocity": 0.7874015748031497
        },
        {
          "duration": 0.1666659999999922,
          "durationTicks": 240,
          "midi": 68,
          "name": "G#4",
          "ticks": 231600,
          "time": 161.16602400000002,
          "velocity": 0.7874015748031497
        },
        {
          "duration": 0.1666659999999922,
          "durationTicks": 240,
          "midi": 37,
          "name": "C#2",
          "ticks": 231600,
          "time": 161.16602400000002,
          "velocity": 0.7874015748031497
        },
        {
          "duration": 0.1666659999999922,
          "durationTicks": 240,
          "midi": 66,
          "name": "F#4",
          "ticks": 231840,
          "time": 161.33269,
          "velocity": 0.7874015748031497
        },
        {
          "duration": 0.1666659999999922,
          "durationTicks": 240,
          "midi": 49,
          "name": "C#3",
          "ticks": 231840,
          "time": 161.33269,
          "velocity": 0.7874015748031497
        },
        {
          "duration": 0.08333300000001032,
          "durationTicks": 120,
          "midi": 65,
          "name": "F4",
          "ticks": 232080,
          "time": 161.499356,
          "velocity": 0.7874015748031497
        },
        {
          "duration": 0.1666659999999922,
          "durationTicks": 240,
          "midi": 37,
          "name": "C#2",
          "ticks": 232080,
          "time": 161.499356,
          "velocity": 0.7874015748031497
        },
        {
          "duration": 0.0833329999999819,
          "durationTicks": 120,
          "midi": 66,
          "name": "F#4",
          "ticks": 232200,
          "time": 161.58268900000002,
          "velocity": 0.7874015748031497
        },
        {
          "duration": 0.08333300000001032,
          "durationTicks": 120,
          "midi": 65,
          "name": "F4",
          "ticks": 232320,
          "time": 161.666022,
          "velocity": 0.7874015748031497
        },
        {
          "duration": 0.16666600000002063,
          "durationTicks": 240,
          "midi": 49,
          "name": "C#3",
          "ticks": 232320,
          "time": 161.666022,
          "velocity": 0.7874015748031497
        },
        {
          "duration": 0.08333300000001032,
          "durationTicks": 120,
          "midi": 61,
          "name": "C#4",
          "ticks": 232440,
          "time": 161.749355,
          "velocity": 0.7874015748031497
        },
        {
          "duration": 0.1666659999999922,
          "durationTicks": 240,
          "midi": 63,
          "name": "D#4",
          "ticks": 232560,
          "time": 161.83268800000002,
          "velocity": 0.7874015748031497
        },
        {
          "duration": 0.1666659999999922,
          "durationTicks": 240,
          "midi": 39,
          "name": "D#2",
          "ticks": 232560,
          "time": 161.83268800000002,
          "velocity": 0.7874015748031497
        },
        {
          "duration": 0.1666659999999922,
          "durationTicks": 240,
          "midi": 70,
          "name": "A#4",
          "ticks": 232800,
          "time": 161.999354,
          "velocity": 0.7874015748031497
        },
        {
          "duration": 0.1666659999999922,
          "durationTicks": 240,
          "midi": 51,
          "name": "D#3",
          "ticks": 232800,
          "time": 161.999354,
          "velocity": 0.7874015748031497
        },
        {
          "duration": 0.08333300000001032,
          "durationTicks": 120,
          "midi": 68,
          "name": "G#4",
          "ticks": 233040,
          "time": 162.16602,
          "velocity": 0.7874015748031497
        },
        {
          "duration": 0.1666659999999922,
          "durationTicks": 240,
          "midi": 39,
          "name": "D#2",
          "ticks": 233040,
          "time": 162.16602,
          "velocity": 0.7874015748031497
        },
        {
          "duration": 0.0833329999999819,
          "durationTicks": 120,
          "midi": 70,
          "name": "A#4",
          "ticks": 233160,
          "time": 162.249353,
          "velocity": 0.7874015748031497
        },
        {
          "duration": 0.08333300000001032,
          "durationTicks": 120,
          "midi": 68,
          "name": "G#4",
          "ticks": 233280,
          "time": 162.332686,
          "velocity": 0.7874015748031497
        },
        {
          "duration": 0.16666600000002063,
          "durationTicks": 240,
          "midi": 51,
          "name": "D#3",
          "ticks": 233280,
          "time": 162.332686,
          "velocity": 0.7874015748031497
        },
        {
          "duration": 0.08333300000001032,
          "durationTicks": 120,
          "midi": 70,
          "name": "A#4",
          "ticks": 233400,
          "time": 162.416019,
          "velocity": 0.7874015748031497
        },
        {
          "duration": 0.1666659999999922,
          "durationTicks": 240,
          "midi": 73,
          "name": "C#5",
          "ticks": 233520,
          "time": 162.49935200000002,
          "velocity": 0.7874015748031497
        },
        {
          "duration": 0.1666659999999922,
          "durationTicks": 240,
          "midi": 39,
          "name": "D#2",
          "ticks": 233520,
          "time": 162.49935200000002,
          "velocity": 0.7874015748031497
        },
        {
          "duration": 0.1666659999999922,
          "durationTicks": 240,
          "midi": 70,
          "name": "A#4",
          "ticks": 233760,
          "time": 162.666018,
          "velocity": 0.7874015748031497
        },
        {
          "duration": 0.1666659999999922,
          "durationTicks": 240,
          "midi": 51,
          "name": "D#3",
          "ticks": 233760,
          "time": 162.666018,
          "velocity": 0.7874015748031497
        },
        {
          "duration": 0.16666600000002063,
          "durationTicks": 240,
          "midi": 68,
          "name": "G#4",
          "ticks": 234000,
          "time": 162.832684,
          "velocity": 0.7874015748031497
        },
        {
          "duration": 0.16666600000002063,
          "durationTicks": 240,
          "midi": 37,
          "name": "C#2",
          "ticks": 234000,
          "time": 162.832684,
          "velocity": 0.7874015748031497
        },
        {
          "duration": 0.1666659999999922,
          "durationTicks": 240,
          "midi": 70,
          "name": "A#4",
          "ticks": 234240,
          "time": 162.99935000000002,
          "velocity": 0.7874015748031497
        },
        {
          "duration": 0.1666659999999922,
          "durationTicks": 240,
          "midi": 49,
          "name": "C#3",
          "ticks": 234240,
          "time": 162.99935000000002,
          "velocity": 0.7874015748031497
        },
        {
          "duration": 0.1666659999999922,
          "durationTicks": 240,
          "midi": 58,
          "name": "A#3",
          "ticks": 234480,
          "time": 163.166016,
          "velocity": 0.7874015748031497
        },
        {
          "duration": 0.1666659999999922,
          "durationTicks": 240,
          "midi": 35,
          "name": "B1",
          "ticks": 234480,
          "time": 163.166016,
          "velocity": 0.7874015748031497
        },
        {
          "duration": 0.1666659999999922,
          "durationTicks": 240,
          "midi": 66,
          "name": "F#4",
          "ticks": 234720,
          "time": 163.332682,
          "velocity": 0.7874015748031497
        },
        {
          "duration": 0.1666659999999922,
          "durationTicks": 240,
          "midi": 47,
          "name": "B2",
          "ticks": 234720,
          "time": 163.332682,
          "velocity": 0.7874015748031497
        },
        {
          "duration": 0.08333300000001032,
          "durationTicks": 120,
          "midi": 65,
          "name": "F4",
          "ticks": 234960,
          "time": 163.499348,
          "velocity": 0.7874015748031497
        },
        {
          "duration": 0.16666600000002063,
          "durationTicks": 240,
          "midi": 35,
          "name": "B1",
          "ticks": 234960,
          "time": 163.499348,
          "velocity": 0.7874015748031497
        },
        {
          "duration": 0.08333300000001032,
          "durationTicks": 120,
          "midi": 66,
          "name": "F#4",
          "ticks": 235080,
          "time": 163.582681,
          "velocity": 0.7874015748031497
        },
        {
          "duration": 0.1666659999999922,
          "durationTicks": 240,
          "midi": 65,
          "name": "F4",
          "ticks": 235200,
          "time": 163.66601400000002,
          "velocity": 0.7874015748031497
        },
        {
          "duration": 0.1666659999999922,
          "durationTicks": 240,
          "midi": 47,
          "name": "B2",
          "ticks": 235200,
          "time": 163.66601400000002,
          "velocity": 0.7874015748031497
        },
        {
          "duration": 0.1666659999999922,
          "durationTicks": 240,
          "midi": 68,
          "name": "G#4",
          "ticks": 235440,
          "time": 163.83268,
          "velocity": 0.7874015748031497
        },
        {
          "duration": 0.1666659999999922,
          "durationTicks": 240,
          "midi": 37,
          "name": "C#2",
          "ticks": 235440,
          "time": 163.83268,
          "velocity": 0.7874015748031497
        },
        {
          "duration": 0.1666659999999922,
          "durationTicks": 240,
          "midi": 66,
          "name": "F#4",
          "ticks": 235680,
          "time": 163.999346,
          "velocity": 0.7874015748031497
        },
        {
          "duration": 0.1666659999999922,
          "durationTicks": 240,
          "midi": 49,
          "name": "C#3",
          "ticks": 235680,
          "time": 163.999346,
          "velocity": 0.7874015748031497
        },
        {
          "duration": 0.08333300000001032,
          "durationTicks": 120,
          "midi": 65,
          "name": "F4",
          "ticks": 235920,
          "time": 164.166012,
          "velocity": 0.7874015748031497
        },
        {
          "duration": 0.16666600000002063,
          "durationTicks": 240,
          "midi": 37,
          "name": "C#2",
          "ticks": 235920,
          "time": 164.166012,
          "velocity": 0.7874015748031497
        },
        {
          "duration": 0.08333300000001032,
          "durationTicks": 120,
          "midi": 66,
          "name": "F#4",
          "ticks": 236040,
          "time": 164.249345,
          "velocity": 0.7874015748031497
        },
        {
          "duration": 0.0833329999999819,
          "durationTicks": 120,
          "midi": 65,
          "name": "F4",
          "ticks": 236160,
          "time": 164.33267800000002,
          "velocity": 0.7874015748031497
        },
        {
          "duration": 0.1666659999999922,
          "durationTicks": 240,
          "midi": 49,
          "name": "C#3",
          "ticks": 236160,
          "time": 164.33267800000002,
          "velocity": 0.7874015748031497
        },
        {
          "duration": 0.08333300000001032,
          "durationTicks": 120,
          "midi": 61,
          "name": "C#4",
          "ticks": 236280,
          "time": 164.416011,
          "velocity": 0.7874015748031497
        },
        {
          "duration": 0.1666659999999922,
          "durationTicks": 240,
          "midi": 63,
          "name": "D#4",
          "ticks": 236400,
          "time": 164.499344,
          "velocity": 0.7874015748031497
        },
        {
          "duration": 0.1666659999999922,
          "durationTicks": 240,
          "midi": 39,
          "name": "D#2",
          "ticks": 236400,
          "time": 164.499344,
          "velocity": 0.7874015748031497
        },
        {
          "duration": 0.16666600000002063,
          "durationTicks": 240,
          "midi": 70,
          "name": "A#4",
          "ticks": 236640,
          "time": 164.66601,
          "velocity": 0.7874015748031497
        },
        {
          "duration": 0.16666600000002063,
          "durationTicks": 240,
          "midi": 51,
          "name": "D#3",
          "ticks": 236640,
          "time": 164.66601,
          "velocity": 0.7874015748031497
        },
        {
          "duration": 0.0833329999999819,
          "durationTicks": 120,
          "midi": 68,
          "name": "G#4",
          "ticks": 236880,
          "time": 164.83267600000002,
          "velocity": 0.7874015748031497
        },
        {
          "duration": 0.1666659999999922,
          "durationTicks": 240,
          "midi": 41,
          "name": "F2",
          "ticks": 236880,
          "time": 164.83267600000002,
          "velocity": 0.7874015748031497
        },
        {
          "duration": 0.08333300000001032,
          "durationTicks": 120,
          "midi": 70,
          "name": "A#4",
          "ticks": 237000,
          "time": 164.916009,
          "velocity": 0.7874015748031497
        },
        {
          "duration": 0.0833329999999819,
          "durationTicks": 120,
          "midi": 68,
          "name": "G#4",
          "ticks": 237120,
          "time": 164.999342,
          "velocity": 0.7874015748031497
        },
        {
          "duration": 0.1666659999999922,
          "durationTicks": 240,
          "midi": 53,
          "name": "F3",
          "ticks": 237120,
          "time": 164.999342,
          "velocity": 0.7874015748031497
        },
        {
          "duration": 0.08333300000001032,
          "durationTicks": 120,
          "midi": 70,
          "name": "A#4",
          "ticks": 237240,
          "time": 165.082675,
          "velocity": 0.7874015748031497
        },
        {
          "duration": 0.1666659999999922,
          "durationTicks": 240,
          "midi": 74,
          "name": "D5",
          "ticks": 237360,
          "time": 165.166008,
          "velocity": 0.7874015748031497
        },
        {
          "duration": 0.1666659999999922,
          "durationTicks": 240,
          "midi": 42,
          "name": "F#2",
          "ticks": 237360,
          "time": 165.166008,
          "velocity": 0.7874015748031497
        },
        {
          "duration": 0.16666600000002063,
          "durationTicks": 240,
          "midi": 70,
          "name": "A#4",
          "ticks": 237600,
          "time": 165.332674,
          "velocity": 0.7874015748031497
        },
        {
          "duration": 0.16666600000002063,
          "durationTicks": 240,
          "midi": 54,
          "name": "F#3",
          "ticks": 237600,
          "time": 165.332674,
          "velocity": 0.7874015748031497
        },
        {
          "duration": 0.1666659999999922,
          "durationTicks": 240,
          "midi": 74,
          "name": "D5",
          "ticks": 237840,
          "time": 165.49934000000002,
          "velocity": 0.7874015748031497
        },
        {
          "duration": 0.1666659999999922,
          "durationTicks": 240,
          "midi": 44,
          "name": "G#2",
          "ticks": 237840,
          "time": 165.49934000000002,
          "velocity": 0.7874015748031497
        },
        {
          "duration": 0.1666659999999922,
          "durationTicks": 240,
          "midi": 77,
          "name": "F5",
          "ticks": 238080,
          "time": 165.666006,
          "velocity": 0.7874015748031497
        },
        {
          "duration": 0.1666659999999922,
          "durationTicks": 240,
          "midi": 56,
          "name": "G#3",
          "ticks": 238080,
          "time": 165.666006,
          "velocity": 0.7874015748031497
        },
        {
          "duration": 0.49999800000000505,
          "durationTicks": 720,
          "midi": 75,
          "name": "D#5",
          "ticks": 238320,
          "time": 165.832672,
          "velocity": 0.7874015748031497
        },
        {
          "duration": 0.1666659999999922,
          "durationTicks": 240,
          "midi": 35,
          "name": "B1",
          "ticks": 238320,
          "time": 165.832672,
          "velocity": 0.7874015748031497
        },
        {
          "duration": 0.16666600000002063,
          "durationTicks": 240,
          "midi": 47,
          "name": "B2",
          "ticks": 238560,
          "time": 165.999338,
          "velocity": 0.7874015748031497
        },
        {
          "duration": 0.1666659999999922,
          "durationTicks": 240,
          "midi": 35,
          "name": "B1",
          "ticks": 238800,
          "time": 166.16600400000002,
          "velocity": 0.7874015748031497
        },
        {
          "duration": 0.08333300000001032,
          "durationTicks": 120,
          "midi": 75,
          "name": "D#5",
          "ticks": 239040,
          "time": 166.33267,
          "velocity": 0.7874015748031497
        },
        {
          "duration": 0.1666659999999922,
          "durationTicks": 240,
          "midi": 47,
          "name": "B2",
          "ticks": 239040,
          "time": 166.33267,
          "velocity": 0.7874015748031497
        },
        {
          "duration": 0.0833329999999819,
          "durationTicks": 120,
          "midi": 70,
          "name": "A#4",
          "ticks": 239160,
          "time": 166.41600300000002,
          "velocity": 0.7874015748031497
        },
        {
          "duration": 0.16666600000002063,
          "durationTicks": 240,
          "midi": 70,
          "name": "A#4",
          "ticks": 239280,
          "time": 166.499336,
          "velocity": 0.7874015748031497
        },
        {
          "duration": 0.16666600000002063,
          "durationTicks": 240,
          "midi": 37,
          "name": "C#2",
          "ticks": 239280,
          "time": 166.499336,
          "velocity": 0.7874015748031497
        },
        {
          "duration": 0.1666659999999922,
          "durationTicks": 240,
          "midi": 73,
          "name": "C#5",
          "ticks": 239520,
          "time": 166.66600200000002,
          "velocity": 0.7874015748031497
        },
        {
          "duration": 0.1666659999999922,
          "durationTicks": 240,
          "midi": 49,
          "name": "C#3",
          "ticks": 239520,
          "time": 166.66600200000002,
          "velocity": 0.7874015748031497
        },
        {
          "duration": 0.1666659999999922,
          "durationTicks": 240,
          "midi": 73,
          "name": "C#5",
          "ticks": 239760,
          "time": 166.832668,
          "velocity": 0.7874015748031497
        },
        {
          "duration": 0.1666659999999922,
          "durationTicks": 240,
          "midi": 37,
          "name": "C#2",
          "ticks": 239760,
          "time": 166.832668,
          "velocity": 0.7874015748031497
        },
        {
          "duration": 0.33333200000001284,
          "durationTicks": 480,
          "midi": 75,
          "name": "D#5",
          "ticks": 240000,
          "time": 166.999334,
          "velocity": 0.7874015748031497
        },
        {
          "duration": 0.1666659999999922,
          "durationTicks": 240,
          "midi": 49,
          "name": "C#3",
          "ticks": 240000,
          "time": 166.999334,
          "velocity": 0.7874015748031497
        },
        {
          "duration": 0.16666600000002063,
          "durationTicks": 240,
          "midi": 39,
          "name": "D#2",
          "ticks": 240240,
          "time": 167.166,
          "velocity": 0.7874015748031497
        },
        {
          "duration": 0.1666659999999922,
          "durationTicks": 240,
          "midi": 70,
          "name": "A#4",
          "ticks": 240480,
          "time": 167.33266600000002,
          "velocity": 0.7874015748031497
        },
        {
          "duration": 0.1666659999999922,
          "durationTicks": 240,
          "midi": 51,
          "name": "D#3",
          "ticks": 240480,
          "time": 167.33266600000002,
          "velocity": 0.7874015748031497
        },
        {
          "duration": 0.1666659999999922,
          "durationTicks": 240,
          "midi": 73,
          "name": "C#5",
          "ticks": 240720,
          "time": 167.499332,
          "velocity": 0.7874015748031497
        },
        {
          "duration": 0.1666659999999922,
          "durationTicks": 240,
          "midi": 39,
          "name": "D#2",
          "ticks": 240720,
          "time": 167.499332,
          "velocity": 0.7874015748031497
        },
        {
          "duration": 0.08333300000001032,
          "durationTicks": 120,
          "midi": 75,
          "name": "D#5",
          "ticks": 240960,
          "time": 167.665998,
          "velocity": 0.7874015748031497
        },
        {
          "duration": 0.16666600000002063,
          "durationTicks": 240,
          "midi": 51,
          "name": "D#3",
          "ticks": 240960,
          "time": 167.665998,
          "velocity": 0.7874015748031497
        },
        {
          "duration": 0.08333300000001032,
          "durationTicks": 120,
          "midi": 70,
          "name": "A#4",
          "ticks": 241080,
          "time": 167.749331,
          "velocity": 0.7874015748031497
        },
        {
          "duration": 0.0833329999999819,
          "durationTicks": 120,
          "midi": 70,
          "name": "A#4",
          "ticks": 241200,
          "time": 167.83266400000002,
          "velocity": 0.7874015748031497
        },
        {
          "duration": 0.1666659999999922,
          "durationTicks": 240,
          "midi": 39,
          "name": "D#2",
          "ticks": 241200,
          "time": 167.83266400000002,
          "velocity": 0.7874015748031497
        },
        {
          "duration": 0.08333300000001032,
          "durationTicks": 120,
          "midi": 73,
          "name": "C#5",
          "ticks": 241320,
          "time": 167.915997,
          "velocity": 0.7874015748031497
        },
        {
          "duration": 0.0833329999999819,
          "durationTicks": 120,
          "midi": 68,
          "name": "G#4",
          "ticks": 241440,
          "time": 167.99933000000001,
          "velocity": 0.7874015748031497
        },
        {
          "duration": 0.1666659999999922,
          "durationTicks": 240,
          "midi": 51,
          "name": "D#3",
          "ticks": 241440,
          "time": 167.99933000000001,
          "velocity": 0.7874015748031497
        },
        {
          "duration": 0.08333300000001032,
          "durationTicks": 120,
          "midi": 70,
          "name": "A#4",
          "ticks": 241560,
          "time": 168.082663,
          "velocity": 0.7874015748031497
        },
        {
          "duration": 0.1666659999999922,
          "durationTicks": 240,
          "midi": 66,
          "name": "F#4",
          "ticks": 241680,
          "time": 168.165996,
          "velocity": 0.7874015748031497
        },
        {
          "duration": 0.1666659999999922,
          "durationTicks": 240,
          "midi": 37,
          "name": "C#2",
          "ticks": 241680,
          "time": 168.165996,
          "velocity": 0.7874015748031497
        },
        {
          "duration": 0.16666600000002063,
          "durationTicks": 240,
          "midi": 67,
          "name": "G4",
          "ticks": 241920,
          "time": 168.332662,
          "velocity": 0.7874015748031497
        },
        {
          "duration": 0.16666600000002063,
          "durationTicks": 240,
          "midi": 49,
          "name": "C#3",
          "ticks": 241920,
          "time": 168.332662,
          "velocity": 0.7874015748031497
        },
        {
          "duration": 0.1666659999999922,
          "durationTicks": 240,
          "midi": 68,
          "name": "G#4",
          "ticks": 242160,
          "time": 168.49932800000002,
          "velocity": 0.7874015748031497
        },
        {
          "duration": 0.1666659999999922,
          "durationTicks": 240,
          "midi": 32,
          "name": "G#1",
          "ticks": 242160,
          "time": 168.49932800000002,
          "velocity": 0.7874015748031497
        },
        {
          "duration": 0.08333300000001032,
          "durationTicks": 120,
          "midi": 59,
          "name": "B3",
          "ticks": 242400,
          "time": 168.665994,
          "velocity": 0.7874015748031497
        },
        {
          "duration": 0.1666659999999922,
          "durationTicks": 240,
          "midi": 44,
          "name": "G#2",
          "ticks": 242400,
          "time": 168.665994,
          "velocity": 0.7874015748031497
        },
        {
          "duration": 0.0833329999999819,
          "durationTicks": 120,
          "midi": 68,
          "name": "G#4",
          "ticks": 242520,
          "time": 168.74932700000002,
          "velocity": 0.7874015748031497
        },
        {
          "duration": 0.1666659999999922,
          "durationTicks": 240,
          "midi": 59,
          "name": "B3",
          "ticks": 242640,
          "time": 168.83266,
          "velocity": 0.7874015748031497
        },
        {
          "duration": 0.16666600000002063,
          "durationTicks": 240,
          "midi": 68,
          "name": "G#4",
          "ticks": 242880,
          "time": 168.999326,
          "velocity": 0.7874015748031497
        },
        {
          "duration": 0.1666659999999922,
          "durationTicks": 240,
          "midi": 70,
          "name": "A#4",
          "ticks": 243120,
          "time": 169.16599200000002,
          "velocity": 0.7874015748031497
        },
        {
          "duration": 0.1666659999999922,
          "durationTicks": 240,
          "midi": 34,
          "name": "A#1",
          "ticks": 243120,
          "time": 169.16599200000002,
          "velocity": 0.7874015748031497
        },
        {
          "duration": 0.08333300000001032,
          "durationTicks": 120,
          "midi": 78,
          "name": "F#5",
          "ticks": 243360,
          "time": 169.332658,
          "velocity": 0.7874015748031497
        },
        {
          "duration": 0.1666659999999922,
          "durationTicks": 240,
          "midi": 46,
          "name": "A#2",
          "ticks": 243360,
          "time": 169.332658,
          "velocity": 0.7874015748031497
        },
        {
          "duration": 0.0833329999999819,
          "durationTicks": 120,
          "midi": 78,
          "name": "F#5",
          "ticks": 243480,
          "time": 169.41599100000002,
          "velocity": 0.7874015748031497
        },
        {
          "duration": 0.16666600000002063,
          "durationTicks": 240,
          "midi": 77,
          "name": "F5",
          "ticks": 243600,
          "time": 169.499324,
          "velocity": 0.7874015748031497
        },
        {
          "duration": 0.1666659999999922,
          "durationTicks": 240,
          "midi": 73,
          "name": "C#5",
          "ticks": 243840,
          "time": 169.66599000000002,
          "velocity": 0.7874015748031497
        },
        {
          "duration": 1.3333279999999945,
          "durationTicks": 1920,
          "midi": 75,
          "name": "D#5",
          "ticks": 244080,
          "time": 169.83265600000001,
          "velocity": 0.7874015748031497
        },
        {
          "duration": 0.1666659999999922,
          "durationTicks": 240,
          "midi": 27,
          "name": "D#1",
          "ticks": 244080,
          "time": 169.83265600000001,
          "velocity": 0.7874015748031497
        },
        {
          "duration": 0.1666659999999922,
          "durationTicks": 240,
          "midi": 39,
          "name": "D#2",
          "ticks": 244320,
          "time": 169.999322,
          "velocity": 0.7874015748031497
        },
        {
          "duration": 0.16666600000002063,
          "durationTicks": 240,
          "midi": 29,
          "name": "F1",
          "ticks": 244560,
          "time": 170.165988,
          "velocity": 0.7874015748031497
        },
        {
          "duration": 0.1666659999999922,
          "durationTicks": 240,
          "midi": 41,
          "name": "F2",
          "ticks": 244800,
          "time": 170.33265400000002,
          "velocity": 0.7874015748031497
        },
        {
          "duration": 0.1666659999999922,
          "durationTicks": 240,
          "midi": 30,
          "name": "F#1",
          "ticks": 245040,
          "time": 170.49932,
          "velocity": 0.7874015748031497
        },
        {
          "duration": 0.1666659999999922,
          "durationTicks": 240,
          "midi": 42,
          "name": "F#2",
          "ticks": 245280,
          "time": 170.665986,
          "velocity": 0.7874015748031497
        },
        {
          "duration": 0.16666600000002063,
          "durationTicks": 240,
          "midi": 32,
          "name": "G#1",
          "ticks": 245520,
          "time": 170.832652,
          "velocity": 0.7874015748031497
        },
        {
          "duration": 0.1666659999999922,
          "durationTicks": 240,
          "midi": 44,
          "name": "G#2",
          "ticks": 245760,
          "time": 170.99931800000002,
          "velocity": 0.7874015748031497
        },
        {
          "duration": 0.33333200000001284,
          "durationTicks": 480,
          "midi": 70,
          "name": "A#4",
          "ticks": 246000,
          "time": 171.165984,
          "velocity": 0.7874015748031497
        },
        {
          "duration": 0.1666659999999922,
          "durationTicks": 240,
          "midi": 35,
          "name": "B1",
          "ticks": 246000,
          "time": 171.165984,
          "velocity": 0.7874015748031497
        },
        {
          "duration": 0.16666600000002063,
          "durationTicks": 240,
          "midi": 47,
          "name": "B2",
          "ticks": 246240,
          "time": 171.33265,
          "velocity": 0.7874015748031497
        },
        {
          "duration": 0.3333319999999844,
          "durationTicks": 480,
          "midi": 78,
          "name": "F#5",
          "ticks": 246480,
          "time": 171.49931600000002,
          "velocity": 0.7874015748031497
        },
        {
          "duration": 0.1666659999999922,
          "durationTicks": 240,
          "midi": 35,
          "name": "B1",
          "ticks": 246480,
          "time": 171.49931600000002,
          "velocity": 0.7874015748031497
        },
        {
          "duration": 0.1666659999999922,
          "durationTicks": 240,
          "midi": 47,
          "name": "B2",
          "ticks": 246720,
          "time": 171.665982,
          "velocity": 0.7874015748031497
        },
        {
          "duration": 0.1666659999999922,
          "durationTicks": 240,
          "midi": 77,
          "name": "F5",
          "ticks": 246960,
          "time": 171.832648,
          "velocity": 0.7874015748031497
        },
        {
          "duration": 0.1666659999999922,
          "durationTicks": 240,
          "midi": 35,
          "name": "B1",
          "ticks": 246960,
          "time": 171.832648,
          "velocity": 0.7874015748031497
        },
        {
          "duration": 0.33333200000001284,
          "durationTicks": 480,
          "midi": 78,
          "name": "F#5",
          "ticks": 247200,
          "time": 171.999314,
          "velocity": 0.7874015748031497
        },
        {
          "duration": 0.16666600000002063,
          "durationTicks": 240,
          "midi": 47,
          "name": "B2",
          "ticks": 247200,
          "time": 171.999314,
          "velocity": 0.7874015748031497
        },
        {
          "duration": 0.1666659999999922,
          "durationTicks": 240,
          "midi": 35,
          "name": "B1",
          "ticks": 247440,
          "time": 172.16598000000002,
          "velocity": 0.7874015748031497
        },
        {
          "duration": 0.49999800000000505,
          "durationTicks": 720,
          "midi": 80,
          "name": "G#5",
          "ticks": 247680,
          "time": 172.332646,
          "velocity": 0.7874015748031497
        },
        {
          "duration": 0.1666659999999922,
          "durationTicks": 240,
          "midi": 47,
          "name": "B2",
          "ticks": 247680,
          "time": 172.332646,
          "velocity": 0.7874015748031497
        },
        {
          "duration": 0.1666659999999922,
          "durationTicks": 240,
          "midi": 37,
          "name": "C#2",
          "ticks": 247920,
          "time": 172.499312,
          "velocity": 0.7874015748031497
        },
        {
          "duration": 0.16666600000002063,
          "durationTicks": 240,
          "midi": 49,
          "name": "C#3",
          "ticks": 248160,
          "time": 172.665978,
          "velocity": 0.7874015748031497
        },
        {
          "duration": 0.3333319999999844,
          "durationTicks": 480,
          "midi": 78,
          "name": "F#5",
          "ticks": 248400,
          "time": 172.83264400000002,
          "velocity": 0.7874015748031497
        },
        {
          "duration": 0.1666659999999922,
          "durationTicks": 240,
          "midi": 37,
          "name": "C#2",
          "ticks": 248400,
          "time": 172.83264400000002,
          "velocity": 0.7874015748031497
        },
        {
          "duration": 0.1666659999999922,
          "durationTicks": 240,
          "midi": 49,
          "name": "C#3",
          "ticks": 248640,
          "time": 172.99931,
          "velocity": 0.7874015748031497
        },
        {
          "duration": 0.33333200000001284,
          "durationTicks": 480,
          "midi": 77,
          "name": "F5",
          "ticks": 248880,
          "time": 173.165976,
          "velocity": 0.7874015748031497
        },
        {
          "duration": 0.16666600000002063,
          "durationTicks": 240,
          "midi": 37,
          "name": "C#2",
          "ticks": 248880,
          "time": 173.165976,
          "velocity": 0.7874015748031497
        },
        {
          "duration": 0.1666659999999922,
          "durationTicks": 240,
          "midi": 49,
          "name": "C#3",
          "ticks": 249120,
          "time": 173.33264200000002,
          "velocity": 0.7874015748031497
        },
        {
          "duration": 0.1666659999999922,
          "durationTicks": 240,
          "midi": 73,
          "name": "C#5",
          "ticks": 249360,
          "time": 173.499308,
          "velocity": 0.7874015748031497
        },
        {
          "duration": 0.1666659999999922,
          "durationTicks": 240,
          "midi": 37,
          "name": "C#2",
          "ticks": 249360,
          "time": 173.499308,
          "velocity": 0.7874015748031497
        },
        {
          "duration": 0.1666659999999922,
          "durationTicks": 240,
          "midi": 74,
          "name": "D5",
          "ticks": 249600,
          "time": 173.665974,
          "velocity": 0.7874015748031497
        },
        {
          "duration": 0.1666659999999922,
          "durationTicks": 240,
          "midi": 49,
          "name": "C#3",
          "ticks": 249600,
          "time": 173.665974,
          "velocity": 0.7874015748031497
        },
        {
          "duration": 0.33333200000001284,
          "durationTicks": 480,
          "midi": 75,
          "name": "D#5",
          "ticks": 249840,
          "time": 173.83264,
          "velocity": 0.7874015748031497
        },
        {
          "duration": 0.16666600000002063,
          "durationTicks": 240,
          "midi": 39,
          "name": "D#2",
          "ticks": 249840,
          "time": 173.83264,
          "velocity": 0.7874015748031497
        },
        {
          "duration": 0.1666659999999922,
          "durationTicks": 240,
          "midi": 51,
          "name": "D#3",
          "ticks": 250080,
          "time": 173.99930600000002,
          "velocity": 0.7874015748031497
        },
        {
          "duration": 0.3333319999999844,
          "durationTicks": 480,
          "midi": 82,
          "name": "A#5",
          "ticks": 250320,
          "time": 174.165972,
          "velocity": 0.7874015748031497
        },
        {
          "duration": 0.1666659999999922,
          "durationTicks": 240,
          "midi": 39,
          "name": "D#2",
          "ticks": 250320,
          "time": 174.165972,
          "velocity": 0.7874015748031497
        },
        {
          "duration": 0.1666659999999922,
          "durationTicks": 240,
          "midi": 51,
          "name": "D#3",
          "ticks": 250560,
          "time": 174.332638,
          "velocity": 0.7874015748031497
        },
        {
          "duration": 0.16666600000002063,
          "durationTicks": 240,
          "midi": 80,
          "name": "G#5",
          "ticks": 250800,
          "time": 174.499304,
          "velocity": 0.7874015748031497
        },
        {
          "duration": 0.16666600000002063,
          "durationTicks": 240,
          "midi": 39,
          "name": "D#2",
          "ticks": 250800,
          "time": 174.499304,
          "velocity": 0.7874015748031497
        },
        {
          "duration": 0.3333319999999844,
          "durationTicks": 480,
          "midi": 82,
          "name": "A#5",
          "ticks": 251040,
          "time": 174.66597000000002,
          "velocity": 0.7874015748031497
        },
        {
          "duration": 0.1666659999999922,
          "durationTicks": 240,
          "midi": 51,
          "name": "D#3",
          "ticks": 251040,
          "time": 174.66597000000002,
          "velocity": 0.7874015748031497
        },
        {
          "duration": 0.1666659999999922,
          "durationTicks": 240,
          "midi": 39,
          "name": "D#2",
          "ticks": 251280,
          "time": 174.832636,
          "velocity": 0.7874015748031497
        },
        {
          "duration": 0.49999800000000505,
          "durationTicks": 720,
          "midi": 85,
          "name": "C#6",
          "ticks": 251520,
          "time": 174.999302,
          "velocity": 0.7874015748031497
        },
        {
          "duration": 0.16666600000002063,
          "durationTicks": 240,
          "midi": 51,
          "name": "D#3",
          "ticks": 251520,
          "time": 174.999302,
          "velocity": 0.7874015748031497
        },
        {
          "duration": 0.1666659999999922,
          "durationTicks": 240,
          "midi": 39,
          "name": "D#2",
          "ticks": 251760,
          "time": 175.16596800000002,
          "velocity": 0.7874015748031497
        },
        {
          "duration": 0.1666659999999922,
          "durationTicks": 240,
          "midi": 51,
          "name": "D#3",
          "ticks": 252000,
          "time": 175.332634,
          "velocity": 0.7874015748031497
        },
        {
          "duration": 0.33333200000001284,
          "durationTicks": 480,
          "midi": 83,
          "name": "B5",
          "ticks": 252240,
          "time": 175.4993,
          "velocity": 0.7874015748031497
        },
        {
          "duration": 0.1666659999999922,
          "durationTicks": 240,
          "midi": 39,
          "name": "D#2",
          "ticks": 252240,
          "time": 175.4993,
          "velocity": 0.7874015748031497
        },
        {
          "duration": 0.16666600000002063,
          "durationTicks": 240,
          "midi": 51,
          "name": "D#3",
          "ticks": 252480,
          "time": 175.665966,
          "velocity": 0.7874015748031497
        },
        {
          "duration": 0.3333319999999844,
          "durationTicks": 480,
          "midi": 82,
          "name": "A#5",
          "ticks": 252720,
          "time": 175.83263200000002,
          "velocity": 0.7874015748031497
        },
        {
          "duration": 0.1666659999999922,
          "durationTicks": 240,
          "midi": 39,
          "name": "D#2",
          "ticks": 252720,
          "time": 175.83263200000002,
          "velocity": 0.7874015748031497
        },
        {
          "duration": 0.1666659999999922,
          "durationTicks": 240,
          "midi": 51,
          "name": "D#3",
          "ticks": 252960,
          "time": 175.999298,
          "velocity": 0.7874015748031497
        },
        {
          "duration": 0.33333200000001284,
          "durationTicks": 480,
          "midi": 80,
          "name": "G#5",
          "ticks": 253200,
          "time": 176.165964,
          "velocity": 0.7874015748031497
        },
        {
          "duration": 0.16666600000002063,
          "durationTicks": 240,
          "midi": 37,
          "name": "C#2",
          "ticks": 253200,
          "time": 176.165964,
          "velocity": 0.7874015748031497
        },
        {
          "duration": 0.1666659999999922,
          "durationTicks": 240,
          "midi": 49,
          "name": "C#3",
          "ticks": 253440,
          "time": 176.33263000000002,
          "velocity": 0.7874015748031497
        },
        {
          "duration": 0.6666639999999973,
          "durationTicks": 960,
          "midi": 78,
          "name": "F#5",
          "ticks": 253680,
          "time": 176.49929600000002,
          "velocity": 0.7874015748031497
        },
        {
          "duration": 0.1666659999999922,
          "durationTicks": 240,
          "midi": 35,
          "name": "B1",
          "ticks": 253680,
          "time": 176.49929600000002,
          "velocity": 0.7874015748031497
        },
        {
          "duration": 0.1666659999999922,
          "durationTicks": 240,
          "midi": 47,
          "name": "B2",
          "ticks": 253920,
          "time": 176.665962,
          "velocity": 0.7874015748031497
        },
        {
          "duration": 0.16666600000002063,
          "durationTicks": 240,
          "midi": 35,
          "name": "B1",
          "ticks": 254160,
          "time": 176.832628,
          "velocity": 0.7874015748031497
        },
        {
          "duration": 0.1666659999999922,
          "durationTicks": 240,
          "midi": 47,
          "name": "B2",
          "ticks": 254400,
          "time": 176.99929400000002,
          "velocity": 0.7874015748031497
        },
        {
          "duration": 0.1666659999999922,
          "durationTicks": 240,
          "midi": 77,
          "name": "F5",
          "ticks": 254640,
          "time": 177.16596,
          "velocity": 0.7874015748031497
        },
        {
          "duration": 0.1666659999999922,
          "durationTicks": 240,
          "midi": 35,
          "name": "B1",
          "ticks": 254640,
          "time": 177.16596,
          "velocity": 0.7874015748031497
        },
        {
          "duration": 0.33333200000001284,
          "durationTicks": 480,
          "midi": 78,
          "name": "F#5",
          "ticks": 254880,
          "time": 177.332626,
          "velocity": 0.7874015748031497
        },
        {
          "duration": 0.1666659999999922,
          "durationTicks": 240,
          "midi": 47,
          "name": "B2",
          "ticks": 254880,
          "time": 177.332626,
          "velocity": 0.7874015748031497
        },
        {
          "duration": 0.16666600000002063,
          "durationTicks": 240,
          "midi": 35,
          "name": "B1",
          "ticks": 255120,
          "time": 177.499292,
          "velocity": 0.7874015748031497
        },
        {
          "duration": 0.49999800000000505,
          "durationTicks": 720,
          "midi": 80,
          "name": "G#5",
          "ticks": 255360,
          "time": 177.66595800000002,
          "velocity": 0.7874015748031497
        },
        {
          "duration": 0.1666659999999922,
          "durationTicks": 240,
          "midi": 47,
          "name": "B2",
          "ticks": 255360,
          "time": 177.66595800000002,
          "velocity": 0.7874015748031497
        },
        {
          "duration": 0.1666659999999922,
          "durationTicks": 240,
          "midi": 37,
          "name": "C#2",
          "ticks": 255600,
          "time": 177.832624,
          "velocity": 0.7874015748031497
        },
        {
          "duration": 0.16666600000002063,
          "durationTicks": 240,
          "midi": 49,
          "name": "C#3",
          "ticks": 255840,
          "time": 177.99929,
          "velocity": 0.7874015748031497
        },
        {
          "duration": 0.3333319999999844,
          "durationTicks": 480,
          "midi": 78,
          "name": "F#5",
          "ticks": 256080,
          "time": 178.16595600000002,
          "velocity": 0.7874015748031497
        },
        {
          "duration": 0.1666659999999922,
          "durationTicks": 240,
          "midi": 37,
          "name": "C#2",
          "ticks": 256080,
          "time": 178.16595600000002,
          "velocity": 0.7874015748031497
        },
        {
          "duration": 0.1666659999999922,
          "durationTicks": 240,
          "midi": 49,
          "name": "C#3",
          "ticks": 256320,
          "time": 178.33262200000001,
          "velocity": 0.7874015748031497
        },
        {
          "duration": 0.33333200000001284,
          "durationTicks": 480,
          "midi": 77,
          "name": "F5",
          "ticks": 256560,
          "time": 178.499288,
          "velocity": 0.7874015748031497
        },
        {
          "duration": 0.1666659999999922,
          "durationTicks": 240,
          "midi": 37,
          "name": "C#2",
          "ticks": 256560,
          "time": 178.499288,
          "velocity": 0.7874015748031497
        },
        {
          "duration": 0.16666600000002063,
          "durationTicks": 240,
          "midi": 49,
          "name": "C#3",
          "ticks": 256800,
          "time": 178.665954,
          "velocity": 0.7874015748031497
        },
        {
          "duration": 0.1666659999999922,
          "durationTicks": 240,
          "midi": 73,
          "name": "C#5",
          "ticks": 257040,
          "time": 178.83262000000002,
          "velocity": 0.7874015748031497
        },
        {
          "duration": 0.1666659999999922,
          "durationTicks": 240,
          "midi": 68,
          "name": "G#4",
          "ticks": 257040,
          "time": 178.83262000000002,
          "velocity": 0.7874015748031497
        },
        {
          "duration": 0.1666659999999922,
          "durationTicks": 240,
          "midi": 37,
          "name": "C#2",
          "ticks": 257040,
          "time": 178.83262000000002,
          "velocity": 0.7874015748031497
        },
        {
          "duration": 0.1666659999999922,
          "durationTicks": 240,
          "midi": 74,
          "name": "D5",
          "ticks": 257280,
          "time": 178.999286,
          "velocity": 0.7874015748031497
        },
        {
          "duration": 0.1666659999999922,
          "durationTicks": 240,
          "midi": 69,
          "name": "A4",
          "ticks": 257280,
          "time": 178.999286,
          "velocity": 0.7874015748031497
        },
        {
          "duration": 0.1666659999999922,
          "durationTicks": 240,
          "midi": 49,
          "name": "C#3",
          "ticks": 257280,
          "time": 178.999286,
          "velocity": 0.7874015748031497
        },
        {
          "duration": 0.1666659999999922,
          "durationTicks": 240,
          "midi": 75,
          "name": "D#5",
          "ticks": 257520,
          "time": 179.165952,
          "velocity": 0.7874015748031497
        },
        {
          "duration": 0.1666659999999922,
          "durationTicks": 240,
          "midi": 70,
          "name": "A#4",
          "ticks": 257520,
          "time": 179.165952,
          "velocity": 0.7874015748031497
        },
        {
          "duration": 0.1666659999999922,
          "durationTicks": 240,
          "midi": 39,
          "name": "D#2",
          "ticks": 257520,
          "time": 179.165952,
          "velocity": 0.7874015748031497
        },
        {
          "duration": 0.16666600000002063,
          "durationTicks": 240,
          "midi": 73,
          "name": "C#5",
          "ticks": 257760,
          "time": 179.332618,
          "velocity": 0.7874015748031497
        },
        {
          "duration": 0.16666600000002063,
          "durationTicks": 240,
          "midi": 68,
          "name": "G#4",
          "ticks": 257760,
          "time": 179.332618,
          "velocity": 0.7874015748031497
        },
        {
          "duration": 0.16666600000002063,
          "durationTicks": 240,
          "midi": 51,
          "name": "D#3",
          "ticks": 257760,
          "time": 179.332618,
          "velocity": 0.7874015748031497
        },
        {
          "duration": 0.1666659999999922,
          "durationTicks": 240,
          "midi": 77,
          "name": "F5",
          "ticks": 258000,
          "time": 179.49928400000002,
          "velocity": 0.7874015748031497
        },
        {
          "duration": 0.1666659999999922,
          "durationTicks": 240,
          "midi": 73,
          "name": "C#5",
          "ticks": 258000,
          "time": 179.49928400000002,
          "velocity": 0.7874015748031497
        },
        {
          "duration": 0.1666659999999922,
          "durationTicks": 240,
          "midi": 39,
          "name": "D#2",
          "ticks": 258000,
          "time": 179.49928400000002,
          "velocity": 0.7874015748031497
        },
        {
          "duration": 0.33333200000001284,
          "durationTicks": 480,
          "midi": 78,
          "name": "F#5",
          "ticks": 258240,
          "time": 179.66595,
          "velocity": 0.7874015748031497
        },
        {
          "duration": 0.33333200000001284,
          "durationTicks": 480,
          "midi": 75,
          "name": "D#5",
          "ticks": 258240,
          "time": 179.66595,
          "velocity": 0.7874015748031497
        },
        {
          "duration": 0.1666659999999922,
          "durationTicks": 240,
          "midi": 51,
          "name": "D#3",
          "ticks": 258240,
          "time": 179.66595,
          "velocity": 0.7874015748031497
        },
        {
          "duration": 0.16666600000002063,
          "durationTicks": 240,
          "midi": 39,
          "name": "D#2",
          "ticks": 258480,
          "time": 179.832616,
          "velocity": 0.7874015748031497
        },
        {
          "duration": 0.1666659999999922,
          "durationTicks": 240,
          "midi": 75,
          "name": "D#5",
          "ticks": 258720,
          "time": 179.99928200000002,
          "velocity": 0.7874015748031497
        },
        {
          "duration": 0.1666659999999922,
          "durationTicks": 240,
          "midi": 70,
          "name": "A#4",
          "ticks": 258720,
          "time": 179.99928200000002,
          "velocity": 0.7874015748031497
        },
        {
          "duration": 0.1666659999999922,
          "durationTicks": 240,
          "midi": 51,
          "name": "D#3",
          "ticks": 258720,
          "time": 179.99928200000002,
          "velocity": 0.7874015748031497
        },
        {
          "duration": 0.1666659999999922,
          "durationTicks": 240,
          "midi": 80,
          "name": "G#5",
          "ticks": 258960,
          "time": 180.16594800000001,
          "velocity": 0.7874015748031497
        },
        {
          "duration": 0.1666659999999922,
          "durationTicks": 240,
          "midi": 77,
          "name": "F5",
          "ticks": 258960,
          "time": 180.16594800000001,
          "velocity": 0.7874015748031497
        },
        {
          "duration": 0.1666659999999922,
          "durationTicks": 240,
          "midi": 39,
          "name": "D#2",
          "ticks": 258960,
          "time": 180.16594800000001,
          "velocity": 0.7874015748031497
        },
        {
          "duration": 0.33333200000001284,
          "durationTicks": 480,
          "midi": 82,
          "name": "A#5",
          "ticks": 259200,
          "time": 180.332614,
          "velocity": 0.7874015748031497
        },
        {
          "duration": 0.33333200000001284,
          "durationTicks": 480,
          "midi": 78,
          "name": "F#5",
          "ticks": 259200,
          "time": 180.332614,
          "velocity": 0.7874015748031497
        },
        {
          "duration": 0.1666659999999922,
          "durationTicks": 240,
          "midi": 51,
          "name": "D#3",
          "ticks": 259200,
          "time": 180.332614,
          "velocity": 0.7874015748031497
        },
        {
          "duration": 0.16666600000002063,
          "durationTicks": 240,
          "midi": 39,
          "name": "D#2",
          "ticks": 259440,
          "time": 180.49928,
          "velocity": 0.7874015748031497
        },
        {
          "duration": 0.1666659999999922,
          "durationTicks": 240,
          "midi": 85,
          "name": "C#6",
          "ticks": 259680,
          "time": 180.66594600000002,
          "velocity": 0.7874015748031497
        },
        {
          "duration": 0.1666659999999922,
          "durationTicks": 240,
          "midi": 80,
          "name": "G#5",
          "ticks": 259680,
          "time": 180.66594600000002,
          "velocity": 0.7874015748031497
        },
        {
          "duration": 0.1666659999999922,
          "durationTicks": 240,
          "midi": 51,
          "name": "D#3",
          "ticks": 259680,
          "time": 180.66594600000002,
          "velocity": 0.7874015748031497
        },
        {
          "duration": 0.1666659999999922,
          "durationTicks": 240,
          "midi": 87,
          "name": "D#6",
          "ticks": 259920,
          "time": 180.832612,
          "velocity": 0.7874015748031497
        },
        {
          "duration": 0.1666659999999922,
          "durationTicks": 240,
          "midi": 82,
          "name": "A#5",
          "ticks": 259920,
          "time": 180.832612,
          "velocity": 0.7874015748031497
        },
        {
          "duration": 0.1666659999999922,
          "durationTicks": 240,
          "midi": 41,
          "name": "F2",
          "ticks": 259920,
          "time": 180.832612,
          "velocity": 0.7874015748031497
        },
        {
          "duration": 0.1666659999999922,
          "durationTicks": 240,
          "midi": 90,
          "name": "F#6",
          "ticks": 260160,
          "time": 180.999278,
          "velocity": 0.7874015748031497
        },
        {
          "duration": 0.1666659999999922,
          "durationTicks": 240,
          "midi": 87,
          "name": "D#6",
          "ticks": 260160,
          "time": 180.999278,
          "velocity": 0.7874015748031497
        },
        {
          "duration": 0.1666659999999922,
          "durationTicks": 240,
          "midi": 53,
          "name": "F3",
          "ticks": 260160,
          "time": 180.999278,
          "velocity": 0.7874015748031497
        },
        {
          "duration": 0.16666600000002063,
          "durationTicks": 240,
          "midi": 89,
          "name": "F6",
          "ticks": 260400,
          "time": 181.165944,
          "velocity": 0.7874015748031497
        },
        {
          "duration": 0.16666600000002063,
          "durationTicks": 240,
          "midi": 85,
          "name": "C#6",
          "ticks": 260400,
          "time": 181.165944,
          "velocity": 0.7874015748031497
        },
        {
          "duration": 0.16666600000002063,
          "durationTicks": 240,
          "midi": 42,
          "name": "F#2",
          "ticks": 260400,
          "time": 181.165944,
          "velocity": 0.7874015748031497
        },
        {
          "duration": 0.1666659999999922,
          "durationTicks": 240,
          "midi": 87,
          "name": "D#6",
          "ticks": 260640,
          "time": 181.33261000000002,
          "velocity": 0.7874015748031497
        },
        {
          "duration": 0.1666659999999922,
          "durationTicks": 240,
          "midi": 82,
          "name": "A#5",
          "ticks": 260640,
          "time": 181.33261000000002,
          "velocity": 0.7874015748031497
        },
        {
          "duration": 0.1666659999999922,
          "durationTicks": 240,
          "midi": 54,
          "name": "F#3",
          "ticks": 260640,
          "time": 181.33261000000002,
          "velocity": 0.7874015748031497
        },
        {
          "duration": 0.33333200000001284,
          "durationTicks": 480,
          "midi": 85,
          "name": "C#6",
          "ticks": 260880,
          "time": 181.499276,
          "velocity": 0.7874015748031497
        },
        {
          "duration": 0.33333200000001284,
          "durationTicks": 480,
          "midi": 80,
          "name": "G#5",
          "ticks": 260880,
          "time": 181.499276,
          "velocity": 0.7874015748031497
        },
        {
          "duration": 0.1666659999999922,
          "durationTicks": 240,
          "midi": 37,
          "name": "C#2",
          "ticks": 260880,
          "time": 181.499276,
          "velocity": 0.7874015748031497
        },
        {
          "duration": 0.16666600000002063,
          "durationTicks": 240,
          "midi": 49,
          "name": "C#3",
          "ticks": 261120,
          "time": 181.665942,
          "velocity": 0.7874015748031497
        },
        {
          "duration": 0.3333319999999844,
          "durationTicks": 480,
          "midi": 87,
          "name": "D#6",
          "ticks": 261360,
          "time": 181.83260800000002,
          "velocity": 0.7874015748031497
        },
        {
          "duration": 0.3333319999999844,
          "durationTicks": 480,
          "midi": 82,
          "name": "A#5",
          "ticks": 261360,
          "time": 181.83260800000002,
          "velocity": 0.7874015748031497
        },
        {
          "duration": 0.1666659999999922,
          "durationTicks": 240,
          "midi": 35,
          "name": "B1",
          "ticks": 261360,
          "time": 181.83260800000002,
          "velocity": 0.7874015748031497
        },
        {
          "duration": 0.1666659999999922,
          "durationTicks": 240,
          "midi": 47,
          "name": "B2",
          "ticks": 261600,
          "time": 181.999274,
          "velocity": 0.7874015748031497
        },
        {
          "duration": 0.33333200000001284,
          "durationTicks": 480,
          "midi": 90,
          "name": "F#6",
          "ticks": 261840,
          "time": 182.16594,
          "velocity": 0.7874015748031497
        },
        {
          "duration": 0.33333200000001284,
          "durationTicks": 480,
          "midi": 87,
          "name": "D#6",
          "ticks": 261840,
          "time": 182.16594,
          "velocity": 0.7874015748031497
        },
        {
          "duration": 0.1666659999999922,
          "durationTicks": 240,
          "midi": 35,
          "name": "B1",
          "ticks": 261840,
          "time": 182.16594,
          "velocity": 0.7874015748031497
        },
        {
          "duration": 0.16666600000002063,
          "durationTicks": 240,
          "midi": 47,
          "name": "B2",
          "ticks": 262080,
          "time": 182.332606,
          "velocity": 0.7874015748031497
        },
        {
          "duration": 0.1666659999999922,
          "durationTicks": 240,
          "midi": 89,
          "name": "F6",
          "ticks": 262320,
          "time": 182.49927200000002,
          "velocity": 0.7874015748031497
        },
        {
          "duration": 0.1666659999999922,
          "durationTicks": 240,
          "midi": 85,
          "name": "C#6",
          "ticks": 262320,
          "time": 182.49927200000002,
          "velocity": 0.7874015748031497
        },
        {
          "duration": 0.1666659999999922,
          "durationTicks": 240,
          "midi": 35,
          "name": "B1",
          "ticks": 262320,
          "time": 182.49927200000002,
          "velocity": 0.7874015748031497
        },
        {
          "duration": 0.1666659999999922,
          "durationTicks": 240,
          "midi": 87,
          "name": "D#6",
          "ticks": 262560,
          "time": 182.665938,
          "velocity": 0.7874015748031497
        },
        {
          "duration": 0.1666659999999922,
          "durationTicks": 240,
          "midi": 82,
          "name": "A#5",
          "ticks": 262560,
          "time": 182.665938,
          "velocity": 0.7874015748031497
        },
        {
          "duration": 0.1666659999999922,
          "durationTicks": 240,
          "midi": 47,
          "name": "B2",
          "ticks": 262560,
          "time": 182.665938,
          "velocity": 0.7874015748031497
        },
        {
          "duration": 0.1666659999999922,
          "durationTicks": 240,
          "midi": 35,
          "name": "B1",
          "ticks": 262800,
          "time": 182.832604,
          "velocity": 0.7874015748031497
        },
        {
          "duration": 1.333328000000023,
          "durationTicks": 1920,
          "midi": 87,
          "name": "D#6",
          "ticks": 263040,
          "time": 182.99927,
          "velocity": 0.7874015748031497
        },
        {
          "duration": 1.333328000000023,
          "durationTicks": 1920,
          "midi": 82,
          "name": "A#5",
          "ticks": 263040,
          "time": 182.99927,
          "velocity": 0.7874015748031497
        },
        {
          "duration": 0.16666600000002063,
          "durationTicks": 240,
          "midi": 47,
          "name": "B2",
          "ticks": 263040,
          "time": 182.99927,
          "velocity": 0.7874015748031497
        },
        {
          "duration": 0.1666659999999922,
          "durationTicks": 240,
          "midi": 37,
          "name": "C#2",
          "ticks": 263280,
          "time": 183.16593600000002,
          "velocity": 0.7874015748031497
        },
        {
          "duration": 0.1666659999999922,
          "durationTicks": 240,
          "midi": 49,
          "name": "C#3",
          "ticks": 263520,
          "time": 183.332602,
          "velocity": 0.7874015748031497
        },
        {
          "duration": 0.16666600000002063,
          "durationTicks": 240,
          "midi": 37,
          "name": "C#2",
          "ticks": 263760,
          "time": 183.499268,
          "velocity": 0.7874015748031497
        },
        {
          "duration": 0.1666659999999922,
          "durationTicks": 240,
          "midi": 49,
          "name": "C#3",
          "ticks": 264000,
          "time": 183.66593400000002,
          "velocity": 0.7874015748031497
        },
        {
          "duration": 0.1666659999999922,
          "durationTicks": 240,
          "midi": 37,
          "name": "C#2",
          "ticks": 264240,
          "time": 183.8326,
          "velocity": 0.7874015748031497
        },
        {
          "duration": 0.1666659999999922,
          "durationTicks": 240,
          "midi": 49,
          "name": "C#3",
          "ticks": 264480,
          "time": 183.999266,
          "velocity": 0.7874015748031497
        },
        {
          "duration": 0.16666600000002063,
          "durationTicks": 240,
          "midi": 37,
          "name": "C#2",
          "ticks": 264720,
          "time": 184.165932,
          "velocity": 0.7874015748031497
        },
        {
          "duration": 0.49999800000000505,
          "durationTicks": 720,
          "midi": 87,
          "name": "D#6",
          "ticks": 264960,
          "time": 184.33259800000002,
          "velocity": 0.7874015748031497
        },
        {
          "duration": 0.49999800000000505,
          "durationTicks": 720,
          "midi": 82,
          "name": "A#5",
          "ticks": 264960,
          "time": 184.33259800000002,
          "velocity": 0.7874015748031497
        },
        {
          "duration": 0.1666659999999922,
          "durationTicks": 240,
          "midi": 49,
          "name": "C#3",
          "ticks": 264960,
          "time": 184.33259800000002,
          "velocity": 0.7874015748031497
        },
        {
          "duration": 0.1666659999999922,
          "durationTicks": 240,
          "midi": 39,
          "name": "D#2",
          "ticks": 265200,
          "time": 184.499264,
          "velocity": 0.7874015748031497
        },
        {
          "duration": 0.16666600000002063,
          "durationTicks": 240,
          "midi": 51,
          "name": "D#3",
          "ticks": 265440,
          "time": 184.66593,
          "velocity": 0.7874015748031497
        },
        {
          "duration": 0.3333319999999844,
          "durationTicks": 480,
          "midi": 94,
          "name": "A#6",
          "ticks": 265680,
          "time": 184.83259600000002,
          "velocity": 0.7874015748031497
        },
        {
          "duration": 0.3333319999999844,
          "durationTicks": 480,
          "midi": 90,
          "name": "F#6",
          "ticks": 265680,
          "time": 184.83259600000002,
          "velocity": 0.7874015748031497
        },
        {
          "duration": 0.1666659999999922,
          "durationTicks": 240,
          "midi": 39,
          "name": "D#2",
          "ticks": 265680,
          "time": 184.83259600000002,
          "velocity": 0.7874015748031497
        },
        {
          "duration": 0.1666659999999922,
          "durationTicks": 240,
          "midi": 51,
          "name": "D#3",
          "ticks": 265920,
          "time": 184.99926200000002,
          "velocity": 0.7874015748031497
        },
        {
          "duration": 0.1666659999999922,
          "durationTicks": 240,
          "midi": 92,
          "name": "G#6",
          "ticks": 266160,
          "time": 185.165928,
          "velocity": 0.7874015748031497
        },
        {
          "duration": 0.1666659999999922,
          "durationTicks": 240,
          "midi": 89,
          "name": "F6",
          "ticks": 266160,
          "time": 185.165928,
          "velocity": 0.7874015748031497
        },
        {
          "duration": 0.1666659999999922,
          "durationTicks": 240,
          "midi": 39,
          "name": "D#2",
          "ticks": 266160,
          "time": 185.165928,
          "velocity": 0.7874015748031497
        },
        {
          "duration": 0.16666600000002063,
          "durationTicks": 240,
          "midi": 90,
          "name": "F#6",
          "ticks": 266400,
          "time": 185.332594,
          "velocity": 0.7874015748031497
        },
        {
          "duration": 0.16666600000002063,
          "durationTicks": 240,
          "midi": 87,
          "name": "D#6",
          "ticks": 266400,
          "time": 185.332594,
          "velocity": 0.7874015748031497
        },
        {
          "duration": 0.16666600000002063,
          "durationTicks": 240,
          "midi": 51,
          "name": "D#3",
          "ticks": 266400,
          "time": 185.332594,
          "velocity": 0.7874015748031497
        },
        {
          "duration": 0.1666659999999922,
          "durationTicks": 240,
          "midi": 89,
          "name": "F6",
          "ticks": 266640,
          "time": 185.49926000000002,
          "velocity": 0.7874015748031497
        },
        {
          "duration": 0.1666659999999922,
          "durationTicks": 240,
          "midi": 85,
          "name": "C#6",
          "ticks": 266640,
          "time": 185.49926000000002,
          "velocity": 0.7874015748031497
        },
        {
          "duration": 0.1666659999999922,
          "durationTicks": 240,
          "midi": 39,
          "name": "D#2",
          "ticks": 266640,
          "time": 185.49926000000002,
          "velocity": 0.7874015748031497
        },
        {
          "duration": 1.3333279999999945,
          "durationTicks": 1920,
          "midi": 90,
          "name": "F#6",
          "ticks": 266880,
          "time": 185.665926,
          "velocity": 0.7874015748031497
        },
        {
          "duration": 1.3333279999999945,
          "durationTicks": 1920,
          "midi": 87,
          "name": "D#6",
          "ticks": 266880,
          "time": 185.665926,
          "velocity": 0.7874015748031497
        },
        {
          "duration": 0.1666659999999922,
          "durationTicks": 240,
          "midi": 51,
          "name": "D#3",
          "ticks": 266880,
          "time": 185.665926,
          "velocity": 0.7874015748031497
        },
        {
          "duration": 0.1666659999999922,
          "durationTicks": 240,
          "midi": 39,
          "name": "D#2",
          "ticks": 267120,
          "time": 185.832592,
          "velocity": 0.7874015748031497
        },
        {
          "duration": 0.16666600000002063,
          "durationTicks": 240,
          "midi": 51,
          "name": "D#3",
          "ticks": 267360,
          "time": 185.999258,
          "velocity": 0.7874015748031497
        },
        {
          "duration": 0.1666659999999922,
          "durationTicks": 240,
          "midi": 39,
          "name": "D#2",
          "ticks": 267600,
          "time": 186.16592400000002,
          "velocity": 0.7874015748031497
        },
        {
          "duration": 0.1666659999999922,
          "durationTicks": 240,
          "midi": 51,
          "name": "D#3",
          "ticks": 267840,
          "time": 186.33259,
          "velocity": 0.7874015748031497
        },
        {
          "duration": 0.16666600000002063,
          "durationTicks": 240,
          "midi": 39,
          "name": "D#2",
          "ticks": 268080,
          "time": 186.499256,
          "velocity": 0.7874015748031497
        },
        {
          "duration": 0.1666659999999922,
          "durationTicks": 240,
          "midi": 51,
          "name": "D#3",
          "ticks": 268320,
          "time": 186.66592200000002,
          "velocity": 0.7874015748031497
        },
        {
          "duration": 0.1666659999999922,
          "durationTicks": 240,
          "midi": 37,
          "name": "C#2",
          "ticks": 268560,
          "time": 186.83258800000002,
          "velocity": 0.7874015748031497
        },
        {
          "duration": 0.49999800000000505,
          "durationTicks": 720,
          "midi": 90,
          "name": "F#6",
          "ticks": 268800,
          "time": 186.999254,
          "velocity": 0.7874015748031497
        },
        {
          "duration": 0.49999800000000505,
          "durationTicks": 720,
          "midi": 87,
          "name": "D#6",
          "ticks": 268800,
          "time": 186.999254,
          "velocity": 0.7874015748031497
        },
        {
          "duration": 0.1666659999999922,
          "durationTicks": 240,
          "midi": 49,
          "name": "C#3",
          "ticks": 268800,
          "time": 186.999254,
          "velocity": 0.7874015748031497
        },
        {
          "duration": 0.16666600000002063,
          "durationTicks": 240,
          "midi": 35,
          "name": "B1",
          "ticks": 269040,
          "time": 187.16592,
          "velocity": 0.7874015748031497
        },
        {
          "duration": 0.1666659999999922,
          "durationTicks": 240,
          "midi": 47,
          "name": "B2",
          "ticks": 269280,
          "time": 187.33258600000002,
          "velocity": 0.7874015748031497
        },
        {
          "duration": 0.3333319999999844,
          "durationTicks": 480,
          "midi": 89,
          "name": "F6",
          "ticks": 269520,
          "time": 187.499252,
          "velocity": 0.7874015748031497
        },
        {
          "duration": 0.3333319999999844,
          "durationTicks": 480,
          "midi": 85,
          "name": "C#6",
          "ticks": 269520,
          "time": 187.499252,
          "velocity": 0.7874015748031497
        },
        {
          "duration": 0.1666659999999922,
          "durationTicks": 240,
          "midi": 35,
          "name": "B1",
          "ticks": 269520,
          "time": 187.499252,
          "velocity": 0.7874015748031497
        },
        {
          "duration": 0.1666659999999922,
          "durationTicks": 240,
          "midi": 47,
          "name": "B2",
          "ticks": 269760,
          "time": 187.665918,
          "velocity": 0.7874015748031497
        },
        {
          "duration": 0.33333200000001284,
          "durationTicks": 480,
          "midi": 87,
          "name": "D#6",
          "ticks": 270000,
          "time": 187.832584,
          "velocity": 0.7874015748031497
        },
        {
          "duration": 0.33333200000001284,
          "durationTicks": 480,
          "midi": 83,
          "name": "B5",
          "ticks": 270000,
          "time": 187.832584,
          "velocity": 0.7874015748031497
        },
        {
          "duration": 0.16666600000002063,
          "durationTicks": 240,
          "midi": 35,
          "name": "B1",
          "ticks": 270000,
          "time": 187.832584,
          "velocity": 0.7874015748031497
        },
        {
          "duration": 0.1666659999999922,
          "durationTicks": 240,
          "midi": 47,
          "name": "B2",
          "ticks": 270240,
          "time": 187.99925000000002,
          "velocity": 0.7874015748031497
        },
        {
          "duration": 0.1666659999999922,
          "durationTicks": 240,
          "midi": 89,
          "name": "F6",
          "ticks": 270480,
          "time": 188.165916,
          "velocity": 0.7874015748031497
        },
        {
          "duration": 0.1666659999999922,
          "durationTicks": 240,
          "midi": 85,
          "name": "C#6",
          "ticks": 270480,
          "time": 188.165916,
          "velocity": 0.7874015748031497
        },
        {
          "duration": 0.1666659999999922,
          "durationTicks": 240,
          "midi": 35,
          "name": "B1",
          "ticks": 270480,
          "time": 188.165916,
          "velocity": 0.7874015748031497
        },
        {
          "duration": 0.49999800000000505,
          "durationTicks": 720,
          "midi": 90,
          "name": "F#6",
          "ticks": 270720,
          "time": 188.332582,
          "velocity": 0.7874015748031497
        },
        {
          "duration": 0.49999800000000505,
          "durationTicks": 720,
          "midi": 87,
          "name": "D#6",
          "ticks": 270720,
          "time": 188.332582,
          "velocity": 0.7874015748031497
        },
        {
          "duration": 0.16666600000002063,
          "durationTicks": 240,
          "midi": 47,
          "name": "B2",
          "ticks": 270720,
          "time": 188.332582,
          "velocity": 0.7874015748031497
        },
        {
          "duration": 0.1666659999999922,
          "durationTicks": 240,
          "midi": 37,
          "name": "C#2",
          "ticks": 270960,
          "time": 188.49924800000002,
          "velocity": 0.7874015748031497
        },
        {
          "duration": 0.1666659999999922,
          "durationTicks": 240,
          "midi": 49,
          "name": "C#3",
          "ticks": 271200,
          "time": 188.66591400000001,
          "velocity": 0.7874015748031497
        },
        {
          "duration": 0.33333200000001284,
          "durationTicks": 480,
          "midi": 89,
          "name": "F6",
          "ticks": 271440,
          "time": 188.83258,
          "velocity": 0.7874015748031497
        },
        {
          "duration": 0.33333200000001284,
          "durationTicks": 480,
          "midi": 85,
          "name": "C#6",
          "ticks": 271440,
          "time": 188.83258,
          "velocity": 0.7874015748031497
        },
        {
          "duration": 0.1666659999999922,
          "durationTicks": 240,
          "midi": 37,
          "name": "C#2",
          "ticks": 271440,
          "time": 188.83258,
          "velocity": 0.7874015748031497
        },
        {
          "duration": 0.16666600000002063,
          "durationTicks": 240,
          "midi": 49,
          "name": "C#3",
          "ticks": 271680,
          "time": 188.999246,
          "velocity": 0.7874015748031497
        },
        {
          "duration": 0.3333319999999844,
          "durationTicks": 480,
          "midi": 87,
          "name": "D#6",
          "ticks": 271920,
          "time": 189.16591200000002,
          "velocity": 0.7874015748031497
        },
        {
          "duration": 0.3333319999999844,
          "durationTicks": 480,
          "midi": 82,
          "name": "A#5",
          "ticks": 271920,
          "time": 189.16591200000002,
          "velocity": 0.7874015748031497
        },
        {
          "duration": 0.1666659999999922,
          "durationTicks": 240,
          "midi": 37,
          "name": "C#2",
          "ticks": 271920,
          "time": 189.16591200000002,
          "velocity": 0.7874015748031497
        },
        {
          "duration": 0.1666659999999922,
          "durationTicks": 240,
          "midi": 49,
          "name": "C#3",
          "ticks": 272160,
          "time": 189.332578,
          "velocity": 0.7874015748031497
        },
        {
          "duration": 0.1666659999999922,
          "durationTicks": 240,
          "midi": 89,
          "name": "F6",
          "ticks": 272400,
          "time": 189.499244,
          "velocity": 0.7874015748031497
        },
        {
          "duration": 0.1666659999999922,
          "durationTicks": 240,
          "midi": 85,
          "name": "C#6",
          "ticks": 272400,
          "time": 189.499244,
          "velocity": 0.7874015748031497
        },
        {
          "duration": 0.1666659999999922,
          "durationTicks": 240,
          "midi": 37,
          "name": "C#2",
          "ticks": 272400,
          "time": 189.499244,
          "velocity": 0.7874015748031497
        },
        {
          "duration": 2.8333220000000097,
          "durationTicks": 4080,
          "midi": 91,
          "name": "G6",
          "ticks": 272640,
          "time": 189.66591,
          "velocity": 0.7874015748031497
        },
        {
          "duration": 2.8333220000000097,
          "durationTicks": 4080,
          "midi": 87,
          "name": "D#6",
          "ticks": 272640,
          "time": 189.66591,
          "velocity": 0.7874015748031497
        },
        {
          "duration": 0.16666600000002063,
          "durationTicks": 240,
          "midi": 49,
          "name": "C#3",
          "ticks": 272640,
          "time": 189.66591,
          "velocity": 0.7874015748031497
        },
        {
          "duration": 0.1666659999999922,
          "durationTicks": 240,
          "midi": 39,
          "name": "D#2",
          "ticks": 272880,
          "time": 189.83257600000002,
          "velocity": 0.7874015748031497
        },
        {
          "duration": 0.1666659999999922,
          "durationTicks": 240,
          "midi": 51,
          "name": "D#3",
          "ticks": 273120,
          "time": 189.999242,
          "velocity": 0.7874015748031497
        },
        {
          "duration": 0.16666600000002063,
          "durationTicks": 240,
          "midi": 39,
          "name": "D#2",
          "ticks": 273360,
          "time": 190.165908,
          "velocity": 0.7874015748031497
        },
        {
          "duration": 0.1666659999999922,
          "durationTicks": 240,
          "midi": 51,
          "name": "D#3",
          "ticks": 273600,
          "time": 190.33257400000002,
          "velocity": 0.7874015748031497
        },
        {
          "duration": 0.1666659999999922,
          "durationTicks": 240,
          "midi": 39,
          "name": "D#2",
          "ticks": 273840,
          "time": 190.49924000000001,
          "velocity": 0.7874015748031497
        },
        {
          "duration": 0.1666659999999922,
          "durationTicks": 240,
          "midi": 51,
          "name": "D#3",
          "ticks": 274080,
          "time": 190.665906,
          "velocity": 0.7874015748031497
        },
        {
          "duration": 0.16666600000002063,
          "durationTicks": 240,
          "midi": 39,
          "name": "D#2",
          "ticks": 274320,
          "time": 190.832572,
          "velocity": 0.7874015748031497
        },
        {
          "duration": 0.1666659999999922,
          "durationTicks": 240,
          "midi": 51,
          "name": "D#3",
          "ticks": 274560,
          "time": 190.99923800000002,
          "velocity": 0.7874015748031497
        },
        {
          "duration": 0.1666659999999922,
          "durationTicks": 240,
          "midi": 39,
          "name": "D#2",
          "ticks": 274800,
          "time": 191.165904,
          "velocity": 0.7874015748031497
        },
        {
          "duration": 0.1666659999999922,
          "durationTicks": 240,
          "midi": 51,
          "name": "D#3",
          "ticks": 275040,
          "time": 191.33257,
          "velocity": 0.7874015748031497
        },
        {
          "duration": 0.16666600000002063,
          "durationTicks": 240,
          "midi": 39,
          "name": "D#2",
          "ticks": 275280,
          "time": 191.499236,
          "velocity": 0.7874015748031497
        },
        {
          "duration": 0.1666659999999922,
          "durationTicks": 240,
          "midi": 51,
          "name": "D#3",
          "ticks": 275520,
          "time": 191.66590200000002,
          "velocity": 0.7874015748031497
        },
        {
          "duration": 0.1666659999999922,
          "durationTicks": 240,
          "midi": 39,
          "name": "D#2",
          "ticks": 275760,
          "time": 191.832568,
          "velocity": 0.7874015748031497
        },
        {
          "duration": 0.16666600000002063,
          "durationTicks": 240,
          "midi": 51,
          "name": "D#3",
          "ticks": 276000,
          "time": 191.999234,
          "velocity": 0.7874015748031497
        },
        {
          "duration": 0.1666659999999922,
          "durationTicks": 240,
          "midi": 39,
          "name": "D#2",
          "ticks": 276240,
          "time": 192.16590000000002,
          "velocity": 0.7874015748031497
        },
        {
          "duration": 0.1666659999999922,
          "durationTicks": 240,
          "midi": 51,
          "name": "D#3",
          "ticks": 276480,
          "time": 192.332566,
          "velocity": 0.7874015748031497
        }
      ],
      "endOfTrackTicks": 284400
    },
    {
      "channel": 1,
      "controlChanges": {
        "0": [
          {
            "number": 0,
            "ticks": 240,
            "time": 0.5,
            "value": 0
          }
        ],
        "32": [
          {
            "number": 32,
            "ticks": 240,
            "time": 0.5,
            "value": 0
          }
        ]
      },
      "pitchBends": [],
      "instrument": {
        "family": "piano",
        "number": 0,
        "name": "acoustic grand piano"
      },
      "name": "",
      "notes": [
        {
          "duration": 0.16666599999999998,
          "durationTicks": 240,
          "midi": 50,
          "name": "D3",
          "ticks": 240,
          "time": 0.5,
          "velocity": 0.7874015748031497
        },
        {
          "duration": 5.333312,
          "durationTicks": 7680,
          "midi": 38,
          "name": "D2",
          "ticks": 240,
          "time": 0.5,
          "velocity": 0.7874015748031497
        },
        {
          "duration": 5.333312,
          "durationTicks": 7680,
          "midi": 26,
          "name": "D1",
          "ticks": 240,
          "time": 0.5,
          "velocity": 0.7874015748031497
        },
        {
          "duration": 0.16666599999999998,
          "durationTicks": 240,
          "midi": 57,
          "name": "A3",
          "ticks": 480,
          "time": 0.666666,
          "velocity": 0.7874015748031497
        },
        {
          "duration": 0.0833330000000001,
          "durationTicks": 120,
          "midi": 55,
          "name": "G3",
          "ticks": 720,
          "time": 0.833332,
          "velocity": 0.7874015748031497
        },
        {
          "duration": 0.16666599999999998,
          "durationTicks": 240,
          "midi": 57,
          "name": "A3",
          "ticks": 840,
          "time": 0.9166650000000001,
          "velocity": 0.7874015748031497
        },
        {
          "duration": 0.16666599999999998,
          "durationTicks": 240,
          "midi": 52,
          "name": "E3",
          "ticks": 1080,
          "time": 1.083331,
          "velocity": 0.7874015748031497
        },
        {
          "duration": 0.16666599999999998,
          "durationTicks": 240,
          "midi": 53,
          "name": "F3",
          "ticks": 1320,
          "time": 1.249997,
          "velocity": 0.7874015748031497
        },
        {
          "duration": 0.0833330000000001,
          "durationTicks": 120,
          "midi": 57,
          "name": "A3",
          "ticks": 1560,
          "time": 1.416663,
          "velocity": 0.7874015748031497
        },
        {
          "duration": 0.08333299999999988,
          "durationTicks": 120,
          "midi": 55,
          "name": "G3",
          "ticks": 1680,
          "time": 1.499996,
          "velocity": 0.7874015748031497
        },
        {
          "duration": 0.0833330000000001,
          "durationTicks": 120,
          "midi": 53,
          "name": "F3",
          "ticks": 1800,
          "time": 1.583329,
          "velocity": 0.7874015748031497
        },
        {
          "duration": 0.08333299999999988,
          "durationTicks": 120,
          "midi": 52,
          "name": "E3",
          "ticks": 1920,
          "time": 1.666662,
          "velocity": 0.7874015748031497
        },
        {
          "duration": 0.1666660000000002,
          "durationTicks": 240,
          "midi": 50,
          "name": "D3",
          "ticks": 2040,
          "time": 1.749995,
          "velocity": 0.7874015748031497
        },
        {
          "duration": 0.08333299999999988,
          "durationTicks": 120,
          "midi": 50,
          "name": "D3",
          "ticks": 2280,
          "time": 1.9166610000000002,
          "velocity": 0.7874015748031497
        },
        {
          "duration": 0.1666660000000002,
          "durationTicks": 240,
          "midi": 57,
          "name": "A3",
          "ticks": 2400,
          "time": 1.999994,
          "velocity": 0.7874015748031497
        },
        {
          "duration": 0.08333299999999966,
          "durationTicks": 120,
          "midi": 55,
          "name": "G3",
          "ticks": 2640,
          "time": 2.1666600000000003,
          "velocity": 0.7874015748031497
        },
        {
          "duration": 0.1666660000000002,
          "durationTicks": 240,
          "midi": 57,
          "name": "A3",
          "ticks": 2760,
          "time": 2.249993,
          "velocity": 0.7874015748031497
        },
        {
          "duration": 0.1666660000000002,
          "durationTicks": 240,
          "midi": 52,
          "name": "E3",
          "ticks": 3000,
          "time": 2.416659,
          "velocity": 0.7874015748031497
        },
        {
          "duration": 0.16666599999999976,
          "durationTicks": 240,
          "midi": 53,
          "name": "F3",
          "ticks": 3240,
          "time": 2.5833250000000003,
          "velocity": 0.7874015748031497
        },
        {
          "duration": 0.1666660000000002,
          "durationTicks": 240,
          "midi": 57,
          "name": "A3",
          "ticks": 3480,
          "time": 2.749991,
          "velocity": 0.7874015748031497
        },
        {
          "duration": 0.16666599999999976,
          "durationTicks": 240,
          "midi": 48,
          "name": "C3",
          "ticks": 3600,
          "time": 2.833324,
          "velocity": 0.7874015748031497
        },
        {
          "duration": 0.1666660000000002,
          "durationTicks": 240,
          "midi": 49,
          "name": "C#3",
          "ticks": 3840,
          "time": 2.99999,
          "velocity": 0.7874015748031497
        },
        {
          "duration": 0.1666660000000002,
          "durationTicks": 240,
          "midi": 50,
          "name": "D3",
          "ticks": 4080,
          "time": 3.166656,
          "velocity": 0.7874015748031497
        },
        {
          "duration": 0.16666599999999976,
          "durationTicks": 240,
          "midi": 57,
          "name": "A3",
          "ticks": 4320,
          "time": 3.3333220000000003,
          "velocity": 0.7874015748031497
        },
        {
          "duration": 0.0833330000000001,
          "durationTicks": 120,
          "midi": 55,
          "name": "G3",
          "ticks": 4560,
          "time": 3.499988,
          "velocity": 0.7874015748031497
        },
        {
          "duration": 0.16666599999999976,
          "durationTicks": 240,
          "midi": 57,
          "name": "A3",
          "ticks": 4680,
          "time": 3.583321,
          "velocity": 0.7874015748031497
        },
        {
          "duration": 0.1666660000000002,
          "durationTicks": 240,
          "midi": 52,
          "name": "E3",
          "ticks": 4920,
          "time": 3.749987,
          "velocity": 0.7874015748031497
        },
        {
          "duration": 0.1666660000000002,
          "durationTicks": 240,
          "midi": 53,
          "name": "F3",
          "ticks": 5160,
          "time": 3.916653,
          "velocity": 0.7874015748031497
        },
        {
          "duration": 0.08333299999999966,
          "durationTicks": 120,
          "midi": 57,
          "name": "A3",
          "ticks": 5400,
          "time": 4.083319,
          "velocity": 0.7874015748031497
        },
        {
          "duration": 0.08333300000000055,
          "durationTicks": 120,
          "midi": 55,
          "name": "G3",
          "ticks": 5520,
          "time": 4.166652,
          "velocity": 0.7874015748031497
        },
        {
          "duration": 0.08333299999999966,
          "durationTicks": 120,
          "midi": 53,
          "name": "F3",
          "ticks": 5640,
          "time": 4.249985000000001,
          "velocity": 0.7874015748031497
        },
        {
          "duration": 0.08333299999999966,
          "durationTicks": 120,
          "midi": 52,
          "name": "E3",
          "ticks": 5760,
          "time": 4.333318,
          "velocity": 0.7874015748031497
        },
        {
          "duration": 0.1666660000000002,
          "durationTicks": 240,
          "midi": 50,
          "name": "D3",
          "ticks": 5880,
          "time": 4.416651,
          "velocity": 0.7874015748031497
        },
        {
          "duration": 0.08333300000000055,
          "durationTicks": 120,
          "midi": 50,
          "name": "D3",
          "ticks": 6120,
          "time": 4.583317,
          "velocity": 0.7874015748031497
        },
        {
          "duration": 0.16666599999999931,
          "durationTicks": 240,
          "midi": 57,
          "name": "A3",
          "ticks": 6240,
          "time": 4.666650000000001,
          "velocity": 0.7874015748031497
        },
        {
          "duration": 0.08333300000000055,
          "durationTicks": 120,
          "midi": 55,
          "name": "G3",
          "ticks": 6480,
          "time": 4.833316,
          "velocity": 0.7874015748031497
        },
        {
          "duration": 0.16666599999999931,
          "durationTicks": 240,
          "midi": 57,
          "name": "A3",
          "ticks": 6600,
          "time": 4.9166490000000005,
          "velocity": 0.7874015748031497
        },
        {
          "duration": 0.1666660000000002,
          "durationTicks": 240,
          "midi": 52,
          "name": "E3",
          "ticks": 6840,
          "time": 5.083315,
          "velocity": 0.7874015748031497
        },
        {
          "duration": 0.1666660000000002,
          "durationTicks": 240,
          "midi": 53,
          "name": "F3",
          "ticks": 7080,
          "time": 5.249981,
          "velocity": 0.7874015748031497
        },
        {
          "duration": 0.1666660000000002,
          "durationTicks": 240,
          "midi": 57,
          "name": "A3",
          "ticks": 7320,
          "time": 5.416647,
          "velocity": 0.7874015748031497
        },
        {
          "duration": 0.1666660000000002,
          "durationTicks": 240,
          "midi": 48,
          "name": "C3",
          "ticks": 7440,
          "time": 5.49998,
          "velocity": 0.7874015748031497
        },
        {
          "duration": 0.1666660000000002,
          "durationTicks": 240,
          "midi": 49,
          "name": "C#3",
          "ticks": 7680,
          "time": 5.666646,
          "velocity": 0.7874015748031497
        },
        {
          "duration": 0.1666660000000002,
          "durationTicks": 240,
          "midi": 50,
          "name": "D3",
          "ticks": 7920,
          "time": 5.833312,
          "velocity": 0.7874015748031497
        },
        {
          "duration": 1.3333279999999998,
          "durationTicks": 1920,
          "midi": 38,
          "name": "D2",
          "ticks": 7920,
          "time": 5.833312,
          "velocity": 0.7874015748031497
        },
        {
          "duration": 1.3333279999999998,
          "durationTicks": 1920,
          "midi": 26,
          "name": "D1",
          "ticks": 7920,
          "time": 5.833312,
          "velocity": 0.7874015748031497
        },
        {
          "duration": 0.1666660000000002,
          "durationTicks": 240,
          "midi": 57,
          "name": "A3",
          "ticks": 8160,
          "time": 5.9999780000000005,
          "velocity": 0.7874015748031497
        },
        {
          "duration": 0.08333299999999966,
          "durationTicks": 120,
          "midi": 55,
          "name": "G3",
          "ticks": 8400,
          "time": 6.166644000000001,
          "velocity": 0.7874015748031497
        },
        {
          "duration": 0.1666660000000002,
          "durationTicks": 240,
          "midi": 57,
          "name": "A3",
          "ticks": 8520,
          "time": 6.249977,
          "velocity": 0.7874015748031497
        },
        {
          "duration": 0.1666660000000002,
          "durationTicks": 240,
          "midi": 52,
          "name": "E3",
          "ticks": 8760,
          "time": 6.4166430000000005,
          "velocity": 0.7874015748031497
        },
        {
          "duration": 0.16666599999999931,
          "durationTicks": 240,
          "midi": 53,
          "name": "F3",
          "ticks": 9000,
          "time": 6.583309000000001,
          "velocity": 0.7874015748031497
        },
        {
          "duration": 0.08333300000000055,
          "durationTicks": 120,
          "midi": 57,
          "name": "A3",
          "ticks": 9240,
          "time": 6.749975,
          "velocity": 0.7874015748031497
        },
        {
          "duration": 0.08333299999999966,
          "durationTicks": 120,
          "midi": 55,
          "name": "G3",
          "ticks": 9360,
          "time": 6.833308000000001,
          "velocity": 0.7874015748031497
        },
        {
          "duration": 0.08333299999999966,
          "durationTicks": 120,
          "midi": 53,
          "name": "F3",
          "ticks": 9480,
          "time": 6.916641,
          "velocity": 0.7874015748031497
        },
        {
          "duration": 0.08333300000000055,
          "durationTicks": 120,
          "midi": 52,
          "name": "E3",
          "ticks": 9600,
          "time": 6.999974,
          "velocity": 0.7874015748031497
        },
        {
          "duration": 0.1666660000000002,
          "durationTicks": 240,
          "midi": 50,
          "name": "D3",
          "ticks": 9720,
          "time": 7.0833070000000005,
          "velocity": 0.7874015748031497
        },
        {
          "duration": 1.3333280000000007,
          "durationTicks": 1920,
          "midi": 38,
          "name": "D2",
          "ticks": 9840,
          "time": 7.16664,
          "velocity": 0.7874015748031497
        },
        {
          "duration": 1.3333280000000007,
          "durationTicks": 1920,
          "midi": 26,
          "name": "D1",
          "ticks": 9840,
          "time": 7.16664,
          "velocity": 0.7874015748031497
        },
        {
          "duration": 0.08333299999999966,
          "durationTicks": 120,
          "midi": 50,
          "name": "D3",
          "ticks": 9960,
          "time": 7.249973000000001,
          "velocity": 0.7874015748031497
        },
        {
          "duration": 0.1666660000000002,
          "durationTicks": 240,
          "midi": 57,
          "name": "A3",
          "ticks": 10080,
          "time": 7.333306,
          "velocity": 0.7874015748031497
        },
        {
          "duration": 0.08333299999999966,
          "durationTicks": 120,
          "midi": 55,
          "name": "G3",
          "ticks": 10320,
          "time": 7.4999720000000005,
          "velocity": 0.7874015748031497
        },
        {
          "duration": 0.1666660000000002,
          "durationTicks": 240,
          "midi": 57,
          "name": "A3",
          "ticks": 10440,
          "time": 7.583305,
          "velocity": 0.7874015748031497
        },
        {
          "duration": 0.1666660000000002,
          "durationTicks": 240,
          "midi": 52,
          "name": "E3",
          "ticks": 10680,
          "time": 7.749971,
          "velocity": 0.7874015748031497
        },
        {
          "duration": 0.1666660000000002,
          "durationTicks": 240,
          "midi": 53,
          "name": "F3",
          "ticks": 10920,
          "time": 7.916637000000001,
          "velocity": 0.7874015748031497
        },
        {
          "duration": 0.16666599999999931,
          "durationTicks": 240,
          "midi": 57,
          "name": "A3",
          "ticks": 11160,
          "time": 8.083303,
          "velocity": 0.7874015748031497
        },
        {
          "duration": 0.16666599999999931,
          "durationTicks": 240,
          "midi": 48,
          "name": "C3",
          "ticks": 11280,
          "time": 8.166636,
          "velocity": 0.7874015748031497
        },
        {
          "duration": 0.1666660000000011,
          "durationTicks": 240,
          "midi": 49,
          "name": "C#3",
          "ticks": 11520,
          "time": 8.333302,
          "velocity": 0.7874015748031497
        },
        {
          "duration": 0.16666599999999931,
          "durationTicks": 240,
          "midi": 50,
          "name": "D3",
          "ticks": 11760,
          "time": 8.499968,
          "velocity": 0.7874015748031497
        },
        {
          "duration": 0.666663999999999,
          "durationTicks": 960,
          "midi": 38,
          "name": "D2",
          "ticks": 11760,
          "time": 8.499968,
          "velocity": 0.7874015748031497
        },
        {
          "duration": 0.666663999999999,
          "durationTicks": 960,
          "midi": 26,
          "name": "D1",
          "ticks": 11760,
          "time": 8.499968,
          "velocity": 0.7874015748031497
        },
        {
          "duration": 0.1666660000000011,
          "durationTicks": 240,
          "midi": 57,
          "name": "A3",
          "ticks": 12000,
          "time": 8.666634,
          "velocity": 0.7874015748031497
        },
        {
          "duration": 0.08333299999999966,
          "durationTicks": 120,
          "midi": 55,
          "name": "G3",
          "ticks": 12240,
          "time": 8.833300000000001,
          "velocity": 0.7874015748031497
        },
        {
          "duration": 0.16666599999999931,
          "durationTicks": 240,
          "midi": 57,
          "name": "A3",
          "ticks": 12360,
          "time": 8.916633000000001,
          "velocity": 0.7874015748031497
        },
        {
          "duration": 0.1666660000000011,
          "durationTicks": 240,
          "midi": 52,
          "name": "E3",
          "ticks": 12600,
          "time": 9.083299,
          "velocity": 0.7874015748031497
        },
        {
          "duration": 0.6666640000000008,
          "durationTicks": 960,
          "midi": 38,
          "name": "D2",
          "ticks": 12720,
          "time": 9.166632,
          "velocity": 0.7874015748031497
        },
        {
          "duration": 0.6666640000000008,
          "durationTicks": 960,
          "midi": 26,
          "name": "D1",
          "ticks": 12720,
          "time": 9.166632,
          "velocity": 0.7874015748031497
        },
        {
          "duration": 0.16666599999999931,
          "durationTicks": 240,
          "midi": 53,
          "name": "F3",
          "ticks": 12840,
          "time": 9.249965000000001,
          "velocity": 0.7874015748031497
        },
        {
          "duration": 0.08333299999999966,
          "durationTicks": 120,
          "midi": 57,
          "name": "A3",
          "ticks": 13080,
          "time": 9.416631,
          "velocity": 0.7874015748031497
        },
        {
          "duration": 0.08333299999999966,
          "durationTicks": 120,
          "midi": 55,
          "name": "G3",
          "ticks": 13200,
          "time": 9.499964,
          "velocity": 0.7874015748031497
        },
        {
          "duration": 0.08333299999999966,
          "durationTicks": 120,
          "midi": 53,
          "name": "F3",
          "ticks": 13320,
          "time": 9.583297,
          "velocity": 0.7874015748031497
        },
        {
          "duration": 0.08333300000000143,
          "durationTicks": 120,
          "midi": 52,
          "name": "E3",
          "ticks": 13440,
          "time": 9.66663,
          "velocity": 0.7874015748031497
        },
        {
          "duration": 0.16666599999999931,
          "durationTicks": 240,
          "midi": 50,
          "name": "D3",
          "ticks": 13560,
          "time": 9.749963000000001,
          "velocity": 0.7874015748031497
        },
        {
          "duration": 0.3333320000000004,
          "durationTicks": 480,
          "midi": 38,
          "name": "D2",
          "ticks": 13680,
          "time": 9.833296,
          "velocity": 0.7874015748031497
        },
        {
          "duration": 0.3333320000000004,
          "durationTicks": 480,
          "midi": 26,
          "name": "D1",
          "ticks": 13680,
          "time": 9.833296,
          "velocity": 0.7874015748031497
        },
        {
          "duration": 0.08333299999999966,
          "durationTicks": 120,
          "midi": 50,
          "name": "D3",
          "ticks": 13800,
          "time": 9.916629,
          "velocity": 0.7874015748031497
        },
        {
          "duration": 0.1666660000000011,
          "durationTicks": 240,
          "midi": 57,
          "name": "A3",
          "ticks": 13920,
          "time": 9.999962,
          "velocity": 0.7874015748031497
        },
        {
          "duration": 0.08333299999999966,
          "durationTicks": 120,
          "midi": 55,
          "name": "G3",
          "ticks": 14160,
          "time": 10.166628000000001,
          "velocity": 0.7874015748031497
        },
        {
          "duration": 0.33333199999999863,
          "durationTicks": 480,
          "midi": 38,
          "name": "D2",
          "ticks": 14160,
          "time": 10.166628000000001,
          "velocity": 0.7874015748031497
        },
        {
          "duration": 0.33333199999999863,
          "durationTicks": 480,
          "midi": 26,
          "name": "D1",
          "ticks": 14160,
          "time": 10.166628000000001,
          "velocity": 0.7874015748031497
        },
        {
          "duration": 0.16666599999999931,
          "durationTicks": 240,
          "midi": 57,
          "name": "A3",
          "ticks": 14280,
          "time": 10.249961,
          "velocity": 0.7874015748031497
        },
        {
          "duration": 0.1666660000000011,
          "durationTicks": 240,
          "midi": 60,
          "name": "C4",
          "ticks": 14520,
          "time": 10.416627,
          "velocity": 0.7874015748031497
        },
        {
          "duration": 0.3333320000000004,
          "durationTicks": 480,
          "midi": 38,
          "name": "D2",
          "ticks": 14640,
          "time": 10.49996,
          "velocity": 0.7874015748031497
        },
        {
          "duration": 0.3333320000000004,
          "durationTicks": 480,
          "midi": 26,
          "name": "D1",
          "ticks": 14640,
          "time": 10.49996,
          "velocity": 0.7874015748031497
        },
        {
          "duration": 0.08333299999999966,
          "durationTicks": 120,
          "midi": 60,
          "name": "C4",
          "ticks": 14760,
          "time": 10.583293000000001,
          "velocity": 0.7874015748031497
        },
        {
          "duration": 0.16666599999999931,
          "durationTicks": 240,
          "midi": 57,
          "name": "A3",
          "ticks": 14880,
          "time": 10.666626,
          "velocity": 0.7874015748031497
        },
        {
          "duration": 0.1666660000000011,
          "durationTicks": 240,
          "midi": 64,
          "name": "E4",
          "ticks": 15120,
          "time": 10.833292,
          "velocity": 0.7874015748031497
        },
        {
          "duration": 0.3333320000000004,
          "durationTicks": 480,
          "midi": 38,
          "name": "D2",
          "ticks": 15120,
          "time": 10.833292,
          "velocity": 0.7874015748031497
        },
        {
          "duration": 0.3333320000000004,
          "durationTicks": 480,
          "midi": 26,
          "name": "D1",
          "ticks": 15120,
          "time": 10.833292,
          "velocity": 0.7874015748031497
        },
        {
          "duration": 0.08333299999999966,
          "durationTicks": 120,
          "midi": 60,
          "name": "C4",
          "ticks": 15360,
          "time": 10.999958000000001,
          "velocity": 0.7874015748031497
        },
        {
          "duration": 0.08333299999999966,
          "durationTicks": 120,
          "midi": 61,
          "name": "C#4",
          "ticks": 15480,
          "time": 11.083291000000001,
          "velocity": 0.7874015748031497
        },
        {
          "duration": 0.16666599999999931,
          "durationTicks": 240,
          "midi": 62,
          "name": "D4",
          "ticks": 15600,
          "time": 11.166624,
          "velocity": 0.7874015748031497
        },
        {
          "duration": 0.16666599999999931,
          "durationTicks": 240,
          "midi": 38,
          "name": "D2",
          "ticks": 15600,
          "time": 11.166624,
          "velocity": 0.7874015748031497
        },
        {
          "duration": 0.1666660000000011,
          "durationTicks": 240,
          "midi": 69,
          "name": "A4",
          "ticks": 15840,
          "time": 11.33329,
          "velocity": 0.7874015748031497
        },
        {
          "duration": 0.1666660000000011,
          "durationTicks": 240,
          "midi": 50,
          "name": "D3",
          "ticks": 15840,
          "time": 11.33329,
          "velocity": 0.7874015748031497
        },
        {
          "duration": 0.08333299999999966,
          "durationTicks": 120,
          "midi": 67,
          "name": "G4",
          "ticks": 16080,
          "time": 11.499956000000001,
          "velocity": 0.7874015748031497
        },
        {
          "duration": 0.16666599999999931,
          "durationTicks": 240,
          "midi": 38,
          "name": "D2",
          "ticks": 16080,
          "time": 11.499956000000001,
          "velocity": 0.7874015748031497
        },
        {
          "duration": 0.16666599999999931,
          "durationTicks": 240,
          "midi": 69,
          "name": "A4",
          "ticks": 16200,
          "time": 11.583289,
          "velocity": 0.7874015748031497
        },
        {
          "duration": 0.1666660000000011,
          "durationTicks": 240,
          "midi": 50,
          "name": "D3",
          "ticks": 16320,
          "time": 11.666622,
          "velocity": 0.7874015748031497
        },
        {
          "duration": 0.1666660000000011,
          "durationTicks": 240,
          "midi": 64,
          "name": "E4",
          "ticks": 16440,
          "time": 11.749955,
          "velocity": 0.7874015748031497
        },
        {
          "duration": 0.16666599999999931,
          "durationTicks": 240,
          "midi": 38,
          "name": "D2",
          "ticks": 16560,
          "time": 11.833288000000001,
          "velocity": 0.7874015748031497
        },
        {
          "duration": 0.16666599999999931,
          "durationTicks": 240,
          "midi": 65,
          "name": "F4",
          "ticks": 16680,
          "time": 11.916621000000001,
          "velocity": 0.7874015748031497
        },
        {
          "duration": 0.16666599999999931,
          "durationTicks": 240,
          "midi": 50,
          "name": "D3",
          "ticks": 16800,
          "time": 11.999954,
          "velocity": 0.7874015748031497
        },
        {
          "duration": 0.08333299999999966,
          "durationTicks": 120,
          "midi": 69,
          "name": "A4",
          "ticks": 16920,
          "time": 12.083287,
          "velocity": 0.7874015748031497
        },
        {
          "duration": 0.08333300000000143,
          "durationTicks": 120,
          "midi": 67,
          "name": "G4",
          "ticks": 17040,
          "time": 12.16662,
          "velocity": 0.7874015748031497
        },
        {
          "duration": 0.1666660000000011,
          "durationTicks": 240,
          "midi": 38,
          "name": "D2",
          "ticks": 17040,
          "time": 12.16662,
          "velocity": 0.7874015748031497
        },
        {
          "duration": 0.08333299999999966,
          "durationTicks": 120,
          "midi": 65,
          "name": "F4",
          "ticks": 17160,
          "time": 12.249953000000001,
          "velocity": 0.7874015748031497
        },
        {
          "duration": 0.08333299999999966,
          "durationTicks": 120,
          "midi": 64,
          "name": "E4",
          "ticks": 17280,
          "time": 12.333286000000001,
          "velocity": 0.7874015748031497
        },
        {
          "duration": 0.16666599999999931,
          "durationTicks": 240,
          "midi": 50,
          "name": "D3",
          "ticks": 17280,
          "time": 12.333286000000001,
          "velocity": 0.7874015748031497
        },
        {
          "duration": 0.16666599999999931,
          "durationTicks": 240,
          "midi": 62,
          "name": "D4",
          "ticks": 17400,
          "time": 12.416619,
          "velocity": 0.7874015748031497
        },
        {
          "duration": 0.1666660000000011,
          "durationTicks": 240,
          "midi": 38,
          "name": "D2",
          "ticks": 17520,
          "time": 12.499952,
          "velocity": 0.7874015748031497
        },
        {
          "duration": 0.08333300000000143,
          "durationTicks": 120,
          "midi": 62,
          "name": "D4",
          "ticks": 17640,
          "time": 12.583285,
          "velocity": 0.7874015748031497
        },
        {
          "duration": 0.16666599999999931,
          "durationTicks": 240,
          "midi": 69,
          "name": "A4",
          "ticks": 17760,
          "time": 12.666618000000001,
          "velocity": 0.7874015748031497
        },
        {
          "duration": 0.16666599999999931,
          "durationTicks": 240,
          "midi": 50,
          "name": "D3",
          "ticks": 17760,
          "time": 12.666618000000001,
          "velocity": 0.7874015748031497
        },
        {
          "duration": 0.08333299999999966,
          "durationTicks": 120,
          "midi": 67,
          "name": "G4",
          "ticks": 18000,
          "time": 12.833284,
          "velocity": 0.7874015748031497
        },
        {
          "duration": 0.16666599999999931,
          "durationTicks": 240,
          "midi": 38,
          "name": "D2",
          "ticks": 18000,
          "time": 12.833284,
          "velocity": 0.7874015748031497
        },
        {
          "duration": 0.16666599999999931,
          "durationTicks": 240,
          "midi": 69,
          "name": "A4",
          "ticks": 18120,
          "time": 12.916617,
          "velocity": 0.7874015748031497
        },
        {
          "duration": 0.1666660000000011,
          "durationTicks": 240,
          "midi": 50,
          "name": "D3",
          "ticks": 18240,
          "time": 12.99995,
          "velocity": 0.7874015748031497
        },
        {
          "duration": 0.1666660000000011,
          "durationTicks": 240,
          "midi": 64,
          "name": "E4",
          "ticks": 18360,
          "time": 13.083283,
          "velocity": 0.7874015748031497
        },
        {
          "duration": 0.16666599999999931,
          "durationTicks": 240,
          "midi": 38,
          "name": "D2",
          "ticks": 18480,
          "time": 13.166616000000001,
          "velocity": 0.7874015748031497
        },
        {
          "duration": 0.16666599999999931,
          "durationTicks": 240,
          "midi": 65,
          "name": "F4",
          "ticks": 18600,
          "time": 13.249949,
          "velocity": 0.7874015748031497
        },
        {
          "duration": 0.16666599999999931,
          "durationTicks": 240,
          "midi": 50,
          "name": "D3",
          "ticks": 18720,
          "time": 13.333282,
          "velocity": 0.7874015748031497
        },
        {
          "duration": 0.08333299999999966,
          "durationTicks": 120,
          "midi": 69,
          "name": "A4",
          "ticks": 18840,
          "time": 13.416615,
          "velocity": 0.7874015748031497
        },
        {
          "duration": 0.1666660000000011,
          "durationTicks": 240,
          "midi": 60,
          "name": "C4",
          "ticks": 18960,
          "time": 13.499948,
          "velocity": 0.7874015748031497
        },
        {
          "duration": 0.1666660000000011,
          "durationTicks": 240,
          "midi": 38,
          "name": "D2",
          "ticks": 18960,
          "time": 13.499948,
          "velocity": 0.7874015748031497
        },
        {
          "duration": 0.16666599999999931,
          "durationTicks": 240,
          "midi": 61,
          "name": "C#4",
          "ticks": 19200,
          "time": 13.666614000000001,
          "velocity": 0.7874015748031497
        },
        {
          "duration": 0.16666599999999931,
          "durationTicks": 240,
          "midi": 50,
          "name": "D3",
          "ticks": 19200,
          "time": 13.666614000000001,
          "velocity": 0.7874015748031497
        },
        {
          "duration": 0.1666660000000011,
          "durationTicks": 240,
          "midi": 62,
          "name": "D4",
          "ticks": 19440,
          "time": 13.83328,
          "velocity": 0.7874015748031497
        },
        {
          "duration": 0.1666660000000011,
          "durationTicks": 240,
          "midi": 38,
          "name": "D2",
          "ticks": 19440,
          "time": 13.83328,
          "velocity": 0.7874015748031497
        },
        {
          "duration": 0.16666599999999931,
          "durationTicks": 240,
          "midi": 69,
          "name": "A4",
          "ticks": 19680,
          "time": 13.999946000000001,
          "velocity": 0.7874015748031497
        },
        {
          "duration": 0.16666599999999931,
          "durationTicks": 240,
          "midi": 50,
          "name": "D3",
          "ticks": 19680,
          "time": 13.999946000000001,
          "velocity": 0.7874015748031497
        },
        {
          "duration": 0.08333299999999966,
          "durationTicks": 120,
          "midi": 67,
          "name": "G4",
          "ticks": 19920,
          "time": 14.166612,
          "velocity": 0.7874015748031497
        },
        {
          "duration": 0.16666599999999931,
          "durationTicks": 240,
          "midi": 38,
          "name": "D2",
          "ticks": 19920,
          "time": 14.166612,
          "velocity": 0.7874015748031497
        },
        {
          "duration": 0.1666660000000011,
          "durationTicks": 240,
          "midi": 69,
          "name": "A4",
          "ticks": 20040,
          "time": 14.249945,
          "velocity": 0.7874015748031497
        },
        {
          "duration": 0.1666660000000011,
          "durationTicks": 240,
          "midi": 50,
          "name": "D3",
          "ticks": 20160,
          "time": 14.333278,
          "velocity": 0.7874015748031497
        },
        {
          "duration": 0.16666599999999931,
          "durationTicks": 240,
          "midi": 64,
          "name": "E4",
          "ticks": 20280,
          "time": 14.416611000000001,
          "velocity": 0.7874015748031497
        },
        {
          "duration": 0.16666599999999931,
          "durationTicks": 240,
          "midi": 38,
          "name": "D2",
          "ticks": 20400,
          "time": 14.499944000000001,
          "velocity": 0.7874015748031497
        },
        {
          "duration": 0.16666599999999931,
          "durationTicks": 240,
          "midi": 65,
          "name": "F4",
          "ticks": 20520,
          "time": 14.583277,
          "velocity": 0.7874015748031497
        },
        {
          "duration": 0.1666660000000011,
          "durationTicks": 240,
          "midi": 50,
          "name": "D3",
          "ticks": 20640,
          "time": 14.66661,
          "velocity": 0.7874015748031497
        },
        {
          "duration": 0.08333300000000143,
          "durationTicks": 120,
          "midi": 69,
          "name": "A4",
          "ticks": 20760,
          "time": 14.749943,
          "velocity": 0.7874015748031497
        },
        {
          "duration": 0.08333299999999966,
          "durationTicks": 120,
          "midi": 67,
          "name": "G4",
          "ticks": 20880,
          "time": 14.833276000000001,
          "velocity": 0.7874015748031497
        },
        {
          "duration": 0.16666599999999931,
          "durationTicks": 240,
          "midi": 38,
          "name": "D2",
          "ticks": 20880,
          "time": 14.833276000000001,
          "velocity": 0.7874015748031497
        },
        {
          "duration": 0.08333299999999966,
          "durationTicks": 120,
          "midi": 65,
          "name": "F4",
          "ticks": 21000,
          "time": 14.916609000000001,
          "velocity": 0.7874015748031497
        },
        {
          "duration": 0.08333299999999966,
          "durationTicks": 120,
          "midi": 64,
          "name": "E4",
          "ticks": 21120,
          "time": 14.999942,
          "velocity": 0.7874015748031497
        },
        {
          "duration": 0.16666599999999931,
          "durationTicks": 240,
          "midi": 50,
          "name": "D3",
          "ticks": 21120,
          "time": 14.999942,
          "velocity": 0.7874015748031497
        },
        {
          "duration": 0.1666660000000011,
          "durationTicks": 240,
          "midi": 62,
          "name": "D4",
          "ticks": 21240,
          "time": 15.083275,
          "velocity": 0.7874015748031497
        },
        {
          "duration": 0.1666660000000011,
          "durationTicks": 240,
          "midi": 38,
          "name": "D2",
          "ticks": 21360,
          "time": 15.166608,
          "velocity": 0.7874015748031497
        },
        {
          "duration": 0.08333299999999966,
          "durationTicks": 120,
          "midi": 62,
          "name": "D4",
          "ticks": 21480,
          "time": 15.249941000000002,
          "velocity": 0.7874015748031497
        },
        {
          "duration": 0.16666599999999931,
          "durationTicks": 240,
          "midi": 69,
          "name": "A4",
          "ticks": 21600,
          "time": 15.333274000000001,
          "velocity": 0.7874015748031497
        },
        {
          "duration": 0.16666599999999931,
          "durationTicks": 240,
          "midi": 50,
          "name": "D3",
          "ticks": 21600,
          "time": 15.333274000000001,
          "velocity": 0.7874015748031497
        },
        {
          "duration": 0.08333299999999966,
          "durationTicks": 120,
          "midi": 67,
          "name": "G4",
          "ticks": 21840,
          "time": 15.49994,
          "velocity": 0.7874015748031497
        },
        {
          "duration": 0.1666660000000011,
          "durationTicks": 240,
          "midi": 38,
          "name": "D2",
          "ticks": 21840,
          "time": 15.49994,
          "velocity": 0.7874015748031497
        },
        {
          "duration": 0.1666660000000011,
          "durationTicks": 240,
          "midi": 69,
          "name": "A4",
          "ticks": 21960,
          "time": 15.583273,
          "velocity": 0.7874015748031497
        },
        {
          "duration": 0.16666599999999931,
          "durationTicks": 240,
          "midi": 50,
          "name": "D3",
          "ticks": 22080,
          "time": 15.666606000000002,
          "velocity": 0.7874015748031497
        },
        {
          "duration": 0.16666599999999931,
          "durationTicks": 240,
          "midi": 64,
          "name": "E4",
          "ticks": 22200,
          "time": 15.749939000000001,
          "velocity": 0.7874015748031497
        },
        {
          "duration": 0.16666599999999931,
          "durationTicks": 240,
          "midi": 38,
          "name": "D2",
          "ticks": 22320,
          "time": 15.833272000000001,
          "velocity": 0.7874015748031497
        },
        {
          "duration": 0.16666600000000287,
          "durationTicks": 240,
          "midi": 65,
          "name": "F4",
          "ticks": 22440,
          "time": 15.916605,
          "velocity": 0.7874015748031497
        },
        {
          "duration": 0.16666599999999931,
          "durationTicks": 240,
          "midi": 50,
          "name": "D3",
          "ticks": 22560,
          "time": 15.999938,
          "velocity": 0.7874015748031497
        },
        {
          "duration": 0.0833329999999961,
          "durationTicks": 120,
          "midi": 69,
          "name": "A4",
          "ticks": 22680,
          "time": 16.083271000000003,
          "velocity": 0.7874015748031497
        },
        {
          "duration": 0.16666599999999931,
          "durationTicks": 240,
          "midi": 60,
          "name": "C4",
          "ticks": 22800,
          "time": 16.166604,
          "velocity": 0.7874015748031497
        },
        {
          "duration": 0.16666599999999931,
          "durationTicks": 240,
          "midi": 38,
          "name": "D2",
          "ticks": 22800,
          "time": 16.166604,
          "velocity": 0.7874015748031497
        },
        {
          "duration": 0.16666600000000287,
          "durationTicks": 240,
          "midi": 61,
          "name": "C#4",
          "ticks": 23040,
          "time": 16.33327,
          "velocity": 0.7874015748031497
        },
        {
          "duration": 0.16666600000000287,
          "durationTicks": 240,
          "midi": 50,
          "name": "D3",
          "ticks": 23040,
          "time": 16.33327,
          "velocity": 0.7874015748031497
        },
        {
          "duration": 0.16666599999999931,
          "durationTicks": 240,
          "midi": 62,
          "name": "D4",
          "ticks": 23280,
          "time": 16.499936,
          "velocity": 0.7874015748031497
        },
        {
          "duration": 0.16666599999999931,
          "durationTicks": 240,
          "midi": 38,
          "name": "D2",
          "ticks": 23280,
          "time": 16.499936,
          "velocity": 0.7874015748031497
        },
        {
          "duration": 0.16666599999999931,
          "durationTicks": 240,
          "midi": 69,
          "name": "A4",
          "ticks": 23520,
          "time": 16.666602,
          "velocity": 0.7874015748031497
        },
        {
          "duration": 0.16666599999999931,
          "durationTicks": 240,
          "midi": 50,
          "name": "D3",
          "ticks": 23520,
          "time": 16.666602,
          "velocity": 0.7874015748031497
        },
        {
          "duration": 0.08333299999999966,
          "durationTicks": 120,
          "midi": 67,
          "name": "G4",
          "ticks": 23760,
          "time": 16.833268,
          "velocity": 0.7874015748031497
        },
        {
          "duration": 0.16666599999999931,
          "durationTicks": 240,
          "midi": 38,
          "name": "D2",
          "ticks": 23760,
          "time": 16.833268,
          "velocity": 0.7874015748031497
        },
        {
          "duration": 0.16666599999999931,
          "durationTicks": 240,
          "midi": 69,
          "name": "A4",
          "ticks": 23880,
          "time": 16.916601,
          "velocity": 0.7874015748031497
        },
        {
          "duration": 0.16666600000000287,
          "durationTicks": 240,
          "midi": 50,
          "name": "D3",
          "ticks": 24000,
          "time": 16.999934,
          "velocity": 0.7874015748031497
        },
        {
          "duration": 0.16666600000000287,
          "durationTicks": 240,
          "midi": 64,
          "name": "E4",
          "ticks": 24120,
          "time": 17.083267,
          "velocity": 0.7874015748031497
        },
        {
          "duration": 0.16666599999999931,
          "durationTicks": 240,
          "midi": 38,
          "name": "D2",
          "ticks": 24240,
          "time": 17.166600000000003,
          "velocity": 0.7874015748031497
        },
        {
          "duration": 0.16666599999999931,
          "durationTicks": 240,
          "midi": 65,
          "name": "F4",
          "ticks": 24360,
          "time": 17.249933000000002,
          "velocity": 0.7874015748031497
        },
        {
          "duration": 0.16666599999999931,
          "durationTicks": 240,
          "midi": 50,
          "name": "D3",
          "ticks": 24480,
          "time": 17.333266000000002,
          "velocity": 0.7874015748031497
        },
        {
          "duration": 0.08333299999999966,
          "durationTicks": 120,
          "midi": 69,
          "name": "A4",
          "ticks": 24600,
          "time": 17.416599,
          "velocity": 0.7874015748031497
        },
        {
          "duration": 0.08333299999999966,
          "durationTicks": 120,
          "midi": 67,
          "name": "G4",
          "ticks": 24720,
          "time": 17.499932,
          "velocity": 0.7874015748031497
        },
        {
          "duration": 0.16666599999999931,
          "durationTicks": 240,
          "midi": 38,
          "name": "D2",
          "ticks": 24720,
          "time": 17.499932,
          "velocity": 0.7874015748031497
        },
        {
          "duration": 0.08333299999999966,
          "durationTicks": 120,
          "midi": 65,
          "name": "F4",
          "ticks": 24840,
          "time": 17.583265,
          "velocity": 0.7874015748031497
        },
        {
          "duration": 0.08333299999999966,
          "durationTicks": 120,
          "midi": 64,
          "name": "E4",
          "ticks": 24960,
          "time": 17.666598,
          "velocity": 0.7874015748031497
        },
        {
          "duration": 0.16666599999999931,
          "durationTicks": 240,
          "midi": 50,
          "name": "D3",
          "ticks": 24960,
          "time": 17.666598,
          "velocity": 0.7874015748031497
        },
        {
          "duration": 0.16666599999999931,
          "durationTicks": 240,
          "midi": 62,
          "name": "D4",
          "ticks": 25080,
          "time": 17.749931,
          "velocity": 0.7874015748031497
        },
        {
          "duration": 0.16666600000000287,
          "durationTicks": 240,
          "midi": 38,
          "name": "D2",
          "ticks": 25200,
          "time": 17.833264,
          "velocity": 0.7874015748031497
        },
        {
          "duration": 0.08333300000000321,
          "durationTicks": 120,
          "midi": 62,
          "name": "D4",
          "ticks": 25320,
          "time": 17.916597,
          "velocity": 0.7874015748031497
        },
        {
          "duration": 0.16666599999999931,
          "durationTicks": 240,
          "midi": 69,
          "name": "A4",
          "ticks": 25440,
          "time": 17.999930000000003,
          "velocity": 0.7874015748031497
        },
        {
          "duration": 0.16666599999999931,
          "durationTicks": 240,
          "midi": 50,
          "name": "D3",
          "ticks": 25440,
          "time": 17.999930000000003,
          "velocity": 0.7874015748031497
        },
        {
          "duration": 0.08333299999999966,
          "durationTicks": 120,
          "midi": 67,
          "name": "G4",
          "ticks": 25680,
          "time": 18.166596000000002,
          "velocity": 0.7874015748031497
        },
        {
          "duration": 0.16666599999999931,
          "durationTicks": 240,
          "midi": 38,
          "name": "D2",
          "ticks": 25680,
          "time": 18.166596000000002,
          "velocity": 0.7874015748031497
        },
        {
          "duration": 0.16666599999999931,
          "durationTicks": 240,
          "midi": 69,
          "name": "A4",
          "ticks": 25800,
          "time": 18.249929,
          "velocity": 0.7874015748031497
        },
        {
          "duration": 0.16666599999999931,
          "durationTicks": 240,
          "midi": 50,
          "name": "D3",
          "ticks": 25920,
          "time": 18.333262,
          "velocity": 0.7874015748031497
        },
        {
          "duration": 0.16666599999999931,
          "durationTicks": 240,
          "midi": 64,
          "name": "E4",
          "ticks": 26040,
          "time": 18.416595,
          "velocity": 0.7874015748031497
        },
        {
          "duration": 0.16666599999999931,
          "durationTicks": 240,
          "midi": 38,
          "name": "D2",
          "ticks": 26160,
          "time": 18.499928,
          "velocity": 0.7874015748031497
        },
        {
          "duration": 0.16666599999999931,
          "durationTicks": 240,
          "midi": 65,
          "name": "F4",
          "ticks": 26280,
          "time": 18.583261,
          "velocity": 0.7874015748031497
        },
        {
          "duration": 0.16666599999999931,
          "durationTicks": 240,
          "midi": 50,
          "name": "D3",
          "ticks": 26400,
          "time": 18.666594,
          "velocity": 0.7874015748031497
        },
        {
          "duration": 0.08333299999999966,
          "durationTicks": 120,
          "midi": 69,
          "name": "A4",
          "ticks": 26520,
          "time": 18.749927,
          "velocity": 0.7874015748031497
        },
        {
          "duration": 0.16666600000000287,
          "durationTicks": 240,
          "midi": 60,
          "name": "C4",
          "ticks": 26640,
          "time": 18.83326,
          "velocity": 0.7874015748031497
        },
        {
          "duration": 0.16666600000000287,
          "durationTicks": 240,
          "midi": 38,
          "name": "D2",
          "ticks": 26640,
          "time": 18.83326,
          "velocity": 0.7874015748031497
        },
        {
          "duration": 0.16666599999999931,
          "durationTicks": 240,
          "midi": 61,
          "name": "C#4",
          "ticks": 26880,
          "time": 18.999926000000002,
          "velocity": 0.7874015748031497
        },
        {
          "duration": 0.16666599999999931,
          "durationTicks": 240,
          "midi": 50,
          "name": "D3",
          "ticks": 26880,
          "time": 18.999926000000002,
          "velocity": 0.7874015748031497
        },
        {
          "duration": 0.16666599999999931,
          "durationTicks": 240,
          "midi": 62,
          "name": "D4",
          "ticks": 27120,
          "time": 19.166592,
          "velocity": 0.7874015748031497
        },
        {
          "duration": 0.16666599999999931,
          "durationTicks": 240,
          "midi": 38,
          "name": "D2",
          "ticks": 27120,
          "time": 19.166592,
          "velocity": 0.7874015748031497
        },
        {
          "duration": 0.16666599999999931,
          "durationTicks": 240,
          "midi": 69,
          "name": "A4",
          "ticks": 27360,
          "time": 19.333258,
          "velocity": 0.7874015748031497
        },
        {
          "duration": 0.16666599999999931,
          "durationTicks": 240,
          "midi": 50,
          "name": "D3",
          "ticks": 27360,
          "time": 19.333258,
          "velocity": 0.7874015748031497
        },
        {
          "duration": 0.08333299999999966,
          "durationTicks": 120,
          "midi": 67,
          "name": "G4",
          "ticks": 27600,
          "time": 19.499924,
          "velocity": 0.7874015748031497
        },
        {
          "duration": 0.16666599999999931,
          "durationTicks": 240,
          "midi": 38,
          "name": "D2",
          "ticks": 27600,
          "time": 19.499924,
          "velocity": 0.7874015748031497
        },
        {
          "duration": 0.16666600000000287,
          "durationTicks": 240,
          "midi": 69,
          "name": "A4",
          "ticks": 27720,
          "time": 19.583257,
          "velocity": 0.7874015748031497
        },
        {
          "duration": 0.16666600000000287,
          "durationTicks": 240,
          "midi": 50,
          "name": "D3",
          "ticks": 27840,
          "time": 19.66659,
          "velocity": 0.7874015748031497
        },
        {
          "duration": 0.16666599999999931,
          "durationTicks": 240,
          "midi": 64,
          "name": "E4",
          "ticks": 27960,
          "time": 19.749923000000003,
          "velocity": 0.7874015748031497
        },
        {
          "duration": 0.16666599999999931,
          "durationTicks": 240,
          "midi": 40,
          "name": "E2",
          "ticks": 28080,
          "time": 19.833256000000002,
          "velocity": 0.7874015748031497
        },
        {
          "duration": 0.16666599999999931,
          "durationTicks": 240,
          "midi": 65,
          "name": "F4",
          "ticks": 28200,
          "time": 19.916589000000002,
          "velocity": 0.7874015748031497
        },
        {
          "duration": 0.16666599999999931,
          "durationTicks": 240,
          "midi": 52,
          "name": "E3",
          "ticks": 28320,
          "time": 19.999922,
          "velocity": 0.7874015748031497
        },
        {
          "duration": 0.08333299999999966,
          "durationTicks": 120,
          "midi": 69,
          "name": "A4",
          "ticks": 28440,
          "time": 20.083255,
          "velocity": 0.7874015748031497
        },
        {
          "duration": 0.08333299999999966,
          "durationTicks": 120,
          "midi": 67,
          "name": "G4",
          "ticks": 28560,
          "time": 20.166588,
          "velocity": 0.7874015748031497
        },
        {
          "duration": 0.16666599999999931,
          "durationTicks": 240,
          "midi": 40,
          "name": "E2",
          "ticks": 28560,
          "time": 20.166588,
          "velocity": 0.7874015748031497
        },
        {
          "duration": 0.08333299999999966,
          "durationTicks": 120,
          "midi": 65,
          "name": "F4",
          "ticks": 28680,
          "time": 20.249921,
          "velocity": 0.7874015748031497
        },
        {
          "duration": 0.08333299999999966,
          "durationTicks": 120,
          "midi": 64,
          "name": "E4",
          "ticks": 28800,
          "time": 20.333254,
          "velocity": 0.7874015748031497
        },
        {
          "duration": 0.16666599999999931,
          "durationTicks": 240,
          "midi": 52,
          "name": "E3",
          "ticks": 28800,
          "time": 20.333254,
          "velocity": 0.7874015748031497
        },
        {
          "duration": 0.16666600000000287,
          "durationTicks": 240,
          "midi": 62,
          "name": "D4",
          "ticks": 28920,
          "time": 20.416587,
          "velocity": 0.7874015748031497
        },
        {
          "duration": 0.16666600000000287,
          "durationTicks": 240,
          "midi": 41,
          "name": "F2",
          "ticks": 29040,
          "time": 20.49992,
          "velocity": 0.7874015748031497
        },
        {
          "duration": 0.08333299999999966,
          "durationTicks": 120,
          "midi": 62,
          "name": "D4",
          "ticks": 29160,
          "time": 20.583253000000003,
          "velocity": 0.7874015748031497
        },
        {
          "duration": 0.16666599999999931,
          "durationTicks": 240,
          "midi": 69,
          "name": "A4",
          "ticks": 29280,
          "time": 20.666586000000002,
          "velocity": 0.7874015748031497
        },
        {
          "duration": 0.16666599999999931,
          "durationTicks": 240,
          "midi": 53,
          "name": "F3",
          "ticks": 29280,
          "time": 20.666586000000002,
          "velocity": 0.7874015748031497
        },
        {
          "duration": 0.08333299999999966,
          "durationTicks": 120,
          "midi": 67,
          "name": "G4",
          "ticks": 29520,
          "time": 20.833252,
          "velocity": 0.7874015748031497
        },
        {
          "duration": 0.16666599999999931,
          "durationTicks": 240,
          "midi": 43,
          "name": "G2",
          "ticks": 29520,
          "time": 20.833252,
          "velocity": 0.7874015748031497
        },
        {
          "duration": 0.16666599999999931,
          "durationTicks": 240,
          "midi": 69,
          "name": "A4",
          "ticks": 29640,
          "time": 20.916585,
          "velocity": 0.7874015748031497
        },
        {
          "duration": 0.16666599999999931,
          "durationTicks": 240,
          "midi": 55,
          "name": "G3",
          "ticks": 29760,
          "time": 20.999918,
          "velocity": 0.7874015748031497
        },
        {
          "duration": 0.16666599999999931,
          "durationTicks": 240,
          "midi": 72,
          "name": "C5",
          "ticks": 29880,
          "time": 21.083251,
          "velocity": 0.7874015748031497
        },
        {
          "duration": 0.16666599999999931,
          "durationTicks": 240,
          "midi": 45,
          "name": "A2",
          "ticks": 30000,
          "time": 21.166584,
          "velocity": 0.7874015748031497
        },
        {
          "duration": 0.16666600000000287,
          "durationTicks": 240,
          "midi": 74,
          "name": "D5",
          "ticks": 30120,
          "time": 21.249917,
          "velocity": 0.7874015748031497
        },
        {
          "duration": 0.16666600000000287,
          "durationTicks": 240,
          "midi": 57,
          "name": "A3",
          "ticks": 30240,
          "time": 21.33325,
          "velocity": 0.7874015748031497
        },
        {
          "duration": 0.08333299999999966,
          "durationTicks": 120,
          "midi": 77,
          "name": "F5",
          "ticks": 30360,
          "time": 21.416583000000003,
          "velocity": 0.7874015748031497
        },
        {
          "duration": 0.08333299999999966,
          "durationTicks": 120,
          "midi": 76,
          "name": "E5",
          "ticks": 30480,
          "time": 21.499916000000002,
          "velocity": 0.7874015748031497
        },
        {
          "duration": 0.16666599999999931,
          "durationTicks": 240,
          "midi": 48,
          "name": "C3",
          "ticks": 30480,
          "time": 21.499916000000002,
          "velocity": 0.7874015748031497
        },
        {
          "duration": 0.08333299999999966,
          "durationTicks": 120,
          "midi": 74,
          "name": "D5",
          "ticks": 30600,
          "time": 21.583249000000002,
          "velocity": 0.7874015748031497
        },
        {
          "duration": 0.16666599999999931,
          "durationTicks": 240,
          "midi": 72,
          "name": "C5",
          "ticks": 30720,
          "time": 21.666582000000002,
          "velocity": 0.7874015748031497
        },
        {
          "duration": 0.16666599999999931,
          "durationTicks": 240,
          "midi": 60,
          "name": "C4",
          "ticks": 30720,
          "time": 21.666582000000002,
          "velocity": 0.7874015748031497
        },
        {
          "duration": 0.16666599999999931,
          "durationTicks": 240,
          "midi": 57,
          "name": "A3",
          "ticks": 30960,
          "time": 21.833248,
          "velocity": 0.7874015748031497
        },
        {
          "duration": 0.16666599999999931,
          "durationTicks": 240,
          "midi": 34,
          "name": "A#1",
          "ticks": 30960,
          "time": 21.833248,
          "velocity": 0.7874015748031497
        },
        {
          "duration": 0.16666599999999931,
          "durationTicks": 240,
          "midi": 65,
          "name": "F4",
          "ticks": 31200,
          "time": 21.999914,
          "velocity": 0.7874015748031497
        },
        {
          "duration": 0.16666599999999931,
          "durationTicks": 240,
          "midi": 46,
          "name": "A#2",
          "ticks": 31200,
          "time": 21.999914,
          "velocity": 0.7874015748031497
        },
        {
          "duration": 0.08333299999999966,
          "durationTicks": 120,
          "midi": 64,
          "name": "E4",
          "ticks": 31440,
          "time": 22.16658,
          "velocity": 0.7874015748031497
        },
        {
          "duration": 0.16666600000000287,
          "durationTicks": 240,
          "midi": 34,
          "name": "A#1",
          "ticks": 31440,
          "time": 22.16658,
          "velocity": 0.7874015748031497
        },
        {
          "duration": 0.08333300000000321,
          "durationTicks": 120,
          "midi": 65,
          "name": "F4",
          "ticks": 31560,
          "time": 22.249913,
          "velocity": 0.7874015748031497
        },
        {
          "duration": 0.16666599999999931,
          "durationTicks": 240,
          "midi": 64,
          "name": "E4",
          "ticks": 31680,
          "time": 22.333246000000003,
          "velocity": 0.7874015748031497
        },
        {
          "duration": 0.16666599999999931,
          "durationTicks": 240,
          "midi": 46,
          "name": "A#2",
          "ticks": 31680,
          "time": 22.333246000000003,
          "velocity": 0.7874015748031497
        },
        {
          "duration": 0.16666599999999931,
          "durationTicks": 240,
          "midi": 67,
          "name": "G4",
          "ticks": 31920,
          "time": 22.499912000000002,
          "velocity": 0.7874015748031497
        },
        {
          "duration": 0.16666599999999931,
          "durationTicks": 240,
          "midi": 36,
          "name": "C2",
          "ticks": 31920,
          "time": 22.499912000000002,
          "velocity": 0.7874015748031497
        },
        {
          "duration": 0.16666599999999931,
          "durationTicks": 240,
          "midi": 65,
          "name": "F4",
          "ticks": 32160,
          "time": 22.666578,
          "velocity": 0.7874015748031497
        },
        {
          "duration": 0.16666599999999931,
          "durationTicks": 240,
          "midi": 48,
          "name": "C3",
          "ticks": 32160,
          "time": 22.666578,
          "velocity": 0.7874015748031497
        },
        {
          "duration": 0.08333299999999966,
          "durationTicks": 120,
          "midi": 64,
          "name": "E4",
          "ticks": 32400,
          "time": 22.833244,
          "velocity": 0.7874015748031497
        },
        {
          "duration": 0.16666599999999931,
          "durationTicks": 240,
          "midi": 36,
          "name": "C2",
          "ticks": 32400,
          "time": 22.833244,
          "velocity": 0.7874015748031497
        },
        {
          "duration": 0.08333299999999966,
          "durationTicks": 120,
          "midi": 65,
          "name": "F4",
          "ticks": 32520,
          "time": 22.916577,
          "velocity": 0.7874015748031497
        },
        {
          "duration": 0.08333299999999966,
          "durationTicks": 120,
          "midi": 64,
          "name": "E4",
          "ticks": 32640,
          "time": 22.99991,
          "velocity": 0.7874015748031497
        },
        {
          "duration": 0.16666600000000287,
          "durationTicks": 240,
          "midi": 48,
          "name": "C3",
          "ticks": 32640,
          "time": 22.99991,
          "velocity": 0.7874015748031497
        },
        {
          "duration": 0.08333300000000321,
          "durationTicks": 120,
          "midi": 60,
          "name": "C4",
          "ticks": 32760,
          "time": 23.083243,
          "velocity": 0.7874015748031497
        },
        {
          "duration": 0.16666599999999931,
          "durationTicks": 240,
          "midi": 62,
          "name": "D4",
          "ticks": 32880,
          "time": 23.166576000000003,
          "velocity": 0.7874015748031497
        },
        {
          "duration": 0.16666599999999931,
          "durationTicks": 240,
          "midi": 38,
          "name": "D2",
          "ticks": 32880,
          "time": 23.166576000000003,
          "velocity": 0.7874015748031497
        },
        {
          "duration": 0.16666599999999931,
          "durationTicks": 240,
          "midi": 69,
          "name": "A4",
          "ticks": 33120,
          "time": 23.333242000000002,
          "velocity": 0.7874015748031497
        },
        {
          "duration": 0.16666599999999931,
          "durationTicks": 240,
          "midi": 50,
          "name": "D3",
          "ticks": 33120,
          "time": 23.333242000000002,
          "velocity": 0.7874015748031497
        },
        {
          "duration": 0.08333299999999966,
          "durationTicks": 120,
          "midi": 67,
          "name": "G4",
          "ticks": 33360,
          "time": 23.499908,
          "velocity": 0.7874015748031497
        },
        {
          "duration": 0.16666599999999931,
          "durationTicks": 240,
          "midi": 38,
          "name": "D2",
          "ticks": 33360,
          "time": 23.499908,
          "velocity": 0.7874015748031497
        },
        {
          "duration": 0.08333299999999966,
          "durationTicks": 120,
          "midi": 69,
          "name": "A4",
          "ticks": 33480,
          "time": 23.583241,
          "velocity": 0.7874015748031497
        },
        {
          "duration": 0.08333299999999966,
          "durationTicks": 120,
          "midi": 67,
          "name": "G4",
          "ticks": 33600,
          "time": 23.666574,
          "velocity": 0.7874015748031497
        },
        {
          "duration": 0.16666599999999931,
          "durationTicks": 240,
          "midi": 50,
          "name": "D3",
          "ticks": 33600,
          "time": 23.666574,
          "velocity": 0.7874015748031497
        },
        {
          "duration": 0.08333299999999966,
          "durationTicks": 120,
          "midi": 69,
          "name": "A4",
          "ticks": 33720,
          "time": 23.749907,
          "velocity": 0.7874015748031497
        },
        {
          "duration": 0.16666600000000287,
          "durationTicks": 240,
          "midi": 72,
          "name": "C5",
          "ticks": 33840,
          "time": 23.83324,
          "velocity": 0.7874015748031497
        },
        {
          "duration": 0.16666600000000287,
          "durationTicks": 240,
          "midi": 38,
          "name": "D2",
          "ticks": 33840,
          "time": 23.83324,
          "velocity": 0.7874015748031497
        },
        {
          "duration": 0.16666599999999931,
          "durationTicks": 240,
          "midi": 69,
          "name": "A4",
          "ticks": 34080,
          "time": 23.999906000000003,
          "velocity": 0.7874015748031497
        },
        {
          "duration": 0.16666599999999931,
          "durationTicks": 240,
          "midi": 50,
          "name": "D3",
          "ticks": 34080,
          "time": 23.999906000000003,
          "velocity": 0.7874015748031497
        },
        {
          "duration": 0.16666599999999931,
          "durationTicks": 240,
          "midi": 67,
          "name": "G4",
          "ticks": 34320,
          "time": 24.166572000000002,
          "velocity": 0.7874015748031497
        },
        {
          "duration": 0.16666599999999931,
          "durationTicks": 240,
          "midi": 36,
          "name": "C2",
          "ticks": 34320,
          "time": 24.166572000000002,
          "velocity": 0.7874015748031497
        },
        {
          "duration": 0.16666599999999931,
          "durationTicks": 240,
          "midi": 69,
          "name": "A4",
          "ticks": 34560,
          "time": 24.333238,
          "velocity": 0.7874015748031497
        },
        {
          "duration": 0.16666599999999931,
          "durationTicks": 240,
          "midi": 48,
          "name": "C3",
          "ticks": 34560,
          "time": 24.333238,
          "velocity": 0.7874015748031497
        },
        {
          "duration": 0.16666599999999931,
          "durationTicks": 240,
          "midi": 57,
          "name": "A3",
          "ticks": 34800,
          "time": 24.499904,
          "velocity": 0.7874015748031497
        },
        {
          "duration": 0.16666599999999931,
          "durationTicks": 240,
          "midi": 34,
          "name": "A#1",
          "ticks": 34800,
          "time": 24.499904,
          "velocity": 0.7874015748031497
        },
        {
          "duration": 0.16666600000000287,
          "durationTicks": 240,
          "midi": 65,
          "name": "F4",
          "ticks": 35040,
          "time": 24.66657,
          "velocity": 0.7874015748031497
        },
        {
          "duration": 0.16666600000000287,
          "durationTicks": 240,
          "midi": 46,
          "name": "A#2",
          "ticks": 35040,
          "time": 24.66657,
          "velocity": 0.7874015748031497
        },
        {
          "duration": 0.08333299999999966,
          "durationTicks": 120,
          "midi": 64,
          "name": "E4",
          "ticks": 35280,
          "time": 24.833236000000003,
          "velocity": 0.7874015748031497
        },
        {
          "duration": 0.16666599999999931,
          "durationTicks": 240,
          "midi": 34,
          "name": "A#1",
          "ticks": 35280,
          "time": 24.833236000000003,
          "velocity": 0.7874015748031497
        },
        {
          "duration": 0.08333299999999966,
          "durationTicks": 120,
          "midi": 65,
          "name": "F4",
          "ticks": 35400,
          "time": 24.916569000000003,
          "velocity": 0.7874015748031497
        },
        {
          "duration": 0.16666599999999931,
          "durationTicks": 240,
          "midi": 64,
          "name": "E4",
          "ticks": 35520,
          "time": 24.999902000000002,
          "velocity": 0.7874015748031497
        },
        {
          "duration": 0.16666599999999931,
          "durationTicks": 240,
          "midi": 46,
          "name": "A#2",
          "ticks": 35520,
          "time": 24.999902000000002,
          "velocity": 0.7874015748031497
        },
        {
          "duration": 0.16666599999999931,
          "durationTicks": 240,
          "midi": 67,
          "name": "G4",
          "ticks": 35760,
          "time": 25.166568,
          "velocity": 0.7874015748031497
        },
        {
          "duration": 0.16666599999999931,
          "durationTicks": 240,
          "midi": 36,
          "name": "C2",
          "ticks": 35760,
          "time": 25.166568,
          "velocity": 0.7874015748031497
        },
        {
          "duration": 0.16666599999999931,
          "durationTicks": 240,
          "midi": 65,
          "name": "F4",
          "ticks": 36000,
          "time": 25.333234,
          "velocity": 0.7874015748031497
        },
        {
          "duration": 0.16666599999999931,
          "durationTicks": 240,
          "midi": 48,
          "name": "C3",
          "ticks": 36000,
          "time": 25.333234,
          "velocity": 0.7874015748031497
        },
        {
          "duration": 0.08333299999999966,
          "durationTicks": 120,
          "midi": 64,
          "name": "E4",
          "ticks": 36240,
          "time": 25.4999,
          "velocity": 0.7874015748031497
        },
        {
          "duration": 0.16666599999999931,
          "durationTicks": 240,
          "midi": 36,
          "name": "C2",
          "ticks": 36240,
          "time": 25.4999,
          "velocity": 0.7874015748031497
        },
        {
          "duration": 0.08333299999999966,
          "durationTicks": 120,
          "midi": 65,
          "name": "F4",
          "ticks": 36360,
          "time": 25.583233,
          "velocity": 0.7874015748031497
        },
        {
          "duration": 0.08333300000000321,
          "durationTicks": 120,
          "midi": 64,
          "name": "E4",
          "ticks": 36480,
          "time": 25.666566,
          "velocity": 0.7874015748031497
        },
        {
          "duration": 0.16666600000000287,
          "durationTicks": 240,
          "midi": 48,
          "name": "C3",
          "ticks": 36480,
          "time": 25.666566,
          "velocity": 0.7874015748031497
        },
        {
          "duration": 0.08333299999999966,
          "durationTicks": 120,
          "midi": 60,
          "name": "C4",
          "ticks": 36600,
          "time": 25.749899000000003,
          "velocity": 0.7874015748031497
        },
        {
          "duration": 0.16666599999999931,
          "durationTicks": 240,
          "midi": 62,
          "name": "D4",
          "ticks": 36720,
          "time": 25.833232000000002,
          "velocity": 0.7874015748031497
        },
        {
          "duration": 0.16666599999999931,
          "durationTicks": 240,
          "midi": 38,
          "name": "D2",
          "ticks": 36720,
          "time": 25.833232000000002,
          "velocity": 0.7874015748031497
        },
        {
          "duration": 0.16666599999999931,
          "durationTicks": 240,
          "midi": 69,
          "name": "A4",
          "ticks": 36960,
          "time": 25.999898,
          "velocity": 0.7874015748031497
        },
        {
          "duration": 0.16666599999999931,
          "durationTicks": 240,
          "midi": 50,
          "name": "D3",
          "ticks": 36960,
          "time": 25.999898,
          "velocity": 0.7874015748031497
        },
        {
          "duration": 0.08333299999999966,
          "durationTicks": 120,
          "midi": 67,
          "name": "G4",
          "ticks": 37200,
          "time": 26.166564,
          "velocity": 0.7874015748031497
        },
        {
          "duration": 0.16666599999999931,
          "durationTicks": 240,
          "midi": 40,
          "name": "E2",
          "ticks": 37200,
          "time": 26.166564,
          "velocity": 0.7874015748031497
        },
        {
          "duration": 0.08333299999999966,
          "durationTicks": 120,
          "midi": 69,
          "name": "A4",
          "ticks": 37320,
          "time": 26.249897,
          "velocity": 0.7874015748031497
        },
        {
          "duration": 0.08333299999999966,
          "durationTicks": 120,
          "midi": 67,
          "name": "G4",
          "ticks": 37440,
          "time": 26.33323,
          "velocity": 0.7874015748031497
        },
        {
          "duration": 0.16666599999999931,
          "durationTicks": 240,
          "midi": 52,
          "name": "E3",
          "ticks": 37440,
          "time": 26.33323,
          "velocity": 0.7874015748031497
        },
        {
          "duration": 0.08333299999999966,
          "durationTicks": 120,
          "midi": 69,
          "name": "A4",
          "ticks": 37560,
          "time": 26.416563,
          "velocity": 0.7874015748031497
        },
        {
          "duration": 0.16666600000000287,
          "durationTicks": 240,
          "midi": 73,
          "name": "C#5",
          "ticks": 37680,
          "time": 26.499896,
          "velocity": 0.7874015748031497
        },
        {
          "duration": 0.16666600000000287,
          "durationTicks": 240,
          "midi": 41,
          "name": "F2",
          "ticks": 37680,
          "time": 26.499896,
          "velocity": 0.7874015748031497
        },
        {
          "duration": 0.16666599999999931,
          "durationTicks": 240,
          "midi": 69,
          "name": "A4",
          "ticks": 37920,
          "time": 26.666562000000003,
          "velocity": 0.7874015748031497
        },
        {
          "duration": 0.16666599999999931,
          "durationTicks": 240,
          "midi": 53,
          "name": "F3",
          "ticks": 37920,
          "time": 26.666562000000003,
          "velocity": 0.7874015748031497
        },
        {
          "duration": 0.16666599999999931,
          "durationTicks": 240,
          "midi": 67,
          "name": "G4",
          "ticks": 38160,
          "time": 26.833228000000002,
          "velocity": 0.7874015748031497
        },
        {
          "duration": 0.16666599999999931,
          "durationTicks": 240,
          "midi": 43,
          "name": "G2",
          "ticks": 38160,
          "time": 26.833228000000002,
          "velocity": 0.7874015748031497
        },
        {
          "duration": 0.16666599999999931,
          "durationTicks": 240,
          "midi": 69,
          "name": "A4",
          "ticks": 38400,
          "time": 26.999894,
          "velocity": 0.7874015748031497
        },
        {
          "duration": 0.16666599999999931,
          "durationTicks": 240,
          "midi": 55,
          "name": "G3",
          "ticks": 38400,
          "time": 26.999894,
          "velocity": 0.7874015748031497
        },
        {
          "duration": 0.16666599999999931,
          "durationTicks": 240,
          "midi": 57,
          "name": "A3",
          "ticks": 38640,
          "time": 27.16656,
          "velocity": 0.7874015748031497
        },
        {
          "duration": 0.16666599999999931,
          "durationTicks": 240,
          "midi": 34,
          "name": "A#1",
          "ticks": 38640,
          "time": 27.16656,
          "velocity": 0.7874015748031497
        },
        {
          "duration": 0.16666600000000287,
          "durationTicks": 240,
          "midi": 65,
          "name": "F4",
          "ticks": 38880,
          "time": 27.333226,
          "velocity": 0.7874015748031497
        },
        {
          "duration": 0.16666600000000287,
          "durationTicks": 240,
          "midi": 46,
          "name": "A#2",
          "ticks": 38880,
          "time": 27.333226,
          "velocity": 0.7874015748031497
        },
        {
          "duration": 0.08333299999999966,
          "durationTicks": 120,
          "midi": 64,
          "name": "E4",
          "ticks": 39120,
          "time": 27.499892000000003,
          "velocity": 0.7874015748031497
        },
        {
          "duration": 0.16666599999999931,
          "durationTicks": 240,
          "midi": 34,
          "name": "A#1",
          "ticks": 39120,
          "time": 27.499892000000003,
          "velocity": 0.7874015748031497
        },
        {
          "duration": 0.08333299999999966,
          "durationTicks": 120,
          "midi": 65,
          "name": "F4",
          "ticks": 39240,
          "time": 27.583225000000002,
          "velocity": 0.7874015748031497
        },
        {
          "duration": 0.16666599999999931,
          "durationTicks": 240,
          "midi": 64,
          "name": "E4",
          "ticks": 39360,
          "time": 27.666558000000002,
          "velocity": 0.7874015748031497
        },
        {
          "duration": 0.16666599999999931,
          "durationTicks": 240,
          "midi": 46,
          "name": "A#2",
          "ticks": 39360,
          "time": 27.666558000000002,
          "velocity": 0.7874015748031497
        },
        {
          "duration": 0.16666599999999931,
          "durationTicks": 240,
          "midi": 67,
          "name": "G4",
          "ticks": 39600,
          "time": 27.833224,
          "velocity": 0.7874015748031497
        },
        {
          "duration": 0.16666599999999931,
          "durationTicks": 240,
          "midi": 36,
          "name": "C2",
          "ticks": 39600,
          "time": 27.833224,
          "velocity": 0.7874015748031497
        },
        {
          "duration": 0.16666599999999931,
          "durationTicks": 240,
          "midi": 65,
          "name": "F4",
          "ticks": 39840,
          "time": 27.99989,
          "velocity": 0.7874015748031497
        },
        {
          "duration": 0.16666599999999931,
          "durationTicks": 240,
          "midi": 48,
          "name": "C3",
          "ticks": 39840,
          "time": 27.99989,
          "velocity": 0.7874015748031497
        },
        {
          "duration": 0.08333300000000321,
          "durationTicks": 120,
          "midi": 64,
          "name": "E4",
          "ticks": 40080,
          "time": 28.166556,
          "velocity": 0.7874015748031497
        },
        {
          "duration": 0.16666600000000287,
          "durationTicks": 240,
          "midi": 36,
          "name": "C2",
          "ticks": 40080,
          "time": 28.166556,
          "velocity": 0.7874015748031497
        },
        {
          "duration": 0.08333299999999966,
          "durationTicks": 120,
          "midi": 65,
          "name": "F4",
          "ticks": 40200,
          "time": 28.249889000000003,
          "velocity": 0.7874015748031497
        },
        {
          "duration": 0.08333299999999966,
          "durationTicks": 120,
          "midi": 64,
          "name": "E4",
          "ticks": 40320,
          "time": 28.333222000000003,
          "velocity": 0.7874015748031497
        },
        {
          "duration": 0.16666599999999931,
          "durationTicks": 240,
          "midi": 48,
          "name": "C3",
          "ticks": 40320,
          "time": 28.333222000000003,
          "velocity": 0.7874015748031497
        },
        {
          "duration": 0.08333299999999966,
          "durationTicks": 120,
          "midi": 60,
          "name": "C4",
          "ticks": 40440,
          "time": 28.416555000000002,
          "velocity": 0.7874015748031497
        },
        {
          "duration": 0.16666599999999931,
          "durationTicks": 240,
          "midi": 62,
          "name": "D4",
          "ticks": 40560,
          "time": 28.499888000000002,
          "velocity": 0.7874015748031497
        },
        {
          "duration": 0.16666599999999931,
          "durationTicks": 240,
          "midi": 38,
          "name": "D2",
          "ticks": 40560,
          "time": 28.499888000000002,
          "velocity": 0.7874015748031497
        },
        {
          "duration": 0.16666599999999931,
          "durationTicks": 240,
          "midi": 69,
          "name": "A4",
          "ticks": 40800,
          "time": 28.666554,
          "velocity": 0.7874015748031497
        },
        {
          "duration": 0.16666599999999931,
          "durationTicks": 240,
          "midi": 50,
          "name": "D3",
          "ticks": 40800,
          "time": 28.666554,
          "velocity": 0.7874015748031497
        },
        {
          "duration": 0.08333299999999966,
          "durationTicks": 120,
          "midi": 67,
          "name": "G4",
          "ticks": 41040,
          "time": 28.83322,
          "velocity": 0.7874015748031497
        },
        {
          "duration": 0.16666599999999931,
          "durationTicks": 240,
          "midi": 38,
          "name": "D2",
          "ticks": 41040,
          "time": 28.83322,
          "velocity": 0.7874015748031497
        },
        {
          "duration": 0.08333299999999966,
          "durationTicks": 120,
          "midi": 69,
          "name": "A4",
          "ticks": 41160,
          "time": 28.916553,
          "velocity": 0.7874015748031497
        },
        {
          "duration": 0.08333299999999966,
          "durationTicks": 120,
          "midi": 67,
          "name": "G4",
          "ticks": 41280,
          "time": 28.999886,
          "velocity": 0.7874015748031497
        },
        {
          "duration": 0.16666600000000287,
          "durationTicks": 240,
          "midi": 50,
          "name": "D3",
          "ticks": 41280,
          "time": 28.999886,
          "velocity": 0.7874015748031497
        },
        {
          "duration": 0.08333300000000321,
          "durationTicks": 120,
          "midi": 69,
          "name": "A4",
          "ticks": 41400,
          "time": 29.083219,
          "velocity": 0.7874015748031497
        },
        {
          "duration": 0.16666599999999931,
          "durationTicks": 240,
          "midi": 72,
          "name": "C5",
          "ticks": 41520,
          "time": 29.166552000000003,
          "velocity": 0.7874015748031497
        },
        {
          "duration": 0.16666599999999931,
          "durationTicks": 240,
          "midi": 38,
          "name": "D2",
          "ticks": 41520,
          "time": 29.166552000000003,
          "velocity": 0.7874015748031497
        },
        {
          "duration": 0.16666599999999931,
          "durationTicks": 240,
          "midi": 69,
          "name": "A4",
          "ticks": 41760,
          "time": 29.333218000000002,
          "velocity": 0.7874015748031497
        },
        {
          "duration": 0.16666599999999931,
          "durationTicks": 240,
          "midi": 50,
          "name": "D3",
          "ticks": 41760,
          "time": 29.333218000000002,
          "velocity": 0.7874015748031497
        },
        {
          "duration": 0.16666599999999931,
          "durationTicks": 240,
          "midi": 65,
          "name": "F4",
          "ticks": 42000,
          "time": 29.499884,
          "velocity": 0.7874015748031497
        },
        {
          "duration": 0.16666599999999931,
          "durationTicks": 240,
          "midi": 36,
          "name": "C2",
          "ticks": 42000,
          "time": 29.499884,
          "velocity": 0.7874015748031497
        },
        {
          "duration": 0.16666599999999931,
          "durationTicks": 240,
          "midi": 66,
          "name": "F#4",
          "ticks": 42240,
          "time": 29.66655,
          "velocity": 0.7874015748031497
        },
        {
          "duration": 0.16666599999999931,
          "durationTicks": 240,
          "midi": 48,
          "name": "C3",
          "ticks": 42240,
          "time": 29.66655,
          "velocity": 0.7874015748031497
        },
        {
          "duration": 0.16666600000000287,
          "durationTicks": 240,
          "midi": 67,
          "name": "G4",
          "ticks": 42480,
          "time": 29.833216,
          "velocity": 0.7874015748031497
        },
        {
          "duration": 0.16666600000000287,
          "durationTicks": 240,
          "midi": 31,
          "name": "G1",
          "ticks": 42480,
          "time": 29.833216,
          "velocity": 0.7874015748031497
        },
        {
          "duration": 0.08333299999999966,
          "durationTicks": 120,
          "midi": 58,
          "name": "A#3",
          "ticks": 42720,
          "time": 29.999882000000003,
          "velocity": 0.7874015748031497
        },
        {
          "duration": 0.16666599999999931,
          "durationTicks": 240,
          "midi": 43,
          "name": "G2",
          "ticks": 42720,
          "time": 29.999882000000003,
          "velocity": 0.7874015748031497
        },
        {
          "duration": 0.08333299999999966,
          "durationTicks": 120,
          "midi": 67,
          "name": "G4",
          "ticks": 42840,
          "time": 30.083215000000003,
          "velocity": 0.7874015748031497
        },
        {
          "duration": 0.16666599999999931,
          "durationTicks": 240,
          "midi": 58,
          "name": "A#3",
          "ticks": 42960,
          "time": 30.166548000000002,
          "velocity": 0.7874015748031497
        },
        {
          "duration": 0.16666599999999931,
          "durationTicks": 240,
          "midi": 31,
          "name": "G1",
          "ticks": 42960,
          "time": 30.166548000000002,
          "velocity": 0.7874015748031497
        },
        {
          "duration": 0.16666599999999931,
          "durationTicks": 240,
          "midi": 67,
          "name": "G4",
          "ticks": 43200,
          "time": 30.333214,
          "velocity": 0.7874015748031497
        },
        {
          "duration": 0.16666599999999931,
          "durationTicks": 240,
          "midi": 43,
          "name": "G2",
          "ticks": 43200,
          "time": 30.333214,
          "velocity": 0.7874015748031497
        },
        {
          "duration": 0.16666599999999931,
          "durationTicks": 240,
          "midi": 69,
          "name": "A4",
          "ticks": 43440,
          "time": 30.49988,
          "velocity": 0.7874015748031497
        },
        {
          "duration": 0.16666599999999931,
          "durationTicks": 240,
          "midi": 33,
          "name": "A1",
          "ticks": 43440,
          "time": 30.49988,
          "velocity": 0.7874015748031497
        },
        {
          "duration": 0.08333299999999966,
          "durationTicks": 120,
          "midi": 60,
          "name": "C4",
          "ticks": 43680,
          "time": 30.666546,
          "velocity": 0.7874015748031497
        },
        {
          "duration": 0.16666600000000287,
          "durationTicks": 240,
          "midi": 45,
          "name": "A2",
          "ticks": 43680,
          "time": 30.666546,
          "velocity": 0.7874015748031497
        },
        {
          "duration": 0.08333300000000321,
          "durationTicks": 120,
          "midi": 69,
          "name": "A4",
          "ticks": 43800,
          "time": 30.749879,
          "velocity": 0.7874015748031497
        },
        {
          "duration": 0.16666599999999931,
          "durationTicks": 240,
          "midi": 60,
          "name": "C4",
          "ticks": 43920,
          "time": 30.833212000000003,
          "velocity": 0.7874015748031497
        },
        {
          "duration": 0.16666599999999931,
          "durationTicks": 240,
          "midi": 33,
          "name": "A1",
          "ticks": 43920,
          "time": 30.833212000000003,
          "velocity": 0.7874015748031497
        },
        {
          "duration": 0.16666599999999931,
          "durationTicks": 240,
          "midi": 69,
          "name": "A4",
          "ticks": 44160,
          "time": 30.999878000000002,
          "velocity": 0.7874015748031497
        },
        {
          "duration": 0.16666599999999931,
          "durationTicks": 240,
          "midi": 45,
          "name": "A2",
          "ticks": 44160,
          "time": 30.999878000000002,
          "velocity": 0.7874015748031497
        },
        {
          "duration": 0.16666599999999931,
          "durationTicks": 240,
          "midi": 70,
          "name": "A#4",
          "ticks": 44400,
          "time": 31.166544000000002,
          "velocity": 0.7874015748031497
        },
        {
          "duration": 0.16666599999999931,
          "durationTicks": 240,
          "midi": 34,
          "name": "A#1",
          "ticks": 44400,
          "time": 31.166544000000002,
          "velocity": 0.7874015748031497
        },
        {
          "duration": 0.08333299999999966,
          "durationTicks": 120,
          "midi": 70,
          "name": "A#4",
          "ticks": 44640,
          "time": 31.33321,
          "velocity": 0.7874015748031497
        },
        {
          "duration": 0.16666599999999931,
          "durationTicks": 240,
          "midi": 46,
          "name": "A#2",
          "ticks": 44640,
          "time": 31.33321,
          "velocity": 0.7874015748031497
        },
        {
          "duration": 0.08333299999999966,
          "durationTicks": 120,
          "midi": 70,
          "name": "A#4",
          "ticks": 44760,
          "time": 31.416543,
          "velocity": 0.7874015748031497
        },
        {
          "duration": 0.16666600000000287,
          "durationTicks": 240,
          "midi": 70,
          "name": "A#4",
          "ticks": 44880,
          "time": 31.499876,
          "velocity": 0.7874015748031497
        },
        {
          "duration": 0.16666600000000287,
          "durationTicks": 240,
          "midi": 35,
          "name": "B1",
          "ticks": 44880,
          "time": 31.499876,
          "velocity": 0.7874015748031497
        },
        {
          "duration": 0.16666599999999931,
          "durationTicks": 240,
          "midi": 71,
          "name": "B4",
          "ticks": 45120,
          "time": 31.666542000000003,
          "velocity": 0.7874015748031497
        },
        {
          "duration": 0.16666599999999931,
          "durationTicks": 240,
          "midi": 47,
          "name": "B2",
          "ticks": 45120,
          "time": 31.666542000000003,
          "velocity": 0.7874015748031497
        },
        {
          "duration": 0.6666640000000008,
          "durationTicks": 960,
          "midi": 72,
          "name": "C5",
          "ticks": 45360,
          "time": 31.833208000000003,
          "velocity": 0.7874015748031497
        },
        {
          "duration": 0.16666599999999931,
          "durationTicks": 240,
          "midi": 36,
          "name": "C2",
          "ticks": 45360,
          "time": 31.833208000000003,
          "velocity": 0.7874015748031497
        },
        {
          "duration": 0.16666599999999576,
          "durationTicks": 240,
          "midi": 48,
          "name": "C3",
          "ticks": 45600,
          "time": 31.999874000000002,
          "velocity": 0.7874015748031497
        },
        {
          "duration": 0.16666600000000642,
          "durationTicks": 240,
          "midi": 36,
          "name": "C2",
          "ticks": 45840,
          "time": 32.16654,
          "velocity": 0.7874015748031497
        },
        {
          "duration": 0.16666599999999931,
          "durationTicks": 240,
          "midi": 48,
          "name": "C3",
          "ticks": 46080,
          "time": 32.333206000000004,
          "velocity": 0.7874015748031497
        },
        {
          "duration": 0.16666599999999931,
          "durationTicks": 240,
          "midi": 57,
          "name": "A3",
          "ticks": 46320,
          "time": 32.499872,
          "velocity": 0.7874015748031497
        },
        {
          "duration": 0.16666599999999931,
          "durationTicks": 240,
          "midi": 34,
          "name": "A#1",
          "ticks": 46320,
          "time": 32.499872,
          "velocity": 0.7874015748031497
        },
        {
          "duration": 0.16666599999999931,
          "durationTicks": 240,
          "midi": 65,
          "name": "F4",
          "ticks": 46560,
          "time": 32.666538,
          "velocity": 0.7874015748031497
        },
        {
          "duration": 0.16666599999999931,
          "durationTicks": 240,
          "midi": 46,
          "name": "A#2",
          "ticks": 46560,
          "time": 32.666538,
          "velocity": 0.7874015748031497
        },
        {
          "duration": 0.0833329999999961,
          "durationTicks": 120,
          "midi": 64,
          "name": "E4",
          "ticks": 46800,
          "time": 32.833204,
          "velocity": 0.7874015748031497
        },
        {
          "duration": 0.16666599999999931,
          "durationTicks": 240,
          "midi": 34,
          "name": "A#1",
          "ticks": 46800,
          "time": 32.833204,
          "velocity": 0.7874015748031497
        },
        {
          "duration": 0.08333300000000321,
          "durationTicks": 120,
          "midi": 65,
          "name": "F4",
          "ticks": 46920,
          "time": 32.916537,
          "velocity": 0.7874015748031497
        },
        {
          "duration": 0.16666599999999931,
          "durationTicks": 240,
          "midi": 64,
          "name": "E4",
          "ticks": 47040,
          "time": 32.99987,
          "velocity": 0.7874015748031497
        },
        {
          "duration": 0.16666599999999931,
          "durationTicks": 240,
          "midi": 46,
          "name": "A#2",
          "ticks": 47040,
          "time": 32.99987,
          "velocity": 0.7874015748031497
        },
        {
          "duration": 0.16666599999999931,
          "durationTicks": 240,
          "midi": 67,
          "name": "G4",
          "ticks": 47280,
          "time": 33.166536,
          "velocity": 0.7874015748031497
        },
        {
          "duration": 0.16666599999999931,
          "durationTicks": 240,
          "midi": 36,
          "name": "C2",
          "ticks": 47280,
          "time": 33.166536,
          "velocity": 0.7874015748031497
        },
        {
          "duration": 0.16666599999999931,
          "durationTicks": 240,
          "midi": 65,
          "name": "F4",
          "ticks": 47520,
          "time": 33.333202,
          "velocity": 0.7874015748031497
        },
        {
          "duration": 0.16666599999999931,
          "durationTicks": 240,
          "midi": 48,
          "name": "C3",
          "ticks": 47520,
          "time": 33.333202,
          "velocity": 0.7874015748031497
        },
        {
          "duration": 0.08333300000000321,
          "durationTicks": 120,
          "midi": 64,
          "name": "E4",
          "ticks": 47760,
          "time": 33.499868,
          "velocity": 0.7874015748031497
        },
        {
          "duration": 0.16666599999999931,
          "durationTicks": 240,
          "midi": 36,
          "name": "C2",
          "ticks": 47760,
          "time": 33.499868,
          "velocity": 0.7874015748031497
        },
        {
          "duration": 0.0833329999999961,
          "durationTicks": 120,
          "midi": 65,
          "name": "F4",
          "ticks": 47880,
          "time": 33.583201,
          "velocity": 0.7874015748031497
        },
        {
          "duration": 0.08333300000000321,
          "durationTicks": 120,
          "midi": 64,
          "name": "E4",
          "ticks": 48000,
          "time": 33.666534,
          "velocity": 0.7874015748031497
        },
        {
          "duration": 0.16666600000000642,
          "durationTicks": 240,
          "midi": 48,
          "name": "C3",
          "ticks": 48000,
          "time": 33.666534,
          "velocity": 0.7874015748031497
        },
        {
          "duration": 0.08333300000000321,
          "durationTicks": 120,
          "midi": 60,
          "name": "C4",
          "ticks": 48120,
          "time": 33.749867,
          "velocity": 0.7874015748031497
        },
        {
          "duration": 0.16666599999999931,
          "durationTicks": 240,
          "midi": 62,
          "name": "D4",
          "ticks": 48240,
          "time": 33.833200000000005,
          "velocity": 0.7874015748031497
        },
        {
          "duration": 0.16666599999999931,
          "durationTicks": 240,
          "midi": 38,
          "name": "D2",
          "ticks": 48240,
          "time": 33.833200000000005,
          "velocity": 0.7874015748031497
        },
        {
          "duration": 0.16666599999999931,
          "durationTicks": 240,
          "midi": 69,
          "name": "A4",
          "ticks": 48480,
          "time": 33.999866000000004,
          "velocity": 0.7874015748031497
        },
        {
          "duration": 0.16666599999999931,
          "durationTicks": 240,
          "midi": 50,
          "name": "D3",
          "ticks": 48480,
          "time": 33.999866000000004,
          "velocity": 0.7874015748031497
        },
        {
          "duration": 0.0833329999999961,
          "durationTicks": 120,
          "midi": 67,
          "name": "G4",
          "ticks": 48720,
          "time": 34.166532000000004,
          "velocity": 0.7874015748031497
        },
        {
          "duration": 0.16666599999999931,
          "durationTicks": 240,
          "midi": 38,
          "name": "D2",
          "ticks": 48720,
          "time": 34.166532000000004,
          "velocity": 0.7874015748031497
        },
        {
          "duration": 0.08333300000000321,
          "durationTicks": 120,
          "midi": 69,
          "name": "A4",
          "ticks": 48840,
          "time": 34.249865,
          "velocity": 0.7874015748031497
        },
        {
          "duration": 0.0833329999999961,
          "durationTicks": 120,
          "midi": 67,
          "name": "G4",
          "ticks": 48960,
          "time": 34.333198,
          "velocity": 0.7874015748031497
        },
        {
          "duration": 0.16666599999999931,
          "durationTicks": 240,
          "midi": 50,
          "name": "D3",
          "ticks": 48960,
          "time": 34.333198,
          "velocity": 0.7874015748031497
        },
        {
          "duration": 0.08333300000000321,
          "durationTicks": 120,
          "midi": 69,
          "name": "A4",
          "ticks": 49080,
          "time": 34.416531,
          "velocity": 0.7874015748031497
        },
        {
          "duration": 0.16666599999999931,
          "durationTicks": 240,
          "midi": 72,
          "name": "C5",
          "ticks": 49200,
          "time": 34.499864,
          "velocity": 0.7874015748031497
        },
        {
          "duration": 0.16666599999999931,
          "durationTicks": 240,
          "midi": 38,
          "name": "D2",
          "ticks": 49200,
          "time": 34.499864,
          "velocity": 0.7874015748031497
        },
        {
          "duration": 0.16666599999999931,
          "durationTicks": 240,
          "midi": 69,
          "name": "A4",
          "ticks": 49440,
          "time": 34.66653,
          "velocity": 0.7874015748031497
        },
        {
          "duration": 0.16666599999999931,
          "durationTicks": 240,
          "midi": 50,
          "name": "D3",
          "ticks": 49440,
          "time": 34.66653,
          "velocity": 0.7874015748031497
        },
        {
          "duration": 0.16666599999999931,
          "durationTicks": 240,
          "midi": 67,
          "name": "G4",
          "ticks": 49680,
          "time": 34.833196,
          "velocity": 0.7874015748031497
        },
        {
          "duration": 0.16666599999999931,
          "durationTicks": 240,
          "midi": 36,
          "name": "C2",
          "ticks": 49680,
          "time": 34.833196,
          "velocity": 0.7874015748031497
        },
        {
          "duration": 0.16666599999999931,
          "durationTicks": 240,
          "midi": 69,
          "name": "A4",
          "ticks": 49920,
          "time": 34.999862,
          "velocity": 0.7874015748031497
        },
        {
          "duration": 0.16666599999999931,
          "durationTicks": 240,
          "midi": 48,
          "name": "C3",
          "ticks": 49920,
          "time": 34.999862,
          "velocity": 0.7874015748031497
        },
        {
          "duration": 0.16666599999999931,
          "durationTicks": 240,
          "midi": 57,
          "name": "A3",
          "ticks": 50160,
          "time": 35.166528,
          "velocity": 0.7874015748031497
        },
        {
          "duration": 0.16666599999999931,
          "durationTicks": 240,
          "midi": 34,
          "name": "A#1",
          "ticks": 50160,
          "time": 35.166528,
          "velocity": 0.7874015748031497
        },
        {
          "duration": 0.16666600000000642,
          "durationTicks": 240,
          "midi": 65,
          "name": "F4",
          "ticks": 50400,
          "time": 35.333194,
          "velocity": 0.7874015748031497
        },
        {
          "duration": 0.16666600000000642,
          "durationTicks": 240,
          "midi": 46,
          "name": "A#2",
          "ticks": 50400,
          "time": 35.333194,
          "velocity": 0.7874015748031497
        },
        {
          "duration": 0.0833329999999961,
          "durationTicks": 120,
          "midi": 64,
          "name": "E4",
          "ticks": 50640,
          "time": 35.499860000000005,
          "velocity": 0.7874015748031497
        },
        {
          "duration": 0.16666599999999931,
          "durationTicks": 240,
          "midi": 34,
          "name": "A#1",
          "ticks": 50640,
          "time": 35.499860000000005,
          "velocity": 0.7874015748031497
        },
        {
          "duration": 0.08333300000000321,
          "durationTicks": 120,
          "midi": 65,
          "name": "F4",
          "ticks": 50760,
          "time": 35.583193,
          "velocity": 0.7874015748031497
        },
        {
          "duration": 0.16666599999999931,
          "durationTicks": 240,
          "midi": 64,
          "name": "E4",
          "ticks": 50880,
          "time": 35.666526000000005,
          "velocity": 0.7874015748031497
        },
        {
          "duration": 0.16666599999999931,
          "durationTicks": 240,
          "midi": 46,
          "name": "A#2",
          "ticks": 50880,
          "time": 35.666526000000005,
          "velocity": 0.7874015748031497
        },
        {
          "duration": 0.16666599999999931,
          "durationTicks": 240,
          "midi": 67,
          "name": "G4",
          "ticks": 51120,
          "time": 35.833192000000004,
          "velocity": 0.7874015748031497
        },
        {
          "duration": 0.16666599999999931,
          "durationTicks": 240,
          "midi": 36,
          "name": "C2",
          "ticks": 51120,
          "time": 35.833192000000004,
          "velocity": 0.7874015748031497
        },
        {
          "duration": 0.16666599999999931,
          "durationTicks": 240,
          "midi": 65,
          "name": "F4",
          "ticks": 51360,
          "time": 35.999858,
          "velocity": 0.7874015748031497
        },
        {
          "duration": 0.16666599999999931,
          "durationTicks": 240,
          "midi": 48,
          "name": "C3",
          "ticks": 51360,
          "time": 35.999858,
          "velocity": 0.7874015748031497
        },
        {
          "duration": 0.0833329999999961,
          "durationTicks": 120,
          "midi": 64,
          "name": "E4",
          "ticks": 51600,
          "time": 36.166524,
          "velocity": 0.7874015748031497
        },
        {
          "duration": 0.16666599999999931,
          "durationTicks": 240,
          "midi": 36,
          "name": "C2",
          "ticks": 51600,
          "time": 36.166524,
          "velocity": 0.7874015748031497
        },
        {
          "duration": 0.08333300000000321,
          "durationTicks": 120,
          "midi": 65,
          "name": "F4",
          "ticks": 51720,
          "time": 36.249857,
          "velocity": 0.7874015748031497
        },
        {
          "duration": 0.08333300000000321,
          "durationTicks": 120,
          "midi": 64,
          "name": "E4",
          "ticks": 51840,
          "time": 36.33319,
          "velocity": 0.7874015748031497
        },
        {
          "duration": 0.16666599999999931,
          "durationTicks": 240,
          "midi": 48,
          "name": "C3",
          "ticks": 51840,
          "time": 36.33319,
          "velocity": 0.7874015748031497
        },
        {
          "duration": 0.0833329999999961,
          "durationTicks": 120,
          "midi": 60,
          "name": "C4",
          "ticks": 51960,
          "time": 36.416523000000005,
          "velocity": 0.7874015748031497
        },
        {
          "duration": 0.16666599999999931,
          "durationTicks": 240,
          "midi": 62,
          "name": "D4",
          "ticks": 52080,
          "time": 36.499856,
          "velocity": 0.7874015748031497
        },
        {
          "duration": 0.16666599999999931,
          "durationTicks": 240,
          "midi": 38,
          "name": "D2",
          "ticks": 52080,
          "time": 36.499856,
          "velocity": 0.7874015748031497
        },
        {
          "duration": 0.16666599999999931,
          "durationTicks": 240,
          "midi": 69,
          "name": "A4",
          "ticks": 52320,
          "time": 36.666522,
          "velocity": 0.7874015748031497
        },
        {
          "duration": 0.16666599999999931,
          "durationTicks": 240,
          "midi": 50,
          "name": "D3",
          "ticks": 52320,
          "time": 36.666522,
          "velocity": 0.7874015748031497
        },
        {
          "duration": 0.08333300000000321,
          "durationTicks": 120,
          "midi": 67,
          "name": "G4",
          "ticks": 52560,
          "time": 36.833188,
          "velocity": 0.7874015748031497
        },
        {
          "duration": 0.16666599999999931,
          "durationTicks": 240,
          "midi": 40,
          "name": "E2",
          "ticks": 52560,
          "time": 36.833188,
          "velocity": 0.7874015748031497
        },
        {
          "duration": 0.0833329999999961,
          "durationTicks": 120,
          "midi": 69,
          "name": "A4",
          "ticks": 52680,
          "time": 36.916521,
          "velocity": 0.7874015748031497
        },
        {
          "duration": 0.08333300000000321,
          "durationTicks": 120,
          "midi": 67,
          "name": "G4",
          "ticks": 52800,
          "time": 36.999854,
          "velocity": 0.7874015748031497
        },
        {
          "duration": 0.16666599999999931,
          "durationTicks": 240,
          "midi": 52,
          "name": "E3",
          "ticks": 52800,
          "time": 36.999854,
          "velocity": 0.7874015748031497
        },
        {
          "duration": 0.0833329999999961,
          "durationTicks": 120,
          "midi": 69,
          "name": "A4",
          "ticks": 52920,
          "time": 37.083187,
          "velocity": 0.7874015748031497
        },
        {
          "duration": 0.16666600000000642,
          "durationTicks": 240,
          "midi": 73,
          "name": "C#5",
          "ticks": 53040,
          "time": 37.16652,
          "velocity": 0.7874015748031497
        },
        {
          "duration": 0.16666600000000642,
          "durationTicks": 240,
          "midi": 41,
          "name": "F2",
          "ticks": 53040,
          "time": 37.16652,
          "velocity": 0.7874015748031497
        },
        {
          "duration": 0.16666599999999931,
          "durationTicks": 240,
          "midi": 69,
          "name": "A4",
          "ticks": 53280,
          "time": 37.333186000000005,
          "velocity": 0.7874015748031497
        },
        {
          "duration": 0.16666599999999931,
          "durationTicks": 240,
          "midi": 53,
          "name": "F3",
          "ticks": 53280,
          "time": 37.333186000000005,
          "velocity": 0.7874015748031497
        },
        {
          "duration": 0.16666599999999931,
          "durationTicks": 240,
          "midi": 67,
          "name": "G4",
          "ticks": 53520,
          "time": 37.499852000000004,
          "velocity": 0.7874015748031497
        },
        {
          "duration": 0.16666599999999931,
          "durationTicks": 240,
          "midi": 43,
          "name": "G2",
          "ticks": 53520,
          "time": 37.499852000000004,
          "velocity": 0.7874015748031497
        },
        {
          "duration": 0.16666599999999931,
          "durationTicks": 240,
          "midi": 69,
          "name": "A4",
          "ticks": 53760,
          "time": 37.666518,
          "velocity": 0.7874015748031497
        },
        {
          "duration": 0.16666599999999931,
          "durationTicks": 240,
          "midi": 55,
          "name": "G3",
          "ticks": 53760,
          "time": 37.666518,
          "velocity": 0.7874015748031497
        },
        {
          "duration": 0.16666599999999931,
          "durationTicks": 240,
          "midi": 57,
          "name": "A3",
          "ticks": 54000,
          "time": 37.833184,
          "velocity": 0.7874015748031497
        },
        {
          "duration": 0.16666599999999931,
          "durationTicks": 240,
          "midi": 34,
          "name": "A#1",
          "ticks": 54000,
          "time": 37.833184,
          "velocity": 0.7874015748031497
        },
        {
          "duration": 0.16666599999999931,
          "durationTicks": 240,
          "midi": 65,
          "name": "F4",
          "ticks": 54240,
          "time": 37.99985,
          "velocity": 0.7874015748031497
        },
        {
          "duration": 0.16666599999999931,
          "durationTicks": 240,
          "midi": 46,
          "name": "A#2",
          "ticks": 54240,
          "time": 37.99985,
          "velocity": 0.7874015748031497
        },
        {
          "duration": 0.08333300000000321,
          "durationTicks": 120,
          "midi": 64,
          "name": "E4",
          "ticks": 54480,
          "time": 38.166516,
          "velocity": 0.7874015748031497
        },
        {
          "duration": 0.16666599999999931,
          "durationTicks": 240,
          "midi": 34,
          "name": "A#1",
          "ticks": 54480,
          "time": 38.166516,
          "velocity": 0.7874015748031497
        },
        {
          "duration": 0.0833329999999961,
          "durationTicks": 120,
          "midi": 65,
          "name": "F4",
          "ticks": 54600,
          "time": 38.249849000000005,
          "velocity": 0.7874015748031497
        },
        {
          "duration": 0.16666599999999931,
          "durationTicks": 240,
          "midi": 64,
          "name": "E4",
          "ticks": 54720,
          "time": 38.333182,
          "velocity": 0.7874015748031497
        },
        {
          "duration": 0.16666599999999931,
          "durationTicks": 240,
          "midi": 46,
          "name": "A#2",
          "ticks": 54720,
          "time": 38.333182,
          "velocity": 0.7874015748031497
        },
        {
          "duration": 0.16666599999999931,
          "durationTicks": 240,
          "midi": 67,
          "name": "G4",
          "ticks": 54960,
          "time": 38.499848,
          "velocity": 0.7874015748031497
        },
        {
          "duration": 0.16666599999999931,
          "durationTicks": 240,
          "midi": 36,
          "name": "C2",
          "ticks": 54960,
          "time": 38.499848,
          "velocity": 0.7874015748031497
        },
        {
          "duration": 0.16666599999999931,
          "durationTicks": 240,
          "midi": 65,
          "name": "F4",
          "ticks": 55200,
          "time": 38.666514,
          "velocity": 0.7874015748031497
        },
        {
          "duration": 0.16666599999999931,
          "durationTicks": 240,
          "midi": 48,
          "name": "C3",
          "ticks": 55200,
          "time": 38.666514,
          "velocity": 0.7874015748031497
        },
        {
          "duration": 0.08333300000000321,
          "durationTicks": 120,
          "midi": 64,
          "name": "E4",
          "ticks": 55440,
          "time": 38.83318,
          "velocity": 0.7874015748031497
        },
        {
          "duration": 0.16666600000000642,
          "durationTicks": 240,
          "midi": 36,
          "name": "C2",
          "ticks": 55440,
          "time": 38.83318,
          "velocity": 0.7874015748031497
        },
        {
          "duration": 0.08333300000000321,
          "durationTicks": 120,
          "midi": 65,
          "name": "F4",
          "ticks": 55560,
          "time": 38.916513,
          "velocity": 0.7874015748031497
        },
        {
          "duration": 0.0833329999999961,
          "durationTicks": 120,
          "midi": 64,
          "name": "E4",
          "ticks": 55680,
          "time": 38.999846000000005,
          "velocity": 0.7874015748031497
        },
        {
          "duration": 0.16666599999999931,
          "durationTicks": 240,
          "midi": 48,
          "name": "C3",
          "ticks": 55680,
          "time": 38.999846000000005,
          "velocity": 0.7874015748031497
        },
        {
          "duration": 0.08333300000000321,
          "durationTicks": 120,
          "midi": 60,
          "name": "C4",
          "ticks": 55800,
          "time": 39.083179,
          "velocity": 0.7874015748031497
        },
        {
          "duration": 0.16666599999999931,
          "durationTicks": 240,
          "midi": 62,
          "name": "D4",
          "ticks": 55920,
          "time": 39.166512000000004,
          "velocity": 0.7874015748031497
        },
        {
          "duration": 0.16666599999999931,
          "durationTicks": 240,
          "midi": 38,
          "name": "D2",
          "ticks": 55920,
          "time": 39.166512000000004,
          "velocity": 0.7874015748031497
        },
        {
          "duration": 0.16666599999999931,
          "durationTicks": 240,
          "midi": 69,
          "name": "A4",
          "ticks": 56160,
          "time": 39.333178000000004,
          "velocity": 0.7874015748031497
        },
        {
          "duration": 0.16666599999999931,
          "durationTicks": 240,
          "midi": 50,
          "name": "D3",
          "ticks": 56160,
          "time": 39.333178000000004,
          "velocity": 0.7874015748031497
        },
        {
          "duration": 0.0833329999999961,
          "durationTicks": 120,
          "midi": 67,
          "name": "G4",
          "ticks": 56400,
          "time": 39.499844,
          "velocity": 0.7874015748031497
        },
        {
          "duration": 0.16666599999999931,
          "durationTicks": 240,
          "midi": 38,
          "name": "D2",
          "ticks": 56400,
          "time": 39.499844,
          "velocity": 0.7874015748031497
        },
        {
          "duration": 0.08333300000000321,
          "durationTicks": 120,
          "midi": 69,
          "name": "A4",
          "ticks": 56520,
          "time": 39.583177,
          "velocity": 0.7874015748031497
        },
        {
          "duration": 0.0833329999999961,
          "durationTicks": 120,
          "midi": 67,
          "name": "G4",
          "ticks": 56640,
          "time": 39.66651,
          "velocity": 0.7874015748031497
        },
        {
          "duration": 0.16666599999999931,
          "durationTicks": 240,
          "midi": 50,
          "name": "D3",
          "ticks": 56640,
          "time": 39.66651,
          "velocity": 0.7874015748031497
        },
        {
          "duration": 0.08333300000000321,
          "durationTicks": 120,
          "midi": 69,
          "name": "A4",
          "ticks": 56760,
          "time": 39.749843,
          "velocity": 0.7874015748031497
        },
        {
          "duration": 0.16666599999999931,
          "durationTicks": 240,
          "midi": 72,
          "name": "C5",
          "ticks": 56880,
          "time": 39.833176,
          "velocity": 0.7874015748031497
        },
        {
          "duration": 0.16666599999999931,
          "durationTicks": 240,
          "midi": 38,
          "name": "D2",
          "ticks": 56880,
          "time": 39.833176,
          "velocity": 0.7874015748031497
        },
        {
          "duration": 0.16666599999999931,
          "durationTicks": 240,
          "midi": 69,
          "name": "A4",
          "ticks": 57120,
          "time": 39.999842,
          "velocity": 0.7874015748031497
        },
        {
          "duration": 0.16666599999999931,
          "durationTicks": 240,
          "midi": 50,
          "name": "D3",
          "ticks": 57120,
          "time": 39.999842,
          "velocity": 0.7874015748031497
        },
        {
          "duration": 0.16666599999999931,
          "durationTicks": 240,
          "midi": 65,
          "name": "F4",
          "ticks": 57360,
          "time": 40.166508,
          "velocity": 0.7874015748031497
        },
        {
          "duration": 0.16666599999999931,
          "durationTicks": 240,
          "midi": 36,
          "name": "C2",
          "ticks": 57360,
          "time": 40.166508,
          "velocity": 0.7874015748031497
        },
        {
          "duration": 0.16666599999999931,
          "durationTicks": 240,
          "midi": 66,
          "name": "F#4",
          "ticks": 57600,
          "time": 40.333174,
          "velocity": 0.7874015748031497
        },
        {
          "duration": 0.16666599999999931,
          "durationTicks": 240,
          "midi": 48,
          "name": "C3",
          "ticks": 57600,
          "time": 40.333174,
          "velocity": 0.7874015748031497
        },
        {
          "duration": 0.16666600000000642,
          "durationTicks": 240,
          "midi": 67,
          "name": "G4",
          "ticks": 57840,
          "time": 40.49984,
          "velocity": 0.7874015748031497
        },
        {
          "duration": 0.16666600000000642,
          "durationTicks": 240,
          "midi": 31,
          "name": "G1",
          "ticks": 57840,
          "time": 40.49984,
          "velocity": 0.7874015748031497
        },
        {
          "duration": 0.0833329999999961,
          "durationTicks": 120,
          "midi": 58,
          "name": "A#3",
          "ticks": 58080,
          "time": 40.666506000000005,
          "velocity": 0.7874015748031497
        },
        {
          "duration": 0.16666599999999931,
          "durationTicks": 240,
          "midi": 43,
          "name": "G2",
          "ticks": 58080,
          "time": 40.666506000000005,
          "velocity": 0.7874015748031497
        },
        {
          "duration": 0.08333300000000321,
          "durationTicks": 120,
          "midi": 67,
          "name": "G4",
          "ticks": 58200,
          "time": 40.749839,
          "velocity": 0.7874015748031497
        },
        {
          "duration": 0.16666599999999931,
          "durationTicks": 240,
          "midi": 58,
          "name": "A#3",
          "ticks": 58320,
          "time": 40.833172000000005,
          "velocity": 0.7874015748031497
        },
        {
          "duration": 0.16666599999999931,
          "durationTicks": 240,
          "midi": 31,
          "name": "G1",
          "ticks": 58320,
          "time": 40.833172000000005,
          "velocity": 0.7874015748031497
        },
        {
          "duration": 0.16666599999999931,
          "durationTicks": 240,
          "midi": 67,
          "name": "G4",
          "ticks": 58560,
          "time": 40.999838000000004,
          "velocity": 0.7874015748031497
        },
        {
          "duration": 0.16666599999999931,
          "durationTicks": 240,
          "midi": 43,
          "name": "G2",
          "ticks": 58560,
          "time": 40.999838000000004,
          "velocity": 0.7874015748031497
        },
        {
          "duration": 0.16666599999999931,
          "durationTicks": 240,
          "midi": 69,
          "name": "A4",
          "ticks": 58800,
          "time": 41.166504,
          "velocity": 0.7874015748031497
        },
        {
          "duration": 0.16666599999999931,
          "durationTicks": 240,
          "midi": 33,
          "name": "A1",
          "ticks": 58800,
          "time": 41.166504,
          "velocity": 0.7874015748031497
        },
        {
          "duration": 0.16666599999999931,
          "durationTicks": 240,
          "midi": 67,
          "name": "G4",
          "ticks": 59040,
          "time": 41.33317,
          "velocity": 0.7874015748031497
        },
        {
          "duration": 0.16666599999999931,
          "durationTicks": 240,
          "midi": 45,
          "name": "A2",
          "ticks": 59040,
          "time": 41.33317,
          "velocity": 0.7874015748031497
        },
        {
          "duration": 0.16666599999999931,
          "durationTicks": 240,
          "midi": 65,
          "name": "F4",
          "ticks": 59280,
          "time": 41.499836,
          "velocity": 0.7874015748031497
        },
        {
          "duration": 0.16666599999999931,
          "durationTicks": 240,
          "midi": 33,
          "name": "A1",
          "ticks": 59280,
          "time": 41.499836,
          "velocity": 0.7874015748031497
        },
        {
          "duration": 0.16666599999999931,
          "durationTicks": 240,
          "midi": 64,
          "name": "E4",
          "ticks": 59520,
          "time": 41.666502,
          "velocity": 0.7874015748031497
        },
        {
          "duration": 0.16666599999999931,
          "durationTicks": 240,
          "midi": 45,
          "name": "A2",
          "ticks": 59520,
          "time": 41.666502,
          "velocity": 0.7874015748031497
        },
        {
          "duration": 1.3333280000000016,
          "durationTicks": 1920,
          "midi": 62,
          "name": "D4",
          "ticks": 59760,
          "time": 41.833168,
          "velocity": 0.7874015748031497
        },
        {
          "duration": 0.16666599999999931,
          "durationTicks": 240,
          "midi": 38,
          "name": "D2",
          "ticks": 59760,
          "time": 41.833168,
          "velocity": 0.7874015748031497
        },
        {
          "duration": 0.16666599999999931,
          "durationTicks": 240,
          "midi": 50,
          "name": "D3",
          "ticks": 60000,
          "time": 41.999834,
          "velocity": 0.7874015748031497
        },
        {
          "duration": 0.16666600000000642,
          "durationTicks": 240,
          "midi": 40,
          "name": "E2",
          "ticks": 60240,
          "time": 42.1665,
          "velocity": 0.7874015748031497
        },
        {
          "duration": 0.16666599999999931,
          "durationTicks": 240,
          "midi": 52,
          "name": "E3",
          "ticks": 60480,
          "time": 42.333166000000006,
          "velocity": 0.7874015748031497
        },
        {
          "duration": 0.16666599999999931,
          "durationTicks": 240,
          "midi": 41,
          "name": "F2",
          "ticks": 60720,
          "time": 42.499832000000005,
          "velocity": 0.7874015748031497
        },
        {
          "duration": 0.16666599999999931,
          "durationTicks": 240,
          "midi": 53,
          "name": "F3",
          "ticks": 60960,
          "time": 42.666498000000004,
          "velocity": 0.7874015748031497
        },
        {
          "duration": 0.16666599999999931,
          "durationTicks": 240,
          "midi": 43,
          "name": "G2",
          "ticks": 61200,
          "time": 42.833164000000004,
          "velocity": 0.7874015748031497
        },
        {
          "duration": 0.16666599999999931,
          "durationTicks": 240,
          "midi": 55,
          "name": "G3",
          "ticks": 61440,
          "time": 42.99983,
          "velocity": 0.7874015748031497
        },
        {
          "duration": 0.16666599999999931,
          "durationTicks": 240,
          "midi": 57,
          "name": "A3",
          "ticks": 61680,
          "time": 43.166496,
          "velocity": 0.7874015748031497
        },
        {
          "duration": 0.16666599999999931,
          "durationTicks": 240,
          "midi": 38,
          "name": "D2",
          "ticks": 61680,
          "time": 43.166496,
          "velocity": 0.7874015748031497
        },
        {
          "duration": 0.16666599999999931,
          "durationTicks": 240,
          "midi": 65,
          "name": "F4",
          "ticks": 61920,
          "time": 43.333162,
          "velocity": 0.7874015748031497
        },
        {
          "duration": 0.16666599999999931,
          "durationTicks": 240,
          "midi": 50,
          "name": "D3",
          "ticks": 61920,
          "time": 43.333162,
          "velocity": 0.7874015748031497
        },
        {
          "duration": 0.08333300000000321,
          "durationTicks": 120,
          "midi": 64,
          "name": "E4",
          "ticks": 62160,
          "time": 43.499828,
          "velocity": 0.7874015748031497
        },
        {
          "duration": 0.16666599999999931,
          "durationTicks": 240,
          "midi": 38,
          "name": "D2",
          "ticks": 62160,
          "time": 43.499828,
          "velocity": 0.7874015748031497
        },
        {
          "duration": 0.0833329999999961,
          "durationTicks": 120,
          "midi": 65,
          "name": "F4",
          "ticks": 62280,
          "time": 43.583161000000004,
          "velocity": 0.7874015748031497
        },
        {
          "duration": 0.16666599999999931,
          "durationTicks": 240,
          "midi": 64,
          "name": "E4",
          "ticks": 62400,
          "time": 43.666494,
          "velocity": 0.7874015748031497
        },
        {
          "duration": 0.16666599999999931,
          "durationTicks": 240,
          "midi": 50,
          "name": "D3",
          "ticks": 62400,
          "time": 43.666494,
          "velocity": 0.7874015748031497
        },
        {
          "duration": 0.16666599999999931,
          "durationTicks": 240,
          "midi": 67,
          "name": "G4",
          "ticks": 62640,
          "time": 43.83316,
          "velocity": 0.7874015748031497
        },
        {
          "duration": 0.16666599999999931,
          "durationTicks": 240,
          "midi": 38,
          "name": "D2",
          "ticks": 62640,
          "time": 43.83316,
          "velocity": 0.7874015748031497
        },
        {
          "duration": 0.16666600000000642,
          "durationTicks": 240,
          "midi": 65,
          "name": "F4",
          "ticks": 62880,
          "time": 43.999826,
          "velocity": 0.7874015748031497
        },
        {
          "duration": 0.16666600000000642,
          "durationTicks": 240,
          "midi": 50,
          "name": "D3",
          "ticks": 62880,
          "time": 43.999826,
          "velocity": 0.7874015748031497
        },
        {
          "duration": 0.0833329999999961,
          "durationTicks": 120,
          "midi": 64,
          "name": "E4",
          "ticks": 63120,
          "time": 44.166492000000005,
          "velocity": 0.7874015748031497
        },
        {
          "duration": 0.16666599999999931,
          "durationTicks": 240,
          "midi": 38,
          "name": "D2",
          "ticks": 63120,
          "time": 44.166492000000005,
          "velocity": 0.7874015748031497
        },
        {
          "duration": 0.08333300000000321,
          "durationTicks": 120,
          "midi": 65,
          "name": "F4",
          "ticks": 63240,
          "time": 44.249825,
          "velocity": 0.7874015748031497
        },
        {
          "duration": 0.0833329999999961,
          "durationTicks": 120,
          "midi": 64,
          "name": "E4",
          "ticks": 63360,
          "time": 44.333158000000005,
          "velocity": 0.7874015748031497
        },
        {
          "duration": 0.16666599999999931,
          "durationTicks": 240,
          "midi": 50,
          "name": "D3",
          "ticks": 63360,
          "time": 44.333158000000005,
          "velocity": 0.7874015748031497
        },
        {
          "duration": 0.08333300000000321,
          "durationTicks": 120,
          "midi": 60,
          "name": "C4",
          "ticks": 63480,
          "time": 44.416491,
          "velocity": 0.7874015748031497
        },
        {
          "duration": 0.16666599999999931,
          "durationTicks": 240,
          "midi": 62,
          "name": "D4",
          "ticks": 63600,
          "time": 44.499824000000004,
          "velocity": 0.7874015748031497
        },
        {
          "duration": 0.16666599999999931,
          "durationTicks": 240,
          "midi": 38,
          "name": "D2",
          "ticks": 63600,
          "time": 44.499824000000004,
          "velocity": 0.7874015748031497
        },
        {
          "duration": 0.16666599999999931,
          "durationTicks": 240,
          "midi": 69,
          "name": "A4",
          "ticks": 63840,
          "time": 44.66649,
          "velocity": 0.7874015748031497
        },
        {
          "duration": 0.16666599999999931,
          "durationTicks": 240,
          "midi": 50,
          "name": "D3",
          "ticks": 63840,
          "time": 44.66649,
          "velocity": 0.7874015748031497
        },
        {
          "duration": 0.08333300000000321,
          "durationTicks": 120,
          "midi": 67,
          "name": "G4",
          "ticks": 64080,
          "time": 44.833156,
          "velocity": 0.7874015748031497
        },
        {
          "duration": 0.16666599999999931,
          "durationTicks": 240,
          "midi": 38,
          "name": "D2",
          "ticks": 64080,
          "time": 44.833156,
          "velocity": 0.7874015748031497
        },
        {
          "duration": 0.0833329999999961,
          "durationTicks": 120,
          "midi": 69,
          "name": "A4",
          "ticks": 64200,
          "time": 44.916489000000006,
          "velocity": 0.7874015748031497
        },
        {
          "duration": 0.08333300000000321,
          "durationTicks": 120,
          "midi": 67,
          "name": "G4",
          "ticks": 64320,
          "time": 44.999822,
          "velocity": 0.7874015748031497
        },
        {
          "duration": 0.16666599999999931,
          "durationTicks": 240,
          "midi": 50,
          "name": "D3",
          "ticks": 64320,
          "time": 44.999822,
          "velocity": 0.7874015748031497
        },
        {
          "duration": 0.0833329999999961,
          "durationTicks": 120,
          "midi": 69,
          "name": "A4",
          "ticks": 64440,
          "time": 45.083155000000005,
          "velocity": 0.7874015748031497
        },
        {
          "duration": 0.16666599999999931,
          "durationTicks": 240,
          "midi": 72,
          "name": "C5",
          "ticks": 64560,
          "time": 45.166488,
          "velocity": 0.7874015748031497
        },
        {
          "duration": 0.16666599999999931,
          "durationTicks": 240,
          "midi": 38,
          "name": "D2",
          "ticks": 64560,
          "time": 45.166488,
          "velocity": 0.7874015748031497
        },
        {
          "duration": 0.16666599999999931,
          "durationTicks": 240,
          "midi": 69,
          "name": "A4",
          "ticks": 64800,
          "time": 45.333154,
          "velocity": 0.7874015748031497
        },
        {
          "duration": 0.16666599999999931,
          "durationTicks": 240,
          "midi": 50,
          "name": "D3",
          "ticks": 64800,
          "time": 45.333154,
          "velocity": 0.7874015748031497
        },
        {
          "duration": 0.16666599999999931,
          "durationTicks": 240,
          "midi": 67,
          "name": "G4",
          "ticks": 65040,
          "time": 45.49982,
          "velocity": 0.7874015748031497
        },
        {
          "duration": 0.16666599999999931,
          "durationTicks": 240,
          "midi": 36,
          "name": "C2",
          "ticks": 65040,
          "time": 45.49982,
          "velocity": 0.7874015748031497
        },
        {
          "duration": 0.16666600000000642,
          "durationTicks": 240,
          "midi": 69,
          "name": "A4",
          "ticks": 65280,
          "time": 45.666486,
          "velocity": 0.7874015748031497
        },
        {
          "duration": 0.16666600000000642,
          "durationTicks": 240,
          "midi": 48,
          "name": "C3",
          "ticks": 65280,
          "time": 45.666486,
          "velocity": 0.7874015748031497
        },
        {
          "duration": 0.16666599999999931,
          "durationTicks": 240,
          "midi": 57,
          "name": "A3",
          "ticks": 65520,
          "time": 45.833152000000005,
          "velocity": 0.7874015748031497
        },
        {
          "duration": 0.16666599999999931,
          "durationTicks": 240,
          "midi": 34,
          "name": "A#1",
          "ticks": 65520,
          "time": 45.833152000000005,
          "velocity": 0.7874015748031497
        },
        {
          "duration": 0.16666599999999931,
          "durationTicks": 240,
          "midi": 65,
          "name": "F4",
          "ticks": 65760,
          "time": 45.999818000000005,
          "velocity": 0.7874015748031497
        },
        {
          "duration": 0.16666599999999931,
          "durationTicks": 240,
          "midi": 46,
          "name": "A#2",
          "ticks": 65760,
          "time": 45.999818000000005,
          "velocity": 0.7874015748031497
        },
        {
          "duration": 0.0833329999999961,
          "durationTicks": 120,
          "midi": 64,
          "name": "E4",
          "ticks": 66000,
          "time": 46.166484000000004,
          "velocity": 0.7874015748031497
        },
        {
          "duration": 0.16666599999999931,
          "durationTicks": 240,
          "midi": 34,
          "name": "A#1",
          "ticks": 66000,
          "time": 46.166484000000004,
          "velocity": 0.7874015748031497
        },
        {
          "duration": 0.08333300000000321,
          "durationTicks": 120,
          "midi": 65,
          "name": "F4",
          "ticks": 66120,
          "time": 46.249817,
          "velocity": 0.7874015748031497
        },
        {
          "duration": 0.16666599999999931,
          "durationTicks": 240,
          "midi": 64,
          "name": "E4",
          "ticks": 66240,
          "time": 46.33315,
          "velocity": 0.7874015748031497
        },
        {
          "duration": 0.16666599999999931,
          "durationTicks": 240,
          "midi": 46,
          "name": "A#2",
          "ticks": 66240,
          "time": 46.33315,
          "velocity": 0.7874015748031497
        },
        {
          "duration": 0.16666599999999931,
          "durationTicks": 240,
          "midi": 67,
          "name": "G4",
          "ticks": 66480,
          "time": 46.499816,
          "velocity": 0.7874015748031497
        },
        {
          "duration": 0.16666599999999931,
          "durationTicks": 240,
          "midi": 34,
          "name": "A#1",
          "ticks": 66480,
          "time": 46.499816,
          "velocity": 0.7874015748031497
        },
        {
          "duration": 0.16666599999999931,
          "durationTicks": 240,
          "midi": 65,
          "name": "F4",
          "ticks": 66720,
          "time": 46.666482,
          "velocity": 0.7874015748031497
        },
        {
          "duration": 0.16666599999999931,
          "durationTicks": 240,
          "midi": 46,
          "name": "A#2",
          "ticks": 66720,
          "time": 46.666482,
          "velocity": 0.7874015748031497
        },
        {
          "duration": 0.08333300000000321,
          "durationTicks": 120,
          "midi": 64,
          "name": "E4",
          "ticks": 66960,
          "time": 46.833148,
          "velocity": 0.7874015748031497
        },
        {
          "duration": 0.16666599999999931,
          "durationTicks": 240,
          "midi": 34,
          "name": "A#1",
          "ticks": 66960,
          "time": 46.833148,
          "velocity": 0.7874015748031497
        },
        {
          "duration": 0.0833329999999961,
          "durationTicks": 120,
          "midi": 65,
          "name": "F4",
          "ticks": 67080,
          "time": 46.916481000000005,
          "velocity": 0.7874015748031497
        },
        {
          "duration": 0.08333300000000321,
          "durationTicks": 120,
          "midi": 64,
          "name": "E4",
          "ticks": 67200,
          "time": 46.999814,
          "velocity": 0.7874015748031497
        },
        {
          "duration": 0.16666599999999931,
          "durationTicks": 240,
          "midi": 46,
          "name": "A#2",
          "ticks": 67200,
          "time": 46.999814,
          "velocity": 0.7874015748031497
        },
        {
          "duration": 0.0833329999999961,
          "durationTicks": 120,
          "midi": 60,
          "name": "C4",
          "ticks": 67320,
          "time": 47.083147000000004,
          "velocity": 0.7874015748031497
        },
        {
          "duration": 0.16666599999999931,
          "durationTicks": 240,
          "midi": 62,
          "name": "D4",
          "ticks": 67440,
          "time": 47.16648,
          "velocity": 0.7874015748031497
        },
        {
          "duration": 0.16666599999999931,
          "durationTicks": 240,
          "midi": 34,
          "name": "A#1",
          "ticks": 67440,
          "time": 47.16648,
          "velocity": 0.7874015748031497
        },
        {
          "duration": 0.16666600000000642,
          "durationTicks": 240,
          "midi": 69,
          "name": "A4",
          "ticks": 67680,
          "time": 47.333146,
          "velocity": 0.7874015748031497
        },
        {
          "duration": 0.16666600000000642,
          "durationTicks": 240,
          "midi": 46,
          "name": "A#2",
          "ticks": 67680,
          "time": 47.333146,
          "velocity": 0.7874015748031497
        },
        {
          "duration": 0.0833329999999961,
          "durationTicks": 120,
          "midi": 67,
          "name": "G4",
          "ticks": 67920,
          "time": 47.499812000000006,
          "velocity": 0.7874015748031497
        },
        {
          "duration": 0.16666599999999931,
          "durationTicks": 240,
          "midi": 34,
          "name": "A#1",
          "ticks": 67920,
          "time": 47.499812000000006,
          "velocity": 0.7874015748031497
        },
        {
          "duration": 0.08333300000000321,
          "durationTicks": 120,
          "midi": 69,
          "name": "A4",
          "ticks": 68040,
          "time": 47.583145,
          "velocity": 0.7874015748031497
        },
        {
          "duration": 0.0833329999999961,
          "durationTicks": 120,
          "midi": 67,
          "name": "G4",
          "ticks": 68160,
          "time": 47.666478000000005,
          "velocity": 0.7874015748031497
        },
        {
          "duration": 0.16666599999999931,
          "durationTicks": 240,
          "midi": 46,
          "name": "A#2",
          "ticks": 68160,
          "time": 47.666478000000005,
          "velocity": 0.7874015748031497
        },
        {
          "duration": 0.08333300000000321,
          "durationTicks": 120,
          "midi": 69,
          "name": "A4",
          "ticks": 68280,
          "time": 47.749811,
          "velocity": 0.7874015748031497
        },
        {
          "duration": 0.16666599999999931,
          "durationTicks": 240,
          "midi": 72,
          "name": "C5",
          "ticks": 68400,
          "time": 47.833144000000004,
          "velocity": 0.7874015748031497
        },
        {
          "duration": 0.16666599999999931,
          "durationTicks": 240,
          "midi": 34,
          "name": "A#1",
          "ticks": 68400,
          "time": 47.833144000000004,
          "velocity": 0.7874015748031497
        },
        {
          "duration": 0.16666599999999931,
          "durationTicks": 240,
          "midi": 69,
          "name": "A4",
          "ticks": 68640,
          "time": 47.999810000000004,
          "velocity": 0.7874015748031497
        },
        {
          "duration": 0.16666599999999931,
          "durationTicks": 240,
          "midi": 46,
          "name": "A#2",
          "ticks": 68640,
          "time": 47.999810000000004,
          "velocity": 0.7874015748031497
        },
        {
          "duration": 0.16666599999999931,
          "durationTicks": 240,
          "midi": 67,
          "name": "G4",
          "ticks": 68880,
          "time": 48.166476,
          "velocity": 0.7874015748031497
        },
        {
          "duration": 0.16666599999999931,
          "durationTicks": 240,
          "midi": 33,
          "name": "A1",
          "ticks": 68880,
          "time": 48.166476,
          "velocity": 0.7874015748031497
        },
        {
          "duration": 0.16666599999999931,
          "durationTicks": 240,
          "midi": 64,
          "name": "E4",
          "ticks": 69120,
          "time": 48.333142,
          "velocity": 0.7874015748031497
        },
        {
          "duration": 0.16666599999999931,
          "durationTicks": 240,
          "midi": 45,
          "name": "A2",
          "ticks": 69120,
          "time": 48.333142,
          "velocity": 0.7874015748031497
        },
        {
          "duration": 0.16666599999999931,
          "durationTicks": 240,
          "midi": 65,
          "name": "F4",
          "ticks": 69360,
          "time": 48.499808,
          "velocity": 0.7874015748031497
        },
        {
          "duration": 0.16666599999999931,
          "durationTicks": 240,
          "midi": 31,
          "name": "G1",
          "ticks": 69360,
          "time": 48.499808,
          "velocity": 0.7874015748031497
        },
        {
          "duration": 0.08333300000000321,
          "durationTicks": 120,
          "midi": 64,
          "name": "E4",
          "ticks": 69600,
          "time": 48.666474,
          "velocity": 0.7874015748031497
        },
        {
          "duration": 0.16666599999999931,
          "durationTicks": 240,
          "midi": 43,
          "name": "G2",
          "ticks": 69600,
          "time": 48.666474,
          "velocity": 0.7874015748031497
        },
        {
          "duration": 0.0833329999999961,
          "durationTicks": 120,
          "midi": 65,
          "name": "F4",
          "ticks": 69720,
          "time": 48.749807000000004,
          "velocity": 0.7874015748031497
        },
        {
          "duration": 0.16666599999999931,
          "durationTicks": 240,
          "midi": 64,
          "name": "E4",
          "ticks": 69840,
          "time": 48.83314,
          "velocity": 0.7874015748031497
        },
        {
          "duration": 0.16666599999999931,
          "durationTicks": 240,
          "midi": 31,
          "name": "G1",
          "ticks": 69840,
          "time": 48.83314,
          "velocity": 0.7874015748031497
        },
        {
          "duration": 0.16666600000000642,
          "durationTicks": 240,
          "midi": 60,
          "name": "C4",
          "ticks": 70080,
          "time": 48.999806,
          "velocity": 0.7874015748031497
        },
        {
          "duration": 0.16666600000000642,
          "durationTicks": 240,
          "midi": 43,
          "name": "G2",
          "ticks": 70080,
          "time": 48.999806,
          "velocity": 0.7874015748031497
        },
        {
          "duration": 0.0833329999999961,
          "durationTicks": 120,
          "midi": 62,
          "name": "D4",
          "ticks": 70320,
          "time": 49.166472000000006,
          "velocity": 0.7874015748031497
        },
        {
          "duration": 0.16666599999999931,
          "durationTicks": 240,
          "midi": 31,
          "name": "G1",
          "ticks": 70320,
          "time": 49.166472000000006,
          "velocity": 0.7874015748031497
        },
        {
          "duration": 0.08333300000000321,
          "durationTicks": 120,
          "midi": 57,
          "name": "A3",
          "ticks": 70440,
          "time": 49.249805,
          "velocity": 0.7874015748031497
        },
        {
          "duration": 0.16666599999999931,
          "durationTicks": 240,
          "midi": 60,
          "name": "C4",
          "ticks": 70560,
          "time": 49.333138000000005,
          "velocity": 0.7874015748031497
        },
        {
          "duration": 0.16666599999999931,
          "durationTicks": 240,
          "midi": 43,
          "name": "G2",
          "ticks": 70560,
          "time": 49.333138000000005,
          "velocity": 0.7874015748031497
        },
        {
          "duration": 0.16666599999999931,
          "durationTicks": 240,
          "midi": 55,
          "name": "G3",
          "ticks": 70800,
          "time": 49.499804000000005,
          "velocity": 0.7874015748031497
        },
        {
          "duration": 0.16666599999999931,
          "durationTicks": 240,
          "midi": 31,
          "name": "G1",
          "ticks": 70800,
          "time": 49.499804000000005,
          "velocity": 0.7874015748031497
        },
        {
          "duration": 0.16666599999999931,
          "durationTicks": 240,
          "midi": 52,
          "name": "E3",
          "ticks": 71040,
          "time": 49.666470000000004,
          "velocity": 0.7874015748031497
        },
        {
          "duration": 0.16666599999999931,
          "durationTicks": 240,
          "midi": 43,
          "name": "G2",
          "ticks": 71040,
          "time": 49.666470000000004,
          "velocity": 0.7874015748031497
        },
        {
          "duration": 0.16666599999999931,
          "durationTicks": 240,
          "midi": 50,
          "name": "D3",
          "ticks": 71280,
          "time": 49.833136,
          "velocity": 0.7874015748031497
        },
        {
          "duration": 0.16666599999999931,
          "durationTicks": 240,
          "midi": 32,
          "name": "G#1",
          "ticks": 71280,
          "time": 49.833136,
          "velocity": 0.7874015748031497
        },
        {
          "duration": 0.16666599999999931,
          "durationTicks": 240,
          "midi": 52,
          "name": "E3",
          "ticks": 71520,
          "time": 49.999802,
          "velocity": 0.7874015748031497
        },
        {
          "duration": 0.16666599999999931,
          "durationTicks": 240,
          "midi": 44,
          "name": "G#2",
          "ticks": 71520,
          "time": 49.999802,
          "velocity": 0.7874015748031497
        },
        {
          "duration": 0.16666599999999931,
          "durationTicks": 240,
          "midi": 53,
          "name": "F3",
          "ticks": 71760,
          "time": 50.166468,
          "velocity": 0.7874015748031497
        },
        {
          "duration": 0.16666599999999931,
          "durationTicks": 240,
          "midi": 32,
          "name": "G#1",
          "ticks": 71760,
          "time": 50.166468,
          "velocity": 0.7874015748031497
        },
        {
          "duration": 0.16666599999999931,
          "durationTicks": 240,
          "midi": 55,
          "name": "G3",
          "ticks": 72000,
          "time": 50.333134,
          "velocity": 0.7874015748031497
        },
        {
          "duration": 0.16666599999999931,
          "durationTicks": 240,
          "midi": 44,
          "name": "G#2",
          "ticks": 72000,
          "time": 50.333134,
          "velocity": 0.7874015748031497
        },
        {
          "duration": 0.16666599999999931,
          "durationTicks": 240,
          "midi": 57,
          "name": "A3",
          "ticks": 72240,
          "time": 50.4998,
          "velocity": 0.7874015748031497
        },
        {
          "duration": 0.16666599999999931,
          "durationTicks": 240,
          "midi": 32,
          "name": "G#1",
          "ticks": 72240,
          "time": 50.4998,
          "velocity": 0.7874015748031497
        },
        {
          "duration": 0.16666599999999931,
          "durationTicks": 240,
          "midi": 61,
          "name": "C#4",
          "ticks": 72480,
          "time": 50.666466,
          "velocity": 0.7874015748031497
        },
        {
          "duration": 0.16666599999999931,
          "durationTicks": 240,
          "midi": 44,
          "name": "G#2",
          "ticks": 72480,
          "time": 50.666466,
          "velocity": 0.7874015748031497
        },
        {
          "duration": 0.16666600000000642,
          "durationTicks": 240,
          "midi": 62,
          "name": "D4",
          "ticks": 72720,
          "time": 50.833132,
          "velocity": 0.7874015748031497
        },
        {
          "duration": 0.16666600000000642,
          "durationTicks": 240,
          "midi": 32,
          "name": "G#1",
          "ticks": 72720,
          "time": 50.833132,
          "velocity": 0.7874015748031497
        },
        {
          "duration": 0.16666599999999931,
          "durationTicks": 240,
          "midi": 64,
          "name": "E4",
          "ticks": 72960,
          "time": 50.999798000000006,
          "velocity": 0.7874015748031497
        },
        {
          "duration": 0.16666599999999931,
          "durationTicks": 240,
          "midi": 44,
          "name": "G#2",
          "ticks": 72960,
          "time": 50.999798000000006,
          "velocity": 0.7874015748031497
        },
        {
          "duration": 0.16666599999999931,
          "durationTicks": 240,
          "midi": 61,
          "name": "C#4",
          "ticks": 73200,
          "time": 51.166464000000005,
          "velocity": 0.7874015748031497
        },
        {
          "duration": 0.16666599999999931,
          "durationTicks": 240,
          "midi": 33,
          "name": "A1",
          "ticks": 73200,
          "time": 51.166464000000005,
          "velocity": 0.7874015748031497
        },
        {
          "duration": 0.16666599999999931,
          "durationTicks": 240,
          "midi": 69,
          "name": "A4",
          "ticks": 73440,
          "time": 51.333130000000004,
          "velocity": 0.7874015748031497
        },
        {
          "duration": 0.16666599999999931,
          "durationTicks": 240,
          "midi": 45,
          "name": "A2",
          "ticks": 73440,
          "time": 51.333130000000004,
          "velocity": 0.7874015748031497
        },
        {
          "duration": 0.0833329999999961,
          "durationTicks": 120,
          "midi": 67,
          "name": "G4",
          "ticks": 73680,
          "time": 51.499796,
          "velocity": 0.7874015748031497
        },
        {
          "duration": 0.16666599999999931,
          "durationTicks": 240,
          "midi": 33,
          "name": "A1",
          "ticks": 73680,
          "time": 51.499796,
          "velocity": 0.7874015748031497
        },
        {
          "duration": 0.08333300000000321,
          "durationTicks": 120,
          "midi": 69,
          "name": "A4",
          "ticks": 73800,
          "time": 51.583129,
          "velocity": 0.7874015748031497
        },
        {
          "duration": 0.16666599999999931,
          "durationTicks": 240,
          "midi": 67,
          "name": "G4",
          "ticks": 73920,
          "time": 51.666462,
          "velocity": 0.7874015748031497
        },
        {
          "duration": 0.16666599999999931,
          "durationTicks": 240,
          "midi": 45,
          "name": "A2",
          "ticks": 73920,
          "time": 51.666462,
          "velocity": 0.7874015748031497
        },
        {
          "duration": 0.16666599999999931,
          "durationTicks": 240,
          "midi": 73,
          "name": "C#5",
          "ticks": 74160,
          "time": 51.833128,
          "velocity": 0.7874015748031497
        },
        {
          "duration": 0.16666599999999931,
          "durationTicks": 240,
          "midi": 33,
          "name": "A1",
          "ticks": 74160,
          "time": 51.833128,
          "velocity": 0.7874015748031497
        },
        {
          "duration": 0.16666599999999931,
          "durationTicks": 240,
          "midi": 69,
          "name": "A4",
          "ticks": 74400,
          "time": 51.999794,
          "velocity": 0.7874015748031497
        },
        {
          "duration": 0.16666599999999931,
          "durationTicks": 240,
          "midi": 45,
          "name": "A2",
          "ticks": 74400,
          "time": 51.999794,
          "velocity": 0.7874015748031497
        },
        {
          "duration": 0.08333300000000321,
          "durationTicks": 120,
          "midi": 67,
          "name": "G4",
          "ticks": 74640,
          "time": 52.16646,
          "velocity": 0.7874015748031497
        },
        {
          "duration": 0.16666599999999931,
          "durationTicks": 240,
          "midi": 33,
          "name": "A1",
          "ticks": 74640,
          "time": 52.16646,
          "velocity": 0.7874015748031497
        },
        {
          "duration": 0.0833329999999961,
          "durationTicks": 120,
          "midi": 69,
          "name": "A4",
          "ticks": 74760,
          "time": 52.249793000000004,
          "velocity": 0.7874015748031497
        },
        {
          "duration": 0.08333300000000321,
          "durationTicks": 120,
          "midi": 67,
          "name": "G4",
          "ticks": 74880,
          "time": 52.333126,
          "velocity": 0.7874015748031497
        },
        {
          "duration": 0.16666599999999931,
          "durationTicks": 240,
          "midi": 45,
          "name": "A2",
          "ticks": 74880,
          "time": 52.333126,
          "velocity": 0.7874015748031497
        },
        {
          "duration": 0.0833329999999961,
          "durationTicks": 120,
          "midi": 64,
          "name": "E4",
          "ticks": 75000,
          "time": 52.416459,
          "velocity": 0.7874015748031497
        },
        {
          "duration": 0.16666600000000642,
          "durationTicks": 240,
          "midi": 61,
          "name": "C#4",
          "ticks": 75120,
          "time": 52.499792,
          "velocity": 0.7874015748031497
        },
        {
          "duration": 0.16666600000000642,
          "durationTicks": 240,
          "midi": 33,
          "name": "A1",
          "ticks": 75120,
          "time": 52.499792,
          "velocity": 0.7874015748031497
        },
        {
          "duration": 0.16666599999999931,
          "durationTicks": 240,
          "midi": 73,
          "name": "C#5",
          "ticks": 75360,
          "time": 52.666458000000006,
          "velocity": 0.7874015748031497
        },
        {
          "duration": 0.16666599999999931,
          "durationTicks": 240,
          "midi": 45,
          "name": "A2",
          "ticks": 75360,
          "time": 52.666458000000006,
          "velocity": 0.7874015748031497
        },
        {
          "duration": 0.0833329999999961,
          "durationTicks": 120,
          "midi": 69,
          "name": "A4",
          "ticks": 75600,
          "time": 52.833124000000005,
          "velocity": 0.7874015748031497
        },
        {
          "duration": 0.16666599999999931,
          "durationTicks": 240,
          "midi": 33,
          "name": "A1",
          "ticks": 75600,
          "time": 52.833124000000005,
          "velocity": 0.7874015748031497
        },
        {
          "duration": 0.08333300000000321,
          "durationTicks": 120,
          "midi": 73,
          "name": "C#5",
          "ticks": 75720,
          "time": 52.916457,
          "velocity": 0.7874015748031497
        },
        {
          "duration": 0.0833329999999961,
          "durationTicks": 120,
          "midi": 69,
          "name": "A4",
          "ticks": 75840,
          "time": 52.999790000000004,
          "velocity": 0.7874015748031497
        },
        {
          "duration": 0.16666599999999931,
          "durationTicks": 240,
          "midi": 45,
          "name": "A2",
          "ticks": 75840,
          "time": 52.999790000000004,
          "velocity": 0.7874015748031497
        },
        {
          "duration": 0.08333300000000321,
          "durationTicks": 120,
          "midi": 73,
          "name": "C#5",
          "ticks": 75960,
          "time": 53.083123,
          "velocity": 0.7874015748031497
        },
        {
          "duration": 0.16666599999999931,
          "durationTicks": 240,
          "midi": 76,
          "name": "E5",
          "ticks": 76080,
          "time": 53.166456000000004,
          "velocity": 0.7874015748031497
        },
        {
          "duration": 0.16666599999999931,
          "durationTicks": 240,
          "midi": 33,
          "name": "A1",
          "ticks": 76080,
          "time": 53.166456000000004,
          "velocity": 0.7874015748031497
        },
        {
          "duration": 0.16666599999999931,
          "durationTicks": 240,
          "midi": 73,
          "name": "C#5",
          "ticks": 76320,
          "time": 53.333122,
          "velocity": 0.7874015748031497
        },
        {
          "duration": 0.16666599999999931,
          "durationTicks": 240,
          "midi": 45,
          "name": "A2",
          "ticks": 76320,
          "time": 53.333122,
          "velocity": 0.7874015748031497
        },
        {
          "duration": 0.16666599999999931,
          "durationTicks": 240,
          "midi": 65,
          "name": "F4",
          "ticks": 76560,
          "time": 53.499788,
          "velocity": 0.7874015748031497
        },
        {
          "duration": 0.16666599999999931,
          "durationTicks": 240,
          "midi": 33,
          "name": "A1",
          "ticks": 76560,
          "time": 53.499788,
          "velocity": 0.7874015748031497
        },
        {
          "duration": 0.16666599999999931,
          "durationTicks": 240,
          "midi": 64,
          "name": "E4",
          "ticks": 76800,
          "time": 53.666454,
          "velocity": 0.7874015748031497
        },
        {
          "duration": 0.16666599999999931,
          "durationTicks": 240,
          "midi": 45,
          "name": "A2",
          "ticks": 76800,
          "time": 53.666454,
          "velocity": 0.7874015748031497
        },
        {
          "duration": 0.16666599999999931,
          "durationTicks": 240,
          "midi": 57,
          "name": "A3",
          "ticks": 77040,
          "time": 53.83312,
          "velocity": 0.7874015748031497
        },
        {
          "duration": 0.16666599999999931,
          "durationTicks": 240,
          "midi": 38,
          "name": "D2",
          "ticks": 77040,
          "time": 53.83312,
          "velocity": 0.7874015748031497
        },
        {
          "duration": 0.16666599999999931,
          "durationTicks": 240,
          "midi": 65,
          "name": "F4",
          "ticks": 77280,
          "time": 53.999786,
          "velocity": 0.7874015748031497
        },
        {
          "duration": 0.16666599999999931,
          "durationTicks": 240,
          "midi": 50,
          "name": "D3",
          "ticks": 77280,
          "time": 53.999786,
          "velocity": 0.7874015748031497
        },
        {
          "duration": 0.08333300000000321,
          "durationTicks": 120,
          "midi": 64,
          "name": "E4",
          "ticks": 77520,
          "time": 54.166452,
          "velocity": 0.7874015748031497
        },
        {
          "duration": 0.16666600000000642,
          "durationTicks": 240,
          "midi": 38,
          "name": "D2",
          "ticks": 77520,
          "time": 54.166452,
          "velocity": 0.7874015748031497
        },
        {
          "duration": 0.08333300000000321,
          "durationTicks": 120,
          "midi": 65,
          "name": "F4",
          "ticks": 77640,
          "time": 54.249785,
          "velocity": 0.7874015748031497
        },
        {
          "duration": 0.16666599999999931,
          "durationTicks": 240,
          "midi": 64,
          "name": "E4",
          "ticks": 77760,
          "time": 54.333118000000006,
          "velocity": 0.7874015748031497
        },
        {
          "duration": 0.16666599999999931,
          "durationTicks": 240,
          "midi": 50,
          "name": "D3",
          "ticks": 77760,
          "time": 54.333118000000006,
          "velocity": 0.7874015748031497
        },
        {
          "duration": 0.16666599999999931,
          "durationTicks": 240,
          "midi": 67,
          "name": "G4",
          "ticks": 78000,
          "time": 54.499784000000005,
          "velocity": 0.7874015748031497
        },
        {
          "duration": 0.16666599999999931,
          "durationTicks": 240,
          "midi": 38,
          "name": "D2",
          "ticks": 78000,
          "time": 54.499784000000005,
          "velocity": 0.7874015748031497
        },
        {
          "duration": 0.16666599999999931,
          "durationTicks": 240,
          "midi": 65,
          "name": "F4",
          "ticks": 78240,
          "time": 54.666450000000005,
          "velocity": 0.7874015748031497
        },
        {
          "duration": 0.16666599999999931,
          "durationTicks": 240,
          "midi": 50,
          "name": "D3",
          "ticks": 78240,
          "time": 54.666450000000005,
          "velocity": 0.7874015748031497
        },
        {
          "duration": 0.0833329999999961,
          "durationTicks": 120,
          "midi": 64,
          "name": "E4",
          "ticks": 78480,
          "time": 54.833116000000004,
          "velocity": 0.7874015748031497
        },
        {
          "duration": 0.16666599999999931,
          "durationTicks": 240,
          "midi": 38,
          "name": "D2",
          "ticks": 78480,
          "time": 54.833116000000004,
          "velocity": 0.7874015748031497
        },
        {
          "duration": 0.08333300000000321,
          "durationTicks": 120,
          "midi": 65,
          "name": "F4",
          "ticks": 78600,
          "time": 54.916449,
          "velocity": 0.7874015748031497
        },
        {
          "duration": 0.0833329999999961,
          "durationTicks": 120,
          "midi": 64,
          "name": "E4",
          "ticks": 78720,
          "time": 54.999782,
          "velocity": 0.7874015748031497
        },
        {
          "duration": 0.16666599999999931,
          "durationTicks": 240,
          "midi": 50,
          "name": "D3",
          "ticks": 78720,
          "time": 54.999782,
          "velocity": 0.7874015748031497
        },
        {
          "duration": 0.08333300000000321,
          "durationTicks": 120,
          "midi": 60,
          "name": "C4",
          "ticks": 78840,
          "time": 55.083115,
          "velocity": 0.7874015748031497
        },
        {
          "duration": 0.16666599999999931,
          "durationTicks": 240,
          "midi": 62,
          "name": "D4",
          "ticks": 78960,
          "time": 55.166448,
          "velocity": 0.7874015748031497
        },
        {
          "duration": 0.16666599999999931,
          "durationTicks": 240,
          "midi": 38,
          "name": "D2",
          "ticks": 78960,
          "time": 55.166448,
          "velocity": 0.7874015748031497
        },
        {
          "duration": 0.16666599999999931,
          "durationTicks": 240,
          "midi": 69,
          "name": "A4",
          "ticks": 79200,
          "time": 55.333114,
          "velocity": 0.7874015748031497
        },
        {
          "duration": 0.16666599999999931,
          "durationTicks": 240,
          "midi": 50,
          "name": "D3",
          "ticks": 79200,
          "time": 55.333114,
          "velocity": 0.7874015748031497
        },
        {
          "duration": 0.08333300000000321,
          "durationTicks": 120,
          "midi": 67,
          "name": "G4",
          "ticks": 79440,
          "time": 55.49978,
          "velocity": 0.7874015748031497
        },
        {
          "duration": 0.16666599999999931,
          "durationTicks": 240,
          "midi": 38,
          "name": "D2",
          "ticks": 79440,
          "time": 55.49978,
          "velocity": 0.7874015748031497
        },
        {
          "duration": 0.0833329999999961,
          "durationTicks": 120,
          "midi": 69,
          "name": "A4",
          "ticks": 79560,
          "time": 55.583113000000004,
          "velocity": 0.7874015748031497
        },
        {
          "duration": 0.08333300000000321,
          "durationTicks": 120,
          "midi": 67,
          "name": "G4",
          "ticks": 79680,
          "time": 55.666446,
          "velocity": 0.7874015748031497
        },
        {
          "duration": 0.16666599999999931,
          "durationTicks": 240,
          "midi": 50,
          "name": "D3",
          "ticks": 79680,
          "time": 55.666446,
          "velocity": 0.7874015748031497
        },
        {
          "duration": 0.0833329999999961,
          "durationTicks": 120,
          "midi": 69,
          "name": "A4",
          "ticks": 79800,
          "time": 55.749779000000004,
          "velocity": 0.7874015748031497
        },
        {
          "duration": 0.16666600000000642,
          "durationTicks": 240,
          "midi": 72,
          "name": "C5",
          "ticks": 79920,
          "time": 55.833112,
          "velocity": 0.7874015748031497
        },
        {
          "duration": 0.16666600000000642,
          "durationTicks": 240,
          "midi": 38,
          "name": "D2",
          "ticks": 79920,
          "time": 55.833112,
          "velocity": 0.7874015748031497
        },
        {
          "duration": 0.16666599999999931,
          "durationTicks": 240,
          "midi": 69,
          "name": "A4",
          "ticks": 80160,
          "time": 55.999778000000006,
          "velocity": 0.7874015748031497
        },
        {
          "duration": 0.16666599999999931,
          "durationTicks": 240,
          "midi": 50,
          "name": "D3",
          "ticks": 80160,
          "time": 55.999778000000006,
          "velocity": 0.7874015748031497
        },
        {
          "duration": 0.16666599999999931,
          "durationTicks": 240,
          "midi": 67,
          "name": "G4",
          "ticks": 80400,
          "time": 56.166444000000006,
          "velocity": 0.7874015748031497
        },
        {
          "duration": 0.16666599999999931,
          "durationTicks": 240,
          "midi": 36,
          "name": "C2",
          "ticks": 80400,
          "time": 56.166444000000006,
          "velocity": 0.7874015748031497
        },
        {
          "duration": 0.16666599999999931,
          "durationTicks": 240,
          "midi": 69,
          "name": "A4",
          "ticks": 80640,
          "time": 56.333110000000005,
          "velocity": 0.7874015748031497
        },
        {
          "duration": 0.16666599999999931,
          "durationTicks": 240,
          "midi": 48,
          "name": "C3",
          "ticks": 80640,
          "time": 56.333110000000005,
          "velocity": 0.7874015748031497
        },
        {
          "duration": 0.16666599999999931,
          "durationTicks": 240,
          "midi": 57,
          "name": "A3",
          "ticks": 80880,
          "time": 56.499776000000004,
          "velocity": 0.7874015748031497
        },
        {
          "duration": 0.16666599999999931,
          "durationTicks": 240,
          "midi": 34,
          "name": "A#1",
          "ticks": 80880,
          "time": 56.499776000000004,
          "velocity": 0.7874015748031497
        },
        {
          "duration": 0.16666599999999931,
          "durationTicks": 240,
          "midi": 65,
          "name": "F4",
          "ticks": 81120,
          "time": 56.666442,
          "velocity": 0.7874015748031497
        },
        {
          "duration": 0.16666599999999931,
          "durationTicks": 240,
          "midi": 46,
          "name": "A#2",
          "ticks": 81120,
          "time": 56.666442,
          "velocity": 0.7874015748031497
        },
        {
          "duration": 0.08333300000000321,
          "durationTicks": 120,
          "midi": 64,
          "name": "E4",
          "ticks": 81360,
          "time": 56.833108,
          "velocity": 0.7874015748031497
        },
        {
          "duration": 0.16666599999999931,
          "durationTicks": 240,
          "midi": 34,
          "name": "A#1",
          "ticks": 81360,
          "time": 56.833108,
          "velocity": 0.7874015748031497
        },
        {
          "duration": 0.0833329999999961,
          "durationTicks": 120,
          "midi": 65,
          "name": "F4",
          "ticks": 81480,
          "time": 56.916441000000006,
          "velocity": 0.7874015748031497
        },
        {
          "duration": 0.16666599999999931,
          "durationTicks": 240,
          "midi": 64,
          "name": "E4",
          "ticks": 81600,
          "time": 56.999774,
          "velocity": 0.7874015748031497
        },
        {
          "duration": 0.16666599999999931,
          "durationTicks": 240,
          "midi": 46,
          "name": "A#2",
          "ticks": 81600,
          "time": 56.999774,
          "velocity": 0.7874015748031497
        },
        {
          "duration": 0.16666599999999931,
          "durationTicks": 240,
          "midi": 67,
          "name": "G4",
          "ticks": 81840,
          "time": 57.16644,
          "velocity": 0.7874015748031497
        },
        {
          "duration": 0.16666599999999931,
          "durationTicks": 240,
          "midi": 34,
          "name": "A#1",
          "ticks": 81840,
          "time": 57.16644,
          "velocity": 0.7874015748031497
        },
        {
          "duration": 0.16666599999999931,
          "durationTicks": 240,
          "midi": 65,
          "name": "F4",
          "ticks": 82080,
          "time": 57.333106,
          "velocity": 0.7874015748031497
        },
        {
          "duration": 0.16666599999999931,
          "durationTicks": 240,
          "midi": 46,
          "name": "A#2",
          "ticks": 82080,
          "time": 57.333106,
          "velocity": 0.7874015748031497
        },
        {
          "duration": 0.08333300000000321,
          "durationTicks": 120,
          "midi": 64,
          "name": "E4",
          "ticks": 82320,
          "time": 57.499772,
          "velocity": 0.7874015748031497
        },
        {
          "duration": 0.16666599999999931,
          "durationTicks": 240,
          "midi": 34,
          "name": "A#1",
          "ticks": 82320,
          "time": 57.499772,
          "velocity": 0.7874015748031497
        },
        {
          "duration": 0.0833329999999961,
          "durationTicks": 120,
          "midi": 65,
          "name": "F4",
          "ticks": 82440,
          "time": 57.583105,
          "velocity": 0.7874015748031497
        },
        {
          "duration": 0.08333300000000321,
          "durationTicks": 120,
          "midi": 64,
          "name": "E4",
          "ticks": 82560,
          "time": 57.666438,
          "velocity": 0.7874015748031497
        },
        {
          "duration": 0.16666600000000642,
          "durationTicks": 240,
          "midi": 46,
          "name": "A#2",
          "ticks": 82560,
          "time": 57.666438,
          "velocity": 0.7874015748031497
        },
        {
          "duration": 0.08333300000000321,
          "durationTicks": 120,
          "midi": 60,
          "name": "C4",
          "ticks": 82680,
          "time": 57.749771,
          "velocity": 0.7874015748031497
        },
        {
          "duration": 0.16666599999999931,
          "durationTicks": 240,
          "midi": 62,
          "name": "D4",
          "ticks": 82800,
          "time": 57.833104000000006,
          "velocity": 0.7874015748031497
        },
        {
          "duration": 0.16666599999999931,
          "durationTicks": 240,
          "midi": 34,
          "name": "A#1",
          "ticks": 82800,
          "time": 57.833104000000006,
          "velocity": 0.7874015748031497
        },
        {
          "duration": 0.16666599999999931,
          "durationTicks": 240,
          "midi": 69,
          "name": "A4",
          "ticks": 83040,
          "time": 57.999770000000005,
          "velocity": 0.7874015748031497
        },
        {
          "duration": 0.16666599999999931,
          "durationTicks": 240,
          "midi": 46,
          "name": "A#2",
          "ticks": 83040,
          "time": 57.999770000000005,
          "velocity": 0.7874015748031497
        },
        {
          "duration": 0.0833329999999961,
          "durationTicks": 120,
          "midi": 67,
          "name": "G4",
          "ticks": 83280,
          "time": 58.166436000000004,
          "velocity": 0.7874015748031497
        },
        {
          "duration": 0.16666599999999931,
          "durationTicks": 240,
          "midi": 34,
          "name": "A#1",
          "ticks": 83280,
          "time": 58.166436000000004,
          "velocity": 0.7874015748031497
        },
        {
          "duration": 0.08333300000000321,
          "durationTicks": 120,
          "midi": 69,
          "name": "A4",
          "ticks": 83400,
          "time": 58.249769,
          "velocity": 0.7874015748031497
        },
        {
          "duration": 0.0833329999999961,
          "durationTicks": 120,
          "midi": 67,
          "name": "G4",
          "ticks": 83520,
          "time": 58.333102000000004,
          "velocity": 0.7874015748031497
        },
        {
          "duration": 0.16666599999999931,
          "durationTicks": 240,
          "midi": 46,
          "name": "A#2",
          "ticks": 83520,
          "time": 58.333102000000004,
          "velocity": 0.7874015748031497
        },
        {
          "duration": 0.08333300000000321,
          "durationTicks": 120,
          "midi": 69,
          "name": "A4",
          "ticks": 83640,
          "time": 58.416435,
          "velocity": 0.7874015748031497
        },
        {
          "duration": 0.16666599999999931,
          "durationTicks": 240,
          "midi": 72,
          "name": "C5",
          "ticks": 83760,
          "time": 58.499768,
          "velocity": 0.7874015748031497
        },
        {
          "duration": 0.16666599999999931,
          "durationTicks": 240,
          "midi": 34,
          "name": "A#1",
          "ticks": 83760,
          "time": 58.499768,
          "velocity": 0.7874015748031497
        },
        {
          "duration": 0.16666599999999931,
          "durationTicks": 240,
          "midi": 69,
          "name": "A4",
          "ticks": 84000,
          "time": 58.666434,
          "velocity": 0.7874015748031497
        },
        {
          "duration": 0.16666599999999931,
          "durationTicks": 240,
          "midi": 46,
          "name": "A#2",
          "ticks": 84000,
          "time": 58.666434,
          "velocity": 0.7874015748031497
        },
        {
          "duration": 0.16666599999999931,
          "durationTicks": 240,
          "midi": 67,
          "name": "G4",
          "ticks": 84240,
          "time": 58.8331,
          "velocity": 0.7874015748031497
        },
        {
          "duration": 0.16666599999999931,
          "durationTicks": 240,
          "midi": 33,
          "name": "A1",
          "ticks": 84240,
          "time": 58.8331,
          "velocity": 0.7874015748031497
        },
        {
          "duration": 0.16666599999999931,
          "durationTicks": 240,
          "midi": 64,
          "name": "E4",
          "ticks": 84480,
          "time": 58.999766,
          "velocity": 0.7874015748031497
        },
        {
          "duration": 0.16666599999999931,
          "durationTicks": 240,
          "midi": 45,
          "name": "A2",
          "ticks": 84480,
          "time": 58.999766,
          "velocity": 0.7874015748031497
        },
        {
          "duration": 0.16666599999999931,
          "durationTicks": 240,
          "midi": 65,
          "name": "F4",
          "ticks": 84720,
          "time": 59.166432,
          "velocity": 0.7874015748031497
        },
        {
          "duration": 0.16666599999999931,
          "durationTicks": 240,
          "midi": 31,
          "name": "G1",
          "ticks": 84720,
          "time": 59.166432,
          "velocity": 0.7874015748031497
        },
        {
          "duration": 0.08333300000000321,
          "durationTicks": 120,
          "midi": 64,
          "name": "E4",
          "ticks": 84960,
          "time": 59.333098,
          "velocity": 0.7874015748031497
        },
        {
          "duration": 0.16666600000000642,
          "durationTicks": 240,
          "midi": 43,
          "name": "G2",
          "ticks": 84960,
          "time": 59.333098,
          "velocity": 0.7874015748031497
        },
        {
          "duration": 0.08333300000000321,
          "durationTicks": 120,
          "midi": 65,
          "name": "F4",
          "ticks": 85080,
          "time": 59.416431,
          "velocity": 0.7874015748031497
        },
        {
          "duration": 0.16666599999999931,
          "durationTicks": 240,
          "midi": 64,
          "name": "E4",
          "ticks": 85200,
          "time": 59.499764000000006,
          "velocity": 0.7874015748031497
        },
        {
          "duration": 0.16666599999999931,
          "durationTicks": 240,
          "midi": 31,
          "name": "G1",
          "ticks": 85200,
          "time": 59.499764000000006,
          "velocity": 0.7874015748031497
        },
        {
          "duration": 0.16666599999999931,
          "durationTicks": 240,
          "midi": 60,
          "name": "C4",
          "ticks": 85440,
          "time": 59.666430000000005,
          "velocity": 0.7874015748031497
        },
        {
          "duration": 0.16666599999999931,
          "durationTicks": 240,
          "midi": 43,
          "name": "G2",
          "ticks": 85440,
          "time": 59.666430000000005,
          "velocity": 0.7874015748031497
        },
        {
          "duration": 0.0833329999999961,
          "durationTicks": 120,
          "midi": 62,
          "name": "D4",
          "ticks": 85680,
          "time": 59.833096000000005,
          "velocity": 0.7874015748031497
        },
        {
          "duration": 0.16666599999999931,
          "durationTicks": 240,
          "midi": 31,
          "name": "G1",
          "ticks": 85680,
          "time": 59.833096000000005,
          "velocity": 0.7874015748031497
        },
        {
          "duration": 0.08333300000000321,
          "durationTicks": 120,
          "midi": 57,
          "name": "A3",
          "ticks": 85800,
          "time": 59.916429,
          "velocity": 0.7874015748031497
        },
        {
          "duration": 0.16666599999999931,
          "durationTicks": 240,
          "midi": 60,
          "name": "C4",
          "ticks": 85920,
          "time": 59.999762000000004,
          "velocity": 0.7874015748031497
        },
        {
          "duration": 0.16666599999999931,
          "durationTicks": 240,
          "midi": 43,
          "name": "G2",
          "ticks": 85920,
          "time": 59.999762000000004,
          "velocity": 0.7874015748031497
        },
        {
          "duration": 0.16666599999999931,
          "durationTicks": 240,
          "midi": 55,
          "name": "G3",
          "ticks": 86160,
          "time": 60.166428,
          "velocity": 0.7874015748031497
        },
        {
          "duration": 0.16666599999999931,
          "durationTicks": 240,
          "midi": 31,
          "name": "G1",
          "ticks": 86160,
          "time": 60.166428,
          "velocity": 0.7874015748031497
        },
        {
          "duration": 0.16666599999999931,
          "durationTicks": 240,
          "midi": 52,
          "name": "E3",
          "ticks": 86400,
          "time": 60.333094,
          "velocity": 0.7874015748031497
        },
        {
          "duration": 0.16666599999999931,
          "durationTicks": 240,
          "midi": 43,
          "name": "G2",
          "ticks": 86400,
          "time": 60.333094,
          "velocity": 0.7874015748031497
        },
        {
          "duration": 0.16666599999999931,
          "durationTicks": 240,
          "midi": 50,
          "name": "D3",
          "ticks": 86640,
          "time": 60.49976,
          "velocity": 0.7874015748031497
        },
        {
          "duration": 0.16666599999999931,
          "durationTicks": 240,
          "midi": 32,
          "name": "G#1",
          "ticks": 86640,
          "time": 60.49976,
          "velocity": 0.7874015748031497
        },
        {
          "duration": 0.16666599999999931,
          "durationTicks": 240,
          "midi": 52,
          "name": "E3",
          "ticks": 86880,
          "time": 60.666426,
          "velocity": 0.7874015748031497
        },
        {
          "duration": 0.16666599999999931,
          "durationTicks": 240,
          "midi": 44,
          "name": "G#2",
          "ticks": 86880,
          "time": 60.666426,
          "velocity": 0.7874015748031497
        },
        {
          "duration": 0.16666599999999931,
          "durationTicks": 240,
          "midi": 53,
          "name": "F3",
          "ticks": 87120,
          "time": 60.833092,
          "velocity": 0.7874015748031497
        },
        {
          "duration": 0.16666599999999931,
          "durationTicks": 240,
          "midi": 32,
          "name": "G#1",
          "ticks": 87120,
          "time": 60.833092,
          "velocity": 0.7874015748031497
        },
        {
          "duration": 0.16666600000000642,
          "durationTicks": 240,
          "midi": 55,
          "name": "G3",
          "ticks": 87360,
          "time": 60.999758,
          "velocity": 0.7874015748031497
        },
        {
          "duration": 0.16666600000000642,
          "durationTicks": 240,
          "midi": 44,
          "name": "G#2",
          "ticks": 87360,
          "time": 60.999758,
          "velocity": 0.7874015748031497
        },
        {
          "duration": 0.16666599999999931,
          "durationTicks": 240,
          "midi": 57,
          "name": "A3",
          "ticks": 87600,
          "time": 61.166424000000006,
          "velocity": 0.7874015748031497
        },
        {
          "duration": 0.16666599999999931,
          "durationTicks": 240,
          "midi": 32,
          "name": "G#1",
          "ticks": 87600,
          "time": 61.166424000000006,
          "velocity": 0.7874015748031497
        },
        {
          "duration": 0.16666599999999931,
          "durationTicks": 240,
          "midi": 61,
          "name": "C#4",
          "ticks": 87840,
          "time": 61.333090000000006,
          "velocity": 0.7874015748031497
        },
        {
          "duration": 0.16666599999999931,
          "durationTicks": 240,
          "midi": 44,
          "name": "G#2",
          "ticks": 87840,
          "time": 61.333090000000006,
          "velocity": 0.7874015748031497
        },
        {
          "duration": 0.16666599999999931,
          "durationTicks": 240,
          "midi": 62,
          "name": "D4",
          "ticks": 88080,
          "time": 61.499756000000005,
          "velocity": 0.7874015748031497
        },
        {
          "duration": 0.16666599999999931,
          "durationTicks": 240,
          "midi": 32,
          "name": "G#1",
          "ticks": 88080,
          "time": 61.499756000000005,
          "velocity": 0.7874015748031497
        },
        {
          "duration": 0.16666599999999931,
          "durationTicks": 240,
          "midi": 64,
          "name": "E4",
          "ticks": 88320,
          "time": 61.666422000000004,
          "velocity": 0.7874015748031497
        },
        {
          "duration": 0.16666599999999931,
          "durationTicks": 240,
          "midi": 44,
          "name": "G#2",
          "ticks": 88320,
          "time": 61.666422000000004,
          "velocity": 0.7874015748031497
        },
        {
          "duration": 0.16666599999999931,
          "durationTicks": 240,
          "midi": 61,
          "name": "C#4",
          "ticks": 88560,
          "time": 61.833088000000004,
          "velocity": 0.7874015748031497
        },
        {
          "duration": 0.16666599999999931,
          "durationTicks": 240,
          "midi": 33,
          "name": "A1",
          "ticks": 88560,
          "time": 61.833088000000004,
          "velocity": 0.7874015748031497
        },
        {
          "duration": 0.16666599999999931,
          "durationTicks": 240,
          "midi": 69,
          "name": "A4",
          "ticks": 88800,
          "time": 61.999754,
          "velocity": 0.7874015748031497
        },
        {
          "duration": 0.16666599999999931,
          "durationTicks": 240,
          "midi": 45,
          "name": "A2",
          "ticks": 88800,
          "time": 61.999754,
          "velocity": 0.7874015748031497
        },
        {
          "duration": 0.08333300000000321,
          "durationTicks": 120,
          "midi": 67,
          "name": "G4",
          "ticks": 89040,
          "time": 62.16642,
          "velocity": 0.7874015748031497
        },
        {
          "duration": 0.16666599999999931,
          "durationTicks": 240,
          "midi": 33,
          "name": "A1",
          "ticks": 89040,
          "time": 62.16642,
          "velocity": 0.7874015748031497
        },
        {
          "duration": 0.0833329999999961,
          "durationTicks": 120,
          "midi": 69,
          "name": "A4",
          "ticks": 89160,
          "time": 62.249753000000005,
          "velocity": 0.7874015748031497
        },
        {
          "duration": 0.16666599999999931,
          "durationTicks": 240,
          "midi": 67,
          "name": "G4",
          "ticks": 89280,
          "time": 62.333086,
          "velocity": 0.7874015748031497
        },
        {
          "duration": 0.16666599999999931,
          "durationTicks": 240,
          "midi": 45,
          "name": "A2",
          "ticks": 89280,
          "time": 62.333086,
          "velocity": 0.7874015748031497
        },
        {
          "duration": 0.16666599999999931,
          "durationTicks": 240,
          "midi": 73,
          "name": "C#5",
          "ticks": 89520,
          "time": 62.499752,
          "velocity": 0.7874015748031497
        },
        {
          "duration": 0.16666599999999931,
          "durationTicks": 240,
          "midi": 33,
          "name": "A1",
          "ticks": 89520,
          "time": 62.499752,
          "velocity": 0.7874015748031497
        },
        {
          "duration": 0.16666600000000642,
          "durationTicks": 240,
          "midi": 69,
          "name": "A4",
          "ticks": 89760,
          "time": 62.666418,
          "velocity": 0.7874015748031497
        },
        {
          "duration": 0.16666600000000642,
          "durationTicks": 240,
          "midi": 45,
          "name": "A2",
          "ticks": 89760,
          "time": 62.666418,
          "velocity": 0.7874015748031497
        },
        {
          "duration": 0.0833329999999961,
          "durationTicks": 120,
          "midi": 67,
          "name": "G4",
          "ticks": 90000,
          "time": 62.83308400000001,
          "velocity": 0.7874015748031497
        },
        {
          "duration": 0.16666599999999931,
          "durationTicks": 240,
          "midi": 33,
          "name": "A1",
          "ticks": 90000,
          "time": 62.83308400000001,
          "velocity": 0.7874015748031497
        },
        {
          "duration": 0.08333300000000321,
          "durationTicks": 120,
          "midi": 69,
          "name": "A4",
          "ticks": 90120,
          "time": 62.916417,
          "velocity": 0.7874015748031497
        },
        {
          "duration": 0.0833329999999961,
          "durationTicks": 120,
          "midi": 67,
          "name": "G4",
          "ticks": 90240,
          "time": 62.999750000000006,
          "velocity": 0.7874015748031497
        },
        {
          "duration": 0.16666599999999931,
          "durationTicks": 240,
          "midi": 45,
          "name": "A2",
          "ticks": 90240,
          "time": 62.999750000000006,
          "velocity": 0.7874015748031497
        },
        {
          "duration": 0.08333300000000321,
          "durationTicks": 120,
          "midi": 64,
          "name": "E4",
          "ticks": 90360,
          "time": 63.083083,
          "velocity": 0.7874015748031497
        },
        {
          "duration": 0.16666599999999931,
          "durationTicks": 240,
          "midi": 61,
          "name": "C#4",
          "ticks": 90480,
          "time": 63.166416000000005,
          "velocity": 0.7874015748031497
        },
        {
          "duration": 0.16666599999999931,
          "durationTicks": 240,
          "midi": 33,
          "name": "A1",
          "ticks": 90480,
          "time": 63.166416000000005,
          "velocity": 0.7874015748031497
        },
        {
          "duration": 0.16666599999999931,
          "durationTicks": 240,
          "midi": 73,
          "name": "C#5",
          "ticks": 90720,
          "time": 63.333082000000005,
          "velocity": 0.7874015748031497
        },
        {
          "duration": 0.16666599999999931,
          "durationTicks": 240,
          "midi": 45,
          "name": "A2",
          "ticks": 90720,
          "time": 63.333082000000005,
          "velocity": 0.7874015748031497
        },
        {
          "duration": 0.0833329999999961,
          "durationTicks": 120,
          "midi": 69,
          "name": "A4",
          "ticks": 90960,
          "time": 63.499748000000004,
          "velocity": 0.7874015748031497
        },
        {
          "duration": 0.16666599999999931,
          "durationTicks": 240,
          "midi": 33,
          "name": "A1",
          "ticks": 90960,
          "time": 63.499748000000004,
          "velocity": 0.7874015748031497
        },
        {
          "duration": 0.08333300000000321,
          "durationTicks": 120,
          "midi": 73,
          "name": "C#5",
          "ticks": 91080,
          "time": 63.583081,
          "velocity": 0.7874015748031497
        },
        {
          "duration": 0.08333300000000321,
          "durationTicks": 120,
          "midi": 69,
          "name": "A4",
          "ticks": 91200,
          "time": 63.666414,
          "velocity": 0.7874015748031497
        },
        {
          "duration": 0.16666599999999931,
          "durationTicks": 240,
          "midi": 45,
          "name": "A2",
          "ticks": 91200,
          "time": 63.666414,
          "velocity": 0.7874015748031497
        },
        {
          "duration": 0.0833329999999961,
          "durationTicks": 120,
          "midi": 73,
          "name": "C#5",
          "ticks": 91320,
          "time": 63.749747000000006,
          "velocity": 0.7874015748031497
        },
        {
          "duration": 0.16666599999999931,
          "durationTicks": 240,
          "midi": 76,
          "name": "E5",
          "ticks": 91440,
          "time": 63.83308,
          "velocity": 0.7874015748031497
        },
        {
          "duration": 0.16666599999999931,
          "durationTicks": 240,
          "midi": 33,
          "name": "A1",
          "ticks": 91440,
          "time": 63.83308,
          "velocity": 0.7874015748031497
        },
        {
          "duration": 0.16666600000000642,
          "durationTicks": 240,
          "midi": 73,
          "name": "C#5",
          "ticks": 91680,
          "time": 63.999746,
          "velocity": 0.7874015748031497
        },
        {
          "duration": 0.16666600000000642,
          "durationTicks": 240,
          "midi": 45,
          "name": "A2",
          "ticks": 91680,
          "time": 63.999746,
          "velocity": 0.7874015748031497
        },
        {
          "duration": 0.33333199999999863,
          "durationTicks": 480,
          "midi": 81,
          "name": "A5",
          "ticks": 91920,
          "time": 64.16641200000001,
          "velocity": 0.7874015748031497
        },
        {
          "duration": 0.1666659999999922,
          "durationTicks": 240,
          "midi": 33,
          "name": "A1",
          "ticks": 91920,
          "time": 64.16641200000001,
          "velocity": 0.7874015748031497
        },
        {
          "duration": 0.16666600000000642,
          "durationTicks": 240,
          "midi": 45,
          "name": "A2",
          "ticks": 92160,
          "time": 64.333078,
          "velocity": 0.7874015748031497
        },
        {
          "duration": 0.33333199999999863,
          "durationTicks": 480,
          "midi": 74,
          "name": "D5",
          "ticks": 92400,
          "time": 64.499744,
          "velocity": 0.7874015748031497
        },
        {
          "duration": 0.1666659999999922,
          "durationTicks": 240,
          "midi": 34,
          "name": "A#1",
          "ticks": 92400,
          "time": 64.499744,
          "velocity": 0.7874015748031497
        },
        {
          "duration": 0.16666600000000642,
          "durationTicks": 240,
          "midi": 46,
          "name": "A#2",
          "ticks": 92640,
          "time": 64.66641,
          "velocity": 0.7874015748031497
        },
        {
          "duration": 0.33333199999999863,
          "durationTicks": 480,
          "midi": 77,
          "name": "F5",
          "ticks": 92880,
          "time": 64.833076,
          "velocity": 0.7874015748031497
        },
        {
          "duration": 0.1666659999999922,
          "durationTicks": 240,
          "midi": 34,
          "name": "A#1",
          "ticks": 92880,
          "time": 64.833076,
          "velocity": 0.7874015748031497
        },
        {
          "duration": 0.16666600000000642,
          "durationTicks": 240,
          "midi": 46,
          "name": "A#2",
          "ticks": 93120,
          "time": 64.999742,
          "velocity": 0.7874015748031497
        },
        {
          "duration": 0.33333199999999863,
          "durationTicks": 480,
          "midi": 76,
          "name": "E5",
          "ticks": 93360,
          "time": 65.166408,
          "velocity": 0.7874015748031497
        },
        {
          "duration": 0.1666659999999922,
          "durationTicks": 240,
          "midi": 34,
          "name": "A#1",
          "ticks": 93360,
          "time": 65.166408,
          "velocity": 0.7874015748031497
        },
        {
          "duration": 0.16666600000000642,
          "durationTicks": 240,
          "midi": 46,
          "name": "A#2",
          "ticks": 93600,
          "time": 65.333074,
          "velocity": 0.7874015748031497
        },
        {
          "duration": 0.16666600000000642,
          "durationTicks": 240,
          "midi": 74,
          "name": "D5",
          "ticks": 93840,
          "time": 65.49974,
          "velocity": 0.7874015748031497
        },
        {
          "duration": 0.16666600000000642,
          "durationTicks": 240,
          "midi": 34,
          "name": "A#1",
          "ticks": 93840,
          "time": 65.49974,
          "velocity": 0.7874015748031497
        },
        {
          "duration": 0.49999799999999084,
          "durationTicks": 720,
          "midi": 72,
          "name": "C5",
          "ticks": 94080,
          "time": 65.66640600000001,
          "velocity": 0.7874015748031497
        },
        {
          "duration": 0.1666659999999922,
          "durationTicks": 240,
          "midi": 46,
          "name": "A#2",
          "ticks": 94080,
          "time": 65.66640600000001,
          "velocity": 0.7874015748031497
        },
        {
          "duration": 0.16666600000000642,
          "durationTicks": 240,
          "midi": 36,
          "name": "C2",
          "ticks": 94320,
          "time": 65.833072,
          "velocity": 0.7874015748031497
        },
        {
          "duration": 0.1666659999999922,
          "durationTicks": 240,
          "midi": 48,
          "name": "C3",
          "ticks": 94560,
          "time": 65.99973800000001,
          "velocity": 0.7874015748031497
        },
        {
          "duration": 0.33333199999999863,
          "durationTicks": 480,
          "midi": 81,
          "name": "A5",
          "ticks": 94800,
          "time": 66.166404,
          "velocity": 0.7874015748031497
        },
        {
          "duration": 0.16666600000000642,
          "durationTicks": 240,
          "midi": 36,
          "name": "C2",
          "ticks": 94800,
          "time": 66.166404,
          "velocity": 0.7874015748031497
        },
        {
          "duration": 0.1666659999999922,
          "durationTicks": 240,
          "midi": 48,
          "name": "C3",
          "ticks": 95040,
          "time": 66.33307,
          "velocity": 0.7874015748031497
        },
        {
          "duration": 0.33333199999999863,
          "durationTicks": 480,
          "midi": 76,
          "name": "E5",
          "ticks": 95280,
          "time": 66.499736,
          "velocity": 0.7874015748031497
        },
        {
          "duration": 0.16666600000000642,
          "durationTicks": 240,
          "midi": 36,
          "name": "C2",
          "ticks": 95280,
          "time": 66.499736,
          "velocity": 0.7874015748031497
        },
        {
          "duration": 0.1666659999999922,
          "durationTicks": 240,
          "midi": 48,
          "name": "C3",
          "ticks": 95520,
          "time": 66.666402,
          "velocity": 0.7874015748031497
        },
        {
          "duration": 0.33333200000001284,
          "durationTicks": 480,
          "midi": 72,
          "name": "C5",
          "ticks": 95760,
          "time": 66.833068,
          "velocity": 0.7874015748031497
        },
        {
          "duration": 0.16666600000000642,
          "durationTicks": 240,
          "midi": 36,
          "name": "C2",
          "ticks": 95760,
          "time": 66.833068,
          "velocity": 0.7874015748031497
        },
        {
          "duration": 0.16666600000000642,
          "durationTicks": 240,
          "midi": 48,
          "name": "C3",
          "ticks": 96000,
          "time": 66.999734,
          "velocity": 0.7874015748031497
        },
        {
          "duration": 0.33333199999999863,
          "durationTicks": 480,
          "midi": 74,
          "name": "D5",
          "ticks": 96240,
          "time": 67.16640000000001,
          "velocity": 0.7874015748031497
        },
        {
          "duration": 0.1666659999999922,
          "durationTicks": 240,
          "midi": 38,
          "name": "D2",
          "ticks": 96240,
          "time": 67.16640000000001,
          "velocity": 0.7874015748031497
        },
        {
          "duration": 0.16666600000000642,
          "durationTicks": 240,
          "midi": 50,
          "name": "D3",
          "ticks": 96480,
          "time": 67.333066,
          "velocity": 0.7874015748031497
        },
        {
          "duration": 0.33333199999999863,
          "durationTicks": 480,
          "midi": 77,
          "name": "F5",
          "ticks": 96720,
          "time": 67.49973200000001,
          "velocity": 0.7874015748031497
        },
        {
          "duration": 0.1666659999999922,
          "durationTicks": 240,
          "midi": 38,
          "name": "D2",
          "ticks": 96720,
          "time": 67.49973200000001,
          "velocity": 0.7874015748031497
        },
        {
          "duration": 0.16666600000000642,
          "durationTicks": 240,
          "midi": 50,
          "name": "D3",
          "ticks": 96960,
          "time": 67.666398,
          "velocity": 0.7874015748031497
        },
        {
          "duration": 0.33333199999999863,
          "durationTicks": 480,
          "midi": 76,
          "name": "E5",
          "ticks": 97200,
          "time": 67.83306400000001,
          "velocity": 0.7874015748031497
        },
        {
          "duration": 0.1666659999999922,
          "durationTicks": 240,
          "midi": 38,
          "name": "D2",
          "ticks": 97200,
          "time": 67.83306400000001,
          "velocity": 0.7874015748031497
        },
        {
          "duration": 0.16666600000000642,
          "durationTicks": 240,
          "midi": 50,
          "name": "D3",
          "ticks": 97440,
          "time": 67.99973,
          "velocity": 0.7874015748031497
        },
        {
          "duration": 0.1666659999999922,
          "durationTicks": 240,
          "midi": 74,
          "name": "D5",
          "ticks": 97680,
          "time": 68.166396,
          "velocity": 0.7874015748031497
        },
        {
          "duration": 0.1666659999999922,
          "durationTicks": 240,
          "midi": 38,
          "name": "D2",
          "ticks": 97680,
          "time": 68.166396,
          "velocity": 0.7874015748031497
        },
        {
          "duration": 0.49999800000000505,
          "durationTicks": 720,
          "midi": 72,
          "name": "C5",
          "ticks": 97920,
          "time": 68.333062,
          "velocity": 0.7874015748031497
        },
        {
          "duration": 0.16666600000000642,
          "durationTicks": 240,
          "midi": 50,
          "name": "D3",
          "ticks": 97920,
          "time": 68.333062,
          "velocity": 0.7874015748031497
        },
        {
          "duration": 0.1666659999999922,
          "durationTicks": 240,
          "midi": 38,
          "name": "D2",
          "ticks": 98160,
          "time": 68.499728,
          "velocity": 0.7874015748031497
        },
        {
          "duration": 0.16666600000000642,
          "durationTicks": 240,
          "midi": 50,
          "name": "D3",
          "ticks": 98400,
          "time": 68.666394,
          "velocity": 0.7874015748031497
        },
        {
          "duration": 0.33333199999999863,
          "durationTicks": 480,
          "midi": 81,
          "name": "A5",
          "ticks": 98640,
          "time": 68.83306,
          "velocity": 0.7874015748031497
        },
        {
          "duration": 0.16666600000000642,
          "durationTicks": 240,
          "midi": 38,
          "name": "D2",
          "ticks": 98640,
          "time": 68.83306,
          "velocity": 0.7874015748031497
        },
        {
          "duration": 0.1666659999999922,
          "durationTicks": 240,
          "midi": 50,
          "name": "D3",
          "ticks": 98880,
          "time": 68.99972600000001,
          "velocity": 0.7874015748031497
        },
        {
          "duration": 0.33333199999999863,
          "durationTicks": 480,
          "midi": 76,
          "name": "E5",
          "ticks": 99120,
          "time": 69.166392,
          "velocity": 0.7874015748031497
        },
        {
          "duration": 0.16666600000000642,
          "durationTicks": 240,
          "midi": 38,
          "name": "D2",
          "ticks": 99120,
          "time": 69.166392,
          "velocity": 0.7874015748031497
        },
        {
          "duration": 0.1666659999999922,
          "durationTicks": 240,
          "midi": 50,
          "name": "D3",
          "ticks": 99360,
          "time": 69.33305800000001,
          "velocity": 0.7874015748031497
        },
        {
          "duration": 0.16666600000000642,
          "durationTicks": 240,
          "midi": 72,
          "name": "C5",
          "ticks": 99600,
          "time": 69.499724,
          "velocity": 0.7874015748031497
        },
        {
          "duration": 0.16666600000000642,
          "durationTicks": 240,
          "midi": 36,
          "name": "C2",
          "ticks": 99600,
          "time": 69.499724,
          "velocity": 0.7874015748031497
        },
        {
          "duration": 0.1666659999999922,
          "durationTicks": 240,
          "midi": 73,
          "name": "C#5",
          "ticks": 99840,
          "time": 69.66639,
          "velocity": 0.7874015748031497
        },
        {
          "duration": 0.1666659999999922,
          "durationTicks": 240,
          "midi": 48,
          "name": "C3",
          "ticks": 99840,
          "time": 69.66639,
          "velocity": 0.7874015748031497
        },
        {
          "duration": 0.33333199999999863,
          "durationTicks": 480,
          "midi": 74,
          "name": "D5",
          "ticks": 100080,
          "time": 69.833056,
          "velocity": 0.7874015748031497
        },
        {
          "duration": 0.16666600000000642,
          "durationTicks": 240,
          "midi": 34,
          "name": "A#1",
          "ticks": 100080,
          "time": 69.833056,
          "velocity": 0.7874015748031497
        },
        {
          "duration": 0.1666659999999922,
          "durationTicks": 240,
          "midi": 46,
          "name": "A#2",
          "ticks": 100320,
          "time": 69.999722,
          "velocity": 0.7874015748031497
        },
        {
          "duration": 0.33333200000001284,
          "durationTicks": 480,
          "midi": 77,
          "name": "F5",
          "ticks": 100560,
          "time": 70.166388,
          "velocity": 0.7874015748031497
        },
        {
          "duration": 0.16666600000000642,
          "durationTicks": 240,
          "midi": 34,
          "name": "A#1",
          "ticks": 100560,
          "time": 70.166388,
          "velocity": 0.7874015748031497
        },
        {
          "duration": 0.16666600000000642,
          "durationTicks": 240,
          "midi": 46,
          "name": "A#2",
          "ticks": 100800,
          "time": 70.333054,
          "velocity": 0.7874015748031497
        },
        {
          "duration": 0.33333199999999863,
          "durationTicks": 480,
          "midi": 76,
          "name": "E5",
          "ticks": 101040,
          "time": 70.49972000000001,
          "velocity": 0.7874015748031497
        },
        {
          "duration": 0.1666659999999922,
          "durationTicks": 240,
          "midi": 34,
          "name": "A#1",
          "ticks": 101040,
          "time": 70.49972000000001,
          "velocity": 0.7874015748031497
        },
        {
          "duration": 0.16666600000000642,
          "durationTicks": 240,
          "midi": 46,
          "name": "A#2",
          "ticks": 101280,
          "time": 70.666386,
          "velocity": 0.7874015748031497
        },
        {
          "duration": 0.1666659999999922,
          "durationTicks": 240,
          "midi": 74,
          "name": "D5",
          "ticks": 101520,
          "time": 70.83305200000001,
          "velocity": 0.7874015748031497
        },
        {
          "duration": 0.1666659999999922,
          "durationTicks": 240,
          "midi": 34,
          "name": "A#1",
          "ticks": 101520,
          "time": 70.83305200000001,
          "velocity": 0.7874015748031497
        },
        {
          "duration": 0.49999800000000505,
          "durationTicks": 720,
          "midi": 72,
          "name": "C5",
          "ticks": 101760,
          "time": 70.999718,
          "velocity": 0.7874015748031497
        },
        {
          "duration": 0.16666600000000642,
          "durationTicks": 240,
          "midi": 46,
          "name": "A#2",
          "ticks": 101760,
          "time": 70.999718,
          "velocity": 0.7874015748031497
        },
        {
          "duration": 0.1666659999999922,
          "durationTicks": 240,
          "midi": 36,
          "name": "C2",
          "ticks": 102000,
          "time": 71.16638400000001,
          "velocity": 0.7874015748031497
        },
        {
          "duration": 0.16666600000000642,
          "durationTicks": 240,
          "midi": 48,
          "name": "C3",
          "ticks": 102240,
          "time": 71.33305,
          "velocity": 0.7874015748031497
        },
        {
          "duration": 0.33333199999999863,
          "durationTicks": 480,
          "midi": 81,
          "name": "A5",
          "ticks": 102480,
          "time": 71.499716,
          "velocity": 0.7874015748031497
        },
        {
          "duration": 0.1666659999999922,
          "durationTicks": 240,
          "midi": 36,
          "name": "C2",
          "ticks": 102480,
          "time": 71.499716,
          "velocity": 0.7874015748031497
        },
        {
          "duration": 0.16666600000000642,
          "durationTicks": 240,
          "midi": 48,
          "name": "C3",
          "ticks": 102720,
          "time": 71.666382,
          "velocity": 0.7874015748031497
        },
        {
          "duration": 0.33333199999999863,
          "durationTicks": 480,
          "midi": 76,
          "name": "E5",
          "ticks": 102960,
          "time": 71.833048,
          "velocity": 0.7874015748031497
        },
        {
          "duration": 0.1666659999999922,
          "durationTicks": 240,
          "midi": 36,
          "name": "C2",
          "ticks": 102960,
          "time": 71.833048,
          "velocity": 0.7874015748031497
        },
        {
          "duration": 0.16666600000000642,
          "durationTicks": 240,
          "midi": 48,
          "name": "C3",
          "ticks": 103200,
          "time": 71.999714,
          "velocity": 0.7874015748031497
        },
        {
          "duration": 0.33333199999999863,
          "durationTicks": 480,
          "midi": 72,
          "name": "C5",
          "ticks": 103440,
          "time": 72.16638,
          "velocity": 0.7874015748031497
        },
        {
          "duration": 0.16666600000000642,
          "durationTicks": 240,
          "midi": 36,
          "name": "C2",
          "ticks": 103440,
          "time": 72.16638,
          "velocity": 0.7874015748031497
        },
        {
          "duration": 0.1666659999999922,
          "durationTicks": 240,
          "midi": 48,
          "name": "C3",
          "ticks": 103680,
          "time": 72.33304600000001,
          "velocity": 0.7874015748031497
        },
        {
          "duration": 0.33333199999999863,
          "durationTicks": 480,
          "midi": 74,
          "name": "D5",
          "ticks": 103920,
          "time": 72.499712,
          "velocity": 0.7874015748031497
        },
        {
          "duration": 0.16666600000000642,
          "durationTicks": 240,
          "midi": 38,
          "name": "D2",
          "ticks": 103920,
          "time": 72.499712,
          "velocity": 0.7874015748031497
        },
        {
          "duration": 0.1666659999999922,
          "durationTicks": 240,
          "midi": 50,
          "name": "D3",
          "ticks": 104160,
          "time": 72.66637800000001,
          "velocity": 0.7874015748031497
        },
        {
          "duration": 0.33333199999999863,
          "durationTicks": 480,
          "midi": 77,
          "name": "F5",
          "ticks": 104400,
          "time": 72.833044,
          "velocity": 0.7874015748031497
        },
        {
          "duration": 0.16666600000000642,
          "durationTicks": 240,
          "midi": 38,
          "name": "D2",
          "ticks": 104400,
          "time": 72.833044,
          "velocity": 0.7874015748031497
        },
        {
          "duration": 0.1666659999999922,
          "durationTicks": 240,
          "midi": 50,
          "name": "D3",
          "ticks": 104640,
          "time": 72.99971000000001,
          "velocity": 0.7874015748031497
        },
        {
          "duration": 0.33333199999999863,
          "durationTicks": 480,
          "midi": 76,
          "name": "E5",
          "ticks": 104880,
          "time": 73.166376,
          "velocity": 0.7874015748031497
        },
        {
          "duration": 0.16666600000000642,
          "durationTicks": 240,
          "midi": 38,
          "name": "D2",
          "ticks": 104880,
          "time": 73.166376,
          "velocity": 0.7874015748031497
        },
        {
          "duration": 0.1666659999999922,
          "durationTicks": 240,
          "midi": 50,
          "name": "D3",
          "ticks": 105120,
          "time": 73.333042,
          "velocity": 0.7874015748031497
        },
        {
          "duration": 0.16666600000000642,
          "durationTicks": 240,
          "midi": 77,
          "name": "F5",
          "ticks": 105360,
          "time": 73.499708,
          "velocity": 0.7874015748031497
        },
        {
          "duration": 0.16666600000000642,
          "durationTicks": 240,
          "midi": 38,
          "name": "D2",
          "ticks": 105360,
          "time": 73.499708,
          "velocity": 0.7874015748031497
        },
        {
          "duration": 0.49999800000000505,
          "durationTicks": 720,
          "midi": 79,
          "name": "G5",
          "ticks": 105600,
          "time": 73.666374,
          "velocity": 0.7874015748031497
        },
        {
          "duration": 0.1666659999999922,
          "durationTicks": 240,
          "midi": 50,
          "name": "D3",
          "ticks": 105600,
          "time": 73.666374,
          "velocity": 0.7874015748031497
        },
        {
          "duration": 0.16666600000000642,
          "durationTicks": 240,
          "midi": 38,
          "name": "D2",
          "ticks": 105840,
          "time": 73.83304,
          "velocity": 0.7874015748031497
        },
        {
          "duration": 0.16666600000000642,
          "durationTicks": 240,
          "midi": 50,
          "name": "D3",
          "ticks": 106080,
          "time": 73.999706,
          "velocity": 0.7874015748031497
        },
        {
          "duration": 0.33333199999999863,
          "durationTicks": 480,
          "midi": 77,
          "name": "F5",
          "ticks": 106320,
          "time": 74.16637200000001,
          "velocity": 0.7874015748031497
        },
        {
          "duration": 0.1666659999999922,
          "durationTicks": 240,
          "midi": 40,
          "name": "E2",
          "ticks": 106320,
          "time": 74.16637200000001,
          "velocity": 0.7874015748031497
        },
        {
          "duration": 0.16666600000000642,
          "durationTicks": 240,
          "midi": 52,
          "name": "E3",
          "ticks": 106560,
          "time": 74.333038,
          "velocity": 0.7874015748031497
        },
        {
          "duration": 0.33333199999999863,
          "durationTicks": 480,
          "midi": 76,
          "name": "E5",
          "ticks": 106800,
          "time": 74.49970400000001,
          "velocity": 0.7874015748031497
        },
        {
          "duration": 0.1666659999999922,
          "durationTicks": 240,
          "midi": 41,
          "name": "F2",
          "ticks": 106800,
          "time": 74.49970400000001,
          "velocity": 0.7874015748031497
        },
        {
          "duration": 0.16666600000000642,
          "durationTicks": 240,
          "midi": 53,
          "name": "F3",
          "ticks": 107040,
          "time": 74.66637,
          "velocity": 0.7874015748031497
        },
        {
          "duration": 0.1666659999999922,
          "durationTicks": 240,
          "midi": 72,
          "name": "C5",
          "ticks": 107280,
          "time": 74.833036,
          "velocity": 0.7874015748031497
        },
        {
          "duration": 0.1666659999999922,
          "durationTicks": 240,
          "midi": 36,
          "name": "C2",
          "ticks": 107280,
          "time": 74.833036,
          "velocity": 0.7874015748031497
        },
        {
          "duration": 0.16666600000000642,
          "durationTicks": 240,
          "midi": 73,
          "name": "C#5",
          "ticks": 107520,
          "time": 74.999702,
          "velocity": 0.7874015748031497
        },
        {
          "duration": 0.16666600000000642,
          "durationTicks": 240,
          "midi": 48,
          "name": "C3",
          "ticks": 107520,
          "time": 74.999702,
          "velocity": 0.7874015748031497
        },
        {
          "duration": 0.33333199999999863,
          "durationTicks": 480,
          "midi": 77,
          "name": "F5",
          "ticks": 107760,
          "time": 75.166368,
          "velocity": 0.7874015748031497
        },
        {
          "duration": 0.33333199999999863,
          "durationTicks": 480,
          "midi": 74,
          "name": "D5",
          "ticks": 107760,
          "time": 75.166368,
          "velocity": 0.7874015748031497
        },
        {
          "duration": 0.1666659999999922,
          "durationTicks": 240,
          "midi": 34,
          "name": "A#1",
          "ticks": 107760,
          "time": 75.166368,
          "velocity": 0.7874015748031497
        },
        {
          "duration": 0.16666600000000642,
          "durationTicks": 240,
          "midi": 46,
          "name": "A#2",
          "ticks": 108000,
          "time": 75.333034,
          "velocity": 0.7874015748031497
        },
        {
          "duration": 0.33333199999999863,
          "durationTicks": 480,
          "midi": 81,
          "name": "A5",
          "ticks": 108240,
          "time": 75.4997,
          "velocity": 0.7874015748031497
        },
        {
          "duration": 0.33333199999999863,
          "durationTicks": 480,
          "midi": 77,
          "name": "F5",
          "ticks": 108240,
          "time": 75.4997,
          "velocity": 0.7874015748031497
        },
        {
          "duration": 0.16666600000000642,
          "durationTicks": 240,
          "midi": 34,
          "name": "A#1",
          "ticks": 108240,
          "time": 75.4997,
          "velocity": 0.7874015748031497
        },
        {
          "duration": 0.1666659999999922,
          "durationTicks": 240,
          "midi": 46,
          "name": "A#2",
          "ticks": 108480,
          "time": 75.66636600000001,
          "velocity": 0.7874015748031497
        },
        {
          "duration": 0.33333199999999863,
          "durationTicks": 480,
          "midi": 79,
          "name": "G5",
          "ticks": 108720,
          "time": 75.833032,
          "velocity": 0.7874015748031497
        },
        {
          "duration": 0.33333199999999863,
          "durationTicks": 480,
          "midi": 76,
          "name": "E5",
          "ticks": 108720,
          "time": 75.833032,
          "velocity": 0.7874015748031497
        },
        {
          "duration": 0.16666600000000642,
          "durationTicks": 240,
          "midi": 34,
          "name": "A#1",
          "ticks": 108720,
          "time": 75.833032,
          "velocity": 0.7874015748031497
        },
        {
          "duration": 0.1666659999999922,
          "durationTicks": 240,
          "midi": 46,
          "name": "A#2",
          "ticks": 108960,
          "time": 75.99969800000001,
          "velocity": 0.7874015748031497
        },
        {
          "duration": 0.16666600000000642,
          "durationTicks": 240,
          "midi": 77,
          "name": "F5",
          "ticks": 109200,
          "time": 76.166364,
          "velocity": 0.7874015748031497
        },
        {
          "duration": 0.16666600000000642,
          "durationTicks": 240,
          "midi": 74,
          "name": "D5",
          "ticks": 109200,
          "time": 76.166364,
          "velocity": 0.7874015748031497
        },
        {
          "duration": 0.16666600000000642,
          "durationTicks": 240,
          "midi": 34,
          "name": "A#1",
          "ticks": 109200,
          "time": 76.166364,
          "velocity": 0.7874015748031497
        },
        {
          "duration": 0.49999799999999084,
          "durationTicks": 720,
          "midi": 76,
          "name": "E5",
          "ticks": 109440,
          "time": 76.33303000000001,
          "velocity": 0.7874015748031497
        },
        {
          "duration": 0.49999799999999084,
          "durationTicks": 720,
          "midi": 72,
          "name": "C5",
          "ticks": 109440,
          "time": 76.33303000000001,
          "velocity": 0.7874015748031497
        },
        {
          "duration": 0.1666659999999922,
          "durationTicks": 240,
          "midi": 46,
          "name": "A#2",
          "ticks": 109440,
          "time": 76.33303000000001,
          "velocity": 0.7874015748031497
        },
        {
          "duration": 0.16666600000000642,
          "durationTicks": 240,
          "midi": 36,
          "name": "C2",
          "ticks": 109680,
          "time": 76.499696,
          "velocity": 0.7874015748031497
        },
        {
          "duration": 0.1666659999999922,
          "durationTicks": 240,
          "midi": 48,
          "name": "C3",
          "ticks": 109920,
          "time": 76.666362,
          "velocity": 0.7874015748031497
        },
        {
          "duration": 0.33333199999999863,
          "durationTicks": 480,
          "midi": 84,
          "name": "C6",
          "ticks": 110160,
          "time": 76.833028,
          "velocity": 0.7874015748031497
        },
        {
          "duration": 0.33333199999999863,
          "durationTicks": 480,
          "midi": 79,
          "name": "G5",
          "ticks": 110160,
          "time": 76.833028,
          "velocity": 0.7874015748031497
        },
        {
          "duration": 0.16666600000000642,
          "durationTicks": 240,
          "midi": 36,
          "name": "C2",
          "ticks": 110160,
          "time": 76.833028,
          "velocity": 0.7874015748031497
        },
        {
          "duration": 0.1666659999999922,
          "durationTicks": 240,
          "midi": 48,
          "name": "C3",
          "ticks": 110400,
          "time": 76.999694,
          "velocity": 0.7874015748031497
        },
        {
          "duration": 0.33333200000001284,
          "durationTicks": 480,
          "midi": 79,
          "name": "G5",
          "ticks": 110640,
          "time": 77.16636,
          "velocity": 0.7874015748031497
        },
        {
          "duration": 0.33333200000001284,
          "durationTicks": 480,
          "midi": 76,
          "name": "E5",
          "ticks": 110640,
          "time": 77.16636,
          "velocity": 0.7874015748031497
        },
        {
          "duration": 0.16666600000000642,
          "durationTicks": 240,
          "midi": 36,
          "name": "C2",
          "ticks": 110640,
          "time": 77.16636,
          "velocity": 0.7874015748031497
        },
        {
          "duration": 0.16666600000000642,
          "durationTicks": 240,
          "midi": 48,
          "name": "C3",
          "ticks": 110880,
          "time": 77.333026,
          "velocity": 0.7874015748031497
        },
        {
          "duration": 0.33333199999999863,
          "durationTicks": 480,
          "midi": 76,
          "name": "E5",
          "ticks": 111120,
          "time": 77.49969200000001,
          "velocity": 0.7874015748031497
        },
        {
          "duration": 0.33333199999999863,
          "durationTicks": 480,
          "midi": 72,
          "name": "C5",
          "ticks": 111120,
          "time": 77.49969200000001,
          "velocity": 0.7874015748031497
        },
        {
          "duration": 0.1666659999999922,
          "durationTicks": 240,
          "midi": 36,
          "name": "C2",
          "ticks": 111120,
          "time": 77.49969200000001,
          "velocity": 0.7874015748031497
        },
        {
          "duration": 0.16666600000000642,
          "durationTicks": 240,
          "midi": 48,
          "name": "C3",
          "ticks": 111360,
          "time": 77.666358,
          "velocity": 0.7874015748031497
        },
        {
          "duration": 0.33333199999999863,
          "durationTicks": 480,
          "midi": 77,
          "name": "F5",
          "ticks": 111600,
          "time": 77.83302400000001,
          "velocity": 0.7874015748031497
        },
        {
          "duration": 0.33333199999999863,
          "durationTicks": 480,
          "midi": 74,
          "name": "D5",
          "ticks": 111600,
          "time": 77.83302400000001,
          "velocity": 0.7874015748031497
        },
        {
          "duration": 0.1666659999999922,
          "durationTicks": 240,
          "midi": 38,
          "name": "D2",
          "ticks": 111600,
          "time": 77.83302400000001,
          "velocity": 0.7874015748031497
        },
        {
          "duration": 0.16666600000000642,
          "durationTicks": 240,
          "midi": 50,
          "name": "D3",
          "ticks": 111840,
          "time": 77.99969,
          "velocity": 0.7874015748031497
        },
        {
          "duration": 0.33333199999999863,
          "durationTicks": 480,
          "midi": 81,
          "name": "A5",
          "ticks": 112080,
          "time": 78.16635600000001,
          "velocity": 0.7874015748031497
        },
        {
          "duration": 0.33333199999999863,
          "durationTicks": 480,
          "midi": 77,
          "name": "F5",
          "ticks": 112080,
          "time": 78.16635600000001,
          "velocity": 0.7874015748031497
        },
        {
          "duration": 0.1666659999999922,
          "durationTicks": 240,
          "midi": 38,
          "name": "D2",
          "ticks": 112080,
          "time": 78.16635600000001,
          "velocity": 0.7874015748031497
        },
        {
          "duration": 0.16666600000000642,
          "durationTicks": 240,
          "midi": 50,
          "name": "D3",
          "ticks": 112320,
          "time": 78.333022,
          "velocity": 0.7874015748031497
        },
        {
          "duration": 0.33333199999999863,
          "durationTicks": 480,
          "midi": 79,
          "name": "G5",
          "ticks": 112560,
          "time": 78.499688,
          "velocity": 0.7874015748031497
        },
        {
          "duration": 0.33333199999999863,
          "durationTicks": 480,
          "midi": 76,
          "name": "E5",
          "ticks": 112560,
          "time": 78.499688,
          "velocity": 0.7874015748031497
        },
        {
          "duration": 0.1666659999999922,
          "durationTicks": 240,
          "midi": 38,
          "name": "D2",
          "ticks": 112560,
          "time": 78.499688,
          "velocity": 0.7874015748031497
        },
        {
          "duration": 0.16666600000000642,
          "durationTicks": 240,
          "midi": 50,
          "name": "D3",
          "ticks": 112800,
          "time": 78.666354,
          "velocity": 0.7874015748031497
        },
        {
          "duration": 0.1666659999999922,
          "durationTicks": 240,
          "midi": 81,
          "name": "A5",
          "ticks": 113040,
          "time": 78.83302,
          "velocity": 0.7874015748031497
        },
        {
          "duration": 0.1666659999999922,
          "durationTicks": 240,
          "midi": 77,
          "name": "F5",
          "ticks": 113040,
          "time": 78.83302,
          "velocity": 0.7874015748031497
        },
        {
          "duration": 0.1666659999999922,
          "durationTicks": 240,
          "midi": 38,
          "name": "D2",
          "ticks": 113040,
          "time": 78.83302,
          "velocity": 0.7874015748031497
        },
        {
          "duration": 0.49999800000000505,
          "durationTicks": 720,
          "midi": 82,
          "name": "A#5",
          "ticks": 113280,
          "time": 78.999686,
          "velocity": 0.7874015748031497
        },
        {
          "duration": 0.49999800000000505,
          "durationTicks": 720,
          "midi": 79,
          "name": "G5",
          "ticks": 113280,
          "time": 78.999686,
          "velocity": 0.7874015748031497
        },
        {
          "duration": 0.16666600000000642,
          "durationTicks": 240,
          "midi": 50,
          "name": "D3",
          "ticks": 113280,
          "time": 78.999686,
          "velocity": 0.7874015748031497
        },
        {
          "duration": 0.16666600000000642,
          "durationTicks": 240,
          "midi": 38,
          "name": "D2",
          "ticks": 113520,
          "time": 79.166352,
          "velocity": 0.7874015748031497
        },
        {
          "duration": 0.1666659999999922,
          "durationTicks": 240,
          "midi": 50,
          "name": "D3",
          "ticks": 113760,
          "time": 79.33301800000001,
          "velocity": 0.7874015748031497
        },
        {
          "duration": 0.33333199999999863,
          "durationTicks": 480,
          "midi": 81,
          "name": "A5",
          "ticks": 114000,
          "time": 79.499684,
          "velocity": 0.7874015748031497
        },
        {
          "duration": 0.33333199999999863,
          "durationTicks": 480,
          "midi": 77,
          "name": "F5",
          "ticks": 114000,
          "time": 79.499684,
          "velocity": 0.7874015748031497
        },
        {
          "duration": 0.16666600000000642,
          "durationTicks": 240,
          "midi": 38,
          "name": "D2",
          "ticks": 114000,
          "time": 79.499684,
          "velocity": 0.7874015748031497
        },
        {
          "duration": 0.1666659999999922,
          "durationTicks": 240,
          "midi": 50,
          "name": "D3",
          "ticks": 114240,
          "time": 79.66635000000001,
          "velocity": 0.7874015748031497
        },
        {
          "duration": 0.33333199999999863,
          "durationTicks": 480,
          "midi": 79,
          "name": "G5",
          "ticks": 114480,
          "time": 79.833016,
          "velocity": 0.7874015748031497
        },
        {
          "duration": 0.33333199999999863,
          "durationTicks": 480,
          "midi": 76,
          "name": "E5",
          "ticks": 114480,
          "time": 79.833016,
          "velocity": 0.7874015748031497
        },
        {
          "duration": 0.16666600000000642,
          "durationTicks": 240,
          "midi": 38,
          "name": "D2",
          "ticks": 114480,
          "time": 79.833016,
          "velocity": 0.7874015748031497
        },
        {
          "duration": 0.1666659999999922,
          "durationTicks": 240,
          "midi": 50,
          "name": "D3",
          "ticks": 114720,
          "time": 79.999682,
          "velocity": 0.7874015748031497
        },
        {
          "duration": 0.33333199999999863,
          "durationTicks": 480,
          "midi": 76,
          "name": "E5",
          "ticks": 114960,
          "time": 80.166348,
          "velocity": 0.7874015748031497
        },
        {
          "duration": 0.33333199999999863,
          "durationTicks": 480,
          "midi": 72,
          "name": "C5",
          "ticks": 114960,
          "time": 80.166348,
          "velocity": 0.7874015748031497
        },
        {
          "duration": 0.16666600000000642,
          "durationTicks": 240,
          "midi": 36,
          "name": "C2",
          "ticks": 114960,
          "time": 80.166348,
          "velocity": 0.7874015748031497
        },
        {
          "duration": 0.1666659999999922,
          "durationTicks": 240,
          "midi": 48,
          "name": "C3",
          "ticks": 115200,
          "time": 80.333014,
          "velocity": 0.7874015748031497
        },
        {
          "duration": 0.33333200000001284,
          "durationTicks": 480,
          "midi": 74,
          "name": "D5",
          "ticks": 115440,
          "time": 80.49968,
          "velocity": 0.7874015748031497
        },
        {
          "duration": 0.33333200000001284,
          "durationTicks": 480,
          "midi": 70,
          "name": "A#4",
          "ticks": 115440,
          "time": 80.49968,
          "velocity": 0.7874015748031497
        },
        {
          "duration": 0.16666600000000642,
          "durationTicks": 240,
          "midi": 34,
          "name": "A#1",
          "ticks": 115440,
          "time": 80.49968,
          "velocity": 0.7874015748031497
        },
        {
          "duration": 0.16666600000000642,
          "durationTicks": 240,
          "midi": 46,
          "name": "A#2",
          "ticks": 115680,
          "time": 80.666346,
          "velocity": 0.7874015748031497
        },
        {
          "duration": 0.33333199999999863,
          "durationTicks": 480,
          "midi": 77,
          "name": "F5",
          "ticks": 115920,
          "time": 80.83301200000001,
          "velocity": 0.7874015748031497
        },
        {
          "duration": 0.33333199999999863,
          "durationTicks": 480,
          "midi": 74,
          "name": "D5",
          "ticks": 115920,
          "time": 80.83301200000001,
          "velocity": 0.7874015748031497
        },
        {
          "duration": 0.1666659999999922,
          "durationTicks": 240,
          "midi": 34,
          "name": "A#1",
          "ticks": 115920,
          "time": 80.83301200000001,
          "velocity": 0.7874015748031497
        },
        {
          "duration": 0.16666600000000642,
          "durationTicks": 240,
          "midi": 46,
          "name": "A#2",
          "ticks": 116160,
          "time": 80.999678,
          "velocity": 0.7874015748031497
        },
        {
          "duration": 0.33333199999999863,
          "durationTicks": 480,
          "midi": 76,
          "name": "E5",
          "ticks": 116400,
          "time": 81.16634400000001,
          "velocity": 0.7874015748031497
        },
        {
          "duration": 0.33333199999999863,
          "durationTicks": 480,
          "midi": 72,
          "name": "C5",
          "ticks": 116400,
          "time": 81.16634400000001,
          "velocity": 0.7874015748031497
        },
        {
          "duration": 0.1666659999999922,
          "durationTicks": 240,
          "midi": 34,
          "name": "A#1",
          "ticks": 116400,
          "time": 81.16634400000001,
          "velocity": 0.7874015748031497
        },
        {
          "duration": 0.16666600000000642,
          "durationTicks": 240,
          "midi": 46,
          "name": "A#2",
          "ticks": 116640,
          "time": 81.33301,
          "velocity": 0.7874015748031497
        },
        {
          "duration": 0.1666659999999922,
          "durationTicks": 240,
          "midi": 74,
          "name": "D5",
          "ticks": 116880,
          "time": 81.49967600000001,
          "velocity": 0.7874015748031497
        },
        {
          "duration": 0.1666659999999922,
          "durationTicks": 240,
          "midi": 70,
          "name": "A#4",
          "ticks": 116880,
          "time": 81.49967600000001,
          "velocity": 0.7874015748031497
        },
        {
          "duration": 0.1666659999999922,
          "durationTicks": 240,
          "midi": 34,
          "name": "A#1",
          "ticks": 116880,
          "time": 81.49967600000001,
          "velocity": 0.7874015748031497
        },
        {
          "duration": 0.16666600000000642,
          "durationTicks": 240,
          "midi": 74,
          "name": "D5",
          "ticks": 117120,
          "time": 81.666342,
          "velocity": 0.7874015748031497
        },
        {
          "duration": 0.16666600000000642,
          "durationTicks": 240,
          "midi": 70,
          "name": "A#4",
          "ticks": 117120,
          "time": 81.666342,
          "velocity": 0.7874015748031497
        },
        {
          "duration": 0.16666600000000642,
          "durationTicks": 240,
          "midi": 46,
          "name": "A#2",
          "ticks": 117120,
          "time": 81.666342,
          "velocity": 0.7874015748031497
        },
        {
          "duration": 0.33333199999999863,
          "durationTicks": 480,
          "midi": 74,
          "name": "D5",
          "ticks": 117360,
          "time": 81.833008,
          "velocity": 0.7874015748031497
        },
        {
          "duration": 0.33333199999999863,
          "durationTicks": 480,
          "midi": 70,
          "name": "A#4",
          "ticks": 117360,
          "time": 81.833008,
          "velocity": 0.7874015748031497
        },
        {
          "duration": 0.1666659999999922,
          "durationTicks": 240,
          "midi": 34,
          "name": "A#1",
          "ticks": 117360,
          "time": 81.833008,
          "velocity": 0.7874015748031497
        },
        {
          "duration": 0.16666600000000642,
          "durationTicks": 240,
          "midi": 46,
          "name": "A#2",
          "ticks": 117600,
          "time": 81.999674,
          "velocity": 0.7874015748031497
        },
        {
          "duration": 0.33333199999999863,
          "durationTicks": 480,
          "midi": 82,
          "name": "A#5",
          "ticks": 117840,
          "time": 82.16634,
          "velocity": 0.7874015748031497
        },
        {
          "duration": 0.33333199999999863,
          "durationTicks": 480,
          "midi": 77,
          "name": "F5",
          "ticks": 117840,
          "time": 82.16634,
          "velocity": 0.7874015748031497
        },
        {
          "duration": 0.1666659999999922,
          "durationTicks": 240,
          "midi": 34,
          "name": "A#1",
          "ticks": 117840,
          "time": 82.16634,
          "velocity": 0.7874015748031497
        },
        {
          "duration": 0.16666600000000642,
          "durationTicks": 240,
          "midi": 46,
          "name": "A#2",
          "ticks": 118080,
          "time": 82.333006,
          "velocity": 0.7874015748031497
        },
        {
          "duration": 0.33333199999999863,
          "durationTicks": 480,
          "midi": 81,
          "name": "A5",
          "ticks": 118320,
          "time": 82.499672,
          "velocity": 0.7874015748031497
        },
        {
          "duration": 0.33333199999999863,
          "durationTicks": 480,
          "midi": 76,
          "name": "E5",
          "ticks": 118320,
          "time": 82.499672,
          "velocity": 0.7874015748031497
        },
        {
          "duration": 0.16666600000000642,
          "durationTicks": 240,
          "midi": 34,
          "name": "A#1",
          "ticks": 118320,
          "time": 82.499672,
          "velocity": 0.7874015748031497
        },
        {
          "duration": 0.1666659999999922,
          "durationTicks": 240,
          "midi": 46,
          "name": "A#2",
          "ticks": 118560,
          "time": 82.66633800000001,
          "velocity": 0.7874015748031497
        },
        {
          "duration": 0.16666600000000642,
          "durationTicks": 240,
          "midi": 79,
          "name": "G5",
          "ticks": 118800,
          "time": 82.833004,
          "velocity": 0.7874015748031497
        },
        {
          "duration": 0.16666600000000642,
          "durationTicks": 240,
          "midi": 74,
          "name": "D5",
          "ticks": 118800,
          "time": 82.833004,
          "velocity": 0.7874015748031497
        },
        {
          "duration": 0.16666600000000642,
          "durationTicks": 240,
          "midi": 34,
          "name": "A#1",
          "ticks": 118800,
          "time": 82.833004,
          "velocity": 0.7874015748031497
        },
        {
          "duration": 0.1666659999999922,
          "durationTicks": 240,
          "midi": 80,
          "name": "G#5",
          "ticks": 119040,
          "time": 82.99967000000001,
          "velocity": 0.7874015748031497
        },
        {
          "duration": 0.1666659999999922,
          "durationTicks": 240,
          "midi": 74,
          "name": "D5",
          "ticks": 119040,
          "time": 82.99967000000001,
          "velocity": 0.7874015748031497
        },
        {
          "duration": 0.1666659999999922,
          "durationTicks": 240,
          "midi": 46,
          "name": "A#2",
          "ticks": 119040,
          "time": 82.99967000000001,
          "velocity": 0.7874015748031497
        },
        {
          "duration": 0.16666600000000642,
          "durationTicks": 240,
          "midi": 81,
          "name": "A5",
          "ticks": 119280,
          "time": 83.166336,
          "velocity": 0.7874015748031497
        },
        {
          "duration": 0.16666600000000642,
          "durationTicks": 240,
          "midi": 73,
          "name": "C#5",
          "ticks": 119280,
          "time": 83.166336,
          "velocity": 0.7874015748031497
        },
        {
          "duration": 0.16666600000000642,
          "durationTicks": 240,
          "midi": 33,
          "name": "A1",
          "ticks": 119280,
          "time": 83.166336,
          "velocity": 0.7874015748031497
        },
        {
          "duration": 0.1666659999999922,
          "durationTicks": 240,
          "midi": 76,
          "name": "E5",
          "ticks": 119520,
          "time": 83.33300200000001,
          "velocity": 0.7874015748031497
        },
        {
          "duration": 0.1666659999999922,
          "durationTicks": 240,
          "midi": 45,
          "name": "A2",
          "ticks": 119520,
          "time": 83.33300200000001,
          "velocity": 0.7874015748031497
        },
        {
          "duration": 0.16666600000000642,
          "durationTicks": 240,
          "midi": 69,
          "name": "A4",
          "ticks": 119760,
          "time": 83.499668,
          "velocity": 0.7874015748031497
        },
        {
          "duration": 0.16666600000000642,
          "durationTicks": 240,
          "midi": 33,
          "name": "A1",
          "ticks": 119760,
          "time": 83.499668,
          "velocity": 0.7874015748031497
        },
        {
          "duration": 0.1666659999999922,
          "durationTicks": 240,
          "midi": 81,
          "name": "A5",
          "ticks": 120000,
          "time": 83.666334,
          "velocity": 0.7874015748031497
        },
        {
          "duration": 0.1666659999999922,
          "durationTicks": 240,
          "midi": 73,
          "name": "C#5",
          "ticks": 120000,
          "time": 83.666334,
          "velocity": 0.7874015748031497
        },
        {
          "duration": 0.1666659999999922,
          "durationTicks": 240,
          "midi": 45,
          "name": "A2",
          "ticks": 120000,
          "time": 83.666334,
          "velocity": 0.7874015748031497
        },
        {
          "duration": 0.16666600000000642,
          "durationTicks": 240,
          "midi": 83,
          "name": "B5",
          "ticks": 120240,
          "time": 83.833,
          "velocity": 0.7874015748031497
        },
        {
          "duration": 0.16666600000000642,
          "durationTicks": 240,
          "midi": 74,
          "name": "D5",
          "ticks": 120240,
          "time": 83.833,
          "velocity": 0.7874015748031497
        },
        {
          "duration": 0.16666600000000642,
          "durationTicks": 240,
          "midi": 33,
          "name": "A1",
          "ticks": 120240,
          "time": 83.833,
          "velocity": 0.7874015748031497
        },
        {
          "duration": 0.16666600000000642,
          "durationTicks": 240,
          "midi": 74,
          "name": "D5",
          "ticks": 120480,
          "time": 83.999666,
          "velocity": 0.7874015748031497
        },
        {
          "duration": 0.16666600000000642,
          "durationTicks": 240,
          "midi": 45,
          "name": "A2",
          "ticks": 120480,
          "time": 83.999666,
          "velocity": 0.7874015748031497
        },
        {
          "duration": 0.1666659999999922,
          "durationTicks": 240,
          "midi": 83,
          "name": "B5",
          "ticks": 120720,
          "time": 84.16633200000001,
          "velocity": 0.7874015748031497
        },
        {
          "duration": 0.1666659999999922,
          "durationTicks": 240,
          "midi": 74,
          "name": "D5",
          "ticks": 120720,
          "time": 84.16633200000001,
          "velocity": 0.7874015748031497
        },
        {
          "duration": 0.1666659999999922,
          "durationTicks": 240,
          "midi": 33,
          "name": "A1",
          "ticks": 120720,
          "time": 84.16633200000001,
          "velocity": 0.7874015748031497
        },
        {
          "duration": 0.33333199999999863,
          "durationTicks": 480,
          "midi": 85,
          "name": "C#6",
          "ticks": 120960,
          "time": 84.332998,
          "velocity": 0.7874015748031497
        },
        {
          "duration": 0.33333199999999863,
          "durationTicks": 480,
          "midi": 76,
          "name": "E5",
          "ticks": 120960,
          "time": 84.332998,
          "velocity": 0.7874015748031497
        },
        {
          "duration": 0.16666600000000642,
          "durationTicks": 240,
          "midi": 45,
          "name": "A2",
          "ticks": 120960,
          "time": 84.332998,
          "velocity": 0.7874015748031497
        },
        {
          "duration": 0.1666659999999922,
          "durationTicks": 240,
          "midi": 33,
          "name": "A1",
          "ticks": 121200,
          "time": 84.49966400000001,
          "velocity": 0.7874015748031497
        },
        {
          "duration": 0.16666600000000642,
          "durationTicks": 240,
          "midi": 76,
          "name": "E5",
          "ticks": 121440,
          "time": 84.66633,
          "velocity": 0.7874015748031497
        },
        {
          "duration": 0.16666600000000642,
          "durationTicks": 240,
          "midi": 45,
          "name": "A2",
          "ticks": 121440,
          "time": 84.66633,
          "velocity": 0.7874015748031497
        },
        {
          "duration": 0.1666659999999922,
          "durationTicks": 240,
          "midi": 85,
          "name": "C#6",
          "ticks": 121680,
          "time": 84.83299600000001,
          "velocity": 0.7874015748031497
        },
        {
          "duration": 0.1666659999999922,
          "durationTicks": 240,
          "midi": 81,
          "name": "A5",
          "ticks": 121680,
          "time": 84.83299600000001,
          "velocity": 0.7874015748031497
        },
        {
          "duration": 0.1666659999999922,
          "durationTicks": 240,
          "midi": 35,
          "name": "B1",
          "ticks": 121680,
          "time": 84.83299600000001,
          "velocity": 0.7874015748031497
        },
        {
          "duration": 0.16666600000000642,
          "durationTicks": 240,
          "midi": 86,
          "name": "D6",
          "ticks": 121920,
          "time": 84.999662,
          "velocity": 0.7874015748031497
        },
        {
          "duration": 0.16666600000000642,
          "durationTicks": 240,
          "midi": 83,
          "name": "B5",
          "ticks": 121920,
          "time": 84.999662,
          "velocity": 0.7874015748031497
        },
        {
          "duration": 0.16666600000000642,
          "durationTicks": 240,
          "midi": 47,
          "name": "B2",
          "ticks": 121920,
          "time": 84.999662,
          "velocity": 0.7874015748031497
        },
        {
          "duration": 0.6666639999999973,
          "durationTicks": 960,
          "midi": 88,
          "name": "E6",
          "ticks": 122160,
          "time": 85.16632800000001,
          "velocity": 0.7874015748031497
        },
        {
          "duration": 0.6666639999999973,
          "durationTicks": 960,
          "midi": 85,
          "name": "C#6",
          "ticks": 122160,
          "time": 85.16632800000001,
          "velocity": 0.7874015748031497
        },
        {
          "duration": 0.1666659999999922,
          "durationTicks": 240,
          "midi": 37,
          "name": "C#2",
          "ticks": 122160,
          "time": 85.16632800000001,
          "velocity": 0.7874015748031497
        },
        {
          "duration": 0.16666600000000642,
          "durationTicks": 240,
          "midi": 49,
          "name": "C#3",
          "ticks": 122400,
          "time": 85.332994,
          "velocity": 0.7874015748031497
        },
        {
          "duration": 0.1666659999999922,
          "durationTicks": 240,
          "midi": 33,
          "name": "A1",
          "ticks": 122640,
          "time": 85.49966,
          "velocity": 0.7874015748031497
        },
        {
          "duration": 0.16666600000000642,
          "durationTicks": 240,
          "midi": 45,
          "name": "A2",
          "ticks": 122880,
          "time": 85.666326,
          "velocity": 0.7874015748031497
        },
        {
          "duration": 0.16666600000000642,
          "durationTicks": 240,
          "midi": 57,
          "name": "A3",
          "ticks": 123120,
          "time": 85.832992,
          "velocity": 0.7874015748031497
        },
        {
          "duration": 0.16666600000000642,
          "durationTicks": 240,
          "midi": 34,
          "name": "A#1",
          "ticks": 123120,
          "time": 85.832992,
          "velocity": 0.7874015748031497
        },
        {
          "duration": 0.1666659999999922,
          "durationTicks": 240,
          "midi": 65,
          "name": "F4",
          "ticks": 123360,
          "time": 85.99965800000001,
          "velocity": 0.7874015748031497
        },
        {
          "duration": 0.1666659999999922,
          "durationTicks": 240,
          "midi": 46,
          "name": "A#2",
          "ticks": 123360,
          "time": 85.99965800000001,
          "velocity": 0.7874015748031497
        },
        {
          "duration": 0.0833329999999961,
          "durationTicks": 120,
          "midi": 64,
          "name": "E4",
          "ticks": 123600,
          "time": 86.166324,
          "velocity": 0.7874015748031497
        },
        {
          "duration": 0.16666600000000642,
          "durationTicks": 240,
          "midi": 34,
          "name": "A#1",
          "ticks": 123600,
          "time": 86.166324,
          "velocity": 0.7874015748031497
        },
        {
          "duration": 0.08333300000001032,
          "durationTicks": 120,
          "midi": 65,
          "name": "F4",
          "ticks": 123720,
          "time": 86.249657,
          "velocity": 0.7874015748031497
        },
        {
          "duration": 0.1666659999999922,
          "durationTicks": 240,
          "midi": 64,
          "name": "E4",
          "ticks": 123840,
          "time": 86.33299000000001,
          "velocity": 0.7874015748031497
        },
        {
          "duration": 0.1666659999999922,
          "durationTicks": 240,
          "midi": 46,
          "name": "A#2",
          "ticks": 123840,
          "time": 86.33299000000001,
          "velocity": 0.7874015748031497
        },
        {
          "duration": 0.16666600000000642,
          "durationTicks": 240,
          "midi": 67,
          "name": "G4",
          "ticks": 124080,
          "time": 86.499656,
          "velocity": 0.7874015748031497
        },
        {
          "duration": 0.16666600000000642,
          "durationTicks": 240,
          "midi": 36,
          "name": "C2",
          "ticks": 124080,
          "time": 86.499656,
          "velocity": 0.7874015748031497
        },
        {
          "duration": 0.1666659999999922,
          "durationTicks": 240,
          "midi": 65,
          "name": "F4",
          "ticks": 124320,
          "time": 86.66632200000001,
          "velocity": 0.7874015748031497
        },
        {
          "duration": 0.1666659999999922,
          "durationTicks": 240,
          "midi": 48,
          "name": "C3",
          "ticks": 124320,
          "time": 86.66632200000001,
          "velocity": 0.7874015748031497
        },
        {
          "duration": 0.08333300000001032,
          "durationTicks": 120,
          "midi": 64,
          "name": "E4",
          "ticks": 124560,
          "time": 86.832988,
          "velocity": 0.7874015748031497
        },
        {
          "duration": 0.16666600000000642,
          "durationTicks": 240,
          "midi": 36,
          "name": "C2",
          "ticks": 124560,
          "time": 86.832988,
          "velocity": 0.7874015748031497
        },
        {
          "duration": 0.0833329999999961,
          "durationTicks": 120,
          "midi": 65,
          "name": "F4",
          "ticks": 124680,
          "time": 86.91632100000001,
          "velocity": 0.7874015748031497
        },
        {
          "duration": 0.0833329999999961,
          "durationTicks": 120,
          "midi": 64,
          "name": "E4",
          "ticks": 124800,
          "time": 86.999654,
          "velocity": 0.7874015748031497
        },
        {
          "duration": 0.1666659999999922,
          "durationTicks": 240,
          "midi": 48,
          "name": "C3",
          "ticks": 124800,
          "time": 86.999654,
          "velocity": 0.7874015748031497
        },
        {
          "duration": 0.0833329999999961,
          "durationTicks": 120,
          "midi": 60,
          "name": "C4",
          "ticks": 124920,
          "time": 87.082987,
          "velocity": 0.7874015748031497
        },
        {
          "duration": 0.16666600000000642,
          "durationTicks": 240,
          "midi": 62,
          "name": "D4",
          "ticks": 125040,
          "time": 87.16632,
          "velocity": 0.7874015748031497
        },
        {
          "duration": 0.16666600000000642,
          "durationTicks": 240,
          "midi": 38,
          "name": "D2",
          "ticks": 125040,
          "time": 87.16632,
          "velocity": 0.7874015748031497
        },
        {
          "duration": 0.1666659999999922,
          "durationTicks": 240,
          "midi": 69,
          "name": "A4",
          "ticks": 125280,
          "time": 87.332986,
          "velocity": 0.7874015748031497
        },
        {
          "duration": 0.1666659999999922,
          "durationTicks": 240,
          "midi": 50,
          "name": "D3",
          "ticks": 125280,
          "time": 87.332986,
          "velocity": 0.7874015748031497
        },
        {
          "duration": 0.08333300000001032,
          "durationTicks": 120,
          "midi": 67,
          "name": "G4",
          "ticks": 125520,
          "time": 87.499652,
          "velocity": 0.7874015748031497
        },
        {
          "duration": 0.16666600000000642,
          "durationTicks": 240,
          "midi": 38,
          "name": "D2",
          "ticks": 125520,
          "time": 87.499652,
          "velocity": 0.7874015748031497
        },
        {
          "duration": 0.0833329999999961,
          "durationTicks": 120,
          "midi": 69,
          "name": "A4",
          "ticks": 125640,
          "time": 87.58298500000001,
          "velocity": 0.7874015748031497
        },
        {
          "duration": 0.0833329999999961,
          "durationTicks": 120,
          "midi": 67,
          "name": "G4",
          "ticks": 125760,
          "time": 87.666318,
          "velocity": 0.7874015748031497
        },
        {
          "duration": 0.16666600000000642,
          "durationTicks": 240,
          "midi": 50,
          "name": "D3",
          "ticks": 125760,
          "time": 87.666318,
          "velocity": 0.7874015748031497
        },
        {
          "duration": 0.08333300000001032,
          "durationTicks": 120,
          "midi": 69,
          "name": "A4",
          "ticks": 125880,
          "time": 87.749651,
          "velocity": 0.7874015748031497
        },
        {
          "duration": 0.1666659999999922,
          "durationTicks": 240,
          "midi": 72,
          "name": "C5",
          "ticks": 126000,
          "time": 87.83298400000001,
          "velocity": 0.7874015748031497
        },
        {
          "duration": 0.1666659999999922,
          "durationTicks": 240,
          "midi": 38,
          "name": "D2",
          "ticks": 126000,
          "time": 87.83298400000001,
          "velocity": 0.7874015748031497
        },
        {
          "duration": 0.16666600000000642,
          "durationTicks": 240,
          "midi": 69,
          "name": "A4",
          "ticks": 126240,
          "time": 87.99965,
          "velocity": 0.7874015748031497
        },
        {
          "duration": 0.16666600000000642,
          "durationTicks": 240,
          "midi": 50,
          "name": "D3",
          "ticks": 126240,
          "time": 87.99965,
          "velocity": 0.7874015748031497
        },
        {
          "duration": 0.1666659999999922,
          "durationTicks": 240,
          "midi": 67,
          "name": "G4",
          "ticks": 126480,
          "time": 88.16631600000001,
          "velocity": 0.7874015748031497
        },
        {
          "duration": 0.1666659999999922,
          "durationTicks": 240,
          "midi": 36,
          "name": "C2",
          "ticks": 126480,
          "time": 88.16631600000001,
          "velocity": 0.7874015748031497
        },
        {
          "duration": 0.16666600000000642,
          "durationTicks": 240,
          "midi": 69,
          "name": "A4",
          "ticks": 126720,
          "time": 88.332982,
          "velocity": 0.7874015748031497
        },
        {
          "duration": 0.16666600000000642,
          "durationTicks": 240,
          "midi": 48,
          "name": "C3",
          "ticks": 126720,
          "time": 88.332982,
          "velocity": 0.7874015748031497
        },
        {
          "duration": 0.1666659999999922,
          "durationTicks": 240,
          "midi": 57,
          "name": "A3",
          "ticks": 126960,
          "time": 88.49964800000001,
          "velocity": 0.7874015748031497
        },
        {
          "duration": 0.1666659999999922,
          "durationTicks": 240,
          "midi": 34,
          "name": "A#1",
          "ticks": 126960,
          "time": 88.49964800000001,
          "velocity": 0.7874015748031497
        },
        {
          "duration": 0.16666600000000642,
          "durationTicks": 240,
          "midi": 65,
          "name": "F4",
          "ticks": 127200,
          "time": 88.666314,
          "velocity": 0.7874015748031497
        },
        {
          "duration": 0.16666600000000642,
          "durationTicks": 240,
          "midi": 46,
          "name": "A#2",
          "ticks": 127200,
          "time": 88.666314,
          "velocity": 0.7874015748031497
        },
        {
          "duration": 0.0833329999999961,
          "durationTicks": 120,
          "midi": 64,
          "name": "E4",
          "ticks": 127440,
          "time": 88.83298,
          "velocity": 0.7874015748031497
        },
        {
          "duration": 0.1666659999999922,
          "durationTicks": 240,
          "midi": 34,
          "name": "A#1",
          "ticks": 127440,
          "time": 88.83298,
          "velocity": 0.7874015748031497
        },
        {
          "duration": 0.0833329999999961,
          "durationTicks": 120,
          "midi": 65,
          "name": "F4",
          "ticks": 127560,
          "time": 88.916313,
          "velocity": 0.7874015748031497
        },
        {
          "duration": 0.16666600000000642,
          "durationTicks": 240,
          "midi": 64,
          "name": "E4",
          "ticks": 127680,
          "time": 88.999646,
          "velocity": 0.7874015748031497
        },
        {
          "duration": 0.16666600000000642,
          "durationTicks": 240,
          "midi": 46,
          "name": "A#2",
          "ticks": 127680,
          "time": 88.999646,
          "velocity": 0.7874015748031497
        },
        {
          "duration": 0.16666600000000642,
          "durationTicks": 240,
          "midi": 67,
          "name": "G4",
          "ticks": 127920,
          "time": 89.166312,
          "velocity": 0.7874015748031497
        },
        {
          "duration": 0.16666600000000642,
          "durationTicks": 240,
          "midi": 36,
          "name": "C2",
          "ticks": 127920,
          "time": 89.166312,
          "velocity": 0.7874015748031497
        },
        {
          "duration": 0.1666659999999922,
          "durationTicks": 240,
          "midi": 65,
          "name": "F4",
          "ticks": 128160,
          "time": 89.33297800000001,
          "velocity": 0.7874015748031497
        },
        {
          "duration": 0.1666659999999922,
          "durationTicks": 240,
          "midi": 48,
          "name": "C3",
          "ticks": 128160,
          "time": 89.33297800000001,
          "velocity": 0.7874015748031497
        },
        {
          "duration": 0.0833329999999961,
          "durationTicks": 120,
          "midi": 64,
          "name": "E4",
          "ticks": 128400,
          "time": 89.499644,
          "velocity": 0.7874015748031497
        },
        {
          "duration": 0.16666600000000642,
          "durationTicks": 240,
          "midi": 36,
          "name": "C2",
          "ticks": 128400,
          "time": 89.499644,
          "velocity": 0.7874015748031497
        },
        {
          "duration": 0.08333300000001032,
          "durationTicks": 120,
          "midi": 65,
          "name": "F4",
          "ticks": 128520,
          "time": 89.582977,
          "velocity": 0.7874015748031497
        },
        {
          "duration": 0.0833329999999961,
          "durationTicks": 120,
          "midi": 64,
          "name": "E4",
          "ticks": 128640,
          "time": 89.66631000000001,
          "velocity": 0.7874015748031497
        },
        {
          "duration": 0.1666659999999922,
          "durationTicks": 240,
          "midi": 48,
          "name": "C3",
          "ticks": 128640,
          "time": 89.66631000000001,
          "velocity": 0.7874015748031497
        },
        {
          "duration": 0.0833329999999961,
          "durationTicks": 120,
          "midi": 60,
          "name": "C4",
          "ticks": 128760,
          "time": 89.749643,
          "velocity": 0.7874015748031497
        },
        {
          "duration": 0.16666600000000642,
          "durationTicks": 240,
          "midi": 62,
          "name": "D4",
          "ticks": 128880,
          "time": 89.832976,
          "velocity": 0.7874015748031497
        },
        {
          "duration": 0.16666600000000642,
          "durationTicks": 240,
          "midi": 38,
          "name": "D2",
          "ticks": 128880,
          "time": 89.832976,
          "velocity": 0.7874015748031497
        },
        {
          "duration": 0.1666659999999922,
          "durationTicks": 240,
          "midi": 69,
          "name": "A4",
          "ticks": 129120,
          "time": 89.99964200000001,
          "velocity": 0.7874015748031497
        },
        {
          "duration": 0.1666659999999922,
          "durationTicks": 240,
          "midi": 50,
          "name": "D3",
          "ticks": 129120,
          "time": 89.99964200000001,
          "velocity": 0.7874015748031497
        },
        {
          "duration": 0.08333300000001032,
          "durationTicks": 120,
          "midi": 67,
          "name": "G4",
          "ticks": 129360,
          "time": 90.166308,
          "velocity": 0.7874015748031497
        },
        {
          "duration": 0.16666600000000642,
          "durationTicks": 240,
          "midi": 40,
          "name": "E2",
          "ticks": 129360,
          "time": 90.166308,
          "velocity": 0.7874015748031497
        },
        {
          "duration": 0.0833329999999961,
          "durationTicks": 120,
          "midi": 69,
          "name": "A4",
          "ticks": 129480,
          "time": 90.24964100000001,
          "velocity": 0.7874015748031497
        },
        {
          "duration": 0.0833329999999961,
          "durationTicks": 120,
          "midi": 67,
          "name": "G4",
          "ticks": 129600,
          "time": 90.33297400000001,
          "velocity": 0.7874015748031497
        },
        {
          "duration": 0.1666659999999922,
          "durationTicks": 240,
          "midi": 52,
          "name": "E3",
          "ticks": 129600,
          "time": 90.33297400000001,
          "velocity": 0.7874015748031497
        },
        {
          "duration": 0.0833329999999961,
          "durationTicks": 120,
          "midi": 69,
          "name": "A4",
          "ticks": 129720,
          "time": 90.416307,
          "velocity": 0.7874015748031497
        },
        {
          "duration": 0.16666600000000642,
          "durationTicks": 240,
          "midi": 73,
          "name": "C#5",
          "ticks": 129840,
          "time": 90.49964,
          "velocity": 0.7874015748031497
        },
        {
          "duration": 0.16666600000000642,
          "durationTicks": 240,
          "midi": 41,
          "name": "F2",
          "ticks": 129840,
          "time": 90.49964,
          "velocity": 0.7874015748031497
        },
        {
          "duration": 0.1666659999999922,
          "durationTicks": 240,
          "midi": 69,
          "name": "A4",
          "ticks": 130080,
          "time": 90.666306,
          "velocity": 0.7874015748031497
        },
        {
          "duration": 0.1666659999999922,
          "durationTicks": 240,
          "midi": 53,
          "name": "F3",
          "ticks": 130080,
          "time": 90.666306,
          "velocity": 0.7874015748031497
        },
        {
          "duration": 0.16666600000000642,
          "durationTicks": 240,
          "midi": 67,
          "name": "G4",
          "ticks": 130320,
          "time": 90.832972,
          "velocity": 0.7874015748031497
        },
        {
          "duration": 0.16666600000000642,
          "durationTicks": 240,
          "midi": 43,
          "name": "G2",
          "ticks": 130320,
          "time": 90.832972,
          "velocity": 0.7874015748031497
        },
        {
          "duration": 0.16666600000000642,
          "durationTicks": 240,
          "midi": 69,
          "name": "A4",
          "ticks": 130560,
          "time": 90.999638,
          "velocity": 0.7874015748031497
        },
        {
          "duration": 0.16666600000000642,
          "durationTicks": 240,
          "midi": 55,
          "name": "G3",
          "ticks": 130560,
          "time": 90.999638,
          "velocity": 0.7874015748031497
        },
        {
          "duration": 0.1666659999999922,
          "durationTicks": 240,
          "midi": 57,
          "name": "A3",
          "ticks": 130800,
          "time": 91.16630400000001,
          "velocity": 0.7874015748031497
        },
        {
          "duration": 0.1666659999999922,
          "durationTicks": 240,
          "midi": 34,
          "name": "A#1",
          "ticks": 130800,
          "time": 91.16630400000001,
          "velocity": 0.7874015748031497
        },
        {
          "duration": 0.16666600000000642,
          "durationTicks": 240,
          "midi": 65,
          "name": "F4",
          "ticks": 131040,
          "time": 91.33297,
          "velocity": 0.7874015748031497
        },
        {
          "duration": 0.16666600000000642,
          "durationTicks": 240,
          "midi": 46,
          "name": "A#2",
          "ticks": 131040,
          "time": 91.33297,
          "velocity": 0.7874015748031497
        },
        {
          "duration": 0.0833329999999961,
          "durationTicks": 120,
          "midi": 64,
          "name": "E4",
          "ticks": 131280,
          "time": 91.49963600000001,
          "velocity": 0.7874015748031497
        },
        {
          "duration": 0.1666659999999922,
          "durationTicks": 240,
          "midi": 34,
          "name": "A#1",
          "ticks": 131280,
          "time": 91.49963600000001,
          "velocity": 0.7874015748031497
        },
        {
          "duration": 0.0833329999999961,
          "durationTicks": 120,
          "midi": 65,
          "name": "F4",
          "ticks": 131400,
          "time": 91.582969,
          "velocity": 0.7874015748031497
        },
        {
          "duration": 0.16666600000000642,
          "durationTicks": 240,
          "midi": 64,
          "name": "E4",
          "ticks": 131520,
          "time": 91.666302,
          "velocity": 0.7874015748031497
        },
        {
          "duration": 0.16666600000000642,
          "durationTicks": 240,
          "midi": 46,
          "name": "A#2",
          "ticks": 131520,
          "time": 91.666302,
          "velocity": 0.7874015748031497
        },
        {
          "duration": 0.1666659999999922,
          "durationTicks": 240,
          "midi": 67,
          "name": "G4",
          "ticks": 131760,
          "time": 91.83296800000001,
          "velocity": 0.7874015748031497
        },
        {
          "duration": 0.1666659999999922,
          "durationTicks": 240,
          "midi": 36,
          "name": "C2",
          "ticks": 131760,
          "time": 91.83296800000001,
          "velocity": 0.7874015748031497
        },
        {
          "duration": 0.16666600000000642,
          "durationTicks": 240,
          "midi": 65,
          "name": "F4",
          "ticks": 132000,
          "time": 91.999634,
          "velocity": 0.7874015748031497
        },
        {
          "duration": 0.16666600000000642,
          "durationTicks": 240,
          "midi": 48,
          "name": "C3",
          "ticks": 132000,
          "time": 91.999634,
          "velocity": 0.7874015748031497
        },
        {
          "duration": 0.0833329999999961,
          "durationTicks": 120,
          "midi": 64,
          "name": "E4",
          "ticks": 132240,
          "time": 92.1663,
          "velocity": 0.7874015748031497
        },
        {
          "duration": 0.1666659999999922,
          "durationTicks": 240,
          "midi": 36,
          "name": "C2",
          "ticks": 132240,
          "time": 92.1663,
          "velocity": 0.7874015748031497
        },
        {
          "duration": 0.0833329999999961,
          "durationTicks": 120,
          "midi": 65,
          "name": "F4",
          "ticks": 132360,
          "time": 92.249633,
          "velocity": 0.7874015748031497
        },
        {
          "duration": 0.08333300000001032,
          "durationTicks": 120,
          "midi": 64,
          "name": "E4",
          "ticks": 132480,
          "time": 92.332966,
          "velocity": 0.7874015748031497
        },
        {
          "duration": 0.16666600000000642,
          "durationTicks": 240,
          "midi": 48,
          "name": "C3",
          "ticks": 132480,
          "time": 92.332966,
          "velocity": 0.7874015748031497
        },
        {
          "duration": 0.0833329999999961,
          "durationTicks": 120,
          "midi": 60,
          "name": "C4",
          "ticks": 132600,
          "time": 92.41629900000001,
          "velocity": 0.7874015748031497
        },
        {
          "duration": 0.16666600000000642,
          "durationTicks": 240,
          "midi": 62,
          "name": "D4",
          "ticks": 132720,
          "time": 92.499632,
          "velocity": 0.7874015748031497
        },
        {
          "duration": 0.16666600000000642,
          "durationTicks": 240,
          "midi": 38,
          "name": "D2",
          "ticks": 132720,
          "time": 92.499632,
          "velocity": 0.7874015748031497
        },
        {
          "duration": 0.1666659999999922,
          "durationTicks": 240,
          "midi": 69,
          "name": "A4",
          "ticks": 132960,
          "time": 92.66629800000001,
          "velocity": 0.7874015748031497
        },
        {
          "duration": 0.1666659999999922,
          "durationTicks": 240,
          "midi": 50,
          "name": "D3",
          "ticks": 132960,
          "time": 92.66629800000001,
          "velocity": 0.7874015748031497
        },
        {
          "duration": 0.0833329999999961,
          "durationTicks": 120,
          "midi": 67,
          "name": "G4",
          "ticks": 133200,
          "time": 92.832964,
          "velocity": 0.7874015748031497
        },
        {
          "duration": 0.16666600000000642,
          "durationTicks": 240,
          "midi": 38,
          "name": "D2",
          "ticks": 133200,
          "time": 92.832964,
          "velocity": 0.7874015748031497
        },
        {
          "duration": 0.08333300000001032,
          "durationTicks": 120,
          "midi": 69,
          "name": "A4",
          "ticks": 133320,
          "time": 92.916297,
          "velocity": 0.7874015748031497
        },
        {
          "duration": 0.0833329999999961,
          "durationTicks": 120,
          "midi": 67,
          "name": "G4",
          "ticks": 133440,
          "time": 92.99963000000001,
          "velocity": 0.7874015748031497
        },
        {
          "duration": 0.1666659999999922,
          "durationTicks": 240,
          "midi": 50,
          "name": "D3",
          "ticks": 133440,
          "time": 92.99963000000001,
          "velocity": 0.7874015748031497
        },
        {
          "duration": 0.0833329999999961,
          "durationTicks": 120,
          "midi": 69,
          "name": "A4",
          "ticks": 133560,
          "time": 93.082963,
          "velocity": 0.7874015748031497
        },
        {
          "duration": 0.16666600000000642,
          "durationTicks": 240,
          "midi": 72,
          "name": "C5",
          "ticks": 133680,
          "time": 93.166296,
          "velocity": 0.7874015748031497
        },
        {
          "duration": 0.16666600000000642,
          "durationTicks": 240,
          "midi": 38,
          "name": "D2",
          "ticks": 133680,
          "time": 93.166296,
          "velocity": 0.7874015748031497
        },
        {
          "duration": 0.1666659999999922,
          "durationTicks": 240,
          "midi": 69,
          "name": "A4",
          "ticks": 133920,
          "time": 93.33296200000001,
          "velocity": 0.7874015748031497
        },
        {
          "duration": 0.1666659999999922,
          "durationTicks": 240,
          "midi": 50,
          "name": "D3",
          "ticks": 133920,
          "time": 93.33296200000001,
          "velocity": 0.7874015748031497
        },
        {
          "duration": 0.16666600000000642,
          "durationTicks": 240,
          "midi": 65,
          "name": "F4",
          "ticks": 134160,
          "time": 93.499628,
          "velocity": 0.7874015748031497
        },
        {
          "duration": 0.16666600000000642,
          "durationTicks": 240,
          "midi": 36,
          "name": "C2",
          "ticks": 134160,
          "time": 93.499628,
          "velocity": 0.7874015748031497
        },
        {
          "duration": 0.1666659999999922,
          "durationTicks": 240,
          "midi": 66,
          "name": "F#4",
          "ticks": 134400,
          "time": 93.66629400000001,
          "velocity": 0.7874015748031497
        },
        {
          "duration": 0.1666659999999922,
          "durationTicks": 240,
          "midi": 48,
          "name": "C3",
          "ticks": 134400,
          "time": 93.66629400000001,
          "velocity": 0.7874015748031497
        },
        {
          "duration": 0.16666600000000642,
          "durationTicks": 240,
          "midi": 67,
          "name": "G4",
          "ticks": 134640,
          "time": 93.83296,
          "velocity": 0.7874015748031497
        },
        {
          "duration": 0.16666600000000642,
          "durationTicks": 240,
          "midi": 31,
          "name": "G1",
          "ticks": 134640,
          "time": 93.83296,
          "velocity": 0.7874015748031497
        },
        {
          "duration": 0.0833329999999961,
          "durationTicks": 120,
          "midi": 58,
          "name": "A#3",
          "ticks": 134880,
          "time": 93.999626,
          "velocity": 0.7874015748031497
        },
        {
          "duration": 0.1666659999999922,
          "durationTicks": 240,
          "midi": 43,
          "name": "G2",
          "ticks": 134880,
          "time": 93.999626,
          "velocity": 0.7874015748031497
        },
        {
          "duration": 0.0833329999999961,
          "durationTicks": 120,
          "midi": 67,
          "name": "G4",
          "ticks": 135000,
          "time": 94.082959,
          "velocity": 0.7874015748031497
        },
        {
          "duration": 0.16666600000000642,
          "durationTicks": 240,
          "midi": 58,
          "name": "A#3",
          "ticks": 135120,
          "time": 94.166292,
          "velocity": 0.7874015748031497
        },
        {
          "duration": 0.16666600000000642,
          "durationTicks": 240,
          "midi": 31,
          "name": "G1",
          "ticks": 135120,
          "time": 94.166292,
          "velocity": 0.7874015748031497
        },
        {
          "duration": 0.16666600000000642,
          "durationTicks": 240,
          "midi": 67,
          "name": "G4",
          "ticks": 135360,
          "time": 94.332958,
          "velocity": 0.7874015748031497
        },
        {
          "duration": 0.16666600000000642,
          "durationTicks": 240,
          "midi": 43,
          "name": "G2",
          "ticks": 135360,
          "time": 94.332958,
          "velocity": 0.7874015748031497
        },
        {
          "duration": 0.1666659999999922,
          "durationTicks": 240,
          "midi": 69,
          "name": "A4",
          "ticks": 135600,
          "time": 94.49962400000001,
          "velocity": 0.7874015748031497
        },
        {
          "duration": 0.1666659999999922,
          "durationTicks": 240,
          "midi": 33,
          "name": "A1",
          "ticks": 135600,
          "time": 94.49962400000001,
          "velocity": 0.7874015748031497
        },
        {
          "duration": 0.0833329999999961,
          "durationTicks": 120,
          "midi": 60,
          "name": "C4",
          "ticks": 135840,
          "time": 94.66629,
          "velocity": 0.7874015748031497
        },
        {
          "duration": 0.16666600000000642,
          "durationTicks": 240,
          "midi": 45,
          "name": "A2",
          "ticks": 135840,
          "time": 94.66629,
          "velocity": 0.7874015748031497
        },
        {
          "duration": 0.08333300000001032,
          "durationTicks": 120,
          "midi": 69,
          "name": "A4",
          "ticks": 135960,
          "time": 94.749623,
          "velocity": 0.7874015748031497
        },
        {
          "duration": 0.1666659999999922,
          "durationTicks": 240,
          "midi": 60,
          "name": "C4",
          "ticks": 136080,
          "time": 94.83295600000001,
          "velocity": 0.7874015748031497
        },
        {
          "duration": 0.1666659999999922,
          "durationTicks": 240,
          "midi": 33,
          "name": "A1",
          "ticks": 136080,
          "time": 94.83295600000001,
          "velocity": 0.7874015748031497
        },
        {
          "duration": 0.16666600000000642,
          "durationTicks": 240,
          "midi": 69,
          "name": "A4",
          "ticks": 136320,
          "time": 94.999622,
          "velocity": 0.7874015748031497
        },
        {
          "duration": 0.16666600000000642,
          "durationTicks": 240,
          "midi": 45,
          "name": "A2",
          "ticks": 136320,
          "time": 94.999622,
          "velocity": 0.7874015748031497
        },
        {
          "duration": 0.1666659999999922,
          "durationTicks": 240,
          "midi": 70,
          "name": "A#4",
          "ticks": 136560,
          "time": 95.16628800000001,
          "velocity": 0.7874015748031497
        },
        {
          "duration": 0.1666659999999922,
          "durationTicks": 240,
          "midi": 34,
          "name": "A#1",
          "ticks": 136560,
          "time": 95.16628800000001,
          "velocity": 0.7874015748031497
        },
        {
          "duration": 0.08333300000001032,
          "durationTicks": 120,
          "midi": 70,
          "name": "A#4",
          "ticks": 136800,
          "time": 95.332954,
          "velocity": 0.7874015748031497
        },
        {
          "duration": 0.16666600000000642,
          "durationTicks": 240,
          "midi": 46,
          "name": "A#2",
          "ticks": 136800,
          "time": 95.332954,
          "velocity": 0.7874015748031497
        },
        {
          "duration": 0.0833329999999961,
          "durationTicks": 120,
          "midi": 70,
          "name": "A#4",
          "ticks": 136920,
          "time": 95.41628700000001,
          "velocity": 0.7874015748031497
        },
        {
          "duration": 0.1666659999999922,
          "durationTicks": 240,
          "midi": 70,
          "name": "A#4",
          "ticks": 137040,
          "time": 95.49962000000001,
          "velocity": 0.7874015748031497
        },
        {
          "duration": 0.1666659999999922,
          "durationTicks": 240,
          "midi": 35,
          "name": "B1",
          "ticks": 137040,
          "time": 95.49962000000001,
          "velocity": 0.7874015748031497
        },
        {
          "duration": 0.16666600000000642,
          "durationTicks": 240,
          "midi": 71,
          "name": "B4",
          "ticks": 137280,
          "time": 95.666286,
          "velocity": 0.7874015748031497
        },
        {
          "duration": 0.16666600000000642,
          "durationTicks": 240,
          "midi": 47,
          "name": "B2",
          "ticks": 137280,
          "time": 95.666286,
          "velocity": 0.7874015748031497
        },
        {
          "duration": 0.6666639999999973,
          "durationTicks": 960,
          "midi": 72,
          "name": "C5",
          "ticks": 137520,
          "time": 95.832952,
          "velocity": 0.7874015748031497
        },
        {
          "duration": 0.1666659999999922,
          "durationTicks": 240,
          "midi": 36,
          "name": "C2",
          "ticks": 137520,
          "time": 95.832952,
          "velocity": 0.7874015748031497
        },
        {
          "duration": 0.16666600000000642,
          "durationTicks": 240,
          "midi": 48,
          "name": "C3",
          "ticks": 137760,
          "time": 95.999618,
          "velocity": 0.7874015748031497
        },
        {
          "duration": 0.16666600000000642,
          "durationTicks": 240,
          "midi": 36,
          "name": "C2",
          "ticks": 138000,
          "time": 96.166284,
          "velocity": 0.7874015748031497
        },
        {
          "duration": 0.1666659999999922,
          "durationTicks": 240,
          "midi": 48,
          "name": "C3",
          "ticks": 138240,
          "time": 96.33295000000001,
          "velocity": 0.7874015748031497
        },
        {
          "duration": 0.16666600000000642,
          "durationTicks": 240,
          "midi": 57,
          "name": "A3",
          "ticks": 138480,
          "time": 96.499616,
          "velocity": 0.7874015748031497
        },
        {
          "duration": 0.16666600000000642,
          "durationTicks": 240,
          "midi": 34,
          "name": "A#1",
          "ticks": 138480,
          "time": 96.499616,
          "velocity": 0.7874015748031497
        },
        {
          "duration": 0.1666659999999922,
          "durationTicks": 240,
          "midi": 65,
          "name": "F4",
          "ticks": 138720,
          "time": 96.66628200000001,
          "velocity": 0.7874015748031497
        },
        {
          "duration": 0.1666659999999922,
          "durationTicks": 240,
          "midi": 46,
          "name": "A#2",
          "ticks": 138720,
          "time": 96.66628200000001,
          "velocity": 0.7874015748031497
        },
        {
          "duration": 0.0833329999999961,
          "durationTicks": 120,
          "midi": 64,
          "name": "E4",
          "ticks": 138960,
          "time": 96.832948,
          "velocity": 0.7874015748031497
        },
        {
          "duration": 0.16666600000000642,
          "durationTicks": 240,
          "midi": 34,
          "name": "A#1",
          "ticks": 138960,
          "time": 96.832948,
          "velocity": 0.7874015748031497
        },
        {
          "duration": 0.08333300000001032,
          "durationTicks": 120,
          "midi": 65,
          "name": "F4",
          "ticks": 139080,
          "time": 96.916281,
          "velocity": 0.7874015748031497
        },
        {
          "duration": 0.1666659999999922,
          "durationTicks": 240,
          "midi": 64,
          "name": "E4",
          "ticks": 139200,
          "time": 96.99961400000001,
          "velocity": 0.7874015748031497
        },
        {
          "duration": 0.1666659999999922,
          "durationTicks": 240,
          "midi": 46,
          "name": "A#2",
          "ticks": 139200,
          "time": 96.99961400000001,
          "velocity": 0.7874015748031497
        },
        {
          "duration": 0.16666600000000642,
          "durationTicks": 240,
          "midi": 67,
          "name": "G4",
          "ticks": 139440,
          "time": 97.16628,
          "velocity": 0.7874015748031497
        },
        {
          "duration": 0.16666600000000642,
          "durationTicks": 240,
          "midi": 36,
          "name": "C2",
          "ticks": 139440,
          "time": 97.16628,
          "velocity": 0.7874015748031497
        },
        {
          "duration": 0.1666659999999922,
          "durationTicks": 240,
          "midi": 65,
          "name": "F4",
          "ticks": 139680,
          "time": 97.332946,
          "velocity": 0.7874015748031497
        },
        {
          "duration": 0.1666659999999922,
          "durationTicks": 240,
          "midi": 48,
          "name": "C3",
          "ticks": 139680,
          "time": 97.332946,
          "velocity": 0.7874015748031497
        },
        {
          "duration": 0.08333300000001032,
          "durationTicks": 120,
          "midi": 64,
          "name": "E4",
          "ticks": 139920,
          "time": 97.499612,
          "velocity": 0.7874015748031497
        },
        {
          "duration": 0.16666600000000642,
          "durationTicks": 240,
          "midi": 36,
          "name": "C2",
          "ticks": 139920,
          "time": 97.499612,
          "velocity": 0.7874015748031497
        },
        {
          "duration": 0.0833329999999961,
          "durationTicks": 120,
          "midi": 65,
          "name": "F4",
          "ticks": 140040,
          "time": 97.58294500000001,
          "velocity": 0.7874015748031497
        },
        {
          "duration": 0.0833329999999961,
          "durationTicks": 120,
          "midi": 64,
          "name": "E4",
          "ticks": 140160,
          "time": 97.666278,
          "velocity": 0.7874015748031497
        },
        {
          "duration": 0.16666600000000642,
          "durationTicks": 240,
          "midi": 48,
          "name": "C3",
          "ticks": 140160,
          "time": 97.666278,
          "velocity": 0.7874015748031497
        },
        {
          "duration": 0.08333300000001032,
          "durationTicks": 120,
          "midi": 60,
          "name": "C4",
          "ticks": 140280,
          "time": 97.749611,
          "velocity": 0.7874015748031497
        },
        {
          "duration": 0.1666659999999922,
          "durationTicks": 240,
          "midi": 62,
          "name": "D4",
          "ticks": 140400,
          "time": 97.83294400000001,
          "velocity": 0.7874015748031497
        },
        {
          "duration": 0.1666659999999922,
          "durationTicks": 240,
          "midi": 38,
          "name": "D2",
          "ticks": 140400,
          "time": 97.83294400000001,
          "velocity": 0.7874015748031497
        },
        {
          "duration": 0.16666600000000642,
          "durationTicks": 240,
          "midi": 69,
          "name": "A4",
          "ticks": 140640,
          "time": 97.99961,
          "velocity": 0.7874015748031497
        },
        {
          "duration": 0.16666600000000642,
          "durationTicks": 240,
          "midi": 50,
          "name": "D3",
          "ticks": 140640,
          "time": 97.99961,
          "velocity": 0.7874015748031497
        },
        {
          "duration": 0.0833329999999961,
          "durationTicks": 120,
          "midi": 67,
          "name": "G4",
          "ticks": 140880,
          "time": 98.16627600000001,
          "velocity": 0.7874015748031497
        },
        {
          "duration": 0.1666659999999922,
          "durationTicks": 240,
          "midi": 38,
          "name": "D2",
          "ticks": 140880,
          "time": 98.16627600000001,
          "velocity": 0.7874015748031497
        },
        {
          "duration": 0.0833329999999961,
          "durationTicks": 120,
          "midi": 69,
          "name": "A4",
          "ticks": 141000,
          "time": 98.249609,
          "velocity": 0.7874015748031497
        },
        {
          "duration": 0.0833329999999961,
          "durationTicks": 120,
          "midi": 67,
          "name": "G4",
          "ticks": 141120,
          "time": 98.332942,
          "velocity": 0.7874015748031497
        },
        {
          "duration": 0.16666600000000642,
          "durationTicks": 240,
          "midi": 50,
          "name": "D3",
          "ticks": 141120,
          "time": 98.332942,
          "velocity": 0.7874015748031497
        },
        {
          "duration": 0.08333300000001032,
          "durationTicks": 120,
          "midi": 69,
          "name": "A4",
          "ticks": 141240,
          "time": 98.416275,
          "velocity": 0.7874015748031497
        },
        {
          "duration": 0.1666659999999922,
          "durationTicks": 240,
          "midi": 72,
          "name": "C5",
          "ticks": 141360,
          "time": 98.49960800000001,
          "velocity": 0.7874015748031497
        },
        {
          "duration": 0.1666659999999922,
          "durationTicks": 240,
          "midi": 38,
          "name": "D2",
          "ticks": 141360,
          "time": 98.49960800000001,
          "velocity": 0.7874015748031497
        },
        {
          "duration": 0.16666600000000642,
          "durationTicks": 240,
          "midi": 69,
          "name": "A4",
          "ticks": 141600,
          "time": 98.666274,
          "velocity": 0.7874015748031497
        },
        {
          "duration": 0.16666600000000642,
          "durationTicks": 240,
          "midi": 50,
          "name": "D3",
          "ticks": 141600,
          "time": 98.666274,
          "velocity": 0.7874015748031497
        },
        {
          "duration": 0.1666659999999922,
          "durationTicks": 240,
          "midi": 67,
          "name": "G4",
          "ticks": 141840,
          "time": 98.83294000000001,
          "velocity": 0.7874015748031497
        },
        {
          "duration": 0.1666659999999922,
          "durationTicks": 240,
          "midi": 36,
          "name": "C2",
          "ticks": 141840,
          "time": 98.83294000000001,
          "velocity": 0.7874015748031497
        },
        {
          "duration": 0.16666600000000642,
          "durationTicks": 240,
          "midi": 69,
          "name": "A4",
          "ticks": 142080,
          "time": 98.999606,
          "velocity": 0.7874015748031497
        },
        {
          "duration": 0.16666600000000642,
          "durationTicks": 240,
          "midi": 48,
          "name": "C3",
          "ticks": 142080,
          "time": 98.999606,
          "velocity": 0.7874015748031497
        },
        {
          "duration": 0.1666659999999922,
          "durationTicks": 240,
          "midi": 57,
          "name": "A3",
          "ticks": 142320,
          "time": 99.166272,
          "velocity": 0.7874015748031497
        },
        {
          "duration": 0.1666659999999922,
          "durationTicks": 240,
          "midi": 34,
          "name": "A#1",
          "ticks": 142320,
          "time": 99.166272,
          "velocity": 0.7874015748031497
        },
        {
          "duration": 0.16666600000000642,
          "durationTicks": 240,
          "midi": 65,
          "name": "F4",
          "ticks": 142560,
          "time": 99.332938,
          "velocity": 0.7874015748031497
        },
        {
          "duration": 0.16666600000000642,
          "durationTicks": 240,
          "midi": 46,
          "name": "A#2",
          "ticks": 142560,
          "time": 99.332938,
          "velocity": 0.7874015748031497
        },
        {
          "duration": 0.0833329999999961,
          "durationTicks": 120,
          "midi": 64,
          "name": "E4",
          "ticks": 142800,
          "time": 99.499604,
          "velocity": 0.7874015748031497
        },
        {
          "duration": 0.16666600000000642,
          "durationTicks": 240,
          "midi": 34,
          "name": "A#1",
          "ticks": 142800,
          "time": 99.499604,
          "velocity": 0.7874015748031497
        },
        {
          "duration": 0.08333300000001032,
          "durationTicks": 120,
          "midi": 65,
          "name": "F4",
          "ticks": 142920,
          "time": 99.582937,
          "velocity": 0.7874015748031497
        },
        {
          "duration": 0.1666659999999922,
          "durationTicks": 240,
          "midi": 64,
          "name": "E4",
          "ticks": 143040,
          "time": 99.66627000000001,
          "velocity": 0.7874015748031497
        },
        {
          "duration": 0.1666659999999922,
          "durationTicks": 240,
          "midi": 46,
          "name": "A#2",
          "ticks": 143040,
          "time": 99.66627000000001,
          "velocity": 0.7874015748031497
        },
        {
          "duration": 0.16666600000000642,
          "durationTicks": 240,
          "midi": 67,
          "name": "G4",
          "ticks": 143280,
          "time": 99.832936,
          "velocity": 0.7874015748031497
        },
        {
          "duration": 0.16666600000000642,
          "durationTicks": 240,
          "midi": 36,
          "name": "C2",
          "ticks": 143280,
          "time": 99.832936,
          "velocity": 0.7874015748031497
        },
        {
          "duration": 0.1666659999999922,
          "durationTicks": 240,
          "midi": 65,
          "name": "F4",
          "ticks": 143520,
          "time": 99.99960200000001,
          "velocity": 0.7874015748031497
        },
        {
          "duration": 0.1666659999999922,
          "durationTicks": 240,
          "midi": 48,
          "name": "C3",
          "ticks": 143520,
          "time": 99.99960200000001,
          "velocity": 0.7874015748031497
        },
        {
          "duration": 0.0833329999999961,
          "durationTicks": 120,
          "midi": 64,
          "name": "E4",
          "ticks": 143760,
          "time": 100.166268,
          "velocity": 0.7874015748031497
        },
        {
          "duration": 0.16666600000000642,
          "durationTicks": 240,
          "midi": 36,
          "name": "C2",
          "ticks": 143760,
          "time": 100.166268,
          "velocity": 0.7874015748031497
        },
        {
          "duration": 0.08333300000001032,
          "durationTicks": 120,
          "midi": 65,
          "name": "F4",
          "ticks": 143880,
          "time": 100.249601,
          "velocity": 0.7874015748031497
        },
        {
          "duration": 0.0833329999999961,
          "durationTicks": 120,
          "midi": 64,
          "name": "E4",
          "ticks": 144000,
          "time": 100.33293400000001,
          "velocity": 0.7874015748031497
        },
        {
          "duration": 0.1666659999999922,
          "durationTicks": 240,
          "midi": 48,
          "name": "C3",
          "ticks": 144000,
          "time": 100.33293400000001,
          "velocity": 0.7874015748031497
        },
        {
          "duration": 0.0833329999999961,
          "durationTicks": 120,
          "midi": 60,
          "name": "C4",
          "ticks": 144120,
          "time": 100.416267,
          "velocity": 0.7874015748031497
        },
        {
          "duration": 0.16666600000000642,
          "durationTicks": 240,
          "midi": 62,
          "name": "D4",
          "ticks": 144240,
          "time": 100.4996,
          "velocity": 0.7874015748031497
        },
        {
          "duration": 0.16666600000000642,
          "durationTicks": 240,
          "midi": 38,
          "name": "D2",
          "ticks": 144240,
          "time": 100.4996,
          "velocity": 0.7874015748031497
        },
        {
          "duration": 0.1666659999999922,
          "durationTicks": 240,
          "midi": 69,
          "name": "A4",
          "ticks": 144480,
          "time": 100.66626600000001,
          "velocity": 0.7874015748031497
        },
        {
          "duration": 0.1666659999999922,
          "durationTicks": 240,
          "midi": 50,
          "name": "D3",
          "ticks": 144480,
          "time": 100.66626600000001,
          "velocity": 0.7874015748031497
        },
        {
          "duration": 0.08333300000001032,
          "durationTicks": 120,
          "midi": 67,
          "name": "G4",
          "ticks": 144720,
          "time": 100.832932,
          "velocity": 0.7874015748031497
        },
        {
          "duration": 0.16666600000000642,
          "durationTicks": 240,
          "midi": 40,
          "name": "E2",
          "ticks": 144720,
          "time": 100.832932,
          "velocity": 0.7874015748031497
        },
        {
          "duration": 0.0833329999999961,
          "durationTicks": 120,
          "midi": 69,
          "name": "A4",
          "ticks": 144840,
          "time": 100.91626500000001,
          "velocity": 0.7874015748031497
        },
        {
          "duration": 0.0833329999999961,
          "durationTicks": 120,
          "midi": 67,
          "name": "G4",
          "ticks": 144960,
          "time": 100.999598,
          "velocity": 0.7874015748031497
        },
        {
          "duration": 0.1666659999999922,
          "durationTicks": 240,
          "midi": 52,
          "name": "E3",
          "ticks": 144960,
          "time": 100.999598,
          "velocity": 0.7874015748031497
        },
        {
          "duration": 0.0833329999999961,
          "durationTicks": 120,
          "midi": 69,
          "name": "A4",
          "ticks": 145080,
          "time": 101.082931,
          "velocity": 0.7874015748031497
        },
        {
          "duration": 0.16666600000000642,
          "durationTicks": 240,
          "midi": 73,
          "name": "C#5",
          "ticks": 145200,
          "time": 101.166264,
          "velocity": 0.7874015748031497
        },
        {
          "duration": 0.16666600000000642,
          "durationTicks": 240,
          "midi": 41,
          "name": "F2",
          "ticks": 145200,
          "time": 101.166264,
          "velocity": 0.7874015748031497
        },
        {
          "duration": 0.16666600000000642,
          "durationTicks": 240,
          "midi": 69,
          "name": "A4",
          "ticks": 145440,
          "time": 101.33293,
          "velocity": 0.7874015748031497
        },
        {
          "duration": 0.16666600000000642,
          "durationTicks": 240,
          "midi": 53,
          "name": "F3",
          "ticks": 145440,
          "time": 101.33293,
          "velocity": 0.7874015748031497
        },
        {
          "duration": 0.1666659999999922,
          "durationTicks": 240,
          "midi": 67,
          "name": "G4",
          "ticks": 145680,
          "time": 101.49959600000001,
          "velocity": 0.7874015748031497
        },
        {
          "duration": 0.1666659999999922,
          "durationTicks": 240,
          "midi": 43,
          "name": "G2",
          "ticks": 145680,
          "time": 101.49959600000001,
          "velocity": 0.7874015748031497
        },
        {
          "duration": 0.16666600000000642,
          "durationTicks": 240,
          "midi": 69,
          "name": "A4",
          "ticks": 145920,
          "time": 101.666262,
          "velocity": 0.7874015748031497
        },
        {
          "duration": 0.16666600000000642,
          "durationTicks": 240,
          "midi": 55,
          "name": "G3",
          "ticks": 145920,
          "time": 101.666262,
          "velocity": 0.7874015748031497
        },
        {
          "duration": 0.1666659999999922,
          "durationTicks": 240,
          "midi": 57,
          "name": "A3",
          "ticks": 146160,
          "time": 101.83292800000001,
          "velocity": 0.7874015748031497
        },
        {
          "duration": 0.1666659999999922,
          "durationTicks": 240,
          "midi": 34,
          "name": "A#1",
          "ticks": 146160,
          "time": 101.83292800000001,
          "velocity": 0.7874015748031497
        },
        {
          "duration": 0.16666600000000642,
          "durationTicks": 240,
          "midi": 65,
          "name": "F4",
          "ticks": 146400,
          "time": 101.999594,
          "velocity": 0.7874015748031497
        },
        {
          "duration": 0.16666600000000642,
          "durationTicks": 240,
          "midi": 46,
          "name": "A#2",
          "ticks": 146400,
          "time": 101.999594,
          "velocity": 0.7874015748031497
        },
        {
          "duration": 0.0833329999999961,
          "durationTicks": 120,
          "midi": 64,
          "name": "E4",
          "ticks": 146640,
          "time": 102.16626000000001,
          "velocity": 0.7874015748031497
        },
        {
          "duration": 0.1666659999999922,
          "durationTicks": 240,
          "midi": 34,
          "name": "A#1",
          "ticks": 146640,
          "time": 102.16626000000001,
          "velocity": 0.7874015748031497
        },
        {
          "duration": 0.0833329999999961,
          "durationTicks": 120,
          "midi": 65,
          "name": "F4",
          "ticks": 146760,
          "time": 102.249593,
          "velocity": 0.7874015748031497
        },
        {
          "duration": 0.16666600000000642,
          "durationTicks": 240,
          "midi": 64,
          "name": "E4",
          "ticks": 146880,
          "time": 102.332926,
          "velocity": 0.7874015748031497
        },
        {
          "duration": 0.16666600000000642,
          "durationTicks": 240,
          "midi": 46,
          "name": "A#2",
          "ticks": 146880,
          "time": 102.332926,
          "velocity": 0.7874015748031497
        },
        {
          "duration": 0.1666659999999922,
          "durationTicks": 240,
          "midi": 67,
          "name": "G4",
          "ticks": 147120,
          "time": 102.499592,
          "velocity": 0.7874015748031497
        },
        {
          "duration": 0.1666659999999922,
          "durationTicks": 240,
          "midi": 36,
          "name": "C2",
          "ticks": 147120,
          "time": 102.499592,
          "velocity": 0.7874015748031497
        },
        {
          "duration": 0.16666600000000642,
          "durationTicks": 240,
          "midi": 65,
          "name": "F4",
          "ticks": 147360,
          "time": 102.666258,
          "velocity": 0.7874015748031497
        },
        {
          "duration": 0.16666600000000642,
          "durationTicks": 240,
          "midi": 48,
          "name": "C3",
          "ticks": 147360,
          "time": 102.666258,
          "velocity": 0.7874015748031497
        },
        {
          "duration": 0.0833329999999961,
          "durationTicks": 120,
          "midi": 64,
          "name": "E4",
          "ticks": 147600,
          "time": 102.832924,
          "velocity": 0.7874015748031497
        },
        {
          "duration": 0.16666600000000642,
          "durationTicks": 240,
          "midi": 36,
          "name": "C2",
          "ticks": 147600,
          "time": 102.832924,
          "velocity": 0.7874015748031497
        },
        {
          "duration": 0.08333300000001032,
          "durationTicks": 120,
          "midi": 65,
          "name": "F4",
          "ticks": 147720,
          "time": 102.916257,
          "velocity": 0.7874015748031497
        },
        {
          "duration": 0.0833329999999961,
          "durationTicks": 120,
          "midi": 64,
          "name": "E4",
          "ticks": 147840,
          "time": 102.99959000000001,
          "velocity": 0.7874015748031497
        },
        {
          "duration": 0.1666659999999922,
          "durationTicks": 240,
          "midi": 48,
          "name": "C3",
          "ticks": 147840,
          "time": 102.99959000000001,
          "velocity": 0.7874015748031497
        },
        {
          "duration": 0.0833329999999961,
          "durationTicks": 120,
          "midi": 60,
          "name": "C4",
          "ticks": 147960,
          "time": 103.08292300000001,
          "velocity": 0.7874015748031497
        },
        {
          "duration": 0.16666600000000642,
          "durationTicks": 240,
          "midi": 62,
          "name": "D4",
          "ticks": 148080,
          "time": 103.166256,
          "velocity": 0.7874015748031497
        },
        {
          "duration": 0.16666600000000642,
          "durationTicks": 240,
          "midi": 38,
          "name": "D2",
          "ticks": 148080,
          "time": 103.166256,
          "velocity": 0.7874015748031497
        },
        {
          "duration": 0.1666659999999922,
          "durationTicks": 240,
          "midi": 69,
          "name": "A4",
          "ticks": 148320,
          "time": 103.33292200000001,
          "velocity": 0.7874015748031497
        },
        {
          "duration": 0.1666659999999922,
          "durationTicks": 240,
          "midi": 50,
          "name": "D3",
          "ticks": 148320,
          "time": 103.33292200000001,
          "velocity": 0.7874015748031497
        },
        {
          "duration": 0.0833329999999961,
          "durationTicks": 120,
          "midi": 67,
          "name": "G4",
          "ticks": 148560,
          "time": 103.499588,
          "velocity": 0.7874015748031497
        },
        {
          "duration": 0.16666600000000642,
          "durationTicks": 240,
          "midi": 38,
          "name": "D2",
          "ticks": 148560,
          "time": 103.499588,
          "velocity": 0.7874015748031497
        },
        {
          "duration": 0.08333300000001032,
          "durationTicks": 120,
          "midi": 69,
          "name": "A4",
          "ticks": 148680,
          "time": 103.582921,
          "velocity": 0.7874015748031497
        },
        {
          "duration": 0.0833329999999961,
          "durationTicks": 120,
          "midi": 67,
          "name": "G4",
          "ticks": 148800,
          "time": 103.66625400000001,
          "velocity": 0.7874015748031497
        },
        {
          "duration": 0.1666659999999922,
          "durationTicks": 240,
          "midi": 50,
          "name": "D3",
          "ticks": 148800,
          "time": 103.66625400000001,
          "velocity": 0.7874015748031497
        },
        {
          "duration": 0.0833329999999961,
          "durationTicks": 120,
          "midi": 69,
          "name": "A4",
          "ticks": 148920,
          "time": 103.749587,
          "velocity": 0.7874015748031497
        },
        {
          "duration": 0.16666600000000642,
          "durationTicks": 240,
          "midi": 72,
          "name": "C5",
          "ticks": 149040,
          "time": 103.83292,
          "velocity": 0.7874015748031497
        },
        {
          "duration": 0.16666600000000642,
          "durationTicks": 240,
          "midi": 38,
          "name": "D2",
          "ticks": 149040,
          "time": 103.83292,
          "velocity": 0.7874015748031497
        },
        {
          "duration": 0.1666659999999922,
          "durationTicks": 240,
          "midi": 69,
          "name": "A4",
          "ticks": 149280,
          "time": 103.99958600000001,
          "velocity": 0.7874015748031497
        },
        {
          "duration": 0.1666659999999922,
          "durationTicks": 240,
          "midi": 50,
          "name": "D3",
          "ticks": 149280,
          "time": 103.99958600000001,
          "velocity": 0.7874015748031497
        },
        {
          "duration": 0.16666600000000642,
          "durationTicks": 240,
          "midi": 65,
          "name": "F4",
          "ticks": 149520,
          "time": 104.166252,
          "velocity": 0.7874015748031497
        },
        {
          "duration": 0.16666600000000642,
          "durationTicks": 240,
          "midi": 36,
          "name": "C2",
          "ticks": 149520,
          "time": 104.166252,
          "velocity": 0.7874015748031497
        },
        {
          "duration": 0.1666659999999922,
          "durationTicks": 240,
          "midi": 66,
          "name": "F#4",
          "ticks": 149760,
          "time": 104.332918,
          "velocity": 0.7874015748031497
        },
        {
          "duration": 0.1666659999999922,
          "durationTicks": 240,
          "midi": 48,
          "name": "C3",
          "ticks": 149760,
          "time": 104.332918,
          "velocity": 0.7874015748031497
        },
        {
          "duration": 0.16666600000000642,
          "durationTicks": 240,
          "midi": 67,
          "name": "G4",
          "ticks": 150000,
          "time": 104.499584,
          "velocity": 0.7874015748031497
        },
        {
          "duration": 0.16666600000000642,
          "durationTicks": 240,
          "midi": 31,
          "name": "G1",
          "ticks": 150000,
          "time": 104.499584,
          "velocity": 0.7874015748031497
        },
        {
          "duration": 0.0833329999999961,
          "durationTicks": 120,
          "midi": 58,
          "name": "A#3",
          "ticks": 150240,
          "time": 104.66625,
          "velocity": 0.7874015748031497
        },
        {
          "duration": 0.16666600000000642,
          "durationTicks": 240,
          "midi": 43,
          "name": "G2",
          "ticks": 150240,
          "time": 104.66625,
          "velocity": 0.7874015748031497
        },
        {
          "duration": 0.08333300000001032,
          "durationTicks": 120,
          "midi": 67,
          "name": "G4",
          "ticks": 150360,
          "time": 104.749583,
          "velocity": 0.7874015748031497
        },
        {
          "duration": 0.1666659999999922,
          "durationTicks": 240,
          "midi": 58,
          "name": "A#3",
          "ticks": 150480,
          "time": 104.83291600000001,
          "velocity": 0.7874015748031497
        },
        {
          "duration": 0.1666659999999922,
          "durationTicks": 240,
          "midi": 31,
          "name": "G1",
          "ticks": 150480,
          "time": 104.83291600000001,
          "velocity": 0.7874015748031497
        },
        {
          "duration": 0.16666600000000642,
          "durationTicks": 240,
          "midi": 67,
          "name": "G4",
          "ticks": 150720,
          "time": 104.999582,
          "velocity": 0.7874015748031497
        },
        {
          "duration": 0.16666600000000642,
          "durationTicks": 240,
          "midi": 43,
          "name": "G2",
          "ticks": 150720,
          "time": 104.999582,
          "velocity": 0.7874015748031497
        },
        {
          "duration": 0.1666659999999922,
          "durationTicks": 240,
          "midi": 69,
          "name": "A4",
          "ticks": 150960,
          "time": 105.16624800000001,
          "velocity": 0.7874015748031497
        },
        {
          "duration": 0.1666659999999922,
          "durationTicks": 240,
          "midi": 33,
          "name": "A1",
          "ticks": 150960,
          "time": 105.16624800000001,
          "velocity": 0.7874015748031497
        },
        {
          "duration": 0.16666600000000642,
          "durationTicks": 240,
          "midi": 67,
          "name": "G4",
          "ticks": 151200,
          "time": 105.332914,
          "velocity": 0.7874015748031497
        },
        {
          "duration": 0.16666600000000642,
          "durationTicks": 240,
          "midi": 45,
          "name": "A2",
          "ticks": 151200,
          "time": 105.332914,
          "velocity": 0.7874015748031497
        },
        {
          "duration": 0.1666659999999922,
          "durationTicks": 240,
          "midi": 65,
          "name": "F4",
          "ticks": 151440,
          "time": 105.49958000000001,
          "velocity": 0.7874015748031497
        },
        {
          "duration": 0.1666659999999922,
          "durationTicks": 240,
          "midi": 33,
          "name": "A1",
          "ticks": 151440,
          "time": 105.49958000000001,
          "velocity": 0.7874015748031497
        },
        {
          "duration": 0.16666600000000642,
          "durationTicks": 240,
          "midi": 64,
          "name": "E4",
          "ticks": 151680,
          "time": 105.666246,
          "velocity": 0.7874015748031497
        },
        {
          "duration": 0.16666600000000642,
          "durationTicks": 240,
          "midi": 45,
          "name": "A2",
          "ticks": 151680,
          "time": 105.666246,
          "velocity": 0.7874015748031497
        },
        {
          "duration": 1.3333279999999945,
          "durationTicks": 1920,
          "midi": 62,
          "name": "D4",
          "ticks": 151920,
          "time": 105.83291200000001,
          "velocity": 0.7874015748031497
        },
        {
          "duration": 0.1666659999999922,
          "durationTicks": 240,
          "midi": 38,
          "name": "D2",
          "ticks": 151920,
          "time": 105.83291200000001,
          "velocity": 0.7874015748031497
        },
        {
          "duration": 0.16666600000000642,
          "durationTicks": 240,
          "midi": 50,
          "name": "D3",
          "ticks": 152160,
          "time": 105.999578,
          "velocity": 0.7874015748031497
        },
        {
          "duration": 0.16666600000000642,
          "durationTicks": 240,
          "midi": 40,
          "name": "E2",
          "ticks": 152400,
          "time": 106.166244,
          "velocity": 0.7874015748031497
        },
        {
          "duration": 0.1666659999999922,
          "durationTicks": 240,
          "midi": 52,
          "name": "E3",
          "ticks": 152640,
          "time": 106.33291000000001,
          "velocity": 0.7874015748031497
        },
        {
          "duration": 0.16666600000000642,
          "durationTicks": 240,
          "midi": 41,
          "name": "F2",
          "ticks": 152880,
          "time": 106.499576,
          "velocity": 0.7874015748031497
        },
        {
          "duration": 0.1666659999999922,
          "durationTicks": 240,
          "midi": 53,
          "name": "F3",
          "ticks": 153120,
          "time": 106.66624200000001,
          "velocity": 0.7874015748031497
        },
        {
          "duration": 0.16666600000000642,
          "durationTicks": 240,
          "midi": 43,
          "name": "G2",
          "ticks": 153360,
          "time": 106.832908,
          "velocity": 0.7874015748031497
        },
        {
          "duration": 0.1666659999999922,
          "durationTicks": 240,
          "midi": 55,
          "name": "G3",
          "ticks": 153600,
          "time": 106.99957400000001,
          "velocity": 0.7874015748031497
        },
        {
          "duration": 0.16666600000000642,
          "durationTicks": 240,
          "midi": 50,
          "name": "D3",
          "ticks": 153840,
          "time": 107.16624,
          "velocity": 0.7874015748031497
        },
        {
          "duration": 0.16666600000000642,
          "durationTicks": 240,
          "midi": 26,
          "name": "D1",
          "ticks": 153840,
          "time": 107.16624,
          "velocity": 0.7874015748031497
        },
        {
          "duration": 0.1666659999999922,
          "durationTicks": 240,
          "midi": 57,
          "name": "A3",
          "ticks": 154080,
          "time": 107.33290600000001,
          "velocity": 0.7874015748031497
        },
        {
          "duration": 0.1666659999999922,
          "durationTicks": 240,
          "midi": 38,
          "name": "D2",
          "ticks": 154080,
          "time": 107.33290600000001,
          "velocity": 0.7874015748031497
        },
        {
          "duration": 0.08333300000001032,
          "durationTicks": 120,
          "midi": 55,
          "name": "G3",
          "ticks": 154320,
          "time": 107.499572,
          "velocity": 0.7874015748031497
        },
        {
          "duration": 0.16666600000000642,
          "durationTicks": 240,
          "midi": 26,
          "name": "D1",
          "ticks": 154320,
          "time": 107.499572,
          "velocity": 0.7874015748031497
        },
        {
          "duration": 0.1666659999999922,
          "durationTicks": 240,
          "midi": 57,
          "name": "A3",
          "ticks": 154440,
          "time": 107.58290500000001,
          "velocity": 0.7874015748031497
        },
        {
          "duration": 0.1666659999999922,
          "durationTicks": 240,
          "midi": 38,
          "name": "D2",
          "ticks": 154560,
          "time": 107.666238,
          "velocity": 0.7874015748031497
        },
        {
          "duration": 0.16666600000000642,
          "durationTicks": 240,
          "midi": 52,
          "name": "E3",
          "ticks": 154680,
          "time": 107.749571,
          "velocity": 0.7874015748031497
        },
        {
          "duration": 0.16666600000000642,
          "durationTicks": 240,
          "midi": 26,
          "name": "D1",
          "ticks": 154800,
          "time": 107.832904,
          "velocity": 0.7874015748031497
        },
        {
          "duration": 0.1666659999999922,
          "durationTicks": 240,
          "midi": 53,
          "name": "F3",
          "ticks": 154920,
          "time": 107.91623700000001,
          "velocity": 0.7874015748031497
        },
        {
          "duration": 0.16666600000000642,
          "durationTicks": 240,
          "midi": 38,
          "name": "D2",
          "ticks": 155040,
          "time": 107.99957,
          "velocity": 0.7874015748031497
        },
        {
          "duration": 0.08333300000001032,
          "durationTicks": 120,
          "midi": 57,
          "name": "A3",
          "ticks": 155160,
          "time": 108.082903,
          "velocity": 0.7874015748031497
        },
        {
          "duration": 0.0833329999999961,
          "durationTicks": 120,
          "midi": 55,
          "name": "G3",
          "ticks": 155280,
          "time": 108.16623600000001,
          "velocity": 0.7874015748031497
        },
        {
          "duration": 0.1666659999999922,
          "durationTicks": 240,
          "midi": 26,
          "name": "D1",
          "ticks": 155280,
          "time": 108.16623600000001,
          "velocity": 0.7874015748031497
        },
        {
          "duration": 0.0833329999999961,
          "durationTicks": 120,
          "midi": 53,
          "name": "F3",
          "ticks": 155400,
          "time": 108.24956900000001,
          "velocity": 0.7874015748031497
        },
        {
          "duration": 0.0833329999999961,
          "durationTicks": 120,
          "midi": 52,
          "name": "E3",
          "ticks": 155520,
          "time": 108.332902,
          "velocity": 0.7874015748031497
        },
        {
          "duration": 0.16666600000000642,
          "durationTicks": 240,
          "midi": 38,
          "name": "D2",
          "ticks": 155520,
          "time": 108.332902,
          "velocity": 0.7874015748031497
        },
        {
          "duration": 0.16666600000000642,
          "durationTicks": 240,
          "midi": 50,
          "name": "D3",
          "ticks": 155640,
          "time": 108.416235,
          "velocity": 0.7874015748031497
        },
        {
          "duration": 0.1666659999999922,
          "durationTicks": 240,
          "midi": 26,
          "name": "D1",
          "ticks": 155760,
          "time": 108.49956800000001,
          "velocity": 0.7874015748031497
        },
        {
          "duration": 0.0833329999999961,
          "durationTicks": 120,
          "midi": 50,
          "name": "D3",
          "ticks": 155880,
          "time": 108.582901,
          "velocity": 0.7874015748031497
        },
        {
          "duration": 0.16666600000000642,
          "durationTicks": 240,
          "midi": 57,
          "name": "A3",
          "ticks": 156000,
          "time": 108.666234,
          "velocity": 0.7874015748031497
        },
        {
          "duration": 0.16666600000000642,
          "durationTicks": 240,
          "midi": 38,
          "name": "D2",
          "ticks": 156000,
          "time": 108.666234,
          "velocity": 0.7874015748031497
        },
        {
          "duration": 0.0833329999999961,
          "durationTicks": 120,
          "midi": 55,
          "name": "G3",
          "ticks": 156240,
          "time": 108.83290000000001,
          "velocity": 0.7874015748031497
        },
        {
          "duration": 0.1666659999999922,
          "durationTicks": 240,
          "midi": 26,
          "name": "D1",
          "ticks": 156240,
          "time": 108.83290000000001,
          "velocity": 0.7874015748031497
        },
        {
          "duration": 0.16666600000000642,
          "durationTicks": 240,
          "midi": 57,
          "name": "A3",
          "ticks": 156360,
          "time": 108.916233,
          "velocity": 0.7874015748031497
        },
        {
          "duration": 0.16666600000000642,
          "durationTicks": 240,
          "midi": 38,
          "name": "D2",
          "ticks": 156480,
          "time": 108.999566,
          "velocity": 0.7874015748031497
        },
        {
          "duration": 0.1666659999999922,
          "durationTicks": 240,
          "midi": 52,
          "name": "E3",
          "ticks": 156600,
          "time": 109.08289900000001,
          "velocity": 0.7874015748031497
        },
        {
          "duration": 0.1666659999999922,
          "durationTicks": 240,
          "midi": 26,
          "name": "D1",
          "ticks": 156720,
          "time": 109.16623200000001,
          "velocity": 0.7874015748031497
        },
        {
          "duration": 0.16666600000000642,
          "durationTicks": 240,
          "midi": 53,
          "name": "F3",
          "ticks": 156840,
          "time": 109.249565,
          "velocity": 0.7874015748031497
        },
        {
          "duration": 0.16666600000000642,
          "durationTicks": 240,
          "midi": 38,
          "name": "D2",
          "ticks": 156960,
          "time": 109.332898,
          "velocity": 0.7874015748031497
        },
        {
          "duration": 0.1666659999999922,
          "durationTicks": 240,
          "midi": 57,
          "name": "A3",
          "ticks": 157080,
          "time": 109.41623100000001,
          "velocity": 0.7874015748031497
        },
        {
          "duration": 0.1666659999999922,
          "durationTicks": 240,
          "midi": 48,
          "name": "C3",
          "ticks": 157200,
          "time": 109.499564,
          "velocity": 0.7874015748031497
        },
        {
          "duration": 0.1666659999999922,
          "durationTicks": 240,
          "midi": 26,
          "name": "D1",
          "ticks": 157200,
          "time": 109.499564,
          "velocity": 0.7874015748031497
        },
        {
          "duration": 0.16666600000000642,
          "durationTicks": 240,
          "midi": 49,
          "name": "C#3",
          "ticks": 157440,
          "time": 109.66623,
          "velocity": 0.7874015748031497
        },
        {
          "duration": 0.16666600000000642,
          "durationTicks": 240,
          "midi": 38,
          "name": "D2",
          "ticks": 157440,
          "time": 109.66623,
          "velocity": 0.7874015748031497
        },
        {
          "duration": 0.16666600000000642,
          "durationTicks": 240,
          "midi": 50,
          "name": "D3",
          "ticks": 157680,
          "time": 109.832896,
          "velocity": 0.7874015748031497
        },
        {
          "duration": 0.16666600000000642,
          "durationTicks": 240,
          "midi": 26,
          "name": "D1",
          "ticks": 157680,
          "time": 109.832896,
          "velocity": 0.7874015748031497
        },
        {
          "duration": 0.1666659999999922,
          "durationTicks": 240,
          "midi": 57,
          "name": "A3",
          "ticks": 157920,
          "time": 109.99956200000001,
          "velocity": 0.7874015748031497
        },
        {
          "duration": 0.1666659999999922,
          "durationTicks": 240,
          "midi": 38,
          "name": "D2",
          "ticks": 157920,
          "time": 109.99956200000001,
          "velocity": 0.7874015748031497
        },
        {
          "duration": 0.0833329999999961,
          "durationTicks": 120,
          "midi": 55,
          "name": "G3",
          "ticks": 158160,
          "time": 110.166228,
          "velocity": 0.7874015748031497
        },
        {
          "duration": 0.16666600000000642,
          "durationTicks": 240,
          "midi": 26,
          "name": "D1",
          "ticks": 158160,
          "time": 110.166228,
          "velocity": 0.7874015748031497
        },
        {
          "duration": 0.16666600000000642,
          "durationTicks": 240,
          "midi": 57,
          "name": "A3",
          "ticks": 158280,
          "time": 110.249561,
          "velocity": 0.7874015748031497
        },
        {
          "duration": 0.1666659999999922,
          "durationTicks": 240,
          "midi": 38,
          "name": "D2",
          "ticks": 158400,
          "time": 110.33289400000001,
          "velocity": 0.7874015748031497
        },
        {
          "duration": 0.16666600000000642,
          "durationTicks": 240,
          "midi": 52,
          "name": "E3",
          "ticks": 158520,
          "time": 110.416227,
          "velocity": 0.7874015748031497
        },
        {
          "duration": 0.16666600000000642,
          "durationTicks": 240,
          "midi": 26,
          "name": "D1",
          "ticks": 158640,
          "time": 110.49956,
          "velocity": 0.7874015748031497
        },
        {
          "duration": 0.1666659999999922,
          "durationTicks": 240,
          "midi": 53,
          "name": "F3",
          "ticks": 158760,
          "time": 110.58289300000001,
          "velocity": 0.7874015748031497
        },
        {
          "duration": 0.1666659999999922,
          "durationTicks": 240,
          "midi": 38,
          "name": "D2",
          "ticks": 158880,
          "time": 110.66622600000001,
          "velocity": 0.7874015748031497
        },
        {
          "duration": 0.0833329999999961,
          "durationTicks": 120,
          "midi": 57,
          "name": "A3",
          "ticks": 159000,
          "time": 110.749559,
          "velocity": 0.7874015748031497
        },
        {
          "duration": 0.08333300000001032,
          "durationTicks": 120,
          "midi": 55,
          "name": "G3",
          "ticks": 159120,
          "time": 110.832892,
          "velocity": 0.7874015748031497
        },
        {
          "duration": 0.16666600000000642,
          "durationTicks": 240,
          "midi": 26,
          "name": "D1",
          "ticks": 159120,
          "time": 110.832892,
          "velocity": 0.7874015748031497
        },
        {
          "duration": 0.0833329999999961,
          "durationTicks": 120,
          "midi": 53,
          "name": "F3",
          "ticks": 159240,
          "time": 110.91622500000001,
          "velocity": 0.7874015748031497
        },
        {
          "duration": 0.0833329999999961,
          "durationTicks": 120,
          "midi": 52,
          "name": "E3",
          "ticks": 159360,
          "time": 110.99955800000001,
          "velocity": 0.7874015748031497
        },
        {
          "duration": 0.1666659999999922,
          "durationTicks": 240,
          "midi": 38,
          "name": "D2",
          "ticks": 159360,
          "time": 110.99955800000001,
          "velocity": 0.7874015748031497
        },
        {
          "duration": 0.16666600000000642,
          "durationTicks": 240,
          "midi": 50,
          "name": "D3",
          "ticks": 159480,
          "time": 111.082891,
          "velocity": 0.7874015748031497
        },
        {
          "duration": 0.16666600000000642,
          "durationTicks": 240,
          "midi": 26,
          "name": "D1",
          "ticks": 159600,
          "time": 111.166224,
          "velocity": 0.7874015748031497
        },
        {
          "duration": 0.0833329999999961,
          "durationTicks": 120,
          "midi": 50,
          "name": "D3",
          "ticks": 159720,
          "time": 111.24955700000001,
          "velocity": 0.7874015748031497
        },
        {
          "duration": 0.16666600000000642,
          "durationTicks": 240,
          "midi": 57,
          "name": "A3",
          "ticks": 159840,
          "time": 111.33289,
          "velocity": 0.7874015748031497
        },
        {
          "duration": 0.16666600000000642,
          "durationTicks": 240,
          "midi": 38,
          "name": "D2",
          "ticks": 159840,
          "time": 111.33289,
          "velocity": 0.7874015748031497
        },
        {
          "duration": 0.0833329999999961,
          "durationTicks": 120,
          "midi": 55,
          "name": "G3",
          "ticks": 160080,
          "time": 111.49955600000001,
          "velocity": 0.7874015748031497
        },
        {
          "duration": 0.1666659999999922,
          "durationTicks": 240,
          "midi": 26,
          "name": "D1",
          "ticks": 160080,
          "time": 111.49955600000001,
          "velocity": 0.7874015748031497
        },
        {
          "duration": 0.1666659999999922,
          "durationTicks": 240,
          "midi": 57,
          "name": "A3",
          "ticks": 160200,
          "time": 111.58288900000001,
          "velocity": 0.7874015748031497
        },
        {
          "duration": 0.16666600000000642,
          "durationTicks": 240,
          "midi": 38,
          "name": "D2",
          "ticks": 160320,
          "time": 111.666222,
          "velocity": 0.7874015748031497
        },
        {
          "duration": 0.16666600000000642,
          "durationTicks": 240,
          "midi": 52,
          "name": "E3",
          "ticks": 160440,
          "time": 111.749555,
          "velocity": 0.7874015748031497
        },
        {
          "duration": 0.1666659999999922,
          "durationTicks": 240,
          "midi": 26,
          "name": "D1",
          "ticks": 160560,
          "time": 111.83288800000001,
          "velocity": 0.7874015748031497
        },
        {
          "duration": 0.1666659999999922,
          "durationTicks": 240,
          "midi": 53,
          "name": "F3",
          "ticks": 160680,
          "time": 111.91622100000001,
          "velocity": 0.7874015748031497
        },
        {
          "duration": 0.16666600000000642,
          "durationTicks": 240,
          "midi": 38,
          "name": "D2",
          "ticks": 160800,
          "time": 111.999554,
          "velocity": 0.7874015748031497
        },
        {
          "duration": 0.16666600000000642,
          "durationTicks": 240,
          "midi": 57,
          "name": "A3",
          "ticks": 160920,
          "time": 112.082887,
          "velocity": 0.7874015748031497
        },
        {
          "duration": 0.1666659999999922,
          "durationTicks": 240,
          "midi": 48,
          "name": "C3",
          "ticks": 161040,
          "time": 112.16622000000001,
          "velocity": 0.7874015748031497
        },
        {
          "duration": 0.1666659999999922,
          "durationTicks": 240,
          "midi": 26,
          "name": "D1",
          "ticks": 161040,
          "time": 112.16622000000001,
          "velocity": 0.7874015748031497
        },
        {
          "duration": 0.16666600000000642,
          "durationTicks": 240,
          "midi": 49,
          "name": "C#3",
          "ticks": 161280,
          "time": 112.332886,
          "velocity": 0.7874015748031497
        },
        {
          "duration": 0.16666600000000642,
          "durationTicks": 240,
          "midi": 38,
          "name": "D2",
          "ticks": 161280,
          "time": 112.332886,
          "velocity": 0.7874015748031497
        },
        {
          "duration": 0.1666659999999922,
          "durationTicks": 240,
          "midi": 50,
          "name": "D3",
          "ticks": 161520,
          "time": 112.49955200000001,
          "velocity": 0.7874015748031497
        },
        {
          "duration": 0.1666659999999922,
          "durationTicks": 240,
          "midi": 26,
          "name": "D1",
          "ticks": 161520,
          "time": 112.49955200000001,
          "velocity": 0.7874015748031497
        },
        {
          "duration": 0.16666600000000642,
          "durationTicks": 240,
          "midi": 57,
          "name": "A3",
          "ticks": 161760,
          "time": 112.666218,
          "velocity": 0.7874015748031497
        },
        {
          "duration": 0.16666600000000642,
          "durationTicks": 240,
          "midi": 38,
          "name": "D2",
          "ticks": 161760,
          "time": 112.666218,
          "velocity": 0.7874015748031497
        },
        {
          "duration": 0.0833329999999961,
          "durationTicks": 120,
          "midi": 55,
          "name": "G3",
          "ticks": 162000,
          "time": 112.832884,
          "velocity": 0.7874015748031497
        },
        {
          "duration": 0.1666659999999922,
          "durationTicks": 240,
          "midi": 26,
          "name": "D1",
          "ticks": 162000,
          "time": 112.832884,
          "velocity": 0.7874015748031497
        },
        {
          "duration": 0.16666600000000642,
          "durationTicks": 240,
          "midi": 57,
          "name": "A3",
          "ticks": 162120,
          "time": 112.916217,
          "velocity": 0.7874015748031497
        },
        {
          "duration": 0.16666600000000642,
          "durationTicks": 240,
          "midi": 38,
          "name": "D2",
          "ticks": 162240,
          "time": 112.99955,
          "velocity": 0.7874015748031497
        },
        {
          "duration": 0.1666659999999922,
          "durationTicks": 240,
          "midi": 52,
          "name": "E3",
          "ticks": 162360,
          "time": 113.08288300000001,
          "velocity": 0.7874015748031497
        },
        {
          "duration": 0.16666600000000642,
          "durationTicks": 240,
          "midi": 26,
          "name": "D1",
          "ticks": 162480,
          "time": 113.166216,
          "velocity": 0.7874015748031497
        },
        {
          "duration": 0.16666600000000642,
          "durationTicks": 240,
          "midi": 53,
          "name": "F3",
          "ticks": 162600,
          "time": 113.249549,
          "velocity": 0.7874015748031497
        },
        {
          "duration": 0.1666659999999922,
          "durationTicks": 240,
          "midi": 38,
          "name": "D2",
          "ticks": 162720,
          "time": 113.33288200000001,
          "velocity": 0.7874015748031497
        },
        {
          "duration": 0.0833329999999961,
          "durationTicks": 120,
          "midi": 57,
          "name": "A3",
          "ticks": 162840,
          "time": 113.41621500000001,
          "velocity": 0.7874015748031497
        },
        {
          "duration": 0.0833329999999961,
          "durationTicks": 120,
          "midi": 55,
          "name": "G3",
          "ticks": 162960,
          "time": 113.499548,
          "velocity": 0.7874015748031497
        },
        {
          "duration": 0.16666600000000642,
          "durationTicks": 240,
          "midi": 26,
          "name": "D1",
          "ticks": 162960,
          "time": 113.499548,
          "velocity": 0.7874015748031497
        },
        {
          "duration": 0.08333300000001032,
          "durationTicks": 120,
          "midi": 53,
          "name": "F3",
          "ticks": 163080,
          "time": 113.582881,
          "velocity": 0.7874015748031497
        },
        {
          "duration": 0.0833329999999961,
          "durationTicks": 120,
          "midi": 52,
          "name": "E3",
          "ticks": 163200,
          "time": 113.66621400000001,
          "velocity": 0.7874015748031497
        },
        {
          "duration": 0.1666659999999922,
          "durationTicks": 240,
          "midi": 38,
          "name": "D2",
          "ticks": 163200,
          "time": 113.66621400000001,
          "velocity": 0.7874015748031497
        },
        {
          "duration": 0.1666659999999922,
          "durationTicks": 240,
          "midi": 50,
          "name": "D3",
          "ticks": 163320,
          "time": 113.749547,
          "velocity": 0.7874015748031497
        },
        {
          "duration": 0.16666600000000642,
          "durationTicks": 240,
          "midi": 26,
          "name": "D1",
          "ticks": 163440,
          "time": 113.83288,
          "velocity": 0.7874015748031497
        },
        {
          "duration": 0.08333300000001032,
          "durationTicks": 120,
          "midi": 50,
          "name": "D3",
          "ticks": 163560,
          "time": 113.916213,
          "velocity": 0.7874015748031497
        },
        {
          "duration": 0.1666659999999922,
          "durationTicks": 240,
          "midi": 57,
          "name": "A3",
          "ticks": 163680,
          "time": 113.99954600000001,
          "velocity": 0.7874015748031497
        },
        {
          "duration": 0.1666659999999922,
          "durationTicks": 240,
          "midi": 38,
          "name": "D2",
          "ticks": 163680,
          "time": 113.99954600000001,
          "velocity": 0.7874015748031497
        },
        {
          "duration": 0.08333300000001032,
          "durationTicks": 120,
          "midi": 55,
          "name": "G3",
          "ticks": 163920,
          "time": 114.166212,
          "velocity": 0.7874015748031497
        },
        {
          "duration": 0.16666600000000642,
          "durationTicks": 240,
          "midi": 26,
          "name": "D1",
          "ticks": 163920,
          "time": 114.166212,
          "velocity": 0.7874015748031497
        },
        {
          "duration": 0.1666659999999922,
          "durationTicks": 240,
          "midi": 57,
          "name": "A3",
          "ticks": 164040,
          "time": 114.24954500000001,
          "velocity": 0.7874015748031497
        },
        {
          "duration": 0.1666659999999922,
          "durationTicks": 240,
          "midi": 38,
          "name": "D2",
          "ticks": 164160,
          "time": 114.33287800000001,
          "velocity": 0.7874015748031497
        },
        {
          "duration": 0.16666600000000642,
          "durationTicks": 240,
          "midi": 52,
          "name": "E3",
          "ticks": 164280,
          "time": 114.416211,
          "velocity": 0.7874015748031497
        },
        {
          "duration": 0.16666600000000642,
          "durationTicks": 240,
          "midi": 26,
          "name": "D1",
          "ticks": 164400,
          "time": 114.499544,
          "velocity": 0.7874015748031497
        },
        {
          "duration": 0.1666659999999922,
          "durationTicks": 240,
          "midi": 53,
          "name": "F3",
          "ticks": 164520,
          "time": 114.58287700000001,
          "velocity": 0.7874015748031497
        },
        {
          "duration": 0.1666659999999922,
          "durationTicks": 240,
          "midi": 38,
          "name": "D2",
          "ticks": 164640,
          "time": 114.66621,
          "velocity": 0.7874015748031497
        },
        {
          "duration": 0.16666600000000642,
          "durationTicks": 240,
          "midi": 57,
          "name": "A3",
          "ticks": 164760,
          "time": 114.749543,
          "velocity": 0.7874015748031497
        },
        {
          "duration": 0.16666600000000642,
          "durationTicks": 240,
          "midi": 48,
          "name": "C3",
          "ticks": 164880,
          "time": 114.832876,
          "velocity": 0.7874015748031497
        },
        {
          "duration": 0.16666600000000642,
          "durationTicks": 240,
          "midi": 26,
          "name": "D1",
          "ticks": 164880,
          "time": 114.832876,
          "velocity": 0.7874015748031497
        },
        {
          "duration": 0.16666600000000642,
          "durationTicks": 240,
          "midi": 49,
          "name": "C#3",
          "ticks": 165120,
          "time": 114.999542,
          "velocity": 0.7874015748031497
        },
        {
          "duration": 0.16666600000000642,
          "durationTicks": 240,
          "midi": 38,
          "name": "D2",
          "ticks": 165120,
          "time": 114.999542,
          "velocity": 0.7874015748031497
        },
        {
          "duration": 0.1666659999999922,
          "durationTicks": 240,
          "midi": 50,
          "name": "D3",
          "ticks": 165360,
          "time": 115.16620800000001,
          "velocity": 0.7874015748031497
        },
        {
          "duration": 0.1666659999999922,
          "durationTicks": 240,
          "midi": 26,
          "name": "D1",
          "ticks": 165360,
          "time": 115.16620800000001,
          "velocity": 0.7874015748031497
        },
        {
          "duration": 0.16666600000000642,
          "durationTicks": 240,
          "midi": 57,
          "name": "A3",
          "ticks": 165600,
          "time": 115.332874,
          "velocity": 0.7874015748031497
        },
        {
          "duration": 0.16666600000000642,
          "durationTicks": 240,
          "midi": 38,
          "name": "D2",
          "ticks": 165600,
          "time": 115.332874,
          "velocity": 0.7874015748031497
        },
        {
          "duration": 0.0833329999999961,
          "durationTicks": 120,
          "midi": 55,
          "name": "G3",
          "ticks": 165840,
          "time": 115.49954000000001,
          "velocity": 0.7874015748031497
        },
        {
          "duration": 0.1666659999999922,
          "durationTicks": 240,
          "midi": 26,
          "name": "D1",
          "ticks": 165840,
          "time": 115.49954000000001,
          "velocity": 0.7874015748031497
        },
        {
          "duration": 0.16666600000000642,
          "durationTicks": 240,
          "midi": 57,
          "name": "A3",
          "ticks": 165960,
          "time": 115.582873,
          "velocity": 0.7874015748031497
        },
        {
          "duration": 0.16666600000000642,
          "durationTicks": 240,
          "midi": 38,
          "name": "D2",
          "ticks": 166080,
          "time": 115.666206,
          "velocity": 0.7874015748031497
        },
        {
          "duration": 0.1666659999999922,
          "durationTicks": 240,
          "midi": 52,
          "name": "E3",
          "ticks": 166200,
          "time": 115.74953900000001,
          "velocity": 0.7874015748031497
        },
        {
          "duration": 0.1666659999999922,
          "durationTicks": 240,
          "midi": 26,
          "name": "D1",
          "ticks": 166320,
          "time": 115.83287200000001,
          "velocity": 0.7874015748031497
        },
        {
          "duration": 0.16666600000000642,
          "durationTicks": 240,
          "midi": 53,
          "name": "F3",
          "ticks": 166440,
          "time": 115.916205,
          "velocity": 0.7874015748031497
        },
        {
          "duration": 0.16666600000000642,
          "durationTicks": 240,
          "midi": 38,
          "name": "D2",
          "ticks": 166560,
          "time": 115.999538,
          "velocity": 0.7874015748031497
        },
        {
          "duration": 0.0833329999999961,
          "durationTicks": 120,
          "midi": 57,
          "name": "A3",
          "ticks": 166680,
          "time": 116.08287100000001,
          "velocity": 0.7874015748031497
        },
        {
          "duration": 0.0833329999999961,
          "durationTicks": 120,
          "midi": 55,
          "name": "G3",
          "ticks": 166800,
          "time": 116.16620400000001,
          "velocity": 0.7874015748031497
        },
        {
          "duration": 0.1666659999999922,
          "durationTicks": 240,
          "midi": 26,
          "name": "D1",
          "ticks": 166800,
          "time": 116.16620400000001,
          "velocity": 0.7874015748031497
        },
        {
          "duration": 0.0833329999999961,
          "durationTicks": 120,
          "midi": 53,
          "name": "F3",
          "ticks": 166920,
          "time": 116.249537,
          "velocity": 0.7874015748031497
        },
        {
          "duration": 0.08333300000001032,
          "durationTicks": 120,
          "midi": 52,
          "name": "E3",
          "ticks": 167040,
          "time": 116.33287,
          "velocity": 0.7874015748031497
        },
        {
          "duration": 0.16666600000000642,
          "durationTicks": 240,
          "midi": 38,
          "name": "D2",
          "ticks": 167040,
          "time": 116.33287,
          "velocity": 0.7874015748031497
        },
        {
          "duration": 0.1666659999999922,
          "durationTicks": 240,
          "midi": 50,
          "name": "D3",
          "ticks": 167160,
          "time": 116.41620300000001,
          "velocity": 0.7874015748031497
        },
        {
          "duration": 0.16666600000000642,
          "durationTicks": 240,
          "midi": 26,
          "name": "D1",
          "ticks": 167280,
          "time": 116.499536,
          "velocity": 0.7874015748031497
        },
        {
          "duration": 0.08333300000001032,
          "durationTicks": 120,
          "midi": 50,
          "name": "D3",
          "ticks": 167400,
          "time": 116.582869,
          "velocity": 0.7874015748031497
        },
        {
          "duration": 0.1666659999999922,
          "durationTicks": 240,
          "midi": 57,
          "name": "A3",
          "ticks": 167520,
          "time": 116.66620200000001,
          "velocity": 0.7874015748031497
        },
        {
          "duration": 0.1666659999999922,
          "durationTicks": 240,
          "midi": 38,
          "name": "D2",
          "ticks": 167520,
          "time": 116.66620200000001,
          "velocity": 0.7874015748031497
        },
        {
          "duration": 0.0833329999999961,
          "durationTicks": 120,
          "midi": 55,
          "name": "G3",
          "ticks": 167760,
          "time": 116.832868,
          "velocity": 0.7874015748031497
        },
        {
          "duration": 0.16666600000000642,
          "durationTicks": 240,
          "midi": 26,
          "name": "D1",
          "ticks": 167760,
          "time": 116.832868,
          "velocity": 0.7874015748031497
        },
        {
          "duration": 0.16666600000000642,
          "durationTicks": 240,
          "midi": 57,
          "name": "A3",
          "ticks": 167880,
          "time": 116.916201,
          "velocity": 0.7874015748031497
        },
        {
          "duration": 0.1666659999999922,
          "durationTicks": 240,
          "midi": 38,
          "name": "D2",
          "ticks": 168000,
          "time": 116.99953400000001,
          "velocity": 0.7874015748031497
        },
        {
          "duration": 0.1666659999999922,
          "durationTicks": 240,
          "midi": 60,
          "name": "C4",
          "ticks": 168120,
          "time": 117.08286700000001,
          "velocity": 0.7874015748031497
        },
        {
          "duration": 0.16666600000000642,
          "durationTicks": 240,
          "midi": 26,
          "name": "D1",
          "ticks": 168240,
          "time": 117.1662,
          "velocity": 0.7874015748031497
        },
        {
          "duration": 0.08333300000001032,
          "durationTicks": 120,
          "midi": 60,
          "name": "C4",
          "ticks": 168360,
          "time": 117.249533,
          "velocity": 0.7874015748031497
        },
        {
          "duration": 0.1666659999999922,
          "durationTicks": 240,
          "midi": 57,
          "name": "A3",
          "ticks": 168480,
          "time": 117.33286600000001,
          "velocity": 0.7874015748031497
        },
        {
          "duration": 0.1666659999999922,
          "durationTicks": 240,
          "midi": 38,
          "name": "D2",
          "ticks": 168480,
          "time": 117.33286600000001,
          "velocity": 0.7874015748031497
        },
        {
          "duration": 0.16666600000000642,
          "durationTicks": 240,
          "midi": 64,
          "name": "E4",
          "ticks": 168720,
          "time": 117.499532,
          "velocity": 0.7874015748031497
        },
        {
          "duration": 0.16666600000000642,
          "durationTicks": 240,
          "midi": 26,
          "name": "D1",
          "ticks": 168720,
          "time": 117.499532,
          "velocity": 0.7874015748031497
        },
        {
          "duration": 0.0833329999999961,
          "durationTicks": 120,
          "midi": 60,
          "name": "C4",
          "ticks": 168960,
          "time": 117.66619800000001,
          "velocity": 0.7874015748031497
        },
        {
          "duration": 0.1666659999999922,
          "durationTicks": 240,
          "midi": 38,
          "name": "D2",
          "ticks": 168960,
          "time": 117.66619800000001,
          "velocity": 0.7874015748031497
        },
        {
          "duration": 0.0833329999999961,
          "durationTicks": 120,
          "midi": 61,
          "name": "C#4",
          "ticks": 169080,
          "time": 117.749531,
          "velocity": 0.7874015748031497
        },
        {
          "duration": 0.16666600000000642,
          "durationTicks": 240,
          "midi": 62,
          "name": "D4",
          "ticks": 169200,
          "time": 117.832864,
          "velocity": 0.7874015748031497
        },
        {
          "duration": 0.16666600000000642,
          "durationTicks": 240,
          "midi": 38,
          "name": "D2",
          "ticks": 169200,
          "time": 117.832864,
          "velocity": 0.7874015748031497
        },
        {
          "duration": 0.1666659999999922,
          "durationTicks": 240,
          "midi": 69,
          "name": "A4",
          "ticks": 169440,
          "time": 117.99953000000001,
          "velocity": 0.7874015748031497
        },
        {
          "duration": 0.1666659999999922,
          "durationTicks": 240,
          "midi": 50,
          "name": "D3",
          "ticks": 169440,
          "time": 117.99953000000001,
          "velocity": 0.7874015748031497
        },
        {
          "duration": 0.08333300000001032,
          "durationTicks": 120,
          "midi": 67,
          "name": "G4",
          "ticks": 169680,
          "time": 118.166196,
          "velocity": 0.7874015748031497
        },
        {
          "duration": 0.16666600000000642,
          "durationTicks": 240,
          "midi": 38,
          "name": "D2",
          "ticks": 169680,
          "time": 118.166196,
          "velocity": 0.7874015748031497
        },
        {
          "duration": 0.1666659999999922,
          "durationTicks": 240,
          "midi": 69,
          "name": "A4",
          "ticks": 169800,
          "time": 118.24952900000001,
          "velocity": 0.7874015748031497
        },
        {
          "duration": 0.16666600000000642,
          "durationTicks": 240,
          "midi": 50,
          "name": "D3",
          "ticks": 169920,
          "time": 118.332862,
          "velocity": 0.7874015748031497
        },
        {
          "duration": 0.16666600000000642,
          "durationTicks": 240,
          "midi": 64,
          "name": "E4",
          "ticks": 170040,
          "time": 118.416195,
          "velocity": 0.7874015748031497
        },
        {
          "duration": 0.1666659999999922,
          "durationTicks": 240,
          "midi": 38,
          "name": "D2",
          "ticks": 170160,
          "time": 118.49952800000001,
          "velocity": 0.7874015748031497
        },
        {
          "duration": 0.1666659999999922,
          "durationTicks": 240,
          "midi": 65,
          "name": "F4",
          "ticks": 170280,
          "time": 118.58286100000001,
          "velocity": 0.7874015748031497
        },
        {
          "duration": 0.16666600000000642,
          "durationTicks": 240,
          "midi": 50,
          "name": "D3",
          "ticks": 170400,
          "time": 118.666194,
          "velocity": 0.7874015748031497
        },
        {
          "duration": 0.08333300000001032,
          "durationTicks": 120,
          "midi": 69,
          "name": "A4",
          "ticks": 170520,
          "time": 118.749527,
          "velocity": 0.7874015748031497
        },
        {
          "duration": 0.0833329999999961,
          "durationTicks": 120,
          "midi": 67,
          "name": "G4",
          "ticks": 170640,
          "time": 118.83286000000001,
          "velocity": 0.7874015748031497
        },
        {
          "duration": 0.1666659999999922,
          "durationTicks": 240,
          "midi": 38,
          "name": "D2",
          "ticks": 170640,
          "time": 118.83286000000001,
          "velocity": 0.7874015748031497
        },
        {
          "duration": 0.0833329999999961,
          "durationTicks": 120,
          "midi": 65,
          "name": "F4",
          "ticks": 170760,
          "time": 118.916193,
          "velocity": 0.7874015748031497
        },
        {
          "duration": 0.0833329999999961,
          "durationTicks": 120,
          "midi": 64,
          "name": "E4",
          "ticks": 170880,
          "time": 118.999526,
          "velocity": 0.7874015748031497
        },
        {
          "duration": 0.16666600000000642,
          "durationTicks": 240,
          "midi": 50,
          "name": "D3",
          "ticks": 170880,
          "time": 118.999526,
          "velocity": 0.7874015748031497
        },
        {
          "duration": 0.16666600000000642,
          "durationTicks": 240,
          "midi": 62,
          "name": "D4",
          "ticks": 171000,
          "time": 119.082859,
          "velocity": 0.7874015748031497
        },
        {
          "duration": 0.1666659999999922,
          "durationTicks": 240,
          "midi": 38,
          "name": "D2",
          "ticks": 171120,
          "time": 119.16619200000001,
          "velocity": 0.7874015748031497
        },
        {
          "duration": 0.0833329999999961,
          "durationTicks": 120,
          "midi": 62,
          "name": "D4",
          "ticks": 171240,
          "time": 119.249525,
          "velocity": 0.7874015748031497
        },
        {
          "duration": 0.16666600000000642,
          "durationTicks": 240,
          "midi": 69,
          "name": "A4",
          "ticks": 171360,
          "time": 119.332858,
          "velocity": 0.7874015748031497
        },
        {
          "duration": 0.16666600000000642,
          "durationTicks": 240,
          "midi": 50,
          "name": "D3",
          "ticks": 171360,
          "time": 119.332858,
          "velocity": 0.7874015748031497
        },
        {
          "duration": 0.0833329999999961,
          "durationTicks": 120,
          "midi": 67,
          "name": "G4",
          "ticks": 171600,
          "time": 119.49952400000001,
          "velocity": 0.7874015748031497
        },
        {
          "duration": 0.1666659999999922,
          "durationTicks": 240,
          "midi": 38,
          "name": "D2",
          "ticks": 171600,
          "time": 119.49952400000001,
          "velocity": 0.7874015748031497
        },
        {
          "duration": 0.16666600000000642,
          "durationTicks": 240,
          "midi": 69,
          "name": "A4",
          "ticks": 171720,
          "time": 119.582857,
          "velocity": 0.7874015748031497
        },
        {
          "duration": 0.16666600000000642,
          "durationTicks": 240,
          "midi": 50,
          "name": "D3",
          "ticks": 171840,
          "time": 119.66619,
          "velocity": 0.7874015748031497
        },
        {
          "duration": 0.1666659999999922,
          "durationTicks": 240,
          "midi": 64,
          "name": "E4",
          "ticks": 171960,
          "time": 119.74952300000001,
          "velocity": 0.7874015748031497
        },
        {
          "duration": 0.16666600000000642,
          "durationTicks": 240,
          "midi": 38,
          "name": "D2",
          "ticks": 172080,
          "time": 119.832856,
          "velocity": 0.7874015748031497
        },
        {
          "duration": 0.16666600000000642,
          "durationTicks": 240,
          "midi": 65,
          "name": "F4",
          "ticks": 172200,
          "time": 119.916189,
          "velocity": 0.7874015748031497
        },
        {
          "duration": 0.1666659999999922,
          "durationTicks": 240,
          "midi": 50,
          "name": "D3",
          "ticks": 172320,
          "time": 119.99952200000001,
          "velocity": 0.7874015748031497
        },
        {
          "duration": 0.0833329999999961,
          "durationTicks": 120,
          "midi": 69,
          "name": "A4",
          "ticks": 172440,
          "time": 120.08285500000001,
          "velocity": 0.7874015748031497
        },
        {
          "duration": 0.16666600000000642,
          "durationTicks": 240,
          "midi": 60,
          "name": "C4",
          "ticks": 172560,
          "time": 120.166188,
          "velocity": 0.7874015748031497
        },
        {
          "duration": 0.16666600000000642,
          "durationTicks": 240,
          "midi": 38,
          "name": "D2",
          "ticks": 172560,
          "time": 120.166188,
          "velocity": 0.7874015748031497
        },
        {
          "duration": 0.1666659999999922,
          "durationTicks": 240,
          "midi": 61,
          "name": "C#4",
          "ticks": 172800,
          "time": 120.33285400000001,
          "velocity": 0.7874015748031497
        },
        {
          "duration": 0.1666659999999922,
          "durationTicks": 240,
          "midi": 50,
          "name": "D3",
          "ticks": 172800,
          "time": 120.33285400000001,
          "velocity": 0.7874015748031497
        },
        {
          "duration": 0.16666600000000642,
          "durationTicks": 240,
          "midi": 62,
          "name": "D4",
          "ticks": 173040,
          "time": 120.49952,
          "velocity": 0.7874015748031497
        },
        {
          "duration": 0.16666600000000642,
          "durationTicks": 240,
          "midi": 38,
          "name": "D2",
          "ticks": 173040,
          "time": 120.49952,
          "velocity": 0.7874015748031497
        },
        {
          "duration": 0.1666659999999922,
          "durationTicks": 240,
          "midi": 69,
          "name": "A4",
          "ticks": 173280,
          "time": 120.66618600000001,
          "velocity": 0.7874015748031497
        },
        {
          "duration": 0.1666659999999922,
          "durationTicks": 240,
          "midi": 50,
          "name": "D3",
          "ticks": 173280,
          "time": 120.66618600000001,
          "velocity": 0.7874015748031497
        },
        {
          "duration": 0.08333300000001032,
          "durationTicks": 120,
          "midi": 67,
          "name": "G4",
          "ticks": 173520,
          "time": 120.832852,
          "velocity": 0.7874015748031497
        },
        {
          "duration": 0.16666600000000642,
          "durationTicks": 240,
          "midi": 38,
          "name": "D2",
          "ticks": 173520,
          "time": 120.832852,
          "velocity": 0.7874015748031497
        },
        {
          "duration": 0.1666659999999922,
          "durationTicks": 240,
          "midi": 69,
          "name": "A4",
          "ticks": 173640,
          "time": 120.91618500000001,
          "velocity": 0.7874015748031497
        },
        {
          "duration": 0.1666659999999922,
          "durationTicks": 240,
          "midi": 50,
          "name": "D3",
          "ticks": 173760,
          "time": 120.99951800000001,
          "velocity": 0.7874015748031497
        },
        {
          "duration": 0.16666600000000642,
          "durationTicks": 240,
          "midi": 64,
          "name": "E4",
          "ticks": 173880,
          "time": 121.082851,
          "velocity": 0.7874015748031497
        },
        {
          "duration": 0.16666600000000642,
          "durationTicks": 240,
          "midi": 38,
          "name": "D2",
          "ticks": 174000,
          "time": 121.166184,
          "velocity": 0.7874015748031497
        },
        {
          "duration": 0.1666659999999922,
          "durationTicks": 240,
          "midi": 65,
          "name": "F4",
          "ticks": 174120,
          "time": 121.24951700000001,
          "velocity": 0.7874015748031497
        },
        {
          "duration": 0.1666659999999922,
          "durationTicks": 240,
          "midi": 50,
          "name": "D3",
          "ticks": 174240,
          "time": 121.33285000000001,
          "velocity": 0.7874015748031497
        },
        {
          "duration": 0.0833329999999961,
          "durationTicks": 120,
          "midi": 69,
          "name": "A4",
          "ticks": 174360,
          "time": 121.416183,
          "velocity": 0.7874015748031497
        },
        {
          "duration": 0.08333300000001032,
          "durationTicks": 120,
          "midi": 67,
          "name": "G4",
          "ticks": 174480,
          "time": 121.499516,
          "velocity": 0.7874015748031497
        },
        {
          "duration": 0.16666600000000642,
          "durationTicks": 240,
          "midi": 38,
          "name": "D2",
          "ticks": 174480,
          "time": 121.499516,
          "velocity": 0.7874015748031497
        },
        {
          "duration": 0.0833329999999961,
          "durationTicks": 120,
          "midi": 65,
          "name": "F4",
          "ticks": 174600,
          "time": 121.58284900000001,
          "velocity": 0.7874015748031497
        },
        {
          "duration": 0.0833329999999961,
          "durationTicks": 120,
          "midi": 64,
          "name": "E4",
          "ticks": 174720,
          "time": 121.666182,
          "velocity": 0.7874015748031497
        },
        {
          "duration": 0.16666600000000642,
          "durationTicks": 240,
          "midi": 50,
          "name": "D3",
          "ticks": 174720,
          "time": 121.666182,
          "velocity": 0.7874015748031497
        },
        {
          "duration": 0.16666600000000642,
          "durationTicks": 240,
          "midi": 62,
          "name": "D4",
          "ticks": 174840,
          "time": 121.749515,
          "velocity": 0.7874015748031497
        },
        {
          "duration": 0.1666659999999922,
          "durationTicks": 240,
          "midi": 38,
          "name": "D2",
          "ticks": 174960,
          "time": 121.83284800000001,
          "velocity": 0.7874015748031497
        },
        {
          "duration": 0.0833329999999961,
          "durationTicks": 120,
          "midi": 62,
          "name": "D4",
          "ticks": 175080,
          "time": 121.91618100000001,
          "velocity": 0.7874015748031497
        },
        {
          "duration": 0.16666600000000642,
          "durationTicks": 240,
          "midi": 69,
          "name": "A4",
          "ticks": 175200,
          "time": 121.999514,
          "velocity": 0.7874015748031497
        },
        {
          "duration": 0.16666600000000642,
          "durationTicks": 240,
          "midi": 50,
          "name": "D3",
          "ticks": 175200,
          "time": 121.999514,
          "velocity": 0.7874015748031497
        },
        {
          "duration": 0.0833329999999961,
          "durationTicks": 120,
          "midi": 67,
          "name": "G4",
          "ticks": 175440,
          "time": 122.16618000000001,
          "velocity": 0.7874015748031497
        },
        {
          "duration": 0.1666659999999922,
          "durationTicks": 240,
          "midi": 38,
          "name": "D2",
          "ticks": 175440,
          "time": 122.16618000000001,
          "velocity": 0.7874015748031497
        },
        {
          "duration": 0.1666659999999922,
          "durationTicks": 240,
          "midi": 69,
          "name": "A4",
          "ticks": 175560,
          "time": 122.24951300000001,
          "velocity": 0.7874015748031497
        },
        {
          "duration": 0.16666600000000642,
          "durationTicks": 240,
          "midi": 50,
          "name": "D3",
          "ticks": 175680,
          "time": 122.332846,
          "velocity": 0.7874015748031497
        },
        {
          "duration": 0.16666600000000642,
          "durationTicks": 240,
          "midi": 64,
          "name": "E4",
          "ticks": 175800,
          "time": 122.416179,
          "velocity": 0.7874015748031497
        },
        {
          "duration": 0.1666659999999922,
          "durationTicks": 240,
          "midi": 38,
          "name": "D2",
          "ticks": 175920,
          "time": 122.49951200000001,
          "velocity": 0.7874015748031497
        },
        {
          "duration": 0.16666600000000642,
          "durationTicks": 240,
          "midi": 65,
          "name": "F4",
          "ticks": 176040,
          "time": 122.582845,
          "velocity": 0.7874015748031497
        },
        {
          "duration": 0.16666600000000642,
          "durationTicks": 240,
          "midi": 50,
          "name": "D3",
          "ticks": 176160,
          "time": 122.666178,
          "velocity": 0.7874015748031497
        },
        {
          "duration": 0.0833329999999961,
          "durationTicks": 120,
          "midi": 69,
          "name": "A4",
          "ticks": 176280,
          "time": 122.74951100000001,
          "velocity": 0.7874015748031497
        },
        {
          "duration": 0.1666659999999922,
          "durationTicks": 240,
          "midi": 60,
          "name": "C4",
          "ticks": 176400,
          "time": 122.83284400000001,
          "velocity": 0.7874015748031497
        },
        {
          "duration": 0.1666659999999922,
          "durationTicks": 240,
          "midi": 38,
          "name": "D2",
          "ticks": 176400,
          "time": 122.83284400000001,
          "velocity": 0.7874015748031497
        },
        {
          "duration": 0.16666600000000642,
          "durationTicks": 240,
          "midi": 61,
          "name": "C#4",
          "ticks": 176640,
          "time": 122.99951,
          "velocity": 0.7874015748031497
        },
        {
          "duration": 0.16666600000000642,
          "durationTicks": 240,
          "midi": 50,
          "name": "D3",
          "ticks": 176640,
          "time": 122.99951,
          "velocity": 0.7874015748031497
        },
        {
          "duration": 0.1666659999999922,
          "durationTicks": 240,
          "midi": 62,
          "name": "D4",
          "ticks": 176880,
          "time": 123.16617600000001,
          "velocity": 0.7874015748031497
        },
        {
          "duration": 0.1666659999999922,
          "durationTicks": 240,
          "midi": 38,
          "name": "D2",
          "ticks": 176880,
          "time": 123.16617600000001,
          "velocity": 0.7874015748031497
        },
        {
          "duration": 0.16666600000000642,
          "durationTicks": 240,
          "midi": 69,
          "name": "A4",
          "ticks": 177120,
          "time": 123.332842,
          "velocity": 0.7874015748031497
        },
        {
          "duration": 0.16666600000000642,
          "durationTicks": 240,
          "midi": 50,
          "name": "D3",
          "ticks": 177120,
          "time": 123.332842,
          "velocity": 0.7874015748031497
        },
        {
          "duration": 0.0833329999999961,
          "durationTicks": 120,
          "midi": 67,
          "name": "G4",
          "ticks": 177360,
          "time": 123.499508,
          "velocity": 0.7874015748031497
        },
        {
          "duration": 0.16666600000000642,
          "durationTicks": 240,
          "midi": 38,
          "name": "D2",
          "ticks": 177360,
          "time": 123.499508,
          "velocity": 0.7874015748031497
        },
        {
          "duration": 0.16666600000000642,
          "durationTicks": 240,
          "midi": 69,
          "name": "A4",
          "ticks": 177480,
          "time": 123.582841,
          "velocity": 0.7874015748031497
        },
        {
          "duration": 0.1666659999999922,
          "durationTicks": 240,
          "midi": 50,
          "name": "D3",
          "ticks": 177600,
          "time": 123.66617400000001,
          "velocity": 0.7874015748031497
        },
        {
          "duration": 0.1666659999999922,
          "durationTicks": 240,
          "midi": 64,
          "name": "E4",
          "ticks": 177720,
          "time": 123.74950700000001,
          "velocity": 0.7874015748031497
        },
        {
          "duration": 0.16666600000000642,
          "durationTicks": 240,
          "midi": 38,
          "name": "D2",
          "ticks": 177840,
          "time": 123.83284,
          "velocity": 0.7874015748031497
        },
        {
          "duration": 0.16666600000000642,
          "durationTicks": 240,
          "midi": 65,
          "name": "F4",
          "ticks": 177960,
          "time": 123.916173,
          "velocity": 0.7874015748031497
        },
        {
          "duration": 0.1666659999999922,
          "durationTicks": 240,
          "midi": 50,
          "name": "D3",
          "ticks": 178080,
          "time": 123.99950600000001,
          "velocity": 0.7874015748031497
        },
        {
          "duration": 0.0833329999999961,
          "durationTicks": 120,
          "midi": 69,
          "name": "A4",
          "ticks": 178200,
          "time": 124.082839,
          "velocity": 0.7874015748031497
        },
        {
          "duration": 0.08333300000001032,
          "durationTicks": 120,
          "midi": 67,
          "name": "G4",
          "ticks": 178320,
          "time": 124.166172,
          "velocity": 0.7874015748031497
        },
        {
          "duration": 0.16666600000000642,
          "durationTicks": 240,
          "midi": 38,
          "name": "D2",
          "ticks": 178320,
          "time": 124.166172,
          "velocity": 0.7874015748031497
        },
        {
          "duration": 0.0833329999999961,
          "durationTicks": 120,
          "midi": 65,
          "name": "F4",
          "ticks": 178440,
          "time": 124.24950500000001,
          "velocity": 0.7874015748031497
        },
        {
          "duration": 0.0833329999999961,
          "durationTicks": 120,
          "midi": 64,
          "name": "E4",
          "ticks": 178560,
          "time": 124.33283800000001,
          "velocity": 0.7874015748031497
        },
        {
          "duration": 0.1666659999999922,
          "durationTicks": 240,
          "midi": 50,
          "name": "D3",
          "ticks": 178560,
          "time": 124.33283800000001,
          "velocity": 0.7874015748031497
        },
        {
          "duration": 0.16666600000000642,
          "durationTicks": 240,
          "midi": 62,
          "name": "D4",
          "ticks": 178680,
          "time": 124.416171,
          "velocity": 0.7874015748031497
        },
        {
          "duration": 0.16666600000000642,
          "durationTicks": 240,
          "midi": 38,
          "name": "D2",
          "ticks": 178800,
          "time": 124.499504,
          "velocity": 0.7874015748031497
        },
        {
          "duration": 0.0833329999999961,
          "durationTicks": 120,
          "midi": 62,
          "name": "D4",
          "ticks": 178920,
          "time": 124.58283700000001,
          "velocity": 0.7874015748031497
        },
        {
          "duration": 0.1666659999999922,
          "durationTicks": 240,
          "midi": 69,
          "name": "A4",
          "ticks": 179040,
          "time": 124.66617000000001,
          "velocity": 0.7874015748031497
        },
        {
          "duration": 0.1666659999999922,
          "durationTicks": 240,
          "midi": 50,
          "name": "D3",
          "ticks": 179040,
          "time": 124.66617000000001,
          "velocity": 0.7874015748031497
        },
        {
          "duration": 0.08333300000001032,
          "durationTicks": 120,
          "midi": 67,
          "name": "G4",
          "ticks": 179280,
          "time": 124.832836,
          "velocity": 0.7874015748031497
        },
        {
          "duration": 0.16666600000000642,
          "durationTicks": 240,
          "midi": 38,
          "name": "D2",
          "ticks": 179280,
          "time": 124.832836,
          "velocity": 0.7874015748031497
        },
        {
          "duration": 0.1666659999999922,
          "durationTicks": 240,
          "midi": 69,
          "name": "A4",
          "ticks": 179400,
          "time": 124.91616900000001,
          "velocity": 0.7874015748031497
        },
        {
          "duration": 0.16666600000000642,
          "durationTicks": 240,
          "midi": 50,
          "name": "D3",
          "ticks": 179520,
          "time": 124.999502,
          "velocity": 0.7874015748031497
        },
        {
          "duration": 0.16666600000000642,
          "durationTicks": 240,
          "midi": 64,
          "name": "E4",
          "ticks": 179640,
          "time": 125.082835,
          "velocity": 0.7874015748031497
        },
        {
          "duration": 0.1666659999999922,
          "durationTicks": 240,
          "midi": 38,
          "name": "D2",
          "ticks": 179760,
          "time": 125.16616800000001,
          "velocity": 0.7874015748031497
        },
        {
          "duration": 0.1666659999999922,
          "durationTicks": 240,
          "midi": 65,
          "name": "F4",
          "ticks": 179880,
          "time": 125.24950100000001,
          "velocity": 0.7874015748031497
        },
        {
          "duration": 0.16666600000000642,
          "durationTicks": 240,
          "midi": 50,
          "name": "D3",
          "ticks": 180000,
          "time": 125.332834,
          "velocity": 0.7874015748031497
        },
        {
          "duration": 0.08333300000001032,
          "durationTicks": 120,
          "midi": 69,
          "name": "A4",
          "ticks": 180120,
          "time": 125.416167,
          "velocity": 0.7874015748031497
        },
        {
          "duration": 0.1666659999999922,
          "durationTicks": 240,
          "midi": 60,
          "name": "C4",
          "ticks": 180240,
          "time": 125.49950000000001,
          "velocity": 0.7874015748031497
        },
        {
          "duration": 0.1666659999999922,
          "durationTicks": 240,
          "midi": 38,
          "name": "D2",
          "ticks": 180240,
          "time": 125.49950000000001,
          "velocity": 0.7874015748031497
        },
        {
          "duration": 0.16666600000000642,
          "durationTicks": 240,
          "midi": 61,
          "name": "C#4",
          "ticks": 180480,
          "time": 125.666166,
          "velocity": 0.7874015748031497
        },
        {
          "duration": 0.16666600000000642,
          "durationTicks": 240,
          "midi": 50,
          "name": "D3",
          "ticks": 180480,
          "time": 125.666166,
          "velocity": 0.7874015748031497
        },
        {
          "duration": 0.1666659999999922,
          "durationTicks": 240,
          "midi": 62,
          "name": "D4",
          "ticks": 180720,
          "time": 125.83283200000001,
          "velocity": 0.7874015748031497
        },
        {
          "duration": 0.1666659999999922,
          "durationTicks": 240,
          "midi": 38,
          "name": "D2",
          "ticks": 180720,
          "time": 125.83283200000001,
          "velocity": 0.7874015748031497
        },
        {
          "duration": 0.16666600000000642,
          "durationTicks": 240,
          "midi": 69,
          "name": "A4",
          "ticks": 180960,
          "time": 125.999498,
          "velocity": 0.7874015748031497
        },
        {
          "duration": 0.16666600000000642,
          "durationTicks": 240,
          "midi": 50,
          "name": "D3",
          "ticks": 180960,
          "time": 125.999498,
          "velocity": 0.7874015748031497
        },
        {
          "duration": 0.0833329999999961,
          "durationTicks": 120,
          "midi": 67,
          "name": "G4",
          "ticks": 181200,
          "time": 126.16616400000001,
          "velocity": 0.7874015748031497
        },
        {
          "duration": 0.1666659999999922,
          "durationTicks": 240,
          "midi": 38,
          "name": "D2",
          "ticks": 181200,
          "time": 126.16616400000001,
          "velocity": 0.7874015748031497
        },
        {
          "duration": 0.16666600000000642,
          "durationTicks": 240,
          "midi": 69,
          "name": "A4",
          "ticks": 181320,
          "time": 126.249497,
          "velocity": 0.7874015748031497
        },
        {
          "duration": 0.16666600000000642,
          "durationTicks": 240,
          "midi": 50,
          "name": "D3",
          "ticks": 181440,
          "time": 126.33283,
          "velocity": 0.7874015748031497
        },
        {
          "duration": 0.1666659999999922,
          "durationTicks": 240,
          "midi": 64,
          "name": "E4",
          "ticks": 181560,
          "time": 126.41616300000001,
          "velocity": 0.7874015748031497
        },
        {
          "duration": 0.1666659999999922,
          "durationTicks": 240,
          "midi": 40,
          "name": "E2",
          "ticks": 181680,
          "time": 126.49949600000001,
          "velocity": 0.7874015748031497
        },
        {
          "duration": 0.16666600000000642,
          "durationTicks": 240,
          "midi": 65,
          "name": "F4",
          "ticks": 181800,
          "time": 126.582829,
          "velocity": 0.7874015748031497
        },
        {
          "duration": 0.16666600000000642,
          "durationTicks": 240,
          "midi": 52,
          "name": "E3",
          "ticks": 181920,
          "time": 126.666162,
          "velocity": 0.7874015748031497
        },
        {
          "duration": 0.0833329999999961,
          "durationTicks": 120,
          "midi": 69,
          "name": "A4",
          "ticks": 182040,
          "time": 126.74949500000001,
          "velocity": 0.7874015748031497
        },
        {
          "duration": 0.0833329999999961,
          "durationTicks": 120,
          "midi": 67,
          "name": "G4",
          "ticks": 182160,
          "time": 126.832828,
          "velocity": 0.7874015748031497
        },
        {
          "duration": 0.16666600000000642,
          "durationTicks": 240,
          "midi": 40,
          "name": "E2",
          "ticks": 182160,
          "time": 126.832828,
          "velocity": 0.7874015748031497
        },
        {
          "duration": 0.08333300000001032,
          "durationTicks": 120,
          "midi": 65,
          "name": "F4",
          "ticks": 182280,
          "time": 126.916161,
          "velocity": 0.7874015748031497
        },
        {
          "duration": 0.0833329999999961,
          "durationTicks": 120,
          "midi": 64,
          "name": "E4",
          "ticks": 182400,
          "time": 126.99949400000001,
          "velocity": 0.7874015748031497
        },
        {
          "duration": 0.1666659999999922,
          "durationTicks": 240,
          "midi": 52,
          "name": "E3",
          "ticks": 182400,
          "time": 126.99949400000001,
          "velocity": 0.7874015748031497
        },
        {
          "duration": 0.1666659999999922,
          "durationTicks": 240,
          "midi": 62,
          "name": "D4",
          "ticks": 182520,
          "time": 127.08282700000001,
          "velocity": 0.7874015748031497
        },
        {
          "duration": 0.16666600000000642,
          "durationTicks": 240,
          "midi": 41,
          "name": "F2",
          "ticks": 182640,
          "time": 127.16616,
          "velocity": 0.7874015748031497
        },
        {
          "duration": 0.08333300000001032,
          "durationTicks": 120,
          "midi": 62,
          "name": "D4",
          "ticks": 182760,
          "time": 127.249493,
          "velocity": 0.7874015748031497
        },
        {
          "duration": 0.1666659999999922,
          "durationTicks": 240,
          "midi": 69,
          "name": "A4",
          "ticks": 182880,
          "time": 127.33282600000001,
          "velocity": 0.7874015748031497
        },
        {
          "duration": 0.1666659999999922,
          "durationTicks": 240,
          "midi": 53,
          "name": "F3",
          "ticks": 182880,
          "time": 127.33282600000001,
          "velocity": 0.7874015748031497
        },
        {
          "duration": 0.0833329999999961,
          "durationTicks": 120,
          "midi": 67,
          "name": "G4",
          "ticks": 183120,
          "time": 127.499492,
          "velocity": 0.7874015748031497
        },
        {
          "duration": 0.16666600000000642,
          "durationTicks": 240,
          "midi": 43,
          "name": "G2",
          "ticks": 183120,
          "time": 127.499492,
          "velocity": 0.7874015748031497
        },
        {
          "duration": 0.16666600000000642,
          "durationTicks": 240,
          "midi": 69,
          "name": "A4",
          "ticks": 183240,
          "time": 127.582825,
          "velocity": 0.7874015748031497
        },
        {
          "duration": 0.1666659999999922,
          "durationTicks": 240,
          "midi": 55,
          "name": "G3",
          "ticks": 183360,
          "time": 127.66615800000001,
          "velocity": 0.7874015748031497
        },
        {
          "duration": 0.16666600000000642,
          "durationTicks": 240,
          "midi": 72,
          "name": "C5",
          "ticks": 183480,
          "time": 127.749491,
          "velocity": 0.7874015748031497
        },
        {
          "duration": 0.16666600000000642,
          "durationTicks": 240,
          "midi": 45,
          "name": "A2",
          "ticks": 183600,
          "time": 127.832824,
          "velocity": 0.7874015748031497
        },
        {
          "duration": 0.16666600000000642,
          "durationTicks": 240,
          "midi": 74,
          "name": "D5",
          "ticks": 183720,
          "time": 127.91615700000001,
          "velocity": 0.7874015748031497
        },
        {
          "duration": 0.1666659999999922,
          "durationTicks": 240,
          "midi": 57,
          "name": "A3",
          "ticks": 183840,
          "time": 127.99949000000001,
          "velocity": 0.7874015748031497
        },
        {
          "duration": 0.0833329999999819,
          "durationTicks": 120,
          "midi": 77,
          "name": "F5",
          "ticks": 183960,
          "time": 128.08282300000002,
          "velocity": 0.7874015748031497
        },
        {
          "duration": 0.08333300000001032,
          "durationTicks": 120,
          "midi": 76,
          "name": "E5",
          "ticks": 184080,
          "time": 128.166156,
          "velocity": 0.7874015748031497
        },
        {
          "duration": 0.16666600000002063,
          "durationTicks": 240,
          "midi": 48,
          "name": "C3",
          "ticks": 184080,
          "time": 128.166156,
          "velocity": 0.7874015748031497
        },
        {
          "duration": 0.08333300000001032,
          "durationTicks": 120,
          "midi": 74,
          "name": "D5",
          "ticks": 184200,
          "time": 128.249489,
          "velocity": 0.7874015748031497
        },
        {
          "duration": 0.1666659999999922,
          "durationTicks": 240,
          "midi": 72,
          "name": "C5",
          "ticks": 184320,
          "time": 128.33282200000002,
          "velocity": 0.7874015748031497
        },
        {
          "duration": 0.1666659999999922,
          "durationTicks": 240,
          "midi": 60,
          "name": "C4",
          "ticks": 184320,
          "time": 128.33282200000002,
          "velocity": 0.7874015748031497
        },
        {
          "duration": 0.1666659999999922,
          "durationTicks": 240,
          "midi": 57,
          "name": "A3",
          "ticks": 184560,
          "time": 128.499488,
          "velocity": 0.7874015748031497
        },
        {
          "duration": 0.1666659999999922,
          "durationTicks": 240,
          "midi": 34,
          "name": "A#1",
          "ticks": 184560,
          "time": 128.499488,
          "velocity": 0.7874015748031497
        },
        {
          "duration": 0.1666659999999922,
          "durationTicks": 240,
          "midi": 65,
          "name": "F4",
          "ticks": 184800,
          "time": 128.666154,
          "velocity": 0.7874015748031497
        },
        {
          "duration": 0.1666659999999922,
          "durationTicks": 240,
          "midi": 46,
          "name": "A#2",
          "ticks": 184800,
          "time": 128.666154,
          "velocity": 0.7874015748031497
        },
        {
          "duration": 0.08333300000001032,
          "durationTicks": 120,
          "midi": 64,
          "name": "E4",
          "ticks": 185040,
          "time": 128.83282,
          "velocity": 0.7874015748031497
        },
        {
          "duration": 0.16666600000002063,
          "durationTicks": 240,
          "midi": 34,
          "name": "A#1",
          "ticks": 185040,
          "time": 128.83282,
          "velocity": 0.7874015748031497
        },
        {
          "duration": 0.08333300000001032,
          "durationTicks": 120,
          "midi": 65,
          "name": "F4",
          "ticks": 185160,
          "time": 128.916153,
          "velocity": 0.7874015748031497
        },
        {
          "duration": 0.1666659999999922,
          "durationTicks": 240,
          "midi": 64,
          "name": "E4",
          "ticks": 185280,
          "time": 128.99948600000002,
          "velocity": 0.7874015748031497
        },
        {
          "duration": 0.1666659999999922,
          "durationTicks": 240,
          "midi": 46,
          "name": "A#2",
          "ticks": 185280,
          "time": 128.99948600000002,
          "velocity": 0.7874015748031497
        },
        {
          "duration": 0.1666659999999922,
          "durationTicks": 240,
          "midi": 67,
          "name": "G4",
          "ticks": 185520,
          "time": 129.166152,
          "velocity": 0.7874015748031497
        },
        {
          "duration": 0.1666659999999922,
          "durationTicks": 240,
          "midi": 36,
          "name": "C2",
          "ticks": 185520,
          "time": 129.166152,
          "velocity": 0.7874015748031497
        },
        {
          "duration": 0.1666659999999922,
          "durationTicks": 240,
          "midi": 65,
          "name": "F4",
          "ticks": 185760,
          "time": 129.332818,
          "velocity": 0.7874015748031497
        },
        {
          "duration": 0.1666659999999922,
          "durationTicks": 240,
          "midi": 48,
          "name": "C3",
          "ticks": 185760,
          "time": 129.332818,
          "velocity": 0.7874015748031497
        },
        {
          "duration": 0.08333300000001032,
          "durationTicks": 120,
          "midi": 64,
          "name": "E4",
          "ticks": 186000,
          "time": 129.499484,
          "velocity": 0.7874015748031497
        },
        {
          "duration": 0.16666600000002063,
          "durationTicks": 240,
          "midi": 36,
          "name": "C2",
          "ticks": 186000,
          "time": 129.499484,
          "velocity": 0.7874015748031497
        },
        {
          "duration": 0.08333300000001032,
          "durationTicks": 120,
          "midi": 65,
          "name": "F4",
          "ticks": 186120,
          "time": 129.582817,
          "velocity": 0.7874015748031497
        },
        {
          "duration": 0.0833329999999819,
          "durationTicks": 120,
          "midi": 64,
          "name": "E4",
          "ticks": 186240,
          "time": 129.66615000000002,
          "velocity": 0.7874015748031497
        },
        {
          "duration": 0.1666659999999922,
          "durationTicks": 240,
          "midi": 48,
          "name": "C3",
          "ticks": 186240,
          "time": 129.66615000000002,
          "velocity": 0.7874015748031497
        },
        {
          "duration": 0.08333300000001032,
          "durationTicks": 120,
          "midi": 60,
          "name": "C4",
          "ticks": 186360,
          "time": 129.749483,
          "velocity": 0.7874015748031497
        },
        {
          "duration": 0.1666659999999922,
          "durationTicks": 240,
          "midi": 62,
          "name": "D4",
          "ticks": 186480,
          "time": 129.832816,
          "velocity": 0.7874015748031497
        },
        {
          "duration": 0.1666659999999922,
          "durationTicks": 240,
          "midi": 38,
          "name": "D2",
          "ticks": 186480,
          "time": 129.832816,
          "velocity": 0.7874015748031497
        },
        {
          "duration": 0.1666659999999922,
          "durationTicks": 240,
          "midi": 69,
          "name": "A4",
          "ticks": 186720,
          "time": 129.999482,
          "velocity": 0.7874015748031497
        },
        {
          "duration": 0.1666659999999922,
          "durationTicks": 240,
          "midi": 50,
          "name": "D3",
          "ticks": 186720,
          "time": 129.999482,
          "velocity": 0.7874015748031497
        },
        {
          "duration": 0.08333300000001032,
          "durationTicks": 120,
          "midi": 67,
          "name": "G4",
          "ticks": 186960,
          "time": 130.166148,
          "velocity": 0.7874015748031497
        },
        {
          "duration": 0.16666600000002063,
          "durationTicks": 240,
          "midi": 38,
          "name": "D2",
          "ticks": 186960,
          "time": 130.166148,
          "velocity": 0.7874015748031497
        },
        {
          "duration": 0.08333300000001032,
          "durationTicks": 120,
          "midi": 69,
          "name": "A4",
          "ticks": 187080,
          "time": 130.249481,
          "velocity": 0.7874015748031497
        },
        {
          "duration": 0.0833329999999819,
          "durationTicks": 120,
          "midi": 67,
          "name": "G4",
          "ticks": 187200,
          "time": 130.332814,
          "velocity": 0.7874015748031497
        },
        {
          "duration": 0.1666659999999922,
          "durationTicks": 240,
          "midi": 50,
          "name": "D3",
          "ticks": 187200,
          "time": 130.332814,
          "velocity": 0.7874015748031497
        },
        {
          "duration": 0.08333300000001032,
          "durationTicks": 120,
          "midi": 69,
          "name": "A4",
          "ticks": 187320,
          "time": 130.416147,
          "velocity": 0.7874015748031497
        },
        {
          "duration": 0.1666659999999922,
          "durationTicks": 240,
          "midi": 72,
          "name": "C5",
          "ticks": 187440,
          "time": 130.49948,
          "velocity": 0.7874015748031497
        },
        {
          "duration": 0.1666659999999922,
          "durationTicks": 240,
          "midi": 38,
          "name": "D2",
          "ticks": 187440,
          "time": 130.49948,
          "velocity": 0.7874015748031497
        },
        {
          "duration": 0.16666600000002063,
          "durationTicks": 240,
          "midi": 69,
          "name": "A4",
          "ticks": 187680,
          "time": 130.666146,
          "velocity": 0.7874015748031497
        },
        {
          "duration": 0.16666600000002063,
          "durationTicks": 240,
          "midi": 50,
          "name": "D3",
          "ticks": 187680,
          "time": 130.666146,
          "velocity": 0.7874015748031497
        },
        {
          "duration": 0.1666659999999922,
          "durationTicks": 240,
          "midi": 67,
          "name": "G4",
          "ticks": 187920,
          "time": 130.83281200000002,
          "velocity": 0.7874015748031497
        },
        {
          "duration": 0.1666659999999922,
          "durationTicks": 240,
          "midi": 36,
          "name": "C2",
          "ticks": 187920,
          "time": 130.83281200000002,
          "velocity": 0.7874015748031497
        },
        {
          "duration": 0.1666659999999922,
          "durationTicks": 240,
          "midi": 69,
          "name": "A4",
          "ticks": 188160,
          "time": 130.999478,
          "velocity": 0.7874015748031497
        },
        {
          "duration": 0.1666659999999922,
          "durationTicks": 240,
          "midi": 48,
          "name": "C3",
          "ticks": 188160,
          "time": 130.999478,
          "velocity": 0.7874015748031497
        },
        {
          "duration": 0.1666659999999922,
          "durationTicks": 240,
          "midi": 57,
          "name": "A3",
          "ticks": 188400,
          "time": 131.166144,
          "velocity": 0.7874015748031497
        },
        {
          "duration": 0.1666659999999922,
          "durationTicks": 240,
          "midi": 34,
          "name": "A#1",
          "ticks": 188400,
          "time": 131.166144,
          "velocity": 0.7874015748031497
        },
        {
          "duration": 0.16666600000002063,
          "durationTicks": 240,
          "midi": 65,
          "name": "F4",
          "ticks": 188640,
          "time": 131.33281,
          "velocity": 0.7874015748031497
        },
        {
          "duration": 0.16666600000002063,
          "durationTicks": 240,
          "midi": 46,
          "name": "A#2",
          "ticks": 188640,
          "time": 131.33281,
          "velocity": 0.7874015748031497
        },
        {
          "duration": 0.0833329999999819,
          "durationTicks": 120,
          "midi": 64,
          "name": "E4",
          "ticks": 188880,
          "time": 131.49947600000002,
          "velocity": 0.7874015748031497
        },
        {
          "duration": 0.1666659999999922,
          "durationTicks": 240,
          "midi": 34,
          "name": "A#1",
          "ticks": 188880,
          "time": 131.49947600000002,
          "velocity": 0.7874015748031497
        },
        {
          "duration": 0.08333300000001032,
          "durationTicks": 120,
          "midi": 65,
          "name": "F4",
          "ticks": 189000,
          "time": 131.582809,
          "velocity": 0.7874015748031497
        },
        {
          "duration": 0.1666659999999922,
          "durationTicks": 240,
          "midi": 64,
          "name": "E4",
          "ticks": 189120,
          "time": 131.666142,
          "velocity": 0.7874015748031497
        },
        {
          "duration": 0.1666659999999922,
          "durationTicks": 240,
          "midi": 46,
          "name": "A#2",
          "ticks": 189120,
          "time": 131.666142,
          "velocity": 0.7874015748031497
        },
        {
          "duration": 0.16666600000002063,
          "durationTicks": 240,
          "midi": 67,
          "name": "G4",
          "ticks": 189360,
          "time": 131.832808,
          "velocity": 0.7874015748031497
        },
        {
          "duration": 0.16666600000002063,
          "durationTicks": 240,
          "midi": 36,
          "name": "C2",
          "ticks": 189360,
          "time": 131.832808,
          "velocity": 0.7874015748031497
        },
        {
          "duration": 0.1666659999999922,
          "durationTicks": 240,
          "midi": 65,
          "name": "F4",
          "ticks": 189600,
          "time": 131.99947400000002,
          "velocity": 0.7874015748031497
        },
        {
          "duration": 0.1666659999999922,
          "durationTicks": 240,
          "midi": 48,
          "name": "C3",
          "ticks": 189600,
          "time": 131.99947400000002,
          "velocity": 0.7874015748031497
        },
        {
          "duration": 0.0833329999999819,
          "durationTicks": 120,
          "midi": 64,
          "name": "E4",
          "ticks": 189840,
          "time": 132.16614,
          "velocity": 0.7874015748031497
        },
        {
          "duration": 0.1666659999999922,
          "durationTicks": 240,
          "midi": 36,
          "name": "C2",
          "ticks": 189840,
          "time": 132.16614,
          "velocity": 0.7874015748031497
        },
        {
          "duration": 0.08333300000001032,
          "durationTicks": 120,
          "midi": 65,
          "name": "F4",
          "ticks": 189960,
          "time": 132.249473,
          "velocity": 0.7874015748031497
        },
        {
          "duration": 0.08333300000001032,
          "durationTicks": 120,
          "midi": 64,
          "name": "E4",
          "ticks": 190080,
          "time": 132.332806,
          "velocity": 0.7874015748031497
        },
        {
          "duration": 0.1666659999999922,
          "durationTicks": 240,
          "midi": 48,
          "name": "C3",
          "ticks": 190080,
          "time": 132.332806,
          "velocity": 0.7874015748031497
        },
        {
          "duration": 0.0833329999999819,
          "durationTicks": 120,
          "midi": 60,
          "name": "C4",
          "ticks": 190200,
          "time": 132.41613900000002,
          "velocity": 0.7874015748031497
        },
        {
          "duration": 0.16666600000002063,
          "durationTicks": 240,
          "midi": 62,
          "name": "D4",
          "ticks": 190320,
          "time": 132.499472,
          "velocity": 0.7874015748031497
        },
        {
          "duration": 0.16666600000002063,
          "durationTicks": 240,
          "midi": 38,
          "name": "D2",
          "ticks": 190320,
          "time": 132.499472,
          "velocity": 0.7874015748031497
        },
        {
          "duration": 0.1666659999999922,
          "durationTicks": 240,
          "midi": 69,
          "name": "A4",
          "ticks": 190560,
          "time": 132.66613800000002,
          "velocity": 0.7874015748031497
        },
        {
          "duration": 0.1666659999999922,
          "durationTicks": 240,
          "midi": 50,
          "name": "D3",
          "ticks": 190560,
          "time": 132.66613800000002,
          "velocity": 0.7874015748031497
        },
        {
          "duration": 0.08333300000001032,
          "durationTicks": 120,
          "midi": 67,
          "name": "G4",
          "ticks": 190800,
          "time": 132.832804,
          "velocity": 0.7874015748031497
        },
        {
          "duration": 0.1666659999999922,
          "durationTicks": 240,
          "midi": 40,
          "name": "E2",
          "ticks": 190800,
          "time": 132.832804,
          "velocity": 0.7874015748031497
        },
        {
          "duration": 0.0833329999999819,
          "durationTicks": 120,
          "midi": 69,
          "name": "A4",
          "ticks": 190920,
          "time": 132.91613700000002,
          "velocity": 0.7874015748031497
        },
        {
          "duration": 0.08333300000001032,
          "durationTicks": 120,
          "midi": 67,
          "name": "G4",
          "ticks": 191040,
          "time": 132.99947,
          "velocity": 0.7874015748031497
        },
        {
          "duration": 0.1666659999999922,
          "durationTicks": 240,
          "midi": 52,
          "name": "E3",
          "ticks": 191040,
          "time": 132.99947,
          "velocity": 0.7874015748031497
        },
        {
          "duration": 0.0833329999999819,
          "durationTicks": 120,
          "midi": 69,
          "name": "A4",
          "ticks": 191160,
          "time": 133.082803,
          "velocity": 0.7874015748031497
        },
        {
          "duration": 0.16666600000002063,
          "durationTicks": 240,
          "midi": 73,
          "name": "C#5",
          "ticks": 191280,
          "time": 133.166136,
          "velocity": 0.7874015748031497
        },
        {
          "duration": 0.16666600000002063,
          "durationTicks": 240,
          "midi": 41,
          "name": "F2",
          "ticks": 191280,
          "time": 133.166136,
          "velocity": 0.7874015748031497
        },
        {
          "duration": 0.1666659999999922,
          "durationTicks": 240,
          "midi": 69,
          "name": "A4",
          "ticks": 191520,
          "time": 133.33280200000002,
          "velocity": 0.7874015748031497
        },
        {
          "duration": 0.1666659999999922,
          "durationTicks": 240,
          "midi": 53,
          "name": "F3",
          "ticks": 191520,
          "time": 133.33280200000002,
          "velocity": 0.7874015748031497
        },
        {
          "duration": 0.1666659999999922,
          "durationTicks": 240,
          "midi": 67,
          "name": "G4",
          "ticks": 191760,
          "time": 133.499468,
          "velocity": 0.7874015748031497
        },
        {
          "duration": 0.1666659999999922,
          "durationTicks": 240,
          "midi": 43,
          "name": "G2",
          "ticks": 191760,
          "time": 133.499468,
          "velocity": 0.7874015748031497
        },
        {
          "duration": 0.16666600000002063,
          "durationTicks": 240,
          "midi": 69,
          "name": "A4",
          "ticks": 192000,
          "time": 133.666134,
          "velocity": 0.7874015748031497
        },
        {
          "duration": 0.16666600000002063,
          "durationTicks": 240,
          "midi": 55,
          "name": "G3",
          "ticks": 192000,
          "time": 133.666134,
          "velocity": 0.7874015748031497
        },
        {
          "duration": 0.1666659999999922,
          "durationTicks": 240,
          "midi": 57,
          "name": "A3",
          "ticks": 192240,
          "time": 133.83280000000002,
          "velocity": 0.7874015748031497
        },
        {
          "duration": 0.1666659999999922,
          "durationTicks": 240,
          "midi": 34,
          "name": "A#1",
          "ticks": 192240,
          "time": 133.83280000000002,
          "velocity": 0.7874015748031497
        },
        {
          "duration": 0.1666659999999922,
          "durationTicks": 240,
          "midi": 65,
          "name": "F4",
          "ticks": 192480,
          "time": 133.999466,
          "velocity": 0.7874015748031497
        },
        {
          "duration": 0.1666659999999922,
          "durationTicks": 240,
          "midi": 46,
          "name": "A#2",
          "ticks": 192480,
          "time": 133.999466,
          "velocity": 0.7874015748031497
        },
        {
          "duration": 0.08333300000001032,
          "durationTicks": 120,
          "midi": 64,
          "name": "E4",
          "ticks": 192720,
          "time": 134.166132,
          "velocity": 0.7874015748031497
        },
        {
          "duration": 0.1666659999999922,
          "durationTicks": 240,
          "midi": 34,
          "name": "A#1",
          "ticks": 192720,
          "time": 134.166132,
          "velocity": 0.7874015748031497
        },
        {
          "duration": 0.0833329999999819,
          "durationTicks": 120,
          "midi": 65,
          "name": "F4",
          "ticks": 192840,
          "time": 134.24946500000001,
          "velocity": 0.7874015748031497
        },
        {
          "duration": 0.16666600000002063,
          "durationTicks": 240,
          "midi": 64,
          "name": "E4",
          "ticks": 192960,
          "time": 134.332798,
          "velocity": 0.7874015748031497
        },
        {
          "duration": 0.16666600000002063,
          "durationTicks": 240,
          "midi": 46,
          "name": "A#2",
          "ticks": 192960,
          "time": 134.332798,
          "velocity": 0.7874015748031497
        },
        {
          "duration": 0.1666659999999922,
          "durationTicks": 240,
          "midi": 67,
          "name": "G4",
          "ticks": 193200,
          "time": 134.49946400000002,
          "velocity": 0.7874015748031497
        },
        {
          "duration": 0.1666659999999922,
          "durationTicks": 240,
          "midi": 36,
          "name": "C2",
          "ticks": 193200,
          "time": 134.49946400000002,
          "velocity": 0.7874015748031497
        },
        {
          "duration": 0.1666659999999922,
          "durationTicks": 240,
          "midi": 65,
          "name": "F4",
          "ticks": 193440,
          "time": 134.66613,
          "velocity": 0.7874015748031497
        },
        {
          "duration": 0.1666659999999922,
          "durationTicks": 240,
          "midi": 48,
          "name": "C3",
          "ticks": 193440,
          "time": 134.66613,
          "velocity": 0.7874015748031497
        },
        {
          "duration": 0.08333300000001032,
          "durationTicks": 120,
          "midi": 64,
          "name": "E4",
          "ticks": 193680,
          "time": 134.832796,
          "velocity": 0.7874015748031497
        },
        {
          "duration": 0.1666659999999922,
          "durationTicks": 240,
          "midi": 36,
          "name": "C2",
          "ticks": 193680,
          "time": 134.832796,
          "velocity": 0.7874015748031497
        },
        {
          "duration": 0.0833329999999819,
          "durationTicks": 120,
          "midi": 65,
          "name": "F4",
          "ticks": 193800,
          "time": 134.916129,
          "velocity": 0.7874015748031497
        },
        {
          "duration": 0.08333300000001032,
          "durationTicks": 120,
          "midi": 64,
          "name": "E4",
          "ticks": 193920,
          "time": 134.999462,
          "velocity": 0.7874015748031497
        },
        {
          "duration": 0.16666600000002063,
          "durationTicks": 240,
          "midi": 48,
          "name": "C3",
          "ticks": 193920,
          "time": 134.999462,
          "velocity": 0.7874015748031497
        },
        {
          "duration": 0.08333300000001032,
          "durationTicks": 120,
          "midi": 60,
          "name": "C4",
          "ticks": 194040,
          "time": 135.082795,
          "velocity": 0.7874015748031497
        },
        {
          "duration": 0.1666659999999922,
          "durationTicks": 240,
          "midi": 62,
          "name": "D4",
          "ticks": 194160,
          "time": 135.16612800000001,
          "velocity": 0.7874015748031497
        },
        {
          "duration": 0.1666659999999922,
          "durationTicks": 240,
          "midi": 38,
          "name": "D2",
          "ticks": 194160,
          "time": 135.16612800000001,
          "velocity": 0.7874015748031497
        },
        {
          "duration": 0.1666659999999922,
          "durationTicks": 240,
          "midi": 69,
          "name": "A4",
          "ticks": 194400,
          "time": 135.332794,
          "velocity": 0.7874015748031497
        },
        {
          "duration": 0.1666659999999922,
          "durationTicks": 240,
          "midi": 50,
          "name": "D3",
          "ticks": 194400,
          "time": 135.332794,
          "velocity": 0.7874015748031497
        },
        {
          "duration": 0.08333300000001032,
          "durationTicks": 120,
          "midi": 67,
          "name": "G4",
          "ticks": 194640,
          "time": 135.49946,
          "velocity": 0.7874015748031497
        },
        {
          "duration": 0.16666600000002063,
          "durationTicks": 240,
          "midi": 38,
          "name": "D2",
          "ticks": 194640,
          "time": 135.49946,
          "velocity": 0.7874015748031497
        },
        {
          "duration": 0.08333300000001032,
          "durationTicks": 120,
          "midi": 69,
          "name": "A4",
          "ticks": 194760,
          "time": 135.582793,
          "velocity": 0.7874015748031497
        },
        {
          "duration": 0.0833329999999819,
          "durationTicks": 120,
          "midi": 67,
          "name": "G4",
          "ticks": 194880,
          "time": 135.66612600000002,
          "velocity": 0.7874015748031497
        },
        {
          "duration": 0.1666659999999922,
          "durationTicks": 240,
          "midi": 50,
          "name": "D3",
          "ticks": 194880,
          "time": 135.66612600000002,
          "velocity": 0.7874015748031497
        },
        {
          "duration": 0.08333300000001032,
          "durationTicks": 120,
          "midi": 69,
          "name": "A4",
          "ticks": 195000,
          "time": 135.749459,
          "velocity": 0.7874015748031497
        },
        {
          "duration": 0.1666659999999922,
          "durationTicks": 240,
          "midi": 72,
          "name": "C5",
          "ticks": 195120,
          "time": 135.832792,
          "velocity": 0.7874015748031497
        },
        {
          "duration": 0.1666659999999922,
          "durationTicks": 240,
          "midi": 38,
          "name": "D2",
          "ticks": 195120,
          "time": 135.832792,
          "velocity": 0.7874015748031497
        },
        {
          "duration": 0.1666659999999922,
          "durationTicks": 240,
          "midi": 69,
          "name": "A4",
          "ticks": 195360,
          "time": 135.999458,
          "velocity": 0.7874015748031497
        },
        {
          "duration": 0.1666659999999922,
          "durationTicks": 240,
          "midi": 50,
          "name": "D3",
          "ticks": 195360,
          "time": 135.999458,
          "velocity": 0.7874015748031497
        },
        {
          "duration": 0.16666600000002063,
          "durationTicks": 240,
          "midi": 65,
          "name": "F4",
          "ticks": 195600,
          "time": 136.166124,
          "velocity": 0.7874015748031497
        },
        {
          "duration": 0.16666600000002063,
          "durationTicks": 240,
          "midi": 36,
          "name": "C2",
          "ticks": 195600,
          "time": 136.166124,
          "velocity": 0.7874015748031497
        },
        {
          "duration": 0.1666659999999922,
          "durationTicks": 240,
          "midi": 66,
          "name": "F#4",
          "ticks": 195840,
          "time": 136.33279000000002,
          "velocity": 0.7874015748031497
        },
        {
          "duration": 0.1666659999999922,
          "durationTicks": 240,
          "midi": 48,
          "name": "C3",
          "ticks": 195840,
          "time": 136.33279000000002,
          "velocity": 0.7874015748031497
        },
        {
          "duration": 0.1666659999999922,
          "durationTicks": 240,
          "midi": 67,
          "name": "G4",
          "ticks": 196080,
          "time": 136.499456,
          "velocity": 0.7874015748031497
        },
        {
          "duration": 0.1666659999999922,
          "durationTicks": 240,
          "midi": 31,
          "name": "G1",
          "ticks": 196080,
          "time": 136.499456,
          "velocity": 0.7874015748031497
        },
        {
          "duration": 0.08333300000001032,
          "durationTicks": 120,
          "midi": 58,
          "name": "A#3",
          "ticks": 196320,
          "time": 136.666122,
          "velocity": 0.7874015748031497
        },
        {
          "duration": 0.1666659999999922,
          "durationTicks": 240,
          "midi": 43,
          "name": "G2",
          "ticks": 196320,
          "time": 136.666122,
          "velocity": 0.7874015748031497
        },
        {
          "duration": 0.0833329999999819,
          "durationTicks": 120,
          "midi": 67,
          "name": "G4",
          "ticks": 196440,
          "time": 136.749455,
          "velocity": 0.7874015748031497
        },
        {
          "duration": 0.16666600000002063,
          "durationTicks": 240,
          "midi": 58,
          "name": "A#3",
          "ticks": 196560,
          "time": 136.832788,
          "velocity": 0.7874015748031497
        },
        {
          "duration": 0.16666600000002063,
          "durationTicks": 240,
          "midi": 31,
          "name": "G1",
          "ticks": 196560,
          "time": 136.832788,
          "velocity": 0.7874015748031497
        },
        {
          "duration": 0.1666659999999922,
          "durationTicks": 240,
          "midi": 67,
          "name": "G4",
          "ticks": 196800,
          "time": 136.99945400000001,
          "velocity": 0.7874015748031497
        },
        {
          "duration": 0.1666659999999922,
          "durationTicks": 240,
          "midi": 43,
          "name": "G2",
          "ticks": 196800,
          "time": 136.99945400000001,
          "velocity": 0.7874015748031497
        },
        {
          "duration": 0.1666659999999922,
          "durationTicks": 240,
          "midi": 69,
          "name": "A4",
          "ticks": 197040,
          "time": 137.16612,
          "velocity": 0.7874015748031497
        },
        {
          "duration": 0.1666659999999922,
          "durationTicks": 240,
          "midi": 33,
          "name": "A1",
          "ticks": 197040,
          "time": 137.16612,
          "velocity": 0.7874015748031497
        },
        {
          "duration": 0.08333300000001032,
          "durationTicks": 120,
          "midi": 60,
          "name": "C4",
          "ticks": 197280,
          "time": 137.332786,
          "velocity": 0.7874015748031497
        },
        {
          "duration": 0.16666600000002063,
          "durationTicks": 240,
          "midi": 45,
          "name": "A2",
          "ticks": 197280,
          "time": 137.332786,
          "velocity": 0.7874015748031497
        },
        {
          "duration": 0.08333300000001032,
          "durationTicks": 120,
          "midi": 69,
          "name": "A4",
          "ticks": 197400,
          "time": 137.416119,
          "velocity": 0.7874015748031497
        },
        {
          "duration": 0.1666659999999922,
          "durationTicks": 240,
          "midi": 60,
          "name": "C4",
          "ticks": 197520,
          "time": 137.49945200000002,
          "velocity": 0.7874015748031497
        },
        {
          "duration": 0.1666659999999922,
          "durationTicks": 240,
          "midi": 33,
          "name": "A1",
          "ticks": 197520,
          "time": 137.49945200000002,
          "velocity": 0.7874015748031497
        },
        {
          "duration": 0.1666659999999922,
          "durationTicks": 240,
          "midi": 69,
          "name": "A4",
          "ticks": 197760,
          "time": 137.666118,
          "velocity": 0.7874015748031497
        },
        {
          "duration": 0.1666659999999922,
          "durationTicks": 240,
          "midi": 45,
          "name": "A2",
          "ticks": 197760,
          "time": 137.666118,
          "velocity": 0.7874015748031497
        },
        {
          "duration": 0.1666659999999922,
          "durationTicks": 240,
          "midi": 70,
          "name": "A#4",
          "ticks": 198000,
          "time": 137.832784,
          "velocity": 0.7874015748031497
        },
        {
          "duration": 0.1666659999999922,
          "durationTicks": 240,
          "midi": 34,
          "name": "A#1",
          "ticks": 198000,
          "time": 137.832784,
          "velocity": 0.7874015748031497
        },
        {
          "duration": 0.08333300000001032,
          "durationTicks": 120,
          "midi": 70,
          "name": "A#4",
          "ticks": 198240,
          "time": 137.99945,
          "velocity": 0.7874015748031497
        },
        {
          "duration": 0.16666600000002063,
          "durationTicks": 240,
          "midi": 46,
          "name": "A#2",
          "ticks": 198240,
          "time": 137.99945,
          "velocity": 0.7874015748031497
        },
        {
          "duration": 0.08333300000001032,
          "durationTicks": 120,
          "midi": 70,
          "name": "A#4",
          "ticks": 198360,
          "time": 138.082783,
          "velocity": 0.7874015748031497
        },
        {
          "duration": 0.1666659999999922,
          "durationTicks": 240,
          "midi": 70,
          "name": "A#4",
          "ticks": 198480,
          "time": 138.16611600000002,
          "velocity": 0.7874015748031497
        },
        {
          "duration": 0.1666659999999922,
          "durationTicks": 240,
          "midi": 35,
          "name": "B1",
          "ticks": 198480,
          "time": 138.16611600000002,
          "velocity": 0.7874015748031497
        },
        {
          "duration": 0.1666659999999922,
          "durationTicks": 240,
          "midi": 71,
          "name": "B4",
          "ticks": 198720,
          "time": 138.332782,
          "velocity": 0.7874015748031497
        },
        {
          "duration": 0.1666659999999922,
          "durationTicks": 240,
          "midi": 47,
          "name": "B2",
          "ticks": 198720,
          "time": 138.332782,
          "velocity": 0.7874015748031497
        },
        {
          "duration": 0.6666639999999973,
          "durationTicks": 960,
          "midi": 72,
          "name": "C5",
          "ticks": 198960,
          "time": 138.499448,
          "velocity": 0.7874015748031497
        },
        {
          "duration": 0.1666659999999922,
          "durationTicks": 240,
          "midi": 36,
          "name": "C2",
          "ticks": 198960,
          "time": 138.499448,
          "velocity": 0.7874015748031497
        },
        {
          "duration": 0.16666600000002063,
          "durationTicks": 240,
          "midi": 48,
          "name": "C3",
          "ticks": 199200,
          "time": 138.666114,
          "velocity": 0.7874015748031497
        },
        {
          "duration": 0.1666659999999922,
          "durationTicks": 240,
          "midi": 36,
          "name": "C2",
          "ticks": 199440,
          "time": 138.83278,
          "velocity": 0.7874015748031497
        },
        {
          "duration": 0.1666659999999922,
          "durationTicks": 240,
          "midi": 48,
          "name": "C3",
          "ticks": 199680,
          "time": 138.999446,
          "velocity": 0.7874015748031497
        },
        {
          "duration": 0.16666600000002063,
          "durationTicks": 240,
          "midi": 57,
          "name": "A3",
          "ticks": 199920,
          "time": 139.166112,
          "velocity": 0.7874015748031497
        },
        {
          "duration": 0.16666600000002063,
          "durationTicks": 240,
          "midi": 34,
          "name": "A#1",
          "ticks": 199920,
          "time": 139.166112,
          "velocity": 0.7874015748031497
        },
        {
          "duration": 0.1666659999999922,
          "durationTicks": 240,
          "midi": 65,
          "name": "F4",
          "ticks": 200160,
          "time": 139.33277800000002,
          "velocity": 0.7874015748031497
        },
        {
          "duration": 0.1666659999999922,
          "durationTicks": 240,
          "midi": 46,
          "name": "A#2",
          "ticks": 200160,
          "time": 139.33277800000002,
          "velocity": 0.7874015748031497
        },
        {
          "duration": 0.0833329999999819,
          "durationTicks": 120,
          "midi": 64,
          "name": "E4",
          "ticks": 200400,
          "time": 139.499444,
          "velocity": 0.7874015748031497
        },
        {
          "duration": 0.1666659999999922,
          "durationTicks": 240,
          "midi": 34,
          "name": "A#1",
          "ticks": 200400,
          "time": 139.499444,
          "velocity": 0.7874015748031497
        },
        {
          "duration": 0.08333300000001032,
          "durationTicks": 120,
          "midi": 65,
          "name": "F4",
          "ticks": 200520,
          "time": 139.582777,
          "velocity": 0.7874015748031497
        },
        {
          "duration": 0.1666659999999922,
          "durationTicks": 240,
          "midi": 64,
          "name": "E4",
          "ticks": 200640,
          "time": 139.66611,
          "velocity": 0.7874015748031497
        },
        {
          "duration": 0.1666659999999922,
          "durationTicks": 240,
          "midi": 46,
          "name": "A#2",
          "ticks": 200640,
          "time": 139.66611,
          "velocity": 0.7874015748031497
        },
        {
          "duration": 0.16666600000002063,
          "durationTicks": 240,
          "midi": 67,
          "name": "G4",
          "ticks": 200880,
          "time": 139.832776,
          "velocity": 0.7874015748031497
        },
        {
          "duration": 0.16666600000002063,
          "durationTicks": 240,
          "midi": 36,
          "name": "C2",
          "ticks": 200880,
          "time": 139.832776,
          "velocity": 0.7874015748031497
        },
        {
          "duration": 0.1666659999999922,
          "durationTicks": 240,
          "midi": 65,
          "name": "F4",
          "ticks": 201120,
          "time": 139.99944200000002,
          "velocity": 0.7874015748031497
        },
        {
          "duration": 0.1666659999999922,
          "durationTicks": 240,
          "midi": 48,
          "name": "C3",
          "ticks": 201120,
          "time": 139.99944200000002,
          "velocity": 0.7874015748031497
        },
        {
          "duration": 0.08333300000001032,
          "durationTicks": 120,
          "midi": 64,
          "name": "E4",
          "ticks": 201360,
          "time": 140.166108,
          "velocity": 0.7874015748031497
        },
        {
          "duration": 0.1666659999999922,
          "durationTicks": 240,
          "midi": 36,
          "name": "C2",
          "ticks": 201360,
          "time": 140.166108,
          "velocity": 0.7874015748031497
        },
        {
          "duration": 0.0833329999999819,
          "durationTicks": 120,
          "midi": 65,
          "name": "F4",
          "ticks": 201480,
          "time": 140.24944100000002,
          "velocity": 0.7874015748031497
        },
        {
          "duration": 0.08333300000001032,
          "durationTicks": 120,
          "midi": 64,
          "name": "E4",
          "ticks": 201600,
          "time": 140.332774,
          "velocity": 0.7874015748031497
        },
        {
          "duration": 0.16666600000002063,
          "durationTicks": 240,
          "midi": 48,
          "name": "C3",
          "ticks": 201600,
          "time": 140.332774,
          "velocity": 0.7874015748031497
        },
        {
          "duration": 0.08333300000001032,
          "durationTicks": 120,
          "midi": 60,
          "name": "C4",
          "ticks": 201720,
          "time": 140.416107,
          "velocity": 0.7874015748031497
        },
        {
          "duration": 0.1666659999999922,
          "durationTicks": 240,
          "midi": 62,
          "name": "D4",
          "ticks": 201840,
          "time": 140.49944000000002,
          "velocity": 0.7874015748031497
        },
        {
          "duration": 0.1666659999999922,
          "durationTicks": 240,
          "midi": 38,
          "name": "D2",
          "ticks": 201840,
          "time": 140.49944000000002,
          "velocity": 0.7874015748031497
        },
        {
          "duration": 0.1666659999999922,
          "durationTicks": 240,
          "midi": 69,
          "name": "A4",
          "ticks": 202080,
          "time": 140.666106,
          "velocity": 0.7874015748031497
        },
        {
          "duration": 0.1666659999999922,
          "durationTicks": 240,
          "midi": 50,
          "name": "D3",
          "ticks": 202080,
          "time": 140.666106,
          "velocity": 0.7874015748031497
        },
        {
          "duration": 0.08333300000001032,
          "durationTicks": 120,
          "midi": 67,
          "name": "G4",
          "ticks": 202320,
          "time": 140.832772,
          "velocity": 0.7874015748031497
        },
        {
          "duration": 0.1666659999999922,
          "durationTicks": 240,
          "midi": 38,
          "name": "D2",
          "ticks": 202320,
          "time": 140.832772,
          "velocity": 0.7874015748031497
        },
        {
          "duration": 0.0833329999999819,
          "durationTicks": 120,
          "midi": 69,
          "name": "A4",
          "ticks": 202440,
          "time": 140.91610500000002,
          "velocity": 0.7874015748031497
        },
        {
          "duration": 0.08333300000001032,
          "durationTicks": 120,
          "midi": 67,
          "name": "G4",
          "ticks": 202560,
          "time": 140.999438,
          "velocity": 0.7874015748031497
        },
        {
          "duration": 0.16666600000002063,
          "durationTicks": 240,
          "midi": 50,
          "name": "D3",
          "ticks": 202560,
          "time": 140.999438,
          "velocity": 0.7874015748031497
        },
        {
          "duration": 0.08333300000001032,
          "durationTicks": 120,
          "midi": 69,
          "name": "A4",
          "ticks": 202680,
          "time": 141.082771,
          "velocity": 0.7874015748031497
        },
        {
          "duration": 0.1666659999999922,
          "durationTicks": 240,
          "midi": 72,
          "name": "C5",
          "ticks": 202800,
          "time": 141.16610400000002,
          "velocity": 0.7874015748031497
        },
        {
          "duration": 0.1666659999999922,
          "durationTicks": 240,
          "midi": 38,
          "name": "D2",
          "ticks": 202800,
          "time": 141.16610400000002,
          "velocity": 0.7874015748031497
        },
        {
          "duration": 0.1666659999999922,
          "durationTicks": 240,
          "midi": 69,
          "name": "A4",
          "ticks": 203040,
          "time": 141.33277,
          "velocity": 0.7874015748031497
        },
        {
          "duration": 0.1666659999999922,
          "durationTicks": 240,
          "midi": 50,
          "name": "D3",
          "ticks": 203040,
          "time": 141.33277,
          "velocity": 0.7874015748031497
        },
        {
          "duration": 0.1666659999999922,
          "durationTicks": 240,
          "midi": 67,
          "name": "G4",
          "ticks": 203280,
          "time": 141.499436,
          "velocity": 0.7874015748031497
        },
        {
          "duration": 0.1666659999999922,
          "durationTicks": 240,
          "midi": 36,
          "name": "C2",
          "ticks": 203280,
          "time": 141.499436,
          "velocity": 0.7874015748031497
        },
        {
          "duration": 0.16666600000002063,
          "durationTicks": 240,
          "midi": 69,
          "name": "A4",
          "ticks": 203520,
          "time": 141.666102,
          "velocity": 0.7874015748031497
        },
        {
          "duration": 0.16666600000002063,
          "durationTicks": 240,
          "midi": 48,
          "name": "C3",
          "ticks": 203520,
          "time": 141.666102,
          "velocity": 0.7874015748031497
        },
        {
          "duration": 0.1666659999999922,
          "durationTicks": 240,
          "midi": 57,
          "name": "A3",
          "ticks": 203760,
          "time": 141.83276800000002,
          "velocity": 0.7874015748031497
        },
        {
          "duration": 0.1666659999999922,
          "durationTicks": 240,
          "midi": 34,
          "name": "A#1",
          "ticks": 203760,
          "time": 141.83276800000002,
          "velocity": 0.7874015748031497
        },
        {
          "duration": 0.1666659999999922,
          "durationTicks": 240,
          "midi": 65,
          "name": "F4",
          "ticks": 204000,
          "time": 141.999434,
          "velocity": 0.7874015748031497
        },
        {
          "duration": 0.1666659999999922,
          "durationTicks": 240,
          "midi": 46,
          "name": "A#2",
          "ticks": 204000,
          "time": 141.999434,
          "velocity": 0.7874015748031497
        },
        {
          "duration": 0.08333300000001032,
          "durationTicks": 120,
          "midi": 64,
          "name": "E4",
          "ticks": 204240,
          "time": 142.1661,
          "velocity": 0.7874015748031497
        },
        {
          "duration": 0.16666600000002063,
          "durationTicks": 240,
          "midi": 34,
          "name": "A#1",
          "ticks": 204240,
          "time": 142.1661,
          "velocity": 0.7874015748031497
        },
        {
          "duration": 0.08333300000001032,
          "durationTicks": 120,
          "midi": 65,
          "name": "F4",
          "ticks": 204360,
          "time": 142.249433,
          "velocity": 0.7874015748031497
        },
        {
          "duration": 0.1666659999999922,
          "durationTicks": 240,
          "midi": 64,
          "name": "E4",
          "ticks": 204480,
          "time": 142.33276600000002,
          "velocity": 0.7874015748031497
        },
        {
          "duration": 0.1666659999999922,
          "durationTicks": 240,
          "midi": 46,
          "name": "A#2",
          "ticks": 204480,
          "time": 142.33276600000002,
          "velocity": 0.7874015748031497
        },
        {
          "duration": 0.1666659999999922,
          "durationTicks": 240,
          "midi": 67,
          "name": "G4",
          "ticks": 204720,
          "time": 142.499432,
          "velocity": 0.7874015748031497
        },
        {
          "duration": 0.1666659999999922,
          "durationTicks": 240,
          "midi": 36,
          "name": "C2",
          "ticks": 204720,
          "time": 142.499432,
          "velocity": 0.7874015748031497
        },
        {
          "duration": 0.1666659999999922,
          "durationTicks": 240,
          "midi": 65,
          "name": "F4",
          "ticks": 204960,
          "time": 142.666098,
          "velocity": 0.7874015748031497
        },
        {
          "duration": 0.1666659999999922,
          "durationTicks": 240,
          "midi": 48,
          "name": "C3",
          "ticks": 204960,
          "time": 142.666098,
          "velocity": 0.7874015748031497
        },
        {
          "duration": 0.08333300000001032,
          "durationTicks": 120,
          "midi": 64,
          "name": "E4",
          "ticks": 205200,
          "time": 142.832764,
          "velocity": 0.7874015748031497
        },
        {
          "duration": 0.16666600000002063,
          "durationTicks": 240,
          "midi": 36,
          "name": "C2",
          "ticks": 205200,
          "time": 142.832764,
          "velocity": 0.7874015748031497
        },
        {
          "duration": 0.08333300000001032,
          "durationTicks": 120,
          "midi": 65,
          "name": "F4",
          "ticks": 205320,
          "time": 142.916097,
          "velocity": 0.7874015748031497
        },
        {
          "duration": 0.0833329999999819,
          "durationTicks": 120,
          "midi": 64,
          "name": "E4",
          "ticks": 205440,
          "time": 142.99943000000002,
          "velocity": 0.7874015748031497
        },
        {
          "duration": 0.1666659999999922,
          "durationTicks": 240,
          "midi": 48,
          "name": "C3",
          "ticks": 205440,
          "time": 142.99943000000002,
          "velocity": 0.7874015748031497
        },
        {
          "duration": 0.08333300000001032,
          "durationTicks": 120,
          "midi": 60,
          "name": "C4",
          "ticks": 205560,
          "time": 143.082763,
          "velocity": 0.7874015748031497
        },
        {
          "duration": 0.1666659999999922,
          "durationTicks": 240,
          "midi": 62,
          "name": "D4",
          "ticks": 205680,
          "time": 143.166096,
          "velocity": 0.7874015748031497
        },
        {
          "duration": 0.1666659999999922,
          "durationTicks": 240,
          "midi": 38,
          "name": "D2",
          "ticks": 205680,
          "time": 143.166096,
          "velocity": 0.7874015748031497
        },
        {
          "duration": 0.1666659999999922,
          "durationTicks": 240,
          "midi": 69,
          "name": "A4",
          "ticks": 205920,
          "time": 143.332762,
          "velocity": 0.7874015748031497
        },
        {
          "duration": 0.1666659999999922,
          "durationTicks": 240,
          "midi": 50,
          "name": "D3",
          "ticks": 205920,
          "time": 143.332762,
          "velocity": 0.7874015748031497
        },
        {
          "duration": 0.08333300000001032,
          "durationTicks": 120,
          "midi": 67,
          "name": "G4",
          "ticks": 206160,
          "time": 143.499428,
          "velocity": 0.7874015748031497
        },
        {
          "duration": 0.16666600000002063,
          "durationTicks": 240,
          "midi": 40,
          "name": "E2",
          "ticks": 206160,
          "time": 143.499428,
          "velocity": 0.7874015748031497
        },
        {
          "duration": 0.08333300000001032,
          "durationTicks": 120,
          "midi": 69,
          "name": "A4",
          "ticks": 206280,
          "time": 143.582761,
          "velocity": 0.7874015748031497
        },
        {
          "duration": 0.0833329999999819,
          "durationTicks": 120,
          "midi": 67,
          "name": "G4",
          "ticks": 206400,
          "time": 143.66609400000002,
          "velocity": 0.7874015748031497
        },
        {
          "duration": 0.1666659999999922,
          "durationTicks": 240,
          "midi": 52,
          "name": "E3",
          "ticks": 206400,
          "time": 143.66609400000002,
          "velocity": 0.7874015748031497
        },
        {
          "duration": 0.08333300000001032,
          "durationTicks": 120,
          "midi": 69,
          "name": "A4",
          "ticks": 206520,
          "time": 143.749427,
          "velocity": 0.7874015748031497
        },
        {
          "duration": 0.1666659999999922,
          "durationTicks": 240,
          "midi": 73,
          "name": "C#5",
          "ticks": 206640,
          "time": 143.83276,
          "velocity": 0.7874015748031497
        },
        {
          "duration": 0.1666659999999922,
          "durationTicks": 240,
          "midi": 41,
          "name": "F2",
          "ticks": 206640,
          "time": 143.83276,
          "velocity": 0.7874015748031497
        },
        {
          "duration": 0.16666600000002063,
          "durationTicks": 240,
          "midi": 69,
          "name": "A4",
          "ticks": 206880,
          "time": 143.999426,
          "velocity": 0.7874015748031497
        },
        {
          "duration": 0.16666600000002063,
          "durationTicks": 240,
          "midi": 53,
          "name": "F3",
          "ticks": 206880,
          "time": 143.999426,
          "velocity": 0.7874015748031497
        },
        {
          "duration": 0.1666659999999922,
          "durationTicks": 240,
          "midi": 67,
          "name": "G4",
          "ticks": 207120,
          "time": 144.16609200000002,
          "velocity": 0.7874015748031497
        },
        {
          "duration": 0.1666659999999922,
          "durationTicks": 240,
          "midi": 43,
          "name": "G2",
          "ticks": 207120,
          "time": 144.16609200000002,
          "velocity": 0.7874015748031497
        },
        {
          "duration": 0.1666659999999922,
          "durationTicks": 240,
          "midi": 69,
          "name": "A4",
          "ticks": 207360,
          "time": 144.332758,
          "velocity": 0.7874015748031497
        },
        {
          "duration": 0.1666659999999922,
          "durationTicks": 240,
          "midi": 55,
          "name": "G3",
          "ticks": 207360,
          "time": 144.332758,
          "velocity": 0.7874015748031497
        },
        {
          "duration": 0.1666659999999922,
          "durationTicks": 240,
          "midi": 57,
          "name": "A3",
          "ticks": 207600,
          "time": 144.499424,
          "velocity": 0.7874015748031497
        },
        {
          "duration": 0.1666659999999922,
          "durationTicks": 240,
          "midi": 34,
          "name": "A#1",
          "ticks": 207600,
          "time": 144.499424,
          "velocity": 0.7874015748031497
        },
        {
          "duration": 0.16666600000002063,
          "durationTicks": 240,
          "midi": 65,
          "name": "F4",
          "ticks": 207840,
          "time": 144.66609,
          "velocity": 0.7874015748031497
        },
        {
          "duration": 0.16666600000002063,
          "durationTicks": 240,
          "midi": 46,
          "name": "A#2",
          "ticks": 207840,
          "time": 144.66609,
          "velocity": 0.7874015748031497
        },
        {
          "duration": 0.0833329999999819,
          "durationTicks": 120,
          "midi": 64,
          "name": "E4",
          "ticks": 208080,
          "time": 144.83275600000002,
          "velocity": 0.7874015748031497
        },
        {
          "duration": 0.1666659999999922,
          "durationTicks": 240,
          "midi": 34,
          "name": "A#1",
          "ticks": 208080,
          "time": 144.83275600000002,
          "velocity": 0.7874015748031497
        },
        {
          "duration": 0.08333300000001032,
          "durationTicks": 120,
          "midi": 65,
          "name": "F4",
          "ticks": 208200,
          "time": 144.916089,
          "velocity": 0.7874015748031497
        },
        {
          "duration": 0.1666659999999922,
          "durationTicks": 240,
          "midi": 64,
          "name": "E4",
          "ticks": 208320,
          "time": 144.999422,
          "velocity": 0.7874015748031497
        },
        {
          "duration": 0.1666659999999922,
          "durationTicks": 240,
          "midi": 46,
          "name": "A#2",
          "ticks": 208320,
          "time": 144.999422,
          "velocity": 0.7874015748031497
        },
        {
          "duration": 0.1666659999999922,
          "durationTicks": 240,
          "midi": 67,
          "name": "G4",
          "ticks": 208560,
          "time": 145.166088,
          "velocity": 0.7874015748031497
        },
        {
          "duration": 0.1666659999999922,
          "durationTicks": 240,
          "midi": 36,
          "name": "C2",
          "ticks": 208560,
          "time": 145.166088,
          "velocity": 0.7874015748031497
        },
        {
          "duration": 0.16666600000002063,
          "durationTicks": 240,
          "midi": 65,
          "name": "F4",
          "ticks": 208800,
          "time": 145.332754,
          "velocity": 0.7874015748031497
        },
        {
          "duration": 0.16666600000002063,
          "durationTicks": 240,
          "midi": 48,
          "name": "C3",
          "ticks": 208800,
          "time": 145.332754,
          "velocity": 0.7874015748031497
        },
        {
          "duration": 0.0833329999999819,
          "durationTicks": 120,
          "midi": 64,
          "name": "E4",
          "ticks": 209040,
          "time": 145.49942000000001,
          "velocity": 0.7874015748031497
        },
        {
          "duration": 0.1666659999999922,
          "durationTicks": 240,
          "midi": 36,
          "name": "C2",
          "ticks": 209040,
          "time": 145.49942000000001,
          "velocity": 0.7874015748031497
        },
        {
          "duration": 0.08333300000001032,
          "durationTicks": 120,
          "midi": 65,
          "name": "F4",
          "ticks": 209160,
          "time": 145.582753,
          "velocity": 0.7874015748031497
        },
        {
          "duration": 0.08333300000001032,
          "durationTicks": 120,
          "midi": 64,
          "name": "E4",
          "ticks": 209280,
          "time": 145.666086,
          "velocity": 0.7874015748031497
        },
        {
          "duration": 0.1666659999999922,
          "durationTicks": 240,
          "midi": 48,
          "name": "C3",
          "ticks": 209280,
          "time": 145.666086,
          "velocity": 0.7874015748031497
        },
        {
          "duration": 0.0833329999999819,
          "durationTicks": 120,
          "midi": 60,
          "name": "C4",
          "ticks": 209400,
          "time": 145.74941900000002,
          "velocity": 0.7874015748031497
        },
        {
          "duration": 0.16666600000002063,
          "durationTicks": 240,
          "midi": 62,
          "name": "D4",
          "ticks": 209520,
          "time": 145.832752,
          "velocity": 0.7874015748031497
        },
        {
          "duration": 0.16666600000002063,
          "durationTicks": 240,
          "midi": 38,
          "name": "D2",
          "ticks": 209520,
          "time": 145.832752,
          "velocity": 0.7874015748031497
        },
        {
          "duration": 0.1666659999999922,
          "durationTicks": 240,
          "midi": 69,
          "name": "A4",
          "ticks": 209760,
          "time": 145.99941800000002,
          "velocity": 0.7874015748031497
        },
        {
          "duration": 0.1666659999999922,
          "durationTicks": 240,
          "midi": 50,
          "name": "D3",
          "ticks": 209760,
          "time": 145.99941800000002,
          "velocity": 0.7874015748031497
        },
        {
          "duration": 0.0833329999999819,
          "durationTicks": 120,
          "midi": 67,
          "name": "G4",
          "ticks": 210000,
          "time": 146.166084,
          "velocity": 0.7874015748031497
        },
        {
          "duration": 0.1666659999999922,
          "durationTicks": 240,
          "midi": 38,
          "name": "D2",
          "ticks": 210000,
          "time": 146.166084,
          "velocity": 0.7874015748031497
        },
        {
          "duration": 0.08333300000001032,
          "durationTicks": 120,
          "midi": 69,
          "name": "A4",
          "ticks": 210120,
          "time": 146.249417,
          "velocity": 0.7874015748031497
        },
        {
          "duration": 0.08333300000001032,
          "durationTicks": 120,
          "midi": 67,
          "name": "G4",
          "ticks": 210240,
          "time": 146.33275,
          "velocity": 0.7874015748031497
        },
        {
          "duration": 0.1666659999999922,
          "durationTicks": 240,
          "midi": 50,
          "name": "D3",
          "ticks": 210240,
          "time": 146.33275,
          "velocity": 0.7874015748031497
        },
        {
          "duration": 0.0833329999999819,
          "durationTicks": 120,
          "midi": 69,
          "name": "A4",
          "ticks": 210360,
          "time": 146.41608300000001,
          "velocity": 0.7874015748031497
        },
        {
          "duration": 0.16666600000002063,
          "durationTicks": 240,
          "midi": 72,
          "name": "C5",
          "ticks": 210480,
          "time": 146.499416,
          "velocity": 0.7874015748031497
        },
        {
          "duration": 0.16666600000002063,
          "durationTicks": 240,
          "midi": 38,
          "name": "D2",
          "ticks": 210480,
          "time": 146.499416,
          "velocity": 0.7874015748031497
        },
        {
          "duration": 0.1666659999999922,
          "durationTicks": 240,
          "midi": 69,
          "name": "A4",
          "ticks": 210720,
          "time": 146.66608200000002,
          "velocity": 0.7874015748031497
        },
        {
          "duration": 0.1666659999999922,
          "durationTicks": 240,
          "midi": 50,
          "name": "D3",
          "ticks": 210720,
          "time": 146.66608200000002,
          "velocity": 0.7874015748031497
        },
        {
          "duration": 0.1666659999999922,
          "durationTicks": 240,
          "midi": 65,
          "name": "F4",
          "ticks": 210960,
          "time": 146.832748,
          "velocity": 0.7874015748031497
        },
        {
          "duration": 0.1666659999999922,
          "durationTicks": 240,
          "midi": 36,
          "name": "C2",
          "ticks": 210960,
          "time": 146.832748,
          "velocity": 0.7874015748031497
        },
        {
          "duration": 0.1666659999999922,
          "durationTicks": 240,
          "midi": 66,
          "name": "F#4",
          "ticks": 211200,
          "time": 146.999414,
          "velocity": 0.7874015748031497
        },
        {
          "duration": 0.1666659999999922,
          "durationTicks": 240,
          "midi": 48,
          "name": "C3",
          "ticks": 211200,
          "time": 146.999414,
          "velocity": 0.7874015748031497
        },
        {
          "duration": 0.16666600000002063,
          "durationTicks": 240,
          "midi": 67,
          "name": "G4",
          "ticks": 211440,
          "time": 147.16608,
          "velocity": 0.7874015748031497
        },
        {
          "duration": 0.16666600000002063,
          "durationTicks": 240,
          "midi": 31,
          "name": "G1",
          "ticks": 211440,
          "time": 147.16608,
          "velocity": 0.7874015748031497
        },
        {
          "duration": 0.0833329999999819,
          "durationTicks": 120,
          "midi": 58,
          "name": "A#3",
          "ticks": 211680,
          "time": 147.33274600000001,
          "velocity": 0.7874015748031497
        },
        {
          "duration": 0.1666659999999922,
          "durationTicks": 240,
          "midi": 43,
          "name": "G2",
          "ticks": 211680,
          "time": 147.33274600000001,
          "velocity": 0.7874015748031497
        },
        {
          "duration": 0.08333300000001032,
          "durationTicks": 120,
          "midi": 67,
          "name": "G4",
          "ticks": 211800,
          "time": 147.416079,
          "velocity": 0.7874015748031497
        },
        {
          "duration": 0.1666659999999922,
          "durationTicks": 240,
          "midi": 58,
          "name": "A#3",
          "ticks": 211920,
          "time": 147.499412,
          "velocity": 0.7874015748031497
        },
        {
          "duration": 0.1666659999999922,
          "durationTicks": 240,
          "midi": 31,
          "name": "G1",
          "ticks": 211920,
          "time": 147.499412,
          "velocity": 0.7874015748031497
        },
        {
          "duration": 0.16666600000002063,
          "durationTicks": 240,
          "midi": 67,
          "name": "G4",
          "ticks": 212160,
          "time": 147.666078,
          "velocity": 0.7874015748031497
        },
        {
          "duration": 0.16666600000002063,
          "durationTicks": 240,
          "midi": 43,
          "name": "G2",
          "ticks": 212160,
          "time": 147.666078,
          "velocity": 0.7874015748031497
        },
        {
          "duration": 0.1666659999999922,
          "durationTicks": 240,
          "midi": 69,
          "name": "A4",
          "ticks": 212400,
          "time": 147.83274400000002,
          "velocity": 0.7874015748031497
        },
        {
          "duration": 0.1666659999999922,
          "durationTicks": 240,
          "midi": 33,
          "name": "A1",
          "ticks": 212400,
          "time": 147.83274400000002,
          "velocity": 0.7874015748031497
        },
        {
          "duration": 0.0833329999999819,
          "durationTicks": 120,
          "midi": 60,
          "name": "C4",
          "ticks": 212640,
          "time": 147.99941,
          "velocity": 0.7874015748031497
        },
        {
          "duration": 0.1666659999999922,
          "durationTicks": 240,
          "midi": 45,
          "name": "A2",
          "ticks": 212640,
          "time": 147.99941,
          "velocity": 0.7874015748031497
        },
        {
          "duration": 0.08333300000001032,
          "durationTicks": 120,
          "midi": 69,
          "name": "A4",
          "ticks": 212760,
          "time": 148.082743,
          "velocity": 0.7874015748031497
        },
        {
          "duration": 0.1666659999999922,
          "durationTicks": 240,
          "midi": 60,
          "name": "C4",
          "ticks": 212880,
          "time": 148.166076,
          "velocity": 0.7874015748031497
        },
        {
          "duration": 0.1666659999999922,
          "durationTicks": 240,
          "midi": 33,
          "name": "A1",
          "ticks": 212880,
          "time": 148.166076,
          "velocity": 0.7874015748031497
        },
        {
          "duration": 0.16666600000002063,
          "durationTicks": 240,
          "midi": 69,
          "name": "A4",
          "ticks": 213120,
          "time": 148.332742,
          "velocity": 0.7874015748031497
        },
        {
          "duration": 0.33333200000001284,
          "durationTicks": 480,
          "midi": 34,
          "name": "A#1",
          "ticks": 213120,
          "time": 148.332742,
          "velocity": 0.7874015748031497
        },
        {
          "duration": 0.33333200000001284,
          "durationTicks": 480,
          "midi": 46,
          "name": "A#2",
          "ticks": 213120,
          "time": 148.332742,
          "velocity": 0.7874015748031497
        },
        {
          "duration": 0.1666659999999922,
          "durationTicks": 240,
          "midi": 70,
          "name": "A#4",
          "ticks": 213360,
          "time": 148.49940800000002,
          "velocity": 0.7874015748031497
        },
        {
          "duration": 0.08333300000001032,
          "durationTicks": 120,
          "midi": 77,
          "name": "F5",
          "ticks": 213600,
          "time": 148.666074,
          "velocity": 0.7874015748031497
        },
        {
          "duration": 0.1666659999999922,
          "durationTicks": 240,
          "midi": 46,
          "name": "A#2",
          "ticks": 213600,
          "time": 148.666074,
          "velocity": 0.7874015748031497
        },
        {
          "duration": 0.1666659999999922,
          "durationTicks": 240,
          "midi": 34,
          "name": "A#1",
          "ticks": 213600,
          "time": 148.666074,
          "velocity": 0.7874015748031497
        },
        {
          "duration": 0.0833329999999819,
          "durationTicks": 120,
          "midi": 77,
          "name": "F5",
          "ticks": 213720,
          "time": 148.74940700000002,
          "velocity": 0.7874015748031497
        },
        {
          "duration": 0.16666600000002063,
          "durationTicks": 240,
          "midi": 76,
          "name": "E5",
          "ticks": 213840,
          "time": 148.83274,
          "velocity": 0.7874015748031497
        },
        {
          "duration": 0.16666600000002063,
          "durationTicks": 240,
          "midi": 35,
          "name": "B1",
          "ticks": 213840,
          "time": 148.83274,
          "velocity": 0.7874015748031497
        },
        {
          "duration": 0.16666600000002063,
          "durationTicks": 240,
          "midi": 47,
          "name": "B2",
          "ticks": 213840,
          "time": 148.83274,
          "velocity": 0.7874015748031497
        },
        {
          "duration": 0.1666659999999922,
          "durationTicks": 240,
          "midi": 74,
          "name": "D5",
          "ticks": 214080,
          "time": 148.99940600000002,
          "velocity": 0.7874015748031497
        },
        {
          "duration": 0.1666659999999922,
          "durationTicks": 240,
          "midi": 47,
          "name": "B2",
          "ticks": 214080,
          "time": 148.99940600000002,
          "velocity": 0.7874015748031497
        },
        {
          "duration": 0.1666659999999922,
          "durationTicks": 240,
          "midi": 35,
          "name": "B1",
          "ticks": 214080,
          "time": 148.99940600000002,
          "velocity": 0.7874015748031497
        },
        {
          "duration": 0.6666639999999973,
          "durationTicks": 960,
          "midi": 76,
          "name": "E5",
          "ticks": 214320,
          "time": 149.166072,
          "velocity": 0.7874015748031497
        },
        {
          "duration": 0.6666639999999973,
          "durationTicks": 960,
          "midi": 36,
          "name": "C2",
          "ticks": 214320,
          "time": 149.166072,
          "velocity": 0.7874015748031497
        },
        {
          "duration": 0.6666639999999973,
          "durationTicks": 960,
          "midi": 48,
          "name": "C3",
          "ticks": 214320,
          "time": 149.166072,
          "velocity": 0.7874015748031497
        },
        {
          "duration": 0.1666659999999922,
          "durationTicks": 240,
          "midi": 58,
          "name": "A#3",
          "ticks": 215280,
          "time": 149.832736,
          "velocity": 0.7874015748031497
        },
        {
          "duration": 0.1666659999999922,
          "durationTicks": 240,
          "midi": 35,
          "name": "B1",
          "ticks": 215280,
          "time": 149.832736,
          "velocity": 0.7874015748031497
        },
        {
          "duration": 0.1666659999999922,
          "durationTicks": 240,
          "midi": 66,
          "name": "F#4",
          "ticks": 215520,
          "time": 149.999402,
          "velocity": 0.7874015748031497
        },
        {
          "duration": 0.1666659999999922,
          "durationTicks": 240,
          "midi": 47,
          "name": "B2",
          "ticks": 215520,
          "time": 149.999402,
          "velocity": 0.7874015748031497
        },
        {
          "duration": 0.08333300000001032,
          "durationTicks": 120,
          "midi": 65,
          "name": "F4",
          "ticks": 215760,
          "time": 150.166068,
          "velocity": 0.7874015748031497
        },
        {
          "duration": 0.16666600000002063,
          "durationTicks": 240,
          "midi": 35,
          "name": "B1",
          "ticks": 215760,
          "time": 150.166068,
          "velocity": 0.7874015748031497
        },
        {
          "duration": 0.08333300000001032,
          "durationTicks": 120,
          "midi": 66,
          "name": "F#4",
          "ticks": 215880,
          "time": 150.249401,
          "velocity": 0.7874015748031497
        },
        {
          "duration": 0.1666659999999922,
          "durationTicks": 240,
          "midi": 65,
          "name": "F4",
          "ticks": 216000,
          "time": 150.33273400000002,
          "velocity": 0.7874015748031497
        },
        {
          "duration": 0.1666659999999922,
          "durationTicks": 240,
          "midi": 47,
          "name": "B2",
          "ticks": 216000,
          "time": 150.33273400000002,
          "velocity": 0.7874015748031497
        },
        {
          "duration": 0.1666659999999922,
          "durationTicks": 240,
          "midi": 68,
          "name": "G#4",
          "ticks": 216240,
          "time": 150.4994,
          "velocity": 0.7874015748031497
        },
        {
          "duration": 0.1666659999999922,
          "durationTicks": 240,
          "midi": 37,
          "name": "C#2",
          "ticks": 216240,
          "time": 150.4994,
          "velocity": 0.7874015748031497
        },
        {
          "duration": 0.16666600000002063,
          "durationTicks": 240,
          "midi": 66,
          "name": "F#4",
          "ticks": 216480,
          "time": 150.666066,
          "velocity": 0.7874015748031497
        },
        {
          "duration": 0.16666600000002063,
          "durationTicks": 240,
          "midi": 49,
          "name": "C#3",
          "ticks": 216480,
          "time": 150.666066,
          "velocity": 0.7874015748031497
        },
        {
          "duration": 0.0833329999999819,
          "durationTicks": 120,
          "midi": 65,
          "name": "F4",
          "ticks": 216720,
          "time": 150.83273200000002,
          "velocity": 0.7874015748031497
        },
        {
          "duration": 0.1666659999999922,
          "durationTicks": 240,
          "midi": 37,
          "name": "C#2",
          "ticks": 216720,
          "time": 150.83273200000002,
          "velocity": 0.7874015748031497
        },
        {
          "duration": 0.08333300000001032,
          "durationTicks": 120,
          "midi": 66,
          "name": "F#4",
          "ticks": 216840,
          "time": 150.916065,
          "velocity": 0.7874015748031497
        },
        {
          "duration": 0.0833329999999819,
          "durationTicks": 120,
          "midi": 65,
          "name": "F4",
          "ticks": 216960,
          "time": 150.999398,
          "velocity": 0.7874015748031497
        },
        {
          "duration": 0.1666659999999922,
          "durationTicks": 240,
          "midi": 49,
          "name": "C#3",
          "ticks": 216960,
          "time": 150.999398,
          "velocity": 0.7874015748031497
        },
        {
          "duration": 0.08333300000001032,
          "durationTicks": 120,
          "midi": 61,
          "name": "C#4",
          "ticks": 217080,
          "time": 151.082731,
          "velocity": 0.7874015748031497
        },
        {
          "duration": 0.1666659999999922,
          "durationTicks": 240,
          "midi": 63,
          "name": "D#4",
          "ticks": 217200,
          "time": 151.166064,
          "velocity": 0.7874015748031497
        },
        {
          "duration": 0.1666659999999922,
          "durationTicks": 240,
          "midi": 39,
          "name": "D#2",
          "ticks": 217200,
          "time": 151.166064,
          "velocity": 0.7874015748031497
        },
        {
          "duration": 0.16666600000002063,
          "durationTicks": 240,
          "midi": 70,
          "name": "A#4",
          "ticks": 217440,
          "time": 151.33273,
          "velocity": 0.7874015748031497
        },
        {
          "duration": 0.16666600000002063,
          "durationTicks": 240,
          "midi": 51,
          "name": "D#3",
          "ticks": 217440,
          "time": 151.33273,
          "velocity": 0.7874015748031497
        },
        {
          "duration": 0.0833329999999819,
          "durationTicks": 120,
          "midi": 68,
          "name": "G#4",
          "ticks": 217680,
          "time": 151.49939600000002,
          "velocity": 0.7874015748031497
        },
        {
          "duration": 0.1666659999999922,
          "durationTicks": 240,
          "midi": 39,
          "name": "D#2",
          "ticks": 217680,
          "time": 151.49939600000002,
          "velocity": 0.7874015748031497
        },
        {
          "duration": 0.08333300000001032,
          "durationTicks": 120,
          "midi": 70,
          "name": "A#4",
          "ticks": 217800,
          "time": 151.582729,
          "velocity": 0.7874015748031497
        },
        {
          "duration": 0.08333300000001032,
          "durationTicks": 120,
          "midi": 68,
          "name": "G#4",
          "ticks": 217920,
          "time": 151.666062,
          "velocity": 0.7874015748031497
        },
        {
          "duration": 0.1666659999999922,
          "durationTicks": 240,
          "midi": 51,
          "name": "D#3",
          "ticks": 217920,
          "time": 151.666062,
          "velocity": 0.7874015748031497
        },
        {
          "duration": 0.0833329999999819,
          "durationTicks": 120,
          "midi": 70,
          "name": "A#4",
          "ticks": 218040,
          "time": 151.74939500000002,
          "velocity": 0.7874015748031497
        },
        {
          "duration": 0.1666659999999922,
          "durationTicks": 240,
          "midi": 73,
          "name": "C#5",
          "ticks": 218160,
          "time": 151.832728,
          "velocity": 0.7874015748031497
        },
        {
          "duration": 0.1666659999999922,
          "durationTicks": 240,
          "midi": 39,
          "name": "D#2",
          "ticks": 218160,
          "time": 151.832728,
          "velocity": 0.7874015748031497
        },
        {
          "duration": 0.16666600000002063,
          "durationTicks": 240,
          "midi": 70,
          "name": "A#4",
          "ticks": 218400,
          "time": 151.999394,
          "velocity": 0.7874015748031497
        },
        {
          "duration": 0.16666600000002063,
          "durationTicks": 240,
          "midi": 51,
          "name": "D#3",
          "ticks": 218400,
          "time": 151.999394,
          "velocity": 0.7874015748031497
        },
        {
          "duration": 0.1666659999999922,
          "durationTicks": 240,
          "midi": 68,
          "name": "G#4",
          "ticks": 218640,
          "time": 152.16606000000002,
          "velocity": 0.7874015748031497
        },
        {
          "duration": 0.1666659999999922,
          "durationTicks": 240,
          "midi": 37,
          "name": "C#2",
          "ticks": 218640,
          "time": 152.16606000000002,
          "velocity": 0.7874015748031497
        },
        {
          "duration": 0.1666659999999922,
          "durationTicks": 240,
          "midi": 70,
          "name": "A#4",
          "ticks": 218880,
          "time": 152.332726,
          "velocity": 0.7874015748031497
        },
        {
          "duration": 0.1666659999999922,
          "durationTicks": 240,
          "midi": 49,
          "name": "C#3",
          "ticks": 218880,
          "time": 152.332726,
          "velocity": 0.7874015748031497
        },
        {
          "duration": 0.16666600000002063,
          "durationTicks": 240,
          "midi": 58,
          "name": "A#3",
          "ticks": 219120,
          "time": 152.499392,
          "velocity": 0.7874015748031497
        },
        {
          "duration": 0.16666600000002063,
          "durationTicks": 240,
          "midi": 35,
          "name": "B1",
          "ticks": 219120,
          "time": 152.499392,
          "velocity": 0.7874015748031497
        },
        {
          "duration": 0.1666659999999922,
          "durationTicks": 240,
          "midi": 66,
          "name": "F#4",
          "ticks": 219360,
          "time": 152.66605800000002,
          "velocity": 0.7874015748031497
        },
        {
          "duration": 0.1666659999999922,
          "durationTicks": 240,
          "midi": 47,
          "name": "B2",
          "ticks": 219360,
          "time": 152.66605800000002,
          "velocity": 0.7874015748031497
        },
        {
          "duration": 0.0833329999999819,
          "durationTicks": 120,
          "midi": 65,
          "name": "F4",
          "ticks": 219600,
          "time": 152.832724,
          "velocity": 0.7874015748031497
        },
        {
          "duration": 0.1666659999999922,
          "durationTicks": 240,
          "midi": 35,
          "name": "B1",
          "ticks": 219600,
          "time": 152.832724,
          "velocity": 0.7874015748031497
        },
        {
          "duration": 0.08333300000001032,
          "durationTicks": 120,
          "midi": 66,
          "name": "F#4",
          "ticks": 219720,
          "time": 152.916057,
          "velocity": 0.7874015748031497
        },
        {
          "duration": 0.1666659999999922,
          "durationTicks": 240,
          "midi": 65,
          "name": "F4",
          "ticks": 219840,
          "time": 152.99939,
          "velocity": 0.7874015748031497
        },
        {
          "duration": 0.1666659999999922,
          "durationTicks": 240,
          "midi": 47,
          "name": "B2",
          "ticks": 219840,
          "time": 152.99939,
          "velocity": 0.7874015748031497
        },
        {
          "duration": 0.16666600000002063,
          "durationTicks": 240,
          "midi": 68,
          "name": "G#4",
          "ticks": 220080,
          "time": 153.166056,
          "velocity": 0.7874015748031497
        },
        {
          "duration": 0.16666600000002063,
          "durationTicks": 240,
          "midi": 37,
          "name": "C#2",
          "ticks": 220080,
          "time": 153.166056,
          "velocity": 0.7874015748031497
        },
        {
          "duration": 0.1666659999999922,
          "durationTicks": 240,
          "midi": 66,
          "name": "F#4",
          "ticks": 220320,
          "time": 153.33272200000002,
          "velocity": 0.7874015748031497
        },
        {
          "duration": 0.1666659999999922,
          "durationTicks": 240,
          "midi": 49,
          "name": "C#3",
          "ticks": 220320,
          "time": 153.33272200000002,
          "velocity": 0.7874015748031497
        },
        {
          "duration": 0.08333300000001032,
          "durationTicks": 120,
          "midi": 65,
          "name": "F4",
          "ticks": 220560,
          "time": 153.499388,
          "velocity": 0.7874015748031497
        },
        {
          "duration": 0.1666659999999922,
          "durationTicks": 240,
          "midi": 37,
          "name": "C#2",
          "ticks": 220560,
          "time": 153.499388,
          "velocity": 0.7874015748031497
        },
        {
          "duration": 0.0833329999999819,
          "durationTicks": 120,
          "midi": 66,
          "name": "F#4",
          "ticks": 220680,
          "time": 153.58272100000002,
          "velocity": 0.7874015748031497
        },
        {
          "duration": 0.08333300000001032,
          "durationTicks": 120,
          "midi": 65,
          "name": "F4",
          "ticks": 220800,
          "time": 153.666054,
          "velocity": 0.7874015748031497
        },
        {
          "duration": 0.1666659999999922,
          "durationTicks": 240,
          "midi": 49,
          "name": "C#3",
          "ticks": 220800,
          "time": 153.666054,
          "velocity": 0.7874015748031497
        },
        {
          "duration": 0.0833329999999819,
          "durationTicks": 120,
          "midi": 61,
          "name": "C#4",
          "ticks": 220920,
          "time": 153.749387,
          "velocity": 0.7874015748031497
        },
        {
          "duration": 0.16666600000002063,
          "durationTicks": 240,
          "midi": 63,
          "name": "D#4",
          "ticks": 221040,
          "time": 153.83272,
          "velocity": 0.7874015748031497
        },
        {
          "duration": 0.16666600000002063,
          "durationTicks": 240,
          "midi": 39,
          "name": "D#2",
          "ticks": 221040,
          "time": 153.83272,
          "velocity": 0.7874015748031497
        },
        {
          "duration": 0.1666659999999922,
          "durationTicks": 240,
          "midi": 70,
          "name": "A#4",
          "ticks": 221280,
          "time": 153.99938600000002,
          "velocity": 0.7874015748031497
        },
        {
          "duration": 0.1666659999999922,
          "durationTicks": 240,
          "midi": 51,
          "name": "D#3",
          "ticks": 221280,
          "time": 153.99938600000002,
          "velocity": 0.7874015748031497
        },
        {
          "duration": 0.08333300000001032,
          "durationTicks": 120,
          "midi": 68,
          "name": "G#4",
          "ticks": 221520,
          "time": 154.166052,
          "velocity": 0.7874015748031497
        },
        {
          "duration": 0.1666659999999922,
          "durationTicks": 240,
          "midi": 41,
          "name": "F2",
          "ticks": 221520,
          "time": 154.166052,
          "velocity": 0.7874015748031497
        },
        {
          "duration": 0.0833329999999819,
          "durationTicks": 120,
          "midi": 70,
          "name": "A#4",
          "ticks": 221640,
          "time": 154.24938500000002,
          "velocity": 0.7874015748031497
        },
        {
          "duration": 0.08333300000001032,
          "durationTicks": 120,
          "midi": 68,
          "name": "G#4",
          "ticks": 221760,
          "time": 154.332718,
          "velocity": 0.7874015748031497
        },
        {
          "duration": 0.16666600000002063,
          "durationTicks": 240,
          "midi": 53,
          "name": "F3",
          "ticks": 221760,
          "time": 154.332718,
          "velocity": 0.7874015748031497
        },
        {
          "duration": 0.08333300000001032,
          "durationTicks": 120,
          "midi": 70,
          "name": "A#4",
          "ticks": 221880,
          "time": 154.416051,
          "velocity": 0.7874015748031497
        },
        {
          "duration": 0.1666659999999922,
          "durationTicks": 240,
          "midi": 74,
          "name": "D5",
          "ticks": 222000,
          "time": 154.49938400000002,
          "velocity": 0.7874015748031497
        },
        {
          "duration": 0.1666659999999922,
          "durationTicks": 240,
          "midi": 42,
          "name": "F#2",
          "ticks": 222000,
          "time": 154.49938400000002,
          "velocity": 0.7874015748031497
        },
        {
          "duration": 0.1666659999999922,
          "durationTicks": 240,
          "midi": 70,
          "name": "A#4",
          "ticks": 222240,
          "time": 154.66605,
          "velocity": 0.7874015748031497
        },
        {
          "duration": 0.1666659999999922,
          "durationTicks": 240,
          "midi": 54,
          "name": "F#3",
          "ticks": 222240,
          "time": 154.66605,
          "velocity": 0.7874015748031497
        },
        {
          "duration": 0.1666659999999922,
          "durationTicks": 240,
          "midi": 68,
          "name": "G#4",
          "ticks": 222480,
          "time": 154.832716,
          "velocity": 0.7874015748031497
        },
        {
          "duration": 0.1666659999999922,
          "durationTicks": 240,
          "midi": 44,
          "name": "G#2",
          "ticks": 222480,
          "time": 154.832716,
          "velocity": 0.7874015748031497
        },
        {
          "duration": 0.16666600000002063,
          "durationTicks": 240,
          "midi": 70,
          "name": "A#4",
          "ticks": 222720,
          "time": 154.999382,
          "velocity": 0.7874015748031497
        },
        {
          "duration": 0.16666600000002063,
          "durationTicks": 240,
          "midi": 56,
          "name": "G#3",
          "ticks": 222720,
          "time": 154.999382,
          "velocity": 0.7874015748031497
        },
        {
          "duration": 0.1666659999999922,
          "durationTicks": 240,
          "midi": 58,
          "name": "A#3",
          "ticks": 222960,
          "time": 155.16604800000002,
          "velocity": 0.7874015748031497
        },
        {
          "duration": 0.1666659999999922,
          "durationTicks": 240,
          "midi": 35,
          "name": "B1",
          "ticks": 222960,
          "time": 155.16604800000002,
          "velocity": 0.7874015748031497
        },
        {
          "duration": 0.1666659999999922,
          "durationTicks": 240,
          "midi": 66,
          "name": "F#4",
          "ticks": 223200,
          "time": 155.332714,
          "velocity": 0.7874015748031497
        },
        {
          "duration": 0.1666659999999922,
          "durationTicks": 240,
          "midi": 47,
          "name": "B2",
          "ticks": 223200,
          "time": 155.332714,
          "velocity": 0.7874015748031497
        },
        {
          "duration": 0.08333300000001032,
          "durationTicks": 120,
          "midi": 65,
          "name": "F4",
          "ticks": 223440,
          "time": 155.49938,
          "velocity": 0.7874015748031497
        },
        {
          "duration": 0.1666659999999922,
          "durationTicks": 240,
          "midi": 35,
          "name": "B1",
          "ticks": 223440,
          "time": 155.49938,
          "velocity": 0.7874015748031497
        },
        {
          "duration": 0.0833329999999819,
          "durationTicks": 120,
          "midi": 66,
          "name": "F#4",
          "ticks": 223560,
          "time": 155.582713,
          "velocity": 0.7874015748031497
        },
        {
          "duration": 0.16666600000002063,
          "durationTicks": 240,
          "midi": 65,
          "name": "F4",
          "ticks": 223680,
          "time": 155.666046,
          "velocity": 0.7874015748031497
        },
        {
          "duration": 0.16666600000002063,
          "durationTicks": 240,
          "midi": 47,
          "name": "B2",
          "ticks": 223680,
          "time": 155.666046,
          "velocity": 0.7874015748031497
        },
        {
          "duration": 0.1666659999999922,
          "durationTicks": 240,
          "midi": 68,
          "name": "G#4",
          "ticks": 223920,
          "time": 155.83271200000001,
          "velocity": 0.7874015748031497
        },
        {
          "duration": 0.1666659999999922,
          "durationTicks": 240,
          "midi": 37,
          "name": "C#2",
          "ticks": 223920,
          "time": 155.83271200000001,
          "velocity": 0.7874015748031497
        },
        {
          "duration": 0.1666659999999922,
          "durationTicks": 240,
          "midi": 66,
          "name": "F#4",
          "ticks": 224160,
          "time": 155.999378,
          "velocity": 0.7874015748031497
        },
        {
          "duration": 0.1666659999999922,
          "durationTicks": 240,
          "midi": 49,
          "name": "C#3",
          "ticks": 224160,
          "time": 155.999378,
          "velocity": 0.7874015748031497
        },
        {
          "duration": 0.08333300000001032,
          "durationTicks": 120,
          "midi": 65,
          "name": "F4",
          "ticks": 224400,
          "time": 156.166044,
          "velocity": 0.7874015748031497
        },
        {
          "duration": 0.16666600000002063,
          "durationTicks": 240,
          "midi": 37,
          "name": "C#2",
          "ticks": 224400,
          "time": 156.166044,
          "velocity": 0.7874015748031497
        },
        {
          "duration": 0.08333300000001032,
          "durationTicks": 120,
          "midi": 66,
          "name": "F#4",
          "ticks": 224520,
          "time": 156.249377,
          "velocity": 0.7874015748031497
        },
        {
          "duration": 0.0833329999999819,
          "durationTicks": 120,
          "midi": 65,
          "name": "F4",
          "ticks": 224640,
          "time": 156.33271000000002,
          "velocity": 0.7874015748031497
        },
        {
          "duration": 0.1666659999999922,
          "durationTicks": 240,
          "midi": 49,
          "name": "C#3",
          "ticks": 224640,
          "time": 156.33271000000002,
          "velocity": 0.7874015748031497
        },
        {
          "duration": 0.08333300000001032,
          "durationTicks": 120,
          "midi": 61,
          "name": "C#4",
          "ticks": 224760,
          "time": 156.416043,
          "velocity": 0.7874015748031497
        },
        {
          "duration": 0.1666659999999922,
          "durationTicks": 240,
          "midi": 63,
          "name": "D#4",
          "ticks": 224880,
          "time": 156.499376,
          "velocity": 0.7874015748031497
        },
        {
          "duration": 0.1666659999999922,
          "durationTicks": 240,
          "midi": 39,
          "name": "D#2",
          "ticks": 224880,
          "time": 156.499376,
          "velocity": 0.7874015748031497
        },
        {
          "duration": 0.1666659999999922,
          "durationTicks": 240,
          "midi": 70,
          "name": "A#4",
          "ticks": 225120,
          "time": 156.666042,
          "velocity": 0.7874015748031497
        },
        {
          "duration": 0.1666659999999922,
          "durationTicks": 240,
          "midi": 51,
          "name": "D#3",
          "ticks": 225120,
          "time": 156.666042,
          "velocity": 0.7874015748031497
        },
        {
          "duration": 0.08333300000001032,
          "durationTicks": 120,
          "midi": 68,
          "name": "G#4",
          "ticks": 225360,
          "time": 156.832708,
          "velocity": 0.7874015748031497
        },
        {
          "duration": 0.16666600000002063,
          "durationTicks": 240,
          "midi": 39,
          "name": "D#2",
          "ticks": 225360,
          "time": 156.832708,
          "velocity": 0.7874015748031497
        },
        {
          "duration": 0.08333300000001032,
          "durationTicks": 120,
          "midi": 70,
          "name": "A#4",
          "ticks": 225480,
          "time": 156.916041,
          "velocity": 0.7874015748031497
        },
        {
          "duration": 0.0833329999999819,
          "durationTicks": 120,
          "midi": 68,
          "name": "G#4",
          "ticks": 225600,
          "time": 156.99937400000002,
          "velocity": 0.7874015748031497
        },
        {
          "duration": 0.1666659999999922,
          "durationTicks": 240,
          "midi": 51,
          "name": "D#3",
          "ticks": 225600,
          "time": 156.99937400000002,
          "velocity": 0.7874015748031497
        },
        {
          "duration": 0.08333300000001032,
          "durationTicks": 120,
          "midi": 70,
          "name": "A#4",
          "ticks": 225720,
          "time": 157.082707,
          "velocity": 0.7874015748031497
        },
        {
          "duration": 0.1666659999999922,
          "durationTicks": 240,
          "midi": 73,
          "name": "C#5",
          "ticks": 225840,
          "time": 157.16604,
          "velocity": 0.7874015748031497
        },
        {
          "duration": 0.1666659999999922,
          "durationTicks": 240,
          "midi": 39,
          "name": "D#2",
          "ticks": 225840,
          "time": 157.16604,
          "velocity": 0.7874015748031497
        },
        {
          "duration": 0.1666659999999922,
          "durationTicks": 240,
          "midi": 70,
          "name": "A#4",
          "ticks": 226080,
          "time": 157.332706,
          "velocity": 0.7874015748031497
        },
        {
          "duration": 0.1666659999999922,
          "durationTicks": 240,
          "midi": 51,
          "name": "D#3",
          "ticks": 226080,
          "time": 157.332706,
          "velocity": 0.7874015748031497
        },
        {
          "duration": 0.16666600000002063,
          "durationTicks": 240,
          "midi": 66,
          "name": "F#4",
          "ticks": 226320,
          "time": 157.499372,
          "velocity": 0.7874015748031497
        },
        {
          "duration": 0.16666600000002063,
          "durationTicks": 240,
          "midi": 37,
          "name": "C#2",
          "ticks": 226320,
          "time": 157.499372,
          "velocity": 0.7874015748031497
        },
        {
          "duration": 0.1666659999999922,
          "durationTicks": 240,
          "midi": 67,
          "name": "G4",
          "ticks": 226560,
          "time": 157.66603800000001,
          "velocity": 0.7874015748031497
        },
        {
          "duration": 0.1666659999999922,
          "durationTicks": 240,
          "midi": 49,
          "name": "C#3",
          "ticks": 226560,
          "time": 157.66603800000001,
          "velocity": 0.7874015748031497
        },
        {
          "duration": 0.1666659999999922,
          "durationTicks": 240,
          "midi": 68,
          "name": "G#4",
          "ticks": 226800,
          "time": 157.832704,
          "velocity": 0.7874015748031497
        },
        {
          "duration": 0.1666659999999922,
          "durationTicks": 240,
          "midi": 32,
          "name": "G#1",
          "ticks": 226800,
          "time": 157.832704,
          "velocity": 0.7874015748031497
        },
        {
          "duration": 0.08333300000001032,
          "durationTicks": 120,
          "midi": 59,
          "name": "B3",
          "ticks": 227040,
          "time": 157.99937,
          "velocity": 0.7874015748031497
        },
        {
          "duration": 0.16666600000002063,
          "durationTicks": 240,
          "midi": 44,
          "name": "G#2",
          "ticks": 227040,
          "time": 157.99937,
          "velocity": 0.7874015748031497
        },
        {
          "duration": 0.08333300000001032,
          "durationTicks": 120,
          "midi": 68,
          "name": "G#4",
          "ticks": 227160,
          "time": 158.082703,
          "velocity": 0.7874015748031497
        },
        {
          "duration": 0.1666659999999922,
          "durationTicks": 240,
          "midi": 59,
          "name": "B3",
          "ticks": 227280,
          "time": 158.16603600000002,
          "velocity": 0.7874015748031497
        },
        {
          "duration": 0.1666659999999922,
          "durationTicks": 240,
          "midi": 32,
          "name": "G#1",
          "ticks": 227280,
          "time": 158.16603600000002,
          "velocity": 0.7874015748031497
        },
        {
          "duration": 0.1666659999999922,
          "durationTicks": 240,
          "midi": 68,
          "name": "G#4",
          "ticks": 227520,
          "time": 158.332702,
          "velocity": 0.7874015748031497
        },
        {
          "duration": 0.1666659999999922,
          "durationTicks": 240,
          "midi": 44,
          "name": "G#2",
          "ticks": 227520,
          "time": 158.332702,
          "velocity": 0.7874015748031497
        },
        {
          "duration": 0.1666659999999922,
          "durationTicks": 240,
          "midi": 70,
          "name": "A#4",
          "ticks": 227760,
          "time": 158.499368,
          "velocity": 0.7874015748031497
        },
        {
          "duration": 0.1666659999999922,
          "durationTicks": 240,
          "midi": 34,
          "name": "A#1",
          "ticks": 227760,
          "time": 158.499368,
          "velocity": 0.7874015748031497
        },
        {
          "duration": 0.08333300000001032,
          "durationTicks": 120,
          "midi": 61,
          "name": "C#4",
          "ticks": 228000,
          "time": 158.666034,
          "velocity": 0.7874015748031497
        },
        {
          "duration": 0.16666600000002063,
          "durationTicks": 240,
          "midi": 46,
          "name": "A#2",
          "ticks": 228000,
          "time": 158.666034,
          "velocity": 0.7874015748031497
        },
        {
          "duration": 0.08333300000001032,
          "durationTicks": 120,
          "midi": 70,
          "name": "A#4",
          "ticks": 228120,
          "time": 158.749367,
          "velocity": 0.7874015748031497
        },
        {
          "duration": 0.1666659999999922,
          "durationTicks": 240,
          "midi": 61,
          "name": "C#4",
          "ticks": 228240,
          "time": 158.83270000000002,
          "velocity": 0.7874015748031497
        },
        {
          "duration": 0.1666659999999922,
          "durationTicks": 240,
          "midi": 34,
          "name": "A#1",
          "ticks": 228240,
          "time": 158.83270000000002,
          "velocity": 0.7874015748031497
        },
        {
          "duration": 0.1666659999999922,
          "durationTicks": 240,
          "midi": 70,
          "name": "A#4",
          "ticks": 228480,
          "time": 158.999366,
          "velocity": 0.7874015748031497
        },
        {
          "duration": 0.1666659999999922,
          "durationTicks": 240,
          "midi": 46,
          "name": "A#2",
          "ticks": 228480,
          "time": 158.999366,
          "velocity": 0.7874015748031497
        },
        {
          "duration": 0.16666600000002063,
          "durationTicks": 240,
          "midi": 71,
          "name": "B4",
          "ticks": 228720,
          "time": 159.166032,
          "velocity": 0.7874015748031497
        },
        {
          "duration": 0.16666600000002063,
          "durationTicks": 240,
          "midi": 35,
          "name": "B1",
          "ticks": 228720,
          "time": 159.166032,
          "velocity": 0.7874015748031497
        },
        {
          "duration": 0.0833329999999819,
          "durationTicks": 120,
          "midi": 71,
          "name": "B4",
          "ticks": 228960,
          "time": 159.33269800000002,
          "velocity": 0.7874015748031497
        },
        {
          "duration": 0.1666659999999922,
          "durationTicks": 240,
          "midi": 47,
          "name": "B2",
          "ticks": 228960,
          "time": 159.33269800000002,
          "velocity": 0.7874015748031497
        },
        {
          "duration": 0.08333300000001032,
          "durationTicks": 120,
          "midi": 71,
          "name": "B4",
          "ticks": 229080,
          "time": 159.416031,
          "velocity": 0.7874015748031497
        },
        {
          "duration": 0.1666659999999922,
          "durationTicks": 240,
          "midi": 71,
          "name": "B4",
          "ticks": 229200,
          "time": 159.499364,
          "velocity": 0.7874015748031497
        },
        {
          "duration": 0.1666659999999922,
          "durationTicks": 240,
          "midi": 36,
          "name": "C2",
          "ticks": 229200,
          "time": 159.499364,
          "velocity": 0.7874015748031497
        },
        {
          "duration": 0.1666659999999922,
          "durationTicks": 240,
          "midi": 72,
          "name": "C5",
          "ticks": 229440,
          "time": 159.66603,
          "velocity": 0.7874015748031497
        },
        {
          "duration": 0.1666659999999922,
          "durationTicks": 240,
          "midi": 48,
          "name": "C3",
          "ticks": 229440,
          "time": 159.66603,
          "velocity": 0.7874015748031497
        },
        {
          "duration": 0.6666639999999973,
          "durationTicks": 960,
          "midi": 73,
          "name": "C#5",
          "ticks": 229680,
          "time": 159.832696,
          "velocity": 0.7874015748031497
        },
        {
          "duration": 0.16666600000002063,
          "durationTicks": 240,
          "midi": 37,
          "name": "C#2",
          "ticks": 229680,
          "time": 159.832696,
          "velocity": 0.7874015748031497
        },
        {
          "duration": 0.1666659999999922,
          "durationTicks": 240,
          "midi": 49,
          "name": "C#3",
          "ticks": 229920,
          "time": 159.99936200000002,
          "velocity": 0.7874015748031497
        },
        {
          "duration": 0.1666659999999922,
          "durationTicks": 240,
          "midi": 37,
          "name": "C#2",
          "ticks": 230160,
          "time": 160.166028,
          "velocity": 0.7874015748031497
        },
        {
          "duration": 0.1666659999999922,
          "durationTicks": 240,
          "midi": 49,
          "name": "C#3",
          "ticks": 230400,
          "time": 160.332694,
          "velocity": 0.7874015748031497
        },
        {
          "duration": 0.16666600000002063,
          "durationTicks": 240,
          "midi": 58,
          "name": "A#3",
          "ticks": 230640,
          "time": 160.49936,
          "velocity": 0.7874015748031497
        },
        {
          "duration": 0.16666600000002063,
          "durationTicks": 240,
          "midi": 35,
          "name": "B1",
          "ticks": 230640,
          "time": 160.49936,
          "velocity": 0.7874015748031497
        },
        {
          "duration": 0.1666659999999922,
          "durationTicks": 240,
          "midi": 66,
          "name": "F#4",
          "ticks": 230880,
          "time": 160.66602600000002,
          "velocity": 0.7874015748031497
        },
        {
          "duration": 0.1666659999999922,
          "durationTicks": 240,
          "midi": 47,
          "name": "B2",
          "ticks": 230880,
          "time": 160.66602600000002,
          "velocity": 0.7874015748031497
        },
        {
          "duration": 0.08333300000001032,
          "durationTicks": 120,
          "midi": 65,
          "name": "F4",
          "ticks": 231120,
          "time": 160.832692,
          "velocity": 0.7874015748031497
        },
        {
          "duration": 0.1666659999999922,
          "durationTicks": 240,
          "midi": 35,
          "name": "B1",
          "ticks": 231120,
          "time": 160.832692,
          "velocity": 0.7874015748031497
        },
        {
          "duration": 0.0833329999999819,
          "durationTicks": 120,
          "midi": 66,
          "name": "F#4",
          "ticks": 231240,
          "time": 160.91602500000002,
          "velocity": 0.7874015748031497
        },
        {
          "duration": 0.16666600000002063,
          "durationTicks": 240,
          "midi": 65,
          "name": "F4",
          "ticks": 231360,
          "time": 160.999358,
          "velocity": 0.7874015748031497
        },
        {
          "duration": 0.16666600000002063,
          "durationTicks": 240,
          "midi": 47,
          "name": "B2",
          "ticks": 231360,
          "time": 160.999358,
          "velocity": 0.7874015748031497
        },
        {
          "duration": 0.1666659999999922,
          "durationTicks": 240,
          "midi": 68,
          "name": "G#4",
          "ticks": 231600,
          "time": 161.16602400000002,
          "velocity": 0.7874015748031497
        },
        {
          "duration": 0.1666659999999922,
          "durationTicks": 240,
          "midi": 37,
          "name": "C#2",
          "ticks": 231600,
          "time": 161.16602400000002,
          "velocity": 0.7874015748031497
        },
        {
          "duration": 0.1666659999999922,
          "durationTicks": 240,
          "midi": 66,
          "name": "F#4",
          "ticks": 231840,
          "time": 161.33269,
          "velocity": 0.7874015748031497
        },
        {
          "duration": 0.1666659999999922,
          "durationTicks": 240,
          "midi": 49,
          "name": "C#3",
          "ticks": 231840,
          "time": 161.33269,
          "velocity": 0.7874015748031497
        },
        {
          "duration": 0.08333300000001032,
          "durationTicks": 120,
          "midi": 65,
          "name": "F4",
          "ticks": 232080,
          "time": 161.499356,
          "velocity": 0.7874015748031497
        },
        {
          "duration": 0.1666659999999922,
          "durationTicks": 240,
          "midi": 37,
          "name": "C#2",
          "ticks": 232080,
          "time": 161.499356,
          "velocity": 0.7874015748031497
        },
        {
          "duration": 0.0833329999999819,
          "durationTicks": 120,
          "midi": 66,
          "name": "F#4",
          "ticks": 232200,
          "time": 161.58268900000002,
          "velocity": 0.7874015748031497
        },
        {
          "duration": 0.08333300000001032,
          "durationTicks": 120,
          "midi": 65,
          "name": "F4",
          "ticks": 232320,
          "time": 161.666022,
          "velocity": 0.7874015748031497
        },
        {
          "duration": 0.16666600000002063,
          "durationTicks": 240,
          "midi": 49,
          "name": "C#3",
          "ticks": 232320,
          "time": 161.666022,
          "velocity": 0.7874015748031497
        },
        {
          "duration": 0.08333300000001032,
          "durationTicks": 120,
          "midi": 61,
          "name": "C#4",
          "ticks": 232440,
          "time": 161.749355,
          "velocity": 0.7874015748031497
        },
        {
          "duration": 0.1666659999999922,
          "durationTicks": 240,
          "midi": 63,
          "name": "D#4",
          "ticks": 232560,
          "time": 161.83268800000002,
          "velocity": 0.7874015748031497
        },
        {
          "duration": 0.1666659999999922,
          "durationTicks": 240,
          "midi": 39,
          "name": "D#2",
          "ticks": 232560,
          "time": 161.83268800000002,
          "velocity": 0.7874015748031497
        },
        {
          "duration": 0.1666659999999922,
          "durationTicks": 240,
          "midi": 70,
          "name": "A#4",
          "ticks": 232800,
          "time": 161.999354,
          "velocity": 0.7874015748031497
        },
        {
          "duration": 0.1666659999999922,
          "durationTicks": 240,
          "midi": 51,
          "name": "D#3",
          "ticks": 232800,
          "time": 161.999354,
          "velocity": 0.7874015748031497
        },
        {
          "duration": 0.08333300000001032,
          "durationTicks": 120,
          "midi": 68,
          "name": "G#4",
          "ticks": 233040,
          "time": 162.16602,
          "velocity": 0.7874015748031497
        },
        {
          "duration": 0.1666659999999922,
          "durationTicks": 240,
          "midi": 39,
          "name": "D#2",
          "ticks": 233040,
          "time": 162.16602,
          "velocity": 0.7874015748031497
        },
        {
          "duration": 0.0833329999999819,
          "durationTicks": 120,
          "midi": 70,
          "name": "A#4",
          "ticks": 233160,
          "time": 162.249353,
          "velocity": 0.7874015748031497
        },
        {
          "duration": 0.08333300000001032,
          "durationTicks": 120,
          "midi": 68,
          "name": "G#4",
          "ticks": 233280,
          "time": 162.332686,
          "velocity": 0.7874015748031497
        },
        {
          "duration": 0.16666600000002063,
          "durationTicks": 240,
          "midi": 51,
          "name": "D#3",
          "ticks": 233280,
          "time": 162.332686,
          "velocity": 0.7874015748031497
        },
        {
          "duration": 0.08333300000001032,
          "durationTicks": 120,
          "midi": 70,
          "name": "A#4",
          "ticks": 233400,
          "time": 162.416019,
          "velocity": 0.7874015748031497
        },
        {
          "duration": 0.1666659999999922,
          "durationTicks": 240,
          "midi": 73,
          "name": "C#5",
          "ticks": 233520,
          "time": 162.49935200000002,
          "velocity": 0.7874015748031497
        },
        {
          "duration": 0.1666659999999922,
          "durationTicks": 240,
          "midi": 39,
          "name": "D#2",
          "ticks": 233520,
          "time": 162.49935200000002,
          "velocity": 0.7874015748031497
        },
        {
          "duration": 0.1666659999999922,
          "durationTicks": 240,
          "midi": 70,
          "name": "A#4",
          "ticks": 233760,
          "time": 162.666018,
          "velocity": 0.7874015748031497
        },
        {
          "duration": 0.1666659999999922,
          "durationTicks": 240,
          "midi": 51,
          "name": "D#3",
          "ticks": 233760,
          "time": 162.666018,
          "velocity": 0.7874015748031497
        },
        {
          "duration": 0.16666600000002063,
          "durationTicks": 240,
          "midi": 68,
          "name": "G#4",
          "ticks": 234000,
          "time": 162.832684,
          "velocity": 0.7874015748031497
        },
        {
          "duration": 0.16666600000002063,
          "durationTicks": 240,
          "midi": 37,
          "name": "C#2",
          "ticks": 234000,
          "time": 162.832684,
          "velocity": 0.7874015748031497
        },
        {
          "duration": 0.1666659999999922,
          "durationTicks": 240,
          "midi": 70,
          "name": "A#4",
          "ticks": 234240,
          "time": 162.99935000000002,
          "velocity": 0.7874015748031497
        },
        {
          "duration": 0.1666659999999922,
          "durationTicks": 240,
          "midi": 49,
          "name": "C#3",
          "ticks": 234240,
          "time": 162.99935000000002,
          "velocity": 0.7874015748031497
        },
        {
          "duration": 0.1666659999999922,
          "durationTicks": 240,
          "midi": 58,
          "name": "A#3",
          "ticks": 234480,
          "time": 163.166016,
          "velocity": 0.7874015748031497
        },
        {
          "duration": 0.1666659999999922,
          "durationTicks": 240,
          "midi": 35,
          "name": "B1",
          "ticks": 234480,
          "time": 163.166016,
          "velocity": 0.7874015748031497
        },
        {
          "duration": 0.1666659999999922,
          "durationTicks": 240,
          "midi": 66,
          "name": "F#4",
          "ticks": 234720,
          "time": 163.332682,
          "velocity": 0.7874015748031497
        },
        {
          "duration": 0.1666659999999922,
          "durationTicks": 240,
          "midi": 47,
          "name": "B2",
          "ticks": 234720,
          "time": 163.332682,
          "velocity": 0.7874015748031497
        },
        {
          "duration": 0.08333300000001032,
          "durationTicks": 120,
          "midi": 65,
          "name": "F4",
          "ticks": 234960,
          "time": 163.499348,
          "velocity": 0.7874015748031497
        },
        {
          "duration": 0.16666600000002063,
          "durationTicks": 240,
          "midi": 35,
          "name": "B1",
          "ticks": 234960,
          "time": 163.499348,
          "velocity": 0.7874015748031497
        },
        {
          "duration": 0.08333300000001032,
          "durationTicks": 120,
          "midi": 66,
          "name": "F#4",
          "ticks": 235080,
          "time": 163.582681,
          "velocity": 0.7874015748031497
        },
        {
          "duration": 0.1666659999999922,
          "durationTicks": 240,
          "midi": 65,
          "name": "F4",
          "ticks": 235200,
          "time": 163.66601400000002,
          "velocity": 0.7874015748031497
        },
        {
          "duration": 0.1666659999999922,
          "durationTicks": 240,
          "midi": 47,
          "name": "B2",
          "ticks": 235200,
          "time": 163.66601400000002,
          "velocity": 0.7874015748031497
        },
        {
          "duration": 0.1666659999999922,
          "durationTicks": 240,
          "midi": 68,
          "name": "G#4",
          "ticks": 235440,
          "time": 163.83268,
          "velocity": 0.7874015748031497
        },
        {
          "duration": 0.1666659999999922,
          "durationTicks": 240,
          "midi": 37,
          "name": "C#2",
          "ticks": 235440,
          "time": 163.83268,
          "velocity": 0.7874015748031497
        },
        {
          "duration": 0.1666659999999922,
          "durationTicks": 240,
          "midi": 66,
          "name": "F#4",
          "ticks": 235680,
          "time": 163.999346,
          "velocity": 0.7874015748031497
        },
        {
          "duration": 0.1666659999999922,
          "durationTicks": 240,
          "midi": 49,
          "name": "C#3",
          "ticks": 235680,
          "time": 163.999346,
          "velocity": 0.7874015748031497
        },
        {
          "duration": 0.08333300000001032,
          "durationTicks": 120,
          "midi": 65,
          "name": "F4",
          "ticks": 235920,
          "time": 164.166012,
          "velocity": 0.7874015748031497
        },
        {
          "duration": 0.16666600000002063,
          "durationTicks": 240,
          "midi": 37,
          "name": "C#2",
          "ticks": 235920,
          "time": 164.166012,
          "velocity": 0.7874015748031497
        },
        {
          "duration": 0.08333300000001032,
          "durationTicks": 120,
          "midi": 66,
          "name": "F#4",
          "ticks": 236040,
          "time": 164.249345,
          "velocity": 0.7874015748031497
        },
        {
          "duration": 0.0833329999999819,
          "durationTicks": 120,
          "midi": 65,
          "name": "F4",
          "ticks": 236160,
          "time": 164.33267800000002,
          "velocity": 0.7874015748031497
        },
        {
          "duration": 0.1666659999999922,
          "durationTicks": 240,
          "midi": 49,
          "name": "C#3",
          "ticks": 236160,
          "time": 164.33267800000002,
          "velocity": 0.7874015748031497
        },
        {
          "duration": 0.08333300000001032,
          "durationTicks": 120,
          "midi": 61,
          "name": "C#4",
          "ticks": 236280,
          "time": 164.416011,
          "velocity": 0.7874015748031497
        },
        {
          "duration": 0.1666659999999922,
          "durationTicks": 240,
          "midi": 63,
          "name": "D#4",
          "ticks": 236400,
          "time": 164.499344,
          "velocity": 0.7874015748031497
        },
        {
          "duration": 0.1666659999999922,
          "durationTicks": 240,
          "midi": 39,
          "name": "D#2",
          "ticks": 236400,
          "time": 164.499344,
          "velocity": 0.7874015748031497
        },
        {
          "duration": 0.16666600000002063,
          "durationTicks": 240,
          "midi": 70,
          "name": "A#4",
          "ticks": 236640,
          "time": 164.66601,
          "velocity": 0.7874015748031497
        },
        {
          "duration": 0.16666600000002063,
          "durationTicks": 240,
          "midi": 51,
          "name": "D#3",
          "ticks": 236640,
          "time": 164.66601,
          "velocity": 0.7874015748031497
        },
        {
          "duration": 0.0833329999999819,
          "durationTicks": 120,
          "midi": 68,
          "name": "G#4",
          "ticks": 236880,
          "time": 164.83267600000002,
          "velocity": 0.7874015748031497
        },
        {
          "duration": 0.1666659999999922,
          "durationTicks": 240,
          "midi": 41,
          "name": "F2",
          "ticks": 236880,
          "time": 164.83267600000002,
          "velocity": 0.7874015748031497
        },
        {
          "duration": 0.08333300000001032,
          "durationTicks": 120,
          "midi": 70,
          "name": "A#4",
          "ticks": 237000,
          "time": 164.916009,
          "velocity": 0.7874015748031497
        },
        {
          "duration": 0.0833329999999819,
          "durationTicks": 120,
          "midi": 68,
          "name": "G#4",
          "ticks": 237120,
          "time": 164.999342,
          "velocity": 0.7874015748031497
        },
        {
          "duration": 0.1666659999999922,
          "durationTicks": 240,
          "midi": 53,
          "name": "F3",
          "ticks": 237120,
          "time": 164.999342,
          "velocity": 0.7874015748031497
        },
        {
          "duration": 0.08333300000001032,
          "durationTicks": 120,
          "midi": 70,
          "name": "A#4",
          "ticks": 237240,
          "time": 165.082675,
          "velocity": 0.7874015748031497
        },
        {
          "duration": 0.1666659999999922,
          "durationTicks": 240,
          "midi": 74,
          "name": "D5",
          "ticks": 237360,
          "time": 165.166008,
          "velocity": 0.7874015748031497
        },
        {
          "duration": 0.1666659999999922,
          "durationTicks": 240,
          "midi": 42,
          "name": "F#2",
          "ticks": 237360,
          "time": 165.166008,
          "velocity": 0.7874015748031497
        },
        {
          "duration": 0.16666600000002063,
          "durationTicks": 240,
          "midi": 70,
          "name": "A#4",
          "ticks": 237600,
          "time": 165.332674,
          "velocity": 0.7874015748031497
        },
        {
          "duration": 0.16666600000002063,
          "durationTicks": 240,
          "midi": 54,
          "name": "F#3",
          "ticks": 237600,
          "time": 165.332674,
          "velocity": 0.7874015748031497
        },
        {
          "duration": 0.1666659999999922,
          "durationTicks": 240,
          "midi": 74,
          "name": "D5",
          "ticks": 237840,
          "time": 165.49934000000002,
          "velocity": 0.7874015748031497
        },
        {
          "duration": 0.1666659999999922,
          "durationTicks": 240,
          "midi": 44,
          "name": "G#2",
          "ticks": 237840,
          "time": 165.49934000000002,
          "velocity": 0.7874015748031497
        },
        {
          "duration": 0.1666659999999922,
          "durationTicks": 240,
          "midi": 77,
          "name": "F5",
          "ticks": 238080,
          "time": 165.666006,
          "velocity": 0.7874015748031497
        },
        {
          "duration": 0.1666659999999922,
          "durationTicks": 240,
          "midi": 56,
          "name": "G#3",
          "ticks": 238080,
          "time": 165.666006,
          "velocity": 0.7874015748031497
        },
        {
          "duration": 0.49999800000000505,
          "durationTicks": 720,
          "midi": 75,
          "name": "D#5",
          "ticks": 238320,
          "time": 165.832672,
          "velocity": 0.7874015748031497
        },
        {
          "duration": 0.1666659999999922,
          "durationTicks": 240,
          "midi": 35,
          "name": "B1",
          "ticks": 238320,
          "time": 165.832672,
          "velocity": 0.7874015748031497
        },
        {
          "duration": 0.16666600000002063,
          "durationTicks": 240,
          "midi": 47,
          "name": "B2",
          "ticks": 238560,
          "time": 165.999338,
          "velocity": 0.7874015748031497
        },
        {
          "duration": 0.1666659999999922,
          "durationTicks": 240,
          "midi": 35,
          "name": "B1",
          "ticks": 238800,
          "time": 166.16600400000002,
          "velocity": 0.7874015748031497
        },
        {
          "duration": 0.08333300000001032,
          "durationTicks": 120,
          "midi": 75,
          "name": "D#5",
          "ticks": 239040,
          "time": 166.33267,
          "velocity": 0.7874015748031497
        },
        {
          "duration": 0.1666659999999922,
          "durationTicks": 240,
          "midi": 47,
          "name": "B2",
          "ticks": 239040,
          "time": 166.33267,
          "velocity": 0.7874015748031497
        },
        {
          "duration": 0.0833329999999819,
          "durationTicks": 120,
          "midi": 70,
          "name": "A#4",
          "ticks": 239160,
          "time": 166.41600300000002,
          "velocity": 0.7874015748031497
        },
        {
          "duration": 0.16666600000002063,
          "durationTicks": 240,
          "midi": 70,
          "name": "A#4",
          "ticks": 239280,
          "time": 166.499336,
          "velocity": 0.7874015748031497
        },
        {
          "duration": 0.16666600000002063,
          "durationTicks": 240,
          "midi": 37,
          "name": "C#2",
          "ticks": 239280,
          "time": 166.499336,
          "velocity": 0.7874015748031497
        },
        {
          "duration": 0.1666659999999922,
          "durationTicks": 240,
          "midi": 73,
          "name": "C#5",
          "ticks": 239520,
          "time": 166.66600200000002,
          "velocity": 0.7874015748031497
        },
        {
          "duration": 0.1666659999999922,
          "durationTicks": 240,
          "midi": 49,
          "name": "C#3",
          "ticks": 239520,
          "time": 166.66600200000002,
          "velocity": 0.7874015748031497
        },
        {
          "duration": 0.1666659999999922,
          "durationTicks": 240,
          "midi": 73,
          "name": "C#5",
          "ticks": 239760,
          "time": 166.832668,
          "velocity": 0.7874015748031497
        },
        {
          "duration": 0.1666659999999922,
          "durationTicks": 240,
          "midi": 37,
          "name": "C#2",
          "ticks": 239760,
          "time": 166.832668,
          "velocity": 0.7874015748031497
        },
        {
          "duration": 0.33333200000001284,
          "durationTicks": 480,
          "midi": 75,
          "name": "D#5",
          "ticks": 240000,
          "time": 166.999334,
          "velocity": 0.7874015748031497
        },
        {
          "duration": 0.1666659999999922,
          "durationTicks": 240,
          "midi": 49,
          "name": "C#3",
          "ticks": 240000,
          "time": 166.999334,
          "velocity": 0.7874015748031497
        },
        {
          "duration": 0.16666600000002063,
          "durationTicks": 240,
          "midi": 39,
          "name": "D#2",
          "ticks": 240240,
          "time": 167.166,
          "velocity": 0.7874015748031497
        },
        {
          "duration": 0.1666659999999922,
          "durationTicks": 240,
          "midi": 70,
          "name": "A#4",
          "ticks": 240480,
          "time": 167.33266600000002,
          "velocity": 0.7874015748031497
        },
        {
          "duration": 0.1666659999999922,
          "durationTicks": 240,
          "midi": 51,
          "name": "D#3",
          "ticks": 240480,
          "time": 167.33266600000002,
          "velocity": 0.7874015748031497
        },
        {
          "duration": 0.1666659999999922,
          "durationTicks": 240,
          "midi": 73,
          "name": "C#5",
          "ticks": 240720,
          "time": 167.499332,
          "velocity": 0.7874015748031497
        },
        {
          "duration": 0.1666659999999922,
          "durationTicks": 240,
          "midi": 39,
          "name": "D#2",
          "ticks": 240720,
          "time": 167.499332,
          "velocity": 0.7874015748031497
        },
        {
          "duration": 0.08333300000001032,
          "durationTicks": 120,
          "midi": 75,
          "name": "D#5",
          "ticks": 240960,
          "time": 167.665998,
          "velocity": 0.7874015748031497
        },
        {
          "duration": 0.16666600000002063,
          "durationTicks": 240,
          "midi": 51,
          "name": "D#3",
          "ticks": 240960,
          "time": 167.665998,
          "velocity": 0.7874015748031497
        },
        {
          "duration": 0.08333300000001032,
          "durationTicks": 120,
          "midi": 70,
          "name": "A#4",
          "ticks": 241080,
          "time": 167.749331,
          "velocity": 0.7874015748031497
        },
        {
          "duration": 0.0833329999999819,
          "durationTicks": 120,
          "midi": 70,
          "name": "A#4",
          "ticks": 241200,
          "time": 167.83266400000002,
          "velocity": 0.7874015748031497
        },
        {
          "duration": 0.1666659999999922,
          "durationTicks": 240,
          "midi": 39,
          "name": "D#2",
          "ticks": 241200,
          "time": 167.83266400000002,
          "velocity": 0.7874015748031497
        },
        {
          "duration": 0.08333300000001032,
          "durationTicks": 120,
          "midi": 73,
          "name": "C#5",
          "ticks": 241320,
          "time": 167.915997,
          "velocity": 0.7874015748031497
        },
        {
          "duration": 0.0833329999999819,
          "durationTicks": 120,
          "midi": 68,
          "name": "G#4",
          "ticks": 241440,
          "time": 167.99933000000001,
          "velocity": 0.7874015748031497
        },
        {
          "duration": 0.1666659999999922,
          "durationTicks": 240,
          "midi": 51,
          "name": "D#3",
          "ticks": 241440,
          "time": 167.99933000000001,
          "velocity": 0.7874015748031497
        },
        {
          "duration": 0.08333300000001032,
          "durationTicks": 120,
          "midi": 70,
          "name": "A#4",
          "ticks": 241560,
          "time": 168.082663,
          "velocity": 0.7874015748031497
        },
        {
          "duration": 0.1666659999999922,
          "durationTicks": 240,
          "midi": 66,
          "name": "F#4",
          "ticks": 241680,
          "time": 168.165996,
          "velocity": 0.7874015748031497
        },
        {
          "duration": 0.1666659999999922,
          "durationTicks": 240,
          "midi": 37,
          "name": "C#2",
          "ticks": 241680,
          "time": 168.165996,
          "velocity": 0.7874015748031497
        },
        {
          "duration": 0.16666600000002063,
          "durationTicks": 240,
          "midi": 67,
          "name": "G4",
          "ticks": 241920,
          "time": 168.332662,
          "velocity": 0.7874015748031497
        },
        {
          "duration": 0.16666600000002063,
          "durationTicks": 240,
          "midi": 49,
          "name": "C#3",
          "ticks": 241920,
          "time": 168.332662,
          "velocity": 0.7874015748031497
        },
        {
          "duration": 0.1666659999999922,
          "durationTicks": 240,
          "midi": 68,
          "name": "G#4",
          "ticks": 242160,
          "time": 168.49932800000002,
          "velocity": 0.7874015748031497
        },
        {
          "duration": 0.1666659999999922,
          "durationTicks": 240,
          "midi": 32,
          "name": "G#1",
          "ticks": 242160,
          "time": 168.49932800000002,
          "velocity": 0.7874015748031497
        },
        {
          "duration": 0.08333300000001032,
          "durationTicks": 120,
          "midi": 59,
          "name": "B3",
          "ticks": 242400,
          "time": 168.665994,
          "velocity": 0.7874015748031497
        },
        {
          "duration": 0.1666659999999922,
          "durationTicks": 240,
          "midi": 44,
          "name": "G#2",
          "ticks": 242400,
          "time": 168.665994,
          "velocity": 0.7874015748031497
        },
        {
          "duration": 0.0833329999999819,
          "durationTicks": 120,
          "midi": 68,
          "name": "G#4",
          "ticks": 242520,
          "time": 168.74932700000002,
          "velocity": 0.7874015748031497
        },
        {
          "duration": 0.1666659999999922,
          "durationTicks": 240,
          "midi": 59,
          "name": "B3",
          "ticks": 242640,
          "time": 168.83266,
          "velocity": 0.7874015748031497
        },
        {
          "duration": 0.16666600000002063,
          "durationTicks": 240,
          "midi": 68,
          "name": "G#4",
          "ticks": 242880,
          "time": 168.999326,
          "velocity": 0.7874015748031497
        },
        {
          "duration": 0.1666659999999922,
          "durationTicks": 240,
          "midi": 70,
          "name": "A#4",
          "ticks": 243120,
          "time": 169.16599200000002,
          "velocity": 0.7874015748031497
        },
        {
          "duration": 0.1666659999999922,
          "durationTicks": 240,
          "midi": 34,
          "name": "A#1",
          "ticks": 243120,
          "time": 169.16599200000002,
          "velocity": 0.7874015748031497
        },
        {
          "duration": 0.08333300000001032,
          "durationTicks": 120,
          "midi": 78,
          "name": "F#5",
          "ticks": 243360,
          "time": 169.332658,
          "velocity": 0.7874015748031497
        },
        {
          "duration": 0.1666659999999922,
          "durationTicks": 240,
          "midi": 46,
          "name": "A#2",
          "ticks": 243360,
          "time": 169.332658,
          "velocity": 0.7874015748031497
        },
        {
          "duration": 0.0833329999999819,
          "durationTicks": 120,
          "midi": 78,
          "name": "F#5",
          "ticks": 243480,
          "time": 169.41599100000002,
          "velocity": 0.7874015748031497
        },
        {
          "duration": 0.16666600000002063,
          "durationTicks": 240,
          "midi": 77,
          "name": "F5",
          "ticks": 243600,
          "time": 169.499324,
          "velocity": 0.7874015748031497
        },
        {
          "duration": 0.1666659999999922,
          "durationTicks": 240,
          "midi": 73,
          "name": "C#5",
          "ticks": 243840,
          "time": 169.66599000000002,
          "velocity": 0.7874015748031497
        },
        {
          "duration": 1.3333279999999945,
          "durationTicks": 1920,
          "midi": 75,
          "name": "D#5",
          "ticks": 244080,
          "time": 169.83265600000001,
          "velocity": 0.7874015748031497
        },
        {
          "duration": 0.1666659999999922,
          "durationTicks": 240,
          "midi": 27,
          "name": "D#1",
          "ticks": 244080,
          "time": 169.83265600000001,
          "velocity": 0.7874015748031497
        },
        {
          "duration": 0.1666659999999922,
          "durationTicks": 240,
          "midi": 39,
          "name": "D#2",
          "ticks": 244320,
          "time": 169.999322,
          "velocity": 0.7874015748031497
        },
        {
          "duration": 0.16666600000002063,
          "durationTicks": 240,
          "midi": 29,
          "name": "F1",
          "ticks": 244560,
          "time": 170.165988,
          "velocity": 0.7874015748031497
        },
        {
          "duration": 0.1666659999999922,
          "durationTicks": 240,
          "midi": 41,
          "name": "F2",
          "ticks": 244800,
          "time": 170.33265400000002,
          "velocity": 0.7874015748031497
        },
        {
          "duration": 0.1666659999999922,
          "durationTicks": 240,
          "midi": 30,
          "name": "F#1",
          "ticks": 245040,
          "time": 170.49932,
          "velocity": 0.7874015748031497
        },
        {
          "duration": 0.1666659999999922,
          "durationTicks": 240,
          "midi": 42,
          "name": "F#2",
          "ticks": 245280,
          "time": 170.665986,
          "velocity": 0.7874015748031497
        },
        {
          "duration": 0.16666600000002063,
          "durationTicks": 240,
          "midi": 32,
          "name": "G#1",
          "ticks": 245520,
          "time": 170.832652,
          "velocity": 0.7874015748031497
        },
        {
          "duration": 0.1666659999999922,
          "durationTicks": 240,
          "midi": 44,
          "name": "G#2",
          "ticks": 245760,
          "time": 170.99931800000002,
          "velocity": 0.7874015748031497
        },
        {
          "duration": 0.33333200000001284,
          "durationTicks": 480,
          "midi": 70,
          "name": "A#4",
          "ticks": 246000,
          "time": 171.165984,
          "velocity": 0.7874015748031497
        },
        {
          "duration": 0.1666659999999922,
          "durationTicks": 240,
          "midi": 35,
          "name": "B1",
          "ticks": 246000,
          "time": 171.165984,
          "velocity": 0.7874015748031497
        },
        {
          "duration": 0.16666600000002063,
          "durationTicks": 240,
          "midi": 47,
          "name": "B2",
          "ticks": 246240,
          "time": 171.33265,
          "velocity": 0.7874015748031497
        },
        {
          "duration": 0.3333319999999844,
          "durationTicks": 480,
          "midi": 78,
          "name": "F#5",
          "ticks": 246480,
          "time": 171.49931600000002,
          "velocity": 0.7874015748031497
        },
        {
          "duration": 0.1666659999999922,
          "durationTicks": 240,
          "midi": 35,
          "name": "B1",
          "ticks": 246480,
          "time": 171.49931600000002,
          "velocity": 0.7874015748031497
        },
        {
          "duration": 0.1666659999999922,
          "durationTicks": 240,
          "midi": 47,
          "name": "B2",
          "ticks": 246720,
          "time": 171.665982,
          "velocity": 0.7874015748031497
        },
        {
          "duration": 0.1666659999999922,
          "durationTicks": 240,
          "midi": 77,
          "name": "F5",
          "ticks": 246960,
          "time": 171.832648,
          "velocity": 0.7874015748031497
        },
        {
          "duration": 0.1666659999999922,
          "durationTicks": 240,
          "midi": 35,
          "name": "B1",
          "ticks": 246960,
          "time": 171.832648,
          "velocity": 0.7874015748031497
        },
        {
          "duration": 0.33333200000001284,
          "durationTicks": 480,
          "midi": 78,
          "name": "F#5",
          "ticks": 247200,
          "time": 171.999314,
          "velocity": 0.7874015748031497
        },
        {
          "duration": 0.16666600000002063,
          "durationTicks": 240,
          "midi": 47,
          "name": "B2",
          "ticks": 247200,
          "time": 171.999314,
          "velocity": 0.7874015748031497
        },
        {
          "duration": 0.1666659999999922,
          "durationTicks": 240,
          "midi": 35,
          "name": "B1",
          "ticks": 247440,
          "time": 172.16598000000002,
          "velocity": 0.7874015748031497
        },
        {
          "duration": 0.49999800000000505,
          "durationTicks": 720,
          "midi": 80,
          "name": "G#5",
          "ticks": 247680,
          "time": 172.332646,
          "velocity": 0.7874015748031497
        },
        {
          "duration": 0.1666659999999922,
          "durationTicks": 240,
          "midi": 47,
          "name": "B2",
          "ticks": 247680,
          "time": 172.332646,
          "velocity": 0.7874015748031497
        },
        {
          "duration": 0.1666659999999922,
          "durationTicks": 240,
          "midi": 37,
          "name": "C#2",
          "ticks": 247920,
          "time": 172.499312,
          "velocity": 0.7874015748031497
        },
        {
          "duration": 0.16666600000002063,
          "durationTicks": 240,
          "midi": 49,
          "name": "C#3",
          "ticks": 248160,
          "time": 172.665978,
          "velocity": 0.7874015748031497
        },
        {
          "duration": 0.3333319999999844,
          "durationTicks": 480,
          "midi": 78,
          "name": "F#5",
          "ticks": 248400,
          "time": 172.83264400000002,
          "velocity": 0.7874015748031497
        },
        {
          "duration": 0.1666659999999922,
          "durationTicks": 240,
          "midi": 37,
          "name": "C#2",
          "ticks": 248400,
          "time": 172.83264400000002,
          "velocity": 0.7874015748031497
        },
        {
          "duration": 0.1666659999999922,
          "durationTicks": 240,
          "midi": 49,
          "name": "C#3",
          "ticks": 248640,
          "time": 172.99931,
          "velocity": 0.7874015748031497
        },
        {
          "duration": 0.33333200000001284,
          "durationTicks": 480,
          "midi": 77,
          "name": "F5",
          "ticks": 248880,
          "time": 173.165976,
          "velocity": 0.7874015748031497
        },
        {
          "duration": 0.16666600000002063,
          "durationTicks": 240,
          "midi": 37,
          "name": "C#2",
          "ticks": 248880,
          "time": 173.165976,
          "velocity": 0.7874015748031497
        },
        {
          "duration": 0.1666659999999922,
          "durationTicks": 240,
          "midi": 49,
          "name": "C#3",
          "ticks": 249120,
          "time": 173.33264200000002,
          "velocity": 0.7874015748031497
        },
        {
          "duration": 0.1666659999999922,
          "durationTicks": 240,
          "midi": 73,
          "name": "C#5",
          "ticks": 249360,
          "time": 173.499308,
          "velocity": 0.7874015748031497
        },
        {
          "duration": 0.1666659999999922,
          "durationTicks": 240,
          "midi": 37,
          "name": "C#2",
          "ticks": 249360,
          "time": 173.499308,
          "velocity": 0.7874015748031497
        },
        {
          "duration": 0.1666659999999922,
          "durationTicks": 240,
          "midi": 74,
          "name": "D5",
          "ticks": 249600,
          "time": 173.665974,
          "velocity": 0.7874015748031497
        },
        {
          "duration": 0.1666659999999922,
          "durationTicks": 240,
          "midi": 49,
          "name": "C#3",
          "ticks": 249600,
          "time": 173.665974,
          "velocity": 0.7874015748031497
        },
        {
          "duration": 0.33333200000001284,
          "durationTicks": 480,
          "midi": 75,
          "name": "D#5",
          "ticks": 249840,
          "time": 173.83264,
          "velocity": 0.7874015748031497
        },
        {
          "duration": 0.16666600000002063,
          "durationTicks": 240,
          "midi": 39,
          "name": "D#2",
          "ticks": 249840,
          "time": 173.83264,
          "velocity": 0.7874015748031497
        },
        {
          "duration": 0.1666659999999922,
          "durationTicks": 240,
          "midi": 51,
          "name": "D#3",
          "ticks": 250080,
          "time": 173.99930600000002,
          "velocity": 0.7874015748031497
        },
        {
          "duration": 0.3333319999999844,
          "durationTicks": 480,
          "midi": 82,
          "name": "A#5",
          "ticks": 250320,
          "time": 174.165972,
          "velocity": 0.7874015748031497
        },
        {
          "duration": 0.1666659999999922,
          "durationTicks": 240,
          "midi": 39,
          "name": "D#2",
          "ticks": 250320,
          "time": 174.165972,
          "velocity": 0.7874015748031497
        },
        {
          "duration": 0.1666659999999922,
          "durationTicks": 240,
          "midi": 51,
          "name": "D#3",
          "ticks": 250560,
          "time": 174.332638,
          "velocity": 0.7874015748031497
        },
        {
          "duration": 0.16666600000002063,
          "durationTicks": 240,
          "midi": 80,
          "name": "G#5",
          "ticks": 250800,
          "time": 174.499304,
          "velocity": 0.7874015748031497
        },
        {
          "duration": 0.16666600000002063,
          "durationTicks": 240,
          "midi": 39,
          "name": "D#2",
          "ticks": 250800,
          "time": 174.499304,
          "velocity": 0.7874015748031497
        },
        {
          "duration": 0.3333319999999844,
          "durationTicks": 480,
          "midi": 82,
          "name": "A#5",
          "ticks": 251040,
          "time": 174.66597000000002,
          "velocity": 0.7874015748031497
        },
        {
          "duration": 0.1666659999999922,
          "durationTicks": 240,
          "midi": 51,
          "name": "D#3",
          "ticks": 251040,
          "time": 174.66597000000002,
          "velocity": 0.7874015748031497
        },
        {
          "duration": 0.1666659999999922,
          "durationTicks": 240,
          "midi": 39,
          "name": "D#2",
          "ticks": 251280,
          "time": 174.832636,
          "velocity": 0.7874015748031497
        },
        {
          "duration": 0.49999800000000505,
          "durationTicks": 720,
          "midi": 85,
          "name": "C#6",
          "ticks": 251520,
          "time": 174.999302,
          "velocity": 0.7874015748031497
        },
        {
          "duration": 0.16666600000002063,
          "durationTicks": 240,
          "midi": 51,
          "name": "D#3",
          "ticks": 251520,
          "time": 174.999302,
          "velocity": 0.7874015748031497
        },
        {
          "duration": 0.1666659999999922,
          "durationTicks": 240,
          "midi": 39,
          "name": "D#2",
          "ticks": 251760,
          "time": 175.16596800000002,
          "velocity": 0.7874015748031497
        },
        {
          "duration": 0.1666659999999922,
          "durationTicks": 240,
          "midi": 51,
          "name": "D#3",
          "ticks": 252000,
          "time": 175.332634,
          "velocity": 0.7874015748031497
        },
        {
          "duration": 0.33333200000001284,
          "durationTicks": 480,
          "midi": 83,
          "name": "B5",
          "ticks": 252240,
          "time": 175.4993,
          "velocity": 0.7874015748031497
        },
        {
          "duration": 0.1666659999999922,
          "durationTicks": 240,
          "midi": 39,
          "name": "D#2",
          "ticks": 252240,
          "time": 175.4993,
          "velocity": 0.7874015748031497
        },
        {
          "duration": 0.16666600000002063,
          "durationTicks": 240,
          "midi": 51,
          "name": "D#3",
          "ticks": 252480,
          "time": 175.665966,
          "velocity": 0.7874015748031497
        },
        {
          "duration": 0.3333319999999844,
          "durationTicks": 480,
          "midi": 82,
          "name": "A#5",
          "ticks": 252720,
          "time": 175.83263200000002,
          "velocity": 0.7874015748031497
        },
        {
          "duration": 0.1666659999999922,
          "durationTicks": 240,
          "midi": 39,
          "name": "D#2",
          "ticks": 252720,
          "time": 175.83263200000002,
          "velocity": 0.7874015748031497
        },
        {
          "duration": 0.1666659999999922,
          "durationTicks": 240,
          "midi": 51,
          "name": "D#3",
          "ticks": 252960,
          "time": 175.999298,
          "velocity": 0.7874015748031497
        },
        {
          "duration": 0.33333200000001284,
          "durationTicks": 480,
          "midi": 80,
          "name": "G#5",
          "ticks": 253200,
          "time": 176.165964,
          "velocity": 0.7874015748031497
        },
        {
          "duration": 0.16666600000002063,
          "durationTicks": 240,
          "midi": 37,
          "name": "C#2",
          "ticks": 253200,
          "time": 176.165964,
          "velocity": 0.7874015748031497
        },
        {
          "duration": 0.1666659999999922,
          "durationTicks": 240,
          "midi": 49,
          "name": "C#3",
          "ticks": 253440,
          "time": 176.33263000000002,
          "velocity": 0.7874015748031497
        },
        {
          "duration": 0.6666639999999973,
          "durationTicks": 960,
          "midi": 78,
          "name": "F#5",
          "ticks": 253680,
          "time": 176.49929600000002,
          "velocity": 0.7874015748031497
        },
        {
          "duration": 0.1666659999999922,
          "durationTicks": 240,
          "midi": 35,
          "name": "B1",
          "ticks": 253680,
          "time": 176.49929600000002,
          "velocity": 0.7874015748031497
        },
        {
          "duration": 0.1666659999999922,
          "durationTicks": 240,
          "midi": 47,
          "name": "B2",
          "ticks": 253920,
          "time": 176.665962,
          "velocity": 0.7874015748031497
        },
        {
          "duration": 0.16666600000002063,
          "durationTicks": 240,
          "midi": 35,
          "name": "B1",
          "ticks": 254160,
          "time": 176.832628,
          "velocity": 0.7874015748031497
        },
        {
          "duration": 0.1666659999999922,
          "durationTicks": 240,
          "midi": 47,
          "name": "B2",
          "ticks": 254400,
          "time": 176.99929400000002,
          "velocity": 0.7874015748031497
        },
        {
          "duration": 0.1666659999999922,
          "durationTicks": 240,
          "midi": 77,
          "name": "F5",
          "ticks": 254640,
          "time": 177.16596,
          "velocity": 0.7874015748031497
        },
        {
          "duration": 0.1666659999999922,
          "durationTicks": 240,
          "midi": 35,
          "name": "B1",
          "ticks": 254640,
          "time": 177.16596,
          "velocity": 0.7874015748031497
        },
        {
          "duration": 0.33333200000001284,
          "durationTicks": 480,
          "midi": 78,
          "name": "F#5",
          "ticks": 254880,
          "time": 177.332626,
          "velocity": 0.7874015748031497
        },
        {
          "duration": 0.1666659999999922,
          "durationTicks": 240,
          "midi": 47,
          "name": "B2",
          "ticks": 254880,
          "time": 177.332626,
          "velocity": 0.7874015748031497
        },
        {
          "duration": 0.16666600000002063,
          "durationTicks": 240,
          "midi": 35,
          "name": "B1",
          "ticks": 255120,
          "time": 177.499292,
          "velocity": 0.7874015748031497
        },
        {
          "duration": 0.49999800000000505,
          "durationTicks": 720,
          "midi": 80,
          "name": "G#5",
          "ticks": 255360,
          "time": 177.66595800000002,
          "velocity": 0.7874015748031497
        },
        {
          "duration": 0.1666659999999922,
          "durationTicks": 240,
          "midi": 47,
          "name": "B2",
          "ticks": 255360,
          "time": 177.66595800000002,
          "velocity": 0.7874015748031497
        },
        {
          "duration": 0.1666659999999922,
          "durationTicks": 240,
          "midi": 37,
          "name": "C#2",
          "ticks": 255600,
          "time": 177.832624,
          "velocity": 0.7874015748031497
        },
        {
          "duration": 0.16666600000002063,
          "durationTicks": 240,
          "midi": 49,
          "name": "C#3",
          "ticks": 255840,
          "time": 177.99929,
          "velocity": 0.7874015748031497
        },
        {
          "duration": 0.3333319999999844,
          "durationTicks": 480,
          "midi": 78,
          "name": "F#5",
          "ticks": 256080,
          "time": 178.16595600000002,
          "velocity": 0.7874015748031497
        },
        {
          "duration": 0.1666659999999922,
          "durationTicks": 240,
          "midi": 37,
          "name": "C#2",
          "ticks": 256080,
          "time": 178.16595600000002,
          "velocity": 0.7874015748031497
        },
        {
          "duration": 0.1666659999999922,
          "durationTicks": 240,
          "midi": 49,
          "name": "C#3",
          "ticks": 256320,
          "time": 178.33262200000001,
          "velocity": 0.7874015748031497
        },
        {
          "duration": 0.33333200000001284,
          "durationTicks": 480,
          "midi": 77,
          "name": "F5",
          "ticks": 256560,
          "time": 178.499288,
          "velocity": 0.7874015748031497
        },
        {
          "duration": 0.1666659999999922,
          "durationTicks": 240,
          "midi": 37,
          "name": "C#2",
          "ticks": 256560,
          "time": 178.499288,
          "velocity": 0.7874015748031497
        },
        {
          "duration": 0.16666600000002063,
          "durationTicks": 240,
          "midi": 49,
          "name": "C#3",
          "ticks": 256800,
          "time": 178.665954,
          "velocity": 0.7874015748031497
        },
        {
          "duration": 0.1666659999999922,
          "durationTicks": 240,
          "midi": 73,
          "name": "C#5",
          "ticks": 257040,
          "time": 178.83262000000002,
          "velocity": 0.7874015748031497
        },
        {
          "duration": 0.1666659999999922,
          "durationTicks": 240,
          "midi": 68,
          "name": "G#4",
          "ticks": 257040,
          "time": 178.83262000000002,
          "velocity": 0.7874015748031497
        },
        {
          "duration": 0.1666659999999922,
          "durationTicks": 240,
          "midi": 37,
          "name": "C#2",
          "ticks": 257040,
          "time": 178.83262000000002,
          "velocity": 0.7874015748031497
        },
        {
          "duration": 0.1666659999999922,
          "durationTicks": 240,
          "midi": 74,
          "name": "D5",
          "ticks": 257280,
          "time": 178.999286,
          "velocity": 0.7874015748031497
        },
        {
          "duration": 0.1666659999999922,
          "durationTicks": 240,
          "midi": 69,
          "name": "A4",
          "ticks": 257280,
          "time": 178.999286,
          "velocity": 0.7874015748031497
        },
        {
          "duration": 0.1666659999999922,
          "durationTicks": 240,
          "midi": 49,
          "name": "C#3",
          "ticks": 257280,
          "time": 178.999286,
          "velocity": 0.7874015748031497
        },
        {
          "duration": 0.1666659999999922,
          "durationTicks": 240,
          "midi": 75,
          "name": "D#5",
          "ticks": 257520,
          "time": 179.165952,
          "velocity": 0.7874015748031497
        },
        {
          "duration": 0.1666659999999922,
          "durationTicks": 240,
          "midi": 70,
          "name": "A#4",
          "ticks": 257520,
          "time": 179.165952,
          "velocity": 0.7874015748031497
        },
        {
          "duration": 0.1666659999999922,
          "durationTicks": 240,
          "midi": 39,
          "name": "D#2",
          "ticks": 257520,
          "time": 179.165952,
          "velocity": 0.7874015748031497
        },
        {
          "duration": 0.16666600000002063,
          "durationTicks": 240,
          "midi": 73,
          "name": "C#5",
          "ticks": 257760,
          "time": 179.332618,
          "velocity": 0.7874015748031497
        },
        {
          "duration": 0.16666600000002063,
          "durationTicks": 240,
          "midi": 68,
          "name": "G#4",
          "ticks": 257760,
          "time": 179.332618,
          "velocity": 0.7874015748031497
        },
        {
          "duration": 0.16666600000002063,
          "durationTicks": 240,
          "midi": 51,
          "name": "D#3",
          "ticks": 257760,
          "time": 179.332618,
          "velocity": 0.7874015748031497
        },
        {
          "duration": 0.1666659999999922,
          "durationTicks": 240,
          "midi": 77,
          "name": "F5",
          "ticks": 258000,
          "time": 179.49928400000002,
          "velocity": 0.7874015748031497
        },
        {
          "duration": 0.1666659999999922,
          "durationTicks": 240,
          "midi": 73,
          "name": "C#5",
          "ticks": 258000,
          "time": 179.49928400000002,
          "velocity": 0.7874015748031497
        },
        {
          "duration": 0.1666659999999922,
          "durationTicks": 240,
          "midi": 39,
          "name": "D#2",
          "ticks": 258000,
          "time": 179.49928400000002,
          "velocity": 0.7874015748031497
        },
        {
          "duration": 0.33333200000001284,
          "durationTicks": 480,
          "midi": 78,
          "name": "F#5",
          "ticks": 258240,
          "time": 179.66595,
          "velocity": 0.7874015748031497
        },
        {
          "duration": 0.33333200000001284,
          "durationTicks": 480,
          "midi": 75,
          "name": "D#5",
          "ticks": 258240,
          "time": 179.66595,
          "velocity": 0.7874015748031497
        },
        {
          "duration": 0.1666659999999922,
          "durationTicks": 240,
          "midi": 51,
          "name": "D#3",
          "ticks": 258240,
          "time": 179.66595,
          "velocity": 0.7874015748031497
        },
        {
          "duration": 0.16666600000002063,
          "durationTicks": 240,
          "midi": 39,
          "name": "D#2",
          "ticks": 258480,
          "time": 179.832616,
          "velocity": 0.7874015748031497
        },
        {
          "duration": 0.1666659999999922,
          "durationTicks": 240,
          "midi": 75,
          "name": "D#5",
          "ticks": 258720,
          "time": 179.99928200000002,
          "velocity": 0.7874015748031497
        },
        {
          "duration": 0.1666659999999922,
          "durationTicks": 240,
          "midi": 70,
          "name": "A#4",
          "ticks": 258720,
          "time": 179.99928200000002,
          "velocity": 0.7874015748031497
        },
        {
          "duration": 0.1666659999999922,
          "durationTicks": 240,
          "midi": 51,
          "name": "D#3",
          "ticks": 258720,
          "time": 179.99928200000002,
          "velocity": 0.7874015748031497
        },
        {
          "duration": 0.1666659999999922,
          "durationTicks": 240,
          "midi": 80,
          "name": "G#5",
          "ticks": 258960,
          "time": 180.16594800000001,
          "velocity": 0.7874015748031497
        },
        {
          "duration": 0.1666659999999922,
          "durationTicks": 240,
          "midi": 77,
          "name": "F5",
          "ticks": 258960,
          "time": 180.16594800000001,
          "velocity": 0.7874015748031497
        },
        {
          "duration": 0.1666659999999922,
          "durationTicks": 240,
          "midi": 39,
          "name": "D#2",
          "ticks": 258960,
          "time": 180.16594800000001,
          "velocity": 0.7874015748031497
        },
        {
          "duration": 0.33333200000001284,
          "durationTicks": 480,
          "midi": 82,
          "name": "A#5",
          "ticks": 259200,
          "time": 180.332614,
          "velocity": 0.7874015748031497
        },
        {
          "duration": 0.33333200000001284,
          "durationTicks": 480,
          "midi": 78,
          "name": "F#5",
          "ticks": 259200,
          "time": 180.332614,
          "velocity": 0.7874015748031497
        },
        {
          "duration": 0.1666659999999922,
          "durationTicks": 240,
          "midi": 51,
          "name": "D#3",
          "ticks": 259200,
          "time": 180.332614,
          "velocity": 0.7874015748031497
        },
        {
          "duration": 0.16666600000002063,
          "durationTicks": 240,
          "midi": 39,
          "name": "D#2",
          "ticks": 259440,
          "time": 180.49928,
          "velocity": 0.7874015748031497
        },
        {
          "duration": 0.1666659999999922,
          "durationTicks": 240,
          "midi": 85,
          "name": "C#6",
          "ticks": 259680,
          "time": 180.66594600000002,
          "velocity": 0.7874015748031497
        },
        {
          "duration": 0.1666659999999922,
          "durationTicks": 240,
          "midi": 80,
          "name": "G#5",
          "ticks": 259680,
          "time": 180.66594600000002,
          "velocity": 0.7874015748031497
        },
        {
          "duration": 0.1666659999999922,
          "durationTicks": 240,
          "midi": 51,
          "name": "D#3",
          "ticks": 259680,
          "time": 180.66594600000002,
          "velocity": 0.7874015748031497
        },
        {
          "duration": 0.1666659999999922,
          "durationTicks": 240,
          "midi": 87,
          "name": "D#6",
          "ticks": 259920,
          "time": 180.832612,
          "velocity": 0.7874015748031497
        },
        {
          "duration": 0.1666659999999922,
          "durationTicks": 240,
          "midi": 82,
          "name": "A#5",
          "ticks": 259920,
          "time": 180.832612,
          "velocity": 0.7874015748031497
        },
        {
          "duration": 0.1666659999999922,
          "durationTicks": 240,
          "midi": 41,
          "name": "F2",
          "ticks": 259920,
          "time": 180.832612,
          "velocity": 0.7874015748031497
        },
        {
          "duration": 0.1666659999999922,
          "durationTicks": 240,
          "midi": 90,
          "name": "F#6",
          "ticks": 260160,
          "time": 180.999278,
          "velocity": 0.7874015748031497
        },
        {
          "duration": 0.1666659999999922,
          "durationTicks": 240,
          "midi": 87,
          "name": "D#6",
          "ticks": 260160,
          "time": 180.999278,
          "velocity": 0.7874015748031497
        },
        {
          "duration": 0.1666659999999922,
          "durationTicks": 240,
          "midi": 53,
          "name": "F3",
          "ticks": 260160,
          "time": 180.999278,
          "velocity": 0.7874015748031497
        },
        {
          "duration": 0.16666600000002063,
          "durationTicks": 240,
          "midi": 89,
          "name": "F6",
          "ticks": 260400,
          "time": 181.165944,
          "velocity": 0.7874015748031497
        },
        {
          "duration": 0.16666600000002063,
          "durationTicks": 240,
          "midi": 85,
          "name": "C#6",
          "ticks": 260400,
          "time": 181.165944,
          "velocity": 0.7874015748031497
        },
        {
          "duration": 0.16666600000002063,
          "durationTicks": 240,
          "midi": 42,
          "name": "F#2",
          "ticks": 260400,
          "time": 181.165944,
          "velocity": 0.7874015748031497
        },
        {
          "duration": 0.1666659999999922,
          "durationTicks": 240,
          "midi": 87,
          "name": "D#6",
          "ticks": 260640,
          "time": 181.33261000000002,
          "velocity": 0.7874015748031497
        },
        {
          "duration": 0.1666659999999922,
          "durationTicks": 240,
          "midi": 82,
          "name": "A#5",
          "ticks": 260640,
          "time": 181.33261000000002,
          "velocity": 0.7874015748031497
        },
        {
          "duration": 0.1666659999999922,
          "durationTicks": 240,
          "midi": 54,
          "name": "F#3",
          "ticks": 260640,
          "time": 181.33261000000002,
          "velocity": 0.7874015748031497
        },
        {
          "duration": 0.33333200000001284,
          "durationTicks": 480,
          "midi": 85,
          "name": "C#6",
          "ticks": 260880,
          "time": 181.499276,
          "velocity": 0.7874015748031497
        },
        {
          "duration": 0.33333200000001284,
          "durationTicks": 480,
          "midi": 80,
          "name": "G#5",
          "ticks": 260880,
          "time": 181.499276,
          "velocity": 0.7874015748031497
        },
        {
          "duration": 0.1666659999999922,
          "durationTicks": 240,
          "midi": 37,
          "name": "C#2",
          "ticks": 260880,
          "time": 181.499276,
          "velocity": 0.7874015748031497
        },
        {
          "duration": 0.16666600000002063,
          "durationTicks": 240,
          "midi": 49,
          "name": "C#3",
          "ticks": 261120,
          "time": 181.665942,
          "velocity": 0.7874015748031497
        },
        {
          "duration": 0.3333319999999844,
          "durationTicks": 480,
          "midi": 87,
          "name": "D#6",
          "ticks": 261360,
          "time": 181.83260800000002,
          "velocity": 0.7874015748031497
        },
        {
          "duration": 0.3333319999999844,
          "durationTicks": 480,
          "midi": 82,
          "name": "A#5",
          "ticks": 261360,
          "time": 181.83260800000002,
          "velocity": 0.7874015748031497
        },
        {
          "duration": 0.1666659999999922,
          "durationTicks": 240,
          "midi": 35,
          "name": "B1",
          "ticks": 261360,
          "time": 181.83260800000002,
          "velocity": 0.7874015748031497
        },
        {
          "duration": 0.1666659999999922,
          "durationTicks": 240,
          "midi": 47,
          "name": "B2",
          "ticks": 261600,
          "time": 181.999274,
          "velocity": 0.7874015748031497
        },
        {
          "duration": 0.33333200000001284,
          "durationTicks": 480,
          "midi": 90,
          "name": "F#6",
          "ticks": 261840,
          "time": 182.16594,
          "velocity": 0.7874015748031497
        },
        {
          "duration": 0.33333200000001284,
          "durationTicks": 480,
          "midi": 87,
          "name": "D#6",
          "ticks": 261840,
          "time": 182.16594,
          "velocity": 0.7874015748031497
        },
        {
          "duration": 0.1666659999999922,
          "durationTicks": 240,
          "midi": 35,
          "name": "B1",
          "ticks": 261840,
          "time": 182.16594,
          "velocity": 0.7874015748031497
        },
        {
          "duration": 0.16666600000002063,
          "durationTicks": 240,
          "midi": 47,
          "name": "B2",
          "ticks": 262080,
          "time": 182.332606,
          "velocity": 0.7874015748031497
        },
        {
          "duration": 0.1666659999999922,
          "durationTicks": 240,
          "midi": 89,
          "name": "F6",
          "ticks": 262320,
          "time": 182.49927200000002,
          "velocity": 0.7874015748031497
        },
        {
          "duration": 0.1666659999999922,
          "durationTicks": 240,
          "midi": 85,
          "name": "C#6",
          "ticks": 262320,
          "time": 182.49927200000002,
          "velocity": 0.7874015748031497
        },
        {
          "duration": 0.1666659999999922,
          "durationTicks": 240,
          "midi": 35,
          "name": "B1",
          "ticks": 262320,
          "time": 182.49927200000002,
          "velocity": 0.7874015748031497
        },
        {
          "duration": 0.1666659999999922,
          "durationTicks": 240,
          "midi": 87,
          "name": "D#6",
          "ticks": 262560,
          "time": 182.665938,
          "velocity": 0.7874015748031497
        },
        {
          "duration": 0.1666659999999922,
          "durationTicks": 240,
          "midi": 82,
          "name": "A#5",
          "ticks": 262560,
          "time": 182.665938,
          "velocity": 0.7874015748031497
        },
        {
          "duration": 0.1666659999999922,
          "durationTicks": 240,
          "midi": 47,
          "name": "B2",
          "ticks": 262560,
          "time": 182.665938,
          "velocity": 0.7874015748031497
        },
        {
          "duration": 0.1666659999999922,
          "durationTicks": 240,
          "midi": 35,
          "name": "B1",
          "ticks": 262800,
          "time": 182.832604,
          "velocity": 0.7874015748031497
        },
        {
          "duration": 1.333328000000023,
          "durationTicks": 1920,
          "midi": 87,
          "name": "D#6",
          "ticks": 263040,
          "time": 182.99927,
          "velocity": 0.7874015748031497
        },
        {
          "duration": 1.333328000000023,
          "durationTicks": 1920,
          "midi": 82,
          "name": "A#5",
          "ticks": 263040,
          "time": 182.99927,
          "velocity": 0.7874015748031497
        },
        {
          "duration": 0.16666600000002063,
          "durationTicks": 240,
          "midi": 47,
          "name": "B2",
          "ticks": 263040,
          "time": 182.99927,
          "velocity": 0.7874015748031497
        },
        {
          "duration": 0.1666659999999922,
          "durationTicks": 240,
          "midi": 37,
          "name": "C#2",
          "ticks": 263280,
          "time": 183.16593600000002,
          "velocity": 0.7874015748031497
        },
        {
          "duration": 0.1666659999999922,
          "durationTicks": 240,
          "midi": 49,
          "name": "C#3",
          "ticks": 263520,
          "time": 183.332602,
          "velocity": 0.7874015748031497
        },
        {
          "duration": 0.16666600000002063,
          "durationTicks": 240,
          "midi": 37,
          "name": "C#2",
          "ticks": 263760,
          "time": 183.499268,
          "velocity": 0.7874015748031497
        },
        {
          "duration": 0.1666659999999922,
          "durationTicks": 240,
          "midi": 49,
          "name": "C#3",
          "ticks": 264000,
          "time": 183.66593400000002,
          "velocity": 0.7874015748031497
        },
        {
          "duration": 0.1666659999999922,
          "durationTicks": 240,
          "midi": 37,
          "name": "C#2",
          "ticks": 264240,
          "time": 183.8326,
          "velocity": 0.7874015748031497
        },
        {
          "duration": 0.1666659999999922,
          "durationTicks": 240,
          "midi": 49,
          "name": "C#3",
          "ticks": 264480,
          "time": 183.999266,
          "velocity": 0.7874015748031497
        },
        {
          "duration": 0.16666600000002063,
          "durationTicks": 240,
          "midi": 37,
          "name": "C#2",
          "ticks": 264720,
          "time": 184.165932,
          "velocity": 0.7874015748031497
        },
        {
          "duration": 0.49999800000000505,
          "durationTicks": 720,
          "midi": 87,
          "name": "D#6",
          "ticks": 264960,
          "time": 184.33259800000002,
          "velocity": 0.7874015748031497
        },
        {
          "duration": 0.49999800000000505,
          "durationTicks": 720,
          "midi": 82,
          "name": "A#5",
          "ticks": 264960,
          "time": 184.33259800000002,
          "velocity": 0.7874015748031497
        },
        {
          "duration": 0.1666659999999922,
          "durationTicks": 240,
          "midi": 49,
          "name": "C#3",
          "ticks": 264960,
          "time": 184.33259800000002,
          "velocity": 0.7874015748031497
        },
        {
          "duration": 0.1666659999999922,
          "durationTicks": 240,
          "midi": 39,
          "name": "D#2",
          "ticks": 265200,
          "time": 184.499264,
          "velocity": 0.7874015748031497
        },
        {
          "duration": 0.16666600000002063,
          "durationTicks": 240,
          "midi": 51,
          "name": "D#3",
          "ticks": 265440,
          "time": 184.66593,
          "velocity": 0.7874015748031497
        },
        {
          "duration": 0.3333319999999844,
          "durationTicks": 480,
          "midi": 94,
          "name": "A#6",
          "ticks": 265680,
          "time": 184.83259600000002,
          "velocity": 0.7874015748031497
        },
        {
          "duration": 0.3333319999999844,
          "durationTicks": 480,
          "midi": 90,
          "name": "F#6",
          "ticks": 265680,
          "time": 184.83259600000002,
          "velocity": 0.7874015748031497
        },
        {
          "duration": 0.1666659999999922,
          "durationTicks": 240,
          "midi": 39,
          "name": "D#2",
          "ticks": 265680,
          "time": 184.83259600000002,
          "velocity": 0.7874015748031497
        },
        {
          "duration": 0.1666659999999922,
          "durationTicks": 240,
          "midi": 51,
          "name": "D#3",
          "ticks": 265920,
          "time": 184.99926200000002,
          "velocity": 0.7874015748031497
        },
        {
          "duration": 0.1666659999999922,
          "durationTicks": 240,
          "midi": 92,
          "name": "G#6",
          "ticks": 266160,
          "time": 185.165928,
          "velocity": 0.7874015748031497
        },
        {
          "duration": 0.1666659999999922,
          "durationTicks": 240,
          "midi": 89,
          "name": "F6",
          "ticks": 266160,
          "time": 185.165928,
          "velocity": 0.7874015748031497
        },
        {
          "duration": 0.1666659999999922,
          "durationTicks": 240,
          "midi": 39,
          "name": "D#2",
          "ticks": 266160,
          "time": 185.165928,
          "velocity": 0.7874015748031497
        },
        {
          "duration": 0.16666600000002063,
          "durationTicks": 240,
          "midi": 90,
          "name": "F#6",
          "ticks": 266400,
          "time": 185.332594,
          "velocity": 0.7874015748031497
        },
        {
          "duration": 0.16666600000002063,
          "durationTicks": 240,
          "midi": 87,
          "name": "D#6",
          "ticks": 266400,
          "time": 185.332594,
          "velocity": 0.7874015748031497
        },
        {
          "duration": 0.16666600000002063,
          "durationTicks": 240,
          "midi": 51,
          "name": "D#3",
          "ticks": 266400,
          "time": 185.332594,
          "velocity": 0.7874015748031497
        },
        {
          "duration": 0.1666659999999922,
          "durationTicks": 240,
          "midi": 89,
          "name": "F6",
          "ticks": 266640,
          "time": 185.49926000000002,
          "velocity": 0.7874015748031497
        },
        {
          "duration": 0.1666659999999922,
          "durationTicks": 240,
          "midi": 85,
          "name": "C#6",
          "ticks": 266640,
          "time": 185.49926000000002,
          "velocity": 0.7874015748031497
        },
        {
          "duration": 0.1666659999999922,
          "durationTicks": 240,
          "midi": 39,
          "name": "D#2",
          "ticks": 266640,
          "time": 185.49926000000002,
          "velocity": 0.7874015748031497
        },
        {
          "duration": 1.3333279999999945,
          "durationTicks": 1920,
          "midi": 90,
          "name": "F#6",
          "ticks": 266880,
          "time": 185.665926,
          "velocity": 0.7874015748031497
        },
        {
          "duration": 1.3333279999999945,
          "durationTicks": 1920,
          "midi": 87,
          "name": "D#6",
          "ticks": 266880,
          "time": 185.665926,
          "velocity": 0.7874015748031497
        },
        {
          "duration": 0.1666659999999922,
          "durationTicks": 240,
          "midi": 51,
          "name": "D#3",
          "ticks": 266880,
          "time": 185.665926,
          "velocity": 0.7874015748031497
        },
        {
          "duration": 0.1666659999999922,
          "durationTicks": 240,
          "midi": 39,
          "name": "D#2",
          "ticks": 267120,
          "time": 185.832592,
          "velocity": 0.7874015748031497
        },
        {
          "duration": 0.16666600000002063,
          "durationTicks": 240,
          "midi": 51,
          "name": "D#3",
          "ticks": 267360,
          "time": 185.999258,
          "velocity": 0.7874015748031497
        },
        {
          "duration": 0.1666659999999922,
          "durationTicks": 240,
          "midi": 39,
          "name": "D#2",
          "ticks": 267600,
          "time": 186.16592400000002,
          "velocity": 0.7874015748031497
        },
        {
          "duration": 0.1666659999999922,
          "durationTicks": 240,
          "midi": 51,
          "name": "D#3",
          "ticks": 267840,
          "time": 186.33259,
          "velocity": 0.7874015748031497
        },
        {
          "duration": 0.16666600000002063,
          "durationTicks": 240,
          "midi": 39,
          "name": "D#2",
          "ticks": 268080,
          "time": 186.499256,
          "velocity": 0.7874015748031497
        },
        {
          "duration": 0.1666659999999922,
          "durationTicks": 240,
          "midi": 51,
          "name": "D#3",
          "ticks": 268320,
          "time": 186.66592200000002,
          "velocity": 0.7874015748031497
        },
        {
          "duration": 0.1666659999999922,
          "durationTicks": 240,
          "midi": 37,
          "name": "C#2",
          "ticks": 268560,
          "time": 186.83258800000002,
          "velocity": 0.7874015748031497
        },
        {
          "duration": 0.49999800000000505,
          "durationTicks": 720,
          "midi": 90,
          "name": "F#6",
          "ticks": 268800,
          "time": 186.999254,
          "velocity": 0.7874015748031497
        },
        {
          "duration": 0.49999800000000505,
          "durationTicks": 720,
          "midi": 87,
          "name": "D#6",
          "ticks": 268800,
          "time": 186.999254,
          "velocity": 0.7874015748031497
        },
        {
          "duration": 0.1666659999999922,
          "durationTicks": 240,
          "midi": 49,
          "name": "C#3",
          "ticks": 268800,
          "time": 186.999254,
          "velocity": 0.7874015748031497
        },
        {
          "duration": 0.16666600000002063,
          "durationTicks": 240,
          "midi": 35,
          "name": "B1",
          "ticks": 269040,
          "time": 187.16592,
          "velocity": 0.7874015748031497
        },
        {
          "duration": 0.1666659999999922,
          "durationTicks": 240,
          "midi": 47,
          "name": "B2",
          "ticks": 269280,
          "time": 187.33258600000002,
          "velocity": 0.7874015748031497
        },
        {
          "duration": 0.3333319999999844,
          "durationTicks": 480,
          "midi": 89,
          "name": "F6",
          "ticks": 269520,
          "time": 187.499252,
          "velocity": 0.7874015748031497
        },
        {
          "duration": 0.3333319999999844,
          "durationTicks": 480,
          "midi": 85,
          "name": "C#6",
          "ticks": 269520,
          "time": 187.499252,
          "velocity": 0.7874015748031497
        },
        {
          "duration": 0.1666659999999922,
          "durationTicks": 240,
          "midi": 35,
          "name": "B1",
          "ticks": 269520,
          "time": 187.499252,
          "velocity": 0.7874015748031497
        },
        {
          "duration": 0.1666659999999922,
          "durationTicks": 240,
          "midi": 47,
          "name": "B2",
          "ticks": 269760,
          "time": 187.665918,
          "velocity": 0.7874015748031497
        },
        {
          "duration": 0.33333200000001284,
          "durationTicks": 480,
          "midi": 87,
          "name": "D#6",
          "ticks": 270000,
          "time": 187.832584,
          "velocity": 0.7874015748031497
        },
        {
          "duration": 0.33333200000001284,
          "durationTicks": 480,
          "midi": 83,
          "name": "B5",
          "ticks": 270000,
          "time": 187.832584,
          "velocity": 0.7874015748031497
        },
        {
          "duration": 0.16666600000002063,
          "durationTicks": 240,
          "midi": 35,
          "name": "B1",
          "ticks": 270000,
          "time": 187.832584,
          "velocity": 0.7874015748031497
        },
        {
          "duration": 0.1666659999999922,
          "durationTicks": 240,
          "midi": 47,
          "name": "B2",
          "ticks": 270240,
          "time": 187.99925000000002,
          "velocity": 0.7874015748031497
        },
        {
          "duration": 0.1666659999999922,
          "durationTicks": 240,
          "midi": 89,
          "name": "F6",
          "ticks": 270480,
          "time": 188.165916,
          "velocity": 0.7874015748031497
        },
        {
          "duration": 0.1666659999999922,
          "durationTicks": 240,
          "midi": 85,
          "name": "C#6",
          "ticks": 270480,
          "time": 188.165916,
          "velocity": 0.7874015748031497
        },
        {
          "duration": 0.1666659999999922,
          "durationTicks": 240,
          "midi": 35,
          "name": "B1",
          "ticks": 270480,
          "time": 188.165916,
          "velocity": 0.7874015748031497
        },
        {
          "duration": 0.49999800000000505,
          "durationTicks": 720,
          "midi": 90,
          "name": "F#6",
          "ticks": 270720,
          "time": 188.332582,
          "velocity": 0.7874015748031497
        },
        {
          "duration": 0.49999800000000505,
          "durationTicks": 720,
          "midi": 87,
          "name": "D#6",
          "ticks": 270720,
          "time": 188.332582,
          "velocity": 0.7874015748031497
        },
        {
          "duration": 0.16666600000002063,
          "durationTicks": 240,
          "midi": 47,
          "name": "B2",
          "ticks": 270720,
          "time": 188.332582,
          "velocity": 0.7874015748031497
        },
        {
          "duration": 0.1666659999999922,
          "durationTicks": 240,
          "midi": 37,
          "name": "C#2",
          "ticks": 270960,
          "time": 188.49924800000002,
          "velocity": 0.7874015748031497
        },
        {
          "duration": 0.1666659999999922,
          "durationTicks": 240,
          "midi": 49,
          "name": "C#3",
          "ticks": 271200,
          "time": 188.66591400000001,
          "velocity": 0.7874015748031497
        },
        {
          "duration": 0.33333200000001284,
          "durationTicks": 480,
          "midi": 89,
          "name": "F6",
          "ticks": 271440,
          "time": 188.83258,
          "velocity": 0.7874015748031497
        },
        {
          "duration": 0.33333200000001284,
          "durationTicks": 480,
          "midi": 85,
          "name": "C#6",
          "ticks": 271440,
          "time": 188.83258,
          "velocity": 0.7874015748031497
        },
        {
          "duration": 0.1666659999999922,
          "durationTicks": 240,
          "midi": 37,
          "name": "C#2",
          "ticks": 271440,
          "time": 188.83258,
          "velocity": 0.7874015748031497
        },
        {
          "duration": 0.16666600000002063,
          "durationTicks": 240,
          "midi": 49,
          "name": "C#3",
          "ticks": 271680,
          "time": 188.999246,
          "velocity": 0.7874015748031497
        },
        {
          "duration": 0.3333319999999844,
          "durationTicks": 480,
          "midi": 87,
          "name": "D#6",
          "ticks": 271920,
          "time": 189.16591200000002,
          "velocity": 0.7874015748031497
        },
        {
          "duration": 0.3333319999999844,
          "durationTicks": 480,
          "midi": 82,
          "name": "A#5",
          "ticks": 271920,
          "time": 189.16591200000002,
          "velocity": 0.7874015748031497
        },
        {
          "duration": 0.1666659999999922,
          "durationTicks": 240,
          "midi": 37,
          "name": "C#2",
          "ticks": 271920,
          "time": 189.16591200000002,
          "velocity": 0.7874015748031497
        },
        {
          "duration": 0.1666659999999922,
          "durationTicks": 240,
          "midi": 49,
          "name": "C#3",
          "ticks": 272160,
          "time": 189.332578,
          "velocity": 0.7874015748031497
        },
        {
          "duration": 0.1666659999999922,
          "durationTicks": 240,
          "midi": 89,
          "name": "F6",
          "ticks": 272400,
          "time": 189.499244,
          "velocity": 0.7874015748031497
        },
        {
          "duration": 0.1666659999999922,
          "durationTicks": 240,
          "midi": 85,
          "name": "C#6",
          "ticks": 272400,
          "time": 189.499244,
          "velocity": 0.7874015748031497
        },
        {
          "duration": 0.1666659999999922,
          "durationTicks": 240,
          "midi": 37,
          "name": "C#2",
          "ticks": 272400,
          "time": 189.499244,
          "velocity": 0.7874015748031497
        },
        {
          "duration": 2.8333220000000097,
          "durationTicks": 4080,
          "midi": 91,
          "name": "G6",
          "ticks": 272640,
          "time": 189.66591,
          "velocity": 0.7874015748031497
        },
        {
          "duration": 2.8333220000000097,
          "durationTicks": 4080,
          "midi": 87,
          "name": "D#6",
          "ticks": 272640,
          "time": 189.66591,
          "velocity": 0.7874015748031497
        },
        {
          "duration": 0.16666600000002063,
          "durationTicks": 240,
          "midi": 49,
          "name": "C#3",
          "ticks": 272640,
          "time": 189.66591,
          "velocity": 0.7874015748031497
        },
        {
          "duration": 0.1666659999999922,
          "durationTicks": 240,
          "midi": 39,
          "name": "D#2",
          "ticks": 272880,
          "time": 189.83257600000002,
          "velocity": 0.7874015748031497
        },
        {
          "duration": 0.1666659999999922,
          "durationTicks": 240,
          "midi": 51,
          "name": "D#3",
          "ticks": 273120,
          "time": 189.999242,
          "velocity": 0.7874015748031497
        },
        {
          "duration": 0.16666600000002063,
          "durationTicks": 240,
          "midi": 39,
          "name": "D#2",
          "ticks": 273360,
          "time": 190.165908,
          "velocity": 0.7874015748031497
        },
        {
          "duration": 0.1666659999999922,
          "durationTicks": 240,
          "midi": 51,
          "name": "D#3",
          "ticks": 273600,
          "time": 190.33257400000002,
          "velocity": 0.7874015748031497
        },
        {
          "duration": 0.1666659999999922,
          "durationTicks": 240,
          "midi": 39,
          "name": "D#2",
          "ticks": 273840,
          "time": 190.49924000000001,
          "velocity": 0.7874015748031497
        },
        {
          "duration": 0.1666659999999922,
          "durationTicks": 240,
          "midi": 51,
          "name": "D#3",
          "ticks": 274080,
          "time": 190.665906,
          "velocity": 0.7874015748031497
        },
        {
          "duration": 0.16666600000002063,
          "durationTicks": 240,
          "midi": 39,
          "name": "D#2",
          "ticks": 274320,
          "time": 190.832572,
          "velocity": 0.7874015748031497
        },
        {
          "duration": 0.1666659999999922,
          "durationTicks": 240,
          "midi": 51,
          "name": "D#3",
          "ticks": 274560,
          "time": 190.99923800000002,
          "velocity": 0.7874015748031497
        },
        {
          "duration": 0.1666659999999922,
          "durationTicks": 240,
          "midi": 39,
          "name": "D#2",
          "ticks": 274800,
          "time": 191.165904,
          "velocity": 0.7874015748031497
        },
        {
          "duration": 0.1666659999999922,
          "durationTicks": 240,
          "midi": 51,
          "name": "D#3",
          "ticks": 275040,
          "time": 191.33257,
          "velocity": 0.7874015748031497
        },
        {
          "duration": 0.16666600000002063,
          "durationTicks": 240,
          "midi": 39,
          "name": "D#2",
          "ticks": 275280,
          "time": 191.499236,
          "velocity": 0.7874015748031497
        },
        {
          "duration": 0.1666659999999922,
          "durationTicks": 240,
          "midi": 51,
          "name": "D#3",
          "ticks": 275520,
          "time": 191.66590200000002,
          "velocity": 0.7874015748031497
        },
        {
          "duration": 0.1666659999999922,
          "durationTicks": 240,
          "midi": 39,
          "name": "D#2",
          "ticks": 275760,
          "time": 191.832568,
          "velocity": 0.7874015748031497
        },
        {
          "duration": 0.16666600000002063,
          "durationTicks": 240,
          "midi": 51,
          "name": "D#3",
          "ticks": 276000,
          "time": 191.999234,
          "velocity": 0.7874015748031497
        },
        {
          "duration": 0.1666659999999922,
          "durationTicks": 240,
          "midi": 39,
          "name": "D#2",
          "ticks": 276240,
          "time": 192.16590000000002,
          "velocity": 0.7874015748031497
        },
        {
          "duration": 0.1666659999999922,
          "durationTicks": 240,
          "midi": 51,
          "name": "D#3",
          "ticks": 276480,
          "time": 192.332566,
          "velocity": 0.7874015748031497
        }
      ],
      "endOfTrackTicks": 276720
    }
  ]
}
